# Blender 5.2.2 LTS
# www.blender.org
mtllib adamant_weight.mtl
g A_ShadowHull.001_SHADOW_A_ShadowHull_front.001
v 0.463173 0.690465 -0.019898
v 0.464735 0.687212 -0.006624
v 0.473851 0.684344 -0.014026
v 0.463688 0.689970 -0.015559
v 0.467071 0.689409 -0.018034
v 0.467164 0.689166 -0.014548
v 0.468189 0.687280 -0.008670
v 0.464259 0.688780 -0.010704
v 0.467522 0.688481 -0.011551
v 0.470970 0.687174 -0.015890
v 0.471511 0.686235 -0.011368
v 0.469656 0.687958 -0.013207
v 0.465629 0.685127 -0.158013
v 0.463173 0.690465 -0.146488
v 0.473851 0.684344 -0.150254
v 0.464886 0.687703 -0.154755
v 0.468900 0.685846 -0.156142
v 0.467933 0.687749 -0.153803
v 0.467072 0.689408 -0.147684
v 0.463989 0.689652 -0.150547
v 0.467348 0.688892 -0.151109
v 0.471890 0.685561 -0.153319
v 0.470969 0.687174 -0.149059
v 0.469862 0.687580 -0.151994
v -0.263844 0.736888 -0.103906
v -0.192119 0.735144 -0.107394
v -0.263643 0.734851 -0.114506
v -0.241088 0.736871 -0.104883
v -0.263780 0.737652 -0.107554
v -0.250008 0.737587 -0.107953
v -0.214756 0.735931 -0.110048
v -0.214836 0.736233 -0.106159
v -0.234237 0.737047 -0.108745
v -0.263707 0.736912 -0.111401
v -0.240934 0.735824 -0.112651
v -0.249959 0.737244 -0.110415
v -0.412069 0.736888 -0.103906
v -0.412946 0.734851 -0.114506
v -0.422370 0.732475 -0.108173
v -0.412348 0.737652 -0.107554
v -0.415884 0.736458 -0.104961
v -0.415487 0.737241 -0.108054
v -0.416584 0.735064 -0.113082
v -0.412667 0.736912 -0.111401
v -0.415709 0.736797 -0.110617
v -0.419639 0.734850 -0.106516
v -0.420014 0.734199 -0.110777
v -0.417923 0.736148 -0.109075
v -0.173343 -0.653164 0.428993
v -0.182297 -0.660000 0.422559
v -0.177762 -0.656582 0.428281
v -0.181039 -0.659084 0.425926
v -0.422816 -0.653164 0.428993
v -0.435716 -0.653158 0.425629
v -0.427199 -0.660000 0.422559
v -0.427056 -0.653144 0.428499
v -0.424217 -0.656518 0.428179
v -0.427493 -0.656406 0.427935
v -0.433570 -0.656510 0.425672
v -0.431774 -0.653141 0.427269
v -0.430479 -0.656402 0.427137
v -0.425800 -0.658987 0.425855
v -0.430484 -0.658989 0.424559
v -0.428576 -0.658227 0.426675
v -0.652741 -0.653158 0.304351
v -0.638847 -0.660000 0.304286
v -0.650922 -0.656579 0.304318
v -0.645837 -0.659083 0.304295
v 0.585466 -0.653158 0.304377
v 0.573743 -0.660000 0.304286
v 0.583943 -0.656579 0.304331
v 0.579652 -0.659083 0.304298
v 0.455590 -0.653158 0.396054
v 0.442935 -0.653163 0.400329
v 0.447699 -0.660000 0.393257
v 0.451831 -0.653159 0.398026
v 0.453746 -0.656512 0.396118
v 0.450841 -0.656410 0.397810
v 0.444508 -0.656514 0.399242
v 0.447204 -0.653162 0.399590
v 0.447895 -0.656410 0.398807
v 0.450890 -0.658988 0.395106
v 0.446233 -0.658989 0.396683
v 0.449062 -0.658229 0.397374
v 0.745120 -0.644193 0.191680
v 0.743591 -0.650463 0.184393
v 0.750742 -0.643669 0.185221
v 0.745352 -0.647444 0.190274
v 0.747906 -0.643980 0.189335
v 0.747727 -0.647182 0.188479
v 0.746993 -0.649460 0.184569
v 0.744801 -0.649705 0.187647
v 0.747421 -0.648889 0.186978
v 0.749954 -0.643789 0.186968
v 0.749577 -0.647006 0.184868
v 0.749055 -0.647053 0.186760
v 0.744485 -0.630795 -0.062857
v 0.751635 -0.624030 -0.061665
v 0.747948 -0.629872 -0.062907
v 0.750565 -0.627396 -0.062470
v 0.784296 0.217690 0.164026
v 0.789643 0.212142 0.157936
v 0.785274 0.226941 0.155973
v 0.786966 0.215323 0.161790
v 0.785584 0.221021 0.162036
v 0.787462 0.218813 0.160565
v 0.788922 0.217302 0.157204
v 0.788914 0.213295 0.159556
v 0.788529 0.217649 0.159016
v 0.785940 0.224393 0.159101
v 0.787323 0.222713 0.156487
v 0.787566 0.221179 0.158877
v 0.628266 0.445391 -0.361793
v 0.620830 0.457177 -0.357470
v 0.633035 0.450542 -0.354831
v 0.625918 0.449419 -0.361192
v 0.630767 0.447682 -0.360716
v 0.628913 0.450486 -0.360354
v 0.625362 0.456037 -0.357228
v 0.623200 0.453727 -0.359611
v 0.627180 0.453156 -0.359251
v 0.632489 0.449542 -0.358202
v 0.629812 0.453617 -0.356266
v 0.630129 0.451801 -0.358797
v 0.573174 0.527943 0.305278
v 0.579152 0.518995 0.308834
v 0.582675 0.524509 0.298985
v 0.575532 0.525802 0.307416
v 0.576750 0.527831 0.303585
v 0.578223 0.525984 0.305730
v 0.581249 0.521139 0.306272
v 0.577707 0.522546 0.308709
v 0.579648 0.523863 0.306581
v 0.580213 0.526579 0.301291
v 0.582532 0.523148 0.302684
v 0.580448 0.525144 0.304227
v 0.701167 0.342142 -0.353258
v 0.693160 0.350079 -0.360171
v 0.697143 0.356383 -0.353228
v 0.699590 0.344666 -0.356580
v 0.700562 0.347108 -0.353323
v 0.699291 0.348683 -0.356496
v 0.695408 0.352737 -0.359101
v 0.696676 0.347555 -0.359095
v 0.697639 0.350479 -0.358313
v 0.699089 0.352314 -0.353312
v 0.696848 0.355016 -0.356592
v 0.698407 0.351986 -0.356506
v -0.744027 0.265913 0.253338
v -0.743783 0.277141 0.246285
v -0.747510 0.264162 0.243627
v -0.744950 0.269923 0.251766
v -0.746585 0.265355 0.250761
v -0.746840 0.268405 0.249854
v -0.745718 0.273271 0.245285
v -0.744861 0.274015 0.249196
v -0.746577 0.270935 0.248123
v -0.747847 0.264721 0.247243
v -0.747081 0.268528 0.244313
v -0.747523 0.267964 0.247506
v -0.578635 0.500219 0.345763
v -0.572746 0.509263 0.341860
v -0.582602 0.505481 0.336357
v -0.577137 0.503779 0.345542
v -0.580897 0.502334 0.343441
v -0.579276 0.505038 0.343592
v -0.576419 0.509034 0.340413
v -0.574993 0.507071 0.344121
v -0.577857 0.507164 0.342635
v -0.582341 0.504250 0.340018
v -0.580011 0.507655 0.338407
v -0.580190 0.506267 0.341332
v -0.539346 0.555784 -0.271189
v -0.547162 0.547989 -0.269265
v -0.545636 0.557849 -0.260971
v -0.542657 0.553884 -0.271562
v -0.541986 0.557409 -0.268530
v -0.544151 0.555405 -0.269333
v -0.547431 0.551366 -0.266790
v -0.545497 0.551052 -0.270863
v -0.545883 0.553495 -0.268792
v -0.544276 0.558161 -0.264810
v -0.546873 0.554969 -0.263759
v -0.545497 0.555763 -0.266860
v 0.455590 -0.168925 0.396054
v 0.442926 -0.174071 0.400329
v 0.451847 -0.169485 0.398071
v 0.447212 -0.171369 0.399636
v -0.551189 0.503112 0.353906
v -0.558587 0.494498 0.356966
v -0.545545 0.493170 0.360409
v -0.553916 0.501057 0.355899
v -0.549396 0.500589 0.356943
v -0.552083 0.499398 0.357771
v -0.554600 0.494095 0.358631
v -0.556609 0.497921 0.357013
v -0.553743 0.497340 0.358319
v -0.547338 0.496963 0.359315
v -0.549831 0.493609 0.359890
v -0.550778 0.497032 0.359059
v 0.511840 0.494732 0.356348
v 0.504284 0.503112 0.353906
v 0.499470 0.493170 0.360409
v 0.509893 0.498102 0.356578
v 0.508085 0.494252 0.358314
v 0.507183 0.497442 0.358100
v 0.502755 0.500589 0.356943
v 0.507144 0.501151 0.355690
v 0.505485 0.499450 0.357655
v 0.503562 0.493681 0.359798
v 0.500999 0.496963 0.359314
v 0.504342 0.497078 0.358978
v -0.744027 -0.649100 0.253338
v -0.747510 -0.648314 0.243627
v -0.741463 -0.655439 0.246942
v -0.746586 -0.648849 0.250760
v -0.743820 -0.652381 0.252290
v -0.746273 -0.652081 0.250067
v -0.746639 -0.651724 0.244181
v -0.747847 -0.648564 0.247243
v -0.747158 -0.651872 0.247530
v -0.742897 -0.654662 0.249987
v -0.744454 -0.654297 0.245379
v -0.745611 -0.653772 0.248393
v -0.493160 -0.597944 -0.389829
v -0.495368 -0.605325 -0.383061
v -0.502490 -0.598419 -0.383627
v -0.493403 -0.601442 -0.388853
v -0.496959 -0.597993 -0.389135
v -0.497049 -0.601345 -0.388180
v -0.498872 -0.604388 -0.383271
v -0.494214 -0.604151 -0.386369
v -0.497620 -0.603252 -0.386431
v -0.500384 -0.598167 -0.386858
v -0.501487 -0.601853 -0.383479
v -0.499460 -0.601467 -0.386577
v 0.693160 -0.600303 -0.360171
v 0.701167 -0.600835 -0.353258
v 0.694212 -0.607690 -0.353322
v 0.696682 -0.600473 -0.359092
v 0.693523 -0.603739 -0.359152
v 0.696766 -0.603728 -0.358352
v 0.700084 -0.604177 -0.353567
v 0.699585 -0.600666 -0.356585
v 0.698824 -0.603867 -0.356597
v 0.693903 -0.606411 -0.356675
v 0.697573 -0.606652 -0.353590
v 0.697048 -0.605658 -0.356627
v -0.493160 0.413350 -0.389829
v -0.502490 0.417290 -0.383627
v -0.494747 0.425303 -0.385360
v -0.496871 0.414603 -0.388975
v -0.493653 0.417432 -0.389181
v -0.496998 0.417917 -0.388583
v -0.500848 0.420423 -0.385164
v -0.500266 0.416037 -0.386718
v -0.499274 0.418868 -0.387295
v -0.494233 0.421800 -0.387548
v -0.498035 0.423334 -0.385794
v -0.497371 0.420700 -0.387567
v -0.249512 0.473175 0.354750
v -0.246374 0.485802 0.353998
v -0.256983 0.481730 0.361093
v -0.249219 0.477355 0.354512
v -0.250729 0.476051 0.357932
v -0.250205 0.478724 0.357675
v -0.248727 0.483938 0.357462
v -0.248072 0.481971 0.354237
v -0.249560 0.481272 0.357522
v -0.253443 0.479159 0.360237
v -0.252582 0.482459 0.360040
v -0.251319 0.480372 0.359405
v -0.233158 0.340000 0.362730
v -0.240488 0.346825 0.362310
v -0.246372 0.333170 0.369981
v -0.236585 0.341011 0.362596
v -0.237357 0.338997 0.366134
v -0.238829 0.340015 0.365942
v -0.241196 0.342638 0.365910
v -0.239235 0.343478 0.362444
v -0.240077 0.341196 0.365869
v -0.242173 0.336507 0.368777
v -0.243341 0.337662 0.368705
v -0.241046 0.338908 0.367867
v -0.242669 0.503112 0.353906
v -0.249834 0.493170 0.360409
v -0.239611 0.496622 0.353351
v -0.244550 0.500583 0.357180
v -0.239445 0.502307 0.353656
v -0.241418 0.499870 0.356801
v -0.245653 0.493693 0.359289
v -0.247180 0.496934 0.359567
v -0.243270 0.497301 0.358481
v -0.238323 0.499925 0.353452
v -0.241901 0.494961 0.356699
v -0.240628 0.498193 0.356658
v 0.237988 0.436540 0.356943
v 0.237221 0.423747 0.357710
v 0.247292 0.429564 0.364214
v 0.238563 0.432432 0.357186
v 0.239811 0.434041 0.360445
v 0.239851 0.431318 0.360505
v 0.239383 0.426131 0.360919
v 0.238282 0.427758 0.357466
v 0.239711 0.428762 0.360658
v 0.243193 0.431505 0.363089
v 0.243043 0.428245 0.363284
v 0.241327 0.429966 0.362420
v 0.202779 0.346253 0.362346
v 0.193158 0.340000 0.362730
v 0.204450 0.333170 0.369981
v 0.200414 0.343196 0.362468
v 0.202267 0.342625 0.365913
v 0.200552 0.341139 0.365878
v 0.196748 0.338996 0.366135
v 0.196912 0.340920 0.362608
v 0.198763 0.339964 0.365950
v 0.202876 0.337861 0.368693
v 0.200860 0.336509 0.368775
v 0.200712 0.338946 0.367865
v 0.224413 0.503112 0.353906
v 0.219704 0.495962 0.353388
v 0.227721 0.493170 0.360409
v 0.221230 0.502098 0.353667
v 0.225233 0.500704 0.357173
v 0.222166 0.499783 0.356806
v 0.221153 0.494509 0.356724
v 0.219501 0.499474 0.353477
v 0.220949 0.497935 0.356672
v 0.226447 0.497055 0.359560
v 0.224096 0.493484 0.359301
v 0.223021 0.497214 0.358486
v -0.246050 0.424696 -0.376809
v -0.252588 0.420224 -0.383815
v -0.253438 0.432198 -0.379327
v -0.246968 0.423351 -0.380186
v -0.247292 0.427904 -0.378453
v -0.247927 0.426156 -0.380841
v -0.252847 0.424313 -0.383160
v -0.249334 0.421732 -0.382721
v -0.249660 0.425023 -0.382337
v -0.249967 0.430620 -0.379364
v -0.253157 0.428688 -0.381521
v -0.249862 0.427852 -0.381269
v -0.246374 0.485802 -0.323903
v -0.249512 0.473175 -0.334390
v -0.256925 0.481018 -0.336609
v -0.248071 0.481972 -0.327229
v -0.248302 0.484497 -0.329211
v -0.249402 0.481471 -0.331687
v -0.250762 0.476491 -0.335938
v -0.249219 0.477354 -0.331064
v -0.250185 0.478887 -0.333861
v -0.252142 0.482756 -0.333835
v -0.253447 0.479333 -0.336742
v -0.251166 0.480605 -0.334707
v 0.202012 0.553460 -0.264302
v 0.193158 0.560000 -0.260658
v 0.205439 0.565149 -0.262994
v 0.200020 0.556659 -0.263143
v 0.201744 0.557707 -0.264957
v 0.200360 0.558850 -0.264550
v 0.197078 0.560762 -0.263346
v 0.196801 0.559037 -0.261817
v 0.198838 0.559860 -0.264015
v 0.202985 0.561941 -0.264483
v 0.201519 0.562625 -0.264191
v 0.200855 0.560796 -0.264834
v 0.245784 0.434463 -0.371355
v 0.237325 0.438692 -0.364724
v 0.241992 0.446353 -0.366941
v 0.241971 0.435459 -0.370440
v 0.244592 0.438525 -0.370725
v 0.241025 0.438926 -0.370083
v 0.237457 0.441667 -0.366509
v 0.238906 0.436991 -0.368037
v 0.238791 0.439933 -0.368735
v 0.243206 0.442869 -0.369112
v 0.239132 0.444418 -0.367305
v 0.240114 0.441774 -0.369080
v -0.203626 0.554198 -0.264057
v -0.204343 0.565149 -0.262994
v -0.193158 0.560000 -0.260658
v -0.202425 0.557916 -0.264986
v -0.200850 0.557032 -0.262977
v -0.200687 0.558998 -0.264525
v -0.200769 0.562622 -0.264190
v -0.202684 0.561865 -0.264603
v -0.200671 0.560813 -0.264858
v -0.197033 0.559148 -0.261737
v -0.196732 0.560764 -0.263347
v -0.198830 0.559936 -0.263983
v 0.202012 0.553460 0.240787
v 0.205952 0.563112 0.236406
v 0.193158 0.560000 0.235658
v 0.201807 0.557456 0.240084
v 0.200021 0.556658 0.239155
v 0.200423 0.558630 0.239735
v 0.201862 0.561584 0.238382
v 0.203230 0.560943 0.238502
v 0.201024 0.560232 0.239434
v 0.196800 0.559038 0.237289
v 0.197247 0.560462 0.238112
v 0.198931 0.559626 0.239067
v -0.203626 0.554198 0.240599
v -0.193158 0.560000 0.235658
v -0.205169 0.563112 0.236406
v -0.200851 0.557032 0.239030
v -0.202460 0.557763 0.240145
v -0.200763 0.558814 0.239730
v -0.197001 0.560463 0.238113
v -0.197032 0.559148 0.237227
v -0.198974 0.559708 0.239045
v -0.203013 0.560959 0.238642
v -0.201325 0.561583 0.238383
v -0.200921 0.560284 0.239471
v 0.237221 0.423747 -0.364727
v 0.237988 0.436540 -0.364708
v 0.247291 0.429563 -0.371318
v 0.238283 0.427758 -0.364721
v 0.239363 0.426085 -0.368021
v 0.239706 0.428740 -0.367918
v 0.239834 0.433967 -0.368010
v 0.238563 0.432432 -0.364714
v 0.239858 0.431288 -0.367914
v 0.243022 0.428198 -0.370416
v 0.243215 0.431431 -0.370411
v 0.241327 0.429922 -0.369701
v -0.240487 0.346825 -0.376670
v -0.233158 0.340000 -0.376484
v -0.246369 0.333158 -0.383659
v -0.239235 0.343478 -0.376611
v -0.241191 0.342563 -0.380031
v -0.240073 0.341168 -0.379890
v -0.237327 0.338995 -0.379933
v -0.236585 0.341011 -0.376544
v -0.238818 0.340008 -0.379858
v -0.243334 0.337582 -0.382578
v -0.242141 0.336501 -0.382548
v -0.241032 0.338878 -0.381759
v 0.202779 0.346253 -0.365588
v 0.204445 0.333158 -0.372389
v 0.193158 0.340000 -0.365827
v 0.202245 0.342574 -0.368947
v 0.200414 0.343196 -0.365664
v 0.200546 0.341119 -0.368893
v 0.200884 0.336503 -0.371471
v 0.202851 0.337808 -0.371422
v 0.200713 0.338926 -0.370717
v 0.196912 0.340920 -0.365751
v 0.196777 0.338993 -0.369083
v 0.198771 0.339959 -0.368937
vn 0.2229 0.9712 0.0845
vn 0.1594 0.9630 0.2173
vn 0.1799 0.9251 0.3344
vn 0.4669 0.8494 0.2459
vn 0.6749 0.7344 0.0716
vn 0.4527 0.8908 -0.0389
vn 0.3553 0.9195 0.1678
vn 0.1629 0.7918 -0.5886
vn 0.1017 0.9234 -0.3700
vn 0.2155 0.9649 -0.1502
vn 0.4699 0.8777 -0.0943
vn 0.6655 0.7343 -0.1341
vn 0.4755 0.7640 -0.4361
vn 0.3570 0.8852 -0.2984
vn 0.0106 0.9787 0.2051
vn 0.0398 0.9925 0.1156
vn 0.0436 0.9961 -0.0764
vn 0.0305 0.9378 -0.3459
vn 0.0058 0.8545 -0.5194
vn -0.0102 0.9819 -0.1890
vn 0.0270 0.9902 -0.1372
vn -0.1677 0.9623 0.2143
vn -0.0994 0.9786 -0.1799
vn -0.1612 0.8288 -0.5359
vn -0.4926 0.7845 -0.3769
vn -0.6330 0.7716 -0.0621
vn -0.4418 0.8841 0.1523
vn -0.3606 0.9238 -0.1289
vn -0.1144 -0.1888 0.9753
vn -0.2562 -0.1313 0.9577
vn -0.3732 -0.2275 0.8994
vn -0.2972 -0.6736 0.6767
vn -0.0528 -0.9234 0.3801
vn 0.0728 -0.5964 0.7993
vn -0.2304 -0.4574 0.8589
vn 0.4520 -0.2321 0.8613
vn 0.3165 -0.1586 0.9352
vn 0.1660 -0.2327 0.9583
vn 0.1145 -0.6745 0.7293
vn 0.1645 -0.9247 0.3434
vn 0.4915 -0.6259 0.6056
vn 0.2820 -0.4755 0.8333
vn 0.6321 -0.2691 0.7267
vn 0.4699 -0.7155 0.5171
vn 0.2749 -0.9539 0.1201
vn 0.6847 -0.7270 0.0510
vn 0.8654 -0.3411 0.3671
vn 0.7430 -0.2444 0.6230
vn 0.6811 -0.5488 0.4848
vn 0.7075 0.1405 0.6926
vn 0.8444 0.0666 0.5315
vn 0.9385 0.1734 0.2986
vn 0.9514 0.2655 0.1559
vn 0.8771 0.4465 0.1770
vn 0.7818 0.3603 0.5089
vn 0.8752 0.2547 0.4113
vn 0.1822 0.2483 -0.9514
vn 0.0966 0.4328 -0.8963
vn 0.1946 0.6103 -0.7679
vn 0.4895 0.6865 -0.5377
vn 0.7240 0.6001 -0.3401
vn 0.5485 0.3766 -0.7465
vn 0.3678 0.5487 -0.7508
vn 0.2699 0.8127 0.5163
vn 0.4121 0.5607 0.7182
vn 0.6170 0.2768 0.7367
vn 0.7778 0.4022 0.4830
vn 0.7506 0.6102 0.2535
vn 0.5122 0.7870 0.3439
vn 0.5889 0.6090 0.5314
vn 0.9274 0.1083 -0.3580
vn 0.6888 0.0662 -0.7219
vn 0.3708 0.1243 -0.9204
vn 0.6512 0.4232 -0.6300
vn 0.8720 0.4220 -0.2480
vn 0.9410 0.2513 -0.2267
vn 0.8194 0.2178 -0.5302
vn -0.7171 0.1051 0.6890
vn -0.7906 0.3995 0.4641
vn -0.9000 0.4198 0.1175
vn -0.9567 0.2859 -0.0540
vn -0.9874 0.1145 -0.1096
vn -0.9429 0.0677 0.3260
vn -0.9406 0.2527 0.2266
vn -0.5479 0.2795 0.7885
vn -0.3466 0.5676 0.7468
vn -0.2584 0.8092 0.5276
vn -0.4985 0.7947 0.3463
vn -0.7338 0.6264 0.2630
vn -0.7268 0.4214 0.5423
vn -0.5504 0.6195 0.5597
vn -0.2971 0.6546 -0.6952
vn -0.6290 0.3778 -0.6794
vn -0.8679 0.2470 -0.4311
vn -0.8820 0.3834 -0.2740
vn -0.7905 0.5660 -0.2340
vn -0.5487 0.6868 -0.4766
vn -0.7173 0.5184 -0.4656
vn -0.0761 0.7444 0.6634
vn -0.3562 0.4981 0.7906
vn -0.3610 0.1960 0.9118
vn -0.2244 0.1518 0.9626
vn -0.0930 0.2351 0.9675
vn -0.0525 0.5256 0.8491
vn -0.1847 0.3896 0.9023
vn 0.4358 0.1917 0.8794
vn 0.3190 0.5188 0.7932
vn 0.0945 0.7418 0.6639
vn -0.0202 0.4945 0.8690
vn 0.1151 0.2322 0.9658
vn 0.2892 0.1614 0.9436
vn 0.2261 0.3892 0.8930
vn -0.6982 -0.2575 0.6680
vn -0.9364 -0.1579 0.3136
vn -0.9589 -0.2626 -0.1075
vn -0.7212 -0.6781 -0.1418
vn -0.3662 -0.9303 0.0217
vn -0.5199 -0.6951 0.4965
vn -0.8033 -0.5472 0.2352
vn -0.1706 -0.2539 -0.9521
vn -0.1555 -0.6419 -0.7508
vn -0.2276 -0.8899 -0.3952
vn -0.5949 -0.6520 -0.4701
vn -0.8005 -0.2571 -0.5415
vn -0.5325 -0.2186 -0.8177
vn -0.4523 -0.5255 -0.7206
vn 0.2730 -0.2469 -0.9298
vn 0.6397 -0.1546 -0.7529
vn 0.8713 -0.2430 -0.4265
vn 0.6610 -0.6674 -0.3431
vn 0.2528 -0.9058 -0.3401
vn 0.1655 -0.6436 -0.7472
vn 0.5340 -0.5186 -0.6677
vn -0.1794 0.1332 -0.9747
vn -0.5283 0.0796 -0.8453
vn -0.7846 0.1119 -0.6098
vn -0.5325 0.4464 -0.7191
vn -0.1879 0.5002 -0.8453
vn -0.1092 0.3280 -0.9383
vn -0.3862 0.2703 -0.8819
vn 0.9199 -0.0423 0.3899
vn 0.9049 -0.2071 0.3717
vn 0.8512 -0.3531 0.3883
vn 0.5915 -0.1669 0.7888
vn 0.2332 -0.0029 0.9724
vn 0.5284 -0.4183 0.7388
vn 0.7574 -0.1540 0.6345
vn 0.2231 0.8254 0.5186
vn 0.5541 0.6196 0.5560
vn 0.7905 0.3168 0.5241
vn 0.5489 0.4057 0.7308
vn 0.1284 0.1898 0.9734
vn 0.4180 0.1435 0.8970
vn 0.4192 0.4899 0.7644
vn 0.2267 0.6959 0.6814
vn 0.2041 0.4286 0.8802
vn 0.2541 0.0370 0.9665
vn 0.6042 -0.2281 0.7635
vn 0.8476 -0.3284 0.4167
vn 0.7037 0.2755 0.6549
vn 0.5193 0.1731 0.8369
vn -0.9106 -0.1038 0.4000
vn -0.9203 0.0781 0.3834
vn -0.8792 0.2570 0.4013
vn -0.5969 0.1527 0.7877
vn -0.2338 0.0688 0.9699
vn -0.5772 0.3877 0.7187
vn -0.7614 0.0801 0.6433
vn -0.6916 0.5536 0.4639
vn -0.4676 0.7484 0.4704
vn -0.1968 0.8645 0.4625
vn -0.2772 0.7024 0.6556
vn -0.1131 0.2276 0.9672
vn -0.0834 0.4943 0.8653
vn -0.3714 0.6084 0.7014
vn -0.2937 0.7328 0.6138
vn -0.7217 0.4364 0.5373
vn -0.9200 -0.0630 0.3867
vn -0.6641 -0.0281 0.7471
vn -0.2809 0.1160 0.9527
vn -0.2435 0.4729 0.8468
vn -0.5612 0.3141 0.7658
vn 0.9156 0.1672 -0.3657
vn 0.6384 0.0387 -0.7687
vn 0.2431 0.1682 -0.9553
vn 0.1578 0.3585 -0.9201
vn 0.2315 0.5288 -0.8165
vn 0.6579 0.4437 -0.6085
vn 0.4774 0.3399 -0.8103
vn 0.9403 -0.1529 -0.3040
vn 0.9582 -0.0007 -0.2860
vn 0.9245 0.1956 -0.3272
vn 0.8351 0.2314 -0.4990
vn 0.2468 0.5708 -0.7831
vn 0.6647 0.5192 -0.5372
vn 0.8189 0.2035 -0.5367
vn -0.6704 -0.1543 -0.7258
vn -0.5285 -0.3994 -0.7491
vn -0.3823 -0.5775 -0.7213
vn -0.2609 0.1929 -0.9459
vn 0.0112 0.4139 -0.9103
vn 0.1226 0.0748 -0.9896
vn -0.3577 -0.0448 -0.9327
vn -0.2105 0.0894 -0.9735
vn -0.6438 -0.0977 -0.7589
vn -0.9188 -0.1248 -0.3744
vn -0.6591 0.3486 -0.6664
vn -0.2053 0.4650 -0.8612
vn -0.1148 0.2970 -0.9480
vn -0.4551 0.1627 -0.8755
vn 0.6425 -0.3747 -0.6684
vn 0.1924 0.1072 -0.9754
vn 0.0163 0.4465 -0.8946
vn 0.5266 0.3192 -0.7879
vn 0.3306 -0.6962 -0.6371
vn 0.5241 -0.5805 -0.6232
vn 0.3550 -0.1720 -0.9189
vn -0.5013 0.1247 0.8563
vn -0.0692 0.2090 0.9755
vn 0.1871 0.5509 0.8133
vn -0.3149 0.6967 0.6446
vn -0.4573 -0.3329 0.8247
vn -0.5958 -0.1957 0.7789
vn -0.2405 0.2654 0.9337
vn 0.5458 -0.0723 0.8348
vn 0.4800 -0.3413 0.8081
vn 0.4167 -0.5150 0.7491
vn 0.1886 0.5288 0.8275
vn -0.1257 0.6513 0.7484
vn -0.2318 0.3809 0.8951
vn 0.2642 0.1949 0.9446
vn -0.8826 0.2342 -0.4076
vn -0.9184 0.0555 -0.3917
vn -0.9044 -0.1260 -0.4076
vn -0.5956 -0.0339 -0.8026
vn -0.2109 0.0140 -0.9774
vn -0.6058 -0.2880 -0.7417
vn -0.7541 0.0460 -0.6551
vn 0.7960 0.2884 -0.5322
vn 0.5672 0.5981 -0.5662
vn 0.2475 0.8080 -0.5347
vn 0.3491 0.5688 -0.7447
vn 0.1490 0.1371 -0.9793
vn 0.0806 0.4261 -0.9011
vn 0.4372 0.4518 -0.7777
vn -0.6857 0.5426 -0.4853
vn -0.4824 0.5381 -0.6912
vn -0.0903 0.1730 -0.9808
vn -0.3674 0.2524 -0.8951
vn -0.1989 0.8519 -0.4845
vn -0.4674 0.7331 -0.4940
vn -0.3613 0.5798 -0.7303
vn 0.5571 -0.2586 0.7892
vn 0.4077 -0.7062 0.5788
vn 0.1493 -0.9656 0.2128
vn 0.0122 -0.9660 0.2583
vn 0.0330 -0.7075 0.7059
vn 0.0450 -0.2592 0.9648
vn -0.0000 -0.2040 0.9790
vn -0.0005 -0.6850 0.7285
vn -0.0005 -0.9649 0.2627
vn -0.4667 -0.2882 0.8361
vn -0.3448 -0.7065 0.6180
vn -0.1410 -0.9573 0.2523
vn 0.9118 -0.0284 0.4096
vn 0.7567 -0.0135 0.6536
vn 0.6441 -0.0048 0.7649
vn 0.2855 -0.9554 -0.0750
vn 0.6911 -0.7207 -0.0544
vn 0.9446 -0.3275 -0.0226
vn 0.9831 0.1174 -0.1403
vn 0.9579 0.2703 -0.0971
vn 0.9012 0.4310 -0.0464
vn 0.7940 0.5357 -0.2875
vn 0.5960 0.3939 -0.6997
vn 0.2615 0.1618 -0.9515
vn 0.7212 0.6640 -0.1977
vn 0.4992 0.7376 -0.4546
vn 0.2171 0.7223 -0.6566
vn 0.7007 0.7134 -0.0000
vn 0.4974 0.8675 -0.0000
vn 0.2617 0.9652 -0.0000
vn 0.2107 0.8983 0.3855
vn 0.4770 0.8388 0.2624
vn 0.7007 0.7040 0.1159
vn 0.8522 0.4796 0.2093
vn 0.8165 0.3275 0.4754
vn 0.7032 0.1442 0.6962
vn 0.0534 0.9928 0.1071
vn 0.0350 0.9716 0.2340
vn 0.0160 0.9340 0.3570
vn 0.0168 0.7863 -0.6176
vn 0.0374 0.9098 -0.4134
vn 0.0558 0.9811 -0.1855
vn -0.6360 0.1503 0.7569
vn -0.7802 0.3448 0.5220
vn -0.8356 0.5000 0.2276
vn -0.6907 0.7139 0.1156
vn -0.4696 0.8433 0.2614
vn -0.2076 0.8995 0.3845
vn -0.2141 0.7244 -0.6553
vn -0.4918 0.7436 -0.4530
vn -0.7113 0.6746 -0.1972
vn -0.8816 0.4637 -0.0878
vn -0.9317 0.3073 -0.1939
vn -0.9461 0.1392 -0.2926
vn -0.0000 0.2772 0.9608
vn -0.0007 0.5471 0.8371
vn -0.0005 0.7691 0.6392
vn -0.1153 0.0470 0.9922
vn -0.2522 0.0309 0.9672
vn -0.3841 0.0141 0.9232
vn 0.4729 0.0127 0.8810
vn 0.3084 0.0308 0.9508
vn 0.1297 0.0483 0.9904
vn -0.0000 0.7692 0.6390
vn 0.0009 0.5471 0.8371
vn 0.0010 0.2768 0.9609
vn -0.2769 -0.0277 0.9605
vn -0.6816 -0.1665 0.7125
vn -0.9197 -0.2660 0.2890
vn -0.8692 0.4034 0.2859
vn -0.6385 0.3255 0.6974
vn -0.2617 0.1731 0.9495
vn -0.0000 0.3395 0.9406
vn -0.0000 0.7279 0.6857
vn -0.0000 0.9592 0.2828
vn 0.2873 0.0777 0.9547
vn 0.7038 0.0924 0.7044
vn 0.9540 0.0853 0.2875
vn 0.8213 -0.4882 0.2953
vn 0.6088 -0.3272 0.7227
vn 0.2467 -0.0965 0.9643
vn 0.0235 -0.2703 -0.9625
vn 0.0171 -0.6785 -0.7344
vn 0.0064 -0.9431 -0.3325
vn 0.2541 -0.9596 -0.1207
vn 0.6919 -0.7002 -0.1758
vn 0.9485 -0.2573 -0.1846
vn 0.1516 -0.9789 0.1369
vn 0.4217 -0.7296 0.5383
vn 0.5667 -0.2627 0.7809
vn -0.4804 -0.2634 0.8366
vn -0.3578 -0.7320 0.5799
vn -0.1283 -0.9801 0.1517
vn -0.8846 -0.2860 -0.3682
vn -0.6494 -0.6949 -0.3089
vn -0.2673 -0.9467 -0.1796
vn 0.2719 0.5318 -0.8020
vn 0.7432 0.1125 -0.6595
vn 0.9037 -0.3536 -0.2413
vn 0.2844 0.6427 -0.7113
vn 0.6893 0.5043 -0.5201
vn 0.9428 0.2551 -0.2146
vn 0.0060 0.5303 -0.8478
vn 0.0133 0.3517 -0.9360
vn 0.0201 0.1592 -0.9870
vn -0.2503 0.5877 -0.7694
vn -0.5836 0.4126 -0.6995
vn -0.8312 0.1770 -0.5270
vn -0.0000 0.8330 -0.5532
vn -0.0000 0.9820 -0.1888
vn -0.0000 0.9788 0.2049
vn -0.2921 0.5773 -0.7625
vn -0.7526 0.2870 -0.5926
vn -0.9684 -0.0967 -0.2301
vn -0.0000 -0.9621 -0.2729
vn -0.0000 -0.4132 -0.9106
vn -0.0000 0.4282 -0.9037
vn -0.2995 0.8298 0.4708
vn -0.7868 0.4911 0.3739
vn -0.9903 -0.0604 0.1247
vn 0.1514 0.7769 0.6112
vn 0.3482 0.5377 0.7679
vn 0.5030 0.2338 0.8320
vn -0.4231 0.2324 0.8758
vn -0.2918 0.5328 0.7943
vn -0.1273 0.7724 0.6222
vn 0.9250 -0.3640 0.1093
vn 0.8260 0.3514 0.4408
vn 0.2461 0.8297 0.5011
vn -0.0000 0.7911 0.6116
vn -0.0000 -0.2339 0.9723
vn -0.0000 -0.9828 0.1849
vn -0.9957 -0.0000 -0.0928
vn -0.9413 -0.0000 0.3376
vn -0.7097 -0.0000 0.7045
vn -0.8379 0.0002 -0.5458
vn -0.5536 0.0002 -0.8328
vn -0.1797 -0.0000 -0.9837
vn 0.4646 -0.0001 0.8855
vn 0.3201 -0.0001 0.9474
vn 0.1706 -0.0000 0.9853
vn 0.9034 -0.0000 -0.4289
vn 0.6535 -0.0000 -0.7569
vn 0.2925 -0.0000 -0.9563
vn -0.2411 0.1179 -0.9633
vn -0.6358 0.2905 -0.7151
vn -0.8733 0.3914 -0.2901
vn -0.2537 -0.0851 -0.9635
vn -0.6662 -0.2108 -0.7153
vn -0.9139 -0.2834 -0.2906
vn 0.9556 0.0677 -0.2869
vn 0.7142 0.0497 -0.6982
vn 0.3100 0.0205 -0.9505
vn 0.0072 0.9576 -0.2879
vn 0.0177 0.7071 -0.7069
vn 0.0239 0.2880 -0.9573
vn 0.9975 -0.0700 -0.0000
vn 0.9705 -0.2412 -0.0000
vn 0.9142 -0.4052 -0.0000
vn 0.2828 0.9592 -0.0000
vn 0.6815 0.7319 -0.0000
vn 0.9366 0.3504 -0.0000
vn -0.7909 0.6119 -0.0000
vn -0.5449 0.8385 -0.0000
vn -0.2380 0.9713 -0.0000
vn -0.9904 -0.1386 -0.0000
vn -0.9982 0.0598 -0.0000
vn -0.9667 0.2559 -0.0000
vn -0.8489 -0.5286 -0.0000
vn -0.5941 -0.8044 -0.0000
vn -0.2556 -0.9668 -0.0000
vn 0.2147 -0.9767 -0.0000
vn 0.4847 -0.8747 -0.0000
vn 0.7144 -0.6997 -0.0000
vn 0.0680 0.9977 -0.0000
vn 0.8266 0.5628 -0.0000
vn -0.0000 0.8906 0.4548
vn -0.0000 0.6585 -0.7526
vn -0.8170 0.5767 -0.0000
vn 0.0465 -0.0000 0.9989
vn -0.0000 -1.0000 -0.0000
vn -0.0000 0.0597 0.9982
vn -0.4878 -0.0000 0.8729
vn -0.0000 -0.9969 -0.0793
vn 0.5767 -0.0000 0.8170
vn 0.9990 -0.0454 -0.0000
vn 0.9854 -0.0000 -0.1705
vn 0.0250 -0.0000 -0.9997
vn -0.9315 -0.0000 -0.3639
vn 0.9975 0.0712 -0.0000
vn 0.8480 -0.5300 -0.0000
vn -0.0000 1.0000 -0.0000
vn -0.9558 -0.2941 -0.0000
vn -0.9138 0.4061 -0.0000
vn 0.2075 0.9762 0.0624
vn 0.1418 0.9685 0.2046
vn 0.1739 0.9226 0.3442
vn 0.4533 0.8313 0.3218
vn 0.6321 0.7703 0.0842
vn 0.4766 0.8778 0.0484
vn 0.1689 0.7977 -0.5790
vn 0.1401 0.9095 -0.3914
vn 0.1978 0.9715 -0.1304
vn 0.4494 0.8921 -0.0461
vn 0.6502 0.7464 -0.1419
vn 0.4767 0.7680 -0.4276
vn 0.0094 0.9795 0.2011
vn 0.0289 0.9949 0.0964
vn 0.0519 0.9957 -0.0762
vn 0.0518 0.9243 -0.3781
vn 0.0196 0.8331 -0.5528
vn 0.0007 0.9905 -0.1378
vn -0.1613 0.9615 0.2227
vn -0.0794 0.9833 -0.1636
vn -0.1673 0.8334 -0.5267
vn -0.4534 0.8105 -0.3708
vn -0.6553 0.7531 -0.0573
vn -0.4598 0.8731 0.1621
vn -0.0787 -0.1596 0.9840
vn -0.2499 -0.1382 0.9584
vn -0.4139 -0.2005 0.8880
vn -0.4504 -0.6297 0.6330
vn -0.1504 -0.9253 0.3483
vn -0.0782 -0.6562 0.7505
vn 0.4873 -0.2048 0.8489
vn 0.3161 -0.1581 0.9355
vn 0.1310 -0.2057 0.9698
vn -0.0218 -0.6272 0.7785
vn 0.0778 -0.9249 0.3721
vn 0.3542 -0.6737 0.6486
vn 0.6023 -0.2376 0.7621
vn 0.3718 -0.6498 0.6629
vn 0.3310 -0.9296 0.1619
vn 0.7444 -0.6402 0.1896
vn 0.9294 -0.2720 0.2496
vn 0.7825 -0.2014 0.5892
vn 0.7068 0.1427 0.6928
vn 0.8064 0.1426 0.5739
vn 0.9754 0.1101 0.1908
vn 0.9516 0.2934 0.0913
vn 0.8815 0.4331 0.1880
vn 0.7915 0.3313 0.5136
vn 0.1803 0.2426 -0.9532
vn 0.1413 0.4183 -0.8973
vn 0.1594 0.6328 -0.7577
vn 0.4249 0.7598 -0.4921
vn 0.6974 0.6483 -0.3053
vn 0.5444 0.4515 -0.7069
vn 0.2685 0.8133 0.5162
vn 0.4075 0.5625 0.7194
vn 0.6172 0.2793 0.7356
vn 0.7626 0.4086 0.5015
vn 0.7577 0.6082 0.2367
vn 0.5183 0.7909 0.3253
vn 0.9382 0.0768 -0.3375
vn 0.7145 -0.0484 -0.6980
vn 0.3788 0.0514 -0.9240
vn 0.6643 0.3227 -0.6742
vn 0.8679 0.4400 -0.2304
vn 0.9334 0.2646 -0.2424
vn -0.7545 0.1285 0.6436
vn -0.8348 0.3057 0.4578
vn -0.8840 0.4551 0.1072
vn -0.9454 0.3170 -0.0752
vn -0.9871 0.1081 -0.1179
vn -0.9603 0.0030 0.2791
vn -0.5486 0.2850 0.7860
vn -0.3674 0.5598 0.7428
vn -0.2465 0.8142 0.5257
vn -0.4984 0.7947 0.3465
vn -0.7395 0.6246 0.2511
vn -0.7419 0.4155 0.5262
vn -0.3494 0.6484 -0.6764
vn -0.6116 0.4533 -0.6484
vn -0.8726 0.2282 -0.4319
vn -0.8773 0.3811 -0.2916
vn -0.7913 0.5767 -0.2033
vn -0.5381 0.7417 -0.4004
vn -0.0914 0.6990 0.7093
vn -0.2658 0.5173 0.8135
vn -0.3758 0.1865 0.9077
vn -0.2357 0.1672 0.9573
vn -0.0679 0.2176 0.9737
vn 0.0463 0.4974 0.8663
vn 0.4465 0.1849 0.8755
vn 0.3940 0.5037 0.7688
vn 0.1104 0.7033 0.7022
vn 0.0676 0.5230 0.8497
vn 0.0905 0.2140 0.9726
vn 0.2757 0.1418 0.9507
vn -0.6698 -0.2171 0.7101
vn -0.9323 -0.1665 0.3210
vn -0.9637 -0.2147 -0.1589
vn -0.7276 -0.6664 -0.1631
vn -0.3496 -0.9340 0.0734
vn -0.5243 -0.7005 0.4841
vn -0.1817 -0.2649 -0.9470
vn -0.1556 -0.6419 -0.7508
vn -0.2134 -0.8894 -0.4043
vn -0.7907 -0.2682 -0.5504
vn -0.5325 -0.2187 -0.8177
vn 0.2349 -0.2097 -0.9491
vn 0.6358 -0.1482 -0.7575
vn 0.8947 -0.2113 -0.3935
vn 0.6724 -0.6613 -0.3327
vn 0.2221 -0.9040 -0.3654
vn 0.1833 -0.6542 -0.7338
vn -0.1593 0.1099 -0.9811
vn -0.4939 -0.0041 -0.8695
vn -0.7496 0.1304 -0.6490
vn -0.5484 0.3673 -0.7512
vn -0.1766 0.5185 -0.8366
vn -0.1187 0.3339 -0.9351
vn 0.9244 -0.1472 0.3519
vn 0.9074 -0.2037 0.3676
vn 0.8970 -0.2722 0.3483
vn 0.6711 0.1878 0.7172
vn 0.3871 -0.0461 0.9209
vn 0.6162 -0.0449 0.7863
vn 0.4414 0.7350 0.5147
vn 0.5509 0.6257 0.5522
vn 0.6850 0.5174 0.5130
vn 0.0692 0.4658 0.8822
vn 0.2021 0.2625 0.9435
vn 0.3259 0.6075 0.7244
vn 0.2405 0.6964 0.6761
vn 0.2041 0.4285 0.8802
vn 0.2636 0.0417 0.9637
vn 0.8409 -0.3407 0.4205
vn -0.9329 -0.0058 0.3602
vn -0.9187 0.0734 0.3881
vn -0.9191 0.1508 0.3640
vn -0.6229 -0.2494 0.7415
vn -0.3890 0.0728 0.9184
vn -0.6119 0.0083 0.7909
vn -0.5953 0.6771 0.4326
vn -0.4701 0.7448 0.4735
vn -0.3573 0.8268 0.4344
vn -0.3777 0.3040 0.8746
vn -0.1863 0.3340 0.9240
vn -0.4996 0.5613 0.6598
vn -0.2794 0.7309 0.6226
vn -0.9238 -0.0491 0.3798
vn -0.6641 -0.0280 0.7472
vn -0.2916 0.1233 0.9486
vn 0.9113 0.2319 -0.3403
vn 0.6727 0.1511 -0.7243
vn 0.2197 0.1345 -0.9663
vn 0.1605 0.3564 -0.9205
vn 0.2033 0.5603 -0.8030
vn 0.6103 0.5531 -0.5671
vn 0.9544 -0.1255 -0.2708
vn 0.9439 -0.0080 -0.3302
vn 0.9508 0.0376 -0.3076
vn 0.5423 0.2893 -0.7888
vn 0.4076 0.4957 -0.7669
vn 0.6722 0.3069 -0.6738
vn -0.5428 -0.3928 -0.7423
vn -0.5885 -0.4076 -0.6982
vn -0.5227 -0.5167 -0.6781
vn -0.5059 0.4437 -0.7397
vn -0.0287 0.3409 -0.9397
vn -0.3234 -0.0552 -0.9446
vn -0.1708 0.0546 -0.9838
vn -0.5730 -0.2104 -0.7921
vn -0.9007 -0.1934 -0.3890
vn -0.6837 0.2147 -0.6975
vn -0.1855 0.4995 -0.8462
vn -0.1350 0.3067 -0.9422
vn 0.5184 -0.5552 -0.6504
vn -0.2133 -0.1749 -0.9612
vn 0.0637 0.3486 -0.9351
vn 0.2498 0.1059 -0.9625
vn 0.4446 -0.6723 -0.5919
vn 0.4814 -0.5666 -0.6688
vn -0.3865 -0.1867 0.9032
vn 0.2898 0.2950 0.9105
vn 0.1777 0.5334 0.8270
vn -0.1829 0.5571 0.8100
vn -0.5724 -0.2680 0.7749
vn -0.4871 -0.1534 0.8598
vn 0.4212 -0.3497 0.8368
vn 0.5628 -0.3989 0.7240
vn 0.5183 -0.4865 0.7034
vn 0.3417 0.6636 0.6655
vn -0.1090 0.6182 0.7784
vn 0.1238 0.1852 0.9749
vn -0.9200 0.1331 -0.3686
vn -0.9184 0.0556 -0.3916
vn -0.9294 -0.0214 -0.3685
vn -0.5667 0.3599 -0.7411
vn -0.3684 0.0233 -0.9294
vn -0.5870 0.1070 -0.8025
vn 0.6884 0.4984 -0.5270
vn 0.5701 0.5969 -0.5646
vn 0.4598 0.7154 -0.5261
vn 0.4378 0.0925 -0.8943
vn 0.2181 0.2141 -0.9521
vn 0.5579 0.3720 -0.7419
vn -0.5874 0.6696 -0.4545
vn -0.0554 0.4546 -0.8890
vn -0.1638 0.2824 -0.9452
vn -0.2744 0.6712 -0.6886
vn -0.3605 0.8138 -0.4559
vn -0.4658 0.7356 -0.4919
vn 0.5516 -0.2884 0.7827
vn 0.4075 -0.7065 0.5786
vn 0.1668 -0.9573 0.2363
vn 0.0134 -0.9574 0.2884
vn 0.0330 -0.7073 0.7061
vn 0.0445 -0.2891 0.9563
vn -0.0005 -0.2355 0.9719
vn -0.0005 -0.6852 0.7284
vn -0.0000 -0.9559 0.2938
vn -0.4712 -0.2586 0.8433
vn -0.3449 -0.7063 0.6182
vn -0.1264 -0.9657 0.2270
vn 0.9043 -0.0275 0.4260
vn 0.7478 -0.0127 0.6638
vn 0.6398 -0.0044 0.7685
vn 0.2558 -0.9638 -0.0753
vn 0.6910 -0.7208 -0.0544
vn 0.9542 -0.2985 -0.0199
vn 0.9831 0.1179 -0.1402
vn 0.9576 0.2712 -0.0968
vn 0.9009 0.4316 -0.0462
vn 0.7940 0.5357 -0.2874
vn 0.5961 0.3939 -0.6997
vn 0.2614 0.1618 -0.9516
vn 0.7213 0.6639 -0.1974
vn 0.4993 0.7376 -0.4545
vn 0.2168 0.7223 -0.6567
vn 0.7006 0.7135 -0.0000
vn 0.4770 0.8388 0.2625
vn 0.8522 0.4796 0.2094
vn 0.8166 0.3275 0.4754
vn 0.7033 0.1442 0.6962
vn 0.0168 0.7862 -0.6177
vn 0.0558 0.9811 -0.1853
vn -0.6361 0.1504 0.7568
vn -0.8356 0.5000 0.2278
vn -0.6906 0.7139 0.1156
vn -0.2140 0.7244 -0.6553
vn -0.4918 0.7436 -0.4531
vn -0.7114 0.6746 -0.1971
vn -0.8817 0.4636 -0.0878
vn -0.9461 0.1392 -0.2925
vn -0.0008 0.2188 0.9758
vn -0.0006 0.5477 0.8367
vn -0.0000 0.7914 0.6113
vn 0.4623 0.0139 0.8866
vn 0.3081 0.0308 0.9508
vn 0.1417 0.0472 0.9888
vn 0.0008 0.8051 0.5932
vn 0.0009 0.5476 0.8367
vn -0.0000 0.2134 0.9770
vn -0.2945 -0.0324 0.9551
vn -0.6818 -0.1665 0.7123
vn -0.9211 -0.2664 0.2840
vn -0.8693 0.4034 0.2857
vn -0.2615 0.1730 0.9496
vn -0.0000 0.3397 0.9405
vn -0.0000 0.9591 0.2829
vn 0.2869 0.0776 0.9548
vn 0.7038 0.0924 0.7043
vn 0.9541 0.0853 0.2871
vn 0.8136 -0.4897 0.3134
vn 0.6092 -0.3273 0.7223
vn 0.2692 -0.1020 0.9577
vn 0.0235 -0.2820 -0.9591
vn 0.0071 -0.9340 -0.3571
vn 0.2839 -0.9507 -0.1248
vn 0.6919 -0.7003 -0.1758
vn 0.9396 -0.2874 -0.1859
vn 0.1704 -0.9718 0.1631
vn 0.4220 -0.7291 0.5388
vn 0.5621 -0.2942 0.7730
vn -0.4761 -0.2948 0.8285
vn -0.3583 -0.7309 0.5808
vn -0.1449 -0.9730 0.1798
vn -0.8879 -0.2752 -0.3687
vn -0.6494 -0.6949 -0.3088
vn -0.2448 -0.9543 -0.1715
vn 0.2734 0.5310 -0.8021
vn 0.7431 0.1126 -0.6596
vn 0.9038 -0.3526 -0.2426
vn 0.0134 0.3518 -0.9360
vn -0.5836 0.4126 -0.6994
vn -0.2935 0.5768 -0.7624
vn -0.9682 -0.0957 -0.2311
vn -0.0000 -0.9620 -0.2732
vn -0.0000 0.4278 -0.9039
vn -0.2990 0.8300 0.4708
vn -0.7870 0.4909 0.3738
vn -0.9897 -0.0261 0.1411
vn 0.9450 -0.2900 0.1511
vn 0.8267 0.3502 0.4404
vn 0.2866 0.8131 0.5067
vn -0.0000 0.7910 0.6119
vn -0.0000 -0.2338 0.9723
vn -0.0000 -0.9827 0.1852
vn -0.8118 -0.0000 -0.5840
vn -0.2243 0.0002 -0.9745
vn 0.4744 -0.0000 0.8803
vn 0.3199 -0.0001 0.9475
vn 0.1597 -0.0001 0.9872
vn 0.9032 -0.0000 -0.4293
vn 0.2930 -0.0000 -0.9561
vn -0.2409 0.1178 -0.9634
vn -0.8734 0.3914 -0.2899
vn -0.2534 -0.0854 -0.9636
vn -0.6662 -0.2107 -0.7153
vn -0.9140 -0.2830 -0.2906
vn 0.9558 0.0678 -0.2860
vn 0.3090 0.0204 -0.9508
vn 0.0072 0.9576 -0.2881
vn 0.0239 0.2881 -0.9573
vn 0.9142 -0.4053 -0.0000
vn 0.2829 0.9592 -0.0000
vn 0.6814 0.7319 -0.0000
vn -0.9903 -0.1386 -0.0000
vn -0.8489 -0.5285 -0.0000
vn -0.2555 -0.9668 -0.0000
vn 0.4848 -0.8746 -0.0000
vt 0.787995 0.542917
vt 0.790196 0.545939
vt 0.787661 0.548215
vt 0.788367 0.536988
vt 0.790256 0.541682
vt 0.790923 0.534503
vt 0.788676 0.532005
vt 0.793084 0.537798
vt 0.790489 0.538021
vt 0.792732 0.543321
vt 0.794605 0.541045
vt 0.791877 0.540044
vt 0.788775 0.712912
vt 0.791385 0.714605
vt 0.789258 0.716891
vt 0.790376 0.708459
vt 0.790756 0.711749
vt 0.790196 0.704276
vt 0.788191 0.707773
vt 0.787661 0.702816
vt 0.792731 0.705955
vt 0.793330 0.711158
vt 0.794606 0.707415
vt 0.792011 0.709541
vt 0.314801 0.650812
vt 0.323800 0.655754
vt 0.314843 0.655267
vt 0.329602 0.652005
vt 0.334058 0.656722
vt 0.346728 0.658313
vt 0.346676 0.653564
vt 0.361452 0.655072
vt 0.329702 0.661492
vt 0.314932 0.663757
vt 0.323832 0.658760
vt 0.314890 0.659965
vt 0.218212 0.655267
vt 0.215913 0.652100
vt 0.218394 0.650812
vt 0.218005 0.659966
vt 0.216170 0.655877
vt 0.215457 0.662018
vt 0.217824 0.663757
vt 0.214586 0.657124
vt 0.216026 0.659008
vt 0.213470 0.653999
vt 0.213227 0.659204
vt 0.211694 0.656023
vt 0.208646 0.004906
vt 0.210493 0.002492
vt 0.211404 0.004891
vt 0.206420 0.002575
vt 0.208362 0.002571
vt 0.204410 0.002497
vt 0.205577 0.004907
vt 0.203014 0.004896
vt 0.206417 0.000723
vt 0.208553 0.007857
vt 0.207658 0.002831
vt 0.206417 0.005414
vt 0.209463 0.000725
vt 0.207658 0.001268
vt 0.780283 0.004894
vt 0.781529 0.002496
vt 0.782728 0.004896
vt 0.777723 0.002569
vt 0.779640 0.002569
vt 0.775521 0.002494
vt 0.777274 0.004893
vt 0.774497 0.004891
vt 0.776643 0.000723
vt 0.777596 0.043643
vt 0.778482 0.038615
vt 0.776643 0.039459
vt 0.779672 0.041385
vt 0.779640 0.038082
vt 0.778482 0.001267
vt 0.971193 0.008983
vt 0.972854 0.011462
vt 0.971042 0.011310
vt 0.970834 0.294748
vt 0.972738 0.293732
vt 0.971193 0.291540
vt 0.972260 0.298507
vt 0.970047 0.298721
vt 0.973941 0.298142
vt 0.972538 0.295565
vt 0.295577 0.011599
vt 0.298142 0.009297
vt 0.297710 0.011685
vt 0.292686 0.011462
vt 0.295831 0.009264
vt 0.293732 0.009171
vt 0.295565 0.007950
vt 0.323595 0.627974
vt 0.327822 0.628778
vt 0.326026 0.630358
vt 0.326326 0.626281
vt 0.329714 0.627945
vt 0.331926 0.627697
vt 0.329054 0.624830
vt 0.331032 0.624005
vt 0.329883 0.630471
vt 0.329610 0.632770
vt 0.332803 0.631568
vt 0.333430 0.634594
vt 0.893512 0.793774
vt 0.896665 0.792531
vt 0.895039 0.790892
vt 0.894332 0.796447
vt 0.895459 0.794537
vt 0.893150 0.798508
vt 0.891744 0.796856
vt 0.890202 0.799324
vt 0.896044 0.959010
vt 0.894332 0.962656
vt 0.893150 0.960186
vt 0.957258 0.794577
vt 0.962101 0.795478
vt 0.959010 0.796777
vt 0.897785 0.793862
vt 0.896251 0.795478
vt 0.860740 0.148478
vt 0.861532 0.153157
vt 0.859206 0.151089
vt 0.862155 0.846095
vt 0.862490 0.848554
vt 0.860740 0.848424
vt 0.864458 0.845088
vt 0.863095 0.843554
vt 0.149875 0.845088
vt 0.152373 0.847953
vt 0.149498 0.847037
vt 0.155958 0.848981
vt 0.154257 0.846525
vt 0.158775 0.847499
vt 0.863937 0.152373
vt 0.863784 0.155958
vt 0.862490 0.150537
vt 0.863417 0.149498
vt 0.959394 0.718825
vt 0.955416 0.720571
vt 0.955337 0.717019
vt 0.939533 0.720891
vt 0.941234 0.721698
vt 0.941429 0.718825
vt 0.937246 0.722697
vt 0.940159 0.722983
vt 0.962473 0.724599
vt 0.959304 0.724061
vt 0.961510 0.722983
vt 0.955403 0.724296
vt 0.959409 0.726230
vt 0.955301 0.727208
vt 0.959292 0.721698
vt 0.216441 0.665346
vt 0.217669 0.662078
vt 0.214522 0.662478
vt 0.220890 0.666071
vt 0.218777 0.664261
vt 0.224356 0.667742
vt 0.219580 0.668274
vt 0.223135 0.670511
vt 0.225543 0.664349
vt 0.221966 0.661624
vt 0.226382 0.661225
vt 0.221644 0.663945
vt 0.111032 0.832667
vt 0.108586 0.831634
vt 0.110058 0.830120
vt 0.110564 0.835089
vt 0.109641 0.833568
vt 0.111499 0.108180
vt 0.112426 0.103651
vt 0.113888 0.106413
vt 0.109046 0.107057
vt 0.110564 0.105466
vt 0.108662 0.833004
vt 0.110629 0.835441
vt 0.113133 0.833885
vt 0.104482 0.831634
vt 0.107057 0.834448
vt 0.109641 0.104297
vt 0.133458 0.868517
vt 0.133894 0.871039
vt 0.135612 0.869876
vt 0.131360 0.868238
vt 0.132486 0.869605
vt 0.849737 0.866715
vt 0.854711 0.866491
vt 0.852759 0.864299
vt 0.849822 0.869861
vt 0.852181 0.868238
vt 0.847318 0.871577
vt 0.846035 0.869293
vt 0.842630 0.871354
vt 0.133894 0.851862
vt 0.131611 0.849822
vt 0.132405 0.847318
vt 0.852843 0.869605
vt 0.126135 0.089267
vt 0.129075 0.087992
vt 0.127909 0.091701
vt 0.126135 0.830720
vt 0.126247 0.828060
vt 0.127327 0.829533
vt 0.125690 0.825738
vt 0.124383 0.828476
vt 0.123097 0.826027
vt 0.128176 0.827840
vt 0.130414 0.827790
vt 0.128792 0.825391
vt 0.131579 0.825077
vt 0.129075 0.830385
vt 0.818048 0.828606
vt 0.816872 0.825851
vt 0.819314 0.826194
vt 0.816260 0.830787
vt 0.816285 0.828134
vt 0.813405 0.087992
vt 0.816260 0.089523
vt 0.814399 0.091701
vt 0.813405 0.830385
vt 0.814437 0.827872
vt 0.815181 0.829570
vt 0.813930 0.825442
vt 0.812263 0.827791
vt 0.811268 0.825077
vt 0.217670 0.007978
vt 0.215802 0.005452
vt 0.214522 0.007799
vt 0.221614 0.005815
vt 0.218516 0.005666
vt 0.225704 0.005922
vt 0.221965 0.008182
vt 0.226382 0.008361
vt 0.224241 0.004080
vt 0.004153 0.222332
vt 0.001454 0.220561
vt 0.002207 0.224241
vt 0.003220 0.218613
vt 0.001024 0.218516
vt 0.220561 0.004456
vt 0.165493 0.041898
vt 0.163180 0.044365
vt 0.165652 0.044400
vt 0.164966 0.039959
vt 0.163122 0.041967
vt 0.164216 0.991735
vt 0.162751 0.995851
vt 0.164966 0.995774
vt 0.161936 0.991991
vt 0.161554 0.996029
vt 0.996372 0.044240
vt 0.992245 0.041603
vt 0.992425 0.044061
vt 0.160953 0.044240
vt 0.161554 0.041879
vt 0.162751 0.040602
vt 0.939537 0.042591
vt 0.937482 0.040254
vt 0.937246 0.042712
vt 0.941426 0.042453
vt 0.939592 0.040262
vt 0.955714 0.039941
vt 0.959400 0.042453
vt 0.955337 0.042332
vt 0.940117 0.955742
vt 0.940930 0.959415
vt 0.941750 0.955714
vt 0.937931 0.955415
vt 0.939775 0.959451
vt 0.937730 0.038342
vt 0.939775 0.038881
vt 0.940930 0.040163
vt 0.163238 0.768863
vt 0.165331 0.770887
vt 0.165652 0.767967
vt 0.161030 0.769889
vt 0.163155 0.771234
vt 0.994303 0.773027
vt 0.996201 0.769889
vt 0.992425 0.770786
vt 0.160651 0.773027
vt 0.162913 0.773226
vt 0.161675 0.771915
vt 0.164954 0.774012
vt 0.162481 0.775110
vt 0.164619 0.776519
vt 0.090961 0.813762
vt 0.086784 0.812828
vt 0.090670 0.810771
vt 0.087284 0.816564
vt 0.087099 0.814741
vt 0.087358 0.818472
vt 0.091297 0.817064
vt 0.091588 0.819805
vt 0.322126 0.817413
vt 0.324092 0.816564
vt 0.324633 0.818472
vt 0.321566 0.815052
vt 0.319263 0.816892
vt 0.323672 0.814741
vt 0.322947 0.815920
vt 0.084986 0.815920
vt 0.332530 0.081088
vt 0.332029 0.076768
vt 0.334760 0.080924
vt 0.330259 0.077090
vt 0.331071 0.077002
vt 0.077041 0.717373
vt 0.081274 0.717974
vt 0.081438 0.720369
vt 0.329531 0.717373
vt 0.329629 0.714705
vt 0.330259 0.716341
vt 0.328896 0.712987
vt 0.328137 0.713813
vt 0.326165 0.710599
vt 0.332029 0.714768
vt 0.331071 0.715497
vt 0.328574 0.091701
vt 0.329387 0.088165
vt 0.330670 0.092007
vt 0.327350 0.830381
vt 0.328182 0.828032
vt 0.329387 0.829870
vt 0.326632 0.825451
vt 0.325639 0.827770
vt 0.323913 0.825077
vt 0.329073 0.826358
vt 0.092379 0.827547
vt 0.088341 0.828670
vt 0.088290 0.826358
vt 0.092256 0.829910
vt 0.088165 0.829870
vt 0.329901 0.828670
vt 0.087695 0.781619
vt 0.083715 0.782771
vt 0.087992 0.784559
vt 0.087353 0.778275
vt 0.083642 0.780823
vt 0.083136 0.777111
vt 0.087056 0.775406
vt 0.644486 0.778624
vt 0.642319 0.778994
vt 0.642105 0.777111
vt 0.644583 0.780956
vt 0.647249 0.779568
vt 0.642409 0.780823
vt 0.643369 0.779855
vt 0.083455 0.778994
vt 0.081303 0.779855
vt 0.081244 0.717772
vt 0.077037 0.717364
vt 0.081393 0.719959
vt 0.614481 0.081073
vt 0.616849 0.077080
vt 0.616759 0.081244
vt 0.614375 0.076766
vt 0.612040 0.080924
vt 0.616953 0.074654
vt 0.615685 0.076992
vt 0.618360 0.713955
vt 0.617049 0.712988
vt 0.619384 0.710599
vt 0.617965 0.717364
vt 0.616953 0.714731
vt 0.616849 0.716301
vt 0.615685 0.715460
vt 0.632369 0.091701
vt 0.630907 0.088159
vt 0.632902 0.087711
vt 0.092225 0.829587
vt 0.088159 0.829808
vt 0.091992 0.831465
vt 0.092333 0.827074
vt 0.088323 0.828486
vt 0.630248 0.826035
vt 0.631463 0.827970
vt 0.630116 0.828486
vt 0.633691 0.827856
vt 0.632162 0.825302
vt 0.634520 0.825077
vt 0.632902 0.830467
vt 0.630907 0.829808
vt 0.984099 0.776085
vt 0.989023 0.777129
vt 0.986106 0.778380
vt 0.325777 0.775122
vt 0.324026 0.776318
vt 0.325154 0.777129
vt 0.321954 0.775810
vt 0.324238 0.773964
vt 0.322122 0.772885
vt 0.323895 0.778343
vt 0.323826 0.780323
vt 0.321752 0.778940
vt 0.321569 0.781452
vt 0.989546 0.778343
vt 0.987220 0.780323
vt 0.923548 0.817065
vt 0.925969 0.818871
vt 0.919486 0.819805
vt 0.928232 0.813761
vt 0.928994 0.816706
vt 0.934185 0.813143
vt 0.932294 0.810771
vt 0.932681 0.816087
vt 0.931648 0.814858
vt 0.322412 0.817626
vt 0.321563 0.815176
vt 0.319301 0.816382
vt 0.931616 0.817626
vt 0.616503 0.870502
vt 0.617624 0.871252
vt 0.617799 0.868213
vt 0.615734 0.872793
vt 0.616724 0.872070
vt 0.614589 0.873438
vt 0.614409 0.872204
vt 0.612040 0.872893
vt 0.617478 0.874770
vt 0.618431 0.874281
vt 0.620028 0.876577
vt 0.617046 0.873462
vt 0.643789 0.783785
vt 0.645493 0.785979
vt 0.646268 0.783073
vt 0.641795 0.784882
vt 0.643173 0.786266
vt 0.969341 0.786099
vt 0.974238 0.786987
vt 0.973386 0.784882
vt 0.640853 0.788227
vt 0.642580 0.788303
vt 0.641720 0.786987
vt 0.644592 0.789087
vt 0.641942 0.790195
vt 0.643802 0.791580
vt 0.354748 0.871401
vt 0.355773 0.870769
vt 0.353967 0.868741
vt 0.354580 0.874227
vt 0.355879 0.872175
vt 0.355826 0.874769
vt 0.353501 0.876577
vt 0.357087 0.872847
vt 0.355889 0.873474
vt 0.358256 0.843566
vt 0.358451 0.845532
vt 0.360776 0.842247
vt 0.358256 0.872283
vt 0.617665 0.871073
vt 0.616504 0.870502
vt 0.617156 0.873059
vt 0.616765 0.871912
vt 0.617701 0.874026
vt 0.618591 0.873567
vt 0.620361 0.875119
vt 0.617701 0.232787
vt 0.615795 0.231950
vt 0.617156 0.231502
vt 0.614409 0.872204
vt 0.614699 0.873223
vt 0.615795 0.872625
vt 0.355772 0.870769
vt 0.354726 0.871292
vt 0.356993 0.872684
vt 0.355830 0.872044
vt 0.358276 0.873224
vt 0.358256 0.872283
vt 0.360776 0.872893
vt 0.355464 0.874025
vt 0.354366 0.873579
vt 0.352964 0.875119
vt 0.355727 0.873095
vt 0.969336 0.778275
vt 0.973367 0.777078
vt 0.969343 0.775406
vt 0.973236 0.780801
vt 0.973241 0.778978
vt 0.973353 0.782717
vt 0.969328 0.781619
vt 0.969320 0.784559
vt 0.644597 0.780904
vt 0.642414 0.780801
vt 0.642399 0.782717
vt 0.644472 0.778590
vt 0.647249 0.779567
vt 0.642315 0.778978
vt 0.643369 0.779823
vt 0.975418 0.779823
vt 0.983857 0.717974
vt 0.988034 0.717319
vt 0.983929 0.720369
vt 0.330807 0.983857
vt 0.331078 0.987823
vt 0.330262 0.987861
vt 0.332048 0.987915
vt 0.332530 0.983775
vt 0.334760 0.983703
vt 0.332048 0.714766
vt 0.329638 0.714683
vt 0.331078 0.715492
vt 0.328141 0.713756
vt 0.328917 0.712983
vt 0.326167 0.710590
vt 0.329535 0.717319
vt 0.330262 0.716321
vt 0.974498 0.717327
vt 0.970488 0.717772
vt 0.970395 0.719959
vt 0.617950 0.717327
vt 0.616953 0.714717
vt 0.616845 0.716287
vt 0.617065 0.712984
vt 0.618345 0.713918
vt 0.619381 0.710590
vt 0.614394 0.714765
vt 0.614481 0.970594
vt 0.614394 0.974663
vt 0.612040 0.970687
vt 0.616845 0.974432
vt 0.615691 0.974485
vt 0.615691 0.715456
vt 0.866211 0.002448
vt 0.867201 0.004896
vt 0.781529 0.040149
vt 0.863419 0.152286
vt 0.866211 0.152245
vt 0.859576 0.152300
vt 0.367840 0.007857
vt 0.368658 0.003746
vt 0.370790 0.000870
vt 0.373663 0.004891
vt 0.370790 0.002446
vt 0.368658 0.000655
vt 0.209463 0.003832
vt 0.063041 0.002448
vt 0.204410 0.004056
vt 0.066349 0.152290
vt 0.070895 0.152300
vt 0.998259 0.626281
vt 0.970629 0.600680
vt 0.974584 0.600208
vt 0.599224 0.025736
vt 0.961375 0.793862
vt 0.939645 0.726230
vt 0.938709 0.724599
vt 0.707415 0.961859
vt 0.711158 0.962730
vt 0.890202 0.960481
vt 0.865386 0.158775
vt 0.146746 0.843554
vt 0.001885 0.665346
vt 0.002485 0.662478
vt 0.109162 0.110629
vt 0.659204 0.997530
vt 0.656023 0.996296
vt 0.327350 0.087703
vt 0.782728 0.351357
vt 0.780294 0.350956
vt 0.777279 0.349609
vt 0.774491 0.347675
vt 0.642383 0.782771
vt 0.088259 0.826035
vt 0.617049 0.073541
vt 0.328896 0.073540
vt 0.323331 0.812828
vt 0.972881 0.600741
vt 0.600208 0.023328
vt 0.061858 0.004896
vt 0.002620 0.005452
vt 0.063041 0.152261
vt 0.160236 0.992245
vt 0.000786 0.225704
vt 0.847066 0.874227
vt 0.847534 0.871401
vt 0.131611 0.866491
vt 0.972492 0.790195
vt 0.847498 0.871252
vt 0.846919 0.874281
vt 0.971520 0.788227
vt 0.846699 0.868213
vt 0.612040 0.842247
vt 0.614589 0.845530
vt 0.618591 0.232640
vt 0.630298 0.091992
vt 0.230708 0.871073
vt 0.229850 0.868213
vt 0.112426 0.835023
vt 0.230079 0.868741
vt 0.230633 0.871292
vt 0.092007 0.831614
vt 0.354366 0.232470
vt 0.352964 0.235200
vt 0.620361 0.235200
vt 0.358276 0.233115
vt 0.612040 0.236114
vt 0.614699 0.233116
vt 0.642092 0.777078
vt 0.988223 0.775122
vt 0.991319 0.773964
vt 0.617065 0.977580
vt 0.328917 0.991108
vt 0.330807 0.081274
vt 0.231842 0.870502
vt 0.845282 0.870502
vt 0.616503 0.845282
vt 0.614409 0.234121
vt 0.614409 0.843664
vt 0.360776 0.236114
vt 0.358256 0.234197
vt 0.355773 0.845080
vt 0.231996 0.870769
vt 0.846399 0.868741
vt 0.845080 0.870769
vt 0.541045 0.961859
vt 0.789258 0.962420
vt 0.996523 0.627974
vt 0.972738 0.009171
vt 0.970834 0.007366
vt 0.972538 0.007950
vt 0.896251 0.962101
vt 0.863417 0.847037
vt 0.962466 0.720891
vt 0.940659 0.724061
vt 0.104297 0.833568
vt 0.132486 0.852843
vt 0.815181 0.087123
vt 0.000821 0.007978
vt 0.001024 0.005666
vt 0.002620 0.215802
vt 0.996029 0.041879
vt 0.959415 0.040163
vt 0.955742 0.038170
vt 0.959451 0.038881
vt 0.937730 0.959510
vt 0.996905 0.771915
vt 0.077090 0.716341
vt 0.617965 0.077037
vt 0.614375 0.714767
vt 0.323310 0.813143
vt 0.323047 0.816087
vt 0.324910 0.818871
vt 0.324194 0.816706
vt 0.358451 0.873439
vt 0.357087 0.846308
vt 0.987861 0.716321
vt 0.617950 0.974498
vt 0.616759 0.970488
vt 0.775521 0.036333
vt 0.107478 0.113133
vt 0.135612 0.855109
vt 0.002485 0.007799
vt 0.935166 0.815176
vt 0.232640 0.873567
vt 0.232470 0.873579
vt 0.355464 0.232786
vt 0.991145 0.713756
vt 0.616504 0.231842
vt 0.355772 0.231996
vt 0.217824 0.997996
vt 0.314932 0.997996
s 0
g A_ShadowHull.001_adamant_weight_adamant
usemtl adamant_weight_adamant
f 4/1/1 5/2/1 1/3/1
f 8/4/2 6/5/2 4/1/2
f 7/6/3 8/4/3 2/7/3
f 11/8/4 9/9/4 7/6/4
f 10/10/5 11/8/5 3/11/5
f 10/10/6 6/5/6 12/12/6
f 6/5/7 9/9/7 12/12/7
f 16/13/8 17/14/8 13/15/8
f 16/13/9 21/16/9 18/17/9
f 19/18/10 20/19/10 14/20/10
f 23/21/11 21/16/11 19/18/11
f 22/22/12 23/21/12 15/23/12
f 22/22/13 18/17/13 24/24/13
f 18/17/14 21/16/14 24/24/14
f 25/25/15 30/26/15 29/27/15
f 28/28/16 33/29/16 30/26/16
f 31/30/17 32/31/17 26/32/17
f 35/33/18 33/29/18 31/30/18
f 27/34/19 36/35/19 35/33/19
f 29/27/20 36/35/20 34/36/20
f 30/26/21 33/29/21 36/35/21
f 40/37/22 41/38/22 37/39/22
f 44/40/23 42/41/23 40/37/23
f 43/42/24 44/40/24 38/43/24
f 43/42/25 48/44/25 45/45/25
f 46/46/26 47/47/26 39/48/26
f 41/38/27 48/44/27 46/46/27
f 42/41/28 45/45/28 48/44/28
f 56/49/29 57/50/29 53/51/29
f 56/49/30 61/52/30 58/53/30
f 59/54/31 60/55/31 54/56/31
f 63/57/32 61/52/32 59/54/32
f 55/58/33 64/59/33 63/60/33
f 62/61/34 58/53/34 64/62/34
f 58/53/35 61/52/35 64/62/35
f 76/63/36 77/64/36 73/65/36
f 76/63/37 81/66/37 78/67/37
f 79/68/38 80/69/38 74/70/38
f 83/71/39 81/66/39 79/68/39
f 75/72/40 84/73/40 83/74/40
f 82/75/41 78/76/41 84/73/41
f 78/67/42 81/66/42 84/77/42
f 88/78/43 89/79/43 85/80/43
f 92/81/44 90/82/44 88/83/44
f 91/84/45 92/81/45 86/85/45
f 95/86/46 93/87/46 91/84/46
f 94/88/47 95/89/47 87/90/47
f 89/91/48 96/92/48 94/88/48
f 90/93/49 93/94/49 96/92/49
f 101/95/50 106/96/50 105/97/50
f 104/98/51 109/99/51 106/96/51
f 107/100/52 108/101/52 102/102/52
f 107/100/53 112/103/53 109/99/53
f 110/104/54 111/105/54 103/106/54
f 105/97/55 112/103/55 110/104/55
f 106/96/56 109/99/56 112/103/56
f 116/107/57 117/108/57 113/109/57
f 116/107/58 121/110/58 118/111/58
f 119/112/59 120/113/59 114/114/59
f 123/115/60 121/116/60 119/117/60
f 115/118/61 124/119/61 123/120/61
f 122/121/62 118/111/62 124/122/62
f 118/111/63 121/110/63 124/122/63
f 128/123/64 129/124/64 125/125/64
f 132/126/65 130/127/65 128/128/65
f 131/129/66 132/126/66 126/130/66
f 131/131/67 136/132/67 133/133/67
f 134/134/68 135/135/68 127/136/68
f 129/124/69 136/137/69 134/138/69
f 130/139/70 133/140/70 136/137/70
f 140/141/71 141/142/71 137/143/71
f 144/144/72 142/145/72 140/146/72
f 138/147/73 145/148/73 144/144/73
f 143/149/74 148/150/74 145/151/74
f 146/152/75 147/153/75 139/154/75
f 146/152/76 142/155/76 148/150/76
f 142/155/77 145/151/77 148/150/77
f 152/156/78 153/157/78 149/158/78
f 152/156/79 157/159/79 154/160/79
f 155/161/80 156/162/80 150/163/80
f 159/164/81 157/159/81 155/161/81
f 158/165/82 159/164/82 151/166/82
f 153/157/83 160/167/83 158/165/83
f 154/160/84 157/159/84 160/167/84
f 164/168/85 165/169/85 161/170/85
f 164/168/86 169/171/86 166/172/86
f 167/173/87 168/174/87 162/175/87
f 167/173/88 172/176/88 169/177/88
f 170/178/89 171/179/89 163/180/89
f 165/181/90 172/182/90 170/178/90
f 166/183/91 169/177/91 172/176/91
f 176/184/92 177/185/92 173/186/92
f 176/184/93 181/187/93 178/188/93
f 179/189/94 180/190/94 174/191/94
f 179/189/95 184/192/95 181/193/95
f 182/194/96 183/195/96 175/196/96
f 177/197/97 184/198/97 182/199/97
f 178/200/98 181/193/98 184/192/98
f 192/201/99 193/202/99 189/203/99
f 192/204/100 197/205/100 194/206/100
f 195/207/101 196/208/101 190/209/101
f 195/207/102 200/210/102 197/205/102
f 198/211/103 199/212/103 191/213/103
f 193/214/104 200/210/104 198/211/104
f 194/206/105 197/205/105 200/210/105
f 204/215/106 205/216/106 201/217/106
f 208/218/107 206/219/107 204/215/107
f 207/220/108 208/221/108 202/222/108
f 207/223/109 212/224/109 209/225/109
f 210/226/110 211/227/110 203/228/110
f 205/216/111 212/224/111 210/226/111
f 206/219/112 209/225/112 212/224/112
f 216/229/113 217/230/113 213/231/113
f 216/229/114 221/232/114 218/233/114
f 219/234/115 220/235/115 214/236/115
f 223/237/116 221/232/116 219/234/116
f 215/238/117 224/239/117 223/240/117
f 222/241/118 218/242/118 224/239/118
f 218/233/119 221/232/119 224/243/119
f 228/244/120 229/245/120 225/246/120
f 232/247/121 230/248/121 228/244/121
f 226/249/122 233/250/122 232/251/122
f 231/252/123 236/253/123 233/250/123
f 234/254/124 235/255/124 227/256/124
f 234/257/125 230/248/125 236/258/125
f 230/248/126 233/259/126 236/258/126
f 240/260/127 241/261/127 237/262/127
f 244/263/128 242/264/128 240/260/128
f 243/265/129 244/266/129 238/267/129
f 247/268/130 245/269/130 243/270/130
f 239/271/131 248/272/131 247/268/131
f 246/273/132 242/264/132 248/274/132
f 242/264/133 245/275/133 248/274/133
f 252/276/134 253/277/134 249/278/134
f 256/279/135 254/280/135 252/276/135
f 255/281/136 256/282/136 250/283/136
f 255/284/137 260/285/137 257/286/137
f 258/287/138 259/288/138 251/289/138
f 258/287/139 254/280/139 260/285/139
f 254/280/140 257/286/140 260/285/140
f 264/290/141 265/291/141 261/292/141
f 264/290/142 269/293/142 266/294/142
f 267/295/143 268/296/143 262/297/143
f 271/298/144 269/299/144 267/300/144
f 270/301/145 271/298/145 263/302/145
f 270/301/146 266/303/146 272/304/146
f 266/294/147 269/293/147 272/305/147
f 276/306/148 277/307/148 273/308/148
f 276/306/149 281/309/149 278/310/149
f 279/311/150 280/312/150 274/313/150
f 279/314/151 284/315/151 281/316/151
f 282/317/152 283/318/152 275/319/152
f 277/320/153 284/315/153 282/317/153
f 278/321/154 281/316/154 284/315/154
f 285/322/155 290/323/155 289/324/155
f 288/325/156 293/326/156 290/327/156
f 291/328/157 292/329/157 286/330/157
f 295/331/158 293/326/158 291/328/158
f 287/332/159 296/333/159 295/334/159
f 294/335/160 290/336/160 296/333/160
f 290/327/161 293/326/161 296/337/161
f 300/338/162 301/339/162 297/340/162
f 304/341/163 302/342/163 300/338/163
f 303/343/164 304/341/164 298/344/164
f 307/345/165 305/346/165 303/347/165
f 306/348/166 307/345/166 299/349/166
f 306/348/167 302/350/167 308/351/167
f 302/342/168 305/352/168 308/353/168
f 312/354/169 313/355/169 309/356/169
f 316/357/170 314/358/170 312/359/170
f 315/360/171 316/357/171 310/361/171
f 315/360/172 320/362/172 317/363/172
f 318/364/173 319/365/173 311/366/173
f 313/367/174 320/368/174 318/364/174
f 314/369/175 317/370/175 320/368/175
f 321/371/176 326/372/176 325/373/176
f 328/374/177 326/375/177 324/376/177
f 322/377/178 329/378/178 328/374/178
f 327/379/179 332/380/179 329/381/179
f 330/382/180 331/383/180 323/384/180
f 325/385/181 332/380/181 330/382/181
f 326/386/182 329/381/182 332/380/182
f 333/387/183 338/388/183 337/389/183
f 336/390/184 341/391/184 338/392/184
f 339/393/185 340/394/185 334/395/185
f 339/393/186 344/396/186 341/391/186
f 342/397/187 343/398/187 335/399/187
f 337/389/188 344/400/188 342/401/188
f 338/392/189 341/391/189 344/396/189
f 348/402/190 349/403/190 345/404/190
f 352/405/191 350/406/191 348/402/191
f 351/407/192 352/405/192 346/408/192
f 351/407/193 356/409/193 353/410/193
f 354/411/194 355/412/194 347/413/194
f 354/414/195 350/406/195 356/409/195
f 350/406/196 353/410/196 356/409/196
f 360/415/197 361/416/197 357/417/197
f 360/415/198 365/418/198 362/419/198
f 363/420/199 364/421/199 358/422/199
f 367/423/200 365/418/200 363/420/200
f 366/424/201 367/423/201 359/425/201
f 361/416/202 368/426/202 366/424/202
f 362/419/203 365/418/203 368/426/203
f 372/427/204 373/428/204 369/429/204
f 376/430/205 374/431/205 372/427/205
f 370/432/206 377/433/206 376/434/206
f 375/435/207 380/436/207 377/437/207
f 378/438/208 379/439/208 371/440/208
f 378/438/209 374/431/209 380/436/209
f 374/431/210 377/437/210 380/436/210
f 384/441/211 385/442/211 381/443/211
f 388/444/212 386/445/212 384/441/212
f 387/446/213 388/444/213 382/447/213
f 387/446/214 392/448/214 389/449/214
f 390/450/215 391/451/215 383/452/215
f 385/442/216 392/448/216 390/453/216
f 386/445/217 389/449/217 392/448/217
f 396/454/218 397/455/218 393/417/218
f 396/454/219 401/456/219 398/457/219
f 399/458/220 400/459/220 394/460/220
f 399/461/221 404/462/221 401/463/221
f 402/464/222 403/465/222 395/422/222
f 397/455/223 404/466/223 402/464/223
f 398/457/224 401/456/224 404/466/224
f 408/467/225 409/468/225 405/443/225
f 408/467/226 413/469/226 410/470/226
f 411/471/227 412/472/227 406/473/227
f 415/474/228 413/469/228 411/471/228
f 414/475/229 415/474/229 407/476/229
f 409/468/230 416/477/230 414/475/230
f 410/470/231 413/469/231 416/477/231
f 420/478/232 421/479/232 417/480/232
f 420/478/233 425/481/233 422/482/233
f 423/483/234 424/484/234 418/485/234
f 427/486/235 425/487/235 423/488/235
f 426/489/236 427/486/236 419/490/236
f 426/489/237 422/491/237 428/492/237
f 422/482/238 425/481/238 428/493/238
f 432/494/239 433/495/239 429/496/239
f 432/497/240 437/498/240 434/499/240
f 435/500/241 436/501/241 430/502/241
f 435/503/242 440/504/242 437/505/242
f 438/506/243 439/507/243 431/508/243
f 433/509/244 440/504/244 438/506/244
f 434/510/245 437/505/245 440/504/245
f 444/511/246 445/512/246 441/513/246
f 444/514/247 449/515/247 446/516/247
f 447/517/248 448/518/248 442/519/248
f 451/520/249 449/515/249 447/517/249
f 450/521/250 451/522/250 443/523/250
f 450/521/251 446/524/251 452/525/251
f 446/516/252 449/515/252 452/526/252
f 73/65/253 71/527/253 69/528/253
f 77/529/254 72/530/254 71/531/254
f 82/75/255 70/532/255 72/530/255
f 50/533/256 83/74/256 52/534/256
f 83/74/257 51/535/257 52/534/257
f 79/68/258 49/536/258 51/537/258
f 53/51/259 51/537/259 49/536/259
f 57/50/260 52/538/260 51/537/260
f 62/539/261 50/533/261 52/534/261
f 54/56/262 67/540/262 59/54/262
f 59/541/263 68/542/263 63/60/263
f 63/60/264 66/543/264 55/58/264
f 102/102/265 94/88/265 87/90/265
f 108/101/266 89/91/266 94/88/266
f 104/544/267 85/80/267 89/79/267
f 97/545/268 91/84/268 86/85/268
f 91/84/269 100/546/269 95/86/269
f 95/89/270 98/547/270 87/90/270
f 137/143/271 107/100/271 102/102/271
f 141/142/272 111/105/272 107/100/272
f 146/152/273 103/106/273 111/105/273
f 139/154/274 122/548/274 115/118/274
f 147/549/275 117/108/275 122/121/275
f 143/550/276 113/109/276 117/108/276
f 15/551/277 123/120/277 22/552/277
f 22/22/278 119/117/278 17/14/278
f 17/14/279 114/553/279 13/15/279
f 15/23/280 10/10/280 3/11/280
f 23/21/281 5/2/281 10/10/281
f 19/18/282 1/3/282 5/2/282
f 2/7/283 129/124/283 7/6/283
f 7/6/284 134/138/284 11/8/284
f 11/8/285 127/554/285 3/11/285
f 103/106/286 135/135/286 110/104/286
f 110/104/287 131/131/287 105/97/287
f 105/97/288 126/555/288 101/95/288
f 26/32/289 4/1/289 1/3/289
f 32/31/290 8/4/290 4/1/290
f 28/28/291 2/7/291 8/4/291
f 13/15/292 35/33/292 16/13/292
f 16/13/293 31/30/293 20/19/293
f 20/19/294 26/32/294 14/20/294
f 161/170/295 152/556/295 149/557/295
f 165/181/296 156/162/296 152/156/296
f 170/178/297 150/163/297 156/162/297
f 39/48/298 171/558/298 46/46/298
f 46/46/299 167/173/299 41/38/299
f 41/38/300 162/175/300 37/39/300
f 38/43/301 177/197/301 43/42/301
f 43/42/302 182/199/302 47/47/302
f 47/559/303 175/196/303 39/560/303
f 150/163/304 183/195/304 155/161/304
f 155/161/305 179/189/305 159/164/305
f 159/164/306 174/191/306 151/166/306
f 286/330/307 198/211/307 191/213/307
f 292/329/308 193/214/308 198/211/308
f 288/561/309 189/203/309 193/202/309
f 191/213/310 56/49/310 53/51/310
f 199/212/311 60/55/311 56/49/311
f 195/207/312 54/56/312 60/55/312
f 185/562/313 205/216/313 187/563/313
f 187/563/314 210/226/314 188/564/314
f 188/564/315 203/228/315 186/565/315
f 321/371/316 207/220/316 202/222/316
f 325/385/317 211/227/317 207/223/317
f 330/382/318 203/228/318 211/227/318
f 323/384/319 306/348/319 299/349/319
f 331/383/320 301/566/320 306/348/320
f 327/567/321 297/340/321 301/339/321
f 309/356/322 303/343/322 298/344/322
f 313/367/323 307/345/323 303/347/323
f 318/364/324 299/349/324 307/345/324
f 311/366/325 282/317/325 275/319/325
f 319/568/326 277/307/326 282/569/326
f 315/360/327 273/308/327 277/307/327
f 263/302/328 283/318/328 270/301/328
f 270/301/329 279/314/329 265/570/329
f 265/291/330 274/313/330 261/292/330
f 262/297/331 295/334/331 267/295/331
f 267/300/332 291/328/332 271/298/332
f 271/298/333 286/330/333 263/302/333
f 237/262/334 228/244/334 225/246/334
f 228/244/335 246/273/335 232/247/335
f 232/251/336 239/271/336 226/249/336
f 97/545/337 247/268/337 99/571/337
f 99/571/338 243/270/338 100/546/338
f 100/572/339 238/267/339 98/547/339
f 86/85/340 72/530/340 70/532/340
f 92/81/341 71/531/341 72/530/341
f 88/78/342 69/528/342 71/527/342
f 65/573/343 217/574/343 67/540/343
f 67/575/344 222/241/344 68/542/344
f 68/542/345 215/238/345 66/543/345
f 214/236/346 235/255/346 219/234/346
f 235/576/347 223/240/347 219/577/347
f 231/252/348 215/238/348 223/240/348
f 382/447/349 354/411/349 347/413/349
f 388/578/350 349/403/350 354/414/350
f 384/579/351 345/404/351 349/403/351
f 335/399/352 355/412/352 342/397/352
f 342/401/353 351/407/353 337/389/353
f 337/389/354 346/408/354 333/387/354
f 335/399/355 258/287/355 251/289/355
f 343/398/356 253/277/356 258/287/356
f 339/393/357 249/278/357 253/277/357
f 251/289/358 176/184/358 173/186/358
f 259/288/359 180/580/359 176/184/359
f 255/281/360 174/191/360 180/190/360
f 27/34/361 44/40/361 34/36/361
f 34/36/362 40/37/362 29/27/362
f 29/27/363 37/39/363 25/25/363
f 369/429/357 116/107/357 113/109/357
f 373/428/356 120/113/356 116/107/356
f 378/438/355 114/114/355 120/113/355
f 371/440/364 366/424/364 359/425/364
f 379/581/365 361/582/365 366/583/365
f 375/584/366 357/585/366 361/582/366
f 358/586/367 391/451/367 363/587/367
f 363/420/368 387/446/368 367/423/368
f 367/423/369 382/447/369 359/425/369
f 321/371/370 400/588/370 324/589/370
f 324/376/371 396/590/371 328/374/371
f 328/374/372 393/591/372 322/377/372
f 125/125/373 208/221/373 128/123/373
f 128/128/374 204/215/374 132/126/374
f 132/126/375 201/217/375 126/130/375
f 190/209/376 164/168/376 161/170/376
f 196/208/377 168/592/377 164/168/377
f 192/201/378 162/175/378 168/174/378
f 405/593/379 294/335/379 287/332/379
f 409/594/380 289/595/380 294/335/380
f 414/596/381 285/322/381 289/324/381
f 407/597/382 399/461/382 394/598/382
f 415/474/383 403/465/383 399/458/383
f 411/599/384 395/600/384 403/601/384
f 151/166/385 220/235/385 158/165/385
f 158/165/386 216/229/386 153/157/386
f 153/157/387 213/231/387 149/158/387
f 227/256/388 256/282/388 234/254/388
f 234/257/389 252/276/389 229/245/389
f 229/245/390 249/278/390 225/246/390
f 73/65/391 187/563/391 76/63/391
f 76/63/392 188/564/392 80/69/392
f 80/69/393 186/565/393 74/70/393
f 137/143/394 244/266/394 140/141/394
f 140/146/395 240/260/395 144/144/395
f 144/144/396 237/262/396 138/147/396
f 419/490/397 448/518/397 426/489/397
f 426/489/398 444/514/398 421/602/398
f 421/479/399 441/513/399 417/480/399
f 369/429/400 427/486/400 372/427/400
f 372/427/401 423/488/401 376/430/401
f 376/434/402 418/485/402 370/432/402
f 429/496/403 336/603/403 333/387/403
f 433/495/404 340/604/404 336/603/404
f 438/506/405 334/395/405 340/394/405
f 430/502/406 451/522/406 435/500/406
f 435/500/407 447/605/407 439/606/407
f 439/507/408 442/519/408 431/508/408
f 261/292/409 352/405/409 264/290/409
f 264/290/410 348/402/410 268/296/410
f 268/296/411 345/404/411 262/297/411
f 430/502/412 276/306/412 273/308/412
f 436/501/413 280/607/413 276/306/413
f 432/494/414 274/313/414 280/312/414
f 309/356/415 445/512/415 312/354/415
f 312/359/416 450/521/416 316/357/416
f 316/357/417 443/523/417 310/361/417
f 297/340/418 424/484/418 300/338/418
f 300/338/419 420/478/419 304/341/419
f 304/341/420 417/480/420 298/344/420
f 357/585/421 397/608/421 360/609/421
f 360/610/422 402/611/422 364/612/422
f 364/612/423 395/600/423 358/586/423
f 406/613/424 390/450/424 383/452/424
f 412/614/425 385/615/425 390/450/425
f 408/616/426 381/617/426 385/618/426
f 1/3/427 14/20/427 26/32/427
f 115/118/428 3/619/428 103/106/428
f 407/597/429 394/598/429 25/25/429
f 13/620/430 371/440/430 359/425/430
f 163/180/431 175/196/431 150/163/431
f 74/70/432 186/565/432 49/536/432
f 50/533/433 55/58/433 66/543/433
f 186/565/434 311/366/434 275/319/434
f 54/56/435 149/557/435 65/573/435
f 66/543/436 215/238/436 226/249/436
f 85/80/437 101/621/437 185/562/437
f 102/102/438 87/90/438 98/547/438
f 238/267/439 102/102/439 98/547/439
f 225/246/440 431/508/440 442/519/440
f 151/166/441 250/283/441 227/256/441
f 429/496/442 346/408/442 274/313/442
f 345/404/443 381/617/443 405/593/443
f 273/308/444 443/523/444 430/502/444
f 393/591/445 357/585/445 418/485/445
f 298/344/446 441/513/446 309/356/446
f 358/586/433 406/613/433 383/452/433
f 4/1/447 6/5/447 5/2/447
f 8/4/448 9/9/448 6/5/448
f 7/6/449 9/9/449 8/4/449
f 11/8/450 12/12/450 9/9/450
f 10/10/451 12/12/451 11/8/451
f 10/10/452 5/2/452 6/5/452
f 16/13/453 18/17/453 17/14/453
f 16/13/454 20/19/454 21/16/454
f 19/18/455 21/16/455 20/19/455
f 23/21/456 24/24/456 21/16/456
f 22/22/457 24/24/457 23/21/457
f 22/22/458 17/14/458 18/17/458
f 25/25/459 28/28/459 30/26/459
f 28/28/460 32/31/460 33/29/460
f 31/30/461 33/29/461 32/31/461
f 35/33/462 36/35/462 33/29/462
f 27/34/463 34/36/463 36/35/463
f 29/27/464 30/26/464 36/35/464
f 40/37/465 42/41/465 41/38/465
f 44/40/466 45/45/466 42/41/466
f 43/42/467 45/45/467 44/40/467
f 43/42/468 47/47/468 48/44/468
f 46/46/469 48/44/469 47/47/469
f 41/38/470 42/41/470 48/44/470
f 56/49/471 58/53/471 57/50/471
f 56/49/472 60/55/472 61/52/472
f 59/54/473 61/52/473 60/55/473
f 63/57/474 64/62/474 61/52/474
f 55/58/475 62/539/475 64/59/475
f 62/61/476 57/50/476 58/53/476
f 76/63/477 78/67/477 77/64/477
f 76/63/478 80/69/478 81/66/478
f 79/68/479 81/66/479 80/69/479
f 83/71/480 84/77/480 81/66/480
f 75/72/481 82/75/481 84/73/481
f 82/75/482 77/529/482 78/76/482
f 88/78/483 90/622/483 89/79/483
f 92/623/484 93/624/484 90/622/484
f 91/84/485 93/87/485 92/81/485
f 95/89/486 96/92/486 93/94/486
f 94/88/487 96/92/487 95/89/487
f 89/91/488 90/93/488 96/92/488
f 101/95/489 104/98/489 106/96/489
f 104/98/490 108/101/490 109/99/490
f 107/100/491 109/99/491 108/101/491
f 107/100/492 111/105/492 112/103/492
f 110/104/493 112/103/493 111/105/493
f 105/97/494 106/96/494 112/103/494
f 116/107/495 118/111/495 117/108/495
f 116/107/496 120/113/496 121/110/496
f 119/112/497 121/110/497 120/113/497
f 123/115/498 124/625/498 121/116/498
f 115/118/499 122/548/499 124/119/499
f 122/121/500 117/108/500 118/111/500
f 128/123/501 130/139/501 129/124/501
f 132/126/502 133/626/502 130/127/502
f 131/129/503 133/626/503 132/126/503
f 131/131/504 135/135/504 136/132/504
f 134/134/505 136/132/505 135/135/505
f 129/124/506 130/139/506 136/137/506
f 140/141/507 142/155/507 141/142/507
f 144/627/508 145/151/508 142/155/508
f 138/147/509 143/550/509 145/148/509
f 143/550/510 147/549/510 148/628/510
f 146/152/511 148/150/511 147/153/511
f 146/152/512 141/142/512 142/155/512
f 152/156/513 154/160/513 153/157/513
f 152/156/514 156/162/514 157/159/514
f 155/161/515 157/159/515 156/162/515
f 159/164/516 160/167/516 157/159/516
f 158/165/517 160/167/517 159/164/517
f 153/157/518 154/160/518 160/167/518
f 164/168/519 166/172/519 165/169/519
f 164/168/520 168/592/520 169/171/520
f 167/173/521 169/177/521 168/174/521
f 167/173/522 171/558/522 172/176/522
f 170/178/523 172/182/523 171/179/523
f 165/181/524 166/629/524 172/182/524
f 176/184/525 178/188/525 177/185/525
f 176/184/526 180/580/526 181/187/526
f 179/189/527 181/193/527 180/190/527
f 179/189/528 183/195/528 184/192/528
f 182/194/529 184/192/529 183/195/529
f 177/197/530 178/630/530 184/198/530
f 192/204/531 194/206/531 193/214/531
f 192/204/532 196/208/532 197/205/532
f 195/207/533 197/205/533 196/208/533
f 195/207/534 199/212/534 200/210/534
f 198/211/535 200/210/535 199/212/535
f 193/214/536 194/206/536 200/210/536
f 204/215/537 206/219/537 205/216/537
f 208/218/538 209/225/538 206/219/538
f 207/220/539 209/631/539 208/221/539
f 207/223/540 211/227/540 212/224/540
f 210/226/541 212/224/541 211/227/541
f 205/216/542 206/219/542 212/224/542
f 216/632/543 218/633/543 217/574/543
f 216/229/544 220/235/544 221/232/544
f 219/234/545 221/232/545 220/235/545
f 223/237/546 224/243/546 221/232/546
f 215/238/547 222/241/547 224/239/547
f 222/241/548 217/634/548 218/242/548
f 228/244/549 230/248/549 229/245/549
f 232/247/550 233/259/550 230/248/550
f 226/249/551 231/252/551 233/250/551
f 231/252/123 235/576/123 236/253/123
f 234/254/552 236/635/552 235/255/552
f 234/257/553 229/245/553 230/248/553
f 240/260/554 242/264/554 241/261/554
f 244/263/555 245/275/555 242/264/555
f 243/265/556 245/636/556 244/266/556
f 247/637/557 248/638/557 245/636/557
f 239/271/558 246/639/558 248/272/558
f 246/273/559 241/261/559 242/264/559
f 252/276/560 254/280/560 253/277/560
f 256/279/561 257/286/561 254/280/561
f 255/281/562 257/640/562 256/282/562
f 255/284/563 259/288/563 260/285/563
f 258/287/564 260/285/564 259/288/564
f 258/287/565 253/277/565 254/280/565
f 264/290/566 266/294/566 265/291/566
f 264/290/567 268/296/567 269/293/567
f 267/295/568 269/293/568 268/296/568
f 271/298/569 272/304/569 269/299/569
f 270/301/570 272/304/570 271/298/570
f 270/301/571 265/570/571 266/303/571
f 276/306/572 278/310/572 277/307/572
f 276/306/573 280/607/573 281/309/573
f 279/311/574 281/641/574 280/312/574
f 279/314/575 283/318/575 284/315/575
f 282/317/576 284/315/576 283/318/576
f 277/320/577 278/321/577 284/315/577
f 285/322/578 288/561/578 290/323/578
f 288/325/579 292/329/579 293/326/579
f 291/328/580 293/326/580 292/329/580
f 295/331/158 296/337/158 293/326/158
f 287/332/581 294/335/581 296/333/581
f 294/335/160 289/595/160 290/336/160
f 300/338/582 302/342/582 301/339/582
f 304/341/583 305/352/583 302/342/583
f 303/343/584 305/352/584 304/341/584
f 307/345/585 308/351/585 305/346/585
f 306/348/586 308/351/586 307/345/586
f 306/348/587 301/566/587 302/350/587
f 312/359/588 314/358/588 313/642/588
f 316/357/589 317/363/589 314/358/589
f 315/360/590 317/363/590 316/357/590
f 315/643/591 319/365/591 320/368/591
f 318/364/592 320/368/592 319/365/592
f 313/367/593 314/369/593 320/368/593
f 321/371/594 324/589/594 326/372/594
f 328/374/177 329/378/177 326/375/177
f 322/377/595 327/567/595 329/378/595
f 327/379/596 331/383/596 332/380/596
f 330/382/597 332/380/597 331/383/597
f 325/385/181 326/386/181 332/380/181
f 333/387/598 336/603/598 338/388/598
f 336/390/599 340/394/599 341/391/599
f 339/393/600 341/391/600 340/394/600
f 339/393/601 343/398/601 344/396/601
f 342/397/602 344/396/602 343/398/602
f 337/389/603 338/388/603 344/400/603
f 348/402/604 350/406/604 349/403/604
f 352/405/605 353/410/605 350/406/605
f 351/407/606 353/410/606 352/405/606
f 351/644/607 355/412/607 356/645/607
f 354/411/608 356/645/608 355/412/608
f 354/411/609 349/646/609 350/647/609
f 360/415/610 362/419/610 361/416/610
f 360/415/611 364/421/611 365/418/611
f 363/420/612 365/418/612 364/421/612
f 367/423/613 368/426/613 365/418/613
f 366/424/614 368/426/614 367/423/614
f 361/416/615 362/419/615 368/426/615
f 372/427/616 374/431/616 373/428/616
f 376/430/617 377/437/617 374/431/617
f 370/432/618 375/584/618 377/433/618
f 375/435/619 379/439/619 380/436/619
f 378/438/620 380/436/620 379/439/620
f 378/438/621 373/428/621 374/431/621
f 384/441/622 386/445/622 385/442/622
f 388/444/623 389/449/623 386/445/623
f 387/446/624 389/449/624 388/444/624
f 387/446/625 391/648/625 392/448/625
f 390/450/626 392/649/626 391/451/626
f 385/442/627 386/445/627 392/448/627
f 396/454/628 398/457/628 397/455/628
f 396/454/629 400/459/629 401/456/629
f 399/458/630 401/456/630 400/459/630
f 399/458/631 403/465/631 404/466/631
f 402/464/632 404/466/632 403/465/632
f 397/455/633 398/457/633 404/466/633
f 408/467/634 410/470/634 409/468/634
f 408/467/635 412/472/635 413/469/635
f 411/471/636 413/469/636 412/472/636
f 415/474/637 416/477/637 413/469/637
f 414/475/638 416/477/638 415/474/638
f 409/468/639 410/470/639 416/477/639
f 420/478/640 422/482/640 421/479/640
f 420/478/641 424/484/641 425/481/641
f 423/483/642 425/481/642 424/484/642
f 427/486/643 428/492/643 425/487/643
f 426/489/644 428/492/644 427/486/644
f 426/489/645 421/602/645 422/491/645
f 432/494/646 434/650/646 433/495/646
f 432/497/647 436/501/647 437/498/647
f 435/500/648 437/498/648 436/501/648
f 435/503/649 439/507/649 440/504/649
f 438/506/650 440/504/650 439/507/650
f 433/509/651 434/510/651 440/504/651
f 444/651/652 446/524/652 445/652/652
f 444/514/653 448/518/653 449/515/653
f 447/517/654 449/515/654 448/518/654
f 451/520/655 452/526/655 449/515/655
f 450/521/656 452/525/656 451/522/656
f 450/521/657 445/652/657 446/524/657
f 73/65/658 77/64/658 71/527/658
f 77/529/659 82/75/659 72/530/659
f 82/75/660 75/72/660 70/532/660
f 50/533/661 75/72/661 83/74/661
f 83/74/662 79/653/662 51/535/662
f 79/68/663 74/70/663 49/536/663
f 53/51/664 57/50/664 51/537/664
f 57/50/665 62/61/665 52/538/665
f 62/539/666 55/58/666 50/533/666
f 54/56/667 65/573/667 67/540/667
f 59/541/668 67/575/668 68/542/668
f 63/60/669 68/542/669 66/543/669
f 102/102/670 108/101/670 94/88/670
f 108/101/671 104/98/671 89/91/671
f 104/544/672 101/621/672 85/80/672
f 97/545/673 99/571/673 91/84/673
f 91/84/674 99/571/674 100/546/674
f 95/89/675 100/572/675 98/547/675
f 137/143/676 141/142/676 107/100/676
f 141/142/677 146/152/677 111/105/677
f 146/152/678 139/154/678 103/106/678
f 139/154/679 147/153/679 122/548/679
f 147/549/680 143/550/680 117/108/680
f 143/550/681 138/147/681 113/109/681
f 15/551/682 115/118/682 123/120/682
f 22/22/683 123/115/683 119/117/683
f 17/14/684 119/117/684 114/553/684
f 15/23/685 23/21/685 10/10/685
f 23/21/281 19/18/281 5/2/281
f 19/18/282 14/20/282 1/3/282
f 2/7/283 125/125/283 129/124/283
f 7/6/686 129/124/686 134/138/686
f 11/8/285 134/138/285 127/554/285
f 103/106/687 127/136/687 135/135/687
f 110/104/688 135/135/688 131/131/688
f 105/97/689 131/131/689 126/555/689
f 26/32/289 32/31/289 4/1/289
f 32/31/290 28/28/290 8/4/290
f 28/28/291 25/25/291 2/7/291
f 13/15/690 27/34/690 35/33/690
f 16/13/293 35/33/293 31/30/293
f 20/19/691 31/30/691 26/32/691
f 161/170/692 165/169/692 152/556/692
f 165/181/296 170/178/296 156/162/296
f 170/178/693 163/180/693 150/163/693
f 39/48/694 163/654/694 171/558/694
f 46/46/299 171/558/299 167/173/299
f 41/38/300 167/173/300 162/175/300
f 38/43/695 173/655/695 177/197/695
f 43/42/696 177/197/696 182/199/696
f 47/559/697 182/194/697 175/196/697
f 150/163/698 175/196/698 183/195/698
f 155/161/305 183/195/305 179/189/305
f 159/164/699 179/189/699 174/191/699
f 286/330/700 292/329/700 198/211/700
f 292/329/701 288/325/701 193/214/701
f 288/561/702 285/322/702 189/203/702
f 191/213/310 199/212/310 56/49/310
f 199/212/311 195/207/311 60/55/311
f 195/207/312 190/209/312 54/56/312
f 185/562/703 201/217/703 205/216/703
f 187/563/704 205/216/704 210/226/704
f 188/564/705 210/226/705 203/228/705
f 321/371/706 325/373/706 207/220/706
f 325/385/707 330/382/707 211/227/707
f 330/382/708 323/384/708 203/228/708
f 323/384/709 331/383/709 306/348/709
f 331/383/710 327/379/710 301/566/710
f 327/567/711 322/377/711 297/340/711
f 309/356/712 313/355/712 303/343/712
f 313/367/323 318/364/323 307/345/323
f 318/364/713 311/366/713 299/349/713
f 311/366/714 319/365/714 282/317/714
f 319/568/326 315/360/326 277/307/326
f 315/360/715 310/361/715 273/308/715
f 263/302/716 275/319/716 283/318/716
f 270/301/717 283/318/717 279/314/717
f 265/291/718 279/311/718 274/313/718
f 262/297/719 287/332/719 295/334/719
f 267/300/720 295/331/720 291/328/720
f 271/298/721 291/328/721 286/330/721
f 237/262/722 241/261/722 228/244/722
f 228/244/335 241/261/335 246/273/335
f 232/251/723 246/639/723 239/271/723
f 97/545/724 239/271/724 247/268/724
f 99/571/725 247/268/725 243/270/725
f 100/572/726 243/265/726 238/267/726
f 86/85/727 92/81/727 72/530/727
f 92/81/728 88/83/728 71/531/728
f 88/78/729 85/80/729 69/528/729
f 65/573/730 213/656/730 217/574/730
f 67/575/731 217/634/731 222/241/731
f 68/542/732 222/241/732 215/238/732
f 214/236/733 227/256/733 235/255/733
f 235/576/734 231/252/734 223/240/734
f 231/252/735 226/249/735 215/238/735
f 382/447/736 388/444/736 354/411/736
f 388/578/737 384/579/737 349/403/737
f 384/579/738 381/617/738 345/404/738
f 335/399/352 347/413/352 355/412/352
f 342/401/353 355/657/353 351/407/353
f 337/389/354 351/407/354 346/408/354
f 335/399/355 343/398/355 258/287/355
f 343/398/739 339/393/739 253/277/739
f 339/393/357 334/395/357 249/278/357
f 251/289/358 259/288/358 176/184/358
f 259/288/740 255/284/740 180/580/740
f 255/281/360 250/283/360 174/191/360
f 27/34/361 38/43/361 44/40/361
f 34/36/362 44/40/362 40/37/362
f 29/27/363 40/37/363 37/39/363
f 369/429/357 373/428/357 116/107/357
f 373/428/356 378/438/356 120/113/356
f 378/438/355 371/440/355 114/114/355
f 371/440/741 379/439/741 366/424/741
f 379/581/365 375/584/365 361/582/365
f 375/584/742 370/432/742 357/585/742
f 358/586/743 383/452/743 391/451/743
f 363/420/368 391/648/368 387/446/368
f 367/423/744 387/446/744 382/447/744
f 321/371/745 394/598/745 400/588/745
f 324/376/746 400/658/746 396/590/746
f 328/374/747 396/590/747 393/591/747
f 125/125/373 202/222/373 208/221/373
f 128/128/374 208/218/374 204/215/374
f 132/126/375 204/215/375 201/217/375
f 190/209/376 196/208/376 164/168/376
f 196/208/377 192/204/377 168/592/377
f 192/201/378 189/203/378 162/175/378
f 405/593/748 409/594/748 294/335/748
f 409/594/749 414/659/749 289/595/749
f 414/596/750 407/597/750 285/322/750
f 407/597/751 415/660/751 399/461/751
f 415/474/752 411/471/752 403/465/752
f 411/599/753 406/613/753 395/600/753
f 151/166/385 214/236/385 220/235/385
f 158/165/386 220/235/386 216/229/386
f 153/157/387 216/229/387 213/231/387
f 227/256/754 250/283/754 256/282/754
f 234/257/389 256/279/389 252/276/389
f 229/245/755 252/276/755 249/278/755
f 73/65/756 185/562/756 187/563/756
f 76/63/757 187/563/757 188/564/757
f 80/69/758 188/564/758 186/565/758
f 137/143/759 238/267/759 244/266/759
f 140/146/395 244/263/395 240/260/395
f 144/144/760 240/260/760 237/262/760
f 419/490/761 442/519/761 448/518/761
f 426/489/398 448/518/398 444/514/398
f 421/479/762 444/511/762 441/513/762
f 369/429/763 419/490/763 427/486/763
f 372/427/764 427/486/764 423/488/764
f 376/434/765 423/483/765 418/485/765
f 429/496/766 433/495/766 336/603/766
f 433/495/404 438/661/404 340/604/404
f 438/506/767 431/508/767 334/395/767
f 430/502/768 443/523/768 451/522/768
f 435/500/407 451/522/407 447/605/407
f 439/507/769 447/517/769 442/519/769
f 261/292/409 346/408/409 352/405/409
f 264/290/410 352/405/410 348/402/410
f 268/296/770 348/402/770 345/404/770
f 430/502/771 436/501/771 276/306/771
f 436/501/772 432/497/772 280/607/772
f 432/494/414 429/496/414 274/313/414
f 309/356/415 441/513/415 445/512/415
f 312/359/416 445/652/416 450/521/416
f 316/357/417 450/521/417 443/523/417
f 297/340/773 418/485/773 424/484/773
f 300/338/419 424/484/419 420/478/419
f 304/341/420 420/478/420 417/480/420
f 357/585/774 393/591/774 397/608/774
f 360/610/422 397/662/422 402/611/422
f 364/612/775 402/611/775 395/600/775
f 406/613/424 412/614/424 390/450/424
f 412/614/776 408/663/776 385/615/776
f 408/616/426 405/593/426 381/617/426
f 103/106/428 139/154/428 115/118/428
f 115/118/428 15/551/428 3/619/428
f 3/619/428 127/136/428 103/106/428
f 394/598/429 321/371/429 202/222/429
f 202/222/429 125/125/429 394/598/429
f 125/125/429 2/7/429 394/598/429
f 2/7/429 25/25/429 394/598/429
f 25/25/429 37/39/429 407/597/429
f 37/39/429 162/175/429 407/597/429
f 162/175/429 189/203/429 407/597/429
f 189/203/429 285/322/429 407/597/429
f 347/413/430 335/399/430 251/289/430
f 251/289/430 173/186/430 347/413/430
f 173/186/430 38/664/430 382/447/430
f 347/413/430 173/186/430 382/447/430
f 38/664/430 27/665/430 382/447/430
f 27/665/430 13/620/430 359/425/430
f 382/447/430 27/665/430 359/425/430
f 13/620/430 114/114/430 371/440/430
f 163/180/431 39/560/431 175/196/431
f 66/543/433 70/532/433 50/533/433
f 70/532/433 75/72/433 50/533/433
f 191/213/434 53/51/434 275/319/434
f 53/51/434 49/536/434 275/319/434
f 49/536/434 186/565/434 275/319/434
f 186/565/434 203/228/434 311/366/434
f 203/228/434 323/384/434 299/349/434
f 203/228/434 299/349/434 311/366/434
f 263/302/434 286/330/434 191/213/434
f 275/319/434 263/302/434 191/213/434
f 54/56/435 190/209/435 149/557/435
f 190/209/435 161/170/435 149/557/435
f 149/557/435 213/656/435 65/573/435
f 226/249/436 239/271/436 70/532/436
f 239/271/436 97/545/436 70/532/436
f 97/545/436 86/85/436 70/532/436
f 70/532/436 66/543/436 226/249/436
f 126/130/437 201/217/437 101/621/437
f 201/217/437 185/562/437 101/621/437
f 185/562/437 73/65/437 69/528/437
f 69/528/437 85/80/437 185/562/437
f 238/267/439 137/143/439 102/102/439
f 419/490/440 369/429/440 113/109/440
f 113/109/440 138/147/440 442/519/440
f 138/147/440 237/262/440 442/519/440
f 237/262/440 225/246/440 442/519/440
f 225/246/440 249/278/440 431/508/440
f 249/278/440 334/395/440 431/508/440
f 442/519/440 419/490/440 113/109/440
f 227/256/441 214/236/441 151/166/441
f 151/166/441 174/191/441 250/283/441
f 333/387/442 346/408/442 429/496/442
f 346/408/442 261/292/442 274/313/442
f 405/593/443 287/332/443 262/297/443
f 262/297/443 345/404/443 405/593/443
f 273/308/444 310/361/444 443/523/444
f 357/585/445 370/432/445 418/485/445
f 418/485/445 297/340/445 393/591/445
f 297/340/445 322/377/445 393/591/445
f 298/344/446 417/480/446 441/513/446
f 358/586/433 395/600/433 406/613/433
g B_InlaidMassMark0.001_B_InlaidMassMark0.001
v -0.137500 -0.271000 0.417500
v -0.141500 -0.271000 0.413500
v -0.137500 -0.275000 0.413500
v -0.102500 -0.271000 0.417500
v -0.102500 -0.275000 0.413500
v -0.098500 -0.271000 0.413500
v -0.102500 -0.271000 0.392500
v -0.098500 -0.271000 0.396500
v -0.102500 -0.275000 0.396500
v -0.141500 -0.271000 0.396500
v -0.137500 -0.271000 0.392500
v -0.137500 -0.275000 0.396500
v -0.141500 -0.129000 0.413500
v -0.137500 -0.129000 0.417500
v -0.137500 -0.125000 0.413500
v -0.102500 -0.129000 0.417500
v -0.098500 -0.129000 0.413500
v -0.102500 -0.125000 0.413500
v -0.098500 -0.129000 0.396500
v -0.102500 -0.129000 0.392500
v -0.102500 -0.125000 0.396500
v -0.141500 -0.129000 0.396500
v -0.137500 -0.125000 0.396500
v -0.137500 -0.129000 0.392500
vn -0.4606 -0.4606 0.7588
vn -0.7588 -0.4606 0.4606
vn -0.4606 -0.7588 0.4606
vn 0.4606 -0.4606 0.7588
vn 0.4606 -0.7588 0.4606
vn 0.7588 -0.4606 0.4606
vn 0.4606 -0.4606 -0.7588
vn 0.7588 -0.4606 -0.4606
vn 0.4606 -0.7588 -0.4606
vn -0.7588 -0.4606 -0.4606
vn -0.4606 -0.4606 -0.7588
vn -0.4606 -0.7588 -0.4606
vn -0.7588 0.4606 0.4606
vn -0.4606 0.4606 0.7588
vn -0.4606 0.7588 0.4606
vn 0.4606 0.4606 0.7588
vn 0.7588 0.4606 0.4606
vn 0.4606 0.7588 0.4606
vn 0.7588 0.4606 -0.4606
vn 0.4606 0.4606 -0.7588
vn 0.4606 0.7588 -0.4606
vn -0.7588 0.4606 -0.4606
vn -0.4606 0.7588 -0.4606
vn -0.4606 0.4606 -0.7588
vn -0.0000 -0.0000 1.0000
vn -0.0000 -1.0000 -0.0000
vn -1.0000 -0.0000 -0.0000
vn 1.0000 -0.0000 -0.0000
vn -0.0000 -0.0000 -1.0000
vn -0.0000 1.0000 -0.0000
vt 0.069767 0.026667
vt 0.120000 0.060000
vt 0.109767 0.120000
vt 0.906977 0.020000
vt 0.906977 0.160000
vt 1.000000 0.115556
vt 0.906977 0.026667
vt 0.893333 0.026667
vt 0.906977 0.000000
vt 0.840000 0.026667
vt 1.000000 0.026667
vt 0.840000 0.000000
vt 0.160000 0.973333
vt 0.069767 0.973333
vt 0.137674 1.000000
vt 0.906977 0.973333
vt 1.000000 0.973333
vt 0.906977 1.000000
vt 0.880000 0.973333
vt 0.890233 0.920000
vt 0.840000 0.973333
vt 0.840000 1.000000
vt 0.000000 0.840000
vt 0.093023 0.840000
vt 0.906977 0.840000
vt 0.160000 1.000000
vt 0.160000 0.973333
vt 0.093023 0.973333
vt 0.160000 0.026667
vt 0.093023 0.026667
vt 0.906977 0.160000
vt 0.093023 0.840000
vt 0.093023 0.160000
vt 0.093023 1.000000
vt 1.000000 0.840000
s 1
g B_InlaidMassMark0.001_adamant_weight_weight_marks
usemtl adamant_weight_weight_marks
f 453/666/777 454/667/778 455/668/779
f 456/669/780 457/670/781 458/671/782
f 459/672/783 460/673/784 461/674/785
f 462/675/786 463/676/787 464/677/788
f 465/678/789 466/679/790 467/680/791
f 468/681/792 469/682/793 470/683/794
f 471/684/795 472/681/796 473/685/797
f 474/686/798 475/687/799 476/682/800
f 457/670/781 453/666/777 455/668/779
f 462/688/786 455/668/779 454/667/778
f 464/689/788 459/683/783 461/690/785
f 461/690/785 458/671/782 457/670/781
f 475/687/799 465/678/789 467/680/791
f 468/681/792 467/680/791 466/679/790
f 471/684/795 470/691/794 469/692/793
f 476/693/800 473/685/797 472/681/796
f 466/679/790 454/667/778 453/666/777
f 469/682/793 456/669/780 458/671/782
f 472/681/796 460/673/784 459/672/783
f 474/686/798 463/676/787 462/675/786
s 2
f 456/669/801 466/679/801 453/666/801
s 3
f 464/689/802 457/670/802 455/668/802
s 4
f 454/667/803 474/686/803 462/675/803
s 5
f 460/673/804 469/692/804 458/694/804
s 6
f 463/695/805 472/681/805 459/672/805
s 7
f 470/696/806 475/697/806 467/698/806
s 1
f 457/670/781 456/669/780 453/666/777
f 462/688/786 464/689/788 455/668/779
f 464/689/788 463/699/787 459/683/783
f 461/690/785 460/700/784 458/671/782
f 475/687/799 474/686/798 465/678/789
f 468/681/792 470/683/794 467/680/791
f 471/684/795 473/685/797 470/691/794
f 476/693/800 475/697/799 473/685/797
f 466/679/790 465/678/789 454/667/778
f 469/682/793 468/681/792 456/669/780
f 472/681/796 471/684/795 460/673/784
f 474/686/798 476/682/800 463/676/787
s 2
f 456/669/801 468/681/801 466/679/801
s 3
f 464/689/802 461/690/802 457/670/802
s 4
f 454/667/803 465/678/803 474/686/803
s 5
f 460/673/804 471/684/804 469/692/804
s 6
f 463/695/805 476/693/805 472/681/805
s 7
f 470/696/806 473/685/806 475/697/806
g B_InlaidMassMark1.001_B_InlaidMassMark1.001
v -0.017500 -0.271000 0.417500
v -0.021500 -0.271000 0.413500
v -0.017500 -0.275000 0.413500
v 0.017500 -0.271000 0.417500
v 0.017500 -0.275000 0.413500
v 0.021500 -0.271000 0.413500
v 0.017500 -0.271000 0.392500
v 0.021500 -0.271000 0.396500
v 0.017500 -0.275000 0.396500
v -0.021500 -0.271000 0.396500
v -0.017500 -0.271000 0.392500
v -0.017500 -0.275000 0.396500
v -0.021500 -0.129000 0.413500
v -0.017500 -0.129000 0.417500
v -0.017500 -0.125000 0.413500
v 0.017500 -0.129000 0.417500
v 0.021500 -0.129000 0.413500
v 0.017500 -0.125000 0.413500
v 0.021500 -0.129000 0.396500
v 0.017500 -0.129000 0.392500
v 0.017500 -0.125000 0.396500
v -0.021500 -0.129000 0.396500
v -0.017500 -0.125000 0.396500
v -0.017500 -0.129000 0.392500
vn -0.4606 -0.4606 0.7588
vn -0.7588 -0.4606 0.4606
vn -0.4606 -0.7588 0.4606
vn 0.4606 -0.4606 0.7588
vn 0.4606 -0.7588 0.4606
vn 0.7588 -0.4606 0.4606
vn 0.4606 -0.4606 -0.7588
vn 0.7588 -0.4606 -0.4606
vn 0.4606 -0.7588 -0.4606
vn -0.7588 -0.4606 -0.4606
vn -0.4606 -0.4606 -0.7588
vn -0.4606 -0.7588 -0.4606
vn -0.7588 0.4606 0.4606
vn -0.4606 0.4606 0.7588
vn -0.4606 0.7588 0.4606
vn 0.4606 0.4606 0.7588
vn 0.7588 0.4606 0.4606
vn 0.4606 0.7588 0.4606
vn 0.7588 0.4606 -0.4606
vn 0.4606 0.4606 -0.7588
vn 0.4606 0.7588 -0.4606
vn -0.7588 0.4606 -0.4606
vn -0.4606 0.7588 -0.4606
vn -0.4606 0.4606 -0.7588
vn -0.0000 -0.0000 1.0000
vn -0.0000 -1.0000 -0.0000
vn -1.0000 -0.0000 -0.0000
vn 1.0000 -0.0000 -0.0000
vn -0.0000 -0.0000 -1.0000
vn -0.0000 1.0000 -0.0000
vt 0.069767 0.026667
vt 0.120000 0.060000
vt 0.109767 0.120000
vt 0.906977 0.020000
vt 0.906977 0.160000
vt 1.000000 0.115556
vt 0.906977 0.026667
vt 0.893333 0.026667
vt 0.906977 0.000000
vt 0.840000 0.026667
vt 1.000000 0.026667
vt 0.840000 0.000000
vt 0.160000 0.973333
vt 0.069767 0.973333
vt 0.137674 1.000000
vt 0.906977 0.973333
vt 1.000000 0.973333
vt 0.906977 1.000000
vt 0.880000 0.973333
vt 0.890233 0.920000
vt 0.840000 0.973333
vt 0.840000 1.000000
vt 0.000000 0.840000
vt 0.093023 0.840000
vt 0.906977 0.840000
vt 0.160000 1.000000
vt 0.160000 0.973333
vt 0.093023 0.973333
vt 0.160000 0.026667
vt 0.093023 0.026667
vt 0.906977 0.160000
vt 0.093023 0.840000
vt 0.093023 0.160000
vt 0.093023 1.000000
vt 1.000000 0.840000
s 1
g B_InlaidMassMark1.001_adamant_weight_weight_marks
usemtl adamant_weight_weight_marks
f 477/701/807 478/702/808 479/703/809
f 480/704/810 481/705/811 482/706/812
f 483/707/813 484/708/814 485/709/815
f 486/710/816 487/711/817 488/712/818
f 489/713/819 490/714/820 491/715/821
f 492/716/822 493/717/823 494/718/824
f 495/719/825 496/716/826 497/720/827
f 498/721/828 499/722/829 500/717/830
f 481/705/811 477/701/807 479/703/809
f 486/723/816 479/703/809 478/702/808
f 488/724/818 483/718/813 485/725/815
f 485/725/815 482/706/812 481/705/811
f 499/722/829 489/713/819 491/715/821
f 492/716/822 491/715/821 490/714/820
f 495/719/825 494/726/824 493/727/823
f 500/728/830 497/720/827 496/716/826
f 490/714/820 478/702/808 477/701/807
f 493/717/823 480/704/810 482/706/812
f 496/716/826 484/708/814 483/707/813
f 498/721/828 487/711/817 486/710/816
s 2
f 480/704/831 490/714/831 477/701/831
s 3
f 488/724/832 481/705/832 479/703/832
s 4
f 478/702/833 498/721/833 486/710/833
s 5
f 484/708/834 493/727/834 482/729/834
s 6
f 487/730/835 496/716/835 483/707/835
s 7
f 494/731/836 499/732/836 491/733/836
s 1
f 481/705/811 480/704/810 477/701/807
f 486/723/816 488/724/818 479/703/809
f 488/724/818 487/734/817 483/718/813
f 485/725/815 484/735/814 482/706/812
f 499/722/829 498/721/828 489/713/819
f 492/716/822 494/718/824 491/715/821
f 495/719/825 497/720/827 494/726/824
f 500/728/830 499/732/829 497/720/827
f 490/714/820 489/713/819 478/702/808
f 493/717/823 492/716/822 480/704/810
f 496/716/826 495/719/825 484/708/814
f 498/721/828 500/717/830 487/711/817
s 2
f 480/704/831 492/716/831 490/714/831
s 3
f 488/724/832 485/725/832 481/705/832
s 4
f 478/702/833 489/713/833 498/721/833
s 5
f 484/708/834 495/719/834 493/727/834
s 6
f 487/730/835 500/728/835 496/716/835
s 7
f 494/731/836 497/720/836 499/732/836
g B_InlaidMassMark2.001_B_InlaidMassMark2.001
v 0.102500 -0.271000 0.417500
v 0.098500 -0.271000 0.413500
v 0.102500 -0.275000 0.413500
v 0.137500 -0.271000 0.417500
v 0.137500 -0.275000 0.413500
v 0.141500 -0.271000 0.413500
v 0.137500 -0.271000 0.392500
v 0.141500 -0.271000 0.396500
v 0.137500 -0.275000 0.396500
v 0.098500 -0.271000 0.396500
v 0.102500 -0.271000 0.392500
v 0.102500 -0.275000 0.396500
v 0.098500 -0.129000 0.413500
v 0.102500 -0.129000 0.417500
v 0.102500 -0.125000 0.413500
v 0.137500 -0.129000 0.417500
v 0.141500 -0.129000 0.413500
v 0.137500 -0.125000 0.413500
v 0.141500 -0.129000 0.396500
v 0.137500 -0.129000 0.392500
v 0.137500 -0.125000 0.396500
v 0.098500 -0.129000 0.396500
v 0.102500 -0.125000 0.396500
v 0.102500 -0.129000 0.392500
vn -0.4606 -0.4606 0.7588
vn -0.7588 -0.4606 0.4606
vn -0.4606 -0.7588 0.4606
vn 0.4606 -0.4606 0.7588
vn 0.4606 -0.7588 0.4606
vn 0.7588 -0.4606 0.4606
vn 0.4606 -0.4606 -0.7588
vn 0.7588 -0.4606 -0.4606
vn 0.4606 -0.7588 -0.4606
vn -0.7588 -0.4606 -0.4606
vn -0.4606 -0.4606 -0.7588
vn -0.4606 -0.7588 -0.4606
vn -0.7588 0.4606 0.4606
vn -0.4606 0.4606 0.7588
vn -0.4606 0.7588 0.4606
vn 0.4606 0.4606 0.7588
vn 0.7588 0.4606 0.4606
vn 0.4606 0.7588 0.4606
vn 0.7588 0.4606 -0.4606
vn 0.4606 0.4606 -0.7588
vn 0.4606 0.7588 -0.4606
vn -0.7588 0.4606 -0.4606
vn -0.4606 0.7588 -0.4606
vn -0.4606 0.4606 -0.7588
vn -0.0000 -0.0000 1.0000
vn -0.0000 -1.0000 -0.0000
vn -1.0000 -0.0000 -0.0000
vn 1.0000 -0.0000 -0.0000
vn -0.0000 -0.0000 -1.0000
vn -0.0000 1.0000 -0.0000
vt 0.069767 0.026667
vt 0.120000 0.060000
vt 0.109767 0.120000
vt 0.906977 0.020000
vt 0.906977 0.160000
vt 1.000000 0.115556
vt 0.906977 0.026667
vt 0.893333 0.026667
vt 0.906977 0.000000
vt 0.840000 0.026667
vt 1.000000 0.026667
vt 0.840000 0.000000
vt 0.160000 0.973333
vt 0.069767 0.973333
vt 0.137674 1.000000
vt 0.906977 0.973333
vt 1.000000 0.973333
vt 0.906977 1.000000
vt 0.880000 0.973333
vt 0.890233 0.920000
vt 0.840000 0.973333
vt 0.840000 1.000000
vt 0.000000 0.840000
vt 0.093023 0.840000
vt 0.906977 0.840000
vt 0.160000 1.000000
vt 0.160000 0.973333
vt 0.093023 0.973333
vt 0.160000 0.026667
vt 0.093023 0.026667
vt 0.906977 0.160000
vt 0.093023 0.840000
vt 0.093023 0.160000
vt 0.093023 1.000000
vt 1.000000 0.840000
s 1
g B_InlaidMassMark2.001_adamant_weight_weight_marks
usemtl adamant_weight_weight_marks
f 501/736/837 502/737/838 503/738/839
f 504/739/840 505/740/841 506/741/842
f 507/742/843 508/743/844 509/744/845
f 510/745/846 511/746/847 512/747/848
f 513/748/849 514/749/850 515/750/851
f 516/751/852 517/752/853 518/753/854
f 519/754/855 520/751/856 521/755/857
f 522/756/858 523/757/859 524/752/860
f 505/740/841 501/736/837 503/738/839
f 510/758/846 503/738/839 502/737/838
f 512/759/848 507/753/843 509/760/845
f 509/760/845 506/741/842 505/740/841
f 523/757/859 513/748/849 515/750/851
f 516/751/852 515/750/851 514/749/850
f 519/754/855 518/761/854 517/762/853
f 524/763/860 521/755/857 520/751/856
f 514/749/850 502/737/838 501/736/837
f 517/752/853 504/739/840 506/741/842
f 520/751/856 508/743/844 507/742/843
f 522/756/858 511/746/847 510/745/846
s 2
f 504/739/861 514/749/861 501/736/861
s 3
f 512/759/862 505/740/862 503/738/862
s 4
f 502/737/863 522/756/863 510/745/863
s 5
f 508/743/864 517/762/864 506/764/864
s 6
f 511/765/865 520/751/865 507/742/865
s 7
f 518/766/866 523/767/866 515/768/866
s 1
f 505/740/841 504/739/840 501/736/837
f 510/758/846 512/759/848 503/738/839
f 512/759/848 511/769/847 507/753/843
f 509/760/845 508/770/844 506/741/842
f 523/757/859 522/756/858 513/748/849
f 516/751/852 518/753/854 515/750/851
f 519/754/855 521/755/857 518/761/854
f 524/763/860 523/767/859 521/755/857
f 514/749/850 513/748/849 502/737/838
f 517/752/853 516/751/852 504/739/840
f 520/751/856 519/754/855 508/743/844
f 522/756/858 524/752/860 511/746/847
s 2
f 504/739/861 516/751/861 514/749/861
s 3
f 512/759/862 509/760/862 505/740/862
s 4
f 502/737/863 513/748/863 522/756/863
s 5
f 508/743/864 519/754/864 517/762/864
s 6
f 511/765/865 524/763/865 520/751/865
s 7
f 518/766/866 521/755/866 523/767/866
