# Blender 5.0.1
# www.blender.org
mtllib ambrosia.mtl
g Ambrosia_Bowl.001_Mesh
v 0.000000 -0.680000 -0.858457
v 0.000000 -0.627705 -0.889830
v 0.000000 -0.160000 -0.558457
v 0.000000 -0.212296 -0.650170
v 0.372471 -0.680000 -0.773443
v 0.386083 -0.627705 -0.801709
v 0.242306 -0.160000 -0.503152
v 0.282098 -0.212296 -0.585783
v 0.671169 -0.680000 -0.535239
v 0.695697 -0.627705 -0.554800
v 0.436619 -0.160000 -0.348192
v 0.508324 -0.212296 -0.405375
v 0.836934 -0.680000 -0.191025
v 0.867520 -0.627705 -0.198006
v 0.544455 -0.160000 -0.124268
v 0.633869 -0.212296 -0.144677
v 0.836934 -0.680000 0.191025
v 0.867520 -0.627705 0.198006
v 0.544455 -0.160000 0.124268
v 0.633869 -0.212296 0.144677
v 0.671169 -0.680000 0.535239
v 0.695697 -0.627705 0.554800
v 0.436619 -0.160000 0.348192
v 0.508324 -0.212296 0.405375
v 0.372471 -0.680000 0.773443
v 0.386083 -0.627705 0.801709
v 0.242306 -0.160000 0.503152
v 0.282098 -0.212296 0.585783
v -0.000000 -0.680000 0.858457
v 0.000000 -0.627705 0.889830
v 0.000000 -0.160000 0.558457
v 0.000000 -0.212296 0.650170
v -0.372471 -0.680000 0.773443
v -0.386083 -0.627705 0.801709
v -0.242306 -0.160000 0.503152
v -0.282098 -0.212296 0.585783
v -0.671169 -0.680000 0.535239
v -0.695697 -0.627705 0.554800
v -0.436619 -0.160000 0.348192
v -0.508324 -0.212296 0.405375
v -0.836934 -0.680000 0.191025
v -0.867520 -0.627705 0.198006
v -0.544455 -0.160000 0.124268
v -0.633869 -0.212296 0.144677
v -0.836934 -0.680000 -0.191025
v -0.867520 -0.627705 -0.198006
v -0.544455 -0.160000 -0.124268
v -0.633869 -0.212296 -0.144677
v -0.671169 -0.680000 -0.535239
v -0.695697 -0.627705 -0.554800
v -0.436619 -0.160000 -0.348192
v -0.508324 -0.212296 -0.405375
v -0.372471 -0.680000 -0.773443
v -0.386083 -0.627705 -0.801709
v -0.242306 -0.160000 -0.503152
v -0.282098 -0.212296 -0.585783
vn 0.1921 -0.5049 -0.8416
vn 0.1123 0.8632 -0.4922
vn 0.5382 -0.5049 -0.6749
vn 0.3148 0.8632 -0.3947
vn 0.7777 -0.5049 -0.3745
vn 0.4549 0.8632 -0.2191
vn 0.8632 -0.5049 -0.0000
vn 0.5049 0.8632 -0.0000
vn 0.7777 -0.5049 0.3745
vn 0.4549 0.8632 0.2191
vn 0.5382 -0.5049 0.6749
vn 0.3148 0.8632 0.3947
vn 0.1921 -0.5049 0.8416
vn 0.1123 0.8632 0.4922
vn -0.1921 -0.5049 0.8416
vn -0.1123 0.8632 0.4922
vn -0.5382 -0.5049 0.6749
vn -0.3148 0.8632 0.3947
vn -0.7777 -0.5049 0.3745
vn -0.4549 0.8632 0.2191
vn -0.8632 -0.5049 -0.0000
vn -0.5049 0.8632 -0.0000
vn -0.7777 -0.5049 -0.3745
vn -0.4549 0.8632 -0.2191
vn -0.5382 -0.5049 -0.6749
vn -0.3148 0.8632 -0.3947
vn -0.1921 -0.5049 -0.8416
vn -0.1123 0.8632 -0.4922
vn -0.0000 -1.0000 -0.0000
vn 0.1939 0.4902 -0.8497
vn -0.1939 0.4902 -0.8497
vn -0.0000 1.0000 -0.0000
vn 0.5434 0.4902 -0.6814
vn 0.7853 0.4902 -0.3782
vn 0.8716 0.4902 -0.0000
vn 0.7853 0.4902 0.3782
vn 0.5434 0.4902 0.6814
vn 0.1939 0.4902 0.8497
vn -0.1939 0.4902 0.8497
vn -0.5434 0.4902 0.6814
vn -0.7853 0.4902 0.3782
vn -0.8716 0.4902 -0.0000
vn -0.7853 0.4902 -0.3782
vn -0.5434 0.4902 -0.6814
vt 0.853963 0.465881
vt 0.750000 0.473945
vt 0.750000 0.489610
vt 0.354132 0.466233
vt 0.250000 0.466177
vt 0.343796 0.444769
vt 0.925088 0.389628
vt 0.847166 0.451768
vt 0.419014 0.384784
vt 0.437640 0.399638
vt 0.937335 0.399395
vt 0.968331 0.299832
vt 0.460757 0.298104
vt 0.483983 0.303405
vt 0.983603 0.196682
vt 0.983603 0.303318
vt 0.460757 0.201896
vt 0.483983 0.196595
vt 0.937335 0.100605
vt 0.968331 0.200168
vt 0.419014 0.115216
vt 0.437640 0.100362
vt 0.853963 0.034119
vt 0.925088 0.110372
vt 0.343796 0.055231
vt 0.354132 0.033767
vt 0.750000 0.026055
vt 0.847166 0.048232
vt 0.250000 0.033823
vt 0.250000 0.010000
vt 0.646037 0.034119
vt 0.750000 0.010390
vt 0.145868 0.033767
vt 0.156204 0.055231
vt 0.574913 0.110372
vt 0.652834 0.048232
vt 0.080986 0.115216
vt 0.062360 0.100362
vt 0.562665 0.100605
vt 0.531669 0.200168
vt 0.039243 0.201896
vt 0.016017 0.196595
vt 0.516397 0.303318
vt 0.516397 0.196682
vt 0.039243 0.298104
vt 0.016017 0.303405
vt 0.562665 0.399395
vt 0.531669 0.299833
vt 0.080986 0.384784
vt 0.062360 0.399638
vt 0.646037 0.465881
vt 0.574913 0.389628
vt 0.156204 0.444769
vt 0.145868 0.466233
vt 0.652834 0.451768
vt 0.250000 0.490000
vt 1.000000 0.949716
vt 0.928571 0.550284
vt 1.000000 0.550284
vt 0.071428 0.550284
vt -0.000000 0.949716
vt -0.000000 0.550284
vt 0.857143 0.949716
vt 0.857143 0.550284
vt 0.785714 0.550284
vt 0.785714 0.949716
vt 0.714286 0.550284
vt 0.642857 0.949716
vt 0.642857 0.550284
vt 0.571428 0.550284
vt 0.500000 0.949716
vt 0.500000 0.550284
vt 0.428571 0.550284
vt 0.357143 0.949716
vt 0.357143 0.550284
vt 0.285714 0.550284
vt 0.285714 0.949716
vt 0.214286 0.550284
vt 0.142857 0.949716
vt 0.142857 0.550284
vt 0.928571 0.949716
vt 0.071428 0.949716
vt 0.714286 0.949716
vt 0.571428 0.949716
vt 0.428571 0.949716
vt 0.214286 0.949716
s 0
g Ambrosia_Bowl.001_MAT_BrightGold
usemtl MAT_BrightGold
f 6/1/1 1/2/1 2/3/1
f 8/4/2 3/5/2 7/6/2
f 6/1/3 9/7/3 5/8/3
f 8/4/4 11/9/4 12/10/4
f 10/11/5 13/12/5 9/7/5
f 12/10/6 15/13/6 16/14/6
f 18/15/7 13/12/7 14/16/7
f 16/14/8 19/17/8 20/18/8
f 22/19/9 17/20/9 18/15/9
f 20/18/10 23/21/10 24/22/10
f 26/23/11 21/24/11 22/19/11
f 24/22/12 27/25/12 28/26/12
f 26/23/13 29/27/13 25/28/13
f 28/26/14 31/29/14 32/30/14
f 34/31/15 29/27/15 30/32/15
f 36/33/16 31/29/16 35/34/16
f 34/31/17 37/35/17 33/36/17
f 36/33/18 39/37/18 40/38/18
f 38/39/19 41/40/19 37/35/19
f 40/38/20 43/41/20 44/42/20
f 46/43/21 41/40/21 42/44/21
f 44/42/22 47/45/22 48/46/22
f 50/47/23 45/48/23 46/43/23
f 48/46/24 51/49/24 52/50/24
f 54/51/25 49/52/25 50/47/25
f 52/50/26 55/53/26 56/54/26
f 54/51/27 1/2/27 53/55/27
f 56/54/28 3/5/28 4/56/28
f 13/12/29 29/27/29 45/48/29
f 4/57/30 6/58/30 2/59/30
f 54/60/31 4/61/31 2/62/31
f 51/49/32 35/34/32 19/17/32
f 6/58/33 12/63/33 10/64/33
f 12/63/34 14/65/34 10/64/34
f 16/66/35 18/67/35 14/65/35
f 18/67/36 24/68/36 22/69/36
f 24/68/37 26/70/37 22/69/37
f 26/70/38 32/71/38 30/72/38
f 32/71/39 34/73/39 30/72/39
f 34/73/40 40/74/40 38/75/40
f 40/74/41 42/76/41 38/75/41
f 44/77/42 46/78/42 42/76/42
f 46/78/43 52/79/43 50/80/43
f 52/79/44 54/60/44 50/80/44
f 6/1/1 5/8/1 1/2/1
f 8/4/2 4/56/2 3/5/2
f 6/1/3 10/11/3 9/7/3
f 8/4/4 7/6/4 11/9/4
f 10/11/5 14/16/5 13/12/5
f 12/10/6 11/9/6 15/13/6
f 18/15/7 17/20/7 13/12/7
f 16/14/8 15/13/8 19/17/8
f 22/19/9 21/24/9 17/20/9
f 20/18/10 19/17/10 23/21/10
f 26/23/11 25/28/11 21/24/11
f 24/22/12 23/21/12 27/25/12
f 26/23/13 30/32/13 29/27/13
f 28/26/14 27/25/14 31/29/14
f 34/31/15 33/36/15 29/27/15
f 36/33/16 32/30/16 31/29/16
f 34/31/17 38/39/17 37/35/17
f 36/33/18 35/34/18 39/37/18
f 38/39/19 42/44/19 41/40/19
f 40/38/20 39/37/20 43/41/20
f 46/43/21 45/48/21 41/40/21
f 44/42/22 43/41/22 47/45/22
f 50/47/23 49/52/23 45/48/23
f 48/46/24 47/45/24 51/49/24
f 54/51/25 53/55/25 49/52/25
f 52/50/26 51/49/26 55/53/26
f 54/51/27 2/3/27 1/2/27
f 56/54/28 55/53/28 3/5/28
f 53/55/29 1/2/29 5/8/29
f 5/8/29 9/7/29 13/12/29
f 13/12/29 17/20/29 21/24/29
f 21/24/29 25/28/29 29/27/29
f 29/27/29 33/36/29 37/35/29
f 37/35/29 41/40/29 45/48/29
f 45/48/29 49/52/29 53/55/29
f 53/55/29 5/8/29 13/12/29
f 13/12/29 21/24/29 29/27/29
f 29/27/29 37/35/29 45/48/29
f 45/48/29 53/55/29 13/12/29
f 4/57/30 8/81/30 6/58/30
f 54/60/31 56/82/31 4/61/31
f 11/9/32 7/6/32 3/5/32
f 3/5/32 55/53/32 51/49/32
f 51/49/32 47/45/32 43/41/32
f 43/41/32 39/37/32 35/34/32
f 35/34/32 31/29/32 27/25/32
f 27/25/32 23/21/32 19/17/32
f 19/17/32 15/13/32 11/9/32
f 11/9/32 3/5/32 51/49/32
f 51/49/32 43/41/32 35/34/32
f 35/34/32 27/25/32 19/17/32
f 19/17/32 11/9/32 51/49/32
f 6/58/33 8/81/33 12/63/33
f 12/63/34 16/66/34 14/65/34
f 16/66/35 20/83/35 18/67/35
f 18/67/36 20/83/36 24/68/36
f 24/68/37 28/84/37 26/70/37
f 26/70/38 28/84/38 32/71/38
f 32/71/39 36/85/39 34/73/39
f 34/73/40 36/85/40 40/74/40
f 40/74/41 44/77/41 42/76/41
f 44/77/42 48/86/42 46/78/42
f 46/78/43 48/86/43 52/79/43
f 52/79/44 56/82/44 54/60/44
g Ambrosia_Fruit0.001_Mesh
v 0.460000 -0.120000 0.000000
v 0.633664 0.012668 0.115658
v 0.393668 0.012668 0.187141
v 0.245338 0.012668 0.000000
v 0.393668 0.012668 -0.187141
v 0.633664 0.012668 -0.115658
v 0.526332 0.227331 0.187141
v 0.286336 0.227331 0.115658
v 0.286336 0.227331 -0.115658
v 0.526332 0.227331 -0.187141
v 0.674662 0.227331 0.000000
v 0.460000 0.360000 0.000000
vn 0.1819 -0.7706 0.6108
vn 0.6071 -0.7947 -0.0000
vn -0.4853 -0.7852 0.3846
vn -0.4853 -0.7852 -0.3846
vn 0.1819 -0.7706 -0.6108
vn 0.9822 -0.1876 -0.0000
vn 0.2811 -0.1737 0.9438
vn -0.7706 -0.1819 0.6108
vn -0.7706 -0.1819 -0.6108
vn 0.2811 -0.1737 -0.9438
vn 0.7706 0.1819 0.6108
vn -0.2811 0.1737 0.9438
vn -0.9822 0.1876 -0.0000
vn -0.2811 0.1737 -0.9438
vn 0.7706 0.1819 -0.6108
vn 0.4853 0.7852 0.3846
vn -0.1819 0.7706 0.6108
vn -0.6071 0.7947 -0.0000
vn -0.1819 0.7706 -0.6108
vn 0.4853 0.7852 -0.3846
vt 0.181819 0.000000
vt 0.272728 0.157461
vt 0.090910 0.157461
vt 0.363637 0.000000
vt 0.454546 0.157461
vt 0.909091 0.000000
vt 1.000000 0.157461
vt 0.818182 0.157461
vt 0.727273 0.000000
vt 0.636364 0.157461
vt 0.545455 0.000000
vt 0.363637 0.314921
vt 0.181819 0.314921
vt 0.909091 0.314921
vt 0.727273 0.314921
vt 0.545455 0.314921
vt 0.000000 0.314921
vt 0.272728 0.472382
vt 0.090910 0.472382
vt 0.818182 0.472382
vt 0.636364 0.472382
vt 0.454546 0.472382
s 0
g Ambrosia_Fruit0.001_MAT_Ruby
usemtl MAT_Ruby
f 57/87/45 58/88/45 59/89/45
f 58/88/46 57/90/46 62/91/46
f 57/92/47 59/93/47 60/94/47
f 57/95/48 60/94/48 61/96/48
f 57/97/49 61/96/49 62/91/49
f 58/88/50 62/91/50 67/98/50
f 59/89/51 58/88/51 63/99/51
f 60/94/52 59/93/52 64/100/52
f 61/96/53 60/94/53 65/101/53
f 62/91/54 61/96/54 66/102/54
f 58/88/55 67/98/55 63/99/55
f 59/89/56 63/99/56 64/103/56
f 60/94/57 64/100/57 65/101/57
f 61/96/58 65/101/58 66/102/58
f 62/91/59 66/102/59 67/98/59
f 63/99/60 67/98/60 68/104/60
f 64/103/61 63/99/61 68/105/61
f 65/101/62 64/100/62 68/106/62
f 66/102/63 65/101/63 68/107/63
f 67/98/64 66/102/64 68/108/64
g Ambrosia_Fruit1.001_Mesh
v 0.352380 0.060000 -0.295682
v 0.526044 0.192669 -0.180024
v 0.286048 0.192669 -0.108542
v 0.137718 0.192669 -0.295682
v 0.286048 0.192669 -0.482823
v 0.526044 0.192669 -0.411341
v 0.418713 0.407332 -0.108542
v 0.178716 0.407332 -0.180024
v 0.178716 0.407332 -0.411341
v 0.418713 0.407332 -0.482823
v 0.567042 0.407332 -0.295682
v 0.352380 0.540000 -0.295682
vn 0.1819 -0.7706 0.6108
vn 0.6071 -0.7947 -0.0000
vn -0.4853 -0.7852 0.3846
vn -0.4853 -0.7852 -0.3846
vn 0.1819 -0.7706 -0.6108
vn 0.9822 -0.1876 -0.0000
vn 0.2811 -0.1737 0.9438
vn -0.7706 -0.1819 0.6108
vn -0.7706 -0.1819 -0.6108
vn 0.2811 -0.1737 -0.9438
vn 0.7706 0.1819 0.6108
vn -0.2811 0.1737 0.9438
vn -0.9822 0.1876 -0.0000
vn -0.2811 0.1737 -0.9438
vn 0.7706 0.1819 -0.6108
vn 0.4853 0.7852 0.3846
vn -0.1819 0.7706 0.6108
vn -0.6071 0.7947 -0.0000
vn -0.1819 0.7706 -0.6108
vn 0.4853 0.7852 -0.3846
vt 0.181819 0.000000
vt 0.272728 0.157461
vt 0.090910 0.157461
vt 0.363637 0.000000
vt 0.454546 0.157461
vt 0.909091 0.000000
vt 1.000000 0.157461
vt 0.818182 0.157461
vt 0.727273 0.000000
vt 0.636364 0.157461
vt 0.545455 0.000000
vt 0.363637 0.314921
vt 0.181819 0.314921
vt 0.909091 0.314921
vt 0.727273 0.314921
vt 0.545455 0.314921
vt 0.000000 0.314921
vt 0.272728 0.472382
vt 0.090910 0.472382
vt 0.818182 0.472382
vt 0.636364 0.472382
vt 0.454546 0.472382
s 0
g Ambrosia_Fruit1.001_MAT_Emerald
usemtl MAT_Emerald
f 69/109/65 70/110/65 71/111/65
f 70/110/66 69/112/66 74/113/66
f 69/114/67 71/115/67 72/116/67
f 69/117/68 72/116/68 73/118/68
f 69/119/69 73/118/69 74/113/69
f 70/110/70 74/113/70 79/120/70
f 71/111/71 70/110/71 75/121/71
f 72/116/72 71/115/72 76/122/72
f 73/118/73 72/116/73 77/123/73
f 74/113/74 73/118/74 78/124/74
f 70/110/75 79/120/75 75/121/75
f 71/111/76 75/121/76 76/125/76
f 72/116/77 76/122/77 77/123/77
f 73/118/78 77/123/78 78/124/78
f 74/113/79 78/124/79 79/120/79
f 75/121/80 79/120/80 80/126/80
f 76/125/81 75/121/81 80/127/81
f 77/123/82 76/122/82 80/128/82
f 78/124/83 77/123/83 80/129/83
f 79/120/84 78/124/84 80/130/84
g Ambrosia_Fruit2.001_Mesh
v 0.079878 0.240000 -0.453012
v 0.253542 0.372668 -0.337353
v 0.013546 0.372668 -0.265871
v -0.134784 0.372668 -0.453012
v 0.013546 0.372668 -0.640152
v 0.253542 0.372668 -0.568670
v 0.146211 0.587332 -0.265871
v -0.093786 0.587332 -0.337353
v -0.093786 0.587332 -0.568670
v 0.146211 0.587332 -0.640152
v 0.294540 0.587332 -0.453012
v 0.079878 0.720000 -0.453012
vn 0.1819 -0.7706 0.6108
vn 0.6071 -0.7947 -0.0000
vn -0.4853 -0.7852 0.3846
vn -0.4853 -0.7852 -0.3846
vn 0.1819 -0.7706 -0.6108
vn 0.9822 -0.1876 -0.0000
vn 0.2811 -0.1737 0.9438
vn -0.7706 -0.1819 0.6108
vn -0.7706 -0.1819 -0.6108
vn 0.2811 -0.1737 -0.9438
vn 0.7706 0.1819 0.6108
vn -0.2811 0.1737 0.9438
vn -0.9822 0.1876 -0.0000
vn -0.2811 0.1737 -0.9438
vn 0.7706 0.1819 -0.6108
vn 0.4853 0.7852 0.3846
vn -0.1819 0.7706 0.6108
vn -0.6071 0.7947 -0.0000
vn -0.1819 0.7706 -0.6108
vn 0.4853 0.7852 -0.3846
vt 0.181819 0.000000
vt 0.272728 0.157461
vt 0.090910 0.157461
vt 0.363637 0.000000
vt 0.454546 0.157461
vt 0.909091 0.000000
vt 1.000000 0.157461
vt 0.818182 0.157461
vt 0.727273 0.000000
vt 0.636364 0.157461
vt 0.545455 0.000000
vt 0.363637 0.314921
vt 0.181819 0.314921
vt 0.909091 0.314921
vt 0.727273 0.314921
vt 0.545455 0.314921
vt 0.000000 0.314921
vt 0.272728 0.472382
vt 0.090910 0.472382
vt 0.818182 0.472382
vt 0.636364 0.472382
vt 0.454546 0.472382
s 0
g Ambrosia_Fruit2.001_MAT_Sapphire
usemtl MAT_Sapphire
f 81/131/85 82/132/85 83/133/85
f 82/132/86 81/134/86 86/135/86
f 81/136/87 83/137/87 84/138/87
f 81/139/88 84/138/88 85/140/88
f 81/141/89 85/140/89 86/135/89
f 82/132/90 86/135/90 91/142/90
f 83/133/91 82/132/91 87/143/91
f 84/138/92 83/137/92 88/144/92
f 85/140/93 84/138/93 89/145/93
f 86/135/94 85/140/94 90/146/94
f 82/132/95 91/142/95 87/143/95
f 83/133/96 87/143/96 88/147/96
f 84/138/97 88/144/97 89/145/97
f 85/140/98 89/145/98 90/146/98
f 86/135/99 90/146/99 91/142/99
f 87/143/100 91/142/100 92/148/100
f 88/147/101 87/143/101 92/149/101
f 89/145/102 88/144/102 92/150/102
f 90/146/103 89/145/103 92/151/103
f 91/142/104 90/146/104 92/152/104
g Ambrosia_Fruit3.001_Mesh
v -0.230000 -0.120000 -0.398372
v -0.056336 0.012668 -0.282713
v -0.296332 0.012668 -0.211231
v -0.444662 0.012668 -0.398372
v -0.296332 0.012668 -0.585513
v -0.056336 0.012668 -0.514030
v -0.163668 0.227331 -0.211231
v -0.403664 0.227331 -0.282713
v -0.403664 0.227331 -0.514030
v -0.163668 0.227331 -0.585513
v -0.015338 0.227331 -0.398372
v -0.230000 0.360000 -0.398372
vn 0.1819 -0.7706 0.6108
vn 0.6071 -0.7947 -0.0000
vn -0.4853 -0.7852 0.3846
vn -0.4853 -0.7852 -0.3846
vn 0.1819 -0.7706 -0.6108
vn 0.9822 -0.1876 -0.0000
vn 0.2811 -0.1737 0.9438
vn -0.7706 -0.1819 0.6108
vn -0.7706 -0.1819 -0.6108
vn 0.2811 -0.1737 -0.9438
vn 0.7706 0.1819 0.6108
vn -0.2811 0.1737 0.9438
vn -0.9822 0.1876 -0.0000
vn -0.2811 0.1737 -0.9438
vn 0.7706 0.1819 -0.6108
vn 0.4853 0.7852 0.3846
vn -0.1819 0.7706 0.6108
vn -0.6071 0.7947 -0.0000
vn -0.1819 0.7706 -0.6108
vn 0.4853 0.7852 -0.3846
vt 0.181819 0.000000
vt 0.272728 0.157461
vt 0.090910 0.157461
vt 0.363637 0.000000
vt 0.454546 0.157461
vt 0.909091 0.000000
vt 1.000000 0.157461
vt 0.818182 0.157461
vt 0.727273 0.000000
vt 0.636364 0.157461
vt 0.545455 0.000000
vt 0.363637 0.314921
vt 0.181819 0.314921
vt 0.909091 0.314921
vt 0.727273 0.314921
vt 0.545455 0.314921
vt 0.000000 0.314921
vt 0.272728 0.472382
vt 0.090910 0.472382
vt 0.818182 0.472382
vt 0.636364 0.472382
vt 0.454546 0.472382
s 0
g Ambrosia_Fruit3.001_MAT_Pearl
usemtl MAT_Pearl
f 93/153/105 94/154/105 95/155/105
f 94/154/106 93/156/106 98/157/106
f 93/158/107 95/159/107 96/160/107
f 93/161/108 96/160/108 97/162/108
f 93/163/109 97/162/109 98/157/109
f 94/154/110 98/157/110 103/164/110
f 95/155/111 94/154/111 99/165/111
f 96/160/112 95/159/112 100/166/112
f 97/162/113 96/160/113 101/167/113
f 98/157/114 97/162/114 102/168/114
f 94/154/115 103/164/115 99/165/115
f 95/155/116 99/165/116 100/169/116
f 96/160/117 100/166/117 101/167/117
f 97/162/118 101/167/118 102/168/118
f 98/157/119 102/168/119 103/164/119
f 99/165/120 103/164/120 104/170/120
f 100/169/121 99/165/121 104/171/121
f 101/167/122 100/166/122 104/172/122
f 102/168/123 101/167/123 104/173/123
f 103/164/124 102/168/124 104/174/124
g Ambrosia_Fruit4.001_Mesh
v -0.432259 0.060000 -0.157329
v -0.258595 0.192669 -0.041671
v -0.498591 0.192669 0.029812
v -0.646921 0.192669 -0.157329
v -0.498591 0.192669 -0.344470
v -0.258595 0.192669 -0.272988
v -0.365926 0.407332 0.029812
v -0.605923 0.407332 -0.041671
v -0.605923 0.407332 -0.272988
v -0.365926 0.407332 -0.344470
v -0.217597 0.407332 -0.157329
v -0.432259 0.540000 -0.157329
vn 0.1819 -0.7706 0.6108
vn 0.6071 -0.7947 -0.0000
vn -0.4853 -0.7852 0.3846
vn -0.4853 -0.7852 -0.3846
vn 0.1819 -0.7706 -0.6108
vn 0.9822 -0.1876 -0.0000
vn 0.2811 -0.1737 0.9438
vn -0.7706 -0.1819 0.6108
vn -0.7706 -0.1819 -0.6108
vn 0.2811 -0.1737 -0.9438
vn 0.7706 0.1819 0.6108
vn -0.2811 0.1737 0.9438
vn -0.9822 0.1876 -0.0000
vn -0.2811 0.1737 -0.9438
vn 0.7706 0.1819 -0.6108
vn 0.4853 0.7852 0.3846
vn -0.1819 0.7706 0.6108
vn -0.6071 0.7947 -0.0000
vn -0.1819 0.7706 -0.6108
vn 0.4853 0.7852 -0.3846
vt 0.181819 0.000000
vt 0.272728 0.157461
vt 0.090910 0.157461
vt 0.363637 0.000000
vt 0.454546 0.157461
vt 0.909091 0.000000
vt 1.000000 0.157461
vt 0.818182 0.157461
vt 0.727273 0.000000
vt 0.636364 0.157461
vt 0.545455 0.000000
vt 0.363637 0.314921
vt 0.181819 0.314921
vt 0.909091 0.314921
vt 0.727273 0.314921
vt 0.545455 0.314921
vt 0.000000 0.314921
vt 0.272728 0.472382
vt 0.090910 0.472382
vt 0.818182 0.472382
vt 0.636364 0.472382
vt 0.454546 0.472382
s 0
g Ambrosia_Fruit4.001_MAT_Ruby
usemtl MAT_Ruby
f 105/175/125 106/176/125 107/177/125
f 106/176/126 105/178/126 110/179/126
f 105/180/127 107/181/127 108/182/127
f 105/183/128 108/182/128 109/184/128
f 105/185/129 109/184/129 110/179/129
f 106/176/130 110/179/130 115/186/130
f 107/177/131 106/176/131 111/187/131
f 108/182/132 107/181/132 112/188/132
f 109/184/133 108/182/133 113/189/133
f 110/179/134 109/184/134 114/190/134
f 106/176/135 115/186/135 111/187/135
f 107/177/136 111/187/136 112/191/136
f 108/182/137 112/188/137 113/189/137
f 109/184/138 113/189/138 114/190/138
f 110/179/139 114/190/139 115/186/139
f 111/187/140 115/186/140 116/192/140
f 112/191/141 111/187/141 116/193/141
f 113/189/142 112/188/142 116/194/142
f 114/190/143 113/189/143 116/195/143
f 115/186/144 114/190/144 116/196/144
g Ambrosia_Fruit5.001_Mesh
v -0.432259 0.240000 0.157329
v -0.258595 0.372668 0.272988
v -0.498591 0.372668 0.344470
v -0.646921 0.372668 0.157329
v -0.498591 0.372668 -0.029812
v -0.258595 0.372668 0.041671
v -0.365926 0.587332 0.344470
v -0.605923 0.587332 0.272988
v -0.605923 0.587332 0.041671
v -0.365926 0.587332 -0.029812
v -0.217597 0.587332 0.157329
v -0.432259 0.720000 0.157329
vn 0.1819 -0.7706 0.6108
vn 0.6071 -0.7947 -0.0000
vn -0.4853 -0.7852 0.3846
vn -0.4853 -0.7852 -0.3846
vn 0.1819 -0.7706 -0.6108
vn 0.9822 -0.1876 -0.0000
vn 0.2811 -0.1737 0.9438
vn -0.7706 -0.1819 0.6108
vn -0.7706 -0.1819 -0.6108
vn 0.2811 -0.1737 -0.9438
vn 0.7706 0.1819 0.6108
vn -0.2811 0.1737 0.9438
vn -0.9822 0.1876 -0.0000
vn -0.2811 0.1737 -0.9438
vn 0.7706 0.1819 -0.6108
vn 0.4853 0.7852 0.3846
vn -0.1819 0.7706 0.6108
vn -0.6071 0.7947 -0.0000
vn -0.1819 0.7706 -0.6108
vn 0.4853 0.7852 -0.3846
vt 0.181819 0.000000
vt 0.272728 0.157461
vt 0.090910 0.157461
vt 0.363637 0.000000
vt 0.454546 0.157461
vt 0.909091 0.000000
vt 1.000000 0.157461
vt 0.818182 0.157461
vt 0.727273 0.000000
vt 0.636364 0.157461
vt 0.545455 0.000000
vt 0.363637 0.314921
vt 0.181819 0.314921
vt 0.909091 0.314921
vt 0.727273 0.314921
vt 0.545455 0.314921
vt 0.000000 0.314921
vt 0.272728 0.472382
vt 0.090910 0.472382
vt 0.818182 0.472382
vt 0.636364 0.472382
vt 0.454546 0.472382
s 0
g Ambrosia_Fruit5.001_MAT_Emerald
usemtl MAT_Emerald
f 117/197/145 118/198/145 119/199/145
f 118/198/146 117/200/146 122/201/146
f 117/202/147 119/203/147 120/204/147
f 117/205/148 120/204/148 121/206/148
f 117/207/149 121/206/149 122/201/149
f 118/198/150 122/201/150 127/208/150
f 119/199/151 118/198/151 123/209/151
f 120/204/152 119/203/152 124/210/152
f 121/206/153 120/204/153 125/211/153
f 122/201/154 121/206/154 126/212/154
f 118/198/155 127/208/155 123/209/155
f 119/199/156 123/209/156 124/213/156
f 120/204/157 124/210/157 125/211/157
f 121/206/158 125/211/158 126/212/158
f 122/201/159 126/212/159 127/208/159
f 123/209/160 127/208/160 128/214/160
f 124/213/161 123/209/161 128/215/161
f 125/211/162 124/210/162 128/216/162
f 126/212/163 125/211/163 128/217/163
f 127/208/164 126/212/164 128/218/164
g Ambrosia_Fruit6.001_Mesh
v -0.100000 -0.120000 0.173205
v 0.073664 0.012668 0.288863
v -0.166332 0.012668 0.360346
v -0.314662 0.012668 0.173205
v -0.166332 0.012668 -0.013936
v 0.073664 0.012668 0.057547
v -0.033668 0.227331 0.360346
v -0.273664 0.227331 0.288863
v -0.273664 0.227331 0.057547
v -0.033668 0.227331 -0.013936
v 0.114662 0.227331 0.173205
v -0.100000 0.360000 0.173205
vn 0.1819 -0.7706 0.6108
vn 0.6071 -0.7947 -0.0000
vn -0.4853 -0.7852 0.3846
vn -0.4853 -0.7852 -0.3846
vn 0.1819 -0.7706 -0.6108
vn 0.9822 -0.1876 -0.0000
vn 0.2811 -0.1737 0.9438
vn -0.7706 -0.1819 0.6108
vn -0.7706 -0.1819 -0.6108
vn 0.2811 -0.1737 -0.9438
vn 0.7706 0.1819 0.6108
vn -0.2811 0.1737 0.9438
vn -0.9822 0.1876 -0.0000
vn -0.2811 0.1737 -0.9438
vn 0.7706 0.1819 -0.6108
vn 0.4853 0.7852 0.3846
vn -0.1819 0.7706 0.6108
vn -0.6071 0.7947 -0.0000
vn -0.1819 0.7706 -0.6108
vn 0.4853 0.7852 -0.3846
vt 0.181819 0.000000
vt 0.272728 0.157461
vt 0.090910 0.157461
vt 0.363637 0.000000
vt 0.454546 0.157461
vt 0.909091 0.000000
vt 1.000000 0.157461
vt 0.818182 0.157461
vt 0.727273 0.000000
vt 0.636364 0.157461
vt 0.545455 0.000000
vt 0.363637 0.314921
vt 0.181819 0.314921
vt 0.909091 0.314921
vt 0.727273 0.314921
vt 0.545455 0.314921
vt 0.000000 0.314921
vt 0.272728 0.472382
vt 0.090910 0.472382
vt 0.818182 0.472382
vt 0.636364 0.472382
vt 0.454546 0.472382
s 0
g Ambrosia_Fruit6.001_MAT_Sapphire
usemtl MAT_Sapphire
f 129/219/165 130/220/165 131/221/165
f 130/220/166 129/222/166 134/223/166
f 129/224/167 131/225/167 132/226/167
f 129/227/168 132/226/168 133/228/168
f 129/229/169 133/228/169 134/223/169
f 130/220/170 134/223/170 139/230/170
f 131/221/171 130/220/171 135/231/171
f 132/226/172 131/225/172 136/232/172
f 133/228/173 132/226/173 137/233/173
f 134/223/174 133/228/174 138/234/174
f 130/220/175 139/230/175 135/231/175
f 131/221/176 135/231/176 136/235/176
f 132/226/177 136/232/177 137/233/177
f 133/228/178 137/233/178 138/234/178
f 134/223/179 138/234/179 139/230/179
f 135/231/180 139/230/180 140/236/180
f 136/235/181 135/231/181 140/237/181
f 137/233/182 136/232/182 140/238/182
f 138/234/183 137/233/183 140/239/183
f 139/230/184 138/234/184 140/240/184
g Ambrosia_Fruit7.001_Mesh
v 0.034729 0.060000 0.196962
v 0.208393 0.192669 0.312620
v -0.031603 0.192669 0.384102
v -0.179933 0.192669 0.196962
v -0.031603 0.192669 0.009821
v 0.208393 0.192669 0.081303
v 0.101062 0.407332 0.384102
v -0.138935 0.407332 0.312620
v -0.138935 0.407332 0.081303
v 0.101062 0.407332 0.009821
v 0.249391 0.407332 0.196962
v 0.034729 0.540000 0.196962
vn 0.1819 -0.7706 0.6108
vn 0.6071 -0.7947 -0.0000
vn -0.4853 -0.7852 0.3846
vn -0.4853 -0.7852 -0.3846
vn 0.1819 -0.7706 -0.6108
vn 0.9822 -0.1876 -0.0000
vn 0.2811 -0.1737 0.9438
vn -0.7706 -0.1819 0.6108
vn -0.7706 -0.1819 -0.6108
vn 0.2811 -0.1737 -0.9438
vn 0.7706 0.1819 0.6108
vn -0.2811 0.1737 0.9438
vn -0.9822 0.1876 -0.0000
vn -0.2811 0.1737 -0.9438
vn 0.7706 0.1819 -0.6108
vn 0.4853 0.7852 0.3846
vn -0.1819 0.7706 0.6108
vn -0.6071 0.7947 -0.0000
vn -0.1819 0.7706 -0.6108
vn 0.4853 0.7852 -0.3846
vt 0.181819 0.000000
vt 0.272728 0.157461
vt 0.090910 0.157461
vt 0.363637 0.000000
vt 0.454546 0.157461
vt 0.909091 0.000000
vt 1.000000 0.157461
vt 0.818182 0.157461
vt 0.727273 0.000000
vt 0.636364 0.157461
vt 0.545455 0.000000
vt 0.363637 0.314921
vt 0.181819 0.314921
vt 0.909091 0.314921
vt 0.727273 0.314921
vt 0.545455 0.314921
vt 0.000000 0.314921
vt 0.272728 0.472382
vt 0.090910 0.472382
vt 0.818182 0.472382
vt 0.636364 0.472382
vt 0.454546 0.472382
s 0
g Ambrosia_Fruit7.001_MAT_Pearl
usemtl MAT_Pearl
f 141/241/185 142/242/185 143/243/185
f 142/242/186 141/244/186 146/245/186
f 141/246/187 143/247/187 144/248/187
f 141/249/188 144/248/188 145/250/188
f 141/251/189 145/250/189 146/245/189
f 142/242/190 146/245/190 151/252/190
f 143/243/191 142/242/191 147/253/191
f 144/248/192 143/247/192 148/254/192
f 145/250/193 144/248/193 149/255/193
f 146/245/194 145/250/194 150/256/194
f 142/242/195 151/252/195 147/253/195
f 143/243/196 147/253/196 148/257/196
f 144/248/197 148/254/197 149/255/197
f 145/250/198 149/255/198 150/256/198
f 146/245/199 150/256/199 151/252/199
f 147/253/200 151/252/200 152/258/200
f 148/257/201 147/253/201 152/259/201
f 149/255/202 148/254/202 152/260/202
f 150/256/203 149/255/203 152/261/203
f 151/252/204 150/256/204 152/262/204
g Ambrosia_Fruit8.001_Mesh
v 0.153209 0.240000 0.128558
v 0.326873 0.372668 0.244216
v 0.086876 0.372668 0.315698
v -0.061453 0.372668 0.128558
v 0.086876 0.372668 -0.058583
v 0.326873 0.372668 0.012899
v 0.219541 0.587332 0.315698
v -0.020455 0.587332 0.244216
v -0.020455 0.587332 0.012899
v 0.219541 0.587332 -0.058583
v 0.367871 0.587332 0.128558
v 0.153209 0.720000 0.128558
vn 0.1819 -0.7706 0.6108
vn 0.6071 -0.7947 -0.0000
vn -0.4853 -0.7852 0.3846
vn -0.4853 -0.7852 -0.3846
vn 0.1819 -0.7706 -0.6108
vn 0.9822 -0.1876 -0.0000
vn 0.2811 -0.1737 0.9438
vn -0.7706 -0.1819 0.6108
vn -0.7706 -0.1819 -0.6108
vn 0.2811 -0.1737 -0.9438
vn 0.7706 0.1819 0.6108
vn -0.2811 0.1737 0.9438
vn -0.9822 0.1876 -0.0000
vn -0.2811 0.1737 -0.9438
vn 0.7706 0.1819 -0.6108
vn 0.4853 0.7852 0.3846
vn -0.1819 0.7706 0.6108
vn -0.6071 0.7947 -0.0000
vn -0.1819 0.7706 -0.6108
vn 0.4853 0.7852 -0.3846
vt 0.181819 0.000000
vt 0.272728 0.157461
vt 0.090910 0.157461
vt 0.363637 0.000000
vt 0.454546 0.157461
vt 0.909091 0.000000
vt 1.000000 0.157461
vt 0.818182 0.157461
vt 0.727273 0.000000
vt 0.636364 0.157461
vt 0.545455 0.000000
vt 0.363637 0.314921
vt 0.181819 0.314921
vt 0.909091 0.314921
vt 0.727273 0.314921
vt 0.545455 0.314921
vt 0.000000 0.314921
vt 0.272728 0.472382
vt 0.090910 0.472382
vt 0.818182 0.472382
vt 0.636364 0.472382
vt 0.454546 0.472382
s 0
g Ambrosia_Fruit8.001_MAT_Ruby
usemtl MAT_Ruby
f 153/263/205 154/264/205 155/265/205
f 154/264/206 153/266/206 158/267/206
f 153/268/207 155/269/207 156/270/207
f 153/271/208 156/270/208 157/272/208
f 153/273/209 157/272/209 158/267/209
f 154/264/210 158/267/210 163/274/210
f 155/265/211 154/264/211 159/275/211
f 156/270/212 155/269/212 160/276/212
f 157/272/213 156/270/213 161/277/213
f 158/267/214 157/272/214 162/278/214
f 154/264/215 163/274/215 159/275/215
f 155/265/216 159/275/216 160/279/216
f 156/270/217 160/276/217 161/277/217
f 157/272/218 161/277/218 162/278/218
f 158/267/219 162/278/219 163/274/219
f 159/275/220 163/274/220 164/280/220
f 160/279/221 159/275/221 164/281/221
f 161/277/222 160/276/222 164/282/222
f 162/278/223 161/277/223 164/283/223
f 163/274/224 162/278/224 164/284/224
g Ambrosia_Leaf.001_Mesh
v 0.466825 0.069849 0.142475
v 0.482316 0.050000 0.150712
v 0.475246 0.070000 0.169604
v 0.568442 1.000151 0.196506
v 0.561221 0.857101 0.215318
v 0.572779 1.000151 0.198812
v 0.658905 0.050000 0.244606
v 0.674396 0.069849 0.252843
v 0.647197 0.070000 0.261032
v 0.501095 0.050000 0.115394
v 0.485604 0.069849 0.107157
v 0.512803 0.070000 0.098968
v 0.587221 1.000151 0.161188
v 0.591557 1.000151 0.163494
v 0.598779 0.857101 0.144682
v 0.677684 0.050000 0.209288
v 0.684754 0.070000 0.190396
v 0.693175 0.069849 0.217525
vn -0.8108 -0.5271 0.2546
vn -0.4649 0.1385 0.8744
vn 0.2423 -0.5271 0.8145
vn -0.2423 -0.5271 -0.8145
vn 0.4649 0.1385 -0.8744
vn 0.8108 -0.5271 -0.2546
vn -0.9516 0.0868 0.2949
vn -0.3320 -0.7071 0.6243
vn 0.2876 0.0868 0.9538
vn 0.3320 -0.7071 -0.6243
vn -0.2876 0.0868 -0.9538
vn 0.9516 0.0868 -0.2949
vn -0.6616 -0.6623 -0.3518
vn -0.0000 1.0000 -0.0000
vn 0.6616 -0.6623 0.3518
vn -0.8763 0.1228 -0.4659
vn -0.4695 -0.0000 0.8829
vn -0.0000 -1.0000 -0.0000
vn 0.8763 0.1228 0.4659
vn 0.4695 -0.0000 -0.8829
s 0
g Ambrosia_Leaf.001_MAT_ClothGreen
usemtl MAT_ClothGreen
f 165//225 166//225 167//225
f 168//226 169//226 170//226
f 171//227 172//227 173//227
f 174//228 175//228 176//228
f 177//229 178//229 179//229
f 180//230 181//230 182//230
f 169//231 165//231 167//231
f 171//232 167//232 166//232
f 169//233 172//233 170//233
f 181//234 174//234 176//234
f 175//235 179//235 176//235
f 182//236 179//236 178//236
f 175//237 166//237 165//237
f 178//238 168//238 170//238
f 180//239 172//239 171//239
f 168//240 175//240 165//240
f 167//241 173//241 169//241
f 166//242 180//242 171//242
f 172//243 178//243 170//243
f 176//244 179//244 181//244
f 169//231 168//231 165//231
f 171//232 173//232 167//232
f 169//233 173//233 172//233
f 181//234 180//234 174//234
f 175//235 177//235 179//235
f 182//236 181//236 179//236
f 175//237 174//237 166//237
f 178//238 177//238 168//238
f 180//239 182//239 172//239
f 168//240 177//240 175//240
f 166//242 174//242 180//242
f 172//243 182//243 178//243
g Ambrosia_Rim.001_Mesh
v 0.850000 -0.120000 0.000000
v 0.780000 -0.050000 0.000000
v 0.710000 -0.120000 0.000000
v 0.780000 -0.190000 0.000000
v 0.785298 -0.120000 -0.325281
v 0.720626 -0.050000 -0.298493
v 0.655954 -0.120000 -0.271705
v 0.720626 -0.190000 -0.298493
v 0.601041 -0.120000 -0.601041
v 0.551543 -0.050000 -0.551543
v 0.502046 -0.120000 -0.502046
v 0.551543 -0.190000 -0.551543
v 0.325281 -0.120000 -0.785298
v 0.298493 -0.050000 -0.720626
v 0.271705 -0.120000 -0.655954
v 0.298493 -0.190000 -0.720626
v 0.000000 -0.120000 -0.850000
v 0.000000 -0.050000 -0.780000
v 0.000000 -0.120000 -0.710000
v 0.000000 -0.190000 -0.780000
v -0.325281 -0.120000 -0.785298
v -0.298493 -0.050000 -0.720626
v -0.271705 -0.120000 -0.655954
v -0.298493 -0.190000 -0.720626
v -0.601041 -0.120000 -0.601041
v -0.551543 -0.050000 -0.551543
v -0.502046 -0.120000 -0.502046
v -0.551543 -0.190000 -0.551543
v -0.785298 -0.120000 -0.325281
v -0.720626 -0.050000 -0.298493
v -0.655954 -0.120000 -0.271705
v -0.720626 -0.190000 -0.298493
v -0.850000 -0.120000 -0.000000
v -0.780000 -0.050000 -0.000000
v -0.710000 -0.120000 -0.000000
v -0.780000 -0.190000 -0.000000
v -0.785298 -0.120000 0.325281
v -0.720626 -0.050000 0.298493
v -0.655955 -0.120000 0.271705
v -0.720626 -0.190000 0.298493
v -0.601041 -0.120000 0.601041
v -0.551543 -0.050000 0.551543
v -0.502046 -0.120000 0.502046
v -0.551543 -0.190000 0.551543
v -0.325281 -0.120000 0.785298
v -0.298493 -0.050000 0.720626
v -0.271705 -0.120000 0.655954
v -0.298493 -0.190000 0.720626
v 0.000000 -0.120000 0.850000
v 0.000000 -0.050000 0.780000
v 0.000000 -0.120000 0.710000
v 0.000000 -0.190000 0.780000
v 0.325281 -0.120000 0.785298
v 0.298493 -0.050000 0.720626
v 0.271705 -0.120000 0.655954
v 0.298493 -0.190000 0.720626
v 0.601040 -0.120000 0.601041
v 0.551543 -0.050000 0.551544
v 0.502046 -0.120000 0.502046
v 0.551543 -0.190000 0.551544
v 0.785297 -0.120000 0.325281
v 0.720626 -0.050000 0.298493
v 0.655954 -0.120000 0.271706
v 0.720626 -0.190000 0.298493
vn 0.7002 0.7002 -0.1393
vn -0.7002 0.7002 0.1393
vn -0.7002 -0.7002 0.1393
vn 0.7002 -0.7002 -0.1393
vn 0.5936 0.7002 -0.3966
vn -0.5936 0.7002 0.3966
vn -0.5936 -0.7002 0.3966
vn 0.5936 -0.7002 -0.3966
vn 0.3966 0.7002 -0.5936
vn -0.3966 0.7002 0.5936
vn -0.3966 -0.7002 0.5936
vn 0.3966 -0.7002 -0.5936
vn 0.1393 0.7002 -0.7002
vn -0.1393 0.7002 0.7002
vn -0.1393 -0.7002 0.7002
vn 0.1393 -0.7002 -0.7002
vn -0.1393 0.7002 -0.7002
vn 0.1393 0.7002 0.7002
vn 0.1393 -0.7002 0.7002
vn -0.1393 -0.7002 -0.7002
vn -0.3966 0.7002 -0.5936
vn 0.3966 0.7002 0.5936
vn 0.3966 -0.7002 0.5936
vn -0.3966 -0.7002 -0.5936
vn -0.5936 0.7002 -0.3966
vn 0.5936 0.7002 0.3966
vn 0.5936 -0.7002 0.3966
vn -0.5936 -0.7002 -0.3966
vn -0.7002 0.7002 -0.1393
vn 0.7002 0.7002 0.1393
vn 0.7002 -0.7002 0.1393
vn -0.7002 -0.7002 -0.1393
vt 0.562500 0.500000
vt 0.500000 0.750000
vt 0.500000 0.500000
vt 0.562500 0.750000
vt 0.500000 1.000000
vt 0.562500 0.000000
vt 0.500000 0.250000
vt 0.500000 0.000000
vt 0.562500 0.250000
vt 0.625000 0.750000
vt 0.562500 1.000000
vt 0.625000 0.000000
vt 0.625000 0.250000
vt 0.625000 0.500000
vt 0.687500 0.750000
vt 0.625000 1.000000
vt 0.687500 0.000000
vt 0.687500 0.250000
vt 0.750000 0.500000
vt 0.687500 0.500000
vt 0.750000 0.750000
vt 0.687500 1.000000
vt 0.750000 0.000000
vt 0.750000 0.250000
vt 0.812500 0.500000
vt 0.812500 0.750000
vt 0.750000 1.000000
vt 0.812500 0.000000
vt 0.812500 0.250000
vt 0.875000 0.500000
vt 0.875000 0.750000
vt 0.812500 1.000000
vt 0.875000 0.000000
vt 0.937500 0.500000
vt 0.937500 1.000000
vt 0.875000 1.000000
vt 0.937500 0.250000
vt 0.875000 0.250000
vt 1.000000 0.500000
vt 0.937500 0.750000
vt 1.000000 0.750000
vt 1.000000 0.000000
vt 0.937500 0.000000
vt 1.000000 0.250000
vt 0.000000 0.500000
vt 0.062500 0.750000
vt 0.000000 0.750000
vt 0.062500 1.000000
vt 0.000000 1.000000
vt 0.062500 0.000000
vt 0.000000 0.250000
vt 0.000000 0.000000
vt 0.062500 0.500000
vt 0.125000 0.500000
vt 0.125000 0.750000
vt 0.125000 0.000000
vt 0.062500 0.250000
vt 0.125000 0.250000
vt 0.187500 0.750000
vt 0.187500 1.000000
vt 0.125000 1.000000
vt 0.187500 0.000000
vt 0.187500 0.250000
vt 0.250000 0.500000
vt 0.187500 0.500000
vt 0.250000 0.750000
vt 0.250000 0.000000
vt 0.250000 0.250000
vt 0.312500 0.500000
vt 0.312500 0.750000
vt 0.250000 1.000000
vt 0.312500 0.000000
vt 0.312500 0.250000
vt 0.375000 0.500000
vt 0.375000 0.750000
vt 0.312500 1.000000
vt 0.375000 0.000000
vt 0.375000 0.250000
vt 0.437500 0.500000
vt 0.437500 0.750000
vt 0.375000 1.000000
vt 0.437500 0.000000
vt 0.437500 0.250000
vt 0.437500 1.000000
vt 1.000000 1.000000
s 0
g Ambrosia_Rim.001_MAT_Pearl
usemtl MAT_Pearl
f 187/285/245 184/286/245 183/287/245
f 188/288/246 185/289/246 184/286/246
f 189/290/247 186/291/247 185/292/247
f 190/293/248 183/287/248 186/291/248
f 187/285/249 192/294/249 188/288/249
f 192/294/250 189/295/250 188/288/250
f 193/296/251 190/293/251 189/290/251
f 194/297/252 187/285/252 190/293/252
f 191/298/253 196/299/253 192/294/253
f 196/299/254 193/300/254 192/294/254
f 197/301/255 194/297/255 193/296/255
f 198/302/256 191/298/256 194/297/256
f 199/303/257 196/299/257 195/304/257
f 200/305/258 197/306/258 196/299/258
f 201/307/259 198/302/259 197/301/259
f 202/308/260 195/304/260 198/302/260
f 203/309/261 200/305/261 199/303/261
f 204/310/262 201/311/262 200/305/262
f 205/312/263 202/308/263 201/307/263
f 206/313/264 199/303/264 202/308/264
f 207/314/265 204/310/265 203/309/265
f 208/315/266 205/316/266 204/310/266
f 209/317/267 206/313/267 205/312/267
f 206/313/268 207/314/268 203/309/268
f 211/318/269 208/315/269 207/314/269
f 208/315/270 213/319/270 209/320/270
f 209/317/271 214/321/271 210/322/271
f 214/321/272 207/314/272 210/322/272
f 215/323/273 212/324/273 211/318/273
f 216/325/274 213/319/274 212/324/274
f 217/326/275 214/321/275 213/327/275
f 218/328/276 211/318/276 214/321/276
f 215/329/246 220/330/246 216/331/246
f 216/331/245 221/332/245 217/333/245
f 221/334/248 218/335/248 217/336/248
f 218/335/247 219/337/247 215/329/247
f 223/338/250 220/330/250 219/337/250
f 224/339/249 221/332/249 220/330/249
f 225/340/252 222/341/252 221/334/252
f 226/342/251 219/337/251 222/341/251
f 223/338/254 228/343/254 224/339/254
f 224/339/253 229/344/253 225/345/253
f 229/346/256 226/342/256 225/340/256
f 230/347/255 223/338/255 226/342/255
f 231/348/258 228/343/258 227/349/258
f 232/350/257 229/344/257 228/343/257
f 233/351/260 230/347/260 229/346/260
f 234/352/259 227/349/259 230/347/259
f 235/353/262 232/350/262 231/348/262
f 236/354/261 233/355/261 232/350/261
f 237/356/264 234/352/264 233/351/264
f 238/357/263 231/348/263 234/352/263
f 239/358/266 236/354/266 235/353/266
f 240/359/265 237/360/265 236/354/265
f 241/361/268 238/357/268 237/356/268
f 242/362/267 235/353/267 238/357/267
f 243/363/270 240/359/270 239/358/270
f 244/364/269 241/365/269 240/359/269
f 245/366/272 242/362/272 241/361/272
f 246/367/271 239/358/271 242/362/271
f 183/287/274 244/364/274 243/363/274
f 244/364/273 185/289/273 245/368/273
f 185/292/276 246/367/276 245/366/276
f 246/367/275 183/287/275 243/363/275
f 187/285/245 188/288/245 184/286/245
f 188/288/246 189/295/246 185/289/246
f 189/290/247 190/293/247 186/291/247
f 190/293/248 187/285/248 183/287/248
f 187/285/249 191/298/249 192/294/249
f 192/294/250 193/300/250 189/295/250
f 193/296/251 194/297/251 190/293/251
f 194/297/252 191/298/252 187/285/252
f 191/298/253 195/304/253 196/299/253
f 196/299/254 197/306/254 193/300/254
f 197/301/255 198/302/255 194/297/255
f 198/302/256 195/304/256 191/298/256
f 199/303/257 200/305/257 196/299/257
f 200/305/258 201/311/258 197/306/258
f 201/307/259 202/308/259 198/302/259
f 202/308/260 199/303/260 195/304/260
f 203/309/261 204/310/261 200/305/261
f 204/310/262 205/316/262 201/311/262
f 205/312/263 206/313/263 202/308/263
f 206/313/264 203/309/264 199/303/264
f 207/314/265 208/315/265 204/310/265
f 208/315/266 209/320/266 205/316/266
f 209/317/267 210/322/267 206/313/267
f 206/313/268 210/322/268 207/314/268
f 211/318/269 212/324/269 208/315/269
f 208/315/270 212/324/270 213/319/270
f 209/317/271 213/327/271 214/321/271
f 214/321/272 211/318/272 207/314/272
f 215/323/273 216/325/273 212/324/273
f 216/325/274 217/369/274 213/319/274
f 217/326/275 218/328/275 214/321/275
f 218/328/276 215/323/276 211/318/276
f 215/329/246 219/337/246 220/330/246
f 216/331/245 220/330/245 221/332/245
f 221/334/248 222/341/248 218/335/248
f 218/335/247 222/341/247 219/337/247
f 223/338/250 224/339/250 220/330/250
f 224/339/249 225/345/249 221/332/249
f 225/340/252 226/342/252 222/341/252
f 226/342/251 223/338/251 219/337/251
f 223/338/254 227/349/254 228/343/254
f 224/339/253 228/343/253 229/344/253
f 229/346/256 230/347/256 226/342/256
f 230/347/255 227/349/255 223/338/255
f 231/348/258 232/350/258 228/343/258
f 232/350/257 233/355/257 229/344/257
f 233/351/260 234/352/260 230/347/260
f 234/352/259 231/348/259 227/349/259
f 235/353/262 236/354/262 232/350/262
f 236/354/261 237/360/261 233/355/261
f 237/356/264 238/357/264 234/352/264
f 238/357/263 235/353/263 231/348/263
f 239/358/266 240/359/266 236/354/266
f 240/359/265 241/365/265 237/360/265
f 241/361/268 242/362/268 238/357/268
f 242/362/267 239/358/267 235/353/267
f 243/363/270 244/364/270 240/359/270
f 244/364/269 245/368/269 241/365/269
f 245/366/272 246/367/272 242/362/272
f 246/367/271 243/363/271 239/358/271
f 183/287/274 184/286/274 244/364/274
f 244/364/273 184/286/273 185/289/273
f 185/292/276 186/291/276 246/367/276
f 246/367/275 186/291/275 183/287/275
