# Blender 5.2.2 LTS
# www.blender.org
mtllib antidote.mtl
g A_Flask.001_A_Flask.001
v 0.000000 0.020000 0.000000
v 0.253000 0.023000 0.000000
v 0.233742 0.023000 -0.096819
v 0.178898 0.023000 -0.178898
v 0.096819 0.023000 -0.233742
v 0.000000 0.023000 -0.253000
v -0.096819 0.023000 -0.233742
v -0.178898 0.023000 -0.178898
v -0.233742 0.023000 -0.096819
v -0.253000 0.023000 -0.000000
v -0.233742 0.023000 0.096819
v -0.178898 0.023000 0.178898
v -0.096819 0.023000 0.233742
v -0.000000 0.023000 0.253000
v 0.096819 0.023000 0.233742
v 0.178898 0.023000 0.178898
v 0.233742 0.023000 0.096819
v 0.143750 1.892207 0.218435
v 0.287500 0.115000 0.000000
v 0.265615 0.115000 -0.110021
v 0.203293 0.115000 -0.203293
v 0.143750 1.892207 -0.218435
v 0.110021 0.115000 -0.265615
v 0.000000 0.115000 -0.287500
v -0.110021 0.115000 -0.265615
v -0.203293 0.115000 -0.203293
v -0.265615 0.115000 -0.110021
v -0.287500 0.115000 -0.000000
v -0.265615 0.115000 0.110021
v -0.203293 0.115000 0.203293
v -0.110021 0.115000 0.265615
v -0.000000 0.115000 0.287500
v 0.110021 0.115000 0.265615
v 0.203293 0.115000 0.203293
v 0.265615 0.115000 0.110021
v 0.110021 2.070000 -0.265615
v 0.000000 2.070000 -0.287500
v -0.110021 2.070000 -0.265615
v -0.203293 2.070000 -0.203293
v -0.265615 2.070000 -0.110021
v -0.287500 2.070000 -0.000000
v -0.265615 2.070000 0.110021
v -0.203293 2.070000 0.203293
v -0.110021 2.070000 0.265615
v -0.000000 2.070000 0.287500
v 0.110021 2.070000 0.265615
v 0.096819 2.162000 -0.233742
v 0.000000 2.162000 -0.253000
v -0.096819 2.162000 -0.233742
v -0.178898 2.162000 -0.178898
v -0.233742 2.162000 -0.096819
v -0.253000 2.162000 -0.000000
v -0.233742 2.162000 0.096819
v -0.178898 2.162000 0.178898
v -0.096819 2.162000 0.233742
v -0.000000 2.162000 0.253000
v 0.096819 2.162000 0.233742
v 0.138239 2.208000 -0.138239
v 0.074815 2.208000 -0.180618
v 0.000000 2.208000 -0.195500
v -0.074815 2.208000 -0.180618
v -0.138239 2.208000 -0.138239
v -0.180618 2.208000 -0.074815
v -0.195500 2.208000 -0.000000
v -0.180618 2.208000 0.074815
v -0.138239 2.208000 0.138239
v -0.074815 2.208000 0.180618
v -0.000000 2.208000 0.195500
v 0.074815 2.208000 0.180618
v 0.138239 2.208000 0.138239
v 0.138239 2.346000 -0.138239
v 0.074815 2.346000 -0.180618
v 0.000000 2.346000 -0.195500
v -0.074815 2.346000 -0.180618
v -0.138239 2.346000 -0.138239
v -0.180618 2.346000 -0.074815
v -0.195500 2.346000 -0.000000
v -0.180618 2.346000 0.074815
v -0.138239 2.346000 0.138239
v -0.074815 2.346000 0.180618
v -0.000000 2.346000 0.195500
v 0.074815 2.346000 0.180618
v 0.138239 2.346000 0.138239
v 0.138120 2.380500 -0.057211
v 0.105712 2.380500 -0.105712
v 0.057211 2.380500 -0.138120
v 0.000000 2.380500 -0.149500
v -0.057211 2.380500 -0.138120
v -0.105712 2.380500 -0.105712
v -0.138120 2.380500 -0.057211
v -0.149500 2.380500 -0.000000
v -0.138120 2.380500 0.057211
v -0.105712 2.380500 0.105712
v -0.057211 2.380500 0.138120
v -0.000000 2.380500 0.149500
v 0.057211 2.380500 0.138120
v 0.105712 2.380500 0.105712
v 0.138120 2.380500 0.057211
v 0.000000 0.070004 0.000000
v 0.215051 0.071273 0.000000
v 0.198681 0.071273 -0.082296
v 0.152064 0.071273 -0.152064
v 0.082296 0.071273 -0.198681
v 0.000000 0.071273 -0.215051
v -0.082296 0.071273 -0.198681
v -0.152064 0.071273 -0.152064
v -0.198681 0.071273 -0.082296
v -0.215051 0.071273 -0.000000
v -0.198681 0.071273 0.082296
v -0.152064 0.071273 0.152064
v -0.082296 0.071273 0.198681
v -0.000000 0.071273 0.215051
v 0.082296 0.071273 0.198681
v 0.152064 0.071273 0.152064
v 0.198681 0.071273 0.082296
v 0.236545 0.124038 0.000000
v 0.218540 0.124038 -0.090522
v 0.167263 0.124038 -0.167263
v 0.090522 0.124038 -0.218540
v 0.000000 0.124038 -0.236545
v -0.090522 0.124038 -0.218540
v -0.167263 0.124038 -0.167263
v -0.218540 0.124038 -0.090522
v -0.236545 0.124038 -0.000000
v -0.218540 0.124038 0.090522
v -0.167263 0.124038 0.167263
v -0.090522 0.124038 0.218540
v -0.000000 0.124038 0.236545
v 0.090522 0.124038 0.218540
v 0.167263 0.124038 0.167263
v 0.218540 0.124038 0.090522
v 0.090522 2.060961 -0.218540
v 0.000000 2.060961 -0.236546
v -0.090522 2.060961 -0.218540
v -0.167263 2.060961 -0.167263
v -0.218540 2.060961 -0.090522
v -0.236546 2.060961 -0.000000
v -0.218540 2.060961 0.090522
v -0.167263 2.060961 0.167263
v -0.090522 2.060961 0.218540
v -0.000000 2.060961 0.236546
v 0.090522 2.060961 0.218540
v 0.080332 2.131968 -0.193939
v 0.000000 2.131968 -0.209918
v -0.080332 2.131968 -0.193939
v -0.148434 2.131968 -0.148434
v -0.193939 2.131968 -0.080332
v -0.209918 2.131968 -0.000000
v -0.193939 2.131968 0.080332
v -0.148434 2.131968 0.148434
v -0.080332 2.131968 0.193939
v -0.000000 2.131968 0.209918
v 0.080332 2.131968 0.193939
v 0.134307 2.182338 -0.055632
v 0.102794 2.182338 -0.102794
v 0.055632 2.182338 -0.134307
v 0.000000 2.182338 -0.145373
v -0.055632 2.182338 -0.134307
v -0.102794 2.182338 -0.102794
v -0.134307 2.182338 -0.055632
v -0.145373 2.182338 -0.000000
v -0.134307 2.182338 0.055632
v -0.102794 2.182338 0.102794
v -0.055632 2.182338 0.134307
v -0.000000 2.182338 0.145373
v 0.055632 2.182338 0.134307
v 0.102794 2.182338 0.102794
v 0.134307 2.182338 0.055632
v 0.133251 2.321833 -0.055194
v 0.101986 2.321833 -0.101986
v 0.055194 2.321833 -0.133251
v 0.000000 2.321833 -0.144229
v -0.055194 2.321833 -0.133251
v -0.101986 2.321833 -0.101986
v -0.133251 2.321833 -0.055194
v -0.144229 2.321833 -0.000000
v -0.133251 2.321833 0.055194
v -0.101986 2.321833 0.101986
v -0.055194 2.321833 0.133251
v -0.000000 2.321833 0.144229
v 0.055194 2.321833 0.133251
v 0.101986 2.321833 0.101986
v 0.133251 2.321833 0.055194
v 0.119287 2.340216 0.000000
v 0.110207 2.340216 -0.045649
v 0.084349 2.340216 -0.084349
v 0.045649 2.340216 -0.110207
v 0.000000 2.340216 -0.119287
v -0.045649 2.340216 -0.110207
v -0.084349 2.340216 -0.084349
v -0.110207 2.340216 -0.045649
v -0.119287 2.340216 -0.000000
v -0.110207 2.340216 0.045649
v -0.084349 2.340216 0.084349
v -0.045649 2.340216 0.110207
v -0.000000 2.340216 0.119287
v 0.045649 2.340216 0.110207
v 0.084349 2.340216 0.084349
v 0.110207 2.340216 0.045649
v 0.265615 1.758303 -0.110021
v 0.270904 1.725465 -0.083435
v 0.287500 1.725465 0.000000
v 0.203293 1.873505 -0.203293
v 0.143750 2.021146 -0.243079
v 0.143750 2.070000 -0.243079
v 0.180633 1.892207 -0.218435
v 0.203293 1.873505 0.203293
v 0.180633 1.892207 0.218435
v 0.143750 2.021146 0.243079
v 0.143750 2.070000 0.243079
v 0.265615 1.758303 0.110021
v 0.270904 1.725465 0.083435
v 0.143750 2.162000 -0.202383
v 0.143750 2.162000 0.202383
v 0.143750 2.201765 -0.143750
v 0.143750 2.208000 -0.129992
v 0.143750 2.201765 0.143750
v 0.143750 2.208000 0.129992
v 0.143750 2.346000 -0.129992
v 0.143750 2.346000 0.129992
v 0.143750 2.375930 -0.059543
v 0.143750 2.380500 -0.028907
v 0.143750 2.375930 0.059543
v 0.143750 2.380500 0.028907
v 0.236546 1.725465 0.000000
v 0.219949 1.725465 -0.083435
v 0.218540 1.734219 -0.090522
v 0.167263 1.829003 -0.167263
v 0.143750 1.848408 -0.182974
v 0.143750 2.060961 -0.182974
v 0.143750 1.848408 0.182974
v 0.143750 2.060961 0.182974
v 0.167263 1.829003 0.167263
v 0.218540 1.734219 0.090522
v 0.219949 1.725465 0.083435
v 0.143750 2.131968 -0.151564
v 0.143750 2.131968 0.151564
v 0.143750 2.182338 -0.008160
v 0.143750 2.174362 -0.059543
v 0.143750 2.137138 -0.143750
v 0.143750 2.137138 0.143750
v 0.143750 2.174362 0.059543
v 0.143750 2.182338 0.008160
v 0.143750 2.321833 -0.002410
v 0.143750 2.321833 0.002410
v 0.143750 2.322186 0.000000
v 0.143750 2.372833 0.000000
vn 0.0119 -0.9999 -0.0024
vn 0.0101 -0.9999 -0.0067
vn 0.0067 -0.9999 -0.0101
vn 0.0024 -0.9999 -0.0119
vn -0.0024 -0.9999 -0.0119
vn -0.0067 -0.9999 -0.0101
vn -0.0101 -0.9999 -0.0067
vn -0.0119 -0.9999 -0.0024
vn -0.0119 -0.9999 0.0024
vn -0.0101 -0.9999 0.0067
vn -0.0067 -0.9999 0.0101
vn -0.0024 -0.9999 0.0119
vn 0.0024 -0.9999 0.0119
vn 0.0067 -0.9999 0.0101
vn 0.0101 -0.9999 0.0067
vn 0.0119 -0.9999 0.0024
vn 0.9205 -0.3452 -0.1831
vn 0.7804 -0.3452 -0.5214
vn 0.5214 -0.3452 -0.7804
vn 0.1831 -0.3452 -0.9205
vn -0.1831 -0.3452 -0.9205
vn -0.5214 -0.3452 -0.7804
vn -0.7804 -0.3452 -0.5214
vn -0.9205 -0.3452 -0.1831
vn -0.9205 -0.3452 0.1831
vn -0.7804 -0.3452 0.5214
vn -0.5214 -0.3452 0.7804
vn -0.1831 -0.3452 0.9205
vn 0.1831 -0.3452 0.9205
vn 0.5214 -0.3452 0.7804
vn 0.7804 -0.3452 0.5214
vn 0.9205 -0.3452 0.1831
vn 0.9808 -0.0000 -0.1951
vn 0.8315 -0.0000 -0.5556
vn 0.5556 -0.0000 -0.8315
vn 0.1951 -0.0000 -0.9808
vn -0.1951 -0.0000 -0.9808
vn -0.5556 -0.0000 -0.8315
vn -0.8315 -0.0000 -0.5556
vn -0.9808 -0.0000 -0.1951
vn -0.9808 -0.0000 0.1951
vn -0.8315 -0.0000 0.5556
vn -0.5556 -0.0000 0.8315
vn -0.1951 -0.0000 0.9808
vn 0.1951 -0.0000 0.9808
vn 0.5556 -0.0000 0.8315
vn 0.8315 -0.0000 0.5556
vn 0.9808 -0.0000 0.1951
vn 0.5214 0.3452 -0.7804
vn 0.1831 0.3452 -0.9205
vn -0.1831 0.3452 -0.9205
vn -0.5214 0.3452 -0.7804
vn -0.7804 0.3452 -0.5214
vn -0.9205 0.3452 -0.1831
vn -0.9205 0.3452 0.1831
vn -0.7804 0.3452 0.5214
vn -0.5214 0.3452 0.7804
vn -0.1831 0.3452 0.9205
vn 0.1831 0.3452 0.9205
vn 0.5214 0.3452 0.7804
vn 0.5255 0.7749 -0.3512
vn 0.3512 0.7749 -0.5255
vn 0.1233 0.7749 -0.6199
vn -0.1233 0.7749 -0.6199
vn -0.3512 0.7749 -0.5255
vn -0.5255 0.7749 -0.3512
vn -0.6199 0.7749 -0.1233
vn -0.6199 0.7749 0.1233
vn -0.5256 0.7749 0.3512
vn -0.3512 0.7749 0.5255
vn -0.1233 0.7749 0.6199
vn 0.1233 0.7749 0.6199
vn 0.3512 0.7749 0.5255
vn 0.5255 0.7749 0.3512
vn 0.5958 0.7943 -0.1185
vn 0.5051 0.7944 -0.3375
vn 0.3375 0.7944 -0.5051
vn 0.1185 0.7944 -0.5958
vn -0.1185 0.7944 -0.5958
vn -0.3375 0.7944 -0.5051
vn -0.5051 0.7944 -0.3375
vn -0.5958 0.7944 -0.1185
vn -0.5958 0.7944 0.1185
vn -0.5051 0.7944 0.3375
vn -0.3375 0.7944 0.5051
vn -0.1185 0.7944 0.5958
vn 0.1185 0.7944 0.5958
vn 0.3375 0.7944 0.5051
vn 0.5051 0.7944 0.3375
vn 0.5958 0.7943 0.1185
vn -0.0059 1.0000 0.0012
vn -0.0050 1.0000 0.0033
vn -0.0033 1.0000 0.0050
vn -0.0012 1.0000 0.0059
vn 0.0012 1.0000 0.0059
vn 0.0033 1.0000 0.0050
vn 0.0050 1.0000 0.0033
vn 0.0059 1.0000 0.0012
vn 0.0059 1.0000 -0.0012
vn 0.0050 1.0000 -0.0033
vn 0.0033 1.0000 -0.0050
vn 0.0012 1.0000 -0.0059
vn -0.0012 1.0000 -0.0059
vn -0.0033 1.0000 -0.0050
vn -0.0050 1.0000 -0.0033
vn -0.0059 1.0000 -0.0012
vn -0.9108 0.3710 0.1812
vn -0.7721 0.3710 0.5159
vn -0.5159 0.3710 0.7721
vn -0.1812 0.3710 0.9108
vn 0.1812 0.3710 0.9108
vn 0.5159 0.3710 0.7721
vn 0.7721 0.3710 0.5159
vn 0.9108 0.3710 0.1812
vn 0.9108 0.3710 -0.1812
vn 0.7721 0.3710 -0.5159
vn 0.5159 0.3710 -0.7721
vn 0.1812 0.3710 -0.9108
vn -0.1812 0.3710 -0.9108
vn -0.5159 0.3710 -0.7721
vn -0.7721 0.3710 -0.5159
vn -0.9108 0.3710 -0.1812
vn -0.6107 -0.7825 0.1215
vn -0.5177 -0.7825 0.3459
vn -0.3459 -0.7825 0.5177
vn -0.1215 -0.7825 0.6107
vn 0.1215 -0.7825 0.6107
vn 0.3459 -0.7825 0.5177
vn 0.5177 -0.7825 0.3459
vn 0.6107 -0.7825 0.1215
vn 0.6107 -0.7825 -0.1215
vn 0.5177 -0.7825 -0.3459
vn 0.3459 -0.7825 -0.5177
vn 0.1215 -0.7825 -0.6107
vn -0.1215 -0.7825 -0.6107
vn -0.3459 -0.7825 -0.5177
vn -0.5177 -0.7825 -0.3459
vn -0.6107 -0.7825 -0.1215
vn -0.9808 -0.0080 0.1951
vn -0.8314 -0.0080 0.5556
vn -0.5556 -0.0080 0.8314
vn -0.1951 -0.0080 0.9808
vn 0.1951 -0.0080 0.9808
vn 0.5556 -0.0080 0.8314
vn 0.8314 -0.0080 0.5556
vn 0.9808 -0.0080 0.1951
vn 0.9808 -0.0080 -0.1951
vn 0.8314 -0.0080 -0.5556
vn 0.5556 -0.0080 -0.8314
vn 0.1951 -0.0080 -0.9808
vn -0.1951 -0.0080 -0.9808
vn -0.5556 -0.0080 -0.8314
vn -0.8314 -0.0080 -0.5556
vn -0.9808 -0.0080 -0.1951
vn -0.5892 -0.7994 0.1172
vn -0.4995 -0.7994 0.3338
vn -0.3338 -0.7994 0.4995
vn -0.1172 -0.7994 0.5892
vn 0.1172 -0.7994 0.5892
vn 0.3338 -0.7994 0.4995
vn 0.4995 -0.7994 0.3338
vn 0.5892 -0.7994 0.1172
vn 0.5892 -0.7994 -0.1172
vn 0.4995 -0.7994 -0.3338
vn 0.3338 -0.7994 -0.4995
vn 0.1172 -0.7994 -0.5892
vn -0.1172 -0.7994 -0.5892
vn -0.3338 -0.7994 -0.4995
vn -0.4995 -0.7994 -0.3338
vn -0.5892 -0.7994 -0.1172
vn -0.7901 0.5926 0.1572
vn -0.6698 0.5925 0.4475
vn -0.4475 0.5925 0.6698
vn -0.1572 0.5925 0.7901
vn 0.1572 0.5925 0.7901
vn 0.4475 0.5925 0.6698
vn 0.6698 0.5925 0.4475
vn 0.7901 0.5925 0.1572
vn 0.7901 0.5925 -0.1572
vn 0.6698 0.5925 -0.4475
vn 0.4475 0.5925 -0.6698
vn 0.1572 0.5925 -0.7901
vn -0.1572 0.5925 -0.7901
vn -0.4475 0.5925 -0.6698
vn -0.6698 0.5925 -0.4475
vn -0.7901 0.5925 -0.1572
vn -0.0000 0.1877 -0.9822
vn -0.0000 0.6292 -0.7772
vn -0.0000 1.0000 -0.0000
vn -0.0000 0.6293 0.7772
vn -0.0000 0.1877 0.9822
vn 1.0000 -0.0000 -0.0000
vn 0.3512 0.7749 -0.5256
vn -0.5255 0.7749 0.3512
vn 0.3512 0.7749 0.5256
vn 0.5051 0.7943 0.3375
vn -0.5900 -0.7989 -0.1171
vn -0.7901 0.5925 0.1571
vn 0.7901 0.5925 0.1571
vn 0.7901 0.5925 -0.1571
vn -0.7901 0.5925 -0.1571
vn -0.0000 0.6293 -0.7772
vn -0.0000 0.6292 0.7772
s 0
g A_Flask.001_antidote_glass
usemtl antidote_glass
f 1//1 3//1 2//1
f 1//2 4//2 3//2
f 1//3 5//3 4//3
f 1//4 6//4 5//4
f 1//5 7//5 6//5
f 1//6 8//6 7//6
f 1//7 9//7 8//7
f 1//8 10//8 9//8
f 1//9 11//9 10//9
f 1//10 12//10 11//10
f 1//11 13//11 12//11
f 1//12 14//12 13//12
f 1//13 15//13 14//13
f 1//14 16//14 15//14
f 1//15 17//15 16//15
f 1//16 2//16 17//16
f 3//17 19//17 2//17
f 3//18 21//18 20//18
f 5//19 21//19 4//19
f 6//20 23//20 5//20
f 7//21 24//21 6//21
f 7//22 26//22 25//22
f 9//23 26//23 8//23
f 10//24 27//24 9//24
f 11//25 28//25 10//25
f 11//26 30//26 29//26
f 13//27 30//27 12//27
f 14//28 31//28 13//28
f 15//29 32//29 14//29
f 15//30 34//30 33//30
f 17//31 34//31 16//31
f 2//32 35//32 17//32
f 19//33 200//33 201//33
f 200//34 21//34 203//34
f 21//35 36//35 204//35
f 24//36 36//36 23//36
f 25//37 37//37 24//37
f 26//38 38//38 25//38
f 27//39 39//39 26//39
f 28//40 40//40 27//40
f 29//41 41//41 28//41
f 30//42 42//42 29//42
f 31//43 43//43 30//43
f 32//44 44//44 31//44
f 33//45 45//45 32//45
f 33//46 208//46 209//46
f 34//47 211//47 207//47
f 35//48 202//48 212//48
f 47//49 205//49 36//49
f 37//50 47//50 36//50
f 37//51 49//51 48//51
f 39//52 49//52 38//52
f 39//53 51//53 50//53
f 41//54 51//54 40//54
f 41//55 53//55 52//55
f 43//56 53//56 42//56
f 43//57 55//57 54//57
f 45//58 55//58 44//58
f 45//59 57//59 56//59
f 57//60 210//60 214//60
f 58//61 216//61 215//61
f 59//62 215//62 213//62
f 48//63 59//63 47//63
f 48//64 61//64 60//64
f 50//65 61//65 49//65
f 51//66 62//66 50//66
f 52//67 63//67 51//67
f 52//68 65//68 64//68
f 54//69 65//69 53//69
f 55//70 66//70 54//70
f 56//71 67//71 55//71
f 56//72 69//72 68//72
f 217//73 69//73 57//73
f 70//74 217//74 218//74
f 71//34 216//34 58//34
f 59//35 71//35 58//35
f 60//36 72//36 59//36
f 61//37 73//37 60//37
f 62//38 74//38 61//38
f 63//39 75//39 62//39
f 64//40 76//40 63//40
f 65//41 77//41 64//41
f 66//42 78//42 65//42
f 67//43 79//43 66//43
f 68//44 80//44 67//44
f 69//45 81//45 68//45
f 70//46 82//46 69//46
f 83//47 218//47 220//47
f 84//75 222//75 221//75
f 85//76 221//76 219//76
f 72//77 85//77 71//77
f 73//78 86//78 72//78
f 73//79 88//79 87//79
f 75//80 88//80 74//80
f 76//81 89//81 75//81
f 77//82 90//82 76//82
f 77//83 92//83 91//83
f 79//84 92//84 78//84
f 80//85 93//85 79//85
f 81//86 94//86 80//86
f 81//87 96//87 95//87
f 83//88 96//88 82//88
f 223//89 97//89 83//89
f 98//90 223//90 224//90
f 99//91 100//91 101//91
f 99//92 101//92 102//92
f 99//93 102//93 103//93
f 99//94 103//94 104//94
f 99//95 104//95 105//95
f 99//96 105//96 106//96
f 99//97 106//97 107//97
f 99//98 107//98 108//98
f 99//99 108//99 109//99
f 99//100 109//100 110//100
f 99//101 110//101 111//101
f 99//102 111//102 112//102
f 99//103 112//103 113//103
f 99//104 113//104 114//104
f 99//105 114//105 115//105
f 99//106 115//106 100//106
f 116//107 101//107 100//107
f 117//108 102//108 101//108
f 118//109 103//109 102//109
f 103//110 120//110 104//110
f 120//111 105//111 104//111
f 105//112 122//112 106//112
f 122//113 107//113 106//113
f 123//114 108//114 107//114
f 124//115 109//115 108//115
f 125//116 110//116 109//116
f 126//117 111//117 110//117
f 111//118 128//118 112//118
f 128//119 113//119 112//119
f 113//120 130//120 114//120
f 130//121 115//121 114//121
f 131//122 100//122 115//122
f 116//41 226//41 227//41
f 118//42 227//42 228//42
f 119//43 228//43 229//43
f 132//44 120//44 119//44
f 133//45 121//45 120//45
f 134//46 122//46 121//46
f 135//47 123//47 122//47
f 136//48 124//48 123//48
f 137//33 125//33 124//33
f 138//34 126//34 125//34
f 139//35 127//35 126//35
f 140//36 128//36 127//36
f 141//37 129//37 128//37
f 129//38 232//38 231//38
f 130//39 234//39 131//39
f 131//40 235//40 225//40
f 143//27 230//27 236//27
f 143//28 133//28 132//28
f 144//29 134//29 133//29
f 145//30 135//30 134//30
f 146//31 136//31 135//31
f 147//32 137//32 136//32
f 137//17 149//17 138//17
f 149//18 139//18 138//18
f 150//19 140//19 139//19
f 151//20 141//20 140//20
f 152//21 142//21 141//21
f 153//22 232//22 142//22
f 154//123 239//123 238//123
f 239//124 155//124 240//124
f 155//125 143//125 236//125
f 156//126 144//126 143//126
f 157//127 145//127 144//127
f 158//128 146//128 145//128
f 159//129 147//129 146//129
f 160//130 148//130 147//130
f 161//131 149//131 148//131
f 162//132 150//132 149//132
f 163//133 151//133 150//133
f 164//134 152//134 151//134
f 165//135 153//135 152//135
f 241//136 153//136 166//136
f 167//137 242//137 241//137
f 168//138 243//138 242//138
f 169//139 238//139 244//139
f 169//140 155//140 154//140
f 155//141 171//141 156//141
f 171//142 157//142 156//142
f 172//143 158//143 157//143
f 173//144 159//144 158//144
f 174//145 160//145 159//145
f 175//146 161//146 160//146
f 161//147 177//147 162//147
f 177//148 163//148 162//148
f 163//149 179//149 164//149
f 179//150 165//150 164//150
f 180//151 166//151 165//151
f 181//152 167//152 166//152
f 182//153 168//153 167//153
f 183//154 243//154 168//154
f 184//155 169//155 244//155
f 169//156 186//156 170//156
f 170//157 187//157 171//157
f 187//158 172//158 171//158
f 172//159 189//159 173//159
f 189//160 174//160 173//160
f 190//161 175//161 174//161
f 191//162 176//162 175//162
f 176//163 193//163 177//163
f 177//164 194//164 178//164
f 178//165 195//165 179//165
f 195//166 180//166 179//166
f 180//167 197//167 181//167
f 197//168 182//168 181//168
f 198//169 183//169 182//169
f 246//170 183//170 199//170
f 84//171 184//171 247//171
f 84//172 186//172 185//172
f 86//173 186//173 85//173
f 87//174 187//174 86//174
f 87//175 189//175 188//175
f 89//176 189//176 88//176
f 90//177 190//177 89//177
f 91//178 191//178 90//178
f 92//179 192//179 91//179
f 92//180 194//180 193//180
f 94//181 194//181 93//181
f 95//182 195//182 94//182
f 95//183 197//183 196//183
f 97//184 197//184 96//184
f 98//185 198//185 97//185
f 199//186 224//186 247//186
f 209//187 208//187 18//187
f 211//188 233//188 231//188
f 212//189 201//189 225//189
f 200//190 206//190 227//190
f 204//191 22//191 206//191
f 246//192 244//192 247//192
f 3//17 20//17 19//17
f 3//18 4//18 21//18
f 5//19 23//19 21//19
f 6//20 24//20 23//20
f 7//21 25//21 24//21
f 7//22 8//22 26//22
f 9//23 27//23 26//23
f 10//24 28//24 27//24
f 11//25 29//25 28//25
f 11//26 12//26 30//26
f 13//27 31//27 30//27
f 14//28 32//28 31//28
f 15//29 33//29 32//29
f 15//30 16//30 34//30
f 17//31 35//31 34//31
f 2//32 19//32 35//32
f 201//33 202//33 19//33
f 19//33 20//33 200//33
f 200//34 20//34 21//34
f 206//35 203//35 21//35
f 21//35 23//35 36//35
f 36//35 205//35 204//35
f 204//35 206//35 21//35
f 24//36 37//36 36//36
f 25//37 38//37 37//37
f 26//38 39//38 38//38
f 27//39 40//39 39//39
f 28//40 41//40 40//40
f 29//41 42//41 41//41
f 30//42 43//42 42//42
f 31//43 44//43 43//43
f 32//44 45//44 44//44
f 33//45 46//45 45//45
f 210//46 46//46 33//46
f 33//46 34//46 207//46
f 33//46 207//46 208//46
f 209//46 210//46 33//46
f 34//47 35//47 211//47
f 212//48 211//48 35//48
f 35//48 19//48 202//48
f 47//49 213//49 205//49
f 37//50 48//50 47//50
f 37//51 38//51 49//51
f 39//52 50//52 49//52
f 39//53 40//53 51//53
f 41//54 52//54 51//54
f 41//55 42//55 53//55
f 43//56 54//56 53//56
f 43//57 44//57 55//57
f 45//58 56//58 55//58
f 45//59 46//59 57//59
f 57//60 46//60 210//60
f 213//62 47//62 59//62
f 59//193 58//193 215//193
f 48//63 60//63 59//63
f 48//64 49//64 61//64
f 50//65 62//65 61//65
f 51//66 63//66 62//66
f 52//67 64//67 63//67
f 52//68 53//68 65//68
f 54//194 66//194 65//194
f 55//70 67//70 66//70
f 56//71 68//71 67//71
f 56//72 57//72 69//72
f 57//73 214//73 217//73
f 217//195 70//195 69//195
f 71//34 219//34 216//34
f 59//35 72//35 71//35
f 60//36 73//36 72//36
f 61//37 74//37 73//37
f 62//38 75//38 74//38
f 63//39 76//39 75//39
f 64//40 77//40 76//40
f 65//41 78//41 77//41
f 66//42 79//42 78//42
f 67//43 80//43 79//43
f 68//44 81//44 80//44
f 69//45 82//45 81//45
f 70//46 83//46 82//46
f 83//47 70//47 218//47
f 219//76 71//76 85//76
f 85//76 84//76 221//76
f 72//77 86//77 85//77
f 73//78 87//78 86//78
f 73//79 74//79 88//79
f 75//80 89//80 88//80
f 76//81 90//81 89//81
f 77//82 91//82 90//82
f 77//83 78//83 92//83
f 79//84 93//84 92//84
f 80//85 94//85 93//85
f 81//86 95//86 94//86
f 81//87 82//87 96//87
f 83//88 97//88 96//88
f 83//196 220//196 223//196
f 223//89 98//89 97//89
f 116//107 117//107 101//107
f 117//108 118//108 102//108
f 118//109 119//109 103//109
f 103//110 119//110 120//110
f 120//111 121//111 105//111
f 105//112 121//112 122//112
f 122//113 123//113 107//113
f 123//114 124//114 108//114
f 124//115 125//115 109//115
f 125//116 126//116 110//116
f 126//117 127//117 111//117
f 111//118 127//118 128//118
f 128//119 129//119 113//119
f 113//120 129//120 130//120
f 130//121 131//121 115//121
f 131//122 116//122 100//122
f 227//41 117//41 116//41
f 116//41 225//41 226//41
f 118//42 117//42 227//42
f 230//43 132//43 119//43
f 119//43 118//43 228//43
f 229//43 230//43 119//43
f 132//44 133//44 120//44
f 133//45 134//45 121//45
f 134//46 135//46 122//46
f 135//47 136//47 123//47
f 136//48 137//48 124//48
f 137//33 138//33 125//33
f 138//34 139//34 126//34
f 139//35 140//35 127//35
f 140//36 141//36 128//36
f 141//37 142//37 129//37
f 233//38 130//38 129//38
f 129//38 142//38 232//38
f 231//38 233//38 129//38
f 130//39 233//39 234//39
f 225//40 116//40 131//40
f 131//40 234//40 235//40
f 143//27 132//27 230//27
f 143//28 144//28 133//28
f 144//29 145//29 134//29
f 145//30 146//30 135//30
f 146//31 147//31 136//31
f 147//32 148//32 137//32
f 137//17 148//17 149//17
f 149//18 150//18 139//18
f 150//19 151//19 140//19
f 151//20 152//20 141//20
f 152//21 153//21 142//21
f 153//22 237//22 232//22
f 239//124 154//124 155//124
f 236//125 240//125 155//125
f 155//125 156//125 143//125
f 156//126 157//126 144//126
f 157//127 158//127 145//127
f 158//128 159//128 146//128
f 159//129 160//129 147//129
f 160//130 161//130 148//130
f 161//131 162//131 149//131
f 162//132 163//132 150//132
f 163//133 164//133 151//133
f 164//134 165//134 152//134
f 165//135 166//135 153//135
f 166//136 167//136 241//136
f 241//136 237//136 153//136
f 167//137 168//137 242//137
f 169//139 154//139 238//139
f 169//140 170//140 155//140
f 155//141 170//141 171//141
f 171//142 172//142 157//142
f 172//143 173//143 158//143
f 173//144 174//144 159//144
f 174//145 175//145 160//145
f 175//146 176//146 161//146
f 161//147 176//147 177//147
f 177//148 178//148 163//148
f 163//149 178//149 179//149
f 179//150 180//150 165//150
f 180//151 181//151 166//151
f 181//152 182//152 167//152
f 182//153 183//153 168//153
f 183//154 245//154 243//154
f 244//155 246//155 184//155
f 184//155 185//155 169//155
f 169//156 185//156 186//156
f 170//157 186//157 187//157
f 187//158 188//158 172//158
f 172//159 188//159 189//159
f 189//160 190//160 174//160
f 190//161 191//161 175//161
f 191//162 192//162 176//162
f 176//163 192//163 193//163
f 177//164 193//164 194//164
f 178//165 194//165 195//165
f 195//166 196//166 180//166
f 180//167 196//167 197//167
f 197//168 198//168 182//168
f 198//169 199//169 183//169
f 199//170 184//170 246//170
f 246//197 245//197 183//197
f 247//198 222//198 84//198
f 84//198 185//198 184//198
f 84//172 85//172 186//172
f 86//173 187//173 186//173
f 87//174 188//174 187//174
f 87//175 88//175 189//175
f 89//176 190//176 189//176
f 90//177 191//177 190//177
f 91//199 192//199 191//199
f 92//200 193//200 192//200
f 92//180 93//180 194//180
f 94//181 195//181 194//181
f 95//182 196//182 195//182
f 95//183 96//183 197//183
f 97//184 198//184 197//184
f 98//185 199//185 198//185
f 247//201 184//201 199//201
f 199//186 98//186 224//186
f 231//202 18//202 208//202
f 208//188 207//188 211//188
f 211//202 212//202 235//202
f 211//202 235//202 234//202
f 231//202 208//202 211//202
f 211//202 234//202 233//202
f 225//189 235//189 212//189
f 212//189 202//189 201//189
f 201//189 226//189 225//189
f 226//190 201//190 200//190
f 200//203 203//203 206//203
f 206//190 22//190 229//190
f 206//190 229//190 228//190
f 227//190 226//190 200//190
f 206//190 228//190 227//190
f 247//192 224//192 223//192
f 223//192 220//192 218//192
f 218//192 217//192 214//192
f 214//192 210//192 209//192
f 209//192 18//192 231//192
f 209//192 231//192 232//192
f 218//192 214//192 209//192
f 247//192 223//192 218//192
f 221//192 222//192 247//192
f 216//192 219//192 221//192
f 213//192 215//192 216//192
f 204//192 205//192 213//192
f 229//192 22//192 204//192
f 230//192 229//192 204//192
f 204//192 213//192 216//192
f 216//192 221//192 247//192
f 247//192 218//192 209//192
f 209//192 232//192 237//192
f 247//192 209//192 237//192
f 204//192 216//192 247//192
f 236//192 230//192 204//192
f 236//192 204//192 247//192
f 247//192 237//192 241//192
f 242//192 243//192 245//192
f 247//192 241//192 242//192
f 240//192 236//192 247//192
f 244//192 238//192 239//192
f 239//192 240//192 247//192
f 247//192 242//192 245//192
f 247//192 245//192 246//192
f 244//192 239//192 247//192
g A_Liquid.001_A_Liquid.001
v 0.000000 0.140000 0.000000
v 0.201250 0.200000 0.000000
v 0.185931 0.200000 -0.077015
v 0.142305 0.200000 -0.142305
v 0.077015 0.200000 -0.185931
v 0.000000 0.200000 -0.201250
v -0.077015 0.200000 -0.185931
v -0.142305 0.200000 -0.142305
v -0.185931 0.200000 -0.077015
v -0.201250 0.200000 -0.000000
v -0.185931 0.200000 0.077015
v -0.142305 0.200000 0.142305
v -0.077015 0.200000 0.185931
v -0.000000 0.200000 0.201250
v 0.077015 0.200000 0.185931
v 0.142305 0.200000 0.142305
v 0.185931 0.200000 0.077015
v 0.201250 1.475910 0.000000
v 0.185931 1.475910 -0.077015
v 0.142305 1.475910 -0.142305
v 0.077015 1.475910 -0.185931
v 0.000000 1.475910 -0.201250
v -0.077015 1.475910 -0.185931
v -0.142305 1.475910 -0.142305
v -0.185931 1.475910 -0.077015
v -0.201250 1.475910 -0.000000
v -0.185931 1.475910 0.077015
v -0.142305 1.475910 0.142305
v -0.077015 1.475910 0.185931
v -0.000000 1.475910 0.201250
v 0.077015 1.475910 0.185931
v 0.142305 1.475910 0.142305
v 0.185931 1.475910 0.077015
v 0.140875 1.515910 0.000000
v 0.130152 1.515910 -0.053911
v 0.099614 1.515910 -0.099614
v 0.053911 1.515910 -0.130152
v 0.000000 1.515910 -0.140875
v -0.053911 1.515910 -0.130152
v -0.099614 1.515910 -0.099614
v -0.130152 1.515910 -0.053911
v -0.140875 1.515910 -0.000000
v -0.130152 1.515910 0.053911
v -0.099614 1.515910 0.099614
v -0.053911 1.515910 0.130152
v -0.000000 1.515910 0.140875
v 0.053911 1.515910 0.130152
v 0.099614 1.515910 0.099614
v 0.130152 1.515910 0.053911
v 0.000000 1.545910 0.000000
vn 0.2852 -0.9568 -0.0567
vn 0.2418 -0.9568 -0.1616
vn 0.1616 -0.9568 -0.2418
vn 0.0567 -0.9568 -0.2852
vn -0.0567 -0.9568 -0.2852
vn -0.1616 -0.9568 -0.2418
vn -0.2418 -0.9568 -0.1616
vn -0.2852 -0.9568 -0.0567
vn -0.2852 -0.9568 0.0567
vn -0.2418 -0.9568 0.1616
vn -0.1616 -0.9568 0.2418
vn -0.0567 -0.9568 0.2852
vn 0.0567 -0.9568 0.2852
vn 0.1616 -0.9568 0.2418
vn 0.2418 -0.9568 0.1616
vn 0.2852 -0.9568 0.0567
vn 0.9808 -0.0000 -0.1951
vn 0.8315 -0.0000 -0.5556
vn 0.5556 -0.0000 -0.8315
vn 0.1951 -0.0000 -0.9808
vn -0.1951 -0.0000 -0.9808
vn -0.5556 -0.0000 -0.8315
vn -0.8315 -0.0000 -0.5556
vn -0.9808 -0.0000 -0.1951
vn -0.9808 -0.0000 0.1951
vn -0.8315 -0.0000 0.5556
vn -0.5556 -0.0000 0.8315
vn -0.1951 -0.0000 0.9808
vn 0.1951 -0.0000 0.9808
vn 0.5556 -0.0000 0.8315
vn 0.8315 -0.0000 0.5556
vn 0.9808 -0.0000 0.1951
vn 0.5490 0.8287 -0.1092
vn 0.4654 0.8287 -0.3110
vn 0.3110 0.8287 -0.4654
vn 0.1092 0.8287 -0.5490
vn -0.1092 0.8287 -0.5490
vn -0.3110 0.8287 -0.4654
vn -0.4654 0.8287 -0.3110
vn -0.5490 0.8287 -0.1092
vn -0.5490 0.8287 0.1092
vn -0.4654 0.8287 0.3110
vn -0.3110 0.8287 0.4654
vn -0.1092 0.8287 0.5490
vn 0.1092 0.8287 0.5490
vn 0.3110 0.8287 0.4654
vn 0.4654 0.8287 0.3110
vn 0.5490 0.8287 0.1092
vn 0.2081 0.9772 -0.0414
vn 0.1764 0.9772 -0.1179
vn 0.1179 0.9772 -0.1764
vn 0.0414 0.9772 -0.2081
vn -0.0414 0.9772 -0.2081
vn -0.1179 0.9772 -0.1764
vn -0.1764 0.9772 -0.1179
vn -0.2081 0.9772 -0.0414
vn -0.2081 0.9772 0.0414
vn -0.1764 0.9772 0.1179
vn -0.1179 0.9772 0.1764
vn -0.0414 0.9772 0.2081
vn 0.0414 0.9772 0.2081
vn 0.1179 0.9772 0.1764
vn 0.1764 0.9772 0.1179
vn 0.2081 0.9772 0.0414
s 0
g A_Liquid.001_antidote_liquid
usemtl antidote_liquid
f 248//204 250//204 249//204
f 248//205 251//205 250//205
f 248//206 252//206 251//206
f 248//207 253//207 252//207
f 248//208 254//208 253//208
f 248//209 255//209 254//209
f 248//210 256//210 255//210
f 248//211 257//211 256//211
f 248//212 258//212 257//212
f 248//213 259//213 258//213
f 248//214 260//214 259//214
f 248//215 261//215 260//215
f 248//216 262//216 261//216
f 248//217 263//217 262//217
f 248//218 264//218 263//218
f 248//219 249//219 264//219
f 250//220 265//220 249//220
f 251//221 266//221 250//221
f 252//222 267//222 251//222
f 253//223 268//223 252//223
f 254//224 269//224 253//224
f 255//225 270//225 254//225
f 256//226 271//226 255//226
f 257//227 272//227 256//227
f 258//228 273//228 257//228
f 259//229 274//229 258//229
f 260//230 275//230 259//230
f 261//231 276//231 260//231
f 262//232 277//232 261//232
f 263//233 278//233 262//233
f 264//234 279//234 263//234
f 249//235 280//235 264//235
f 266//236 281//236 265//236
f 267//237 282//237 266//237
f 268//238 283//238 267//238
f 268//239 285//239 284//239
f 270//240 285//240 269//240
f 271//241 286//241 270//241
f 272//242 287//242 271//242
f 272//243 289//243 288//243
f 274//244 289//244 273//244
f 275//245 290//245 274//245
f 276//246 291//246 275//246
f 276//247 293//247 292//247
f 278//248 293//248 277//248
f 279//249 294//249 278//249
f 280//250 295//250 279//250
f 280//251 281//251 296//251
f 281//252 282//252 297//252
f 282//253 283//253 297//253
f 283//254 284//254 297//254
f 284//255 285//255 297//255
f 285//256 286//256 297//256
f 286//257 287//257 297//257
f 287//258 288//258 297//258
f 288//259 289//259 297//259
f 289//260 290//260 297//260
f 290//261 291//261 297//261
f 291//262 292//262 297//262
f 292//263 293//263 297//263
f 293//264 294//264 297//264
f 294//265 295//265 297//265
f 295//266 296//266 297//266
f 296//267 281//267 297//267
f 250//220 266//220 265//220
f 251//221 267//221 266//221
f 252//222 268//222 267//222
f 253//223 269//223 268//223
f 254//224 270//224 269//224
f 255//225 271//225 270//225
f 256//226 272//226 271//226
f 257//227 273//227 272//227
f 258//228 274//228 273//228
f 259//229 275//229 274//229
f 260//230 276//230 275//230
f 261//231 277//231 276//231
f 262//232 278//232 277//232
f 263//233 279//233 278//233
f 264//234 280//234 279//234
f 249//235 265//235 280//235
f 266//236 282//236 281//236
f 267//237 283//237 282//237
f 268//238 284//238 283//238
f 268//239 269//239 285//239
f 270//240 286//240 285//240
f 271//241 287//241 286//241
f 272//242 288//242 287//242
f 272//243 273//243 289//243
f 274//244 290//244 289//244
f 275//245 291//245 290//245
f 276//246 292//246 291//246
f 276//247 277//247 293//247
f 278//248 294//248 293//248
f 279//249 295//249 294//249
f 280//250 296//250 295//250
f 280//251 265//251 281//251
g C_Label.001_C_Label.001
v -0.263500 1.722000 0.328125
v 0.263500 1.722000 0.328125
v 0.263500 2.122000 0.328125
v -0.263500 2.122000 0.328125
v -0.263500 1.722000 0.298125
v 0.263500 1.722000 0.298125
v 0.263500 2.122000 0.298125
v -0.263500 2.122000 0.298125
vn -0.0000 -0.0000 1.0000
vn -0.0000 -0.0000 -1.0000
vn -1.0000 -0.0000 -0.0000
vn -0.0000 -1.0000 -0.0000
vn 1.0000 -0.0000 -0.0000
vn -0.0000 1.0000 -0.0000
vt 1.000000 0.000000
vt 0.000000 1.000000
vt 0.000000 0.000000
vt 1.000000 1.000000
s 0
g C_Label.001_antidote_label
usemtl antidote_label
f 299/1/268 301/2/268 298/3/268
f 305/2/269 303/1/269 302/3/269
f 301/2/270 302/3/270 298/3/270
f 298/3/271 303/1/271 299/1/271
f 299/1/272 304/4/272 300/4/272
f 300/4/273 305/2/273 301/2/273
f 299/1/268 300/4/268 301/2/268
f 305/2/269 304/4/269 303/1/269
f 301/2/270 305/2/270 302/3/270
f 298/3/271 302/3/271 303/1/271
f 299/1/272 303/1/272 304/4/272
f 300/4/273 304/4/273 305/2/273
g S_Cork.001_S_Cork.001
v 0.000000 2.320500 0.000000
v 0.138000 2.320500 0.000000
v 0.097581 2.320500 -0.097581
v 0.000000 2.320500 -0.138000
v -0.097581 2.320500 -0.097581
v -0.138000 2.320500 -0.000000
v -0.097581 2.320500 0.097581
v -0.000000 2.320500 0.138000
v 0.097581 2.320500 0.097581
v 0.184000 2.573500 0.000000
v 0.130108 2.573500 -0.130108
v 0.000000 2.573500 -0.184000
v -0.130108 2.573500 -0.130108
v -0.184000 2.573500 -0.000000
v -0.130108 2.573500 0.130108
v -0.000000 2.573500 0.184000
v 0.130108 2.573500 0.130108
v 0.184000 2.711500 0.000000
v 0.130108 2.711500 -0.130108
v 0.000000 2.711500 -0.184000
v -0.130108 2.711500 -0.130108
v -0.184000 2.711500 -0.000000
v -0.130108 2.711500 0.130108
v -0.000000 2.711500 0.184000
v 0.130108 2.711500 0.130108
v 0.000000 2.711500 0.000000
vn -0.0000 -1.0000 -0.0000
vn 0.9111 -0.1657 -0.3774
vn 0.3774 -0.1657 -0.9111
vn -0.3774 -0.1657 -0.9111
vn -0.9111 -0.1657 -0.3774
vn -0.9111 -0.1657 0.3774
vn -0.3774 -0.1657 0.9111
vn 0.3774 -0.1657 0.9111
vn 0.9111 -0.1657 0.3774
vn 0.9239 -0.0000 -0.3827
vn 0.3827 -0.0000 -0.9239
vn -0.3827 -0.0000 -0.9239
vn -0.9239 -0.0000 -0.3827
vn -0.9239 -0.0000 0.3827
vn -0.3827 -0.0000 0.9239
vn 0.3827 -0.0000 0.9239
vn 0.9239 -0.0000 0.3827
vn -0.0000 1.0000 -0.0000
s 0
g S_Cork.001_antidote_cork
usemtl antidote_cork
f 306//274 308//274 307//274
f 306//274 309//274 308//274
f 306//274 310//274 309//274
f 306//274 311//274 310//274
f 306//274 312//274 311//274
f 306//274 313//274 312//274
f 306//274 314//274 313//274
f 306//274 307//274 314//274
f 307//275 316//275 315//275
f 309//276 316//276 308//276
f 309//277 318//277 317//277
f 311//278 318//278 310//278
f 311//279 320//279 319//279
f 313//280 320//280 312//280
f 313//281 322//281 321//281
f 307//282 322//282 314//282
f 316//283 323//283 315//283
f 317//284 324//284 316//284
f 318//285 325//285 317//285
f 319//286 326//286 318//286
f 320//287 327//287 319//287
f 321//288 328//288 320//288
f 322//289 329//289 321//289
f 315//290 330//290 322//290
f 323//291 324//291 331//291
f 324//291 325//291 331//291
f 325//291 326//291 331//291
f 326//291 327//291 331//291
f 327//291 328//291 331//291
f 328//291 329//291 331//291
f 329//291 330//291 331//291
f 330//291 323//291 331//291
f 307//275 308//275 316//275
f 309//276 317//276 316//276
f 309//277 310//277 318//277
f 311//278 319//278 318//278
f 311//279 312//279 320//279
f 313//280 321//280 320//280
f 313//281 314//281 322//281
f 307//282 315//282 322//282
f 316//283 324//283 323//283
f 317//284 325//284 324//284
f 318//285 326//285 325//285
f 319//286 327//286 326//286
f 320//287 328//287 327//287
f 321//288 329//288 328//288
f 322//289 330//289 329//289
f 315//290 323//290 330//290
g S_Wax.001_S_Wax.001
v 0.000000 2.711500 0.000000
v 0.161000 2.700000 0.000000
v 0.113844 2.700000 -0.113844
v 0.000000 2.700000 -0.161000
v -0.113844 2.700000 -0.113844
v -0.161000 2.700000 -0.000000
v -0.113844 2.700000 0.113844
v -0.000000 2.700000 0.161000
v 0.113844 2.700000 0.113844
v 0.253000 2.573500 0.000000
v 0.178898 2.573500 -0.178898
v 0.000000 2.573500 -0.253000
v -0.178898 2.573500 -0.178898
v -0.253000 2.573500 -0.000000
v -0.178898 2.573500 0.178898
v -0.000000 2.573500 0.253000
v 0.178898 2.573500 0.178898
v 0.287500 2.412500 0.000000
v 0.203293 2.412500 -0.203293
v 0.000000 2.412500 -0.287500
v -0.203293 2.412500 -0.203293
v -0.287500 2.412500 -0.000000
v -0.203293 2.412500 0.203293
v -0.000000 2.412500 0.287500
v 0.203293 2.412500 0.203293
v 0.253000 2.251500 0.000000
v 0.178898 2.251500 -0.178898
v 0.000000 2.251500 -0.253000
v -0.178898 2.251500 -0.178898
v -0.253000 2.251500 -0.000000
v -0.178898 2.251500 0.178898
v -0.000000 2.251500 0.253000
v 0.178898 2.251500 0.178898
v 0.218500 2.297500 0.000000
v 0.154503 2.297500 -0.154503
v 0.000000 2.297500 -0.218500
v -0.154503 2.297500 -0.154503
v -0.218500 2.297500 -0.000000
v -0.154503 2.297500 0.154503
v -0.000000 2.297500 0.218500
v 0.154503 2.297500 0.154503
vn -0.0712 -0.9970 0.0295
vn -0.0295 -0.9970 0.0712
vn 0.0295 -0.9970 0.0712
vn 0.0712 -0.9970 0.0295
vn 0.0712 -0.9970 -0.0295
vn 0.0295 -0.9970 -0.0712
vn -0.0295 -0.9970 -0.0712
vn -0.0712 -0.9970 -0.0295
vn -0.7669 -0.5577 0.3176
vn -0.3176 -0.5577 0.7669
vn 0.3176 -0.5577 0.7669
vn 0.7669 -0.5577 0.3176
vn 0.7669 -0.5577 -0.3176
vn 0.3176 -0.5577 -0.7669
vn -0.3176 -0.5577 -0.7669
vn -0.7669 -0.5577 -0.3176
vn -0.9063 -0.1942 0.3754
vn -0.3754 -0.1942 0.9063
vn 0.3754 -0.1942 0.9063
vn 0.9063 -0.1942 0.3754
vn 0.9063 -0.1942 -0.3754
vn 0.3754 -0.1942 -0.9063
vn -0.3754 -0.1942 -0.9063
vn -0.9063 -0.1942 -0.3754
vn -0.9063 0.1942 0.3754
vn -0.3754 0.1942 0.9063
vn 0.3754 0.1942 0.9063
vn 0.9063 0.1942 0.3754
vn 0.9063 0.1942 -0.3754
vn 0.3754 0.1942 -0.9063
vn -0.3754 0.1942 -0.9063
vn -0.9063 0.1942 -0.3754
vn 0.7594 0.5695 -0.3146
vn 0.3146 0.5695 -0.7594
vn -0.3146 0.5695 -0.7594
vn -0.7594 0.5695 -0.3146
vn -0.7594 0.5695 0.3146
vn -0.3146 0.5695 0.7594
vn 0.3146 0.5695 0.7594
vn 0.7594 0.5695 0.3146
s 0
g S_Wax.001_antidote_wax
usemtl antidote_wax
f 332//292 334//292 333//292
f 332//293 335//293 334//293
f 332//294 336//294 335//294
f 332//295 337//295 336//295
f 332//296 338//296 337//296
f 332//297 339//297 338//297
f 332//298 340//298 339//298
f 332//299 333//299 340//299
f 334//300 341//300 333//300
f 335//301 342//301 334//301
f 336//302 343//302 335//302
f 337//303 344//303 336//303
f 338//304 345//304 337//304
f 339//305 346//305 338//305
f 340//306 347//306 339//306
f 333//307 348//307 340//307
f 342//308 349//308 341//308
f 343//309 350//309 342//309
f 344//310 351//310 343//310
f 345//311 352//311 344//311
f 346//312 353//312 345//312
f 347//313 354//313 346//313
f 348//314 355//314 347//314
f 341//315 356//315 348//315
f 349//316 358//316 357//316
f 350//317 359//317 358//317
f 351//318 360//318 359//318
f 352//319 361//319 360//319
f 353//320 362//320 361//320
f 354//321 363//321 362//321
f 355//322 364//322 363//322
f 356//323 357//323 364//323
f 357//324 366//324 365//324
f 359//325 366//325 358//325
f 359//326 368//326 367//326
f 361//327 368//327 360//327
f 361//328 370//328 369//328
f 363//329 370//329 362//329
f 363//330 372//330 371//330
f 357//331 372//331 364//331
f 334//300 342//300 341//300
f 335//301 343//301 342//301
f 336//302 344//302 343//302
f 337//303 345//303 344//303
f 338//304 346//304 345//304
f 339//305 347//305 346//305
f 340//306 348//306 347//306
f 333//307 341//307 348//307
f 342//308 350//308 349//308
f 343//309 351//309 350//309
f 344//310 352//310 351//310
f 345//311 353//311 352//311
f 346//312 354//312 353//312
f 347//313 355//313 354//313
f 348//314 356//314 355//314
f 341//315 349//315 356//315
f 349//316 350//316 358//316
f 350//317 351//317 359//317
f 351//318 352//318 360//318
f 352//319 353//319 361//319
f 353//320 354//320 362//320
f 354//321 355//321 363//321
f 355//322 356//322 364//322
f 356//323 349//323 357//323
f 357//324 358//324 366//324
f 359//325 367//325 366//325
f 359//326 360//326 368//326
f 361//327 369//327 368//327
f 361//328 362//328 370//328
f 363//329 371//329 370//329
f 363//330 364//330 372//330
f 357//331 365//331 372//331
