# Blender 5.2.2 LTS
# www.blender.org
mtllib apron.mtl
g A_ApronBody.001_A_ApronBody.001
v -0.660000 -0.980000 -0.045000
v -0.550000 -0.980000 -0.010000
v -0.440000 -0.980000 0.025000
v -0.330000 -0.980000 -0.010000
v -0.220000 -0.980000 -0.045000
v -0.110000 -0.980000 -0.010000
v 0.000000 -0.980000 0.025000
v 0.110000 -0.980000 -0.010000
v 0.220000 -0.980000 -0.045000
v 0.330000 -0.980000 -0.010000
v 0.440000 -0.980000 0.025000
v 0.550000 -0.980000 -0.010000
v 0.660000 -0.980000 -0.045000
v -0.620000 -0.640000 -0.050000
v -0.516667 -0.640000 -0.015000
v -0.413333 -0.640000 0.020000
v -0.310000 -0.640000 -0.015000
v -0.206667 -0.640000 -0.050000
v -0.103333 -0.640000 -0.015000
v 0.000000 -0.640000 0.020000
v 0.103333 -0.640000 -0.015000
v 0.206667 -0.640000 -0.050000
v 0.310000 -0.640000 -0.015000
v 0.413333 -0.640000 0.020000
v 0.516667 -0.640000 -0.015000
v 0.620000 -0.640000 -0.050000
v -0.520000 -0.250000 -0.025000
v -0.433333 -0.250000 0.010000
v -0.346667 -0.250000 0.045000
v -0.260000 -0.250000 0.010000
v -0.173333 -0.250000 -0.025000
v -0.086667 -0.250000 0.010000
v 0.000000 -0.250000 0.045000
v 0.086667 -0.250000 0.010000
v 0.173333 -0.250000 -0.025000
v 0.260000 -0.250000 0.010000
v 0.346667 -0.250000 0.045000
v 0.433333 -0.250000 0.010000
v 0.520000 -0.250000 -0.025000
v -0.470000 0.040000 -0.005000
v -0.391667 0.040000 0.030000
v -0.313333 0.040000 0.065000
v -0.235000 0.040000 0.030000
v -0.156667 0.040000 -0.005000
v -0.078333 0.040000 0.030000
v 0.000000 0.040000 0.065000
v 0.078333 0.040000 0.030000
v 0.156667 0.040000 -0.005000
v 0.235000 0.040000 0.030000
v 0.313333 0.040000 0.065000
v 0.391667 0.040000 0.030000
v 0.470000 0.040000 -0.005000
v -0.280000 0.230000 -0.020000
v -0.233333 0.230000 0.015000
v -0.186667 0.230000 0.050000
v -0.140000 0.230000 0.015000
v -0.093333 0.230000 -0.020000
v -0.046667 0.230000 0.015000
v 0.000000 0.230000 0.050000
v 0.046667 0.230000 0.015000
v 0.093333 0.230000 -0.020000
v 0.140000 0.230000 0.015000
v 0.186667 0.230000 0.050000
v 0.233333 0.230000 0.015000
v 0.280000 0.230000 -0.020000
v -0.250000 0.560000 -0.035000
v -0.208333 0.560000 -0.000000
v -0.166667 0.560000 0.035000
v -0.125000 0.560000 0.000000
v -0.083333 0.560000 -0.035000
v -0.041667 0.560000 -0.000000
v 0.000000 0.560000 0.035000
v 0.041667 0.560000 -0.000000
v 0.083333 0.560000 -0.035000
v 0.125000 0.560000 -0.000000
v 0.166667 0.560000 0.035000
v 0.208333 0.560000 0.000000
v 0.250000 0.560000 -0.035000
v -0.650035 -0.981521 -0.075371
v -0.540033 -0.981429 -0.040375
v -0.439479 -0.980645 -0.008691
v -0.339977 -0.979857 -0.040405
v -0.220263 -0.980377 -0.078681
v -0.100025 -0.980644 -0.040399
v 0.000000 -0.980604 -0.008673
v 0.100025 -0.980644 -0.040399
v 0.220263 -0.980377 -0.078681
v 0.339977 -0.979857 -0.040405
v 0.439479 -0.980645 -0.008691
v 0.540033 -0.981429 -0.040375
v 0.650035 -0.981521 -0.075371
v -0.609549 -0.641150 -0.080232
v -0.506146 -0.640946 -0.045217
v -0.412952 -0.639443 -0.013949
v -0.320519 -0.638257 -0.045219
v -0.206842 -0.638971 -0.083909
v -0.092806 -0.639600 -0.045240
v -0.000000 -0.639353 -0.013903
v 0.092806 -0.639600 -0.045240
v 0.206842 -0.638971 -0.083909
v 0.320519 -0.638257 -0.045219
v 0.412952 -0.639443 -0.013949
v 0.506146 -0.640946 -0.045217
v 0.609549 -0.641150 -0.080232
v -0.508311 -0.250360 -0.054799
v -0.421545 -0.250094 -0.019763
v -0.346779 -0.247903 0.010597
v -0.271728 -0.246792 -0.019611
v -0.173233 -0.247492 -0.059344
v -0.074894 -0.248437 -0.019725
v -0.000000 -0.247953 0.010643
v 0.074894 -0.248437 -0.019725
v 0.173233 -0.247492 -0.059344
v 0.271728 -0.246792 -0.019611
v 0.346779 -0.247903 0.010597
v 0.421545 -0.250094 -0.019763
v 0.508311 -0.250360 -0.054799
v -0.456148 0.034721 -0.034777
v -0.377657 0.032690 0.001210
v -0.310798 0.037058 0.028042
v -0.248971 0.044505 0.001478
v -0.158227 0.041427 -0.041127
v -0.064176 0.038396 0.001103
v 0.000000 0.038978 0.029176
v 0.064176 0.038396 0.001103
v 0.158227 0.041427 -0.041127
v 0.248971 0.044505 0.001478
v 0.310798 0.037058 0.028042
v 0.377657 0.032690 0.001210
v 0.456148 0.034721 -0.034777
v -0.262877 0.219820 -0.046047
v -0.215656 0.221643 -0.011171
v -0.189939 0.228813 0.009786
v -0.157918 0.232519 -0.011711
v -0.091747 0.228003 -0.059012
v -0.028838 0.226912 -0.011586
v 0.000000 0.226474 0.011375
v 0.028838 0.226912 -0.011586
v 0.091747 0.228003 -0.059012
v 0.157918 0.232519 -0.011711
v 0.189939 0.228813 0.009786
v 0.215656 0.221643 -0.011171
v 0.262877 0.219820 -0.046047
v -0.230201 0.557214 -0.059985
v -0.188526 0.557366 -0.024995
v -0.167651 0.557959 -0.005821
v -0.144874 0.559757 -0.025079
v -0.082866 0.558376 -0.075802
v -0.021812 0.558559 -0.025055
v 0.000000 0.557903 -0.005755
v 0.021812 0.558559 -0.025055
v 0.082866 0.558376 -0.075802
v 0.144874 0.559757 -0.025079
v 0.167651 0.557959 -0.005821
v 0.188526 0.557366 -0.024995
v 0.230201 0.557214 -0.059985
vn -0.3047 0.0464 0.9513
vn -0.3186 0.0354 0.9472
vn -0.3028 0.0496 0.9518
vn -0.0169 0.0187 0.9997
vn -0.3218 0.0290 0.9464
vn 0.3050 -0.0064 0.9523
vn -0.0128 -0.0171 0.9998
vn 0.0094 0.0118 0.9999
vn 0.3214 -0.0551 0.9453
vn -0.3049 0.0224 0.9521
vn 0.0075 -0.0298 0.9995
vn -0.0000 0.0197 0.9998
vn -0.3219 -0.0115 0.9467
vn 0.3219 -0.0115 0.9467
vn -0.0000 -0.0186 0.9998
vn 0.3049 0.0224 0.9521
vn -0.0075 -0.0298 0.9995
vn -0.0094 0.0118 0.9999
vn -0.3214 -0.0551 0.9453
vn -0.3050 -0.0064 0.9523
vn 0.0128 -0.0171 0.9998
vn 0.0169 0.0187 0.9997
vn 0.3218 0.0290 0.9464
vn 0.3047 0.0464 0.9513
vn 0.3186 0.0354 0.9472
vn -0.3699 0.0120 0.9290
vn -0.3737 0.0035 0.9275
vn 0.0012 -0.0610 0.9981
vn 0.3718 -0.0999 0.9229
vn 0.0002 -0.0723 0.9974
vn -0.3732 -0.0495 0.9264
vn 0.3732 -0.0495 0.9264
vn -0.0000 -0.0616 0.9981
vn -0.0002 -0.0723 0.9974
vn -0.3718 -0.0999 0.9229
vn -0.0012 -0.0610 0.9981
vn 0.3737 0.0035 0.9275
vn 0.3699 0.0120 0.9290
vn -0.3994 0.1478 0.9048
vn -0.4036 0.2109 0.8903
vn -0.0641 0.0761 0.9950
vn 0.4112 -0.1346 0.9016
vn 0.0464 -0.0342 0.9983
vn -0.4152 0.0573 0.9079
vn 0.4152 0.0573 0.9079
vn -0.0000 0.0344 0.9994
vn -0.0464 -0.0342 0.9983
vn -0.4112 -0.1346 0.9016
vn 0.0641 0.0761 0.9950
vn 0.4036 0.2109 0.8903
vn 0.3994 0.1478 0.9048
vn -0.5535 0.3266 0.7661
vn -0.5701 0.2682 0.7766
vn 0.0914 0.0294 0.9954
vn 0.5874 -0.0832 0.8050
vn -0.0382 0.0445 0.9983
vn -0.5870 0.0808 0.8056
vn 0.5870 0.0808 0.8056
vn -0.0000 0.0625 0.9980
vn 0.0382 0.0445 0.9983
vn -0.5874 -0.0832 0.8050
vn -0.0914 0.0294 0.9954
vn 0.5701 0.2682 0.7766
vn 0.5535 0.3266 0.7661
vn -0.6363 0.0840 0.7668
vn -0.6388 0.0788 0.7653
vn 0.6387 0.0050 0.7695
vn 0.6408 0.0103 0.7676
vn -0.6401 0.0489 0.7668
vn -0.6422 0.0542 0.7646
vn -0.6379 0.0436 0.7688
vn 0.6379 0.0436 0.7688
vn 0.6401 0.0489 0.7668
vn -0.6408 0.0103 0.7676
vn -0.6431 0.0153 0.7656
vn -0.6387 0.0050 0.7695
vn 0.6388 0.0788 0.7653
vn 0.6414 0.0736 0.7636
vn 0.6363 0.0840 0.7668
vn 0.3186 -0.0354 -0.9472
vn 0.3035 -0.0463 -0.9517
vn 0.3028 -0.0496 -0.9518
vn 0.3207 -0.0290 -0.9467
vn 0.0165 -0.0192 -0.9997
vn 0.0109 0.0166 -0.9998
vn -0.3056 0.0062 -0.9521
vn -0.3218 0.0550 -0.9452
vn -0.0097 -0.0122 -0.9999
vn -0.0082 0.0291 -0.9995
vn 0.3047 -0.0226 -0.9522
vn 0.3219 0.0111 -0.9467
vn -0.0000 -0.0199 -0.9998
vn -0.3219 0.0111 -0.9467
vn -0.3047 -0.0226 -0.9522
vn 0.0082 0.0291 -0.9995
vn 0.0097 -0.0122 -0.9999
vn 0.3218 0.0550 -0.9452
vn 0.3056 0.0062 -0.9521
vn -0.0109 0.0166 -0.9998
vn -0.0165 -0.0192 -0.9997
vn -0.3207 -0.0290 -0.9467
vn -0.3035 -0.0463 -0.9517
vn -0.3186 -0.0354 -0.9472
vn -0.3028 -0.0496 -0.9518
vn 0.3699 -0.0133 -0.9290
vn 0.3751 -0.0045 -0.9270
vn -0.0011 0.0595 -0.9982
vn -0.3709 0.0992 -0.9233
vn -0.0006 0.0705 -0.9975
vn 0.3742 0.0486 -0.9261
vn -0.0000 0.0182 -0.9998
vn -0.3742 0.0486 -0.9261
vn 0.0006 0.0705 -0.9975
vn 0.3709 0.0992 -0.9233
vn 0.0011 0.0595 -0.9982
vn -0.3751 -0.0045 -0.9270
vn -0.3699 -0.0133 -0.9290
vn 0.4036 -0.1498 -0.9026
vn 0.3955 -0.2056 -0.8951
vn 0.0448 -0.0822 -0.9956
vn -0.4134 0.1275 -0.9016
vn -0.0606 0.0279 -0.9978
vn 0.4154 -0.0603 -0.9076
vn -0.0000 0.0605 -0.9982
vn -0.4154 -0.0603 -0.9076
vn 0.0606 0.0279 -0.9978
vn 0.4134 0.1275 -0.9016
vn -0.0448 -0.0822 -0.9956
vn -0.3955 -0.2056 -0.8951
vn -0.4036 -0.1498 -0.9026
vn 0.5538 -0.3355 -0.7621
vn 0.6121 -0.2920 -0.7348
vn -0.0301 -0.0324 -0.9990
vn -0.5604 0.0736 -0.8250
vn 0.0505 -0.0505 -0.9974
vn 0.5988 -0.0834 -0.7965
vn -0.0000 -0.0386 -0.9993
vn -0.5988 -0.0834 -0.7965
vn -0.0505 -0.0505 -0.9974
vn 0.5604 0.0736 -0.8250
vn 0.0301 -0.0324 -0.9990
vn -0.6121 -0.2920 -0.7348
vn -0.5538 -0.3355 -0.7621
vn 0.6360 -0.0840 -0.7671
vn 0.6579 -0.0819 -0.7487
vn -0.6396 -0.0052 -0.7687
vn -0.6351 -0.0133 -0.7723
vn 0.6470 -0.0496 -0.7609
vn 0.6586 -0.0442 -0.7512
vn -0.0000 -0.0739 -0.9973
vn -0.6586 -0.0442 -0.7512
vn -0.6470 -0.0496 -0.7609
vn 0.6351 -0.0133 -0.7723
vn 0.6396 -0.0052 -0.7687
vn -0.6579 -0.0819 -0.7487
vn -0.6360 -0.0840 -0.7671
vn -0.9432 0.1063 -0.3148
vn -0.0128 -0.9990 0.0428
vn -0.0061 -0.9998 0.0190
vn 0.0058 -1.0000 -0.0066
vn -0.0008 -0.9999 0.0112
vn -0.0061 -0.9998 0.0192
vn -0.0057 -0.9998 0.0179
vn 0.0057 -0.9998 0.0193
vn 0.0058 -0.9999 0.0112
vn 0.0014 -1.0000 -0.0043
vn 0.0064 -0.9990 0.0449
vn 0.0144 -0.9989 0.0453
vn 0.9384 0.1069 -0.3285
vn -0.9110 0.2544 -0.3246
vn 0.8989 0.2560 -0.3557
vn -0.9128 0.1923 -0.3604
vn 0.8788 0.1819 -0.4411
vn -0.6588 0.6259 -0.4174
vn 0.5731 0.5621 -0.5964
vn -0.8240 0.0565 -0.5638
vn 0.0538 0.9962 -0.0684
vn 0.0394 0.9965 -0.0738
vn -0.0411 0.9980 -0.0489
vn -0.0049 1.0000 -0.0058
vn 0.0298 0.9988 -0.0394
vn 0.0475 0.9987 -0.0198
vn -0.0431 0.9977 -0.0513
vn -0.0290 0.9990 -0.0345
vn 0.0104 0.9992 -0.0399
vn 0.0521 0.9981 0.0316
vn -0.0428 0.9978 -0.0509
vn 0.7807 0.0426 -0.6234
vn -0.0530 0.9966 -0.0631
vn 0.3028 0.0496 0.9518
vn -0.6414 0.0736 0.7636
vn 0.6431 0.0153 0.7656
vn 0.6422 0.0542 0.7646
vn 0.6755 -0.0805 -0.7329
vn -0.6333 -0.0223 -0.7736
vn 0.6383 -0.0562 -0.7677
vn -0.6383 -0.0562 -0.7677
vn 0.6333 -0.0223 -0.7736
vn -0.6755 -0.0805 -0.7329
vn -0.9384 0.1069 -0.3285
vn -0.0144 -0.9989 0.0453
vn -0.0064 -0.9990 0.0449
vn 0.0061 -0.9998 0.0192
vn -0.0014 -1.0000 -0.0043
vn -0.0058 -0.9999 0.0112
vn -0.0057 -0.9998 0.0193
vn 0.0057 -0.9998 0.0179
vn 0.0008 -0.9999 0.0112
vn -0.0058 -1.0000 -0.0066
vn 0.0061 -0.9998 0.0190
vn 0.0128 -0.9990 0.0428
vn 0.9432 0.1063 -0.3148
vn -0.8989 0.2560 -0.3557
vn 0.9110 0.2544 -0.3246
vn -0.8788 0.1819 -0.4411
vn 0.9128 0.1923 -0.3604
vn -0.5731 0.5621 -0.5964
vn 0.6588 0.6259 -0.4174
vn -0.7807 0.0426 -0.6234
vn 0.0530 0.9966 -0.0631
vn 0.0428 0.9978 -0.0509
vn -0.0521 0.9981 0.0316
vn -0.0104 0.9992 -0.0399
vn 0.0290 0.9990 -0.0345
vn 0.0431 0.9977 -0.0513
vn -0.0475 0.9987 -0.0198
vn -0.0298 0.9988 -0.0394
vn 0.0049 1.0000 -0.0058
vn 0.0411 0.9980 -0.0489
vn -0.0394 0.9965 -0.0738
vn 0.8240 0.0565 -0.5638
vn -0.0538 0.9962 -0.0684
vt 0.083333 0.000000
vt 0.000000 0.200000
vt 0.000000 0.000000
vt 0.166667 0.000000
vt 0.083333 0.200000
vt 0.250000 0.000000
vt 0.166667 0.200000
vt 0.333333 0.000000
vt 0.250000 0.200000
vt 0.416667 0.000000
vt 0.333333 0.200000
vt 0.500000 0.000000
vt 0.416667 0.200000
vt 0.583333 0.200000
vt 0.500000 0.200000
vt 0.583333 0.000000
vt 0.666667 0.200000
vt 0.666667 0.000000
vt 0.750000 0.200000
vt 0.750000 0.000000
vt 0.833333 0.200000
vt 0.833333 0.000000
vt 0.916667 0.200000
vt 0.916667 0.000000
vt 1.000000 0.200000
vt 0.000000 0.400000
vt 0.083333 0.400000
vt 0.166667 0.400000
vt 0.250000 0.400000
vt 0.333333 0.400000
vt 0.416667 0.400000
vt 0.583333 0.400000
vt 0.500000 0.400000
vt 0.666667 0.400000
vt 0.750000 0.400000
vt 0.833333 0.400000
vt 0.916667 0.400000
vt 1.000000 0.400000
vt 0.000000 0.600000
vt 0.083333 0.600000
vt 0.166667 0.600000
vt 0.250000 0.600000
vt 0.333333 0.600000
vt 0.416667 0.600000
vt 0.583333 0.600000
vt 0.500000 0.600000
vt 0.666667 0.600000
vt 0.750000 0.600000
vt 0.833333 0.600000
vt 0.916667 0.600000
vt 1.000000 0.600000
vt 0.000000 0.800000
vt 0.083333 0.800000
vt 0.166667 0.800000
vt 0.250000 0.800000
vt 0.333333 0.800000
vt 0.416667 0.800000
vt 0.583333 0.800000
vt 0.500000 0.800000
vt 0.666667 0.800000
vt 0.750000 0.800000
vt 0.833333 0.800000
vt 0.916667 0.800000
vt 1.000000 0.800000
vt 0.000000 1.000000
vt 0.083333 1.000000
vt 0.166667 1.000000
vt 0.250000 1.000000
vt 0.416667 1.000000
vt 0.333333 1.000000
vt 0.500000 1.000000
vt 0.583333 1.000000
vt 0.750000 1.000000
vt 0.666667 1.000000
vt 0.833333 1.000000
vt 0.916667 1.000000
vt 1.000000 1.000000
vt 1.000000 0.000000
s 1
g A_ApronBody.001_apron_canvas
usemtl apron_canvas
f 2/1/1 14/2/2 1/3/3
f 3/4/4 15/5/5 2/1/1
f 4/6/6 16/7/7 3/4/4
f 5/8/8 17/9/9 4/6/6
f 6/10/10 18/11/11 5/8/8
f 7/12/12 19/13/13 6/10/10
f 7/12/12 21/14/14 20/15/15
f 8/16/16 22/17/17 21/14/14
f 9/18/18 23/19/19 22/17/17
f 10/20/20 24/21/21 23/19/19
f 11/22/22 25/23/23 24/21/21
f 12/24/24 26/25/25 25/23/23
f 15/5/5 27/26/26 14/2/2
f 16/7/7 28/27/27 15/5/5
f 17/9/9 29/28/28 16/7/7
f 18/11/11 30/29/29 17/9/9
f 19/13/13 31/30/30 18/11/11
f 20/15/15 32/31/31 19/13/13
f 20/15/15 34/32/32 33/33/33
f 21/14/14 35/34/34 34/32/32
f 22/17/17 36/35/35 35/34/34
f 23/19/19 37/36/36 36/35/35
f 24/21/21 38/37/37 37/36/36
f 25/23/23 39/38/38 38/37/37
f 28/27/27 40/39/39 27/26/26
f 29/28/28 41/40/40 28/27/27
f 30/29/29 42/41/41 29/28/28
f 31/30/30 43/42/42 30/29/29
f 32/31/31 44/43/43 31/30/30
f 33/33/33 45/44/44 32/31/31
f 33/33/33 47/45/45 46/46/46
f 34/32/32 48/47/47 47/45/45
f 35/34/34 49/48/48 48/47/47
f 36/35/35 50/49/49 49/48/48
f 37/36/36 51/50/50 50/49/49
f 38/37/37 52/51/51 51/50/50
f 41/40/40 53/52/52 40/39/39
f 42/41/41 54/53/53 41/40/40
f 43/42/42 55/54/54 42/41/41
f 44/43/43 56/55/55 43/42/42
f 45/44/44 57/56/56 44/43/43
f 46/46/46 58/57/57 45/44/44
f 46/46/46 60/58/58 59/59/59
f 47/45/45 61/60/60 60/58/58
f 48/47/47 62/61/61 61/60/60
f 49/48/48 63/62/62 62/61/61
f 50/49/49 64/63/63 63/62/62
f 51/50/50 65/64/64 64/63/63
f 54/53/53 66/65/65 53/52/52
f 55/54/54 67/66/66 54/53/53
f 56/55/55 68/67/67 55/54/54
f 57/56/56 69/68/68 56/55/55
f 57/56/56 71/69/69 70/70/70
f 58/57/57 72/71/71 71/69/69
f 60/58/58 72/71/72 59/59/59
f 61/60/60 73/72/73 60/58/58
f 61/60/60 75/73/74 74/74/75
f 62/61/61 76/75/76 75/73/74
f 63/62/62 77/76/77 76/75/78
f 64/63/63 78/77/79 77/76/77
s 2
f 92/2/80 80/1/81 79/3/82
f 93/5/83 81/4/84 80/1/81
f 94/7/85 82/6/86 81/4/84
f 95/9/87 83/8/88 82/6/86
f 96/11/89 84/10/90 83/8/88
f 97/13/91 85/12/92 84/10/90
f 85/12/92 99/14/93 86/16/94
f 86/16/94 100/17/95 87/18/96
f 87/18/96 101/19/97 88/20/98
f 88/20/98 102/21/99 89/22/100
f 89/22/100 103/23/101 90/24/102
f 90/24/102 104/25/103 91/78/104
f 105/26/105 93/5/83 92/2/80
f 106/27/106 94/7/85 93/5/83
f 107/28/107 95/9/87 94/7/85
f 108/29/108 96/11/89 95/9/87
f 109/30/109 97/13/91 96/11/89
f 110/31/110 98/15/111 97/13/91
f 98/15/111 112/32/112 99/14/93
f 99/14/93 113/34/113 100/17/95
f 100/17/95 114/35/114 101/19/97
f 101/19/97 115/36/115 102/21/99
f 102/21/99 116/37/116 103/23/101
f 103/23/101 117/38/117 104/25/103
f 118/39/118 106/27/106 105/26/105
f 119/40/119 107/28/107 106/27/106
f 120/41/120 108/29/108 107/28/107
f 121/42/121 109/30/109 108/29/108
f 122/43/122 110/31/110 109/30/109
f 123/44/123 111/33/124 110/31/110
f 111/33/124 125/45/125 112/32/112
f 112/32/112 126/47/126 113/34/113
f 113/34/113 127/48/127 114/35/114
f 114/35/114 128/49/128 115/36/115
f 115/36/115 129/50/129 116/37/116
f 116/37/116 130/51/130 117/38/117
f 131/52/131 119/40/119 118/39/118
f 132/53/132 120/41/120 119/40/119
f 133/54/133 121/42/121 120/41/120
f 134/55/134 122/43/122 121/42/121
f 135/56/135 123/44/123 122/43/122
f 136/57/136 124/46/137 123/44/123
f 124/46/137 138/58/138 125/45/125
f 125/45/125 139/60/139 126/47/126
f 126/47/126 140/61/140 127/48/127
f 127/48/127 141/62/141 128/49/128
f 128/49/128 142/63/142 129/50/129
f 129/50/129 143/64/143 130/51/130
f 144/65/144 132/53/132 131/52/131
f 145/66/145 133/54/133 132/53/132
f 146/67/146 134/55/134 133/54/133
f 147/68/147 135/56/135 134/55/134
f 135/56/135 149/69/148 136/57/136
f 136/57/136 150/71/149 137/59/150
f 150/71/151 138/58/138 137/59/150
f 151/72/152 139/60/139 138/58/138
f 139/60/139 153/73/153 140/61/140
f 140/61/140 154/75/154 141/62/141
f 141/62/141 155/76/155 142/63/142
f 142/63/142 156/77/156 143/64/143
s 1
f 2/1/1 15/5/5 14/2/2
f 3/4/4 16/7/7 15/5/5
f 4/6/6 17/9/9 16/7/7
f 5/8/8 18/11/11 17/9/9
f 6/10/10 19/13/13 18/11/11
f 7/12/12 20/15/15 19/13/13
f 7/12/12 8/16/16 21/14/14
f 8/16/16 9/18/18 22/17/17
f 9/18/18 10/20/20 23/19/19
f 10/20/20 11/22/22 24/21/21
f 11/22/22 12/24/24 25/23/23
f 12/24/24 13/78/190 26/25/25
f 15/5/5 28/27/27 27/26/26
f 16/7/7 29/28/28 28/27/27
f 17/9/9 30/29/29 29/28/28
f 18/11/11 31/30/30 30/29/29
f 19/13/13 32/31/31 31/30/30
f 20/15/15 33/33/33 32/31/31
f 20/15/15 21/14/14 34/32/32
f 21/14/14 22/17/17 35/34/34
f 22/17/17 23/19/19 36/35/35
f 23/19/19 24/21/21 37/36/36
f 24/21/21 25/23/23 38/37/37
f 25/23/23 26/25/25 39/38/38
f 28/27/27 41/40/40 40/39/39
f 29/28/28 42/41/41 41/40/40
f 30/29/29 43/42/42 42/41/41
f 31/30/30 44/43/43 43/42/42
f 32/31/31 45/44/44 44/43/43
f 33/33/33 46/46/46 45/44/44
f 33/33/33 34/32/32 47/45/45
f 34/32/32 35/34/34 48/47/47
f 35/34/34 36/35/35 49/48/48
f 36/35/35 37/36/36 50/49/49
f 37/36/36 38/37/37 51/50/50
f 38/37/37 39/38/38 52/51/51
f 41/40/40 54/53/53 53/52/52
f 42/41/41 55/54/54 54/53/53
f 43/42/42 56/55/55 55/54/54
f 44/43/43 57/56/56 56/55/55
f 45/44/44 58/57/57 57/56/56
f 46/46/46 59/59/59 58/57/57
f 46/46/46 47/45/45 60/58/58
f 47/45/45 48/47/47 61/60/60
f 48/47/47 49/48/48 62/61/61
f 49/48/48 50/49/49 63/62/62
f 50/49/49 51/50/50 64/63/63
f 51/50/50 52/51/51 65/64/64
f 54/53/53 67/66/66 66/65/65
f 55/54/54 68/67/191 67/66/66
f 56/55/55 69/68/68 68/67/67
f 57/56/56 70/70/192 69/68/68
f 57/56/56 58/57/57 71/69/69
f 58/57/57 59/59/59 72/71/71
f 60/58/58 73/72/73 72/71/72
f 61/60/60 74/74/193 73/72/73
f 61/60/60 62/61/61 75/73/74
f 62/61/61 63/62/62 76/75/76
f 63/62/62 64/63/63 77/76/77
f 64/63/63 65/64/64 78/77/79
s 2
f 92/2/80 93/5/83 80/1/81
f 93/5/83 94/7/85 81/4/84
f 94/7/85 95/9/87 82/6/86
f 95/9/87 96/11/89 83/8/88
f 96/11/89 97/13/91 84/10/90
f 97/13/91 98/15/111 85/12/92
f 85/12/92 98/15/111 99/14/93
f 86/16/94 99/14/93 100/17/95
f 87/18/96 100/17/95 101/19/97
f 88/20/98 101/19/97 102/21/99
f 89/22/100 102/21/99 103/23/101
f 90/24/102 103/23/101 104/25/103
f 105/26/105 106/27/106 93/5/83
f 106/27/106 107/28/107 94/7/85
f 107/28/107 108/29/108 95/9/87
f 108/29/108 109/30/109 96/11/89
f 109/30/109 110/31/110 97/13/91
f 110/31/110 111/33/124 98/15/111
f 98/15/111 111/33/124 112/32/112
f 99/14/93 112/32/112 113/34/113
f 100/17/95 113/34/113 114/35/114
f 101/19/97 114/35/114 115/36/115
f 102/21/99 115/36/115 116/37/116
f 103/23/101 116/37/116 117/38/117
f 118/39/118 119/40/119 106/27/106
f 119/40/119 120/41/120 107/28/107
f 120/41/120 121/42/121 108/29/108
f 121/42/121 122/43/122 109/30/109
f 122/43/122 123/44/123 110/31/110
f 123/44/123 124/46/137 111/33/124
f 111/33/124 124/46/137 125/45/125
f 112/32/112 125/45/125 126/47/126
f 113/34/113 126/47/126 127/48/127
f 114/35/114 127/48/127 128/49/128
f 115/36/115 128/49/128 129/50/129
f 116/37/116 129/50/129 130/51/130
f 131/52/131 132/53/132 119/40/119
f 132/53/132 133/54/133 120/41/120
f 133/54/133 134/55/134 121/42/121
f 134/55/134 135/56/135 122/43/122
f 135/56/135 136/57/136 123/44/123
f 136/57/136 137/59/150 124/46/137
f 124/46/137 137/59/150 138/58/138
f 125/45/125 138/58/138 139/60/139
f 126/47/126 139/60/139 140/61/140
f 127/48/127 140/61/140 141/62/141
f 128/49/128 141/62/141 142/63/142
f 129/50/129 142/63/142 143/64/143
f 144/65/144 145/66/145 132/53/132
f 145/66/145 146/67/194 133/54/133
f 146/67/146 147/68/147 134/55/134
f 147/68/147 148/70/195 135/56/135
f 135/56/135 148/70/196 149/69/148
f 136/57/136 149/69/148 150/71/149
f 150/71/151 151/72/152 138/58/138
f 151/72/152 152/74/197 139/60/139
f 139/60/139 152/74/198 153/73/153
f 140/61/140 153/73/153 154/75/154
f 141/62/141 154/75/199 155/76/155
f 142/63/142 155/76/155 156/77/156
s 0
g A_ApronBody.001_apron_cut_edges
usemtl apron_cut_edges
f 14/2/157 79/3/157 1/3/157
f 2/1/158 79/3/158 80/1/158
f 2/1/159 81/4/159 3/4/159
f 4/6/160 81/4/160 82/6/160
f 5/8/161 82/6/161 83/8/161
f 5/8/162 84/10/162 6/10/162
f 6/10/163 85/12/163 7/12/163
f 8/16/164 85/12/164 86/16/164
f 9/18/165 86/16/165 87/18/165
f 9/18/166 88/20/166 10/20/166
f 10/20/162 89/22/162 11/22/162
f 12/24/167 89/22/167 90/24/167
f 12/24/168 91/78/168 13/78/168
f 26/25/169 91/78/169 104/25/169
f 27/26/170 92/2/170 14/2/170
f 39/38/171 104/25/171 117/38/171
f 27/26/172 118/39/172 105/26/172
f 39/38/173 130/51/173 52/51/173
f 53/52/174 118/39/174 40/39/174
f 65/64/175 130/51/175 143/64/175
f 53/52/176 144/65/176 131/52/176
f 66/65/177 145/66/177 144/65/177
f 67/66/178 146/67/178 145/66/178
f 69/68/179 146/67/179 68/67/179
f 70/70/180 147/68/180 69/68/180
f 70/70/181 149/69/181 148/70/181
f 71/69/182 150/71/182 149/69/182
f 73/72/183 150/71/183 72/71/183
f 74/74/184 151/72/184 73/72/184
f 74/74/185 153/73/185 152/74/185
f 75/73/186 154/75/186 153/73/186
f 77/76/187 154/75/187 76/75/187
f 65/64/188 156/77/188 78/77/188
f 78/77/189 155/76/189 77/76/189
f 14/2/200 92/2/200 79/3/200
f 2/1/201 1/3/201 79/3/201
f 2/1/202 80/1/202 81/4/202
f 4/6/203 3/4/203 81/4/203
f 5/8/204 4/6/204 82/6/204
f 5/8/205 83/8/205 84/10/205
f 6/10/206 84/10/206 85/12/206
f 8/16/207 7/12/207 85/12/207
f 9/18/203 8/16/203 86/16/203
f 9/18/208 87/18/208 88/20/208
f 10/20/209 88/20/209 89/22/209
f 12/24/210 11/22/210 89/22/210
f 12/24/211 90/24/211 91/78/211
f 26/25/212 13/78/212 91/78/212
f 27/26/213 105/26/213 92/2/213
f 39/38/214 26/25/214 104/25/214
f 27/26/215 40/39/215 118/39/215
f 39/38/216 117/38/216 130/51/216
f 53/52/217 131/52/217 118/39/217
f 65/64/218 52/51/218 130/51/218
f 53/52/219 66/65/219 144/65/219
f 66/65/220 67/66/220 145/66/220
f 67/66/221 68/67/221 146/67/221
f 69/68/222 147/68/222 146/67/222
f 70/70/223 148/70/223 147/68/223
f 70/70/224 71/69/224 149/69/224
f 71/69/225 72/71/225 150/71/225
f 73/72/226 151/72/226 150/71/226
f 74/74/227 152/74/227 151/72/227
f 74/74/228 75/73/228 153/73/228
f 75/73/229 76/75/229 154/75/229
f 77/76/230 155/76/230 154/75/230
f 65/64/231 143/64/231 156/77/231
f 78/77/232 156/77/232 155/76/232
g B_NeckLoop.001_B_NeckLoop.001
v 0.222516 0.554523 0.028697
v 0.201303 0.554523 0.007484
v 0.208787 0.550000 -0.021213
v 0.237484 0.545477 -0.028697
v 0.258697 0.545477 -0.007484
v 0.251213 0.550000 0.021213
v -0.222516 0.554523 0.028697
v -0.201303 0.554523 0.007484
v -0.208787 0.550000 -0.021213
v -0.237484 0.545477 -0.028697
v -0.258697 0.545477 -0.007484
v -0.251213 0.550000 0.021213
v -0.222516 0.554523 0.028697
v -0.201303 0.554523 0.007484
v -0.208787 0.550000 -0.021213
v -0.237484 0.545477 -0.028697
v -0.258697 0.545477 -0.007484
v -0.251213 0.550000 0.021213
v -0.252820 0.669170 0.013882
v -0.232172 0.672021 -0.007694
v -0.239427 0.666340 -0.036244
v -0.267330 0.657809 -0.043218
v -0.287978 0.654958 -0.021642
v -0.280723 0.660638 0.006908
v -0.281090 0.768707 0.000961
v -0.259744 0.767186 -0.020064
v -0.267282 0.763281 -0.048838
v -0.296166 0.760897 -0.056587
v -0.317511 0.762418 -0.035562
v -0.309973 0.766323 -0.006788
v -0.263196 0.869990 -0.010782
v -0.243592 0.859180 -0.030752
v -0.250396 0.859190 -0.059970
v -0.276804 0.870010 -0.069218
v -0.296408 0.880820 -0.049248
v -0.289604 0.880810 -0.020030
v -0.198092 0.953296 -0.018118
v -0.184033 0.935137 -0.037420
v -0.188475 0.938277 -0.066923
v -0.206977 0.959576 -0.077123
v -0.221037 0.977734 -0.057820
v -0.216595 0.974594 -0.028318
v -0.109644 1.000306 -0.020330
v -0.102748 0.978187 -0.039388
v -0.104587 0.982766 -0.068980
v -0.113323 1.009463 -0.079513
v -0.120220 1.031582 -0.060454
v -0.118380 1.027003 -0.030863
v 0.000000 1.015132 -0.020398
v 0.000000 0.991930 -0.039415
v 0.000000 0.996798 -0.069017
v -0.000000 1.024868 -0.079602
v -0.000000 1.048070 -0.060585
v -0.000000 1.043202 -0.030983
v 0.109644 1.000306 -0.020330
v 0.102748 0.978187 -0.039388
v 0.104587 0.982766 -0.068980
v 0.113323 1.009463 -0.079513
v 0.120220 1.031582 -0.060454
v 0.118380 1.027003 -0.030863
v 0.198092 0.953296 -0.018118
v 0.184033 0.935137 -0.037420
v 0.188475 0.938277 -0.066923
v 0.206977 0.959576 -0.077123
v 0.221037 0.977734 -0.057820
v 0.216595 0.974594 -0.028318
v 0.263196 0.869990 -0.010782
v 0.243592 0.859180 -0.030752
v 0.250396 0.859190 -0.059970
v 0.276804 0.870010 -0.069218
v 0.296408 0.880820 -0.049248
v 0.289604 0.880810 -0.020030
v 0.281090 0.768707 0.000961
v 0.259744 0.767186 -0.020064
v 0.267282 0.763281 -0.048838
v 0.296166 0.760897 -0.056587
v 0.317511 0.762418 -0.035562
v 0.309973 0.766323 -0.006788
v 0.252820 0.669170 0.013882
v 0.232172 0.672021 -0.007694
v 0.239427 0.666340 -0.036244
v 0.267330 0.657809 -0.043218
v 0.287978 0.654958 -0.021642
v 0.280723 0.660638 0.006908
v 0.222516 0.554523 0.028697
v 0.201303 0.554523 0.007484
v 0.208787 0.550000 -0.021213
v 0.237484 0.545477 -0.028697
v 0.258697 0.545477 -0.007484
v 0.251213 0.550000 0.021213
vn -0.1231 -0.9847 0.1231
vn 0.1231 -0.9847 0.1231
vn 0.2815 0.1953 0.9395
vn 0.9352 0.2750 0.2232
vn 0.7115 0.0975 -0.6959
vn -0.2046 -0.1792 -0.9623
vn -0.9292 -0.2793 -0.2421
vn -0.6694 -0.0831 0.7382
vn 0.2453 0.1909 0.9504
vn 0.9301 0.2861 0.2304
vn 0.6911 0.0975 -0.7161
vn -0.2411 -0.1885 -0.9520
vn -0.9307 -0.2828 -0.2320
vn -0.6892 -0.0943 0.7184
vn 0.1824 0.1297 0.9746
vn 0.9573 0.0845 0.2766
vn 0.6703 -0.0559 -0.7400
vn -0.3137 -0.1294 -0.9407
vn -0.9667 -0.0749 -0.2447
vn -0.7431 0.0474 0.6675
vn 0.1579 0.0316 0.9869
vn 0.8751 -0.3567 0.3269
vn 0.6124 -0.3468 -0.7104
vn -0.2886 0.0295 -0.9570
vn -0.8840 0.3635 -0.2941
vn -0.6857 0.3704 0.6265
vn 0.1060 -0.0545 0.9929
vn 0.6123 -0.7059 0.3561
vn 0.4446 -0.5807 -0.6820
vn -0.1873 0.1510 -0.9706
vn -0.6204 0.7130 -0.3267
vn -0.4890 0.6255 0.6080
vn 0.0441 -0.1002 0.9940
vn 0.2881 -0.8841 0.3679
vn 0.2206 -0.7123 -0.6663
vn -0.0782 0.2029 -0.9761
vn -0.2939 0.8945 -0.3368
vn -0.2379 0.7582 0.6071
vn -0.0000 -0.1209 0.9927
vn -0.0000 -0.9303 0.3668
vn -0.0000 -0.7555 -0.6551
vn -0.0000 0.2043 -0.9789
vn -0.0000 0.9408 -0.3390
vn -0.0000 0.7901 0.6129
vn -0.0441 -0.1002 0.9940
vn -0.2881 -0.8841 0.3679
vn -0.2206 -0.7123 -0.6663
vn 0.0782 0.2029 -0.9761
vn 0.2939 0.8945 -0.3368
vn 0.2379 0.7582 0.6071
vn -0.1060 -0.0545 0.9929
vn -0.6123 -0.7059 0.3561
vn -0.4446 -0.5807 -0.6820
vn 0.1873 0.1510 -0.9706
vn 0.6204 0.7130 -0.3267
vn 0.4890 0.6255 0.6080
vn -0.1579 0.0316 0.9869
vn -0.8751 -0.3567 0.3269
vn -0.6124 -0.3468 -0.7104
vn 0.2886 0.0295 -0.9570
vn 0.8840 0.3635 -0.2941
vn 0.6857 0.3704 0.6265
vn -0.1824 0.1297 0.9746
vn -0.9573 0.0845 0.2766
vn -0.6703 -0.0559 -0.7400
vn 0.3137 -0.1294 -0.9407
vn 0.9667 -0.0749 -0.2447
vn 0.7431 0.0474 0.6675
vn -0.2453 0.1909 0.9504
vn -0.9301 0.2861 0.2304
vn -0.6911 0.0975 -0.7161
vn 0.2411 -0.1885 -0.9520
vn 0.9307 -0.2828 -0.2320
vn 0.6892 -0.0943 0.7184
vn -0.2815 0.1953 0.9395
vn -0.9352 0.2750 0.2232
vn -0.7115 0.0975 -0.6959
vn 0.2046 -0.1792 -0.9623
vn 0.9292 -0.2793 -0.2421
vn 0.6694 -0.0831 0.7382
vt 1.000000 0.000000
vt 0.600000 0.000000
vt 0.800000 0.000000
vt 0.400000 0.000000
vt 0.000000 0.000000
vt 0.200000 0.000000
vt 0.000000 1.000000
vt 0.083333 1.000000
vt 0.083333 0.833333
vt 0.000000 0.833333
vt 0.000000 0.166667
vt 0.083333 0.166667
vt 0.083333 0.000000
vt 0.000000 0.333333
vt 0.083333 0.333333
vt 0.000000 0.500000
vt 0.083333 0.500000
vt 0.000000 0.666667
vt 0.083333 0.666667
vt 0.166667 1.000000
vt 0.166667 0.833333
vt 0.166667 0.166667
vt 0.166667 0.000000
vt 0.166667 0.333333
vt 0.166667 0.500000
vt 0.166667 0.666667
vt 0.250000 1.000000
vt 0.250000 0.833333
vt 0.250000 0.166667
vt 0.250000 0.000000
vt 0.250000 0.333333
vt 0.250000 0.500000
vt 0.250000 0.666667
vt 0.333333 1.000000
vt 0.333333 0.833333
vt 0.333333 0.166667
vt 0.333333 0.000000
vt 0.333333 0.333333
vt 0.333333 0.500000
vt 0.333333 0.666667
vt 0.416667 1.000000
vt 0.416667 0.833333
vt 0.416667 0.166667
vt 0.416667 0.000000
vt 0.416667 0.333333
vt 0.416667 0.500000
vt 0.416667 0.666667
vt 0.500000 1.000000
vt 0.500000 0.833333
vt 0.500000 0.166667
vt 0.500000 0.000000
vt 0.500000 0.333333
vt 0.500000 0.500000
vt 0.500000 0.666667
vt 0.583333 1.000000
vt 0.583333 0.833333
vt 0.583333 0.166667
vt 0.583333 0.000000
vt 0.583333 0.333333
vt 0.583333 0.500000
vt 0.583333 0.666667
vt 0.666667 1.000000
vt 0.666667 0.833333
vt 0.666667 0.166667
vt 0.666667 0.000000
vt 0.666667 0.333333
vt 0.666667 0.500000
vt 0.666667 0.666667
vt 0.750000 1.000000
vt 0.750000 0.833333
vt 0.750000 0.166667
vt 0.750000 0.000000
vt 0.750000 0.333333
vt 0.750000 0.500000
vt 0.750000 0.666667
vt 0.833333 1.000000
vt 0.833333 0.833333
vt 0.833333 0.166667
vt 0.833333 0.000000
vt 0.833333 0.333333
vt 0.833333 0.500000
vt 0.833333 0.666667
vt 0.916667 1.000000
vt 0.916667 0.833333
vt 0.916667 0.166667
vt 0.916667 0.000000
vt 0.916667 0.333333
vt 0.916667 0.500000
vt 0.916667 0.666667
vt 1.000000 1.000000
vt 1.000000 0.833333
vt 1.000000 0.166667
vt 1.000000 0.333333
vt 1.000000 0.500000
vt 1.000000 0.666667
s 1
g B_NeckLoop.001_apron_cut_edges
usemtl apron_cut_edges
f 162/79/233 160/80/233 161/81/233
f 162/79/233 159/82/233 160/80/233
f 157/83/233 159/82/233 162/79/233
f 157/83/233 158/84/233 159/82/233
s 2
f 166/80/234 168/79/234 167/81/234
f 165/82/234 168/79/234 166/80/234
f 165/82/234 163/83/234 168/79/234
f 164/84/234 163/83/234 165/82/234
s 3
f 169/85/235 175/86/241 180/87/246 174/88/240
f 170/89/236 176/90/242 175/91/241 169/83/235
f 171/92/237 177/93/243 176/90/242 170/89/236
f 172/94/238 178/95/244 177/93/243 171/92/237
f 173/96/239 179/97/245 178/95/244 172/94/238
f 174/88/240 180/87/246 179/97/245 173/96/239
f 175/86/241 181/98/247 186/99/252 180/87/246
f 176/90/242 182/100/248 181/101/247 175/91/241
f 177/93/243 183/102/249 182/100/248 176/90/242
f 178/95/244 184/103/250 183/102/249 177/93/243
f 179/97/245 185/104/251 184/103/250 178/95/244
f 180/87/246 186/99/252 185/104/251 179/97/245
f 181/98/247 187/105/253 192/106/258 186/99/252
f 182/100/248 188/107/254 187/108/253 181/101/247
f 183/102/249 189/109/255 188/107/254 182/100/248
f 184/103/250 190/110/256 189/109/255 183/102/249
f 185/104/251 191/111/257 190/110/256 184/103/250
f 186/99/252 192/106/258 191/111/257 185/104/251
f 187/105/253 193/112/259 198/113/264 192/106/258
f 188/107/254 194/114/260 193/115/259 187/108/253
f 189/109/255 195/116/261 194/114/260 188/107/254
f 190/110/256 196/117/262 195/116/261 189/109/255
f 191/111/257 197/118/263 196/117/262 190/110/256
f 192/106/258 198/113/264 197/118/263 191/111/257
f 193/112/259 199/119/265 204/120/270 198/113/264
f 194/114/260 200/121/266 199/122/265 193/115/259
f 195/116/261 201/123/267 200/121/266 194/114/260
f 196/117/262 202/124/268 201/123/267 195/116/261
f 197/118/263 203/125/269 202/124/268 196/117/262
f 198/113/264 204/120/270 203/125/269 197/118/263
f 199/119/265 205/126/271 210/127/276 204/120/270
f 200/121/266 206/128/272 205/129/271 199/122/265
f 201/123/267 207/130/273 206/128/272 200/121/266
f 202/124/268 208/131/274 207/130/273 201/123/267
f 203/125/269 209/132/275 208/131/274 202/124/268
f 204/120/270 210/127/276 209/132/275 203/125/269
f 205/126/271 211/133/277 216/134/282 210/127/276
f 206/128/272 212/135/278 211/136/277 205/129/271
f 207/130/273 213/137/279 212/135/278 206/128/272
f 208/131/274 214/138/280 213/137/279 207/130/273
f 209/132/275 215/139/281 214/138/280 208/131/274
f 210/127/276 216/134/282 215/139/281 209/132/275
f 211/133/277 217/140/283 222/141/288 216/134/282
f 212/135/278 218/142/284 217/143/283 211/136/277
f 213/137/279 219/144/285 218/142/284 212/135/278
f 214/138/280 220/145/286 219/144/285 213/137/279
f 215/139/281 221/146/287 220/145/286 214/138/280
f 216/134/282 222/141/288 221/146/287 215/139/281
f 217/140/283 223/147/289 228/148/294 222/141/288
f 218/142/284 224/149/290 223/150/289 217/143/283
f 219/144/285 225/151/291 224/149/290 218/142/284
f 220/145/286 226/152/292 225/151/291 219/144/285
f 221/146/287 227/153/293 226/152/292 220/145/286
f 222/141/288 228/148/294 227/153/293 221/146/287
f 223/147/289 229/154/295 234/155/300 228/148/294
f 224/149/290 230/156/296 229/157/295 223/150/289
f 225/151/291 231/158/297 230/156/296 224/149/290
f 226/152/292 232/159/298 231/158/297 225/151/291
f 227/153/293 233/160/299 232/159/298 226/152/292
f 228/148/294 234/155/300 233/160/299 227/153/293
f 229/154/295 235/161/301 240/162/306 234/155/300
f 230/156/296 236/163/302 235/164/301 229/157/295
f 231/158/297 237/165/303 236/163/302 230/156/296
f 232/159/298 238/166/304 237/165/303 231/158/297
f 233/160/299 239/167/305 238/166/304 232/159/298
f 234/155/300 240/162/306 239/167/305 233/160/299
f 235/161/301 241/168/307 246/169/312 240/162/306
f 236/163/302 242/170/308 241/79/307 235/164/301
f 237/165/303 243/171/309 242/170/308 236/163/302
f 238/166/304 244/172/310 243/171/309 237/165/303
f 239/167/305 245/173/311 244/172/310 238/166/304
f 240/162/306 246/169/312 245/173/311 239/167/305
g B_NeckLoop.001_B_NeckLoop.001
v 0.222516 0.554523 0.028697
v 0.201303 0.554523 0.007484
v 0.208787 0.550000 -0.021213
v 0.237484 0.545477 -0.028697
v 0.258697 0.545477 -0.007484
v 0.251213 0.550000 0.021213
v -0.222516 0.554523 0.028697
v -0.201303 0.554523 0.007484
v -0.208787 0.550000 -0.021213
v -0.237484 0.545477 -0.028697
v -0.258697 0.545477 -0.007484
v -0.251213 0.550000 0.021213
v -0.222516 0.554523 0.028697
v -0.201303 0.554523 0.007484
v -0.208787 0.550000 -0.021213
v -0.237484 0.545477 -0.028697
v -0.258697 0.545477 -0.007484
v -0.251213 0.550000 0.021213
v -0.252820 0.669170 0.013882
v -0.232172 0.672021 -0.007694
v -0.239427 0.666340 -0.036244
v -0.267330 0.657809 -0.043218
v -0.287978 0.654958 -0.021642
v -0.280723 0.660638 0.006908
v -0.281090 0.768707 0.000961
v -0.259744 0.767186 -0.020064
v -0.267282 0.763281 -0.048838
v -0.296166 0.760897 -0.056587
v -0.317511 0.762418 -0.035562
v -0.309973 0.766323 -0.006788
v -0.263196 0.869990 -0.010782
v -0.243592 0.859180 -0.030752
v -0.250396 0.859190 -0.059970
v -0.276804 0.870010 -0.069218
v -0.296408 0.880820 -0.049248
v -0.289604 0.880810 -0.020030
v -0.198092 0.953296 -0.018118
v -0.184033 0.935137 -0.037420
v -0.188475 0.938277 -0.066923
v -0.206977 0.959576 -0.077123
v -0.221037 0.977734 -0.057820
v -0.216595 0.974594 -0.028318
v -0.109644 1.000306 -0.020330
v -0.102748 0.978187 -0.039388
v -0.104587 0.982766 -0.068980
v -0.113323 1.009463 -0.079513
v -0.120220 1.031582 -0.060454
v -0.118380 1.027003 -0.030863
v 0.000000 1.015132 -0.020398
v 0.000000 0.991930 -0.039415
v 0.000000 0.996798 -0.069017
v -0.000000 1.024868 -0.079602
v -0.000000 1.048070 -0.060585
v -0.000000 1.043202 -0.030983
v 0.109644 1.000306 -0.020330
v 0.102748 0.978187 -0.039388
v 0.104587 0.982766 -0.068980
v 0.113323 1.009463 -0.079513
v 0.120220 1.031582 -0.060454
v 0.118380 1.027003 -0.030863
v 0.198092 0.953296 -0.018118
v 0.184033 0.935137 -0.037420
v 0.188475 0.938277 -0.066923
v 0.206977 0.959576 -0.077123
v 0.221037 0.977734 -0.057820
v 0.216595 0.974594 -0.028318
v 0.263196 0.869990 -0.010782
v 0.243592 0.859180 -0.030752
v 0.250396 0.859190 -0.059970
v 0.276804 0.870010 -0.069218
v 0.296408 0.880820 -0.049248
v 0.289604 0.880810 -0.020030
v 0.281090 0.768707 0.000961
v 0.259744 0.767186 -0.020064
v 0.267282 0.763281 -0.048838
v 0.296166 0.760897 -0.056587
v 0.317511 0.762418 -0.035562
v 0.309973 0.766323 -0.006788
v 0.252820 0.669170 0.013882
v 0.232172 0.672021 -0.007694
v 0.239427 0.666340 -0.036244
v 0.267330 0.657809 -0.043218
v 0.287978 0.654958 -0.021642
v 0.280723 0.660638 0.006908
v 0.222516 0.554523 0.028697
v 0.201303 0.554523 0.007484
v 0.208787 0.550000 -0.021213
v 0.237484 0.545477 -0.028697
v 0.258697 0.545477 -0.007484
v 0.251213 0.550000 0.021213
vn -0.1231 -0.9847 0.1231
vn 0.1231 -0.9847 0.1231
vn 0.2818 0.1953 0.9394
vn 0.9354 0.2745 0.2228
vn 0.7122 0.0974 -0.6952
vn -0.2052 -0.1792 -0.9622
vn -0.9294 -0.2789 -0.2418
vn -0.6701 -0.0831 0.7376
vn 0.2446 0.1910 0.9506
vn 0.9296 0.2871 0.2311
vn 0.6898 0.0976 -0.7174
vn -0.2400 -0.1886 -0.9523
vn -0.9303 -0.2836 -0.2326
vn -0.6879 -0.0943 0.7196
vn 0.1831 0.1296 0.9745
vn 0.9574 0.0844 0.2763
vn 0.6712 -0.0559 -0.7391
vn -0.3139 -0.1295 -0.9406
vn -0.9668 -0.0746 -0.2442
vn -0.7438 0.0473 0.6667
vn 0.1585 0.0314 0.9869
vn 0.8752 -0.3568 0.3266
vn 0.6128 -0.3469 -0.7100
vn -0.2891 0.0297 -0.9568
vn -0.8841 0.3636 -0.2937
vn -0.6860 0.3705 0.6262
vn 0.1063 -0.0549 0.9928
vn 0.6121 -0.7060 0.3562
vn 0.4445 -0.5807 -0.6821
vn -0.1872 0.1511 -0.9706
vn -0.6203 0.7132 -0.3265
vn -0.4888 0.6255 0.6082
vn 0.0440 -0.1003 0.9940
vn 0.2878 -0.8842 0.3680
vn 0.2207 -0.7124 -0.6662
vn -0.0779 0.2028 -0.9761
vn -0.2938 0.8946 -0.3367
vn -0.2379 0.7583 0.6070
vn -0.0000 -0.1205 0.9927
vn -0.0000 -0.9300 0.3675
vn -0.0000 -0.7552 -0.6554
vn -0.0000 0.2034 -0.9791
vn -0.0000 0.9406 -0.3394
vn -0.0000 0.7899 0.6133
vn -0.0440 -0.1003 0.9940
vn -0.2878 -0.8842 0.3680
vn -0.2207 -0.7124 -0.6662
vn 0.0779 0.2028 -0.9761
vn 0.2938 0.8946 -0.3367
vn 0.2379 0.7583 0.6070
vn -0.1063 -0.0549 0.9928
vn -0.6121 -0.7060 0.3562
vn -0.4445 -0.5807 -0.6821
vn 0.1872 0.1511 -0.9706
vn 0.6203 0.7132 -0.3265
vn 0.4888 0.6255 0.6082
vn -0.1585 0.0314 0.9869
vn -0.8752 -0.3568 0.3266
vn -0.6128 -0.3469 -0.7100
vn 0.2891 0.0297 -0.9568
vn 0.8841 0.3636 -0.2937
vn 0.6860 0.3705 0.6262
vn -0.1831 0.1296 0.9745
vn -0.9574 0.0844 0.2763
vn -0.6712 -0.0559 -0.7391
vn 0.3139 -0.1295 -0.9406
vn 0.9668 -0.0746 -0.2442
vn 0.7438 0.0473 0.6667
vn -0.2446 0.1910 0.9506
vn -0.9296 0.2871 0.2311
vn -0.6898 0.0976 -0.7174
vn 0.2400 -0.1886 -0.9523
vn 0.9303 -0.2836 -0.2326
vn 0.6879 -0.0943 0.7196
vn -0.2818 0.1953 0.9394
vn -0.9354 0.2745 0.2228
vn -0.7122 0.0974 -0.6952
vn 0.2052 -0.1792 -0.9622
vn 0.9294 -0.2789 -0.2418
vn 0.6701 -0.0831 0.7376
vt 1.000000 0.000000
vt 0.600000 0.000000
vt 0.800000 0.000000
vt 0.400000 0.000000
vt 0.000000 0.000000
vt 0.200000 0.000000
vt 0.083333 1.000000
vt 0.000000 0.833333
vt 0.000000 1.000000
vt 0.083333 0.166667
vt 0.000000 0.166667
vt 0.000000 0.333333
vt 0.000000 0.500000
vt 0.083333 0.333333
vt 0.000000 0.666667
vt 0.083333 0.500000
vt 0.083333 0.833333
vt 0.166667 1.000000
vt 0.166667 0.166667
vt 0.083333 0.000000
vt 0.166667 0.333333
vt 0.083333 0.666667
vt 0.166667 0.500000
vt 0.166667 0.833333
vt 0.250000 1.000000
vt 0.250000 0.166667
vt 0.166667 0.000000
vt 0.250000 0.333333
vt 0.166667 0.666667
vt 0.250000 0.500000
vt 0.250000 0.833333
vt 0.333333 0.833333
vt 0.333333 0.000000
vt 0.250000 0.000000
vt 0.333333 0.333333
vt 0.333333 0.500000
vt 0.333333 0.666667
vt 0.250000 0.666667
vt 0.333333 1.000000
vt 0.416667 0.833333
vt 0.333333 0.166667
vt 0.416667 0.000000
vt 0.416667 0.333333
vt 0.416667 0.500000
vt 0.416667 0.666667
vt 0.416667 1.000000
vt 0.500000 0.833333
vt 0.416667 0.166667
vt 0.500000 0.000000
vt 0.500000 0.333333
vt 0.500000 0.500000
vt 0.500000 0.666667
vt 0.583333 1.000000
vt 0.500000 1.000000
vt 0.583333 0.166667
vt 0.500000 0.166667
vt 0.583333 0.333333
vt 0.583333 0.500000
vt 0.583333 0.833333
vt 0.666667 1.000000
vt 0.666667 0.166667
vt 0.583333 0.000000
vt 0.666667 0.333333
vt 0.583333 0.666667
vt 0.666667 0.500000
vt 0.666667 0.833333
vt 0.750000 1.000000
vt 0.750000 0.166667
vt 0.666667 0.000000
vt 0.750000 0.333333
vt 0.666667 0.666667
vt 0.750000 0.500000
vt 0.750000 0.833333
vt 0.833333 0.833333
vt 0.833333 0.000000
vt 0.750000 0.000000
vt 0.833333 0.333333
vt 0.833333 0.500000
vt 0.833333 0.666667
vt 0.750000 0.666667
vt 0.833333 1.000000
vt 0.916667 0.833333
vt 0.833333 0.166667
vt 0.916667 0.000000
vt 0.916667 0.333333
vt 0.916667 0.500000
vt 0.916667 0.666667
vt 0.916667 1.000000
vt 1.000000 0.833333
vt 0.916667 0.166667
vt 1.000000 0.333333
vt 1.000000 0.500000
vt 1.000000 0.666667
vt 1.000000 1.000000
vt 1.000000 0.166667
s 1
g B_NeckLoop.001_apron_cut_edges
usemtl apron_cut_edges
f 252/174/313 250/175/313 251/176/313
f 252/174/313 249/177/313 250/175/313
f 247/178/313 249/177/313 252/174/313
f 247/178/313 248/179/313 249/177/313
s 2
f 256/175/314 258/174/314 257/176/314
f 255/177/314 258/174/314 256/175/314
f 255/177/314 253/178/314 258/174/314
f 254/179/314 253/178/314 255/177/314
s 3
f 265/180/321 264/181/320 259/182/315
f 266/183/322 259/178/315 260/184/316
f 261/185/317 266/183/322 260/184/316
f 262/186/318 267/187/323 261/185/317
f 263/188/319 268/189/324 262/186/318
f 270/190/326 263/188/319 264/181/320
f 271/191/327 270/190/326 265/180/321
f 272/192/328 265/193/321 266/183/322
f 267/187/323 272/192/328 266/183/322
f 268/189/324 273/194/329 267/187/323
f 269/195/325 274/196/330 268/189/324
f 276/197/332 269/195/325 270/190/326
f 277/198/333 276/197/332 271/191/327
f 278/199/334 271/200/327 272/192/328
f 273/194/329 278/199/334 272/192/328
f 274/196/330 279/201/335 273/194/329
f 275/202/331 280/203/336 274/196/330
f 282/204/338 275/202/331 276/197/332
f 277/198/333 288/205/344 282/204/338
f 278/199/334 283/206/339 277/207/333
f 285/208/341 278/199/334 279/201/335
f 286/209/342 279/201/335 280/203/336
f 287/210/343 280/203/336 281/211/337
f 282/204/338 287/210/343 281/211/337
f 283/212/339 294/213/350 288/205/344
f 284/214/340 289/215/345 283/206/339
f 291/216/347 284/214/340 285/208/341
f 292/217/348 285/208/341 286/209/342
f 293/218/349 286/209/342 287/210/343
f 288/205/344 293/218/349 287/210/343
f 289/219/345 300/220/356 294/213/350
f 290/221/346 295/222/351 289/215/345
f 297/223/353 290/221/346 291/216/347
f 298/224/354 291/216/347 292/217/348
f 299/225/355 292/217/348 293/218/349
f 294/213/350 299/225/355 293/218/349
f 301/226/357 300/220/356 295/227/351
f 302/228/358 295/222/351 296/229/352
f 297/223/353 302/228/358 296/229/352
f 298/224/354 303/230/359 297/223/353
f 299/225/355 304/231/360 298/224/354
f 306/232/362 299/225/355 300/220/356
f 307/233/363 306/232/362 301/226/357
f 308/234/364 301/235/357 302/228/358
f 303/230/359 308/234/364 302/228/358
f 304/231/360 309/236/365 303/230/359
f 305/237/361 310/238/366 304/231/360
f 312/239/368 305/237/361 306/232/362
f 313/240/369 312/239/368 307/233/363
f 314/241/370 307/242/363 308/234/364
f 309/236/365 314/241/370 308/234/364
f 310/238/366 315/243/371 309/236/365
f 311/244/367 316/245/372 310/238/366
f 318/246/374 311/244/367 312/239/368
f 313/240/369 324/247/380 318/246/374
f 314/241/370 319/248/375 313/249/369
f 321/250/377 314/241/370 315/243/371
f 322/251/378 315/243/371 316/245/372
f 323/252/379 316/245/372 317/253/373
f 318/246/374 323/252/379 317/253/373
f 319/254/375 330/255/386 324/247/380
f 320/256/376 325/257/381 319/248/375
f 327/258/383 320/256/376 321/250/377
f 328/259/384 321/250/377 322/251/378
f 329/260/385 322/251/378 323/252/379
f 324/247/380 329/260/385 323/252/379
f 325/261/381 336/262/392 330/255/386
f 326/263/382 331/174/387 325/257/381
f 333/264/389 326/263/382 327/258/383
f 334/265/390 327/258/383 328/259/384
f 335/266/391 328/259/384 329/260/385
f 330/255/386 335/266/391 329/260/385
f 265/180/321 270/190/326 264/181/320
f 266/183/322 265/193/321 259/178/315
f 261/185/317 267/187/323 266/183/322
f 262/186/318 268/189/324 267/187/323
f 263/188/319 269/195/325 268/189/324
f 270/190/326 269/195/325 263/188/319
f 271/191/327 276/197/332 270/190/326
f 272/192/328 271/200/327 265/193/321
f 267/187/323 273/194/329 272/192/328
f 268/189/324 274/196/330 273/194/329
f 269/195/325 275/202/331 274/196/330
f 276/197/332 275/202/331 269/195/325
f 277/198/333 282/204/338 276/197/332
f 278/199/334 277/207/333 271/200/327
f 273/194/329 279/201/335 278/199/334
f 274/196/330 280/203/336 279/201/335
f 275/202/331 281/211/337 280/203/336
f 282/204/338 281/211/337 275/202/331
f 277/198/333 283/212/339 288/205/344
f 278/199/334 284/214/340 283/206/339
f 285/208/341 284/214/340 278/199/334
f 286/209/342 285/208/341 279/201/335
f 287/210/343 286/209/342 280/203/336
f 282/204/338 288/205/344 287/210/343
f 283/212/339 289/219/345 294/213/350
f 284/214/340 290/221/346 289/215/345
f 291/216/347 290/221/346 284/214/340
f 292/217/348 291/216/347 285/208/341
f 293/218/349 292/217/348 286/209/342
f 288/205/344 294/213/350 293/218/349
f 289/219/345 295/227/351 300/220/356
f 290/221/346 296/229/352 295/222/351
f 297/223/353 296/229/352 290/221/346
f 298/224/354 297/223/353 291/216/347
f 299/225/355 298/224/354 292/217/348
f 294/213/350 300/220/356 299/225/355
f 301/226/357 306/232/362 300/220/356
f 302/228/358 301/235/357 295/222/351
f 297/223/353 303/230/359 302/228/358
f 298/224/354 304/231/360 303/230/359
f 299/225/355 305/237/361 304/231/360
f 306/232/362 305/237/361 299/225/355
f 307/233/363 312/239/368 306/232/362
f 308/234/364 307/242/363 301/235/357
f 303/230/359 309/236/365 308/234/364
f 304/231/360 310/238/366 309/236/365
f 305/237/361 311/244/367 310/238/366
f 312/239/368 311/244/367 305/237/361
f 313/240/369 318/246/374 312/239/368
f 314/241/370 313/249/369 307/242/363
f 309/236/365 315/243/371 314/241/370
f 310/238/366 316/245/372 315/243/371
f 311/244/367 317/253/373 316/245/372
f 318/246/374 317/253/373 311/244/367
f 313/240/369 319/254/375 324/247/380
f 314/241/370 320/256/376 319/248/375
f 321/250/377 320/256/376 314/241/370
f 322/251/378 321/250/377 315/243/371
f 323/252/379 322/251/378 316/245/372
f 318/246/374 324/247/380 323/252/379
f 319/254/375 325/261/381 330/255/386
f 320/256/376 326/263/382 325/257/381
f 327/258/383 326/263/382 320/256/376
f 328/259/384 327/258/383 321/250/377
f 329/260/385 328/259/384 322/251/378
f 324/247/380 330/255/386 329/260/385
f 325/261/381 331/267/387 336/262/392
f 326/263/382 332/268/388 331/174/387
f 333/264/389 332/268/388 326/263/382
f 334/265/390 333/264/389 327/258/383
f 335/266/391 334/265/390 328/259/384
f 330/255/386 336/262/392 335/266/391
g C_WaistTie-1.001_C_WaistTie-1.001
v -0.471832 0.054034 0.008000
v -0.488168 -0.014034 0.008000
v -0.488168 -0.014034 -0.008000
v -0.471832 0.054034 -0.008000
v -0.740540 0.113375 -0.072000
v -0.719460 0.046625 -0.072000
v -0.719460 0.046625 -0.088000
v -0.740540 0.113375 -0.088000
v -0.894992 -0.100745 -0.162000
v -0.825008 -0.099255 -0.162000
v -0.825008 -0.099255 -0.178000
v -0.894992 -0.100745 -0.178000
v -0.751519 -0.405216 -0.132000
v -0.688481 -0.374784 -0.132000
v -0.688481 -0.374784 -0.148000
v -0.751519 -0.405216 -0.148000
vn -0.3084 0.0482 0.9500
vn -0.4079 -0.1177 0.9054
vn -0.3086 0.0741 0.9483
vn -0.2537 -0.9673 -0.0000
vn 0.4079 0.1177 -0.9054
vn 0.3084 -0.0482 -0.9500
vn 0.3086 -0.0741 -0.9483
vn 0.2156 0.9765 -0.0000
vn -0.3481 -0.1558 0.9244
vn -0.0296 -0.1506 0.9882
vn 0.8102 -0.5862 -0.0000
vn 0.0296 0.1506 -0.9882
vn 0.3481 0.1558 -0.9244
vn -0.8110 0.5850 -0.0000
vn -0.0370 0.0887 0.9954
vn 0.0028 -0.1299 0.9915
vn 0.8960 0.4440 -0.0000
vn 0.0370 -0.0887 -0.9954
vn -0.0028 0.1299 -0.9915
vn -0.9046 -0.4263 -0.0000
vn 0.9724 -0.2334 -0.0000
vn 0.4347 -0.9006 -0.0000
vn -0.0422 0.0874 0.9953
vn 0.0422 -0.0874 -0.9953
vt 0.000000 0.000000
vt 1.000000 0.333333
vt 1.000000 0.000000
vt 0.000000 0.333333
vt 1.000000 0.666667
vt 0.000000 0.666667
vt 0.000000 1.000000
vt 1.000000 1.000000
s 1
g C_WaistTie-1.001_apron_canvas
usemtl apron_canvas
f 337/269/393 342/270/394 338/271/395
s 3
f 343/272/397 340/271/398 339/269/399
s 1
f 341/272/401 346/273/402 342/270/394
s 3
f 347/274/404 344/270/405 343/272/397
s 1
f 349/275/407 346/273/402 345/274/408
s 3
f 347/274/404 352/276/410 348/273/411
s 1
f 337/269/393 341/272/401 342/270/394
s 3
f 343/272/397 344/270/405 340/271/398
s 1
f 341/272/401 345/274/408 346/273/402
s 3
f 347/274/404 348/273/411 344/270/405
s 1
f 349/275/407 350/276/415 346/273/402
s 3
f 347/274/404 351/275/416 352/276/410
s 0
g C_WaistTie-1.001_apron_cut_edges
usemtl apron_cut_edges
f 342/272/396 339/271/396 338/269/396
f 340/269/400 341/270/400 337/271/400
f 346/274/403 343/270/403 342/272/403
f 344/272/406 345/273/406 341/270/406
f 346/274/409 351/276/409 347/273/409
f 352/275/412 345/273/412 348/274/412
f 337/275/413 339/271/413 340/269/413
f 352/275/414 350/271/414 349/269/414
f 342/272/396 343/270/396 339/271/396
f 340/269/400 344/272/400 341/270/400
f 346/274/403 347/273/403 343/270/403
f 344/272/406 348/274/406 345/273/406
f 346/274/409 350/275/409 351/276/409
f 352/275/412 349/276/412 345/273/412
f 337/275/413 338/276/413 339/271/413
f 352/275/414 351/276/414 350/271/414
g C_WaistTie1.001_C_WaistTie1.001
v 0.488168 -0.014034 0.008000
v 0.471832 0.054034 0.008000
v 0.471832 0.054034 -0.008000
v 0.488168 -0.014034 -0.008000
v 0.719460 0.046625 -0.072000
v 0.740540 0.113375 -0.072000
v 0.740540 0.113375 -0.088000
v 0.719460 0.046625 -0.088000
v 0.825008 -0.099255 -0.162000
v 0.894992 -0.100745 -0.162000
v 0.894992 -0.100745 -0.178000
v 0.825008 -0.099255 -0.178000
v 0.688481 -0.374784 -0.132000
v 0.751519 -0.405216 -0.132000
v 0.751519 -0.405216 -0.148000
v 0.688481 -0.374784 -0.148000
vn 0.4079 -0.1177 0.9054
vn 0.3084 0.0482 0.9500
vn 0.3086 0.0741 0.9483
vn -0.2156 0.9765 -0.0000
vn -0.3084 -0.0482 -0.9500
vn -0.4079 0.1177 -0.9054
vn -0.3086 -0.0741 -0.9483
vn 0.2537 -0.9673 -0.0000
vn 0.0296 -0.1506 0.9882
vn 0.3481 -0.1558 0.9244
vn 0.8110 0.5850 -0.0000
vn -0.3481 0.1558 -0.9244
vn -0.0296 0.1506 -0.9882
vn -0.8102 -0.5862 -0.0000
vn 0.0370 0.0887 0.9954
vn -0.0028 -0.1299 0.9915
vn 0.9046 -0.4263 -0.0000
vn -0.0370 -0.0887 -0.9954
vn 0.0028 0.1299 -0.9915
vn -0.8960 0.4440 -0.0000
vn -0.9724 -0.2334 -0.0000
vn -0.4347 -0.9006 -0.0000
vn 0.0422 0.0874 0.9953
vn -0.0422 -0.0874 -0.9953
vt 0.000000 0.333333
vt 1.000000 0.000000
vt 0.000000 0.000000
vt 1.000000 0.333333
vt 0.000000 0.666667
vt 1.000000 0.666667
vt 1.000000 1.000000
vt 0.000000 1.000000
s 1
g C_WaistTie1.001_apron_canvas
usemtl apron_canvas
f 357/277/417 354/278/418 353/279/419
s 3
f 355/279/421 360/280/422 356/278/423
s 1
f 361/281/425 358/280/426 357/277/417
s 3
f 359/277/428 364/282/429 360/280/422
s 1
f 361/281/425 366/283/431 362/282/432
s 3
f 367/284/434 364/282/429 363/281/435
s 1
f 357/277/417 358/280/426 354/278/418
s 3
f 355/279/421 359/277/428 360/280/422
s 1
f 361/281/425 362/282/432 358/280/426
s 3
f 359/277/428 363/281/435 364/282/429
s 1
f 361/281/425 365/284/439 366/283/431
s 3
f 367/284/434 368/283/440 364/282/429
s 0
g C_WaistTie1.001_apron_cut_edges
usemtl apron_cut_edges
f 358/277/420 355/278/420 354/279/420
f 356/279/424 357/280/424 353/278/424
f 362/281/427 359/280/427 358/277/427
f 360/277/430 361/282/430 357/280/430
f 362/281/433 367/283/433 363/282/433
f 368/284/436 361/282/436 364/281/436
f 353/284/437 355/278/437 356/279/437
f 368/284/438 366/278/438 365/279/438
f 358/277/420 359/280/420 355/278/420
f 356/279/424 360/277/424 357/280/424
f 362/281/427 363/282/427 359/280/427
f 360/277/430 364/281/430 361/282/430
f 362/281/433 366/284/433 367/283/433
f 368/284/436 365/283/436 361/282/436
f 353/284/437 354/283/437 355/278/437
f 368/284/438 367/283/438 366/278/438
g D_PatchPocket.001_D_PatchPocket.001
v -0.220000 -0.170000 0.081500
v 0.220000 -0.170000 0.081500
v 0.210000 -0.430000 0.081500
v 0.000000 -0.480000 0.081500
v -0.210000 -0.430000 0.081500
v -0.220000 -0.170000 0.108500
v 0.220000 -0.170000 0.108500
v 0.210000 -0.430000 0.108500
v 0.000000 -0.480000 0.108500
v -0.210000 -0.430000 0.108500
vn -0.5893 0.5671 -0.5754
vn 0.5894 0.5671 -0.5754
vn 0.6221 -0.5111 -0.5930
vn -0.0000 -0.7526 -0.6585
vn -0.6221 -0.5111 -0.5930
vn -0.5894 0.5671 0.5754
vn 0.5893 0.5671 0.5754
vn 0.6222 -0.5111 0.5930
vn -0.0000 -0.7526 0.6585
vn -0.6222 -0.5111 0.5930
vt 1.000000 1.000000
vt 0.500000 0.000000
vt 0.022727 0.161290
vt 0.977273 0.161290
vt 0.000000 1.000000
s 1
g D_PatchPocket.001_apron_pocket
usemtl apron_pocket
f 370/285/442 372/286/444 373/287/445
f 378/287/450 376/288/448 375/285/447
f 373/287/445 374/289/446 369/289/441
f 369/289/441 375/285/447 370/285/442
f 370/285/442 376/288/448 371/288/443
f 371/288/443 377/286/449 372/286/444
f 372/286/444 378/287/450 373/287/445
f 373/287/445 369/289/441 370/285/442
f 370/285/442 371/288/443 372/286/444
f 375/285/447 374/289/446 378/287/450
f 378/287/450 377/286/449 376/288/448
f 373/287/445 378/287/450 374/289/446
f 369/289/441 374/289/446 375/285/447
f 370/285/442 375/285/447 376/288/448
f 371/288/443 376/288/448 377/286/449
f 372/286/444 377/286/449 378/287/450
g E_PocketStitch.001_E_PocketStitch.001
v 0.203500 -0.200000 0.113938
v 0.196500 -0.200000 0.113938
v 0.193000 -0.200000 0.120000
v 0.196500 -0.200000 0.126062
v 0.203500 -0.200000 0.126062
v 0.207000 -0.200000 0.120000
v -0.203500 -0.200000 0.113938
v -0.196500 -0.200000 0.113938
v -0.193000 -0.200000 0.120000
v -0.196500 -0.200000 0.126062
v -0.203500 -0.200000 0.126062
v -0.207000 -0.200000 0.120000
v -0.203500 -0.200000 0.113938
v -0.196500 -0.200000 0.113938
v -0.193000 -0.200000 0.120000
v -0.196500 -0.200000 0.126062
v -0.203500 -0.200000 0.126062
v -0.207000 -0.200000 0.120000
v -0.216107 -0.283557 0.113938
v -0.209194 -0.284657 0.113938
v -0.205738 -0.285207 0.120000
v -0.209194 -0.284657 0.126062
v -0.216107 -0.283557 0.126062
v -0.219564 -0.283007 0.120000
v -0.228788 -0.359773 0.113938
v -0.221816 -0.359150 0.113938
v -0.218329 -0.358839 0.120000
v -0.221816 -0.359150 0.126062
v -0.228788 -0.359773 0.126062
v -0.232274 -0.360084 0.120000
v -0.202757 -0.432156 0.113938
v -0.197243 -0.427844 0.113938
v -0.194485 -0.425689 0.120000
v -0.197243 -0.427844 0.126062
v -0.202757 -0.432156 0.126062
v -0.205515 -0.434311 0.120000
v -0.144558 -0.471044 0.113938
v -0.142254 -0.464434 0.113938
v -0.141103 -0.461129 0.120000
v -0.142254 -0.464434 0.126062
v -0.144558 -0.471044 0.126062
v -0.145710 -0.474349 0.120000
v -0.076092 -0.476813 0.113938
v -0.075956 -0.469815 0.113938
v -0.075887 -0.466315 0.120000
v -0.075956 -0.469815 0.126062
v -0.076092 -0.476813 0.126062
v -0.076160 -0.480313 0.120000
v 0.000000 -0.473500 0.113938
v 0.000000 -0.466500 0.113938
v 0.000000 -0.463000 0.120000
v -0.000000 -0.466500 0.126062
v -0.000000 -0.473500 0.126062
v -0.000000 -0.477000 0.120000
v 0.076092 -0.476813 0.113938
v 0.075956 -0.469815 0.113938
v 0.075887 -0.466315 0.120000
v 0.075956 -0.469815 0.126062
v 0.076092 -0.476813 0.126062
v 0.076160 -0.480313 0.120000
v 0.144558 -0.471044 0.113938
v 0.142254 -0.464434 0.113938
v 0.141103 -0.461129 0.120000
v 0.142254 -0.464434 0.126062
v 0.144558 -0.471044 0.126062
v 0.145710 -0.474349 0.120000
v 0.202757 -0.432156 0.113938
v 0.197243 -0.427844 0.113938
v 0.194485 -0.425689 0.120000
v 0.197243 -0.427844 0.126062
v 0.202757 -0.432156 0.126062
v 0.205515 -0.434311 0.120000
v 0.228788 -0.359773 0.113938
v 0.221816 -0.359150 0.113938
v 0.218329 -0.358839 0.120000
v 0.221816 -0.359150 0.126062
v 0.228788 -0.359773 0.126062
v 0.232274 -0.360084 0.120000
v 0.216107 -0.283557 0.113938
v 0.209194 -0.284657 0.113938
v 0.205738 -0.285207 0.120000
v 0.209194 -0.284657 0.126062
v 0.216107 -0.283557 0.126062
v 0.219564 -0.283007 0.120000
v 0.203500 -0.200000 0.113938
v 0.196500 -0.200000 0.113938
v 0.193000 -0.200000 0.120000
v 0.196500 -0.200000 0.126062
v 0.203500 -0.200000 0.126062
v 0.207000 -0.200000 0.120000
vn -0.0000 1.0000 -0.0000
vn -0.4605 0.0696 -0.8849
vn 0.5311 -0.0795 -0.8436
vn 0.9890 -0.1481 -0.0000
vn 0.5311 -0.0795 0.8436
vn -0.4605 0.0696 0.8849
vn -0.9888 0.1494 -0.0000
vn -0.4941 0.0782 -0.8659
vn 0.4980 -0.0797 -0.8635
vn 0.9874 -0.1580 -0.0000
vn 0.4980 -0.0797 0.8635
vn -0.4941 0.0782 0.8659
vn -0.9877 0.1564 -0.0000
vn -0.5529 -0.0508 -0.8317
vn 0.4319 0.0382 -0.9011
vn 0.9961 0.0878 -0.0000
vn 0.4319 0.0382 0.9011
vn -0.5529 -0.0508 0.8317
vn -0.9958 -0.0912 -0.0000
vn -0.4463 -0.3488 -0.8241
vn 0.3266 0.2554 -0.9100
vn 0.7878 0.6160 -0.0000
vn 0.3266 0.2554 0.9100
vn -0.4463 -0.3488 0.8241
vn -0.7879 -0.6158 -0.0000
vn -0.1840 -0.5235 -0.8319
vn 0.1425 0.4104 -0.9007
vn 0.3278 0.9447 -0.0000
vn 0.1425 0.4104 0.9007
vn -0.1840 -0.5235 0.8319
vn -0.3313 -0.9435 -0.0000
vn -0.0107 -0.5162 -0.8564
vn 0.0089 0.4861 -0.8738
vn 0.0184 0.9998 -0.0000
vn 0.0089 0.4861 0.8738
vn -0.0107 -0.5162 0.8564
vn -0.0207 -0.9998 -0.0000
vn -0.0000 -0.4896 -0.8720
vn -0.0000 0.5104 -0.8600
vn -0.0000 0.5104 0.8600
vn -0.0000 -0.4896 0.8720
vn -0.0000 -1.0000 -0.0000
vn 0.0107 -0.5162 -0.8564
vn -0.0089 0.4861 -0.8738
vn -0.0184 0.9998 -0.0000
vn -0.0089 0.4861 0.8738
vn 0.0107 -0.5162 0.8564
vn 0.0207 -0.9998 -0.0000
vn 0.1840 -0.5235 -0.8319
vn -0.1425 0.4104 -0.9007
vn -0.3278 0.9447 -0.0000
vn -0.1425 0.4104 0.9007
vn 0.1840 -0.5235 0.8319
vn 0.3313 -0.9435 -0.0000
vn 0.4463 -0.3488 -0.8241
vn -0.3266 0.2554 -0.9100
vn -0.7878 0.6160 -0.0000
vn -0.3266 0.2554 0.9100
vn 0.4463 -0.3488 0.8241
vn 0.7879 -0.6158 -0.0000
vn 0.5529 -0.0508 -0.8317
vn -0.4319 0.0382 -0.9011
vn -0.9961 0.0878 -0.0000
vn -0.4319 0.0382 0.9011
vn 0.5529 -0.0508 0.8317
vn 0.9958 -0.0912 -0.0000
vn 0.4941 0.0782 -0.8659
vn -0.4980 -0.0797 -0.8635
vn -0.9874 -0.1580 -0.0000
vn -0.4980 -0.0797 0.8635
vn 0.4941 0.0782 0.8659
vn 0.9877 0.1564 -0.0000
vn 0.4605 0.0696 -0.8849
vn -0.5311 -0.0795 -0.8436
vn -0.9890 -0.1481 -0.0000
vn -0.5311 -0.0795 0.8436
vn 0.4605 0.0696 0.8849
vn 0.9888 0.1494 -0.0000
vt 0.400000 0.000000
vt 0.000000 0.000000
vt 0.200000 0.000000
vt 1.000000 0.000000
vt 0.600000 0.000000
vt 0.800000 0.000000
vt 0.000000 1.000000
vt 0.083333 1.000000
vt 0.083333 0.833333
vt 0.000000 0.833333
vt 0.000000 0.166667
vt 0.083333 0.166667
vt 0.083333 0.000000
vt 0.000000 0.333333
vt 0.083333 0.333333
vt 0.000000 0.500000
vt 0.083333 0.500000
vt 0.000000 0.666667
vt 0.083333 0.666667
vt 0.166667 1.000000
vt 0.166667 0.833333
vt 0.166667 0.166667
vt 0.166667 0.000000
vt 0.166667 0.333333
vt 0.166667 0.500000
vt 0.166667 0.666667
vt 0.250000 1.000000
vt 0.250000 0.833333
vt 0.250000 0.166667
vt 0.250000 0.000000
vt 0.250000 0.333333
vt 0.250000 0.500000
vt 0.250000 0.666667
vt 0.333333 1.000000
vt 0.333333 0.833333
vt 0.333333 0.166667
vt 0.333333 0.000000
vt 0.333333 0.333333
vt 0.333333 0.500000
vt 0.333333 0.666667
vt 0.416667 1.000000
vt 0.416667 0.833333
vt 0.416667 0.166667
vt 0.416667 0.000000
vt 0.416667 0.333333
vt 0.416667 0.500000
vt 0.416667 0.666667
vt 0.500000 1.000000
vt 0.500000 0.833333
vt 0.500000 0.166667
vt 0.500000 0.000000
vt 0.500000 0.333333
vt 0.500000 0.500000
vt 0.500000 0.666667
vt 0.583333 1.000000
vt 0.583333 0.833333
vt 0.583333 0.166667
vt 0.583333 0.000000
vt 0.583333 0.333333
vt 0.583333 0.500000
vt 0.583333 0.666667
vt 0.666667 1.000000
vt 0.666667 0.833333
vt 0.666667 0.166667
vt 0.666667 0.000000
vt 0.666667 0.333333
vt 0.666667 0.500000
vt 0.666667 0.666667
vt 0.750000 1.000000
vt 0.750000 0.833333
vt 0.750000 0.166667
vt 0.750000 0.000000
vt 0.750000 0.333333
vt 0.750000 0.500000
vt 0.750000 0.666667
vt 0.833333 1.000000
vt 0.833333 0.833333
vt 0.833333 0.166667
vt 0.833333 0.000000
vt 0.833333 0.333333
vt 0.833333 0.500000
vt 0.833333 0.666667
vt 0.916667 1.000000
vt 0.916667 0.833333
vt 0.916667 0.166667
vt 0.916667 0.000000
vt 0.916667 0.333333
vt 0.916667 0.500000
vt 0.916667 0.666667
vt 1.000000 1.000000
vt 1.000000 0.833333
vt 1.000000 0.166667
vt 1.000000 0.333333
vt 1.000000 0.500000
vt 1.000000 0.666667
s 1
g E_PocketStitch.001_apron_stitch
usemtl apron_stitch
f 381/290/451 379/291/451 380/292/451
f 381/290/451 384/293/451 379/291/451
f 382/294/451 384/293/451 381/290/451
f 382/294/451 383/295/451 384/293/451
s 2
f 386/292/451 388/294/451 387/290/451
f 385/291/451 388/294/451 386/292/451
f 385/291/451 389/295/451 388/294/451
f 390/293/451 389/295/451 385/291/451
s 3
f 391/296/452 397/297/458 402/298/463 396/299/457
f 392/300/453 398/301/459 397/302/458 391/291/452
f 393/303/454 399/304/460 398/301/459 392/300/453
f 394/305/455 400/306/461 399/304/460 393/303/454
f 395/307/456 401/308/462 400/306/461 394/305/455
f 396/299/457 402/298/463 401/308/462 395/307/456
f 397/297/458 403/309/464 408/310/469 402/298/463
f 398/301/459 404/311/465 403/312/464 397/302/458
f 399/304/460 405/313/466 404/311/465 398/301/459
f 400/306/461 406/314/467 405/313/466 399/304/460
f 401/308/462 407/315/468 406/314/467 400/306/461
f 402/298/463 408/310/469 407/315/468 401/308/462
f 403/309/464 409/316/470 414/317/475 408/310/469
f 404/311/465 410/318/471 409/319/470 403/312/464
f 405/313/466 411/320/472 410/318/471 404/311/465
f 406/314/467 412/321/473 411/320/472 405/313/466
f 407/315/468 413/322/474 412/321/473 406/314/467
f 408/310/469 414/317/475 413/322/474 407/315/468
f 409/316/470 415/323/476 420/324/481 414/317/475
f 410/318/471 416/325/477 415/326/476 409/319/470
f 411/320/472 417/327/478 416/325/477 410/318/471
f 412/321/473 418/328/479 417/327/478 411/320/472
f 413/322/474 419/329/480 418/328/479 412/321/473
f 414/317/475 420/324/481 419/329/480 413/322/474
f 415/323/476 421/330/482 426/331/487 420/324/481
f 416/325/477 422/332/483 421/333/482 415/326/476
f 417/327/478 423/334/484 422/332/483 416/325/477
f 418/328/479 424/335/485 423/334/484 417/327/478
f 419/329/480 425/336/486 424/335/485 418/328/479
f 420/324/481 426/331/487 425/336/486 419/329/480
f 421/330/482 427/337/488 432/338/492 426/331/487
f 422/332/483 428/339/489 427/340/488 421/333/482
f 423/334/484 429/341/451 428/339/489 422/332/483
f 424/335/485 430/342/490 429/341/451 423/334/484
f 425/336/486 431/343/491 430/342/490 424/335/485
f 426/331/487 432/338/492 431/343/491 425/336/486
f 427/337/488 433/344/493 438/345/498 432/338/492
f 428/339/489 434/346/494 433/347/493 427/340/488
f 429/341/451 435/348/495 434/346/494 428/339/489
f 430/342/490 436/349/496 435/348/495 429/341/451
f 431/343/491 437/350/497 436/349/496 430/342/490
f 432/338/492 438/345/498 437/350/497 431/343/491
f 433/344/493 439/351/499 444/352/504 438/345/498
f 434/346/494 440/353/500 439/354/499 433/347/493
f 435/348/495 441/355/501 440/353/500 434/346/494
f 436/349/496 442/356/502 441/355/501 435/348/495
f 437/350/497 443/357/503 442/356/502 436/349/496
f 438/345/498 444/352/504 443/357/503 437/350/497
f 439/351/499 445/358/505 450/359/510 444/352/504
f 440/353/500 446/360/506 445/361/505 439/354/499
f 441/355/501 447/362/507 446/360/506 440/353/500
f 442/356/502 448/363/508 447/362/507 441/355/501
f 443/357/503 449/364/509 448/363/508 442/356/502
f 444/352/504 450/359/510 449/364/509 443/357/503
f 445/358/505 451/365/511 456/366/516 450/359/510
f 446/360/506 452/367/512 451/368/511 445/361/505
f 447/362/507 453/369/513 452/367/512 446/360/506
f 448/363/508 454/370/514 453/369/513 447/362/507
f 449/364/509 455/371/515 454/370/514 448/363/508
f 450/359/510 456/366/516 455/371/515 449/364/509
f 451/365/511 457/372/517 462/373/522 456/366/516
f 452/367/512 458/374/518 457/375/517 451/368/511
f 453/369/513 459/376/519 458/374/518 452/367/512
f 454/370/514 460/377/520 459/376/519 453/369/513
f 455/371/515 461/378/521 460/377/520 454/370/514
f 456/366/516 462/373/522 461/378/521 455/371/515
f 457/372/517 463/379/523 468/380/528 462/373/522
f 458/374/518 464/381/524 463/293/523 457/375/517
f 459/376/519 465/382/525 464/381/524 458/374/518
f 460/377/520 466/383/526 465/382/525 459/376/519
f 461/378/521 467/384/527 466/383/526 460/377/520
f 462/373/522 468/380/528 467/384/527 461/378/521
g E_PocketStitch.001_E_PocketStitch.001
v 0.203500 -0.200000 0.113938
v 0.196500 -0.200000 0.113938
v 0.193000 -0.200000 0.120000
v 0.196500 -0.200000 0.126062
v 0.203500 -0.200000 0.126062
v 0.207000 -0.200000 0.120000
v -0.203500 -0.200000 0.113938
v -0.196500 -0.200000 0.113938
v -0.193000 -0.200000 0.120000
v -0.196500 -0.200000 0.126062
v -0.203500 -0.200000 0.126062
v -0.207000 -0.200000 0.120000
v -0.203500 -0.200000 0.113938
v -0.196500 -0.200000 0.113938
v -0.193000 -0.200000 0.120000
v -0.196500 -0.200000 0.126062
v -0.203500 -0.200000 0.126062
v -0.207000 -0.200000 0.120000
v -0.216107 -0.283557 0.113938
v -0.209194 -0.284657 0.113938
v -0.205738 -0.285207 0.120000
v -0.209194 -0.284657 0.126062
v -0.216107 -0.283557 0.126062
v -0.219564 -0.283007 0.120000
v -0.228788 -0.359773 0.113938
v -0.221816 -0.359150 0.113938
v -0.218329 -0.358839 0.120000
v -0.221816 -0.359150 0.126062
v -0.228788 -0.359773 0.126062
v -0.232274 -0.360084 0.120000
v -0.202757 -0.432156 0.113938
v -0.197243 -0.427844 0.113938
v -0.194485 -0.425689 0.120000
v -0.197243 -0.427844 0.126062
v -0.202757 -0.432156 0.126062
v -0.205515 -0.434311 0.120000
v -0.144558 -0.471044 0.113938
v -0.142254 -0.464434 0.113938
v -0.141103 -0.461129 0.120000
v -0.142254 -0.464434 0.126062
v -0.144558 -0.471044 0.126062
v -0.145710 -0.474349 0.120000
v -0.076092 -0.476813 0.113938
v -0.075956 -0.469815 0.113938
v -0.075887 -0.466315 0.120000
v -0.075956 -0.469815 0.126062
v -0.076092 -0.476813 0.126062
v -0.076160 -0.480313 0.120000
v 0.000000 -0.473500 0.113938
v 0.000000 -0.466500 0.113938
v 0.000000 -0.463000 0.120000
v -0.000000 -0.466500 0.126062
v -0.000000 -0.473500 0.126062
v -0.000000 -0.477000 0.120000
v 0.076092 -0.476813 0.113938
v 0.075956 -0.469815 0.113938
v 0.075887 -0.466315 0.120000
v 0.075956 -0.469815 0.126062
v 0.076092 -0.476813 0.126062
v 0.076160 -0.480313 0.120000
v 0.144558 -0.471044 0.113938
v 0.142254 -0.464434 0.113938
v 0.141103 -0.461129 0.120000
v 0.142254 -0.464434 0.126062
v 0.144558 -0.471044 0.126062
v 0.145710 -0.474349 0.120000
v 0.202757 -0.432156 0.113938
v 0.197243 -0.427844 0.113938
v 0.194485 -0.425689 0.120000
v 0.197243 -0.427844 0.126062
v 0.202757 -0.432156 0.126062
v 0.205515 -0.434311 0.120000
v 0.228788 -0.359773 0.113938
v 0.221816 -0.359150 0.113938
v 0.218329 -0.358839 0.120000
v 0.221816 -0.359150 0.126062
v 0.228788 -0.359773 0.126062
v 0.232274 -0.360084 0.120000
v 0.216107 -0.283557 0.113938
v 0.209194 -0.284657 0.113938
v 0.205738 -0.285207 0.120000
v 0.209194 -0.284657 0.126062
v 0.216107 -0.283557 0.126062
v 0.219564 -0.283007 0.120000
v 0.203500 -0.200000 0.113938
v 0.196500 -0.200000 0.113938
v 0.193000 -0.200000 0.120000
v 0.196500 -0.200000 0.126062
v 0.203500 -0.200000 0.126062
v 0.207000 -0.200000 0.120000
vn -0.0000 1.0000 -0.0000
vn -0.4615 0.0696 -0.8844
vn 0.5321 -0.0796 -0.8430
vn 0.9890 -0.1478 -0.0000
vn 0.5321 -0.0796 0.8430
vn -0.4615 0.0696 0.8844
vn -0.9888 0.1492 -0.0000
vn -0.4921 0.0782 -0.8670
vn 0.4961 -0.0796 -0.8646
vn 0.9874 -0.1584 -0.0000
vn 0.4961 -0.0796 0.8646
vn -0.4921 0.0782 0.8670
vn -0.9876 0.1569 -0.0000
vn -0.5535 -0.0505 -0.8313
vn 0.4326 0.0380 -0.9008
vn 0.9962 0.0871 -0.0000
vn 0.4326 0.0380 0.9008
vn -0.5535 -0.0505 0.8313
vn -0.9959 -0.0907 -0.0000
vn -0.4476 -0.3499 -0.8229
vn 0.3278 0.2563 -0.9093
vn 0.7878 0.6160 -0.0000
vn 0.3278 0.2563 0.9093
vn -0.4476 -0.3499 0.8229
vn -0.7879 -0.6158 -0.0000
vn -0.1838 -0.5240 -0.8316
vn 0.1425 0.4110 -0.9004
vn 0.3272 0.9450 -0.0000
vn 0.1425 0.4110 0.9004
vn -0.1838 -0.5240 0.8316
vn -0.3308 -0.9437 -0.0000
vn -0.0105 -0.5148 -0.8572
vn 0.0087 0.4850 -0.8745
vn 0.0178 0.9998 -0.0000
vn 0.0087 0.4850 0.8745
vn -0.0105 -0.5148 0.8572
vn -0.0203 -0.9998 -0.0000
vn -0.0000 -0.4895 -0.8720
vn -0.0000 0.5103 -0.8600
vn -0.0000 0.5103 0.8600
vn -0.0000 -0.4895 0.8720
vn -0.0000 -1.0000 -0.0000
vn 0.0105 -0.5148 -0.8572
vn -0.0087 0.4850 -0.8745
vn -0.0178 0.9998 -0.0000
vn -0.0087 0.4850 0.8745
vn 0.0105 -0.5148 0.8572
vn 0.0203 -0.9998 -0.0000
vn 0.1838 -0.5240 -0.8316
vn -0.1425 0.4110 -0.9004
vn -0.3272 0.9450 -0.0000
vn -0.1425 0.4110 0.9004
vn 0.1838 -0.5240 0.8316
vn 0.3308 -0.9437 -0.0000
vn 0.4476 -0.3499 -0.8229
vn -0.3278 0.2563 -0.9093
vn -0.7878 0.6160 -0.0000
vn -0.3278 0.2563 0.9093
vn 0.4476 -0.3499 0.8229
vn 0.7879 -0.6158 -0.0000
vn 0.5535 -0.0505 -0.8313
vn -0.4326 0.0380 -0.9008
vn -0.9962 0.0871 -0.0000
vn -0.4326 0.0380 0.9008
vn 0.5535 -0.0505 0.8313
vn 0.9959 -0.0907 -0.0000
vn 0.4921 0.0782 -0.8670
vn -0.4961 -0.0796 -0.8646
vn -0.9874 -0.1584 -0.0000
vn -0.4961 -0.0796 0.8646
vn 0.4921 0.0782 0.8670
vn 0.9876 0.1569 -0.0000
vn 0.4615 0.0696 -0.8844
vn -0.5321 -0.0796 -0.8430
vn -0.9890 -0.1478 -0.0000
vn -0.5321 -0.0796 0.8430
vn 0.4615 0.0696 0.8844
vn 0.9888 0.1492 -0.0000
vt 0.400000 0.000000
vt 0.000000 0.000000
vt 0.200000 0.000000
vt 1.000000 0.000000
vt 0.600000 0.000000
vt 0.800000 0.000000
vt 0.083333 1.000000
vt 0.000000 0.833333
vt 0.000000 1.000000
vt 0.083333 0.166667
vt 0.000000 0.166667
vt 0.083333 0.333333
vt 0.000000 0.333333
vt 0.000000 0.500000
vt 0.000000 0.666667
vt 0.083333 0.500000
vt 0.083333 0.666667
vt 0.166667 1.000000
vt 0.083333 0.833333
vt 0.166667 0.166667
vt 0.083333 0.000000
vt 0.166667 0.333333
vt 0.166667 0.500000
vt 0.166667 0.666667
vt 0.250000 1.000000
vt 0.166667 0.833333
vt 0.250000 0.166667
vt 0.166667 0.000000
vt 0.250000 0.333333
vt 0.250000 0.500000
vt 0.250000 0.666667
vt 0.333333 0.833333
vt 0.250000 0.833333
vt 0.333333 0.000000
vt 0.250000 0.000000
vt 0.333333 0.166667
vt 0.333333 0.500000
vt 0.333333 0.666667
vt 0.333333 1.000000
vt 0.416667 0.833333
vt 0.416667 0.000000
vt 0.333333 0.333333
vt 0.416667 0.166667
vt 0.416667 0.500000
vt 0.416667 0.666667
vt 0.416667 1.000000
vt 0.500000 0.833333
vt 0.500000 0.000000
vt 0.416667 0.333333
vt 0.500000 0.166667
vt 0.500000 0.500000
vt 0.500000 0.666667
vt 0.583333 1.000000
vt 0.500000 1.000000
vt 0.583333 0.166667
vt 0.583333 0.333333
vt 0.500000 0.333333
vt 0.583333 0.500000
vt 0.583333 0.666667
vt 0.666667 1.000000
vt 0.583333 0.833333
vt 0.666667 0.166667
vt 0.583333 0.000000
vt 0.666667 0.333333
vt 0.666667 0.500000
vt 0.666667 0.666667
vt 0.750000 1.000000
vt 0.666667 0.833333
vt 0.750000 0.166667
vt 0.666667 0.000000
vt 0.750000 0.333333
vt 0.750000 0.500000
vt 0.750000 0.666667
vt 0.833333 0.833333
vt 0.750000 0.833333
vt 0.833333 0.000000
vt 0.750000 0.000000
vt 0.833333 0.166667
vt 0.833333 0.500000
vt 0.833333 0.666667
vt 0.833333 1.000000
vt 0.916667 0.833333
vt 0.916667 0.000000
vt 0.833333 0.333333
vt 0.916667 0.166667
vt 0.916667 0.500000
vt 0.916667 0.666667
vt 0.916667 1.000000
vt 1.000000 0.833333
vt 0.916667 0.333333
vt 1.000000 0.166667
vt 1.000000 0.500000
vt 1.000000 0.666667
vt 1.000000 1.000000
vt 1.000000 0.333333
s 1
g E_PocketStitch.001_apron_stitch
usemtl apron_stitch
f 471/385/529 469/386/529 470/387/529
f 471/385/529 474/388/529 469/386/529
f 472/389/529 474/388/529 471/385/529
f 472/389/529 473/390/529 474/388/529
s 2
f 476/387/529 478/389/529 477/385/529
f 475/386/529 478/389/529 476/387/529
f 475/386/529 479/390/529 478/389/529
f 480/388/529 479/390/529 475/386/529
s 3
f 487/391/536 486/392/535 481/393/530
f 488/394/537 481/386/530 482/395/531
f 489/396/538 482/395/531 483/397/532
f 484/398/533 489/396/538 483/397/532
f 485/399/534 490/400/539 484/398/533
f 486/392/535 491/401/540 485/399/534
f 493/402/542 492/403/541 487/391/536
f 494/404/543 487/405/536 488/394/537
f 495/406/544 488/394/537 489/396/538
f 490/400/539 495/406/544 489/396/538
f 491/401/540 496/407/545 490/400/539
f 492/403/541 497/408/546 491/401/540
f 499/409/548 498/410/547 493/402/542
f 500/411/549 493/412/542 494/404/543
f 501/413/550 494/404/543 495/406/544
f 496/407/545 501/413/550 495/406/544
f 497/408/546 502/414/551 496/407/545
f 498/410/547 503/415/552 497/408/546
f 499/409/548 510/416/559 504/417/553
f 500/411/549 505/418/554 499/419/548
f 501/413/550 506/420/555 500/411/549
f 508/421/557 501/413/550 502/414/551
f 509/422/558 502/414/551 503/415/552
f 510/416/559 503/415/552 504/417/553
f 505/423/554 516/424/565 510/416/559
f 506/420/555 511/425/560 505/418/554
f 507/426/556 512/427/561 506/420/555
f 514/428/563 507/426/556 508/421/557
f 515/429/564 508/421/557 509/422/558
f 516/424/565 509/422/558 510/416/559
f 511/430/560 522/431/570 516/424/565
f 512/427/561 517/432/566 511/425/560
f 513/433/562 518/434/567 512/427/561
f 520/435/568 513/433/562 514/428/563
f 521/436/569 514/428/563 515/429/564
f 522/431/570 515/429/564 516/424/565
f 523/437/571 522/431/570 517/438/566
f 524/439/572 517/432/566 518/434/567
f 525/440/573 518/434/567 519/441/529
f 520/435/568 525/440/573 519/441/529
f 521/436/569 526/442/574 520/435/568
f 522/431/570 527/443/575 521/436/569
f 529/444/577 528/445/576 523/437/571
f 530/446/578 523/447/571 524/439/572
f 531/448/579 524/439/572 525/440/573
f 526/442/574 531/448/579 525/440/573
f 527/443/575 532/449/580 526/442/574
f 528/445/576 533/450/581 527/443/575
f 535/451/583 534/452/582 529/444/577
f 536/453/584 529/454/577 530/446/578
f 537/455/585 530/446/578 531/448/579
f 532/449/580 537/455/585 531/448/579
f 533/450/581 538/456/586 532/449/580
f 534/452/582 539/457/587 533/450/581
f 535/451/583 546/458/594 540/459/588
f 536/453/584 541/460/589 535/461/583
f 537/455/585 542/462/590 536/453/584
f 544/463/592 537/455/585 538/456/586
f 545/464/593 538/456/586 539/457/587
f 546/458/594 539/457/587 540/459/588
f 541/465/589 552/466/600 546/458/594
f 542/462/590 547/467/595 541/460/589
f 543/468/591 548/469/596 542/462/590
f 550/470/598 543/468/591 544/463/592
f 551/471/599 544/463/592 545/464/593
f 552/466/600 545/464/593 546/458/594
f 547/472/595 558/473/606 552/466/600
f 548/469/596 553/388/601 547/467/595
f 549/474/597 554/475/602 548/469/596
f 556/476/604 549/474/597 550/470/598
f 557/477/605 550/470/598 551/471/599
f 558/473/606 551/471/599 552/466/600
f 487/391/536 492/403/541 486/392/535
f 488/394/537 487/405/536 481/386/530
f 489/396/538 488/394/537 482/395/531
f 484/398/533 490/400/539 489/396/538
f 485/399/534 491/401/540 490/400/539
f 486/392/535 492/403/541 491/401/540
f 493/402/542 498/410/547 492/403/541
f 494/404/543 493/412/542 487/405/536
f 495/406/544 494/404/543 488/394/537
f 490/400/539 496/407/545 495/406/544
f 491/401/540 497/408/546 496/407/545
f 492/403/541 498/410/547 497/408/546
f 499/409/548 504/417/553 498/410/547
f 500/411/549 499/419/548 493/412/542
f 501/413/550 500/411/549 494/404/543
f 496/407/545 502/414/551 501/413/550
f 497/408/546 503/415/552 502/414/551
f 498/410/547 504/417/553 503/415/552
f 499/409/548 505/423/554 510/416/559
f 500/411/549 506/420/555 505/418/554
f 501/413/550 507/426/556 506/420/555
f 508/421/557 507/426/556 501/413/550
f 509/422/558 508/421/557 502/414/551
f 510/416/559 509/422/558 503/415/552
f 505/423/554 511/430/560 516/424/565
f 506/420/555 512/427/561 511/425/560
f 507/426/556 513/433/562 512/427/561
f 514/428/563 513/433/562 507/426/556
f 515/429/564 514/428/563 508/421/557
f 516/424/565 515/429/564 509/422/558
f 511/430/560 517/438/566 522/431/570
f 512/427/561 518/434/567 517/432/566
f 513/433/562 519/441/529 518/434/567
f 520/435/568 519/441/529 513/433/562
f 521/436/569 520/435/568 514/428/563
f 522/431/570 521/436/569 515/429/564
f 523/437/571 528/445/576 522/431/570
f 524/439/572 523/447/571 517/432/566
f 525/440/573 524/439/572 518/434/567
f 520/435/568 526/442/574 525/440/573
f 521/436/569 527/443/575 526/442/574
f 522/431/570 528/445/576 527/443/575
f 529/444/577 534/452/582 528/445/576
f 530/446/578 529/454/577 523/447/571
f 531/448/579 530/446/578 524/439/572
f 526/442/574 532/449/580 531/448/579
f 527/443/575 533/450/581 532/449/580
f 528/445/576 534/452/582 533/450/581
f 535/451/583 540/459/588 534/452/582
f 536/453/584 535/461/583 529/454/577
f 537/455/585 536/453/584 530/446/578
f 532/449/580 538/456/586 537/455/585
f 533/450/581 539/457/587 538/456/586
f 534/452/582 540/459/588 539/457/587
f 535/451/583 541/465/589 546/458/594
f 536/453/584 542/462/590 541/460/589
f 537/455/585 543/468/591 542/462/590
f 544/463/592 543/468/591 537/455/585
f 545/464/593 544/463/592 538/456/586
f 546/458/594 545/464/593 539/457/587
f 541/465/589 547/472/595 552/466/600
f 542/462/590 548/469/596 547/467/595
f 543/468/591 549/474/597 548/469/596
f 550/470/598 549/474/597 543/468/591
f 551/471/599 550/470/598 544/463/592
f 552/466/600 551/471/599 545/464/593
f 547/472/595 553/478/601 558/473/606
f 548/469/596 554/475/602 553/388/601
f 549/474/597 555/479/603 554/475/602
f 556/476/604 555/479/603 549/474/597
f 557/477/605 556/476/604 550/470/598
f 558/473/606 557/477/605 551/471/599
