# Blender 5.2.2 LTS
# www.blender.org
mtllib bacchus_wine.mtl
g A_Flask.001_A_Flask.001
v 0.000000 0.030000 0.000000
v 0.340000 0.020000 0.000000
v 0.314119 0.020000 -0.130112
v 0.240416 0.020000 -0.240416
v 0.130112 0.020000 -0.314119
v 0.000000 0.020000 -0.340000
v -0.130112 0.020000 -0.314119
v -0.240416 0.020000 -0.240416
v -0.314119 0.020000 -0.130112
v -0.340000 0.020000 -0.000000
v -0.314119 0.020000 0.130112
v -0.240416 0.020000 0.240416
v -0.130112 0.020000 0.314119
v -0.000000 0.020000 0.340000
v 0.130112 0.020000 0.314119
v 0.240416 0.020000 0.240416
v 0.314119 0.020000 0.130112
v 0.380000 0.100000 0.000000
v 0.351074 0.100000 -0.145420
v 0.268701 0.100000 -0.268701
v 0.145420 0.100000 -0.351074
v 0.000000 0.100000 -0.380000
v -0.145420 0.100000 -0.351074
v -0.268701 0.100000 -0.268701
v -0.351074 0.100000 -0.145420
v -0.380000 0.100000 -0.000000
v -0.351074 0.100000 0.145420
v -0.268701 0.100000 0.268701
v -0.145420 0.100000 0.351074
v -0.000000 0.100000 0.380000
v 0.145420 0.100000 0.351074
v 0.268701 0.100000 0.268701
v 0.351074 0.100000 0.145420
v 0.380000 1.400000 0.000000
v 0.351074 1.400000 -0.145420
v 0.268701 1.400000 -0.268701
v 0.145420 1.400000 -0.351074
v 0.000000 1.400000 -0.380000
v -0.145420 1.400000 -0.351074
v -0.268701 1.400000 -0.268701
v -0.351074 1.400000 -0.145420
v -0.380000 1.400000 -0.000000
v -0.351074 1.400000 0.145420
v -0.268701 1.400000 0.268701
v -0.145420 1.400000 0.351074
v -0.000000 1.400000 0.380000
v 0.145420 1.400000 0.351074
v 0.268701 1.400000 0.268701
v 0.351074 1.400000 0.145420
v 0.212132 1.700000 -0.212132
v 0.114805 1.700000 -0.277164
v 0.000000 1.700000 -0.300000
v -0.114805 1.700000 -0.277164
v -0.212132 1.700000 -0.212132
v -0.277164 1.700000 -0.114805
v -0.300000 1.700000 -0.000000
v -0.277164 1.700000 0.114805
v -0.212132 1.700000 0.212132
v -0.114805 1.700000 0.277164
v -0.000000 1.700000 0.300000
v 0.114805 1.700000 0.277164
v 0.212132 1.700000 0.212132
v 0.140000 2.000000 0.000000
v 0.129343 2.000000 -0.053576
v 0.098995 2.000000 -0.098995
v 0.053576 2.000000 -0.129343
v 0.000000 2.000000 -0.140000
v -0.053576 2.000000 -0.129343
v -0.098995 2.000000 -0.098995
v -0.129343 2.000000 -0.053576
v -0.140000 2.000000 -0.000000
v -0.129343 2.000000 0.053576
v -0.098995 2.000000 0.098995
v -0.053576 2.000000 0.129343
v -0.000000 2.000000 0.140000
v 0.053576 2.000000 0.129343
v 0.098995 2.000000 0.098995
v 0.129343 2.000000 0.053576
v 0.130000 2.500000 0.000000
v 0.120104 2.500000 -0.049749
v 0.091924 2.500000 -0.091924
v 0.049749 2.500000 -0.120104
v 0.000000 2.500000 -0.130000
v -0.049749 2.500000 -0.120104
v -0.091924 2.500000 -0.091924
v -0.120104 2.500000 -0.049749
v -0.130000 2.500000 -0.000000
v -0.120104 2.500000 0.049749
v -0.091924 2.500000 0.091924
v -0.049749 2.500000 0.120104
v -0.000000 2.500000 0.130000
v 0.049749 2.500000 0.120104
v 0.091924 2.500000 0.091924
v 0.120104 2.500000 0.049749
v 0.170000 2.520000 0.000000
v 0.157060 2.520000 -0.065056
v 0.120208 2.520000 -0.120208
v 0.065056 2.520000 -0.157060
v 0.000000 2.520000 -0.170000
v -0.065056 2.520000 -0.157060
v -0.120208 2.520000 -0.120208
v -0.157060 2.520000 -0.065056
v -0.170000 2.520000 -0.000000
v -0.157060 2.520000 0.065056
v -0.120208 2.520000 0.120208
v -0.065056 2.520000 0.157060
v -0.000000 2.520000 0.170000
v 0.065056 2.520000 0.157060
v 0.120208 2.520000 0.120208
v 0.157060 2.520000 0.065056
v 0.170000 2.620000 0.000000
v 0.157060 2.620000 -0.065056
v 0.120208 2.620000 -0.120208
v 0.065056 2.620000 -0.157060
v 0.000000 2.620000 -0.170000
v -0.065056 2.620000 -0.157060
v -0.120208 2.620000 -0.120208
v -0.157060 2.620000 -0.065056
v -0.170000 2.620000 -0.000000
v -0.157060 2.620000 0.065056
v -0.120208 2.620000 0.120208
v -0.065056 2.620000 0.157060
v -0.000000 2.620000 0.170000
v 0.065056 2.620000 0.157060
v 0.120208 2.620000 0.120208
v 0.157060 2.620000 0.065056
v 0.130000 2.650000 0.000000
v 0.120104 2.650000 -0.049749
v 0.091924 2.650000 -0.091924
v 0.049749 2.650000 -0.120104
v 0.000000 2.650000 -0.130000
v -0.049749 2.650000 -0.120104
v -0.091924 2.650000 -0.091924
v -0.120104 2.650000 -0.049749
v -0.130000 2.650000 -0.000000
v -0.120104 2.650000 0.049749
v -0.091924 2.650000 0.091924
v -0.049749 2.650000 0.120104
v -0.000000 2.650000 0.130000
v 0.049749 2.650000 0.120104
v 0.091924 2.650000 0.091924
v 0.120104 2.650000 0.049749
v 0.000000 0.080022 -0.000000
v 0.306395 0.069802 0.000000
v 0.283072 0.069802 -0.117252
v 0.216654 0.069802 -0.216654
v 0.117252 0.069802 -0.283072
v 0.000000 0.069802 -0.306395
v -0.117252 0.069802 -0.283072
v -0.216654 0.069802 -0.216654
v -0.283072 0.069802 -0.117252
v -0.306395 0.069802 -0.000000
v -0.283072 0.069802 0.117252
v -0.216654 0.069802 0.216654
v -0.117252 0.069802 0.283072
v -0.000000 0.069802 0.306395
v 0.117252 0.069802 0.283072
v 0.216654 0.069802 0.216654
v 0.283072 0.069802 0.117252
v 0.329043 0.111691 0.000000
v 0.303996 0.111691 -0.125919
v 0.232668 0.111691 -0.232668
v 0.125919 0.111691 -0.303996
v 0.000000 0.111691 -0.329043
v -0.125919 0.111691 -0.303996
v -0.232668 0.111691 -0.232668
v -0.303996 0.111691 -0.125919
v -0.329043 0.111691 -0.000000
v -0.303996 0.111691 0.125919
v -0.232668 0.111691 0.232668
v -0.125919 0.111691 0.303996
v -0.000000 0.111691 0.329043
v 0.125919 0.111691 0.303996
v 0.232668 0.111691 0.232668
v 0.303996 0.111691 0.125919
v 0.329039 1.393428 0.000000
v 0.303993 1.393428 -0.125918
v 0.232666 1.393428 -0.232666
v 0.125918 1.393428 -0.303993
v 0.000000 1.393428 -0.329039
v -0.125918 1.393428 -0.303993
v -0.232666 1.393428 -0.232666
v -0.303993 1.393428 -0.125918
v -0.329039 1.393428 -0.000000
v -0.303993 1.393428 0.125918
v -0.232666 1.393428 0.232666
v -0.125918 1.393428 0.303993
v -0.000000 1.393428 0.329039
v 0.125918 1.393428 0.303993
v 0.232666 1.393428 0.232666
v 0.303993 1.393428 0.125918
v 0.178397 1.681486 -0.178397
v 0.096548 1.681486 -0.233087
v 0.000000 1.681486 -0.252292
v -0.096548 1.681486 -0.233087
v -0.178397 1.681486 -0.178397
v -0.233087 1.681486 -0.096548
v -0.252292 1.681486 -0.000000
v -0.233087 1.681486 0.096548
v -0.178397 1.681486 0.178397
v -0.096548 1.681486 0.233087
v -0.000000 1.681486 0.252292
v 0.096548 1.681486 0.233087
v 0.178397 1.681486 0.178397
v 0.089476 1.986420 0.000000
v 0.082665 1.986420 -0.034241
v 0.063269 1.986420 -0.063269
v 0.034241 1.986420 -0.082665
v 0.000000 1.986420 -0.089476
v -0.034241 1.986420 -0.082665
v -0.063269 1.986420 -0.063269
v -0.082665 1.986420 -0.034241
v -0.089476 1.986420 -0.000000
v -0.082665 1.986420 0.034241
v -0.063269 1.986420 0.063269
v -0.034241 1.986420 0.082665
v -0.000000 1.986420 0.089476
v 0.034241 1.986420 0.082665
v 0.063269 1.986420 0.063269
v 0.082665 1.986420 0.034241
v 0.079815 2.532956 0.000000
v 0.073739 2.532956 -0.030544
v 0.056438 2.532956 -0.056438
v 0.030544 2.532956 -0.073739
v 0.000000 2.532956 -0.079815
v -0.030544 2.532956 -0.073739
v -0.056438 2.532956 -0.056438
v -0.073739 2.532956 -0.030544
v -0.079815 2.532956 -0.000000
v -0.073739 2.532956 0.030544
v -0.056438 2.532956 0.056438
v -0.030544 2.532956 0.073739
v -0.000000 2.532956 0.079815
v 0.030544 2.532956 0.073739
v 0.056438 2.532956 0.056438
v 0.073739 2.532956 0.030544
v 0.118373 2.549683 0.000000
v 0.109363 2.549683 -0.045300
v 0.083703 2.549683 -0.083703
v 0.045300 2.549683 -0.109363
v 0.000000 2.549683 -0.118373
v -0.045300 2.549683 -0.109363
v -0.083703 2.549683 -0.083703
v -0.109363 2.549683 -0.045300
v -0.118373 2.549683 -0.000000
v -0.109363 2.549683 0.045300
v -0.083703 2.549683 0.083703
v -0.045300 2.549683 0.109363
v -0.000000 2.549683 0.118373
v 0.045300 2.549683 0.109363
v 0.083703 2.549683 0.083703
v 0.109363 2.549683 0.045300
v 0.118729 2.595833 0.000000
v 0.109692 2.595833 -0.045436
v 0.083954 2.595833 -0.083954
v 0.045436 2.595833 -0.109692
v 0.000000 2.595833 -0.118729
v -0.045436 2.595833 -0.109692
v -0.083954 2.595833 -0.083954
v -0.109692 2.595833 -0.045436
v -0.118729 2.595833 -0.000000
v -0.109692 2.595833 0.045436
v -0.083954 2.595833 0.083954
v -0.045436 2.595833 0.109692
v -0.000000 2.595833 0.118729
v 0.045436 2.595833 0.109692
v 0.083954 2.595833 0.083954
v 0.109692 2.595833 0.045436
v 0.099787 2.609716 0.000000
v 0.092191 2.609716 -0.038187
v 0.070560 2.609716 -0.070560
v 0.038187 2.609716 -0.092191
v 0.000000 2.609716 -0.099787
v -0.038187 2.609716 -0.092191
v -0.070560 2.609716 -0.070560
v -0.092191 2.609716 -0.038187
v -0.099787 2.609716 -0.000000
v -0.092191 2.609716 0.038187
v -0.070560 2.609716 0.070560
v -0.038187 2.609716 0.092191
v -0.000000 2.609716 0.099787
v 0.038187 2.609716 0.092191
v 0.070560 2.609716 0.070560
v 0.092191 2.609716 0.038187
v 0.285442 1.666400 -0.118234
v 0.308723 1.611969 -0.074164
v 0.323475 1.611969 0.000000
v 0.256696 1.700000 -0.145437
v 0.285442 1.666400 0.118234
v 0.256696 1.700000 0.145437
v 0.308723 1.611969 0.074164
v 0.190000 1.876898 -0.078701
v 0.190000 1.906250 0.000000
v 0.190938 1.756199 -0.190938
v 0.190000 1.758686 -0.190000
v 0.190000 1.756635 -0.191291
v 0.190000 1.758686 0.190000
v 0.190938 1.756199 0.190938
v 0.190000 1.756635 0.191291
v 0.190000 1.876898 0.078701
v 0.270813 1.611969 0.000000
v 0.242241 1.644299 -0.100339
v 0.256061 1.611969 -0.074164
v 0.210436 1.681486 -0.130448
v 0.210436 1.681486 0.130448
v 0.242241 1.644299 0.100339
v 0.256061 1.611969 0.074164
v 0.190000 1.798151 0.000000
v 0.190000 1.768832 -0.078701
v 0.190000 1.698941 -0.144580
v 0.190000 1.698941 0.144580
v 0.190000 1.768832 0.078701
vn -0.0294 -0.9996 0.0058
vn -0.0249 -0.9996 0.0167
vn -0.0167 -0.9996 0.0249
vn -0.0058 -0.9996 0.0294
vn 0.0058 -0.9996 0.0294
vn 0.0167 -0.9996 0.0249
vn 0.0249 -0.9996 0.0167
vn 0.0294 -0.9996 0.0058
vn 0.0294 -0.9996 -0.0058
vn 0.0249 -0.9996 -0.0167
vn 0.0167 -0.9996 -0.0249
vn 0.0058 -0.9996 -0.0294
vn -0.0058 -0.9996 -0.0294
vn -0.0167 -0.9996 -0.0249
vn -0.0249 -0.9996 -0.0167
vn -0.0294 -0.9996 -0.0058
vn 0.8806 -0.4403 -0.1752
vn 0.7465 -0.4403 -0.4988
vn 0.4988 -0.4403 -0.7465
vn 0.1752 -0.4403 -0.8806
vn -0.1752 -0.4403 -0.8806
vn -0.4988 -0.4403 -0.7465
vn -0.7465 -0.4403 -0.4988
vn -0.8806 -0.4403 -0.1752
vn -0.8806 -0.4403 0.1752
vn -0.7465 -0.4403 0.4988
vn -0.4988 -0.4403 0.7465
vn -0.1752 -0.4403 0.8806
vn 0.1752 -0.4403 0.8806
vn 0.4988 -0.4403 0.7465
vn 0.7465 -0.4403 0.4988
vn 0.8806 -0.4403 0.1752
vn 0.9808 -0.0000 -0.1951
vn 0.8315 -0.0000 -0.5556
vn 0.5556 -0.0000 -0.8315
vn 0.1951 -0.0000 -0.9808
vn -0.1951 -0.0000 -0.9808
vn -0.5556 -0.0000 -0.8315
vn -0.8315 -0.0000 -0.5556
vn -0.9808 -0.0000 -0.1951
vn -0.9808 -0.0000 0.1951
vn -0.8315 -0.0000 0.5556
vn -0.5556 -0.0000 0.8315
vn -0.1951 -0.0000 0.9808
vn 0.1951 -0.0000 0.9808
vn 0.5556 -0.0000 0.8315
vn 0.8315 -0.0000 0.5556
vn 0.9808 -0.0000 0.1951
vn 0.9489 0.2530 -0.1887
vn 0.8044 0.2530 -0.5375
vn 0.5375 0.2530 -0.8044
vn 0.1887 0.2530 -0.9489
vn -0.1887 0.2530 -0.9489
vn -0.5375 0.2530 -0.8044
vn -0.8044 0.2530 -0.5375
vn -0.9489 0.2530 -0.1887
vn -0.9489 0.2530 0.1887
vn -0.8044 0.2530 0.5375
vn -0.5375 0.2530 0.8044
vn -0.1887 0.2530 0.9489
vn 0.1887 0.2530 0.9489
vn 0.5375 0.2530 0.8044
vn 0.8044 0.2530 0.5375
vn 0.9489 0.2530 0.1887
vn 0.8691 0.4635 -0.1729
vn 0.7368 0.4635 -0.4923
vn 0.4923 0.4635 -0.7368
vn 0.1729 0.4635 -0.8691
vn -0.1729 0.4635 -0.8691
vn -0.4923 0.4635 -0.7368
vn -0.7368 0.4635 -0.4923
vn -0.8691 0.4635 -0.1729
vn -0.8691 0.4635 0.1729
vn -0.7368 0.4635 0.4923
vn -0.4923 0.4635 0.7368
vn -0.1729 0.4635 0.8691
vn 0.1729 0.4635 0.8691
vn 0.4923 0.4635 0.7368
vn 0.7368 0.4635 0.4923
vn 0.8691 0.4635 0.1729
vn 0.9806 0.0196 -0.1951
vn 0.8313 0.0196 -0.5555
vn 0.5555 0.0196 -0.8313
vn 0.1951 0.0196 -0.9806
vn -0.1951 0.0196 -0.9806
vn -0.5555 0.0196 -0.8313
vn -0.8313 0.0196 -0.5555
vn -0.9806 0.0196 -0.1951
vn -0.9806 0.0196 0.1951
vn -0.8313 0.0196 0.5555
vn -0.5555 0.0196 0.8313
vn -0.1951 0.0196 0.9806
vn 0.1951 0.0196 0.9806
vn 0.5555 0.0196 0.8313
vn 0.8313 0.0196 0.5555
vn 0.9806 0.0196 0.1951
vn 0.4455 -0.8909 -0.0886
vn 0.3776 -0.8909 -0.2523
vn 0.2523 -0.8909 -0.3776
vn 0.0886 -0.8909 -0.4455
vn -0.0886 -0.8909 -0.4455
vn -0.2523 -0.8909 -0.3776
vn -0.3776 -0.8909 -0.2523
vn -0.4455 -0.8909 -0.0886
vn -0.4455 -0.8909 0.0886
vn -0.3776 -0.8909 0.2523
vn -0.2523 -0.8909 0.3776
vn -0.0886 -0.8909 0.4455
vn 0.0886 -0.8909 0.4455
vn 0.2523 -0.8909 0.3776
vn 0.3776 -0.8909 0.2523
vn 0.4455 -0.8909 0.0886
vn 0.5958 0.7944 -0.1185
vn 0.5051 0.7944 -0.3375
vn 0.3375 0.7944 -0.5051
vn 0.1185 0.7944 -0.5958
vn -0.1185 0.7944 -0.5958
vn -0.3375 0.7944 -0.5051
vn -0.5051 0.7944 -0.3375
vn -0.5958 0.7944 -0.1185
vn -0.5958 0.7944 0.1185
vn -0.5051 0.7944 0.3375
vn -0.3375 0.7944 0.5051
vn -0.1185 0.7944 0.5958
vn 0.1185 0.7944 0.5958
vn 0.3375 0.7944 0.5051
vn 0.5051 0.7944 0.3375
vn 0.5958 0.7944 0.1185
vn 0.0333 0.9994 -0.0066
vn 0.0283 0.9994 -0.0189
vn 0.0189 0.9994 -0.0283
vn 0.0066 0.9994 -0.0333
vn -0.0066 0.9994 -0.0333
vn -0.0189 0.9994 -0.0283
vn -0.0283 0.9994 -0.0189
vn -0.0333 0.9994 -0.0066
vn -0.0333 0.9994 0.0066
vn -0.0283 0.9994 0.0189
vn -0.0189 0.9994 0.0283
vn -0.0066 0.9994 0.0333
vn 0.0066 0.9994 0.0333
vn 0.0189 0.9994 0.0283
vn 0.0283 0.9994 0.0189
vn 0.0333 0.9994 0.0066
vn -0.8665 0.4685 0.1724
vn -0.7346 0.4685 0.4908
vn -0.4908 0.4685 0.7346
vn -0.1724 0.4685 0.8665
vn 0.1724 0.4685 0.8665
vn 0.4908 0.4685 0.7346
vn 0.7346 0.4685 0.4908
vn 0.8665 0.4685 0.1724
vn 0.8665 0.4685 -0.1724
vn 0.7346 0.4685 -0.4908
vn 0.4908 0.4685 -0.7346
vn 0.1724 0.4685 -0.8665
vn -0.1724 0.4685 -0.8665
vn -0.4908 0.4685 -0.7346
vn -0.7346 0.4685 -0.4908
vn -0.8665 0.4685 -0.1724
vn -0.9489 -0.2528 0.1888
vn -0.8045 -0.2528 0.5375
vn -0.5375 -0.2528 0.8045
vn -0.1888 -0.2528 0.9489
vn 0.1888 -0.2528 0.9489
vn 0.5375 -0.2528 0.8045
vn 0.8045 -0.2528 0.5375
vn 0.9489 -0.2528 0.1888
vn 0.9489 -0.2528 -0.1888
vn 0.8045 -0.2528 -0.5375
vn 0.5375 -0.2528 -0.8045
vn 0.1888 -0.2528 -0.9489
vn -0.1888 -0.2528 -0.9489
vn -0.5375 -0.2528 -0.8045
vn -0.8045 -0.2528 -0.5375
vn -0.9489 -0.2528 -0.1888
vn -0.8689 -0.4639 0.1728
vn -0.7366 -0.4639 0.4922
vn -0.4922 -0.4639 0.7366
vn -0.1728 -0.4639 0.8689
vn 0.1728 -0.4639 0.8689
vn 0.4922 -0.4639 0.7366
vn 0.7366 -0.4639 0.4922
vn 0.8689 -0.4639 0.1728
vn 0.8689 -0.4639 -0.1728
vn 0.7366 -0.4639 -0.4922
vn 0.4922 -0.4639 -0.7366
vn 0.1728 -0.4639 -0.8689
vn -0.1728 -0.4639 -0.8689
vn -0.4922 -0.4639 -0.7366
vn -0.7366 -0.4639 -0.4922
vn -0.8689 -0.4639 -0.1728
vn -0.9806 -0.0173 0.1951
vn -0.8313 -0.0173 0.5555
vn -0.5555 -0.0173 0.8313
vn -0.1951 -0.0173 0.9806
vn 0.1951 -0.0173 0.9806
vn 0.5555 -0.0173 0.8313
vn 0.8313 -0.0173 0.5555
vn 0.9806 -0.0173 0.1951
vn 0.9806 -0.0173 -0.1951
vn 0.8313 -0.0173 -0.5555
vn 0.5555 -0.0173 -0.8313
vn 0.1951 -0.0173 -0.9806
vn -0.1951 -0.0173 -0.9806
vn -0.5555 -0.0173 -0.8313
vn -0.8313 -0.0173 -0.5555
vn -0.9806 -0.0173 -0.1951
vn -0.3967 0.9145 0.0789
vn -0.3363 0.9145 0.2247
vn -0.2247 0.9145 0.3363
vn -0.0789 0.9145 0.3967
vn 0.0789 0.9145 0.3967
vn 0.2247 0.9145 0.3363
vn 0.3363 0.9145 0.2247
vn 0.3967 0.9145 0.0789
vn 0.3967 0.9145 -0.0789
vn 0.3363 0.9145 -0.2247
vn 0.2247 0.9145 -0.3363
vn 0.0789 0.9145 -0.3967
vn -0.0789 0.9145 -0.3967
vn -0.2247 0.9145 -0.3363
vn -0.3363 0.9145 -0.2247
vn -0.3967 0.9145 -0.0789
vn -0.9808 0.0076 0.1951
vn -0.8314 0.0076 0.5556
vn -0.5556 0.0076 0.8314
vn -0.1951 0.0076 0.9808
vn 0.1951 0.0076 0.9808
vn 0.5556 0.0076 0.8314
vn 0.8314 0.0076 0.5556
vn 0.9808 0.0076 0.1951
vn 0.9808 0.0076 -0.1951
vn 0.8314 0.0076 -0.5556
vn 0.5556 0.0076 -0.8314
vn 0.1951 0.0076 -0.9808
vn -0.1951 0.0076 -0.9808
vn -0.5556 0.0076 -0.8314
vn -0.8314 0.0076 -0.5556
vn -0.9808 0.0076 -0.1951
vn -0.5871 -0.8010 0.1168
vn -0.4977 -0.8010 0.3326
vn -0.3326 -0.8010 0.4977
vn -0.1168 -0.8010 0.5871
vn 0.1168 -0.8010 0.5871
vn 0.3326 -0.8010 0.4977
vn 0.4977 -0.8010 0.3326
vn 0.5871 -0.8010 0.1168
vn 0.5871 -0.8010 -0.1168
vn 0.4977 -0.8010 -0.3326
vn 0.3326 -0.8010 -0.4977
vn 0.1168 -0.8010 -0.5871
vn -0.1168 -0.8010 -0.5871
vn -0.3326 -0.8010 -0.4977
vn -0.4977 -0.8010 -0.3326
vn -0.5871 -0.8010 -0.1168
vn -0.7901 0.5925 0.1572
vn -0.6698 0.5925 0.4475
vn -0.4475 0.5925 0.6698
vn -0.1571 0.5925 0.7901
vn 0.1571 0.5925 0.7901
vn 0.4475 0.5925 0.6698
vn 0.6698 0.5925 0.4475
vn 0.7901 0.5925 0.1571
vn 0.7901 0.5925 -0.1572
vn 0.6698 0.5925 -0.4475
vn 0.4475 0.5925 -0.6698
vn 0.1571 0.5925 -0.7901
vn -0.1571 0.5925 -0.7901
vn -0.4475 0.5925 -0.6698
vn -0.6698 0.5925 -0.4475
vn -0.7901 0.5925 -0.1571
vn -0.0000 0.6293 -0.7772
vn -0.0000 1.0000 -0.0000
vn -0.0000 0.6293 0.7772
vn 1.0000 -0.0000 -0.0000
vn 0.4922 0.4635 -0.7368
vn -0.3968 0.9145 0.0789
vn 0.3968 0.9145 0.0789
vn 0.3968 0.9145 -0.0789
vn -0.3968 0.9145 -0.0789
vn 0.1572 0.5925 0.7901
vn 0.6698 0.5926 0.4475
vn 0.7901 0.5926 0.1572
vn -0.1572 0.5925 -0.7901
vn -0.6698 0.5926 -0.4475
vn -0.7901 0.5926 -0.1572
vn -0.0001 0.6292 -0.7772
vn -0.0000 0.6292 -0.7772
vn -0.0000 0.6292 0.7772
s 0
g A_Flask.001_bacchus_wine_glass
usemtl bacchus_wine_glass
f 1//1 3//1 2//1
f 1//2 4//2 3//2
f 1//3 5//3 4//3
f 1//4 6//4 5//4
f 1//5 7//5 6//5
f 1//6 8//6 7//6
f 1//7 9//7 8//7
f 1//8 10//8 9//8
f 1//9 11//9 10//9
f 1//10 12//10 11//10
f 1//11 13//11 12//11
f 1//12 14//12 13//12
f 1//13 15//13 14//13
f 1//14 16//14 15//14
f 1//15 17//15 16//15
f 1//16 2//16 17//16
f 3//17 18//17 2//17
f 4//18 19//18 3//18
f 5//19 20//19 4//19
f 6//20 21//20 5//20
f 7//21 22//21 6//21
f 8//22 23//22 7//22
f 9//23 24//23 8//23
f 10//24 25//24 9//24
f 11//25 26//25 10//25
f 12//26 27//26 11//26
f 13//27 28//27 12//27
f 14//28 29//28 13//28
f 15//29 30//29 14//29
f 16//30 31//30 15//30
f 17//31 32//31 16//31
f 2//32 33//32 17//32
f 19//33 34//33 18//33
f 20//34 35//34 19//34
f 21//35 36//35 20//35
f 22//36 37//36 21//36
f 23//37 38//37 22//37
f 24//38 39//38 23//38
f 25//39 40//39 24//39
f 26//40 41//40 25//40
f 27//41 42//41 26//41
f 28//42 43//42 27//42
f 29//43 44//43 28//43
f 30//44 45//44 29//44
f 31//45 46//45 30//45
f 32//46 47//46 31//46
f 33//47 48//47 32//47
f 18//48 49//48 33//48
f 34//49 285//49 286//49
f 36//50 288//50 285//50
f 37//51 50//51 36//51
f 38//52 51//52 37//52
f 39//53 52//53 38//53
f 40//54 53//54 39//54
f 41//55 54//55 40//55
f 42//56 55//56 41//56
f 43//57 56//57 42//57
f 44//58 57//58 43//58
f 45//59 58//59 44//59
f 46//60 59//60 45//60
f 47//61 60//61 46//61
f 48//62 61//62 47//62
f 62//63 49//63 289//63
f 49//64 287//64 291//64
f 64//65 293//65 292//65
f 50//66 294//66 288//66
f 65//66 292//66 295//66
f 51//67 65//67 296//67
f 52//68 66//68 51//68
f 53//69 67//69 52//69
f 54//70 68//70 53//70
f 55//71 69//71 54//71
f 56//72 70//72 55//72
f 57//73 71//73 56//73
f 58//74 72//74 57//74
f 59//75 73//75 58//75
f 60//76 74//76 59//76
f 61//77 75//77 60//77
f 299//78 77//78 76//78
f 300//79 77//79 297//79
f 298//79 62//79 290//79
f 293//80 78//80 300//80
f 64//81 79//81 63//81
f 65//82 80//82 64//82
f 66//83 81//83 65//83
f 67//84 82//84 66//84
f 68//85 83//85 67//85
f 69//86 84//86 68//86
f 70//87 85//87 69//87
f 71//88 86//88 70//88
f 72//89 87//89 71//89
f 73//90 88//90 72//90
f 74//91 89//91 73//91
f 75//92 90//92 74//92
f 76//93 91//93 75//93
f 77//94 92//94 76//94
f 78//95 93//95 77//95
f 63//96 94//96 78//96
f 80//97 95//97 79//97
f 81//98 96//98 80//98
f 82//99 97//99 81//99
f 83//100 98//100 82//100
f 84//101 99//101 83//101
f 85//102 100//102 84//102
f 86//103 101//103 85//103
f 87//104 102//104 86//104
f 88//105 103//105 87//105
f 89//106 104//106 88//106
f 90//107 105//107 89//107
f 91//108 106//108 90//108
f 92//109 107//109 91//109
f 93//110 108//110 92//110
f 94//111 109//111 93//111
f 79//112 110//112 94//112
f 96//33 111//33 95//33
f 97//34 112//34 96//34
f 98//35 113//35 97//35
f 99//36 114//36 98//36
f 100//37 115//37 99//37
f 101//38 116//38 100//38
f 102//39 117//39 101//39
f 103//40 118//40 102//40
f 104//41 119//41 103//41
f 105//42 120//42 104//42
f 106//43 121//43 105//43
f 107//44 122//44 106//44
f 108//45 123//45 107//45
f 109//46 124//46 108//46
f 110//47 125//47 109//47
f 95//48 126//48 110//48
f 112//113 127//113 111//113
f 113//114 128//114 112//114
f 114//115 129//115 113//115
f 115//116 130//116 114//116
f 116//117 131//117 115//117
f 117//118 132//118 116//118
f 118//119 133//119 117//119
f 119//120 134//120 118//120
f 120//121 135//121 119//121
f 121//122 136//122 120//122
f 122//123 137//123 121//123
f 123//124 138//124 122//124
f 124//125 139//125 123//125
f 125//126 140//126 124//126
f 126//127 141//127 125//127
f 111//128 142//128 126//128
f 143//129 144//129 145//129
f 143//130 145//130 146//130
f 143//131 146//131 147//131
f 143//132 147//132 148//132
f 143//133 148//133 149//133
f 143//134 149//134 150//134
f 143//135 150//135 151//135
f 143//136 151//136 152//136
f 143//137 152//137 153//137
f 143//138 153//138 154//138
f 143//139 154//139 155//139
f 143//140 155//140 156//140
f 143//141 156//141 157//141
f 143//142 157//142 158//142
f 143//143 158//143 159//143
f 143//144 159//144 144//144
f 160//145 145//145 144//145
f 161//146 146//146 145//146
f 162//147 147//147 146//147
f 147//148 164//148 148//148
f 164//149 149//149 148//149
f 165//150 150//150 149//150
f 166//151 151//151 150//151
f 167//152 152//152 151//152
f 168//153 153//153 152//153
f 169//154 154//154 153//154
f 170//155 155//155 154//155
f 155//156 172//156 156//156
f 172//157 157//157 156//157
f 173//158 158//158 157//158
f 174//159 159//159 158//159
f 175//160 144//160 159//160
f 176//41 161//41 160//41
f 177//42 162//42 161//42
f 178//43 163//43 162//43
f 179//44 164//44 163//44
f 180//45 165//45 164//45
f 181//46 166//46 165//46
f 182//47 167//47 166//47
f 183//48 168//48 167//48
f 184//33 169//33 168//33
f 185//34 170//34 169//34
f 186//35 171//35 170//35
f 187//36 172//36 171//36
f 188//37 173//37 172//37
f 189//38 174//38 173//38
f 190//39 175//39 174//39
f 191//40 160//40 175//40
f 176//161 303//161 302//161
f 178//162 302//162 304//162
f 192//163 179//163 178//163
f 193//164 180//164 179//164
f 194//165 181//165 180//165
f 195//166 182//166 181//166
f 196//167 183//167 182//167
f 197//168 184//168 183//168
f 198//169 185//169 184//169
f 185//170 200//170 186//170
f 200//171 187//171 186//171
f 201//172 188//172 187//172
f 202//173 189//173 188//173
f 203//174 190//174 189//174
f 204//175 306//175 191//175
f 191//176 307//176 301//176
f 206//177 308//177 205//177
f 192//178 310//178 206//178
f 207//179 193//179 192//179
f 208//180 194//180 193//180
f 194//181 210//181 195//181
f 210//182 196//182 195//182
f 211//183 197//183 196//183
f 212//184 198//184 197//184
f 213//185 199//185 198//185
f 199//186 215//186 200//186
f 215//187 201//187 200//187
f 216//188 202//188 201//188
f 202//189 218//189 203//189
f 218//190 204//190 203//190
f 311//191 204//191 220//191
f 220//192 308//192 312//192
f 221//193 206//193 205//193
f 222//194 207//194 206//194
f 223//195 208//195 207//195
f 224//196 209//196 208//196
f 225//197 210//197 209//197
f 226//198 211//198 210//198
f 211//199 228//199 212//199
f 228//200 213//200 212//200
f 229//201 214//201 213//201
f 230//202 215//202 214//202
f 231//203 216//203 215//203
f 232//204 217//204 216//204
f 233//205 218//205 217//205
f 234//206 219//206 218//206
f 219//207 236//207 220//207
f 236//208 205//208 220//208
f 221//209 238//209 222//209
f 222//210 239//210 223//210
f 223//211 240//211 224//211
f 224//212 241//212 225//212
f 241//213 226//213 225//213
f 242//214 227//214 226//214
f 243//215 228//215 227//215
f 244//216 229//216 228//216
f 229//217 246//217 230//217
f 230//218 247//218 231//218
f 231//219 248//219 232//219
f 232//220 249//220 233//220
f 249//221 234//221 233//221
f 250//222 235//222 234//222
f 251//223 236//223 235//223
f 252//224 221//224 236//224
f 237//225 254//225 238//225
f 238//226 255//226 239//226
f 239//227 256//227 240//227
f 240//228 257//228 241//228
f 257//229 242//229 241//229
f 258//230 243//230 242//230
f 259//231 244//231 243//231
f 260//232 245//232 244//232
f 245//233 262//233 246//233
f 246//234 263//234 247//234
f 247//235 264//235 248//235
f 248//236 265//236 249//236
f 265//237 250//237 249//237
f 266//238 251//238 250//238
f 267//239 252//239 251//239
f 268//240 237//240 252//240
f 253//241 270//241 254//241
f 254//242 271//242 255//242
f 255//243 272//243 256//243
f 256//244 273//244 257//244
f 257//245 274//245 258//245
f 274//246 259//246 258//246
f 275//247 260//247 259//247
f 276//248 261//248 260//248
f 261//249 278//249 262//249
f 262//250 279//250 263//250
f 263//251 280//251 264//251
f 264//252 281//252 265//252
f 265//253 282//253 266//253
f 282//254 267//254 266//254
f 283//255 268//255 267//255
f 284//256 253//256 268//256
f 127//257 270//257 269//257
f 129//258 270//258 128//258
f 129//259 272//259 271//259
f 130//260 273//260 272//260
f 131//261 274//261 273//261
f 133//262 274//262 132//262
f 133//263 276//263 275//263
f 134//264 277//264 276//264
f 135//265 278//265 277//265
f 137//266 278//266 136//266
f 137//267 280//267 279//267
f 138//268 281//268 280//268
f 139//269 282//269 281//269
f 141//270 282//270 140//270
f 141//271 284//271 283//271
f 142//272 269//272 284//272
f 289//273 305//273 311//273
f 291//274 286//274 301//274
f 285//275 294//275 302//275
f 308//276 295//276 293//276
f 3//17 19//17 18//17
f 4//18 20//18 19//18
f 5//19 21//19 20//19
f 6//20 22//20 21//20
f 7//21 23//21 22//21
f 8//22 24//22 23//22
f 9//23 25//23 24//23
f 10//24 26//24 25//24
f 11//25 27//25 26//25
f 12//26 28//26 27//26
f 13//27 29//27 28//27
f 14//28 30//28 29//28
f 15//29 31//29 30//29
f 16//30 32//30 31//30
f 17//31 33//31 32//31
f 2//32 18//32 33//32
f 19//33 35//33 34//33
f 20//34 36//34 35//34
f 21//35 37//35 36//35
f 22//36 38//36 37//36
f 23//37 39//37 38//37
f 24//38 40//38 39//38
f 25//39 41//39 40//39
f 26//40 42//40 41//40
f 27//41 43//41 42//41
f 28//42 44//42 43//42
f 29//43 45//43 44//43
f 30//44 46//44 45//44
f 31//45 47//45 46//45
f 32//46 48//46 47//46
f 33//47 49//47 48//47
f 18//48 34//48 49//48
f 286//49 287//49 34//49
f 34//49 35//49 285//49
f 285//50 35//50 36//50
f 36//50 50//50 288//50
f 37//51 51//51 50//51
f 38//52 52//52 51//52
f 39//53 53//53 52//53
f 40//54 54//54 53//54
f 41//55 55//55 54//55
f 42//56 56//56 55//56
f 43//57 57//57 56//57
f 44//58 58//58 57//58
f 45//59 59//59 58//59
f 46//60 60//60 59//60
f 47//61 61//61 60//61
f 48//62 62//62 61//62
f 289//63 290//63 62//63
f 62//63 48//63 49//63
f 291//64 289//64 49//64
f 49//64 34//64 287//64
f 64//65 63//65 293//65
f 65//66 64//66 292//66
f 294//67 50//67 51//67
f 51//67 66//67 65//67
f 65//67 295//67 296//67
f 296//277 294//277 51//277
f 52//68 67//68 66//68
f 53//69 68//69 67//69
f 54//70 69//70 68//70
f 55//71 70//71 69//71
f 56//72 71//72 70//72
f 57//73 72//73 71//73
f 58//74 73//74 72//74
f 59//75 74//75 73//75
f 60//76 75//76 74//76
f 61//77 76//77 75//77
f 76//78 61//78 62//78
f 62//78 298//78 299//78
f 299//78 297//78 77//78
f 76//78 62//78 299//78
f 300//79 78//79 77//79
f 293//80 63//80 78//80
f 64//81 80//81 79//81
f 65//82 81//82 80//82
f 66//83 82//83 81//83
f 67//84 83//84 82//84
f 68//85 84//85 83//85
f 69//86 85//86 84//86
f 70//87 86//87 85//87
f 71//88 87//88 86//88
f 72//89 88//89 87//89
f 73//90 89//90 88//90
f 74//91 90//91 89//91
f 75//92 91//92 90//92
f 76//93 92//93 91//93
f 77//94 93//94 92//94
f 78//95 94//95 93//95
f 63//96 79//96 94//96
f 80//97 96//97 95//97
f 81//98 97//98 96//98
f 82//99 98//99 97//99
f 83//100 99//100 98//100
f 84//101 100//101 99//101
f 85//102 101//102 100//102
f 86//103 102//103 101//103
f 87//104 103//104 102//104
f 88//105 104//105 103//105
f 89//106 105//106 104//106
f 90//107 106//107 105//107
f 91//108 107//108 106//108
f 92//109 108//109 107//109
f 93//110 109//110 108//110
f 94//111 110//111 109//111
f 79//112 95//112 110//112
f 96//33 112//33 111//33
f 97//34 113//34 112//34
f 98//35 114//35 113//35
f 99//36 115//36 114//36
f 100//37 116//37 115//37
f 101//38 117//38 116//38
f 102//39 118//39 117//39
f 103//40 119//40 118//40
f 104//41 120//41 119//41
f 105//42 121//42 120//42
f 106//43 122//43 121//43
f 107//44 123//44 122//44
f 108//45 124//45 123//45
f 109//46 125//46 124//46
f 110//47 126//47 125//47
f 95//48 111//48 126//48
f 112//113 128//113 127//113
f 113//114 129//114 128//114
f 114//115 130//115 129//115
f 115//116 131//116 130//116
f 116//117 132//117 131//117
f 117//118 133//118 132//118
f 118//119 134//119 133//119
f 119//120 135//120 134//120
f 120//121 136//121 135//121
f 121//122 137//122 136//122
f 122//123 138//123 137//123
f 123//124 139//124 138//124
f 124//125 140//125 139//125
f 125//126 141//126 140//126
f 126//127 142//127 141//127
f 111//128 127//128 142//128
f 160//145 161//145 145//145
f 161//146 162//146 146//146
f 162//147 163//147 147//147
f 147//148 163//148 164//148
f 164//149 165//149 149//149
f 165//150 166//150 150//150
f 166//151 167//151 151//151
f 167//152 168//152 152//152
f 168//153 169//153 153//153
f 169//154 170//154 154//154
f 170//155 171//155 155//155
f 155//156 171//156 172//156
f 172//157 173//157 157//157
f 173//158 174//158 158//158
f 174//159 175//159 159//159
f 175//160 160//160 144//160
f 176//41 177//41 161//41
f 177//42 178//42 162//42
f 178//43 179//43 163//43
f 179//44 180//44 164//44
f 180//45 181//45 165//45
f 181//46 182//46 166//46
f 182//47 183//47 167//47
f 183//48 184//48 168//48
f 184//33 185//33 169//33
f 185//34 186//34 170//34
f 186//35 187//35 171//35
f 187//36 188//36 172//36
f 188//37 189//37 173//37
f 189//38 190//38 174//38
f 190//39 191//39 175//39
f 191//40 176//40 160//40
f 302//161 177//161 176//161
f 176//161 301//161 303//161
f 304//162 192//162 178//162
f 178//162 177//162 302//162
f 192//163 193//163 179//163
f 193//164 194//164 180//164
f 194//165 195//165 181//165
f 195//166 196//166 182//166
f 196//167 197//167 183//167
f 197//168 198//168 184//168
f 198//169 199//169 185//169
f 185//170 199//170 200//170
f 200//171 201//171 187//171
f 201//172 202//172 188//172
f 202//173 203//173 189//173
f 203//174 204//174 190//174
f 191//175 190//175 204//175
f 204//175 305//175 306//175
f 301//176 176//176 191//176
f 191//176 306//176 307//176
f 206//177 309//177 308//177
f 206//178 207//178 192//178
f 192//178 304//178 310//178
f 310//178 309//178 206//178
f 207//179 208//179 193//179
f 208//180 209//180 194//180
f 194//181 209//181 210//181
f 210//182 211//182 196//182
f 211//183 212//183 197//183
f 212//184 213//184 198//184
f 213//185 214//185 199//185
f 199//186 214//186 215//186
f 215//187 216//187 201//187
f 216//188 217//188 202//188
f 202//189 217//189 218//189
f 218//190 219//190 204//190
f 311//191 305//191 204//191
f 204//191 219//191 220//191
f 220//191 312//191 311//191
f 220//192 205//192 308//192
f 221//193 222//193 206//193
f 222//194 223//194 207//194
f 223//195 224//195 208//195
f 224//196 225//196 209//196
f 225//197 226//197 210//197
f 226//198 227//198 211//198
f 211//199 227//199 228//199
f 228//200 229//200 213//200
f 229//201 230//201 214//201
f 230//202 231//202 215//202
f 231//203 232//203 216//203
f 232//204 233//204 217//204
f 233//205 234//205 218//205
f 234//206 235//206 219//206
f 219//207 235//207 236//207
f 236//208 221//208 205//208
f 221//278 237//278 238//278
f 222//210 238//210 239//210
f 223//211 239//211 240//211
f 224//212 240//212 241//212
f 241//213 242//213 226//213
f 242//214 243//214 227//214
f 243//215 244//215 228//215
f 244//279 245//279 229//279
f 229//280 245//280 246//280
f 230//218 246//218 247//218
f 231//219 247//219 248//219
f 232//220 248//220 249//220
f 249//221 250//221 234//221
f 250//222 251//222 235//222
f 251//223 252//223 236//223
f 252//281 237//281 221//281
f 237//225 253//225 254//225
f 238//226 254//226 255//226
f 239//227 255//227 256//227
f 240//228 256//228 257//228
f 257//229 258//229 242//229
f 258//230 259//230 243//230
f 259//231 260//231 244//231
f 260//232 261//232 245//232
f 245//233 261//233 262//233
f 246//234 262//234 263//234
f 247//235 263//235 264//235
f 248//236 264//236 265//236
f 265//237 266//237 250//237
f 266//238 267//238 251//238
f 267//239 268//239 252//239
f 268//240 253//240 237//240
f 253//241 269//241 270//241
f 254//242 270//242 271//242
f 255//243 271//243 272//243
f 256//244 272//244 273//244
f 257//245 273//245 274//245
f 274//246 275//246 259//246
f 275//247 276//247 260//247
f 276//248 277//248 261//248
f 261//249 277//249 278//249
f 262//250 278//250 279//250
f 263//251 279//251 280//251
f 264//252 280//252 281//252
f 265//253 281//253 282//253
f 282//254 283//254 267//254
f 283//255 284//255 268//255
f 284//256 269//256 253//256
f 127//257 128//257 270//257
f 129//258 271//258 270//258
f 129//259 130//259 272//259
f 130//260 131//260 273//260
f 131//282 132//282 274//282
f 133//262 275//262 274//262
f 133//283 134//283 276//283
f 134//284 135//284 277//284
f 135//265 136//265 278//265
f 137//266 279//266 278//266
f 137//267 138//267 280//267
f 138//268 139//268 281//268
f 139//285 140//285 282//285
f 141//270 283//270 282//270
f 141//286 142//286 284//286
f 142//287 127//287 269//287
f 311//288 299//288 298//288
f 298//289 290//289 289//289
f 289//273 291//273 307//273
f 289//273 307//273 306//273
f 311//273 298//273 289//273
f 289//273 306//273 305//273
f 301//274 307//274 291//274
f 291//274 287//274 286//274
f 286//274 303//274 301//274
f 303//275 286//275 285//275
f 285//290 288//290 294//290
f 294//290 296//290 310//290
f 294//275 310//275 304//275
f 302//275 303//275 285//275
f 294//275 304//275 302//275
f 300//276 297//276 299//276
f 299//276 311//276 312//276
f 299//276 312//276 308//276
f 293//276 300//276 299//276
f 295//276 292//276 293//276
f 310//276 296//276 295//276
f 309//276 310//276 295//276
f 293//276 299//276 308//276
f 308//276 309//276 295//276
g A_Liquid.001_A_Liquid.001
v 0.000000 0.140000 0.000000
v 0.266000 0.200000 0.000000
v 0.245752 0.200000 -0.101794
v 0.188090 0.200000 -0.188090
v 0.101794 0.200000 -0.245752
v 0.000000 0.200000 -0.266000
v -0.101794 0.200000 -0.245752
v -0.188090 0.200000 -0.188090
v -0.245752 0.200000 -0.101794
v -0.266000 0.200000 -0.000000
v -0.245752 0.200000 0.101794
v -0.188090 0.200000 0.188090
v -0.101794 0.200000 0.245752
v -0.000000 0.200000 0.266000
v 0.101794 0.200000 0.245752
v 0.188090 0.200000 0.188090
v 0.245752 0.200000 0.101794
v 0.266000 1.643000 0.000000
v 0.245752 1.643000 -0.101794
v 0.188090 1.643000 -0.188090
v 0.101794 1.643000 -0.245752
v 0.000000 1.643000 -0.266000
v -0.101794 1.643000 -0.245752
v -0.188090 1.643000 -0.188090
v -0.245752 1.643000 -0.101794
v -0.266000 1.643000 -0.000000
v -0.245752 1.643000 0.101794
v -0.188090 1.643000 0.188090
v -0.101794 1.643000 0.245752
v -0.000000 1.643000 0.266000
v 0.101794 1.643000 0.245752
v 0.188090 1.643000 0.188090
v 0.245752 1.643000 0.101794
v 0.186200 1.683000 0.000000
v 0.172026 1.683000 -0.071256
v 0.131663 1.683000 -0.131663
v 0.071256 1.683000 -0.172026
v 0.000000 1.683000 -0.186200
v -0.071256 1.683000 -0.172026
v -0.131663 1.683000 -0.131663
v -0.172026 1.683000 -0.071256
v -0.186200 1.683000 -0.000000
v -0.172026 1.683000 0.071256
v -0.131663 1.683000 0.131663
v -0.071256 1.683000 0.172026
v -0.000000 1.683000 0.186200
v 0.071256 1.683000 0.172026
v 0.131663 1.683000 0.131663
v 0.172026 1.683000 0.071256
v 0.000000 1.713000 0.000000
vn 0.2198 -0.9746 -0.0437
vn 0.1864 -0.9746 -0.1245
vn 0.1245 -0.9746 -0.1864
vn 0.0437 -0.9746 -0.2198
vn -0.0437 -0.9746 -0.2198
vn -0.1245 -0.9746 -0.1864
vn -0.1864 -0.9746 -0.1245
vn -0.2198 -0.9746 -0.0437
vn -0.2198 -0.9746 0.0437
vn -0.1864 -0.9746 0.1245
vn -0.1245 -0.9746 0.1864
vn -0.0437 -0.9746 0.2198
vn 0.0437 -0.9746 0.2198
vn 0.1245 -0.9746 0.1864
vn 0.1864 -0.9746 0.1245
vn 0.2198 -0.9746 0.0437
vn 0.9808 -0.0000 -0.1951
vn 0.8315 -0.0000 -0.5556
vn 0.5556 -0.0000 -0.8315
vn 0.1951 -0.0000 -0.9808
vn -0.1951 -0.0000 -0.9808
vn -0.5556 -0.0000 -0.8315
vn -0.8315 -0.0000 -0.5556
vn -0.9808 -0.0000 -0.1951
vn -0.9808 -0.0000 0.1951
vn -0.8315 -0.0000 0.5556
vn -0.5556 -0.0000 0.8315
vn -0.1951 -0.0000 0.9808
vn 0.1951 -0.0000 0.9808
vn 0.5556 -0.0000 0.8315
vn 0.8315 -0.0000 0.5556
vn 0.9808 -0.0000 0.1951
vn 0.4463 0.8904 -0.0888
vn 0.3784 0.8904 -0.2528
vn 0.2528 0.8904 -0.3784
vn 0.0888 0.8904 -0.4463
vn -0.0888 0.8904 -0.4463
vn -0.2528 0.8904 -0.3784
vn -0.3784 0.8904 -0.2528
vn -0.4463 0.8904 -0.0888
vn -0.4463 0.8904 0.0888
vn -0.3784 0.8904 0.2528
vn -0.2528 0.8904 0.3784
vn -0.0888 0.8904 0.4463
vn 0.0888 0.8904 0.4463
vn 0.2528 0.8904 0.3784
vn 0.3784 0.8904 0.2528
vn 0.4463 0.8904 0.0888
vn 0.1590 0.9868 -0.0316
vn 0.1348 0.9868 -0.0901
vn 0.0901 0.9868 -0.1348
vn 0.0316 0.9868 -0.1590
vn -0.0316 0.9868 -0.1590
vn -0.0901 0.9868 -0.1348
vn -0.1348 0.9868 -0.0901
vn -0.1590 0.9868 -0.0316
vn -0.1590 0.9868 0.0316
vn -0.1348 0.9868 0.0901
vn -0.0901 0.9868 0.1348
vn -0.0316 0.9868 0.1590
vn 0.0316 0.9868 0.1590
vn 0.0901 0.9868 0.1348
vn 0.1348 0.9868 0.0901
vn 0.1590 0.9868 0.0316
s 0
g A_Liquid.001_bacchus_wine_liquid
usemtl bacchus_wine_liquid
f 313//291 315//291 314//291
f 313//292 316//292 315//292
f 313//293 317//293 316//293
f 313//294 318//294 317//294
f 313//295 319//295 318//295
f 313//296 320//296 319//296
f 313//297 321//297 320//297
f 313//298 322//298 321//298
f 313//299 323//299 322//299
f 313//300 324//300 323//300
f 313//301 325//301 324//301
f 313//302 326//302 325//302
f 313//303 327//303 326//303
f 313//304 328//304 327//304
f 313//305 329//305 328//305
f 313//306 314//306 329//306
f 315//307 330//307 314//307
f 316//308 331//308 315//308
f 317//309 332//309 316//309
f 318//310 333//310 317//310
f 319//311 334//311 318//311
f 320//312 335//312 319//312
f 321//313 336//313 320//313
f 322//314 337//314 321//314
f 323//315 338//315 322//315
f 324//316 339//316 323//316
f 325//317 340//317 324//317
f 326//318 341//318 325//318
f 327//319 342//319 326//319
f 328//320 343//320 327//320
f 329//321 344//321 328//321
f 314//322 345//322 329//322
f 331//323 346//323 330//323
f 332//324 347//324 331//324
f 332//325 349//325 348//325
f 334//326 349//326 333//326
f 335//327 350//327 334//327
f 336//328 351//328 335//328
f 336//329 353//329 352//329
f 338//330 353//330 337//330
f 339//331 354//331 338//331
f 340//332 355//332 339//332
f 340//333 357//333 356//333
f 342//334 357//334 341//334
f 343//335 358//335 342//335
f 344//336 359//336 343//336
f 344//337 361//337 360//337
f 330//338 361//338 345//338
f 346//339 347//339 362//339
f 347//340 348//340 362//340
f 348//341 349//341 362//341
f 349//342 350//342 362//342
f 350//343 351//343 362//343
f 351//344 352//344 362//344
f 352//345 353//345 362//345
f 353//346 354//346 362//346
f 354//347 355//347 362//347
f 355//348 356//348 362//348
f 356//349 357//349 362//349
f 357//350 358//350 362//350
f 358//351 359//351 362//351
f 359//352 360//352 362//352
f 360//353 361//353 362//353
f 361//354 346//354 362//354
f 315//307 331//307 330//307
f 316//308 332//308 331//308
f 317//309 333//309 332//309
f 318//310 334//310 333//310
f 319//311 335//311 334//311
f 320//312 336//312 335//312
f 321//313 337//313 336//313
f 322//314 338//314 337//314
f 323//315 339//315 338//315
f 324//316 340//316 339//316
f 325//317 341//317 340//317
f 326//318 342//318 341//318
f 327//319 343//319 342//319
f 328//320 344//320 343//320
f 329//321 345//321 344//321
f 314//322 330//322 345//322
f 331//323 347//323 346//323
f 332//324 348//324 347//324
f 332//325 333//325 349//325
f 334//326 350//326 349//326
f 335//327 351//327 350//327
f 336//328 352//328 351//328
f 336//329 337//329 353//329
f 338//330 354//330 353//330
f 339//331 355//331 354//331
f 340//332 356//332 355//332
f 340//333 341//333 357//333
f 342//334 358//334 357//334
f 343//335 359//335 358//335
f 344//336 360//336 359//336
f 344//337 345//337 361//337
f 330//338 346//338 361//338
g C_Label.001_C_Label.001
v -0.326400 1.560000 0.416000
v 0.326400 1.560000 0.416000
v 0.326400 1.960000 0.416000
v -0.326400 1.960000 0.416000
v -0.326400 1.560000 0.386000
v 0.326400 1.560000 0.386000
v 0.326400 1.960000 0.386000
v -0.326400 1.960000 0.386000
vn -0.0000 -0.0000 1.0000
vn -0.0000 -0.0000 -1.0000
vn -1.0000 -0.0000 -0.0000
vn -0.0000 -1.0000 -0.0000
vn 1.0000 -0.0000 -0.0000
vn -0.0000 1.0000 -0.0000
vt 1.000000 0.000000
vt 0.000000 1.000000
vt 0.000000 0.000000
vt 1.000000 1.000000
s 0
g C_Label.001_bacchus_wine_label
usemtl bacchus_wine_label
f 364/1/355 366/2/355 363/3/355
f 370/2/356 368/1/356 367/3/356
f 366/2/357 367/3/357 363/3/357
f 363/3/358 368/1/358 364/1/358
f 364/1/359 369/4/359 365/4/359
f 365/4/360 370/2/360 366/2/360
f 364/1/355 365/4/355 366/2/355
f 370/2/356 369/4/356 368/1/356
f 366/2/357 370/2/357 367/3/357
f 363/3/358 367/3/358 368/1/358
f 364/1/359 368/1/359 369/4/359
f 365/4/360 369/4/360 370/2/360
g S_Cork.001_S_Cork.001
v 0.000000 2.590000 0.000000
v 0.120000 2.590000 0.000000
v 0.084853 2.590000 -0.084853
v 0.000000 2.590000 -0.120000
v -0.084853 2.590000 -0.084853
v -0.120000 2.590000 -0.000000
v -0.084853 2.590000 0.084853
v -0.000000 2.590000 0.120000
v 0.084853 2.590000 0.084853
v 0.160000 2.810000 0.000000
v 0.113137 2.810000 -0.113137
v 0.000000 2.810000 -0.160000
v -0.113137 2.810000 -0.113137
v -0.160000 2.810000 -0.000000
v -0.113137 2.810000 0.113137
v -0.000000 2.810000 0.160000
v 0.113137 2.810000 0.113137
v 0.160000 2.930000 0.000000
v 0.113137 2.930000 -0.113137
v 0.000000 2.930000 -0.160000
v -0.113137 2.930000 -0.113137
v -0.160000 2.930000 -0.000000
v -0.113137 2.930000 0.113137
v -0.000000 2.930000 0.160000
v 0.113137 2.930000 0.113137
v 0.000000 2.930000 0.000000
vn -0.0000 -1.0000 -0.0000
vn 0.9111 -0.1657 -0.3774
vn 0.3774 -0.1657 -0.9111
vn -0.3774 -0.1657 -0.9111
vn -0.9111 -0.1657 -0.3774
vn -0.9111 -0.1657 0.3774
vn -0.3774 -0.1657 0.9111
vn 0.3774 -0.1657 0.9111
vn 0.9111 -0.1657 0.3774
vn 0.9239 -0.0000 -0.3827
vn 0.3827 -0.0000 -0.9239
vn -0.3827 -0.0000 -0.9239
vn -0.9239 -0.0000 -0.3827
vn -0.9239 -0.0000 0.3827
vn -0.3827 -0.0000 0.9239
vn 0.3827 -0.0000 0.9239
vn 0.9239 -0.0000 0.3827
vn -0.0000 1.0000 -0.0000
s 0
g S_Cork.001_bacchus_wine_cork
usemtl bacchus_wine_cork
f 371//361 373//361 372//361
f 371//361 374//361 373//361
f 371//361 375//361 374//361
f 371//361 376//361 375//361
f 371//361 377//361 376//361
f 371//361 378//361 377//361
f 371//361 379//361 378//361
f 371//361 372//361 379//361
f 372//362 381//362 380//362
f 374//363 381//363 373//363
f 374//364 383//364 382//364
f 376//365 383//365 375//365
f 376//366 385//366 384//366
f 378//367 385//367 377//367
f 378//368 387//368 386//368
f 372//369 387//369 379//369
f 381//370 388//370 380//370
f 382//371 389//371 381//371
f 383//372 390//372 382//372
f 384//373 391//373 383//373
f 385//374 392//374 384//374
f 386//375 393//375 385//375
f 387//376 394//376 386//376
f 380//377 395//377 387//377
f 388//378 389//378 396//378
f 389//378 390//378 396//378
f 390//378 391//378 396//378
f 391//378 392//378 396//378
f 392//378 393//378 396//378
f 393//378 394//378 396//378
f 394//378 395//378 396//378
f 395//378 388//378 396//378
f 372//362 373//362 381//362
f 374//363 382//363 381//363
f 374//364 375//364 383//364
f 376//365 384//365 383//365
f 376//366 377//366 385//366
f 378//367 386//367 385//367
f 378//368 379//368 387//368
f 372//369 380//369 387//369
f 381//370 389//370 388//370
f 382//371 390//371 389//371
f 383//372 391//372 390//372
f 384//373 392//373 391//373
f 385//374 393//374 392//374
f 386//375 394//375 393//375
f 387//376 395//376 394//376
f 380//377 388//377 395//377
g S_Wax.001_S_Wax.001
v 0.000000 2.930000 0.000000
v 0.140000 2.920000 0.000000
v 0.098995 2.920000 -0.098995
v 0.000000 2.920000 -0.140000
v -0.098995 2.920000 -0.098995
v -0.140000 2.920000 -0.000000
v -0.098995 2.920000 0.098995
v -0.000000 2.920000 0.140000
v 0.098995 2.920000 0.098995
v 0.220000 2.810000 0.000000
v 0.155563 2.810000 -0.155563
v 0.000000 2.810000 -0.220000
v -0.155563 2.810000 -0.155563
v -0.220000 2.810000 -0.000000
v -0.155563 2.810000 0.155563
v -0.000000 2.810000 0.220000
v 0.155563 2.810000 0.155563
v 0.250000 2.670000 0.000000
v 0.176777 2.670000 -0.176777
v 0.000000 2.670000 -0.250000
v -0.176777 2.670000 -0.176777
v -0.250000 2.670000 -0.000000
v -0.176777 2.670000 0.176777
v -0.000000 2.670000 0.250000
v 0.176777 2.670000 0.176777
v 0.220000 2.530000 0.000000
v 0.155563 2.530000 -0.155563
v 0.000000 2.530000 -0.220000
v -0.155563 2.530000 -0.155563
v -0.220000 2.530000 -0.000000
v -0.155563 2.530000 0.155563
v -0.000000 2.530000 0.220000
v 0.155563 2.530000 0.155563
v 0.190000 2.570000 0.000000
v 0.134350 2.570000 -0.134350
v 0.000000 2.570000 -0.190000
v -0.134350 2.570000 -0.134350
v -0.190000 2.570000 -0.000000
v -0.134350 2.570000 0.134350
v -0.000000 2.570000 0.190000
v 0.134350 2.570000 0.134350
vn -0.0712 -0.9970 0.0295
vn -0.0295 -0.9970 0.0712
vn 0.0295 -0.9970 0.0712
vn 0.0712 -0.9970 0.0295
vn 0.0712 -0.9970 -0.0295
vn 0.0295 -0.9970 -0.0712
vn -0.0295 -0.9970 -0.0712
vn -0.0712 -0.9970 -0.0295
vn -0.7669 -0.5577 0.3176
vn -0.3176 -0.5577 0.7669
vn 0.3176 -0.5577 0.7669
vn 0.7669 -0.5577 0.3176
vn 0.7669 -0.5577 -0.3176
vn 0.3176 -0.5577 -0.7669
vn -0.3176 -0.5577 -0.7669
vn -0.7669 -0.5577 -0.3176
vn -0.9063 -0.1942 0.3754
vn -0.3754 -0.1942 0.9063
vn 0.3754 -0.1942 0.9063
vn 0.9063 -0.1942 0.3754
vn 0.9063 -0.1942 -0.3754
vn 0.3754 -0.1942 -0.9063
vn -0.3754 -0.1942 -0.9063
vn -0.9063 -0.1942 -0.3754
vn -0.9063 0.1942 0.3754
vn -0.3754 0.1942 0.9063
vn 0.3754 0.1942 0.9063
vn 0.9063 0.1942 0.3754
vn 0.9063 0.1942 -0.3754
vn 0.3754 0.1942 -0.9063
vn -0.3754 0.1942 -0.9063
vn -0.9063 0.1942 -0.3754
vn 0.7594 0.5695 -0.3146
vn 0.3146 0.5695 -0.7594
vn -0.3146 0.5695 -0.7594
vn -0.7594 0.5695 -0.3146
vn -0.7594 0.5695 0.3146
vn -0.3146 0.5695 0.7594
vn 0.3146 0.5695 0.7594
vn 0.7594 0.5695 0.3146
s 0
g S_Wax.001_bacchus_wine_wax
usemtl bacchus_wine_wax
f 397//379 399//379 398//379
f 397//380 400//380 399//380
f 397//381 401//381 400//381
f 397//382 402//382 401//382
f 397//383 403//383 402//383
f 397//384 404//384 403//384
f 397//385 405//385 404//385
f 397//386 398//386 405//386
f 399//387 406//387 398//387
f 400//388 407//388 399//388
f 401//389 408//389 400//389
f 402//390 409//390 401//390
f 403//391 410//391 402//391
f 404//392 411//392 403//392
f 405//393 412//393 404//393
f 398//394 413//394 405//394
f 407//395 414//395 406//395
f 408//396 415//396 407//396
f 409//397 416//397 408//397
f 410//398 417//398 409//398
f 411//399 418//399 410//399
f 412//400 419//400 411//400
f 413//401 420//401 412//401
f 406//402 421//402 413//402
f 415//403 422//403 414//403
f 416//404 423//404 415//404
f 417//405 424//405 416//405
f 418//406 425//406 417//406
f 419//407 426//407 418//407
f 420//408 427//408 419//408
f 421//409 428//409 420//409
f 414//410 429//410 421//410
f 422//411 431//411 430//411
f 424//412 431//412 423//412
f 424//413 433//413 432//413
f 426//414 433//414 425//414
f 426//415 435//415 434//415
f 428//416 435//416 427//416
f 428//417 437//417 436//417
f 422//418 437//418 429//418
f 399//387 407//387 406//387
f 400//388 408//388 407//388
f 401//389 409//389 408//389
f 402//390 410//390 409//390
f 403//391 411//391 410//391
f 404//392 412//392 411//392
f 405//393 413//393 412//393
f 398//394 406//394 413//394
f 407//395 415//395 414//395
f 408//396 416//396 415//396
f 409//397 417//397 416//397
f 410//398 418//398 417//398
f 411//399 419//399 418//399
f 412//400 420//400 419//400
f 413//401 421//401 420//401
f 406//402 414//402 421//402
f 415//403 423//403 422//403
f 416//404 424//404 423//404
f 417//405 425//405 424//405
f 418//406 426//406 425//406
f 419//407 427//407 426//407
f 420//408 428//408 427//408
f 421//409 429//409 428//409
f 414//410 422//410 429//410
f 422//411 423//411 431//411
f 424//412 432//412 431//412
f 424//413 425//413 433//413
f 426//414 434//414 433//414
f 426//415 427//415 435//415
f 428//416 436//416 435//416
f 428//417 429//417 437//417
f 422//418 430//418 437//418
