# Blender 5.2.2 LTS
# www.blender.org
mtllib black_belt.mtl
g A_WaistBand.001_A_WaistBand.001
v 0.796646 0.360484 0.017500
v 0.663354 0.239516 0.017500
v 0.663354 0.239516 -0.017500
v 0.796646 0.360484 -0.017500
v 0.716525 0.440779 -0.116439
v 0.632339 0.281680 -0.116439
v 0.632339 0.281680 -0.151439
v 0.716525 0.440779 -0.151439
v 0.535457 0.501050 -0.229987
v 0.496919 0.325224 -0.229987
v 0.496919 0.325224 -0.264987
v 0.535457 0.501050 -0.264987
v 0.287496 0.537452 -0.305858
v 0.271222 0.358189 -0.305858
v 0.271222 0.358189 -0.340858
v 0.287496 0.537452 -0.340858
v 0.000000 0.550000 -0.332500
v 0.000000 0.370000 -0.332500
v 0.000000 0.370000 -0.367500
v 0.000000 0.550000 -0.367500
v -0.287496 0.537452 -0.305858
v -0.271222 0.358189 -0.305858
v -0.271222 0.358189 -0.340858
v -0.287496 0.537452 -0.340858
v -0.535457 0.501050 -0.229987
v -0.496919 0.325224 -0.229987
v -0.496919 0.325224 -0.264987
v -0.535457 0.501050 -0.264987
v -0.716525 0.440779 -0.116439
v -0.632339 0.281680 -0.116439
v -0.632339 0.281680 -0.151439
v -0.716525 0.440779 -0.151439
v -0.820000 0.300000 0.017500
v -0.640000 0.300000 0.017500
v -0.640000 0.300000 -0.017500
v -0.820000 0.300000 -0.017500
v -0.716525 0.159221 0.151439
v -0.632339 0.318320 0.151439
v -0.632339 0.318320 0.116439
v -0.716525 0.159221 0.116439
v -0.535457 0.098950 0.264987
v -0.496919 0.274776 0.264987
v -0.496919 0.274776 0.229987
v -0.535457 0.098950 0.229987
v -0.287496 0.062548 0.340858
v -0.271222 0.241811 0.340858
v -0.271222 0.241811 0.305858
v -0.287496 0.062548 0.305858
v -0.000000 0.050000 0.367500
v -0.000000 0.230000 0.367500
v -0.000000 0.230000 0.332500
v -0.000000 0.050000 0.332500
v 0.287496 0.062548 0.340858
v 0.271222 0.241811 0.340858
v 0.271222 0.241811 0.305858
v 0.287496 0.062548 0.305858
v 0.535457 0.098950 0.264987
v 0.496919 0.274776 0.264987
v 0.496919 0.274776 0.229987
v 0.535457 0.098950 0.229987
v 0.716525 0.159221 0.151439
v 0.632339 0.318320 0.151439
v 0.632339 0.318320 0.116439
v 0.716525 0.159221 0.116439
v 0.796646 0.239516 0.017500
v 0.663354 0.360484 0.017500
v 0.663354 0.360484 -0.017500
v 0.796646 0.239516 -0.017500
vn -0.6760 0.5171 0.5250
vn -0.6188 0.3839 0.6853
vn -0.6264 0.6902 0.3623
vn -0.8055 -0.5925 -0.0000
vn 0.6188 -0.3839 -0.6853
vn 0.6760 -0.5171 -0.5250
vn 0.6264 -0.6902 -0.3623
vn 0.7079 0.7063 -0.0000
vn -0.4148 0.1262 0.9011
vn -0.5785 0.3061 0.7561
vn -0.3061 -0.9520 -0.0000
vn 0.4148 -0.1262 -0.9011
vn 0.5785 -0.3061 -0.7561
vn 0.3158 0.9488 -0.0000
vn -0.1980 0.0255 0.9799
vn -0.4616 0.0934 0.8821
vn -0.1445 -0.9895 -0.0000
vn 0.4616 -0.0934 -0.8821
vn 0.1980 -0.0255 -0.9799
vn 0.1452 0.9894 -0.0000
vn -0.0000 0.0031 1.0000
vn -0.2059 0.0171 0.9784
vn -0.0435 -0.9991 -0.0000
vn 0.2059 -0.0171 -0.9784
vn -0.0000 -0.0031 -1.0000
vn 0.0436 0.9990 -0.0000
vn 0.2059 0.0171 0.9784
vn -0.0000 -0.0000 1.0000
vn 0.0435 -0.9991 -0.0000
vn -0.2059 -0.0171 -0.9784
vn -0.0000 -0.0000 -1.0000
vn -0.0436 0.9990 -0.0000
vn 0.1980 0.0255 0.9799
vn 0.4616 0.0934 0.8821
vn 0.1445 -0.9895 -0.0000
vn -0.4616 -0.0934 -0.8821
vn -0.1980 -0.0255 -0.9799
vn -0.1452 0.9894 -0.0000
vn 0.4148 0.1262 0.9011
vn 0.7823 0.3630 0.5062
vn 0.3061 -0.9520 -0.0000
vn -0.7823 -0.3630 -0.5062
vn -0.4148 -0.1262 -0.9011
vn -0.3158 0.9488 -0.0000
vn 0.4935 0.4931 0.7164
vn -0.0000 0.8365 0.5479
vn -0.9226 -0.3858 -0.0000
vn -0.0000 -0.8365 -0.5479
vn -0.4935 -0.4931 -0.7164
vn -0.8058 0.5922 -0.0000
vn -0.4935 0.4931 0.7164
vn -0.0000 0.6893 0.7245
vn -0.9226 0.3858 -0.0000
vn 0.4935 -0.4931 -0.7164
vn -0.0000 -0.6893 -0.7245
vn -0.8058 -0.5922 -0.0000
vn -0.7823 0.3630 0.5062
vn 0.3061 0.9520 -0.0000
vn 0.7823 -0.3630 -0.5062
vn -0.3158 -0.9488 -0.0000
vn 0.1445 0.9895 -0.0000
vn -0.1452 -0.9894 -0.0000
vn 0.0435 0.9991 -0.0000
vn -0.0436 -0.9990 -0.0000
vn -0.0435 0.9991 -0.0000
vn 0.0436 -0.9990 -0.0000
vn -0.1445 0.9895 -0.0000
vn 0.1452 -0.9894 -0.0000
vn 0.6188 0.3839 0.6853
vn -0.3061 0.9520 -0.0000
vn -0.6188 -0.3839 -0.6853
vn 0.3158 -0.9488 -0.0000
vn 0.6760 0.5171 0.5250
vn 0.5785 0.3061 0.7561
vn -0.8055 0.5925 -0.0000
vn -0.6760 -0.5171 -0.5250
vn -0.5785 -0.3061 -0.7561
vn 0.7079 -0.7063 -0.0000
vn 0.6720 -0.7405 -0.0000
vn 0.6720 0.7405 -0.0000
vn 0.6264 0.6902 0.3623
vn -0.6264 -0.6902 -0.3623
vt 0.000000 0.000000
vt 1.000000 0.062500
vt 1.000000 0.000000
vt 0.000000 0.062500
vt 0.000000 0.125000
vt 1.000000 0.125000
vt 0.000000 0.187500
vt 1.000000 0.187500
vt 0.000000 0.250000
vt 1.000000 0.250000
vt 1.000000 0.312500
vt 0.000000 0.312500
vt 1.000000 0.375000
vt 0.000000 0.375000
vt 1.000000 0.437500
vt 0.000000 0.437500
vt 1.000000 0.500000
vt 0.000000 0.500000
vt 0.000000 0.562500
vt 1.000000 0.562500
vt 0.000000 0.625000
vt 1.000000 0.625000
vt 0.000000 0.687500
vt 1.000000 0.687500
vt 0.000000 0.750000
vt 1.000000 0.750000
vt 1.000000 0.812500
vt 0.000000 0.812500
vt 1.000000 0.875000
vt 0.000000 0.875000
vt 1.000000 0.937500
vt 0.000000 0.937500
vt 0.000000 1.000000
vt 1.000000 1.000000
s 1
g A_WaistBand.001_black_belt_cotton
usemtl black_belt_cotton
f 1/1/1 6/2/2 2/3/3
s 3
f 7/4/5 4/3/6 3/1/7
s 1
f 9/5/9 6/2/2 5/4/10
s 3
f 7/4/5 12/6/12 8/2/13
s 1
f 13/7/15 10/6/16 9/5/9
s 3
f 11/5/18 16/8/19 12/6/12
s 1
f 17/9/21 14/8/22 13/7/15
s 3
f 15/7/24 20/10/25 16/8/19
s 1
f 17/9/21 22/11/27 18/10/28
s 3
f 23/12/30 20/10/25 19/9/31
s 1
f 21/12/33 26/13/34 22/11/27
s 3
f 27/14/36 24/11/37 23/12/30
s 1
f 25/14/39 30/15/40 26/13/34
s 3
f 31/16/42 28/13/43 27/14/36
s 1
f 29/16/45 34/17/46 30/15/40
s 3
f 35/18/48 32/15/49 31/16/42
s 1
f 37/19/51 34/17/46 33/18/52
s 3
f 35/18/48 40/20/54 36/17/55
s 1
f 41/21/9 38/20/57 37/19/51
s 3
f 39/19/59 44/22/12 40/20/54
s 1
f 45/23/15 42/22/16 41/21/9
s 3
f 43/21/18 48/24/19 44/22/12
s 1
f 49/25/21 46/24/22 45/23/15
s 3
f 47/23/24 52/26/25 48/24/19
s 1
f 49/25/21 54/27/27 50/26/28
s 3
f 55/28/30 52/26/25 51/25/31
s 1
f 53/28/33 58/29/34 54/27/27
s 3
f 59/30/36 56/27/37 55/28/30
s 1
f 57/30/39 62/31/69 58/29/34
s 3
f 63/32/71 60/29/43 59/30/36
s 1
f 65/33/73 62/31/69 61/32/74
s 3
f 63/32/71 68/34/76 64/31/77
s 1
f 1/1/1 5/4/10 6/2/2
s 3
f 7/4/5 8/2/13 4/3/6
s 1
f 9/5/9 10/6/16 6/2/2
s 3
f 7/4/5 11/5/18 12/6/12
s 1
f 13/7/15 14/8/22 10/6/16
s 3
f 11/5/18 15/7/24 16/8/19
s 1
f 17/9/21 18/10/28 14/8/22
s 3
f 15/7/24 19/9/31 20/10/25
s 1
f 17/9/21 21/12/33 22/11/27
s 3
f 23/12/30 24/11/37 20/10/25
s 1
f 21/12/33 25/14/39 26/13/34
s 3
f 27/14/36 28/13/43 24/11/37
s 1
f 25/14/39 29/16/45 30/15/40
s 3
f 31/16/42 32/15/49 28/13/43
s 1
f 29/16/45 33/18/52 34/17/46
s 3
f 35/18/48 36/17/55 32/15/49
s 1
f 37/19/51 38/20/57 34/17/46
s 3
f 35/18/48 39/19/59 40/20/54
s 1
f 41/21/9 42/22/16 38/20/57
s 3
f 39/19/59 43/21/18 44/22/12
s 1
f 45/23/15 46/24/22 42/22/16
s 3
f 43/21/18 47/23/24 48/24/19
s 1
f 49/25/21 50/26/28 46/24/22
s 3
f 47/23/24 51/25/31 52/26/25
s 1
f 49/25/21 53/28/33 54/27/27
s 3
f 55/28/30 56/27/37 52/26/25
s 1
f 53/28/33 57/30/39 58/29/34
s 3
f 59/30/36 60/29/43 56/27/37
s 1
f 57/30/39 61/32/74 62/31/69
s 3
f 63/32/71 64/31/77 60/29/43
s 1
f 65/33/73 66/34/81 62/31/69
s 3
f 63/32/71 67/33/82 68/34/76
s 0
g A_WaistBand.001_black_belt_cut_edges
usemtl black_belt_cut_edges
f 6/4/4 3/3/4 2/1/4
f 4/1/8 5/2/8 1/3/8
f 10/5/11 7/2/11 6/4/11
f 8/4/14 9/6/14 5/2/14
f 14/7/17 11/6/17 10/5/17
f 12/5/20 13/8/20 9/6/20
f 18/9/23 15/8/23 14/7/23
f 16/7/26 17/10/26 13/8/26
f 18/9/29 23/11/29 19/10/29
f 24/12/32 17/10/32 20/9/32
f 22/12/35 27/13/35 23/11/35
f 28/14/38 21/11/38 24/12/38
f 26/14/41 31/15/41 27/13/41
f 32/16/44 25/13/44 28/14/44
f 30/16/47 35/17/47 31/15/47
f 36/18/50 29/15/50 32/16/50
f 34/18/53 39/20/53 35/17/53
f 40/19/56 33/17/56 36/18/56
f 38/19/58 43/22/58 39/20/58
f 44/21/60 37/20/60 40/19/60
f 42/21/61 47/24/61 43/22/61
f 48/23/62 41/22/62 44/21/62
f 46/23/63 51/26/63 47/24/63
f 52/25/64 45/24/64 48/23/64
f 54/28/65 51/26/65 50/25/65
f 52/25/66 53/27/66 49/26/66
f 58/30/67 55/27/67 54/28/67
f 56/28/68 57/29/68 53/27/68
f 62/32/70 59/29/70 58/30/70
f 60/30/72 61/31/72 57/29/72
f 66/33/75 63/31/75 62/32/75
f 64/32/78 65/34/78 61/31/78
f 1/33/79 3/3/79 4/1/79
f 68/33/80 66/3/80 65/1/80
f 6/4/4 7/2/4 3/3/4
f 4/1/8 8/4/8 5/2/8
f 10/5/11 11/6/11 7/2/11
f 8/4/14 12/5/14 9/6/14
f 14/7/17 15/8/17 11/6/17
f 12/5/20 16/7/20 13/8/20
f 18/9/23 19/10/23 15/8/23
f 16/7/26 20/9/26 17/10/26
f 18/9/29 22/12/29 23/11/29
f 24/12/32 21/11/32 17/10/32
f 22/12/35 26/14/35 27/13/35
f 28/14/38 25/13/38 21/11/38
f 26/14/41 30/16/41 31/15/41
f 32/16/44 29/15/44 25/13/44
f 30/16/47 34/18/47 35/17/47
f 36/18/50 33/17/50 29/15/50
f 34/18/53 38/19/53 39/20/53
f 40/19/56 37/20/56 33/17/56
f 38/19/58 42/21/58 43/22/58
f 44/21/60 41/22/60 37/20/60
f 42/21/61 46/23/61 47/24/61
f 48/23/62 45/24/62 41/22/62
f 46/23/63 50/25/63 51/26/63
f 52/25/64 49/26/64 45/24/64
f 54/28/65 55/27/65 51/26/65
f 52/25/66 56/28/66 53/27/66
f 58/30/67 59/29/67 55/27/67
f 56/28/68 60/30/68 57/29/68
f 62/32/70 63/31/70 59/29/70
f 60/30/72 64/32/72 61/31/72
f 66/33/75 67/34/75 63/31/75
f 64/32/78 68/33/78 65/34/78
f 1/33/79 2/34/79 3/3/79
f 68/33/80 67/34/80 66/3/80
g B_HangingEnd-1.001_B_HangingEnd-1.001
v -0.183741 0.294861 0.384000
v -0.016259 0.205139 0.384000
v -0.016259 0.205139 0.356000
v -0.183741 0.294861 0.356000
v -0.348773 0.005623 0.414000
v -0.151227 -0.065623 0.414000
v -0.151227 -0.065623 0.386000
v -0.348773 0.005623 0.386000
v -0.418299 -0.341636 0.384000
v -0.221701 -0.378364 0.384000
v -0.221701 -0.378364 0.356000
v -0.418299 -0.341636 0.356000
v -0.518546 -0.923009 0.394000
v -0.321454 -0.956991 0.394000
v -0.321454 -0.956991 0.366000
v -0.518546 -0.923009 0.366000
vn 0.0407 0.0865 0.9954
vn 0.0054 0.0009 1.0000
vn 0.0466 0.0870 0.9951
vn 0.8950 -0.4461 -0.0000
vn -0.0054 -0.0009 -1.0000
vn -0.0407 -0.0865 -0.9954
vn -0.0466 -0.0870 -0.9951
vn -0.8686 0.4956 -0.0000
vn -0.0092 -0.0355 0.9993
vn 0.0007 0.0020 1.0000
vn 0.9755 -0.2198 -0.0000
vn 0.0092 0.0355 -0.9993
vn -0.0007 -0.0020 -1.0000
vn -0.9805 0.1963 -0.0000
vn 0.0029 0.0168 0.9999
vn -0.0071 -0.0379 0.9993
vn 0.9855 -0.1699 -0.0000
vn 0.0071 0.0379 -0.9993
vn -0.0029 -0.0168 -0.9999
vn -0.9855 0.1699 -0.0000
vn 0.4722 0.8815 -0.0000
vn -0.1699 -0.9855 -0.0000
vt 0.000000 0.000000
vt 1.000000 0.333333
vt 1.000000 0.000000
vt 0.000000 0.333333
vt 0.000000 0.666667
vt 1.000000 0.666667
vt 0.000000 1.000000
vt 1.000000 1.000000
s 1
g B_HangingEnd-1.001_black_belt_cotton
usemtl black_belt_cotton
f 69/35/83 74/36/84 70/37/85
s 3
f 75/38/87 72/37/88 71/35/89
s 1
f 77/39/91 74/36/84 73/38/92
s 3
f 75/38/87 80/40/94 76/36/95
s 1
f 81/41/97 78/40/98 77/39/91
s 3
f 79/39/100 84/42/101 80/40/94
s 1
f 69/35/83 73/38/92 74/36/84
s 3
f 75/38/87 76/36/95 72/37/88
s 1
f 77/39/91 78/40/98 74/36/84
s 3
f 75/38/87 79/39/100 80/40/94
s 1
f 81/41/97 82/42/97 78/40/98
s 3
f 79/39/100 83/41/101 84/42/101
s 0
g B_HangingEnd-1.001_black_belt_cut_edges
usemtl black_belt_cut_edges
f 70/35/86 75/36/86 71/37/86
f 76/38/90 69/37/90 72/35/90
f 78/39/93 75/36/93 74/38/93
f 76/38/96 77/40/96 73/36/96
f 78/39/99 83/42/99 79/40/99
f 84/41/102 77/40/102 80/39/102
f 69/41/103 71/37/103 72/35/103
f 84/41/104 82/37/104 81/35/104
f 70/35/86 74/38/86 75/36/86
f 76/38/90 73/36/90 69/37/90
f 78/39/93 79/40/93 75/36/93
f 76/38/96 80/39/96 77/40/96
f 78/39/99 82/41/99 83/42/99
f 84/41/102 81/42/102 77/40/102
f 69/41/103 70/42/103 71/37/103
f 84/41/104 83/42/104 82/37/104
g B_HangingEnd1.001_B_HangingEnd1.001
v 0.016259 0.205139 0.384000
v 0.183741 0.294861 0.384000
v 0.183741 0.294861 0.356000
v 0.016259 0.205139 0.356000
v 0.151227 -0.065623 0.414000
v 0.348773 0.005623 0.414000
v 0.348773 0.005623 0.386000
v 0.151227 -0.065623 0.386000
v 0.222749 -0.383285 0.384000
v 0.417251 -0.336715 0.384000
v 0.417251 -0.336715 0.356000
v 0.222749 -0.383285 0.356000
v 0.323293 -0.765449 0.394000
v 0.516707 -0.714551 0.394000
v 0.516707 -0.714551 0.366000
v 0.323293 -0.765449 0.366000
vn -0.0046 0.0009 1.0000
vn -0.0407 0.0865 0.9954
vn -0.0466 0.0870 0.9951
vn 0.8686 0.4956 -0.0000
vn 0.0407 -0.0865 -0.9954
vn 0.0046 -0.0009 -1.0000
vn 0.0466 -0.0870 -0.9951
vn -0.8950 -0.4461 -0.0000
vn 0.0092 -0.0312 0.9995
vn -0.0005 0.0014 1.0000
vn 0.9806 0.1961 -0.0000
vn -0.0092 0.0312 -0.9995
vn 0.0005 -0.0014 -1.0000
vn -0.9756 -0.2197 -0.0000
vn -0.0063 0.0247 0.9997
vn 0.0078 -0.0325 0.9994
vn 0.9671 0.2546 -0.0000
vn 0.0063 -0.0247 -0.9997
vn -0.0078 0.0325 -0.9994
vn -0.9671 -0.2544 -0.0000
vn -0.4722 0.8815 -0.0000
vn 0.2545 -0.9671 -0.0000
vn -0.0065 0.0247 0.9997
vn 0.0065 -0.0247 -0.9997
vt 0.000000 0.333333
vt 1.000000 0.000000
vt 0.000000 0.000000
vt 1.000000 0.333333
vt 1.000000 0.666667
vt 0.000000 0.666667
vt 0.000000 1.000000
vt 1.000000 1.000000
s 1
g B_HangingEnd1.001_black_belt_cotton
usemtl black_belt_cotton
f 89/43/105 86/44/106 85/45/107
s 3
f 87/45/109 92/46/110 88/44/111
s 1
f 89/43/105 94/47/113 90/46/114
s 3
f 95/48/116 92/46/110 91/43/117
s 1
f 97/49/119 94/47/113 93/48/120
s 3
f 95/48/116 100/50/122 96/47/123
s 1
f 89/43/105 90/46/114 86/44/106
s 3
f 87/45/109 91/43/117 92/46/110
s 1
f 89/43/105 93/48/120 94/47/113
s 3
f 95/48/116 96/47/123 92/46/110
s 1
f 97/49/119 98/50/127 94/47/113
s 3
f 95/48/116 99/49/128 100/50/122
s 0
g B_HangingEnd1.001_black_belt_cut_edges
usemtl black_belt_cut_edges
f 86/45/108 91/46/108 87/44/108
f 92/43/112 85/44/112 88/45/112
f 94/48/115 91/46/115 90/43/115
f 92/43/118 93/47/118 89/46/118
f 94/48/121 99/50/121 95/47/121
f 100/49/124 93/47/124 96/48/124
f 85/49/125 87/44/125 88/45/125
f 100/49/126 98/44/126 97/45/126
f 86/45/108 90/43/108 91/46/108
f 92/43/112 89/46/112 85/44/112
f 94/48/115 95/47/115 91/46/115
f 92/43/118 96/48/118 93/47/118
f 94/48/121 98/49/121 99/50/121
f 100/49/124 97/50/124 93/47/124
f 85/49/125 86/50/125 87/44/125
f 100/49/126 99/50/126 98/44/126
g C_EmbroideredRank-1.001_C_EmbroideredRank-1.001
v -0.487000 -0.814500 0.417500
v -0.490000 -0.814500 0.414500
v -0.487000 -0.817500 0.414500
v -0.313000 -0.814500 0.417500
v -0.313000 -0.817500 0.414500
v -0.310000 -0.814500 0.414500
v -0.313000 -0.814500 0.402500
v -0.310000 -0.814500 0.405500
v -0.313000 -0.817500 0.405500
v -0.490000 -0.814500 0.405500
v -0.487000 -0.814500 0.402500
v -0.487000 -0.817500 0.405500
v -0.490000 -0.765500 0.414500
v -0.487000 -0.765500 0.417500
v -0.487000 -0.762500 0.414500
v -0.313000 -0.765500 0.417500
v -0.310000 -0.765500 0.414500
v -0.313000 -0.762500 0.414500
v -0.310000 -0.765500 0.405500
v -0.313000 -0.765500 0.402500
v -0.313000 -0.762500 0.405500
v -0.490000 -0.765500 0.405500
v -0.487000 -0.762500 0.405500
v -0.487000 -0.765500 0.402500
vn -0.5774 -0.5773 0.5774
vn 0.5774 -0.5773 0.5774
vn 0.5774 -0.5773 -0.5774
vn -0.5774 -0.5773 -0.5774
vn -0.5774 0.5773 0.5774
vn 0.5774 0.5773 0.5774
vn 0.5774 0.5773 -0.5774
vn -0.5774 0.5773 -0.5774
vn -0.0000 -0.7071 0.7071
vn -0.7071 -0.7071 -0.0000
vn -0.0000 -0.7071 -0.7071
vn 0.7071 -0.7071 -0.0000
vn -0.7071 0.7071 -0.0000
vn -0.0000 0.7071 0.7071
vn 0.7071 0.7071 -0.0000
vn -0.0000 0.7071 -0.7071
vn -0.7071 -0.0000 0.7071
vn 0.7071 -0.0000 0.7071
vn 0.7071 -0.0000 -0.7071
vn -0.7071 -0.0000 -0.7071
vn -0.0000 -0.0000 1.0000
vn -0.0000 -1.0000 -0.0000
vn -1.0000 -0.0000 -0.0000
vn 1.0000 -0.0000 -0.0000
vn -0.0000 -0.0000 -1.0000
vn -0.0000 1.0000 -0.0000
vt 0.012500 0.054545
vt 0.150000 0.090909
vt 0.062500 0.150000
vt 0.983333 0.040909
vt 0.983333 0.200000
vt 1.000000 0.151515
vt 0.983333 0.054545
vt 0.866667 0.054545
vt 0.983333 0.000000
vt 0.800000 0.054545
vt 1.000000 0.054545
vt 0.800000 0.000000
vt 0.200000 0.945455
vt 0.012500 0.945455
vt 0.138889 1.000000
vt 0.983333 0.945455
vt 1.000000 0.945455
vt 0.983333 1.000000
vt 0.850000 0.945455
vt 0.937500 0.900000
vt 0.800000 0.945455
vt 0.800000 1.000000
vt 0.000000 0.800000
vt 0.016667 0.800000
vt 0.983333 1.000000
vt 0.983333 0.800000
vt 0.200000 1.000000
vt 0.200000 0.945455
vt 0.016667 0.945455
vt 0.200000 0.054545
vt 0.016667 0.054545
vt 0.983333 0.200000
vt 0.016667 0.800000
vt 0.016667 0.200000
vt 0.016667 1.000000
vt 1.000000 0.800000
s 0
g C_EmbroideredRank-1.001_black_belt_embroidered_bar
usemtl black_belt_embroidered_bar
f 101/51/129 102/52/129 103/53/129
f 104/54/130 105/55/130 106/56/130
f 107/57/131 108/58/131 109/59/131
f 110/60/132 111/61/132 112/62/132
f 113/63/133 114/64/133 115/65/133
f 116/66/134 117/67/134 118/68/134
f 119/69/135 120/66/135 121/70/135
f 122/71/136 123/72/136 124/67/136
f 105/55/137 101/51/137 103/53/137
f 110/73/138 103/53/138 102/52/138
f 112/74/139 107/75/139 109/76/139
f 109/76/140 106/56/140 105/55/140
f 123/72/141 113/63/141 115/65/141
f 116/66/142 115/65/142 114/64/142
f 119/69/143 118/77/143 117/78/143
f 124/79/144 121/70/144 120/66/144
f 114/64/145 102/52/145 101/51/145
f 117/67/146 104/54/146 106/56/146
f 120/66/147 108/58/147 107/57/147
f 122/71/148 111/61/148 110/60/148
f 104/54/149 114/64/149 101/51/149
f 112/74/150 105/55/150 103/53/150
f 102/52/151 122/71/151 110/60/151
f 108/58/152 117/78/152 106/80/152
f 111/81/153 120/66/153 107/57/153
f 118/82/154 123/83/154 115/84/154
f 105/55/137 104/54/137 101/51/137
f 110/73/138 112/74/138 103/53/138
f 112/74/139 111/85/139 107/75/139
f 109/76/140 108/86/140 106/56/140
f 123/72/141 122/71/141 113/63/141
f 116/66/142 118/68/142 115/65/142
f 119/69/143 121/70/143 118/77/143
f 124/79/144 123/83/144 121/70/144
f 114/64/145 113/63/145 102/52/145
f 117/67/146 116/66/146 104/54/146
f 120/66/147 119/69/147 108/58/147
f 122/71/148 124/67/148 111/61/148
f 104/54/149 116/66/149 114/64/149
f 112/74/150 109/76/150 105/55/150
f 102/52/151 113/63/151 122/71/151
f 108/58/152 119/69/152 117/78/152
f 111/81/153 124/79/153 120/66/153
f 118/82/154 121/70/154 123/83/154
g C_EmbroideredRank1.001_C_EmbroideredRank1.001
v 0.313000 -0.614500 0.417500
v 0.310000 -0.614500 0.414500
v 0.313000 -0.617500 0.414500
v 0.487000 -0.614500 0.417500
v 0.487000 -0.617500 0.414500
v 0.490000 -0.614500 0.414500
v 0.487000 -0.614500 0.402500
v 0.490000 -0.614500 0.405500
v 0.487000 -0.617500 0.405500
v 0.310000 -0.614500 0.405500
v 0.313000 -0.614500 0.402500
v 0.313000 -0.617500 0.405500
v 0.310000 -0.565500 0.414500
v 0.313000 -0.565500 0.417500
v 0.313000 -0.562500 0.414500
v 0.487000 -0.565500 0.417500
v 0.490000 -0.565500 0.414500
v 0.487000 -0.562500 0.414500
v 0.490000 -0.565500 0.405500
v 0.487000 -0.565500 0.402500
v 0.487000 -0.562500 0.405500
v 0.310000 -0.565500 0.405500
v 0.313000 -0.562500 0.405500
v 0.313000 -0.565500 0.402500
vn -0.5774 -0.5773 0.5774
vn 0.5774 -0.5773 0.5774
vn 0.5774 -0.5773 -0.5774
vn -0.5774 -0.5773 -0.5774
vn -0.5774 0.5773 0.5774
vn 0.5774 0.5773 0.5774
vn 0.5774 0.5773 -0.5774
vn -0.5774 0.5773 -0.5774
vn -0.0000 -0.7071 0.7071
vn -0.7071 -0.7071 -0.0000
vn -0.0000 -0.7071 -0.7071
vn 0.7071 -0.7071 -0.0000
vn -0.7071 0.7071 -0.0000
vn -0.0000 0.7071 0.7071
vn 0.7071 0.7071 -0.0000
vn -0.0000 0.7071 -0.7071
vn -0.7071 -0.0000 0.7071
vn 0.7071 -0.0000 0.7071
vn 0.7071 -0.0000 -0.7071
vn -0.7071 -0.0000 -0.7071
vn -0.0000 -0.0000 1.0000
vn -0.0000 -1.0000 -0.0000
vn -1.0000 -0.0000 -0.0000
vn 1.0000 -0.0000 -0.0000
vn -0.0000 -0.0000 -1.0000
vn -0.0000 1.0000 -0.0000
vt 0.012500 0.054545
vt 0.150000 0.090909
vt 0.062500 0.150000
vt 0.983333 0.040909
vt 0.983333 0.200000
vt 1.000000 0.151515
vt 0.983333 0.054545
vt 0.866667 0.054545
vt 0.983333 0.000000
vt 0.800000 0.054545
vt 1.000000 0.054545
vt 0.800000 0.000000
vt 0.200000 0.945455
vt 0.012500 0.945455
vt 0.138889 1.000000
vt 0.983333 0.945455
vt 1.000000 0.945455
vt 0.983333 1.000000
vt 0.850000 0.945455
vt 0.937500 0.900000
vt 0.800000 0.945455
vt 0.800000 1.000000
vt 0.000000 0.800000
vt 0.016667 0.800000
vt 0.983333 1.000000
vt 0.983333 0.800000
vt 0.200000 1.000000
vt 0.200000 0.945455
vt 0.016667 0.945455
vt 0.200000 0.054545
vt 0.016667 0.054545
vt 0.983333 0.200000
vt 0.016667 0.800000
vt 0.016667 0.200000
vt 0.016667 1.000000
vt 1.000000 0.800000
s 0
g C_EmbroideredRank1.001_black_belt_embroidered_bar
usemtl black_belt_embroidered_bar
f 125/87/155 126/88/155 127/89/155
f 128/90/156 129/91/156 130/92/156
f 131/93/157 132/94/157 133/95/157
f 134/96/158 135/97/158 136/98/158
f 137/99/159 138/100/159 139/101/159
f 140/102/160 141/103/160 142/104/160
f 143/105/161 144/102/161 145/106/161
f 146/107/162 147/108/162 148/103/162
f 129/91/163 125/87/163 127/89/163
f 134/109/164 127/89/164 126/88/164
f 136/110/165 131/111/165 133/112/165
f 133/112/166 130/92/166 129/91/166
f 147/108/167 137/99/167 139/101/167
f 140/102/168 139/101/168 138/100/168
f 143/105/169 142/113/169 141/114/169
f 148/115/170 145/106/170 144/102/170
f 138/100/171 126/88/171 125/87/171
f 141/103/172 128/90/172 130/92/172
f 144/102/173 132/94/173 131/93/173
f 146/107/174 135/97/174 134/96/174
f 128/90/175 138/100/175 125/87/175
f 136/110/176 129/91/176 127/89/176
f 126/88/177 146/107/177 134/96/177
f 132/94/178 141/114/178 130/116/178
f 135/117/179 144/102/179 131/93/179
f 142/118/180 147/119/180 139/120/180
f 129/91/163 128/90/163 125/87/163
f 134/109/164 136/110/164 127/89/164
f 136/110/165 135/121/165 131/111/165
f 133/112/166 132/122/166 130/92/166
f 147/108/167 146/107/167 137/99/167
f 140/102/168 142/104/168 139/101/168
f 143/105/169 145/106/169 142/113/169
f 148/115/170 147/119/170 145/106/170
f 138/100/171 137/99/171 126/88/171
f 141/103/172 140/102/172 128/90/172
f 144/102/173 143/105/173 132/94/173
f 146/107/174 148/103/174 135/97/174
f 128/90/175 140/102/175 138/100/175
f 136/110/176 133/112/176 129/91/176
f 126/88/177 137/99/177 146/107/177
f 132/94/178 143/105/178 141/114/178
f 135/117/179 148/115/179 144/102/179
f 142/118/180 145/106/180 147/119/180
g D_TiedKnot.001_D_TiedKnot.001
v 0.220000 0.140000 0.360000
v 0.211461 0.140000 0.285766
v 0.184997 0.140000 0.259092
v 0.136095 0.140000 0.244658
v 0.000000 0.140000 0.240000
v -0.136095 0.140000 0.244658
v -0.184997 0.140000 0.259092
v -0.211461 0.140000 0.285766
v -0.220000 0.140000 0.360000
v -0.211461 0.140000 0.434234
v -0.184997 0.140000 0.460908
v -0.136095 0.140000 0.475342
v -0.000000 0.140000 0.480000
v 0.136095 0.140000 0.475342
v 0.184997 0.140000 0.460908
v 0.211461 0.140000 0.434234
v 0.210000 0.440000 0.360000
v 0.201849 0.440000 0.285766
v 0.176588 0.440000 0.259092
v 0.129909 0.440000 0.244658
v 0.000000 0.440000 0.240000
v -0.129909 0.440000 0.244658
v -0.176588 0.440000 0.259092
v -0.201849 0.440000 0.285766
v -0.210000 0.440000 0.360000
v -0.201849 0.440000 0.434234
v -0.176588 0.440000 0.460908
v -0.129909 0.440000 0.475342
v -0.000000 0.440000 0.480000
v 0.129909 0.440000 0.475342
v 0.176588 0.440000 0.460908
v 0.201849 0.440000 0.434234
vn 0.9023 0.0295 -0.4300
vn 0.9995 0.0322 -0.0000
vn 0.9994 0.0333 -0.0000
vn 0.5165 0.0159 -0.8561
vn 0.9055 0.0276 -0.4235
vn 0.1622 0.0043 -0.9867
vn 0.5241 0.0137 -0.8516
vn -0.0000 0.0005 -1.0000
vn 0.1652 0.0031 -0.9863
vn -0.1652 0.0031 -0.9863
vn -0.0000 -0.0000 -1.0000
vn -0.1622 0.0043 -0.9867
vn -0.5241 0.0137 -0.8516
vn -0.5165 0.0159 -0.8561
vn -0.9055 0.0276 -0.4235
vn -0.9023 0.0295 -0.4300
vn -0.9995 0.0322 -0.0000
vn -0.9023 0.0295 0.4300
vn -0.9994 0.0333 -0.0000
vn -0.5165 0.0159 0.8561
vn -0.9055 0.0276 0.4235
vn -0.1622 0.0043 0.9867
vn -0.5241 0.0137 0.8516
vn -0.0000 0.0005 1.0000
vn -0.1652 0.0031 0.9863
vn 0.1652 0.0031 0.9863
vn -0.0000 -0.0000 1.0000
vn 0.1622 0.0043 0.9867
vn 0.5241 0.0137 0.8516
vn 0.5165 0.0159 0.8561
vn 0.9055 0.0276 0.4235
vn 0.9023 0.0295 0.4300
vn -0.0000 -1.0000 -0.0000
vn -0.0000 1.0000 -0.0000
vt 0.062500 0.000000
vt 0.000000 1.000000
vt 0.000000 0.000000
vt 0.125000 0.000000
vt 0.062500 1.000000
vt 0.187500 0.000000
vt 0.125000 1.000000
vt 0.250000 0.000000
vt 0.187500 1.000000
vt 0.312500 1.000000
vt 0.250000 1.000000
vt 0.312500 0.000000
vt 0.375000 1.000000
vt 0.375000 0.000000
vt 0.437500 1.000000
vt 0.437500 0.000000
vt 0.500000 1.000000
vt 0.562500 0.000000
vt 0.500000 0.000000
vt 0.625000 0.000000
vt 0.562500 1.000000
vt 0.687500 0.000000
vt 0.625000 1.000000
vt 0.750000 0.000000
vt 0.687500 1.000000
vt 0.812500 1.000000
vt 0.750000 1.000000
vt 0.812500 0.000000
vt 0.875000 1.000000
vt 0.875000 0.000000
vt 0.937500 1.000000
vt 0.937500 0.000000
vt 1.000000 1.000000
vt 0.000000 0.500000
vt 1.000000 0.500000
vt 0.019407 0.809307
vt 0.190693 0.019407
vt 0.980593 0.190693
vt 1.000000 0.000000
vt 0.920448 0.079552
vt 0.809307 0.019407
vt 0.079552 0.079552
vt 0.019407 0.190693
vt 0.079552 0.920448
vt 0.190693 0.980593
vt 0.809307 0.980593
vt 0.920448 0.920448
vt 0.980593 0.809307
s 1
g D_TiedKnot.001_black_belt_cotton
usemtl black_belt_cotton
f 150/123/181 165/124/182 149/125/183
f 151/126/184 166/127/185 150/123/181
f 152/128/186 167/129/187 151/126/184
f 153/130/188 168/131/189 152/128/186
f 153/130/188 170/132/190 169/133/191
f 154/134/192 171/135/193 170/132/190
f 155/136/194 172/137/195 171/135/193
f 156/138/196 173/139/197 172/137/195
f 158/140/198 173/139/197 157/141/199
f 159/142/200 174/143/201 158/140/198
f 160/144/202 175/145/203 159/142/200
f 161/146/204 176/147/205 160/144/202
f 161/146/204 178/148/206 177/149/207
f 162/150/208 179/151/209 178/148/206
f 163/152/210 180/153/211 179/151/209
f 164/154/212 165/155/182 180/153/211
s 0
f 157/156/213 153/139/213 149/157/213
f 172/158/214 176/159/214 180/160/214
s 1
f 150/123/181 166/127/185 165/124/182
f 151/126/184 167/129/187 166/127/185
f 152/128/186 168/131/189 167/129/187
f 153/130/188 169/133/191 168/131/189
f 153/130/188 154/134/192 170/132/190
f 154/134/192 155/136/194 171/135/193
f 155/136/194 156/138/196 172/137/195
f 156/138/196 157/141/199 173/139/197
f 158/140/198 174/143/201 173/139/197
f 159/142/200 175/145/203 174/143/201
f 160/144/202 176/147/205 175/145/203
f 161/146/204 177/149/207 176/147/205
f 161/146/204 162/150/208 178/148/206
f 162/150/208 163/152/210 179/151/209
f 163/152/210 164/154/212 180/153/211
f 164/154/212 149/161/183 165/155/182
s 0
f 149/157/213 164/160/213 163/162/213
f 163/162/213 162/163/213 161/141/213
f 161/141/213 160/159/213 159/164/213
f 159/164/213 158/165/213 157/156/213
f 157/156/213 156/158/213 155/166/213
f 155/166/213 154/167/213 153/139/213
f 153/139/213 152/168/213 151/169/213
f 151/169/213 150/170/213 149/157/213
f 149/157/213 163/162/213 161/141/213
f 161/141/213 159/164/213 157/156/213
f 157/156/213 155/166/213 153/139/213
f 153/139/213 151/169/213 149/157/213
f 149/157/213 161/141/213 157/156/213
f 180/160/214 165/157/214 166/170/214
f 166/170/214 167/169/214 168/168/214
f 168/168/214 169/139/214 170/167/214
f 170/167/214 171/166/214 172/158/214
f 172/158/214 173/156/214 174/165/214
f 174/165/214 175/164/214 176/159/214
f 176/159/214 177/141/214 178/163/214
f 178/163/214 179/162/214 180/160/214
f 180/160/214 166/170/214 168/168/214
f 168/168/214 170/167/214 172/158/214
f 172/158/214 174/165/214 176/159/214
f 176/159/214 178/163/214 180/160/214
f 180/160/214 168/168/214 172/158/214
