# Blender 5.2.2 LTS
# www.blender.org
mtllib cinder_ruby.mtl
g A_ShadowHull.001_SHADOW_A_ShadowHull_front.001
v 0.158278 0.970312 -0.015038
v 0.158096 0.970848 -0.004044
v 0.179058 0.959318 -0.008897
v 0.155519 0.974263 -0.011760
v 0.165986 0.968506 -0.014184
v 0.163072 0.972292 -0.011036
v 0.165829 0.968971 -0.004658
v 0.155452 0.974460 -0.007725
v 0.163025 0.972430 -0.008195
v 0.173614 0.964471 -0.011930
v 0.173523 0.964739 -0.006440
v 0.168442 0.969451 -0.009449
v 0.128654 0.970848 -0.004044
v 0.128477 0.970312 -0.015038
v 0.098260 0.959643 -0.008876
v 0.128596 0.973920 -0.007777
v 0.118383 0.968934 -0.004572
v 0.121687 0.972439 -0.008145
v 0.118174 0.968569 -0.014230
v 0.128534 0.973733 -0.011621
v 0.121624 0.972327 -0.011055
v 0.107276 0.964841 -0.006337
v 0.107135 0.964672 -0.011979
v 0.114776 0.969482 -0.009427
v -0.340989 0.604526 0.234356
v -0.350000 0.610000 0.218655
v -0.345495 0.607263 0.230949
v -0.348793 0.609267 0.225202
v -0.341151 0.604002 -0.205519
v -0.350000 0.610000 -0.190680
v -0.345576 0.607001 -0.202389
v -0.348814 0.609196 -0.196958
v -0.662292 0.027430 0.050441
v -0.660697 -0.016516 0.059702
v -0.662083 0.027491 0.069282
v -0.659521 0.048993 0.059736
v -0.662987 0.013363 0.052949
v -0.662755 0.034664 0.052881
v -0.664225 0.024356 0.056366
v -0.662374 -0.002703 0.063201
v -0.662404 -0.002717 0.056337
v -0.664117 0.011835 0.059835
v -0.662636 0.034717 0.066795
v -0.662881 0.013399 0.066706
v -0.664173 0.024379 0.063347
v -0.661742 0.042543 0.056277
v -0.661700 0.042573 0.063307
v -0.663807 0.034307 0.059846
v -0.514278 -0.693996 0.225788
v -0.520199 -0.681927 0.235628
v -0.527142 -0.684288 0.216283
v -0.517489 -0.691872 0.230249
v -0.519876 -0.692729 0.222934
v -0.521289 -0.691034 0.227243
v -0.523641 -0.682816 0.229952
v -0.519632 -0.687504 0.233811
v -0.522487 -0.687930 0.229470
v -0.524550 -0.689202 0.219481
v -0.526178 -0.683679 0.222883
v -0.524060 -0.688467 0.224906
v -0.512049 -0.723783 -0.135859
v -0.506360 -0.733584 -0.125561
v -0.519673 -0.721635 -0.115167
v -0.511791 -0.728912 -0.133600
v -0.515669 -0.723235 -0.129724
v -0.514594 -0.728305 -0.129126
v -0.512097 -0.731606 -0.122083
v -0.509742 -0.732443 -0.129890
v -0.513460 -0.730907 -0.126721
v -0.518456 -0.722450 -0.122161
v -0.516941 -0.727259 -0.118302
v -0.516250 -0.727767 -0.124251
v 0.650194 -0.207918 -0.092324
v 0.658178 -0.199233 -0.076377
v 0.654927 -0.219670 -0.078012
v 0.654316 -0.204984 -0.088147
v 0.653287 -0.212175 -0.088729
v 0.655908 -0.209079 -0.085940
v 0.658324 -0.205904 -0.076896
v 0.657227 -0.201817 -0.082332
v 0.657530 -0.207077 -0.082179
v 0.655011 -0.216457 -0.083514
v 0.657136 -0.213374 -0.077493
v 0.656819 -0.211754 -0.082558
v 0.652484 -0.207347 -0.058105
v 0.654927 -0.219670 -0.073786
v 0.657559 -0.201696 -0.070160
v 0.658324 -0.205904 -0.075555
v 0.657806 -0.206979 -0.070358
v 0.654587 -0.211629 -0.062585
v 0.655478 -0.204661 -0.063482
v 0.656603 -0.208811 -0.066211
v 0.657136 -0.213374 -0.074608
v 0.655479 -0.216129 -0.068311
v 0.657135 -0.211596 -0.069766
v 0.404486 -0.680092 0.251892
v 0.396280 -0.691863 0.244712
v 0.411493 -0.683716 0.230506
v 0.403228 -0.685581 0.250884
v 0.408037 -0.681612 0.245603
v 0.405910 -0.686301 0.246327
v 0.402115 -0.690927 0.240327
v 0.400260 -0.689837 0.248287
v 0.404040 -0.689224 0.244661
v 0.410597 -0.682936 0.237790
v 0.407664 -0.687954 0.235144
v 0.407347 -0.687054 0.241308
v 0.371902 -0.738411 -0.265483
v 0.383266 -0.737525 -0.247045
v 0.366688 -0.748273 -0.255924
v 0.377100 -0.738651 -0.260580
v 0.371320 -0.743614 -0.263939
v 0.375227 -0.743402 -0.260321
v 0.379003 -0.742590 -0.249739
v 0.381244 -0.738328 -0.253856
v 0.377697 -0.743068 -0.255818
v 0.369445 -0.747161 -0.260502
v 0.372957 -0.746510 -0.252977
v 0.373934 -0.745853 -0.257949
v 0.541373 0.435116 -0.160035
v 0.543653 0.448886 -0.147004
v 0.551822 0.429233 -0.142554
v 0.543679 0.440178 -0.156893
v 0.546277 0.433422 -0.155372
v 0.546812 0.437979 -0.153773
v 0.547016 0.442975 -0.145593
v 0.544509 0.445193 -0.152147
v 0.547068 0.441031 -0.150671
v 0.550089 0.431276 -0.148995
v 0.550004 0.435786 -0.143965
v 0.548859 0.436577 -0.149660
v 0.543955 0.433955 0.077556
v 0.551822 0.429233 0.056567
v 0.543653 0.448886 0.064436
v 0.547639 0.432570 0.071318
v 0.545264 0.439208 0.073940
v 0.547659 0.437415 0.069821
v 0.550004 0.435786 0.059063
v 0.550514 0.430843 0.063646
v 0.549196 0.436320 0.065063
v 0.545153 0.444657 0.069152
v 0.547016 0.442975 0.061941
v 0.547469 0.440744 0.066829
v 0.425171 0.600254 0.226036
v 0.423875 0.616575 0.214158
v 0.412146 0.615177 0.227424
v 0.426164 0.605947 0.222815
v 0.421848 0.605564 0.228003
v 0.423160 0.609969 0.225069
v 0.421236 0.617645 0.219507
v 0.425691 0.611905 0.218480
v 0.422955 0.613816 0.222361
v 0.417098 0.611005 0.228509
v 0.416973 0.617137 0.224329
v 0.420230 0.613527 0.225535
v 0.448640 0.564942 -0.217735
v 0.435942 0.581582 -0.217177
v 0.449359 0.580898 -0.205676
v 0.444980 0.570544 -0.218773
v 0.450449 0.570698 -0.214903
v 0.447259 0.575016 -0.216149
v 0.441368 0.582843 -0.214774
v 0.440341 0.576625 -0.218569
v 0.444360 0.578892 -0.216099
v 0.450711 0.576512 -0.210509
v 0.446241 0.582594 -0.210596
v 0.447637 0.578844 -0.213537
v -0.436880 0.435671 0.333313
v -0.424859 0.452512 0.333286
v -0.436729 0.452804 0.320941
v -0.433834 0.441572 0.334812
v -0.438198 0.441512 0.329928
v -0.435426 0.446115 0.331769
v -0.429904 0.454050 0.330489
v -0.429448 0.447716 0.334802
v -0.432778 0.450107 0.331927
v -0.438143 0.447769 0.325409
v -0.434213 0.454155 0.326005
v -0.435533 0.450126 0.328958
v -0.388404 0.518357 -0.250054
v -0.398439 0.499850 -0.253706
v -0.404204 0.511755 -0.241757
v -0.391668 0.512710 -0.252116
v -0.394760 0.517623 -0.248706
v -0.397124 0.513086 -0.250653
v -0.401956 0.504420 -0.251484
v -0.395338 0.505942 -0.253452
v -0.399425 0.508865 -0.251537
v -0.400503 0.515222 -0.245689
v -0.404048 0.508739 -0.247149
v -0.401034 0.511794 -0.249056
v -0.409238 0.480276 -0.251850
v -0.426855 0.454159 -0.241500
v -0.418341 0.486131 -0.239328
v -0.415491 0.471994 -0.249703
v -0.413822 0.482921 -0.249442
v -0.417539 0.477325 -0.248116
v -0.425497 0.464691 -0.241320
v -0.421935 0.462441 -0.245917
v -0.421293 0.471468 -0.245540
v -0.417120 0.485042 -0.244906
v -0.422383 0.476383 -0.240526
v -0.419713 0.478710 -0.245214
v -0.429331 -0.669923 0.342164
v -0.417588 -0.681223 0.339149
v -0.415990 -0.669058 0.350531
v -0.426906 -0.675255 0.342524
v -0.424888 -0.669618 0.346283
v -0.423531 -0.674759 0.345970
v -0.417079 -0.679007 0.344542
v -0.422656 -0.679344 0.341433
v -0.421060 -0.677701 0.345397
v -0.420009 -0.669301 0.349330
v -0.416500 -0.674599 0.348667
v -0.420222 -0.674561 0.347911
v 0.075650 -0.681223 0.339149
v 0.071402 -0.669056 0.350531
v 0.075300 -0.679145 0.344646
v 0.073746 -0.674692 0.348812
v -0.387255 0.346271 0.391494
v -0.374499 0.337581 0.399397
v -0.373725 0.360392 0.393237
v -0.382990 0.342941 0.395437
v -0.383729 0.351310 0.393555
v -0.380907 0.348111 0.396264
v -0.374166 0.345545 0.398465
v -0.378322 0.339766 0.398316
v -0.377848 0.346289 0.397838
v -0.378794 0.356459 0.394191
v -0.373883 0.353885 0.396209
v -0.378007 0.351612 0.396504
v 0.209238 -0.748870 -0.358150
v 0.229272 -0.748411 -0.354231
v 0.217745 -0.758716 -0.348600
v 0.215850 -0.748724 -0.358208
v 0.211603 -0.754093 -0.356922
v 0.216976 -0.753902 -0.357199
v 0.226675 -0.753747 -0.353948
v 0.223169 -0.748556 -0.356776
v 0.221769 -0.753790 -0.356254
v 0.214672 -0.757644 -0.353478
v 0.222514 -0.757467 -0.351915
v 0.219079 -0.756613 -0.355204
v 0.356822 -0.673379 0.311473
v 0.339145 -0.672361 0.321190
v 0.344282 -0.684540 0.309710
v 0.351900 -0.673056 0.315810
v 0.354182 -0.678670 0.312194
v 0.350381 -0.678161 0.315820
v 0.340961 -0.677896 0.319379
v 0.345444 -0.672684 0.319359
v 0.346176 -0.677913 0.318108
v 0.349642 -0.682711 0.311555
v 0.342823 -0.682311 0.315217
v 0.347505 -0.681056 0.315623
v -0.426855 -0.735686 -0.241500
v -0.409238 -0.736892 -0.251850
v -0.414064 -0.746480 -0.240008
v -0.421932 -0.736069 -0.245920
v -0.424332 -0.741126 -0.242058
v -0.420448 -0.741351 -0.245878
v -0.411135 -0.742033 -0.249889
v -0.415495 -0.736509 -0.249701
v -0.416250 -0.741642 -0.248366
v -0.419710 -0.745026 -0.241519
v -0.412875 -0.745490 -0.245619
v -0.417574 -0.744282 -0.245777
v 0.209238 0.298996 -0.358150
v 0.216118 0.318545 -0.353957
v 0.229272 0.302450 -0.354231
v 0.211338 0.305418 -0.357724
v 0.215849 0.300092 -0.358208
v 0.216706 0.305141 -0.357876
v 0.220661 0.313761 -0.355258
v 0.213855 0.312568 -0.356190
v 0.218248 0.309520 -0.356932
v 0.223169 0.301354 -0.356776
v 0.225468 0.307880 -0.355358
v 0.221225 0.305929 -0.357110
v 0.339145 0.457841 0.321190
v 0.356822 0.468973 0.311473
v 0.342268 0.480960 0.314772
v 0.345443 0.461373 0.319360
v 0.340264 0.465894 0.320171
v 0.345730 0.467830 0.318797
v 0.353012 0.473351 0.314047
v 0.351902 0.465441 0.315809
v 0.349800 0.470219 0.316821
v 0.341406 0.474346 0.317821
v 0.347707 0.477720 0.315250
v 0.346461 0.473059 0.317467
vn 0.2411 0.7235 -0.6468
vn 0.2562 0.9657 -0.0428
vn 0.2437 0.7739 0.5845
vn 0.5122 0.7808 0.3578
vn 0.6941 0.7195 -0.0236
vn 0.5183 0.7463 -0.4177
vn 0.4754 0.8791 -0.0350
vn -0.1761 0.7791 0.6016
vn -0.2071 0.9773 -0.0443
vn -0.1979 0.6944 -0.6919
vn -0.4318 0.7796 -0.4537
vn -0.4966 0.8679 -0.0134
vn -0.3725 0.8499 0.3727
vn -0.3890 0.9208 -0.0271
vn -0.9556 0.0374 -0.2924
vn -0.9831 -0.0566 -0.1738
vn -0.9926 -0.1217 0.0045
vn -0.9786 -0.0727 0.1925
vn -0.9419 -0.0080 0.3359
vn -0.9827 0.0927 0.1601
vn -0.9462 0.3235 0.0043
vn -0.9732 0.1843 -0.1375
vn -0.9992 0.0394 0.0072
vn -0.3327 -0.9097 0.2487
vn -0.5690 -0.6129 0.5483
vn -0.8086 -0.2550 0.5302
vn -0.9094 -0.2374 0.3414
vn -0.9128 -0.3724 0.1678
vn -0.6668 -0.7281 0.1589
vn -0.7762 -0.5368 0.3307
vn -0.8432 -0.2516 -0.4751
vn -0.6449 -0.6990 -0.3090
vn -0.3574 -0.9334 0.0332
vn -0.7031 -0.7039 0.1005
vn -0.9172 -0.3814 -0.1151
vn -0.9150 -0.2576 -0.3104
vn -0.8077 -0.5495 -0.2138
vn 0.7278 -0.0488 -0.6840
vn 0.8906 0.1083 -0.4417
vn 0.9844 0.0349 -0.1724
vn 0.9824 -0.1471 -0.1149
vn 0.9343 -0.3138 -0.1690
vn 0.8510 -0.2313 -0.4714
vn 0.9329 -0.1141 -0.3416
vn 0.9930 0.0356 0.1130
vn 0.9500 0.0327 0.3106
vn 0.8835 -0.0531 0.4654
vn 0.9155 -0.2386 0.3238
vn 0.9423 -0.3162 0.1096
vn 0.9892 -0.1373 0.0506
vn 0.9665 -0.1108 0.2313
vn 0.8052 -0.2806 0.5224
vn 0.5808 -0.6789 0.4491
vn 0.3182 -0.9319 0.1739
vn 0.5871 -0.8076 0.0565
vn 0.8132 -0.5596 0.1600
vn 0.8574 -0.3814 0.3455
vn 0.7169 -0.6295 0.2998
vn 0.6604 -0.2805 -0.6966
vn 0.8316 -0.3513 -0.4302
vn 0.7964 -0.5810 -0.1678
vn 0.5643 -0.8237 -0.0564
vn 0.2992 -0.9518 -0.0670
vn 0.4873 -0.7262 -0.4849
vn 0.6741 -0.6655 -0.3205
vn 0.7049 0.1134 -0.7002
vn 0.7711 0.4209 -0.4777
vn 0.8728 0.4535 -0.1803
vn 0.9301 0.3461 -0.1230
vn 0.9564 0.2253 -0.1859
vn 0.8700 0.1426 -0.4720
vn 0.8941 0.2802 -0.3494
vn 0.8663 0.1183 0.4853
vn 0.9537 0.0851 0.2885
vn 0.9671 0.2193 0.1288
vn 0.9321 0.3496 0.0944
vn 0.8840 0.4510 0.1232
vn 0.8834 0.3193 0.3430
vn 0.9330 0.2685 0.2396
vn 0.7400 0.2288 0.6325
vn 0.8229 0.3756 0.4263
vn 0.7828 0.5584 0.2745
vn 0.5370 0.6457 0.5428
vn 0.2853 0.5439 0.7892
vn 0.5086 0.3139 0.8017
vn 0.6530 0.4590 0.6024
vn 0.5597 0.2175 -0.7996
vn 0.3780 0.3176 -0.8696
vn 0.2637 0.4704 -0.8421
vn 0.5362 0.6040 -0.5896
vn 0.7720 0.5631 -0.2950
vn 0.7753 0.3020 -0.5547
vn 0.5606 0.4283 -0.7087
vn -0.7301 0.2118 0.6497
vn -0.4970 0.3560 0.7914
vn -0.2843 0.5256 0.8018
vn -0.5756 0.6159 0.5379
vn -0.8285 0.4835 0.2826
vn -0.8527 0.2843 0.4383
vn -0.6651 0.4165 0.6198
vn -0.2347 0.4503 -0.8615
vn -0.2270 0.3055 -0.9247
vn -0.3215 0.2022 -0.9251
vn -0.6472 0.3606 -0.6716
vn -0.8039 0.5089 -0.3079
vn -0.4607 0.6573 -0.5964
vn -0.4581 0.4143 -0.7865
vn -0.4305 0.0728 -0.8997
vn -0.5840 0.0173 -0.8116
vn -0.7593 0.1089 -0.6415
vn -0.8596 0.2588 -0.4406
vn -0.8684 0.3967 -0.2976
vn -0.6829 0.3119 -0.6605
vn -0.7399 0.1904 -0.6452
vn -0.6497 -0.2469 0.7190
vn -0.4876 -0.6594 0.5723
vn -0.1615 -0.9074 0.3879
vn -0.0346 -0.6188 0.7848
vn -0.2584 -0.2865 0.9226
vn -0.5088 -0.2050 0.8361
vn -0.4163 -0.4978 0.7608
vn -0.6177 0.1140 0.7781
vn -0.4411 0.0343 0.8968
vn -0.2049 0.1223 0.9711
vn -0.1160 0.2382 0.9643
vn -0.1520 0.4137 0.8976
vn -0.4467 0.3252 0.8335
vn -0.3402 0.2190 0.9145
vn -0.0034 -0.2303 -0.9731
vn 0.1946 -0.1466 -0.9699
vn 0.3791 -0.2320 -0.8958
vn 0.3094 -0.6986 -0.6451
vn 0.0450 -0.9545 -0.2948
vn -0.1382 -0.6542 -0.7436
vn 0.1797 -0.4888 -0.8537
vn 0.6373 -0.2172 0.7394
vn 0.4671 -0.1372 0.8735
vn 0.2617 -0.2215 0.9394
vn 0.1813 -0.6330 0.7527
vn 0.2022 -0.8881 0.4129
vn 0.5741 -0.6077 0.5487
vn 0.4045 -0.4558 0.7929
vn -0.6597 -0.2327 -0.7146
vn -0.5084 -0.1496 -0.8480
vn -0.3286 -0.2283 -0.9165
vn -0.2526 -0.6991 -0.6689
vn -0.2363 -0.9471 -0.2171
vn -0.6369 -0.6392 -0.4311
vn -0.4703 -0.4863 -0.7364
vn -0.0207 0.0730 -0.9971
vn -0.0165 0.2163 -0.9762
vn 0.0722 0.3251 -0.9429
vn 0.2560 0.2253 -0.9401
vn 0.3733 0.0694 -0.9251
vn 0.1674 -0.0009 -0.9859
vn 0.1374 0.1623 -0.9771
vn 0.2308 0.0904 0.9688
vn 0.4530 0.0573 0.8897
vn 0.6235 0.0856 0.7771
vn 0.4288 0.3113 0.8481
vn 0.1568 0.3966 0.9045
vn 0.1258 0.2281 0.9655
vn 0.3378 0.1875 0.9224
vn -0.8621 -0.0473 -0.5045
vn -0.9367 -0.1044 -0.3343
vn -0.9758 -0.1576 -0.1514
vn -0.8921 -0.4507 0.0307
vn -0.6343 -0.7697 0.0724
vn -0.2687 -0.9578 0.1019
vn -0.9749 -0.1582 0.1570
vn -0.9319 -0.1049 0.3473
vn -0.8508 -0.0474 0.5233
vn 0.8917 -0.3966 -0.2180
vn 0.8252 -0.2711 -0.4955
vn 0.6784 -0.1193 -0.7249
vn 0.9998 0.0219 0.0001
vn 0.9876 -0.1571 0.0001
vn 0.9436 -0.3310 -0.0000
vn 0.8532 -0.1137 0.5091
vn 0.9060 -0.2526 0.3396
vn 0.9128 -0.3786 0.1529
vn 0.2275 -0.9691 0.0957
vn 0.5179 -0.8529 0.0655
vn 0.7572 -0.6526 0.0288
vn 0.9795 0.1339 0.1505
vn 0.9391 0.0887 0.3320
vn 0.8643 0.0402 0.5014
vn 0.6961 0.0423 -0.7167
vn 0.8682 0.0957 -0.4868
vn 0.9663 0.1408 -0.2154
vn 0.8692 0.4945 -0.0000
vn 0.9234 0.3838 -0.0000
vn 0.9636 0.2673 -0.0000
vn 0.8640 0.4791 0.1547
vn 0.8817 0.3214 0.3454
vn 0.8451 0.1439 0.5149
vn 0.6656 0.1505 -0.7310
vn 0.7936 0.3437 -0.5021
vn 0.8374 0.5004 -0.2199
vn 0.7331 0.6413 -0.2266
vn 0.5110 0.6546 -0.5571
vn 0.2211 0.5696 -0.7916
vn 0.2132 0.6353 0.7422
vn 0.5014 0.6941 0.5166
vn 0.7296 0.6530 0.2032
vn -0.5321 0.8199 0.2111
vn -0.3691 0.7911 0.4879
vn -0.1630 0.6764 0.7183
vn -0.1643 0.6126 -0.7731
vn -0.3763 0.7591 -0.5313
vn -0.5393 0.8106 -0.2285
vn -0.8386 0.1188 0.5316
vn -0.8964 0.2646 0.3555
vn -0.9044 0.3957 0.1596
vn -0.7917 0.5736 0.2103
vn -0.5418 0.6470 0.5365
vn -0.2071 0.6107 0.7643
vn -0.2105 0.5399 -0.8150
vn -0.5543 0.6026 -0.5741
vn -0.8010 0.5559 -0.2224
vn -0.3989 0.1340 -0.9072
vn -0.6895 0.3188 -0.6503
vn -0.8529 0.4447 -0.2734
vn -0.9059 0.3945 -0.1539
vn -0.9019 0.2634 -0.3423
vn -0.8504 0.1184 -0.5127
vn -0.2843 -0.0348 0.9581
vn -0.5286 -0.0194 0.8486
vn -0.6796 -0.0075 0.7336
vn -0.0000 -0.9250 0.3799
vn -0.0003 -0.6832 0.7302
vn -0.0000 -0.3188 0.9478
vn 0.7335 -0.2818 0.6185
vn 0.5338 -0.6793 0.5036
vn 0.2215 -0.9334 0.2823
vn 0.0280 -0.9345 0.3550
vn 0.0736 -0.6675 0.7409
vn 0.1024 -0.2511 0.9625
vn -0.2155 -0.9328 0.2889
vn -0.5195 -0.6784 0.5195
vn -0.7142 -0.2815 0.6409
vn -0.7600 -0.2935 -0.5798
vn -0.5708 -0.7288 -0.3783
vn -0.2300 -0.9702 -0.0761
vn -0.0506 -0.9817 -0.1838
vn -0.1270 -0.7450 -0.6549
vn -0.1673 -0.2968 -0.9402
vn 0.1573 -0.9772 -0.1427
vn 0.3927 -0.7386 -0.5479
vn 0.5195 -0.2959 -0.8016
vn -0.0400 0.3630 -0.9309
vn -0.0875 0.2383 -0.9672
vn -0.1333 0.1089 -0.9851
vn -0.0000 0.6384 -0.7697
vn -0.0199 0.9986 -0.0490
vn -0.0000 0.7137 0.7004
vn 0.4254 0.1115 -0.8981
vn 0.2821 0.2464 -0.9272
vn 0.1277 0.3715 -0.9196
vn -0.6391 0.1377 0.7567
vn -0.4330 0.3104 0.8463
vn -0.1921 0.4582 0.8679
vn 0.0896 0.1121 0.9897
vn 0.0621 0.2586 0.9640
vn 0.0298 0.4147 0.9095
vn 0.1980 0.4602 0.8655
vn 0.4473 0.3125 0.8380
vn 0.6587 0.1383 0.7395
vn -0.3247 -0.0000 -0.9458
vn -0.5065 -0.0000 -0.8622
vn -0.6681 -0.0000 -0.7441
vn 0.6612 -0.0000 0.7502
vn 0.4817 -0.0000 0.8763
vn 0.2791 -0.0000 0.9603
vn -0.0087 -0.0000 -1.0000
vn 0.1920 -0.0000 -0.9814
vn 0.3849 -0.0000 -0.9230
vn -0.0000 0.4614 -0.8872
vn 0.8137 0.5812 -0.0000
vn -0.0000 0.5455 0.8381
vn -0.6150 0.7885 -0.0000
vn -0.8756 0.4831 -0.0000
vn -0.7784 -0.0000 -0.6278
vn -0.9806 -0.1961 -0.0000
vn -0.7608 -0.0000 0.6489
vn -0.0000 -0.9937 0.1120
vn 0.5283 -0.0000 -0.8491
vn 0.8855 -0.4646 -0.0000
vn 0.9860 0.1669 -0.0000
vn 0.7809 -0.0000 0.6247
vn -0.1694 -0.0000 -0.9855
vn -0.0000 -0.0485 0.9988
vn 0.1089 -0.0000 0.9940
vn 0.2493 0.7154 -0.6527
vn 0.2356 0.7814 0.5778
vn 0.5123 0.7808 0.3578
vn 0.6874 0.7259 -0.0240
vn 0.5182 0.7463 -0.4177
vn -0.1952 0.7558 0.6250
vn -0.2018 0.9788 -0.0334
vn -0.1748 0.7241 -0.6672
vn -0.3771 0.8237 -0.4234
vn -0.5298 0.8481 -0.0120
vn -0.4222 0.8109 0.4053
vn -0.9493 -0.0091 -0.3144
vn -0.9815 -0.0730 -0.1772
vn -0.9930 -0.1180 0.0045
vn -0.9802 -0.0574 0.1893
vn -0.9483 0.0359 0.3152
vn -0.9711 0.1835 0.1528
vn -0.9695 0.2451 0.0048
vn -0.9853 0.0918 -0.1441
vn -1.0000 -0.0065 0.0073
vn -0.3494 -0.9184 0.1857
vn -0.5940 -0.6630 0.4557
vn -0.8019 -0.2328 0.5502
vn -0.9015 -0.2492 0.3539
vn -0.9260 -0.3539 0.1316
vn -0.7011 -0.7113 0.0499
vn -0.8377 -0.2358 -0.4926
vn -0.6270 -0.6582 -0.4166
vn -0.3470 -0.9371 -0.0394
vn -0.6744 -0.7382 -0.0152
vn -0.9313 -0.3558 -0.0777
vn -0.9286 -0.2312 -0.2901
vn 0.7576 -0.0558 -0.6503
vn 0.8852 0.0375 -0.4637
vn 0.9858 0.0522 -0.1597
vn 0.9843 -0.1410 -0.1066
vn 0.9316 -0.3252 -0.1622
vn 0.8376 -0.2955 -0.4594
vn 0.9933 0.0423 0.1078
vn 0.9514 0.0593 0.3021
vn 0.8903 -0.0557 0.4519
vn 0.9173 -0.2310 0.3244
vn 0.9444 -0.3086 0.1135
vn 0.9866 -0.1484 0.0677
vn 0.8056 -0.2853 0.5193
vn 0.5782 -0.6506 0.4924
vn 0.3153 -0.9225 0.2224
vn 0.5704 -0.8080 0.1474
vn 0.8273 -0.5481 0.1226
vn 0.8838 -0.3537 0.3062
vn 0.6486 -0.2940 -0.7020
vn 0.7896 -0.3973 -0.4676
vn 0.8191 -0.5583 -0.1320
vn 0.5913 -0.8064 0.0097
vn 0.3044 -0.9513 -0.0479
vn 0.4876 -0.7267 -0.4838
vn 0.7464 0.1406 -0.6505
vn 0.8107 0.3259 -0.4863
vn 0.8653 0.4711 -0.1715
vn 0.9253 0.3536 -0.1370
vn 0.9650 0.2031 -0.1659
vn 0.9005 0.0459 -0.4324
vn 0.8810 0.1362 0.4530
vn 0.9369 0.1429 0.3190
vn 0.9723 0.2049 0.1127
vn 0.9383 0.3392 0.0678
vn 0.8844 0.4502 0.1234
vn 0.8659 0.3608 0.3465
vn 0.7457 0.2009 0.6353
vn 0.8390 0.3425 0.4228
vn 0.7825 0.5577 0.2770
vn 0.5388 0.6607 0.5227
vn 0.3086 0.5402 0.7829
vn 0.5057 0.3688 0.7799
vn 0.5642 0.1846 -0.8047
vn 0.3755 0.2922 -0.8795
vn 0.2514 0.4736 -0.8441
vn 0.4764 0.6454 -0.5971
vn 0.7588 0.5526 -0.3448
vn 0.7380 0.3854 -0.5539
vn -0.7345 0.1808 0.6541
vn -0.4941 0.2952 0.8178
vn -0.3139 0.5189 0.7951
vn -0.5704 0.5989 0.5622
vn -0.8273 0.4822 0.2882
vn -0.8355 0.3265 0.4419
vn -0.1979 0.4718 -0.8592
vn -0.2126 0.3099 -0.9267
vn -0.3164 0.1692 -0.9334
vn -0.6738 0.2256 -0.7036
vn -0.7652 0.5076 -0.3961
vn -0.5567 0.5553 -0.6179
vn -0.4371 0.0983 -0.8941
vn -0.5858 0.0754 -0.8069
vn -0.7683 0.0812 -0.6349
vn -0.8907 0.2124 -0.4018
vn -0.8869 0.3764 -0.2677
vn -0.6953 0.3080 -0.6494
vn -0.6805 -0.2220 0.6983
vn -0.6126 -0.6119 0.5002
vn -0.1929 -0.8766 0.4409
vn -0.1556 -0.6640 0.7314
vn -0.1955 -0.2481 0.9488
vn -0.4894 -0.1811 0.8531
vn -0.6189 0.1254 0.7754
vn -0.4729 0.0985 0.8756
vn -0.1508 0.0830 0.9851
vn -0.0760 0.2628 0.9619
vn -0.1583 0.4041 0.9009
vn -0.4480 0.3136 0.8372
vn -0.0433 -0.2001 -0.9788
vn 0.1931 -0.1484 -0.9699
vn 0.4182 -0.2002 -0.8860
vn 0.4364 -0.6481 -0.6241
vn 0.1131 -0.9531 -0.2806
vn -0.0117 -0.7014 -0.7127
vn 0.6631 -0.1958 0.7224
vn 0.4705 -0.1424 0.8708
vn 0.2315 -0.1955 0.9530
vn 0.0898 -0.5940 0.7995
vn 0.1508 -0.8855 0.4394
vn 0.4846 -0.6389 0.5975
vn -0.6929 -0.2002 -0.6927
vn -0.5120 -0.1449 -0.8467
vn -0.2935 -0.2000 -0.9348
vn -0.1435 -0.6553 -0.7416
vn -0.1767 -0.9508 -0.2547
vn -0.5262 -0.6919 -0.4943
vn -0.0247 0.0696 -0.9973
vn -0.0157 0.2150 -0.9765
vn 0.0708 0.3310 -0.9410
vn 0.2621 0.2634 -0.9284
vn 0.3487 0.0800 -0.9338
vn 0.1864 0.0328 -0.9819
vn 0.2181 0.0750 0.9730
vn 0.4362 0.0012 0.8999
vn 0.5968 0.0937 0.7969
vn 0.4326 0.2903 0.8536
vn 0.1625 0.3880 0.9072
vn 0.1537 0.2453 0.9572
vn -0.9758 -0.1576 -0.1515
vn -0.8922 -0.4506 0.0307
vn -0.2685 -0.9579 0.1019
vn -0.9748 -0.1581 0.1571
vn -0.8508 -0.0475 0.5233
vn 0.8917 -0.3967 -0.2179
vn 0.6784 -0.1192 -0.7250
vn 0.9876 -0.1571 -0.0000
vn 0.8531 -0.1137 0.5091
vn 0.2276 -0.9690 0.0957
vn 0.9663 0.1409 -0.2153
vn 0.6655 0.1505 -0.7310
vn 0.8374 0.5004 -0.2198
vn 0.7272 0.6436 -0.2388
vn 0.2190 0.5687 -0.7928
vn 0.2165 0.6364 0.7404
vn 0.5015 0.6941 0.5165
vn 0.7188 0.6585 0.2229
vn -0.5414 0.8187 0.1915
vn -0.3692 0.7911 0.4877
vn -0.1482 0.6661 0.7310
vn -0.1491 0.6002 -0.7859
vn -0.3763 0.7591 -0.5312
vn -0.5480 0.8104 -0.2072
vn -0.7801 0.5808 0.2326
vn -0.5421 0.6470 0.5362
vn -0.2295 0.6167 0.7530
vn -0.2337 0.5457 -0.8048
vn -0.5538 0.6026 -0.5746
vn -0.7889 0.5631 -0.2460
vn -0.3990 0.1341 -0.9071
vn -0.8529 0.4446 -0.2736
vn -0.2902 -0.0344 0.9563
vn -0.5341 -0.0189 0.8452
vn -0.6819 -0.0073 0.7314
vn -0.0003 -0.9354 0.3535
vn -0.0003 -0.6833 0.7302
vn -0.0003 -0.2920 0.9564
vn 0.7335 -0.2817 0.6185
vn 0.2213 -0.9335 0.2822
vn 0.0304 -0.9237 0.3818
vn 0.0736 -0.6674 0.7410
vn 0.1018 -0.2790 0.9549
vn -0.7601 -0.2931 -0.5799
vn -0.5708 -0.7287 -0.3783
vn -0.2296 -0.9703 -0.0758
vn -0.1673 -0.2969 -0.9401
vn 0.1570 -0.9773 -0.1422
vn 0.5196 -0.2954 -0.8017
vn -0.0400 0.3631 -0.9309
vn -0.0175 0.7067 -0.7073
vn -0.0200 0.9986 -0.0484
vn -0.0168 0.7719 0.6355
vn 0.0895 0.1127 0.9896
vn 0.0619 0.2596 0.9637
vn 0.0297 0.4153 0.9092
vn 0.1980 0.4601 0.8655
vn 0.8855 -0.4645 -0.0000
vt 0.621907 0.547033
vt 0.625532 0.541751
vt 0.627736 0.545906
vt 0.619821 0.542707
vt 0.625497 0.538000
vt 0.621770 0.532521
vt 0.619770 0.537380
vt 0.627616 0.533333
vt 0.629593 0.539656
vt 0.633503 0.542931
vt 0.633434 0.535684
vt 0.637620 0.538928
vt 0.599508 0.532521
vt 0.594240 0.537934
vt 0.591742 0.533219
vt 0.599418 0.542523
vt 0.599465 0.537450
vt 0.599374 0.547033
vt 0.594192 0.541776
vt 0.591584 0.545967
vt 0.589015 0.539627
vt 0.583344 0.535549
vt 0.583237 0.542996
vt 0.576527 0.538900
vt 0.460604 0.453587
vt 0.452783 0.451813
vt 0.457384 0.457761
vt 0.457294 0.445471
vt 0.448205 0.444589
vt 0.443762 0.436201
vt 0.452822 0.436193
vt 0.448380 0.428231
vt 0.439135 0.445491
vt 0.435735 0.453622
vt 0.443569 0.451826
vt 0.439019 0.457791
vt 0.448190 0.457554
vt 0.452901 0.462306
vt 0.443623 0.462324
vt 0.448336 0.466028
vt 0.113377 0.229156
vt 0.108076 0.227235
vt 0.109144 0.232923
vt 0.110949 0.223267
vt 0.107170 0.224296
vt 0.223660 0.043792
vt 0.218565 0.041087
vt 0.216166 0.044305
vt 0.230320 0.040532
vt 0.224296 0.040842
vt 0.237480 0.040107
vt 0.232989 0.043295
vt 0.241701 0.042943
vt 0.105981 0.230320
vt 0.105610 0.237480
vt 0.227235 0.039050
vt 0.703530 0.017196
vt 0.698413 0.020471
vt 0.706512 0.020155
vt 0.116807 0.698632
vt 0.113138 0.697623
vt 0.115257 0.703530
vt 0.119364 0.692918
vt 0.113995 0.694449
vt 0.115026 0.688328
vt 0.111886 0.691189
vt 0.688430 0.020924
vt 0.683336 0.018150
vt 0.679199 0.021395
vt 0.691189 0.017857
vt 0.697623 0.017546
vt 0.694449 0.016045
vt 0.643534 0.319489
vt 0.644302 0.315341
vt 0.649047 0.317797
vt 0.635656 0.318282
vt 0.640620 0.317127
vt 0.628683 0.318959
vt 0.635859 0.321317
vt 0.627998 0.322808
vt 0.629471 0.314649
vt 0.637419 0.312870
vt 0.630156 0.311016
vt 0.636156 0.315583
vt 0.619791 0.321387
vt 0.626913 0.318959
vt 0.610977 0.319676
vt 0.620052 0.318338
vt 0.609793 0.315656
vt 0.603879 0.318126
vt 0.619271 0.315674
vt 0.614579 0.317281
vt 0.625663 0.314649
vt 0.617351 0.313059
vt 0.624578 0.311016
vt 0.196030 0.042197
vt 0.203000 0.044487
vt 0.194699 0.045364
vt 0.804874 0.199457
vt 0.809146 0.202045
vt 0.807117 0.196030
vt 0.801865 0.204177
vt 0.807732 0.204244
vt 0.806276 0.209965
vt 0.810233 0.208670
vt 0.213314 0.043723
vt 0.216805 0.040827
vt 0.222928 0.043273
vt 0.208670 0.041347
vt 0.202045 0.041782
vt 0.204244 0.040095
vt 0.783432 0.011715
vt 0.785946 0.008836
vt 0.782992 0.008713
vt 0.871137 0.011577
vt 0.864851 0.009028
vt 0.870795 0.008836
vt 0.856827 0.009304
vt 0.862261 0.011763
vt 0.853272 0.012227
vt 0.784229 0.861101
vt 0.787814 0.864851
vt 0.788801 0.856827
vt 0.779490 0.864991
vt 0.784968 0.867664
vt 0.781574 0.871034
vt 0.785946 0.870795
vt 0.867664 0.007421
vt 0.734275 0.691732
vt 0.732267 0.687834
vt 0.738422 0.688811
vt 0.726062 0.692225
vt 0.730156 0.690464
vt 0.719359 0.693346
vt 0.728010 0.694626
vt 0.721222 0.696757
vt 0.724728 0.689655
vt 0.723850 0.686596
vt 0.717211 0.689198
vt 0.715348 0.685417
vt 0.433048 0.687342
vt 0.429587 0.691172
vt 0.424814 0.688142
vt 0.441304 0.689506
vt 0.435023 0.690138
vt 0.449224 0.689198
vt 0.443175 0.686346
vt 0.452518 0.685417
vt 0.445425 0.693346
vt 0.435907 0.694317
vt 0.442132 0.696757
vt 0.438973 0.692059
vt 0.233079 0.787377
vt 0.226231 0.787156
vt 0.228828 0.784092
vt 0.238802 0.790814
vt 0.230104 0.789697
vt 0.237446 0.794126
vt 0.244506 0.793509
vt 0.817511 0.231081
vt 0.822034 0.233679
vt 0.820734 0.237446
vt 0.817605 0.790296
vt 0.817511 0.793833
vt 0.813861 0.792703
vt 0.822189 0.789697
vt 0.819973 0.791750
vt 0.233679 0.791917
vt 0.229489 0.791750
vt 0.838687 0.766951
vt 0.842822 0.767039
vt 0.841454 0.763718
vt 0.835179 0.770459
vt 0.840410 0.769531
vt 0.835956 0.774046
vt 0.831853 0.773319
vt 0.839641 0.805160
vt 0.838219 0.812424
vt 0.835956 0.810675
vt 0.805045 0.770393
vt 0.805160 0.773903
vt 0.798666 0.772924
vt 0.812490 0.769531
vt 0.809042 0.771739
vt 0.838219 0.771767
vt 0.840696 0.771739
vt 0.085249 0.692537
vt 0.091696 0.692502
vt 0.087228 0.689132
vt 0.177518 0.696082
vt 0.172998 0.695158
vt 0.174202 0.692537
vt 0.177173 0.699736
vt 0.180988 0.698848
vt 0.177173 0.090955
vt 0.172917 0.092976
vt 0.175000 0.089057
vt 0.097660 0.696112
vt 0.096873 0.699796
vt 0.103559 0.699017
vt 0.089266 0.695158
vt 0.092976 0.697472
vt 0.089057 0.697461
vt 0.206084 0.733582
vt 0.203747 0.736416
vt 0.208553 0.736840
vt 0.203309 0.729676
vt 0.201959 0.733798
vt 0.198305 0.728798
vt 0.200965 0.726162
vt 0.196724 0.731290
vt 0.200219 0.731363
vt 0.851481 0.735031
vt 0.853409 0.731290
vt 0.846291 0.733030
vt 0.199404 0.851481
vt 0.201959 0.858033
vt 0.199002 0.855925
vt 0.199002 0.733053
vt 0.192799 0.714868
vt 0.186523 0.713165
vt 0.189333 0.716394
vt 0.188071 0.710090
vt 0.183684 0.709786
vt 0.845714 0.705876
vt 0.851782 0.704578
vt 0.845951 0.699799
vt 0.844666 0.712622
vt 0.851284 0.709786
vt 0.843084 0.718246
vt 0.850854 0.713964
vt 0.850448 0.717617
vt 0.854685 0.713165
vt 0.179440 0.048155
vt 0.180966 0.051407
vt 0.177607 0.051231
vt 0.182654 0.076510
vt 0.181992 0.070521
vt 0.179440 0.075070
vt 0.186871 0.072405
vt 0.186486 0.079525
vt 0.186871 0.045990
vt 0.184494 0.048555
vt 0.183861 0.046743
vt 0.184655 0.051590
vt 0.187308 0.048533
vt 0.187694 0.051730
vt 0.181992 0.048441
vt 0.209421 0.637550
vt 0.214221 0.638612
vt 0.212087 0.640457
vt 0.212646 0.635629
vt 0.216534 0.637560
vt 0.219318 0.637132
vt 0.216175 0.633797
vt 0.219066 0.632536
vt 0.216413 0.640632
vt 0.215818 0.643429
vt 0.219532 0.641943
vt 0.219652 0.645698
vt 0.665438 0.005765
vt 0.662227 0.002667
vt 0.660439 0.005681
vt 0.669914 0.002842
vt 0.666290 0.002778
vt 0.673624 0.002867
vt 0.670972 0.005862
vt 0.675587 0.005946
vt 0.670477 0.991694
vt 0.669914 0.997421
vt 0.673624 0.994377
vt 0.666871 0.987318
vt 0.667880 0.996035
vt 0.664548 0.000618
vt 0.667880 0.001213
vt 0.768308 0.049424
vt 0.770033 0.046184
vt 0.772029 0.049237
vt 0.763980 0.046621
vt 0.767160 0.046478
vt 0.760037 0.046631
vt 0.763427 0.049638
vt 0.758664 0.049824
vt 0.761445 0.044083
vt 0.762548 0.118383
vt 0.764985 0.110577
vt 0.761445 0.111114
vt 0.766601 0.115947
vt 0.767160 0.110317
vt 0.764985 0.044807
vt 0.183201 0.013067
vt 0.181387 0.010149
vt 0.179479 0.013287
vt 0.188068 0.012812
vt 0.184323 0.010019
vt 0.191365 0.009625
vt 0.192799 0.012592
vt 0.190049 0.851388
vt 0.187497 0.855015
vt 0.191365 0.857025
vt 0.189150 0.843982
vt 0.186496 0.851597
vt 0.184881 0.845976
vt 0.184323 0.851730
vt 0.187497 0.009851
vt 0.186496 0.008328
vt 0.662027 0.613979
vt 0.665438 0.610906
vt 0.660439 0.610273
vt 0.667251 0.616346
vt 0.666086 0.613819
vt 0.669076 0.618793
vt 0.663930 0.618104
vt 0.665641 0.621553
vt 0.672710 0.615399
vt 0.670973 0.611634
vt 0.675587 0.612267
vt 0.669502 0.614274
vt 0.763425 0.703961
vt 0.759510 0.706570
vt 0.758664 0.701924
vt 0.768309 0.706308
vt 0.763643 0.707687
vt 0.769149 0.710872
vt 0.772029 0.708346
vt 0.764195 0.710704
vt 0.766720 0.709065
vt 0.760373 0.711447
vt 0.765137 0.713393
vt 0.761025 0.715263
vt 0.111364 0.683336
vt 0.787362 0.011577
vt 0.993852 0.317797
vt 0.996191 0.315341
vt 0.810472 0.216805
vt 0.915279 0.687834
vt 0.996969 0.319489
vt 0.913315 0.691732
vt 0.911571 0.688811
vt 0.810845 0.767039
vt 0.538928 0.991264
vt 0.542931 0.994237
vt 0.627736 0.996565
vt 0.621907 0.997607
vt 0.627616 0.996833
vt 0.621770 0.997916
vt 0.535684 0.994391
vt 0.238503 0.229929
vt 0.240997 0.222343
vt 0.591742 0.996812
vt 0.244403 0.786557
vt 0.599508 0.997916
vt 0.244281 0.786255
vt 0.591584 0.996601
vt 0.599374 0.997607
vt 0.240935 0.794328
vt 0.238487 0.787159
vt 0.229929 0.789292
vt 0.238570 0.789715
vt 0.173915 0.096873
vt 0.240997 0.788136
vt 0.240935 0.787985
vt 0.203747 0.855464
vt 0.778873 0.789715
vt 0.787159 0.789252
vt 0.859130 0.728798
vt 0.559431 0.079525
vt 0.557991 0.048480
vt 0.556219 0.051731
vt 0.116056 0.049237
vt 0.770033 0.115104
vt 0.559166 0.072269
vt 0.559166 0.045910
vt 0.109329 0.218565
vt 0.075070 0.048155
vt 0.845952 0.013287
vt 0.181387 0.846688
vt 0.664548 0.993757
vt 0.662227 0.998304
vt 0.782992 0.875571
vt 0.619821 0.999887
vt 0.171899 0.689132
vt 0.821197 0.787156
vt 0.823709 0.784092
vt 0.183199 0.704578
vt 0.179479 0.699799
vt 0.237590 0.778873
vt 0.237590 0.238570
vt 0.010432 0.637550
vt 0.075545 0.051231
vt 0.116056 0.708346
vt 0.819973 0.229489
vt 0.840696 0.809042
vt 0.175000 0.697461
vt 0.855925 0.733053
vt 0.199404 0.735031
vt 0.856435 0.716394
vt 0.076510 0.045795
vt 0.071277 0.046743
vt 0.070521 0.048441
vt 0.183861 0.071277
vt 0.851786 0.013067
vt 0.851730 0.010019
vt 0.846688 0.010149
vt 0.190049 0.007631
vt 0.115104 0.046184
vt 0.599418 0.999580
s 0
g A_ShadowHull.001_cinder_ruby_ruby
usemtl cinder_ruby_ruby
f 1/1/1 6/2/1 5/3/1
f 4/4/2 9/5/2 6/2/2
f 2/6/3 9/5/3 8/7/3
f 7/8/4 12/9/4 9/5/4
f 10/10/5 11/11/5 3/12/5
f 5/3/6 12/9/6 10/10/6
f 6/2/7 9/5/7 12/9/7
f 13/13/8 18/14/8 17/15/8
f 20/16/9 18/14/9 16/17/9
f 14/18/10 21/19/10 20/16/10
f 19/20/11 24/21/11 21/19/11
f 22/22/12 23/23/12 15/24/12
f 17/15/13 24/21/13 22/22/13
f 18/14/14 21/19/14 24/21/14
f 33/25/15 39/26/15 38/27/15
f 37/28/16 42/29/16 39/26/16
f 40/30/17 41/31/17 34/32/17
f 44/33/18 42/29/18 40/30/18
f 35/34/19 45/35/19 44/33/19
f 43/36/20 48/37/20 45/35/20
f 46/38/21 47/39/21 36/40/21
f 38/27/22 48/37/22 46/38/22
f 39/26/23 45/35/23 48/37/23
f 49/41/24 54/42/24 53/43/24
f 52/44/25 57/45/25 54/42/25
f 55/46/26 56/47/26 50/48/26
f 55/46/27 60/49/27 57/50/27
f 58/51/28 59/52/28 51/53/28
f 53/43/29 60/54/29 58/55/29
f 54/56/30 57/50/30 60/49/30
f 64/57/31 65/58/31 61/59/31
f 68/60/32 66/61/32 64/62/32
f 62/63/33 69/64/33 68/60/33
f 67/65/34 72/66/34 69/64/34
f 70/67/35 71/68/35 63/69/35
f 65/58/36 72/70/36 70/67/36
f 66/71/37 69/72/37 72/70/37
f 76/73/38 77/74/38 73/75/38
f 76/73/39 81/76/39 78/77/39
f 79/78/40 80/79/40 74/80/40
f 83/81/41 81/76/41 79/78/41
f 82/82/42 83/81/42 75/83/42
f 77/74/43 84/84/43 82/82/43
f 78/77/44 81/76/44 84/84/44
f 87/85/45 88/86/45 74/80/45
f 91/87/46 89/88/46 87/85/46
f 90/89/47 91/87/47 85/90/47
f 90/89/48 95/91/48 92/92/48
f 93/93/49 94/94/49 86/95/49
f 93/93/50 89/88/50 95/91/50
f 89/88/51 92/92/51 95/91/51
f 99/96/52 100/97/52 96/98/52
f 103/99/53 101/100/53 99/101/53
f 97/102/54 104/103/54 103/99/54
f 102/104/55 107/105/55 104/103/55
f 105/106/56 106/107/56 98/108/56
f 100/97/57 107/109/57 105/106/57
f 101/110/58 104/111/58 107/109/58
f 108/112/59 113/113/59 112/114/59
f 111/115/60 116/116/60 113/117/60
f 114/118/61 115/119/61 109/120/61
f 118/121/62 116/122/62 114/123/62
f 110/124/63 119/125/63 118/121/63
f 117/126/64 113/127/64 119/125/64
f 113/117/65 116/116/65 119/128/65
f 123/129/66 124/130/66 120/131/66
f 123/129/67 128/132/67 125/133/67
f 126/134/68 127/135/68 121/136/68
f 126/134/69 131/137/69 128/132/69
f 129/138/70 130/139/70 122/140/70
f 124/130/71 131/137/71 129/138/71
f 125/133/72 128/132/72 131/137/72
f 135/141/73 136/142/73 132/143/73
f 135/141/74 140/144/74 137/145/74
f 138/146/75 139/147/75 133/148/75
f 142/149/76 140/144/76 138/146/76
f 141/150/77 142/149/77 134/151/77
f 136/142/78 143/152/78 141/150/78
f 137/145/79 140/144/79 143/152/79
f 147/153/80 148/154/80 144/155/80
f 151/156/81 149/157/81 147/153/81
f 150/158/82 151/156/82 145/159/82
f 154/160/83 152/161/83 150/162/83
f 153/163/84 154/164/84 146/165/84
f 153/163/85 149/166/85 155/167/85
f 149/157/86 152/168/86 155/169/86
f 159/170/87 160/171/87 156/172/87
f 163/173/88 161/174/88 159/170/88
f 162/175/89 163/173/89 157/176/89
f 166/177/90 164/178/90 162/179/90
f 165/180/91 166/181/91 158/182/91
f 165/180/92 161/183/92 167/184/92
f 161/174/93 164/185/93 167/186/93
f 171/187/94 172/188/94 168/189/94
f 175/190/95 173/191/95 171/192/95
f 174/193/96 175/190/96 169/194/96
f 174/195/97 179/196/97 176/197/97
f 177/198/98 178/199/98 170/200/98
f 177/198/99 173/201/99 179/202/99
f 173/201/100 176/203/100 179/202/100
f 183/204/101 184/205/101 180/206/101
f 187/207/102 185/208/102 183/204/102
f 186/209/103 187/207/103 181/210/103
f 190/211/104 188/212/104 186/209/104
f 189/213/105 190/214/105 182/215/105
f 189/216/106 185/217/106 191/218/106
f 185/208/107 188/212/107 191/219/107
f 192/220/108 197/221/108 196/222/108
f 195/223/109 200/224/109 197/221/109
f 198/225/110 199/226/110 193/227/110
f 202/228/111 200/229/111 198/225/111
f 194/230/112 203/231/112 202/228/112
f 201/232/113 197/233/113 203/231/113
f 197/233/114 200/229/114 203/231/114
f 207/234/115 208/235/115 204/236/115
f 211/237/116 209/238/116 207/239/116
f 210/240/117 211/237/117 205/241/117
f 210/242/118 215/243/118 212/244/118
f 213/245/119 214/246/119 206/247/119
f 208/235/120 215/243/120 213/245/120
f 209/248/121 212/244/121 215/243/121
f 220/249/122 225/250/122 224/251/122
f 223/252/123 228/253/123 225/250/123
f 226/254/124 227/255/124 221/256/124
f 226/254/125 231/257/125 228/253/125
f 229/258/126 230/259/126 222/260/126
f 224/251/127 231/257/127 229/258/127
f 225/250/128 228/253/128 231/257/128
f 235/261/129 236/262/129 232/263/129
f 235/261/130 240/264/130 237/265/130
f 238/266/131 239/267/131 233/268/131
f 242/269/132 240/270/132 238/271/132
f 234/272/133 243/273/133 242/269/133
f 241/274/134 237/265/134 243/275/134
f 237/265/135 240/264/135 243/275/135
f 247/276/136 248/277/136 244/278/136
f 247/276/137 252/279/137 249/280/137
f 250/281/138 251/282/138 245/283/138
f 254/284/139 252/279/139 250/281/139
f 246/285/140 255/286/140 254/287/140
f 253/288/141 249/289/141 255/286/141
f 249/280/142 252/279/142 255/290/142
f 259/291/143 260/292/143 256/293/143
f 263/294/144 261/295/144 259/291/144
f 262/296/145 263/294/145 257/297/145
f 266/298/146 264/299/146 262/300/146
f 258/301/147 267/302/147 266/298/147
f 265/303/148 261/304/148 267/302/148
f 261/295/149 264/305/149 267/306/149
f 271/307/150 272/308/150 268/309/150
f 271/307/151 276/310/151 273/311/151
f 274/312/152 275/313/152 269/314/152
f 278/315/153 276/310/153 274/312/153
f 277/316/154 278/315/154 270/317/154
f 277/316/155 273/311/155 279/318/155
f 273/311/156 276/310/156 279/318/156
f 283/319/157 284/320/157 280/321/157
f 287/322/158 285/323/158 283/319/158
f 286/324/159 287/322/159 281/325/159
f 286/324/160 291/326/160 288/327/160
f 289/328/161 290/329/161 282/330/161
f 289/328/162 285/323/162 291/326/162
f 285/323/163 288/327/163 291/326/163
f 61/59/164 37/28/164 33/25/164
f 65/58/165 41/31/165 37/28/165
f 70/67/166 34/32/166 41/31/166
f 63/69/167 58/51/167 51/53/167
f 71/331/168 53/43/168 58/55/168
f 67/65/169 49/41/169 53/43/169
f 34/32/170 59/52/170 40/30/170
f 40/30/171 55/46/171 44/33/171
f 44/33/172 50/48/172 35/34/172
f 109/120/173 82/82/173 75/83/173
f 115/119/174 77/74/174 82/82/174
f 111/332/175 73/333/175 77/334/175
f 74/80/176 88/86/176 79/78/176
f 88/86/177 83/81/177 79/78/177
f 93/93/178 75/83/178 83/81/178
f 85/90/179 100/97/179 90/89/179
f 90/89/180 105/106/180 94/94/180
f 94/94/181 98/108/181 86/95/181
f 110/124/182 102/104/182 97/102/182
f 118/121/183 106/335/183 102/104/183
f 114/118/184 98/108/184 106/107/184
f 133/148/185 87/85/185 74/80/185
f 139/147/186 91/87/186 87/85/186
f 135/141/187 85/90/187 91/87/187
f 73/333/188 124/336/188 76/337/188
f 76/73/189 129/138/189 80/79/189
f 80/79/190 122/140/190 74/80/190
f 121/136/191 142/149/191 126/134/191
f 126/134/192 138/146/192 130/139/192
f 130/139/193 133/148/193 122/140/193
f 134/151/194 151/156/194 141/150/194
f 141/150/195 147/153/195 136/142/195
f 136/142/196 144/155/196 132/143/196
f 156/172/197 123/338/197 120/339/197
f 160/340/198 127/135/198 123/129/198
f 165/180/199 121/136/199 127/135/199
f 3/341/200 166/181/200 10/342/200
f 10/10/201 162/179/201 5/3/201
f 5/343/202 157/176/202 1/344/202
f 146/165/203 7/345/203 2/346/203
f 154/160/204 11/11/204 7/8/204
f 150/158/205 3/341/205 11/347/205
f 15/24/206 28/348/206 22/22/206
f 22/22/207 27/349/207 17/15/207
f 17/350/208 25/351/208 13/352/208
f 29/353/209 19/354/209 14/355/209
f 31/356/210 23/23/210 19/20/210
f 32/357/211 15/24/211 23/23/211
f 168/189/212 43/36/212 35/34/212
f 172/188/213 47/39/213 43/36/213
f 177/198/214 36/40/214 47/39/214
f 170/200/215 28/358/215 26/359/215
f 178/360/216 27/349/216 28/348/216
f 174/193/217 25/351/217 27/361/217
f 180/206/218 31/362/218 29/353/218
f 184/363/219 32/357/219 31/356/219
f 189/213/220 30/364/220 32/365/220
f 181/210/221 196/222/221 186/209/221
f 186/366/222 201/232/222 190/214/222
f 190/214/223 194/230/223 182/215/223
f 36/40/224 202/228/224 46/38/224
f 46/38/225 198/225/225 38/27/225
f 38/27/226 193/227/226 33/25/226
f 221/256/227 213/245/227 206/247/227
f 227/255/228 208/235/228 213/245/228
f 223/252/229 204/236/229 208/235/229
f 216/367/230 210/240/230 205/241/230
f 210/242/231 219/368/231 214/246/231
f 214/246/232 217/369/232 206/247/232
f 244/370/233 99/96/233 96/98/233
f 248/371/234 103/99/234 99/101/234
f 253/288/235 97/102/235 103/99/235
f 216/367/236 254/287/236 218/372/236
f 218/373/237 250/281/237 219/368/237
f 219/368/238 245/283/238 217/369/238
f 205/241/239 52/44/239 49/41/239
f 211/237/240 56/374/240 52/44/240
f 207/375/241 50/48/241 56/47/241
f 256/376/242 64/57/242 61/59/242
f 260/377/243 68/60/243 64/62/243
f 265/303/244 62/63/244 68/60/244
f 258/301/245 241/378/245 234/272/245
f 266/298/246 236/379/246 241/378/246
f 262/296/247 232/263/247 236/262/247
f 110/124/248 242/269/248 117/126/248
f 117/126/249 238/271/249 112/380/249
f 112/114/250 233/268/250 108/112/250
f 180/206/251 275/313/251 183/204/251
f 183/204/252 271/307/252 187/207/252
f 187/207/253 268/309/253 181/210/253
f 14/355/254 4/381/254 1/344/254
f 20/16/255 8/7/255 4/4/255
f 8/7/256 13/13/256 2/6/256
f 156/172/257 278/315/257 159/170/257
f 159/170/258 274/312/258 163/173/258
f 163/173/259 269/314/259 157/176/259
f 168/382/260 224/251/260 171/192/260
f 171/192/261 229/258/261 175/190/261
f 175/190/262 222/260/262 169/194/262
f 280/321/263 226/254/263 221/256/263
f 284/320/264 230/259/264 226/254/264
f 289/328/265 222/260/265 230/259/265
f 282/330/266 153/163/266 146/165/266
f 290/329/267 148/383/267 153/163/267
f 286/324/268 144/384/268 148/383/268
f 257/297/269 195/223/269 192/220/269
f 263/294/270 199/385/270 195/223/270
f 259/291/271 193/386/271 199/385/271
f 244/278/272 287/322/272 247/276/272
f 247/276/273 283/319/273 251/282/273
f 251/282/274 280/321/274 245/283/274
f 268/309/275 235/261/275 232/263/275
f 272/308/276 239/267/276 235/261/276
f 277/316/277 233/268/277 239/267/277
f 269/314/278 14/355/278 157/176/278
f 158/182/279 3/341/279 145/159/279
f 13/352/280 25/351/280 282/330/280
f 15/24/281 30/387/281 26/388/281
f 30/364/282 182/215/282 194/230/282
f 33/25/283 256/376/283 61/59/283
f 63/69/284 51/53/284 34/32/284
f 220/389/285 35/34/285 204/390/285
f 110/124/286 97/102/286 216/367/286
f 270/317/287 73/333/287 233/268/287
f 86/95/288 109/120/288 75/83/288
f 74/80/289 122/140/289 133/148/289
f 281/391/290 244/370/290 85/90/290
f 192/220/291 181/210/291 268/309/291
f 221/256/292 206/247/292 217/369/292
f 217/369/293 280/321/293 221/256/293
f 1/1/294 4/4/294 6/2/294
f 4/4/2 8/7/2 9/5/2
f 2/6/295 7/8/295 9/5/295
f 7/8/296 11/11/296 12/9/296
f 10/10/297 12/9/297 11/11/297
f 5/3/298 6/2/298 12/9/298
f 13/13/299 16/17/299 18/14/299
f 20/16/300 21/19/300 18/14/300
f 14/18/301 19/20/301 21/19/301
f 19/20/302 23/23/302 24/21/302
f 22/22/303 24/21/303 23/23/303
f 17/15/304 18/14/304 24/21/304
f 33/25/305 37/28/305 39/26/305
f 37/28/306 41/31/306 42/29/306
f 40/30/307 42/29/307 41/31/307
f 44/33/308 45/35/308 42/29/308
f 35/34/309 43/36/309 45/35/309
f 43/36/310 47/39/310 48/37/310
f 46/38/311 48/37/311 47/39/311
f 38/27/312 39/26/312 48/37/312
f 39/26/313 42/29/313 45/35/313
f 49/41/314 52/44/314 54/42/314
f 52/44/315 56/374/315 57/45/315
f 55/46/316 57/50/316 56/47/316
f 55/46/317 59/52/317 60/49/317
f 58/51/318 60/49/318 59/52/318
f 53/43/319 54/42/319 60/54/319
f 64/57/320 66/71/320 65/58/320
f 68/60/321 69/64/321 66/61/321
f 62/63/322 67/65/322 69/64/322
f 67/65/323 71/331/323 72/66/323
f 70/67/324 72/70/324 71/68/324
f 65/58/325 66/71/325 72/70/325
f 76/73/326 78/77/326 77/74/326
f 76/73/327 80/79/327 81/76/327
f 79/78/328 81/76/328 80/79/328
f 83/81/329 84/84/329 81/76/329
f 82/82/330 84/84/330 83/81/330
f 77/74/331 78/77/331 84/84/331
f 87/85/332 89/88/332 88/86/332
f 91/87/333 92/92/333 89/88/333
f 90/89/334 92/92/334 91/87/334
f 90/89/335 94/94/335 95/91/335
f 93/93/336 95/91/336 94/94/336
f 93/93/337 88/86/337 89/88/337
f 99/96/338 101/110/338 100/97/338
f 103/99/339 104/103/339 101/100/339
f 97/102/340 102/104/340 104/103/340
f 102/104/341 106/335/341 107/105/341
f 105/106/342 107/109/342 106/107/342
f 100/97/343 101/110/343 107/109/343
f 108/112/344 111/332/344 113/113/344
f 111/115/345 115/119/345 116/116/345
f 114/118/346 116/116/346 115/119/346
f 118/121/347 119/125/347 116/122/347
f 110/124/348 117/126/348 119/125/348
f 117/126/349 112/380/349 113/127/349
f 123/129/350 125/133/350 124/130/350
f 123/129/351 127/135/351 128/132/351
f 126/134/352 128/132/352 127/135/352
f 126/134/353 130/139/353 131/137/353
f 129/138/354 131/137/354 130/139/354
f 124/130/355 125/133/355 131/137/355
f 135/141/356 137/145/356 136/142/356
f 135/141/357 139/147/357 140/144/357
f 138/146/358 140/144/358 139/147/358
f 142/149/359 143/152/359 140/144/359
f 141/150/360 143/152/360 142/149/360
f 136/142/361 137/145/361 143/152/361
f 147/153/362 149/157/362 148/154/362
f 151/156/363 152/168/363 149/157/363
f 150/158/364 152/168/364 151/156/364
f 154/160/365 155/392/365 152/161/365
f 153/163/366 155/167/366 154/164/366
f 153/163/367 148/383/367 149/166/367
f 159/170/368 161/174/368 160/171/368
f 163/173/369 164/185/369 161/174/369
f 162/175/370 164/185/370 163/173/370
f 166/177/371 167/393/371 164/178/371
f 165/180/372 167/184/372 166/181/372
f 165/180/373 160/340/373 161/183/373
f 171/187/374 173/201/374 172/188/374
f 175/190/375 176/394/375 173/191/375
f 174/193/376 176/394/376 175/190/376
f 174/195/377 178/360/377 179/196/377
f 177/198/378 179/202/378 178/199/378
f 177/198/379 172/188/379 173/201/379
f 183/204/380 185/208/380 184/205/380
f 187/207/381 188/212/381 185/208/381
f 186/209/382 188/212/382 187/207/382
f 190/211/383 191/219/383 188/212/383
f 189/213/384 191/395/384 190/214/384
f 189/396/385 184/205/385 185/208/385
f 192/220/386 195/223/386 197/221/386
f 195/223/387 199/385/387 200/224/387
f 198/225/388 200/229/388 199/226/388
f 202/228/389 203/231/389 200/229/389
f 194/230/390 201/232/390 203/231/390
f 201/232/391 196/397/391 197/233/391
f 207/234/392 209/248/392 208/235/392
f 211/398/393 212/399/393 209/400/393
f 210/240/394 212/401/394 211/237/394
f 210/242/395 214/246/395 215/243/395
f 213/245/396 215/243/396 214/246/396
f 208/235/397 209/248/397 215/243/397
f 220/249/398 223/252/398 225/250/398
f 223/252/399 227/255/399 228/253/399
f 226/254/400 228/253/400 227/255/400
f 226/254/401 230/259/401 231/257/401
f 229/258/402 231/257/402 230/259/402
f 224/251/403 225/250/403 231/257/403
f 235/261/404 237/265/404 236/262/404
f 235/261/405 239/267/405 240/264/405
f 238/266/406 240/264/406 239/267/406
f 242/269/407 243/273/407 240/270/407
f 234/272/408 241/378/408 243/273/408
f 241/274/409 236/262/409 237/265/409
f 247/276/410 249/280/410 248/277/410
f 247/276/411 251/282/411 252/279/411
f 250/281/412 252/279/412 251/282/412
f 254/284/413 255/290/413 252/279/413
f 246/285/414 253/288/414 255/286/414
f 253/288/415 248/371/415 249/289/415
f 259/402/416 261/403/416 260/404/416
f 263/294/417 264/305/417 261/295/417
f 262/296/418 264/305/418 263/294/418
f 266/405/419 267/306/419 264/305/419
f 258/301/420 265/303/420 267/302/420
f 265/303/421 260/377/421 261/304/421
f 271/307/422 273/311/422 272/308/422
f 271/307/423 275/313/423 276/310/423
f 274/312/424 276/310/424 275/313/424
f 278/315/425 279/318/425 276/310/425
f 277/316/426 279/318/426 278/315/426
f 277/316/427 272/308/427 273/311/427
f 283/319/428 285/323/428 284/320/428
f 287/322/429 288/327/429 285/323/429
f 286/324/430 288/327/430 287/322/430
f 286/324/431 290/329/431 291/326/431
f 289/328/432 291/326/432 290/329/432
f 289/328/433 284/320/433 285/323/433
f 61/59/164 65/58/164 37/28/164
f 65/58/165 70/67/165 41/31/165
f 70/67/434 63/69/434 34/32/434
f 63/69/435 71/68/435 58/51/435
f 71/331/168 67/65/168 53/43/168
f 67/65/436 62/63/436 49/41/436
f 34/32/437 51/53/437 59/52/437
f 40/30/171 59/52/171 55/46/171
f 44/33/438 55/46/438 50/48/438
f 109/120/439 115/119/439 82/82/439
f 115/119/174 111/115/174 77/74/174
f 111/332/440 108/112/440 73/333/440
f 88/86/441 93/93/441 83/81/441
f 93/93/178 86/95/178 75/83/178
f 85/90/442 96/98/442 100/97/442
f 90/89/180 100/97/180 105/106/180
f 94/94/181 105/106/181 98/108/181
f 110/124/443 118/121/443 102/104/443
f 118/121/183 114/123/183 106/335/183
f 114/118/184 109/120/184 98/108/184
f 133/148/185 139/147/185 87/85/185
f 139/147/186 135/141/186 91/87/186
f 135/141/187 132/143/187 85/90/187
f 73/333/188 120/339/188 124/336/188
f 76/73/189 124/130/189 129/138/189
f 80/79/444 129/138/444 122/140/444
f 121/136/191 134/151/191 142/149/191
f 126/134/192 142/149/192 138/146/192
f 130/139/193 138/146/193 133/148/193
f 134/151/194 145/159/194 151/156/194
f 141/150/195 151/156/195 147/153/195
f 136/142/196 147/153/196 144/155/196
f 156/172/445 160/171/445 123/338/445
f 160/340/198 165/180/198 127/135/198
f 165/180/446 158/182/446 121/136/446
f 3/341/447 158/182/447 166/181/447
f 10/10/201 166/177/201 162/179/201
f 5/343/448 162/175/448 157/176/448
f 146/165/449 154/164/449 7/345/449
f 154/160/450 150/162/450 11/11/450
f 150/158/451 145/159/451 3/341/451
f 15/24/452 26/388/452 28/348/452
f 22/22/453 28/348/453 27/349/453
f 17/350/454 27/361/454 25/351/454
f 29/353/455 31/362/455 19/354/455
f 31/356/456 32/357/456 23/23/456
f 32/357/457 30/387/457 15/24/457
f 168/189/212 172/188/212 43/36/212
f 172/188/213 177/198/213 47/39/213
f 177/198/214 170/200/214 36/40/214
f 170/200/458 178/199/458 28/358/458
f 178/360/459 174/195/459 27/349/459
f 174/193/460 169/194/460 25/351/460
f 180/206/461 184/205/461 31/362/461
f 184/363/462 189/216/462 32/357/462
f 189/213/463 182/215/463 30/364/463
f 181/210/464 192/220/464 196/222/464
f 186/366/222 196/397/222 201/232/222
f 190/214/465 201/232/465 194/230/465
f 36/40/224 194/230/224 202/228/224
f 46/38/225 202/228/225 198/225/225
f 38/27/226 198/225/226 193/227/226
f 221/256/466 227/255/466 213/245/466
f 227/255/467 223/252/467 208/235/467
f 223/252/468 220/249/468 204/236/468
f 216/367/469 218/372/469 210/240/469
f 210/242/470 218/373/470 219/368/470
f 214/246/471 219/368/471 217/369/471
f 244/370/472 248/406/472 99/96/472
f 248/371/234 253/288/234 103/99/234
f 253/288/473 246/285/473 97/102/473
f 216/367/474 246/285/474 254/287/474
f 218/373/475 254/284/475 250/281/475
f 219/368/476 250/281/476 245/283/476
f 205/241/239 211/237/239 52/44/239
f 211/237/240 207/239/240 56/374/240
f 207/375/241 204/390/241 50/48/241
f 256/376/477 260/404/477 64/57/477
f 260/377/478 265/303/478 68/60/478
f 265/303/479 258/301/479 62/63/479
f 258/301/245 266/298/245 241/378/245
f 266/298/246 262/300/246 236/379/246
f 262/296/480 257/297/480 232/263/480
f 110/124/481 234/272/481 242/269/481
f 117/126/249 242/269/249 238/271/249
f 112/114/482 238/266/482 233/268/482
f 180/206/483 269/314/483 275/313/483
f 183/204/252 275/313/252 271/307/252
f 187/207/253 271/307/253 268/309/253
f 14/355/484 20/407/484 4/381/484
f 20/16/485 16/17/485 8/7/485
f 8/7/486 16/17/486 13/13/486
f 156/172/257 270/317/257 278/315/257
f 159/170/258 278/315/258 274/312/258
f 163/173/259 274/312/259 269/314/259
f 168/382/260 220/249/260 224/251/260
f 171/192/261 224/251/261 229/258/261
f 175/190/262 229/258/262 222/260/262
f 280/321/487 284/320/487 226/254/487
f 284/320/488 289/328/488 230/259/488
f 289/328/489 282/330/489 222/260/489
f 282/330/490 290/329/490 153/163/490
f 290/329/267 286/324/267 148/383/267
f 286/324/268 281/325/268 144/384/268
f 257/297/269 263/294/269 195/223/269
f 263/294/270 259/291/270 199/385/270
f 259/291/271 256/293/271 193/386/271
f 244/278/272 281/325/272 287/322/272
f 247/276/273 287/322/273 283/319/273
f 251/282/274 283/319/274 280/321/274
f 268/309/275 272/308/275 235/261/275
f 272/308/276 277/316/276 239/267/276
f 277/316/277 270/317/277 233/268/277
f 269/314/278 180/206/278 29/353/278
f 29/353/278 14/355/278 269/314/278
f 14/355/278 1/344/278 157/176/278
f 145/159/279 134/151/279 158/182/279
f 134/151/279 121/136/279 158/182/279
f 169/194/280 222/260/280 25/351/280
f 222/260/280 282/330/280 25/351/280
f 282/330/280 146/165/280 13/352/280
f 146/165/280 2/346/280 13/352/280
f 36/40/282 170/200/282 194/230/282
f 170/200/282 26/359/282 194/230/282
f 194/230/282 26/359/282 30/364/282
f 33/25/283 193/227/283 256/376/283
f 168/189/285 35/34/285 220/389/285
f 35/34/285 50/48/285 204/390/285
f 97/102/286 246/285/286 216/367/286
f 216/367/286 205/241/286 62/63/286
f 205/241/286 49/41/286 62/63/286
f 216/367/286 62/63/286 258/301/286
f 258/301/286 234/272/286 216/367/286
f 234/272/286 110/124/286 216/367/286
f 270/317/287 156/172/287 120/339/287
f 120/339/287 73/333/287 270/317/287
f 73/333/287 108/112/287 233/268/287
f 86/95/491 98/108/491 109/120/491
f 244/370/290 96/98/290 85/90/290
f 85/90/290 132/143/290 281/391/290
f 132/143/290 144/155/290 281/391/290
f 268/309/291 232/263/291 257/297/291
f 257/297/291 192/220/291 268/309/291
f 217/369/293 245/283/293 280/321/293
