# Blender 5.2.2 LTS
# www.blender.org
mtllib compass.mtl
g A_Bow.001_A_Bow.001
v 0.000000 1.440000 -0.355000
v 0.047631 1.440000 -0.327500
v 0.047631 1.440000 -0.272500
v 0.000000 1.440000 -0.245000
v -0.047631 1.440000 -0.272500
v -0.047631 1.440000 -0.327500
v 0.000000 1.575853 -0.327977
v 0.047631 1.565329 -0.302571
v 0.047631 1.544281 -0.251757
v 0.000000 1.533757 -0.226350
v -0.047631 1.544281 -0.251757
v -0.047631 1.565329 -0.302571
v 0.000000 1.691023 -0.251023
v 0.047631 1.671578 -0.231577
v 0.047631 1.632687 -0.192687
v 0.000000 1.613241 -0.173241
v -0.047631 1.632687 -0.192687
v -0.047631 1.671578 -0.231577
v 0.000000 1.767977 -0.135853
v 0.047631 1.742571 -0.125329
v 0.047631 1.691757 -0.104281
v 0.000000 1.666351 -0.093757
v -0.047631 1.691757 -0.104281
v -0.047631 1.742571 -0.125329
v 0.000000 1.795000 -0.000000
v 0.047631 1.767500 -0.000000
v 0.047631 1.712500 -0.000000
v 0.000000 1.685000 -0.000000
v -0.047631 1.712500 -0.000000
v -0.047631 1.767500 -0.000000
v 0.000000 1.767977 0.135853
v 0.047631 1.742571 0.125329
v 0.047631 1.691757 0.104281
v 0.000000 1.666351 0.093757
v -0.047631 1.691757 0.104281
v -0.047631 1.742571 0.125329
v 0.000000 1.691023 0.251023
v 0.047631 1.671578 0.231577
v 0.047631 1.632687 0.192687
v 0.000000 1.613241 0.173241
v -0.047631 1.632687 0.192687
v -0.047631 1.671578 0.231577
v 0.000000 1.575853 0.327977
v 0.047631 1.565329 0.302571
v 0.047631 1.544281 0.251757
v 0.000000 1.533757 0.226350
v -0.047631 1.544281 0.251757
v -0.047631 1.565329 0.302571
v 0.000000 1.440000 0.355000
v 0.047631 1.440000 0.327500
v 0.047631 1.440000 0.272500
v 0.000000 1.440000 0.245000
v -0.047631 1.440000 0.272500
v -0.047631 1.440000 0.327500
v 0.000000 1.304147 0.327977
v 0.047631 1.314671 0.302571
v 0.047631 1.335719 0.251757
v 0.000000 1.346243 0.226350
v -0.047631 1.335719 0.251757
v -0.047631 1.314671 0.302571
v 0.000000 1.188977 0.251023
v 0.047631 1.208423 0.231577
v 0.047631 1.247313 0.192687
v 0.000000 1.266759 0.173241
v -0.047631 1.247313 0.192687
v -0.047631 1.208423 0.231577
v 0.000000 1.112023 0.135853
v 0.047631 1.137429 0.125329
v 0.047631 1.188243 0.104281
v 0.000000 1.213650 0.093757
v -0.047631 1.188243 0.104281
v -0.047631 1.137429 0.125329
v 0.000000 1.085000 0.000000
v 0.047631 1.112500 0.000000
v 0.047631 1.167500 0.000000
v 0.000000 1.195000 0.000000
v -0.047631 1.167500 0.000000
v -0.047631 1.112500 0.000000
v 0.000000 1.112023 -0.135853
v 0.047631 1.137429 -0.125329
v 0.047631 1.188243 -0.104281
v 0.000000 1.213650 -0.093757
v -0.047631 1.188243 -0.104281
v -0.047631 1.137429 -0.125329
v 0.000000 1.188977 -0.251023
v 0.047631 1.208423 -0.231577
v 0.047631 1.247313 -0.192687
v 0.000000 1.266759 -0.173241
v -0.047631 1.247313 -0.192687
v -0.047631 1.208423 -0.231577
v 0.000000 1.304147 -0.327977
v 0.047631 1.314671 -0.302571
v 0.047631 1.335719 -0.251757
v 0.000000 1.346243 -0.226350
v -0.047631 1.335719 -0.251757
v -0.047631 1.314671 -0.302571
vn -0.4927 -0.1698 0.8535
vn -1.0000 -0.0000 -0.0000
vn -0.4927 0.1698 -0.8535
vn 0.4927 0.1698 -0.8535
vn 1.0000 -0.0000 -0.0000
vn 0.4927 -0.1698 0.8535
vn -0.4927 -0.4834 0.7235
vn -0.4927 0.4834 -0.7235
vn 0.4927 0.4834 -0.7235
vn 0.4927 -0.4834 0.7235
vn -0.4927 -0.7235 0.4834
vn -0.4927 0.7235 -0.4834
vn 0.4927 0.7235 -0.4834
vn 0.4927 -0.7235 0.4834
vn -0.4927 -0.8535 0.1698
vn -0.4927 0.8535 -0.1698
vn 0.4927 0.8535 -0.1698
vn 0.4927 -0.8535 0.1698
vn -0.4927 -0.8535 -0.1698
vn -0.4927 0.8535 0.1698
vn 0.4927 0.8535 0.1698
vn 0.4927 -0.8535 -0.1698
vn -0.4927 -0.7235 -0.4834
vn -0.4927 0.7235 0.4834
vn 0.4927 0.7235 0.4834
vn 0.4927 -0.7235 -0.4834
vn -0.4927 -0.4834 -0.7235
vn -0.4927 0.4834 0.7235
vn 0.4927 0.4834 0.7235
vn 0.4927 -0.4834 -0.7235
vn -0.4927 -0.1698 -0.8535
vn -0.4927 0.1698 0.8535
vn 0.4927 0.1698 0.8535
vn 0.4927 -0.1698 -0.8535
s 0
g A_Bow.001_compass_brass
usemtl compass_brass
f 2//1 7//1 1//1
f 3//2 8//2 2//2
f 4//3 9//3 3//3
f 5//4 10//4 4//4
f 6//5 11//5 5//5
f 6//6 7//6 12//6
f 8//7 13//7 7//7
f 9//2 14//2 8//2
f 9//8 16//8 15//8
f 11//9 16//9 10//9
f 12//5 17//5 11//5
f 12//10 13//10 18//10
f 14//11 19//11 13//11
f 15//2 20//2 14//2
f 16//12 21//12 15//12
f 16//13 23//13 22//13
f 18//5 23//5 17//5
f 13//14 24//14 18//14
f 20//15 25//15 19//15
f 21//2 26//2 20//2
f 22//16 27//16 21//16
f 23//17 28//17 22//17
f 24//5 29//5 23//5
f 19//18 30//18 24//18
f 25//19 32//19 31//19
f 27//2 32//2 26//2
f 28//20 33//20 27//20
f 29//21 34//21 28//21
f 30//5 35//5 29//5
f 25//22 36//22 30//22
f 32//23 37//23 31//23
f 32//2 39//2 38//2
f 34//24 39//24 33//24
f 35//25 40//25 34//25
f 36//5 41//5 35//5
f 31//26 42//26 36//26
f 37//27 44//27 43//27
f 39//2 44//2 38//2
f 40//28 45//28 39//28
f 40//29 47//29 46//29
f 42//5 47//5 41//5
f 37//30 48//30 42//30
f 44//31 49//31 43//31
f 45//2 50//2 44//2
f 46//32 51//32 45//32
f 47//33 52//33 46//33
f 48//5 53//5 47//5
f 43//34 54//34 48//34
f 50//3 55//3 49//3
f 51//2 56//2 50//2
f 52//1 57//1 51//1
f 53//6 58//6 52//6
f 54//5 59//5 53//5
f 54//4 55//4 60//4
f 56//8 61//8 55//8
f 57//2 62//2 56//2
f 57//7 64//7 63//7
f 59//10 64//10 58//10
f 60//5 65//5 59//5
f 60//9 61//9 66//9
f 62//12 67//12 61//12
f 63//2 68//2 62//2
f 64//11 69//11 63//11
f 64//14 71//14 70//14
f 66//5 71//5 65//5
f 61//13 72//13 66//13
f 68//16 73//16 67//16
f 69//2 74//2 68//2
f 70//15 75//15 69//15
f 71//18 76//18 70//18
f 72//5 77//5 71//5
f 67//17 78//17 72//17
f 73//20 80//20 79//20
f 75//2 80//2 74//2
f 76//19 81//19 75//19
f 77//22 82//22 76//22
f 78//5 83//5 77//5
f 73//21 84//21 78//21
f 80//24 85//24 79//24
f 80//2 87//2 86//2
f 82//23 87//23 81//23
f 83//26 88//26 82//26
f 84//5 89//5 83//5
f 79//25 90//25 84//25
f 85//28 92//28 91//28
f 87//2 92//2 86//2
f 88//27 93//27 87//27
f 88//30 95//30 94//30
f 90//5 95//5 89//5
f 85//29 96//29 90//29
f 92//32 1//32 91//32
f 93//2 2//2 92//2
f 94//31 3//31 93//31
f 95//34 4//34 94//34
f 96//5 5//5 95//5
f 91//33 6//33 96//33
f 2//1 8//1 7//1
f 3//2 9//2 8//2
f 4//3 10//3 9//3
f 5//4 11//4 10//4
f 6//5 12//5 11//5
f 6//6 1//6 7//6
f 8//7 14//7 13//7
f 9//2 15//2 14//2
f 9//8 10//8 16//8
f 11//9 17//9 16//9
f 12//5 18//5 17//5
f 12//10 7//10 13//10
f 14//11 20//11 19//11
f 15//2 21//2 20//2
f 16//12 22//12 21//12
f 16//13 17//13 23//13
f 18//5 24//5 23//5
f 13//14 19//14 24//14
f 20//15 26//15 25//15
f 21//2 27//2 26//2
f 22//16 28//16 27//16
f 23//17 29//17 28//17
f 24//5 30//5 29//5
f 19//18 25//18 30//18
f 25//19 26//19 32//19
f 27//2 33//2 32//2
f 28//20 34//20 33//20
f 29//21 35//21 34//21
f 30//5 36//5 35//5
f 25//22 31//22 36//22
f 32//23 38//23 37//23
f 32//2 33//2 39//2
f 34//24 40//24 39//24
f 35//25 41//25 40//25
f 36//5 42//5 41//5
f 31//26 37//26 42//26
f 37//27 38//27 44//27
f 39//2 45//2 44//2
f 40//28 46//28 45//28
f 40//29 41//29 47//29
f 42//5 48//5 47//5
f 37//30 43//30 48//30
f 44//31 50//31 49//31
f 45//2 51//2 50//2
f 46//32 52//32 51//32
f 47//33 53//33 52//33
f 48//5 54//5 53//5
f 43//34 49//34 54//34
f 50//3 56//3 55//3
f 51//2 57//2 56//2
f 52//1 58//1 57//1
f 53//6 59//6 58//6
f 54//5 60//5 59//5
f 54//4 49//4 55//4
f 56//8 62//8 61//8
f 57//2 63//2 62//2
f 57//7 58//7 64//7
f 59//10 65//10 64//10
f 60//5 66//5 65//5
f 60//9 55//9 61//9
f 62//12 68//12 67//12
f 63//2 69//2 68//2
f 64//11 70//11 69//11
f 64//14 65//14 71//14
f 66//5 72//5 71//5
f 61//13 67//13 72//13
f 68//16 74//16 73//16
f 69//2 75//2 74//2
f 70//15 76//15 75//15
f 71//18 77//18 76//18
f 72//5 78//5 77//5
f 67//17 73//17 78//17
f 73//20 74//20 80//20
f 75//2 81//2 80//2
f 76//19 82//19 81//19
f 77//22 83//22 82//22
f 78//5 84//5 83//5
f 73//21 79//21 84//21
f 80//24 86//24 85//24
f 80//2 81//2 87//2
f 82//23 88//23 87//23
f 83//26 89//26 88//26
f 84//5 90//5 89//5
f 79//25 85//25 90//25
f 85//28 86//28 92//28
f 87//2 93//2 92//2
f 88//27 94//27 93//27
f 88//30 89//30 95//30
f 90//5 96//5 95//5
f 85//29 91//29 96//29
f 92//32 2//32 1//32
f 93//2 3//2 2//2
f 94//31 4//31 3//31
f 95//34 5//34 4//34
f 96//5 6//5 5//5
f 91//33 1//33 6//33
g A_Case.001_A_Case.001
v 0.000000 0.000000 -0.220000
v 0.900000 0.000000 -0.220000
v 0.869333 0.232937 -0.220000
v 0.779423 0.450000 -0.220000
v 0.636396 0.636396 -0.220000
v 0.450000 0.779423 -0.220000
v 0.232937 0.869333 -0.220000
v 0.000000 0.900000 -0.220000
v -0.232937 0.869333 -0.220000
v -0.450000 0.779423 -0.220000
v -0.636396 0.636396 -0.220000
v -0.779423 0.450000 -0.220000
v -0.869333 0.232937 -0.220000
v -0.900000 0.000000 -0.220000
v -0.869333 -0.232937 -0.220000
v -0.779423 -0.450000 -0.220000
v -0.636396 -0.636396 -0.220000
v -0.450000 -0.779423 -0.220000
v -0.232937 -0.869333 -0.220000
v -0.000000 -0.900000 -0.220000
v 0.232937 -0.869333 -0.220000
v 0.450000 -0.779423 -0.220000
v 0.636396 -0.636396 -0.220000
v 0.779423 -0.450000 -0.220000
v 0.869333 -0.232937 -0.220000
v 1.000000 0.000000 -0.150000
v 0.965926 0.258819 -0.150000
v 0.866025 0.500000 -0.150000
v 0.707107 0.707107 -0.150000
v 0.500000 0.866025 -0.150000
v 0.258819 0.965926 -0.150000
v 0.000000 1.000000 -0.150000
v -0.258819 0.965926 -0.150000
v -0.500000 0.866025 -0.150000
v -0.707107 0.707107 -0.150000
v -0.866025 0.500000 -0.150000
v -0.965926 0.258819 -0.150000
v -1.000000 0.000000 -0.150000
v -0.965926 -0.258819 -0.150000
v -0.866025 -0.500000 -0.150000
v -0.707107 -0.707107 -0.150000
v -0.500000 -0.866025 -0.150000
v -0.258819 -0.965926 -0.150000
v -0.000000 -1.000000 -0.150000
v 0.258819 -0.965926 -0.150000
v 0.500000 -0.866025 -0.150000
v 0.707107 -0.707107 -0.150000
v 0.866025 -0.500000 -0.150000
v 0.965926 -0.258819 -0.150000
v 1.000000 0.000000 0.100000
v 0.965926 0.258819 0.100000
v 0.866025 0.500000 0.100000
v 0.707107 0.707107 0.100000
v 0.500000 0.866025 0.100000
v 0.258819 0.965926 0.100000
v 0.000000 1.000000 0.100000
v -0.258819 0.965926 0.100000
v -0.500000 0.866025 0.100000
v -0.707107 0.707107 0.100000
v -0.866025 0.500000 0.100000
v -0.965926 0.258819 0.100000
v -1.000000 0.000000 0.100000
v -0.965926 -0.258819 0.100000
v -0.866025 -0.500000 0.100000
v -0.707107 -0.707107 0.100000
v -0.500000 -0.866025 0.100000
v -0.258819 -0.965926 0.100000
v -0.000000 -1.000000 0.100000
v 0.258819 -0.965926 0.100000
v 0.500000 -0.866025 0.100000
v 0.707107 -0.707107 0.100000
v 0.866025 -0.500000 0.100000
v 0.965926 -0.258819 0.100000
v 0.940000 0.000000 0.170000
v 0.907970 0.243290 0.170000
v 0.814064 0.470000 0.170000
v 0.664680 0.664680 0.170000
v 0.470000 0.814064 0.170000
v 0.243290 0.907970 0.170000
v 0.000000 0.940000 0.170000
v -0.243290 0.907970 0.170000
v -0.470000 0.814064 0.170000
v -0.664680 0.664680 0.170000
v -0.814064 0.470000 0.170000
v -0.907970 0.243290 0.170000
v -0.940000 0.000000 0.170000
v -0.907970 -0.243290 0.170000
v -0.814064 -0.470000 0.170000
v -0.664680 -0.664680 0.170000
v -0.470000 -0.814064 0.170000
v -0.243290 -0.907970 0.170000
v -0.000000 -0.940000 0.170000
v 0.243290 -0.907970 0.170000
v 0.470000 -0.814064 0.170000
v 0.664680 -0.664680 0.170000
v 0.814064 -0.470000 0.170000
v 0.907970 -0.243290 0.170000
v 0.850000 0.000000 0.170000
v 0.821037 0.219996 0.170000
v 0.736122 0.425000 0.170000
v 0.601041 0.601041 0.170000
v 0.425000 0.736122 0.170000
v 0.219996 0.821037 0.170000
v 0.000000 0.850000 0.170000
v -0.219996 0.821037 0.170000
v -0.425000 0.736122 0.170000
v -0.601041 0.601041 0.170000
v -0.736122 0.425000 0.170000
v -0.821037 0.219996 0.170000
v -0.850000 0.000000 0.170000
v -0.821037 -0.219996 0.170000
v -0.736122 -0.425000 0.170000
v -0.601041 -0.601041 0.170000
v -0.425000 -0.736122 0.170000
v -0.219996 -0.821037 0.170000
v -0.000000 -0.850000 0.170000
v 0.219996 -0.821037 0.170000
v 0.425000 -0.736122 0.170000
v 0.601041 -0.601041 0.170000
v 0.736122 -0.425000 0.170000
v 0.821037 -0.219996 0.170000
v 0.850000 0.000000 0.040000
v 0.821037 0.219996 0.040000
v 0.736122 0.425000 0.040000
v 0.601041 0.601041 0.040000
v 0.425000 0.736122 0.040000
v 0.219996 0.821037 0.040000
v 0.000000 0.850000 0.040000
v -0.219996 0.821037 0.040000
v -0.425000 0.736122 0.040000
v -0.601041 0.601041 0.040000
v -0.736122 0.425000 0.040000
v -0.821037 0.219996 0.040000
v -0.850000 0.000000 0.040000
v -0.821037 -0.219996 0.040000
v -0.736122 -0.425000 0.040000
v -0.601041 -0.601041 0.040000
v -0.425000 -0.736122 0.040000
v -0.219996 -0.821037 0.040000
v -0.000000 -0.850000 0.040000
v 0.219996 -0.821037 0.040000
v 0.425000 -0.736122 0.040000
v 0.601041 -0.601041 0.040000
v 0.736122 -0.425000 0.040000
v 0.821037 -0.219996 0.040000
v 0.000000 0.000000 0.040000
vn -0.0000 -0.0000 1.0000
vn -0.5718 -0.0753 0.8169
vn -0.5329 -0.2207 0.8169
vn -0.4576 -0.3511 0.8169
vn -0.3511 -0.4576 0.8169
vn -0.2207 -0.5329 0.8169
vn -0.0753 -0.5718 0.8169
vn 0.0753 -0.5718 0.8169
vn 0.2207 -0.5329 0.8169
vn 0.3511 -0.4576 0.8169
vn 0.4576 -0.3511 0.8169
vn 0.5329 -0.2207 0.8169
vn 0.5718 -0.0753 0.8169
vn 0.5718 0.0753 0.8169
vn 0.5329 0.2207 0.8169
vn 0.4576 0.3511 0.8169
vn 0.3511 0.4576 0.8169
vn 0.2207 0.5329 0.8169
vn 0.0753 0.5718 0.8169
vn -0.0753 0.5718 0.8169
vn -0.2207 0.5329 0.8169
vn -0.3511 0.4576 0.8169
vn -0.4576 0.3511 0.8169
vn -0.5329 0.2207 0.8169
vn -0.5718 0.0753 0.8169
vn -0.9914 -0.1305 -0.0000
vn -0.9239 -0.3827 -0.0000
vn -0.7934 -0.6088 -0.0000
vn -0.6088 -0.7934 -0.0000
vn -0.3827 -0.9239 -0.0000
vn -0.1305 -0.9914 -0.0000
vn 0.1305 -0.9914 -0.0000
vn 0.3827 -0.9239 -0.0000
vn 0.6088 -0.7934 -0.0000
vn 0.7934 -0.6088 -0.0000
vn 0.9239 -0.3827 -0.0000
vn 0.9914 -0.1305 -0.0000
vn 0.9914 0.1305 -0.0000
vn 0.9239 0.3827 -0.0000
vn 0.7934 0.6088 -0.0000
vn 0.6088 0.7934 -0.0000
vn 0.3827 0.9239 -0.0000
vn 0.1305 0.9914 -0.0000
vn -0.1305 0.9914 -0.0000
vn -0.3827 0.9239 -0.0000
vn -0.6088 0.7934 -0.0000
vn -0.7934 0.6088 -0.0000
vn -0.9239 0.3827 -0.0000
vn -0.9914 0.1305 -0.0000
vn -0.7555 -0.0995 -0.6476
vn -0.7040 -0.2916 -0.6476
vn -0.6045 -0.4639 -0.6476
vn -0.4639 -0.6045 -0.6476
vn -0.2916 -0.7040 -0.6476
vn -0.0995 -0.7555 -0.6476
vn 0.0995 -0.7555 -0.6476
vn 0.2916 -0.7040 -0.6476
vn 0.4639 -0.6045 -0.6476
vn 0.6045 -0.4639 -0.6476
vn 0.7040 -0.2916 -0.6476
vn 0.7555 -0.0995 -0.6476
vn 0.7555 0.0995 -0.6476
vn 0.7040 0.2916 -0.6476
vn 0.6045 0.4639 -0.6476
vn 0.4639 0.6045 -0.6476
vn 0.2916 0.7040 -0.6476
vn 0.0995 0.7555 -0.6476
vn -0.0995 0.7555 -0.6476
vn -0.2916 0.7040 -0.6476
vn -0.4639 0.6045 -0.6476
vn -0.6045 0.4639 -0.6476
vn -0.7040 0.2916 -0.6476
vn -0.7555 0.0995 -0.6476
vn -0.0000 -0.0000 -1.0000
s 0
g A_Case.001_compass_brass
usemtl compass_brass
f 98//35 99//35 97//35
f 99//35 100//35 97//35
f 100//35 101//35 97//35
f 101//35 102//35 97//35
f 102//35 103//35 97//35
f 103//35 104//35 97//35
f 104//35 105//35 97//35
f 105//35 106//35 97//35
f 106//35 107//35 97//35
f 107//35 108//35 97//35
f 108//35 109//35 97//35
f 109//35 110//35 97//35
f 110//35 111//35 97//35
f 111//35 112//35 97//35
f 112//35 113//35 97//35
f 113//35 114//35 97//35
f 114//35 115//35 97//35
f 115//35 116//35 97//35
f 116//35 117//35 97//35
f 117//35 118//35 97//35
f 118//35 119//35 97//35
f 119//35 120//35 97//35
f 120//35 121//35 97//35
f 121//35 98//35 97//35
f 123//36 98//36 122//36
f 123//37 100//37 99//37
f 124//38 101//38 100//38
f 126//39 101//39 125//39
f 127//40 102//40 126//40
f 128//41 103//41 127//41
f 128//42 105//42 104//42
f 129//43 106//43 105//43
f 131//44 106//44 130//44
f 132//45 107//45 131//45
f 133//46 108//46 132//46
f 134//47 109//47 133//47
f 135//48 110//48 134//48
f 135//49 112//49 111//49
f 136//50 113//50 112//50
f 138//51 113//51 137//51
f 139//52 114//52 138//52
f 140//53 115//53 139//53
f 140//54 117//54 116//54
f 141//55 118//55 117//55
f 143//56 118//56 142//56
f 144//57 119//57 143//57
f 145//58 120//58 144//58
f 122//59 121//59 145//59
f 147//60 122//60 146//60
f 148//61 123//61 147//61
f 149//62 124//62 148//62
f 150//63 125//63 149//63
f 151//64 126//64 150//64
f 152//65 127//65 151//65
f 153//66 128//66 152//66
f 154//67 129//67 153//67
f 155//68 130//68 154//68
f 156//69 131//69 155//69
f 157//70 132//70 156//70
f 158//71 133//71 157//71
f 159//72 134//72 158//72
f 160//73 135//73 159//73
f 161//74 136//74 160//74
f 162//75 137//75 161//75
f 163//76 138//76 162//76
f 164//77 139//77 163//77
f 165//78 140//78 164//78
f 166//79 141//79 165//79
f 167//80 142//80 166//80
f 168//81 143//81 167//81
f 169//82 144//82 168//82
f 146//83 145//83 169//83
f 171//84 146//84 170//84
f 172//85 147//85 171//85
f 173//86 148//86 172//86
f 174//87 149//87 173//87
f 175//88 150//88 174//88
f 175//89 152//89 151//89
f 177//90 152//90 176//90
f 178//91 153//91 177//91
f 179//92 154//92 178//92
f 179//93 156//93 155//93
f 180//94 157//94 156//94
f 182//95 157//95 181//95
f 183//96 158//96 182//96
f 184//97 159//97 183//97
f 185//98 160//98 184//98
f 186//99 161//99 185//99
f 187//100 162//100 186//100
f 187//101 164//101 163//101
f 189//102 164//102 188//102
f 190//103 165//103 189//103
f 191//104 166//104 190//104
f 191//105 168//105 167//105
f 192//106 169//106 168//106
f 170//107 169//107 193//107
f 195//108 170//108 194//108
f 196//108 171//108 195//108
f 196//108 173//108 172//108
f 198//108 173//108 197//108
f 199//108 174//108 198//108
f 199//108 176//108 175//108
f 201//108 176//108 200//108
f 202//108 177//108 201//108
f 202//108 179//108 178//108
f 204//108 179//108 203//108
f 205//108 180//108 204//108
f 205//108 182//108 181//108
f 207//108 182//108 206//108
f 208//108 183//108 207//108
f 208//108 185//108 184//108
f 210//108 185//108 209//108
f 211//108 186//108 210//108
f 211//108 188//108 187//108
f 213//108 188//108 212//108
f 214//108 189//108 213//108
f 214//108 191//108 190//108
f 216//108 191//108 215//108
f 217//108 192//108 216//108
f 217//108 170//108 193//108
f 219//72 194//72 218//72
f 220//73 195//73 219//73
f 221//74 196//74 220//74
f 222//75 197//75 221//75
f 223//76 198//76 222//76
f 224//77 199//77 223//77
f 225//78 200//78 224//78
f 226//79 201//79 225//79
f 227//80 202//80 226//80
f 228//81 203//81 227//81
f 229//82 204//82 228//82
f 230//83 205//83 229//83
f 231//60 206//60 230//60
f 232//61 207//61 231//61
f 233//62 208//62 232//62
f 234//63 209//63 233//63
f 235//64 210//64 234//64
f 236//65 211//65 235//65
f 237//66 212//66 236//66
f 238//67 213//67 237//67
f 239//68 214//68 238//68
f 240//69 215//69 239//69
f 241//70 216//70 240//70
f 218//71 217//71 241//71
f 242//108 219//108 218//108
f 242//108 220//108 219//108
f 242//108 221//108 220//108
f 242//108 222//108 221//108
f 242//108 223//108 222//108
f 242//108 224//108 223//108
f 242//108 225//108 224//108
f 242//108 226//108 225//108
f 242//108 227//108 226//108
f 242//108 228//108 227//108
f 242//108 229//108 228//108
f 242//108 230//108 229//108
f 242//108 231//108 230//108
f 242//108 232//108 231//108
f 242//108 233//108 232//108
f 242//108 234//108 233//108
f 242//108 235//108 234//108
f 242//108 236//108 235//108
f 242//108 237//108 236//108
f 242//108 238//108 237//108
f 242//108 239//108 238//108
f 242//108 240//108 239//108
f 242//108 241//108 240//108
f 242//108 218//108 241//108
f 123//36 99//36 98//36
f 123//37 124//37 100//37
f 124//38 125//38 101//38
f 126//39 102//39 101//39
f 127//40 103//40 102//40
f 128//41 104//41 103//41
f 128//42 129//42 105//42
f 129//43 130//43 106//43
f 131//44 107//44 106//44
f 132//45 108//45 107//45
f 133//46 109//46 108//46
f 134//47 110//47 109//47
f 135//48 111//48 110//48
f 135//49 136//49 112//49
f 136//50 137//50 113//50
f 138//51 114//51 113//51
f 139//52 115//52 114//52
f 140//53 116//53 115//53
f 140//54 141//54 117//54
f 141//55 142//55 118//55
f 143//56 119//56 118//56
f 144//57 120//57 119//57
f 145//58 121//58 120//58
f 122//59 98//59 121//59
f 147//60 123//60 122//60
f 148//61 124//61 123//61
f 149//62 125//62 124//62
f 150//63 126//63 125//63
f 151//64 127//64 126//64
f 152//65 128//65 127//65
f 153//66 129//66 128//66
f 154//67 130//67 129//67
f 155//68 131//68 130//68
f 156//69 132//69 131//69
f 157//70 133//70 132//70
f 158//71 134//71 133//71
f 159//72 135//72 134//72
f 160//73 136//73 135//73
f 161//74 137//74 136//74
f 162//75 138//75 137//75
f 163//76 139//76 138//76
f 164//77 140//77 139//77
f 165//78 141//78 140//78
f 166//79 142//79 141//79
f 167//80 143//80 142//80
f 168//81 144//81 143//81
f 169//82 145//82 144//82
f 146//83 122//83 145//83
f 171//84 147//84 146//84
f 172//85 148//85 147//85
f 173//86 149//86 148//86
f 174//87 150//87 149//87
f 175//88 151//88 150//88
f 175//89 176//89 152//89
f 177//90 153//90 152//90
f 178//91 154//91 153//91
f 179//92 155//92 154//92
f 179//93 180//93 156//93
f 180//94 181//94 157//94
f 182//95 158//95 157//95
f 183//96 159//96 158//96
f 184//97 160//97 159//97
f 185//98 161//98 160//98
f 186//99 162//99 161//99
f 187//100 163//100 162//100
f 187//101 188//101 164//101
f 189//102 165//102 164//102
f 190//103 166//103 165//103
f 191//104 167//104 166//104
f 191//105 192//105 168//105
f 192//106 193//106 169//106
f 170//107 146//107 169//107
f 195//108 171//108 170//108
f 196//108 172//108 171//108
f 196//108 197//108 173//108
f 198//108 174//108 173//108
f 199//108 175//108 174//108
f 199//108 200//108 176//108
f 201//108 177//108 176//108
f 202//108 178//108 177//108
f 202//108 203//108 179//108
f 204//108 180//108 179//108
f 205//108 181//108 180//108
f 205//108 206//108 182//108
f 207//108 183//108 182//108
f 208//108 184//108 183//108
f 208//108 209//108 185//108
f 210//108 186//108 185//108
f 211//108 187//108 186//108
f 211//108 212//108 188//108
f 213//108 189//108 188//108
f 214//108 190//108 189//108
f 214//108 215//108 191//108
f 216//108 192//108 191//108
f 217//108 193//108 192//108
f 217//108 194//108 170//108
f 219//72 195//72 194//72
f 220//73 196//73 195//73
f 221//74 197//74 196//74
f 222//75 198//75 197//75
f 223//76 199//76 198//76
f 224//77 200//77 199//77
f 225//78 201//78 200//78
f 226//79 202//79 201//79
f 227//80 203//80 202//80
f 228//81 204//81 203//81
f 229//82 205//82 204//82
f 230//83 206//83 205//83
f 231//60 207//60 206//60
f 232//61 208//61 207//61
f 233//62 209//62 208//62
f 234//63 210//63 209//63
f 235//64 211//64 210//64
f 236//65 212//65 211//65
f 237//66 213//66 212//66
f 238//67 214//67 213//67
f 239//68 215//68 214//68
f 240//69 216//69 215//69
f 241//70 217//70 216//70
f 218//71 194//71 217//71
g A_Crown.001_A_Crown.001
v 0.000000 0.980000 0.000000
v 0.170000 0.980000 0.000000
v 0.147224 0.980000 -0.085000
v 0.085000 0.980000 -0.147224
v 0.000000 0.980000 -0.170000
v -0.085000 0.980000 -0.147224
v -0.147224 0.980000 -0.085000
v -0.170000 0.980000 -0.000000
v -0.147224 0.980000 0.085000
v -0.085000 0.980000 0.147224
v -0.000000 0.980000 0.170000
v 0.085000 0.980000 0.147224
v 0.147224 0.980000 0.085000
v 0.170000 1.060000 0.000000
v 0.147224 1.060000 -0.085000
v 0.085000 1.060000 -0.147224
v 0.000000 1.060000 -0.170000
v -0.085000 1.060000 -0.147224
v -0.147224 1.060000 -0.085000
v -0.170000 1.060000 -0.000000
v -0.147224 1.060000 0.085000
v -0.085000 1.060000 0.147224
v -0.000000 1.060000 0.170000
v 0.085000 1.060000 0.147224
v 0.147224 1.060000 0.085000
v 0.250000 1.090000 0.000000
v 0.216506 1.090000 -0.125000
v 0.125000 1.090000 -0.216506
v 0.000000 1.090000 -0.250000
v -0.125000 1.090000 -0.216506
v -0.216506 1.090000 -0.125000
v -0.250000 1.090000 -0.000000
v -0.216506 1.090000 0.125000
v -0.125000 1.090000 0.216506
v -0.000000 1.090000 0.250000
v 0.125000 1.090000 0.216506
v 0.216506 1.090000 0.125000
v 0.250000 1.170000 0.000000
v 0.216506 1.170000 -0.125000
v 0.125000 1.170000 -0.216506
v 0.000000 1.170000 -0.250000
v -0.125000 1.170000 -0.216506
v -0.216506 1.170000 -0.125000
v -0.250000 1.170000 -0.000000
v -0.216506 1.170000 0.125000
v -0.125000 1.170000 0.216506
v -0.000000 1.170000 0.250000
v 0.125000 1.170000 0.216506
v 0.216506 1.170000 0.125000
v 0.170000 1.200000 0.000000
v 0.147224 1.200000 -0.085000
v 0.085000 1.200000 -0.147224
v 0.000000 1.200000 -0.170000
v -0.085000 1.200000 -0.147224
v -0.147224 1.200000 -0.085000
v -0.170000 1.200000 -0.000000
v -0.147224 1.200000 0.085000
v -0.085000 1.200000 0.147224
v -0.000000 1.200000 0.170000
v 0.085000 1.200000 0.147224
v 0.147224 1.200000 0.085000
v 0.000000 1.200000 0.000000
vn -0.0000 -1.0000 -0.0000
vn 0.9659 -0.0000 -0.2588
vn 0.7071 -0.0000 -0.7071
vn 0.2588 -0.0000 -0.9659
vn -0.2588 -0.0000 -0.9659
vn -0.7071 -0.0000 -0.7071
vn -0.9659 -0.0000 -0.2588
vn -0.9659 -0.0000 0.2588
vn -0.7071 -0.0000 0.7071
vn -0.2588 -0.0000 0.9659
vn 0.2588 -0.0000 0.9659
vn 0.7071 -0.0000 0.7071
vn 0.9659 -0.0000 0.2588
vn 0.3496 -0.9322 -0.0937
vn 0.2559 -0.9322 -0.2559
vn 0.0937 -0.9322 -0.3496
vn -0.0937 -0.9322 -0.3496
vn -0.2559 -0.9322 -0.2559
vn -0.3496 -0.9322 -0.0937
vn -0.3496 -0.9322 0.0937
vn -0.2559 -0.9322 0.2559
vn -0.0937 -0.9322 0.3496
vn 0.0937 -0.9322 0.3496
vn 0.2559 -0.9322 0.2559
vn 0.3496 -0.9322 0.0937
vn 0.3496 0.9322 -0.0937
vn 0.2559 0.9322 -0.2559
vn 0.0937 0.9322 -0.3496
vn -0.0937 0.9322 -0.3496
vn -0.2559 0.9322 -0.2559
vn -0.3496 0.9322 -0.0937
vn -0.3496 0.9322 0.0937
vn -0.2559 0.9322 0.2559
vn -0.0937 0.9322 0.3496
vn 0.0937 0.9322 0.3496
vn 0.2559 0.9322 0.2559
vn 0.3496 0.9322 0.0937
vn -0.0000 1.0000 -0.0000
s 0
g A_Crown.001_compass_brass
usemtl compass_brass
f 243//109 245//109 244//109
f 243//109 246//109 245//109
f 243//109 247//109 246//109
f 243//109 248//109 247//109
f 243//109 249//109 248//109
f 243//109 250//109 249//109
f 243//109 251//109 250//109
f 243//109 252//109 251//109
f 243//109 253//109 252//109
f 243//109 254//109 253//109
f 243//109 255//109 254//109
f 243//109 244//109 255//109
f 245//110 256//110 244//110
f 246//111 257//111 245//111
f 247//112 258//112 246//112
f 248//113 259//113 247//113
f 249//114 260//114 248//114
f 250//115 261//115 249//115
f 251//116 262//116 250//116
f 252//117 263//117 251//117
f 253//118 264//118 252//118
f 254//119 265//119 253//119
f 255//120 266//120 254//120
f 244//121 267//121 255//121
f 257//122 268//122 256//122
f 258//123 269//123 257//123
f 259//124 270//124 258//124
f 260//125 271//125 259//125
f 261//126 272//126 260//126
f 262//127 273//127 261//127
f 263//128 274//128 262//128
f 264//129 275//129 263//129
f 265//130 276//130 264//130
f 266//131 277//131 265//131
f 267//132 278//132 266//132
f 256//133 279//133 267//133
f 269//110 280//110 268//110
f 270//111 281//111 269//111
f 271//112 282//112 270//112
f 272//113 283//113 271//113
f 273//114 284//114 272//114
f 274//115 285//115 273//115
f 275//116 286//116 274//116
f 276//117 287//117 275//117
f 277//118 288//118 276//118
f 278//119 289//119 277//119
f 279//120 290//120 278//120
f 268//121 291//121 279//121
f 281//134 292//134 280//134
f 282//135 293//135 281//135
f 283//136 294//136 282//136
f 284//137 295//137 283//137
f 285//138 296//138 284//138
f 286//139 297//139 285//139
f 287//140 298//140 286//140
f 288//141 299//141 287//141
f 289//142 300//142 288//142
f 290//143 301//143 289//143
f 291//144 302//144 290//144
f 280//145 303//145 291//145
f 292//146 293//146 304//146
f 293//146 294//146 304//146
f 294//146 295//146 304//146
f 295//146 296//146 304//146
f 296//146 297//146 304//146
f 297//146 298//146 304//146
f 298//146 299//146 304//146
f 299//146 300//146 304//146
f 300//146 301//146 304//146
f 301//146 302//146 304//146
f 302//146 303//146 304//146
f 303//146 292//146 304//146
f 245//110 257//110 256//110
f 246//111 258//111 257//111
f 247//112 259//112 258//112
f 248//113 260//113 259//113
f 249//114 261//114 260//114
f 250//115 262//115 261//115
f 251//116 263//116 262//116
f 252//117 264//117 263//117
f 253//118 265//118 264//118
f 254//119 266//119 265//119
f 255//120 267//120 266//120
f 244//121 256//121 267//121
f 257//122 269//122 268//122
f 258//123 270//123 269//123
f 259//124 271//124 270//124
f 260//125 272//125 271//125
f 261//126 273//126 272//126
f 262//127 274//127 273//127
f 263//128 275//128 274//128
f 264//129 276//129 275//129
f 265//130 277//130 276//130
f 266//131 278//131 277//131
f 267//132 279//132 278//132
f 256//133 268//133 279//133
f 269//110 281//110 280//110
f 270//111 282//111 281//111
f 271//112 283//112 282//112
f 272//113 284//113 283//113
f 273//114 285//114 284//114
f 274//115 286//115 285//115
f 275//116 287//116 286//116
f 276//117 288//117 287//117
f 277//118 289//118 288//118
f 278//119 290//119 289//119
f 279//120 291//120 290//120
f 268//121 280//121 291//121
f 281//134 293//134 292//134
f 282//135 294//135 293//135
f 283//136 295//136 294//136
f 284//137 296//137 295//137
f 285//138 297//138 296//138
f 286//139 298//139 297//139
f 287//140 299//140 298//140
f 288//141 300//141 299//141
f 289//142 301//142 300//142
f 290//143 302//143 301//143
f 291//144 303//144 302//144
f 280//145 292//145 303//145
g A_Dial.001_A_Dial.001
v 0.000000 0.000000 0.055000
v 0.850000 0.000000 0.055000
v 0.821037 0.219996 0.055000
v 0.736122 0.425000 0.055000
v 0.601041 0.601041 0.055000
v 0.425000 0.736122 0.055000
v 0.219996 0.821037 0.055000
v 0.000000 0.850000 0.055000
v -0.219996 0.821037 0.055000
v -0.425000 0.736122 0.055000
v -0.601041 0.601041 0.055000
v -0.736122 0.425000 0.055000
v -0.821037 0.219996 0.055000
v -0.850000 0.000000 0.055000
v -0.821037 -0.219996 0.055000
v -0.736122 -0.425000 0.055000
v -0.601041 -0.601041 0.055000
v -0.425000 -0.736122 0.055000
v -0.219996 -0.821037 0.055000
v -0.000000 -0.850000 0.055000
v 0.219996 -0.821037 0.055000
v 0.425000 -0.736122 0.055000
v 0.601041 -0.601041 0.055000
v 0.736122 -0.425000 0.055000
v 0.821037 -0.219996 0.055000
vn -0.0000 -0.0000 1.0000
vt 0.500000 0.500000
vt 1.000000 0.500000
vt 0.982963 0.629410
vt 0.933013 0.750000
vt 0.853553 0.853553
vt 0.750000 0.933013
vt 0.629410 0.982963
vt 0.500000 1.000000
vt 0.370590 0.982963
vt 0.250000 0.933013
vt 0.146447 0.853553
vt 0.066987 0.750000
vt 0.017037 0.629410
vt 0.000000 0.500000
vt 0.017037 0.370590
vt 0.066987 0.250000
vt 0.146447 0.146447
vt 0.250000 0.066987
vt 0.370590 0.017037
vt 0.500000 0.000000
vt 0.629410 0.017037
vt 0.750000 0.066987
vt 0.853553 0.146447
vt 0.933013 0.250000
vt 0.982963 0.370590
s 0
g A_Dial.001_compass_dial
usemtl compass_dial
f 305/1/147 306/2/147 307/3/147
f 305/1/147 307/3/147 308/4/147
f 305/1/147 308/4/147 309/5/147
f 305/1/147 309/5/147 310/6/147
f 305/1/147 310/6/147 311/7/147
f 305/1/147 311/7/147 312/8/147
f 305/1/147 312/8/147 313/9/147
f 305/1/147 313/9/147 314/10/147
f 305/1/147 314/10/147 315/11/147
f 305/1/147 315/11/147 316/12/147
f 305/1/147 316/12/147 317/13/147
f 305/1/147 317/13/147 318/14/147
f 305/1/147 318/14/147 319/15/147
f 305/1/147 319/15/147 320/16/147
f 305/1/147 320/16/147 321/17/147
f 305/1/147 321/17/147 322/18/147
f 305/1/147 322/18/147 323/19/147
f 305/1/147 323/19/147 324/20/147
f 305/1/147 324/20/147 325/21/147
f 305/1/147 325/21/147 326/22/147
f 305/1/147 326/22/147 327/23/147
f 305/1/147 327/23/147 328/24/147
f 305/1/147 328/24/147 329/25/147
f 305/1/147 329/25/147 306/2/147
g A_Hinge.001_A_Hinge.001
v -0.900000 -0.400000 0.100000
v -0.929289 -0.400000 0.029289
v -1.000000 -0.400000 0.000000
v -1.070711 -0.400000 0.029289
v -1.100000 -0.400000 0.100000
v -1.070711 -0.400000 0.170711
v -1.000000 -0.400000 0.200000
v -0.929289 -0.400000 0.170711
v -0.900000 0.400000 0.100000
v -0.929289 0.400000 0.029289
v -1.000000 0.400000 0.000000
v -1.070711 0.400000 0.029289
v -1.100000 0.400000 0.100000
v -1.070711 0.400000 0.170711
v -1.000000 0.400000 0.200000
v -0.929289 0.400000 0.170711
vn 0.9239 -0.0000 -0.3827
vn 0.3827 -0.0000 -0.9239
vn -0.3827 -0.0000 -0.9239
vn -0.9239 -0.0000 -0.3827
vn -0.9239 -0.0000 0.3827
vn -0.3827 -0.0000 0.9239
vn 0.3827 -0.0000 0.9239
vn 0.9239 -0.0000 0.3827
s 0
g A_Hinge.001_compass_brass
usemtl compass_brass
f 331//148 338//148 330//148
f 332//149 339//149 331//149
f 333//150 340//150 332//150
f 334//151 341//151 333//151
f 335//152 342//152 334//152
f 336//153 343//153 335//153
f 337//154 344//154 336//154
f 330//155 345//155 337//155
f 331//148 339//148 338//148
f 332//149 340//149 339//149
f 333//150 341//150 340//150
f 334//151 342//151 341//151
f 335//152 343//152 342//152
f 336//153 344//153 343//153
f 337//154 345//154 344//154
f 330//155 338//155 345//155
g A_Lid.001_A_Lid.001
v -1.870045 0.000000 0.533039
v -2.675448 0.000000 0.998039
v -2.648005 0.240702 0.982194
v -2.567544 0.465000 0.935740
v -2.439551 0.657609 0.861843
v -2.272746 0.805404 0.765539
v -2.078498 0.898311 0.653389
v -1.870045 0.930000 0.533039
v -1.661591 0.898311 0.412688
v -1.467343 0.805404 0.300539
v -1.300538 0.657609 0.204234
v -1.172545 0.465000 0.130337
v -1.092085 0.240702 0.083883
v -1.064641 0.000000 0.068038
v -1.092085 -0.240702 0.083883
v -1.172545 -0.465000 0.130337
v -1.300538 -0.657609 0.204234
v -1.467343 -0.805404 0.300539
v -1.661591 -0.898311 0.412688
v -1.870045 -0.930000 0.533039
v -2.078498 -0.898311 0.653389
v -2.272746 -0.805404 0.765539
v -2.439551 -0.657609 0.861843
v -2.567544 -0.465000 0.935740
v -2.648005 -0.240702 0.982194
v -2.690089 0.000000 1.052680
v -2.661465 0.251054 1.036154
v -2.577545 0.485000 0.987702
v -2.444046 0.685894 0.910626
v -2.270067 0.840045 0.810180
v -2.067464 0.936948 0.693207
v -1.850045 0.970000 0.567680
v -1.632625 0.936948 0.442152
v -1.430022 0.840045 0.325180
v -1.256043 0.685894 0.224733
v -1.122545 0.485000 0.147657
v -1.038624 0.251054 0.099205
v -1.010000 0.000000 0.082679
v -1.038624 -0.251054 0.099205
v -1.122545 -0.485000 0.147657
v -1.256043 -0.685894 0.224733
v -1.430022 -0.840045 0.325180
v -1.632625 -0.936948 0.442152
v -1.850045 -0.970000 0.567680
v -2.067464 -0.936948 0.693207
v -2.270067 -0.840045 0.810180
v -2.444046 -0.685894 0.910626
v -2.577545 -0.485000 0.987702
v -2.661465 -0.251054 1.036154
v -2.665089 0.000000 1.095981
v -2.636466 0.251054 1.079455
v -2.552545 0.485000 1.031003
v -2.419046 0.685894 0.953928
v -2.245067 0.840045 0.853481
v -2.042464 0.936948 0.736508
v -1.825045 0.970000 0.610981
v -1.607625 0.936948 0.485454
v -1.405022 0.840045 0.368481
v -1.231043 0.685894 0.268034
v -1.097545 0.485000 0.190958
v -1.013624 0.251054 0.142507
v -0.985000 0.000000 0.125981
v -1.013624 -0.251054 0.142507
v -1.097545 -0.485000 0.190958
v -1.231043 -0.685894 0.268034
v -1.405022 -0.840045 0.368481
v -1.607625 -0.936948 0.485454
v -1.825045 -0.970000 0.610981
v -2.042464 -0.936948 0.736508
v -2.245067 -0.840045 0.853481
v -2.419046 -0.685894 0.953928
v -2.552545 -0.485000 1.031003
v -2.636466 -0.251054 1.079455
v -2.589468 0.000000 1.086962
v -2.562909 0.232937 1.071628
v -2.485045 0.450000 1.026673
v -2.361180 0.636396 0.955160
v -2.199756 0.779423 0.861962
v -2.011774 0.869333 0.753430
v -1.810045 0.900000 0.636962
v -1.608315 0.869333 0.520493
v -1.420333 0.779423 0.411962
v -1.258909 0.636396 0.318763
v -1.135045 0.450000 0.247250
v -1.057180 0.232937 0.202295
v -1.030622 0.000000 0.186962
v -1.057180 -0.232937 0.202295
v -1.135045 -0.450000 0.247250
v -1.258909 -0.636396 0.318763
v -1.420333 -0.779423 0.411962
v -1.608315 -0.869333 0.520493
v -1.810045 -0.900000 0.636962
v -2.011774 -0.869333 0.753430
v -2.199756 -0.779423 0.861962
v -2.361180 -0.636396 0.955160
v -2.485045 -0.450000 1.026673
v -2.562909 -0.232937 1.071628
v -1.810045 0.000000 0.636962
vn -0.5000 -0.0000 -0.8660
vn -0.9618 0.0927 -0.2577
vn -0.9202 0.2718 -0.2817
vn -0.8399 0.4323 -0.3280
vn -0.7264 0.5634 -0.3936
vn -0.5874 0.6561 -0.4739
vn -0.4323 0.7041 -0.5634
vn -0.2718 0.7041 -0.6561
vn -0.1167 0.6561 -0.7456
vn 0.0224 0.5634 -0.8259
vn 0.1359 0.4323 -0.8914
vn 0.2162 0.2718 -0.9378
vn 0.2577 0.0927 -0.9618
vn 0.2577 -0.0927 -0.9618
vn 0.2162 -0.2718 -0.9378
vn 0.1359 -0.4323 -0.8914
vn 0.0224 -0.5634 -0.8259
vn -0.1167 -0.6561 -0.7456
vn -0.2718 -0.7041 -0.6561
vn -0.4323 -0.7041 -0.5634
vn -0.5874 -0.6561 -0.4739
vn -0.7264 -0.5634 -0.3936
vn -0.8399 -0.4323 -0.3280
vn -0.9202 -0.2718 -0.2817
vn -0.9618 -0.0927 -0.2577
vn -0.8586 0.1305 0.4957
vn -0.8001 0.3827 0.4619
vn -0.6871 0.6088 0.3967
vn -0.5272 0.7934 0.3044
vn -0.3314 0.9239 0.1913
vn -0.1130 0.9914 0.0653
vn 0.1130 0.9914 -0.0653
vn 0.3314 0.9239 -0.1913
vn 0.5272 0.7934 -0.3044
vn 0.6871 0.6088 -0.3967
vn 0.8001 0.3827 -0.4619
vn 0.8586 0.1305 -0.4957
vn 0.8586 -0.1305 -0.4957
vn 0.8001 -0.3827 -0.4619
vn 0.6871 -0.6088 -0.3967
vn 0.5272 -0.7934 -0.3044
vn 0.3314 -0.9239 -0.1913
vn 0.1130 -0.9914 -0.0653
vn -0.1130 -0.9914 0.0653
vn -0.3314 -0.9239 0.1913
vn -0.5272 -0.7934 0.3044
vn -0.6871 -0.6088 0.3967
vn -0.8001 -0.3827 0.4619
vn -0.8586 -0.1305 0.4957
vn 0.1183 0.0518 0.9916
vn 0.1415 0.1518 0.9782
vn 0.1863 0.2415 0.9523
vn 0.2498 0.3148 0.9157
vn 0.3275 0.3666 0.8709
vn 0.4141 0.3934 0.8208
vn 0.5038 0.3934 0.7690
vn 0.5905 0.3666 0.7190
vn 0.6681 0.3148 0.6742
vn 0.7316 0.2415 0.6375
vn 0.7764 0.1518 0.6116
vn 0.7996 0.0518 0.5982
vn 0.7996 -0.0518 0.5982
vn 0.7764 -0.1518 0.6116
vn 0.7316 -0.2415 0.6375
vn 0.6681 -0.3148 0.6742
vn 0.5905 -0.3666 0.7190
vn 0.5038 -0.3934 0.7690
vn 0.4141 -0.3934 0.8208
vn 0.3275 -0.3666 0.8709
vn 0.2498 -0.3148 0.9157
vn 0.1863 -0.2415 0.9523
vn 0.1415 -0.1518 0.9782
vn 0.1183 -0.0518 0.9916
vn 0.5000 -0.0000 0.8660
s 0
g A_Lid.001_compass_brass
usemtl compass_brass
f 347//156 348//156 346//156
f 348//156 349//156 346//156
f 349//156 350//156 346//156
f 350//156 351//156 346//156
f 351//156 352//156 346//156
f 352//156 353//156 346//156
f 353//156 354//156 346//156
f 354//156 355//156 346//156
f 355//156 356//156 346//156
f 356//156 357//156 346//156
f 357//156 358//156 346//156
f 358//156 359//156 346//156
f 359//156 360//156 346//156
f 360//156 361//156 346//156
f 361//156 362//156 346//156
f 362//156 363//156 346//156
f 363//156 364//156 346//156
f 364//156 365//156 346//156
f 365//156 366//156 346//156
f 366//156 367//156 346//156
f 367//156 368//156 346//156
f 368//156 369//156 346//156
f 369//156 370//156 346//156
f 370//156 347//156 346//156
f 371//157 348//157 347//157
f 372//158 349//158 348//158
f 373//159 350//159 349//159
f 374//160 351//160 350//160
f 375//161 352//161 351//161
f 376//162 353//162 352//162
f 377//163 354//163 353//163
f 379//164 354//164 378//164
f 380//165 355//165 379//165
f 381//166 356//166 380//166
f 381//167 358//167 357//167
f 383//168 358//168 382//168
f 384//169 359//169 383//169
f 385//170 360//170 384//170
f 385//171 362//171 361//171
f 386//172 363//172 362//172
f 387//173 364//173 363//173
f 389//174 364//174 388//174
f 390//175 365//175 389//175
f 390//176 367//176 366//176
f 392//177 367//177 391//177
f 392//178 369//178 368//178
f 394//179 369//179 393//179
f 371//180 370//180 394//180
f 396//181 371//181 395//181
f 397//182 372//182 396//182
f 398//183 373//183 397//183
f 399//184 374//184 398//184
f 400//185 375//185 399//185
f 401//186 376//186 400//186
f 402//187 377//187 401//187
f 403//188 378//188 402//188
f 404//189 379//189 403//189
f 405//190 380//190 404//190
f 406//191 381//191 405//191
f 407//192 382//192 406//192
f 408//193 383//193 407//193
f 409//194 384//194 408//194
f 410//195 385//195 409//195
f 411//196 386//196 410//196
f 412//197 387//197 411//197
f 413//198 388//198 412//198
f 414//199 389//199 413//199
f 415//200 390//200 414//200
f 416//201 391//201 415//201
f 417//202 392//202 416//202
f 418//203 393//203 417//203
f 395//204 394//204 418//204
f 419//205 396//205 395//205
f 421//206 396//206 420//206
f 422//207 397//207 421//207
f 422//208 399//208 398//208
f 423//209 400//209 399//209
f 425//210 400//210 424//210
f 426//211 401//211 425//211
f 427//212 402//212 426//212
f 428//213 403//213 427//213
f 429//214 404//214 428//214
f 430//215 405//215 429//215
f 431//216 406//216 430//216
f 431//217 408//217 407//217
f 433//218 408//218 432//218
f 434//219 409//219 433//219
f 435//220 410//220 434//220
f 436//221 411//221 435//221
f 436//222 413//222 412//222
f 438//223 413//223 437//223
f 439//224 414//224 438//224
f 440//225 415//225 439//225
f 440//226 417//226 416//226
f 442//227 417//227 441//227
f 419//228 418//228 442//228
f 443//229 420//229 419//229
f 443//229 421//229 420//229
f 443//229 422//229 421//229
f 443//229 423//229 422//229
f 443//229 424//229 423//229
f 443//229 425//229 424//229
f 443//229 426//229 425//229
f 443//229 427//229 426//229
f 443//229 428//229 427//229
f 443//229 429//229 428//229
f 443//229 430//229 429//229
f 443//229 431//229 430//229
f 443//229 432//229 431//229
f 443//229 433//229 432//229
f 443//229 434//229 433//229
f 443//229 435//229 434//229
f 443//229 436//229 435//229
f 443//229 437//229 436//229
f 443//229 438//229 437//229
f 443//229 439//229 438//229
f 443//229 440//229 439//229
f 443//229 441//229 440//229
f 443//229 442//229 441//229
f 443//229 419//229 442//229
f 371//157 372//157 348//157
f 372//158 373//158 349//158
f 373//159 374//159 350//159
f 374//160 375//160 351//160
f 375//161 376//161 352//161
f 376//162 377//162 353//162
f 377//163 378//163 354//163
f 379//164 355//164 354//164
f 380//165 356//165 355//165
f 381//166 357//166 356//166
f 381//167 382//167 358//167
f 383//168 359//168 358//168
f 384//169 360//169 359//169
f 385//170 361//170 360//170
f 385//171 386//171 362//171
f 386//172 387//172 363//172
f 387//173 388//173 364//173
f 389//174 365//174 364//174
f 390//175 366//175 365//175
f 390//176 391//176 367//176
f 392//177 368//177 367//177
f 392//178 393//178 369//178
f 394//179 370//179 369//179
f 371//180 347//180 370//180
f 396//181 372//181 371//181
f 397//182 373//182 372//182
f 398//183 374//183 373//183
f 399//184 375//184 374//184
f 400//185 376//185 375//185
f 401//186 377//186 376//186
f 402//187 378//187 377//187
f 403//188 379//188 378//188
f 404//189 380//189 379//189
f 405//190 381//190 380//190
f 406//191 382//191 381//191
f 407//192 383//192 382//192
f 408//193 384//193 383//193
f 409//194 385//194 384//194
f 410//195 386//195 385//195
f 411//196 387//196 386//196
f 412//197 388//197 387//197
f 413//198 389//198 388//198
f 414//199 390//199 389//199
f 415//200 391//200 390//200
f 416//201 392//201 391//201
f 417//202 393//202 392//202
f 418//203 394//203 393//203
f 395//204 371//204 394//204
f 419//205 420//205 396//205
f 421//206 397//206 396//206
f 422//207 398//207 397//207
f 422//208 423//208 399//208
f 423//209 424//209 400//209
f 425//210 401//210 400//210
f 426//211 402//211 401//211
f 427//212 403//212 402//212
f 428//213 404//213 403//213
f 429//214 405//214 404//214
f 430//215 406//215 405//215
f 431//216 407//216 406//216
f 431//217 432//217 408//217
f 433//218 409//218 408//218
f 434//219 410//219 409//219
f 435//220 411//220 410//220
f 436//221 412//221 411//221
f 436//222 437//222 413//222
f 438//223 414//223 413//223
f 439//224 415//224 414//224
f 440//225 416//225 415//225
f 440//226 441//226 417//226
f 442//227 418//227 417//227
f 419//228 395//228 418//228
g A_NeedleN.001_A_NeedleN.001
v -0.309851 0.582745 0.100000
v 0.075051 0.039905 0.100000
v -0.075051 -0.039905 0.100000
v 0.000000 0.000000 0.135000
vn -0.0000 -0.0000 1.0000
vn -0.3128 -0.2218 -0.9236
vn 0.3588 0.1353 -0.9236
vn -0.4695 0.8829 -0.0000
s 0
g A_NeedleN.001_needle_red
usemtl needle_red
f 444//230 446//230 445//230
f 444//231 445//231 447//231
f 444//232 447//232 446//232
f 445//233 446//233 447//233
g A_NeedleS.001_A_NeedleS.001
v 0.309851 -0.582745 0.100000
v 0.075051 0.039905 0.100000
v -0.075051 -0.039905 0.100000
v 0.000000 0.000000 0.135000
vn -0.0000 -0.0000 1.0000
vn -0.3588 -0.1353 -0.9236
vn 0.3128 0.2218 -0.9236
vn 0.4695 -0.8829 -0.0000
s 0
g A_NeedleS.001_needle_steel
usemtl needle_steel
f 448//234 449//234 450//234
f 448//235 451//235 449//235
f 448//236 450//236 451//236
f 449//237 451//237 450//237
g A_PivotCap.001_A_PivotCap.001
v 0.000000 0.000000 0.130000
v 0.075000 0.000000 0.130000
v 0.060676 0.044084 0.130000
v 0.023176 0.071329 0.130000
v -0.023176 0.071329 0.130000
v -0.060676 0.044084 0.130000
v -0.075000 0.000000 0.130000
v -0.060676 -0.044084 0.130000
v -0.023176 -0.071329 0.130000
v 0.023176 -0.071329 0.130000
v 0.060676 -0.044084 0.130000
v 0.075000 0.000000 0.095000
v 0.060676 0.044084 0.095000
v 0.023176 0.071329 0.095000
v -0.023176 0.071329 0.095000
v -0.060676 0.044084 0.095000
v -0.075000 0.000000 0.095000
v -0.060676 -0.044084 0.095000
v -0.023176 -0.071329 0.095000
v 0.023176 -0.071329 0.095000
v 0.060676 -0.044084 0.095000
v 0.000000 0.000000 0.095000
vn -0.0000 -0.0000 1.0000
vn 0.9511 0.3090 -0.0000
vn 0.5878 0.8090 -0.0000
vn -0.0000 1.0000 -0.0000
vn -0.5878 0.8090 -0.0000
vn -0.9511 0.3090 -0.0000
vn -0.9511 -0.3090 -0.0000
vn -0.5878 -0.8090 -0.0000
vn -0.0000 -1.0000 -0.0000
vn 0.5878 -0.8090 -0.0000
vn 0.9511 -0.3090 -0.0000
vn -0.0000 -0.0000 -1.0000
s 0
g A_PivotCap.001_compass_brass
usemtl compass_brass
f 453//238 454//238 452//238
f 454//238 455//238 452//238
f 455//238 456//238 452//238
f 456//238 457//238 452//238
f 457//238 458//238 452//238
f 458//238 459//238 452//238
f 459//238 460//238 452//238
f 460//238 461//238 452//238
f 461//238 462//238 452//238
f 462//238 453//238 452//238
f 464//239 453//239 463//239
f 465//240 454//240 464//240
f 466//241 455//241 465//241
f 467//242 456//242 466//242
f 468//243 457//243 467//243
f 469//244 458//244 468//244
f 470//245 459//245 469//245
f 471//246 460//246 470//246
f 472//247 461//247 471//247
f 463//248 462//248 472//248
f 473//249 464//249 463//249
f 473//249 465//249 464//249
f 473//249 466//249 465//249
f 473//249 467//249 466//249
f 473//249 468//249 467//249
f 473//249 469//249 468//249
f 473//249 470//249 469//249
f 473//249 471//249 470//249
f 473//249 472//249 471//249
f 473//249 463//249 472//249
f 464//239 454//239 453//239
f 465//240 455//240 454//240
f 466//241 456//241 455//241
f 467//242 457//242 456//242
f 468//243 458//243 457//243
f 469//244 459//244 458//244
f 470//245 460//245 459//245
f 471//246 461//246 460//246
f 472//247 462//247 461//247
f 463//248 453//248 462//248
