# Blender 5.2.2 LTS
# www.blender.org
mtllib dry_ether.mtl
g A_Flask.001_A_Flask.001
v 0.000000 0.020000 0.000000
v 0.665000 0.019000 0.000000
v 0.614380 0.019000 -0.254484
v 0.470226 0.019000 -0.470226
v 0.254484 0.019000 -0.614380
v 0.000000 0.019000 -0.665000
v -0.254484 0.019000 -0.614380
v -0.470226 0.019000 -0.470226
v -0.614380 0.019000 -0.254484
v -0.665000 0.019000 -0.000000
v -0.614380 0.019000 0.254484
v -0.470226 0.019000 0.470226
v -0.254484 0.019000 0.614380
v -0.000000 0.019000 0.665000
v 0.254484 0.019000 0.614380
v 0.470226 0.019000 0.470226
v 0.614380 0.019000 0.254484
v 0.741000 0.133000 0.000000
v 0.684595 0.133000 -0.283568
v 0.523966 0.133000 -0.523966
v 0.283568 0.133000 -0.684595
v 0.000000 0.133000 -0.741000
v -0.283568 0.133000 -0.684595
v -0.523966 0.133000 -0.523966
v -0.684595 0.133000 -0.283568
v -0.741000 0.133000 -0.000000
v -0.684595 0.133000 0.283568
v -0.523966 0.133000 0.523966
v -0.283568 0.133000 0.684595
v -0.000000 0.133000 0.741000
v 0.283568 0.133000 0.684595
v 0.523966 0.133000 0.523966
v 0.684595 0.133000 0.283568
v 0.741000 0.760000 0.000000
v 0.523966 0.760000 -0.523966
v 0.283568 0.760000 -0.684595
v 0.000000 0.760000 -0.741000
v -0.283568 0.760000 -0.684595
v -0.523966 0.760000 -0.523966
v -0.741000 0.760000 -0.000000
v -0.684595 0.760000 0.283568
v -0.523966 0.760000 0.523966
v -0.283568 0.760000 0.684595
v -0.000000 0.760000 0.741000
v 0.283568 0.760000 0.684595
v 0.523966 0.760000 0.523966
v 0.684595 0.760000 0.283568
v 0.665000 0.950000 0.000000
v 0.254484 0.950000 -0.614380
v 0.000000 0.950000 -0.665000
v -0.254484 0.950000 -0.614380
v -0.665000 0.950000 -0.000000
v -0.614380 0.950000 0.254484
v -0.470226 0.950000 0.470226
v -0.254484 0.950000 0.614380
v -0.000000 0.950000 0.665000
v 0.254484 0.950000 0.614380
v 0.470226 0.950000 0.470226
v 0.614380 0.950000 0.254484
v 0.513000 1.026000 0.000000
v 0.196317 1.026000 -0.473950
v 0.000000 1.026000 -0.513000
v -0.196317 1.026000 -0.473950
v -0.513000 1.026000 -0.000000
v -0.473950 1.026000 0.196317
v -0.362746 1.026000 0.362746
v -0.196317 1.026000 0.473950
v -0.000000 1.026000 0.513000
v 0.196317 1.026000 0.473950
v 0.362746 1.026000 0.362746
v 0.473950 1.026000 0.196317
v 0.513000 1.140000 0.000000
v 0.196317 1.140000 -0.473950
v 0.000000 1.140000 -0.513000
v -0.196317 1.140000 -0.473950
v -0.513000 1.140000 -0.000000
v -0.473950 1.140000 0.196317
v -0.362746 1.140000 0.362746
v -0.196317 1.140000 0.473950
v -0.000000 1.140000 0.513000
v 0.196317 1.140000 0.473950
v 0.362746 1.140000 0.362746
v 0.473950 1.140000 0.196317
v 0.570000 1.159000 0.000000
v 0.218130 1.159000 -0.526611
v 0.000000 1.159000 -0.570000
v -0.218130 1.159000 -0.526611
v -0.570000 1.159000 -0.000000
v -0.526611 1.159000 0.218130
v -0.403051 1.159000 0.403051
v -0.218130 1.159000 0.526611
v -0.000000 1.159000 0.570000
v 0.218130 1.159000 0.526611
v 0.403051 1.159000 0.403051
v 0.526611 1.159000 0.218130
v 0.570000 1.235000 0.000000
v 0.218130 1.235000 -0.526611
v 0.000000 1.235000 -0.570000
v -0.218130 1.235000 -0.526611
v -0.570000 1.235000 -0.000000
v -0.526611 1.235000 0.218130
v -0.403051 1.235000 0.403051
v -0.218130 1.235000 0.526611
v -0.000000 1.235000 0.570000
v 0.218130 1.235000 0.526611
v 0.403051 1.235000 0.403051
v 0.526611 1.235000 0.218130
v 0.513000 1.254000 0.000000
v 0.196317 1.254000 -0.473950
v 0.000000 1.254000 -0.513000
v -0.196317 1.254000 -0.473950
v -0.513000 1.254000 -0.000000
v -0.473950 1.254000 0.196317
v -0.362746 1.254000 0.362746
v -0.196317 1.254000 0.473950
v -0.000000 1.254000 0.513000
v 0.196317 1.254000 0.473950
v 0.362746 1.254000 0.362746
v 0.473950 1.254000 0.196317
v 0.000000 0.070000 -0.000000
v 0.635500 0.068156 0.000000
v 0.587125 0.068156 -0.243195
v 0.449366 0.068156 -0.449366
v 0.243195 0.068156 -0.587125
v 0.000000 0.068156 -0.635500
v -0.243195 0.068156 -0.587125
v -0.449366 0.068156 -0.449366
v -0.587125 0.068156 -0.243195
v -0.635500 0.068156 -0.000000
v -0.587125 0.068156 0.243195
v -0.449366 0.068156 0.449366
v -0.243195 0.068156 0.587125
v -0.000000 0.068156 0.635500
v 0.243195 0.068156 0.587125
v 0.449366 0.068156 0.449366
v 0.587125 0.068156 0.243195
v 0.690017 0.147885 0.000000
v 0.637493 0.147885 -0.264058
v 0.487916 0.147885 -0.487916
v 0.264058 0.147885 -0.637493
v 0.000000 0.147885 -0.690017
v -0.264058 0.147885 -0.637493
v -0.487916 0.147885 -0.487916
v -0.637493 0.147885 -0.264058
v -0.690017 0.147885 -0.000000
v -0.637493 0.147885 0.264058
v -0.487916 0.147885 0.487916
v -0.264058 0.147885 0.637493
v -0.000000 0.147885 0.690017
v 0.264058 0.147885 0.637493
v 0.487916 0.147885 0.487916
v 0.637493 0.147885 0.264058
v 0.690046 0.750414 0.000000
v 0.487936 0.750414 -0.487936
v 0.264069 0.750414 -0.637519
v -0.000000 0.750414 -0.690046
v -0.264069 0.750414 -0.637519
v -0.487936 0.750414 -0.487936
v -0.690046 0.750414 -0.000000
v -0.637519 0.750414 0.264069
v -0.487936 0.750414 0.487936
v -0.264069 0.750414 0.637519
v 0.000000 0.750414 0.690046
v 0.264069 0.750414 0.637519
v 0.487936 0.750414 0.487936
v 0.637519 0.750414 0.264069
v 0.624164 0.914526 0.000000
v 0.238857 0.914526 -0.576652
v -0.000000 0.914526 -0.624164
v -0.238857 0.914526 -0.576652
v -0.624164 0.914526 -0.000000
v -0.576652 0.914526 0.238857
v -0.441350 0.914526 0.441350
v -0.238857 0.914526 0.576652
v 0.000000 0.914526 0.624164
v 0.238857 0.914526 0.576652
v 0.441350 0.914526 0.441350
v 0.576652 0.914526 0.238857
v 0.463457 0.992756 0.000000
v 0.177357 0.992756 -0.428178
v 0.000000 0.992756 -0.463457
v -0.177357 0.992756 -0.428178
v -0.463457 0.992756 -0.000000
v -0.428178 0.992756 0.177357
v -0.327713 0.992756 0.327713
v -0.177357 0.992756 0.428178
v -0.000000 0.992756 0.463457
v 0.177357 0.992756 0.428178
v 0.327713 0.992756 0.327713
v 0.428178 0.992756 0.177357
v 0.463958 1.178939 0.000000
v 0.177549 1.178939 -0.428641
v 0.000000 1.178939 -0.463958
v -0.177549 1.178939 -0.428641
v -0.463958 1.178939 -0.000000
v -0.428641 1.178939 0.177549
v -0.328068 1.178939 0.328068
v -0.177549 1.178939 0.428641
v -0.000000 1.178939 0.463958
v 0.177549 1.178939 0.428641
v 0.328068 1.178939 0.328068
v 0.428641 1.178939 0.177549
v 0.517950 1.193505 0.000000
v 0.198211 1.193505 -0.478523
v 0.000000 1.193505 -0.517950
v -0.198211 1.193505 -0.478523
v -0.517950 1.193505 -0.000000
v -0.478523 1.193505 0.198211
v -0.366246 1.193505 0.366246
v -0.198211 1.193505 0.478523
v -0.000000 1.193505 0.517950
v 0.198211 1.193505 0.478523
v 0.366246 1.193505 0.366246
v 0.478523 1.193505 0.198211
v 0.517950 1.200495 0.000000
v 0.198211 1.200495 -0.478523
v 0.000000 1.200495 -0.517950
v -0.198211 1.200495 -0.478523
v -0.517950 1.200495 -0.000000
v -0.478523 1.200495 0.198211
v -0.366246 1.200495 0.366246
v -0.198211 1.200495 0.478523
v -0.000000 1.200495 0.517950
v 0.198211 1.200495 0.478523
v 0.366246 1.200495 0.366246
v 0.478523 1.200495 0.198211
v 0.497157 1.206472 0.000000
v 0.190254 1.206472 -0.459314
v 0.000000 1.206472 -0.497157
v -0.190254 1.206472 -0.459314
v -0.497157 1.206472 -0.000000
v -0.459314 1.206472 0.190254
v -0.351543 1.206472 0.351543
v -0.190254 1.206472 0.459314
v -0.000000 1.206472 0.497157
v 0.190254 1.206472 0.459314
v 0.351543 1.206472 0.351543
v 0.459314 1.206472 0.190254
v 0.684595 0.685813 -0.283568
v 0.696970 0.760000 -0.221356
v 0.670316 0.654137 -0.304938
v 0.543453 0.760000 -0.494802
v 0.591173 0.654137 -0.423383
v 0.690024 0.796176 -0.183526
v 0.640890 0.950000 -0.121210
v 0.511847 0.802847 -0.511847
v 0.514829 0.796176 -0.512096
v 0.430028 0.950000 -0.497085
v 0.507540 1.026000 -0.027447
v 0.272610 1.026000 -0.422973
v 0.503051 1.140000 -0.050015
v 0.292810 1.140000 -0.409476
v 0.553432 1.159000 -0.083295
v 0.350158 1.159000 -0.438392
v 0.550439 1.235000 -0.098341
v 0.363625 1.235000 -0.429394
v 0.498562 1.254000 -0.072583
v 0.313010 1.254000 -0.395978
v 0.649665 0.750414 -0.203007
v 0.637516 0.677598 -0.264068
v 0.626940 0.654137 -0.279895
v 0.504402 0.750414 -0.463294
v 0.547797 0.654137 -0.398340
v 0.602863 0.914526 -0.107084
v 0.640820 0.796176 -0.155118
v 0.478747 0.782787 -0.478747
v 0.397640 0.914526 -0.470557
v 0.463606 0.796176 -0.482523
v 0.461791 0.992756 -0.008371
v 0.231580 0.992756 -0.391947
v 0.463181 1.026000 -0.001836
v 0.457528 1.178939 -0.032326
v 0.253264 1.178939 -0.378050
v 0.225774 1.026000 -0.395932
v 0.505384 1.193505 -0.063171
v 0.306978 1.193505 -0.405847
v 0.505109 1.200495 -0.064554
v 0.308217 1.200495 -0.405020
v 0.486223 1.206472 -0.054970
v 0.289584 1.206472 -0.392943
v -0.670316 0.654137 -0.304938
v -0.684595 0.685813 -0.283568
v -0.543453 0.760000 -0.494802
v -0.591174 0.654137 -0.423383
v -0.696970 0.760000 -0.221356
v -0.511847 0.802848 -0.511847
v -0.430028 0.950000 -0.497085
v -0.514829 0.796176 -0.512096
v -0.690024 0.796176 -0.183526
v -0.640890 0.950000 -0.121210
v -0.272610 1.026000 -0.422973
v -0.507540 1.026000 -0.027447
v -0.292810 1.140000 -0.409475
v -0.503051 1.140000 -0.050015
v -0.350158 1.159000 -0.438392
v -0.553432 1.159000 -0.083295
v -0.363625 1.235000 -0.429394
v -0.550439 1.235000 -0.098341
v -0.313010 1.254000 -0.395978
v -0.498562 1.254000 -0.072583
v -0.504402 0.750414 -0.463294
v -0.547797 0.654137 -0.398340
v -0.626940 0.654137 -0.279895
v -0.637516 0.677598 -0.264068
v -0.649665 0.750414 -0.203007
v -0.397640 0.914526 -0.470557
v -0.478747 0.782787 -0.478747
v -0.463606 0.796176 -0.482523
v -0.602863 0.914526 -0.107084
v -0.640820 0.796176 -0.155118
v -0.231580 0.992756 -0.391947
v -0.461791 0.992756 -0.008371
v -0.253264 1.178939 -0.378050
v -0.225775 1.026000 -0.395932
v -0.457528 1.178939 -0.032326
v -0.463181 1.026000 -0.001836
v -0.306978 1.193505 -0.405847
v -0.505385 1.193505 -0.063171
v -0.308217 1.200495 -0.405020
v -0.505109 1.200495 -0.064554
v -0.289584 1.206472 -0.392943
v -0.486223 1.206472 -0.054970
vn -0.0015 -1.0000 0.0003
vn -0.0013 -1.0000 0.0009
vn -0.0009 -1.0000 0.0013
vn -0.0003 -1.0000 0.0015
vn 0.0003 -1.0000 0.0015
vn 0.0009 -1.0000 0.0013
vn 0.0013 -1.0000 0.0009
vn 0.0015 -1.0000 0.0003
vn 0.0015 -1.0000 -0.0003
vn 0.0013 -1.0000 -0.0009
vn 0.0009 -1.0000 -0.0013
vn 0.0003 -1.0000 -0.0015
vn -0.0003 -1.0000 -0.0015
vn -0.0009 -1.0000 -0.0013
vn -0.0013 -1.0000 -0.0009
vn -0.0015 -1.0000 -0.0003
vn 0.8209 -0.5473 -0.1633
vn 0.6959 -0.5473 -0.4650
vn 0.4650 -0.5473 -0.6959
vn 0.1633 -0.5473 -0.8209
vn -0.1633 -0.5473 -0.8209
vn -0.4650 -0.5473 -0.6959
vn -0.6959 -0.5473 -0.4650
vn -0.8209 -0.5473 -0.1633
vn -0.8209 -0.5473 0.1633
vn -0.6959 -0.5473 0.4650
vn -0.4650 -0.5473 0.6959
vn -0.1633 -0.5473 0.8209
vn 0.1633 -0.5473 0.8209
vn 0.4650 -0.5473 0.6959
vn 0.6959 -0.5473 0.4650
vn 0.8209 -0.5473 0.1633
vn 0.9808 -0.0000 -0.1951
vn 0.8315 -0.0000 -0.5556
vn 0.5556 -0.0000 -0.8315
vn 0.1951 -0.0000 -0.9808
vn -0.1951 -0.0000 -0.9808
vn -0.5556 -0.0000 -0.8315
vn -0.8315 -0.0000 -0.5556
vn -0.9808 -0.0000 -0.1951
vn -0.9808 -0.0000 0.1951
vn -0.8315 -0.0000 0.5556
vn -0.5556 -0.0000 0.8315
vn -0.1951 -0.0000 0.9808
vn 0.1951 -0.0000 0.9808
vn 0.5556 -0.0000 0.8315
vn 0.8315 -0.0000 0.5556
vn 0.9808 -0.0000 0.1951
vn 0.9130 0.3652 -0.1816
vn 0.7740 0.3652 -0.5172
vn 0.5172 0.3652 -0.7740
vn 0.1816 0.3652 -0.9130
vn -0.1816 0.3652 -0.9130
vn -0.5172 0.3652 -0.7740
vn -0.7740 0.3652 -0.5172
vn -0.9130 0.3652 -0.1816
vn -0.9130 0.3652 0.1816
vn -0.7740 0.3652 0.5172
vn -0.5172 0.3652 0.7740
vn -0.1816 0.3652 0.9130
vn 0.1816 0.3652 0.9130
vn 0.5172 0.3652 0.7740
vn 0.7740 0.3652 0.5172
vn 0.9130 0.3652 0.1816
vn 0.4455 0.8909 -0.0886
vn 0.2523 0.8909 -0.3776
vn 0.0886 0.8909 -0.4455
vn -0.0886 0.8909 -0.4455
vn -0.2523 0.8909 -0.3776
vn -0.4455 0.8909 -0.0886
vn -0.4455 0.8909 0.0886
vn -0.3776 0.8909 0.2523
vn -0.2523 0.8909 0.3776
vn -0.0886 0.8909 0.4455
vn 0.0886 0.8909 0.4455
vn 0.2523 0.8909 0.3776
vn 0.3776 0.8909 0.2523
vn 0.4455 0.8909 0.0886
vn 0.3156 -0.9468 -0.0628
vn 0.1788 -0.9468 -0.2676
vn 0.0628 -0.9468 -0.3156
vn -0.0628 -0.9468 -0.3156
vn -0.1788 -0.9468 -0.2676
vn -0.3156 -0.9468 -0.0628
vn -0.3156 -0.9468 0.0628
vn -0.2676 -0.9468 0.1788
vn -0.1788 -0.9468 0.2676
vn -0.0628 -0.9468 0.3156
vn 0.0628 -0.9468 0.3156
vn 0.1788 -0.9468 0.2676
vn 0.2676 -0.9468 0.1788
vn 0.3156 -0.9468 0.0628
vn 0.3156 0.9468 -0.0628
vn 0.1788 0.9468 -0.2676
vn 0.0628 0.9468 -0.3156
vn -0.0628 0.9468 -0.3156
vn -0.1788 0.9468 -0.2676
vn -0.3156 0.9468 -0.0628
vn -0.3156 0.9468 0.0628
vn -0.2676 0.9468 0.1788
vn -0.1788 0.9468 0.2676
vn -0.0628 0.9468 0.3156
vn 0.0628 0.9468 0.3156
vn 0.1788 0.9468 0.2676
vn 0.2676 0.9468 0.1788
vn 0.3156 0.9468 0.0628
vn 0.0029 1.0000 -0.0006
vn 0.0025 1.0000 -0.0016
vn 0.0016 1.0000 -0.0025
vn 0.0006 1.0000 -0.0029
vn -0.0006 1.0000 -0.0029
vn -0.0016 1.0000 -0.0025
vn -0.0025 1.0000 -0.0016
vn -0.0029 1.0000 -0.0006
vn -0.0029 1.0000 0.0006
vn -0.0025 1.0000 0.0016
vn -0.0016 1.0000 0.0025
vn -0.0006 1.0000 0.0029
vn 0.0006 1.0000 0.0029
vn 0.0016 1.0000 0.0025
vn 0.0025 1.0000 0.0016
vn 0.0029 1.0000 0.0006
vn -0.8146 0.5570 0.1620
vn -0.6906 0.5570 0.4614
vn -0.4614 0.5570 0.6906
vn -0.1620 0.5570 0.8146
vn 0.1620 0.5570 0.8146
vn 0.4614 0.5570 0.6906
vn 0.6906 0.5570 0.4614
vn 0.8146 0.5570 0.1620
vn 0.8146 0.5570 -0.1620
vn 0.6906 0.5570 -0.4614
vn 0.4614 0.5570 -0.6906
vn 0.1620 0.5570 -0.8146
vn -0.1620 0.5570 -0.8146
vn -0.4614 0.5570 -0.6906
vn -0.6906 0.5570 -0.4614
vn -0.8146 0.5570 -0.1620
vn -0.9126 -0.3664 0.1815
vn -0.7737 -0.3664 0.5169
vn -0.5169 -0.3664 0.7737
vn -0.1815 -0.3664 0.9126
vn 0.1815 -0.3664 0.9126
vn 0.5169 -0.3664 0.7737
vn 0.7737 -0.3664 0.5169
vn 0.9126 -0.3664 0.1815
vn 0.9126 -0.3664 -0.1815
vn 0.7737 -0.3664 -0.5169
vn 0.5169 -0.3664 -0.7737
vn 0.1815 -0.3664 -0.9126
vn -0.1815 -0.3664 -0.9126
vn -0.5169 -0.3664 -0.7737
vn -0.7737 -0.3664 -0.5169
vn -0.9126 -0.3664 -0.1815
vn -0.4360 -0.8957 0.0867
vn -0.2470 -0.8957 0.3697
vn -0.0867 -0.8957 0.4360
vn 0.0867 -0.8957 0.4360
vn 0.2470 -0.8957 0.3697
vn 0.4360 -0.8957 0.0867
vn 0.4360 -0.8957 -0.0867
vn 0.3697 -0.8957 -0.2470
vn 0.2470 -0.8957 -0.3697
vn 0.0867 -0.8957 -0.4360
vn -0.0867 -0.8957 -0.4360
vn -0.2470 -0.8957 -0.3697
vn -0.3697 -0.8957 -0.2470
vn -0.4360 -0.8957 -0.0867
vn -0.9808 0.0026 0.1950
vn -0.5556 0.0026 0.8315
vn -0.1951 0.0026 0.9808
vn 0.1951 0.0026 0.9808
vn 0.5556 0.0026 0.8315
vn 0.9808 0.0026 0.1951
vn 0.9808 0.0026 -0.1951
vn 0.8315 0.0026 -0.5556
vn 0.5556 0.0026 -0.8315
vn 0.1951 0.0026 -0.9808
vn -0.1951 0.0026 -0.9808
vn -0.5556 0.0026 -0.8315
vn -0.8315 0.0026 -0.5556
vn -0.9808 0.0026 -0.1951
vn -0.2601 0.9642 0.0517
vn -0.1473 0.9642 0.2205
vn -0.0517 0.9642 0.2601
vn 0.0517 0.9642 0.2601
vn 0.1473 0.9642 0.2205
vn 0.2601 0.9642 0.0517
vn 0.2601 0.9642 -0.0517
vn 0.2205 0.9642 -0.1473
vn 0.1473 0.9642 -0.2205
vn 0.0517 0.9642 -0.2601
vn -0.0517 0.9642 -0.2601
vn -0.1473 0.9642 -0.2205
vn -0.2205 0.9642 -0.1473
vn -0.2601 0.9642 -0.0517
vn -0.2759 -0.9596 0.0549
vn -0.1563 -0.9596 0.2339
vn -0.0549 -0.9596 0.2759
vn 0.0549 -0.9596 0.2759
vn 0.1563 -0.9596 0.2339
vn 0.2759 -0.9596 0.0549
vn 0.2759 -0.9596 -0.0549
vn 0.2339 -0.9596 -0.1563
vn 0.1563 -0.9596 -0.2339
vn 0.0549 -0.9596 -0.2759
vn -0.0549 -0.9596 -0.2759
vn -0.1563 -0.9596 -0.2339
vn -0.2339 -0.9596 -0.1563
vn -0.2759 -0.9596 -0.0549
vn -0.9322 0.3107 0.1854
vn -0.5281 0.3107 0.7903
vn -0.1854 0.3107 0.9322
vn 0.1854 0.3107 0.9322
vn 0.5281 0.3107 0.7903
vn 0.9322 0.3107 0.1854
vn 0.9322 0.3107 -0.1854
vn 0.7903 0.3107 -0.5281
vn 0.5281 0.3107 -0.7903
vn 0.1854 0.3107 -0.9322
vn -0.1854 0.3107 -0.9322
vn -0.5281 0.3107 -0.7903
vn -0.7903 0.3107 -0.5281
vn -0.9322 0.3107 -0.1854
vn 0.4911 -0.1877 0.8506
vn -0.4911 -0.1877 -0.8506
vn -0.4911 0.1877 -0.8506
vn -0.3886 0.6293 -0.6731
vn -0.0000 1.0000 -0.0000
vn 0.3886 0.6293 0.6731
vn 0.4911 0.1877 0.8506
vn 0.4911 -0.1877 -0.8506
vn -0.4911 -0.1877 0.8506
vn -0.4911 0.1877 0.8506
vn -0.3886 0.6293 0.6731
vn 0.3886 0.6293 -0.6731
vn 0.4911 0.1877 -0.8506
vn -0.9808 0.0026 0.1951
vn -0.3886 0.6292 -0.6731
vn 0.3886 0.6292 0.6731
vn 0.4911 0.1878 0.8506
vn -0.3886 0.6292 0.6731
vn 0.3886 0.6292 -0.6731
s 0
g A_Flask.001_dry_ether_glass
usemtl dry_ether_glass
f 1//1 3//1 2//1
f 1//2 4//2 3//2
f 1//3 5//3 4//3
f 1//4 6//4 5//4
f 1//5 7//5 6//5
f 1//6 8//6 7//6
f 1//7 9//7 8//7
f 1//8 10//8 9//8
f 1//9 11//9 10//9
f 1//10 12//10 11//10
f 1//11 13//11 12//11
f 1//12 14//12 13//12
f 1//13 15//13 14//13
f 1//14 16//14 15//14
f 1//15 17//15 16//15
f 1//16 2//16 17//16
f 3//17 18//17 2//17
f 3//18 20//18 19//18
f 5//19 20//19 4//19
f 6//20 21//20 5//20
f 7//21 22//21 6//21
f 7//22 24//22 23//22
f 9//23 24//23 8//23
f 10//24 25//24 9//24
f 11//25 26//25 10//25
f 11//26 28//26 27//26
f 13//27 28//27 12//27
f 14//28 29//28 13//28
f 15//29 30//29 14//29
f 15//30 32//30 31//30
f 17//31 32//31 16//31
f 2//32 33//32 17//32
f 240//33 18//33 19//33
f 19//34 35//34 243//34
f 21//35 35//35 20//35
f 22//36 36//36 21//36
f 23//37 37//37 22//37
f 24//38 38//38 23//38
f 25//39 281//39 284//39
f 26//40 285//40 282//40
f 27//41 40//41 26//41
f 28//42 41//42 27//42
f 29//43 42//43 28//43
f 30//44 43//44 29//44
f 31//45 44//45 30//45
f 32//46 45//46 31//46
f 33//47 46//47 32//47
f 18//48 47//48 33//48
f 244//49 48//49 240//49
f 35//50 247//50 242//50
f 35//51 49//51 248//51
f 37//52 49//52 36//52
f 38//53 50//53 37//53
f 38//54 286//54 287//54
f 39//55 288//55 286//55
f 40//56 290//56 289//56
f 41//57 52//57 40//57
f 42//58 53//58 41//58
f 42//59 55//59 54//59
f 44//60 55//60 43//60
f 45//61 56//61 44//61
f 46//62 57//62 45//62
f 46//63 59//63 58//63
f 34//64 59//64 47//64
f 48//65 249//65 60//65
f 49//66 250//66 248//66
f 49//67 62//67 61//67
f 51//68 62//68 50//68
f 291//69 51//69 287//69
f 52//70 292//70 290//70
f 53//71 64//71 52//71
f 54//72 65//72 53//72
f 55//73 66//73 54//73
f 55//74 68//74 67//74
f 57//75 68//75 56//75
f 58//76 69//76 57//76
f 59//77 70//77 58//77
f 59//78 60//78 71//78
f 72//33 249//33 251//33
f 73//35 250//35 61//35
f 62//36 73//36 61//36
f 63//37 74//37 62//37
f 75//38 291//38 293//38
f 76//40 292//40 64//40
f 65//41 76//41 64//41
f 66//42 77//42 65//42
f 67//43 78//43 66//43
f 68//44 79//44 67//44
f 69//45 80//45 68//45
f 70//46 81//46 69//46
f 71//47 82//47 70//47
f 60//48 83//48 71//48
f 84//79 251//79 253//79
f 85//80 252//80 73//80
f 74//81 85//81 73//81
f 75//82 86//82 74//82
f 87//83 293//83 295//83
f 88//84 294//84 76//84
f 77//85 88//85 76//85
f 78//86 89//86 77//86
f 79//87 90//87 78//87
f 80//88 91//88 79//88
f 81//89 92//89 80//89
f 82//90 93//90 81//90
f 83//91 94//91 82//91
f 72//92 95//92 83//92
f 96//33 253//33 255//33
f 254//35 97//35 256//35
f 86//36 97//36 85//36
f 87//37 98//37 86//37
f 99//38 295//38 297//38
f 296//40 100//40 298//40
f 89//41 100//41 88//41
f 90//42 101//42 89//42
f 91//43 102//43 90//43
f 92//44 103//44 91//44
f 93//45 104//45 92//45
f 94//46 105//46 93//46
f 95//47 106//47 94//47
f 84//48 107//48 95//48
f 96//93 257//93 108//93
f 97//94 258//94 256//94
f 98//95 109//95 97//95
f 99//96 110//96 98//96
f 299//97 99//97 297//97
f 100//98 300//98 298//98
f 101//99 112//99 100//99
f 102//100 113//100 101//100
f 103//101 114//101 102//101
f 104//102 115//102 103//102
f 105//103 116//103 104//103
f 106//104 117//104 105//104
f 107//105 118//105 106//105
f 96//106 119//106 107//106
f 120//107 121//107 122//107
f 120//108 122//108 123//108
f 120//109 123//109 124//109
f 120//110 124//110 125//110
f 120//111 125//111 126//111
f 120//112 126//112 127//112
f 120//113 127//113 128//113
f 120//114 128//114 129//114
f 120//115 129//115 130//115
f 120//116 130//116 131//116
f 120//117 131//117 132//117
f 120//118 132//118 133//118
f 120//119 133//119 134//119
f 120//120 134//120 135//120
f 120//121 135//121 136//121
f 120//122 136//122 121//122
f 137//123 122//123 121//123
f 138//124 123//124 122//124
f 139//125 124//125 123//125
f 140//126 125//126 124//126
f 141//127 126//127 125//127
f 142//128 127//128 126//128
f 143//129 128//129 127//129
f 144//130 129//130 128//130
f 145//131 130//131 129//131
f 146//132 131//132 130//132
f 147//133 132//133 131//133
f 148//134 133//134 132//134
f 149//135 134//135 133//135
f 150//136 135//136 134//136
f 151//137 136//137 135//137
f 152//138 121//138 136//138
f 138//41 153//41 259//41
f 263//42 138//42 261//42
f 139//43 155//43 140//43
f 155//44 141//44 140//44
f 156//45 142//45 141//45
f 157//46 143//46 142//46
f 144//47 158//47 302//47
f 159//48 144//48 304//48
f 159//33 146//33 145//33
f 160//34 147//34 146//34
f 147//35 162//35 148//35
f 162//36 149//36 148//36
f 163//37 150//37 149//37
f 164//38 151//38 150//38
f 165//39 152//39 151//39
f 166//40 137//40 152//40
f 265//139 153//139 264//139
f 266//140 154//140 262//140
f 268//141 168//141 154//141
f 155//142 169//142 156//142
f 156//143 170//143 157//143
f 158//144 170//144 308//144
f 301//145 158//145 307//145
f 171//146 305//146 310//146
f 159//147 172//147 160//147
f 172//148 161//148 160//148
f 173//149 162//149 161//149
f 162//150 175//150 163//150
f 163//151 176//151 164//151
f 176//152 165//152 164//152
f 177//153 166//153 165//153
f 178//154 153//154 166//154
f 167//155 269//155 264//155
f 168//156 270//156 180//156
f 180//157 169//157 168//157
f 181//158 170//158 169//158
f 170//159 311//159 306//159
f 171//160 312//160 183//160
f 183//161 172//161 171//161
f 184//162 173//162 172//162
f 173//163 186//163 174//163
f 186//164 175//164 174//164
f 187//165 176//165 175//165
f 188//166 177//166 176//166
f 189//167 178//167 177//167
f 190//168 167//168 178//168
f 271//169 179//169 191//169
f 192//170 270//170 274//170
f 192//171 181//171 180//171
f 193//172 182//172 181//172
f 182//173 313//173 314//173
f 195//174 183//174 316//174
f 195//175 184//175 183//175
f 196//176 185//176 184//176
f 197//177 186//177 185//177
f 198//178 187//178 186//178
f 199//179 188//179 187//179
f 188//180 201//180 189//180
f 201//181 190//181 189//181
f 202//182 179//182 190//182
f 203//183 272//183 191//183
f 204//184 273//184 276//184
f 204//185 193//185 192//185
f 205//186 194//186 193//186
f 313//187 206//187 317//187
f 207//188 315//188 318//188
f 207//189 196//189 195//189
f 208//190 197//190 196//190
f 197//191 210//191 198//191
f 210//192 199//192 198//192
f 211//193 200//193 199//193
f 212//194 201//194 200//194
f 213//195 202//195 201//195
f 214//196 191//196 202//196
f 215//41 275//41 203//41
f 216//43 276//43 278//43
f 204//44 217//44 205//44
f 217//45 206//45 205//45
f 317//46 218//46 319//46
f 219//48 318//48 320//48
f 219//33 208//33 207//33
f 208//34 221//34 209//34
f 209//35 222//35 210//35
f 210//36 223//36 211//36
f 223//37 212//37 211//37
f 224//38 213//38 212//38
f 225//39 214//39 213//39
f 226//40 203//40 214//40
f 215//197 279//197 277//197
f 216//198 280//198 228//198
f 228//199 217//199 216//199
f 229//200 218//200 217//200
f 218//201 321//201 319//201
f 322//202 219//202 320//202
f 231//203 220//203 219//203
f 232//204 221//204 220//204
f 221//205 234//205 222//205
f 234//206 223//206 222//206
f 235//207 224//207 223//207
f 236//208 225//208 224//208
f 237//209 226//209 225//209
f 238//210 215//210 226//210
f 108//211 279//211 227//211
f 109//212 280//212 258//212
f 109//213 229//213 228//213
f 111//214 229//214 110//214
f 111//215 321//215 230//215
f 112//216 322//216 300//216
f 112//217 232//217 231//217
f 114//218 232//218 113//218
f 115//219 233//219 114//219
f 115//220 235//220 234//220
f 117//221 235//221 116//221
f 118//222 236//222 117//222
f 119//223 237//223 118//223
f 108//224 238//224 119//224
f 256//225 278//225 276//225
f 253//226 251//226 275//226
f 249//227 245//227 264//227
f 244//228 239//228 260//228
f 261//229 243//229 263//229
f 243//230 247//230 266//230
f 248//231 274//231 267//231
f 318//232 316//232 294//232
f 297//233 293//233 317//233
f 287//234 306//234 314//234
f 288//235 284//235 301//235
f 284//229 303//229 302//229
f 281//236 285//236 305//236
f 309//237 290//237 292//237
f 3//17 19//17 18//17
f 3//18 4//18 20//18
f 5//19 21//19 20//19
f 6//20 22//20 21//20
f 7//21 23//21 22//21
f 7//22 8//22 24//22
f 9//23 25//23 24//23
f 10//24 26//24 25//24
f 11//25 27//25 26//25
f 11//26 12//26 28//26
f 13//27 29//27 28//27
f 14//28 30//28 29//28
f 15//29 31//29 30//29
f 15//30 16//30 32//30
f 17//31 33//31 32//31
f 2//32 18//32 33//32
f 19//33 239//33 240//33
f 240//33 34//33 18//33
f 241//34 239//34 19//34
f 19//34 20//34 35//34
f 35//34 242//34 243//34
f 243//34 241//34 19//34
f 21//35 36//35 35//35
f 22//36 37//36 36//36
f 23//37 38//37 37//37
f 24//38 39//38 38//38
f 284//39 283//39 39//39
f 39//39 24//39 25//39
f 25//39 282//39 281//39
f 284//39 39//39 25//39
f 282//40 25//40 26//40
f 26//40 40//40 285//40
f 27//41 41//41 40//41
f 28//42 42//42 41//42
f 29//43 43//43 42//43
f 30//44 44//44 43//44
f 31//45 45//45 44//45
f 32//46 46//46 45//46
f 33//47 47//47 46//47
f 18//48 34//48 47//48
f 244//49 245//49 48//49
f 48//49 34//49 240//49
f 35//50 246//50 247//50
f 248//51 246//51 35//51
f 35//51 36//51 49//51
f 37//52 50//52 49//52
f 38//53 51//53 50//53
f 287//54 51//54 38//54
f 38//54 39//54 286//54
f 39//55 283//55 288//55
f 289//56 285//56 40//56
f 40//56 52//56 290//56
f 41//57 53//57 52//57
f 42//58 54//58 53//58
f 42//59 43//59 55//59
f 44//60 56//60 55//60
f 45//61 57//61 56//61
f 46//62 58//62 57//62
f 46//63 47//63 59//63
f 34//64 48//64 59//64
f 48//65 245//65 249//65
f 49//66 61//66 250//66
f 49//67 50//67 62//67
f 51//68 63//68 62//68
f 291//69 63//69 51//69
f 52//70 64//70 292//70
f 53//71 65//71 64//71
f 54//72 66//72 65//72
f 55//73 67//73 66//73
f 55//74 56//74 68//74
f 57//75 69//75 68//75
f 58//76 70//76 69//76
f 59//77 71//77 70//77
f 59//78 48//78 60//78
f 72//33 60//33 249//33
f 73//35 252//35 250//35
f 62//36 74//36 73//36
f 63//37 75//37 74//37
f 75//38 63//38 291//38
f 76//40 294//40 292//40
f 65//41 77//41 76//41
f 66//42 78//42 77//42
f 67//43 79//43 78//43
f 68//44 80//44 79//44
f 69//45 81//45 80//45
f 70//46 82//46 81//46
f 71//47 83//47 82//47
f 60//48 72//48 83//48
f 84//79 72//79 251//79
f 85//80 254//80 252//80
f 74//81 86//81 85//81
f 75//82 87//82 86//82
f 87//83 75//83 293//83
f 88//84 296//84 294//84
f 77//85 89//85 88//85
f 78//86 90//86 89//86
f 79//87 91//87 90//87
f 80//88 92//88 91//88
f 81//89 93//89 92//89
f 82//90 94//90 93//90
f 83//91 95//91 94//91
f 72//92 84//92 95//92
f 96//33 84//33 253//33
f 254//35 85//35 97//35
f 86//36 98//36 97//36
f 87//37 99//37 98//37
f 99//38 87//38 295//38
f 296//40 88//40 100//40
f 89//41 101//41 100//41
f 90//42 102//42 101//42
f 91//43 103//43 102//43
f 92//44 104//44 103//44
f 93//45 105//45 104//45
f 94//46 106//46 105//46
f 95//47 107//47 106//47
f 84//48 96//48 107//48
f 96//93 255//93 257//93
f 97//94 109//94 258//94
f 98//95 110//95 109//95
f 99//96 111//96 110//96
f 299//97 111//97 99//97
f 100//98 112//98 300//98
f 101//99 113//99 112//99
f 102//100 114//100 113//100
f 103//101 115//101 114//101
f 104//102 116//102 115//102
f 105//103 117//103 116//103
f 106//104 118//104 117//104
f 107//105 119//105 118//105
f 96//106 108//106 119//106
f 137//123 138//123 122//123
f 138//124 139//124 123//124
f 139//125 140//125 124//125
f 140//126 141//126 125//126
f 141//127 142//127 126//127
f 142//128 143//128 127//128
f 143//129 144//129 128//129
f 144//130 145//130 129//130
f 145//131 146//131 130//131
f 146//132 147//132 131//132
f 147//133 148//133 132//133
f 148//134 149//134 133//134
f 149//135 150//135 134//135
f 150//136 151//136 135//136
f 151//137 152//137 136//137
f 152//138 137//138 121//138
f 259//41 260//41 138//41
f 138//41 137//41 153//41
f 263//42 262//42 154//42
f 154//42 139//42 138//42
f 138//42 260//42 261//42
f 263//42 154//42 138//42
f 139//43 154//43 155//43
f 155//44 156//44 141//44
f 156//45 157//45 142//45
f 157//46 158//46 143//46
f 303//47 304//47 144//47
f 144//47 143//47 158//47
f 158//47 301//47 302//47
f 302//47 303//47 144//47
f 304//48 305//48 159//48
f 159//48 145//48 144//48
f 159//33 160//33 146//33
f 160//34 161//34 147//34
f 147//35 161//35 162//35
f 162//36 163//36 149//36
f 163//37 164//37 150//37
f 164//38 165//38 151//38
f 165//39 166//39 152//39
f 166//40 153//40 137//40
f 265//139 259//139 153//139
f 153//139 167//139 264//139
f 268//141 267//141 168//141
f 168//141 155//141 154//141
f 154//141 266//141 268//141
f 155//142 168//142 169//142
f 156//143 169//143 170//143
f 308//144 307//144 158//144
f 158//144 157//144 170//144
f 170//144 306//144 308//144
f 310//146 309//146 171//146
f 171//146 159//146 305//146
f 159//147 171//147 172//147
f 172//148 173//148 161//148
f 173//149 174//149 162//149
f 162//150 174//150 175//150
f 163//151 175//151 176//151
f 176//152 177//152 165//152
f 177//153 178//153 166//153
f 178//154 167//154 153//154
f 167//155 179//155 269//155
f 168//156 267//156 270//156
f 180//157 181//157 169//157
f 181//158 182//158 170//158
f 170//159 182//159 311//159
f 171//160 309//160 312//160
f 183//161 184//161 172//161
f 184//162 185//162 173//162
f 173//163 185//163 186//163
f 186//164 187//164 175//164
f 187//165 188//165 176//165
f 188//166 189//166 177//166
f 189//167 190//167 178//167
f 190//168 179//168 167//168
f 271//238 269//238 179//238
f 191//238 272//238 271//238
f 274//170 273//170 192//170
f 192//170 180//170 270//170
f 192//171 193//171 181//171
f 193//172 194//172 182//172
f 314//173 311//173 182//173
f 182//173 194//173 313//173
f 183//174 312//174 316//174
f 316//174 315//174 195//174
f 195//175 196//175 184//175
f 196//176 197//176 185//176
f 197//177 198//177 186//177
f 198//178 199//178 187//178
f 199//179 200//179 188//179
f 188//180 200//180 201//180
f 201//181 202//181 190//181
f 202//182 191//182 179//182
f 203//183 275//183 272//183
f 204//184 192//184 273//184
f 204//185 205//185 193//185
f 205//186 206//186 194//186
f 313//187 194//187 206//187
f 207//188 195//188 315//188
f 207//189 208//189 196//189
f 208//190 209//190 197//190
f 197//191 209//191 210//191
f 210//192 211//192 199//192
f 211//193 212//193 200//193
f 212//194 213//194 201//194
f 213//195 214//195 202//195
f 214//196 203//196 191//196
f 215//41 277//41 275//41
f 216//43 204//43 276//43
f 204//44 216//44 217//44
f 217//45 218//45 206//45
f 317//46 206//46 218//46
f 219//48 207//48 318//48
f 219//33 220//33 208//33
f 208//34 220//34 221//34
f 209//35 221//35 222//35
f 210//36 222//36 223//36
f 223//37 224//37 212//37
f 224//38 225//38 213//38
f 225//39 226//39 214//39
f 226//40 215//40 203//40
f 215//197 227//197 279//197
f 216//198 278//198 280//198
f 228//199 229//199 217//199
f 229//200 230//200 218//200
f 218//201 230//201 321//201
f 322//202 231//202 219//202
f 231//203 232//203 220//203
f 232//204 233//204 221//204
f 221//205 233//205 234//205
f 234//206 235//206 223//206
f 235//207 236//207 224//207
f 236//208 237//208 225//208
f 237//209 238//209 226//209
f 238//210 227//210 215//210
f 108//211 257//211 279//211
f 109//212 228//212 280//212
f 109//213 110//213 229//213
f 111//214 230//214 229//214
f 111//215 299//215 321//215
f 112//216 231//216 322//216
f 112//217 113//217 232//217
f 114//218 233//218 232//218
f 115//219 234//219 233//219
f 115//220 116//220 235//220
f 117//221 236//221 235//221
f 118//222 237//222 236//222
f 119//223 238//223 237//223
f 108//224 227//224 238//224
f 273//225 274//225 250//225
f 252//225 254//225 256//225
f 273//225 250//225 252//225
f 276//225 273//225 252//225
f 256//225 258//225 280//225
f 256//225 280//225 278//225
f 276//225 252//225 256//225
f 277//226 279//226 257//226
f 257//226 255//226 253//226
f 251//226 249//226 271//226
f 277//226 257//226 253//226
f 271//226 272//226 275//226
f 275//226 277//226 253//226
f 251//226 271//226 275//226
f 269//227 271//227 249//227
f 245//227 244//227 265//227
f 264//227 269//227 249//227
f 245//227 265//227 264//227
f 259//228 265//228 244//228
f 244//228 240//228 239//228
f 239//228 241//228 261//228
f 260//239 259//239 244//239
f 239//228 261//228 260//228
f 261//229 241//229 243//229
f 262//230 263//230 243//230
f 243//230 242//230 247//230
f 247//240 268//240 266//240
f 266//230 262//230 243//230
f 267//231 268//231 247//231
f 247//241 246//241 248//241
f 248//231 250//231 274//231
f 274//231 270//231 267//231
f 267//231 247//231 248//231
f 300//232 322//232 320//232
f 318//232 315//232 316//232
f 298//232 300//232 320//232
f 298//232 320//232 318//232
f 294//232 296//232 298//232
f 316//232 292//232 294//232
f 294//232 298//232 318//232
f 321//233 299//233 297//233
f 297//233 295//233 293//233
f 293//233 291//233 314//233
f 314//233 313//233 317//233
f 319//233 321//233 297//233
f 293//233 314//233 317//233
f 317//233 319//233 297//233
f 314//234 291//234 287//234
f 287//234 286//234 288//234
f 288//234 308//234 306//234
f 306//234 311//234 314//234
f 287//234 288//234 306//234
f 307//235 308//235 288//235
f 288//242 283//242 284//242
f 284//235 302//235 301//235
f 301//235 307//235 288//235
f 284//229 281//229 303//229
f 304//236 303//236 281//236
f 281//243 282//243 285//243
f 285//236 289//236 310//236
f 305//236 304//236 281//236
f 285//236 310//236 305//236
f 292//237 316//237 312//237
f 309//237 310//237 289//237
f 292//237 312//237 309//237
f 309//237 289//237 290//237
g A_Liquid.001_A_Liquid.001
v 0.000000 0.140000 0.000000
v 0.631000 0.133000 0.000000
v 0.582968 0.133000 -0.241473
v 0.446184 0.133000 -0.446184
v 0.241473 0.133000 -0.582968
v 0.000000 0.133000 -0.631000
v -0.241473 0.133000 -0.582968
v -0.446184 0.133000 -0.446184
v -0.582968 0.133000 -0.241473
v -0.631000 0.133000 -0.000000
v -0.582968 0.133000 0.241473
v -0.446184 0.133000 0.446184
v -0.241473 0.133000 0.582968
v -0.000000 0.133000 0.631000
v 0.241473 0.133000 0.582968
v 0.446184 0.133000 0.446184
v 0.582968 0.133000 0.241473
v 0.631000 0.760000 0.000000
v 0.582968 0.760000 -0.241473
v 0.446184 0.760000 -0.446184
v 0.241473 0.760000 -0.582968
v 0.000000 0.760000 -0.631000
v -0.241473 0.760000 -0.582968
v -0.446184 0.760000 -0.446184
v -0.582968 0.760000 -0.241473
v -0.631000 0.760000 -0.000000
v -0.582968 0.760000 0.241473
v -0.446184 0.760000 0.446184
v -0.241473 0.760000 0.582968
v -0.000000 0.760000 0.631000
v 0.241473 0.760000 0.582968
v 0.446184 0.760000 0.446184
v 0.582968 0.760000 0.241473
v 0.441700 0.917800 0.000000
v 0.408078 0.917800 -0.169031
v 0.312329 0.917800 -0.312329
v 0.169031 0.917800 -0.408078
v 0.000000 0.917800 -0.441700
v -0.169031 0.917800 -0.408078
v -0.312329 0.917800 -0.312329
v -0.408078 0.917800 -0.169031
v -0.441700 0.917800 -0.000000
v -0.408078 0.917800 0.169031
v -0.312329 0.917800 0.312329
v -0.169031 0.917800 0.408078
v -0.000000 0.917800 0.441700
v 0.169031 0.917800 0.408078
v 0.312329 0.917800 0.312329
v 0.408078 0.917800 0.169031
v 0.000000 0.947800 0.000000
vn -0.0111 -0.9999 0.0022
vn -0.0094 -0.9999 0.0063
vn -0.0063 -0.9999 0.0094
vn -0.0022 -0.9999 0.0111
vn 0.0022 -0.9999 0.0111
vn 0.0063 -0.9999 0.0094
vn 0.0094 -0.9999 0.0063
vn 0.0111 -0.9999 0.0022
vn 0.0111 -0.9999 -0.0022
vn 0.0094 -0.9999 -0.0063
vn 0.0063 -0.9999 -0.0094
vn 0.0022 -0.9999 -0.0111
vn -0.0022 -0.9999 -0.0111
vn -0.0063 -0.9999 -0.0094
vn -0.0094 -0.9999 -0.0063
vn -0.0111 -0.9999 -0.0022
vn 0.9808 -0.0000 -0.1951
vn 0.8315 -0.0000 -0.5556
vn 0.5556 -0.0000 -0.8315
vn 0.1951 -0.0000 -0.9808
vn -0.1951 -0.0000 -0.9808
vn -0.5556 -0.0000 -0.8315
vn -0.8315 -0.0000 -0.5556
vn -0.9808 -0.0000 -0.1951
vn -0.9808 -0.0000 0.1951
vn -0.8315 -0.0000 0.5556
vn -0.5556 -0.0000 0.8315
vn -0.1951 -0.0000 0.9808
vn 0.1951 -0.0000 0.9808
vn 0.5556 -0.0000 0.8315
vn 0.8315 -0.0000 0.5556
vn 0.9808 -0.0000 0.1951
vn 0.6352 0.7620 -0.1263
vn 0.5385 0.7620 -0.3598
vn 0.3598 0.7620 -0.5385
vn 0.1263 0.7620 -0.6352
vn -0.1263 0.7620 -0.6352
vn -0.3598 0.7620 -0.5385
vn -0.5385 0.7620 -0.3598
vn -0.6352 0.7620 -0.1263
vn -0.6352 0.7620 0.1263
vn -0.5385 0.7620 0.3598
vn -0.3598 0.7620 0.5385
vn -0.1263 0.7620 0.6352
vn 0.1263 0.7620 0.6352
vn 0.3598 0.7620 0.5385
vn 0.5385 0.7620 0.3598
vn 0.6352 0.7620 0.1263
vn 0.0678 0.9976 -0.0135
vn 0.0574 0.9976 -0.0384
vn 0.0384 0.9976 -0.0574
vn 0.0135 0.9976 -0.0678
vn -0.0135 0.9976 -0.0678
vn -0.0384 0.9976 -0.0574
vn -0.0574 0.9976 -0.0384
vn -0.0678 0.9976 -0.0135
vn -0.0678 0.9976 0.0135
vn -0.0574 0.9976 0.0384
vn -0.0384 0.9976 0.0574
vn -0.0135 0.9976 0.0678
vn 0.0135 0.9976 0.0678
vn 0.0384 0.9976 0.0574
vn 0.0574 0.9976 0.0384
vn 0.0678 0.9976 0.0135
s 0
g A_Liquid.001_dry_ether_liquid
usemtl dry_ether_liquid
f 323//244 325//244 324//244
f 323//245 326//245 325//245
f 323//246 327//246 326//246
f 323//247 328//247 327//247
f 323//248 329//248 328//248
f 323//249 330//249 329//249
f 323//250 331//250 330//250
f 323//251 332//251 331//251
f 323//252 333//252 332//252
f 323//253 334//253 333//253
f 323//254 335//254 334//254
f 323//255 336//255 335//255
f 323//256 337//256 336//256
f 323//257 338//257 337//257
f 323//258 339//258 338//258
f 323//259 324//259 339//259
f 325//260 340//260 324//260
f 326//261 341//261 325//261
f 327//262 342//262 326//262
f 328//263 343//263 327//263
f 329//264 344//264 328//264
f 330//265 345//265 329//265
f 331//266 346//266 330//266
f 332//267 347//267 331//267
f 333//268 348//268 332//268
f 334//269 349//269 333//269
f 335//270 350//270 334//270
f 336//271 351//271 335//271
f 337//272 352//272 336//272
f 338//273 353//273 337//273
f 339//274 354//274 338//274
f 324//275 355//275 339//275
f 341//276 356//276 340//276
f 342//277 357//277 341//277
f 342//278 359//278 358//278
f 344//279 359//279 343//279
f 345//280 360//280 344//280
f 346//281 361//281 345//281
f 346//282 363//282 362//282
f 348//283 363//283 347//283
f 349//284 364//284 348//284
f 350//285 365//285 349//285
f 350//286 367//286 366//286
f 352//287 367//287 351//287
f 353//288 368//288 352//288
f 354//289 369//289 353//289
f 354//290 371//290 370//290
f 340//291 371//291 355//291
f 356//292 357//292 372//292
f 357//293 358//293 372//293
f 358//294 359//294 372//294
f 359//295 360//295 372//295
f 360//296 361//296 372//296
f 361//297 362//297 372//297
f 362//298 363//298 372//298
f 363//299 364//299 372//299
f 364//300 365//300 372//300
f 365//301 366//301 372//301
f 366//302 367//302 372//302
f 367//303 368//303 372//303
f 368//304 369//304 372//304
f 369//305 370//305 372//305
f 370//306 371//306 372//306
f 371//307 356//307 372//307
f 325//260 341//260 340//260
f 326//261 342//261 341//261
f 327//262 343//262 342//262
f 328//263 344//263 343//263
f 329//264 345//264 344//264
f 330//265 346//265 345//265
f 331//266 347//266 346//266
f 332//267 348//267 347//267
f 333//268 349//268 348//268
f 334//269 350//269 349//269
f 335//270 351//270 350//270
f 336//271 352//271 351//271
f 337//272 353//272 352//272
f 338//273 354//273 353//273
f 339//274 355//274 354//274
f 324//275 340//275 355//275
f 341//276 357//276 356//276
f 342//277 358//277 357//277
f 342//278 343//278 359//278
f 344//279 360//279 359//279
f 345//280 361//280 360//280
f 346//281 362//281 361//281
f 346//282 347//282 363//282
f 348//283 364//283 363//283
f 349//284 365//284 364//284
f 350//285 366//285 365//285
f 350//286 351//286 367//286
f 352//287 368//287 367//287
f 353//288 369//288 368//288
f 354//289 370//289 369//289
f 354//290 355//290 371//290
f 340//291 356//291 371//291
g C_Label.001_C_Label.001
v -0.340000 0.586000 0.758950
v 0.340000 0.586000 0.758950
v 0.340000 0.986000 0.758950
v -0.340000 0.986000 0.758950
v -0.340000 0.586000 0.728950
v 0.340000 0.586000 0.728950
v 0.340000 0.986000 0.728950
v -0.340000 0.986000 0.728950
vn -0.0000 -0.0000 1.0000
vn -0.0000 -0.0000 -1.0000
vn -1.0000 -0.0000 -0.0000
vn -0.0000 -1.0000 -0.0000
vn 1.0000 -0.0000 -0.0000
vn -0.0000 1.0000 -0.0000
vt 1.000000 0.000000
vt 0.000000 1.000000
vt 0.000000 0.000000
vt 1.000000 1.000000
s 0
g C_Label.001_dry_ether_label
usemtl dry_ether_label
f 374/1/308 376/2/308 373/3/308
f 380/2/309 378/1/309 377/3/309
f 376/2/310 377/3/310 373/3/310
f 373/3/311 378/1/311 374/1/311
f 374/1/312 379/4/312 375/4/312
f 375/4/313 380/2/313 376/2/313
f 374/1/308 375/4/308 376/2/308
f 380/2/309 379/4/309 378/1/309
f 376/2/310 380/2/310 377/3/310
f 373/3/311 377/3/311 378/1/311
f 374/1/312 378/1/312 379/4/312
f 375/4/313 379/4/313 380/2/313
g S_Cork.001_S_Cork.001
v 0.000000 1.194000 0.000000
v 0.114000 1.194000 0.000000
v 0.080610 1.194000 -0.080610
v 0.000000 1.194000 -0.114000
v -0.080610 1.194000 -0.080610
v -0.114000 1.194000 -0.000000
v -0.080610 1.194000 0.080610
v -0.000000 1.194000 0.114000
v 0.080610 1.194000 0.080610
v 0.152000 1.403000 0.000000
v 0.107480 1.403000 -0.107480
v 0.000000 1.403000 -0.152000
v -0.107480 1.403000 -0.107480
v -0.152000 1.403000 -0.000000
v -0.107480 1.403000 0.107480
v -0.000000 1.403000 0.152000
v 0.107480 1.403000 0.107480
v 0.152000 1.517000 0.000000
v 0.107480 1.517000 -0.107480
v 0.000000 1.517000 -0.152000
v -0.107480 1.517000 -0.107480
v -0.152000 1.517000 -0.000000
v -0.107480 1.517000 0.107480
v -0.000000 1.517000 0.152000
v 0.107480 1.517000 0.107480
v 0.000000 1.517000 0.000000
vn -0.0000 -1.0000 -0.0000
vn 0.9111 -0.1657 -0.3774
vn 0.3774 -0.1657 -0.9111
vn -0.3774 -0.1657 -0.9111
vn -0.9111 -0.1657 -0.3774
vn -0.9111 -0.1657 0.3774
vn -0.3774 -0.1657 0.9111
vn 0.3774 -0.1657 0.9111
vn 0.9111 -0.1657 0.3774
vn 0.9239 -0.0000 -0.3827
vn 0.3827 -0.0000 -0.9239
vn -0.3827 -0.0000 -0.9239
vn -0.9239 -0.0000 -0.3827
vn -0.9239 -0.0000 0.3827
vn -0.3827 -0.0000 0.9239
vn 0.3827 -0.0000 0.9239
vn 0.9239 -0.0000 0.3827
vn -0.0000 1.0000 -0.0000
s 0
g S_Cork.001_dry_ether_cork
usemtl dry_ether_cork
f 381//314 383//314 382//314
f 381//314 384//314 383//314
f 381//314 385//314 384//314
f 381//314 386//314 385//314
f 381//314 387//314 386//314
f 381//314 388//314 387//314
f 381//314 389//314 388//314
f 381//314 382//314 389//314
f 383//315 390//315 382//315
f 384//316 391//316 383//316
f 385//317 392//317 384//317
f 386//318 393//318 385//318
f 387//319 394//319 386//319
f 388//320 395//320 387//320
f 389//321 396//321 388//321
f 382//322 397//322 389//322
f 391//323 398//323 390//323
f 392//324 399//324 391//324
f 393//325 400//325 392//325
f 394//326 401//326 393//326
f 395//327 402//327 394//327
f 396//328 403//328 395//328
f 397//329 404//329 396//329
f 390//330 405//330 397//330
f 398//331 399//331 406//331
f 399//331 400//331 406//331
f 400//331 401//331 406//331
f 401//331 402//331 406//331
f 402//331 403//331 406//331
f 403//331 404//331 406//331
f 404//331 405//331 406//331
f 405//331 398//331 406//331
f 383//315 391//315 390//315
f 384//316 392//316 391//316
f 385//317 393//317 392//317
f 386//318 394//318 393//318
f 387//319 395//319 394//319
f 388//320 396//320 395//320
f 389//321 397//321 396//321
f 382//322 390//322 397//322
f 391//323 399//323 398//323
f 392//324 400//324 399//324
f 393//325 401//325 400//325
f 394//326 402//326 401//326
f 395//327 403//327 402//327
f 396//328 404//328 403//328
f 397//329 405//329 404//329
f 390//330 398//330 405//330
