# Blender 5.2.2 LTS
# www.blender.org
mtllib elixir.mtl
g A_Flask.001_A_Flask.001
v 0.000000 0.040000 0.000000
v 0.575000 0.023000 0.000000
v 0.406586 0.023000 -0.406586
v 0.000000 0.023000 -0.575000
v -0.406586 0.023000 -0.406586
v -0.575000 0.023000 -0.000000
v -0.406586 0.023000 0.406586
v -0.000000 0.023000 0.575000
v 0.406586 0.023000 0.406586
v 0.667000 0.161000 0.000000
v 0.471640 0.161000 -0.471640
v 0.000000 0.161000 -0.667000
v -0.471640 0.161000 -0.471640
v -0.667000 0.161000 -0.000000
v -0.471640 0.161000 0.471640
v -0.000000 0.161000 0.667000
v 0.471640 0.161000 0.471640
v 0.417955 1.512707 0.010920
v 0.713000 0.805000 0.000000
v -0.417955 1.512707 0.010920
v 0.504167 0.805000 -0.504167
v 0.000000 0.805000 -0.713000
v -0.504167 0.805000 -0.504167
v -0.713000 0.805000 -0.000000
v -0.504167 0.805000 0.504167
v -0.000000 0.805000 0.713000
v 0.504167 0.805000 0.504167
v 0.575000 1.322500 0.000000
v 0.406586 1.322500 -0.406586
v 0.000000 1.322500 -0.575000
v -0.406586 1.322500 -0.406586
v -0.575000 1.322500 -0.000000
v -0.406586 1.322500 0.406586
v -0.000000 1.322500 0.575000
v 0.406586 1.322500 0.406586
v 0.253000 1.782500 0.000000
v 0.178898 1.782500 -0.178898
v 0.000000 1.782500 -0.253000
v -0.178898 1.782500 -0.178898
v -0.253000 1.782500 -0.000000
v -0.178898 1.782500 0.178898
v -0.000000 1.782500 0.253000
v 0.178898 1.782500 0.178898
v 0.207000 2.242500 0.000000
v 0.146371 2.242500 -0.146371
v 0.000000 2.242500 -0.207000
v -0.146371 2.242500 -0.146371
v -0.207000 2.242500 -0.000000
v -0.146371 2.242500 0.146371
v -0.000000 2.242500 0.207000
v 0.146371 2.242500 0.146371
v 0.345000 2.357500 0.000000
v 0.243952 2.357500 -0.243952
v 0.000000 2.357500 -0.345000
v -0.243952 2.357500 -0.243952
v -0.345000 2.357500 -0.000000
v -0.243952 2.357500 0.243952
v -0.000000 2.357500 0.345000
v 0.243952 2.357500 0.243952
v 0.345000 2.461000 0.000000
v 0.243952 2.461000 -0.243952
v 0.000000 2.461000 -0.345000
v -0.243952 2.461000 -0.243952
v -0.345000 2.461000 -0.000000
v -0.243952 2.461000 0.243952
v -0.000000 2.461000 0.345000
v 0.243952 2.461000 0.243952
v 0.230000 2.495500 0.000000
v 0.162635 2.495500 -0.162635
v 0.000000 2.495500 -0.230000
v -0.162635 2.495500 -0.162635
v -0.230000 2.495500 -0.000000
v -0.162635 2.495500 0.162635
v -0.000000 2.495500 0.230000
v 0.162635 2.495500 0.162635
v -0.000000 0.090026 -0.000000
v 0.542663 0.072921 0.000000
v 0.383721 0.072921 -0.383721
v 0.000000 0.072921 -0.542663
v -0.383721 0.072921 -0.383721
v -0.542663 0.072921 -0.000000
v -0.383721 0.072921 0.383721
v -0.000000 0.072921 0.542663
v 0.383721 0.072921 0.383721
v 0.614344 0.177930 0.000000
v 0.434406 0.177930 -0.434406
v 0.000000 0.177930 -0.614344
v -0.434406 0.177930 -0.434406
v -0.614344 0.177930 -0.000000
v -0.434406 0.177930 0.434406
v -0.000000 0.177930 0.614344
v 0.434406 0.177930 0.434406
v 0.658499 0.800024 0.000000
v 0.465629 0.800024 -0.465629
v 0.000000 0.800024 -0.658499
v -0.465629 0.800024 -0.465629
v -0.658499 0.800024 -0.000000
v -0.465629 0.800024 0.465629
v -0.000000 0.800024 0.658499
v 0.465629 0.800024 0.465629
v 0.525548 1.300496 0.000000
v 0.371619 1.300496 -0.371619
v 0.000000 1.300496 -0.525548
v -0.371619 1.300496 -0.371619
v -0.525548 1.300496 -0.000000
v -0.371619 1.300496 0.371619
v -0.000000 1.300496 0.525548
v 0.371619 1.300496 0.371619
v 0.201578 1.762040 0.000000
v 0.142537 1.762040 -0.142537
v 0.000000 1.762040 -0.201578
v -0.142537 1.762040 -0.142537
v -0.201578 1.762040 -0.000000
v -0.142537 1.762040 0.142537
v -0.000000 1.762040 0.201578
v 0.142537 1.762040 0.142537
v 0.152408 2.268173 0.000000
v 0.107769 2.268173 -0.107769
v 0.000000 2.268173 -0.152408
v -0.107769 2.268173 -0.107769
v -0.152408 2.268173 -0.000000
v -0.107769 2.268173 0.107769
v -0.000000 2.268173 0.152408
v 0.107769 2.268173 0.107769
v 0.291143 2.380231 0.000000
v 0.205869 2.380231 -0.205869
v 0.000000 2.380231 -0.291143
v -0.205869 2.380231 -0.205869
v -0.291143 2.380231 -0.000000
v -0.205869 2.380231 0.205869
v -0.000000 2.380231 0.291143
v 0.205869 2.380231 0.205869
v 0.289695 2.425916 0.000000
v 0.204845 2.425916 -0.204845
v 0.000000 2.425916 -0.289695
v -0.204845 2.425916 -0.204845
v -0.289695 2.425916 -0.000000
v -0.204845 2.425916 0.204845
v -0.000000 2.425916 0.289695
v 0.204845 2.425916 0.204845
v 0.215531 2.447271 0.000000
v 0.152403 2.447271 -0.152404
v 0.000000 2.447271 -0.215531
v -0.152403 2.447271 -0.152404
v -0.215531 2.447271 -0.000000
v -0.152403 2.447271 0.152404
v -0.000000 2.447271 0.215531
v 0.152403 2.447271 0.152404
v 0.482978 1.345965 -0.182506
v 0.364431 1.407667 -0.364431
v 0.418569 1.345965 -0.338003
v 0.260976 1.616677 -0.260976
v 0.438630 1.517314 0.000000
v 0.440893 1.512707 -0.002323
v 0.411651 1.555856 0.000000
v 0.202215 1.506052 -0.362754
v 0.420098 1.535130 0.014631
v 0.399686 1.467577 -0.020724
v 0.430570 1.345965 -0.152248
v 0.326857 1.390681 -0.326857
v 0.366161 1.345965 -0.307745
v 0.260976 1.523414 -0.260976
v 0.223596 1.453235 -0.325720
v -0.260976 1.616677 -0.260976
v -0.364431 1.407667 -0.364431
v -0.202215 1.506052 -0.362754
v -0.440893 1.512707 -0.002323
v -0.438630 1.517314 -0.000000
v -0.411651 1.555856 -0.000000
v -0.418569 1.345965 -0.338003
v -0.482978 1.345965 -0.182506
v -0.420098 1.535130 0.014632
v -0.223596 1.453235 -0.325720
v -0.326857 1.390681 -0.326857
v -0.260976 1.523414 -0.260976
v -0.399686 1.467577 -0.020724
v -0.430570 1.345965 -0.152247
v -0.366161 1.345965 -0.307745
vn -0.0296 -0.9995 0.0122
vn -0.0122 -0.9995 0.0296
vn 0.0122 -0.9995 0.0296
vn 0.0296 -0.9995 0.0122
vn 0.0296 -0.9995 -0.0122
vn 0.0122 -0.9995 -0.0296
vn -0.0122 -0.9995 -0.0296
vn -0.0296 -0.9995 -0.0122
vn 0.7866 -0.5244 -0.3258
vn 0.3258 -0.5244 -0.7866
vn -0.3258 -0.5244 -0.7866
vn -0.7866 -0.5244 -0.3258
vn -0.7866 -0.5244 0.3258
vn -0.3258 -0.5244 0.7866
vn 0.3258 -0.5244 0.7866
vn 0.7866 -0.5244 0.3258
vn 0.9219 -0.0658 -0.3819
vn 0.3819 -0.0658 -0.9219
vn -0.3819 -0.0658 -0.9219
vn -0.9219 -0.0658 -0.3819
vn -0.9219 -0.0658 0.3819
vn -0.3819 -0.0658 0.9219
vn 0.3819 -0.0658 0.9219
vn 0.9219 -0.0658 0.3819
vn 0.8971 0.2392 -0.3716
vn 0.3716 0.2392 -0.8971
vn -0.3716 0.2392 -0.8971
vn -0.8971 0.2392 -0.3716
vn -0.8971 0.2392 0.3716
vn -0.3716 0.2392 0.8971
vn 0.3716 0.2392 0.8971
vn 0.8971 0.2392 0.3716
vn 0.7758 0.5430 -0.3213
vn 0.3213 0.5430 -0.7758
vn -0.3213 0.5430 -0.7758
vn -0.7758 0.5430 -0.3213
vn -0.7758 0.5430 0.3213
vn -0.3213 0.5430 0.7758
vn 0.3213 0.5430 0.7758
vn 0.7758 0.5430 0.3213
vn 0.9200 0.0920 -0.3811
vn 0.3811 0.0920 -0.9200
vn -0.3811 0.0920 -0.9200
vn -0.9200 0.0920 -0.3811
vn -0.9200 0.0920 0.3811
vn -0.3811 0.0920 0.9200
vn 0.3811 0.0920 0.9200
vn 0.9200 0.0920 0.3811
vn 0.6188 -0.7426 -0.2563
vn 0.2563 -0.7426 -0.6188
vn -0.2563 -0.7426 -0.6188
vn -0.6188 -0.7426 -0.2563
vn -0.6188 -0.7426 0.2563
vn -0.2563 -0.7426 0.6188
vn 0.2563 -0.7426 0.6188
vn 0.6188 -0.7426 0.2563
vn 0.9239 -0.0000 -0.3827
vn 0.3827 -0.0000 -0.9239
vn -0.3827 -0.0000 -0.9239
vn -0.9239 -0.0000 -0.3827
vn -0.9239 -0.0000 0.3827
vn -0.3827 -0.0000 0.9239
vn 0.3827 -0.0000 0.9239
vn 0.9239 -0.0000 0.3827
vn 0.2853 0.9511 -0.1182
vn 0.1182 0.9511 -0.2853
vn -0.1182 0.9511 -0.2853
vn -0.2853 0.9511 -0.1182
vn -0.2853 0.9511 0.1182
vn -0.1182 0.9511 0.2853
vn 0.1182 0.9511 0.2853
vn 0.2853 0.9511 0.1182
vn 0.0315 0.9994 -0.0130
vn 0.0130 0.9994 -0.0315
vn -0.0130 0.9994 -0.0315
vn -0.0315 0.9994 -0.0130
vn -0.0315 0.9994 0.0130
vn -0.0130 0.9994 0.0315
vn 0.0130 0.9994 0.0315
vn 0.0315 0.9994 0.0130
vn -0.7815 0.5334 0.3237
vn -0.3237 0.5334 0.7815
vn 0.3237 0.5334 0.7815
vn 0.7815 0.5334 0.3237
vn 0.7815 0.5334 -0.3237
vn 0.3237 0.5334 -0.7815
vn -0.3237 0.5334 -0.7815
vn -0.7815 0.5334 -0.3237
vn -0.9219 0.0654 0.3819
vn -0.3819 0.0654 0.9219
vn 0.3819 0.0654 0.9219
vn 0.9219 0.0654 0.3819
vn 0.9219 0.0654 -0.3819
vn 0.3819 0.0654 -0.9219
vn -0.3819 0.0654 -0.9219
vn -0.9219 0.0654 -0.3819
vn -0.8973 -0.2384 0.3717
vn -0.3717 -0.2384 0.8973
vn 0.3717 -0.2384 0.8973
vn 0.8973 -0.2384 0.3717
vn 0.8973 -0.2384 -0.3717
vn 0.3717 -0.2384 -0.8973
vn -0.3717 -0.2384 -0.8973
vn -0.8973 -0.2384 -0.3717
vn -0.7752 -0.5441 0.3211
vn -0.3211 -0.5441 0.7752
vn 0.3211 -0.5441 0.7752
vn 0.7752 -0.5441 0.3211
vn 0.7752 -0.5441 -0.3211
vn 0.3211 -0.5441 -0.7752
vn -0.3211 -0.5441 -0.7752
vn -0.7752 -0.5441 -0.3211
vn -0.9202 -0.0894 0.3812
vn -0.3812 -0.0894 0.9202
vn 0.3812 -0.0894 0.9202
vn 0.9202 -0.0894 0.3812
vn 0.9202 -0.0894 -0.3812
vn 0.3812 -0.0894 -0.9202
vn -0.3812 -0.0894 -0.9202
vn -0.9202 -0.0894 -0.3812
vn -0.6081 0.7529 0.2519
vn -0.2519 0.7529 0.6081
vn 0.2519 0.7529 0.6081
vn 0.6081 0.7529 0.2519
vn 0.6081 0.7529 -0.2519
vn 0.2519 0.7529 -0.6081
vn -0.2519 0.7529 -0.6081
vn -0.6081 0.7529 -0.2519
vn -0.9235 -0.0293 0.3825
vn -0.3825 -0.0293 0.9235
vn 0.3825 -0.0293 0.9235
vn 0.9235 -0.0293 0.3825
vn 0.9235 -0.0293 -0.3825
vn 0.3825 -0.0293 -0.9235
vn -0.3825 -0.0293 -0.9235
vn -0.9235 -0.0293 -0.3825
vn -0.2749 -0.9547 0.1139
vn -0.1139 -0.9547 0.2749
vn 0.1139 -0.9547 0.2749
vn 0.2749 -0.9547 0.1139
vn 0.2749 -0.9547 -0.1139
vn 0.1139 -0.9547 -0.2749
vn -0.1139 -0.9547 -0.2749
vn -0.2749 -0.9547 -0.1139
vn -0.8903 0.2671 0.3688
vn -0.3688 0.2671 0.8903
vn 0.3688 0.2671 0.8903
vn 0.8903 0.2671 0.3688
vn 0.8903 0.2671 -0.3688
vn 0.3688 0.2671 -0.8903
vn -0.3688 0.2671 -0.8903
vn -0.8903 0.2671 -0.3688
vn -0.4911 0.1877 -0.8506
vn -0.3886 0.6293 -0.6731
vn -0.0000 1.0000 -0.0000
vn 0.3886 0.6293 0.6731
vn 0.8660 -0.0000 -0.5000
vn -0.3886 0.6293 0.6731
vn 0.3886 0.6293 -0.6731
vn 0.4911 0.1877 -0.8506
vn -0.8660 -0.0000 -0.5000
vn -0.7758 0.5430 -0.3214
vn -0.7758 0.5431 0.3213
vn -0.3886 0.6292 -0.6731
vn 0.3886 0.6292 0.6731
vn -0.3886 0.6292 0.6731
vn 0.3886 0.6292 -0.6731
s 0
g A_Flask.001_elixir_glass
usemtl elixir_glass
f 1//1 3//1 2//1
f 1//2 4//2 3//2
f 1//3 5//3 4//3
f 1//4 6//4 5//4
f 1//5 7//5 6//5
f 1//6 8//6 7//6
f 1//7 9//7 8//7
f 1//8 2//8 9//8
f 3//9 10//9 2//9
f 4//10 11//10 3//10
f 5//11 12//11 4//11
f 6//12 13//12 5//12
f 7//13 14//13 6//13
f 8//14 15//14 7//14
f 9//15 16//15 8//15
f 2//16 17//16 9//16
f 11//17 19//17 10//17
f 12//18 21//18 11//18
f 13//19 22//19 12//19
f 14//20 23//20 13//20
f 15//21 24//21 14//21
f 16//22 25//22 15//22
f 17//23 26//23 16//23
f 10//24 27//24 17//24
f 21//25 28//25 19//25
f 22//26 29//26 21//26
f 23//27 30//27 22//27
f 24//28 31//28 23//28
f 25//29 32//29 24//29
f 26//30 33//30 25//30
f 27//31 34//31 26//31
f 19//32 35//32 27//32
f 36//33 152//33 37//33
f 28//33 29//33 149//33
f 30//34 37//34 156//34
f 30//35 165//35 166//35
f 40//36 164//36 169//36
f 31//36 32//36 170//36
f 33//37 40//37 172//37
f 34//38 41//38 33//38
f 35//39 42//39 34//39
f 157//40 35//40 153//40
f 37//41 44//41 36//41
f 38//42 45//42 37//42
f 39//43 46//43 38//43
f 40//44 47//44 39//44
f 41//45 48//45 40//45
f 42//46 49//46 41//46
f 43//47 50//47 42//47
f 36//48 51//48 43//48
f 45//49 52//49 44//49
f 46//50 53//50 45//50
f 47//51 54//51 46//51
f 48//52 55//52 47//52
f 49//53 56//53 48//53
f 50//54 57//54 49//54
f 51//55 58//55 50//55
f 44//56 59//56 51//56
f 53//57 60//57 52//57
f 54//58 61//58 53//58
f 55//59 62//59 54//59
f 56//60 63//60 55//60
f 57//61 64//61 56//61
f 58//62 65//62 57//62
f 59//63 66//63 58//63
f 52//64 67//64 59//64
f 61//65 68//65 60//65
f 62//66 69//66 61//66
f 63//67 70//67 62//67
f 64//68 71//68 63//68
f 65//69 72//69 64//69
f 66//70 73//70 65//70
f 67//71 74//71 66//71
f 60//72 75//72 67//72
f 76//73 77//73 78//73
f 76//74 78//74 79//74
f 76//75 79//75 80//75
f 76//76 80//76 81//76
f 76//77 81//77 82//77
f 76//78 82//78 83//78
f 76//79 83//79 84//79
f 76//80 84//80 77//80
f 85//81 78//81 77//81
f 78//82 87//82 79//82
f 87//83 80//83 79//83
f 88//84 81//84 80//84
f 89//85 82//85 81//85
f 82//86 91//86 83//86
f 91//87 84//87 83//87
f 92//88 77//88 84//88
f 93//89 86//89 85//89
f 86//90 95//90 87//90
f 87//91 96//91 88//91
f 96//92 89//92 88//92
f 97//93 90//93 89//93
f 90//94 99//94 91//94
f 91//95 100//95 92//95
f 100//96 85//96 92//96
f 93//97 102//97 94//97
f 102//98 95//98 94//98
f 103//99 96//99 95//99
f 104//100 97//100 96//100
f 97//101 106//101 98//101
f 106//102 99//102 98//102
f 107//103 100//103 99//103
f 108//104 93//104 100//104
f 101//105 158//105 159//105
f 103//106 160//106 163//106
f 103//107 112//107 173//107
f 105//108 177//108 176//108
f 113//109 106//109 105//109
f 114//110 107//110 106//110
f 115//111 108//111 107//111
f 116//112 101//112 108//112
f 117//113 110//113 109//113
f 118//114 111//114 110//114
f 119//115 112//115 111//115
f 120//116 113//116 112//116
f 121//117 114//117 113//117
f 122//118 115//118 114//118
f 123//119 116//119 115//119
f 124//120 109//120 116//120
f 125//121 118//121 117//121
f 118//122 127//122 119//122
f 127//123 120//123 119//123
f 128//124 121//124 120//124
f 129//125 122//125 121//125
f 122//126 131//126 123//126
f 131//127 124//127 123//127
f 132//128 117//128 124//128
f 133//129 126//129 125//129
f 134//130 127//130 126//130
f 135//131 128//131 127//131
f 128//132 137//132 129//132
f 137//133 130//133 129//133
f 138//134 131//134 130//134
f 139//135 132//135 131//135
f 132//136 133//136 125//136
f 141//137 134//137 133//137
f 134//138 143//138 135//138
f 143//139 136//139 135//139
f 144//140 137//140 136//140
f 145//141 138//141 137//141
f 138//142 147//142 139//142
f 147//143 140//143 139//143
f 148//144 133//144 140//144
f 69//145 141//145 68//145
f 70//146 142//146 69//146
f 70//147 144//147 143//147
f 72//148 144//148 71//148
f 73//149 145//149 72//149
f 74//150 146//150 73//150
f 74//151 148//151 147//151
f 68//152 148//152 75//152
f 153//153 18//153 157//153
f 18//154 149//154 159//154
f 149//155 161//155 159//155
f 151//156 156//156 160//156
f 162//157 152//157 157//157
f 166//158 170//158 174//158
f 178//155 171//155 177//155
f 171//159 20//159 176//159
f 20//160 168//160 172//160
f 169//161 164//161 175//161
f 3//9 11//9 10//9
f 4//10 12//10 11//10
f 5//11 13//11 12//11
f 6//12 14//12 13//12
f 7//13 15//13 14//13
f 8//14 16//14 15//14
f 9//15 17//15 16//15
f 2//16 10//16 17//16
f 11//17 21//17 19//17
f 12//18 22//18 21//18
f 13//19 23//19 22//19
f 14//20 24//20 23//20
f 15//21 25//21 24//21
f 16//22 26//22 25//22
f 17//23 27//23 26//23
f 10//24 19//24 27//24
f 21//25 29//25 28//25
f 22//26 30//26 29//26
f 23//27 31//27 30//27
f 24//28 32//28 31//28
f 25//29 33//29 32//29
f 26//30 34//30 33//30
f 27//31 35//31 34//31
f 19//32 28//32 35//32
f 36//33 155//33 152//33
f 154//33 153//33 28//33
f 29//33 150//33 151//33
f 149//33 154//33 28//33
f 29//33 151//33 149//33
f 156//34 150//34 29//34
f 30//34 38//34 37//34
f 37//34 152//34 156//34
f 156//34 29//34 30//34
f 166//35 164//35 39//35
f 39//35 38//35 30//35
f 30//35 31//35 165//35
f 166//35 39//35 30//35
f 40//36 39//36 164//36
f 32//162 168//162 167//162
f 32//36 167//36 171//36
f 170//36 165//36 31//36
f 32//36 171//36 170//36
f 168//37 32//37 33//37
f 33//37 41//37 40//37
f 40//37 169//37 172//37
f 172//163 168//163 33//163
f 34//38 42//38 41//38
f 35//39 43//39 42//39
f 157//40 155//40 36//40
f 36//40 43//40 35//40
f 35//40 28//40 153//40
f 157//40 36//40 35//40
f 37//41 45//41 44//41
f 38//42 46//42 45//42
f 39//43 47//43 46//43
f 40//44 48//44 47//44
f 41//45 49//45 48//45
f 42//46 50//46 49//46
f 43//47 51//47 50//47
f 36//48 44//48 51//48
f 45//49 53//49 52//49
f 46//50 54//50 53//50
f 47//51 55//51 54//51
f 48//52 56//52 55//52
f 49//53 57//53 56//53
f 50//54 58//54 57//54
f 51//55 59//55 58//55
f 44//56 52//56 59//56
f 53//57 61//57 60//57
f 54//58 62//58 61//58
f 55//59 63//59 62//59
f 56//60 64//60 63//60
f 57//61 65//61 64//61
f 58//62 66//62 65//62
f 59//63 67//63 66//63
f 52//64 60//64 67//64
f 61//65 69//65 68//65
f 62//66 70//66 69//66
f 63//67 71//67 70//67
f 64//68 72//68 71//68
f 65//69 73//69 72//69
f 66//70 74//70 73//70
f 67//71 75//71 74//71
f 60//72 68//72 75//72
f 85//81 86//81 78//81
f 78//82 86//82 87//82
f 87//83 88//83 80//83
f 88//84 89//84 81//84
f 89//85 90//85 82//85
f 82//86 90//86 91//86
f 91//87 92//87 84//87
f 92//88 85//88 77//88
f 93//89 94//89 86//89
f 86//90 94//90 95//90
f 87//91 95//91 96//91
f 96//92 97//92 89//92
f 97//93 98//93 90//93
f 90//94 98//94 99//94
f 91//95 99//95 100//95
f 100//96 93//96 85//96
f 93//97 101//97 102//97
f 102//98 103//98 95//98
f 103//99 104//99 96//99
f 104//100 105//100 97//100
f 97//101 105//101 106//101
f 106//102 107//102 99//102
f 107//103 108//103 100//103
f 108//104 101//104 93//104
f 161//105 160//105 102//105
f 109//105 110//105 162//105
f 109//105 162//105 158//105
f 161//105 102//105 101//105
f 159//105 161//105 101//105
f 101//105 109//105 158//105
f 163//106 162//106 110//106
f 110//106 111//106 103//106
f 103//106 102//106 160//106
f 163//106 110//106 103//106
f 173//107 174//107 104//107
f 103//107 111//107 112//107
f 112//107 175//107 173//107
f 173//107 104//107 103//107
f 175//108 112//108 113//108
f 104//108 174//108 178//108
f 104//108 178//108 177//108
f 176//108 175//108 113//108
f 105//108 104//108 177//108
f 176//108 113//108 105//108
f 113//109 114//109 106//109
f 114//110 115//110 107//110
f 115//111 116//111 108//111
f 116//112 109//112 101//112
f 117//113 118//113 110//113
f 118//114 119//114 111//114
f 119//115 120//115 112//115
f 120//116 121//116 113//116
f 121//117 122//117 114//117
f 122//118 123//118 115//118
f 123//119 124//119 116//119
f 124//120 117//120 109//120
f 125//121 126//121 118//121
f 118//122 126//122 127//122
f 127//123 128//123 120//123
f 128//124 129//124 121//124
f 129//125 130//125 122//125
f 122//126 130//126 131//126
f 131//127 132//127 124//127
f 132//128 125//128 117//128
f 133//129 134//129 126//129
f 134//130 135//130 127//130
f 135//131 136//131 128//131
f 128//132 136//132 137//132
f 137//133 138//133 130//133
f 138//134 139//134 131//134
f 139//135 140//135 132//135
f 132//136 140//136 133//136
f 141//137 142//137 134//137
f 134//138 142//138 143//138
f 143//139 144//139 136//139
f 144//140 145//140 137//140
f 145//141 146//141 138//141
f 138//142 146//142 147//142
f 147//143 148//143 140//143
f 148//144 141//144 133//144
f 69//145 142//145 141//145
f 70//146 143//146 142//146
f 70//147 71//147 144//147
f 72//148 145//148 144//148
f 73//149 146//149 145//149
f 74//150 147//150 146//150
f 74//151 75//151 148//151
f 68//152 141//152 148//152
f 153//153 154//153 18//153
f 159//164 158//164 18//164
f 18//154 154//154 149//154
f 149//155 151//155 161//155
f 160//165 161//165 151//165
f 151//156 150//156 156//156
f 156//156 163//156 160//156
f 162//157 163//157 156//157
f 152//157 155//157 157//157
f 157//157 18//157 158//157
f 162//157 156//157 152//157
f 157//157 158//157 162//157
f 174//166 173//166 166//166
f 166//158 165//158 170//158
f 170//158 178//158 174//158
f 178//155 170//155 171//155
f 176//159 177//159 171//159
f 171//167 167//167 20//167
f 20//160 167//160 168//160
f 175//161 176//161 20//161
f 20//161 172//161 169//161
f 164//161 166//161 173//161
f 175//161 20//161 169//161
f 164//161 173//161 175//161
g A_Liquid.001_A_Liquid.001
v 0.000000 0.140000 0.000000
v 0.557000 0.161000 0.000000
v 0.393858 0.161000 -0.393858
v 0.000000 0.161000 -0.557000
v -0.393858 0.161000 -0.393858
v -0.557000 0.161000 -0.000000
v -0.393858 0.161000 0.393858
v -0.000000 0.161000 0.557000
v 0.393858 0.161000 0.393858
v 0.603000 0.805000 0.000000
v 0.426385 0.805000 -0.426385
v 0.000000 0.805000 -0.603000
v -0.426385 0.805000 -0.426385
v -0.603000 0.805000 -0.000000
v -0.426385 0.805000 0.426385
v -0.000000 0.805000 0.603000
v 0.426385 0.805000 0.426385
v 0.465000 1.322500 0.000000
v 0.328805 1.322500 -0.328805
v 0.000000 1.322500 -0.465000
v -0.328805 1.322500 -0.328805
v -0.465000 1.322500 -0.000000
v -0.328805 1.322500 0.328805
v -0.000000 1.322500 0.465000
v 0.328805 1.322500 0.328805
v 0.325500 1.587210 0.000000
v 0.230163 1.587210 -0.230163
v 0.000000 1.587210 -0.325500
v -0.230163 1.587210 -0.230163
v -0.325500 1.587210 -0.000000
v -0.230163 1.587210 0.230163
v -0.000000 1.587210 0.325500
v 0.230163 1.587210 0.230163
v 0.000000 1.617210 0.000000
vn 0.0377 -0.9992 -0.0156
vn 0.0156 -0.9992 -0.0377
vn -0.0156 -0.9992 -0.0377
vn -0.0377 -0.9992 -0.0156
vn -0.0377 -0.9992 0.0156
vn -0.0156 -0.9992 0.0377
vn 0.0156 -0.9992 0.0377
vn 0.0377 -0.9992 0.0156
vn 0.9219 -0.0658 -0.3819
vn 0.3819 -0.0658 -0.9219
vn -0.3819 -0.0658 -0.9219
vn -0.9219 -0.0658 -0.3819
vn -0.9219 -0.0658 0.3819
vn -0.3819 -0.0658 0.9219
vn 0.3819 -0.0658 0.9219
vn 0.9219 -0.0658 0.3819
vn 0.8971 0.2392 -0.3716
vn 0.3716 0.2392 -0.8971
vn -0.3716 0.2392 -0.8971
vn -0.8971 0.2392 -0.3716
vn -0.8971 0.2392 0.3716
vn -0.3716 0.2392 0.8971
vn 0.3716 0.2392 0.8971
vn 0.8971 0.2392 0.3716
vn 0.8307 0.4377 -0.3441
vn 0.3441 0.4377 -0.8307
vn -0.3441 0.4377 -0.8307
vn -0.8307 0.4377 -0.3441
vn -0.8307 0.4377 0.3441
vn -0.3441 0.4377 0.8307
vn 0.3441 0.4377 0.8307
vn 0.8307 0.4377 0.3441
vn 0.0917 0.9951 -0.0380
vn 0.0380 0.9951 -0.0917
vn -0.0380 0.9951 -0.0917
vn -0.0917 0.9951 -0.0380
vn -0.0917 0.9951 0.0380
vn -0.0380 0.9951 0.0917
vn 0.0380 0.9951 0.0917
vn 0.0917 0.9951 0.0380
s 0
g A_Liquid.001_elixir_liquid
usemtl elixir_liquid
f 179//168 181//168 180//168
f 179//169 182//169 181//169
f 179//170 183//170 182//170
f 179//171 184//171 183//171
f 179//172 185//172 184//172
f 179//173 186//173 185//173
f 179//174 187//174 186//174
f 179//175 180//175 187//175
f 181//176 188//176 180//176
f 182//177 189//177 181//177
f 183//178 190//178 182//178
f 184//179 191//179 183//179
f 185//180 192//180 184//180
f 186//181 193//181 185//181
f 187//182 194//182 186//182
f 180//183 195//183 187//183
f 188//184 197//184 196//184
f 190//185 197//185 189//185
f 190//186 199//186 198//186
f 192//187 199//187 191//187
f 192//188 201//188 200//188
f 194//189 201//189 193//189
f 194//190 203//190 202//190
f 188//191 203//191 195//191
f 197//192 204//192 196//192
f 198//193 205//193 197//193
f 199//194 206//194 198//194
f 200//195 207//195 199//195
f 201//196 208//196 200//196
f 202//197 209//197 201//197
f 203//198 210//198 202//198
f 196//199 211//199 203//199
f 204//200 205//200 212//200
f 205//201 206//201 212//201
f 206//202 207//202 212//202
f 207//203 208//203 212//203
f 208//204 209//204 212//204
f 209//205 210//205 212//205
f 210//206 211//206 212//206
f 211//207 204//207 212//207
f 181//176 189//176 188//176
f 182//177 190//177 189//177
f 183//178 191//178 190//178
f 184//179 192//179 191//179
f 185//180 193//180 192//180
f 186//181 194//181 193//181
f 187//182 195//182 194//182
f 180//183 188//183 195//183
f 188//184 189//184 197//184
f 190//185 198//185 197//185
f 190//186 191//186 199//186
f 192//187 200//187 199//187
f 192//188 193//188 201//188
f 194//189 202//189 201//189
f 194//190 195//190 203//190
f 188//191 196//191 203//191
f 197//192 205//192 204//192
f 198//193 206//193 205//193
f 199//194 207//194 206//194
f 200//195 208//195 207//195
f 201//196 209//196 208//196
f 202//197 210//197 209//197
f 203//198 211//198 210//198
f 196//199 204//199 211//199
g C_Label.001_C_Label.001
v -0.340000 1.342500 0.732350
v 0.340000 1.342500 0.732350
v 0.340000 1.742500 0.732350
v -0.340000 1.742500 0.732350
v -0.340000 1.342500 0.702350
v 0.340000 1.342500 0.702350
v 0.340000 1.742500 0.702350
v -0.340000 1.742500 0.702350
vn -0.0000 -0.0000 1.0000
vn -0.0000 -0.0000 -1.0000
vn -1.0000 -0.0000 -0.0000
vn -0.0000 -1.0000 -0.0000
vn 1.0000 -0.0000 -0.0000
vn -0.0000 1.0000 -0.0000
vt 1.000000 0.000000
vt 0.000000 1.000000
vt 0.000000 0.000000
vt 1.000000 1.000000
s 0
g C_Label.001_elixir_label
usemtl elixir_label
f 214/1/208 216/2/208 213/3/208
f 220/2/209 218/1/209 217/3/209
f 216/2/210 217/3/210 213/3/210
f 213/3/211 218/1/211 214/1/211
f 214/1/212 219/4/212 215/4/212
f 215/4/213 220/2/213 216/2/213
f 214/1/208 215/4/208 216/2/208
f 220/2/209 219/4/209 218/1/209
f 216/2/210 220/2/210 217/3/210
f 213/3/211 217/3/211 218/1/211
f 214/1/212 218/1/212 219/4/212
f 215/4/213 219/4/213 220/2/213
g S_Crown.001_S_Crown.001
v 0.000000 2.455500 0.000000
v 0.161000 2.455500 0.000000
v 0.113844 2.455500 -0.113844
v 0.000000 2.455500 -0.161000
v -0.113844 2.455500 -0.113844
v -0.161000 2.455500 -0.000000
v -0.113844 2.455500 0.113844
v -0.000000 2.455500 0.161000
v 0.113844 2.455500 0.113844
v 0.253000 2.639500 0.000000
v 0.178898 2.639500 -0.178898
v 0.000000 2.639500 -0.253000
v -0.178898 2.639500 -0.178898
v -0.253000 2.639500 -0.000000
v -0.178898 2.639500 0.178898
v -0.000000 2.639500 0.253000
v 0.178898 2.639500 0.178898
v 0.299000 2.846500 0.000000
v 0.211425 2.846500 -0.211425
v 0.000000 2.846500 -0.299000
v -0.211425 2.846500 -0.211425
v -0.299000 2.846500 -0.000000
v -0.211425 2.846500 0.211425
v -0.000000 2.846500 0.299000
v 0.211425 2.846500 0.211425
v 0.161000 2.961500 0.000000
v 0.113844 2.961500 -0.113844
v 0.000000 2.961500 -0.161000
v -0.113844 2.961500 -0.113844
v -0.161000 2.961500 -0.000000
v -0.113844 2.961500 0.113844
v -0.000000 2.961500 0.161000
v 0.113844 2.961500 0.113844
v 0.000000 3.030500 0.000000
vn -0.0000 -1.0000 -0.0000
vn 0.8387 -0.4194 -0.3474
vn 0.3474 -0.4194 -0.8387
vn -0.3474 -0.4194 -0.8387
vn -0.8387 -0.4194 -0.3474
vn -0.8387 -0.4194 0.3474
vn -0.3474 -0.4194 0.8387
vn 0.3474 -0.4194 0.8387
vn 0.8387 -0.4194 0.3474
vn 0.9050 -0.2011 -0.3749
vn 0.3749 -0.2011 -0.9050
vn -0.3749 -0.2011 -0.9050
vn -0.9050 -0.2011 -0.3749
vn -0.9050 -0.2011 0.3749
vn -0.3749 -0.2011 0.9050
vn 0.3749 -0.2011 0.9050
vn 0.9050 -0.2011 0.3749
vn 0.6188 0.7426 -0.2563
vn 0.2563 0.7426 -0.6188
vn -0.2563 0.7426 -0.6188
vn -0.6188 0.7426 -0.2563
vn -0.6188 0.7426 0.2563
vn -0.2563 0.7426 0.6188
vn 0.2563 0.7426 0.6188
vn 0.6188 0.7426 0.2563
vn 0.3888 0.9071 -0.1610
vn 0.1610 0.9071 -0.3888
vn -0.1610 0.9071 -0.3888
vn -0.3888 0.9071 -0.1610
vn -0.3888 0.9071 0.1610
vn -0.1610 0.9071 0.3888
vn 0.1610 0.9071 0.3888
vn 0.3888 0.9071 0.1610
s 0
g S_Crown.001_elixir_brass
usemtl elixir_brass
f 221//214 223//214 222//214
f 221//214 224//214 223//214
f 221//214 225//214 224//214
f 221//214 226//214 225//214
f 221//214 227//214 226//214
f 221//214 228//214 227//214
f 221//214 229//214 228//214
f 221//214 222//214 229//214
f 223//215 230//215 222//215
f 224//216 231//216 223//216
f 225//217 232//217 224//217
f 226//218 233//218 225//218
f 227//219 234//219 226//219
f 228//220 235//220 227//220
f 229//221 236//221 228//221
f 222//222 237//222 229//222
f 231//223 238//223 230//223
f 232//224 239//224 231//224
f 233//225 240//225 232//225
f 234//226 241//226 233//226
f 235//227 242//227 234//227
f 236//228 243//228 235//228
f 237//229 244//229 236//229
f 230//230 245//230 237//230
f 239//231 246//231 238//231
f 240//232 247//232 239//232
f 241//233 248//233 240//233
f 242//234 249//234 241//234
f 243//235 250//235 242//235
f 244//236 251//236 243//236
f 245//237 252//237 244//237
f 238//238 253//238 245//238
f 246//239 247//239 254//239
f 247//240 248//240 254//240
f 248//241 249//241 254//241
f 249//242 250//242 254//242
f 250//243 251//243 254//243
f 251//244 252//244 254//244
f 252//245 253//245 254//245
f 253//246 246//246 254//246
f 223//215 231//215 230//215
f 224//216 232//216 231//216
f 225//217 233//217 232//217
f 226//218 234//218 233//218
f 227//219 235//219 234//219
f 228//220 236//220 235//220
f 229//221 237//221 236//221
f 222//222 230//222 237//222
f 231//223 239//223 238//223
f 232//224 240//224 239//224
f 233//225 241//225 240//225
f 234//226 242//226 241//226
f 235//227 243//227 242//227
f 236//228 244//228 243//228
f 237//229 245//229 244//229
f 230//230 238//230 245//230
f 239//231 247//231 246//231
f 240//232 248//232 247//232
f 241//233 249//233 248//233
f 242//234 250//234 249//234
f 243//235 251//235 250//235
f 244//236 252//236 251//236
f 245//237 253//237 252//237
f 238//238 246//238 253//238
