# Blender 5.2.2 LTS
# www.blender.org
mtllib emerald_ring.mtl
g A_Band.001_A_Band.001
v 0.680000 0.000000 0.000000
v 0.650000 0.000000 -0.051962
v 0.590000 0.000000 -0.051962
v 0.560000 0.000000 -0.000000
v 0.590000 0.000000 0.051962
v 0.650000 0.000000 0.051962
v 0.628238 0.260225 0.000000
v 0.600522 0.248744 -0.051962
v 0.545089 0.225783 -0.051962
v 0.517373 0.214303 -0.000000
v 0.545089 0.225783 0.051962
v 0.600522 0.248744 0.051962
v 0.480833 0.480833 0.000000
v 0.459619 0.459619 -0.051962
v 0.417193 0.417193 -0.051962
v 0.395980 0.395980 -0.000000
v 0.417193 0.417193 0.051962
v 0.459619 0.459619 0.051962
v 0.260225 0.628238 0.000000
v 0.248744 0.600522 -0.051962
v 0.225783 0.545089 -0.051962
v 0.214303 0.517373 -0.000000
v 0.225783 0.545089 0.051962
v 0.248744 0.600522 0.051962
v 0.000000 0.680000 0.000000
v 0.000000 0.650000 -0.051962
v 0.000000 0.590000 -0.051962
v 0.000000 0.560000 -0.000000
v 0.000000 0.590000 0.051962
v 0.000000 0.650000 0.051962
v -0.260225 0.628238 0.000000
v -0.248744 0.600522 -0.051962
v -0.225783 0.545089 -0.051962
v -0.214303 0.517373 -0.000000
v -0.225783 0.545089 0.051962
v -0.248744 0.600522 0.051962
v -0.480833 0.480833 0.000000
v -0.459619 0.459619 -0.051962
v -0.417193 0.417193 -0.051962
v -0.395980 0.395980 -0.000000
v -0.417193 0.417193 0.051962
v -0.459619 0.459619 0.051962
v -0.628238 0.260225 0.000000
v -0.600522 0.248744 -0.051962
v -0.545089 0.225783 -0.051962
v -0.517373 0.214303 -0.000000
v -0.545089 0.225783 0.051962
v -0.600522 0.248744 0.051962
v -0.680000 0.000000 0.000000
v -0.650000 0.000000 -0.051962
v -0.590000 0.000000 -0.051962
v -0.560000 0.000000 -0.000000
v -0.590000 0.000000 0.051962
v -0.650000 0.000000 0.051962
v -0.628238 -0.260225 0.000000
v -0.600522 -0.248744 -0.051962
v -0.545089 -0.225783 -0.051962
v -0.517373 -0.214303 -0.000000
v -0.545089 -0.225783 0.051962
v -0.600522 -0.248744 0.051962
v -0.480833 -0.480833 0.000000
v -0.459619 -0.459619 -0.051962
v -0.417193 -0.417193 -0.051962
v -0.395980 -0.395980 -0.000000
v -0.417193 -0.417193 0.051962
v -0.459619 -0.459619 0.051962
v -0.260225 -0.628238 0.000000
v -0.248744 -0.600522 -0.051962
v -0.225783 -0.545089 -0.051962
v -0.214303 -0.517373 -0.000000
v -0.225783 -0.545089 0.051962
v -0.248744 -0.600522 0.051962
v -0.000000 -0.680000 0.000000
v -0.000000 -0.650000 -0.051962
v -0.000000 -0.590000 -0.051962
v -0.000000 -0.560000 -0.000000
v -0.000000 -0.590000 0.051962
v -0.000000 -0.650000 0.051962
v 0.260225 -0.628238 0.000000
v 0.248744 -0.600522 -0.051962
v 0.225783 -0.545089 -0.051962
v 0.214303 -0.517373 -0.000000
v 0.225783 -0.545089 0.051962
v 0.248744 -0.600522 0.051962
v 0.480833 -0.480833 0.000000
v 0.459619 -0.459619 -0.051962
v 0.417193 -0.417193 -0.051962
v 0.395980 -0.395980 -0.000000
v 0.417193 -0.417193 0.051962
v 0.459619 -0.459619 0.051962
v 0.628238 -0.260225 0.000000
v 0.600522 -0.248744 -0.051962
v 0.545089 -0.225783 -0.051962
v 0.517373 -0.214303 -0.000000
v 0.545089 -0.225783 0.051962
v 0.600522 -0.248744 0.051962
vn 0.8535 0.1698 -0.4927
vn -0.0000 -0.0000 -1.0000
vn -0.8535 -0.1698 -0.4927
vn -0.8535 -0.1698 0.4927
vn -0.0000 -0.0000 1.0000
vn 0.8535 0.1698 0.4927
vn 0.7235 0.4834 -0.4927
vn -0.7235 -0.4834 -0.4927
vn -0.7235 -0.4834 0.4927
vn 0.7235 0.4834 0.4927
vn 0.4834 0.7235 -0.4927
vn -0.4834 -0.7235 -0.4927
vn -0.4834 -0.7235 0.4927
vn 0.4834 0.7235 0.4927
vn 0.1698 0.8535 -0.4927
vn -0.1698 -0.8535 -0.4927
vn -0.1698 -0.8535 0.4927
vn 0.1698 0.8535 0.4927
vn -0.1698 0.8535 -0.4927
vn 0.1698 -0.8535 -0.4927
vn 0.1698 -0.8535 0.4927
vn -0.1698 0.8535 0.4927
vn -0.4834 0.7235 -0.4927
vn 0.4834 -0.7235 -0.4927
vn 0.4834 -0.7235 0.4927
vn -0.4834 0.7235 0.4927
vn -0.7235 0.4834 -0.4927
vn 0.7235 -0.4834 -0.4927
vn 0.7235 -0.4834 0.4927
vn -0.7235 0.4834 0.4927
vn -0.8535 0.1698 -0.4927
vn 0.8535 -0.1698 -0.4927
vn 0.8535 -0.1698 0.4927
vn -0.8535 0.1698 0.4927
s 0
g A_Band.001_emerald_ring_metal
usemtl emerald_ring_metal
f 8//1 1//1 2//1
f 9//2 2//2 3//2
f 10//3 3//3 4//3
f 11//4 4//4 5//4
f 6//5 11//5 5//5
f 1//6 12//6 6//6
f 14//7 7//7 8//7
f 15//2 8//2 9//2
f 16//8 9//8 10//8
f 17//9 10//9 11//9
f 18//5 11//5 12//5
f 13//10 12//10 7//10
f 14//11 19//11 13//11
f 21//2 14//2 15//2
f 22//12 15//12 16//12
f 23//13 16//13 17//13
f 24//5 17//5 18//5
f 19//14 18//14 13//14
f 26//15 19//15 20//15
f 21//2 26//2 20//2
f 22//16 27//16 21//16
f 29//17 22//17 23//17
f 30//5 23//5 24//5
f 25//18 24//18 19//18
f 32//19 25//19 26//19
f 33//2 26//2 27//2
f 34//20 27//20 28//20
f 29//21 34//21 28//21
f 30//5 35//5 29//5
f 31//22 30//22 25//22
f 38//23 31//23 32//23
f 39//2 32//2 33//2
f 40//24 33//24 34//24
f 41//25 34//25 35//25
f 42//5 35//5 36//5
f 37//26 36//26 31//26
f 38//27 43//27 37//27
f 45//2 38//2 39//2
f 46//28 39//28 40//28
f 41//29 46//29 40//29
f 48//5 41//5 42//5
f 37//30 48//30 42//30
f 50//31 43//31 44//31
f 45//2 50//2 44//2
f 46//32 51//32 45//32
f 53//33 46//33 47//33
f 54//5 47//5 48//5
f 43//34 54//34 48//34
f 56//3 49//3 50//3
f 57//2 50//2 51//2
f 58//1 51//1 52//1
f 59//6 52//6 53//6
f 54//5 59//5 53//5
f 49//4 60//4 54//4
f 62//8 55//8 56//8
f 63//2 56//2 57//2
f 64//7 57//7 58//7
f 65//10 58//10 59//10
f 66//5 59//5 60//5
f 61//9 60//9 55//9
f 62//12 67//12 61//12
f 69//2 62//2 63//2
f 70//11 63//11 64//11
f 71//14 64//14 65//14
f 72//5 65//5 66//5
f 67//13 66//13 61//13
f 74//16 67//16 68//16
f 69//2 74//2 68//2
f 70//15 75//15 69//15
f 77//18 70//18 71//18
f 78//5 71//5 72//5
f 73//17 72//17 67//17
f 80//20 73//20 74//20
f 81//2 74//2 75//2
f 82//19 75//19 76//19
f 77//22 82//22 76//22
f 78//5 83//5 77//5
f 79//21 78//21 73//21
f 86//24 79//24 80//24
f 87//2 80//2 81//2
f 88//23 81//23 82//23
f 89//26 82//26 83//26
f 90//5 83//5 84//5
f 85//25 84//25 79//25
f 86//28 91//28 85//28
f 93//2 86//2 87//2
f 94//27 87//27 88//27
f 89//30 94//30 88//30
f 96//5 89//5 90//5
f 85//29 96//29 90//29
f 2//32 91//32 92//32
f 93//2 2//2 92//2
f 94//31 3//31 93//31
f 5//34 94//34 95//34
f 6//5 95//5 96//5
f 91//33 6//33 96//33
f 8//1 7//1 1//1
f 9//2 8//2 2//2
f 10//3 9//3 3//3
f 11//4 10//4 4//4
f 6//5 12//5 11//5
f 1//6 7//6 12//6
f 14//7 13//7 7//7
f 15//2 14//2 8//2
f 16//8 15//8 9//8
f 17//9 16//9 10//9
f 18//5 17//5 11//5
f 13//10 18//10 12//10
f 14//11 20//11 19//11
f 21//2 20//2 14//2
f 22//12 21//12 15//12
f 23//13 22//13 16//13
f 24//5 23//5 17//5
f 19//14 24//14 18//14
f 26//15 25//15 19//15
f 21//2 27//2 26//2
f 22//16 28//16 27//16
f 29//17 28//17 22//17
f 30//5 29//5 23//5
f 25//18 30//18 24//18
f 32//19 31//19 25//19
f 33//2 32//2 26//2
f 34//20 33//20 27//20
f 29//21 35//21 34//21
f 30//5 36//5 35//5
f 31//22 36//22 30//22
f 38//23 37//23 31//23
f 39//2 38//2 32//2
f 40//24 39//24 33//24
f 41//25 40//25 34//25
f 42//5 41//5 35//5
f 37//26 42//26 36//26
f 38//27 44//27 43//27
f 45//2 44//2 38//2
f 46//28 45//28 39//28
f 41//29 47//29 46//29
f 48//5 47//5 41//5
f 37//30 43//30 48//30
f 50//31 49//31 43//31
f 45//2 51//2 50//2
f 46//32 52//32 51//32
f 53//33 52//33 46//33
f 54//5 53//5 47//5
f 43//34 49//34 54//34
f 56//3 55//3 49//3
f 57//2 56//2 50//2
f 58//1 57//1 51//1
f 59//6 58//6 52//6
f 54//5 60//5 59//5
f 49//4 55//4 60//4
f 62//8 61//8 55//8
f 63//2 62//2 56//2
f 64//7 63//7 57//7
f 65//10 64//10 58//10
f 66//5 65//5 59//5
f 61//9 66//9 60//9
f 62//12 68//12 67//12
f 69//2 68//2 62//2
f 70//11 69//11 63//11
f 71//14 70//14 64//14
f 72//5 71//5 65//5
f 67//13 72//13 66//13
f 74//16 73//16 67//16
f 69//2 75//2 74//2
f 70//15 76//15 75//15
f 77//18 76//18 70//18
f 78//5 77//5 71//5
f 73//17 78//17 72//17
f 80//20 79//20 73//20
f 81//2 80//2 74//2
f 82//19 81//19 75//19
f 77//22 83//22 82//22
f 78//5 84//5 83//5
f 79//21 84//21 78//21
f 86//24 85//24 79//24
f 87//2 86//2 80//2
f 88//23 87//23 81//23
f 89//26 88//26 82//26
f 90//5 89//5 83//5
f 85//25 90//25 84//25
f 86//28 92//28 91//28
f 93//2 92//2 86//2
f 94//27 93//27 87//27
f 89//30 95//30 94//30
f 96//5 95//5 89//5
f 85//29 91//29 96//29
f 2//32 1//32 91//32
f 93//2 3//2 2//2
f 94//31 4//31 3//31
f 5//34 4//34 94//34
f 6//5 5//5 95//5
f 91//33 1//33 6//33
g B_Collar.001_B_Collar.001
v 0.000000 0.620000 0.000000
v 0.336000 0.620000 0.000000
v 0.237588 0.620000 -0.237588
v 0.000000 0.620000 -0.336000
v -0.237588 0.620000 -0.237588
v -0.336000 0.620000 -0.000000
v -0.237588 0.620000 0.237588
v -0.000000 0.620000 0.336000
v 0.237588 0.620000 0.237588
v 0.280000 0.760000 0.000000
v 0.197990 0.760000 -0.197990
v 0.000000 0.760000 -0.280000
v -0.197990 0.760000 -0.197990
v -0.280000 0.760000 -0.000000
v -0.197990 0.760000 0.197990
v -0.000000 0.760000 0.280000
v 0.197990 0.760000 0.197990
v 0.000000 0.760000 0.000000
vn -0.0000 -1.0000 -0.0000
vn 0.8666 0.3466 -0.3590
vn 0.3590 0.3466 -0.8666
vn -0.3590 0.3466 -0.8666
vn -0.8666 0.3466 -0.3590
vn -0.8666 0.3466 0.3590
vn -0.3590 0.3466 0.8666
vn 0.3590 0.3466 0.8666
vn 0.8666 0.3466 0.3590
vn -0.0000 1.0000 -0.0000
s 0
g B_Collar.001_emerald_ring_metal
usemtl emerald_ring_metal
f 97//35 99//35 98//35
f 97//35 100//35 99//35
f 97//35 101//35 100//35
f 97//35 102//35 101//35
f 97//35 103//35 102//35
f 97//35 104//35 103//35
f 97//35 105//35 104//35
f 97//35 98//35 105//35
f 99//36 106//36 98//36
f 100//37 107//37 99//37
f 101//38 108//38 100//38
f 102//39 109//39 101//39
f 103//40 110//40 102//40
f 104//41 111//41 103//41
f 105//42 112//42 104//42
f 98//43 113//43 105//43
f 106//44 107//44 114//44
f 107//44 108//44 114//44
f 108//44 109//44 114//44
f 109//44 110//44 114//44
f 110//44 111//44 114//44
f 111//44 112//44 114//44
f 112//44 113//44 114//44
f 113//44 106//44 114//44
f 99//36 107//36 106//36
f 100//37 108//37 107//37
f 101//38 109//38 108//38
f 102//39 110//39 109//39
f 103//40 111//40 110//40
f 104//41 112//41 111//41
f 105//42 113//42 112//42
f 98//43 106//43 113//43
g C_Stone.001_C_Stone.001
v 0.263655 0.760000 0.081900
v 0.263655 0.760000 -0.081900
v 0.219555 0.760000 -0.126000
v -0.219555 0.760000 -0.126000
v -0.263655 0.760000 -0.081900
v -0.263655 0.760000 0.081900
v -0.219555 0.760000 0.126000
v 0.219555 0.760000 0.126000
v 0.585900 0.858000 0.182000
v 0.585900 0.858000 -0.182000
v 0.487900 0.858000 -0.280000
v -0.487900 0.858000 -0.280000
v -0.585900 0.858000 -0.182000
v -0.585900 0.858000 0.182000
v -0.487900 0.858000 0.280000
v 0.487900 0.858000 0.280000
v 0.585900 0.956000 0.182000
v 0.585900 0.956000 -0.182000
v 0.487900 0.956000 -0.280000
v -0.487900 0.956000 -0.280000
v -0.585900 0.956000 -0.182000
v -0.585900 0.956000 0.182000
v -0.487900 0.956000 0.280000
v 0.487900 0.956000 0.280000
v 0.457002 1.054000 0.141960
v 0.457002 1.054000 -0.141960
v 0.380562 1.054000 -0.218400
v -0.380562 1.054000 -0.218400
v -0.457002 1.054000 -0.141960
v -0.457002 1.054000 0.141960
v -0.380562 1.054000 0.218400
v 0.380562 1.054000 0.218400
v 0.351540 1.112800 0.109200
v 0.351540 1.112800 -0.109200
v 0.292740 1.112800 -0.168000
v -0.292740 1.112800 -0.168000
v -0.351540 1.112800 -0.109200
v -0.351540 1.112800 0.109200
v -0.292740 1.112800 0.168000
v 0.292740 1.112800 0.168000
vn 0.2910 -0.9567 -0.0000
vn 0.2205 -0.9502 -0.2205
vn -0.0000 -0.8437 -0.5369
vn -0.2205 -0.9502 -0.2205
vn -0.2910 -0.9567 -0.0000
vn -0.2205 -0.9502 0.2205
vn -0.0000 -0.8437 0.5369
vn 0.2205 -0.9502 0.2205
vn 1.0000 -0.0000 -0.0000
vn 0.7071 -0.0000 -0.7071
vn -0.0000 -0.0000 -1.0000
vn -0.7071 -0.0000 -0.7071
vn -1.0000 -0.0000 -0.0000
vn -0.7071 -0.0000 0.7071
vn -0.0000 -0.0000 1.0000
vn 0.7071 -0.0000 0.7071
vn 0.6052 0.7961 -0.0000
vn 0.4485 0.7731 -0.4485
vn -0.0000 0.5322 -0.8466
vn -0.4485 0.7731 -0.4485
vn -0.6052 0.7961 -0.0000
vn -0.4485 0.7731 0.4485
vn -0.0000 0.5322 0.8466
vn 0.4485 0.7731 0.4485
vn 0.4870 0.8734 -0.0000
vn 0.3645 0.8569 -0.3645
vn -0.0000 0.6508 -0.7593
vn -0.3645 0.8569 -0.3645
vn -0.4870 0.8734 -0.0000
vn -0.3645 0.8569 0.3645
vn -0.0000 0.6508 0.7593
vn 0.3645 0.8569 0.3645
vn -0.0000 -1.0000 -0.0000
vn -0.0000 1.0000 -0.0000
s 0
g C_Stone.001_emerald_ring_stone
usemtl emerald_ring_stone
f 115//45 124//45 123//45
f 116//46 125//46 124//46
f 118//47 125//47 117//47
f 119//48 126//48 118//48
f 119//49 128//49 127//49
f 120//50 129//50 128//50
f 122//51 129//51 121//51
f 115//52 130//52 122//52
f 124//53 131//53 123//53
f 125//54 132//54 124//54
f 126//55 133//55 125//55
f 127//56 134//56 126//56
f 128//57 135//57 127//57
f 129//58 136//58 128//58
f 130//59 137//59 129//59
f 123//60 138//60 130//60
f 132//61 139//61 131//61
f 133//62 140//62 132//62
f 134//63 141//63 133//63
f 134//64 143//64 142//64
f 136//65 143//65 135//65
f 137//66 144//66 136//66
f 138//67 145//67 137//67
f 138//68 139//68 146//68
f 140//69 147//69 139//69
f 141//70 148//70 140//70
f 142//71 149//71 141//71
f 142//72 151//72 150//72
f 144//73 151//73 143//73
f 145//74 152//74 144//74
f 146//75 153//75 145//75
f 146//76 147//76 154//76
f 119//77 117//77 115//77
f 150//78 152//78 154//78
f 115//45 116//45 124//45
f 116//46 117//46 125//46
f 118//47 126//47 125//47
f 119//48 127//48 126//48
f 119//49 120//49 128//49
f 120//50 121//50 129//50
f 122//51 130//51 129//51
f 115//52 123//52 130//52
f 124//53 132//53 131//53
f 125//54 133//54 132//54
f 126//55 134//55 133//55
f 127//56 135//56 134//56
f 128//57 136//57 135//57
f 129//58 137//58 136//58
f 130//59 138//59 137//59
f 123//60 131//60 138//60
f 132//61 140//61 139//61
f 133//62 141//62 140//62
f 134//63 142//63 141//63
f 134//64 135//64 143//64
f 136//65 144//65 143//65
f 137//66 145//66 144//66
f 138//67 146//67 145//67
f 138//68 131//68 139//68
f 140//69 148//69 147//69
f 141//70 149//70 148//70
f 142//71 150//71 149//71
f 142//72 143//72 151//72
f 144//73 152//73 151//73
f 145//74 153//74 152//74
f 146//75 154//75 153//75
f 146//76 139//76 147//76
f 115//77 122//77 121//77
f 121//77 120//77 119//77
f 119//77 118//77 117//77
f 117//77 116//77 115//77
f 115//77 121//77 119//77
f 154//78 147//78 148//78
f 148//78 149//78 150//78
f 150//78 151//78 152//78
f 152//78 153//78 154//78
f 154//78 148//78 150//78
