# Second Rite deterministic item batch 63-72
# Flame Saber
mtllib item_batch_63_72.mtl
o flame_saber
s off
v -0.260000 -0.810000 -0.074808
v -0.280800 -0.460000 -0.074808
v -0.043200 1.260000 -0.074808
v 0.170000 1.740000 -0.074808
v 0.383200 1.260000 -0.074808
v 0.280800 -0.460000 -0.074808
v 0.260000 -0.810000 -0.074808
v -0.260000 -0.810000 0.040192
v -0.280800 -0.460000 0.040192
v -0.043200 1.260000 0.040192
v 0.170000 1.740000 0.040192
v 0.383200 1.260000 0.040192
v 0.280800 -0.460000 0.040192
v 0.260000 -0.810000 0.040192
v -0.410000 -0.990000 -0.132308
v 0.410000 -0.990000 -0.132308
v 0.410000 -0.830000 -0.132308
v -0.410000 -0.830000 -0.132308
v -0.410000 -0.990000 0.097692
v 0.410000 -0.990000 0.097692
v 0.410000 -0.830000 0.097692
v -0.410000 -0.830000 0.097692
v -0.110000 -0.970000 -0.017308
v -0.055000 -0.970000 -0.112571
v 0.055000 -0.970000 -0.112571
v 0.110000 -0.970000 -0.017308
v 0.055000 -0.970000 0.077955
v -0.055000 -0.970000 0.077955
v -0.090000 -1.560000 -0.017308
v -0.045000 -1.560000 -0.095250
v 0.045000 -1.560000 -0.095250
v 0.090000 -1.560000 -0.017308
v 0.045000 -1.560000 0.060634
v -0.045000 -1.560000 0.060634
v 0.000000 -0.970000 -0.017308
v 0.000000 -1.560000 -0.017308
v 0.160000 -1.640000 -0.017308
v 0.000000 -1.640000 0.142692
v -0.160000 -1.640000 -0.017308
v -0.000000 -1.640000 -0.177308
v 0.000000 -1.540000 -0.017308
v 0.000000 -1.740000 -0.017308
v -0.020000 0.315000 0.072692
v -0.096008 0.315000 0.177308
v -0.218992 0.315000 0.137348
v -0.218992 0.315000 0.008036
v -0.096008 0.315000 -0.031924
v -0.130000 0.395000 0.072692
v -0.130000 0.235000 0.072692
v 0.000000 0.685000 0.072692
v -0.069098 0.685000 0.167798
v -0.180902 0.685000 0.131471
v -0.180902 0.685000 0.013913
v -0.069098 0.685000 -0.022414
v -0.100000 0.765000 0.072692
v -0.100000 0.605000 0.072692
v 0.025000 1.045000 0.072692
v -0.033734 1.045000 0.153532
v -0.128766 1.045000 0.122654
v -0.128766 1.045000 0.022730
v -0.033734 1.045000 -0.008148
v -0.060000 1.125000 0.072692
v -0.060000 0.965000 0.072692
v 0.170000 -1.315000 -0.017308
v 0.085000 -1.315000 0.129916
v -0.085000 -1.315000 0.129916
v -0.170000 -1.315000 -0.017308
v -0.085000 -1.315000 -0.164532
v 0.085000 -1.315000 -0.164532
v 0.000000 -1.205000 -0.017308
v 0.000000 -1.425000 -0.017308
usemtl wrought_iron
f 1 3 2
f 8 9 10
f 1 4 3
f 8 10 11
f 1 5 4
f 8 11 12
f 1 6 5
f 8 12 13
f 1 7 6
f 8 13 14
f 1 2 9
f 1 9 8
f 2 3 10
f 2 10 9
f 3 4 11
f 3 11 10
f 4 5 12
f 4 12 11
f 5 6 13
f 5 13 12
f 6 7 14
f 6 14 13
f 7 1 8
f 7 8 14
usemtl ritual_gold
f 15 18 17
f 15 17 16
f 19 20 21
f 19 21 22
f 15 16 20
f 15 20 19
f 18 22 21
f 18 21 17
f 15 19 22
f 15 22 18
f 16 17 21
f 16 21 20
usemtl dark_wood
f 35 24 23
f 36 29 30
f 23 24 30
f 23 30 29
f 35 25 24
f 36 30 31
f 24 25 31
f 24 31 30
f 35 26 25
f 36 31 32
f 25 26 32
f 25 32 31
f 35 27 26
f 36 32 33
f 26 27 33
f 26 33 32
f 35 28 27
f 36 33 34
f 27 28 34
f 27 34 33
f 35 23 28
f 36 34 29
f 28 23 29
f 28 29 34
usemtl ritual_gold
f 41 37 38
f 42 38 37
f 41 38 39
f 42 39 38
f 41 39 40
f 42 40 39
f 41 40 37
f 42 37 40
usemtl wax
f 48 43 44
f 49 44 43
f 48 44 45
f 49 45 44
f 48 45 46
f 49 46 45
f 48 46 47
f 49 47 46
f 48 47 43
f 49 43 47
f 55 50 51
f 56 51 50
f 55 51 52
f 56 52 51
f 55 52 53
f 56 53 52
f 55 53 54
f 56 54 53
f 55 54 50
f 56 50 54
f 62 57 58
f 63 58 57
f 62 58 59
f 63 59 58
f 62 59 60
f 63 60 59
f 62 60 61
f 63 61 60
f 62 61 57
f 63 57 61
usemtl crystal
f 70 64 65
f 71 65 64
f 70 65 66
f 71 66 65
f 70 66 67
f 71 67 66
f 70 67 68
f 71 68 67
f 70 68 69
f 71 69 68
f 70 69 64
f 71 64 69
