# Blender 5.0.1
# www.blender.org
mtllib glass_of_wine.mtl
g Wine_Base.001_Mesh
v -0.000000 -1.070000 -0.474118
v 0.000000 -1.045000 -0.500000
v 0.000000 -0.970000 -0.474118
v 0.000000 -0.995000 -0.500000
v 0.237059 -1.070000 -0.410598
v 0.250000 -1.045000 -0.433013
v 0.237059 -0.970000 -0.410598
v 0.250000 -0.995000 -0.433013
v 0.410598 -1.070000 -0.237059
v 0.433013 -1.045000 -0.250000
v 0.410598 -0.970000 -0.237059
v 0.433013 -0.995000 -0.250000
v 0.474118 -1.070000 -0.000000
v 0.500000 -1.045000 0.000000
v 0.474118 -0.970000 0.000000
v 0.500000 -0.995000 0.000000
v 0.410598 -1.070000 0.237059
v 0.433013 -1.045000 0.250000
v 0.410598 -0.970000 0.237059
v 0.433013 -0.995000 0.250000
v 0.237059 -1.070000 0.410598
v 0.250000 -1.045000 0.433013
v 0.237059 -0.970000 0.410598
v 0.250000 -0.995000 0.433013
v 0.000000 -1.070000 0.474118
v 0.000000 -1.045000 0.500000
v -0.000000 -0.970000 0.474118
v 0.000000 -0.995000 0.500000
v -0.237059 -1.070000 0.410598
v -0.250000 -1.045000 0.433013
v -0.237059 -0.970000 0.410598
v -0.250000 -0.995000 0.433013
v -0.410598 -1.070000 0.237059
v -0.433013 -1.045000 0.250000
v -0.410598 -0.970000 0.237059
v -0.433013 -0.995000 0.250000
v -0.474118 -1.070000 0.000000
v -0.500000 -1.045000 0.000000
v -0.474118 -0.970000 -0.000000
v -0.500000 -0.995000 0.000000
v -0.410598 -1.070000 -0.237059
v -0.433013 -1.045000 -0.250000
v -0.410598 -0.970000 -0.237059
v -0.433013 -0.995000 -0.250000
v -0.237059 -1.070000 -0.410598
v -0.250000 -1.045000 -0.433013
v -0.237059 -0.970000 -0.410598
v -0.250000 -0.995000 -0.433013
vn 0.1830 -0.7071 -0.6830
vn 0.1830 0.7071 -0.6830
vn 0.5000 -0.7071 -0.5000
vn 0.5000 0.7071 -0.5000
vn 0.6830 -0.7071 -0.1830
vn 0.6830 0.7071 -0.1830
vn 0.6830 -0.7071 0.1830
vn 0.6830 0.7071 0.1830
vn 0.5000 -0.7071 0.5000
vn 0.5000 0.7071 0.5000
vn 0.1830 -0.7071 0.6830
vn 0.1830 0.7071 0.6830
vn -0.1830 -0.7071 0.6830
vn -0.1830 0.7071 0.6830
vn -0.5000 -0.7071 0.5000
vn -0.5000 0.7071 0.5000
vn -0.6830 -0.7071 0.1830
vn -0.6830 0.7071 0.1830
vn -0.6830 -0.7071 -0.1830
vn -0.6830 0.7071 -0.1830
vn -0.5000 -0.7071 -0.5000
vn -0.5000 0.7071 -0.5000
vn -0.1830 -0.7071 -0.6830
vn -0.1830 0.7071 -0.6830
vn -0.0000 -1.0000 -0.0000
vn 0.2588 -0.0000 -0.9659
vn -0.2588 -0.0000 -0.9659
vn -0.0000 1.0000 -0.0000
vn 0.7071 -0.0000 -0.7071
vn 0.9659 -0.0000 -0.2588
vn 0.9659 -0.0000 0.2588
vn 0.7071 -0.0000 0.7071
vn 0.2588 -0.0000 0.9659
vn -0.2588 -0.0000 0.9659
vn -0.7071 -0.0000 0.7071
vn -0.9659 -0.0000 0.2588
vn -0.9659 -0.0000 -0.2588
vn -0.7071 -0.0000 -0.7071
vt 0.750000 0.490000
vt 0.863788 0.447087
vt 0.750000 0.477577
vt 0.250000 0.490000
vt 0.363788 0.447087
vt 0.370000 0.457846
vt 0.957846 0.370000
vt 0.870000 0.457846
vt 0.447087 0.363788
vt 0.457846 0.370000
vt 0.990000 0.250000
vt 0.947087 0.363788
vt 0.490000 0.250000
vt 0.477577 0.250000
vt 0.947087 0.136212
vt 0.977577 0.250000
vt 0.447087 0.136212
vt 0.457846 0.130000
vt 0.870000 0.042154
vt 0.957846 0.130000
vt 0.363788 0.052913
vt 0.370000 0.042154
vt 0.750000 0.010000
vt 0.863788 0.052913
vt 0.250000 0.010000
vt 0.250000 0.022423
vt 0.636212 0.052913
vt 0.750000 0.022423
vt 0.136212 0.052913
vt 0.130000 0.042154
vt 0.542154 0.130000
vt 0.630000 0.042154
vt 0.052913 0.136212
vt 0.042154 0.130000
vt 0.510000 0.250000
vt 0.552913 0.136212
vt 0.010000 0.250000
vt 0.022423 0.250000
vt 0.552913 0.363788
vt 0.522423 0.250000
vt 0.052913 0.363788
vt 0.042154 0.370000
vt 0.630000 0.457846
vt 0.542154 0.370000
vt 0.136212 0.447087
vt 0.130000 0.457846
vt 0.636212 0.447087
vt 0.250000 0.477577
vt 1.000000 0.875000
vt 0.916667 0.625000
vt 1.000000 0.625000
vt 0.083333 0.875000
vt 0.000000 0.625000
vt 0.083333 0.625000
vt 0.916667 0.875000
vt 0.833333 0.625000
vt 0.833333 0.875000
vt 0.750000 0.625000
vt 0.750000 0.875000
vt 0.666667 0.625000
vt 0.666667 0.875000
vt 0.583333 0.625000
vt 0.583333 0.875000
vt 0.500000 0.625000
vt 0.500000 0.875000
vt 0.416667 0.625000
vt 0.416667 0.875000
vt 0.333333 0.625000
vt 0.333333 0.875000
vt 0.250000 0.625000
vt 0.250000 0.875000
vt 0.166667 0.625000
vt 0.166667 0.875000
vt 0.000000 0.875000
s 0
g Wine_Base.001_MAT_GlassClear
usemtl MAT_GlassClear
f 2/1/1 5/2/1 1/3/1
f 4/4/2 7/5/2 8/6/2
f 10/7/3 5/2/3 6/8/3
f 8/6/4 11/9/4 12/10/4
f 14/11/5 9/12/5 10/7/5
f 16/13/6 11/9/6 15/14/6
f 14/11/7 17/15/7 13/16/7
f 16/13/8 19/17/8 20/18/8
f 22/19/9 17/15/9 18/20/9
f 20/18/10 23/21/10 24/22/10
f 26/23/11 21/24/11 22/19/11
f 28/25/12 23/21/12 27/26/12
f 26/23/13 29/27/13 25/28/13
f 28/25/14 31/29/14 32/30/14
f 34/31/15 29/27/15 30/32/15
f 32/30/16 35/33/16 36/34/16
f 38/35/17 33/36/17 34/31/17
f 40/37/18 35/33/18 39/38/18
f 38/35/19 41/39/19 37/40/19
f 40/37/20 43/41/20 44/42/20
f 46/43/21 41/39/21 42/44/21
f 44/42/22 47/45/22 48/46/22
f 2/1/23 45/47/23 46/43/23
f 4/4/24 47/45/24 3/48/24
f 13/16/25 29/27/25 45/47/25
f 4/49/26 6/50/26 2/51/26
f 48/52/27 2/53/27 46/54/27
f 43/41/28 27/26/28 11/9/28
f 8/55/29 10/56/29 6/50/29
f 12/57/30 14/58/30 10/56/30
f 16/59/31 18/60/31 14/58/31
f 20/61/32 22/62/32 18/60/32
f 24/63/33 26/64/33 22/62/33
f 28/65/34 30/66/34 26/64/34
f 32/67/35 34/68/35 30/66/35
f 36/69/36 38/70/36 34/68/36
f 40/71/37 42/72/37 38/70/37
f 44/73/38 46/54/38 42/72/38
f 2/1/1 6/8/1 5/2/1
f 4/4/2 3/48/2 7/5/2
f 10/7/3 9/12/3 5/2/3
f 8/6/4 7/5/4 11/9/4
f 14/11/5 13/16/5 9/12/5
f 16/13/6 12/10/6 11/9/6
f 14/11/7 18/20/7 17/15/7
f 16/13/8 15/14/8 19/17/8
f 22/19/9 21/24/9 17/15/9
f 20/18/10 19/17/10 23/21/10
f 26/23/11 25/28/11 21/24/11
f 28/25/12 24/22/12 23/21/12
f 26/23/13 30/32/13 29/27/13
f 28/25/14 27/26/14 31/29/14
f 34/31/15 33/36/15 29/27/15
f 32/30/16 31/29/16 35/33/16
f 38/35/17 37/40/17 33/36/17
f 40/37/18 36/34/18 35/33/18
f 38/35/19 42/44/19 41/39/19
f 40/37/20 39/38/20 43/41/20
f 46/43/21 45/47/21 41/39/21
f 44/42/22 43/41/22 47/45/22
f 2/1/23 1/3/23 45/47/23
f 4/4/24 48/46/24 47/45/24
f 45/47/25 1/3/25 5/2/25
f 5/2/25 9/12/25 13/16/25
f 13/16/25 17/15/25 21/24/25
f 21/24/25 25/28/25 29/27/25
f 29/27/25 33/36/25 37/40/25
f 37/40/25 41/39/25 45/47/25
f 45/47/25 5/2/25 13/16/25
f 13/16/25 21/24/25 29/27/25
f 29/27/25 37/40/25 45/47/25
f 4/49/26 8/55/26 6/50/26
f 48/52/27 4/74/27 2/53/27
f 11/9/28 7/5/28 3/48/28
f 3/48/28 47/45/28 43/41/28
f 43/41/28 39/38/28 35/33/28
f 35/33/28 31/29/28 27/26/28
f 27/26/28 23/21/28 19/17/28
f 19/17/28 15/14/28 11/9/28
f 11/9/28 3/48/28 43/41/28
f 43/41/28 35/33/28 27/26/28
f 27/26/28 19/17/28 11/9/28
f 8/55/29 12/57/29 10/56/29
f 12/57/30 16/59/30 14/58/30
f 16/59/31 20/61/31 18/60/31
f 20/61/32 24/63/32 22/62/32
f 24/63/33 28/65/33 26/64/33
f 28/65/34 32/67/34 30/66/34
f 32/67/35 36/69/35 34/68/35
f 36/69/36 40/71/36 38/70/36
f 40/71/37 44/73/37 42/72/37
f 44/73/38 48/52/38 46/54/38
g Wine_Bowl.001_Mesh
v -0.000000 -0.425000 -0.514118
v 0.000000 -0.400238 -0.536434
v 0.000000 0.825000 -0.334118
v 0.000000 0.800238 -0.363566
v 0.257059 -0.425000 -0.445239
v 0.268217 -0.400238 -0.464566
v 0.167059 0.825000 -0.289355
v 0.181783 0.800238 -0.314857
v 0.445239 -0.425000 -0.257059
v 0.464566 -0.400238 -0.268217
v 0.289355 0.825000 -0.167059
v 0.314857 0.800238 -0.181783
v 0.514118 -0.425000 -0.000000
v 0.536434 -0.400238 0.000000
v 0.334118 0.825000 0.000000
v 0.363566 0.800238 0.000000
v 0.445239 -0.425000 0.257059
v 0.464566 -0.400238 0.268217
v 0.289355 0.825000 0.167059
v 0.314857 0.800238 0.181783
v 0.257059 -0.425000 0.445239
v 0.268217 -0.400238 0.464566
v 0.167059 0.825000 0.289355
v 0.181783 0.800238 0.314857
v 0.000000 -0.425000 0.514118
v 0.000000 -0.400238 0.536434
v 0.000000 0.825000 0.334118
v 0.000000 0.800238 0.363566
v -0.257059 -0.425000 0.445239
v -0.268217 -0.400238 0.464566
v -0.167059 0.825000 0.289355
v -0.181783 0.800238 0.314857
v -0.445239 -0.425000 0.257059
v -0.464566 -0.400238 0.268217
v -0.289355 0.825000 0.167059
v -0.314857 0.800238 0.181783
v -0.514118 -0.425000 0.000000
v -0.536434 -0.400238 0.000000
v -0.334118 0.825000 0.000000
v -0.363566 0.800238 0.000000
v -0.445239 -0.425000 -0.257059
v -0.464566 -0.400238 -0.268217
v -0.289355 0.825000 -0.167059
v -0.314857 0.800238 -0.181783
v -0.257059 -0.425000 -0.445239
v -0.268217 -0.400238 -0.464566
v -0.167059 0.825000 -0.289355
v -0.181783 0.800238 -0.314857
vn 0.1952 -0.6566 -0.7285
vn 0.1699 0.7542 -0.6342
vn 0.5333 -0.6566 -0.5333
vn 0.4643 0.7542 -0.4643
vn 0.7285 -0.6566 -0.1952
vn 0.6342 0.7542 -0.1699
vn 0.7285 -0.6566 0.1952
vn 0.6342 0.7542 0.1699
vn 0.5333 -0.6566 0.5333
vn 0.4643 0.7542 0.4643
vn 0.1952 -0.6566 0.7285
vn 0.1699 0.7542 0.6342
vn -0.1952 -0.6566 0.7285
vn -0.1699 0.7542 0.6342
vn -0.5333 -0.6566 0.5333
vn -0.4643 0.7542 0.4643
vn -0.7285 -0.6566 0.1952
vn -0.6342 0.7542 0.1699
vn -0.7285 -0.6566 -0.1952
vn -0.6342 0.7542 -0.1699
vn -0.5333 -0.6566 -0.5333
vn -0.4643 0.7542 -0.4643
vn -0.1952 -0.6566 -0.7285
vn -0.1699 0.7542 -0.6342
vn -0.0000 -1.0000 -0.0000
vn 0.2564 0.1378 -0.9567
vn -0.2564 0.1378 -0.9567
vn -0.0000 1.0000 -0.0000
vn 0.7004 0.1378 -0.7004
vn 0.9567 0.1378 -0.2564
vn 0.9567 0.1378 0.2564
vn 0.7004 0.1378 0.7004
vn 0.2564 0.1378 0.9567
vn -0.2564 0.1378 0.9567
vn -0.7004 0.1378 0.7004
vn -0.9567 0.1378 0.2564
vn -0.9567 0.1378 -0.2564
vn -0.7004 0.1378 -0.7004
vt 0.869947 0.457754
vt 0.750000 0.478497
vt 0.750000 0.489894
vt 0.250000 0.490000
vt 0.361373 0.442903
vt 0.370000 0.457846
vt 0.957754 0.369947
vt 0.864249 0.447884
vt 0.442903 0.361373
vt 0.457846 0.370000
vt 0.989894 0.250000
vt 0.947884 0.364249
vt 0.472745 0.250000
vt 0.490000 0.250000
vt 0.957754 0.130053
vt 0.978497 0.250000
vt 0.442903 0.138627
vt 0.457846 0.130000
vt 0.869947 0.042246
vt 0.947884 0.135752
vt 0.361373 0.057097
vt 0.370000 0.042154
vt 0.750000 0.010106
vt 0.864249 0.052116
vt 0.250000 0.027255
vt 0.250000 0.010000
vt 0.630053 0.042246
vt 0.750000 0.021503
vt 0.138627 0.057097
vt 0.130000 0.042154
vt 0.542246 0.130053
vt 0.635751 0.052116
vt 0.057097 0.138627
vt 0.042154 0.130000
vt 0.510106 0.250000
vt 0.552116 0.135752
vt 0.027255 0.250000
vt 0.010000 0.250000
vt 0.542246 0.369947
vt 0.521503 0.250000
vt 0.057097 0.361373
vt 0.042154 0.370000
vt 0.630053 0.457754
vt 0.552116 0.364248
vt 0.138627 0.442903
vt 0.130000 0.457846
vt 0.635752 0.447884
vt 0.250000 0.472745
vt 1.000000 0.990095
vt 0.916667 0.509905
vt 1.000000 0.509905
vt 0.083333 0.990095
vt 0.000000 0.509905
vt 0.083333 0.509905
vt 0.916667 0.990095
vt 0.833333 0.509905
vt 0.833333 0.990095
vt 0.750000 0.509905
vt 0.750000 0.990095
vt 0.666667 0.509905
vt 0.666667 0.990095
vt 0.583333 0.509905
vt 0.583333 0.990095
vt 0.500000 0.509905
vt 0.500000 0.990095
vt 0.416667 0.509905
vt 0.416667 0.990095
vt 0.333333 0.509905
vt 0.333333 0.990095
vt 0.250000 0.509905
vt 0.250000 0.990095
vt 0.166667 0.509905
vt 0.166667 0.990095
vt 0.000000 0.990095
s 0
g Wine_Bowl.001_MAT_GlassClear
usemtl MAT_GlassClear
f 54/75/39 49/76/39 50/77/39
f 52/78/40 55/79/40 56/80/40
f 58/81/41 53/82/41 54/75/41
f 56/80/42 59/83/42 60/84/42
f 62/85/43 57/86/43 58/81/43
f 60/84/44 63/87/44 64/88/44
f 66/89/45 61/90/45 62/85/45
f 64/88/46 67/91/46 68/92/46
f 70/93/47 65/94/47 66/89/47
f 68/92/48 71/95/48 72/96/48
f 74/97/49 69/98/49 70/93/49
f 72/96/50 75/99/50 76/100/50
f 78/101/51 73/102/51 74/97/51
f 76/100/52 79/103/52 80/104/52
f 82/105/53 77/106/53 78/101/53
f 80/104/54 83/107/54 84/108/54
f 86/109/55 81/110/55 82/105/55
f 84/108/56 87/111/56 88/112/56
f 90/113/57 85/114/57 86/109/57
f 88/112/58 91/115/58 92/116/58
f 94/117/59 89/118/59 90/113/59
f 92/116/60 95/119/60 96/120/60
f 50/77/61 93/121/61 94/117/61
f 96/120/62 51/122/62 52/78/62
f 61/90/63 77/106/63 93/121/63
f 52/123/64 54/124/64 50/125/64
f 96/126/65 50/127/65 94/128/65
f 91/115/66 75/99/66 59/83/66
f 56/129/67 58/130/67 54/124/67
f 60/131/68 62/132/68 58/130/68
f 64/133/69 66/134/69 62/132/69
f 68/135/70 70/136/70 66/134/70
f 72/137/71 74/138/71 70/136/71
f 76/139/72 78/140/72 74/138/72
f 80/141/73 82/142/73 78/140/73
f 84/143/74 86/144/74 82/142/74
f 88/145/75 90/146/75 86/144/75
f 92/147/76 94/128/76 90/146/76
f 54/75/39 53/82/39 49/76/39
f 52/78/40 51/122/40 55/79/40
f 58/81/41 57/86/41 53/82/41
f 56/80/42 55/79/42 59/83/42
f 62/85/43 61/90/43 57/86/43
f 60/84/44 59/83/44 63/87/44
f 66/89/45 65/94/45 61/90/45
f 64/88/46 63/87/46 67/91/46
f 70/93/47 69/98/47 65/94/47
f 68/92/48 67/91/48 71/95/48
f 74/97/49 73/102/49 69/98/49
f 72/96/50 71/95/50 75/99/50
f 78/101/51 77/106/51 73/102/51
f 76/100/52 75/99/52 79/103/52
f 82/105/53 81/110/53 77/106/53
f 80/104/54 79/103/54 83/107/54
f 86/109/55 85/114/55 81/110/55
f 84/108/56 83/107/56 87/111/56
f 90/113/57 89/118/57 85/114/57
f 88/112/58 87/111/58 91/115/58
f 94/117/59 93/121/59 89/118/59
f 92/116/60 91/115/60 95/119/60
f 50/77/61 49/76/61 93/121/61
f 96/120/62 95/119/62 51/122/62
f 93/121/63 49/76/63 53/82/63
f 53/82/63 57/86/63 61/90/63
f 61/90/63 65/94/63 69/98/63
f 69/98/63 73/102/63 77/106/63
f 77/106/63 81/110/63 85/114/63
f 85/114/63 89/118/63 93/121/63
f 93/121/63 53/82/63 61/90/63
f 61/90/63 69/98/63 77/106/63
f 77/106/63 85/114/63 93/121/63
f 52/123/64 56/129/64 54/124/64
f 96/126/65 52/148/65 50/127/65
f 59/83/66 55/79/66 51/122/66
f 51/122/66 95/119/66 91/115/66
f 91/115/66 87/111/66 83/107/66
f 83/107/66 79/103/66 75/99/66
f 75/99/66 71/95/66 67/91/66
f 67/91/66 63/87/66 59/83/66
f 59/83/66 51/122/66 91/115/66
f 91/115/66 83/107/66 75/99/66
f 75/99/66 67/91/66 59/83/66
f 56/129/67 60/131/67 58/130/67
f 60/131/68 64/133/68 62/132/68
f 64/133/69 68/135/69 66/134/69
f 68/135/70 72/137/70 70/136/70
f 72/137/71 76/139/71 74/138/71
f 76/139/72 80/141/72 78/140/72
f 80/141/73 84/143/73 82/142/73
f 84/143/74 88/145/74 86/144/74
f 88/145/75 92/147/75 90/146/75
f 92/147/76 96/126/76 94/128/76
g Wine_Liquid.001_Mesh
v 0.000000 -0.150000 -0.439647
v 0.000000 -0.140230 -0.447794
v -0.000000 0.470000 -0.299647
v 0.000000 0.460230 -0.312206
v 0.219824 -0.150000 -0.380746
v 0.223897 -0.140230 -0.387801
v 0.149824 0.470000 -0.259502
v 0.156103 0.460230 -0.270379
v 0.380746 -0.150000 -0.219824
v 0.387801 -0.140230 -0.223897
v 0.259502 0.470000 -0.149824
v 0.270379 0.460230 -0.156103
v 0.439647 -0.150000 0.000000
v 0.447794 -0.140230 0.000000
v 0.299647 0.470000 -0.000000
v 0.312206 0.460230 0.000000
v 0.380746 -0.150000 0.219824
v 0.387801 -0.140230 0.223897
v 0.259502 0.470000 0.149824
v 0.270379 0.460230 0.156103
v 0.219824 -0.150000 0.380746
v 0.223897 -0.140230 0.387801
v 0.149824 0.470000 0.259502
v 0.156103 0.460230 0.270379
v -0.000000 -0.150000 0.439647
v 0.000000 -0.140230 0.447794
v 0.000000 0.470000 0.299647
v 0.000000 0.460230 0.312206
v -0.219824 -0.150000 0.380746
v -0.223897 -0.140230 0.387801
v -0.149824 0.470000 0.259502
v -0.156103 0.460230 0.270379
v -0.380746 -0.150000 0.219824
v -0.387801 -0.140230 0.223897
v -0.259502 0.470000 0.149824
v -0.270379 0.460230 0.156103
v -0.439647 -0.150000 -0.000000
v -0.447794 -0.140230 0.000000
v -0.299647 0.470000 0.000000
v -0.312206 0.460230 0.000000
v -0.380746 -0.150000 -0.219824
v -0.387801 -0.140230 -0.223897
v -0.259502 0.470000 -0.149824
v -0.270379 0.460230 -0.156103
v -0.219824 -0.150000 -0.380746
v -0.223897 -0.140230 -0.387801
v -0.149824 0.470000 -0.259502
v -0.156103 0.460230 -0.270379
vn 0.2016 -0.6273 -0.7523
vn 0.1623 0.7788 -0.6059
vn 0.5507 -0.6273 -0.5507
vn 0.4435 0.7788 -0.4435
vn 0.7523 -0.6273 -0.2016
vn 0.6059 0.7788 -0.1623
vn 0.7523 -0.6273 0.2016
vn 0.6059 0.7788 0.1623
vn 0.5507 -0.6273 0.5507
vn 0.4435 0.7788 0.4435
vn 0.2016 -0.6273 0.7523
vn 0.1623 0.7788 0.6059
vn -0.2016 -0.6273 0.7523
vn -0.1623 0.7788 0.6059
vn -0.5507 -0.6273 0.5507
vn -0.4435 0.7788 0.4435
vn -0.7523 -0.6273 0.2016
vn -0.6059 0.7788 0.1623
vn -0.7523 -0.6273 -0.2016
vn -0.6059 0.7788 -0.1623
vn -0.5507 -0.6273 -0.5507
vn -0.4435 0.7788 -0.4435
vn -0.2016 -0.6273 -0.7523
vn -0.1623 0.7788 -0.6059
vn -0.0000 -1.0000 -0.0000
vn 0.2529 0.2131 -0.9437
vn -0.2529 0.2131 -0.9437
vn -0.0000 1.0000 -0.0000
vn 0.6909 0.2131 -0.6909
vn 0.9437 0.2131 -0.2529
vn 0.9437 0.2131 0.2529
vn 0.6909 0.2131 0.6909
vn 0.2529 0.2131 0.9437
vn -0.2529 0.2131 0.9437
vn -0.6909 0.2131 0.6909
vn -0.9437 0.2131 0.2529
vn -0.9437 0.2131 -0.2529
vn -0.6909 0.2131 -0.6909
vt 0.869961 0.457778
vt 0.750000 0.484479
vt 0.750000 0.489921
vt 0.250000 0.490000
vt 0.365992 0.450905
vt 0.370000 0.457846
vt 0.957778 0.369961
vt 0.867239 0.453064
vt 0.450905 0.365992
vt 0.457846 0.370000
vt 0.984478 0.250000
vt 0.953064 0.367239
vt 0.481985 0.250000
vt 0.490000 0.250000
vt 0.957778 0.130039
vt 0.989921 0.250000
vt 0.450905 0.134008
vt 0.457846 0.130000
vt 0.869961 0.042222
vt 0.953064 0.132761
vt 0.365993 0.049095
vt 0.370000 0.042154
vt 0.750000 0.015521
vt 0.867239 0.046936
vt 0.250000 0.018015
vt 0.250000 0.010000
vt 0.630039 0.042222
vt 0.750000 0.010079
vt 0.134007 0.049095
vt 0.130000 0.042154
vt 0.542222 0.130039
vt 0.632761 0.046936
vt 0.049095 0.134008
vt 0.042154 0.130000
vt 0.515521 0.250000
vt 0.546936 0.132761
vt 0.018015 0.250000
vt 0.010000 0.250000
vt 0.542222 0.369961
vt 0.510079 0.250000
vt 0.049095 0.365992
vt 0.042154 0.370000
vt 0.630039 0.457778
vt 0.546936 0.367239
vt 0.134008 0.450905
vt 0.130000 0.457846
vt 0.632761 0.453064
vt 0.250000 0.481985
vt 1.000000 0.507879
vt 0.916667 0.992121
vt 0.916667 0.507879
vt 0.083333 0.507879
vt 0.000000 0.992121
vt 0.000000 0.507879
vt 0.833333 0.507879
vt 0.750000 0.992121
vt 0.750000 0.507879
vt 0.666667 0.992121
vt 0.666667 0.507879
vt 0.583333 0.507879
vt 0.500000 0.992121
vt 0.500000 0.507879
vt 0.416667 0.992121
vt 0.416667 0.507879
vt 0.333333 0.507879
vt 0.250000 0.992121
vt 0.250000 0.507879
vt 0.166667 0.992121
vt 0.166667 0.507879
vt 1.000000 0.992121
vt 0.083333 0.992121
vt 0.833333 0.992121
vt 0.583333 0.992121
vt 0.333333 0.992121
s 0
g Wine_Liquid.001_MAT_Wine
usemtl MAT_Wine
f 102/149/77 97/150/77 98/151/77
f 100/152/78 103/153/78 104/154/78
f 106/155/79 101/156/79 102/149/79
f 104/154/80 107/157/80 108/158/80
f 106/155/81 109/159/81 105/160/81
f 108/158/82 111/161/82 112/162/82
f 114/163/83 109/159/83 110/164/83
f 112/162/84 115/165/84 116/166/84
f 118/167/85 113/168/85 114/163/85
f 116/166/86 119/169/86 120/170/86
f 118/167/87 121/171/87 117/172/87
f 120/170/88 123/173/88 124/174/88
f 126/175/89 121/171/89 122/176/89
f 124/174/90 127/177/90 128/178/90
f 130/179/91 125/180/91 126/175/91
f 128/178/92 131/181/92 132/182/92
f 130/179/93 133/183/93 129/184/93
f 132/182/94 135/185/94 136/186/94
f 138/187/95 133/183/95 134/188/95
f 136/186/96 139/189/96 140/190/96
f 142/191/97 137/192/97 138/187/97
f 140/190/98 143/193/98 144/194/98
f 142/191/99 97/150/99 141/195/99
f 144/194/100 99/196/100 100/152/100
f 109/159/101 125/180/101 141/195/101
f 98/197/102 104/198/102 102/199/102
f 142/200/103 100/201/103 98/202/103
f 139/189/104 123/173/104 107/157/104
f 104/198/105 106/203/105 102/199/105
f 106/203/106 112/204/106 110/205/106
f 110/205/107 116/206/107 114/207/107
f 116/206/108 118/208/108 114/207/108
f 118/208/109 124/209/109 122/210/109
f 122/210/110 128/211/110 126/212/110
f 128/211/111 130/213/111 126/212/111
f 130/213/112 136/214/112 134/215/112
f 134/215/113 140/216/113 138/217/113
f 140/216/114 142/200/114 138/217/114
f 102/149/77 101/156/77 97/150/77
f 100/152/78 99/196/78 103/153/78
f 106/155/79 105/160/79 101/156/79
f 104/154/80 103/153/80 107/157/80
f 106/155/81 110/164/81 109/159/81
f 108/158/82 107/157/82 111/161/82
f 114/163/83 113/168/83 109/159/83
f 112/162/84 111/161/84 115/165/84
f 118/167/85 117/172/85 113/168/85
f 116/166/86 115/165/86 119/169/86
f 118/167/87 122/176/87 121/171/87
f 120/170/88 119/169/88 123/173/88
f 126/175/89 125/180/89 121/171/89
f 124/174/90 123/173/90 127/177/90
f 130/179/91 129/184/91 125/180/91
f 128/178/92 127/177/92 131/181/92
f 130/179/93 134/188/93 133/183/93
f 132/182/94 131/181/94 135/185/94
f 138/187/95 137/192/95 133/183/95
f 136/186/96 135/185/96 139/189/96
f 142/191/97 141/195/97 137/192/97
f 140/190/98 139/189/98 143/193/98
f 142/191/99 98/151/99 97/150/99
f 144/194/100 143/193/100 99/196/100
f 141/195/101 97/150/101 101/156/101
f 101/156/101 105/160/101 109/159/101
f 109/159/101 113/168/101 117/172/101
f 117/172/101 121/171/101 125/180/101
f 125/180/101 129/184/101 133/183/101
f 133/183/101 137/192/101 141/195/101
f 141/195/101 101/156/101 109/159/101
f 109/159/101 117/172/101 125/180/101
f 125/180/101 133/183/101 141/195/101
f 98/197/102 100/218/102 104/198/102
f 142/200/103 144/219/103 100/201/103
f 107/157/104 103/153/104 99/196/104
f 99/196/104 143/193/104 139/189/104
f 139/189/104 135/185/104 131/181/104
f 131/181/104 127/177/104 123/173/104
f 123/173/104 119/169/104 115/165/104
f 115/165/104 111/161/104 107/157/104
f 107/157/104 99/196/104 139/189/104
f 139/189/104 131/181/104 123/173/104
f 123/173/104 115/165/104 107/157/104
f 104/198/105 108/220/105 106/203/105
f 106/203/106 108/220/106 112/204/106
f 110/205/107 112/204/107 116/206/107
f 116/206/108 120/221/108 118/208/108
f 118/208/109 120/221/109 124/209/109
f 122/210/110 124/209/110 128/211/110
f 128/211/111 132/222/111 130/213/111
f 130/213/112 132/222/112 136/214/112
f 134/215/113 136/214/113 140/216/113
f 140/216/114 144/219/114 142/200/114
g Wine_Rim.001_Mesh
v 0.395000 0.820000 0.000000
v 0.360000 0.855000 0.000000
v 0.325000 0.820000 0.000000
v 0.360000 0.785000 0.000000
v 0.355883 0.820000 -0.171384
v 0.324349 0.855000 -0.156198
v 0.292815 0.820000 -0.141012
v 0.324349 0.785000 -0.156198
v 0.246278 0.820000 -0.308823
v 0.224456 0.855000 -0.281459
v 0.202634 0.820000 -0.254095
v 0.224456 0.785000 -0.281459
v 0.087896 0.820000 -0.385097
v 0.080108 0.855000 -0.350974
v 0.072319 0.820000 -0.316852
v 0.080108 0.785000 -0.350974
v -0.087896 0.820000 -0.385097
v -0.080108 0.855000 -0.350974
v -0.072319 0.820000 -0.316852
v -0.080108 0.785000 -0.350974
v -0.246279 0.820000 -0.308823
v -0.224456 0.855000 -0.281459
v -0.202634 0.820000 -0.254095
v -0.224456 0.785000 -0.281459
v -0.355883 0.820000 -0.171384
v -0.324349 0.855000 -0.156198
v -0.292815 0.820000 -0.141012
v -0.324349 0.785000 -0.156198
v -0.395000 0.820000 -0.000000
v -0.360000 0.855000 -0.000000
v -0.325000 0.820000 -0.000000
v -0.360000 0.785000 -0.000000
v -0.355883 0.820000 0.171384
v -0.324349 0.855000 0.156198
v -0.292815 0.820000 0.141012
v -0.324349 0.785000 0.156198
v -0.246279 0.820000 0.308823
v -0.224456 0.855000 0.281459
v -0.202634 0.820000 0.254095
v -0.224456 0.785000 0.281459
v -0.087896 0.820000 0.385097
v -0.080108 0.855000 0.350974
v -0.072319 0.820000 0.316852
v -0.080108 0.785000 0.350974
v 0.087896 0.820000 0.385097
v 0.080108 0.855000 0.350974
v 0.072319 0.820000 0.316852
v 0.080108 0.785000 0.350974
v 0.246278 0.820000 0.308824
v 0.224456 0.855000 0.281459
v 0.202634 0.820000 0.254095
v 0.224456 0.785000 0.281459
v 0.355883 0.820000 0.171384
v 0.324349 0.855000 0.156198
v 0.292815 0.820000 0.141012
v 0.324349 0.785000 0.156198
vn 0.6981 0.6981 -0.1593
vn -0.6981 0.6981 0.1593
vn -0.6981 -0.6981 0.1593
vn 0.6981 -0.6981 -0.1593
vn 0.5598 0.6981 -0.4464
vn -0.5598 0.6981 0.4464
vn -0.5598 -0.6981 0.4464
vn 0.5598 -0.6981 -0.4464
vn 0.3107 0.6981 -0.6451
vn -0.3107 0.6981 0.6451
vn -0.3107 -0.6981 0.6451
vn 0.3107 -0.6981 -0.6451
vn -0.0000 0.6981 -0.7160
vn -0.0000 0.6981 0.7160
vn -0.0000 -0.6981 0.7160
vn -0.0000 -0.6981 -0.7160
vn -0.3107 0.6981 -0.6451
vn 0.3107 0.6981 0.6451
vn 0.3107 -0.6981 0.6451
vn -0.3107 -0.6981 -0.6451
vn -0.5598 0.6981 -0.4464
vn 0.5598 0.6981 0.4464
vn 0.5598 -0.6981 0.4464
vn -0.5598 -0.6981 -0.4464
vn -0.6981 0.6981 -0.1593
vn 0.6981 0.6981 0.1593
vn 0.6981 -0.6981 0.1593
vn -0.6981 -0.6981 -0.1593
vt 0.500000 0.500000
vt 0.571429 0.750000
vt 0.500000 0.750000
vt 0.500000 1.000000
vt 0.571429 0.000000
vt 0.500000 0.250000
vt 0.500000 0.000000
vt 0.571429 0.250000
vt 0.642857 0.500000
vt 0.571429 0.500000
vt 0.642857 0.750000
vt 0.571429 1.000000
vt 0.642857 0.000000
vt 0.714286 0.750000
vt 0.642857 1.000000
vt 0.714286 0.250000
vt 0.642857 0.250000
vt 0.714286 0.500000
vt 0.785714 0.750000
vt 0.714286 1.000000
vt 0.785714 0.000000
vt 0.714286 0.000000
vt 0.785714 0.500000
vt 0.857143 0.750000
vt 0.857143 1.000000
vt 0.785714 1.000000
vt 0.857143 0.000000
vt 0.785714 0.250000
vt 0.857143 0.250000
vt 0.928571 0.500000
vt 0.857143 0.500000
vt 0.928571 1.000000
vt 0.928571 0.000000
vt 0.928571 0.250000
vt 1.000000 0.500000
vt 0.928571 0.750000
vt 1.000000 0.750000
vt 1.000000 0.000000
vt -0.000000 0.500000
vt 0.071429 0.750000
vt -0.000000 0.750000
vt -0.000000 1.000000
vt -0.000000 0.000000
vt 0.071429 0.250000
vt -0.000000 0.250000
vt 0.071429 0.500000
vt 0.142857 0.750000
vt 0.071429 1.000000
vt 0.142857 0.000000
vt 0.071429 0.000000
vt 0.142857 0.250000
vt 0.214286 0.500000
vt 0.142857 0.500000
vt 0.214286 0.750000
vt 0.142857 1.000000
vt 0.214286 0.000000
vt 0.285714 0.750000
vt 0.285714 1.000000
vt 0.214286 1.000000
vt 0.285714 0.000000
vt 0.214286 0.250000
vt 0.285714 0.250000
vt 0.357143 0.500000
vt 0.285714 0.500000
vt 0.357143 0.750000
vt 0.357143 0.000000
vt 0.428571 0.500000
vt 0.428571 0.750000
vt 0.357143 1.000000
vt 0.428571 0.000000
vt 0.357143 0.250000
vt 0.428571 0.250000
vt 0.428571 1.000000
vt 1.000000 1.000000
vt 1.000000 0.250000
s 0
g Wine_Rim.001_MAT_OldGold
usemtl MAT_OldGold
f 145/223/115 150/224/115 146/225/115
f 150/224/116 147/226/116 146/225/116
f 151/227/117 148/228/117 147/229/117
f 152/230/118 145/223/118 148/228/118
f 153/231/119 150/224/119 149/232/119
f 154/233/120 151/234/120 150/224/120
f 155/235/121 152/230/121 151/227/121
f 152/230/122 153/231/122 149/232/122
f 153/231/123 158/236/123 154/233/123
f 158/236/124 155/237/124 154/233/124
f 155/235/125 160/238/125 156/239/125
f 160/238/126 153/231/126 156/239/126
f 157/240/127 162/241/127 158/236/127
f 162/241/128 159/242/128 158/236/128
f 163/243/129 160/238/129 159/244/129
f 160/238/130 161/245/130 157/240/130
f 161/245/131 166/246/131 162/241/131
f 162/241/132 167/247/132 163/248/132
f 167/249/133 164/250/133 163/243/133
f 168/251/134 161/245/134 164/250/134
f 169/252/135 166/246/135 165/253/135
f 166/246/136 171/254/136 167/247/136
f 171/255/137 168/251/137 167/249/137
f 172/256/138 165/253/138 168/251/138
f 173/257/139 170/258/139 169/252/139
f 174/259/140 171/254/140 170/258/140
f 175/260/141 172/256/141 171/255/141
f 172/256/142 173/257/142 169/252/142
f 173/261/116 178/262/116 174/263/116
f 178/262/115 175/264/115 174/263/115
f 175/265/118 180/266/118 176/267/118
f 180/266/117 173/261/117 176/267/117
f 177/268/120 182/269/120 178/262/120
f 182/269/119 179/270/119 178/262/119
f 183/271/122 180/266/122 179/272/122
f 184/273/121 177/268/121 180/266/121
f 185/274/124 182/269/124 181/275/124
f 186/276/123 183/277/123 182/269/123
f 187/278/126 184/273/126 183/271/126
f 184/273/125 185/274/125 181/275/125
f 185/274/128 190/279/128 186/276/128
f 186/276/127 191/280/127 187/281/127
f 191/282/130 188/283/130 187/278/130
f 192/284/129 185/274/129 188/283/129
f 193/285/132 190/279/132 189/286/132
f 194/287/131 191/280/131 190/279/131
f 195/288/134 192/284/134 191/282/134
f 192/284/133 193/285/133 189/286/133
f 197/289/136 194/287/136 193/285/136
f 198/290/135 195/291/135 194/287/135
f 199/292/138 196/293/138 195/288/138
f 200/294/137 193/285/137 196/293/137
f 145/223/140 198/290/140 197/289/140
f 146/225/139 199/295/139 198/290/139
f 147/229/142 200/294/142 199/292/142
f 148/228/141 197/289/141 200/294/141
f 145/223/115 149/232/115 150/224/115
f 150/224/116 151/234/116 147/226/116
f 151/227/117 152/230/117 148/228/117
f 152/230/118 149/232/118 145/223/118
f 153/231/119 154/233/119 150/224/119
f 154/233/120 155/237/120 151/234/120
f 155/235/121 156/239/121 152/230/121
f 152/230/122 156/239/122 153/231/122
f 153/231/123 157/240/123 158/236/123
f 158/236/124 159/242/124 155/237/124
f 155/235/125 159/244/125 160/238/125
f 160/238/126 157/240/126 153/231/126
f 157/240/127 161/245/127 162/241/127
f 162/241/128 163/248/128 159/242/128
f 163/243/129 164/250/129 160/238/129
f 160/238/130 164/250/130 161/245/130
f 161/245/131 165/253/131 166/246/131
f 162/241/132 166/246/132 167/247/132
f 167/249/133 168/251/133 164/250/133
f 168/251/134 165/253/134 161/245/134
f 169/252/135 170/258/135 166/246/135
f 166/246/136 170/258/136 171/254/136
f 171/255/137 172/256/137 168/251/137
f 172/256/138 169/252/138 165/253/138
f 173/257/139 174/259/139 170/258/139
f 174/259/140 175/296/140 171/254/140
f 175/260/141 176/297/141 172/256/141
f 172/256/142 176/297/142 173/257/142
f 173/261/116 177/268/116 178/262/116
f 178/262/115 179/270/115 175/264/115
f 175/265/118 179/272/118 180/266/118
f 180/266/117 177/268/117 173/261/117
f 177/268/120 181/275/120 182/269/120
f 182/269/119 183/277/119 179/270/119
f 183/271/122 184/273/122 180/266/122
f 184/273/121 181/275/121 177/268/121
f 185/274/124 186/276/124 182/269/124
f 186/276/123 187/281/123 183/277/123
f 187/278/126 188/283/126 184/273/126
f 184/273/125 188/283/125 185/274/125
f 185/274/128 189/286/128 190/279/128
f 186/276/127 190/279/127 191/280/127
f 191/282/130 192/284/130 188/283/130
f 192/284/129 189/286/129 185/274/129
f 193/285/132 194/287/132 190/279/132
f 194/287/131 195/291/131 191/280/131
f 195/288/134 196/293/134 192/284/134
f 192/284/133 196/293/133 193/285/133
f 197/289/136 198/290/136 194/287/136
f 198/290/135 199/295/135 195/291/135
f 199/292/138 200/294/138 196/293/138
f 200/294/137 197/289/137 193/285/137
f 145/223/140 146/225/140 198/290/140
f 146/225/139 147/226/139 199/295/139
f 147/229/142 148/228/142 200/294/142
f 148/228/141 145/223/141 197/289/141
g Wine_Stem.001_Mesh
v 0.000000 -0.990000 -0.063764
v -0.013858 -0.975000 -0.074260
v 0.013858 -0.975000 -0.074260
v 0.000000 -0.110000 -0.063764
v 0.013858 -0.125000 -0.074260
v -0.013858 -0.125000 -0.074260
v 0.045088 -0.990000 -0.045088
v 0.042710 -0.975000 -0.062309
v 0.062309 -0.975000 -0.042710
v 0.045088 -0.110000 -0.045088
v 0.062309 -0.125000 -0.042710
v 0.042710 -0.125000 -0.062309
v 0.063764 -0.990000 0.000000
v 0.074260 -0.975000 -0.013858
v 0.074260 -0.975000 0.013858
v 0.063764 -0.110000 0.000000
v 0.074260 -0.125000 0.013858
v 0.074260 -0.125000 -0.013858
v 0.045088 -0.990000 0.045088
v 0.062309 -0.975000 0.042710
v 0.042710 -0.975000 0.062309
v 0.045088 -0.110000 0.045088
v 0.042710 -0.125000 0.062309
v 0.062309 -0.125000 0.042710
v 0.000000 -0.990000 0.063764
v 0.013858 -0.975000 0.074260
v -0.013858 -0.975000 0.074260
v 0.000000 -0.110000 0.063764
v -0.013858 -0.125000 0.074260
v 0.013858 -0.125000 0.074260
v -0.045088 -0.990000 0.045088
v -0.042710 -0.975000 0.062309
v -0.062309 -0.975000 0.042710
v -0.045088 -0.110000 0.045088
v -0.062309 -0.125000 0.042710
v -0.042710 -0.125000 0.062309
v -0.063764 -0.990000 0.000000
v -0.074260 -0.975000 0.013858
v -0.074260 -0.975000 -0.013858
v -0.063764 -0.110000 0.000000
v -0.074260 -0.125000 -0.013858
v -0.074260 -0.125000 0.013858
v -0.045088 -0.990000 -0.045088
v -0.062309 -0.975000 -0.042710
v -0.042710 -0.975000 -0.062309
v -0.045088 -0.110000 -0.045088
v -0.042710 -0.125000 -0.062309
v -0.062309 -0.125000 -0.042710
vn -0.0000 -0.5733 -0.8193
vn -0.0000 0.5733 -0.8193
vn 0.5794 -0.5733 -0.5794
vn 0.5794 0.5733 -0.5794
vn 0.8193 -0.5733 -0.0000
vn 0.8193 0.5733 -0.0000
vn 0.5794 -0.5733 0.5794
vn 0.5794 0.5733 0.5794
vn -0.0000 -0.5733 0.8193
vn -0.0000 0.5733 0.8193
vn -0.5794 -0.5733 0.5794
vn -0.5794 0.5733 0.5794
vn -0.8193 -0.5733 -0.0000
vn -0.8193 0.5733 -0.0000
vn -0.5794 -0.5733 -0.5794
vn -0.5794 0.5733 -0.5794
vn 0.2706 -0.7071 -0.6533
vn 0.2706 0.7071 -0.6533
vn -0.0000 -0.0000 -1.0000
vn 0.7071 -0.0000 -0.7071
vn 0.6533 -0.7071 -0.2706
vn 0.6533 0.7071 -0.2706
vn 1.0000 -0.0000 -0.0000
vn 0.6533 -0.7071 0.2706
vn 0.6533 0.7071 0.2706
vn 0.7071 -0.0000 0.7071
vn 0.2706 -0.7071 0.6533
vn 0.2706 0.7071 0.6533
vn -0.0000 -0.0000 1.0000
vn -0.2706 -0.7071 0.6533
vn -0.2706 0.7071 0.6533
vn -0.7071 -0.0000 0.7071
vn -0.6533 -0.7071 0.2706
vn -0.6533 0.7071 0.2706
vn -1.0000 -0.0000 -0.0000
vn -0.6533 -0.7071 -0.2706
vn -0.6533 0.7071 -0.2706
vn -0.7071 -0.0000 -0.7071
vn -0.2706 -0.7071 -0.6533
vn -0.2706 0.7071 -0.6533
vn -0.0000 -1.0000 -0.0000
vn 0.3827 -0.0000 -0.9239
vn -0.3827 -0.0000 -0.9239
vn -0.0000 1.0000 -0.0000
vn 0.9239 -0.0000 -0.3827
vn 0.9239 -0.0000 0.3827
vn 0.3827 -0.0000 0.9239
vn -0.3827 -0.0000 0.9239
vn -0.9239 -0.0000 0.3827
vn -0.9239 -0.0000 -0.3827
vt 0.750000 0.441292
vt 0.708425 0.472779
vt 0.791575 0.472779
vt 0.250000 0.441292
vt 0.291575 0.472779
vt 0.208425 0.472779
vt 0.885264 0.385264
vt 0.878131 0.436926
vt 0.936926 0.378131
vt 0.385264 0.385264
vt 0.436926 0.378131
vt 0.378131 0.436926
vt 0.941292 0.250000
vt 0.972779 0.291575
vt 0.972779 0.208425
vt 0.441292 0.250000
vt 0.472779 0.208425
vt 0.472779 0.291575
vt 0.885264 0.114736
vt 0.936926 0.121869
vt 0.878131 0.063074
vt 0.385264 0.114736
vt 0.378131 0.063074
vt 0.436926 0.121869
vt 0.750000 0.058708
vt 0.791575 0.027221
vt 0.708425 0.027221
vt 0.250000 0.058708
vt 0.208425 0.027221
vt 0.291575 0.027221
vt 0.614736 0.114736
vt 0.621869 0.063074
vt 0.563074 0.121869
vt 0.114736 0.114736
vt 0.063074 0.121869
vt 0.121869 0.063074
vt 0.558708 0.250000
vt 0.527221 0.208425
vt 0.527221 0.291575
vt 0.058708 0.250000
vt 0.027221 0.291575
vt 0.027221 0.208425
vt 0.614736 0.385264
vt 0.563074 0.378131
vt 0.621869 0.436926
vt 0.114736 0.385264
vt 0.121869 0.436926
vt 0.063074 0.378131
vt 0.030623 0.991477
vt 0.000000 0.508523
vt 0.030623 0.508523
vt 0.844377 0.508523
vt 0.905623 0.991477
vt 0.844377 0.991477
vt 0.719377 0.508523
vt 0.780623 0.991477
vt 0.719377 0.991477
vt 0.594377 0.508523
vt 0.655623 0.991477
vt 0.594377 0.991477
vt 0.469377 0.508523
vt 0.530623 0.991477
vt 0.469377 0.991477
vt 0.344377 0.508523
vt 0.405623 0.991477
vt 0.344377 0.991477
vt 0.219377 0.508523
vt 0.280623 0.991477
vt 0.219377 0.991477
vt 0.094377 0.508523
vt 0.155623 0.991477
vt 0.094377 0.991477
vt 0.969377 0.991477
vt 0.905623 0.508523
vt 0.969377 0.508523
vt 0.780623 0.508523
vt 0.655623 0.508523
vt 0.530623 0.508523
vt 0.405623 0.508523
vt 0.280623 0.508523
vt 0.155623 0.508523
vt 0.000000 0.991477
s 0
g Wine_Stem.001_MAT_GlassClear
usemtl MAT_GlassClear
f 201/298/143 202/299/143 203/300/143
f 204/301/144 205/302/144 206/303/144
f 207/304/145 208/305/145 209/306/145
f 210/307/146 211/308/146 212/309/146
f 213/310/147 214/311/147 215/312/147
f 216/313/148 217/314/148 218/315/148
f 219/316/149 220/317/149 221/318/149
f 222/319/150 223/320/150 224/321/150
f 225/322/151 226/323/151 227/324/151
f 228/325/152 229/326/152 230/327/152
f 231/328/153 232/329/153 233/330/153
f 234/331/154 235/332/154 236/333/154
f 237/334/155 238/335/155 239/336/155
f 240/337/156 241/338/156 242/339/156
f 243/340/157 244/341/157 245/342/157
f 246/343/158 247/344/158 248/345/158
f 203/300/159 207/304/159 201/298/159
f 205/302/160 210/307/160 212/309/160
f 206/346/161 203/347/161 202/348/161
f 209/349/162 212/350/162 211/351/162
f 214/311/163 207/304/163 209/306/163
f 218/315/164 210/307/164 216/313/164
f 215/352/165 218/353/165 217/354/165
f 215/312/166 219/316/166 213/310/166
f 217/314/167 222/319/167 224/321/167
f 221/355/168 224/356/168 223/357/168
f 226/323/169 219/316/169 221/318/169
f 230/327/170 222/319/170 228/325/170
f 227/358/171 230/359/171 229/360/171
f 227/324/172 231/328/172 225/322/172
f 229/326/173 234/331/173 236/333/173
f 233/361/174 236/362/174 235/363/174
f 238/335/175 231/328/175 233/330/175
f 242/339/176 234/331/176 240/337/176
f 239/364/177 242/365/177 241/366/177
f 239/336/178 243/340/178 237/334/178
f 241/338/179 246/343/179 248/345/179
f 245/367/180 248/368/180 247/369/180
f 202/299/181 243/340/181 245/342/181
f 206/303/182 246/343/182 204/301/182
f 219/316/183 231/328/183 243/340/183
f 205/370/184 208/371/184 203/372/184
f 247/369/185 202/348/185 245/367/185
f 240/337/186 228/325/186 216/313/186
f 211/351/187 214/373/187 209/349/187
f 217/354/188 220/374/188 215/352/188
f 223/357/189 226/375/189 221/355/189
f 229/360/190 232/376/190 227/358/190
f 235/363/191 238/377/191 233/361/191
f 241/366/192 244/378/192 239/364/192
f 203/300/159 208/305/159 207/304/159
f 205/302/160 204/301/160 210/307/160
f 206/346/161 205/379/161 203/347/161
f 209/349/162 208/371/162 212/350/162
f 214/311/163 213/310/163 207/304/163
f 218/315/164 211/308/164 210/307/164
f 215/352/165 214/373/165 218/353/165
f 215/312/166 220/317/166 219/316/166
f 217/314/167 216/313/167 222/319/167
f 221/355/168 220/374/168 224/356/168
f 226/323/169 225/322/169 219/316/169
f 230/327/170 223/320/170 222/319/170
f 227/358/171 226/375/171 230/359/171
f 227/324/172 232/329/172 231/328/172
f 229/326/173 228/325/173 234/331/173
f 233/361/174 232/376/174 236/362/174
f 238/335/175 237/334/175 231/328/175
f 242/339/176 235/332/176 234/331/176
f 239/364/177 238/377/177 242/365/177
f 239/336/178 244/341/178 243/340/178
f 241/338/179 240/337/179 246/343/179
f 245/367/180 244/378/180 248/368/180
f 202/299/181 201/298/181 243/340/181
f 206/303/182 247/344/182 246/343/182
f 243/340/183 201/298/183 207/304/183
f 207/304/183 213/310/183 219/316/183
f 219/316/183 225/322/183 231/328/183
f 231/328/183 237/334/183 243/340/183
f 243/340/183 207/304/183 219/316/183
f 205/370/184 212/350/184 208/371/184
f 247/369/185 206/346/185 202/348/185
f 216/313/186 210/307/186 204/301/186
f 204/301/186 246/343/186 240/337/186
f 240/337/186 234/331/186 228/325/186
f 228/325/186 222/319/186 216/313/186
f 216/313/186 204/301/186 240/337/186
f 211/351/187 218/353/187 214/373/187
f 217/354/188 224/356/188 220/374/188
f 223/357/189 230/359/189 226/375/189
f 229/360/190 236/362/190 232/376/190
f 235/363/191 242/365/191 238/377/191
f 241/366/192 248/368/192 244/378/192
