# Blender 5.2.2 LTS
# www.blender.org
mtllib glass_bead.mtl
g A_DrilledLampworkBody.001_A_DrilledLampworkBody_profile.001
v 0.240000 0.000000 0.280000
v 0.360000 0.000000 0.520000
v 0.590000 0.000000 0.550000
v 0.770000 0.000000 0.350000
v 0.840000 0.000000 0.000000
v 0.770000 0.000000 -0.350000
v 0.590000 0.000000 -0.550000
v 0.360000 0.000000 -0.520000
v 0.240000 0.000000 -0.280000
v 0.237947 -0.031326 0.280000
v 0.356920 -0.046989 0.520000
v 0.584952 -0.077010 0.550000
v 0.763413 -0.100505 0.350000
v 0.832814 -0.109642 0.000000
v 0.763413 -0.100505 -0.350000
v 0.584952 -0.077010 -0.550000
v 0.356920 -0.046989 -0.520000
v 0.237947 -0.031326 -0.280000
v 0.231822 -0.062117 0.280000
v 0.347733 -0.093175 0.520000
v 0.569896 -0.152703 0.550000
v 0.743763 -0.199291 0.350000
v 0.811378 -0.217408 0.000000
v 0.743763 -0.199291 -0.350000
v 0.569896 -0.152703 -0.550000
v 0.347733 -0.093175 -0.520000
v 0.231822 -0.062117 -0.280000
v 0.221731 -0.091844 0.280000
v 0.332597 -0.137766 0.520000
v 0.545089 -0.225783 0.550000
v 0.711387 -0.294666 0.350000
v 0.776059 -0.321454 0.000000
v 0.711387 -0.294666 -0.350000
v 0.545089 -0.225783 -0.550000
v 0.332597 -0.137766 -0.520000
v 0.221731 -0.091844 -0.280000
v 0.207846 -0.120000 0.280000
v 0.311769 -0.180000 0.520000
v 0.510955 -0.295000 0.550000
v 0.666840 -0.385000 0.350000
v 0.727461 -0.420000 0.000000
v 0.666840 -0.385000 -0.350000
v 0.510955 -0.295000 -0.550000
v 0.311769 -0.180000 -0.520000
v 0.207846 -0.120000 -0.280000
v 0.190405 -0.146103 0.280000
v 0.285607 -0.219154 0.520000
v 0.468078 -0.359169 0.550000
v 0.610882 -0.468746 0.350000
v 0.666417 -0.511360 0.000000
v 0.610882 -0.468746 -0.350000
v 0.468078 -0.359169 -0.550000
v 0.285607 -0.219154 -0.520000
v 0.190405 -0.146103 -0.280000
v 0.169706 -0.169706 0.280000
v 0.254558 -0.254558 0.520000
v 0.417193 -0.417193 0.550000
v 0.544472 -0.544472 0.350000
v 0.593970 -0.593970 0.000000
v 0.544472 -0.544472 -0.350000
v 0.417193 -0.417193 -0.550000
v 0.254558 -0.254558 -0.520000
v 0.169706 -0.169706 -0.280000
v 0.146103 -0.190405 0.280000
v 0.219154 -0.285607 0.520000
v 0.359169 -0.468078 0.550000
v 0.468746 -0.610882 0.350000
v 0.511360 -0.666417 0.000000
v 0.468746 -0.610882 -0.350000
v 0.359169 -0.468078 -0.550000
v 0.219154 -0.285607 -0.520000
v 0.146103 -0.190405 -0.280000
v 0.120000 -0.207846 0.280000
v 0.180000 -0.311769 0.520000
v 0.295000 -0.510955 0.550000
v 0.385000 -0.666840 0.350000
v 0.420000 -0.727461 0.000000
v 0.385000 -0.666840 -0.350000
v 0.295000 -0.510955 -0.550000
v 0.180000 -0.311769 -0.520000
v 0.120000 -0.207846 -0.280000
v 0.091844 -0.221731 0.280000
v 0.137766 -0.332597 0.520000
v 0.225783 -0.545089 0.550000
v 0.294666 -0.711387 0.350000
v 0.321454 -0.776059 0.000000
v 0.294666 -0.711387 -0.350000
v 0.225783 -0.545089 -0.550000
v 0.137766 -0.332597 -0.520000
v 0.091844 -0.221731 -0.280000
v 0.062117 -0.231822 0.280000
v 0.093175 -0.347733 0.520000
v 0.152703 -0.569896 0.550000
v 0.199291 -0.743763 0.350000
v 0.217408 -0.811378 0.000000
v 0.199291 -0.743763 -0.350000
v 0.152703 -0.569896 -0.550000
v 0.093175 -0.347733 -0.520000
v 0.062117 -0.231822 -0.280000
v 0.031326 -0.237947 0.280000
v 0.046989 -0.356920 0.520000
v 0.077010 -0.584952 0.550000
v 0.100505 -0.763413 0.350000
v 0.109642 -0.832814 0.000000
v 0.100505 -0.763413 -0.350000
v 0.077010 -0.584952 -0.550000
v 0.046989 -0.356920 -0.520000
v 0.031326 -0.237947 -0.280000
v -0.000000 -0.240000 0.280000
v -0.000000 -0.360000 0.520000
v -0.000000 -0.590000 0.550000
v -0.000000 -0.770000 0.350000
v -0.000000 -0.840000 0.000000
v -0.000000 -0.770000 -0.350000
v -0.000000 -0.590000 -0.550000
v -0.000000 -0.360000 -0.520000
v -0.000000 -0.240000 -0.280000
v -0.031326 -0.237947 0.280000
v -0.046989 -0.356920 0.520000
v -0.077010 -0.584952 0.550000
v -0.100505 -0.763413 0.350000
v -0.109642 -0.832814 0.000000
v -0.100505 -0.763413 -0.350000
v -0.077010 -0.584952 -0.550000
v -0.046989 -0.356920 -0.520000
v -0.031326 -0.237947 -0.280000
v -0.062117 -0.231822 0.280000
v -0.093175 -0.347733 0.520000
v -0.152703 -0.569896 0.550000
v -0.199291 -0.743763 0.350000
v -0.217408 -0.811378 0.000000
v -0.199291 -0.743763 -0.350000
v -0.152703 -0.569896 -0.550000
v -0.093175 -0.347733 -0.520000
v -0.062117 -0.231822 -0.280000
v -0.091844 -0.221731 0.280000
v -0.137766 -0.332597 0.520000
v -0.225783 -0.545089 0.550000
v -0.294666 -0.711387 0.350000
v -0.321454 -0.776059 0.000000
v -0.294666 -0.711387 -0.350000
v -0.225783 -0.545089 -0.550000
v -0.137766 -0.332597 -0.520000
v -0.091844 -0.221731 -0.280000
v -0.120000 -0.207846 0.280000
v -0.180000 -0.311769 0.520000
v -0.295000 -0.510955 0.550000
v -0.385000 -0.666840 0.350000
v -0.420000 -0.727461 0.000000
v -0.385000 -0.666840 -0.350000
v -0.295000 -0.510955 -0.550000
v -0.180000 -0.311769 -0.520000
v -0.120000 -0.207846 -0.280000
v -0.146103 -0.190405 0.280000
v -0.219154 -0.285607 0.520000
v -0.359169 -0.468078 0.550000
v -0.468746 -0.610882 0.350000
v -0.511360 -0.666417 0.000000
v -0.468746 -0.610882 -0.350000
v -0.359169 -0.468078 -0.550000
v -0.219154 -0.285607 -0.520000
v -0.146103 -0.190405 -0.280000
v -0.169706 -0.169706 0.280000
v -0.254558 -0.254558 0.520000
v -0.417193 -0.417193 0.550000
v -0.544472 -0.544472 0.350000
v -0.593970 -0.593970 0.000000
v -0.544472 -0.544472 -0.350000
v -0.417193 -0.417193 -0.550000
v -0.254558 -0.254558 -0.520000
v -0.169706 -0.169706 -0.280000
v -0.190405 -0.146103 0.280000
v -0.285607 -0.219154 0.520000
v -0.468078 -0.359169 0.550000
v -0.610882 -0.468746 0.350000
v -0.666417 -0.511360 0.000000
v -0.610882 -0.468746 -0.350000
v -0.468078 -0.359169 -0.550000
v -0.285607 -0.219154 -0.520000
v -0.190405 -0.146103 -0.280000
v -0.207846 -0.120000 0.280000
v -0.311769 -0.180000 0.520000
v -0.510955 -0.295000 0.550000
v -0.666840 -0.385000 0.350000
v -0.727461 -0.420000 0.000000
v -0.666840 -0.385000 -0.350000
v -0.510955 -0.295000 -0.550000
v -0.311769 -0.180000 -0.520000
v -0.207846 -0.120000 -0.280000
v -0.221731 -0.091844 0.280000
v -0.332597 -0.137766 0.520000
v -0.545089 -0.225783 0.550000
v -0.711387 -0.294666 0.350000
v -0.776059 -0.321454 0.000000
v -0.711387 -0.294666 -0.350000
v -0.545089 -0.225783 -0.550000
v -0.332597 -0.137766 -0.520000
v -0.221731 -0.091844 -0.280000
v -0.231822 -0.062117 0.280000
v -0.347733 -0.093175 0.520000
v -0.569896 -0.152703 0.550000
v -0.743763 -0.199291 0.350000
v -0.811378 -0.217408 0.000000
v -0.743763 -0.199291 -0.350000
v -0.569896 -0.152703 -0.550000
v -0.347733 -0.093175 -0.520000
v -0.231822 -0.062117 -0.280000
v -0.237947 -0.031326 0.280000
v -0.356920 -0.046989 0.520000
v -0.584952 -0.077010 0.550000
v -0.763413 -0.100505 0.350000
v -0.832814 -0.109642 0.000000
v -0.763413 -0.100505 -0.350000
v -0.584952 -0.077010 -0.550000
v -0.356920 -0.046989 -0.520000
v -0.237947 -0.031326 -0.280000
v -0.240000 0.000000 0.280000
v -0.360000 0.000000 0.520000
v -0.590000 0.000000 0.550000
v -0.770000 0.000000 0.350000
v -0.840000 0.000000 0.000000
v -0.770000 0.000000 -0.350000
v -0.590000 0.000000 -0.550000
v -0.360000 0.000000 -0.520000
v -0.240000 0.000000 -0.280000
v -0.237947 0.031326 0.280000
v -0.356920 0.046989 0.520000
v -0.584952 0.077010 0.550000
v -0.763412 0.100505 0.350000
v -0.832814 0.109642 0.000000
v -0.763412 0.100505 -0.350000
v -0.584952 0.077010 -0.550000
v -0.356920 0.046989 -0.520000
v -0.237947 0.031326 -0.280000
v -0.231822 0.062117 0.280000
v -0.347733 0.093175 0.520000
v -0.569896 0.152703 0.550000
v -0.743763 0.199291 0.350000
v -0.811378 0.217408 0.000000
v -0.743763 0.199291 -0.350000
v -0.569896 0.152703 -0.550000
v -0.347733 0.093175 -0.520000
v -0.231822 0.062117 -0.280000
v -0.221731 0.091844 0.280000
v -0.332597 0.137766 0.520000
v -0.545089 0.225783 0.550000
v -0.711387 0.294666 0.350000
v -0.776059 0.321454 0.000000
v -0.711387 0.294666 -0.350000
v -0.545089 0.225783 -0.550000
v -0.332597 0.137766 -0.520000
v -0.221731 0.091844 -0.280000
v -0.207846 0.120000 0.280000
v -0.311769 0.180000 0.520000
v -0.510955 0.295000 0.550000
v -0.666839 0.385000 0.350000
v -0.727461 0.420000 0.000000
v -0.666839 0.385000 -0.350000
v -0.510955 0.295000 -0.550000
v -0.311769 0.180000 -0.520000
v -0.207846 0.120000 -0.280000
v -0.190405 0.146103 0.280000
v -0.285607 0.219154 0.520000
v -0.468078 0.359169 0.550000
v -0.610882 0.468746 0.350000
v -0.666417 0.511360 0.000000
v -0.610882 0.468746 -0.350000
v -0.468078 0.359169 -0.550000
v -0.285607 0.219154 -0.520000
v -0.190405 0.146103 -0.280000
v -0.169706 0.169706 0.280000
v -0.254558 0.254559 0.520000
v -0.417193 0.417193 0.550000
v -0.544472 0.544472 0.350000
v -0.593970 0.593970 0.000000
v -0.544472 0.544472 -0.350000
v -0.417193 0.417193 -0.550000
v -0.254558 0.254559 -0.520000
v -0.169706 0.169706 -0.280000
v -0.146103 0.190405 0.280000
v -0.219154 0.285607 0.520000
v -0.359169 0.468078 0.550000
v -0.468746 0.610882 0.350000
v -0.511360 0.666417 0.000000
v -0.468746 0.610882 -0.350000
v -0.359169 0.468078 -0.550000
v -0.219154 0.285607 -0.520000
v -0.146103 0.190405 -0.280000
v -0.120000 0.207846 0.280000
v -0.180000 0.311769 0.520000
v -0.295000 0.510955 0.550000
v -0.385000 0.666840 0.350000
v -0.420000 0.727461 0.000000
v -0.385000 0.666840 -0.350000
v -0.295000 0.510955 -0.550000
v -0.180000 0.311769 -0.520000
v -0.120000 0.207846 -0.280000
v -0.091844 0.221731 0.280000
v -0.137766 0.332597 0.520000
v -0.225783 0.545089 0.550000
v -0.294666 0.711387 0.350000
v -0.321454 0.776059 0.000000
v -0.294666 0.711387 -0.350000
v -0.225783 0.545089 -0.550000
v -0.137766 0.332597 -0.520000
v -0.091844 0.221731 -0.280000
v -0.062117 0.231822 0.280000
v -0.093175 0.347733 0.520000
v -0.152703 0.569896 0.550000
v -0.199291 0.743763 0.350000
v -0.217408 0.811378 0.000000
v -0.199291 0.743763 -0.350000
v -0.152703 0.569896 -0.550000
v -0.093175 0.347733 -0.520000
v -0.062117 0.231822 -0.280000
v -0.031326 0.237947 0.280000
v -0.046989 0.356920 0.520000
v -0.077010 0.584952 0.550000
v -0.100505 0.763413 0.350000
v -0.109642 0.832814 0.000000
v -0.100505 0.763413 -0.350000
v -0.077010 0.584952 -0.550000
v -0.046989 0.356920 -0.520000
v -0.031326 0.237947 -0.280000
v 0.000000 0.240000 0.280000
v 0.000000 0.360000 0.520000
v 0.000000 0.590000 0.550000
v 0.000000 0.770000 0.350000
v 0.000000 0.840000 0.000000
v 0.000000 0.770000 -0.350000
v 0.000000 0.590000 -0.550000
v 0.000000 0.360000 -0.520000
v 0.000000 0.240000 -0.280000
v 0.031326 0.237947 0.280000
v 0.046990 0.356920 0.520000
v 0.077011 0.584952 0.550000
v 0.100505 0.763412 0.350000
v 0.109642 0.832814 0.000000
v 0.100505 0.763412 -0.350000
v 0.077011 0.584952 -0.550000
v 0.046990 0.356920 -0.520000
v 0.031326 0.237947 -0.280000
v 0.062117 0.231822 0.280000
v 0.093175 0.347733 0.520000
v 0.152703 0.569896 0.550000
v 0.199291 0.743763 0.350000
v 0.217408 0.811378 0.000000
v 0.199291 0.743763 -0.350000
v 0.152703 0.569896 -0.550000
v 0.093175 0.347733 -0.520000
v 0.062117 0.231822 -0.280000
v 0.091844 0.221731 0.280000
v 0.137766 0.332597 0.520000
v 0.225783 0.545089 0.550000
v 0.294666 0.711387 0.350000
v 0.321454 0.776059 0.000000
v 0.294666 0.711387 -0.350000
v 0.225783 0.545089 -0.550000
v 0.137766 0.332597 -0.520000
v 0.091844 0.221731 -0.280000
v 0.120000 0.207846 0.280000
v 0.180000 0.311769 0.520000
v 0.295000 0.510955 0.550000
v 0.385000 0.666840 0.350000
v 0.420000 0.727461 0.000000
v 0.385000 0.666840 -0.350000
v 0.295000 0.510955 -0.550000
v 0.180000 0.311769 -0.520000
v 0.120000 0.207846 -0.280000
v 0.146103 0.190405 0.280000
v 0.219154 0.285607 0.520000
v 0.359169 0.468078 0.550000
v 0.468746 0.610882 0.350000
v 0.511360 0.666417 0.000000
v 0.468746 0.610882 -0.350000
v 0.359169 0.468078 -0.550000
v 0.219154 0.285607 -0.520000
v 0.146103 0.190405 -0.280000
v 0.169706 0.169706 0.280000
v 0.254559 0.254558 0.520000
v 0.417193 0.417193 0.550000
v 0.544472 0.544472 0.350000
v 0.593970 0.593969 0.000000
v 0.544472 0.544472 -0.350000
v 0.417193 0.417193 -0.550000
v 0.254559 0.254558 -0.520000
v 0.169706 0.169706 -0.280000
v 0.190405 0.146103 0.280000
v 0.285607 0.219154 0.520000
v 0.468078 0.359169 0.550000
v 0.610882 0.468746 0.350000
v 0.666417 0.511360 0.000000
v 0.610882 0.468746 -0.350000
v 0.468078 0.359169 -0.550000
v 0.285607 0.219154 -0.520000
v 0.190405 0.146103 -0.280000
v 0.207846 0.120000 0.280000
v 0.311769 0.180000 0.520000
v 0.510955 0.295000 0.550000
v 0.666840 0.385000 0.350000
v 0.727461 0.420000 0.000000
v 0.666840 0.385000 -0.350000
v 0.510955 0.295000 -0.550000
v 0.311769 0.180000 -0.520000
v 0.207846 0.120000 -0.280000
v 0.221731 0.091844 0.280000
v 0.332597 0.137766 0.520000
v 0.545089 0.225783 0.550000
v 0.711387 0.294666 0.350000
v 0.776059 0.321454 0.000000
v 0.711387 0.294666 -0.350000
v 0.545089 0.225783 -0.550000
v 0.332597 0.137766 -0.520000
v 0.221731 0.091844 -0.280000
v 0.231822 0.062117 0.280000
v 0.347733 0.093175 0.520000
v 0.569896 0.152703 0.550000
v 0.743763 0.199290 0.350000
v 0.811378 0.217408 0.000000
v 0.743763 0.199290 -0.350000
v 0.569896 0.152703 -0.550000
v 0.347733 0.093175 -0.520000
v 0.231822 0.062117 -0.280000
v 0.237947 0.031326 0.280000
v 0.356920 0.046989 0.520000
v 0.584952 0.077010 0.550000
v 0.763413 0.100505 0.350000
v 0.832814 0.109642 0.000000
v 0.763413 0.100505 -0.350000
v 0.584952 0.077010 -0.550000
v 0.356920 0.046989 -0.520000
v 0.237947 0.031326 -0.280000
vn -0.9727 -0.0000 0.2319
vn -0.5665 -0.0000 0.8241
vn 0.3636 -0.0000 0.9316
vn 0.8959 -0.0000 0.4442
vn 1.0000 -0.0000 -0.0000
vn 0.8959 -0.0000 -0.4442
vn 0.3636 -0.0000 -0.9316
vn -0.5665 -0.0000 -0.8241
vn -0.9727 -0.0000 -0.2319
vn -0.9644 0.1270 0.2319
vn -0.5616 0.0739 0.8241
vn 0.3605 -0.0475 0.9316
vn 0.8883 -0.1169 0.4442
vn 0.9914 -0.1305 -0.0000
vn 0.8883 -0.1169 -0.4442
vn 0.3605 -0.0475 -0.9316
vn -0.5616 0.0739 -0.8241
vn -0.9644 0.1270 -0.2319
vn -0.9396 0.2518 0.2319
vn -0.5472 0.1466 0.8241
vn 0.3512 -0.0941 0.9316
vn 0.8654 -0.2319 0.4442
vn 0.9659 -0.2588 -0.0000
vn 0.8654 -0.2319 -0.4442
vn 0.3512 -0.0941 -0.9316
vn -0.5472 0.1466 -0.8241
vn -0.9396 0.2518 -0.2319
vn -0.8987 0.3722 0.2319
vn -0.5234 0.2168 0.8241
vn 0.3359 -0.1391 0.9316
vn 0.8277 -0.3429 0.4442
vn 0.9239 -0.3827 -0.0000
vn 0.8277 -0.3429 -0.4442
vn 0.3359 -0.1391 -0.9316
vn -0.5234 0.2168 -0.8241
vn -0.8987 0.3722 -0.2319
vn -0.8424 0.4864 0.2319
vn -0.4906 0.2832 0.8241
vn 0.3149 -0.1818 0.9316
vn 0.7759 -0.4480 0.4442
vn 0.8660 -0.5000 -0.0000
vn 0.7759 -0.4480 -0.4442
vn 0.3149 -0.1818 -0.9316
vn -0.4906 0.2832 -0.8241
vn -0.8424 0.4864 -0.2319
vn -0.7717 0.5922 0.2319
vn -0.4494 0.3449 0.8241
vn 0.2885 -0.2213 0.9316
vn 0.7108 -0.5454 0.4442
vn 0.7934 -0.6088 -0.0000
vn 0.7108 -0.5454 -0.4442
vn 0.2885 -0.2213 -0.9316
vn -0.4494 0.3449 -0.8241
vn -0.7717 0.5922 -0.2319
vn -0.6878 0.6878 0.2319
vn -0.4006 0.4006 0.8241
vn 0.2571 -0.2571 0.9316
vn 0.6335 -0.6335 0.4442
vn 0.7071 -0.7071 -0.0000
vn 0.6335 -0.6335 -0.4442
vn 0.2571 -0.2571 -0.9316
vn -0.4006 0.4006 -0.8241
vn -0.6878 0.6878 -0.2319
vn -0.5922 0.7717 0.2319
vn -0.3449 0.4494 0.8241
vn 0.2213 -0.2885 0.9316
vn 0.5454 -0.7108 0.4442
vn 0.6088 -0.7934 -0.0000
vn 0.5454 -0.7108 -0.4442
vn 0.2214 -0.2885 -0.9316
vn -0.3449 0.4494 -0.8241
vn -0.5922 0.7717 -0.2319
vn -0.4864 0.8424 0.2319
vn -0.2832 0.4906 0.8241
vn 0.1818 -0.3149 0.9316
vn 0.4480 -0.7759 0.4442
vn 0.5000 -0.8660 -0.0000
vn 0.4480 -0.7759 -0.4442
vn 0.1818 -0.3149 -0.9316
vn -0.2832 0.4906 -0.8241
vn -0.4864 0.8424 -0.2319
vn -0.3722 0.8987 0.2319
vn -0.2168 0.5234 0.8241
vn 0.1391 -0.3359 0.9316
vn 0.3429 -0.8277 0.4442
vn 0.3827 -0.9239 -0.0000
vn 0.3429 -0.8277 -0.4442
vn 0.1391 -0.3359 -0.9316
vn -0.2168 0.5234 -0.8241
vn -0.3722 0.8987 -0.2319
vn -0.2518 0.9396 0.2319
vn -0.1466 0.5472 0.8241
vn 0.0941 -0.3512 0.9316
vn 0.2319 -0.8654 0.4442
vn 0.2588 -0.9659 -0.0000
vn 0.2319 -0.8654 -0.4442
vn 0.0941 -0.3512 -0.9316
vn -0.1466 0.5472 -0.8241
vn -0.2518 0.9396 -0.2319
vn -0.1270 0.9644 0.2319
vn -0.0739 0.5616 0.8241
vn 0.0475 -0.3605 0.9316
vn 0.1169 -0.8883 0.4442
vn 0.1305 -0.9914 -0.0000
vn 0.1169 -0.8883 -0.4442
vn 0.0475 -0.3605 -0.9316
vn -0.0739 0.5616 -0.8241
vn -0.1270 0.9644 -0.2319
vn -0.0000 0.9727 0.2319
vn -0.0000 0.5665 0.8241
vn -0.0000 -0.3636 0.9316
vn -0.0000 -0.8959 0.4442
vn -0.0000 -1.0000 -0.0000
vn -0.0000 -0.8959 -0.4442
vn -0.0000 -0.3636 -0.9316
vn -0.0000 0.5665 -0.8241
vn -0.0000 0.9727 -0.2319
vn 0.1270 0.9644 0.2319
vn 0.0739 0.5616 0.8241
vn -0.0475 -0.3605 0.9316
vn -0.1169 -0.8883 0.4442
vn -0.1305 -0.9914 -0.0000
vn -0.1169 -0.8883 -0.4442
vn -0.0475 -0.3605 -0.9316
vn 0.0739 0.5616 -0.8241
vn 0.1270 0.9644 -0.2319
vn 0.2518 0.9396 0.2319
vn 0.1466 0.5472 0.8241
vn -0.0941 -0.3512 0.9316
vn -0.2319 -0.8654 0.4442
vn -0.2588 -0.9659 -0.0000
vn -0.2319 -0.8654 -0.4442
vn -0.0941 -0.3512 -0.9316
vn 0.1466 0.5472 -0.8241
vn 0.2518 0.9396 -0.2319
vn 0.3722 0.8987 0.2319
vn 0.2168 0.5234 0.8241
vn -0.1391 -0.3359 0.9316
vn -0.3429 -0.8277 0.4442
vn -0.3827 -0.9239 -0.0000
vn -0.3429 -0.8277 -0.4442
vn -0.1391 -0.3359 -0.9316
vn 0.2168 0.5234 -0.8241
vn 0.3722 0.8987 -0.2319
vn 0.4864 0.8424 0.2319
vn 0.2832 0.4906 0.8241
vn -0.1818 -0.3149 0.9316
vn -0.4480 -0.7759 0.4442
vn -0.5000 -0.8660 -0.0000
vn -0.4480 -0.7759 -0.4442
vn -0.1818 -0.3149 -0.9316
vn 0.2832 0.4906 -0.8241
vn 0.4864 0.8424 -0.2319
vn 0.5922 0.7717 0.2319
vn 0.3449 0.4494 0.8241
vn -0.2213 -0.2885 0.9316
vn -0.5454 -0.7108 0.4442
vn -0.6088 -0.7934 -0.0000
vn -0.5454 -0.7108 -0.4442
vn -0.2213 -0.2885 -0.9316
vn 0.3449 0.4494 -0.8241
vn 0.5922 0.7717 -0.2319
vn 0.6878 0.6878 0.2319
vn 0.4006 0.4006 0.8241
vn -0.2571 -0.2571 0.9316
vn -0.6335 -0.6335 0.4442
vn -0.7071 -0.7071 -0.0000
vn -0.6335 -0.6335 -0.4442
vn -0.2571 -0.2571 -0.9316
vn 0.4006 0.4006 -0.8241
vn 0.6878 0.6878 -0.2319
vn 0.7717 0.5922 0.2319
vn 0.4494 0.3449 0.8241
vn -0.2885 -0.2214 0.9316
vn -0.7108 -0.5454 0.4442
vn -0.7934 -0.6088 -0.0000
vn -0.7108 -0.5454 -0.4442
vn -0.2885 -0.2213 -0.9316
vn 0.4494 0.3449 -0.8241
vn 0.7717 0.5922 -0.2319
vn 0.8424 0.4864 0.2319
vn 0.4906 0.2832 0.8241
vn -0.3149 -0.1818 0.9316
vn -0.7759 -0.4480 0.4442
vn -0.8660 -0.5000 -0.0000
vn -0.7759 -0.4480 -0.4442
vn -0.3149 -0.1818 -0.9316
vn 0.4906 0.2832 -0.8241
vn 0.8424 0.4864 -0.2319
vn 0.8987 0.3722 0.2319
vn 0.5234 0.2168 0.8241
vn -0.3359 -0.1391 0.9316
vn -0.8277 -0.3429 0.4442
vn -0.9239 -0.3827 -0.0000
vn -0.8277 -0.3429 -0.4442
vn -0.3359 -0.1391 -0.9316
vn 0.5234 0.2168 -0.8241
vn 0.8987 0.3722 -0.2319
vn 0.9396 0.2518 0.2319
vn 0.5472 0.1466 0.8241
vn -0.3512 -0.0941 0.9316
vn -0.8654 -0.2319 0.4442
vn -0.9659 -0.2588 -0.0000
vn -0.8654 -0.2319 -0.4442
vn -0.3512 -0.0941 -0.9316
vn 0.5472 0.1466 -0.8241
vn 0.9396 0.2518 -0.2319
vn 0.9644 0.1270 0.2319
vn 0.5616 0.0739 0.8241
vn -0.3605 -0.0475 0.9316
vn -0.8883 -0.1169 0.4442
vn -0.9914 -0.1305 -0.0000
vn -0.8883 -0.1169 -0.4442
vn -0.3605 -0.0475 -0.9316
vn 0.5616 0.0739 -0.8241
vn 0.9644 0.1270 -0.2319
vn 0.9727 -0.0000 0.2319
vn 0.5665 -0.0000 0.8241
vn -0.3636 -0.0000 0.9316
vn -0.8959 -0.0000 0.4442
vn -1.0000 -0.0000 -0.0000
vn -0.8959 -0.0000 -0.4442
vn -0.3636 -0.0000 -0.9316
vn 0.5665 -0.0000 -0.8241
vn 0.9727 -0.0000 -0.2319
vn 0.9644 -0.1270 0.2319
vn 0.5616 -0.0739 0.8241
vn -0.3605 0.0475 0.9316
vn -0.8883 0.1169 0.4442
vn -0.9914 0.1305 -0.0000
vn -0.8883 0.1169 -0.4442
vn -0.3605 0.0475 -0.9316
vn 0.5616 -0.0739 -0.8241
vn 0.9644 -0.1270 -0.2319
vn 0.9396 -0.2518 0.2319
vn 0.5472 -0.1466 0.8241
vn -0.3512 0.0941 0.9316
vn -0.8654 0.2319 0.4442
vn -0.9659 0.2588 -0.0000
vn -0.8654 0.2319 -0.4442
vn -0.3512 0.0941 -0.9316
vn 0.5472 -0.1466 -0.8241
vn 0.9396 -0.2518 -0.2319
vn 0.8987 -0.3722 0.2319
vn 0.5234 -0.2168 0.8241
vn -0.3359 0.1391 0.9316
vn -0.8277 0.3429 0.4442
vn -0.9239 0.3827 -0.0000
vn -0.8277 0.3429 -0.4442
vn -0.3359 0.1391 -0.9316
vn 0.5234 -0.2168 -0.8241
vn 0.8987 -0.3723 -0.2319
vn 0.8424 -0.4864 0.2319
vn 0.4906 -0.2832 0.8241
vn -0.3149 0.1818 0.9316
vn -0.7759 0.4480 0.4442
vn -0.8660 0.5000 -0.0000
vn -0.7759 0.4480 -0.4442
vn -0.3149 0.1818 -0.9316
vn 0.4906 -0.2832 -0.8241
vn 0.8424 -0.4864 -0.2319
vn 0.7717 -0.5922 0.2319
vn 0.4494 -0.3449 0.8241
vn -0.2885 0.2213 0.9316
vn -0.7108 0.5454 0.4442
vn -0.7934 0.6088 -0.0000
vn -0.7108 0.5454 -0.4442
vn -0.2885 0.2213 -0.9316
vn 0.4494 -0.3449 -0.8241
vn 0.7717 -0.5922 -0.2319
vn 0.6878 -0.6878 0.2319
vn 0.4006 -0.4006 0.8241
vn -0.2571 0.2571 0.9316
vn -0.6335 0.6335 0.4442
vn -0.7071 0.7071 -0.0000
vn -0.6335 0.6335 -0.4442
vn -0.2571 0.2571 -0.9316
vn 0.4006 -0.4006 -0.8241
vn 0.6878 -0.6878 -0.2319
vn 0.5922 -0.7717 0.2319
vn 0.3449 -0.4494 0.8241
vn -0.2213 0.2885 0.9316
vn -0.5454 0.7108 0.4442
vn -0.6088 0.7934 -0.0000
vn -0.5454 0.7108 -0.4442
vn -0.2213 0.2885 -0.9316
vn 0.3449 -0.4494 -0.8241
vn 0.5922 -0.7717 -0.2319
vn 0.4864 -0.8424 0.2319
vn 0.2832 -0.4906 0.8241
vn -0.1818 0.3149 0.9316
vn -0.4480 0.7759 0.4442
vn -0.5000 0.8660 -0.0000
vn -0.4480 0.7759 -0.4442
vn -0.1818 0.3149 -0.9316
vn 0.2832 -0.4906 -0.8241
vn 0.4864 -0.8424 -0.2319
vn 0.3722 -0.8987 0.2319
vn 0.2168 -0.5234 0.8241
vn -0.1391 0.3359 0.9316
vn -0.3429 0.8277 0.4442
vn -0.3827 0.9239 -0.0000
vn -0.3429 0.8277 -0.4442
vn -0.1391 0.3359 -0.9316
vn 0.2168 -0.5234 -0.8241
vn 0.3722 -0.8987 -0.2319
vn 0.2518 -0.9396 0.2319
vn 0.1466 -0.5472 0.8241
vn -0.0941 0.3512 0.9316
vn -0.2319 0.8654 0.4442
vn -0.2588 0.9659 -0.0000
vn -0.2319 0.8654 -0.4442
vn -0.0941 0.3512 -0.9316
vn 0.1466 -0.5472 -0.8241
vn 0.2518 -0.9396 -0.2319
vn 0.1270 -0.9644 0.2319
vn 0.0739 -0.5616 0.8241
vn -0.0475 0.3605 0.9316
vn -0.1169 0.8883 0.4442
vn -0.1305 0.9914 -0.0000
vn -0.1169 0.8883 -0.4442
vn -0.0475 0.3605 -0.9316
vn 0.0739 -0.5616 -0.8241
vn 0.1270 -0.9644 -0.2319
vn -0.0000 -0.9727 0.2319
vn -0.0000 -0.5665 0.8241
vn -0.0000 0.3636 0.9316
vn -0.0000 0.8959 0.4442
vn -0.0000 1.0000 -0.0000
vn -0.0000 0.8959 -0.4442
vn -0.0000 0.3636 -0.9316
vn -0.0000 -0.5665 -0.8241
vn -0.0000 -0.9727 -0.2319
vn -0.1270 -0.9644 0.2319
vn -0.0739 -0.5616 0.8241
vn 0.0475 0.3605 0.9316
vn 0.1169 0.8883 0.4442
vn 0.1305 0.9914 -0.0000
vn 0.1169 0.8883 -0.4442
vn 0.0475 0.3605 -0.9316
vn -0.0739 -0.5616 -0.8241
vn -0.1270 -0.9644 -0.2319
vn -0.2518 -0.9396 0.2319
vn -0.1466 -0.5472 0.8241
vn 0.0941 0.3512 0.9316
vn 0.2319 0.8654 0.4442
vn 0.2588 0.9659 -0.0000
vn 0.2319 0.8654 -0.4442
vn 0.0941 0.3512 -0.9316
vn -0.1466 -0.5472 -0.8241
vn -0.2518 -0.9396 -0.2319
vn -0.3722 -0.8987 0.2319
vn -0.2168 -0.5234 0.8241
vn 0.1391 0.3359 0.9316
vn 0.3429 0.8277 0.4442
vn 0.3827 0.9239 -0.0000
vn 0.3429 0.8277 -0.4442
vn 0.1391 0.3359 -0.9316
vn -0.2168 -0.5234 -0.8241
vn -0.3722 -0.8987 -0.2319
vn -0.4864 -0.8424 0.2319
vn -0.2832 -0.4906 0.8241
vn 0.1818 0.3149 0.9316
vn 0.4480 0.7759 0.4442
vn 0.5000 0.8660 -0.0000
vn 0.4480 0.7759 -0.4442
vn 0.1818 0.3149 -0.9316
vn -0.2832 -0.4906 -0.8241
vn -0.4864 -0.8424 -0.2319
vn -0.5922 -0.7717 0.2319
vn -0.3449 -0.4494 0.8241
vn 0.2213 0.2885 0.9316
vn 0.5454 0.7108 0.4442
vn 0.6088 0.7934 -0.0000
vn 0.5454 0.7108 -0.4442
vn 0.2213 0.2885 -0.9316
vn -0.3449 -0.4494 -0.8241
vn -0.5922 -0.7717 -0.2319
vn -0.6878 -0.6878 0.2319
vn -0.4006 -0.4006 0.8241
vn 0.2571 0.2571 0.9316
vn 0.6335 0.6335 0.4442
vn 0.7071 0.7071 -0.0000
vn 0.6335 0.6335 -0.4442
vn 0.2571 0.2571 -0.9316
vn -0.4006 -0.4006 -0.8241
vn -0.6878 -0.6878 -0.2319
vn -0.7717 -0.5922 0.2319
vn -0.4494 -0.3449 0.8241
vn 0.2885 0.2214 0.9316
vn 0.7108 0.5454 0.4442
vn 0.7934 0.6088 -0.0000
vn 0.7108 0.5454 -0.4442
vn 0.2885 0.2213 -0.9316
vn -0.4494 -0.3449 -0.8241
vn -0.7717 -0.5922 -0.2319
vn -0.8424 -0.4864 0.2319
vn -0.4906 -0.2832 0.8241
vn 0.3149 0.1818 0.9316
vn 0.7759 0.4480 0.4442
vn 0.8660 0.5000 -0.0000
vn 0.7759 0.4480 -0.4442
vn 0.3149 0.1818 -0.9316
vn -0.4906 -0.2832 -0.8241
vn -0.8424 -0.4864 -0.2319
vn -0.8987 -0.3722 0.2319
vn -0.5234 -0.2168 0.8241
vn 0.3359 0.1391 0.9316
vn 0.8277 0.3429 0.4442
vn 0.9239 0.3827 -0.0000
vn 0.8277 0.3429 -0.4442
vn 0.3359 0.1391 -0.9316
vn -0.5234 -0.2168 -0.8241
vn -0.8987 -0.3722 -0.2319
vn -0.9396 -0.2518 0.2319
vn -0.5472 -0.1466 0.8241
vn 0.3512 0.0941 0.9316
vn 0.8654 0.2319 0.4442
vn 0.9659 0.2588 -0.0000
vn 0.8654 0.2319 -0.4442
vn 0.3512 0.0941 -0.9316
vn -0.5472 -0.1466 -0.8241
vn -0.9396 -0.2518 -0.2319
vn -0.9644 -0.1270 0.2319
vn -0.5616 -0.0739 0.8241
vn 0.3605 0.0475 0.9316
vn 0.8883 0.1169 0.4442
vn 0.9914 0.1305 -0.0000
vn 0.8883 0.1169 -0.4442
vn 0.3605 0.0475 -0.9316
vn -0.5616 -0.0739 -0.8241
vn -0.9644 -0.1270 -0.2319
vt 0.000000 0.245455
vt 0.020833 0.027273
vt 0.000000 0.027273
vt 0.020833 0.245455
vt 0.041667 0.027273
vt 0.041667 0.245455
vt 0.062500 0.027273
vt 0.083333 0.245455
vt 0.083333 0.027273
vt 0.104167 0.027273
vt 0.125000 0.245455
vt 0.125000 0.027273
vt 0.145833 0.027273
vt 0.145833 0.245455
vt 0.166667 0.027273
vt 0.166667 0.245455
vt 0.187500 0.027273
vt 0.208333 0.245455
vt 0.208333 0.027273
vt 0.229167 0.027273
vt 0.229167 0.245455
vt 0.250000 0.027273
vt 0.250000 0.245455
vt 0.270833 0.027273
vt 0.270833 0.245455
vt 0.291667 0.027273
vt 0.291667 0.245455
vt 0.312500 0.027273
vt 0.333333 0.245455
vt 0.333333 0.027273
vt 0.354167 0.027273
vt 0.375000 0.245455
vt 0.375000 0.027273
vt 0.395833 0.245455
vt 0.395833 0.027273
vt 0.416667 0.027273
vt 0.416667 0.245455
vt 0.437500 0.027273
vt 0.437500 0.245455
vt 0.458333 0.027273
vt 0.458333 0.245455
vt 0.479167 0.027273
vt 0.479167 0.245455
vt 0.500000 0.027273
vt 0.500000 0.245455
vt 0.520833 0.027273
vt 0.520833 0.245455
vt 0.541667 0.027273
vt 0.541667 0.245455
vt 0.562500 0.027273
vt 0.562500 0.245455
vt 0.583333 0.027273
vt 0.604167 0.245455
vt 0.604167 0.027273
vt 0.625000 0.245455
vt 0.625000 0.027273
vt 0.645833 0.027273
vt 0.645833 0.245455
vt 0.666667 0.027273
vt 0.666667 0.245455
vt 0.687500 0.027273
vt 0.708333 0.245455
vt 0.708333 0.027273
vt 0.729167 0.027273
vt 0.750000 0.245455
vt 0.750000 0.027273
vt 0.770833 0.027273
vt 0.770833 0.245455
vt 0.791667 0.027273
vt 0.812500 0.245455
vt 0.812500 0.027273
vt 0.833333 0.027273
vt 0.833333 0.245455
vt 0.854167 0.027273
vt 0.854167 0.245455
vt 0.875000 0.027273
vt 0.875000 0.245455
vt 0.895833 0.027273
vt 0.895833 0.245455
vt 0.916667 0.027273
vt 0.916667 0.245455
vt 0.937500 0.027273
vt 0.937500 0.245455
vt 0.958333 0.027273
vt 0.979167 0.245455
vt 0.979167 0.027273
vt 1.000000 0.027273
vt 0.000000 0.000000
vt 0.020833 0.000000
vt 0.041667 0.000000
vt 0.062500 0.000000
vt 0.083333 0.000000
vt 0.104167 0.000000
vt 0.125000 0.000000
vt 0.145833 0.000000
vt 0.166667 0.000000
vt 0.187500 0.000000
vt 0.208333 0.000000
vt 0.229167 0.000000
vt 0.250000 0.000000
vt 0.270833 0.000000
vt 0.291667 0.000000
vt 0.312500 0.000000
vt 0.333333 0.000000
vt 0.354167 0.000000
vt 0.375000 0.000000
vt 0.395833 0.000000
vt 0.416667 0.000000
vt 0.437500 0.000000
vt 0.458333 0.000000
vt 0.479167 0.000000
vt 0.500000 0.000000
vt 0.520833 0.000000
vt 0.541667 0.000000
vt 0.562500 0.000000
vt 0.583333 0.000000
vt 0.604167 0.000000
vt 0.625000 0.000000
vt 0.645833 0.000000
vt 0.666667 0.000000
vt 0.687500 0.000000
vt 0.708333 0.000000
vt 0.729167 0.000000
vt 0.750000 0.000000
vt 0.770833 0.000000
vt 0.791667 0.000000
vt 0.812500 0.000000
vt 0.833333 0.000000
vt 0.854167 0.000000
vt 0.875000 0.000000
vt 0.895833 0.000000
vt 0.916667 0.000000
vt 0.937500 0.000000
vt 0.958333 0.000000
vt 0.979167 0.000000
vt 1.000000 0.000000
vt 0.020833 0.181818
vt 0.000000 0.181818
vt 0.041667 0.181818
vt 0.062500 0.181818
vt 0.083333 0.181818
vt 0.104167 0.181818
vt 0.125000 0.181818
vt 0.145833 0.181818
vt 0.166667 0.181818
vt 0.187500 0.181818
vt 0.208333 0.181818
vt 0.229167 0.181818
vt 0.250000 0.181818
vt 0.270833 0.181818
vt 0.291667 0.181818
vt 0.312500 0.181818
vt 0.333333 0.181818
vt 0.354167 0.181818
vt 0.375000 0.181818
vt 0.395833 0.181818
vt 0.416667 0.181818
vt 0.437500 0.181818
vt 0.458333 0.181818
vt 0.479167 0.181818
vt 0.500000 0.181818
vt 0.520833 0.181818
vt 0.541667 0.181818
vt 0.562500 0.181818
vt 0.583333 0.181818
vt 0.604167 0.181818
vt 0.625000 0.181818
vt 0.645833 0.181818
vt 0.666667 0.181818
vt 0.687500 0.181818
vt 0.708333 0.181818
vt 0.729167 0.181818
vt 0.750000 0.181818
vt 0.770833 0.181818
vt 0.791667 0.181818
vt 0.812500 0.181818
vt 0.833333 0.181818
vt 0.854167 0.181818
vt 0.875000 0.181818
vt 0.895833 0.181818
vt 0.916667 0.181818
vt 0.937500 0.181818
vt 0.958333 0.181818
vt 0.979167 0.181818
vt 1.000000 0.181818
vt 0.000000 0.500000
vt 0.020833 0.500000
vt 0.041667 0.500000
vt 0.062500 0.500000
vt 0.083333 0.500000
vt 0.104167 0.500000
vt 0.125000 0.500000
vt 0.145833 0.500000
vt 0.166667 0.500000
vt 0.187500 0.500000
vt 0.208333 0.500000
vt 0.229167 0.500000
vt 0.250000 0.500000
vt 0.270833 0.500000
vt 0.291667 0.500000
vt 0.312500 0.500000
vt 0.333333 0.500000
vt 0.354167 0.500000
vt 0.375000 0.500000
vt 0.395833 0.500000
vt 0.416667 0.500000
vt 0.437500 0.500000
vt 0.458333 0.500000
vt 0.479167 0.500000
vt 0.500000 0.500000
vt 0.520833 0.500000
vt 0.541667 0.500000
vt 0.562500 0.500000
vt 0.583333 0.500000
vt 0.604167 0.500000
vt 0.625000 0.500000
vt 0.645833 0.500000
vt 0.666667 0.500000
vt 0.687500 0.500000
vt 0.708333 0.500000
vt 0.729167 0.500000
vt 0.750000 0.500000
vt 0.770833 0.500000
vt 0.791667 0.500000
vt 0.812500 0.500000
vt 0.833333 0.500000
vt 0.854167 0.500000
vt 0.875000 0.500000
vt 0.895833 0.500000
vt 0.916667 0.500000
vt 0.937500 0.500000
vt 0.958333 0.500000
vt 0.979167 0.500000
vt 1.000000 0.500000
vt 0.020833 0.818182
vt 0.000000 0.818182
vt 0.041667 0.818182
vt 0.062500 0.818182
vt 0.083333 0.818182
vt 0.104167 0.818182
vt 0.125000 0.818182
vt 0.145833 0.818182
vt 0.166667 0.818182
vt 0.187500 0.818182
vt 0.208333 0.818182
vt 0.229167 0.818182
vt 0.250000 0.818182
vt 0.270833 0.818182
vt 0.291667 0.818182
vt 0.312500 0.818182
vt 0.333333 0.818182
vt 0.354167 0.818182
vt 0.375000 0.818182
vt 0.395833 0.818182
vt 0.416667 0.818182
vt 0.437500 0.818182
vt 0.458333 0.818182
vt 0.479167 0.818182
vt 0.500000 0.818182
vt 0.520833 0.818182
vt 0.541667 0.818182
vt 0.562500 0.818182
vt 0.583333 0.818182
vt 0.604167 0.818182
vt 0.625000 0.818182
vt 0.645833 0.818182
vt 0.666667 0.818182
vt 0.687500 0.818182
vt 0.708333 0.818182
vt 0.729167 0.818182
vt 0.750000 0.818182
vt 0.770833 0.818182
vt 0.791667 0.818182
vt 0.812500 0.818182
vt 0.833333 0.818182
vt 0.854167 0.818182
vt 0.875000 0.818182
vt 0.895833 0.818182
vt 0.916667 0.818182
vt 0.937500 0.818182
vt 0.958333 0.818182
vt 0.979167 0.818182
vt 1.000000 0.818182
vt 0.000000 1.000000
vt 0.020833 1.000000
vt 0.041667 1.000000
vt 0.062500 1.000000
vt 0.083333 1.000000
vt 0.104167 1.000000
vt 0.125000 1.000000
vt 0.145833 1.000000
vt 0.166667 1.000000
vt 0.187500 1.000000
vt 0.208333 1.000000
vt 0.229167 1.000000
vt 0.250000 1.000000
vt 0.270833 1.000000
vt 0.291667 1.000000
vt 0.312500 1.000000
vt 0.333333 1.000000
vt 0.354167 1.000000
vt 0.375000 1.000000
vt 0.395833 1.000000
vt 0.416667 1.000000
vt 0.437500 1.000000
vt 0.458333 1.000000
vt 0.479167 1.000000
vt 0.500000 1.000000
vt 0.520833 1.000000
vt 0.541667 1.000000
vt 0.562500 1.000000
vt 0.583333 1.000000
vt 0.604167 1.000000
vt 0.625000 1.000000
vt 0.645833 1.000000
vt 0.666667 1.000000
vt 0.687500 1.000000
vt 0.708333 1.000000
vt 0.729167 1.000000
vt 0.750000 1.000000
vt 0.770833 1.000000
vt 0.791667 1.000000
vt 0.812500 1.000000
vt 0.833333 1.000000
vt 0.854167 1.000000
vt 0.875000 1.000000
vt 0.895833 1.000000
vt 0.916667 1.000000
vt 0.937500 1.000000
vt 0.958333 1.000000
vt 0.979167 1.000000
vt 1.000000 1.000000
vt 0.020833 0.972727
vt 0.000000 0.972727
vt 0.041667 0.972727
vt 0.062500 0.972727
vt 0.083333 0.972727
vt 0.104167 0.972727
vt 0.125000 0.972727
vt 0.145833 0.972727
vt 0.166667 0.972727
vt 0.187500 0.972727
vt 0.208333 0.972727
vt 0.229167 0.972727
vt 0.250000 0.972727
vt 0.270833 0.972727
vt 0.291667 0.972727
vt 0.312500 0.972727
vt 0.333333 0.972727
vt 0.354167 0.972727
vt 0.375000 0.972727
vt 0.395833 0.972727
vt 0.416667 0.972727
vt 0.437500 0.972727
vt 0.458333 0.972727
vt 0.479167 0.972727
vt 0.500000 0.972727
vt 0.520833 0.972727
vt 0.541667 0.972727
vt 0.562500 0.972727
vt 0.583333 0.972727
vt 0.604167 0.972727
vt 0.625000 0.972727
vt 0.645833 0.972727
vt 0.666667 0.972727
vt 0.687500 0.972727
vt 0.708333 0.972727
vt 0.729167 0.972727
vt 0.750000 0.972727
vt 0.770833 0.972727
vt 0.791667 0.972727
vt 0.812500 0.972727
vt 0.833333 0.972727
vt 0.854167 0.972727
vt 0.875000 0.972727
vt 0.895833 0.972727
vt 0.916667 0.972727
vt 0.937500 0.972727
vt 0.958333 0.972727
vt 0.979167 0.972727
vt 1.000000 0.972727
vt 0.000000 0.754545
vt 0.020833 0.754545
vt 0.041667 0.754545
vt 0.062500 0.754545
vt 0.083333 0.754545
vt 0.104167 0.754545
vt 0.125000 0.754545
vt 0.145833 0.754545
vt 0.166667 0.754545
vt 0.187500 0.754545
vt 0.208333 0.754545
vt 0.229167 0.754545
vt 0.250000 0.754545
vt 0.270833 0.754545
vt 0.291667 0.754545
vt 0.312500 0.754545
vt 0.333333 0.754545
vt 0.354167 0.754545
vt 0.375000 0.754545
vt 0.395833 0.754545
vt 0.416667 0.754545
vt 0.437500 0.754545
vt 0.458333 0.754545
vt 0.479167 0.754545
vt 0.500000 0.754545
vt 0.520833 0.754545
vt 0.541667 0.754545
vt 0.562500 0.754545
vt 0.583333 0.754545
vt 0.604167 0.754545
vt 0.625000 0.754545
vt 0.645833 0.754545
vt 0.666667 0.754545
vt 0.687500 0.754545
vt 0.708333 0.754545
vt 0.729167 0.754545
vt 0.750000 0.754545
vt 0.770833 0.754545
vt 0.791667 0.754545
vt 0.812500 0.754545
vt 0.833333 0.754545
vt 0.854167 0.754545
vt 0.875000 0.754545
vt 0.895833 0.754545
vt 0.916667 0.754545
vt 0.937500 0.754545
vt 0.958333 0.754545
vt 0.979167 0.754545
vt 1.000000 0.754545
vt 0.062500 0.245455
vt 0.104167 0.245455
vt 0.187500 0.245455
vt 0.312500 0.245455
vt 0.354167 0.245455
vt 0.583333 0.245455
vt 0.687500 0.245455
vt 0.729167 0.245455
vt 0.791667 0.245455
vt 0.958333 0.245455
vt 1.000000 0.245455
s 1
g A_DrilledLampworkBody.001_glass_bead_glass
usemtl glass_bead_glass
f 1/1/1 11/2/11 2/3/2
f 10/4/10 20/5/20 11/2/11
f 19/6/19 29/7/29 20/5/20
f 29/7/29 37/8/37 38/9/38
f 37/8/37 47/10/47 38/9/38
f 47/10/47 55/11/55 56/12/56
f 55/11/55 65/13/65 56/12/56
f 64/14/64 74/15/74 65/13/65
f 73/16/73 83/17/83 74/15/74
f 83/17/83 91/18/91 92/19/92
f 91/18/91 101/20/101 92/19/92
f 100/21/100 110/22/110 101/20/101
f 109/23/109 119/24/119 110/22/110
f 118/25/118 128/26/128 119/24/119
f 127/27/127 137/28/137 128/26/128
f 137/28/137 145/29/145 146/30/146
f 145/29/145 155/31/155 146/30/146
f 155/31/155 163/32/163 164/33/164
f 164/33/164 172/34/172 173/35/173
f 172/34/172 182/36/182 173/35/173
f 181/37/181 191/38/191 182/36/182
f 190/39/190 200/40/200 191/38/191
f 199/41/199 209/42/209 200/40/200
f 208/43/208 218/44/218 209/42/209
f 217/45/217 227/46/227 218/44/218
f 226/47/226 236/48/236 227/46/227
f 235/49/235 245/50/245 236/48/236
f 244/51/244 254/52/254 245/50/245
f 254/52/254 262/53/262 263/54/263
f 263/54/263 271/55/271 272/56/272
f 271/55/271 281/57/281 272/56/272
f 280/58/280 290/59/290 281/57/281
f 289/60/289 299/61/299 290/59/290
f 299/61/299 307/62/307 308/63/308
f 307/62/307 317/64/317 308/63/308
f 317/64/317 325/65/325 326/66/326
f 325/65/325 335/67/335 326/66/326
f 334/68/334 344/69/344 335/67/335
f 344/69/344 352/70/352 353/71/353
f 352/70/352 362/72/362 353/71/353
f 361/73/361 371/74/371 362/72/362
f 370/75/370 380/76/380 371/74/371
f 379/77/379 389/78/389 380/76/380
f 388/79/388 398/80/398 389/78/389
f 397/81/397 407/82/407 398/80/398
f 406/83/406 416/84/416 407/82/407
f 416/84/416 424/85/424 425/86/425
f 424/85/424 2/87/2 425/86/425
f 3/88/3 11/2/11 12/89/12
f 11/2/11 21/90/21 12/89/12
f 20/5/20 30/91/30 21/90/21
f 30/91/30 38/9/38 39/92/39
f 39/92/39 47/10/47 48/93/48
f 47/10/47 57/94/57 48/93/48
f 57/94/57 65/13/65 66/95/66
f 65/13/65 75/96/75 66/95/66
f 74/15/74 84/97/84 75/96/75
f 84/97/84 92/19/92 93/98/93
f 93/98/93 101/20/101 102/99/102
f 101/20/101 111/100/111 102/99/102
f 110/22/110 120/101/120 111/100/111
f 119/24/119 129/102/129 120/101/120
f 128/26/128 138/103/138 129/102/129
f 137/28/137 147/104/147 138/103/138
f 146/30/146 156/105/156 147/104/147
f 155/31/155 165/106/165 156/105/156
f 164/33/164 174/107/174 165/106/165
f 174/107/174 182/36/182 183/108/183
f 182/36/182 192/109/192 183/108/183
f 191/38/191 201/110/201 192/109/192
f 201/110/201 209/42/209 210/111/210
f 209/42/209 219/112/219 210/111/210
f 218/44/218 228/113/228 219/112/219
f 227/46/227 237/114/237 228/113/228
f 236/48/236 246/115/246 237/114/237
f 245/50/245 255/116/255 246/115/246
f 255/116/255 263/54/263 264/117/264
f 263/54/263 273/118/273 264/117/264
f 272/56/272 282/119/282 273/118/273
f 281/57/281 291/120/291 282/119/282
f 291/120/291 299/61/299 300/121/300
f 299/61/299 309/122/309 300/121/300
f 309/122/309 317/64/317 318/123/318
f 317/64/317 327/124/327 318/123/318
f 327/124/327 335/67/335 336/125/336
f 335/67/335 345/126/345 336/125/336
f 344/69/344 354/127/354 345/126/345
f 353/71/353 363/128/363 354/127/354
f 362/72/362 372/129/372 363/128/363
f 371/74/371 381/130/381 372/129/372
f 380/76/380 390/131/390 381/130/381
f 390/131/390 398/80/398 399/132/399
f 399/132/399 407/82/407 408/133/408
f 407/82/407 417/134/417 408/133/408
f 417/134/417 425/86/425 426/135/426
f 425/86/425 3/136/3 426/135/426
f 3/88/3 13/137/13 4/138/4
f 13/137/13 21/90/21 22/139/22
f 21/90/21 31/140/31 22/139/22
f 30/91/30 40/141/40 31/140/31
f 39/92/39 49/142/49 40/141/40
f 49/142/49 57/94/57 58/143/58
f 57/94/57 67/144/67 58/143/58
f 67/144/67 75/96/75 76/145/76
f 75/96/75 85/146/85 76/145/76
f 85/146/85 93/98/93 94/147/94
f 93/98/93 103/148/103 94/147/94
f 102/99/102 112/149/112 103/148/103
f 111/100/111 121/150/121 112/149/112
f 120/101/120 130/151/130 121/150/121
f 129/102/129 139/152/139 130/151/130
f 138/103/138 148/153/148 139/152/139
f 147/104/147 157/154/157 148/153/148
f 156/105/156 166/155/166 157/154/157
f 165/106/165 175/156/175 166/155/166
f 175/156/175 183/108/183 184/157/184
f 183/108/183 193/158/193 184/157/184
f 192/109/192 202/159/202 193/158/193
f 202/159/202 210/111/210 211/160/211
f 210/111/210 220/161/220 211/160/211
f 219/112/219 229/162/229 220/161/220
f 229/162/229 237/114/237 238/163/238
f 237/114/237 247/164/247 238/163/238
f 246/115/246 256/165/256 247/164/247
f 256/165/256 264/117/264 265/166/265
f 264/117/264 274/167/274 265/166/265
f 273/118/273 283/168/283 274/167/274
f 282/119/282 292/169/292 283/168/283
f 291/120/291 301/170/301 292/169/292
f 300/121/300 310/171/310 301/170/301
f 309/122/309 319/172/319 310/171/310
f 318/123/318 328/173/328 319/172/319
f 327/124/327 337/174/337 328/173/328
f 337/174/337 345/126/345 346/175/346
f 345/126/345 355/176/355 346/175/346
f 354/127/354 364/177/364 355/176/355
f 363/128/363 373/178/373 364/177/364
f 372/129/372 382/179/382 373/178/373
f 381/130/381 391/180/391 382/179/382
f 390/131/390 400/181/400 391/180/391
f 399/132/399 409/182/409 400/181/400
f 408/133/408 418/183/418 409/182/409
f 417/134/417 427/184/427 418/183/418
f 426/135/426 4/185/4 427/184/427
f 5/186/5 13/137/13 14/187/14
f 13/137/13 23/188/23 14/187/14
f 22/139/22 32/189/32 23/188/23
f 31/140/31 41/190/41 32/189/32
f 40/141/40 50/191/50 41/190/41
f 49/142/49 59/192/59 50/191/50
f 58/143/58 68/193/68 59/192/59
f 68/193/68 76/145/76 77/194/77
f 76/145/76 86/195/86 77/194/77
f 85/146/85 95/196/95 86/195/86
f 94/147/94 104/197/104 95/196/95
f 103/148/103 113/198/113 104/197/104
f 112/149/112 122/199/122 113/198/113
f 121/150/121 131/200/131 122/199/122
f 130/151/130 140/201/140 131/200/131
f 139/152/139 149/202/149 140/201/140
f 149/202/149 157/154/157 158/203/158
f 157/154/157 167/204/167 158/203/158
f 166/155/166 176/205/176 167/204/167
f 175/156/175 185/206/185 176/205/176
f 184/157/184 194/207/194 185/206/185
f 194/207/194 202/159/202 203/208/203
f 203/208/203 211/160/211 212/209/212
f 211/160/211 221/210/221 212/209/212
f 220/161/220 230/211/230 221/210/221
f 230/211/230 238/163/238 239/212/239
f 238/163/238 248/213/248 239/212/239
f 247/164/247 257/214/257 248/213/248
f 256/165/256 266/215/266 257/214/257
f 265/166/265 275/216/275 266/215/266
f 274/167/274 284/217/284 275/216/275
f 284/217/284 292/169/292 293/218/293
f 292/169/292 302/219/302 293/218/293
f 301/170/301 311/220/311 302/219/302
f 310/171/310 320/221/320 311/220/311
f 319/172/319 329/222/329 320/221/320
f 328/173/328 338/223/338 329/222/329
f 337/174/337 347/224/347 338/223/338
f 346/175/346 356/225/356 347/224/347
f 355/176/355 365/226/365 356/225/356
f 365/226/365 373/178/373 374/227/374
f 374/227/374 382/179/382 383/228/383
f 382/179/382 392/229/392 383/228/383
f 392/229/392 400/181/400 401/230/401
f 400/181/400 410/231/410 401/230/401
f 409/182/409 419/232/419 410/231/410
f 419/232/419 427/184/427 428/233/428
f 428/233/428 4/185/4 5/234/5
f 5/186/5 15/235/15 6/236/6
f 14/187/14 24/237/24 15/235/15
f 23/188/23 33/238/33 24/237/24
f 32/189/32 42/239/42 33/238/33
f 41/190/41 51/240/51 42/239/42
f 50/191/50 60/241/60 51/240/51
f 60/241/60 68/193/68 69/242/69
f 68/193/68 78/243/78 69/242/69
f 77/194/77 87/244/87 78/243/78
f 87/244/87 95/196/95 96/245/96
f 95/196/95 105/246/105 96/245/96
f 104/197/104 114/247/114 105/246/105
f 113/198/113 123/248/123 114/247/114
f 122/199/122 132/249/132 123/248/123
f 131/200/131 141/250/141 132/249/132
f 140/201/140 150/251/150 141/250/141
f 149/202/149 159/252/159 150/251/150
f 158/203/158 168/253/168 159/252/159
f 167/204/167 177/254/177 168/253/168
f 176/205/176 186/255/186 177/254/177
f 186/255/186 194/207/194 195/256/195
f 194/207/194 204/257/204 195/256/195
f 203/208/203 213/258/213 204/257/204
f 212/209/212 222/259/222 213/258/213
f 221/210/221 231/260/231 222/259/222
f 230/211/230 240/261/240 231/260/231
f 240/261/240 248/213/248 249/262/249
f 248/213/248 258/263/258 249/262/249
f 257/214/257 267/264/267 258/263/258
f 267/264/267 275/216/275 276/265/276
f 275/216/275 285/266/285 276/265/276
f 284/217/284 294/267/294 285/266/285
f 293/218/293 303/268/303 294/267/294
f 302/219/302 312/269/312 303/268/303
f 312/269/312 320/221/320 321/270/321
f 320/221/320 330/271/330 321/270/321
f 330/271/330 338/223/338 339/272/339
f 339/272/339 347/224/347 348/273/348
f 347/224/347 357/274/357 348/273/348
f 357/274/357 365/226/365 366/275/366
f 366/275/366 374/227/374 375/276/375
f 374/227/374 384/277/384 375/276/375
f 383/228/383 393/278/393 384/277/384
f 392/229/392 402/279/402 393/278/393
f 401/230/401 411/280/411 402/279/402
f 410/231/410 420/281/420 411/280/411
f 419/232/419 429/282/429 420/281/420
f 428/233/428 6/283/6 429/282/429
f 7/284/7 15/235/15 16/285/16
f 15/235/15 25/286/25 16/285/16
f 24/237/24 34/287/34 25/286/25
f 33/238/33 43/288/43 34/287/34
f 42/239/42 52/289/52 43/288/43
f 51/240/51 61/290/61 52/289/52
f 60/241/60 70/291/70 61/290/61
f 69/242/69 79/292/79 70/291/70
f 79/292/79 87/244/87 88/293/88
f 87/244/87 97/294/97 88/293/88
f 96/245/96 106/295/106 97/294/97
f 105/246/105 115/296/115 106/295/106
f 114/247/114 124/297/124 115/296/115
f 123/248/123 133/298/133 124/297/124
f 132/249/132 142/299/142 133/298/133
f 141/250/141 151/300/151 142/299/142
f 150/251/150 160/301/160 151/300/151
f 159/252/159 169/302/169 160/301/160
f 169/302/169 177/254/177 178/303/178
f 177/254/177 187/304/187 178/303/178
f 186/255/186 196/305/196 187/304/187
f 196/305/196 204/257/204 205/306/205
f 204/257/204 214/307/214 205/306/205
f 213/258/213 223/308/223 214/307/214
f 222/259/222 232/309/232 223/308/223
f 231/260/231 241/310/241 232/309/232
f 240/261/240 250/311/250 241/310/241
f 250/311/250 258/263/258 259/312/259
f 258/263/258 268/313/268 259/312/259
f 267/264/267 277/314/277 268/313/268
f 276/265/276 286/315/286 277/314/277
f 285/266/285 295/316/295 286/315/286
f 294/267/294 304/317/304 295/316/295
f 303/268/303 313/318/313 304/317/304
f 313/318/313 321/270/321 322/319/322
f 322/319/322 330/271/330 331/320/331
f 330/271/330 340/321/340 331/320/331
f 339/272/339 349/322/349 340/321/340
f 348/273/348 358/323/358 349/322/349
f 357/274/357 367/324/367 358/323/358
f 366/275/366 376/325/376 367/324/367
f 375/276/375 385/326/385 376/325/376
f 384/277/384 394/327/394 385/326/385
f 393/278/393 403/328/403 394/327/394
f 402/279/402 412/329/412 403/328/403
f 411/280/411 421/330/421 412/329/412
f 420/281/420 430/331/430 421/330/421
f 429/282/429 7/332/7 430/331/430
f 7/284/7 17/333/17 8/334/8
f 17/333/17 25/286/25 26/335/26
f 25/286/25 35/336/35 26/335/26
f 34/287/34 44/337/44 35/336/35
f 43/288/43 53/338/53 44/337/44
f 52/289/52 62/339/62 53/338/53
f 62/339/62 70/291/70 71/340/71
f 70/291/70 80/341/80 71/340/71
f 80/341/80 88/293/88 89/342/89
f 88/293/88 98/343/98 89/342/89
f 97/294/97 107/344/107 98/343/98
f 106/295/106 116/345/116 107/344/107
f 115/296/115 125/346/125 116/345/116
f 124/297/124 134/347/134 125/346/125
f 133/298/133 143/348/143 134/347/134
f 142/299/142 152/349/152 143/348/143
f 152/349/152 160/301/160 161/350/161
f 161/350/161 169/302/169 170/351/170
f 169/302/169 179/352/179 170/351/170
f 178/303/178 188/353/188 179/352/179
f 187/304/187 197/354/197 188/353/188
f 197/354/197 205/306/205 206/355/206
f 205/306/205 215/356/215 206/355/206
f 214/307/214 224/357/224 215/356/215
f 224/357/224 232/309/232 233/358/233
f 232/309/232 242/359/242 233/358/233
f 241/310/241 251/360/251 242/359/242
f 251/360/251 259/312/259 260/361/260
f 259/312/259 269/362/269 260/361/260
f 268/313/268 278/363/278 269/362/269
f 277/314/277 287/364/287 278/363/278
f 286/315/286 296/365/296 287/364/287
f 295/316/295 305/366/305 296/365/296
f 305/366/305 313/318/313 314/367/314
f 313/318/313 323/368/323 314/367/314
f 322/319/322 332/369/332 323/368/323
f 331/320/331 341/370/341 332/369/332
f 340/321/340 350/371/350 341/370/341
f 350/371/350 358/323/358 359/372/359
f 358/323/358 368/373/368 359/372/359
f 367/324/367 377/374/377 368/373/368
f 376/325/376 386/375/386 377/374/377
f 385/326/385 395/376/395 386/375/386
f 394/327/394 404/377/404 395/376/395
f 403/328/403 413/378/413 404/377/404
f 413/378/413 421/330/421 422/379/422
f 421/330/421 431/380/431 422/379/422
f 430/331/430 8/381/8 431/380/431
f 9/382/9 17/333/17 18/383/18
f 17/333/17 27/384/27 18/383/18
f 26/335/26 36/385/36 27/384/27
f 35/336/35 45/386/45 36/385/36
f 44/337/44 54/387/54 45/386/45
f 53/338/53 63/388/63 54/387/54
f 62/339/62 72/389/72 63/388/63
f 71/340/71 81/390/81 72/389/72
f 80/341/80 90/391/90 81/390/81
f 89/342/89 99/392/99 90/391/90
f 98/343/98 108/393/108 99/392/99
f 108/393/108 116/345/116 117/394/117
f 116/345/116 126/395/126 117/394/117
f 126/395/126 134/347/134 135/396/135
f 134/347/134 144/397/144 135/396/135
f 143/348/143 153/398/153 144/397/144
f 152/349/152 162/399/162 153/398/153
f 161/350/161 171/400/171 162/399/162
f 170/351/170 180/401/180 171/400/171
f 179/352/179 189/402/189 180/401/180
f 188/353/188 198/403/198 189/402/189
f 197/354/197 207/404/207 198/403/198
f 206/355/206 216/405/216 207/404/207
f 216/405/216 224/357/224 225/406/225
f 225/406/225 233/358/233 234/407/234
f 233/358/233 243/408/243 234/407/234
f 243/408/243 251/360/251 252/409/252
f 252/409/252 260/361/260 261/410/261
f 260/361/260 270/411/270 261/410/261
f 269/362/269 279/412/279 270/411/270
f 279/412/279 287/364/287 288/413/288
f 287/364/287 297/414/297 288/413/288
f 296/365/296 306/415/306 297/414/297
f 306/415/306 314/367/314 315/416/315
f 315/416/315 323/368/323 324/417/324
f 323/368/323 333/418/333 324/417/324
f 332/369/332 342/419/342 333/418/333
f 341/370/341 351/420/351 342/419/342
f 350/371/350 360/421/360 351/420/351
f 359/372/359 369/422/369 360/421/360
f 369/422/369 377/374/377 378/423/378
f 377/374/377 387/424/387 378/423/378
f 386/375/386 396/425/396 387/424/387
f 395/376/395 405/426/405 396/425/396
f 404/377/404 414/427/414 405/426/405
f 414/427/414 422/379/422 423/428/423
f 422/379/422 432/429/432 423/428/423
f 431/380/431 9/430/9 432/429/432
f 9/382/9 10/4/10 1/1/1
f 18/383/18 19/6/19 10/4/10
f 27/384/27 28/431/28 19/6/19
f 36/385/36 37/8/37 28/431/28
f 45/386/45 46/432/46 37/8/37
f 54/387/54 55/11/55 46/432/46
f 63/388/63 64/14/64 55/11/55
f 72/389/72 73/16/73 64/14/64
f 81/390/81 82/433/82 73/16/73
f 90/391/90 91/18/91 82/433/82
f 99/392/99 100/21/100 91/18/91
f 108/393/108 109/23/109 100/21/100
f 117/394/117 118/25/118 109/23/109
f 126/395/126 127/27/127 118/25/118
f 135/396/135 136/434/136 127/27/127
f 144/397/144 145/29/145 136/434/136
f 153/398/153 154/435/154 145/29/145
f 162/399/162 163/32/163 154/435/154
f 171/400/171 172/34/172 163/32/163
f 180/401/180 181/37/181 172/34/172
f 189/402/189 190/39/190 181/37/181
f 198/403/198 199/41/199 190/39/190
f 207/404/207 208/43/208 199/41/199
f 216/405/216 217/45/217 208/43/208
f 225/406/225 226/47/226 217/45/217
f 234/407/234 235/49/235 226/47/226
f 243/408/243 244/51/244 235/49/235
f 252/409/252 253/436/253 244/51/244
f 261/410/261 262/53/262 253/436/253
f 270/411/270 271/55/271 262/53/262
f 279/412/279 280/58/280 271/55/271
f 288/413/288 289/60/289 280/58/280
f 297/414/297 298/437/298 289/60/289
f 306/415/306 307/62/307 298/437/298
f 315/416/315 316/438/316 307/62/307
f 324/417/324 325/65/325 316/438/316
f 333/418/333 334/68/334 325/65/325
f 342/419/342 343/439/343 334/68/334
f 351/420/351 352/70/352 343/439/343
f 360/421/360 361/73/361 352/70/352
f 369/422/369 370/75/370 361/73/361
f 378/423/378 379/77/379 370/75/370
f 387/424/387 388/79/388 379/77/379
f 396/425/396 397/81/397 388/79/388
f 405/426/405 406/83/406 397/81/397
f 414/427/414 415/440/415 406/83/406
f 423/428/423 424/85/424 415/440/415
f 432/429/432 1/441/1 424/85/424
f 1/1/1 10/4/10 11/2/11
f 10/4/10 19/6/19 20/5/20
f 19/6/19 28/431/28 29/7/29
f 29/7/29 28/431/28 37/8/37
f 37/8/37 46/432/46 47/10/47
f 47/10/47 46/432/46 55/11/55
f 55/11/55 64/14/64 65/13/65
f 64/14/64 73/16/73 74/15/74
f 73/16/73 82/433/82 83/17/83
f 83/17/83 82/433/82 91/18/91
f 91/18/91 100/21/100 101/20/101
f 100/21/100 109/23/109 110/22/110
f 109/23/109 118/25/118 119/24/119
f 118/25/118 127/27/127 128/26/128
f 127/27/127 136/434/136 137/28/137
f 137/28/137 136/434/136 145/29/145
f 145/29/145 154/435/154 155/31/155
f 155/31/155 154/435/154 163/32/163
f 164/33/164 163/32/163 172/34/172
f 172/34/172 181/37/181 182/36/182
f 181/37/181 190/39/190 191/38/191
f 190/39/190 199/41/199 200/40/200
f 199/41/199 208/43/208 209/42/209
f 208/43/208 217/45/217 218/44/218
f 217/45/217 226/47/226 227/46/227
f 226/47/226 235/49/235 236/48/236
f 235/49/235 244/51/244 245/50/245
f 244/51/244 253/436/253 254/52/254
f 254/52/254 253/436/253 262/53/262
f 263/54/263 262/53/262 271/55/271
f 271/55/271 280/58/280 281/57/281
f 280/58/280 289/60/289 290/59/290
f 289/60/289 298/437/298 299/61/299
f 299/61/299 298/437/298 307/62/307
f 307/62/307 316/438/316 317/64/317
f 317/64/317 316/438/316 325/65/325
f 325/65/325 334/68/334 335/67/335
f 334/68/334 343/439/343 344/69/344
f 344/69/344 343/439/343 352/70/352
f 352/70/352 361/73/361 362/72/362
f 361/73/361 370/75/370 371/74/371
f 370/75/370 379/77/379 380/76/380
f 379/77/379 388/79/388 389/78/389
f 388/79/388 397/81/397 398/80/398
f 397/81/397 406/83/406 407/82/407
f 406/83/406 415/440/415 416/84/416
f 416/84/416 415/440/415 424/85/424
f 424/85/424 1/441/1 2/87/2
f 3/88/3 2/3/2 11/2/11
f 11/2/11 20/5/20 21/90/21
f 20/5/20 29/7/29 30/91/30
f 30/91/30 29/7/29 38/9/38
f 39/92/39 38/9/38 47/10/47
f 47/10/47 56/12/56 57/94/57
f 57/94/57 56/12/56 65/13/65
f 65/13/65 74/15/74 75/96/75
f 74/15/74 83/17/83 84/97/84
f 84/97/84 83/17/83 92/19/92
f 93/98/93 92/19/92 101/20/101
f 101/20/101 110/22/110 111/100/111
f 110/22/110 119/24/119 120/101/120
f 119/24/119 128/26/128 129/102/129
f 128/26/128 137/28/137 138/103/138
f 137/28/137 146/30/146 147/104/147
f 146/30/146 155/31/155 156/105/156
f 155/31/155 164/33/164 165/106/165
f 164/33/164 173/35/173 174/107/174
f 174/107/174 173/35/173 182/36/182
f 182/36/182 191/38/191 192/109/192
f 191/38/191 200/40/200 201/110/201
f 201/110/201 200/40/200 209/42/209
f 209/42/209 218/44/218 219/112/219
f 218/44/218 227/46/227 228/113/228
f 227/46/227 236/48/236 237/114/237
f 236/48/236 245/50/245 246/115/246
f 245/50/245 254/52/254 255/116/255
f 255/116/255 254/52/254 263/54/263
f 263/54/263 272/56/272 273/118/273
f 272/56/272 281/57/281 282/119/282
f 281/57/281 290/59/290 291/120/291
f 291/120/291 290/59/290 299/61/299
f 299/61/299 308/63/308 309/122/309
f 309/122/309 308/63/308 317/64/317
f 317/64/317 326/66/326 327/124/327
f 327/124/327 326/66/326 335/67/335
f 335/67/335 344/69/344 345/126/345
f 344/69/344 353/71/353 354/127/354
f 353/71/353 362/72/362 363/128/363
f 362/72/362 371/74/371 372/129/372
f 371/74/371 380/76/380 381/130/381
f 380/76/380 389/78/389 390/131/390
f 390/131/390 389/78/389 398/80/398
f 399/132/399 398/80/398 407/82/407
f 407/82/407 416/84/416 417/134/417
f 417/134/417 416/84/416 425/86/425
f 425/86/425 2/87/2 3/136/3
f 3/88/3 12/89/12 13/137/13
f 13/137/13 12/89/12 21/90/21
f 21/90/21 30/91/30 31/140/31
f 30/91/30 39/92/39 40/141/40
f 39/92/39 48/93/48 49/142/49
f 49/142/49 48/93/48 57/94/57
f 57/94/57 66/95/66 67/144/67
f 67/144/67 66/95/66 75/96/75
f 75/96/75 84/97/84 85/146/85
f 85/146/85 84/97/84 93/98/93
f 93/98/93 102/99/102 103/148/103
f 102/99/102 111/100/111 112/149/112
f 111/100/111 120/101/120 121/150/121
f 120/101/120 129/102/129 130/151/130
f 129/102/129 138/103/138 139/152/139
f 138/103/138 147/104/147 148/153/148
f 147/104/147 156/105/156 157/154/157
f 156/105/156 165/106/165 166/155/166
f 165/106/165 174/107/174 175/156/175
f 175/156/175 174/107/174 183/108/183
f 183/108/183 192/109/192 193/158/193
f 192/109/192 201/110/201 202/159/202
f 202/159/202 201/110/201 210/111/210
f 210/111/210 219/112/219 220/161/220
f 219/112/219 228/113/228 229/162/229
f 229/162/229 228/113/228 237/114/237
f 237/114/237 246/115/246 247/164/247
f 246/115/246 255/116/255 256/165/256
f 256/165/256 255/116/255 264/117/264
f 264/117/264 273/118/273 274/167/274
f 273/118/273 282/119/282 283/168/283
f 282/119/282 291/120/291 292/169/292
f 291/120/291 300/121/300 301/170/301
f 300/121/300 309/122/309 310/171/310
f 309/122/309 318/123/318 319/172/319
f 318/123/318 327/124/327 328/173/328
f 327/124/327 336/125/336 337/174/337
f 337/174/337 336/125/336 345/126/345
f 345/126/345 354/127/354 355/176/355
f 354/127/354 363/128/363 364/177/364
f 363/128/363 372/129/372 373/178/373
f 372/129/372 381/130/381 382/179/382
f 381/130/381 390/131/390 391/180/391
f 390/131/390 399/132/399 400/181/400
f 399/132/399 408/133/408 409/182/409
f 408/133/408 417/134/417 418/183/418
f 417/134/417 426/135/426 427/184/427
f 426/135/426 3/136/3 4/185/4
f 5/186/5 4/138/4 13/137/13
f 13/137/13 22/139/22 23/188/23
f 22/139/22 31/140/31 32/189/32
f 31/140/31 40/141/40 41/190/41
f 40/141/40 49/142/49 50/191/50
f 49/142/49 58/143/58 59/192/59
f 58/143/58 67/144/67 68/193/68
f 68/193/68 67/144/67 76/145/76
f 76/145/76 85/146/85 86/195/86
f 85/146/85 94/147/94 95/196/95
f 94/147/94 103/148/103 104/197/104
f 103/148/103 112/149/112 113/198/113
f 112/149/112 121/150/121 122/199/122
f 121/150/121 130/151/130 131/200/131
f 130/151/130 139/152/139 140/201/140
f 139/152/139 148/153/148 149/202/149
f 149/202/149 148/153/148 157/154/157
f 157/154/157 166/155/166 167/204/167
f 166/155/166 175/156/175 176/205/176
f 175/156/175 184/157/184 185/206/185
f 184/157/184 193/158/193 194/207/194
f 194/207/194 193/158/193 202/159/202
f 203/208/203 202/159/202 211/160/211
f 211/160/211 220/161/220 221/210/221
f 220/161/220 229/162/229 230/211/230
f 230/211/230 229/162/229 238/163/238
f 238/163/238 247/164/247 248/213/248
f 247/164/247 256/165/256 257/214/257
f 256/165/256 265/166/265 266/215/266
f 265/166/265 274/167/274 275/216/275
f 274/167/274 283/168/283 284/217/284
f 284/217/284 283/168/283 292/169/292
f 292/169/292 301/170/301 302/219/302
f 301/170/301 310/171/310 311/220/311
f 310/171/310 319/172/319 320/221/320
f 319/172/319 328/173/328 329/222/329
f 328/173/328 337/174/337 338/223/338
f 337/174/337 346/175/346 347/224/347
f 346/175/346 355/176/355 356/225/356
f 355/176/355 364/177/364 365/226/365
f 365/226/365 364/177/364 373/178/373
f 374/227/374 373/178/373 382/179/382
f 382/179/382 391/180/391 392/229/392
f 392/229/392 391/180/391 400/181/400
f 400/181/400 409/182/409 410/231/410
f 409/182/409 418/183/418 419/232/419
f 419/232/419 418/183/418 427/184/427
f 428/233/428 427/184/427 4/185/4
f 5/186/5 14/187/14 15/235/15
f 14/187/14 23/188/23 24/237/24
f 23/188/23 32/189/32 33/238/33
f 32/189/32 41/190/41 42/239/42
f 41/190/41 50/191/50 51/240/51
f 50/191/50 59/192/59 60/241/60
f 60/241/60 59/192/59 68/193/68
f 68/193/68 77/194/77 78/243/78
f 77/194/77 86/195/86 87/244/87
f 87/244/87 86/195/86 95/196/95
f 95/196/95 104/197/104 105/246/105
f 104/197/104 113/198/113 114/247/114
f 113/198/113 122/199/122 123/248/123
f 122/199/122 131/200/131 132/249/132
f 131/200/131 140/201/140 141/250/141
f 140/201/140 149/202/149 150/251/150
f 149/202/149 158/203/158 159/252/159
f 158/203/158 167/204/167 168/253/168
f 167/204/167 176/205/176 177/254/177
f 176/205/176 185/206/185 186/255/186
f 186/255/186 185/206/185 194/207/194
f 194/207/194 203/208/203 204/257/204
f 203/208/203 212/209/212 213/258/213
f 212/209/212 221/210/221 222/259/222
f 221/210/221 230/211/230 231/260/231
f 230/211/230 239/212/239 240/261/240
f 240/261/240 239/212/239 248/213/248
f 248/213/248 257/214/257 258/263/258
f 257/214/257 266/215/266 267/264/267
f 267/264/267 266/215/266 275/216/275
f 275/216/275 284/217/284 285/266/285
f 284/217/284 293/218/293 294/267/294
f 293/218/293 302/219/302 303/268/303
f 302/219/302 311/220/311 312/269/312
f 312/269/312 311/220/311 320/221/320
f 320/221/320 329/222/329 330/271/330
f 330/271/330 329/222/329 338/223/338
f 339/272/339 338/223/338 347/224/347
f 347/224/347 356/225/356 357/274/357
f 357/274/357 356/225/356 365/226/365
f 366/275/366 365/226/365 374/227/374
f 374/227/374 383/228/383 384/277/384
f 383/228/383 392/229/392 393/278/393
f 392/229/392 401/230/401 402/279/402
f 401/230/401 410/231/410 411/280/411
f 410/231/410 419/232/419 420/281/420
f 419/232/419 428/233/428 429/282/429
f 428/233/428 5/234/5 6/283/6
f 7/284/7 6/236/6 15/235/15
f 15/235/15 24/237/24 25/286/25
f 24/237/24 33/238/33 34/287/34
f 33/238/33 42/239/42 43/288/43
f 42/239/42 51/240/51 52/289/52
f 51/240/51 60/241/60 61/290/61
f 60/241/60 69/242/69 70/291/70
f 69/242/69 78/243/78 79/292/79
f 79/292/79 78/243/78 87/244/87
f 87/244/87 96/245/96 97/294/97
f 96/245/96 105/246/105 106/295/106
f 105/246/105 114/247/114 115/296/115
f 114/247/114 123/248/123 124/297/124
f 123/248/123 132/249/132 133/298/133
f 132/249/132 141/250/141 142/299/142
f 141/250/141 150/251/150 151/300/151
f 150/251/150 159/252/159 160/301/160
f 159/252/159 168/253/168 169/302/169
f 169/302/169 168/253/168 177/254/177
f 177/254/177 186/255/186 187/304/187
f 186/255/186 195/256/195 196/305/196
f 196/305/196 195/256/195 204/257/204
f 204/257/204 213/258/213 214/307/214
f 213/258/213 222/259/222 223/308/223
f 222/259/222 231/260/231 232/309/232
f 231/260/231 240/261/240 241/310/241
f 240/261/240 249/262/249 250/311/250
f 250/311/250 249/262/249 258/263/258
f 258/263/258 267/264/267 268/313/268
f 267/264/267 276/265/276 277/314/277
f 276/265/276 285/266/285 286/315/286
f 285/266/285 294/267/294 295/316/295
f 294/267/294 303/268/303 304/317/304
f 303/268/303 312/269/312 313/318/313
f 313/318/313 312/269/312 321/270/321
f 322/319/322 321/270/321 330/271/330
f 330/271/330 339/272/339 340/321/340
f 339/272/339 348/273/348 349/322/349
f 348/273/348 357/274/357 358/323/358
f 357/274/357 366/275/366 367/324/367
f 366/275/366 375/276/375 376/325/376
f 375/276/375 384/277/384 385/326/385
f 384/277/384 393/278/393 394/327/394
f 393/278/393 402/279/402 403/328/403
f 402/279/402 411/280/411 412/329/412
f 411/280/411 420/281/420 421/330/421
f 420/281/420 429/282/429 430/331/430
f 429/282/429 6/283/6 7/332/7
f 7/284/7 16/285/16 17/333/17
f 17/333/17 16/285/16 25/286/25
f 25/286/25 34/287/34 35/336/35
f 34/287/34 43/288/43 44/337/44
f 43/288/43 52/289/52 53/338/53
f 52/289/52 61/290/61 62/339/62
f 62/339/62 61/290/61 70/291/70
f 70/291/70 79/292/79 80/341/80
f 80/341/80 79/292/79 88/293/88
f 88/293/88 97/294/97 98/343/98
f 97/294/97 106/295/106 107/344/107
f 106/295/106 115/296/115 116/345/116
f 115/296/115 124/297/124 125/346/125
f 124/297/124 133/298/133 134/347/134
f 133/298/133 142/299/142 143/348/143
f 142/299/142 151/300/151 152/349/152
f 152/349/152 151/300/151 160/301/160
f 161/350/161 160/301/160 169/302/169
f 169/302/169 178/303/178 179/352/179
f 178/303/178 187/304/187 188/353/188
f 187/304/187 196/305/196 197/354/197
f 197/354/197 196/305/196 205/306/205
f 205/306/205 214/307/214 215/356/215
f 214/307/214 223/308/223 224/357/224
f 224/357/224 223/308/223 232/309/232
f 232/309/232 241/310/241 242/359/242
f 241/310/241 250/311/250 251/360/251
f 251/360/251 250/311/250 259/312/259
f 259/312/259 268/313/268 269/362/269
f 268/313/268 277/314/277 278/363/278
f 277/314/277 286/315/286 287/364/287
f 286/315/286 295/316/295 296/365/296
f 295/316/295 304/317/304 305/366/305
f 305/366/305 304/317/304 313/318/313
f 313/318/313 322/319/322 323/368/323
f 322/319/322 331/320/331 332/369/332
f 331/320/331 340/321/340 341/370/341
f 340/321/340 349/322/349 350/371/350
f 350/371/350 349/322/349 358/323/358
f 358/323/358 367/324/367 368/373/368
f 367/324/367 376/325/376 377/374/377
f 376/325/376 385/326/385 386/375/386
f 385/326/385 394/327/394 395/376/395
f 394/327/394 403/328/403 404/377/404
f 403/328/403 412/329/412 413/378/413
f 413/378/413 412/329/412 421/330/421
f 421/330/421 430/331/430 431/380/431
f 430/331/430 7/332/7 8/381/8
f 9/382/9 8/334/8 17/333/17
f 17/333/17 26/335/26 27/384/27
f 26/335/26 35/336/35 36/385/36
f 35/336/35 44/337/44 45/386/45
f 44/337/44 53/338/53 54/387/54
f 53/338/53 62/339/62 63/388/63
f 62/339/62 71/340/71 72/389/72
f 71/340/71 80/341/80 81/390/81
f 80/341/80 89/342/89 90/391/90
f 89/342/89 98/343/98 99/392/99
f 98/343/98 107/344/107 108/393/108
f 108/393/108 107/344/107 116/345/116
f 116/345/116 125/346/125 126/395/126
f 126/395/126 125/346/125 134/347/134
f 134/347/134 143/348/143 144/397/144
f 143/348/143 152/349/152 153/398/153
f 152/349/152 161/350/161 162/399/162
f 161/350/161 170/351/170 171/400/171
f 170/351/170 179/352/179 180/401/180
f 179/352/179 188/353/188 189/402/189
f 188/353/188 197/354/197 198/403/198
f 197/354/197 206/355/206 207/404/207
f 206/355/206 215/356/215 216/405/216
f 216/405/216 215/356/215 224/357/224
f 225/406/225 224/357/224 233/358/233
f 233/358/233 242/359/242 243/408/243
f 243/408/243 242/359/242 251/360/251
f 252/409/252 251/360/251 260/361/260
f 260/361/260 269/362/269 270/411/270
f 269/362/269 278/363/278 279/412/279
f 279/412/279 278/363/278 287/364/287
f 287/364/287 296/365/296 297/414/297
f 296/365/296 305/366/305 306/415/306
f 306/415/306 305/366/305 314/367/314
f 315/416/315 314/367/314 323/368/323
f 323/368/323 332/369/332 333/418/333
f 332/369/332 341/370/341 342/419/342
f 341/370/341 350/371/350 351/420/351
f 350/371/350 359/372/359 360/421/360
f 359/372/359 368/373/368 369/422/369
f 369/422/369 368/373/368 377/374/377
f 377/374/377 386/375/386 387/424/387
f 386/375/386 395/376/395 396/425/396
f 395/376/395 404/377/404 405/426/405
f 404/377/404 413/378/413 414/427/414
f 414/427/414 413/378/413 422/379/422
f 422/379/422 431/380/431 432/429/432
f 431/380/431 8/381/8 9/430/9
f 9/382/9 18/383/18 10/4/10
f 18/383/18 27/384/27 19/6/19
f 27/384/27 36/385/36 28/431/28
f 36/385/36 45/386/45 37/8/37
f 45/386/45 54/387/54 46/432/46
f 54/387/54 63/388/63 55/11/55
f 63/388/63 72/389/72 64/14/64
f 72/389/72 81/390/81 73/16/73
f 81/390/81 90/391/90 82/433/82
f 90/391/90 99/392/99 91/18/91
f 99/392/99 108/393/108 100/21/100
f 108/393/108 117/394/117 109/23/109
f 117/394/117 126/395/126 118/25/118
f 126/395/126 135/396/135 127/27/127
f 135/396/135 144/397/144 136/434/136
f 144/397/144 153/398/153 145/29/145
f 153/398/153 162/399/162 154/435/154
f 162/399/162 171/400/171 163/32/163
f 171/400/171 180/401/180 172/34/172
f 180/401/180 189/402/189 181/37/181
f 189/402/189 198/403/198 190/39/190
f 198/403/198 207/404/207 199/41/199
f 207/404/207 216/405/216 208/43/208
f 216/405/216 225/406/225 217/45/217
f 225/406/225 234/407/234 226/47/226
f 234/407/234 243/408/243 235/49/235
f 243/408/243 252/409/252 244/51/244
f 252/409/252 261/410/261 253/436/253
f 261/410/261 270/411/270 262/53/262
f 270/411/270 279/412/279 271/55/271
f 279/412/279 288/413/288 280/58/280
f 288/413/288 297/414/297 289/60/289
f 297/414/297 306/415/306 298/437/298
f 306/415/306 315/416/315 307/62/307
f 315/416/315 324/417/324 316/438/316
f 324/417/324 333/418/333 325/65/325
f 333/418/333 342/419/342 334/68/334
f 342/419/342 351/420/351 343/439/343
f 351/420/351 360/421/360 352/70/352
f 360/421/360 369/422/369 361/73/361
f 369/422/369 378/423/378 370/75/370
f 378/423/378 387/424/387 379/77/379
f 387/424/387 396/425/396 388/79/388
f 396/425/396 405/426/405 397/81/397
f 405/426/405 414/427/414 406/83/406
f 414/427/414 423/428/423 415/440/415
f 423/428/423 432/429/432 424/85/424
f 432/429/432 9/430/9 1/441/1
g B_DarkBore.001_B_DarkBore_profile.001
v 0.232000 0.000000 0.260000
v 0.232000 0.000000 -0.260000
v 0.246000 0.000000 -0.260000
v 0.246000 0.000000 0.260000
v 0.227542 -0.045261 0.260000
v 0.227542 -0.045261 -0.260000
v 0.241273 -0.047992 -0.260000
v 0.241273 -0.047992 0.260000
v 0.214340 -0.088783 0.260000
v 0.214340 -0.088783 -0.260000
v 0.227274 -0.094140 -0.260000
v 0.227274 -0.094140 0.260000
v 0.192901 -0.128892 0.260000
v 0.192901 -0.128892 -0.260000
v 0.204542 -0.136670 -0.260000
v 0.204542 -0.136670 0.260000
v 0.164049 -0.164049 0.260000
v 0.164049 -0.164049 -0.260000
v 0.173948 -0.173948 -0.260000
v 0.173948 -0.173948 0.260000
v 0.128892 -0.192901 0.260000
v 0.128892 -0.192901 -0.260000
v 0.136670 -0.204542 -0.260000
v 0.136670 -0.204542 0.260000
v 0.088783 -0.214340 0.260000
v 0.088783 -0.214340 -0.260000
v 0.094140 -0.227274 -0.260000
v 0.094140 -0.227274 0.260000
v 0.045261 -0.227542 0.260000
v 0.045261 -0.227542 -0.260000
v 0.047992 -0.241273 -0.260000
v 0.047992 -0.241273 0.260000
v -0.000000 -0.232000 0.260000
v -0.000000 -0.232000 -0.260000
v -0.000000 -0.246000 -0.260000
v -0.000000 -0.246000 0.260000
v -0.045261 -0.227542 0.260000
v -0.045261 -0.227542 -0.260000
v -0.047992 -0.241273 -0.260000
v -0.047992 -0.241273 0.260000
v -0.088783 -0.214340 0.260000
v -0.088783 -0.214340 -0.260000
v -0.094140 -0.227274 -0.260000
v -0.094140 -0.227274 0.260000
v -0.128892 -0.192901 0.260000
v -0.128892 -0.192901 -0.260000
v -0.136670 -0.204542 -0.260000
v -0.136670 -0.204542 0.260000
v -0.164049 -0.164049 0.260000
v -0.164049 -0.164049 -0.260000
v -0.173948 -0.173948 -0.260000
v -0.173948 -0.173948 0.260000
v -0.192901 -0.128892 0.260000
v -0.192901 -0.128892 -0.260000
v -0.204542 -0.136670 -0.260000
v -0.204542 -0.136670 0.260000
v -0.214340 -0.088783 0.260000
v -0.214340 -0.088783 -0.260000
v -0.227274 -0.094140 -0.260000
v -0.227274 -0.094140 0.260000
v -0.227542 -0.045261 0.260000
v -0.227542 -0.045261 -0.260000
v -0.241273 -0.047992 -0.260000
v -0.241273 -0.047992 0.260000
v -0.232000 0.000000 0.260000
v -0.232000 0.000000 -0.260000
v -0.246000 0.000000 -0.260000
v -0.246000 0.000000 0.260000
v -0.227542 0.045261 0.260000
v -0.227542 0.045261 -0.260000
v -0.241273 0.047992 -0.260000
v -0.241273 0.047992 0.260000
v -0.214340 0.088783 0.260000
v -0.214340 0.088783 -0.260000
v -0.227274 0.094140 -0.260000
v -0.227274 0.094140 0.260000
v -0.192901 0.128892 0.260000
v -0.192901 0.128892 -0.260000
v -0.204542 0.136670 -0.260000
v -0.204542 0.136670 0.260000
v -0.164049 0.164049 0.260000
v -0.164049 0.164049 -0.260000
v -0.173948 0.173948 -0.260000
v -0.173948 0.173948 0.260000
v -0.128892 0.192901 0.260000
v -0.128892 0.192901 -0.260000
v -0.136670 0.204542 -0.260000
v -0.136670 0.204542 0.260000
v -0.088782 0.214340 0.260000
v -0.088782 0.214340 -0.260000
v -0.094140 0.227274 -0.260000
v -0.094140 0.227274 0.260000
v -0.045261 0.227542 0.260000
v -0.045261 0.227542 -0.260000
v -0.047992 0.241273 -0.260000
v -0.047992 0.241273 0.260000
v 0.000000 0.232000 0.260000
v 0.000000 0.232000 -0.260000
v 0.000000 0.246000 -0.260000
v 0.000000 0.246000 0.260000
v 0.045261 0.227542 0.260000
v 0.045261 0.227542 -0.260000
v 0.047992 0.241273 -0.260000
v 0.047992 0.241273 0.260000
v 0.088783 0.214340 0.260000
v 0.088783 0.214340 -0.260000
v 0.094140 0.227274 -0.260000
v 0.094140 0.227274 0.260000
v 0.128892 0.192901 0.260000
v 0.128892 0.192901 -0.260000
v 0.136670 0.204541 -0.260000
v 0.136670 0.204541 0.260000
v 0.164049 0.164049 0.260000
v 0.164049 0.164049 -0.260000
v 0.173948 0.173948 -0.260000
v 0.173948 0.173948 0.260000
v 0.192901 0.128892 0.260000
v 0.192901 0.128892 -0.260000
v 0.204542 0.136670 -0.260000
v 0.204542 0.136670 0.260000
v 0.214340 0.088783 0.260000
v 0.214340 0.088783 -0.260000
v 0.227274 0.094140 -0.260000
v 0.227274 0.094140 0.260000
v 0.227542 0.045261 0.260000
v 0.227542 0.045261 -0.260000
v 0.241273 0.047992 -0.260000
v 0.241273 0.047992 0.260000
vn 0.6836 -0.0000 -0.7298
vn 0.6836 -0.0000 0.7298
vn -0.7279 -0.0000 0.6857
vn -0.7279 -0.0000 -0.6857
vn 0.6705 -0.1334 -0.7298
vn 0.6705 -0.1334 0.7298
vn -0.7139 0.1420 0.6857
vn -0.7139 0.1420 -0.6857
vn 0.6316 -0.2616 -0.7298
vn 0.6316 -0.2616 0.7298
vn -0.6725 0.2786 0.6857
vn -0.6725 0.2786 -0.6857
vn 0.5684 -0.3798 -0.7298
vn 0.5684 -0.3798 0.7298
vn -0.6052 0.4044 0.6857
vn -0.6052 0.4044 -0.6857
vn 0.4834 -0.4834 -0.7298
vn 0.4834 -0.4834 0.7298
vn -0.5147 0.5147 0.6857
vn -0.5147 0.5147 -0.6857
vn 0.3798 -0.5684 -0.7298
vn 0.3798 -0.5684 0.7298
vn -0.4044 0.6052 0.6857
vn -0.4044 0.6052 -0.6857
vn 0.2616 -0.6316 -0.7298
vn 0.2616 -0.6316 0.7298
vn -0.2786 0.6725 0.6857
vn -0.2786 0.6725 -0.6857
vn 0.1334 -0.6705 -0.7298
vn 0.1334 -0.6705 0.7298
vn -0.1420 0.7139 0.6857
vn -0.1420 0.7139 -0.6857
vn -0.0000 -0.6836 -0.7298
vn -0.0000 -0.6836 0.7298
vn -0.0000 0.7279 0.6857
vn -0.0000 0.7279 -0.6857
vn -0.1334 -0.6705 -0.7298
vn -0.1334 -0.6705 0.7298
vn 0.1420 0.7139 0.6857
vn 0.1420 0.7139 -0.6857
vn -0.2616 -0.6316 -0.7298
vn -0.2616 -0.6316 0.7298
vn 0.2786 0.6725 0.6857
vn 0.2786 0.6725 -0.6857
vn -0.3798 -0.5684 -0.7298
vn -0.3798 -0.5684 0.7298
vn 0.4044 0.6052 0.6857
vn 0.4044 0.6052 -0.6857
vn -0.4834 -0.4834 -0.7298
vn -0.4834 -0.4834 0.7298
vn 0.5147 0.5147 0.6857
vn 0.5147 0.5147 -0.6857
vn -0.5684 -0.3798 -0.7298
vn -0.5684 -0.3798 0.7298
vn 0.6052 0.4044 0.6857
vn 0.6052 0.4044 -0.6857
vn -0.6316 -0.2616 -0.7298
vn -0.6316 -0.2616 0.7298
vn 0.6725 0.2786 0.6857
vn 0.6725 0.2786 -0.6857
vn -0.6705 -0.1334 -0.7298
vn -0.6705 -0.1334 0.7298
vn 0.7139 0.1420 0.6857
vn 0.7139 0.1420 -0.6857
vn -0.6836 -0.0000 -0.7298
vn -0.6836 -0.0000 0.7298
vn 0.7279 -0.0000 0.6857
vn 0.7279 -0.0000 -0.6857
vn -0.6705 0.1334 -0.7298
vn -0.6705 0.1334 0.7298
vn 0.7139 -0.1420 0.6857
vn 0.7139 -0.1420 -0.6857
vn -0.6316 0.2616 -0.7298
vn -0.6316 0.2616 0.7298
vn 0.6725 -0.2786 0.6857
vn 0.6725 -0.2786 -0.6857
vn -0.5684 0.3798 -0.7298
vn -0.5684 0.3798 0.7298
vn 0.6052 -0.4044 0.6857
vn 0.6052 -0.4044 -0.6857
vn -0.4834 0.4834 -0.7298
vn -0.4834 0.4834 0.7298
vn 0.5147 -0.5147 0.6857
vn 0.5147 -0.5147 -0.6857
vn -0.3798 0.5684 -0.7298
vn -0.3798 0.5684 0.7298
vn 0.4044 -0.6052 0.6857
vn 0.4044 -0.6052 -0.6857
vn -0.2616 0.6316 -0.7298
vn -0.2616 0.6316 0.7298
vn 0.2786 -0.6725 0.6857
vn 0.2786 -0.6725 -0.6857
vn -0.1334 0.6705 -0.7298
vn -0.1334 0.6705 0.7298
vn 0.1420 -0.7139 0.6857
vn 0.1420 -0.7139 -0.6857
vn -0.0000 0.6836 -0.7298
vn -0.0000 0.6836 0.7298
vn -0.0000 -0.7279 0.6857
vn -0.0000 -0.7279 -0.6857
vn 0.1334 0.6705 -0.7298
vn 0.1334 0.6705 0.7298
vn -0.1420 -0.7139 0.6857
vn -0.1420 -0.7139 -0.6857
vn 0.2616 0.6316 -0.7298
vn 0.2616 0.6316 0.7298
vn -0.2786 -0.6725 0.6857
vn -0.2786 -0.6725 -0.6857
vn 0.3798 0.5684 -0.7298
vn 0.3798 0.5684 0.7298
vn -0.4044 -0.6052 0.6857
vn -0.4044 -0.6052 -0.6857
vn 0.4834 0.4834 -0.7298
vn 0.4834 0.4834 0.7298
vn -0.5147 -0.5147 0.6857
vn -0.5147 -0.5147 -0.6857
vn 0.5684 0.3798 -0.7298
vn 0.5684 0.3798 0.7298
vn -0.6052 -0.4044 0.6857
vn -0.6052 -0.4044 -0.6857
vn 0.6316 0.2616 -0.7298
vn 0.6316 0.2616 0.7298
vn -0.6725 -0.2786 0.6857
vn -0.6725 -0.2785 -0.6857
vn 0.6705 0.1334 -0.7298
vn 0.6705 0.1334 0.7298
vn -0.7139 -0.1420 0.6857
vn -0.7139 -0.1420 -0.6857
vt 0.000000 0.000000
vt 0.031250 1.000000
vt 0.000000 1.000000
vt 0.031250 0.000000
vt 0.062500 1.000000
vt 0.062500 0.000000
vt 0.093750 1.000000
vt 0.093750 0.000000
vt 0.125000 1.000000
vt 0.125000 0.000000
vt 0.156250 1.000000
vt 0.156250 0.000000
vt 0.187500 1.000000
vt 0.187500 0.000000
vt 0.218750 1.000000
vt 0.218750 0.000000
vt 0.250000 1.000000
vt 0.250000 0.000000
vt 0.281250 1.000000
vt 0.281250 0.000000
vt 0.312500 1.000000
vt 0.312500 0.000000
vt 0.343750 1.000000
vt 0.343750 0.000000
vt 0.375000 1.000000
vt 0.375000 0.000000
vt 0.406250 1.000000
vt 0.406250 0.000000
vt 0.437500 1.000000
vt 0.437500 0.000000
vt 0.468750 1.000000
vt 0.468750 0.000000
vt 0.500000 1.000000
vt 0.500000 0.000000
vt 0.531250 1.000000
vt 0.531250 0.000000
vt 0.562500 1.000000
vt 0.562500 0.000000
vt 0.593750 1.000000
vt 0.593750 0.000000
vt 0.625000 1.000000
vt 0.625000 0.000000
vt 0.656250 1.000000
vt 0.656250 0.000000
vt 0.687500 1.000000
vt 0.687500 0.000000
vt 0.718750 1.000000
vt 0.718750 0.000000
vt 0.750000 1.000000
vt 0.750000 0.000000
vt 0.781250 1.000000
vt 0.781250 0.000000
vt 0.812500 1.000000
vt 0.812500 0.000000
vt 0.843750 1.000000
vt 0.843750 0.000000
vt 0.875000 1.000000
vt 0.875000 0.000000
vt 0.906250 1.000000
vt 0.906250 0.000000
vt 0.937500 1.000000
vt 0.937500 0.000000
vt 0.968750 1.000000
vt 0.968750 0.000000
vt 1.000000 1.000000
vt 1.000000 0.000000
s 1
g B_DarkBore.001_glass_bead_bore_shadow
usemtl glass_bead_bore_shadow
f 433/442/433 438/443/438 434/444/434
f 437/445/437 442/446/442 438/443/438
f 441/447/441 446/448/446 442/446/442
f 445/449/445 450/450/450 446/448/446
f 449/451/449 454/452/454 450/450/450
f 453/453/453 458/454/458 454/452/454
f 457/455/457 462/456/462 458/454/458
f 461/457/461 466/458/466 462/456/462
f 465/459/465 470/460/470 466/458/466
f 469/461/469 474/462/474 470/460/470
f 473/463/473 478/464/478 474/462/474
f 477/465/477 482/466/482 478/464/478
f 481/467/481 486/468/486 482/466/482
f 485/469/485 490/470/490 486/468/486
f 489/471/489 494/472/494 490/470/490
f 493/473/493 498/474/498 494/472/494
f 497/475/497 502/476/502 498/474/498
f 501/477/501 506/478/506 502/476/502
f 505/479/505 510/480/510 506/478/506
f 509/481/509 514/482/514 510/480/510
f 513/483/513 518/484/518 514/482/514
f 517/485/517 522/486/522 518/484/518
f 521/487/521 526/488/526 522/486/522
f 525/489/525 530/490/530 526/488/526
f 529/491/529 534/492/534 530/490/530
f 533/493/533 538/494/538 534/492/534
f 537/495/537 542/496/542 538/494/538
f 541/497/541 546/498/546 542/496/542
f 545/499/545 550/500/550 546/498/546
f 549/501/549 554/502/554 550/500/550
f 553/503/553 558/504/558 554/502/554
f 557/505/557 434/506/434 558/504/558
f 435/444/435 438/443/438 439/443/439
f 439/443/439 442/446/442 443/446/443
f 443/446/443 446/448/446 447/448/447
f 447/448/447 450/450/450 451/450/451
f 450/450/450 455/452/455 451/450/451
f 454/452/454 459/454/459 455/452/455
f 458/454/458 463/456/463 459/454/459
f 462/456/462 467/458/467 463/456/463
f 466/458/466 471/460/471 467/458/467
f 471/460/471 474/462/474 475/462/475
f 475/462/475 478/464/478 479/464/479
f 478/464/478 483/466/483 479/464/479
f 482/466/482 487/468/487 483/466/483
f 486/468/486 491/470/491 487/468/487
f 490/470/490 495/472/495 491/470/491
f 494/472/494 499/474/499 495/472/495
f 498/474/498 503/476/503 499/474/499
f 503/476/503 506/478/506 507/478/507
f 507/478/507 510/480/510 511/480/511
f 510/480/510 515/482/515 511/480/511
f 514/482/514 519/484/519 515/482/515
f 518/484/518 523/486/523 519/484/519
f 522/486/522 527/488/527 523/486/523
f 526/488/526 531/490/531 527/488/527
f 530/490/530 535/492/535 531/490/531
f 534/492/534 539/494/539 535/492/535
f 539/494/539 542/496/542 543/496/543
f 543/496/543 546/498/546 547/498/547
f 547/498/547 550/500/550 551/500/551
f 550/500/550 555/502/555 551/500/551
f 554/502/554 559/504/559 555/502/555
f 558/504/558 435/506/435 559/504/559
f 435/444/435 440/445/440 436/442/436
f 439/443/439 444/447/444 440/445/440
f 443/446/443 448/449/448 444/447/444
f 447/448/447 452/451/452 448/449/448
f 451/450/451 456/453/456 452/451/452
f 455/452/455 460/455/460 456/453/456
f 459/454/459 464/457/464 460/455/460
f 463/456/463 468/459/468 464/457/464
f 467/458/467 472/461/472 468/459/468
f 471/460/471 476/463/476 472/461/472
f 475/462/475 480/465/480 476/463/476
f 479/464/479 484/467/484 480/465/480
f 483/466/483 488/469/488 484/467/484
f 487/468/487 492/471/492 488/469/488
f 491/470/491 496/473/496 492/471/492
f 495/472/495 500/475/500 496/473/496
f 499/474/499 504/477/504 500/475/500
f 503/476/503 508/479/508 504/477/504
f 507/478/507 512/481/512 508/479/508
f 511/480/511 516/483/516 512/481/512
f 515/482/515 520/485/520 516/483/516
f 519/484/519 524/487/524 520/485/520
f 523/486/523 528/489/528 524/487/524
f 527/488/527 532/491/532 528/489/528
f 531/490/531 536/493/536 532/491/532
f 535/492/535 540/495/540 536/493/536
f 539/494/539 544/497/544 540/495/540
f 543/496/543 548/499/548 544/497/544
f 547/498/547 552/501/552 548/499/548
f 551/500/551 556/503/556 552/501/552
f 555/502/555 560/505/560 556/503/556
f 559/504/559 436/507/436 560/505/560
f 436/442/436 437/445/437 433/442/433
f 440/445/440 441/447/441 437/445/437
f 444/447/444 445/449/445 441/447/441
f 448/449/448 449/451/449 445/449/445
f 452/451/452 453/453/453 449/451/449
f 453/453/453 460/455/460 457/455/457
f 460/455/460 461/457/461 457/455/457
f 461/457/461 468/459/468 465/459/465
f 465/459/465 472/461/472 469/461/469
f 472/461/472 473/463/473 469/461/469
f 476/463/476 477/465/477 473/463/473
f 480/465/480 481/467/481 477/465/477
f 484/467/484 485/469/485 481/467/481
f 485/469/485 492/471/492 489/471/489
f 492/471/492 493/473/493 489/471/489
f 493/473/493 500/475/500 497/475/497
f 500/475/500 501/477/501 497/475/497
f 504/477/504 505/479/505 501/477/501
f 508/479/508 509/481/509 505/479/505
f 512/481/512 513/483/513 509/481/509
f 516/483/516 517/485/517 513/483/513
f 517/485/517 524/487/524 521/487/521
f 521/487/521 528/489/528 525/489/525
f 528/489/528 529/491/529 525/489/525
f 532/491/532 533/493/533 529/491/529
f 536/493/536 537/495/537 533/493/533
f 540/495/540 541/497/541 537/495/537
f 544/497/544 545/499/545 541/497/541
f 548/499/548 549/501/549 545/499/545
f 552/501/552 553/503/553 549/501/549
f 553/503/553 560/505/560 557/505/557
f 557/505/557 436/507/436 433/507/433
f 433/442/433 437/445/437 438/443/438
f 437/445/437 441/447/441 442/446/442
f 441/447/441 445/449/445 446/448/446
f 445/449/445 449/451/449 450/450/450
f 449/451/449 453/453/453 454/452/454
f 453/453/453 457/455/457 458/454/458
f 457/455/457 461/457/461 462/456/462
f 461/457/461 465/459/465 466/458/466
f 465/459/465 469/461/469 470/460/470
f 469/461/469 473/463/473 474/462/474
f 473/463/473 477/465/477 478/464/478
f 477/465/477 481/467/481 482/466/482
f 481/467/481 485/469/485 486/468/486
f 485/469/485 489/471/489 490/470/490
f 489/471/489 493/473/493 494/472/494
f 493/473/493 497/475/497 498/474/498
f 497/475/497 501/477/501 502/476/502
f 501/477/501 505/479/505 506/478/506
f 505/479/505 509/481/509 510/480/510
f 509/481/509 513/483/513 514/482/514
f 513/483/513 517/485/517 518/484/518
f 517/485/517 521/487/521 522/486/522
f 521/487/521 525/489/525 526/488/526
f 525/489/525 529/491/529 530/490/530
f 529/491/529 533/493/533 534/492/534
f 533/493/533 537/495/537 538/494/538
f 537/495/537 541/497/541 542/496/542
f 541/497/541 545/499/545 546/498/546
f 545/499/545 549/501/549 550/500/550
f 549/501/549 553/503/553 554/502/554
f 553/503/553 557/505/557 558/504/558
f 557/505/557 433/507/433 434/506/434
f 435/444/435 434/444/434 438/443/438
f 439/443/439 438/443/438 442/446/442
f 443/446/443 442/446/442 446/448/446
f 447/448/447 446/448/446 450/450/450
f 450/450/450 454/452/454 455/452/455
f 454/452/454 458/454/458 459/454/459
f 458/454/458 462/456/462 463/456/463
f 462/456/462 466/458/466 467/458/467
f 466/458/466 470/460/470 471/460/471
f 471/460/471 470/460/470 474/462/474
f 475/462/475 474/462/474 478/464/478
f 478/464/478 482/466/482 483/466/483
f 482/466/482 486/468/486 487/468/487
f 486/468/486 490/470/490 491/470/491
f 490/470/490 494/472/494 495/472/495
f 494/472/494 498/474/498 499/474/499
f 498/474/498 502/476/502 503/476/503
f 503/476/503 502/476/502 506/478/506
f 507/478/507 506/478/506 510/480/510
f 510/480/510 514/482/514 515/482/515
f 514/482/514 518/484/518 519/484/519
f 518/484/518 522/486/522 523/486/523
f 522/486/522 526/488/526 527/488/527
f 526/488/526 530/490/530 531/490/531
f 530/490/530 534/492/534 535/492/535
f 534/492/534 538/494/538 539/494/539
f 539/494/539 538/494/538 542/496/542
f 543/496/543 542/496/542 546/498/546
f 547/498/547 546/498/546 550/500/550
f 550/500/550 554/502/554 555/502/555
f 554/502/554 558/504/558 559/504/559
f 558/504/558 434/506/434 435/506/435
f 435/444/435 439/443/439 440/445/440
f 439/443/439 443/446/443 444/447/444
f 443/446/443 447/448/447 448/449/448
f 447/448/447 451/450/451 452/451/452
f 451/450/451 455/452/455 456/453/456
f 455/452/455 459/454/459 460/455/460
f 459/454/459 463/456/463 464/457/464
f 463/456/463 467/458/467 468/459/468
f 467/458/467 471/460/471 472/461/472
f 471/460/471 475/462/475 476/463/476
f 475/462/475 479/464/479 480/465/480
f 479/464/479 483/466/483 484/467/484
f 483/466/483 487/468/487 488/469/488
f 487/468/487 491/470/491 492/471/492
f 491/470/491 495/472/495 496/473/496
f 495/472/495 499/474/499 500/475/500
f 499/474/499 503/476/503 504/477/504
f 503/476/503 507/478/507 508/479/508
f 507/478/507 511/480/511 512/481/512
f 511/480/511 515/482/515 516/483/516
f 515/482/515 519/484/519 520/485/520
f 519/484/519 523/486/523 524/487/524
f 523/486/523 527/488/527 528/489/528
f 527/488/527 531/490/531 532/491/532
f 531/490/531 535/492/535 536/493/536
f 535/492/535 539/494/539 540/495/540
f 539/494/539 543/496/543 544/497/544
f 543/496/543 547/498/547 548/499/548
f 547/498/547 551/500/551 552/501/552
f 551/500/551 555/502/555 556/503/556
f 555/502/555 559/504/559 560/505/560
f 559/504/559 435/506/435 436/507/436
f 436/442/436 440/445/440 437/445/437
f 440/445/440 444/447/444 441/447/441
f 444/447/444 448/449/448 445/449/445
f 448/449/448 452/451/452 449/451/449
f 452/451/452 456/453/456 453/453/453
f 453/453/453 456/453/456 460/455/460
f 460/455/460 464/457/464 461/457/461
f 461/457/461 464/457/464 468/459/468
f 465/459/465 468/459/468 472/461/472
f 472/461/472 476/463/476 473/463/473
f 476/463/476 480/465/480 477/465/477
f 480/465/480 484/467/484 481/467/481
f 484/467/484 488/469/488 485/469/485
f 485/469/485 488/469/488 492/471/492
f 492/471/492 496/473/496 493/473/493
f 493/473/493 496/473/496 500/475/500
f 500/475/500 504/477/504 501/477/501
f 504/477/504 508/479/508 505/479/505
f 508/479/508 512/481/512 509/481/509
f 512/481/512 516/483/516 513/483/513
f 516/483/516 520/485/520 517/485/517
f 517/485/517 520/485/520 524/487/524
f 521/487/521 524/487/524 528/489/528
f 528/489/528 532/491/532 529/491/529
f 532/491/532 536/493/536 533/493/533
f 536/493/536 540/495/540 537/495/537
f 540/495/540 544/497/544 541/497/541
f 544/497/544 548/499/548 545/499/545
f 548/499/548 552/501/552 549/501/549
f 552/501/552 556/503/556 553/503/553
f 553/503/553 556/503/556 560/505/560
f 557/505/557 560/505/560 436/507/436
