# Blender 5.2.2 LTS
# www.blender.org
mtllib healing_water.mtl
g A_Flask.001_A_Flask.001
v 0.000000 0.030000 0.000000
v 0.340000 0.017000 0.000000
v 0.314119 0.017000 -0.130112
v 0.240416 0.017000 -0.240416
v 0.130112 0.017000 -0.314119
v 0.000000 0.017000 -0.340000
v -0.130112 0.017000 -0.314119
v -0.240416 0.017000 -0.240416
v -0.314119 0.017000 -0.130112
v -0.340000 0.017000 -0.000000
v -0.314119 0.017000 0.130112
v -0.240416 0.017000 0.240416
v -0.130112 0.017000 0.314119
v -0.000000 0.017000 0.340000
v 0.130112 0.017000 0.314119
v 0.240416 0.017000 0.240416
v 0.314119 0.017000 0.130112
v 0.187000 1.362661 0.169894
v 0.374000 0.085000 0.000000
v 0.345531 0.085000 -0.143124
v 0.264458 0.085000 -0.264458
v 0.187000 1.362661 -0.169894
v 0.143124 0.085000 -0.345531
v 0.000000 0.085000 -0.374000
v -0.143124 0.085000 -0.345531
v -0.264458 0.085000 -0.264458
v -0.345531 0.085000 -0.143124
v -0.374000 0.085000 -0.000000
v -0.345531 0.085000 0.143124
v -0.264458 0.085000 0.264458
v -0.143124 0.085000 0.345531
v -0.000000 0.085000 0.374000
v 0.143124 0.085000 0.345531
v 0.264458 0.085000 0.264458
v 0.345531 0.085000 0.143124
v 0.374000 1.147500 0.000000
v 0.345531 1.147500 -0.143124
v 0.264458 1.147500 -0.264458
v 0.143124 1.147500 -0.345531
v 0.000000 1.147500 -0.374000
v -0.143124 1.147500 -0.345531
v -0.264458 1.147500 -0.264458
v -0.345531 1.147500 -0.143124
v -0.374000 1.147500 -0.000000
v -0.345531 1.147500 0.143124
v -0.264458 1.147500 0.264458
v -0.143124 1.147500 0.345531
v -0.000000 1.147500 0.374000
v 0.143124 1.147500 0.345531
v 0.264458 1.147500 0.264458
v 0.345531 1.147500 0.143124
v 0.204354 1.360000 -0.204354
v 0.110596 1.360000 -0.267001
v 0.000000 1.360000 -0.289000
v -0.110596 1.360000 -0.267001
v -0.204354 1.360000 -0.204354
v -0.267001 1.360000 -0.110596
v -0.289000 1.360000 -0.000000
v -0.267001 1.360000 0.110596
v -0.204354 1.360000 0.204354
v -0.110596 1.360000 0.267001
v -0.000000 1.360000 0.289000
v 0.110596 1.360000 0.267001
v 0.204354 1.360000 0.204354
v 0.127500 1.572500 0.000000
v 0.117795 1.572500 -0.048792
v 0.090156 1.572500 -0.090156
v 0.048792 1.572500 -0.117795
v 0.000000 1.572500 -0.127500
v -0.048792 1.572500 -0.117795
v -0.090156 1.572500 -0.090156
v -0.117795 1.572500 -0.048792
v -0.127500 1.572500 -0.000000
v -0.117795 1.572500 0.048792
v -0.090156 1.572500 0.090156
v -0.048792 1.572500 0.117795
v -0.000000 1.572500 0.127500
v 0.048792 1.572500 0.117795
v 0.090156 1.572500 0.090156
v 0.117795 1.572500 0.048792
v 0.119000 1.827500 0.000000
v 0.109942 1.827500 -0.045539
v 0.084146 1.827500 -0.084146
v 0.045539 1.827500 -0.109942
v 0.000000 1.827500 -0.119000
v -0.045539 1.827500 -0.109942
v -0.084146 1.827500 -0.084146
v -0.109942 1.827500 -0.045539
v -0.119000 1.827500 -0.000000
v -0.109942 1.827500 0.045539
v -0.084146 1.827500 0.084146
v -0.045539 1.827500 0.109942
v -0.000000 1.827500 0.119000
v 0.045539 1.827500 0.109942
v 0.084146 1.827500 0.084146
v 0.109942 1.827500 0.045539
v 0.153000 1.844500 0.000000
v 0.141354 1.844500 -0.058551
v 0.108187 1.844500 -0.108187
v 0.058551 1.844500 -0.141354
v 0.000000 1.844500 -0.153000
v -0.058551 1.844500 -0.141354
v -0.108187 1.844500 -0.108187
v -0.141354 1.844500 -0.058551
v -0.153000 1.844500 -0.000000
v -0.141354 1.844500 0.058551
v -0.108187 1.844500 0.108187
v -0.058551 1.844500 0.141354
v -0.000000 1.844500 0.153000
v 0.058551 1.844500 0.141354
v 0.108187 1.844500 0.108187
v 0.141354 1.844500 0.058551
v 0.153000 1.929500 0.000000
v 0.141354 1.929500 -0.058551
v 0.108187 1.929500 -0.108187
v 0.058551 1.929500 -0.141354
v 0.000000 1.929500 -0.153000
v -0.058551 1.929500 -0.141354
v -0.108187 1.929500 -0.108187
v -0.141354 1.929500 -0.058551
v -0.153000 1.929500 -0.000000
v -0.141354 1.929500 0.058551
v -0.108187 1.929500 0.108187
v -0.058551 1.929500 0.141354
v -0.000000 1.929500 0.153000
v 0.058551 1.929500 0.141354
v 0.108187 1.929500 0.108187
v 0.141354 1.929500 0.058551
v 0.119000 1.955000 0.000000
v 0.109942 1.955000 -0.045539
v 0.084146 1.955000 -0.084146
v 0.045539 1.955000 -0.109942
v 0.000000 1.955000 -0.119000
v -0.045539 1.955000 -0.109942
v -0.084146 1.955000 -0.084146
v -0.109942 1.955000 -0.045539
v -0.119000 1.955000 -0.000000
v -0.109942 1.955000 0.045539
v -0.084146 1.955000 0.084146
v -0.045539 1.955000 0.109942
v -0.000000 1.955000 0.119000
v 0.045539 1.955000 0.109942
v 0.084146 1.955000 0.084146
v 0.109942 1.955000 0.045539
v 0.000000 0.080038 0.000000
v 0.306490 0.067080 0.000000
v 0.283159 0.067080 -0.117288
v 0.216721 0.067080 -0.216721
v 0.117288 0.067080 -0.283159
v 0.000000 0.067080 -0.306490
v -0.117288 0.067080 -0.283159
v -0.216721 0.067080 -0.216721
v -0.283159 0.067080 -0.117288
v -0.306490 0.067080 -0.000000
v -0.283159 0.067080 0.117288
v -0.216721 0.067080 0.216721
v -0.117288 0.067080 0.283159
v -0.000000 0.067080 0.306490
v 0.117288 0.067080 0.283159
v 0.216721 0.067080 0.216721
v 0.283159 0.067080 0.117288
v 0.323043 0.096691 0.000000
v 0.298452 0.096691 -0.123623
v 0.228426 0.096691 -0.228426
v 0.123623 0.096691 -0.298452
v 0.000000 0.096691 -0.323043
v -0.123623 0.096691 -0.298452
v -0.228426 0.096691 -0.228426
v -0.298452 0.096691 -0.123623
v -0.323043 0.096691 -0.000000
v -0.298452 0.096691 0.123623
v -0.228426 0.096691 0.228426
v -0.123623 0.096691 0.298452
v -0.000000 0.096691 0.323043
v 0.123623 0.096691 0.298452
v 0.228426 0.096691 0.228426
v 0.298452 0.096691 0.123623
v 0.323046 1.137914 0.000000
v 0.298456 1.137914 -0.123624
v 0.228428 1.137914 -0.228428
v 0.123624 1.137914 -0.298456
v 0.000000 1.137914 -0.323046
v -0.123624 1.137914 -0.298456
v -0.228428 1.137914 -0.228428
v -0.298456 1.137914 -0.123624
v -0.323046 1.137914 -0.000000
v -0.298456 1.137914 0.123624
v -0.228428 1.137914 0.228428
v -0.123624 1.137914 0.298456
v -0.000000 1.137914 0.323046
v 0.123624 1.137914 0.298456
v 0.228428 1.137914 0.228428
v 0.298456 1.137914 0.123624
v 0.172709 1.335135 -0.172709
v 0.093469 1.335135 -0.225655
v 0.000000 1.335135 -0.244247
v -0.093469 1.335135 -0.225655
v -0.172709 1.335135 -0.172709
v -0.225655 1.335135 -0.093469
v -0.244247 1.335135 -0.000000
v -0.225655 1.335135 0.093469
v -0.172709 1.335135 0.172709
v -0.093469 1.335135 0.225655
v -0.000000 1.335135 0.244247
v 0.093469 1.335135 0.225655
v 0.172709 1.335135 0.172709
v 0.077487 1.553964 0.000000
v 0.071588 1.553964 -0.029653
v 0.054791 1.553964 -0.054791
v 0.029653 1.553964 -0.071588
v -0.000000 1.553964 -0.077487
v -0.029653 1.553964 -0.071588
v -0.054791 1.553964 -0.054791
v -0.071588 1.553964 -0.029653
v -0.077487 1.553964 -0.000000
v -0.071588 1.553964 0.029653
v -0.054791 1.553964 0.054791
v -0.029653 1.553964 0.071588
v 0.000000 1.553964 0.077487
v 0.029653 1.553964 0.071588
v 0.054791 1.553964 0.054791
v 0.071588 1.553964 0.029653
v 0.068383 1.860261 0.000000
v 0.063177 1.860261 -0.026169
v 0.048354 1.860261 -0.048354
v 0.026169 1.860261 -0.063177
v 0.000000 1.860261 -0.068383
v -0.026169 1.860261 -0.063177
v -0.048354 1.860261 -0.048354
v -0.063177 1.860261 -0.026169
v -0.068383 1.860261 -0.000000
v -0.063177 1.860261 0.026169
v -0.048354 1.860261 0.048354
v -0.026169 1.860261 0.063177
v -0.000000 1.860261 0.068383
v 0.026169 1.860261 0.063177
v 0.048354 1.860261 0.048354
v 0.063177 1.860261 0.026169
v 0.101373 1.874183 0.000000
v 0.093657 1.874183 -0.038794
v 0.071682 1.874183 -0.071682
v 0.038794 1.874183 -0.093657
v 0.000000 1.874183 -0.101373
v -0.038794 1.874183 -0.093657
v -0.071682 1.874183 -0.071682
v -0.093657 1.874183 -0.038794
v -0.101373 1.874183 -0.000000
v -0.093657 1.874183 0.038794
v -0.071682 1.874183 0.071682
v -0.038794 1.874183 0.093657
v -0.000000 1.874183 0.101373
v 0.038794 1.874183 0.093657
v 0.071682 1.874183 0.071682
v 0.093657 1.874183 0.038794
v 0.101729 1.905333 0.000000
v 0.093986 1.905333 -0.038930
v 0.071934 1.905333 -0.071934
v 0.038930 1.905333 -0.093986
v 0.000000 1.905333 -0.101729
v -0.038930 1.905333 -0.093986
v -0.071934 1.905333 -0.071934
v -0.093986 1.905333 -0.038930
v -0.101729 1.905333 -0.000000
v -0.093986 1.905333 0.038930
v -0.071934 1.905333 0.071934
v -0.038930 1.905333 0.093986
v -0.000000 1.905333 0.101729
v 0.038930 1.905333 0.093986
v 0.071934 1.905333 0.071934
v 0.093986 1.905333 0.038930
v 0.088787 1.914716 0.000000
v 0.082029 1.914716 -0.033977
v 0.062782 1.914716 -0.062782
v 0.033977 1.914716 -0.082029
v 0.000000 1.914716 -0.088787
v -0.033977 1.914716 -0.082029
v -0.062782 1.914716 -0.062782
v -0.082029 1.914716 -0.033977
v -0.088787 1.914716 -0.000000
v -0.082029 1.914716 0.033977
v -0.062782 1.914716 0.062782
v -0.033977 1.914716 0.082029
v -0.000000 1.914716 0.088787
v 0.033977 1.914716 0.082029
v 0.062782 1.914716 0.062782
v 0.082029 1.914716 0.033977
v 0.326903 1.232973 -0.064894
v 0.288937 1.300643 -0.119682
v 0.339811 1.232973 0.000000
v 0.228819 1.360000 -0.167739
v 0.288937 1.300643 0.119682
v 0.228819 1.360000 0.167739
v 0.326903 1.232973 0.064894
v 0.187000 1.473938 -0.077458
v 0.187000 1.494210 0.000000
v 0.187000 1.399758 -0.176984
v 0.224994 1.362661 -0.169894
v 0.224994 1.362661 0.169894
v 0.187000 1.473938 0.077458
v 0.187000 1.399758 0.176984
v 0.285066 1.232973 0.000000
v 0.272158 1.232973 -0.064894
v 0.246417 1.278889 -0.102069
v 0.189481 1.335135 -0.147608
v 0.189481 1.335135 0.147608
v 0.246417 1.278889 0.102069
v 0.272158 1.232973 0.064894
v 0.187000 1.410257 0.000000
v 0.187000 1.390039 -0.077458
v 0.187000 1.336858 -0.149003
v 0.187000 1.336858 0.149003
v 0.187000 1.390039 0.077458
vn -0.0382 -0.9992 0.0076
vn -0.0324 -0.9992 0.0216
vn -0.0216 -0.9992 0.0324
vn -0.0076 -0.9992 0.0382
vn 0.0076 -0.9992 0.0382
vn 0.0216 -0.9992 0.0324
vn 0.0324 -0.9992 0.0216
vn 0.0382 -0.9992 0.0076
vn 0.0382 -0.9992 -0.0076
vn 0.0324 -0.9992 -0.0216
vn 0.0216 -0.9992 -0.0324
vn 0.0076 -0.9992 -0.0382
vn -0.0076 -0.9992 -0.0382
vn -0.0216 -0.9992 -0.0324
vn -0.0324 -0.9992 -0.0216
vn -0.0382 -0.9992 -0.0076
vn 0.8806 -0.4403 -0.1752
vn 0.7465 -0.4403 -0.4988
vn 0.4988 -0.4403 -0.7465
vn 0.1752 -0.4403 -0.8806
vn -0.1752 -0.4403 -0.8806
vn -0.4988 -0.4403 -0.7465
vn -0.7465 -0.4403 -0.4988
vn -0.8806 -0.4403 -0.1752
vn -0.8806 -0.4403 0.1752
vn -0.7465 -0.4403 0.4988
vn -0.4988 -0.4403 0.7465
vn -0.1752 -0.4403 0.8806
vn 0.1752 -0.4403 0.8806
vn 0.4988 -0.4403 0.7465
vn 0.7465 -0.4403 0.4988
vn 0.8806 -0.4403 0.1752
vn 0.9808 -0.0000 -0.1951
vn 0.8315 -0.0000 -0.5556
vn 0.5556 -0.0000 -0.8315
vn 0.1951 -0.0000 -0.9808
vn -0.1951 -0.0000 -0.9808
vn -0.5556 -0.0000 -0.8315
vn -0.8315 -0.0000 -0.5556
vn -0.9808 -0.0000 -0.1951
vn -0.9808 -0.0000 0.1951
vn -0.8315 -0.0000 0.5556
vn -0.5556 -0.0000 0.8315
vn -0.1951 -0.0000 0.9808
vn 0.1951 -0.0000 0.9808
vn 0.5556 -0.0000 0.8315
vn 0.8315 -0.0000 0.5556
vn 0.9808 -0.0000 0.1951
vn 0.9130 0.3652 -0.1816
vn 0.7740 0.3652 -0.5172
vn 0.5172 0.3652 -0.7740
vn 0.1816 0.3652 -0.9130
vn -0.1816 0.3652 -0.9130
vn -0.5172 0.3652 -0.7740
vn -0.7740 0.3652 -0.5172
vn -0.9130 0.3652 -0.1816
vn -0.9130 0.3652 0.1816
vn -0.7740 0.3652 0.5172
vn -0.5172 0.3652 0.7740
vn -0.1816 0.3652 0.9130
vn 0.1816 0.3652 0.9130
vn 0.5172 0.3652 0.7740
vn 0.7740 0.3652 0.5172
vn 0.9130 0.3652 0.1816
vn 0.7864 0.5976 -0.1564
vn 0.6666 0.5976 -0.4454
vn 0.4454 0.5976 -0.6666
vn 0.1564 0.5976 -0.7864
vn -0.1564 0.5976 -0.7864
vn -0.4454 0.5976 -0.6666
vn -0.6666 0.5976 -0.4454
vn -0.7864 0.5976 -0.1564
vn -0.7864 0.5976 0.1564
vn -0.6666 0.5976 0.4454
vn -0.4454 0.5976 0.6666
vn -0.1564 0.5976 0.7864
vn 0.1564 0.5976 0.7864
vn 0.4454 0.5976 0.6666
vn 0.6666 0.5976 0.4454
vn 0.7864 0.5976 0.1564
vn 0.9803 0.0327 -0.1950
vn 0.8310 0.0327 -0.5553
vn 0.5553 0.0327 -0.8310
vn 0.1950 0.0327 -0.9803
vn -0.1950 0.0327 -0.9803
vn -0.5553 0.0327 -0.8310
vn -0.8310 0.0327 -0.5553
vn -0.9803 0.0327 -0.1950
vn -0.9803 0.0327 0.1950
vn -0.8310 0.0327 0.5553
vn -0.5553 0.0327 0.8310
vn -0.1950 0.0327 0.9803
vn 0.1950 0.0327 0.9803
vn 0.5553 0.0327 0.8310
vn 0.8310 0.0327 0.5553
vn 0.9803 0.0327 0.1950
vn 0.4455 -0.8909 -0.0886
vn 0.3776 -0.8909 -0.2523
vn 0.2523 -0.8909 -0.3776
vn 0.0886 -0.8909 -0.4455
vn -0.0886 -0.8909 -0.4455
vn -0.2523 -0.8909 -0.3776
vn -0.3776 -0.8909 -0.2523
vn -0.4455 -0.8909 -0.0886
vn -0.4455 -0.8909 0.0886
vn -0.3776 -0.8909 0.2523
vn -0.2523 -0.8909 0.3776
vn -0.0886 -0.8909 0.4455
vn 0.0886 -0.8909 0.4455
vn 0.2523 -0.8909 0.3776
vn 0.3776 -0.8909 0.2523
vn 0.4455 -0.8909 0.0886
vn 0.5958 0.7944 -0.1185
vn 0.5051 0.7944 -0.3375
vn 0.3375 0.7944 -0.5051
vn 0.1185 0.7944 -0.5958
vn -0.1185 0.7944 -0.5958
vn -0.3375 0.7944 -0.5051
vn -0.5051 0.7944 -0.3375
vn -0.5958 0.7944 -0.1185
vn -0.5958 0.7944 0.1185
vn -0.5051 0.7944 0.3375
vn -0.3375 0.7944 0.5051
vn -0.1185 0.7944 0.5958
vn 0.1185 0.7944 0.5958
vn 0.3375 0.7944 0.5051
vn 0.5051 0.7944 0.3375
vn 0.5958 0.7944 0.1185
vn 0.0422 0.9991 -0.0084
vn 0.0358 0.9991 -0.0239
vn 0.0239 0.9991 -0.0358
vn 0.0084 0.9991 -0.0422
vn -0.0084 0.9991 -0.0422
vn -0.0239 0.9991 -0.0358
vn -0.0358 0.9991 -0.0239
vn -0.0422 0.9991 -0.0084
vn -0.0422 0.9991 0.0084
vn -0.0358 0.9991 0.0239
vn -0.0239 0.9991 0.0358
vn -0.0084 0.9991 0.0422
vn 0.0084 0.9991 0.0422
vn 0.0239 0.9991 0.0358
vn 0.0358 0.9991 0.0239
vn 0.0422 0.9991 0.0084
vn -0.8600 0.4808 0.1711
vn -0.7291 0.4808 0.4872
vn -0.4872 0.4808 0.7291
vn -0.1711 0.4808 0.8600
vn 0.1711 0.4808 0.8600
vn 0.4872 0.4808 0.7291
vn 0.7291 0.4808 0.4872
vn 0.8600 0.4808 0.1711
vn 0.8600 0.4808 -0.1711
vn 0.7291 0.4808 -0.4872
vn 0.4872 0.4808 -0.7291
vn 0.1711 0.4808 -0.8600
vn -0.1711 0.4808 -0.8600
vn -0.4872 0.4808 -0.7291
vn -0.7291 0.4808 -0.4872
vn -0.8600 0.4808 -0.1711
vn -0.9132 -0.3649 0.1816
vn -0.7742 -0.3649 0.5173
vn -0.5173 -0.3649 0.7742
vn -0.1816 -0.3649 0.9132
vn 0.1816 -0.3649 0.9132
vn 0.5173 -0.3649 0.7742
vn 0.7742 -0.3649 0.5173
vn 0.9132 -0.3649 0.1816
vn 0.9132 -0.3649 -0.1816
vn 0.7742 -0.3649 -0.5173
vn 0.5173 -0.3649 -0.7742
vn 0.1816 -0.3649 -0.9132
vn -0.1816 -0.3649 -0.9132
vn -0.5173 -0.3649 -0.7742
vn -0.7742 -0.3649 -0.5173
vn -0.9132 -0.3649 -0.1816
vn -0.7856 -0.5987 0.1563
vn -0.6660 -0.5987 0.4450
vn -0.4450 -0.5987 0.6660
vn -0.1563 -0.5987 0.7856
vn 0.1563 -0.5987 0.7856
vn 0.4450 -0.5987 0.6660
vn 0.6660 -0.5987 0.4450
vn 0.7856 -0.5987 0.1563
vn 0.7856 -0.5987 -0.1563
vn 0.6660 -0.5987 -0.4450
vn 0.4450 -0.5987 -0.6660
vn 0.1563 -0.5987 -0.7856
vn -0.1563 -0.5987 -0.7856
vn -0.4450 -0.5987 -0.6660
vn -0.6660 -0.5987 -0.4450
vn -0.7856 -0.5987 -0.1563
vn -0.9804 -0.0291 0.1950
vn -0.8311 -0.0291 0.5553
vn -0.5553 -0.0291 0.8311
vn -0.1950 -0.0291 0.9804
vn 0.1950 -0.0291 0.9804
vn 0.5553 -0.0291 0.8311
vn 0.8311 -0.0291 0.5553
vn 0.9804 -0.0291 0.1950
vn 0.9804 -0.0291 -0.1950
vn 0.8311 -0.0291 -0.5553
vn 0.5553 -0.0291 -0.8311
vn 0.1950 -0.0291 -0.9804
vn -0.1950 -0.0291 -0.9804
vn -0.5553 -0.0291 -0.8311
vn -0.8311 -0.0291 -0.5553
vn -0.9804 -0.0291 -0.1950
vn -0.3876 0.9186 0.0771
vn -0.3286 0.9186 0.2196
vn -0.2196 0.9186 0.3286
vn -0.0771 0.9186 0.3877
vn 0.0771 0.9186 0.3877
vn 0.2196 0.9186 0.3286
vn 0.3286 0.9186 0.2196
vn 0.3876 0.9186 0.0771
vn 0.3876 0.9186 -0.0771
vn 0.3286 0.9186 -0.2196
vn 0.2196 0.9186 -0.3286
vn 0.0771 0.9186 -0.3877
vn -0.0771 0.9186 -0.3877
vn -0.2196 0.9186 -0.3286
vn -0.3286 0.9186 -0.2196
vn -0.3876 0.9186 -0.0771
vn -0.9807 0.0112 0.1951
vn -0.8314 0.0112 0.5555
vn -0.5555 0.0112 0.8314
vn -0.1951 0.0112 0.9807
vn 0.1951 0.0112 0.9807
vn 0.5555 0.0112 0.8314
vn 0.8314 0.0112 0.5555
vn 0.9807 0.0112 0.1951
vn 0.9807 0.0112 -0.1951
vn 0.8314 0.0112 -0.5555
vn 0.5555 0.0112 -0.8314
vn 0.1951 0.0112 -0.9807
vn -0.1951 0.0112 -0.9807
vn -0.5555 0.0112 -0.8314
vn -0.8314 0.0112 -0.5555
vn -0.9807 0.0112 -0.1951
vn -0.5830 -0.8041 0.1160
vn -0.4943 -0.8041 0.3303
vn -0.3303 -0.8041 0.4943
vn -0.1160 -0.8041 0.5830
vn 0.1160 -0.8041 0.5830
vn 0.3303 -0.8041 0.4943
vn 0.4942 -0.8041 0.3303
vn 0.5830 -0.8041 0.1160
vn 0.5830 -0.8041 -0.1160
vn 0.4943 -0.8041 -0.3303
vn 0.3303 -0.8041 -0.4943
vn 0.1160 -0.8041 -0.5830
vn -0.1160 -0.8041 -0.5830
vn -0.3303 -0.8041 -0.4943
vn -0.4942 -0.8041 -0.3303
vn -0.5830 -0.8041 -0.1160
vn -0.7901 0.5925 0.1572
vn -0.6698 0.5925 0.4475
vn -0.4475 0.5925 0.6698
vn -0.1572 0.5925 0.7901
vn 0.1572 0.5925 0.7901
vn 0.4475 0.5925 0.6698
vn 0.6698 0.5925 0.4475
vn 0.7901 0.5925 0.1572
vn 0.7901 0.5925 -0.1572
vn 0.6698 0.5925 -0.4475
vn 0.4475 0.5925 -0.6698
vn 0.1572 0.5925 -0.7901
vn -0.1572 0.5925 -0.7901
vn -0.4475 0.5925 -0.6698
vn -0.6698 0.5925 -0.4475
vn -0.7901 0.5925 -0.1572
vn -0.0000 0.1877 -0.9822
vn -0.0000 0.6293 -0.7772
vn -0.0000 1.0000 -0.0000
vn -0.0000 0.6293 0.7772
vn -0.0000 0.1877 0.9822
vn 1.0000 -0.0000 -0.0000
vn 0.6667 0.5976 -0.4454
vn 0.6667 0.5976 0.4454
vn 0.4943 -0.8041 0.3303
vn 0.5830 -0.8042 0.1160
vn -0.4943 -0.8041 -0.3303
vn -0.5830 -0.8042 -0.1160
vn 0.0002 0.6292 -0.7772
vn 0.0001 0.6292 0.7772
s 0
g A_Flask.001_healing_water_glass
usemtl healing_water_glass
f 1//1 3//1 2//1
f 1//2 4//2 3//2
f 1//3 5//3 4//3
f 1//4 6//4 5//4
f 1//5 7//5 6//5
f 1//6 8//6 7//6
f 1//7 9//7 8//7
f 1//8 10//8 9//8
f 1//9 11//9 10//9
f 1//10 12//10 11//10
f 1//11 13//11 12//11
f 1//12 14//12 13//12
f 1//13 15//13 14//13
f 1//14 16//14 15//14
f 1//15 17//15 16//15
f 1//16 2//16 17//16
f 3//17 19//17 2//17
f 3//18 21//18 20//18
f 5//19 21//19 4//19
f 6//20 23//20 5//20
f 7//21 24//21 6//21
f 7//22 26//22 25//22
f 9//23 26//23 8//23
f 10//24 27//24 9//24
f 11//25 28//25 10//25
f 11//26 30//26 29//26
f 13//27 30//27 12//27
f 14//28 31//28 13//28
f 15//29 32//29 14//29
f 15//30 34//30 33//30
f 17//31 34//31 16//31
f 2//32 35//32 17//32
f 20//33 36//33 19//33
f 21//34 37//34 20//34
f 23//35 38//35 21//35
f 24//36 39//36 23//36
f 25//37 40//37 24//37
f 26//38 41//38 25//38
f 27//39 42//39 26//39
f 28//40 43//40 27//40
f 29//41 44//41 28//41
f 30//42 45//42 29//42
f 31//43 46//43 30//43
f 32//44 47//44 31//44
f 33//45 48//45 32//45
f 34//46 49//46 33//46
f 35//47 50//47 34//47
f 19//48 51//48 35//48
f 36//49 288//49 287//49
f 38//50 290//50 288//50
f 39//51 52//51 38//51
f 39//52 54//52 53//52
f 41//53 54//53 40//53
f 42//54 55//54 41//54
f 43//55 56//55 42//55
f 43//56 58//56 57//56
f 45//57 58//57 44//57
f 46//58 59//58 45//58
f 47//59 60//59 46//59
f 47//60 62//60 61//60
f 49//61 62//61 48//61
f 50//62 63//62 49//62
f 64//63 51//63 291//63
f 51//64 289//64 293//64
f 66//65 295//65 294//65
f 52//66 67//66 296//66
f 53//67 67//67 52//67
f 53//68 69//68 68//68
f 55//69 69//69 54//69
f 56//70 70//70 55//70
f 57//71 71//71 56//71
f 57//72 73//72 72//72
f 59//73 73//73 58//73
f 60//74 74//74 59//74
f 61//75 75//75 60//75
f 61//76 77//76 76//76
f 63//77 77//77 62//77
f 64//78 78//78 63//78
f 79//79 64//79 300//79
f 295//80 80//80 299//80
f 66//81 81//81 65//81
f 66//82 83//82 82//82
f 67//83 84//83 83//83
f 69//84 84//84 68//84
f 70//85 85//85 69//85
f 70//86 87//86 86//86
f 71//87 88//87 87//87
f 73//88 88//88 72//88
f 74//89 89//89 73//89
f 74//90 91//90 90//90
f 75//91 92//91 91//91
f 77//92 92//92 76//92
f 78//93 93//93 77//93
f 78//94 95//94 94//94
f 79//95 96//95 95//95
f 65//96 96//96 80//96
f 82//97 97//97 81//97
f 83//98 98//98 82//98
f 84//99 99//99 83//99
f 84//100 101//100 100//100
f 86//101 101//101 85//101
f 87//102 102//102 86//102
f 88//103 103//103 87//103
f 88//104 105//104 104//104
f 90//105 105//105 89//105
f 91//106 106//106 90//106
f 92//107 107//107 91//107
f 92//108 109//108 108//108
f 94//109 109//109 93//109
f 95//110 110//110 94//110
f 96//111 111//111 95//111
f 96//112 97//112 112//112
f 98//33 113//33 97//33
f 99//34 114//34 98//34
f 100//35 115//35 99//35
f 101//36 116//36 100//36
f 102//37 117//37 101//37
f 103//38 118//38 102//38
f 104//39 119//39 103//39
f 105//40 120//40 104//40
f 106//41 121//41 105//41
f 107//42 122//42 106//42
f 108//43 123//43 107//43
f 109//44 124//44 108//44
f 110//45 125//45 109//45
f 111//46 126//46 110//46
f 112//47 127//47 111//47
f 97//48 128//48 112//48
f 114//113 129//113 113//113
f 115//114 130//114 114//114
f 116//115 131//115 115//115
f 116//116 133//116 132//116
f 118//117 133//117 117//117
f 119//118 134//118 118//118
f 120//119 135//119 119//119
f 120//120 137//120 136//120
f 122//121 137//121 121//121
f 123//122 138//122 122//122
f 124//123 139//123 123//123
f 124//124 141//124 140//124
f 126//125 141//125 125//125
f 127//126 142//126 126//126
f 128//127 143//127 127//127
f 128//128 129//128 144//128
f 145//129 146//129 147//129
f 145//130 147//130 148//130
f 145//131 148//131 149//131
f 145//132 149//132 150//132
f 145//133 150//133 151//133
f 145//134 151//134 152//134
f 145//135 152//135 153//135
f 145//136 153//136 154//136
f 145//137 154//137 155//137
f 145//138 155//138 156//138
f 145//139 156//139 157//139
f 145//140 157//140 158//140
f 145//141 158//141 159//141
f 145//142 159//142 160//142
f 145//143 160//143 161//143
f 145//144 161//144 146//144
f 146//145 163//145 147//145
f 163//146 148//146 147//146
f 148//147 165//147 149//147
f 165//148 150//148 149//148
f 150//149 167//149 151//149
f 167//150 152//150 151//150
f 168//151 153//151 152//151
f 169//152 154//152 153//152
f 154//153 171//153 155//153
f 171//154 156//154 155//154
f 156//155 173//155 157//155
f 173//156 158//156 157//156
f 158//157 175//157 159//157
f 175//158 160//158 159//158
f 176//159 161//159 160//159
f 177//160 146//160 161//160
f 178//41 163//41 162//41
f 179//42 164//42 163//42
f 164//43 181//43 165//43
f 181//44 166//44 165//44
f 182//45 167//45 166//45
f 167//46 184//46 168//46
f 168//47 185//47 169//47
f 185//48 170//48 169//48
f 186//33 171//33 170//33
f 187//34 172//34 171//34
f 172//35 189//35 173//35
f 189//36 174//36 173//36
f 190//37 175//37 174//37
f 175//38 192//38 176//38
f 176//39 193//39 177//39
f 193//40 162//40 177//40
f 178//161 302//161 303//161
f 180//162 303//162 304//162
f 194//163 181//163 180//163
f 195//164 182//164 181//164
f 196//165 183//165 182//165
f 197//166 184//166 183//166
f 198//167 185//167 184//167
f 199//168 186//168 185//168
f 186//169 201//169 187//169
f 201//170 188//170 187//170
f 202//171 189//171 188//171
f 203//172 190//172 189//172
f 204//173 191//173 190//173
f 205//174 192//174 191//174
f 206//175 306//175 193//175
f 193//176 307//176 301//176
f 208//177 308//177 207//177
f 194//178 310//178 208//178
f 194//179 210//179 195//179
f 195//180 211//180 196//180
f 211//181 197//181 196//181
f 212//182 198//182 197//182
f 213//183 199//183 198//183
f 214//184 200//184 199//184
f 215//185 201//185 200//185
f 216//186 202//186 201//186
f 202//187 218//187 203//187
f 203//188 219//188 204//188
f 219//189 205//189 204//189
f 220//190 206//190 205//190
f 311//191 206//191 222//191
f 222//192 308//192 312//192
f 223//193 208//193 207//193
f 224//194 209//194 208//194
f 225//195 210//195 209//195
f 226//196 211//196 210//196
f 227//197 212//197 211//197
f 228//198 213//198 212//198
f 229//199 214//199 213//199
f 230//200 215//200 214//200
f 231//201 216//201 215//201
f 232//202 217//202 216//202
f 233//203 218//203 217//203
f 234//204 219//204 218//204
f 235//205 220//205 219//205
f 236//206 221//206 220//206
f 237//207 222//207 221//207
f 238//208 207//208 222//208
f 239//209 224//209 223//209
f 240//210 225//210 224//210
f 225//211 242//211 226//211
f 242//212 227//212 226//212
f 243//213 228//213 227//213
f 244//214 229//214 228//214
f 245//215 230//215 229//215
f 246//216 231//216 230//216
f 247//217 232//217 231//217
f 248//218 233//218 232//218
f 233//219 250//219 234//219
f 250//220 235//220 234//220
f 251//221 236//221 235//221
f 252//222 237//222 236//222
f 253//223 238//223 237//223
f 254//224 223//224 238//224
f 255//225 240//225 239//225
f 240//226 257//226 241//226
f 257//227 242//227 241//227
f 258//228 243//228 242//228
f 259//229 244//229 243//229
f 260//230 245//230 244//230
f 261//231 246//231 245//231
f 246//232 263//232 247//232
f 263//233 248//233 247//233
f 248//234 265//234 249//234
f 265//235 250//235 249//235
f 266//236 251//236 250//236
f 267//237 252//237 251//237
f 268//238 253//238 252//238
f 269//239 254//239 253//239
f 254//240 255//240 239//240
f 271//241 256//241 255//241
f 256//242 273//242 257//242
f 273//243 258//243 257//243
f 274//244 259//244 258//244
f 259//245 276//245 260//245
f 260//246 277//246 261//246
f 261//247 278//247 262//247
f 262//248 279//248 263//248
f 279//249 264//249 263//249
f 264//250 281//250 265//250
f 281//251 266//251 265//251
f 282//252 267//252 266//252
f 267//253 284//253 268//253
f 268//254 285//254 269//254
f 269//255 286//255 270//255
f 270//256 271//256 255//256
f 130//257 271//257 129//257
f 131//258 272//258 130//258
f 131//259 274//259 273//259
f 133//260 274//260 132//260
f 133//261 276//261 275//261
f 134//262 277//262 276//262
f 136//263 277//263 135//263
f 136//264 279//264 278//264
f 138//265 279//265 137//265
f 139//266 280//266 138//266
f 139//267 282//267 281//267
f 141//268 282//268 140//268
f 141//269 284//269 283//269
f 142//270 285//270 284//270
f 144//271 285//271 143//271
f 144//272 271//272 286//272
f 298//273 18//273 300//273
f 291//274 305//274 311//274
f 293//275 287//275 301//275
f 297//276 303//276 302//276
f 296//277 22//277 297//277
f 309//278 294//278 299//278
f 3//17 20//17 19//17
f 3//18 4//18 21//18
f 5//19 23//19 21//19
f 6//20 24//20 23//20
f 7//21 25//21 24//21
f 7//22 8//22 26//22
f 9//23 27//23 26//23
f 10//24 28//24 27//24
f 11//25 29//25 28//25
f 11//26 12//26 30//26
f 13//27 31//27 30//27
f 14//28 32//28 31//28
f 15//29 33//29 32//29
f 15//30 16//30 34//30
f 17//31 35//31 34//31
f 2//32 19//32 35//32
f 20//33 37//33 36//33
f 21//34 38//34 37//34
f 23//35 39//35 38//35
f 24//36 40//36 39//36
f 25//37 41//37 40//37
f 26//38 42//38 41//38
f 27//39 43//39 42//39
f 28//40 44//40 43//40
f 29//41 45//41 44//41
f 30//42 46//42 45//42
f 31//43 47//43 46//43
f 32//44 48//44 47//44
f 33//45 49//45 48//45
f 34//46 50//46 49//46
f 35//47 51//47 50//47
f 19//48 36//48 51//48
f 287//49 289//49 36//49
f 36//49 37//49 288//49
f 288//50 37//50 38//50
f 38//50 52//50 290//50
f 39//51 53//51 52//51
f 39//52 40//52 54//52
f 41//53 55//53 54//53
f 42//54 56//54 55//54
f 43//55 57//55 56//55
f 43//56 44//56 58//56
f 45//57 59//57 58//57
f 46//58 60//58 59//58
f 47//59 61//59 60//59
f 47//60 48//60 62//60
f 49//61 63//61 62//61
f 50//62 64//62 63//62
f 291//63 292//63 64//63
f 64//63 50//63 51//63
f 293//64 291//64 51//64
f 51//64 36//64 289//64
f 66//65 65//65 295//65
f 297//279 290//279 52//279
f 67//66 66//66 294//66
f 296//66 297//66 52//66
f 67//66 294//66 296//66
f 53//67 68//67 67//67
f 53//68 54//68 69//68
f 55//69 70//69 69//69
f 56//70 71//70 70//70
f 57//71 72//71 71//71
f 57//72 58//72 73//72
f 59//73 74//73 73//73
f 60//74 75//74 74//74
f 61//75 76//75 75//75
f 61//76 62//76 77//76
f 63//77 78//77 77//77
f 64//78 79//78 78//78
f 300//79 299//79 80//79
f 64//280 292//280 298//280
f 300//79 80//79 79//79
f 64//79 298//79 300//79
f 295//80 65//80 80//80
f 66//81 82//81 81//81
f 66//82 67//82 83//82
f 67//83 68//83 84//83
f 69//84 85//84 84//84
f 70//85 86//85 85//85
f 70//86 71//86 87//86
f 71//87 72//87 88//87
f 73//88 89//88 88//88
f 74//89 90//89 89//89
f 74//90 75//90 91//90
f 75//91 76//91 92//91
f 77//92 93//92 92//92
f 78//93 94//93 93//93
f 78//94 79//94 95//94
f 79//95 80//95 96//95
f 65//96 81//96 96//96
f 82//97 98//97 97//97
f 83//98 99//98 98//98
f 84//99 100//99 99//99
f 84//100 85//100 101//100
f 86//101 102//101 101//101
f 87//102 103//102 102//102
f 88//103 104//103 103//103
f 88//104 89//104 105//104
f 90//105 106//105 105//105
f 91//106 107//106 106//106
f 92//107 108//107 107//107
f 92//108 93//108 109//108
f 94//109 110//109 109//109
f 95//110 111//110 110//110
f 96//111 112//111 111//111
f 96//112 81//112 97//112
f 98//33 114//33 113//33
f 99//34 115//34 114//34
f 100//35 116//35 115//35
f 101//36 117//36 116//36
f 102//37 118//37 117//37
f 103//38 119//38 118//38
f 104//39 120//39 119//39
f 105//40 121//40 120//40
f 106//41 122//41 121//41
f 107//42 123//42 122//42
f 108//43 124//43 123//43
f 109//44 125//44 124//44
f 110//45 126//45 125//45
f 111//46 127//46 126//46
f 112//47 128//47 127//47
f 97//48 113//48 128//48
f 114//113 130//113 129//113
f 115//114 131//114 130//114
f 116//115 132//115 131//115
f 116//116 117//116 133//116
f 118//117 134//117 133//117
f 119//118 135//118 134//118
f 120//119 136//119 135//119
f 120//120 121//120 137//120
f 122//121 138//121 137//121
f 123//122 139//122 138//122
f 124//123 140//123 139//123
f 124//124 125//124 141//124
f 126//125 142//125 141//125
f 127//126 143//126 142//126
f 128//127 144//127 143//127
f 128//128 113//128 129//128
f 146//145 162//145 163//145
f 163//146 164//146 148//146
f 148//147 164//147 165//147
f 165//148 166//148 150//148
f 150//149 166//149 167//149
f 167//150 168//150 152//150
f 168//151 169//151 153//151
f 169//152 170//152 154//152
f 154//153 170//153 171//153
f 171//154 172//154 156//154
f 156//155 172//155 173//155
f 173//156 174//156 158//156
f 158//157 174//157 175//157
f 175//158 176//158 160//158
f 176//159 177//159 161//159
f 177//160 162//160 146//160
f 178//41 179//41 163//41
f 179//42 180//42 164//42
f 164//43 180//43 181//43
f 181//44 182//44 166//44
f 182//45 183//45 167//45
f 167//46 183//46 184//46
f 168//47 184//47 185//47
f 185//48 186//48 170//48
f 186//33 187//33 171//33
f 187//34 188//34 172//34
f 172//35 188//35 189//35
f 189//36 190//36 174//36
f 190//37 191//37 175//37
f 175//38 191//38 192//38
f 176//39 192//39 193//39
f 193//40 178//40 162//40
f 303//161 179//161 178//161
f 178//161 301//161 302//161
f 304//162 194//162 180//162
f 180//162 179//162 303//162
f 194//163 195//163 181//163
f 195//164 196//164 182//164
f 196//165 197//165 183//165
f 197//166 198//166 184//166
f 198//167 199//167 185//167
f 199//168 200//168 186//168
f 186//169 200//169 201//169
f 201//170 202//170 188//170
f 202//171 203//171 189//171
f 203//172 204//172 190//172
f 204//173 205//173 191//173
f 205//174 206//174 192//174
f 193//175 192//175 206//175
f 206//175 305//175 306//175
f 301//176 178//176 193//176
f 193//176 306//176 307//176
f 208//177 309//177 308//177
f 208//178 209//178 194//178
f 194//178 304//178 310//178
f 310//178 309//178 208//178
f 194//179 209//179 210//179
f 195//180 210//180 211//180
f 211//181 212//181 197//181
f 212//182 213//182 198//182
f 213//183 214//183 199//183
f 214//184 215//184 200//184
f 215//185 216//185 201//185
f 216//186 217//186 202//186
f 202//187 217//187 218//187
f 203//188 218//188 219//188
f 219//189 220//189 205//189
f 220//190 221//190 206//190
f 311//191 305//191 206//191
f 206//191 221//191 222//191
f 222//191 312//191 311//191
f 222//192 207//192 308//192
f 223//193 224//193 208//193
f 224//194 225//194 209//194
f 225//195 226//195 210//195
f 226//196 227//196 211//196
f 227//197 228//197 212//197
f 228//198 229//198 213//198
f 229//199 230//199 214//199
f 230//200 231//200 215//200
f 231//201 232//201 216//201
f 232//202 233//202 217//202
f 233//203 234//203 218//203
f 234//204 235//204 219//204
f 235//205 236//205 220//205
f 236//206 237//206 221//206
f 237//207 238//207 222//207
f 238//208 223//208 207//208
f 239//209 240//209 224//209
f 240//210 241//210 225//210
f 225//211 241//211 242//211
f 242//212 243//212 227//212
f 243//213 244//213 228//213
f 244//214 245//214 229//214
f 245//215 246//215 230//215
f 246//216 247//216 231//216
f 247//217 248//217 232//217
f 248//218 249//218 233//218
f 233//219 249//219 250//219
f 250//220 251//220 235//220
f 251//221 252//221 236//221
f 252//222 253//222 237//222
f 253//223 254//223 238//223
f 254//224 239//224 223//224
f 255//225 256//225 240//225
f 240//226 256//226 257//226
f 257//227 258//227 242//227
f 258//228 259//228 243//228
f 259//229 260//229 244//229
f 260//230 261//230 245//230
f 261//231 262//231 246//231
f 246//232 262//232 263//232
f 263//233 264//233 248//233
f 248//234 264//234 265//234
f 265//235 266//235 250//235
f 266//236 267//236 251//236
f 267//237 268//237 252//237
f 268//238 269//238 253//238
f 269//239 270//239 254//239
f 254//240 270//240 255//240
f 271//241 272//241 256//241
f 256//242 272//242 273//242
f 273//243 274//243 258//243
f 274//244 275//244 259//244
f 259//245 275//245 276//245
f 260//246 276//246 277//246
f 261//281 277//281 278//281
f 262//282 278//282 279//282
f 279//249 280//249 264//249
f 264//250 280//250 281//250
f 281//251 282//251 266//251
f 282//252 283//252 267//252
f 267//253 283//253 284//253
f 268//254 284//254 285//254
f 269//283 285//283 286//283
f 270//284 286//284 271//284
f 130//257 272//257 271//257
f 131//258 273//258 272//258
f 131//259 132//259 274//259
f 133//260 275//260 274//260
f 133//261 134//261 276//261
f 134//262 135//262 277//262
f 136//263 278//263 277//263
f 136//264 137//264 279//264
f 138//265 280//265 279//265
f 139//266 281//266 280//266
f 139//267 140//267 282//267
f 141//268 283//268 282//268
f 141//269 142//269 284//269
f 142//270 143//270 285//270
f 144//271 286//271 285//271
f 144//272 129//272 271//272
f 311//274 18//274 298//274
f 298//285 292//285 291//285
f 291//274 293//274 307//274
f 291//274 307//274 306//274
f 311//274 298//274 291//274
f 291//274 306//274 305//274
f 301//275 307//275 293//275
f 293//275 289//275 287//275
f 287//275 302//275 301//275
f 302//276 287//276 288//276
f 288//286 290//286 297//286
f 297//276 22//276 310//276
f 297//276 310//276 304//276
f 302//276 288//276 297//276
f 297//276 304//276 303//276
f 299//278 300//278 18//278
f 18//278 311//278 312//278
f 299//278 18//278 312//278
f 294//278 295//278 299//278
f 22//278 296//278 294//278
f 309//278 310//278 22//278
f 299//278 312//278 308//278
f 309//278 22//278 294//278
f 299//278 308//278 309//278
g A_Liquid.001_A_Liquid.001
v 0.000000 0.140000 0.000000
v 0.261800 0.200000 0.000000
v 0.241872 0.200000 -0.100187
v 0.185121 0.200000 -0.185121
v 0.100187 0.200000 -0.241872
v 0.000000 0.200000 -0.261800
v -0.100187 0.200000 -0.241872
v -0.185121 0.200000 -0.185121
v -0.241872 0.200000 -0.100187
v -0.261800 0.200000 -0.000000
v -0.241872 0.200000 0.100187
v -0.185121 0.200000 0.185121
v -0.100187 0.200000 0.241872
v -0.000000 0.200000 0.261800
v 0.100187 0.200000 0.241872
v 0.185121 0.200000 0.185121
v 0.241872 0.200000 0.100187
v 0.261800 1.212100 0.000000
v 0.241872 1.212100 -0.100187
v 0.185121 1.212100 -0.185121
v 0.100187 1.212100 -0.241872
v 0.000000 1.212100 -0.261800
v -0.100187 1.212100 -0.241872
v -0.185121 1.212100 -0.185121
v -0.241872 1.212100 -0.100187
v -0.261800 1.212100 -0.000000
v -0.241872 1.212100 0.100187
v -0.185121 1.212100 0.185121
v -0.100187 1.212100 0.241872
v -0.000000 1.212100 0.261800
v 0.100187 1.212100 0.241872
v 0.185121 1.212100 0.185121
v 0.241872 1.212100 0.100187
v 0.183260 1.252100 0.000000
v 0.169310 1.252100 -0.070131
v 0.129584 1.252100 -0.129584
v 0.070131 1.252100 -0.169310
v 0.000000 1.252100 -0.183260
v -0.070131 1.252100 -0.169310
v -0.129584 1.252100 -0.129584
v -0.169310 1.252100 -0.070131
v -0.183260 1.252100 -0.000000
v -0.169310 1.252100 0.070131
v -0.129584 1.252100 0.129584
v -0.070131 1.252100 0.169310
v -0.000000 1.252100 0.183260
v 0.070131 1.252100 0.169310
v 0.129584 1.252100 0.129584
v 0.169310 1.252100 0.070131
v 0.000000 1.282100 0.000000
vn 0.2232 -0.9738 -0.0444
vn 0.1892 -0.9738 -0.1264
vn 0.1264 -0.9738 -0.1892
vn 0.0444 -0.9738 -0.2232
vn -0.0444 -0.9738 -0.2232
vn -0.1264 -0.9738 -0.1892
vn -0.1892 -0.9738 -0.1264
vn -0.2232 -0.9738 -0.0444
vn -0.2232 -0.9738 0.0444
vn -0.1892 -0.9738 0.1264
vn -0.1264 -0.9738 0.1892
vn -0.0444 -0.9738 0.2232
vn 0.0444 -0.9738 0.2232
vn 0.1264 -0.9738 0.1892
vn 0.1892 -0.9738 0.1264
vn 0.2232 -0.9738 0.0444
vn 0.9808 -0.0000 -0.1951
vn 0.8315 -0.0000 -0.5556
vn 0.5556 -0.0000 -0.8315
vn 0.1951 -0.0000 -0.9808
vn -0.1951 -0.0000 -0.9808
vn -0.5556 -0.0000 -0.8315
vn -0.8315 -0.0000 -0.5556
vn -0.9808 -0.0000 -0.1951
vn -0.9808 -0.0000 0.1951
vn -0.8315 -0.0000 0.5556
vn -0.5556 -0.0000 0.8315
vn -0.1951 -0.0000 0.9808
vn 0.1951 -0.0000 0.9808
vn 0.5556 -0.0000 0.8315
vn 0.8315 -0.0000 0.5556
vn 0.9808 -0.0000 0.1951
vn 0.4520 0.8875 -0.0899
vn 0.3832 0.8875 -0.2560
vn 0.2560 0.8875 -0.3832
vn 0.0899 0.8875 -0.4520
vn -0.0899 0.8875 -0.4520
vn -0.2560 0.8875 -0.3832
vn -0.3832 0.8875 -0.2560
vn -0.4520 0.8875 -0.0899
vn -0.4520 0.8875 0.0899
vn -0.3832 0.8875 0.2560
vn -0.2560 0.8875 0.3832
vn -0.0899 0.8875 0.4520
vn 0.0899 0.8875 0.4520
vn 0.2560 0.8875 0.3832
vn 0.3832 0.8875 0.2560
vn 0.4520 0.8875 0.0899
vn 0.1615 0.9864 -0.0321
vn 0.1369 0.9864 -0.0915
vn 0.0915 0.9864 -0.1369
vn 0.0321 0.9864 -0.1615
vn -0.0321 0.9864 -0.1615
vn -0.0915 0.9864 -0.1369
vn -0.1369 0.9864 -0.0915
vn -0.1615 0.9864 -0.0321
vn -0.1615 0.9864 0.0321
vn -0.1369 0.9864 0.0915
vn -0.0915 0.9864 0.1369
vn -0.0321 0.9864 0.1615
vn 0.0321 0.9864 0.1615
vn 0.0915 0.9864 0.1369
vn 0.1369 0.9864 0.0915
vn 0.1615 0.9864 0.0321
s 0
g A_Liquid.001_healing_water_liquid
usemtl healing_water_liquid
f 313//287 315//287 314//287
f 313//288 316//288 315//288
f 313//289 317//289 316//289
f 313//290 318//290 317//290
f 313//291 319//291 318//291
f 313//292 320//292 319//292
f 313//293 321//293 320//293
f 313//294 322//294 321//294
f 313//295 323//295 322//295
f 313//296 324//296 323//296
f 313//297 325//297 324//297
f 313//298 326//298 325//298
f 313//299 327//299 326//299
f 313//300 328//300 327//300
f 313//301 329//301 328//301
f 313//302 314//302 329//302
f 315//303 330//303 314//303
f 316//304 331//304 315//304
f 317//305 332//305 316//305
f 318//306 333//306 317//306
f 319//307 334//307 318//307
f 320//308 335//308 319//308
f 321//309 336//309 320//309
f 322//310 337//310 321//310
f 323//311 338//311 322//311
f 324//312 339//312 323//312
f 325//313 340//313 324//313
f 326//314 341//314 325//314
f 327//315 342//315 326//315
f 328//316 343//316 327//316
f 329//317 344//317 328//317
f 314//318 345//318 329//318
f 331//319 346//319 330//319
f 332//320 347//320 331//320
f 332//321 349//321 348//321
f 334//322 349//322 333//322
f 335//323 350//323 334//323
f 336//324 351//324 335//324
f 336//325 353//325 352//325
f 338//326 353//326 337//326
f 339//327 354//327 338//327
f 340//328 355//328 339//328
f 340//329 357//329 356//329
f 342//330 357//330 341//330
f 343//331 358//331 342//331
f 344//332 359//332 343//332
f 344//333 361//333 360//333
f 330//334 361//334 345//334
f 346//335 347//335 362//335
f 347//336 348//336 362//336
f 348//337 349//337 362//337
f 349//338 350//338 362//338
f 350//339 351//339 362//339
f 351//340 352//340 362//340
f 352//341 353//341 362//341
f 353//342 354//342 362//342
f 354//343 355//343 362//343
f 355//344 356//344 362//344
f 356//345 357//345 362//345
f 357//346 358//346 362//346
f 358//347 359//347 362//347
f 359//348 360//348 362//348
f 360//349 361//349 362//349
f 361//350 346//350 362//350
f 315//303 331//303 330//303
f 316//304 332//304 331//304
f 317//305 333//305 332//305
f 318//306 334//306 333//306
f 319//307 335//307 334//307
f 320//308 336//308 335//308
f 321//309 337//309 336//309
f 322//310 338//310 337//310
f 323//311 339//311 338//311
f 324//312 340//312 339//312
f 325//313 341//313 340//313
f 326//314 342//314 341//314
f 327//315 343//315 342//315
f 328//316 344//316 343//316
f 329//317 345//317 344//317
f 314//318 330//318 345//318
f 331//319 347//319 346//319
f 332//320 348//320 347//320
f 332//321 333//321 349//321
f 334//322 350//322 349//322
f 335//323 351//323 350//323
f 336//324 352//324 351//324
f 336//325 337//325 353//325
f 338//326 354//326 353//326
f 339//327 355//327 354//327
f 340//328 356//328 355//328
f 340//329 341//329 357//329
f 342//330 358//330 357//330
f 343//331 359//331 358//331
f 344//332 360//332 359//332
f 344//333 345//333 361//333
f 330//334 346//334 361//334
g C_Label.001_C_Label.001
v -0.322320 1.132500 0.410300
v 0.322320 1.132500 0.410300
v 0.322320 1.532500 0.410300
v -0.322320 1.532500 0.410300
v -0.322320 1.132500 0.380300
v 0.322320 1.132500 0.380300
v 0.322320 1.532500 0.380300
v -0.322320 1.532500 0.380300
vn -0.0000 -0.0000 1.0000
vn -0.0000 -0.0000 -1.0000
vn -1.0000 -0.0000 -0.0000
vn -0.0000 -1.0000 -0.0000
vn 1.0000 -0.0000 -0.0000
vn -0.0000 1.0000 -0.0000
vt 1.000000 0.000000
vt 0.000000 1.000000
vt 0.000000 0.000000
vt 1.000000 1.000000
s 0
g C_Label.001_healing_water_label
usemtl healing_water_label
f 364/1/351 366/2/351 363/3/351
f 370/2/352 368/1/352 367/3/352
f 366/2/353 367/3/353 363/3/353
f 363/3/354 368/1/354 364/1/354
f 364/1/355 369/4/355 365/4/355
f 365/4/356 370/2/356 366/2/356
f 364/1/351 365/4/351 366/2/351
f 370/2/352 369/4/352 368/1/352
f 366/2/353 370/2/353 367/3/353
f 363/3/354 367/3/354 368/1/354
f 364/1/355 368/1/355 369/4/355
f 365/4/356 369/4/356 370/2/356
g S_Cork.001_S_Cork.001
v 0.000000 1.895000 0.000000
v 0.102000 1.895000 0.000000
v 0.072125 1.895000 -0.072125
v 0.000000 1.895000 -0.102000
v -0.072125 1.895000 -0.072125
v -0.102000 1.895000 -0.000000
v -0.072125 1.895000 0.072125
v -0.000000 1.895000 0.102000
v 0.072125 1.895000 0.072125
v 0.136000 2.082000 0.000000
v 0.096167 2.082000 -0.096167
v 0.000000 2.082000 -0.136000
v -0.096167 2.082000 -0.096167
v -0.136000 2.082000 -0.000000
v -0.096167 2.082000 0.096167
v -0.000000 2.082000 0.136000
v 0.096167 2.082000 0.096167
v 0.136000 2.184000 0.000000
v 0.096167 2.184000 -0.096167
v 0.000000 2.184000 -0.136000
v -0.096167 2.184000 -0.096167
v -0.136000 2.184000 -0.000000
v -0.096167 2.184000 0.096167
v -0.000000 2.184000 0.136000
v 0.096167 2.184000 0.096167
v 0.000000 2.184000 0.000000
vn -0.0000 -1.0000 -0.0000
vn 0.9111 -0.1657 -0.3774
vn 0.3774 -0.1657 -0.9111
vn -0.3774 -0.1657 -0.9111
vn -0.9111 -0.1657 -0.3774
vn -0.9111 -0.1657 0.3774
vn -0.3774 -0.1657 0.9111
vn 0.3774 -0.1657 0.9111
vn 0.9111 -0.1657 0.3774
vn 0.9239 -0.0000 -0.3827
vn 0.3827 -0.0000 -0.9239
vn -0.3827 -0.0000 -0.9239
vn -0.9239 -0.0000 -0.3827
vn -0.9239 -0.0000 0.3827
vn -0.3827 -0.0000 0.9239
vn 0.3827 -0.0000 0.9239
vn 0.9239 -0.0000 0.3827
vn -0.0000 1.0000 -0.0000
s 0
g S_Cork.001_healing_water_cork
usemtl healing_water_cork
f 371//357 373//357 372//357
f 371//357 374//357 373//357
f 371//357 375//357 374//357
f 371//357 376//357 375//357
f 371//357 377//357 376//357
f 371//357 378//357 377//357
f 371//357 379//357 378//357
f 371//357 372//357 379//357
f 372//358 381//358 380//358
f 374//359 381//359 373//359
f 374//360 383//360 382//360
f 376//361 383//361 375//361
f 376//362 385//362 384//362
f 378//363 385//363 377//363
f 378//364 387//364 386//364
f 372//365 387//365 379//365
f 381//366 388//366 380//366
f 382//367 389//367 381//367
f 383//368 390//368 382//368
f 384//369 391//369 383//369
f 385//370 392//370 384//370
f 386//371 393//371 385//371
f 387//372 394//372 386//372
f 380//373 395//373 387//373
f 388//374 389//374 396//374
f 389//374 390//374 396//374
f 390//374 391//374 396//374
f 391//374 392//374 396//374
f 392//374 393//374 396//374
f 393//374 394//374 396//374
f 394//374 395//374 396//374
f 395//374 388//374 396//374
f 372//358 373//358 381//358
f 374//359 382//359 381//359
f 374//360 375//360 383//360
f 376//361 384//361 383//361
f 376//362 377//362 385//362
f 378//363 386//363 385//363
f 378//364 379//364 387//364
f 372//365 380//365 387//365
f 381//366 389//366 388//366
f 382//367 390//367 389//367
f 383//368 391//368 390//368
f 384//369 392//369 391//369
f 385//370 393//370 392//370
f 386//371 394//371 393//371
f 387//372 395//372 394//372
f 380//373 388//373 395//373
