# Blender 5.2.2 LTS
# www.blender.org
mtllib hi_ether.mtl
g A_Flask.001_A_Flask.001
v 0.000000 0.020000 0.000000
v 0.589000 0.019000 0.000000
v 0.544165 0.019000 -0.225401
v 0.416486 0.019000 -0.416486
v 0.225401 0.019000 -0.544165
v 0.000000 0.019000 -0.589000
v -0.225401 0.019000 -0.544165
v -0.416486 0.019000 -0.416486
v -0.544165 0.019000 -0.225401
v -0.589000 0.019000 -0.000000
v -0.544165 0.019000 0.225401
v -0.416486 0.019000 0.416486
v -0.225401 0.019000 0.544165
v -0.000000 0.019000 0.589000
v 0.225401 0.019000 0.544165
v 0.416486 0.019000 0.416486
v 0.544165 0.019000 0.225401
v 0.627000 0.095000 0.000000
v 0.579272 0.095000 -0.239943
v 0.443356 0.095000 -0.443356
v 0.239943 0.095000 -0.579272
v 0.000000 0.095000 -0.627000
v -0.239943 0.095000 -0.579272
v -0.443356 0.095000 -0.443356
v -0.579272 0.095000 -0.239943
v -0.627000 0.095000 -0.000000
v -0.579272 0.095000 0.239943
v -0.443356 0.095000 0.443356
v -0.239943 0.095000 0.579272
v -0.000000 0.095000 0.627000
v 0.239943 0.095000 0.579272
v 0.443356 0.095000 0.443356
v 0.579272 0.095000 0.239943
v 0.475000 0.665000 0.000000
v 0.438843 0.665000 -0.181775
v 0.335876 0.665000 -0.335876
v 0.181775 0.665000 -0.438843
v 0.000000 0.665000 -0.475000
v -0.181775 0.665000 -0.438843
v -0.335876 0.665000 -0.335876
v -0.438843 0.665000 -0.181775
v -0.475000 0.665000 -0.000000
v -0.438843 0.665000 0.181775
v -0.335876 0.665000 0.335876
v -0.181775 0.665000 0.438843
v -0.000000 0.665000 0.475000
v 0.181775 0.665000 0.438843
v 0.335876 0.665000 0.335876
v 0.438843 0.665000 0.181775
v 0.285000 1.140000 0.000000
v 0.263306 1.140000 -0.109065
v 0.201525 1.140000 -0.201525
v 0.109065 1.140000 -0.263306
v 0.000000 1.140000 -0.285000
v -0.109065 1.140000 -0.263306
v -0.201525 1.140000 -0.201525
v -0.263306 1.140000 -0.109065
v -0.285000 1.140000 -0.000000
v -0.263306 1.140000 0.109065
v -0.201525 1.140000 0.201525
v -0.109065 1.140000 0.263306
v -0.000000 1.140000 0.285000
v 0.109065 1.140000 0.263306
v 0.201525 1.140000 0.201525
v 0.263306 1.140000 0.109065
v 0.161500 1.425000 0.000000
v 0.149207 1.425000 -0.061803
v 0.114198 1.425000 -0.114198
v 0.061803 1.425000 -0.149207
v 0.000000 1.425000 -0.161500
v -0.061803 1.425000 -0.149207
v -0.114198 1.425000 -0.114198
v -0.149207 1.425000 -0.061803
v -0.161500 1.425000 -0.000000
v -0.149207 1.425000 0.061803
v -0.114198 1.425000 0.114198
v -0.061803 1.425000 0.149207
v -0.000000 1.425000 0.161500
v 0.061803 1.425000 0.149207
v 0.114198 1.425000 0.114198
v 0.149207 1.425000 0.061803
v 0.152000 1.710000 0.000000
v 0.140430 1.710000 -0.058168
v 0.107480 1.710000 -0.107480
v 0.058168 1.710000 -0.140430
v 0.000000 1.710000 -0.152000
v -0.058168 1.710000 -0.140430
v -0.107480 1.710000 -0.107480
v -0.140430 1.710000 -0.058168
v -0.152000 1.710000 -0.000000
v -0.140430 1.710000 0.058168
v -0.107480 1.710000 0.107480
v -0.058168 1.710000 0.140430
v -0.000000 1.710000 0.152000
v 0.058168 1.710000 0.140430
v 0.107480 1.710000 0.107480
v 0.140430 1.710000 0.058168
v 0.199500 1.729000 0.000000
v 0.184314 1.729000 -0.076345
v 0.141068 1.729000 -0.141068
v 0.076345 1.729000 -0.184314
v 0.000000 1.729000 -0.199500
v -0.076345 1.729000 -0.184314
v -0.141068 1.729000 -0.141068
v -0.184314 1.729000 -0.076345
v -0.199500 1.729000 -0.000000
v -0.184314 1.729000 0.076345
v -0.141068 1.729000 0.141068
v -0.076345 1.729000 0.184314
v -0.000000 1.729000 0.199500
v 0.076345 1.729000 0.184314
v 0.141068 1.729000 0.141068
v 0.184314 1.729000 0.076345
v 0.199500 1.824000 0.000000
v 0.184314 1.824000 -0.076345
v 0.141068 1.824000 -0.141068
v 0.076345 1.824000 -0.184314
v 0.000000 1.824000 -0.199500
v -0.076345 1.824000 -0.184314
v -0.141068 1.824000 -0.141068
v -0.184314 1.824000 -0.076345
v -0.199500 1.824000 -0.000000
v -0.184314 1.824000 0.076345
v -0.141068 1.824000 0.141068
v -0.076345 1.824000 0.184314
v -0.000000 1.824000 0.199500
v 0.076345 1.824000 0.184314
v 0.141068 1.824000 0.141068
v 0.184314 1.824000 0.076345
v 0.152000 1.852500 0.000000
v 0.140430 1.852500 -0.058168
v 0.107480 1.852500 -0.107480
v 0.058168 1.852500 -0.140430
v 0.000000 1.852500 -0.152000
v -0.058168 1.852500 -0.140430
v -0.107480 1.852500 -0.107480
v -0.140430 1.852500 -0.058168
v -0.152000 1.852500 -0.000000
v -0.140430 1.852500 0.058168
v -0.107480 1.852500 0.107480
v -0.058168 1.852500 0.140430
v -0.000000 1.852500 0.152000
v 0.058168 1.852500 0.140430
v 0.107480 1.852500 0.107480
v 0.140430 1.852500 0.058168
v -0.000000 0.070000 0.000000
v 0.555100 0.067939 0.000000
v 0.512845 0.067939 -0.212427
v 0.392515 0.067939 -0.392515
v 0.212427 0.067939 -0.512845
v 0.000000 0.067939 -0.555100
v -0.212427 0.067939 -0.512845
v -0.392515 0.067939 -0.392515
v -0.512845 0.067939 -0.212427
v -0.555100 0.067939 -0.000000
v -0.512845 0.067939 0.212427
v -0.392515 0.067939 0.392515
v -0.212427 0.067939 0.512845
v -0.000000 0.067939 0.555100
v 0.212427 0.067939 0.512845
v 0.392515 0.067939 0.392515
v 0.512845 0.067939 0.212427
v 0.572880 0.100284 0.000000
v 0.529272 0.100284 -0.219232
v 0.405087 0.100284 -0.405087
v 0.219232 0.100284 -0.529272
v 0.000000 0.100284 -0.572880
v -0.219232 0.100284 -0.529272
v -0.405087 0.100284 -0.405087
v -0.529272 0.100284 -0.219232
v -0.572880 0.100284 -0.000000
v -0.529272 0.100284 0.219232
v -0.405087 0.100284 0.405087
v -0.219232 0.100284 0.529272
v -0.000000 0.100284 0.572880
v 0.219232 0.100284 0.529272
v 0.405087 0.100284 0.405087
v 0.529272 0.100284 0.219232
v 0.426588 0.649052 0.000000
v 0.394116 0.649052 -0.163248
v 0.301643 0.649052 -0.301643
v 0.163248 0.649052 -0.394116
v 0.000000 0.649052 -0.426588
v -0.163248 0.649052 -0.394116
v -0.301643 0.649052 -0.301643
v -0.394116 0.649052 -0.163248
v -0.426588 0.649052 -0.000000
v -0.394116 0.649052 0.163248
v -0.301643 0.649052 0.301643
v -0.163248 0.649052 0.394116
v -0.000000 0.649052 0.426588
v 0.163248 0.649052 0.394116
v 0.301643 0.649052 0.301643
v 0.394116 0.649052 0.163248
v 0.238055 1.120482 0.000000
v 0.219935 1.120482 -0.091100
v 0.168331 1.120482 -0.168331
v 0.091100 1.120482 -0.219935
v 0.000000 1.120482 -0.238055
v -0.091100 1.120482 -0.219935
v -0.168331 1.120482 -0.168331
v -0.219935 1.120482 -0.091100
v -0.238055 1.120482 -0.000000
v -0.219935 1.120482 0.091100
v -0.168331 1.120482 0.168331
v -0.091100 1.120482 0.219935
v -0.000000 1.120482 0.238055
v 0.091100 1.120482 0.219935
v 0.168331 1.120482 0.168331
v 0.219935 1.120482 0.091100
v 0.111004 1.413370 0.000000
v 0.102555 1.413370 -0.042480
v 0.078492 1.413370 -0.078492
v 0.042480 1.413370 -0.102555
v -0.000000 1.413370 -0.111004
v -0.042480 1.413370 -0.102555
v -0.078492 1.413370 -0.078492
v -0.102555 1.413370 -0.042480
v -0.111004 1.413370 -0.000000
v -0.102555 1.413370 0.042480
v -0.078492 1.413370 0.078492
v -0.042480 1.413370 0.102555
v 0.000000 1.413370 0.111004
v 0.042480 1.413370 0.102555
v 0.078492 1.413370 0.078492
v 0.102555 1.413370 0.042480
v 0.101562 1.746106 0.000000
v 0.093831 1.746106 -0.038866
v 0.071815 1.746106 -0.071815
v 0.038866 1.746106 -0.093831
v 0.000000 1.746106 -0.101562
v -0.038866 1.746106 -0.093831
v -0.071815 1.746106 -0.071815
v -0.093831 1.746106 -0.038866
v -0.101562 1.746106 -0.000000
v -0.093831 1.746106 0.038866
v -0.071815 1.746106 0.071815
v -0.038866 1.746106 0.093831
v -0.000000 1.746106 0.101562
v 0.038866 1.746106 0.093831
v 0.071815 1.746106 0.071815
v 0.093831 1.746106 0.038866
v 0.147643 1.761449 0.000000
v 0.136404 1.761449 -0.056500
v 0.104399 1.761449 -0.104399
v 0.056500 1.761449 -0.136404
v 0.000000 1.761449 -0.147643
v -0.056500 1.761449 -0.136404
v -0.104399 1.761449 -0.104399
v -0.136404 1.761449 -0.056500
v -0.147643 1.761449 -0.000000
v -0.136404 1.761449 0.056500
v -0.104399 1.761449 0.104399
v -0.056500 1.761449 0.136404
v -0.000000 1.761449 0.147643
v 0.056500 1.761449 0.136404
v 0.104399 1.761449 0.104399
v 0.136404 1.761449 0.056500
v 0.148047 1.796740 0.000000
v 0.136778 1.796740 -0.056655
v 0.104685 1.796740 -0.104685
v 0.056655 1.796740 -0.136778
v 0.000000 1.796740 -0.148047
v -0.056655 1.796740 -0.136778
v -0.104685 1.796740 -0.104685
v -0.136778 1.796740 -0.056655
v -0.148047 1.796740 -0.000000
v -0.136778 1.796740 0.056655
v -0.104685 1.796740 0.104685
v -0.056655 1.796740 0.136778
v -0.000000 1.796740 0.148047
v 0.056655 1.796740 0.136778
v 0.104685 1.796740 0.104685
v 0.136778 1.796740 0.056655
v 0.126141 1.809401 0.000000
v 0.116539 1.809401 -0.048272
v 0.089195 1.809401 -0.089195
v 0.048272 1.809401 -0.116539
v 0.000000 1.809401 -0.126141
v -0.048272 1.809401 -0.116539
v -0.089195 1.809401 -0.089195
v -0.116539 1.809401 -0.048272
v -0.126141 1.809401 -0.000000
v -0.116539 1.809401 0.048272
v -0.089195 1.809401 0.089195
v -0.048272 1.809401 0.116539
v -0.000000 1.809401 0.126141
v 0.048272 1.809401 0.116539
v 0.089195 1.809401 0.089195
v 0.116539 1.809401 0.048272
v 0.297536 1.053137 -0.111652
v 0.295406 1.053137 -0.122361
v 0.292136 1.061987 -0.121006
v 0.265592 1.053137 -0.166981
v -0.295406 1.053137 -0.122361
v -0.292135 1.061987 -0.121006
v -0.265592 1.053137 -0.166981
v -0.297536 1.053137 -0.111652
vn -0.0017 -1.0000 0.0003
vn -0.0014 -1.0000 0.0010
vn -0.0010 -1.0000 0.0014
vn -0.0003 -1.0000 0.0017
vn 0.0003 -1.0000 0.0017
vn 0.0010 -1.0000 0.0014
vn 0.0014 -1.0000 0.0010
vn 0.0017 -1.0000 0.0003
vn 0.0017 -1.0000 -0.0003
vn 0.0014 -1.0000 -0.0010
vn 0.0010 -1.0000 -0.0014
vn 0.0003 -1.0000 -0.0017
vn -0.0003 -1.0000 -0.0017
vn -0.0010 -1.0000 -0.0014
vn -0.0014 -1.0000 -0.0010
vn -0.0017 -1.0000 -0.0003
vn 0.8806 -0.4403 -0.1752
vn 0.7465 -0.4403 -0.4988
vn 0.4988 -0.4403 -0.7465
vn 0.1752 -0.4403 -0.8806
vn -0.1752 -0.4403 -0.8806
vn -0.4988 -0.4403 -0.7465
vn -0.7465 -0.4403 -0.4988
vn -0.8806 -0.4403 -0.1752
vn -0.8806 -0.4403 0.1752
vn -0.7465 -0.4403 0.4988
vn -0.4988 -0.4403 0.7465
vn -0.1752 -0.4403 0.8806
vn 0.1752 -0.4403 0.8806
vn 0.4988 -0.4403 0.7465
vn 0.7465 -0.4403 0.4988
vn 0.8806 -0.4403 0.1752
vn 0.9489 0.2530 -0.1887
vn 0.8044 0.2530 -0.5375
vn 0.5375 0.2530 -0.8044
vn 0.1887 0.2530 -0.9489
vn -0.1887 0.2530 -0.9489
vn -0.5375 0.2530 -0.8044
vn -0.8044 0.2530 -0.5375
vn -0.9489 0.2530 -0.1887
vn -0.9489 0.2530 0.1887
vn -0.8044 0.2530 0.5375
vn -0.5375 0.2530 0.8044
vn -0.1887 0.2530 0.9489
vn 0.1887 0.2530 0.9489
vn 0.5375 0.2530 0.8044
vn 0.8044 0.2530 0.5375
vn 0.9489 0.2530 0.1887
vn 0.9130 0.3652 -0.1816
vn 0.7740 0.3652 -0.5172
vn 0.5172 0.3652 -0.7740
vn 0.1816 0.3652 -0.9130
vn -0.1816 0.3652 -0.9130
vn -0.5172 0.3652 -0.7740
vn -0.7740 0.3652 -0.5172
vn -0.9130 0.3652 -0.1816
vn -0.9130 0.3652 0.1816
vn -0.7740 0.3652 0.5172
vn -0.5172 0.3652 0.7740
vn -0.1816 0.3652 0.9130
vn 0.1816 0.3652 0.9130
vn 0.5172 0.3652 0.7740
vn 0.7740 0.3652 0.5172
vn 0.9130 0.3652 0.1816
vn 0.9026 0.3911 -0.1795
vn 0.7652 0.3911 -0.5113
vn 0.5113 0.3911 -0.7652
vn 0.1795 0.3911 -0.9026
vn -0.1795 0.3911 -0.9026
vn -0.5113 0.3911 -0.7652
vn -0.7652 0.3911 -0.5113
vn -0.9026 0.3911 -0.1795
vn -0.9026 0.3911 0.1795
vn -0.7652 0.3911 0.5113
vn -0.5113 0.3911 0.7652
vn -0.1795 0.3911 0.9026
vn 0.1795 0.3911 0.9026
vn 0.5113 0.3911 0.7652
vn 0.7652 0.3911 0.5113
vn 0.9026 0.3911 0.1795
vn 0.9803 0.0327 -0.1950
vn 0.8310 0.0327 -0.5553
vn 0.5553 0.0327 -0.8310
vn 0.1950 0.0327 -0.9803
vn -0.1950 0.0327 -0.9803
vn -0.5553 0.0327 -0.8310
vn -0.8310 0.0327 -0.5553
vn -0.9803 0.0327 -0.1950
vn -0.9803 0.0327 0.1950
vn -0.8310 0.0327 0.5553
vn -0.5553 0.0327 0.8310
vn -0.1950 0.0327 0.9803
vn 0.1950 0.0327 0.9803
vn 0.5553 0.0327 0.8310
vn 0.8310 0.0327 0.5553
vn 0.9803 0.0327 0.1950
vn 0.3704 -0.9260 -0.0737
vn 0.3140 -0.9260 -0.2098
vn 0.2098 -0.9260 -0.3140
vn 0.0737 -0.9260 -0.3704
vn -0.0737 -0.9260 -0.3704
vn -0.2098 -0.9260 -0.3140
vn -0.3140 -0.9260 -0.2098
vn -0.3704 -0.9260 -0.0737
vn -0.3704 -0.9260 0.0737
vn -0.3140 -0.9260 0.2098
vn -0.2098 -0.9260 0.3140
vn -0.0737 -0.9260 0.3704
vn 0.0737 -0.9260 0.3704
vn 0.2098 -0.9260 0.3140
vn 0.3140 -0.9260 0.2098
vn 0.3704 -0.9260 0.0737
vn 0.9808 -0.0000 -0.1951
vn 0.8315 -0.0000 -0.5556
vn 0.5556 -0.0000 -0.8315
vn 0.1951 -0.0000 -0.9808
vn -0.1951 -0.0000 -0.9808
vn -0.5556 -0.0000 -0.8315
vn -0.8315 -0.0000 -0.5556
vn -0.9808 -0.0000 -0.1951
vn -0.9808 -0.0000 0.1951
vn -0.8315 -0.0000 0.5556
vn -0.5556 -0.0000 0.8315
vn -0.1951 -0.0000 0.9808
vn 0.1951 -0.0000 0.9808
vn 0.5556 -0.0000 0.8315
vn 0.8315 -0.0000 0.5556
vn 0.9808 -0.0000 0.1951
vn 0.5118 0.8530 -0.1018
vn 0.4339 0.8530 -0.2899
vn 0.2899 0.8530 -0.4339
vn 0.1018 0.8530 -0.5118
vn -0.1018 0.8530 -0.5118
vn -0.2899 0.8530 -0.4339
vn -0.4339 0.8530 -0.2899
vn -0.5118 0.8530 -0.1018
vn -0.5118 0.8530 0.1018
vn -0.4339 0.8530 0.2899
vn -0.2899 0.8530 0.4339
vn -0.1018 0.8530 0.5118
vn 0.1018 0.8530 0.5118
vn 0.2899 0.8530 0.4339
vn 0.4339 0.8530 0.2899
vn 0.5118 0.8530 0.1018
vn 0.0037 1.0000 -0.0007
vn 0.0031 1.0000 -0.0021
vn 0.0021 1.0000 -0.0031
vn 0.0007 1.0000 -0.0037
vn -0.0007 1.0000 -0.0037
vn -0.0021 1.0000 -0.0031
vn -0.0031 1.0000 -0.0021
vn -0.0037 1.0000 -0.0007
vn -0.0037 1.0000 0.0007
vn -0.0031 1.0000 0.0021
vn -0.0021 1.0000 0.0031
vn -0.0007 1.0000 0.0037
vn 0.0007 1.0000 0.0037
vn 0.0021 1.0000 0.0031
vn 0.0031 1.0000 0.0021
vn 0.0037 1.0000 0.0007
vn -0.8633 0.4746 0.1717
vn -0.7319 0.4746 0.4890
vn -0.4890 0.4746 0.7319
vn -0.1717 0.4746 0.8633
vn 0.1717 0.4746 0.8633
vn 0.4890 0.4746 0.7319
vn 0.7319 0.4746 0.4890
vn 0.8633 0.4746 0.1717
vn 0.8633 0.4746 -0.1717
vn 0.7319 0.4746 -0.4890
vn 0.4890 0.4746 -0.7319
vn 0.1717 0.4746 -0.8633
vn -0.1717 0.4746 -0.8633
vn -0.4890 0.4746 -0.7319
vn -0.7319 0.4746 -0.4890
vn -0.8633 0.4746 -0.1717
vn -0.9489 -0.2530 0.1887
vn -0.8044 -0.2530 0.5375
vn -0.5375 -0.2530 0.8044
vn -0.1887 -0.2530 0.9489
vn 0.1887 -0.2530 0.9489
vn 0.5375 -0.2530 0.8044
vn 0.8044 -0.2530 0.5375
vn 0.9489 -0.2530 0.1887
vn 0.9489 -0.2530 -0.1887
vn 0.8044 -0.2530 -0.5375
vn 0.5375 -0.2530 -0.8044
vn 0.1887 -0.2530 -0.9489
vn -0.1887 -0.2530 -0.9489
vn -0.5375 -0.2530 -0.8044
vn -0.8044 -0.2530 -0.5375
vn -0.9489 -0.2530 -0.1887
vn -0.9131 -0.3651 0.1816
vn -0.7741 -0.3651 0.5172
vn -0.5172 -0.3651 0.7741
vn -0.1816 -0.3651 0.9131
vn 0.1816 -0.3651 0.9131
vn 0.5172 -0.3651 0.7741
vn 0.7741 -0.3651 0.5172
vn 0.9131 -0.3651 0.1816
vn 0.9131 -0.3651 -0.1816
vn 0.7741 -0.3651 -0.5172
vn 0.5172 -0.3651 -0.7741
vn 0.1816 -0.3651 -0.9131
vn -0.1816 -0.3651 -0.9131
vn -0.5172 -0.3651 -0.7741
vn -0.7741 -0.3651 -0.5172
vn -0.9131 -0.3651 -0.1816
vn -0.9025 -0.3915 0.1795
vn -0.7651 -0.3915 0.5112
vn -0.5112 -0.3915 0.7651
vn -0.1795 -0.3915 0.9025
vn 0.1795 -0.3915 0.9025
vn 0.5112 -0.3915 0.7651
vn 0.7651 -0.3915 0.5112
vn 0.9025 -0.3915 0.1795
vn 0.9025 -0.3915 -0.1795
vn 0.7651 -0.3915 -0.5112
vn 0.5112 -0.3915 -0.7651
vn 0.1795 -0.3915 -0.9025
vn -0.1795 -0.3915 -0.9025
vn -0.5112 -0.3915 -0.7651
vn -0.7651 -0.3915 -0.5112
vn -0.9025 -0.3915 -0.1795
vn -0.9804 -0.0278 0.1950
vn -0.8311 -0.0278 0.5554
vn -0.5554 -0.0278 0.8311
vn -0.1950 -0.0278 0.9804
vn 0.1950 -0.0278 0.9804
vn 0.5554 -0.0278 0.8311
vn 0.8311 -0.0278 0.5554
vn 0.9804 -0.0278 0.1950
vn 0.9804 -0.0278 -0.1950
vn 0.8311 -0.0278 -0.5554
vn 0.5554 -0.0278 -0.8311
vn 0.1950 -0.0278 -0.9804
vn -0.1950 -0.0278 -0.9804
vn -0.5554 -0.0278 -0.8311
vn -0.8311 -0.0278 -0.5554
vn -0.9804 -0.0278 -0.1950
vn -0.3153 0.9469 0.0627
vn -0.2673 0.9469 0.1786
vn -0.1786 0.9469 0.2673
vn -0.0627 0.9469 0.3153
vn 0.0627 0.9469 0.3153
vn 0.1786 0.9469 0.2673
vn 0.2673 0.9469 0.1786
vn 0.3153 0.9469 0.0627
vn 0.3153 0.9469 -0.0627
vn 0.2673 0.9469 -0.1786
vn 0.1786 0.9469 -0.2673
vn 0.0627 0.9469 -0.3153
vn -0.0627 0.9469 -0.3153
vn -0.1786 0.9469 -0.2673
vn -0.2673 0.9469 -0.1786
vn -0.3153 0.9469 -0.0627
vn -0.9807 0.0112 0.1951
vn -0.8314 0.0112 0.5555
vn -0.5555 0.0112 0.8314
vn -0.1951 0.0112 0.9807
vn 0.1951 0.0112 0.9807
vn 0.5555 0.0112 0.8314
vn 0.8314 0.0112 0.5555
vn 0.9807 0.0112 0.1951
vn 0.9807 0.0112 -0.1951
vn 0.8314 0.0112 -0.5555
vn 0.5555 0.0112 -0.8314
vn 0.1951 0.0112 -0.9807
vn -0.1951 0.0112 -0.9807
vn -0.5555 0.0112 -0.8314
vn -0.8314 0.0112 -0.5555
vn -0.9807 0.0112 -0.1951
vn -0.4979 -0.8615 0.0990
vn -0.4221 -0.8615 0.2821
vn -0.2821 -0.8615 0.4221
vn -0.0990 -0.8615 0.4979
vn 0.0990 -0.8615 0.4979
vn 0.2821 -0.8615 0.4221
vn 0.4221 -0.8615 0.2821
vn 0.4979 -0.8615 0.0990
vn 0.4979 -0.8615 -0.0990
vn 0.4221 -0.8615 -0.2821
vn 0.2821 -0.8615 -0.4221
vn 0.0990 -0.8615 -0.4979
vn -0.0990 -0.8615 -0.4979
vn -0.2821 -0.8615 -0.4221
vn -0.4221 -0.8615 -0.2821
vn -0.4979 -0.8615 -0.0990
vn -0.8453 0.5072 0.1681
vn -0.7166 0.5072 0.4788
vn -0.4788 0.5072 0.7166
vn -0.1681 0.5072 0.8453
vn 0.1681 0.5072 0.8453
vn 0.4788 0.5072 0.7166
vn 0.7166 0.5072 0.4788
vn 0.8453 0.5072 0.1681
vn 0.8453 0.5072 -0.1681
vn 0.7166 0.5072 -0.4788
vn 0.4788 0.5072 -0.7166
vn 0.1681 0.5072 -0.8453
vn -0.1681 0.5072 -0.8453
vn -0.4788 0.5072 -0.7166
vn -0.7166 0.5072 -0.4788
vn -0.8453 0.5072 -0.1681
vn -0.0000 1.0000 -0.0000
vn 0.8660 -0.0000 -0.5000
vn -0.8660 -0.0000 -0.5000
s 0
g A_Flask.001_hi_ether_glass
usemtl hi_ether_glass
f 1//1 3//1 2//1
f 1//2 4//2 3//2
f 1//3 5//3 4//3
f 1//4 6//4 5//4
f 1//5 7//5 6//5
f 1//6 8//6 7//6
f 1//7 9//7 8//7
f 1//8 10//8 9//8
f 1//9 11//9 10//9
f 1//10 12//10 11//10
f 1//11 13//11 12//11
f 1//12 14//12 13//12
f 1//13 15//13 14//13
f 1//14 16//14 15//14
f 1//15 17//15 16//15
f 1//16 2//16 17//16
f 3//17 18//17 2//17
f 4//18 19//18 3//18
f 5//19 20//19 4//19
f 6//20 21//20 5//20
f 7//21 22//21 6//21
f 8//22 23//22 7//22
f 9//23 24//23 8//23
f 10//24 25//24 9//24
f 11//25 26//25 10//25
f 12//26 27//26 11//26
f 13//27 28//27 12//27
f 14//28 29//28 13//28
f 15//29 30//29 14//29
f 16//30 31//30 15//30
f 17//31 32//31 16//31
f 2//32 33//32 17//32
f 19//33 34//33 18//33
f 20//34 35//34 19//34
f 21//35 36//35 20//35
f 22//36 37//36 21//36
f 23//37 38//37 22//37
f 24//38 39//38 23//38
f 25//39 40//39 24//39
f 26//40 41//40 25//40
f 27//41 42//41 26//41
f 28//42 43//42 27//42
f 29//43 44//43 28//43
f 30//44 45//44 29//44
f 31//45 46//45 30//45
f 32//46 47//46 31//46
f 33//47 48//47 32//47
f 18//48 49//48 33//48
f 34//49 292//49 291//49
f 52//50 293//50 294//50
f 37//51 52//51 36//51
f 38//52 53//52 37//52
f 39//53 54//53 38//53
f 40//54 55//54 39//54
f 56//55 41//55 297//55
f 42//56 57//56 298//56
f 43//57 58//57 42//57
f 44//58 59//58 43//58
f 45//59 60//59 44//59
f 46//60 61//60 45//60
f 47//61 62//61 46//61
f 48//62 63//62 47//62
f 49//63 64//63 48//63
f 34//64 65//64 49//64
f 51//65 66//65 50//65
f 52//66 67//66 51//66
f 53//67 68//67 52//67
f 54//68 69//68 53//68
f 55//69 70//69 54//69
f 56//70 71//70 55//70
f 57//71 72//71 56//71
f 58//72 73//72 57//72
f 59//73 74//73 58//73
f 60//74 75//74 59//74
f 61//75 76//75 60//75
f 62//76 77//76 61//76
f 63//77 78//77 62//77
f 64//78 79//78 63//78
f 65//79 80//79 64//79
f 50//80 81//80 65//80
f 67//81 82//81 66//81
f 68//82 83//82 67//82
f 69//83 84//83 68//83
f 70//84 85//84 69//84
f 71//85 86//85 70//85
f 72//86 87//86 71//86
f 73//87 88//87 72//87
f 74//88 89//88 73//88
f 75//89 90//89 74//89
f 76//90 91//90 75//90
f 77//91 92//91 76//91
f 78//92 93//92 77//92
f 79//93 94//93 78//93
f 80//94 95//94 79//94
f 81//95 96//95 80//95
f 66//96 97//96 81//96
f 83//97 98//97 82//97
f 84//98 99//98 83//98
f 85//99 100//99 84//99
f 86//100 101//100 85//100
f 87//101 102//101 86//101
f 88//102 103//102 87//102
f 89//103 104//103 88//103
f 90//104 105//104 89//104
f 91//105 106//105 90//105
f 92//106 107//106 91//106
f 93//107 108//107 92//107
f 94//108 109//108 93//108
f 95//109 110//109 94//109
f 96//110 111//110 95//110
f 97//111 112//111 96//111
f 82//112 113//112 97//112
f 99//113 114//113 98//113
f 100//114 115//114 99//114
f 101//115 116//115 100//115
f 102//116 117//116 101//116
f 103//117 118//117 102//117
f 104//118 119//118 103//118
f 105//119 120//119 104//119
f 106//120 121//120 105//120
f 107//121 122//121 106//121
f 108//122 123//122 107//122
f 109//123 124//123 108//123
f 110//124 125//124 109//124
f 111//125 126//125 110//125
f 112//126 127//126 111//126
f 113//127 128//127 112//127
f 98//128 129//128 113//128
f 115//129 130//129 114//129
f 116//130 131//130 115//130
f 117//131 132//131 116//131
f 118//132 133//132 117//132
f 119//133 134//133 118//133
f 120//134 135//134 119//134
f 121//135 136//135 120//135
f 122//136 137//136 121//136
f 123//137 138//137 122//137
f 124//138 139//138 123//138
f 125//139 140//139 124//139
f 126//140 141//140 125//140
f 127//141 142//141 126//141
f 128//142 143//142 127//142
f 129//143 144//143 128//143
f 114//144 145//144 129//144
f 146//145 147//145 148//145
f 146//146 148//146 149//146
f 146//147 149//147 150//147
f 146//148 150//148 151//148
f 146//149 151//149 152//149
f 146//150 152//150 153//150
f 146//151 153//151 154//151
f 146//152 154//152 155//152
f 146//153 155//153 156//153
f 146//154 156//154 157//154
f 146//155 157//155 158//155
f 146//156 158//156 159//156
f 146//157 159//157 160//157
f 146//158 160//158 161//158
f 146//159 161//159 162//159
f 146//160 162//160 147//160
f 163//161 148//161 147//161
f 148//162 165//162 149//162
f 165//163 150//163 149//163
f 166//164 151//164 150//164
f 167//165 152//165 151//165
f 168//166 153//166 152//166
f 169//167 154//167 153//167
f 170//168 155//168 154//168
f 171//169 156//169 155//169
f 156//170 173//170 157//170
f 173//171 158//171 157//171
f 174//172 159//172 158//172
f 175//173 160//173 159//173
f 176//174 161//174 160//174
f 177//175 162//175 161//175
f 178//176 147//176 162//176
f 179//177 164//177 163//177
f 180//178 165//178 164//178
f 181//179 166//179 165//179
f 182//180 167//180 166//180
f 167//181 184//181 168//181
f 184//182 169//182 168//182
f 185//183 170//183 169//183
f 186//184 171//184 170//184
f 187//185 172//185 171//185
f 188//186 173//186 172//186
f 189//187 174//187 173//187
f 190//188 175//188 174//188
f 175//189 192//189 176//189
f 192//190 177//190 176//190
f 193//191 178//191 177//191
f 194//192 163//192 178//192
f 195//193 180//193 179//193
f 196//194 181//194 180//194
f 181//195 198//195 182//195
f 198//196 183//196 182//196
f 183//197 200//197 184//197
f 200//198 185//198 184//198
f 201//199 186//199 185//199
f 202//200 187//200 186//200
f 203//201 188//201 187//201
f 204//202 189//202 188//202
f 189//203 206//203 190//203
f 206//204 191//204 190//204
f 191//205 208//205 192//205
f 208//206 193//206 192//206
f 209//207 194//207 193//207
f 210//208 179//208 194//208
f 195//209 212//209 196//209
f 212//210 197//210 196//210
f 213//211 198//211 197//211
f 214//212 199//212 198//212
f 199//213 216//213 200//213
f 216//214 201//214 200//214
f 217//215 202//215 201//215
f 218//216 203//216 202//216
f 203//217 220//217 204//217
f 220//218 205//218 204//218
f 221//219 206//219 205//219
f 222//220 207//220 206//220
f 207//221 224//221 208//221
f 224//222 209//222 208//222
f 225//223 210//223 209//223
f 226//224 195//224 210//224
f 227//225 212//225 211//225
f 212//226 229//226 213//226
f 229//227 214//227 213//227
f 230//228 215//228 214//228
f 231//229 216//229 215//229
f 232//230 217//230 216//230
f 233//231 218//231 217//231
f 234//232 219//232 218//232
f 235//233 220//233 219//233
f 220//234 237//234 221//234
f 237//235 222//235 221//235
f 238//236 223//236 222//236
f 239//237 224//237 223//237
f 240//238 225//238 224//238
f 241//239 226//239 225//239
f 242//240 211//240 226//240
f 227//241 244//241 228//241
f 228//242 245//242 229//242
f 229//243 246//243 230//243
f 230//244 247//244 231//244
f 247//245 232//245 231//245
f 248//246 233//246 232//246
f 249//247 234//247 233//247
f 234//248 251//248 235//248
f 235//249 252//249 236//249
f 236//250 253//250 237//250
f 237//251 254//251 238//251
f 238//252 255//252 239//252
f 255//253 240//253 239//253
f 256//254 241//254 240//254
f 257//255 242//255 241//255
f 242//256 243//256 227//256
f 259//257 244//257 243//257
f 244//258 261//258 245//258
f 245//259 262//259 246//259
f 262//260 247//260 246//260
f 263//261 248//261 247//261
f 264//262 249//262 248//262
f 249//263 266//263 250//263
f 250//264 267//264 251//264
f 267//265 252//265 251//265
f 252//266 269//266 253//266
f 253//267 270//267 254//267
f 270//268 255//268 254//268
f 271//269 256//269 255//269
f 272//270 257//270 256//270
f 257//271 274//271 258//271
f 258//272 259//272 243//272
f 275//273 260//273 259//273
f 276//274 261//274 260//274
f 277//275 262//275 261//275
f 278//276 263//276 262//276
f 263//277 280//277 264//277
f 280//278 265//278 264//278
f 265//279 282//279 266//279
f 266//280 283//280 267//280
f 283//281 268//281 267//281
f 284//282 269//282 268//282
f 285//283 270//283 269//283
f 286//284 271//284 270//284
f 271//285 288//285 272//285
f 288//286 273//286 272//286
f 273//287 290//287 274//287
f 274//288 275//288 259//288
f 130//289 276//289 275//289
f 131//290 277//290 276//290
f 132//291 278//291 277//291
f 134//292 278//292 133//292
f 135//293 279//293 134//293
f 136//294 280//294 135//294
f 136//295 282//295 281//295
f 138//296 282//296 137//296
f 138//297 284//297 283//297
f 139//298 285//298 284//298
f 140//299 286//299 285//299
f 142//300 286//300 141//300
f 143//301 287//301 142//301
f 144//302 288//302 143//302
f 144//303 290//303 289//303
f 130//304 290//304 145//304
f 292//305 294//305 291//305
f 294//306 293//306 291//306
f 297//305 295//305 298//305
f 296//307 297//307 298//307
f 3//17 19//17 18//17
f 4//18 20//18 19//18
f 5//19 21//19 20//19
f 6//20 22//20 21//20
f 7//21 23//21 22//21
f 8//22 24//22 23//22
f 9//23 25//23 24//23
f 10//24 26//24 25//24
f 11//25 27//25 26//25
f 12//26 28//26 27//26
f 13//27 29//27 28//27
f 14//28 30//28 29//28
f 15//29 31//29 30//29
f 16//30 32//30 31//30
f 17//31 33//31 32//31
f 2//32 18//32 33//32
f 19//33 35//33 34//33
f 20//34 36//34 35//34
f 21//35 37//35 36//35
f 22//36 38//36 37//36
f 23//37 39//37 38//37
f 24//38 40//38 39//38
f 25//39 41//39 40//39
f 26//40 42//40 41//40
f 27//41 43//41 42//41
f 28//42 44//42 43//42
f 29//43 45//43 44//43
f 30//44 46//44 45//44
f 31//45 47//45 46//45
f 32//46 48//46 47//46
f 33//47 49//47 48//47
f 18//48 34//48 49//48
f 291//49 293//49 51//49
f 51//49 50//49 34//49
f 34//49 35//49 292//49
f 291//49 51//49 34//49
f 294//50 292//50 35//50
f 35//50 36//50 52//50
f 52//50 51//50 293//50
f 294//50 35//50 52//50
f 37//51 53//51 52//51
f 38//52 54//52 53//52
f 39//53 55//53 54//53
f 40//54 56//54 55//54
f 296//55 57//55 56//55
f 56//55 40//55 41//55
f 41//55 295//55 297//55
f 297//55 296//55 56//55
f 295//56 41//56 42//56
f 42//56 58//56 57//56
f 57//56 296//56 298//56
f 298//56 295//56 42//56
f 43//57 59//57 58//57
f 44//58 60//58 59//58
f 45//59 61//59 60//59
f 46//60 62//60 61//60
f 47//61 63//61 62//61
f 48//62 64//62 63//62
f 49//63 65//63 64//63
f 34//64 50//64 65//64
f 51//65 67//65 66//65
f 52//66 68//66 67//66
f 53//67 69//67 68//67
f 54//68 70//68 69//68
f 55//69 71//69 70//69
f 56//70 72//70 71//70
f 57//71 73//71 72//71
f 58//72 74//72 73//72
f 59//73 75//73 74//73
f 60//74 76//74 75//74
f 61//75 77//75 76//75
f 62//76 78//76 77//76
f 63//77 79//77 78//77
f 64//78 80//78 79//78
f 65//79 81//79 80//79
f 50//80 66//80 81//80
f 67//81 83//81 82//81
f 68//82 84//82 83//82
f 69//83 85//83 84//83
f 70//84 86//84 85//84
f 71//85 87//85 86//85
f 72//86 88//86 87//86
f 73//87 89//87 88//87
f 74//88 90//88 89//88
f 75//89 91//89 90//89
f 76//90 92//90 91//90
f 77//91 93//91 92//91
f 78//92 94//92 93//92
f 79//93 95//93 94//93
f 80//94 96//94 95//94
f 81//95 97//95 96//95
f 66//96 82//96 97//96
f 83//97 99//97 98//97
f 84//98 100//98 99//98
f 85//99 101//99 100//99
f 86//100 102//100 101//100
f 87//101 103//101 102//101
f 88//102 104//102 103//102
f 89//103 105//103 104//103
f 90//104 106//104 105//104
f 91//105 107//105 106//105
f 92//106 108//106 107//106
f 93//107 109//107 108//107
f 94//108 110//108 109//108
f 95//109 111//109 110//109
f 96//110 112//110 111//110
f 97//111 113//111 112//111
f 82//112 98//112 113//112
f 99//113 115//113 114//113
f 100//114 116//114 115//114
f 101//115 117//115 116//115
f 102//116 118//116 117//116
f 103//117 119//117 118//117
f 104//118 120//118 119//118
f 105//119 121//119 120//119
f 106//120 122//120 121//120
f 107//121 123//121 122//121
f 108//122 124//122 123//122
f 109//123 125//123 124//123
f 110//124 126//124 125//124
f 111//125 127//125 126//125
f 112//126 128//126 127//126
f 113//127 129//127 128//127
f 98//128 114//128 129//128
f 115//129 131//129 130//129
f 116//130 132//130 131//130
f 117//131 133//131 132//131
f 118//132 134//132 133//132
f 119//133 135//133 134//133
f 120//134 136//134 135//134
f 121//135 137//135 136//135
f 122//136 138//136 137//136
f 123//137 139//137 138//137
f 124//138 140//138 139//138
f 125//139 141//139 140//139
f 126//140 142//140 141//140
f 127//141 143//141 142//141
f 128//142 144//142 143//142
f 129//143 145//143 144//143
f 114//144 130//144 145//144
f 163//161 164//161 148//161
f 148//162 164//162 165//162
f 165//163 166//163 150//163
f 166//164 167//164 151//164
f 167//165 168//165 152//165
f 168//166 169//166 153//166
f 169//167 170//167 154//167
f 170//168 171//168 155//168
f 171//169 172//169 156//169
f 156//170 172//170 173//170
f 173//171 174//171 158//171
f 174//172 175//172 159//172
f 175//173 176//173 160//173
f 176//174 177//174 161//174
f 177//175 178//175 162//175
f 178//176 163//176 147//176
f 179//177 180//177 164//177
f 180//178 181//178 165//178
f 181//179 182//179 166//179
f 182//180 183//180 167//180
f 167//181 183//181 184//181
f 184//182 185//182 169//182
f 185//183 186//183 170//183
f 186//184 187//184 171//184
f 187//185 188//185 172//185
f 188//186 189//186 173//186
f 189//187 190//187 174//187
f 190//188 191//188 175//188
f 175//189 191//189 192//189
f 192//190 193//190 177//190
f 193//191 194//191 178//191
f 194//192 179//192 163//192
f 195//193 196//193 180//193
f 196//194 197//194 181//194
f 181//195 197//195 198//195
f 198//196 199//196 183//196
f 183//197 199//197 200//197
f 200//198 201//198 185//198
f 201//199 202//199 186//199
f 202//200 203//200 187//200
f 203//201 204//201 188//201
f 204//202 205//202 189//202
f 189//203 205//203 206//203
f 206//204 207//204 191//204
f 191//205 207//205 208//205
f 208//206 209//206 193//206
f 209//207 210//207 194//207
f 210//208 195//208 179//208
f 195//209 211//209 212//209
f 212//210 213//210 197//210
f 213//211 214//211 198//211
f 214//212 215//212 199//212
f 199//213 215//213 216//213
f 216//214 217//214 201//214
f 217//215 218//215 202//215
f 218//216 219//216 203//216
f 203//217 219//217 220//217
f 220//218 221//218 205//218
f 221//219 222//219 206//219
f 222//220 223//220 207//220
f 207//221 223//221 224//221
f 224//222 225//222 209//222
f 225//223 226//223 210//223
f 226//224 211//224 195//224
f 227//225 228//225 212//225
f 212//226 228//226 229//226
f 229//227 230//227 214//227
f 230//228 231//228 215//228
f 231//229 232//229 216//229
f 232//230 233//230 217//230
f 233//231 234//231 218//231
f 234//232 235//232 219//232
f 235//233 236//233 220//233
f 220//234 236//234 237//234
f 237//235 238//235 222//235
f 238//236 239//236 223//236
f 239//237 240//237 224//237
f 240//238 241//238 225//238
f 241//239 242//239 226//239
f 242//240 227//240 211//240
f 227//241 243//241 244//241
f 228//242 244//242 245//242
f 229//243 245//243 246//243
f 230//244 246//244 247//244
f 247//245 248//245 232//245
f 248//246 249//246 233//246
f 249//247 250//247 234//247
f 234//248 250//248 251//248
f 235//249 251//249 252//249
f 236//250 252//250 253//250
f 237//251 253//251 254//251
f 238//252 254//252 255//252
f 255//253 256//253 240//253
f 256//254 257//254 241//254
f 257//255 258//255 242//255
f 242//256 258//256 243//256
f 259//257 260//257 244//257
f 244//258 260//258 261//258
f 245//259 261//259 262//259
f 262//260 263//260 247//260
f 263//261 264//261 248//261
f 264//262 265//262 249//262
f 249//263 265//263 266//263
f 250//264 266//264 267//264
f 267//265 268//265 252//265
f 252//266 268//266 269//266
f 253//267 269//267 270//267
f 270//268 271//268 255//268
f 271//269 272//269 256//269
f 272//270 273//270 257//270
f 257//271 273//271 274//271
f 258//272 274//272 259//272
f 275//273 276//273 260//273
f 276//274 277//274 261//274
f 277//275 278//275 262//275
f 278//276 279//276 263//276
f 263//277 279//277 280//277
f 280//278 281//278 265//278
f 265//279 281//279 282//279
f 266//280 282//280 283//280
f 283//281 284//281 268//281
f 284//282 285//282 269//282
f 285//283 286//283 270//283
f 286//284 287//284 271//284
f 271//285 287//285 288//285
f 288//286 289//286 273//286
f 273//287 289//287 290//287
f 274//288 290//288 275//288
f 130//289 131//289 276//289
f 131//290 132//290 277//290
f 132//291 133//291 278//291
f 134//292 279//292 278//292
f 135//293 280//293 279//293
f 136//294 281//294 280//294
f 136//295 137//295 282//295
f 138//296 283//296 282//296
f 138//297 139//297 284//297
f 139//298 140//298 285//298
f 140//299 141//299 286//299
f 142//300 287//300 286//300
f 143//301 288//301 287//301
f 144//302 289//302 288//302
f 144//303 145//303 290//303
f 130//304 275//304 290//304
g A_Liquid.001_A_Liquid.001
v 0.000000 0.140000 0.000000
v 0.365000 0.665000 0.000000
v 0.337216 0.665000 -0.139679
v 0.258094 0.665000 -0.258094
v 0.139679 0.665000 -0.337216
v 0.000000 0.665000 -0.365000
v -0.139679 0.665000 -0.337216
v -0.258094 0.665000 -0.258094
v -0.337216 0.665000 -0.139679
v -0.365000 0.665000 -0.000000
v -0.337216 0.665000 0.139679
v -0.258094 0.665000 0.258094
v -0.139679 0.665000 0.337216
v -0.000000 0.665000 0.365000
v 0.139679 0.665000 0.337216
v 0.258094 0.665000 0.258094
v 0.337216 0.665000 0.139679
v 0.175000 1.140000 0.000000
v 0.161679 1.140000 -0.066970
v 0.123744 1.140000 -0.123744
v 0.066970 1.140000 -0.161679
v 0.000000 1.140000 -0.175000
v -0.066970 1.140000 -0.161679
v -0.123744 1.140000 -0.123744
v -0.161679 1.140000 -0.066970
v -0.175000 1.140000 -0.000000
v -0.161679 1.140000 0.066970
v -0.123744 1.140000 0.123744
v -0.066970 1.140000 0.161679
v -0.000000 1.140000 0.175000
v 0.066970 1.140000 0.161679
v 0.123744 1.140000 0.123744
v 0.161679 1.140000 0.066970
v 0.122500 1.188550 0.000000
v 0.113175 1.188550 -0.046879
v 0.086621 1.188550 -0.086621
v 0.046879 1.188550 -0.113175
v 0.000000 1.188550 -0.122500
v -0.046879 1.188550 -0.113175
v -0.086621 1.188550 -0.086621
v -0.113175 1.188550 -0.046879
v -0.122500 1.188550 -0.000000
v -0.113175 1.188550 0.046879
v -0.086621 1.188550 0.086621
v -0.046879 1.188550 0.113175
v -0.000000 1.188550 0.122500
v 0.046879 1.188550 0.113175
v 0.086621 1.188550 0.086621
v 0.113175 1.188550 0.046879
v 0.000000 1.218550 0.000000
vn 0.8103 -0.5634 -0.1612
vn 0.6870 -0.5634 -0.4590
vn 0.4590 -0.5634 -0.6870
vn 0.1612 -0.5634 -0.8103
vn -0.1612 -0.5634 -0.8103
vn -0.4590 -0.5634 -0.6870
vn -0.6870 -0.5634 -0.4590
vn -0.8103 -0.5634 -0.1612
vn -0.8103 -0.5634 0.1612
vn -0.6870 -0.5634 0.4590
vn -0.4590 -0.5634 0.6870
vn -0.1612 -0.5634 0.8103
vn 0.1612 -0.5634 0.8103
vn 0.4590 -0.5634 0.6870
vn 0.6870 -0.5634 0.4590
vn 0.8103 -0.5634 0.1612
vn 0.9130 0.3652 -0.1816
vn 0.7740 0.3652 -0.5172
vn 0.5172 0.3652 -0.7740
vn 0.1816 0.3652 -0.9130
vn -0.1816 0.3652 -0.9130
vn -0.5172 0.3652 -0.7740
vn -0.7740 0.3652 -0.5172
vn -0.9130 0.3652 -0.1816
vn -0.9130 0.3652 0.1816
vn -0.7740 0.3652 0.5172
vn -0.5172 0.3652 0.7740
vn -0.1816 0.3652 0.9130
vn 0.1816 0.3652 0.9130
vn 0.5172 0.3652 0.7740
vn 0.7740 0.3652 0.5172
vn 0.9130 0.3652 0.1816
vn 0.6728 0.7276 -0.1338
vn 0.5704 0.7276 -0.3811
vn 0.3811 0.7276 -0.5704
vn 0.1338 0.7276 -0.6728
vn -0.1338 0.7276 -0.6728
vn -0.3811 0.7276 -0.5704
vn -0.5704 0.7276 -0.3811
vn -0.6728 0.7276 -0.1338
vn -0.6728 0.7276 0.1338
vn -0.5704 0.7276 0.3811
vn -0.3811 0.7276 0.5704
vn -0.1338 0.7276 0.6728
vn 0.1338 0.7276 0.6728
vn 0.3811 0.7276 0.5704
vn 0.5704 0.7276 0.3811
vn 0.6728 0.7276 0.1338
vn 0.2376 0.9702 -0.0473
vn 0.2014 0.9702 -0.1346
vn 0.1346 0.9702 -0.2014
vn 0.0473 0.9702 -0.2376
vn -0.0473 0.9702 -0.2376
vn -0.1346 0.9702 -0.2014
vn -0.2014 0.9702 -0.1346
vn -0.2376 0.9702 -0.0473
vn -0.2376 0.9702 0.0473
vn -0.2014 0.9702 0.1346
vn -0.1346 0.9702 0.2014
vn -0.0473 0.9702 0.2376
vn 0.0473 0.9702 0.2376
vn 0.1346 0.9702 0.2014
vn 0.2014 0.9702 0.1346
vn 0.2376 0.9702 0.0473
s 0
g A_Liquid.001_hi_ether_liquid
usemtl hi_ether_liquid
f 299//308 301//308 300//308
f 299//309 302//309 301//309
f 299//310 303//310 302//310
f 299//311 304//311 303//311
f 299//312 305//312 304//312
f 299//313 306//313 305//313
f 299//314 307//314 306//314
f 299//315 308//315 307//315
f 299//316 309//316 308//316
f 299//317 310//317 309//317
f 299//318 311//318 310//318
f 299//319 312//319 311//319
f 299//320 313//320 312//320
f 299//321 314//321 313//321
f 299//322 315//322 314//322
f 299//323 300//323 315//323
f 300//324 317//324 316//324
f 302//325 317//325 301//325
f 303//326 318//326 302//326
f 304//327 319//327 303//327
f 304//328 321//328 320//328
f 306//329 321//329 305//329
f 307//330 322//330 306//330
f 308//331 323//331 307//331
f 308//332 325//332 324//332
f 310//333 325//333 309//333
f 311//334 326//334 310//334
f 312//335 327//335 311//335
f 312//336 329//336 328//336
f 314//337 329//337 313//337
f 315//338 330//338 314//338
f 300//339 331//339 315//339
f 316//340 333//340 332//340
f 318//341 333//341 317//341
f 319//342 334//342 318//342
f 320//343 335//343 319//343
f 320//344 337//344 336//344
f 322//345 337//345 321//345
f 323//346 338//346 322//346
f 324//347 339//347 323//347
f 324//348 341//348 340//348
f 326//349 341//349 325//349
f 327//350 342//350 326//350
f 328//351 343//351 327//351
f 328//352 345//352 344//352
f 330//353 345//353 329//353
f 331//354 346//354 330//354
f 316//355 347//355 331//355
f 332//356 333//356 348//356
f 333//357 334//357 348//357
f 334//358 335//358 348//358
f 335//359 336//359 348//359
f 336//360 337//360 348//360
f 337//361 338//361 348//361
f 338//362 339//362 348//362
f 339//363 340//363 348//363
f 340//364 341//364 348//364
f 341//365 342//365 348//365
f 342//366 343//366 348//366
f 343//367 344//367 348//367
f 344//368 345//368 348//368
f 345//369 346//369 348//369
f 346//370 347//370 348//370
f 347//371 332//371 348//371
f 300//324 301//324 317//324
f 302//325 318//325 317//325
f 303//326 319//326 318//326
f 304//327 320//327 319//327
f 304//328 305//328 321//328
f 306//329 322//329 321//329
f 307//330 323//330 322//330
f 308//331 324//331 323//331
f 308//332 309//332 325//332
f 310//333 326//333 325//333
f 311//334 327//334 326//334
f 312//335 328//335 327//335
f 312//336 313//336 329//336
f 314//337 330//337 329//337
f 315//338 331//338 330//338
f 300//339 316//339 331//339
f 316//340 317//340 333//340
f 318//341 334//341 333//341
f 319//342 335//342 334//342
f 320//343 336//343 335//343
f 320//344 321//344 337//344
f 322//345 338//345 337//345
f 323//346 339//346 338//346
f 324//347 340//347 339//347
f 324//348 325//348 341//348
f 326//349 342//349 341//349
f 327//350 343//350 342//350
f 328//351 344//351 343//351
f 328//352 329//352 345//352
f 330//353 346//353 345//353
f 331//354 347//354 346//354
f 316//355 332//355 347//355
g C_Label.001_C_Label.001
v -0.340000 0.985000 0.650650
v 0.340000 0.985000 0.650650
v 0.340000 1.385000 0.650650
v -0.340000 1.385000 0.650650
v -0.340000 0.985000 0.620650
v 0.340000 0.985000 0.620650
v 0.340000 1.385000 0.620650
v -0.340000 1.385000 0.620650
vn -0.0000 -0.0000 1.0000
vn -0.0000 -0.0000 -1.0000
vn -1.0000 -0.0000 -0.0000
vn -0.0000 -1.0000 -0.0000
vn 1.0000 -0.0000 -0.0000
vn -0.0000 1.0000 -0.0000
vt 1.000000 0.000000
vt 0.000000 1.000000
vt 0.000000 0.000000
vt 1.000000 1.000000
s 0
g C_Label.001_hi_ether_label
usemtl hi_ether_label
f 350/1/372 352/2/372 349/3/372
f 356/2/373 354/1/373 353/3/373
f 352/2/374 353/3/374 349/3/374
f 349/3/375 354/1/375 350/1/375
f 350/1/376 355/4/376 351/4/376
f 351/4/377 356/2/377 352/2/377
f 350/1/372 351/4/372 352/2/372
f 356/2/373 355/4/373 354/1/373
f 352/2/374 356/2/374 353/3/374
f 349/3/375 353/3/375 354/1/375
f 350/1/376 354/1/376 355/4/376
f 351/4/377 355/4/377 356/2/377
g S_Cork.001_S_Cork.001
v 0.000000 1.792500 0.000000
v 0.114000 1.792500 0.000000
v 0.080610 1.792500 -0.080610
v 0.000000 1.792500 -0.114000
v -0.080610 1.792500 -0.080610
v -0.114000 1.792500 -0.000000
v -0.080610 1.792500 0.080610
v -0.000000 1.792500 0.114000
v 0.080610 1.792500 0.080610
v 0.152000 2.001500 0.000000
v 0.107480 2.001500 -0.107480
v 0.000000 2.001500 -0.152000
v -0.107480 2.001500 -0.107480
v -0.152000 2.001500 -0.000000
v -0.107480 2.001500 0.107480
v -0.000000 2.001500 0.152000
v 0.107480 2.001500 0.107480
v 0.152000 2.115500 0.000000
v 0.107480 2.115500 -0.107480
v 0.000000 2.115500 -0.152000
v -0.107480 2.115500 -0.107480
v -0.152000 2.115500 -0.000000
v -0.107480 2.115500 0.107480
v -0.000000 2.115500 0.152000
v 0.107480 2.115500 0.107480
v 0.000000 2.115500 0.000000
vn -0.0000 -1.0000 -0.0000
vn 0.9111 -0.1657 -0.3774
vn 0.3774 -0.1657 -0.9111
vn -0.3774 -0.1657 -0.9111
vn -0.9111 -0.1657 -0.3774
vn -0.9111 -0.1657 0.3774
vn -0.3774 -0.1657 0.9111
vn 0.3774 -0.1657 0.9111
vn 0.9111 -0.1657 0.3774
vn 0.9239 -0.0000 -0.3827
vn 0.3827 -0.0000 -0.9239
vn -0.3827 -0.0000 -0.9239
vn -0.9239 -0.0000 -0.3827
vn -0.9239 -0.0000 0.3827
vn -0.3827 -0.0000 0.9239
vn 0.3827 -0.0000 0.9239
vn 0.9239 -0.0000 0.3827
vn -0.0000 1.0000 -0.0000
s 0
g S_Cork.001_hi_ether_cork
usemtl hi_ether_cork
f 357//378 359//378 358//378
f 357//378 360//378 359//378
f 357//378 361//378 360//378
f 357//378 362//378 361//378
f 357//378 363//378 362//378
f 357//378 364//378 363//378
f 357//378 365//378 364//378
f 357//378 358//378 365//378
f 359//379 366//379 358//379
f 360//380 367//380 359//380
f 361//381 368//381 360//381
f 362//382 369//382 361//382
f 363//383 370//383 362//383
f 364//384 371//384 363//384
f 365//385 372//385 364//385
f 358//386 373//386 365//386
f 367//387 374//387 366//387
f 368//388 375//388 367//388
f 369//389 376//389 368//389
f 370//390 377//390 369//390
f 371//391 378//391 370//391
f 372//392 379//392 371//392
f 373//393 380//393 372//393
f 366//394 381//394 373//394
f 374//395 375//395 382//395
f 375//395 376//395 382//395
f 376//395 377//395 382//395
f 377//395 378//395 382//395
f 378//395 379//395 382//395
f 379//395 380//395 382//395
f 380//395 381//395 382//395
f 381//395 374//395 382//395
f 359//379 367//379 366//379
f 360//380 368//380 367//380
f 361//381 369//381 368//381
f 362//382 370//382 369//382
f 363//383 371//383 370//383
f 364//384 372//384 371//384
f 365//385 373//385 372//385
f 358//386 366//386 373//386
f 367//387 375//387 374//387
f 368//388 376//388 375//388
f 369//389 377//389 376//389
f 370//390 378//390 377//390
f 371//391 379//391 378//391
f 372//392 380//392 379//392
f 373//393 381//393 380//393
f 366//394 374//394 381//394
