# Blender 5.2.2 LTS
# www.blender.org
mtllib iron_knife.mtl
g A_Blade.001_A_Blade.001
v 0.210000 0.400000 0.000000
v 0.168000 0.400000 -0.049200
v 0.096600 0.400000 -0.049200
v 0.077280 0.400000 -0.049200
v -0.077280 0.400000 -0.049200
v -0.096600 0.400000 -0.049200
v -0.168000 0.400000 -0.049200
v -0.210000 0.400000 0.000000
v -0.168000 0.400000 0.049200
v -0.096600 0.400000 0.049200
v -0.077280 0.400000 0.049200
v 0.077280 0.400000 0.049200
v 0.096600 0.400000 0.049200
v 0.168000 0.400000 0.049200
v 0.214200 0.525000 0.000000
v 0.171360 0.525000 -0.049200
v 0.098532 0.525000 -0.049200
v 0.078826 0.525000 -0.049200
v -0.078826 0.525000 -0.049200
v -0.098532 0.525000 -0.049200
v -0.171360 0.525000 -0.049200
v -0.214200 0.525000 0.000000
v -0.171360 0.525000 0.049200
v -0.098532 0.525000 0.049200
v -0.078826 0.525000 0.049200
v 0.078826 0.525000 0.049200
v 0.098532 0.525000 0.049200
v 0.171360 0.525000 0.049200
v 0.203700 1.550000 0.000000
v 0.162960 1.550000 -0.046740
v 0.093702 1.550000 -0.046740
v 0.074962 1.550000 -0.046740
v -0.074962 1.550000 -0.046740
v -0.093702 1.550000 -0.046740
v -0.162960 1.550000 -0.046740
v -0.203700 1.550000 0.000000
v -0.162960 1.550000 0.046740
v -0.093702 1.550000 0.046740
v -0.074962 1.550000 0.046740
v 0.074962 1.550000 0.046740
v 0.093702 1.550000 0.046740
v 0.162960 1.550000 0.046740
v 0.163800 1.600000 0.000000
v 0.131040 1.600000 -0.040344
v 0.075348 1.600000 -0.040344
v 0.060278 1.600000 -0.040344
v -0.060278 1.600000 -0.040344
v -0.075348 1.600000 -0.040344
v -0.131040 1.600000 -0.040344
v -0.163800 1.600000 0.000000
v -0.131040 1.600000 0.040344
v -0.075348 1.600000 0.040344
v -0.060278 1.600000 0.040344
v 0.060278 1.600000 0.040344
v 0.075348 1.600000 0.040344
v 0.131040 1.600000 0.040344
v 0.088200 1.810000 0.000000
v 0.070560 1.810000 -0.029520
v 0.040572 1.810000 -0.029520
v 0.032458 1.810000 -0.029520
v -0.032458 1.810000 -0.029520
v -0.040572 1.810000 -0.029520
v -0.070560 1.810000 -0.029520
v -0.088200 1.810000 0.000000
v -0.070560 1.810000 0.029520
v -0.040572 1.810000 0.029520
v -0.032458 1.810000 0.029520
v 0.032458 1.810000 0.029520
v 0.040572 1.810000 0.029520
v 0.070560 1.810000 0.029520
v 0.021000 1.930000 0.000000
v 0.016800 1.930000 -0.014760
v 0.009660 1.930000 -0.014760
v 0.007728 1.930000 -0.014760
v -0.007728 1.930000 -0.014760
v -0.009660 1.930000 -0.014760
v -0.016800 1.930000 -0.014760
v -0.021000 1.930000 0.000000
v -0.016800 1.930000 0.014760
v -0.009660 1.930000 0.014760
v -0.007728 1.930000 0.014760
v 0.007728 1.930000 0.014760
v 0.009660 1.930000 0.014760
v 0.016800 1.930000 0.014760
v 0.008400 1.950000 0.000000
v 0.006720 1.950000 -0.009840
v 0.003864 1.950000 -0.009840
v 0.003091 1.950000 -0.009840
v -0.003091 1.950000 -0.009840
v -0.003864 1.950000 -0.009840
v -0.006720 1.950000 -0.009840
v -0.008400 1.950000 0.000000
v -0.006720 1.950000 0.009840
v -0.003864 1.950000 0.009840
v -0.003091 1.950000 0.009840
v 0.003091 1.950000 0.009840
v 0.003864 1.950000 0.009840
v 0.006720 1.950000 0.009840
vn 0.7539 -0.0253 -0.6565
vn -0.0000 -0.0000 -1.0000
vn -0.7604 -0.0204 -0.6491
vn -0.7539 -0.0253 0.6565
vn -0.0000 -0.0000 1.0000
vn 0.7604 -0.0204 0.6491
vn 0.7541 0.0077 -0.6567
vn -0.0000 0.0024 -1.0000
vn -0.7538 0.0078 -0.6570
vn -0.7541 0.0077 0.6567
vn -0.0000 0.0024 1.0000
vn 0.7538 0.0078 0.6570
vn 0.6460 0.5155 -0.5630
vn -0.0000 0.1269 -0.9919
vn -0.6726 0.4993 -0.5462
vn -0.6460 0.5155 0.5630
vn -0.0000 0.1269 0.9919
vn 0.6726 0.4993 0.5462
vn 0.7477 0.2692 -0.6071
vn -0.0000 0.0515 -0.9987
vn -0.8280 0.2640 -0.4948
vn -0.7477 0.2692 0.6071
vn -0.0000 0.0515 0.9987
vn 0.8280 0.2640 0.4948
vn 0.7737 0.4333 -0.4623
vn -0.0000 0.1221 -0.9925
vn -0.8723 0.4213 -0.2482
vn -0.7737 0.4333 0.4623
vn -0.0000 0.1221 0.9925
vn 0.8723 0.4213 0.2482
vn 0.8226 0.5182 -0.2341
vn -0.0000 0.2389 -0.9710
vn -0.0000 0.2389 -0.9711
vn -0.8680 0.4739 -0.1482
vn -0.8226 0.5182 0.2341
vn -0.0000 0.2389 0.9710
vn 0.8680 0.4739 0.1482
vn -0.0000 -1.0000 -0.0000
vn -0.0000 1.0000 -0.0000
vn 0.7604 -0.0204 -0.6491
vn -0.7539 -0.0253 -0.6565
vn -0.7604 -0.0204 0.6491
vn 0.7539 -0.0253 0.6565
vn 0.7538 0.0078 -0.6570
vn -0.7541 0.0077 -0.6567
vn -0.7538 0.0078 0.6570
vn 0.7541 0.0077 0.6567
vn 0.6726 0.4993 -0.5462
vn -0.6460 0.5155 -0.5630
vn -0.6726 0.4993 0.5462
vn 0.6460 0.5155 0.5630
vn 0.8280 0.2640 -0.4948
vn -0.7477 0.2692 -0.6071
vn -0.8280 0.2640 0.4948
vn 0.7477 0.2692 0.6071
vn 0.8723 0.4213 -0.2482
vn -0.7737 0.4333 -0.4623
vn -0.8723 0.4213 0.2482
vn 0.7737 0.4333 0.4623
vn 0.8680 0.4739 -0.1482
vn -0.8226 0.5182 -0.2341
vn -0.8680 0.4739 0.1482
vn 0.8226 0.5182 0.2341
vt 0.920000 0.195122
vt 0.842720 0.256098
vt 0.928400 0.256098
vt 0.836000 0.195122
vt 0.697064 0.256098
vt 0.693200 0.195122
vt 0.657651 0.256098
vt 0.345440 0.195122
vt 0.654560 0.195122
vt 0.306800 0.195122
vt 0.342349 0.256098
vt 0.164000 0.195122
vt 0.302936 0.256098
vt 0.080000 0.195122
vt 0.157280 0.256098
vt 0.071600 0.256098
vt 0.907400 0.756098
vt 0.825920 0.756098
vt 0.687404 0.756098
vt 0.649923 0.756098
vt 0.312596 0.756098
vt 0.350077 0.756098
vt 0.174080 0.756098
vt 0.092600 0.756098
vt 0.827600 0.780488
vt 0.762080 0.780488
vt 0.650696 0.780488
vt 0.620557 0.780488
vt 0.349304 0.780488
vt 0.379443 0.780488
vt 0.237920 0.780488
vt 0.172400 0.780488
vt 0.676400 0.882927
vt 0.641120 0.882927
vt 0.581144 0.882927
vt 0.564915 0.882927
vt 0.418856 0.882927
vt 0.435085 0.882927
vt 0.358880 0.882927
vt 0.323600 0.882927
vt 0.542000 0.941463
vt 0.533600 0.941463
vt 0.519320 0.941463
vt 0.515456 0.941463
vt 0.480680 0.941463
vt 0.484544 0.941463
vt 0.466400 0.941463
vt 0.458000 0.941463
vt 0.516800 0.951219
vt 0.513440 0.951219
vt 0.507728 0.951219
vt 0.506182 0.951219
vt 0.492272 0.951219
vt 0.493818 0.951219
vt 0.486560 0.951219
vt 0.483200 0.951219
s 0
g A_Blade.001_iron_knife_blade
usemtl iron_knife_blade
f 1/1/1 16/2/1 15/3/1
f 2/4/2 17/5/2 16/2/2
f 3/6/2 18/7/2 17/5/2
f 5/8/2 18/7/2 4/9/2
f 6/10/2 19/11/2 5/8/2
f 7/12/2 20/13/2 6/10/2
f 8/14/3 21/15/3 7/12/3
f 8/14/4 23/15/4 22/16/4
f 9/12/5 24/13/5 23/15/5
f 10/10/5 25/11/5 24/13/5
f 12/9/5 25/11/5 11/8/5
f 13/6/5 26/7/5 12/9/5
f 14/4/5 27/5/5 13/6/5
f 1/1/6 28/2/6 14/4/6
f 16/2/7 29/17/7 15/3/7
f 17/5/8 30/18/8 16/2/8
f 18/7/8 31/19/8 17/5/8
f 19/11/8 32/20/8 18/7/8
f 19/11/8 34/21/8 33/22/8
f 20/13/8 35/23/8 34/21/8
f 21/15/9 36/24/9 35/23/9
f 23/15/10 36/24/10 22/16/10
f 24/13/11 37/23/11 23/15/11
f 25/11/11 38/21/11 24/13/11
f 26/7/11 39/22/11 25/11/11
f 26/7/11 41/19/11 40/20/11
f 27/5/11 42/18/11 41/19/11
f 28/2/12 29/17/12 42/18/12
f 30/18/13 43/25/13 29/17/13
f 31/19/14 44/26/14 30/18/14
f 32/20/14 45/27/14 31/19/14
f 33/22/14 46/28/14 32/20/14
f 33/22/14 48/29/14 47/30/14
f 34/21/14 49/31/14 48/29/14
f 35/23/15 50/32/15 49/31/15
f 37/23/16 50/32/16 36/24/16
f 38/21/17 51/31/17 37/23/17
f 39/22/17 52/29/17 38/21/17
f 40/20/17 53/30/17 39/22/17
f 40/20/17 55/27/17 54/28/17
f 41/19/17 56/26/17 55/27/17
f 42/18/18 43/25/18 56/26/18
f 44/26/19 57/33/19 43/25/19
f 45/27/20 58/34/20 44/26/20
f 46/28/20 59/35/20 45/27/20
f 47/30/20 60/36/20 46/28/20
f 47/30/20 62/37/20 61/38/20
f 48/29/20 63/39/20 62/37/20
f 49/31/21 64/40/21 63/39/21
f 51/31/22 64/40/22 50/32/22
f 52/29/23 65/39/23 51/31/23
f 53/30/23 66/37/23 52/29/23
f 54/28/23 67/38/23 53/30/23
f 54/28/23 69/35/23 68/36/23
f 55/27/23 70/34/23 69/35/23
f 56/26/24 57/33/24 70/34/24
f 58/34/25 71/41/25 57/33/25
f 59/35/26 72/42/26 58/34/26
f 60/36/26 73/43/26 59/35/26
f 61/38/26 74/44/26 60/36/26
f 61/38/26 76/45/26 75/46/26
f 62/37/26 77/47/26 76/45/26
f 63/39/27 78/48/27 77/47/27
f 65/39/28 78/48/28 64/40/28
f 66/37/29 79/47/29 65/39/29
f 67/38/29 80/45/29 66/37/29
f 68/36/29 81/46/29 67/38/29
f 68/36/29 83/43/29 82/44/29
f 69/35/29 84/42/29 83/43/29
f 70/34/30 71/41/30 84/42/30
f 72/42/31 85/49/31 71/41/31
f 73/43/32 86/50/32 72/42/32
f 74/44/32 87/51/32 73/43/32
f 75/46/32 88/52/32 74/44/32
f 75/46/33 90/53/33 89/54/33
f 76/45/32 91/55/32 90/53/32
f 77/47/34 92/56/34 91/55/34
f 79/47/35 92/56/35 78/48/35
f 80/45/36 93/55/36 79/47/36
f 81/46/36 94/53/36 80/45/36
f 82/44/36 95/54/36 81/46/36
f 82/44/36 97/51/36 96/52/36
f 83/43/36 98/50/36 97/51/36
f 84/42/37 85/49/37 98/50/37
f 8/14/38 6/10/38 1/1/38
f 90/53/39 92/56/39 94/53/39
f 1/1/40 2/4/40 16/2/40
f 2/4/2 3/6/2 17/5/2
f 3/6/2 4/9/2 18/7/2
f 5/8/2 19/11/2 18/7/2
f 6/10/2 20/13/2 19/11/2
f 7/12/2 21/15/2 20/13/2
f 8/14/41 22/16/41 21/15/41
f 8/14/42 9/12/42 23/15/42
f 9/12/5 10/10/5 24/13/5
f 10/10/5 11/8/5 25/11/5
f 12/9/5 26/7/5 25/11/5
f 13/6/5 27/5/5 26/7/5
f 14/4/5 28/2/5 27/5/5
f 1/1/43 15/3/43 28/2/43
f 16/2/44 30/18/44 29/17/44
f 17/5/8 31/19/8 30/18/8
f 18/7/8 32/20/8 31/19/8
f 19/11/8 33/22/8 32/20/8
f 19/11/8 20/13/8 34/21/8
f 20/13/8 21/15/8 35/23/8
f 21/15/45 22/16/45 36/24/45
f 23/15/46 37/23/46 36/24/46
f 24/13/11 38/21/11 37/23/11
f 25/11/11 39/22/11 38/21/11
f 26/7/11 40/20/11 39/22/11
f 26/7/11 27/5/11 41/19/11
f 27/5/11 28/2/11 42/18/11
f 28/2/47 15/3/47 29/17/47
f 30/18/48 44/26/48 43/25/48
f 31/19/14 45/27/14 44/26/14
f 32/20/14 46/28/14 45/27/14
f 33/22/14 47/30/14 46/28/14
f 33/22/14 34/21/14 48/29/14
f 34/21/14 35/23/14 49/31/14
f 35/23/49 36/24/49 50/32/49
f 37/23/50 51/31/50 50/32/50
f 38/21/17 52/29/17 51/31/17
f 39/22/17 53/30/17 52/29/17
f 40/20/17 54/28/17 53/30/17
f 40/20/17 41/19/17 55/27/17
f 41/19/17 42/18/17 56/26/17
f 42/18/51 29/17/51 43/25/51
f 44/26/52 58/34/52 57/33/52
f 45/27/20 59/35/20 58/34/20
f 46/28/20 60/36/20 59/35/20
f 47/30/20 61/38/20 60/36/20
f 47/30/20 48/29/20 62/37/20
f 48/29/20 49/31/20 63/39/20
f 49/31/53 50/32/53 64/40/53
f 51/31/54 65/39/54 64/40/54
f 52/29/23 66/37/23 65/39/23
f 53/30/23 67/38/23 66/37/23
f 54/28/23 68/36/23 67/38/23
f 54/28/23 55/27/23 69/35/23
f 55/27/23 56/26/23 70/34/23
f 56/26/55 43/25/55 57/33/55
f 58/34/56 72/42/56 71/41/56
f 59/35/26 73/43/26 72/42/26
f 60/36/26 74/44/26 73/43/26
f 61/38/26 75/46/26 74/44/26
f 61/38/26 62/37/26 76/45/26
f 62/37/26 63/39/26 77/47/26
f 63/39/57 64/40/57 78/48/57
f 65/39/58 79/47/58 78/48/58
f 66/37/29 80/45/29 79/47/29
f 67/38/29 81/46/29 80/45/29
f 68/36/29 82/44/29 81/46/29
f 68/36/29 69/35/29 83/43/29
f 69/35/29 70/34/29 84/42/29
f 70/34/59 57/33/59 71/41/59
f 72/42/60 86/50/60 85/49/60
f 73/43/32 87/51/32 86/50/32
f 74/44/33 88/52/33 87/51/33
f 75/46/32 89/54/32 88/52/32
f 75/46/32 76/45/32 90/53/32
f 76/45/32 77/47/32 91/55/32
f 77/47/61 78/48/61 92/56/61
f 79/47/62 93/55/62 92/56/62
f 80/45/36 94/53/36 93/55/36
f 81/46/36 95/54/36 94/53/36
f 82/44/36 96/52/36 95/54/36
f 82/44/36 83/43/36 97/51/36
f 83/43/36 84/42/36 98/50/36
f 84/42/63 71/41/63 85/49/63
f 1/1/38 14/4/38 13/6/38
f 1/1/38 13/6/38 12/9/38
f 3/6/38 2/4/38 1/1/38
f 4/9/38 3/6/38 1/1/38
f 1/1/38 12/9/38 11/8/38
f 10/10/38 9/12/38 8/14/38
f 1/1/38 11/8/38 10/10/38
f 5/8/38 4/9/38 1/1/38
f 8/14/38 7/12/38 6/10/38
f 6/10/38 5/8/38 1/1/38
f 1/1/38 10/10/38 8/14/38
f 98/50/39 85/49/39 86/50/39
f 98/50/39 86/50/39 87/51/39
f 97/51/39 98/50/39 87/51/39
f 97/51/39 87/51/39 88/52/39
f 96/52/39 97/51/39 88/52/39
f 96/52/39 88/52/39 89/54/39
f 95/54/39 96/52/39 89/54/39
f 90/53/39 91/55/39 92/56/39
f 95/54/39 89/54/39 90/53/39
f 92/56/39 93/55/39 94/53/39
f 94/53/39 95/54/39 90/53/39
g B_Collar.001_B_Collar.001
v 0.000000 0.240000 0.000000
v 0.130000 0.240000 0.000000
v 0.091924 0.240000 -0.091924
v 0.000000 0.240000 -0.130000
v -0.091924 0.240000 -0.091924
v -0.130000 0.240000 -0.000000
v -0.091924 0.240000 0.091924
v -0.000000 0.240000 0.130000
v 0.091924 0.240000 0.091924
v 0.120000 0.420000 0.000000
v 0.084853 0.420000 -0.084853
v 0.000000 0.420000 -0.120000
v -0.084853 0.420000 -0.084853
v -0.120000 0.420000 -0.000000
v -0.084853 0.420000 0.084853
v -0.000000 0.420000 0.120000
v 0.084853 0.420000 0.084853
v 0.000000 0.420000 0.000000
vn -0.0000 -1.0000 -0.0000
vn 0.9227 0.0513 -0.3822
vn 0.3822 0.0513 -0.9227
vn -0.3822 0.0513 -0.9227
vn -0.9227 0.0513 -0.3822
vn -0.9227 0.0513 0.3822
vn -0.3822 0.0513 0.9227
vn 0.3822 0.0513 0.9227
vn 0.9227 0.0513 0.3822
vn -0.0000 1.0000 -0.0000
s 0
g B_Collar.001_iron_knife_fittings
usemtl iron_knife_fittings
f 99//64 101//64 100//64
f 99//64 102//64 101//64
f 99//64 103//64 102//64
f 99//64 104//64 103//64
f 99//64 105//64 104//64
f 99//64 106//64 105//64
f 99//64 107//64 106//64
f 99//64 100//64 107//64
f 101//65 108//65 100//65
f 102//66 109//66 101//66
f 103//67 110//67 102//67
f 104//68 111//68 103//68
f 105//69 112//69 104//69
f 106//70 113//70 105//70
f 107//71 114//71 106//71
f 100//72 115//72 107//72
f 108//73 109//73 116//73
f 109//73 110//73 116//73
f 110//73 111//73 116//73
f 111//73 112//73 116//73
f 112//73 113//73 116//73
f 113//73 114//73 116//73
f 114//73 115//73 116//73
f 115//73 108//73 116//73
f 101//65 109//65 108//65
f 102//66 110//66 109//66
f 103//67 111//67 110//67
f 104//68 112//68 111//68
f 105//69 113//69 112//69
f 106//70 114//70 113//70
f 107//71 115//71 114//71
f 100//72 108//72 115//72
g B_Guard.001_B_Guard.001
v -0.550000 0.440000 -0.075000
v 0.550000 0.440000 -0.075000
v 0.560000 0.260000 -0.075000
v -0.560000 0.260000 -0.075000
v -0.550000 0.440000 0.075000
v 0.550000 0.440000 0.075000
v 0.560000 0.260000 0.075000
v -0.560000 0.260000 0.075000
vn -0.0000 -0.0000 -1.0000
vn -0.0000 -0.0000 1.0000
vn -0.9985 0.0555 -0.0000
vn -0.0000 1.0000 -0.0000
vn 0.9985 0.0555 -0.0000
vn -0.0000 -1.0000 -0.0000
s 0
g B_Guard.001_iron_knife_fittings
usemtl iron_knife_fittings
f 118//74 120//74 117//74
f 121//75 123//75 122//75
f 120//76 121//76 117//76
f 117//77 122//77 118//77
f 118//78 123//78 119//78
f 119//79 124//79 120//79
f 118//74 119//74 120//74
f 121//75 124//75 123//75
f 120//76 124//76 121//76
f 117//77 121//77 122//77
f 118//78 122//78 123//78
f 119//79 123//79 124//79
g C_Grip.001_C_Grip.001
v 0.000000 -0.950000 0.000000
v 0.070000 -0.950000 0.000000
v 0.049497 -0.950000 -0.049497
v 0.000000 -0.950000 -0.070000
v -0.049497 -0.950000 -0.049497
v -0.070000 -0.950000 -0.000000
v -0.049497 -0.950000 0.049497
v -0.000000 -0.950000 0.070000
v 0.049497 -0.950000 0.049497
v 0.072000 -0.900000 0.000000
v 0.050912 -0.900000 -0.050912
v 0.000000 -0.900000 -0.072000
v -0.050912 -0.900000 -0.050912
v -0.072000 -0.900000 -0.000000
v -0.050912 -0.900000 0.050912
v -0.000000 -0.900000 0.072000
v 0.050912 -0.900000 0.050912
v 0.085000 -0.870000 0.000000
v 0.060104 -0.870000 -0.060104
v 0.000000 -0.870000 -0.085000
v -0.060104 -0.870000 -0.060104
v -0.085000 -0.870000 -0.000000
v -0.060104 -0.870000 0.060104
v -0.000000 -0.870000 0.085000
v 0.060104 -0.870000 0.060104
v 0.072000 -0.840000 0.000000
v 0.050912 -0.840000 -0.050912
v 0.000000 -0.840000 -0.072000
v -0.050912 -0.840000 -0.050912
v -0.072000 -0.840000 -0.000000
v -0.050912 -0.840000 0.050912
v -0.000000 -0.840000 0.072000
v 0.050912 -0.840000 0.050912
v 0.072000 -0.810000 0.000000
v 0.050912 -0.810000 -0.050912
v 0.000000 -0.810000 -0.072000
v -0.050912 -0.810000 -0.050912
v -0.072000 -0.810000 -0.000000
v -0.050912 -0.810000 0.050912
v -0.000000 -0.810000 0.072000
v 0.050912 -0.810000 0.050912
v 0.085000 -0.780000 0.000000
v 0.060104 -0.780000 -0.060104
v 0.000000 -0.780000 -0.085000
v -0.060104 -0.780000 -0.060104
v -0.085000 -0.780000 -0.000000
v -0.060104 -0.780000 0.060104
v -0.000000 -0.780000 0.085000
v 0.060104 -0.780000 0.060104
v 0.072000 -0.750000 0.000000
v 0.050912 -0.750000 -0.050912
v 0.000000 -0.750000 -0.072000
v -0.050912 -0.750000 -0.050912
v -0.072000 -0.750000 -0.000000
v -0.050912 -0.750000 0.050912
v -0.000000 -0.750000 0.072000
v 0.050912 -0.750000 0.050912
v 0.072000 -0.720000 0.000000
v 0.050912 -0.720000 -0.050912
v 0.000000 -0.720000 -0.072000
v -0.050912 -0.720000 -0.050912
v -0.072000 -0.720000 -0.000000
v -0.050912 -0.720000 0.050912
v -0.000000 -0.720000 0.072000
v 0.050912 -0.720000 0.050912
v 0.085000 -0.690000 0.000000
v 0.060104 -0.690000 -0.060104
v 0.000000 -0.690000 -0.085000
v -0.060104 -0.690000 -0.060104
v -0.085000 -0.690000 -0.000000
v -0.060104 -0.690000 0.060104
v -0.000000 -0.690000 0.085000
v 0.060104 -0.690000 0.060104
v 0.072000 -0.660000 0.000000
v 0.050912 -0.660000 -0.050912
v 0.000000 -0.660000 -0.072000
v -0.050912 -0.660000 -0.050912
v -0.072000 -0.660000 -0.000000
v -0.050912 -0.660000 0.050912
v -0.000000 -0.660000 0.072000
v 0.050912 -0.660000 0.050912
v 0.072000 -0.630000 0.000000
v 0.050912 -0.630000 -0.050912
v 0.000000 -0.630000 -0.072000
v -0.050912 -0.630000 -0.050912
v -0.072000 -0.630000 -0.000000
v -0.050912 -0.630000 0.050912
v -0.000000 -0.630000 0.072000
v 0.050912 -0.630000 0.050912
v 0.085000 -0.600000 0.000000
v 0.060104 -0.600000 -0.060104
v 0.000000 -0.600000 -0.085000
v -0.060104 -0.600000 -0.060104
v -0.085000 -0.600000 -0.000000
v -0.060104 -0.600000 0.060104
v -0.000000 -0.600000 0.085000
v 0.060104 -0.600000 0.060104
v 0.072000 -0.570000 0.000000
v 0.050912 -0.570000 -0.050912
v 0.000000 -0.570000 -0.072000
v -0.050912 -0.570000 -0.050912
v -0.072000 -0.570000 -0.000000
v -0.050912 -0.570000 0.050912
v -0.000000 -0.570000 0.072000
v 0.050912 -0.570000 0.050912
v 0.072000 -0.540000 0.000000
v 0.050912 -0.540000 -0.050912
v 0.000000 -0.540000 -0.072000
v -0.050912 -0.540000 -0.050912
v -0.072000 -0.540000 -0.000000
v -0.050912 -0.540000 0.050912
v -0.000000 -0.540000 0.072000
v 0.050912 -0.540000 0.050912
v 0.085000 -0.510000 0.000000
v 0.060104 -0.510000 -0.060104
v 0.000000 -0.510000 -0.085000
v -0.060104 -0.510000 -0.060104
v -0.085000 -0.510000 -0.000000
v -0.060104 -0.510000 0.060104
v -0.000000 -0.510000 0.085000
v 0.060104 -0.510000 0.060104
v 0.072000 -0.480000 0.000000
v 0.050912 -0.480000 -0.050912
v 0.000000 -0.480000 -0.072000
v -0.050912 -0.480000 -0.050912
v -0.072000 -0.480000 -0.000000
v -0.050912 -0.480000 0.050912
v -0.000000 -0.480000 0.072000
v 0.050912 -0.480000 0.050912
v 0.072000 -0.450000 0.000000
v 0.050912 -0.450000 -0.050912
v 0.000000 -0.450000 -0.072000
v -0.050912 -0.450000 -0.050912
v -0.072000 -0.450000 -0.000000
v -0.050912 -0.450000 0.050912
v -0.000000 -0.450000 0.072000
v 0.050912 -0.450000 0.050912
v 0.085000 -0.420000 0.000000
v 0.060104 -0.420000 -0.060104
v 0.000000 -0.420000 -0.085000
v -0.060104 -0.420000 -0.060104
v -0.085000 -0.420000 -0.000000
v -0.060104 -0.420000 0.060104
v -0.000000 -0.420000 0.085000
v 0.060104 -0.420000 0.060104
v 0.072000 -0.390000 0.000000
v 0.050912 -0.390000 -0.050912
v 0.000000 -0.390000 -0.072000
v -0.050912 -0.390000 -0.050912
v -0.072000 -0.390000 -0.000000
v -0.050912 -0.390000 0.050912
v -0.000000 -0.390000 0.072000
v 0.050912 -0.390000 0.050912
v 0.072000 -0.360000 0.000000
v 0.050912 -0.360000 -0.050912
v 0.000000 -0.360000 -0.072000
v -0.050912 -0.360000 -0.050912
v -0.072000 -0.360000 -0.000000
v -0.050912 -0.360000 0.050912
v -0.000000 -0.360000 0.072000
v 0.050912 -0.360000 0.050912
v 0.085000 -0.330000 0.000000
v 0.060104 -0.330000 -0.060104
v 0.000000 -0.330000 -0.085000
v -0.060104 -0.330000 -0.060104
v -0.085000 -0.330000 -0.000000
v -0.060104 -0.330000 0.060104
v -0.000000 -0.330000 0.085000
v 0.060104 -0.330000 0.060104
v 0.072000 -0.300000 0.000000
v 0.050912 -0.300000 -0.050912
v 0.000000 -0.300000 -0.072000
v -0.050912 -0.300000 -0.050912
v -0.072000 -0.300000 -0.000000
v -0.050912 -0.300000 0.050912
v -0.000000 -0.300000 0.072000
v 0.050912 -0.300000 0.050912
v 0.072000 -0.270000 0.000000
v 0.050912 -0.270000 -0.050912
v 0.000000 -0.270000 -0.072000
v -0.050912 -0.270000 -0.050912
v -0.072000 -0.270000 -0.000000
v -0.050912 -0.270000 0.050912
v -0.000000 -0.270000 0.072000
v 0.050912 -0.270000 0.050912
v 0.085000 -0.240000 0.000000
v 0.060104 -0.240000 -0.060104
v 0.000000 -0.240000 -0.085000
v -0.060104 -0.240000 -0.060104
v -0.085000 -0.240000 -0.000000
v -0.060104 -0.240000 0.060104
v -0.000000 -0.240000 0.085000
v 0.060104 -0.240000 0.060104
v 0.072000 -0.210000 0.000000
v 0.050912 -0.210000 -0.050912
v 0.000000 -0.210000 -0.072000
v -0.050912 -0.210000 -0.050912
v -0.072000 -0.210000 -0.000000
v -0.050912 -0.210000 0.050912
v -0.000000 -0.210000 0.072000
v 0.050912 -0.210000 0.050912
v 0.072000 -0.180000 0.000000
v 0.050912 -0.180000 -0.050912
v 0.000000 -0.180000 -0.072000
v -0.050912 -0.180000 -0.050912
v -0.072000 -0.180000 -0.000000
v -0.050912 -0.180000 0.050912
v -0.000000 -0.180000 0.072000
v 0.050912 -0.180000 0.050912
v 0.085000 -0.150000 0.000000
v 0.060104 -0.150000 -0.060104
v 0.000000 -0.150000 -0.085000
v -0.060104 -0.150000 -0.060104
v -0.085000 -0.150000 -0.000000
v -0.060104 -0.150000 0.060104
v -0.000000 -0.150000 0.085000
v 0.060104 -0.150000 0.060104
v 0.072000 -0.120000 0.000000
v 0.050912 -0.120000 -0.050912
v 0.000000 -0.120000 -0.072000
v -0.050912 -0.120000 -0.050912
v -0.072000 -0.120000 -0.000000
v -0.050912 -0.120000 0.050912
v -0.000000 -0.120000 0.072000
v 0.050912 -0.120000 0.050912
v 0.072000 -0.090000 0.000000
v 0.050912 -0.090000 -0.050912
v 0.000000 -0.090000 -0.072000
v -0.050912 -0.090000 -0.050912
v -0.072000 -0.090000 -0.000000
v -0.050912 -0.090000 0.050912
v -0.000000 -0.090000 0.072000
v 0.050912 -0.090000 0.050912
v 0.085000 -0.060000 0.000000
v 0.060104 -0.060000 -0.060104
v 0.000000 -0.060000 -0.085000
v -0.060104 -0.060000 -0.060104
v -0.085000 -0.060000 -0.000000
v -0.060104 -0.060000 0.060104
v -0.000000 -0.060000 0.085000
v 0.060104 -0.060000 0.060104
v 0.072000 -0.030000 0.000000
v 0.050912 -0.030000 -0.050912
v 0.000000 -0.030000 -0.072000
v -0.050912 -0.030000 -0.050912
v -0.072000 -0.030000 -0.000000
v -0.050912 -0.030000 0.050912
v -0.000000 -0.030000 0.072000
v 0.050912 -0.030000 0.050912
v 0.072000 -0.000000 0.000000
v 0.050912 -0.000000 -0.050912
v 0.000000 -0.000000 -0.072000
v -0.050912 -0.000000 -0.050912
v -0.072000 -0.000000 -0.000000
v -0.050912 -0.000000 0.050912
v -0.000000 -0.000000 0.072000
v 0.050912 -0.000000 0.050912
v 0.085000 0.030000 0.000000
v 0.060104 0.030000 -0.060104
v 0.000000 0.030000 -0.085000
v -0.060104 0.030000 -0.060104
v -0.085000 0.030000 -0.000000
v -0.060104 0.030000 0.060104
v -0.000000 0.030000 0.085000
v 0.060104 0.030000 0.060104
v 0.072000 0.060000 0.000000
v 0.050912 0.060000 -0.050912
v 0.000000 0.060000 -0.072000
v -0.050912 0.060000 -0.050912
v -0.072000 0.060000 -0.000000
v -0.050912 0.060000 0.050912
v -0.000000 0.060000 0.072000
v 0.050912 0.060000 0.050912
v 0.072000 0.090000 0.000000
v 0.050912 0.090000 -0.050912
v 0.000000 0.090000 -0.072000
v -0.050912 0.090000 -0.050912
v -0.072000 0.090000 -0.000000
v -0.050912 0.090000 0.050912
v -0.000000 0.090000 0.072000
v 0.050912 0.090000 0.050912
v 0.085000 0.120000 0.000000
v 0.060104 0.120000 -0.060104
v 0.000000 0.120000 -0.085000
v -0.060104 0.120000 -0.060104
v -0.085000 0.120000 -0.000000
v -0.060104 0.120000 0.060104
v -0.000000 0.120000 0.085000
v 0.060104 0.120000 0.060104
v 0.072000 0.150000 0.000000
v 0.050912 0.150000 -0.050912
v 0.000000 0.150000 -0.072000
v -0.050912 0.150000 -0.050912
v -0.072000 0.150000 -0.000000
v -0.050912 0.150000 0.050912
v -0.000000 0.150000 0.072000
v 0.050912 0.150000 0.050912
v 0.072000 0.180000 0.000000
v 0.050912 0.180000 -0.050912
v 0.000000 0.180000 -0.072000
v -0.050912 0.180000 -0.050912
v -0.072000 0.180000 -0.000000
v -0.050912 0.180000 0.050912
v -0.000000 0.180000 0.072000
v 0.050912 0.180000 0.050912
v 0.085000 0.210000 0.000000
v 0.060104 0.210000 -0.060104
v 0.000000 0.210000 -0.085000
v -0.060104 0.210000 -0.060104
v -0.085000 0.210000 -0.000000
v -0.060104 0.210000 0.060104
v -0.000000 0.210000 0.085000
v 0.060104 0.210000 0.060104
v 0.072000 0.240000 0.000000
v 0.050912 0.240000 -0.050912
v 0.000000 0.240000 -0.072000
v -0.050912 0.240000 -0.050912
v -0.072000 0.240000 -0.000000
v -0.050912 0.240000 0.050912
v -0.000000 0.240000 0.072000
v 0.050912 0.240000 0.050912
v 0.080000 0.260000 0.000000
v 0.056569 0.260000 -0.056569
v 0.000000 0.260000 -0.080000
v -0.056569 0.260000 -0.056569
v -0.080000 0.260000 -0.000000
v -0.056569 0.260000 0.056569
v -0.000000 0.260000 0.080000
v 0.056569 0.260000 0.056569
v 0.000000 0.260000 0.000000
vn -0.0000 -1.0000 -0.0000
vn 0.9232 -0.0369 -0.3824
vn 0.3824 -0.0369 -0.9232
vn -0.3824 -0.0369 -0.9232
vn -0.9232 -0.0369 -0.3824
vn -0.9232 -0.0369 0.3824
vn -0.3824 -0.0369 0.9232
vn 0.3824 -0.0369 0.9232
vn 0.9232 -0.0369 0.3824
vn 0.8577 -0.3717 -0.3553
vn 0.3553 -0.3717 -0.8577
vn -0.3553 -0.3717 -0.8577
vn -0.8577 -0.3717 -0.3553
vn -0.8577 -0.3717 0.3553
vn -0.3553 -0.3717 0.8577
vn 0.3553 -0.3717 0.8577
vn 0.8577 -0.3717 0.3553
vn 0.8577 0.3717 -0.3553
vn 0.3553 0.3717 -0.8577
vn -0.3553 0.3717 -0.8577
vn -0.8577 0.3717 -0.3553
vn -0.8577 0.3717 0.3553
vn -0.3553 0.3717 0.8577
vn 0.3553 0.3717 0.8577
vn 0.8577 0.3717 0.3553
vn 0.9239 -0.0000 -0.3827
vn 0.3827 -0.0000 -0.9239
vn -0.3827 -0.0000 -0.9239
vn -0.9239 -0.0000 -0.3827
vn -0.9239 -0.0000 0.3827
vn -0.3827 -0.0000 0.9239
vn 0.3827 -0.0000 0.9239
vn 0.9239 -0.0000 0.3827
vn 0.8666 -0.3466 -0.3590
vn 0.3590 -0.3466 -0.8666
vn -0.3590 -0.3466 -0.8666
vn -0.8666 -0.3466 -0.3590
vn -0.8666 -0.3466 0.3590
vn -0.3590 -0.3466 0.8666
vn 0.3590 -0.3466 0.8666
vn 0.8666 -0.3466 0.3590
vn -0.0000 1.0000 -0.0000
s 0
g C_Grip.001_iron_knife_grip
usemtl iron_knife_grip
f 125//80 127//80 126//80
f 125//80 128//80 127//80
f 125//80 129//80 128//80
f 125//80 130//80 129//80
f 125//80 131//80 130//80
f 125//80 132//80 131//80
f 125//80 133//80 132//80
f 125//80 126//80 133//80
f 126//81 135//81 134//81
f 127//82 136//82 135//82
f 128//83 137//83 136//83
f 129//84 138//84 137//84
f 130//85 139//85 138//85
f 131//86 140//86 139//86
f 132//87 141//87 140//87
f 133//88 134//88 141//88
f 135//89 142//89 134//89
f 136//90 143//90 135//90
f 137//91 144//91 136//91
f 138//92 145//92 137//92
f 139//93 146//93 138//93
f 140//94 147//94 139//94
f 141//95 148//95 140//95
f 134//96 149//96 141//96
f 142//97 151//97 150//97
f 143//98 152//98 151//98
f 144//99 153//99 152//99
f 145//100 154//100 153//100
f 146//101 155//101 154//101
f 147//102 156//102 155//102
f 148//103 157//103 156//103
f 149//104 150//104 157//104
f 151//105 158//105 150//105
f 152//106 159//106 151//106
f 153//107 160//107 152//107
f 154//108 161//108 153//108
f 155//109 162//109 154//109
f 156//110 163//110 155//110
f 157//111 164//111 156//111
f 150//112 165//112 157//112
f 158//89 167//89 166//89
f 160//90 167//90 159//90
f 160//91 169//91 168//91
f 162//92 169//92 161//92
f 162//93 171//93 170//93
f 164//94 171//94 163//94
f 164//95 173//95 172//95
f 158//96 173//96 165//96
f 167//97 174//97 166//97
f 168//98 175//98 167//98
f 169//99 176//99 168//99
f 170//100 177//100 169//100
f 171//101 178//101 170//101
f 172//102 179//102 171//102
f 173//103 180//103 172//103
f 166//104 181//104 173//104
f 175//105 182//105 174//105
f 176//106 183//106 175//106
f 177//107 184//107 176//107
f 178//108 185//108 177//108
f 179//109 186//109 178//109
f 180//110 187//110 179//110
f 181//111 188//111 180//111
f 174//112 189//112 181//112
f 183//89 190//89 182//89
f 184//90 191//90 183//90
f 185//91 192//91 184//91
f 186//92 193//92 185//92
f 187//93 194//93 186//93
f 188//94 195//94 187//94
f 189//95 196//95 188//95
f 182//96 197//96 189//96
f 191//97 198//97 190//97
f 192//98 199//98 191//98
f 193//99 200//99 192//99
f 194//100 201//100 193//100
f 195//101 202//101 194//101
f 196//102 203//102 195//102
f 197//103 204//103 196//103
f 190//104 205//104 197//104
f 199//105 206//105 198//105
f 200//106 207//106 199//106
f 201//107 208//107 200//107
f 202//108 209//108 201//108
f 203//109 210//109 202//109
f 204//110 211//110 203//110
f 205//111 212//111 204//111
f 198//112 213//112 205//112
f 207//89 214//89 206//89
f 208//90 215//90 207//90
f 209//91 216//91 208//91
f 210//92 217//92 209//92
f 211//93 218//93 210//93
f 212//94 219//94 211//94
f 213//95 220//95 212//95
f 206//96 221//96 213//96
f 215//97 222//97 214//97
f 215//98 224//98 223//98
f 217//99 224//99 216//99
f 217//100 226//100 225//100
f 219//101 226//101 218//101
f 219//102 228//102 227//102
f 221//103 228//103 220//103
f 221//104 222//104 229//104
f 223//105 230//105 222//105
f 224//106 231//106 223//106
f 225//107 232//107 224//107
f 226//108 233//108 225//108
f 227//109 234//109 226//109
f 228//110 235//110 227//110
f 229//111 236//111 228//111
f 222//112 237//112 229//112
f 231//89 238//89 230//89
f 231//90 240//90 239//90
f 233//91 240//91 232//91
f 233//92 242//92 241//92
f 235//93 242//93 234//93
f 235//94 244//94 243//94
f 237//95 244//95 236//95
f 237//96 238//96 245//96
f 239//97 246//97 238//97
f 240//98 247//98 239//98
f 241//99 248//99 240//99
f 242//100 249//100 241//100
f 243//101 250//101 242//101
f 244//102 251//102 243//102
f 245//103 252//103 244//103
f 238//104 253//104 245//104
f 247//105 254//105 246//105
f 248//106 255//106 247//106
f 249//107 256//107 248//107
f 250//108 257//108 249//108
f 251//109 258//109 250//109
f 252//110 259//110 251//110
f 253//111 260//111 252//111
f 246//112 261//112 253//112
f 255//89 262//89 254//89
f 256//90 263//90 255//90
f 257//91 264//91 256//91
f 258//92 265//92 257//92
f 259//93 266//93 258//93
f 260//94 267//94 259//94
f 261//95 268//95 260//95
f 254//96 269//96 261//96
f 263//97 270//97 262//97
f 264//98 271//98 263//98
f 265//99 272//99 264//99
f 266//100 273//100 265//100
f 267//101 274//101 266//101
f 268//102 275//102 267//102
f 269//103 276//103 268//103
f 262//104 277//104 269//104
f 271//105 278//105 270//105
f 272//106 279//106 271//106
f 273//107 280//107 272//107
f 274//108 281//108 273//108
f 275//109 282//109 274//109
f 276//110 283//110 275//110
f 277//111 284//111 276//111
f 270//112 285//112 277//112
f 279//89 286//89 278//89
f 280//90 287//90 279//90
f 281//91 288//91 280//91
f 282//92 289//92 281//92
f 283//93 290//93 282//93
f 284//94 291//94 283//94
f 285//95 292//95 284//95
f 278//96 293//96 285//96
f 287//97 294//97 286//97
f 288//98 295//98 287//98
f 289//99 296//99 288//99
f 290//100 297//100 289//100
f 291//101 298//101 290//101
f 292//102 299//102 291//102
f 293//103 300//103 292//103
f 286//104 301//104 293//104
f 295//105 302//105 294//105
f 296//106 303//106 295//106
f 297//107 304//107 296//107
f 298//108 305//108 297//108
f 299//109 306//109 298//109
f 300//110 307//110 299//110
f 301//111 308//111 300//111
f 294//112 309//112 301//112
f 303//89 310//89 302//89
f 304//90 311//90 303//90
f 305//91 312//91 304//91
f 306//92 313//92 305//92
f 307//93 314//93 306//93
f 308//94 315//94 307//94
f 309//95 316//95 308//95
f 302//96 317//96 309//96
f 311//97 318//97 310//97
f 312//98 319//98 311//98
f 313//99 320//99 312//99
f 314//100 321//100 313//100
f 315//101 322//101 314//101
f 316//102 323//102 315//102
f 317//103 324//103 316//103
f 310//104 325//104 317//104
f 319//105 326//105 318//105
f 320//106 327//106 319//106
f 321//107 328//107 320//107
f 322//108 329//108 321//108
f 323//109 330//109 322//109
f 324//110 331//110 323//110
f 325//111 332//111 324//111
f 318//112 333//112 325//112
f 327//89 334//89 326//89
f 328//90 335//90 327//90
f 329//91 336//91 328//91
f 330//92 337//92 329//92
f 331//93 338//93 330//93
f 332//94 339//94 331//94
f 333//95 340//95 332//95
f 326//96 341//96 333//96
f 335//97 342//97 334//97
f 336//98 343//98 335//98
f 337//99 344//99 336//99
f 338//100 345//100 337//100
f 339//101 346//101 338//101
f 340//102 347//102 339//102
f 341//103 348//103 340//103
f 334//104 349//104 341//104
f 343//105 350//105 342//105
f 344//106 351//106 343//106
f 345//107 352//107 344//107
f 346//108 353//108 345//108
f 347//109 354//109 346//109
f 348//110 355//110 347//110
f 349//111 356//111 348//111
f 342//112 357//112 349//112
f 351//89 358//89 350//89
f 352//90 359//90 351//90
f 353//91 360//91 352//91
f 354//92 361//92 353//92
f 355//93 362//93 354//93
f 356//94 363//94 355//94
f 357//95 364//95 356//95
f 350//96 365//96 357//96
f 359//97 366//97 358//97
f 360//98 367//98 359//98
f 361//99 368//99 360//99
f 362//100 369//100 361//100
f 363//101 370//101 362//101
f 364//102 371//102 363//102
f 365//103 372//103 364//103
f 358//104 373//104 365//104
f 367//105 374//105 366//105
f 368//106 375//106 367//106
f 369//107 376//107 368//107
f 370//108 377//108 369//108
f 371//109 378//109 370//109
f 372//110 379//110 371//110
f 373//111 380//111 372//111
f 366//112 381//112 373//112
f 375//89 382//89 374//89
f 376//90 383//90 375//90
f 377//91 384//91 376//91
f 378//92 385//92 377//92
f 379//93 386//93 378//93
f 380//94 387//94 379//94
f 381//95 388//95 380//95
f 374//96 389//96 381//96
f 383//97 390//97 382//97
f 384//98 391//98 383//98
f 385//99 392//99 384//99
f 386//100 393//100 385//100
f 387//101 394//101 386//101
f 388//102 395//102 387//102
f 389//103 396//103 388//103
f 382//104 397//104 389//104
f 391//105 398//105 390//105
f 392//106 399//106 391//106
f 393//107 400//107 392//107
f 394//108 401//108 393//108
f 395//109 402//109 394//109
f 396//110 403//110 395//110
f 397//111 404//111 396//111
f 390//112 405//112 397//112
f 399//89 406//89 398//89
f 400//90 407//90 399//90
f 401//91 408//91 400//91
f 402//92 409//92 401//92
f 403//93 410//93 402//93
f 404//94 411//94 403//94
f 405//95 412//95 404//95
f 398//96 413//96 405//96
f 407//97 414//97 406//97
f 408//98 415//98 407//98
f 409//99 416//99 408//99
f 410//100 417//100 409//100
f 411//101 418//101 410//101
f 412//102 419//102 411//102
f 413//103 420//103 412//103
f 406//104 421//104 413//104
f 415//105 422//105 414//105
f 416//106 423//106 415//106
f 417//107 424//107 416//107
f 418//108 425//108 417//108
f 419//109 426//109 418//109
f 420//110 427//110 419//110
f 421//111 428//111 420//111
f 414//112 429//112 421//112
f 422//89 431//89 430//89
f 423//90 432//90 431//90
f 424//91 433//91 432//91
f 425//92 434//92 433//92
f 426//93 435//93 434//93
f 427//94 436//94 435//94
f 428//95 437//95 436//95
f 429//96 430//96 437//96
f 431//97 438//97 430//97
f 432//98 439//98 431//98
f 433//99 440//99 432//99
f 434//100 441//100 433//100
f 435//101 442//101 434//101
f 436//102 443//102 435//102
f 437//103 444//103 436//103
f 430//104 445//104 437//104
f 439//113 446//113 438//113
f 440//114 447//114 439//114
f 441//115 448//115 440//115
f 442//116 449//116 441//116
f 443//117 450//117 442//117
f 444//118 451//118 443//118
f 445//119 452//119 444//119
f 438//120 453//120 445//120
f 446//121 447//121 454//121
f 447//121 448//121 454//121
f 448//121 449//121 454//121
f 449//121 450//121 454//121
f 450//121 451//121 454//121
f 451//121 452//121 454//121
f 452//121 453//121 454//121
f 453//121 446//121 454//121
f 126//81 127//81 135//81
f 127//82 128//82 136//82
f 128//83 129//83 137//83
f 129//84 130//84 138//84
f 130//85 131//85 139//85
f 131//86 132//86 140//86
f 132//87 133//87 141//87
f 133//88 126//88 134//88
f 135//89 143//89 142//89
f 136//90 144//90 143//90
f 137//91 145//91 144//91
f 138//92 146//92 145//92
f 139//93 147//93 146//93
f 140//94 148//94 147//94
f 141//95 149//95 148//95
f 134//96 142//96 149//96
f 142//97 143//97 151//97
f 143//98 144//98 152//98
f 144//99 145//99 153//99
f 145//100 146//100 154//100
f 146//101 147//101 155//101
f 147//102 148//102 156//102
f 148//103 149//103 157//103
f 149//104 142//104 150//104
f 151//105 159//105 158//105
f 152//106 160//106 159//106
f 153//107 161//107 160//107
f 154//108 162//108 161//108
f 155//109 163//109 162//109
f 156//110 164//110 163//110
f 157//111 165//111 164//111
f 150//112 158//112 165//112
f 158//89 159//89 167//89
f 160//90 168//90 167//90
f 160//91 161//91 169//91
f 162//92 170//92 169//92
f 162//93 163//93 171//93
f 164//94 172//94 171//94
f 164//95 165//95 173//95
f 158//96 166//96 173//96
f 167//97 175//97 174//97
f 168//98 176//98 175//98
f 169//99 177//99 176//99
f 170//100 178//100 177//100
f 171//101 179//101 178//101
f 172//102 180//102 179//102
f 173//103 181//103 180//103
f 166//104 174//104 181//104
f 175//105 183//105 182//105
f 176//106 184//106 183//106
f 177//107 185//107 184//107
f 178//108 186//108 185//108
f 179//109 187//109 186//109
f 180//110 188//110 187//110
f 181//111 189//111 188//111
f 174//112 182//112 189//112
f 183//89 191//89 190//89
f 184//90 192//90 191//90
f 185//91 193//91 192//91
f 186//92 194//92 193//92
f 187//93 195//93 194//93
f 188//94 196//94 195//94
f 189//95 197//95 196//95
f 182//96 190//96 197//96
f 191//97 199//97 198//97
f 192//98 200//98 199//98
f 193//99 201//99 200//99
f 194//100 202//100 201//100
f 195//101 203//101 202//101
f 196//102 204//102 203//102
f 197//103 205//103 204//103
f 190//104 198//104 205//104
f 199//105 207//105 206//105
f 200//106 208//106 207//106
f 201//107 209//107 208//107
f 202//108 210//108 209//108
f 203//109 211//109 210//109
f 204//110 212//110 211//110
f 205//111 213//111 212//111
f 198//112 206//112 213//112
f 207//89 215//89 214//89
f 208//90 216//90 215//90
f 209//91 217//91 216//91
f 210//92 218//92 217//92
f 211//93 219//93 218//93
f 212//94 220//94 219//94
f 213//95 221//95 220//95
f 206//96 214//96 221//96
f 215//97 223//97 222//97
f 215//98 216//98 224//98
f 217//99 225//99 224//99
f 217//100 218//100 226//100
f 219//101 227//101 226//101
f 219//102 220//102 228//102
f 221//103 229//103 228//103
f 221//104 214//104 222//104
f 223//105 231//105 230//105
f 224//106 232//106 231//106
f 225//107 233//107 232//107
f 226//108 234//108 233//108
f 227//109 235//109 234//109
f 228//110 236//110 235//110
f 229//111 237//111 236//111
f 222//112 230//112 237//112
f 231//89 239//89 238//89
f 231//90 232//90 240//90
f 233//91 241//91 240//91
f 233//92 234//92 242//92
f 235//93 243//93 242//93
f 235//94 236//94 244//94
f 237//95 245//95 244//95
f 237//96 230//96 238//96
f 239//97 247//97 246//97
f 240//98 248//98 247//98
f 241//99 249//99 248//99
f 242//100 250//100 249//100
f 243//101 251//101 250//101
f 244//102 252//102 251//102
f 245//103 253//103 252//103
f 238//104 246//104 253//104
f 247//105 255//105 254//105
f 248//106 256//106 255//106
f 249//107 257//107 256//107
f 250//108 258//108 257//108
f 251//109 259//109 258//109
f 252//110 260//110 259//110
f 253//111 261//111 260//111
f 246//112 254//112 261//112
f 255//89 263//89 262//89
f 256//90 264//90 263//90
f 257//91 265//91 264//91
f 258//92 266//92 265//92
f 259//93 267//93 266//93
f 260//94 268//94 267//94
f 261//95 269//95 268//95
f 254//96 262//96 269//96
f 263//97 271//97 270//97
f 264//98 272//98 271//98
f 265//99 273//99 272//99
f 266//100 274//100 273//100
f 267//101 275//101 274//101
f 268//102 276//102 275//102
f 269//103 277//103 276//103
f 262//104 270//104 277//104
f 271//105 279//105 278//105
f 272//106 280//106 279//106
f 273//107 281//107 280//107
f 274//108 282//108 281//108
f 275//109 283//109 282//109
f 276//110 284//110 283//110
f 277//111 285//111 284//111
f 270//112 278//112 285//112
f 279//89 287//89 286//89
f 280//90 288//90 287//90
f 281//91 289//91 288//91
f 282//92 290//92 289//92
f 283//93 291//93 290//93
f 284//94 292//94 291//94
f 285//95 293//95 292//95
f 278//96 286//96 293//96
f 287//97 295//97 294//97
f 288//98 296//98 295//98
f 289//99 297//99 296//99
f 290//100 298//100 297//100
f 291//101 299//101 298//101
f 292//102 300//102 299//102
f 293//103 301//103 300//103
f 286//104 294//104 301//104
f 295//105 303//105 302//105
f 296//106 304//106 303//106
f 297//107 305//107 304//107
f 298//108 306//108 305//108
f 299//109 307//109 306//109
f 300//110 308//110 307//110
f 301//111 309//111 308//111
f 294//112 302//112 309//112
f 303//89 311//89 310//89
f 304//90 312//90 311//90
f 305//91 313//91 312//91
f 306//92 314//92 313//92
f 307//93 315//93 314//93
f 308//94 316//94 315//94
f 309//95 317//95 316//95
f 302//96 310//96 317//96
f 311//97 319//97 318//97
f 312//98 320//98 319//98
f 313//99 321//99 320//99
f 314//100 322//100 321//100
f 315//101 323//101 322//101
f 316//102 324//102 323//102
f 317//103 325//103 324//103
f 310//104 318//104 325//104
f 319//105 327//105 326//105
f 320//106 328//106 327//106
f 321//107 329//107 328//107
f 322//108 330//108 329//108
f 323//109 331//109 330//109
f 324//110 332//110 331//110
f 325//111 333//111 332//111
f 318//112 326//112 333//112
f 327//89 335//89 334//89
f 328//90 336//90 335//90
f 329//91 337//91 336//91
f 330//92 338//92 337//92
f 331//93 339//93 338//93
f 332//94 340//94 339//94
f 333//95 341//95 340//95
f 326//96 334//96 341//96
f 335//97 343//97 342//97
f 336//98 344//98 343//98
f 337//99 345//99 344//99
f 338//100 346//100 345//100
f 339//101 347//101 346//101
f 340//102 348//102 347//102
f 341//103 349//103 348//103
f 334//104 342//104 349//104
f 343//105 351//105 350//105
f 344//106 352//106 351//106
f 345//107 353//107 352//107
f 346//108 354//108 353//108
f 347//109 355//109 354//109
f 348//110 356//110 355//110
f 349//111 357//111 356//111
f 342//112 350//112 357//112
f 351//89 359//89 358//89
f 352//90 360//90 359//90
f 353//91 361//91 360//91
f 354//92 362//92 361//92
f 355//93 363//93 362//93
f 356//94 364//94 363//94
f 357//95 365//95 364//95
f 350//96 358//96 365//96
f 359//97 367//97 366//97
f 360//98 368//98 367//98
f 361//99 369//99 368//99
f 362//100 370//100 369//100
f 363//101 371//101 370//101
f 364//102 372//102 371//102
f 365//103 373//103 372//103
f 358//104 366//104 373//104
f 367//105 375//105 374//105
f 368//106 376//106 375//106
f 369//107 377//107 376//107
f 370//108 378//108 377//108
f 371//109 379//109 378//109
f 372//110 380//110 379//110
f 373//111 381//111 380//111
f 366//112 374//112 381//112
f 375//89 383//89 382//89
f 376//90 384//90 383//90
f 377//91 385//91 384//91
f 378//92 386//92 385//92
f 379//93 387//93 386//93
f 380//94 388//94 387//94
f 381//95 389//95 388//95
f 374//96 382//96 389//96
f 383//97 391//97 390//97
f 384//98 392//98 391//98
f 385//99 393//99 392//99
f 386//100 394//100 393//100
f 387//101 395//101 394//101
f 388//102 396//102 395//102
f 389//103 397//103 396//103
f 382//104 390//104 397//104
f 391//105 399//105 398//105
f 392//106 400//106 399//106
f 393//107 401//107 400//107
f 394//108 402//108 401//108
f 395//109 403//109 402//109
f 396//110 404//110 403//110
f 397//111 405//111 404//111
f 390//112 398//112 405//112
f 399//89 407//89 406//89
f 400//90 408//90 407//90
f 401//91 409//91 408//91
f 402//92 410//92 409//92
f 403//93 411//93 410//93
f 404//94 412//94 411//94
f 405//95 413//95 412//95
f 398//96 406//96 413//96
f 407//97 415//97 414//97
f 408//98 416//98 415//98
f 409//99 417//99 416//99
f 410//100 418//100 417//100
f 411//101 419//101 418//101
f 412//102 420//102 419//102
f 413//103 421//103 420//103
f 406//104 414//104 421//104
f 415//105 423//105 422//105
f 416//106 424//106 423//106
f 417//107 425//107 424//107
f 418//108 426//108 425//108
f 419//109 427//109 426//109
f 420//110 428//110 427//110
f 421//111 429//111 428//111
f 414//112 422//112 429//112
f 422//89 423//89 431//89
f 423//90 424//90 432//90
f 424//91 425//91 433//91
f 425//92 426//92 434//92
f 426//93 427//93 435//93
f 427//94 428//94 436//94
f 428//95 429//95 437//95
f 429//96 422//96 430//96
f 431//97 439//97 438//97
f 432//98 440//98 439//98
f 433//99 441//99 440//99
f 434//100 442//100 441//100
f 435//101 443//101 442//101
f 436//102 444//102 443//102
f 437//103 445//103 444//103
f 430//104 438//104 445//104
f 439//113 447//113 446//113
f 440//114 448//114 447//114
f 441//115 449//115 448//115
f 442//116 450//116 449//116
f 443//117 451//117 450//117
f 444//118 452//118 451//118
f 445//119 453//119 452//119
f 438//120 446//120 453//120
g C_Pommel.001_C_Pommel.001
v 0.000000 -1.200000 0.000000
v 0.051303 -1.190954 0.000000
v 0.036277 -1.190954 -0.036277
v 0.000000 -1.190954 -0.051303
v -0.036277 -1.190954 -0.036277
v -0.051303 -1.190954 -0.000000
v -0.036277 -1.190954 0.036277
v -0.000000 -1.190954 0.051303
v 0.036277 -1.190954 0.036277
v 0.122873 -1.136037 0.000000
v 0.086884 -1.136037 -0.086884
v 0.000000 -1.136037 -0.122873
v -0.086884 -1.136037 -0.086884
v -0.122873 -1.136037 -0.000000
v -0.086884 -1.136037 0.086884
v -0.000000 -1.136037 0.122873
v 0.086884 -1.136037 0.086884
v 0.150000 -1.050000 0.000000
v 0.106066 -1.050000 -0.106066
v 0.000000 -1.050000 -0.150000
v -0.106066 -1.050000 -0.106066
v -0.150000 -1.050000 -0.000000
v -0.106066 -1.050000 0.106066
v -0.000000 -1.050000 0.150000
v 0.106066 -1.050000 0.106066
v 0.122873 -0.963964 0.000000
v 0.086884 -0.963964 -0.086884
v 0.000000 -0.963964 -0.122873
v -0.086884 -0.963964 -0.086884
v -0.122873 -0.963964 -0.000000
v -0.086884 -0.963964 0.086884
v -0.000000 -0.963964 0.122873
v 0.086884 -0.963964 0.086884
v 0.051303 -0.909046 0.000000
v 0.036277 -0.909046 -0.036277
v 0.000000 -0.909046 -0.051303
v -0.036277 -0.909046 -0.036277
v -0.051303 -0.909046 -0.000000
v -0.036277 -0.909046 0.036277
v -0.000000 -0.909046 0.051303
v 0.036277 -0.909046 0.036277
v 0.000000 -0.900000 0.000000
vn 0.1732 -0.9823 -0.0717
vn 0.0717 -0.9823 -0.1732
vn -0.0717 -0.9823 -0.1732
vn -0.1732 -0.9823 -0.0717
vn -0.1732 -0.9823 0.0717
vn -0.0717 -0.9823 0.1732
vn 0.0717 -0.9823 0.1732
vn 0.1732 -0.9823 0.0717
vn 0.5903 -0.7693 -0.2445
vn 0.2445 -0.7693 -0.5903
vn -0.2445 -0.7693 -0.5903
vn -0.5903 -0.7693 -0.2445
vn -0.5903 -0.7693 0.2445
vn -0.2445 -0.7693 0.5903
vn 0.2445 -0.7693 0.5903
vn 0.5903 -0.7693 0.2445
vn 0.8870 -0.2797 -0.3674
vn 0.3674 -0.2797 -0.8870
vn -0.3674 -0.2797 -0.8870
vn -0.8870 -0.2797 -0.3674
vn -0.8870 -0.2797 0.3674
vn -0.3674 -0.2797 0.8870
vn 0.3674 -0.2797 0.8870
vn 0.8870 -0.2797 0.3674
vn 0.8870 0.2797 -0.3674
vn 0.3674 0.2797 -0.8870
vn -0.3674 0.2797 -0.8870
vn -0.8870 0.2797 -0.3674
vn -0.8870 0.2797 0.3674
vn -0.3674 0.2797 0.8870
vn 0.3674 0.2797 0.8870
vn 0.8870 0.2797 0.3674
vn 0.5903 0.7693 -0.2445
vn 0.2445 0.7693 -0.5903
vn -0.2445 0.7693 -0.5903
vn -0.5903 0.7693 -0.2445
vn -0.5903 0.7693 0.2445
vn -0.2445 0.7693 0.5903
vn 0.2445 0.7693 0.5903
vn 0.5903 0.7693 0.2445
vn 0.1732 0.9823 -0.0717
vn 0.0717 0.9823 -0.1732
vn -0.0717 0.9823 -0.1732
vn -0.1732 0.9823 -0.0717
vn -0.1732 0.9823 0.0717
vn -0.0717 0.9823 0.1732
vn 0.0717 0.9823 0.1732
vn 0.1732 0.9823 0.0717
s 0
g C_Pommel.001_iron_knife_fittings
usemtl iron_knife_fittings
f 455//122 457//122 456//122
f 455//123 458//123 457//123
f 455//124 459//124 458//124
f 455//125 460//125 459//125
f 455//126 461//126 460//126
f 455//127 462//127 461//127
f 455//128 463//128 462//128
f 455//129 456//129 463//129
f 456//130 465//130 464//130
f 458//131 465//131 457//131
f 458//132 467//132 466//132
f 460//133 467//133 459//133
f 460//134 469//134 468//134
f 462//135 469//135 461//135
f 462//136 471//136 470//136
f 456//137 471//137 463//137
f 464//138 473//138 472//138
f 466//139 473//139 465//139
f 466//140 475//140 474//140
f 468//141 475//141 467//141
f 468//142 477//142 476//142
f 470//143 477//143 469//143
f 470//144 479//144 478//144
f 464//145 479//145 471//145
f 473//146 480//146 472//146
f 474//147 481//147 473//147
f 475//148 482//148 474//148
f 476//149 483//149 475//149
f 477//150 484//150 476//150
f 478//151 485//151 477//151
f 479//152 486//152 478//152
f 472//153 487//153 479//153
f 481//154 488//154 480//154
f 482//155 489//155 481//155
f 483//156 490//156 482//156
f 484//157 491//157 483//157
f 485//158 492//158 484//158
f 486//159 493//159 485//159
f 487//160 494//160 486//160
f 480//161 495//161 487//161
f 488//162 489//162 496//162
f 489//163 490//163 496//163
f 490//164 491//164 496//164
f 491//165 492//165 496//165
f 492//166 493//166 496//166
f 493//167 494//167 496//167
f 494//168 495//168 496//168
f 495//169 488//169 496//169
f 456//130 457//130 465//130
f 458//131 466//131 465//131
f 458//132 459//132 467//132
f 460//133 468//133 467//133
f 460//134 461//134 469//134
f 462//135 470//135 469//135
f 462//136 463//136 471//136
f 456//137 464//137 471//137
f 464//138 465//138 473//138
f 466//139 474//139 473//139
f 466//140 467//140 475//140
f 468//141 476//141 475//141
f 468//142 469//142 477//142
f 470//143 478//143 477//143
f 470//144 471//144 479//144
f 464//145 472//145 479//145
f 473//146 481//146 480//146
f 474//147 482//147 481//147
f 475//148 483//148 482//148
f 476//149 484//149 483//149
f 477//150 485//150 484//150
f 478//151 486//151 485//151
f 479//152 487//152 486//152
f 472//153 480//153 487//153
f 481//154 489//154 488//154
f 482//155 490//155 489//155
f 483//156 491//156 490//156
f 484//157 492//157 491//157
f 485//158 493//158 492//158
f 486//159 494//159 493//159
f 487//160 495//160 494//160
f 480//161 488//161 495//161
