# Blender 5.2.2 LTS
# www.blender.org
mtllib moth_scale.mtl
g A_ShadowHull.001_SHADOW_A_ShadowHull_front.001
v -0.029231 -0.460000 0.080000
v 0.320000 -0.157500 -0.070000
v -0.200000 -0.412500 -0.040000
v -0.148000 0.570000 -0.043000
v 0.320000 0.184286 -0.070000
v -0.200000 0.592326 -0.040000
v -0.360000 0.390000 0.070000
v 0.043077 0.390000 0.070000
v 0.260000 0.604286 0.040000
v -0.210000 0.013750 0.105000
v -0.210000 -0.110000 0.105000
v -0.249151 -0.459898 0.078666
v -0.247733 -0.460000 0.080000
v -0.248951 -0.459949 0.079333
v -0.248432 -0.459986 0.079821
v -0.278758 -0.349472 0.087895
v -0.280000 -0.350000 0.086516
v -0.279379 -0.349736 0.087696
v -0.279834 -0.349929 0.087192
v -0.225289 -0.540000 -0.025000
v -0.226716 -0.539825 -0.023674
v -0.225984 -0.539977 -0.024822
v -0.226507 -0.539913 -0.024337
v -0.118832 -0.919346 0.039567
v -0.119170 -0.918006 0.041021
v -0.120362 -0.918711 0.039618
v -0.118873 -0.919157 0.040253
v -0.119468 -0.919510 0.039552
v -0.119483 -0.919313 0.040210
v -0.119761 -0.918348 0.040812
v -0.118997 -0.918665 0.040786
v -0.119570 -0.918966 0.040586
v -0.120029 -0.919276 0.039567
v -0.120198 -0.918608 0.040297
v -0.119878 -0.919149 0.040223
v -0.119177 -0.918021 0.038004
v -0.120362 -0.918711 0.039474
v -0.119002 -0.918676 0.038290
v -0.119766 -0.918359 0.038243
v -0.119573 -0.918972 0.038517
v -0.119467 -0.919507 0.039598
v -0.118875 -0.919162 0.038864
v -0.119484 -0.919315 0.038921
v -0.120200 -0.918613 0.038783
v -0.119879 -0.919151 0.038897
v 0.130576 -0.778792 0.051526
v 0.128990 -0.779036 0.052848
v 0.128832 -0.780654 0.051371
v 0.130267 -0.778984 0.052168
v 0.130124 -0.779477 0.051477
v 0.129935 -0.779536 0.052104
v 0.129043 -0.779755 0.052589
v 0.129693 -0.779072 0.052646
v 0.129591 -0.779623 0.052452
v 0.129487 -0.780158 0.051420
v 0.128986 -0.780342 0.052053
v 0.129527 -0.779969 0.052067
v 0.128969 -0.779059 0.014843
v 0.130576 -0.778792 0.016152
v 0.128832 -0.780654 0.016452
v 0.129674 -0.779101 0.015050
v 0.129022 -0.779773 0.015160
v 0.129579 -0.779637 0.015287
v 0.130124 -0.779477 0.016247
v 0.130256 -0.779004 0.015524
v 0.129929 -0.779545 0.015627
v 0.128972 -0.780352 0.015744
v 0.129486 -0.780158 0.016357
v 0.129520 -0.779975 0.015698
v 0.338624 -0.339782 -0.048555
v 0.339834 -0.338672 -0.047338
v 0.339424 -0.341208 -0.047041
v 0.339241 -0.339426 -0.048397
v 0.339075 -0.340355 -0.048289
v 0.339461 -0.339931 -0.048189
v 0.339831 -0.339497 -0.047244
v 0.339678 -0.339025 -0.047957
v 0.339702 -0.339661 -0.047863
v 0.339365 -0.340872 -0.047740
v 0.339680 -0.340424 -0.047136
v 0.339603 -0.340250 -0.047794
v 0.243065 -0.540000 -0.025000
v 0.244619 -0.539846 -0.023672
v 0.243815 -0.539979 -0.024822
v 0.244384 -0.539923 -0.024336
v 0.318625 -0.179793 -0.067377
v 0.320613 -0.178810 -0.066147
v 0.320166 -0.181328 -0.065849
v 0.319446 -0.179607 -0.067201
v 0.319346 -0.180280 -0.067122
v 0.319730 -0.179986 -0.067007
v 0.320338 -0.179585 -0.066053
v 0.320168 -0.179250 -0.066754
v 0.320056 -0.179764 -0.066672
v 0.319906 -0.180838 -0.066566
v 0.320175 -0.180506 -0.065944
v 0.319971 -0.180277 -0.066611
v 0.398015 0.570000 -0.043000
v 0.400034 0.569970 -0.041662
v 0.399012 0.569996 -0.042821
v 0.399751 0.569985 -0.042331
v 0.199310 0.748834 0.019763
v 0.200000 0.750000 0.018258
v 0.199655 0.749417 0.019502
v 0.199908 0.749844 0.018951
v 0.199312 0.748833 -0.018969
v 0.200000 0.750000 -0.017471
v 0.199656 0.749416 -0.018711
v 0.199908 0.749844 -0.018163
v -0.121028 0.859143 0.002976
v -0.119720 0.858501 0.004410
v -0.118734 0.859565 0.002919
v -0.120846 0.859019 0.003664
v -0.120353 0.859551 0.002920
v -0.120198 0.859411 0.003582
v -0.119220 0.858994 0.004162
v -0.120366 0.858784 0.004190
v -0.119860 0.859245 0.003952
v -0.119511 0.859706 0.002899
v -0.118858 0.859385 0.003615
v -0.119605 0.859520 0.003567
v -0.119725 0.858501 -0.004233
v -0.121028 0.859143 -0.002803
v -0.118734 0.859565 -0.002748
v -0.120272 0.858892 -0.003982
v -0.119344 0.859058 -0.003960
v -0.119869 0.859304 -0.003780
v -0.120340 0.859498 -0.002786
v -0.120744 0.859124 -0.003464
v -0.120184 0.859443 -0.003412
v -0.118985 0.859443 -0.003422
v -0.119504 0.859652 -0.002766
v -0.119626 0.859544 -0.003398
v -0.360478 0.658750 0.031025
v -0.358894 0.659189 0.032313
v -0.358972 0.660857 0.030736
v -0.360173 0.658999 0.031652
v -0.360094 0.659485 0.030934
v -0.359904 0.659574 0.031556
v -0.359050 0.659907 0.032015
v -0.359600 0.659158 0.032118
v -0.359571 0.659706 0.031894
v -0.359543 0.660256 0.030828
v -0.359079 0.660512 0.031442
v -0.359555 0.660057 0.031488
v -0.238725 -0.492137 -0.030631
v -0.239600 -0.493924 -0.029074
v -0.239162 -0.493033 -0.030345
v -0.239482 -0.493688 -0.029775
v -0.278771 -0.349477 -0.020942
v -0.280000 -0.350000 -0.019299
v -0.279386 -0.349738 -0.020613
v -0.279835 -0.349930 -0.020012
v 0.339834 -0.338672 0.021098
v 0.338651 -0.339750 0.022697
v 0.339424 -0.341208 0.021182
v 0.339680 -0.338992 0.021787
v 0.339831 -0.339497 0.021125
v 0.339706 -0.339644 0.021770
v 0.339109 -0.340297 0.022398
v 0.339250 -0.339384 0.022368
v 0.339474 -0.339898 0.022171
v 0.339680 -0.340424 0.021156
v 0.339389 -0.340827 0.021848
v 0.339613 -0.340229 0.021790
v 0.146469 -0.745494 0.054360
v 0.145636 -0.744159 0.055816
v 0.146356 -0.745319 0.055046
v 0.146051 -0.744830 0.055579
v 0.260000 -0.504541 0.040000
v 0.259956 -0.507712 0.038665
v 0.259994 -0.506093 0.039821
v 0.259978 -0.507253 0.039333
v 0.318651 -0.179750 0.027097
v 0.320166 -0.181328 0.025425
v 0.320613 -0.178810 0.025320
v 0.319355 -0.180229 0.026745
v 0.319483 -0.179538 0.026716
v 0.319745 -0.179946 0.026508
v 0.320175 -0.180506 0.025391
v 0.319907 -0.180804 0.026136
v 0.319974 -0.180258 0.026089
v 0.320197 -0.179195 0.026069
v 0.320338 -0.179585 0.025353
v 0.320068 -0.179740 0.026068
v 0.488551 0.150059 -0.021209
v 0.489446 0.151218 -0.019602
v 0.489387 0.148810 -0.019617
v 0.489046 0.150501 -0.020867
v 0.489027 0.149577 -0.020872
v 0.489352 0.150025 -0.020633
v 0.489627 0.150449 -0.019607
v 0.489371 0.150922 -0.020283
v 0.489543 0.150302 -0.020234
v 0.489331 0.149124 -0.020294
v 0.489605 0.149570 -0.019612
v 0.489530 0.149730 -0.020237
v 0.489446 0.151218 -0.011822
v 0.488541 0.150037 -0.010279
v 0.489387 0.148810 -0.011810
v 0.489369 0.150920 -0.011147
v 0.489627 0.150449 -0.011818
v 0.489541 0.150299 -0.011189
v 0.489019 0.149560 -0.010583
v 0.489041 0.150491 -0.010587
v 0.489348 0.150017 -0.010801
v 0.489605 0.149570 -0.011814
v 0.489326 0.149115 -0.011138
v 0.489527 0.149725 -0.011187
v 0.325103 -0.170094 -0.067173
v 0.324459 -0.168471 -0.068709
v 0.325020 -0.169870 -0.067872
v 0.324784 -0.169276 -0.068434
v 0.440352 0.261291 -0.001018
v 0.438611 0.259884 0.000706
v 0.440554 0.258782 -0.001066
v 0.440017 0.260795 -0.000289
v 0.440261 0.260483 -0.001033
v 0.440023 0.260257 -0.000323
v 0.439440 0.259611 0.000326
v 0.439383 0.260282 0.000339
v 0.439751 0.259976 0.000106
v 0.440335 0.259565 -0.001051
v 0.440147 0.259209 -0.000320
v 0.440065 0.259746 -0.000333
v 0.440352 0.261291 -0.033819
v 0.440554 0.258782 -0.033755
v 0.438631 0.259882 -0.035659
v 0.440261 0.260483 -0.033799
v 0.440021 0.260798 -0.034571
v 0.440026 0.260258 -0.034532
v 0.440153 0.259204 -0.034530
v 0.440335 0.259565 -0.033775
v 0.440068 0.259744 -0.034519
v 0.439394 0.260284 -0.035241
v 0.439452 0.259605 -0.035224
v 0.439757 0.259975 -0.034983
v 0.498536 0.479532 -0.018319
v 0.499005 0.480895 -0.016814
v 0.499648 0.478709 -0.016654
v 0.498866 0.480110 -0.018021
v 0.499106 0.479224 -0.017956
v 0.499305 0.479774 -0.017750
v 0.499440 0.480268 -0.016763
v 0.499036 0.480604 -0.017475
v 0.499410 0.480103 -0.017375
v 0.499510 0.478925 -0.017351
v 0.499674 0.479472 -0.016705
v 0.499561 0.479572 -0.017336
v 0.499005 0.480895 -0.013937
v 0.498519 0.479546 -0.012474
v 0.499648 0.478709 -0.014063
v 0.499026 0.480613 -0.013277
v 0.499440 0.480268 -0.013977
v 0.499405 0.480107 -0.013360
v 0.499098 0.479231 -0.012799
v 0.498850 0.480124 -0.012747
v 0.499297 0.479780 -0.012991
v 0.499674 0.479472 -0.014023
v 0.499507 0.478927 -0.013376
v 0.499558 0.479574 -0.013392
v 0.410546 0.558723 -0.043789
v 0.410818 0.560264 -0.042342
v 0.410712 0.559466 -0.043558
v 0.410811 0.560030 -0.043028
v 0.296387 0.661465 0.031995
v 0.297069 0.662638 0.030489
v 0.296743 0.662038 0.031735
v 0.296993 0.662467 0.031184
v -0.358918 0.659174 -0.001552
v -0.360478 0.658750 0.000169
v -0.358972 0.660857 -0.000178
v -0.359628 0.659105 -0.001182
v -0.359107 0.659862 -0.001305
v -0.359600 0.659672 -0.001039
v -0.360094 0.659485 0.000059
v -0.360195 0.658950 -0.000557
v -0.359917 0.659552 -0.000609
v -0.359127 0.660473 -0.000807
v -0.359543 0.660256 -0.000068
v -0.359575 0.660039 -0.000689
v -0.276268 0.729777 -0.020187
v -0.275663 0.728553 -0.021694
v -0.276206 0.729597 -0.020882
v -0.275984 0.729149 -0.021434
v -0.422189 0.493649 0.055489
v -0.423065 0.495060 0.053942
v -0.422623 0.494366 0.055208
v -0.422944 0.494882 0.054642
v -0.488571 0.320036 0.040000
v -0.489522 0.321250 0.038435
v -0.489434 0.318787 0.038454
v -0.489090 0.320490 0.039681
v -0.489057 0.319560 0.039688
v -0.489385 0.320018 0.039466
v -0.489672 0.320462 0.038441
v -0.489435 0.320931 0.039113
v -0.489581 0.320304 0.039073
v -0.489370 0.319106 0.039127
v -0.489640 0.319563 0.038448
v -0.489560 0.319723 0.039078
v -0.488582 0.320053 0.029818
v -0.489434 0.318787 0.031370
v -0.489522 0.321250 0.031389
v -0.489064 0.319572 0.030133
v -0.489095 0.320500 0.030140
v -0.489388 0.320024 0.030358
v -0.489640 0.319563 0.031376
v -0.489373 0.319112 0.030696
v -0.489562 0.319726 0.030746
v -0.489437 0.320934 0.030711
v -0.489672 0.320462 0.031383
v -0.489583 0.320306 0.030751
v -0.418650 0.170199 0.012899
v -0.420211 0.168678 0.014616
v -0.420566 0.171213 0.014708
v -0.419367 0.169744 0.013269
v -0.419469 0.170443 0.013295
v -0.419744 0.170044 0.013512
v -0.420191 0.169501 0.014645
v -0.419936 0.169190 0.013895
v -0.419983 0.169740 0.013939
v -0.420167 0.170813 0.013954
v -0.420321 0.170427 0.014679
v -0.420058 0.170263 0.013958
v -0.420211 0.168678 0.054611
v -0.418647 0.170199 0.056316
v -0.420566 0.171213 0.054523
v -0.419935 0.169190 0.055330
v -0.420191 0.169501 0.054583
v -0.419983 0.169740 0.055287
v -0.419468 0.170442 0.055927
v -0.419366 0.169744 0.055951
v -0.419743 0.170044 0.055712
v -0.420321 0.170427 0.054551
v -0.420166 0.170812 0.055274
v -0.420058 0.170263 0.055269
v -0.458627 -0.079671 0.046987
v -0.459789 -0.078678 0.045377
v -0.459258 -0.081114 0.045490
v -0.459218 -0.079326 0.046652
v -0.459029 -0.080237 0.046694
v -0.459422 -0.079857 0.046457
v -0.459783 -0.079487 0.045413
v -0.459640 -0.078966 0.046067
v -0.459663 -0.079619 0.046053
v -0.459258 -0.080761 0.046151
v -0.459589 -0.080376 0.045454
v -0.459541 -0.080190 0.046080
v -0.458631 -0.079687 0.022572
v -0.459258 -0.081114 0.024070
v -0.459789 -0.078678 0.024191
v -0.459031 -0.080246 0.022867
v -0.459221 -0.079337 0.022912
v -0.459423 -0.079863 0.023108
v -0.459589 -0.080376 0.024108
v -0.459258 -0.080764 0.023411
v -0.459542 -0.080193 0.023484
v -0.459641 -0.078971 0.023500
v -0.459783 -0.079487 0.024153
v -0.459664 -0.079621 0.023513
v -0.281876 -0.344796 0.088229
v -0.282353 -0.346471 0.086768
v -0.282124 -0.345620 0.087990
v -0.282298 -0.346233 0.087456
vn 0.0671 -0.0412 0.9969
vn 0.1045 -0.0283 -0.9941
vn -0.1115 -0.0465 -0.9927
vn -0.0263 0.0658 -0.9975
vn 0.1091 0.0126 -0.9940
vn -0.1099 0.0532 -0.9925
vn -0.1087 0.0647 0.9920
vn 0.0645 0.0668 0.9957
vn 0.1059 0.0649 0.9923
vn -0.0449 0.0145 0.9989
vn -0.0454 -0.0089 0.9989
vn -0.9519 -0.2773 0.1300
vn -0.1249 -0.1122 0.9858
vn -0.8262 -0.2703 0.4943
vn -0.4760 -0.2004 0.8563
vn -0.1053 -0.1188 0.9873
vn -0.8968 -0.4221 0.1323
vn -0.4273 -0.2593 0.8661
vn -0.7688 -0.3911 0.5059
vn -0.1251 -0.1737 -0.9768
vn -0.9499 -0.2848 -0.1288
vn -0.4736 -0.2519 -0.8440
vn -0.8211 -0.2987 -0.4864
vn 0.3532 -0.9355 0.0056
vn -0.0618 -0.2268 0.9720
vn -0.9055 -0.4014 0.1374
vn 0.2994 -0.8211 0.4859
vn 0.0786 0.3447 0.9354
vn -0.0646 -0.8831 0.4648
vn -0.4129 -0.3115 0.8559
vn 0.1163 -0.5231 0.8443
vn -0.2220 -0.5879 0.7779
vn -0.6478 -0.7618 0.0059
vn -0.7778 -0.3851 0.4967
vn -0.5610 -0.6823 0.4688
vn -0.0643 -0.2994 -0.9520
vn -0.9024 -0.4099 -0.1327
vn 0.1091 -0.5719 -0.8130
vn -0.4112 -0.3728 -0.8318
vn -0.2226 -0.6297 -0.7442
vn 0.0278 0.2780 -0.9602
vn 0.2900 -0.8376 -0.4631
vn -0.0670 -0.8956 -0.4397
vn -0.7711 -0.4185 -0.4799
vn -0.5536 -0.7024 -0.4473
vn 0.8632 -0.4878 0.1303
vn 0.1365 -0.2097 0.9682
vn 0.5307 -0.8373 0.1314
vn 0.7528 -0.4589 0.4719
vn 0.7846 -0.6128 0.0936
vn 0.7315 -0.5647 0.3822
vn 0.2832 -0.4864 0.8266
vn 0.4403 -0.3344 0.8333
vn 0.4889 -0.5174 0.7024
vn 0.6537 -0.7507 0.0957
vn 0.4603 -0.7545 0.4679
vn 0.5738 -0.7244 0.3822
vn 0.1334 -0.2826 -0.9499
vn 0.8599 -0.4944 -0.1274
vn 0.5268 -0.8403 -0.1279
vn 0.4290 -0.3934 -0.8132
vn 0.2731 -0.5364 -0.7985
vn 0.4751 -0.5585 -0.6800
vn 0.7813 -0.6173 -0.0919
vn 0.7412 -0.4880 -0.4609
vn 0.7185 -0.5873 -0.3727
vn 0.4482 -0.7724 -0.4501
vn 0.6499 -0.7540 -0.0953
vn 0.5621 -0.7399 -0.3697
vn 0.1841 -0.1440 -0.9723
vn 0.9896 0.0538 -0.1333
vn 0.9117 -0.3886 -0.1335
vn 0.5217 -0.0811 -0.8493
vn 0.4738 -0.2819 -0.8343
vn 0.6718 -0.1932 -0.7151
vn 0.9920 -0.0825 -0.0954
vn 0.8744 0.0010 -0.4852
vn 0.9159 -0.0861 -0.3921
vn 0.7939 -0.3809 -0.4740
vn 0.9614 -0.2568 -0.0988
vn 0.8712 -0.2988 -0.3894
vn 0.1157 -0.1933 -0.9743
vn 0.8878 -0.4418 -0.1290
vn 0.4370 -0.3261 -0.8383
vn 0.7617 -0.4308 -0.4840
vn 0.1072 -0.1352 -0.9850
vn 0.8927 -0.4224 -0.1571
vn 0.9860 0.0499 -0.1592
vn 0.4059 -0.2061 -0.8904
vn 0.4219 -0.1450 -0.8950
vn 0.6120 -0.1768 -0.7709
vn 0.9456 -0.2678 -0.1846
vn 0.7552 -0.3627 -0.5461
vn 0.8147 -0.1947 -0.5462
vn 0.8300 -0.0414 -0.5562
vn 0.9764 -0.1164 -0.1819
vn 0.8152 -0.2053 -0.5415
vn 0.0856 0.1940 -0.9773
vn 0.6572 0.7427 -0.1287
vn 0.3224 0.4401 -0.8381
vn 0.5628 0.6707 -0.4831
vn 0.0715 0.2556 0.9641
vn 0.4964 0.8592 0.1238
vn 0.2507 0.5344 0.8072
vn 0.4245 0.7803 0.4594
vn 0.0716 0.2505 -0.9655
vn 0.4966 0.8591 -0.1241
vn 0.2512 0.5310 -0.8093
vn 0.4251 0.7791 -0.4607
vn -0.5670 0.8113 0.1424
vn -0.0375 0.3330 0.9422
vn 0.2472 0.9587 0.1409
vn -0.4763 0.7390 0.4765
vn -0.3500 0.9280 0.1281
vn -0.3031 0.8531 0.4247
vn 0.0849 0.5984 0.7967
vn -0.2558 0.5400 0.8019
vn -0.1149 0.7120 0.6928
vn 0.0021 0.9918 0.1275
vn 0.2035 0.8582 0.4713
vn -0.0015 0.9064 0.4225
vn -0.0353 0.3174 -0.9476
vn -0.5515 0.8246 -0.1261
vn 0.2267 0.9657 -0.1263
vn -0.2576 0.5382 -0.8025
vn 0.0880 0.5964 -0.7979
vn -0.1153 0.7216 -0.6826
vn -0.3315 0.9390 -0.0914
vn -0.4716 0.7576 -0.4514
vn -0.3134 0.8776 -0.3629
vn 0.1916 0.8731 -0.4482
vn -0.0198 0.9955 -0.0924
vn -0.0005 0.9321 -0.3622
vn -0.9012 0.4136 0.1297
vn -0.1473 0.2389 0.9598
vn -0.6632 0.7369 0.1311
vn -0.7825 0.4104 0.4682
vn -0.8477 0.5217 0.0959
vn -0.7826 0.4911 0.3826
vn -0.3388 0.4699 0.8151
vn -0.4572 0.3321 0.8250
vn -0.5382 0.4796 0.6930
vn -0.7533 0.6501 0.0991
vn -0.5679 0.6814 0.4617
vn -0.6592 0.6475 0.3823
vn -0.2310 -0.0933 -0.9685
vn -0.9529 -0.2732 -0.1320
vn -0.5317 -0.1828 -0.8270
vn -0.8365 -0.2595 -0.4827
vn -0.3280 -0.0450 -0.9436
vn -0.9065 -0.4026 -0.1269
vn -0.5834 -0.1782 -0.7924
vn -0.8253 -0.3271 -0.4602
vn 0.9902 0.0667 0.1230
vn 0.3701 -0.0267 0.9286
vn 0.9212 -0.3689 0.1236
vn 0.8998 0.0565 0.4327
vn 0.9932 -0.0689 0.0934
vn 0.9334 -0.0359 0.3571
vn 0.6084 -0.1769 0.7737
vn 0.6397 0.0306 0.7680
vn 0.7654 -0.1009 0.6355
vn 0.9658 -0.2421 0.0928
vn 0.8448 -0.3086 0.4370
vn 0.9032 -0.2345 0.3594
vn 0.8937 -0.4289 0.1321
vn 0.1809 -0.0976 0.9786
vn 0.7833 -0.3853 0.4878
vn 0.4837 -0.2460 0.8399
vn 0.2819 -0.0534 0.9580
vn 0.8992 -0.4192 0.1256
vn 0.5559 -0.1990 0.8071
vn 0.8127 -0.3514 0.4647
vn 0.3100 -0.0176 0.9506
vn 0.9862 0.0690 0.1504
vn 0.9073 -0.3928 0.1500
vn 0.5673 -0.0353 0.8227
vn 0.5578 -0.1001 0.8239
vn 0.7146 -0.1047 0.6916
vn 0.9821 -0.0880 0.1665
vn 0.8666 0.0245 0.4983
vn 0.8650 -0.1317 0.4842
vn 0.8177 -0.2855 0.4999
vn 0.9559 -0.2422 0.1659
vn 0.8639 -0.1399 0.4838
vn 0.4384 -0.0037 -0.8987
vn 0.9397 0.3223 -0.1141
vn 0.9230 -0.3670 -0.1152
vn 0.6608 0.1387 -0.7377
vn 0.6523 -0.1589 -0.7411
vn 0.7857 -0.0140 -0.6185
vn 0.9899 0.1144 -0.0831
vn 0.8716 0.2672 -0.4111
vn 0.9353 0.1164 -0.3341
vn 0.8579 -0.3032 -0.4147
vn 0.9833 -0.1621 -0.0833
vn 0.9289 -0.1558 -0.3360
vn 0.9386 0.3238 0.1189
vn 0.3855 -0.0046 0.9227
vn 0.9220 -0.3686 0.1188
vn 0.8622 0.2711 0.4280
vn 0.9898 0.1146 0.0850
vn 0.9308 0.1180 0.3459
vn 0.6212 -0.1644 0.7662
vn 0.6278 0.1420 0.7653
vn 0.7667 -0.0153 0.6418
vn 0.9831 -0.1622 0.0847
vn 0.8491 -0.3088 0.4286
vn 0.9245 -0.1597 0.3461
vn 0.8809 -0.4543 -0.1324
vn 0.2417 -0.1162 -0.9634
vn 0.7775 -0.4089 -0.4778
vn 0.5097 -0.2672 -0.8178
vn 0.9686 -0.1960 0.1528
vn 0.3061 0.0076 0.9520
vn 0.9270 0.3427 0.1527
vn 0.8542 -0.1219 0.5054
vn 0.9846 -0.0164 0.1741
vn 0.8667 0.0500 0.4962
vn 0.5550 0.0714 0.8288
vn 0.5605 -0.0109 0.8281
vn 0.7138 0.0474 0.6988
vn 0.9705 0.1669 0.1738
vn 0.8283 0.2398 0.5064
vn 0.8652 0.0729 0.4961
vn 0.9696 -0.1946 -0.1486
vn 0.9287 0.3398 -0.1483
vn 0.3642 0.0074 -0.9313
vn 0.9859 -0.0175 -0.1667
vn 0.8663 -0.1210 -0.4846
vn 0.8795 0.0458 -0.4736
vn 0.8416 0.2362 -0.4857
vn 0.9719 0.1663 -0.1664
vn 0.8776 0.0745 -0.4736
vn 0.6012 -0.0122 -0.7990
vn 0.5960 0.0711 -0.7998
vn 0.7420 0.0470 -0.6687
vn 0.4364 0.0529 -0.8982
vn 0.7497 0.6518 -0.1143
vn 0.9813 -0.1549 -0.1140
vn 0.5888 0.2973 -0.7516
vn 0.6756 -0.0498 -0.7356
vn 0.7562 0.1672 -0.6326
vn 0.8965 0.4353 -0.0824
vn 0.7235 0.5465 -0.4217
vn 0.8559 0.3901 -0.3394
vn 0.9029 -0.1301 -0.4098
vn 0.9906 0.1076 -0.0849
vn 0.9389 0.0783 -0.3351
vn 0.7474 0.6537 0.1188
vn 0.3830 0.0540 0.9222
vn 0.9806 -0.1556 0.1188
vn 0.7088 0.5542 0.4363
vn 0.8957 0.4365 0.0847
vn 0.8476 0.3975 0.3514
vn 0.6435 -0.0508 0.7638
vn 0.5517 0.3048 0.7764
vn 0.7340 0.1723 0.6569
vn 0.9903 0.1082 0.0868
vn 0.8945 -0.1315 0.4273
vn 0.9340 0.0794 0.3484
vn 0.2175 0.1281 -0.9676
vn 0.6699 0.7301 -0.1346
vn 0.4173 0.3788 -0.8261
vn 0.6075 0.6301 -0.4836
vn 0.1885 0.1616 0.9687
vn 0.6659 0.7338 0.1346
vn 0.3978 0.4053 0.8231
vn 0.5964 0.6428 0.4808
vn -0.3592 0.0974 -0.9281
vn -0.9124 0.3899 -0.1243
vn -0.6866 0.7164 -0.1239
vn -0.6159 0.1864 -0.7655
vn -0.5154 0.3529 -0.7809
vn -0.6745 0.3730 -0.6371
vn -0.8597 0.5016 -0.0964
vn -0.8417 0.3234 -0.4323
vn -0.8346 0.4173 -0.3595
vn -0.6622 0.6049 -0.4422
vn -0.7696 0.6317 -0.0933
vn -0.7322 0.5762 -0.3633
vn -0.6390 0.7574 -0.1347
vn -0.1947 0.1621 -0.9674
vn -0.5767 0.6610 -0.4801
vn -0.3918 0.4143 -0.8215
vn -0.2245 0.1149 0.9677
vn -0.9240 0.3587 0.1327
vn -0.5173 0.2318 0.8238
vn -0.8109 0.3341 0.4804
vn -0.3919 -0.0070 0.9200
vn -0.9539 0.2752 0.1198
vn -0.9325 -0.3410 0.1188
vn -0.6361 0.1205 0.7622
vn -0.6295 -0.1542 0.7616
vn -0.7726 -0.0229 0.6345
vn -0.9923 0.0881 0.0866
vn -0.8745 0.2287 0.4277
vn -0.9329 0.0954 0.3472
vn -0.8585 -0.2848 0.4263
vn -0.9838 -0.1572 0.0861
vn -0.9250 -0.1570 0.3461
vn -0.3996 -0.0065 -0.9167
vn -0.9326 -0.3410 -0.1181
vn -0.9541 0.2751 -0.1181
vn -0.6342 -0.1535 -0.7578
vn -0.6426 0.1209 -0.7566
vn -0.7765 -0.0223 -0.6297
vn -0.9839 -0.1572 -0.0853
vn -0.8601 -0.2842 -0.4237
vn -0.9262 -0.1559 -0.3433
vn -0.8768 0.2289 -0.4229
vn -0.9924 0.0879 -0.0855
vn -0.9345 0.0955 -0.3430
vn -0.3295 -0.0139 -0.9441
vn -0.9836 0.1017 -0.1489
vn -0.9219 -0.3577 -0.1486
vn -0.5817 -0.0210 -0.8131
vn -0.5744 -0.0856 -0.8141
vn -0.7272 -0.0827 -0.6814
vn -0.9850 -0.0535 -0.1638
vn -0.8694 0.0511 -0.4914
vn -0.8733 -0.1022 -0.4763
vn -0.8315 -0.2565 -0.4928
vn -0.9645 -0.2074 -0.1634
vn -0.8723 -0.1117 -0.4760
vn -0.9835 0.1018 0.1494
vn -0.3222 -0.0139 0.9466
vn -0.9217 -0.3580 0.1491
vn -0.8680 0.0511 0.4939
vn -0.9849 -0.0537 0.1647
vn -0.8718 -0.1028 0.4790
vn -0.5693 -0.0857 0.8177
vn -0.5767 -0.0212 0.8167
vn -0.7237 -0.0828 0.6851
vn -0.9643 -0.2075 0.1643
vn -0.8299 -0.2570 0.4953
vn -0.8708 -0.1116 0.4787
vn -0.3865 -0.0376 0.9215
vn -0.9893 0.0833 0.1199
vn -0.8694 -0.4793 0.1203
vn -0.6501 0.0299 0.7592
vn -0.6006 -0.2245 0.7674
vn -0.7620 -0.1332 0.6338
vn -0.9915 -0.0954 0.0882
vn -0.9025 0.0692 0.4252
vn -0.9359 -0.0631 0.3466
vn -0.8082 -0.4009 0.4313
vn -0.9439 -0.3186 0.0870
vn -0.8885 -0.2976 0.3492
vn -0.3937 -0.0379 -0.9184
vn -0.8697 -0.4790 -0.1191
vn -0.9894 0.0834 -0.1190
vn -0.6064 -0.2243 -0.7629
vn -0.6544 0.0298 -0.7556
vn -0.7653 -0.1330 -0.6298
vn -0.9441 -0.3183 -0.0861
vn -0.8103 -0.4004 -0.4278
vn -0.8899 -0.2971 -0.3461
vn -0.9037 0.0691 -0.4226
vn -0.9916 -0.0951 -0.0876
vn -0.9366 -0.0633 -0.3445
vn -0.2126 -0.1056 0.9714
vn -0.8263 -0.5474 0.1328
vn -0.4733 -0.2941 0.8303
vn -0.7317 -0.4798 0.4842
vt 0.282684 0.524535
vt 0.538486 0.736004
vt 0.131069 0.736004
vt 0.292792 0.284963
vt 0.292792 0.849720
vt 0.345352 0.837172
vt 0.374834 0.373902
vt 0.374176 0.370228
vt 0.374191 0.373988
vt 0.374792 0.369984
vt 0.374088 0.368081
vt 0.373895 0.000653
vt 0.374667 0.000475
vt 0.374492 0.000846
vt 0.373453 0.000507
vt 0.374088 0.000306
vt 0.373612 0.000449
vt 0.370153 0.000203
vt 0.369733 0.000507
vt 0.373624 0.373901
vt 0.373777 0.370153
vt 0.374662 0.000469
vt 0.373890 0.000647
vt 0.374485 0.000837
vt 0.374790 0.377922
vt 0.374085 0.379901
vt 0.374662 0.381201
vt 0.374175 0.377592
vt 0.374192 0.373726
vt 0.374434 0.000449
vt 0.377729 0.000202
vt 0.373901 0.000132
vt 0.373451 0.000504
vt 0.374085 0.000302
vt 0.373776 0.000202
vt 0.373776 0.377729
vt 0.301896 0.078982
vt 0.305845 0.078705
vt 0.305563 0.079090
vt 0.626035 0.078932
vt 0.626280 0.078672
vt 0.626616 0.078982
vt 0.625324 0.078953
vt 0.625932 0.078623
vt 0.625378 0.299492
vt 0.625867 0.302472
vt 0.625932 0.300276
vt 0.625826 0.306171
vt 0.625321 0.302552
vt 0.625165 0.306453
vt 0.302472 0.078428
vt 0.306171 0.078322
vt 0.626280 0.302261
vt 0.625303 0.078940
vt 0.625920 0.078615
vt 0.625357 0.078539
vt 0.513998 0.078916
vt 0.510702 0.078666
vt 0.512645 0.078615
vt 0.507159 0.078705
vt 0.511290 0.078971
vt 0.507702 0.079090
vt 0.510299 0.078425
vt 0.625307 0.510034
vt 0.625826 0.506533
vt 0.625165 0.505990
vt 0.625357 0.513371
vt 0.625860 0.510299
vt 0.625920 0.512645
vt 0.626274 0.510702
vt 0.837216 0.325834
vt 0.838062 0.325749
vt 0.837672 0.325511
vt 0.876557 0.326034
vt 0.873505 0.325902
vt 0.875366 0.325749
vt 0.869966 0.325994
vt 0.874043 0.326259
vt 0.870504 0.326457
vt 0.873107 0.325570
vt 0.872800 0.325221
vt 0.869346 0.325473
vt 0.868808 0.325032
vt 0.875936 0.325511
vt 0.817831 0.415859
vt 0.817731 0.415481
vt 0.817002 0.415755
vt 0.818448 0.415771
vt 0.818119 0.415646
vt 0.977444 0.415871
vt 0.981452 0.416060
vt 0.977984 0.416307
vt 0.980636 0.415483
vt 0.980984 0.415771
vt 0.980378 0.415167
vt 0.976821 0.415354
vt 0.976281 0.414892
vt 0.818362 0.415483
vt 0.818296 0.415167
vt 0.982896 0.415646
vt 0.372798 0.579062
vt 0.373296 0.583316
vt 0.372614 0.582993
vt 0.373284 0.576055
vt 0.373453 0.579534
vt 0.373936 0.999323
vt 0.373795 0.999741
vt 0.373284 0.999482
vt 0.374441 0.576218
vt 0.374053 0.579619
vt 0.373795 0.577417
vt 0.374147 0.583436
vt 0.374807 0.579345
vt 0.374933 0.583320
vt 0.373931 0.999323
vt 0.373785 0.999774
vt 0.374317 0.999636
vt 0.373378 0.622752
vt 0.373467 0.619497
vt 0.373785 0.621597
vt 0.373310 0.615918
vt 0.372901 0.619794
vt 0.372614 0.616017
vt 0.374031 0.619420
vt 0.374679 0.619553
vt 0.374155 0.615803
vt 0.374933 0.615703
vt 0.374317 0.622626
vt 0.419131 0.887194
vt 0.423237 0.887467
vt 0.422713 0.887054
vt 0.131473 0.887283
vt 0.131166 0.887517
vt 0.130894 0.887194
vt 0.132187 0.887301
vt 0.131502 0.887591
vt 0.132029 0.417058
vt 0.131519 0.420067
vt 0.131502 0.417751
vt 0.131530 0.423840
vt 0.132000 0.420330
vt 0.132108 0.424364
vt 0.420067 0.887789
vt 0.423840 0.887900
vt 0.419681 0.887517
vt 0.417751 0.887591
vt 0.475504 0.326277
vt 0.479288 0.325994
vt 0.479442 0.326457
vt 0.472185 0.326057
vt 0.475599 0.325911
vt 0.837706 0.325544
vt 0.837849 0.326057
vt 0.837243 0.325851
vt 0.472013 0.325544
vt 0.475488 0.325582
vt 0.473308 0.325768
vt 0.479111 0.325473
vt 0.475155 0.325246
vt 0.478957 0.325032
vt 0.817739 0.415510
vt 0.817869 0.415898
vt 0.817028 0.415779
vt 0.447171 0.415510
vt 0.450917 0.415493
vt 0.448526 0.415669
vt 0.454906 0.415354
vt 0.450651 0.415187
vt 0.454717 0.414892
vt 0.451041 0.415785
vt 0.451035 0.416090
vt 0.455125 0.415871
vt 0.455314 0.416307
vt 0.447337 0.415898
vt 0.989258 0.601395
vt 0.989239 0.600876
vt 0.988757 0.601146
vt 0.719240 0.601395
vt 0.715623 0.601283
vt 0.717901 0.601127
vt 0.712038 0.601365
vt 0.715904 0.601632
vt 0.712010 0.601798
vt 0.715641 0.600961
vt 0.715963 0.600621
vt 0.712069 0.600872
vt 0.712096 0.600444
vt 0.719268 0.600876
vt 0.663698 0.601630
vt 0.667533 0.601365
vt 0.667555 0.601798
vt 0.660499 0.601389
vt 0.663940 0.601281
vt 0.989231 0.600866
vt 0.989253 0.601389
vt 0.988748 0.601134
vt 0.660473 0.600866
vt 0.663924 0.600959
vt 0.661720 0.601123
vt 0.667509 0.600872
vt 0.663647 0.600616
vt 0.667488 0.600444
vt 0.601653 0.663385
vt 0.605904 0.663209
vt 0.605818 0.663664
vt 0.598065 0.663097
vt 0.601848 0.663083
vt 0.939117 0.662720
vt 0.939060 0.663097
vt 0.938280 0.662873
vt 0.598139 0.662720
vt 0.601904 0.662795
vt 0.599393 0.662925
vt 0.606004 0.662694
vt 0.601826 0.662494
vt 0.606090 0.662253
vt 0.793135 0.663209
vt 0.797546 0.663387
vt 0.793251 0.663664
vt 0.797250 0.662794
vt 0.797326 0.663083
vt 0.797312 0.662491
vt 0.793001 0.662694
vt 0.792885 0.662253
vt 0.801279 0.662716
vt 0.939071 0.663098
vt 0.939130 0.662716
vt 0.938300 0.662872
vt 0.801379 0.663098
vt 0.799905 0.662924
vt 0.999184 0.786650
vt 0.999426 0.786152
vt 0.998850 0.786325
vt 0.702975 0.786650
vt 0.699287 0.786646
vt 0.701430 0.786461
vt 0.695789 0.786739
vt 0.699857 0.786928
vt 0.696078 0.787091
vt 0.699062 0.786347
vt 0.699150 0.785984
vt 0.695457 0.786291
vt 0.695168 0.785862
vt 0.702604 0.786152
vt 0.675871 0.786933
vt 0.679870 0.786739
vt 0.679642 0.787091
vt 0.672842 0.786658
vt 0.676344 0.786648
vt 0.999418 0.786156
vt 0.999167 0.786658
vt 0.998833 0.786333
vt 0.673139 0.786156
vt 0.676523 0.786349
vt 0.674232 0.786465
vt 0.680132 0.786291
vt 0.676433 0.785985
vt 0.680361 0.785862
vt 0.131445 0.887253
vt 0.131971 0.887679
vt 0.132163 0.887292
vt 0.606757 0.887253
vt 0.603481 0.887505
vt 0.605939 0.887572
vt 0.599664 0.887467
vt 0.603182 0.887166
vt 0.599036 0.887054
vt 0.600388 0.887900
vt 0.604610 0.888022
vt 0.601016 0.888238
vt 0.607459 0.887679
vt 0.603939 0.887778
vt 0.000588 0.696937
vt 0.000622 0.696413
vt 0.001113 0.696681
vt 0.373253 0.696937
vt 0.376724 0.696832
vt 0.374481 0.696671
vt 0.380337 0.696921
vt 0.376500 0.697184
vt 0.380370 0.697364
vt 0.380298 0.696415
vt 0.376416 0.696159
vt 0.380264 0.695979
vt 0.373209 0.696413
vt 0.376697 0.696505
vt 0.000615 0.696420
vt 0.000583 0.696942
vt 0.001102 0.696691
vt 0.427810 0.696420
vt 0.424307 0.696507
vt 0.426528 0.696674
vt 0.420709 0.696415
vt 0.424592 0.696162
vt 0.420744 0.695979
vt 0.424280 0.696833
vt 0.424509 0.697186
vt 0.420669 0.696921
vt 0.420634 0.697364
vt 0.427769 0.696942
vt 0.071063 0.612210
vt 0.070959 0.612603
vt 0.071787 0.612466
vt 0.524174 0.612210
vt 0.520347 0.612208
vt 0.522787 0.612379
vt 0.516312 0.612074
vt 0.520600 0.611899
vt 0.516478 0.611611
vt 0.520238 0.612502
vt 0.520262 0.612811
vt 0.516120 0.612594
vt 0.515954 0.613036
vt 0.524028 0.612603
vt 0.283827 0.611899
vt 0.288095 0.612074
vt 0.287935 0.611611
vt 0.280279 0.612210
vt 0.284074 0.612208
vt 0.070961 0.612603
vt 0.071064 0.612210
vt 0.071790 0.612466
vt 0.280420 0.612603
vt 0.284179 0.612502
vt 0.281648 0.612379
vt 0.288280 0.612594
vt 0.284151 0.612810
vt 0.288440 0.613036
vt 0.030783 0.472221
vt 0.030973 0.471709
vt 0.031380 0.472028
vt 0.333419 0.472221
vt 0.336838 0.472057
vt 0.334533 0.471923
vt 0.340498 0.472131
vt 0.336761 0.472424
vt 0.340705 0.472586
vt 0.340261 0.471631
vt 0.336281 0.471415
vt 0.340055 0.471217
vt 0.333177 0.471709
vt 0.336685 0.471736
vt 0.030971 0.471705
vt 0.030780 0.472215
vt 0.031375 0.472019
vt 0.469329 0.471705
vt 0.465805 0.471735
vt 0.467955 0.471920
vt 0.462239 0.471631
vt 0.466223 0.471414
vt 0.462460 0.471217
vt 0.465642 0.472056
vt 0.465712 0.472421
vt 0.461984 0.472131
vt 0.461763 0.472586
vt 0.469074 0.472215
vt 0.213185 0.320387
vt 0.243838 0.258273
vt 0.244545 0.258265
vt 0.212558 0.320239
vt 0.243314 0.258294
vt 0.146669 0.258294
vt 0.105623 0.320091
vt 0.150481 0.258323
vt 0.710282 0.320091
vt 0.770143 0.239331
vt 0.766135 0.239198
vt 0.714355 0.320130
vt 0.773400 0.239699
vt 0.212551 0.320237
vt 0.253649 0.240203
vt 0.253208 0.239699
vt 0.739067 0.213351
vt 0.735278 0.213400
vt 0.252884 0.239331
vt 0.266528 0.213315
vt 0.266000 0.213351
vt 0.267231 0.213302
vt 0.378383 0.000504
vt 0.506533 0.078322
vt 0.625321 0.078219
vt 0.374792 0.000198
vt 0.625378 0.078549
vt 0.285449 0.097903
vt 0.642877 0.097903
vt 0.642569 0.098178
vt 0.740628 0.213302
vt 0.626016 0.078916
vt 0.741386 0.213313
vt 0.626605 0.078971
vt 0.739063 0.213345
vt 0.837965 0.325221
vt 0.757745 0.233231
vt 0.372450 0.232359
vt 0.375242 0.231707
vt 0.379055 0.231449
vt 0.289369 0.097805
vt 0.282404 0.098178
vt 0.757739 0.232359
vt 0.642150 0.098555
vt 0.837840 0.326034
vt 0.838282 0.326259
vt 0.987839 0.421331
vt 0.991053 0.421665
vt 0.822898 0.422118
vt 0.823227 0.421665
vt 0.818561 0.416060
vt 0.909912 0.830834
vt 0.910080 0.831252
vt 0.999356 0.786928
vt 0.845874 0.831569
vt 0.899287 0.838070
vt 0.910181 0.845874
vt 0.899001 0.841892
vt 0.899001 0.837164
vt 0.898254 0.837170
vt 0.897246 0.837172
vt 0.696751 0.938012
vt 0.697006 0.938253
vt 0.697099 0.699833
vt 0.696402 0.937685
vt 0.794884 0.888902
vt 0.696751 0.938013
vt 0.795136 0.889143
vt 0.697006 0.938253
vt 0.697006 0.491709
vt 0.795214 0.425779
vt 0.697099 0.495669
vt 0.999324 0.679642
vt 0.795136 0.421808
vt 0.999345 0.675871
vt 0.999345 0.786933
vt 0.794524 0.888580
vt 0.696403 0.937684
vt 0.696751 0.706921
vt 0.697006 0.703787
vt 0.696751 0.488561
vt 0.374441 0.999600
vt 0.132108 0.601016
vt 0.215765 0.719328
vt 0.131951 0.604610
vt 0.131951 0.888022
vt 0.215989 0.926621
vt 0.216314 0.926286
vt 0.424364 0.888238
vt 0.132000 0.888044
vt 0.372798 0.999614
vt 0.132029 0.887704
vt 0.373378 0.999543
vt 0.372901 0.999673
vt 0.287762 0.794953
vt 0.291761 0.795053
vt 0.284526 0.794662
vt 0.068210 0.794260
vt 0.067771 0.794662
vt 0.067447 0.794953
vt 0.717791 0.320237
vt 0.213172 0.320385
vt 0.209784 0.322552
vt 0.209607 0.322208
vt 0.212098 0.320130
vt 0.101762 0.320130
vt 0.104182 0.322074
vt 0.100253 0.322208
vt 0.097198 0.322552
vt 0.210034 0.323015
vt 0.465400 0.258265
vt 0.282684 0.454981
vt 0.818391 0.428284
vt 0.735269 0.213388
vt 0.983844 0.421206
vt 0.818391 0.620383
vt 0.757745 0.856442
vt 0.215702 0.715353
vt 0.374667 0.366935
vt 0.373777 0.000203
vt 0.302261 0.078672
vt 0.299163 0.078932
vt 0.300276 0.078623
vt 0.625867 0.078428
vt 0.626274 0.078666
vt 0.416466 0.887283
vt 0.131519 0.887789
vt 0.838075 0.325768
vt 0.818133 0.415669
vt 0.989567 0.601127
vt 0.989563 0.601123
vt 0.939432 0.662925
vt 0.939438 0.662924
vt 0.999627 0.786461
vt 0.999619 0.786465
vt 0.131473 0.887572
vt 0.131971 0.607459
vt 0.131473 0.605939
vt 0.131498 0.603939
vt 0.000291 0.696671
vt 0.000287 0.696674
vt 0.070681 0.612379
vt 0.070682 0.612379
vt 0.030576 0.471923
vt 0.030575 0.471920
vt 0.741961 0.213345
vt 0.823465 0.421331
vt 0.910181 0.831569
vt 0.841952 0.831700
vt 0.910187 0.841952
vt 0.215765 0.926873
vt 0.999324 0.696078
s 1
g A_ShadowHull.001_moth_scale_scale
usemtl moth_scale_scale
f 10/1/10 8/2/8 7/3/7
f 3/4/3 6/5/6 4/6/4
f 24/7/24 29/8/29 28/9/28
f 27/10/27 32/11/32 29/8/29
f 30/12/30 31/13/31 25/14/25
f 34/15/34 32/16/32 30/12/30
f 26/17/26 35/18/35 34/19/34
f 33/20/33 29/8/29 35/21/35
f 29/8/29 32/11/32 35/21/35
f 38/22/38 39/23/39 36/24/36
f 42/25/42 40/26/40 38/27/38
f 24/7/24 43/28/43 42/25/42
f 33/20/33 43/28/43 41/29/41
f 37/30/37 45/31/45 33/32/33
f 44/33/44 40/34/40 45/35/45
f 40/26/40 43/28/43 45/36/45
f 49/37/49 50/38/50 46/39/46
f 53/40/53 51/41/51 49/42/49
f 47/43/47 54/44/54 53/40/53
f 52/45/52 57/46/57 54/47/54
f 55/48/55 56/49/56 48/50/48
f 50/38/50 57/51/57 55/52/55
f 51/53/51 54/47/54 57/46/57
f 58/54/58 63/55/63 62/56/62
f 61/57/61 66/58/66 63/59/63
f 64/60/64 65/61/65 59/62/59
f 64/60/64 69/63/69 66/58/66
f 67/64/67 68/65/68 60/66/60
f 62/67/62 69/68/69 67/64/67
f 63/69/63 66/70/66 69/68/69
f 70/71/70 75/72/75 74/73/74
f 73/74/73 78/75/78 75/76/75
f 76/77/76 77/78/77 71/79/71
f 76/77/76 81/80/81 78/75/78
f 79/81/79 80/82/80 72/83/72
f 74/84/74 81/80/81 79/81/79
f 75/76/75 78/75/78 81/80/81
f 89/85/89 90/86/90 86/87/86
f 89/85/89 94/88/94 91/89/91
f 92/90/92 93/91/93 87/92/87
f 92/90/92 97/93/97 94/94/94
f 95/95/95 96/96/96 88/97/88
f 90/86/90 97/98/97 95/99/95
f 91/100/91 94/94/94 97/93/97
f 113/101/113 114/102/114 110/103/110
f 117/104/117 115/105/115 113/101/113
f 111/106/111 118/107/118 117/108/117
f 116/109/116 121/110/121 118/111/118
f 119/112/119 120/113/120 112/114/112
f 114/102/114 121/110/121 119/112/119
f 115/105/115 118/111/118 121/110/121
f 122/115/122 127/116/127 126/117/126
f 125/118/125 130/119/130 127/120/127
f 128/121/128 129/122/129 123/123/123
f 128/121/128 133/124/133 130/119/130
f 131/125/131 132/126/132 124/127/124
f 126/128/126 133/124/133 131/125/131
f 127/120/127 130/119/130 133/124/133
f 137/129/137 138/130/138 134/131/134
f 141/132/141 139/133/139 137/134/137
f 135/135/135 142/136/142 141/132/141
f 140/137/140 145/138/145 142/139/142
f 143/140/143 144/141/144 136/142/136
f 138/130/138 145/143/145 143/144/143
f 139/145/139 142/146/142 145/143/145
f 157/147/157 158/148/158 154/149/154
f 161/150/161 159/151/159 157/147/157
f 160/152/160 161/153/161 155/154/155
f 160/155/160 165/156/165 162/157/162
f 163/158/163 164/159/164 156/160/156
f 163/158/163 159/151/159 165/156/165
f 159/151/159 162/157/162 165/156/165
f 177/161/177 178/162/178 174/163/174
f 177/164/177 182/165/182 179/166/179
f 180/167/180 181/168/181 175/169/175
f 180/167/180 185/170/185 182/165/182
f 183/171/183 184/172/184 176/173/176
f 178/174/178 185/170/185 183/171/183
f 179/166/179 182/165/182 185/170/185
f 189/175/189 190/176/190 186/177/186
f 189/178/189 194/179/194 191/180/191
f 192/181/192 193/182/193 187/183/187
f 192/181/192 197/184/197 194/179/194
f 195/185/195 196/186/196 188/187/188
f 190/188/190 197/184/197 195/185/195
f 191/180/191 194/179/194 197/184/197
f 201/189/201 202/190/202 198/191/198
f 205/192/205 203/193/203 201/189/201
f 204/194/204 205/195/205 199/196/199
f 204/197/204 209/198/209 206/199/206
f 207/200/207 208/201/208 200/202/200
f 207/200/207 203/193/203 209/198/209
f 203/193/203 206/199/206 209/198/209
f 217/203/217 218/204/218 214/205/214
f 221/206/221 219/207/219 217/203/217
f 220/208/220 221/209/221 215/210/215
f 220/211/220 225/212/225 222/213/222
f 223/214/223 224/215/224 216/216/216
f 218/204/218 225/212/225 223/214/223
f 219/207/219 222/213/222 225/212/225
f 229/217/229 230/218/230 226/219/226
f 229/217/229 234/220/234 231/221/231
f 232/222/232 233/223/233 227/224/227
f 236/225/236 234/220/234 232/222/232
f 235/226/235 236/227/236 228/228/228
f 235/229/235 231/221/231 237/230/237
f 231/221/231 234/220/234 237/230/237
f 241/231/241 242/232/242 238/233/238
f 241/234/241 246/235/246 243/236/243
f 244/237/244 245/238/245 239/239/239
f 244/237/244 249/240/249 246/235/246
f 247/241/247 248/242/248 240/243/240
f 242/244/242 249/240/249 247/241/247
f 243/236/243 246/235/246 249/240/249
f 253/245/253 254/246/254 250/247/250
f 257/248/257 255/249/255 253/245/253
f 256/250/256 257/251/257 251/252/251
f 256/253/256 261/254/261 258/255/258
f 259/256/259 260/257/260 252/258/252
f 254/246/254 261/254/261 259/256/259
f 255/249/255 258/255/258 261/254/261
f 273/259/273 274/260/274 270/261/270
f 273/262/273 278/263/278 275/264/275
f 276/265/276 277/266/277 271/267/271
f 280/268/280 278/263/278 276/265/276
f 279/269/279 280/268/280 272/270/272
f 274/271/274 281/272/281 279/269/279
f 275/264/275 278/263/278 281/272/281
f 293/273/293 294/274/294 290/275/290
f 293/276/293 298/277/298 295/278/295
f 296/279/296 297/280/297 291/281/291
f 300/282/300 298/277/298 296/279/296
f 299/283/299 300/282/300 292/284/292
f 294/285/294 301/286/301 299/283/299
f 295/278/295 298/277/298 301/286/301
f 305/287/305 306/288/306 302/289/302
f 305/290/305 310/291/310 307/292/307
f 308/293/308 309/294/309 303/295/303
f 308/293/308 313/296/313 310/291/310
f 311/297/311 312/298/312 304/299/304
f 306/300/306 313/296/313 311/297/311
f 307/292/307 310/291/310 313/296/313
f 317/301/317 318/302/318 314/303/314
f 317/304/317 322/305/322 319/306/319
f 320/307/320 321/308/321 315/309/315
f 320/307/320 325/310/325 322/305/322
f 323/311/323 324/312/324 316/313/316
f 318/314/318 325/310/325 323/311/323
f 319/306/319 322/305/322 325/310/325
f 329/315/329 330/316/330 326/317/326
f 333/318/333 331/319/331 329/315/329
f 332/320/332 333/321/333 327/322/327
f 332/323/332 337/324/337 334/325/334
f 335/326/335 336/327/336 328/328/328
f 330/316/330 337/324/337 335/326/335
f 331/319/331 334/325/334 337/324/337
f 341/329/341 342/330/342 338/331/338
f 341/332/341 346/333/346 343/334/343
f 344/335/344 345/336/345 339/337/339
f 348/338/348 346/333/346 344/335/344
f 347/339/347 348/338/348 340/340/340
f 342/341/342 349/342/349 347/339/347
f 343/334/343 346/333/346 349/342/349
f 353/343/353 354/344/354 350/345/350
f 353/346/353 358/347/358 355/348/355
f 356/349/356 357/350/357 351/351/351
f 356/349/356 361/352/361 358/347/358
f 359/353/359 360/354/360 352/355/352
f 354/356/354 361/352/361 359/353/359
f 355/348/355 358/347/358 361/352/361
f 16/357/16 15/358/15 13/359/13
f 18/360/18 14/361/14 15/358/15
f 14/362/14 17/363/17 12/364/12
f 151/365/151 149/366/149 147/367/147
f 153/368/153 148/369/148 149/366/149
f 152/370/152 146/371/146 148/372/148
f 147/367/147 23/373/23 21/374/21
f 149/375/149 22/376/22 23/377/23
f 148/372/148 20/378/20 22/376/22
f 36/24/36 22/376/22 20/378/20
f 39/23/39 23/377/23 22/376/22
f 44/379/44 21/374/21 23/373/23
f 26/17/26 37/30/37 33/32/33
f 33/20/33 41/29/41 28/9/28
f 28/9/28 41/29/41 24/7/24
f 12/364/12 34/19/34 14/362/14
f 14/361/14 30/12/30 15/358/15
f 15/358/15 25/14/25 13/359/13
f 36/24/36 62/56/62 38/22/38
f 38/27/38 67/64/67 42/25/42
f 42/25/42 60/66/60 24/7/24
f 60/66/60 55/48/55 48/50/48
f 68/380/68 50/38/50 55/52/55
f 64/60/64 46/39/46 50/38/50
f 48/50/48 27/10/27 24/7/24
f 56/381/56 31/13/31 27/382/27
f 52/383/52 25/14/25 31/13/31
f 46/39/46 168/384/168 49/37/49
f 168/385/168 53/40/53 49/42/49
f 169/386/169 47/43/47 53/40/53
f 82/387/82 61/388/61 58/54/58
f 84/389/84 65/390/65 61/388/61
f 85/391/85 59/62/59 65/61/65
f 72/83/72 85/391/85 79/81/79
f 79/392/79 84/389/84 74/73/74
f 74/73/74 82/387/82 70/71/70
f 154/149/154 76/77/76 71/79/71
f 158/148/158 80/82/80 76/77/76
f 163/158/163 72/83/72 80/82/80
f 170/393/170 160/152/160 155/154/155
f 172/394/172 164/159/164 160/155/160
f 173/395/173 156/160/156 164/159/164
f 171/396/171 168/384/168 166/397/166
f 173/395/173 169/398/169 168/384/168
f 172/399/172 167/400/167 169/386/169
f 175/169/175 157/147/157 154/149/154
f 181/168/181 161/150/161 157/147/157
f 177/161/177 155/154/155 161/153/161
f 70/71/70 90/86/90 73/401/73
f 73/401/73 95/99/95 77/402/77
f 77/78/77 88/97/88 71/79/71
f 176/173/176 92/90/92 87/92/87
f 184/172/184 96/96/96 92/90/92
f 180/167/180 88/97/88 96/96/96
f 188/187/188 212/403/212 195/185/195
f 195/185/195 213/404/213 190/188/190
f 190/176/190 211/405/211 186/177/186
f 187/183/187 202/190/202 192/181/192
f 192/181/192 207/200/207 196/186/196
f 196/186/196 200/202/200 188/187/188
f 176/173/176 208/201/208 183/171/183
f 183/171/183 204/197/204 178/174/178
f 178/162/178 199/196/199 174/163/174
f 86/87/86 213/406/213 89/85/89
f 213/406/213 93/407/93 89/85/89
f 212/403/212 87/92/87 93/91/93
f 227/224/227 223/214/223 216/216/216
f 233/223/233 218/204/218 223/214/223
f 229/217/229 214/205/214 218/204/218
f 216/216/216 201/189/201 198/191/198
f 224/215/224 205/192/205 201/189/201
f 220/208/220 199/196/199 205/195/205
f 186/177/186 236/227/236 189/175/189
f 189/178/189 232/222/232 193/182/193
f 193/182/193 227/224/227 187/183/187
f 238/233/238 235/226/235 228/228/228
f 242/244/242 230/218/230 235/229/235
f 247/241/247 226/219/226 230/218/230
f 250/247/250 244/237/244 239/239/239
f 254/246/254 248/242/248 244/237/244
f 259/256/259 240/243/240 248/242/248
f 214/205/214 260/257/260 217/203/217
f 217/203/217 256/253/256 221/206/221
f 221/209/221 251/252/251 215/210/215
f 262/408/262 241/231/241 238/233/238
f 264/409/264 245/410/245 241/231/241
f 265/411/265 239/239/239 245/238/245
f 99/412/99 265/413/265 101/414/101
f 101/415/101 264/409/264 100/416/100
f 100/416/100 262/408/262 98/417/98
f 98/417/98 108/418/108 100/416/100
f 100/416/100 109/419/109 101/415/101
f 101/414/101 107/420/107 99/412/99
f 102/421/102 268/422/268 104/423/104
f 104/423/104 269/424/269 105/425/105
f 105/426/105 267/427/267 103/428/103
f 250/429/250 269/430/269 253/431/253
f 253/432/253 268/422/268 257/251/257
f 257/251/257 266/433/266 251/252/251
f 106/434/106 126/117/126 108/418/108
f 108/435/108 131/125/131 109/436/109
f 109/436/109 124/127/124 107/420/107
f 124/127/124 119/112/119 112/114/112
f 119/112/119 128/121/128 114/102/114
f 114/102/114 123/123/123 110/103/110
f 112/114/112 105/426/105 103/428/103
f 120/113/120 104/437/104 105/426/105
f 116/438/116 102/421/102 104/423/104
f 272/439/272 284/440/284 279/441/279
f 279/442/279 285/443/285 274/260/274
f 274/260/274 283/444/283 270/261/270
f 136/445/136 280/268/280 143/144/143
f 143/144/143 276/265/276 138/130/138
f 138/130/138 271/267/271 134/131/134
f 136/142/136 113/101/113 110/103/110
f 144/446/144 117/108/117 113/447/113
f 140/448/140 111/106/111 117/108/117
f 122/115/122 285/443/285 125/449/125
f 285/443/285 129/450/129 125/449/125
f 284/440/284 123/123/123 129/122/129
f 291/281/291 289/451/289 287/452/287
f 297/280/297 288/453/288 289/451/289
f 293/273/293 286/454/286 288/455/288
f 134/131/134 289/451/289 137/129/137
f 289/456/289 141/132/141 137/134/137
f 288/455/288 135/135/135 141/132/141
f 302/289/302 273/259/273 270/261/270
f 306/300/306 277/266/277 273/262/273
f 311/297/311 271/267/271 277/266/277
f 304/299/304 296/279/296 291/281/291
f 312/298/312 300/282/300 296/279/296
f 308/293/308 292/284/292 300/282/300
f 302/289/302 318/302/318 305/287/305
f 305/290/305 323/311/323 309/294/309
f 309/294/309 316/313/316 303/295/303
f 326/317/326 320/307/320 315/309/315
f 330/316/330 324/312/324 320/307/320
f 335/326/335 316/313/316 324/312/324
f 328/328/328 299/283/299 292/284/292
f 336/327/336 294/285/294 299/283/299
f 332/320/332 290/275/290 294/274/294
f 326/317/326 345/336/345 329/315/329
f 329/315/329 341/332/341 333/318/333
f 333/321/333 338/331/338 327/322/327
f 350/345/350 317/301/317 314/303/314
f 354/356/354 321/308/321 317/304/317
f 359/353/359 315/309/315 321/308/321
f 352/355/352 344/335/344 339/337/339
f 360/354/360 348/338/348 344/335/344
f 356/349/356 340/340/340 348/338/348
f 351/351/351 153/368/153 151/365/151
f 357/350/357 152/457/152 153/368/153
f 353/343/353 150/458/150 152/370/152
f 16/357/16 364/459/364 18/360/18
f 18/360/18 365/460/365 19/461/19
f 19/462/19 363/463/363 17/363/17
f 340/340/340 365/464/365 347/339/347
f 347/339/347 364/465/364 342/341/342
f 342/330/342 362/466/362 338/331/338
f 16/357/16 1/467/1 11/468/11
f 26/17/26 12/364/12 21/374/21
f 47/43/47 1/467/1 25/14/25
f 151/365/151 17/363/17 363/463/363
f 3/4/3 2/469/2 86/87/86
f 58/54/58 20/378/20 82/387/82
f 60/66/60 48/50/48 24/7/24
f 171/396/171 166/397/166 83/470/83
f 71/79/71 175/169/175 154/149/154
f 176/173/176 87/92/87 210/471/210
f 98/417/98 5/472/5 4/6/4
f 107/420/107 103/428/103 267/427/267
f 122/115/122 4/6/4 6/5/6
f 112/114/112 107/420/107 124/127/124
f 8/2/8 9/473/9 102/421/102
f 110/103/110 123/123/123 282/474/282
f 304/299/304 287/452/287 271/267/271
f 3/4/3 150/458/150 314/303/314
f 9/473/9 174/163/174 215/210/215
f 11/468/11 1/467/1 170/393/170
f 5/472/5 186/177/186 2/469/2
f 216/216/216 187/183/187 227/224/227
f 240/243/240 214/205/214 226/219/226
f 10/1/10 7/3/7 327/322/327
f 328/328/328 303/295/303 316/313/316
f 326/317/326 352/355/352 339/337/339
f 4/6/4 5/472/5 3/4/3
f 5/472/5 2/469/2 3/4/3
f 24/7/24 27/10/27 29/8/29
f 27/10/27 31/475/31 32/11/32
f 30/12/30 32/16/32 31/13/31
f 34/15/34 35/476/35 32/16/32
f 26/17/26 33/32/33 35/18/35
f 33/20/33 28/9/28 29/8/29
f 38/22/38 40/34/40 39/23/39
f 42/25/42 43/28/43 40/26/40
f 24/7/24 41/29/41 43/28/43
f 33/20/33 45/36/45 43/28/43
f 37/30/37 44/379/44 45/31/45
f 44/33/44 39/23/39 40/34/40
f 49/37/49 51/477/51 50/38/50
f 53/478/53 54/479/54 51/477/51
f 47/43/47 52/383/52 54/44/54
f 52/383/52 56/381/56 57/480/57
f 55/48/55 57/46/57 56/49/56
f 50/38/50 51/477/51 57/51/57
f 58/54/58 61/388/61 63/55/63
f 61/388/61 65/390/65 66/481/66
f 64/60/64 66/58/66 65/61/65
f 64/60/64 68/380/68 69/63/69
f 67/64/67 69/68/69 68/65/68
f 62/67/62 63/69/63 69/68/69
f 70/71/70 73/401/73 75/72/75
f 73/74/73 77/78/77 78/75/78
f 76/77/76 78/75/78 77/78/77
f 76/77/76 80/82/80 81/80/81
f 79/81/79 81/80/81 80/82/80
f 74/84/74 75/76/75 81/80/81
f 89/85/89 91/89/91 90/86/90
f 89/85/89 93/407/93 94/88/94
f 92/90/92 94/94/94 93/91/93
f 92/90/92 96/96/96 97/93/97
f 95/95/95 97/93/97 96/96/96
f 90/86/90 91/89/91 97/98/97
f 113/101/113 115/105/115 114/102/114
f 117/104/117 118/111/118 115/105/115
f 111/106/111 116/438/116 118/107/118
f 116/109/116 120/113/120 121/110/121
f 119/112/119 121/110/121 120/113/120
f 114/102/114 115/105/115 121/110/121
f 122/115/122 125/449/125 127/116/127
f 125/118/125 129/122/129 130/119/130
f 128/121/128 130/119/130 129/122/129
f 128/121/128 132/126/132 133/124/133
f 131/125/131 133/124/133 132/126/132
f 126/128/126 127/120/127 133/124/133
f 137/129/137 139/145/139 138/130/138
f 141/482/141 142/146/142 139/145/139
f 135/135/135 140/448/140 142/136/142
f 140/448/140 144/446/144 145/483/145
f 143/140/143 145/138/145 144/141/144
f 138/130/138 139/145/139 145/143/145
f 157/147/157 159/151/159 158/148/158
f 161/150/161 162/157/162 159/151/159
f 160/152/160 162/484/162 161/153/161
f 160/155/160 164/159/164 165/156/165
f 163/158/163 165/156/165 164/159/164
f 163/158/163 158/148/158 159/151/159
f 177/161/177 179/485/179 178/162/178
f 177/164/177 181/168/181 182/165/182
f 180/167/180 182/165/182 181/168/181
f 180/167/180 184/172/184 185/170/185
f 183/171/183 185/170/185 184/172/184
f 178/174/178 179/166/179 185/170/185
f 189/175/189 191/486/191 190/176/190
f 189/178/189 193/182/193 194/179/194
f 192/181/192 194/179/194 193/182/193
f 192/181/192 196/186/196 197/184/197
f 195/185/195 197/184/197 196/186/196
f 190/188/190 191/180/191 197/184/197
f 201/189/201 203/193/203 202/190/202
f 205/192/205 206/199/206 203/193/203
f 204/194/204 206/487/206 205/195/205
f 204/197/204 208/201/208 209/198/209
f 207/200/207 209/198/209 208/201/208
f 207/200/207 202/190/202 203/193/203
f 217/203/217 219/207/219 218/204/218
f 221/206/221 222/213/222 219/207/219
f 220/208/220 222/488/222 221/209/221
f 220/211/220 224/215/224 225/212/225
f 223/214/223 225/212/225 224/215/224
f 218/204/218 219/207/219 225/212/225
f 229/217/229 231/221/231 230/218/230
f 229/217/229 233/223/233 234/220/234
f 232/222/232 234/220/234 233/223/233
f 236/225/236 237/230/237 234/220/234
f 235/226/235 237/489/237 236/227/236
f 235/229/235 230/218/230 231/221/231
f 241/231/241 243/490/243 242/232/242
f 241/234/241 245/238/245 246/235/246
f 244/237/244 246/235/246 245/238/245
f 244/237/244 248/242/248 249/240/249
f 247/241/247 249/240/249 248/242/248
f 242/244/242 243/236/243 249/240/249
f 253/245/253 255/249/255 254/246/254
f 257/248/257 258/255/258 255/249/255
f 256/250/256 258/491/258 257/251/257
f 256/253/256 260/257/260 261/254/261
f 259/256/259 261/254/261 260/257/260
f 254/246/254 255/249/255 261/254/261
f 273/259/273 275/492/275 274/260/274
f 273/262/273 277/266/277 278/263/278
f 276/265/276 278/263/278 277/266/277
f 280/268/280 281/272/281 278/263/278
f 279/269/279 281/272/281 280/268/280
f 274/493/274 275/494/275 281/495/281
f 293/273/293 295/496/295 294/274/294
f 293/276/293 297/280/297 298/277/298
f 296/279/296 298/277/298 297/280/297
f 300/282/300 301/286/301 298/277/298
f 299/283/299 301/286/301 300/282/300
f 294/285/294 295/278/295 301/286/301
f 305/287/305 307/497/307 306/288/306
f 305/290/305 309/294/309 310/291/310
f 308/293/308 310/291/310 309/294/309
f 308/293/308 312/298/312 313/296/313
f 311/297/311 313/296/313 312/298/312
f 306/300/306 307/292/307 313/296/313
f 317/301/317 319/498/319 318/302/318
f 317/304/317 321/308/321 322/305/322
f 320/307/320 322/305/322 321/308/321
f 320/307/320 324/312/324 325/310/325
f 323/311/323 325/310/325 324/312/324
f 318/314/318 319/306/319 325/310/325
f 329/315/329 331/319/331 330/316/330
f 333/318/333 334/325/334 331/319/331
f 332/320/332 334/499/334 333/321/333
f 332/323/332 336/327/336 337/324/337
f 335/326/335 337/324/337 336/327/336
f 330/316/330 331/319/331 337/324/337
f 341/329/341 343/500/343 342/330/342
f 341/332/341 345/336/345 346/333/346
f 344/335/344 346/333/346 345/336/345
f 348/338/348 349/342/349 346/333/346
f 347/339/347 349/342/349 348/338/348
f 342/341/342 343/334/343 349/342/349
f 353/343/353 355/501/355 354/344/354
f 353/346/353 357/350/357 358/347/358
f 356/349/356 358/347/358 357/350/357
f 356/349/356 360/354/360 361/352/361
f 359/353/359 361/352/361 360/354/360
f 354/356/354 355/348/355 361/352/361
f 16/357/16 18/360/18 15/358/15
f 18/360/18 19/461/19 14/361/14
f 14/362/14 19/462/19 17/363/17
f 151/365/151 153/368/153 149/366/149
f 153/368/153 152/457/152 148/369/148
f 152/370/152 150/458/150 146/371/146
f 147/367/147 149/366/149 23/373/23
f 149/375/149 148/372/148 22/376/22
f 148/372/148 146/371/146 20/378/20
f 36/24/36 39/23/39 22/376/22
f 39/23/39 44/33/44 23/377/23
f 44/379/44 37/30/37 21/374/21
f 12/364/12 26/17/26 34/19/34
f 14/361/14 34/15/34 30/12/30
f 15/358/15 30/12/30 25/14/25
f 36/24/36 58/54/58 62/56/62
f 38/27/38 62/67/62 67/64/67
f 42/25/42 67/64/67 60/66/60
f 60/66/60 68/65/68 55/48/55
f 68/380/68 64/60/64 50/38/50
f 64/60/64 59/62/59 46/39/46
f 48/50/48 56/49/56 27/10/27
f 56/381/56 52/383/52 31/13/31
f 52/383/52 47/43/47 25/14/25
f 46/39/46 166/397/166 168/384/168
f 168/385/168 169/386/169 53/40/53
f 169/386/169 167/400/167 47/43/47
f 82/387/82 84/389/84 61/388/61
f 84/389/84 85/502/85 65/390/65
f 85/391/85 83/470/83 59/62/59
f 72/83/72 83/470/83 85/391/85
f 79/392/79 85/502/85 84/389/84
f 74/73/74 84/389/84 82/387/82
f 154/149/154 158/148/158 76/77/76
f 158/148/158 163/158/163 80/82/80
f 163/158/163 156/160/156 72/83/72
f 170/393/170 172/399/172 160/152/160
f 172/394/172 173/395/173 164/159/164
f 173/395/173 171/396/171 156/160/156
f 171/396/171 173/395/173 168/384/168
f 173/395/173 172/394/172 169/398/169
f 172/399/172 170/393/170 167/400/167
f 175/169/175 181/168/181 157/147/157
f 181/168/181 177/164/177 161/150/161
f 177/161/177 174/163/174 155/154/155
f 70/71/70 86/87/86 90/86/90
f 73/401/73 90/86/90 95/99/95
f 77/78/77 95/95/95 88/97/88
f 176/173/176 184/172/184 92/90/92
f 184/172/184 180/167/180 96/96/96
f 180/167/180 175/169/175 88/97/88
f 188/187/188 210/471/210 212/403/212
f 195/185/195 212/403/212 213/404/213
f 190/176/190 213/406/213 211/405/211
f 187/183/187 198/191/198 202/190/202
f 192/181/192 202/190/202 207/200/207
f 196/186/196 207/200/207 200/202/200
f 176/173/176 200/202/200 208/201/208
f 183/171/183 208/201/208 204/197/204
f 178/162/178 204/194/204 199/196/199
f 86/87/86 211/405/211 213/406/213
f 213/406/213 212/503/212 93/407/93
f 212/403/212 210/471/210 87/92/87
f 227/224/227 233/223/233 223/214/223
f 233/223/233 229/217/229 218/204/218
f 229/217/229 226/219/226 214/205/214
f 216/216/216 224/215/224 201/189/201
f 224/215/224 220/211/220 205/192/205
f 220/208/220 215/210/215 199/196/199
f 186/177/186 228/228/228 236/227/236
f 189/178/189 236/225/236 232/222/232
f 193/182/193 232/222/232 227/224/227
f 238/233/238 242/232/242 235/226/235
f 242/244/242 247/241/247 230/218/230
f 247/241/247 240/243/240 226/219/226
f 250/247/250 254/246/254 244/237/244
f 254/246/254 259/256/259 248/242/248
f 259/256/259 252/258/252 240/243/240
f 214/205/214 252/258/252 260/257/260
f 217/203/217 260/257/260 256/253/256
f 221/209/221 256/250/256 251/252/251
f 262/408/262 264/409/264 241/231/241
f 264/409/264 265/504/265 245/410/245
f 265/411/265 263/505/263 239/239/239
f 99/412/99 263/506/263 265/413/265
f 101/415/101 265/504/265 264/409/264
f 100/416/100 264/409/264 262/408/262
f 98/417/98 106/434/106 108/418/108
f 100/416/100 108/418/108 109/419/109
f 101/414/101 109/436/109 107/420/107
f 102/421/102 266/433/266 268/422/268
f 104/423/104 268/422/268 269/424/269
f 105/426/105 269/430/269 267/427/267
f 250/429/250 267/427/267 269/430/269
f 253/432/253 269/424/269 268/422/268
f 257/251/257 268/422/268 266/433/266
f 106/434/106 122/115/122 126/117/126
f 108/435/108 126/128/126 131/125/131
f 109/436/109 131/125/131 124/127/124
f 124/127/124 132/126/132 119/112/119
f 119/112/119 132/126/132 128/121/128
f 114/102/114 128/121/128 123/123/123
f 112/114/112 120/113/120 105/426/105
f 120/113/120 116/109/116 104/437/104
f 116/438/116 111/106/111 102/421/102
f 272/439/272 282/474/282 284/440/284
f 279/442/279 284/507/284 285/443/285
f 274/260/274 285/443/285 283/444/283
f 136/445/136 272/270/272 280/268/280
f 143/144/143 280/268/280 276/265/276
f 138/130/138 276/265/276 271/267/271
f 136/142/136 144/141/144 113/101/113
f 144/446/144 140/448/140 117/108/117
f 140/448/140 135/135/135 111/106/111
f 122/115/122 283/444/283 285/443/285
f 285/443/285 284/507/284 129/450/129
f 284/440/284 282/474/282 123/123/123
f 291/281/291 297/280/297 289/451/289
f 297/280/297 293/276/293 288/453/288
f 293/273/293 290/275/290 286/454/286
f 134/131/134 287/452/287 289/451/289
f 289/456/289 288/455/288 141/132/141
f 288/455/288 286/454/286 135/135/135
f 302/289/302 306/288/306 273/259/273
f 306/300/306 311/297/311 277/266/277
f 311/297/311 304/299/304 271/267/271
f 304/299/304 312/298/312 296/279/296
f 312/298/312 308/293/308 300/282/300
f 308/293/308 303/295/303 292/284/292
f 302/289/302 314/303/314 318/302/318
f 305/290/305 318/314/318 323/311/323
f 309/294/309 323/311/323 316/313/316
f 326/317/326 330/316/330 320/307/320
f 330/316/330 335/326/335 324/312/324
f 335/326/335 328/328/328 316/313/316
f 328/328/328 336/327/336 299/283/299
f 336/327/336 332/323/332 294/285/294
f 332/320/332 327/322/327 290/275/290
f 326/317/326 339/337/339 345/336/345
f 329/315/329 345/336/345 341/332/341
f 333/321/333 341/329/341 338/331/338
f 350/345/350 354/344/354 317/301/317
f 354/356/354 359/353/359 321/308/321
f 359/353/359 352/355/352 315/309/315
f 352/355/352 360/354/360 344/335/344
f 360/354/360 356/349/356 348/338/348
f 356/349/356 351/351/351 340/340/340
f 351/351/351 357/350/357 153/368/153
f 357/350/357 353/346/353 152/457/152
f 353/343/353 350/345/350 150/458/150
f 16/357/16 362/466/362 364/459/364
f 18/360/18 364/459/364 365/460/365
f 19/462/19 365/464/365 363/463/363
f 340/340/340 363/463/363 365/464/365
f 347/339/347 365/464/365 364/465/364
f 342/330/342 364/459/364 362/466/362
f 11/468/11 362/466/362 16/357/16
f 16/357/16 13/359/13 1/467/1
f 12/364/12 17/363/17 151/365/151
f 151/365/151 147/367/147 12/364/12
f 147/367/147 21/374/21 12/364/12
f 21/374/21 37/30/37 26/17/26
f 167/400/167 1/467/1 47/43/47
f 1/467/1 13/359/13 25/14/25
f 340/340/340 351/351/351 363/463/363
f 351/351/351 151/365/151 363/463/363
f 2/469/2 211/405/211 86/87/86
f 86/87/86 70/71/70 3/4/3
f 70/71/70 82/387/82 3/4/3
f 82/387/82 20/378/20 3/4/3
f 20/378/20 146/371/146 3/4/3
f 58/54/58 36/24/36 20/378/20
f 166/397/166 46/39/46 59/62/59
f 59/62/59 83/470/83 166/397/166
f 83/470/83 72/83/72 171/396/171
f 72/83/72 156/160/156 171/396/171
f 71/79/71 88/97/88 175/169/175
f 210/471/210 188/187/188 200/202/200
f 200/202/200 176/173/176 210/471/210
f 98/417/98 262/408/262 5/472/5
f 239/508/239 263/506/263 250/429/250
f 263/506/263 99/412/99 267/427/267
f 250/429/250 263/506/263 267/427/267
f 99/412/99 107/420/107 267/427/267
f 6/5/6 283/444/283 122/115/122
f 122/115/122 106/434/106 4/6/4
f 106/434/106 98/417/98 4/6/4
f 112/114/112 103/428/103 107/420/107
f 266/433/266 102/421/102 9/473/9
f 102/421/102 111/106/111 8/2/8
f 111/106/111 135/135/135 8/2/8
f 135/135/135 286/454/286 7/3/7
f 8/2/8 135/135/135 7/3/7
f 282/474/282 272/439/272 136/142/136
f 136/142/136 110/103/110 282/474/282
f 291/281/291 287/452/287 304/299/304
f 287/452/287 134/131/134 271/267/271
f 3/4/3 146/371/146 150/458/150
f 150/458/150 350/345/350 314/303/314
f 314/303/314 302/289/302 6/5/6
f 302/289/302 270/261/270 6/5/6
f 270/261/270 283/444/283 6/5/6
f 6/5/6 3/4/3 314/303/314
f 266/433/266 9/473/9 251/252/251
f 9/473/9 170/393/170 174/163/174
f 170/393/170 155/154/155 174/163/174
f 174/163/174 199/196/199 215/210/215
f 215/210/215 251/252/251 9/473/9
f 1/467/1 167/400/167 170/393/170
f 170/393/170 9/473/9 8/2/8
f 8/2/8 10/1/10 170/393/170
f 10/1/10 11/468/11 170/393/170
f 5/472/5 262/408/262 228/228/228
f 262/408/262 238/233/238 228/228/228
f 228/228/228 186/177/186 5/472/5
f 186/177/186 211/405/211 2/469/2
f 216/216/216 198/191/198 187/183/187
f 240/243/240 252/258/252 214/205/214
f 7/3/7 286/454/286 290/275/290
f 327/322/327 338/331/338 10/1/10
f 338/331/338 362/466/362 11/468/11
f 7/3/7 290/275/290 327/322/327
f 11/468/11 10/1/10 338/331/338
f 328/328/328 292/284/292 303/295/303
f 326/317/326 315/309/315 352/355/352
g B_Quill.001_B_Quill.001
v -0.028247 0.659865 0.052885
v -0.030957 0.659755 0.052434
v -0.032710 0.659890 0.054548
v -0.031753 0.660135 0.057115
v -0.029043 0.660245 0.057566
v -0.027290 0.660110 0.055452
v 0.002445 -0.849730 0.057038
v -0.001352 -0.849730 0.056405
v -0.003798 -0.850000 0.059367
v -0.002445 -0.850270 0.062962
v 0.001352 -0.850270 0.063595
v 0.003798 -0.850000 0.060633
v 0.002445 -0.849730 0.057038
v -0.001352 -0.849730 0.056405
v -0.003798 -0.850000 0.059367
v -0.002445 -0.850270 0.062962
v 0.001352 -0.850270 0.063595
v 0.003798 -0.850000 0.060633
v 0.000924 -0.590153 0.081359
v -0.005225 -0.590120 0.080337
v -0.009183 -0.590655 0.085123
v -0.006992 -0.591222 0.090931
v -0.000843 -0.591255 0.091953
v 0.003115 -0.590721 0.087167
v -0.000214 -0.359367 0.103374
v -0.008713 -0.359386 0.101956
v -0.014187 -0.359933 0.108589
v -0.011161 -0.360461 0.116639
v -0.002662 -0.360442 0.118057
v 0.002812 -0.359895 0.111425
v -0.003003 -0.099885 0.111513
v -0.013850 -0.100104 0.109696
v -0.020847 -0.100220 0.118183
v -0.016997 -0.100115 0.128487
v -0.006150 -0.099896 0.130304
v 0.000847 -0.099780 0.121817
v -0.010816 0.163123 0.102078
v -0.018948 0.162812 0.100721
v -0.024206 0.163162 0.107069
v -0.021332 0.163824 0.114774
v -0.013200 0.164136 0.116130
v -0.007942 0.163785 0.109782
v -0.019148 0.396921 0.078729
v -0.024568 0.396672 0.077828
v -0.028076 0.397028 0.082049
v -0.026165 0.397633 0.087170
v -0.020745 0.397882 0.088071
v -0.017236 0.397526 0.083850
v -0.028247 0.659865 0.052885
v -0.030957 0.659755 0.052434
v -0.032710 0.659890 0.054548
v -0.031753 0.660135 0.057115
v -0.029043 0.660245 0.057566
v -0.027290 0.660110 0.055452
vn -0.0262 0.9960 -0.0852
vn 0.0133 -0.9967 -0.0797
vn 0.6315 0.0760 -0.7717
vn -0.3497 0.0808 -0.9334
vn -0.9853 -0.0035 -0.1711
vn -0.6382 -0.0937 0.7641
vn 0.3533 -0.0989 0.9303
vn 0.9875 -0.0135 0.1568
vn 0.6348 0.0761 -0.7689
vn -0.3513 0.0814 -0.9327
vn -0.9862 -0.0043 -0.1652
vn -0.6349 -0.0954 0.7667
vn 0.3517 -0.1007 0.9307
vn 0.9866 -0.0149 0.1627
vn 0.6409 0.0534 -0.7657
vn -0.3537 0.0514 -0.9339
vn -0.9878 -0.0126 -0.1553
vn -0.6295 -0.0733 0.7735
vn 0.3486 -0.0709 0.9346
vn 0.9848 -0.0082 0.1737
vn 0.6431 0.0113 -0.7657
vn -0.3534 -0.0089 -0.9354
vn -0.9881 -0.0194 -0.1528
vn -0.6293 -0.0097 0.7771
vn 0.3467 0.0101 0.9379
vn 0.9839 0.0206 0.1774
vn 0.6426 -0.0308 -0.7656
vn -0.3514 -0.0691 -0.9337
vn -0.9875 -0.0260 -0.1553
vn -0.6320 0.0538 0.7731
vn 0.3454 0.0911 0.9340
vn 0.9836 0.0495 0.1735
vn 0.6373 -0.0538 -0.7687
vn -0.3478 -0.0990 -0.9323
vn -0.9857 -0.0343 -0.1653
vn -0.6383 0.0757 0.7661
vn 0.3473 0.1210 0.9299
vn 0.9851 0.0562 0.1623
vn 0.6340 -0.0539 -0.7714
vn -0.3462 -0.0985 -0.9330
vn -0.9846 -0.0353 -0.1711
vn -0.6416 0.0738 0.7635
vn 0.3490 0.1191 0.9295
vn 0.9862 0.0547 0.1565
vt 0.400000 0.000000
vt 0.000000 0.000000
vt 0.200000 0.000000
vt 1.000000 0.000000
vt 0.600000 0.000000
vt 0.800000 0.000000
vt 0.000000 1.000000
vt 0.166667 1.000000
vt 0.166667 0.833333
vt 0.000000 0.833333
vt 0.000000 0.166667
vt 0.166667 0.166667
vt 0.166667 0.000000
vt 0.000000 0.333333
vt 0.166667 0.333333
vt 0.000000 0.500000
vt 0.166667 0.500000
vt 0.000000 0.666667
vt 0.166667 0.666667
vt 0.333333 1.000000
vt 0.333333 0.833333
vt 0.333333 0.166667
vt 0.333333 0.000000
vt 0.333333 0.333333
vt 0.333333 0.500000
vt 0.333333 0.666667
vt 0.500000 1.000000
vt 0.500000 0.833333
vt 0.500000 0.166667
vt 0.500000 0.000000
vt 0.500000 0.333333
vt 0.500000 0.500000
vt 0.500000 0.666667
vt 0.666667 1.000000
vt 0.666667 0.833333
vt 0.666667 0.166667
vt 0.666667 0.000000
vt 0.666667 0.333333
vt 0.666667 0.500000
vt 0.666667 0.666667
vt 0.833333 1.000000
vt 0.833333 0.833333
vt 0.833333 0.166667
vt 0.833333 0.000000
vt 0.833333 0.333333
vt 0.833333 0.500000
vt 0.833333 0.666667
vt 1.000000 1.000000
vt 1.000000 0.833333
vt 1.000000 0.166667
vt 1.000000 0.333333
vt 1.000000 0.500000
vt 1.000000 0.666667
s 1
g B_Quill.001_moth_scale_quill
usemtl moth_scale_quill
f 368/509/366 366/510/366 367/511/366
f 368/509/366 371/512/366 366/510/366
f 369/513/366 371/512/366 368/509/366
f 369/513/366 370/514/366 371/512/366
s 2
f 375/513/367 377/512/367 376/514/367
f 374/509/367 377/512/367 375/513/367
f 374/509/367 372/510/367 377/512/367
f 373/511/367 372/510/367 374/509/367
s 3
f 378/515/368 384/516/374 389/517/379 383/518/373
f 379/519/369 385/520/375 384/521/374 378/510/368
f 380/522/370 386/523/376 385/520/375 379/519/369
f 381/524/371 387/525/377 386/523/376 380/522/370
f 382/526/372 388/527/378 387/525/377 381/524/371
f 383/518/373 389/517/379 388/527/378 382/526/372
f 384/516/374 390/528/380 395/529/385 389/517/379
f 385/520/375 391/530/381 390/531/380 384/521/374
f 386/523/376 392/532/382 391/530/381 385/520/375
f 387/525/377 393/533/383 392/532/382 386/523/376
f 388/527/378 394/534/384 393/533/383 387/525/377
f 389/517/379 395/529/385 394/534/384 388/527/378
f 390/528/380 396/535/386 401/536/391 395/529/385
f 391/530/381 397/537/387 396/538/386 390/531/380
f 392/532/382 398/539/388 397/537/387 391/530/381
f 393/533/383 399/540/389 398/539/388 392/532/382
f 394/534/384 400/541/390 399/540/389 393/533/383
f 395/529/385 401/536/391 400/541/390 394/534/384
f 396/535/386 402/542/392 407/543/397 401/536/391
f 397/537/387 403/544/393 402/545/392 396/538/386
f 398/539/388 404/546/394 403/544/393 397/537/387
f 399/540/389 405/547/395 404/546/394 398/539/388
f 400/541/390 406/548/396 405/547/395 399/540/389
f 401/536/391 407/543/397 406/548/396 400/541/390
f 402/542/392 408/549/398 413/550/403 407/543/397
f 403/544/393 409/551/399 408/552/398 402/545/392
f 404/546/394 410/553/400 409/551/399 403/544/393
f 405/547/395 411/554/401 410/553/400 404/546/394
f 406/548/396 412/555/402 411/554/401 405/547/395
f 407/543/397 413/550/403 412/555/402 406/548/396
f 408/549/398 414/556/404 419/557/409 413/550/403
f 409/551/399 415/558/405 414/512/404 408/552/398
f 410/553/400 416/559/406 415/558/405 409/551/399
f 411/554/401 417/560/407 416/559/406 410/553/400
f 412/555/402 418/561/408 417/560/407 411/554/401
f 413/550/403 419/557/409 418/561/408 412/555/402
g B_Quill.001_B_Quill.001
v -0.028247 0.659865 0.052885
v -0.030957 0.659755 0.052434
v -0.032710 0.659890 0.054548
v -0.031753 0.660135 0.057115
v -0.029043 0.660245 0.057566
v -0.027290 0.660110 0.055452
v 0.002445 -0.849730 0.057038
v -0.001352 -0.849730 0.056405
v -0.003798 -0.850000 0.059367
v -0.002445 -0.850270 0.062962
v 0.001352 -0.850270 0.063595
v 0.003798 -0.850000 0.060633
v 0.002445 -0.849730 0.057038
v -0.001352 -0.849730 0.056405
v -0.003798 -0.850000 0.059367
v -0.002445 -0.850270 0.062962
v 0.001352 -0.850270 0.063595
v 0.003798 -0.850000 0.060633
v 0.000924 -0.590153 0.081359
v -0.005225 -0.590120 0.080337
v -0.009183 -0.590655 0.085123
v -0.006992 -0.591222 0.090931
v -0.000843 -0.591255 0.091953
v 0.003115 -0.590721 0.087167
v -0.000214 -0.359367 0.103374
v -0.008713 -0.359386 0.101956
v -0.014187 -0.359933 0.108589
v -0.011161 -0.360461 0.116639
v -0.002662 -0.360442 0.118057
v 0.002812 -0.359895 0.111425
v -0.003003 -0.099885 0.111513
v -0.013850 -0.100104 0.109696
v -0.020847 -0.100220 0.118183
v -0.016997 -0.100115 0.128487
v -0.006150 -0.099896 0.130304
v 0.000847 -0.099780 0.121817
v -0.010816 0.163123 0.102078
v -0.018948 0.162812 0.100721
v -0.024206 0.163162 0.107069
v -0.021332 0.163824 0.114774
v -0.013200 0.164136 0.116130
v -0.007942 0.163785 0.109782
v -0.019148 0.396921 0.078729
v -0.024568 0.396672 0.077828
v -0.028076 0.397028 0.082049
v -0.026165 0.397633 0.087170
v -0.020745 0.397882 0.088071
v -0.017236 0.397526 0.083850
v -0.028247 0.659865 0.052885
v -0.030957 0.659755 0.052434
v -0.032710 0.659890 0.054548
v -0.031753 0.660135 0.057115
v -0.029043 0.660245 0.057566
v -0.027290 0.660110 0.055452
vn -0.0262 0.9960 -0.0852
vn 0.0133 -0.9967 -0.0797
vn 0.6315 0.0760 -0.7717
vn -0.3497 0.0808 -0.9334
vn -0.9853 -0.0035 -0.1710
vn -0.6382 -0.0937 0.7642
vn 0.3533 -0.0989 0.9303
vn 0.9875 -0.0135 0.1569
vn 0.6348 0.0761 -0.7689
vn -0.3513 0.0814 -0.9327
vn -0.9862 -0.0043 -0.1653
vn -0.6350 -0.0954 0.7666
vn 0.3517 -0.1007 0.9307
vn 0.9866 -0.0149 0.1625
vn 0.6409 0.0534 -0.7658
vn -0.3537 0.0514 -0.9339
vn -0.9878 -0.0126 -0.1554
vn -0.6295 -0.0733 0.7735
vn 0.3487 -0.0709 0.9346
vn 0.9848 -0.0082 0.1737
vn 0.6432 0.0113 -0.7657
vn -0.3534 -0.0089 -0.9354
vn -0.9881 -0.0194 -0.1526
vn -0.6292 -0.0097 0.7772
vn 0.3466 0.0101 0.9379
vn 0.9839 0.0206 0.1776
vn 0.6425 -0.0308 -0.7656
vn -0.3513 -0.0691 -0.9337
vn -0.9875 -0.0260 -0.1554
vn -0.6321 0.0538 0.7730
vn 0.3454 0.0911 0.9340
vn 0.9836 0.0495 0.1734
vn 0.6373 -0.0538 -0.7687
vn -0.3477 -0.0990 -0.9323
vn -0.9856 -0.0343 -0.1653
vn -0.6384 0.0757 0.7660
vn 0.3473 0.1210 0.9299
vn 0.9852 0.0562 0.1622
vn 0.6341 -0.0539 -0.7714
vn -0.3462 -0.0985 -0.9330
vn -0.9846 -0.0353 -0.1710
vn -0.6415 0.0738 0.7636
vn 0.3489 0.1191 0.9296
vn 0.9861 0.0547 0.1566
vt 0.400000 0.000000
vt 0.000000 0.000000
vt 0.200000 0.000000
vt 1.000000 0.000000
vt 0.600000 0.000000
vt 0.800000 0.000000
vt 0.166667 1.000000
vt 0.000000 0.833333
vt 0.000000 1.000000
vt 0.166667 0.166667
vt 0.000000 0.166667
vt 0.000000 0.333333
vt 0.000000 0.500000
vt 0.166667 0.333333
vt 0.000000 0.666667
vt 0.166667 0.500000
vt 0.166667 0.833333
vt 0.333333 1.000000
vt 0.333333 0.166667
vt 0.166667 0.000000
vt 0.333333 0.333333
vt 0.166667 0.666667
vt 0.333333 0.500000
vt 0.333333 0.833333
vt 0.500000 1.000000
vt 0.500000 0.166667
vt 0.333333 0.000000
vt 0.500000 0.333333
vt 0.333333 0.666667
vt 0.500000 0.500000
vt 0.500000 0.833333
vt 0.666667 0.833333
vt 0.666667 0.000000
vt 0.500000 0.000000
vt 0.666667 0.333333
vt 0.666667 0.500000
vt 0.666667 0.666667
vt 0.500000 0.666667
vt 0.666667 1.000000
vt 0.833333 0.833333
vt 0.666667 0.166667
vt 0.833333 0.000000
vt 0.833333 0.333333
vt 0.833333 0.500000
vt 0.833333 0.666667
vt 0.833333 1.000000
vt 1.000000 0.833333
vt 0.833333 0.166667
vt 1.000000 0.333333
vt 1.000000 0.500000
vt 1.000000 0.666667
vt 1.000000 1.000000
vt 1.000000 0.166667
s 1
g B_Quill.001_moth_scale_quill
usemtl moth_scale_quill
f 422/562/410 420/563/410 421/564/410
f 422/562/410 425/565/410 420/563/410
f 423/566/410 425/565/410 422/562/410
f 423/566/410 424/567/410 425/565/410
s 2
f 429/566/411 431/565/411 430/567/411
f 428/562/411 431/565/411 429/566/411
f 428/562/411 426/563/411 431/565/411
f 427/564/411 426/563/411 428/562/411
s 3
f 438/568/418 437/569/417 432/570/412
f 439/571/419 432/563/412 433/572/413
f 434/573/414 439/571/419 433/572/413
f 435/574/415 440/575/420 434/573/414
f 436/576/416 441/577/421 435/574/415
f 443/578/423 436/576/416 437/569/417
f 444/579/424 443/578/423 438/568/418
f 445/580/425 438/581/418 439/571/419
f 440/575/420 445/580/425 439/571/419
f 441/577/421 446/582/426 440/575/420
f 442/583/422 447/584/427 441/577/421
f 449/585/429 442/583/422 443/578/423
f 450/586/430 449/585/429 444/579/424
f 451/587/431 444/588/424 445/580/425
f 446/582/426 451/587/431 445/580/425
f 447/584/427 452/589/432 446/582/426
f 448/590/428 453/591/433 447/584/427
f 455/592/435 448/590/428 449/585/429
f 450/586/430 461/593/441 455/592/435
f 451/587/431 456/594/436 450/595/430
f 458/596/438 451/587/431 452/589/432
f 459/597/439 452/589/432 453/591/433
f 460/598/440 453/591/433 454/599/434
f 455/592/435 460/598/440 454/599/434
f 456/600/436 467/601/447 461/593/441
f 457/602/437 462/603/442 456/594/436
f 464/604/444 457/602/437 458/596/438
f 465/605/445 458/596/438 459/597/439
f 466/606/446 459/597/439 460/598/440
f 461/593/441 466/606/446 460/598/440
f 462/607/442 473/608/453 467/601/447
f 463/609/443 468/565/448 462/603/442
f 470/610/450 463/609/443 464/604/444
f 471/611/451 464/604/444 465/605/445
f 472/612/452 465/605/445 466/606/446
f 467/601/447 472/612/452 466/606/446
f 438/568/418 443/578/423 437/569/417
f 439/571/419 438/581/418 432/563/412
f 434/573/414 440/575/420 439/571/419
f 435/574/415 441/577/421 440/575/420
f 436/576/416 442/583/422 441/577/421
f 443/578/423 442/583/422 436/576/416
f 444/579/424 449/585/429 443/578/423
f 445/580/425 444/588/424 438/581/418
f 440/575/420 446/582/426 445/580/425
f 441/577/421 447/584/427 446/582/426
f 442/583/422 448/590/428 447/584/427
f 449/585/429 448/590/428 442/583/422
f 450/586/430 455/592/435 449/585/429
f 451/587/431 450/595/430 444/588/424
f 446/582/426 452/589/432 451/587/431
f 447/584/427 453/591/433 452/589/432
f 448/590/428 454/599/434 453/591/433
f 455/592/435 454/599/434 448/590/428
f 450/586/430 456/600/436 461/593/441
f 451/587/431 457/602/437 456/594/436
f 458/596/438 457/602/437 451/587/431
f 459/597/439 458/596/438 452/589/432
f 460/598/440 459/597/439 453/591/433
f 455/592/435 461/593/441 460/598/440
f 456/600/436 462/607/442 467/601/447
f 457/602/437 463/609/443 462/603/442
f 464/604/444 463/609/443 457/602/437
f 465/605/445 464/604/444 458/596/438
f 466/606/446 465/605/445 459/597/439
f 461/593/441 467/601/447 466/606/446
f 462/607/442 468/613/448 473/608/453
f 463/609/443 469/614/449 468/565/448
f 470/610/450 469/614/449 463/609/443
f 471/611/451 470/610/450 464/604/444
f 472/612/452 471/611/451 465/605/445
f 467/601/447 473/608/453 472/612/452
