# Blender 5.2.2 LTS
# www.blender.org
mtllib obsidian_shard.mtl
g A_ShadowHull.001_SHADOW_A_ShadowHull_front.001
v 0.226954 -0.785553 0.229182
v 0.225223 -0.790612 0.223921
v 0.232321 -0.785780 0.224332
v 0.225982 -0.787926 0.228333
v 0.229526 -0.785513 0.228538
v 0.228488 -0.787790 0.227715
v 0.228026 -0.789896 0.223979
v 0.225346 -0.789783 0.226401
v 0.228041 -0.789098 0.226355
v 0.231496 -0.785596 0.226757
v 0.230632 -0.788123 0.224130
v 0.229875 -0.787849 0.226462
v 0.225973 -0.788313 0.012003
v 0.232321 -0.785780 0.016707
v 0.225223 -0.790612 0.021684
v 0.228445 -0.788222 0.013271
v 0.225760 -0.789415 0.014986
v 0.228087 -0.789059 0.015354
v 0.230487 -0.787930 0.018287
v 0.230757 -0.787300 0.014984
v 0.229588 -0.788578 0.016408
v 0.225486 -0.790256 0.018527
v 0.227896 -0.789695 0.020104
v 0.227910 -0.789534 0.017542
v 0.237192 0.972055 -0.022207
v 0.218429 0.963976 -0.019569
v 0.237184 0.972105 -0.017368
v 0.244496 0.963562 -0.019580
v 0.230847 0.970200 -0.022007
v 0.240253 0.969764 -0.022111
v 0.236028 0.971449 -0.021017
v 0.223999 0.967264 -0.018269
v 0.223987 0.967246 -0.021043
v 0.230607 0.970674 -0.019750
v 0.240237 0.969829 -0.017353
v 0.230857 0.970236 -0.017464
v 0.236027 0.971476 -0.018530
v 0.242914 0.966668 -0.021153
v 0.242902 0.966716 -0.018159
v 0.240114 0.970361 -0.019749
v -0.112101 0.715666 0.063083
v -0.106112 0.717085 0.067638
v -0.106134 0.722872 0.060799
v -0.110838 0.716658 0.065215
v -0.110510 0.718201 0.062359
v -0.109749 0.718553 0.064559
v -0.106498 0.719636 0.066065
v -0.108666 0.717172 0.066867
v -0.108470 0.719001 0.065722
v -0.108328 0.720837 0.061523
v -0.106506 0.721742 0.063577
v -0.108366 0.720181 0.064033
v -0.106111 0.717029 -0.093047
v -0.112101 0.715666 -0.088462
v -0.106134 0.722872 -0.086543
v -0.108682 0.717111 -0.092291
v -0.106513 0.719597 -0.091615
v -0.108481 0.718969 -0.091241
v -0.110510 0.718201 -0.087853
v -0.110853 0.716616 -0.090629
v -0.109756 0.718534 -0.090062
v -0.106521 0.721722 -0.089250
v -0.108328 0.720836 -0.087151
v -0.108373 0.720167 -0.089619
v -0.626328 -0.162062 0.073672
v -0.625181 -0.154699 0.069305
v -0.627155 -0.162430 0.065377
v -0.626291 -0.193844 0.068864
v -0.626605 -0.159384 0.072583
v -0.626900 -0.172175 0.072391
v -0.627449 -0.165586 0.071059
v -0.626431 -0.156890 0.067852
v -0.626186 -0.156699 0.070990
v -0.627299 -0.160336 0.069542
v -0.627319 -0.172414 0.066358
v -0.627152 -0.159712 0.066419
v -0.627675 -0.165739 0.067983
v -0.626887 -0.183806 0.070631
v -0.627002 -0.183911 0.067634
v -0.627596 -0.173774 0.069401
v -0.550911 -0.850236 0.149089
v -0.554855 -0.845701 0.140300
v -0.549234 -0.852987 0.144291
v -0.553024 -0.848957 0.146627
v -0.550218 -0.852595 0.148619
v -0.552267 -0.851250 0.146242
v -0.553634 -0.848665 0.141005
v -0.554471 -0.847292 0.143401
v -0.553286 -0.850078 0.143971
v -0.549602 -0.853605 0.146859
v -0.551571 -0.851340 0.142470
v -0.551834 -0.851961 0.145002
v -0.561954 -0.757391 -0.040575
v -0.558924 -0.764573 -0.036556
v -0.564097 -0.761366 -0.032201
v -0.561544 -0.760260 -0.039924
v -0.563071 -0.758677 -0.038043
v -0.562581 -0.761192 -0.037881
v -0.561316 -0.764302 -0.035496
v -0.560442 -0.762873 -0.038462
v -0.562016 -0.762969 -0.037059
v -0.563855 -0.760131 -0.034982
v -0.563190 -0.763141 -0.033918
v -0.563103 -0.762114 -0.035963
v -0.473882 -0.875404 0.221283
v -0.482243 -0.876477 0.217757
v -0.477213 -0.880668 0.216004
v -0.476892 -0.875790 0.221044
v -0.474380 -0.877883 0.220169
v -0.477265 -0.878151 0.219955
v -0.481624 -0.878813 0.217113
v -0.479961 -0.876184 0.219750
v -0.479426 -0.878428 0.219044
v -0.475602 -0.879815 0.218231
v -0.479777 -0.880351 0.216470
v -0.478126 -0.879512 0.218591
v -0.494122 -0.878000 0.205878
v -0.492985 -0.880487 0.200541
v -0.485226 -0.881696 0.207990
v -0.494562 -0.879824 0.204467
v -0.491813 -0.880070 0.207188
v -0.492774 -0.880932 0.205496
v -0.490499 -0.881243 0.202816
v -0.494156 -0.880711 0.202563
v -0.492380 -0.881311 0.204144
v -0.488580 -0.881413 0.207955
v -0.487661 -0.881685 0.205542
v -0.490588 -0.881540 0.205861
v 0.279313 -0.691110 -0.176745
v 0.282580 -0.694400 -0.170206
v 0.275855 -0.697619 -0.173507
v 0.281074 -0.692422 -0.175159
v 0.278451 -0.693668 -0.176441
v 0.280095 -0.694440 -0.175123
v 0.280895 -0.696138 -0.171483
v 0.282263 -0.693618 -0.172780
v 0.280870 -0.695222 -0.173553
v 0.277192 -0.696036 -0.175263
v 0.278447 -0.697310 -0.172685
v 0.279262 -0.695989 -0.174340
v 0.555292 -0.189332 -0.042294
v 0.556050 -0.175558 -0.037068
v 0.557270 -0.188888 -0.034151
v 0.555487 -0.198206 -0.037252
v 0.556267 -0.184824 -0.041107
v 0.556075 -0.192415 -0.041186
v 0.557134 -0.188684 -0.039961
v 0.556836 -0.179728 -0.036053
v 0.556544 -0.179790 -0.039197
v 0.557402 -0.184424 -0.038251
v 0.557201 -0.191978 -0.035016
v 0.557282 -0.184605 -0.034986
v 0.557624 -0.188517 -0.036839
v 0.556146 -0.195652 -0.039347
v 0.556549 -0.195385 -0.036150
v 0.557239 -0.192259 -0.038312
v 0.422037 -0.434767 0.255636
v 0.415522 -0.442702 0.259323
v 0.419455 -0.445535 0.254243
v 0.420439 -0.437338 0.257551
v 0.421715 -0.438317 0.255312
v 0.420353 -0.440334 0.257190
v 0.417470 -0.444057 0.258488
v 0.418062 -0.440234 0.258897
v 0.418990 -0.442171 0.258188
v 0.420771 -0.442254 0.254803
v 0.418892 -0.445081 0.256653
v 0.419848 -0.442811 0.256906
v 0.433172 0.255521 0.221493
v 0.438539 0.245225 0.220275
v 0.437894 0.256451 0.216124
v 0.435353 0.252440 0.221839
v 0.435410 0.256258 0.220499
v 0.436585 0.254054 0.220736
v 0.438733 0.248841 0.219049
v 0.437312 0.248681 0.221394
v 0.437656 0.251683 0.220291
v 0.437118 0.256594 0.218556
v 0.438497 0.252948 0.217530
v 0.437585 0.254220 0.219384
v 0.355650 0.540609 -0.139555
v 0.351910 0.552619 -0.138717
v 0.357133 0.551733 -0.133977
v 0.354558 0.544483 -0.139698
v 0.356856 0.544278 -0.138256
v 0.355865 0.547509 -0.138561
v 0.354318 0.552744 -0.137944
v 0.353190 0.548877 -0.139391
v 0.355054 0.550224 -0.138451
v 0.357397 0.548341 -0.136219
v 0.356207 0.552424 -0.136230
v 0.356373 0.550051 -0.137443
v -0.427491 0.056658 0.272509
v -0.430000 0.060000 0.264498
v -0.428745 0.058329 0.270517
v -0.429664 0.059552 0.267585
v -0.426008 0.057238 -0.192749
v -0.430000 0.060000 -0.187681
v -0.428004 0.058619 -0.191979
v -0.429465 0.059630 -0.190124
v -0.420672 0.070722 0.279328
v -0.414970 0.080065 0.279978
v -0.419848 0.080938 0.274659
v -0.419121 0.073802 0.280139
v -0.421053 0.074089 0.278143
v -0.419686 0.076589 0.279052
v -0.417171 0.080883 0.278962
v -0.417038 0.077216 0.280376
v -0.418443 0.078762 0.279302
v -0.420753 0.077822 0.276438
v -0.418938 0.081199 0.277036
v -0.419615 0.078953 0.278058
v -0.299518 0.329119 -0.195836
v -0.294484 0.328509 -0.200970
v -0.298760 0.329210 -0.198293
v -0.296917 0.328986 -0.200172
v -0.465193 0.014135 -0.190300
v -0.472524 0.007664 -0.185898
v -0.468518 0.017630 -0.185273
v -0.467910 0.012081 -0.189552
v -0.466886 0.015781 -0.189480
v -0.468649 0.014174 -0.188969
v -0.471876 0.011090 -0.185905
v -0.470587 0.009718 -0.187945
v -0.470248 0.012671 -0.187840
v -0.468088 0.017044 -0.187664
v -0.470413 0.014731 -0.185677
v -0.469437 0.015008 -0.187752
v 0.415095 -0.432279 0.260239
v 0.420361 -0.434519 0.257850
v 0.417820 -0.433608 0.259535
v -0.403501 0.019209 0.296499
v -0.395099 0.020257 0.299761
v -0.401094 0.019639 0.298217
v -0.398018 0.020023 0.299411
v -0.465193 -0.684590 -0.190300
v -0.467052 -0.691586 -0.185847
v -0.472524 -0.686344 -0.185898
v -0.465816 -0.687276 -0.189624
v -0.467911 -0.685147 -0.189552
v -0.468143 -0.687507 -0.189096
v -0.469350 -0.690501 -0.186491
v -0.466493 -0.689824 -0.188002
v -0.468602 -0.689203 -0.188118
v -0.470586 -0.685787 -0.187946
v -0.471336 -0.688599 -0.186509
v -0.469896 -0.687929 -0.188102
v 0.165163 -0.665329 -0.229698
v 0.174330 -0.666106 -0.227891
v 0.168936 -0.672153 -0.225596
v 0.168157 -0.665576 -0.229536
v 0.166330 -0.667960 -0.229133
v 0.168677 -0.667958 -0.229102
v 0.172852 -0.668516 -0.227887
v 0.171510 -0.665860 -0.228875
v 0.170763 -0.668136 -0.228703
v 0.167705 -0.670446 -0.227639
v 0.170888 -0.670717 -0.227051
v 0.169549 -0.669589 -0.228300
v 0.174330 0.222601 -0.227891
v 0.165162 0.225089 -0.229698
v 0.171517 0.223447 -0.228905
v 0.168161 0.224357 -0.229566
v 0.422037 0.139142 0.255636
v 0.415094 0.139282 0.260239
v 0.420361 0.139475 0.257850
v 0.417820 0.139526 0.259535
vn 0.2267 -0.4206 0.8785
vn 0.1987 -0.7383 0.6445
vn 0.2304 -0.9263 0.2982
vn 0.5317 -0.8038 0.2669
vn 0.7606 -0.5746 0.3022
vn 0.5704 -0.4964 0.6544
vn 0.4539 -0.7122 0.5355
vn 0.2014 -0.9234 -0.3268
vn 0.5098 -0.8250 -0.2438
vn 0.7333 -0.6763 -0.0693
vn 0.5182 -0.8540 0.0465
vn 0.2785 -0.9567 -0.0848
vn 0.1988 -0.9569 -0.2119
vn 0.4029 -0.9006 -0.1631
vn 0.4134 0.5816 0.7006
vn -0.1884 0.9569 -0.2210
vn -0.5078 0.8615 -0.0032
vn -0.4095 0.8867 0.2146
vn -0.2721 0.9334 -0.2339
vn 0.3109 0.9311 0.1907
vn 0.8919 0.4523 -0.0035
vn 0.7704 0.6274 -0.1134
vn 0.2602 0.9655 -0.0106
vn -0.7992 0.5623 0.2121
vn -0.5857 0.5442 0.6006
vn -0.2380 0.4834 0.8424
vn -0.3427 0.7798 0.5240
vn -0.6229 0.7502 0.2218
vn -0.7345 0.6593 0.1610
vn -0.6174 0.6620 0.4249
vn -0.2398 0.4440 -0.8634
vn -0.6906 0.4110 -0.5950
vn -0.8021 0.5559 -0.2181
vn -0.7339 0.6623 -0.1508
vn -0.6280 0.7445 -0.2265
vn -0.4402 0.6673 -0.6009
vn -0.6247 0.6473 -0.4367
vn -0.9202 0.0025 0.3913
vn -0.9769 0.0846 0.1963
vn -0.8789 0.4753 0.0396
vn -0.9693 0.2457 0.0035
vn -0.9899 0.0517 -0.1319
vn -0.9943 -0.0280 -0.1031
vn -0.9970 -0.0664 0.0407
vn -0.9686 -0.0383 0.2457
vn -0.9973 0.0031 0.0733
vn -0.7990 -0.3344 0.4997
vn -0.9111 -0.3398 0.2334
vn -0.9130 -0.3976 -0.0912
vn -0.7019 -0.6715 -0.2375
vn -0.4148 -0.8728 -0.2571
vn -0.6743 -0.7173 0.1755
vn -0.8053 -0.5901 0.0567
vn -0.8414 -0.2309 -0.4886
vn -0.5996 -0.5683 -0.5634
vn -0.3520 -0.8202 -0.4510
vn -0.7313 -0.6448 -0.2224
vn -0.9376 -0.2799 -0.2061
vn -0.9231 -0.1821 -0.3388
vn -0.7846 -0.4479 -0.4288
vn -0.0204 -0.4066 0.9134
vn -0.3247 -0.3532 0.8774
vn -0.5847 -0.3668 0.7236
vn -0.3893 -0.7117 0.5847
vn -0.0415 -0.9175 0.3955
vn 0.0144 -0.7126 0.7015
vn -0.2415 -0.6067 0.7573
vn -0.6958 -0.3978 0.5980
vn -0.5547 -0.8290 0.0708
vn -0.1291 -0.9746 -0.1829
vn -0.0331 -0.9946 -0.0981
vn -0.0844 -0.9932 0.0798
vn -0.4316 -0.7755 0.4608
vn -0.2913 -0.9398 0.1786
vn 0.5238 -0.2726 -0.8070
vn 0.7454 -0.3718 -0.5533
vn 0.7826 -0.5622 -0.2672
vn 0.5368 -0.7691 -0.3470
vn 0.2635 -0.8077 -0.5275
vn 0.3481 -0.5592 -0.7524
vn 0.5642 -0.5933 -0.5742
vn 0.7874 -0.0213 -0.6160
vn 0.9206 0.0943 -0.3788
vn 0.9823 0.1621 -0.0941
vn 0.9941 0.1002 0.0420
vn 0.9908 0.0233 0.1335
vn 0.9937 -0.1104 0.0208
vn 0.9432 -0.3192 -0.0922
vn 0.9144 -0.1846 -0.3602
vn 0.9874 -0.0415 -0.1526
vn 0.8378 -0.1245 0.5316
vn 0.5902 -0.1132 0.7993
vn 0.3307 -0.1803 0.9263
vn 0.6449 -0.4179 0.6399
vn 0.8733 -0.3990 0.2796
vn 0.9127 -0.2253 0.3409
vn 0.7544 -0.2247 0.6168
vn 0.3166 0.2668 0.9103
vn 0.5789 0.1099 0.8080
vn 0.8439 0.1310 0.5202
vn 0.9127 0.1868 0.3635
vn 0.9246 0.2679 0.2708
vn 0.6694 0.3585 0.6507
vn 0.7675 0.2347 0.5965
vn 0.5353 0.1201 -0.8360
vn 0.3743 0.1801 -0.9097
vn 0.2771 0.2613 -0.9246
vn 0.6646 0.3292 -0.6708
vn 0.9236 0.2239 -0.3111
vn 0.8197 0.0851 -0.5665
vn 0.6108 0.2131 -0.7626
vn -0.6962 0.1668 0.6982
vn -0.4786 0.2331 0.8465
vn -0.3021 0.3435 0.8892
vn -0.6068 0.4669 0.6433
vn -0.8716 0.3949 0.2904
vn -0.8636 0.2172 0.4550
vn -0.6695 0.3049 0.6774
vn -0.3568 0.0959 -0.9293
vn -0.5879 0.0175 -0.8088
vn -0.7881 0.1478 -0.5976
vn -0.8376 0.3623 -0.4089
vn -0.7809 0.5513 -0.2938
vn -0.5928 0.4224 -0.6857
vn -0.7125 0.2717 -0.6469
vn -0.2247 -0.1887 -0.9560
vn -0.1433 -0.5041 -0.8517
vn -0.1678 -0.7414 -0.6497
vn -0.5281 -0.5284 -0.6648
vn -0.6911 -0.1739 -0.7015
vn -0.4750 -0.0892 -0.8754
vn -0.3850 -0.3808 -0.8407
vn 0.0369 -0.1940 -0.9803
vn 0.1803 -0.1380 -0.9739
vn 0.3087 -0.1909 -0.9318
vn 0.2285 -0.5168 -0.8250
vn 0.0583 -0.7486 -0.6605
vn -0.0908 -0.4783 -0.8735
vn 0.1437 -0.3740 -0.9162
vn -0.9813 -0.0884 0.1710
vn -0.9224 -0.0588 0.3818
vn -0.8177 -0.0266 0.5751
vn -0.9096 -0.0258 -0.4146
vn -0.9604 -0.0567 -0.2727
vn -0.9885 -0.0862 -0.1243
vn -0.9013 -0.4066 -0.1495
vn -0.6713 -0.6797 -0.2956
vn -0.2924 -0.8652 -0.4073
vn 0.0342 -0.3493 0.9364
vn 0.0862 -0.7321 0.6757
vn 0.1176 -0.9436 0.3096
vn -0.6289 -0.3570 0.6907
vn -0.4254 -0.7327 0.5311
vn -0.0828 -0.9747 0.2077
vn 0.0998 -0.9896 -0.1034
vn 0.0654 -0.9720 -0.2258
vn 0.0299 -0.9383 -0.3446
vn 0.2475 -0.9689 -0.0000
vn 0.5628 -0.8266 -0.0012
vn 0.8111 -0.5849 -0.0011
vn 0.6104 -0.1262 -0.7820
vn 0.7900 -0.2897 -0.5404
vn 0.8769 -0.4192 -0.2354
vn 0.9341 -0.1156 0.3379
vn 0.9410 -0.2544 0.2233
vn 0.9173 -0.3850 0.1014
vn 0.8197 -0.4785 0.3150
vn 0.6069 -0.3946 0.6899
vn 0.2405 -0.2155 0.9464
vn 0.2268 -0.8976 -0.3779
vn 0.5176 -0.8154 -0.2594
vn 0.7539 -0.6471 -0.1137
vn 0.6276 0.0683 -0.7755
vn 0.8315 0.1564 -0.5330
vn 0.9455 0.2276 -0.2328
vn 0.9062 0.3235 -0.2722
vn 0.6592 0.3632 -0.6584
vn 0.2725 0.3260 -0.9053
vn 0.2716 0.3704 0.8883
vn 0.6553 0.3940 0.6445
vn 0.9032 0.3360 0.2671
vn 0.9731 0.2076 0.0998
vn 0.9663 0.1363 0.2184
vn 0.9409 0.0623 0.3328
vn -0.1621 0.4606 -0.8727
vn -0.3826 0.6867 -0.6181
vn -0.5401 0.7998 -0.2619
vn -0.6802 0.7331 -0.0000
vn -0.7702 0.6378 -0.0000
vn -0.8470 0.5316 -0.0000
vn -0.5350 0.8053 0.2554
vn -0.3766 0.7066 0.5991
vn -0.1605 0.4998 0.8511
vn -0.8733 0.4157 -0.2541
vn -0.6628 0.3006 -0.6858
vn -0.2897 0.1117 -0.9506
vn -0.8008 0.1021 0.5901
vn -0.8897 0.2491 0.3825
vn -0.9154 0.3721 0.1536
vn -0.8304 0.4906 0.2639
vn -0.5964 0.4988 0.6289
vn -0.2504 0.4132 0.8755
vn -0.2513 0.3702 -0.8943
vn -0.6013 0.4710 -0.6454
vn -0.8347 0.4799 -0.2701
vn -0.7817 0.1636 0.6018
vn -0.8286 0.3756 0.4151
vn -0.8055 0.5624 0.1868
vn -0.2489 0.1721 -0.9531
vn -0.5554 0.4639 -0.6901
vn -0.7235 0.6414 -0.2555
vn -0.8216 0.5550 -0.1299
vn -0.8815 0.3725 -0.2902
vn -0.8861 0.1667 -0.4324
vn -0.0687 -0.0809 0.9944
vn -0.3830 -0.0471 0.9225
vn -0.6571 -0.0085 0.7538
vn 0.7944 -0.0422 0.6059
vn 0.5465 -0.0606 0.8353
vn 0.2360 -0.0755 0.9688
vn -0.0536 -0.2322 -0.9712
vn -0.0368 -0.5297 -0.8474
vn -0.0161 -0.7720 -0.6354
vn 0.1143 -0.7795 -0.6158
vn 0.2622 -0.5379 -0.8012
vn 0.3800 -0.2346 -0.8947
vn -0.2050 -0.9445 -0.2567
vn -0.6027 -0.7648 0.2278
vn -0.7431 -0.3339 0.5799
vn -0.7681 -0.2439 -0.5920
vn -0.5430 -0.5727 -0.6141
vn -0.2312 -0.8103 -0.5384
vn 0.3458 0.0630 -0.9362
vn 0.2275 0.1381 -0.9639
vn 0.1041 0.2107 -0.9720
vn 0.2388 0.2735 0.9318
vn 0.5458 0.1879 0.8166
vn 0.7876 0.0817 0.6108
vn -0.5792 0.0781 0.8114
vn -0.3867 0.1729 0.9059
vn -0.1717 0.2575 0.9509
vn -0.2655 -0.0000 -0.9641
vn -0.5148 -0.0000 -0.8573
vn -0.7262 -0.0000 -0.6874
vn 0.7974 -0.0000 0.6034
vn 0.5527 -0.0000 0.8334
vn 0.2502 -0.0000 0.9682
vn 0.0538 -0.0000 -0.9986
vn 0.1934 -0.0000 -0.9811
vn 0.3297 -0.0000 -0.9441
vn -0.0000 -0.0876 0.9962
vn 0.1272 -0.9919 -0.0000
vn 0.8762 -0.4819 -0.0000
vn -0.0000 -0.8984 -0.4392
vn -0.0000 0.2676 -0.9635
vn 0.9646 0.2638 -0.0000
vn -0.5963 0.8027 -0.0000
vn -0.0000 0.3162 0.9487
vn -0.8998 0.4363 -0.0000
vn -0.7071 -0.0000 0.7071
vn -0.9940 -0.1089 -0.0000
vn -0.7399 0.6727 -0.0000
vn -0.8517 -0.0000 -0.5241
vn 0.4380 -0.0000 -0.8990
vn 0.9062 -0.0000 0.4229
vn -0.0624 -0.0000 -0.9981
vn 0.0487 -0.0000 0.9988
vn 0.2389 -0.4126 0.8790
vn 0.1988 -0.7383 0.6445
vn 0.2395 -0.9208 0.3080
vn 0.5318 -0.8037 0.2669
vn 0.7513 -0.5815 0.3120
vn 0.1943 -0.9214 -0.3367
vn 0.4882 -0.8095 -0.3261
vn 0.6888 -0.7204 -0.0813
vn 0.5380 -0.8415 -0.0496
vn 0.2630 -0.9630 -0.0588
vn 0.1786 -0.9644 -0.1951
vn -0.2677 0.9390 0.2161
vn -0.4119 0.8820 -0.2290
vn -0.4592 0.8883 -0.0036
vn -0.1882 0.9606 0.2046
vn 0.4184 0.5567 -0.7177
vn 0.7685 0.6318 0.1006
vn 0.7956 0.6058 -0.0064
vn 0.3131 0.9249 -0.2156
vn -0.1440 0.9895 -0.0110
vn -0.8192 0.5386 0.1970
vn -0.6834 0.4388 0.5834
vn -0.3082 0.5285 0.7910
vn -0.4336 0.6872 0.5828
vn -0.6025 0.7744 0.1931
vn -0.7302 0.6676 0.1455
vn -0.3117 0.4929 -0.8123
vn -0.5906 0.5205 -0.6167
vn -0.8233 0.5307 -0.2011
vn -0.7379 0.6547 -0.1639
vn -0.6068 0.7699 -0.1976
vn -0.3473 0.7651 -0.5423
vn -0.9378 0.0429 0.3444
vn -0.9608 0.2360 0.1452
vn -0.9609 0.2705 0.0585
vn -0.9964 0.0784 -0.0312
vn -0.9798 -0.0036 -0.2001
vn -0.9934 -0.0393 -0.1080
vn -0.9970 -0.0654 0.0407
vn -0.9697 -0.0317 0.2424
vn -0.9963 0.0489 0.0709
vn -0.7933 -0.3458 0.5011
vn -0.9103 -0.4049 -0.0861
vn -0.4163 -0.8686 -0.2687
vn -0.8355 -0.1959 -0.5133
vn -0.5642 -0.4877 -0.6662
vn -0.3223 -0.7867 -0.5266
vn -0.6880 -0.6364 -0.3488
vn -0.9462 -0.2713 -0.1763
vn -0.9219 -0.2009 -0.3313
vn -0.0286 -0.4148 0.9095
vn -0.5809 -0.3557 0.7321
vn -0.3891 -0.7118 0.5848
vn -0.0547 -0.9186 0.3914
vn 0.0144 -0.7126 0.7014
vn -0.6263 -0.3769 0.6824
vn -0.5148 -0.8138 0.2695
vn -0.1248 -0.9660 -0.2266
vn -0.0600 -0.9933 -0.0988
vn -0.0387 -0.9945 0.0974
vn -0.3074 -0.7659 0.5648
vn 0.5228 -0.2683 -0.8091
vn 0.7405 -0.3742 -0.5582
vn 0.7875 -0.5599 -0.2576
vn 0.5381 -0.7678 -0.3477
vn 0.2524 -0.8130 -0.5247
vn 0.3397 -0.5631 -0.7534
vn 0.7857 -0.0072 -0.6185
vn 0.9208 0.0930 -0.3787
vn 0.9822 0.1625 -0.0942
vn 0.9969 0.0679 0.0403
vn 0.9909 -0.0565 0.1225
vn 0.9800 -0.1969 0.0279
vn 0.9556 -0.2781 -0.0972
vn 0.9202 -0.1414 -0.3649
vn 0.9879 0.0001 -0.1549
vn 0.8488 -0.0872 0.5215
vn 0.5970 -0.0073 0.8022
vn 0.3245 -0.1120 0.9392
vn 0.6387 -0.3457 0.6874
vn 0.8742 -0.3979 0.2783
vn 0.8930 -0.2614 0.3664
vn 0.3403 0.3392 0.8770
vn 0.5925 0.2171 0.7758
vn 0.8487 0.0939 0.5205
vn 0.9242 0.1512 0.3507
vn 0.9200 0.2775 0.2769
vn 0.6982 0.4337 0.5696
vn 0.5350 0.0847 -0.8406
vn 0.3599 0.1447 -0.9217
vn 0.2818 0.2678 -0.9213
vn 0.5890 0.4004 -0.7020
vn 0.8942 0.2932 -0.3382
vn 0.7903 0.1872 -0.5835
vn -0.7028 0.1303 0.6993
vn -0.4728 0.1710 0.8644
vn -0.2958 0.3213 0.8996
vn -0.6092 0.4732 0.6364
vn -0.8538 0.4220 0.3050
vn -0.8335 0.2837 0.4741
vn -0.3549 0.1324 -0.9255
vn -0.5726 0.0946 -0.8144
vn -0.8038 0.1130 -0.5841
vn -0.8738 0.3172 -0.3687
vn -0.7958 0.5392 -0.2755
vn -0.5920 0.4333 -0.6796
vn -0.2025 -0.1665 -0.9650
vn -0.0930 -0.4785 -0.8732
vn -0.1780 -0.7275 -0.6626
vn -0.5040 -0.5327 -0.6799
vn -0.6934 -0.1723 -0.6996
vn -0.4902 -0.1187 -0.8635
vn 0.0131 -0.1764 -0.9842
vn 0.1757 -0.1317 -0.9756
vn 0.3298 -0.1785 -0.9270
vn 0.3292 -0.4976 -0.8025
vn 0.0714 -0.7008 -0.7098
vn 0.0117 -0.5103 -0.8599
vn -0.9924 -0.1010 0.0709
vn -0.9217 -0.0586 0.3834
vn -0.7619 -0.0121 0.6475
vn -0.9097 -0.0259 -0.4146
vn -0.9885 -0.0862 -0.1244
vn -0.9269 -0.3543 -0.1235
vn -0.6706 -0.6802 -0.2960
vn -0.2796 -0.8685 -0.4094
vn 0.0430 -0.4169 0.9080
vn 0.1190 -0.9529 0.2789
vn -0.6569 -0.2934 0.6946
vn -0.4294 -0.7290 0.5331
vn -0.0842 -0.9744 0.2086
vn 0.0654 -0.9720 -0.2259
vn 0.3242 -0.9460 -0.0011
vn 0.5623 -0.8270 -0.0012
vn 0.7609 -0.6489 -0.0000
vn 0.6102 -0.1260 -0.7822
vn 0.8769 -0.4193 -0.2351
vn 0.8290 -0.4812 0.2847
vn 0.6068 -0.3945 0.6900
vn 0.2505 -0.2206 0.9427
vn 0.2268 -0.8977 -0.3779
vn 0.5176 -0.8153 -0.2594
vn 0.7538 -0.6472 -0.1137
vn 0.6277 0.0683 -0.7755
vn 0.9455 0.2276 -0.2329
vn 0.9059 0.3237 -0.2732
vn 0.6592 0.3632 -0.6585
vn 0.2735 0.3262 -0.9049
vn 0.2725 0.3705 0.8880
vn 0.9028 0.3363 0.2680
vn 0.9731 0.2076 0.0999
vn -0.1625 0.4611 -0.8723
vn -0.5399 0.7997 -0.2626
vn -0.6802 0.7330 -0.0000
vn -0.8469 0.5317 -0.0000
vn -0.5348 0.8053 0.2560
vn -0.1609 0.5002 0.8508
vn -0.6629 0.3006 -0.6857
vn -0.8065 0.1129 0.5803
vn -0.8893 0.2474 0.3847
vn -0.9166 0.3625 0.1689
vn -0.8304 0.4907 0.2641
vn -0.2505 0.4133 0.8755
vn -0.2258 0.3610 -0.9048
vn -0.6012 0.4710 -0.6455
vn -0.8446 0.4770 -0.2430
vn -0.7761 0.1480 0.6130
vn -0.8285 0.3749 0.4159
vn -0.8014 0.5734 0.1704
vn -0.2711 0.1911 -0.9434
vn -0.5555 0.4640 -0.6900
vn -0.7172 0.6358 -0.2851
vn -0.8216 0.5551 -0.1299
vn -0.8861 0.1667 -0.4325
vn -0.1124 -0.0769 0.9907
vn -0.3560 -0.0503 0.9331
vn -0.5785 -0.0205 0.8154
vn 0.5325 -0.0746 0.8432
vn 0.2097 -0.0862 0.9740
vn -0.0536 -0.2321 -0.9712
vn -0.0161 -0.7721 -0.6353
vn 0.1144 -0.7795 -0.6158
vn 0.3801 -0.2345 -0.8947
vn -0.2255 -0.9453 -0.2355
vn -0.6027 -0.7647 0.2278
vn -0.7448 -0.2865 0.6026
vn -0.7680 -0.2442 -0.5920
vn -0.2315 -0.8102 -0.5385
vn 0.3538 0.0576 -0.9335
vn 0.2275 0.1382 -0.9639
vn 0.0952 0.2158 -0.9718
vn 0.2168 0.2787 0.9356
vn 0.5454 0.1880 0.8168
vn 0.8005 0.0737 0.5948
vn -0.5881 0.0725 0.8055
vn -0.3754 0.1786 0.9095
vn -0.1359 0.2719 0.9527
vn -0.2656 -0.0000 -0.9641
vn -0.7262 -0.0000 -0.6875
vn 0.7974 -0.0000 0.6035
vn 0.5526 -0.0000 0.8334
vn 0.0438 -0.0000 -0.9990
vn 0.3391 -0.0000 -0.9407
vn -0.0002 -0.0874 0.9962
vn -0.0000 -0.0873 0.9962
vn 0.0002 0.3141 0.9494
vt 0.721024 0.051862
vt 0.722319 0.050656
vt 0.723194 0.051884
vt 0.720204 0.134908
vt 0.721941 0.138642
vt 0.722319 0.136074
vt 0.721929 0.143130
vt 0.719668 0.138556
vt 0.719564 0.143241
vt 0.724127 0.142845
vt 0.137883 0.051839
vt 0.142845 0.050476
vt 0.142465 0.051740
vt 0.723489 0.050624
vt 0.724856 0.051839
vt 0.723489 0.138442
vt 0.722282 0.541099
vt 0.720017 0.537860
vt 0.720197 0.543494
vt 0.724232 0.537864
vt 0.721980 0.537165
vt 0.531626 0.050580
vt 0.537864 0.050920
vt 0.534610 0.051740
vt 0.724005 0.531626
vt 0.721831 0.533033
vt 0.723246 0.535175
vt 0.719786 0.531172
vt 0.721819 0.528194
vt 0.719564 0.525210
vt 0.729662 0.999973
vt 0.728679 0.999646
vt 0.732244 0.998737
vt 0.724308 0.607731
vt 0.724106 0.603466
vt 0.728679 0.605860
vt 0.718532 0.600671
vt 0.718521 0.605909
vt 0.713832 0.603126
vt 0.724317 0.599151
vt 0.729655 0.598969
vt 0.728679 0.601163
vt 0.732231 0.598940
vt 0.732127 0.603465
vt 0.606118 0.997068
vt 0.600462 0.997093
vt 0.603146 0.995392
vt 0.607926 0.998737
vt 0.603465 0.999060
vt 0.442992 0.862204
vt 0.448387 0.863036
vt 0.447019 0.861669
vt 0.437872 0.862481
vt 0.436958 0.863226
vt 0.436040 0.862204
vt 0.439701 0.863810
vt 0.440027 0.862434
vt 0.439701 0.441386
vt 0.438125 0.445224
vt 0.438038 0.442035
vt 0.438158 0.449965
vt 0.439695 0.446087
vt 0.440008 0.451333
vt 0.445224 0.864104
vt 0.449965 0.864458
vt 0.436958 0.444231
vt 0.437858 0.862448
vt 0.439689 0.863789
vt 0.440028 0.862404
vt 0.740478 0.862448
vt 0.736267 0.863216
vt 0.738494 0.863450
vt 0.732095 0.863036
vt 0.737338 0.862181
vt 0.733244 0.861669
vt 0.735431 0.864097
vt 0.439681 0.734733
vt 0.438158 0.730769
vt 0.440008 0.729620
vt 0.439689 0.739201
vt 0.438119 0.735431
vt 0.438028 0.738494
vt 0.436952 0.736267
vt 0.427019 0.388194
vt 0.431954 0.386293
vt 0.429439 0.382738
vt 0.429076 0.389639
vt 0.434820 0.389125
vt 0.438011 0.390984
vt 0.432084 0.391087
vt 0.435267 0.392165
vt 0.440719 0.389462
vt 0.442686 0.387995
vt 0.437763 0.386210
vt 0.440833 0.382610
vt 0.435085 0.381876
vt 0.432762 0.376464
vt 0.438422 0.376407
vt 0.436100 0.371050
vt 0.284578 0.016970
vt 0.289954 0.016423
vt 0.285464 0.015698
vt 0.289228 0.017660
vt 0.294243 0.017056
vt 0.299845 0.017818
vt 0.295320 0.018558
vt 0.301176 0.019417
vt 0.297078 0.016375
vt 0.066178 0.293639
vt 0.063985 0.292296
vt 0.064207 0.297078
vt 0.065868 0.288790
vt 0.063619 0.289954
vt 0.292296 0.016040
vt 0.641570 0.065506
vt 0.638019 0.066360
vt 0.642800 0.067054
vt 0.638809 0.064097
vt 0.637712 0.065004
vt 0.058003 0.635209
vt 0.055395 0.636158
vt 0.056722 0.638809
vt 0.633206 0.063326
vt 0.634089 0.064506
vt 0.636158 0.064045
vt 0.632235 0.065576
vt 0.630227 0.063952
vt 0.626985 0.064910
vt 0.127211 0.003186
vt 0.129330 0.002057
vt 0.129750 0.003394
vt 0.124622 0.002973
vt 0.126896 0.001912
vt 0.122697 0.002815
vt 0.125073 0.001762
vt 0.124777 0.157314
vt 0.125073 0.152451
vt 0.123219 0.156098
vt 0.126941 0.158194
vt 0.126170 0.153307
vt 0.128299 0.153988
vt 0.126896 0.150730
vt 0.126170 0.001178
vt 0.177318 0.001993
vt 0.178040 0.000412
vt 0.174845 0.000877
vt 0.112303 0.179983
vt 0.114145 0.180595
vt 0.113812 0.178040
vt 0.115731 0.183101
vt 0.112646 0.183580
vt 0.113634 0.187399
vt 0.115657 0.177351
vt 0.117350 0.173395
vt 0.118125 0.177954
vt 0.120180 0.173329
vt 0.114623 0.174845
vt 0.766684 0.102101
vt 0.764471 0.101428
vt 0.765198 0.102808
vt 0.896991 0.102101
vt 0.893958 0.100590
vt 0.896923 0.101012
vt 0.890049 0.100096
vt 0.892498 0.101455
vt 0.887637 0.101033
vt 0.766533 0.890049
vt 0.765155 0.895445
vt 0.766511 0.893958
vt 0.763409 0.897187
vt 0.764467 0.892319
vt 0.762280 0.893872
vt 0.765155 0.100176
vt 0.763409 0.100151
vt 0.765857 0.896923
vt 0.646046 0.373483
vt 0.641640 0.373833
vt 0.643954 0.371820
vt 0.643805 0.375915
vt 0.638410 0.376131
vt 0.634259 0.378664
vt 0.640198 0.378631
vt 0.636177 0.380914
vt 0.632243 0.376033
vt 0.630666 0.373723
vt 0.635744 0.373923
vt 0.632301 0.372056
vt 0.638526 0.371905
vt 0.640480 0.370074
vt 0.634442 0.370218
vt 0.636523 0.368696
vt 0.079723 0.239701
vt 0.083952 0.239173
vt 0.083341 0.241088
vt 0.882256 0.238139
vt 0.884189 0.238085
vt 0.884262 0.239701
vt 0.880113 0.236807
vt 0.883039 0.237094
vt 0.077953 0.236076
vt 0.080942 0.236749
vt 0.078520 0.237094
vt 0.085970 0.235279
vt 0.081420 0.235524
vt 0.084914 0.237049
vt 0.080404 0.238085
vt 0.895004 0.613452
vt 0.897884 0.612660
vt 0.896892 0.613849
vt 0.896844 0.611789
vt 0.898787 0.611381
vt 0.152443 0.609848
vt 0.148013 0.609762
vt 0.150127 0.607898
vt 0.155311 0.612064
vt 0.150096 0.611381
vt 0.157967 0.613953
vt 0.151810 0.612750
vt 0.149704 0.613849
vt 0.153373 0.614030
vt 0.149256 0.612660
vt 0.828680 0.769327
vt 0.830618 0.769216
vt 0.829601 0.767237
vt 0.827525 0.771697
vt 0.829782 0.770959
vt 0.826446 0.773716
vt 0.829098 0.772424
vt 0.830071 0.773611
vt 0.828477 0.773783
vt 0.819210 0.773238
vt 0.825757 0.772331
vt 0.823465 0.773611
vt 0.823444 0.771408
vt 0.827869 0.770959
vt 0.830211 0.772331
vt 0.175950 0.515426
vt 0.174321 0.515581
vt 0.174642 0.513765
vt 0.177708 0.517268
vt 0.175474 0.516930
vt 0.179453 0.518805
vt 0.176522 0.518102
vt 0.177596 0.519246
vt 0.175534 0.518205
vt 0.047410 0.519276
vt 0.040991 0.518205
vt 0.042921 0.519417
vt 0.044051 0.517595
vt 0.039113 0.516930
vt 0.137081 0.483240
vt 0.134165 0.483261
vt 0.135652 0.484128
vt 0.134789 0.482132
vt 0.132816 0.482450
vt 0.917288 0.481598
vt 0.921140 0.480857
vt 0.917275 0.479749
vt 0.916857 0.483562
vt 0.920943 0.482450
vt 0.916095 0.485126
vt 0.920776 0.483711
vt 0.133501 0.483711
vt 0.134639 0.484809
vt 0.923076 0.483261
vt 0.136555 0.104876
vt 0.134788 0.106025
vt 0.137081 0.106325
vt 0.135984 0.103502
vt 0.134592 0.104752
vt 0.133574 0.918394
vt 0.135984 0.921248
vt 0.135512 0.917178
vt 0.133574 0.103136
vt 0.133113 0.104524
vt 0.134205 0.103837
vt 0.132531 0.105680
vt 0.131898 0.104163
vt 0.130896 0.105379
vt 0.671419 0.116582
vt 0.669878 0.115296
vt 0.668893 0.116715
vt 0.674247 0.116429
vt 0.671858 0.115297
vt 0.675380 0.114996
vt 0.676627 0.116296
vt 0.673723 0.113809
vt 0.673618 0.115201
vt 0.671038 0.996111
vt 0.673723 0.995001
vt 0.672076 0.992253
vt 0.671038 0.113955
vt 0.672594 0.114417
vt 0.062466 0.299845
vt 0.055985 0.633206
vt 0.720204 0.050582
vt 0.129330 0.150328
vt 0.114623 0.000877
vt 0.123219 0.001555
vt 0.998693 0.371820
vt 0.881757 0.236076
vt 0.998856 0.375915
vt 0.998033 0.373483
vt 0.827292 0.769216
vt 0.826703 0.773783
vt 0.732231 0.998773
vt 0.729655 1.000000
vt 0.598940 0.998773
vt 0.724308 0.998973
vt 0.724317 0.998992
vt 0.936044 0.653153
vt 0.925256 0.507782
vt 0.920642 0.507981
vt 0.277495 0.653202
vt 0.168456 0.507236
vt 0.167224 0.507782
vt 0.279050 0.653081
vt 0.170140 0.506491
vt 0.038593 0.513765
vt 0.055233 0.507080
vt 0.051471 0.506179
vt 0.040829 0.515581
vt 0.060771 0.507740
vt 0.066602 0.507981
vt 0.281103 0.652824
vt 0.436026 0.862181
vt 0.940685 0.653202
vt 0.920610 0.484809
vt 0.193754 0.486416
vt 0.191159 0.486209
vt 0.189128 0.485977
vt 0.079158 0.241222
vt 0.882052 0.241713
vt 0.879753 0.242430
vt 0.065348 0.285464
vt 0.918430 0.104163
vt 0.055792 0.065506
vt 0.056722 0.064097
vt 0.674253 0.596150
vt 0.671422 0.596641
vt 0.668892 0.597035
vt 0.879752 0.550749
vt 0.882052 0.550880
vt 0.898497 0.609762
vt 0.079158 0.550853
vt 0.196218 0.486543
vt 0.132530 0.480857
vt 0.921142 0.105680
vt 0.083341 0.550673
vt 0.884196 0.550853
vt 0.884196 0.241222
vt 0.676627 0.595694
vt 0.154883 0.002815
vt 0.006161 0.485977
vt 0.917275 0.105379
vt 0.138442 0.050624
vt 0.729662 0.608108
vt 0.728679 0.999661
vt 0.732244 0.607926
vt 0.444231 0.863226
vt 0.439872 0.862481
vt 0.442035 0.863467
vt 0.438038 0.863467
vt 0.438028 0.863450
vt 0.436952 0.863216
vt 0.730769 0.864458
vt 0.055395 0.064045
vt 0.054918 0.065004
vt 0.112675 0.001993
vt 0.112303 0.001010
vt 0.113812 0.000412
vt 0.765857 0.101012
vt 0.882956 0.235524
vt 0.883763 0.236749
vt 0.037061 0.515426
vt 0.176105 0.519417
vt 0.134205 0.921467
vt 0.054404 0.630227
vt 0.179983 0.001010
vt 0.168889 0.506179
vt 0.001137 0.388194
vt 0.064763 0.016970
s 0
g A_ShadowHull.001_obsidian_shard_obsidian
usemtl obsidian_shard_obsidian
f 1/1/1 6/2/1 5/3/1
f 4/4/2 9/5/2 6/6/2
f 7/7/3 8/8/3 2/9/3
f 11/10/4 9/5/4 7/7/4
f 10/11/5 11/12/5 3/13/5
f 5/3/6 12/14/6 10/15/6
f 6/6/7 9/5/7 12/16/7
f 16/17/8 17/18/8 13/19/8
f 20/20/9 18/21/9 16/17/9
f 19/22/10 20/23/10 14/24/10
f 19/25/11 24/26/11 21/27/11
f 22/28/12 23/29/12 15/30/12
f 17/18/13 24/26/13 22/28/13
f 18/21/14 21/27/14 24/26/14
f 25/31/15 31/32/15 30/33/15
f 29/34/16 34/35/16 31/36/16
f 32/37/17 33/38/17 26/39/17
f 36/40/18 34/35/18 32/37/18
f 27/41/19 37/42/19 36/40/19
f 35/43/20 40/44/20 37/42/20
f 38/45/21 39/46/21 28/47/21
f 30/48/22 40/49/22 38/45/22
f 31/36/23 37/42/23 40/44/23
f 44/50/24 45/51/24 41/52/24
f 48/53/25 46/54/25 44/55/25
f 47/56/26 48/53/26 42/57/26
f 47/58/27 52/59/27 49/60/27
f 50/61/28 51/62/28 43/63/28
f 45/51/29 52/64/29 50/65/29
f 46/66/30 49/60/30 52/59/30
f 56/67/31 57/68/31 53/69/31
f 56/70/32 61/71/32 58/72/32
f 59/73/33 60/74/33 54/75/33
f 59/73/34 64/76/34 61/71/34
f 62/77/35 63/78/35 55/79/35
f 57/80/36 64/81/36 62/77/36
f 58/82/37 61/83/37 64/81/37
f 65/84/38 71/85/38 70/86/38
f 69/87/39 74/88/39 71/85/39
f 72/89/40 73/90/40 66/91/40
f 76/92/41 74/88/41 72/89/41
f 67/93/42 77/94/42 76/92/42
f 75/95/43 80/96/43 77/94/43
f 78/97/44 79/98/44 68/99/44
f 70/86/45 80/96/45 78/97/45
f 71/85/46 77/94/46 80/96/46
f 81/100/47 86/101/47 85/102/47
f 84/103/48 89/104/48 86/101/48
f 87/105/49 88/106/49 82/107/49
f 91/108/50 89/104/50 87/105/50
f 83/109/51 92/110/51 91/111/51
f 90/112/52 86/113/52 92/110/52
f 86/101/53 89/104/53 92/114/53
f 96/115/54 97/116/54 93/117/54
f 100/118/55 98/119/55 96/115/55
f 94/120/56 101/121/56 100/122/56
f 99/123/57 104/124/57 101/125/57
f 102/126/58 103/127/58 95/128/58
f 102/126/59 98/119/59 104/124/59
f 98/119/60 101/125/60 104/124/60
f 108/129/61 109/130/61 105/131/61
f 112/132/62 110/133/62 108/129/62
f 106/134/63 113/135/63 112/132/63
f 115/136/64 113/137/64 111/138/64
f 107/139/65 116/140/65 115/136/65
f 114/141/66 110/142/66 116/140/66
f 110/133/67 113/135/67 116/143/67
f 117/144/68 122/145/68 121/146/68
f 120/147/69 125/148/69 122/149/69
f 123/150/70 124/151/70 118/152/70
f 123/150/71 128/153/71 125/148/71
f 126/154/72 127/155/72 119/156/72
f 121/157/73 128/153/73 126/154/73
f 122/149/74 125/148/74 128/153/74
f 132/158/75 133/159/75 129/160/75
f 132/161/76 137/162/76 134/163/76
f 135/164/77 136/165/77 130/166/77
f 135/167/78 140/168/78 137/169/78
f 138/170/79 139/171/79 131/172/79
f 133/159/80 140/173/80 138/174/80
f 134/175/81 137/169/81 140/168/81
f 141/176/82 147/177/82 146/178/82
f 145/179/83 150/180/83 147/177/83
f 148/181/84 149/182/84 142/183/84
f 152/184/85 150/180/85 148/181/85
f 143/185/86 153/186/86 152/184/86
f 151/187/87 156/188/87 153/186/87
f 154/189/88 155/190/88 144/191/88
f 146/178/89 156/188/89 154/189/89
f 147/177/90 153/186/90 156/188/90
f 160/192/91 161/193/91 157/194/91
f 164/195/92 162/196/92 160/197/92
f 158/198/93 165/199/93 164/195/93
f 163/200/94 168/201/94 165/202/94
f 159/203/95 168/201/95 167/204/95
f 166/205/96 162/206/96 168/201/96
f 162/206/97 165/202/97 168/201/97
f 169/207/98 174/208/98 173/209/98
f 172/210/99 177/211/99 174/208/99
f 175/212/100 176/213/100 170/214/100
f 179/215/101 177/216/101 175/212/101
f 171/217/102 180/218/102 179/215/102
f 173/219/103 180/218/103 178/220/103
f 174/221/104 177/216/104 180/218/104
f 184/222/105 185/223/105 181/224/105
f 188/225/106 186/226/106 184/222/106
f 182/227/107 189/228/107 188/225/107
f 191/229/108 189/228/108 187/230/108
f 183/231/109 192/232/109 191/233/109
f 190/234/110 186/235/110 192/232/110
f 186/226/111 189/228/111 192/236/111
f 204/237/112 205/238/112 201/239/112
f 208/240/113 206/241/113 204/237/113
f 202/242/114 209/243/114 208/240/114
f 207/244/115 212/245/115 209/243/115
f 203/246/116 212/247/116 211/248/116
f 210/249/117 206/250/117 212/247/117
f 206/241/118 209/243/118 212/245/118
f 217/251/119 222/252/119 221/253/119
f 220/254/120 225/255/120 222/252/120
f 223/256/121 224/257/121 218/258/121
f 227/259/122 225/260/122 223/256/122
f 219/261/123 228/262/123 227/259/123
f 221/253/124 228/263/124 226/264/124
f 222/265/125 225/260/125 228/262/125
f 239/266/126 240/267/126 236/268/126
f 243/269/127 241/270/127 239/266/127
f 242/271/128 243/272/128 237/273/128
f 242/274/129 247/275/129 244/276/129
f 245/277/130 246/278/130 238/279/130
f 245/277/131 241/270/131 247/275/131
f 241/270/132 244/276/132 247/275/132
f 251/280/133 252/281/133 248/282/133
f 255/283/134 253/284/134 251/280/134
f 254/285/135 255/283/135 249/286/135
f 258/287/136 256/288/136 254/285/136
f 257/289/137 258/290/137 250/291/137
f 257/292/138 253/284/138 259/293/138
f 253/284/139 256/288/139 259/293/139
f 68/99/140 88/106/140 78/97/140
f 78/97/141 84/103/141 70/86/141
f 70/86/142 81/100/142 65/84/142
f 93/117/143 75/95/143 67/93/143
f 97/116/144 79/98/144 75/95/144
f 102/126/145 68/99/145 79/98/145
f 82/107/146 103/127/146 87/105/146
f 87/294/147 99/295/147 91/111/147
f 91/111/148 94/120/148 83/109/148
f 105/131/149 4/296/149 1/1/149
f 109/297/150 8/8/150 4/4/150
f 114/141/151 2/9/151 8/8/151
f 106/134/152 121/298/152 111/299/152
f 111/138/153 126/154/153 115/136/153
f 115/136/154 119/156/154 107/139/154
f 119/156/155 22/28/155 15/30/155
f 127/155/156 17/18/156 22/28/156
f 123/150/157 13/19/157 17/18/157
f 15/30/158 7/7/158 2/9/158
f 23/29/159 11/10/159 7/7/159
f 19/22/160 3/13/160 11/12/160
f 129/160/161 146/300/161 132/158/161
f 132/161/162 154/189/162 136/165/162
f 136/165/163 144/191/163 130/166/163
f 157/194/164 151/187/164 143/185/164
f 161/193/165 155/190/165 151/187/165
f 166/205/166 144/191/166 155/190/166
f 159/203/167 10/11/167 3/13/167
f 10/15/168 163/301/168 5/3/168
f 5/3/169 158/198/169 1/1/169
f 13/19/170 139/171/170 16/17/170
f 16/17/171 135/167/171 20/20/171
f 20/23/172 130/166/172 14/24/172
f 181/224/173 145/302/173 141/303/173
f 185/304/174 149/182/174 145/179/174
f 190/234/175 142/183/175 149/182/175
f 28/47/176 191/233/176 38/45/176
f 38/45/177 187/305/177 30/48/177
f 30/33/178 182/227/178 25/31/178
f 169/207/179 35/306/179 27/307/179
f 173/219/180 39/46/180 35/308/180
f 178/220/181 28/47/181 39/46/181
f 142/183/182 179/215/182 148/181/182
f 148/181/183 175/212/183 152/184/183
f 152/184/184 170/214/184 143/185/184
f 53/69/185 29/309/185 25/31/185
f 57/80/186 33/38/186 29/34/186
f 62/77/187 26/39/187 33/38/187
f 43/63/188 63/78/188 50/61/188
f 50/65/189 59/73/189 45/51/189
f 45/51/190 54/75/190 41/52/190
f 26/39/191 51/62/191 32/37/191
f 32/37/192 47/58/192 36/40/192
f 36/310/193 42/57/193 27/307/193
f 213/311/194 200/312/194 198/313/194
f 215/314/195 199/315/195 200/316/195
f 216/317/196 197/318/196 199/315/196
f 201/319/197 195/320/197 193/321/197
f 205/322/198 196/323/198 195/320/198
f 210/249/199 194/324/199 196/323/199
f 41/52/200 211/248/200 44/50/200
f 44/55/201 207/244/201 48/53/201
f 48/53/202 202/242/202 42/57/202
f 214/325/203 56/67/203 53/69/203
f 216/317/204 60/326/204 56/67/204
f 215/327/205 54/75/205 60/74/205
f 193/321/206 69/87/206 65/84/206
f 69/87/207 196/323/207 73/90/207
f 73/90/208 194/324/208 66/91/208
f 217/251/209 199/315/209 197/318/209
f 221/253/210 200/316/210 199/315/210
f 226/328/211 198/313/211 200/312/211
f 66/91/212 227/259/212 72/89/212
f 72/89/213 223/256/213 76/92/213
f 76/92/214 218/258/214 67/93/214
f 105/131/215 235/329/215 108/129/215
f 108/129/216 234/330/216 112/132/216
f 112/132/217 232/331/217 106/134/217
f 157/194/218 230/332/218 160/192/218
f 160/197/219 231/333/219 164/195/219
f 164/195/220 229/334/220 158/198/220
f 248/282/221 239/266/221 236/268/221
f 252/281/222 243/269/222 239/266/222
f 257/289/223 237/273/223 243/272/223
f 131/172/224 258/290/224 138/170/224
f 138/174/225 254/285/225 133/159/225
f 133/159/226 249/286/226 129/160/226
f 118/152/227 90/112/227 83/109/227
f 124/151/228 85/335/228 90/112/228
f 85/102/229 117/144/229 81/100/229
f 93/117/230 246/336/230 96/115/230
f 96/337/231 242/274/231 100/338/231
f 100/122/232 237/273/232 94/120/232
f 181/224/233 262/339/233 184/222/233
f 184/222/234 263/340/234 188/225/234
f 188/225/235 261/341/235 182/227/235
f 265/342/236 172/210/236 169/207/236
f 267/343/237 176/344/237 172/210/237
f 266/345/238 170/214/238 176/213/238
f 201/239/239 234/330/239 204/237/239
f 204/237/240 235/329/240 208/240/240
f 208/240/241 233/346/241 202/242/241
f 236/268/242 220/254/242 217/251/242
f 240/267/243 224/347/243 220/254/243
f 245/348/244 218/258/244 224/257/244
f 264/349/245 230/332/245 157/194/245
f 266/350/246 231/333/246 230/351/246
f 267/343/247 229/334/247 231/333/247
f 248/282/248 263/340/248 251/280/248
f 251/280/249 262/339/249 255/283/249
f 255/283/250 260/352/250 249/286/250
f 1/1/251 158/198/251 229/334/251
f 107/139/252 15/30/252 2/9/252
f 159/203/253 14/24/253 130/166/253
f 118/152/254 83/109/254 94/120/254
f 53/69/255 182/227/255 261/341/255
f 183/231/256 171/217/256 142/183/256
f 55/79/257 43/63/257 26/39/257
f 42/57/258 202/242/258 169/207/258
f 41/52/259 54/75/259 213/311/259
f 106/353/260 232/354/260 65/84/260
f 68/99/261 95/128/261 82/107/261
f 194/324/262 219/261/262 66/91/262
f 67/93/263 238/355/263 93/117/263
f 260/352/264 141/303/264 249/286/264
f 143/185/265 264/349/265 157/194/265
f 261/341/266 248/282/266 197/318/266
f 233/346/267 229/334/267 265/342/267
f 1/1/268 4/296/268 6/2/268
f 4/4/269 8/8/269 9/5/269
f 7/7/270 9/5/270 8/8/270
f 11/10/271 12/16/271 9/5/271
f 10/11/272 12/356/272 11/12/272
f 5/3/6 6/2/6 12/14/6
f 16/17/273 18/21/273 17/18/273
f 20/20/274 21/27/274 18/21/274
f 19/25/275 21/27/275 20/20/275
f 19/25/276 23/29/276 24/26/276
f 22/28/277 24/26/277 23/29/277
f 17/18/278 18/21/278 24/26/278
f 25/357/279 29/34/279 31/36/279
f 29/34/280 33/38/280 34/35/280
f 32/37/281 34/35/281 33/38/281
f 36/40/282 37/42/282 34/35/282
f 27/307/283 35/306/283 37/358/283
f 35/308/284 39/46/284 40/49/284
f 38/45/285 40/49/285 39/46/285
f 30/359/286 31/36/286 40/44/286
f 31/36/287 34/35/287 37/42/287
f 44/50/288 46/360/288 45/51/288
f 48/361/289 49/362/289 46/360/289
f 47/56/290 49/363/290 48/53/290
f 47/58/291 51/62/291 52/59/291
f 50/61/292 52/59/292 51/62/292
f 45/51/293 46/360/293 52/64/293
f 56/67/294 58/364/294 57/68/294
f 56/67/295 60/326/295 61/365/295
f 59/73/296 61/71/296 60/74/296
f 59/73/297 63/366/297 64/76/297
f 62/77/298 64/81/298 63/78/298
f 57/80/299 58/82/299 64/81/299
f 65/84/300 69/87/300 71/85/300
f 69/87/301 73/90/301 74/88/301
f 72/89/302 74/88/302 73/90/302
f 76/92/303 77/94/303 74/88/303
f 67/93/304 75/95/304 77/94/304
f 75/95/305 79/98/305 80/96/305
f 78/97/306 80/96/306 79/98/306
f 70/86/307 71/85/307 80/96/307
f 71/85/308 74/88/308 77/94/308
f 81/100/309 84/103/309 86/101/309
f 84/103/48 88/106/48 89/104/48
f 87/105/310 89/104/310 88/106/310
f 91/108/50 92/114/50 89/104/50
f 83/109/311 90/112/311 92/110/311
f 90/112/52 85/335/52 86/113/52
f 96/115/312 98/119/312 97/116/312
f 100/338/313 101/367/313 98/368/313
f 94/120/314 99/295/314 101/121/314
f 99/123/315 103/127/315 104/124/315
f 102/126/316 104/124/316 103/127/316
f 102/126/317 97/116/317 98/119/317
f 108/129/318 110/133/318 109/130/318
f 112/132/62 113/135/62 110/133/62
f 106/134/319 111/299/319 113/135/319
f 115/136/320 116/140/320 113/137/320
f 107/139/321 114/141/321 116/140/321
f 114/141/322 109/297/322 110/142/322
f 117/369/323 120/370/323 122/371/323
f 120/147/324 124/151/324 125/148/324
f 123/150/325 125/148/325 124/151/325
f 123/150/326 127/155/326 128/153/326
f 126/154/327 128/153/327 127/155/327
f 121/157/328 122/149/328 128/153/328
f 132/158/329 134/372/329 133/159/329
f 132/161/330 136/165/330 137/162/330
f 135/164/331 137/162/331 136/165/331
f 135/167/332 139/171/332 140/168/332
f 138/170/333 140/168/333 139/171/333
f 133/159/334 134/372/334 140/173/334
f 141/176/335 145/179/335 147/177/335
f 145/179/336 149/182/336 150/180/336
f 148/181/337 150/180/337 149/182/337
f 152/184/338 153/186/338 150/180/338
f 143/185/339 151/187/339 153/186/339
f 151/187/340 155/190/340 156/188/340
f 154/189/341 156/188/341 155/190/341
f 146/178/342 147/177/342 156/188/342
f 147/177/343 150/180/343 153/186/343
f 160/192/344 162/206/344 161/193/344
f 164/195/345 165/199/345 162/196/345
f 158/198/346 163/301/346 165/199/346
f 163/301/347 167/373/347 168/374/347
f 159/203/348 166/205/348 168/201/348
f 166/205/349 161/193/349 162/206/349
f 169/207/350 172/210/350 174/208/350
f 172/210/351 176/344/351 177/211/351
f 175/212/352 177/216/352 176/213/352
f 179/215/353 180/218/353 177/216/353
f 171/217/354 178/220/354 180/218/354
f 173/219/355 174/221/355 180/218/355
f 184/222/356 186/226/356 185/223/356
f 188/225/357 189/228/357 186/226/357
f 182/227/358 187/230/358 189/228/358
f 191/229/359 192/236/359 189/228/359
f 183/231/360 190/234/360 192/232/360
f 190/234/361 185/304/361 186/235/361
f 204/375/362 206/250/362 205/322/362
f 208/240/363 209/243/363 206/241/363
f 202/242/364 207/244/364 209/243/364
f 207/244/365 211/376/365 212/245/365
f 203/246/366 210/249/366 212/247/366
f 210/249/367 205/322/367 206/250/367
f 217/251/368 220/254/368 222/252/368
f 220/254/369 224/347/369 225/255/369
f 223/256/370 225/260/370 224/257/370
f 227/259/371 228/262/371 225/260/371
f 219/261/372 226/328/372 228/262/372
f 221/253/373 222/252/373 228/263/373
f 239/266/374 241/270/374 240/267/374
f 243/269/375 244/276/375 241/270/375
f 242/271/376 244/377/376 243/272/376
f 242/274/377 246/278/377 247/275/377
f 245/277/378 247/275/378 246/278/378
f 245/277/379 240/267/379 241/270/379
f 251/280/380 253/284/380 252/281/380
f 255/283/381 256/288/381 253/284/381
f 254/285/382 256/288/382 255/283/382
f 258/287/383 259/293/383 256/288/383
f 257/292/384 259/293/384 258/287/384
f 257/292/385 252/281/385 253/284/385
f 68/99/386 82/107/386 88/106/386
f 78/97/387 88/106/387 84/103/387
f 70/86/388 84/103/388 81/100/388
f 93/117/389 97/116/389 75/95/389
f 97/116/144 102/126/144 79/98/144
f 102/126/390 95/128/390 68/99/390
f 82/107/391 95/128/391 103/127/391
f 87/294/392 103/378/392 99/295/392
f 91/111/393 99/295/393 94/120/393
f 105/131/394 109/130/394 4/296/394
f 109/297/150 114/141/150 8/8/150
f 114/141/395 107/139/395 2/9/395
f 106/134/396 117/369/396 121/298/396
f 111/138/397 121/157/397 126/154/397
f 115/136/398 126/154/398 119/156/398
f 119/156/155 127/155/155 22/28/155
f 127/155/399 123/150/399 17/18/399
f 123/150/157 118/152/157 13/19/157
f 15/30/400 23/29/400 7/7/400
f 23/29/401 19/25/401 11/10/401
f 19/22/402 14/24/402 3/13/402
f 129/160/403 141/303/403 146/300/403
f 132/161/162 146/178/162 154/189/162
f 136/165/404 154/189/404 144/191/404
f 157/194/164 161/193/164 151/187/164
f 161/193/165 166/205/165 155/190/165
f 166/205/166 159/203/166 144/191/166
f 159/203/405 167/204/405 10/11/405
f 10/15/406 167/373/406 163/301/406
f 5/3/407 163/301/407 158/198/407
f 13/19/408 131/172/408 139/171/408
f 16/17/409 139/171/409 135/167/409
f 20/23/410 135/164/410 130/166/410
f 181/224/411 185/223/411 145/302/411
f 185/304/174 190/234/174 149/182/174
f 190/234/412 183/231/412 142/183/412
f 28/47/413 183/231/413 191/233/413
f 38/45/414 191/233/414 187/305/414
f 30/33/415 187/230/415 182/227/415
f 169/207/416 173/209/416 35/306/416
f 173/219/180 178/220/180 39/46/180
f 178/220/417 171/217/417 28/47/417
f 142/183/418 171/217/418 179/215/418
f 148/181/183 179/215/183 175/212/183
f 152/184/184 175/212/184 170/214/184
f 53/69/419 57/68/419 29/309/419
f 57/80/186 62/77/186 33/38/186
f 62/77/420 55/79/420 26/39/420
f 43/63/421 55/79/421 63/78/421
f 50/65/189 63/366/189 59/73/189
f 45/51/422 59/73/422 54/75/422
f 26/39/423 43/63/423 51/62/423
f 32/37/192 51/62/192 47/58/192
f 36/310/424 47/56/424 42/57/424
f 213/311/194 215/327/194 200/312/194
f 215/314/425 216/317/425 199/315/425
f 216/317/196 214/325/196 197/318/196
f 201/319/426 205/322/426 195/320/426
f 205/322/427 210/249/427 196/323/427
f 210/249/428 203/246/428 194/324/428
f 41/52/429 203/246/429 211/248/429
f 44/55/201 211/376/201 207/244/201
f 48/53/430 207/244/430 202/242/430
f 214/325/431 216/317/431 56/67/431
f 216/317/432 215/314/432 60/326/432
f 215/327/433 213/311/433 54/75/433
f 193/321/434 195/320/434 69/87/434
f 69/87/435 195/320/435 196/323/435
f 73/90/436 196/323/436 194/324/436
f 217/251/437 221/253/437 199/315/437
f 221/253/438 226/264/438 200/316/438
f 226/328/439 219/261/439 198/313/439
f 66/91/440 219/261/440 227/259/440
f 72/89/213 227/259/213 223/256/213
f 76/92/441 223/256/441 218/258/441
f 105/131/442 233/346/442 235/329/442
f 108/129/443 235/329/443 234/330/443
f 112/132/444 234/330/444 232/331/444
f 160/197/445 230/351/445 231/333/445
f 164/195/446 231/333/446 229/334/446
f 248/282/447 252/281/447 239/266/447
f 252/281/222 257/292/222 243/269/222
f 257/289/448 250/291/448 237/273/448
f 131/172/449 250/291/449 258/290/449
f 138/174/225 258/287/225 254/285/225
f 133/159/450 254/285/450 249/286/450
f 118/152/451 124/151/451 90/112/451
f 124/151/452 120/147/452 85/335/452
f 85/102/453 120/379/453 117/144/453
f 93/117/454 238/355/454 246/336/454
f 96/337/231 246/278/231 242/274/231
f 100/122/455 242/271/455 237/273/455
f 181/224/456 260/352/456 262/339/456
f 184/222/457 262/339/457 263/340/457
f 188/225/458 263/340/458 261/341/458
f 265/342/459 267/343/459 172/210/459
f 267/343/460 266/350/460 176/344/460
f 266/345/461 264/349/461 170/214/461
f 201/239/462 232/331/462 234/330/462
f 204/237/463 234/330/463 235/329/463
f 208/240/464 235/329/464 233/346/464
f 236/268/465 240/267/465 220/254/465
f 240/267/243 245/277/243 224/347/243
f 245/348/466 238/355/466 218/258/466
f 264/349/467 266/345/467 230/332/467
f 266/350/468 267/343/468 231/333/468
f 267/343/247 265/342/247 229/334/247
f 248/282/469 261/341/469 263/340/469
f 251/280/249 263/340/249 262/339/249
f 255/283/470 262/339/470 260/352/470
f 229/334/471 233/346/471 1/1/471
f 233/346/472 105/131/472 1/1/472
f 107/139/252 119/156/252 15/30/252
f 130/166/253 144/191/253 159/203/253
f 159/203/253 3/13/253 14/24/253
f 237/273/254 250/291/254 13/19/254
f 250/291/254 131/172/254 13/19/254
f 13/19/254 118/152/254 237/273/254
f 237/273/254 118/152/254 94/120/254
f 261/341/255 214/325/255 53/69/255
f 53/69/255 25/31/255 182/227/255
f 183/231/256 28/47/256 171/217/256
f 233/346/473 265/342/473 202/242/473
f 265/342/258 169/207/258 202/242/258
f 169/207/258 27/307/258 42/57/258
f 213/311/259 198/313/259 203/246/259
f 198/313/259 194/324/259 203/246/259
f 203/246/259 41/52/259 213/311/259
f 232/331/260 201/239/260 193/380/260
f 193/380/260 65/381/260 232/331/260
f 65/381/260 81/382/260 106/134/260
f 81/100/260 117/144/260 106/353/260
f 194/324/262 198/313/262 219/261/262
f 67/93/263 218/258/263 238/355/263
f 181/224/264 141/303/264 260/352/264
f 141/303/264 129/160/264 249/286/264
f 143/185/265 170/214/265 264/349/265
f 236/268/266 217/251/266 248/282/266
f 217/251/266 197/318/266 248/282/266
f 197/318/266 214/325/266 261/341/266
