# Blender 5.2.2 LTS
# www.blender.org
mtllib onyx_ring.mtl
g A_Band.001_A_Band.001
v 0.715000 0.000000 0.000000
v 0.667500 0.000000 -0.082272
v 0.572500 0.000000 -0.082272
v 0.525000 0.000000 -0.000000
v 0.572500 0.000000 0.082272
v 0.667500 0.000000 0.082272
v 0.660574 0.273619 0.000000
v 0.616690 0.255441 -0.082272
v 0.528921 0.219086 -0.082272
v 0.485037 0.200909 -0.000000
v 0.528921 0.219086 0.082272
v 0.616690 0.255441 0.082272
v 0.505581 0.505581 0.000000
v 0.471994 0.471994 -0.082272
v 0.404819 0.404819 -0.082272
v 0.371231 0.371231 -0.000000
v 0.404819 0.404819 0.082272
v 0.471994 0.471994 0.082272
v 0.273619 0.660574 0.000000
v 0.255441 0.616690 -0.082272
v 0.219086 0.528921 -0.082272
v 0.200909 0.485037 -0.000000
v 0.219086 0.528921 0.082272
v 0.255441 0.616690 0.082272
v 0.000000 0.715000 0.000000
v 0.000000 0.667500 -0.082272
v 0.000000 0.572500 -0.082272
v 0.000000 0.525000 -0.000000
v 0.000000 0.572500 0.082272
v 0.000000 0.667500 0.082272
v -0.273619 0.660574 0.000000
v -0.255441 0.616690 -0.082272
v -0.219086 0.528921 -0.082272
v -0.200909 0.485037 -0.000000
v -0.219086 0.528921 0.082272
v -0.255441 0.616690 0.082272
v -0.505581 0.505581 0.000000
v -0.471994 0.471994 -0.082272
v -0.404819 0.404819 -0.082272
v -0.371231 0.371231 -0.000000
v -0.404819 0.404819 0.082272
v -0.471994 0.471994 0.082272
v -0.660574 0.273619 0.000000
v -0.616690 0.255441 -0.082272
v -0.528921 0.219086 -0.082272
v -0.485037 0.200909 -0.000000
v -0.528921 0.219086 0.082272
v -0.616690 0.255441 0.082272
v -0.715000 0.000000 0.000000
v -0.667500 0.000000 -0.082272
v -0.572500 0.000000 -0.082272
v -0.525000 0.000000 -0.000000
v -0.572500 0.000000 0.082272
v -0.667500 0.000000 0.082272
v -0.660574 -0.273619 0.000000
v -0.616690 -0.255441 -0.082272
v -0.528921 -0.219086 -0.082272
v -0.485037 -0.200909 -0.000000
v -0.528921 -0.219086 0.082272
v -0.616690 -0.255441 0.082272
v -0.505581 -0.505581 0.000000
v -0.471994 -0.471994 -0.082272
v -0.404819 -0.404819 -0.082272
v -0.371231 -0.371231 -0.000000
v -0.404819 -0.404819 0.082272
v -0.471994 -0.471994 0.082272
v -0.273619 -0.660574 0.000000
v -0.255441 -0.616690 -0.082272
v -0.219086 -0.528921 -0.082272
v -0.200909 -0.485037 -0.000000
v -0.219086 -0.528921 0.082272
v -0.255441 -0.616690 0.082272
v -0.000000 -0.715000 0.000000
v -0.000000 -0.667500 -0.082272
v -0.000000 -0.572500 -0.082272
v -0.000000 -0.525000 -0.000000
v -0.000000 -0.572500 0.082272
v -0.000000 -0.667500 0.082272
v 0.273619 -0.660574 0.000000
v 0.255441 -0.616690 -0.082272
v 0.219086 -0.528921 -0.082272
v 0.200909 -0.485037 -0.000000
v 0.219086 -0.528921 0.082272
v 0.255441 -0.616690 0.082272
v 0.505581 -0.505581 0.000000
v 0.471994 -0.471994 -0.082272
v 0.404819 -0.404819 -0.082272
v 0.371231 -0.371231 -0.000000
v 0.404819 -0.404819 0.082272
v 0.471994 -0.471994 0.082272
v 0.660574 -0.273619 0.000000
v 0.616690 -0.255441 -0.082272
v 0.528921 -0.219086 -0.082272
v 0.485037 -0.200909 -0.000000
v 0.528921 -0.219086 0.082272
v 0.616690 -0.255441 0.082272
vn 0.8535 0.1698 -0.4927
vn -0.0000 -0.0000 -1.0000
vn -0.8535 -0.1698 -0.4927
vn -0.8535 -0.1698 0.4927
vn -0.0000 -0.0000 1.0000
vn 0.8535 0.1698 0.4927
vn 0.7235 0.4834 -0.4927
vn -0.7235 -0.4834 -0.4927
vn -0.7235 -0.4834 0.4927
vn 0.7235 0.4834 0.4927
vn 0.4834 0.7235 -0.4927
vn -0.4834 -0.7235 -0.4927
vn -0.4834 -0.7235 0.4927
vn 0.4834 0.7235 0.4927
vn 0.1698 0.8535 -0.4927
vn -0.1698 -0.8535 -0.4927
vn -0.1698 -0.8535 0.4927
vn 0.1698 0.8535 0.4927
vn -0.1698 0.8535 -0.4927
vn 0.1698 -0.8535 -0.4927
vn 0.1698 -0.8535 0.4927
vn -0.1698 0.8535 0.4927
vn -0.4834 0.7235 -0.4927
vn 0.4834 -0.7235 -0.4927
vn 0.4834 -0.7235 0.4927
vn -0.4834 0.7235 0.4927
vn -0.7235 0.4834 -0.4927
vn 0.7235 -0.4834 -0.4927
vn 0.7235 -0.4834 0.4927
vn -0.7235 0.4834 0.4927
vn -0.8535 0.1698 -0.4927
vn 0.8535 -0.1698 -0.4927
vn 0.8535 -0.1698 0.4927
vn -0.8535 0.1698 0.4927
s 0
g A_Band.001_onyx_ring_metal
usemtl onyx_ring_metal
f 8//1 1//1 2//1
f 9//2 2//2 3//2
f 10//3 3//3 4//3
f 11//4 4//4 5//4
f 12//5 5//5 6//5
f 1//6 12//6 6//6
f 8//7 13//7 7//7
f 15//2 8//2 9//2
f 16//8 9//8 10//8
f 11//9 16//9 10//9
f 12//5 17//5 11//5
f 13//10 12//10 7//10
f 20//11 13//11 14//11
f 15//2 20//2 14//2
f 16//12 21//12 15//12
f 23//13 16//13 17//13
f 24//5 17//5 18//5
f 13//14 24//14 18//14
f 26//15 19//15 20//15
f 27//2 20//2 21//2
f 28//16 21//16 22//16
f 29//17 22//17 23//17
f 30//5 23//5 24//5
f 25//18 24//18 19//18
f 26//19 31//19 25//19
f 33//2 26//2 27//2
f 34//20 27//20 28//20
f 35//21 28//21 29//21
f 36//5 29//5 30//5
f 25//22 36//22 30//22
f 38//23 31//23 32//23
f 39//2 32//2 33//2
f 40//24 33//24 34//24
f 35//25 40//25 34//25
f 36//5 41//5 35//5
f 37//26 36//26 31//26
f 44//27 37//27 38//27
f 39//2 44//2 38//2
f 40//28 45//28 39//28
f 47//29 40//29 41//29
f 48//5 41//5 42//5
f 43//30 42//30 37//30
f 44//31 49//31 43//31
f 51//2 44//2 45//2
f 52//32 45//32 46//32
f 53//33 46//33 47//33
f 54//5 47//5 48//5
f 49//34 48//34 43//34
f 56//3 49//3 50//3
f 57//2 50//2 51//2
f 58//1 51//1 52//1
f 59//6 52//6 53//6
f 60//5 53//5 54//5
f 49//4 60//4 54//4
f 56//8 61//8 55//8
f 63//2 56//2 57//2
f 64//7 57//7 58//7
f 59//10 64//10 58//10
f 60//5 65//5 59//5
f 61//9 60//9 55//9
f 68//12 61//12 62//12
f 63//2 68//2 62//2
f 64//11 69//11 63//11
f 71//14 64//14 65//14
f 72//5 65//5 66//5
f 61//13 72//13 66//13
f 74//16 67//16 68//16
f 75//2 68//2 69//2
f 76//15 69//15 70//15
f 77//18 70//18 71//18
f 78//5 71//5 72//5
f 73//17 72//17 67//17
f 74//20 79//20 73//20
f 81//2 74//2 75//2
f 82//19 75//19 76//19
f 83//22 76//22 77//22
f 84//5 77//5 78//5
f 73//21 84//21 78//21
f 86//24 79//24 80//24
f 87//2 80//2 81//2
f 88//23 81//23 82//23
f 83//26 88//26 82//26
f 84//5 89//5 83//5
f 85//25 84//25 79//25
f 92//28 85//28 86//28
f 87//2 92//2 86//2
f 88//27 93//27 87//27
f 95//30 88//30 89//30
f 96//5 89//5 90//5
f 91//29 90//29 85//29
f 92//32 1//32 91//32
f 3//2 92//2 93//2
f 4//31 93//31 94//31
f 5//34 94//34 95//34
f 6//5 95//5 96//5
f 1//33 96//33 91//33
f 8//1 7//1 1//1
f 9//2 8//2 2//2
f 10//3 9//3 3//3
f 11//4 10//4 4//4
f 12//5 11//5 5//5
f 1//6 7//6 12//6
f 8//7 14//7 13//7
f 15//2 14//2 8//2
f 16//8 15//8 9//8
f 11//9 17//9 16//9
f 12//5 18//5 17//5
f 13//10 18//10 12//10
f 20//11 19//11 13//11
f 15//2 21//2 20//2
f 16//12 22//12 21//12
f 23//13 22//13 16//13
f 24//5 23//5 17//5
f 13//14 19//14 24//14
f 26//15 25//15 19//15
f 27//2 26//2 20//2
f 28//16 27//16 21//16
f 29//17 28//17 22//17
f 30//5 29//5 23//5
f 25//18 30//18 24//18
f 26//19 32//19 31//19
f 33//2 32//2 26//2
f 34//20 33//20 27//20
f 35//21 34//21 28//21
f 36//5 35//5 29//5
f 25//22 31//22 36//22
f 38//23 37//23 31//23
f 39//2 38//2 32//2
f 40//24 39//24 33//24
f 35//25 41//25 40//25
f 36//5 42//5 41//5
f 37//26 42//26 36//26
f 44//27 43//27 37//27
f 39//2 45//2 44//2
f 40//28 46//28 45//28
f 47//29 46//29 40//29
f 48//5 47//5 41//5
f 43//30 48//30 42//30
f 44//31 50//31 49//31
f 51//2 50//2 44//2
f 52//32 51//32 45//32
f 53//33 52//33 46//33
f 54//5 53//5 47//5
f 49//34 54//34 48//34
f 56//3 55//3 49//3
f 57//2 56//2 50//2
f 58//1 57//1 51//1
f 59//6 58//6 52//6
f 60//5 59//5 53//5
f 49//4 55//4 60//4
f 56//8 62//8 61//8
f 63//2 62//2 56//2
f 64//7 63//7 57//7
f 59//10 65//10 64//10
f 60//5 66//5 65//5
f 61//9 66//9 60//9
f 68//12 67//12 61//12
f 63//2 69//2 68//2
f 64//11 70//11 69//11
f 71//14 70//14 64//14
f 72//5 71//5 65//5
f 61//13 67//13 72//13
f 74//16 73//16 67//16
f 75//2 74//2 68//2
f 76//15 75//15 69//15
f 77//18 76//18 70//18
f 78//5 77//5 71//5
f 73//17 78//17 72//17
f 74//20 80//20 79//20
f 81//2 80//2 74//2
f 82//19 81//19 75//19
f 83//22 82//22 76//22
f 84//5 83//5 77//5
f 73//21 79//21 84//21
f 86//24 85//24 79//24
f 87//2 86//2 80//2
f 88//23 87//23 81//23
f 83//26 89//26 88//26
f 84//5 90//5 89//5
f 85//25 90//25 84//25
f 92//28 91//28 85//28
f 87//2 93//2 92//2
f 88//27 94//27 93//27
f 95//30 94//30 88//30
f 96//5 95//5 89//5
f 91//29 96//29 90//29
f 92//32 2//32 1//32
f 3//2 2//2 92//2
f 4//31 3//31 93//31
f 5//34 4//34 94//34
f 6//5 5//5 95//5
f 1//33 6//33 96//33
g B_Collar.001_B_Collar.001
v 0.000000 0.620000 0.000000
v 0.336000 0.620000 0.000000
v 0.237588 0.620000 -0.237588
v 0.000000 0.620000 -0.336000
v -0.237588 0.620000 -0.237588
v -0.336000 0.620000 -0.000000
v -0.237588 0.620000 0.237588
v -0.000000 0.620000 0.336000
v 0.237588 0.620000 0.237588
v 0.280000 0.760000 0.000000
v 0.197990 0.760000 -0.197990
v 0.000000 0.760000 -0.280000
v -0.197990 0.760000 -0.197990
v -0.280000 0.760000 -0.000000
v -0.197990 0.760000 0.197990
v -0.000000 0.760000 0.280000
v 0.197990 0.760000 0.197990
v 0.000000 0.760000 0.000000
vn -0.0000 -1.0000 -0.0000
vn 0.8666 0.3466 -0.3590
vn 0.3590 0.3466 -0.8666
vn -0.3590 0.3466 -0.8666
vn -0.8666 0.3466 -0.3590
vn -0.8666 0.3466 0.3590
vn -0.3590 0.3466 0.8666
vn 0.3590 0.3466 0.8666
vn 0.8666 0.3466 0.3590
vn -0.0000 1.0000 -0.0000
s 0
g B_Collar.001_onyx_ring_metal
usemtl onyx_ring_metal
f 97//35 99//35 98//35
f 97//35 100//35 99//35
f 97//35 101//35 100//35
f 97//35 102//35 101//35
f 97//35 103//35 102//35
f 97//35 104//35 103//35
f 97//35 105//35 104//35
f 97//35 98//35 105//35
f 99//36 106//36 98//36
f 100//37 107//37 99//37
f 101//38 108//38 100//38
f 102//39 109//39 101//39
f 103//40 110//40 102//40
f 104//41 111//41 103//41
f 105//42 112//42 104//42
f 98//43 113//43 105//43
f 106//44 107//44 114//44
f 107//44 108//44 114//44
f 108//44 109//44 114//44
f 109//44 110//44 114//44
f 110//44 111//44 114//44
f 111//44 112//44 114//44
f 112//44 113//44 114//44
f 113//44 106//44 114//44
f 99//36 107//36 106//36
f 100//37 108//37 107//37
f 101//38 109//38 108//38
f 102//39 110//39 109//39
f 103//40 111//40 110//40
f 104//41 112//41 111//41
f 105//42 113//42 112//42
f 98//43 106//43 113//43
g C_Stone.001_C_Stone.001
v 0.000000 0.760000 0.000000
v 0.420000 0.760000 0.000000
v 0.339787 0.760000 -0.246870
v 0.129787 0.760000 -0.399444
v -0.129787 0.760000 -0.399444
v -0.339787 0.760000 -0.246870
v -0.420000 0.760000 -0.000000
v -0.339787 0.760000 0.246870
v -0.129787 0.760000 0.399444
v 0.129787 0.760000 0.399444
v 0.339787 0.760000 0.246870
v 0.405689 0.854210 0.000000
v 0.328209 0.854210 -0.238458
v 0.125365 0.854210 -0.385833
v -0.125365 0.854210 -0.385833
v -0.328209 0.854210 -0.238458
v -0.405689 0.854210 -0.000000
v -0.328209 0.854210 0.238458
v -0.125365 0.854210 0.385833
v 0.125365 0.854210 0.385833
v 0.328209 0.854210 0.238458
v 0.363731 0.942000 0.000000
v 0.294264 0.942000 -0.213796
v 0.112399 0.942000 -0.345928
v -0.112399 0.942000 -0.345928
v -0.294264 0.942000 -0.213796
v -0.363731 0.942000 -0.000000
v -0.294264 0.942000 0.213796
v -0.112399 0.942000 0.345928
v 0.112399 0.942000 0.345928
v 0.294264 0.942000 0.213796
v 0.296985 1.017387 0.000000
v 0.240266 1.017387 -0.174563
v 0.091773 1.017387 -0.282449
v -0.091773 1.017387 -0.282449
v -0.240266 1.017387 -0.174563
v -0.296985 1.017387 -0.000000
v -0.240266 1.017387 0.174563
v -0.091773 1.017387 0.282449
v 0.091773 1.017387 0.282449
v 0.240266 1.017387 0.174563
v 0.210000 1.075233 0.000000
v 0.169894 1.075233 -0.123435
v 0.064894 1.075233 -0.199722
v -0.064894 1.075233 -0.199722
v -0.169894 1.075233 -0.123435
v -0.210000 1.075233 -0.000000
v -0.169894 1.075233 0.123435
v -0.064894 1.075233 0.199722
v 0.064894 1.075233 0.199722
v 0.169894 1.075233 0.123435
v 0.108704 1.111597 0.000000
v 0.087943 1.111597 -0.063895
v 0.033591 1.111597 -0.103384
v -0.033591 1.111597 -0.103384
v -0.087943 1.111597 -0.063895
v -0.108704 1.111597 -0.000000
v -0.087943 1.111597 0.063895
v -0.033591 1.111597 0.103384
v 0.033591 1.111597 0.103384
v 0.087943 1.111597 0.063895
v 0.000000 1.124000 0.000000
vn -0.0000 -1.0000 -0.0000
vn 0.9413 0.1430 -0.3058
vn 0.5817 0.1430 -0.8007
vn -0.0000 0.1430 -0.9897
vn -0.5817 0.1430 -0.8007
vn -0.9413 0.1430 -0.3058
vn -0.9413 0.1430 0.3058
vn -0.5817 0.1430 0.8007
vn -0.0000 0.1430 0.9897
vn 0.5817 0.1430 0.8007
vn 0.9413 0.1430 0.3058
vn 0.8658 0.4138 -0.2813
vn 0.5351 0.4138 -0.7365
vn -0.0000 0.4138 -0.9104
vn -0.5351 0.4138 -0.7365
vn -0.8658 0.4138 -0.2813
vn -0.8658 0.4138 0.2813
vn -0.5351 0.4138 0.7365
vn -0.0000 0.4138 0.9104
vn 0.5351 0.4138 0.7365
vn 0.8658 0.4138 0.2813
vn 0.7275 0.6441 -0.2364
vn 0.4496 0.6441 -0.6188
vn -0.0000 0.6441 -0.7649
vn -0.4496 0.6441 -0.6188
vn -0.7275 0.6441 -0.2364
vn -0.7275 0.6441 0.2364
vn -0.4496 0.6441 0.6188
vn -0.0000 0.6441 0.7649
vn 0.4496 0.6441 0.6188
vn 0.7275 0.6441 0.2364
vn 0.5450 0.8195 -0.1771
vn 0.3368 0.8195 -0.4636
vn -0.0000 0.8195 -0.5730
vn -0.3368 0.8195 -0.4636
vn -0.5450 0.8195 -0.1771
vn -0.5450 0.8195 0.1771
vn -0.3368 0.8195 0.4636
vn -0.0000 0.8195 0.5730
vn 0.3368 0.8195 0.4636
vn 0.5450 0.8195 0.1771
vn 0.3359 0.9356 -0.1091
vn 0.2076 0.9356 -0.2857
vn -0.0000 0.9356 -0.3531
vn -0.2076 0.9356 -0.2857
vn -0.3359 0.9356 -0.1091
vn -0.3359 0.9356 0.1091
vn -0.2076 0.9356 0.2857
vn -0.0000 0.9356 0.3531
vn 0.2076 0.9356 0.2857
vn 0.3359 0.9356 0.1091
vn 0.1133 0.9929 -0.0368
vn 0.0700 0.9929 -0.0964
vn -0.0000 0.9929 -0.1191
vn -0.0700 0.9929 -0.0964
vn -0.1133 0.9929 -0.0368
vn -0.1133 0.9929 0.0368
vn -0.0700 0.9929 0.0964
vn -0.0000 0.9929 0.1191
vn 0.0700 0.9929 0.0964
vn 0.1133 0.9929 0.0368
s 0
g C_Stone.001_onyx_ring_stone
usemtl onyx_ring_stone
f 115//45 117//45 116//45
f 115//45 118//45 117//45
f 115//45 119//45 118//45
f 115//45 120//45 119//45
f 115//45 121//45 120//45
f 115//45 122//45 121//45
f 115//45 123//45 122//45
f 115//45 124//45 123//45
f 115//45 125//45 124//45
f 115//45 116//45 125//45
f 117//46 126//46 116//46
f 118//47 127//47 117//47
f 119//48 128//48 118//48
f 120//49 129//49 119//49
f 121//50 130//50 120//50
f 122//51 131//51 121//51
f 123//52 132//52 122//52
f 124//53 133//53 123//53
f 125//54 134//54 124//54
f 116//55 135//55 125//55
f 127//56 136//56 126//56
f 128//57 137//57 127//57
f 129//58 138//58 128//58
f 130//59 139//59 129//59
f 131//60 140//60 130//60
f 132//61 141//61 131//61
f 133//62 142//62 132//62
f 134//63 143//63 133//63
f 135//64 144//64 134//64
f 126//65 145//65 135//65
f 137//66 146//66 136//66
f 138//67 147//67 137//67
f 139//68 148//68 138//68
f 140//69 149//69 139//69
f 141//70 150//70 140//70
f 142//71 151//71 141//71
f 143//72 152//72 142//72
f 144//73 153//73 143//73
f 145//74 154//74 144//74
f 136//75 155//75 145//75
f 147//76 156//76 146//76
f 148//77 157//77 147//77
f 149//78 158//78 148//78
f 149//79 160//79 159//79
f 151//80 160//80 150//80
f 152//81 161//81 151//81
f 153//82 162//82 152//82
f 154//83 163//83 153//83
f 154//84 165//84 164//84
f 146//85 165//85 155//85
f 157//86 166//86 156//86
f 158//87 167//87 157//87
f 159//88 168//88 158//88
f 160//89 169//89 159//89
f 160//90 171//90 170//90
f 162//91 171//91 161//91
f 163//92 172//92 162//92
f 164//93 173//93 163//93
f 165//94 174//94 164//94
f 165//95 166//95 175//95
f 166//96 167//96 176//96
f 167//97 168//97 176//97
f 168//98 169//98 176//98
f 169//99 170//99 176//99
f 170//100 171//100 176//100
f 171//101 172//101 176//101
f 172//102 173//102 176//102
f 173//103 174//103 176//103
f 174//104 175//104 176//104
f 175//105 166//105 176//105
f 117//46 127//46 126//46
f 118//47 128//47 127//47
f 119//48 129//48 128//48
f 120//49 130//49 129//49
f 121//50 131//50 130//50
f 122//51 132//51 131//51
f 123//52 133//52 132//52
f 124//53 134//53 133//53
f 125//54 135//54 134//54
f 116//55 126//55 135//55
f 127//56 137//56 136//56
f 128//57 138//57 137//57
f 129//58 139//58 138//58
f 130//59 140//59 139//59
f 131//60 141//60 140//60
f 132//61 142//61 141//61
f 133//62 143//62 142//62
f 134//63 144//63 143//63
f 135//64 145//64 144//64
f 126//65 136//65 145//65
f 137//66 147//66 146//66
f 138//67 148//67 147//67
f 139//68 149//68 148//68
f 140//69 150//69 149//69
f 141//70 151//70 150//70
f 142//71 152//71 151//71
f 143//72 153//72 152//72
f 144//73 154//73 153//73
f 145//74 155//74 154//74
f 136//75 146//75 155//75
f 147//76 157//76 156//76
f 148//77 158//77 157//77
f 149//78 159//78 158//78
f 149//79 150//79 160//79
f 151//80 161//80 160//80
f 152//81 162//81 161//81
f 153//82 163//82 162//82
f 154//83 164//83 163//83
f 154//84 155//84 165//84
f 146//85 156//85 165//85
f 157//86 167//86 166//86
f 158//87 168//87 167//87
f 159//88 169//88 168//88
f 160//89 170//89 169//89
f 160//90 161//90 171//90
f 162//91 172//91 171//91
f 163//92 173//92 172//92
f 164//93 174//93 173//93
f 165//94 175//94 174//94
f 165//95 156//95 166//95
g D_Bezel.001_D_Bezel.001
v 0.462000 0.760000 0.000000
v 0.373766 0.760000 -0.271557
v 0.142766 0.760000 -0.439388
v -0.142766 0.760000 -0.439388
v -0.373766 0.760000 -0.271557
v -0.462000 0.760000 -0.000000
v -0.373766 0.760000 0.271557
v -0.142766 0.760000 0.439388
v 0.142766 0.760000 0.439388
v 0.373766 0.760000 0.271557
v 0.462000 0.858000 0.000000
v 0.373766 0.858000 -0.271557
v 0.142766 0.858000 -0.439388
v -0.142766 0.858000 -0.439388
v -0.373766 0.858000 -0.271557
v -0.462000 0.858000 -0.000000
v -0.373766 0.858000 0.271557
v -0.142766 0.858000 0.439388
v 0.142766 0.858000 0.439388
v 0.373766 0.858000 0.271557
v 0.392000 0.886000 0.000000
v 0.317135 0.886000 -0.230412
v 0.121135 0.886000 -0.372814
v -0.121135 0.886000 -0.372814
v -0.317135 0.886000 -0.230412
v -0.392000 0.886000 -0.000000
v -0.317135 0.886000 0.230412
v -0.121135 0.886000 0.372814
v 0.121135 0.886000 0.372814
v 0.317135 0.886000 0.230412
v 0.392000 0.760000 0.000000
v 0.317135 0.760000 -0.230412
v 0.121135 0.760000 -0.372814
v -0.121135 0.760000 -0.372814
v -0.317135 0.760000 -0.230412
v -0.392000 0.760000 -0.000000
v -0.317135 0.760000 0.230412
v -0.121135 0.760000 0.372814
v 0.121135 0.760000 0.372814
v 0.317135 0.760000 0.230412
vn 0.9511 -0.0000 -0.3090
vn 0.5878 -0.0000 -0.8090
vn -0.0000 -0.0000 -1.0000
vn -0.5878 -0.0000 -0.8090
vn -0.9511 -0.0000 -0.3090
vn -0.9511 -0.0000 0.3090
vn -0.5878 -0.0000 0.8090
vn -0.0000 -0.0000 1.0000
vn 0.5878 -0.0000 0.8090
vn 0.9511 -0.0000 0.3090
vn 0.3687 0.9218 -0.1198
vn 0.2279 0.9218 -0.3136
vn -0.0000 0.9218 -0.3877
vn -0.2279 0.9218 -0.3136
vn -0.3687 0.9218 -0.1198
vn -0.3687 0.9218 0.1198
vn -0.2279 0.9218 0.3136
vn -0.0000 0.9218 0.3877
vn 0.2279 0.9218 0.3136
vn 0.3687 0.9218 0.1198
s 0
g D_Bezel.001_onyx_ring_metal
usemtl onyx_ring_metal
f 178//106 187//106 177//106
f 179//107 188//107 178//107
f 180//108 189//108 179//108
f 181//109 190//109 180//109
f 182//110 191//110 181//110
f 183//111 192//111 182//111
f 184//112 193//112 183//112
f 185//113 194//113 184//113
f 186//114 195//114 185//114
f 177//115 196//115 186//115
f 188//116 197//116 187//116
f 189//117 198//117 188//117
f 190//118 199//118 189//118
f 191//119 200//119 190//119
f 192//120 201//120 191//120
f 193//121 202//121 192//121
f 194//122 203//122 193//122
f 195//123 204//123 194//123
f 196//124 205//124 195//124
f 187//125 206//125 196//125
f 198//111 207//111 197//111
f 199//112 208//112 198//112
f 200//113 209//113 199//113
f 201//114 210//114 200//114
f 202//115 211//115 201//115
f 203//106 212//106 202//106
f 204//107 213//107 203//107
f 205//108 214//108 204//108
f 206//109 215//109 205//109
f 197//110 216//110 206//110
f 178//106 188//106 187//106
f 179//107 189//107 188//107
f 180//108 190//108 189//108
f 181//109 191//109 190//109
f 182//110 192//110 191//110
f 183//111 193//111 192//111
f 184//112 194//112 193//112
f 185//113 195//113 194//113
f 186//114 196//114 195//114
f 177//115 187//115 196//115
f 188//116 198//116 197//116
f 189//117 199//117 198//117
f 190//118 200//118 199//118
f 191//119 201//119 200//119
f 192//120 202//120 201//120
f 193//121 203//121 202//121
f 194//122 204//122 203//122
f 195//123 205//123 204//123
f 196//124 206//124 205//124
f 187//125 197//125 206//125
f 198//111 208//111 207//111
f 199//112 209//112 208//112
f 200//113 210//113 209//113
f 201//114 211//114 210//114
f 202//115 212//115 211//115
f 203//106 213//106 212//106
f 204//107 214//107 213//107
f 205//108 215//108 214//108
f 206//109 216//109 215//109
f 197//110 207//110 216//110
