# Blender 5.2.2 LTS
# www.blender.org
mtllib peace_ring.mtl
g A_Strand0.001_A_Strand0.001
v 0.675000 0.000000 0.070000
v 0.636996 0.000000 0.017692
v 0.575504 0.000000 0.037672
v 0.575504 0.000000 0.102328
v 0.636996 0.000000 0.122308
v 0.623619 0.258311 0.070000
v 0.588508 0.243768 0.017692
v 0.531696 0.220236 0.037672
v 0.531696 0.220236 0.102328
v 0.588508 0.243768 0.122308
v 0.477297 0.477297 0.070000
v 0.450424 0.450424 0.017692
v 0.406943 0.406943 0.037672
v 0.406943 0.406943 0.102328
v 0.450424 0.450424 0.122308
v 0.258311 0.623619 0.070000
v 0.243768 0.588508 0.017692
v 0.220236 0.531696 0.037672
v 0.220236 0.531696 0.102328
v 0.243768 0.588508 0.122308
v 0.000000 0.675000 0.070000
v 0.000000 0.636996 0.017692
v 0.000000 0.575504 0.037672
v 0.000000 0.575504 0.102328
v 0.000000 0.636996 0.122308
v -0.258311 0.623619 0.070000
v -0.243768 0.588508 0.017692
v -0.220236 0.531696 0.037672
v -0.220236 0.531696 0.102328
v -0.243768 0.588508 0.122308
v -0.477297 0.477297 0.070000
v -0.450424 0.450424 0.017692
v -0.406943 0.406943 0.037672
v -0.406943 0.406943 0.102328
v -0.450424 0.450424 0.122308
v -0.623619 0.258311 0.070000
v -0.588508 0.243768 0.017692
v -0.531696 0.220236 0.037672
v -0.531696 0.220236 0.102328
v -0.588508 0.243768 0.122308
v -0.675000 0.000000 0.070000
v -0.636996 0.000000 0.017692
v -0.575504 0.000000 0.037672
v -0.575504 0.000000 0.102328
v -0.636996 0.000000 0.122308
v -0.623619 -0.258311 0.070000
v -0.588508 -0.243768 0.017692
v -0.531696 -0.220236 0.037672
v -0.531696 -0.220236 0.102328
v -0.588508 -0.243768 0.122308
v -0.477297 -0.477297 0.070000
v -0.450424 -0.450424 0.017692
v -0.406943 -0.406943 0.037672
v -0.406943 -0.406943 0.102328
v -0.450424 -0.450424 0.122308
v -0.258311 -0.623619 0.070000
v -0.243768 -0.588508 0.017692
v -0.220236 -0.531696 0.037672
v -0.220236 -0.531696 0.102328
v -0.243768 -0.588508 0.122308
v -0.000000 -0.675000 0.070000
v -0.000000 -0.636996 0.017692
v -0.000000 -0.575504 0.037672
v -0.000000 -0.575504 0.102328
v -0.000000 -0.636996 0.122308
v 0.258311 -0.623619 0.070000
v 0.243768 -0.588508 0.017692
v 0.220236 -0.531696 0.037672
v 0.220236 -0.531696 0.102328
v 0.243768 -0.588508 0.122308
v 0.477297 -0.477297 0.070000
v 0.450424 -0.450424 0.017692
v 0.406943 -0.406943 0.037672
v 0.406943 -0.406943 0.102328
v 0.450424 -0.450424 0.122308
v 0.623619 -0.258311 0.070000
v 0.588508 -0.243768 0.017692
v 0.531696 -0.220236 0.037672
v 0.531696 -0.220236 0.102328
v 0.588508 -0.243768 0.122308
vn 0.7987 0.1589 -0.5803
vn -0.3084 -0.0614 -0.9493
vn -0.9808 -0.1951 -0.0000
vn -0.3084 -0.0614 0.9493
vn 0.7987 0.1589 0.5803
vn 0.6771 0.4525 -0.5803
vn -0.2615 -0.1747 -0.9493
vn -0.8315 -0.5556 -0.0000
vn -0.2615 -0.1747 0.9493
vn 0.6771 0.4525 0.5803
vn 0.4525 0.6771 -0.5803
vn -0.1747 -0.2615 -0.9493
vn -0.5556 -0.8315 -0.0000
vn -0.1747 -0.2615 0.9493
vn 0.4525 0.6771 0.5803
vn 0.1589 0.7987 -0.5803
vn -0.0614 -0.3084 -0.9493
vn -0.1951 -0.9808 -0.0000
vn -0.0614 -0.3084 0.9493
vn 0.1589 0.7987 0.5803
vn -0.1589 0.7987 -0.5803
vn 0.0614 -0.3084 -0.9493
vn 0.1951 -0.9808 -0.0000
vn 0.0614 -0.3084 0.9493
vn -0.1589 0.7987 0.5803
vn -0.4525 0.6771 -0.5803
vn 0.1747 -0.2615 -0.9493
vn 0.5556 -0.8315 -0.0000
vn 0.1747 -0.2615 0.9493
vn -0.4525 0.6771 0.5803
vn -0.6771 0.4525 -0.5803
vn 0.2615 -0.1747 -0.9493
vn 0.8315 -0.5556 -0.0000
vn 0.2615 -0.1747 0.9493
vn -0.6771 0.4525 0.5803
vn -0.7987 0.1589 -0.5803
vn 0.3084 -0.0614 -0.9493
vn 0.9808 -0.1951 -0.0000
vn 0.3084 -0.0614 0.9493
vn -0.7987 0.1589 0.5803
vn -0.7987 -0.1589 -0.5803
vn 0.3084 0.0614 -0.9493
vn 0.9808 0.1951 -0.0000
vn 0.3084 0.0614 0.9493
vn -0.7987 -0.1589 0.5803
vn -0.6771 -0.4525 -0.5803
vn 0.2615 0.1747 -0.9493
vn 0.8315 0.5556 -0.0000
vn 0.2615 0.1747 0.9493
vn -0.6771 -0.4525 0.5803
vn -0.4525 -0.6771 -0.5803
vn 0.1747 0.2615 -0.9493
vn 0.5556 0.8315 -0.0000
vn 0.1747 0.2615 0.9493
vn -0.4525 -0.6771 0.5803
vn -0.1589 -0.7987 -0.5803
vn 0.0614 0.3084 -0.9493
vn 0.1951 0.9808 -0.0000
vn 0.0614 0.3084 0.9493
vn -0.1589 -0.7987 0.5803
vn 0.1589 -0.7987 -0.5803
vn -0.0614 0.3084 -0.9493
vn -0.1951 0.9808 -0.0000
vn -0.0614 0.3084 0.9493
vn 0.1589 -0.7987 0.5803
vn 0.4525 -0.6771 -0.5803
vn -0.1747 0.2615 -0.9493
vn -0.5556 0.8315 -0.0000
vn -0.1747 0.2615 0.9493
vn 0.4525 -0.6771 0.5803
vn 0.6771 -0.4525 -0.5803
vn -0.2615 0.1747 -0.9493
vn -0.8315 0.5556 -0.0000
vn -0.2615 0.1747 0.9493
vn 0.6771 -0.4525 0.5803
vn 0.7987 -0.1589 -0.5803
vn -0.3084 0.0614 -0.9493
vn -0.9808 0.1951 -0.0000
vn -0.3084 0.0614 0.9493
vn 0.7987 -0.1589 0.5803
s 0
g A_Strand0.001_peace_ring_metal
usemtl peace_ring_metal
f 7//1 1//1 2//1
f 8//2 2//2 3//2
f 9//3 3//3 4//3
f 10//4 4//4 5//4
f 1//5 10//5 5//5
f 12//6 6//6 7//6
f 13//7 7//7 8//7
f 14//8 8//8 9//8
f 15//9 9//9 10//9
f 11//10 10//10 6//10
f 17//11 11//11 12//11
f 18//12 12//12 13//12
f 19//13 13//13 14//13
f 15//14 19//14 14//14
f 16//15 15//15 11//15
f 22//16 16//16 17//16
f 18//17 22//17 17//17
f 24//18 18//18 19//18
f 25//19 19//19 20//19
f 21//20 20//20 16//20
f 27//21 21//21 22//21
f 28//22 22//22 23//22
f 29//23 23//23 24//23
f 25//24 29//24 24//24
f 26//25 25//25 21//25
f 32//26 26//26 27//26
f 28//27 32//27 27//27
f 34//28 28//28 29//28
f 35//29 29//29 30//29
f 26//30 35//30 30//30
f 37//31 31//31 32//31
f 33//32 37//32 32//32
f 39//33 33//33 34//33
f 40//34 34//34 35//34
f 31//35 40//35 35//35
f 37//36 41//36 36//36
f 43//37 37//37 38//37
f 44//38 38//38 39//38
f 45//39 39//39 40//39
f 41//40 40//40 36//40
f 47//41 41//41 42//41
f 48//42 42//42 43//42
f 49//43 43//43 44//43
f 50//44 44//44 45//44
f 41//45 50//45 45//45
f 52//46 46//46 47//46
f 53//47 47//47 48//47
f 54//48 48//48 49//48
f 55//49 49//49 50//49
f 51//50 50//50 46//50
f 57//51 51//51 52//51
f 58//52 52//52 53//52
f 59//53 53//53 54//53
f 55//54 59//54 54//54
f 56//55 55//55 51//55
f 62//56 56//56 57//56
f 58//57 62//57 57//57
f 64//58 58//58 59//58
f 65//59 59//59 60//59
f 61//60 60//60 56//60
f 67//61 61//61 62//61
f 68//62 62//62 63//62
f 69//63 63//63 64//63
f 65//64 69//64 64//64
f 66//65 65//65 61//65
f 72//66 66//66 67//66
f 68//67 72//67 67//67
f 74//68 68//68 69//68
f 75//69 69//69 70//69
f 66//70 75//70 70//70
f 77//71 71//71 72//71
f 73//72 77//72 72//72
f 79//73 73//73 74//73
f 80//74 74//74 75//74
f 71//75 80//75 75//75
f 77//76 1//76 76//76
f 3//77 77//77 78//77
f 4//78 78//78 79//78
f 5//79 79//79 80//79
f 1//80 80//80 76//80
f 7//1 6//1 1//1
f 8//2 7//2 2//2
f 9//3 8//3 3//3
f 10//4 9//4 4//4
f 1//5 6//5 10//5
f 12//6 11//6 6//6
f 13//7 12//7 7//7
f 14//8 13//8 8//8
f 15//9 14//9 9//9
f 11//10 15//10 10//10
f 17//11 16//11 11//11
f 18//12 17//12 12//12
f 19//13 18//13 13//13
f 15//14 20//14 19//14
f 16//15 20//15 15//15
f 22//16 21//16 16//16
f 18//17 23//17 22//17
f 24//18 23//18 18//18
f 25//19 24//19 19//19
f 21//20 25//20 20//20
f 27//21 26//21 21//21
f 28//22 27//22 22//22
f 29//23 28//23 23//23
f 25//24 30//24 29//24
f 26//25 30//25 25//25
f 32//26 31//26 26//26
f 28//27 33//27 32//27
f 34//28 33//28 28//28
f 35//29 34//29 29//29
f 26//30 31//30 35//30
f 37//31 36//31 31//31
f 33//32 38//32 37//32
f 39//33 38//33 33//33
f 40//34 39//34 34//34
f 31//35 36//35 40//35
f 37//36 42//36 41//36
f 43//37 42//37 37//37
f 44//38 43//38 38//38
f 45//39 44//39 39//39
f 41//40 45//40 40//40
f 47//41 46//41 41//41
f 48//42 47//42 42//42
f 49//43 48//43 43//43
f 50//44 49//44 44//44
f 41//45 46//45 50//45
f 52//46 51//46 46//46
f 53//47 52//47 47//47
f 54//48 53//48 48//48
f 55//49 54//49 49//49
f 51//50 55//50 50//50
f 57//51 56//51 51//51
f 58//52 57//52 52//52
f 59//53 58//53 53//53
f 55//54 60//54 59//54
f 56//55 60//55 55//55
f 62//56 61//56 56//56
f 58//57 63//57 62//57
f 64//58 63//58 58//58
f 65//59 64//59 59//59
f 61//60 65//60 60//60
f 67//61 66//61 61//61
f 68//62 67//62 62//62
f 69//63 68//63 63//63
f 65//64 70//64 69//64
f 66//65 70//65 65//65
f 72//66 71//66 66//66
f 68//67 73//67 72//67
f 74//68 73//68 68//68
f 75//69 74//69 69//69
f 66//70 71//70 75//70
f 77//71 76//71 71//71
f 73//72 78//72 77//72
f 79//73 78//73 73//73
f 80//74 79//74 74//74
f 71//75 76//75 80//75
f 77//76 2//76 1//76
f 3//77 2//77 77//77
f 4//78 3//78 78//78
f 5//79 4//79 79//79
f 1//80 5//80 80//80
g A_Strand1.001_A_Strand1.001
v 0.675000 0.000000 -0.070000
v 0.636996 0.000000 -0.122308
v 0.575504 0.000000 -0.102328
v 0.575504 0.000000 -0.037672
v 0.636996 0.000000 -0.017692
v 0.623619 0.258311 -0.070000
v 0.588508 0.243768 -0.122308
v 0.531696 0.220236 -0.102328
v 0.531696 0.220236 -0.037672
v 0.588508 0.243768 -0.017692
v 0.477297 0.477297 -0.070000
v 0.450424 0.450424 -0.122308
v 0.406943 0.406943 -0.102328
v 0.406943 0.406943 -0.037672
v 0.450424 0.450424 -0.017692
v 0.258311 0.623619 -0.070000
v 0.243768 0.588508 -0.122308
v 0.220236 0.531696 -0.102328
v 0.220236 0.531696 -0.037672
v 0.243768 0.588508 -0.017692
v 0.000000 0.675000 -0.070000
v 0.000000 0.636996 -0.122308
v 0.000000 0.575504 -0.102328
v 0.000000 0.575504 -0.037672
v 0.000000 0.636996 -0.017692
v -0.258311 0.623619 -0.070000
v -0.243768 0.588508 -0.122308
v -0.220236 0.531696 -0.102328
v -0.220236 0.531696 -0.037672
v -0.243768 0.588508 -0.017692
v -0.477297 0.477297 -0.070000
v -0.450424 0.450424 -0.122308
v -0.406943 0.406943 -0.102328
v -0.406943 0.406943 -0.037672
v -0.450424 0.450424 -0.017692
v -0.623619 0.258311 -0.070000
v -0.588508 0.243768 -0.122308
v -0.531696 0.220236 -0.102328
v -0.531696 0.220236 -0.037672
v -0.588508 0.243768 -0.017692
v -0.675000 0.000000 -0.070000
v -0.636996 0.000000 -0.122308
v -0.575504 0.000000 -0.102328
v -0.575504 0.000000 -0.037672
v -0.636996 0.000000 -0.017692
v -0.623619 -0.258311 -0.070000
v -0.588508 -0.243768 -0.122308
v -0.531696 -0.220236 -0.102328
v -0.531696 -0.220236 -0.037672
v -0.588508 -0.243768 -0.017692
v -0.477297 -0.477297 -0.070000
v -0.450424 -0.450424 -0.122308
v -0.406943 -0.406943 -0.102328
v -0.406943 -0.406943 -0.037672
v -0.450424 -0.450424 -0.017692
v -0.258311 -0.623619 -0.070000
v -0.243768 -0.588508 -0.122308
v -0.220236 -0.531696 -0.102328
v -0.220236 -0.531696 -0.037672
v -0.243768 -0.588508 -0.017692
v -0.000000 -0.675000 -0.070000
v -0.000000 -0.636996 -0.122308
v -0.000000 -0.575504 -0.102328
v -0.000000 -0.575504 -0.037672
v -0.000000 -0.636996 -0.017692
v 0.258311 -0.623619 -0.070000
v 0.243768 -0.588508 -0.122308
v 0.220236 -0.531696 -0.102328
v 0.220236 -0.531696 -0.037672
v 0.243768 -0.588508 -0.017692
v 0.477297 -0.477297 -0.070000
v 0.450424 -0.450424 -0.122308
v 0.406943 -0.406943 -0.102328
v 0.406943 -0.406943 -0.037672
v 0.450424 -0.450424 -0.017692
v 0.623619 -0.258311 -0.070000
v 0.588508 -0.243768 -0.122308
v 0.531696 -0.220236 -0.102328
v 0.531696 -0.220236 -0.037672
v 0.588508 -0.243768 -0.017692
vn 0.7987 0.1589 -0.5803
vn -0.3084 -0.0614 -0.9493
vn -0.9808 -0.1951 -0.0000
vn -0.3084 -0.0614 0.9493
vn 0.7987 0.1589 0.5803
vn 0.6771 0.4525 -0.5803
vn -0.2615 -0.1747 -0.9493
vn -0.8315 -0.5556 -0.0000
vn -0.2615 -0.1747 0.9493
vn 0.6771 0.4525 0.5803
vn 0.4525 0.6771 -0.5803
vn -0.1747 -0.2615 -0.9493
vn -0.5556 -0.8315 -0.0000
vn -0.1747 -0.2615 0.9493
vn 0.4525 0.6771 0.5803
vn 0.1589 0.7987 -0.5803
vn -0.0614 -0.3084 -0.9493
vn -0.1951 -0.9808 -0.0000
vn -0.0614 -0.3084 0.9493
vn 0.1589 0.7987 0.5803
vn -0.1589 0.7987 -0.5803
vn 0.0614 -0.3084 -0.9493
vn 0.1951 -0.9808 -0.0000
vn 0.0614 -0.3084 0.9493
vn -0.1589 0.7987 0.5803
vn -0.4525 0.6771 -0.5803
vn 0.1747 -0.2615 -0.9493
vn 0.5556 -0.8315 -0.0000
vn 0.1747 -0.2615 0.9493
vn -0.4525 0.6771 0.5803
vn -0.6771 0.4525 -0.5803
vn 0.2615 -0.1747 -0.9493
vn 0.8315 -0.5556 -0.0000
vn 0.2615 -0.1747 0.9493
vn -0.6771 0.4525 0.5803
vn -0.7987 0.1589 -0.5803
vn 0.3084 -0.0614 -0.9493
vn 0.9808 -0.1951 -0.0000
vn 0.3084 -0.0614 0.9493
vn -0.7987 0.1589 0.5803
vn -0.7987 -0.1589 -0.5803
vn 0.3084 0.0614 -0.9493
vn 0.9808 0.1951 -0.0000
vn 0.3084 0.0614 0.9493
vn -0.7987 -0.1589 0.5803
vn -0.6771 -0.4525 -0.5803
vn 0.2615 0.1747 -0.9493
vn 0.8315 0.5556 -0.0000
vn 0.2615 0.1747 0.9493
vn -0.6771 -0.4525 0.5803
vn -0.4525 -0.6771 -0.5803
vn 0.1747 0.2615 -0.9493
vn 0.5556 0.8315 -0.0000
vn 0.1747 0.2615 0.9493
vn -0.4525 -0.6771 0.5803
vn -0.1589 -0.7987 -0.5803
vn 0.0614 0.3084 -0.9493
vn 0.1951 0.9808 -0.0000
vn 0.0614 0.3084 0.9493
vn -0.1589 -0.7987 0.5803
vn 0.1589 -0.7987 -0.5803
vn -0.0614 0.3084 -0.9493
vn -0.1951 0.9808 -0.0000
vn -0.0614 0.3084 0.9493
vn 0.1589 -0.7987 0.5803
vn 0.4525 -0.6771 -0.5803
vn -0.1747 0.2615 -0.9493
vn -0.5556 0.8315 -0.0000
vn -0.1747 0.2615 0.9493
vn 0.4525 -0.6771 0.5803
vn 0.6771 -0.4525 -0.5803
vn -0.2615 0.1747 -0.9493
vn -0.8315 0.5556 -0.0000
vn -0.2615 0.1747 0.9493
vn 0.6771 -0.4525 0.5803
vn 0.7987 -0.1589 -0.5803
vn -0.3084 0.0614 -0.9493
vn -0.9808 0.1951 -0.0000
vn -0.3084 0.0614 0.9493
vn 0.7987 -0.1589 0.5803
s 0
g A_Strand1.001_peace_ring_metal
usemtl peace_ring_metal
f 87//81 81//81 82//81
f 88//82 82//82 83//82
f 89//83 83//83 84//83
f 90//84 84//84 85//84
f 81//85 90//85 85//85
f 92//86 86//86 87//86
f 93//87 87//87 88//87
f 94//88 88//88 89//88
f 95//89 89//89 90//89
f 91//90 90//90 86//90
f 97//91 91//91 92//91
f 98//92 92//92 93//92
f 99//93 93//93 94//93
f 95//94 99//94 94//94
f 96//95 95//95 91//95
f 102//96 96//96 97//96
f 98//97 102//97 97//97
f 104//98 98//98 99//98
f 105//99 99//99 100//99
f 101//100 100//100 96//100
f 107//101 101//101 102//101
f 108//102 102//102 103//102
f 109//103 103//103 104//103
f 105//104 109//104 104//104
f 106//105 105//105 101//105
f 112//106 106//106 107//106
f 108//107 112//107 107//107
f 114//108 108//108 109//108
f 115//109 109//109 110//109
f 106//110 115//110 110//110
f 117//111 111//111 112//111
f 113//112 117//112 112//112
f 119//113 113//113 114//113
f 120//114 114//114 115//114
f 111//115 120//115 115//115
f 117//116 121//116 116//116
f 123//117 117//117 118//117
f 124//118 118//118 119//118
f 125//119 119//119 120//119
f 121//120 120//120 116//120
f 127//121 121//121 122//121
f 128//122 122//122 123//122
f 129//123 123//123 124//123
f 130//124 124//124 125//124
f 121//125 130//125 125//125
f 132//126 126//126 127//126
f 133//127 127//127 128//127
f 134//128 128//128 129//128
f 135//129 129//129 130//129
f 131//130 130//130 126//130
f 137//131 131//131 132//131
f 138//132 132//132 133//132
f 139//133 133//133 134//133
f 135//134 139//134 134//134
f 136//135 135//135 131//135
f 142//136 136//136 137//136
f 138//137 142//137 137//137
f 144//138 138//138 139//138
f 145//139 139//139 140//139
f 141//140 140//140 136//140
f 147//141 141//141 142//141
f 148//142 142//142 143//142
f 149//143 143//143 144//143
f 145//144 149//144 144//144
f 146//145 145//145 141//145
f 152//146 146//146 147//146
f 148//147 152//147 147//147
f 154//148 148//148 149//148
f 155//149 149//149 150//149
f 146//150 155//150 150//150
f 157//151 151//151 152//151
f 153//152 157//152 152//152
f 159//153 153//153 154//153
f 160//154 154//154 155//154
f 151//155 160//155 155//155
f 157//156 81//156 156//156
f 83//157 157//157 158//157
f 84//158 158//158 159//158
f 85//159 159//159 160//159
f 81//160 160//160 156//160
f 87//81 86//81 81//81
f 88//82 87//82 82//82
f 89//83 88//83 83//83
f 90//84 89//84 84//84
f 81//85 86//85 90//85
f 92//86 91//86 86//86
f 93//87 92//87 87//87
f 94//88 93//88 88//88
f 95//89 94//89 89//89
f 91//90 95//90 90//90
f 97//91 96//91 91//91
f 98//92 97//92 92//92
f 99//93 98//93 93//93
f 95//94 100//94 99//94
f 96//95 100//95 95//95
f 102//96 101//96 96//96
f 98//97 103//97 102//97
f 104//98 103//98 98//98
f 105//99 104//99 99//99
f 101//100 105//100 100//100
f 107//101 106//101 101//101
f 108//102 107//102 102//102
f 109//103 108//103 103//103
f 105//104 110//104 109//104
f 106//105 110//105 105//105
f 112//106 111//106 106//106
f 108//107 113//107 112//107
f 114//108 113//108 108//108
f 115//109 114//109 109//109
f 106//110 111//110 115//110
f 117//111 116//111 111//111
f 113//112 118//112 117//112
f 119//113 118//113 113//113
f 120//114 119//114 114//114
f 111//115 116//115 120//115
f 117//116 122//116 121//116
f 123//117 122//117 117//117
f 124//118 123//118 118//118
f 125//119 124//119 119//119
f 121//120 125//120 120//120
f 127//121 126//121 121//121
f 128//122 127//122 122//122
f 129//123 128//123 123//123
f 130//124 129//124 124//124
f 121//125 126//125 130//125
f 132//126 131//126 126//126
f 133//127 132//127 127//127
f 134//128 133//128 128//128
f 135//129 134//129 129//129
f 131//130 135//130 130//130
f 137//131 136//131 131//131
f 138//132 137//132 132//132
f 139//133 138//133 133//133
f 135//134 140//134 139//134
f 136//135 140//135 135//135
f 142//136 141//136 136//136
f 138//137 143//137 142//137
f 144//138 143//138 138//138
f 145//139 144//139 139//139
f 141//140 145//140 140//140
f 147//141 146//141 141//141
f 148//142 147//142 142//142
f 149//143 148//143 143//143
f 145//144 150//144 149//144
f 146//145 150//145 145//145
f 152//146 151//146 146//146
f 148//147 153//147 152//147
f 154//148 153//148 148//148
f 155//149 154//149 149//149
f 146//150 151//150 155//150
f 157//151 156//151 151//151
f 153//152 158//152 157//152
f 159//153 158//153 153//153
f 160//154 159//154 154//154
f 151//155 156//155 160//155
f 157//156 82//156 81//156
f 83//157 82//157 157//157
f 84//158 83//158 158//158
f 85//159 84//159 159//159
f 81//160 85//160 160//160
g C_Leaf0.001_C_Leaf0.001
v -0.098000 0.648000 0.021000
v -0.084903 0.835895 0.021000
v -0.200747 1.029648 0.021000
v -0.494486 1.155479 0.021000
v -0.443454 0.840024 0.021000
v -0.283482 0.680748 0.021000
v -0.098000 0.648000 -0.021000
v -0.084903 0.835895 -0.021000
v -0.200747 1.029648 -0.021000
v -0.494486 1.155479 -0.021000
v -0.443454 0.840024 -0.021000
v -0.283482 0.680748 -0.021000
vn -0.0000 -0.0000 1.0000
vn -0.0000 -0.0000 -1.0000
vn -0.1739 -0.9848 -0.0000
vn 0.9976 -0.0695 -0.0000
vn 0.8583 0.5132 -0.0000
vn 0.3938 0.9192 -0.0000
vn -0.9872 -0.1597 -0.0000
vn -0.7056 -0.7086 -0.0000
s 0
g C_Leaf0.001_peace_ring_stone
usemtl peace_ring_stone
f 162//161 164//161 166//161
f 172//162 170//162 168//162
f 166//163 167//163 161//163
f 161//164 168//164 162//164
f 162//165 169//165 163//165
f 163//166 170//166 164//166
f 164//167 171//167 165//167
f 165//168 172//168 166//168
f 166//161 161//161 162//161
f 162//161 163//161 164//161
f 164//161 165//161 166//161
f 168//162 167//162 172//162
f 172//162 171//162 170//162
f 170//162 169//162 168//162
f 166//163 172//163 167//163
f 161//164 167//164 168//164
f 162//165 168//165 169//165
f 163//166 169//166 170//166
f 164//167 170//167 171//167
f 165//168 171//168 172//168
g C_Leaf1.001_C_Leaf1.001
v 0.098000 0.648000 0.021000
v 0.283482 0.680748 0.021000
v 0.443454 0.840024 0.021000
v 0.494486 1.155479 0.021000
v 0.200747 1.029648 0.021000
v 0.084903 0.835895 0.021000
v 0.098000 0.648000 -0.021000
v 0.283482 0.680748 -0.021000
v 0.443454 0.840024 -0.021000
v 0.494486 1.155479 -0.021000
v 0.200747 1.029648 -0.021000
v 0.084903 0.835895 -0.021000
vn -0.0000 -0.0000 1.0000
vn -0.0000 -0.0000 -1.0000
vn -0.9976 -0.0695 -0.0000
vn 0.1739 -0.9848 -0.0000
vn 0.7056 -0.7086 -0.0000
vn 0.9872 -0.1597 -0.0000
vn -0.3938 0.9192 -0.0000
vn -0.8583 0.5132 -0.0000
s 0
g C_Leaf1.001_peace_ring_stone
usemtl peace_ring_stone
f 174//169 176//169 178//169
f 184//170 182//170 180//170
f 178//171 179//171 173//171
f 173//172 180//172 174//172
f 174//173 181//173 175//173
f 175//174 182//174 176//174
f 176//175 183//175 177//175
f 177//176 184//176 178//176
f 178//169 173//169 174//169
f 174//169 175//169 176//169
f 176//169 177//169 178//169
f 180//170 179//170 184//170
f 184//170 183//170 182//170
f 182//170 181//170 180//170
f 178//171 184//171 179//171
f 173//172 179//172 180//172
f 174//173 180//173 181//173
f 175//174 181//174 182//174
f 176//175 182//175 183//175
f 177//176 183//176 184//176
g D_Bud.001_D_Bud.001
v 0.000000 0.648000 0.000000
v 0.112000 0.648000 0.000000
v 0.056000 0.648000 -0.096995
v -0.056000 0.648000 -0.096995
v -0.112000 0.648000 -0.000000
v -0.056000 0.648000 0.096995
v 0.056000 0.648000 0.096995
v 0.112000 0.788000 0.000000
v 0.056000 0.788000 -0.096995
v -0.056000 0.788000 -0.096995
v -0.112000 0.788000 -0.000000
v -0.056000 0.788000 0.096995
v 0.056000 0.788000 0.096995
v 0.000000 0.816000 0.000000
vn -0.0000 -1.0000 -0.0000
vn 0.8660 -0.0000 -0.5000
vn -0.0000 -0.0000 -1.0000
vn -0.8660 -0.0000 -0.5000
vn -0.8660 -0.0000 0.5000
vn -0.0000 -0.0000 1.0000
vn 0.8660 -0.0000 0.5000
vn 0.2402 0.9608 -0.1387
vn -0.0000 0.9608 -0.2774
vn -0.2402 0.9608 -0.1387
vn -0.2402 0.9608 0.1387
vn -0.0000 0.9608 0.2774
vn 0.2402 0.9608 0.1387
s 0
g D_Bud.001_peace_ring_metal
usemtl peace_ring_metal
f 185//177 187//177 186//177
f 185//177 188//177 187//177
f 185//177 189//177 188//177
f 185//177 190//177 189//177
f 185//177 191//177 190//177
f 185//177 186//177 191//177
f 187//178 192//178 186//178
f 188//179 193//179 187//179
f 189//180 194//180 188//180
f 190//181 195//181 189//181
f 191//182 196//182 190//182
f 186//183 197//183 191//183
f 192//184 193//184 198//184
f 193//185 194//185 198//185
f 194//186 195//186 198//186
f 195//187 196//187 198//187
f 196//188 197//188 198//188
f 197//189 192//189 198//189
f 187//178 193//178 192//178
f 188//179 194//179 193//179
f 189//180 195//180 194//180
f 190//181 196//181 195//181
f 191//182 197//182 196//182
f 186//183 192//183 197//183
