# Blender 5.2.2 LTS
# www.blender.org
mtllib pearl_ring.mtl
g A_Band.001_A_Band.001
v 0.715000 0.000000 0.000000
v 0.667500 0.000000 -0.082272
v 0.572500 0.000000 -0.082272
v 0.525000 0.000000 -0.000000
v 0.572500 0.000000 0.082272
v 0.667500 0.000000 0.082272
v 0.660574 0.273619 0.000000
v 0.616690 0.255441 -0.082272
v 0.528921 0.219086 -0.082272
v 0.485037 0.200909 -0.000000
v 0.528921 0.219086 0.082272
v 0.616690 0.255441 0.082272
v 0.505581 0.505581 0.000000
v 0.471994 0.471994 -0.082272
v 0.404819 0.404819 -0.082272
v 0.371231 0.371231 -0.000000
v 0.404819 0.404819 0.082272
v 0.471994 0.471994 0.082272
v 0.273619 0.660574 0.000000
v 0.255441 0.616690 -0.082272
v 0.219086 0.528921 -0.082272
v 0.200909 0.485037 -0.000000
v 0.219086 0.528921 0.082272
v 0.255441 0.616690 0.082272
v 0.000000 0.715000 0.000000
v 0.000000 0.667500 -0.082272
v 0.000000 0.572500 -0.082272
v 0.000000 0.525000 -0.000000
v 0.000000 0.572500 0.082272
v 0.000000 0.667500 0.082272
v -0.273619 0.660574 0.000000
v -0.255441 0.616690 -0.082272
v -0.219086 0.528921 -0.082272
v -0.200909 0.485037 -0.000000
v -0.219086 0.528921 0.082272
v -0.255441 0.616690 0.082272
v -0.505581 0.505581 0.000000
v -0.471994 0.471994 -0.082272
v -0.404819 0.404819 -0.082272
v -0.371231 0.371231 -0.000000
v -0.404819 0.404819 0.082272
v -0.471994 0.471994 0.082272
v -0.660574 0.273619 0.000000
v -0.616690 0.255441 -0.082272
v -0.528921 0.219086 -0.082272
v -0.485037 0.200909 -0.000000
v -0.528921 0.219086 0.082272
v -0.616690 0.255441 0.082272
v -0.715000 0.000000 0.000000
v -0.667500 0.000000 -0.082272
v -0.572500 0.000000 -0.082272
v -0.525000 0.000000 -0.000000
v -0.572500 0.000000 0.082272
v -0.667500 0.000000 0.082272
v -0.660574 -0.273619 0.000000
v -0.616690 -0.255441 -0.082272
v -0.528921 -0.219086 -0.082272
v -0.485037 -0.200909 -0.000000
v -0.528921 -0.219086 0.082272
v -0.616690 -0.255441 0.082272
v -0.505581 -0.505581 0.000000
v -0.471994 -0.471994 -0.082272
v -0.404819 -0.404819 -0.082272
v -0.371231 -0.371231 -0.000000
v -0.404819 -0.404819 0.082272
v -0.471994 -0.471994 0.082272
v -0.273619 -0.660574 0.000000
v -0.255441 -0.616690 -0.082272
v -0.219086 -0.528921 -0.082272
v -0.200909 -0.485037 -0.000000
v -0.219086 -0.528921 0.082272
v -0.255441 -0.616690 0.082272
v -0.000000 -0.715000 0.000000
v -0.000000 -0.667500 -0.082272
v -0.000000 -0.572500 -0.082272
v -0.000000 -0.525000 -0.000000
v -0.000000 -0.572500 0.082272
v -0.000000 -0.667500 0.082272
v 0.273619 -0.660574 0.000000
v 0.255441 -0.616690 -0.082272
v 0.219086 -0.528921 -0.082272
v 0.200909 -0.485037 -0.000000
v 0.219086 -0.528921 0.082272
v 0.255441 -0.616690 0.082272
v 0.505581 -0.505581 0.000000
v 0.471994 -0.471994 -0.082272
v 0.404819 -0.404819 -0.082272
v 0.371231 -0.371231 -0.000000
v 0.404819 -0.404819 0.082272
v 0.471994 -0.471994 0.082272
v 0.660574 -0.273619 0.000000
v 0.616690 -0.255441 -0.082272
v 0.528921 -0.219086 -0.082272
v 0.485037 -0.200909 -0.000000
v 0.528921 -0.219086 0.082272
v 0.616690 -0.255441 0.082272
vn 0.8535 0.1698 -0.4927
vn -0.0000 -0.0000 -1.0000
vn -0.8535 -0.1698 -0.4927
vn -0.8535 -0.1698 0.4927
vn -0.0000 -0.0000 1.0000
vn 0.8535 0.1698 0.4927
vn 0.7235 0.4834 -0.4927
vn -0.7235 -0.4834 -0.4927
vn -0.7235 -0.4834 0.4927
vn 0.7235 0.4834 0.4927
vn 0.4834 0.7235 -0.4927
vn -0.4834 -0.7235 -0.4927
vn -0.4834 -0.7235 0.4927
vn 0.4834 0.7235 0.4927
vn 0.1698 0.8535 -0.4927
vn -0.1698 -0.8535 -0.4927
vn -0.1698 -0.8535 0.4927
vn 0.1698 0.8535 0.4927
vn -0.1698 0.8535 -0.4927
vn 0.1698 -0.8535 -0.4927
vn 0.1698 -0.8535 0.4927
vn -0.1698 0.8535 0.4927
vn -0.4834 0.7235 -0.4927
vn 0.4834 -0.7235 -0.4927
vn 0.4834 -0.7235 0.4927
vn -0.4834 0.7235 0.4927
vn -0.7235 0.4834 -0.4927
vn 0.7235 -0.4834 -0.4927
vn 0.7235 -0.4834 0.4927
vn -0.7235 0.4834 0.4927
vn -0.8535 0.1698 -0.4927
vn 0.8535 -0.1698 -0.4927
vn 0.8535 -0.1698 0.4927
vn -0.8535 0.1698 0.4927
s 0
g A_Band.001_pearl_ring_metal
usemtl pearl_ring_metal
f 8//1 1//1 2//1
f 9//2 2//2 3//2
f 10//3 3//3 4//3
f 11//4 4//4 5//4
f 12//5 5//5 6//5
f 1//6 12//6 6//6
f 8//7 13//7 7//7
f 15//2 8//2 9//2
f 16//8 9//8 10//8
f 11//9 16//9 10//9
f 12//5 17//5 11//5
f 13//10 12//10 7//10
f 20//11 13//11 14//11
f 15//2 20//2 14//2
f 16//12 21//12 15//12
f 23//13 16//13 17//13
f 24//5 17//5 18//5
f 13//14 24//14 18//14
f 26//15 19//15 20//15
f 27//2 20//2 21//2
f 28//16 21//16 22//16
f 29//17 22//17 23//17
f 30//5 23//5 24//5
f 25//18 24//18 19//18
f 26//19 31//19 25//19
f 33//2 26//2 27//2
f 34//20 27//20 28//20
f 35//21 28//21 29//21
f 36//5 29//5 30//5
f 25//22 36//22 30//22
f 38//23 31//23 32//23
f 39//2 32//2 33//2
f 40//24 33//24 34//24
f 35//25 40//25 34//25
f 36//5 41//5 35//5
f 37//26 36//26 31//26
f 44//27 37//27 38//27
f 39//2 44//2 38//2
f 40//28 45//28 39//28
f 47//29 40//29 41//29
f 48//5 41//5 42//5
f 43//30 42//30 37//30
f 44//31 49//31 43//31
f 51//2 44//2 45//2
f 52//32 45//32 46//32
f 53//33 46//33 47//33
f 54//5 47//5 48//5
f 49//34 48//34 43//34
f 56//3 49//3 50//3
f 57//2 50//2 51//2
f 58//1 51//1 52//1
f 59//6 52//6 53//6
f 60//5 53//5 54//5
f 49//4 60//4 54//4
f 56//8 61//8 55//8
f 63//2 56//2 57//2
f 64//7 57//7 58//7
f 59//10 64//10 58//10
f 60//5 65//5 59//5
f 61//9 60//9 55//9
f 68//12 61//12 62//12
f 63//2 68//2 62//2
f 64//11 69//11 63//11
f 71//14 64//14 65//14
f 72//5 65//5 66//5
f 61//13 72//13 66//13
f 74//16 67//16 68//16
f 75//2 68//2 69//2
f 76//15 69//15 70//15
f 77//18 70//18 71//18
f 78//5 71//5 72//5
f 73//17 72//17 67//17
f 74//20 79//20 73//20
f 81//2 74//2 75//2
f 82//19 75//19 76//19
f 83//22 76//22 77//22
f 84//5 77//5 78//5
f 73//21 84//21 78//21
f 86//24 79//24 80//24
f 87//2 80//2 81//2
f 88//23 81//23 82//23
f 83//26 88//26 82//26
f 84//5 89//5 83//5
f 85//25 84//25 79//25
f 92//28 85//28 86//28
f 87//2 92//2 86//2
f 88//27 93//27 87//27
f 95//30 88//30 89//30
f 96//5 89//5 90//5
f 91//29 90//29 85//29
f 92//32 1//32 91//32
f 3//2 92//2 93//2
f 4//31 93//31 94//31
f 5//34 94//34 95//34
f 6//5 95//5 96//5
f 1//33 96//33 91//33
f 8//1 7//1 1//1
f 9//2 8//2 2//2
f 10//3 9//3 3//3
f 11//4 10//4 4//4
f 12//5 11//5 5//5
f 1//6 7//6 12//6
f 8//7 14//7 13//7
f 15//2 14//2 8//2
f 16//8 15//8 9//8
f 11//9 17//9 16//9
f 12//5 18//5 17//5
f 13//10 18//10 12//10
f 20//11 19//11 13//11
f 15//2 21//2 20//2
f 16//12 22//12 21//12
f 23//13 22//13 16//13
f 24//5 23//5 17//5
f 13//14 19//14 24//14
f 26//15 25//15 19//15
f 27//2 26//2 20//2
f 28//16 27//16 21//16
f 29//17 28//17 22//17
f 30//5 29//5 23//5
f 25//18 30//18 24//18
f 26//19 32//19 31//19
f 33//2 32//2 26//2
f 34//20 33//20 27//20
f 35//21 34//21 28//21
f 36//5 35//5 29//5
f 25//22 31//22 36//22
f 38//23 37//23 31//23
f 39//2 38//2 32//2
f 40//24 39//24 33//24
f 35//25 41//25 40//25
f 36//5 42//5 41//5
f 37//26 42//26 36//26
f 44//27 43//27 37//27
f 39//2 45//2 44//2
f 40//28 46//28 45//28
f 47//29 46//29 40//29
f 48//5 47//5 41//5
f 43//30 48//30 42//30
f 44//31 50//31 49//31
f 51//2 50//2 44//2
f 52//32 51//32 45//32
f 53//33 52//33 46//33
f 54//5 53//5 47//5
f 49//34 54//34 48//34
f 56//3 55//3 49//3
f 57//2 56//2 50//2
f 58//1 57//1 51//1
f 59//6 58//6 52//6
f 60//5 59//5 53//5
f 49//4 55//4 60//4
f 56//8 62//8 61//8
f 63//2 62//2 56//2
f 64//7 63//7 57//7
f 59//10 65//10 64//10
f 60//5 66//5 65//5
f 61//9 66//9 60//9
f 68//12 67//12 61//12
f 63//2 69//2 68//2
f 64//11 70//11 69//11
f 71//14 70//14 64//14
f 72//5 71//5 65//5
f 61//13 67//13 72//13
f 74//16 73//16 67//16
f 75//2 74//2 68//2
f 76//15 75//15 69//15
f 77//18 76//18 70//18
f 78//5 77//5 71//5
f 73//17 78//17 72//17
f 74//20 80//20 79//20
f 81//2 80//2 74//2
f 82//19 81//19 75//19
f 83//22 82//22 76//22
f 84//5 83//5 77//5
f 73//21 79//21 84//21
f 86//24 85//24 79//24
f 87//2 86//2 80//2
f 88//23 87//23 81//23
f 83//26 89//26 88//26
f 84//5 90//5 89//5
f 85//25 90//25 84//25
f 92//28 91//28 85//28
f 87//2 93//2 92//2
f 88//27 94//27 93//27
f 95//30 94//30 88//30
f 96//5 95//5 89//5
f 91//29 96//29 90//29
f 92//32 2//32 1//32
f 3//2 2//2 92//2
f 4//31 3//31 93//31
f 5//34 4//34 94//34
f 6//5 5//5 95//5
f 1//33 6//33 96//33
g B_Collar.001_B_Collar.001
v 0.000000 0.620000 0.000000
v 0.336000 0.620000 0.000000
v 0.237588 0.620000 -0.237588
v 0.000000 0.620000 -0.336000
v -0.237588 0.620000 -0.237588
v -0.336000 0.620000 -0.000000
v -0.237588 0.620000 0.237588
v -0.000000 0.620000 0.336000
v 0.237588 0.620000 0.237588
v 0.280000 0.760000 0.000000
v 0.197990 0.760000 -0.197990
v 0.000000 0.760000 -0.280000
v -0.197990 0.760000 -0.197990
v -0.280000 0.760000 -0.000000
v -0.197990 0.760000 0.197990
v -0.000000 0.760000 0.280000
v 0.197990 0.760000 0.197990
v 0.000000 0.760000 0.000000
vn -0.0000 -1.0000 -0.0000
vn 0.8666 0.3466 -0.3590
vn 0.3590 0.3466 -0.8666
vn -0.3590 0.3466 -0.8666
vn -0.8666 0.3466 -0.3590
vn -0.8666 0.3466 0.3590
vn -0.3590 0.3466 0.8666
vn 0.3590 0.3466 0.8666
vn 0.8666 0.3466 0.3590
vn -0.0000 1.0000 -0.0000
s 0
g B_Collar.001_pearl_ring_metal
usemtl pearl_ring_metal
f 97//35 99//35 98//35
f 97//35 100//35 99//35
f 97//35 101//35 100//35
f 97//35 102//35 101//35
f 97//35 103//35 102//35
f 97//35 104//35 103//35
f 97//35 105//35 104//35
f 97//35 98//35 105//35
f 99//36 106//36 98//36
f 100//37 107//37 99//37
f 101//38 108//38 100//38
f 102//39 109//39 101//39
f 103//40 110//40 102//40
f 104//41 111//41 103//41
f 105//42 112//42 104//42
f 98//43 113//43 105//43
f 106//44 107//44 114//44
f 107//44 108//44 114//44
f 108//44 109//44 114//44
f 109//44 110//44 114//44
f 110//44 111//44 114//44
f 111//44 112//44 114//44
f 112//44 113//44 114//44
f 113//44 106//44 114//44
f 99//36 107//36 106//36
f 100//37 108//37 107//37
f 101//38 109//38 108//38
f 102//39 110//39 109//39
f 103//40 111//40 110//40
f 104//41 112//41 111//41
f 105//42 113//42 112//42
f 98//43 106//43 113//43
g C_Pearl.001_C_Pearl.001
v 0.000000 0.816000 0.000000
v 0.065639 0.821743 0.000000
v 0.056845 0.821743 -0.032820
v 0.032820 0.821743 -0.056845
v 0.000000 0.821743 -0.065639
v -0.032820 0.821743 -0.056845
v -0.056845 0.821743 -0.032820
v -0.065639 0.821743 -0.000000
v -0.056845 0.821743 0.032820
v -0.032820 0.821743 0.056845
v -0.000000 0.821743 0.065639
v 0.032820 0.821743 0.056845
v 0.056845 0.821743 0.032820
v 0.189000 0.866642 0.000000
v 0.163679 0.866642 -0.094500
v 0.094500 0.866642 -0.163679
v 0.000000 0.866642 -0.189000
v -0.094500 0.866642 -0.163679
v -0.163679 0.866642 -0.094500
v -0.189000 0.866642 -0.000000
v -0.163679 0.866642 0.094500
v -0.094500 0.866642 0.163679
v -0.000000 0.866642 0.189000
v 0.094500 0.866642 0.163679
v 0.163679 0.866642 0.094500
v 0.289565 0.951026 0.000000
v 0.250770 0.951026 -0.144782
v 0.144782 0.951026 -0.250770
v 0.000000 0.951026 -0.289565
v -0.144782 0.951026 -0.250770
v -0.250770 0.951026 -0.144782
v -0.289565 0.951026 -0.000000
v -0.250770 0.951026 0.144782
v -0.144782 0.951026 0.250770
v -0.000000 0.951026 0.289565
v 0.144782 0.951026 0.250770
v 0.250770 0.951026 0.144782
v 0.355204 1.064716 0.000000
v 0.307616 1.064716 -0.177602
v 0.177602 1.064716 -0.307616
v 0.000000 1.064716 -0.355204
v -0.177602 1.064716 -0.307616
v -0.307616 1.064716 -0.177602
v -0.355204 1.064716 -0.000000
v -0.307616 1.064716 0.177602
v -0.177602 1.064716 0.307616
v -0.000000 1.064716 0.355204
v 0.177602 1.064716 0.307616
v 0.307616 1.064716 0.177602
v 0.378000 1.194000 0.000000
v 0.327358 1.194000 -0.189000
v 0.189000 1.194000 -0.327358
v 0.000000 1.194000 -0.378000
v -0.189000 1.194000 -0.327358
v -0.327358 1.194000 -0.189000
v -0.378000 1.194000 -0.000000
v -0.327358 1.194000 0.189000
v -0.189000 1.194000 0.327358
v -0.000000 1.194000 0.378000
v 0.189000 1.194000 0.327358
v 0.327358 1.194000 0.189000
v 0.355204 1.323284 0.000000
v 0.307616 1.323284 -0.177602
v 0.177602 1.323284 -0.307616
v 0.000000 1.323284 -0.355204
v -0.177602 1.323284 -0.307616
v -0.307616 1.323284 -0.177602
v -0.355204 1.323284 -0.000000
v -0.307616 1.323284 0.177602
v -0.177602 1.323284 0.307616
v -0.000000 1.323284 0.355204
v 0.177602 1.323284 0.307616
v 0.307616 1.323284 0.177602
v 0.289565 1.436974 0.000000
v 0.250770 1.436974 -0.144782
v 0.144782 1.436974 -0.250770
v 0.000000 1.436974 -0.289565
v -0.144782 1.436974 -0.250770
v -0.250770 1.436974 -0.144782
v -0.289565 1.436974 -0.000000
v -0.250770 1.436974 0.144782
v -0.144782 1.436974 0.250770
v -0.000000 1.436974 0.289565
v 0.144782 1.436974 0.250770
v 0.250770 1.436974 0.144782
v 0.189000 1.521358 0.000000
v 0.163679 1.521358 -0.094500
v 0.094500 1.521358 -0.163679
v 0.000000 1.521358 -0.189000
v -0.094500 1.521358 -0.163679
v -0.163679 1.521358 -0.094500
v -0.189000 1.521358 -0.000000
v -0.163679 1.521358 0.094500
v -0.094500 1.521358 0.163679
v -0.000000 1.521358 0.189000
v 0.094500 1.521358 0.163679
v 0.163679 1.521358 0.094500
v 0.065639 1.566257 0.000000
v 0.056845 1.566257 -0.032820
v 0.032820 1.566257 -0.056845
v 0.000000 1.566257 -0.065639
v -0.032820 1.566257 -0.056845
v -0.056845 1.566257 -0.032820
v -0.065639 1.566257 -0.000000
v -0.056845 1.566257 0.032820
v -0.032820 1.566257 0.056845
v -0.000000 1.566257 0.065639
v 0.032820 1.566257 0.056845
v 0.056845 1.566257 0.032820
v 0.000000 1.572000 0.000000
vn 0.0871 -0.9959 -0.0233
vn 0.0638 -0.9959 -0.0638
vn 0.0233 -0.9959 -0.0871
vn -0.0233 -0.9959 -0.0871
vn -0.0638 -0.9959 -0.0638
vn -0.0871 -0.9959 -0.0233
vn -0.0871 -0.9959 0.0233
vn -0.0638 -0.9959 0.0638
vn -0.0233 -0.9959 0.0871
vn 0.0233 -0.9959 0.0871
vn 0.0638 -0.9959 0.0638
vn 0.0871 -0.9959 0.0233
vn 0.3406 -0.9358 -0.0913
vn 0.2493 -0.9358 -0.2493
vn 0.0913 -0.9358 -0.3406
vn -0.0913 -0.9358 -0.3406
vn -0.2493 -0.9358 -0.2493
vn -0.3406 -0.9358 -0.0913
vn -0.3406 -0.9358 0.0913
vn -0.2493 -0.9358 0.2493
vn -0.0913 -0.9358 0.3406
vn 0.0913 -0.9358 0.3406
vn 0.2493 -0.9358 0.2493
vn 0.3406 -0.9358 0.0913
vn 0.6335 -0.7549 -0.1697
vn 0.4637 -0.7549 -0.4637
vn 0.1697 -0.7549 -0.6335
vn -0.1697 -0.7549 -0.6335
vn -0.4637 -0.7549 -0.4637
vn -0.6335 -0.7549 -0.1697
vn -0.6335 -0.7549 0.1697
vn -0.4637 -0.7549 0.4637
vn -0.1697 -0.7549 0.6335
vn 0.1697 -0.7549 0.6335
vn 0.4637 -0.7549 0.4637
vn 0.6335 -0.7549 0.1697
vn 0.8436 -0.4871 -0.2260
vn 0.6176 -0.4871 -0.6176
vn 0.2260 -0.4871 -0.8436
vn -0.2260 -0.4871 -0.8436
vn -0.6176 -0.4871 -0.6176
vn -0.8436 -0.4871 -0.2260
vn -0.8436 -0.4871 0.2260
vn -0.6176 -0.4871 0.6176
vn -0.2260 -0.4871 0.8436
vn 0.2260 -0.4871 0.8436
vn 0.6176 -0.4871 0.6176
vn 0.8436 -0.4871 0.2260
vn 0.9522 -0.1679 -0.2551
vn 0.6971 -0.1679 -0.6971
vn 0.2551 -0.1679 -0.9522
vn -0.2551 -0.1679 -0.9522
vn -0.6971 -0.1679 -0.6971
vn -0.9522 -0.1679 -0.2551
vn -0.9522 -0.1679 0.2551
vn -0.6971 -0.1679 0.6971
vn -0.2551 -0.1679 0.9522
vn 0.2551 -0.1679 0.9522
vn 0.6971 -0.1679 0.6971
vn 0.9522 -0.1679 0.2551
vn 0.9522 0.1679 -0.2551
vn 0.6971 0.1679 -0.6971
vn 0.2551 0.1679 -0.9522
vn -0.2551 0.1679 -0.9522
vn -0.6971 0.1679 -0.6971
vn -0.9522 0.1679 -0.2551
vn -0.9522 0.1679 0.2551
vn -0.6971 0.1679 0.6971
vn -0.2551 0.1679 0.9522
vn 0.2551 0.1679 0.9522
vn 0.6971 0.1679 0.6971
vn 0.9522 0.1679 0.2551
vn 0.8436 0.4871 -0.2260
vn 0.6176 0.4871 -0.6176
vn 0.2260 0.4871 -0.8436
vn -0.2260 0.4871 -0.8436
vn -0.6176 0.4871 -0.6176
vn -0.8436 0.4871 -0.2260
vn -0.8436 0.4871 0.2260
vn -0.6176 0.4871 0.6176
vn -0.2260 0.4871 0.8436
vn 0.2260 0.4871 0.8436
vn 0.6176 0.4871 0.6176
vn 0.8436 0.4871 0.2260
vn 0.6335 0.7549 -0.1697
vn 0.4637 0.7549 -0.4637
vn 0.1697 0.7549 -0.6335
vn -0.1697 0.7549 -0.6335
vn -0.4637 0.7549 -0.4637
vn -0.6335 0.7549 -0.1697
vn -0.6335 0.7549 0.1697
vn -0.4637 0.7549 0.4637
vn -0.1697 0.7549 0.6335
vn 0.1697 0.7549 0.6335
vn 0.4637 0.7549 0.4637
vn 0.6335 0.7549 0.1697
vn 0.3406 0.9358 -0.0913
vn 0.2493 0.9358 -0.2493
vn 0.0913 0.9358 -0.3406
vn -0.0913 0.9358 -0.3406
vn -0.2493 0.9358 -0.2493
vn -0.3406 0.9358 -0.0913
vn -0.3406 0.9358 0.0913
vn -0.2493 0.9358 0.2493
vn -0.0913 0.9358 0.3406
vn 0.0913 0.9358 0.3406
vn 0.2493 0.9358 0.2493
vn 0.3406 0.9358 0.0913
vn 0.0871 0.9959 -0.0233
vn 0.0638 0.9959 -0.0638
vn 0.0233 0.9959 -0.0871
vn -0.0233 0.9959 -0.0871
vn -0.0638 0.9959 -0.0638
vn -0.0871 0.9959 -0.0233
vn -0.0871 0.9959 0.0233
vn -0.0638 0.9959 0.0638
vn -0.0233 0.9959 0.0871
vn 0.0233 0.9959 0.0871
vn 0.0638 0.9959 0.0638
vn 0.0871 0.9959 0.0233
s 0
g C_Pearl.001_pearl_ring_stone
usemtl pearl_ring_stone
f 115//45 117//45 116//45
f 115//46 118//46 117//46
f 115//47 119//47 118//47
f 115//48 120//48 119//48
f 115//49 121//49 120//49
f 115//50 122//50 121//50
f 115//51 123//51 122//51
f 115//52 124//52 123//52
f 115//53 125//53 124//53
f 115//54 126//54 125//54
f 115//55 127//55 126//55
f 115//56 116//56 127//56
f 117//57 128//57 116//57
f 118//58 129//58 117//58
f 119//59 130//59 118//59
f 120//60 131//60 119//60
f 121//61 132//61 120//61
f 122//62 133//62 121//62
f 123//63 134//63 122//63
f 124//64 135//64 123//64
f 125//65 136//65 124//65
f 126//66 137//66 125//66
f 127//67 138//67 126//67
f 116//68 139//68 127//68
f 128//69 141//69 140//69
f 130//70 141//70 129//70
f 131//71 142//71 130//71
f 131//72 144//72 143//72
f 133//73 144//73 132//73
f 134//74 145//74 133//74
f 134//75 147//75 146//75
f 136//76 147//76 135//76
f 137//77 148//77 136//77
f 137//78 150//78 149//78
f 139//79 150//79 138//79
f 128//80 151//80 139//80
f 141//81 152//81 140//81
f 142//82 153//82 141//82
f 143//83 154//83 142//83
f 144//84 155//84 143//84
f 145//85 156//85 144//85
f 146//86 157//86 145//86
f 147//87 158//87 146//87
f 148//88 159//88 147//88
f 149//89 160//89 148//89
f 150//90 161//90 149//90
f 151//91 162//91 150//91
f 140//92 163//92 151//92
f 153//93 164//93 152//93
f 154//94 165//94 153//94
f 155//95 166//95 154//95
f 156//96 167//96 155//96
f 157//97 168//97 156//97
f 158//98 169//98 157//98
f 159//99 170//99 158//99
f 160//100 171//100 159//100
f 161//101 172//101 160//101
f 162//102 173//102 161//102
f 163//103 174//103 162//103
f 152//104 175//104 163//104
f 165//105 176//105 164//105
f 166//106 177//106 165//106
f 167//107 178//107 166//107
f 168//108 179//108 167//108
f 169//109 180//109 168//109
f 170//110 181//110 169//110
f 171//111 182//111 170//111
f 172//112 183//112 171//112
f 173//113 184//113 172//113
f 174//114 185//114 173//114
f 175//115 186//115 174//115
f 164//116 187//116 175//116
f 177//117 188//117 176//117
f 178//118 189//118 177//118
f 178//119 191//119 190//119
f 180//120 191//120 179//120
f 181//121 192//121 180//121
f 181//122 194//122 193//122
f 183//123 194//123 182//123
f 184//124 195//124 183//124
f 184//125 197//125 196//125
f 186//126 197//126 185//126
f 187//127 198//127 186//127
f 187//128 188//128 199//128
f 189//129 200//129 188//129
f 190//130 201//130 189//130
f 191//131 202//131 190//131
f 192//132 203//132 191//132
f 193//133 204//133 192//133
f 194//134 205//134 193//134
f 195//135 206//135 194//135
f 196//136 207//136 195//136
f 197//137 208//137 196//137
f 198//138 209//138 197//138
f 199//139 210//139 198//139
f 188//140 211//140 199//140
f 201//141 212//141 200//141
f 202//142 213//142 201//142
f 202//143 215//143 214//143
f 204//144 215//144 203//144
f 205//145 216//145 204//145
f 205//146 218//146 217//146
f 207//147 218//147 206//147
f 208//148 219//148 207//148
f 208//149 221//149 220//149
f 210//150 221//150 209//150
f 211//151 222//151 210//151
f 211//152 212//152 223//152
f 212//153 213//153 224//153
f 213//154 214//154 224//154
f 214//155 215//155 224//155
f 215//156 216//156 224//156
f 216//157 217//157 224//157
f 217//158 218//158 224//158
f 218//159 219//159 224//159
f 219//160 220//160 224//160
f 220//161 221//161 224//161
f 221//162 222//162 224//162
f 222//163 223//163 224//163
f 223//164 212//164 224//164
f 117//57 129//57 128//57
f 118//58 130//58 129//58
f 119//59 131//59 130//59
f 120//60 132//60 131//60
f 121//61 133//61 132//61
f 122//62 134//62 133//62
f 123//63 135//63 134//63
f 124//64 136//64 135//64
f 125//65 137//65 136//65
f 126//66 138//66 137//66
f 127//67 139//67 138//67
f 116//68 128//68 139//68
f 128//69 129//69 141//69
f 130//70 142//70 141//70
f 131//71 143//71 142//71
f 131//72 132//72 144//72
f 133//73 145//73 144//73
f 134//74 146//74 145//74
f 134//75 135//75 147//75
f 136//76 148//76 147//76
f 137//77 149//77 148//77
f 137//78 138//78 150//78
f 139//79 151//79 150//79
f 128//80 140//80 151//80
f 141//81 153//81 152//81
f 142//82 154//82 153//82
f 143//83 155//83 154//83
f 144//84 156//84 155//84
f 145//85 157//85 156//85
f 146//86 158//86 157//86
f 147//87 159//87 158//87
f 148//88 160//88 159//88
f 149//89 161//89 160//89
f 150//90 162//90 161//90
f 151//91 163//91 162//91
f 140//92 152//92 163//92
f 153//93 165//93 164//93
f 154//94 166//94 165//94
f 155//95 167//95 166//95
f 156//96 168//96 167//96
f 157//97 169//97 168//97
f 158//98 170//98 169//98
f 159//99 171//99 170//99
f 160//100 172//100 171//100
f 161//101 173//101 172//101
f 162//102 174//102 173//102
f 163//103 175//103 174//103
f 152//104 164//104 175//104
f 165//105 177//105 176//105
f 166//106 178//106 177//106
f 167//107 179//107 178//107
f 168//108 180//108 179//108
f 169//109 181//109 180//109
f 170//110 182//110 181//110
f 171//111 183//111 182//111
f 172//112 184//112 183//112
f 173//113 185//113 184//113
f 174//114 186//114 185//114
f 175//115 187//115 186//115
f 164//116 176//116 187//116
f 177//117 189//117 188//117
f 178//118 190//118 189//118
f 178//119 179//119 191//119
f 180//120 192//120 191//120
f 181//121 193//121 192//121
f 181//122 182//122 194//122
f 183//123 195//123 194//123
f 184//124 196//124 195//124
f 184//125 185//125 197//125
f 186//126 198//126 197//126
f 187//127 199//127 198//127
f 187//128 176//128 188//128
f 189//129 201//129 200//129
f 190//130 202//130 201//130
f 191//131 203//131 202//131
f 192//132 204//132 203//132
f 193//133 205//133 204//133
f 194//134 206//134 205//134
f 195//135 207//135 206//135
f 196//136 208//136 207//136
f 197//137 209//137 208//137
f 198//138 210//138 209//138
f 199//139 211//139 210//139
f 188//140 200//140 211//140
f 201//141 213//141 212//141
f 202//142 214//142 213//142
f 202//143 203//143 215//143
f 204//144 216//144 215//144
f 205//145 217//145 216//145
f 205//146 206//146 218//146
f 207//147 219//147 218//147
f 208//148 220//148 219//148
f 208//149 209//149 221//149
f 210//150 222//150 221//150
f 211//151 223//151 222//151
f 211//152 200//152 212//152
g D_Prong0.001_D_Prong0.001
v 0.378000 0.760000 0.000000
v 0.434000 0.760000 0.000000
v 0.378000 0.760000 -0.056000
v 0.322000 0.760000 -0.000000
v 0.378000 0.760000 0.056000
v 0.420000 1.180000 0.000000
v 0.378000 1.180000 -0.042000
v 0.336000 1.180000 -0.000000
v 0.378000 1.180000 0.042000
v 0.378000 1.236000 0.000000
vn -0.0000 -1.0000 -0.0000
vn 0.7069 0.0236 -0.7069
vn -0.7069 0.0236 -0.7069
vn -0.7069 0.0236 0.7069
vn 0.7069 0.0236 0.7069
vn 0.6247 0.4685 -0.6247
vn -0.6247 0.4685 -0.6247
vn -0.6247 0.4685 0.6247
vn 0.6247 0.4685 0.6247
s 0
g D_Prong0.001_pearl_ring_metal
usemtl pearl_ring_metal
f 225//165 227//165 226//165
f 225//165 228//165 227//165
f 225//165 229//165 228//165
f 225//165 226//165 229//165
f 227//166 230//166 226//166
f 228//167 231//167 227//167
f 229//168 232//168 228//168
f 226//169 233//169 229//169
f 230//170 231//170 234//170
f 231//171 232//171 234//171
f 232//172 233//172 234//172
f 233//173 230//173 234//173
f 227//166 231//166 230//166
f 228//167 232//167 231//167
f 229//168 233//168 232//168
f 226//169 230//169 233//169
g D_Prong1.001_D_Prong1.001
v -0.189000 0.760000 -0.327358
v -0.133000 0.760000 -0.327358
v -0.189000 0.760000 -0.383358
v -0.245000 0.760000 -0.327358
v -0.189000 0.760000 -0.271358
v -0.147000 1.180000 -0.327358
v -0.189000 1.180000 -0.369358
v -0.231000 1.180000 -0.327358
v -0.189000 1.180000 -0.285358
v -0.189000 1.236000 -0.327358
vn -0.0000 -1.0000 -0.0000
vn 0.7069 0.0236 -0.7069
vn -0.7069 0.0236 -0.7069
vn -0.7069 0.0236 0.7069
vn 0.7069 0.0236 0.7069
vn 0.6247 0.4685 -0.6247
vn -0.6247 0.4685 -0.6247
vn -0.6247 0.4685 0.6247
vn 0.6247 0.4685 0.6247
s 0
g D_Prong1.001_pearl_ring_metal
usemtl pearl_ring_metal
f 235//174 237//174 236//174
f 235//174 238//174 237//174
f 235//174 239//174 238//174
f 235//174 236//174 239//174
f 237//175 240//175 236//175
f 238//176 241//176 237//176
f 239//177 242//177 238//177
f 236//178 243//178 239//178
f 240//179 241//179 244//179
f 241//180 242//180 244//180
f 242//181 243//181 244//181
f 243//182 240//182 244//182
f 237//175 241//175 240//175
f 238//176 242//176 241//176
f 239//177 243//177 242//177
f 236//178 240//178 243//178
g D_Prong2.001_D_Prong2.001
v -0.189000 0.760000 0.327358
v -0.133000 0.760000 0.327358
v -0.189000 0.760000 0.271358
v -0.245000 0.760000 0.327358
v -0.189000 0.760000 0.383358
v -0.147000 1.180000 0.327358
v -0.189000 1.180000 0.285358
v -0.231000 1.180000 0.327358
v -0.189000 1.180000 0.369358
v -0.189000 1.236000 0.327358
vn -0.0000 -1.0000 -0.0000
vn 0.7069 0.0236 -0.7069
vn -0.7069 0.0236 -0.7069
vn -0.7069 0.0236 0.7069
vn 0.7069 0.0236 0.7069
vn 0.6247 0.4685 -0.6247
vn -0.6247 0.4685 -0.6247
vn -0.6247 0.4685 0.6247
vn 0.6247 0.4685 0.6247
s 0
g D_Prong2.001_pearl_ring_metal
usemtl pearl_ring_metal
f 245//183 247//183 246//183
f 245//183 248//183 247//183
f 245//183 249//183 248//183
f 245//183 246//183 249//183
f 247//184 250//184 246//184
f 248//185 251//185 247//185
f 249//186 252//186 248//186
f 246//187 253//187 249//187
f 250//188 251//188 254//188
f 251//189 252//189 254//189
f 252//190 253//190 254//190
f 253//191 250//191 254//191
f 247//184 251//184 250//184
f 248//185 252//185 251//185
f 249//186 253//186 252//186
f 246//187 250//187 253//187
