# Blender 5.2.2 LTS
# www.blender.org
mtllib potion.mtl
g A_Flask.001_A_Flask.001
v 0.000000 0.040000 0.000000
v 0.300000 0.020000 0.000000
v 0.277164 0.020000 -0.114805
v 0.212132 0.020000 -0.212132
v 0.114805 0.020000 -0.277164
v 0.000000 0.020000 -0.300000
v -0.114805 0.020000 -0.277164
v -0.212132 0.020000 -0.212132
v -0.277164 0.020000 -0.114805
v -0.300000 0.020000 -0.000000
v -0.277164 0.020000 0.114805
v -0.212132 0.020000 0.212132
v -0.114805 0.020000 0.277164
v -0.000000 0.020000 0.300000
v 0.114805 0.020000 0.277164
v 0.212132 0.020000 0.212132
v 0.277164 0.020000 0.114805
v 0.320000 0.080000 0.000000
v 0.295641 0.080000 -0.122459
v 0.226274 0.080000 -0.226274
v 0.122459 0.080000 -0.295641
v 0.000000 0.080000 -0.320000
v -0.122459 0.080000 -0.295641
v -0.226274 0.080000 -0.226274
v -0.295641 0.080000 -0.122459
v -0.320000 0.080000 -0.000000
v -0.295641 0.080000 0.122459
v -0.226274 0.080000 0.226274
v -0.122459 0.080000 0.295641
v -0.000000 0.080000 0.320000
v 0.122459 0.080000 0.295641
v 0.226274 0.080000 0.226274
v 0.295641 0.080000 0.122459
v 0.366646 0.225448 0.000000
v 0.338737 0.225448 -0.140309
v 0.259258 0.225448 -0.259258
v 0.140309 0.225448 -0.338737
v 0.000000 0.225448 -0.366646
v -0.140309 0.225448 -0.338737
v -0.259258 0.225448 -0.259258
v -0.338737 0.225448 -0.140309
v -0.366646 0.225448 -0.000000
v -0.338737 0.225448 0.140309
v -0.259258 0.225448 0.259258
v -0.140309 0.225448 0.338737
v -0.000000 0.225448 0.366646
v 0.140309 0.225448 0.338737
v 0.259258 0.225448 0.259258
v 0.338737 0.225448 0.140309
v 0.472883 0.343436 0.000000
v 0.436887 0.343436 -0.180964
v 0.334379 0.343436 -0.334379
v 0.180964 0.343436 -0.436887
v 0.000000 0.343436 -0.472883
v -0.180964 0.343436 -0.436887
v -0.334379 0.343436 -0.334379
v -0.436887 0.343436 -0.180964
v -0.472883 0.343436 -0.000000
v -0.436887 0.343436 0.180964
v -0.334379 0.343436 0.334379
v -0.180964 0.343436 0.436887
v -0.000000 0.343436 0.472883
v 0.180964 0.343436 0.436887
v 0.334379 0.343436 0.334379
v 0.436887 0.343436 0.180964
v 0.542483 0.486137 0.000000
v 0.501189 0.486137 -0.207599
v 0.383593 0.486137 -0.383593
v 0.207599 0.486137 -0.501189
v 0.000000 0.486137 -0.542483
v -0.207599 0.486137 -0.501189
v -0.383593 0.486137 -0.383593
v -0.501189 0.486137 -0.207599
v -0.542483 0.486137 -0.000000
v -0.501189 0.486137 0.207599
v -0.383593 0.486137 0.383593
v -0.207599 0.486137 0.501189
v -0.000000 0.486137 0.542483
v 0.207599 0.486137 0.501189
v 0.383593 0.486137 0.383593
v 0.501189 0.486137 0.207599
v 0.570053 0.642493 0.000000
v 0.403088 0.642493 -0.403088
v 0.218150 0.642493 -0.526660
v 0.000000 0.642493 -0.570053
v -0.218150 0.642493 -0.526660
v -0.403088 0.642493 -0.403088
v -0.570053 0.642493 -0.000000
v -0.526660 0.642493 0.218150
v -0.403088 0.642493 0.403088
v -0.218150 0.642493 0.526660
v -0.000000 0.642493 0.570053
v 0.218150 0.642493 0.526660
v 0.403088 0.642493 0.403088
v 0.526660 0.642493 0.218150
v 0.553457 0.800392 0.000000
v 0.211799 0.800392 -0.511327
v 0.000000 0.800392 -0.553457
v -0.211799 0.800392 -0.511327
v -0.553457 0.800392 -0.000000
v -0.511327 0.800392 0.211799
v -0.391353 0.800392 0.391353
v -0.211799 0.800392 0.511327
v -0.000000 0.800392 0.553457
v 0.211799 0.800392 0.511327
v 0.391353 0.800392 0.391353
v 0.511327 0.800392 0.211799
v 0.493981 0.947600 0.000000
v 0.189038 0.947600 -0.456379
v 0.000000 0.947600 -0.493981
v -0.189038 0.947600 -0.456379
v -0.493981 0.947600 -0.000000
v -0.456379 0.947600 0.189038
v -0.349297 0.947600 0.349297
v -0.189038 0.947600 0.456379
v -0.000000 0.947600 0.493981
v 0.189038 0.947600 0.456379
v 0.349297 0.947600 0.349297
v 0.456379 0.947600 0.189038
v 0.151632 1.072711 -0.366072
v 0.000000 1.072711 -0.396233
v -0.151632 1.072711 -0.366072
v -0.366072 1.072711 0.151632
v -0.280179 1.072711 0.280179
v -0.151632 1.072711 0.366072
v -0.000000 1.072711 0.396233
v 0.151632 1.072711 0.366072
v 0.280179 1.072711 0.280179
v 0.366072 1.072711 0.151632
v 0.267787 1.166033 0.000000
v 0.247403 1.166033 -0.102477
v 0.189354 1.166033 -0.189354
v 0.102477 1.166033 -0.247403
v 0.000000 1.166033 -0.267787
v -0.102477 1.166033 -0.247403
v -0.189354 1.166033 -0.189354
v -0.247403 1.166033 -0.102477
v -0.267787 1.166033 -0.000000
v -0.247403 1.166033 0.102477
v -0.189354 1.166033 0.189354
v -0.102477 1.166033 0.247403
v -0.000000 1.166033 0.267787
v 0.102477 1.166033 0.247403
v 0.189354 1.166033 0.189354
v 0.247403 1.166033 0.102477
v 0.220800 1.288000 0.000000
v 0.203993 1.288000 -0.084497
v 0.156129 1.288000 -0.156129
v 0.084497 1.288000 -0.203993
v 0.000000 1.288000 -0.220800
v -0.084497 1.288000 -0.203993
v -0.156129 1.288000 -0.156129
v -0.203993 1.288000 -0.084497
v -0.220800 1.288000 -0.000000
v -0.203993 1.288000 0.084497
v -0.156129 1.288000 0.156129
v -0.084497 1.288000 0.203993
v -0.000000 1.288000 0.220800
v 0.084497 1.288000 0.203993
v 0.156129 1.288000 0.156129
v 0.203993 1.288000 0.084497
v 0.138000 1.472000 0.000000
v 0.127495 1.472000 -0.052810
v 0.097581 1.472000 -0.097581
v 0.052810 1.472000 -0.127495
v 0.000000 1.472000 -0.138000
v -0.052810 1.472000 -0.127495
v -0.097581 1.472000 -0.097581
v -0.127495 1.472000 -0.052810
v -0.138000 1.472000 -0.000000
v -0.127495 1.472000 0.052810
v -0.097581 1.472000 0.097581
v -0.052810 1.472000 0.127495
v -0.000000 1.472000 0.138000
v 0.052810 1.472000 0.127495
v 0.097581 1.472000 0.097581
v 0.127495 1.472000 0.052810
v 0.128800 1.794000 0.000000
v 0.118996 1.794000 -0.049290
v 0.091075 1.794000 -0.091075
v 0.049290 1.794000 -0.118996
v 0.000000 1.794000 -0.128800
v -0.049290 1.794000 -0.118996
v -0.091075 1.794000 -0.091075
v -0.118996 1.794000 -0.049290
v -0.128800 1.794000 -0.000000
v -0.118996 1.794000 0.049290
v -0.091075 1.794000 0.091075
v -0.049290 1.794000 0.118996
v -0.000000 1.794000 0.128800
v 0.049290 1.794000 0.118996
v 0.091075 1.794000 0.091075
v 0.118996 1.794000 0.049290
v 0.174800 1.812400 0.000000
v 0.161494 1.812400 -0.066893
v 0.123602 1.812400 -0.123602
v 0.066893 1.812400 -0.161494
v 0.000000 1.812400 -0.174800
v -0.066893 1.812400 -0.161494
v -0.123602 1.812400 -0.123602
v -0.161494 1.812400 -0.066893
v -0.174800 1.812400 -0.000000
v -0.161494 1.812400 0.066893
v -0.123602 1.812400 0.123602
v -0.066893 1.812400 0.161494
v -0.000000 1.812400 0.174800
v 0.066893 1.812400 0.161494
v 0.123602 1.812400 0.123602
v 0.161494 1.812400 0.066893
v 0.174800 1.904400 0.000000
v 0.161494 1.904400 -0.066893
v 0.123602 1.904400 -0.123602
v 0.066893 1.904400 -0.161494
v 0.000000 1.904400 -0.174800
v -0.066893 1.904400 -0.161494
v -0.123602 1.904400 -0.123602
v -0.161494 1.904400 -0.066893
v -0.174800 1.904400 -0.000000
v -0.161494 1.904400 0.066893
v -0.123602 1.904400 0.123602
v -0.066893 1.904400 0.161494
v -0.000000 1.904400 0.174800
v 0.066893 1.904400 0.161494
v 0.123602 1.904400 0.123602
v 0.161494 1.904400 0.066893
v 0.138000 1.932000 0.000000
v 0.127495 1.932000 -0.052810
v 0.097581 1.932000 -0.097581
v 0.052810 1.932000 -0.127495
v 0.000000 1.932000 -0.138000
v -0.052810 1.932000 -0.127495
v -0.097581 1.932000 -0.097581
v -0.127495 1.932000 -0.052810
v -0.138000 1.932000 -0.000000
v -0.127495 1.932000 0.052810
v -0.097581 1.932000 0.097581
v -0.052810 1.932000 0.127495
v -0.000000 1.932000 0.138000
v 0.052810 1.932000 0.127495
v 0.097581 1.932000 0.097581
v 0.127495 1.932000 0.052810
v -0.000000 0.090115 0.000000
v 0.261141 0.071047 0.000000
v 0.241262 0.071047 -0.099934
v 0.184654 0.071047 -0.184654
v 0.099934 0.071047 -0.241262
v 0.000000 0.071047 -0.261141
v -0.099934 0.071047 -0.241262
v -0.184654 0.071047 -0.184654
v -0.241262 0.071047 -0.099934
v -0.261141 0.071047 -0.000000
v -0.241262 0.071047 0.099934
v -0.184654 0.071047 0.184654
v -0.099934 0.071047 0.241262
v -0.000000 0.071047 0.261141
v 0.099934 0.071047 0.241262
v 0.184654 0.071047 0.184654
v 0.241262 0.071047 0.099934
v 0.271630 0.095805 0.000000
v 0.250954 0.095805 -0.103948
v 0.192072 0.095805 -0.192072
v 0.103948 0.095805 -0.250954
v 0.000000 0.095805 -0.271630
v -0.103948 0.095805 -0.250954
v -0.192072 0.095805 -0.192072
v -0.250954 0.095805 -0.103948
v -0.271630 0.095805 -0.000000
v -0.250954 0.095805 0.103948
v -0.192072 0.095805 0.192072
v -0.103948 0.095805 0.250954
v -0.000000 0.095805 0.271630
v 0.103948 0.095805 0.250954
v 0.192072 0.095805 0.192072
v 0.250954 0.095805 0.103948
v 0.322005 0.251913 0.000000
v 0.297494 0.251913 -0.123226
v 0.227692 0.251913 -0.227692
v 0.123226 0.251913 -0.297494
v -0.000000 0.251913 -0.322005
v -0.123226 0.251913 -0.297494
v -0.227692 0.251913 -0.227692
v -0.297494 0.251913 -0.123226
v -0.322005 0.251913 -0.000000
v -0.297494 0.251913 0.123226
v -0.227692 0.251913 0.227692
v -0.123226 0.251913 0.297494
v 0.000000 0.251913 0.322005
v 0.123226 0.251913 0.297494
v 0.227692 0.251913 0.227692
v 0.297494 0.251913 0.123226
v 0.430197 0.371644 0.000000
v 0.397450 0.371644 -0.164629
v 0.304195 0.371644 -0.304195
v 0.164629 0.371644 -0.397450
v -0.000000 0.371644 -0.430197
v -0.164629 0.371644 -0.397450
v -0.304195 0.371644 -0.304195
v -0.397450 0.371644 -0.164629
v -0.430197 0.371644 -0.000000
v -0.397450 0.371644 0.164629
v -0.304195 0.371644 0.304195
v -0.164629 0.371644 0.397450
v 0.000000 0.371644 0.430197
v 0.164629 0.371644 0.397450
v 0.304195 0.371644 0.304195
v 0.397450 0.371644 0.164629
v 0.493544 0.501756 0.000000
v 0.455975 0.501756 -0.188871
v 0.348988 0.501756 -0.348988
v 0.188871 0.501756 -0.455975
v -0.000000 0.501756 -0.493544
v -0.188871 0.501756 -0.455975
v -0.348988 0.501756 -0.348988
v -0.455975 0.501756 -0.188871
v -0.493544 0.501756 -0.000000
v -0.455975 0.501756 0.188871
v -0.348988 0.501756 0.348988
v -0.188871 0.501756 0.455975
v 0.000000 0.501756 0.493544
v 0.188871 0.501756 0.455975
v 0.348988 0.501756 0.348988
v 0.455975 0.501756 0.188871
v 0.518622 0.644259 0.000000
v 0.366721 0.644259 -0.366721
v 0.198468 0.644259 -0.479145
v 0.000000 0.644259 -0.518622
v -0.198468 0.644259 -0.479145
v -0.366721 0.644259 -0.366721
v -0.518622 0.644259 -0.000000
v -0.479145 0.644259 0.198468
v -0.366721 0.644259 0.366721
v -0.198468 0.644259 0.479145
v -0.000000 0.644259 0.518622
v 0.198468 0.644259 0.479145
v 0.366721 0.644259 0.366721
v 0.479145 0.644259 0.198468
v 0.503528 0.788160 0.000000
v 0.192692 0.788160 -0.465199
v 0.000000 0.788160 -0.503528
v -0.192692 0.788160 -0.465199
v -0.503528 0.788160 -0.000000
v -0.465199 0.788160 0.192692
v -0.356048 0.788160 0.356048
v -0.192692 0.788160 0.465199
v -0.000000 0.788160 0.503528
v 0.192692 0.788160 0.465199
v 0.356048 0.788160 0.356048
v 0.465199 0.788160 0.192692
v 0.449405 0.922365 0.000000
v 0.171980 0.922365 -0.415196
v 0.000000 0.922365 -0.449405
v -0.171980 0.922365 -0.415196
v -0.449405 0.922365 -0.000000
v -0.415196 0.922365 0.171980
v -0.317777 0.922365 0.317777
v -0.171980 0.922365 0.415196
v -0.000000 0.922365 0.449405
v 0.171980 0.922365 0.415196
v 0.317777 0.922365 0.317777
v 0.415196 0.922365 0.171980
v 0.137911 1.036483 -0.332947
v -0.000000 1.036483 -0.360379
v -0.137911 1.036483 -0.332947
v -0.332947 1.036483 0.137911
v -0.254826 1.036483 0.254826
v -0.137911 1.036483 0.332947
v 0.000000 1.036483 0.360379
v 0.137911 1.036483 0.332947
v 0.254826 1.036483 0.254826
v 0.332947 1.036483 0.137911
v 0.226629 1.132920 0.000000
v 0.209378 1.132920 -0.086727
v 0.160251 1.132920 -0.160251
v 0.086727 1.132920 -0.209378
v -0.000000 1.132920 -0.226629
v -0.086727 1.132920 -0.209378
v -0.160251 1.132920 -0.160251
v -0.209378 1.132920 -0.086727
v -0.226629 1.132920 -0.000000
v -0.209378 1.132920 0.086727
v -0.160251 1.132920 0.160251
v -0.086727 1.132920 0.209378
v 0.000000 1.132920 0.226629
v 0.086727 1.132920 0.209378
v 0.160251 1.132920 0.160251
v 0.209378 1.132920 0.086727
v 0.173842 1.268479 0.000000
v 0.160609 1.268479 -0.066527
v 0.122925 1.268479 -0.122925
v 0.066527 1.268479 -0.160609
v -0.000000 1.268479 -0.173842
v -0.066527 1.268479 -0.160609
v -0.122925 1.268479 -0.122925
v -0.160609 1.268479 -0.066527
v -0.173842 1.268479 -0.000000
v -0.160609 1.268479 0.066527
v -0.122925 1.268479 0.122925
v -0.066527 1.268479 0.160609
v 0.000000 1.268479 0.173842
v 0.066527 1.268479 0.160609
v 0.122925 1.268479 0.122925
v 0.160609 1.268479 0.066527
v 0.087475 1.460098 0.000000
v 0.080817 1.460098 -0.033475
v 0.061854 1.460098 -0.061854
v 0.033475 1.460098 -0.080817
v -0.000000 1.460098 -0.087475
v -0.033475 1.460098 -0.080817
v -0.061854 1.460098 -0.061854
v -0.080817 1.460098 -0.033475
v -0.087475 1.460098 -0.000000
v -0.080817 1.460098 0.033475
v -0.061854 1.460098 0.061854
v -0.033475 1.460098 0.080817
v 0.000000 1.460098 0.087475
v 0.033475 1.460098 0.080817
v 0.061854 1.460098 0.061854
v 0.080817 1.460098 0.033475
v 0.078532 1.830165 0.000000
v 0.072554 1.830165 -0.030053
v 0.055531 1.830165 -0.055531
v 0.030053 1.830165 -0.072554
v 0.000000 1.830165 -0.078532
v -0.030053 1.830165 -0.072554
v -0.055531 1.830165 -0.055531
v -0.072554 1.830165 -0.030053
v -0.078532 1.830165 -0.000000
v -0.072554 1.830165 0.030053
v -0.055531 1.830165 0.055531
v -0.030053 1.830165 0.072554
v -0.000000 1.830165 0.078532
v 0.030053 1.830165 0.072554
v 0.055531 1.830165 0.055531
v 0.072554 1.830165 0.030053
v 0.122943 1.844849 0.000000
v 0.113584 1.844849 -0.047048
v 0.086934 1.844849 -0.086934
v 0.047048 1.844849 -0.113584
v 0.000000 1.844849 -0.122943
v -0.047048 1.844849 -0.113584
v -0.086934 1.844849 -0.086934
v -0.113584 1.844849 -0.047048
v -0.122943 1.844849 -0.000000
v -0.113584 1.844849 0.047048
v -0.086934 1.844849 0.086934
v -0.047048 1.844849 0.113584
v -0.000000 1.844849 0.122943
v 0.047048 1.844849 0.113584
v 0.086934 1.844849 0.086934
v 0.113584 1.844849 0.047048
v 0.123529 1.880233 0.000000
v 0.114126 1.880233 -0.047273
v 0.087348 1.880233 -0.087348
v 0.047273 1.880233 -0.114126
v 0.000000 1.880233 -0.123529
v -0.047273 1.880233 -0.114126
v -0.087348 1.880233 -0.087348
v -0.114126 1.880233 -0.047273
v -0.123529 1.880233 -0.000000
v -0.114126 1.880233 0.047273
v -0.087348 1.880233 0.087348
v -0.047273 1.880233 0.114126
v -0.000000 1.880233 0.123529
v 0.047273 1.880233 0.114126
v 0.087348 1.880233 0.087348
v 0.114126 1.880233 0.047273
v 0.107787 1.891716 0.000000
v 0.099582 1.891716 -0.041248
v 0.076217 1.891716 -0.076217
v 0.041248 1.891716 -0.099582
v 0.000000 1.891716 -0.107787
v -0.041248 1.891716 -0.099582
v -0.076217 1.891716 -0.076217
v -0.099582 1.891716 -0.041248
v -0.107787 1.891716 -0.000000
v -0.099582 1.891716 0.041248
v -0.076217 1.891716 0.076217
v -0.041248 1.891716 0.099582
v -0.000000 1.891716 0.107787
v 0.041248 1.891716 0.099582
v 0.076217 1.891716 0.076217
v 0.099582 1.891716 0.041248
v 0.518167 0.590362 -0.214632
v 0.535108 0.642493 -0.175676
v 0.438130 0.585438 -0.332883
v 0.515208 0.585438 -0.217528
v 0.420975 0.642493 -0.376319
v 0.541003 0.723771 -0.103094
v 0.536797 0.800392 -0.083755
v 0.400235 0.680883 -0.400235
v 0.342571 0.800392 -0.423948
v 0.363774 0.723771 -0.419280
v 0.489244 0.947600 -0.023812
v 0.260160 0.947600 -0.408857
v 0.403951 1.062833 0.000000
v 0.189757 1.072711 -0.340597
v 0.395722 1.072711 0.002571
v 0.265602 1.151721 -0.110016
v 0.329120 1.121472 0.000000
v 0.208654 1.146203 -0.208654
v 0.150156 1.107871 -0.309974
v 0.343573 1.107353 0.025034
v 0.489271 0.644259 -0.147561
v 0.469581 0.585438 -0.194507
v 0.470174 0.585438 -0.191527
v 0.376401 0.644259 -0.352235
v 0.394105 0.585438 -0.307465
v 0.495052 0.723771 -0.076564
v 0.491529 0.788160 -0.060320
v 0.365180 0.665036 -0.365180
v 0.297453 0.788160 -0.395200
v 0.315259 0.723771 -0.391269
v 0.448266 0.922365 -0.005723
v 0.222416 0.922365 -0.381495
v 0.441988 0.931872 0.000000
v 0.149382 1.036483 -0.325282
v 0.199300 0.947600 -0.373719
v 0.353419 1.036483 0.034990
v 0.427346 0.947600 0.011925
v 0.329120 1.059021 0.000000
v 0.265602 1.089041 -0.110016
v 0.208654 1.083564 -0.208654
v 0.143803 1.041392 -0.320978
v 0.350139 1.038644 0.036407
v -0.518167 0.590362 -0.214632
v -0.515208 0.585438 -0.217528
v -0.438130 0.585438 -0.332883
v -0.420975 0.642493 -0.376319
v -0.535108 0.642493 -0.175676
v -0.363774 0.723771 -0.419280
v -0.400235 0.680883 -0.400235
v -0.342571 0.800392 -0.423948
v -0.541003 0.723771 -0.103094
v -0.536797 0.800392 -0.083755
v -0.260160 0.947600 -0.408857
v -0.489244 0.947600 -0.023812
v -0.189757 1.072711 -0.340597
v -0.403952 1.062832 -0.000000
v -0.395722 1.072711 0.002571
v -0.208654 1.146203 -0.208654
v -0.150156 1.107871 -0.309974
v -0.265602 1.151721 -0.110016
v -0.329120 1.121472 -0.000000
v -0.343573 1.107353 0.025034
v -0.394105 0.585438 -0.307465
v -0.376401 0.644259 -0.352235
v -0.469581 0.585438 -0.194507
v -0.489271 0.644259 -0.147561
v -0.470174 0.585438 -0.191527
v -0.297453 0.788160 -0.395199
v -0.315259 0.723771 -0.391269
v -0.365180 0.665036 -0.365180
v -0.491529 0.788160 -0.060320
v -0.495052 0.723771 -0.076564
v -0.222416 0.922365 -0.381495
v -0.448266 0.922365 -0.005723
v -0.149382 1.036483 -0.325282
v -0.199300 0.947600 -0.373719
v -0.441988 0.931872 -0.000000
v -0.353419 1.036483 0.034990
v -0.427346 0.947600 0.011925
v -0.143803 1.041392 -0.320978
v -0.208654 1.083564 -0.208654
v -0.265602 1.089041 -0.110016
v -0.329120 1.059021 -0.000000
v -0.350139 1.038644 0.036407
vn -0.0665 -0.9977 0.0132
vn -0.0564 -0.9977 0.0377
vn -0.0377 -0.9977 0.0564
vn -0.0132 -0.9977 0.0665
vn 0.0132 -0.9977 0.0665
vn 0.0377 -0.9977 0.0564
vn 0.0564 -0.9977 0.0377
vn 0.0665 -0.9977 0.0132
vn 0.0665 -0.9977 -0.0132
vn 0.0564 -0.9977 -0.0377
vn 0.0377 -0.9977 -0.0564
vn 0.0132 -0.9977 -0.0665
vn -0.0132 -0.9977 -0.0665
vn -0.0377 -0.9977 -0.0564
vn -0.0564 -0.9977 -0.0377
vn -0.0665 -0.9977 -0.0132
vn 0.9322 -0.3107 -0.1854
vn 0.7903 -0.3107 -0.5281
vn 0.5281 -0.3107 -0.7903
vn 0.1854 -0.3107 -0.9322
vn -0.1854 -0.3107 -0.9322
vn -0.5281 -0.3107 -0.7903
vn -0.7903 -0.3107 -0.5281
vn -0.9322 -0.3107 -0.1854
vn -0.9322 -0.3107 0.1854
vn -0.7903 -0.3107 0.5281
vn -0.5281 -0.3107 0.7903
vn -0.1854 -0.3107 0.9322
vn 0.1854 -0.3107 0.9322
vn 0.5281 -0.3107 0.7903
vn 0.7903 -0.3107 0.5281
vn 0.9322 -0.3107 0.1854
vn 0.9356 -0.3001 -0.1861
vn 0.7932 -0.3001 -0.5300
vn 0.5300 -0.3001 -0.7932
vn 0.1861 -0.3000 -0.9356
vn -0.1861 -0.3001 -0.9356
vn -0.5300 -0.3000 -0.7932
vn -0.7932 -0.3001 -0.5300
vn -0.9356 -0.3001 -0.1861
vn -0.9356 -0.3001 0.1861
vn -0.7932 -0.3001 0.5300
vn -0.5300 -0.3001 0.7932
vn -0.1861 -0.3000 0.9356
vn 0.1861 -0.3001 0.9356
vn 0.5300 -0.3000 0.7932
vn 0.7932 -0.3001 0.5300
vn 0.9356 -0.3001 0.1861
vn 0.7352 -0.6619 -0.1462
vn 0.6232 -0.6619 -0.4164
vn 0.4164 -0.6619 -0.6232
vn 0.1462 -0.6619 -0.7352
vn -0.1462 -0.6619 -0.7352
vn -0.4164 -0.6619 -0.6232
vn -0.6232 -0.6619 -0.4164
vn -0.7352 -0.6619 -0.1462
vn -0.7352 -0.6619 0.1462
vn -0.6232 -0.6619 0.4164
vn -0.4164 -0.6619 0.6232
vn -0.1462 -0.6619 0.7352
vn 0.1462 -0.6619 0.7352
vn 0.4164 -0.6619 0.6232
vn 0.6232 -0.6619 0.4164
vn 0.7352 -0.6619 0.1462
vn 0.8848 -0.4315 -0.1760
vn 0.7501 -0.4315 -0.5012
vn 0.5012 -0.4315 -0.7501
vn 0.1760 -0.4315 -0.8848
vn -0.1760 -0.4315 -0.8848
vn -0.5012 -0.4315 -0.7501
vn -0.7501 -0.4315 -0.5012
vn -0.8848 -0.4315 -0.1760
vn -0.8848 -0.4315 0.1760
vn -0.7501 -0.4315 0.5012
vn -0.5012 -0.4315 0.7501
vn -0.1760 -0.4315 0.8848
vn 0.1760 -0.4315 0.8848
vn 0.5012 -0.4315 0.7501
vn 0.7501 -0.4315 0.5012
vn 0.8848 -0.4315 0.1760
vn 0.9664 -0.1704 -0.1922
vn 0.8193 -0.1704 -0.5474
vn 0.5474 -0.1704 -0.8193
vn 0.1922 -0.1704 -0.9664
vn -0.1922 -0.1704 -0.9664
vn -0.5474 -0.1704 -0.8193
vn -0.8193 -0.1704 -0.5474
vn -0.9664 -0.1704 -0.1922
vn -0.9664 -0.1704 0.1922
vn -0.8193 -0.1704 0.5474
vn -0.5474 -0.1704 0.8193
vn -0.1922 -0.1704 0.9664
vn 0.1922 -0.1704 0.9664
vn 0.5474 -0.1704 0.8193
vn 0.8193 -0.1704 0.5474
vn 0.9664 -0.1704 0.1922
vn 0.9756 0.1025 -0.1941
vn 0.8271 0.1025 -0.5526
vn 0.5526 0.1025 -0.8271
vn 0.1941 0.1025 -0.9756
vn -0.1941 0.1025 -0.9756
vn -0.5526 0.1025 -0.8271
vn -0.8271 0.1025 -0.5526
vn -0.9756 0.1025 -0.1941
vn -0.9756 0.1025 0.1941
vn -0.8271 0.1025 0.5526
vn -0.5526 0.1025 0.8271
vn -0.1941 0.1025 0.9756
vn 0.1941 0.1025 0.9756
vn 0.5526 0.1025 0.8271
vn 0.8271 0.1025 0.5526
vn 0.9756 0.1025 0.1941
vn 0.9118 0.3684 -0.1814
vn 0.5165 0.3684 -0.7730
vn 0.1814 0.3684 -0.9118
vn -0.1814 0.3684 -0.9118
vn -0.5165 0.3684 -0.7730
vn -0.9118 0.3684 -0.1814
vn -0.9118 0.3684 0.1814
vn -0.7730 0.3684 0.5165
vn -0.5165 0.3684 0.7730
vn -0.1814 0.3684 0.9118
vn 0.1814 0.3684 0.9118
vn 0.5165 0.3684 0.7730
vn 0.7730 0.3684 0.5165
vn 0.9118 0.3684 0.1814
vn 0.7785 0.6082 -0.1549
vn 0.4410 0.6082 -0.6600
vn 0.1549 0.6082 -0.7785
vn -0.1549 0.6082 -0.7785
vn -0.4410 0.6082 -0.6600
vn -0.7785 0.6082 -0.1549
vn -0.7785 0.6082 0.1549
vn -0.6600 0.6082 0.4410
vn -0.4410 0.6082 0.6600
vn -0.1549 0.6082 0.7785
vn 0.1549 0.6082 0.7785
vn 0.4410 0.6082 0.6600
vn 0.6600 0.6082 0.4410
vn 0.7785 0.6082 0.1549
vn 0.5838 0.8035 -0.1161
vn 0.4949 0.8035 -0.3307
vn 0.3307 0.8035 -0.4949
vn 0.1161 0.8035 -0.5838
vn -0.1161 0.8035 -0.5838
vn -0.3307 0.8035 -0.4949
vn -0.4949 0.8035 -0.3307
vn -0.5838 0.8035 -0.1161
vn -0.5838 0.8035 0.1161
vn -0.4949 0.8035 0.3307
vn -0.3307 0.8035 0.4949
vn -0.1161 0.8035 0.5838
vn 0.1161 0.8035 0.5838
vn 0.3307 0.8035 0.4949
vn 0.4949 0.8035 0.3307
vn 0.5838 0.8035 0.1161
vn 0.9175 0.3535 -0.1825
vn 0.7778 0.3535 -0.5197
vn 0.5197 0.3535 -0.7778
vn 0.1825 0.3535 -0.9175
vn -0.1825 0.3535 -0.9175
vn -0.5197 0.3535 -0.7778
vn -0.7778 0.3535 -0.5197
vn -0.9175 0.3535 -0.1825
vn -0.9175 0.3535 0.1825
vn -0.7778 0.3535 0.5197
vn -0.5197 0.3535 0.7778
vn -0.1825 0.3535 0.9175
vn 0.1825 0.3535 0.9175
vn 0.5197 0.3535 0.7778
vn 0.7778 0.3535 0.5197
vn 0.9175 0.3535 0.1825
vn 0.8973 0.4038 -0.1785
vn 0.7607 0.4038 -0.5083
vn 0.5083 0.4038 -0.7607
vn 0.1785 0.4038 -0.8973
vn -0.1785 0.4038 -0.8973
vn -0.5083 0.4038 -0.7607
vn -0.7607 0.4038 -0.5083
vn -0.8973 0.4038 -0.1785
vn -0.8973 0.4038 0.1785
vn -0.7607 0.4038 0.5083
vn -0.5083 0.4038 0.7607
vn -0.1785 0.4038 0.8973
vn 0.1785 0.4038 0.8973
vn 0.5083 0.4038 0.7607
vn 0.7607 0.4038 0.5083
vn 0.8973 0.4038 0.1785
vn 0.9804 0.0280 -0.1950
vn 0.8311 0.0280 -0.5554
vn 0.5554 0.0280 -0.8311
vn 0.1950 0.0280 -0.9804
vn -0.1950 0.0280 -0.9804
vn -0.5554 0.0280 -0.8311
vn -0.8311 0.0280 -0.5554
vn -0.9804 0.0280 -0.1950
vn -0.9804 0.0280 0.1950
vn -0.8311 0.0280 0.5554
vn -0.5554 0.0280 0.8311
vn -0.1950 0.0280 0.9804
vn 0.1950 0.0280 0.9804
vn 0.5554 0.0280 0.8311
vn 0.8311 0.0280 0.5554
vn 0.9804 0.0280 0.1950
vn 0.3704 -0.9260 -0.0737
vn 0.3140 -0.9260 -0.2098
vn 0.2098 -0.9260 -0.3140
vn 0.0737 -0.9260 -0.3704
vn -0.0737 -0.9260 -0.3704
vn -0.2098 -0.9260 -0.3140
vn -0.3140 -0.9260 -0.2098
vn -0.3704 -0.9260 -0.0737
vn -0.3704 -0.9260 0.0737
vn -0.3140 -0.9260 0.2098
vn -0.2098 -0.9260 0.3140
vn -0.0737 -0.9260 0.3704
vn 0.0737 -0.9260 0.3704
vn 0.2098 -0.9260 0.3140
vn 0.3140 -0.9260 0.2098
vn 0.3704 -0.9260 0.0737
vn 0.9808 -0.0000 -0.1951
vn 0.8315 -0.0000 -0.5556
vn 0.5556 -0.0000 -0.8315
vn 0.1951 -0.0000 -0.9808
vn -0.1951 -0.0000 -0.9808
vn -0.5556 -0.0000 -0.8315
vn -0.8315 -0.0000 -0.5556
vn -0.9808 -0.0000 -0.1951
vn -0.9808 -0.0000 0.1951
vn -0.8315 -0.0000 0.5556
vn -0.5556 -0.0000 0.8315
vn -0.1951 -0.0000 0.9808
vn 0.1951 -0.0000 0.9808
vn 0.5556 -0.0000 0.8315
vn 0.8315 -0.0000 0.5556
vn 0.9808 -0.0000 0.1951
vn 0.5958 0.7944 -0.1185
vn 0.5051 0.7944 -0.3375
vn 0.3375 0.7944 -0.5051
vn 0.1185 0.7944 -0.5958
vn -0.1185 0.7944 -0.5958
vn -0.3375 0.7944 -0.5051
vn -0.5051 0.7944 -0.3375
vn -0.5958 0.7944 -0.1185
vn -0.5958 0.7944 0.1185
vn -0.5051 0.7944 0.3375
vn -0.3375 0.7944 0.5051
vn -0.1185 0.7944 0.5958
vn 0.1185 0.7944 0.5958
vn 0.3375 0.7944 0.5051
vn 0.5051 0.7944 0.3375
vn 0.5958 0.7944 0.1185
vn 0.0728 0.9972 -0.0145
vn 0.0617 0.9972 -0.0412
vn 0.0412 0.9972 -0.0617
vn 0.0145 0.9972 -0.0728
vn -0.0145 0.9972 -0.0728
vn -0.0412 0.9972 -0.0617
vn -0.0617 0.9972 -0.0412
vn -0.0728 0.9972 -0.0145
vn -0.0728 0.9972 0.0145
vn -0.0617 0.9972 0.0412
vn -0.0412 0.9972 0.0617
vn -0.0145 0.9972 0.0728
vn 0.0145 0.9972 0.0728
vn 0.0412 0.9972 0.0617
vn 0.0617 0.9972 0.0412
vn 0.0728 0.9972 0.0145
vn -0.9057 0.3837 0.1802
vn -0.7678 0.3837 0.5130
vn -0.5130 0.3837 0.7678
vn -0.1802 0.3837 0.9057
vn 0.1802 0.3837 0.9057
vn 0.5130 0.3837 0.7678
vn 0.7678 0.3837 0.5130
vn 0.9057 0.3837 0.1802
vn 0.9057 0.3837 -0.1802
vn 0.7678 0.3837 -0.5130
vn 0.5130 0.3837 -0.7678
vn 0.1802 0.3837 -0.9057
vn -0.1802 0.3837 -0.9057
vn -0.5130 0.3837 -0.7678
vn -0.7678 0.3837 -0.5130
vn -0.9057 0.3837 -0.1802
vn -0.9351 0.3017 0.1860
vn -0.7927 0.3017 0.5297
vn -0.5297 0.3017 0.7927
vn -0.1860 0.3017 0.9351
vn 0.1860 0.3017 0.9351
vn 0.5297 0.3017 0.7927
vn 0.7927 0.3017 0.5297
vn 0.9351 0.3017 0.1860
vn 0.9351 0.3017 -0.1860
vn 0.7927 0.3017 -0.5297
vn 0.5297 0.3017 -0.7927
vn 0.1860 0.3017 -0.9351
vn -0.1860 0.3017 -0.9351
vn -0.5297 0.3017 -0.7927
vn -0.7927 0.3017 -0.5297
vn -0.9351 0.3017 -0.1860
vn -0.7340 0.6633 0.1460
vn -0.6223 0.6633 0.4158
vn -0.4158 0.6633 0.6223
vn -0.1460 0.6633 0.7340
vn 0.1460 0.6633 0.7340
vn 0.4158 0.6633 0.6223
vn 0.6223 0.6633 0.4158
vn 0.7340 0.6633 0.1460
vn 0.7340 0.6633 -0.1460
vn 0.6223 0.6633 -0.4158
vn 0.4158 0.6633 -0.6223
vn 0.1460 0.6633 -0.7340
vn -0.1460 0.6633 -0.7340
vn -0.4158 0.6633 -0.6223
vn -0.6223 0.6633 -0.4158
vn -0.7340 0.6633 -0.1460
vn -0.8851 0.4309 0.1760
vn -0.7503 0.4309 0.5013
vn -0.5013 0.4309 0.7503
vn -0.1760 0.4309 0.8851
vn 0.1760 0.4309 0.8851
vn 0.5013 0.4309 0.7503
vn 0.7503 0.4309 0.5013
vn 0.8851 0.4309 0.1760
vn 0.8851 0.4309 -0.1760
vn 0.7503 0.4309 -0.5013
vn 0.5013 0.4309 -0.7503
vn 0.1760 0.4309 -0.8851
vn -0.1760 0.4309 -0.8851
vn -0.5013 0.4309 -0.7503
vn -0.7503 0.4309 -0.5013
vn -0.8851 0.4309 -0.1760
vn -0.9665 0.1701 0.1922
vn -0.8194 0.1701 0.5475
vn -0.5475 0.1701 0.8194
vn -0.1922 0.1701 0.9665
vn 0.1922 0.1701 0.9665
vn 0.5475 0.1701 0.8194
vn 0.8194 0.1701 0.5475
vn 0.9665 0.1701 0.1922
vn 0.9665 0.1701 -0.1922
vn 0.8194 0.1701 -0.5475
vn 0.5475 0.1701 -0.8194
vn 0.1922 0.1701 -0.9665
vn -0.1922 0.1701 -0.9665
vn -0.5475 0.1701 -0.8194
vn -0.8194 0.1701 -0.5475
vn -0.9665 0.1701 -0.1922
vn -0.9756 -0.1023 0.1941
vn -0.8271 -0.1023 0.5527
vn -0.5527 -0.1023 0.8271
vn -0.1941 -0.1023 0.9756
vn 0.1941 -0.1023 0.9756
vn 0.5527 -0.1023 0.8271
vn 0.8271 -0.1023 0.5527
vn 0.9756 -0.1023 0.1941
vn 0.9756 -0.1023 -0.1941
vn 0.8271 -0.1023 -0.5527
vn 0.5527 -0.1023 -0.8271
vn 0.1941 -0.1023 -0.9756
vn -0.1941 -0.1023 -0.9756
vn -0.5527 -0.1023 -0.8271
vn -0.8271 -0.1023 -0.5527
vn -0.9756 -0.1023 -0.1941
vn -0.9120 -0.3678 0.1814
vn -0.5166 -0.3678 0.7732
vn -0.1814 -0.3678 0.9120
vn 0.1814 -0.3678 0.9120
vn 0.5166 -0.3678 0.7732
vn 0.9120 -0.3678 0.1814
vn 0.9120 -0.3678 -0.1814
vn 0.7732 -0.3678 -0.5166
vn 0.5166 -0.3678 -0.7732
vn 0.1814 -0.3678 -0.9120
vn -0.1814 -0.3678 -0.9120
vn -0.5166 -0.3678 -0.7732
vn -0.7732 -0.3678 -0.5166
vn -0.9120 -0.3678 -0.1814
vn -0.7789 -0.6077 0.1549
vn -0.4412 -0.6077 0.6603
vn -0.1549 -0.6077 0.7789
vn 0.1549 -0.6077 0.7789
vn 0.4412 -0.6077 0.6603
vn 0.7789 -0.6077 0.1550
vn 0.7789 -0.6077 -0.1549
vn 0.6603 -0.6077 -0.4412
vn 0.4412 -0.6077 -0.6603
vn 0.1549 -0.6077 -0.7789
vn -0.1549 -0.6077 -0.7789
vn -0.4412 -0.6077 -0.6603
vn -0.6603 -0.6077 -0.4412
vn -0.7789 -0.6077 -0.1549
vn -0.5809 -0.8057 0.1156
vn -0.4925 -0.8057 0.3291
vn -0.3291 -0.8057 0.4925
vn -0.1156 -0.8057 0.5809
vn 0.1156 -0.8057 0.5809
vn 0.3291 -0.8057 0.4925
vn 0.4925 -0.8057 0.3291
vn 0.5809 -0.8057 0.1156
vn 0.5809 -0.8057 -0.1156
vn 0.4925 -0.8057 -0.3291
vn 0.3291 -0.8057 -0.4925
vn 0.1156 -0.8057 -0.5809
vn -0.1156 -0.8057 -0.5809
vn -0.3291 -0.8057 -0.4925
vn -0.4925 -0.8057 -0.3291
vn -0.5809 -0.8057 -0.1156
vn -0.9162 -0.3568 0.1823
vn -0.7767 -0.3568 0.5190
vn -0.5190 -0.3568 0.7767
vn -0.1823 -0.3568 0.9162
vn 0.1823 -0.3568 0.9162
vn 0.5190 -0.3568 0.7767
vn 0.7767 -0.3568 0.5190
vn 0.9162 -0.3568 0.1823
vn 0.9162 -0.3568 -0.1823
vn 0.7767 -0.3568 -0.5190
vn 0.5190 -0.3568 -0.7767
vn 0.1823 -0.3568 -0.9162
vn -0.1823 -0.3568 -0.9162
vn -0.5190 -0.3568 -0.7767
vn -0.7767 -0.3568 -0.5190
vn -0.9162 -0.3568 -0.1823
vn -0.8970 -0.4043 0.1784
vn -0.7605 -0.4043 0.5081
vn -0.5081 -0.4043 0.7605
vn -0.1784 -0.4043 0.8970
vn 0.1784 -0.4043 0.8970
vn 0.5081 -0.4043 0.7605
vn 0.7605 -0.4043 0.5081
vn 0.8970 -0.4043 0.1784
vn 0.8970 -0.4043 -0.1784
vn 0.7605 -0.4043 -0.5081
vn 0.5081 -0.4043 -0.7605
vn 0.1784 -0.4043 -0.8970
vn -0.1784 -0.4043 -0.8970
vn -0.5081 -0.4043 -0.7605
vn -0.7605 -0.4043 -0.5081
vn -0.8970 -0.4043 -0.1784
vn -0.9805 -0.0237 0.1950
vn -0.8312 -0.0237 0.5554
vn -0.5554 -0.0237 0.8312
vn -0.1950 -0.0237 0.9805
vn 0.1950 -0.0237 0.9805
vn 0.5554 -0.0237 0.8312
vn 0.8312 -0.0237 0.5554
vn 0.9805 -0.0237 0.1950
vn 0.9805 -0.0237 -0.1950
vn 0.8312 -0.0237 -0.5554
vn 0.5554 -0.0237 -0.8312
vn 0.1950 -0.0237 -0.9805
vn -0.1950 -0.0237 -0.9805
vn -0.5554 -0.0237 -0.8312
vn -0.8312 -0.0237 -0.5554
vn -0.9805 -0.0237 -0.1950
vn -0.3133 0.9476 0.0623
vn -0.2656 0.9476 0.1775
vn -0.1775 0.9476 0.2656
vn -0.0623 0.9476 0.3133
vn 0.0623 0.9476 0.3133
vn 0.1775 0.9476 0.2656
vn 0.2656 0.9476 0.1775
vn 0.3133 0.9476 0.0623
vn 0.3133 0.9476 -0.0623
vn 0.2656 0.9476 -0.1775
vn 0.1775 0.9476 -0.2656
vn 0.0623 0.9476 -0.3133
vn -0.0623 0.9476 -0.3133
vn -0.1775 0.9476 -0.2656
vn -0.2656 0.9476 -0.1775
vn -0.3133 0.9476 -0.0623
vn -0.9807 0.0163 0.1951
vn -0.8314 0.0163 0.5555
vn -0.5555 0.0163 0.8314
vn -0.1951 0.0163 0.9807
vn 0.1951 0.0163 0.9807
vn 0.5555 0.0163 0.8314
vn 0.8314 0.0163 0.5555
vn 0.9807 0.0163 0.1951
vn 0.9807 0.0163 -0.1951
vn 0.8314 0.0163 -0.5555
vn 0.5555 0.0163 -0.8314
vn 0.1951 0.0163 -0.9807
vn -0.1951 0.0163 -0.9807
vn -0.5555 0.0163 -0.8314
vn -0.8314 0.0163 -0.5555
vn -0.9807 0.0163 -0.1951
vn -0.5853 -0.8024 0.1164
vn -0.4962 -0.8024 0.3316
vn -0.3315 -0.8024 0.4962
vn -0.1164 -0.8024 0.5853
vn 0.1164 -0.8024 0.5853
vn 0.3316 -0.8024 0.4962
vn 0.4962 -0.8024 0.3316
vn 0.5853 -0.8024 0.1164
vn 0.5853 -0.8024 -0.1164
vn 0.4962 -0.8024 -0.3316
vn 0.3315 -0.8024 -0.4962
vn 0.1164 -0.8024 -0.5853
vn -0.1164 -0.8024 -0.5853
vn -0.3316 -0.8024 -0.4962
vn -0.4962 -0.8024 -0.3316
vn -0.5853 -0.8024 -0.1164
vn -0.7901 0.5925 0.1572
vn -0.6698 0.5925 0.4475
vn -0.4475 0.5925 0.6698
vn -0.1572 0.5925 0.7901
vn 0.1571 0.5925 0.7901
vn 0.4475 0.5925 0.6698
vn 0.6698 0.5925 0.4475
vn 0.7901 0.5925 0.1572
vn 0.7901 0.5925 -0.1572
vn 0.6698 0.5925 -0.4475
vn 0.4475 0.5925 -0.6698
vn 0.1572 0.5925 -0.7901
vn -0.1571 0.5925 -0.7901
vn -0.4475 0.5925 -0.6698
vn -0.6698 0.5925 -0.4475
vn -0.7901 0.5925 -0.1572
vn 0.4911 -0.1877 0.8506
vn -0.4911 -0.1877 -0.8506
vn -0.4911 0.1877 -0.8506
vn -0.3886 0.6293 -0.6731
vn -0.0000 1.0000 -0.0000
vn 0.3886 0.6293 0.6731
vn 0.4911 0.1877 0.8506
vn 0.8660 -0.0000 -0.5000
vn 0.4911 -0.1877 -0.8506
vn -0.4911 -0.1877 0.8506
vn -0.4911 0.1877 0.8506
vn -0.3886 0.6293 0.6731
vn 0.3886 0.6292 -0.6731
vn 0.4911 0.1877 -0.8506
vn -0.8660 -0.0000 -0.5000
vn 0.5300 -0.3000 -0.7932
vn 0.1861 -0.3001 -0.9356
vn -0.1861 -0.3000 -0.9356
vn -0.5300 -0.3001 -0.7932
vn -0.5300 -0.3000 0.7932
vn -0.1861 -0.3001 0.9356
vn 0.1861 -0.3000 0.9356
vn 0.5300 -0.3001 0.7932
vn 0.9665 0.1701 0.1923
vn 0.4412 -0.6077 0.6604
vn 0.6604 -0.6077 -0.4412
vn -0.3316 -0.8024 0.4962
vn 0.3316 -0.8024 -0.4962
vn 0.1572 0.5925 0.7901
vn -0.1572 0.5925 -0.7901
vn 0.4894 -0.1869 -0.8518
vn -0.3886 0.6292 0.6731
vn 0.3886 0.6293 -0.6731
s 0
g A_Flask.001_potion_glass
usemtl potion_glass
f 1//1 3//1 2//1
f 1//2 4//2 3//2
f 1//3 5//3 4//3
f 1//4 6//4 5//4
f 1//5 7//5 6//5
f 1//6 8//6 7//6
f 1//7 9//7 8//7
f 1//8 10//8 9//8
f 1//9 11//9 10//9
f 1//10 12//10 11//10
f 1//11 13//11 12//11
f 1//12 14//12 13//12
f 1//13 15//13 14//13
f 1//14 16//14 15//14
f 1//15 17//15 16//15
f 1//16 2//16 17//16
f 3//17 18//17 2//17
f 4//18 19//18 3//18
f 5//19 20//19 4//19
f 5//20 22//20 21//20
f 7//21 22//21 6//21
f 8//22 23//22 7//22
f 9//23 24//23 8//23
f 9//24 26//24 25//24
f 11//25 26//25 10//25
f 12//26 27//26 11//26
f 13//27 28//27 12//27
f 13//28 30//28 29//28
f 15//29 30//29 14//29
f 16//30 31//30 15//30
f 17//31 32//31 16//31
f 17//32 18//32 33//32
f 19//33 34//33 18//33
f 20//34 35//34 19//34
f 20//35 37//35 36//35
f 22//36 37//36 21//36
f 23//37 38//37 22//37
f 24//38 39//38 23//38
f 24//39 41//39 40//39
f 26//40 41//40 25//40
f 27//41 42//41 26//41
f 28//42 43//42 27//42
f 28//43 45//43 44//43
f 30//44 45//44 29//44
f 31//45 46//45 30//45
f 32//46 47//46 31//46
f 32//47 49//47 48//47
f 18//48 49//48 33//48
f 35//49 50//49 34//49
f 36//50 51//50 35//50
f 37//51 52//51 36//51
f 38//52 53//52 37//52
f 39//53 54//53 38//53
f 40//54 55//54 39//54
f 41//55 56//55 40//55
f 42//56 57//56 41//56
f 43//57 58//57 42//57
f 44//58 59//58 43//58
f 45//59 60//59 44//59
f 46//60 61//60 45//60
f 47//61 62//61 46//61
f 48//62 63//62 47//62
f 49//63 64//63 48//63
f 34//64 65//64 49//64
f 51//65 66//65 50//65
f 51//66 68//66 67//66
f 53//67 68//67 52//67
f 54//68 69//68 53//68
f 55//69 70//69 54//69
f 55//70 72//70 71//70
f 57//71 72//71 56//71
f 58//72 73//72 57//72
f 59//73 74//73 58//73
f 59//74 76//74 75//74
f 61//75 76//75 60//75
f 62//76 77//76 61//76
f 63//77 78//77 62//77
f 63//78 80//78 79//78
f 65//79 80//79 64//79
f 50//80 81//80 65//80
f 82//81 67//81 483//81
f 67//82 68//82 485//82
f 69//83 83//83 68//83
f 70//84 84//84 69//84
f 71//85 85//85 70//85
f 72//86 86//86 71//86
f 72//87 73//87 527//87
f 74//88 529//88 525//88
f 75//89 88//89 74//89
f 76//90 89//90 75//90
f 77//91 90//91 76//91
f 78//92 91//92 77//92
f 79//93 92//93 78//93
f 80//94 93//94 79//94
f 81//95 94//95 80//95
f 66//96 95//96 81//96
f 488//97 96//97 484//97
f 83//98 490//98 487//98
f 83//99 97//99 492//99
f 85//100 97//100 84//100
f 86//101 98//101 85//101
f 86//102 531//102 530//102
f 531//103 87//103 528//103
f 88//104 534//104 533//104
f 89//105 100//105 88//105
f 90//106 101//106 89//106
f 91//107 102//107 90//107
f 92//108 103//108 91//108
f 93//109 104//109 92//109
f 94//110 105//110 93//110
f 95//111 106//111 94//111
f 82//112 107//112 95//112
f 493//113 96//113 489//113
f 97//114 494//114 491//114
f 98//115 109//115 97//115
f 99//116 110//116 98//116
f 99//117 535//117 111//117
f 100//118 536//118 534//118
f 101//119 112//119 100//119
f 102//120 113//120 101//120
f 103//121 114//121 102//121
f 104//122 115//122 103//122
f 105//123 116//123 104//123
f 106//124 117//124 105//124
f 107//125 118//125 106//125
f 96//126 119//126 107//126
f 495//127 108//127 493//127
f 109//128 496//128 494//128
f 109//129 121//129 120//129
f 111//130 121//130 110//130
f 111//131 537//131 122//131
f 536//132 112//132 538//132
f 113//133 539//133 538//133
f 114//134 123//134 113//134
f 114//135 125//135 124//135
f 115//136 126//136 125//136
f 117//137 126//137 116//137
f 118//138 127//138 117//138
f 118//139 129//139 128//139
f 497//140 119//140 108//140
f 498//141 130//141 499//141
f 132//142 498//142 500//142
f 501//143 133//143 500//143
f 120//144 134//144 133//144
f 122//145 134//145 121//145
f 135//146 122//146 541//146
f 542//147 136//147 540//147
f 138//148 542//148 543//148
f 139//149 543//149 544//149
f 124//150 139//150 123//150
f 125//151 140//151 124//151
f 125//152 142//152 141//152
f 127//153 142//153 126//153
f 128//154 143//154 127//154
f 129//155 144//155 128//155
f 502//156 130//156 129//156
f 131//157 146//157 130//157
f 131//158 148//158 147//158
f 133//159 148//159 132//159
f 133//160 150//160 149//160
f 135//161 150//161 134//161
f 135//162 152//162 151//162
f 137//163 152//163 136//163
f 137//164 154//164 153//164
f 139//165 154//165 138//165
f 139//166 156//166 155//166
f 141//167 156//167 140//167
f 141//168 158//168 157//168
f 143//169 158//169 142//169
f 143//170 160//170 159//170
f 145//171 160//171 144//171
f 145//172 146//172 161//172
f 147//173 162//173 146//173
f 148//174 163//174 147//174
f 149//175 164//175 148//175
f 150//176 165//176 149//176
f 151//177 166//177 150//177
f 152//178 167//178 151//178
f 153//179 168//179 152//179
f 154//180 169//180 153//180
f 155//181 170//181 154//181
f 156//182 171//182 155//182
f 157//183 172//183 156//183
f 158//184 173//184 157//184
f 159//185 174//185 158//185
f 160//186 175//186 159//186
f 161//187 176//187 160//187
f 146//188 177//188 161//188
f 163//189 178//189 162//189
f 164//190 179//190 163//190
f 165//191 180//191 164//191
f 166//192 181//192 165//192
f 167//193 182//193 166//193
f 168//194 183//194 167//194
f 169//195 184//195 168//195
f 170//196 185//196 169//196
f 171//197 186//197 170//197
f 172//198 187//198 171//198
f 173//199 188//199 172//199
f 174//200 189//200 173//200
f 175//201 190//201 174//201
f 176//202 191//202 175//202
f 177//203 192//203 176//203
f 162//204 193//204 177//204
f 179//205 194//205 178//205
f 180//206 195//206 179//206
f 181//207 196//207 180//207
f 182//208 197//208 181//208
f 183//209 198//209 182//209
f 184//210 199//210 183//210
f 185//211 200//211 184//211
f 186//212 201//212 185//212
f 187//213 202//213 186//213
f 188//214 203//214 187//214
f 189//215 204//215 188//215
f 190//216 205//216 189//216
f 191//217 206//217 190//217
f 192//218 207//218 191//218
f 193//219 208//219 192//219
f 178//220 209//220 193//220
f 195//221 210//221 194//221
f 196//222 211//222 195//222
f 197//223 212//223 196//223
f 198//224 213//224 197//224
f 199//225 214//225 198//225
f 200//226 215//226 199//226
f 201//227 216//227 200//227
f 202//228 217//228 201//228
f 203//229 218//229 202//229
f 204//230 219//230 203//230
f 205//231 220//231 204//231
f 206//232 221//232 205//232
f 207//233 222//233 206//233
f 208//234 223//234 207//234
f 209//235 224//235 208//235
f 194//236 225//236 209//236
f 211//237 226//237 210//237
f 211//238 228//238 227//238
f 213//239 228//239 212//239
f 214//240 229//240 213//240
f 215//241 230//241 214//241
f 215//242 232//242 231//242
f 217//243 232//243 216//243
f 218//244 233//244 217//244
f 219//245 234//245 218//245
f 219//246 236//246 235//246
f 221//247 236//247 220//247
f 222//248 237//248 221//248
f 223//249 238//249 222//249
f 223//250 240//250 239//250
f 225//251 240//251 224//251
f 210//252 241//252 225//252
f 242//253 243//253 244//253
f 242//254 244//254 245//254
f 242//255 245//255 246//255
f 242//256 246//256 247//256
f 242//257 247//257 248//257
f 242//258 248//258 249//258
f 242//259 249//259 250//259
f 242//260 250//260 251//260
f 242//261 251//261 252//261
f 242//262 252//262 253//262
f 242//263 253//263 254//263
f 242//264 254//264 255//264
f 242//265 255//265 256//265
f 242//266 256//266 257//266
f 242//267 257//267 258//267
f 242//268 258//268 243//268
f 259//269 244//269 243//269
f 260//270 245//270 244//270
f 261//271 246//271 245//271
f 262//272 247//272 246//272
f 263//273 248//273 247//273
f 248//274 265//274 249//274
f 265//275 250//275 249//275
f 266//276 251//276 250//276
f 267//277 252//277 251//277
f 268//278 253//278 252//278
f 269//279 254//279 253//279
f 270//280 255//280 254//280
f 271//281 256//281 255//281
f 256//282 273//282 257//282
f 273//283 258//283 257//283
f 274//284 243//284 258//284
f 275//285 260//285 259//285
f 260//286 277//286 261//286
f 261//287 278//287 262//287
f 278//288 263//288 262//288
f 279//289 264//289 263//289
f 280//290 265//290 264//290
f 281//291 266//291 265//291
f 282//292 267//292 266//292
f 283//293 268//293 267//293
f 268//294 285//294 269//294
f 269//295 286//295 270//295
f 286//296 271//296 270//296
f 287//297 272//297 271//297
f 288//298 273//298 272//298
f 289//299 274//299 273//299
f 290//300 259//300 274//300
f 291//301 276//301 275//301
f 292//302 277//302 276//302
f 293//303 278//303 277//303
f 278//304 295//304 279//304
f 295//305 280//305 279//305
f 296//306 281//306 280//306
f 297//307 282//307 281//307
f 298//308 283//308 282//308
f 299//309 284//309 283//309
f 300//310 285//310 284//310
f 301//311 286//311 285//311
f 286//312 303//312 287//312
f 303//313 288//313 287//313
f 304//314 289//314 288//314
f 305//315 290//315 289//315
f 306//316 275//316 290//316
f 307//317 292//317 291//317
f 308//318 293//318 292//318
f 293//319 310//319 294//319
f 310//320 295//320 294//320
f 311//321 296//321 295//321
f 312//322 297//322 296//322
f 297//323 314//323 298//323
f 314//324 299//324 298//324
f 315//325 300//325 299//325
f 316//326 301//326 300//326
f 301//327 318//327 302//327
f 318//328 303//328 302//328
f 319//329 304//329 303//329
f 320//330 305//330 304//330
f 305//331 322//331 306//331
f 322//332 291//332 306//332
f 505//333 308//333 323//333
f 507//334 309//334 504//334
f 324//335 310//335 309//335
f 325//336 311//336 310//336
f 326//337 312//337 311//337
f 327//338 313//338 312//338
f 313//339 546//339 545//339
f 329//340 314//340 549//340
f 329//341 316//341 315//341
f 330//342 317//342 316//342
f 331//343 318//343 317//343
f 332//344 319//344 318//344
f 333//345 320//345 319//345
f 334//346 321//346 320//346
f 335//347 322//347 321//347
f 336//348 307//348 322//348
f 508//349 323//349 509//349
f 324//350 506//350 510//350
f 512//351 338//351 324//351
f 338//352 326//352 325//352
f 339//353 327//353 326//353
f 328//354 340//354 551//354
f 546//355 328//355 552//355
f 341//356 548//356 554//356
f 341//357 330//357 329//357
f 330//358 343//358 331//358
f 343//359 332//359 331//359
f 344//360 333//360 332//360
f 345//361 334//361 333//361
f 346//362 335//362 334//362
f 347//363 336//363 335//363
f 348//364 323//364 336//364
f 337//365 513//365 509//365
f 514//366 338//366 511//366
f 350//367 339//367 338//367
f 339//368 352//368 340//368
f 340//369 555//369 550//369
f 556//370 341//370 553//370
f 353//371 342//371 341//371
f 354//372 343//372 342//372
f 343//373 356//373 344//373
f 356//374 345//374 344//374
f 345//375 358//375 346//375
f 358//376 347//376 346//376
f 347//377 360//377 348//377
f 360//378 337//378 348//378
f 513//379 349//379 515//379
f 517//380 361//380 350//380
f 361//381 351//381 350//381
f 362//382 352//382 351//382
f 352//383 557//383 558//383
f 353//384 556//384 559//384
f 364//385 353//385 561//385
f 364//386 355//386 354//386
f 355//387 366//387 356//387
f 366//388 357//388 356//388
f 367//389 358//389 357//389
f 368//390 359//390 358//390
f 359//391 370//391 360//391
f 349//392 370//392 519//392
f 371//393 521//393 520//393
f 521//394 373//394 522//394
f 523//395 373//395 361//395
f 374//396 362//396 361//396
f 362//397 376//397 363//397
f 562//398 363//398 377//398
f 377//399 564//399 563//399
f 379//400 564//400 378//400
f 380//401 364//401 566//401
f 364//402 381//402 365//402
f 381//403 366//403 365//403
f 382//404 367//404 366//404
f 367//405 384//405 368//405
f 384//406 369//406 368//406
f 385//407 370//407 369//407
f 524//408 370//408 371//408
f 371//409 388//409 372//409
f 388//410 373//410 372//410
f 389//411 374//411 373//411
f 390//412 375//412 374//412
f 375//413 392//413 376//413
f 392//414 377//414 376//414
f 377//415 394//415 378//415
f 394//416 379//416 378//416
f 379//417 396//417 380//417
f 396//418 381//418 380//418
f 397//419 382//419 381//419
f 398//420 383//420 382//420
f 383//421 400//421 384//421
f 400//422 385//422 384//422
f 385//423 402//423 386//423
f 402//424 371//424 386//424
f 403//425 388//425 387//425
f 404//426 389//426 388//426
f 405//427 390//427 389//427
f 406//428 391//428 390//428
f 407//429 392//429 391//429
f 408//430 393//430 392//430
f 409//431 394//431 393//431
f 410//432 395//432 394//432
f 411//433 396//433 395//433
f 412//434 397//434 396//434
f 413//435 398//435 397//435
f 414//436 399//436 398//436
f 415//437 400//437 399//437
f 416//438 401//438 400//438
f 417//439 402//439 401//439
f 418//440 387//440 402//440
f 419//441 404//441 403//441
f 420//442 405//442 404//442
f 405//443 422//443 406//443
f 422//444 407//444 406//444
f 423//445 408//445 407//445
f 424//446 409//446 408//446
f 425//447 410//447 409//447
f 426//448 411//448 410//448
f 427//449 412//449 411//449
f 428//450 413//450 412//450
f 413//451 430//451 414//451
f 430//452 415//452 414//452
f 431//453 416//453 415//453
f 432//454 417//454 416//454
f 433//455 418//455 417//455
f 434//456 403//456 418//456
f 435//457 420//457 419//457
f 436//458 421//458 420//458
f 421//459 438//459 422//459
f 438//460 423//460 422//460
f 423//461 440//461 424//461
f 440//462 425//462 424//462
f 425//463 442//463 426//463
f 442//464 427//464 426//464
f 443//465 428//465 427//465
f 444//466 429//466 428//466
f 429//467 446//467 430//467
f 446//468 431//468 430//468
f 431//469 448//469 432//469
f 448//470 433//470 432//470
f 433//471 450//471 434//471
f 450//472 419//472 434//472
f 451//473 436//473 435//473
f 452//474 437//474 436//474
f 437//475 454//475 438//475
f 454//476 439//476 438//476
f 455//477 440//477 439//477
f 456//478 441//478 440//478
f 457//479 442//479 441//479
f 458//480 443//480 442//480
f 459//481 444//481 443//481
f 460//482 445//482 444//482
f 445//483 462//483 446//483
f 462//484 447//484 446//484
f 463//485 448//485 447//485
f 464//486 449//486 448//486
f 465//487 450//487 449//487
f 466//488 435//488 450//488
f 451//489 468//489 452//489
f 468//490 453//490 452//490
f 469//491 454//491 453//491
f 470//492 455//492 454//492
f 455//493 472//493 456//493
f 472//494 457//494 456//494
f 473//495 458//495 457//495
f 458//496 475//496 459//496
f 459//497 476//497 460//497
f 476//498 461//498 460//498
f 477//499 462//499 461//499
f 478//500 463//500 462//500
f 463//501 480//501 464//501
f 480//502 465//502 464//502
f 481//503 466//503 465//503
f 466//504 467//504 451//504
f 227//505 467//505 226//505
f 228//506 468//506 227//506
f 229//507 469//507 228//507
f 230//508 470//508 229//508
f 230//509 472//509 471//509
f 232//510 472//510 231//510
f 233//511 473//511 232//511
f 234//512 474//512 233//512
f 235//513 475//513 234//513
f 236//514 476//514 235//514
f 237//515 477//515 236//515
f 238//516 478//516 237//516
f 238//517 480//517 479//517
f 240//518 480//518 239//518
f 241//519 481//519 240//519
f 226//520 482//520 241//520
f 494//521 501//521 516//521
f 502//522 495//522 519//522
f 493//523 488//523 513//523
f 488//524 483//524 505//524
f 504//525 486//525 507//525
f 485//526 490//526 510//526
f 492//527 494//527 514//527
f 501//528 502//528 521//528
f 536//529 539//529 566//529
f 537//530 558//530 557//530
f 535//531 530//531 550//531
f 531//532 527//532 552//532
f 526//525 547//525 545//525
f 526//533 529//533 554//533
f 536//534 553//534 554//534
f 543//535 540//535 564//535
f 3//17 19//17 18//17
f 4//18 20//18 19//18
f 5//19 21//19 20//19
f 5//20 6//20 22//20
f 7//21 23//21 22//21
f 8//22 24//22 23//22
f 9//23 25//23 24//23
f 9//24 10//24 26//24
f 11//25 27//25 26//25
f 12//26 28//26 27//26
f 13//27 29//27 28//27
f 13//28 14//28 30//28
f 15//29 31//29 30//29
f 16//30 32//30 31//30
f 17//31 33//31 32//31
f 17//32 2//32 18//32
f 19//33 35//33 34//33
f 20//34 36//34 35//34
f 20//536 21//536 37//536
f 22//537 38//537 37//537
f 23//538 39//538 38//538
f 24//539 40//539 39//539
f 24//39 25//39 41//39
f 26//40 42//40 41//40
f 27//41 43//41 42//41
f 28//42 44//42 43//42
f 28//540 29//540 45//540
f 30//541 46//541 45//541
f 31//542 47//542 46//542
f 32//543 48//543 47//543
f 32//47 33//47 49//47
f 18//48 34//48 49//48
f 35//49 51//49 50//49
f 36//50 52//50 51//50
f 37//51 53//51 52//51
f 38//52 54//52 53//52
f 39//53 55//53 54//53
f 40//54 56//54 55//54
f 41//55 57//55 56//55
f 42//56 58//56 57//56
f 43//57 59//57 58//57
f 44//58 60//58 59//58
f 45//59 61//59 60//59
f 46//60 62//60 61//60
f 47//61 63//61 62//61
f 48//62 64//62 63//62
f 49//63 65//63 64//63
f 34//64 50//64 65//64
f 51//65 67//65 66//65
f 51//66 52//66 68//66
f 53//67 69//67 68//67
f 54//68 70//68 69//68
f 55//69 71//69 70//69
f 55//70 56//70 72//70
f 57//71 73//71 72//71
f 58//72 74//72 73//72
f 59//73 75//73 74//73
f 59//74 60//74 76//74
f 61//75 77//75 76//75
f 62//76 78//76 77//76
f 63//77 79//77 78//77
f 63//78 64//78 80//78
f 65//79 81//79 80//79
f 50//80 66//80 81//80
f 483//81 484//81 82//81
f 82//81 66//81 67//81
f 486//82 483//82 67//82
f 68//82 83//82 487//82
f 485//82 486//82 67//82
f 68//82 487//82 485//82
f 69//83 84//83 83//83
f 70//84 85//84 84//84
f 71//85 86//85 85//85
f 72//86 87//86 86//86
f 527//87 528//87 87//87
f 73//87 525//87 526//87
f 527//87 87//87 72//87
f 73//87 526//87 527//87
f 525//88 73//88 74//88
f 74//88 88//88 529//88
f 75//89 89//89 88//89
f 76//90 90//90 89//90
f 77//91 91//91 90//91
f 78//92 92//92 91//92
f 79//93 93//93 92//93
f 80//94 94//94 93//94
f 81//95 95//95 94//95
f 66//96 82//96 95//96
f 488//97 489//97 96//97
f 96//97 82//97 484//97
f 492//99 490//99 83//99
f 83//99 84//99 97//99
f 97//99 491//99 492//99
f 85//100 98//100 97//100
f 86//101 99//101 98//101
f 532//102 99//102 86//102
f 86//102 87//102 531//102
f 530//102 532//102 86//102
f 533//104 529//104 88//104
f 88//104 100//104 534//104
f 89//105 101//105 100//105
f 90//106 102//106 101//106
f 91//107 103//107 102//107
f 92//108 104//108 103//108
f 93//109 105//109 104//109
f 94//110 106//110 105//110
f 95//111 107//111 106//111
f 82//112 96//112 107//112
f 493//113 108//113 96//113
f 97//114 109//114 494//114
f 98//115 110//115 109//115
f 99//116 111//116 110//116
f 99//117 532//117 535//117
f 100//118 112//118 536//118
f 101//119 113//119 112//119
f 102//120 114//120 113//120
f 103//121 115//121 114//121
f 104//122 116//122 115//122
f 105//123 117//123 116//123
f 106//124 118//124 117//124
f 107//125 119//125 118//125
f 96//126 108//126 119//126
f 109//128 120//128 496//128
f 109//129 110//129 121//129
f 111//130 122//130 121//130
f 111//131 535//131 537//131
f 538//133 112//133 113//133
f 113//133 123//133 539//133
f 114//134 124//134 123//134
f 114//135 115//135 125//135
f 115//136 116//136 126//136
f 117//137 127//137 126//137
f 118//138 128//138 127//138
f 118//139 119//139 129//139
f 108//140 495//140 497//140
f 497//140 129//140 119//140
f 498//141 131//141 130//141
f 132//142 131//142 498//142
f 501//143 496//143 120//143
f 133//143 132//143 500//143
f 501//143 120//143 133//143
f 120//144 121//144 134//144
f 122//145 135//145 134//145
f 540//146 136//146 135//146
f 122//146 537//146 541//146
f 541//146 540//146 135//146
f 542//147 137//147 136//147
f 138//148 137//148 542//148
f 539//149 123//149 139//149
f 139//149 138//149 543//149
f 544//149 539//149 139//149
f 124//150 140//150 139//150
f 125//151 141//151 140//151
f 125//152 126//152 142//152
f 127//153 143//153 142//153
f 128//154 144//154 143//154
f 129//155 145//155 144//155
f 502//156 499//156 130//156
f 130//156 145//156 129//156
f 129//156 497//156 502//156
f 131//157 147//157 146//157
f 131//158 132//158 148//158
f 133//159 149//159 148//159
f 133//160 134//160 150//160
f 135//161 151//161 150//161
f 135//162 136//162 152//162
f 137//163 153//163 152//163
f 137//164 138//164 154//164
f 139//165 155//165 154//165
f 139//166 140//166 156//166
f 141//167 157//167 156//167
f 141//168 142//168 158//168
f 143//169 159//169 158//169
f 143//170 144//170 160//170
f 145//171 161//171 160//171
f 145//172 130//172 146//172
f 147//173 163//173 162//173
f 148//174 164//174 163//174
f 149//175 165//175 164//175
f 150//176 166//176 165//176
f 151//177 167//177 166//177
f 152//178 168//178 167//178
f 153//179 169//179 168//179
f 154//180 170//180 169//180
f 155//181 171//181 170//181
f 156//182 172//182 171//182
f 157//183 173//183 172//183
f 158//184 174//184 173//184
f 159//185 175//185 174//185
f 160//186 176//186 175//186
f 161//187 177//187 176//187
f 146//188 162//188 177//188
f 163//189 179//189 178//189
f 164//190 180//190 179//190
f 165//191 181//191 180//191
f 166//192 182//192 181//192
f 167//193 183//193 182//193
f 168//194 184//194 183//194
f 169//195 185//195 184//195
f 170//196 186//196 185//196
f 171//197 187//197 186//197
f 172//198 188//198 187//198
f 173//199 189//199 188//199
f 174//200 190//200 189//200
f 175//201 191//201 190//201
f 176//202 192//202 191//202
f 177//203 193//203 192//203
f 162//204 178//204 193//204
f 179//205 195//205 194//205
f 180//206 196//206 195//206
f 181//207 197//207 196//207
f 182//208 198//208 197//208
f 183//209 199//209 198//209
f 184//210 200//210 199//210
f 185//211 201//211 200//211
f 186//212 202//212 201//212
f 187//213 203//213 202//213
f 188//214 204//214 203//214
f 189//215 205//215 204//215
f 190//216 206//216 205//216
f 191//217 207//217 206//217
f 192//218 208//218 207//218
f 193//219 209//219 208//219
f 178//220 194//220 209//220
f 195//221 211//221 210//221
f 196//222 212//222 211//222
f 197//223 213//223 212//223
f 198//224 214//224 213//224
f 199//225 215//225 214//225
f 200//226 216//226 215//226
f 201//227 217//227 216//227
f 202//228 218//228 217//228
f 203//229 219//229 218//229
f 204//230 220//230 219//230
f 205//231 221//231 220//231
f 206//232 222//232 221//232
f 207//233 223//233 222//233
f 208//234 224//234 223//234
f 209//235 225//235 224//235
f 194//236 210//236 225//236
f 211//237 227//237 226//237
f 211//238 212//238 228//238
f 213//239 229//239 228//239
f 214//240 230//240 229//240
f 215//241 231//241 230//241
f 215//242 216//242 232//242
f 217//243 233//243 232//243
f 218//244 234//244 233//244
f 219//245 235//245 234//245
f 219//246 220//246 236//246
f 221//247 237//247 236//247
f 222//248 238//248 237//248
f 223//249 239//249 238//249
f 223//250 224//250 240//250
f 225//251 241//251 240//251
f 210//252 226//252 241//252
f 259//269 260//269 244//269
f 260//270 261//270 245//270
f 261//271 262//271 246//271
f 262//272 263//272 247//272
f 263//273 264//273 248//273
f 248//274 264//274 265//274
f 265//275 266//275 250//275
f 266//276 267//276 251//276
f 267//277 268//277 252//277
f 268//278 269//278 253//278
f 269//279 270//279 254//279
f 270//280 271//280 255//280
f 271//281 272//281 256//281
f 256//282 272//282 273//282
f 273//283 274//283 258//283
f 274//284 259//284 243//284
f 275//285 276//285 260//285
f 260//286 276//286 277//286
f 261//287 277//287 278//287
f 278//288 279//288 263//288
f 279//289 280//289 264//289
f 280//290 281//290 265//290
f 281//291 282//291 266//291
f 282//292 283//292 267//292
f 283//293 284//293 268//293
f 268//294 284//294 285//294
f 269//295 285//295 286//295
f 286//296 287//296 271//296
f 287//297 288//297 272//297
f 288//298 289//298 273//298
f 289//299 290//299 274//299
f 290//300 275//300 259//300
f 291//301 292//301 276//301
f 292//302 293//302 277//302
f 293//303 294//303 278//303
f 278//304 294//304 295//304
f 295//305 296//305 280//305
f 296//306 297//306 281//306
f 297//307 298//307 282//307
f 298//308 299//308 283//308
f 299//309 300//309 284//309
f 300//310 301//310 285//310
f 301//311 302//311 286//311
f 286//312 302//312 303//312
f 303//313 304//313 288//313
f 304//314 305//314 289//314
f 305//315 306//315 290//315
f 306//316 291//316 275//316
f 307//317 308//317 292//317
f 308//318 309//318 293//318
f 293//319 309//319 310//319
f 310//320 311//320 295//320
f 311//321 312//321 296//321
f 312//322 313//322 297//322
f 297//323 313//323 314//323
f 314//324 315//324 299//324
f 315//325 316//325 300//325
f 316//326 317//326 301//326
f 301//327 317//327 318//327
f 318//328 319//328 303//328
f 319//329 320//329 304//329
f 320//330 321//330 305//330
f 305//331 321//331 322//331
f 322//332 307//332 291//332
f 505//333 504//333 308//333
f 308//333 307//333 323//333
f 323//333 503//333 505//333
f 507//334 506//334 324//334
f 309//334 308//334 504//334
f 507//334 324//334 309//334
f 324//335 325//335 310//335
f 325//336 326//336 311//336
f 326//337 327//337 312//337
f 327//338 328//338 313//338
f 545//339 547//339 314//339
f 313//339 328//339 546//339
f 545//339 314//339 313//339
f 549//340 548//340 329//340
f 329//340 315//340 314//340
f 314//544 547//544 549//544
f 329//341 330//341 316//341
f 330//342 331//342 317//342
f 331//343 332//343 318//343
f 332//344 333//344 319//344
f 333//345 334//345 320//345
f 334//346 335//346 321//346
f 335//347 336//347 322//347
f 336//348 323//348 307//348
f 508//349 503//349 323//349
f 323//349 337//349 509//349
f 512//351 511//351 338//351
f 338//351 325//351 324//351
f 324//351 510//351 512//351
f 338//352 339//352 326//352
f 339//353 340//353 327//353
f 551//354 552//354 328//354
f 328//354 327//354 340//354
f 340//354 550//354 551//354
f 554//356 553//356 341//356
f 341//356 329//356 548//356
f 341//357 342//357 330//357
f 330//358 342//358 343//358
f 343//359 344//359 332//359
f 344//360 345//360 333//360
f 345//361 346//361 334//361
f 346//362 347//362 335//362
f 347//363 348//363 336//363
f 348//364 337//364 323//364
f 337//365 349//365 513//365
f 514//366 350//366 338//366
f 350//367 351//367 339//367
f 339//368 351//368 352//368
f 340//369 352//369 555//369
f 556//370 353//370 341//370
f 353//371 354//371 342//371
f 354//372 355//372 343//372
f 343//373 355//373 356//373
f 356//374 357//374 345//374
f 345//375 357//375 358//375
f 358//376 359//376 347//376
f 347//377 359//377 360//377
f 360//378 349//378 337//378
f 517//380 516//380 361//380
f 350//380 514//380 517//380
f 361//381 362//381 351//381
f 362//382 363//382 352//382
f 352//545 363//545 557//545
f 558//383 555//383 352//383
f 561//385 560//385 364//385
f 364//385 354//385 353//385
f 353//385 559//385 561//385
f 364//546 365//546 355//546
f 355//387 365//387 366//387
f 366//388 367//388 357//388
f 367//389 368//389 358//389
f 368//390 369//390 359//390
f 359//391 369//391 370//391
f 519//392 515//392 349//392
f 349//392 360//392 370//392
f 370//392 518//392 519//392
f 371//393 372//393 521//393
f 521//394 372//394 373//394
f 523//395 522//395 373//395
f 373//395 374//395 361//395
f 361//395 516//395 523//395
f 374//396 375//396 362//396
f 362//397 375//397 376//397
f 562//398 557//398 363//398
f 363//398 376//398 377//398
f 377//398 563//398 562//398
f 377//399 378//399 564//399
f 379//400 565//400 564//400
f 565//401 379//401 380//401
f 364//401 560//401 566//401
f 566//401 565//401 380//401
f 364//402 380//402 381//402
f 381//403 382//403 366//403
f 382//404 383//404 367//404
f 367//405 383//405 384//405
f 384//406 385//406 369//406
f 385//407 386//407 370//407
f 524//408 518//408 370//408
f 370//408 386//408 371//408
f 371//408 520//408 524//408
f 371//409 387//409 388//409
f 388//410 389//410 373//410
f 389//411 390//411 374//411
f 390//412 391//412 375//412
f 375//413 391//413 392//413
f 392//414 393//414 377//414
f 377//415 393//415 394//415
f 394//416 395//416 379//416
f 379//417 395//417 396//417
f 396//418 397//418 381//418
f 397//419 398//419 382//419
f 398//420 399//420 383//420
f 383//421 399//421 400//421
f 400//422 401//422 385//422
f 385//423 401//423 402//423
f 402//424 387//424 371//424
f 403//425 404//425 388//425
f 404//426 405//426 389//426
f 405//427 406//427 390//427
f 406//428 407//428 391//428
f 407//429 408//429 392//429
f 408//430 409//430 393//430
f 409//431 410//431 394//431
f 410//432 411//432 395//432
f 411//433 412//433 396//433
f 412//434 413//434 397//434
f 413//435 414//435 398//435
f 414//436 415//436 399//436
f 415//437 416//437 400//437
f 416//438 417//438 401//438
f 417//439 418//439 402//439
f 418//440 403//440 387//440
f 419//441 420//441 404//441
f 420//442 421//442 405//442
f 405//443 421//443 422//443
f 422//444 423//444 407//444
f 423//445 424//445 408//445
f 424//446 425//446 409//446
f 425//447 426//447 410//447
f 426//448 427//448 411//448
f 427//449 428//449 412//449
f 428//450 429//450 413//450
f 413//451 429//451 430//451
f 430//452 431//452 415//452
f 431//453 432//453 416//453
f 432//454 433//454 417//454
f 433//455 434//455 418//455
f 434//456 419//456 403//456
f 435//457 436//457 420//457
f 436//458 437//458 421//458
f 421//459 437//459 438//459
f 438//460 439//460 423//460
f 423//461 439//461 440//461
f 440//462 441//462 425//462
f 425//463 441//463 442//463
f 442//464 443//464 427//464
f 443//465 444//465 428//465
f 444//466 445//466 429//466
f 429//467 445//467 446//467
f 446//468 447//468 431//468
f 431//469 447//469 448//469
f 448//470 449//470 433//470
f 433//471 449//471 450//471
f 450//472 435//472 419//472
f 451//473 452//473 436//473
f 452//474 453//474 437//474
f 437//475 453//475 454//475
f 454//476 455//476 439//476
f 455//477 456//477 440//477
f 456//478 457//478 441//478
f 457//479 458//479 442//479
f 458//480 459//480 443//480
f 459//481 460//481 444//481
f 460//482 461//482 445//482
f 445//483 461//483 462//483
f 462//484 463//484 447//484
f 463//485 464//485 448//485
f 464//486 465//486 449//486
f 465//487 466//487 450//487
f 466//488 451//488 435//488
f 451//489 467//489 468//489
f 468//490 469//490 453//490
f 469//547 470//547 454//547
f 470//492 471//492 455//492
f 455//493 471//493 472//493
f 472//494 473//494 457//494
f 473//495 474//495 458//495
f 458//496 474//496 475//496
f 459//497 475//497 476//497
f 476//498 477//498 461//498
f 477//548 478//548 462//548
f 478//500 479//500 463//500
f 463//501 479//501 480//501
f 480//502 481//502 465//502
f 481//503 482//503 466//503
f 466//504 482//504 467//504
f 227//505 468//505 467//505
f 228//506 469//506 468//506
f 229//507 470//507 469//507
f 230//508 471//508 470//508
f 230//549 231//549 472//549
f 232//510 473//510 472//510
f 233//511 474//511 473//511
f 234//512 475//512 474//512
f 235//513 476//513 475//513
f 236//514 477//514 476//514
f 237//515 478//515 477//515
f 238//516 479//516 478//516
f 238//550 239//550 480//550
f 240//518 481//518 480//518
f 241//519 482//519 481//519
f 226//520 467//520 482//520
f 516//521 517//521 494//521
f 494//521 496//521 501//521
f 501//521 523//521 516//521
f 518//522 524//522 502//522
f 502//522 497//522 495//522
f 495//522 493//522 519//522
f 519//522 518//522 502//522
f 515//523 519//523 493//523
f 493//523 489//523 488//523
f 488//523 508//523 509//523
f 513//523 515//523 493//523
f 488//523 509//523 513//523
f 503//524 508//524 488//524
f 488//524 484//524 483//524
f 483//524 486//524 505//524
f 505//524 503//524 488//524
f 504//525 505//525 486//525
f 486//525 485//525 507//525
f 506//526 507//526 485//526
f 485//526 487//526 490//526
f 490//526 492//526 512//526
f 510//526 506//526 485//526
f 490//526 512//526 510//526
f 511//527 512//527 492//527
f 492//527 491//527 494//527
f 494//527 517//527 514//527
f 514//527 511//527 492//527
f 522//528 523//528 501//528
f 501//528 500//528 498//528
f 498//528 499//528 502//528
f 502//528 524//528 520//528
f 521//528 522//528 501//528
f 502//528 520//528 521//528
f 501//528 498//528 502//528
f 560//529 561//529 536//529
f 536//529 538//529 539//529
f 539//529 544//529 566//529
f 566//551 560//551 536//551
f 562//530 541//530 537//530
f 537//530 535//530 558//530
f 557//530 562//530 537//530
f 555//531 558//531 535//531
f 535//531 532//531 530//531
f 530//531 551//531 550//531
f 550//531 555//531 535//531
f 551//532 530//532 531//532
f 531//552 528//552 527//552
f 527//532 545//532 546//532
f 552//532 551//532 531//532
f 527//552 546//552 552//552
f 545//525 527//525 526//525
f 526//525 549//525 547//525
f 548//553 549//553 526//553
f 526//553 525//553 529//553
f 529//553 533//553 554//553
f 554//553 548//553 526//553
f 533//534 534//534 536//534
f 536//534 561//534 559//534
f 536//534 559//534 556//534
f 554//534 533//534 536//534
f 536//534 556//534 553//534
f 566//535 544//535 543//535
f 543//535 542//535 540//535
f 540//535 541//535 562//535
f 540//535 562//535 563//535
f 565//535 566//535 543//535
f 540//535 563//535 564//535
f 564//535 565//535 543//535
g A_Liquid.001_A_Liquid.001
v 0.000000 0.140000 0.000000
v 0.256646 0.225448 0.000000
v 0.237110 0.225448 -0.098214
v 0.181476 0.225448 -0.181476
v 0.098214 0.225448 -0.237110
v 0.000000 0.225448 -0.256646
v -0.098214 0.225448 -0.237110
v -0.181476 0.225448 -0.181476
v -0.237110 0.225448 -0.098214
v -0.256646 0.225448 -0.000000
v -0.237110 0.225448 0.098214
v -0.181476 0.225448 0.181476
v -0.098214 0.225448 0.237110
v -0.000000 0.225448 0.256646
v 0.098214 0.225448 0.237110
v 0.181476 0.225448 0.181476
v 0.237110 0.225448 0.098214
v 0.362883 0.343436 0.000000
v 0.335260 0.343436 -0.138869
v 0.256597 0.343436 -0.256597
v 0.138869 0.343436 -0.335260
v 0.000000 0.343436 -0.362883
v -0.138869 0.343436 -0.335260
v -0.256597 0.343436 -0.256597
v -0.335260 0.343436 -0.138869
v -0.362883 0.343436 -0.000000
v -0.335260 0.343436 0.138869
v -0.256597 0.343436 0.256597
v -0.138869 0.343436 0.335260
v -0.000000 0.343436 0.362883
v 0.138869 0.343436 0.335260
v 0.256597 0.343436 0.256597
v 0.335260 0.343436 0.138869
v 0.432483 0.486137 0.000000
v 0.399562 0.486137 -0.165504
v 0.305811 0.486137 -0.305811
v 0.165504 0.486137 -0.399562
v 0.000000 0.486137 -0.432483
v -0.165504 0.486137 -0.399562
v -0.305811 0.486137 -0.305811
v -0.399562 0.486137 -0.165504
v -0.432483 0.486137 -0.000000
v -0.399562 0.486137 0.165504
v -0.305811 0.486137 0.305811
v -0.165504 0.486137 0.399562
v -0.000000 0.486137 0.432483
v 0.165504 0.486137 0.399562
v 0.305811 0.486137 0.305811
v 0.399562 0.486137 0.165504
v 0.460053 0.642493 0.000000
v 0.425033 0.642493 -0.176054
v 0.325306 0.642493 -0.325306
v 0.176054 0.642493 -0.425033
v 0.000000 0.642493 -0.460053
v -0.176054 0.642493 -0.425033
v -0.325306 0.642493 -0.325306
v -0.425033 0.642493 -0.176054
v -0.460053 0.642493 -0.000000
v -0.425033 0.642493 0.176054
v -0.325306 0.642493 0.325306
v -0.176054 0.642493 0.425033
v -0.000000 0.642493 0.460053
v 0.176054 0.642493 0.425033
v 0.325306 0.642493 0.325306
v 0.425033 0.642493 0.176054
v 0.443457 0.800392 0.000000
v 0.409701 0.800392 -0.169704
v 0.313571 0.800392 -0.313571
v 0.169704 0.800392 -0.409701
v 0.000000 0.800392 -0.443457
v -0.169704 0.800392 -0.409701
v -0.313571 0.800392 -0.313571
v -0.409701 0.800392 -0.169704
v -0.443457 0.800392 -0.000000
v -0.409701 0.800392 0.169704
v -0.313571 0.800392 0.313571
v -0.169704 0.800392 0.409701
v -0.000000 0.800392 0.443457
v 0.169704 0.800392 0.409701
v 0.313571 0.800392 0.313571
v 0.409701 0.800392 0.169704
v 0.383981 0.947600 0.000000
v 0.354752 0.947600 -0.146943
v 0.271515 0.947600 -0.271515
v 0.146943 0.947600 -0.354752
v 0.000000 0.947600 -0.383981
v -0.146943 0.947600 -0.354752
v -0.271515 0.947600 -0.271515
v -0.354752 0.947600 -0.146943
v -0.383981 0.947600 -0.000000
v -0.354752 0.947600 0.146943
v -0.271515 0.947600 0.271515
v -0.146943 0.947600 0.354752
v -0.000000 0.947600 0.383981
v 0.146943 0.947600 0.354752
v 0.271515 0.947600 0.271515
v 0.354752 0.947600 0.146943
v 0.286233 1.072711 0.000000
v 0.264445 1.072711 -0.109537
v 0.202397 1.072711 -0.202397
v 0.109537 1.072711 -0.264445
v 0.000000 1.072711 -0.286233
v -0.109537 1.072711 -0.264445
v -0.202397 1.072711 -0.202397
v -0.264445 1.072711 -0.109537
v -0.286233 1.072711 -0.000000
v -0.264445 1.072711 0.109537
v -0.202397 1.072711 0.202397
v -0.109537 1.072711 0.264445
v -0.000000 1.072711 0.286233
v 0.109537 1.072711 0.264445
v 0.202397 1.072711 0.202397
v 0.264445 1.072711 0.109537
v 0.157787 1.166033 0.000000
v 0.145776 1.166033 -0.060382
v 0.111572 1.166033 -0.111572
v 0.060382 1.166033 -0.145776
v 0.000000 1.166033 -0.157787
v -0.060382 1.166033 -0.145776
v -0.111572 1.166033 -0.111572
v -0.145776 1.166033 -0.060382
v -0.157787 1.166033 -0.000000
v -0.145776 1.166033 0.060382
v -0.111572 1.166033 0.111572
v -0.060382 1.166033 0.145776
v -0.000000 1.166033 0.157787
v 0.060382 1.166033 0.145776
v 0.111572 1.166033 0.111572
v 0.145776 1.166033 0.060382
v 0.110451 1.237840 0.000000
v 0.102043 1.237840 -0.042268
v 0.078100 1.237840 -0.078100
v 0.042268 1.237840 -0.102043
v 0.000000 1.237840 -0.110451
v -0.042268 1.237840 -0.102043
v -0.078100 1.237840 -0.078100
v -0.102043 1.237840 -0.042268
v -0.110451 1.237840 -0.000000
v -0.102043 1.237840 0.042268
v -0.078100 1.237840 0.078100
v -0.042268 1.237840 0.102043
v -0.000000 1.237840 0.110451
v 0.042268 1.237840 0.102043
v 0.078100 1.237840 0.078100
v 0.102043 1.237840 0.042268
v 0.000000 1.267840 0.000000
vn 0.3153 -0.9469 -0.0627
vn 0.2673 -0.9469 -0.1786
vn 0.1786 -0.9469 -0.2673
vn 0.0627 -0.9469 -0.3153
vn -0.0627 -0.9469 -0.3153
vn -0.1786 -0.9469 -0.2673
vn -0.2673 -0.9469 -0.1786
vn -0.3153 -0.9469 -0.0627
vn -0.3153 -0.9469 0.0627
vn -0.2673 -0.9469 0.1786
vn -0.1786 -0.9469 0.2673
vn -0.0627 -0.9469 0.3153
vn 0.0627 -0.9469 0.3153
vn 0.1786 -0.9469 0.2673
vn 0.2673 -0.9469 0.1786
vn 0.3153 -0.9469 0.0627
vn 0.7352 -0.6619 -0.1462
vn 0.6232 -0.6619 -0.4164
vn 0.4164 -0.6619 -0.6232
vn 0.1462 -0.6619 -0.7352
vn -0.1462 -0.6619 -0.7352
vn -0.4164 -0.6619 -0.6232
vn -0.6232 -0.6619 -0.4164
vn -0.7352 -0.6619 -0.1462
vn -0.7352 -0.6619 0.1462
vn -0.6232 -0.6619 0.4164
vn -0.4164 -0.6619 0.6232
vn -0.1462 -0.6619 0.7352
vn 0.1462 -0.6619 0.7352
vn 0.4164 -0.6619 0.6232
vn 0.6232 -0.6619 0.4164
vn 0.7352 -0.6619 0.1462
vn 0.8848 -0.4315 -0.1760
vn 0.7501 -0.4315 -0.5012
vn 0.5012 -0.4315 -0.7501
vn 0.1760 -0.4315 -0.8848
vn -0.1760 -0.4315 -0.8848
vn -0.5012 -0.4315 -0.7501
vn -0.7501 -0.4315 -0.5012
vn -0.8848 -0.4315 -0.1760
vn -0.8848 -0.4315 0.1760
vn -0.7501 -0.4315 0.5012
vn -0.5012 -0.4315 0.7501
vn -0.1760 -0.4315 0.8848
vn 0.1760 -0.4315 0.8848
vn 0.5012 -0.4315 0.7501
vn 0.7501 -0.4315 0.5012
vn 0.8848 -0.4315 0.1760
vn 0.9664 -0.1704 -0.1922
vn 0.8193 -0.1704 -0.5474
vn 0.5474 -0.1704 -0.8193
vn 0.1922 -0.1704 -0.9664
vn -0.1922 -0.1704 -0.9664
vn -0.5474 -0.1704 -0.8193
vn -0.8193 -0.1704 -0.5474
vn -0.9664 -0.1704 -0.1922
vn -0.9664 -0.1704 0.1922
vn -0.8193 -0.1704 0.5474
vn -0.5474 -0.1704 0.8193
vn -0.1922 -0.1704 0.9664
vn 0.1922 -0.1704 0.9664
vn 0.5474 -0.1704 0.8193
vn 0.8193 -0.1704 0.5474
vn 0.9664 -0.1704 0.1922
vn 0.9756 0.1025 -0.1941
vn 0.8271 0.1025 -0.5526
vn 0.5526 0.1025 -0.8271
vn 0.1941 0.1025 -0.9756
vn -0.1941 0.1025 -0.9756
vn -0.5526 0.1025 -0.8271
vn -0.8271 0.1025 -0.5526
vn -0.9756 0.1025 -0.1941
vn -0.9756 0.1025 0.1941
vn -0.8271 0.1025 0.5526
vn -0.5526 0.1025 0.8271
vn -0.1941 0.1025 0.9756
vn 0.1941 0.1025 0.9756
vn 0.5526 0.1025 0.8271
vn 0.8271 0.1025 0.5526
vn 0.9756 0.1025 0.1941
vn 0.9118 0.3684 -0.1814
vn 0.7730 0.3684 -0.5165
vn 0.5165 0.3684 -0.7730
vn 0.1814 0.3684 -0.9118
vn -0.1814 0.3684 -0.9118
vn -0.5165 0.3684 -0.7730
vn -0.7730 0.3684 -0.5165
vn -0.9118 0.3684 -0.1814
vn -0.9118 0.3684 0.1814
vn -0.7730 0.3684 0.5165
vn -0.5165 0.3684 0.7730
vn -0.1814 0.3684 0.9118
vn 0.1814 0.3684 0.9118
vn 0.5165 0.3684 0.7730
vn 0.7730 0.3684 0.5165
vn 0.9118 0.3684 0.1814
vn 0.7785 0.6082 -0.1549
vn 0.6600 0.6082 -0.4410
vn 0.4410 0.6082 -0.6600
vn 0.1549 0.6082 -0.7785
vn -0.1549 0.6082 -0.7785
vn -0.4410 0.6082 -0.6600
vn -0.6600 0.6082 -0.4410
vn -0.7785 0.6082 -0.1549
vn -0.7785 0.6082 0.1549
vn -0.6600 0.6082 0.4410
vn -0.4410 0.6082 0.6600
vn -0.1549 0.6082 0.7785
vn 0.1549 0.6082 0.7785
vn 0.4410 0.6082 0.6600
vn 0.6600 0.6082 0.4410
vn 0.7785 0.6082 0.1549
vn 0.5838 0.8035 -0.1161
vn 0.4949 0.8035 -0.3307
vn 0.3307 0.8035 -0.4949
vn 0.1161 0.8035 -0.5838
vn -0.1161 0.8035 -0.5838
vn -0.3307 0.8035 -0.4949
vn -0.4949 0.8035 -0.3307
vn -0.5838 0.8035 -0.1161
vn -0.5838 0.8035 0.1161
vn -0.4949 0.8035 0.3307
vn -0.3307 0.8035 0.4949
vn -0.1161 0.8035 0.5838
vn 0.1161 0.8035 0.5838
vn 0.3307 0.8035 0.4949
vn 0.4949 0.8035 0.3307
vn 0.5838 0.8035 0.1161
vn 0.8236 0.5429 -0.1638
vn 0.6982 0.5429 -0.4665
vn 0.4666 0.5429 -0.6982
vn 0.1638 0.5429 -0.8236
vn -0.1638 0.5429 -0.8236
vn -0.4666 0.5429 -0.6982
vn -0.6982 0.5429 -0.4665
vn -0.8236 0.5429 -0.1638
vn -0.8236 0.5429 0.1638
vn -0.6982 0.5429 0.4665
vn -0.4666 0.5429 0.6982
vn -0.1638 0.5429 0.8236
vn 0.1638 0.5429 0.8236
vn 0.4666 0.5429 0.6982
vn 0.6982 0.5429 0.4665
vn 0.8236 0.5429 0.1638
vn 0.2618 0.9637 -0.0521
vn 0.2219 0.9637 -0.1483
vn 0.1483 0.9637 -0.2219
vn 0.0521 0.9637 -0.2618
vn -0.0521 0.9637 -0.2618
vn -0.1483 0.9637 -0.2219
vn -0.2219 0.9637 -0.1483
vn -0.2618 0.9637 -0.0521
vn -0.2618 0.9637 0.0521
vn -0.2219 0.9637 0.1483
vn -0.1483 0.9637 0.2219
vn -0.0521 0.9637 0.2618
vn 0.0521 0.9637 0.2618
vn 0.1483 0.9637 0.2219
vn 0.2219 0.9637 0.1483
vn 0.2618 0.9637 0.0521
vn 0.6982 0.5430 -0.4666
vn 0.4665 0.5429 -0.6982
vn -0.4665 0.5429 -0.6982
vn -0.6982 0.5430 0.4666
vn -0.4665 0.5429 0.6982
vn 0.4665 0.5429 0.6982
s 0
g A_Liquid.001_potion_liquid
usemtl potion_liquid
f 567//554 569//554 568//554
f 567//555 570//555 569//555
f 567//556 571//556 570//556
f 567//557 572//557 571//557
f 567//558 573//558 572//558
f 567//559 574//559 573//559
f 567//560 575//560 574//560
f 567//561 576//561 575//561
f 567//562 577//562 576//562
f 567//563 578//563 577//563
f 567//564 579//564 578//564
f 567//565 580//565 579//565
f 567//566 581//566 580//566
f 567//567 582//567 581//567
f 567//568 583//568 582//568
f 567//569 568//569 583//569
f 569//570 584//570 568//570
f 570//571 585//571 569//571
f 571//572 586//572 570//572
f 571//573 588//573 587//573
f 573//574 588//574 572//574
f 574//575 589//575 573//575
f 575//576 590//576 574//576
f 575//577 592//577 591//577
f 577//578 592//578 576//578
f 578//579 593//579 577//579
f 579//580 594//580 578//580
f 579//581 596//581 595//581
f 581//582 596//582 580//582
f 582//583 597//583 581//583
f 583//584 598//584 582//584
f 583//585 584//585 599//585
f 585//586 600//586 584//586
f 585//587 602//587 601//587
f 587//588 602//588 586//588
f 587//589 604//589 603//589
f 589//590 604//590 588//590
f 589//591 606//591 605//591
f 591//592 606//592 590//592
f 591//593 608//593 607//593
f 593//594 608//594 592//594
f 593//595 610//595 609//595
f 595//596 610//596 594//596
f 595//597 612//597 611//597
f 597//598 612//598 596//598
f 597//599 614//599 613//599
f 599//600 614//600 598//600
f 599//601 600//601 615//601
f 601//602 616//602 600//602
f 602//603 617//603 601//603
f 603//604 618//604 602//604
f 604//605 619//605 603//605
f 605//606 620//606 604//606
f 606//607 621//607 605//607
f 607//608 622//608 606//608
f 608//609 623//609 607//609
f 609//610 624//610 608//610
f 610//611 625//611 609//611
f 611//612 626//612 610//612
f 612//613 627//613 611//613
f 613//614 628//614 612//614
f 614//615 629//615 613//615
f 615//616 630//616 614//616
f 600//617 631//617 615//617
f 617//618 632//618 616//618
f 617//619 634//619 633//619
f 618//620 635//620 634//620
f 620//621 635//621 619//621
f 621//622 636//622 620//622
f 621//623 638//623 637//623
f 622//624 639//624 638//624
f 624//625 639//625 623//625
f 625//626 640//626 624//626
f 625//627 642//627 641//627
f 626//628 643//628 642//628
f 628//629 643//629 627//629
f 629//630 644//630 628//630
f 629//631 646//631 645//631
f 630//632 647//632 646//632
f 616//633 647//633 631//633
f 633//634 648//634 632//634
f 634//635 649//635 633//635
f 635//636 650//636 634//636
f 636//637 651//637 635//637
f 637//638 652//638 636//638
f 638//639 653//639 637//639
f 639//640 654//640 638//640
f 640//641 655//641 639//641
f 641//642 656//642 640//642
f 642//643 657//643 641//643
f 643//644 658//644 642//644
f 644//645 659//645 643//645
f 645//646 660//646 644//646
f 646//647 661//647 645//647
f 647//648 662//648 646//648
f 632//649 663//649 647//649
f 649//650 664//650 648//650
f 650//651 665//651 649//651
f 651//652 666//652 650//652
f 651//653 668//653 667//653
f 653//654 668//654 652//654
f 654//655 669//655 653//655
f 655//656 670//656 654//656
f 655//657 672//657 671//657
f 657//658 672//658 656//658
f 658//659 673//659 657//659
f 659//660 674//660 658//660
f 659//661 676//661 675//661
f 661//662 676//662 660//662
f 662//663 677//663 661//663
f 663//664 678//664 662//664
f 663//665 664//665 679//665
f 665//666 680//666 664//666
f 665//667 682//667 681//667
f 666//668 683//668 682//668
f 668//669 683//669 667//669
f 669//670 684//670 668//670
f 669//671 686//671 685//671
f 670//672 687//672 686//672
f 672//673 687//673 671//673
f 673//674 688//674 672//674
f 673//675 690//675 689//675
f 674//676 691//676 690//676
f 676//677 691//677 675//677
f 677//678 692//678 676//678
f 677//679 694//679 693//679
f 678//680 695//680 694//680
f 664//681 695//681 679//681
f 681//682 696//682 680//682
f 682//683 697//683 681//683
f 683//684 698//684 682//684
f 684//685 699//685 683//685
f 685//686 700//686 684//686
f 686//687 701//687 685//687
f 687//688 702//688 686//688
f 688//689 703//689 687//689
f 689//690 704//690 688//690
f 690//691 705//691 689//691
f 691//692 706//692 690//692
f 692//693 707//693 691//693
f 693//694 708//694 692//694
f 694//695 709//695 693//695
f 695//696 710//696 694//696
f 680//697 711//697 695//697
f 696//698 697//698 712//698
f 697//699 698//699 712//699
f 698//700 699//700 712//700
f 699//701 700//701 712//701
f 700//702 701//702 712//702
f 701//703 702//703 712//703
f 702//704 703//704 712//704
f 703//705 704//705 712//705
f 704//706 705//706 712//706
f 705//707 706//707 712//707
f 706//708 707//708 712//708
f 707//709 708//709 712//709
f 708//710 709//710 712//710
f 709//711 710//711 712//711
f 710//712 711//712 712//712
f 711//713 696//713 712//713
f 569//570 585//570 584//570
f 570//571 586//571 585//571
f 571//572 587//572 586//572
f 571//573 572//573 588//573
f 573//574 589//574 588//574
f 574//575 590//575 589//575
f 575//576 591//576 590//576
f 575//577 576//577 592//577
f 577//578 593//578 592//578
f 578//579 594//579 593//579
f 579//580 595//580 594//580
f 579//581 580//581 596//581
f 581//582 597//582 596//582
f 582//583 598//583 597//583
f 583//584 599//584 598//584
f 583//585 568//585 584//585
f 585//586 601//586 600//586
f 585//587 586//587 602//587
f 587//588 603//588 602//588
f 587//589 588//589 604//589
f 589//590 605//590 604//590
f 589//591 590//591 606//591
f 591//592 607//592 606//592
f 591//593 592//593 608//593
f 593//594 609//594 608//594
f 593//595 594//595 610//595
f 595//596 611//596 610//596
f 595//597 596//597 612//597
f 597//598 613//598 612//598
f 597//599 598//599 614//599
f 599//600 615//600 614//600
f 599//601 584//601 600//601
f 601//602 617//602 616//602
f 602//603 618//603 617//603
f 603//604 619//604 618//604
f 604//605 620//605 619//605
f 605//606 621//606 620//606
f 606//607 622//607 621//607
f 607//608 623//608 622//608
f 608//609 624//609 623//609
f 609//610 625//610 624//610
f 610//611 626//611 625//611
f 611//612 627//612 626//612
f 612//613 628//613 627//613
f 613//614 629//614 628//614
f 614//615 630//615 629//615
f 615//616 631//616 630//616
f 600//617 616//617 631//617
f 617//618 633//618 632//618
f 617//619 618//619 634//619
f 618//620 619//620 635//620
f 620//621 636//621 635//621
f 621//622 637//622 636//622
f 621//623 622//623 638//623
f 622//624 623//624 639//624
f 624//625 640//625 639//625
f 625//626 641//626 640//626
f 625//627 626//627 642//627
f 626//628 627//628 643//628
f 628//629 644//629 643//629
f 629//630 645//630 644//630
f 629//631 630//631 646//631
f 630//632 631//632 647//632
f 616//633 632//633 647//633
f 633//634 649//634 648//634
f 634//635 650//635 649//635
f 635//636 651//636 650//636
f 636//637 652//637 651//637
f 637//638 653//638 652//638
f 638//639 654//639 653//639
f 639//640 655//640 654//640
f 640//641 656//641 655//641
f 641//642 657//642 656//642
f 642//643 658//643 657//643
f 643//644 659//644 658//644
f 644//645 660//645 659//645
f 645//646 661//646 660//646
f 646//647 662//647 661//647
f 647//648 663//648 662//648
f 632//649 648//649 663//649
f 649//650 665//650 664//650
f 650//651 666//651 665//651
f 651//652 667//652 666//652
f 651//653 652//653 668//653
f 653//654 669//654 668//654
f 654//655 670//655 669//655
f 655//656 671//656 670//656
f 655//657 656//657 672//657
f 657//658 673//658 672//658
f 658//659 674//659 673//659
f 659//660 675//660 674//660
f 659//661 660//661 676//661
f 661//662 677//662 676//662
f 662//663 678//663 677//663
f 663//664 679//664 678//664
f 663//665 648//665 664//665
f 665//666 681//666 680//666
f 665//667 666//667 682//667
f 666//668 667//668 683//668
f 668//669 684//669 683//669
f 669//670 685//670 684//670
f 669//671 670//671 686//671
f 670//672 671//672 687//672
f 672//673 688//673 687//673
f 673//674 689//674 688//674
f 673//675 674//675 690//675
f 674//676 675//676 691//676
f 676//677 692//677 691//677
f 677//678 693//678 692//678
f 677//679 678//679 694//679
f 678//680 679//680 695//680
f 664//681 680//681 695//681
f 681//682 697//682 696//682
f 682//714 698//714 697//714
f 683//715 699//715 698//715
f 684//685 700//685 699//685
f 685//686 701//686 700//686
f 686//716 702//716 701//716
f 687//688 703//688 702//688
f 688//689 704//689 703//689
f 689//690 705//690 704//690
f 690//717 706//717 705//717
f 691//718 707//718 706//718
f 692//693 708//693 707//693
f 693//694 709//694 708//694
f 694//719 710//719 709//719
f 695//696 711//696 710//696
f 680//697 696//697 711//697
g C_Label.001_C_Label.001
v -0.340000 0.507600 0.596550
v 0.340000 0.507600 0.596550
v 0.340000 0.907600 0.596550
v -0.340000 0.907600 0.596550
v -0.340000 0.507600 0.566550
v 0.340000 0.507600 0.566550
v 0.340000 0.907600 0.566550
v -0.340000 0.907600 0.566550
vn -0.0000 -0.0000 1.0000
vn -0.0000 -0.0000 -1.0000
vn -1.0000 -0.0000 -0.0000
vn -0.0000 -1.0000 -0.0000
vn 1.0000 -0.0000 -0.0000
vn -0.0000 1.0000 -0.0000
vt 1.000000 0.000000
vt 0.000000 1.000000
vt 0.000000 0.000000
vt 1.000000 1.000000
s 0
g C_Label.001_potion_label
usemtl potion_label
f 714/1/720 716/2/720 713/3/720
f 720/2/721 718/1/721 717/3/721
f 716/2/722 717/3/722 713/3/722
f 713/3/723 718/1/723 714/1/723
f 714/1/724 719/4/724 715/4/724
f 715/4/725 720/2/725 716/2/725
f 714/1/720 715/4/720 716/2/720
f 720/2/721 719/4/721 718/1/721
f 716/2/722 720/2/722 717/3/722
f 713/3/723 717/3/723 718/1/723
f 714/1/724 718/1/724 719/4/724
f 715/4/725 719/4/725 720/2/725
g S_Cork.001_S_Cork.001
v 0.000000 1.872000 0.000000
v 0.110400 1.872000 0.000000
v 0.078065 1.872000 -0.078065
v 0.000000 1.872000 -0.110400
v -0.078065 1.872000 -0.078065
v -0.110400 1.872000 -0.000000
v -0.078065 1.872000 0.078065
v -0.000000 1.872000 0.110400
v 0.078065 1.872000 0.078065
v 0.147200 2.074400 0.000000
v 0.104086 2.074400 -0.104086
v 0.000000 2.074400 -0.147200
v -0.104086 2.074400 -0.104086
v -0.147200 2.074400 -0.000000
v -0.104086 2.074400 0.104086
v -0.000000 2.074400 0.147200
v 0.104086 2.074400 0.104086
v 0.147200 2.184800 0.000000
v 0.104086 2.184800 -0.104086
v 0.000000 2.184800 -0.147200
v -0.104086 2.184800 -0.104086
v -0.147200 2.184800 -0.000000
v -0.104086 2.184800 0.104086
v -0.000000 2.184800 0.147200
v 0.104086 2.184800 0.104086
v 0.000000 2.184800 0.000000
vn -0.0000 -1.0000 -0.0000
vn 0.9111 -0.1657 -0.3774
vn 0.3774 -0.1657 -0.9111
vn -0.3774 -0.1657 -0.9111
vn -0.9111 -0.1657 -0.3774
vn -0.9111 -0.1657 0.3774
vn -0.3774 -0.1657 0.9111
vn 0.3774 -0.1657 0.9111
vn 0.9111 -0.1657 0.3774
vn 0.9239 -0.0000 -0.3827
vn 0.3827 -0.0000 -0.9239
vn -0.3827 -0.0000 -0.9239
vn -0.9239 -0.0000 -0.3827
vn -0.9239 -0.0000 0.3827
vn -0.3827 -0.0000 0.9239
vn 0.3827 -0.0000 0.9239
vn 0.9239 -0.0000 0.3827
vn -0.0000 1.0000 -0.0000
s 0
g S_Cork.001_potion_cork
usemtl potion_cork
f 721//726 723//726 722//726
f 721//726 724//726 723//726
f 721//726 725//726 724//726
f 721//726 726//726 725//726
f 721//726 727//726 726//726
f 721//726 728//726 727//726
f 721//726 729//726 728//726
f 721//726 722//726 729//726
f 723//727 730//727 722//727
f 724//728 731//728 723//728
f 725//729 732//729 724//729
f 726//730 733//730 725//730
f 727//731 734//731 726//731
f 728//732 735//732 727//732
f 729//733 736//733 728//733
f 722//734 737//734 729//734
f 731//735 738//735 730//735
f 732//736 739//736 731//736
f 733//737 740//737 732//737
f 734//738 741//738 733//738
f 735//739 742//739 734//739
f 736//740 743//740 735//740
f 737//741 744//741 736//741
f 730//742 745//742 737//742
f 738//743 739//743 746//743
f 739//743 740//743 746//743
f 740//743 741//743 746//743
f 741//743 742//743 746//743
f 742//743 743//743 746//743
f 743//743 744//743 746//743
f 744//743 745//743 746//743
f 745//743 738//743 746//743
f 723//727 731//727 730//727
f 724//728 732//728 731//728
f 725//729 733//729 732//729
f 726//730 734//730 733//730
f 727//731 735//731 734//731
f 728//732 736//732 735//732
f 729//733 737//733 736//733
f 722//734 730//734 737//734
f 731//735 739//735 738//735
f 732//736 740//736 739//736
f 733//737 741//737 740//737
f 734//738 742//738 741//738
f 735//739 743//739 742//739
f 736//740 744//740 743//740
f 737//741 745//741 744//741
f 730//742 738//742 745//742
