# Blender 5.2.2 LTS
# www.blender.org
mtllib remedy.mtl
g A_Flask.001_A_Flask.001
v 0.000000 0.024300 0.000000
v 0.544000 0.016200 0.000000
v 0.502590 0.016200 -0.208180
v 0.384666 0.016200 -0.384666
v 0.208180 0.016200 -0.502590
v 0.000000 0.016200 -0.544000
v -0.208180 0.016200 -0.502590
v -0.384666 0.016200 -0.384666
v -0.502590 0.016200 -0.208180
v -0.544000 0.016200 -0.000000
v -0.502590 0.016200 0.208180
v -0.384666 0.016200 0.384666
v -0.208180 0.016200 0.502590
v -0.000000 0.016200 0.544000
v 0.208180 0.016200 0.502590
v 0.384666 0.016200 0.384666
v 0.502590 0.016200 0.208180
v 0.299200 1.304249 0.264063
v 0.598400 0.081000 0.000000
v 0.552850 0.081000 -0.228998
v 0.423133 0.081000 -0.423133
v 0.299200 1.304249 -0.264063
v 0.228998 0.081000 -0.552850
v 0.000000 0.081000 -0.598400
v -0.228998 0.081000 -0.552850
v -0.423133 0.081000 -0.423133
v -0.552850 0.081000 -0.228998
v -0.598400 0.081000 -0.000000
v -0.552850 0.081000 0.228998
v -0.423133 0.081000 0.423133
v -0.228998 0.081000 0.552850
v -0.000000 0.081000 0.598400
v 0.228998 0.081000 0.552850
v 0.423133 0.081000 0.423133
v 0.552850 0.081000 0.228998
v 0.598400 1.093500 0.000000
v 0.552850 1.093500 -0.228998
v 0.423133 1.093500 -0.423133
v 0.228998 1.093500 -0.552850
v 0.000000 1.093500 -0.598400
v -0.228998 1.093500 -0.552850
v -0.423133 1.093500 -0.423133
v -0.552850 1.093500 -0.228998
v -0.598400 1.093500 -0.000000
v -0.552850 1.093500 0.228998
v -0.423133 1.093500 0.423133
v -0.228998 1.093500 0.552850
v -0.000000 1.093500 0.598400
v 0.228998 1.093500 0.552850
v 0.423133 1.093500 0.423133
v 0.552850 1.093500 0.228998
v 0.326966 1.296000 -0.326966
v 0.176953 1.296000 -0.427202
v 0.000000 1.296000 -0.462400
v -0.176953 1.296000 -0.427202
v -0.326966 1.296000 -0.326966
v -0.427202 1.296000 -0.176953
v -0.462400 1.296000 -0.000000
v -0.427202 1.296000 0.176953
v -0.326966 1.296000 0.326966
v -0.176953 1.296000 0.427202
v -0.000000 1.296000 0.462400
v 0.176953 1.296000 0.427202
v 0.326966 1.296000 0.326966
v 0.204000 1.498500 0.000000
v 0.188471 1.498500 -0.078067
v 0.144250 1.498500 -0.144250
v 0.078067 1.498500 -0.188471
v 0.000000 1.498500 -0.204000
v -0.078067 1.498500 -0.188471
v -0.144250 1.498500 -0.144250
v -0.188471 1.498500 -0.078067
v -0.204000 1.498500 -0.000000
v -0.188471 1.498500 0.078067
v -0.144250 1.498500 0.144250
v -0.078067 1.498500 0.188471
v -0.000000 1.498500 0.204000
v 0.078067 1.498500 0.188471
v 0.144250 1.498500 0.144250
v 0.188471 1.498500 0.078067
v 0.190400 1.741500 0.000000
v 0.175907 1.741500 -0.072863
v 0.134633 1.741500 -0.134633
v 0.072863 1.741500 -0.175907
v 0.000000 1.741500 -0.190400
v -0.072863 1.741500 -0.175907
v -0.134633 1.741500 -0.134633
v -0.175907 1.741500 -0.072863
v -0.190400 1.741500 -0.000000
v -0.175907 1.741500 0.072863
v -0.134633 1.741500 0.134633
v -0.072863 1.741500 0.175907
v -0.000000 1.741500 0.190400
v 0.072863 1.741500 0.175907
v 0.134633 1.741500 0.134633
v 0.175907 1.741500 0.072863
v 0.244800 1.757700 0.000000
v 0.226166 1.757700 -0.093681
v 0.173100 1.757700 -0.173100
v 0.093681 1.757700 -0.226166
v 0.000000 1.757700 -0.244800
v -0.093681 1.757700 -0.226166
v -0.173100 1.757700 -0.173100
v -0.226166 1.757700 -0.093681
v -0.244800 1.757700 -0.000000
v -0.226166 1.757700 0.093681
v -0.173100 1.757700 0.173100
v -0.093681 1.757700 0.226166
v -0.000000 1.757700 0.244800
v 0.093681 1.757700 0.226166
v 0.173100 1.757700 0.173100
v 0.226166 1.757700 0.093681
v 0.244800 1.838700 0.000000
v 0.226166 1.838700 -0.093681
v 0.173100 1.838700 -0.173100
v 0.093681 1.838700 -0.226166
v 0.000000 1.838700 -0.244800
v -0.093681 1.838700 -0.226166
v -0.173100 1.838700 -0.173100
v -0.226166 1.838700 -0.093681
v -0.244800 1.838700 -0.000000
v -0.226166 1.838700 0.093681
v -0.173100 1.838700 0.173100
v -0.093681 1.838700 0.226166
v -0.000000 1.838700 0.244800
v 0.093681 1.838700 0.226166
v 0.173100 1.838700 0.173100
v 0.226166 1.838700 0.093681
v 0.190400 1.863000 0.000000
v 0.175907 1.863000 -0.072863
v 0.134633 1.863000 -0.134633
v 0.072863 1.863000 -0.175907
v 0.000000 1.863000 -0.190400
v -0.072863 1.863000 -0.175907
v -0.134633 1.863000 -0.134633
v -0.175907 1.863000 -0.072863
v -0.190400 1.863000 -0.000000
v -0.175907 1.863000 0.072863
v -0.134633 1.863000 0.134633
v -0.072863 1.863000 0.175907
v -0.000000 1.863000 0.190400
v 0.072863 1.863000 0.175907
v 0.134633 1.863000 0.134633
v 0.175907 1.863000 0.072863
v 0.000000 0.064813 0.000000
v 0.498233 0.056427 0.000000
v 0.460307 0.056427 -0.190666
v 0.352304 0.056427 -0.352304
v 0.190666 0.056427 -0.460307
v 0.000000 0.056427 -0.498233
v -0.190666 0.056427 -0.460307
v -0.352304 0.056427 -0.352304
v -0.460307 0.056427 -0.190666
v -0.498233 0.056427 -0.000000
v -0.460307 0.056427 0.190666
v -0.352304 0.056427 0.352304
v -0.190666 0.056427 0.460307
v -0.000000 0.056427 0.498233
v 0.190666 0.056427 0.460307
v 0.352304 0.056427 0.352304
v 0.460307 0.056427 0.190666
v 0.529098 0.090470 0.000000
v 0.488823 0.090470 -0.202477
v 0.374129 0.090470 -0.374129
v 0.202477 0.090470 -0.488823
v 0.000000 0.090470 -0.529098
v -0.202477 0.090470 -0.488823
v -0.374129 0.090470 -0.374129
v -0.488823 0.090470 -0.202477
v -0.529098 0.090470 -0.000000
v -0.488823 0.090470 0.202477
v -0.374129 0.090470 0.374129
v -0.202477 0.090470 0.488823
v -0.000000 0.090470 0.529098
v 0.202477 0.090470 0.488823
v 0.374129 0.090470 0.374129
v 0.488823 0.090470 0.202477
v 0.529102 1.085735 0.000000
v 0.488827 1.085735 -0.202479
v 0.374132 1.085735 -0.374132
v 0.202479 1.085735 -0.488827
v 0.000000 1.085735 -0.529102
v -0.202479 1.085735 -0.488827
v -0.374132 1.085735 -0.374132
v -0.488827 1.085735 -0.202479
v -0.529102 1.085735 -0.000000
v -0.488827 1.085735 0.202479
v -0.374132 1.085735 0.374132
v -0.202479 1.085735 0.488827
v -0.000000 1.085735 0.529102
v 0.202479 1.085735 0.488827
v 0.374132 1.085735 0.374132
v 0.488827 1.085735 0.202479
v 0.283929 1.275860 -0.283929
v 0.153661 1.275860 -0.370971
v 0.000000 1.275860 -0.401536
v -0.153661 1.275860 -0.370971
v -0.283929 1.275860 -0.283929
v -0.370971 1.275860 -0.153661
v -0.401536 1.275860 -0.000000
v -0.370971 1.275860 0.153661
v -0.283929 1.275860 0.283929
v -0.153661 1.275860 0.370971
v -0.000000 1.275860 0.401536
v 0.153661 1.275860 0.370971
v 0.283929 1.275860 0.283929
v 0.135982 1.483486 0.000000
v 0.125631 1.483486 -0.052038
v 0.096154 1.483486 -0.096154
v 0.052038 1.483486 -0.125631
v 0.000000 1.483486 -0.135982
v -0.052038 1.483486 -0.125631
v -0.096154 1.483486 -0.096154
v -0.125631 1.483486 -0.052038
v -0.135982 1.483486 -0.000000
v -0.125631 1.483486 0.052038
v -0.096154 1.483486 0.096154
v -0.052038 1.483486 0.125631
v -0.000000 1.483486 0.135982
v 0.052038 1.483486 0.125631
v 0.096154 1.483486 0.096154
v 0.125631 1.483486 0.052038
v 0.121560 1.768036 0.000000
v 0.112307 1.768036 -0.046519
v 0.085956 1.768036 -0.085956
v 0.046519 1.768036 -0.112307
v 0.000000 1.768036 -0.121560
v -0.046519 1.768036 -0.112307
v -0.085956 1.768036 -0.085956
v -0.112307 1.768036 -0.046519
v -0.121560 1.768036 -0.000000
v -0.112307 1.768036 0.046519
v -0.085956 1.768036 0.085956
v -0.046519 1.768036 0.112307
v -0.000000 1.768036 0.121560
v 0.046519 1.768036 0.112307
v 0.085956 1.768036 0.085956
v 0.112307 1.768036 0.046519
v 0.174588 1.781744 0.000000
v 0.161298 1.781744 -0.066812
v 0.123452 1.781744 -0.123452
v 0.066812 1.781744 -0.161298
v 0.000000 1.781744 -0.174588
v -0.066812 1.781744 -0.161298
v -0.123452 1.781744 -0.123452
v -0.161298 1.781744 -0.066812
v -0.174588 1.781744 -0.000000
v -0.161298 1.781744 0.066812
v -0.123452 1.781744 0.123452
v -0.066812 1.781744 0.161298
v -0.000000 1.781744 0.174588
v 0.066812 1.781744 0.161298
v 0.123452 1.781744 0.123452
v 0.161298 1.781744 0.066812
v 0.175072 1.819124 0.000000
v 0.161745 1.819124 -0.066997
v 0.123795 1.819124 -0.123795
v 0.066997 1.819124 -0.161745
v 0.000000 1.819124 -0.175072
v -0.066997 1.819124 -0.161745
v -0.123795 1.819124 -0.123795
v -0.161745 1.819124 -0.066997
v -0.175072 1.819124 -0.000000
v -0.161745 1.819124 0.066997
v -0.123795 1.819124 0.123795
v -0.066997 1.819124 0.161745
v -0.000000 1.819124 0.175072
v 0.066997 1.819124 0.161745
v 0.123795 1.819124 0.123795
v 0.161745 1.819124 0.066997
v 0.149311 1.830370 0.000000
v 0.137945 1.830370 -0.057139
v 0.105578 1.830370 -0.105578
v 0.057139 1.830370 -0.137945
v 0.000000 1.830370 -0.149310
v -0.057139 1.830370 -0.137945
v -0.105579 1.830370 -0.105578
v -0.137945 1.830370 -0.057139
v -0.149311 1.830370 -0.000000
v -0.137945 1.830370 0.057139
v -0.105578 1.830370 0.105578
v -0.057139 1.830370 0.137945
v -0.000000 1.830370 0.149310
v 0.057139 1.830370 0.137945
v 0.105579 1.830370 0.105578
v 0.137945 1.830370 0.057139
v 0.517426 1.184195 -0.100863
v 0.456336 1.249045 -0.189021
v 0.537489 1.184195 0.000000
v 0.376489 1.296000 -0.252850
v 0.456336 1.249045 0.189021
v 0.376489 1.296000 0.252850
v 0.517426 1.184195 0.100863
v 0.299200 1.404576 -0.123933
v 0.299200 1.423895 0.000000
v 0.299200 1.337617 -0.274771
v 0.356581 1.304249 -0.264063
v 0.299200 1.337617 0.274771
v 0.356581 1.304249 0.264063
v 0.299200 1.404576 0.123933
v 0.463040 1.184195 0.000000
v 0.442977 1.184195 -0.100863
v 0.398515 1.231427 -0.165070
v 0.322989 1.275860 -0.225471
v 0.322989 1.275860 0.225471
v 0.398515 1.231427 0.165070
v 0.442977 1.184195 0.100863
v 0.299200 1.355872 0.000000
v 0.299200 1.336598 -0.123933
v 0.299200 1.285702 -0.238851
v 0.299200 1.285702 0.238851
v 0.299200 1.336598 0.123933
vn -0.0149 -0.9999 0.0030
vn -0.0126 -0.9999 0.0084
vn -0.0084 -0.9999 0.0126
vn -0.0030 -0.9999 0.0149
vn 0.0030 -0.9999 0.0149
vn 0.0084 -0.9999 0.0126
vn 0.0126 -0.9999 0.0084
vn 0.0149 -0.9999 0.0030
vn 0.0149 -0.9999 -0.0030
vn 0.0126 -0.9999 -0.0084
vn 0.0084 -0.9999 -0.0126
vn 0.0030 -0.9999 -0.0149
vn -0.0030 -0.9999 -0.0149
vn -0.0084 -0.9999 -0.0126
vn -0.0126 -0.9999 -0.0084
vn -0.0149 -0.9999 -0.0030
vn 0.7572 -0.6356 -0.1506
vn 0.6419 -0.6356 -0.4289
vn 0.4289 -0.6356 -0.6419
vn 0.1506 -0.6356 -0.7572
vn -0.1506 -0.6356 -0.7572
vn -0.4289 -0.6356 -0.6419
vn -0.6419 -0.6356 -0.4289
vn -0.7572 -0.6356 -0.1506
vn -0.7572 -0.6356 0.1506
vn -0.6419 -0.6356 0.4289
vn -0.4289 -0.6356 0.6419
vn -0.1506 -0.6356 0.7572
vn 0.1506 -0.6356 0.7572
vn 0.4289 -0.6356 0.6419
vn 0.6419 -0.6356 0.4289
vn 0.7572 -0.6356 0.1506
vn 0.9808 -0.0000 -0.1951
vn 0.8315 -0.0000 -0.5556
vn 0.5556 -0.0000 -0.8315
vn 0.1951 -0.0000 -0.9808
vn -0.1951 -0.0000 -0.9808
vn -0.5556 -0.0000 -0.8315
vn -0.8315 -0.0000 -0.5556
vn -0.9808 -0.0000 -0.1951
vn -0.9808 -0.0000 0.1951
vn -0.8315 -0.0000 0.5556
vn -0.5556 -0.0000 0.8315
vn -0.1951 -0.0000 0.9808
vn 0.1951 -0.0000 0.9808
vn 0.5556 -0.0000 0.8315
vn 0.8315 -0.0000 0.5556
vn 0.9808 -0.0000 0.1951
vn 0.8191 0.5501 -0.1629
vn 0.6944 0.5501 -0.4640
vn 0.4640 0.5501 -0.6944
vn 0.1629 0.5501 -0.8191
vn -0.1629 0.5501 -0.8191
vn -0.4640 0.5501 -0.6944
vn -0.6944 0.5501 -0.4640
vn -0.8191 0.5501 -0.1629
vn -0.8191 0.5501 0.1629
vn -0.6944 0.5501 0.4640
vn -0.4640 0.5501 0.6944
vn -0.1629 0.5501 0.8191
vn 0.1629 0.5501 0.8191
vn 0.4640 0.5501 0.6944
vn 0.6944 0.5501 0.4640
vn 0.8191 0.5501 0.1629
vn 0.6122 0.7812 -0.1218
vn 0.5190 0.7812 -0.3468
vn 0.3468 0.7812 -0.5190
vn 0.1218 0.7812 -0.6122
vn -0.1218 0.7812 -0.6122
vn -0.3468 0.7812 -0.5190
vn -0.5190 0.7812 -0.3468
vn -0.6122 0.7812 -0.1218
vn -0.6122 0.7812 0.1218
vn -0.5190 0.7812 0.3468
vn -0.3468 0.7812 0.5190
vn -0.1218 0.7812 0.6122
vn 0.1218 0.7812 0.6122
vn 0.3468 0.7812 0.5190
vn 0.5190 0.7812 0.3468
vn 0.6122 0.7812 0.1218
vn 0.9793 0.0548 -0.1948
vn 0.8302 0.0548 -0.5547
vn 0.5547 0.0548 -0.8302
vn 0.1948 0.0548 -0.9793
vn -0.1948 0.0548 -0.9793
vn -0.5547 0.0548 -0.8302
vn -0.8302 0.0548 -0.5547
vn -0.9793 0.0548 -0.1948
vn -0.9793 0.0548 0.1948
vn -0.8302 0.0548 0.5547
vn -0.5547 0.0548 0.8302
vn -0.1948 0.0548 0.9793
vn 0.1948 0.0548 0.9793
vn 0.5547 0.0548 0.8302
vn 0.8302 0.0548 0.5547
vn 0.9793 0.0548 0.1948
vn 0.2849 -0.9569 -0.0567
vn 0.2416 -0.9569 -0.1614
vn 0.1614 -0.9569 -0.2416
vn 0.0567 -0.9569 -0.2849
vn -0.0567 -0.9569 -0.2849
vn -0.1614 -0.9569 -0.2416
vn -0.2416 -0.9569 -0.1614
vn -0.2849 -0.9569 -0.0567
vn -0.2849 -0.9569 0.0567
vn -0.2416 -0.9569 0.1614
vn -0.1614 -0.9569 0.2416
vn -0.0567 -0.9569 0.2849
vn 0.0567 -0.9569 0.2849
vn 0.1614 -0.9569 0.2416
vn 0.2416 -0.9569 0.1614
vn 0.2849 -0.9569 0.0567
vn 0.4065 0.9101 -0.0809
vn 0.3446 0.9101 -0.2303
vn 0.2303 0.9101 -0.3446
vn 0.0809 0.9101 -0.4065
vn -0.0809 0.9101 -0.4065
vn -0.2303 0.9101 -0.3446
vn -0.3446 0.9101 -0.2303
vn -0.4065 0.9101 -0.0809
vn -0.4065 0.9101 0.0809
vn -0.3446 0.9101 0.2303
vn -0.2303 0.9101 0.3446
vn -0.0809 0.9101 0.4065
vn 0.0809 0.9101 0.4065
vn 0.2303 0.9101 0.3446
vn 0.3446 0.9101 0.2303
vn 0.4065 0.9101 0.0809
vn 0.0168 0.9999 -0.0033
vn 0.0143 0.9999 -0.0095
vn 0.0095 0.9999 -0.0143
vn 0.0033 0.9999 -0.0168
vn -0.0033 0.9999 -0.0168
vn -0.0095 0.9999 -0.0143
vn -0.0143 0.9999 -0.0095
vn -0.0168 0.9999 -0.0033
vn -0.0168 0.9999 0.0033
vn -0.0143 0.9999 0.0095
vn -0.0095 0.9999 0.0143
vn -0.0033 0.9999 0.0168
vn 0.0033 0.9999 0.0168
vn 0.0095 0.9999 0.0143
vn 0.0143 0.9999 0.0095
vn 0.0168 0.9999 0.0033
vn -0.7329 0.6645 0.1458
vn -0.6213 0.6645 0.4152
vn -0.4152 0.6645 0.6213
vn -0.1458 0.6645 0.7329
vn 0.1458 0.6645 0.7329
vn 0.4152 0.6645 0.6213
vn 0.6213 0.6645 0.4152
vn 0.7329 0.6645 0.1458
vn 0.7329 0.6645 -0.1458
vn 0.6213 0.6645 -0.4152
vn 0.4152 0.6645 -0.6213
vn 0.1458 0.6645 -0.7329
vn -0.1458 0.6645 -0.7329
vn -0.4152 0.6645 -0.6213
vn -0.6213 0.6645 -0.4152
vn -0.7329 0.6645 -0.1458
vn -0.8193 -0.5497 0.1630
vn -0.6946 -0.5497 0.4641
vn -0.4641 -0.5497 0.6946
vn -0.1630 -0.5497 0.8193
vn 0.1630 -0.5497 0.8193
vn 0.4641 -0.5497 0.6946
vn 0.6946 -0.5497 0.4641
vn 0.8193 -0.5497 0.1630
vn 0.8193 -0.5497 -0.1630
vn 0.6946 -0.5497 -0.4641
vn 0.4641 -0.5497 -0.6946
vn 0.1630 -0.5497 -0.8193
vn -0.1630 -0.5497 -0.8193
vn -0.4641 -0.5497 -0.6946
vn -0.6946 -0.5497 -0.4641
vn -0.8193 -0.5497 -0.1630
vn -0.6114 -0.7819 0.1216
vn -0.5183 -0.7819 0.3463
vn -0.3463 -0.7819 0.5183
vn -0.1216 -0.7819 0.6114
vn 0.1216 -0.7819 0.6114
vn 0.3463 -0.7819 0.5183
vn 0.5183 -0.7819 0.3463
vn 0.6114 -0.7819 0.1216
vn 0.6114 -0.7819 -0.1216
vn 0.5183 -0.7819 -0.3463
vn 0.3463 -0.7819 -0.5183
vn 0.1216 -0.7819 -0.6114
vn -0.1216 -0.7819 -0.6114
vn -0.3463 -0.7819 -0.5183
vn -0.5183 -0.7819 -0.3463
vn -0.6114 -0.7819 -0.1216
vn -0.9796 -0.0496 0.1949
vn -0.8304 -0.0496 0.5549
vn -0.5549 -0.0496 0.8304
vn -0.1948 -0.0496 0.9796
vn 0.1948 -0.0496 0.9796
vn 0.5549 -0.0496 0.8304
vn 0.8304 -0.0496 0.5549
vn 0.9796 -0.0496 0.1949
vn 0.9796 -0.0496 -0.1949
vn 0.8304 -0.0496 -0.5549
vn 0.5549 -0.0496 -0.8304
vn 0.1948 -0.0496 -0.9796
vn -0.1948 -0.0496 -0.9796
vn -0.5549 -0.0496 -0.8304
vn -0.8304 -0.0496 -0.5549
vn -0.9796 -0.0496 -0.1949
vn -0.2500 0.9670 0.0497
vn -0.2119 0.9670 0.1416
vn -0.1416 0.9670 0.2119
vn -0.0497 0.9670 0.2500
vn 0.0497 0.9670 0.2500
vn 0.1416 0.9670 0.2119
vn 0.2119 0.9670 0.1416
vn 0.2500 0.9670 0.0497
vn 0.2500 0.9670 -0.0497
vn 0.2119 0.9670 -0.1416
vn 0.1416 0.9670 -0.2119
vn 0.0497 0.9670 -0.2500
vn -0.0497 0.9670 -0.2500
vn -0.1416 0.9670 -0.2119
vn -0.2119 0.9670 -0.1416
vn -0.2500 0.9670 -0.0497
vn -0.9807 0.0127 0.1951
vn -0.8314 0.0127 0.5555
vn -0.5555 0.0127 0.8314
vn -0.1951 0.0127 0.9807
vn 0.1951 0.0127 0.9807
vn 0.5555 0.0127 0.8314
vn 0.8314 0.0127 0.5555
vn 0.9807 0.0127 0.1951
vn 0.9807 0.0127 -0.1951
vn 0.8314 0.0127 -0.5555
vn 0.5555 0.0127 -0.8314
vn 0.1951 0.0127 -0.9807
vn -0.1951 0.0127 -0.9807
vn -0.5555 0.0127 -0.8314
vn -0.8314 0.0127 -0.5555
vn -0.9807 0.0127 -0.1951
vn -0.3988 -0.9136 0.0793
vn -0.3381 -0.9136 0.2259
vn -0.2259 -0.9136 0.3381
vn -0.0793 -0.9136 0.3988
vn 0.0793 -0.9136 0.3988
vn 0.2259 -0.9136 0.3381
vn 0.3381 -0.9136 0.2259
vn 0.3988 -0.9136 0.0793
vn 0.3988 -0.9136 -0.0793
vn 0.3381 -0.9136 -0.2259
vn 0.2259 -0.9136 -0.3381
vn 0.0793 -0.9136 -0.3988
vn -0.0793 -0.9136 -0.3988
vn -0.2259 -0.9136 -0.3381
vn -0.3381 -0.9136 -0.2259
vn -0.3988 -0.9136 -0.0793
vn -0.6172 0.7772 0.1228
vn -0.5232 0.7772 0.3496
vn -0.3496 0.7772 0.5232
vn -0.1228 0.7772 0.6172
vn 0.1228 0.7772 0.6172
vn 0.3496 0.7772 0.5232
vn 0.5232 0.7772 0.3496
vn 0.6172 0.7772 0.1228
vn 0.6172 0.7772 -0.1228
vn 0.5232 0.7772 -0.3496
vn 0.3496 0.7772 -0.5232
vn 0.1228 0.7772 -0.6172
vn -0.1228 0.7772 -0.6172
vn -0.3496 0.7772 -0.5232
vn -0.5232 0.7772 -0.3496
vn -0.6172 0.7772 -0.1228
vn -0.0000 0.3056 -0.9522
vn -0.0000 0.8055 -0.5926
vn -0.0000 1.0000 -0.0000
vn -0.0000 0.8055 0.5926
vn -0.0000 0.3056 0.9522
vn 1.0000 -0.0000 -0.0000
vn 0.2850 -0.9569 -0.0567
vn -0.2850 -0.9569 -0.0567
vn -0.2850 -0.9569 0.0567
vn 0.2850 -0.9569 0.0567
vn -0.9796 -0.0496 0.1948
vn 0.9796 -0.0496 0.1948
vn 0.9796 -0.0496 -0.1948
vn -0.9796 -0.0496 -0.1948
s 0
g A_Flask.001_remedy_glass
usemtl remedy_glass
f 1//1 3//1 2//1
f 1//2 4//2 3//2
f 1//3 5//3 4//3
f 1//4 6//4 5//4
f 1//5 7//5 6//5
f 1//6 8//6 7//6
f 1//7 9//7 8//7
f 1//8 10//8 9//8
f 1//9 11//9 10//9
f 1//10 12//10 11//10
f 1//11 13//11 12//11
f 1//12 14//12 13//12
f 1//13 15//13 14//13
f 1//14 16//14 15//14
f 1//15 17//15 16//15
f 1//16 2//16 17//16
f 3//17 19//17 2//17
f 4//18 20//18 3//18
f 5//19 21//19 4//19
f 5//20 24//20 23//20
f 7//21 24//21 6//21
f 8//22 25//22 7//22
f 9//23 26//23 8//23
f 9//24 28//24 27//24
f 11//25 28//25 10//25
f 12//26 29//26 11//26
f 13//27 30//27 12//27
f 13//28 32//28 31//28
f 15//29 32//29 14//29
f 16//30 33//30 15//30
f 17//31 34//31 16//31
f 17//32 19//32 35//32
f 20//33 36//33 19//33
f 21//34 37//34 20//34
f 23//35 38//35 21//35
f 24//36 39//36 23//36
f 25//37 40//37 24//37
f 26//38 41//38 25//38
f 27//39 42//39 26//39
f 28//40 43//40 27//40
f 29//41 44//41 28//41
f 30//42 45//42 29//42
f 31//43 46//43 30//43
f 32//44 47//44 31//44
f 33//45 48//45 32//45
f 34//46 49//46 33//46
f 35//47 50//47 34//47
f 19//48 51//48 35//48
f 36//49 288//49 287//49
f 38//50 290//50 288//50
f 38//51 53//51 52//51
f 40//52 53//52 39//52
f 41//53 54//53 40//53
f 41//54 56//54 55//54
f 42//55 57//55 56//55
f 44//56 57//56 43//56
f 45//57 58//57 44//57
f 45//58 60//58 59//58
f 46//59 61//59 60//59
f 48//60 61//60 47//60
f 49//61 62//61 48//61
f 49//62 64//62 63//62
f 64//63 51//63 291//63
f 51//64 289//64 293//64
f 66//65 295//65 294//65
f 52//66 66//66 296//66
f 53//67 67//67 52//67
f 54//68 68//68 53//68
f 55//69 69//69 54//69
f 56//70 70//70 55//70
f 57//71 71//71 56//71
f 58//72 72//72 57//72
f 59//73 73//73 58//73
f 60//74 74//74 59//74
f 61//75 75//75 60//75
f 62//76 76//76 61//76
f 63//77 77//77 62//77
f 64//78 78//78 63//78
f 64//79 299//79 298//79
f 295//80 80//80 300//80
f 66//81 81//81 65//81
f 67//82 82//82 66//82
f 68//83 83//83 67//83
f 69//84 84//84 68//84
f 70//85 85//85 69//85
f 71//86 86//86 70//86
f 72//87 87//87 71//87
f 73//88 88//88 72//88
f 74//89 89//89 73//89
f 75//90 90//90 74//90
f 76//91 91//91 75//91
f 77//92 92//92 76//92
f 78//93 93//93 77//93
f 79//94 94//94 78//94
f 80//95 95//95 79//95
f 65//96 96//96 80//96
f 82//97 97//97 81//97
f 82//98 99//98 98//98
f 83//99 100//99 99//99
f 85//100 100//100 84//100
f 86//101 101//101 85//101
f 86//102 103//102 102//102
f 87//103 104//103 103//103
f 89//104 104//104 88//104
f 90//105 105//105 89//105
f 90//106 107//106 106//106
f 91//107 108//107 107//107
f 93//108 108//108 92//108
f 94//109 109//109 93//109
f 94//110 111//110 110//110
f 95//111 112//111 111//111
f 81//112 112//112 96//112
f 98//33 113//33 97//33
f 99//34 114//34 98//34
f 100//35 115//35 99//35
f 101//36 116//36 100//36
f 102//37 117//37 101//37
f 103//38 118//38 102//38
f 104//39 119//39 103//39
f 105//40 120//40 104//40
f 106//41 121//41 105//41
f 107//42 122//42 106//42
f 108//43 123//43 107//43
f 109//44 124//44 108//44
f 110//45 125//45 109//45
f 111//46 126//46 110//46
f 112//47 127//47 111//47
f 97//48 128//48 112//48
f 114//113 129//113 113//113
f 115//114 130//114 114//114
f 116//115 131//115 115//115
f 116//116 133//116 132//116
f 118//117 133//117 117//117
f 119//118 134//118 118//118
f 120//119 135//119 119//119
f 120//120 137//120 136//120
f 122//121 137//121 121//121
f 123//122 138//122 122//122
f 124//123 139//123 123//123
f 124//124 141//124 140//124
f 126//125 141//125 125//125
f 127//126 142//126 126//126
f 128//127 143//127 127//127
f 128//128 129//128 144//128
f 145//129 146//129 147//129
f 145//130 147//130 148//130
f 145//131 148//131 149//131
f 145//132 149//132 150//132
f 145//133 150//133 151//133
f 145//134 151//134 152//134
f 145//135 152//135 153//135
f 145//136 153//136 154//136
f 145//137 154//137 155//137
f 145//138 155//138 156//138
f 145//139 156//139 157//139
f 145//140 157//140 158//140
f 145//141 158//141 159//141
f 145//142 159//142 160//142
f 145//143 160//143 161//143
f 145//144 161//144 146//144
f 162//145 147//145 146//145
f 163//146 148//146 147//146
f 164//147 149//147 148//147
f 165//148 150//148 149//148
f 150//149 167//149 151//149
f 167//150 152//150 151//150
f 168//151 153//151 152//151
f 169//152 154//152 153//152
f 170//153 155//153 154//153
f 171//154 156//154 155//154
f 172//155 157//155 156//155
f 173//156 158//156 157//156
f 158//157 175//157 159//157
f 175//158 160//158 159//158
f 176//159 161//159 160//159
f 177//160 146//160 161//160
f 178//41 163//41 162//41
f 179//42 164//42 163//42
f 180//43 165//43 164//43
f 165//44 182//44 166//44
f 166//45 183//45 167//45
f 183//46 168//46 167//46
f 184//47 169//47 168//47
f 185//48 170//48 169//48
f 186//33 171//33 170//33
f 187//34 172//34 171//34
f 188//35 173//35 172//35
f 173//36 190//36 174//36
f 174//37 191//37 175//37
f 191//38 176//38 175//38
f 192//39 177//39 176//39
f 193//40 162//40 177//40
f 178//161 302//161 303//161
f 180//162 303//162 304//162
f 194//163 181//163 180//163
f 181//164 196//164 182//164
f 182//165 197//165 183//165
f 197//166 184//166 183//166
f 184//167 199//167 185//167
f 185//168 200//168 186//168
f 200//169 187//169 186//169
f 201//170 188//170 187//170
f 202//171 189//171 188//171
f 189//172 204//172 190//172
f 190//173 205//173 191//173
f 205//174 192//174 191//174
f 206//175 306//175 193//175
f 193//176 307//176 301//176
f 208//177 308//177 207//177
f 194//178 310//178 208//178
f 209//179 195//179 194//179
f 210//180 196//180 195//180
f 211//181 197//181 196//181
f 212//182 198//182 197//182
f 213//183 199//183 198//183
f 214//184 200//184 199//184
f 215//185 201//185 200//185
f 216//186 202//186 201//186
f 217//187 203//187 202//187
f 218//188 204//188 203//188
f 219//189 205//189 204//189
f 220//190 206//190 205//190
f 311//191 206//191 222//191
f 222//192 308//192 312//192
f 223//193 208//193 207//193
f 224//194 209//194 208//194
f 225//195 210//195 209//195
f 226//196 211//196 210//196
f 227//197 212//197 211//197
f 228//198 213//198 212//198
f 213//199 230//199 214//199
f 214//200 231//200 215//200
f 231//201 216//201 215//201
f 232//202 217//202 216//202
f 233//203 218//203 217//203
f 234//204 219//204 218//204
f 235//205 220//205 219//205
f 236//206 221//206 220//206
f 221//207 238//207 222//207
f 222//208 223//208 207//208
f 223//209 240//209 224//209
f 224//210 241//210 225//210
f 241//211 226//211 225//211
f 242//212 227//212 226//212
f 243//213 228//213 227//213
f 244//214 229//214 228//214
f 229//215 246//215 230//215
f 230//216 247//216 231//216
f 231//217 248//217 232//217
f 232//218 249//218 233//218
f 249//219 234//219 233//219
f 250//220 235//220 234//220
f 251//221 236//221 235//221
f 252//222 237//222 236//222
f 237//223 254//223 238//223
f 238//224 239//224 223//224
f 239//225 256//225 240//225
f 240//226 257//226 241//226
f 241//227 258//227 242//227
f 258//228 243//228 242//228
f 243//229 260//229 244//229
f 260//230 245//230 244//230
f 245//231 262//231 246//231
f 262//232 247//232 246//232
f 247//233 264//233 248//233
f 248//234 265//234 249//234
f 249//235 266//235 250//235
f 266//236 251//236 250//236
f 251//237 268//237 252//237
f 268//238 253//238 252//238
f 253//239 270//239 254//239
f 270//240 239//240 254//240
f 255//241 272//241 256//241
f 272//242 257//242 256//242
f 273//243 258//243 257//243
f 274//244 259//244 258//244
f 275//245 260//245 259//245
f 260//246 277//246 261//246
f 277//247 262//247 261//247
f 278//248 263//248 262//248
f 263//249 280//249 264//249
f 280//250 265//250 264//250
f 281//251 266//251 265//251
f 282//252 267//252 266//252
f 283//253 268//253 267//253
f 268//254 285//254 269//254
f 285//255 270//255 269//255
f 286//256 255//256 270//256
f 130//257 271//257 129//257
f 131//258 272//258 130//258
f 132//259 273//259 131//259
f 133//260 274//260 132//260
f 134//261 275//261 133//261
f 135//262 276//262 134//262
f 136//263 277//263 135//263
f 137//264 278//264 136//264
f 138//265 279//265 137//265
f 139//266 280//266 138//266
f 140//267 281//267 139//267
f 141//268 282//268 140//268
f 142//269 283//269 141//269
f 143//270 284//270 142//270
f 144//271 285//271 143//271
f 129//272 286//272 144//272
f 298//273 299//273 18//273
f 291//274 305//274 311//274
f 293//275 287//275 301//275
f 297//276 303//276 302//276
f 296//277 22//277 297//277
f 308//278 296//278 295//278
f 3//17 20//17 19//17
f 4//18 21//18 20//18
f 5//19 23//19 21//19
f 5//20 6//20 24//20
f 7//21 25//21 24//21
f 8//22 26//22 25//22
f 9//23 27//23 26//23
f 9//24 10//24 28//24
f 11//25 29//25 28//25
f 12//26 30//26 29//26
f 13//27 31//27 30//27
f 13//28 14//28 32//28
f 15//29 33//29 32//29
f 16//30 34//30 33//30
f 17//31 35//31 34//31
f 17//32 2//32 19//32
f 20//33 37//33 36//33
f 21//34 38//34 37//34
f 23//35 39//35 38//35
f 24//36 40//36 39//36
f 25//37 41//37 40//37
f 26//38 42//38 41//38
f 27//39 43//39 42//39
f 28//40 44//40 43//40
f 29//41 45//41 44//41
f 30//42 46//42 45//42
f 31//43 47//43 46//43
f 32//44 48//44 47//44
f 33//45 49//45 48//45
f 34//46 50//46 49//46
f 35//47 51//47 50//47
f 19//48 36//48 51//48
f 287//49 289//49 36//49
f 36//49 37//49 288//49
f 288//50 37//50 38//50
f 38//50 52//50 290//50
f 38//51 39//51 53//51
f 40//52 54//52 53//52
f 41//53 55//53 54//53
f 41//54 42//54 56//54
f 42//55 43//55 57//55
f 44//56 58//56 57//56
f 45//57 59//57 58//57
f 45//58 46//58 60//58
f 46//59 47//59 61//59
f 48//60 62//60 61//60
f 49//61 63//61 62//61
f 49//62 50//62 64//62
f 291//63 292//63 64//63
f 64//63 50//63 51//63
f 293//64 291//64 51//64
f 51//64 36//64 289//64
f 66//65 65//65 295//65
f 297//66 290//66 52//66
f 52//66 67//66 66//66
f 66//66 294//66 296//66
f 296//66 297//66 52//66
f 53//67 68//67 67//67
f 54//68 69//68 68//68
f 55//69 70//69 69//69
f 56//70 71//70 70//70
f 57//71 72//71 71//71
f 58//72 73//72 72//72
f 59//73 74//73 73//73
f 60//74 75//74 74//74
f 61//75 76//75 75//75
f 62//76 77//76 76//76
f 63//77 78//77 77//77
f 64//78 79//78 78//78
f 298//79 300//79 80//79
f 80//79 79//79 64//79
f 64//79 292//79 299//79
f 298//79 80//79 64//79
f 295//80 65//80 80//80
f 66//81 82//81 81//81
f 67//82 83//82 82//82
f 68//83 84//83 83//83
f 69//84 85//84 84//84
f 70//85 86//85 85//85
f 71//86 87//86 86//86
f 72//87 88//87 87//87
f 73//88 89//88 88//88
f 74//89 90//89 89//89
f 75//90 91//90 90//90
f 76//91 92//91 91//91
f 77//92 93//92 92//92
f 78//93 94//93 93//93
f 79//94 95//94 94//94
f 80//95 96//95 95//95
f 65//96 81//96 96//96
f 82//279 98//279 97//279
f 82//98 83//98 99//98
f 83//99 84//99 100//99
f 85//100 101//100 100//100
f 86//101 102//101 101//101
f 86//102 87//102 103//102
f 87//103 88//103 104//103
f 89//280 105//280 104//280
f 90//281 106//281 105//281
f 90//106 91//106 107//106
f 91//107 92//107 108//107
f 93//108 109//108 108//108
f 94//109 110//109 109//109
f 94//110 95//110 111//110
f 95//111 96//111 112//111
f 81//282 97//282 112//282
f 98//33 114//33 113//33
f 99//34 115//34 114//34
f 100//35 116//35 115//35
f 101//36 117//36 116//36
f 102//37 118//37 117//37
f 103//38 119//38 118//38
f 104//39 120//39 119//39
f 105//40 121//40 120//40
f 106//41 122//41 121//41
f 107//42 123//42 122//42
f 108//43 124//43 123//43
f 109//44 125//44 124//44
f 110//45 126//45 125//45
f 111//46 127//46 126//46
f 112//47 128//47 127//47
f 97//48 113//48 128//48
f 114//113 130//113 129//113
f 115//114 131//114 130//114
f 116//115 132//115 131//115
f 116//116 117//116 133//116
f 118//117 134//117 133//117
f 119//118 135//118 134//118
f 120//119 136//119 135//119
f 120//120 121//120 137//120
f 122//121 138//121 137//121
f 123//122 139//122 138//122
f 124//123 140//123 139//123
f 124//124 125//124 141//124
f 126//125 142//125 141//125
f 127//126 143//126 142//126
f 128//127 144//127 143//127
f 128//128 113//128 129//128
f 162//145 163//145 147//145
f 163//146 164//146 148//146
f 164//147 165//147 149//147
f 165//148 166//148 150//148
f 150//149 166//149 167//149
f 167//150 168//150 152//150
f 168//151 169//151 153//151
f 169//152 170//152 154//152
f 170//153 171//153 155//153
f 171//154 172//154 156//154
f 172//155 173//155 157//155
f 173//156 174//156 158//156
f 158//157 174//157 175//157
f 175//158 176//158 160//158
f 176//159 177//159 161//159
f 177//160 162//160 146//160
f 178//41 179//41 163//41
f 179//42 180//42 164//42
f 180//43 181//43 165//43
f 165//44 181//44 182//44
f 166//45 182//45 183//45
f 183//46 184//46 168//46
f 184//47 185//47 169//47
f 185//48 186//48 170//48
f 186//33 187//33 171//33
f 187//34 188//34 172//34
f 188//35 189//35 173//35
f 173//36 189//36 190//36
f 174//37 190//37 191//37
f 191//38 192//38 176//38
f 192//39 193//39 177//39
f 193//40 178//40 162//40
f 303//161 179//161 178//161
f 178//161 301//161 302//161
f 304//162 194//162 180//162
f 180//162 179//162 303//162
f 194//163 195//163 181//163
f 181//164 195//164 196//164
f 182//165 196//165 197//165
f 197//166 198//166 184//166
f 184//167 198//167 199//167
f 185//168 199//168 200//168
f 200//169 201//169 187//169
f 201//170 202//170 188//170
f 202//171 203//171 189//171
f 189//172 203//172 204//172
f 190//173 204//173 205//173
f 205//174 206//174 192//174
f 193//175 192//175 206//175
f 206//175 305//175 306//175
f 301//176 178//176 193//176
f 193//176 306//176 307//176
f 208//177 309//177 308//177
f 208//178 209//178 194//178
f 194//178 304//178 310//178
f 310//178 309//178 208//178
f 209//179 210//179 195//179
f 210//180 211//180 196//180
f 211//181 212//181 197//181
f 212//182 213//182 198//182
f 213//183 214//183 199//183
f 214//184 215//184 200//184
f 215//185 216//185 201//185
f 216//186 217//186 202//186
f 217//187 218//187 203//187
f 218//188 219//188 204//188
f 219//189 220//189 205//189
f 220//190 221//190 206//190
f 311//191 305//191 206//191
f 206//191 221//191 222//191
f 222//191 312//191 311//191
f 222//192 207//192 308//192
f 223//283 224//283 208//283
f 224//194 225//194 209//194
f 225//195 226//195 210//195
f 226//196 227//196 211//196
f 227//197 228//197 212//197
f 228//198 229//198 213//198
f 213//199 229//199 230//199
f 214//284 230//284 231//284
f 231//285 232//285 216//285
f 232//202 233//202 217//202
f 233//203 234//203 218//203
f 234//204 235//204 219//204
f 235//205 236//205 220//205
f 236//206 237//206 221//206
f 221//207 237//207 238//207
f 222//286 238//286 223//286
f 223//209 239//209 240//209
f 224//210 240//210 241//210
f 241//211 242//211 226//211
f 242//212 243//212 227//212
f 243//213 244//213 228//213
f 244//214 245//214 229//214
f 229//215 245//215 246//215
f 230//216 246//216 247//216
f 231//217 247//217 248//217
f 232//218 248//218 249//218
f 249//219 250//219 234//219
f 250//220 251//220 235//220
f 251//221 252//221 236//221
f 252//222 253//222 237//222
f 237//223 253//223 254//223
f 238//224 254//224 239//224
f 239//225 255//225 256//225
f 240//226 256//226 257//226
f 241//227 257//227 258//227
f 258//228 259//228 243//228
f 243//229 259//229 260//229
f 260//230 261//230 245//230
f 245//231 261//231 262//231
f 262//232 263//232 247//232
f 247//233 263//233 264//233
f 248//234 264//234 265//234
f 249//235 265//235 266//235
f 266//236 267//236 251//236
f 251//237 267//237 268//237
f 268//238 269//238 253//238
f 253//239 269//239 270//239
f 270//240 255//240 239//240
f 255//241 271//241 272//241
f 272//242 273//242 257//242
f 273//243 274//243 258//243
f 274//244 275//244 259//244
f 275//245 276//245 260//245
f 260//246 276//246 277//246
f 277//247 278//247 262//247
f 278//248 279//248 263//248
f 263//249 279//249 280//249
f 280//250 281//250 265//250
f 281//251 282//251 266//251
f 282//252 283//252 267//252
f 283//253 284//253 268//253
f 268//254 284//254 285//254
f 285//255 286//255 270//255
f 286//256 271//256 255//256
f 130//257 272//257 271//257
f 131//258 273//258 272//258
f 132//259 274//259 273//259
f 133//260 275//260 274//260
f 134//261 276//261 275//261
f 135//262 277//262 276//262
f 136//263 278//263 277//263
f 137//264 279//264 278//264
f 138//265 280//265 279//265
f 139//266 281//266 280//266
f 140//267 282//267 281//267
f 141//268 283//268 282//268
f 142//269 284//269 283//269
f 143//270 285//270 284//270
f 144//271 286//271 285//271
f 129//272 271//272 286//272
f 311//274 18//274 299//274
f 299//274 292//274 291//274
f 291//274 293//274 307//274
f 291//274 307//274 306//274
f 311//274 299//274 291//274
f 291//274 306//274 305//274
f 301//275 307//275 293//275
f 293//275 289//275 287//275
f 287//275 302//275 301//275
f 302//276 287//276 288//276
f 288//276 290//276 297//276
f 297//276 22//276 310//276
f 297//276 310//276 304//276
f 302//276 288//276 297//276
f 297//276 304//276 303//276
f 298//278 18//278 311//278
f 298//278 311//278 312//278
f 295//278 300//278 298//278
f 296//278 294//278 295//278
f 310//278 22//278 296//278
f 309//278 310//278 296//278
f 295//278 298//278 312//278
f 308//278 309//278 296//278
f 295//278 312//278 308//278
g A_Liquid.001_A_Liquid.001
v 0.000000 0.113400 0.000000
v 0.418880 0.162000 0.000000
v 0.386995 0.162000 -0.160298
v 0.296193 0.162000 -0.296193
v 0.160298 0.162000 -0.386995
v 0.000000 0.162000 -0.418880
v -0.160298 0.162000 -0.386995
v -0.296193 0.162000 -0.296193
v -0.386995 0.162000 -0.160298
v -0.418880 0.162000 -0.000000
v -0.386995 0.162000 0.160298
v -0.296193 0.162000 0.296193
v -0.160298 0.162000 0.386995
v -0.000000 0.162000 0.418880
v 0.160298 0.162000 0.386995
v 0.296193 0.162000 0.296193
v 0.386995 0.162000 0.160298
v 0.418880 1.155060 0.000000
v 0.386995 1.155060 -0.160298
v 0.296193 1.155060 -0.296193
v 0.160298 1.155060 -0.386995
v 0.000000 1.155060 -0.418880
v -0.160298 1.155060 -0.386995
v -0.296193 1.155060 -0.296193
v -0.386995 1.155060 -0.160298
v -0.418880 1.155060 -0.000000
v -0.386995 1.155060 0.160298
v -0.296193 1.155060 0.296193
v -0.160298 1.155060 0.386995
v -0.000000 1.155060 0.418880
v 0.160298 1.155060 0.386995
v 0.296193 1.155060 0.296193
v 0.386995 1.155060 0.160298
v 0.293216 1.187460 0.000000
v 0.270896 1.187460 -0.112209
v 0.207335 1.187460 -0.207335
v 0.112209 1.187460 -0.270896
v 0.000000 1.187460 -0.293216
v -0.112209 1.187460 -0.270896
v -0.207335 1.187460 -0.207335
v -0.270896 1.187460 -0.112209
v -0.293216 1.187460 -0.000000
v -0.270896 1.187460 0.112209
v -0.207335 1.187460 0.207335
v -0.112209 1.187460 0.270896
v -0.000000 1.187460 0.293216
v 0.112209 1.187460 0.270896
v 0.207335 1.187460 0.207335
v 0.270896 1.187460 0.112209
v 0.000000 1.211760 0.000000
vn 0.1152 -0.9931 -0.0229
vn 0.0977 -0.9931 -0.0653
vn 0.0653 -0.9931 -0.0977
vn 0.0229 -0.9931 -0.1152
vn -0.0229 -0.9931 -0.1152
vn -0.0653 -0.9931 -0.0977
vn -0.0977 -0.9931 -0.0653
vn -0.1152 -0.9931 -0.0229
vn -0.1152 -0.9931 0.0229
vn -0.0977 -0.9931 0.0653
vn -0.0653 -0.9931 0.0977
vn -0.0229 -0.9931 0.1152
vn 0.0229 -0.9931 0.1152
vn 0.0653 -0.9931 0.0977
vn 0.0977 -0.9931 0.0653
vn 0.1152 -0.9931 0.0229
vn 0.9808 -0.0000 -0.1951
vn 0.8315 -0.0000 -0.5556
vn 0.5556 -0.0000 -0.8315
vn 0.1951 -0.0000 -0.9808
vn -0.1951 -0.0000 -0.9808
vn -0.5556 -0.0000 -0.8315
vn -0.8315 -0.0000 -0.5556
vn -0.9808 -0.0000 -0.1951
vn -0.9808 -0.0000 0.1951
vn -0.8315 -0.0000 0.5556
vn -0.5556 -0.0000 0.8315
vn -0.1951 -0.0000 0.9808
vn 0.1951 -0.0000 0.9808
vn 0.5556 -0.0000 0.8315
vn 0.8315 -0.0000 0.5556
vn 0.9808 -0.0000 0.1951
vn 0.2494 0.9671 -0.0496
vn 0.2114 0.9671 -0.1413
vn 0.1412 0.9671 -0.2114
vn 0.0496 0.9671 -0.2494
vn -0.0496 0.9671 -0.2494
vn -0.1412 0.9671 -0.2114
vn -0.2114 0.9671 -0.1413
vn -0.2494 0.9671 -0.0496
vn -0.2494 0.9671 0.0496
vn -0.2114 0.9671 0.1413
vn -0.1412 0.9671 0.2114
vn -0.0496 0.9671 0.2494
vn 0.0496 0.9671 0.2494
vn 0.1412 0.9671 0.2114
vn 0.2114 0.9671 0.1413
vn 0.2494 0.9671 0.0496
vn 0.0826 0.9964 -0.0164
vn 0.0700 0.9964 -0.0468
vn 0.0468 0.9964 -0.0700
vn 0.0164 0.9964 -0.0826
vn -0.0164 0.9964 -0.0826
vn -0.0468 0.9964 -0.0700
vn -0.0700 0.9964 -0.0468
vn -0.0826 0.9964 -0.0164
vn -0.0826 0.9964 0.0164
vn -0.0700 0.9964 0.0468
vn -0.0468 0.9964 0.0700
vn -0.0164 0.9964 0.0826
vn 0.0164 0.9964 0.0826
vn 0.0468 0.9964 0.0700
vn 0.0700 0.9964 0.0468
vn 0.0826 0.9964 0.0164
vn 0.2114 0.9671 -0.1412
vn 0.1413 0.9671 -0.2114
vn -0.1413 0.9671 -0.2114
vn -0.2114 0.9671 -0.1412
vn -0.2114 0.9671 0.1412
vn -0.1413 0.9671 0.2114
vn 0.1413 0.9671 0.2114
vn 0.2114 0.9671 0.1412
s 0
g A_Liquid.001_remedy_liquid
usemtl remedy_liquid
f 313//287 315//287 314//287
f 313//288 316//288 315//288
f 313//289 317//289 316//289
f 313//290 318//290 317//290
f 313//291 319//291 318//291
f 313//292 320//292 319//292
f 313//293 321//293 320//293
f 313//294 322//294 321//294
f 313//295 323//295 322//295
f 313//296 324//296 323//296
f 313//297 325//297 324//297
f 313//298 326//298 325//298
f 313//299 327//299 326//299
f 313//300 328//300 327//300
f 313//301 329//301 328//301
f 313//302 314//302 329//302
f 315//303 330//303 314//303
f 316//304 331//304 315//304
f 317//305 332//305 316//305
f 318//306 333//306 317//306
f 319//307 334//307 318//307
f 320//308 335//308 319//308
f 321//309 336//309 320//309
f 322//310 337//310 321//310
f 323//311 338//311 322//311
f 324//312 339//312 323//312
f 325//313 340//313 324//313
f 326//314 341//314 325//314
f 327//315 342//315 326//315
f 328//316 343//316 327//316
f 329//317 344//317 328//317
f 314//318 345//318 329//318
f 331//319 346//319 330//319
f 332//320 347//320 331//320
f 333//321 348//321 332//321
f 334//322 349//322 333//322
f 335//323 350//323 334//323
f 336//324 351//324 335//324
f 337//325 352//325 336//325
f 338//326 353//326 337//326
f 339//327 354//327 338//327
f 340//328 355//328 339//328
f 341//329 356//329 340//329
f 342//330 357//330 341//330
f 343//331 358//331 342//331
f 344//332 359//332 343//332
f 345//333 360//333 344//333
f 330//334 361//334 345//334
f 346//335 347//335 362//335
f 347//336 348//336 362//336
f 348//337 349//337 362//337
f 349//338 350//338 362//338
f 350//339 351//339 362//339
f 351//340 352//340 362//340
f 352//341 353//341 362//341
f 353//342 354//342 362//342
f 354//343 355//343 362//343
f 355//344 356//344 362//344
f 356//345 357//345 362//345
f 357//346 358//346 362//346
f 358//347 359//347 362//347
f 359//348 360//348 362//348
f 360//349 361//349 362//349
f 361//350 346//350 362//350
f 315//303 331//303 330//303
f 316//304 332//304 331//304
f 317//305 333//305 332//305
f 318//306 334//306 333//306
f 319//307 335//307 334//307
f 320//308 336//308 335//308
f 321//309 337//309 336//309
f 322//310 338//310 337//310
f 323//311 339//311 338//311
f 324//312 340//312 339//312
f 325//313 341//313 340//313
f 326//314 342//314 341//314
f 327//315 343//315 342//315
f 328//316 344//316 343//316
f 329//317 345//317 344//317
f 314//318 330//318 345//318
f 331//319 347//319 346//319
f 332//351 348//351 347//351
f 333//352 349//352 348//352
f 334//322 350//322 349//322
f 335//323 351//323 350//323
f 336//353 352//353 351//353
f 337//354 353//354 352//354
f 338//326 354//326 353//326
f 339//327 355//327 354//327
f 340//355 356//355 355//355
f 341//356 357//356 356//356
f 342//330 358//330 357//330
f 343//331 359//331 358//331
f 344//357 360//357 359//357
f 345//358 361//358 360//358
f 330//334 346//334 361//334
g C_Label.001_C_Label.001
v -0.462400 1.142100 0.643280
v 0.462400 1.142100 0.643280
v 0.462400 1.466100 0.643280
v -0.462400 1.466100 0.643280
v -0.462400 1.142100 0.602480
v 0.462400 1.142100 0.602480
v 0.462400 1.466100 0.602480
v -0.462400 1.466100 0.602480
vn -0.0000 -0.0000 1.0000
vn -0.0000 -0.0000 -1.0000
vn -1.0000 -0.0000 -0.0000
vn -0.0000 -1.0000 -0.0000
vn 1.0000 -0.0000 -0.0000
vn -0.0000 1.0000 -0.0000
vt 1.000000 0.000000
vt 0.000000 1.000000
vt 0.000000 0.000000
vt 1.000000 1.000000
s 0
g C_Label.001_remedy_label
usemtl remedy_label
f 364/1/359 366/2/359 363/3/359
f 370/2/360 368/1/360 367/3/360
f 366/2/361 367/3/361 363/3/361
f 363/3/362 368/1/362 364/1/362
f 364/1/363 369/4/363 365/4/363
f 365/4/364 370/2/364 366/2/364
f 364/1/359 365/4/359 366/2/359
f 370/2/360 369/4/360 368/1/360
f 366/2/361 370/2/361 367/3/361
f 363/3/362 367/3/362 368/1/362
f 364/1/363 368/1/363 369/4/363
f 365/4/364 369/4/364 370/2/364
g S_Cork.001_S_Cork.001
v 0.000000 1.814400 0.000000
v 0.163200 1.814400 0.000000
v 0.115400 1.814400 -0.115400
v 0.000000 1.814400 -0.163200
v -0.115400 1.814400 -0.115400
v -0.163200 1.814400 -0.000000
v -0.115400 1.814400 0.115400
v -0.000000 1.814400 0.163200
v 0.115400 1.814400 0.115400
v 0.217600 1.992600 0.000000
v 0.153866 1.992600 -0.153866
v 0.000000 1.992600 -0.217600
v -0.153866 1.992600 -0.153866
v -0.217600 1.992600 -0.000000
v -0.153866 1.992600 0.153866
v -0.000000 1.992600 0.217600
v 0.153866 1.992600 0.153866
v 0.217600 2.089800 0.000000
v 0.153866 2.089800 -0.153866
v 0.000000 2.089800 -0.217600
v -0.153866 2.089800 -0.153866
v -0.217600 2.089800 -0.000000
v -0.153866 2.089800 0.153866
v -0.000000 2.089800 0.217600
v 0.153866 2.089800 0.153866
v 0.000000 2.089800 0.000000
vn -0.0000 -1.0000 -0.0000
vn 0.8892 -0.2714 -0.3683
vn 0.3683 -0.2714 -0.8892
vn -0.3683 -0.2714 -0.8892
vn -0.8892 -0.2714 -0.3683
vn -0.8892 -0.2714 0.3683
vn -0.3683 -0.2714 0.8892
vn 0.3683 -0.2714 0.8892
vn 0.8892 -0.2714 0.3683
vn 0.9239 -0.0000 -0.3827
vn 0.3827 -0.0000 -0.9239
vn -0.3827 -0.0000 -0.9239
vn -0.9239 -0.0000 -0.3827
vn -0.9239 -0.0000 0.3827
vn -0.3827 -0.0000 0.9239
vn 0.3827 -0.0000 0.9239
vn 0.9239 -0.0000 0.3827
vn -0.0000 1.0000 -0.0000
s 0
g S_Cork.001_remedy_cork
usemtl remedy_cork
f 371//365 373//365 372//365
f 371//365 374//365 373//365
f 371//365 375//365 374//365
f 371//365 376//365 375//365
f 371//365 377//365 376//365
f 371//365 378//365 377//365
f 371//365 379//365 378//365
f 371//365 372//365 379//365
f 372//366 381//366 380//366
f 374//367 381//367 373//367
f 374//368 383//368 382//368
f 376//369 383//369 375//369
f 376//370 385//370 384//370
f 378//371 385//371 377//371
f 378//372 387//372 386//372
f 372//373 387//373 379//373
f 381//374 388//374 380//374
f 382//375 389//375 381//375
f 383//376 390//376 382//376
f 384//377 391//377 383//377
f 385//378 392//378 384//378
f 386//379 393//379 385//379
f 387//380 394//380 386//380
f 380//381 395//381 387//381
f 388//382 389//382 396//382
f 389//382 390//382 396//382
f 390//382 391//382 396//382
f 391//382 392//382 396//382
f 392//382 393//382 396//382
f 393//382 394//382 396//382
f 394//382 395//382 396//382
f 395//382 388//382 396//382
f 372//366 373//366 381//366
f 374//367 382//367 381//367
f 374//368 375//368 383//368
f 376//369 384//369 383//369
f 376//370 377//370 385//370
f 378//371 386//371 385//371
f 378//372 379//372 387//372
f 372//373 380//373 387//373
f 381//374 389//374 388//374
f 382//375 390//375 389//375
f 383//376 391//376 390//376
f 384//377 392//377 391//377
f 385//378 393//378 392//378
f 386//379 394//379 393//379
f 387//380 395//380 394//380
f 380//381 388//381 395//381
g S_Wax.001_S_Wax.001
v 0.000000 2.089800 0.000000
v 0.190400 2.081700 0.000000
v 0.134633 2.081700 -0.134633
v 0.000000 2.081700 -0.190400
v -0.134633 2.081700 -0.134633
v -0.190400 2.081700 -0.000000
v -0.134633 2.081700 0.134633
v -0.000000 2.081700 0.190400
v 0.134633 2.081700 0.134633
v 0.299200 1.992600 0.000000
v 0.211566 1.992600 -0.211566
v 0.000000 1.992600 -0.299200
v -0.211566 1.992600 -0.211566
v -0.299200 1.992600 -0.000000
v -0.211566 1.992600 0.211566
v -0.000000 1.992600 0.299200
v 0.211566 1.992600 0.211566
v 0.340000 1.879200 0.000000
v 0.240416 1.879200 -0.240416
v 0.000000 1.879200 -0.340000
v -0.240416 1.879200 -0.240416
v -0.340000 1.879200 -0.000000
v -0.240416 1.879200 0.240416
v -0.000000 1.879200 0.340000
v 0.240416 1.879200 0.240416
v 0.299200 1.765800 0.000000
v 0.211566 1.765800 -0.211566
v 0.000000 1.765800 -0.299200
v -0.211566 1.765800 -0.211566
v -0.299200 1.765800 -0.000000
v -0.211566 1.765800 0.211566
v -0.000000 1.765800 0.299200
v 0.211566 1.765800 0.211566
v 0.258400 1.798200 0.000000
v 0.182716 1.798200 -0.182716
v 0.000000 1.798200 -0.258400
v -0.182716 1.798200 -0.182716
v -0.258400 1.798200 -0.000000
v -0.182716 1.798200 0.182716
v -0.000000 1.798200 0.258400
v 0.182716 1.798200 0.182716
vn -0.0425 -0.9989 0.0176
vn -0.0176 -0.9989 0.0425
vn 0.0176 -0.9989 0.0425
vn 0.0425 -0.9989 0.0176
vn 0.0425 -0.9989 -0.0176
vn 0.0176 -0.9989 -0.0425
vn -0.0176 -0.9989 -0.0425
vn -0.0425 -0.9989 -0.0176
vn -0.6128 -0.7483 0.2538
vn -0.2538 -0.7483 0.6128
vn 0.2538 -0.7483 0.6128
vn 0.6128 -0.7483 0.2538
vn 0.6128 -0.7483 -0.2538
vn 0.2538 -0.7483 -0.6128
vn -0.2538 -0.7483 -0.6128
vn -0.6128 -0.7483 -0.2538
vn -0.8767 -0.3154 0.3631
vn -0.3631 -0.3154 0.8767
vn 0.3631 -0.3154 0.8767
vn 0.8767 -0.3154 0.3631
vn 0.8767 -0.3154 -0.3631
vn 0.3631 -0.3154 -0.8767
vn -0.3631 -0.3154 -0.8767
vn -0.8767 -0.3154 -0.3631
vn -0.8767 0.3154 0.3631
vn -0.3631 0.3154 0.8767
vn 0.3631 0.3154 0.8767
vn 0.8767 0.3154 0.3631
vn 0.8767 0.3154 -0.3631
vn 0.3631 0.3154 -0.8767
vn -0.3631 0.3154 -0.8767
vn -0.8767 0.3154 -0.3631
vn 0.6022 0.7584 -0.2494
vn 0.2494 0.7584 -0.6022
vn -0.2494 0.7584 -0.6022
vn -0.6022 0.7584 -0.2494
vn -0.6022 0.7584 0.2494
vn -0.2494 0.7584 0.6022
vn 0.2494 0.7584 0.6022
vn 0.6022 0.7584 0.2494
s 0
g S_Wax.001_remedy_wax
usemtl remedy_wax
f 397//383 399//383 398//383
f 397//384 400//384 399//384
f 397//385 401//385 400//385
f 397//386 402//386 401//386
f 397//387 403//387 402//387
f 397//388 404//388 403//388
f 397//389 405//389 404//389
f 397//390 398//390 405//390
f 399//391 406//391 398//391
f 400//392 407//392 399//392
f 401//393 408//393 400//393
f 402//394 409//394 401//394
f 403//395 410//395 402//395
f 404//396 411//396 403//396
f 405//397 412//397 404//397
f 398//398 413//398 405//398
f 407//399 414//399 406//399
f 408//400 415//400 407//400
f 409//401 416//401 408//401
f 410//402 417//402 409//402
f 411//403 418//403 410//403
f 412//404 419//404 411//404
f 413//405 420//405 412//405
f 406//406 421//406 413//406
f 415//407 422//407 414//407
f 416//408 423//408 415//408
f 417//409 424//409 416//409
f 418//410 425//410 417//410
f 419//411 426//411 418//411
f 420//412 427//412 419//412
f 421//413 428//413 420//413
f 414//414 429//414 421//414
f 422//415 431//415 430//415
f 424//416 431//416 423//416
f 424//417 433//417 432//417
f 426//418 433//418 425//418
f 426//419 435//419 434//419
f 428//420 435//420 427//420
f 428//421 437//421 436//421
f 422//422 437//422 429//422
f 399//391 407//391 406//391
f 400//392 408//392 407//392
f 401//393 409//393 408//393
f 402//394 410//394 409//394
f 403//395 411//395 410//395
f 404//396 412//396 411//396
f 405//397 413//397 412//397
f 398//398 406//398 413//398
f 407//399 415//399 414//399
f 408//400 416//400 415//400
f 409//401 417//401 416//401
f 410//402 418//402 417//402
f 411//403 419//403 418//403
f 412//404 420//404 419//404
f 413//405 421//405 420//405
f 406//406 414//406 421//406
f 415//407 423//407 422//407
f 416//408 424//408 423//408
f 417//409 425//409 424//409
f 418//410 426//410 425//410
f 419//411 427//411 426//411
f 420//412 428//412 427//412
f 421//413 429//413 428//413
f 414//414 422//414 429//414
f 422//415 423//415 431//415
f 424//416 432//416 431//416
f 424//417 425//417 433//417
f 426//418 434//418 433//418
f 426//419 427//419 435//419
f 428//420 436//420 435//420
f 428//421 429//421 437//421
f 422//422 430//422 437//422
