# Blender 5.2.2 LTS
# www.blender.org
mtllib ribbon.mtl
g A_FoldedBowLoop-1.001_A_FoldedBowLoop-1.001
v -0.151543 0.306980 0.011806
v -0.220814 0.195239 0.011806
v -0.220814 0.195239 -0.002222
v -0.151543 0.306980 -0.002222
v -0.412628 0.559759 -0.021354
v -0.474039 0.290241 -0.021354
v -0.474039 0.290241 -0.045313
v -0.412628 0.559759 -0.045313
v -0.840153 0.509346 -0.034688
v -0.686513 0.273987 -0.034688
v -0.686513 0.273987 -0.058646
v -0.840153 0.509346 -0.058646
v -0.998223 0.182588 0.013646
v -0.765111 0.217412 0.013646
v -0.765111 0.217412 -0.010313
v -0.998223 0.182588 -0.010313
v -0.720332 -0.015506 0.078646
v -0.669668 0.205506 0.078646
v -0.669668 0.205506 0.054688
v -0.720332 -0.015506 0.054688
v -0.322976 0.046968 0.106979
v -0.360358 0.246366 0.106979
v -0.360358 0.246366 0.083021
v -0.322976 0.046968 0.083021
v -0.124869 0.154282 0.052361
v -0.151725 0.250233 0.052361
v -0.151725 0.250233 0.038332
v -0.124869 0.154282 0.038332
v -0.232357 0.436583 -0.000199
v -0.166373 0.232469 0.016080
v -0.332743 0.230007 -0.000199
v -0.443333 0.425000 -0.020833
v -0.205275 0.174173 0.008287
v -0.332743 0.230007 -0.022417
v -0.475374 0.284381 -0.033333
v -0.166373 0.232469 0.000494
v -0.232357 0.436583 -0.022417
v -0.443333 0.425000 -0.045833
v -0.127472 0.290766 0.008287
v -0.411293 0.565619 -0.033333
v -0.635740 0.585709 -0.035521
v -0.595926 0.300958 -0.035521
v -0.763333 0.391667 -0.034167
v -0.595926 0.300958 -0.059479
v -0.683174 0.268870 -0.046667
v -0.635740 0.585709 -0.059479
v -0.763333 0.391667 -0.059167
v -0.843493 0.514463 -0.046667
v -0.972826 0.355495 -0.016146
v -0.743424 0.242422 -0.016146
v -0.881667 0.200000 0.014167
v -0.743424 0.242422 -0.040104
v -0.760043 0.218169 0.001667
v -0.972826 0.355495 -0.040104
v -0.881667 0.200000 -0.010833
v -1.003290 0.181831 0.001667
v -0.899905 0.049655 0.046771
v -0.746761 0.204095 0.046771
v -0.695000 0.095000 0.079167
v -0.746762 0.204095 0.022813
v -0.668567 0.210310 0.066667
v -0.899905 0.049655 0.022813
v -0.695000 0.095000 0.054167
v -0.721433 -0.020310 0.066667
v -0.513787 -0.004213 0.103438
v -0.525379 0.222130 0.103438
v -0.341667 0.146667 0.107500
v -0.525379 0.222130 0.079479
v -0.361170 0.250700 0.095000
v -0.513787 -0.004213 0.079479
v -0.341667 0.146667 0.082500
v -0.322163 0.042633 0.095000
v -0.186224 0.100970 0.081552
v -0.228109 0.263201 0.081552
v -0.124900 0.206335 0.047315
v -0.228109 0.263201 0.059335
v -0.139739 0.258523 0.039522
v -0.186224 0.100970 0.059335
v -0.124900 0.206335 0.031728
v -0.110060 0.154147 0.039522
v -0.279336 0.330270 0.001103
v -0.333068 0.221467 -0.010741
v -0.279336 0.330270 -0.022585
v -0.225605 0.439073 -0.010741
v -0.615833 0.443333 -0.035000
v -0.595061 0.294768 -0.047500
v -0.615833 0.443333 -0.060000
v -0.636606 0.591899 -0.047500
v -0.858125 0.298958 -0.015625
v -0.738437 0.239964 -0.028125
v -0.858125 0.298958 -0.040625
v -0.977813 0.357953 -0.028125
v -0.823333 0.126875 0.047292
v -0.743432 0.207453 0.034792
v -0.823333 0.126875 0.022292
v -0.903235 0.046297 0.034792
v -0.519583 0.108958 0.103958
v -0.525631 0.227051 0.091458
v -0.519583 0.108958 0.078958
v -0.513535 -0.009134 0.091458
v -0.204992 0.182747 0.081343
v -0.227308 0.268825 0.069498
v -0.204992 0.182747 0.057654
v -0.182677 0.096669 0.069498
v -0.127284 0.195679 0.015185
v -0.098457 0.214383 0.028025
vn -0.0720 0.0622 0.9955
vn -0.0975 0.0470 0.9941
vn -0.0878 0.0509 0.9948
vn -0.0909 0.0453 0.9948
vn -0.0976 0.0217 0.9950
vn -0.1175 0.0280 0.9927
vn -0.1116 0.0465 0.9927
vn -0.0992 0.0358 0.9944
vn -0.2614 -0.3435 0.9020
vn -0.4041 -0.7046 0.5833
vn -0.2524 -0.7777 -0.5758
vn -0.0433 -0.4714 -0.8809
vn 0.1301 -0.0925 -0.9872
vn 0.1321 -0.0626 -0.9893
vn 0.1295 -0.0835 -0.9880
vn 0.1190 -0.0375 -0.9922
vn 0.1401 -0.0763 -0.9872
vn 0.1020 -0.0213 -0.9946
vn 0.1244 -0.0472 -0.9911
vn 0.1456 -0.0642 -0.9873
vn 0.5188 0.2379 -0.8212
vn 0.5373 0.7060 -0.4613
vn 0.4590 0.7528 0.4718
vn 0.3624 0.3506 0.8636
vn -0.0845 0.0174 0.9963
vn -0.0349 -0.0011 0.9994
vn -0.0300 -0.0001 0.9996
vn 0.0616 0.0536 0.9967
vn 0.1088 0.0655 0.9919
vn -0.0444 -0.0008 0.9990
vn -0.1298 -0.8849 0.4473
vn 0.2546 -0.8515 0.4584
vn 0.2465 -0.8536 -0.4589
vn -0.0256 -0.8969 -0.4415
vn 0.0451 -0.0065 -0.9990
vn -0.1060 -0.0723 -0.9917
vn 0.0348 0.0021 -0.9994
vn -0.0622 -0.0529 -0.9967
vn 0.0291 0.0074 -0.9995
vn 0.0907 -0.0112 -0.9958
vn 0.1313 0.8847 -0.4473
vn -0.3135 0.8342 -0.4537
vn -0.3107 0.8351 0.4540
vn 0.0755 0.8924 0.4449
vn 0.0394 0.0437 0.9983
vn 0.0796 0.2093 0.9746
vn 0.0406 0.1500 0.9878
vn -0.0451 0.2601 0.9645
vn -0.0999 0.5399 0.8358
vn 0.2227 0.3346 0.9156
vn 0.5278 -0.7180 0.4538
vn 0.8629 -0.2846 0.4176
vn 0.4530 -0.8172 -0.3563
vn 0.3186 -0.8364 -0.4461
vn -0.2179 -0.3404 -0.9147
vn 0.1077 -0.5390 -0.8354
vn -0.0807 -0.2088 -0.9746
vn 0.0429 -0.2608 -0.9644
vn -0.0480 -0.1465 -0.9880
vn -0.0436 -0.0374 -0.9983
vn -0.7071 0.5573 -0.4352
vn -0.9162 0.0665 -0.3951
vn -0.8898 0.1982 0.4111
vn -0.6533 0.6132 0.4441
vn -0.1338 0.1800 0.9745
vn -0.0333 0.1934 0.9806
vn -0.1572 0.0522 0.9862
vn -0.1960 0.2339 0.9523
vn -0.1941 0.0605 0.9791
vn -0.4238 0.3374 0.8406
vn 0.2670 0.9481 0.1728
vn -0.1356 0.9632 0.2322
vn 0.1047 0.9497 -0.2953
vn 0.8861 0.2493 -0.3906
vn 0.1951 -0.2356 -0.9521
vn 0.4261 -0.3290 -0.8427
vn 0.1940 -0.0612 -0.9791
vn 0.1559 -0.0615 -0.9859
vn 0.1280 -0.1874 -0.9739
vn 0.0248 -0.1954 -0.9804
vn -0.7134 -0.6125 -0.3405
vn -0.2700 -0.9050 -0.3287
vn -0.3756 -0.8600 0.3454
vn -0.7894 -0.4935 0.3651
vn -0.0792 -0.0023 0.9969
vn 0.0694 0.0083 0.9976
vn -0.0840 -0.0006 0.9965
vn 0.0791 0.0171 0.9967
vn -0.0915 -0.0005 0.9958
vn -0.2492 0.0517 0.9671
vn -0.1691 0.9200 0.3535
vn -0.1397 0.9149 0.3787
vn -0.1265 0.9166 -0.3792
vn -0.0437 0.9286 -0.3684
vn 0.2486 -0.0425 -0.9677
vn 0.0842 0.0002 -0.9964
vn 0.0901 0.0098 -0.9959
vn -0.0732 -0.0161 -0.9972
vn -0.0611 -0.0171 -0.9980
vn 0.0806 -0.0069 -0.9967
vn 0.0943 -0.9270 -0.3631
vn 0.2487 -0.8941 -0.3725
vn 0.2358 -0.8972 0.3735
vn 0.0056 -0.9283 0.3718
vn 0.2513 0.0567 0.9663
vn 0.3664 0.0884 0.9262
vn 0.2744 0.0723 0.9589
vn 0.3646 0.1093 0.9247
vn 0.2569 0.0688 0.9640
vn 0.0784 0.0199 0.9967
vn -0.0534 0.9378 0.3430
vn 0.3054 0.8550 0.4192
vn 0.0151 0.8744 -0.4850
vn -0.1902 0.9190 -0.3454
vn -0.2127 -0.0403 -0.9763
vn -0.0737 -0.0086 -0.9972
vn -0.2869 -0.0475 -0.9568
vn -0.2222 -0.0587 -0.9732
vn -0.2675 -0.1026 -0.9581
vn -0.2000 -0.0609 -0.9779
vn 0.2841 -0.8953 -0.3432
vn 0.4769 -0.7373 -0.4784
vn 0.7013 -0.5807 0.4135
vn 0.3993 -0.8531 0.3358
vn 0.3397 -0.1017 -0.9350
vn 0.0907 0.0722 0.9933
vn -0.0628 -0.0909 0.9939
vn 0.2412 -0.2849 -0.9277
vn 0.6537 0.0734 0.7532
vn -0.0855 -0.1709 -0.9816
vn -0.1675 0.0989 -0.9809
vn 0.6032 0.2829 0.7457
vn -0.2944 -0.7381 0.6070
vn -0.4073 -0.8017 0.4375
vn -0.2887 -0.8470 -0.4464
vn -0.1417 -0.7971 -0.5870
vn 0.7580 0.3913 -0.5218
vn 0.5485 0.7254 -0.4159
vn 0.4724 0.7698 0.4292
vn 0.6842 0.4777 0.5511
vn -0.1298 -0.8847 0.4478
vn 0.2600 -0.8597 0.4397
vn 0.2527 -0.8623 -0.4388
vn -0.0250 -0.8889 -0.4575
vn 0.1313 0.8845 -0.4476
vn -0.3154 0.8378 -0.4458
vn -0.3117 0.8393 0.4454
vn 0.0751 0.8881 0.4535
vn 0.5402 -0.7513 0.3791
vn 0.8728 -0.3428 0.3475
vn 0.5592 -0.8080 -0.1855
vn 0.3500 -0.8782 -0.3259
vn -0.7146 0.5643 -0.4133
vn -0.9204 0.0680 -0.3851
vn -0.9073 0.1972 0.3714
vn -0.6673 0.6244 0.4059
vn 0.1380 0.9430 0.3027
vn -0.1633 0.9208 0.3543
vn 0.1265 0.9166 -0.3793
vn 0.8829 0.3269 -0.3370
vn -0.7036 -0.6089 -0.3662
vn -0.2587 -0.8881 -0.3800
vn -0.3743 -0.8483 0.3746
vn -0.7910 -0.4956 0.3588
vn -0.1697 0.9103 0.3775
vn -0.1436 0.9274 0.3453
vn -0.1263 0.9300 -0.3451
vn -0.0422 0.9239 -0.3804
vn 0.0948 -0.9201 -0.3799
vn 0.2492 -0.9051 -0.3444
vn 0.2372 -0.9082 0.3447
vn 0.0050 -0.9250 0.3800
vn 0.3634 0.1019 0.9260
vn -0.0427 0.9065 0.4201
vn 0.3160 0.6349 0.7050
vn -0.2372 0.4653 -0.8528
vn -0.1931 0.8649 -0.4634
vn -0.2857 -0.0795 -0.9550
vn 0.2589 -0.8538 -0.4517
vn 0.0635 -0.5234 -0.8497
vn 0.5998 -0.3948 0.6960
vn 0.3937 -0.8230 0.4095
vn 0.2938 -0.0686 -0.9534
vn 0.1608 0.0246 0.9867
vn 0.0235 -0.1479 0.9887
vn 0.1478 -0.2273 -0.9625
vn 0.5801 0.0435 0.8134
vn 0.0783 -0.1254 -0.9890
vn -0.0033 0.1468 -0.9892
vn 0.5133 0.2677 0.8154
vt 0.000000 0.000000
vt 0.500000 0.083333
vt 0.500000 0.000000
vt 0.000000 0.083333
vt 0.500000 0.166667
vt 1.000000 0.166667
vt 1.000000 0.083333
vt 1.000000 0.000000
vt 0.000000 0.166667
vt 0.500000 0.250000
vt 0.000000 0.250000
vt 0.500000 0.333333
vt 1.000000 0.333333
vt 1.000000 0.250000
vt 0.000000 0.333333
vt 0.500000 0.416667
vt 0.000000 0.416667
vt 0.500000 0.500000
vt 1.000000 0.500000
vt 1.000000 0.416667
vt 0.000000 0.500000
vt 0.000000 0.583333
vt 0.000000 0.666667
vt 0.500000 0.583333
vt 0.500000 0.666667
vt 1.000000 0.583333
vt 1.000000 0.666667
vt 0.000000 0.750000
vt 0.000000 0.833333
vt 0.500000 0.750000
vt 0.500000 0.833333
vt 1.000000 0.750000
vt 1.000000 0.833333
vt 0.000000 0.916667
vt 0.000000 1.000000
vt 0.500000 0.916667
vt 1.000000 1.000000
vt 1.000000 0.916667
vt 0.000000 0.500000
vt 0.500000 1.000000
vt 0.500000 0.500000
vt 1.000000 0.500000
s 1
g A_FoldedBowLoop-1.001_ribbon_ribbon
usemtl ribbon_ribbon
f 1/1/1 81/2/2 30/3/3
f 29/4/4 32/5/5 81/2/2
f 81/2/2 6/6/6 31/7/7
f 81/2/2 2/8/8 30/3/3
s 6
f 3/1/13 83/2/14 36/3/15
f 7/9/16 83/2/14 34/4/17
f 38/5/18 37/7/19 83/2/14
f 83/2/14 4/8/20 36/3/15
s 1
f 5/9/25 85/10/26 32/5/5
f 41/11/27 43/12/28 85/10/26
f 85/10/26 10/13/29 42/14/30
f 32/5/5 42/14/30 6/6/6
s 6
f 44/11/35 38/5/18 7/9/16
f 11/15/36 87/10/37 44/11/35
f 47/12/38 46/14/39 87/10/37
f 87/10/37 8/6/40 38/5/18
s 1
f 9/15/45 89/16/46 43/12/28
f 49/17/47 51/18/48 89/16/46
f 89/16/46 14/19/49 50/20/50
f 43/12/28 50/20/50 10/13/29
s 6
f 52/17/55 47/12/38 11/15/36
f 15/21/56 91/16/57 52/17/55
f 55/18/58 54/20/59 91/16/57
f 91/16/57 12/13/60 47/12/38
s 1
f 57/22/65 51/18/48 13/21/66
f 17/23/67 93/24/68 57/22/65
f 59/25/69 58/26/70 93/24/68
f 93/24/68 14/19/49 51/18/48
s 6
f 15/21/56 95/24/75 55/18/58
f 60/22/76 63/25/77 95/24/75
f 95/24/75 20/27/78 62/26/79
f 55/18/58 62/26/79 16/19/80
s 1
f 65/28/85 59/25/69 17/23/67
f 21/29/86 97/30/87 65/28/85
f 67/31/88 66/32/89 97/30/87
f 97/30/87 18/27/90 59/25/69
s 6
f 19/23/95 99/30/96 63/25/77
f 68/28/97 71/31/98 99/30/96
f 99/30/96 24/33/99 70/32/100
f 63/25/77 70/32/100 20/27/78
s 1
f 73/34/105 67/31/88 21/29/86
f 25/35/106 101/36/107 73/34/105
f 101/36/107 26/37/108 74/38/109
f 67/31/88 74/38/109 22/33/110
s 6
f 76/34/115 71/31/98 23/29/116
f 27/35/117 103/36/118 76/34/115
f 103/36/118 28/37/119 78/38/120
f 71/31/98 78/38/120 24/33/99
s 1
f 1/1/1 29/4/4 81/2/2
f 29/4/4 5/9/25 32/5/5
f 81/2/2 32/5/5 6/6/6
f 81/2/2 31/7/7 2/8/8
s 6
f 3/1/13 34/4/17 83/2/14
f 7/9/16 38/5/18 83/2/14
f 38/5/18 8/6/40 37/7/19
f 83/2/14 37/7/19 4/8/20
s 1
f 5/9/25 41/11/27 85/10/26
f 41/11/27 9/15/45 43/12/28
f 85/10/26 43/12/28 10/13/29
f 32/5/5 85/10/26 42/14/30
s 6
f 44/11/35 87/10/37 38/5/18
f 11/15/36 47/12/38 87/10/37
f 47/12/38 12/13/60 46/14/39
f 87/10/37 46/14/39 8/6/40
s 1
f 9/15/45 49/17/47 89/16/46
f 49/17/47 13/21/66 51/18/48
f 89/16/46 51/18/48 14/19/49
f 43/12/28 89/16/46 50/20/50
s 6
f 52/17/55 91/16/57 47/12/38
f 15/21/56 55/18/58 91/16/57
f 55/18/58 16/19/80 54/20/59
f 91/16/57 54/20/59 12/13/60
s 1
f 57/22/65 93/24/68 51/18/48
f 17/23/67 59/25/69 93/24/68
f 59/25/69 18/27/90 58/26/70
f 93/24/68 58/26/70 14/19/49
s 6
f 15/21/56 60/22/76 95/24/75
f 60/22/76 19/23/95 63/25/77
f 95/24/75 63/25/77 20/27/78
f 55/18/58 95/24/75 62/26/79
s 1
f 65/28/85 97/30/87 59/25/69
f 21/29/86 67/31/88 97/30/87
f 67/31/88 22/33/110 66/32/89
f 97/30/87 66/32/89 18/27/90
s 6
f 19/23/95 68/28/97 99/30/96
f 68/28/97 23/29/116 71/31/98
f 99/30/96 71/31/98 24/33/99
f 63/25/77 99/30/96 70/32/100
s 1
f 73/34/105 101/36/107 67/31/88
f 25/35/106 75/40/173 101/36/107
f 101/36/107 75/40/173 26/37/108
f 67/31/88 101/36/107 74/38/109
s 6
f 76/34/115 103/36/118 71/31/98
f 27/35/117 79/40/178 103/36/118
f 103/36/118 79/40/178 28/37/119
f 71/31/98 103/36/118 78/38/120
s 0
g A_FoldedBowLoop-1.001_ribbon_cut_edges
usemtl ribbon_cut_edges
f 2/1/9 82/2/9 33/3/9
f 31/4/10 35/5/10 82/2/10
f 35/5/11 34/7/11 82/2/11
f 82/2/12 3/8/12 33/3/12
f 4/1/21 84/2/21 39/3/21
f 37/4/22 40/5/22 84/2/22
f 84/2/23 5/6/23 29/7/23
f 84/2/24 1/8/24 39/3/24
f 42/11/31 35/5/31 6/9/31
f 42/11/32 45/12/32 86/10/32
f 45/12/33 44/14/33 86/10/33
f 86/10/34 7/6/34 35/5/34
f 8/9/41 88/10/41 40/5/41
f 12/15/42 88/10/42 46/11/42
f 48/12/43 41/14/43 88/10/43
f 40/5/44 41/14/44 5/6/44
f 10/15/51 90/16/51 45/12/51
f 50/17/52 53/18/52 90/16/52
f 90/16/53 15/19/53 52/20/53
f 45/12/54 52/20/54 11/13/54
f 54/17/61 48/12/61 12/15/61
f 16/21/62 92/16/62 54/17/62
f 56/18/63 49/20/63 92/16/63
f 92/16/64 9/13/64 48/12/64
f 14/21/71 94/24/71 53/18/71
f 58/22/72 61/25/72 94/24/72
f 94/24/73 19/27/73 60/26/73
f 53/18/74 60/26/74 15/19/74
f 62/22/81 56/18/81 16/21/81
f 20/23/82 96/24/82 62/22/82
f 64/25/83 57/26/83 96/24/83
f 96/24/84 13/19/84 56/18/84
f 18/23/91 98/30/91 61/25/91
f 66/28/92 69/31/92 98/30/92
f 98/30/93 23/33/93 68/32/93
f 61/25/94 68/32/94 19/27/94
f 70/28/101 64/25/101 20/23/101
f 70/28/102 72/31/102 100/30/102
f 72/31/103 65/32/103 100/30/103
f 100/30/104 17/27/104 64/25/104
f 74/34/111 69/31/111 22/29/111
f 26/35/112 102/36/112 74/34/112
f 102/36/113 27/37/113 76/38/113
f 102/36/114 23/33/114 69/31/114
f 24/29/121 104/36/121 72/31/121
f 28/35/122 104/36/122 78/34/122
f 104/36/123 25/37/123 73/38/123
f 72/31/124 73/38/124 21/33/124
f 39/39/125 36/3/125 4/1/125
f 39/39/126 30/40/126 105/41/126
f 30/40/127 33/42/127 105/41/127
f 36/3/128 33/42/128 3/8/128
f 80/39/129 75/3/129 25/1/129
f 80/39/130 79/40/130 106/41/130
f 79/40/131 77/42/131 106/41/131
f 75/3/132 77/42/132 26/8/132
f 2/1/133 31/4/133 82/2/133
f 31/4/134 6/9/134 35/5/134
f 35/5/135 7/6/135 34/7/135
f 82/2/136 34/7/136 3/8/136
f 4/1/137 37/4/137 84/2/137
f 37/4/138 8/9/138 40/5/138
f 84/2/139 40/5/139 5/6/139
f 84/2/140 29/7/140 1/8/140
f 42/11/141 86/10/141 35/5/141
f 42/11/142 10/15/142 45/12/142
f 45/12/143 11/13/143 44/14/143
f 86/10/144 44/14/144 7/6/144
f 8/9/145 46/11/145 88/10/145
f 12/15/146 48/12/146 88/10/146
f 48/12/147 9/13/147 41/14/147
f 40/5/148 88/10/148 41/14/148
f 10/15/149 50/17/149 90/16/149
f 50/17/150 14/21/150 53/18/150
f 90/16/151 53/18/151 15/19/151
f 45/12/152 90/16/152 52/20/152
f 54/17/153 92/16/153 48/12/153
f 16/21/154 56/18/154 92/16/154
f 56/18/155 13/19/155 49/20/155
f 92/16/156 49/20/156 9/13/156
f 14/21/157 58/22/157 94/24/157
f 58/22/158 18/23/158 61/25/158
f 94/24/159 61/25/159 19/27/159
f 53/18/160 94/24/160 60/26/160
f 62/22/161 96/24/161 56/18/161
f 20/23/162 64/25/162 96/24/162
f 64/25/163 17/27/163 57/26/163
f 96/24/164 57/26/164 13/19/164
f 18/23/165 66/28/165 98/30/165
f 66/28/166 22/29/166 69/31/166
f 98/30/167 69/31/167 23/33/167
f 61/25/168 98/30/168 68/32/168
f 70/28/169 100/30/169 64/25/169
f 70/28/170 24/29/170 72/31/170
f 72/31/171 21/33/171 65/32/171
f 100/30/172 65/32/172 17/27/172
f 74/34/174 102/36/174 69/31/174
f 26/35/175 77/40/175 102/36/175
f 102/36/176 77/40/176 27/37/176
f 102/36/177 76/38/177 23/33/177
f 24/29/179 78/34/179 104/36/179
f 28/35/180 80/40/180 104/36/180
f 104/36/181 80/40/181 25/37/181
f 72/31/182 104/36/182 73/38/182
f 39/39/183 105/41/183 36/3/183
f 39/39/184 1/35/184 30/40/184
f 30/40/185 2/37/185 33/42/185
f 36/3/186 105/41/186 33/42/186
f 80/39/187 106/41/187 75/3/187
f 80/39/188 28/35/188 79/40/188
f 79/40/189 27/37/189 77/42/189
f 75/3/190 106/41/190 77/42/190
g A_FoldedBowLoop1.001_A_FoldedBowLoop1.001
v 0.220814 0.195239 0.011806
v 0.151543 0.306980 0.011806
v 0.151543 0.306980 -0.002222
v 0.220814 0.195239 -0.002222
v 0.474039 0.290241 -0.021354
v 0.412628 0.559759 -0.021354
v 0.412628 0.559759 -0.045313
v 0.474039 0.290241 -0.045313
v 0.686513 0.273987 -0.034688
v 0.840153 0.509346 -0.034688
v 0.840153 0.509346 -0.058646
v 0.686513 0.273987 -0.058646
v 0.765111 0.217412 0.013646
v 0.998223 0.182588 0.013646
v 0.998223 0.182588 -0.010313
v 0.765111 0.217412 -0.010313
v 0.669668 0.205506 0.078646
v 0.720332 -0.015506 0.078646
v 0.720332 -0.015506 0.054688
v 0.669668 0.205506 0.054688
v 0.360358 0.246366 0.106979
v 0.322976 0.046968 0.106979
v 0.322976 0.046968 0.083021
v 0.360358 0.246366 0.083021
v 0.151725 0.250233 0.052361
v 0.124869 0.154282 0.052361
v 0.124869 0.154282 0.038332
v 0.151725 0.250233 0.038332
v 0.332743 0.230007 -0.000199
v 0.166373 0.232469 0.016080
v 0.232357 0.436583 -0.000199
v 0.443333 0.425000 -0.020833
v 0.127472 0.290766 0.008287
v 0.232357 0.436583 -0.022417
v 0.411293 0.565619 -0.033333
v 0.166374 0.232469 0.000494
v 0.332743 0.230007 -0.022417
v 0.443333 0.425000 -0.045833
v 0.205275 0.174173 0.008287
v 0.475374 0.284381 -0.033333
v 0.595926 0.300958 -0.035521
v 0.635740 0.585709 -0.035521
v 0.763333 0.391667 -0.034167
v 0.635740 0.585709 -0.059479
v 0.843493 0.514463 -0.046667
v 0.595926 0.300958 -0.059479
v 0.763333 0.391667 -0.059167
v 0.683174 0.268870 -0.046667
v 0.743424 0.242422 -0.016146
v 0.972826 0.355495 -0.016146
v 0.881667 0.200000 0.014167
v 0.972826 0.355495 -0.040104
v 1.003290 0.181831 0.001667
v 0.743424 0.242422 -0.040104
v 0.881667 0.200000 -0.010833
v 0.760043 0.218169 0.001667
v 0.746762 0.204095 0.046771
v 0.899905 0.049655 0.046771
v 0.695000 0.095000 0.079167
v 0.899905 0.049655 0.022813
v 0.721433 -0.020310 0.066667
v 0.746761 0.204095 0.022813
v 0.695000 0.095000 0.054167
v 0.668567 0.210310 0.066667
v 0.525379 0.222130 0.103438
v 0.513787 -0.004213 0.103438
v 0.341667 0.146667 0.107500
v 0.513787 -0.004213 0.079479
v 0.322163 0.042633 0.095000
v 0.525379 0.222130 0.079479
v 0.341667 0.146667 0.082500
v 0.361170 0.250700 0.095000
v 0.228109 0.263201 0.081552
v 0.186224 0.100970 0.081552
v 0.124900 0.206335 0.047315
v 0.186224 0.100970 0.059335
v 0.110060 0.154147 0.039522
v 0.228109 0.263201 0.059335
v 0.124900 0.206335 0.031728
v 0.139739 0.258523 0.039522
v 0.279336 0.330270 0.001103
v 0.225605 0.439073 -0.010741
v 0.279336 0.330270 -0.022585
v 0.333068 0.221467 -0.010741
v 0.615833 0.443333 -0.035000
v 0.636606 0.591899 -0.047500
v 0.615833 0.443333 -0.060000
v 0.595061 0.294768 -0.047500
v 0.858125 0.298958 -0.015625
v 0.977813 0.357953 -0.028125
v 0.858125 0.298958 -0.040625
v 0.738437 0.239964 -0.028125
v 0.823333 0.126875 0.047292
v 0.903235 0.046297 0.034792
v 0.823333 0.126875 0.022292
v 0.743432 0.207453 0.034792
v 0.519583 0.108958 0.103958
v 0.513535 -0.009134 0.091458
v 0.519583 0.108958 0.078958
v 0.525631 0.227051 0.091458
v 0.204992 0.182747 0.081343
v 0.182677 0.096669 0.069498
v 0.204992 0.182747 0.057654
v 0.227308 0.268825 0.069498
v 0.127284 0.195679 0.015185
v 0.098457 0.214383 0.028025
vn 0.0992 0.0358 0.9944
vn 0.0975 0.0470 0.9941
vn 0.0878 0.0509 0.9948
vn 0.1175 0.0280 0.9927
vn 0.1116 0.0465 0.9927
vn 0.0976 0.0217 0.9950
vn 0.0909 0.0453 0.9948
vn 0.0720 0.0622 0.9955
vn -0.3624 0.3506 0.8636
vn -0.4590 0.7528 0.4718
vn -0.5373 0.7060 -0.4613
vn -0.5188 0.2379 -0.8212
vn -0.1456 -0.0642 -0.9873
vn -0.1321 -0.0626 -0.9893
vn -0.1295 -0.0835 -0.9880
vn -0.1244 -0.0472 -0.9911
vn -0.1020 -0.0213 -0.9946
vn -0.1190 -0.0375 -0.9922
vn -0.1401 -0.0763 -0.9872
vn -0.1301 -0.0925 -0.9872
vn 0.0433 -0.4714 -0.8809
vn 0.2524 -0.7777 -0.5758
vn 0.4041 -0.7046 0.5833
vn 0.2614 -0.3435 0.9020
vn 0.0444 -0.0008 0.9990
vn -0.1088 0.0655 0.9919
vn 0.0349 -0.0011 0.9994
vn -0.0616 0.0536 0.9967
vn 0.0300 -0.0001 0.9996
vn 0.0845 0.0174 0.9963
vn -0.0755 0.8924 0.4449
vn 0.3107 0.8351 0.4540
vn 0.3135 0.8342 -0.4537
vn -0.1313 0.8847 -0.4473
vn -0.0907 -0.0112 -0.9958
vn -0.0348 0.0021 -0.9994
vn -0.0291 0.0074 -0.9995
vn 0.0622 -0.0529 -0.9967
vn 0.1060 -0.0723 -0.9917
vn -0.0451 -0.0065 -0.9990
vn 0.0256 -0.8969 -0.4415
vn -0.2465 -0.8536 -0.4589
vn -0.2546 -0.8515 0.4584
vn 0.1298 -0.8849 0.4473
vn -0.2227 0.3346 0.9156
vn 0.0999 0.5399 0.8358
vn -0.0796 0.2093 0.9746
vn 0.0451 0.2601 0.9645
vn -0.0406 0.1500 0.9878
vn -0.0394 0.0437 0.9983
vn 0.6533 0.6132 0.4441
vn 0.8898 0.1983 0.4111
vn 0.9162 0.0665 -0.3951
vn 0.7071 0.5573 -0.4352
vn 0.0436 -0.0374 -0.9983
vn 0.0807 -0.2088 -0.9746
vn 0.0480 -0.1465 -0.9880
vn -0.0429 -0.2608 -0.9644
vn -0.1077 -0.5390 -0.8354
vn 0.2179 -0.3404 -0.9147
vn -0.3186 -0.8364 -0.4461
vn -0.4530 -0.8172 -0.3563
vn -0.8629 -0.2846 0.4176
vn -0.5278 -0.7180 0.4538
vn 0.1960 0.2339 0.9523
vn 0.4238 0.3374 0.8406
vn 0.1941 0.0605 0.9791
vn 0.1572 0.0522 0.9862
vn 0.1338 0.1800 0.9745
vn 0.0333 0.1934 0.9806
vn 0.7894 -0.4935 0.3651
vn 0.3756 -0.8600 0.3454
vn 0.2700 -0.9050 -0.3287
vn 0.7134 -0.6125 -0.3405
vn -0.1280 -0.1874 -0.9739
vn -0.0248 -0.1954 -0.9804
vn -0.1559 -0.0615 -0.9859
vn -0.1951 -0.2356 -0.9521
vn -0.1940 -0.0612 -0.9791
vn -0.4261 -0.3290 -0.8427
vn -0.8861 0.2493 -0.3906
vn -0.1047 0.9497 -0.2953
vn 0.1356 0.9632 0.2322
vn -0.2670 0.9481 0.1728
vn 0.2492 0.0517 0.9671
vn 0.0840 -0.0006 0.9965
vn 0.0915 -0.0005 0.9958
vn -0.0791 0.0171 0.9967
vn -0.0694 0.0083 0.9976
vn 0.0792 -0.0023 0.9969
vn -0.0056 -0.9283 0.3718
vn -0.2358 -0.8972 0.3735
vn -0.2487 -0.8941 -0.3725
vn -0.0943 -0.9270 -0.3631
vn -0.0806 -0.0069 -0.9967
vn 0.0611 -0.0171 -0.9980
vn -0.0842 0.0002 -0.9964
vn 0.0732 -0.0161 -0.9972
vn -0.0901 0.0098 -0.9959
vn -0.2486 -0.0425 -0.9677
vn 0.0437 0.9286 -0.3684
vn 0.1265 0.9166 -0.3792
vn 0.1397 0.9149 0.3787
vn 0.1691 0.9200 0.3535
vn -0.2569 0.0688 0.9640
vn -0.0784 0.0199 0.9967
vn -0.3646 0.1093 0.9247
vn -0.2744 0.0723 0.9589
vn -0.3664 0.0884 0.9262
vn -0.2513 0.0567 0.9663
vn -0.3993 -0.8531 0.3358
vn -0.7013 -0.5807 0.4135
vn -0.4769 -0.7373 -0.4784
vn -0.2841 -0.8953 -0.3432
vn 0.2000 -0.0609 -0.9779
vn 0.2675 -0.1026 -0.9581
vn 0.2222 -0.0587 -0.9732
vn 0.2869 -0.0475 -0.9568
vn 0.2127 -0.0403 -0.9763
vn 0.0737 -0.0086 -0.9972
vn 0.1902 0.9190 -0.3454
vn -0.0151 0.8744 -0.4850
vn -0.3054 0.8550 0.4192
vn 0.0534 0.9378 0.3430
vn -0.2412 -0.2849 -0.9277
vn 0.0628 -0.0909 0.9939
vn -0.0907 0.0722 0.9933
vn -0.3397 -0.1017 -0.9350
vn -0.6032 0.2829 0.7457
vn 0.1675 0.0989 -0.9809
vn 0.0855 -0.1709 -0.9816
vn -0.6537 0.0734 0.7532
vn -0.6842 0.4777 0.5511
vn -0.4724 0.7698 0.4292
vn -0.5485 0.7254 -0.4159
vn -0.7580 0.3913 -0.5218
vn 0.1417 -0.7971 -0.5869
vn 0.2887 -0.8470 -0.4464
vn 0.4073 -0.8017 0.4375
vn 0.2944 -0.7381 0.6070
vn -0.0751 0.8881 0.4535
vn 0.3117 0.8393 0.4454
vn 0.3154 0.8378 -0.4458
vn -0.1313 0.8845 -0.4476
vn 0.0250 -0.8889 -0.4575
vn -0.2527 -0.8623 -0.4388
vn -0.2600 -0.8597 0.4397
vn 0.1298 -0.8847 0.4478
vn 0.6673 0.6244 0.4059
vn 0.9073 0.1972 0.3714
vn 0.9204 0.0680 -0.3851
vn 0.7146 0.5643 -0.4133
vn -0.3500 -0.8782 -0.3259
vn -0.5592 -0.8080 -0.1855
vn -0.8728 -0.3428 0.3475
vn -0.5402 -0.7513 0.3791
vn 0.7910 -0.4956 0.3587
vn 0.3743 -0.8483 0.3746
vn 0.2587 -0.8881 -0.3800
vn 0.7036 -0.6089 -0.3662
vn -0.8829 0.3269 -0.3370
vn -0.1265 0.9166 -0.3793
vn 0.1633 0.9208 0.3543
vn -0.1380 0.9430 0.3027
vn -0.0050 -0.9250 0.3800
vn -0.2372 -0.9082 0.3447
vn -0.2492 -0.9051 -0.3444
vn -0.0948 -0.9201 -0.3799
vn 0.0422 0.9239 -0.3804
vn 0.1263 0.9300 -0.3451
vn 0.1436 0.9274 0.3453
vn 0.1697 0.9103 0.3775
vn -0.3634 0.1019 0.9260
vn -0.3937 -0.8230 0.4095
vn -0.5998 -0.3948 0.6960
vn -0.0635 -0.5234 -0.8497
vn -0.2589 -0.8538 -0.4517
vn 0.2857 -0.0795 -0.9550
vn 0.1931 0.8649 -0.4634
vn 0.2372 0.4653 -0.8528
vn -0.3160 0.6349 0.7050
vn 0.0427 0.9065 0.4201
vn -0.1478 -0.2273 -0.9625
vn -0.0235 -0.1479 0.9887
vn -0.1608 0.0246 0.9867
vn -0.2938 -0.0686 -0.9534
vn -0.5133 0.2677 0.8154
vn 0.0033 0.1468 -0.9892
vn -0.0783 -0.1254 -0.9890
vn -0.5801 0.0435 0.8134
vt 0.000000 0.000000
vt 0.500000 0.083333
vt 0.500000 0.000000
vt 0.000000 0.166667
vt 0.000000 0.083333
vt 0.500000 0.166667
vt 1.000000 0.083333
vt 1.000000 0.000000
vt 1.000000 0.166667
vt 0.000000 0.250000
vt 0.000000 0.333333
vt 0.500000 0.250000
vt 0.500000 0.333333
vt 1.000000 0.250000
vt 1.000000 0.333333
vt 0.000000 0.416667
vt 0.000000 0.500000
vt 0.500000 0.416667
vt 0.500000 0.500000
vt 1.000000 0.416667
vt 1.000000 0.500000
vt 0.500000 0.583333
vt 0.000000 0.583333
vt 0.500000 0.666667
vt 1.000000 0.666667
vt 1.000000 0.583333
vt 0.000000 0.666667
vt 0.500000 0.750000
vt 0.000000 0.750000
vt 0.500000 0.833333
vt 1.000000 0.833333
vt 1.000000 0.750000
vt 0.000000 0.833333
vt 0.000000 0.916667
vt 0.000000 1.000000
vt 0.500000 0.916667
vt 1.000000 1.000000
vt 1.000000 0.916667
vt 0.000000 0.500000
vt 0.500000 1.000000
vt 0.500000 0.500000
vt 1.000000 0.500000
s 1
g A_FoldedBowLoop1.001_ribbon_ribbon
usemtl ribbon_ribbon
f 107/43/191 187/44/192 136/45/193
f 111/46/194 187/44/192 135/47/195
f 138/48/196 137/49/197 187/44/192
f 187/44/192 108/50/198 136/45/193
s 6
f 109/43/203 189/44/204 142/45/205
f 140/47/206 144/48/207 189/44/204
f 189/44/204 114/51/208 143/49/209
f 189/44/204 110/50/210 142/45/205
s 1
f 147/52/215 138/48/196 111/46/194
f 115/53/216 191/54/217 147/52/215
f 149/55/218 148/56/219 191/54/217
f 191/54/217 112/51/220 138/48/196
s 6
f 113/46/225 193/54/226 144/48/207
f 150/52/227 153/55/228 193/54/226
f 193/54/226 118/57/229 152/56/230
f 144/48/207 152/56/230 114/51/208
s 1
f 155/58/235 149/55/218 115/53/216
f 119/59/236 195/60/237 155/58/235
f 157/61/238 156/62/239 195/60/237
f 195/60/237 116/57/240 149/55/218
s 6
f 117/53/245 197/60/246 153/55/228
f 158/58/247 161/61/248 197/60/246
f 197/60/246 122/63/249 160/62/250
f 153/55/228 160/62/250 118/57/229
s 1
f 119/59/236 199/64/255 157/61/238
f 163/65/256 165/66/257 199/64/255
f 199/64/255 124/67/258 164/68/259
f 157/61/238 164/68/259 120/63/260
s 6
f 166/65/265 161/61/248 121/59/266
f 125/69/267 201/64/268 166/65/265
f 169/66/269 168/68/270 201/64/268
f 201/64/268 122/63/249 161/61/248
s 1
f 123/69/275 203/70/276 165/66/257
f 171/71/277 173/72/278 203/70/276
f 203/70/276 128/73/279 172/74/280
f 165/66/257 172/74/280 124/67/258
s 6
f 174/71/285 169/66/269 125/69/267
f 129/75/286 205/70/287 174/71/285
f 177/72/288 176/74/289 205/70/287
f 205/70/287 126/67/290 169/66/269
s 1
f 179/76/295 173/72/278 127/75/296
f 131/77/297 207/78/298 179/76/295
f 207/78/298 132/79/299 180/80/300
f 173/72/278 180/80/300 128/73/279
s 6
f 182/76/305 177/72/288 129/75/286
f 133/77/306 209/78/307 182/76/305
f 209/78/307 134/79/308 184/80/309
f 177/72/288 184/80/309 130/73/310
s 1
f 107/43/191 135/47/195 187/44/192
f 111/46/194 138/48/196 187/44/192
f 138/48/196 112/51/220 137/49/197
f 187/44/192 137/49/197 108/50/198
s 6
f 109/43/203 140/47/206 189/44/204
f 140/47/206 113/46/225 144/48/207
f 189/44/204 144/48/207 114/51/208
f 189/44/204 143/49/209 110/50/210
s 1
f 147/52/215 191/54/217 138/48/196
f 115/53/216 149/55/218 191/54/217
f 149/55/218 116/57/240 148/56/219
f 191/54/217 148/56/219 112/51/220
s 6
f 113/46/225 150/52/227 193/54/226
f 150/52/227 117/53/245 153/55/228
f 193/54/226 153/55/228 118/57/229
f 144/48/207 193/54/226 152/56/230
s 1
f 155/58/235 195/60/237 149/55/218
f 119/59/236 157/61/238 195/60/237
f 157/61/238 120/63/260 156/62/239
f 195/60/237 156/62/239 116/57/240
s 6
f 117/53/245 158/58/247 197/60/246
f 158/58/247 121/59/266 161/61/248
f 197/60/246 161/61/248 122/63/249
f 153/55/228 197/60/246 160/62/250
s 1
f 119/59/236 163/65/256 199/64/255
f 163/65/256 123/69/275 165/66/257
f 199/64/255 165/66/257 124/67/258
f 157/61/238 199/64/255 164/68/259
s 6
f 166/65/265 201/64/268 161/61/248
f 125/69/267 169/66/269 201/64/268
f 169/66/269 126/67/290 168/68/270
f 201/64/268 168/68/270 122/63/249
s 1
f 123/69/275 171/71/277 203/70/276
f 171/71/277 127/75/296 173/72/278
f 203/70/276 173/72/278 128/73/279
f 165/66/257 203/70/276 172/74/280
s 6
f 174/71/285 205/70/287 169/66/269
f 129/75/286 177/72/288 205/70/287
f 177/72/288 130/73/310 176/74/289
f 205/70/287 176/74/289 126/67/290
s 1
f 179/76/295 207/78/298 173/72/278
f 131/77/297 181/82/363 207/78/298
f 207/78/298 181/82/363 132/79/299
f 173/72/278 207/78/298 180/80/300
s 6
f 182/76/305 209/78/307 177/72/288
f 133/77/306 185/82/368 209/78/307
f 209/78/307 185/82/368 134/79/308
f 177/72/288 209/78/307 184/80/309
s 0
g A_FoldedBowLoop1.001_ribbon_cut_edges
usemtl ribbon_cut_edges
f 108/43/199 188/44/199 139/45/199
f 112/46/200 188/44/200 137/47/200
f 141/48/201 140/49/201 188/44/201
f 188/44/202 109/50/202 139/45/202
f 110/43/211 190/44/211 145/45/211
f 143/47/212 146/48/212 190/44/212
f 146/48/213 135/49/213 190/44/213
f 190/44/214 107/50/214 145/45/214
f 148/52/221 141/48/221 112/46/221
f 148/52/222 151/55/222 192/54/222
f 192/54/223 117/57/223 150/56/223
f 192/54/224 113/51/224 141/48/224
f 114/46/231 194/54/231 146/48/231
f 152/52/232 154/55/232 194/54/232
f 154/55/233 147/56/233 194/54/233
f 146/48/234 147/56/234 111/51/234
f 116/53/241 196/60/241 151/55/241
f 156/58/242 159/61/242 196/60/242
f 196/60/243 121/63/243 158/62/243
f 151/55/244 158/62/244 117/57/244
f 160/58/251 154/55/251 118/53/251
f 122/59/252 198/60/252 160/58/252
f 162/61/253 155/62/253 198/60/253
f 198/60/254 115/57/254 154/55/254
f 120/59/261 200/64/261 159/61/261
f 164/65/262 167/66/262 200/64/262
f 200/64/263 125/67/263 166/68/263
f 159/61/264 166/68/264 121/63/264
f 168/65/271 162/61/271 122/59/271
f 126/69/272 202/64/272 168/65/272
f 170/66/273 163/68/273 202/64/273
f 202/64/274 119/63/274 162/61/274
f 124/69/281 204/70/281 167/66/281
f 172/71/282 175/72/282 204/70/282
f 175/72/283 174/74/283 204/70/283
f 167/66/284 174/74/284 125/67/284
f 176/71/291 170/66/291 126/69/291
f 130/75/292 206/70/292 176/71/292
f 178/72/293 171/74/293 206/70/293
f 206/70/294 123/67/294 170/66/294
f 180/76/301 175/72/301 128/75/301
f 132/77/302 208/78/302 180/76/302
f 208/78/303 133/79/303 182/80/303
f 208/78/304 129/73/304 175/72/304
f 130/75/311 210/78/311 178/72/311
f 134/77/312 210/78/312 184/76/312
f 210/78/313 131/79/313 179/80/313
f 178/72/314 179/80/314 127/73/314
f 145/81/315 142/45/315 110/43/315
f 145/81/316 136/82/316 211/83/316
f 136/82/317 139/84/317 211/83/317
f 142/45/318 139/84/318 109/50/318
f 186/81/319 181/45/319 131/43/319
f 186/81/320 185/82/320 212/83/320
f 185/82/321 183/84/321 212/83/321
f 181/45/322 183/84/322 132/50/322
f 108/43/323 137/47/323 188/44/323
f 112/46/324 141/48/324 188/44/324
f 141/48/325 113/51/325 140/49/325
f 188/44/326 140/49/326 109/50/326
f 110/43/327 143/47/327 190/44/327
f 143/47/328 114/46/328 146/48/328
f 146/48/329 111/51/329 135/49/329
f 190/44/330 135/49/330 107/50/330
f 148/52/331 192/54/331 141/48/331
f 148/52/332 116/53/332 151/55/332
f 192/54/333 151/55/333 117/57/333
f 192/54/334 150/56/334 113/51/334
f 114/46/335 152/52/335 194/54/335
f 152/52/336 118/53/336 154/55/336
f 154/55/337 115/57/337 147/56/337
f 146/48/338 194/54/338 147/56/338
f 116/53/339 156/58/339 196/60/339
f 156/58/340 120/59/340 159/61/340
f 196/60/341 159/61/341 121/63/341
f 151/55/342 196/60/342 158/62/342
f 160/58/343 198/60/343 154/55/343
f 122/59/344 162/61/344 198/60/344
f 162/61/345 119/63/345 155/62/345
f 198/60/346 155/62/346 115/57/346
f 120/59/347 164/65/347 200/64/347
f 164/65/348 124/69/348 167/66/348
f 200/64/349 167/66/349 125/67/349
f 159/61/350 200/64/350 166/68/350
f 168/65/351 202/64/351 162/61/351
f 126/69/352 170/66/352 202/64/352
f 170/66/353 123/67/353 163/68/353
f 202/64/354 163/68/354 119/63/354
f 124/69/355 172/71/355 204/70/355
f 172/71/356 128/75/356 175/72/356
f 175/72/357 129/73/357 174/74/357
f 167/66/358 204/70/358 174/74/358
f 176/71/359 206/70/359 170/66/359
f 130/75/360 178/72/360 206/70/360
f 178/72/361 127/73/361 171/74/361
f 206/70/362 171/74/362 123/67/362
f 180/76/364 208/78/364 175/72/364
f 132/77/365 183/82/365 208/78/365
f 208/78/366 183/82/366 133/79/366
f 208/78/367 182/80/367 129/73/367
f 130/75/369 184/76/369 210/78/369
f 134/77/370 186/82/370 210/78/370
f 210/78/371 186/82/371 131/79/371
f 178/72/372 210/78/372 179/80/372
f 145/81/373 211/83/373 142/45/373
f 145/81/374 107/77/374 136/82/374
f 136/82/375 108/79/375 139/84/375
f 142/45/376 211/83/376 139/84/376
f 186/81/377 212/83/377 181/45/377
f 186/81/378 134/77/378 185/82/378
f 185/82/379 133/79/379 183/84/379
f 181/45/380 212/83/380 183/84/380
g B_Tail-1.001_B_Tail-1.001
v -0.187002 0.119301 -0.027500
v -0.012998 0.020699 -0.027500
v -0.012998 0.020699 -0.052500
v -0.187002 0.119301 -0.052500
v -0.394407 -0.165790 0.002500
v -0.145593 -0.294210 0.002500
v -0.145593 -0.294210 -0.022500
v -0.394407 -0.165790 -0.022500
v -0.547668 -0.506114 0.042500
v -0.292332 -0.593886 0.042500
v -0.292332 -0.593886 0.017500
v -0.547668 -0.506114 0.017500
v -0.636535 -0.837945 -0.007500
v -0.343465 -0.902055 -0.007500
v -0.343465 -0.902055 -0.032500
v -0.636535 -0.837945 -0.032500
vn 0.0417 0.0764 0.9962
vn 0.0479 0.0916 0.9946
vn 0.0434 0.0766 0.9961
vn 0.9216 -0.3881 -0.0000
vn -0.0479 -0.0916 -0.9946
vn -0.0417 -0.0764 -0.9962
vn -0.0434 -0.0766 -0.9961
vn -0.8086 0.5883 -0.0000
vn 0.0428 0.0905 0.9950
vn 0.0004 -0.0225 0.9997
vn 0.8981 -0.4398 -0.0000
vn -0.0004 0.0225 -0.9997
vn -0.0428 -0.0905 -0.9950
vn -0.9118 0.4106 -0.0000
vn -0.0397 -0.1465 0.9884
vn -0.0064 -0.0187 0.9998
vn 0.9865 -0.1637 -0.0000
vn 0.0397 0.1465 -0.9884
vn 0.0064 0.0187 -0.9998
vn -0.9660 0.2587 -0.0000
vn 0.4930 0.8700 -0.0000
vn -0.2137 -0.9769 -0.0000
vn -0.0338 -0.1546 0.9874
vn 0.0338 0.1546 -0.9874
vt 0.000000 0.000000
vt 1.000000 0.333333
vt 1.000000 0.000000
vt 0.000000 0.333333
vt 1.000000 0.666667
vt 0.000000 0.666667
vt 0.000000 1.000000
vt 1.000000 1.000000
s 1
g B_Tail-1.001_ribbon_ribbon
usemtl ribbon_ribbon
f 213/85/381 218/86/382 214/87/383
s 3
f 219/88/385 216/87/386 215/85/387
s 1
f 217/88/389 222/89/390 218/86/382
s 3
f 223/90/392 220/86/393 219/88/385
s 1
f 225/91/395 222/89/390 221/90/396
s 3
f 223/90/392 228/92/398 224/89/399
s 1
f 213/85/381 217/88/389 218/86/382
s 3
f 219/88/385 220/86/393 216/87/386
s 1
f 217/88/389 221/90/396 222/89/390
s 3
f 223/90/392 224/89/399 220/86/393
s 1
f 225/91/395 226/92/403 222/89/390
s 3
f 223/90/392 227/91/404 228/92/398
s 0
g B_Tail-1.001_ribbon_cut_edges
usemtl ribbon_cut_edges
f 214/85/384 219/86/384 215/87/384
f 220/88/388 213/87/388 216/85/388
f 218/88/391 223/89/391 219/86/391
f 224/90/394 217/86/394 220/88/394
f 226/91/397 223/89/397 222/90/397
f 224/90/400 225/92/400 221/89/400
f 213/91/401 215/87/401 216/85/401
f 228/91/402 226/87/402 225/85/402
f 214/85/384 218/88/384 219/86/384
f 220/88/388 217/86/388 213/87/388
f 218/88/391 222/90/391 223/89/391
f 224/90/394 221/89/394 217/86/394
f 226/91/397 227/92/397 223/89/397
f 224/90/400 228/91/400 225/92/400
f 213/91/401 214/92/401 215/87/401
f 228/91/402 227/92/402 226/87/402
g B_Tail1.001_B_Tail1.001
v 0.012998 0.020699 -0.027500
v 0.187002 0.119301 -0.027500
v 0.187002 0.119301 -0.052500
v 0.012998 0.020699 -0.052500
v 0.145593 -0.294210 0.002500
v 0.394407 -0.165790 0.002500
v 0.394407 -0.165790 -0.022500
v 0.145593 -0.294210 -0.022500
v 0.292332 -0.593886 0.042500
v 0.547668 -0.506114 0.042500
v 0.547668 -0.506114 0.017500
v 0.292332 -0.593886 0.017500
v 0.343465 -0.902055 -0.007500
v 0.636535 -0.837945 -0.007500
v 0.636535 -0.837945 -0.032500
v 0.343465 -0.902055 -0.032500
vn -0.0479 0.0916 0.9946
vn -0.0417 0.0764 0.9962
vn -0.0434 0.0766 0.9961
vn 0.8086 0.5883 -0.0000
vn 0.0417 -0.0764 -0.9962
vn 0.0479 -0.0916 -0.9946
vn 0.0434 -0.0766 -0.9961
vn -0.9216 -0.3881 -0.0000
vn -0.0004 -0.0225 0.9997
vn -0.0428 0.0905 0.9950
vn 0.9118 0.4106 -0.0000
vn 0.0428 -0.0905 -0.9950
vn 0.0004 0.0225 -0.9997
vn -0.8981 -0.4398 -0.0000
vn 0.0397 -0.1465 0.9884
vn 0.0064 -0.0187 0.9998
vn 0.9660 0.2587 -0.0000
vn -0.0397 0.1465 -0.9884
vn -0.0064 0.0187 -0.9998
vn -0.9865 -0.1637 -0.0000
vn -0.4930 0.8700 -0.0000
vn 0.2137 -0.9769 -0.0000
vn 0.0338 -0.1546 0.9874
vn -0.0338 0.1546 -0.9874
vt 0.000000 0.333333
vt 1.000000 0.000000
vt 0.000000 0.000000
vt 1.000000 0.333333
vt 0.000000 0.666667
vt 1.000000 0.666667
vt 1.000000 1.000000
vt 0.000000 1.000000
s 1
g B_Tail1.001_ribbon_ribbon
usemtl ribbon_ribbon
f 233/93/405 230/94/406 229/95/407
s 3
f 231/95/409 236/96/410 232/94/411
s 1
f 237/97/413 234/96/414 233/93/405
s 3
f 235/93/416 240/98/417 236/96/410
s 1
f 237/97/413 242/99/419 238/98/420
s 3
f 243/100/422 240/98/417 239/97/423
s 1
f 233/93/405 234/96/414 230/94/406
s 3
f 231/95/409 235/93/416 236/96/410
s 1
f 237/97/413 238/98/420 234/96/414
s 3
f 235/93/416 239/97/423 240/98/417
s 1
f 237/97/413 241/100/427 242/99/419
s 3
f 243/100/422 244/99/428 240/98/417
s 0
g B_Tail1.001_ribbon_cut_edges
usemtl ribbon_cut_edges
f 230/95/408 235/96/408 231/94/408
f 236/93/412 229/94/412 232/95/412
f 234/93/415 239/98/415 235/96/415
f 240/97/418 233/96/418 236/93/418
f 242/100/421 239/98/421 238/97/421
f 240/97/424 241/99/424 237/98/424
f 229/100/425 231/94/425 232/95/425
f 244/100/426 242/94/426 241/95/426
f 230/95/408 234/93/408 235/96/408
f 236/93/412 233/96/412 229/94/412
f 234/93/415 238/97/415 239/98/415
f 240/97/418 237/98/418 233/96/418
f 242/100/421 243/99/421 239/98/421
f 240/97/424 244/100/424 241/99/424
f 229/100/425 230/99/425 231/94/425
f 244/100/426 243/99/426 242/94/426
g C_WrappedKnot.001_C_WrappedKnot.001
v 0.160000 -0.060000 0.120000
v 0.145370 -0.060000 0.038105
v 0.100794 -0.060000 0.001887
v 0.000000 -0.060000 -0.010000
v -0.100794 -0.060000 0.001887
v -0.145370 -0.060000 0.038105
v -0.160000 -0.060000 0.120000
v -0.145370 -0.060000 0.201895
v -0.100794 -0.060000 0.238113
v -0.000000 -0.060000 0.250000
v 0.100794 -0.060000 0.238113
v 0.145370 -0.060000 0.201895
v 0.170000 0.290000 0.120000
v 0.154455 0.290000 0.031806
v 0.107093 0.290000 -0.007198
v 0.000000 0.290000 -0.020000
v -0.107093 0.290000 -0.007198
v -0.154455 0.290000 0.031806
v -0.170000 0.290000 0.120000
v -0.154455 0.290000 0.208194
v -0.107093 0.290000 0.247198
v -0.000000 0.290000 0.260000
v 0.107093 0.290000 0.247198
v 0.154455 0.290000 0.208194
vn 0.8616 -0.0318 -0.5066
vn 0.9996 -0.0290 -0.0000
vn 0.9996 -0.0286 -0.0000
vn 0.3936 -0.0304 -0.9188
vn 0.8630 -0.0315 -0.5042
vn 0.3882 -0.0311 -0.9211
vn -0.0000 -0.0282 -0.9996
vn -0.3882 -0.0311 -0.9211
vn -0.0000 -0.0286 -0.9996
vn -0.8616 -0.0318 -0.5066
vn -0.3936 -0.0304 -0.9188
vn -0.9996 -0.0290 -0.0000
vn -0.8630 -0.0315 -0.5042
vn -0.8616 -0.0318 0.5066
vn -0.9996 -0.0286 -0.0000
vn -0.3936 -0.0304 0.9188
vn -0.8630 -0.0315 0.5042
vn -0.3882 -0.0311 0.9211
vn -0.0000 -0.0282 0.9996
vn 0.3882 -0.0311 0.9211
vn -0.0000 -0.0286 0.9996
vn 0.8616 -0.0318 0.5066
vn 0.3936 -0.0304 0.9188
vn 0.8630 -0.0315 0.5042
vn -0.0000 -1.0000 -0.0000
vn -0.0000 1.0000 -0.0000
vt 0.083333 0.000000
vt 0.000000 1.000000
vt 0.000000 0.000000
vt 0.166667 1.000000
vt 0.083333 1.000000
vt 0.166667 0.000000
vt 0.250000 1.000000
vt 0.333333 0.000000
vt 0.250000 0.000000
vt 0.416667 0.000000
vt 0.333333 1.000000
vt 0.500000 1.000000
vt 0.416667 1.000000
vt 0.583333 0.000000
vt 0.500000 0.000000
vt 0.666667 1.000000
vt 0.583333 1.000000
vt 0.666667 0.000000
vt 0.750000 1.000000
vt 0.833333 0.000000
vt 0.750000 0.000000
vt 0.916667 0.000000
vt 0.833333 1.000000
vt 1.000000 1.000000
vt 0.916667 1.000000
vt 0.185020 0.045720
vt 0.185020 0.954280
vt 1.000000 0.500000
vt 0.045720 0.185020
vt 0.954280 0.185020
vt 1.000000 0.000000
vt 0.814980 0.045720
vt 0.000000 0.500000
vt 0.045720 0.814980
vt 0.814980 0.954280
vt 0.954280 0.814980
s 1
g C_WrappedKnot.001_ribbon_ribbon
usemtl ribbon_ribbon
f 246/101/429 257/102/430 245/103/431
f 246/101/429 259/104/432 258/105/433
f 247/106/434 260/107/435 259/104/432
f 249/108/436 260/107/435 248/109/437
f 250/110/438 261/111/439 249/108/436
f 250/110/438 263/112/440 262/113/441
f 252/114/442 263/112/440 251/115/443
f 252/114/442 265/116/444 264/117/445
f 253/118/446 266/119/447 265/116/444
f 255/120/448 266/119/447 254/121/449
f 256/122/450 267/123/451 255/120/448
f 256/122/450 257/124/430 268/125/452
s 0
f 253/126/453 249/127/453 245/128/453
f 260/112/454 264/129/454 268/130/454
s 1
f 246/101/429 258/105/433 257/102/430
f 246/101/429 247/106/434 259/104/432
f 247/106/434 248/109/437 260/107/435
f 249/108/436 261/111/439 260/107/435
f 250/110/438 262/113/441 261/111/439
f 250/110/438 251/115/443 263/112/440
f 252/114/442 264/117/445 263/112/440
f 252/114/442 253/118/446 265/116/444
f 253/118/446 254/121/449 266/119/447
f 255/120/448 267/123/451 266/119/447
f 256/122/450 268/125/452 267/123/451
f 256/122/450 245/131/431 257/124/430
s 0
f 245/128/453 256/130/453 255/132/453
f 255/132/453 254/115/453 253/126/453
f 253/126/453 252/129/453 251/133/453
f 251/133/453 250/134/453 249/127/453
f 249/127/453 248/112/453 247/135/453
f 247/135/453 246/136/453 245/128/453
f 245/128/453 255/132/453 253/126/453
f 253/126/453 251/133/453 249/127/453
f 249/127/453 247/135/453 245/128/453
f 268/130/454 257/128/454 258/136/454
f 258/136/454 259/135/454 260/112/454
f 260/112/454 261/127/454 262/134/454
f 262/134/454 263/133/454 264/129/454
f 264/129/454 265/126/454 266/115/454
f 266/115/454 267/132/454 268/130/454
f 268/130/454 258/136/454 260/112/454
f 260/112/454 262/134/454 264/129/454
f 264/129/454 266/115/454 268/130/454
