# Blender 5.2.2 LTS
# www.blender.org
mtllib ruby_ring.mtl
g A_Band.001_A_Band.001
v 0.715000 0.000000 0.000000
v 0.667500 0.000000 -0.082272
v 0.572500 0.000000 -0.082272
v 0.525000 0.000000 -0.000000
v 0.572500 0.000000 0.082272
v 0.667500 0.000000 0.082272
v 0.660574 0.273619 0.000000
v 0.616690 0.255441 -0.082272
v 0.528921 0.219086 -0.082272
v 0.485037 0.200909 -0.000000
v 0.528921 0.219086 0.082272
v 0.616690 0.255441 0.082272
v 0.505581 0.505581 0.000000
v 0.471994 0.471994 -0.082272
v 0.404819 0.404819 -0.082272
v 0.371231 0.371231 -0.000000
v 0.404819 0.404819 0.082272
v 0.471994 0.471994 0.082272
v 0.273619 0.660574 0.000000
v 0.255441 0.616690 -0.082272
v 0.219086 0.528921 -0.082272
v 0.200909 0.485037 -0.000000
v 0.219086 0.528921 0.082272
v 0.255441 0.616690 0.082272
v 0.000000 0.715000 0.000000
v 0.000000 0.667500 -0.082272
v 0.000000 0.572500 -0.082272
v 0.000000 0.525000 -0.000000
v 0.000000 0.572500 0.082272
v 0.000000 0.667500 0.082272
v -0.273619 0.660574 0.000000
v -0.255441 0.616690 -0.082272
v -0.219086 0.528921 -0.082272
v -0.200909 0.485037 -0.000000
v -0.219086 0.528921 0.082272
v -0.255441 0.616690 0.082272
v -0.505581 0.505581 0.000000
v -0.471994 0.471994 -0.082272
v -0.404819 0.404819 -0.082272
v -0.371231 0.371231 -0.000000
v -0.404819 0.404819 0.082272
v -0.471994 0.471994 0.082272
v -0.660574 0.273619 0.000000
v -0.616690 0.255441 -0.082272
v -0.528921 0.219086 -0.082272
v -0.485037 0.200909 -0.000000
v -0.528921 0.219086 0.082272
v -0.616690 0.255441 0.082272
v -0.715000 0.000000 0.000000
v -0.667500 0.000000 -0.082272
v -0.572500 0.000000 -0.082272
v -0.525000 0.000000 -0.000000
v -0.572500 0.000000 0.082272
v -0.667500 0.000000 0.082272
v -0.660574 -0.273619 0.000000
v -0.616690 -0.255441 -0.082272
v -0.528921 -0.219086 -0.082272
v -0.485037 -0.200909 -0.000000
v -0.528921 -0.219086 0.082272
v -0.616690 -0.255441 0.082272
v -0.505581 -0.505581 0.000000
v -0.471994 -0.471994 -0.082272
v -0.404819 -0.404819 -0.082272
v -0.371231 -0.371231 -0.000000
v -0.404819 -0.404819 0.082272
v -0.471994 -0.471994 0.082272
v -0.273619 -0.660574 0.000000
v -0.255441 -0.616690 -0.082272
v -0.219086 -0.528921 -0.082272
v -0.200909 -0.485037 -0.000000
v -0.219086 -0.528921 0.082272
v -0.255441 -0.616690 0.082272
v -0.000000 -0.715000 0.000000
v -0.000000 -0.667500 -0.082272
v -0.000000 -0.572500 -0.082272
v -0.000000 -0.525000 -0.000000
v -0.000000 -0.572500 0.082272
v -0.000000 -0.667500 0.082272
v 0.273619 -0.660574 0.000000
v 0.255441 -0.616690 -0.082272
v 0.219086 -0.528921 -0.082272
v 0.200909 -0.485037 -0.000000
v 0.219086 -0.528921 0.082272
v 0.255441 -0.616690 0.082272
v 0.505581 -0.505581 0.000000
v 0.471994 -0.471994 -0.082272
v 0.404819 -0.404819 -0.082272
v 0.371231 -0.371231 -0.000000
v 0.404819 -0.404819 0.082272
v 0.471994 -0.471994 0.082272
v 0.660574 -0.273619 0.000000
v 0.616690 -0.255441 -0.082272
v 0.528921 -0.219086 -0.082272
v 0.485037 -0.200909 -0.000000
v 0.528921 -0.219086 0.082272
v 0.616690 -0.255441 0.082272
vn 0.8535 0.1698 -0.4927
vn -0.0000 -0.0000 -1.0000
vn -0.8535 -0.1698 -0.4927
vn -0.8535 -0.1698 0.4927
vn -0.0000 -0.0000 1.0000
vn 0.8535 0.1698 0.4927
vn 0.7235 0.4834 -0.4927
vn -0.7235 -0.4834 -0.4927
vn -0.7235 -0.4834 0.4927
vn 0.7235 0.4834 0.4927
vn 0.4834 0.7235 -0.4927
vn -0.4834 -0.7235 -0.4927
vn -0.4834 -0.7235 0.4927
vn 0.4834 0.7235 0.4927
vn 0.1698 0.8535 -0.4927
vn -0.1698 -0.8535 -0.4927
vn -0.1698 -0.8535 0.4927
vn 0.1698 0.8535 0.4927
vn -0.1698 0.8535 -0.4927
vn 0.1698 -0.8535 -0.4927
vn 0.1698 -0.8535 0.4927
vn -0.1698 0.8535 0.4927
vn -0.4834 0.7235 -0.4927
vn 0.4834 -0.7235 -0.4927
vn 0.4834 -0.7235 0.4927
vn -0.4834 0.7235 0.4927
vn -0.7235 0.4834 -0.4927
vn 0.7235 -0.4834 -0.4927
vn 0.7235 -0.4834 0.4927
vn -0.7235 0.4834 0.4927
vn -0.8535 0.1698 -0.4927
vn 0.8535 -0.1698 -0.4927
vn 0.8535 -0.1698 0.4927
vn -0.8535 0.1698 0.4927
s 0
g A_Band.001_ruby_ring_metal
usemtl ruby_ring_metal
f 8//1 1//1 2//1
f 9//2 2//2 3//2
f 10//3 3//3 4//3
f 11//4 4//4 5//4
f 12//5 5//5 6//5
f 1//6 12//6 6//6
f 8//7 13//7 7//7
f 15//2 8//2 9//2
f 16//8 9//8 10//8
f 11//9 16//9 10//9
f 12//5 17//5 11//5
f 13//10 12//10 7//10
f 20//11 13//11 14//11
f 15//2 20//2 14//2
f 16//12 21//12 15//12
f 23//13 16//13 17//13
f 24//5 17//5 18//5
f 13//14 24//14 18//14
f 26//15 19//15 20//15
f 27//2 20//2 21//2
f 28//16 21//16 22//16
f 29//17 22//17 23//17
f 30//5 23//5 24//5
f 25//18 24//18 19//18
f 26//19 31//19 25//19
f 33//2 26//2 27//2
f 34//20 27//20 28//20
f 35//21 28//21 29//21
f 36//5 29//5 30//5
f 25//22 36//22 30//22
f 38//23 31//23 32//23
f 39//2 32//2 33//2
f 40//24 33//24 34//24
f 35//25 40//25 34//25
f 36//5 41//5 35//5
f 37//26 36//26 31//26
f 44//27 37//27 38//27
f 39//2 44//2 38//2
f 40//28 45//28 39//28
f 47//29 40//29 41//29
f 48//5 41//5 42//5
f 43//30 42//30 37//30
f 44//31 49//31 43//31
f 51//2 44//2 45//2
f 52//32 45//32 46//32
f 53//33 46//33 47//33
f 54//5 47//5 48//5
f 49//34 48//34 43//34
f 56//3 49//3 50//3
f 57//2 50//2 51//2
f 58//1 51//1 52//1
f 59//6 52//6 53//6
f 60//5 53//5 54//5
f 49//4 60//4 54//4
f 56//8 61//8 55//8
f 63//2 56//2 57//2
f 64//7 57//7 58//7
f 59//10 64//10 58//10
f 60//5 65//5 59//5
f 61//9 60//9 55//9
f 68//12 61//12 62//12
f 63//2 68//2 62//2
f 64//11 69//11 63//11
f 71//14 64//14 65//14
f 72//5 65//5 66//5
f 61//13 72//13 66//13
f 74//16 67//16 68//16
f 75//2 68//2 69//2
f 76//15 69//15 70//15
f 77//18 70//18 71//18
f 78//5 71//5 72//5
f 73//17 72//17 67//17
f 74//20 79//20 73//20
f 81//2 74//2 75//2
f 82//19 75//19 76//19
f 83//22 76//22 77//22
f 84//5 77//5 78//5
f 73//21 84//21 78//21
f 86//24 79//24 80//24
f 87//2 80//2 81//2
f 88//23 81//23 82//23
f 83//26 88//26 82//26
f 84//5 89//5 83//5
f 85//25 84//25 79//25
f 92//28 85//28 86//28
f 87//2 92//2 86//2
f 88//27 93//27 87//27
f 95//30 88//30 89//30
f 96//5 89//5 90//5
f 91//29 90//29 85//29
f 92//32 1//32 91//32
f 3//2 92//2 93//2
f 4//31 93//31 94//31
f 5//34 94//34 95//34
f 6//5 95//5 96//5
f 1//33 96//33 91//33
f 8//1 7//1 1//1
f 9//2 8//2 2//2
f 10//3 9//3 3//3
f 11//4 10//4 4//4
f 12//5 11//5 5//5
f 1//6 7//6 12//6
f 8//7 14//7 13//7
f 15//2 14//2 8//2
f 16//8 15//8 9//8
f 11//9 17//9 16//9
f 12//5 18//5 17//5
f 13//10 18//10 12//10
f 20//11 19//11 13//11
f 15//2 21//2 20//2
f 16//12 22//12 21//12
f 23//13 22//13 16//13
f 24//5 23//5 17//5
f 13//14 19//14 24//14
f 26//15 25//15 19//15
f 27//2 26//2 20//2
f 28//16 27//16 21//16
f 29//17 28//17 22//17
f 30//5 29//5 23//5
f 25//18 30//18 24//18
f 26//19 32//19 31//19
f 33//2 32//2 26//2
f 34//20 33//20 27//20
f 35//21 34//21 28//21
f 36//5 35//5 29//5
f 25//22 31//22 36//22
f 38//23 37//23 31//23
f 39//2 38//2 32//2
f 40//24 39//24 33//24
f 35//25 41//25 40//25
f 36//5 42//5 41//5
f 37//26 42//26 36//26
f 44//27 43//27 37//27
f 39//2 45//2 44//2
f 40//28 46//28 45//28
f 47//29 46//29 40//29
f 48//5 47//5 41//5
f 43//30 48//30 42//30
f 44//31 50//31 49//31
f 51//2 50//2 44//2
f 52//32 51//32 45//32
f 53//33 52//33 46//33
f 54//5 53//5 47//5
f 49//34 54//34 48//34
f 56//3 55//3 49//3
f 57//2 56//2 50//2
f 58//1 57//1 51//1
f 59//6 58//6 52//6
f 60//5 59//5 53//5
f 49//4 55//4 60//4
f 56//8 62//8 61//8
f 63//2 62//2 56//2
f 64//7 63//7 57//7
f 59//10 65//10 64//10
f 60//5 66//5 65//5
f 61//9 66//9 60//9
f 68//12 67//12 61//12
f 63//2 69//2 68//2
f 64//11 70//11 69//11
f 71//14 70//14 64//14
f 72//5 71//5 65//5
f 61//13 67//13 72//13
f 74//16 73//16 67//16
f 75//2 74//2 68//2
f 76//15 75//15 69//15
f 77//18 76//18 70//18
f 78//5 77//5 71//5
f 73//17 78//17 72//17
f 74//20 80//20 79//20
f 81//2 80//2 74//2
f 82//19 81//19 75//19
f 83//22 82//22 76//22
f 84//5 83//5 77//5
f 73//21 79//21 84//21
f 86//24 85//24 79//24
f 87//2 86//2 80//2
f 88//23 87//23 81//23
f 83//26 89//26 88//26
f 84//5 90//5 89//5
f 85//25 90//25 84//25
f 92//28 91//28 85//28
f 87//2 93//2 92//2
f 88//27 94//27 93//27
f 95//30 94//30 88//30
f 96//5 95//5 89//5
f 91//29 96//29 90//29
f 92//32 2//32 1//32
f 3//2 2//2 92//2
f 4//31 3//31 93//31
f 5//34 4//34 94//34
f 6//5 5//5 95//5
f 1//33 6//33 96//33
g B_Collar.001_B_Collar.001
v 0.000000 0.620000 0.000000
v 0.336000 0.620000 0.000000
v 0.237588 0.620000 -0.237588
v 0.000000 0.620000 -0.336000
v -0.237588 0.620000 -0.237588
v -0.336000 0.620000 -0.000000
v -0.237588 0.620000 0.237588
v -0.000000 0.620000 0.336000
v 0.237588 0.620000 0.237588
v 0.280000 0.760000 0.000000
v 0.197990 0.760000 -0.197990
v 0.000000 0.760000 -0.280000
v -0.197990 0.760000 -0.197990
v -0.280000 0.760000 -0.000000
v -0.197990 0.760000 0.197990
v -0.000000 0.760000 0.280000
v 0.197990 0.760000 0.197990
v 0.000000 0.760000 0.000000
vn -0.0000 -1.0000 -0.0000
vn 0.8666 0.3466 -0.3590
vn 0.3590 0.3466 -0.8666
vn -0.3590 0.3466 -0.8666
vn -0.8666 0.3466 -0.3590
vn -0.8666 0.3466 0.3590
vn -0.3590 0.3466 0.8666
vn 0.3590 0.3466 0.8666
vn 0.8666 0.3466 0.3590
vn -0.0000 1.0000 -0.0000
s 0
g B_Collar.001_ruby_ring_metal
usemtl ruby_ring_metal
f 97//35 99//35 98//35
f 97//35 100//35 99//35
f 97//35 101//35 100//35
f 97//35 102//35 101//35
f 97//35 103//35 102//35
f 97//35 104//35 103//35
f 97//35 105//35 104//35
f 97//35 98//35 105//35
f 99//36 106//36 98//36
f 100//37 107//37 99//37
f 101//38 108//38 100//38
f 102//39 109//39 101//39
f 103//40 110//40 102//40
f 104//41 111//41 103//41
f 105//42 112//42 104//42
f 98//43 113//43 105//43
f 106//44 107//44 114//44
f 107//44 108//44 114//44
f 108//44 109//44 114//44
f 109//44 110//44 114//44
f 110//44 111//44 114//44
f 111//44 112//44 114//44
f 112//44 113//44 114//44
f 113//44 106//44 114//44
f 99//36 107//36 106//36
f 100//37 108//37 107//37
f 101//38 109//38 108//38
f 102//39 110//39 109//39
f 103//40 111//40 110//40
f 104//41 112//41 111//41
f 105//42 113//42 112//42
f 98//43 106//43 113//43
g C_Stone.001_C_Stone.001
v 0.000000 0.760000 0.000000
v 0.168000 0.900000 0.000000
v 0.118794 0.900000 -0.118794
v 0.000000 0.900000 -0.168000
v -0.118794 0.900000 -0.118794
v -0.168000 0.900000 -0.000000
v -0.118794 0.900000 0.118794
v -0.000000 0.900000 0.168000
v 0.118794 0.900000 0.118794
v 0.322000 1.068000 0.000000
v 0.227688 1.068000 -0.227688
v 0.000000 1.068000 -0.322000
v -0.227688 1.068000 -0.227688
v -0.322000 1.068000 -0.000000
v -0.227688 1.068000 0.227688
v -0.000000 1.068000 0.322000
v 0.227688 1.068000 0.227688
v 0.322000 1.138000 0.000000
v 0.227688 1.138000 -0.227688
v 0.000000 1.138000 -0.322000
v -0.227688 1.138000 -0.227688
v -0.322000 1.138000 -0.000000
v -0.227688 1.138000 0.227688
v -0.000000 1.138000 0.322000
v 0.227688 1.138000 0.227688
v 0.210000 1.278000 0.000000
v 0.148492 1.278000 -0.148492
v 0.000000 1.278000 -0.210000
v -0.148492 1.278000 -0.148492
v -0.210000 1.278000 -0.000000
v -0.148492 1.278000 0.148492
v -0.000000 1.278000 0.210000
v 0.148492 1.278000 0.148492
v 0.000000 1.278000 0.000000
vn 0.6188 -0.7426 -0.2563
vn 0.2563 -0.7426 -0.6188
vn -0.2563 -0.7426 -0.6188
vn -0.6188 -0.7426 -0.2563
vn -0.6188 -0.7426 0.2563
vn -0.2563 -0.7426 0.6188
vn 0.2563 -0.7426 0.6188
vn 0.6188 -0.7426 0.2563
vn 0.7050 -0.6463 -0.2920
vn 0.2920 -0.6463 -0.7050
vn -0.2920 -0.6463 -0.7050
vn -0.7050 -0.6463 -0.2920
vn -0.7050 -0.6463 0.2920
vn -0.2920 -0.6463 0.7050
vn 0.2920 -0.6463 0.7050
vn 0.7050 -0.6463 0.2920
vn 0.9239 -0.0000 -0.3827
vn 0.3827 -0.0000 -0.9239
vn -0.3827 -0.0000 -0.9239
vn -0.9239 -0.0000 -0.3827
vn -0.9239 -0.0000 0.3827
vn -0.3827 -0.0000 0.9239
vn 0.3827 -0.0000 0.9239
vn 0.9239 -0.0000 0.3827
vn 0.7430 0.5944 -0.3077
vn 0.3077 0.5944 -0.7430
vn -0.3077 0.5944 -0.7430
vn -0.7430 0.5944 -0.3077
vn -0.7430 0.5944 0.3077
vn -0.3077 0.5944 0.7430
vn 0.3077 0.5944 0.7430
vn 0.7430 0.5944 0.3077
vn -0.0000 1.0000 -0.0000
s 0
g C_Stone.001_ruby_ring_stone
usemtl ruby_ring_stone
f 115//45 117//45 116//45
f 115//46 118//46 117//46
f 115//47 119//47 118//47
f 115//48 120//48 119//48
f 115//49 121//49 120//49
f 115//50 122//50 121//50
f 115//51 123//51 122//51
f 115//52 116//52 123//52
f 117//53 124//53 116//53
f 118//54 125//54 117//54
f 119//55 126//55 118//55
f 120//56 127//56 119//56
f 121//57 128//57 120//57
f 122//58 129//58 121//58
f 123//59 130//59 122//59
f 116//60 131//60 123//60
f 125//61 132//61 124//61
f 126//62 133//62 125//62
f 127//63 134//63 126//63
f 128//64 135//64 127//64
f 129//65 136//65 128//65
f 130//66 137//66 129//66
f 131//67 138//67 130//67
f 124//68 139//68 131//68
f 133//69 140//69 132//69
f 134//70 141//70 133//70
f 135//71 142//71 134//71
f 136//72 143//72 135//72
f 137//73 144//73 136//73
f 138//74 145//74 137//74
f 139//75 146//75 138//75
f 132//76 147//76 139//76
f 140//77 141//77 148//77
f 141//77 142//77 148//77
f 142//77 143//77 148//77
f 143//77 144//77 148//77
f 144//77 145//77 148//77
f 145//77 146//77 148//77
f 146//77 147//77 148//77
f 147//77 140//77 148//77
f 117//53 125//53 124//53
f 118//54 126//54 125//54
f 119//55 127//55 126//55
f 120//56 128//56 127//56
f 121//57 129//57 128//57
f 122//58 130//58 129//58
f 123//59 131//59 130//59
f 116//60 124//60 131//60
f 125//61 133//61 132//61
f 126//62 134//62 133//62
f 127//63 135//63 134//63
f 128//64 136//64 135//64
f 129//65 137//65 136//65
f 130//66 138//66 137//66
f 131//67 139//67 138//67
f 124//68 132//68 139//68
f 133//69 141//69 140//69
f 134//70 142//70 141//70
f 135//71 143//71 142//71
f 136//72 144//72 143//72
f 137//73 145//73 144//73
f 138//74 146//74 145//74
f 139//75 147//75 146//75
f 132//76 140//76 147//76
g D_Prong0.001_D_Prong0.001
v 0.247487 0.760000 -0.247487
v 0.303487 0.760000 -0.247487
v 0.247487 0.760000 -0.303487
v 0.191487 0.760000 -0.247487
v 0.247487 0.760000 -0.191487
v 0.289487 1.124000 -0.247487
v 0.247487 1.124000 -0.289487
v 0.205487 1.124000 -0.247487
v 0.247487 1.124000 -0.205487
v 0.247487 1.180000 -0.247487
vn -0.0000 -1.0000 -0.0000
vn 0.7068 0.0272 -0.7068
vn -0.7068 0.0272 -0.7068
vn -0.7068 0.0272 0.7068
vn 0.7068 0.0272 0.7068
vn 0.6247 0.4685 -0.6247
vn -0.6247 0.4685 -0.6247
vn -0.6247 0.4685 0.6247
vn 0.6247 0.4685 0.6247
s 0
g D_Prong0.001_ruby_ring_metal
usemtl ruby_ring_metal
f 149//78 151//78 150//78
f 149//78 152//78 151//78
f 149//78 153//78 152//78
f 149//78 150//78 153//78
f 150//79 155//79 154//79
f 151//80 156//80 155//80
f 152//81 157//81 156//81
f 153//82 154//82 157//82
f 154//83 155//83 158//83
f 155//84 156//84 158//84
f 156//85 157//85 158//85
f 157//86 154//86 158//86
f 150//79 151//79 155//79
f 151//80 152//80 156//80
f 152//81 153//81 157//81
f 153//82 150//82 154//82
g D_Prong1.001_D_Prong1.001
v -0.247487 0.760000 -0.247487
v -0.191487 0.760000 -0.247487
v -0.247487 0.760000 -0.303487
v -0.303487 0.760000 -0.247487
v -0.247487 0.760000 -0.191487
v -0.205487 1.124000 -0.247487
v -0.247487 1.124000 -0.289487
v -0.289487 1.124000 -0.247487
v -0.247487 1.124000 -0.205487
v -0.247487 1.180000 -0.247487
vn -0.0000 -1.0000 -0.0000
vn 0.7068 0.0272 -0.7068
vn -0.7068 0.0272 -0.7068
vn -0.7068 0.0272 0.7068
vn 0.7068 0.0272 0.7068
vn 0.6247 0.4685 -0.6247
vn -0.6247 0.4685 -0.6247
vn -0.6247 0.4685 0.6247
vn 0.6247 0.4685 0.6247
s 0
g D_Prong1.001_ruby_ring_metal
usemtl ruby_ring_metal
f 159//87 161//87 160//87
f 159//87 162//87 161//87
f 159//87 163//87 162//87
f 159//87 160//87 163//87
f 160//88 165//88 164//88
f 161//89 166//89 165//89
f 162//90 167//90 166//90
f 163//91 164//91 167//91
f 164//92 165//92 168//92
f 165//93 166//93 168//93
f 166//94 167//94 168//94
f 167//95 164//95 168//95
f 160//88 161//88 165//88
f 161//89 162//89 166//89
f 162//90 163//90 167//90
f 163//91 160//91 164//91
g D_Prong2.001_D_Prong2.001
v -0.247487 0.760000 0.247487
v -0.191487 0.760000 0.247487
v -0.247487 0.760000 0.191487
v -0.303487 0.760000 0.247487
v -0.247487 0.760000 0.303487
v -0.205487 1.124000 0.247487
v -0.247487 1.124000 0.205487
v -0.289487 1.124000 0.247487
v -0.247487 1.124000 0.289487
v -0.247487 1.180000 0.247487
vn -0.0000 -1.0000 -0.0000
vn 0.7068 0.0272 -0.7068
vn -0.7068 0.0272 -0.7068
vn -0.7068 0.0272 0.7068
vn 0.7068 0.0272 0.7068
vn 0.6247 0.4685 -0.6247
vn -0.6247 0.4685 -0.6247
vn -0.6247 0.4685 0.6247
vn 0.6247 0.4685 0.6247
s 0
g D_Prong2.001_ruby_ring_metal
usemtl ruby_ring_metal
f 169//96 171//96 170//96
f 169//96 172//96 171//96
f 169//96 173//96 172//96
f 169//96 170//96 173//96
f 170//97 175//97 174//97
f 171//98 176//98 175//98
f 172//99 177//99 176//99
f 173//100 174//100 177//100
f 174//101 175//101 178//101
f 175//102 176//102 178//102
f 176//103 177//103 178//103
f 177//104 174//104 178//104
f 170//97 171//97 175//97
f 171//98 172//98 176//98
f 172//99 173//99 177//99
f 173//100 170//100 174//100
g D_Prong3.001_D_Prong3.001
v 0.247487 0.760000 0.247487
v 0.303487 0.760000 0.247487
v 0.247487 0.760000 0.191487
v 0.191487 0.760000 0.247487
v 0.247487 0.760000 0.303487
v 0.289487 1.124000 0.247487
v 0.247487 1.124000 0.205487
v 0.205487 1.124000 0.247487
v 0.247487 1.124000 0.289487
v 0.247487 1.180000 0.247487
vn -0.0000 -1.0000 -0.0000
vn 0.7068 0.0272 -0.7068
vn -0.7068 0.0272 -0.7068
vn -0.7068 0.0272 0.7068
vn 0.7068 0.0272 0.7068
vn 0.6247 0.4685 -0.6247
vn -0.6247 0.4685 -0.6247
vn -0.6247 0.4685 0.6247
vn 0.6247 0.4685 0.6247
s 0
g D_Prong3.001_ruby_ring_metal
usemtl ruby_ring_metal
f 179//105 181//105 180//105
f 179//105 182//105 181//105
f 179//105 183//105 182//105
f 179//105 180//105 183//105
f 180//106 185//106 184//106
f 181//107 186//107 185//107
f 182//108 187//108 186//108
f 183//109 184//109 187//109
f 184//110 185//110 188//110
f 185//111 186//111 188//111
f 186//112 187//112 188//112
f 187//113 184//113 188//113
f 180//106 181//106 185//106
f 181//107 182//107 186//107
f 182//108 183//108 187//108
f 183//109 180//109 184//109
