# Blender 5.2.2 LTS
# www.blender.org
mtllib untarnished_signet.mtl
g A_ClosedDSectionBandAndShoulders.001_A_ClosedDSectionBandAndShoulders.001
v 0.610000 -0.158166 0.083702
v 0.610000 -0.067360 -0.165787
v 0.642400 -0.052226 -0.207368
v 0.812500 -0.052226 -0.207368
v 0.880000 -0.070387 -0.157470
v 0.880000 -0.155139 0.075386
v 0.812500 -0.173301 0.125283
v 0.642400 -0.173301 0.125283
v 0.607063 -0.101982 0.104153
v 0.607063 -0.011175 -0.145339
v 0.639308 0.006944 -0.185834
v 0.808594 0.022612 -0.180132
v 0.875772 0.010668 -0.127971
v 0.875772 -0.074086 0.104888
v 0.808594 -0.098465 0.152524
v 0.639308 -0.114132 0.146821
v 0.598279 -0.046356 0.124454
v 0.598279 0.044486 -0.125134
v 0.630073 0.065570 -0.164569
v 0.796995 0.096770 -0.153213
v 0.863233 0.090983 -0.098789
v 0.863233 0.006196 0.134159
v 0.796995 -0.024353 0.179571
v 0.630073 -0.055554 0.168215
v 0.583734 0.008096 0.144628
v 0.583734 0.099167 -0.105587
v 0.614820 0.123207 -0.144064
v 0.778024 0.169728 -0.127132
v 0.842787 0.169975 -0.070370
v 0.842787 0.084976 0.163164
v 0.778024 0.048301 0.206488
v 0.614820 0.001779 0.189555
v 0.563567 0.060666 0.164988
v 0.563567 0.152525 -0.087393
v 0.593738 0.179579 -0.125182
v 0.752138 0.241234 -0.102741
v 0.814995 0.247328 -0.043360
v 0.814995 0.161593 0.192195
v 0.752138 0.118755 0.233766
v 0.593738 0.057100 0.211326
v 0.537972 0.110551 0.186152
v 0.537972 0.204343 -0.071539
v 0.567069 0.234590 -0.109169
v 0.719827 0.311317 -0.081242
v 0.780446 0.323006 -0.018622
v 0.780446 0.235467 0.221889
v 0.719827 0.186261 0.262346
v 0.567069 0.109534 0.234419
v 0.507196 0.156899 0.208937
v 0.507196 0.254494 -0.059202
v 0.535087 0.288272 -0.097519
v 0.681510 0.380208 -0.064056
v 0.739615 0.397172 0.002850
v 0.739615 0.306084 0.253114
v 0.681510 0.250082 0.293463
v 0.535087 0.158145 0.260001
v 0.471536 0.198886 0.234161
v 0.471536 0.302872 -0.051536
v 0.498084 0.340676 -0.091700
v 0.637461 0.448161 -0.052579
v 0.692770 0.470017 0.020085
v 0.692770 0.372965 0.286735
v 0.637461 0.309515 0.328350
v 0.498084 0.202029 0.289229
v 0.431335 0.235820 0.262374
v 0.431335 0.349299 -0.049408
v 0.456367 0.391734 -0.092810
v 0.587783 0.515225 -0.047864
v 0.639932 0.541533 0.032329
v 0.639932 0.435619 0.323325
v 0.587783 0.363919 0.367846
v 0.456367 0.240428 0.322899
v 0.386980 0.267233 0.293608
v 0.386980 0.393440 -0.053143
v 0.410252 0.441122 -0.101236
v 0.532433 0.581021 -0.050316
v 0.580918 0.611295 0.039240
v 0.580918 0.493502 0.362874
v 0.532433 0.412745 0.412018
v 0.410252 0.272846 0.361098
v 0.338898 0.292957 0.327193
v 0.338898 0.434734 -0.062335
v 0.360085 0.488159 -0.116411
v 0.471316 0.644590 -0.059475
v 0.515455 0.678310 0.041024
v 0.515455 0.545985 0.404583
v 0.471316 0.455554 0.459895
v 0.360085 0.299124 0.402959
v 0.287552 0.313148 0.361701
v 0.287552 0.472382 -0.075791
v 0.306247 0.531788 -0.136744
v 0.404398 0.704341 -0.073940
v 0.443346 0.740967 0.038481
v 0.443346 0.592349 0.446806
v 0.404398 0.492029 0.509383
v 0.306247 0.319476 0.446579
v 0.233437 0.328248 0.395047
v 0.233437 0.505384 -0.091630
v 0.249181 0.570625 -0.159742
v 0.331841 0.758147 -0.091490
v 0.364642 0.797134 0.032930
v 0.364642 0.631807 0.487162
v 0.331841 0.521966 0.557413
v 0.249181 0.334444 0.489160
v 0.177074 0.338903 0.424738
v 0.177074 0.532631 -0.107526
v 0.189400 0.603103 -0.182338
v 0.254113 0.803568 -0.109375
v 0.279793 0.844372 0.026031
v 0.279793 0.663559 0.522811
v 0.254113 0.545264 0.600310
v 0.189400 0.344799 0.527346
v 0.119005 0.345832 0.448228
v 0.119005 0.553038 -0.121066
v 0.127492 0.627668 -0.201355
v 0.172050 0.838165 -0.124740
v 0.189732 0.880255 0.019521
v 0.189732 0.686863 0.550863
v 0.172050 0.561890 0.634319
v 0.127492 0.351393 0.557704
v 0.059790 0.349687 0.463320
v 0.059790 0.565692 -0.130150
v 0.064120 0.643000 -0.214027
v 0.086850 0.859861 -0.135096
v 0.095869 0.902716 0.014920
v 0.095869 0.701110 0.568825
v 0.086850 0.571853 0.656197
v 0.064120 0.354992 0.577267
v 0.000000 0.350917 0.468526
v 0.000000 0.569981 -0.133347
v 0.000000 0.648214 -0.218473
v 0.000000 0.867257 -0.138748
v 0.000000 0.910365 0.013263
v 0.000000 0.705906 0.575011
v 0.000000 0.575171 0.663749
v 0.000000 0.356129 0.584024
v -0.059790 0.349687 0.463320
v -0.059790 0.565692 -0.130150
v -0.064120 0.643000 -0.214027
v -0.086850 0.859861 -0.135096
v -0.095869 0.902716 0.014920
v -0.095869 0.701110 0.568825
v -0.086850 0.571853 0.656197
v -0.064120 0.354992 0.577267
v -0.119005 0.345832 0.448228
v -0.119005 0.553038 -0.121066
v -0.127492 0.627668 -0.201355
v -0.172050 0.838165 -0.124740
v -0.189732 0.880255 0.019521
v -0.189732 0.686863 0.550863
v -0.172050 0.561890 0.634319
v -0.127492 0.351393 0.557704
v -0.177074 0.338903 0.424738
v -0.177074 0.532631 -0.107526
v -0.189400 0.603103 -0.182338
v -0.254113 0.803568 -0.109375
v -0.279793 0.844372 0.026031
v -0.279793 0.663559 0.522811
v -0.254113 0.545264 0.600310
v -0.189400 0.344799 0.527346
v -0.233437 0.328248 0.395047
v -0.233437 0.505384 -0.091630
v -0.249181 0.570625 -0.159742
v -0.331841 0.758147 -0.091490
v -0.364642 0.797134 0.032930
v -0.364642 0.631807 0.487162
v -0.331841 0.521966 0.557413
v -0.249181 0.334444 0.489160
v -0.287552 0.313148 0.361701
v -0.287552 0.472382 -0.075791
v -0.306247 0.531788 -0.136744
v -0.404398 0.704341 -0.073940
v -0.443346 0.740967 0.038481
v -0.443346 0.592349 0.446806
v -0.404398 0.492029 0.509383
v -0.306247 0.319476 0.446579
v -0.338898 0.292957 0.327193
v -0.338898 0.434734 -0.062335
v -0.360085 0.488159 -0.116411
v -0.471316 0.644590 -0.059475
v -0.515455 0.678310 0.041024
v -0.515455 0.545985 0.404583
v -0.471316 0.455554 0.459895
v -0.360085 0.299124 0.402959
v -0.386980 0.267233 0.293608
v -0.386980 0.393440 -0.053143
v -0.410252 0.441122 -0.101236
v -0.532433 0.581021 -0.050316
v -0.580918 0.611295 0.039240
v -0.580918 0.493502 0.362874
v -0.532433 0.412745 0.412018
v -0.410252 0.272846 0.361098
v -0.431335 0.235820 0.262374
v -0.431335 0.349299 -0.049408
v -0.456367 0.391734 -0.092810
v -0.587783 0.515225 -0.047864
v -0.639932 0.541533 0.032329
v -0.639932 0.435619 0.323325
v -0.587783 0.363919 0.367846
v -0.456367 0.240428 0.322899
v -0.471536 0.198886 0.234161
v -0.471536 0.302872 -0.051536
v -0.498084 0.340676 -0.091700
v -0.637461 0.448161 -0.052579
v -0.692770 0.470017 0.020085
v -0.692770 0.372965 0.286735
v -0.637461 0.309515 0.328350
v -0.498084 0.202029 0.289229
v -0.507196 0.156899 0.208937
v -0.507196 0.254494 -0.059202
v -0.535087 0.288272 -0.097519
v -0.681510 0.380208 -0.064056
v -0.739615 0.397172 0.002850
v -0.739615 0.306084 0.253114
v -0.681510 0.250082 0.293463
v -0.535087 0.158145 0.260001
v -0.537972 0.110551 0.186152
v -0.537972 0.204343 -0.071539
v -0.567069 0.234590 -0.109169
v -0.719827 0.311317 -0.081242
v -0.780446 0.323006 -0.018622
v -0.780446 0.235467 0.221889
v -0.719827 0.186261 0.262346
v -0.567069 0.109534 0.234419
v -0.563567 0.060666 0.164988
v -0.563567 0.152525 -0.087393
v -0.593738 0.179579 -0.125182
v -0.752138 0.241234 -0.102741
v -0.814995 0.247328 -0.043360
v -0.814995 0.161593 0.192195
v -0.752138 0.118755 0.233766
v -0.593738 0.057100 0.211326
v -0.583734 0.008096 0.144628
v -0.583734 0.099167 -0.105587
v -0.614820 0.123207 -0.144064
v -0.778024 0.169728 -0.127132
v -0.842787 0.169975 -0.070370
v -0.842787 0.084976 0.163164
v -0.778024 0.048301 0.206488
v -0.614820 0.001779 0.189555
v -0.598279 -0.046356 0.124454
v -0.598279 0.044486 -0.125134
v -0.630073 0.065570 -0.164569
v -0.796995 0.096770 -0.153213
v -0.863233 0.090983 -0.098789
v -0.863233 0.006196 0.134159
v -0.796995 -0.024353 0.179571
v -0.630073 -0.055554 0.168215
v -0.607063 -0.101982 0.104153
v -0.607063 -0.011175 -0.145339
v -0.639308 0.006944 -0.185834
v -0.808594 0.022612 -0.180132
v -0.875772 0.010668 -0.127971
v -0.875772 -0.074086 0.104888
v -0.808594 -0.098465 0.152524
v -0.639308 -0.114132 0.146821
v -0.610000 -0.158166 0.083702
v -0.610000 -0.067360 -0.165787
v -0.642400 -0.052226 -0.207368
v -0.812500 -0.052226 -0.207368
v -0.880000 -0.070387 -0.157470
v -0.880000 -0.155139 0.075386
v -0.812500 -0.173301 0.125283
v -0.642400 -0.173301 0.125283
v -0.607063 -0.214351 0.063252
v -0.607063 -0.123545 -0.186236
v -0.639307 -0.111394 -0.228904
v -0.808588 -0.127062 -0.234606
v -0.875763 -0.151440 -0.186971
v -0.875763 -0.236193 0.045885
v -0.808588 -0.248137 0.098045
v -0.639307 -0.232470 0.103747
v -0.598279 -0.269994 0.043000
v -0.598279 -0.179188 -0.206489
v -0.630056 -0.169994 -0.250232
v -0.796888 -0.201177 -0.261582
v -0.863091 -0.231713 -0.216188
v -0.863091 -0.316465 0.016668
v -0.796888 -0.322252 0.071069
v -0.630056 -0.291069 0.082419
v -0.583734 -0.324561 0.023139
v -0.583734 -0.233755 -0.226349
v -0.614738 -0.227458 -0.271148
v -0.777514 -0.273858 -0.288036
v -0.842107 -0.310432 -0.244840
v -0.842107 -0.395184 -0.011984
v -0.777514 -0.394933 0.044616
v -0.614738 -0.348533 0.061504
v -0.563567 -0.377525 0.003862
v -0.563567 -0.286719 -0.245627
v -0.593500 -0.283236 -0.291449
v -0.750652 -0.344404 -0.313712
v -0.813014 -0.386839 -0.272649
v -0.813014 -0.471592 -0.039794
v -0.750652 -0.465480 0.018939
v -0.593500 -0.404311 0.041202
v -0.537972 -0.428377 -0.014647
v -0.537972 -0.337570 -0.264135
v -0.566546 -0.336788 -0.310940
v -0.716561 -0.412137 -0.338365
v -0.776091 -0.460199 -0.299350
v -0.776091 -0.544951 -0.066494
v -0.716561 -0.533212 -0.005714
v -0.566546 -0.457863 0.021711
v -0.507196 -0.476626 -0.032208
v -0.507196 -0.385820 -0.281696
v -0.534136 -0.387600 -0.329434
v -0.675569 -0.476404 -0.361756
v -0.731693 -0.529804 -0.324685
v -0.731693 -0.614557 -0.091829
v -0.675569 -0.597479 -0.029105
v -0.534136 -0.508675 0.003217
v -0.471536 -0.521808 -0.048653
v -0.471536 -0.431002 -0.298141
v -0.496582 -0.435182 -0.346753
v -0.628071 -0.536585 -0.383660
v -0.680249 -0.594985 -0.348409
v -0.680249 -0.679738 -0.115553
v -0.628071 -0.657660 -0.051009
v -0.496582 -0.556258 -0.014102
v -0.431335 -0.563489 -0.063823
v -0.431335 -0.472682 -0.313312
v -0.454245 -0.479077 -0.362729
v -0.574524 -0.592102 -0.403867
v -0.622254 -0.655114 -0.370294
v -0.622254 -0.739867 -0.137438
v -0.574524 -0.713177 -0.071216
v -0.454245 -0.600152 -0.030078
v -0.386980 -0.601266 -0.077573
v -0.386980 -0.510459 -0.327062
v -0.407534 -0.518860 -0.377209
v -0.515445 -0.642419 -0.422181
v -0.558266 -0.709612 -0.390129
v -0.558266 -0.794365 -0.157273
v -0.515445 -0.763494 -0.089530
v -0.407534 -0.639935 -0.044558
v -0.338898 -0.634775 -0.089770
v -0.338898 -0.543969 -0.339258
v -0.356898 -0.554149 -0.390053
v -0.451401 -0.687053 -0.438426
v -0.488902 -0.757954 -0.407724
v -0.488902 -0.842706 -0.174868
v -0.451401 -0.808128 -0.105775
v -0.356898 -0.675224 -0.057402
v -0.287552 -0.663695 -0.100295
v -0.287552 -0.572888 -0.349784
v -0.302825 -0.584605 -0.401138
v -0.383010 -0.725573 -0.452446
v -0.414829 -0.799673 -0.422909
v -0.414829 -0.884426 -0.190053
v -0.383010 -0.846648 -0.119795
v -0.302825 -0.705680 -0.068487
v -0.233437 -0.687746 -0.109049
v -0.233437 -0.596939 -0.358538
v -0.245836 -0.609933 -0.410357
v -0.310930 -0.757608 -0.464106
v -0.336761 -0.834370 -0.435537
v -0.336761 -0.919123 -0.202682
v -0.310930 -0.878683 -0.131455
v -0.245836 -0.731008 -0.077706
v -0.177074 -0.706696 -0.115947
v -0.177074 -0.615890 -0.365435
v -0.186479 -0.629891 -0.417621
v -0.235856 -0.782850 -0.473293
v -0.255451 -0.861709 -0.445488
v -0.255451 -0.946462 -0.212632
v -0.235856 -0.903925 -0.140642
v -0.186479 -0.750966 -0.084970
v -0.119005 -0.720365 -0.120922
v -0.119005 -0.629558 -0.370410
v -0.125326 -0.644285 -0.422860
v -0.158511 -0.801055 -0.479920
v -0.171679 -0.881427 -0.452665
v -0.171679 -0.966180 -0.219809
v -0.158511 -0.922131 -0.147269
v -0.125326 -0.765360 -0.090209
v -0.059790 -0.728619 -0.123926
v -0.059790 -0.637812 -0.373414
v -0.062966 -0.652977 -0.426024
v -0.079639 -0.812049 -0.483921
v -0.086255 -0.893334 -0.456999
v -0.086255 -0.978087 -0.224143
v -0.079639 -0.933124 -0.151270
v -0.062966 -0.774052 -0.093373
v -0.000000 -0.731379 -0.124930
v -0.000000 -0.640572 -0.374419
v -0.000000 -0.655884 -0.427082
v -0.000000 -0.815726 -0.485259
v -0.000000 -0.897316 -0.458448
v -0.000000 -0.982069 -0.225592
v -0.000000 -0.936801 -0.152608
v -0.000000 -0.776959 -0.094430
v 0.059790 -0.728619 -0.123926
v 0.059790 -0.637812 -0.373414
v 0.062966 -0.652977 -0.426024
v 0.079639 -0.812049 -0.483921
v 0.086255 -0.893334 -0.456999
v 0.086255 -0.978087 -0.224143
v 0.079639 -0.933124 -0.151270
v 0.062966 -0.774052 -0.093373
v 0.119005 -0.720365 -0.120922
v 0.119005 -0.629558 -0.370410
v 0.125326 -0.644285 -0.422860
v 0.158511 -0.801055 -0.479920
v 0.171679 -0.881427 -0.452665
v 0.171679 -0.966180 -0.219809
v 0.158511 -0.922131 -0.147269
v 0.125326 -0.765360 -0.090209
v 0.177074 -0.706696 -0.115947
v 0.177074 -0.615890 -0.365435
v 0.186479 -0.629891 -0.417621
v 0.235856 -0.782850 -0.473293
v 0.255451 -0.861709 -0.445488
v 0.255451 -0.946462 -0.212632
v 0.235856 -0.903925 -0.140642
v 0.186479 -0.750966 -0.084970
v 0.233437 -0.687746 -0.109049
v 0.233437 -0.596939 -0.358538
v 0.245836 -0.609933 -0.410357
v 0.310930 -0.757608 -0.464106
v 0.336761 -0.834370 -0.435537
v 0.336761 -0.919123 -0.202682
v 0.310930 -0.878683 -0.131455
v 0.245836 -0.731008 -0.077706
v 0.287552 -0.663695 -0.100295
v 0.287552 -0.572888 -0.349784
v 0.302825 -0.584605 -0.401138
v 0.383010 -0.725573 -0.452446
v 0.414829 -0.799673 -0.422909
v 0.414829 -0.884426 -0.190053
v 0.383010 -0.846648 -0.119795
v 0.302825 -0.705680 -0.068487
v 0.338898 -0.634775 -0.089770
v 0.338898 -0.543969 -0.339258
v 0.356898 -0.554149 -0.390053
v 0.451401 -0.687053 -0.438426
v 0.488902 -0.757954 -0.407724
v 0.488902 -0.842706 -0.174868
v 0.451401 -0.808128 -0.105775
v 0.356898 -0.675224 -0.057402
v 0.386980 -0.601266 -0.077573
v 0.386980 -0.510459 -0.327062
v 0.407534 -0.518860 -0.377209
v 0.515445 -0.642419 -0.422181
v 0.558266 -0.709612 -0.390129
v 0.558266 -0.794365 -0.157273
v 0.515445 -0.763494 -0.089530
v 0.407534 -0.639935 -0.044558
v 0.431335 -0.563489 -0.063823
v 0.431335 -0.472682 -0.313312
v 0.454245 -0.479077 -0.362729
v 0.574524 -0.592102 -0.403867
v 0.622254 -0.655114 -0.370294
v 0.622254 -0.739867 -0.137438
v 0.574524 -0.713177 -0.071216
v 0.454245 -0.600152 -0.030078
v 0.471536 -0.521808 -0.048653
v 0.471536 -0.431002 -0.298141
v 0.496582 -0.435182 -0.346753
v 0.628071 -0.536585 -0.383660
v 0.680249 -0.594985 -0.348409
v 0.680249 -0.679738 -0.115553
v 0.628071 -0.657660 -0.051009
v 0.496582 -0.556258 -0.014102
v 0.507196 -0.476626 -0.032208
v 0.507196 -0.385820 -0.281696
v 0.534136 -0.387600 -0.329434
v 0.675569 -0.476404 -0.361756
v 0.731693 -0.529804 -0.324685
v 0.731693 -0.614557 -0.091829
v 0.675569 -0.597479 -0.029105
v 0.534136 -0.508675 0.003217
v 0.537972 -0.428377 -0.014647
v 0.537972 -0.337570 -0.264135
v 0.566546 -0.336788 -0.310940
v 0.716561 -0.412137 -0.338365
v 0.776091 -0.460199 -0.299350
v 0.776091 -0.544951 -0.066494
v 0.716561 -0.533212 -0.005714
v 0.566546 -0.457863 0.021711
v 0.563567 -0.377525 0.003862
v 0.563567 -0.286719 -0.245627
v 0.593500 -0.283236 -0.291449
v 0.750652 -0.344404 -0.313712
v 0.813014 -0.386839 -0.272649
v 0.813014 -0.471592 -0.039794
v 0.750652 -0.465480 0.018939
v 0.593500 -0.404311 0.041202
v 0.583734 -0.324561 0.023139
v 0.583734 -0.233755 -0.226349
v 0.614738 -0.227458 -0.271148
v 0.777514 -0.273858 -0.288036
v 0.842107 -0.310432 -0.244840
v 0.842107 -0.395184 -0.011984
v 0.777514 -0.394933 0.044616
v 0.614738 -0.348533 0.061504
v 0.598279 -0.269994 0.043000
v 0.598279 -0.179188 -0.206489
v 0.630056 -0.169994 -0.250232
v 0.796888 -0.201177 -0.261582
v 0.863091 -0.231713 -0.216188
v 0.863091 -0.316465 0.016668
v 0.796888 -0.322252 0.071069
v 0.630056 -0.291069 0.082419
v 0.607063 -0.214351 0.063252
v 0.607063 -0.123545 -0.186236
v 0.639307 -0.111394 -0.228904
v 0.808588 -0.127062 -0.234606
v 0.875763 -0.151440 -0.186971
v 0.875763 -0.236193 0.045885
v 0.808588 -0.248137 0.098045
v 0.639307 -0.232470 0.103747
vn -0.9495 -0.1073 0.2948
vn -0.9495 0.1073 -0.2948
vn -0.4410 0.3070 -0.8434
vn 0.3362 0.3221 -0.8850
vn 0.9021 0.1476 -0.4056
vn 0.9021 -0.1477 0.4056
vn 0.3362 -0.3221 0.8850
vn -0.4410 -0.3070 0.8434
vn -0.9450 -0.1949 0.2628
vn -0.9450 0.0197 -0.3266
vn -0.4389 0.2659 -0.8583
vn 0.3346 0.3525 -0.8740
vn 0.8978 0.2299 -0.3757
vn 0.8978 -0.0654 0.4355
vn 0.3346 -0.2918 0.8961
vn -0.4389 -0.3480 0.8284
vn -0.9312 -0.2822 0.2307
vn -0.9312 -0.0679 -0.3581
vn -0.4323 0.2229 -0.8738
vn 0.3304 0.3798 -0.8640
vn 0.8857 0.3087 -0.3468
vn 0.8857 0.0136 0.4641
vn 0.3304 -0.2644 0.9060
vn -0.4323 -0.3909 0.8126
vn -0.9079 -0.3695 0.1979
vn -0.9079 -0.1558 -0.3891
vn -0.4195 0.1741 -0.8909
vn 0.3261 0.4002 -0.8564
vn 0.8676 0.3807 -0.3197
vn 0.8676 0.0861 0.4897
vn 0.3261 -0.2439 0.9133
vn -0.4195 -0.4393 0.7944
vn -0.8742 -0.4571 0.1639
vn -0.8742 -0.2448 -0.4194
vn -0.3972 0.1153 -0.9104
vn 0.3265 0.4112 -0.8511
vn 0.8457 0.4447 -0.2951
vn 0.8457 0.1509 0.5119
vn 0.3265 -0.2320 0.9163
vn -0.3972 -0.4969 0.7716
vn -0.8289 -0.5446 0.1280
vn -0.8289 -0.3349 -0.4481
vn -0.3606 0.0436 -0.9317
vn 0.3379 0.4090 -0.8476
vn 0.8234 0.4976 -0.2726
vn 0.8234 0.2060 0.5287
vn 0.3379 -0.2315 0.9123
vn -0.3606 -0.5655 0.7417
vn -0.7712 -0.6302 0.0898
vn -0.7712 -0.4250 -0.4739
vn -0.3052 -0.0398 -0.9515
vn 0.3631 0.3974 -0.8427
vn 0.8023 0.5424 -0.2493
vn 0.8023 0.2553 0.5396
vn 0.3631 -0.2372 0.9010
vn -0.3052 -0.6421 0.7033
vn -0.7017 -0.7107 0.0500
vn -0.7017 -0.5123 -0.4952
vn -0.2302 -0.1280 -0.9647
vn 0.4024 0.3825 -0.8317
vn 0.7817 0.5823 -0.2233
vn 0.7817 0.3026 0.5454
vn 0.4024 -0.2416 0.8830
vn -0.2302 -0.7181 0.6567
vn -0.6222 -0.7828 0.0103
vn -0.6222 -0.5930 -0.5111
vn -0.1405 -0.2099 -0.9676
vn 0.4495 0.3737 -0.8113
vn 0.7586 0.6223 -0.1930
vn 0.7586 0.3526 0.5478
vn 0.4495 -0.2352 0.8617
vn -0.1405 -0.7828 0.6063
vn -0.5363 -0.8436 -0.0271
vn -0.5363 -0.6637 -0.5214
vn -0.0458 -0.2746 -0.9605
vn 0.4937 0.3801 -0.7822
vn 0.7282 0.6668 -0.1585
vn 0.7282 0.4089 0.5500
vn 0.4937 -0.2116 0.8435
vn -0.0458 -0.8277 0.5593
vn -0.4481 -0.8919 -0.0602
vn -0.4481 -0.7220 -0.5272
vn 0.0422 -0.3150 -0.9481
vn 0.5233 0.4072 -0.7486
vn 0.6848 0.7186 -0.1211
vn 0.6848 0.4726 0.5547
vn 0.5233 -0.1692 0.8352
vn 0.0422 -0.8508 0.5238
vn -0.3613 -0.9283 -0.0876
vn -0.3613 -0.7674 -0.5297
vn 0.1136 -0.3298 -0.9372
vn 0.5279 0.4559 -0.7166
vn 0.6235 0.7774 -0.0835
vn 0.6235 0.5418 0.5636
vn 0.5279 -0.1113 0.8420
vn 0.1136 -0.8551 0.5059
vn -0.2785 -0.9543 -0.1086
vn -0.2785 -0.8008 -0.5302
vn 0.1602 -0.3213 -0.9333
vn 0.4993 0.5220 -0.6915
vn 0.5405 0.8400 -0.0479
vn 0.5405 0.6127 0.5766
vn 0.4993 -0.0446 0.8653
vn 0.1602 -0.8461 0.5084
vn -0.2011 -0.9717 -0.1236
vn -0.2011 -0.8238 -0.5300
vn 0.1752 -0.2946 -0.9394
vn 0.4312 0.5970 -0.6766
vn 0.4341 0.9007 -0.0168
vn 0.4341 0.6792 0.5919
vn 0.4312 0.0224 0.9020
vn 0.1752 -0.8295 0.5303
vn -0.1297 -0.9826 -0.1332
vn -0.1297 -0.8383 -0.5295
vn 0.1521 -0.2576 -0.9542
vn 0.3207 0.6679 -0.6716
vn 0.3051 0.9523 0.0078
vn 0.3051 0.7345 0.6061
vn 0.3207 0.0799 0.9438
vn 0.1521 -0.8107 0.5654
vn -0.0633 -0.9883 -0.1386
vn -0.0633 -0.8462 -0.5291
vn 0.0892 -0.2231 -0.9707
vn 0.1721 0.7189 -0.6735
vn 0.1581 0.9871 0.0243
vn 0.1581 0.7718 0.6159
vn 0.1721 0.1178 0.9780
vn 0.0892 -0.7949 0.6002
vn -0.0000 -0.9901 -0.1404
vn -0.0000 -0.8487 -0.5289
vn -0.0000 -0.2086 -0.9780
vn -0.0000 0.7375 -0.6754
vn -0.0000 0.9995 0.0303
vn -0.0000 0.7852 0.6193
vn -0.0000 0.1308 0.9914
vn -0.0000 -0.7884 0.6151
vn 0.0633 -0.9883 -0.1386
vn 0.0633 -0.8462 -0.5291
vn -0.0892 -0.2231 -0.9707
vn -0.1721 0.7189 -0.6735
vn -0.1581 0.9871 0.0243
vn -0.1581 0.7718 0.6159
vn -0.1721 0.1178 0.9780
vn -0.0892 -0.7949 0.6002
vn 0.1297 -0.9826 -0.1332
vn 0.1297 -0.8383 -0.5295
vn -0.1521 -0.2576 -0.9542
vn -0.3207 0.6679 -0.6716
vn -0.3051 0.9523 0.0078
vn -0.3051 0.7345 0.6061
vn -0.3207 0.0799 0.9438
vn -0.1521 -0.8107 0.5654
vn 0.2011 -0.9717 -0.1236
vn 0.2011 -0.8238 -0.5300
vn -0.1752 -0.2946 -0.9394
vn -0.4312 0.5970 -0.6766
vn -0.4341 0.9007 -0.0168
vn -0.4341 0.6792 0.5919
vn -0.4312 0.0224 0.9020
vn -0.1752 -0.8295 0.5303
vn 0.2785 -0.9543 -0.1086
vn 0.2785 -0.8008 -0.5302
vn -0.1602 -0.3213 -0.9333
vn -0.4993 0.5220 -0.6915
vn -0.5405 0.8400 -0.0479
vn -0.5405 0.6127 0.5766
vn -0.4993 -0.0446 0.8653
vn -0.1602 -0.8461 0.5084
vn 0.3613 -0.9283 -0.0876
vn 0.3613 -0.7674 -0.5297
vn -0.1136 -0.3298 -0.9372
vn -0.5279 0.4559 -0.7166
vn -0.6235 0.7774 -0.0835
vn -0.6235 0.5419 0.5636
vn -0.5279 -0.1113 0.8420
vn -0.1136 -0.8551 0.5059
vn 0.4481 -0.8919 -0.0602
vn 0.4481 -0.7220 -0.5272
vn -0.0422 -0.3150 -0.9481
vn -0.5233 0.4072 -0.7486
vn -0.6848 0.7186 -0.1212
vn -0.6848 0.4726 0.5547
vn -0.5233 -0.1692 0.8352
vn -0.0422 -0.8508 0.5238
vn 0.5363 -0.8436 -0.0271
vn 0.5363 -0.6637 -0.5214
vn 0.0458 -0.2746 -0.9605
vn -0.4937 0.3801 -0.7822
vn -0.7282 0.6668 -0.1585
vn -0.7282 0.4089 0.5500
vn -0.4937 -0.2116 0.8435
vn 0.0458 -0.8277 0.5593
vn 0.6222 -0.7828 0.0103
vn 0.6222 -0.5930 -0.5111
vn 0.1405 -0.2099 -0.9676
vn -0.4495 0.3737 -0.8113
vn -0.7586 0.6223 -0.1930
vn -0.7586 0.3526 0.5478
vn -0.4495 -0.2352 0.8617
vn 0.1405 -0.7828 0.6063
vn 0.7017 -0.7107 0.0500
vn 0.7017 -0.5123 -0.4952
vn 0.2302 -0.1280 -0.9647
vn -0.4024 0.3825 -0.8317
vn -0.7817 0.5823 -0.2233
vn -0.7817 0.3026 0.5454
vn -0.4024 -0.2416 0.8830
vn 0.2302 -0.7181 0.6567
vn 0.7712 -0.6302 0.0898
vn 0.7712 -0.4250 -0.4739
vn 0.3052 -0.0398 -0.9515
vn -0.3631 0.3974 -0.8427
vn -0.8023 0.5424 -0.2493
vn -0.8023 0.2553 0.5397
vn -0.3631 -0.2372 0.9010
vn 0.3052 -0.6421 0.7033
vn 0.8289 -0.5446 0.1280
vn 0.8289 -0.3349 -0.4481
vn 0.3606 0.0436 -0.9317
vn -0.3379 0.4090 -0.8476
vn -0.8234 0.4976 -0.2726
vn -0.8234 0.2060 0.5287
vn -0.3379 -0.2315 0.9123
vn 0.3606 -0.5655 0.7417
vn 0.8742 -0.4571 0.1639
vn 0.8742 -0.2448 -0.4194
vn 0.3972 0.1153 -0.9104
vn -0.3265 0.4112 -0.8511
vn -0.8457 0.4447 -0.2951
vn -0.8457 0.1509 0.5119
vn -0.3265 -0.2320 0.9163
vn 0.3972 -0.4969 0.7716
vn 0.9079 -0.3695 0.1979
vn 0.9079 -0.1558 -0.3891
vn 0.4195 0.1741 -0.8909
vn -0.3261 0.4002 -0.8564
vn -0.8676 0.3807 -0.3197
vn -0.8676 0.0861 0.4897
vn -0.3261 -0.2439 0.9133
vn 0.4195 -0.4393 0.7944
vn 0.9312 -0.2822 0.2307
vn 0.9312 -0.0679 -0.3581
vn 0.4323 0.2229 -0.8738
vn -0.3304 0.3798 -0.8640
vn -0.8857 0.3087 -0.3468
vn -0.8857 0.0136 0.4641
vn -0.3304 -0.2644 0.9060
vn 0.4323 -0.3909 0.8126
vn 0.9450 -0.1949 0.2628
vn 0.9450 0.0197 -0.3266
vn 0.4389 0.2659 -0.8583
vn -0.3346 0.3525 -0.8740
vn -0.8978 0.2299 -0.3757
vn -0.8978 -0.0654 0.4355
vn -0.3346 -0.2918 0.8961
vn 0.4389 -0.3480 0.8284
vn 0.9495 -0.1073 0.2948
vn 0.9495 0.1073 -0.2948
vn 0.4410 0.3070 -0.8434
vn -0.3362 0.3221 -0.8850
vn -0.9021 0.1476 -0.4056
vn -0.9021 -0.1477 0.4056
vn -0.3362 -0.3221 0.8850
vn 0.4410 -0.3070 0.8434
vn 0.9450 -0.0198 0.3266
vn 0.9450 0.1947 -0.2629
vn 0.4389 0.3476 -0.8286
vn -0.3346 0.2911 -0.8963
vn -0.8977 0.0645 -0.4358
vn -0.8977 -0.2307 0.3753
vn -0.3346 -0.3531 0.8737
vn 0.4389 -0.2664 0.8582
vn 0.9313 0.0668 0.3581
vn 0.9313 0.2814 -0.2314
vn 0.4325 0.3878 -0.8140
vn -0.3298 0.2605 -0.9074
vn -0.8847 -0.0177 -0.4658
vn -0.8847 -0.3130 0.3454
vn -0.3298 -0.3837 0.8626
vn 0.4325 -0.2261 0.8728
vn 0.9086 0.1517 0.3890
vn 0.9086 0.3663 -0.2005
vn 0.4220 0.4273 -0.7996
vn -0.3217 0.2304 -0.9184
vn -0.8632 -0.0984 -0.4951
vn -0.8632 -0.3937 0.3160
vn -0.3217 -0.4138 0.8516
vn 0.4220 -0.1867 0.8872
vn 0.8773 0.2342 0.4190
vn 0.8772 0.4487 -0.1705
vn 0.4074 0.4655 -0.7857
vn -0.3106 0.2012 -0.9290
vn -0.8334 -0.1768 -0.5236
vn -0.8334 -0.4720 0.2875
vn -0.3106 -0.4430 0.8410
vn 0.4074 -0.1484 0.9011
vn 0.8374 0.3133 0.4479
vn 0.8374 0.5279 -0.1417
vn 0.3889 0.5023 -0.7723
vn -0.2965 0.1732 -0.9392
vn -0.7955 -0.2520 -0.5510
vn -0.7955 -0.5472 0.2601
vn -0.2965 -0.4710 0.8308
vn 0.3889 -0.1116 0.9145
vn 0.7895 0.3884 0.4752
vn 0.7895 0.6030 -0.1143
vn 0.3667 0.5372 -0.7596
vn -0.2796 0.1466 -0.9489
vn -0.7500 -0.3233 -0.5770
vn -0.7500 -0.6186 0.2342
vn -0.2795 -0.4976 0.8211
vn 0.3667 -0.0768 0.9272
vn 0.7340 0.4588 0.5008
vn 0.7340 0.6733 -0.0887
vn 0.3409 0.5699 -0.7477
vn -0.2599 0.1217 -0.9579
vn -0.6973 -0.3901 -0.6013
vn -0.6973 -0.6854 0.2099
vn -0.2599 -0.5225 0.8120
vn 0.3409 -0.0441 0.9391
vn 0.6714 0.5236 0.5244
vn 0.6714 0.7382 -0.0651
vn 0.3118 0.6000 -0.7367
vn -0.2377 0.0987 -0.9663
vn -0.6379 -0.4518 -0.6237
vn -0.6379 -0.7470 0.1874
vn -0.2377 -0.5455 0.8037
vn 0.3118 -0.0140 0.9500
vn 0.6024 0.5824 0.5458
vn 0.6024 0.7970 -0.0437
vn 0.2798 0.6273 -0.7268
vn -0.2133 0.0779 -0.9739
vn -0.5723 -0.5076 -0.6441
vn -0.5723 -0.8029 0.1671
vn -0.2133 -0.5663 0.7961
vn 0.2798 0.0134 0.9600
vn 0.5275 0.6346 0.5648
vn 0.5275 0.8492 -0.0247
vn 0.2450 0.6515 -0.7180
vn -0.1868 0.0594 -0.9806
vn -0.5012 -0.5572 -0.6621
vn -0.5012 -0.8524 0.1490
vn -0.1868 -0.5848 0.7894
vn 0.2450 0.0376 0.9688
vn 0.4476 0.6796 0.5812
vn 0.4476 0.8942 -0.0084
vn 0.2079 0.6724 -0.7104
vn -0.1585 0.0435 -0.9864
vn -0.4252 -0.5999 -0.6777
vn -0.4252 -0.8952 0.1335
vn -0.1585 -0.6007 0.7836
vn 0.2079 0.0585 0.9764
vn 0.3634 0.7171 0.5948
vn 0.3634 0.9316 0.0053
vn 0.1688 0.6898 -0.7040
vn -0.1287 0.0302 -0.9912
vn -0.3452 -0.6355 -0.6906
vn -0.3452 -0.9308 0.1205
vn -0.1287 -0.6140 0.7787
vn 0.1688 0.0759 0.9827
vn 0.2756 0.7466 0.6055
vn 0.2756 0.9611 0.0160
vn 0.1280 0.7035 -0.6991
vn -0.0976 0.0198 -0.9950
vn -0.2619 -0.6635 -0.7008
vn -0.2619 -0.9588 0.1103
vn -0.0976 -0.6244 0.7750
vn 0.1280 0.0896 0.9877
vn 0.1852 0.7678 0.6133
vn 0.1852 0.9824 0.0238
vn 0.0860 0.7134 -0.6955
vn -0.0656 0.0122 -0.9978
vn -0.1760 -0.6838 -0.7082
vn -0.1760 -0.9790 0.1030
vn -0.0656 -0.6320 0.7722
vn 0.0860 0.0995 0.9913
vn 0.0931 0.7807 0.6180
vn 0.0931 0.9953 0.0284
vn 0.0432 0.7194 -0.6933
vn -0.0330 0.0077 -0.9994
vn -0.0884 -0.6960 -0.7126
vn -0.0884 -0.9912 0.0985
vn -0.0330 -0.6365 0.7706
vn 0.0432 0.1054 0.9935
vn -0.0000 0.7850 0.6195
vn -0.0000 0.9995 0.0300
vn -0.0000 0.7214 -0.6926
vn -0.0000 0.0062 -1.0000
vn -0.0000 -0.7000 -0.7141
vn -0.0000 -0.9953 0.0971
vn -0.0000 -0.6381 0.7700
vn -0.0000 0.1074 0.9942
vn -0.0931 0.7807 0.6180
vn -0.0931 0.9953 0.0284
vn -0.0432 0.7194 -0.6933
vn 0.0330 0.0077 -0.9994
vn 0.0884 -0.6960 -0.7126
vn 0.0884 -0.9912 0.0985
vn 0.0330 -0.6365 0.7705
vn -0.0432 0.1054 0.9935
vn -0.1852 0.7678 0.6133
vn -0.1852 0.9824 0.0238
vn -0.0860 0.7134 -0.6955
vn 0.0656 0.0122 -0.9978
vn 0.1760 -0.6838 -0.7082
vn 0.1760 -0.9790 0.1030
vn 0.0656 -0.6320 0.7722
vn -0.0860 0.0995 0.9913
vn -0.2756 0.7466 0.6055
vn -0.2756 0.9611 0.0160
vn -0.1280 0.7035 -0.6991
vn 0.0976 0.0198 -0.9950
vn 0.2619 -0.6635 -0.7008
vn 0.2619 -0.9588 0.1103
vn 0.0976 -0.6244 0.7750
vn -0.1280 0.0896 0.9877
vn -0.3634 0.7171 0.5948
vn -0.3634 0.9316 0.0053
vn -0.1688 0.6898 -0.7040
vn 0.1287 0.0302 -0.9912
vn 0.3452 -0.6355 -0.6906
vn 0.3452 -0.9308 0.1205
vn 0.1287 -0.6140 0.7787
vn -0.1688 0.0759 0.9827
vn -0.4476 0.6796 0.5812
vn -0.4476 0.8942 -0.0084
vn -0.2079 0.6724 -0.7104
vn 0.1585 0.0435 -0.9864
vn 0.4252 -0.5999 -0.6777
vn 0.4252 -0.8952 0.1335
vn 0.1585 -0.6007 0.7836
vn -0.2079 0.0585 0.9764
vn -0.5275 0.6346 0.5648
vn -0.5275 0.8492 -0.0247
vn -0.2450 0.6515 -0.7180
vn 0.1868 0.0594 -0.9806
vn 0.5012 -0.5572 -0.6621
vn 0.5012 -0.8524 0.1491
vn 0.1868 -0.5848 0.7894
vn -0.2450 0.0376 0.9688
vn -0.6024 0.5824 0.5458
vn -0.6024 0.7970 -0.0437
vn -0.2798 0.6273 -0.7268
vn 0.2133 0.0779 -0.9739
vn 0.5723 -0.5076 -0.6441
vn 0.5723 -0.8029 0.1671
vn 0.2133 -0.5663 0.7961
vn -0.2798 0.0134 0.9600
vn -0.6714 0.5236 0.5244
vn -0.6714 0.7382 -0.0651
vn -0.3118 0.6000 -0.7367
vn 0.2377 0.0987 -0.9663
vn 0.6379 -0.4518 -0.6237
vn 0.6379 -0.7470 0.1874
vn 0.2377 -0.5455 0.8037
vn -0.3118 -0.0140 0.9500
vn -0.7340 0.4588 0.5008
vn -0.7340 0.6733 -0.0887
vn -0.3409 0.5699 -0.7477
vn 0.2599 0.1217 -0.9579
vn 0.6973 -0.3901 -0.6013
vn 0.6973 -0.6854 0.2099
vn 0.2599 -0.5225 0.8120
vn -0.3409 -0.0441 0.9391
vn -0.7895 0.3884 0.4752
vn -0.7895 0.6030 -0.1143
vn -0.3667 0.5372 -0.7596
vn 0.2796 0.1466 -0.9489
vn 0.7500 -0.3233 -0.5770
vn 0.7500 -0.6186 0.2342
vn 0.2795 -0.4976 0.8211
vn -0.3667 -0.0768 0.9272
vn -0.8374 0.3133 0.4479
vn -0.8374 0.5279 -0.1417
vn -0.3889 0.5023 -0.7723
vn 0.2965 0.1732 -0.9392
vn 0.7955 -0.2520 -0.5510
vn 0.7955 -0.5472 0.2601
vn 0.2965 -0.4710 0.8308
vn -0.3889 -0.1116 0.9145
vn -0.8772 0.2342 0.4190
vn -0.8773 0.4487 -0.1705
vn -0.4074 0.4655 -0.7857
vn 0.3106 0.2012 -0.9290
vn 0.8334 -0.1768 -0.5236
vn 0.8334 -0.4720 0.2875
vn 0.3106 -0.4430 0.8410
vn -0.4074 -0.1484 0.9011
vn -0.9086 0.1517 0.3890
vn -0.9086 0.3663 -0.2005
vn -0.4220 0.4273 -0.7996
vn 0.3217 0.2304 -0.9184
vn 0.8632 -0.0984 -0.4951
vn 0.8632 -0.3937 0.3160
vn 0.3217 -0.4138 0.8516
vn -0.4220 -0.1867 0.8872
vn -0.9313 0.0668 0.3581
vn -0.9313 0.2814 -0.2314
vn -0.4325 0.3878 -0.8140
vn 0.3298 0.2605 -0.9074
vn 0.8847 -0.0178 -0.4658
vn 0.8847 -0.3130 0.3454
vn 0.3297 -0.3837 0.8626
vn -0.4325 -0.2261 0.8728
vn -0.9450 -0.0198 0.3266
vn -0.9450 0.1947 -0.2629
vn -0.4389 0.3476 -0.8286
vn 0.3346 0.2911 -0.8963
vn 0.8977 0.0645 -0.4358
vn 0.8977 -0.2307 0.3753
vn 0.3346 -0.3531 0.8737
vn -0.4388 -0.2664 0.8582
vt 0.048421 0.259766
vt 0.033854 0.298681
vt 0.033854 0.259766
vt 0.048421 0.298681
vt 0.033854 0.305876
vt 0.048421 0.305876
vt 0.033854 0.322220
vt 0.048421 0.322220
vt 0.033854 0.332352
vt 0.048421 0.332352
vt 0.033854 0.368673
vt 0.048421 0.378805
vt 0.033854 0.378805
vt 0.048421 0.395149
vt 0.033854 0.395149
vt 0.048421 0.402344
vt 0.033854 0.402344
vt 0.062988 0.298681
vt 0.062988 0.305876
vt 0.062988 0.322220
vt 0.062988 0.332352
vt 0.048421 0.368673
vt 0.062988 0.378805
vt 0.062988 0.395149
vt 0.062988 0.402344
vt 0.077555 0.259766
vt 0.062988 0.259766
vt 0.077555 0.298681
vt 0.077555 0.305876
vt 0.077555 0.322220
vt 0.077555 0.332352
vt 0.062988 0.368673
vt 0.077555 0.378805
vt 0.077555 0.395149
vt 0.077555 0.402344
vt 0.092122 0.259766
vt 0.092122 0.298681
vt 0.092122 0.305876
vt 0.092122 0.322220
vt 0.092122 0.332352
vt 0.077555 0.368673
vt 0.092122 0.378805
vt 0.092122 0.395149
vt 0.092122 0.402344
vt 0.106689 0.259766
vt 0.106689 0.298681
vt 0.106689 0.305876
vt 0.106689 0.332352
vt 0.092122 0.368673
vt 0.106689 0.368673
vt 0.106689 0.395149
vt 0.106689 0.402344
vt 0.121257 0.259766
vt 0.121257 0.298681
vt 0.121257 0.305876
vt 0.106689 0.322220
vt 0.121257 0.332352
vt 0.121257 0.368673
vt 0.106689 0.378805
vt 0.121257 0.395149
vt 0.121257 0.402344
vt 0.135824 0.298681
vt 0.135824 0.305876
vt 0.121257 0.322220
vt 0.135824 0.332352
vt 0.135824 0.368673
vt 0.121257 0.378805
vt 0.135824 0.395149
vt 0.135824 0.402344
vt 0.150391 0.259766
vt 0.135824 0.259766
vt 0.150391 0.298681
vt 0.150391 0.305876
vt 0.135824 0.322220
vt 0.150391 0.332352
vt 0.150391 0.368673
vt 0.135824 0.378805
vt 0.150391 0.395149
vt 0.150391 0.402344
vt 0.164958 0.298681
vt 0.164958 0.305876
vt 0.150391 0.322220
vt 0.164958 0.332352
vt 0.164958 0.368673
vt 0.150391 0.378805
vt 0.164958 0.395149
vt 0.164958 0.402344
vt 0.179525 0.259766
vt 0.164958 0.259766
vt 0.179525 0.298681
vt 0.179525 0.305876
vt 0.164958 0.322220
vt 0.179525 0.332352
vt 0.179525 0.368673
vt 0.164958 0.378805
vt 0.179525 0.395149
vt 0.179525 0.402344
vt 0.194092 0.298681
vt 0.194092 0.305876
vt 0.179525 0.322220
vt 0.194092 0.332352
vt 0.194092 0.368673
vt 0.179525 0.378805
vt 0.194092 0.395149
vt 0.194092 0.402344
vt 0.194092 0.259766
vt 0.208659 0.298681
vt 0.208659 0.305876
vt 0.194092 0.322220
vt 0.208659 0.332352
vt 0.208659 0.368673
vt 0.194092 0.378805
vt 0.208659 0.395149
vt 0.208659 0.402344
vt 0.208659 0.259766
vt 0.223226 0.298681
vt 0.223226 0.305876
vt 0.208659 0.322220
vt 0.223226 0.332352
vt 0.223226 0.368673
vt 0.208659 0.378805
vt 0.223226 0.395149
vt 0.223226 0.402344
vt 0.237793 0.259766
vt 0.223226 0.259766
vt 0.237793 0.298681
vt 0.237793 0.305876
vt 0.223226 0.322220
vt 0.237793 0.332352
vt 0.237793 0.368673
vt 0.223226 0.378805
vt 0.237793 0.395149
vt 0.237793 0.402344
vt 0.252360 0.259766
vt 0.252360 0.298681
vt 0.252360 0.305876
vt 0.237793 0.322220
vt 0.252360 0.332352
vt 0.252360 0.368673
vt 0.237793 0.378805
vt 0.252360 0.395149
vt 0.252360 0.402344
vt 0.266927 0.259766
vt 0.266927 0.298681
vt 0.266927 0.305876
vt 0.252360 0.322220
vt 0.266927 0.332352
vt 0.266927 0.368673
vt 0.252360 0.378805
vt 0.266927 0.395149
vt 0.266927 0.402344
vt 0.281494 0.259766
vt 0.281494 0.305876
vt 0.281494 0.322220
vt 0.266927 0.322220
vt 0.281494 0.332352
vt 0.281494 0.378805
vt 0.266927 0.378805
vt 0.281494 0.395149
vt 0.296061 0.298681
vt 0.281494 0.298681
vt 0.296061 0.305876
vt 0.296061 0.322220
vt 0.296061 0.332352
vt 0.281494 0.368673
vt 0.296061 0.378805
vt 0.296061 0.395149
vt 0.281494 0.402344
vt 0.296061 0.259766
vt 0.310628 0.298681
vt 0.310628 0.305876
vt 0.310628 0.322220
vt 0.310628 0.332352
vt 0.296061 0.368673
vt 0.310628 0.378805
vt 0.310628 0.395149
vt 0.296061 0.402344
vt 0.310628 0.259766
vt 0.325195 0.298681
vt 0.325195 0.305876
vt 0.325195 0.322220
vt 0.325195 0.332352
vt 0.310628 0.368673
vt 0.325195 0.378805
vt 0.325195 0.395149
vt 0.310628 0.402344
vt 0.339762 0.259766
vt 0.325195 0.259766
vt 0.339762 0.305876
vt 0.339762 0.322220
vt 0.339762 0.332352
vt 0.325195 0.368673
vt 0.339762 0.378805
vt 0.339762 0.395149
vt 0.325195 0.402344
vt 0.354329 0.298681
vt 0.339762 0.298681
vt 0.354329 0.305876
vt 0.354329 0.322220
vt 0.354329 0.332352
vt 0.339762 0.368673
vt 0.354329 0.378805
vt 0.354329 0.395149
vt 0.339762 0.402344
vt 0.368896 0.259766
vt 0.354329 0.259766
vt 0.368896 0.305876
vt 0.368896 0.322220
vt 0.368896 0.332352
vt 0.354329 0.368673
vt 0.368896 0.378805
vt 0.368896 0.395149
vt 0.354329 0.402344
vt 0.383464 0.259766
vt 0.368896 0.298681
vt 0.383464 0.305876
vt 0.383464 0.322220
vt 0.383464 0.368673
vt 0.368896 0.368673
vt 0.383464 0.378805
vt 0.383464 0.395149
vt 0.368896 0.402344
vt 0.398031 0.298681
vt 0.383464 0.298681
vt 0.398031 0.305876
vt 0.398031 0.322220
vt 0.383464 0.332352
vt 0.398031 0.332352
vt 0.398031 0.378805
vt 0.398031 0.395149
vt 0.383464 0.402344
vt 0.412598 0.259766
vt 0.398031 0.259766
vt 0.412598 0.305876
vt 0.412598 0.322220
vt 0.412598 0.332352
vt 0.398031 0.368673
vt 0.412598 0.378805
vt 0.412598 0.395149
vt 0.398031 0.402344
vt 0.427165 0.259766
vt 0.412598 0.298681
vt 0.427165 0.305876
vt 0.427165 0.322220
vt 0.427165 0.332352
vt 0.412598 0.368673
vt 0.427165 0.378805
vt 0.427165 0.395149
vt 0.412598 0.402344
vt 0.441732 0.259766
vt 0.427165 0.298681
vt 0.441732 0.305876
vt 0.441732 0.322220
vt 0.441732 0.332352
vt 0.427165 0.368673
vt 0.441732 0.378805
vt 0.441732 0.395149
vt 0.427165 0.402344
vt 0.456299 0.259766
vt 0.441732 0.298681
vt 0.456299 0.305876
vt 0.456299 0.322220
vt 0.456299 0.332352
vt 0.456299 0.368673
vt 0.441732 0.368673
vt 0.456299 0.378805
vt 0.456299 0.395149
vt 0.441732 0.402344
vt 0.470866 0.298681
vt 0.456299 0.298681
vt 0.470866 0.305876
vt 0.470866 0.322220
vt 0.470866 0.332352
vt 0.470866 0.368673
vt 0.470866 0.378805
vt 0.470866 0.395149
vt 0.456299 0.402344
vt 0.485433 0.259766
vt 0.470866 0.259766
vt 0.485433 0.305876
vt 0.485433 0.322220
vt 0.485433 0.332352
vt 0.485433 0.368673
vt 0.485433 0.378805
vt 0.485433 0.395149
vt 0.470866 0.402344
vt 0.500000 0.298681
vt 0.485433 0.298681
vt 0.500000 0.305876
vt 0.500000 0.322220
vt 0.500000 0.332352
vt 0.500000 0.368673
vt 0.500000 0.378805
vt 0.500000 0.395149
vt 0.485433 0.402344
vt 0.514567 0.259766
vt 0.500000 0.259766
vt 0.514567 0.298681
vt 0.514567 0.305876
vt 0.514567 0.322220
vt 0.514567 0.332352
vt 0.514567 0.368673
vt 0.514567 0.378805
vt 0.514567 0.395149
vt 0.500000 0.402344
vt 0.529134 0.259766
vt 0.529134 0.298681
vt 0.529134 0.322220
vt 0.529134 0.332352
vt 0.529134 0.368673
vt 0.529134 0.378805
vt 0.529134 0.395149
vt 0.514567 0.402344
vt 0.543701 0.298681
vt 0.543701 0.305876
vt 0.529134 0.305876
vt 0.543701 0.322220
vt 0.543701 0.332352
vt 0.543701 0.368673
vt 0.543701 0.395149
vt 0.529134 0.402344
vt 0.543701 0.259766
vt 0.558268 0.298681
vt 0.558268 0.305876
vt 0.558268 0.322220
vt 0.558268 0.332352
vt 0.558268 0.368673
vt 0.543701 0.378805
vt 0.558268 0.378805
vt 0.558268 0.402344
vt 0.543701 0.402344
vt 0.572835 0.259766
vt 0.558268 0.259766
vt 0.572835 0.298681
vt 0.572835 0.322220
vt 0.572835 0.332352
vt 0.572835 0.378805
vt 0.558268 0.395149
vt 0.572835 0.402344
vt 0.587402 0.298681
vt 0.572835 0.305876
vt 0.587402 0.322220
vt 0.587402 0.332352
vt 0.572835 0.368673
vt 0.587402 0.368673
vt 0.587402 0.395149
vt 0.572835 0.395149
vt 0.587402 0.402344
vt 0.587402 0.259766
vt 0.601969 0.298681
vt 0.601969 0.305876
vt 0.587402 0.305876
vt 0.601969 0.322220
vt 0.601969 0.332352
vt 0.601969 0.368673
vt 0.587402 0.378805
vt 0.601969 0.378805
vt 0.601969 0.402344
vt 0.616536 0.259766
vt 0.601969 0.259766
vt 0.616536 0.298681
vt 0.616536 0.322220
vt 0.616536 0.332352
vt 0.616536 0.368673
vt 0.616536 0.378805
vt 0.601969 0.395149
vt 0.616536 0.395149
vt 0.631104 0.298681
vt 0.616536 0.305876
vt 0.631104 0.305876
vt 0.631104 0.332352
vt 0.631104 0.368673
vt 0.631104 0.395149
vt 0.616536 0.402344
vt 0.631104 0.259766
vt 0.645671 0.298681
vt 0.645671 0.322220
vt 0.631104 0.322220
vt 0.645671 0.332352
vt 0.645671 0.368673
vt 0.631104 0.378805
vt 0.645671 0.378805
vt 0.645671 0.402344
vt 0.631104 0.402344
vt 0.645671 0.259766
vt 0.660238 0.298681
vt 0.660238 0.305876
vt 0.645671 0.305876
vt 0.660238 0.322220
vt 0.660238 0.368673
vt 0.660238 0.378805
vt 0.645671 0.395149
vt 0.660238 0.395149
vt 0.674805 0.259766
vt 0.660238 0.259766
vt 0.674805 0.305876
vt 0.674805 0.322220
vt 0.660238 0.332352
vt 0.674805 0.368673
vt 0.674805 0.378805
vt 0.674805 0.395149
vt 0.660238 0.402344
vt 0.689372 0.259766
vt 0.674805 0.298681
vt 0.689372 0.298681
vt 0.689372 0.322220
vt 0.674805 0.332352
vt 0.689372 0.332352
vt 0.689372 0.368673
vt 0.689372 0.395149
vt 0.689372 0.402344
vt 0.674805 0.402344
vt 0.703939 0.259766
vt 0.703939 0.305876
vt 0.689372 0.305876
vt 0.703939 0.322220
vt 0.703939 0.332352
vt 0.703939 0.368673
vt 0.689372 0.378805
vt 0.703939 0.378805
vt 0.703939 0.395149
vt 0.718506 0.259766
vt 0.703939 0.298681
vt 0.718506 0.298681
vt 0.718506 0.305876
vt 0.718506 0.322220
vt 0.718506 0.332352
vt 0.718506 0.378805
vt 0.718506 0.395149
vt 0.718506 0.402344
vt 0.703939 0.402344
vt 0.733073 0.259766
vt 0.733073 0.305876
vt 0.733073 0.322220
vt 0.733073 0.368673
vt 0.718506 0.368673
vt 0.733073 0.378805
vt 0.733073 0.395149
vt 0.747640 0.259766
vt 0.733073 0.298681
vt 0.747640 0.298681
vt 0.747640 0.305876
vt 0.747640 0.332352
vt 0.733073 0.332352
vt 0.747640 0.368673
vt 0.747640 0.378805
vt 0.747640 0.402344
vt 0.733073 0.402344
vt 0.762207 0.259766
vt 0.762207 0.305876
vt 0.762207 0.322220
vt 0.747640 0.322220
vt 0.762207 0.332352
vt 0.762207 0.368673
vt 0.762207 0.378805
vt 0.747640 0.395149
vt 0.762207 0.395149
vt 0.776774 0.298681
vt 0.762207 0.298681
vt 0.776774 0.305876
vt 0.776774 0.332352
vt 0.776774 0.378805
vt 0.776774 0.395149
vt 0.776774 0.402344
vt 0.762207 0.402344
vt 0.791341 0.259766
vt 0.776774 0.259766
vt 0.791341 0.298681
vt 0.791341 0.305876
vt 0.776774 0.322220
vt 0.791341 0.322220
vt 0.791341 0.332352
vt 0.776774 0.368673
vt 0.791341 0.378805
vt 0.791341 0.395149
vt 0.805908 0.298681
vt 0.805908 0.322220
vt 0.805908 0.332352
vt 0.791341 0.368673
vt 0.805908 0.368673
vt 0.805908 0.378805
vt 0.805908 0.402344
vt 0.791341 0.402344
vt 0.820475 0.259766
vt 0.805908 0.259766
vt 0.820475 0.298681
vt 0.805908 0.305876
vt 0.820475 0.305876
vt 0.820475 0.322220
vt 0.820475 0.332352
vt 0.820475 0.378805
vt 0.820475 0.395149
vt 0.805908 0.395149
vt 0.820475 0.402344
vt 0.835042 0.259766
vt 0.835042 0.305876
vt 0.835042 0.332352
vt 0.820475 0.368673
vt 0.835042 0.378805
vt 0.835042 0.395149
vt 0.849609 0.298681
vt 0.835042 0.298681
vt 0.849609 0.305876
vt 0.835042 0.322220
vt 0.849609 0.322220
vt 0.849609 0.368673
vt 0.835042 0.368673
vt 0.849609 0.378805
vt 0.849609 0.395149
vt 0.835042 0.402344
vt 0.849609 0.259766
vt 0.864176 0.298681
vt 0.864176 0.305876
vt 0.864176 0.332352
vt 0.849609 0.332352
vt 0.864176 0.368673
vt 0.864176 0.395149
vt 0.849609 0.402344
vt 0.878743 0.259766
vt 0.864176 0.259766
vt 0.878743 0.298681
vt 0.878743 0.305876
vt 0.864176 0.322220
vt 0.878743 0.322220
vt 0.878743 0.368673
vt 0.864176 0.378805
vt 0.878743 0.378805
vt 0.878743 0.395149
vt 0.864176 0.402344
vt 0.893311 0.259766
vt 0.893311 0.298681
vt 0.893311 0.305876
vt 0.893311 0.322220
vt 0.878743 0.332352
vt 0.893311 0.332352
vt 0.893311 0.378805
vt 0.893311 0.395149
vt 0.878743 0.402344
vt 0.907878 0.259766
vt 0.907878 0.305876
vt 0.907878 0.322220
vt 0.907878 0.332352
vt 0.893311 0.368673
vt 0.907878 0.368673
vt 0.907878 0.395149
vt 0.893311 0.402344
vt 0.922445 0.259766
vt 0.907878 0.298681
vt 0.922445 0.298681
vt 0.922445 0.305876
vt 0.922445 0.322220
vt 0.922445 0.332352
vt 0.922445 0.368673
vt 0.907878 0.378805
vt 0.922445 0.378805
vt 0.922445 0.395149
vt 0.907878 0.402344
vt 0.937012 0.259766
vt 0.937012 0.298681
vt 0.937012 0.322220
vt 0.937012 0.368673
vt 0.937012 0.395149
vt 0.922445 0.402344
vt 0.951579 0.298681
vt 0.951579 0.305876
vt 0.937012 0.305876
vt 0.951579 0.322220
vt 0.937012 0.332352
vt 0.951579 0.332352
vt 0.951579 0.368673
vt 0.937012 0.378805
vt 0.951579 0.378805
vt 0.951579 0.402344
vt 0.937012 0.402344
vt 0.966146 0.259766
vt 0.951579 0.259766
vt 0.966146 0.298681
vt 0.966146 0.305876
vt 0.966146 0.322220
vt 0.966146 0.332352
vt 0.966146 0.368673
vt 0.966146 0.395149
vt 0.951579 0.395149
vt 0.966146 0.378805
vt 0.966146 0.402344
s 1
g A_ClosedDSectionBandAndShoulders.001_untarnished_signet_gold
usemtl untarnished_signet_gold
f 9/1/9 2/2/2 1/3/1
f 10/4/10 3/5/3 2/2/2
f 11/6/11 4/7/4 3/5/3
f 12/8/12 5/9/5 4/7/4
f 13/10/13 6/11/6 5/9/5
f 6/11/6 15/12/15 7/13/7
f 7/13/7 16/14/16 8/15/8
f 8/15/8 9/16/9 1/17/1
f 9/1/9 18/18/18 10/4/10
f 18/18/18 11/6/11 10/4/10
f 19/19/19 12/8/12 11/6/11
f 20/20/20 13/10/13 12/8/12
f 21/21/21 14/22/14 13/10/13
f 14/22/14 23/23/23 15/12/15
f 15/12/15 24/24/24 16/14/16
f 16/14/16 17/25/17 9/16/9
f 25/26/25 18/18/18 17/27/17
f 26/28/26 19/19/19 18/18/18
f 27/29/27 20/20/20 19/19/19
f 28/30/28 21/21/21 20/20/20
f 29/31/29 22/32/22 21/21/21
f 22/32/22 31/33/31 23/23/23
f 23/23/23 32/34/32 24/24/24
f 24/24/24 25/35/25 17/25/17
f 33/36/33 26/28/26 25/26/25
f 34/37/34 27/29/27 26/28/26
f 35/38/35 28/30/28 27/29/27
f 36/39/36 29/31/29 28/30/28
f 37/40/37 30/41/30 29/31/29
f 30/41/30 39/42/39 31/33/31
f 31/33/31 40/43/40 32/34/32
f 32/34/32 33/44/33 25/35/25
f 41/45/41 34/37/34 33/36/33
f 42/46/42 35/38/35 34/37/34
f 43/47/43 36/39/36 35/38/35
f 36/39/36 45/48/45 37/40/37
f 45/48/45 38/49/38 37/40/37
f 46/50/46 39/42/39 38/49/38
f 39/42/39 48/51/48 40/43/40
f 40/43/40 41/52/41 33/44/33
f 49/53/49 42/46/42 41/45/41
f 50/54/50 43/47/43 42/46/42
f 51/55/51 44/56/44 43/47/43
f 44/56/44 53/57/53 45/48/45
f 53/57/53 46/50/46 45/48/45
f 54/58/54 47/59/47 46/50/46
f 47/59/47 56/60/56 48/51/48
f 48/51/48 49/61/49 41/52/41
f 49/53/49 58/62/58 50/54/50
f 58/62/58 51/55/51 50/54/50
f 59/63/59 52/64/52 51/55/51
f 52/64/52 61/65/61 53/57/53
f 61/65/61 54/58/54 53/57/53
f 62/66/62 55/67/55 54/58/54
f 55/67/55 64/68/64 56/60/56
f 56/60/56 57/69/57 49/61/49
f 65/70/65 58/62/58 57/71/57
f 66/72/66 59/63/59 58/62/58
f 67/73/67 60/74/60 59/63/59
f 60/74/60 69/75/69 61/65/61
f 69/75/69 62/66/62 61/65/61
f 70/76/70 63/77/63 62/66/62
f 63/77/63 72/78/72 64/68/64
f 64/68/64 65/79/65 57/69/57
f 65/70/65 74/80/74 66/72/66
f 74/80/74 67/73/67 66/72/66
f 75/81/75 68/82/68 67/73/67
f 68/82/68 77/83/77 69/75/69
f 77/83/77 70/76/70 69/75/69
f 78/84/78 71/85/71 70/76/70
f 71/85/71 80/86/80 72/78/72
f 72/78/72 73/87/73 65/79/65
f 81/88/81 74/80/74 73/89/73
f 82/90/82 75/81/75 74/80/74
f 83/91/83 76/92/76 75/81/75
f 76/92/76 85/93/85 77/83/77
f 85/93/85 78/84/78 77/83/77
f 86/94/86 79/95/79 78/84/78
f 79/95/79 88/96/88 80/86/80
f 80/86/80 81/97/81 73/87/73
f 81/88/81 90/98/90 82/90/82
f 90/98/90 83/91/83 82/90/82
f 91/99/91 84/100/84 83/91/83
f 84/100/84 93/101/93 85/93/85
f 93/101/93 86/94/86 85/93/85
f 94/102/94 87/103/87 86/94/86
f 87/103/87 96/104/96 88/96/88
f 88/96/88 89/105/89 81/97/81
f 89/106/89 98/107/98 90/98/90
f 98/107/98 91/99/91 90/98/90
f 99/108/99 92/109/92 91/99/91
f 92/109/92 101/110/101 93/101/93
f 101/110/101 94/102/94 93/101/93
f 102/111/102 95/112/95 94/102/94
f 95/112/95 104/113/104 96/104/96
f 96/104/96 97/114/97 89/105/89
f 97/115/97 106/116/106 98/107/98
f 106/116/106 99/108/99 98/107/98
f 107/117/107 100/118/100 99/108/99
f 100/118/100 109/119/109 101/110/101
f 109/119/109 102/111/102 101/110/101
f 110/120/110 103/121/103 102/111/102
f 103/121/103 112/122/112 104/113/104
f 104/113/104 105/123/105 97/114/97
f 113/124/113 106/116/106 105/125/105
f 114/126/114 107/117/107 106/116/106
f 115/127/115 108/128/108 107/117/107
f 108/128/108 117/129/117 109/119/109
f 117/129/117 110/120/110 109/119/109
f 118/130/118 111/131/111 110/120/110
f 111/131/111 120/132/120 112/122/112
f 112/122/112 113/133/113 105/123/105
f 121/134/121 114/126/114 113/124/113
f 122/135/122 115/127/115 114/126/114
f 123/136/123 116/137/116 115/127/115
f 116/137/116 125/138/125 117/129/117
f 117/129/117 126/139/126 118/130/118
f 126/139/126 119/140/119 118/130/118
f 119/140/119 128/141/128 120/132/120
f 120/132/120 121/142/121 113/133/113
f 129/143/129 122/135/122 121/134/121
f 130/144/130 123/136/123 122/135/122
f 131/145/131 124/146/124 123/136/123
f 124/146/124 133/147/133 125/138/125
f 133/147/133 126/139/126 125/138/125
f 134/148/134 127/149/127 126/139/126
f 127/149/127 136/150/136 128/141/128
f 128/141/128 129/151/129 121/142/121
f 137/152/137 130/144/130 129/143/129
f 130/144/130 139/153/139 131/145/131
f 131/145/131 140/154/140 132/155/132
f 140/154/140 133/147/133 132/155/132
f 141/156/141 134/148/134 133/147/133
f 134/148/134 143/157/143 135/158/135
f 143/157/143 136/150/136 135/158/135
f 144/159/144 129/151/129 136/150/136
f 137/152/137 146/160/146 138/161/138
f 138/161/138 147/162/147 139/153/139
f 139/153/139 148/163/148 140/154/140
f 148/163/148 141/156/141 140/154/140
f 149/164/149 142/165/142 141/156/141
f 142/165/142 151/166/151 143/157/143
f 151/166/151 144/159/144 143/157/143
f 152/167/152 137/168/137 144/159/144
f 145/169/145 154/170/154 146/160/146
f 146/160/146 155/171/155 147/162/147
f 147/162/147 156/172/156 148/163/148
f 156/172/156 149/164/149 148/163/148
f 157/173/157 150/174/150 149/164/149
f 150/174/150 159/175/159 151/166/151
f 159/175/159 152/167/152 151/166/151
f 160/176/160 145/177/145 152/167/152
f 153/178/153 162/179/162 154/170/154
f 154/170/154 163/180/163 155/171/155
f 155/171/155 164/181/164 156/172/156
f 164/181/164 157/173/157 156/172/156
f 165/182/165 158/183/158 157/173/157
f 158/183/158 167/184/167 159/175/159
f 167/184/167 160/176/160 159/175/159
f 168/185/168 153/186/153 160/176/160
f 169/187/169 162/179/162 161/188/161
f 162/179/162 171/189/171 163/180/163
f 163/180/163 172/190/172 164/181/164
f 172/190/172 165/182/165 164/181/164
f 173/191/173 166/192/166 165/182/165
f 166/192/166 175/193/175 167/184/167
f 175/193/175 168/185/168 167/184/167
f 176/194/176 161/195/161 168/185/168
f 169/187/169 178/196/178 170/197/170
f 170/197/170 179/198/179 171/189/171
f 171/189/171 180/199/180 172/190/172
f 180/199/180 173/191/173 172/190/172
f 181/200/181 174/201/174 173/191/173
f 174/201/174 183/202/183 175/193/175
f 183/202/183 176/194/176 175/193/175
f 184/203/184 169/204/169 176/194/176
f 185/205/185 178/196/178 177/206/177
f 178/196/178 187/207/187 179/198/179
f 179/198/179 188/208/188 180/199/180
f 188/208/188 181/200/181 180/199/180
f 189/209/189 182/210/182 181/200/181
f 182/210/182 191/211/191 183/202/183
f 191/211/191 184/203/184 183/202/183
f 192/212/192 177/213/177 184/203/184
f 193/214/193 186/215/186 185/205/185
f 186/215/186 195/216/195 187/207/187
f 187/207/187 196/217/196 188/208/188
f 196/217/196 189/209/189 188/208/188
f 189/209/189 198/218/198 190/219/190
f 190/219/190 199/220/199 191/211/191
f 199/220/199 192/212/192 191/211/191
f 200/221/200 185/222/185 192/212/192
f 193/214/193 202/223/202 194/224/194
f 194/224/194 203/225/203 195/216/195
f 195/216/195 204/226/204 196/217/196
f 204/226/204 197/227/197 196/217/196
f 205/228/205 198/218/198 197/227/197
f 198/218/198 207/229/207 199/220/199
f 207/229/207 200/221/200 199/220/199
f 208/230/208 193/231/193 200/221/200
f 209/232/209 202/223/202 201/233/201
f 202/223/202 211/234/211 203/225/203
f 203/225/203 212/235/212 204/226/204
f 212/235/212 205/228/205 204/226/204
f 213/236/213 206/237/206 205/228/205
f 206/237/206 215/238/215 207/229/207
f 215/238/215 208/230/208 207/229/207
f 216/239/216 201/240/201 208/230/208
f 217/241/217 210/242/210 209/232/209
f 210/242/210 219/243/219 211/234/211
f 211/234/211 220/244/220 212/235/212
f 220/244/220 213/236/213 212/235/212
f 221/245/221 214/246/214 213/236/213
f 214/246/214 223/247/223 215/238/215
f 223/247/223 216/239/216 215/238/215
f 224/248/224 209/249/209 216/239/216
f 225/250/225 218/251/218 217/241/217
f 218/251/218 227/252/227 219/243/219
f 219/243/219 228/253/228 220/244/220
f 228/253/228 221/245/221 220/244/220
f 229/254/229 222/255/222 221/245/221
f 222/255/222 231/256/231 223/247/223
f 231/256/231 224/248/224 223/247/223
f 232/257/232 217/258/217 224/248/224
f 233/259/233 226/260/226 225/250/225
f 226/260/226 235/261/235 227/252/227
f 227/252/227 236/262/236 228/253/228
f 228/253/228 237/263/237 229/254/229
f 229/254/229 238/264/238 230/265/230
f 238/264/238 231/256/231 230/265/230
f 239/266/239 232/257/232 231/256/231
f 240/267/240 225/268/225 232/257/232
f 233/259/233 242/269/242 234/270/234
f 234/270/234 243/271/243 235/261/235
f 235/261/235 244/272/244 236/262/236
f 236/262/236 245/273/245 237/263/237
f 245/273/245 238/264/238 237/263/237
f 246/274/246 239/266/239 238/264/238
f 247/275/247 240/267/240 239/266/239
f 248/276/248 233/277/233 240/267/240
f 249/278/249 242/269/242 241/279/241
f 242/269/242 251/280/251 243/271/243
f 243/271/243 252/281/252 244/272/244
f 244/272/244 253/282/253 245/273/245
f 253/282/253 246/274/246 245/273/245
f 254/283/254 247/275/247 246/274/246
f 255/284/255 248/276/248 247/275/247
f 256/285/256 241/286/241 248/276/248
f 249/278/249 258/287/258 250/288/250
f 250/288/250 259/289/259 251/280/251
f 251/280/251 260/290/260 252/281/252
f 252/281/252 261/291/261 253/282/253
f 261/291/261 254/283/254 253/282/253
f 262/292/262 255/284/255 254/283/254
f 263/293/263 256/285/256 255/284/255
f 264/294/264 249/295/249 256/285/256
f 265/296/265 258/287/258 257/297/257
f 266/298/266 259/289/259 258/287/258
f 267/299/267 260/290/260 259/289/259
f 268/300/268 261/291/261 260/290/260
f 269/301/269 262/292/262 261/291/261
f 270/302/270 263/293/263 262/292/262
f 271/303/271 264/294/264 263/293/263
f 272/304/272 257/305/257 264/294/264
f 273/306/273 266/298/266 265/296/265
f 274/307/274 267/299/267 266/298/266
f 267/299/267 276/308/276 268/300/268
f 268/300/268 277/309/277 269/301/269
f 277/309/277 270/302/270 269/301/269
f 278/310/278 271/303/271 270/302/270
f 279/311/279 272/304/272 271/303/271
f 280/312/280 265/313/265 272/304/272
f 273/306/273 282/314/282 274/307/274
f 274/307/274 283/315/283 275/316/275
f 283/315/283 276/308/276 275/316/275
f 284/317/284 277/309/277 276/308/276
f 285/318/285 278/310/278 277/309/277
f 286/319/286 279/311/279 278/310/278
f 279/311/279 288/320/288 280/312/280
f 288/320/288 273/321/273 280/312/280
f 281/322/281 290/323/290 282/314/282
f 282/314/282 291/324/291 283/315/283
f 291/324/291 284/317/284 283/315/283
f 292/325/292 285/318/285 284/317/284
f 293/326/293 286/319/286 285/318/285
f 294/327/294 287/328/287 286/319/286
f 295/329/295 288/320/288 287/328/287
f 288/320/288 289/330/289 281/331/281
f 297/332/297 290/323/290 289/333/289
f 298/334/298 291/324/291 290/323/290
f 291/324/291 300/335/300 292/325/292
f 292/325/292 301/336/301 293/326/293
f 301/336/301 294/327/294 293/326/293
f 294/327/294 303/337/303 295/329/295
f 303/337/303 296/338/296 295/329/295
f 296/338/296 297/339/297 289/330/289
f 297/332/297 306/340/306 298/334/298
f 306/340/306 299/341/299 298/334/298
f 299/341/299 308/342/308 300/335/300
f 300/335/300 309/343/309 301/336/301
f 309/343/309 302/344/302 301/336/301
f 310/345/310 303/337/303 302/344/302
f 303/337/303 312/346/312 304/347/304
f 304/347/304 305/348/305 297/339/297
f 305/349/305 314/350/314 306/340/306
f 306/340/306 315/351/315 307/352/307
f 307/352/307 316/353/316 308/342/308
f 308/342/308 317/354/317 309/343/309
f 317/354/317 310/345/310 309/343/309
f 318/355/318 311/356/311 310/345/310
f 319/357/319 312/346/312 311/356/311
f 312/346/312 313/358/313 305/348/305
f 321/359/321 314/350/314 313/360/313
f 322/361/322 315/351/315 314/350/314
f 315/351/315 324/362/324 316/353/316
f 324/362/324 317/354/317 316/353/316
f 325/363/325 318/355/318 317/354/317
f 326/364/326 319/357/319 318/355/318
f 327/365/327 320/366/320 319/357/319
f 328/367/328 313/358/313 320/366/320
f 321/359/321 330/368/330 322/361/322
f 330/368/330 323/369/323 322/361/322
f 331/370/331 324/362/324 323/369/323
f 324/362/324 333/371/333 325/363/325
f 333/371/333 326/364/326 325/363/325
f 334/372/334 327/365/327 326/364/326
f 327/365/327 336/373/336 328/367/328
f 336/373/336 321/374/321 328/367/328
f 329/375/329 338/376/338 330/368/330
f 338/376/338 331/370/331 330/368/330
f 331/370/331 340/377/340 332/378/332
f 340/377/340 333/371/333 332/378/332
f 341/379/341 334/372/334 333/371/333
f 342/380/342 335/381/335 334/372/334
f 343/382/343 336/373/336 335/381/335
f 336/373/336 337/383/337 329/384/329
f 337/385/337 346/386/346 338/376/338
f 338/376/338 347/387/347 339/388/339
f 347/387/347 340/377/340 339/388/339
f 348/389/348 341/379/341 340/377/340
f 341/379/341 350/390/350 342/380/342
f 350/390/350 343/382/343 342/380/342
f 351/391/351 344/392/344 343/382/343
f 352/393/352 337/383/337 344/392/344
f 353/394/353 346/386/346 345/395/345
f 346/386/346 355/396/355 347/387/347
f 355/396/355 348/389/348 347/387/347
f 356/397/356 349/398/349 348/389/348
f 349/398/349 358/399/358 350/390/350
f 350/390/350 359/400/359 351/391/351
f 351/391/351 360/401/360 352/393/352
f 360/401/360 345/402/345 352/393/352
f 361/403/361 354/404/354 353/394/353
f 362/405/362 355/396/355 354/404/354
f 355/396/355 364/406/364 356/397/356
f 364/406/364 357/407/357 356/397/356
f 365/408/365 358/399/358 357/407/357
f 366/409/366 359/400/359 358/399/358
f 359/400/359 368/410/368 360/401/360
f 360/401/360 361/411/361 353/412/353
f 369/413/369 362/405/362 361/403/361
f 362/405/362 371/414/371 363/415/363
f 363/415/363 372/416/372 364/406/364
f 372/416/372 365/408/365 364/406/364
f 373/417/373 366/409/366 365/408/365
f 374/418/374 367/419/367 366/409/366
f 375/420/375 368/410/368 367/419/367
f 376/421/376 361/411/361 368/410/368
f 377/422/377 370/423/370 369/413/369
f 378/424/378 371/414/371 370/423/370
f 379/425/379 372/416/372 371/414/371
f 380/426/380 373/417/373 372/416/372
f 381/427/381 374/418/374 373/417/373
f 374/418/374 383/428/383 375/420/375
f 375/420/375 384/429/384 376/421/376
f 376/421/376 377/430/377 369/431/369
f 385/432/385 378/424/378 377/422/377
f 378/424/378 387/433/387 379/425/379
f 387/433/387 380/426/380 379/425/379
f 388/434/388 381/427/381 380/426/380
f 381/427/381 390/435/390 382/436/382
f 382/436/382 391/437/391 383/428/383
f 391/437/391 384/429/384 383/428/383
f 392/438/392 377/430/377 384/429/384
f 393/439/393 386/440/386 385/432/385
f 394/441/394 387/433/387 386/440/386
f 395/442/395 388/434/388 387/433/387
f 388/434/388 397/443/397 389/444/389
f 397/443/397 390/435/390 389/444/389
f 398/445/398 391/437/391 390/435/390
f 399/446/399 392/438/392 391/437/391
f 392/438/392 393/447/393 385/448/385
f 401/449/401 394/441/394 393/439/393
f 394/441/394 403/450/403 395/442/395
f 395/442/395 404/451/404 396/452/396
f 396/452/396 405/453/405 397/443/397
f 397/443/397 406/454/406 398/445/398
f 406/454/406 399/446/399 398/445/398
f 407/455/407 400/456/400 399/446/399
f 408/457/408 393/447/393 400/456/400
f 401/449/401 410/458/410 402/459/402
f 402/459/402 411/460/411 403/450/403
f 411/460/411 404/451/404 403/450/403
f 404/451/404 413/461/413 405/453/405
f 413/461/413 406/454/406 405/453/405
f 406/454/406 415/462/415 407/455/407
f 407/455/407 416/463/416 408/457/408
f 408/457/408 409/464/409 401/465/401
f 417/466/417 410/458/410 409/467/409
f 418/468/418 411/460/411 410/458/410
f 419/469/419 412/470/412 411/460/411
f 420/471/420 413/461/413 412/470/412
f 421/472/421 414/473/414 413/461/413
f 414/473/414 423/474/423 415/462/415
f 423/474/423 416/463/416 415/462/415
f 424/475/424 409/464/409 416/463/416
f 417/466/417 426/476/426 418/468/418
f 426/476/426 419/469/419 418/468/418
f 419/469/419 428/477/428 420/471/420
f 420/471/420 429/478/429 421/472/421
f 429/478/429 422/479/422 421/472/421
f 430/480/430 423/474/423 422/479/422
f 431/481/431 424/475/424 423/474/423
f 424/475/424 425/482/425 417/483/417
f 433/484/433 426/476/426 425/485/425
f 434/486/434 427/487/427 426/476/426
f 435/488/435 428/477/428 427/487/427
f 436/489/436 429/478/429 428/477/428
f 437/490/437 430/480/430 429/478/429
f 430/480/430 439/491/439 431/481/431
f 431/481/431 440/492/440 432/493/432
f 432/493/432 433/494/433 425/482/425
f 441/495/441 434/486/434 433/484/433
f 434/486/434 443/496/443 435/488/435
f 443/496/443 436/489/436 435/488/435
f 436/489/436 445/497/445 437/490/437
f 445/497/445 438/498/438 437/490/437
f 438/498/438 447/499/447 439/491/439
f 439/491/439 448/500/448 440/492/440
f 448/500/448 433/494/433 440/492/440
f 441/495/441 450/501/450 442/502/442
f 450/501/450 443/496/443 442/502/442
f 451/503/451 444/504/444 443/496/443
f 452/505/452 445/497/445 444/504/444
f 445/497/445 454/506/454 446/507/446
f 454/506/454 447/499/447 446/507/446
f 455/508/455 448/500/448 447/499/447
f 456/509/456 441/510/441 448/500/448
f 449/511/449 458/512/458 450/501/450
f 450/501/450 459/513/459 451/503/451
f 459/513/459 452/505/452 451/503/451
f 452/505/452 461/514/461 453/515/453
f 461/514/461 454/506/454 453/515/453
f 462/516/462 455/508/455 454/506/454
f 455/508/455 464/517/464 456/509/456
f 464/517/464 449/518/449 456/509/456
f 465/519/465 458/512/458 457/520/457
f 466/521/466 459/513/459 458/512/458
f 467/522/467 460/523/460 459/513/459
f 468/524/468 461/514/461 460/523/460
f 461/514/461 470/525/470 462/516/462
f 470/525/470 463/526/463 462/516/462
f 471/527/471 464/517/464 463/526/463
f 472/528/472 457/529/457 464/517/464
f 473/530/473 466/521/466 465/519/465
f 474/531/474 467/522/467 466/521/466
f 475/532/475 468/524/468 467/522/467
f 476/533/476 469/534/469 468/524/468
f 477/535/477 470/525/470 469/534/469
f 470/525/470 479/536/479 471/527/471
f 479/536/479 472/528/472 471/527/471
f 480/537/480 465/538/465 472/528/472
f 481/539/481 474/531/474 473/530/473
f 474/531/474 483/540/483 475/532/475
f 483/540/483 476/533/476 475/532/475
f 484/541/484 477/535/477 476/533/476
f 485/542/485 478/543/478 477/535/477
f 486/544/486 479/536/479 478/543/478
f 479/536/479 488/545/488 480/537/480
f 488/545/488 473/546/473 480/537/480
f 489/547/489 482/548/482 481/539/481
f 490/549/490 483/540/483 482/548/482
f 491/550/491 484/541/484 483/540/483
f 492/551/492 485/542/485 484/541/484
f 493/552/493 486/544/486 485/542/485
f 494/553/494 487/554/487 486/544/486
f 495/555/495 488/545/488 487/554/487
f 496/556/496 481/557/481 488/545/488
f 497/558/497 490/549/490 489/547/489
f 498/559/498 491/550/491 490/549/490
f 491/550/491 500/560/500 492/551/492
f 500/560/500 493/552/493 492/551/492
f 493/552/493 502/561/502 494/553/494
f 502/561/502 495/555/495 494/553/494
f 495/555/495 504/562/504 496/556/496
f 504/562/504 489/563/489 496/556/496
f 497/558/497 506/564/506 498/559/498
f 498/559/498 507/565/507 499/566/499
f 507/565/507 500/560/500 499/566/499
f 508/567/508 501/568/501 500/560/500
f 509/569/509 502/561/502 501/568/501
f 510/570/510 503/571/503 502/561/502
f 511/572/511 504/562/504 503/571/503
f 504/562/504 505/573/505 497/574/497
f 1/575/1 506/564/506 505/576/505
f 2/577/2 507/565/507 506/564/506
f 3/578/3 508/567/508 507/565/507
f 4/579/4 509/569/509 508/567/508
f 5/580/5 510/570/510 509/569/509
f 6/581/6 511/572/511 510/570/510
f 511/572/511 8/582/8 512/583/512
f 8/582/8 505/573/505 512/583/512
f 9/1/9 10/4/10 2/2/2
f 10/4/10 11/6/11 3/5/3
f 11/6/11 12/8/12 4/7/4
f 12/8/12 13/10/13 5/9/5
f 13/10/13 14/22/14 6/11/6
f 6/11/6 14/22/14 15/12/15
f 7/13/7 15/12/15 16/14/16
f 8/15/8 16/14/16 9/16/9
f 9/1/9 17/27/17 18/18/18
f 18/18/18 19/19/19 11/6/11
f 19/19/19 20/20/20 12/8/12
f 20/20/20 21/21/21 13/10/13
f 21/21/21 22/32/22 14/22/14
f 14/22/14 22/32/22 23/23/23
f 15/12/15 23/23/23 24/24/24
f 16/14/16 24/24/24 17/25/17
f 25/26/25 26/28/26 18/18/18
f 26/28/26 27/29/27 19/19/19
f 27/29/27 28/30/28 20/20/20
f 28/30/28 29/31/29 21/21/21
f 29/31/29 30/41/30 22/32/22
f 22/32/22 30/41/30 31/33/31
f 23/23/23 31/33/31 32/34/32
f 24/24/24 32/34/32 25/35/25
f 33/36/33 34/37/34 26/28/26
f 34/37/34 35/38/35 27/29/27
f 35/38/35 36/39/36 28/30/28
f 36/39/36 37/40/37 29/31/29
f 37/40/37 38/49/38 30/41/30
f 30/41/30 38/49/38 39/42/39
f 31/33/31 39/42/39 40/43/40
f 32/34/32 40/43/40 33/44/33
f 41/45/41 42/46/42 34/37/34
f 42/46/42 43/47/43 35/38/35
f 43/47/43 44/56/44 36/39/36
f 36/39/36 44/56/44 45/48/45
f 45/48/45 46/50/46 38/49/38
f 46/50/46 47/59/47 39/42/39
f 39/42/39 47/59/47 48/51/48
f 40/43/40 48/51/48 41/52/41
f 49/53/49 50/54/50 42/46/42
f 50/54/50 51/55/51 43/47/43
f 51/55/51 52/64/52 44/56/44
f 44/56/44 52/64/52 53/57/53
f 53/57/53 54/58/54 46/50/46
f 54/58/54 55/67/55 47/59/47
f 47/59/47 55/67/55 56/60/56
f 48/51/48 56/60/56 49/61/49
f 49/53/49 57/71/57 58/62/58
f 58/62/58 59/63/59 51/55/51
f 59/63/59 60/74/60 52/64/52
f 52/64/52 60/74/60 61/65/61
f 61/65/61 62/66/62 54/58/54
f 62/66/62 63/77/63 55/67/55
f 55/67/55 63/77/63 64/68/64
f 56/60/56 64/68/64 57/69/57
f 65/70/65 66/72/66 58/62/58
f 66/72/66 67/73/67 59/63/59
f 67/73/67 68/82/68 60/74/60
f 60/74/60 68/82/68 69/75/69
f 69/75/69 70/76/70 62/66/62
f 70/76/70 71/85/71 63/77/63
f 63/77/63 71/85/71 72/78/72
f 64/68/64 72/78/72 65/79/65
f 65/70/65 73/89/73 74/80/74
f 74/80/74 75/81/75 67/73/67
f 75/81/75 76/92/76 68/82/68
f 68/82/68 76/92/76 77/83/77
f 77/83/77 78/84/78 70/76/70
f 78/84/78 79/95/79 71/85/71
f 71/85/71 79/95/79 80/86/80
f 72/78/72 80/86/80 73/87/73
f 81/88/81 82/90/82 74/80/74
f 82/90/82 83/91/83 75/81/75
f 83/91/83 84/100/84 76/92/76
f 76/92/76 84/100/84 85/93/85
f 85/93/85 86/94/86 78/84/78
f 86/94/86 87/103/87 79/95/79
f 79/95/79 87/103/87 88/96/88
f 80/86/80 88/96/88 81/97/81
f 81/88/81 89/106/89 90/98/90
f 90/98/90 91/99/91 83/91/83
f 91/99/91 92/109/92 84/100/84
f 84/100/84 92/109/92 93/101/93
f 93/101/93 94/102/94 86/94/86
f 94/102/94 95/112/95 87/103/87
f 87/103/87 95/112/95 96/104/96
f 88/96/88 96/104/96 89/105/89
f 89/106/89 97/115/97 98/107/98
f 98/107/98 99/108/99 91/99/91
f 99/108/99 100/118/100 92/109/92
f 92/109/92 100/118/100 101/110/101
f 101/110/101 102/111/102 94/102/94
f 102/111/102 103/121/103 95/112/95
f 95/112/95 103/121/103 104/113/104
f 96/104/96 104/113/104 97/114/97
f 97/115/97 105/125/105 106/116/106
f 106/116/106 107/117/107 99/108/99
f 107/117/107 108/128/108 100/118/100
f 100/118/100 108/128/108 109/119/109
f 109/119/109 110/120/110 102/111/102
f 110/120/110 111/131/111 103/121/103
f 103/121/103 111/131/111 112/122/112
f 104/113/104 112/122/112 105/123/105
f 113/124/113 114/126/114 106/116/106
f 114/126/114 115/127/115 107/117/107
f 115/127/115 116/137/116 108/128/108
f 108/128/108 116/137/116 117/129/117
f 117/129/117 118/130/118 110/120/110
f 118/130/118 119/140/119 111/131/111
f 111/131/111 119/140/119 120/132/120
f 112/122/112 120/132/120 113/133/113
f 121/134/121 122/135/122 114/126/114
f 122/135/122 123/136/123 115/127/115
f 123/136/123 124/146/124 116/137/116
f 116/137/116 124/146/124 125/138/125
f 117/129/117 125/138/125 126/139/126
f 126/139/126 127/149/127 119/140/119
f 119/140/119 127/149/127 128/141/128
f 120/132/120 128/141/128 121/142/121
f 129/143/129 130/144/130 122/135/122
f 130/144/130 131/145/131 123/136/123
f 131/145/131 132/155/132 124/146/124
f 124/146/124 132/155/132 133/147/133
f 133/147/133 134/148/134 126/139/126
f 134/148/134 135/158/135 127/149/127
f 127/149/127 135/158/135 136/150/136
f 128/141/128 136/150/136 129/151/129
f 137/152/137 138/161/138 130/144/130
f 130/144/130 138/161/138 139/153/139
f 131/145/131 139/153/139 140/154/140
f 140/154/140 141/156/141 133/147/133
f 141/156/141 142/165/142 134/148/134
f 134/148/134 142/165/142 143/157/143
f 143/157/143 144/159/144 136/150/136
f 144/159/144 137/168/137 129/151/129
f 137/152/137 145/169/145 146/160/146
f 138/161/138 146/160/146 147/162/147
f 139/153/139 147/162/147 148/163/148
f 148/163/148 149/164/149 141/156/141
f 149/164/149 150/174/150 142/165/142
f 142/165/142 150/174/150 151/166/151
f 151/166/151 152/167/152 144/159/144
f 152/167/152 145/177/145 137/168/137
f 145/169/145 153/178/153 154/170/154
f 146/160/146 154/170/154 155/171/155
f 147/162/147 155/171/155 156/172/156
f 156/172/156 157/173/157 149/164/149
f 157/173/157 158/183/158 150/174/150
f 150/174/150 158/183/158 159/175/159
f 159/175/159 160/176/160 152/167/152
f 160/176/160 153/186/153 145/177/145
f 153/178/153 161/188/161 162/179/162
f 154/170/154 162/179/162 163/180/163
f 155/171/155 163/180/163 164/181/164
f 164/181/164 165/182/165 157/173/157
f 165/182/165 166/192/166 158/183/158
f 158/183/158 166/192/166 167/184/167
f 167/184/167 168/185/168 160/176/160
f 168/185/168 161/195/161 153/186/153
f 169/187/169 170/197/170 162/179/162
f 162/179/162 170/197/170 171/189/171
f 163/180/163 171/189/171 172/190/172
f 172/190/172 173/191/173 165/182/165
f 173/191/173 174/201/174 166/192/166
f 166/192/166 174/201/174 175/193/175
f 175/193/175 176/194/176 168/185/168
f 176/194/176 169/204/169 161/195/161
f 169/187/169 177/206/177 178/196/178
f 170/197/170 178/196/178 179/198/179
f 171/189/171 179/198/179 180/199/180
f 180/199/180 181/200/181 173/191/173
f 181/200/181 182/210/182 174/201/174
f 174/201/174 182/210/182 183/202/183
f 183/202/183 184/203/184 176/194/176
f 184/203/184 177/213/177 169/204/169
f 185/205/185 186/215/186 178/196/178
f 178/196/178 186/215/186 187/207/187
f 179/198/179 187/207/187 188/208/188
f 188/208/188 189/209/189 181/200/181
f 189/209/189 190/219/190 182/210/182
f 182/210/182 190/219/190 191/211/191
f 191/211/191 192/212/192 184/203/184
f 192/212/192 185/222/185 177/213/177
f 193/214/193 194/224/194 186/215/186
f 186/215/186 194/224/194 195/216/195
f 187/207/187 195/216/195 196/217/196
f 196/217/196 197/227/197 189/209/189
f 189/209/189 197/227/197 198/218/198
f 190/219/190 198/218/198 199/220/199
f 199/220/199 200/221/200 192/212/192
f 200/221/200 193/231/193 185/222/185
f 193/214/193 201/233/201 202/223/202
f 194/224/194 202/223/202 203/225/203
f 195/216/195 203/225/203 204/226/204
f 204/226/204 205/228/205 197/227/197
f 205/228/205 206/237/206 198/218/198
f 198/218/198 206/237/206 207/229/207
f 207/229/207 208/230/208 200/221/200
f 208/230/208 201/240/201 193/231/193
f 209/232/209 210/242/210 202/223/202
f 202/223/202 210/242/210 211/234/211
f 203/225/203 211/234/211 212/235/212
f 212/235/212 213/236/213 205/228/205
f 213/236/213 214/246/214 206/237/206
f 206/237/206 214/246/214 215/238/215
f 215/238/215 216/239/216 208/230/208
f 216/239/216 209/249/209 201/240/201
f 217/241/217 218/251/218 210/242/210
f 210/242/210 218/251/218 219/243/219
f 211/234/211 219/243/219 220/244/220
f 220/244/220 221/245/221 213/236/213
f 221/245/221 222/255/222 214/246/214
f 214/246/214 222/255/222 223/247/223
f 223/247/223 224/248/224 216/239/216
f 224/248/224 217/258/217 209/249/209
f 225/250/225 226/260/226 218/251/218
f 218/251/218 226/260/226 227/252/227
f 219/243/219 227/252/227 228/253/228
f 228/253/228 229/254/229 221/245/221
f 229/254/229 230/265/230 222/255/222
f 222/255/222 230/265/230 231/256/231
f 231/256/231 232/257/232 224/248/224
f 232/257/232 225/268/225 217/258/217
f 233/259/233 234/270/234 226/260/226
f 226/260/226 234/270/234 235/261/235
f 227/252/227 235/261/235 236/262/236
f 228/253/228 236/262/236 237/263/237
f 229/254/229 237/263/237 238/264/238
f 238/264/238 239/266/239 231/256/231
f 239/266/239 240/267/240 232/257/232
f 240/267/240 233/277/233 225/268/225
f 233/259/233 241/279/241 242/269/242
f 234/270/234 242/269/242 243/271/243
f 235/261/235 243/271/243 244/272/244
f 236/262/236 244/272/244 245/273/245
f 245/273/245 246/274/246 238/264/238
f 246/274/246 247/275/247 239/266/239
f 247/275/247 248/276/248 240/267/240
f 248/276/248 241/286/241 233/277/233
f 249/278/249 250/288/250 242/269/242
f 242/269/242 250/288/250 251/280/251
f 243/271/243 251/280/251 252/281/252
f 244/272/244 252/281/252 253/282/253
f 253/282/253 254/283/254 246/274/246
f 254/283/254 255/284/255 247/275/247
f 255/284/255 256/285/256 248/276/248
f 256/285/256 249/295/249 241/286/241
f 249/278/249 257/297/257 258/287/258
f 250/288/250 258/287/258 259/289/259
f 251/280/251 259/289/259 260/290/260
f 252/281/252 260/290/260 261/291/261
f 261/291/261 262/292/262 254/283/254
f 262/292/262 263/293/263 255/284/255
f 263/293/263 264/294/264 256/285/256
f 264/294/264 257/305/257 249/295/249
f 265/296/265 266/298/266 258/287/258
f 266/298/266 267/299/267 259/289/259
f 267/299/267 268/300/268 260/290/260
f 268/300/268 269/301/269 261/291/261
f 269/301/269 270/302/270 262/292/262
f 270/302/270 271/303/271 263/293/263
f 271/303/271 272/304/272 264/294/264
f 272/304/272 265/313/265 257/305/257
f 273/306/273 274/307/274 266/298/266
f 274/307/274 275/316/275 267/299/267
f 267/299/267 275/316/275 276/308/276
f 268/300/268 276/308/276 277/309/277
f 277/309/277 278/310/278 270/302/270
f 278/310/278 279/311/279 271/303/271
f 279/311/279 280/312/280 272/304/272
f 280/312/280 273/321/273 265/313/265
f 273/306/273 281/322/281 282/314/282
f 274/307/274 282/314/282 283/315/283
f 283/315/283 284/317/284 276/308/276
f 284/317/284 285/318/285 277/309/277
f 285/318/285 286/319/286 278/310/278
f 286/319/286 287/328/287 279/311/279
f 279/311/279 287/328/287 288/320/288
f 288/320/288 281/331/281 273/321/273
f 281/322/281 289/333/289 290/323/290
f 282/314/282 290/323/290 291/324/291
f 291/324/291 292/325/292 284/317/284
f 292/325/292 293/326/293 285/318/285
f 293/326/293 294/327/294 286/319/286
f 294/327/294 295/329/295 287/328/287
f 295/329/295 296/338/296 288/320/288
f 288/320/288 296/338/296 289/330/289
f 297/332/297 298/334/298 290/323/290
f 298/334/298 299/341/299 291/324/291
f 291/324/291 299/341/299 300/335/300
f 292/325/292 300/335/300 301/336/301
f 301/336/301 302/344/302 294/327/294
f 294/327/294 302/344/302 303/337/303
f 303/337/303 304/347/304 296/338/296
f 296/338/296 304/347/304 297/339/297
f 297/332/297 305/349/305 306/340/306
f 306/340/306 307/352/307 299/341/299
f 299/341/299 307/352/307 308/342/308
f 300/335/300 308/342/308 309/343/309
f 309/343/309 310/345/310 302/344/302
f 310/345/310 311/356/311 303/337/303
f 303/337/303 311/356/311 312/346/312
f 304/347/304 312/346/312 305/348/305
f 305/349/305 313/360/313 314/350/314
f 306/340/306 314/350/314 315/351/315
f 307/352/307 315/351/315 316/353/316
f 308/342/308 316/353/316 317/354/317
f 317/354/317 318/355/318 310/345/310
f 318/355/318 319/357/319 311/356/311
f 319/357/319 320/366/320 312/346/312
f 312/346/312 320/366/320 313/358/313
f 321/359/321 322/361/322 314/350/314
f 322/361/322 323/369/323 315/351/315
f 315/351/315 323/369/323 324/362/324
f 324/362/324 325/363/325 317/354/317
f 325/363/325 326/364/326 318/355/318
f 326/364/326 327/365/327 319/357/319
f 327/365/327 328/367/328 320/366/320
f 328/367/328 321/374/321 313/358/313
f 321/359/321 329/375/329 330/368/330
f 330/368/330 331/370/331 323/369/323
f 331/370/331 332/378/332 324/362/324
f 324/362/324 332/378/332 333/371/333
f 333/371/333 334/372/334 326/364/326
f 334/372/334 335/381/335 327/365/327
f 327/365/327 335/381/335 336/373/336
f 336/373/336 329/384/329 321/374/321
f 329/375/329 337/385/337 338/376/338
f 338/376/338 339/388/339 331/370/331
f 331/370/331 339/388/339 340/377/340
f 340/377/340 341/379/341 333/371/333
f 341/379/341 342/380/342 334/372/334
f 342/380/342 343/382/343 335/381/335
f 343/382/343 344/392/344 336/373/336
f 336/373/336 344/392/344 337/383/337
f 337/385/337 345/395/345 346/386/346
f 338/376/338 346/386/346 347/387/347
f 347/387/347 348/389/348 340/377/340
f 348/389/348 349/398/349 341/379/341
f 341/379/341 349/398/349 350/390/350
f 350/390/350 351/391/351 343/382/343
f 351/391/351 352/393/352 344/392/344
f 352/393/352 345/402/345 337/383/337
f 353/394/353 354/404/354 346/386/346
f 346/386/346 354/404/354 355/396/355
f 355/396/355 356/397/356 348/389/348
f 356/397/356 357/407/357 349/398/349
f 349/398/349 357/407/357 358/399/358
f 350/390/350 358/399/358 359/400/359
f 351/391/351 359/400/359 360/401/360
f 360/401/360 353/412/353 345/402/345
f 361/403/361 362/405/362 354/404/354
f 362/405/362 363/415/363 355/396/355
f 355/396/355 363/415/363 364/406/364
f 364/406/364 365/408/365 357/407/357
f 365/408/365 366/409/366 358/399/358
f 366/409/366 367/419/367 359/400/359
f 359/400/359 367/419/367 368/410/368
f 360/401/360 368/410/368 361/411/361
f 369/413/369 370/423/370 362/405/362
f 362/405/362 370/423/370 371/414/371
f 363/415/363 371/414/371 372/416/372
f 372/416/372 373/417/373 365/408/365
f 373/417/373 374/418/374 366/409/366
f 374/418/374 375/420/375 367/419/367
f 375/420/375 376/421/376 368/410/368
f 376/421/376 369/431/369 361/411/361
f 377/422/377 378/424/378 370/423/370
f 378/424/378 379/425/379 371/414/371
f 379/425/379 380/426/380 372/416/372
f 380/426/380 381/427/381 373/417/373
f 381/427/381 382/436/382 374/418/374
f 374/418/374 382/436/382 383/428/383
f 375/420/375 383/428/383 384/429/384
f 376/421/376 384/429/384 377/430/377
f 385/432/385 386/440/386 378/424/378
f 378/424/378 386/440/386 387/433/387
f 387/433/387 388/434/388 380/426/380
f 388/434/388 389/444/389 381/427/381
f 381/427/381 389/444/389 390/435/390
f 382/436/382 390/435/390 391/437/391
f 391/437/391 392/438/392 384/429/384
f 392/438/392 385/448/385 377/430/377
f 393/439/393 394/441/394 386/440/386
f 394/441/394 395/442/395 387/433/387
f 395/442/395 396/452/396 388/434/388
f 388/434/388 396/452/396 397/443/397
f 397/443/397 398/445/398 390/435/390
f 398/445/398 399/446/399 391/437/391
f 399/446/399 400/456/400 392/438/392
f 392/438/392 400/456/400 393/447/393
f 401/449/401 402/459/402 394/441/394
f 394/441/394 402/459/402 403/450/403
f 395/442/395 403/450/403 404/451/404
f 396/452/396 404/451/404 405/453/405
f 397/443/397 405/453/405 406/454/406
f 406/454/406 407/455/407 399/446/399
f 407/455/407 408/457/408 400/456/400
f 408/457/408 401/465/401 393/447/393
f 401/449/401 409/467/409 410/458/410
f 402/459/402 410/458/410 411/460/411
f 411/460/411 412/470/412 404/451/404
f 404/451/404 412/470/412 413/461/413
f 413/461/413 414/473/414 406/454/406
f 406/454/406 414/473/414 415/462/415
f 407/455/407 415/462/415 416/463/416
f 408/457/408 416/463/416 409/464/409
f 417/466/417 418/468/418 410/458/410
f 418/468/418 419/469/419 411/460/411
f 419/469/419 420/471/420 412/470/412
f 420/471/420 421/472/421 413/461/413
f 421/472/421 422/479/422 414/473/414
f 414/473/414 422/479/422 423/474/423
f 423/474/423 424/475/424 416/463/416
f 424/475/424 417/483/417 409/464/409
f 417/466/417 425/485/425 426/476/426
f 426/476/426 427/487/427 419/469/419
f 419/469/419 427/487/427 428/477/428
f 420/471/420 428/477/428 429/478/429
f 429/478/429 430/480/430 422/479/422
f 430/480/430 431/481/431 423/474/423
f 431/481/431 432/493/432 424/475/424
f 424/475/424 432/493/432 425/482/425
f 433/484/433 434/486/434 426/476/426
f 434/486/434 435/488/435 427/487/427
f 435/488/435 436/489/436 428/477/428
f 436/489/436 437/490/437 429/478/429
f 437/490/437 438/498/438 430/480/430
f 430/480/430 438/498/438 439/491/439
f 431/481/431 439/491/439 440/492/440
f 432/493/432 440/492/440 433/494/433
f 441/495/441 442/502/442 434/486/434
f 434/486/434 442/502/442 443/496/443
f 443/496/443 444/504/444 436/489/436
f 436/489/436 444/504/444 445/497/445
f 445/497/445 446/507/446 438/498/438
f 438/498/438 446/507/446 447/499/447
f 439/491/439 447/499/447 448/500/448
f 448/500/448 441/510/441 433/494/433
f 441/495/441 449/511/449 450/501/450
f 450/501/450 451/503/451 443/496/443
f 451/503/451 452/505/452 444/504/444
f 452/505/452 453/515/453 445/497/445
f 445/497/445 453/515/453 454/506/454
f 454/506/454 455/508/455 447/499/447
f 455/508/455 456/509/456 448/500/448
f 456/509/456 449/518/449 441/510/441
f 449/511/449 457/520/457 458/512/458
f 450/501/450 458/512/458 459/513/459
f 459/513/459 460/523/460 452/505/452
f 452/505/452 460/523/460 461/514/461
f 461/514/461 462/516/462 454/506/454
f 462/516/462 463/526/463 455/508/455
f 455/508/455 463/526/463 464/517/464
f 464/517/464 457/529/457 449/518/449
f 465/519/465 466/521/466 458/512/458
f 466/521/466 467/522/467 459/513/459
f 467/522/467 468/524/468 460/523/460
f 468/524/468 469/534/469 461/514/461
f 461/514/461 469/534/469 470/525/470
f 470/525/470 471/527/471 463/526/463
f 471/527/471 472/528/472 464/517/464
f 472/528/472 465/538/465 457/529/457
f 473/530/473 474/531/474 466/521/466
f 474/531/474 475/532/475 467/522/467
f 475/532/475 476/533/476 468/524/468
f 476/533/476 477/535/477 469/534/469
f 477/535/477 478/543/478 470/525/470
f 470/525/470 478/543/478 479/536/479
f 479/536/479 480/537/480 472/528/472
f 480/537/480 473/546/473 465/538/465
f 481/539/481 482/548/482 474/531/474
f 474/531/474 482/548/482 483/540/483
f 483/540/483 484/541/484 476/533/476
f 484/541/484 485/542/485 477/535/477
f 485/542/485 486/544/486 478/543/478
f 486/544/486 487/554/487 479/536/479
f 479/536/479 487/554/487 488/545/488
f 488/545/488 481/557/481 473/546/473
f 489/547/489 490/549/490 482/548/482
f 490/549/490 491/550/491 483/540/483
f 491/550/491 492/551/492 484/541/484
f 492/551/492 493/552/493 485/542/485
f 493/552/493 494/553/494 486/544/486
f 494/553/494 495/555/495 487/554/487
f 495/555/495 496/556/496 488/545/488
f 496/556/496 489/563/489 481/557/481
f 497/558/497 498/559/498 490/549/490
f 498/559/498 499/566/499 491/550/491
f 491/550/491 499/566/499 500/560/500
f 500/560/500 501/568/501 493/552/493
f 493/552/493 501/568/501 502/561/502
f 502/561/502 503/571/503 495/555/495
f 495/555/495 503/571/503 504/562/504
f 504/562/504 497/574/497 489/563/489
f 497/558/497 505/576/505 506/564/506
f 498/559/498 506/564/506 507/565/507
f 507/565/507 508/567/508 500/560/500
f 508/567/508 509/569/509 501/568/501
f 509/569/509 510/570/510 502/561/502
f 510/570/510 511/572/511 503/571/503
f 511/572/511 512/583/512 504/562/504
f 504/562/504 512/583/512 505/573/505
f 1/575/1 2/577/2 506/564/506
f 2/577/2 3/578/3 507/565/507
f 3/578/3 4/579/4 508/567/508
f 4/579/4 5/580/5 509/569/509
f 5/580/5 6/581/6 510/570/510
f 6/581/6 7/584/7 511/572/511
f 511/572/511 7/584/7 8/582/8
f 8/582/8 1/585/1 505/573/505
g B_UnmarkedOctagonalSealWithBeveledEdges.001_B_UnmarkedOctagonalSealWithBeveledEdges.001
v 0.380000 0.570518 0.654606
v 0.520000 0.618401 0.523049
v 0.520000 0.809932 -0.003179
v 0.380000 0.857815 -0.134736
v -0.380000 0.857815 -0.134736
v -0.520000 0.809932 -0.003179
v -0.520000 0.618401 0.523049
v -0.380000 0.570518 0.654606
v 0.400000 0.638853 0.700762
v 0.540000 0.686736 0.569205
v 0.540000 0.891948 0.005389
v 0.400000 0.939831 -0.126168
v -0.400000 0.939831 -0.126168
v -0.540000 0.891948 0.005389
v -0.540000 0.686736 0.569205
v -0.400000 0.638853 0.700762
v 0.360000 0.755900 0.700796
v 0.500000 0.803783 0.569239
v 0.500000 0.981633 0.080599
v 0.360000 1.029516 -0.050958
v -0.360000 1.029516 -0.050958
v -0.500000 0.981633 0.080599
v -0.500000 0.803783 0.569239
v -0.360000 0.755900 0.700796
vn -0.0000 -0.9397 -0.3420
vn 0.6667 -0.5412 0.5125
vn 0.9701 -0.2279 -0.0830
vn 0.6667 -0.0852 -0.7405
vn -0.0000 0.1039 -0.9946
vn -0.6667 -0.0852 -0.7405
vn -0.9701 -0.2279 -0.0830
vn -0.6667 -0.5412 0.5125
vn -0.0000 -0.5597 0.8287
vn 0.6288 0.2147 0.7473
vn 0.9398 0.3211 0.1169
vn 0.6288 0.6448 -0.4345
vn -0.0000 0.6426 -0.7662
vn -0.6288 0.6448 -0.4345
vn -0.9398 0.3211 0.1169
vn -0.6288 0.2147 0.7473
vn -0.0000 -0.0003 1.0000
vn -0.0000 0.9397 0.3420
vt 0.171971 0.399103
vt 0.948881 0.376420
vt 0.828029 0.263006
vt 0.150391 0.259766
vt 0.033854 0.331055
vt 0.033854 0.259766
vt 0.266927 0.259766
vt 0.150391 0.331055
vt 0.383464 0.331055
vt 0.266927 0.331055
vt 0.383464 0.259766
vt 0.500000 0.331055
vt 0.616536 0.259766
vt 0.500000 0.259766
vt 0.733073 0.331055
vt 0.616536 0.331055
vt 0.733073 0.259766
vt 0.849609 0.331055
vt 0.966146 0.259766
vt 0.849609 0.259766
vt 0.150391 0.402344
vt 0.033854 0.402344
vt 0.266927 0.402344
vt 0.383464 0.402344
vt 0.500000 0.402344
vt 0.616536 0.402344
vt 0.733073 0.402344
vt 0.966146 0.331055
vt 0.849609 0.402344
vt 0.932500 0.949219
vt 0.757812 0.895898
vt 0.786250 0.644531
vt 0.171971 0.263006
vt 0.051119 0.285689
vt 0.051119 0.376420
vt 0.828029 0.399103
vt 0.948881 0.285689
vt 0.966146 0.402344
vt 0.932500 0.644531
vt 0.960938 0.697852
vt 0.960938 0.895898
vt 0.786250 0.949219
vt 0.757812 0.697852
s 0
g B_UnmarkedOctagonalSealWithBeveledEdges.001_untarnished_signet_gold
usemtl untarnished_signet_gold
f 517/586/513 515/587/513 513/588/513
f 514/589/514 521/590/514 513/591/514
f 515/592/515 522/593/515 514/589/515
f 515/592/516 524/594/516 523/595/516
f 516/596/517 525/597/517 524/594/517
f 518/598/518 525/597/518 517/599/518
f 518/598/519 527/600/519 526/601/519
f 519/602/520 528/603/520 527/600/520
f 513/604/521 528/603/521 520/605/521
f 521/590/522 530/606/522 529/607/522
f 523/595/523 530/606/523 522/593/523
f 524/594/524 531/608/524 523/595/524
f 525/597/525 532/609/525 524/594/525
f 526/601/526 533/610/526 525/597/526
f 527/600/527 534/611/527 526/601/527
f 528/603/528 535/612/528 527/600/528
f 521/613/529 536/614/529 528/603/529
f 513/588/513 520/618/513 519/619/513
f 519/619/513 518/620/513 517/586/513
f 517/586/513 516/621/513 515/587/513
f 515/587/513 514/622/513 513/588/513
f 513/588/513 519/619/513 517/586/513
f 514/589/514 522/593/514 521/590/514
f 515/592/515 523/595/515 522/593/515
f 515/592/516 516/596/516 524/594/516
f 516/596/517 517/599/517 525/597/517
f 518/598/518 526/601/518 525/597/518
f 518/598/519 519/602/519 527/600/519
f 519/602/520 520/605/520 528/603/520
f 513/604/521 521/613/521 528/603/521
f 521/590/522 522/593/522 530/606/522
f 523/595/523 531/608/523 530/606/523
f 524/594/524 532/609/524 531/608/524
f 525/597/525 533/610/525 532/609/525
f 526/601/526 534/611/526 533/610/526
f 527/600/527 535/612/527 534/611/527
f 528/603/528 536/614/528 535/612/528
f 521/613/529 529/623/529 536/614/529
g B_UnmarkedOctagonalSealWithBeveledEdges.001_untarnished_signet_signet_face
usemtl untarnished_signet_signet_face
f 532/615/530 534/616/530 536/617/530
f 536/617/530 529/624/530 530/625/530
f 530/625/530 531/626/530 532/615/530
f 532/615/530 533/627/530 534/616/530
f 534/616/530 535/628/530 536/617/530
f 536/617/530 530/625/530 532/615/530
