# Blender 5.2.2 LTS
# www.blender.org
mtllib venom_knife.mtl
g A_Blade.001_A_Blade.001
v 0.200000 0.400000 0.000000
v 0.160000 0.400000 -0.049000
v 0.092000 0.400000 -0.049000
v 0.073600 0.400000 -0.049000
v -0.073600 0.400000 -0.049000
v -0.092000 0.400000 -0.049000
v -0.160000 0.400000 -0.049000
v -0.200000 0.400000 0.000000
v -0.160000 0.400000 0.049000
v -0.092000 0.400000 0.049000
v -0.073600 0.400000 0.049000
v 0.073600 0.400000 0.049000
v 0.092000 0.400000 0.049000
v 0.160000 0.400000 0.049000
v 0.215917 0.525000 0.000000
v 0.175117 0.525000 -0.049000
v 0.105757 0.525000 -0.049000
v 0.086989 0.525000 -0.049000
v -0.063155 0.525000 -0.049000
v -0.081923 0.525000 -0.049000
v -0.151283 0.525000 -0.049000
v -0.192083 0.525000 0.000000
v -0.151283 0.525000 0.049000
v -0.081923 0.525000 0.049000
v -0.063155 0.525000 0.049000
v 0.086989 0.525000 0.049000
v 0.105757 0.525000 0.049000
v 0.175117 0.525000 0.049000
v 0.074004 1.950000 0.000000
v 0.035204 1.950000 -0.046550
v -0.030756 1.950000 -0.046550
v -0.048604 1.950000 -0.046550
v -0.191388 1.950000 -0.046550
v -0.209236 1.950000 -0.046550
v -0.275196 1.950000 -0.046550
v -0.313996 1.950000 0.000000
v -0.275196 1.950000 0.046550
v -0.209236 1.950000 0.046550
v -0.191388 1.950000 0.046550
v -0.048604 1.950000 0.046550
v -0.030756 1.950000 0.046550
v 0.035204 1.950000 0.046550
v 0.043127 2.000000 0.000000
v 0.011927 2.000000 -0.040180
v -0.041113 2.000000 -0.040180
v -0.055465 2.000000 -0.040180
v -0.170281 2.000000 -0.040180
v -0.184633 2.000000 -0.040180
v -0.237673 2.000000 -0.040180
v -0.268873 2.000000 0.000000
v -0.237673 2.000000 0.040180
v -0.184633 2.000000 0.040180
v -0.170281 2.000000 0.040180
v -0.055465 2.000000 0.040180
v -0.041113 2.000000 0.040180
v 0.011927 2.000000 0.040180
v 0.115338 2.210000 0.000000
v 0.098538 2.210000 -0.029400
v 0.069978 2.210000 -0.029400
v 0.062250 2.210000 -0.029400
v 0.000426 2.210000 -0.029400
v -0.007302 2.210000 -0.029400
v -0.035862 2.210000 -0.029400
v -0.052662 2.210000 0.000000
v -0.035862 2.210000 0.029400
v -0.007302 2.210000 0.029400
v 0.000426 2.210000 0.029400
v 0.062250 2.210000 0.029400
v 0.069978 2.210000 0.029400
v 0.098538 2.210000 0.029400
v 0.127742 2.330000 0.000000
v 0.123742 2.330000 -0.014700
v 0.116942 2.330000 -0.014700
v 0.115102 2.330000 -0.014700
v 0.100382 2.330000 -0.014700
v 0.098542 2.330000 -0.014700
v 0.091742 2.330000 -0.014700
v 0.087742 2.330000 0.000000
v 0.091742 2.330000 0.014700
v 0.098542 2.330000 0.014700
v 0.100382 2.330000 0.014700
v 0.115102 2.330000 0.014700
v 0.116942 2.330000 0.014700
v 0.123742 2.330000 0.014700
v 0.122127 2.350000 0.000000
v 0.120527 2.350000 -0.009800
v 0.117807 2.350000 -0.009800
v 0.117071 2.350000 -0.009800
v 0.111183 2.350000 -0.009800
v 0.110447 2.350000 -0.009800
v 0.107727 2.350000 -0.009800
v 0.106127 2.350000 0.000000
v 0.107727 2.350000 0.009800
v 0.110447 2.350000 0.009800
v 0.111183 2.350000 0.009800
v 0.117071 2.350000 0.009800
v 0.117807 2.350000 0.009800
v 0.120527 2.350000 0.009800
vn 0.7648 -0.0974 -0.6368
vn -0.0000 -0.0000 -1.0000
vn -0.7674 0.0535 -0.6390
vn -0.7737 0.0490 0.6316
vn -0.0000 -0.0000 1.0000
vn 0.7713 -0.0933 0.6296
vn 0.7662 0.0763 -0.6380
vn -0.0000 0.0017 -1.0000
vn -0.7668 -0.0656 -0.6385
vn -0.7665 -0.0656 0.6389
vn -0.0000 0.0017 1.0000
vn 0.7659 0.0763 0.6384
vn 0.6940 0.4286 -0.5785
vn -0.0000 0.1264 -0.9920
vn -0.6559 0.5571 -0.5093
vn -0.6313 0.5697 0.5262
vn -0.0000 0.1264 0.9920
vn 0.7214 0.4072 0.5602
vn 0.8320 -0.2861 -0.4754
vn -0.0000 0.0513 -0.9987
vn -0.6583 0.6520 -0.3762
vn -0.6128 0.6309 0.4758
vn -0.0000 0.0513 0.9987
vn 0.7577 -0.2823 0.5884
vn 0.9602 -0.0992 -0.2613
vn -0.0000 0.1216 -0.9926
vn -0.6627 0.7268 -0.1803
vn -0.6091 0.7127 0.3481
vn -0.0000 0.1216 0.9926
vn 0.8619 -0.1207 0.4925
vn 0.9511 0.2670 -0.1553
vn -0.0000 0.2380 -0.9713
vn -0.7601 0.6379 -0.1241
vn -0.7219 0.6636 0.1964
vn -0.0000 0.2380 0.9713
vn 0.9425 0.2144 0.2565
vn -0.0000 -1.0000 -0.0000
vn -0.0000 1.0000 -0.0000
vn 0.7713 -0.0933 -0.6296
vn -0.7737 0.0490 -0.6316
vn -0.7674 0.0535 0.6390
vn 0.7648 -0.0974 0.6368
vn 0.7659 0.0763 -0.6384
vn -0.7665 -0.0656 -0.6389
vn -0.7668 -0.0656 0.6385
vn 0.7662 0.0763 0.6380
vn 0.7214 0.4072 -0.5602
vn -0.6313 0.5697 -0.5262
vn -0.6559 0.5571 0.5093
vn 0.6940 0.4286 0.5785
vn 0.7577 -0.2823 -0.5884
vn -0.6128 0.6309 -0.4758
vn -0.6583 0.6520 0.3762
vn 0.8320 -0.2861 0.4754
vn 0.8619 -0.1207 -0.4925
vn -0.6091 0.7127 -0.3481
vn -0.6627 0.7268 0.1803
vn 0.9602 -0.0992 0.2613
vn 0.9425 0.2144 -0.2565
vn -0.7219 0.6636 -0.1964
vn -0.7601 0.6379 0.1241
vn 0.9511 0.2670 0.1553
vt 0.920000 0.163265
vt 0.842720 0.214286
vt 0.928400 0.214286
vt 0.836000 0.163265
vt 0.697064 0.214286
vt 0.693200 0.163265
vt 0.657651 0.214286
vt 0.654560 0.163265
vt 0.342349 0.214286
vt 0.345440 0.163265
vt 0.302936 0.214286
vt 0.306800 0.163265
vt 0.157280 0.214286
vt 0.164000 0.163265
vt 0.071600 0.214286
vt 0.080000 0.163265
vt 0.907400 0.795918
vt 0.825920 0.795918
vt 0.687404 0.795918
vt 0.649923 0.795918
vt 0.350077 0.795918
vt 0.312596 0.795918
vt 0.174080 0.795918
vt 0.092600 0.795918
vt 0.827600 0.816327
vt 0.762080 0.816327
vt 0.650696 0.816327
vt 0.379443 0.816327
vt 0.620557 0.816327
vt 0.349304 0.816327
vt 0.237920 0.816327
vt 0.172400 0.816327
vt 0.641120 0.902041
vt 0.676400 0.902041
vt 0.581144 0.902041
vt 0.564915 0.902041
vt 0.435085 0.902041
vt 0.418856 0.902041
vt 0.358880 0.902041
vt 0.323600 0.902041
vt 0.533600 0.951020
vt 0.542000 0.951020
vt 0.519320 0.951020
vt 0.515456 0.951020
vt 0.484544 0.951020
vt 0.480680 0.951020
vt 0.466400 0.951020
vt 0.458000 0.951020
vt 0.513440 0.959184
vt 0.516800 0.959184
vt 0.506182 0.959184
vt 0.507728 0.959184
vt 0.493818 0.959184
vt 0.492272 0.959184
vt 0.486560 0.959184
vt 0.483200 0.959184
s 0
g A_Blade.001_venom_knife_blade
usemtl venom_knife_blade
f 1/1/1 16/2/1 15/3/1
f 2/4/2 17/5/2 16/2/2
f 3/6/2 18/7/2 17/5/2
f 4/8/2 19/9/2 18/7/2
f 5/10/2 20/11/2 19/9/2
f 6/12/2 21/13/2 20/11/2
f 7/14/3 22/15/3 21/13/3
f 9/14/4 22/15/4 8/16/4
f 10/12/5 23/13/5 9/14/5
f 11/10/5 24/11/5 10/12/5
f 12/8/5 25/9/5 11/10/5
f 13/6/5 26/7/5 12/8/5
f 14/4/5 27/5/5 13/6/5
f 1/1/6 28/2/6 14/4/6
f 16/2/7 29/17/7 15/3/7
f 17/5/8 30/18/8 16/2/8
f 18/7/8 31/19/8 17/5/8
f 19/9/8 32/20/8 18/7/8
f 20/11/8 33/21/8 19/9/8
f 21/13/8 34/22/8 20/11/8
f 22/15/9 35/23/9 21/13/9
f 22/15/10 37/23/10 36/24/10
f 23/13/11 38/22/11 37/23/11
f 24/11/11 39/21/11 38/22/11
f 25/9/11 40/20/11 39/21/11
f 26/7/11 41/19/11 40/20/11
f 27/5/11 42/18/11 41/19/11
f 28/2/12 29/17/12 42/18/12
f 30/18/13 43/25/13 29/17/13
f 31/19/14 44/26/14 30/18/14
f 32/20/14 45/27/14 31/19/14
f 32/20/14 47/28/14 46/29/14
f 33/21/14 48/30/14 47/28/14
f 34/22/14 49/31/14 48/30/14
f 35/23/15 50/32/15 49/31/15
f 37/23/16 50/32/16 36/24/16
f 38/22/17 51/31/17 37/23/17
f 39/21/17 52/30/17 38/22/17
f 40/20/17 53/28/17 39/21/17
f 40/20/17 55/27/17 54/29/17
f 41/19/17 56/26/17 55/27/17
f 42/18/18 43/25/18 56/26/18
f 43/25/19 58/33/19 57/34/19
f 44/26/20 59/35/20 58/33/20
f 45/27/20 60/36/20 59/35/20
f 46/29/20 61/37/20 60/36/20
f 47/28/20 62/38/20 61/37/20
f 48/30/20 63/39/20 62/38/20
f 49/31/21 64/40/21 63/39/21
f 51/31/22 64/40/22 50/32/22
f 52/30/23 65/39/23 51/31/23
f 53/28/23 66/38/23 52/30/23
f 54/29/23 67/37/23 53/28/23
f 55/27/23 68/36/23 54/29/23
f 56/26/23 69/35/23 55/27/23
f 43/25/24 70/33/24 56/26/24
f 57/34/25 72/41/25 71/42/25
f 58/33/26 73/43/26 72/41/26
f 59/35/26 74/44/26 73/43/26
f 60/36/26 75/45/26 74/44/26
f 61/37/26 76/46/26 75/45/26
f 62/38/26 77/47/26 76/46/26
f 63/39/27 78/48/27 77/47/27
f 65/39/28 78/48/28 64/40/28
f 66/38/29 79/47/29 65/39/29
f 67/37/29 80/46/29 66/38/29
f 68/36/29 81/45/29 67/37/29
f 69/35/29 82/44/29 68/36/29
f 70/33/29 83/43/29 69/35/29
f 57/34/30 84/41/30 70/33/30
f 71/42/31 86/49/31 85/50/31
f 73/43/32 86/49/32 72/41/32
f 73/43/32 88/51/32 87/52/32
f 74/44/32 89/53/32 88/51/32
f 75/45/32 90/54/32 89/53/32
f 76/46/32 91/55/32 90/54/32
f 77/47/33 92/56/33 91/55/33
f 79/47/34 92/56/34 78/48/34
f 80/46/35 93/55/35 79/47/35
f 81/45/35 94/54/35 80/46/35
f 82/44/35 95/53/35 81/45/35
f 83/43/35 96/51/35 82/44/35
f 83/43/35 98/49/35 97/52/35
f 71/42/36 98/49/36 84/41/36
f 8/16/37 6/12/37 1/1/37
f 90/54/38 92/56/38 94/54/38
f 1/1/39 2/4/39 16/2/39
f 2/4/2 3/6/2 17/5/2
f 3/6/2 4/8/2 18/7/2
f 4/8/2 5/10/2 19/9/2
f 5/10/2 6/12/2 20/11/2
f 6/12/2 7/14/2 21/13/2
f 7/14/40 8/16/40 22/15/40
f 9/14/41 23/13/41 22/15/41
f 10/12/5 24/11/5 23/13/5
f 11/10/5 25/9/5 24/11/5
f 12/8/5 26/7/5 25/9/5
f 13/6/5 27/5/5 26/7/5
f 14/4/5 28/2/5 27/5/5
f 1/1/42 15/3/42 28/2/42
f 16/2/43 30/18/43 29/17/43
f 17/5/8 31/19/8 30/18/8
f 18/7/8 32/20/8 31/19/8
f 19/9/8 33/21/8 32/20/8
f 20/11/8 34/22/8 33/21/8
f 21/13/8 35/23/8 34/22/8
f 22/15/44 36/24/44 35/23/44
f 22/15/45 23/13/45 37/23/45
f 23/13/11 24/11/11 38/22/11
f 24/11/11 25/9/11 39/21/11
f 25/9/11 26/7/11 40/20/11
f 26/7/11 27/5/11 41/19/11
f 27/5/11 28/2/11 42/18/11
f 28/2/46 15/3/46 29/17/46
f 30/18/47 44/26/47 43/25/47
f 31/19/14 45/27/14 44/26/14
f 32/20/14 46/29/14 45/27/14
f 32/20/14 33/21/14 47/28/14
f 33/21/14 34/22/14 48/30/14
f 34/22/14 35/23/14 49/31/14
f 35/23/48 36/24/48 50/32/48
f 37/23/49 51/31/49 50/32/49
f 38/22/17 52/30/17 51/31/17
f 39/21/17 53/28/17 52/30/17
f 40/20/17 54/29/17 53/28/17
f 40/20/17 41/19/17 55/27/17
f 41/19/17 42/18/17 56/26/17
f 42/18/50 29/17/50 43/25/50
f 43/25/51 44/26/51 58/33/51
f 44/26/20 45/27/20 59/35/20
f 45/27/20 46/29/20 60/36/20
f 46/29/20 47/28/20 61/37/20
f 47/28/20 48/30/20 62/38/20
f 48/30/20 49/31/20 63/39/20
f 49/31/52 50/32/52 64/40/52
f 51/31/53 65/39/53 64/40/53
f 52/30/23 66/38/23 65/39/23
f 53/28/23 67/37/23 66/38/23
f 54/29/23 68/36/23 67/37/23
f 55/27/23 69/35/23 68/36/23
f 56/26/23 70/33/23 69/35/23
f 43/25/54 57/34/54 70/33/54
f 57/34/55 58/33/55 72/41/55
f 58/33/26 59/35/26 73/43/26
f 59/35/26 60/36/26 74/44/26
f 60/36/26 61/37/26 75/45/26
f 61/37/26 62/38/26 76/46/26
f 62/38/26 63/39/26 77/47/26
f 63/39/56 64/40/56 78/48/56
f 65/39/57 79/47/57 78/48/57
f 66/38/29 80/46/29 79/47/29
f 67/37/29 81/45/29 80/46/29
f 68/36/29 82/44/29 81/45/29
f 69/35/29 83/43/29 82/44/29
f 70/33/29 84/41/29 83/43/29
f 57/34/58 71/42/58 84/41/58
f 71/42/59 72/41/59 86/49/59
f 73/43/32 87/52/32 86/49/32
f 73/43/32 74/44/32 88/51/32
f 74/44/32 75/45/32 89/53/32
f 75/45/32 76/46/32 90/54/32
f 76/46/32 77/47/32 91/55/32
f 77/47/60 78/48/60 92/56/60
f 79/47/61 93/55/61 92/56/61
f 80/46/35 94/54/35 93/55/35
f 81/45/35 95/53/35 94/54/35
f 82/44/35 96/51/35 95/53/35
f 83/43/35 97/52/35 96/51/35
f 83/43/35 84/41/35 98/49/35
f 71/42/62 85/50/62 98/49/62
f 1/1/37 14/4/37 13/6/37
f 1/1/37 13/6/37 12/8/37
f 3/6/37 2/4/37 1/1/37
f 4/8/37 3/6/37 1/1/37
f 1/1/37 12/8/37 11/10/37
f 10/12/37 9/14/37 8/16/37
f 1/1/37 11/10/37 10/12/37
f 5/10/37 4/8/37 1/1/37
f 8/16/37 7/14/37 6/12/37
f 6/12/37 5/10/37 1/1/37
f 1/1/37 10/12/37 8/16/37
f 98/49/38 85/50/38 86/49/38
f 98/49/38 86/49/38 87/52/38
f 97/52/38 98/49/38 87/52/38
f 97/52/38 87/52/38 88/51/38
f 96/51/38 97/52/38 88/51/38
f 96/51/38 88/51/38 89/53/38
f 95/53/38 96/51/38 89/53/38
f 90/54/38 91/55/38 92/56/38
f 95/53/38 89/53/38 90/54/38
f 92/56/38 93/55/38 94/54/38
f 94/54/38 95/53/38 90/54/38
g B_Collar.001_B_Collar.001
v 0.000000 0.240000 0.000000
v 0.130000 0.240000 0.000000
v 0.091924 0.240000 -0.091924
v 0.000000 0.240000 -0.130000
v -0.091924 0.240000 -0.091924
v -0.130000 0.240000 -0.000000
v -0.091924 0.240000 0.091924
v -0.000000 0.240000 0.130000
v 0.091924 0.240000 0.091924
v 0.120000 0.420000 0.000000
v 0.084853 0.420000 -0.084853
v 0.000000 0.420000 -0.120000
v -0.084853 0.420000 -0.084853
v -0.120000 0.420000 -0.000000
v -0.084853 0.420000 0.084853
v -0.000000 0.420000 0.120000
v 0.084853 0.420000 0.084853
v 0.000000 0.420000 0.000000
vn -0.0000 -1.0000 -0.0000
vn 0.9227 0.0513 -0.3822
vn 0.3822 0.0513 -0.9227
vn -0.3822 0.0513 -0.9227
vn -0.9227 0.0513 -0.3822
vn -0.9227 0.0513 0.3822
vn -0.3822 0.0513 0.9227
vn 0.3822 0.0513 0.9227
vn 0.9227 0.0513 0.3822
vn -0.0000 1.0000 -0.0000
s 0
g B_Collar.001_venom_knife_fittings
usemtl venom_knife_fittings
f 99//63 101//63 100//63
f 99//63 102//63 101//63
f 99//63 103//63 102//63
f 99//63 104//63 103//63
f 99//63 105//63 104//63
f 99//63 106//63 105//63
f 99//63 107//63 106//63
f 99//63 100//63 107//63
f 101//64 108//64 100//64
f 102//65 109//65 101//65
f 103//66 110//66 102//66
f 104//67 111//67 103//67
f 105//68 112//68 104//68
f 106//69 113//69 105//69
f 107//70 114//70 106//70
f 100//71 115//71 107//71
f 108//72 109//72 116//72
f 109//72 110//72 116//72
f 110//72 111//72 116//72
f 111//72 112//72 116//72
f 112//72 113//72 116//72
f 113//72 114//72 116//72
f 114//72 115//72 116//72
f 115//72 108//72 116//72
f 101//64 109//64 108//64
f 102//65 110//65 109//65
f 103//66 111//66 110//66
f 104//67 112//67 111//67
f 105//68 113//68 112//68
f 106//69 114//69 113//69
f 107//70 115//70 114//70
f 100//71 108//71 115//71
g B_Guard.001_B_Guard.001
v -0.550000 0.440000 -0.075000
v 0.550000 0.440000 -0.075000
v 0.560000 0.260000 -0.075000
v -0.560000 0.260000 -0.075000
v -0.550000 0.440000 0.075000
v 0.550000 0.440000 0.075000
v 0.560000 0.260000 0.075000
v -0.560000 0.260000 0.075000
vn -0.0000 -0.0000 -1.0000
vn -0.0000 -0.0000 1.0000
vn -0.9985 0.0555 -0.0000
vn -0.0000 1.0000 -0.0000
vn 0.9985 0.0555 -0.0000
vn -0.0000 -1.0000 -0.0000
s 0
g B_Guard.001_venom_knife_fittings
usemtl venom_knife_fittings
f 118//73 120//73 117//73
f 121//74 123//74 122//74
f 120//75 121//75 117//75
f 117//76 122//76 118//76
f 118//77 123//77 119//77
f 119//78 124//78 120//78
f 118//73 119//73 120//73
f 121//74 124//74 123//74
f 120//75 124//75 121//75
f 117//76 121//76 122//76
f 118//77 122//77 123//77
f 119//78 123//78 124//78
g C_Grip.001_C_Grip.001
v 0.000000 -0.950000 0.000000
v 0.070000 -0.950000 0.000000
v 0.049497 -0.950000 -0.049497
v 0.000000 -0.950000 -0.070000
v -0.049497 -0.950000 -0.049497
v -0.070000 -0.950000 -0.000000
v -0.049497 -0.950000 0.049497
v -0.000000 -0.950000 0.070000
v 0.049497 -0.950000 0.049497
v 0.072000 -0.900000 0.000000
v 0.050912 -0.900000 -0.050912
v 0.000000 -0.900000 -0.072000
v -0.050912 -0.900000 -0.050912
v -0.072000 -0.900000 -0.000000
v -0.050912 -0.900000 0.050912
v -0.000000 -0.900000 0.072000
v 0.050912 -0.900000 0.050912
v 0.085000 -0.870000 0.000000
v 0.060104 -0.870000 -0.060104
v 0.000000 -0.870000 -0.085000
v -0.060104 -0.870000 -0.060104
v -0.085000 -0.870000 -0.000000
v -0.060104 -0.870000 0.060104
v -0.000000 -0.870000 0.085000
v 0.060104 -0.870000 0.060104
v 0.072000 -0.840000 0.000000
v 0.050912 -0.840000 -0.050912
v 0.000000 -0.840000 -0.072000
v -0.050912 -0.840000 -0.050912
v -0.072000 -0.840000 -0.000000
v -0.050912 -0.840000 0.050912
v -0.000000 -0.840000 0.072000
v 0.050912 -0.840000 0.050912
v 0.072000 -0.810000 0.000000
v 0.050912 -0.810000 -0.050912
v 0.000000 -0.810000 -0.072000
v -0.050912 -0.810000 -0.050912
v -0.072000 -0.810000 -0.000000
v -0.050912 -0.810000 0.050912
v -0.000000 -0.810000 0.072000
v 0.050912 -0.810000 0.050912
v 0.085000 -0.780000 0.000000
v 0.060104 -0.780000 -0.060104
v 0.000000 -0.780000 -0.085000
v -0.060104 -0.780000 -0.060104
v -0.085000 -0.780000 -0.000000
v -0.060104 -0.780000 0.060104
v -0.000000 -0.780000 0.085000
v 0.060104 -0.780000 0.060104
v 0.072000 -0.750000 0.000000
v 0.050912 -0.750000 -0.050912
v 0.000000 -0.750000 -0.072000
v -0.050912 -0.750000 -0.050912
v -0.072000 -0.750000 -0.000000
v -0.050912 -0.750000 0.050912
v -0.000000 -0.750000 0.072000
v 0.050912 -0.750000 0.050912
v 0.072000 -0.720000 0.000000
v 0.050912 -0.720000 -0.050912
v 0.000000 -0.720000 -0.072000
v -0.050912 -0.720000 -0.050912
v -0.072000 -0.720000 -0.000000
v -0.050912 -0.720000 0.050912
v -0.000000 -0.720000 0.072000
v 0.050912 -0.720000 0.050912
v 0.085000 -0.690000 0.000000
v 0.060104 -0.690000 -0.060104
v 0.000000 -0.690000 -0.085000
v -0.060104 -0.690000 -0.060104
v -0.085000 -0.690000 -0.000000
v -0.060104 -0.690000 0.060104
v -0.000000 -0.690000 0.085000
v 0.060104 -0.690000 0.060104
v 0.072000 -0.660000 0.000000
v 0.050912 -0.660000 -0.050912
v 0.000000 -0.660000 -0.072000
v -0.050912 -0.660000 -0.050912
v -0.072000 -0.660000 -0.000000
v -0.050912 -0.660000 0.050912
v -0.000000 -0.660000 0.072000
v 0.050912 -0.660000 0.050912
v 0.072000 -0.630000 0.000000
v 0.050912 -0.630000 -0.050912
v 0.000000 -0.630000 -0.072000
v -0.050912 -0.630000 -0.050912
v -0.072000 -0.630000 -0.000000
v -0.050912 -0.630000 0.050912
v -0.000000 -0.630000 0.072000
v 0.050912 -0.630000 0.050912
v 0.085000 -0.600000 0.000000
v 0.060104 -0.600000 -0.060104
v 0.000000 -0.600000 -0.085000
v -0.060104 -0.600000 -0.060104
v -0.085000 -0.600000 -0.000000
v -0.060104 -0.600000 0.060104
v -0.000000 -0.600000 0.085000
v 0.060104 -0.600000 0.060104
v 0.072000 -0.570000 0.000000
v 0.050912 -0.570000 -0.050912
v 0.000000 -0.570000 -0.072000
v -0.050912 -0.570000 -0.050912
v -0.072000 -0.570000 -0.000000
v -0.050912 -0.570000 0.050912
v -0.000000 -0.570000 0.072000
v 0.050912 -0.570000 0.050912
v 0.072000 -0.540000 0.000000
v 0.050912 -0.540000 -0.050912
v 0.000000 -0.540000 -0.072000
v -0.050912 -0.540000 -0.050912
v -0.072000 -0.540000 -0.000000
v -0.050912 -0.540000 0.050912
v -0.000000 -0.540000 0.072000
v 0.050912 -0.540000 0.050912
v 0.085000 -0.510000 0.000000
v 0.060104 -0.510000 -0.060104
v 0.000000 -0.510000 -0.085000
v -0.060104 -0.510000 -0.060104
v -0.085000 -0.510000 -0.000000
v -0.060104 -0.510000 0.060104
v -0.000000 -0.510000 0.085000
v 0.060104 -0.510000 0.060104
v 0.072000 -0.480000 0.000000
v 0.050912 -0.480000 -0.050912
v 0.000000 -0.480000 -0.072000
v -0.050912 -0.480000 -0.050912
v -0.072000 -0.480000 -0.000000
v -0.050912 -0.480000 0.050912
v -0.000000 -0.480000 0.072000
v 0.050912 -0.480000 0.050912
v 0.072000 -0.450000 0.000000
v 0.050912 -0.450000 -0.050912
v 0.000000 -0.450000 -0.072000
v -0.050912 -0.450000 -0.050912
v -0.072000 -0.450000 -0.000000
v -0.050912 -0.450000 0.050912
v -0.000000 -0.450000 0.072000
v 0.050912 -0.450000 0.050912
v 0.085000 -0.420000 0.000000
v 0.060104 -0.420000 -0.060104
v 0.000000 -0.420000 -0.085000
v -0.060104 -0.420000 -0.060104
v -0.085000 -0.420000 -0.000000
v -0.060104 -0.420000 0.060104
v -0.000000 -0.420000 0.085000
v 0.060104 -0.420000 0.060104
v 0.072000 -0.390000 0.000000
v 0.050912 -0.390000 -0.050912
v 0.000000 -0.390000 -0.072000
v -0.050912 -0.390000 -0.050912
v -0.072000 -0.390000 -0.000000
v -0.050912 -0.390000 0.050912
v -0.000000 -0.390000 0.072000
v 0.050912 -0.390000 0.050912
v 0.072000 -0.360000 0.000000
v 0.050912 -0.360000 -0.050912
v 0.000000 -0.360000 -0.072000
v -0.050912 -0.360000 -0.050912
v -0.072000 -0.360000 -0.000000
v -0.050912 -0.360000 0.050912
v -0.000000 -0.360000 0.072000
v 0.050912 -0.360000 0.050912
v 0.085000 -0.330000 0.000000
v 0.060104 -0.330000 -0.060104
v 0.000000 -0.330000 -0.085000
v -0.060104 -0.330000 -0.060104
v -0.085000 -0.330000 -0.000000
v -0.060104 -0.330000 0.060104
v -0.000000 -0.330000 0.085000
v 0.060104 -0.330000 0.060104
v 0.072000 -0.300000 0.000000
v 0.050912 -0.300000 -0.050912
v 0.000000 -0.300000 -0.072000
v -0.050912 -0.300000 -0.050912
v -0.072000 -0.300000 -0.000000
v -0.050912 -0.300000 0.050912
v -0.000000 -0.300000 0.072000
v 0.050912 -0.300000 0.050912
v 0.072000 -0.270000 0.000000
v 0.050912 -0.270000 -0.050912
v 0.000000 -0.270000 -0.072000
v -0.050912 -0.270000 -0.050912
v -0.072000 -0.270000 -0.000000
v -0.050912 -0.270000 0.050912
v -0.000000 -0.270000 0.072000
v 0.050912 -0.270000 0.050912
v 0.085000 -0.240000 0.000000
v 0.060104 -0.240000 -0.060104
v 0.000000 -0.240000 -0.085000
v -0.060104 -0.240000 -0.060104
v -0.085000 -0.240000 -0.000000
v -0.060104 -0.240000 0.060104
v -0.000000 -0.240000 0.085000
v 0.060104 -0.240000 0.060104
v 0.072000 -0.210000 0.000000
v 0.050912 -0.210000 -0.050912
v 0.000000 -0.210000 -0.072000
v -0.050912 -0.210000 -0.050912
v -0.072000 -0.210000 -0.000000
v -0.050912 -0.210000 0.050912
v -0.000000 -0.210000 0.072000
v 0.050912 -0.210000 0.050912
v 0.072000 -0.180000 0.000000
v 0.050912 -0.180000 -0.050912
v 0.000000 -0.180000 -0.072000
v -0.050912 -0.180000 -0.050912
v -0.072000 -0.180000 -0.000000
v -0.050912 -0.180000 0.050912
v -0.000000 -0.180000 0.072000
v 0.050912 -0.180000 0.050912
v 0.085000 -0.150000 0.000000
v 0.060104 -0.150000 -0.060104
v 0.000000 -0.150000 -0.085000
v -0.060104 -0.150000 -0.060104
v -0.085000 -0.150000 -0.000000
v -0.060104 -0.150000 0.060104
v -0.000000 -0.150000 0.085000
v 0.060104 -0.150000 0.060104
v 0.072000 -0.120000 0.000000
v 0.050912 -0.120000 -0.050912
v 0.000000 -0.120000 -0.072000
v -0.050912 -0.120000 -0.050912
v -0.072000 -0.120000 -0.000000
v -0.050912 -0.120000 0.050912
v -0.000000 -0.120000 0.072000
v 0.050912 -0.120000 0.050912
v 0.072000 -0.090000 0.000000
v 0.050912 -0.090000 -0.050912
v 0.000000 -0.090000 -0.072000
v -0.050912 -0.090000 -0.050912
v -0.072000 -0.090000 -0.000000
v -0.050912 -0.090000 0.050912
v -0.000000 -0.090000 0.072000
v 0.050912 -0.090000 0.050912
v 0.085000 -0.060000 0.000000
v 0.060104 -0.060000 -0.060104
v 0.000000 -0.060000 -0.085000
v -0.060104 -0.060000 -0.060104
v -0.085000 -0.060000 -0.000000
v -0.060104 -0.060000 0.060104
v -0.000000 -0.060000 0.085000
v 0.060104 -0.060000 0.060104
v 0.072000 -0.030000 0.000000
v 0.050912 -0.030000 -0.050912
v 0.000000 -0.030000 -0.072000
v -0.050912 -0.030000 -0.050912
v -0.072000 -0.030000 -0.000000
v -0.050912 -0.030000 0.050912
v -0.000000 -0.030000 0.072000
v 0.050912 -0.030000 0.050912
v 0.072000 -0.000000 0.000000
v 0.050912 -0.000000 -0.050912
v 0.000000 -0.000000 -0.072000
v -0.050912 -0.000000 -0.050912
v -0.072000 -0.000000 -0.000000
v -0.050912 -0.000000 0.050912
v -0.000000 -0.000000 0.072000
v 0.050912 -0.000000 0.050912
v 0.085000 0.030000 0.000000
v 0.060104 0.030000 -0.060104
v 0.000000 0.030000 -0.085000
v -0.060104 0.030000 -0.060104
v -0.085000 0.030000 -0.000000
v -0.060104 0.030000 0.060104
v -0.000000 0.030000 0.085000
v 0.060104 0.030000 0.060104
v 0.072000 0.060000 0.000000
v 0.050912 0.060000 -0.050912
v 0.000000 0.060000 -0.072000
v -0.050912 0.060000 -0.050912
v -0.072000 0.060000 -0.000000
v -0.050912 0.060000 0.050912
v -0.000000 0.060000 0.072000
v 0.050912 0.060000 0.050912
v 0.072000 0.090000 0.000000
v 0.050912 0.090000 -0.050912
v 0.000000 0.090000 -0.072000
v -0.050912 0.090000 -0.050912
v -0.072000 0.090000 -0.000000
v -0.050912 0.090000 0.050912
v -0.000000 0.090000 0.072000
v 0.050912 0.090000 0.050912
v 0.085000 0.120000 0.000000
v 0.060104 0.120000 -0.060104
v 0.000000 0.120000 -0.085000
v -0.060104 0.120000 -0.060104
v -0.085000 0.120000 -0.000000
v -0.060104 0.120000 0.060104
v -0.000000 0.120000 0.085000
v 0.060104 0.120000 0.060104
v 0.072000 0.150000 0.000000
v 0.050912 0.150000 -0.050912
v 0.000000 0.150000 -0.072000
v -0.050912 0.150000 -0.050912
v -0.072000 0.150000 -0.000000
v -0.050912 0.150000 0.050912
v -0.000000 0.150000 0.072000
v 0.050912 0.150000 0.050912
v 0.072000 0.180000 0.000000
v 0.050912 0.180000 -0.050912
v 0.000000 0.180000 -0.072000
v -0.050912 0.180000 -0.050912
v -0.072000 0.180000 -0.000000
v -0.050912 0.180000 0.050912
v -0.000000 0.180000 0.072000
v 0.050912 0.180000 0.050912
v 0.085000 0.210000 0.000000
v 0.060104 0.210000 -0.060104
v 0.000000 0.210000 -0.085000
v -0.060104 0.210000 -0.060104
v -0.085000 0.210000 -0.000000
v -0.060104 0.210000 0.060104
v -0.000000 0.210000 0.085000
v 0.060104 0.210000 0.060104
v 0.072000 0.240000 0.000000
v 0.050912 0.240000 -0.050912
v 0.000000 0.240000 -0.072000
v -0.050912 0.240000 -0.050912
v -0.072000 0.240000 -0.000000
v -0.050912 0.240000 0.050912
v -0.000000 0.240000 0.072000
v 0.050912 0.240000 0.050912
v 0.080000 0.260000 0.000000
v 0.056569 0.260000 -0.056569
v 0.000000 0.260000 -0.080000
v -0.056569 0.260000 -0.056569
v -0.080000 0.260000 -0.000000
v -0.056569 0.260000 0.056569
v -0.000000 0.260000 0.080000
v 0.056569 0.260000 0.056569
v 0.000000 0.260000 0.000000
vn -0.0000 -1.0000 -0.0000
vn 0.9232 -0.0369 -0.3824
vn 0.3824 -0.0369 -0.9232
vn -0.3824 -0.0369 -0.9232
vn -0.9232 -0.0369 -0.3824
vn -0.9232 -0.0369 0.3824
vn -0.3824 -0.0369 0.9232
vn 0.3824 -0.0369 0.9232
vn 0.9232 -0.0369 0.3824
vn 0.8577 -0.3717 -0.3553
vn 0.3553 -0.3717 -0.8577
vn -0.3553 -0.3717 -0.8577
vn -0.8577 -0.3717 -0.3553
vn -0.8577 -0.3717 0.3553
vn -0.3553 -0.3717 0.8577
vn 0.3553 -0.3717 0.8577
vn 0.8577 -0.3717 0.3553
vn 0.8577 0.3717 -0.3553
vn 0.3553 0.3717 -0.8577
vn -0.3553 0.3717 -0.8577
vn -0.8577 0.3717 -0.3553
vn -0.8577 0.3717 0.3553
vn -0.3553 0.3717 0.8577
vn 0.3553 0.3717 0.8577
vn 0.8577 0.3717 0.3553
vn 0.9239 -0.0000 -0.3827
vn 0.3827 -0.0000 -0.9239
vn -0.3827 -0.0000 -0.9239
vn -0.9239 -0.0000 -0.3827
vn -0.9239 -0.0000 0.3827
vn -0.3827 -0.0000 0.9239
vn 0.3827 -0.0000 0.9239
vn 0.9239 -0.0000 0.3827
vn 0.8666 -0.3466 -0.3590
vn 0.3590 -0.3466 -0.8666
vn -0.3590 -0.3466 -0.8666
vn -0.8666 -0.3466 -0.3590
vn -0.8666 -0.3466 0.3590
vn -0.3590 -0.3466 0.8666
vn 0.3590 -0.3466 0.8666
vn 0.8666 -0.3466 0.3590
vn -0.0000 1.0000 -0.0000
s 0
g C_Grip.001_venom_knife_grip
usemtl venom_knife_grip
f 125//79 127//79 126//79
f 125//79 128//79 127//79
f 125//79 129//79 128//79
f 125//79 130//79 129//79
f 125//79 131//79 130//79
f 125//79 132//79 131//79
f 125//79 133//79 132//79
f 125//79 126//79 133//79
f 126//80 135//80 134//80
f 127//81 136//81 135//81
f 128//82 137//82 136//82
f 129//83 138//83 137//83
f 130//84 139//84 138//84
f 131//85 140//85 139//85
f 132//86 141//86 140//86
f 133//87 134//87 141//87
f 135//88 142//88 134//88
f 136//89 143//89 135//89
f 137//90 144//90 136//90
f 138//91 145//91 137//91
f 139//92 146//92 138//92
f 140//93 147//93 139//93
f 141//94 148//94 140//94
f 134//95 149//95 141//95
f 142//96 151//96 150//96
f 143//97 152//97 151//97
f 144//98 153//98 152//98
f 145//99 154//99 153//99
f 146//100 155//100 154//100
f 147//101 156//101 155//101
f 148//102 157//102 156//102
f 149//103 150//103 157//103
f 151//104 158//104 150//104
f 152//105 159//105 151//105
f 153//106 160//106 152//106
f 154//107 161//107 153//107
f 155//108 162//108 154//108
f 156//109 163//109 155//109
f 157//110 164//110 156//110
f 150//111 165//111 157//111
f 158//88 167//88 166//88
f 160//89 167//89 159//89
f 160//90 169//90 168//90
f 162//91 169//91 161//91
f 162//92 171//92 170//92
f 164//93 171//93 163//93
f 164//94 173//94 172//94
f 158//95 173//95 165//95
f 167//96 174//96 166//96
f 168//97 175//97 167//97
f 169//98 176//98 168//98
f 170//99 177//99 169//99
f 171//100 178//100 170//100
f 172//101 179//101 171//101
f 173//102 180//102 172//102
f 166//103 181//103 173//103
f 175//104 182//104 174//104
f 176//105 183//105 175//105
f 177//106 184//106 176//106
f 178//107 185//107 177//107
f 179//108 186//108 178//108
f 180//109 187//109 179//109
f 181//110 188//110 180//110
f 174//111 189//111 181//111
f 183//88 190//88 182//88
f 184//89 191//89 183//89
f 185//90 192//90 184//90
f 186//91 193//91 185//91
f 187//92 194//92 186//92
f 188//93 195//93 187//93
f 189//94 196//94 188//94
f 182//95 197//95 189//95
f 191//96 198//96 190//96
f 192//97 199//97 191//97
f 193//98 200//98 192//98
f 194//99 201//99 193//99
f 195//100 202//100 194//100
f 196//101 203//101 195//101
f 197//102 204//102 196//102
f 190//103 205//103 197//103
f 199//104 206//104 198//104
f 200//105 207//105 199//105
f 201//106 208//106 200//106
f 202//107 209//107 201//107
f 203//108 210//108 202//108
f 204//109 211//109 203//109
f 205//110 212//110 204//110
f 198//111 213//111 205//111
f 207//88 214//88 206//88
f 208//89 215//89 207//89
f 209//90 216//90 208//90
f 210//91 217//91 209//91
f 211//92 218//92 210//92
f 212//93 219//93 211//93
f 213//94 220//94 212//94
f 206//95 221//95 213//95
f 215//96 222//96 214//96
f 215//97 224//97 223//97
f 217//98 224//98 216//98
f 217//99 226//99 225//99
f 219//100 226//100 218//100
f 219//101 228//101 227//101
f 221//102 228//102 220//102
f 221//103 222//103 229//103
f 223//104 230//104 222//104
f 224//105 231//105 223//105
f 225//106 232//106 224//106
f 226//107 233//107 225//107
f 227//108 234//108 226//108
f 228//109 235//109 227//109
f 229//110 236//110 228//110
f 222//111 237//111 229//111
f 231//88 238//88 230//88
f 231//89 240//89 239//89
f 233//90 240//90 232//90
f 233//91 242//91 241//91
f 235//92 242//92 234//92
f 235//93 244//93 243//93
f 237//94 244//94 236//94
f 237//95 238//95 245//95
f 239//96 246//96 238//96
f 240//97 247//97 239//97
f 241//98 248//98 240//98
f 242//99 249//99 241//99
f 243//100 250//100 242//100
f 244//101 251//101 243//101
f 245//102 252//102 244//102
f 238//103 253//103 245//103
f 247//104 254//104 246//104
f 248//105 255//105 247//105
f 249//106 256//106 248//106
f 250//107 257//107 249//107
f 251//108 258//108 250//108
f 252//109 259//109 251//109
f 253//110 260//110 252//110
f 246//111 261//111 253//111
f 255//88 262//88 254//88
f 256//89 263//89 255//89
f 257//90 264//90 256//90
f 258//91 265//91 257//91
f 259//92 266//92 258//92
f 260//93 267//93 259//93
f 261//94 268//94 260//94
f 254//95 269//95 261//95
f 263//96 270//96 262//96
f 264//97 271//97 263//97
f 265//98 272//98 264//98
f 266//99 273//99 265//99
f 267//100 274//100 266//100
f 268//101 275//101 267//101
f 269//102 276//102 268//102
f 262//103 277//103 269//103
f 271//104 278//104 270//104
f 272//105 279//105 271//105
f 273//106 280//106 272//106
f 274//107 281//107 273//107
f 275//108 282//108 274//108
f 276//109 283//109 275//109
f 277//110 284//110 276//110
f 270//111 285//111 277//111
f 279//88 286//88 278//88
f 280//89 287//89 279//89
f 281//90 288//90 280//90
f 282//91 289//91 281//91
f 283//92 290//92 282//92
f 284//93 291//93 283//93
f 285//94 292//94 284//94
f 278//95 293//95 285//95
f 287//96 294//96 286//96
f 288//97 295//97 287//97
f 289//98 296//98 288//98
f 290//99 297//99 289//99
f 291//100 298//100 290//100
f 292//101 299//101 291//101
f 293//102 300//102 292//102
f 286//103 301//103 293//103
f 295//104 302//104 294//104
f 296//105 303//105 295//105
f 297//106 304//106 296//106
f 298//107 305//107 297//107
f 299//108 306//108 298//108
f 300//109 307//109 299//109
f 301//110 308//110 300//110
f 294//111 309//111 301//111
f 303//88 310//88 302//88
f 304//89 311//89 303//89
f 305//90 312//90 304//90
f 306//91 313//91 305//91
f 307//92 314//92 306//92
f 308//93 315//93 307//93
f 309//94 316//94 308//94
f 302//95 317//95 309//95
f 311//96 318//96 310//96
f 312//97 319//97 311//97
f 313//98 320//98 312//98
f 314//99 321//99 313//99
f 315//100 322//100 314//100
f 316//101 323//101 315//101
f 317//102 324//102 316//102
f 310//103 325//103 317//103
f 319//104 326//104 318//104
f 320//105 327//105 319//105
f 321//106 328//106 320//106
f 322//107 329//107 321//107
f 323//108 330//108 322//108
f 324//109 331//109 323//109
f 325//110 332//110 324//110
f 318//111 333//111 325//111
f 327//88 334//88 326//88
f 328//89 335//89 327//89
f 329//90 336//90 328//90
f 330//91 337//91 329//91
f 331//92 338//92 330//92
f 332//93 339//93 331//93
f 333//94 340//94 332//94
f 326//95 341//95 333//95
f 335//96 342//96 334//96
f 336//97 343//97 335//97
f 337//98 344//98 336//98
f 338//99 345//99 337//99
f 339//100 346//100 338//100
f 340//101 347//101 339//101
f 341//102 348//102 340//102
f 334//103 349//103 341//103
f 343//104 350//104 342//104
f 344//105 351//105 343//105
f 345//106 352//106 344//106
f 346//107 353//107 345//107
f 347//108 354//108 346//108
f 348//109 355//109 347//109
f 349//110 356//110 348//110
f 342//111 357//111 349//111
f 351//88 358//88 350//88
f 352//89 359//89 351//89
f 353//90 360//90 352//90
f 354//91 361//91 353//91
f 355//92 362//92 354//92
f 356//93 363//93 355//93
f 357//94 364//94 356//94
f 350//95 365//95 357//95
f 359//96 366//96 358//96
f 360//97 367//97 359//97
f 361//98 368//98 360//98
f 362//99 369//99 361//99
f 363//100 370//100 362//100
f 364//101 371//101 363//101
f 365//102 372//102 364//102
f 358//103 373//103 365//103
f 367//104 374//104 366//104
f 368//105 375//105 367//105
f 369//106 376//106 368//106
f 370//107 377//107 369//107
f 371//108 378//108 370//108
f 372//109 379//109 371//109
f 373//110 380//110 372//110
f 366//111 381//111 373//111
f 375//88 382//88 374//88
f 376//89 383//89 375//89
f 377//90 384//90 376//90
f 378//91 385//91 377//91
f 379//92 386//92 378//92
f 380//93 387//93 379//93
f 381//94 388//94 380//94
f 374//95 389//95 381//95
f 383//96 390//96 382//96
f 384//97 391//97 383//97
f 385//98 392//98 384//98
f 386//99 393//99 385//99
f 387//100 394//100 386//100
f 388//101 395//101 387//101
f 389//102 396//102 388//102
f 382//103 397//103 389//103
f 391//104 398//104 390//104
f 392//105 399//105 391//105
f 393//106 400//106 392//106
f 394//107 401//107 393//107
f 395//108 402//108 394//108
f 396//109 403//109 395//109
f 397//110 404//110 396//110
f 390//111 405//111 397//111
f 399//88 406//88 398//88
f 400//89 407//89 399//89
f 401//90 408//90 400//90
f 402//91 409//91 401//91
f 403//92 410//92 402//92
f 404//93 411//93 403//93
f 405//94 412//94 404//94
f 398//95 413//95 405//95
f 407//96 414//96 406//96
f 408//97 415//97 407//97
f 409//98 416//98 408//98
f 410//99 417//99 409//99
f 411//100 418//100 410//100
f 412//101 419//101 411//101
f 413//102 420//102 412//102
f 406//103 421//103 413//103
f 415//104 422//104 414//104
f 416//105 423//105 415//105
f 417//106 424//106 416//106
f 418//107 425//107 417//107
f 419//108 426//108 418//108
f 420//109 427//109 419//109
f 421//110 428//110 420//110
f 414//111 429//111 421//111
f 422//88 431//88 430//88
f 423//89 432//89 431//89
f 424//90 433//90 432//90
f 425//91 434//91 433//91
f 426//92 435//92 434//92
f 427//93 436//93 435//93
f 428//94 437//94 436//94
f 429//95 430//95 437//95
f 431//96 438//96 430//96
f 432//97 439//97 431//97
f 433//98 440//98 432//98
f 434//99 441//99 433//99
f 435//100 442//100 434//100
f 436//101 443//101 435//101
f 437//102 444//102 436//102
f 430//103 445//103 437//103
f 439//112 446//112 438//112
f 440//113 447//113 439//113
f 441//114 448//114 440//114
f 442//115 449//115 441//115
f 443//116 450//116 442//116
f 444//117 451//117 443//117
f 445//118 452//118 444//118
f 438//119 453//119 445//119
f 446//120 447//120 454//120
f 447//120 448//120 454//120
f 448//120 449//120 454//120
f 449//120 450//120 454//120
f 450//120 451//120 454//120
f 451//120 452//120 454//120
f 452//120 453//120 454//120
f 453//120 446//120 454//120
f 126//80 127//80 135//80
f 127//81 128//81 136//81
f 128//82 129//82 137//82
f 129//83 130//83 138//83
f 130//84 131//84 139//84
f 131//85 132//85 140//85
f 132//86 133//86 141//86
f 133//87 126//87 134//87
f 135//88 143//88 142//88
f 136//89 144//89 143//89
f 137//90 145//90 144//90
f 138//91 146//91 145//91
f 139//92 147//92 146//92
f 140//93 148//93 147//93
f 141//94 149//94 148//94
f 134//95 142//95 149//95
f 142//96 143//96 151//96
f 143//97 144//97 152//97
f 144//98 145//98 153//98
f 145//99 146//99 154//99
f 146//100 147//100 155//100
f 147//101 148//101 156//101
f 148//102 149//102 157//102
f 149//103 142//103 150//103
f 151//104 159//104 158//104
f 152//105 160//105 159//105
f 153//106 161//106 160//106
f 154//107 162//107 161//107
f 155//108 163//108 162//108
f 156//109 164//109 163//109
f 157//110 165//110 164//110
f 150//111 158//111 165//111
f 158//88 159//88 167//88
f 160//89 168//89 167//89
f 160//90 161//90 169//90
f 162//91 170//91 169//91
f 162//92 163//92 171//92
f 164//93 172//93 171//93
f 164//94 165//94 173//94
f 158//95 166//95 173//95
f 167//96 175//96 174//96
f 168//97 176//97 175//97
f 169//98 177//98 176//98
f 170//99 178//99 177//99
f 171//100 179//100 178//100
f 172//101 180//101 179//101
f 173//102 181//102 180//102
f 166//103 174//103 181//103
f 175//104 183//104 182//104
f 176//105 184//105 183//105
f 177//106 185//106 184//106
f 178//107 186//107 185//107
f 179//108 187//108 186//108
f 180//109 188//109 187//109
f 181//110 189//110 188//110
f 174//111 182//111 189//111
f 183//88 191//88 190//88
f 184//89 192//89 191//89
f 185//90 193//90 192//90
f 186//91 194//91 193//91
f 187//92 195//92 194//92
f 188//93 196//93 195//93
f 189//94 197//94 196//94
f 182//95 190//95 197//95
f 191//96 199//96 198//96
f 192//97 200//97 199//97
f 193//98 201//98 200//98
f 194//99 202//99 201//99
f 195//100 203//100 202//100
f 196//101 204//101 203//101
f 197//102 205//102 204//102
f 190//103 198//103 205//103
f 199//104 207//104 206//104
f 200//105 208//105 207//105
f 201//106 209//106 208//106
f 202//107 210//107 209//107
f 203//108 211//108 210//108
f 204//109 212//109 211//109
f 205//110 213//110 212//110
f 198//111 206//111 213//111
f 207//88 215//88 214//88
f 208//89 216//89 215//89
f 209//90 217//90 216//90
f 210//91 218//91 217//91
f 211//92 219//92 218//92
f 212//93 220//93 219//93
f 213//94 221//94 220//94
f 206//95 214//95 221//95
f 215//96 223//96 222//96
f 215//97 216//97 224//97
f 217//98 225//98 224//98
f 217//99 218//99 226//99
f 219//100 227//100 226//100
f 219//101 220//101 228//101
f 221//102 229//102 228//102
f 221//103 214//103 222//103
f 223//104 231//104 230//104
f 224//105 232//105 231//105
f 225//106 233//106 232//106
f 226//107 234//107 233//107
f 227//108 235//108 234//108
f 228//109 236//109 235//109
f 229//110 237//110 236//110
f 222//111 230//111 237//111
f 231//88 239//88 238//88
f 231//89 232//89 240//89
f 233//90 241//90 240//90
f 233//91 234//91 242//91
f 235//92 243//92 242//92
f 235//93 236//93 244//93
f 237//94 245//94 244//94
f 237//95 230//95 238//95
f 239//96 247//96 246//96
f 240//97 248//97 247//97
f 241//98 249//98 248//98
f 242//99 250//99 249//99
f 243//100 251//100 250//100
f 244//101 252//101 251//101
f 245//102 253//102 252//102
f 238//103 246//103 253//103
f 247//104 255//104 254//104
f 248//105 256//105 255//105
f 249//106 257//106 256//106
f 250//107 258//107 257//107
f 251//108 259//108 258//108
f 252//109 260//109 259//109
f 253//110 261//110 260//110
f 246//111 254//111 261//111
f 255//88 263//88 262//88
f 256//89 264//89 263//89
f 257//90 265//90 264//90
f 258//91 266//91 265//91
f 259//92 267//92 266//92
f 260//93 268//93 267//93
f 261//94 269//94 268//94
f 254//95 262//95 269//95
f 263//96 271//96 270//96
f 264//97 272//97 271//97
f 265//98 273//98 272//98
f 266//99 274//99 273//99
f 267//100 275//100 274//100
f 268//101 276//101 275//101
f 269//102 277//102 276//102
f 262//103 270//103 277//103
f 271//104 279//104 278//104
f 272//105 280//105 279//105
f 273//106 281//106 280//106
f 274//107 282//107 281//107
f 275//108 283//108 282//108
f 276//109 284//109 283//109
f 277//110 285//110 284//110
f 270//111 278//111 285//111
f 279//88 287//88 286//88
f 280//89 288//89 287//89
f 281//90 289//90 288//90
f 282//91 290//91 289//91
f 283//92 291//92 290//92
f 284//93 292//93 291//93
f 285//94 293//94 292//94
f 278//95 286//95 293//95
f 287//96 295//96 294//96
f 288//97 296//97 295//97
f 289//98 297//98 296//98
f 290//99 298//99 297//99
f 291//100 299//100 298//100
f 292//101 300//101 299//101
f 293//102 301//102 300//102
f 286//103 294//103 301//103
f 295//104 303//104 302//104
f 296//105 304//105 303//105
f 297//106 305//106 304//106
f 298//107 306//107 305//107
f 299//108 307//108 306//108
f 300//109 308//109 307//109
f 301//110 309//110 308//110
f 294//111 302//111 309//111
f 303//88 311//88 310//88
f 304//89 312//89 311//89
f 305//90 313//90 312//90
f 306//91 314//91 313//91
f 307//92 315//92 314//92
f 308//93 316//93 315//93
f 309//94 317//94 316//94
f 302//95 310//95 317//95
f 311//96 319//96 318//96
f 312//97 320//97 319//97
f 313//98 321//98 320//98
f 314//99 322//99 321//99
f 315//100 323//100 322//100
f 316//101 324//101 323//101
f 317//102 325//102 324//102
f 310//103 318//103 325//103
f 319//104 327//104 326//104
f 320//105 328//105 327//105
f 321//106 329//106 328//106
f 322//107 330//107 329//107
f 323//108 331//108 330//108
f 324//109 332//109 331//109
f 325//110 333//110 332//110
f 318//111 326//111 333//111
f 327//88 335//88 334//88
f 328//89 336//89 335//89
f 329//90 337//90 336//90
f 330//91 338//91 337//91
f 331//92 339//92 338//92
f 332//93 340//93 339//93
f 333//94 341//94 340//94
f 326//95 334//95 341//95
f 335//96 343//96 342//96
f 336//97 344//97 343//97
f 337//98 345//98 344//98
f 338//99 346//99 345//99
f 339//100 347//100 346//100
f 340//101 348//101 347//101
f 341//102 349//102 348//102
f 334//103 342//103 349//103
f 343//104 351//104 350//104
f 344//105 352//105 351//105
f 345//106 353//106 352//106
f 346//107 354//107 353//107
f 347//108 355//108 354//108
f 348//109 356//109 355//109
f 349//110 357//110 356//110
f 342//111 350//111 357//111
f 351//88 359//88 358//88
f 352//89 360//89 359//89
f 353//90 361//90 360//90
f 354//91 362//91 361//91
f 355//92 363//92 362//92
f 356//93 364//93 363//93
f 357//94 365//94 364//94
f 350//95 358//95 365//95
f 359//96 367//96 366//96
f 360//97 368//97 367//97
f 361//98 369//98 368//98
f 362//99 370//99 369//99
f 363//100 371//100 370//100
f 364//101 372//101 371//101
f 365//102 373//102 372//102
f 358//103 366//103 373//103
f 367//104 375//104 374//104
f 368//105 376//105 375//105
f 369//106 377//106 376//106
f 370//107 378//107 377//107
f 371//108 379//108 378//108
f 372//109 380//109 379//109
f 373//110 381//110 380//110
f 366//111 374//111 381//111
f 375//88 383//88 382//88
f 376//89 384//89 383//89
f 377//90 385//90 384//90
f 378//91 386//91 385//91
f 379//92 387//92 386//92
f 380//93 388//93 387//93
f 381//94 389//94 388//94
f 374//95 382//95 389//95
f 383//96 391//96 390//96
f 384//97 392//97 391//97
f 385//98 393//98 392//98
f 386//99 394//99 393//99
f 387//100 395//100 394//100
f 388//101 396//101 395//101
f 389//102 397//102 396//102
f 382//103 390//103 397//103
f 391//104 399//104 398//104
f 392//105 400//105 399//105
f 393//106 401//106 400//106
f 394//107 402//107 401//107
f 395//108 403//108 402//108
f 396//109 404//109 403//109
f 397//110 405//110 404//110
f 390//111 398//111 405//111
f 399//88 407//88 406//88
f 400//89 408//89 407//89
f 401//90 409//90 408//90
f 402//91 410//91 409//91
f 403//92 411//92 410//92
f 404//93 412//93 411//93
f 405//94 413//94 412//94
f 398//95 406//95 413//95
f 407//96 415//96 414//96
f 408//97 416//97 415//97
f 409//98 417//98 416//98
f 410//99 418//99 417//99
f 411//100 419//100 418//100
f 412//101 420//101 419//101
f 413//102 421//102 420//102
f 406//103 414//103 421//103
f 415//104 423//104 422//104
f 416//105 424//105 423//105
f 417//106 425//106 424//106
f 418//107 426//107 425//107
f 419//108 427//108 426//108
f 420//109 428//109 427//109
f 421//110 429//110 428//110
f 414//111 422//111 429//111
f 422//88 423//88 431//88
f 423//89 424//89 432//89
f 424//90 425//90 433//90
f 425//91 426//91 434//91
f 426//92 427//92 435//92
f 427//93 428//93 436//93
f 428//94 429//94 437//94
f 429//95 422//95 430//95
f 431//96 439//96 438//96
f 432//97 440//97 439//97
f 433//98 441//98 440//98
f 434//99 442//99 441//99
f 435//100 443//100 442//100
f 436//101 444//101 443//101
f 437//102 445//102 444//102
f 430//103 438//103 445//103
f 439//112 447//112 446//112
f 440//113 448//113 447//113
f 441//114 449//114 448//114
f 442//115 450//115 449//115
f 443//116 451//116 450//116
f 444//117 452//117 451//117
f 445//118 453//118 452//118
f 438//119 446//119 453//119
g C_Pommel.001_C_Pommel.001
v 0.000000 -1.200000 0.000000
v 0.051303 -1.190954 0.000000
v 0.036277 -1.190954 -0.036277
v 0.000000 -1.190954 -0.051303
v -0.036277 -1.190954 -0.036277
v -0.051303 -1.190954 -0.000000
v -0.036277 -1.190954 0.036277
v -0.000000 -1.190954 0.051303
v 0.036277 -1.190954 0.036277
v 0.122873 -1.136037 0.000000
v 0.086884 -1.136037 -0.086884
v 0.000000 -1.136037 -0.122873
v -0.086884 -1.136037 -0.086884
v -0.122873 -1.136037 -0.000000
v -0.086884 -1.136037 0.086884
v -0.000000 -1.136037 0.122873
v 0.086884 -1.136037 0.086884
v 0.150000 -1.050000 0.000000
v 0.106066 -1.050000 -0.106066
v 0.000000 -1.050000 -0.150000
v -0.106066 -1.050000 -0.106066
v -0.150000 -1.050000 -0.000000
v -0.106066 -1.050000 0.106066
v -0.000000 -1.050000 0.150000
v 0.106066 -1.050000 0.106066
v 0.122873 -0.963964 0.000000
v 0.086884 -0.963964 -0.086884
v 0.000000 -0.963964 -0.122873
v -0.086884 -0.963964 -0.086884
v -0.122873 -0.963964 -0.000000
v -0.086884 -0.963964 0.086884
v -0.000000 -0.963964 0.122873
v 0.086884 -0.963964 0.086884
v 0.051303 -0.909046 0.000000
v 0.036277 -0.909046 -0.036277
v 0.000000 -0.909046 -0.051303
v -0.036277 -0.909046 -0.036277
v -0.051303 -0.909046 -0.000000
v -0.036277 -0.909046 0.036277
v -0.000000 -0.909046 0.051303
v 0.036277 -0.909046 0.036277
v 0.000000 -0.900000 0.000000
vn 0.1732 -0.9823 -0.0717
vn 0.0717 -0.9823 -0.1732
vn -0.0717 -0.9823 -0.1732
vn -0.1732 -0.9823 -0.0717
vn -0.1732 -0.9823 0.0717
vn -0.0717 -0.9823 0.1732
vn 0.0717 -0.9823 0.1732
vn 0.1732 -0.9823 0.0717
vn 0.5903 -0.7693 -0.2445
vn 0.2445 -0.7693 -0.5903
vn -0.2445 -0.7693 -0.5903
vn -0.5903 -0.7693 -0.2445
vn -0.5903 -0.7693 0.2445
vn -0.2445 -0.7693 0.5903
vn 0.2445 -0.7693 0.5903
vn 0.5903 -0.7693 0.2445
vn 0.8870 -0.2797 -0.3674
vn 0.3674 -0.2797 -0.8870
vn -0.3674 -0.2797 -0.8870
vn -0.8870 -0.2797 -0.3674
vn -0.8870 -0.2797 0.3674
vn -0.3674 -0.2797 0.8870
vn 0.3674 -0.2797 0.8870
vn 0.8870 -0.2797 0.3674
vn 0.8870 0.2797 -0.3674
vn 0.3674 0.2797 -0.8870
vn -0.3674 0.2797 -0.8870
vn -0.8870 0.2797 -0.3674
vn -0.8870 0.2797 0.3674
vn -0.3674 0.2797 0.8870
vn 0.3674 0.2797 0.8870
vn 0.8870 0.2797 0.3674
vn 0.5903 0.7693 -0.2445
vn 0.2445 0.7693 -0.5903
vn -0.2445 0.7693 -0.5903
vn -0.5903 0.7693 -0.2445
vn -0.5903 0.7693 0.2445
vn -0.2445 0.7693 0.5903
vn 0.2445 0.7693 0.5903
vn 0.5903 0.7693 0.2445
vn 0.1732 0.9823 -0.0717
vn 0.0717 0.9823 -0.1732
vn -0.0717 0.9823 -0.1732
vn -0.1732 0.9823 -0.0717
vn -0.1732 0.9823 0.0717
vn -0.0717 0.9823 0.1732
vn 0.0717 0.9823 0.1732
vn 0.1732 0.9823 0.0717
s 0
g C_Pommel.001_venom_knife_fittings
usemtl venom_knife_fittings
f 455//121 457//121 456//121
f 455//122 458//122 457//122
f 455//123 459//123 458//123
f 455//124 460//124 459//124
f 455//125 461//125 460//125
f 455//126 462//126 461//126
f 455//127 463//127 462//127
f 455//128 456//128 463//128
f 456//129 465//129 464//129
f 458//130 465//130 457//130
f 458//131 467//131 466//131
f 460//132 467//132 459//132
f 460//133 469//133 468//133
f 462//134 469//134 461//134
f 462//135 471//135 470//135
f 456//136 471//136 463//136
f 464//137 473//137 472//137
f 466//138 473//138 465//138
f 466//139 475//139 474//139
f 468//140 475//140 467//140
f 468//141 477//141 476//141
f 470//142 477//142 469//142
f 470//143 479//143 478//143
f 464//144 479//144 471//144
f 473//145 480//145 472//145
f 474//146 481//146 473//146
f 475//147 482//147 474//147
f 476//148 483//148 475//148
f 477//149 484//149 476//149
f 478//150 485//150 477//150
f 479//151 486//151 478//151
f 472//152 487//152 479//152
f 481//153 488//153 480//153
f 482//154 489//154 481//154
f 483//155 490//155 482//155
f 484//156 491//156 483//156
f 485//157 492//157 484//157
f 486//158 493//158 485//158
f 487//159 494//159 486//159
f 480//160 495//160 487//160
f 488//161 489//161 496//161
f 489//162 490//162 496//162
f 490//163 491//163 496//163
f 491//164 492//164 496//164
f 492//165 493//165 496//165
f 493//166 494//166 496//166
f 494//167 495//167 496//167
f 495//168 488//168 496//168
f 456//129 457//129 465//129
f 458//130 466//130 465//130
f 458//131 459//131 467//131
f 460//132 468//132 467//132
f 460//133 461//133 469//133
f 462//134 470//134 469//134
f 462//135 463//135 471//135
f 456//136 464//136 471//136
f 464//137 465//137 473//137
f 466//138 474//138 473//138
f 466//139 467//139 475//139
f 468//140 476//140 475//140
f 468//141 469//141 477//141
f 470//142 478//142 477//142
f 470//143 471//143 479//143
f 464//144 472//144 479//144
f 473//145 481//145 480//145
f 474//146 482//146 481//146
f 475//147 483//147 482//147
f 476//148 484//148 483//148
f 477//149 485//149 484//149
f 478//150 486//150 485//150
f 479//151 487//151 486//151
f 472//152 480//152 487//152
f 481//153 489//153 488//153
f 482//154 490//154 489//154
f 483//155 491//155 490//155
f 484//156 492//156 491//156
f 485//157 493//157 492//157
f 486//158 494//158 493//158
f 487//159 495//159 494//159
f 480//160 488//160 495//160
