# Blender 5.0.1
# www.blender.org
mtllib wind_dancer.mtl
g Bead_1.003_Mesh
v -0.760000 -1.480000 0.000000
v -0.687640 -1.424722 0.052572
v -0.787639 -1.424722 0.085064
v -0.849443 -1.424722 0.000000
v -0.787639 -1.424722 -0.085064
v -0.687640 -1.424722 -0.052572
v -0.732362 -1.335279 0.085064
v -0.832360 -1.335279 0.052572
v -0.832360 -1.335279 -0.052572
v -0.732362 -1.335279 -0.085064
v -0.670558 -1.335279 0.000000
v -0.760000 -1.280000 0.000000
vn 0.1876 -0.7947 0.5774
vn 0.6071 -0.7947 -0.0000
vn -0.4911 -0.7947 0.3568
vn -0.4911 -0.7947 -0.3568
vn 0.1876 -0.7947 -0.5774
vn 0.9822 -0.1876 -0.0000
vn 0.3035 -0.1876 0.9342
vn -0.7946 -0.1876 0.5774
vn -0.7946 -0.1876 -0.5774
vn 0.3035 -0.1876 -0.9342
vn 0.7946 0.1876 0.5774
vn -0.3035 0.1876 0.9342
vn -0.9822 0.1876 -0.0000
vn -0.3035 0.1876 -0.9342
vn 0.7946 0.1876 -0.5774
vn 0.4911 0.7947 0.3568
vn -0.1876 0.7947 0.5774
vn -0.6071 0.7947 -0.0000
vn -0.1876 0.7947 -0.5774
vn 0.4911 0.7947 -0.3568
vt 0.181819 0.000000
vt 0.272728 0.157461
vt 0.090910 0.157461
vt 0.363637 0.000000
vt 0.454546 0.157461
vt 0.909091 0.000000
vt 1.000000 0.157461
vt 0.818182 0.157461
vt 0.727273 0.000000
vt 0.636364 0.157461
vt 0.545455 0.000000
vt 0.363637 0.314921
vt 0.181819 0.314921
vt 0.909091 0.314921
vt 0.727273 0.314921
vt 0.545455 0.314921
vt 0.000000 0.314921
vt 0.272728 0.472382
vt 0.090910 0.472382
vt 0.818182 0.472382
vt 0.636364 0.472382
vt 0.454546 0.472382
s 0
g Bead_1.003_MAT_Emerald
usemtl MAT_Emerald
f 1/1/1 2/2/1 3/3/1
f 2/2/2 1/4/2 6/5/2
f 1/6/3 3/7/3 4/8/3
f 1/9/4 4/8/4 5/10/4
f 1/11/5 5/10/5 6/5/5
f 2/2/6 6/5/6 11/12/6
f 3/3/7 2/2/7 7/13/7
f 4/8/8 3/7/8 8/14/8
f 5/10/9 4/8/9 9/15/9
f 6/5/10 5/10/10 10/16/10
f 2/2/11 11/12/11 7/13/11
f 3/3/12 7/13/12 8/17/12
f 4/8/13 8/14/13 9/15/13
f 5/10/14 9/15/14 10/16/14
f 6/5/15 10/16/15 11/12/15
f 7/13/16 11/12/16 12/18/16
f 8/17/17 7/13/17 12/19/17
f 9/15/18 8/14/18 12/20/18
f 10/16/19 9/15/19 12/21/19
f 11/12/20 10/16/20 12/22/20
g Bead_1.004_Mesh
v 0.760000 -1.480000 0.000000
v 0.832360 -1.424722 0.052572
v 0.732362 -1.424722 0.085064
v 0.670558 -1.424722 0.000000
v 0.732362 -1.424722 -0.085064
v 0.832360 -1.424722 -0.052572
v 0.787639 -1.335279 0.085064
v 0.687640 -1.335279 0.052572
v 0.687640 -1.335279 -0.052572
v 0.787639 -1.335279 -0.085064
v 0.849443 -1.335279 0.000000
v 0.760000 -1.280000 0.000000
vn 0.1876 -0.7947 0.5774
vn 0.6071 -0.7947 -0.0000
vn -0.4911 -0.7947 0.3568
vn -0.4911 -0.7947 -0.3568
vn 0.1876 -0.7947 -0.5774
vn 0.9822 -0.1876 -0.0000
vn 0.3035 -0.1876 0.9342
vn -0.7946 -0.1876 0.5774
vn -0.7946 -0.1876 -0.5774
vn 0.3035 -0.1876 -0.9342
vn 0.7946 0.1876 0.5774
vn -0.3035 0.1876 0.9342
vn -0.9822 0.1876 -0.0000
vn -0.3035 0.1876 -0.9342
vn 0.7946 0.1876 -0.5774
vn 0.4911 0.7947 0.3568
vn -0.1876 0.7947 0.5774
vn -0.6071 0.7947 -0.0000
vn -0.1876 0.7947 -0.5774
vn 0.4911 0.7947 -0.3568
vt 0.181819 0.000000
vt 0.272728 0.157461
vt 0.090910 0.157461
vt 0.363637 0.000000
vt 0.454546 0.157461
vt 0.909091 0.000000
vt 1.000000 0.157461
vt 0.818182 0.157461
vt 0.727273 0.000000
vt 0.636364 0.157461
vt 0.545455 0.000000
vt 0.363637 0.314921
vt 0.181819 0.314921
vt 0.909091 0.314921
vt 0.727273 0.314921
vt 0.545455 0.314921
vt 0.000000 0.314921
vt 0.272728 0.472382
vt 0.090910 0.472382
vt 0.818182 0.472382
vt 0.636364 0.472382
vt 0.454546 0.472382
s 0
g Bead_1.004_MAT_Emerald
usemtl MAT_Emerald
f 13/23/21 14/24/21 15/25/21
f 14/24/22 13/26/22 18/27/22
f 13/28/23 15/29/23 16/30/23
f 13/31/24 16/30/24 17/32/24
f 13/33/25 17/32/25 18/27/25
f 14/24/26 18/27/26 23/34/26
f 15/25/27 14/24/27 19/35/27
f 16/30/28 15/29/28 20/36/28
f 17/32/29 16/30/29 21/37/29
f 18/27/30 17/32/30 22/38/30
f 14/24/31 23/34/31 19/35/31
f 15/25/32 19/35/32 20/39/32
f 16/30/33 20/36/33 21/37/33
f 17/32/34 21/37/34 22/38/34
f 18/27/35 22/38/35 23/34/35
f 19/35/36 23/34/36 24/40/36
f 20/39/37 19/35/37 24/41/37
f 21/37/38 20/36/38 24/42/38
f 22/38/39 21/37/39 24/43/39
f 23/34/40 22/38/40 24/44/40
g Cord_0.005_Mesh
v -0.492501 -1.087498 0.000000
v -0.510052 -1.091161 -0.012990
v -0.510052 -1.091161 0.012990
v -0.772501 -1.367499 -0.000000
v -0.768839 -1.349948 0.012990
v -0.768839 -1.349948 -0.012990
v -0.486251 -1.093749 0.015311
v -0.508284 -1.092929 0.017321
v -0.492374 -1.108839 0.030311
v -0.766251 -1.373749 0.015311
v -0.751161 -1.367625 0.030311
v -0.767071 -1.351715 0.017321
v -0.473749 -1.106250 0.015311
v -0.488839 -1.112374 0.030311
v -0.472929 -1.128284 0.017321
v -0.753749 -1.386250 0.015311
v -0.731716 -1.387071 0.017321
v -0.747626 -1.371161 0.030311
v -0.467499 -1.112501 0.000000
v -0.471161 -1.130052 0.012990
v -0.471161 -1.130052 -0.012990
v -0.747499 -1.392501 -0.000000
v -0.729948 -1.388839 -0.012990
v -0.729948 -1.388839 0.012990
v -0.473749 -1.106250 -0.015311
v -0.472929 -1.128284 -0.017321
v -0.488839 -1.112374 -0.030311
v -0.753749 -1.386250 -0.015311
v -0.747626 -1.371161 -0.030311
v -0.731716 -1.387071 -0.017321
v -0.486250 -1.093749 -0.015311
v -0.492374 -1.108839 -0.030311
v -0.508284 -1.092929 -0.017321
v -0.766251 -1.373749 -0.015311
v -0.767071 -1.351715 -0.017321
v -0.751161 -1.367625 -0.030311
vn -0.2043 0.9789 -0.0000
vn -0.9789 0.2043 -0.0000
vn 0.0915 0.6831 0.7246
vn -0.6831 -0.0915 0.7246
vn 0.6831 0.0915 0.7246
vn -0.0915 -0.6831 0.7246
vn 0.9789 -0.2043 -0.0000
vn 0.2043 -0.9789 -0.0000
vn 0.6831 0.0915 -0.7246
vn -0.0915 -0.6831 -0.7246
vn 0.0915 0.6831 -0.7246
vn -0.6831 -0.0915 -0.7246
vn 0.0670 0.9330 0.3536
vn -0.9330 -0.0670 0.3536
vn -0.7071 0.7071 -0.0000
vn -0.3536 0.3536 0.8660
vn 0.5000 0.5000 0.7071
vn -0.5000 -0.5000 0.7071
vn 0.3536 -0.3536 0.8660
vn 0.9330 0.0670 0.3536
vn -0.0670 -0.9330 0.3536
vn 0.7071 -0.7071 -0.0000
vn 0.9330 0.0670 -0.3536
vn -0.0670 -0.9330 -0.3536
vn 0.3536 -0.3536 -0.8660
vn 0.5000 0.5000 -0.7071
vn -0.5000 -0.5000 -0.7071
vn -0.3536 0.3536 -0.8660
vn 0.0670 0.9330 -0.3536
vn -0.9330 -0.0670 -0.3536
vn 0.7071 0.7071 -0.0000
vn -0.6124 0.6124 0.5000
vn -0.6124 0.6124 -0.5000
vn -0.7071 -0.7071 -0.0000
vn -0.0000 -0.0000 1.0000
vn 0.6124 -0.6124 0.5000
vn 0.6124 -0.6124 -0.5000
vn -0.0000 -0.0000 -1.0000
vt 0.750000 0.371231
vt 0.660923 0.438571
vt 0.839077 0.438571
vt 0.250000 0.371231
vt 0.339077 0.438571
vt 0.160923 0.438571
vt 0.854989 0.310615
vt 0.868769 0.421429
vt 0.957846 0.267143
vt 0.354989 0.310615
vt 0.457846 0.267143
vt 0.368769 0.421429
vt 0.854989 0.189385
vt 0.957846 0.232857
vt 0.868769 0.078571
vt 0.354989 0.189385
vt 0.368769 0.078571
vt 0.457846 0.232857
vt 0.750000 0.128769
vt 0.839077 0.061429
vt 0.660923 0.061429
vt 0.250000 0.128769
vt 0.160923 0.061429
vt 0.339077 0.061429
vt 0.645011 0.189385
vt 0.631231 0.078571
vt 0.542154 0.232857
vt 0.145011 0.189385
vt 0.042154 0.232857
vt 0.131231 0.078571
vt 0.645011 0.310615
vt 0.542154 0.267143
vt 0.631231 0.421429
vt 0.145011 0.310615
vt 0.131231 0.421429
vt 0.042154 0.267143
vt 0.071428 0.981060
vt -0.000000 0.518940
vt 0.071428 0.518940
vt 0.761905 0.518940
vt 0.904762 0.981060
vt 0.761905 0.981060
vt 0.595238 0.518940
vt 0.738095 0.981060
vt 0.595238 0.981060
vt 0.428571 0.518940
vt 0.571428 0.981060
vt 0.428571 0.981060
vt 0.261905 0.518940
vt 0.404762 0.981060
vt 0.261905 0.981060
vt 0.095238 0.518940
vt 0.238095 0.981060
vt 0.095238 0.981060
vt 0.928571 0.981060
vt 0.904762 0.518940
vt 0.928572 0.518940
vt 0.738095 0.518940
vt 0.571429 0.518940
vt 0.404762 0.518940
vt 0.238095 0.518940
vt -0.000000 0.981060
s 0
g Cord_0.005_MAT_ClothGreen
usemtl MAT_ClothGreen
f 25/45/41 26/46/41 27/47/41
f 28/48/42 29/49/42 30/50/42
f 31/51/43 32/52/43 33/53/43
f 34/54/44 35/55/44 36/56/44
f 37/57/45 38/58/45 39/59/45
f 40/60/46 41/61/46 42/62/46
f 43/63/47 44/64/47 45/65/47
f 46/66/48 47/67/48 48/68/48
f 49/69/49 50/70/49 51/71/49
f 52/72/50 53/73/50 54/74/50
f 55/75/51 56/76/51 57/77/51
f 58/78/52 59/79/52 60/80/52
f 32/52/53 25/45/53 27/47/53
f 36/56/54 28/48/54 34/54/54
f 30/81/55 27/82/55 26/83/55
f 33/84/56 36/85/56 35/86/56
f 38/58/57 31/51/57 33/53/57
f 35/55/58 40/60/58 42/62/58
f 39/87/59 42/88/59 41/89/59
f 39/59/60 43/63/60 37/57/60
f 41/61/61 46/66/61 48/68/61
f 45/90/62 48/91/62 47/92/62
f 50/70/63 43/63/63 45/65/63
f 54/74/64 46/66/64 52/72/64
f 51/93/65 54/94/65 53/95/65
f 56/76/66 49/69/66 51/71/66
f 53/73/67 58/78/67 60/80/67
f 57/96/68 60/97/68 59/98/68
f 57/77/69 25/45/69 55/75/69
f 59/79/70 28/48/70 30/50/70
f 31/51/71 43/63/71 55/75/71
f 29/99/72 32/100/72 27/101/72
f 59/98/73 26/83/73 57/96/73
f 28/48/74 52/72/74 40/60/74
f 35/86/75 38/102/75 33/84/75
f 41/89/76 44/103/76 39/87/76
f 47/92/77 50/104/77 45/90/77
f 53/95/78 56/105/78 51/93/78
f 32/52/53 31/51/53 25/45/53
f 36/56/54 29/49/54 28/48/54
f 30/81/55 29/106/55 27/82/55
f 33/84/56 32/100/56 36/85/56
f 38/58/57 37/57/57 31/51/57
f 35/55/58 34/54/58 40/60/58
f 39/87/59 38/102/59 42/88/59
f 39/59/60 44/64/60 43/63/60
f 41/61/61 40/60/61 46/66/61
f 45/90/62 44/103/62 48/91/62
f 50/70/63 49/69/63 43/63/63
f 54/74/64 47/67/64 46/66/64
f 51/93/65 50/104/65 54/94/65
f 56/76/66 55/75/66 49/69/66
f 53/73/67 52/72/67 58/78/67
f 57/96/68 56/105/68 60/97/68
f 57/77/69 26/46/69 25/45/69
f 59/79/70 58/78/70 28/48/70
f 55/75/71 25/45/71 31/51/71
f 31/51/71 37/57/71 43/63/71
f 43/63/71 49/69/71 55/75/71
f 29/99/72 36/85/72 32/100/72
f 59/98/73 30/81/73 26/83/73
f 40/60/74 34/54/74 28/48/74
f 28/48/74 58/78/74 52/72/74
f 52/72/74 46/66/74 40/60/74
f 35/86/75 42/88/75 38/102/75
f 41/89/76 48/91/76 44/103/76
f 47/92/77 54/94/77 50/104/77
f 53/95/78 60/97/78 56/105/78
g Cord_0.006_Mesh
v 0.492501 -1.087498 0.000000
v 0.510052 -1.091161 0.012990
v 0.510052 -1.091161 -0.012990
v 0.772501 -1.367499 -0.000000
v 0.768839 -1.349948 -0.012990
v 0.768839 -1.349948 0.012990
v 0.486250 -1.093749 -0.015311
v 0.508284 -1.092929 -0.017321
v 0.492374 -1.108839 -0.030311
v 0.766251 -1.373749 -0.015311
v 0.751161 -1.367625 -0.030311
v 0.767071 -1.351715 -0.017321
v 0.473749 -1.106250 -0.015311
v 0.488839 -1.112374 -0.030311
v 0.472929 -1.128284 -0.017321
v 0.753749 -1.386250 -0.015311
v 0.731716 -1.387071 -0.017321
v 0.747626 -1.371161 -0.030311
v 0.467499 -1.112501 0.000000
v 0.471161 -1.130052 -0.012990
v 0.471161 -1.130052 0.012990
v 0.747499 -1.392501 -0.000000
v 0.729948 -1.388839 0.012990
v 0.729948 -1.388839 -0.012990
v 0.473749 -1.106250 0.015311
v 0.472929 -1.128284 0.017321
v 0.488839 -1.112374 0.030311
v 0.753749 -1.386250 0.015311
v 0.747626 -1.371161 0.030311
v 0.731716 -1.387071 0.017321
v 0.486251 -1.093749 0.015311
v 0.492374 -1.108839 0.030311
v 0.508284 -1.092929 0.017321
v 0.766251 -1.373749 0.015311
v 0.767071 -1.351715 0.017321
v 0.751161 -1.367625 0.030311
vn 0.2043 0.9789 -0.0000
vn 0.9789 0.2043 -0.0000
vn -0.0915 0.6831 -0.7246
vn 0.6831 -0.0915 -0.7246
vn -0.6831 0.0915 -0.7246
vn 0.0915 -0.6831 -0.7246
vn -0.9789 -0.2043 -0.0000
vn -0.2043 -0.9789 -0.0000
vn -0.6831 0.0915 0.7246
vn 0.0915 -0.6831 0.7246
vn -0.0915 0.6831 0.7246
vn 0.6831 -0.0915 0.7246
vn -0.0670 0.9330 -0.3536
vn 0.9330 -0.0670 -0.3536
vn 0.7071 0.7071 -0.0000
vn 0.3536 0.3536 -0.8660
vn -0.5000 0.5000 -0.7071
vn 0.5000 -0.5000 -0.7071
vn -0.3536 -0.3536 -0.8660
vn -0.9330 0.0670 -0.3536
vn 0.0670 -0.9330 -0.3536
vn -0.7071 -0.7071 -0.0000
vn -0.9330 0.0670 0.3536
vn 0.0670 -0.9330 0.3536
vn -0.3536 -0.3536 0.8660
vn -0.5000 0.5000 0.7071
vn 0.5000 -0.5000 0.7071
vn 0.3536 0.3536 0.8660
vn -0.0670 0.9330 0.3536
vn 0.9330 -0.0670 0.3536
vn -0.7071 0.7071 -0.0000
vn 0.6124 0.6124 -0.5000
vn 0.6124 0.6124 0.5000
vn 0.7071 -0.7071 -0.0000
vn -0.0000 -0.0000 -1.0000
vn -0.6124 -0.6124 -0.5000
vn -0.6124 -0.6124 0.5000
vn -0.0000 -0.0000 1.0000
vt 0.750000 0.371231
vt 0.660923 0.438571
vt 0.839077 0.438571
vt 0.250000 0.371231
vt 0.339077 0.438571
vt 0.160923 0.438571
vt 0.854989 0.310615
vt 0.868769 0.421429
vt 0.957846 0.267143
vt 0.354989 0.310615
vt 0.457846 0.267143
vt 0.368769 0.421429
vt 0.854989 0.189385
vt 0.957846 0.232857
vt 0.868769 0.078571
vt 0.354989 0.189385
vt 0.368769 0.078571
vt 0.457846 0.232857
vt 0.750000 0.128769
vt 0.839077 0.061429
vt 0.660923 0.061429
vt 0.250000 0.128769
vt 0.160923 0.061429
vt 0.339077 0.061429
vt 0.645011 0.189385
vt 0.631231 0.078571
vt 0.542154 0.232857
vt 0.145011 0.189385
vt 0.042154 0.232857
vt 0.131231 0.078571
vt 0.645011 0.310615
vt 0.542154 0.267143
vt 0.631231 0.421429
vt 0.145011 0.310615
vt 0.131231 0.421429
vt 0.042154 0.267143
vt 0.071428 0.981060
vt -0.000000 0.518940
vt 0.071428 0.518940
vt 0.761905 0.518940
vt 0.904762 0.981060
vt 0.761905 0.981060
vt 0.595238 0.518940
vt 0.738095 0.981060
vt 0.595238 0.981060
vt 0.428571 0.518940
vt 0.571428 0.981060
vt 0.428571 0.981060
vt 0.261905 0.518940
vt 0.404762 0.981060
vt 0.261905 0.981060
vt 0.095238 0.518940
vt 0.238095 0.981060
vt 0.095238 0.981060
vt 0.928571 0.981060
vt 0.904762 0.518940
vt 0.928572 0.518940
vt 0.738095 0.518940
vt 0.571429 0.518940
vt 0.404762 0.518940
vt 0.238095 0.518940
vt -0.000000 0.981060
s 0
g Cord_0.006_MAT_ClothGreen
usemtl MAT_ClothGreen
f 61/107/79 62/108/79 63/109/79
f 64/110/80 65/111/80 66/112/80
f 67/113/81 68/114/81 69/115/81
f 70/116/82 71/117/82 72/118/82
f 73/119/83 74/120/83 75/121/83
f 76/122/84 77/123/84 78/124/84
f 79/125/85 80/126/85 81/127/85
f 82/128/86 83/129/86 84/130/86
f 85/131/87 86/132/87 87/133/87
f 88/134/88 89/135/88 90/136/88
f 91/137/89 92/138/89 93/139/89
f 94/140/90 95/141/90 96/142/90
f 68/114/91 61/107/91 63/109/91
f 72/118/92 64/110/92 70/116/92
f 66/143/93 63/144/93 62/145/93
f 69/146/94 72/147/94 71/148/94
f 74/120/95 67/113/95 69/115/95
f 71/117/96 76/122/96 78/124/96
f 75/149/97 78/150/97 77/151/97
f 75/121/98 79/125/98 73/119/98
f 77/123/99 82/128/99 84/130/99
f 81/152/100 84/153/100 83/154/100
f 86/132/101 79/125/101 81/127/101
f 90/136/102 82/128/102 88/134/102
f 87/155/103 90/156/103 89/157/103
f 92/138/104 85/131/104 87/133/104
f 89/135/105 94/140/105 96/142/105
f 93/158/106 96/159/106 95/160/106
f 93/139/107 61/107/107 91/137/107
f 95/141/108 64/110/108 66/112/108
f 67/113/109 79/125/109 91/137/109
f 65/161/110 68/162/110 63/163/110
f 95/160/111 62/145/111 93/158/111
f 64/110/112 88/134/112 76/122/112
f 71/148/113 74/164/113 69/146/113
f 77/151/114 80/165/114 75/149/114
f 83/154/115 86/166/115 81/152/115
f 89/157/116 92/167/116 87/155/116
f 68/114/91 67/113/91 61/107/91
f 72/118/92 65/111/92 64/110/92
f 66/143/93 65/168/93 63/144/93
f 69/146/94 68/162/94 72/147/94
f 74/120/95 73/119/95 67/113/95
f 71/117/96 70/116/96 76/122/96
f 75/149/97 74/164/97 78/150/97
f 75/121/98 80/126/98 79/125/98
f 77/123/99 76/122/99 82/128/99
f 81/152/100 80/165/100 84/153/100
f 86/132/101 85/131/101 79/125/101
f 90/136/102 83/129/102 82/128/102
f 87/155/103 86/166/103 90/156/103
f 92/138/104 91/137/104 85/131/104
f 89/135/105 88/134/105 94/140/105
f 93/158/106 92/167/106 96/159/106
f 93/139/107 62/108/107 61/107/107
f 95/141/108 94/140/108 64/110/108
f 91/137/109 61/107/109 67/113/109
f 67/113/109 73/119/109 79/125/109
f 79/125/109 85/131/109 91/137/109
f 65/161/110 72/147/110 68/162/110
f 95/160/111 66/143/111 62/145/111
f 76/122/112 70/116/112 64/110/112
f 64/110/112 94/140/112 88/134/112
f 88/134/112 82/128/112 76/122/112
f 71/148/113 78/150/113 74/164/113
f 77/151/114 84/153/114 80/165/114
f 83/154/115 90/156/115 86/166/115
f 89/157/116 96/159/116 92/167/116
g Cord_1.005_Mesh
v -0.744761 -1.371036 0.000000
v -0.728691 -1.378986 0.012990
v -0.728691 -1.378986 -0.012990
v -0.544761 -1.711036 -0.000000
v -0.543902 -1.693128 -0.012990
v -0.543902 -1.693128 0.012990
v -0.752381 -1.375518 -0.015311
v -0.730846 -1.380254 -0.017320
v -0.750240 -1.391662 -0.030311
v -0.552381 -1.715518 -0.015311
v -0.565450 -1.705804 -0.030311
v -0.546057 -1.694396 -0.017321
v -0.767619 -1.384482 -0.015311
v -0.754549 -1.394197 -0.030311
v -0.773943 -1.405605 -0.017320
v -0.567619 -1.724482 -0.015311
v -0.589153 -1.719747 -0.017321
v -0.569760 -1.708339 -0.030311
v -0.775238 -1.388964 0.000000
v -0.776098 -1.406872 -0.012990
v -0.776098 -1.406872 0.012990
v -0.575238 -1.728964 -0.000000
v -0.591308 -1.721014 0.012990
v -0.591308 -1.721014 -0.012990
v -0.767619 -1.384482 0.015311
v -0.773943 -1.405605 0.017321
v -0.754549 -1.394197 0.030311
v -0.567619 -1.724482 0.015311
v -0.569760 -1.708339 0.030311
v -0.589153 -1.719747 0.017320
v -0.752381 -1.375518 0.015311
v -0.750240 -1.391662 0.030311
v -0.730846 -1.380254 0.017321
v -0.552381 -1.715518 0.015311
v -0.546057 -1.694396 0.017320
v -0.565450 -1.705804 0.030311
vn 0.4434 0.8963 -0.0000
vn 0.9989 -0.0479 -0.0000
vn 0.0828 0.6842 -0.7246
vn 0.6383 -0.2600 -0.7246
vn -0.6383 0.2600 -0.7246
vn -0.0828 -0.6842 -0.7246
vn -0.9989 0.0479 -0.0000
vn -0.4434 -0.8963 -0.0000
vn -0.6383 0.2600 0.7246
vn -0.0828 -0.6842 0.7246
vn 0.0828 0.6842 0.7246
vn 0.6383 -0.2600 0.7246
vn 0.1693 0.9200 -0.3536
vn 0.8863 -0.2990 -0.3536
vn 0.8619 0.5070 -0.0000
vn 0.4310 0.2535 -0.8660
vn -0.3585 0.6095 -0.7071
vn 0.3585 -0.6095 -0.7071
vn -0.4310 -0.2535 -0.8660
vn -0.8863 0.2990 -0.3536
vn -0.1693 -0.9200 -0.3536
vn -0.8619 -0.5070 -0.0000
vn -0.8863 0.2990 0.3536
vn -0.1693 -0.9200 0.3536
vn -0.4310 -0.2535 0.8660
vn -0.3585 0.6095 0.7071
vn 0.3585 -0.6095 0.7071
vn 0.4310 0.2535 0.8660
vn 0.1693 0.9200 0.3536
vn 0.8863 -0.2990 0.3536
vn -0.5070 0.8619 -0.0000
vn 0.7465 0.4391 -0.5000
vn 0.7465 0.4391 0.5000
vn 0.5070 -0.8619 -0.0000
vn -0.0000 -0.0000 -1.0000
vn -0.7465 -0.4391 -0.5000
vn -0.7465 -0.4391 0.5000
vn -0.0000 -0.0000 1.0000
vt 0.750000 0.371231
vt 0.660923 0.438571
vt 0.839077 0.438571
vt 0.250000 0.371231
vt 0.339077 0.438571
vt 0.160923 0.438571
vt 0.854989 0.310615
vt 0.868769 0.421429
vt 0.957846 0.267143
vt 0.354989 0.310615
vt 0.457846 0.267143
vt 0.368769 0.421429
vt 0.854989 0.189385
vt 0.957846 0.232857
vt 0.868769 0.078571
vt 0.354989 0.189385
vt 0.368769 0.078571
vt 0.457846 0.232857
vt 0.750000 0.128769
vt 0.839077 0.061429
vt 0.660923 0.061429
vt 0.250000 0.128769
vt 0.160923 0.061429
vt 0.339077 0.061429
vt 0.645011 0.189385
vt 0.631231 0.078571
vt 0.542154 0.232857
vt 0.145011 0.189385
vt 0.042154 0.232857
vt 0.131231 0.078571
vt 0.645011 0.310615
vt 0.542154 0.267143
vt 0.631231 0.421429
vt 0.145011 0.310615
vt 0.131231 0.421429
vt 0.042154 0.267143
vt 0.071428 0.980987
vt -0.000000 0.519013
vt 0.071428 0.519013
vt 0.761905 0.519013
vt 0.904762 0.980987
vt 0.761905 0.980987
vt 0.595238 0.519013
vt 0.738095 0.980987
vt 0.595238 0.980987
vt 0.428571 0.519013
vt 0.571429 0.980987
vt 0.428571 0.980987
vt 0.261905 0.519013
vt 0.404762 0.980987
vt 0.261905 0.980987
vt 0.095238 0.519013
vt 0.238095 0.980987
vt 0.095238 0.980987
vt 0.928571 0.980987
vt 0.904762 0.519013
vt 0.928571 0.519013
vt 0.738095 0.519013
vt 0.571429 0.519013
vt 0.404762 0.519013
vt 0.238095 0.519013
vt -0.000000 0.980987
s 0
g Cord_1.005_MAT_ClothGreen
usemtl MAT_ClothGreen
f 97/169/117 98/170/117 99/171/117
f 100/172/118 101/173/118 102/174/118
f 103/175/119 104/176/119 105/177/119
f 106/178/120 107/179/120 108/180/120
f 109/181/121 110/182/121 111/183/121
f 112/184/122 113/185/122 114/186/122
f 115/187/123 116/188/123 117/189/123
f 118/190/124 119/191/124 120/192/124
f 121/193/125 122/194/125 123/195/125
f 124/196/126 125/197/126 126/198/126
f 127/199/127 128/200/127 129/201/127
f 130/202/128 131/203/128 132/204/128
f 104/176/129 97/169/129 99/171/129
f 101/173/130 106/178/130 108/180/130
f 102/205/131 99/206/131 98/207/131
f 105/208/132 108/209/132 107/210/132
f 110/182/133 103/175/133 105/177/133
f 107/179/134 112/184/134 114/186/134
f 111/211/135 114/212/135 113/213/135
f 116/188/136 109/181/136 111/183/136
f 113/185/137 118/190/137 120/192/137
f 117/214/138 120/215/138 119/216/138
f 122/194/139 115/187/139 117/189/139
f 119/191/140 124/196/140 126/198/140
f 123/217/141 126/218/141 125/219/141
f 128/200/142 121/193/142 123/195/142
f 125/197/143 130/202/143 132/204/143
f 129/220/144 132/221/144 131/222/144
f 98/170/145 127/199/145 129/201/145
f 131/203/146 100/172/146 102/174/146
f 103/175/147 115/187/147 127/199/147
f 101/223/148 104/224/148 99/225/148
f 131/222/149 98/207/149 129/220/149
f 100/172/150 124/196/150 112/184/150
f 107/210/151 110/226/151 105/208/151
f 113/213/152 116/227/152 111/211/152
f 119/216/153 122/228/153 117/214/153
f 125/219/154 128/229/154 123/217/154
f 104/176/129 103/175/129 97/169/129
f 101/173/130 100/172/130 106/178/130
f 102/205/131 101/230/131 99/206/131
f 105/208/132 104/224/132 108/209/132
f 110/182/133 109/181/133 103/175/133
f 107/179/134 106/178/134 112/184/134
f 111/211/135 110/226/135 114/212/135
f 116/188/136 115/187/136 109/181/136
f 113/185/137 112/184/137 118/190/137
f 117/214/138 116/227/138 120/215/138
f 122/194/139 121/193/139 115/187/139
f 119/191/140 118/190/140 124/196/140
f 123/217/141 122/228/141 126/218/141
f 128/200/142 127/199/142 121/193/142
f 125/197/143 124/196/143 130/202/143
f 129/220/144 128/229/144 132/221/144
f 98/170/145 97/169/145 127/199/145
f 131/203/146 130/202/146 100/172/146
f 127/199/147 97/169/147 103/175/147
f 103/175/147 109/181/147 115/187/147
f 115/187/147 121/193/147 127/199/147
f 101/223/148 108/209/148 104/224/148
f 131/222/149 102/205/149 98/207/149
f 112/184/150 106/178/150 100/172/150
f 100/172/150 130/202/150 124/196/150
f 124/196/150 118/190/150 112/184/150
f 107/210/151 114/212/151 110/226/151
f 113/213/152 120/215/152 116/227/152
f 119/216/153 126/218/153 122/228/153
f 125/219/154 132/221/154 128/229/154
g Cord_1.006_Mesh
v 0.744761 -1.371036 0.000000
v 0.728691 -1.378986 -0.012990
v 0.728691 -1.378986 0.012990
v 0.544761 -1.711036 -0.000000
v 0.543902 -1.693128 0.012990
v 0.543902 -1.693128 -0.012990
v 0.752381 -1.375518 0.015311
v 0.730846 -1.380254 0.017321
v 0.750240 -1.391662 0.030311
v 0.552381 -1.715518 0.015311
v 0.565450 -1.705804 0.030311
v 0.546057 -1.694396 0.017320
v 0.767619 -1.384482 0.015311
v 0.754549 -1.394197 0.030311
v 0.773943 -1.405605 0.017321
v 0.567619 -1.724482 0.015311
v 0.589153 -1.719747 0.017320
v 0.569760 -1.708339 0.030311
v 0.775238 -1.388964 0.000000
v 0.776098 -1.406872 0.012990
v 0.776098 -1.406872 -0.012990
v 0.575238 -1.728964 -0.000000
v 0.591308 -1.721014 -0.012990
v 0.591308 -1.721014 0.012990
v 0.767619 -1.384482 -0.015311
v 0.773943 -1.405605 -0.017320
v 0.754549 -1.394197 -0.030311
v 0.567619 -1.724482 -0.015311
v 0.569760 -1.708339 -0.030311
v 0.589153 -1.719747 -0.017321
v 0.752381 -1.375518 -0.015311
v 0.750240 -1.391662 -0.030311
v 0.730846 -1.380254 -0.017320
v 0.552381 -1.715518 -0.015311
v 0.546057 -1.694396 -0.017321
v 0.565450 -1.705804 -0.030311
vn -0.4434 0.8963 -0.0000
vn -0.9989 -0.0479 -0.0000
vn -0.0828 0.6842 0.7246
vn -0.6383 -0.2600 0.7246
vn 0.6383 0.2600 0.7246
vn 0.0828 -0.6842 0.7246
vn 0.9989 0.0479 -0.0000
vn 0.4434 -0.8963 -0.0000
vn 0.6383 0.2600 -0.7246
vn 0.0828 -0.6842 -0.7246
vn -0.0828 0.6842 -0.7246
vn -0.6383 -0.2600 -0.7246
vn -0.1693 0.9200 0.3536
vn -0.8863 -0.2990 0.3536
vn -0.8619 0.5070 -0.0000
vn -0.4310 0.2535 0.8660
vn 0.3585 0.6095 0.7071
vn -0.3585 -0.6095 0.7071
vn 0.4310 -0.2535 0.8660
vn 0.8863 0.2990 0.3536
vn 0.1693 -0.9200 0.3536
vn 0.8619 -0.5070 -0.0000
vn 0.8863 0.2990 -0.3536
vn 0.1693 -0.9200 -0.3536
vn 0.4310 -0.2535 -0.8660
vn 0.3585 0.6095 -0.7071
vn -0.3585 -0.6095 -0.7071
vn -0.4310 0.2535 -0.8660
vn -0.1693 0.9200 -0.3536
vn -0.8863 -0.2990 -0.3536
vn 0.5070 0.8619 -0.0000
vn -0.7465 0.4391 0.5000
vn -0.7465 0.4391 -0.5000
vn -0.5070 -0.8619 -0.0000
vn -0.0000 -0.0000 1.0000
vn 0.7465 -0.4391 0.5000
vn 0.7465 -0.4391 -0.5000
vn -0.0000 -0.0000 -1.0000
vt 0.750000 0.371231
vt 0.660923 0.438571
vt 0.839077 0.438571
vt 0.250000 0.371231
vt 0.339077 0.438571
vt 0.160923 0.438571
vt 0.854989 0.310615
vt 0.868769 0.421429
vt 0.957846 0.267143
vt 0.354989 0.310615
vt 0.457846 0.267143
vt 0.368769 0.421429
vt 0.854989 0.189385
vt 0.957846 0.232857
vt 0.868769 0.078571
vt 0.354989 0.189385
vt 0.368769 0.078571
vt 0.457846 0.232857
vt 0.750000 0.128769
vt 0.839077 0.061429
vt 0.660923 0.061429
vt 0.250000 0.128769
vt 0.160923 0.061429
vt 0.339077 0.061429
vt 0.645011 0.189385
vt 0.631231 0.078571
vt 0.542154 0.232857
vt 0.145011 0.189385
vt 0.042154 0.232857
vt 0.131231 0.078571
vt 0.645011 0.310615
vt 0.542154 0.267143
vt 0.631231 0.421429
vt 0.145011 0.310615
vt 0.131231 0.421429
vt 0.042154 0.267143
vt 0.071428 0.980987
vt -0.000000 0.519013
vt 0.071428 0.519013
vt 0.761905 0.519013
vt 0.904762 0.980987
vt 0.761905 0.980987
vt 0.595238 0.519013
vt 0.738095 0.980987
vt 0.595238 0.980987
vt 0.428571 0.519013
vt 0.571429 0.980987
vt 0.428571 0.980987
vt 0.261905 0.519013
vt 0.404762 0.980987
vt 0.261905 0.980987
vt 0.095238 0.519013
vt 0.238095 0.980987
vt 0.095238 0.980987
vt 0.928571 0.980987
vt 0.904762 0.519013
vt 0.928571 0.519013
vt 0.738095 0.519013
vt 0.571429 0.519013
vt 0.404762 0.519013
vt 0.238095 0.519013
vt -0.000000 0.980987
s 0
g Cord_1.006_MAT_ClothGreen
usemtl MAT_ClothGreen
f 133/231/155 134/232/155 135/233/155
f 136/234/156 137/235/156 138/236/156
f 139/237/157 140/238/157 141/239/157
f 142/240/158 143/241/158 144/242/158
f 145/243/159 146/244/159 147/245/159
f 148/246/160 149/247/160 150/248/160
f 151/249/161 152/250/161 153/251/161
f 154/252/162 155/253/162 156/254/162
f 157/255/163 158/256/163 159/257/163
f 160/258/164 161/259/164 162/260/164
f 163/261/165 164/262/165 165/263/165
f 166/264/166 167/265/166 168/266/166
f 140/238/167 133/231/167 135/233/167
f 137/235/168 142/240/168 144/242/168
f 138/267/169 135/268/169 134/269/169
f 141/270/170 144/271/170 143/272/170
f 146/244/171 139/237/171 141/239/171
f 143/241/172 148/246/172 150/248/172
f 147/273/173 150/274/173 149/275/173
f 152/250/174 145/243/174 147/245/174
f 149/247/175 154/252/175 156/254/175
f 153/276/176 156/277/176 155/278/176
f 158/256/177 151/249/177 153/251/177
f 155/253/178 160/258/178 162/260/178
f 159/279/179 162/280/179 161/281/179
f 164/262/180 157/255/180 159/257/180
f 161/259/181 166/264/181 168/266/181
f 165/282/182 168/283/182 167/284/182
f 134/232/183 163/261/183 165/263/183
f 167/265/184 136/234/184 138/236/184
f 139/237/185 151/249/185 163/261/185
f 137/285/186 140/286/186 135/287/186
f 167/284/187 134/269/187 165/282/187
f 136/234/188 160/258/188 148/246/188
f 143/272/189 146/288/189 141/270/189
f 149/275/190 152/289/190 147/273/190
f 155/278/191 158/290/191 153/276/191
f 161/281/192 164/291/192 159/279/192
f 140/238/167 139/237/167 133/231/167
f 137/235/168 136/234/168 142/240/168
f 138/267/169 137/292/169 135/268/169
f 141/270/170 140/286/170 144/271/170
f 146/244/171 145/243/171 139/237/171
f 143/241/172 142/240/172 148/246/172
f 147/273/173 146/288/173 150/274/173
f 152/250/174 151/249/174 145/243/174
f 149/247/175 148/246/175 154/252/175
f 153/276/176 152/289/176 156/277/176
f 158/256/177 157/255/177 151/249/177
f 155/253/178 154/252/178 160/258/178
f 159/279/179 158/290/179 162/280/179
f 164/262/180 163/261/180 157/255/180
f 161/259/181 160/258/181 166/264/181
f 165/282/182 164/291/182 168/283/182
f 134/232/183 133/231/183 163/261/183
f 167/265/184 166/264/184 136/234/184
f 163/261/185 133/231/185 139/237/185
f 139/237/185 145/243/185 151/249/185
f 151/249/185 157/255/185 163/261/185
f 137/285/186 144/271/186 140/286/186
f 167/284/187 138/267/187 134/269/187
f 148/246/188 142/240/188 136/234/188
f 136/234/188 166/264/188 160/258/188
f 160/258/188 154/252/188 148/246/188
f 143/272/189 150/274/189 146/288/189
f 149/275/190 156/277/190 152/289/190
f 155/278/191 162/280/191 158/290/191
f 161/281/192 168/283/192 164/291/192
g WindDancer_Blade-1.001_Mesh
v -0.643971 -0.286793 -0.010608
v -0.629746 -0.273157 0.019479
v -0.356880 -0.569152 0.071714
v -0.347476 -0.550775 0.100419
v -0.328655 -0.563974 0.079808
v -0.178281 -0.200106 0.148934
v -0.151709 -0.196496 0.130546
v -0.224060 0.738422 0.135808
v -0.200024 0.779606 0.116692
v -0.736876 1.804500 -0.037248
v -0.751245 1.745060 -0.015360
v -0.751963 1.801732 -0.041574
v -0.919484 0.647633 -0.089610
v -0.907253 0.668032 -0.060095
v -0.596669 -0.273157 -0.095873
v -0.624677 -0.286793 -0.077896
v -0.337586 -0.569152 0.004426
v -0.309360 -0.563974 0.012520
v -0.314399 -0.550775 -0.014933
v -0.132414 -0.196496 0.063258
v -0.145204 -0.200106 0.033583
v -0.180729 0.779606 0.049404
v -0.190983 0.738422 0.020456
v -0.717581 1.804500 -0.104536
v -0.732668 1.801732 -0.108862
v -0.718168 1.745060 -0.130712
v -0.874176 0.668032 -0.175446
v -0.900189 0.647633 -0.156898
vn 0.0001 0.8422 -0.5392
vn 0.3194 -0.3945 -0.8616
vn -0.2856 0.8422 0.4574
vn -0.1857 -0.3945 0.8999
vn 0.6619 0.5138 -0.5458
vn -0.5552 0.3709 -0.7445
vn 0.2721 0.5138 0.8136
vn -0.8653 0.3709 0.3372
vn -0.5650 -0.0391 -0.8241
vn -0.9159 -0.0391 0.3995
vn -0.2622 -0.2762 -0.9247
vn -0.7123 -0.2762 0.6452
vn 0.8447 0.2074 -0.4934
vn 0.9468 -0.1251 -0.2964
vn 0.4549 0.2074 0.8661
vn 0.6459 -0.1251 0.7531
vn -0.1669 0.9848 -0.0479
vn 0.1669 -0.9848 0.0479
vn 0.6604 0.7267 0.1894
vn 0.2756 -0.0000 -0.9613
vn 0.9190 0.2932 0.2635
vn -0.8595 0.4479 -0.2464
vn -0.9600 -0.0514 -0.2753
vn -0.8441 -0.4785 -0.2420
vn 0.9505 -0.1493 0.2725
vn -0.2756 -0.0000 0.9613
vn -0.5618 0.3725 -0.7387
vn -0.8679 0.3725 0.3287
vn -0.5788 -0.0402 -0.8145
vn -0.9225 -0.0402 0.3840
vn -0.2632 -0.2767 -0.9242
vn -0.7130 -0.2767 0.6443
vn 0.9441 -0.1241 -0.3055
vn 0.6387 -0.1241 0.7594
s 0
g WindDancer_Blade-1.001_MAT_SilverSteel
usemtl MAT_SilverSteel
f 171//193 172//193 173//193
f 178//194 179//194 180//194
f 185//195 186//195 187//195
f 192//196 193//196 194//196
f 170//197 171//197 169//197
f 174//198 173//198 172//198
f 185//199 183//199 184//199
f 186//200 189//200 187//200
f 176//201 175//201 174//201
f 188//202 191//202 189//202
f 179//203 177//203 176//203
f 190//204 194//204 191//204
f 181//205 170//205 169//205
f 179//206 181//206 180//206
f 183//207 196//207 184//207
f 196//208 194//208 193//208
f 186//209 171//209 173//209
f 193//210 178//210 180//210
f 171//211 184//211 169//211
f 170//212 174//212 172//212
f 170//212 176//212 174//212
f 170//212 179//212 176//212
f 170//212 182//212 179//212
f 169//213 196//213 181//213
f 175//214 186//214 173//214
f 177//215 188//215 175//215
f 178//216 190//216 177//216
f 181//217 193//217 180//217
f 183//218 189//218 191//218
f 183//218 187//218 189//218
f 183//218 191//218 194//218
f 183//218 194//218 195//218
f 170//197 172//197 171//197
f 174//219 175//219 173//219
f 185//199 187//199 183//199
f 186//220 188//220 189//220
f 176//221 177//221 175//221
f 188//222 190//222 191//222
f 179//223 178//223 177//223
f 190//224 192//224 194//224
f 181//205 182//205 170//205
f 179//225 182//225 181//225
f 183//207 195//207 196//207
f 196//226 195//226 194//226
f 186//209 185//209 171//209
f 193//210 192//210 178//210
f 171//211 185//211 184//211
f 169//213 184//213 196//213
f 175//214 188//214 186//214
f 177//215 190//215 188//215
f 178//216 192//216 190//216
f 181//217 196//217 193//217
g WindDancer_Blade1.001_Mesh
v 0.151709 -0.196496 0.130546
v 0.182926 -0.191195 0.147603
v 0.328655 -0.563974 0.079808
v 0.356900 -0.552503 0.097716
v 0.356880 -0.569152 0.071714
v 0.631181 -0.283182 0.019067
v 0.643971 -0.286793 -0.010608
v 0.896724 0.615033 -0.057076
v 0.919484 0.647633 -0.089610
v 0.751963 1.801732 -0.041574
v 0.732285 1.748537 -0.009924
v 0.736876 1.804500 -0.037248
v 0.200024 0.779606 0.116692
v 0.231590 0.791970 0.133648
v 0.149849 -0.191195 0.032251
v 0.132414 -0.196496 0.063258
v 0.309360 -0.563974 0.012520
v 0.337586 -0.569152 0.004426
v 0.323824 -0.552503 -0.017635
v 0.624677 -0.286793 -0.077896
v 0.598105 -0.283182 -0.096284
v 0.900189 0.647633 -0.156898
v 0.863647 0.615033 -0.172427
v 0.732668 1.801732 -0.108862
v 0.717581 1.804500 -0.104536
v 0.699208 1.748537 -0.125275
v 0.198514 0.791970 0.018297
v 0.180729 0.779606 0.049404
vn -0.0001 0.8422 -0.5392
vn -0.3194 -0.3945 -0.8616
vn 0.2856 0.8422 0.4574
vn 0.1857 -0.3945 0.8999
vn 0.4128 0.3167 -0.8540
vn -0.7006 0.6012 -0.3844
vn 0.8026 0.3167 0.5055
vn -0.3904 0.6012 0.6972
vn -0.8841 0.2267 -0.4086
vn -0.5332 0.2267 0.8150
vn -0.7737 -0.0861 -0.6276
vn -0.3236 -0.0861 0.9423
vn 0.4839 -0.0364 -0.8744
vn 0.5567 -0.4009 -0.7275
vn 0.8737 -0.0364 0.4851
vn 0.8577 -0.4009 0.3220
vn 0.1669 0.9848 -0.0479
vn -0.1669 -0.9848 0.0479
vn 0.8595 0.4479 -0.2464
vn -0.2756 -0.0000 -0.9613
vn 0.9600 -0.0514 -0.2753
vn -0.6604 0.7267 0.1894
vn -0.9190 0.2932 0.2635
vn -0.9505 -0.1493 0.2725
vn 0.8441 -0.4785 -0.2420
vn 0.2756 -0.0000 0.9613
vn -0.7023 0.6044 -0.3762
vn 0.8026 0.3167 0.5054
vn -0.3962 0.6044 0.6912
vn -0.8904 0.2293 -0.3932
vn -0.5468 0.2293 0.8053
vn -0.7745 -0.0863 -0.6266
vn -0.3247 -0.0863 0.9419
vn 0.5502 -0.3982 -0.7340
vn 0.8556 -0.3982 0.3309
s 0
g WindDancer_Blade1.001_MAT_SilverSteel
usemtl MAT_SilverSteel
f 199//227 200//227 201//227
f 206//228 207//228 208//228
f 213//229 214//229 215//229
f 220//230 221//230 222//230
f 198//231 199//231 197//231
f 202//232 201//232 200//232
f 213//233 211//233 212//233
f 214//234 217//234 215//234
f 204//235 203//235 202//235
f 216//236 219//236 217//236
f 207//237 205//237 204//237
f 218//238 222//238 219//238
f 209//239 198//239 197//239
f 207//240 209//240 208//240
f 211//241 224//241 212//241
f 224//242 222//242 221//242
f 214//243 199//243 201//243
f 221//244 206//244 208//244
f 199//245 212//245 197//245
f 198//246 202//246 200//246
f 198//246 204//246 202//246
f 198//246 207//246 204//246
f 198//246 210//246 207//246
f 197//247 224//247 209//247
f 203//248 214//248 201//248
f 205//249 216//249 203//249
f 206//250 218//250 205//250
f 209//251 221//251 208//251
f 211//252 217//252 219//252
f 211//252 215//252 217//252
f 211//252 219//252 222//252
f 211//252 222//252 223//252
f 198//231 200//231 199//231
f 202//253 203//253 201//253
f 213//254 215//254 211//254
f 214//255 216//255 217//255
f 204//256 205//256 203//256
f 216//257 218//257 219//257
f 207//258 206//258 205//258
f 218//259 220//259 222//259
f 209//239 210//239 198//239
f 207//260 210//260 209//260
f 211//241 223//241 224//241
f 224//261 223//261 222//261
f 214//243 213//243 199//243
f 221//244 220//244 206//244
f 199//245 213//245 212//245
f 197//247 212//247 224//247
f 203//248 216//248 214//248
f 205//249 218//249 216//249
f 206//250 220//250 218//250
f 209//251 224//251 221//251
g WindDancer_Grip-1.001_Mesh
v -0.553804 -1.174987 0.088692
v -0.557955 -1.157654 0.092080
v -0.561665 -1.158557 0.086438
v -0.698970 -0.325689 0.051644
v -0.700695 -0.308356 0.046572
v -0.702680 -0.326592 0.046003
v -0.495590 -1.174987 -0.114326
v -0.503450 -1.158557 -0.116580
v -0.497315 -1.157654 -0.119398
v -0.642481 -0.308356 -0.156446
v -0.638330 -0.325689 -0.159833
v -0.644465 -0.326592 -0.157015
v -0.317519 -1.131644 0.156446
v -0.315534 -1.113409 0.157015
v -0.321669 -1.114312 0.159833
v -0.464409 -0.265014 0.114326
v -0.462684 -0.282346 0.119398
v -0.456549 -0.281443 0.116580
v -0.259304 -1.131644 -0.046572
v -0.261029 -1.114312 -0.051644
v -0.257319 -1.113409 -0.046003
v -0.406195 -0.265014 -0.088692
v -0.398334 -0.281443 -0.086438
v -0.402044 -0.282346 -0.092080
vn -0.7760 -0.2948 0.5575
vn -0.8386 0.0744 0.5396
vn -0.3627 -0.2948 -0.8841
vn -0.4252 0.0744 -0.9020
vn 0.4252 -0.0744 0.9020
vn 0.3627 0.2948 0.8841
vn 0.8386 -0.0744 -0.5396
vn 0.7760 0.2948 -0.5575
vn -0.8606 -0.4456 -0.2468
vn -0.8219 -0.1122 0.5585
vn -0.9552 0.1125 -0.2739
vn -0.4011 -0.1122 -0.9092
vn 0.3079 -0.2389 -0.9210
vn 0.2269 0.2389 -0.9442
vn 0.8219 0.1122 -0.5585
vn 0.9552 -0.1125 0.2739
vn 0.8606 0.4456 0.2468
vn 0.4011 0.1122 0.9092
vn -0.2269 -0.2389 0.9442
vn -0.3079 0.2389 0.9210
vn 0.1669 -0.9848 0.0479
vn -0.9467 -0.1736 -0.2714
vn -0.2756 -0.0000 0.9613
vn -0.1669 0.9848 -0.0479
vn 0.2756 -0.0000 -0.9613
vn 0.9467 0.1736 0.2714
vt 0.130000 0.745000
vt 0.130000 0.750000
vt 0.125000 0.745000
vt 0.620000 0.000000
vt 0.625000 0.005000
vt 0.620000 0.005000
vt 0.130000 0.505000
vt 0.125000 0.505000
vt 0.130000 0.500000
vt 0.625000 0.248333
vt 0.620000 0.253750
vt 0.620000 0.245000
vt 0.370000 0.745000
vt 0.378750 0.745000
vt 0.375000 0.752500
vt 0.627500 0.750000
vt 0.620000 0.755000
vt 0.620000 0.746250
vt 0.370000 0.505000
vt 0.375000 0.497500
vt 0.378750 0.505000
vt 0.627500 0.500000
vt 0.620000 0.503750
vt 0.620000 0.495000
vt 0.380000 0.005000
vt 0.380000 0.000000
vt 0.380000 0.255000
vt 0.625000 0.995000
vt 0.380000 0.245000
vt 0.380000 0.995000
vt 0.870000 0.505000
vt 0.620000 0.995000
vt 0.870000 0.745000
s 0
g WindDancer_Grip-1.001_MAT_Leather
usemtl MAT_Leather
f 225/293/262 226/294/262 227/295/262
f 228/296/263 229/297/263 230/298/263
f 231/299/264 232/300/264 233/301/264
f 234/302/265 235/303/265 236/304/265
f 237/305/266 238/306/266 239/307/266
f 240/308/267 241/309/267 242/310/267
f 243/311/268 244/312/268 245/313/268
f 246/314/269 247/315/269 248/316/269
f 225/293/270 232/300/270 231/299/270
f 228/296/271 227/317/271 226/318/271
f 234/302/272 230/298/272 229/297/272
f 233/319/273 236/304/273 235/303/273
f 231/299/274 244/312/274 243/311/274
f 246/314/275 235/303/275 234/302/275
f 245/313/276 248/316/276 247/315/276
f 243/311/277 238/306/277 237/305/277
f 240/308/278 247/315/278 246/314/278
f 239/307/279 242/310/279 241/309/279
f 237/305/280 226/294/280 225/293/280
f 229/320/281 241/309/281 240/308/281
f 243/311/282 225/293/282 231/299/282
f 230/298/283 232/321/283 227/317/283
f 241/309/284 226/322/284 239/307/284
f 234/323/285 240/308/285 246/314/285
f 235/303/286 244/312/286 233/319/286
f 247/315/287 238/306/287 245/313/287
f 225/293/270 227/295/270 232/300/270
f 228/296/271 230/298/271 227/317/271
f 234/302/272 236/304/272 230/298/272
f 233/319/273 232/321/273 236/304/273
f 231/299/274 233/301/274 244/312/274
f 246/314/275 248/316/275 235/303/275
f 245/313/276 244/312/276 248/316/276
f 243/311/277 245/313/277 238/306/277
f 240/308/278 242/310/278 247/315/278
f 239/307/279 238/306/279 242/310/279
f 237/305/280 239/307/280 226/294/280
f 229/320/281 228/324/281 241/309/281
f 243/311/282 237/305/282 225/293/282
f 230/298/283 236/304/283 232/321/283
f 241/309/284 228/324/284 226/322/284
f 234/323/285 229/325/285 240/308/285
f 235/303/286 248/316/286 244/312/286
f 247/315/287 242/310/287 238/306/287
g WindDancer_Grip1.001_Mesh
v 0.317519 -1.131644 0.156446
v 0.321669 -1.114312 0.159833
v 0.315534 -1.113409 0.157015
v 0.462684 -0.282346 0.119398
v 0.464409 -0.265014 0.114326
v 0.456549 -0.281443 0.116580
v 0.259304 -1.131644 -0.046572
v 0.257319 -1.113409 -0.046003
v 0.261029 -1.114312 -0.051644
v 0.406195 -0.265014 -0.088692
v 0.402044 -0.282346 -0.092080
v 0.398334 -0.281443 -0.086438
v 0.553804 -1.174987 0.088692
v 0.561665 -1.158557 0.086438
v 0.557955 -1.157654 0.092080
v 0.700695 -0.308356 0.046572
v 0.698970 -0.325689 0.051644
v 0.702680 -0.326592 0.046003
v 0.495590 -1.174987 -0.114326
v 0.497315 -1.157654 -0.119398
v 0.503450 -1.158557 -0.116580
v 0.642481 -0.308356 -0.156446
v 0.644465 -0.326592 -0.157015
v 0.638330 -0.325689 -0.159833
vn -0.4252 -0.0744 0.9020
vn -0.3627 0.2948 0.8841
vn -0.8386 -0.0744 -0.5396
vn -0.7760 0.2948 -0.5575
vn 0.7760 -0.2948 0.5575
vn 0.8386 0.0744 0.5396
vn 0.3627 -0.2948 -0.8841
vn 0.4252 0.0744 -0.9020
vn -0.9552 -0.1125 0.2739
vn -0.4011 0.1122 0.9092
vn -0.8606 0.4456 0.2468
vn -0.8219 0.1122 -0.5585
vn -0.3079 -0.2389 -0.9210
vn -0.2269 0.2389 -0.9442
vn 0.4011 -0.1122 -0.9092
vn 0.8606 -0.4456 -0.2468
vn 0.9552 0.1125 -0.2739
vn 0.8219 -0.1122 0.5585
vn 0.2269 -0.2389 0.9442
vn 0.3079 0.2389 0.9210
vn -0.1669 -0.9848 0.0479
vn -0.9467 0.1736 0.2714
vn 0.2756 -0.0000 0.9613
vn 0.1669 0.9848 -0.0479
vn -0.2756 -0.0000 -0.9613
vn 0.9467 -0.1736 -0.2714
vt 0.130000 0.745000
vt 0.130000 0.750000
vt 0.125000 0.745000
vt 0.620000 0.000000
vt 0.625000 0.005000
vt 0.620000 0.005000
vt 0.130000 0.505000
vt 0.125000 0.505000
vt 0.130000 0.500000
vt 0.625000 0.248333
vt 0.620000 0.253750
vt 0.620000 0.245000
vt 0.370000 0.745000
vt 0.378750 0.745000
vt 0.375000 0.752500
vt 0.627500 0.750000
vt 0.620000 0.755000
vt 0.620000 0.746250
vt 0.370000 0.505000
vt 0.375000 0.497500
vt 0.378750 0.505000
vt 0.627500 0.500000
vt 0.620000 0.503750
vt 0.620000 0.495000
vt 0.380000 0.005000
vt 0.380000 0.000000
vt 0.380000 0.255000
vt 0.625000 0.995000
vt 0.380000 0.245000
vt 0.380000 0.995000
vt 0.870000 0.505000
vt 0.620000 0.995000
vt 0.870000 0.745000
s 0
g WindDancer_Grip1.001_MAT_Leather
usemtl MAT_Leather
f 249/326/288 250/327/288 251/328/288
f 252/329/289 253/330/289 254/331/289
f 255/332/290 256/333/290 257/334/290
f 258/335/291 259/336/291 260/337/291
f 261/338/292 262/339/292 263/340/292
f 264/341/293 265/342/293 266/343/293
f 267/344/294 268/345/294 269/346/294
f 270/347/295 271/348/295 272/349/295
f 249/326/296 256/333/296 255/332/296
f 252/329/297 251/350/297 250/351/297
f 258/335/298 254/331/298 253/330/298
f 257/352/299 260/337/299 259/336/299
f 255/332/300 268/345/300 267/344/300
f 270/347/301 259/336/301 258/335/301
f 269/346/302 272/349/302 271/348/302
f 267/344/303 262/339/303 261/338/303
f 264/341/304 271/348/304 270/347/304
f 263/340/305 266/343/305 265/342/305
f 261/338/306 250/327/306 249/326/306
f 253/353/307 265/342/307 264/341/307
f 267/344/308 249/326/308 255/332/308
f 254/331/309 256/354/309 251/350/309
f 265/342/310 250/355/310 263/340/310
f 258/356/311 264/341/311 270/347/311
f 259/336/312 268/345/312 257/352/312
f 271/348/313 262/339/313 269/346/313
f 249/326/296 251/328/296 256/333/296
f 252/329/297 254/331/297 251/350/297
f 258/335/298 260/337/298 254/331/298
f 257/352/299 256/354/299 260/337/299
f 255/332/300 257/334/300 268/345/300
f 270/347/301 272/349/301 259/336/301
f 269/346/302 268/345/302 272/349/302
f 267/344/303 269/346/303 262/339/303
f 264/341/304 266/343/304 271/348/304
f 263/340/305 262/339/305 266/343/305
f 261/338/306 263/340/306 250/327/306
f 253/353/307 252/357/307 265/342/307
f 267/344/308 261/338/308 249/326/308
f 254/331/309 260/337/309 256/354/309
f 265/342/310 252/357/310 250/355/310
f 258/356/311 253/358/311 264/341/311
f 259/336/312 272/349/312 268/345/312
f 271/348/313 266/343/313 262/339/313
g WindDancer_Guard-1.001_Mesh
v -0.884778 -0.429720 0.002526
v -0.887100 -0.425780 0.008102
v -0.905799 -0.429514 -0.003502
v -0.912472 -0.276090 0.000827
v -0.911486 -0.272150 -0.005133
v -0.931171 -0.279823 -0.010777
v -0.821933 -0.429720 -0.216642
v -0.842954 -0.429514 -0.222670
v -0.820947 -0.425780 -0.222601
v -0.848640 -0.272150 -0.224300
v -0.846319 -0.276090 -0.229876
v -0.868326 -0.279823 -0.229945
v -0.111359 -0.287849 0.224300
v -0.091673 -0.280176 0.229945
v -0.113680 -0.283910 0.229876
v -0.138066 -0.130280 0.216642
v -0.139052 -0.134219 0.222601
v -0.117045 -0.130486 0.222670
v -0.048513 -0.287849 0.005133
v -0.047527 -0.283910 -0.000827
v -0.028828 -0.280176 0.010777
v -0.075221 -0.130280 -0.002526
v -0.054200 -0.130486 0.003502
v -0.072899 -0.134219 -0.008102
vn -0.1587 -0.8363 0.5248
vn -0.4332 0.7832 0.4461
vn 0.1435 -0.8363 -0.5291
vn -0.1310 0.7832 -0.6078
vn 0.1310 -0.7832 0.6078
vn -0.1435 0.8363 0.5291
vn 0.4332 -0.7832 -0.4461
vn 0.1587 0.8363 -0.5248
vn -0.0090 -1.0000 -0.0026
vn -0.5200 -0.0467 0.8529
vn -0.3373 0.9364 -0.0967
vn 0.0110 -0.0467 -0.9988
vn 0.2918 -0.8194 -0.4934
vn 0.0140 0.8194 -0.5730
vn 0.5200 0.0467 -0.8529
vn 0.3373 -0.9364 0.0967
vn 0.0090 1.0000 0.0026
vn -0.0110 0.0467 0.9988
vn -0.0140 -0.8194 0.5730
vn -0.2918 0.8194 0.4934
vn 0.1669 -0.9848 0.0479
vn -0.9467 -0.1736 -0.2714
vn -0.2756 -0.0000 0.9613
vn -0.1669 0.9848 -0.0479
vn 0.2756 -0.0000 -0.9613
vn 0.9467 0.1736 0.2714
vt 0.131250 0.743750
vt 0.131250 0.750000
vt 0.125000 0.743750
vt 0.618750 0.000000
vt 0.625000 0.006250
vt 0.618750 0.006250
vt 0.131250 0.506250
vt 0.125000 0.506250
vt 0.131250 0.500000
vt 0.625000 0.247917
vt 0.618750 0.254688
vt 0.618750 0.243750
vt 0.368750 0.743750
vt 0.379688 0.743750
vt 0.375000 0.753125
vt 0.628125 0.750000
vt 0.618750 0.756250
vt 0.618750 0.745312
vt 0.368750 0.506250
vt 0.375000 0.496875
vt 0.379688 0.506250
vt 0.628125 0.500000
vt 0.618750 0.504688
vt 0.618750 0.493750
vt 0.381250 0.006250
vt 0.381250 0.000000
vt 0.381250 0.256250
vt 0.625000 0.993750
vt 0.381250 0.243750
vt 0.381250 0.993750
vt 0.868750 0.506250
vt 0.618750 0.993750
vt 0.868750 0.743750
s 0
g WindDancer_Guard-1.001_MAT_OldGold
usemtl MAT_OldGold
f 273/359/314 274/360/314 275/361/314
f 276/362/315 277/363/315 278/364/315
f 279/365/316 280/366/316 281/367/316
f 282/368/317 283/369/317 284/370/317
f 285/371/318 286/372/318 287/373/318
f 288/374/319 289/375/319 290/376/319
f 291/377/320 292/378/320 293/379/320
f 294/380/321 295/381/321 296/382/321
f 273/359/322 280/366/322 279/365/322
f 276/362/323 275/383/323 274/384/323
f 282/368/324 278/364/324 277/363/324
f 281/385/325 284/370/325 283/369/325
f 279/365/326 292/378/326 291/377/326
f 294/380/327 283/369/327 282/368/327
f 293/379/328 296/382/328 295/381/328
f 291/377/329 286/372/329 285/371/329
f 288/374/330 295/381/330 294/380/330
f 287/373/331 290/376/331 289/375/331
f 285/371/332 274/360/332 273/359/332
f 277/386/333 289/375/333 288/374/333
f 291/377/334 273/359/334 279/365/334
f 278/364/335 280/387/335 275/383/335
f 289/375/336 274/388/336 287/373/336
f 282/389/337 288/374/337 294/380/337
f 283/369/338 292/378/338 281/385/338
f 295/381/339 286/372/339 293/379/339
f 273/359/322 275/361/322 280/366/322
f 276/362/323 278/364/323 275/383/323
f 282/368/324 284/370/324 278/364/324
f 281/385/325 280/387/325 284/370/325
f 279/365/326 281/367/326 292/378/326
f 294/380/327 296/382/327 283/369/327
f 293/379/328 292/378/328 296/382/328
f 291/377/329 293/379/329 286/372/329
f 288/374/330 290/376/330 295/381/330
f 287/373/331 286/372/331 290/376/331
f 285/371/332 287/373/332 274/360/332
f 277/386/333 276/390/333 289/375/333
f 291/377/334 285/371/334 273/359/334
f 278/364/335 284/370/335 280/387/335
f 289/375/336 276/390/336 274/388/336
f 282/389/337 277/391/337 288/374/337
f 283/369/338 296/382/338 292/378/338
f 295/381/339 290/376/339 286/372/339
g WindDancer_Guard1.001_Mesh
v 0.111359 -0.287849 0.224300
v 0.113680 -0.283910 0.229876
v 0.091673 -0.280176 0.229945
v 0.139052 -0.134219 0.222601
v 0.138066 -0.130280 0.216642
v 0.117045 -0.130486 0.222670
v 0.048513 -0.287849 0.005133
v 0.028828 -0.280176 0.010777
v 0.047527 -0.283910 -0.000827
v 0.075221 -0.130280 -0.002526
v 0.072899 -0.134219 -0.008102
v 0.054200 -0.130486 0.003502
v 0.884778 -0.429720 0.002526
v 0.905799 -0.429514 -0.003502
v 0.887100 -0.425780 0.008102
v 0.911486 -0.272150 -0.005133
v 0.912472 -0.276090 0.000827
v 0.931171 -0.279823 -0.010777
v 0.821933 -0.429720 -0.216642
v 0.820947 -0.425780 -0.222601
v 0.842954 -0.429514 -0.222670
v 0.848640 -0.272150 -0.224300
v 0.868326 -0.279823 -0.229945
v 0.846319 -0.276090 -0.229876
vn -0.1310 -0.7832 0.6078
vn 0.1435 0.8363 0.5291
vn -0.4332 -0.7832 -0.4461
vn -0.1587 0.8363 -0.5248
vn 0.1587 -0.8363 0.5248
vn 0.4332 0.7832 0.4461
vn -0.1435 -0.8363 -0.5291
vn 0.1310 0.7832 -0.6078
vn -0.3373 -0.9364 0.0967
vn 0.0110 0.0467 0.9988
vn -0.0090 1.0000 0.0026
vn -0.5200 0.0467 -0.8529
vn -0.2918 -0.8194 -0.4934
vn -0.0140 0.8194 -0.5730
vn -0.0110 -0.0467 -0.9988
vn 0.0090 -1.0000 -0.0026
vn 0.3373 0.9364 -0.0967
vn 0.5200 -0.0467 0.8529
vn 0.0140 -0.8194 0.5730
vn 0.2918 0.8194 0.4934
vn -0.1669 -0.9848 0.0479
vn -0.9467 0.1736 0.2714
vn 0.2756 -0.0000 0.9613
vn 0.1669 0.9848 -0.0479
vn -0.2756 -0.0000 -0.9613
vn 0.9467 -0.1736 -0.2714
vt 0.131250 0.743750
vt 0.131250 0.750000
vt 0.125000 0.743750
vt 0.618750 0.000000
vt 0.625000 0.006250
vt 0.618750 0.006250
vt 0.131250 0.506250
vt 0.125000 0.506250
vt 0.131250 0.500000
vt 0.625000 0.247917
vt 0.618750 0.254688
vt 0.618750 0.243750
vt 0.368750 0.743750
vt 0.379687 0.743750
vt 0.375000 0.753125
vt 0.628125 0.750000
vt 0.618750 0.756250
vt 0.618750 0.745312
vt 0.368750 0.506250
vt 0.375000 0.496875
vt 0.379687 0.506250
vt 0.628125 0.500000
vt 0.618750 0.504688
vt 0.618750 0.493750
vt 0.381250 0.006250
vt 0.381250 0.000000
vt 0.381250 0.256250
vt 0.625000 0.993750
vt 0.381250 0.243750
vt 0.381250 0.993750
vt 0.868750 0.506250
vt 0.618750 0.993750
vt 0.868750 0.743750
s 0
g WindDancer_Guard1.001_MAT_OldGold
usemtl MAT_OldGold
f 297/392/340 298/393/340 299/394/340
f 300/395/341 301/396/341 302/397/341
f 303/398/342 304/399/342 305/400/342
f 306/401/343 307/402/343 308/403/343
f 309/404/344 310/405/344 311/406/344
f 312/407/345 313/408/345 314/409/345
f 315/410/346 316/411/346 317/412/346
f 318/413/347 319/414/347 320/415/347
f 297/392/348 304/399/348 303/398/348
f 300/395/349 299/416/349 298/417/349
f 306/401/350 302/397/350 301/396/350
f 305/418/351 308/403/351 307/402/351
f 303/398/352 316/411/352 315/410/352
f 318/413/353 307/402/353 306/401/353
f 317/412/354 320/415/354 319/414/354
f 315/410/355 310/405/355 309/404/355
f 312/407/356 319/414/356 318/413/356
f 311/406/357 314/409/357 313/408/357
f 309/404/358 298/393/358 297/392/358
f 301/419/359 313/408/359 312/407/359
f 315/410/360 297/392/360 303/398/360
f 302/397/361 304/420/361 299/416/361
f 313/408/362 298/421/362 311/406/362
f 306/422/363 312/407/363 318/413/363
f 307/402/364 316/411/364 305/418/364
f 319/414/365 310/405/365 317/412/365
f 297/392/348 299/394/348 304/399/348
f 300/395/349 302/397/349 299/416/349
f 306/401/350 308/403/350 302/397/350
f 305/418/351 304/420/351 308/403/351
f 303/398/352 305/400/352 316/411/352
f 318/413/353 320/415/353 307/402/353
f 317/412/354 316/411/354 320/415/354
f 315/410/355 317/412/355 310/405/355
f 312/407/356 314/409/356 319/414/356
f 311/406/357 310/405/357 314/409/357
f 309/404/358 311/406/358 298/393/358
f 301/419/359 300/423/359 313/408/359
f 315/410/360 309/404/360 297/392/360
f 302/397/361 308/403/361 304/420/361
f 313/408/362 300/423/362 298/421/362
f 306/422/363 301/424/363 312/407/363
f 307/402/364 320/415/364 316/411/364
f 319/414/365 314/409/365 310/405/365
