# Blender 5.2.2 LTS
# www.blender.org
mtllib x_potion.mtl
g A_Flask.001_A_Flask.001
v 0.000000 0.040000 0.000000
v 0.525000 0.021000 0.000000
v 0.262500 0.021000 -0.454663
v -0.262500 0.021000 -0.454663
v -0.525000 0.021000 -0.000000
v -0.262500 0.021000 0.454663
v 0.262500 0.021000 0.454663
v 0.609000 0.147000 0.000000
v 0.304500 0.147000 -0.527409
v -0.304500 0.147000 -0.527409
v -0.609000 0.147000 -0.000000
v -0.304500 0.147000 0.527409
v 0.304500 0.147000 0.527409
v 0.651000 0.735000 0.000000
v 0.325500 0.735000 -0.563783
v -0.325500 0.735000 -0.563783
v -0.651000 0.735000 -0.000000
v -0.180764 1.377691 -0.337907
v 0.383018 1.377691 0.012407
v -0.325500 0.735000 0.563783
v 0.325500 0.735000 0.563783
v -0.383018 1.377691 0.012407
v 0.525000 1.207500 0.000000
v 0.180764 1.377691 -0.337907
v 0.262500 1.207500 -0.454663
v -0.262500 1.207500 -0.454663
v -0.525000 1.207500 -0.000000
v -0.262500 1.207500 0.454663
v 0.262500 1.207500 0.454663
v 0.231000 1.627500 0.000000
v 0.115500 1.627500 -0.200052
v -0.115500 1.627500 -0.200052
v -0.231000 1.627500 -0.000000
v -0.115500 1.627500 0.200052
v 0.115500 1.627500 0.200052
v 0.189000 2.047500 0.000000
v 0.094500 2.047500 -0.163679
v -0.094500 2.047500 -0.163679
v -0.189000 2.047500 -0.000000
v -0.094500 2.047500 0.163679
v 0.094500 2.047500 0.163679
v 0.315000 2.152500 0.000000
v 0.157500 2.152500 -0.272798
v -0.157500 2.152500 -0.272798
v -0.315000 2.152500 -0.000000
v -0.157500 2.152500 0.272798
v 0.157500 2.152500 0.272798
v 0.315000 2.247000 0.000000
v 0.157500 2.247000 -0.272798
v -0.157500 2.247000 -0.272798
v -0.315000 2.247000 -0.000000
v -0.157500 2.247000 0.272798
v 0.157500 2.247000 0.272798
v 0.210000 2.278500 0.000000
v 0.105000 2.278500 -0.181865
v -0.105000 2.278500 -0.181865
v -0.210000 2.278500 -0.000000
v -0.105000 2.278500 0.181865
v 0.105000 2.278500 0.181865
v 0.000000 0.090044 -0.000000
v 0.490373 0.071557 0.000000
v 0.245187 0.071557 -0.424676
v -0.245187 0.071557 -0.424676
v -0.490373 0.071557 -0.000000
v -0.245187 0.071557 0.424676
v 0.245187 0.071557 0.424676
v 0.553250 0.164608 0.000000
v 0.276625 0.164608 -0.479128
v -0.276625 0.164608 -0.479128
v -0.553250 0.164608 -0.000000
v -0.276625 0.164608 0.479128
v 0.276625 0.164608 0.479128
v 0.592964 0.729761 0.000000
v 0.296482 0.729761 -0.513522
v -0.296482 0.729761 -0.513522
v -0.592964 0.729761 -0.000000
v -0.296482 0.729761 0.513522
v 0.296482 0.729761 0.513522
v 0.472746 1.184556 0.000000
v 0.236373 1.184556 -0.409410
v -0.236373 1.184556 -0.409410
v -0.472746 1.184556 -0.000000
v -0.236373 1.184556 0.409410
v 0.236373 1.184556 0.409410
v 0.176707 1.605381 0.000000
v 0.088353 1.605381 -0.153033
v -0.088353 1.605381 -0.153033
v -0.176707 1.605381 -0.000000
v -0.088353 1.605381 0.153033
v 0.088353 1.605381 0.153033
v 0.131839 2.075794 0.000000
v 0.065920 2.075794 -0.114176
v -0.065920 2.075794 -0.114176
v -0.131839 2.075794 -0.000000
v -0.065920 2.075794 0.114176
v 0.065920 2.075794 0.114176
v 0.258340 2.175741 0.000000
v 0.129170 2.175741 -0.223729
v -0.129170 2.175741 -0.223729
v -0.258340 2.175741 -0.000000
v -0.129170 2.175741 0.223729
v 0.129170 2.175741 0.223729
v 0.256970 2.211697 0.000000
v 0.128485 2.211697 -0.222543
v -0.128485 2.211697 -0.222543
v -0.256970 2.211697 -0.000000
v -0.128485 2.211697 0.222543
v 0.128485 2.211697 0.222543
v 0.195436 2.229954 0.000000
v 0.097718 2.229954 -0.169253
v -0.097718 2.229954 -0.169253
v -0.195436 2.229954 -0.000000
v -0.097718 2.229954 0.169253
v 0.097718 2.229954 0.169253
v 0.424082 1.223301 -0.155638
v 0.203272 1.377691 -0.350902
v 0.202494 1.378946 -0.350730
v 0.346827 1.223301 -0.289446
v 0.187928 1.420564 -0.325500
v 0.404988 1.378946 0.000000
v 0.405527 1.377691 -0.000588
v 0.375855 1.420564 0.000000
v 0.179082 1.395292 -0.340821
v 0.384700 1.395292 0.015321
v 0.360590 1.322288 -0.026439
v 0.372745 1.223301 -0.125999
v 0.284897 1.234662 -0.264312
v 0.295490 1.223301 -0.259807
v 0.203192 1.322288 -0.299061
v -0.179082 1.395292 -0.340821
v -0.202494 1.378946 -0.350730
v -0.187928 1.420564 -0.325500
v -0.405527 1.377691 -0.000588
v -0.404988 1.378946 -0.000000
v -0.375855 1.420564 -0.000000
v -0.346827 1.223301 -0.289446
v -0.424082 1.223301 -0.155638
v -0.203272 1.377691 -0.350902
v -0.384700 1.395292 0.015321
v -0.203192 1.322288 -0.299061
v -0.360590 1.322288 -0.026439
v -0.372745 1.223301 -0.125999
v -0.371350 1.234662 -0.114572
v -0.295490 1.223301 -0.259807
vn -0.0362 -0.9991 0.0209
vn -0.0000 -0.9991 0.0418
vn 0.0362 -0.9991 0.0209
vn 0.0362 -0.9991 -0.0209
vn -0.0000 -0.9991 -0.0418
vn -0.0362 -0.9991 -0.0209
vn 0.7500 -0.5000 -0.4330
vn -0.0000 -0.5000 -0.8660
vn -0.7500 -0.5000 -0.4330
vn -0.7500 -0.5000 0.4330
vn -0.0000 -0.5000 0.8660
vn 0.7500 -0.5000 0.4330
vn 0.8644 -0.0617 -0.4990
vn -0.0000 -0.0617 -0.9981
vn -0.8644 -0.0617 -0.4990
vn -0.8644 -0.0617 0.4990
vn -0.0000 -0.0617 0.9981
vn 0.8644 -0.0617 0.4990
vn 0.8438 0.2250 -0.4872
vn -0.0000 0.2250 -0.9744
vn -0.8438 0.2250 -0.4872
vn -0.8438 0.2250 0.4872
vn -0.0000 0.2250 0.9744
vn 0.8438 0.2250 0.4872
vn 0.7406 0.5184 -0.4276
vn -0.0000 0.5184 -0.8551
vn -0.7406 0.5184 -0.4276
vn -0.7406 0.5184 0.4276
vn -0.0000 0.5184 0.8551
vn 0.7406 0.5184 0.4276
vn 0.8628 0.0863 -0.4981
vn -0.0000 0.0863 -0.9963
vn -0.8628 0.0863 -0.4981
vn -0.8628 0.0863 0.4981
vn -0.0000 0.0863 0.9963
vn 0.8628 0.0863 0.4981
vn 0.6005 -0.7206 -0.3467
vn -0.0000 -0.7206 -0.6934
vn -0.6005 -0.7206 -0.3467
vn -0.6005 -0.7206 0.3467
vn -0.0000 -0.7206 0.6934
vn 0.6005 -0.7206 0.3467
vn 0.8660 -0.0000 -0.5000
vn -0.0000 -0.0000 -1.0000
vn -0.8660 -0.0000 -0.5000
vn -0.8660 -0.0000 0.5000
vn -0.0000 -0.0000 1.0000
vn 0.8660 -0.0000 0.5000
vn 0.2835 0.9449 -0.1637
vn -0.0000 0.9449 -0.3273
vn -0.2835 0.9449 -0.1637
vn -0.2835 0.9449 0.1637
vn -0.0000 0.9449 0.3273
vn 0.2835 0.9449 0.1637
vn 0.0377 0.9991 -0.0217
vn -0.0000 0.9991 -0.0435
vn -0.0377 0.9991 -0.0217
vn -0.0377 0.9991 0.0217
vn -0.0000 0.9991 0.0435
vn 0.0377 0.9991 0.0217
vn -0.7474 0.5051 0.4315
vn -0.0000 0.5051 0.8631
vn 0.7474 0.5051 0.4315
vn 0.7474 0.5051 -0.4315
vn -0.0000 0.5051 -0.8631
vn -0.7474 0.5051 -0.4315
vn -0.8644 0.0607 0.4991
vn -0.0000 0.0607 0.9982
vn 0.8644 0.0607 0.4991
vn 0.8644 0.0607 -0.4991
vn -0.0000 0.0607 -0.9982
vn -0.8644 0.0607 -0.4991
vn -0.8442 -0.2231 0.4874
vn -0.0000 -0.2231 0.9748
vn 0.8442 -0.2231 0.4874
vn 0.8442 -0.2231 -0.4874
vn -0.0000 -0.2231 -0.9748
vn -0.8442 -0.2231 -0.4874
vn -0.7396 -0.5203 0.4270
vn -0.0000 -0.5203 0.8540
vn 0.7396 -0.5203 0.4270
vn 0.7396 -0.5203 -0.4270
vn -0.0000 -0.5203 -0.8540
vn -0.7396 -0.5203 -0.4270
vn -0.8631 -0.0823 0.4983
vn -0.0000 -0.0823 0.9966
vn 0.8631 -0.0823 0.4983
vn 0.8631 -0.0823 -0.4983
vn -0.0000 -0.0823 -0.9966
vn -0.8631 -0.0823 -0.4983
vn -0.5837 0.7388 0.3370
vn -0.0000 0.7388 0.6740
vn 0.5837 0.7388 0.3370
vn 0.5837 0.7388 -0.3370
vn -0.0000 0.7388 -0.6740
vn -0.5837 0.7388 -0.3370
vn -0.8656 -0.0330 0.4997
vn -0.0000 -0.0330 0.9995
vn 0.8656 -0.0330 0.4997
vn 0.8656 -0.0330 -0.4997
vn -0.0000 -0.0330 -0.9995
vn -0.8656 -0.0330 -0.4997
vn -0.2807 -0.9460 0.1621
vn -0.0000 -0.9460 0.3241
vn 0.2807 -0.9460 0.1621
vn 0.2807 -0.9460 -0.1621
vn -0.0000 -0.9460 -0.3241
vn -0.2807 -0.9460 -0.1621
vn -0.8382 0.2515 0.4839
vn -0.0000 0.2515 0.9679
vn 0.8382 0.2515 0.4839
vn 0.8382 0.2515 -0.4839
vn -0.0000 0.2515 -0.9679
vn -0.8382 0.2515 -0.4839
vn -0.4911 0.1877 -0.8506
vn -0.3886 0.6293 -0.6731
vn -0.0000 1.0000 -0.0000
vn 0.3886 0.6293 0.6731
vn 0.4911 0.1877 0.8506
vn -0.4911 0.1877 0.8506
vn -0.3886 0.6293 0.6731
vn 0.3886 0.6293 -0.6731
vn 0.4911 0.1877 -0.8506
vn 0.7405 0.5184 -0.4277
vn 0.7406 0.5184 -0.4275
vn -0.7407 0.5183 -0.4275
vn -0.7406 0.5184 -0.4275
vn 0.4912 0.1878 0.8506
vn -0.4912 0.1877 0.8506
s 0
g A_Flask.001_x_potion_glass
usemtl x_potion_glass
f 1//1 3//1 2//1
f 1//2 4//2 3//2
f 1//3 5//3 4//3
f 1//4 6//4 5//4
f 1//5 7//5 6//5
f 1//6 2//6 7//6
f 2//7 9//7 8//7
f 4//8 9//8 3//8
f 5//9 10//9 4//9
f 5//10 12//10 11//10
f 7//11 12//11 6//11
f 2//12 13//12 7//12
f 9//13 14//13 8//13
f 10//14 15//14 9//14
f 11//15 16//15 10//15
f 12//16 17//16 11//16
f 13//17 20//17 12//17
f 8//18 21//18 13//18
f 15//19 23//19 14//19
f 16//20 25//20 15//20
f 17//21 26//21 16//21
f 20//22 27//22 17//22
f 21//23 28//23 20//23
f 14//24 29//24 21//24
f 31//25 122//25 119//25
f 23//25 25//25 115//25
f 123//26 26//26 130//26
f 33//27 132//27 135//27
f 26//27 27//27 136//27
f 28//28 33//28 139//28
f 29//29 34//29 28//29
f 124//30 29//30 120//30
f 31//31 36//31 30//31
f 32//32 37//32 31//32
f 33//33 38//33 32//33
f 34//34 39//34 33//34
f 35//35 40//35 34//35
f 30//36 41//36 35//36
f 37//37 42//37 36//37
f 38//38 43//38 37//38
f 39//39 44//39 38//39
f 40//40 45//40 39//40
f 41//41 46//41 40//41
f 36//42 47//42 41//42
f 43//43 48//43 42//43
f 44//44 49//44 43//44
f 45//45 50//45 44//45
f 46//46 51//46 45//46
f 47//47 52//47 46//47
f 42//48 53//48 47//48
f 49//49 54//49 48//49
f 50//50 55//50 49//50
f 51//51 56//51 50//51
f 52//52 57//52 51//52
f 53//53 58//53 52//53
f 48//54 59//54 53//54
f 60//55 61//55 62//55
f 60//56 62//56 63//56
f 60//57 63//57 64//57
f 60//58 64//58 65//58
f 60//59 65//59 66//59
f 60//60 66//60 61//60
f 61//61 68//61 62//61
f 68//62 63//62 62//62
f 69//63 64//63 63//63
f 64//64 71//64 65//64
f 71//65 66//65 65//65
f 72//66 61//66 66//66
f 73//67 68//67 67//67
f 74//68 69//68 68//68
f 69//69 76//69 70//69
f 76//70 71//70 70//70
f 77//71 72//71 71//71
f 72//72 73//72 67//72
f 79//73 74//73 73//73
f 80//74 75//74 74//74
f 81//75 76//75 75//75
f 82//76 77//76 76//76
f 83//77 78//77 77//77
f 84//78 73//78 78//78
f 85//79 86//79 129//79
f 128//79 80//79 126//79
f 86//80 81//80 80//80
f 142//81 82//81 144//81
f 87//81 88//81 140//81
f 88//82 83//82 82//82
f 89//83 84//83 83//83
f 90//84 79//84 84//84
f 91//85 86//85 85//85
f 92//86 87//86 86//86
f 93//87 88//87 87//87
f 94//88 89//88 88//88
f 95//89 90//89 89//89
f 96//90 85//90 90//90
f 97//91 92//91 91//91
f 98//92 93//92 92//92
f 99//93 94//93 93//93
f 100//94 95//94 94//94
f 101//95 96//95 95//95
f 102//96 91//96 96//96
f 103//97 98//97 97//97
f 104//98 99//98 98//98
f 105//99 100//99 99//99
f 106//100 101//100 100//100
f 107//101 102//101 101//101
f 108//102 97//102 102//102
f 109//103 104//103 103//103
f 110//104 105//104 104//104
f 105//105 112//105 106//105
f 112//106 107//106 106//106
f 113//107 108//107 107//107
f 108//108 109//108 103//108
f 55//109 109//109 54//109
f 56//110 110//110 55//110
f 56//111 112//111 111//111
f 58//112 112//112 57//112
f 59//113 113//113 58//113
f 59//114 109//114 114//114
f 120//115 19//115 124//115
f 125//116 121//116 115//116
f 126//117 118//117 128//117
f 118//118 24//118 127//118
f 24//119 117//119 123//119
f 123//43 122//43 19//43
f 131//120 18//120 130//120
f 144//121 18//121 138//121
f 137//117 144//117 136//117
f 137//122 22//122 143//122
f 22//123 134//123 139//123
f 141//45 139//45 132//45
f 2//7 3//7 9//7
f 4//8 10//8 9//8
f 5//9 11//9 10//9
f 5//10 6//10 12//10
f 7//11 13//11 12//11
f 2//12 8//12 13//12
f 9//13 15//13 14//13
f 10//14 16//14 15//14
f 11//15 17//15 16//15
f 12//16 20//16 17//16
f 13//17 21//17 20//17
f 8//18 14//18 21//18
f 15//19 25//19 23//19
f 16//20 26//20 25//20
f 17//21 27//21 26//21
f 20//22 28//22 27//22
f 21//23 29//23 28//23
f 14//24 23//24 29//24
f 31//25 30//25 122//25
f 121//124 120//124 23//124
f 25//125 117//125 116//125
f 25//25 116//25 118//25
f 115//25 121//25 23//25
f 25//25 118//25 115//25
f 130//26 132//26 32//26
f 32//26 31//26 119//26
f 123//26 117//26 25//26
f 32//26 119//26 123//26
f 26//26 131//26 130//26
f 130//26 32//26 123//26
f 123//26 25//26 26//26
f 33//27 32//27 132//27
f 138//126 131//126 26//126
f 27//127 134//127 133//127
f 27//27 133//27 137//27
f 136//27 138//27 26//27
f 27//27 137//27 136//27
f 134//28 27//28 28//28
f 28//28 34//28 33//28
f 33//28 135//28 139//28
f 139//28 134//28 28//28
f 29//29 35//29 34//29
f 124//30 122//30 30//30
f 30//30 35//30 29//30
f 29//30 23//30 120//30
f 124//30 30//30 29//30
f 31//31 37//31 36//31
f 32//32 38//32 37//32
f 33//33 39//33 38//33
f 34//34 40//34 39//34
f 35//35 41//35 40//35
f 30//36 36//36 41//36
f 37//37 43//37 42//37
f 38//38 44//38 43//38
f 39//39 45//39 44//39
f 40//40 46//40 45//40
f 41//41 47//41 46//41
f 36//42 42//42 47//42
f 43//43 49//43 48//43
f 44//44 50//44 49//44
f 45//45 51//45 50//45
f 46//46 52//46 51//46
f 47//47 53//47 52//47
f 42//48 48//48 53//48
f 49//49 55//49 54//49
f 50//50 56//50 55//50
f 51//51 57//51 56//51
f 52//52 58//52 57//52
f 53//53 59//53 58//53
f 48//54 54//54 59//54
f 61//61 67//61 68//61
f 68//62 69//62 63//62
f 69//63 70//63 64//63
f 64//64 70//64 71//64
f 71//65 72//65 66//65
f 72//66 67//66 61//66
f 73//67 74//67 68//67
f 74//68 75//68 69//68
f 69//69 75//69 76//69
f 76//70 77//70 71//70
f 77//71 78//71 72//71
f 72//72 78//72 73//72
f 79//73 80//73 74//73
f 80//74 81//74 75//74
f 81//75 82//75 76//75
f 82//76 83//76 77//76
f 83//77 84//77 78//77
f 84//78 79//78 73//78
f 125//79 126//79 79//79
f 80//79 127//79 129//79
f 125//79 79//79 85//79
f 86//79 80//79 129//79
f 129//79 125//79 85//79
f 128//79 127//79 80//79
f 80//79 79//79 126//79
f 86//80 87//80 81//80
f 142//81 143//81 82//81
f 82//81 81//81 144//81
f 82//81 143//81 141//81
f 140//81 144//81 81//81
f 88//81 82//81 141//81
f 140//81 81//81 87//81
f 88//81 141//81 140//81
f 88//82 89//82 83//82
f 89//83 90//83 84//83
f 90//84 85//84 79//84
f 91//85 92//85 86//85
f 92//86 93//86 87//86
f 93//87 94//87 88//87
f 94//88 95//88 89//88
f 95//89 96//89 90//89
f 96//90 91//90 85//90
f 97//91 98//91 92//91
f 98//92 99//92 93//92
f 99//93 100//93 94//93
f 100//94 101//94 95//94
f 101//95 102//95 96//95
f 102//96 97//96 91//96
f 103//97 104//97 98//97
f 104//98 105//98 99//98
f 105//99 106//99 100//99
f 106//100 107//100 101//100
f 107//101 108//101 102//101
f 108//102 103//102 97//102
f 109//103 110//103 104//103
f 110//104 111//104 105//104
f 105//105 111//105 112//105
f 112//106 113//106 107//106
f 113//107 114//107 108//107
f 108//108 114//108 109//108
f 55//109 110//109 109//109
f 56//110 111//110 110//110
f 56//111 57//111 112//111
f 58//112 113//112 112//112
f 59//113 114//113 113//113
f 59//114 54//114 109//114
f 120//115 121//115 19//115
f 115//116 126//116 125//116
f 125//116 19//116 121//116
f 126//117 115//117 118//117
f 127//118 128//118 118//118
f 118//118 116//118 24//118
f 24//118 129//118 127//118
f 24//128 116//128 117//128
f 19//43 125//43 129//43
f 129//43 24//43 123//43
f 123//43 119//43 122//43
f 122//43 124//43 19//43
f 19//43 129//43 123//43
f 131//129 138//129 18//129
f 138//121 136//121 144//121
f 144//121 140//121 18//121
f 137//117 142//117 144//117
f 143//122 142//122 137//122
f 137//122 133//122 22//122
f 22//122 141//122 143//122
f 22//123 133//123 134//123
f 132//45 130//45 18//45
f 18//45 140//45 141//45
f 141//45 22//45 139//45
f 139//45 135//45 132//45
f 132//45 18//45 141//45
g A_Liquid.001_A_Liquid.001
v 0.000000 0.140000 0.000000
v 0.499000 0.147000 0.000000
v 0.249500 0.147000 -0.432147
v -0.249500 0.147000 -0.432147
v -0.499000 0.147000 -0.000000
v -0.249500 0.147000 0.432147
v 0.249500 0.147000 0.432147
v 0.541000 0.735000 0.000000
v 0.270500 0.735000 -0.468520
v -0.270500 0.735000 -0.468520
v -0.541000 0.735000 -0.000000
v -0.270500 0.735000 0.468520
v 0.270500 0.735000 0.468520
v 0.415000 1.207500 0.000000
v 0.207500 1.207500 -0.359401
v -0.207500 1.207500 -0.359401
v -0.415000 1.207500 -0.000000
v -0.207500 1.207500 0.359401
v 0.207500 1.207500 0.359401
v 0.290500 1.452670 0.000000
v 0.145250 1.452670 -0.251580
v -0.145250 1.452670 -0.251580
v -0.290500 1.452670 -0.000000
v -0.145250 1.452670 0.251580
v 0.145250 1.452670 0.251580
v 0.000000 1.482670 0.000000
vn 0.0140 -0.9999 -0.0081
vn -0.0000 -0.9999 -0.0162
vn -0.0140 -0.9999 -0.0081
vn -0.0140 -0.9999 0.0081
vn -0.0000 -0.9999 0.0162
vn 0.0140 -0.9999 0.0081
vn 0.8644 -0.0617 -0.4990
vn -0.0000 -0.0617 -0.9981
vn -0.8644 -0.0617 -0.4990
vn -0.8644 -0.0617 0.4990
vn -0.0000 -0.0617 0.9981
vn 0.8644 -0.0617 0.4990
vn 0.8438 0.2250 -0.4872
vn -0.0000 0.2250 -0.9744
vn -0.8438 0.2250 -0.4872
vn -0.8438 0.2250 0.4872
vn -0.0000 0.2250 0.9744
vn 0.8438 0.2250 0.4872
vn 0.7928 0.4026 -0.4577
vn -0.0000 0.4026 -0.9154
vn -0.7928 0.4026 -0.4577
vn -0.7928 0.4026 0.4577
vn -0.0000 0.4026 0.9154
vn 0.7928 0.4026 0.4577
vn 0.1025 0.9930 -0.0592
vn -0.0000 0.9930 -0.1184
vn -0.1025 0.9930 -0.0592
vn -0.1025 0.9930 0.0592
vn -0.0000 0.9930 0.1184
vn 0.1025 0.9930 0.0592
s 0
g A_Liquid.001_x_potion_liquid
usemtl x_potion_liquid
f 145//130 147//130 146//130
f 145//131 148//131 147//131
f 145//132 149//132 148//132
f 145//133 150//133 149//133
f 145//134 151//134 150//134
f 145//135 146//135 151//135
f 146//136 153//136 152//136
f 147//137 154//137 153//137
f 148//138 155//138 154//138
f 149//139 156//139 155//139
f 150//140 157//140 156//140
f 151//141 152//141 157//141
f 153//142 158//142 152//142
f 154//143 159//143 153//143
f 155//144 160//144 154//144
f 156//145 161//145 155//145
f 157//146 162//146 156//146
f 152//147 163//147 157//147
f 158//148 165//148 164//148
f 160//149 165//149 159//149
f 161//150 166//150 160//150
f 161//151 168//151 167//151
f 163//152 168//152 162//152
f 158//153 169//153 163//153
f 164//154 165//154 170//154
f 165//155 166//155 170//155
f 166//156 167//156 170//156
f 167//157 168//157 170//157
f 168//158 169//158 170//158
f 169//159 164//159 170//159
f 146//136 147//136 153//136
f 147//137 148//137 154//137
f 148//138 149//138 155//138
f 149//139 150//139 156//139
f 150//140 151//140 157//140
f 151//141 146//141 152//141
f 153//142 159//142 158//142
f 154//143 160//143 159//143
f 155//144 161//144 160//144
f 156//145 162//145 161//145
f 157//146 163//146 162//146
f 152//147 158//147 163//147
f 158//148 159//148 165//148
f 160//149 166//149 165//149
f 161//150 167//150 166//150
f 161//151 162//151 168//151
f 163//152 169//152 168//152
f 158//153 164//153 169//153
g C_Label.001_C_Label.001
v -0.340000 1.187500 0.673450
v 0.340000 1.187500 0.673450
v 0.340000 1.587500 0.673450
v -0.340000 1.587500 0.673450
v -0.340000 1.187500 0.643450
v 0.340000 1.187500 0.643450
v 0.340000 1.587500 0.643450
v -0.340000 1.587500 0.643450
vn -0.0000 -0.0000 1.0000
vn -0.0000 -0.0000 -1.0000
vn -1.0000 -0.0000 -0.0000
vn -0.0000 -1.0000 -0.0000
vn 1.0000 -0.0000 -0.0000
vn -0.0000 1.0000 -0.0000
vt 1.000000 0.000000
vt 0.000000 1.000000
vt 0.000000 0.000000
vt 1.000000 1.000000
s 0
g C_Label.001_x_potion_label
usemtl x_potion_label
f 172/1/160 174/2/160 171/3/160
f 178/2/161 176/1/161 175/3/161
f 174/2/162 175/3/162 171/3/162
f 171/3/163 176/1/163 172/1/163
f 172/1/164 177/4/164 173/4/164
f 173/4/165 178/2/165 174/2/165
f 172/1/160 173/4/160 174/2/160
f 178/2/161 177/4/161 176/1/161
f 174/2/162 178/2/162 175/3/162
f 171/3/163 175/3/163 176/1/163
f 172/1/164 176/1/164 177/4/164
f 173/4/165 177/4/165 178/2/165
g S_Stopper.001_S_Stopper.001
v 0.000000 2.238500 0.000000
v 0.105000 2.238500 0.000000
v 0.074246 2.238500 -0.074246
v 0.000000 2.238500 -0.105000
v -0.074246 2.238500 -0.074246
v -0.105000 2.238500 -0.000000
v -0.074246 2.238500 0.074246
v -0.000000 2.238500 0.105000
v 0.074246 2.238500 0.074246
v 0.147000 2.364500 0.000000
v 0.103945 2.364500 -0.103945
v 0.000000 2.364500 -0.147000
v -0.103945 2.364500 -0.103945
v -0.147000 2.364500 -0.000000
v -0.103945 2.364500 0.103945
v -0.000000 2.364500 0.147000
v 0.103945 2.364500 0.103945
v 0.181865 2.406500 0.000000
v 0.128598 2.406500 -0.128598
v 0.000000 2.406500 -0.181865
v -0.128598 2.406500 -0.128598
v -0.181865 2.406500 -0.000000
v -0.128598 2.406500 0.128598
v -0.000000 2.406500 0.181865
v 0.128598 2.406500 0.128598
v 0.210000 2.511500 0.000000
v 0.148492 2.511500 -0.148492
v 0.000000 2.511500 -0.210000
v -0.148492 2.511500 -0.148492
v -0.210000 2.511500 -0.000000
v -0.148492 2.511500 0.148492
v -0.000000 2.511500 0.210000
v 0.148492 2.511500 0.148492
v 0.181865 2.616500 0.000000
v 0.128598 2.616500 -0.128598
v 0.000000 2.616500 -0.181865
v -0.128598 2.616500 -0.128598
v -0.181865 2.616500 -0.000000
v -0.128598 2.616500 0.128598
v -0.000000 2.616500 0.181865
v 0.128598 2.616500 0.128598
v 0.105000 2.693366 0.000000
v 0.074246 2.693366 -0.074246
v 0.000000 2.693366 -0.105000
v -0.074246 2.693366 -0.074246
v -0.105000 2.693366 -0.000000
v -0.074246 2.693366 0.074246
v -0.000000 2.693366 0.105000
v 0.074246 2.693366 0.074246
v 0.000000 2.721500 0.000000
v 0.000000 2.721500 0.000000
vn -0.0000 -1.0000 -0.0000
vn 0.8830 -0.2943 -0.3657
vn 0.3657 -0.2943 -0.8830
vn -0.3657 -0.2943 -0.8830
vn -0.8830 -0.2943 -0.3657
vn -0.8830 -0.2943 0.3657
vn -0.3657 -0.2943 0.8830
vn 0.3657 -0.2943 0.8830
vn 0.8830 -0.2943 0.3657
vn 0.7331 -0.6086 -0.3037
vn 0.3037 -0.6086 -0.7331
vn -0.3037 -0.6086 -0.7331
vn -0.7331 -0.6086 -0.3037
vn -0.7331 -0.6086 0.3037
vn -0.3037 -0.6086 0.7331
vn 0.3037 -0.6086 0.7331
vn 0.7331 -0.6086 0.3037
vn 0.8968 -0.2403 -0.3715
vn 0.3715 -0.2403 -0.8968
vn -0.3715 -0.2403 -0.8968
vn -0.8968 -0.2403 -0.3715
vn -0.8968 -0.2403 0.3715
vn -0.3715 -0.2403 0.8968
vn 0.3715 -0.2403 0.8968
vn 0.8968 -0.2403 0.3715
vn 0.8968 0.2403 -0.3715
vn 0.3715 0.2403 -0.8968
vn -0.3715 0.2403 -0.8968
vn -0.8968 0.2403 -0.3715
vn -0.8968 0.2403 0.3715
vn -0.3715 0.2403 0.8968
vn 0.3715 0.2403 0.8968
vn 0.8968 0.2403 0.3715
vn 0.6786 0.6786 -0.2811
vn 0.2811 0.6786 -0.6786
vn -0.2811 0.6786 -0.6786
vn -0.6786 0.6786 -0.2811
vn -0.6786 0.6786 0.2811
vn -0.2811 0.6786 0.6786
vn 0.2811 0.6786 0.6786
vn 0.6786 0.6786 0.2811
vn 0.2573 0.9604 -0.1066
vn 0.1066 0.9604 -0.2573
vn -0.1066 0.9604 -0.2573
vn -0.2573 0.9604 -0.1066
vn -0.2573 0.9604 0.1066
vn -0.1066 0.9604 0.2573
vn 0.1066 0.9604 0.2573
vn 0.2573 0.9604 0.1066
s 0
g S_Stopper.001_x_potion_stopper
usemtl x_potion_stopper
f 179//166 181//166 180//166
f 179//166 182//166 181//166
f 179//166 183//166 182//166
f 179//166 184//166 183//166
f 179//166 185//166 184//166
f 179//166 186//166 185//166
f 179//166 187//166 186//166
f 179//166 180//166 187//166
f 181//167 188//167 180//167
f 182//168 189//168 181//168
f 183//169 190//169 182//169
f 184//170 191//170 183//170
f 185//171 192//171 184//171
f 186//172 193//172 185//172
f 187//173 194//173 186//173
f 180//174 195//174 187//174
f 189//175 196//175 188//175
f 189//176 198//176 197//176
f 191//177 198//177 190//177
f 191//178 200//178 199//178
f 193//179 200//179 192//179
f 193//180 202//180 201//180
f 195//181 202//181 194//181
f 195//182 196//182 203//182
f 197//183 204//183 196//183
f 198//184 205//184 197//184
f 199//185 206//185 198//185
f 200//186 207//186 199//186
f 201//187 208//187 200//187
f 202//188 209//188 201//188
f 203//189 210//189 202//189
f 196//190 211//190 203//190
f 205//191 212//191 204//191
f 206//192 213//192 205//192
f 207//193 214//193 206//193
f 208//194 215//194 207//194
f 209//195 216//195 208//195
f 210//196 217//196 209//196
f 211//197 218//197 210//197
f 204//198 219//198 211//198
f 213//199 220//199 212//199
f 214//200 221//200 213//200
f 215//201 222//201 214//201
f 216//202 223//202 215//202
f 217//203 224//203 216//203
f 218//204 225//204 217//204
f 219//205 226//205 218//205
f 212//206 227//206 219//206
f 220//207 221//207 228//207
f 221//208 222//208 228//208
f 222//209 223//209 228//209
f 223//210 224//210 228//210
f 224//211 225//211 228//211
f 225//212 226//212 228//212
f 226//213 227//213 228//213
f 227//214 220//214 228//214
f 181//167 189//167 188//167
f 182//168 190//168 189//168
f 183//169 191//169 190//169
f 184//170 192//170 191//170
f 185//171 193//171 192//171
f 186//172 194//172 193//172
f 187//173 195//173 194//173
f 180//174 188//174 195//174
f 189//175 197//175 196//175
f 189//176 190//176 198//176
f 191//177 199//177 198//177
f 191//178 192//178 200//178
f 193//179 201//179 200//179
f 193//180 194//180 202//180
f 195//181 203//181 202//181
f 195//182 188//182 196//182
f 197//183 205//183 204//183
f 198//184 206//184 205//184
f 199//185 207//185 206//185
f 200//186 208//186 207//186
f 201//187 209//187 208//187
f 202//188 210//188 209//188
f 203//189 211//189 210//189
f 196//190 204//190 211//190
f 205//191 213//191 212//191
f 206//192 214//192 213//192
f 207//193 215//193 214//193
f 208//194 216//194 215//194
f 209//195 217//195 216//195
f 210//196 218//196 217//196
f 211//197 219//197 218//197
f 204//198 212//198 219//198
f 213//199 221//199 220//199
f 214//200 222//200 221//200
f 215//201 223//201 222//201
f 216//202 224//202 223//202
f 217//203 225//203 224//203
f 218//204 226//204 225//204
f 219//205 227//205 226//205
f 212//206 220//206 227//206
