# Blender 5.1.2
# www.blender.org
mtllib environment.mtl
g RND_Environment_Mesh_Mesh
v 5.750000 -1.600000 5.500000
v 5.750000 -1.500000 5.500000
v 5.750000 -1.600000 -16.500000
v 5.750000 -1.500000 -16.500000
v 11.250000 -1.600000 5.500000
v 11.250000 -1.500000 5.500000
v 11.250000 -1.600000 -16.500000
v 11.250000 -1.500000 -16.500000
v 11.000000 -1.500000 5.500000
v 11.000000 4.500000 5.500000
v 11.000000 -1.500000 -16.500000
v 11.000000 4.500000 -16.500000
v 12.000000 -1.500000 5.500000
v 12.000000 4.500000 5.500000
v 12.000000 -1.500000 -16.500000
v 12.000000 4.500000 -16.500000
v 9.050000 -1.500000 0.500000
v 9.050000 3.500000 0.500000
v 9.050000 -1.500000 -3.500000
v 9.050000 3.500000 -3.500000
v 12.550000 -1.500000 0.500000
v 12.550000 3.500000 0.500000
v 12.550000 -1.500000 -3.500000
v 12.550000 3.500000 -3.500000
v 9.200000 -1.500000 -2.900000
v 9.200000 4.300000 -2.900000
v 9.200000 -1.500000 -8.100000
v 9.200000 4.300000 -8.100000
v 12.800000 -1.500000 -2.900000
v 12.800000 4.300000 -2.900000
v 12.800000 -1.500000 -8.100000
v 12.800000 4.300000 -8.100000
v 8.950000 -1.500000 -7.800000
v 8.950000 3.300000 -7.800000
v 8.950000 -1.500000 -11.800000
v 8.950000 3.300000 -11.800000
v 12.450000 -1.500000 -7.800000
v 12.450000 3.300000 -7.800000
v 12.450000 -1.500000 -11.800000
v 12.450000 3.300000 -11.800000
v 5.900000 -1.500000 -1.300000
v 5.900000 3.000000 -1.300000
v 5.900000 -1.500000 -2.300000
v 5.900000 3.000000 -2.300000
v 6.900000 -1.500000 -1.300000
v 6.900000 3.000000 -1.300000
v 6.900000 -1.500000 -2.300000
v 6.900000 3.000000 -2.300000
v 6.225000 -1.500000 -9.025000
v 6.225000 1.200000 -9.025000
v 6.225000 -1.500000 -9.375000
v 6.225000 1.200000 -9.375000
v 6.575000 -1.500000 -9.025000
v 6.575000 1.200000 -9.025000
v 6.575000 -1.500000 -9.375000
v 6.575000 1.200000 -9.375000
vn -1.0000 -0.0000 -0.0000
vn -0.0000 -0.0000 -1.0000
vn 1.0000 -0.0000 -0.0000
vn -0.0000 -0.0000 1.0000
vn -0.0000 -1.0000 -0.0000
vn -0.0000 1.0000 -0.0000
vt 0.961764 0.914627
vt 0.965876 0.010004
vt 0.965876 0.914627
vt 0.961764 0.010004
vt 0.985884 0.914627
vt 0.989996 0.010004
vt 0.989996 0.914627
vt 0.010004 0.914627
vt 0.256720 0.010004
vt 0.256719 0.914627
vt 0.010004 0.010004
vt 0.276727 0.914627
vt 0.523443 0.010004
vt 0.523443 0.914627
vt 0.543451 0.527003
vt 0.707928 0.732599
vt 0.543451 0.732599
vt 0.707928 0.527003
vt 0.727936 0.527003
vt 0.892413 0.732599
vt 0.727936 0.732599
vt 0.543451 0.010004
vt 0.757271 0.248496
vt 0.543451 0.248496
vt 0.757271 0.010004
vt 0.543451 0.268504
vt 0.757271 0.506995
vt 0.543451 0.506995
vt 0.777279 0.010004
vt 0.941756 0.207376
vt 0.777279 0.207376
vt 0.941756 0.010004
vt 0.777279 0.227384
vt 0.941756 0.424757
vt 0.777279 0.424757
vt 0.543451 0.752607
vt 0.584570 0.937644
vt 0.543451 0.937644
vt 0.584570 0.752607
vt 0.604578 0.752607
vt 0.645697 0.937644
vt 0.604578 0.937644
vt 0.665706 0.752607
vt 0.680097 0.863629
vt 0.665706 0.863629
vt 0.680097 0.752607
vt 0.700105 0.752607
vt 0.714497 0.863629
vt 0.700105 0.863629
vt 0.985884 0.010004
vt 0.276728 0.010004
vt 0.892413 0.527003
vt 0.757271 0.268504
vt 0.941756 0.227384
vt 0.645697 0.752607
vt 0.714497 0.752607
s 0
g RND_Environment_Mesh_EnvironmentBakedAtlas
usemtl EnvironmentBakedAtlas
f 2/1/1 3/2/1 1/3/1
f 4/4/2 7/2/2 3/2/2
f 8/5/3 5/6/3 7/7/3
f 6/1/4 1/3/4 5/3/4
f 7/2/5 1/3/5 3/2/5
f 4/4/6 6/1/6 8/4/6
f 10/8/1 11/9/1 9/10/1
f 12/11/2 15/9/2 11/9/2
f 16/12/3 13/13/3 15/14/3
f 14/8/4 9/10/4 13/10/4
f 15/9/5 9/10/5 11/9/5
f 12/11/6 14/8/6 16/11/6
f 18/15/1 19/16/1 17/17/1
f 20/18/2 23/16/2 19/16/2
f 24/19/3 21/20/3 23/21/3
f 22/15/4 17/17/4 21/17/4
f 23/16/5 17/17/5 19/16/5
f 20/18/6 22/15/6 24/18/6
f 26/22/1 27/23/1 25/24/1
f 28/25/2 31/23/2 27/23/2
f 32/26/3 29/27/3 31/28/3
f 30/22/4 25/24/4 29/24/4
f 31/23/5 25/24/5 27/23/5
f 28/25/6 30/22/6 32/25/6
f 34/29/1 35/30/1 33/31/1
f 36/32/2 39/30/2 35/30/2
f 40/33/3 37/34/3 39/35/3
f 38/29/4 33/31/4 37/31/4
f 39/30/5 33/31/5 35/30/5
f 36/32/6 38/29/6 40/32/6
f 42/36/1 43/37/1 41/38/1
f 44/39/2 47/37/2 43/37/2
f 48/40/3 45/41/3 47/42/3
f 46/36/4 41/38/4 45/38/4
f 47/37/5 41/38/5 43/37/5
f 44/39/6 46/36/6 48/39/6
f 50/43/1 51/44/1 49/45/1
f 52/46/2 55/44/2 51/44/2
f 56/47/3 53/48/3 55/49/3
f 54/43/4 49/45/4 53/45/4
f 55/44/5 49/45/5 51/44/5
f 52/46/6 54/43/6 56/46/6
f 2/1/1 4/4/1 3/2/1
f 4/4/2 8/4/2 7/2/2
f 8/5/3 6/50/3 5/6/3
f 6/1/4 2/1/4 1/3/4
f 7/2/5 5/3/5 1/3/5
f 4/4/6 2/1/6 6/1/6
f 10/8/1 12/11/1 11/9/1
f 12/11/2 16/11/2 15/9/2
f 16/12/3 14/51/3 13/13/3
f 14/8/4 10/8/4 9/10/4
f 15/9/5 13/10/5 9/10/5
f 12/11/6 10/8/6 14/8/6
f 18/15/1 20/18/1 19/16/1
f 20/18/2 24/18/2 23/16/2
f 24/19/3 22/52/3 21/20/3
f 22/15/4 18/15/4 17/17/4
f 23/16/5 21/17/5 17/17/5
f 20/18/6 18/15/6 22/15/6
f 26/22/1 28/25/1 27/23/1
f 28/25/2 32/25/2 31/23/2
f 32/26/3 30/53/3 29/27/3
f 30/22/4 26/22/4 25/24/4
f 31/23/5 29/24/5 25/24/5
f 28/25/6 26/22/6 30/22/6
f 34/29/1 36/32/1 35/30/1
f 36/32/2 40/32/2 39/30/2
f 40/33/3 38/54/3 37/34/3
f 38/29/4 34/29/4 33/31/4
f 39/30/5 37/31/5 33/31/5
f 36/32/6 34/29/6 38/29/6
f 42/36/1 44/39/1 43/37/1
f 44/39/2 48/39/2 47/37/2
f 48/40/3 46/55/3 45/41/3
f 46/36/4 42/36/4 41/38/4
f 47/37/5 45/38/5 41/38/5
f 44/39/6 42/36/6 46/36/6
f 50/43/1 52/46/1 51/44/1
f 52/46/2 56/46/2 55/44/2
f 56/47/3 54/56/3 53/48/3
f 54/43/4 50/43/4 49/45/4
f 55/44/5 53/45/5 49/45/5
f 52/46/6 50/43/6 54/43/6
