# Blender 5.1.2
# www.blender.org
mtllib environment.mtl
g RND_WalkBand_Mesh
v -9.000000 -0.440000 0.630000
v -9.000000 0.000000 0.630000
v -9.000000 -0.440000 -1.970000
v -9.000000 0.000000 -1.970000
v 9.000000 -0.440000 0.630000
v 9.000000 0.000000 0.630000
v 9.000000 -0.440000 -1.970000
v 9.000000 0.000000 -1.970000
v -15.500000 0.000000 -6.470000
v -11.625000 0.000000 -6.470000
v -7.750000 0.000000 -6.470000
v -3.875000 0.000000 -6.470000
v 0.000000 0.000000 -6.470000
v 3.875000 0.000000 -6.470000
v 7.750000 0.000000 -6.470000
v 11.625000 0.000000 -6.470000
v 15.500000 0.000000 -6.470000
v -15.500000 1.700000 -6.470000
v -11.625000 1.700000 -6.470000
v -7.750000 1.700000 -6.470000
v -3.875000 1.700000 -6.470000
v 0.000000 1.700000 -6.470000
v 3.875000 1.700000 -6.470000
v 7.750000 1.700000 -6.470000
v 11.625000 1.700000 -6.470000
v 15.500000 1.700000 -6.470000
v -15.500000 3.400000 -6.470000
v -11.625000 3.400000 -6.470000
v -7.750000 3.400000 -6.470000
v -3.875000 3.400000 -6.470000
v 0.000000 3.400000 -6.470000
v 3.875000 3.400000 -6.470000
v 7.750000 3.400000 -6.470000
v 11.625000 3.400000 -6.470000
v 15.500000 3.400000 -6.470000
v -15.500000 5.100000 -6.470000
v -11.625000 5.100000 -6.470000
v -7.750000 5.100000 -6.470000
v -3.875000 5.100000 -6.470000
v 0.000000 5.100000 -6.470000
v 3.875000 5.100000 -6.470000
v 7.750000 5.100000 -6.470000
v 11.625000 5.100000 -6.470000
v 15.500000 5.100000 -6.470000
v -12.900000 0.000000 -4.395000
v -12.900000 5.400000 -4.395000
v -7.900000 5.400000 -4.395000
v -7.900000 0.000000 -4.395000
v -12.900000 0.000000 -5.445000
v -12.900000 5.400000 -5.445000
v -7.900000 5.400000 -5.445000
v -7.900000 0.000000 -5.445000
v -13.180000 5.400000 -4.250000
v -10.400000 6.250000 -4.250000
v -7.620000 5.400000 -4.250000
v -13.180000 5.400000 -5.550000
v -10.400000 6.250000 -5.550000
v -7.620000 5.400000 -5.550000
v -6.450000 0.000000 -4.595000
v -6.450000 7.200000 -4.595000
v -3.950000 7.200000 -4.595000
v -3.950000 0.000000 -4.595000
v -6.450000 0.000000 -5.645000
v -6.450000 7.200000 -5.645000
v -3.950000 7.200000 -5.645000
v -3.950000 0.000000 -5.645000
v -6.730000 7.200000 -4.450000
v -5.200000 8.200000 -4.450000
v -3.670000 7.200000 -4.450000
v -6.730000 7.200000 -5.750000
v -5.200000 8.200000 -5.750000
v -3.670000 7.200000 -5.750000
v -2.100000 0.000000 -3.995000
v -2.100000 4.800000 -3.995000
v 2.100000 4.800000 -3.995000
v 2.100000 0.000000 -3.995000
v -2.100000 0.000000 -5.045000
v -2.100000 4.800000 -5.045000
v 2.100000 4.800000 -5.045000
v 2.100000 0.000000 -5.045000
v -2.380000 4.800000 -3.850000
v 0.000000 6.250000 -3.850000
v 2.380000 4.800000 -3.850000
v -2.380000 4.800000 -5.150000
v 0.000000 6.250000 -5.150000
v 2.380000 4.800000 -5.150000
v -0.860000 0.000000 -3.810000
v -0.860000 2.200000 -3.810000
v -0.620000 2.680000 -3.810000
v 0.000000 2.980000 -3.810000
v 0.620000 2.680000 -3.810000
v 0.860000 2.200000 -3.810000
v 0.860000 0.000000 -3.810000
v -0.860000 0.000000 -3.990000
v -0.860000 2.200000 -3.990000
v -0.620000 2.680000 -3.990000
v 0.000000 2.980000 -3.990000
v 0.620000 2.680000 -3.990000
v 0.860000 2.200000 -3.990000
v 0.860000 0.000000 -3.990000
v -1.100000 0.740000 -3.730000
v -1.100000 2.220000 -3.730000
v -1.100000 0.740000 -3.870000
v -1.100000 2.220000 -3.870000
v -0.940000 0.740000 -3.730000
v -0.940000 2.220000 -3.730000
v -0.940000 0.740000 -3.870000
v -0.940000 2.220000 -3.870000
v 0.940000 0.740000 -3.730000
v 0.940000 2.220000 -3.730000
v 0.940000 0.740000 -3.870000
v 0.940000 2.220000 -3.870000
v 1.100000 0.740000 -3.730000
v 1.100000 2.220000 -3.730000
v 1.100000 0.740000 -3.870000
v 1.100000 2.220000 -3.870000
v 2.900000 0.000000 -3.595000
v 2.900000 3.800000 -3.595000
v 7.100000 3.800000 -3.595000
v 7.100000 0.000000 -3.595000
v 2.900000 0.000000 -4.645000
v 2.900000 3.800000 -4.645000
v 7.100000 3.800000 -4.645000
v 7.100000 0.000000 -4.645000
v 2.620000 3.800000 -3.450000
v 5.000000 4.500000 -3.450000
v 7.380000 3.800000 -3.450000
v 2.620000 3.800000 -4.750000
v 5.000000 4.500000 -4.750000
v 7.380000 3.800000 -4.750000
v 8.350000 0.000000 -4.795000
v 8.350000 7.700000 -4.795000
v 11.650000 7.700000 -4.795000
v 11.650000 0.000000 -4.795000
v 8.350000 0.000000 -5.845000
v 8.350000 7.700000 -5.845000
v 11.650000 7.700000 -5.845000
v 11.650000 0.000000 -5.845000
v 8.070000 7.700000 -4.650000
v 10.000000 9.050000 -4.650000
v 11.930000 7.700000 -4.650000
v 8.070000 7.700000 -5.950000
v 10.000000 9.050000 -5.950000
v 11.930000 7.700000 -5.950000
v -0.016800 -0.040000 -1.310000
v -0.016800 0.120000 -1.310000
v -0.016800 -0.040000 -2.130000
v -0.016800 0.120000 -2.130000
v 0.336800 -0.040000 -1.310000
v 0.336800 0.120000 -1.310000
v 0.336800 -0.040000 -2.130000
v 0.336800 0.120000 -2.130000
v 0.663200 0.120000 -1.310000
v 0.663200 0.280000 -1.310000
v 0.663200 0.120000 -2.130000
v 0.663200 0.280000 -2.130000
v 1.016800 0.120000 -1.310000
v 1.016800 0.280000 -1.310000
v 1.016800 0.120000 -2.130000
v 1.016800 0.280000 -2.130000
v 1.343200 0.280000 -1.310000
v 1.343200 0.440000 -1.310000
v 1.343200 0.280000 -2.130000
v 1.343200 0.440000 -2.130000
v 1.696800 0.280000 -1.310000
v 1.696800 0.440000 -1.310000
v 1.696800 0.280000 -2.130000
v 1.696800 0.440000 -2.130000
v 2.023200 0.440000 -1.310000
v 2.023200 0.600000 -1.310000
v 2.023200 0.440000 -2.130000
v 2.023200 0.600000 -2.130000
v 2.376800 0.440000 -1.310000
v 2.376800 0.600000 -1.310000
v 2.376800 0.440000 -2.130000
v 2.376800 0.600000 -2.130000
v 2.703200 0.600000 -1.310000
v 2.703200 0.760000 -1.310000
v 2.703200 0.600000 -2.130000
v 2.703200 0.760000 -2.130000
v 3.056800 0.600000 -1.310000
v 3.056800 0.760000 -1.310000
v 3.056800 0.600000 -2.130000
v 3.056800 0.760000 -2.130000
v 3.383200 0.760000 -1.310000
v 3.383200 0.920000 -1.310000
v 3.383200 0.760000 -2.130000
v 3.383200 0.920000 -2.130000
v 3.736800 0.760000 -1.310000
v 3.736800 0.920000 -1.310000
v 3.736800 0.760000 -2.130000
v 3.736800 0.920000 -2.130000
v -0.300000 2.910000 -2.800000
v -0.300000 3.090000 -2.800000
v -0.300000 2.910000 -3.040000
v -0.300000 3.090000 -3.040000
v 3.900000 2.910000 -2.800000
v 3.900000 3.090000 -2.800000
v 3.900000 2.910000 -3.040000
v 3.900000 3.090000 -3.040000
v -7.210000 0.000000 1.690000
v -7.210000 6.400000 1.690000
v -7.210000 0.000000 0.970000
v -7.210000 6.400000 0.970000
v -6.590000 0.000000 1.690000
v -6.590000 6.400000 1.690000
v -6.590000 0.000000 0.970000
v -6.590000 6.400000 0.970000
v -6.675000 6.070000 1.690000
v -6.675000 6.630000 1.690000
v -6.675000 6.070000 0.970000
v -6.675000 6.630000 0.970000
v -3.325000 6.070000 1.690000
v -3.325000 6.630000 1.690000
v -3.325000 6.070000 0.970000
v -3.325000 6.630000 0.970000
v 6.380000 0.000000 1.290000
v 6.380000 4.700000 1.290000
v 6.380000 0.000000 0.670000
v 6.380000 4.700000 0.670000
v 6.820000 0.000000 1.290000
v 6.820000 4.700000 1.290000
v 6.820000 0.000000 0.670000
v 6.820000 4.700000 0.670000
v -0.600000 4.970000 0.820000
v -0.600000 5.130000 0.820000
v -0.600000 4.970000 0.640000
v -0.600000 5.130000 0.640000
v 4.200000 4.970000 0.820000
v 4.200000 5.130000 0.820000
v 4.200000 4.970000 0.640000
v 4.200000 5.130000 0.640000
v -1.617500 4.175000 0.890000
v -1.617500 4.725000 0.890000
v -1.617500 4.175000 0.830000
v -1.617500 4.725000 0.830000
v -1.582500 4.175000 0.890000
v -1.582500 4.725000 0.890000
v -1.582500 4.175000 0.830000
v -1.582500 4.725000 0.830000
v 0.582500 4.175000 0.890000
v 0.582500 4.725000 0.890000
v 0.582500 4.175000 0.830000
v 0.582500 4.725000 0.830000
v 0.617500 4.175000 0.890000
v 0.617500 4.725000 0.890000
v 0.617500 4.175000 0.830000
v 0.617500 4.725000 0.830000
v 2.782500 4.175000 0.890000
v 2.782500 4.725000 0.890000
v 2.782500 4.175000 0.830000
v 2.782500 4.725000 0.830000
v 2.817500 4.175000 0.890000
v 2.817500 4.725000 0.890000
v 2.817500 4.175000 0.830000
v 2.817500 4.725000 0.830000
v 4.982500 4.175000 0.890000
v 4.982500 4.725000 0.890000
v 4.982500 4.175000 0.830000
v 4.982500 4.725000 0.830000
v 5.017500 4.175000 0.890000
v 5.017500 4.725000 0.890000
v 5.017500 4.175000 0.830000
v 5.017500 4.725000 0.830000
v -8.540000 0.750000 -1.980000
v -8.540000 2.250000 -1.980000
v -8.540000 0.750000 -2.060000
v -8.540000 2.250000 -2.060000
v -8.460000 0.750000 -1.980000
v -8.460000 2.250000 -1.980000
v -8.460000 0.750000 -2.060000
v -8.460000 2.250000 -2.060000
v -8.610000 2.700000 -1.850000
v -8.610000 2.940000 -1.850000
v -8.610000 2.700000 -2.030000
v -8.610000 2.940000 -2.030000
v -8.390000 2.700000 -1.850000
v -8.390000 2.940000 -1.850000
v -8.390000 2.700000 -2.030000
v -8.390000 2.940000 -2.030000
v 3.560000 0.750000 -1.880000
v 3.560000 2.250000 -1.880000
v 3.560000 0.750000 -1.960000
v 3.560000 2.250000 -1.960000
v 3.640000 0.750000 -1.880000
v 3.640000 2.250000 -1.880000
v 3.640000 0.750000 -1.960000
v 3.640000 2.250000 -1.960000
v 3.490000 2.700000 -1.750000
v 3.490000 2.940000 -1.750000
v 3.490000 2.700000 -1.930000
v 3.490000 2.940000 -1.930000
v 3.710000 2.700000 -1.750000
v 3.710000 2.940000 -1.750000
v 3.710000 2.700000 -1.930000
v 3.710000 2.940000 -1.930000
v 11.760000 0.750000 -2.080000
v 11.760000 2.250000 -2.080000
v 11.760000 0.750000 -2.160000
v 11.760000 2.250000 -2.160000
v 11.840000 0.750000 -2.080000
v 11.840000 2.250000 -2.080000
v 11.840000 0.750000 -2.160000
v 11.840000 2.250000 -2.160000
v 11.690001 2.960000 -1.950000
v 11.690001 3.200000 -1.950000
v 11.690001 2.960000 -2.130000
v 11.690001 3.200000 -2.130000
v 11.910000 2.960000 -1.950000
v 11.910000 3.200000 -1.950000
v 11.910000 2.960000 -2.130000
v 11.910000 3.200000 -2.130000
vn -1.0000 -0.0000 -0.0000
vn -0.0000 -0.0000 -1.0000
vn 1.0000 -0.0000 -0.0000
vn -0.0000 -0.0000 1.0000
vn -0.0000 -1.0000 -0.0000
vn -0.0000 1.0000 -0.0000
vn -0.2924 0.9563 -0.0000
vn 0.2924 0.9563 -0.0000
vn -0.5471 0.8371 -0.0000
vn 0.5471 0.8371 -0.0000
vn -0.5203 0.8540 -0.0000
vn 0.5203 0.8540 -0.0000
vn -0.8944 0.4472 -0.0000
vn -0.4356 0.9002 -0.0000
vn 0.4356 0.9002 -0.0000
vn 0.8944 0.4472 -0.0000
vn -0.2822 0.9594 -0.0000
vn 0.2822 0.9594 -0.0000
vn -0.5732 0.8194 -0.0000
vn 0.5732 0.8194 -0.0000
vt 0.680062 0.869367
vt 0.688417 0.819994
vt 0.688417 0.869367
vt 0.496085 0.626522
vt 0.504440 0.284707
vt 0.504440 0.626522
vt 0.869658 0.065297
vt 0.878013 0.015923
vt 0.878013 0.065297
vt 0.536287 0.626522
vt 0.544643 0.284707
vt 0.544643 0.626522
vt 0.193991 0.357739
vt 0.144618 0.015923
vt 0.193992 0.015923
vt 0.275212 0.357739
vt 0.225838 0.015923
vt 0.275212 0.015923
vt 0.112771 0.089509
vt 0.080489 0.015923
vt 0.112771 0.015923
vt 0.112771 0.163094
vt 0.080489 0.089509
vt 0.112771 0.236679
vt 0.080489 0.163094
vt 0.112771 0.310265
vt 0.080489 0.236679
vt 0.112771 0.383850
vt 0.080489 0.310265
vt 0.112771 0.457435
vt 0.080489 0.383850
vt 0.112771 0.531021
vt 0.080489 0.457435
vt 0.112771 0.604606
vt 0.080489 0.531021
vt 0.048206 0.015923
vt 0.048206 0.089509
vt 0.048206 0.163094
vt 0.048206 0.236679
vt 0.048206 0.310265
vt 0.048206 0.383850
vt 0.048206 0.457435
vt 0.080489 0.604606
vt 0.048206 0.531021
vt 0.015923 0.015923
vt 0.015923 0.089509
vt 0.015923 0.163094
vt 0.015923 0.236679
vt 0.015923 0.310265
vt 0.015923 0.383850
vt 0.015923 0.457435
vt 0.048206 0.604606
vt 0.015923 0.531021
vt 0.307059 0.015923
vt 0.402007 0.118468
vt 0.307059 0.118468
vt 0.307059 0.150315
vt 0.402007 0.252860
vt 0.307059 0.252860
vt 0.628276 0.575518
vt 0.648215 0.678063
vt 0.628276 0.678063
vt 0.576490 0.640843
vt 0.596429 0.735791
vt 0.576490 0.735791
vt 0.696505 0.118468
vt 0.676566 0.015923
vt 0.696505 0.015923
vt 0.063912 0.636453
vt 0.083851 0.731401
vt 0.063912 0.731401
vt 0.307059 0.631348
vt 0.323200 0.684139
vt 0.307059 0.736931
vt 0.015923 0.636453
vt 0.032065 0.689244
vt 0.015923 0.742036
vt 0.225838 0.558348
vt 0.201152 0.512584
vt 0.225838 0.512584
vt 0.225838 0.613553
vt 0.201152 0.558348
vt 0.144618 0.512584
vt 0.169305 0.618167
vt 0.144618 0.618167
vt 0.545458 0.015923
vt 0.592933 0.152650
vt 0.545458 0.152650
vt 0.307059 0.462775
vt 0.354533 0.599501
vt 0.307059 0.599501
vt 0.624780 0.015923
vt 0.644719 0.152650
vt 0.624780 0.152650
vt 0.144618 0.773011
vt 0.164557 0.820486
vt 0.144618 0.820486
vt 0.648215 0.421433
vt 0.628276 0.284707
vt 0.648215 0.284707
vt 0.736596 0.798726
vt 0.756535 0.846200
vt 0.736596 0.846200
vt 0.063912 0.763248
vt 0.082901 0.792303
vt 0.063912 0.821357
vt 0.788382 0.759986
vt 0.807371 0.789041
vt 0.788382 0.818095
vt 0.623528 0.813917
vt 0.648215 0.848627
vt 0.623528 0.848627
vt 0.399673 0.853564
vt 0.374986 0.818855
vt 0.399673 0.818855
vt 0.788382 0.575518
vt 0.813069 0.633626
vt 0.788382 0.633626
vt 0.144618 0.389586
vt 0.224375 0.480737
vt 0.144618 0.480737
vt 0.433854 0.015923
vt 0.513611 0.107074
vt 0.433854 0.107074
vt 0.201152 0.645400
vt 0.221091 0.736550
vt 0.201152 0.736550
vt 0.736596 0.575518
vt 0.756535 0.655275
vt 0.736596 0.655275
vt 0.164557 0.741164
vt 0.144618 0.650014
vt 0.164557 0.650014
vt 0.736596 0.687122
vt 0.756535 0.766879
vt 0.736596 0.766879
vt 0.628276 0.453280
vt 0.655811 0.498475
vt 0.628276 0.543671
vt 0.386380 0.574378
vt 0.413915 0.619574
vt 0.386380 0.664770
vt 0.520772 0.682639
vt 0.496085 0.658369
vt 0.520772 0.658369
vt 0.520772 0.735562
vt 0.496085 0.682639
vt 0.680062 0.284707
vt 0.704749 0.375098
vt 0.680062 0.375098
vt 0.545458 0.199309
vt 0.561789 0.184497
vt 0.578121 0.199309
vt 0.609968 0.199309
vt 0.626299 0.184497
vt 0.642630 0.199309
vt 0.875053 0.683641
vt 0.878471 0.724301
vt 0.875053 0.724301
vt 0.875053 0.673723
vt 0.878471 0.683641
vt 0.875053 0.665473
vt 0.878471 0.673723
vt 0.441015 0.844847
vt 0.437596 0.831768
vt 0.441015 0.831768
vt 0.441015 0.852920
vt 0.437596 0.844847
vt 0.441015 0.871117
vt 0.437596 0.852920
vt 0.196404 0.844971
vt 0.199822 0.877633
vt 0.196404 0.877633
vt 0.875433 0.422137
vt 0.878092 0.450241
vt 0.875433 0.450241
vt 0.541604 0.767409
vt 0.544643 0.795514
vt 0.541604 0.795514
vt 0.875433 0.482088
vt 0.878092 0.510193
vt 0.875433 0.510193
vt 0.541604 0.827361
vt 0.544643 0.855466
vt 0.541604 0.855466
vt 0.842826 0.976682
vt 0.840168 0.973644
vt 0.842826 0.973644
vt 0.377645 0.978160
vt 0.374986 0.975121
vt 0.377645 0.975121
vt 0.144618 0.852333
vt 0.147277 0.880437
vt 0.144618 0.880437
vt 0.307059 0.845351
vt 0.310097 0.873456
vt 0.307059 0.873456
vt 0.063912 0.853204
vt 0.066570 0.881309
vt 0.063912 0.881309
vt 0.788382 0.849942
vt 0.791420 0.878047
vt 0.788382 0.878047
vt 0.018582 0.978235
vt 0.015923 0.975196
vt 0.018582 0.975196
vt 0.540587 0.980061
vt 0.537928 0.977022
vt 0.540587 0.977022
vt 0.386380 0.542532
vt 0.458541 0.462775
vt 0.458541 0.542532
vt 0.433854 0.218678
vt 0.506015 0.138921
vt 0.506015 0.218678
vt 0.628276 0.709909
vt 0.648215 0.782071
vt 0.628276 0.782071
vt 0.255273 0.696349
vt 0.275212 0.776106
vt 0.255273 0.776106
vt 0.457536 0.799921
vt 0.437596 0.727760
vt 0.457536 0.727760
vt 0.736596 0.284707
vt 0.756535 0.364464
vt 0.736596 0.364464
vt 0.680062 0.697756
vt 0.693355 0.742952
vt 0.680062 0.788147
vt 0.386380 0.696617
vt 0.399673 0.741812
vt 0.386380 0.787008
vt 0.680062 0.620713
vt 0.704749 0.665909
vt 0.680062 0.665909
vt 0.680062 0.575518
vt 0.704749 0.620713
vt 0.676566 0.150315
vt 0.701252 0.240706
vt 0.676566 0.240706
vt 0.307059 0.284707
vt 0.369725 0.430928
vt 0.307059 0.430928
vt 0.401572 0.284707
vt 0.464238 0.430928
vt 0.401572 0.430928
vt 0.576490 0.284707
vt 0.596429 0.430928
vt 0.576490 0.430928
vt 0.788382 0.665473
vt 0.808321 0.728140
vt 0.788382 0.728140
vt 0.596429 0.608996
vt 0.576490 0.462775
vt 0.596429 0.462775
vt 0.788761 0.422137
vt 0.808701 0.484803
vt 0.788761 0.484803
vt 0.731278 0.422137
vt 0.756915 0.458787
vt 0.731278 0.495437
vt 0.728352 0.015923
vt 0.753988 0.052574
vt 0.728352 0.089224
vt 0.196404 0.768397
vt 0.221091 0.813124
vt 0.196404 0.813124
vt 0.331745 0.813504
vt 0.307059 0.768778
vt 0.331745 0.768778
vt 0.733099 0.150315
vt 0.757786 0.223615
vt 0.733099 0.223615
vt 0.914686 0.569441
vt 0.917724 0.553870
vt 0.917724 0.569441
vt 0.623528 0.947520
vt 0.626567 0.940805
vt 0.626567 0.947520
vt 0.916015 0.804043
vt 0.919054 0.788471
vt 0.919054 0.804043
vt 0.948422 0.064929
vt 0.951460 0.058215
vt 0.951460 0.064929
vt 0.840168 0.899505
vt 0.846883 0.883934
vt 0.846883 0.899505
vt 0.374986 0.900983
vt 0.381701 0.885411
vt 0.381701 0.900983
vt 0.916015 0.851461
vt 0.919054 0.835890
vt 0.919054 0.851461
vt 0.948500 0.471143
vt 0.951539 0.464428
vt 0.951539 0.471143
vt 0.916015 0.898880
vt 0.919054 0.883308
vt 0.919054 0.898880
vt 0.948500 0.509704
vt 0.951539 0.502989
vt 0.951539 0.509704
vt 0.015923 0.901058
vt 0.022638 0.885486
vt 0.022638 0.901058
vt 0.537928 0.902884
vt 0.544643 0.887313
vt 0.544643 0.902884
vt 0.881130 0.924706
vt 0.884168 0.909134
vt 0.884168 0.924706
vt 0.948527 0.937441
vt 0.951565 0.930727
vt 0.951565 0.937441
vt 0.196404 0.925051
vt 0.199443 0.909480
vt 0.199443 0.925051
vt 0.948880 0.672188
vt 0.951918 0.665473
vt 0.951918 0.672188
vt 0.909860 0.031495
vt 0.916575 0.015923
vt 0.916575 0.031495
vt 0.909938 0.437708
vt 0.916653 0.422137
vt 0.916653 0.437708
vt 0.788382 0.925465
vt 0.791420 0.909894
vt 0.791420 0.925465
vt 0.948880 0.710750
vt 0.951918 0.704035
vt 0.951918 0.710750
vt 0.923801 0.629773
vt 0.926839 0.614201
vt 0.926839 0.629773
vt 0.948880 0.749311
vt 0.951918 0.742597
vt 0.951918 0.749311
vt 0.909938 0.485127
vt 0.916653 0.469555
vt 0.916653 0.485127
vt 0.680062 0.916786
vt 0.686777 0.901214
vt 0.686777 0.916786
vt 0.144618 0.927856
vt 0.147657 0.912284
vt 0.147657 0.927856
vt 0.949571 0.560584
vt 0.952610 0.553870
vt 0.952610 0.560584
vt 0.063532 0.928727
vt 0.066570 0.913156
vt 0.066570 0.928727
vt 0.950701 0.103858
vt 0.953739 0.097144
vt 0.953739 0.103858
vt 0.910318 0.681045
vt 0.917033 0.665473
vt 0.917033 0.681045
vt 0.910318 0.728463
vt 0.917033 0.712892
vt 0.917033 0.728463
vt 0.098417 0.929107
vt 0.101455 0.913535
vt 0.101455 0.929107
vt 0.255273 0.953750
vt 0.258311 0.947036
vt 0.258311 0.953750
vt 0.933731 0.165887
vt 0.936770 0.150315
vt 0.936770 0.165887
vt 0.950900 0.795186
vt 0.953939 0.788471
vt 0.953939 0.795186
vt 0.437596 0.918535
vt 0.444311 0.902963
vt 0.444311 0.918535
vt 0.912139 0.112715
vt 0.918854 0.097144
vt 0.918854 0.112715
vt 0.880750 0.961110
vt 0.884168 0.956553
vt 0.884168 0.961110
vt 0.865100 0.230072
vt 0.868518 0.150315
vt 0.868518 0.230072
vt 0.196404 0.961456
vt 0.199822 0.956898
vt 0.199822 0.961456
vt 0.867267 0.364464
vt 0.870686 0.284707
vt 0.870686 0.364464
vt 0.849473 0.633627
vt 0.844915 0.553870
vt 0.849473 0.553870
vt 0.020481 0.853640
vt 0.015923 0.773883
vt 0.020481 0.773883
vt 0.261539 0.389586
vt 0.275212 0.511120
vt 0.261539 0.511120
vt 0.445762 0.574378
vt 0.457536 0.695913
vt 0.445762 0.695913
vt 0.261539 0.542967
vt 0.275212 0.664502
vt 0.261539 0.664502
vt 0.687658 0.422137
vt 0.699431 0.543671
vt 0.687658 0.543671
vt 0.731278 0.540956
vt 0.743052 0.527284
vt 0.743052 0.540956
vt 0.774899 0.540956
vt 0.786673 0.527284
vt 0.786673 0.540956
vt 0.869658 0.110816
vt 0.880292 0.097144
vt 0.880292 0.110816
vt 0.840168 0.852087
vt 0.850802 0.788471
vt 0.850802 0.852087
vt 0.881320 0.627874
vt 0.891954 0.614201
vt 0.891954 0.627874
vt 0.255273 0.871568
vt 0.265907 0.807952
vt 0.265907 0.871568
vt 0.509758 0.831025
vt 0.496085 0.767409
vt 0.509758 0.767409
vt 0.590162 0.831254
vt 0.576490 0.767638
vt 0.590162 0.767638
vt 0.785835 0.015923
vt 0.797608 0.105175
vt 0.785835 0.105175
vt 0.789633 0.150315
vt 0.797988 0.239567
vt 0.789633 0.239567
vt 0.788382 0.284707
vt 0.800155 0.373958
vt 0.788382 0.373958
vt 0.829455 0.015923
vt 0.837811 0.105175
vt 0.829455 0.105175
vt 0.255273 0.915189
vt 0.263628 0.903415
vt 0.263628 0.915189
vt 0.307059 0.917076
vt 0.315414 0.905303
vt 0.315414 0.917076
vt 0.968885 0.360174
vt 0.971923 0.356756
vt 0.971923 0.360174
vt 0.840168 0.756624
vt 0.843206 0.665473
vt 0.843206 0.756624
vt 0.948527 0.972706
vt 0.951565 0.969288
vt 0.951565 0.972706
vt 0.840548 0.513287
vt 0.843586 0.422137
vt 0.843586 0.513287
vt 0.833253 0.241466
vt 0.829835 0.150315
vt 0.833253 0.150315
vt 0.835420 0.375857
vt 0.832002 0.284707
vt 0.835420 0.284707
vt 0.341944 0.845351
vt 0.343083 0.855795
vt 0.341944 0.855795
vt 0.916015 0.930727
vt 0.916680 0.941171
vt 0.916015 0.941171
vt 0.496085 0.923203
vt 0.497224 0.933648
vt 0.496085 0.933648
vt 0.840168 0.931352
vt 0.840833 0.941797
vt 0.840168 0.941797
vt 0.916015 0.974157
vt 0.916680 0.973018
vt 0.916680 0.974157
vt 0.980933 0.017063
vt 0.981598 0.015923
vt 0.981598 0.017063
vt 0.576490 0.923432
vt 0.577629 0.933877
vt 0.576490 0.933877
vt 0.374986 0.932830
vt 0.375651 0.943274
vt 0.374986 0.943274
vt 0.933731 0.197734
vt 0.934871 0.208178
vt 0.933731 0.208178
vt 0.015923 0.932905
vt 0.016588 0.943349
vt 0.015923 0.943349
vt 0.981012 0.423276
vt 0.981676 0.422137
vt 0.981676 0.423276
vt 0.983307 0.059354
vt 0.983972 0.058215
vt 0.983972 0.059354
vt 0.933731 0.240025
vt 0.934871 0.250469
vt 0.933731 0.250469
vt 0.537928 0.934731
vt 0.538593 0.945176
vt 0.537928 0.945176
vt 0.935899 0.284707
vt 0.937038 0.295151
vt 0.935899 0.295151
vt 0.736596 0.938378
vt 0.737260 0.948823
vt 0.736596 0.948823
vt 0.983385 0.465567
vt 0.984050 0.464428
vt 0.984050 0.465567
vt 0.983385 0.498553
vt 0.984050 0.497414
vt 0.984050 0.498553
vt 0.935899 0.326998
vt 0.937038 0.337442
vt 0.935899 0.337442
vt 0.948422 0.015923
vt 0.949087 0.026368
vt 0.948422 0.026368
vt 0.935899 0.369289
vt 0.937038 0.379734
vt 0.935899 0.379734
vt 0.948500 0.422137
vt 0.949165 0.432581
vt 0.948500 0.432581
vt 0.983412 0.931866
vt 0.984077 0.930727
vt 0.984077 0.931866
vt 0.983412 0.964852
vt 0.984077 0.963713
vt 0.984077 0.964852
vt 0.098417 0.853204
vt 0.099936 0.881689
vt 0.098417 0.881689
vt 0.881320 0.553870
vt 0.882839 0.582354
vt 0.881320 0.582354
vt 0.882649 0.788471
vt 0.884168 0.816956
vt 0.882649 0.816956
vt 0.882649 0.848803
vt 0.884168 0.877287
vt 0.882649 0.877287
vt 0.435374 0.252044
vt 0.433854 0.250525
vt 0.435374 0.250525
vt 0.468740 0.252044
vt 0.467220 0.250525
vt 0.468740 0.250525
vt 0.788382 0.957312
vt 0.791800 0.961870
vt 0.788382 0.961870
vt 0.909938 0.516974
vt 0.914116 0.521531
vt 0.909938 0.521531
vt 0.958686 0.614201
vt 0.962104 0.618759
vt 0.958686 0.618759
vt 0.680062 0.948633
vt 0.684240 0.953190
vt 0.680062 0.953190
vt 0.579908 0.969901
vt 0.576490 0.965724
vt 0.579908 0.965724
vt 0.970136 0.201911
vt 0.966718 0.197734
vt 0.970136 0.197734
vt 0.496085 0.862872
vt 0.497604 0.891356
vt 0.496085 0.891356
vt 0.576490 0.863101
vt 0.578009 0.891585
vt 0.576490 0.891585
vt 0.900365 0.150315
vt 0.901885 0.178800
vt 0.900365 0.178800
vt 0.900365 0.210647
vt 0.901885 0.239131
vt 0.900365 0.239131
vt 0.502106 0.252044
vt 0.500587 0.250525
vt 0.502106 0.250525
vt 0.911379 0.064861
vt 0.909860 0.063342
vt 0.911379 0.063342
vt 0.144618 0.959703
vt 0.148036 0.964260
vt 0.144618 0.964260
vt 0.307059 0.948923
vt 0.311236 0.953481
vt 0.307059 0.953481
vt 0.063152 0.960574
vt 0.066570 0.965132
vt 0.063152 0.965132
vt 0.437596 0.950382
vt 0.441774 0.954939
vt 0.437596 0.954939
vt 0.970136 0.237936
vt 0.966718 0.233758
vt 0.970136 0.233758
vt 0.972035 0.154493
vt 0.968617 0.150315
vt 0.972035 0.150315
vt 0.902532 0.284707
vt 0.904052 0.313191
vt 0.902532 0.313191
vt 0.902532 0.345038
vt 0.904052 0.373523
vt 0.902532 0.373523
vt 0.736596 0.878047
vt 0.738115 0.906531
vt 0.736596 0.906531
vt 0.623528 0.880474
vt 0.625048 0.908959
vt 0.623528 0.908959
vt 0.625048 0.980886
vt 0.623528 0.979367
vt 0.625048 0.979367
vt 0.738115 0.982189
vt 0.736596 0.980670
vt 0.738115 0.980670
vt 0.098417 0.960954
vt 0.101835 0.965511
vt 0.098417 0.965511
vt 0.950900 0.827033
vt 0.955078 0.831590
vt 0.950900 0.831590
vt 0.496085 0.965495
vt 0.499503 0.970052
vt 0.496085 0.970052
vt 0.950900 0.863437
vt 0.955078 0.867995
vt 0.950900 0.867995
vt 0.972303 0.288884
vt 0.968885 0.284707
vt 0.972303 0.284707
vt 0.972303 0.324909
vt 0.968885 0.320731
vt 0.972303 0.320731
vt 0.680062 0.819994
vt 0.496085 0.284707
vt 0.869658 0.015923
vt 0.536287 0.284707
vt 0.144618 0.357739
vt 0.225838 0.357739
vt 0.015923 0.604606
vt 0.402007 0.015923
vt 0.402007 0.150315
vt 0.648215 0.575518
vt 0.596429 0.640843
vt 0.676566 0.118468
vt 0.083851 0.636453
vt 0.201152 0.613553
vt 0.169305 0.512584
vt 0.592933 0.015923
vt 0.354533 0.462775
vt 0.644719 0.015923
vt 0.164557 0.773011
vt 0.628276 0.421433
vt 0.756535 0.798726
vt 0.648215 0.813917
vt 0.374986 0.853564
vt 0.813069 0.575518
vt 0.224375 0.389586
vt 0.513611 0.015923
vt 0.221091 0.645400
vt 0.756535 0.575518
vt 0.144618 0.741164
vt 0.756535 0.687122
vt 0.496085 0.735562
vt 0.704749 0.284707
vt 0.578121 0.241086
vt 0.545458 0.241086
vt 0.550016 0.190193
vt 0.573563 0.190193
vt 0.642630 0.241086
vt 0.609968 0.241086
vt 0.614525 0.190194
vt 0.638072 0.190194
vt 0.878471 0.665473
vt 0.437596 0.871117
vt 0.199822 0.844971
vt 0.878092 0.422137
vt 0.544643 0.767409
vt 0.878092 0.482088
vt 0.544643 0.827361
vt 0.840168 0.976682
vt 0.374986 0.978160
vt 0.147277 0.852333
vt 0.310097 0.845351
vt 0.066570 0.853204
vt 0.791420 0.849942
vt 0.015923 0.978235
vt 0.537928 0.980061
vt 0.386380 0.462775
vt 0.433854 0.138921
vt 0.648215 0.709909
vt 0.275212 0.696349
vt 0.437596 0.799921
vt 0.756535 0.284707
vt 0.704749 0.575518
vt 0.701252 0.150315
vt 0.369725 0.284707
vt 0.464238 0.284707
vt 0.596429 0.284707
vt 0.808321 0.665473
vt 0.576490 0.608996
vt 0.808701 0.422137
vt 0.221091 0.768397
vt 0.307059 0.813504
vt 0.757786 0.150315
vt 0.914686 0.553870
vt 0.623528 0.940805
vt 0.916015 0.788471
vt 0.948422 0.058215
vt 0.840168 0.883934
vt 0.374986 0.885411
vt 0.916015 0.835890
vt 0.948500 0.464428
vt 0.916015 0.883308
vt 0.948500 0.502989
vt 0.015923 0.885486
vt 0.537928 0.887313
vt 0.881130 0.909134
vt 0.948527 0.930727
vt 0.196404 0.909480
vt 0.948880 0.665473
vt 0.909860 0.015923
vt 0.909938 0.422137
vt 0.788382 0.909894
vt 0.948880 0.704035
vt 0.923801 0.614201
vt 0.948880 0.742597
vt 0.909938 0.469555
vt 0.680062 0.901214
vt 0.144618 0.912284
vt 0.949571 0.553870
vt 0.063532 0.913156
vt 0.950701 0.097144
vt 0.910318 0.665473
vt 0.910318 0.712892
vt 0.098417 0.913535
vt 0.255273 0.947036
vt 0.933731 0.150315
vt 0.950900 0.788471
vt 0.437596 0.902963
vt 0.912139 0.097144
vt 0.880750 0.956553
vt 0.865100 0.150315
vt 0.196404 0.956898
vt 0.867267 0.284707
vt 0.844915 0.633627
vt 0.015923 0.853640
vt 0.275212 0.389586
vt 0.457536 0.574378
vt 0.275212 0.542967
vt 0.699431 0.422137
vt 0.731278 0.527284
vt 0.774899 0.527284
vt 0.869658 0.097144
vt 0.840168 0.788471
vt 0.881320 0.614201
vt 0.255273 0.807952
vt 0.496085 0.831025
vt 0.576490 0.831254
vt 0.797608 0.015923
vt 0.797988 0.150315
vt 0.800155 0.284707
vt 0.837811 0.015923
vt 0.255273 0.903415
vt 0.307059 0.905303
vt 0.968885 0.356756
vt 0.840168 0.665473
vt 0.948527 0.969288
vt 0.840548 0.422137
vt 0.829835 0.241466
vt 0.832002 0.375857
vt 0.343083 0.845351
vt 0.916680 0.930727
vt 0.497224 0.923203
vt 0.840833 0.931352
vt 0.916015 0.973018
vt 0.980933 0.015923
vt 0.577629 0.923432
vt 0.375651 0.932830
vt 0.934871 0.197734
vt 0.016588 0.932905
vt 0.981012 0.422137
vt 0.983307 0.058215
vt 0.934871 0.240025
vt 0.538593 0.934731
vt 0.937038 0.284707
vt 0.737260 0.938378
vt 0.983385 0.464428
vt 0.983385 0.497414
vt 0.937038 0.326998
vt 0.949087 0.015923
vt 0.937038 0.369289
vt 0.949165 0.422137
vt 0.983412 0.930727
vt 0.983412 0.963713
vt 0.099936 0.853204
vt 0.882839 0.553870
vt 0.884168 0.788471
vt 0.884168 0.848803
vt 0.433854 0.252044
vt 0.467220 0.252044
vt 0.791800 0.957312
vt 0.914116 0.516974
vt 0.962104 0.614201
vt 0.684240 0.948633
vt 0.576490 0.969901
vt 0.966718 0.201911
vt 0.497604 0.862872
vt 0.578009 0.863101
vt 0.901885 0.150315
vt 0.901885 0.210647
vt 0.500587 0.252044
vt 0.909860 0.064861
vt 0.148036 0.959703
vt 0.311236 0.948923
vt 0.066570 0.960574
vt 0.441774 0.950382
vt 0.966718 0.237936
vt 0.968617 0.154493
vt 0.904052 0.284707
vt 0.904052 0.345038
vt 0.738115 0.878047
vt 0.625048 0.880474
vt 0.623528 0.980886
vt 0.736596 0.982189
vt 0.101835 0.960954
vt 0.955078 0.827033
vt 0.499503 0.965495
vt 0.955078 0.863437
vt 0.968885 0.288884
vt 0.968885 0.324909
s 0
g RND_WalkBand_EnvironmentBakedAtlas
usemtl EnvironmentBakedAtlas
f 2/1/1 3/2/1 1/3/1
f 4/4/2 7/5/2 3/6/2
f 8/7/3 5/8/3 7/9/3
f 6/10/4 1/11/4 5/12/4
f 7/13/5 1/14/5 3/15/5
f 4/16/6 6/17/6 8/18/6
f 10/19/4 18/20/4 9/21/4
f 11/22/4 19/23/4 10/19/4
f 12/24/4 20/25/4 11/22/4
f 13/26/4 21/27/4 12/24/4
f 14/28/4 22/29/4 13/26/4
f 15/30/4 23/31/4 14/28/4
f 16/32/4 24/33/4 15/30/4
f 17/34/4 25/35/4 16/32/4
f 19/23/4 27/36/4 18/20/4
f 20/25/4 28/37/4 19/23/4
f 21/27/4 29/38/4 20/25/4
f 22/29/4 30/39/4 21/27/4
f 23/31/4 31/40/4 22/29/4
f 24/33/4 32/41/4 23/31/4
f 25/35/4 33/42/4 24/33/4
f 26/43/4 34/44/4 25/35/4
f 28/37/4 36/45/4 27/36/4
f 29/38/4 37/46/4 28/37/4
f 30/39/4 38/47/4 29/38/4
f 31/40/4 39/48/4 30/39/4
f 32/41/4 40/49/4 31/40/4
f 33/42/4 41/50/4 32/41/4
f 34/44/4 42/51/4 33/42/4
f 35/52/4 43/53/4 34/44/4
f 47/54/4 45/55/4 48/56/4
f 50/57/2 52/58/2 49/59/2
f 46/60/1 49/61/1 45/62/1
f 47/63/6 50/64/6 46/65/6
f 48/66/3 51/67/3 47/68/3
f 45/69/5 52/70/5 48/71/5
f 55/72/4 54/73/4 53/74/4
f 56/75/2 57/76/2 58/77/2
f 54/78/7 56/79/7 53/80/7
f 55/81/8 57/82/8 54/78/8
f 53/83/5 58/84/5 55/85/5
f 61/86/4 59/87/4 62/88/4
f 64/89/2 66/90/2 63/91/2
f 60/92/1 63/93/1 59/94/1
f 61/95/6 64/96/6 60/97/6
f 62/98/3 65/99/3 61/100/3
f 59/101/5 66/102/5 62/103/5
f 69/104/4 68/105/4 67/106/4
f 70/107/2 71/108/2 72/109/2
f 68/110/9 70/111/9 67/112/9
f 69/113/10 71/114/10 68/115/10
f 67/116/5 72/117/5 69/118/5
f 75/119/4 73/120/4 76/121/4
f 78/122/2 80/123/2 77/124/2
f 74/125/1 77/126/1 73/127/1
f 75/128/6 78/129/6 74/130/6
f 76/131/3 79/132/3 75/133/3
f 73/134/5 80/135/5 76/136/5
f 83/137/4 82/138/4 81/139/4
f 84/140/2 85/141/2 86/142/2
f 82/143/11 84/144/11 81/145/11
f 83/146/12 85/147/12 82/143/12
f 81/148/5 86/149/5 83/150/5
f 92/151/4 90/152/4 88/153/4
f 95/154/2 97/155/2 99/156/2
f 88/157/1 94/158/1 87/159/1
f 89/160/13 95/161/13 88/157/13
f 90/162/14 96/163/14 89/160/14
f 91/164/15 97/165/15 90/166/15
f 92/167/16 98/168/16 91/164/16
f 93/169/3 99/170/3 92/167/3
f 87/171/5 100/172/5 93/173/5
f 102/174/1 103/175/1 101/176/1
f 104/177/2 107/178/2 103/179/2
f 108/180/3 105/181/3 107/182/3
f 106/183/4 101/184/4 105/185/4
f 107/186/5 101/187/5 103/188/5
f 104/189/6 106/190/6 108/191/6
f 110/192/1 111/193/1 109/194/1
f 112/195/2 115/196/2 111/197/2
f 116/198/3 113/199/3 115/200/3
f 114/201/4 109/202/4 113/203/4
f 115/204/5 109/205/5 111/206/5
f 112/207/6 114/208/6 116/209/6
f 119/210/4 117/211/4 120/212/4
f 122/213/2 124/214/2 121/215/2
f 118/216/1 121/217/1 117/218/1
f 119/219/6 122/220/6 118/221/6
f 120/222/3 123/223/3 119/224/3
f 117/225/5 124/226/5 120/227/5
f 127/228/4 126/229/4 125/230/4
f 128/231/2 129/232/2 130/233/2
f 126/234/17 128/235/17 125/236/17
f 127/237/18 129/238/18 126/234/18
f 125/239/5 130/240/5 127/241/5
f 133/242/4 131/243/4 134/244/4
f 136/245/2 138/246/2 135/247/2
f 132/248/1 135/249/1 131/250/1
f 133/251/6 136/252/6 132/253/6
f 134/254/3 137/255/3 133/256/3
f 131/257/5 138/258/5 134/259/5
f 141/260/4 140/261/4 139/262/4
f 142/263/2 143/264/2 144/265/2
f 140/266/19 142/267/19 139/268/19
f 141/269/20 143/270/20 140/271/20
f 139/272/5 144/273/5 141/274/5
f 146/275/1 147/276/1 145/277/1
f 148/278/2 151/279/2 147/280/2
f 152/281/3 149/282/3 151/283/3
f 150/284/4 145/285/4 149/286/4
f 151/287/5 145/288/5 147/289/5
f 148/290/6 150/291/6 152/292/6
f 154/293/1 155/294/1 153/295/1
f 156/296/2 159/297/2 155/298/2
f 160/299/3 157/300/3 159/301/3
f 158/302/4 153/303/4 157/304/4
f 159/305/5 153/306/5 155/307/5
f 156/308/6 158/309/6 160/310/6
f 162/311/1 163/312/1 161/313/1
f 164/314/2 167/315/2 163/316/2
f 168/317/3 165/318/3 167/319/3
f 166/320/4 161/321/4 165/322/4
f 167/323/5 161/324/5 163/325/5
f 164/326/6 166/327/6 168/328/6
f 170/329/1 171/330/1 169/331/1
f 172/332/2 175/333/2 171/334/2
f 176/335/3 173/336/3 175/337/3
f 174/338/4 169/339/4 173/340/4
f 175/341/5 169/342/5 171/343/5
f 172/344/6 174/345/6 176/346/6
f 178/347/1 179/348/1 177/349/1
f 180/350/2 183/351/2 179/352/2
f 184/353/3 181/354/3 183/355/3
f 182/356/4 177/357/4 181/358/4
f 183/359/5 177/360/5 179/361/5
f 180/362/6 182/363/6 184/364/6
f 186/365/1 187/366/1 185/367/1
f 188/368/2 191/369/2 187/370/2
f 192/371/3 189/372/3 191/373/3
f 190/374/4 185/375/4 189/376/4
f 191/377/5 185/378/5 187/379/5
f 188/380/6 190/381/6 192/382/6
f 194/383/1 195/384/1 193/385/1
f 196/386/2 199/387/2 195/388/2
f 200/389/3 197/390/3 199/391/3
f 198/392/4 193/393/4 197/394/4
f 199/395/5 193/396/5 195/397/5
f 196/398/6 198/399/6 200/400/6
f 202/401/1 203/402/1 201/403/1
f 204/404/2 207/405/2 203/406/2
f 208/407/3 205/408/3 207/409/3
f 206/410/4 201/411/4 205/412/4
f 207/413/5 201/414/5 203/415/5
f 204/416/6 206/417/6 208/418/6
f 210/419/1 211/420/1 209/421/1
f 212/422/2 215/423/2 211/424/2
f 216/425/3 213/426/3 215/427/3
f 214/428/4 209/429/4 213/430/4
f 215/431/5 209/432/5 211/433/5
f 212/434/6 214/435/6 216/436/6
f 218/437/1 219/438/1 217/439/1
f 220/440/2 223/441/2 219/442/2
f 224/443/3 221/444/3 223/445/3
f 222/446/4 217/447/4 221/448/4
f 223/449/5 217/450/5 219/451/5
f 220/452/6 222/453/6 224/454/6
f 226/455/1 227/456/1 225/457/1
f 228/458/2 231/459/2 227/460/2
f 232/461/3 229/462/3 231/463/3
f 230/464/4 225/465/4 229/466/4
f 231/467/5 225/468/5 227/469/5
f 228/470/6 230/471/6 232/472/6
f 234/473/1 235/474/1 233/475/1
f 236/476/2 239/477/2 235/478/2
f 240/479/3 237/480/3 239/481/3
f 238/482/4 233/483/4 237/484/4
f 239/485/5 233/486/5 235/487/5
f 236/488/6 238/489/6 240/490/6
f 242/491/1 243/492/1 241/493/1
f 244/494/2 247/495/2 243/496/2
f 248/497/3 245/498/3 247/499/3
f 246/500/4 241/501/4 245/502/4
f 247/503/5 241/504/5 243/505/5
f 244/506/6 246/507/6 248/508/6
f 250/509/1 251/510/1 249/511/1
f 252/512/2 255/513/2 251/514/2
f 256/515/3 253/516/3 255/517/3
f 254/518/4 249/519/4 253/520/4
f 255/521/5 249/522/5 251/523/5
f 252/524/6 254/525/6 256/526/6
f 258/527/1 259/528/1 257/529/1
f 260/530/2 263/531/2 259/532/2
f 264/533/3 261/534/3 263/535/3
f 262/536/4 257/537/4 261/538/4
f 263/539/5 257/540/5 259/541/5
f 260/542/6 262/543/6 264/544/6
f 266/545/1 267/546/1 265/547/1
f 268/548/2 271/549/2 267/550/2
f 272/551/3 269/552/3 271/553/3
f 270/554/4 265/555/4 269/556/4
f 271/557/5 265/558/5 267/559/5
f 268/560/6 270/561/6 272/562/6
f 274/563/1 275/564/1 273/565/1
f 276/566/2 279/567/2 275/568/2
f 280/569/3 277/570/3 279/571/3
f 278/572/4 273/573/4 277/574/4
f 279/575/5 273/576/5 275/577/5
f 276/578/6 278/579/6 280/580/6
f 282/581/1 283/582/1 281/583/1
f 284/584/2 287/585/2 283/586/2
f 288/587/3 285/588/3 287/589/3
f 286/590/4 281/591/4 285/592/4
f 287/593/5 281/594/5 283/595/5
f 284/596/6 286/597/6 288/598/6
f 290/599/1 291/600/1 289/601/1
f 292/602/2 295/603/2 291/604/2
f 296/605/3 293/606/3 295/607/3
f 294/608/4 289/609/4 293/610/4
f 295/611/5 289/612/5 291/613/5
f 292/614/6 294/615/6 296/616/6
f 298/617/1 299/618/1 297/619/1
f 300/620/2 303/621/2 299/622/2
f 304/623/3 301/624/3 303/625/3
f 302/626/4 297/627/4 301/628/4
f 303/629/5 297/630/5 299/631/5
f 300/632/6 302/633/6 304/634/6
f 306/635/1 307/636/1 305/637/1
f 308/638/2 311/639/2 307/640/2
f 312/641/3 309/642/3 311/643/3
f 310/644/4 305/645/4 309/646/4
f 311/647/5 305/648/5 307/649/5
f 308/650/6 310/651/6 312/652/6
f 2/1/1 4/653/1 3/2/1
f 4/4/2 8/654/2 7/5/2
f 8/7/3 6/655/3 5/8/3
f 6/10/4 2/656/4 1/11/4
f 7/13/5 5/657/5 1/14/5
f 4/16/6 2/658/6 6/17/6
f 10/19/4 19/23/4 18/20/4
f 11/22/4 20/25/4 19/23/4
f 12/24/4 21/27/4 20/25/4
f 13/26/4 22/29/4 21/27/4
f 14/28/4 23/31/4 22/29/4
f 15/30/4 24/33/4 23/31/4
f 16/32/4 25/35/4 24/33/4
f 17/34/4 26/43/4 25/35/4
f 19/23/4 28/37/4 27/36/4
f 20/25/4 29/38/4 28/37/4
f 21/27/4 30/39/4 29/38/4
f 22/29/4 31/40/4 30/39/4
f 23/31/4 32/41/4 31/40/4
f 24/33/4 33/42/4 32/41/4
f 25/35/4 34/44/4 33/42/4
f 26/43/4 35/52/4 34/44/4
f 28/37/4 37/46/4 36/45/4
f 29/38/4 38/47/4 37/46/4
f 30/39/4 39/48/4 38/47/4
f 31/40/4 40/49/4 39/48/4
f 32/41/4 41/50/4 40/49/4
f 33/42/4 42/51/4 41/50/4
f 34/44/4 43/53/4 42/51/4
f 35/52/4 44/659/4 43/53/4
f 47/54/4 46/660/4 45/55/4
f 50/57/2 51/661/2 52/58/2
f 46/60/1 50/662/1 49/61/1
f 47/63/6 51/663/6 50/64/6
f 48/66/3 52/664/3 51/67/3
f 45/69/5 49/665/5 52/70/5
f 54/78/7 57/82/7 56/79/7
f 55/81/8 58/666/8 57/82/8
f 53/83/5 56/667/5 58/84/5
f 61/86/4 60/668/4 59/87/4
f 64/89/2 65/669/2 66/90/2
f 60/92/1 64/670/1 63/93/1
f 61/95/6 65/671/6 64/96/6
f 62/98/3 66/672/3 65/99/3
f 59/101/5 63/673/5 66/102/5
f 68/110/9 71/674/9 70/111/9
f 69/113/10 72/675/10 71/114/10
f 67/116/5 70/676/5 72/117/5
f 75/119/4 74/677/4 73/120/4
f 78/122/2 79/678/2 80/123/2
f 74/125/1 78/679/1 77/126/1
f 75/128/6 79/680/6 78/129/6
f 76/131/3 80/681/3 79/132/3
f 73/134/5 77/682/5 80/135/5
f 82/143/11 85/147/11 84/144/11
f 83/146/12 86/683/12 85/147/12
f 81/148/5 84/684/5 86/149/5
f 87/685/4 93/686/4 92/151/4
f 92/151/4 91/687/4 90/152/4
f 90/152/4 89/688/4 88/153/4
f 88/153/4 87/685/4 92/151/4
f 100/689/2 94/690/2 95/154/2
f 95/154/2 96/691/2 97/155/2
f 97/155/2 98/692/2 99/156/2
f 99/156/2 100/689/2 95/154/2
f 88/157/1 95/161/1 94/158/1
f 89/160/13 96/163/13 95/161/13
f 90/162/14 97/693/14 96/163/14
f 91/164/15 98/168/15 97/165/15
f 92/167/16 99/170/16 98/168/16
f 93/169/3 100/694/3 99/170/3
f 87/171/5 94/695/5 100/172/5
f 102/174/1 104/696/1 103/175/1
f 104/177/2 108/697/2 107/178/2
f 108/180/3 106/698/3 105/181/3
f 106/183/4 102/699/4 101/184/4
f 107/186/5 105/700/5 101/187/5
f 104/189/6 102/701/6 106/190/6
f 110/192/1 112/702/1 111/193/1
f 112/195/2 116/703/2 115/196/2
f 116/198/3 114/704/3 113/199/3
f 114/201/4 110/705/4 109/202/4
f 115/204/5 113/706/5 109/205/5
f 112/207/6 110/707/6 114/208/6
f 119/210/4 118/708/4 117/211/4
f 122/213/2 123/709/2 124/214/2
f 118/216/1 122/710/1 121/217/1
f 119/219/6 123/711/6 122/220/6
f 120/222/3 124/712/3 123/223/3
f 117/225/5 121/713/5 124/226/5
f 126/234/17 129/238/17 128/235/17
f 127/237/18 130/714/18 129/238/18
f 125/239/5 128/715/5 130/240/5
f 133/242/4 132/716/4 131/243/4
f 136/245/2 137/717/2 138/246/2
f 132/248/1 136/718/1 135/249/1
f 133/251/6 137/719/6 136/252/6
f 134/254/3 138/720/3 137/255/3
f 131/257/5 135/721/5 138/258/5
f 140/266/19 143/722/19 142/267/19
f 141/269/20 144/723/20 143/270/20
f 139/272/5 142/724/5 144/273/5
f 146/275/1 148/725/1 147/276/1
f 148/278/2 152/726/2 151/279/2
f 152/281/3 150/727/3 149/282/3
f 150/284/4 146/728/4 145/285/4
f 151/287/5 149/729/5 145/288/5
f 148/290/6 146/730/6 150/291/6
f 154/293/1 156/731/1 155/294/1
f 156/296/2 160/732/2 159/297/2
f 160/299/3 158/733/3 157/300/3
f 158/302/4 154/734/4 153/303/4
f 159/305/5 157/735/5 153/306/5
f 156/308/6 154/736/6 158/309/6
f 162/311/1 164/737/1 163/312/1
f 164/314/2 168/738/2 167/315/2
f 168/317/3 166/739/3 165/318/3
f 166/320/4 162/740/4 161/321/4
f 167/323/5 165/741/5 161/324/5
f 164/326/6 162/742/6 166/327/6
f 170/329/1 172/743/1 171/330/1
f 172/332/2 176/744/2 175/333/2
f 176/335/3 174/745/3 173/336/3
f 174/338/4 170/746/4 169/339/4
f 175/341/5 173/747/5 169/342/5
f 172/344/6 170/748/6 174/345/6
f 178/347/1 180/749/1 179/348/1
f 180/350/2 184/750/2 183/351/2
f 184/353/3 182/751/3 181/354/3
f 182/356/4 178/752/4 177/357/4
f 183/359/5 181/753/5 177/360/5
f 180/362/6 178/754/6 182/363/6
f 186/365/1 188/755/1 187/366/1
f 188/368/2 192/756/2 191/369/2
f 192/371/3 190/757/3 189/372/3
f 190/374/4 186/758/4 185/375/4
f 191/377/5 189/759/5 185/378/5
f 188/380/6 186/760/6 190/381/6
f 194/383/1 196/761/1 195/384/1
f 196/386/2 200/762/2 199/387/2
f 200/389/3 198/763/3 197/390/3
f 198/392/4 194/764/4 193/393/4
f 199/395/5 197/765/5 193/396/5
f 196/398/6 194/766/6 198/399/6
f 202/401/1 204/767/1 203/402/1
f 204/404/2 208/768/2 207/405/2
f 208/407/3 206/769/3 205/408/3
f 206/410/4 202/770/4 201/411/4
f 207/413/5 205/771/5 201/414/5
f 204/416/6 202/772/6 206/417/6
f 210/419/1 212/773/1 211/420/1
f 212/422/2 216/774/2 215/423/2
f 216/425/3 214/775/3 213/426/3
f 214/428/4 210/776/4 209/429/4
f 215/431/5 213/777/5 209/432/5
f 212/434/6 210/778/6 214/435/6
f 218/437/1 220/779/1 219/438/1
f 220/440/2 224/780/2 223/441/2
f 224/443/3 222/781/3 221/444/3
f 222/446/4 218/782/4 217/447/4
f 223/449/5 221/783/5 217/450/5
f 220/452/6 218/784/6 222/453/6
f 226/455/1 228/785/1 227/456/1
f 228/458/2 232/786/2 231/459/2
f 232/461/3 230/787/3 229/462/3
f 230/464/4 226/788/4 225/465/4
f 231/467/5 229/789/5 225/468/5
f 228/470/6 226/790/6 230/471/6
f 234/473/1 236/791/1 235/474/1
f 236/476/2 240/792/2 239/477/2
f 240/479/3 238/793/3 237/480/3
f 238/482/4 234/794/4 233/483/4
f 239/485/5 237/795/5 233/486/5
f 236/488/6 234/796/6 238/489/6
f 242/491/1 244/797/1 243/492/1
f 244/494/2 248/798/2 247/495/2
f 248/497/3 246/799/3 245/498/3
f 246/500/4 242/800/4 241/501/4
f 247/503/5 245/801/5 241/504/5
f 244/506/6 242/802/6 246/507/6
f 250/509/1 252/803/1 251/510/1
f 252/512/2 256/804/2 255/513/2
f 256/515/3 254/805/3 253/516/3
f 254/518/4 250/806/4 249/519/4
f 255/521/5 253/807/5 249/522/5
f 252/524/6 250/808/6 254/525/6
f 258/527/1 260/809/1 259/528/1
f 260/530/2 264/810/2 263/531/2
f 264/533/3 262/811/3 261/534/3
f 262/536/4 258/812/4 257/537/4
f 263/539/5 261/813/5 257/540/5
f 260/542/6 258/814/6 262/543/6
f 266/545/1 268/815/1 267/546/1
f 268/548/2 272/816/2 271/549/2
f 272/551/3 270/817/3 269/552/3
f 270/554/4 266/818/4 265/555/4
f 271/557/5 269/819/5 265/558/5
f 268/560/6 266/820/6 270/561/6
f 274/563/1 276/821/1 275/564/1
f 276/566/2 280/822/2 279/567/2
f 280/569/3 278/823/3 277/570/3
f 278/572/4 274/824/4 273/573/4
f 279/575/5 277/825/5 273/576/5
f 276/578/6 274/826/6 278/579/6
f 282/581/1 284/827/1 283/582/1
f 284/584/2 288/828/2 287/585/2
f 288/587/3 286/829/3 285/588/3
f 286/590/4 282/830/4 281/591/4
f 287/593/5 285/831/5 281/594/5
f 284/596/6 282/832/6 286/597/6
f 290/599/1 292/833/1 291/600/1
f 292/602/2 296/834/2 295/603/2
f 296/605/3 294/835/3 293/606/3
f 294/608/4 290/836/4 289/609/4
f 295/611/5 293/837/5 289/612/5
f 292/614/6 290/838/6 294/615/6
f 298/617/1 300/839/1 299/618/1
f 300/620/2 304/840/2 303/621/2
f 304/623/3 302/841/3 301/624/3
f 302/626/4 298/842/4 297/627/4
f 303/629/5 301/843/5 297/630/5
f 300/632/6 298/844/6 302/633/6
f 306/635/1 308/845/1 307/636/1
f 308/638/2 312/846/2 311/639/2
f 312/641/3 310/847/3 309/642/3
f 310/644/4 306/848/4 305/645/4
f 311/647/5 309/849/5 305/648/5
f 308/650/6 306/850/6 310/651/6
