# Blender 5.2.2 LTS
# www.blender.org
o service_annex_collision
v -4.000000 -0.000000 -3.000000
v 4.000000 -0.000000 -3.000000
v 4.000000 2.200000 -3.000000
v -4.000000 2.200000 -3.000000
v -4.000000 0.000000 3.000000
v 4.000000 0.000000 3.000000
v 4.000000 2.200000 3.000000
v -4.000000 2.200000 3.000000
v -4.000000 -0.000000 -3.000000
v -4.000000 0.000000 3.000000
v -4.000000 2.200000 3.000000
v -4.000000 2.200000 -3.000000
v 4.000000 -0.000000 -3.000000
v 4.000000 0.000000 3.000000
v 4.000000 2.200000 3.000000
v 4.000000 2.200000 -3.000000
v -0.350000 -0.000000 -1.250000
v 0.850000 -0.000000 -1.250000
v 0.850000 0.000000 0.250000
v -0.350000 0.000000 0.250000
v -0.350000 1.100000 -1.250000
v 0.850000 1.100000 -1.250000
v 0.850000 1.100000 0.250000
v -0.350000 1.100000 0.250000
v 1.450000 -0.000000 -0.250000
v 2.250000 -0.000000 -0.250000
v 2.250000 0.000000 0.550000
v 1.450000 0.000000 0.550000
v 1.450000 0.850000 -0.250000
v 2.250000 0.850000 -0.250000
v 2.250000 0.850000 0.550000
v 1.450000 0.850000 0.550000
vn -0.0000 -0.0000 1.0000
vn -0.0000 -0.0000 -1.0000
vn -1.0000 -0.0000 -0.0000
vn 1.0000 -0.0000 -0.0000
vn -0.0000 -1.0000 -0.0000
s 0
f 2//1 4//1 1//1
f 8//2 6//2 5//2
f 10//3 12//3 9//3
f 16//4 14//4 13//4
f 18//1 21//1 17//1
f 19//3 22//3 18//3
f 20//2 23//2 19//2
f 17//4 24//4 20//4
f 22//5 24//5 21//5
f 26//1 29//1 25//1
f 27//3 30//3 26//3
f 28//2 31//2 27//2
f 25//4 32//4 28//4
f 30//5 32//5 29//5
f 2//1 3//1 4//1
f 8//2 7//2 6//2
f 10//3 11//3 12//3
f 16//4 15//4 14//4
f 18//1 22//1 21//1
f 19//3 23//3 22//3
f 20//2 24//2 23//2
f 17//4 21//4 24//4
f 22//5 23//5 24//5
f 26//1 30//1 29//1
f 27//3 31//3 30//3
f 28//2 32//2 31//2
f 25//4 29//4 32//4
f 30//5 31//5 32//5
