mtllib walk.mtl
usemtl stone
v -0.6 0.0 -0.449998
v 0.6 0.0 -0.449998
v -0.6 0.2 -0.446087
v 0.6 0.2 -0.446087
v -0.6 0.4 -0.442174
v 0.6 0.4 -0.442174
v -0.6 0.6 -0.438261
v 0.6 0.6 -0.438261
v -0.6 0.8 -0.434348
v 0.6 0.8 -0.434348
v -0.6 1.0 -0.430435
v 0.6 1.0 -0.430435
v -0.6 1.2 -0.426522
v 0.6 1.2 -0.426522
v -0.6 1.4 -0.422608
v 0.6 1.4 -0.422608
v -0.6 1.6 -0.418695
v 0.6 1.6 -0.418695
v -0.6 1.8 -0.414782
v 0.6 1.8 -0.414782
v -0.6 2.0 -0.410869
v 0.6 2.0 -0.410869
v -0.6 2.2 -0.406957
v 0.6 2.2 -0.406957
v -0.6 2.4 -0.403044
v 0.6 2.4 -0.403044
v -0.6 2.6 -0.399131
v 0.6 2.6 -0.399131
v -0.6 2.8 -0.395217
v 0.6 2.8 -0.395217
v -0.6 3.0 -0.391305
v 0.6 3.0 -0.391305
v -0.6 3.2 -0.387391
v 0.6 3.2 -0.387391
v -0.6 3.4 -0.383478
v 0.6 3.4 -0.383478
v -0.6 3.6 -0.379565
v 0.6 3.6 -0.379565
v -0.6 3.8 -0.375652
v 0.6 3.8 -0.375652
v -0.6 4.0 -0.371739
v 0.6 4.0 -0.371739
v -0.6 4.2 -0.367826
v 0.6 4.2 -0.367826
v -0.6 4.4 -0.363913
v 0.6 4.4 -0.363913
v -0.6 4.6 -0.36
v 0.6 4.6 -0.36
v -0.6 4.8 -0.356087
v 0.6 4.8 -0.356087
v -0.6 5.0 -0.352174
v 0.6 5.0 -0.352174
v -0.6 5.2 -0.348261
v 0.6 5.2 -0.348261
v -0.6 5.4 -0.344348
v 0.6 5.4 -0.344348
v -0.6 5.6 -0.340434
v 0.6 5.6 -0.340434
v -0.6 5.8 -0.336522
v 0.6 5.8 -0.336522
v -0.6 6.0 -0.332609
v 0.6 6.0 -0.332609
v -0.6 6.2 -0.328696
v 0.6 6.2 -0.328696
v -0.6 6.4 -0.324782
v 0.6 6.4 -0.324782
v -0.6 6.6 -0.320869
v 0.6 6.6 -0.320869
v -0.6 6.8 -0.316956
v 0.6 6.8 -0.316956
v -0.6 7.0 -0.313043
v 0.6 7.0 -0.313043
v -0.6 7.2 -0.309131
v 0.6 7.2 -0.309131
v -0.6 7.4 -0.305217
v 0.6 7.4 -0.305217
v -0.6 7.6 -0.301304
v 0.6 7.6 -0.301304
v -0.6 7.8 -0.297391
v 0.6 7.8 -0.297391
v -0.6 8.0 -0.293479
v 0.6 8.0 -0.293479
v -0.6 8.2 -0.289565
v 0.6 8.2 -0.289565
v -0.6 8.4 -0.285652
v 0.6 8.4 -0.285652
v -0.6 8.6 -0.281739
v 0.6 8.6 -0.281739
v -0.6 8.8 -0.277826
v 0.6 8.8 -0.277826
v -0.6 9.0 -0.273913
v 0.6 9.0 -0.273913
v -0.6 9.2 -0.27
v 0.6 9.2 -0.27
v -0.6 9.4 -0.266087
v 0.6 9.4 -0.266087
v -0.6 9.6 -0.262174
v 0.6 9.6 -0.262174
v -0.6 9.8 -0.258261
v 0.6 9.8 -0.258261
v -0.6 10.0 -0.254348
v 0.6 10.0 -0.254348
v -0.6 10.2 -0.250434
v 0.6 10.2 -0.250434
v -0.6 10.4 -0.246522
v 0.6 10.4 -0.246522
v -0.6 10.6 -0.242609
v 0.6 10.6 -0.242609
v -0.6 10.8 -0.238696
v 0.6 10.8 -0.238696
v -0.6 11.0 -0.234783
v 0.6 11.0 -0.234783
v -0.6 11.2 -0.230869
v 0.6 11.2 -0.230869
v -0.6 11.4 -0.226957
v 0.6 11.4 -0.226957
v -0.6 11.6 -0.223043
v 0.6 11.6 -0.223043
v -0.6 11.8 -0.21913
v 0.6 11.8 -0.21913
v -0.6 12.0 -0.215217
v 0.6 12.0 -0.215217
v -0.6 12.2 -0.211305
v 0.6 12.2 -0.211305
v -0.6 12.4 -0.207391
v 0.6 12.4 -0.207391
v -0.6 12.6 -0.203478
v 0.6 12.6 -0.203478
v -0.6 12.8 -0.199565
v 0.6 12.8 -0.199565
v -0.6 13.0 -0.195652
v 0.6 13.0 -0.195652
v -0.6 13.2 -0.191739
v 0.6 13.2 -0.191739
v -0.6 13.4 -0.187826
v 0.6 13.4 -0.187826
v -0.6 13.6 -0.183913
v 0.6 13.6 -0.183913
v -0.6 13.8 -0.18
v 0.6 13.8 -0.18
v -0.6 14.0 -0.176087
v 0.6 14.0 -0.176087
v -0.6 14.2 -0.172174
v 0.6 14.2 -0.172174
v -0.6 14.4 -0.168261
v 0.6 14.4 -0.168261
v -0.6 14.6 -0.164348
v 0.6 14.6 -0.164348
v -0.6 14.8 -0.160435
v 0.6 14.8 -0.160435
v -0.6 15.0 -0.156522
v 0.6 15.0 -0.156522
v -0.6 15.2 -0.152609
v 0.6 15.2 -0.152609
v -0.6 15.4 -0.148696
v 0.6 15.4 -0.148696
v -0.6 15.6 -0.144782
v 0.6 15.6 -0.144782
v -0.6 15.8 -0.140869
v 0.6 15.8 -0.140869
v -0.6 16.0 -0.136957
v 0.6 16.0 -0.136957
v -0.6 16.2 -0.133044
v 0.6 16.2 -0.133044
v -0.6 16.4 -0.12913
v 0.6 16.4 -0.12913
v -0.6 16.6 -0.125217
v 0.6 16.6 -0.125217
v -0.6 16.8 -0.121304
v 0.6 16.8 -0.121304
v -0.6 17.0 -0.117391
v 0.6 17.0 -0.117391
v -0.6 17.2 -0.113478
v 0.6 17.2 -0.113478
v -0.6 17.4 -0.109565
v 0.6 17.4 -0.109565
v -0.6 17.6 -0.105652
v 0.6 17.6 -0.105652
v -0.6 17.8 -0.101739
v 0.6 17.8 -0.101739
v -0.6 18.0 -0.097826
v 0.6 18.0 -0.097826
v -0.6 18.2 -0.093913
v 0.6 18.2 -0.093913
v -0.6 18.4 -0.09
v 0.6 18.4 -0.09
v -0.6 18.6 -0.086087
v 0.6 18.6 -0.086087
v -0.6 18.8 -0.082174
v 0.6 18.8 -0.082174
v -0.6 19.0 -0.078261
v 0.6 19.0 -0.078261
v -0.6 19.2 -0.074348
v 0.6 19.2 -0.074348
v -0.6 19.4 -0.070434
v 0.6 19.4 -0.070434
v -0.6 19.6 -0.066522
v 0.6 19.6 -0.066522
v -0.6 19.8 -0.062609
v 0.6 19.8 -0.062609
v -0.6 20.0 -0.058695
v 0.6 20.0 -0.058695
v -0.6 20.2 -0.054782
v 0.6 20.2 -0.054782
v -0.6 20.4 -0.050869
v 0.6 20.4 -0.050869
v -0.6 20.6 -0.046956
v 0.6 20.6 -0.046956
v -0.6 20.8 -0.043043
v 0.6 20.8 -0.043043
v -0.6 21.0 -0.039131
v 0.6 21.0 -0.039131
v -0.6 21.2 -0.035218
v 0.6 21.2 -0.035218
v -0.6 21.4 -0.031305
v 0.6 21.4 -0.031305
v -0.6 21.6 -0.02739
v 0.6 21.6 -0.02739
v -0.6 21.8 -0.023478
v 0.6 21.8 -0.023478
v -0.6 22.0 -0.019565
v 0.6 22.0 -0.019565
v -0.6 22.2 -0.015652
v 0.6 22.2 -0.015652
v -0.6 22.4 -0.011739
v 0.6 22.4 -0.011739
v -0.6 22.6 -0.007826
v 0.6 22.6 -0.007826
v -0.6 22.8 -0.003913
v 0.6 22.8 -0.003913
v -0.6 23.0 -0.0
v 0.6 23.0 -0.0
v -0.6 23.2 0.003913
v 0.6 23.2 0.003913
v -0.6 23.4 0.007826
v 0.6 23.4 0.007826
v -0.6 23.6 0.011739
v 0.6 23.6 0.011739
v -0.6 23.8 0.015652
v 0.6 23.8 0.015652
v -0.6 24.0 0.019565
v 0.6 24.0 0.019565
v -0.6 24.2 0.023478
v 0.6 24.2 0.023478
v -0.6 24.4 0.027391
v 0.6 24.4 0.027391
v -0.6 24.6 0.031304
v 0.6 24.6 0.031304
v -0.6 24.8 0.035217
v 0.6 24.8 0.035217
v -0.6 25.0 0.039131
v 0.6 25.0 0.039131
v -0.6 25.2 0.043043
v 0.6 25.2 0.043043
v -0.6 25.4 0.046957
v 0.6 25.4 0.046957
v -0.6 25.6 0.05087
v 0.6 25.6 0.05087
v -0.6 25.8 0.054783
v 0.6 25.8 0.054783
v -0.6 26.0 0.058695
v 0.6 26.0 0.058695
v -0.6 26.2 0.062608
v 0.6 26.2 0.062608
v -0.6 26.4 0.066521
v 0.6 26.4 0.066521
v -0.6 26.6 0.070436
v 0.6 26.6 0.070436
v -0.6 26.8 0.074348
v 0.6 26.8 0.074348
v -0.6 27.0 0.07826
v 0.6 27.0 0.07826
v -0.6 27.2 0.082174
v 0.6 27.2 0.082174
v -0.6 27.4 0.086087
v 0.6 27.4 0.086087
v -0.6 27.6 0.09
v 0.6 27.6 0.09
v -0.6 27.8 0.093913
v 0.6 27.8 0.093913
v -0.6 28.0 0.097826
v 0.6 28.0 0.097826
v -0.6 28.2 0.10174
v 0.6 28.2 0.10174
v -0.6 28.4 0.105652
v 0.6 28.4 0.105652
v -0.6 28.6 0.109565
v 0.6 28.6 0.109565
v -0.6 28.8 0.113478
v 0.6 28.8 0.113478
v -0.6 29.0 0.117391
v 0.6 29.0 0.117391
v -0.6 29.2 0.121304
v 0.6 29.2 0.121304
v -0.6 29.4 0.125217
v 0.6 29.4 0.125217
v -0.6 29.6 0.12913
v 0.6 29.6 0.12913
v -0.6 29.8 0.133044
v 0.6 29.8 0.133044
v -0.6 30.0 0.136957
v 0.6 30.0 0.136957
v -0.6 30.2 0.14087
v 0.6 30.2 0.14087
v -0.6 30.4 0.144783
v 0.6 30.4 0.144783
v -0.6 30.6 0.148696
v 0.6 30.6 0.148696
v -0.6 30.8 0.152609
v 0.6 30.8 0.152609
v -0.6 31.0 0.156521
v 0.6 31.0 0.156521
v -0.6 31.2 0.160434
v 0.6 31.2 0.160434
v -0.6 31.4 0.164348
v 0.6 31.4 0.164348
v -0.6 31.6 0.168261
v 0.6 31.6 0.168261
v -0.6 31.8 0.172174
v 0.6 31.8 0.172174
v -0.6 32.0 0.176087
v 0.6 32.0 0.176087
v -0.6 32.2 0.18
v 0.6 32.2 0.18
v -0.6 32.4 0.183913
v 0.6 32.4 0.183913
v -0.6 32.6 0.187826
v 0.6 32.6 0.187826
v -0.6 32.8 0.19174
v 0.6 32.8 0.19174
v -0.6 33.0 0.195652
v 0.6 33.0 0.195652
v -0.6 33.2 0.199566
v 0.6 33.2 0.199566
v -0.6 33.4 0.203478
v 0.6 33.4 0.203478
v -0.6 33.6 0.207391
v 0.6 33.6 0.207391
v -0.6 33.8 0.211304
v 0.6 33.8 0.211304
v -0.6 34.0 0.215217
v 0.6 34.0 0.215217
v -0.6 34.2 0.219131
v 0.6 34.2 0.219131
v -0.6 34.4 0.223043
v 0.6 34.4 0.223043
v -0.6 34.6 0.226957
v 0.6 34.6 0.226957
v -0.6 34.8 0.23087
v 0.6 34.8 0.23087
v -0.6 35.0 0.234783
v 0.6 35.0 0.234783
v -0.6 35.2 0.238696
v 0.6 35.2 0.238696
v -0.6 35.4 0.242609
v 0.6 35.4 0.242609
v -0.6 35.6 0.246523
v 0.6 35.6 0.246523
v -0.6 35.8 0.250435
v 0.6 35.8 0.250435
v -0.6 36.0 0.254348
v 0.6 36.0 0.254348
v -0.6 36.2 0.25826
v 0.6 36.2 0.25826
v -0.6 36.4 0.262174
v 0.6 36.4 0.262174
v -0.6 36.6 0.266087
v 0.6 36.6 0.266087
v -0.6 36.8 0.27
v 0.6 36.8 0.27
v -0.6 37.0 0.273913
v 0.6 37.0 0.273913
v -0.6 37.2 0.277826
v 0.6 37.2 0.277826
v -0.6 37.4 0.28174
v 0.6 37.4 0.28174
v -0.6 37.6 0.285652
v 0.6 37.6 0.285652
v -0.6 37.8 0.289565
v 0.6 37.8 0.289565
v -0.6 38.0 0.293478
v 0.6 38.0 0.293478
v -0.6 38.2 0.297392
v 0.6 38.2 0.297392
v -0.6 38.4 0.301305
v 0.6 38.4 0.301305
v -0.6 38.6 0.305217
v 0.6 38.6 0.305217
v -0.6 38.8 0.309131
v 0.6 38.8 0.309131
v -0.6 39.0 0.313043
v 0.6 39.0 0.313043
v -0.6 39.2 0.316956
v 0.6 39.2 0.316956
v -0.6 39.4 0.320869
v 0.6 39.4 0.320869
v -0.6 39.6 0.324783
v 0.6 39.6 0.324783
v -0.6 39.8 0.328696
v 0.6 39.8 0.328696
v -0.6 40.0 0.332609
v 0.6 40.0 0.332609
v -0.6 40.2 0.336522
v 0.6 40.2 0.336522
v -0.6 40.4 0.340435
v 0.6 40.4 0.340435
v -0.6 40.6 0.344349
v 0.6 40.6 0.344349
v -0.6 40.8 0.348261
v 0.6 40.8 0.348261
v -0.6 41.0 0.352173
v 0.6 41.0 0.352173
v -0.6 41.2 0.356086
v 0.6 41.2 0.356086
v -0.6 41.4 0.36
v 0.6 41.4 0.36
v -0.6 41.6 0.363914
v 0.6 41.6 0.363914
v -0.6 41.8 0.367826
v 0.6 41.8 0.367826
v -0.6 42.0 0.371739
v 0.6 42.0 0.371739
v -0.6 42.2 0.375652
v 0.6 42.2 0.375652
v -0.6 42.4 0.379566
v 0.6 42.4 0.379566
v -0.6 42.6 0.383478
v 0.6 42.6 0.383478
v -0.6 42.8 0.387392
v 0.6 42.8 0.387392
v -0.6 43.0 0.391304
v 0.6 43.0 0.391304
v -0.6 43.2 0.395218
v 0.6 43.2 0.395218
v -0.6 43.4 0.39913
v 0.6 43.4 0.39913
v -0.6 43.6 0.403043
v 0.6 43.6 0.403043
v -0.6 43.8 0.406956
v 0.6 43.8 0.406956
v -0.6 44.0 0.410869
v 0.6 44.0 0.410869
v -0.6 44.2 0.414782
v 0.6 44.2 0.414782
v -0.6 44.4 0.418695
v 0.6 44.4 0.418695
v -0.6 44.6 0.422609
v 0.6 44.6 0.422609
v -0.6 44.8 0.426521
v 0.6 44.8 0.426521
v -0.6 45.0 0.430435
v 0.6 45.0 0.430435
v -0.6 45.2 0.434348
v 0.6 45.2 0.434348
v -0.6 45.4 0.438261
v 0.6 45.4 0.438261
v -0.6 45.6 0.442175
v 0.6 45.6 0.442175
v -0.6 45.8 0.446087
v 0.6 45.8 0.446087
v -0.6 46.0 0.449999
v 0.6 46.0 0.449999
f 1 2 4 3
f 3 4 6 5
f 5 6 8 7
f 7 8 10 9
f 9 10 12 11
f 11 12 14 13
f 13 14 16 15
f 15 16 18 17
f 17 18 20 19
f 19 20 22 21
f 21 22 24 23
f 23 24 26 25
f 25 26 28 27
f 27 28 30 29
f 29 30 32 31
f 31 32 34 33
f 33 34 36 35
f 35 36 38 37
f 37 38 40 39
f 39 40 42 41
f 41 42 44 43
f 43 44 46 45
f 45 46 48 47
f 47 48 50 49
f 49 50 52 51
f 51 52 54 53
f 53 54 56 55
f 55 56 58 57
f 57 58 60 59
f 59 60 62 61
f 61 62 64 63
f 63 64 66 65
f 65 66 68 67
f 67 68 70 69
f 69 70 72 71
f 71 72 74 73
f 73 74 76 75
f 75 76 78 77
f 77 78 80 79
f 79 80 82 81
f 81 82 84 83
f 83 84 86 85
f 85 86 88 87
f 87 88 90 89
f 89 90 92 91
f 91 92 94 93
f 93 94 96 95
f 95 96 98 97
f 97 98 100 99
f 99 100 102 101
f 101 102 104 103
f 103 104 106 105
f 105 106 108 107
f 107 108 110 109
f 109 110 112 111
f 111 112 114 113
f 113 114 116 115
f 115 116 118 117
f 117 118 120 119
f 119 120 122 121
f 121 122 124 123
f 123 124 126 125
f 125 126 128 127
f 127 128 130 129
f 129 130 132 131
f 131 132 134 133
f 133 134 136 135
f 135 136 138 137
f 137 138 140 139
f 139 140 142 141
f 141 142 144 143
f 143 144 146 145
f 145 146 148 147
f 147 148 150 149
f 149 150 152 151
f 151 152 154 153
f 153 154 156 155
f 155 156 158 157
f 157 158 160 159
f 159 160 162 161
f 161 162 164 163
f 163 164 166 165
f 165 166 168 167
f 167 168 170 169
f 169 170 172 171
f 171 172 174 173
f 173 174 176 175
f 175 176 178 177
f 177 178 180 179
f 179 180 182 181
f 181 182 184 183
f 183 184 186 185
f 185 186 188 187
f 187 188 190 189
f 189 190 192 191
f 191 192 194 193
f 193 194 196 195
f 195 196 198 197
f 197 198 200 199
f 199 200 202 201
f 201 202 204 203
f 203 204 206 205
f 205 206 208 207
f 207 208 210 209
f 209 210 212 211
f 211 212 214 213
f 213 214 216 215
f 215 216 218 217
f 217 218 220 219
f 219 220 222 221
f 221 222 224 223
f 223 224 226 225
f 225 226 228 227
f 227 228 230 229
f 229 230 232 231
f 231 232 234 233
f 233 234 236 235
f 235 236 238 237
f 237 238 240 239
f 239 240 242 241
f 241 242 244 243
f 243 244 246 245
f 245 246 248 247
f 247 248 250 249
f 249 250 252 251
f 251 252 254 253
f 253 254 256 255
f 255 256 258 257
f 257 258 260 259
f 259 260 262 261
f 261 262 264 263
f 263 264 266 265
f 265 266 268 267
f 267 268 270 269
f 269 270 272 271
f 271 272 274 273
f 273 274 276 275
f 275 276 278 277
f 277 278 280 279
f 279 280 282 281
f 281 282 284 283
f 283 284 286 285
f 285 286 288 287
f 287 288 290 289
f 289 290 292 291
f 291 292 294 293
f 293 294 296 295
f 295 296 298 297
f 297 298 300 299
f 299 300 302 301
f 301 302 304 303
f 303 304 306 305
f 305 306 308 307
f 307 308 310 309
f 309 310 312 311
f 311 312 314 313
f 313 314 316 315
f 315 316 318 317
f 317 318 320 319
f 319 320 322 321
f 321 322 324 323
f 323 324 326 325
f 325 326 328 327
f 327 328 330 329
f 329 330 332 331
f 331 332 334 333
f 333 334 336 335
f 335 336 338 337
f 337 338 340 339
f 339 340 342 341
f 341 342 344 343
f 343 344 346 345
f 345 346 348 347
f 347 348 350 349
f 349 350 352 351
f 351 352 354 353
f 353 354 356 355
f 355 356 358 357
f 357 358 360 359
f 359 360 362 361
f 361 362 364 363
f 363 364 366 365
f 365 366 368 367
f 367 368 370 369
f 369 370 372 371
f 371 372 374 373
f 373 374 376 375
f 375 376 378 377
f 377 378 380 379
f 379 380 382 381
f 381 382 384 383
f 383 384 386 385
f 385 386 388 387
f 387 388 390 389
f 389 390 392 391
f 391 392 394 393
f 393 394 396 395
f 395 396 398 397
f 397 398 400 399
f 399 400 402 401
f 401 402 404 403
f 403 404 406 405
f 405 406 408 407
f 407 408 410 409
f 409 410 412 411
f 411 412 414 413
f 413 414 416 415
f 415 416 418 417
f 417 418 420 419
f 419 420 422 421
f 421 422 424 423
f 423 424 426 425
f 425 426 428 427
f 427 428 430 429
f 429 430 432 431
f 431 432 434 433
f 433 434 436 435
f 435 436 438 437
f 437 438 440 439
f 439 440 442 441
f 441 442 444 443
f 443 444 446 445
f 445 446 448 447
f 447 448 450 449
f 449 450 452 451
f 451 452 454 453
f 453 454 456 455
f 455 456 458 457
f 457 458 460 459
f 459 460 462 461
