mtllib gothic_pillar.mtl
o gothic_pillar

# Group: gothic_dark_stone
v -0.380000 0.000000 0.380000
v -0.380000 0.120000 0.380000
v -0.380000 0.000000 -0.380000
v -0.380000 0.120000 -0.380000
v 0.380000 0.000000 0.380000
v 0.380000 0.120000 0.380000
v 0.380000 0.000000 -0.380000
v 0.380000 0.120000 -0.380000
v -0.330000 0.120000 0.330000
v -0.330000 0.200000 0.330000
v -0.330000 0.120000 -0.330000
v -0.330000 0.200000 -0.330000
v 0.330000 0.120000 0.330000
v 0.330000 0.200000 0.330000
v 0.330000 0.120000 -0.330000
v 0.330000 0.200000 -0.330000
v -0.280000 0.200000 0.280000
v -0.280000 0.260000 0.280000
v -0.280000 0.200000 -0.280000
v -0.280000 0.260000 -0.280000
v 0.280000 0.200000 0.280000
v 0.280000 0.260000 0.280000
v 0.280000 0.200000 -0.280000
v 0.280000 0.260000 -0.280000
vt 0.0 0.0
vn -0.577350 -0.577350 0.577350
vn -0.577350 0.577350 0.577350
vn -0.577350 -0.577350 -0.577350
vn -0.577350 0.577350 -0.577350
vn 0.577350 -0.577350 0.577350
vn 0.577350 0.577350 0.577350
vn 0.577350 -0.577350 -0.577350
vn 0.577350 0.577350 -0.577350
vn -0.577350 -0.577350 0.577350
vn -0.577350 0.577350 0.577350
vn -0.577350 -0.577350 -0.577350
vn -0.577350 0.577350 -0.577350
vn 0.577350 -0.577350 0.577350
vn 0.577350 0.577350 0.577350
vn 0.577350 -0.577350 -0.577350
vn 0.577350 0.577350 -0.577350
vn -0.577350 -0.577350 0.577350
vn -0.577350 0.577350 0.577350
vn -0.577350 -0.577350 -0.577350
vn -0.577350 0.577350 -0.577350
vn 0.577350 -0.577350 0.577350
vn 0.577350 0.577350 0.577350
vn 0.577350 -0.577350 -0.577350
vn 0.577350 0.577350 -0.577350
usemtl gothic_dark_stone
f 2/1/2 4/1/4 1/1/1
f 5/1/5 2/1/2 1/1/1
f 1/1/1 4/1/4 3/1/3
f 3/1/3 5/1/5 1/1/1
f 2/1/2 8/1/8 4/1/4
f 6/1/6 2/1/2 5/1/5
f 6/1/6 8/1/8 2/1/2
f 4/1/4 8/1/8 3/1/3
f 7/1/7 5/1/5 3/1/3
f 3/1/3 8/1/8 7/1/7
f 7/1/7 6/1/6 5/1/5
f 8/1/8 6/1/6 7/1/7
f 10/1/10 12/1/12 9/1/9
f 13/1/13 10/1/10 9/1/9
f 9/1/9 12/1/12 11/1/11
f 11/1/11 13/1/13 9/1/9
f 10/1/10 16/1/16 12/1/12
f 14/1/14 10/1/10 13/1/13
f 14/1/14 16/1/16 10/1/10
f 12/1/12 16/1/16 11/1/11
f 15/1/15 13/1/13 11/1/11
f 11/1/11 16/1/16 15/1/15
f 15/1/15 14/1/14 13/1/13
f 16/1/16 14/1/14 15/1/15
f 18/1/18 20/1/20 17/1/17
f 21/1/21 18/1/18 17/1/17
f 17/1/17 20/1/20 19/1/19
f 19/1/19 21/1/21 17/1/17
f 18/1/18 24/1/24 20/1/20
f 22/1/22 18/1/18 21/1/21
f 22/1/22 24/1/24 18/1/18
f 20/1/20 24/1/24 19/1/19
f 23/1/23 21/1/21 19/1/19
f 19/1/19 24/1/24 23/1/23
f 23/1/23 22/1/22 21/1/21
f 24/1/24 22/1/22 23/1/23

# Group: gothic_fluted_stone
v 0.000000 0.260000 0.000000
v 0.200000 0.260000 0.000000
v 0.200000 0.860000 0.000000
v 0.000000 0.860000 0.000000
v 0.193185 0.260000 -0.051764
v 0.193185 0.860000 -0.051764
v 0.173205 0.260000 -0.100000
v 0.173205 0.860000 -0.100000
v 0.141421 0.260000 -0.141421
v 0.141421 0.860000 -0.141421
v 0.100000 0.260000 -0.173205
v 0.100000 0.860000 -0.173205
v 0.051764 0.260000 -0.193185
v 0.051764 0.860000 -0.193185
v 0.000000 0.260000 -0.200000
v 0.000000 0.860000 -0.200000
v -0.051764 0.260000 -0.193185
v -0.051764 0.860000 -0.193185
v -0.100000 0.260000 -0.173205
v -0.100000 0.860000 -0.173205
v -0.141421 0.260000 -0.141421
v -0.141421 0.860000 -0.141421
v -0.173205 0.260000 -0.100000
v -0.173205 0.860000 -0.100000
v -0.193185 0.260000 -0.051764
v -0.193185 0.860000 -0.051764
v -0.200000 0.260000 0.000000
v -0.200000 0.860000 0.000000
v -0.193185 0.260000 0.051764
v -0.193185 0.860000 0.051764
v -0.173205 0.260000 0.100000
v -0.173205 0.860000 0.100000
v -0.141421 0.260000 0.141421
v -0.141421 0.860000 0.141421
v -0.100000 0.260000 0.173205
v -0.100000 0.860000 0.173205
v -0.051764 0.260000 0.193185
v -0.051764 0.860000 0.193185
v -0.000000 0.260000 0.200000
v -0.000000 0.860000 0.200000
v 0.051764 0.260000 0.193185
v 0.051764 0.860000 0.193185
v 0.100000 0.260000 0.173205
v 0.100000 0.860000 0.173205
v 0.141421 0.260000 0.141421
v 0.141421 0.860000 0.141421
v 0.173205 0.260000 0.100000
v 0.173205 0.860000 0.100000
v 0.193185 0.260000 0.051764
v 0.193185 0.860000 0.051764
v -0.180000 0.260000 0.180000
v -0.100000 0.260000 0.180000
v -0.100000 0.860000 0.180000
v -0.180000 0.860000 0.180000
v -0.110718 0.260000 0.140000
v -0.110718 0.860000 0.140000
v -0.140000 0.260000 0.110718
v -0.140000 0.860000 0.110718
v -0.180000 0.260000 0.100000
v -0.180000 0.860000 0.100000
v -0.220000 0.260000 0.110718
v -0.220000 0.860000 0.110718
v -0.249282 0.260000 0.140000
v -0.249282 0.860000 0.140000
v -0.260000 0.260000 0.180000
v -0.260000 0.860000 0.180000
v -0.249282 0.260000 0.220000
v -0.249282 0.860000 0.220000
v -0.220000 0.260000 0.249282
v -0.220000 0.860000 0.249282
v -0.180000 0.260000 0.260000
v -0.180000 0.860000 0.260000
v -0.140000 0.260000 0.249282
v -0.140000 0.860000 0.249282
v -0.110718 0.260000 0.220000
v -0.110718 0.860000 0.220000
v 0.180000 0.260000 0.180000
v 0.260000 0.260000 0.180000
v 0.260000 0.860000 0.180000
v 0.180000 0.860000 0.180000
v 0.249282 0.260000 0.140000
v 0.249282 0.860000 0.140000
v 0.220000 0.260000 0.110718
v 0.220000 0.860000 0.110718
v 0.180000 0.260000 0.100000
v 0.180000 0.860000 0.100000
v 0.140000 0.260000 0.110718
v 0.140000 0.860000 0.110718
v 0.110718 0.260000 0.140000
v 0.110718 0.860000 0.140000
v 0.100000 0.260000 0.180000
v 0.100000 0.860000 0.180000
v 0.110718 0.260000 0.220000
v 0.110718 0.860000 0.220000
v 0.140000 0.260000 0.249282
v 0.140000 0.860000 0.249282
v 0.180000 0.260000 0.260000
v 0.180000 0.860000 0.260000
v 0.220000 0.260000 0.249282
v 0.220000 0.860000 0.249282
v 0.249282 0.260000 0.220000
v 0.249282 0.860000 0.220000
v -0.180000 0.260000 -0.180000
v -0.100000 0.260000 -0.180000
v -0.100000 0.860000 -0.180000
v -0.180000 0.860000 -0.180000
v -0.110718 0.260000 -0.220000
v -0.110718 0.860000 -0.220000
v -0.140000 0.260000 -0.249282
v -0.140000 0.860000 -0.249282
v -0.180000 0.260000 -0.260000
v -0.180000 0.860000 -0.260000
v -0.220000 0.260000 -0.249282
v -0.220000 0.860000 -0.249282
v -0.249282 0.260000 -0.220000
v -0.249282 0.860000 -0.220000
v -0.260000 0.260000 -0.180000
v -0.260000 0.860000 -0.180000
v -0.249282 0.260000 -0.140000
v -0.249282 0.860000 -0.140000
v -0.220000 0.260000 -0.110718
v -0.220000 0.860000 -0.110718
v -0.180000 0.260000 -0.100000
v -0.180000 0.860000 -0.100000
v -0.140000 0.260000 -0.110718
v -0.140000 0.860000 -0.110718
v -0.110718 0.260000 -0.140000
v -0.110718 0.860000 -0.140000
v 0.180000 0.260000 -0.180000
v 0.260000 0.260000 -0.180000
v 0.260000 0.860000 -0.180000
v 0.180000 0.860000 -0.180000
v 0.249282 0.260000 -0.220000
v 0.249282 0.860000 -0.220000
v 0.220000 0.260000 -0.249282
v 0.220000 0.860000 -0.249282
v 0.180000 0.260000 -0.260000
v 0.180000 0.860000 -0.260000
v 0.140000 0.260000 -0.249282
v 0.140000 0.860000 -0.249282
v 0.110718 0.260000 -0.220000
v 0.110718 0.860000 -0.220000
v 0.100000 0.260000 -0.180000
v 0.100000 0.860000 -0.180000
v 0.110718 0.260000 -0.140000
v 0.110718 0.860000 -0.140000
v 0.140000 0.260000 -0.110718
v 0.140000 0.860000 -0.110718
v 0.180000 0.260000 -0.100000
v 0.180000 0.860000 -0.100000
v 0.220000 0.260000 -0.110718
v 0.220000 0.860000 -0.110718
v 0.249282 0.260000 -0.140000
v 0.249282 0.860000 -0.140000
vt 0.0 0.0
vn 0.000000 -1.000000 0.000000
vn 0.734254 -0.678874 0.000000
vn 0.734254 0.678874 0.000000
vn 0.000000 1.000000 0.000000
vn 0.709235 -0.678874 -0.190039
vn 0.709235 0.678874 -0.190039
vn 0.635883 -0.678874 -0.367127
vn 0.635883 0.678874 -0.367127
vn 0.519196 -0.678874 -0.519196
vn 0.519196 0.678874 -0.519196
vn 0.367127 -0.678874 -0.635883
vn 0.367127 0.678874 -0.635883
vn 0.190039 -0.678874 -0.709235
vn 0.190039 0.678874 -0.709235
vn 0.000000 -0.678874 -0.734254
vn 0.000000 0.678874 -0.734254
vn -0.190039 -0.678874 -0.709235
vn -0.190039 0.678874 -0.709235
vn -0.367127 -0.678874 -0.635883
vn -0.367127 0.678874 -0.635883
vn -0.519196 -0.678874 -0.519196
vn -0.519196 0.678874 -0.519196
vn -0.635883 -0.678874 -0.367127
vn -0.635883 0.678874 -0.367127
vn -0.709235 -0.678874 -0.190039
vn -0.709235 0.678874 -0.190039
vn -0.734254 -0.678874 0.000000
vn -0.734254 0.678874 0.000000
vn -0.709235 -0.678874 0.190039
vn -0.709235 0.678874 0.190039
vn -0.635883 -0.678874 0.367127
vn -0.635883 0.678874 0.367127
vn -0.519196 -0.678874 0.519196
vn -0.519196 0.678874 0.519196
vn -0.367127 -0.678874 0.635883
vn -0.367127 0.678874 0.635883
vn -0.190039 -0.678874 0.709235
vn -0.190039 0.678874 0.709235
vn -0.000000 -0.678874 0.734254
vn -0.000000 0.678874 0.734254
vn 0.190039 -0.678874 0.709235
vn 0.190039 0.678874 0.709235
vn 0.367127 -0.678874 0.635883
vn 0.367127 0.678874 0.635883
vn 0.519196 -0.678874 0.519196
vn 0.519196 0.678874 0.519196
vn 0.635883 -0.678874 0.367127
vn 0.635883 0.678874 0.367127
vn 0.709235 -0.678874 0.190039
vn 0.709235 0.678874 0.190039
vn 0.000000 -1.000000 0.000000
vn 0.757162 -0.653227 0.000000
vn 0.757162 0.653227 0.000000
vn 0.000000 1.000000 0.000000
vn 0.655722 -0.653227 -0.378581
vn 0.655722 0.653227 -0.378581
vn 0.378581 -0.653227 -0.655722
vn 0.378581 0.653227 -0.655722
vn -0.000000 -0.653227 -0.757162
vn 0.000000 0.653227 -0.757162
vn -0.378581 -0.653227 -0.655722
vn -0.378581 0.653227 -0.655722
vn -0.655722 -0.653227 -0.378581
vn -0.655722 0.653227 -0.378581
vn -0.757162 -0.653227 0.000000
vn -0.757162 0.653227 0.000000
vn -0.655722 -0.653227 0.378581
vn -0.655722 0.653227 0.378581
vn -0.378581 -0.653227 0.655722
vn -0.378581 0.653227 0.655722
vn -0.000000 -0.653227 0.757162
vn -0.000000 0.653227 0.757162
vn 0.378581 -0.653227 0.655722
vn 0.378581 0.653227 0.655722
vn 0.655722 -0.653227 0.378581
vn 0.655722 0.653227 0.378581
vn 0.000000 -1.000000 0.000000
vn 0.757162 -0.653227 0.000000
vn 0.757162 0.653227 0.000000
vn 0.000000 1.000000 0.000000
vn 0.655722 -0.653227 -0.378581
vn 0.655722 0.653227 -0.378581
vn 0.378581 -0.653227 -0.655722
vn 0.378581 0.653227 -0.655722
vn -0.000000 -0.653227 -0.757162
vn 0.000000 0.653227 -0.757162
vn -0.378581 -0.653227 -0.655722
vn -0.378581 0.653227 -0.655722
vn -0.655722 -0.653227 -0.378581
vn -0.655722 0.653227 -0.378581
vn -0.757162 -0.653227 0.000000
vn -0.757162 0.653227 0.000000
vn -0.655722 -0.653227 0.378581
vn -0.655722 0.653227 0.378581
vn -0.378581 -0.653227 0.655722
vn -0.378581 0.653227 0.655722
vn -0.000000 -0.653227 0.757162
vn -0.000000 0.653227 0.757162
vn 0.378581 -0.653227 0.655722
vn 0.378581 0.653227 0.655722
vn 0.655722 -0.653227 0.378581
vn 0.655722 0.653227 0.378581
vn 0.000000 -1.000000 0.000000
vn 0.757162 -0.653227 0.000000
vn 0.757162 0.653227 0.000000
vn 0.000000 1.000000 0.000000
vn 0.655722 -0.653227 -0.378581
vn 0.655722 0.653227 -0.378581
vn 0.378581 -0.653227 -0.655722
vn 0.378581 0.653227 -0.655722
vn -0.000000 -0.653227 -0.757162
vn 0.000000 0.653227 -0.757162
vn -0.378581 -0.653227 -0.655722
vn -0.378581 0.653227 -0.655722
vn -0.655722 -0.653227 -0.378581
vn -0.655722 0.653227 -0.378581
vn -0.757162 -0.653227 0.000000
vn -0.757162 0.653227 0.000000
vn -0.655722 -0.653227 0.378581
vn -0.655722 0.653227 0.378581
vn -0.378581 -0.653227 0.655722
vn -0.378581 0.653227 0.655722
vn -0.000000 -0.653227 0.757162
vn -0.000000 0.653227 0.757162
vn 0.378581 -0.653227 0.655722
vn 0.378581 0.653227 0.655722
vn 0.655722 -0.653227 0.378581
vn 0.655722 0.653227 0.378581
vn 0.000000 -1.000000 0.000000
vn 0.757162 -0.653227 0.000000
vn 0.757162 0.653227 0.000000
vn 0.000000 1.000000 0.000000
vn 0.655722 -0.653227 -0.378581
vn 0.655722 0.653227 -0.378581
vn 0.378581 -0.653227 -0.655722
vn 0.378581 0.653227 -0.655722
vn -0.000000 -0.653227 -0.757162
vn 0.000000 0.653227 -0.757162
vn -0.378581 -0.653227 -0.655722
vn -0.378581 0.653227 -0.655722
vn -0.655722 -0.653227 -0.378581
vn -0.655722 0.653227 -0.378581
vn -0.757162 -0.653227 0.000000
vn -0.757162 0.653227 0.000000
vn -0.655722 -0.653227 0.378581
vn -0.655722 0.653227 0.378581
vn -0.378581 -0.653227 0.655722
vn -0.378581 0.653227 0.655722
vn -0.000000 -0.653227 0.757162
vn -0.000000 0.653227 0.757162
vn 0.378581 -0.653227 0.655722
vn 0.378581 0.653227 0.655722
vn 0.655722 -0.653227 0.378581
vn 0.655722 0.653227 0.378581
usemtl gothic_fluted_stone
f 26/1/26 25/1/25 29/1/29
f 26/1/26 29/1/29 27/1/27
f 27/1/27 29/1/29 30/1/30
f 27/1/27 30/1/30 28/1/28
f 29/1/29 25/1/25 31/1/31
f 29/1/29 31/1/31 30/1/30
f 30/1/30 31/1/31 32/1/32
f 30/1/30 32/1/32 28/1/28
f 31/1/31 25/1/25 33/1/33
f 31/1/31 33/1/33 32/1/32
f 32/1/32 33/1/33 34/1/34
f 32/1/32 34/1/34 28/1/28
f 33/1/33 25/1/25 35/1/35
f 33/1/33 35/1/35 34/1/34
f 34/1/34 35/1/35 36/1/36
f 34/1/34 36/1/36 28/1/28
f 35/1/35 25/1/25 37/1/37
f 35/1/35 37/1/37 36/1/36
f 36/1/36 37/1/37 38/1/38
f 36/1/36 38/1/38 28/1/28
f 37/1/37 25/1/25 39/1/39
f 37/1/37 39/1/39 38/1/38
f 38/1/38 39/1/39 40/1/40
f 38/1/38 40/1/40 28/1/28
f 39/1/39 25/1/25 41/1/41
f 39/1/39 41/1/41 40/1/40
f 40/1/40 41/1/41 42/1/42
f 40/1/40 42/1/42 28/1/28
f 41/1/41 25/1/25 43/1/43
f 41/1/41 43/1/43 42/1/42
f 42/1/42 43/1/43 44/1/44
f 42/1/42 44/1/44 28/1/28
f 43/1/43 25/1/25 45/1/45
f 43/1/43 45/1/45 44/1/44
f 44/1/44 45/1/45 46/1/46
f 44/1/44 46/1/46 28/1/28
f 45/1/45 25/1/25 47/1/47
f 45/1/45 47/1/47 46/1/46
f 46/1/46 47/1/47 48/1/48
f 46/1/46 48/1/48 28/1/28
f 47/1/47 25/1/25 49/1/49
f 47/1/47 49/1/49 48/1/48
f 48/1/48 49/1/49 50/1/50
f 48/1/48 50/1/50 28/1/28
f 49/1/49 25/1/25 51/1/51
f 49/1/49 51/1/51 50/1/50
f 50/1/50 51/1/51 52/1/52
f 50/1/50 52/1/52 28/1/28
f 51/1/51 25/1/25 53/1/53
f 51/1/51 53/1/53 52/1/52
f 52/1/52 53/1/53 54/1/54
f 52/1/52 54/1/54 28/1/28
f 53/1/53 25/1/25 55/1/55
f 53/1/53 55/1/55 54/1/54
f 54/1/54 55/1/55 56/1/56
f 54/1/54 56/1/56 28/1/28
f 55/1/55 25/1/25 57/1/57
f 55/1/55 57/1/57 56/1/56
f 56/1/56 57/1/57 58/1/58
f 56/1/56 58/1/58 28/1/28
f 57/1/57 25/1/25 59/1/59
f 57/1/57 59/1/59 58/1/58
f 58/1/58 59/1/59 60/1/60
f 58/1/58 60/1/60 28/1/28
f 59/1/59 25/1/25 61/1/61
f 59/1/59 61/1/61 60/1/60
f 60/1/60 61/1/61 62/1/62
f 60/1/60 62/1/62 28/1/28
f 61/1/61 25/1/25 63/1/63
f 61/1/61 63/1/63 62/1/62
f 62/1/62 63/1/63 64/1/64
f 62/1/62 64/1/64 28/1/28
f 63/1/63 25/1/25 65/1/65
f 63/1/63 65/1/65 64/1/64
f 64/1/64 65/1/65 66/1/66
f 64/1/64 66/1/66 28/1/28
f 65/1/65 25/1/25 67/1/67
f 65/1/65 67/1/67 66/1/66
f 66/1/66 67/1/67 68/1/68
f 66/1/66 68/1/68 28/1/28
f 67/1/67 25/1/25 69/1/69
f 67/1/67 69/1/69 68/1/68
f 68/1/68 69/1/69 70/1/70
f 68/1/68 70/1/70 28/1/28
f 69/1/69 25/1/25 71/1/71
f 69/1/69 71/1/71 70/1/70
f 70/1/70 71/1/71 72/1/72
f 70/1/70 72/1/72 28/1/28
f 71/1/71 25/1/25 73/1/73
f 71/1/71 73/1/73 72/1/72
f 72/1/72 73/1/73 74/1/74
f 72/1/72 74/1/74 28/1/28
f 73/1/73 25/1/25 26/1/26
f 73/1/73 26/1/26 74/1/74
f 74/1/74 26/1/26 27/1/27
f 74/1/74 27/1/27 28/1/28
f 76/1/76 75/1/75 79/1/79
f 76/1/76 79/1/79 77/1/77
f 77/1/77 79/1/79 80/1/80
f 77/1/77 80/1/80 78/1/78
f 79/1/79 75/1/75 81/1/81
f 79/1/79 81/1/81 80/1/80
f 80/1/80 81/1/81 82/1/82
f 80/1/80 82/1/82 78/1/78
f 81/1/81 75/1/75 83/1/83
f 81/1/81 83/1/83 82/1/82
f 82/1/82 83/1/83 84/1/84
f 82/1/82 84/1/84 78/1/78
f 83/1/83 75/1/75 85/1/85
f 83/1/83 85/1/85 84/1/84
f 84/1/84 85/1/85 86/1/86
f 84/1/84 86/1/86 78/1/78
f 85/1/85 75/1/75 87/1/87
f 85/1/85 87/1/87 86/1/86
f 86/1/86 87/1/87 88/1/88
f 86/1/86 88/1/88 78/1/78
f 87/1/87 75/1/75 89/1/89
f 87/1/87 89/1/89 88/1/88
f 88/1/88 89/1/89 90/1/90
f 88/1/88 90/1/90 78/1/78
f 89/1/89 75/1/75 91/1/91
f 89/1/89 91/1/91 90/1/90
f 90/1/90 91/1/91 92/1/92
f 90/1/90 92/1/92 78/1/78
f 91/1/91 75/1/75 93/1/93
f 91/1/91 93/1/93 92/1/92
f 92/1/92 93/1/93 94/1/94
f 92/1/92 94/1/94 78/1/78
f 93/1/93 75/1/75 95/1/95
f 93/1/93 95/1/95 94/1/94
f 94/1/94 95/1/95 96/1/96
f 94/1/94 96/1/96 78/1/78
f 95/1/95 75/1/75 97/1/97
f 95/1/95 97/1/97 96/1/96
f 96/1/96 97/1/97 98/1/98
f 96/1/96 98/1/98 78/1/78
f 97/1/97 75/1/75 99/1/99
f 97/1/97 99/1/99 98/1/98
f 98/1/98 99/1/99 100/1/100
f 98/1/98 100/1/100 78/1/78
f 99/1/99 75/1/75 76/1/76
f 99/1/99 76/1/76 100/1/100
f 100/1/100 76/1/76 77/1/77
f 100/1/100 77/1/77 78/1/78
f 102/1/102 101/1/101 105/1/105
f 102/1/102 105/1/105 103/1/103
f 103/1/103 105/1/105 106/1/106
f 103/1/103 106/1/106 104/1/104
f 105/1/105 101/1/101 107/1/107
f 105/1/105 107/1/107 106/1/106
f 106/1/106 107/1/107 108/1/108
f 106/1/106 108/1/108 104/1/104
f 107/1/107 101/1/101 109/1/109
f 107/1/107 109/1/109 108/1/108
f 108/1/108 109/1/109 110/1/110
f 108/1/108 110/1/110 104/1/104
f 109/1/109 101/1/101 111/1/111
f 109/1/109 111/1/111 110/1/110
f 110/1/110 111/1/111 112/1/112
f 110/1/110 112/1/112 104/1/104
f 111/1/111 101/1/101 113/1/113
f 111/1/111 113/1/113 112/1/112
f 112/1/112 113/1/113 114/1/114
f 112/1/112 114/1/114 104/1/104
f 113/1/113 101/1/101 115/1/115
f 113/1/113 115/1/115 114/1/114
f 114/1/114 115/1/115 116/1/116
f 114/1/114 116/1/116 104/1/104
f 115/1/115 101/1/101 117/1/117
f 115/1/115 117/1/117 116/1/116
f 116/1/116 117/1/117 118/1/118
f 116/1/116 118/1/118 104/1/104
f 117/1/117 101/1/101 119/1/119
f 117/1/117 119/1/119 118/1/118
f 118/1/118 119/1/119 120/1/120
f 118/1/118 120/1/120 104/1/104
f 119/1/119 101/1/101 121/1/121
f 119/1/119 121/1/121 120/1/120
f 120/1/120 121/1/121 122/1/122
f 120/1/120 122/1/122 104/1/104
f 121/1/121 101/1/101 123/1/123
f 121/1/121 123/1/123 122/1/122
f 122/1/122 123/1/123 124/1/124
f 122/1/122 124/1/124 104/1/104
f 123/1/123 101/1/101 125/1/125
f 123/1/123 125/1/125 124/1/124
f 124/1/124 125/1/125 126/1/126
f 124/1/124 126/1/126 104/1/104
f 125/1/125 101/1/101 102/1/102
f 125/1/125 102/1/102 126/1/126
f 126/1/126 102/1/102 103/1/103
f 126/1/126 103/1/103 104/1/104
f 128/1/128 127/1/127 131/1/131
f 128/1/128 131/1/131 129/1/129
f 129/1/129 131/1/131 132/1/132
f 129/1/129 132/1/132 130/1/130
f 131/1/131 127/1/127 133/1/133
f 131/1/131 133/1/133 132/1/132
f 132/1/132 133/1/133 134/1/134
f 132/1/132 134/1/134 130/1/130
f 133/1/133 127/1/127 135/1/135
f 133/1/133 135/1/135 134/1/134
f 134/1/134 135/1/135 136/1/136
f 134/1/134 136/1/136 130/1/130
f 135/1/135 127/1/127 137/1/137
f 135/1/135 137/1/137 136/1/136
f 136/1/136 137/1/137 138/1/138
f 136/1/136 138/1/138 130/1/130
f 137/1/137 127/1/127 139/1/139
f 137/1/137 139/1/139 138/1/138
f 138/1/138 139/1/139 140/1/140
f 138/1/138 140/1/140 130/1/130
f 139/1/139 127/1/127 141/1/141
f 139/1/139 141/1/141 140/1/140
f 140/1/140 141/1/141 142/1/142
f 140/1/140 142/1/142 130/1/130
f 141/1/141 127/1/127 143/1/143
f 141/1/141 143/1/143 142/1/142
f 142/1/142 143/1/143 144/1/144
f 142/1/142 144/1/144 130/1/130
f 143/1/143 127/1/127 145/1/145
f 143/1/143 145/1/145 144/1/144
f 144/1/144 145/1/145 146/1/146
f 144/1/144 146/1/146 130/1/130
f 145/1/145 127/1/127 147/1/147
f 145/1/145 147/1/147 146/1/146
f 146/1/146 147/1/147 148/1/148
f 146/1/146 148/1/148 130/1/130
f 147/1/147 127/1/127 149/1/149
f 147/1/147 149/1/149 148/1/148
f 148/1/148 149/1/149 150/1/150
f 148/1/148 150/1/150 130/1/130
f 149/1/149 127/1/127 151/1/151
f 149/1/149 151/1/151 150/1/150
f 150/1/150 151/1/151 152/1/152
f 150/1/150 152/1/152 130/1/130
f 151/1/151 127/1/127 128/1/128
f 151/1/151 128/1/128 152/1/152
f 152/1/152 128/1/128 129/1/129
f 152/1/152 129/1/129 130/1/130
f 154/1/154 153/1/153 157/1/157
f 154/1/154 157/1/157 155/1/155
f 155/1/155 157/1/157 158/1/158
f 155/1/155 158/1/158 156/1/156
f 157/1/157 153/1/153 159/1/159
f 157/1/157 159/1/159 158/1/158
f 158/1/158 159/1/159 160/1/160
f 158/1/158 160/1/160 156/1/156
f 159/1/159 153/1/153 161/1/161
f 159/1/159 161/1/161 160/1/160
f 160/1/160 161/1/161 162/1/162
f 160/1/160 162/1/162 156/1/156
f 161/1/161 153/1/153 163/1/163
f 161/1/161 163/1/163 162/1/162
f 162/1/162 163/1/163 164/1/164
f 162/1/162 164/1/164 156/1/156
f 163/1/163 153/1/153 165/1/165
f 163/1/163 165/1/165 164/1/164
f 164/1/164 165/1/165 166/1/166
f 164/1/164 166/1/166 156/1/156
f 165/1/165 153/1/153 167/1/167
f 165/1/165 167/1/167 166/1/166
f 166/1/166 167/1/167 168/1/168
f 166/1/166 168/1/168 156/1/156
f 167/1/167 153/1/153 169/1/169
f 167/1/167 169/1/169 168/1/168
f 168/1/168 169/1/169 170/1/170
f 168/1/168 170/1/170 156/1/156
f 169/1/169 153/1/153 171/1/171
f 169/1/169 171/1/171 170/1/170
f 170/1/170 171/1/171 172/1/172
f 170/1/170 172/1/172 156/1/156
f 171/1/171 153/1/153 173/1/173
f 171/1/171 173/1/173 172/1/172
f 172/1/172 173/1/173 174/1/174
f 172/1/172 174/1/174 156/1/156
f 173/1/173 153/1/153 175/1/175
f 173/1/173 175/1/175 174/1/174
f 174/1/174 175/1/175 176/1/176
f 174/1/174 176/1/176 156/1/156
f 175/1/175 153/1/153 177/1/177
f 175/1/175 177/1/177 176/1/176
f 176/1/176 177/1/177 178/1/178
f 176/1/176 178/1/178 156/1/156
f 177/1/177 153/1/153 154/1/154
f 177/1/177 154/1/154 178/1/178
f 178/1/178 154/1/154 155/1/155
f 178/1/178 155/1/155 156/1/156

# Group: gothic_capital_stone
v -0.280000 0.860000 0.280000
v -0.280000 0.920000 0.280000
v -0.280000 0.860000 -0.280000
v -0.280000 0.920000 -0.280000
v 0.280000 0.860000 0.280000
v 0.280000 0.920000 0.280000
v 0.280000 0.860000 -0.280000
v 0.280000 0.920000 -0.280000
v -0.340000 0.900000 0.340000
v -0.340000 0.980000 0.340000
v -0.340000 0.900000 -0.340000
v -0.340000 0.980000 -0.340000
v 0.340000 0.900000 0.340000
v 0.340000 0.980000 0.340000
v 0.340000 0.900000 -0.340000
v 0.340000 0.980000 -0.340000
vt 0.0 0.0
vn -0.577350 -0.577350 0.577350
vn -0.577350 0.577350 0.577350
vn -0.577350 -0.577350 -0.577350
vn -0.577350 0.577350 -0.577350
vn 0.577350 -0.577350 0.577350
vn 0.577350 0.577350 0.577350
vn 0.577350 -0.577350 -0.577350
vn 0.577350 0.577350 -0.577350
vn -0.577350 -0.577350 0.577350
vn -0.577350 0.577350 0.577350
vn -0.577350 -0.577350 -0.577350
vn -0.577350 0.577350 -0.577350
vn 0.577350 -0.577350 0.577350
vn 0.577350 0.577350 0.577350
vn 0.577350 -0.577350 -0.577350
vn 0.577350 0.577350 -0.577350
usemtl gothic_capital_stone
f 180/1/180 182/1/182 179/1/179
f 183/1/183 180/1/180 179/1/179
f 179/1/179 182/1/182 181/1/181
f 181/1/181 183/1/183 179/1/179
f 180/1/180 186/1/186 182/1/182
f 184/1/184 180/1/180 183/1/183
f 184/1/184 186/1/186 180/1/180
f 182/1/182 186/1/186 181/1/181
f 185/1/185 183/1/183 181/1/181
f 181/1/181 186/1/186 185/1/185
f 185/1/185 184/1/184 183/1/183
f 186/1/186 184/1/184 185/1/185
f 188/1/188 190/1/190 187/1/187
f 191/1/191 188/1/188 187/1/187
f 187/1/187 190/1/190 189/1/189
f 189/1/189 191/1/191 187/1/187
f 188/1/188 194/1/194 190/1/190
f 192/1/192 188/1/188 191/1/191
f 192/1/192 194/1/194 188/1/188
f 190/1/190 194/1/194 189/1/189
f 193/1/193 191/1/191 189/1/189
f 189/1/189 194/1/194 193/1/193
f 193/1/193 192/1/192 191/1/191
f 194/1/194 192/1/192 193/1/193

