mtllib gothic_relic_chest.mtl
o gothic_relic_chest

# Group: dark_oak
v -0.320000 0.000000 0.210000
v -0.320000 0.280000 0.210000
v -0.320000 0.000000 -0.210000
v -0.320000 0.280000 -0.210000
v 0.320000 0.000000 0.210000
v 0.320000 0.280000 0.210000
v 0.320000 0.000000 -0.210000
v 0.320000 0.280000 -0.210000
v -0.320000 0.280000 0.000000
v -0.320000 0.070000 0.000000
v 0.320000 0.070000 0.000000
v 0.320000 0.280000 0.000000
v -0.320000 0.085985 -0.080364
v 0.320000 0.085985 -0.080364
v -0.320000 0.131508 -0.148492
v 0.320000 0.131508 -0.148492
v -0.320000 0.199636 -0.194015
v 0.320000 0.199636 -0.194015
v -0.320000 0.280000 -0.210000
v 0.320000 0.280000 -0.210000
v -0.320000 0.360364 -0.194015
v 0.320000 0.360364 -0.194015
v -0.320000 0.428492 -0.148492
v 0.320000 0.428492 -0.148492
v -0.320000 0.474015 -0.080364
v 0.320000 0.474015 -0.080364
v -0.320000 0.490000 0.000000
v 0.320000 0.490000 0.000000
v -0.320000 0.474015 0.080364
v 0.320000 0.474015 0.080364
v -0.320000 0.428492 0.148492
v 0.320000 0.428492 0.148492
v -0.320000 0.360364 0.194015
v 0.320000 0.360364 0.194015
v -0.320000 0.280000 0.210000
v 0.320000 0.280000 0.210000
v -0.320000 0.199636 0.194015
v 0.320000 0.199636 0.194015
v -0.320000 0.131508 0.148492
v 0.320000 0.131508 0.148492
v -0.320000 0.085985 0.080364
v 0.320000 0.085985 0.080364
vt 0.0 0.0
vn -0.577350 -0.577350 0.577350
vn -0.577350 0.577350 0.577350
vn -0.577350 -0.577350 -0.577350
vn -0.577350 0.577350 -0.577350
vn 0.577350 -0.577350 0.577350
vn 0.577350 0.577350 0.577350
vn 0.577350 -0.577350 -0.577350
vn 0.577350 0.577350 -0.577350
vn -1.000000 0.000000 0.000000
vn -0.665719 -0.746203 0.000000
vn 0.665719 -0.746203 0.000000
vn 1.000000 0.000000 0.000000
vn -0.665719 -0.689401 -0.285559
vn 0.665719 -0.689401 -0.285559
vn -0.665719 -0.527645 -0.527645
vn 0.665719 -0.527645 -0.527645
vn -0.665719 -0.285559 -0.689401
vn 0.665719 -0.285559 -0.689401
vn -0.665719 -0.000000 -0.746203
vn 0.665719 0.000000 -0.746203
vn -0.665719 0.285559 -0.689401
vn 0.665719 0.285559 -0.689401
vn -0.665719 0.527645 -0.527645
vn 0.665719 0.527645 -0.527645
vn -0.665719 0.689401 -0.285559
vn 0.665719 0.689401 -0.285559
vn -0.665719 0.746203 0.000000
vn 0.665719 0.746203 0.000000
vn -0.665719 0.689401 0.285559
vn 0.665719 0.689401 0.285559
vn -0.665719 0.527645 0.527645
vn 0.665719 0.527645 0.527645
vn -0.665719 0.285559 0.689401
vn 0.665719 0.285559 0.689401
vn -0.665719 0.000000 0.746203
vn 0.665719 0.000000 0.746203
vn -0.665719 -0.285559 0.689401
vn 0.665719 -0.285559 0.689401
vn -0.665719 -0.527645 0.527645
vn 0.665719 -0.527645 0.527645
vn -0.665719 -0.689401 0.285559
vn 0.665719 -0.689401 0.285559
usemtl dark_oak
f 2/1/2 4/1/4 1/1/1
f 5/1/5 2/1/2 1/1/1
f 1/1/1 4/1/4 3/1/3
f 3/1/3 5/1/5 1/1/1
f 2/1/2 8/1/8 4/1/4
f 6/1/6 2/1/2 5/1/5
f 6/1/6 8/1/8 2/1/2
f 4/1/4 8/1/8 3/1/3
f 7/1/7 5/1/5 3/1/3
f 3/1/3 8/1/8 7/1/7
f 7/1/7 6/1/6 5/1/5
f 8/1/8 6/1/6 7/1/7
f 10/1/10 9/1/9 13/1/13
f 10/1/10 13/1/13 11/1/11
f 11/1/11 13/1/13 14/1/14
f 11/1/11 14/1/14 12/1/12
f 13/1/13 9/1/9 15/1/15
f 13/1/13 15/1/15 14/1/14
f 14/1/14 15/1/15 16/1/16
f 14/1/14 16/1/16 12/1/12
f 15/1/15 9/1/9 17/1/17
f 15/1/15 17/1/17 16/1/16
f 16/1/16 17/1/17 18/1/18
f 16/1/16 18/1/18 12/1/12
f 17/1/17 9/1/9 19/1/19
f 17/1/17 19/1/19 18/1/18
f 18/1/18 19/1/19 20/1/20
f 18/1/18 20/1/20 12/1/12
f 19/1/19 9/1/9 21/1/21
f 19/1/19 21/1/21 20/1/20
f 20/1/20 21/1/21 22/1/22
f 20/1/20 22/1/22 12/1/12
f 21/1/21 9/1/9 23/1/23
f 21/1/21 23/1/23 22/1/22
f 22/1/22 23/1/23 24/1/24
f 22/1/22 24/1/24 12/1/12
f 23/1/23 9/1/9 25/1/25
f 23/1/23 25/1/25 24/1/24
f 24/1/24 25/1/25 26/1/26
f 24/1/24 26/1/26 12/1/12
f 25/1/25 9/1/9 27/1/27
f 25/1/25 27/1/27 26/1/26
f 26/1/26 27/1/27 28/1/28
f 26/1/26 28/1/28 12/1/12
f 27/1/27 9/1/9 29/1/29
f 27/1/27 29/1/29 28/1/28
f 28/1/28 29/1/29 30/1/30
f 28/1/28 30/1/30 12/1/12
f 29/1/29 9/1/9 31/1/31
f 29/1/29 31/1/31 30/1/30
f 30/1/30 31/1/31 32/1/32
f 30/1/30 32/1/32 12/1/12
f 31/1/31 9/1/9 33/1/33
f 31/1/31 33/1/33 32/1/32
f 32/1/32 33/1/33 34/1/34
f 32/1/32 34/1/34 12/1/12
f 33/1/33 9/1/9 35/1/35
f 33/1/33 35/1/35 34/1/34
f 34/1/34 35/1/35 36/1/36
f 34/1/34 36/1/36 12/1/12
f 35/1/35 9/1/9 37/1/37
f 35/1/35 37/1/37 36/1/36
f 36/1/36 37/1/37 38/1/38
f 36/1/36 38/1/38 12/1/12
f 37/1/37 9/1/9 39/1/39
f 37/1/37 39/1/39 38/1/38
f 38/1/38 39/1/39 40/1/40
f 38/1/38 40/1/40 12/1/12
f 39/1/39 9/1/9 41/1/41
f 39/1/39 41/1/41 40/1/40
f 40/1/40 41/1/41 42/1/42
f 40/1/40 42/1/42 12/1/12
f 41/1/41 9/1/9 10/1/10
f 41/1/41 10/1/10 42/1/42
f 42/1/42 10/1/10 11/1/11
f 42/1/42 11/1/11 12/1/12

# Group: wrought_black_iron
v -0.280000 -0.010000 0.220000
v -0.280000 0.410000 0.220000
v -0.280000 -0.010000 -0.220000
v -0.280000 0.410000 -0.220000
v -0.200000 -0.010000 0.220000
v -0.200000 0.410000 0.220000
v -0.200000 -0.010000 -0.220000
v -0.200000 0.410000 -0.220000
v 0.200000 -0.010000 0.220000
v 0.200000 0.410000 0.220000
v 0.200000 -0.010000 -0.220000
v 0.200000 0.410000 -0.220000
v 0.280000 -0.010000 0.220000
v 0.280000 0.410000 0.220000
v 0.280000 -0.010000 -0.220000
v 0.280000 0.410000 -0.220000
v -0.040000 -0.010000 0.220000
v -0.040000 0.410000 0.220000
v -0.040000 -0.010000 -0.220000
v -0.040000 0.410000 -0.220000
v 0.040000 -0.010000 0.220000
v 0.040000 0.410000 0.220000
v 0.040000 -0.010000 -0.220000
v 0.040000 0.410000 -0.220000
v -0.315772 0.140000 0.174480
v -0.284228 0.140000 0.174480
v -0.315772 0.140000 0.225520
v -0.284228 0.140000 0.225520
v -0.300000 0.165520 0.215772
v -0.300000 0.165520 0.184228
v -0.300000 0.114480 0.215772
v -0.300000 0.114480 0.184228
v -0.274480 0.124228 0.200000
v -0.274480 0.155772 0.200000
v -0.325520 0.124228 0.200000
v -0.325520 0.155772 0.200000
v -0.300000 0.140000 0.170000
v -0.300000 0.140000 0.230000
v -0.309271 0.155000 0.224271
v -0.290729 0.155000 0.224271
v -0.309271 0.155000 0.175729
v -0.290729 0.155000 0.175729
v -0.300000 0.170000 0.200000
v -0.309271 0.125000 0.224271
v -0.290729 0.125000 0.224271
v -0.309271 0.125000 0.175729
v -0.290729 0.125000 0.175729
v -0.300000 0.110000 0.200000
v -0.275729 0.130729 0.185000
v -0.275729 0.130729 0.215000
v -0.285000 0.115729 0.209271
v -0.285000 0.115729 0.190729
v -0.275729 0.149271 0.185000
v -0.275729 0.149271 0.215000
v -0.285000 0.164271 0.209271
v -0.285000 0.164271 0.190729
v -0.270000 0.140000 0.200000
v -0.324271 0.130729 0.185000
v -0.324271 0.130729 0.215000
v -0.315000 0.115729 0.209271
v -0.315000 0.115729 0.190729
v -0.324271 0.149271 0.185000
v -0.324271 0.149271 0.215000
v -0.315000 0.164271 0.209271
v -0.315000 0.164271 0.190729
v -0.330000 0.140000 0.200000
v -0.315772 0.140000 -0.225520
v -0.284228 0.140000 -0.225520
v -0.315772 0.140000 -0.174480
v -0.284228 0.140000 -0.174480
v -0.300000 0.165520 -0.184228
v -0.300000 0.165520 -0.215772
v -0.300000 0.114480 -0.184228
v -0.300000 0.114480 -0.215772
v -0.274480 0.124228 -0.200000
v -0.274480 0.155772 -0.200000
v -0.325520 0.124228 -0.200000
v -0.325520 0.155772 -0.200000
v -0.300000 0.140000 -0.230000
v -0.300000 0.140000 -0.170000
v -0.309271 0.155000 -0.175729
v -0.290729 0.155000 -0.175729
v -0.309271 0.155000 -0.224271
v -0.290729 0.155000 -0.224271
v -0.300000 0.170000 -0.200000
v -0.309271 0.125000 -0.175729
v -0.290729 0.125000 -0.175729
v -0.309271 0.125000 -0.224271
v -0.290729 0.125000 -0.224271
v -0.300000 0.110000 -0.200000
v -0.275729 0.130729 -0.215000
v -0.275729 0.130729 -0.185000
v -0.285000 0.115729 -0.190729
v -0.285000 0.115729 -0.209271
v -0.275729 0.149271 -0.215000
v -0.275729 0.149271 -0.185000
v -0.285000 0.164271 -0.190729
v -0.285000 0.164271 -0.209271
v -0.270000 0.140000 -0.200000
v -0.324271 0.130729 -0.215000
v -0.324271 0.130729 -0.185000
v -0.315000 0.115729 -0.190729
v -0.315000 0.115729 -0.209271
v -0.324271 0.149271 -0.215000
v -0.324271 0.149271 -0.185000
v -0.315000 0.164271 -0.190729
v -0.315000 0.164271 -0.209271
v -0.330000 0.140000 -0.200000
v 0.284228 0.140000 0.174480
v 0.315772 0.140000 0.174480
v 0.284228 0.140000 0.225520
v 0.315772 0.140000 0.225520
v 0.300000 0.165520 0.215772
v 0.300000 0.165520 0.184228
v 0.300000 0.114480 0.215772
v 0.300000 0.114480 0.184228
v 0.325520 0.124228 0.200000
v 0.325520 0.155772 0.200000
v 0.274480 0.124228 0.200000
v 0.274480 0.155772 0.200000
v 0.300000 0.140000 0.170000
v 0.300000 0.140000 0.230000
v 0.290729 0.155000 0.224271
v 0.309271 0.155000 0.224271
v 0.290729 0.155000 0.175729
v 0.309271 0.155000 0.175729
v 0.300000 0.170000 0.200000
v 0.290729 0.125000 0.224271
v 0.309271 0.125000 0.224271
v 0.290729 0.125000 0.175729
v 0.309271 0.125000 0.175729
v 0.300000 0.110000 0.200000
v 0.324271 0.130729 0.185000
v 0.324271 0.130729 0.215000
v 0.315000 0.115729 0.209271
v 0.315000 0.115729 0.190729
v 0.324271 0.149271 0.185000
v 0.324271 0.149271 0.215000
v 0.315000 0.164271 0.209271
v 0.315000 0.164271 0.190729
v 0.330000 0.140000 0.200000
v 0.275729 0.130729 0.185000
v 0.275729 0.130729 0.215000
v 0.285000 0.115729 0.209271
v 0.285000 0.115729 0.190729
v 0.275729 0.149271 0.185000
v 0.275729 0.149271 0.215000
v 0.285000 0.164271 0.209271
v 0.285000 0.164271 0.190729
v 0.270000 0.140000 0.200000
v 0.284228 0.140000 -0.225520
v 0.315772 0.140000 -0.225520
v 0.284228 0.140000 -0.174480
v 0.315772 0.140000 -0.174480
v 0.300000 0.165520 -0.184228
v 0.300000 0.165520 -0.215772
v 0.300000 0.114480 -0.184228
v 0.300000 0.114480 -0.215772
v 0.325520 0.124228 -0.200000
v 0.325520 0.155772 -0.200000
v 0.274480 0.124228 -0.200000
v 0.274480 0.155772 -0.200000
v 0.300000 0.140000 -0.230000
v 0.300000 0.140000 -0.170000
v 0.290729 0.155000 -0.175729
v 0.309271 0.155000 -0.175729
v 0.290729 0.155000 -0.224271
v 0.309271 0.155000 -0.224271
v 0.300000 0.170000 -0.200000
v 0.290729 0.125000 -0.175729
v 0.309271 0.125000 -0.175729
v 0.290729 0.125000 -0.224271
v 0.309271 0.125000 -0.224271
v 0.300000 0.110000 -0.200000
v 0.324271 0.130729 -0.215000
v 0.324271 0.130729 -0.185000
v 0.315000 0.115729 -0.190729
v 0.315000 0.115729 -0.209271
v 0.324271 0.149271 -0.215000
v 0.324271 0.149271 -0.185000
v 0.315000 0.164271 -0.190729
v 0.315000 0.164271 -0.209271
v 0.330000 0.140000 -0.200000
v 0.275729 0.130729 -0.215000
v 0.275729 0.130729 -0.185000
v 0.285000 0.115729 -0.190729
v 0.285000 0.115729 -0.209271
v 0.275729 0.149271 -0.215000
v 0.275729 0.149271 -0.185000
v 0.285000 0.164271 -0.190729
v 0.285000 0.164271 -0.209271
v 0.270000 0.140000 -0.200000
vt 0.0 0.0
vn -0.577350 -0.577350 0.577350
vn -0.577350 0.577350 0.577350
vn -0.577350 -0.577350 -0.577350
vn -0.577350 0.577350 -0.577350
vn 0.577350 -0.577350 0.577350
vn 0.577350 0.577350 0.577350
vn 0.577350 -0.577350 -0.577350
vn 0.577350 0.577350 -0.577350
vn -0.577350 -0.577350 0.577350
vn -0.577350 0.577350 0.577350
vn -0.577350 -0.577350 -0.577350
vn -0.577350 0.577350 -0.577350
vn 0.577350 -0.577350 0.577350
vn 0.577350 0.577350 0.577350
vn 0.577350 -0.577350 -0.577350
vn 0.577350 0.577350 -0.577350
vn -0.577350 -0.577350 0.577350
vn -0.577350 0.577350 0.577350
vn -0.577350 -0.577350 -0.577350
vn -0.577350 0.577350 -0.577350
vn 0.577350 -0.577350 0.577350
vn 0.577350 0.577350 0.577350
vn 0.577350 -0.577350 -0.577350
vn 0.577350 0.577350 -0.577350
vn -0.525731 0.000000 -0.850651
vn 0.525731 -0.000000 -0.850651
vn -0.525731 -0.000000 0.850651
vn 0.525731 0.000000 0.850651
vn -0.000000 0.850651 0.525731
vn 0.000000 0.850651 -0.525731
vn 0.000000 -0.850651 0.525731
vn -0.000000 -0.850651 -0.525731
vn 0.850651 -0.525731 0.000000
vn 0.850651 0.525731 0.000000
vn -0.850651 -0.525731 0.000000
vn -0.850651 0.525731 0.000000
vn -0.000000 -0.000000 -1.000000
vn 0.000000 -0.000000 1.000000
vn -0.309017 0.500000 0.809017
vn 0.309017 0.500000 0.809017
vn -0.309017 0.500000 -0.809017
vn 0.309017 0.500000 -0.809017
vn 0.000000 1.000000 0.000000
vn -0.309017 -0.500000 0.809017
vn 0.309017 -0.500000 0.809017
vn -0.309017 -0.500000 -0.809017
vn 0.309017 -0.500000 -0.809017
vn 0.000000 -1.000000 0.000000
vn 0.809017 -0.309017 -0.500000
vn 0.809017 -0.309017 0.500000
vn 0.500000 -0.809017 0.309017
vn 0.500000 -0.809017 -0.309017
vn 0.809017 0.309017 -0.500000
vn 0.809017 0.309017 0.500000
vn 0.500000 0.809017 0.309017
vn 0.500000 0.809017 -0.309017
vn 1.000000 0.000000 0.000000
vn -0.809017 -0.309017 -0.500000
vn -0.809017 -0.309017 0.500000
vn -0.500000 -0.809017 0.309017
vn -0.500000 -0.809017 -0.309017
vn -0.809017 0.309017 -0.500000
vn -0.809017 0.309017 0.500000
vn -0.500000 0.809017 0.309017
vn -0.500000 0.809017 -0.309017
vn -1.000000 0.000000 0.000000
vn -0.525731 0.000000 -0.850651
vn 0.525731 -0.000000 -0.850651
vn -0.525731 -0.000000 0.850651
vn 0.525731 0.000000 0.850651
vn -0.000000 0.850651 0.525731
vn 0.000000 0.850651 -0.525731
vn 0.000000 -0.850651 0.525731
vn -0.000000 -0.850651 -0.525731
vn 0.850651 -0.525731 0.000000
vn 0.850651 0.525731 0.000000
vn -0.850651 -0.525731 0.000000
vn -0.850651 0.525731 0.000000
vn -0.000000 -0.000000 -1.000000
vn 0.000000 -0.000000 1.000000
vn -0.309017 0.500000 0.809017
vn 0.309017 0.500000 0.809017
vn -0.309017 0.500000 -0.809017
vn 0.309017 0.500000 -0.809017
vn 0.000000 1.000000 0.000000
vn -0.309017 -0.500000 0.809017
vn 0.309017 -0.500000 0.809017
vn -0.309017 -0.500000 -0.809017
vn 0.309017 -0.500000 -0.809017
vn 0.000000 -1.000000 0.000000
vn 0.809017 -0.309017 -0.500000
vn 0.809017 -0.309017 0.500000
vn 0.500000 -0.809017 0.309017
vn 0.500000 -0.809017 -0.309017
vn 0.809017 0.309017 -0.500000
vn 0.809017 0.309017 0.500000
vn 0.500000 0.809017 0.309017
vn 0.500000 0.809017 -0.309017
vn 1.000000 0.000000 0.000000
vn -0.809017 -0.309017 -0.500000
vn -0.809017 -0.309017 0.500000
vn -0.500000 -0.809017 0.309017
vn -0.500000 -0.809017 -0.309017
vn -0.809017 0.309017 -0.500000
vn -0.809017 0.309017 0.500000
vn -0.500000 0.809017 0.309017
vn -0.500000 0.809017 -0.309017
vn -1.000000 0.000000 0.000000
vn -0.525731 0.000000 -0.850651
vn 0.525731 -0.000000 -0.850651
vn -0.525731 -0.000000 0.850651
vn 0.525731 0.000000 0.850651
vn -0.000000 0.850651 0.525731
vn 0.000000 0.850651 -0.525731
vn 0.000000 -0.850651 0.525731
vn -0.000000 -0.850651 -0.525731
vn 0.850651 -0.525731 0.000000
vn 0.850651 0.525731 0.000000
vn -0.850651 -0.525731 0.000000
vn -0.850651 0.525731 0.000000
vn -0.000000 -0.000000 -1.000000
vn 0.000000 -0.000000 1.000000
vn -0.309017 0.500000 0.809017
vn 0.309017 0.500000 0.809017
vn -0.309017 0.500000 -0.809017
vn 0.309017 0.500000 -0.809017
vn 0.000000 1.000000 0.000000
vn -0.309017 -0.500000 0.809017
vn 0.309017 -0.500000 0.809017
vn -0.309017 -0.500000 -0.809017
vn 0.309017 -0.500000 -0.809017
vn 0.000000 -1.000000 0.000000
vn 0.809017 -0.309017 -0.500000
vn 0.809017 -0.309017 0.500000
vn 0.500000 -0.809017 0.309017
vn 0.500000 -0.809017 -0.309017
vn 0.809017 0.309017 -0.500000
vn 0.809017 0.309017 0.500000
vn 0.500000 0.809017 0.309017
vn 0.500000 0.809017 -0.309017
vn 1.000000 0.000000 0.000000
vn -0.809017 -0.309017 -0.500000
vn -0.809017 -0.309017 0.500000
vn -0.500000 -0.809017 0.309017
vn -0.500000 -0.809017 -0.309017
vn -0.809017 0.309017 -0.500000
vn -0.809017 0.309017 0.500000
vn -0.500000 0.809017 0.309017
vn -0.500000 0.809017 -0.309017
vn -1.000000 0.000000 0.000000
vn -0.525731 0.000000 -0.850651
vn 0.525731 -0.000000 -0.850651
vn -0.525731 -0.000000 0.850651
vn 0.525731 0.000000 0.850651
vn -0.000000 0.850651 0.525731
vn 0.000000 0.850651 -0.525731
vn 0.000000 -0.850651 0.525731
vn -0.000000 -0.850651 -0.525731
vn 0.850651 -0.525731 0.000000
vn 0.850651 0.525731 0.000000
vn -0.850651 -0.525731 0.000000
vn -0.850651 0.525731 0.000000
vn -0.000000 -0.000000 -1.000000
vn 0.000000 -0.000000 1.000000
vn -0.309017 0.500000 0.809017
vn 0.309017 0.500000 0.809017
vn -0.309017 0.500000 -0.809017
vn 0.309017 0.500000 -0.809017
vn 0.000000 1.000000 0.000000
vn -0.309017 -0.500000 0.809017
vn 0.309017 -0.500000 0.809017
vn -0.309017 -0.500000 -0.809017
vn 0.309017 -0.500000 -0.809017
vn 0.000000 -1.000000 0.000000
vn 0.809017 -0.309017 -0.500000
vn 0.809017 -0.309017 0.500000
vn 0.500000 -0.809017 0.309017
vn 0.500000 -0.809017 -0.309017
vn 0.809017 0.309017 -0.500000
vn 0.809017 0.309017 0.500000
vn 0.500000 0.809017 0.309017
vn 0.500000 0.809017 -0.309017
vn 1.000000 0.000000 0.000000
vn -0.809017 -0.309017 -0.500000
vn -0.809017 -0.309017 0.500000
vn -0.500000 -0.809017 0.309017
vn -0.500000 -0.809017 -0.309017
vn -0.809017 0.309017 -0.500000
vn -0.809017 0.309017 0.500000
vn -0.500000 0.809017 0.309017
vn -0.500000 0.809017 -0.309017
vn -1.000000 0.000000 0.000000
usemtl wrought_black_iron
f 44/1/44 46/1/46 43/1/43
f 47/1/47 44/1/44 43/1/43
f 43/1/43 46/1/46 45/1/45
f 45/1/45 47/1/47 43/1/43
f 44/1/44 50/1/50 46/1/46
f 48/1/48 44/1/44 47/1/47
f 48/1/48 50/1/50 44/1/44
f 46/1/46 50/1/50 45/1/45
f 49/1/49 47/1/47 45/1/45
f 45/1/45 50/1/50 49/1/49
f 49/1/49 48/1/48 47/1/47
f 50/1/50 48/1/48 49/1/49
f 52/1/52 54/1/54 51/1/51
f 55/1/55 52/1/52 51/1/51
f 51/1/51 54/1/54 53/1/53
f 53/1/53 55/1/55 51/1/51
f 52/1/52 58/1/58 54/1/54
f 56/1/56 52/1/52 55/1/55
f 56/1/56 58/1/58 52/1/52
f 54/1/54 58/1/58 53/1/53
f 57/1/57 55/1/55 53/1/53
f 53/1/53 58/1/58 57/1/57
f 57/1/57 56/1/56 55/1/55
f 58/1/58 56/1/56 57/1/57
f 60/1/60 62/1/62 59/1/59
f 63/1/63 60/1/60 59/1/59
f 59/1/59 62/1/62 61/1/61
f 61/1/61 63/1/63 59/1/59
f 60/1/60 66/1/66 62/1/62
f 64/1/64 60/1/60 63/1/63
f 64/1/64 66/1/66 60/1/60
f 62/1/62 66/1/66 61/1/61
f 65/1/65 63/1/63 61/1/61
f 61/1/61 66/1/66 65/1/65
f 65/1/65 64/1/64 63/1/63
f 66/1/66 64/1/64 65/1/65
f 67/1/67 104/1/104 83/1/83
f 104/1/104 78/1/78 107/1/107
f 83/1/83 107/1/107 72/1/72
f 104/1/104 107/1/107 83/1/83
f 67/1/67 83/1/83 79/1/79
f 83/1/83 72/1/72 84/1/84
f 79/1/79 84/1/84 68/1/68
f 83/1/83 84/1/84 79/1/79
f 67/1/67 79/1/79 88/1/88
f 79/1/79 68/1/68 89/1/89
f 88/1/88 89/1/89 74/1/74
f 79/1/79 89/1/89 88/1/88
f 67/1/67 88/1/88 100/1/100
f 88/1/88 74/1/74 103/1/103
f 100/1/100 103/1/103 77/1/77
f 88/1/88 103/1/103 100/1/100
f 67/1/67 100/1/100 104/1/104
f 100/1/100 77/1/77 108/1/108
f 104/1/104 108/1/108 78/1/78
f 100/1/100 108/1/108 104/1/104
f 68/1/68 84/1/84 95/1/95
f 84/1/84 72/1/72 98/1/98
f 95/1/95 98/1/98 76/1/76
f 84/1/84 98/1/98 95/1/95
f 72/1/72 107/1/107 85/1/85
f 107/1/107 78/1/78 106/1/106
f 85/1/85 106/1/106 71/1/71
f 107/1/107 106/1/106 85/1/85
f 78/1/78 108/1/108 105/1/105
f 108/1/108 77/1/77 101/1/101
f 105/1/105 101/1/101 69/1/69
f 108/1/108 101/1/101 105/1/105
f 77/1/77 103/1/103 102/1/102
f 103/1/103 74/1/74 90/1/90
f 102/1/102 90/1/90 73/1/73
f 103/1/103 90/1/90 102/1/102
f 74/1/74 89/1/89 94/1/94
f 89/1/89 68/1/68 91/1/91
f 94/1/94 91/1/91 75/1/75
f 89/1/89 91/1/91 94/1/94
f 70/1/70 96/1/96 82/1/82
f 96/1/96 76/1/76 97/1/97
f 82/1/82 97/1/97 71/1/71
f 96/1/96 97/1/97 82/1/82
f 70/1/70 82/1/82 80/1/80
f 82/1/82 71/1/71 81/1/81
f 80/1/80 81/1/81 69/1/69
f 82/1/82 81/1/81 80/1/80
f 70/1/70 80/1/80 87/1/87
f 80/1/80 69/1/69 86/1/86
f 87/1/87 86/1/86 73/1/73
f 80/1/80 86/1/86 87/1/87
f 70/1/70 87/1/87 92/1/92
f 87/1/87 73/1/73 93/1/93
f 92/1/92 93/1/93 75/1/75
f 87/1/87 93/1/93 92/1/92
f 70/1/70 92/1/92 96/1/96
f 92/1/92 75/1/75 99/1/99
f 96/1/96 99/1/99 76/1/76
f 92/1/92 99/1/99 96/1/96
f 71/1/71 97/1/97 85/1/85
f 97/1/97 76/1/76 98/1/98
f 85/1/85 98/1/98 72/1/72
f 97/1/97 98/1/98 85/1/85
f 69/1/69 81/1/81 105/1/105
f 81/1/81 71/1/71 106/1/106
f 105/1/105 106/1/106 78/1/78
f 81/1/81 106/1/106 105/1/105
f 73/1/73 86/1/86 102/1/102
f 86/1/86 69/1/69 101/1/101
f 102/1/102 101/1/101 77/1/77
f 86/1/86 101/1/101 102/1/102
f 75/1/75 93/1/93 94/1/94
f 93/1/93 73/1/73 90/1/90
f 94/1/94 90/1/90 74/1/74
f 93/1/93 90/1/90 94/1/94
f 76/1/76 99/1/99 95/1/95
f 99/1/99 75/1/75 91/1/91
f 95/1/95 91/1/91 68/1/68
f 99/1/99 91/1/91 95/1/95
f 109/1/109 146/1/146 125/1/125
f 146/1/146 120/1/120 149/1/149
f 125/1/125 149/1/149 114/1/114
f 146/1/146 149/1/149 125/1/125
f 109/1/109 125/1/125 121/1/121
f 125/1/125 114/1/114 126/1/126
f 121/1/121 126/1/126 110/1/110
f 125/1/125 126/1/126 121/1/121
f 109/1/109 121/1/121 130/1/130
f 121/1/121 110/1/110 131/1/131
f 130/1/130 131/1/131 116/1/116
f 121/1/121 131/1/131 130/1/130
f 109/1/109 130/1/130 142/1/142
f 130/1/130 116/1/116 145/1/145
f 142/1/142 145/1/145 119/1/119
f 130/1/130 145/1/145 142/1/142
f 109/1/109 142/1/142 146/1/146
f 142/1/142 119/1/119 150/1/150
f 146/1/146 150/1/150 120/1/120
f 142/1/142 150/1/150 146/1/146
f 110/1/110 126/1/126 137/1/137
f 126/1/126 114/1/114 140/1/140
f 137/1/137 140/1/140 118/1/118
f 126/1/126 140/1/140 137/1/137
f 114/1/114 149/1/149 127/1/127
f 149/1/149 120/1/120 148/1/148
f 127/1/127 148/1/148 113/1/113
f 149/1/149 148/1/148 127/1/127
f 120/1/120 150/1/150 147/1/147
f 150/1/150 119/1/119 143/1/143
f 147/1/147 143/1/143 111/1/111
f 150/1/150 143/1/143 147/1/147
f 119/1/119 145/1/145 144/1/144
f 145/1/145 116/1/116 132/1/132
f 144/1/144 132/1/132 115/1/115
f 145/1/145 132/1/132 144/1/144
f 116/1/116 131/1/131 136/1/136
f 131/1/131 110/1/110 133/1/133
f 136/1/136 133/1/133 117/1/117
f 131/1/131 133/1/133 136/1/136
f 112/1/112 138/1/138 124/1/124
f 138/1/138 118/1/118 139/1/139
f 124/1/124 139/1/139 113/1/113
f 138/1/138 139/1/139 124/1/124
f 112/1/112 124/1/124 122/1/122
f 124/1/124 113/1/113 123/1/123
f 122/1/122 123/1/123 111/1/111
f 124/1/124 123/1/123 122/1/122
f 112/1/112 122/1/122 129/1/129
f 122/1/122 111/1/111 128/1/128
f 129/1/129 128/1/128 115/1/115
f 122/1/122 128/1/128 129/1/129
f 112/1/112 129/1/129 134/1/134
f 129/1/129 115/1/115 135/1/135
f 134/1/134 135/1/135 117/1/117
f 129/1/129 135/1/135 134/1/134
f 112/1/112 134/1/134 138/1/138
f 134/1/134 117/1/117 141/1/141
f 138/1/138 141/1/141 118/1/118
f 134/1/134 141/1/141 138/1/138
f 113/1/113 139/1/139 127/1/127
f 139/1/139 118/1/118 140/1/140
f 127/1/127 140/1/140 114/1/114
f 139/1/139 140/1/140 127/1/127
f 111/1/111 123/1/123 147/1/147
f 123/1/123 113/1/113 148/1/148
f 147/1/147 148/1/148 120/1/120
f 123/1/123 148/1/148 147/1/147
f 115/1/115 128/1/128 144/1/144
f 128/1/128 111/1/111 143/1/143
f 144/1/144 143/1/143 119/1/119
f 128/1/128 143/1/143 144/1/144
f 117/1/117 135/1/135 136/1/136
f 135/1/135 115/1/115 132/1/132
f 136/1/136 132/1/132 116/1/116
f 135/1/135 132/1/132 136/1/136
f 118/1/118 141/1/141 137/1/137
f 141/1/141 117/1/117 133/1/133
f 137/1/137 133/1/133 110/1/110
f 141/1/141 133/1/133 137/1/137
f 151/1/151 188/1/188 167/1/167
f 188/1/188 162/1/162 191/1/191
f 167/1/167 191/1/191 156/1/156
f 188/1/188 191/1/191 167/1/167
f 151/1/151 167/1/167 163/1/163
f 167/1/167 156/1/156 168/1/168
f 163/1/163 168/1/168 152/1/152
f 167/1/167 168/1/168 163/1/163
f 151/1/151 163/1/163 172/1/172
f 163/1/163 152/1/152 173/1/173
f 172/1/172 173/1/173 158/1/158
f 163/1/163 173/1/173 172/1/172
f 151/1/151 172/1/172 184/1/184
f 172/1/172 158/1/158 187/1/187
f 184/1/184 187/1/187 161/1/161
f 172/1/172 187/1/187 184/1/184
f 151/1/151 184/1/184 188/1/188
f 184/1/184 161/1/161 192/1/192
f 188/1/188 192/1/192 162/1/162
f 184/1/184 192/1/192 188/1/188
f 152/1/152 168/1/168 179/1/179
f 168/1/168 156/1/156 182/1/182
f 179/1/179 182/1/182 160/1/160
f 168/1/168 182/1/182 179/1/179
f 156/1/156 191/1/191 169/1/169
f 191/1/191 162/1/162 190/1/190
f 169/1/169 190/1/190 155/1/155
f 191/1/191 190/1/190 169/1/169
f 162/1/162 192/1/192 189/1/189
f 192/1/192 161/1/161 185/1/185
f 189/1/189 185/1/185 153/1/153
f 192/1/192 185/1/185 189/1/189
f 161/1/161 187/1/187 186/1/186
f 187/1/187 158/1/158 174/1/174
f 186/1/186 174/1/174 157/1/157
f 187/1/187 174/1/174 186/1/186
f 158/1/158 173/1/173 178/1/178
f 173/1/173 152/1/152 175/1/175
f 178/1/178 175/1/175 159/1/159
f 173/1/173 175/1/175 178/1/178
f 154/1/154 180/1/180 166/1/166
f 180/1/180 160/1/160 181/1/181
f 166/1/166 181/1/181 155/1/155
f 180/1/180 181/1/181 166/1/166
f 154/1/154 166/1/166 164/1/164
f 166/1/166 155/1/155 165/1/165
f 164/1/164 165/1/165 153/1/153
f 166/1/166 165/1/165 164/1/164
f 154/1/154 164/1/164 171/1/171
f 164/1/164 153/1/153 170/1/170
f 171/1/171 170/1/170 157/1/157
f 164/1/164 170/1/170 171/1/171
f 154/1/154 171/1/171 176/1/176
f 171/1/171 157/1/157 177/1/177
f 176/1/176 177/1/177 159/1/159
f 171/1/171 177/1/177 176/1/176
f 154/1/154 176/1/176 180/1/180
f 176/1/176 159/1/159 183/1/183
f 180/1/180 183/1/183 160/1/160
f 176/1/176 183/1/183 180/1/180
f 155/1/155 181/1/181 169/1/169
f 181/1/181 160/1/160 182/1/182
f 169/1/169 182/1/182 156/1/156
f 181/1/181 182/1/182 169/1/169
f 153/1/153 165/1/165 189/1/189
f 165/1/165 155/1/155 190/1/190
f 189/1/189 190/1/190 162/1/162
f 165/1/165 190/1/190 189/1/189
f 157/1/157 170/1/170 186/1/186
f 170/1/170 153/1/153 185/1/185
f 186/1/186 185/1/185 161/1/161
f 170/1/170 185/1/185 186/1/186
f 159/1/159 177/1/177 178/1/178
f 177/1/177 157/1/157 174/1/174
f 178/1/178 174/1/174 158/1/158
f 177/1/177 174/1/174 178/1/178
f 160/1/160 183/1/183 179/1/179
f 183/1/183 159/1/159 175/1/175
f 179/1/179 175/1/175 152/1/152
f 183/1/183 175/1/175 179/1/179
f 193/1/193 230/1/230 209/1/209
f 230/1/230 204/1/204 233/1/233
f 209/1/209 233/1/233 198/1/198
f 230/1/230 233/1/233 209/1/209
f 193/1/193 209/1/209 205/1/205
f 209/1/209 198/1/198 210/1/210
f 205/1/205 210/1/210 194/1/194
f 209/1/209 210/1/210 205/1/205
f 193/1/193 205/1/205 214/1/214
f 205/1/205 194/1/194 215/1/215
f 214/1/214 215/1/215 200/1/200
f 205/1/205 215/1/215 214/1/214
f 193/1/193 214/1/214 226/1/226
f 214/1/214 200/1/200 229/1/229
f 226/1/226 229/1/229 203/1/203
f 214/1/214 229/1/229 226/1/226
f 193/1/193 226/1/226 230/1/230
f 226/1/226 203/1/203 234/1/234
f 230/1/230 234/1/234 204/1/204
f 226/1/226 234/1/234 230/1/230
f 194/1/194 210/1/210 221/1/221
f 210/1/210 198/1/198 224/1/224
f 221/1/221 224/1/224 202/1/202
f 210/1/210 224/1/224 221/1/221
f 198/1/198 233/1/233 211/1/211
f 233/1/233 204/1/204 232/1/232
f 211/1/211 232/1/232 197/1/197
f 233/1/233 232/1/232 211/1/211
f 204/1/204 234/1/234 231/1/231
f 234/1/234 203/1/203 227/1/227
f 231/1/231 227/1/227 195/1/195
f 234/1/234 227/1/227 231/1/231
f 203/1/203 229/1/229 228/1/228
f 229/1/229 200/1/200 216/1/216
f 228/1/228 216/1/216 199/1/199
f 229/1/229 216/1/216 228/1/228
f 200/1/200 215/1/215 220/1/220
f 215/1/215 194/1/194 217/1/217
f 220/1/220 217/1/217 201/1/201
f 215/1/215 217/1/217 220/1/220
f 196/1/196 222/1/222 208/1/208
f 222/1/222 202/1/202 223/1/223
f 208/1/208 223/1/223 197/1/197
f 222/1/222 223/1/223 208/1/208
f 196/1/196 208/1/208 206/1/206
f 208/1/208 197/1/197 207/1/207
f 206/1/206 207/1/207 195/1/195
f 208/1/208 207/1/207 206/1/206
f 196/1/196 206/1/206 213/1/213
f 206/1/206 195/1/195 212/1/212
f 213/1/213 212/1/212 199/1/199
f 206/1/206 212/1/212 213/1/213
f 196/1/196 213/1/213 218/1/218
f 213/1/213 199/1/199 219/1/219
f 218/1/218 219/1/219 201/1/201
f 213/1/213 219/1/219 218/1/218
f 196/1/196 218/1/218 222/1/222
f 218/1/218 201/1/201 225/1/225
f 222/1/222 225/1/225 202/1/202
f 218/1/218 225/1/225 222/1/222
f 197/1/197 223/1/223 211/1/211
f 223/1/223 202/1/202 224/1/224
f 211/1/211 224/1/224 198/1/198
f 223/1/223 224/1/224 211/1/211
f 195/1/195 207/1/207 231/1/231
f 207/1/207 197/1/197 232/1/232
f 231/1/231 232/1/232 204/1/204
f 207/1/207 232/1/232 231/1/231
f 199/1/199 212/1/212 228/1/228
f 212/1/212 195/1/195 227/1/227
f 228/1/228 227/1/227 203/1/203
f 212/1/212 227/1/227 228/1/228
f 201/1/201 219/1/219 220/1/220
f 219/1/219 199/1/199 216/1/216
f 220/1/220 216/1/216 200/1/200
f 219/1/219 216/1/216 220/1/220
f 202/1/202 225/1/225 221/1/221
f 225/1/225 201/1/201 217/1/217
f 221/1/221 217/1/217 194/1/194
f 225/1/225 217/1/217 221/1/221

# Group: antique_brass
v -0.140000 0.150000 0.235000
v -0.140000 0.290000 0.235000
v -0.140000 0.150000 0.205000
v -0.140000 0.290000 0.205000
v -0.060000 0.150000 0.235000
v -0.060000 0.290000 0.235000
v -0.060000 0.150000 0.205000
v -0.060000 0.290000 0.205000
v 0.060000 0.150000 0.235000
v 0.060000 0.290000 0.235000
v 0.060000 0.150000 0.205000
v 0.060000 0.290000 0.205000
v 0.140000 0.150000 0.235000
v 0.140000 0.290000 0.235000
v 0.140000 0.150000 0.205000
v 0.140000 0.290000 0.205000
vt 0.0 0.0
vn -0.577350 -0.577350 0.577350
vn -0.577350 0.577350 0.577350
vn -0.577350 -0.577350 -0.577350
vn -0.577350 0.577350 -0.577350
vn 0.577350 -0.577350 0.577350
vn 0.577350 0.577350 0.577350
vn 0.577350 -0.577350 -0.577350
vn 0.577350 0.577350 -0.577350
vn -0.577350 -0.577350 0.577350
vn -0.577350 0.577350 0.577350
vn -0.577350 -0.577350 -0.577350
vn -0.577350 0.577350 -0.577350
vn 0.577350 -0.577350 0.577350
vn 0.577350 0.577350 0.577350
vn 0.577350 -0.577350 -0.577350
vn 0.577350 0.577350 -0.577350
usemtl antique_brass
f 236/1/236 238/1/238 235/1/235
f 239/1/239 236/1/236 235/1/235
f 235/1/235 238/1/238 237/1/237
f 237/1/237 239/1/239 235/1/235
f 236/1/236 242/1/242 238/1/238
f 240/1/240 236/1/236 239/1/239
f 240/1/240 242/1/242 236/1/236
f 238/1/238 242/1/242 237/1/237
f 241/1/241 239/1/239 237/1/237
f 237/1/237 242/1/242 241/1/241
f 241/1/241 240/1/240 239/1/239
f 242/1/242 240/1/240 241/1/241
f 244/1/244 246/1/246 243/1/243
f 247/1/247 244/1/244 243/1/243
f 243/1/243 246/1/246 245/1/245
f 245/1/245 247/1/247 243/1/243
f 244/1/244 250/1/250 246/1/246
f 248/1/248 244/1/244 247/1/247
f 248/1/248 250/1/250 244/1/244
f 246/1/246 250/1/250 245/1/245
f 249/1/249 247/1/247 245/1/245
f 245/1/245 250/1/250 249/1/249
f 249/1/249 248/1/248 247/1/247
f 250/1/250 248/1/248 249/1/249

