mtllib gothic_street_lamp.mtl
o gothic_street_lamp

# Group: gothic_iron
v 0.000000 0.000000 0.000000
v 0.180000 0.000000 0.000000
v 0.180000 0.140000 0.000000
v 0.000000 0.140000 0.000000
v 0.090000 0.000000 -0.155885
v 0.090000 0.140000 -0.155885
v -0.090000 0.000000 -0.155885
v -0.090000 0.140000 -0.155885
v -0.180000 0.000000 0.000000
v -0.180000 0.140000 0.000000
v -0.090000 0.000000 0.155885
v -0.090000 0.140000 0.155885
v 0.090000 0.000000 0.155885
v 0.090000 0.140000 0.155885
v 0.000000 0.140000 0.000000
v 0.060000 0.140000 0.000000
v 0.060000 0.780000 0.000000
v 0.000000 0.780000 0.000000
v 0.030000 0.140000 -0.051962
v 0.030000 0.780000 -0.051962
v -0.030000 0.140000 -0.051962
v -0.030000 0.780000 -0.051962
v -0.060000 0.140000 0.000000
v -0.060000 0.780000 0.000000
v -0.030000 0.140000 0.051962
v -0.030000 0.780000 0.051962
v 0.030000 0.140000 0.051962
v 0.030000 0.780000 0.051962
v 0.000000 0.775000 0.000000
v 0.180000 0.775000 0.000000
v 0.180000 0.825000 0.000000
v 0.000000 0.825000 0.000000
v 0.090000 0.775000 -0.155885
v 0.090000 0.825000 -0.155885
v -0.090000 0.775000 -0.155885
v -0.090000 0.825000 -0.155885
v -0.180000 0.775000 0.000000
v -0.180000 0.825000 0.000000
v -0.090000 0.775000 0.155885
v -0.090000 0.825000 0.155885
v 0.090000 0.775000 0.155885
v 0.090000 0.825000 0.155885
v 0.000000 0.920000 0.000000
v 0.200000 0.920000 0.000000
v 0.200000 1.040000 0.000000
v 0.000000 1.040000 0.000000
v 0.100000 0.920000 -0.173205
v 0.100000 1.040000 -0.173205
v -0.100000 0.920000 -0.173205
v -0.100000 1.040000 -0.173205
v -0.200000 0.920000 0.000000
v -0.200000 1.040000 0.000000
v -0.100000 0.920000 0.173205
v -0.100000 1.040000 0.173205
v 0.100000 0.920000 0.173205
v 0.100000 1.040000 0.173205
v 0.000000 1.040000 0.000000
v 0.020000 1.040000 0.000000
v 0.020000 1.200000 0.000000
v 0.000000 1.200000 0.000000
v 0.010000 1.040000 -0.017321
v 0.010000 1.200000 -0.017321
v -0.010000 1.040000 -0.017321
v -0.010000 1.200000 -0.017321
v -0.020000 1.040000 0.000000
v -0.020000 1.200000 0.000000
v -0.010000 1.040000 0.017321
v -0.010000 1.200000 0.017321
v 0.010000 1.040000 0.017321
v 0.010000 1.200000 0.017321
vt 0.0 0.0
vn 0.000000 -1.000000 0.000000
vn 0.792406 -0.609994 0.000000
vn 0.792406 0.609994 0.000000
vn 0.000000 1.000000 0.000000
vn 0.396203 -0.609994 -0.686244
vn 0.396203 0.609994 -0.686244
vn -0.396203 -0.609994 -0.686244
vn -0.396203 0.609994 -0.686244
vn -0.792406 -0.609994 0.000000
vn -0.792406 0.609994 0.000000
vn -0.396203 -0.609994 0.686244
vn -0.396203 0.609994 0.686244
vn 0.396203 -0.609994 0.686244
vn 0.396203 0.609994 0.686244
vn 0.000000 -1.000000 0.000000
vn 0.792406 -0.609994 0.000000
vn 0.792406 0.609994 0.000000
vn 0.000000 1.000000 0.000000
vn 0.396203 -0.609994 -0.686244
vn 0.396203 0.609994 -0.686244
vn -0.396203 -0.609994 -0.686244
vn -0.396203 0.609994 -0.686244
vn -0.792406 -0.609994 0.000000
vn -0.792406 0.609994 0.000000
vn -0.396203 -0.609994 0.686244
vn -0.396203 0.609994 0.686244
vn 0.396203 -0.609994 0.686244
vn 0.396203 0.609994 0.686244
vn 0.000000 -1.000000 0.000000
vn 0.792406 -0.609994 0.000000
vn 0.792406 0.609994 0.000000
vn 0.000000 1.000000 0.000000
vn 0.396203 -0.609994 -0.686244
vn 0.396203 0.609994 -0.686244
vn -0.396203 -0.609994 -0.686244
vn -0.396203 0.609994 -0.686244
vn -0.792406 -0.609994 0.000000
vn -0.792406 0.609994 0.000000
vn -0.396203 -0.609994 0.686244
vn -0.396203 0.609994 0.686244
vn 0.396203 -0.609994 0.686244
vn 0.396203 0.609994 0.686244
vn 0.000000 -1.000000 0.000000
vn 0.792406 -0.609994 0.000000
vn 0.792406 0.609994 0.000000
vn 0.000000 1.000000 0.000000
vn 0.396203 -0.609994 -0.686244
vn 0.396203 0.609994 -0.686244
vn -0.396203 -0.609994 -0.686244
vn -0.396203 0.609994 -0.686244
vn -0.792406 -0.609994 0.000000
vn -0.792406 0.609994 0.000000
vn -0.396203 -0.609994 0.686244
vn -0.396203 0.609994 0.686244
vn 0.396203 -0.609994 0.686244
vn 0.396203 0.609994 0.686244
vn 0.000000 -1.000000 0.000000
vn 0.792406 -0.609994 0.000000
vn 0.792406 0.609994 0.000000
vn 0.000000 1.000000 0.000000
vn 0.396203 -0.609994 -0.686244
vn 0.396203 0.609994 -0.686244
vn -0.396203 -0.609994 -0.686244
vn -0.396203 0.609994 -0.686244
vn -0.792406 -0.609994 0.000000
vn -0.792406 0.609994 0.000000
vn -0.396203 -0.609994 0.686244
vn -0.396203 0.609994 0.686244
vn 0.396203 -0.609994 0.686244
vn 0.396203 0.609994 0.686244
usemtl gothic_iron
f 2/1/2 1/1/1 5/1/5
f 2/1/2 5/1/5 3/1/3
f 3/1/3 5/1/5 6/1/6
f 3/1/3 6/1/6 4/1/4
f 5/1/5 1/1/1 7/1/7
f 5/1/5 7/1/7 6/1/6
f 6/1/6 7/1/7 8/1/8
f 6/1/6 8/1/8 4/1/4
f 7/1/7 1/1/1 9/1/9
f 7/1/7 9/1/9 8/1/8
f 8/1/8 9/1/9 10/1/10
f 8/1/8 10/1/10 4/1/4
f 9/1/9 1/1/1 11/1/11
f 9/1/9 11/1/11 10/1/10
f 10/1/10 11/1/11 12/1/12
f 10/1/10 12/1/12 4/1/4
f 11/1/11 1/1/1 13/1/13
f 11/1/11 13/1/13 12/1/12
f 12/1/12 13/1/13 14/1/14
f 12/1/12 14/1/14 4/1/4
f 13/1/13 1/1/1 2/1/2
f 13/1/13 2/1/2 14/1/14
f 14/1/14 2/1/2 3/1/3
f 14/1/14 3/1/3 4/1/4
f 16/1/16 15/1/15 19/1/19
f 16/1/16 19/1/19 17/1/17
f 17/1/17 19/1/19 20/1/20
f 17/1/17 20/1/20 18/1/18
f 19/1/19 15/1/15 21/1/21
f 19/1/19 21/1/21 20/1/20
f 20/1/20 21/1/21 22/1/22
f 20/1/20 22/1/22 18/1/18
f 21/1/21 15/1/15 23/1/23
f 21/1/21 23/1/23 22/1/22
f 22/1/22 23/1/23 24/1/24
f 22/1/22 24/1/24 18/1/18
f 23/1/23 15/1/15 25/1/25
f 23/1/23 25/1/25 24/1/24
f 24/1/24 25/1/25 26/1/26
f 24/1/24 26/1/26 18/1/18
f 25/1/25 15/1/15 27/1/27
f 25/1/25 27/1/27 26/1/26
f 26/1/26 27/1/27 28/1/28
f 26/1/26 28/1/28 18/1/18
f 27/1/27 15/1/15 16/1/16
f 27/1/27 16/1/16 28/1/28
f 28/1/28 16/1/16 17/1/17
f 28/1/28 17/1/17 18/1/18
f 30/1/30 29/1/29 33/1/33
f 30/1/30 33/1/33 31/1/31
f 31/1/31 33/1/33 34/1/34
f 31/1/31 34/1/34 32/1/32
f 33/1/33 29/1/29 35/1/35
f 33/1/33 35/1/35 34/1/34
f 34/1/34 35/1/35 36/1/36
f 34/1/34 36/1/36 32/1/32
f 35/1/35 29/1/29 37/1/37
f 35/1/35 37/1/37 36/1/36
f 36/1/36 37/1/37 38/1/38
f 36/1/36 38/1/38 32/1/32
f 37/1/37 29/1/29 39/1/39
f 37/1/37 39/1/39 38/1/38
f 38/1/38 39/1/39 40/1/40
f 38/1/38 40/1/40 32/1/32
f 39/1/39 29/1/29 41/1/41
f 39/1/39 41/1/41 40/1/40
f 40/1/40 41/1/41 42/1/42
f 40/1/40 42/1/42 32/1/32
f 41/1/41 29/1/29 30/1/30
f 41/1/41 30/1/30 42/1/42
f 42/1/42 30/1/30 31/1/31
f 42/1/42 31/1/31 32/1/32
f 44/1/44 43/1/43 47/1/47
f 44/1/44 47/1/47 45/1/45
f 45/1/45 47/1/47 48/1/48
f 45/1/45 48/1/48 46/1/46
f 47/1/47 43/1/43 49/1/49
f 47/1/47 49/1/49 48/1/48
f 48/1/48 49/1/49 50/1/50
f 48/1/48 50/1/50 46/1/46
f 49/1/49 43/1/43 51/1/51
f 49/1/49 51/1/51 50/1/50
f 50/1/50 51/1/51 52/1/52
f 50/1/50 52/1/52 46/1/46
f 51/1/51 43/1/43 53/1/53
f 51/1/51 53/1/53 52/1/52
f 52/1/52 53/1/53 54/1/54
f 52/1/52 54/1/54 46/1/46
f 53/1/53 43/1/43 55/1/55
f 53/1/53 55/1/55 54/1/54
f 54/1/54 55/1/55 56/1/56
f 54/1/54 56/1/56 46/1/46
f 55/1/55 43/1/43 44/1/44
f 55/1/55 44/1/44 56/1/56
f 56/1/56 44/1/44 45/1/45
f 56/1/56 45/1/45 46/1/46
f 58/1/58 57/1/57 61/1/61
f 58/1/58 61/1/61 59/1/59
f 59/1/59 61/1/61 62/1/62
f 59/1/59 62/1/62 60/1/60
f 61/1/61 57/1/57 63/1/63
f 61/1/61 63/1/63 62/1/62
f 62/1/62 63/1/63 64/1/64
f 62/1/62 64/1/64 60/1/60
f 63/1/63 57/1/57 65/1/65
f 63/1/63 65/1/65 64/1/64
f 64/1/64 65/1/65 66/1/66
f 64/1/64 66/1/66 60/1/60
f 65/1/65 57/1/57 67/1/67
f 65/1/65 67/1/67 66/1/66
f 66/1/66 67/1/67 68/1/68
f 66/1/66 68/1/68 60/1/60
f 67/1/67 57/1/57 69/1/69
f 67/1/67 69/1/69 68/1/68
f 68/1/68 69/1/69 70/1/70
f 68/1/68 70/1/70 60/1/60
f 69/1/69 57/1/57 58/1/58
f 69/1/69 58/1/58 70/1/70
f 70/1/70 58/1/58 59/1/59
f 70/1/70 59/1/59 60/1/60

# Group: stained_amber_glass
v 0.000000 0.810000 0.000000
v 0.150000 0.810000 0.000000
v 0.150000 0.970000 0.000000
v 0.000000 0.970000 0.000000
v 0.075000 0.810000 -0.129904
v 0.075000 0.970000 -0.129904
v -0.075000 0.810000 -0.129904
v -0.075000 0.970000 -0.129904
v -0.150000 0.810000 0.000000
v -0.150000 0.970000 0.000000
v -0.075000 0.810000 0.129904
v -0.075000 0.970000 0.129904
v 0.075000 0.810000 0.129904
v 0.075000 0.970000 0.129904
vt 0.0 0.0
vn 0.000000 -1.000000 0.000000
vn 0.792406 -0.609994 0.000000
vn 0.792406 0.609994 0.000000
vn 0.000000 1.000000 0.000000
vn 0.396203 -0.609994 -0.686244
vn 0.396203 0.609994 -0.686244
vn -0.396203 -0.609994 -0.686244
vn -0.396203 0.609994 -0.686244
vn -0.792406 -0.609994 0.000000
vn -0.792406 0.609994 0.000000
vn -0.396203 -0.609994 0.686244
vn -0.396203 0.609994 0.686244
vn 0.396203 -0.609994 0.686244
vn 0.396203 0.609994 0.686244
usemtl stained_amber_glass
f 72/1/72 71/1/71 75/1/75
f 72/1/72 75/1/75 73/1/73
f 73/1/73 75/1/75 76/1/76
f 73/1/73 76/1/76 74/1/74
f 75/1/75 71/1/71 77/1/77
f 75/1/75 77/1/77 76/1/76
f 76/1/76 77/1/77 78/1/78
f 76/1/76 78/1/78 74/1/74
f 77/1/77 71/1/71 79/1/79
f 77/1/77 79/1/79 78/1/78
f 78/1/78 79/1/79 80/1/80
f 78/1/78 80/1/80 74/1/74
f 79/1/79 71/1/71 81/1/81
f 79/1/79 81/1/81 80/1/80
f 80/1/80 81/1/81 82/1/82
f 80/1/80 82/1/82 74/1/74
f 81/1/81 71/1/71 83/1/83
f 81/1/81 83/1/83 82/1/82
f 82/1/82 83/1/83 84/1/84
f 82/1/82 84/1/84 74/1/74
f 83/1/83 71/1/71 72/1/72
f 83/1/83 72/1/72 84/1/84
f 84/1/84 72/1/72 73/1/73
f 84/1/84 73/1/73 74/1/74

# Group: gothic_flame_glow
v -0.036801 0.890000 -0.059546
v 0.036801 0.890000 -0.059546
v -0.036801 0.890000 0.059546
v 0.036801 0.890000 0.059546
v 0.000000 0.949546 0.036801
v 0.000000 0.949546 -0.036801
v 0.000000 0.830454 0.036801
v 0.000000 0.830454 -0.036801
v 0.059546 0.853199 0.000000
v 0.059546 0.926801 0.000000
v -0.059546 0.853199 0.000000
v -0.059546 0.926801 0.000000
v 0.000000 0.890000 -0.070000
v 0.000000 0.890000 0.070000
v -0.021631 0.925000 0.056631
v 0.021631 0.925000 0.056631
v -0.021631 0.925000 -0.056631
v 0.021631 0.925000 -0.056631
v 0.000000 0.960000 0.000000
v -0.021631 0.855000 0.056631
v 0.021631 0.855000 0.056631
v -0.021631 0.855000 -0.056631
v 0.021631 0.855000 -0.056631
v 0.000000 0.820000 0.000000
v 0.056631 0.868369 -0.035000
v 0.056631 0.868369 0.035000
v 0.035000 0.833369 0.021631
v 0.035000 0.833369 -0.021631
v 0.056631 0.911631 -0.035000
v 0.056631 0.911631 0.035000
v 0.035000 0.946631 0.021631
v 0.035000 0.946631 -0.021631
v 0.070000 0.890000 0.000000
v -0.056631 0.868369 -0.035000
v -0.056631 0.868369 0.035000
v -0.035000 0.833369 0.021631
v -0.035000 0.833369 -0.021631
v -0.056631 0.911631 -0.035000
v -0.056631 0.911631 0.035000
v -0.035000 0.946631 0.021631
v -0.035000 0.946631 -0.021631
v -0.070000 0.890000 0.000000
vt 0.0 0.0
vn -0.525731 -0.000000 -0.850651
vn 0.525731 -0.000000 -0.850651
vn -0.525731 -0.000000 0.850651
vn 0.525731 -0.000000 0.850651
vn 0.000000 0.850651 0.525731
vn -0.000000 0.850651 -0.525731
vn 0.000000 -0.850651 0.525731
vn 0.000000 -0.850651 -0.525731
vn 0.850651 -0.525731 0.000000
vn 0.850651 0.525731 0.000000
vn -0.850651 -0.525731 0.000000
vn -0.850651 0.525731 0.000000
vn 0.000000 -0.000000 -1.000000
vn -0.000000 -0.000000 1.000000
vn -0.309017 0.500000 0.809017
vn 0.309017 0.500000 0.809017
vn -0.309017 0.500000 -0.809017
vn 0.309017 0.500000 -0.809017
vn 0.000000 1.000000 0.000000
vn -0.309017 -0.500000 0.809017
vn 0.309017 -0.500000 0.809017
vn -0.309017 -0.500000 -0.809017
vn 0.309017 -0.500000 -0.809017
vn -0.000000 -1.000000 0.000000
vn 0.809017 -0.309017 -0.500000
vn 0.809017 -0.309017 0.500000
vn 0.500000 -0.809017 0.309017
vn 0.500000 -0.809017 -0.309017
vn 0.809017 0.309017 -0.500000
vn 0.809017 0.309017 0.500000
vn 0.500000 0.809017 0.309017
vn 0.500000 0.809017 -0.309017
vn 1.000000 0.000000 0.000000
vn -0.809017 -0.309017 -0.500000
vn -0.809017 -0.309017 0.500000
vn -0.500000 -0.809017 0.309017
vn -0.500000 -0.809017 -0.309017
vn -0.809017 0.309017 -0.500000
vn -0.809017 0.309017 0.500000
vn -0.500000 0.809017 0.309017
vn -0.500000 0.809017 -0.309017
vn -1.000000 0.000000 0.000000
usemtl gothic_flame_glow
f 85/1/85 122/1/122 101/1/101
f 122/1/122 96/1/96 125/1/125
f 101/1/101 125/1/125 90/1/90
f 122/1/122 125/1/125 101/1/101
f 85/1/85 101/1/101 97/1/97
f 101/1/101 90/1/90 102/1/102
f 97/1/97 102/1/102 86/1/86
f 101/1/101 102/1/102 97/1/97
f 85/1/85 97/1/97 106/1/106
f 97/1/97 86/1/86 107/1/107
f 106/1/106 107/1/107 92/1/92
f 97/1/97 107/1/107 106/1/106
f 85/1/85 106/1/106 118/1/118
f 106/1/106 92/1/92 121/1/121
f 118/1/118 121/1/121 95/1/95
f 106/1/106 121/1/121 118/1/118
f 85/1/85 118/1/118 122/1/122
f 118/1/118 95/1/95 126/1/126
f 122/1/122 126/1/126 96/1/96
f 118/1/118 126/1/126 122/1/122
f 86/1/86 102/1/102 113/1/113
f 102/1/102 90/1/90 116/1/116
f 113/1/113 116/1/116 94/1/94
f 102/1/102 116/1/116 113/1/113
f 90/1/90 125/1/125 103/1/103
f 125/1/125 96/1/96 124/1/124
f 103/1/103 124/1/124 89/1/89
f 125/1/125 124/1/124 103/1/103
f 96/1/96 126/1/126 123/1/123
f 126/1/126 95/1/95 119/1/119
f 123/1/123 119/1/119 87/1/87
f 126/1/126 119/1/119 123/1/123
f 95/1/95 121/1/121 120/1/120
f 121/1/121 92/1/92 108/1/108
f 120/1/120 108/1/108 91/1/91
f 121/1/121 108/1/108 120/1/120
f 92/1/92 107/1/107 112/1/112
f 107/1/107 86/1/86 109/1/109
f 112/1/112 109/1/109 93/1/93
f 107/1/107 109/1/109 112/1/112
f 88/1/88 114/1/114 100/1/100
f 114/1/114 94/1/94 115/1/115
f 100/1/100 115/1/115 89/1/89
f 114/1/114 115/1/115 100/1/100
f 88/1/88 100/1/100 98/1/98
f 100/1/100 89/1/89 99/1/99
f 98/1/98 99/1/99 87/1/87
f 100/1/100 99/1/99 98/1/98
f 88/1/88 98/1/98 105/1/105
f 98/1/98 87/1/87 104/1/104
f 105/1/105 104/1/104 91/1/91
f 98/1/98 104/1/104 105/1/105
f 88/1/88 105/1/105 110/1/110
f 105/1/105 91/1/91 111/1/111
f 110/1/110 111/1/111 93/1/93
f 105/1/105 111/1/111 110/1/110
f 88/1/88 110/1/110 114/1/114
f 110/1/110 93/1/93 117/1/117
f 114/1/114 117/1/117 94/1/94
f 110/1/110 117/1/117 114/1/114
f 89/1/89 115/1/115 103/1/103
f 115/1/115 94/1/94 116/1/116
f 103/1/103 116/1/116 90/1/90
f 115/1/115 116/1/116 103/1/103
f 87/1/87 99/1/99 123/1/123
f 99/1/99 89/1/89 124/1/124
f 123/1/123 124/1/124 96/1/96
f 99/1/99 124/1/124 123/1/123
f 91/1/91 104/1/104 120/1/120
f 104/1/104 87/1/87 119/1/119
f 120/1/120 119/1/119 95/1/95
f 104/1/104 119/1/119 120/1/120
f 93/1/93 111/1/111 112/1/112
f 111/1/111 91/1/91 108/1/108
f 112/1/112 108/1/108 92/1/92
f 111/1/111 108/1/108 112/1/112
f 94/1/94 117/1/117 113/1/113
f 117/1/117 93/1/93 109/1/109
f 113/1/113 109/1/109 86/1/86
f 117/1/117 109/1/109 113/1/113

