# Blender 5.0.1
# www.blender.org
mtllib abyssal_pearl.mtl
g AbyssalHalo.001_Mesh
v 1.075000 0.000000 0.000000
v 1.020000 0.000000 0.055000
v 0.965000 0.000000 0.000000
v 1.020000 -0.000000 -0.055000
v 0.993170 0.411385 -0.000000
v 0.942357 0.390337 0.055000
v 0.891544 0.369289 -0.000000
v 0.942357 0.390337 -0.055000
v 0.760140 0.760140 -0.000000
v 0.721249 0.721249 0.055000
v 0.682358 0.682358 -0.000000
v 0.721249 0.721249 -0.055000
v 0.411385 0.993170 -0.000000
v 0.390337 0.942357 0.055000
v 0.369290 0.891544 -0.000000
v 0.390337 0.942357 -0.055000
v 0.000000 1.075000 -0.000000
v 0.000000 1.020000 0.055000
v 0.000000 0.965000 -0.000000
v 0.000000 1.020000 -0.055000
v -0.411385 0.993170 -0.000000
v -0.390337 0.942357 0.055000
v -0.369290 0.891544 -0.000000
v -0.390337 0.942357 -0.055000
v -0.760140 0.760140 -0.000000
v -0.721249 0.721249 0.055000
v -0.682358 0.682358 -0.000000
v -0.721249 0.721249 -0.055000
v -0.993170 0.411385 -0.000000
v -0.942357 0.390337 0.055000
v -0.891544 0.369290 -0.000000
v -0.942357 0.390337 -0.055000
v -1.075000 0.000000 -0.000000
v -1.020000 0.000000 0.055000
v -0.965000 0.000000 -0.000000
v -1.020000 0.000000 -0.055000
v -0.993171 -0.411384 0.000000
v -0.942357 -0.390337 0.055000
v -0.891544 -0.369289 0.000000
v -0.942357 -0.390337 -0.055000
v -0.760140 -0.760140 0.000000
v -0.721249 -0.721249 0.055000
v -0.682358 -0.682358 0.000000
v -0.721249 -0.721249 -0.055000
v -0.411385 -0.993170 0.000000
v -0.390337 -0.942357 0.055000
v -0.369290 -0.891544 0.000000
v -0.390337 -0.942357 -0.055000
v 0.000000 -1.075000 0.000000
v 0.000000 -1.020000 0.055000
v 0.000000 -0.965000 0.000000
v 0.000000 -1.020000 -0.055000
v 0.411385 -0.993170 0.000000
v 0.390337 -0.942357 0.055000
v 0.369290 -0.891544 0.000000
v 0.390337 -0.942357 -0.055000
v 0.760139 -0.760140 0.000000
v 0.721249 -0.721249 0.055000
v 0.682358 -0.682358 0.000000
v 0.721249 -0.721249 -0.055000
v 0.993170 -0.411385 0.000000
v 0.942357 -0.390337 0.055000
v 0.891544 -0.369290 0.000000
v 0.942357 -0.390337 -0.055000
vn 0.7002 0.1393 0.7002
vn -0.7002 -0.1393 0.7002
vn -0.7002 -0.1393 -0.7002
vn 0.7002 0.1393 -0.7002
vn 0.5936 0.3966 0.7002
vn -0.5936 -0.3966 0.7002
vn -0.5936 -0.3966 -0.7002
vn 0.5936 0.3966 -0.7002
vn 0.3966 0.5936 0.7002
vn -0.3966 -0.5936 0.7002
vn -0.3966 -0.5936 -0.7002
vn 0.3966 0.5936 -0.7002
vn 0.1393 0.7002 0.7002
vn -0.1393 -0.7002 0.7002
vn -0.1393 -0.7002 -0.7002
vn 0.1393 0.7002 -0.7002
vn -0.1393 0.7002 0.7002
vn 0.1393 -0.7002 0.7002
vn 0.1393 -0.7002 -0.7002
vn -0.1393 0.7002 -0.7002
vn -0.3966 0.5936 0.7002
vn 0.3966 -0.5936 0.7002
vn 0.3966 -0.5936 -0.7002
vn -0.3966 0.5936 -0.7002
vn -0.5936 0.3966 0.7002
vn 0.5936 -0.3966 0.7002
vn 0.5936 -0.3966 -0.7002
vn -0.5936 0.3966 -0.7002
vn -0.7002 0.1393 0.7002
vn 0.7002 -0.1393 0.7002
vn 0.7002 -0.1393 -0.7002
vn -0.7002 0.1393 -0.7002
vt 0.562500 0.500000
vt 0.500000 0.750000
vt 0.500000 0.500000
vt 0.562500 0.750000
vt 0.500000 1.000000
vt 0.562500 0.000000
vt 0.500000 0.250000
vt 0.500000 0.000000
vt 0.562500 0.250000
vt 0.625000 0.500000
vt 0.625000 0.750000
vt 0.562500 1.000000
vt 0.625000 0.250000
vt 0.687500 0.750000
vt 0.625000 1.000000
vt 0.687500 0.000000
vt 0.625000 0.000000
vt 0.687500 0.250000
vt 0.750000 0.500000
vt 0.687500 0.500000
vt 0.750000 0.750000
vt 0.687500 1.000000
vt 0.750000 0.000000
vt 0.750000 0.250000
vt 0.812500 0.500000
vt 0.812500 0.750000
vt 0.750000 1.000000
vt 0.812500 0.000000
vt 0.812500 0.250000
vt 0.875000 0.750000
vt 0.812500 1.000000
vt 0.875000 0.250000
vt 0.937500 0.500000
vt 0.875000 0.500000
vt 0.937500 0.750000
vt 0.875000 1.000000
vt 0.937500 0.000000
vt 0.875000 0.000000
vt 0.937500 0.250000
vt 1.000000 0.500000
vt 1.000000 0.750000
vt 0.937500 1.000000
vt 1.000000 0.000000
vt 1.000000 0.250000
vt 0.062500 0.500000
vt 0.000000 0.750000
vt 0.000000 0.500000
vt 0.062500 0.750000
vt 0.000000 1.000000
vt 0.062500 0.000000
vt 0.000000 0.250000
vt 0.000000 0.000000
vt 0.062500 0.250000
vt 0.125000 0.500000
vt 0.125000 1.000000
vt 0.062500 1.000000
vt 0.125000 0.000000
vt 0.125000 0.250000
vt 0.187500 0.500000
vt 0.125000 0.750000
vt 0.187500 1.000000
vt 0.187500 0.000000
vt 0.250000 0.500000
vt 0.187500 0.750000
vt 0.250000 0.750000
vt 0.250000 0.000000
vt 0.187500 0.250000
vt 0.250000 0.250000
vt 0.312500 0.500000
vt 0.312500 0.750000
vt 0.250000 1.000000
vt 0.312500 0.250000
vt 0.375000 0.500000
vt 0.375000 0.750000
vt 0.312500 1.000000
vt 0.375000 0.000000
vt 0.312500 0.000000
vt 0.375000 0.250000
vt 0.437500 0.500000
vt 0.437500 0.750000
vt 0.375000 1.000000
vt 0.437500 0.000000
vt 0.437500 0.250000
vt 0.437500 1.000000
vt 1.000000 1.000000
s 0
g AbyssalHalo.001_MAT_Sapphire
usemtl MAT_Sapphire
f 5/1/1 2/2/1 1/3/1
f 6/4/2 3/5/2 2/2/2
f 7/6/3 4/7/3 3/8/3
f 8/9/4 1/3/4 4/7/4
f 9/10/5 6/4/5 5/1/5
f 10/11/6 7/12/6 6/4/6
f 7/6/7 12/13/7 8/9/7
f 12/13/8 5/1/8 8/9/8
f 9/10/9 14/14/9 10/11/9
f 14/14/10 11/15/10 10/11/10
f 15/16/11 12/13/11 11/17/11
f 16/18/12 9/10/12 12/13/12
f 17/19/13 14/14/13 13/20/13
f 18/21/14 15/22/14 14/14/14
f 19/23/15 16/18/15 15/16/15
f 20/24/16 13/20/16 16/18/16
f 21/25/17 18/21/17 17/19/17
f 22/26/18 19/27/18 18/21/18
f 23/28/19 20/24/19 19/23/19
f 24/29/20 17/19/20 20/24/20
f 21/25/21 26/30/21 22/26/21
f 26/30/22 23/31/22 22/26/22
f 23/28/23 28/32/23 24/29/23
f 28/32/24 21/25/24 24/29/24
f 29/33/25 26/30/25 25/34/25
f 30/35/26 27/36/26 26/30/26
f 31/37/27 28/32/27 27/38/27
f 32/39/28 25/34/28 28/32/28
f 33/40/29 30/35/29 29/33/29
f 34/41/30 31/42/30 30/35/30
f 35/43/31 32/39/31 31/37/31
f 36/44/32 29/33/32 32/39/32
f 37/45/2 34/46/2 33/47/2
f 38/48/1 35/49/1 34/46/1
f 39/50/4 36/51/4 35/52/4
f 40/53/3 33/47/3 36/51/3
f 41/54/6 38/48/6 37/45/6
f 38/48/5 43/55/5 39/56/5
f 43/57/8 40/53/8 39/50/8
f 44/58/7 37/45/7 40/53/7
f 45/59/10 42/60/10 41/54/10
f 42/60/9 47/61/9 43/55/9
f 47/62/12 44/58/12 43/57/12
f 44/58/11 45/59/11 41/54/11
f 49/63/14 46/64/14 45/59/14
f 50/65/13 47/61/13 46/64/13
f 51/66/16 48/67/16 47/62/16
f 52/68/15 45/59/15 48/67/15
f 53/69/18 50/65/18 49/63/18
f 54/70/17 51/71/17 50/65/17
f 51/66/20 56/72/20 52/68/20
f 56/72/19 49/63/19 52/68/19
f 57/73/22 54/70/22 53/69/22
f 58/74/21 55/75/21 54/70/21
f 59/76/24 56/72/24 55/77/24
f 60/78/23 53/69/23 56/72/23
f 61/79/26 58/74/26 57/73/26
f 62/80/25 59/81/25 58/74/25
f 63/82/28 60/78/28 59/76/28
f 64/83/27 57/73/27 60/78/27
f 1/3/30 62/80/30 61/79/30
f 2/2/29 63/84/29 62/80/29
f 3/8/32 64/83/32 63/82/32
f 4/7/31 61/79/31 64/83/31
f 5/1/1 6/4/1 2/2/1
f 6/4/2 7/12/2 3/5/2
f 7/6/3 8/9/3 4/7/3
f 8/9/4 5/1/4 1/3/4
f 9/10/5 10/11/5 6/4/5
f 10/11/6 11/15/6 7/12/6
f 7/6/7 11/17/7 12/13/7
f 12/13/8 9/10/8 5/1/8
f 9/10/9 13/20/9 14/14/9
f 14/14/10 15/22/10 11/15/10
f 15/16/11 16/18/11 12/13/11
f 16/18/12 13/20/12 9/10/12
f 17/19/13 18/21/13 14/14/13
f 18/21/14 19/27/14 15/22/14
f 19/23/15 20/24/15 16/18/15
f 20/24/16 17/19/16 13/20/16
f 21/25/17 22/26/17 18/21/17
f 22/26/18 23/31/18 19/27/18
f 23/28/19 24/29/19 20/24/19
f 24/29/20 21/25/20 17/19/20
f 21/25/21 25/34/21 26/30/21
f 26/30/22 27/36/22 23/31/22
f 23/28/23 27/38/23 28/32/23
f 28/32/24 25/34/24 21/25/24
f 29/33/25 30/35/25 26/30/25
f 30/35/26 31/42/26 27/36/26
f 31/37/27 32/39/27 28/32/27
f 32/39/28 29/33/28 25/34/28
f 33/40/29 34/41/29 30/35/29
f 34/41/30 35/85/30 31/42/30
f 35/43/31 36/44/31 32/39/31
f 36/44/32 33/40/32 29/33/32
f 37/45/2 38/48/2 34/46/2
f 38/48/1 39/56/1 35/49/1
f 39/50/4 40/53/4 36/51/4
f 40/53/3 37/45/3 33/47/3
f 41/54/6 42/60/6 38/48/6
f 38/48/5 42/60/5 43/55/5
f 43/57/8 44/58/8 40/53/8
f 44/58/7 41/54/7 37/45/7
f 45/59/10 46/64/10 42/60/10
f 42/60/9 46/64/9 47/61/9
f 47/62/12 48/67/12 44/58/12
f 44/58/11 48/67/11 45/59/11
f 49/63/14 50/65/14 46/64/14
f 50/65/13 51/71/13 47/61/13
f 51/66/16 52/68/16 48/67/16
f 52/68/15 49/63/15 45/59/15
f 53/69/18 54/70/18 50/65/18
f 54/70/17 55/75/17 51/71/17
f 51/66/20 55/77/20 56/72/20
f 56/72/19 53/69/19 49/63/19
f 57/73/22 58/74/22 54/70/22
f 58/74/21 59/81/21 55/75/21
f 59/76/24 60/78/24 56/72/24
f 60/78/23 57/73/23 53/69/23
f 61/79/26 62/80/26 58/74/26
f 62/80/25 63/84/25 59/81/25
f 63/82/28 64/83/28 60/78/28
f 64/83/27 61/79/27 57/73/27
f 1/3/30 2/2/30 62/80/30
f 2/2/29 3/5/29 63/84/29
f 3/8/32 4/7/32 64/83/32
f 4/7/31 1/3/31 61/79/31
g AbyssalPearl.001_Mesh
v 0.000000 -0.680000 0.000000
v 0.492053 -0.304109 0.325950
v -0.187944 -0.304110 0.527403
v -0.608210 -0.304107 0.000000
v -0.187944 -0.304110 -0.527403
v 0.492053 -0.304109 -0.325950
v 0.187944 0.304110 0.527403
v -0.492053 0.304109 0.325950
v -0.492053 0.304109 -0.325950
v 0.187944 0.304110 -0.527403
v 0.608210 0.304107 0.000000
v 0.000000 0.680000 0.000000
v -0.110470 -0.578445 0.309997
v 0.289219 -0.578445 0.191587
v 0.178751 -0.357502 0.501587
v 0.578441 -0.357500 0.000000
v 0.289219 -0.578445 -0.191587
v -0.357496 -0.578443 0.000000
v -0.467969 -0.357501 0.309998
v -0.110470 -0.578445 -0.309997
v -0.467969 -0.357501 -0.309998
v 0.178751 -0.357502 -0.501587
v 0.646719 0.000000 0.191588
v 0.646719 0.000000 -0.191588
v 0.000000 0.000000 0.620000
v 0.399694 0.000000 0.501590
v -0.646719 0.000000 0.191588
v -0.399694 0.000000 0.501590
v -0.399694 0.000000 -0.501590
v -0.646719 0.000000 -0.191588
v 0.399694 0.000000 -0.501590
v 0.000000 0.000000 -0.620000
v 0.467969 0.357501 0.309998
v -0.178751 0.357502 0.501587
v -0.578441 0.357500 0.000000
v -0.178751 0.357502 -0.501587
v 0.467969 0.357501 -0.309998
v 0.110470 0.578445 0.309997
v 0.357496 0.578443 0.000000
v -0.289219 0.578445 0.191587
v -0.289219 0.578445 -0.191587
v 0.110470 0.578445 -0.309997
vn 0.1014 -0.9342 0.3422
vn 0.6952 -0.6569 0.2919
vn -0.2670 -0.9399 0.2128
vn -0.2670 -0.9399 -0.2128
vn 0.1014 -0.9342 -0.3422
vn 0.8985 -0.3280 0.2919
vn 0.0228 -0.3041 0.9524
vn -0.8809 -0.3271 0.3422
vn -0.5445 -0.3131 -0.7782
vn 0.5045 -0.3118 -0.8051
vn 0.7763 -0.1215 0.6186
vn -0.2821 -0.1156 0.9524
vn -0.9921 -0.1256 -0.0000
vn -0.2821 -0.1156 -0.9524
vn 0.7763 -0.1215 -0.6186
vn 0.3935 0.6367 0.6632
vn -0.4558 0.6400 0.6186
vn -0.6952 0.6569 -0.2919
vn 0.0365 0.6270 -0.7782
vn 0.7213 0.6592 -0.2128
vn 0.2670 0.9399 -0.2128
vn 0.4849 0.7846 -0.3864
vn 0.3935 0.6367 -0.6632
vn -0.1014 0.9342 -0.3422
vn -0.1816 0.7691 -0.6128
vn -0.4558 0.6400 -0.6186
vn -0.3313 0.9435 -0.0000
vn -0.6071 0.7947 -0.0000
vn -0.6952 0.6569 0.2919
vn -0.1014 0.9342 0.3422
vn -0.1816 0.7691 0.6128
vn 0.0365 0.6270 0.7782
vn 0.2670 0.9399 0.2128
vn 0.4849 0.7846 0.3864
vn 0.7213 0.6592 0.2128
vn 0.8809 0.3271 -0.3422
vn 0.7691 0.1816 -0.6128
vn 0.5445 0.3131 -0.7782
vn -0.0228 0.3041 -0.9524
vn -0.2798 0.1729 -0.9444
vn -0.5045 0.3118 -0.8051
vn -0.8985 0.3280 -0.2919
vn -0.9822 0.1876 -0.0000
vn -0.8985 0.3280 0.2919
vn -0.5045 0.3118 0.8051
vn -0.2798 0.1729 0.9444
vn -0.0228 0.3041 0.9524
vn 0.5445 0.3131 0.7782
vn 0.7691 0.1816 0.6128
vn 0.8809 0.3271 0.3422
vn 0.2821 0.1156 -0.9524
vn 0.2798 -0.1729 -0.9444
vn 0.0228 -0.3041 -0.9524
vn -0.7763 0.1215 -0.6186
vn -0.7691 -0.1816 -0.6128
vn -0.8809 -0.3271 -0.3422
vn -0.7763 0.1215 0.6186
vn -0.7691 -0.1816 0.6128
vn -0.5445 -0.3131 0.7782
vn 0.2821 0.1156 0.9524
vn 0.2798 -0.1729 0.9444
vn 0.5045 -0.3118 0.8051
vn 0.9921 0.1256 -0.0000
vn 0.9822 -0.1876 -0.0000
vn 0.8985 -0.3280 -0.2919
vn 0.4558 -0.6400 -0.6186
vn 0.1816 -0.7691 -0.6128
vn -0.0365 -0.6270 -0.7782
vn -0.3935 -0.6367 -0.6632
vn -0.4849 -0.7846 -0.3864
vn -0.7213 -0.6592 -0.2128
vn -0.7213 -0.6592 0.2128
vn -0.4849 -0.7846 0.3864
vn -0.3935 -0.6367 0.6632
vn 0.6952 -0.6569 -0.2919
vn 0.6071 -0.7947 -0.0000
vn 0.3313 -0.9435 -0.0000
vn -0.0365 -0.6270 0.7782
vn 0.1816 -0.7691 0.6128
vn 0.4558 -0.6400 0.6186
vt 0.181819 0.000000
vt 0.227273 0.078731
vt 0.136365 0.078731
vt 0.272728 0.157461
vt 0.318182 0.078731
vt 0.363637 0.157461
vt 0.909091 0.000000
vt 0.954545 0.078731
vt 0.863636 0.078731
vt 0.727273 0.000000
vt 0.772727 0.078731
vt 0.681818 0.078731
vt 0.545455 0.000000
vt 0.590909 0.078731
vt 0.500000 0.078731
vt 0.318182 0.236191
vt 0.090910 0.157461
vt 0.181819 0.157461
vt 0.136365 0.236191
vt 0.818182 0.157461
vt 0.909091 0.157461
vt 0.863636 0.236191
vt 0.636364 0.157461
vt 0.727273 0.157461
vt 0.681818 0.236191
vt 0.454546 0.157461
vt 0.545455 0.157461
vt 0.500000 0.236191
vt 0.227273 0.236191
vt 0.045455 0.236191
vt 0.772727 0.236191
vt 0.590909 0.236191
vt 0.409092 0.236191
vt 0.181819 0.314921
vt 0.272728 0.314921
vt 0.227273 0.393651
vt 0.000000 0.314921
vt 0.090910 0.314921
vt 0.045455 0.393651
vt 0.727273 0.314921
vt 0.818182 0.314921
vt 0.772727 0.393651
vt 0.545455 0.314921
vt 0.636364 0.314921
vt 0.590909 0.393651
vt 0.363637 0.314921
vt 0.454546 0.314921
vt 0.409092 0.393651
vt 0.500000 0.393651
vt 0.454546 0.472382
vt 0.681818 0.393651
vt 0.636364 0.472382
vt 0.863636 0.393651
vt 0.818182 0.472382
vt 0.909091 0.314921
vt 0.136365 0.393651
vt 0.090910 0.472382
vt 0.318182 0.393651
vt 0.272728 0.472382
vt 0.954545 0.236191
vt 1.000000 0.157461
vt 0.409092 0.078731
vt 0.363637 0.000000
s 0
g AbyssalPearl.001_MAT_Pearl
usemtl MAT_Pearl
f 65/86/33 78/87/33 77/88/33
f 66/89/34 78/90/34 80/91/34
f 65/92/35 77/93/35 82/94/35
f 65/95/36 82/96/36 84/97/36
f 65/98/37 84/99/37 81/100/37
f 66/89/38 80/91/38 87/101/38
f 67/102/39 79/103/39 89/104/39
f 68/105/40 83/106/40 91/107/40
f 69/108/41 85/109/41 93/110/41
f 70/111/42 86/112/42 95/113/42
f 66/89/43 87/101/43 90/114/43
f 67/102/44 89/104/44 92/115/44
f 68/105/45 91/107/45 94/116/45
f 69/108/46 93/110/46 96/117/46
f 70/111/47 95/113/47 88/118/47
f 71/119/48 97/120/48 102/121/48
f 72/122/49 98/123/49 104/124/49
f 73/125/50 99/126/50 105/127/50
f 74/128/51 100/129/51 106/130/51
f 75/131/52 101/132/52 103/133/52
f 103/133/53 106/134/53 76/135/53
f 103/133/54 101/132/54 106/134/54
f 101/132/55 74/128/55 106/134/55
f 106/130/56 105/136/56 76/137/56
f 106/130/57 100/129/57 105/136/57
f 100/129/58 73/125/58 105/136/58
f 105/127/59 104/138/59 76/139/59
f 105/127/60 99/126/60 104/138/60
f 99/126/61 72/140/61 104/138/61
f 104/124/62 102/141/62 76/142/62
f 104/124/63 98/123/63 102/141/63
f 98/123/64 71/119/64 102/141/64
f 102/121/65 103/143/65 76/144/65
f 102/121/66 97/120/66 103/143/66
f 97/120/67 75/131/67 103/143/67
f 88/118/68 101/132/68 75/131/68
f 88/118/69 95/113/69 101/132/69
f 95/113/70 74/128/70 101/132/70
f 96/117/71 100/129/71 74/128/71
f 96/117/72 93/110/72 100/129/72
f 93/110/73 73/125/73 100/129/73
f 94/116/74 99/126/74 73/125/74
f 94/116/75 91/107/75 99/126/75
f 91/107/76 72/140/76 99/126/76
f 92/115/77 98/123/77 72/122/77
f 92/115/78 89/104/78 98/123/78
f 89/104/79 71/119/79 98/123/79
f 90/114/80 97/120/80 71/119/80
f 90/114/81 87/101/81 97/120/81
f 87/101/82 75/131/82 97/120/82
f 95/113/83 96/117/83 74/128/83
f 95/113/84 86/112/84 96/117/84
f 86/112/85 69/108/85 96/117/85
f 93/110/86 94/116/86 73/125/86
f 93/110/87 85/109/87 94/116/87
f 85/109/88 68/105/88 94/116/88
f 91/107/89 92/145/89 72/140/89
f 91/107/90 83/106/90 92/145/90
f 83/106/91 67/146/91 92/145/91
f 89/104/92 90/114/92 71/119/92
f 89/104/93 79/103/93 90/114/93
f 79/103/94 66/89/94 90/114/94
f 87/101/95 88/118/95 75/131/95
f 87/101/96 80/91/96 88/118/96
f 80/91/97 70/111/97 88/118/97
f 81/100/98 86/112/98 70/111/98
f 81/100/99 84/99/99 86/112/99
f 84/99/100 69/108/100 86/112/100
f 84/97/101 85/109/101 69/108/101
f 84/97/102 82/96/102 85/109/102
f 82/96/103 68/105/103 85/109/103
f 82/94/104 83/106/104 68/105/104
f 82/94/105 77/93/105 83/106/105
f 77/93/106 67/146/106 83/106/106
f 80/91/107 81/147/107 70/111/107
f 80/91/108 78/90/108 81/147/108
f 78/90/109 65/148/109 81/147/109
f 77/88/110 79/103/110 67/102/110
f 77/88/111 78/87/111 79/103/111
f 78/87/112 66/89/112 79/103/112
g AbyssalShellL.001_Mesh
v -0.647220 -0.817574 0.018558
v -0.604279 -0.800007 0.024593
v -0.662081 -0.716629 0.077059
v -1.196965 -0.262426 -0.058704
v -1.198683 -0.175120 0.001644
v -1.232693 -0.160337 -0.063725
v -1.146237 0.660337 -0.051575
v -1.115292 0.622466 0.013364
v -1.087578 0.691667 -0.043331
v -0.586330 0.360007 0.027115
v -0.637776 0.448333 0.019885
v -0.645619 0.368829 0.079372
v -0.633303 -0.817574 -0.080469
v -0.631463 -0.716629 -0.140800
v -0.590361 -0.800007 -0.074434
v -1.183048 -0.262426 -0.157731
v -1.218776 -0.160337 -0.162752
v -1.168064 -0.175120 -0.216215
v -1.132320 0.660337 -0.150601
v -1.073660 0.691667 -0.142357
v -1.084674 0.622466 -0.204495
v -0.572413 0.360007 -0.071912
v -0.615001 0.368829 -0.138487
v -0.623858 0.448333 -0.079142
vn 0.0790 -0.4911 0.8675
vn -0.8748 -0.2870 0.3903
vn -0.4410 0.6678 0.5996
vn 0.6339 0.4223 0.6479
vn 0.3150 -0.4911 -0.8121
vn -0.7334 -0.2870 -0.6163
vn -0.2586 0.6678 -0.6979
vn 0.7880 0.4223 -0.4481
vn -0.5717 -0.4728 0.6706
vn -0.8760 0.0846 0.4749
vn -0.3647 -0.4728 -0.8022
vn -0.7111 0.0846 -0.6979
vn 0.6626 -0.0119 0.7489
vn 0.1979 0.5726 0.7956
vn 0.8434 -0.0119 -0.5372
vn 0.4096 0.5726 -0.7102
vn 0.3718 -0.9268 0.0523
vn -0.9337 -0.3332 -0.1312
vn -0.4630 0.8840 -0.0651
vn 0.8536 0.5070 0.1200
vn -0.7002 -0.7071 -0.0984
vn -0.1392 -0.0000 0.9903
vn 0.9901 -0.0156 0.1392
vn -0.9847 0.1058 -0.1384
vn 0.4676 0.8815 0.0657
vn 0.1392 -0.0000 -0.9903
vn -0.5723 -0.4739 0.6693
vn -0.8791 0.0857 0.4689
vn -0.3656 -0.4739 -0.8011
vn -0.7158 0.0857 -0.6930
vn 0.6602 -0.0116 0.7510
vn 0.1987 0.5745 0.7940
vn 0.8416 -0.0116 -0.5399
vn 0.4098 0.5745 -0.7085
s 0
g AbyssalShellL.001_MAT_Obsidian
usemtl MAT_Obsidian
f 107//113 108//113 109//113
f 110//114 111//114 112//114
f 113//115 114//115 115//115
f 116//116 117//116 118//116
f 119//117 120//117 121//117
f 122//118 123//118 124//118
f 125//119 126//119 127//119
f 128//120 129//120 130//120
f 109//121 110//121 107//121
f 114//122 112//122 111//122
f 122//123 120//123 119//123
f 123//124 127//124 124//124
f 116//125 109//125 108//125
f 114//126 117//126 115//126
f 120//127 128//127 121//127
f 130//128 127//128 126//128
f 119//129 108//129 107//129
f 123//130 110//130 112//130
f 126//131 113//131 115//131
f 128//132 117//132 116//132
f 110//133 119//133 107//133
f 109//134 114//134 111//134
f 109//134 118//134 114//134
f 108//135 128//135 116//135
f 113//136 123//136 112//136
f 117//137 126//137 115//137
f 120//138 127//138 129//138
f 120//138 124//138 127//138
f 109//139 111//139 110//139
f 114//140 113//140 112//140
f 122//141 124//141 120//141
f 123//142 125//142 127//142
f 116//143 118//143 109//143
f 114//144 118//144 117//144
f 120//145 129//145 128//145
f 130//146 129//146 127//146
f 119//129 121//129 108//129
f 123//130 122//130 110//130
f 126//131 125//131 113//131
f 128//132 130//132 117//132
f 110//133 122//133 119//133
f 108//135 121//135 128//135
f 113//136 125//136 123//136
f 117//137 130//137 126//137
g AbyssalShellR.001_Mesh
v 0.647220 -0.817574 0.018558
v 0.604279 -0.800007 0.024593
v 0.662081 -0.716629 0.077059
v 1.196965 -0.262426 -0.058704
v 1.198683 -0.175120 0.001644
v 1.232693 -0.160337 -0.063725
v 1.146237 0.660337 -0.051575
v 1.115292 0.622466 0.013364
v 1.087578 0.691667 -0.043331
v 0.586330 0.360007 0.027115
v 0.637776 0.448333 0.019885
v 0.645619 0.368829 0.079372
v 0.633303 -0.817574 -0.080469
v 0.631463 -0.716629 -0.140800
v 0.590361 -0.800007 -0.074434
v 1.183048 -0.262426 -0.157731
v 1.218776 -0.160337 -0.162752
v 1.168064 -0.175120 -0.216215
v 1.132320 0.660337 -0.150601
v 1.073660 0.691667 -0.142357
v 1.084674 0.622466 -0.204495
v 0.572413 0.360007 -0.071912
v 0.615001 0.368829 -0.138487
v 0.623858 0.448333 -0.079142
vn 0.0790 0.4911 -0.8675
vn -0.8748 0.2870 -0.3903
vn -0.4410 -0.6678 -0.5996
vn 0.6339 -0.4223 -0.6479
vn 0.3150 0.4911 0.8121
vn -0.7334 0.2870 0.6163
vn -0.2586 -0.6678 0.6979
vn 0.7880 -0.4223 0.4481
vn -0.5717 0.4728 -0.6706
vn -0.8760 -0.0846 -0.4749
vn -0.3647 0.4728 0.8022
vn -0.7111 -0.0846 0.6979
vn 0.6626 0.0119 -0.7489
vn 0.1979 -0.5726 -0.7956
vn 0.8434 0.0119 0.5372
vn 0.4096 -0.5726 0.7102
vn 0.3718 0.9268 -0.0523
vn -0.9337 0.3332 0.1312
vn -0.4630 -0.8840 0.0651
vn 0.8536 -0.5070 -0.1200
vn -0.7002 0.7071 0.0984
vn -0.1392 -0.0000 -0.9903
vn 0.9901 0.0156 -0.1392
vn -0.9847 -0.1058 0.1384
vn 0.4676 -0.8815 -0.0657
vn 0.1392 -0.0000 0.9903
vn -0.5723 0.4739 -0.6693
vn -0.8791 -0.0857 -0.4689
vn -0.3656 0.4739 0.8011
vn -0.7158 -0.0857 0.6930
vn 0.6602 0.0116 -0.7510
vn 0.1987 -0.5745 -0.7940
vn 0.8416 0.0116 0.5399
vn 0.4098 -0.5745 0.7085
s 0
g AbyssalShellR.001_MAT_Obsidian
usemtl MAT_Obsidian
f 131//147 132//147 133//147
f 134//148 135//148 136//148
f 137//149 138//149 139//149
f 140//150 141//150 142//150
f 143//151 144//151 145//151
f 146//152 147//152 148//152
f 149//153 150//153 151//153
f 152//154 153//154 154//154
f 133//155 134//155 131//155
f 138//156 136//156 135//156
f 146//157 144//157 143//157
f 147//158 151//158 148//158
f 140//159 133//159 132//159
f 138//160 141//160 139//160
f 144//161 152//161 145//161
f 154//162 151//162 150//162
f 143//163 132//163 131//163
f 147//164 134//164 136//164
f 150//165 137//165 139//165
f 152//166 141//166 140//166
f 134//167 143//167 131//167
f 133//168 138//168 135//168
f 133//168 142//168 138//168
f 132//169 152//169 140//169
f 137//170 147//170 136//170
f 141//171 150//171 139//171
f 144//172 151//172 153//172
f 144//172 148//172 151//172
f 133//173 135//173 134//173
f 138//174 137//174 136//174
f 146//175 148//175 144//175
f 147//176 149//176 151//176
f 140//177 142//177 133//177
f 138//178 142//178 141//178
f 144//179 153//179 152//179
f 154//180 153//180 151//180
f 143//163 145//163 132//163
f 147//164 146//164 134//164
f 150//165 149//165 137//165
f 152//166 154//166 141//166
f 134//167 146//167 143//167
f 132//169 145//169 152//169
f 137//170 149//170 147//170
f 141//171 154//171 150//171
