# Second Rite deterministic item batch 53-62
# Adamant Blade
mtllib item_batch_53_62.mtl
o adamant_blade
s off
v -0.400000 -0.813800 -0.085000
v -0.580000 -0.463800 -0.085000
v -0.288000 1.556200 -0.085000
v -0.140000 1.853800 -0.085000
v 0.000000 1.711200 -0.085000
v 0.140000 1.853800 -0.085000
v 0.288000 1.556200 -0.085000
v 0.580000 -0.463800 -0.085000
v 0.400000 -0.813800 -0.085000
v -0.400000 -0.813800 0.085000
v -0.580000 -0.463800 0.085000
v -0.288000 1.556200 0.085000
v -0.140000 1.853800 0.085000
v 0.000000 1.711200 0.085000
v 0.140000 1.853800 0.085000
v 0.288000 1.556200 0.085000
v 0.580000 -0.463800 0.085000
v 0.400000 -0.813800 0.085000
v -0.625000 -0.993800 -0.170000
v 0.625000 -0.993800 -0.170000
v 0.625000 -0.833800 -0.170000
v -0.625000 -0.833800 -0.170000
v -0.625000 -0.993800 0.170000
v 0.625000 -0.993800 0.170000
v 0.625000 -0.833800 0.170000
v -0.625000 -0.833800 0.170000
v -0.110000 -0.973800 0.000000
v -0.055000 -0.973800 -0.095263
v 0.055000 -0.973800 -0.095263
v 0.110000 -0.973800 -0.000000
v 0.055000 -0.973800 0.095263
v -0.055000 -0.973800 0.095263
v -0.090000 -1.673800 0.000000
v -0.045000 -1.673800 -0.077942
v 0.045000 -1.673800 -0.077942
v 0.090000 -1.673800 -0.000000
v 0.045000 -1.673800 0.077942
v -0.045000 -1.673800 0.077942
v 0.000000 -0.973800 0.000000
v 0.000000 -1.673800 0.000000
v 0.160000 -1.753800 0.000000
v 0.000000 -1.753800 0.160000
v -0.160000 -1.753800 0.000000
v -0.000000 -1.753800 -0.160000
v 0.000000 -1.653800 0.000000
v 0.000000 -1.853800 0.000000
v -0.044000 -0.482000 0.079900
v 0.044000 -0.482000 0.079900
v 0.044000 1.224400 0.079900
v -0.044000 1.224400 0.079900
v -0.044000 -0.482000 0.107100
v 0.044000 -0.482000 0.107100
v 0.044000 1.224400 0.107100
v -0.044000 1.224400 0.107100
v -0.044000 -0.482000 -0.107100
v 0.044000 -0.482000 -0.107100
v 0.044000 1.224400 -0.107100
v -0.044000 1.224400 -0.107100
v -0.044000 -0.482000 -0.079900
v 0.044000 -0.482000 -0.079900
v 0.044000 1.224400 -0.079900
v -0.044000 1.224400 -0.079900
v -0.620000 -0.973800 -0.100000
v -0.340000 -1.233800 -0.100000
v -0.120000 -0.793800 -0.100000
v -0.420000 -0.593800 -0.100000
v -0.620000 -0.973800 0.100000
v -0.340000 -1.233800 0.100000
v -0.120000 -0.793800 0.100000
v -0.420000 -0.593800 0.100000
v 0.620000 -0.973800 -0.100000
v 0.340000 -1.233800 -0.100000
v 0.120000 -0.793800 -0.100000
v 0.420000 -0.593800 -0.100000
v 0.620000 -0.973800 0.100000
v 0.340000 -1.233800 0.100000
v 0.120000 -0.793800 0.100000
v 0.420000 -0.593800 0.100000
v 0.240000 -1.653800 0.000000
v 0.120000 -1.653800 0.207846
v -0.120000 -1.653800 0.207846
v -0.240000 -1.653800 0.000000
v -0.120000 -1.653800 -0.207846
v 0.120000 -1.653800 -0.207846
v 0.000000 -1.493800 0.000000
v 0.000000 -1.813800 0.000000
usemtl wrought_iron
f 1 3 2
f 10 11 12
f 1 4 3
f 10 12 13
f 1 5 4
f 10 13 14
f 1 6 5
f 10 14 15
f 1 7 6
f 10 15 16
f 1 8 7
f 10 16 17
f 1 9 8
f 10 17 18
f 1 2 11
f 1 11 10
f 2 3 12
f 2 12 11
f 3 4 13
f 3 13 12
f 4 5 14
f 4 14 13
f 5 6 15
f 5 15 14
f 6 7 16
f 6 16 15
f 7 8 17
f 7 17 16
f 8 9 18
f 8 18 17
f 9 1 10
f 9 10 18
usemtl ritual_gold
f 19 22 21
f 19 21 20
f 23 24 25
f 23 25 26
f 19 20 24
f 19 24 23
f 22 26 25
f 22 25 21
f 19 23 26
f 19 26 22
f 20 21 25
f 20 25 24
usemtl dark_wood
f 39 28 27
f 40 33 34
f 27 28 34
f 27 34 33
f 39 29 28
f 40 34 35
f 28 29 35
f 28 35 34
f 39 30 29
f 40 35 36
f 29 30 36
f 29 36 35
f 39 31 30
f 40 36 37
f 30 31 37
f 30 37 36
f 39 32 31
f 40 37 38
f 31 32 38
f 31 38 37
f 39 27 32
f 40 38 33
f 32 27 33
f 32 33 38
usemtl ritual_gold
f 45 41 42
f 46 42 41
f 45 42 43
f 46 43 42
f 45 43 44
f 46 44 43
f 45 44 41
f 46 41 44
f 47 50 49
f 47 49 48
f 51 52 53
f 51 53 54
f 47 48 52
f 47 52 51
f 50 54 53
f 50 53 49
f 47 51 54
f 47 54 50
f 48 49 53
f 48 53 52
f 55 58 57
f 55 57 56
f 59 60 61
f 59 61 62
f 55 56 60
f 55 60 59
f 58 62 61
f 58 61 57
f 55 59 62
f 55 62 58
f 56 57 61
f 56 61 60
f 63 65 64
f 67 68 69
f 63 66 65
f 67 69 70
f 63 64 68
f 63 68 67
f 64 65 69
f 64 69 68
f 65 66 70
f 65 70 69
f 66 63 67
f 66 67 70
f 71 73 72
f 75 76 77
f 71 74 73
f 75 77 78
f 71 72 76
f 71 76 75
f 72 73 77
f 72 77 76
f 73 74 78
f 73 78 77
f 74 71 75
f 74 75 78
usemtl crystal
f 85 79 80
f 86 80 79
f 85 80 81
f 86 81 80
f 85 81 82
f 86 82 81
f 85 82 83
f 86 83 82
f 85 83 84
f 86 84 83
f 85 84 79
f 86 79 84
