# Blender 5.0.1
# www.blender.org
mtllib angel_feather.mtl
g B_Shaft.001_Mesh
v -0.032487 -0.419072 0.002500
v -0.037342 -0.413931 0.002500
v -0.032344 -0.414074 -0.002500
v 0.022372 1.676073 0.002500
v 0.027513 1.680928 0.002500
v 0.027370 1.675930 -0.002500
v 0.092487 1.679072 0.002500
v 0.097342 1.673931 0.002500
v 0.092344 1.674074 -0.002500
v 0.032487 -0.420928 0.002500
v 0.032630 -0.415930 -0.002500
v 0.037628 -0.416073 0.002500
v -0.032487 -0.419072 0.067500
v -0.032344 -0.414074 0.072500
v -0.037342 -0.413931 0.067500
v 0.022372 1.676073 0.067500
v 0.027370 1.675930 0.072500
v 0.027513 1.680928 0.067500
v 0.092487 1.679072 0.067500
v 0.092344 1.674074 0.072500
v 0.097342 1.673931 0.067500
v 0.032487 -0.420928 0.067500
v 0.037628 -0.416073 0.067500
v 0.032630 -0.415930 0.072500
vn -0.5936 -0.5606 -0.5773
vn -0.5606 0.5936 -0.5774
vn 0.5936 0.5606 -0.5773
vn 0.5606 -0.5936 -0.5774
vn -0.5936 -0.5606 0.5773
vn -0.5606 0.5936 0.5774
vn 0.5936 0.5606 0.5773
vn 0.5606 -0.5936 0.5774
vn -0.0202 -0.7068 -0.7071
vn -0.7068 0.0202 -0.7071
vn 0.0202 0.7068 -0.7071
vn 0.7068 -0.0202 -0.7071
vn -0.0202 -0.7068 0.7071
vn -0.7068 0.0202 0.7071
vn 0.0202 0.7068 0.7071
vn 0.7068 -0.0202 0.7071
vn -0.7270 -0.6866 -0.0000
vn -0.6866 0.7270 -0.0000
vn 0.7270 0.6866 -0.0000
vn 0.6866 -0.7270 -0.0000
vn -0.0286 -0.9996 -0.0000
vn -0.0000 -0.0000 -1.0000
vn -0.9996 0.0286 -0.0000
vn 0.0286 0.9996 -0.0000
vn 0.9996 -0.0286 -0.0000
vn -0.0000 -0.0000 1.0000
vt 0.283333 0.283333
vt 0.251190 0.250000
vt 0.283801 0.283333
vt 0.748810 0.250000
vt 0.716667 0.283333
vt 0.716199 0.283333
vt 0.283333 0.716667
vt 0.251190 0.750000
vt 0.283801 0.716667
vt 0.716667 0.716667
vt 0.716199 0.716667
vt 0.748810 0.750000
vt 0.283333 0.283333
vt 0.251190 0.250000
vt 0.748810 0.250000
vt 0.716199 0.283333
vt 0.716667 0.283333
vt 0.283333 0.716667
vt 0.251190 0.750000
vt 0.716667 0.716667
vt 0.748810 0.750000
vt 0.716199 0.716667
s 0
g B_Shaft.001_ritual_gold
usemtl ritual_gold
f 1/1/1 2/2/1 3/3/1
f 4/4/2 5/5/2 6/6/2
f 7/7/3 8/8/3 9/9/3
f 10/10/4 11/11/4 12/12/4
f 13/13/5 14/3/5 15/14/5
f 16/15/6 17/16/6 18/17/6
f 19/18/7 20/9/7 21/19/7
f 22/20/8 23/21/8 24/22/8
f 3/3/9 10/10/9 1/1/9
f 4/4/10 3/3/10 2/2/10
f 7/7/11 6/6/11 5/5/11
f 12/12/12 9/9/12 8/8/12
f 13/13/13 24/22/13 14/3/13
f 17/16/14 15/14/14 14/3/14
f 17/16/15 19/18/15 18/17/15
f 24/22/16 21/19/16 20/9/16
f 13/13/17 2/2/17 1/1/17
f 16/15/18 5/5/18 4/4/18
f 19/18/19 8/8/19 7/7/19
f 23/21/20 10/10/20 12/12/20
f 10/10/21 13/13/21 1/1/21
f 6/6/22 11/11/22 3/3/22
f 2/2/23 16/15/23 4/4/23
f 5/5/24 19/18/24 7/7/24
f 8/8/25 23/21/25 12/12/25
f 14/3/26 20/9/26 17/16/26
f 3/3/9 11/11/9 10/10/9
f 4/4/10 6/6/10 3/3/10
f 7/7/11 9/9/11 6/6/11
f 12/12/12 11/11/12 9/9/12
f 13/13/13 22/20/13 24/22/13
f 17/16/14 16/15/14 15/14/14
f 17/16/15 20/9/15 19/18/15
f 24/22/16 23/21/16 21/19/16
f 13/13/17 15/14/17 2/2/17
f 16/15/18 18/17/18 5/5/18
f 19/18/19 21/19/19 8/8/19
f 23/21/20 22/20/20 10/10/20
f 10/10/21 22/20/21 13/13/21
f 6/6/22 9/9/22 11/11/22
f 2/2/23 15/14/23 16/15/23
f 5/5/24 18/17/24 19/18/24
f 8/8/25 21/19/25 23/21/25
f 14/3/26 24/22/26 20/9/26
g B_Tip.001_Mesh
v -0.059055 1.553887 0.026000
v -0.056000 1.550000 0.026000
v -0.054910 1.554000 0.030000
v 0.056000 1.550000 0.026000
v 0.059677 1.553987 0.026000
v 0.055663 1.554000 0.030000
v 0.029055 1.916113 0.026000
v 0.028019 1.894933 0.030000
v 0.030323 1.916013 0.026000
v -0.059055 1.553887 -0.026000
v -0.054910 1.554000 -0.030000
v -0.056000 1.550000 -0.026000
v 0.056000 1.550000 -0.026000
v 0.055663 1.554000 -0.030000
v 0.059677 1.553987 -0.026000
v 0.029055 1.916113 -0.026000
v 0.030323 1.916013 -0.026000
v 0.028019 1.894933 -0.030000
vn -0.6044 -0.4750 0.6396
vn 0.5909 -0.5450 0.5948
vn 0.0146 0.1849 0.9827
vn -0.6044 -0.4750 -0.6396
vn 0.5909 -0.5450 -0.5948
vn 0.0146 0.1849 -0.9827
vn -0.6871 0.1671 0.7071
vn -0.0000 -0.7071 0.7071
vn 0.7048 0.0571 0.7071
vn -0.6871 0.1671 -0.7071
vn -0.0000 -0.7071 -0.7071
vn 0.7048 0.0571 -0.7071
vn -0.7862 -0.6179 -0.0000
vn 0.7351 -0.6779 -0.0000
vn 0.0788 0.9969 -0.0000
vn -0.9717 0.2364 -0.0000
vn -0.0000 -0.0000 1.0000
vn -0.0000 -1.0000 -0.0000
vn 0.9967 0.0808 -0.0000
vn -0.0000 -0.0000 -1.0000
vt 0.250000 0.255252
vt 0.266667 0.250000
vt 0.267153 0.255405
vt 0.733333 0.250000
vt 0.744612 0.255388
vt 0.727873 0.255405
vt 0.250000 0.744748
vt 0.267153 0.716126
vt 0.255388 0.744612
vt 0.266667 0.250000
vt 0.250000 0.744748
vt 0.255388 0.744612
s 0
g B_Tip.001_bone
usemtl bone
f 25/23/27 26/24/27 27/25/27
f 28/26/28 29/27/28 30/28/28
f 31/29/29 32/30/29 33/31/29
f 34/23/30 35/25/30 36/32/30
f 37/26/31 38/28/31 39/27/31
f 40/33/32 41/34/32 42/30/32
f 32/30/33 25/23/33 27/25/33
f 28/26/34 27/25/34 26/24/34
f 29/27/35 32/30/35 30/28/35
f 34/23/36 42/30/36 35/25/36
f 35/25/37 37/26/37 36/32/37
f 42/30/38 39/27/38 38/28/38
f 34/23/39 26/24/39 25/23/39
f 37/26/40 29/27/40 28/26/40
f 41/34/41 31/29/41 33/31/41
f 31/29/42 34/23/42 25/23/42
f 27/25/43 30/28/43 32/30/43
f 26/24/44 37/26/44 28/26/44
f 29/27/45 41/34/45 33/31/45
f 35/25/46 42/30/46 38/28/46
f 32/30/33 31/29/33 25/23/33
f 28/26/34 30/28/34 27/25/34
f 29/27/35 33/31/35 32/30/35
f 34/23/36 40/33/36 42/30/36
f 35/25/37 38/28/37 37/26/37
f 42/30/38 41/34/38 39/27/38
f 34/23/39 36/32/39 26/24/39
f 37/26/40 39/27/40 29/27/40
f 41/34/41 40/33/41 31/29/41
f 31/29/42 40/33/42 34/23/42
f 26/24/44 36/32/44 37/26/44
f 29/27/45 39/27/45 41/34/45
g B_VaneL_0.001_Mesh
v 0.000442 -0.096024 -0.023500
v -0.003954 -0.099397 -0.023500
v -0.003515 -0.095418 -0.027500
v -0.389646 -0.040603 -0.023500
v -0.395937 -0.036754 -0.023500
v -0.391336 -0.036299 -0.027500
v -0.477663 0.076754 -0.023500
v -0.476000 0.080000 -0.023500
v -0.472191 0.076000 -0.027500
v 0.019558 0.076024 -0.023500
v 0.015531 0.076000 -0.027500
v 0.016000 0.080000 -0.023500
v 0.000442 -0.096024 0.023500
v -0.003515 -0.095418 0.027500
v -0.003954 -0.099397 0.023500
v -0.389646 -0.040603 0.023500
v -0.391336 -0.036299 0.027500
v -0.395937 -0.036754 0.023500
v -0.477663 0.076754 0.023500
v -0.472191 0.076000 0.027500
v -0.476000 0.080000 0.023500
v 0.019558 0.076024 0.023500
v 0.016000 0.080000 0.023500
v 0.015531 0.076000 0.027500
vn 0.4934 -0.6431 -0.5856
vn -0.4281 -0.6997 -0.5720
vn -0.5418 0.2775 -0.7934
vn 0.5949 0.5324 -0.6022
vn 0.4934 -0.6431 0.5856
vn -0.4281 -0.6997 0.5720
vn -0.5418 0.2775 0.7934
vn 0.5949 0.5324 0.6022
vn 0.7028 -0.0781 -0.7071
vn -0.1066 -0.6990 -0.7071
vn -0.5738 -0.4132 -0.7071
vn -0.0000 0.7071 -0.7071
vn 0.7028 -0.0781 0.7071
vn -0.1066 -0.6990 0.7071
vn -0.5738 -0.4132 0.7071
vn -0.0000 0.7071 0.7071
vn 0.6087 -0.7934 -0.0000
vn -0.5219 -0.8530 -0.0000
vn -0.8900 0.4559 -0.0000
vn 0.7451 0.6669 -0.0000
vn 0.9939 -0.1104 -0.0000
vn -0.0000 -0.0000 -1.0000
vn -0.1507 -0.9886 -0.0000
vn -0.8115 -0.5843 -0.0000
vn -0.0000 1.0000 -0.0000
vn -0.0000 -0.0000 1.0000
vt 0.261043 0.261043
vt 0.255023 0.250000
vt 0.264190 0.261481
vt 0.744977 0.250000
vt 0.736474 0.263526
vt 0.732804 0.266944
vt 0.263526 0.736474
vt 0.254000 0.750000
vt 0.270435 0.733597
vt 0.738957 0.738957
vt 0.736498 0.738518
vt 0.746000 0.750000
vt 0.264191 0.261481
vt 0.732804 0.266944
vt 0.746000 0.750000
s 0
g B_VaneL_0.001_bone
usemtl bone
f 43/35/47 44/36/47 45/37/47
f 46/38/48 47/39/48 48/40/48
f 49/41/49 50/42/49 51/43/49
f 52/44/50 53/45/50 54/46/50
f 55/35/51 56/47/51 57/36/51
f 58/38/52 59/48/52 60/39/52
f 61/41/53 62/43/53 63/42/53
f 64/44/54 65/49/54 66/45/54
f 53/45/55 43/35/55 45/37/55
f 46/38/56 45/37/56 44/36/56
f 47/39/57 51/43/57 48/40/57
f 54/46/58 51/43/58 50/42/58
f 55/35/59 66/45/59 56/47/59
f 56/47/60 58/38/60 57/36/60
f 62/43/61 60/39/61 59/48/61
f 62/43/62 65/49/62 63/42/62
f 55/35/63 44/36/63 43/35/63
f 58/38/64 47/39/64 46/38/64
f 61/41/65 50/42/65 49/41/65
f 65/49/66 52/44/66 54/46/66
f 52/44/67 55/35/67 43/35/67
f 48/40/68 53/45/68 45/37/68
f 44/36/69 58/38/69 46/38/69
f 47/39/70 61/41/70 49/41/70
f 50/42/71 65/49/71 54/46/71
f 66/45/72 59/48/72 56/47/72
f 53/45/55 52/44/55 43/35/55
f 46/38/56 48/40/56 45/37/56
f 47/39/57 49/41/57 51/43/57
f 54/46/58 53/45/58 51/43/58
f 55/35/59 64/44/59 66/45/59
f 56/47/60 59/48/60 58/38/60
f 62/43/61 61/41/61 60/39/61
f 62/43/62 66/45/62 65/49/62
f 55/35/63 57/36/63 44/36/63
f 58/38/64 60/39/64 47/39/64
f 61/41/65 63/42/65 50/42/65
f 65/49/66 64/44/66 52/44/66
f 52/44/67 64/44/67 55/35/67
f 48/40/68 51/43/68 53/45/68
f 44/36/69 57/36/69 58/38/69
f 47/39/70 60/39/70 61/41/70
f 50/42/71 63/42/71 65/49/71
f 66/45/72 62/43/72 59/48/72
g B_VaneL_1.001_Mesh
v 0.000442 0.103976 -0.023500
v -0.003972 0.100469 -0.023500
v -0.003531 0.104444 -0.027500
v -0.504428 0.159531 -0.023500
v -0.510788 0.163209 -0.023500
v -0.506220 0.163770 -0.027500
v -0.617612 0.306791 -0.023500
v -0.616004 0.309813 -0.023500
v -0.611747 0.305609 -0.027500
v 0.019558 0.276024 -0.023500
v 0.015554 0.276204 -0.027500
v 0.016004 0.280187 -0.023500
v 0.000442 0.103976 0.023500
v -0.003531 0.104444 0.027500
v -0.003972 0.100469 0.023500
v -0.504428 0.159531 0.023500
v -0.506220 0.163770 0.027500
v -0.510788 0.163209 0.023500
v -0.617612 0.306791 0.023500
v -0.611747 0.305609 0.027500
v -0.616004 0.309813 0.023500
v 0.019558 0.276024 0.023500
v 0.016004 0.280187 0.023500
v 0.015554 0.276204 0.027500
vn 0.5073 -0.6386 -0.5787
vn -0.4114 -0.7115 -0.5697
vn -0.5052 0.2688 -0.8201
vn 0.6136 0.5239 -0.5908
vn 0.5073 -0.6386 0.5787
vn -0.4114 -0.7115 0.5697
vn -0.5052 0.2688 0.8201
vn 0.6136 0.5239 0.5908
vn 0.7028 -0.0781 -0.7071
vn -0.0829 -0.7022 -0.7071
vn -0.5673 -0.4221 -0.7071
vn 0.0331 0.7063 -0.7071
vn 0.7028 -0.0781 0.7071
vn -0.0829 -0.7022 0.7071
vn -0.5673 -0.4221 0.7071
vn 0.0331 0.7063 0.7071
vn 0.6220 -0.7830 -0.0000
vn -0.5006 -0.8657 -0.0000
vn -0.8828 0.4697 -0.0000
vn 0.7605 0.6493 -0.0000
vn 0.9939 -0.1104 -0.0000
vn -0.0000 -0.0000 -1.0000
vn -0.1172 -0.9931 -0.0000
vn -0.8023 -0.5969 -0.0000
vn 0.0468 0.9989 -0.0000
vn -0.0000 -0.0000 1.0000
vt 0.261043 0.261043
vt 0.253907 0.250000
vt 0.263282 0.261252
vt 0.746093 0.250000
vt 0.739303 0.260697
vt 0.736021 0.263955
vt 0.260697 0.739303
vt 0.253122 0.750000
vt 0.267106 0.736265
vt 0.738957 0.738957
vt 0.737295 0.738748
vt 0.746878 0.750000
vt 0.253907 0.250000
vt 0.746093 0.250000
vt 0.260697 0.739303
vt 0.267106 0.736265
vt 0.746878 0.750000
s 0
g B_VaneL_1.001_bone
usemtl bone
f 67/50/73 68/51/73 69/52/73
f 70/53/74 71/54/74 72/55/74
f 73/56/75 74/57/75 75/58/75
f 76/59/76 77/60/76 78/61/76
f 79/50/77 80/52/77 81/62/77
f 82/63/78 83/55/78 84/54/78
f 85/64/79 86/65/79 87/57/79
f 88/59/80 89/66/80 90/60/80
f 77/60/81 67/50/81 69/52/81
f 70/53/82 69/52/82 68/51/82
f 71/54/83 75/58/83 72/55/83
f 78/61/84 75/58/84 74/57/84
f 79/50/85 90/60/85 80/52/85
f 80/52/86 82/63/86 81/62/86
f 86/65/87 84/54/87 83/55/87
f 86/65/88 89/66/88 87/57/88
f 79/50/89 68/51/89 67/50/89
f 82/63/90 71/54/90 70/53/90
f 85/64/91 74/57/91 73/56/91
f 89/66/92 76/59/92 78/61/92
f 76/59/93 79/50/93 67/50/93
f 72/55/94 77/60/94 69/52/94
f 68/51/95 82/63/95 70/53/95
f 73/56/96 84/54/96 85/64/96
f 74/57/97 89/66/97 78/61/97
f 90/60/98 83/55/98 80/52/98
f 77/60/81 76/59/81 67/50/81
f 70/53/82 72/55/82 69/52/82
f 71/54/83 73/56/83 75/58/83
f 78/61/84 77/60/84 75/58/84
f 79/50/85 88/59/85 90/60/85
f 80/52/86 83/55/86 82/63/86
f 86/65/87 85/64/87 84/54/87
f 86/65/88 90/60/88 89/66/88
f 79/50/89 81/62/89 68/51/89
f 82/63/90 84/54/90 71/54/90
f 85/64/91 87/57/91 74/57/91
f 89/66/92 88/59/92 76/59/92
f 76/59/93 88/59/93 79/50/93
f 72/55/94 75/58/94 77/60/94
f 68/51/95 81/62/95 82/63/95
f 73/56/96 71/54/96 84/54/96
f 74/57/97 87/57/97 89/66/97
f 90/60/98 86/65/98 83/55/98
g B_VaneL_3.001_Mesh
v 0.000442 0.563976 -0.023500
v -0.003983 0.560374 -0.023500
v -0.003541 0.564350 -0.027500
v -0.635617 0.619626 -0.023500
v -0.642333 0.622920 -0.023500
v -0.637716 0.623841 -0.027500
v -0.777267 0.767080 -0.023500
v -0.776003 0.769850 -0.023500
v -0.770439 0.765639 -0.027500
v 0.019558 0.736024 -0.023500
v 0.015549 0.736164 -0.027500
v 0.016003 0.740150 -0.023500
v 0.000442 0.563976 0.023500
v -0.003541 0.564350 0.027500
v -0.003983 0.560374 0.023500
v -0.635617 0.619626 0.023500
v -0.637716 0.623841 0.027500
v -0.642333 0.622920 0.023500
v -0.777267 0.767080 0.023500
v -0.770439 0.765639 0.027500
v -0.776003 0.769850 0.023500
v 0.019558 0.736024 0.023500
v 0.016003 0.740150 0.023500
v 0.015549 0.736164 0.027500
vn 0.5169 -0.6349 -0.5741
vn -0.3582 -0.7304 -0.5816
vn -0.4608 0.2102 -0.8623
vn 0.6099 0.5257 -0.5930
vn 0.5169 -0.6349 0.5741
vn -0.3582 -0.7304 0.5816
vn -0.4608 0.2102 0.8623
vn 0.6099 0.5257 0.5930
vn 0.7028 -0.0781 -0.7071
vn -0.0660 -0.7040 -0.7071
vn -0.5162 -0.4832 -0.7071
vn 0.0265 0.7066 -0.7071
vn 0.7028 -0.0781 0.7071
vn -0.0660 -0.7040 0.7071
vn -0.5162 -0.4832 0.7071
vn 0.0265 0.7066 0.7071
vn 0.6314 -0.7755 -0.0000
vn -0.4403 -0.8978 -0.0000
vn -0.9098 0.4150 -0.0000
vn 0.7575 0.6528 -0.0000
vn 0.9939 -0.1104 -0.0000
vn -0.0000 -0.0000 -1.0000
vn -0.0934 -0.9956 -0.0000
vn -0.7301 -0.6834 -0.0000
vn 0.0375 0.9993 -0.0000
vn -0.0000 -0.0000 1.0000
vn -0.5163 -0.4832 -0.7071
vn -0.4404 -0.8978 -0.0000
vt 0.261043 0.261043
vt 0.253113 0.250000
vt 0.262756 0.261219
vt 0.746887 0.250000
vt 0.740266 0.259734
vt 0.736460 0.263957
vt 0.259734 0.740265
vt 0.252498 0.750000
vt 0.266840 0.736239
vt 0.738957 0.738957
vt 0.737633 0.738777
vt 0.747502 0.750000
vt 0.262756 0.261219
vt 0.253113 0.250000
vt 0.736460 0.263957
vt 0.259734 0.740265
vt 0.252498 0.750000
vt 0.737633 0.738777
s 0
g B_VaneL_3.001_bone
usemtl bone
f 91/67/99 92/68/99 93/69/99
f 94/70/100 95/71/100 96/72/100
f 97/73/101 98/74/101 99/75/101
f 100/76/102 101/77/102 102/78/102
f 103/67/103 104/79/103 105/80/103
f 106/70/104 107/81/104 108/71/104
f 109/82/105 110/75/105 111/83/105
f 112/76/106 113/78/106 114/84/106
f 101/77/107 91/67/107 93/69/107
f 94/70/108 93/69/108 92/68/108
f 95/71/109 99/75/109 96/72/109
f 102/78/110 99/75/110 98/74/110
f 103/67/111 114/84/111 104/79/111
f 104/79/112 106/70/112 105/80/112
f 110/75/113 108/71/113 107/81/113
f 110/75/114 113/78/114 111/83/114
f 103/67/115 92/68/115 91/67/115
f 106/70/116 95/71/116 94/70/116
f 109/82/117 98/74/117 97/73/117
f 102/78/118 112/76/118 100/76/118
f 100/76/119 103/67/119 91/67/119
f 96/72/120 101/77/120 93/69/120
f 92/68/121 106/70/121 94/70/121
f 95/71/122 109/82/122 97/73/122
f 98/74/123 113/78/123 102/78/123
f 114/84/124 107/81/124 104/79/124
f 101/77/107 100/76/107 91/67/107
f 94/70/108 96/72/108 93/69/108
f 95/71/125 97/73/125 99/75/125
f 102/78/110 101/77/110 99/75/110
f 103/67/111 112/76/111 114/84/111
f 104/79/112 107/81/112 106/70/112
f 110/75/113 109/82/113 108/71/113
f 110/75/114 114/84/114 113/78/114
f 103/67/115 105/80/115 92/68/115
f 106/70/126 108/71/126 95/71/126
f 109/82/117 111/83/117 98/74/117
f 102/78/118 113/78/118 112/76/118
f 100/76/119 112/76/119 103/67/119
f 96/72/120 99/75/120 101/77/120
f 92/68/121 105/80/121 106/70/121
f 95/71/122 108/71/122 109/82/122
f 98/74/123 111/83/123 113/78/123
f 114/84/124 110/75/124 107/81/124
g B_VaneL_4.001_Mesh
v 0.000442 0.803976 -0.023500
v -0.003978 0.800416 -0.023500
v -0.003537 0.804392 -0.027500
v -0.570022 0.859584 -0.023500
v -0.576784 0.862872 -0.023500
v -0.572139 0.863827 -0.027500
v -0.697216 0.987128 -0.023500
v -0.696000 0.989944 -0.023500
v -0.690423 0.985867 -0.027500
v 0.019558 0.976025 -0.023500
v 0.015538 0.976062 -0.027500
v 0.016000 0.980056 -0.023500
v 0.000442 0.803976 0.023500
v -0.003537 0.804392 0.027500
v -0.003978 0.800416 0.023500
v -0.570022 0.859584 0.023500
v -0.572139 0.863827 0.027500
v -0.576784 0.862872 0.023500
v -0.697216 0.987128 0.023500
v -0.690423 0.985867 0.027500
v -0.696000 0.989944 0.023500
v 0.019558 0.976025 0.023500
v 0.016000 0.980056 0.023500
v 0.015538 0.976062 0.027500
vn 0.5127 -0.6366 -0.5761
vn -0.3545 -0.7290 -0.5856
vn -0.4688 0.2023 -0.8598
vn 0.6005 0.5300 -0.5987
vn 0.5127 -0.6366 0.5761
vn -0.3545 -0.7290 0.5856
vn -0.4688 0.2023 0.8598
vn 0.6005 0.5300 0.5987
vn 0.7028 -0.0781 -0.7071
vn -0.0735 -0.7033 -0.7071
vn -0.5078 -0.4921 -0.7071
vn 0.0098 0.7070 -0.7071
vn 0.7028 -0.0781 0.7071
vn -0.0735 -0.7033 0.7071
vn -0.5078 -0.4921 0.7071
vn 0.0098 0.7070 0.7071
vn 0.6272 -0.7788 -0.0000
vn -0.4373 -0.8993 -0.0000
vn -0.9181 0.3963 -0.0000
vn 0.7497 0.6617 -0.0000
vn 0.9939 -0.1104 -0.0000
vn -0.0000 -0.0000 -1.0000
vn -0.1040 -0.9946 -0.0000
vn -0.7181 -0.6960 -0.0000
vn 0.0139 0.9999 -0.0000
vn -0.0000 -0.0000 1.0000
vn -0.5077 -0.4921 -0.7071
vt 0.261043 0.261043
vt 0.253465 0.250000
vt 0.263045 0.261322
vt 0.746535 0.250000
vt 0.738953 0.261047
vt 0.734654 0.265830
vt 0.261047 0.738953
vt 0.252778 0.750000
vt 0.268873 0.734526
vt 0.738957 0.738957
vt 0.737351 0.738670
vt 0.747223 0.750000
vt 0.253465 0.250000
vt 0.746535 0.250000
vt 0.252778 0.750000
vt 0.737351 0.738670
s 0
g B_VaneL_4.001_bone
usemtl bone
f 115/85/127 116/86/127 117/87/127
f 118/88/128 119/89/128 120/90/128
f 121/91/129 122/92/129 123/93/129
f 124/94/130 125/95/130 126/96/130
f 127/85/131 128/87/131 129/97/131
f 130/98/132 131/90/132 132/89/132
f 133/91/133 134/93/133 135/99/133
f 136/94/134 137/96/134 138/100/134
f 125/95/135 115/85/135 117/87/135
f 118/88/136 117/87/136 116/86/136
f 119/89/137 123/93/137 120/90/137
f 126/96/138 123/93/138 122/92/138
f 127/85/139 138/100/139 128/87/139
f 128/87/140 130/98/140 129/97/140
f 134/93/141 132/89/141 131/90/141
f 134/93/142 137/96/142 135/99/142
f 127/85/143 116/86/143 115/85/143
f 130/98/144 119/89/144 118/88/144
f 133/91/145 122/92/145 121/91/145
f 137/96/146 124/94/146 126/96/146
f 124/94/147 127/85/147 115/85/147
f 120/90/148 125/95/148 117/87/148
f 116/86/149 130/98/149 118/88/149
f 119/89/150 133/91/150 121/91/150
f 122/92/151 137/96/151 126/96/151
f 138/100/152 131/90/152 128/87/152
f 125/95/135 124/94/135 115/85/135
f 118/88/136 120/90/136 117/87/136
f 119/89/153 121/91/153 123/93/153
f 126/96/138 125/95/138 123/93/138
f 127/85/139 136/94/139 138/100/139
f 128/87/140 131/90/140 130/98/140
f 134/93/141 133/91/141 132/89/141
f 134/93/142 138/100/142 137/96/142
f 127/85/143 129/97/143 116/86/143
f 130/98/144 132/89/144 119/89/144
f 133/91/145 135/99/145 122/92/145
f 137/96/146 136/94/146 124/94/146
f 124/94/147 136/94/147 127/85/147
f 120/90/148 123/93/148 125/95/148
f 116/86/149 129/97/149 130/98/149
f 119/89/150 132/89/150 133/91/150
f 122/92/151 135/99/151 137/96/151
f 138/100/152 134/93/152 131/90/152
g B_VaneL_5.001_Mesh
v 0.000442 1.043976 -0.023500
v -0.003966 1.040518 -0.023500
v -0.003525 1.044495 -0.027500
v -0.455234 1.099482 -0.023500
v -0.461902 1.102949 -0.023500
v -0.457236 1.103777 -0.027500
v -0.557298 1.207051 -0.023500
v -0.556001 1.210069 -0.023500
v -0.551050 1.206154 -0.027500
v 0.019558 1.216025 -0.023500
v 0.015522 1.215922 -0.027500
v 0.016001 1.219931 -0.023500
v 0.000442 1.043976 0.023500
v -0.003525 1.044495 0.027500
v -0.003966 1.040518 0.023500
v -0.455234 1.099482 0.023500
v -0.457236 1.103777 0.027500
v -0.461902 1.102949 0.023500
v -0.557298 1.207051 0.023500
v -0.551050 1.206154 0.027500
v -0.556001 1.210069 0.023500
v 0.019558 1.216025 0.023500
v 0.016001 1.219931 0.023500
v 0.015522 1.215922 0.027500
vn 0.5022 -0.6403 -0.5812
vn -0.3740 -0.7194 -0.5853
vn -0.5041 0.2167 -0.8360
vn 0.5877 0.5352 -0.6067
vn 0.5022 -0.6403 0.5812
vn -0.3740 -0.7194 0.5853
vn -0.5041 0.2167 0.8360
vn 0.5877 0.5352 0.6067
vn 0.7028 -0.0781 -0.7071
vn -0.0916 -0.7011 -0.7071
vn -0.5213 -0.4777 -0.7071
vn -0.0122 0.7070 -0.7071
vn 0.7028 -0.0781 0.7071
vn -0.0916 -0.7011 0.7071
vn -0.5213 -0.4777 0.7071
vn -0.0122 0.7070 0.7071
vn 0.6171 -0.7869 -0.0000
vn -0.4613 -0.8872 -0.0000
vn -0.9188 0.3948 -0.0000
vn 0.7394 0.6733 -0.0000
vn 0.9939 -0.1104 -0.0000
vn -0.0000 -0.0000 -1.0000
vn -0.1296 -0.9916 -0.0000
vn -0.7373 -0.6756 -0.0000
vn -0.0172 0.9999 -0.0000
vn -0.0000 -0.0000 1.0000
vt 0.261043 0.261043
vt 0.254319 0.250000
vt 0.263704 0.261485
vt 0.745681 0.250000
vt 0.736595 0.263405
vt 0.732045 0.268290
vt 0.263405 0.736595
vt 0.253448 0.750000
vt 0.271571 0.732346
vt 0.738957 0.738957
vt 0.736767 0.738501
vt 0.746552 0.750000
vt 0.254319 0.250000
vt 0.745681 0.250000
vt 0.263405 0.736595
vt 0.271571 0.732346
vt 0.253448 0.750000
vt 0.736767 0.738501
s 0
g B_VaneL_5.001_bone
usemtl bone
f 139/101/154 140/102/154 141/103/154
f 142/104/155 143/105/155 144/106/155
f 145/107/156 146/108/156 147/109/156
f 148/110/157 149/111/157 150/112/157
f 151/101/158 152/103/158 153/113/158
f 154/114/159 155/106/159 156/105/159
f 157/115/160 158/116/160 159/117/160
f 160/110/161 161/112/161 162/118/161
f 149/111/162 139/101/162 141/103/162
f 142/104/163 141/103/163 140/102/163
f 143/105/164 147/109/164 144/106/164
f 150/112/165 147/109/165 146/108/165
f 151/101/166 162/118/166 152/103/166
f 152/103/167 154/114/167 153/113/167
f 158/116/168 156/105/168 155/106/168
f 158/116/169 161/112/169 159/117/169
f 151/101/170 140/102/170 139/101/170
f 154/114/171 143/105/171 142/104/171
f 157/115/172 146/108/172 145/107/172
f 161/112/173 148/110/173 150/112/173
f 148/110/174 151/101/174 139/101/174
f 144/106/175 149/111/175 141/103/175
f 140/102/176 154/114/176 142/104/176
f 143/105/177 157/115/177 145/107/177
f 146/108/178 161/112/178 150/112/178
f 162/118/179 155/106/179 152/103/179
f 149/111/162 148/110/162 139/101/162
f 142/104/163 144/106/163 141/103/163
f 143/105/164 145/107/164 147/109/164
f 150/112/165 149/111/165 147/109/165
f 151/101/166 160/110/166 162/118/166
f 152/103/167 155/106/167 154/114/167
f 158/116/168 157/115/168 156/105/168
f 158/116/169 162/118/169 161/112/169
f 151/101/170 153/113/170 140/102/170
f 154/114/171 156/105/171 143/105/171
f 157/115/172 159/117/172 146/108/172
f 161/112/173 160/110/173 148/110/173
f 148/110/174 160/110/174 151/101/174
f 144/106/175 147/109/175 149/111/175
f 140/102/176 153/113/176 154/114/176
f 143/105/177 156/105/177 157/115/177
f 146/108/178 159/117/178 161/112/178
f 162/118/179 158/116/179 155/106/179
g B_VaneL_6.001_Mesh
v 0.000442 1.263976 -0.023500
v -0.003935 1.260720 -0.023500
v -0.003502 1.264707 -0.027500
v -0.324065 1.319280 -0.023500
v -0.330499 1.323123 -0.023500
v -0.325810 1.323666 -0.027500
v -0.397501 1.406876 -0.023500
v -0.396010 1.410285 -0.023500
v -0.392120 1.406553 -0.027500
v 0.019558 1.436024 -0.023500
v 0.015494 1.435668 -0.027500
v 0.016010 1.439715 -0.023500
v 0.000442 1.263976 0.023500
v -0.003502 1.264707 0.027500
v -0.003935 1.260720 0.023500
v -0.324065 1.319280 0.023500
v -0.325810 1.323666 0.027500
v -0.330499 1.323123 0.023500
v -0.397501 1.406876 0.023500
v -0.392120 1.406553 0.027500
v -0.396010 1.410285 0.023500
v 0.019558 1.436024 0.023500
v 0.016010 1.439715 0.023500
v 0.015494 1.435668 0.027500
vn 0.4809 -0.6464 -0.5923
vn -0.4167 -0.6975 -0.5830
vn -0.5681 0.2485 -0.7845
vn 0.5645 0.5427 -0.6219
vn 0.4809 -0.6464 0.5923
vn -0.4167 -0.6975 0.5830
vn -0.5681 0.2485 0.7845
vn 0.5645 0.5427 0.6219
vn 0.7028 -0.0781 -0.7071
vn -0.1272 -0.6956 -0.7071
vn -0.5522 -0.4417 -0.7071
vn -0.0504 0.7053 -0.7071
vn 0.7028 -0.0781 0.7071
vn -0.1272 -0.6956 0.7071
vn -0.5522 -0.4417 0.7071
vn -0.0504 0.7053 0.7071
vn 0.5969 -0.8023 -0.0000
vn -0.5128 -0.8585 -0.0000
vn -0.9162 0.4008 -0.0000
vn 0.7209 0.6931 -0.0000
vn 0.9939 -0.1104 -0.0000
vn -0.0000 -0.0000 -1.0000
vn -0.1799 -0.9837 -0.0000
vn -0.7809 -0.6247 -0.0000
vn -0.0712 0.9975 -0.0000
vn -0.0000 -0.0000 1.0000
vt 0.261043 0.261043
vt 0.255998 0.250000
vt 0.265065 0.261776
vt 0.744002 0.250000
vt 0.732647 0.267353
vt 0.728136 0.271656
vt 0.267353 0.732647
vt 0.254750 0.750000
vt 0.275202 0.729499
vt 0.738957 0.738957
vt 0.735569 0.738203
vt 0.745250 0.750000
vt 0.255998 0.250000
vt 0.744002 0.250000
vt 0.728136 0.271656
vt 0.732647 0.267353
vt 0.735569 0.738202
s 0
g B_VaneL_6.001_bone
usemtl bone
f 163/119/180 164/120/180 165/121/180
f 166/122/181 167/123/181 168/124/181
f 169/125/182 170/126/182 171/127/182
f 172/128/183 173/129/183 174/130/183
f 175/119/184 176/121/184 177/131/184
f 178/132/185 179/133/185 180/134/185
f 181/125/186 182/127/186 183/126/186
f 184/128/187 185/130/187 186/135/187
f 173/129/188 163/119/188 165/121/188
f 166/122/189 165/121/189 164/120/189
f 167/123/190 171/127/190 168/124/190
f 174/130/191 171/127/191 170/126/191
f 175/119/192 186/135/192 176/121/192
f 176/121/193 178/132/193 177/131/193
f 182/127/194 180/134/194 179/133/194
f 182/127/195 185/130/195 183/126/195
f 175/119/196 164/120/196 163/119/196
f 178/132/197 167/123/197 166/122/197
f 181/125/198 170/126/198 169/125/198
f 185/130/199 172/128/199 174/130/199
f 172/128/200 175/119/200 163/119/200
f 168/124/201 173/129/201 165/121/201
f 164/120/202 178/132/202 166/122/202
f 167/123/203 181/125/203 169/125/203
f 170/126/204 185/130/204 174/130/204
f 186/135/205 179/133/205 176/121/205
f 173/129/188 172/128/188 163/119/188
f 166/122/189 168/124/189 165/121/189
f 167/123/190 169/125/190 171/127/190
f 174/130/191 173/129/191 171/127/191
f 175/119/192 184/128/192 186/135/192
f 176/121/193 179/133/193 178/132/193
f 182/127/194 181/125/194 180/134/194
f 182/127/195 186/135/195 185/130/195
f 175/119/196 177/131/196 164/120/196
f 178/132/197 180/134/197 167/123/197
f 181/125/198 183/126/198 170/126/198
f 185/130/199 184/128/199 172/128/199
f 172/128/200 184/128/200 175/119/200
f 168/124/201 171/127/201 173/129/201
f 164/120/202 177/131/202 178/132/202
f 167/123/203 180/134/203 181/125/203
f 170/126/204 183/126/204 185/130/204
f 186/135/205 182/127/205 179/133/205
g B_VaneR_0.001_Mesh
v -0.019558 0.076024 -0.023500
v -0.016000 0.080000 -0.023500
v -0.015531 0.076000 -0.027500
v 0.476000 0.080000 -0.023500
v 0.477663 0.076754 -0.023500
v 0.472191 0.076000 -0.027500
v 0.395937 -0.036754 -0.023500
v 0.389646 -0.040603 -0.023500
v 0.391336 -0.036299 -0.027500
v -0.000442 -0.096024 -0.023500
v 0.003515 -0.095418 -0.027500
v 0.003954 -0.099397 -0.023500
v -0.019558 0.076024 0.023500
v -0.015531 0.076000 0.027500
v -0.016000 0.080000 0.023500
v 0.476000 0.080000 0.023500
v 0.472191 0.076000 0.027500
v 0.477663 0.076754 0.023500
v 0.395937 -0.036754 0.023500
v 0.391336 -0.036299 0.027500
v 0.389646 -0.040603 0.023500
v -0.000442 -0.096024 0.023500
v 0.003954 -0.099397 0.023500
v 0.003515 -0.095418 0.027500
vn -0.5949 0.5324 -0.6022
vn 0.5418 0.2775 -0.7934
vn 0.4281 -0.6997 -0.5720
vn -0.4934 -0.6431 -0.5856
vn -0.5949 0.5324 0.6022
vn 0.5418 0.2775 0.7934
vn 0.4281 -0.6997 0.5720
vn -0.4934 -0.6431 0.5856
vn -0.7028 -0.0781 -0.7071
vn -0.0000 0.7071 -0.7071
vn 0.5738 -0.4132 -0.7071
vn 0.1066 -0.6990 -0.7071
vn -0.7028 -0.0781 0.7071
vn -0.0000 0.7071 0.7071
vn 0.5738 -0.4132 0.7071
vn 0.1066 -0.6990 0.7071
vn -0.7451 0.6669 -0.0000
vn 0.8900 0.4559 -0.0000
vn 0.5219 -0.8530 -0.0000
vn -0.6087 -0.7934 -0.0000
vn -0.9939 -0.1104 -0.0000
vn -0.0000 -0.0000 -1.0000
vn -0.0000 1.0000 -0.0000
vn 0.8115 -0.5843 -0.0000
vn 0.1507 -0.9886 -0.0000
vn -0.0000 -0.0000 1.0000
vt 0.261043 0.261043
vt 0.254000 0.250000
vt 0.263502 0.261482
vt 0.746000 0.250000
vt 0.736474 0.263526
vt 0.729565 0.266403
vt 0.263526 0.736474
vt 0.255023 0.750000
vt 0.267196 0.733056
vt 0.738957 0.738957
vt 0.735810 0.738519
vt 0.744977 0.750000
vt 0.263502 0.261482
vt 0.254000 0.250000
vt 0.729565 0.266403
vt 0.255023 0.750000
vt 0.735810 0.738519
s 0
g B_VaneR_0.001_bone
usemtl bone
f 187/136/206 188/137/206 189/138/206
f 190/139/207 191/140/207 192/141/207
f 193/142/208 194/143/208 195/144/208
f 196/145/209 197/146/209 198/147/209
f 199/136/210 200/148/210 201/149/210
f 202/139/211 203/150/211 204/140/211
f 205/142/212 206/144/212 207/151/212
f 208/145/213 209/147/213 210/152/213
f 189/138/214 196/145/214 187/136/214
f 188/137/215 192/141/215 189/138/215
f 193/142/216 192/141/216 191/140/216
f 194/143/217 197/146/217 195/144/217
f 208/145/218 200/148/218 199/136/218
f 203/150/219 201/149/219 200/148/219
f 203/150/220 205/142/220 204/140/220
f 210/152/221 207/151/221 206/144/221
f 199/136/222 188/137/222 187/136/222
f 202/139/223 191/140/223 190/139/223
f 205/142/224 194/143/224 193/142/224
f 209/147/225 196/145/225 198/147/225
f 196/145/226 199/136/226 187/136/226
f 189/138/227 195/144/227 197/146/227
f 188/137/228 202/139/228 190/139/228
f 191/140/229 205/142/229 193/142/229
f 194/143/230 209/147/230 198/147/230
f 200/148/231 206/144/231 203/150/231
f 189/138/214 197/146/214 196/145/214
f 188/137/215 190/139/215 192/141/215
f 193/142/216 195/144/216 192/141/216
f 194/143/217 198/147/217 197/146/217
f 208/145/218 210/152/218 200/148/218
f 203/150/219 202/139/219 201/149/219
f 203/150/220 206/144/220 205/142/220
f 210/152/221 209/147/221 207/151/221
f 199/136/222 201/149/222 188/137/222
f 202/139/223 204/140/223 191/140/223
f 205/142/224 207/151/224 194/143/224
f 209/147/225 208/145/225 196/145/225
f 196/145/226 208/145/226 199/136/226
f 189/138/227 192/141/227 195/144/227
f 188/137/228 201/149/228 202/139/228
f 191/140/229 204/140/229 205/142/229
f 194/143/230 207/151/230 209/147/230
f 200/148/231 210/152/231 206/144/231
g B_VaneR_1.001_Mesh
v -0.019558 0.276024 -0.023500
v -0.016004 0.280187 -0.023500
v -0.015554 0.276204 -0.027500
v 0.616004 0.309813 -0.023500
v 0.617612 0.306791 -0.023500
v 0.611747 0.305609 -0.027500
v 0.510788 0.163209 -0.023500
v 0.504428 0.159531 -0.023500
v 0.506220 0.163770 -0.027500
v -0.000442 0.103976 -0.023500
v 0.003531 0.104444 -0.027500
v 0.003972 0.100469 -0.023500
v -0.019558 0.276024 0.023500
v -0.015554 0.276204 0.027500
v -0.016004 0.280187 0.023500
v 0.616004 0.309813 0.023500
v 0.611747 0.305609 0.027500
v 0.617612 0.306791 0.023500
v 0.510788 0.163209 0.023500
v 0.506220 0.163770 0.027500
v 0.504428 0.159531 0.023500
v -0.000442 0.103976 0.023500
v 0.003972 0.100469 0.023500
v 0.003531 0.104444 0.027500
vn -0.6136 0.5239 -0.5908
vn 0.5052 0.2688 -0.8201
vn 0.4114 -0.7115 -0.5697
vn -0.5073 -0.6386 -0.5787
vn -0.6136 0.5239 0.5908
vn 0.5052 0.2688 0.8201
vn 0.4114 -0.7115 0.5697
vn -0.5073 -0.6386 0.5787
vn -0.7028 -0.0781 -0.7071
vn -0.0331 0.7063 -0.7071
vn 0.5673 -0.4221 -0.7071
vn 0.0829 -0.7022 -0.7071
vn -0.7028 -0.0781 0.7071
vn -0.0331 0.7063 0.7071
vn 0.5673 -0.4221 0.7071
vn 0.0829 -0.7022 0.7071
vn -0.7605 0.6493 -0.0000
vn 0.8828 0.4697 -0.0000
vn 0.5006 -0.8657 -0.0000
vn -0.6220 -0.7830 -0.0000
vn -0.9939 -0.1104 -0.0000
vn -0.0000 -0.0000 -1.0000
vn -0.0468 0.9989 -0.0000
vn 0.8023 -0.5969 -0.0000
vn 0.1172 -0.9931 -0.0000
vn -0.0000 -0.0000 1.0000
vt 0.261043 0.261043
vt 0.253122 0.250000
vt 0.262705 0.261252
vt 0.746878 0.250000
vt 0.739303 0.260697
vt 0.732894 0.263735
vt 0.260697 0.739303
vt 0.253907 0.750000
vt 0.263979 0.736045
vt 0.738957 0.738957
vt 0.736718 0.738748
vt 0.746093 0.750000
vt 0.262705 0.261252
vt 0.746878 0.250000
vt 0.732894 0.263735
vt 0.260697 0.739303
vt 0.253907 0.750000
s 0
g B_VaneR_1.001_bone
usemtl bone
f 211/153/232 212/154/232 213/155/232
f 214/156/233 215/157/233 216/158/233
f 217/159/234 218/160/234 219/161/234
f 220/162/235 221/163/235 222/164/235
f 223/153/236 224/165/236 225/154/236
f 226/166/237 227/167/237 228/157/237
f 229/168/238 230/161/238 231/169/238
f 232/162/239 233/164/239 234/163/239
f 213/155/240 220/162/240 211/153/240
f 212/154/241 216/158/241 213/155/241
f 217/159/242 216/158/242 215/157/242
f 218/160/243 221/163/243 219/161/243
f 232/162/244 224/165/244 223/153/244
f 227/167/245 225/154/245 224/165/245
f 227/167/246 229/168/246 228/157/246
f 234/163/247 231/169/247 230/161/247
f 223/153/248 212/154/248 211/153/248
f 226/166/249 215/157/249 214/156/249
f 229/168/250 218/160/250 217/159/250
f 233/164/251 220/162/251 222/164/251
f 220/162/252 223/153/252 211/153/252
f 213/155/253 219/161/253 221/163/253
f 212/154/254 226/166/254 214/156/254
f 217/159/255 228/157/255 229/168/255
f 218/160/256 233/164/256 222/164/256
f 224/165/257 230/161/257 227/167/257
f 213/155/240 221/163/240 220/162/240
f 212/154/241 214/156/241 216/158/241
f 217/159/242 219/161/242 216/158/242
f 218/160/243 222/164/243 221/163/243
f 232/162/244 234/163/244 224/165/244
f 227/167/245 226/166/245 225/154/245
f 227/167/246 230/161/246 229/168/246
f 234/163/247 233/164/247 231/169/247
f 223/153/248 225/154/248 212/154/248
f 226/166/249 228/157/249 215/157/249
f 229/168/250 231/169/250 218/160/250
f 233/164/251 232/162/251 220/162/251
f 220/162/252 232/162/252 223/153/252
f 213/155/253 216/158/253 219/161/253
f 212/154/254 225/154/254 226/166/254
f 217/159/255 215/157/255 228/157/255
f 218/160/256 231/169/256 233/164/256
f 224/165/257 234/163/257 230/161/257
g B_VaneR_2.001_Mesh
v -0.019558 0.496024 -0.023500
v -0.016006 0.500216 -0.023500
v -0.015557 0.496234 -0.027500
v 0.716006 0.539784 -0.023500
v 0.717482 0.536892 -0.023500
v 0.711223 0.535520 -0.027500
v 0.592918 0.383108 -0.023500
v 0.586421 0.379596 -0.023500
v 0.588340 0.383811 -0.027500
v -0.000442 0.323976 -0.023500
v 0.003538 0.324380 -0.027500
v 0.003980 0.320404 -0.023500
v -0.019558 0.496024 0.023500
v -0.015557 0.496234 0.027500
v -0.016006 0.500216 0.023500
v 0.716006 0.539784 0.023500
v 0.711223 0.535520 0.027500
v 0.717482 0.536892 0.023500
v 0.592918 0.383108 0.023500
v 0.588340 0.383811 0.027500
v 0.586421 0.379596 0.023500
v -0.000442 0.323976 0.023500
v 0.003980 0.320404 0.023500
v 0.003538 0.324380 0.027500
vn -0.6164 0.5224 -0.5892
vn 0.4829 0.2465 -0.8402
vn 0.3898 -0.7210 -0.5729
vn -0.5138 -0.6362 -0.5756
vn -0.6164 0.5224 0.5892
vn 0.4829 0.2465 0.8402
vn 0.3898 -0.7210 0.5729
vn -0.5138 -0.6362 0.5756
vn -0.7028 -0.0781 -0.7071
vn -0.0382 0.7061 -0.7071
vn 0.5495 -0.4451 -0.7071
vn 0.0715 -0.7035 -0.7071
vn -0.7028 -0.0781 0.7071
vn -0.0382 0.7061 0.7071
vn 0.5495 -0.4451 0.7071
vn 0.0715 -0.7035 0.7071
vn -0.7629 0.6466 -0.0000
vn 0.8907 0.4547 -0.0000
vn 0.4756 -0.8797 -0.0000
vn -0.6283 -0.7779 -0.0000
vn -0.9939 -0.1104 -0.0000
vn -0.0000 -0.0000 -1.0000
vn -0.0540 0.9985 -0.0000
vn 0.7771 -0.6294 -0.0000
vn 0.1011 -0.9949 -0.0000
vn -0.0000 -0.0000 1.0000
vt 0.261043 0.261043
vt 0.252699 0.250000
vt 0.262413 0.261188
vt 0.747301 0.250000
vt 0.740287 0.259713
vt 0.733875 0.263035
vt 0.259713 0.740287
vt 0.253370 0.750000
vt 0.263015 0.736820
vt 0.738957 0.738957
vt 0.737108 0.738813
vt 0.746630 0.750000
vt 0.262413 0.261188
vt 0.252699 0.250000
vt 0.747301 0.250000
vt 0.733875 0.263035
vt 0.740287 0.259713
vt 0.259713 0.740287
vt 0.253370 0.750000
vt 0.737108 0.738813
s 0
g B_VaneR_2.001_bone
usemtl bone
f 235/170/258 236/171/258 237/172/258
f 238/173/259 239/174/259 240/175/259
f 241/176/260 242/177/260 243/178/260
f 244/179/261 245/180/261 246/181/261
f 247/170/262 248/182/262 249/183/262
f 250/184/263 251/185/263 252/186/263
f 253/187/264 254/178/264 255/188/264
f 256/179/265 257/181/265 258/189/265
f 237/172/266 244/179/266 235/170/266
f 236/171/267 240/175/267 237/172/267
f 241/176/268 240/175/268 239/174/268
f 242/177/269 245/180/269 243/178/269
f 256/179/270 248/182/270 247/170/270
f 251/185/271 249/183/271 248/182/271
f 251/185/272 253/187/272 252/186/272
f 258/189/273 255/188/273 254/178/273
f 247/170/274 236/171/274 235/170/274
f 250/184/275 239/174/275 238/173/275
f 253/187/276 242/177/276 241/176/276
f 257/181/277 244/179/277 246/181/277
f 244/179/278 247/170/278 235/170/278
f 237/172/279 243/178/279 245/180/279
f 236/171/280 250/184/280 238/173/280
f 241/176/281 252/186/281 253/187/281
f 242/177/282 257/181/282 246/181/282
f 248/182/283 254/178/283 251/185/283
f 237/172/266 245/180/266 244/179/266
f 236/171/267 238/173/267 240/175/267
f 241/176/268 243/178/268 240/175/268
f 242/177/269 246/181/269 245/180/269
f 256/179/270 258/189/270 248/182/270
f 251/185/271 250/184/271 249/183/271
f 251/185/272 254/178/272 253/187/272
f 258/189/273 257/181/273 255/188/273
f 247/170/274 249/183/274 236/171/274
f 250/184/275 252/186/275 239/174/275
f 253/187/276 255/188/276 242/177/276
f 257/181/277 256/179/277 244/179/277
f 244/179/278 256/179/278 247/170/278
f 237/172/279 240/175/279 243/178/279
f 236/171/280 249/183/280 250/184/280
f 241/176/281 239/174/281 252/186/281
f 242/177/282 255/188/282 257/181/282
f 248/182/283 258/189/283 254/178/283
g B_VaneR_3.001_Mesh
v -0.019558 0.736024 -0.023500
v -0.016003 0.740150 -0.023500
v -0.015549 0.736164 -0.027500
v 0.776003 0.769850 -0.023500
v 0.777267 0.767080 -0.023500
v 0.770439 0.765639 -0.027500
v 0.642333 0.622920 -0.023500
v 0.635617 0.619626 -0.023500
v 0.637716 0.623841 -0.027500
v -0.000442 0.563976 -0.023500
v 0.003541 0.564350 -0.027500
v 0.003983 0.560374 -0.023500
v -0.019558 0.736024 0.023500
v -0.015549 0.736164 0.027500
v -0.016003 0.740150 0.023500
v 0.776003 0.769850 0.023500
v 0.770439 0.765639 0.027500
v 0.777267 0.767080 0.023500
v 0.642333 0.622920 0.023500
v 0.637716 0.623841 0.027500
v 0.635617 0.619626 0.023500
v -0.000442 0.563976 0.023500
v 0.003983 0.560374 0.023500
v 0.003541 0.564350 0.027500
vn -0.6099 0.5257 -0.5930
vn 0.4608 0.2102 -0.8623
vn 0.3582 -0.7304 -0.5816
vn -0.5169 -0.6349 -0.5741
vn -0.6099 0.5257 0.5930
vn 0.4608 0.2102 0.8623
vn 0.3582 -0.7304 0.5816
vn -0.5169 -0.6349 0.5741
vn -0.7028 -0.0781 -0.7071
vn -0.0265 0.7066 -0.7071
vn 0.5162 -0.4832 -0.7071
vn 0.0660 -0.7040 -0.7071
vn -0.7028 -0.0781 0.7071
vn -0.0265 0.7066 0.7071
vn 0.5163 -0.4832 0.7071
vn 0.0660 -0.7040 0.7071
vn -0.7575 0.6528 -0.0000
vn 0.9098 0.4150 -0.0000
vn 0.4404 -0.8978 -0.0000
vn -0.6314 -0.7755 -0.0000
vn -0.9939 -0.1104 -0.0000
vn -0.0000 -0.0000 -1.0000
vn -0.0375 0.9993 -0.0000
vn 0.7301 -0.6834 -0.0000
vn 0.0934 -0.9956 -0.0000
vn -0.0000 -0.0000 1.0000
vn 0.5162 -0.4832 0.7071
vn 0.4403 -0.8978 -0.0000
vt 0.261043 0.261043
vt 0.252498 0.250000
vt 0.262367 0.261223
vt 0.747502 0.250000
vt 0.740265 0.259734
vt 0.733160 0.263761
vt 0.259734 0.740265
vt 0.253113 0.750000
vt 0.263540 0.736044
vt 0.738957 0.738957
vt 0.737244 0.738781
vt 0.746887 0.750000
vt 0.259734 0.740265
vt 0.253113 0.750000
s 0
g B_VaneR_3.001_bone
usemtl bone
f 259/190/284 260/191/284 261/192/284
f 262/193/285 263/194/285 264/195/285
f 265/196/286 266/197/286 267/198/286
f 268/199/287 269/200/287 270/201/287
f 271/190/288 272/192/288 273/191/288
f 274/193/289 275/195/289 276/194/289
f 277/202/290 278/198/290 279/203/290
f 280/199/291 281/201/291 282/200/291
f 261/192/292 268/199/292 259/190/292
f 260/191/293 264/195/293 261/192/293
f 265/196/294 264/195/294 263/194/294
f 266/197/295 269/200/295 267/198/295
f 280/199/296 272/192/296 271/190/296
f 275/195/297 273/191/297 272/192/297
f 275/195/298 277/202/298 276/194/298
f 282/200/299 279/203/299 278/198/299
f 259/190/300 273/191/300 260/191/300
f 274/193/301 263/194/301 262/193/301
f 277/202/302 266/197/302 265/196/302
f 281/201/303 268/199/303 270/201/303
f 268/199/304 271/190/304 259/190/304
f 261/192/305 267/198/305 269/200/305
f 260/191/306 274/193/306 262/193/306
f 263/194/307 277/202/307 265/196/307
f 266/197/308 281/201/308 270/201/308
f 272/192/309 278/198/309 275/195/309
f 261/192/292 269/200/292 268/199/292
f 260/191/293 262/193/293 264/195/293
f 265/196/294 267/198/294 264/195/294
f 266/197/295 270/201/295 269/200/295
f 280/199/296 282/200/296 272/192/296
f 275/195/297 274/193/297 273/191/297
f 275/195/310 278/198/310 277/202/310
f 282/200/299 281/201/299 279/203/299
f 259/190/300 271/190/300 273/191/300
f 274/193/301 276/194/301 263/194/301
f 277/202/311 279/203/311 266/197/311
f 281/201/303 280/199/303 268/199/303
f 268/199/304 280/199/304 271/190/304
f 261/192/305 264/195/305 267/198/305
f 260/191/306 273/191/306 274/193/306
f 263/194/307 276/194/307 277/202/307
f 266/197/308 279/203/308 281/201/308
f 272/192/309 282/200/309 278/198/309
g B_VaneR_4.001_Mesh
v -0.019558 0.976025 -0.023500
v -0.016000 0.980056 -0.023500
v -0.015538 0.976062 -0.027500
v 0.696000 0.989944 -0.023500
v 0.697216 0.987128 -0.023500
v 0.690423 0.985867 -0.027500
v 0.576784 0.862872 -0.023500
v 0.570022 0.859584 -0.023500
v 0.572139 0.863827 -0.027500
v -0.000442 0.803976 -0.023500
v 0.003537 0.804392 -0.027500
v 0.003978 0.800416 -0.023500
v -0.019558 0.976025 0.023500
v -0.015538 0.976062 0.027500
v -0.016000 0.980056 0.023500
v 0.696000 0.989944 0.023500
v 0.690423 0.985867 0.027500
v 0.697216 0.987128 0.023500
v 0.576784 0.862872 0.023500
v 0.572139 0.863827 0.027500
v 0.570022 0.859584 0.023500
v -0.000442 0.803976 0.023500
v 0.003978 0.800416 0.023500
v 0.003537 0.804392 0.027500
vn -0.6005 0.5300 -0.5987
vn 0.4688 0.2023 -0.8598
vn 0.3545 -0.7290 -0.5856
vn -0.5127 -0.6366 -0.5761
vn -0.6005 0.5300 0.5987
vn 0.4688 0.2023 0.8598
vn 0.3545 -0.7290 0.5856
vn -0.5127 -0.6366 0.5761
vn -0.7028 -0.0781 -0.7071
vn -0.0098 0.7070 -0.7071
vn 0.5077 -0.4921 -0.7071
vn 0.0735 -0.7033 -0.7071
vn -0.7028 -0.0781 0.7071
vn -0.0098 0.7070 0.7071
vn 0.5078 -0.4921 0.7071
vn 0.0735 -0.7033 0.7071
vn -0.7497 0.6617 -0.0000
vn 0.9181 0.3963 -0.0000
vn 0.4373 -0.8993 -0.0000
vn -0.6272 -0.7788 -0.0000
vn -0.9939 -0.1104 -0.0000
vn -0.0000 -0.0000 -1.0000
vn -0.0139 0.9999 -0.0000
vn 0.7181 -0.6960 -0.0000
vn 0.1040 -0.9946 -0.0000
vn -0.0000 -0.0000 1.0000
vn 0.5078 -0.4921 -0.7071
vt 0.261043 0.261043
vt 0.252778 0.250000
vt 0.262649 0.261330
vt 0.747223 0.250000
vt 0.738953 0.261047
vt 0.731127 0.265474
vt 0.261047 0.738953
vt 0.253465 0.750000
vt 0.265346 0.734170
vt 0.738957 0.738957
vt 0.736955 0.738678
vt 0.746535 0.750000
vt 0.262649 0.261330
vt 0.252778 0.250000
vt 0.731127 0.265474
vt 0.253465 0.750000
vt 0.736955 0.738678
s 0
g B_VaneR_4.001_bone
usemtl bone
f 283/204/312 284/205/312 285/206/312
f 286/207/313 287/208/313 288/209/313
f 289/210/314 290/211/314 291/212/314
f 292/213/315 293/214/315 294/215/315
f 295/204/316 296/216/316 297/217/316
f 298/207/317 299/218/317 300/208/317
f 301/210/318 302/212/318 303/219/318
f 304/213/319 305/215/319 306/220/319
f 285/206/320 292/213/320 283/204/320
f 284/205/321 288/209/321 285/206/321
f 289/210/322 288/209/322 287/208/322
f 290/211/323 293/214/323 291/212/323
f 304/213/324 296/216/324 295/204/324
f 299/218/325 297/217/325 296/216/325
f 299/218/326 301/210/326 300/208/326
f 306/220/327 303/219/327 302/212/327
f 295/204/328 284/205/328 283/204/328
f 298/207/329 287/208/329 286/207/329
f 301/210/330 290/211/330 289/210/330
f 305/215/331 292/213/331 294/215/331
f 292/213/332 295/204/332 283/204/332
f 285/206/333 291/212/333 293/214/333
f 284/205/334 298/207/334 286/207/334
f 287/208/335 301/210/335 289/210/335
f 290/211/336 305/215/336 294/215/336
f 296/216/337 302/212/337 299/218/337
f 285/206/320 293/214/320 292/213/320
f 284/205/321 286/207/321 288/209/321
f 289/210/338 291/212/338 288/209/338
f 290/211/323 294/215/323 293/214/323
f 304/213/324 306/220/324 296/216/324
f 299/218/325 298/207/325 297/217/325
f 299/218/326 302/212/326 301/210/326
f 306/220/327 305/215/327 303/219/327
f 295/204/328 297/217/328 284/205/328
f 298/207/329 300/208/329 287/208/329
f 301/210/330 303/219/330 290/211/330
f 305/215/331 304/213/331 292/213/331
f 292/213/332 304/213/332 295/204/332
f 285/206/333 288/209/333 291/212/333
f 284/205/334 297/217/334 298/207/334
f 287/208/335 300/208/335 301/210/335
f 290/211/336 303/219/336 305/215/336
f 296/216/337 306/220/337 302/212/337
g B_VaneR_5.001_Mesh
v -0.019558 1.216025 -0.023500
v -0.016001 1.219931 -0.023500
v -0.015522 1.215922 -0.027500
v 0.556001 1.210069 -0.023500
v 0.557298 1.207051 -0.023500
v 0.551050 1.206154 -0.027500
v 0.461902 1.102949 -0.023500
v 0.455234 1.099482 -0.023500
v 0.457236 1.103777 -0.027500
v -0.000442 1.043976 -0.023500
v 0.003525 1.044495 -0.027500
v 0.003966 1.040518 -0.023500
v -0.019558 1.216025 0.023500
v -0.015522 1.215922 0.027500
v -0.016001 1.219931 0.023500
v 0.556001 1.210069 0.023500
v 0.551050 1.206154 0.027500
v 0.557298 1.207051 0.023500
v 0.461902 1.102949 0.023500
v 0.457236 1.103777 0.027500
v 0.455234 1.099482 0.023500
v -0.000442 1.043976 0.023500
v 0.003966 1.040518 0.023500
v 0.003525 1.044495 0.027500
vn -0.5877 0.5352 -0.6067
vn 0.5041 0.2167 -0.8360
vn 0.3740 -0.7194 -0.5853
vn -0.5022 -0.6403 -0.5812
vn -0.5877 0.5352 0.6067
vn 0.5041 0.2167 0.8360
vn 0.3740 -0.7194 0.5853
vn -0.5022 -0.6403 0.5812
vn -0.7028 -0.0781 -0.7071
vn 0.0122 0.7070 -0.7071
vn 0.5213 -0.4777 -0.7071
vn 0.0916 -0.7011 -0.7071
vn -0.7028 -0.0781 0.7071
vn 0.0122 0.7070 0.7071
vn 0.5213 -0.4777 0.7071
vn 0.0916 -0.7011 0.7071
vn -0.7394 0.6733 -0.0000
vn 0.9188 0.3948 -0.0000
vn 0.4613 -0.8872 -0.0000
vn -0.6171 -0.7869 -0.0000
vn -0.9939 -0.1104 -0.0000
vn -0.0000 -0.0000 -1.0000
vn 0.0172 0.9999 -0.0000
vn 0.7373 -0.6756 -0.0000
vn 0.1296 -0.9916 -0.0000
vn -0.0000 -0.0000 1.0000
vt 0.261043 0.261043
vt 0.253448 0.250000
vt 0.263233 0.261499
vt 0.746552 0.250000
vt 0.736595 0.263405
vt 0.728429 0.267654
vt 0.263405 0.736595
vt 0.254319 0.750000
vt 0.267955 0.731710
vt 0.738957 0.738957
vt 0.736296 0.738515
vt 0.745681 0.750000
vt 0.263233 0.261499
vt 0.253448 0.250000
vt 0.263405 0.736595
vt 0.267955 0.731710
vt 0.745681 0.750000
vt 0.736296 0.738515
s 0
g B_VaneR_5.001_bone
usemtl bone
f 307/221/339 308/222/339 309/223/339
f 310/224/340 311/225/340 312/226/340
f 313/227/341 314/228/341 315/229/341
f 316/230/342 317/231/342 318/232/342
f 319/221/343 320/233/343 321/234/343
f 322/224/344 323/226/344 324/225/344
f 325/235/345 326/236/345 327/228/345
f 328/230/346 329/237/346 330/238/346
f 309/223/347 316/230/347 307/221/347
f 308/222/348 312/226/348 309/223/348
f 313/227/349 312/226/349 311/225/349
f 314/228/350 317/231/350 315/229/350
f 328/230/351 320/233/351 319/221/351
f 323/226/352 321/234/352 320/233/352
f 323/226/353 325/235/353 324/225/353
f 330/238/354 327/228/354 326/236/354
f 319/221/355 308/222/355 307/221/355
f 322/224/356 311/225/356 310/224/356
f 325/235/357 314/228/357 313/227/357
f 329/237/358 316/230/358 318/232/358
f 316/230/359 319/221/359 307/221/359
f 309/223/360 315/229/360 317/231/360
f 308/222/361 322/224/361 310/224/361
f 311/225/362 325/235/362 313/227/362
f 314/228/363 329/237/363 318/232/363
f 320/233/364 326/236/364 323/226/364
f 309/223/347 317/231/347 316/230/347
f 308/222/348 310/224/348 312/226/348
f 313/227/349 315/229/349 312/226/349
f 314/228/350 318/232/350 317/231/350
f 328/230/351 330/238/351 320/233/351
f 323/226/352 322/224/352 321/234/352
f 323/226/353 326/236/353 325/235/353
f 330/238/354 329/237/354 327/228/354
f 319/221/355 321/234/355 308/222/355
f 322/224/356 324/225/356 311/225/356
f 325/235/357 327/228/357 314/228/357
f 329/237/358 328/230/358 316/230/358
f 316/230/359 328/230/359 319/221/359
f 309/223/360 312/226/360 315/229/360
f 308/222/361 321/234/361 322/224/361
f 311/225/362 324/225/362 325/235/362
f 314/228/363 327/228/363 329/237/363
f 320/233/364 330/238/364 326/236/364
g B_VaneR_6.001_Mesh
v -0.019558 1.436024 -0.023500
v -0.016010 1.439715 -0.023500
v -0.015494 1.435668 -0.027500
v 0.396010 1.410285 -0.023500
v 0.397501 1.406876 -0.023500
v 0.392120 1.406553 -0.027500
v 0.330499 1.323123 -0.023500
v 0.324065 1.319280 -0.023500
v 0.325810 1.323666 -0.027500
v -0.000442 1.263976 -0.023500
v 0.003502 1.264707 -0.027500
v 0.003935 1.260720 -0.023500
v -0.019558 1.436024 0.023500
v -0.015494 1.435668 0.027500
v -0.016010 1.439715 0.023500
v 0.396010 1.410285 0.023500
v 0.392120 1.406553 0.027500
v 0.397501 1.406876 0.023500
v 0.330499 1.323123 0.023500
v 0.325810 1.323666 0.027500
v 0.324065 1.319280 0.023500
v -0.000442 1.263976 0.023500
v 0.003935 1.260720 0.023500
v 0.003502 1.264707 0.027500
vn -0.5645 0.5427 -0.6219
vn 0.5681 0.2485 -0.7845
vn 0.4167 -0.6975 -0.5830
vn -0.4809 -0.6464 -0.5923
vn -0.5645 0.5427 0.6219
vn 0.5681 0.2485 0.7845
vn 0.4167 -0.6975 0.5830
vn -0.4809 -0.6464 0.5923
vn -0.7028 -0.0781 -0.7071
vn 0.0504 0.7053 -0.7071
vn 0.5522 -0.4417 -0.7071
vn 0.1272 -0.6956 -0.7071
vn -0.7028 -0.0781 0.7071
vn 0.0504 0.7053 0.7071
vn 0.5522 -0.4417 0.7071
vn 0.1272 -0.6956 0.7071
vn -0.7209 0.6931 -0.0000
vn 0.9162 0.4008 -0.0000
vn 0.5128 -0.8585 -0.0000
vn -0.5969 -0.8023 -0.0000
vn -0.9939 -0.1104 -0.0000
vn -0.0000 -0.0000 -1.0000
vn 0.0712 0.9975 -0.0000
vn 0.7809 -0.6247 -0.0000
vn 0.1799 -0.9837 -0.0000
vn -0.0000 -0.0000 1.0000
vt 0.261043 0.261043
vt 0.254750 0.250000
vt 0.264431 0.261798
vt 0.745250 0.250000
vt 0.732647 0.267353
vt 0.724798 0.270501
vt 0.267353 0.732647
vt 0.255998 0.750000
vt 0.271864 0.728344
vt 0.738957 0.738957
vt 0.734935 0.738224
vt 0.744002 0.750000
vt 0.254750 0.250000
vt 0.724798 0.270501
vt 0.732647 0.267353
vt 0.267353 0.732647
vt 0.734935 0.738224
s 0
g B_VaneR_6.001_bone
usemtl bone
f 331/239/365 332/240/365 333/241/365
f 334/242/366 335/243/366 336/244/366
f 337/245/367 338/246/367 339/247/367
f 340/248/368 341/249/368 342/250/368
f 343/239/369 344/241/369 345/251/369
f 346/242/370 347/252/370 348/253/370
f 349/254/371 350/247/371 351/246/371
f 352/248/372 353/250/372 354/255/372
f 333/241/373 340/248/373 331/239/373
f 332/240/374 336/244/374 333/241/374
f 337/245/375 336/244/375 335/243/375
f 338/246/376 341/249/376 339/247/376
f 352/248/377 344/241/377 343/239/377
f 347/252/378 345/251/378 344/241/378
f 347/252/379 349/254/379 348/253/379
f 354/255/380 351/246/380 350/247/380
f 343/239/381 332/240/381 331/239/381
f 346/242/382 335/243/382 334/242/382
f 349/254/383 338/246/383 337/245/383
f 353/250/384 340/248/384 342/250/384
f 340/248/385 343/239/385 331/239/385
f 333/241/386 339/247/386 341/249/386
f 332/240/387 346/242/387 334/242/387
f 335/243/388 349/254/388 337/245/388
f 338/246/389 353/250/389 342/250/389
f 344/241/390 350/247/390 347/252/390
f 333/241/373 341/249/373 340/248/373
f 332/240/374 334/242/374 336/244/374
f 337/245/375 339/247/375 336/244/375
f 338/246/376 342/250/376 341/249/376
f 352/248/377 354/255/377 344/241/377
f 347/252/378 346/242/378 345/251/378
f 347/252/379 350/247/379 349/254/379
f 354/255/380 353/250/380 351/246/380
f 343/239/381 345/251/381 332/240/381
f 346/242/382 348/253/382 335/243/382
f 349/254/383 351/246/383 338/246/383
f 353/250/384 352/248/384 340/248/384
f 340/248/385 352/248/385 343/239/385
f 333/241/386 336/244/386 339/247/386
f 332/240/387 345/251/387 346/242/387
f 335/243/388 348/253/388 349/254/388
f 338/246/389 351/246/389 353/250/389
f 344/241/390 354/255/390 350/247/390
