# Blender 5.0.1
# www.blender.org
mtllib bottle_family__basis.mtl
g BottleFamily_Body.001_Mesh
v 0.700000 -1.150000 0.000000
v 0.606218 -1.150000 -0.350000
v 0.350000 -1.150000 -0.606218
v 0.000000 -1.150000 -0.700000
v -0.350000 -1.150000 -0.606218
v -0.606218 -1.150000 -0.350000
v -0.700000 -1.150000 -0.000000
v -0.606218 -1.150000 0.350000
v -0.350000 -1.150000 0.606218
v -0.000000 -1.150000 0.700000
v 0.350000 -1.150000 0.606218
v 0.606218 -1.150000 0.350000
v 0.780000 -0.250000 0.000000
v 0.675500 -0.250000 -0.390000
v 0.390000 -0.250000 -0.675500
v 0.000000 -0.250000 -0.780000
v -0.390000 -0.250000 -0.675500
v -0.675500 -0.250000 -0.390000
v -0.780000 -0.250000 -0.000000
v -0.675500 -0.250000 0.390000
v -0.390000 -0.250000 0.675500
v -0.000000 -0.250000 0.780000
v 0.390000 -0.250000 0.675500
v 0.675500 -0.250000 0.390000
v 0.660000 0.550000 0.000000
v 0.571577 0.550000 -0.330000
v 0.330000 0.550000 -0.571577
v 0.000000 0.550000 -0.660000
v -0.330000 0.550000 -0.571577
v -0.571577 0.550000 -0.330000
v -0.660000 0.550000 -0.000000
v -0.571577 0.550000 0.330000
v -0.330000 0.550000 0.571577
v -0.000000 0.550000 0.660000
v 0.330000 0.550000 0.571577
v 0.571577 0.550000 0.330000
v 0.420000 0.880000 0.000000
v 0.363731 0.880000 -0.210000
v 0.210000 0.880000 -0.363731
v 0.000000 0.880000 -0.420000
v -0.210000 0.880000 -0.363731
v -0.363731 0.880000 -0.210000
v -0.420000 0.880000 -0.000000
v -0.363731 0.880000 0.210000
v -0.210000 0.880000 0.363731
v -0.000000 0.880000 0.420000
v 0.210000 0.880000 0.363731
v 0.363731 0.880000 0.210000
v 0.340000 1.100000 0.000000
v 0.294449 1.100000 -0.170000
v 0.170000 1.100000 -0.294449
v 0.000000 1.100000 -0.340000
v -0.170000 1.100000 -0.294449
v -0.294449 1.100000 -0.170000
v -0.340000 1.100000 -0.000000
v -0.294449 1.100000 0.170000
v -0.170000 1.100000 0.294449
v -0.000000 1.100000 0.340000
v 0.170000 1.100000 0.294449
v 0.294449 1.100000 0.170000
v 0.523765 -1.350000 0.000000
v 0.580296 -1.321006 0.000000
v 0.453594 -1.350000 -0.261883
v 0.502551 -1.321006 -0.290148
v 0.261883 -1.350000 -0.453594
v 0.290148 -1.321006 -0.502551
v 0.000000 -1.350000 -0.523765
v 0.000000 -1.321006 -0.580296
v -0.261883 -1.350000 -0.453594
v -0.290148 -1.321006 -0.502551
v -0.453594 -1.350000 -0.261883
v -0.502551 -1.321006 -0.290148
v -0.523765 -1.350000 -0.000000
v -0.580296 -1.321006 -0.000000
v -0.453594 -1.350000 0.261883
v -0.502551 -1.321006 0.290148
v -0.261883 -1.350000 0.453594
v -0.290148 -1.321006 0.502551
v -0.000000 -1.350000 0.523765
v -0.000000 -1.321006 0.580296
v 0.261883 -1.350000 0.453594
v 0.290148 -1.321006 0.502551
v 0.453594 -1.350000 0.261883
v 0.502551 -1.321006 0.290148
v 0.303765 1.420000 0.000000
v 0.340000 1.385000 0.000000
v 0.263069 1.420000 -0.151883
v 0.294449 1.385000 -0.170000
v 0.151883 1.420000 -0.263069
v 0.170000 1.385000 -0.294449
v 0.000000 1.420000 -0.303765
v 0.000000 1.385000 -0.340000
v -0.151883 1.420000 -0.263069
v -0.170000 1.385000 -0.294449
v -0.263069 1.420000 -0.151883
v -0.294449 1.385000 -0.170000
v -0.303765 1.420000 0.000000
v -0.340000 1.385000 -0.000000
v -0.263069 1.420000 0.151883
v -0.294449 1.385000 0.170000
v -0.151883 1.420000 0.263069
v -0.170000 1.385000 0.294449
v 0.000000 1.420000 0.303765
v -0.000000 1.385000 0.340000
v 0.151883 1.420000 0.263069
v 0.170000 1.385000 0.294449
v 0.263069 1.420000 0.151883
v 0.294449 1.385000 0.170000
vn 0.9624 -0.0855 -0.2579
vn 0.7045 -0.0855 -0.7045
vn 0.2579 -0.0855 -0.9624
vn -0.2579 -0.0855 -0.9624
vn -0.7045 -0.0855 -0.7045
vn -0.9624 -0.0855 -0.2579
vn -0.9624 -0.0855 0.2579
vn -0.7045 -0.0855 0.7045
vn -0.2579 -0.0855 0.9624
vn 0.2579 -0.0855 0.9624
vn 0.7045 -0.0855 0.7045
vn 0.9624 -0.0855 0.2579
vn 0.9559 0.1434 -0.2561
vn 0.6998 0.1434 -0.6998
vn 0.2561 0.1434 -0.9559
vn -0.2561 0.1434 -0.9559
vn -0.6998 0.1434 -0.6998
vn -0.9559 0.1434 -0.2561
vn -0.9559 0.1434 0.2561
vn -0.6998 0.1434 0.6998
vn -0.2561 0.1434 0.9559
vn 0.2561 0.1434 0.9559
vn 0.6998 0.1434 0.6998
vn 0.9559 0.1434 0.2561
vn 0.7904 0.5748 -0.2118
vn 0.5786 0.5748 -0.5786
vn 0.2118 0.5748 -0.7904
vn -0.2118 0.5748 -0.7904
vn -0.5786 0.5748 -0.5786
vn -0.7904 0.5748 -0.2118
vn -0.7904 0.5748 0.2118
vn -0.5786 0.5748 0.5786
vn -0.2118 0.5748 0.7904
vn 0.2118 0.5748 0.7904
vn 0.5786 0.5748 0.5786
vn 0.7904 0.5748 0.2118
vn 0.9113 0.3314 -0.2442
vn 0.6671 0.3314 -0.6671
vn 0.2442 0.3314 -0.9113
vn -0.2442 0.3314 -0.9113
vn -0.6671 0.3314 -0.6671
vn -0.9113 0.3314 -0.2442
vn -0.9113 0.3314 0.2442
vn -0.6671 0.3314 0.6671
vn -0.2442 0.3314 0.9113
vn 0.2442 0.3314 0.9113
vn 0.6671 0.3314 0.6671
vn 0.9113 0.3314 0.2442
vn 0.4530 -0.8832 -0.1214
vn 0.3316 -0.8832 -0.3316
vn 0.1214 -0.8832 -0.4530
vn -0.1214 -0.8832 -0.4530
vn -0.3316 -0.8832 -0.3316
vn -0.4530 -0.8832 -0.1214
vn -0.4530 -0.8832 0.1214
vn -0.3316 -0.8832 0.3316
vn -0.1214 -0.8832 0.4530
vn 0.1214 -0.8832 0.4530
vn 0.3316 -0.8832 0.3316
vn 0.4530 -0.8832 0.1214
vn 0.6830 0.7071 -0.1830
vn 0.5000 0.7071 -0.5000
vn 0.1830 0.7071 -0.6830
vn -0.1830 0.7071 -0.6830
vn -0.5000 0.7071 -0.5000
vn -0.6830 0.7071 -0.1830
vn -0.6830 0.7071 0.1830
vn -0.5000 0.7071 0.5000
vn -0.1830 0.7071 0.6830
vn 0.1830 0.7071 0.6830
vn 0.5000 0.7071 0.5000
vn 0.6830 0.7071 0.1830
vn 0.8002 -0.5601 0.2144
vn 0.8002 -0.5601 -0.2144
vn -0.0000 -1.0000 -0.0000
vn 0.5858 -0.5601 -0.5858
vn 0.2144 -0.5601 -0.8002
vn -0.2144 -0.5601 -0.8002
vn -0.5858 -0.5601 -0.5858
vn -0.8002 -0.5601 -0.2144
vn -0.8002 -0.5601 0.2144
vn -0.5858 -0.5601 0.5858
vn -0.2144 -0.5601 0.8002
vn 0.2144 -0.5601 0.8002
vn 0.5858 -0.5601 0.5858
vn 0.9659 -0.0000 0.2588
vn 0.9659 -0.0000 -0.2588
vn -0.0000 1.0000 -0.0000
vn 0.7071 -0.0000 -0.7071
vn 0.2588 -0.0000 -0.9659
vn -0.2588 -0.0000 -0.9659
vn -0.7071 -0.0000 -0.7071
vn -0.9659 -0.0000 -0.2588
vn -0.9659 -0.0000 0.2588
vn -0.7071 -0.0000 0.7071
vn -0.2588 -0.0000 0.9659
vn 0.2588 -0.0000 0.9659
vn 0.7071 -0.0000 0.7071
s 0
g BottleFamily_Body.001_MAT_GlassGreen
usemtl MAT_GlassGreen
f 2//1 13//1 1//1
f 3//2 14//2 2//2
f 4//3 15//3 3//3
f 5//4 16//4 4//4
f 6//5 17//5 5//5
f 7//6 18//6 6//6
f 8//7 19//7 7//7
f 9//8 20//8 8//8
f 10//9 21//9 9//9
f 11//10 22//10 10//10
f 12//11 23//11 11//11
f 1//12 24//12 12//12
f 14//13 25//13 13//13
f 15//14 26//14 14//14
f 16//15 27//15 15//15
f 17//16 28//16 16//16
f 18//17 29//17 17//17
f 19//18 30//18 18//18
f 20//19 31//19 19//19
f 21//20 32//20 20//20
f 22//21 33//21 21//21
f 23//22 34//22 22//22
f 24//23 35//23 23//23
f 13//24 36//24 24//24
f 26//25 37//25 25//25
f 27//26 38//26 26//26
f 27//27 40//27 39//27
f 29//28 40//28 28//28
f 30//29 41//29 29//29
f 30//30 43//30 42//30
f 32//31 43//31 31//31
f 33//32 44//32 32//32
f 33//33 46//33 45//33
f 35//34 46//34 34//34
f 36//35 47//35 35//35
f 36//36 37//36 48//36
f 38//37 49//37 37//37
f 38//38 51//38 50//38
f 40//39 51//39 39//39
f 41//40 52//40 40//40
f 41//41 54//41 53//41
f 43//42 54//42 42//42
f 44//43 55//43 43//43
f 44//44 57//44 56//44
f 46//45 57//45 45//45
f 47//46 58//46 46//46
f 47//47 60//47 59//47
f 37//48 60//48 48//48
f 63//49 62//49 61//49
f 65//50 64//50 63//50
f 65//51 68//51 66//51
f 69//52 68//52 67//52
f 71//53 70//53 69//53
f 71//54 74//54 72//54
f 75//55 74//55 73//55
f 77//56 76//56 75//56
f 77//57 80//57 78//57
f 81//58 80//58 79//58
f 83//59 82//59 81//59
f 84//60 61//60 62//60
f 86//61 87//61 85//61
f 90//62 87//62 88//62
f 92//63 89//63 90//63
f 92//64 93//64 91//64
f 96//65 93//65 94//65
f 98//66 95//66 96//66
f 98//67 99//67 97//67
f 102//68 99//68 100//68
f 104//69 101//69 102//69
f 104//70 105//70 103//70
f 108//71 105//71 106//71
f 107//72 86//72 85//72
f 62//73 12//73 84//73
f 64//74 1//74 62//74
f 77//75 69//75 61//75
f 66//76 2//76 64//76
f 68//77 3//77 66//77
f 70//78 4//78 68//78
f 72//79 5//79 70//79
f 74//80 6//80 72//80
f 76//81 7//81 74//81
f 78//82 8//82 76//82
f 80//83 9//83 78//83
f 82//84 10//84 80//84
f 84//85 11//85 82//85
f 49//86 108//86 60//86
f 50//87 86//87 49//87
f 91//88 99//88 107//88
f 51//89 88//89 50//89
f 52//90 90//90 51//90
f 53//91 92//91 52//91
f 54//92 94//92 53//92
f 55//93 96//93 54//93
f 56//94 98//94 55//94
f 57//95 100//95 56//95
f 58//96 102//96 57//96
f 59//97 104//97 58//97
f 60//98 106//98 59//98
f 2//1 14//1 13//1
f 3//2 15//2 14//2
f 4//3 16//3 15//3
f 5//4 17//4 16//4
f 6//5 18//5 17//5
f 7//6 19//6 18//6
f 8//7 20//7 19//7
f 9//8 21//8 20//8
f 10//9 22//9 21//9
f 11//10 23//10 22//10
f 12//11 24//11 23//11
f 1//12 13//12 24//12
f 14//13 26//13 25//13
f 15//14 27//14 26//14
f 16//15 28//15 27//15
f 17//16 29//16 28//16
f 18//17 30//17 29//17
f 19//18 31//18 30//18
f 20//19 32//19 31//19
f 21//20 33//20 32//20
f 22//21 34//21 33//21
f 23//22 35//22 34//22
f 24//23 36//23 35//23
f 13//24 25//24 36//24
f 26//25 38//25 37//25
f 27//26 39//26 38//26
f 27//27 28//27 40//27
f 29//28 41//28 40//28
f 30//29 42//29 41//29
f 30//30 31//30 43//30
f 32//31 44//31 43//31
f 33//32 45//32 44//32
f 33//33 34//33 46//33
f 35//34 47//34 46//34
f 36//35 48//35 47//35
f 36//36 25//36 37//36
f 38//37 50//37 49//37
f 38//38 39//38 51//38
f 40//39 52//39 51//39
f 41//40 53//40 52//40
f 41//41 42//41 54//41
f 43//42 55//42 54//42
f 44//43 56//43 55//43
f 44//44 45//44 57//44
f 46//45 58//45 57//45
f 47//46 59//46 58//46
f 47//47 48//47 60//47
f 37//48 49//48 60//48
f 63//49 64//49 62//49
f 65//50 66//50 64//50
f 65//51 67//51 68//51
f 69//52 70//52 68//52
f 71//53 72//53 70//53
f 71//54 73//54 74//54
f 75//55 76//55 74//55
f 77//56 78//56 76//56
f 77//57 79//57 80//57
f 81//58 82//58 80//58
f 83//59 84//59 82//59
f 84//60 83//60 61//60
f 86//61 88//61 87//61
f 90//62 89//62 87//62
f 92//63 91//63 89//63
f 92//64 94//64 93//64
f 96//65 95//65 93//65
f 98//66 97//66 95//66
f 98//67 100//67 99//67
f 102//68 101//68 99//68
f 104//69 103//69 101//69
f 104//70 106//70 105//70
f 108//71 107//71 105//71
f 107//72 108//72 86//72
f 62//73 1//73 12//73
f 64//74 2//74 1//74
f 61//75 83//75 81//75
f 81//75 79//75 77//75
f 77//75 75//75 73//75
f 73//75 71//75 69//75
f 69//75 67//75 65//75
f 65//75 63//75 61//75
f 61//75 81//75 77//75
f 77//75 73//75 69//75
f 69//75 65//75 61//75
f 66//76 3//76 2//76
f 68//77 4//77 3//77
f 70//78 5//78 4//78
f 72//79 6//79 5//79
f 74//80 7//80 6//80
f 76//81 8//81 7//81
f 78//82 9//82 8//82
f 80//83 10//83 9//83
f 82//84 11//84 10//84
f 84//85 12//85 11//85
f 49//86 86//86 108//86
f 50//87 88//87 86//87
f 107//88 85//88 87//88
f 87//88 89//88 91//88
f 91//88 93//88 95//88
f 95//88 97//88 99//88
f 99//88 101//88 103//88
f 103//88 105//88 107//88
f 107//88 87//88 91//88
f 91//88 95//88 99//88
f 99//88 103//88 107//88
f 51//89 90//89 88//89
f 52//90 92//90 90//90
f 53//91 94//91 92//91
f 54//92 96//92 94//92
f 55//93 98//93 96//93
f 56//94 100//94 98//94
f 57//95 102//95 100//95
f 58//96 104//96 102//96
f 59//97 106//97 104//97
f 60//98 108//98 106//98
g BottleFamily_Collar.001_Mesh
v 0.425000 1.380000 0.000000
v 0.370000 1.435000 0.000000
v 0.315000 1.380000 0.000000
v 0.370000 1.325000 0.000000
v 0.368061 1.380000 -0.212500
v 0.320429 1.435000 -0.185000
v 0.272798 1.380000 -0.157500
v 0.320429 1.325000 -0.185000
v 0.212500 1.380000 -0.368061
v 0.185000 1.435000 -0.320429
v 0.157500 1.380000 -0.272798
v 0.185000 1.325000 -0.320429
v 0.000000 1.380000 -0.425000
v 0.000000 1.435000 -0.370000
v 0.000000 1.380000 -0.315000
v 0.000000 1.325000 -0.370000
v -0.212500 1.380000 -0.368061
v -0.185000 1.435000 -0.320429
v -0.157500 1.380000 -0.272798
v -0.185000 1.325000 -0.320429
v -0.368061 1.380000 -0.212500
v -0.320429 1.435000 -0.185000
v -0.272798 1.380000 -0.157500
v -0.320429 1.325000 -0.185000
v -0.425000 1.380000 -0.000000
v -0.370000 1.435000 -0.000000
v -0.315000 1.380000 -0.000000
v -0.370000 1.325000 -0.000000
v -0.368061 1.380000 0.212500
v -0.320429 1.435000 0.185000
v -0.272798 1.380000 0.157500
v -0.320429 1.325000 0.185000
v -0.212500 1.380000 0.368061
v -0.185000 1.435000 0.320429
v -0.157500 1.380000 0.272798
v -0.185000 1.325000 0.320429
v 0.000000 1.380000 0.425000
v 0.000000 1.435000 0.370000
v 0.000000 1.380000 0.315000
v 0.000000 1.325000 0.370000
v 0.212500 1.380000 0.368061
v 0.185000 1.435000 0.320429
v 0.157500 1.380000 0.272798
v 0.185000 1.325000 0.320429
v 0.368061 1.380000 0.212500
v 0.320429 1.435000 0.185000
v 0.272798 1.380000 0.157500
v 0.320429 1.325000 0.185000
vn 0.6947 0.6947 -0.1862
vn -0.6947 0.6947 0.1862
vn -0.6947 -0.6947 0.1862
vn 0.6947 -0.6947 -0.1862
vn 0.5086 0.6947 -0.5086
vn -0.5086 0.6947 0.5086
vn -0.5086 -0.6947 0.5086
vn 0.5086 -0.6947 -0.5086
vn 0.1862 0.6947 -0.6947
vn -0.1862 0.6947 0.6947
vn -0.1862 -0.6947 0.6947
vn 0.1862 -0.6947 -0.6947
vn -0.1862 0.6947 -0.6947
vn 0.1862 0.6947 0.6947
vn 0.1862 -0.6947 0.6947
vn -0.1862 -0.6947 -0.6947
vn -0.5086 0.6947 -0.5086
vn 0.5086 0.6947 0.5086
vn 0.5086 -0.6947 0.5086
vn -0.5086 -0.6947 -0.5086
vn -0.6947 0.6947 -0.1862
vn 0.6947 0.6947 0.1862
vn 0.6947 -0.6947 0.1862
vn -0.6947 -0.6947 -0.1862
vt 0.500000 0.500000
vt 0.583333 0.750000
vt 0.500000 0.750000
vt 0.500000 1.000000
vt 0.500000 0.000000
vt 0.583333 0.250000
vt 0.500000 0.250000
vt 0.583333 0.500000
vt 0.666667 0.750000
vt 0.583333 1.000000
vt 0.666667 0.000000
vt 0.583333 0.000000
vt 0.666667 0.250000
vt 0.750000 0.500000
vt 0.666667 0.500000
vt 0.750000 0.750000
vt 0.666667 1.000000
vt 0.750000 0.000000
vt 0.750000 0.250000
vt 0.833333 0.750000
vt 0.750000 1.000000
vt 0.833333 0.250000
vt 0.833333 0.500000
vt 0.916667 0.750000
vt 0.833333 1.000000
vt 0.916667 0.000000
vt 0.833333 0.000000
vt 0.916667 0.250000
vt 1.000000 0.500000
vt 0.916667 0.500000
vt 1.000000 0.750000
vt 0.916667 1.000000
vt 1.000000 0.000000
vt 1.000000 0.250000
vt 0.000000 0.500000
vt 0.083333 0.750000
vt 0.000000 0.750000
vt 0.000000 1.000000
vt 0.083333 0.000000
vt 0.000000 0.250000
vt 0.000000 0.000000
vt 0.083333 0.250000
vt 0.166667 0.500000
vt 0.083333 0.500000
vt 0.166667 0.750000
vt 0.083333 1.000000
vt 0.166667 0.000000
vt 0.250000 0.500000
vt 0.250000 1.000000
vt 0.166667 1.000000
vt 0.250000 0.000000
vt 0.166667 0.250000
vt 0.333333 0.500000
vt 0.250000 0.750000
vt 0.333333 0.750000
vt 0.333333 0.000000
vt 0.250000 0.250000
vt 0.416667 0.500000
vt 0.416667 0.750000
vt 0.333333 1.000000
vt 0.416667 0.000000
vt 0.333333 0.250000
vt 0.416667 0.250000
vt 0.416667 1.000000
vt 1.000000 1.000000
s 0
g BottleFamily_Collar.001_MAT_OldGold
usemtl MAT_OldGold
f 109/1/99 114/2/99 110/3/99
f 114/2/100 111/4/100 110/3/100
f 111/5/101 116/6/101 112/7/101
f 112/7/102 113/8/102 109/1/102
f 113/8/103 118/9/103 114/2/103
f 118/9/104 115/10/104 114/2/104
f 119/11/105 116/6/105 115/12/105
f 120/13/106 113/8/106 116/6/106
f 121/14/107 118/9/107 117/15/107
f 122/16/108 119/17/108 118/9/108
f 123/18/109 120/13/109 119/11/109
f 124/19/110 117/15/110 120/13/110
f 121/14/111 126/20/111 122/16/111
f 126/20/112 123/21/112 122/16/112
f 123/18/113 128/22/113 124/19/113
f 128/22/114 121/14/114 124/19/114
f 125/23/115 130/24/115 126/20/115
f 130/24/116 127/25/116 126/20/116
f 131/26/117 128/22/117 127/27/117
f 132/28/118 125/23/118 128/22/118
f 133/29/119 130/24/119 129/30/119
f 134/31/120 131/32/120 130/24/120
f 135/33/121 132/28/121 131/26/121
f 136/34/122 129/30/122 132/28/122
f 133/35/100 138/36/100 134/37/100
f 138/36/99 135/38/99 134/37/99
f 139/39/102 136/40/102 135/41/102
f 140/42/101 133/35/101 136/40/101
f 141/43/104 138/36/104 137/44/104
f 142/45/103 139/46/103 138/36/103
f 143/47/106 140/42/106 139/39/106
f 140/42/105 141/43/105 137/44/105
f 145/48/108 142/45/108 141/43/108
f 142/45/107 147/49/107 143/50/107
f 147/51/110 144/52/110 143/47/110
f 144/52/109 145/48/109 141/43/109
f 149/53/112 146/54/112 145/48/112
f 150/55/111 147/49/111 146/54/111
f 151/56/114 148/57/114 147/51/114
f 148/57/113 149/53/113 145/48/113
f 153/58/116 150/55/116 149/53/116
f 154/59/115 151/60/115 150/55/115
f 155/61/118 152/62/118 151/56/118
f 156/63/117 149/53/117 152/62/117
f 109/1/120 154/59/120 153/58/120
f 110/3/119 155/64/119 154/59/119
f 111/5/122 156/63/122 155/61/122
f 112/7/121 153/58/121 156/63/121
f 109/1/99 113/8/99 114/2/99
f 114/2/100 115/10/100 111/4/100
f 111/5/101 115/12/101 116/6/101
f 112/7/102 116/6/102 113/8/102
f 113/8/103 117/15/103 118/9/103
f 118/9/104 119/17/104 115/10/104
f 119/11/105 120/13/105 116/6/105
f 120/13/106 117/15/106 113/8/106
f 121/14/107 122/16/107 118/9/107
f 122/16/108 123/21/108 119/17/108
f 123/18/109 124/19/109 120/13/109
f 124/19/110 121/14/110 117/15/110
f 121/14/111 125/23/111 126/20/111
f 126/20/112 127/25/112 123/21/112
f 123/18/113 127/27/113 128/22/113
f 128/22/114 125/23/114 121/14/114
f 125/23/115 129/30/115 130/24/115
f 130/24/116 131/32/116 127/25/116
f 131/26/117 132/28/117 128/22/117
f 132/28/118 129/30/118 125/23/118
f 133/29/119 134/31/119 130/24/119
f 134/31/120 135/65/120 131/32/120
f 135/33/121 136/34/121 132/28/121
f 136/34/122 133/29/122 129/30/122
f 133/35/100 137/44/100 138/36/100
f 138/36/99 139/46/99 135/38/99
f 139/39/102 140/42/102 136/40/102
f 140/42/101 137/44/101 133/35/101
f 141/43/104 142/45/104 138/36/104
f 142/45/103 143/50/103 139/46/103
f 143/47/106 144/52/106 140/42/106
f 140/42/105 144/52/105 141/43/105
f 145/48/108 146/54/108 142/45/108
f 142/45/107 146/54/107 147/49/107
f 147/51/110 148/57/110 144/52/110
f 144/52/109 148/57/109 145/48/109
f 149/53/112 150/55/112 146/54/112
f 150/55/111 151/60/111 147/49/111
f 151/56/114 152/62/114 148/57/114
f 148/57/113 152/62/113 149/53/113
f 153/58/116 154/59/116 150/55/116
f 154/59/115 155/64/115 151/60/115
f 155/61/118 156/63/118 152/62/118
f 156/63/117 153/58/117 149/53/117
f 109/1/120 110/3/120 154/59/120
f 110/3/119 111/4/119 155/64/119
f 111/5/122 112/7/122 156/63/122
f 112/7/121 109/1/121 153/58/121
g BottleFamily_Cork.001_Mesh
v 0.000000 1.390000 -0.257942
v -0.038042 1.430000 -0.287639
v 0.038042 1.430000 -0.287639
v 0.000000 1.770000 -0.257942
v 0.038042 1.730000 -0.287639
v -0.038042 1.730000 -0.287639
v 0.151614 1.390000 -0.208679
v 0.138293 1.430000 -0.255066
v 0.199847 1.430000 -0.210344
v 0.151614 1.770000 -0.208679
v 0.199847 1.730000 -0.210344
v 0.138293 1.730000 -0.255066
v 0.245317 1.390000 -0.079708
v 0.261806 1.430000 -0.125066
v 0.285317 1.430000 -0.052705
v 0.245317 1.770000 -0.079708
v 0.285317 1.730000 -0.052705
v 0.261806 1.730000 -0.125066
v 0.245317 1.390000 0.079708
v 0.285317 1.430000 0.052705
v 0.261806 1.430000 0.125066
v 0.245317 1.770000 0.079708
v 0.261806 1.730000 0.125066
v 0.285317 1.730000 0.052705
v 0.151614 1.390000 0.208679
v 0.199847 1.430000 0.210344
v 0.138293 1.430000 0.255066
v 0.151614 1.770000 0.208679
v 0.138293 1.730000 0.255066
v 0.199847 1.730000 0.210344
v 0.000000 1.390000 0.257942
v 0.038042 1.430000 0.287639
v -0.038042 1.430000 0.287639
v 0.000000 1.770000 0.257942
v -0.038042 1.730000 0.287639
v 0.038042 1.730000 0.287639
v -0.151614 1.390000 0.208679
v -0.138293 1.430000 0.255066
v -0.199847 1.430000 0.210344
v -0.151614 1.770000 0.208679
v -0.199847 1.730000 0.210344
v -0.138293 1.730000 0.255066
v -0.245317 1.390000 0.079708
v -0.261806 1.430000 0.125066
v -0.285317 1.430000 0.052705
v -0.245317 1.770000 0.079708
v -0.285317 1.730000 0.052705
v -0.261806 1.730000 0.125066
v -0.245317 1.390000 -0.079708
v -0.285317 1.430000 -0.052705
v -0.261806 1.430000 -0.125066
v -0.245317 1.770000 -0.079708
v -0.261806 1.730000 -0.125066
v -0.285317 1.730000 -0.052705
v -0.151614 1.390000 -0.208679
v -0.199847 1.430000 -0.210344
v -0.138293 1.430000 -0.255066
v -0.151614 1.770000 -0.208679
v -0.138293 1.730000 -0.255066
v -0.199847 1.730000 -0.210344
vn -0.0000 -0.5961 -0.8029
vn -0.0000 0.5961 -0.8029
vn 0.4719 -0.5961 -0.6496
vn 0.4719 0.5961 -0.6496
vn 0.7636 -0.5961 -0.2481
vn 0.7636 0.5961 -0.2481
vn 0.7636 -0.5961 0.2481
vn 0.7636 0.5961 0.2481
vn 0.4719 -0.5961 0.6496
vn 0.4719 0.5961 0.6496
vn -0.0000 -0.5961 0.8029
vn -0.0000 0.5961 0.8029
vn -0.4719 -0.5961 0.6496
vn -0.4719 0.5961 0.6496
vn -0.7636 -0.5961 0.2481
vn -0.7636 0.5961 0.2481
vn -0.7636 -0.5961 -0.2481
vn -0.7636 0.5961 -0.2481
vn -0.4719 -0.5961 -0.6496
vn -0.4719 0.5961 -0.6496
vn 0.2185 -0.7071 -0.6725
vn 0.2185 0.7071 -0.6725
vn -0.0000 -0.0000 -1.0000
vn 0.5878 -0.0000 -0.8090
vn 0.5721 -0.7071 -0.4156
vn 0.5721 0.7071 -0.4156
vn 0.9511 -0.0000 -0.3090
vn 0.7071 -0.7071 -0.0000
vn 0.7071 0.7071 -0.0000
vn 0.9511 -0.0000 0.3090
vn 0.5721 -0.7071 0.4156
vn 0.5721 0.7071 0.4156
vn 0.5878 -0.0000 0.8090
vn 0.2185 -0.7071 0.6725
vn 0.2185 0.7071 0.6725
vn -0.0000 -0.0000 1.0000
vn -0.2185 -0.7071 0.6725
vn -0.2185 0.7071 0.6725
vn -0.5878 -0.0000 0.8090
vn -0.5721 -0.7071 0.4156
vn -0.5721 0.7071 0.4156
vn -0.9511 -0.0000 0.3090
vn -0.7071 -0.7071 -0.0000
vn -0.7071 0.7071 -0.0000
vn -0.9511 -0.0000 -0.3090
vn -0.5721 -0.7071 -0.4156
vn -0.5721 0.7071 -0.4156
vn -0.5878 -0.0000 -0.8090
vn -0.2185 -0.7071 -0.6725
vn -0.2185 0.7071 -0.6725
vn -0.0000 -1.0000 -0.0000
vn 0.3090 -0.0000 -0.9511
vn -0.3090 -0.0000 -0.9511
vn -0.0000 1.0000 -0.0000
vn 0.8090 -0.0000 -0.5878
vn 1.0000 -0.0000 -0.0000
vn 0.8090 -0.0000 0.5878
vn 0.3090 -0.0000 0.9511
vn -0.3090 -0.0000 0.9511
vn -0.8090 -0.0000 0.5878
vn -1.0000 -0.0000 -0.0000
vn -0.8090 -0.0000 -0.5878
vt 0.750000 0.456353
vt 0.719566 0.480111
vt 0.780434 0.480111
vt 0.250000 0.456353
vt 0.280434 0.480111
vt 0.219566 0.480111
vt 0.871291 0.416943
vt 0.860635 0.454053
vt 0.909878 0.418276
vt 0.371291 0.416943
vt 0.409878 0.418276
vt 0.360635 0.454053
vt 0.946254 0.313767
vt 0.959444 0.350053
vt 0.978254 0.292164
vt 0.446254 0.313767
vt 0.478254 0.292164
vt 0.459444 0.350053
vt 0.946254 0.186233
vt 0.978254 0.207836
vt 0.959444 0.149947
vt 0.446254 0.186233
vt 0.459444 0.149947
vt 0.478254 0.207836
vt 0.871291 0.083057
vt 0.909878 0.081724
vt 0.860635 0.045947
vt 0.371291 0.083057
vt 0.360635 0.045947
vt 0.409878 0.081724
vt 0.750000 0.043647
vt 0.780434 0.019889
vt 0.719566 0.019889
vt 0.250000 0.043647
vt 0.219566 0.019889
vt 0.280434 0.019889
vt 0.628709 0.083057
vt 0.639365 0.045947
vt 0.590122 0.081724
vt 0.128709 0.083057
vt 0.090122 0.081724
vt 0.139365 0.045947
vt 0.553746 0.186233
vt 0.540556 0.149947
vt 0.521746 0.207836
vt 0.053746 0.186233
vt 0.021746 0.207836
vt 0.040556 0.149947
vt 0.553746 0.313767
vt 0.521746 0.292164
vt 0.540556 0.350053
vt 0.053746 0.313767
vt 0.040556 0.350053
vt 0.021746 0.292164
vt 0.628709 0.416943
vt 0.590122 0.418276
vt 0.639365 0.454053
vt 0.128709 0.416943
vt 0.139365 0.454053
vt 0.090122 0.418276
vt 0.021574 0.947368
vt -0.000000 0.552632
vt 0.021574 0.552632
vt 0.878426 0.552632
vt 0.921574 0.947368
vt 0.878426 0.947369
vt 0.778426 0.552632
vt 0.821574 0.947368
vt 0.778426 0.947369
vt 0.678426 0.552632
vt 0.721574 0.947368
vt 0.678426 0.947368
vt 0.578426 0.552632
vt 0.621574 0.947369
vt 0.578426 0.947368
vt 0.478426 0.552632
vt 0.521574 0.947368
vt 0.478426 0.947368
vt 0.378426 0.552632
vt 0.421574 0.947368
vt 0.378426 0.947369
vt 0.278426 0.552632
vt 0.321574 0.947368
vt 0.278426 0.947369
vt 0.178426 0.552632
vt 0.221574 0.947368
vt 0.178426 0.947368
vt 0.078426 0.552632
vt 0.121574 0.947369
vt 0.078426 0.947368
vt 0.978426 0.947368
vt 0.921574 0.552632
vt 0.978426 0.552632
vt 0.821574 0.552632
vt 0.721574 0.552632
vt 0.621574 0.552632
vt 0.521574 0.552632
vt 0.421574 0.552632
vt 0.321574 0.552632
vt 0.221574 0.552632
vt 0.121574 0.552632
vt -0.000000 0.947368
s 0
g BottleFamily_Cork.001_MAT_Wood
usemtl MAT_Wood
f 157/66/123 158/67/123 159/68/123
f 160/69/124 161/70/124 162/71/124
f 163/72/125 164/73/125 165/74/125
f 166/75/126 167/76/126 168/77/126
f 169/78/127 170/79/127 171/80/127
f 172/81/128 173/82/128 174/83/128
f 175/84/129 176/85/129 177/86/129
f 178/87/130 179/88/130 180/89/130
f 181/90/131 182/91/131 183/92/131
f 184/93/132 185/94/132 186/95/132
f 187/96/133 188/97/133 189/98/133
f 190/99/134 191/100/134 192/101/134
f 193/102/135 194/103/135 195/104/135
f 196/105/136 197/106/136 198/107/136
f 199/108/137 200/109/137 201/110/137
f 202/111/138 203/112/138 204/113/138
f 205/114/139 206/115/139 207/116/139
f 208/117/140 209/118/140 210/119/140
f 211/120/141 212/121/141 213/122/141
f 214/123/142 215/124/142 216/125/142
f 164/73/143 157/66/143 159/68/143
f 168/77/144 160/69/144 166/75/144
f 162/126/145 159/127/145 158/128/145
f 165/129/146 168/130/146 167/131/146
f 170/79/147 163/72/147 165/74/147
f 174/83/148 166/75/148 172/81/148
f 171/132/149 174/133/149 173/134/149
f 176/85/150 169/78/150 171/80/150
f 173/82/151 178/87/151 180/89/151
f 177/135/152 180/136/152 179/137/152
f 177/86/153 181/90/153 175/84/153
f 179/88/154 184/93/154 186/95/154
f 183/138/155 186/139/155 185/140/155
f 183/92/156 187/96/156 181/90/156
f 185/94/157 190/99/157 192/101/157
f 189/141/158 192/142/158 191/143/158
f 194/103/159 187/96/159 189/98/159
f 198/107/160 190/99/160 196/105/160
f 195/144/161 198/145/161 197/146/161
f 200/109/162 193/102/162 195/104/162
f 204/113/163 196/105/163 202/111/163
f 201/147/164 204/148/164 203/149/164
f 206/115/165 199/108/165 201/110/165
f 203/112/166 208/117/166 210/119/166
f 207/150/167 210/151/167 209/152/167
f 207/116/168 211/120/168 205/114/168
f 209/118/169 214/123/169 216/125/169
f 213/153/170 216/154/170 215/155/170
f 213/122/171 157/66/171 211/120/171
f 215/124/172 160/69/172 162/71/172
f 175/84/173 199/108/173 211/120/173
f 161/156/174 164/157/174 159/158/174
f 215/155/175 158/128/175 213/153/175
f 208/117/176 184/93/176 172/81/176
f 167/131/177 170/159/177 165/129/177
f 173/134/178 176/160/178 171/132/178
f 179/137/179 182/161/179 177/135/179
f 185/140/180 188/162/180 183/138/180
f 191/143/181 194/163/181 189/141/181
f 197/146/182 200/164/182 195/144/182
f 203/149/183 206/165/183 201/147/183
f 209/152/184 212/166/184 207/150/184
f 164/73/143 163/72/143 157/66/143
f 168/77/144 161/70/144 160/69/144
f 162/126/145 161/167/145 159/127/145
f 165/129/146 164/157/146 168/130/146
f 170/79/147 169/78/147 163/72/147
f 174/83/148 167/76/148 166/75/148
f 171/132/149 170/159/149 174/133/149
f 176/85/150 175/84/150 169/78/150
f 173/82/151 172/81/151 178/87/151
f 177/135/152 176/160/152 180/136/152
f 177/86/153 182/91/153 181/90/153
f 179/88/154 178/87/154 184/93/154
f 183/138/155 182/161/155 186/139/155
f 183/92/156 188/97/156 187/96/156
f 185/94/157 184/93/157 190/99/157
f 189/141/158 188/162/158 192/142/158
f 194/103/159 193/102/159 187/96/159
f 198/107/160 191/100/160 190/99/160
f 195/144/161 194/163/161 198/145/161
f 200/109/162 199/108/162 193/102/162
f 204/113/163 197/106/163 196/105/163
f 201/147/164 200/164/164 204/148/164
f 206/115/165 205/114/165 199/108/165
f 203/112/166 202/111/166 208/117/166
f 207/150/167 206/165/167 210/151/167
f 207/116/168 212/121/168 211/120/168
f 209/118/169 208/117/169 214/123/169
f 213/153/170 212/166/170 216/154/170
f 213/122/171 158/67/171 157/66/171
f 215/124/172 214/123/172 160/69/172
f 211/120/173 157/66/173 163/72/173
f 163/72/173 169/78/173 175/84/173
f 175/84/173 181/90/173 187/96/173
f 187/96/173 193/102/173 199/108/173
f 199/108/173 205/114/173 211/120/173
f 211/120/173 163/72/173 175/84/173
f 175/84/173 187/96/173 199/108/173
f 161/156/174 168/130/174 164/157/174
f 215/155/175 162/126/175 158/128/175
f 172/81/176 166/75/176 160/69/176
f 160/69/176 214/123/176 208/117/176
f 208/117/176 202/111/176 196/105/176
f 196/105/176 190/99/176 184/93/176
f 184/93/176 178/87/176 172/81/176
f 172/81/176 160/69/176 208/117/176
f 208/117/176 196/105/176 184/93/176
f 167/131/177 174/133/177 170/159/177
f 173/134/178 180/136/178 176/160/178
f 179/137/179 186/139/179 182/161/179
f 185/140/180 192/142/180 188/162/180
f 191/143/181 198/145/181 194/163/181
f 197/146/182 204/148/182 200/164/182
f 203/149/183 210/151/183 206/165/183
f 209/152/184 216/154/184 212/166/184
g BottleFamily_Liquid.001_Mesh
v 0.000000 -1.075000 -0.579295
v 0.000000 -1.055000 -0.600000
v -0.000000 0.175000 -0.579295
v 0.000000 0.155000 -0.600000
v 0.289647 -1.075000 -0.501684
v 0.300000 -1.055000 -0.519615
v 0.289647 0.175000 -0.501684
v 0.300000 0.155000 -0.519615
v 0.501684 -1.075000 -0.289647
v 0.519615 -1.055000 -0.300000
v 0.501684 0.175000 -0.289647
v 0.519615 0.155000 -0.300000
v 0.579295 -1.075000 0.000000
v 0.600000 -1.055000 0.000000
v 0.579295 0.175000 -0.000000
v 0.600000 0.155000 0.000000
v 0.501684 -1.075000 0.289647
v 0.519615 -1.055000 0.300000
v 0.501684 0.175000 0.289647
v 0.519615 0.155000 0.300000
v 0.289647 -1.075000 0.501684
v 0.300000 -1.055000 0.519615
v 0.289647 0.175000 0.501684
v 0.300000 0.155000 0.519615
v -0.000000 -1.075000 0.579295
v 0.000000 -1.055000 0.600000
v 0.000000 0.175000 0.579295
v 0.000000 0.155000 0.600000
v -0.289647 -1.075000 0.501684
v -0.300000 -1.055000 0.519615
v -0.289647 0.175000 0.501684
v -0.300000 0.155000 0.519615
v -0.501684 -1.075000 0.289647
v -0.519615 -1.055000 0.300000
v -0.501684 0.175000 0.289647
v -0.519615 0.155000 0.300000
v -0.579295 -1.075000 -0.000000
v -0.600000 -1.055000 0.000000
v -0.579295 0.175000 0.000000
v -0.600000 0.155000 0.000000
v -0.501684 -1.075000 -0.289647
v -0.519615 -1.055000 -0.300000
v -0.501684 0.175000 -0.289647
v -0.519615 0.155000 -0.300000
v -0.289647 -1.075000 -0.501684
v -0.300000 -1.055000 -0.519615
v -0.289647 0.175000 -0.501684
v -0.300000 0.155000 -0.519615
vn 0.1830 -0.7071 -0.6830
vn 0.1830 0.7071 -0.6830
vn 0.5000 -0.7071 -0.5000
vn 0.5000 0.7071 -0.5000
vn 0.6830 -0.7071 -0.1830
vn 0.6830 0.7071 -0.1830
vn 0.6830 -0.7071 0.1830
vn 0.6830 0.7071 0.1830
vn 0.5000 -0.7071 0.5000
vn 0.5000 0.7071 0.5000
vn 0.1830 -0.7071 0.6830
vn 0.1830 0.7071 0.6830
vn -0.1830 -0.7071 0.6830
vn -0.1830 0.7071 0.6830
vn -0.5000 -0.7071 0.5000
vn -0.5000 0.7071 0.5000
vn -0.6830 -0.7071 0.1830
vn -0.6830 0.7071 0.1830
vn -0.6830 -0.7071 -0.1830
vn -0.6830 0.7071 -0.1830
vn -0.5000 -0.7071 -0.5000
vn -0.5000 0.7071 -0.5000
vn -0.1830 -0.7071 -0.6830
vn -0.1830 0.7071 -0.6830
vn -0.0000 -1.0000 -0.0000
vn 0.2588 -0.0000 -0.9659
vn -0.2588 -0.0000 -0.9659
vn -0.0000 1.0000 -0.0000
vn 0.7071 -0.0000 -0.7071
vn 0.9659 -0.0000 -0.2588
vn 0.9659 -0.0000 0.2588
vn 0.7071 -0.0000 0.7071
vn 0.2588 -0.0000 0.9659
vn -0.2588 -0.0000 0.9659
vn -0.7071 -0.0000 0.7071
vn -0.9659 -0.0000 0.2588
vn -0.9659 -0.0000 -0.2588
vn -0.7071 -0.0000 -0.7071
vt 0.870000 0.457846
vt 0.750000 0.481718
vt 0.750000 0.490000
vt 0.250000 0.490000
vt 0.365859 0.450674
vt 0.370000 0.457846
vt 0.950674 0.365859
vt 0.865859 0.450674
vt 0.457846 0.370000
vt 0.450673 0.365859
vt 0.990000 0.250000
vt 0.957846 0.370000
vt 0.481718 0.250000
vt 0.490000 0.250000
vt 0.957846 0.130000
vt 0.981718 0.250000
vt 0.450673 0.134141
vt 0.457846 0.130000
vt 0.865859 0.049327
vt 0.950673 0.134141
vt 0.370000 0.042154
vt 0.365859 0.049327
vt 0.750000 0.010000
vt 0.870000 0.042154
vt 0.250000 0.018282
vt 0.250000 0.010000
vt 0.630000 0.042154
vt 0.750000 0.018282
vt 0.134141 0.049327
vt 0.130000 0.042154
vt 0.549327 0.134141
vt 0.634141 0.049327
vt 0.042154 0.130000
vt 0.049327 0.134141
vt 0.510000 0.250000
vt 0.542154 0.130000
vt 0.018282 0.250000
vt 0.010000 0.250000
vt 0.542154 0.370000
vt 0.518282 0.250000
vt 0.049327 0.365859
vt 0.042154 0.370000
vt 0.634141 0.450673
vt 0.549327 0.365859
vt 0.130000 0.457846
vt 0.134141 0.450674
vt 0.630000 0.457846
vt 0.250000 0.481718
vt 1.000000 0.992000
vt 0.916667 0.508000
vt 1.000000 0.508000
vt 0.083333 0.992000
vt 0.000000 0.508000
vt 0.083333 0.508000
vt 0.916667 0.992000
vt 0.833333 0.508000
vt 0.833333 0.992000
vt 0.750000 0.508000
vt 0.750000 0.992000
vt 0.666667 0.508000
vt 0.666667 0.992000
vt 0.583333 0.508000
vt 0.583333 0.992000
vt 0.500000 0.508000
vt 0.500000 0.992000
vt 0.416667 0.508000
vt 0.416667 0.992000
vt 0.333333 0.508000
vt 0.333333 0.992000
vt 0.250000 0.508000
vt 0.250000 0.992000
vt 0.166667 0.508000
vt 0.166667 0.992000
vt 0.000000 0.992000
s 0
g BottleFamily_Liquid.001_MAT_LiquidRed
usemtl MAT_LiquidRed
f 222/168/185 217/169/185 218/170/185
f 220/171/186 223/172/186 224/173/186
f 222/168/187 225/174/187 221/175/187
f 228/176/188 223/172/188 227/177/188
f 230/178/189 225/174/189 226/179/189
f 228/176/190 231/180/190 232/181/190
f 234/182/191 229/183/191 230/178/191
f 232/181/192 235/184/192 236/185/192
f 234/182/193 237/186/193 233/187/193
f 240/188/194 235/184/194 239/189/194
f 242/190/195 237/186/195 238/191/195
f 240/188/196 243/192/196 244/193/196
f 246/194/197 241/195/197 242/190/197
f 244/193/198 247/196/198 248/197/198
f 246/194/199 249/198/199 245/199/199
f 252/200/200 247/196/200 251/201/200
f 254/202/201 249/198/201 250/203/201
f 252/200/202 255/204/202 256/205/202
f 258/206/203 253/207/203 254/202/203
f 256/205/204 259/208/204 260/209/204
f 258/206/205 261/210/205 257/211/205
f 264/212/206 259/208/206 263/213/206
f 218/170/207 261/210/207 262/214/207
f 264/212/208 219/215/208 220/171/208
f 229/183/209 245/199/209 261/210/209
f 220/216/210 222/217/210 218/218/210
f 264/219/211 218/220/211 262/221/211
f 259/208/212 243/192/212 227/177/212
f 224/222/213 226/223/213 222/217/213
f 228/224/214 230/225/214 226/223/214
f 232/226/215 234/227/215 230/225/215
f 236/228/216 238/229/216 234/227/216
f 240/230/217 242/231/217 238/229/217
f 244/232/218 246/233/218 242/231/218
f 248/234/219 250/235/219 246/233/219
f 252/236/220 254/237/220 250/235/220
f 256/238/221 258/239/221 254/237/221
f 260/240/222 262/221/222 258/239/222
f 222/168/185 221/175/185 217/169/185
f 220/171/186 219/215/186 223/172/186
f 222/168/187 226/179/187 225/174/187
f 228/176/188 224/173/188 223/172/188
f 230/178/189 229/183/189 225/174/189
f 228/176/190 227/177/190 231/180/190
f 234/182/191 233/187/191 229/183/191
f 232/181/192 231/180/192 235/184/192
f 234/182/193 238/191/193 237/186/193
f 240/188/194 236/185/194 235/184/194
f 242/190/195 241/195/195 237/186/195
f 240/188/196 239/189/196 243/192/196
f 246/194/197 245/199/197 241/195/197
f 244/193/198 243/192/198 247/196/198
f 246/194/199 250/203/199 249/198/199
f 252/200/200 248/197/200 247/196/200
f 254/202/201 253/207/201 249/198/201
f 252/200/202 251/201/202 255/204/202
f 258/206/203 257/211/203 253/207/203
f 256/205/204 255/204/204 259/208/204
f 258/206/205 262/214/205 261/210/205
f 264/212/206 260/209/206 259/208/206
f 218/170/207 217/169/207 261/210/207
f 264/212/208 263/213/208 219/215/208
f 261/210/209 217/169/209 221/175/209
f 221/175/209 225/174/209 229/183/209
f 229/183/209 233/187/209 237/186/209
f 237/186/209 241/195/209 245/199/209
f 245/199/209 249/198/209 253/207/209
f 253/207/209 257/211/209 261/210/209
f 261/210/209 221/175/209 229/183/209
f 229/183/209 237/186/209 245/199/209
f 245/199/209 253/207/209 261/210/209
f 220/216/210 224/222/210 222/217/210
f 264/219/211 220/241/211 218/220/211
f 227/177/212 223/172/212 219/215/212
f 219/215/212 263/213/212 259/208/212
f 259/208/212 255/204/212 251/201/212
f 251/201/212 247/196/212 243/192/212
f 243/192/212 239/189/212 235/184/212
f 235/184/212 231/180/212 227/177/212
f 227/177/212 219/215/212 259/208/212
f 259/208/212 251/201/212 243/192/212
f 243/192/212 235/184/212 227/177/212
f 224/222/213 228/224/213 226/223/213
f 228/224/214 232/226/214 230/225/214
f 232/226/215 236/228/215 234/227/215
f 236/228/216 240/230/216 238/229/216
f 240/230/217 244/232/217 242/231/217
f 244/232/218 248/234/218 246/233/218
f 248/234/219 252/236/219 250/235/219
f 252/236/220 256/238/220 254/237/220
f 256/238/221 260/240/221 258/239/221
f 260/240/222 264/219/222 262/221/222
g BottleFamily_Seal.001_Mesh
v 0.000000 -0.090000 0.760000
v 0.159192 0.059252 0.802058
v -0.060805 0.059252 0.828051
v -0.196773 0.059252 0.760000
v -0.060805 0.059252 0.691949
v 0.159192 0.059252 0.717942
v 0.060805 0.300748 0.828051
v -0.159192 0.300748 0.802058
v -0.159192 0.300748 0.717942
v 0.060805 0.300748 0.691949
v 0.196773 0.300748 0.760000
v 0.000000 0.450000 0.760000
vn 0.1088 -0.3754 0.9205
vn 0.6840 -0.7295 -0.0000
vn -0.3855 -0.5082 0.7702
vn -0.3855 -0.5082 -0.7702
vn 0.1088 -0.3754 -0.9205
vn 0.9881 -0.1538 -0.0000
vn 0.1171 -0.0590 0.9914
vn -0.4459 -0.0858 0.8910
vn -0.4459 -0.0858 -0.8910
vn 0.1171 -0.0590 -0.9914
vn 0.4459 0.0858 0.8910
vn -0.1171 0.0590 0.9914
vn -0.9881 0.1538 -0.0000
vn -0.1171 0.0590 -0.9914
vn 0.4459 0.0858 -0.8910
vn 0.3855 0.5082 0.7702
vn -0.1088 0.3754 0.9205
vn -0.6840 0.7295 -0.0000
vn -0.1088 0.3754 -0.9205
vn 0.3855 0.5082 -0.7702
vt 0.181819 0.000000
vt 0.272728 0.157461
vt 0.090910 0.157461
vt 0.363637 0.000000
vt 0.454546 0.157461
vt 0.909091 0.000000
vt 1.000000 0.157461
vt 0.818182 0.157461
vt 0.727273 0.000000
vt 0.636364 0.157461
vt 0.545455 0.000000
vt 0.363637 0.314921
vt 0.181819 0.314921
vt 0.909091 0.314921
vt 0.727273 0.314921
vt 0.545455 0.314921
vt 0.000000 0.314921
vt 0.272728 0.472382
vt 0.090910 0.472382
vt 0.818182 0.472382
vt 0.636364 0.472382
vt 0.454546 0.472382
s 0
g BottleFamily_Seal.001_MAT_Ruby
usemtl MAT_Ruby
f 265/242/223 266/243/223 267/244/223
f 266/243/224 265/245/224 270/246/224
f 265/247/225 267/248/225 268/249/225
f 265/250/226 268/249/226 269/251/226
f 265/252/227 269/251/227 270/246/227
f 266/243/228 270/246/228 275/253/228
f 267/244/229 266/243/229 271/254/229
f 268/249/230 267/248/230 272/255/230
f 269/251/231 268/249/231 273/256/231
f 270/246/232 269/251/232 274/257/232
f 266/243/233 275/253/233 271/254/233
f 267/244/234 271/254/234 272/258/234
f 268/249/235 272/255/235 273/256/235
f 269/251/236 273/256/236 274/257/236
f 270/246/237 274/257/237 275/253/237
f 271/254/238 275/253/238 276/259/238
f 272/258/239 271/254/239 276/260/239
f 273/256/240 272/255/240 276/261/240
f 274/257/241 273/256/241 276/262/241
f 275/253/242 274/257/242 276/263/242
