# Blender 5.0.1
# www.blender.org
mtllib burnt_slop.mtl
g Bowl.002_Mesh
v 0.000000 -0.650000 -0.798236
v 0.000000 -0.605668 -0.826061
v -0.000000 -0.150000 -0.528236
v 0.000000 -0.194332 -0.603939
v 0.399118 -0.650000 -0.691293
v 0.413030 -0.605668 -0.715390
v 0.264118 -0.150000 -0.457466
v 0.301970 -0.194332 -0.523027
v 0.691293 -0.650000 -0.399118
v 0.715390 -0.605668 -0.413030
v 0.457466 -0.150000 -0.264118
v 0.523027 -0.194332 -0.301970
v 0.798236 -0.650000 0.000000
v 0.826061 -0.605668 0.000000
v 0.528236 -0.150000 -0.000000
v 0.603939 -0.194332 0.000000
v 0.691293 -0.650000 0.399118
v 0.715390 -0.605668 0.413030
v 0.457466 -0.150000 0.264118
v 0.523027 -0.194332 0.301970
v 0.399118 -0.650000 0.691293
v 0.413030 -0.605668 0.715390
v 0.264118 -0.150000 0.457466
v 0.301970 -0.194332 0.523027
v -0.000000 -0.650000 0.798236
v 0.000000 -0.605668 0.826061
v 0.000000 -0.150000 0.528236
v 0.000000 -0.194332 0.603939
v -0.399118 -0.650000 0.691293
v -0.413030 -0.605668 0.715390
v -0.264118 -0.150000 0.457466
v -0.301970 -0.194332 0.523027
v -0.691293 -0.650000 0.399118
v -0.715390 -0.605668 0.413030
v -0.457466 -0.150000 0.264118
v -0.523027 -0.194332 0.301970
v -0.798236 -0.650000 -0.000000
v -0.826061 -0.605668 0.000000
v -0.528236 -0.150000 0.000000
v -0.603939 -0.194332 0.000000
v -0.691293 -0.650000 -0.399118
v -0.715390 -0.605668 -0.413030
v -0.457466 -0.150000 -0.264118
v -0.523027 -0.194332 -0.301970
v -0.399118 -0.650000 -0.691293
v -0.413030 -0.605668 -0.715390
v -0.264118 -0.150000 -0.457466
v -0.301970 -0.194332 -0.523027
vn 0.2213 -0.5184 -0.8260
vn 0.1342 0.8551 -0.5008
vn 0.6047 -0.5184 -0.6047
vn 0.3666 0.8551 -0.3666
vn 0.8260 -0.5184 -0.2213
vn 0.5008 0.8551 -0.1342
vn 0.8260 -0.5184 0.2213
vn 0.5008 0.8551 0.1342
vn 0.6047 -0.5184 0.6047
vn 0.3666 0.8551 0.3666
vn 0.2213 -0.5184 0.8260
vn 0.1342 0.8551 0.5008
vn -0.2213 -0.5184 0.8260
vn -0.1342 0.8551 0.5008
vn -0.6047 -0.5184 0.6047
vn -0.3666 0.8551 0.3666
vn -0.8260 -0.5184 0.2213
vn -0.5008 0.8551 0.1342
vn -0.8260 -0.5184 -0.2213
vn -0.5008 0.8551 -0.1342
vn -0.6047 -0.5184 -0.6047
vn -0.3666 0.8551 -0.3666
vn -0.2213 -0.5184 -0.8260
vn -0.1342 0.8551 -0.5008
vn -0.0000 -1.0000 -0.0000
vn 0.2295 0.4625 -0.8564
vn -0.2295 0.4625 -0.8564
vn -0.0000 1.0000 -0.0000
vn 0.6269 0.4625 -0.6269
vn 0.8564 0.4625 -0.2295
vn 0.8564 0.4625 0.2295
vn 0.6269 0.4625 0.6269
vn 0.2295 0.4625 0.8564
vn -0.2295 0.4625 0.8564
vn -0.6269 0.4625 0.6269
vn -0.8564 0.4625 0.2295
vn -0.8564 0.4625 -0.2295
vn -0.6269 0.4625 -0.6269
vt 0.869774 0.457454
vt 0.750000 0.475384
vt 0.750000 0.489547
vt 0.370000 0.457846
vt 0.250000 0.468580
vt 0.359290 0.439296
vt 0.957454 0.369774
vt 0.862692 0.445189
vt 0.457846 0.370000
vt 0.439296 0.359290
vt 0.975384 0.250000
vt 0.945189 0.362692
vt 0.468581 0.250000
vt 0.490000 0.250000
vt 0.957454 0.130226
vt 0.989547 0.250000
vt 0.457846 0.130000
vt 0.439296 0.140710
vt 0.869774 0.042546
vt 0.945189 0.137308
vt 0.370000 0.042154
vt 0.359290 0.060704
vt 0.750000 0.024616
vt 0.862692 0.054811
vt 0.250000 0.031419
vt 0.250000 0.010000
vt 0.630226 0.042546
vt 0.750000 0.010453
vt 0.130000 0.042154
vt 0.140710 0.060704
vt 0.542546 0.130226
vt 0.637308 0.054811
vt 0.042154 0.130000
vt 0.060704 0.140710
vt 0.524616 0.250000
vt 0.554811 0.137308
vt 0.031419 0.250000
vt 0.010000 0.250000
vt 0.542546 0.369774
vt 0.510453 0.250000
vt 0.042154 0.370000
vt 0.060704 0.359290
vt 0.630226 0.457454
vt 0.554811 0.362692
vt 0.130000 0.457846
vt 0.140710 0.439296
vt 0.637308 0.445189
vt 0.250000 0.490000
vt 1.000000 0.955668
vt 0.916667 0.544332
vt 1.000000 0.544332
vt 0.083333 0.955668
vt 0.000000 0.544332
vt 0.083333 0.544332
vt 0.916667 0.955668
vt 0.833333 0.544332
vt 0.833333 0.955668
vt 0.750000 0.544332
vt 0.750000 0.955668
vt 0.666667 0.544332
vt 0.666667 0.955668
vt 0.583333 0.544332
vt 0.583333 0.955668
vt 0.500000 0.544332
vt 0.500000 0.955668
vt 0.416667 0.544332
vt 0.416667 0.955668
vt 0.333333 0.544332
vt 0.333333 0.955668
vt 0.250000 0.544332
vt 0.250000 0.955668
vt 0.166667 0.544332
vt 0.166667 0.955668
vt 0.000000 0.955668
s 0
g Bowl.002_MAT_Iron
usemtl MAT_Iron
f 6/1/1 1/2/1 2/3/1
f 8/4/2 3/5/2 7/6/2
f 10/7/3 5/8/3 6/1/3
f 12/9/4 7/6/4 11/10/4
f 10/7/5 13/11/5 9/12/5
f 12/9/6 15/13/6 16/14/6
f 18/15/7 13/11/7 14/16/7
f 20/17/8 15/13/8 19/18/8
f 22/19/9 17/20/9 18/15/9
f 24/21/10 19/18/10 23/22/10
f 22/19/11 25/23/11 21/24/11
f 24/21/12 27/25/12 28/26/12
f 30/27/13 25/23/13 26/28/13
f 32/29/14 27/25/14 31/30/14
f 34/31/15 29/32/15 30/27/15
f 36/33/16 31/30/16 35/34/16
f 34/31/17 37/35/17 33/36/17
f 36/33/18 39/37/18 40/38/18
f 42/39/19 37/35/19 38/40/19
f 44/41/20 39/37/20 43/42/20
f 46/43/21 41/44/21 42/39/21
f 48/45/22 43/42/22 47/46/22
f 46/43/23 1/2/23 45/47/23
f 48/45/24 3/5/24 4/48/24
f 13/11/25 29/32/25 45/47/25
f 4/49/26 6/50/26 2/51/26
f 48/52/27 2/53/27 46/54/27
f 43/42/28 27/25/28 11/10/28
f 8/55/29 10/56/29 6/50/29
f 12/57/30 14/58/30 10/56/30
f 16/59/31 18/60/31 14/58/31
f 20/61/32 22/62/32 18/60/32
f 24/63/33 26/64/33 22/62/33
f 28/65/34 30/66/34 26/64/34
f 32/67/35 34/68/35 30/66/35
f 36/69/36 38/70/36 34/68/36
f 40/71/37 42/72/37 38/70/37
f 44/73/38 46/54/38 42/72/38
f 6/1/1 5/8/1 1/2/1
f 8/4/2 4/48/2 3/5/2
f 10/7/3 9/12/3 5/8/3
f 12/9/4 8/4/4 7/6/4
f 10/7/5 14/16/5 13/11/5
f 12/9/6 11/10/6 15/13/6
f 18/15/7 17/20/7 13/11/7
f 20/17/8 16/14/8 15/13/8
f 22/19/9 21/24/9 17/20/9
f 24/21/10 20/17/10 19/18/10
f 22/19/11 26/28/11 25/23/11
f 24/21/12 23/22/12 27/25/12
f 30/27/13 29/32/13 25/23/13
f 32/29/14 28/26/14 27/25/14
f 34/31/15 33/36/15 29/32/15
f 36/33/16 32/29/16 31/30/16
f 34/31/17 38/40/17 37/35/17
f 36/33/18 35/34/18 39/37/18
f 42/39/19 41/44/19 37/35/19
f 44/41/20 40/38/20 39/37/20
f 46/43/21 45/47/21 41/44/21
f 48/45/22 44/41/22 43/42/22
f 46/43/23 2/3/23 1/2/23
f 48/45/24 47/46/24 3/5/24
f 45/47/25 1/2/25 5/8/25
f 5/8/25 9/12/25 13/11/25
f 13/11/25 17/20/25 21/24/25
f 21/24/25 25/23/25 29/32/25
f 29/32/25 33/36/25 37/35/25
f 37/35/25 41/44/25 45/47/25
f 45/47/25 5/8/25 13/11/25
f 13/11/25 21/24/25 29/32/25
f 29/32/25 37/35/25 45/47/25
f 4/49/26 8/55/26 6/50/26
f 48/52/27 4/74/27 2/53/27
f 11/10/28 7/6/28 3/5/28
f 3/5/28 47/46/28 43/42/28
f 43/42/28 39/37/28 35/34/28
f 35/34/28 31/30/28 27/25/28
f 27/25/28 23/22/28 19/18/28
f 19/18/28 15/13/28 11/10/28
f 11/10/28 3/5/28 43/42/28
f 43/42/28 35/34/28 27/25/28
f 27/25/28 19/18/28 11/10/28
f 8/55/29 12/57/29 10/56/29
f 12/57/30 16/59/30 14/58/30
f 16/59/31 20/61/31 18/60/31
f 20/61/32 24/63/32 22/62/32
f 24/63/33 28/65/33 26/64/33
f 28/65/34 32/67/34 30/66/34
f 32/67/35 36/69/35 34/68/35
f 36/69/36 40/71/36 38/70/36
f 40/71/37 44/73/37 42/72/37
f 44/73/38 48/52/38 46/54/38
g Burnt_Utensil.001_Mesh
v -0.767412 -0.015829 -0.000000
v -0.758651 0.000016 0.013515
v -0.758651 0.000016 -0.013515
v 0.802588 0.784171 0.000000
v 0.784619 0.786396 -0.013515
v 0.784619 0.786396 0.013515
v -0.760856 -0.028695 -0.029984
v -0.755159 -0.006837 -0.029486
v -0.745565 -0.025666 -0.046339
v 0.809144 0.771305 -0.029984
v 0.797705 0.760714 -0.046339
v 0.788111 0.779543 -0.029486
v -0.746126 -0.057604 -0.037390
v -0.737718 -0.041065 -0.050283
v -0.725754 -0.064544 -0.044269
v 0.823874 0.742396 -0.037390
v 0.817516 0.721836 -0.044269
v 0.805552 0.745315 -0.050283
v -0.734313 -0.080787 -0.016640
v -0.719462 -0.076893 -0.033216
v -0.714137 -0.087342 -0.008864
v 0.835687 0.719213 -0.016640
v 0.829133 0.699038 -0.008864
v 0.823808 0.709487 -0.033216
v -0.734313 -0.080787 0.016640
v -0.714137 -0.087342 0.008864
v -0.719462 -0.076893 0.033216
v 0.835687 0.719213 0.016640
v 0.823808 0.709487 0.033216
v 0.829133 0.699038 0.008864
v -0.746126 -0.057604 0.037390
v -0.725754 -0.064544 0.044269
v -0.737718 -0.041065 0.050283
v 0.823874 0.742396 0.037390
v 0.805552 0.745315 0.050283
v 0.817516 0.721836 0.044269
v -0.760856 -0.028695 0.029984
v -0.745565 -0.025666 0.046339
v -0.755159 -0.006837 0.029486
v 0.809144 0.771305 0.029984
v 0.788111 0.779543 0.029486
v 0.797705 0.760714 0.046339
vn -0.8751 0.4839 -0.0000
vn 0.1229 0.9924 -0.0000
vn -0.7335 0.2060 -0.6477
vn 0.2645 0.7145 -0.6477
vn -0.4153 -0.4185 -0.8077
vn 0.5827 0.0900 -0.8077
vn -0.1601 -0.9193 -0.3595
vn 0.8379 -0.4108 -0.3595
vn -0.1601 -0.9193 0.3595
vn 0.8379 -0.4108 0.3595
vn -0.4153 -0.4185 0.8077
vn 0.5827 0.0900 0.8077
vn -0.7335 0.2060 0.6477
vn 0.2645 0.7145 0.6477
vn -0.9193 0.2466 -0.3068
vn 0.3408 0.8887 -0.3068
vn -0.4540 0.8910 -0.0000
vn -0.2831 0.5555 -0.7818
vn -0.7015 -0.1808 -0.6894
vn 0.5586 0.4612 -0.6894
vn 0.1010 -0.1983 -0.9749
vn -0.4299 -0.7138 -0.5528
vn 0.8302 -0.0718 -0.5528
vn 0.4090 -0.8028 -0.4339
vn -0.3090 -0.9511 -0.0000
vn 0.9511 -0.3090 -0.0000
vn 0.4090 -0.8028 0.4339
vn -0.4299 -0.7139 0.5528
vn 0.8302 -0.0718 0.5528
vn 0.1010 -0.1983 0.9749
vn -0.7015 -0.1808 0.6894
vn 0.5586 0.4612 0.6894
vn -0.2831 0.5555 0.7818
vn -0.9193 0.2466 0.3068
vn 0.3408 0.8887 0.3068
vn -0.8910 -0.4540 -0.0000
vn -0.4090 0.8028 -0.4339
vn -0.4090 0.8028 0.4339
vn 0.8910 0.4540 -0.0000
vn -0.1010 0.1983 -0.9749
vn 0.2831 -0.5555 -0.7818
vn 0.4540 -0.8910 -0.0000
vn 0.2831 -0.5555 0.7818
vn -0.1010 0.1983 0.9749
vn -0.4299 -0.7139 -0.5528
vt 0.750000 0.417351
vt 0.691028 0.461600
vt 0.808973 0.461600
vt 0.250000 0.417351
vt 0.308973 0.461600
vt 0.191027 0.461600
vt 0.880840 0.354342
vt 0.878667 0.428037
vt 0.952205 0.335824
vt 0.380840 0.354342
vt 0.452205 0.335824
vt 0.378667 0.428037
vt 0.913155 0.212761
vt 0.969418 0.260408
vt 0.943172 0.145421
vt 0.413155 0.212761
vt 0.443172 0.145421
vt 0.469418 0.260408
vt 0.822611 0.099222
vt 0.894942 0.084942
vt 0.788678 0.033767
vt 0.322611 0.099222
vt 0.288678 0.033767
vt 0.394942 0.084942
vt 0.677389 0.099222
vt 0.711322 0.033767
vt 0.605058 0.084942
vt 0.177389 0.099222
vt 0.105058 0.084942
vt 0.211322 0.033767
vt 0.586845 0.212761
vt 0.556828 0.145421
vt 0.530582 0.260408
vt 0.086845 0.212761
vt 0.030582 0.260408
vt 0.056828 0.145421
vt 0.619160 0.354342
vt 0.547795 0.335824
vt 0.621333 0.428037
vt 0.119160 0.354342
vt 0.121333 0.428037
vt 0.047795 0.335824
vt 0.044898 0.995744
vt 0.000000 0.504256
vt 0.044898 0.504256
vt 0.812245 0.504256
vt 0.902041 0.995744
vt 0.812245 0.995744
vt 0.669388 0.504256
vt 0.759184 0.995744
vt 0.669388 0.995744
vt 0.526531 0.504256
vt 0.616327 0.995744
vt 0.526531 0.995744
vt 0.383673 0.504256
vt 0.473469 0.995744
vt 0.383673 0.995744
vt 0.240816 0.504256
vt 0.330612 0.995744
vt 0.240816 0.995744
vt 0.097959 0.504256
vt 0.187755 0.995744
vt 0.097959 0.995744
vt 0.955102 0.995744
vt 0.902041 0.504256
vt 0.955102 0.504256
vt 0.759184 0.504256
vt 0.616327 0.504256
vt 0.473469 0.504256
vt 0.330612 0.504256
vt 0.187755 0.504256
vt 0.000000 0.995744
s 0
g Burnt_Utensil.001_MAT_Wood
usemtl MAT_Wood
f 49/75/39 50/76/39 51/77/39
f 52/78/40 53/79/40 54/80/40
f 55/81/41 56/82/41 57/83/41
f 58/84/42 59/85/42 60/86/42
f 61/87/43 62/88/43 63/89/43
f 64/90/44 65/91/44 66/92/44
f 67/93/45 68/94/45 69/95/45
f 70/96/46 71/97/46 72/98/46
f 73/99/47 74/100/47 75/101/47
f 76/102/48 77/103/48 78/104/48
f 79/105/49 80/106/49 81/107/49
f 82/108/50 83/109/50 84/110/50
f 85/111/51 86/112/51 87/113/51
f 88/114/52 89/115/52 90/116/52
f 51/77/53 55/81/53 49/75/53
f 53/79/54 58/84/54 60/86/54
f 54/117/55 51/118/55 50/119/55
f 57/120/56 60/121/56 59/122/56
f 62/88/57 55/81/57 57/83/57
f 66/92/58 58/84/58 64/90/58
f 63/123/59 66/124/59 65/125/59
f 68/94/60 61/87/60 63/89/60
f 72/98/61 64/90/61 70/96/61
f 69/126/62 72/127/62 71/128/62
f 74/100/63 67/93/63 69/95/63
f 71/97/64 76/102/64 78/104/64
f 75/129/65 78/130/65 77/131/65
f 75/101/66 79/105/66 73/99/66
f 77/103/67 82/108/67 84/110/67
f 81/132/68 84/133/68 83/134/68
f 81/107/69 85/111/69 79/105/69
f 83/109/70 88/114/70 90/116/70
f 87/135/71 90/136/71 89/137/71
f 50/76/72 85/111/72 87/113/72
f 54/80/73 88/114/73 52/78/73
f 55/81/74 67/93/74 79/105/74
f 53/138/75 56/139/75 51/140/75
f 89/137/76 50/119/76 87/135/76
f 52/78/77 82/108/77 70/96/77
f 59/122/78 62/141/78 57/120/78
f 65/125/79 68/142/79 63/123/79
f 71/128/80 74/143/80 69/126/80
f 77/131/81 80/144/81 75/129/81
f 83/134/82 86/145/82 81/132/82
f 51/77/53 56/82/53 55/81/53
f 53/79/54 52/78/54 58/84/54
f 54/117/55 53/146/55 51/118/55
f 57/120/56 56/139/56 60/121/56
f 62/88/57 61/87/57 55/81/57
f 66/92/58 59/85/58 58/84/58
f 63/123/59 62/141/59 66/124/59
f 68/94/83 67/93/83 61/87/83
f 72/98/61 65/91/61 64/90/61
f 69/126/62 68/142/62 72/127/62
f 74/100/63 73/99/63 67/93/63
f 71/97/64 70/96/64 76/102/64
f 75/129/65 74/143/65 78/130/65
f 75/101/66 80/106/66 79/105/66
f 77/103/67 76/102/67 82/108/67
f 81/132/68 80/144/68 84/133/68
f 81/107/69 86/112/69 85/111/69
f 83/109/70 82/108/70 88/114/70
f 87/135/71 86/145/71 90/136/71
f 50/76/72 49/75/72 85/111/72
f 54/80/73 89/115/73 88/114/73
f 85/111/74 49/75/74 55/81/74
f 55/81/74 61/87/74 67/93/74
f 67/93/74 73/99/74 79/105/74
f 79/105/74 85/111/74 55/81/74
f 53/138/75 60/121/75 56/139/75
f 89/137/76 54/117/76 50/119/76
f 64/90/77 58/84/77 52/78/77
f 52/78/77 88/114/77 82/108/77
f 82/108/77 76/102/77 70/96/77
f 70/96/77 64/90/77 52/78/77
f 59/122/78 66/124/78 62/141/78
f 65/125/79 72/127/79 68/142/79
f 71/128/80 78/130/80 74/143/80
f 77/131/81 84/133/81 80/144/81
f 83/134/82 90/136/82 86/145/82
g Food_Lump0.002_Mesh
v -0.350000 -0.359000 -0.120000
v -0.024380 -0.204773 0.059796
v -0.474373 -0.204773 0.170919
v -0.752491 -0.204773 -0.120000
v -0.474373 -0.204773 -0.410919
v -0.024380 -0.204773 -0.299796
v -0.225627 0.044773 0.170919
v -0.675620 0.044773 0.059796
v -0.675620 0.044773 -0.299796
v -0.225627 0.044773 -0.410919
v 0.052491 0.044773 -0.120000
v -0.350000 0.199000 -0.120000
vn 0.1249 -0.8535 0.5059
vn 0.4281 -0.9038 -0.0000
vn -0.3386 -0.8835 0.3237
vn -0.3386 -0.8835 -0.3237
vn 0.1249 -0.8535 -0.5059
vn 0.9557 -0.2944 -0.0000
vn 0.2332 -0.2324 0.9442
vn -0.6969 -0.2653 0.6663
vn -0.6969 -0.2653 -0.6663
vn 0.2332 -0.2324 -0.9442
vn 0.6969 0.2653 0.6663
vn -0.2332 0.2324 0.9442
vn -0.9557 0.2944 -0.0000
vn -0.2332 0.2324 -0.9442
vn 0.6969 0.2653 -0.6663
vn 0.3386 0.8835 0.3237
vn -0.1249 0.8535 0.5059
vn -0.4281 0.9038 -0.0000
vn -0.1249 0.8535 -0.5059
vn 0.3386 0.8835 -0.3237
vt 0.181819 0.000000
vt 0.272728 0.157461
vt 0.090910 0.157461
vt 0.363637 0.000000
vt 0.454546 0.157461
vt 0.909091 0.000000
vt 1.000000 0.157461
vt 0.818182 0.157461
vt 0.727273 0.000000
vt 0.636364 0.157461
vt 0.545455 0.000000
vt 0.363637 0.314921
vt 0.181819 0.314921
vt 0.909091 0.314921
vt 0.727273 0.314921
vt 0.545455 0.314921
vt 0.000000 0.314921
vt 0.272728 0.472382
vt 0.090910 0.472382
vt 0.818182 0.472382
vt 0.636364 0.472382
vt 0.454546 0.472382
s 0
g Food_Lump0.002_MAT_Char
usemtl MAT_Char
f 91/147/84 92/148/84 93/149/84
f 92/148/85 91/150/85 96/151/85
f 91/152/86 93/153/86 94/154/86
f 91/155/87 94/154/87 95/156/87
f 91/157/88 95/156/88 96/151/88
f 92/148/89 96/151/89 101/158/89
f 93/149/90 92/148/90 97/159/90
f 94/154/91 93/153/91 98/160/91
f 95/156/92 94/154/92 99/161/92
f 96/151/93 95/156/93 100/162/93
f 92/148/94 101/158/94 97/159/94
f 93/149/95 97/159/95 98/163/95
f 94/154/96 98/160/96 99/161/96
f 95/156/97 99/161/97 100/162/97
f 96/151/98 100/162/98 101/158/98
f 97/159/99 101/158/99 102/164/99
f 98/163/100 97/159/100 102/165/100
f 99/161/101 98/160/101 102/166/101
f 100/162/102 99/161/102 102/167/102
f 101/158/103 100/162/103 102/168/103
g Food_Lump1.002_Mesh
v 0.280000 -0.342400 0.120000
v 0.656272 -0.164182 0.327765
v 0.136280 -0.164182 0.456173
v -0.185101 -0.164182 0.120000
v 0.136280 -0.164182 -0.216173
v 0.656272 -0.164182 -0.087765
v 0.423720 0.124182 0.456173
v -0.096272 0.124182 0.327765
v -0.096272 0.124182 -0.087765
v 0.423720 0.124182 -0.216173
v 0.745101 0.124182 0.120000
v 0.280000 0.302400 0.120000
vn 0.1249 -0.8535 0.5059
vn 0.4281 -0.9038 -0.0000
vn -0.3386 -0.8835 0.3237
vn -0.3386 -0.8835 -0.3237
vn 0.1249 -0.8535 -0.5059
vn 0.9557 -0.2944 -0.0000
vn 0.2332 -0.2324 0.9442
vn -0.6969 -0.2653 0.6663
vn -0.6969 -0.2653 -0.6663
vn 0.2332 -0.2324 -0.9442
vn 0.6969 0.2653 0.6663
vn -0.2332 0.2324 0.9442
vn -0.9557 0.2944 -0.0000
vn -0.2332 0.2324 -0.9442
vn 0.6969 0.2653 -0.6663
vn 0.3386 0.8835 0.3237
vn -0.1249 0.8535 0.5059
vn -0.4281 0.9038 -0.0000
vn -0.1249 0.8535 -0.5059
vn 0.3386 0.8835 -0.3237
vt 0.181819 0.000000
vt 0.272728 0.157461
vt 0.090910 0.157461
vt 0.363637 0.000000
vt 0.454546 0.157461
vt 0.909091 0.000000
vt 1.000000 0.157461
vt 0.818182 0.157461
vt 0.727273 0.000000
vt 0.636364 0.157461
vt 0.545455 0.000000
vt 0.363637 0.314921
vt 0.181819 0.314921
vt 0.909091 0.314921
vt 0.727273 0.314921
vt 0.545455 0.314921
vt 0.000000 0.314921
vt 0.272728 0.472382
vt 0.090910 0.472382
vt 0.818182 0.472382
vt 0.636364 0.472382
vt 0.454546 0.472382
s 0
g Food_Lump1.002_MAT_Char
usemtl MAT_Char
f 103/169/104 104/170/104 105/171/104
f 104/170/105 103/172/105 108/173/105
f 103/174/106 105/175/106 106/176/106
f 103/177/107 106/176/107 107/178/107
f 103/179/108 107/178/108 108/173/108
f 104/170/109 108/173/109 113/180/109
f 105/171/110 104/170/110 109/181/110
f 106/176/111 105/175/111 110/182/111
f 107/178/112 106/176/112 111/183/112
f 108/173/113 107/178/113 112/184/113
f 104/170/114 113/180/114 109/181/114
f 105/171/115 109/181/115 110/185/115
f 106/176/116 110/182/116 111/183/116
f 107/178/117 111/183/117 112/184/117
f 108/173/118 112/184/118 113/180/118
f 109/181/119 113/180/119 114/186/119
f 110/185/120 109/181/120 114/187/120
f 111/183/121 110/182/121 114/188/121
f 112/184/122 111/183/122 114/189/122
f 113/180/123 112/184/123 114/190/123
g Food_Lump2.002_Mesh
v 0.050000 -0.035600 -0.180000
v 0.324968 0.094636 -0.028172
v -0.055026 0.094636 0.065665
v -0.289881 0.094636 -0.180000
v -0.055026 0.094636 -0.425665
v 0.324968 0.094636 -0.331828
v 0.155026 0.305364 0.065665
v -0.224968 0.305364 -0.028172
v -0.224968 0.305364 -0.331828
v 0.155026 0.305364 -0.425665
v 0.389882 0.305364 -0.180000
v 0.050000 0.435600 -0.180000
vn 0.1249 -0.8535 0.5059
vn 0.4281 -0.9038 -0.0000
vn -0.3386 -0.8835 0.3237
vn -0.3386 -0.8835 -0.3237
vn 0.1249 -0.8535 -0.5059
vn 0.9557 -0.2944 -0.0000
vn 0.2332 -0.2324 0.9442
vn -0.6969 -0.2653 0.6663
vn -0.6969 -0.2653 -0.6663
vn 0.2332 -0.2324 -0.9442
vn 0.6969 0.2653 0.6663
vn -0.2332 0.2324 0.9442
vn -0.9557 0.2944 -0.0000
vn -0.2332 0.2324 -0.9442
vn 0.6969 0.2653 -0.6663
vn 0.3386 0.8835 0.3237
vn -0.1249 0.8535 0.5059
vn -0.4281 0.9038 -0.0000
vn -0.1249 0.8535 -0.5059
vn 0.3386 0.8835 -0.3237
vt 0.181819 0.000000
vt 0.272728 0.157461
vt 0.090910 0.157461
vt 0.363637 0.000000
vt 0.454546 0.157461
vt 0.909091 0.000000
vt 1.000000 0.157461
vt 0.818182 0.157461
vt 0.727273 0.000000
vt 0.636364 0.157461
vt 0.545455 0.000000
vt 0.363637 0.314921
vt 0.181819 0.314921
vt 0.909091 0.314921
vt 0.727273 0.314921
vt 0.545455 0.314921
vt 0.000000 0.314921
vt 0.272728 0.472382
vt 0.090910 0.472382
vt 0.818182 0.472382
vt 0.636364 0.472382
vt 0.454546 0.472382
s 0
g Food_Lump2.002_MAT_Char
usemtl MAT_Char
f 115/191/124 116/192/124 117/193/124
f 116/192/125 115/194/125 120/195/125
f 115/196/126 117/197/126 118/198/126
f 115/199/127 118/198/127 119/200/127
f 115/201/128 119/200/128 120/195/128
f 116/192/129 120/195/129 125/202/129
f 117/193/130 116/192/130 121/203/130
f 118/198/131 117/197/131 122/204/131
f 119/200/132 118/198/132 123/205/132
f 120/195/133 119/200/133 124/206/133
f 116/192/134 125/202/134 121/203/134
f 117/193/135 121/203/135 122/207/135
f 118/198/136 122/204/136 123/205/136
f 119/200/137 123/205/137 124/206/137
f 120/195/138 124/206/138 125/202/138
f 121/203/139 125/202/139 126/208/139
f 122/207/140 121/203/140 126/209/140
f 123/205/141 122/204/141 126/210/141
f 124/206/142 123/205/142 126/211/142
f 125/202/143 124/206/143 126/212/143
g Food_Lump3.002_Mesh
v -0.100000 0.164000 0.220000
v 0.117080 0.266818 0.339864
v -0.182915 0.266818 0.413946
v -0.368327 0.266818 0.220000
v -0.182915 0.266818 0.026054
v 0.117080 0.266818 0.100136
v -0.017084 0.433182 0.413946
v -0.317080 0.433182 0.339864
v -0.317080 0.433182 0.100136
v -0.017084 0.433182 0.026054
v 0.168328 0.433182 0.220000
v -0.100000 0.536000 0.220000
vn 0.1249 -0.8535 0.5059
vn 0.4281 -0.9038 -0.0000
vn -0.3386 -0.8835 0.3237
vn -0.3386 -0.8835 -0.3237
vn 0.1249 -0.8535 -0.5059
vn 0.9557 -0.2944 -0.0000
vn 0.2332 -0.2324 0.9442
vn -0.6969 -0.2653 0.6663
vn -0.6969 -0.2653 -0.6663
vn 0.2332 -0.2324 -0.9442
vn 0.6969 0.2653 0.6663
vn -0.2332 0.2324 0.9442
vn -0.9557 0.2944 -0.0000
vn -0.2332 0.2324 -0.9442
vn 0.6969 0.2653 -0.6663
vn 0.3386 0.8835 0.3237
vn -0.1249 0.8535 0.5059
vn -0.4281 0.9038 -0.0000
vn -0.1249 0.8535 -0.5059
vn 0.3386 0.8835 -0.3237
vt 0.181819 0.000000
vt 0.272728 0.157461
vt 0.090910 0.157461
vt 0.363637 0.000000
vt 0.454546 0.157461
vt 0.909091 0.000000
vt 1.000000 0.157461
vt 0.818182 0.157461
vt 0.727273 0.000000
vt 0.636364 0.157461
vt 0.545455 0.000000
vt 0.363637 0.314921
vt 0.181819 0.314921
vt 0.909091 0.314921
vt 0.727273 0.314921
vt 0.545455 0.314921
vt 0.000000 0.314921
vt 0.272728 0.472382
vt 0.090910 0.472382
vt 0.818182 0.472382
vt 0.636364 0.472382
vt 0.454546 0.472382
s 0
g Food_Lump3.002_MAT_Char
usemtl MAT_Char
f 127/213/144 128/214/144 129/215/144
f 128/214/145 127/216/145 132/217/145
f 127/218/146 129/219/146 130/220/146
f 127/221/147 130/220/147 131/222/147
f 127/223/148 131/222/148 132/217/148
f 128/214/149 132/217/149 137/224/149
f 129/215/150 128/214/150 133/225/150
f 130/220/151 129/219/151 134/226/151
f 131/222/152 130/220/152 135/227/152
f 132/217/153 131/222/153 136/228/153
f 128/214/154 137/224/154 133/225/154
f 129/215/155 133/225/155 134/229/155
f 130/220/156 134/226/156 135/227/156
f 131/222/157 135/227/157 136/228/157
f 132/217/158 136/228/158 137/224/158
f 133/225/159 137/224/159 138/230/159
f 134/229/160 133/225/160 138/231/160
f 135/227/161 134/226/161 138/232/161
f 136/228/162 135/227/162 138/233/162
f 137/224/163 136/228/163 138/234/163
