# Blender 5.0.1
# www.blender.org
mtllib cerberus_fang.mtl
g C_Fang.001_C_FangCurve.001
v -0.190443 -0.460956 0.210443
v 0.190919 -0.480000 0.210919
v 0.190443 -0.499044 -0.170443
v -0.190919 -0.480000 -0.170919
v -0.181509 -0.076269 0.222216
v 0.240272 -0.116553 0.200360
v 0.221509 -0.083731 -0.222216
v -0.200272 -0.043447 -0.200360
v -0.088304 0.288807 0.288808
v 0.284097 0.227632 0.230707
v 0.248304 0.351193 -0.128808
v -0.124097 0.412368 -0.070707
v 0.069977 0.603035 0.393005
v 0.342617 0.585267 0.319850
v 0.290023 0.736965 0.086995
v 0.017383 0.754733 0.160150
v 0.171212 0.856652 0.505543
v 0.318139 0.896832 0.473953
v 0.268788 0.983348 0.354457
v 0.121861 0.943168 0.386047
v 0.142073 1.083600 0.587123
v 0.172546 1.100372 0.580794
v 0.157927 1.116400 0.552877
v 0.127454 1.099628 0.559206
vn -0.7011 -0.0026 0.7131
vn 0.7076 -0.0752 0.7026
vn 0.6896 -0.1405 -0.7104
vn -0.7156 -0.0672 -0.6952
vn -0.7060 0.0177 0.7080
vn 0.7529 -0.1198 0.6471
vn 0.6350 -0.0052 -0.7725
vn -0.7227 0.1201 -0.6806
vn -0.6295 0.0194 0.7767
vn 0.7926 -0.2100 0.5724
vn 0.6024 0.2388 -0.7616
vn -0.7192 0.4416 -0.5364
vn -0.5050 -0.1085 0.8563
vn 0.8599 -0.2074 0.4665
vn 0.5784 0.4936 -0.6495
vn -0.7154 0.6136 -0.3341
vn -0.3816 -0.2955 0.8758
vn 0.8463 0.0215 0.5322
vn 0.4987 0.7386 -0.4537
vn -0.8261 0.5121 -0.2354
vn -0.4397 -0.3565 0.8244
vn 0.7456 0.2088 0.6328
vn 0.2980 0.8625 -0.4090
vn -0.9176 0.3067 -0.2530
vt 0.000000 1.000000
vt 0.200000 1.000000
vt 0.200000 0.750000
vt 0.000000 0.750000
vt 0.000000 0.250000
vt 0.200000 0.250000
vt 0.200000 0.000000
vt 0.000000 0.000000
vt 0.000000 0.500000
vt 0.200000 0.500000
vt 0.400000 1.000000
vt 0.400000 0.750000
vt 0.400000 0.250000
vt 0.400000 0.000000
vt 0.400000 0.500000
vt 0.600000 1.000000
vt 0.600000 0.750000
vt 0.600000 0.250000
vt 0.600000 0.000000
vt 0.600000 0.500000
vt 0.800000 1.000000
vt 0.800000 0.750000
vt 0.800000 0.250000
vt 0.800000 0.000000
vt 0.800000 0.500000
vt 1.000000 1.000000
vt 1.000000 0.750000
vt 1.000000 0.250000
vt 1.000000 0.000000
vt 1.000000 0.500000
s 1
g C_Fang.001_bone
usemtl bone
f 1/1/1 5/2/5 8/3/8 4/4/4
f 2/5/2 6/6/6 5/7/5 1/8/1
f 3/9/3 7/10/7 6/6/6 2/5/2
f 4/4/4 8/3/8 7/10/7 3/9/3
f 5/2/5 9/11/9 12/12/12 8/3/8
f 6/6/6 10/13/10 9/14/9 5/7/5
f 7/10/7 11/15/11 10/13/10 6/6/6
f 8/3/8 12/12/12 11/15/11 7/10/7
f 9/11/9 13/16/13 16/17/16 12/12/12
f 10/13/10 14/18/14 13/19/13 9/14/9
f 11/15/11 15/20/15 14/18/14 10/13/10
f 12/12/12 16/17/16 15/20/15 11/15/11
f 13/16/13 17/21/17 20/22/20 16/17/16
f 14/18/14 18/23/18 17/24/17 13/19/13
f 15/20/15 19/25/19 18/23/18 14/18/14
f 16/17/16 20/22/20 19/25/19 15/20/15
f 17/21/17 21/26/21 24/27/24 20/22/20
f 18/23/18 22/28/22 21/29/21 17/24/17
f 19/25/19 23/30/23 22/28/22 18/23/18
f 20/22/20 24/27/24 23/30/23 19/25/19
g C_Fang.001_Mesh
v -0.190443 -0.460956 0.210443
v 0.190919 -0.480000 0.210919
v 0.190443 -0.499044 -0.170443
v -0.190919 -0.480000 -0.170919
v -0.181509 -0.076269 0.222216
v 0.240272 -0.116553 0.200360
v 0.221509 -0.083731 -0.222216
v -0.200272 -0.043447 -0.200360
v -0.088304 0.288807 0.288808
v 0.284097 0.227632 0.230707
v 0.248304 0.351193 -0.128808
v -0.124097 0.412368 -0.070707
v 0.069977 0.603035 0.393005
v 0.342617 0.585267 0.319850
v 0.290023 0.736965 0.086995
v 0.017383 0.754733 0.160150
v 0.171212 0.856652 0.505543
v 0.318139 0.896832 0.473953
v 0.268788 0.983348 0.354457
v 0.121861 0.943168 0.386047
v 0.142073 1.083600 0.587123
v 0.172546 1.100372 0.580794
v 0.157927 1.116400 0.552877
v 0.127454 1.099628 0.559206
vn -0.7197 -0.0045 0.6943
vn 0.6950 -0.0936 0.7129
vn 0.6989 -0.1590 -0.6973
vn -0.7146 -0.0678 -0.6962
vn -0.7145 0.0055 0.6996
vn 0.7513 -0.1242 0.6482
vn 0.6369 -0.0111 -0.7709
vn -0.7232 0.1107 -0.6817
vn -0.6270 0.0221 0.7787
vn 0.7935 -0.2111 0.5707
vn 0.5981 0.2506 -0.7612
vn -0.7055 0.4559 -0.5426
vn -0.4778 -0.1015 0.8726
vn 0.8699 -0.1835 0.4578
vn 0.5541 0.5110 -0.6571
vn -0.7011 0.6285 -0.3368
vn -0.3543 -0.2825 0.8914
vn 0.8658 0.0309 0.4995
vn 0.4708 0.7323 -0.4920
vn -0.8322 0.5043 -0.2305
vn -0.3911 -0.3844 0.8362
vn 0.7539 0.2484 0.6082
vn 0.1998 0.8844 -0.4218
vn -0.9576 0.2285 -0.1755
vt 0.200000 1.000000
vt 0.000000 0.750000
vt 0.000000 1.000000
vt 0.000000 0.250000
vt 0.200000 0.000000
vt 0.000000 0.000000
vt 0.000000 0.500000
vt 0.200000 0.250000
vt 0.200000 0.500000
vt 0.400000 0.750000
vt 0.200000 0.750000
vt 0.400000 0.000000
vt 0.400000 0.250000
vt 0.400000 0.500000
vt 0.400000 1.000000
vt 0.600000 0.750000
vt 0.600000 0.000000
vt 0.600000 0.250000
vt 0.600000 1.000000
vt 0.800000 0.750000
vt 0.800000 0.000000
vt 0.800000 0.500000
vt 0.600000 0.500000
vt 1.000000 1.000000
vt 0.800000 1.000000
vt 1.000000 0.250000
vt 0.800000 0.250000
vt 1.000000 0.500000
vt 1.000000 0.750000
vt 1.000000 0.000000
s 1
g C_Fang.001_bone
usemtl bone
f 29/31/29 28/32/28 25/33/25
f 26/34/26 29/35/29 25/36/25
f 27/37/27 30/38/30 26/34/26
f 28/32/28 31/39/31 27/37/27
f 29/31/29 36/40/36 32/41/32
f 30/38/30 33/42/33 29/35/29
f 31/39/31 34/43/34 30/38/30
f 32/41/32 35/44/35 31/39/31
f 33/45/33 40/46/40 36/40/36
f 34/43/34 37/47/37 33/42/33
f 35/44/35 38/48/38 34/43/34
f 40/46/40 35/44/35 36/40/36
f 37/49/37 44/50/44 40/46/40
f 38/48/38 41/51/41 37/47/37
f 43/52/43 38/48/38 39/53/39
f 44/50/44 39/53/39 40/46/40
f 45/54/45 44/50/44 41/55/41
f 46/56/46 41/51/41 42/57/42
f 43/52/43 46/56/46 42/57/42
f 44/50/44 47/58/47 43/52/43
f 29/31/29 32/41/32 28/32/28
f 26/34/26 30/38/30 29/35/29
f 27/37/27 31/39/31 30/38/30
f 28/32/28 32/41/32 31/39/31
f 29/31/29 33/45/33 36/40/36
f 30/38/30 34/43/34 33/42/33
f 31/39/31 35/44/35 34/43/34
f 32/41/32 36/40/36 35/44/35
f 33/45/33 37/49/37 40/46/40
f 34/43/34 38/48/38 37/47/37
f 35/44/35 39/53/39 38/48/38
f 40/46/40 39/53/39 35/44/35
f 37/49/37 41/55/41 44/50/44
f 38/48/38 42/57/42 41/51/41
f 43/52/43 42/57/42 38/48/38
f 44/50/44 43/52/43 39/53/39
f 45/54/45 48/59/48 44/50/44
f 46/56/46 45/60/45 41/51/41
f 43/52/43 47/58/47 46/56/46
f 44/50/44 48/59/48 47/58/47
g C_GoldScar.001_C_GoldScarCurve.001
v -0.189082 0.111080 -0.129102
v -0.166172 0.100000 -0.128477
v -0.170918 0.088920 -0.150898
v -0.193828 0.100000 -0.151523
v -0.140873 0.213900 -0.186863
v -0.115789 0.195758 -0.183750
v -0.119127 0.186100 -0.213137
v -0.144211 0.204242 -0.216250
v -0.030183 0.312355 -0.208015
v -0.014618 0.289058 -0.204147
v -0.009817 0.287645 -0.231985
v -0.025382 0.310942 -0.235853
v 0.094559 0.365970 -0.164105
v 0.100386 0.353159 -0.162716
v 0.105441 0.354030 -0.175895
v 0.099614 0.366841 -0.177284
vn -0.5174 0.5924 0.6175
vn 0.7564 -0.0231 0.6537
vn 0.4915 -0.6382 -0.5926
vn -0.7791 -0.0217 -0.6265
vn -0.5632 0.6425 0.5197
vn 0.6356 -0.1938 0.7473
vn 0.4157 -0.6118 -0.6730
vn -0.6539 0.1944 -0.7312
vn -0.5060 0.7029 0.4998
vn 0.3172 -0.5331 0.7843
vn 0.5067 -0.5290 -0.6807
vn -0.2332 0.5549 -0.7985
vn -0.4860 0.6281 0.6076
vn 0.0957 -0.6545 0.7500
vn 0.5992 -0.5628 -0.5694
vn 0.0163 0.7088 -0.7052
vt 0.000000 1.000000
vt 0.333333 1.000000
vt 0.333333 0.750000
vt 0.000000 0.750000
vt 0.000000 0.250000
vt 0.333333 0.250000
vt 0.333333 0.000000
vt 0.000000 0.000000
vt 0.000000 0.500000
vt 0.333333 0.500000
vt 0.666667 1.000000
vt 0.666667 0.750000
vt 0.666667 0.250000
vt 0.666667 0.000000
vt 0.666667 0.500000
vt 1.000000 1.000000
vt 1.000000 0.750000
vt 1.000000 0.250000
vt 1.000000 0.000000
vt 1.000000 0.500000
s 1
g C_GoldScar.001_ritual_gold
usemtl ritual_gold
f 49/61/49 53/62/53 56/63/56 52/64/52
f 50/65/50 54/66/54 53/67/53 49/68/49
f 51/69/51 55/70/55 54/66/54 50/65/50
f 52/64/52 56/63/56 55/70/55 51/69/51
f 53/62/53 57/71/57 60/72/60 56/63/56
f 54/66/54 58/73/58 57/74/57 53/67/53
f 55/70/55 59/75/59 58/73/58 54/66/54
f 56/63/56 60/72/60 59/75/59 55/70/55
f 57/71/57 61/76/61 64/77/64 60/72/60
f 58/73/58 62/78/62 61/79/61 57/74/57
f 59/75/59 63/80/63 62/78/62 58/73/58
f 60/72/60 64/77/64 63/80/63 59/75/59
g C_GoldScar.001_Mesh
v -0.189082 0.111080 -0.129102
v -0.166172 0.100000 -0.128477
v -0.170918 0.088920 -0.150898
v -0.193828 0.100000 -0.151523
v -0.140873 0.213900 -0.186863
v -0.115789 0.195758 -0.183750
v -0.119127 0.186100 -0.213137
v -0.144211 0.204242 -0.216250
v -0.030183 0.312355 -0.208015
v -0.014618 0.289058 -0.204147
v -0.009817 0.287645 -0.231985
v -0.025382 0.310942 -0.235853
v 0.094559 0.365970 -0.164105
v 0.100386 0.353159 -0.162716
v 0.105441 0.354030 -0.175895
v 0.099614 0.366841 -0.177284
vn -0.5155 0.5919 0.6196
vn 0.7573 -0.0217 0.6527
vn 0.4935 -0.6387 -0.5904
vn -0.7800 -0.0239 -0.6253
vn -0.5648 0.6434 0.5168
vn 0.6347 -0.1929 0.7483
vn 0.4156 -0.6119 -0.6730
vn -0.6527 0.1938 -0.7324
vn -0.5051 0.7034 0.5001
vn 0.3191 -0.5340 0.7829
vn 0.5053 -0.5274 -0.6830
vn -0.2343 0.5559 -0.7975
vn -0.4853 0.6236 0.6129
vn 0.0944 -0.6543 0.7503
vn 0.6000 -0.5671 -0.5642
vn 0.0194 0.7109 -0.7030
vt 0.333333 1.000000
vt 0.000000 0.750000
vt 0.000000 1.000000
vt 0.333333 0.250000
vt 0.000000 0.000000
vt 0.000000 0.250000
vt 0.000000 0.500000
vt 0.333333 0.500000
vt 0.666667 1.000000
vt 0.333333 0.750000
vt 0.666667 0.000000
vt 0.333333 0.000000
vt 0.666667 0.250000
vt 0.666667 0.750000
vt 1.000000 0.750000
vt 1.000000 0.000000
vt 1.000000 0.500000
vt 0.666667 0.500000
vt 1.000000 1.000000
vt 1.000000 0.250000
s 1
g C_GoldScar.001_ritual_gold
usemtl ritual_gold
f 69/81/69 68/82/68 65/83/65
f 70/84/70 65/85/65 66/86/66
f 67/87/67 70/84/70 66/86/66
f 68/82/68 71/88/71 67/87/67
f 73/89/73 72/90/72 69/81/69
f 70/84/70 73/91/73 69/92/69
f 71/88/71 74/93/74 70/84/70
f 76/94/76 71/88/71 72/90/72
f 73/89/73 80/95/80 76/94/76
f 74/93/74 77/96/77 73/91/73
f 79/97/79 74/93/74 75/98/75
f 80/95/80 75/98/75 76/94/76
f 69/81/69 72/90/72 68/82/68
f 70/84/70 69/92/69 65/85/65
f 67/87/67 71/88/71 70/84/70
f 68/82/68 72/90/72 71/88/71
f 73/89/73 76/94/76 72/90/72
f 70/84/70 74/93/74 73/91/73
f 71/88/71 75/98/75 74/93/74
f 76/94/76 75/98/75 71/88/71
f 73/89/73 77/99/77 80/95/80
f 74/93/74 78/100/78 77/96/77
f 79/97/79 78/100/78 74/93/74
f 80/95/80 79/97/79 75/98/75
g C_Root_0.001_C_Root_0Curve.001
v -0.065848 -0.249757 -0.020261
v 0.038231 -0.360000 -0.124251
v 0.065848 -0.470243 0.020261
v -0.038231 -0.360000 0.124251
v -0.308720 -0.455896 -0.095331
v -0.222366 -0.522092 -0.161371
v -0.211280 -0.604104 -0.064669
v -0.297634 -0.537908 0.001371
v -0.400021 -0.612081 -0.186686
v -0.361537 -0.633720 -0.209063
v -0.359979 -0.667919 -0.173314
v -0.398463 -0.646280 -0.150937
vn -0.6031 0.7749 -0.1893
vn 0.1890 -0.0689 -0.9796
vn 0.4010 -0.9083 0.1188
vn -0.3913 -0.0658 0.9179
vn -0.6947 0.6963 -0.1804
vn 0.2393 -0.0167 -0.9708
vn 0.3546 -0.9224 0.1529
vn -0.5480 -0.1700 0.8190
vn -0.7304 0.6083 -0.3107
vn 0.3227 0.0098 -0.9464
vn 0.3654 -0.9295 0.0511
vn -0.6758 -0.3182 0.6649
vt 0.000000 1.000000
vt 0.500000 1.000000
vt 0.500000 0.750000
vt 0.000000 0.750000
vt 0.000000 0.250000
vt 0.500000 0.250000
vt 0.500000 0.000000
vt 0.000000 0.000000
vt 0.000000 0.500000
vt 0.500000 0.500000
vt 1.000000 1.000000
vt 1.000000 0.750000
vt 1.000000 0.250000
vt 1.000000 0.000000
vt 1.000000 0.500000
s 1
g C_Root_0.001_bone
usemtl bone
f 81/101/81 85/102/85 88/103/88 84/104/84
f 82/105/82 86/106/86 85/107/85 81/108/81
f 83/109/83 87/110/87 86/106/86 82/105/82
f 84/104/84 88/103/88 87/110/87 83/109/83
f 85/102/85 89/111/89 92/112/92 88/103/88
f 86/106/86 90/113/90 89/114/89 85/107/85
f 87/110/87 91/115/91 90/113/90 86/106/86
f 88/103/88 92/112/92 91/115/91 87/110/87
g C_Root_0.001_Mesh
v -0.065848 -0.249757 -0.020261
v 0.038231 -0.360000 -0.124251
v 0.065848 -0.470243 0.020261
v -0.038231 -0.360000 0.124251
v -0.308720 -0.455896 -0.095331
v -0.222366 -0.522092 -0.161371
v -0.211280 -0.604104 -0.064669
v -0.297634 -0.537908 0.001371
v -0.400021 -0.612081 -0.186686
v -0.361537 -0.633720 -0.209063
v -0.359979 -0.667919 -0.173314
v -0.398463 -0.646280 -0.150937
vn -0.6045 0.7742 -0.1877
vn 0.1838 -0.0709 -0.9804
vn 0.3988 -0.9091 0.1207
vn -0.3918 -0.0656 0.9177
vn -0.6931 0.6978 -0.1807
vn 0.2410 -0.0157 -0.9704
vn 0.3565 -0.9217 0.1528
vn -0.5462 -0.1688 0.8204
vn -0.7271 0.6054 -0.3236
vn 0.3220 0.0030 -0.9467
vn 0.3686 -0.9289 0.0354
vn -0.6788 -0.3244 0.6588
vt 0.500000 1.000000
vt 0.000000 0.750000
vt 0.000000 1.000000
vt 0.500000 0.250000
vt 0.000000 0.000000
vt 0.000000 0.250000
vt 0.000000 0.500000
vt 0.500000 0.500000
vt 1.000000 0.750000
vt 0.500000 0.750000
vt 1.000000 0.000000
vt 0.500000 0.000000
vt 1.000000 0.500000
vt 1.000000 1.000000
vt 1.000000 0.250000
s 1
g C_Root_0.001_bone
usemtl bone
f 97/116/97 96/117/96 93/118/93
f 98/119/98 93/120/93 94/121/94
f 95/122/95 98/119/98 94/121/94
f 96/117/96 99/123/99 95/122/95
f 97/116/97 104/124/104 100/125/100
f 98/119/98 101/126/101 97/127/97
f 103/128/103 98/119/98 99/123/99
f 104/124/104 99/123/99 100/125/100
f 97/116/97 100/125/100 96/117/96
f 98/119/98 97/127/97 93/120/93
f 95/122/95 99/123/99 98/119/98
f 96/117/96 100/125/100 99/123/99
f 97/116/97 101/129/101 104/124/104
f 98/119/98 102/130/102 101/126/101
f 103/128/103 102/130/102 98/119/98
f 104/124/104 103/128/103 99/123/99
g C_Root_1.001_C_Root_1Curve.001
v 0.087081 -0.286694 -0.090254
v 0.130895 -0.380000 0.061977
v -0.027082 -0.473306 0.050254
v -0.070895 -0.380000 -0.101977
v 0.198784 -0.514088 -0.227449
v 0.236306 -0.591571 -0.133702
v 0.121216 -0.645912 -0.132551
v 0.083694 -0.568429 -0.226298
v 0.204909 -0.673886 -0.347910
v 0.221202 -0.708739 -0.316768
v 0.175091 -0.726114 -0.312090
v 0.158798 -0.691261 -0.343232
vn 0.4946 0.6118 -0.6173
vn 0.8309 -0.0951 0.5482
vn -0.3747 -0.8087 0.4535
vn -0.7028 -0.0994 -0.7045
vn 0.5524 0.5703 -0.6080
vn 0.8855 -0.2501 0.3917
vn -0.2936 -0.8565 0.4244
vn -0.7612 -0.0332 -0.6477
vn 0.4690 0.5451 -0.6949
vn 0.9004 -0.3994 0.1725
vn -0.3508 -0.8894 0.2933
vn -0.8120 0.0633 -0.5802
vt 0.000000 1.000000
vt 0.500000 1.000000
vt 0.500000 0.750000
vt 0.000000 0.750000
vt 0.000000 0.250000
vt 0.500000 0.250000
vt 0.500000 0.000000
vt 0.000000 0.000000
vt 0.000000 0.500000
vt 0.500000 0.500000
vt 1.000000 1.000000
vt 1.000000 0.750000
vt 1.000000 0.250000
vt 1.000000 0.000000
vt 1.000000 0.500000
s 1
g C_Root_1.001_bone
usemtl bone
f 105/131/105 109/132/109 112/133/112 108/134/108
f 106/135/106 110/136/110 109/137/109 105/138/105
f 107/139/107 111/140/111 110/136/110 106/135/106
f 108/134/108 112/133/112 111/140/111 107/139/107
f 109/132/109 113/141/113 116/142/116 112/133/112
f 110/136/110 114/143/114 113/144/113 109/137/109
f 111/140/111 115/145/115 114/143/114 110/136/110
f 112/133/112 116/142/116 115/145/115 111/140/111
g C_Root_1.001_Mesh
v 0.087081 -0.286694 -0.090254
v 0.130895 -0.380000 0.061977
v -0.027082 -0.473306 0.050254
v -0.070895 -0.380000 -0.101977
v 0.198784 -0.514088 -0.227449
v 0.236306 -0.591571 -0.133702
v 0.121216 -0.645912 -0.132551
v 0.083694 -0.568429 -0.226298
v 0.204909 -0.673886 -0.347910
v 0.221202 -0.708739 -0.316768
v 0.175091 -0.726114 -0.312090
v 0.158798 -0.691261 -0.343232
vn 0.4974 0.6103 -0.6166
vn 0.8310 -0.0956 0.5481
vn -0.3722 -0.8096 0.4539
vn -0.6982 -0.1056 -0.7081
vn 0.5506 0.5724 -0.6076
vn 0.8851 -0.2481 0.3938
vn -0.2960 -0.8552 0.4255
vn -0.7624 -0.0314 -0.6464
vn 0.4547 0.5437 -0.7054
vn 0.9000 -0.4044 0.1629
vn -0.3623 -0.8886 0.2813
vn -0.8090 0.0617 -0.5845
vt 0.000000 1.000000
vt 0.500000 0.750000
vt 0.000000 0.750000
vt 0.000000 0.250000
vt 0.500000 0.000000
vt 0.000000 0.000000
vt 0.500000 0.500000
vt 0.000000 0.500000
vt 1.000000 1.000000
vt 0.500000 1.000000
vt 1.000000 0.250000
vt 0.500000 0.250000
vt 1.000000 0.500000
vt 1.000000 0.750000
vt 1.000000 0.000000
s 1
g C_Root_1.001_bone
usemtl bone
f 117/146/117 124/147/124 120/148/120
f 118/149/118 121/150/121 117/151/117
f 123/152/123 118/149/118 119/153/119
f 124/147/124 119/153/119 120/148/120
f 125/154/125 124/147/124 121/155/121
f 126/156/126 121/150/121 122/157/122
f 123/152/123 126/156/126 122/157/122
f 124/147/124 127/158/127 123/152/123
f 117/146/117 121/155/121 124/147/124
f 118/149/118 122/157/122 121/150/121
f 123/152/123 122/157/122 118/149/118
f 124/147/124 123/152/123 119/153/119
f 125/154/125 128/159/128 124/147/124
f 126/156/126 125/160/125 121/150/121
f 123/152/123 127/158/127 126/156/126
f 124/147/124 128/159/128 127/158/127
g C_Root_2.001_C_Root_2Curve.001
v 0.048570 -0.271080 0.090074
v -0.083409 -0.380000 0.157290
v -0.068570 -0.488920 0.009926
v 0.063409 -0.380000 -0.057290
v 0.217796 -0.452486 0.205751
v 0.126377 -0.527855 0.252249
v 0.142204 -0.607514 0.154249
v 0.233623 -0.532145 0.107751
v 0.323641 -0.589097 0.299163
v 0.288070 -0.618394 0.317231
v 0.296359 -0.650903 0.280837
v 0.331930 -0.621606 0.262769
vn 0.5454 0.7497 0.3749
vn -0.4576 -0.0781 0.8857
vn -0.3473 -0.9075 -0.2362
vn 0.6586 -0.0774 -0.7485
vn 0.5663 0.7349 0.3731
vn -0.4471 -0.1006 0.8888
vn -0.2648 -0.9449 -0.1922
vn 0.7114 -0.1398 -0.6887
vn 0.5649 0.7180 0.4066
vn -0.4159 -0.0899 0.9049
vn -0.1895 -0.9766 -0.1016
vn 0.7837 -0.1749 -0.5959
vt 0.000000 1.000000
vt 0.500000 1.000000
vt 0.500000 0.750000
vt 0.000000 0.750000
vt 0.000000 0.250000
vt 0.500000 0.250000
vt 0.500000 0.000000
vt 0.000000 0.000000
vt 0.000000 0.500000
vt 0.500000 0.500000
vt 1.000000 1.000000
vt 1.000000 0.750000
vt 1.000000 0.250000
vt 1.000000 0.000000
vt 1.000000 0.500000
s 1
g C_Root_2.001_bone
usemtl bone
f 129/161/129 133/162/133 136/163/136 132/164/132
f 130/165/130 134/166/134 133/167/133 129/168/129
f 131/169/131 135/170/135 134/166/134 130/165/130
f 132/164/132 136/163/136 135/170/135 131/169/131
f 133/162/133 137/171/137 140/172/140 136/163/136
f 134/166/134 138/173/138 137/174/137 133/167/133
f 135/170/135 139/175/139 138/173/138 134/166/134
f 136/163/136 140/172/140 139/175/139 135/170/135
g C_Root_2.001_Mesh
v 0.048570 -0.271080 0.090074
v -0.083409 -0.380000 0.157290
v -0.068570 -0.488920 0.009926
v 0.063409 -0.380000 -0.057290
v 0.217796 -0.452486 0.205751
v 0.126377 -0.527855 0.252249
v 0.142204 -0.607514 0.154249
v 0.233623 -0.532145 0.107751
v 0.323641 -0.589097 0.299163
v 0.288070 -0.618394 0.317231
v 0.296359 -0.650903 0.280837
v 0.331930 -0.621606 0.262769
vn 0.5469 0.7488 0.3743
vn -0.4572 -0.0799 0.8858
vn -0.3468 -0.9077 -0.2365
vn 0.6586 -0.0779 -0.7485
vn 0.5660 0.7353 0.3729
vn -0.4475 -0.1003 0.8886
vn -0.2659 -0.9446 -0.1925
vn 0.7110 -0.1390 -0.6893
vn 0.5627 0.7171 0.4112
vn -0.4128 -0.0864 0.9067
vn -0.1893 -0.9770 -0.0986
vn 0.7856 -0.1740 -0.5938
vt 0.500000 1.000000
vt 0.000000 0.750000
vt 0.000000 1.000000
vt 0.500000 0.250000
vt 0.000000 0.000000
vt 0.000000 0.250000
vt 0.000000 0.500000
vt 0.500000 0.500000
vt 1.000000 0.750000
vt 0.500000 0.750000
vt 1.000000 0.000000
vt 0.500000 0.000000
vt 1.000000 0.500000
vt 1.000000 1.000000
vt 1.000000 0.250000
s 1
g C_Root_2.001_bone
usemtl bone
f 145/176/145 144/177/144 141/178/141
f 146/179/146 141/180/141 142/181/142
f 143/182/143 146/179/146 142/181/142
f 144/177/144 147/183/147 143/182/143
f 145/176/145 152/184/152 148/185/148
f 146/179/146 149/186/149 145/187/145
f 151/188/151 146/179/146 147/183/147
f 152/184/152 147/183/147 148/185/148
f 145/176/145 148/185/148 144/177/144
f 146/179/146 145/187/145 141/180/141
f 143/182/143 147/183/147 146/179/146
f 144/177/144 148/185/148 147/183/147
f 145/176/145 149/189/149 152/184/152
f 146/179/146 150/190/150 149/186/149
f 151/188/151 150/190/150 146/179/146
f 152/184/152 151/188/151 147/183/147
