# Second Rite deterministic item batch 63-72
# Comet Edge
mtllib item_batch_63_72.mtl
o comet_edge
s off
v -0.310000 -0.980000 -0.094564
v -0.334800 -0.630000 -0.094564
v -0.154200 1.460000 -0.094564
v 0.100000 2.040000 -0.094564
v 0.354200 1.460000 -0.094564
v 0.334800 -0.630000 -0.094564
v 0.310000 -0.980000 -0.094564
v -0.310000 -0.980000 0.040437
v -0.334800 -0.630000 0.040437
v -0.154200 1.460000 0.040437
v 0.100000 2.040000 0.040437
v 0.354200 1.460000 0.040437
v 0.334800 -0.630000 0.040437
v 0.310000 -0.980000 0.040437
v -0.540000 -1.160000 -0.162064
v 0.540000 -1.160000 -0.162064
v 0.540000 -1.000000 -0.162064
v -0.540000 -1.000000 -0.162064
v -0.540000 -1.160000 0.107937
v 0.540000 -1.160000 0.107937
v 0.540000 -1.000000 0.107937
v -0.540000 -1.000000 0.107937
v -0.110000 -1.140000 -0.027064
v -0.055000 -1.140000 -0.122327
v 0.055000 -1.140000 -0.122327
v 0.110000 -1.140000 -0.027064
v 0.055000 -1.140000 0.068199
v -0.055000 -1.140000 0.068199
v -0.090000 -1.860000 -0.027064
v -0.045000 -1.860000 -0.105006
v 0.045000 -1.860000 -0.105006
v 0.090000 -1.860000 -0.027064
v 0.045000 -1.860000 0.050878
v -0.045000 -1.860000 0.050878
v 0.000000 -1.140000 -0.027064
v 0.000000 -1.860000 -0.027064
v 0.160000 -1.940000 -0.027064
v 0.000000 -1.940000 0.132937
v -0.160000 -1.940000 -0.027064
v -0.000000 -1.940000 -0.187063
v 0.000000 -1.840000 -0.027064
v 0.000000 -2.040000 -0.027064
v 0.004000 -0.589600 0.036387
v 0.066000 -0.589600 0.036387
v 0.066000 1.069600 0.036387
v 0.004000 1.069600 0.036387
v 0.004000 -0.589600 0.057986
v 0.066000 -0.589600 0.057986
v 0.066000 1.069600 0.057986
v 0.004000 1.069600 0.057986
v 0.280000 0.415000 0.072937
v 0.197082 0.415000 0.187063
v 0.062918 0.415000 0.143471
v 0.062918 0.415000 0.002402
v 0.197082 0.415000 -0.041191
v 0.160000 0.475000 0.072937
v 0.160000 0.355000 0.072937
v 0.260000 0.915000 0.072937
v 0.190902 0.915000 0.168042
v 0.079098 0.915000 0.131715
v 0.079098 0.915000 0.014157
v 0.190902 0.915000 -0.022170
v 0.160000 0.975000 0.072937
v 0.160000 0.855000 0.072937
v 0.240000 1.365000 0.072937
v 0.184721 1.365000 0.149021
v 0.095279 1.365000 0.119959
v 0.095279 1.365000 0.025913
v 0.184721 1.365000 -0.003149
v 0.160000 1.425000 0.072937
v 0.160000 1.305000 0.072937
v -0.480000 -1.035000 -0.107064
v -0.220000 -1.275000 -0.107064
v 0.000000 -0.955000 -0.107064
v -0.200000 -0.735000 -0.107064
v -0.480000 -1.035000 0.052936
v -0.220000 -1.275000 0.052936
v 0.000000 -0.955000 0.052936
v -0.200000 -0.735000 0.052936
usemtl wrought_iron
f 1 3 2
f 8 9 10
f 1 4 3
f 8 10 11
f 1 5 4
f 8 11 12
f 1 6 5
f 8 12 13
f 1 7 6
f 8 13 14
f 1 2 9
f 1 9 8
f 2 3 10
f 2 10 9
f 3 4 11
f 3 11 10
f 4 5 12
f 4 12 11
f 5 6 13
f 5 13 12
f 6 7 14
f 6 14 13
f 7 1 8
f 7 8 14
usemtl ritual_gold
f 15 18 17
f 15 17 16
f 19 20 21
f 19 21 22
f 15 16 20
f 15 20 19
f 18 22 21
f 18 21 17
f 15 19 22
f 15 22 18
f 16 17 21
f 16 21 20
usemtl dark_wood
f 35 24 23
f 36 29 30
f 23 24 30
f 23 30 29
f 35 25 24
f 36 30 31
f 24 25 31
f 24 31 30
f 35 26 25
f 36 31 32
f 25 26 32
f 25 32 31
f 35 27 26
f 36 32 33
f 26 27 33
f 26 33 32
f 35 28 27
f 36 33 34
f 27 28 34
f 27 34 33
f 35 23 28
f 36 34 29
f 28 23 29
f 28 29 34
usemtl ritual_gold
f 41 37 38
f 42 38 37
f 41 38 39
f 42 39 38
f 41 39 40
f 42 40 39
f 41 40 37
f 42 37 40
f 43 46 45
f 43 45 44
f 47 48 49
f 47 49 50
f 43 44 48
f 43 48 47
f 46 50 49
f 46 49 45
f 43 47 50
f 43 50 46
f 44 45 49
f 44 49 48
usemtl crystal
f 56 51 52
f 57 52 51
f 56 52 53
f 57 53 52
f 56 53 54
f 57 54 53
f 56 54 55
f 57 55 54
f 56 55 51
f 57 51 55
f 63 58 59
f 64 59 58
f 63 59 60
f 64 60 59
f 63 60 61
f 64 61 60
f 63 61 62
f 64 62 61
f 63 62 58
f 64 58 62
f 70 65 66
f 71 66 65
f 70 66 67
f 71 67 66
f 70 67 68
f 71 68 67
f 70 68 69
f 71 69 68
f 70 69 65
f 71 65 69
usemtl ritual_gold
f 72 74 73
f 76 77 78
f 72 75 74
f 76 78 79
f 72 73 77
f 72 77 76
f 73 74 78
f 73 78 77
f 74 75 79
f 74 79 78
f 75 72 76
f 75 76 79
