# food cohort: composed from tools/asset-production/parts.py
# generated by tools/asset-production/lathe.py
mtllib food_cohort.mtl
o coxinha
v 0.000000 0.000000 0.000000
v 0.446400 0.162000 0.000000
v 0.402193 0.162000 0.193686
v 0.278326 0.162000 0.349010
v 0.099333 0.162000 0.435208
v -0.099333 0.162000 0.435208
v -0.278326 0.162000 0.349010
v -0.402193 0.162000 0.193686
v -0.446400 0.162000 0.000000
v -0.402193 0.162000 -0.193686
v -0.278326 0.162000 -0.349010
v -0.099333 0.162000 -0.435208
v 0.099333 0.162000 -0.435208
v 0.278326 0.162000 -0.349010
v 0.402193 0.162000 -0.193686
v 0.620000 0.459000 0.000000
v 0.558601 0.459000 0.269008
v 0.386564 0.459000 0.484736
v 0.137963 0.459000 0.604455
v -0.137963 0.459000 0.604455
v -0.386564 0.459000 0.484736
v -0.558601 0.459000 0.269008
v -0.620000 0.459000 0.000000
v -0.558601 0.459000 -0.269008
v -0.386564 0.459000 -0.484736
v -0.137963 0.459000 -0.604455
v 0.137963 0.459000 -0.604455
v 0.386564 0.459000 -0.484736
v 0.558601 0.459000 -0.269008
v 0.496000 0.837000 0.000000
v 0.446881 0.837000 0.215206
v 0.309251 0.837000 0.387788
v 0.110370 0.837000 0.483564
v -0.110370 0.837000 0.483564
v -0.309251 0.837000 0.387788
v -0.446881 0.837000 0.215206
v -0.496000 0.837000 0.000000
v -0.446881 0.837000 -0.215206
v -0.309251 0.837000 -0.387788
v -0.110370 0.837000 -0.483564
v 0.110370 0.837000 -0.483564
v 0.309251 0.837000 -0.387788
v 0.446881 0.837000 -0.215206
v 0.260400 1.147500 0.000000
v 0.234612 1.147500 0.112983
v 0.162357 1.147500 0.203589
v 0.057944 1.147500 0.253871
v -0.057944 1.147500 0.253871
v -0.162357 1.147500 0.203589
v -0.234612 1.147500 0.112983
v -0.260400 1.147500 0.000000
v -0.234612 1.147500 -0.112983
v -0.162357 1.147500 -0.203589
v -0.057944 1.147500 -0.253871
v 0.057944 1.147500 -0.253871
v 0.162357 1.147500 -0.203589
v 0.234612 1.147500 -0.112983
v 0.000000 1.350000 0.000000
v 0.590000 0.420000 0.000000
v 0.527812 0.420000 0.085595
v 0.427188 0.420000 0.052901
v 0.427188 0.420000 -0.052901
v 0.527812 0.420000 -0.085595
v 0.586933 0.432941 0.000000
v 0.526864 0.432941 0.082679
v 0.429669 0.432941 0.051098
v 0.429669 0.432941 -0.051098
v 0.526864 0.432941 -0.082679
v 0.577942 0.445000 0.000000
v 0.524085 0.445000 0.074128
v 0.436943 0.445000 0.045813
v 0.436943 0.445000 -0.045813
v 0.524085 0.445000 -0.074128
v 0.563640 0.455355 0.000000
v 0.519666 0.455355 0.060525
v 0.448514 0.455355 0.037406
v 0.448514 0.455355 -0.037406
v 0.519666 0.455355 -0.060525
v 0.545000 0.463301 0.000000
v 0.513906 0.463301 0.042798
v 0.463594 0.463301 0.026450
v 0.463594 0.463301 -0.026450
v 0.513906 0.463301 -0.042798
v 0.523294 0.468296 0.000000
v 0.507198 0.468296 0.022154
v 0.481155 0.468296 0.013692
v 0.481155 0.468296 -0.013692
v 0.507198 0.468296 -0.022154
v 0.500000 0.470000 0.000000
v 0.500000 0.420000 0.000000
v 0.358407 0.436887 0.462262
v 0.295168 0.436887 0.549303
v 0.192846 0.436887 0.516056
v 0.192846 0.436887 0.408468
v 0.295168 0.436887 0.375222
v 0.355289 0.450047 0.462262
v 0.294205 0.450047 0.546337
v 0.195369 0.450047 0.514223
v 0.195369 0.450047 0.410301
v 0.294205 0.450047 0.378188
v 0.346146 0.462309 0.462262
v 0.291379 0.462309 0.537642
v 0.202766 0.462309 0.508849
v 0.202766 0.462309 0.415675
v 0.291379 0.462309 0.386883
v 0.331602 0.472840 0.462262
v 0.286885 0.472840 0.523809
v 0.214532 0.472840 0.500300
v 0.214532 0.472840 0.424224
v 0.286885 0.472840 0.400715
v 0.312647 0.480920 0.462262
v 0.281028 0.480920 0.505783
v 0.229867 0.480920 0.489159
v 0.229867 0.480920 0.435365
v 0.281028 0.480920 0.418742
v 0.290574 0.485999 0.462262
v 0.274207 0.485999 0.484790
v 0.247724 0.485999 0.476185
v 0.247724 0.485999 0.448339
v 0.274207 0.485999 0.439735
v 0.266887 0.487732 0.462262
v 0.266887 0.436887 0.462262
v -0.137337 0.395096 0.389877
v -0.197977 0.395096 0.473341
v -0.296094 0.395096 0.441460
v -0.296094 0.395096 0.338294
v -0.197977 0.395096 0.306414
v -0.140327 0.407714 0.389877
v -0.198901 0.407714 0.470497
v -0.293675 0.407714 0.439703
v -0.293675 0.407714 0.340052
v -0.198901 0.407714 0.309258
v -0.149095 0.419473 0.389877
v -0.201610 0.419473 0.462159
v -0.286582 0.419473 0.434550
v -0.286582 0.419473 0.345205
v -0.201610 0.419473 0.317596
v -0.163041 0.429571 0.389877
v -0.205920 0.429571 0.448895
v -0.275299 0.429571 0.426352
v -0.275299 0.429571 0.353402
v -0.205920 0.429571 0.330860
v -0.181216 0.437319 0.389877
v -0.211536 0.437319 0.431609
v -0.260595 0.437319 0.415669
v -0.260595 0.437319 0.364086
v -0.211536 0.437319 0.348146
v -0.202382 0.442189 0.389877
v -0.218077 0.442189 0.411479
v -0.243471 0.442189 0.403228
v -0.243471 0.442189 0.376527
v -0.218077 0.442189 0.368275
v -0.225096 0.443851 0.389877
v -0.225096 0.395096 0.389877
v -0.447894 0.439840 0.000000
v -0.511317 0.439840 0.087293
v -0.613936 0.439840 0.053950
v -0.613936 0.439840 -0.053950
v -0.511317 0.439840 -0.087293
v -0.451022 0.453038 0.000000
v -0.512283 0.453038 0.084319
v -0.611406 0.453038 0.052112
v -0.611406 0.453038 -0.052112
v -0.512283 0.453038 -0.084319
v -0.460191 0.465336 0.000000
v -0.515117 0.465336 0.075598
v -0.603988 0.465336 0.046722
v -0.603988 0.465336 -0.046722
v -0.515117 0.465336 -0.075598
v -0.474778 0.475897 0.000000
v -0.519624 0.475897 0.061726
v -0.592187 0.475897 0.038149
v -0.592187 0.475897 -0.038149
v -0.519624 0.475897 -0.061726
v -0.493787 0.484000 0.000000
v -0.525498 0.484000 0.043647
v -0.576808 0.484000 0.026975
v -0.576808 0.484000 -0.026975
v -0.525498 0.484000 -0.043647
v -0.515924 0.489094 0.000000
v -0.532339 0.489094 0.022593
v -0.558899 0.489094 0.013963
v -0.558899 0.489094 -0.013963
v -0.532339 0.489094 -0.022593
v -0.539680 0.490832 0.000000
v -0.539680 0.439840 0.000000
v -0.156037 0.415645 -0.425470
v -0.217955 0.415645 -0.340248
v -0.318140 0.415645 -0.372800
v -0.318140 0.415645 -0.478141
v -0.217955 0.415645 -0.510693
v -0.159091 0.428530 -0.425470
v -0.218899 0.428530 -0.343152
v -0.315670 0.428530 -0.374595
v -0.315670 0.428530 -0.476346
v -0.218899 0.428530 -0.507789
v -0.168043 0.440537 -0.425470
v -0.221665 0.440537 -0.351666
v -0.308428 0.440537 -0.379857
v -0.308428 0.440537 -0.471084
v -0.221665 0.440537 -0.499275
v -0.182283 0.450847 -0.425470
v -0.226065 0.450847 -0.365209
v -0.296907 0.450847 -0.388227
v -0.296907 0.450847 -0.462714
v -0.226065 0.450847 -0.485732
v -0.200841 0.458758 -0.425470
v -0.231800 0.458758 -0.382859
v -0.281893 0.458758 -0.399135
v -0.281893 0.458758 -0.451806
v -0.231800 0.458758 -0.468082
v -0.222453 0.463731 -0.425470
v -0.238479 0.463731 -0.403413
v -0.264408 0.463731 -0.411838
v -0.264408 0.463731 -0.439103
v -0.238479 0.463731 -0.447528
v -0.245645 0.465428 -0.425470
v -0.245645 0.415645 -0.425470
v 0.325374 0.406582 -0.409772
v 0.264020 0.406582 -0.325325
v 0.164747 0.406582 -0.357581
v 0.164747 0.406582 -0.461962
v 0.264020 0.406582 -0.494218
v 0.322349 0.419349 -0.409772
v 0.263085 0.419349 -0.328203
v 0.167195 0.419349 -0.359359
v 0.167195 0.419349 -0.460184
v 0.263085 0.419349 -0.491341
v 0.313478 0.431246 -0.409772
v 0.260344 0.431246 -0.336639
v 0.174371 0.431246 -0.364573
v 0.174371 0.431246 -0.454970
v 0.260344 0.431246 -0.482905
v 0.299367 0.441463 -0.409772
v 0.255984 0.441463 -0.350059
v 0.185787 0.441463 -0.372867
v 0.185787 0.441463 -0.446676
v 0.255984 0.441463 -0.469484
v 0.280978 0.449302 -0.409772
v 0.250301 0.449302 -0.367548
v 0.200665 0.449302 -0.383676
v 0.200665 0.449302 -0.435867
v 0.250301 0.449302 -0.451995
v 0.259563 0.454230 -0.409772
v 0.243683 0.454230 -0.387915
v 0.217990 0.454230 -0.396264
v 0.217990 0.454230 -0.423280
v 0.243683 0.454230 -0.431628
v 0.236582 0.455911 -0.409772
v 0.236582 0.406582 -0.409772
vt 0.000000 0.000000
vt 0.076923 0.000000
vt 0.153846 0.000000
vt 0.230769 0.000000
vt 0.307692 0.000000
vt 0.384615 0.000000
vt 0.461538 0.000000
vt 0.538462 0.000000
vt 0.615385 0.000000
vt 0.692308 0.000000
vt 0.769231 0.000000
vt 0.846154 0.000000
vt 0.923077 0.000000
vt 1.000000 0.000000
vt 0.000000 0.245247
vt 0.071429 0.245247
vt 0.142857 0.245247
vt 0.214286 0.245247
vt 0.285714 0.245247
vt 0.357143 0.245247
vt 0.428571 0.245247
vt 0.500000 0.245247
vt 0.571429 0.245247
vt 0.642857 0.245247
vt 0.714286 0.245247
vt 0.785714 0.245247
vt 0.857143 0.245247
vt 0.928571 0.245247
vt 0.000000 0.422908
vt 0.071429 0.422908
vt 0.142857 0.422908
vt 0.214286 0.422908
vt 0.285714 0.422908
vt 0.357143 0.422908
vt 0.428571 0.422908
vt 0.500000 0.422908
vt 0.571429 0.422908
vt 0.642857 0.422908
vt 0.714286 0.422908
vt 0.785714 0.422908
vt 0.857143 0.422908
vt 0.928571 0.422908
vt 0.000000 0.628355
vt 0.071429 0.628355
vt 0.142857 0.628355
vt 0.214286 0.628355
vt 0.285714 0.628355
vt 0.357143 0.628355
vt 0.428571 0.628355
vt 0.500000 0.628355
vt 0.571429 0.628355
vt 0.642857 0.628355
vt 0.714286 0.628355
vt 0.785714 0.628355
vt 0.857143 0.628355
vt 0.928571 0.628355
vt 0.000000 0.829644
vt 0.071429 0.829644
vt 0.142857 0.829644
vt 0.214286 0.829644
vt 0.285714 0.829644
vt 0.357143 0.829644
vt 0.428571 0.829644
vt 0.500000 0.829644
vt 0.571429 0.829644
vt 0.642857 0.829644
vt 0.714286 0.829644
vt 0.785714 0.829644
vt 0.857143 0.829644
vt 0.928571 0.829644
vt 0.000000 1.000000
vt 0.076923 1.000000
vt 0.153846 1.000000
vt 0.230769 1.000000
vt 0.307692 1.000000
vt 0.384615 1.000000
vt 0.461538 1.000000
vt 0.538462 1.000000
vt 0.615385 1.000000
vt 0.692308 1.000000
vt 0.769231 1.000000
vt 0.846154 1.000000
vt 0.923077 1.000000
vt 1.000000 1.000000
vt 0.000000 0.000000
vt 0.200000 0.000000
vt 0.400000 0.000000
vt 0.600000 0.000000
vt 0.800000 0.000000
vt 0.000000 0.118860
vt 0.200000 0.118860
vt 0.400000 0.118860
vt 0.600000 0.118860
vt 0.800000 0.118860
vt 0.000000 0.253293
vt 0.200000 0.253293
vt 0.400000 0.253293
vt 0.600000 0.253293
vt 0.800000 0.253293
vt 0.000000 0.411106
vt 0.200000 0.411106
vt 0.400000 0.411106
vt 0.600000 0.411106
vt 0.800000 0.411106
vt 0.000000 0.592197
vt 0.200000 0.592197
vt 0.400000 0.592197
vt 0.600000 0.592197
vt 0.800000 0.592197
vt 0.000000 0.791262
vt 0.200000 0.791262
vt 0.400000 0.791262
vt 0.600000 0.791262
vt 0.800000 0.791262
vt 0.000000 1.000000
vt 0.250000 1.000000
vt 0.500000 1.000000
vt 0.750000 1.000000
vt 1.000000 1.000000
vt 0.500000 0.000000
vt 0.000000 0.000000
vt 0.200000 0.000000
vt 0.400000 0.000000
vt 0.600000 0.000000
vt 0.800000 0.000000
vt 0.000000 0.118860
vt 0.200000 0.118860
vt 0.400000 0.118860
vt 0.600000 0.118860
vt 0.800000 0.118860
vt 0.000000 0.253293
vt 0.200000 0.253293
vt 0.400000 0.253293
vt 0.600000 0.253293
vt 0.800000 0.253293
vt 0.000000 0.411106
vt 0.200000 0.411106
vt 0.400000 0.411106
vt 0.600000 0.411106
vt 0.800000 0.411106
vt 0.000000 0.592197
vt 0.200000 0.592197
vt 0.400000 0.592197
vt 0.600000 0.592197
vt 0.800000 0.592197
vt 0.000000 0.791262
vt 0.200000 0.791262
vt 0.400000 0.791262
vt 0.600000 0.791262
vt 0.800000 0.791262
vt 0.000000 1.000000
vt 0.250000 1.000000
vt 0.500000 1.000000
vt 0.750000 1.000000
vt 1.000000 1.000000
vt 0.500000 0.000000
vt 0.000000 0.000000
vt 0.200000 0.000000
vt 0.400000 0.000000
vt 0.600000 0.000000
vt 0.800000 0.000000
vt 0.000000 0.118860
vt 0.200000 0.118860
vt 0.400000 0.118860
vt 0.600000 0.118860
vt 0.800000 0.118860
vt 0.000000 0.253293
vt 0.200000 0.253293
vt 0.400000 0.253293
vt 0.600000 0.253293
vt 0.800000 0.253293
vt 0.000000 0.411106
vt 0.200000 0.411106
vt 0.400000 0.411106
vt 0.600000 0.411106
vt 0.800000 0.411106
vt 0.000000 0.592197
vt 0.200000 0.592197
vt 0.400000 0.592197
vt 0.600000 0.592197
vt 0.800000 0.592197
vt 0.000000 0.791262
vt 0.200000 0.791262
vt 0.400000 0.791262
vt 0.600000 0.791262
vt 0.800000 0.791262
vt 0.000000 1.000000
vt 0.250000 1.000000
vt 0.500000 1.000000
vt 0.750000 1.000000
vt 1.000000 1.000000
vt 0.500000 0.000000
vt 0.000000 0.000000
vt 0.200000 0.000000
vt 0.400000 0.000000
vt 0.600000 0.000000
vt 0.800000 0.000000
vt 0.000000 0.118860
vt 0.200000 0.118860
vt 0.400000 0.118860
vt 0.600000 0.118860
vt 0.800000 0.118860
vt 0.000000 0.253293
vt 0.200000 0.253293
vt 0.400000 0.253293
vt 0.600000 0.253293
vt 0.800000 0.253293
vt 0.000000 0.411106
vt 0.200000 0.411106
vt 0.400000 0.411106
vt 0.600000 0.411106
vt 0.800000 0.411106
vt 0.000000 0.592197
vt 0.200000 0.592197
vt 0.400000 0.592197
vt 0.600000 0.592197
vt 0.800000 0.592197
vt 0.000000 0.791262
vt 0.200000 0.791262
vt 0.400000 0.791262
vt 0.600000 0.791262
vt 0.800000 0.791262
vt 0.000000 1.000000
vt 0.250000 1.000000
vt 0.500000 1.000000
vt 0.750000 1.000000
vt 1.000000 1.000000
vt 0.500000 0.000000
vt 0.000000 0.000000
vt 0.200000 0.000000
vt 0.400000 0.000000
vt 0.600000 0.000000
vt 0.800000 0.000000
vt 0.000000 0.118860
vt 0.200000 0.118860
vt 0.400000 0.118860
vt 0.600000 0.118860
vt 0.800000 0.118860
vt 0.000000 0.253293
vt 0.200000 0.253293
vt 0.400000 0.253293
vt 0.600000 0.253293
vt 0.800000 0.253293
vt 0.000000 0.411106
vt 0.200000 0.411106
vt 0.400000 0.411106
vt 0.600000 0.411106
vt 0.800000 0.411106
vt 0.000000 0.592197
vt 0.200000 0.592197
vt 0.400000 0.592197
vt 0.600000 0.592197
vt 0.800000 0.592197
vt 0.000000 0.791262
vt 0.200000 0.791262
vt 0.400000 0.791262
vt 0.600000 0.791262
vt 0.800000 0.791262
vt 0.000000 1.000000
vt 0.250000 1.000000
vt 0.500000 1.000000
vt 0.750000 1.000000
vt 1.000000 1.000000
vt 0.500000 0.000000
vt 0.000000 0.000000
vt 0.200000 0.000000
vt 0.400000 0.000000
vt 0.600000 0.000000
vt 0.800000 0.000000
vt 0.000000 0.118860
vt 0.200000 0.118860
vt 0.400000 0.118860
vt 0.600000 0.118860
vt 0.800000 0.118860
vt 0.000000 0.253293
vt 0.200000 0.253293
vt 0.400000 0.253293
vt 0.600000 0.253293
vt 0.800000 0.253293
vt 0.000000 0.411106
vt 0.200000 0.411106
vt 0.400000 0.411106
vt 0.600000 0.411106
vt 0.800000 0.411106
vt 0.000000 0.592197
vt 0.200000 0.592197
vt 0.400000 0.592197
vt 0.600000 0.592197
vt 0.800000 0.592197
vt 0.000000 0.791262
vt 0.200000 0.791262
vt 0.400000 0.791262
vt 0.600000 0.791262
vt 0.800000 0.791262
vt 0.000000 1.000000
vt 0.250000 1.000000
vt 0.500000 1.000000
vt 0.750000 1.000000
vt 1.000000 1.000000
vt 0.500000 0.000000
vn 0.000000 1.000000 -0.000000
vn -0.574949 0.769916 -0.276881
vn -0.638145 0.769916 0.000000
vn -0.397877 0.769916 -0.498922
vn -0.142001 0.769916 -0.622146
vn 0.142001 0.769916 -0.622146
vn 0.397877 0.769916 -0.498922
vn 0.574949 0.769916 -0.276881
vn 0.638145 0.769916 -0.000000
vn 0.574949 0.769916 0.276881
vn 0.397877 0.769916 0.498922
vn 0.142001 0.769916 0.622146
vn -0.142001 0.769916 0.622146
vn -0.397877 0.769916 0.498922
vn -0.574949 0.769916 0.276881
vn -0.895829 0.106668 -0.431408
vn -0.994295 0.106668 0.000000
vn -0.619933 0.106668 -0.777371
vn -0.221251 0.106668 -0.969366
vn 0.221251 0.106668 -0.969366
vn 0.619933 0.106668 -0.777371
vn 0.895829 0.106668 -0.431408
vn 0.994295 0.106668 -0.000000
vn 0.895829 0.106668 0.431408
vn 0.619933 0.106668 0.777371
vn 0.221251 0.106668 0.969366
vn -0.221251 0.106668 0.969366
vn -0.619933 0.106668 0.777371
vn -0.895829 0.106668 0.431408
vn -0.797652 -0.464970 -0.384129
vn -0.885326 -0.464970 0.000000
vn -0.551992 -0.464970 -0.692176
vn -0.197004 -0.464970 -0.863130
vn 0.197004 -0.464970 -0.863130
vn 0.551992 -0.464970 -0.692176
vn 0.797652 -0.464970 -0.384129
vn 0.885326 -0.464970 -0.000000
vn 0.797652 -0.464970 0.384129
vn 0.551992 -0.464970 0.692176
vn 0.197004 -0.464970 0.863130
vn -0.197004 -0.464970 0.863130
vn -0.551992 -0.464970 0.692176
vn -0.797652 -0.464970 0.384129
vn -0.640579 -0.703203 -0.308487
vn -0.710989 -0.703203 0.000000
vn -0.443294 -0.703203 -0.555874
vn -0.158210 -0.703203 -0.693163
vn 0.158210 -0.703203 -0.693163
vn 0.443294 -0.703203 -0.555874
vn 0.640579 -0.703203 -0.308487
vn 0.710989 -0.703203 -0.000000
vn 0.640579 -0.703203 0.308487
vn 0.443294 -0.703203 0.555874
vn 0.158210 -0.703203 0.693163
vn -0.158210 -0.703203 0.693163
vn -0.443294 -0.703203 0.555874
vn -0.640579 -0.703203 0.308487
vn 0.000000 -1.000000 -0.000000
vn -0.973051 -0.230588 0.000000
vn -0.300689 -0.230588 -0.925427
vn -0.279250 -0.428226 -0.859443
vn -0.903672 -0.428226 0.000000
vn 0.787215 -0.230588 -0.571945
vn 0.731086 -0.428226 -0.531165
vn 0.787215 -0.230588 0.571945
vn 0.731086 -0.428226 0.531165
vn -0.300689 -0.230588 0.925427
vn -0.279250 -0.428226 0.859443
vn -0.215916 -0.715396 -0.664522
vn -0.698720 -0.715396 -0.000000
vn 0.565276 -0.715396 -0.410697
vn 0.565276 -0.715396 0.410697
vn -0.215916 -0.715396 0.664522
vn -0.151481 -0.871609 -0.466210
vn -0.490202 -0.871609 0.000000
vn 0.396582 -0.871609 -0.288133
vn 0.396582 -0.871609 0.288133
vn -0.151481 -0.871609 0.466210
vn -0.095276 -0.951283 -0.293228
vn -0.308318 -0.951283 -0.000000
vn 0.249435 -0.951283 -0.181225
vn 0.249435 -0.951283 0.181225
vn -0.095276 -0.951283 0.293228
vn -0.045918 -0.988898 -0.141322
vn -0.148595 -0.988898 0.000000
vn 0.120215 -0.988898 -0.087342
vn 0.120215 -0.988898 0.087342
vn -0.045918 -0.988898 0.141322
usemtl wax
s 1
f 1/1/1 3/16/2 2/15/3
s 1
f 1/2/1 4/17/4 3/16/2
s 1
f 1/3/1 5/18/5 4/17/4
s 1
f 1/4/1 6/19/6 5/18/5
s 1
f 1/5/1 7/20/7 6/19/6
s 1
f 1/6/1 8/21/8 7/20/7
s 1
f 1/7/1 9/22/9 8/21/8
s 1
f 1/8/1 10/23/10 9/22/9
s 1
f 1/9/1 11/24/11 10/23/10
s 1
f 1/10/1 12/25/12 11/24/11
s 1
f 1/11/1 13/26/13 12/25/12
s 1
f 1/12/1 14/27/14 13/26/13
s 1
f 1/13/1 15/28/15 14/27/14
s 1
f 1/14/1 2/15/3 15/28/15
s 1
f 2/15/3 3/16/2 17/30/16 16/29/17
s 1
f 3/16/2 4/17/4 18/31/18 17/30/16
s 1
f 4/17/4 5/18/5 19/32/19 18/31/18
s 1
f 5/18/5 6/19/6 20/33/20 19/32/19
s 1
f 6/19/6 7/20/7 21/34/21 20/33/20
s 1
f 7/20/7 8/21/8 22/35/22 21/34/21
s 1
f 8/21/8 9/22/9 23/36/23 22/35/22
s 1
f 9/22/9 10/23/10 24/37/24 23/36/23
s 1
f 10/23/10 11/24/11 25/38/25 24/37/24
s 1
f 11/24/11 12/25/12 26/39/26 25/38/25
s 1
f 12/25/12 13/26/13 27/40/27 26/39/26
s 1
f 13/26/13 14/27/14 28/41/28 27/40/27
s 1
f 14/27/14 15/28/15 29/42/29 28/41/28
s 1
f 15/28/15 2/15/3 16/29/17 29/42/29
s 1
f 16/29/17 17/30/16 31/44/30 30/43/31
s 1
f 17/30/16 18/31/18 32/45/32 31/44/30
s 1
f 18/31/18 19/32/19 33/46/33 32/45/32
s 1
f 19/32/19 20/33/20 34/47/34 33/46/33
s 1
f 20/33/20 21/34/21 35/48/35 34/47/34
s 1
f 21/34/21 22/35/22 36/49/36 35/48/35
s 1
f 22/35/22 23/36/23 37/50/37 36/49/36
s 1
f 23/36/23 24/37/24 38/51/38 37/50/37
s 1
f 24/37/24 25/38/25 39/52/39 38/51/38
s 1
f 25/38/25 26/39/26 40/53/40 39/52/39
s 1
f 26/39/26 27/40/27 41/54/41 40/53/40
s 1
f 27/40/27 28/41/28 42/55/42 41/54/41
s 1
f 28/41/28 29/42/29 43/56/43 42/55/42
s 1
f 29/42/29 16/29/17 30/43/31 43/56/43
s 1
f 30/43/31 31/44/30 45/58/44 44/57/45
s 1
f 31/44/30 32/45/32 46/59/46 45/58/44
s 1
f 32/45/32 33/46/33 47/60/47 46/59/46
s 1
f 33/46/33 34/47/34 48/61/48 47/60/47
s 1
f 34/47/34 35/48/35 49/62/49 48/61/48
s 1
f 35/48/35 36/49/36 50/63/50 49/62/49
s 1
f 36/49/36 37/50/37 51/64/51 50/63/50
s 1
f 37/50/37 38/51/38 52/65/52 51/64/51
s 1
f 38/51/38 39/52/39 53/66/53 52/65/52
s 1
f 39/52/39 40/53/40 54/67/54 53/66/53
s 1
f 40/53/40 41/54/41 55/68/55 54/67/54
s 1
f 41/54/41 42/55/42 56/69/56 55/68/55
s 1
f 42/55/42 43/56/43 57/70/57 56/69/56
s 1
f 43/56/43 30/43/31 44/57/45 57/70/57
s 1
f 44/57/45 45/58/44 58/71/58
s 1
f 45/58/44 46/59/46 58/72/58
s 1
f 46/59/46 47/60/47 58/73/58
s 1
f 47/60/47 48/61/48 58/74/58
s 1
f 48/61/48 49/62/49 58/75/58
s 1
f 49/62/49 50/63/50 58/76/58
s 1
f 50/63/50 51/64/51 58/77/58
s 1
f 51/64/51 52/65/52 58/78/58
s 1
f 52/65/52 53/66/53 58/79/58
s 1
f 53/66/53 54/67/54 58/80/58
s 1
f 54/67/54 55/68/55 58/81/58
s 1
f 55/68/55 56/69/56 58/82/58
s 1
f 56/69/56 57/70/57 58/83/58
s 1
f 57/70/57 44/57/45 58/84/58
s 2
f 59/85/59 60/86/60 65/91/61 64/90/62
s 2
f 60/86/60 61/87/63 66/92/64 65/91/61
s 2
f 61/87/63 62/88/65 67/93/66 66/92/64
s 2
f 62/88/65 63/89/67 68/94/68 67/93/66
s 2
f 63/89/67 59/85/59 64/90/62 68/94/68
s 2
f 64/90/62 65/91/61 70/96/69 69/95/70
s 2
f 65/91/61 66/92/64 71/97/71 70/96/69
s 2
f 66/92/64 67/93/66 72/98/72 71/97/71
s 2
f 67/93/66 68/94/68 73/99/73 72/98/72
s 2
f 68/94/68 64/90/62 69/95/70 73/99/73
s 2
f 69/95/70 70/96/69 75/101/74 74/100/75
s 2
f 70/96/69 71/97/71 76/102/76 75/101/74
s 2
f 71/97/71 72/98/72 77/103/77 76/102/76
s 2
f 72/98/72 73/99/73 78/104/78 77/103/77
s 2
f 73/99/73 69/95/70 74/100/75 78/104/78
s 2
f 74/100/75 75/101/74 80/106/79 79/105/80
s 2
f 75/101/74 76/102/76 81/107/81 80/106/79
s 2
f 76/102/76 77/103/77 82/108/82 81/107/81
s 2
f 77/103/77 78/104/78 83/109/83 82/108/82
s 2
f 78/104/78 74/100/75 79/105/80 83/109/83
s 2
f 79/105/80 80/106/79 85/111/84 84/110/85
s 2
f 80/106/79 81/107/81 86/112/86 85/111/84
s 2
f 81/107/81 82/108/82 87/113/87 86/112/86
s 2
f 82/108/82 83/109/83 88/114/88 87/113/87
s 2
f 83/109/83 79/105/80 84/110/85 88/114/88
s 2
f 84/110/85 85/111/84 89/115/58
s 2
f 85/111/84 86/112/86 89/116/58
s 2
f 86/112/86 87/113/87 89/117/58
s 2
f 87/113/87 88/114/88 89/118/58
s 2
f 88/114/88 84/110/85 89/119/58
s off
f 90/120/58 59/85/58 60/86/58
s off
f 90/120/58 60/86/58 61/87/58
s off
f 90/120/58 61/87/58 62/88/58
s off
f 90/120/58 62/88/58 63/89/58
s off
f 90/120/58 63/89/58 59/85/58
s 3
f 91/121/59 92/122/60 97/127/61 96/126/62
s 3
f 92/122/60 93/123/63 98/128/64 97/127/61
s 3
f 93/123/63 94/124/65 99/129/66 98/128/64
s 3
f 94/124/65 95/125/67 100/130/68 99/129/66
s 3
f 95/125/67 91/121/59 96/126/62 100/130/68
s 3
f 96/126/62 97/127/61 102/132/69 101/131/70
s 3
f 97/127/61 98/128/64 103/133/71 102/132/69
s 3
f 98/128/64 99/129/66 104/134/72 103/133/71
s 3
f 99/129/66 100/130/68 105/135/73 104/134/72
s 3
f 100/130/68 96/126/62 101/131/70 105/135/73
s 3
f 101/131/70 102/132/69 107/137/74 106/136/75
s 3
f 102/132/69 103/133/71 108/138/76 107/137/74
s 3
f 103/133/71 104/134/72 109/139/77 108/138/76
s 3
f 104/134/72 105/135/73 110/140/78 109/139/77
s 3
f 105/135/73 101/131/70 106/136/75 110/140/78
s 3
f 106/136/75 107/137/74 112/142/79 111/141/80
s 3
f 107/137/74 108/138/76 113/143/81 112/142/79
s 3
f 108/138/76 109/139/77 114/144/82 113/143/81
s 3
f 109/139/77 110/140/78 115/145/83 114/144/82
s 3
f 110/140/78 106/136/75 111/141/80 115/145/83
s 3
f 111/141/80 112/142/79 117/147/84 116/146/85
s 3
f 112/142/79 113/143/81 118/148/86 117/147/84
s 3
f 113/143/81 114/144/82 119/149/87 118/148/86
s 3
f 114/144/82 115/145/83 120/150/88 119/149/87
s 3
f 115/145/83 111/141/80 116/146/85 120/150/88
s 3
f 116/146/85 117/147/84 121/151/58
s 3
f 117/147/84 118/148/86 121/152/58
s 3
f 118/148/86 119/149/87 121/153/58
s 3
f 119/149/87 120/150/88 121/154/58
s 3
f 120/150/88 116/146/85 121/155/58
s off
f 122/156/58 91/121/58 92/122/58
s off
f 122/156/58 92/122/58 93/123/58
s off
f 122/156/58 93/123/58 94/124/58
s off
f 122/156/58 94/124/58 95/125/58
s off
f 122/156/58 95/125/58 91/121/58
s 4
f 123/157/59 124/158/60 129/163/61 128/162/62
s 4
f 124/158/60 125/159/63 130/164/64 129/163/61
s 4
f 125/159/63 126/160/65 131/165/66 130/164/64
s 4
f 126/160/65 127/161/67 132/166/68 131/165/66
s 4
f 127/161/67 123/157/59 128/162/62 132/166/68
s 4
f 128/162/62 129/163/61 134/168/69 133/167/70
s 4
f 129/163/61 130/164/64 135/169/71 134/168/69
s 4
f 130/164/64 131/165/66 136/170/72 135/169/71
s 4
f 131/165/66 132/166/68 137/171/73 136/170/72
s 4
f 132/166/68 128/162/62 133/167/70 137/171/73
s 4
f 133/167/70 134/168/69 139/173/74 138/172/75
s 4
f 134/168/69 135/169/71 140/174/76 139/173/74
s 4
f 135/169/71 136/170/72 141/175/77 140/174/76
s 4
f 136/170/72 137/171/73 142/176/78 141/175/77
s 4
f 137/171/73 133/167/70 138/172/75 142/176/78
s 4
f 138/172/75 139/173/74 144/178/79 143/177/80
s 4
f 139/173/74 140/174/76 145/179/81 144/178/79
s 4
f 140/174/76 141/175/77 146/180/82 145/179/81
s 4
f 141/175/77 142/176/78 147/181/83 146/180/82
s 4
f 142/176/78 138/172/75 143/177/80 147/181/83
s 4
f 143/177/80 144/178/79 149/183/84 148/182/85
s 4
f 144/178/79 145/179/81 150/184/86 149/183/84
s 4
f 145/179/81 146/180/82 151/185/87 150/184/86
s 4
f 146/180/82 147/181/83 152/186/88 151/185/87
s 4
f 147/181/83 143/177/80 148/182/85 152/186/88
s 4
f 148/182/85 149/183/84 153/187/58
s 4
f 149/183/84 150/184/86 153/188/58
s 4
f 150/184/86 151/185/87 153/189/58
s 4
f 151/185/87 152/186/88 153/190/58
s 4
f 152/186/88 148/182/85 153/191/58
s off
f 154/192/58 123/157/58 124/158/58
s off
f 154/192/58 124/158/58 125/159/58
s off
f 154/192/58 125/159/58 126/160/58
s off
f 154/192/58 126/160/58 127/161/58
s off
f 154/192/58 127/161/58 123/157/58
s 5
f 155/193/59 156/194/60 161/199/61 160/198/62
s 5
f 156/194/60 157/195/63 162/200/64 161/199/61
s 5
f 157/195/63 158/196/65 163/201/66 162/200/64
s 5
f 158/196/65 159/197/67 164/202/68 163/201/66
s 5
f 159/197/67 155/193/59 160/198/62 164/202/68
s 5
f 160/198/62 161/199/61 166/204/69 165/203/70
s 5
f 161/199/61 162/200/64 167/205/71 166/204/69
s 5
f 162/200/64 163/201/66 168/206/72 167/205/71
s 5
f 163/201/66 164/202/68 169/207/73 168/206/72
s 5
f 164/202/68 160/198/62 165/203/70 169/207/73
s 5
f 165/203/70 166/204/69 171/209/74 170/208/75
s 5
f 166/204/69 167/205/71 172/210/76 171/209/74
s 5
f 167/205/71 168/206/72 173/211/77 172/210/76
s 5
f 168/206/72 169/207/73 174/212/78 173/211/77
s 5
f 169/207/73 165/203/70 170/208/75 174/212/78
s 5
f 170/208/75 171/209/74 176/214/79 175/213/80
s 5
f 171/209/74 172/210/76 177/215/81 176/214/79
s 5
f 172/210/76 173/211/77 178/216/82 177/215/81
s 5
f 173/211/77 174/212/78 179/217/83 178/216/82
s 5
f 174/212/78 170/208/75 175/213/80 179/217/83
s 5
f 175/213/80 176/214/79 181/219/84 180/218/85
s 5
f 176/214/79 177/215/81 182/220/86 181/219/84
s 5
f 177/215/81 178/216/82 183/221/87 182/220/86
s 5
f 178/216/82 179/217/83 184/222/88 183/221/87
s 5
f 179/217/83 175/213/80 180/218/85 184/222/88
s 5
f 180/218/85 181/219/84 185/223/58
s 5
f 181/219/84 182/220/86 185/224/58
s 5
f 182/220/86 183/221/87 185/225/58
s 5
f 183/221/87 184/222/88 185/226/58
s 5
f 184/222/88 180/218/85 185/227/58
s off
f 186/228/58 155/193/58 156/194/58
s off
f 186/228/58 156/194/58 157/195/58
s off
f 186/228/58 157/195/58 158/196/58
s off
f 186/228/58 158/196/58 159/197/58
s off
f 186/228/58 159/197/58 155/193/58
s 6
f 187/229/59 188/230/60 193/235/61 192/234/62
s 6
f 188/230/60 189/231/63 194/236/64 193/235/61
s 6
f 189/231/63 190/232/65 195/237/66 194/236/64
s 6
f 190/232/65 191/233/67 196/238/68 195/237/66
s 6
f 191/233/67 187/229/59 192/234/62 196/238/68
s 6
f 192/234/62 193/235/61 198/240/69 197/239/70
s 6
f 193/235/61 194/236/64 199/241/71 198/240/69
s 6
f 194/236/64 195/237/66 200/242/72 199/241/71
s 6
f 195/237/66 196/238/68 201/243/73 200/242/72
s 6
f 196/238/68 192/234/62 197/239/70 201/243/73
s 6
f 197/239/70 198/240/69 203/245/74 202/244/75
s 6
f 198/240/69 199/241/71 204/246/76 203/245/74
s 6
f 199/241/71 200/242/72 205/247/77 204/246/76
s 6
f 200/242/72 201/243/73 206/248/78 205/247/77
s 6
f 201/243/73 197/239/70 202/244/75 206/248/78
s 6
f 202/244/75 203/245/74 208/250/79 207/249/80
s 6
f 203/245/74 204/246/76 209/251/81 208/250/79
s 6
f 204/246/76 205/247/77 210/252/82 209/251/81
s 6
f 205/247/77 206/248/78 211/253/83 210/252/82
s 6
f 206/248/78 202/244/75 207/249/80 211/253/83
s 6
f 207/249/80 208/250/79 213/255/84 212/254/85
s 6
f 208/250/79 209/251/81 214/256/86 213/255/84
s 6
f 209/251/81 210/252/82 215/257/87 214/256/86
s 6
f 210/252/82 211/253/83 216/258/88 215/257/87
s 6
f 211/253/83 207/249/80 212/254/85 216/258/88
s 6
f 212/254/85 213/255/84 217/259/58
s 6
f 213/255/84 214/256/86 217/260/58
s 6
f 214/256/86 215/257/87 217/261/58
s 6
f 215/257/87 216/258/88 217/262/58
s 6
f 216/258/88 212/254/85 217/263/58
s off
f 218/264/58 187/229/58 188/230/58
s off
f 218/264/58 188/230/58 189/231/58
s off
f 218/264/58 189/231/58 190/232/58
s off
f 218/264/58 190/232/58 191/233/58
s off
f 218/264/58 191/233/58 187/229/58
s 7
f 219/265/59 220/266/60 225/271/61 224/270/62
s 7
f 220/266/60 221/267/63 226/272/64 225/271/61
s 7
f 221/267/63 222/268/65 227/273/66 226/272/64
s 7
f 222/268/65 223/269/67 228/274/68 227/273/66
s 7
f 223/269/67 219/265/59 224/270/62 228/274/68
s 7
f 224/270/62 225/271/61 230/276/69 229/275/70
s 7
f 225/271/61 226/272/64 231/277/71 230/276/69
s 7
f 226/272/64 227/273/66 232/278/72 231/277/71
s 7
f 227/273/66 228/274/68 233/279/73 232/278/72
s 7
f 228/274/68 224/270/62 229/275/70 233/279/73
s 7
f 229/275/70 230/276/69 235/281/74 234/280/75
s 7
f 230/276/69 231/277/71 236/282/76 235/281/74
s 7
f 231/277/71 232/278/72 237/283/77 236/282/76
s 7
f 232/278/72 233/279/73 238/284/78 237/283/77
s 7
f 233/279/73 229/275/70 234/280/75 238/284/78
s 7
f 234/280/75 235/281/74 240/286/79 239/285/80
s 7
f 235/281/74 236/282/76 241/287/81 240/286/79
s 7
f 236/282/76 237/283/77 242/288/82 241/287/81
s 7
f 237/283/77 238/284/78 243/289/83 242/288/82
s 7
f 238/284/78 234/280/75 239/285/80 243/289/83
s 7
f 239/285/80 240/286/79 245/291/84 244/290/85
s 7
f 240/286/79 241/287/81 246/292/86 245/291/84
s 7
f 241/287/81 242/288/82 247/293/87 246/292/86
s 7
f 242/288/82 243/289/83 248/294/88 247/293/87
s 7
f 243/289/83 239/285/80 244/290/85 248/294/88
s 7
f 244/290/85 245/291/84 249/295/58
s 7
f 245/291/84 246/292/86 249/296/58
s 7
f 246/292/86 247/293/87 249/297/58
s 7
f 247/293/87 248/294/88 249/298/58
s 7
f 248/294/88 244/290/85 249/299/58
s off
f 250/300/58 219/265/58 220/266/58
s off
f 250/300/58 220/266/58 221/267/58
s off
f 250/300/58 221/267/58 222/268/58
s off
f 250/300/58 222/268/58 223/269/58
s off
f 250/300/58 223/269/58 219/265/58
