# Blender 5.0.1
# www.blender.org
mtllib ectoplasm.mtl
g Ecto_Blob0.001_Mesh
v -0.220000 -0.160000 0.000000
v 0.069440 0.027947 0.151407
v -0.330554 0.027947 0.244984
v -0.577770 0.027947 0.000000
v -0.330554 0.027947 -0.244984
v 0.069440 0.027947 -0.151407
v -0.109446 0.332053 0.244984
v -0.509440 0.332053 0.151407
v -0.509440 0.332053 -0.151407
v -0.109446 0.332053 -0.244984
v 0.137770 0.332053 0.000000
v -0.220000 0.520000 0.000000
vn 0.1506 -0.7504 0.6436
vn 0.5446 -0.8387 -0.0000
vn -0.4210 -0.8014 0.4248
vn -0.4210 -0.8014 -0.4248
vn 0.1506 -0.7504 -0.6436
vn 0.9757 -0.2192 -0.0000
vn 0.2247 -0.1634 0.9606
vn -0.6908 -0.1919 0.6971
vn -0.6908 -0.1919 -0.6971
vn 0.2247 -0.1634 -0.9606
vn 0.6908 0.1919 0.6971
vn -0.2247 0.1634 0.9606
vn -0.9757 0.2192 -0.0000
vn -0.2247 0.1634 -0.9606
vn 0.6908 0.1919 -0.6971
vn 0.4210 0.8014 0.4248
vn -0.1506 0.7504 0.6436
vn -0.5446 0.8387 -0.0000
vn -0.1506 0.7504 -0.6436
vn 0.4210 0.8014 -0.4248
vt 0.181819 0.000000
vt 0.272728 0.157461
vt 0.090910 0.157461
vt 0.363637 0.000000
vt 0.454546 0.157461
vt 0.909091 0.000000
vt 1.000000 0.157461
vt 0.818182 0.157461
vt 0.727273 0.000000
vt 0.636364 0.157461
vt 0.545455 0.000000
vt 0.363637 0.314921
vt 0.181819 0.314921
vt 0.909091 0.314921
vt 0.727273 0.314921
vt 0.545455 0.314921
vt 0.000000 0.314921
vt 0.272728 0.472382
vt 0.090910 0.472382
vt 0.818182 0.472382
vt 0.636364 0.472382
vt 0.454546 0.472382
s 0
g Ecto_Blob0.001_MAT_Ectoplasm
usemtl MAT_Ectoplasm
f 1/1/1 2/2/1 3/3/1
f 2/2/2 1/4/2 6/5/2
f 1/6/3 3/7/3 4/8/3
f 1/9/4 4/8/4 5/10/4
f 1/11/5 5/10/5 6/5/5
f 2/2/6 6/5/6 11/12/6
f 3/3/7 2/2/7 7/13/7
f 4/8/8 3/7/8 8/14/8
f 5/10/9 4/8/9 9/15/9
f 6/5/10 5/10/10 10/16/10
f 2/2/11 11/12/11 7/13/11
f 3/3/12 7/13/12 8/17/12
f 4/8/13 8/14/13 9/15/13
f 5/10/14 9/15/14 10/16/14
f 6/5/15 10/16/15 11/12/15
f 7/13/16 11/12/16 12/18/16
f 8/17/17 7/13/17 12/19/17
f 9/15/18 8/14/18 12/20/18
f 10/16/19 9/15/19 12/21/19
f 11/12/20 10/16/20 12/22/20
g Ecto_Blob1.001_Mesh
v 0.240000 -0.571000 -0.100000
v 0.572856 -0.354861 0.074118
v 0.112863 -0.354861 0.181732
v -0.171436 -0.354861 -0.100000
v 0.112863 -0.354861 -0.381732
v 0.572856 -0.354861 -0.274118
v 0.367137 -0.005139 0.181732
v -0.092856 -0.005139 0.074118
v -0.092856 -0.005139 -0.274118
v 0.367137 -0.005139 -0.381732
v 0.651435 -0.005139 -0.100000
v 0.240000 0.211000 -0.100000
vn 0.1506 -0.7504 0.6436
vn 0.5446 -0.8387 -0.0000
vn -0.4210 -0.8014 0.4248
vn -0.4210 -0.8014 -0.4248
vn 0.1506 -0.7504 -0.6436
vn 0.9757 -0.2192 -0.0000
vn 0.2247 -0.1634 0.9606
vn -0.6908 -0.1919 0.6971
vn -0.6908 -0.1919 -0.6971
vn 0.2247 -0.1634 -0.9606
vn 0.6908 0.1919 0.6971
vn -0.2247 0.1634 0.9606
vn -0.9757 0.2192 -0.0000
vn -0.2247 0.1634 -0.9606
vn 0.6908 0.1919 -0.6971
vn 0.4210 0.8014 0.4248
vn -0.1506 0.7504 0.6436
vn -0.5446 0.8387 -0.0000
vn -0.1506 0.7504 -0.6436
vn 0.4210 0.8014 -0.4248
vt 0.181819 0.000000
vt 0.272728 0.157461
vt 0.090910 0.157461
vt 0.363637 0.000000
vt 0.454546 0.157461
vt 0.909091 0.000000
vt 1.000000 0.157461
vt 0.818182 0.157461
vt 0.727273 0.000000
vt 0.636364 0.157461
vt 0.545455 0.000000
vt 0.363637 0.314921
vt 0.181819 0.314921
vt 0.909091 0.314921
vt 0.727273 0.314921
vt 0.545455 0.314921
vt 0.000000 0.314921
vt 0.272728 0.472382
vt 0.090910 0.472382
vt 0.818182 0.472382
vt 0.636364 0.472382
vt 0.454546 0.472382
s 0
g Ecto_Blob1.001_MAT_Ectoplasm
usemtl MAT_Ectoplasm
f 13/23/21 14/24/21 15/25/21
f 14/24/22 13/26/22 18/27/22
f 13/28/23 15/29/23 16/30/23
f 13/31/24 16/30/24 17/32/24
f 13/33/25 17/32/25 18/27/25
f 14/24/26 18/27/26 23/34/26
f 15/25/27 14/24/27 19/35/27
f 16/30/28 15/29/28 20/36/28
f 17/32/29 16/30/29 21/37/29
f 18/27/30 17/32/30 22/38/30
f 14/24/31 23/34/31 19/35/31
f 15/25/32 19/35/32 20/39/32
f 16/30/33 20/36/33 21/37/33
f 17/32/34 21/37/34 22/38/34
f 18/27/35 22/38/35 23/34/35
f 19/35/36 23/34/36 24/40/36
f 20/39/37 19/35/37 24/41/37
f 21/37/38 20/36/38 24/42/38
f 22/38/39 21/37/39 24/43/39
f 23/34/40 22/38/40 24/44/40
g Ecto_Blob2.001_Mesh
v 0.000000 -0.806000 0.120000
v 0.260496 -0.636848 0.256267
v -0.099499 -0.636848 0.340486
v -0.321993 -0.636848 0.120000
v -0.099499 -0.636848 -0.100486
v 0.260496 -0.636848 -0.016267
v 0.099499 -0.363152 0.340486
v -0.260496 -0.363152 0.256267
v -0.260496 -0.363152 -0.016267
v 0.099499 -0.363152 -0.100486
v 0.321993 -0.363152 0.120000
v 0.000000 -0.194000 0.120000
vn 0.1506 -0.7504 0.6436
vn 0.5446 -0.8387 -0.0000
vn -0.4210 -0.8014 0.4248
vn -0.4210 -0.8014 -0.4248
vn 0.1506 -0.7504 -0.6436
vn 0.9757 -0.2192 -0.0000
vn 0.2247 -0.1634 0.9606
vn -0.6908 -0.1919 0.6971
vn -0.6908 -0.1919 -0.6971
vn 0.2247 -0.1634 -0.9606
vn 0.6908 0.1919 0.6971
vn -0.2247 0.1634 0.9606
vn -0.9757 0.2192 -0.0000
vn -0.2247 0.1634 -0.9606
vn 0.6908 0.1919 -0.6971
vn 0.4210 0.8014 0.4248
vn -0.1506 0.7504 0.6436
vn -0.5446 0.8387 -0.0000
vn -0.1506 0.7504 -0.6436
vn 0.4210 0.8014 -0.4248
vt 0.181819 0.000000
vt 0.272728 0.157461
vt 0.090910 0.157461
vt 0.363637 0.000000
vt 0.454546 0.157461
vt 0.909091 0.000000
vt 1.000000 0.157461
vt 0.818182 0.157461
vt 0.727273 0.000000
vt 0.636364 0.157461
vt 0.545455 0.000000
vt 0.363637 0.314921
vt 0.181819 0.314921
vt 0.909091 0.314921
vt 0.727273 0.314921
vt 0.545455 0.314921
vt 0.000000 0.314921
vt 0.272728 0.472382
vt 0.090910 0.472382
vt 0.818182 0.472382
vt 0.636364 0.472382
vt 0.454546 0.472382
s 0
g Ecto_Blob2.001_MAT_Ectoplasm
usemtl MAT_Ectoplasm
f 25/45/41 26/46/41 27/47/41
f 26/46/42 25/48/42 30/49/42
f 25/50/43 27/51/43 28/52/43
f 25/53/44 28/52/44 29/54/44
f 25/55/45 29/54/45 30/49/45
f 26/46/46 30/49/46 35/56/46
f 27/47/47 26/46/47 31/57/47
f 28/52/48 27/51/48 32/58/48
f 29/54/49 28/52/49 33/59/49
f 30/49/50 29/54/50 34/60/50
f 26/46/51 35/56/51 31/57/51
f 27/47/52 31/57/52 32/61/52
f 28/52/53 32/58/53 33/59/53
f 29/54/54 33/59/54 34/60/54
f 30/49/55 34/60/55 35/56/55
f 31/57/56 35/56/56 36/62/56
f 32/61/57 31/57/57 36/63/57
f 33/59/58 32/58/58 36/64/58
f 34/60/59 33/59/59 36/65/59
f 35/56/60 34/60/60 36/66/60
g Ecto_Blob3.001_Mesh
v 0.050000 0.322000 -0.050000
v 0.252608 0.453563 0.055985
v -0.027388 0.453563 0.121489
v -0.200439 0.453563 -0.050000
v -0.027388 0.453563 -0.221489
v 0.252608 0.453563 -0.155985
v 0.127388 0.666438 0.121489
v -0.152608 0.666438 0.055985
v -0.152608 0.666438 -0.155985
v 0.127388 0.666438 -0.221489
v 0.300439 0.666438 -0.050000
v 0.050000 0.798000 -0.050000
vn 0.1506 -0.7504 0.6436
vn 0.5446 -0.8387 -0.0000
vn -0.4210 -0.8014 0.4248
vn -0.4210 -0.8014 -0.4248
vn 0.1506 -0.7504 -0.6436
vn 0.9757 -0.2192 -0.0000
vn 0.2247 -0.1634 0.9606
vn -0.6908 -0.1919 0.6971
vn -0.6908 -0.1919 -0.6971
vn 0.2247 -0.1634 -0.9606
vn 0.6908 0.1919 0.6971
vn -0.2247 0.1634 0.9606
vn -0.9757 0.2192 -0.0000
vn -0.2247 0.1634 -0.9606
vn 0.6908 0.1919 -0.6971
vn 0.4210 0.8014 0.4248
vn -0.1506 0.7504 0.6436
vn -0.5446 0.8387 -0.0000
vn -0.1506 0.7504 -0.6436
vn 0.4210 0.8014 -0.4248
vt 0.181819 0.000000
vt 0.272728 0.157461
vt 0.090910 0.157461
vt 0.363637 0.000000
vt 0.454546 0.157461
vt 0.909091 0.000000
vt 1.000000 0.157461
vt 0.818182 0.157461
vt 0.727273 0.000000
vt 0.636364 0.157461
vt 0.545455 0.000000
vt 0.363637 0.314921
vt 0.181819 0.314921
vt 0.909091 0.314921
vt 0.727273 0.314921
vt 0.545455 0.314921
vt 0.000000 0.314921
vt 0.272728 0.472382
vt 0.090910 0.472382
vt 0.818182 0.472382
vt 0.636364 0.472382
vt 0.454546 0.472382
s 0
g Ecto_Blob3.001_MAT_Ectoplasm
usemtl MAT_Ectoplasm
f 37/67/61 38/68/61 39/69/61
f 38/68/62 37/70/62 42/71/62
f 37/72/63 39/73/63 40/74/63
f 37/75/64 40/74/64 41/76/64
f 37/77/65 41/76/65 42/71/65
f 38/68/66 42/71/66 47/78/66
f 39/69/67 38/68/67 43/79/67
f 40/74/68 39/73/68 44/80/68
f 41/76/69 40/74/69 45/81/69
f 42/71/70 41/76/70 46/82/70
f 38/68/71 47/78/71 43/79/71
f 39/69/72 43/79/72 44/83/72
f 40/74/73 44/80/73 45/81/73
f 41/76/74 45/81/74 46/82/74
f 42/71/75 46/82/75 47/78/75
f 43/79/76 47/78/76 48/84/76
f 44/83/77 43/79/77 48/85/77
f 45/81/78 44/80/78 48/86/78
f 46/82/79 45/81/79 48/87/79
f 47/78/80 46/82/80 48/88/80
g Ecto_EyeL.001_Mesh
v -0.160000 0.220000 0.480000
v -0.123820 0.253167 0.495772
v -0.173819 0.253167 0.505519
v -0.204721 0.253167 0.480000
v -0.173819 0.253167 0.454481
v -0.123820 0.253167 0.464228
v -0.146181 0.306833 0.505519
v -0.196180 0.306833 0.495772
v -0.196180 0.306833 0.464228
v -0.146181 0.306833 0.454481
v -0.115279 0.306833 0.480000
v -0.160000 0.340000 0.480000
vn 0.1586 -0.5597 0.8134
vn 0.6757 -0.7371 -0.0000
vn -0.4831 -0.6514 0.5850
vn -0.4831 -0.6514 -0.5850
vn 0.1586 -0.5597 -0.8134
vn 0.9876 -0.1572 -0.0000
vn 0.1904 -0.0981 0.9768
vn -0.6318 -0.1243 0.7651
vn -0.6318 -0.1243 -0.7651
vn 0.1904 -0.0981 -0.9768
vn 0.6318 0.1243 0.7651
vn -0.1904 0.0981 0.9768
vn -0.9876 0.1572 -0.0000
vn -0.1904 0.0981 -0.9768
vn 0.6318 0.1243 -0.7651
vn 0.4831 0.6514 0.5850
vn -0.1586 0.5597 0.8134
vn -0.6757 0.7371 -0.0000
vn -0.1586 0.5597 -0.8134
vn 0.4831 0.6514 -0.5850
vt 0.181819 0.000000
vt 0.272728 0.157461
vt 0.090910 0.157461
vt 0.363637 0.000000
vt 0.454546 0.157461
vt 0.909091 0.000000
vt 1.000000 0.157461
vt 0.818182 0.157461
vt 0.727273 0.000000
vt 0.636364 0.157461
vt 0.545455 0.000000
vt 0.363637 0.314921
vt 0.181819 0.314921
vt 0.909091 0.314921
vt 0.727273 0.314921
vt 0.545455 0.314921
vt 0.000000 0.314921
vt 0.272728 0.472382
vt 0.090910 0.472382
vt 0.818182 0.472382
vt 0.636364 0.472382
vt 0.454546 0.472382
s 0
g Ecto_EyeL.001_MAT_Obsidian
usemtl MAT_Obsidian
f 49/89/81 50/90/81 51/91/81
f 50/90/82 49/92/82 54/93/82
f 49/94/83 51/95/83 52/96/83
f 49/97/84 52/96/84 53/98/84
f 49/99/85 53/98/85 54/93/85
f 50/90/86 54/93/86 59/100/86
f 51/91/87 50/90/87 55/101/87
f 52/96/88 51/95/88 56/102/88
f 53/98/89 52/96/89 57/103/89
f 54/93/90 53/98/90 58/104/90
f 50/90/91 59/100/91 55/101/91
f 51/91/92 55/101/92 56/105/92
f 52/96/93 56/102/93 57/103/93
f 53/98/94 57/103/94 58/104/94
f 54/93/95 58/104/95 59/100/95
f 55/101/96 59/100/96 60/106/96
f 56/105/97 55/101/97 60/107/97
f 57/103/98 56/102/98 60/108/98
f 58/104/99 57/103/99 60/109/99
f 59/100/100 58/104/100 60/110/100
g Ecto_EyeR.001_Mesh
v 0.160000 0.220000 0.480000
v 0.196180 0.253167 0.495772
v 0.146181 0.253167 0.505519
v 0.115279 0.253167 0.480000
v 0.146181 0.253167 0.454481
v 0.196180 0.253167 0.464228
v 0.173819 0.306833 0.505519
v 0.123820 0.306833 0.495772
v 0.123820 0.306833 0.464228
v 0.173819 0.306833 0.454481
v 0.204721 0.306833 0.480000
v 0.160000 0.340000 0.480000
vn 0.1586 -0.5597 0.8134
vn 0.6757 -0.7371 -0.0000
vn -0.4831 -0.6514 0.5850
vn -0.4831 -0.6514 -0.5850
vn 0.1586 -0.5597 -0.8134
vn 0.9876 -0.1572 -0.0000
vn 0.1904 -0.0981 0.9768
vn -0.6318 -0.1243 0.7651
vn -0.6318 -0.1243 -0.7651
vn 0.1904 -0.0981 -0.9768
vn 0.6318 0.1243 0.7651
vn -0.1904 0.0981 0.9768
vn -0.9876 0.1572 -0.0000
vn -0.1904 0.0981 -0.9768
vn 0.6318 0.1243 -0.7651
vn 0.4831 0.6514 0.5850
vn -0.1586 0.5597 0.8134
vn -0.6757 0.7371 -0.0000
vn -0.1586 0.5597 -0.8134
vn 0.4831 0.6514 -0.5850
vt 0.181819 0.000000
vt 0.272728 0.157461
vt 0.090910 0.157461
vt 0.363637 0.000000
vt 0.454546 0.157461
vt 0.909091 0.000000
vt 1.000000 0.157461
vt 0.818182 0.157461
vt 0.727273 0.000000
vt 0.636364 0.157461
vt 0.545455 0.000000
vt 0.363637 0.314921
vt 0.181819 0.314921
vt 0.909091 0.314921
vt 0.727273 0.314921
vt 0.545455 0.314921
vt 0.000000 0.314921
vt 0.272728 0.472382
vt 0.090910 0.472382
vt 0.818182 0.472382
vt 0.636364 0.472382
vt 0.454546 0.472382
s 0
g Ecto_EyeR.001_MAT_Obsidian
usemtl MAT_Obsidian
f 61/111/101 62/112/101 63/113/101
f 62/112/102 61/114/102 66/115/102
f 61/116/103 63/117/103 64/118/103
f 61/119/104 64/118/104 65/120/104
f 61/121/105 65/120/105 66/115/105
f 62/112/106 66/115/106 71/122/106
f 63/113/107 62/112/107 67/123/107
f 64/118/108 63/117/108 68/124/108
f 65/120/109 64/118/109 69/125/109
f 66/115/110 65/120/110 70/126/110
f 62/112/111 71/122/111 67/123/111
f 63/113/112 67/123/112 68/127/112
f 64/118/113 68/124/113 69/125/113
f 65/120/114 69/125/114 70/126/114
f 66/115/115 70/126/115 71/122/115
f 67/123/116 71/122/116 72/128/116
f 68/127/117 67/123/117 72/129/117
f 69/125/118 68/124/118 72/130/118
f 70/126/119 69/125/119 72/131/119
f 71/122/120 70/126/120 72/132/120
g Ecto_Jar.001_Mesh
v 0.000000 -0.875000 -0.628236
v 0.000000 -0.825000 -0.680000
v 0.000000 0.775000 -0.628236
v 0.000000 0.725000 -0.680000
v 0.314118 -0.875000 -0.544069
v 0.340000 -0.825000 -0.588897
v 0.314118 0.775000 -0.544069
v 0.340000 0.725000 -0.588897
v 0.544069 -0.875000 -0.314118
v 0.588897 -0.825000 -0.340000
v 0.544069 0.775000 -0.314118
v 0.588897 0.725000 -0.340000
v 0.628236 -0.875000 0.000000
v 0.680000 -0.825000 0.000000
v 0.628236 0.775000 0.000000
v 0.680000 0.725000 0.000000
v 0.544069 -0.875000 0.314118
v 0.588897 -0.825000 0.340000
v 0.544069 0.775000 0.314118
v 0.588897 0.725000 0.340000
v 0.314118 -0.875000 0.544069
v 0.340000 -0.825000 0.588897
v 0.314118 0.775000 0.544069
v 0.340000 0.725000 0.588897
v 0.000000 -0.875000 0.628236
v 0.000000 -0.825000 0.680000
v 0.000000 0.775000 0.628236
v 0.000000 0.725000 0.680000
v -0.314118 -0.875000 0.544069
v -0.340000 -0.825000 0.588897
v -0.314118 0.775000 0.544069
v -0.340000 0.725000 0.588897
v -0.544069 -0.875000 0.314118
v -0.588897 -0.825000 0.340000
v -0.544069 0.775000 0.314118
v -0.588897 0.725000 0.340000
v -0.628236 -0.875000 0.000000
v -0.680000 -0.825000 0.000000
v -0.628236 0.775000 0.000000
v -0.680000 0.725000 0.000000
v -0.544069 -0.875000 -0.314118
v -0.588897 -0.825000 -0.340000
v -0.544069 0.775000 -0.314118
v -0.588897 0.725000 -0.340000
v -0.314118 -0.875000 -0.544069
v -0.340000 -0.825000 -0.588897
v -0.314118 0.775000 -0.544069
v -0.340000 0.725000 -0.588897
vn 0.1830 -0.7071 -0.6830
vn 0.1830 0.7071 -0.6830
vn 0.5000 -0.7071 -0.5000
vn 0.5000 0.7071 -0.5000
vn 0.6830 -0.7071 -0.1830
vn 0.6830 0.7071 -0.1830
vn 0.6830 -0.7071 0.1830
vn 0.6830 0.7071 0.1830
vn 0.5000 -0.7071 0.5000
vn 0.5000 0.7071 0.5000
vn 0.1830 -0.7071 0.6830
vn 0.1830 0.7071 0.6830
vn -0.1830 -0.7071 0.6830
vn -0.1830 0.7071 0.6830
vn -0.5000 -0.7071 0.5000
vn -0.5000 0.7071 0.5000
vn -0.6830 -0.7071 0.1830
vn -0.6830 0.7071 0.1830
vn -0.6830 -0.7071 -0.1830
vn -0.6830 0.7071 -0.1830
vn -0.5000 -0.7071 -0.5000
vn -0.5000 0.7071 -0.5000
vn -0.1830 -0.7071 -0.6830
vn -0.1830 0.7071 -0.6830
vn -0.0000 -1.0000 -0.0000
vn 0.2588 -0.0000 -0.9659
vn -0.2588 -0.0000 -0.9659
vn -0.0000 1.0000 -0.0000
vn 0.7071 -0.0000 -0.7071
vn 0.9659 -0.0000 -0.2588
vn 0.9659 -0.0000 0.2588
vn 0.7071 -0.0000 0.7071
vn 0.2588 -0.0000 0.9659
vn -0.2588 -0.0000 0.9659
vn -0.7071 -0.0000 0.7071
vn -0.9659 -0.0000 0.2588
vn -0.9659 -0.0000 -0.2588
vn -0.7071 -0.0000 -0.7071
vt 0.870000 0.457846
vt 0.750000 0.471730
vt 0.750000 0.490000
vt 0.250000 0.490000
vt 0.360865 0.442024
vt 0.370000 0.457846
vt 0.957846 0.370000
vt 0.860865 0.442024
vt 0.442024 0.360865
vt 0.457846 0.370000
vt 0.990000 0.250000
vt 0.942024 0.360865
vt 0.471730 0.250000
vt 0.490000 0.250000
vt 0.957846 0.130000
vt 0.971730 0.250000
vt 0.442024 0.139135
vt 0.457846 0.130000
vt 0.870000 0.042154
vt 0.942024 0.139135
vt 0.360865 0.057976
vt 0.370000 0.042154
vt 0.750000 0.010000
vt 0.860865 0.057976
vt 0.250000 0.028270
vt 0.250000 0.010000
vt 0.630000 0.042154
vt 0.750000 0.028270
vt 0.139135 0.057976
vt 0.130000 0.042154
vt 0.542154 0.130000
vt 0.639135 0.057976
vt 0.057976 0.139135
vt 0.042154 0.130000
vt 0.510000 0.250000
vt 0.557976 0.139135
vt 0.028270 0.250000
vt 0.010000 0.250000
vt 0.542154 0.370000
vt 0.528270 0.250000
vt 0.057976 0.360865
vt 0.042154 0.370000
vt 0.630000 0.457846
vt 0.557976 0.360865
vt 0.139135 0.442024
vt 0.130000 0.457846
vt 0.639135 0.442024
vt 0.250000 0.471730
vt 1.000000 0.984848
vt 0.916667 0.515152
vt 1.000000 0.515152
vt 0.083333 0.984848
vt 0.000000 0.515152
vt 0.083333 0.515152
vt 0.916667 0.984848
vt 0.833333 0.515152
vt 0.833333 0.984848
vt 0.750000 0.515152
vt 0.750000 0.984848
vt 0.666667 0.515152
vt 0.666667 0.984848
vt 0.583333 0.515152
vt 0.583333 0.984848
vt 0.500000 0.515152
vt 0.500000 0.984848
vt 0.416667 0.515152
vt 0.416667 0.984848
vt 0.333333 0.515152
vt 0.333333 0.984848
vt 0.250000 0.515152
vt 0.250000 0.984848
vt 0.166667 0.515152
vt 0.166667 0.984848
vt 0.000000 0.984848
s 0
g Ecto_Jar.001_MAT_GlassClear
usemtl MAT_GlassClear
f 78/133/121 73/134/121 74/135/121
f 76/136/122 79/137/122 80/138/122
f 82/139/123 77/140/123 78/133/123
f 80/138/124 83/141/124 84/142/124
f 86/143/125 81/144/125 82/139/125
f 84/142/126 87/145/126 88/146/126
f 90/147/127 85/148/127 86/143/127
f 88/146/128 91/149/128 92/150/128
f 94/151/129 89/152/129 90/147/129
f 92/150/130 95/153/130 96/154/130
f 98/155/131 93/156/131 94/151/131
f 96/154/132 99/157/132 100/158/132
f 102/159/133 97/160/133 98/155/133
f 100/158/134 103/161/134 104/162/134
f 106/163/135 101/164/135 102/159/135
f 104/162/136 107/165/136 108/166/136
f 110/167/137 105/168/137 106/163/137
f 108/166/138 111/169/138 112/170/138
f 114/171/139 109/172/139 110/167/139
f 112/170/140 115/173/140 116/174/140
f 118/175/141 113/176/141 114/171/141
f 116/174/142 119/177/142 120/178/142
f 74/135/143 117/179/143 118/175/143
f 120/178/144 75/180/144 76/136/144
f 85/148/145 101/164/145 117/179/145
f 76/181/146 78/182/146 74/183/146
f 120/184/147 74/185/147 118/186/147
f 115/173/148 99/157/148 83/141/148
f 80/187/149 82/188/149 78/182/149
f 84/189/150 86/190/150 82/188/150
f 88/191/151 90/192/151 86/190/151
f 92/193/152 94/194/152 90/192/152
f 96/195/153 98/196/153 94/194/153
f 100/197/154 102/198/154 98/196/154
f 104/199/155 106/200/155 102/198/155
f 108/201/156 110/202/156 106/200/156
f 112/203/157 114/204/157 110/202/157
f 116/205/158 118/186/158 114/204/158
f 78/133/121 77/140/121 73/134/121
f 76/136/122 75/180/122 79/137/122
f 82/139/123 81/144/123 77/140/123
f 80/138/124 79/137/124 83/141/124
f 86/143/125 85/148/125 81/144/125
f 84/142/126 83/141/126 87/145/126
f 90/147/127 89/152/127 85/148/127
f 88/146/128 87/145/128 91/149/128
f 94/151/129 93/156/129 89/152/129
f 92/150/130 91/149/130 95/153/130
f 98/155/131 97/160/131 93/156/131
f 96/154/132 95/153/132 99/157/132
f 102/159/133 101/164/133 97/160/133
f 100/158/134 99/157/134 103/161/134
f 106/163/135 105/168/135 101/164/135
f 104/162/136 103/161/136 107/165/136
f 110/167/137 109/172/137 105/168/137
f 108/166/138 107/165/138 111/169/138
f 114/171/139 113/176/139 109/172/139
f 112/170/140 111/169/140 115/173/140
f 118/175/141 117/179/141 113/176/141
f 116/174/142 115/173/142 119/177/142
f 74/135/143 73/134/143 117/179/143
f 120/178/144 119/177/144 75/180/144
f 117/179/145 73/134/145 77/140/145
f 77/140/145 81/144/145 85/148/145
f 85/148/145 89/152/145 93/156/145
f 93/156/145 97/160/145 101/164/145
f 101/164/145 105/168/145 109/172/145
f 109/172/145 113/176/145 117/179/145
f 117/179/145 77/140/145 85/148/145
f 85/148/145 93/156/145 101/164/145
f 101/164/145 109/172/145 117/179/145
f 76/181/146 80/187/146 78/182/146
f 120/184/147 76/206/147 74/185/147
f 83/141/148 79/137/148 75/180/148
f 75/180/148 119/177/148 115/173/148
f 115/173/148 111/169/148 107/165/148
f 107/165/148 103/161/148 99/157/148
f 99/157/148 95/153/148 91/149/148
f 91/149/148 87/145/148 83/141/148
f 83/141/148 75/180/148 115/173/148
f 115/173/148 107/165/148 99/157/148
f 99/157/148 91/149/148 83/141/148
f 80/187/149 84/189/149 82/188/149
f 84/189/150 88/191/150 86/190/150
f 88/191/151 92/193/151 90/192/151
f 92/193/152 96/195/152 94/194/152
f 96/195/153 100/197/153 98/196/153
f 100/197/154 104/199/154 102/198/154
f 104/199/155 108/201/155 106/200/155
f 108/201/156 112/203/156 110/202/156
f 112/203/157 116/205/157 114/204/157
f 116/205/158 120/184/158 118/186/158
g Ecto_Lid.001_Mesh
v 0.000000 0.850000 -0.478589
v 0.000000 0.890000 -0.520000
v 0.000000 1.030000 -0.478589
v 0.000000 0.990000 -0.520000
v 0.239294 0.850000 -0.414470
v 0.260000 0.890000 -0.450333
v 0.239294 1.030000 -0.414470
v 0.260000 0.990000 -0.450333
v 0.414470 0.850000 -0.239294
v 0.450333 0.890000 -0.260000
v 0.414470 1.030000 -0.239294
v 0.450333 0.990000 -0.260000
v 0.478589 0.850000 0.000000
v 0.520000 0.890000 0.000000
v 0.478589 1.030000 0.000000
v 0.520000 0.990000 0.000000
v 0.414470 0.850000 0.239294
v 0.450333 0.890000 0.260000
v 0.414470 1.030000 0.239294
v 0.450333 0.990000 0.260000
v 0.239294 0.850000 0.414470
v 0.260000 0.890000 0.450333
v 0.239294 1.030000 0.414470
v 0.260000 0.990000 0.450333
v 0.000000 0.850000 0.478589
v 0.000000 0.890000 0.520000
v 0.000000 1.030000 0.478589
v 0.000000 0.990000 0.520000
v -0.239294 0.850000 0.414470
v -0.260000 0.890000 0.450333
v -0.239294 1.030000 0.414470
v -0.260000 0.990000 0.450333
v -0.414470 0.850000 0.239294
v -0.450333 0.890000 0.260000
v -0.414470 1.030000 0.239294
v -0.450333 0.990000 0.260000
v -0.478589 0.850000 0.000000
v -0.520000 0.890000 0.000000
v -0.478589 1.030000 0.000000
v -0.520000 0.990000 0.000000
v -0.414470 0.850000 -0.239294
v -0.450333 0.890000 -0.260000
v -0.414470 1.030000 -0.239294
v -0.450333 0.990000 -0.260000
v -0.239294 0.850000 -0.414470
v -0.260000 0.890000 -0.450333
v -0.239294 1.030000 -0.414470
v -0.260000 0.990000 -0.450333
vn 0.1830 -0.7071 -0.6830
vn 0.1830 0.7071 -0.6830
vn 0.5000 -0.7071 -0.5000
vn 0.5000 0.7071 -0.5000
vn 0.6830 -0.7071 -0.1830
vn 0.6830 0.7071 -0.1830
vn 0.6830 -0.7071 0.1830
vn 0.6830 0.7071 0.1830
vn 0.5000 -0.7071 0.5000
vn 0.5000 0.7071 0.5000
vn 0.1830 -0.7071 0.6830
vn 0.1830 0.7071 0.6830
vn -0.1830 -0.7071 0.6830
vn -0.1830 0.7071 0.6830
vn -0.5000 -0.7071 0.5000
vn -0.5000 0.7071 0.5000
vn -0.6830 -0.7071 0.1830
vn -0.6830 0.7071 0.1830
vn -0.6830 -0.7071 -0.1830
vn -0.6830 0.7071 -0.1830
vn -0.5000 -0.7071 -0.5000
vn -0.5000 0.7071 -0.5000
vn -0.1830 -0.7071 -0.6830
vn -0.1830 0.7071 -0.6830
vn -0.0000 -1.0000 -0.0000
vn 0.2588 -0.0000 -0.9659
vn -0.2588 -0.0000 -0.9659
vn -0.0000 1.0000 -0.0000
vn 0.7071 -0.0000 -0.7071
vn 0.9659 -0.0000 -0.2588
vn 0.9659 -0.0000 0.2588
vn 0.7071 -0.0000 0.7071
vn 0.2588 -0.0000 0.9659
vn -0.2588 -0.0000 0.9659
vn -0.7071 -0.0000 0.7071
vn -0.9659 -0.0000 0.2588
vn -0.9659 -0.0000 -0.2588
vn -0.7071 -0.0000 -0.7071
vt 0.870000 0.457846
vt 0.750000 0.470887
vt 0.750000 0.490000
vt 0.370000 0.457846
vt 0.250000 0.470887
vt 0.360444 0.441294
vt 0.957846 0.370000
vt 0.860444 0.441294
vt 0.441294 0.360444
vt 0.457846 0.370000
vt 0.970887 0.250000
vt 0.941294 0.360444
vt 0.470887 0.250000
vt 0.490000 0.250000
vt 0.957846 0.130000
vt 0.990000 0.250000
vt 0.457846 0.130000
vt 0.441294 0.139556
vt 0.870000 0.042154
vt 0.941294 0.139556
vt 0.360444 0.058706
vt 0.370000 0.042154
vt 0.750000 0.029113
vt 0.860444 0.058706
vt 0.250000 0.029113
vt 0.250000 0.010000
vt 0.630000 0.042154
vt 0.750000 0.010000
vt 0.130000 0.042154
vt 0.139556 0.058706
vt 0.542154 0.130000
vt 0.639556 0.058706
vt 0.058706 0.139556
vt 0.042154 0.130000
vt 0.529113 0.250000
vt 0.558706 0.139556
vt 0.029113 0.250000
vt 0.010000 0.250000
vt 0.542154 0.370000
vt 0.510000 0.250000
vt 0.042154 0.370000
vt 0.058706 0.360444
vt 0.630000 0.457846
vt 0.558706 0.360444
vt 0.139556 0.441294
vt 0.130000 0.457846
vt 0.639556 0.441294
vt 0.250000 0.490000
vt 1.000000 0.888889
vt 0.916667 0.611111
vt 1.000000 0.611111
vt 0.083333 0.888889
vt 0.000000 0.611111
vt 0.083333 0.611111
vt 0.916667 0.888889
vt 0.833333 0.611111
vt 0.833333 0.888889
vt 0.750000 0.611111
vt 0.750000 0.888889
vt 0.666667 0.611111
vt 0.666667 0.888889
vt 0.583333 0.611111
vt 0.583333 0.888889
vt 0.500000 0.611111
vt 0.500000 0.888889
vt 0.416667 0.611111
vt 0.416667 0.888889
vt 0.333333 0.611111
vt 0.333333 0.888889
vt 0.250000 0.611111
vt 0.250000 0.888889
vt 0.166667 0.611111
vt 0.166667 0.888889
vt 0.000000 0.888889
s 0
g Ecto_Lid.001_MAT_OldGold
usemtl MAT_OldGold
f 126/207/159 121/208/159 122/209/159
f 128/210/160 123/211/160 127/212/160
f 130/213/161 125/214/161 126/207/161
f 128/210/162 131/215/162 132/216/162
f 130/213/163 133/217/163 129/218/163
f 132/216/164 135/219/164 136/220/164
f 138/221/165 133/217/165 134/222/165
f 140/223/166 135/219/166 139/224/166
f 142/225/167 137/226/167 138/221/167
f 140/223/168 143/227/168 144/228/168
f 142/225/169 145/229/169 141/230/169
f 144/228/170 147/231/170 148/232/170
f 150/233/171 145/229/171 146/234/171
f 152/235/172 147/231/172 151/236/172
f 154/237/173 149/238/173 150/233/173
f 152/235/174 155/239/174 156/240/174
f 154/237/175 157/241/175 153/242/175
f 156/240/176 159/243/176 160/244/176
f 162/245/177 157/241/177 158/246/177
f 164/247/178 159/243/178 163/248/178
f 166/249/179 161/250/179 162/245/179
f 164/247/180 167/251/180 168/252/180
f 166/249/181 121/208/181 165/253/181
f 168/252/182 123/211/182 124/254/182
f 133/217/183 149/238/183 165/253/183
f 124/255/184 126/256/184 122/257/184
f 168/258/185 122/259/185 166/260/185
f 163/248/186 147/231/186 131/215/186
f 128/261/187 130/262/187 126/256/187
f 132/263/188 134/264/188 130/262/188
f 136/265/189 138/266/189 134/264/189
f 140/267/190 142/268/190 138/266/190
f 144/269/191 146/270/191 142/268/191
f 148/271/192 150/272/192 146/270/192
f 152/273/193 154/274/193 150/272/193
f 156/275/194 158/276/194 154/274/194
f 160/277/195 162/278/195 158/276/195
f 164/279/196 166/260/196 162/278/196
f 126/207/159 125/214/159 121/208/159
f 128/210/160 124/254/160 123/211/160
f 130/213/161 129/218/161 125/214/161
f 128/210/162 127/212/162 131/215/162
f 130/213/163 134/222/163 133/217/163
f 132/216/164 131/215/164 135/219/164
f 138/221/165 137/226/165 133/217/165
f 140/223/166 136/220/166 135/219/166
f 142/225/167 141/230/167 137/226/167
f 140/223/168 139/224/168 143/227/168
f 142/225/169 146/234/169 145/229/169
f 144/228/170 143/227/170 147/231/170
f 150/233/171 149/238/171 145/229/171
f 152/235/172 148/232/172 147/231/172
f 154/237/173 153/242/173 149/238/173
f 152/235/174 151/236/174 155/239/174
f 154/237/175 158/246/175 157/241/175
f 156/240/176 155/239/176 159/243/176
f 162/245/177 161/250/177 157/241/177
f 164/247/178 160/244/178 159/243/178
f 166/249/179 165/253/179 161/250/179
f 164/247/180 163/248/180 167/251/180
f 166/249/181 122/209/181 121/208/181
f 168/252/182 167/251/182 123/211/182
f 165/253/183 121/208/183 125/214/183
f 125/214/183 129/218/183 133/217/183
f 133/217/183 137/226/183 141/230/183
f 141/230/183 145/229/183 149/238/183
f 149/238/183 153/242/183 157/241/183
f 157/241/183 161/250/183 165/253/183
f 165/253/183 125/214/183 133/217/183
f 133/217/183 141/230/183 149/238/183
f 149/238/183 157/241/183 165/253/183
f 124/255/184 128/261/184 126/256/184
f 168/258/185 124/280/185 122/259/185
f 131/215/186 127/212/186 123/211/186
f 123/211/186 167/251/186 163/248/186
f 163/248/186 159/243/186 155/239/186
f 155/239/186 151/236/186 147/231/186
f 147/231/186 143/227/186 139/224/186
f 139/224/186 135/219/186 131/215/186
f 131/215/186 123/211/186 163/248/186
f 163/248/186 155/239/186 147/231/186
f 147/231/186 139/224/186 131/215/186
f 128/261/187 132/263/187 130/262/187
f 132/263/188 136/265/188 134/264/188
f 136/265/189 140/267/189 138/266/189
f 140/267/190 144/269/190 142/268/190
f 144/269/191 148/271/191 146/270/191
f 148/271/192 152/273/192 150/272/192
f 152/273/193 156/275/193 154/274/193
f 156/275/194 160/277/194 158/276/194
f 160/277/195 164/279/195 162/278/195
f 164/279/196 168/258/196 166/260/196
g Ecto_Rim.001_Mesh
v 0.760000 0.820000 0.000000
v 0.690000 0.890000 0.000000
v 0.620000 0.820000 0.000000
v 0.690000 0.750000 0.000000
v 0.684736 0.820000 -0.329752
v 0.621669 0.890000 -0.299380
v 0.558601 0.820000 -0.269008
v 0.621669 0.750000 -0.299380
v 0.473852 0.820000 -0.594192
v 0.430208 0.890000 -0.539464
v 0.386564 0.820000 -0.484736
v 0.430208 0.750000 -0.539464
v 0.169116 0.820000 -0.740945
v 0.153540 0.890000 -0.672700
v 0.137963 0.820000 -0.604455
v 0.153540 0.750000 -0.672700
v -0.169116 0.820000 -0.740945
v -0.153539 0.890000 -0.672700
v -0.137963 0.820000 -0.604455
v -0.153539 0.750000 -0.672700
v -0.473852 0.820000 -0.594192
v -0.430208 0.890000 -0.539464
v -0.386564 0.820000 -0.484735
v -0.430208 0.750000 -0.539464
v -0.684736 0.820000 -0.329752
v -0.621669 0.890000 -0.299380
v -0.558601 0.820000 -0.269008
v -0.621669 0.750000 -0.299380
v -0.760000 0.820000 -0.000000
v -0.690000 0.890000 -0.000000
v -0.620000 0.820000 -0.000000
v -0.690000 0.750000 -0.000000
v -0.684736 0.820000 0.329751
v -0.621669 0.890000 0.299380
v -0.558601 0.820000 0.269008
v -0.621669 0.750000 0.299380
v -0.473852 0.820000 0.594192
v -0.430208 0.890000 0.539464
v -0.386564 0.820000 0.484735
v -0.430208 0.750000 0.539464
v -0.169116 0.820000 0.740945
v -0.153539 0.890000 0.672700
v -0.137963 0.820000 0.604455
v -0.153539 0.750000 0.672700
v 0.169116 0.820000 0.740945
v 0.153540 0.890000 0.672700
v 0.137963 0.820000 0.604455
v 0.153540 0.750000 0.672700
v 0.473852 0.820000 0.594192
v 0.430208 0.890000 0.539464
v 0.386563 0.820000 0.484736
v 0.430208 0.750000 0.539464
v 0.684736 0.820000 0.329752
v 0.621668 0.890000 0.299380
v 0.558601 0.820000 0.269008
v 0.621668 0.750000 0.299380
vn 0.6981 0.6981 -0.1593
vn -0.6981 0.6981 0.1593
vn -0.6981 -0.6981 0.1593
vn 0.6981 -0.6981 -0.1593
vn 0.5598 0.6981 -0.4464
vn -0.5598 0.6981 0.4464
vn -0.5598 -0.6981 0.4464
vn 0.5598 -0.6981 -0.4464
vn 0.3107 0.6981 -0.6451
vn -0.3107 0.6981 0.6451
vn -0.3107 -0.6981 0.6451
vn 0.3107 -0.6981 -0.6451
vn -0.0000 0.6981 -0.7160
vn -0.0000 0.6981 0.7160
vn -0.0000 -0.6981 0.7160
vn -0.0000 -0.6981 -0.7160
vn -0.3107 0.6981 -0.6451
vn 0.3107 0.6981 0.6451
vn 0.3107 -0.6981 0.6451
vn -0.3107 -0.6981 -0.6451
vn -0.5598 0.6981 -0.4464
vn 0.5598 0.6981 0.4464
vn 0.5598 -0.6981 0.4464
vn -0.5598 -0.6981 -0.4464
vn -0.6981 0.6981 -0.1593
vn 0.6981 0.6981 0.1593
vn 0.6981 -0.6981 0.1593
vn -0.6981 -0.6981 -0.1593
vt 0.571429 0.500000
vt 0.500000 0.750000
vt 0.500000 0.500000
vt 0.571429 0.750000
vt 0.500000 1.000000
vt 0.571429 0.000000
vt 0.500000 0.250000
vt 0.500000 0.000000
vt 0.571429 0.250000
vt 0.642857 0.500000
vt 0.642857 1.000000
vt 0.571429 1.000000
vt 0.642857 0.000000
vt 0.714286 0.750000
vt 0.642857 0.750000
vt 0.714286 1.000000
vt 0.714286 0.000000
vt 0.642857 0.250000
vt 0.714286 0.250000
vt 0.785714 0.500000
vt 0.714286 0.500000
vt 0.785714 0.750000
vt 0.785714 0.000000
vt 0.785714 0.250000
vt 0.857143 0.500000
vt 0.857143 0.750000
vt 0.785714 1.000000
vt 0.857143 0.000000
vt 0.928571 0.500000
vt 0.928571 1.000000
vt 0.857143 1.000000
vt 0.928571 0.250000
vt 0.857143 0.250000
vt 1.000000 0.500000
vt 0.928571 0.750000
vt 1.000000 0.750000
vt 1.000000 0.000000
vt 0.928571 0.000000
vt 1.000000 0.250000
vt 0.071429 0.500000
vt -0.000000 0.750000
vt -0.000000 0.500000
vt 0.071429 1.000000
vt -0.000000 1.000000
vt 0.071429 0.000000
vt -0.000000 0.250000
vt -0.000000 0.000000
vt 0.071429 0.250000
vt 0.142857 0.500000
vt 0.071429 0.750000
vt 0.142857 0.750000
vt 0.142857 0.250000
vt 0.214286 0.500000
vt 0.214286 0.750000
vt 0.142857 1.000000
vt 0.214286 0.000000
vt 0.142857 0.000000
vt 0.214286 0.250000
vt 0.285714 0.500000
vt 0.285714 0.750000
vt 0.214286 1.000000
vt 0.285714 0.000000
vt 0.357143 0.750000
vt 0.285714 1.000000
vt 0.357143 0.000000
vt 0.285714 0.250000
vt 0.357143 0.250000
vt 0.428571 0.500000
vt 0.357143 0.500000
vt 0.428571 0.750000
vt 0.357143 1.000000
vt 0.428571 0.000000
vt 0.428571 0.250000
vt 0.428571 1.000000
vt 1.000000 1.000000
s 0
g Ecto_Rim.001_MAT_OldGold
usemtl MAT_OldGold
f 173/281/197 170/282/197 169/283/197
f 174/284/198 171/285/198 170/282/198
f 175/286/199 172/287/199 171/288/199
f 176/289/200 169/283/200 172/287/200
f 177/290/201 174/284/201 173/281/201
f 174/284/202 179/291/202 175/292/202
f 179/293/203 176/289/203 175/286/203
f 176/289/204 177/290/204 173/281/204
f 177/290/205 182/294/205 178/295/205
f 178/295/206 183/296/206 179/291/206
f 183/297/207 180/298/207 179/293/207
f 184/299/208 177/290/208 180/298/208
f 185/300/209 182/294/209 181/301/209
f 186/302/210 183/296/210 182/294/210
f 187/303/211 184/299/211 183/297/211
f 188/304/212 181/301/212 184/299/212
f 189/305/213 186/302/213 185/300/213
f 190/306/214 187/307/214 186/302/214
f 191/308/215 188/304/215 187/303/215
f 188/304/216 189/305/216 185/300/216
f 193/309/217 190/306/217 189/305/217
f 190/306/218 195/310/218 191/311/218
f 191/308/219 196/312/219 192/313/219
f 192/313/220 193/309/220 189/305/220
f 197/314/221 194/315/221 193/309/221
f 198/316/222 195/310/222 194/315/222
f 199/317/223 196/312/223 195/318/223
f 200/319/224 193/309/224 196/312/224
f 201/320/198 198/321/198 197/322/198
f 198/321/197 203/323/197 199/324/197
f 203/325/200 200/326/200 199/327/200
f 204/328/199 197/322/199 200/326/199
f 205/329/202 202/330/202 201/320/202
f 206/331/201 203/323/201 202/330/201
f 203/325/204 208/332/204 204/328/204
f 208/332/203 201/320/203 204/328/203
f 209/333/206 206/331/206 205/329/206
f 210/334/205 207/335/205 206/331/205
f 211/336/208 208/332/208 207/337/208
f 212/338/207 205/329/207 208/332/207
f 213/339/210 210/334/210 209/333/210
f 214/340/209 211/341/209 210/334/209
f 215/342/212 212/338/212 211/336/212
f 212/338/211 213/339/211 209/333/211
f 213/339/214 218/343/214 214/340/214
f 218/343/213 215/344/213 214/340/213
f 219/345/216 216/346/216 215/342/216
f 220/347/215 213/339/215 216/346/215
f 221/348/218 218/343/218 217/349/218
f 222/350/217 219/351/217 218/343/217
f 223/352/220 220/347/220 219/345/220
f 224/353/219 217/349/219 220/347/219
f 169/283/222 222/350/222 221/348/222
f 170/282/221 223/354/221 222/350/221
f 171/288/224 224/353/224 223/352/224
f 224/353/223 169/283/223 221/348/223
f 173/281/197 174/284/197 170/282/197
f 174/284/198 175/292/198 171/285/198
f 175/286/199 176/289/199 172/287/199
f 176/289/200 173/281/200 169/283/200
f 177/290/201 178/295/201 174/284/201
f 174/284/202 178/295/202 179/291/202
f 179/293/203 180/298/203 176/289/203
f 176/289/204 180/298/204 177/290/204
f 177/290/205 181/301/205 182/294/205
f 178/295/206 182/294/206 183/296/206
f 183/297/207 184/299/207 180/298/207
f 184/299/208 181/301/208 177/290/208
f 185/300/209 186/302/209 182/294/209
f 186/302/210 187/307/210 183/296/210
f 187/303/211 188/304/211 184/299/211
f 188/304/212 185/300/212 181/301/212
f 189/305/213 190/306/213 186/302/213
f 190/306/214 191/311/214 187/307/214
f 191/308/215 192/313/215 188/304/215
f 188/304/216 192/313/216 189/305/216
f 193/309/217 194/315/217 190/306/217
f 190/306/218 194/315/218 195/310/218
f 191/308/219 195/318/219 196/312/219
f 192/313/220 196/312/220 193/309/220
f 197/314/221 198/316/221 194/315/221
f 198/316/222 199/355/222 195/310/222
f 199/317/223 200/319/223 196/312/223
f 200/319/224 197/314/224 193/309/224
f 201/320/198 202/330/198 198/321/198
f 198/321/197 202/330/197 203/323/197
f 203/325/200 204/328/200 200/326/200
f 204/328/199 201/320/199 197/322/199
f 205/329/202 206/331/202 202/330/202
f 206/331/201 207/335/201 203/323/201
f 203/325/204 207/337/204 208/332/204
f 208/332/203 205/329/203 201/320/203
f 209/333/206 210/334/206 206/331/206
f 210/334/205 211/341/205 207/335/205
f 211/336/208 212/338/208 208/332/208
f 212/338/207 209/333/207 205/329/207
f 213/339/210 214/340/210 210/334/210
f 214/340/209 215/344/209 211/341/209
f 215/342/212 216/346/212 212/338/212
f 212/338/211 216/346/211 213/339/211
f 213/339/214 217/349/214 218/343/214
f 218/343/213 219/351/213 215/344/213
f 219/345/216 220/347/216 216/346/216
f 220/347/215 217/349/215 213/339/215
f 221/348/218 222/350/218 218/343/218
f 222/350/217 223/354/217 219/351/217
f 223/352/220 224/353/220 220/347/220
f 224/353/219 221/348/219 217/349/219
f 169/283/222 170/282/222 222/350/222
f 170/282/221 171/285/221 223/354/221
f 171/288/224 172/287/224 224/353/224
f 224/353/223 172/287/223 169/283/223
