# Blender 5.2.2 LTS
# www.blender.org
mtllib ether.mtl
g Ampoule_Profile.001_Ampoule_Profile_profile_mesh.001
v 0.000000 -0.960000 0.000000
v 0.130000 -0.960000 0.000000
v 0.230000 -0.810000 0.000000
v 0.270000 -0.560000 0.000000
v 0.250000 0.310000 0.000000
v 0.180000 0.500000 0.000000
v 0.105000 0.610000 0.000000
v 0.085000 0.860000 0.000000
v 0.000000 0.860000 0.000000
v 0.091924 -0.960000 -0.091924
v 0.162635 -0.810000 -0.162635
v 0.190919 -0.560000 -0.190919
v 0.176777 0.310000 -0.176777
v 0.127279 0.500000 -0.127279
v 0.074246 0.610000 -0.074246
v 0.060104 0.860000 -0.060104
v -0.000000 -0.960000 -0.130000
v -0.000000 -0.810000 -0.230000
v -0.000000 -0.560000 -0.270000
v -0.000000 0.310000 -0.250000
v -0.000000 0.500000 -0.180000
v -0.000000 0.610000 -0.105000
v -0.000000 0.860000 -0.085000
v -0.091924 -0.960000 -0.091924
v -0.162635 -0.810000 -0.162635
v -0.190919 -0.560000 -0.190919
v -0.176777 0.310000 -0.176777
v -0.127279 0.500000 -0.127279
v -0.074246 0.610000 -0.074246
v -0.060104 0.860000 -0.060104
v -0.130000 -0.960000 0.000000
v -0.230000 -0.810000 0.000000
v -0.270000 -0.560000 0.000000
v -0.250000 0.310000 0.000000
v -0.180000 0.500000 0.000000
v -0.105000 0.610000 0.000000
v -0.085000 0.860000 0.000000
v -0.091924 -0.960000 0.091924
v -0.162635 -0.810000 0.162635
v -0.190919 -0.560000 0.190919
v -0.176777 0.310000 0.176777
v -0.127279 0.500000 0.127279
v -0.074246 0.610000 0.074246
v -0.060104 0.860000 0.060104
v 0.000000 -0.960000 0.130000
v 0.000000 -0.810000 0.230000
v 0.000000 -0.560000 0.270000
v 0.000000 0.310000 0.250000
v 0.000000 0.500000 0.180000
v 0.000000 0.610000 0.105000
v 0.000000 0.860000 0.085000
v 0.091924 -0.960000 0.091924
v 0.162635 -0.810000 0.162635
v 0.190919 -0.560000 0.190919
v 0.176777 0.310000 0.176777
v 0.127279 0.500000 0.127279
v 0.074246 0.610000 0.074246
v 0.060104 0.860000 0.060104
vn -0.0000 1.0000 -0.0000
vn -0.5532 0.8330 -0.0000
vn -0.9374 0.3482 -0.0000
vn -0.9978 0.0663 -0.0000
vn -0.9837 -0.1799 -0.0000
vn -0.8949 -0.4462 -0.0000
vn -0.9352 -0.3541 -0.0000
vn -0.7513 -0.6600 -0.0000
vn -0.0000 -1.0000 -0.0000
vn -0.3912 0.8330 0.3912
vn -0.6629 0.3482 0.6629
vn -0.7055 0.0663 0.7056
vn -0.6956 -0.1799 0.6956
vn -0.6328 -0.4462 0.6328
vn -0.6613 -0.3541 0.6613
vn -0.5312 -0.6600 0.5312
vn -0.0000 0.8330 0.5532
vn -0.0000 0.3482 0.9374
vn -0.0000 0.0663 0.9978
vn -0.0000 -0.1799 0.9837
vn -0.0000 -0.4462 0.8949
vn -0.0000 -0.3541 0.9352
vn -0.0000 -0.6600 0.7513
vn 0.3912 0.8330 0.3912
vn 0.6629 0.3482 0.6629
vn 0.7055 0.0663 0.7055
vn 0.6956 -0.1799 0.6956
vn 0.6328 -0.4462 0.6328
vn 0.6613 -0.3541 0.6613
vn 0.5312 -0.6600 0.5312
vn 0.5532 0.8330 -0.0000
vn 0.9374 0.3482 -0.0000
vn 0.9978 0.0663 -0.0000
vn 0.9837 -0.1799 -0.0000
vn 0.8949 -0.4462 -0.0000
vn 0.9352 -0.3541 -0.0000
vn 0.7513 -0.6600 -0.0000
vn 0.3912 0.8330 -0.3912
vn 0.6629 0.3482 -0.6629
vn 0.7055 0.0663 -0.7056
vn 0.6956 -0.1799 -0.6956
vn 0.6328 -0.4462 -0.6328
vn 0.6613 -0.3541 -0.6613
vn 0.5312 -0.6600 -0.5312
vn -0.0000 0.8330 -0.5532
vn -0.0000 0.3482 -0.9374
vn -0.0000 0.0663 -0.9978
vn -0.0000 -0.1799 -0.9837
vn -0.0000 -0.4462 -0.8949
vn -0.0000 -0.3541 -0.9352
vn -0.0000 -0.6600 -0.7513
vn -0.3912 0.8330 -0.3912
vn -0.6629 0.3482 -0.6629
vn -0.7055 0.0663 -0.7055
vn -0.6956 -0.1799 -0.6956
vn -0.6328 -0.4462 -0.6328
vn -0.6613 -0.3541 -0.6613
vn -0.5312 -0.6600 -0.5312
vt 0.062500 0.000000
vt 0.000000 0.000000
vt 0.125000 0.000000
vt 0.187500 0.000000
vt 0.250000 0.000000
vt 0.312500 0.000000
vt 0.375000 0.000000
vt 0.437500 0.000000
vt 0.500000 0.000000
vt 0.562500 0.000000
vt 0.625000 0.000000
vt 0.687500 0.000000
vt 0.750000 0.000000
vt 0.812500 0.000000
vt 0.875000 0.000000
vt 0.937500 0.000000
vt 1.000000 0.000000
vt 0.000000 0.082418
vt 0.125000 0.082418
vt 0.250000 0.082418
vt 0.375000 0.082418
vt 0.500000 0.082418
vt 0.750000 0.082418
vt 0.875000 0.082418
vt 0.000000 0.219780
vt 0.125000 0.219780
vt 0.250000 0.219780
vt 0.500000 0.219780
vt 0.625000 0.219780
vt 0.625000 0.082418
vt 0.750000 0.219780
vt 0.875000 0.219780
vt 1.000000 0.082418
vt 0.000000 0.697802
vt 0.125000 0.697802
vt 0.250000 0.697802
vt 0.375000 0.219780
vt 0.500000 0.697802
vt 0.625000 0.697802
vt 0.875000 0.697802
vt 1.000000 0.219780
vt 0.000000 0.802198
vt 0.250000 0.802198
vt 0.375000 0.802198
vt 0.375000 0.697802
vt 0.500000 0.802198
vt 0.625000 0.802198
vt 0.750000 0.697802
vt 0.750000 0.802198
vt 0.875000 0.802198
vt 1.000000 0.697802
vt 0.000000 0.862637
vt 0.125000 0.802198
vt 0.125000 0.862637
vt 0.250000 0.862637
vt 0.375000 0.862637
vt 0.625000 0.862637
vt 0.750000 0.862637
vt 0.875000 0.862637
vt 1.000000 0.802198
vt 0.000000 1.000000
vt 0.125000 1.000000
vt 0.250000 1.000000
vt 0.375000 1.000000
vt 0.500000 0.862637
vt 0.500000 1.000000
vt 0.625000 1.000000
vt 0.750000 1.000000
vt 0.875000 1.000000
vt 1.000000 0.862637
vt 0.062500 1.000000
vt 0.187500 1.000000
vt 0.312500 1.000000
vt 0.437500 1.000000
vt 0.562500 1.000000
vt 0.687500 1.000000
vt 0.812500 1.000000
vt 0.937500 1.000000
vt 1.000000 1.000000
s 1
g Ampoule_Profile.001_sr_smoked_glass
usemtl sr_smoked_glass
f 1/1/1 2/2/2 10/3/10
f 1/4/1 10/3/10 17/5/17
f 1/6/1 17/5/17 24/7/24
f 1/8/1 24/7/24 31/9/31
f 1/10/1 31/9/31 38/11/38
f 1/12/1 38/11/38 45/13/45
f 1/14/1 45/13/45 52/15/52
f 1/16/1 52/15/52 2/17/2
f 3/18/3 10/3/10 2/2/2
f 11/19/11 17/5/17 10/3/10
f 18/20/18 24/7/24 17/5/17
f 25/21/25 31/9/31 24/7/24
f 32/22/32 38/11/38 31/9/31
f 38/11/38 46/23/46 45/13/45
f 46/23/46 52/15/52 45/13/45
f 53/24/53 2/17/2 52/15/52
f 4/25/4 11/19/11 3/18/3
f 12/26/12 18/20/18 11/19/11
f 19/27/19 25/21/25 18/20/18
f 25/21/25 33/28/33 32/22/32
f 32/22/32 40/29/40 39/30/39
f 40/29/40 46/23/46 39/30/39
f 47/31/47 53/24/53 46/23/46
f 54/32/54 3/33/3 53/24/53
f 5/34/5 12/26/12 4/25/4
f 13/35/13 19/27/19 12/26/12
f 20/36/20 26/37/26 19/27/19
f 26/37/26 34/38/34 33/28/33
f 34/38/34 40/29/40 33/28/33
f 41/39/41 47/31/47 40/29/40
f 47/31/47 55/40/55 54/32/54
f 55/40/55 4/41/4 54/32/54
f 6/42/6 13/35/13 5/34/5
f 13/35/13 21/43/21 20/36/20
f 20/36/20 28/44/28 27/45/27
f 28/44/28 34/38/34 27/45/27
f 35/46/35 41/39/41 34/38/34
f 42/47/42 48/48/48 41/39/41
f 49/49/49 55/40/55 48/48/48
f 56/50/56 5/51/5 55/40/55
f 7/52/7 14/53/14 6/42/6
f 15/54/15 21/43/21 14/53/14
f 22/55/22 28/44/28 21/43/21
f 29/56/29 35/46/35 28/44/28
f 35/46/35 43/57/43 42/47/42
f 43/57/43 49/49/49 42/47/42
f 50/58/50 56/50/56 49/49/49
f 57/59/57 6/60/6 56/50/56
f 8/61/8 15/54/15 7/52/7
f 16/62/16 22/55/22 15/54/15
f 23/63/23 29/56/29 22/55/22
f 30/64/30 36/65/36 29/56/29
f 37/66/37 43/57/43 36/65/36
f 44/67/44 50/58/50 43/57/43
f 51/68/51 57/59/57 50/58/50
f 58/69/58 7/70/7 57/59/57
f 8/61/8 9/71/9 16/62/16
f 16/62/16 9/72/9 23/63/23
f 23/63/23 9/73/9 30/64/30
f 30/64/30 9/74/9 37/66/37
f 37/66/37 9/75/9 44/67/44
f 44/67/44 9/76/9 51/68/51
f 51/68/51 9/77/9 58/69/58
f 58/69/58 9/78/9 8/79/8
f 3/18/3 11/19/11 10/3/10
f 11/19/11 18/20/18 17/5/17
f 18/20/18 25/21/25 24/7/24
f 25/21/25 32/22/32 31/9/31
f 32/22/32 39/30/39 38/11/38
f 38/11/38 39/30/39 46/23/46
f 46/23/46 53/24/53 52/15/52
f 53/24/53 3/33/3 2/17/2
f 4/25/4 12/26/12 11/19/11
f 12/26/12 19/27/19 18/20/18
f 19/27/19 26/37/26 25/21/25
f 25/21/25 26/37/26 33/28/33
f 32/22/32 33/28/33 40/29/40
f 40/29/40 47/31/47 46/23/46
f 47/31/47 54/32/54 53/24/53
f 54/32/54 4/41/4 3/33/3
f 5/34/5 13/35/13 12/26/12
f 13/35/13 20/36/20 19/27/19
f 20/36/20 27/45/27 26/37/26
f 26/37/26 27/45/27 34/38/34
f 34/38/34 41/39/41 40/29/40
f 41/39/41 48/48/48 47/31/47
f 47/31/47 48/48/48 55/40/55
f 55/40/55 5/51/5 4/41/4
f 6/42/6 14/53/14 13/35/13
f 13/35/13 14/53/14 21/43/21
f 20/36/20 21/43/21 28/44/28
f 28/44/28 35/46/35 34/38/34
f 35/46/35 42/47/42 41/39/41
f 42/47/42 49/49/49 48/48/48
f 49/49/49 56/50/56 55/40/55
f 56/50/56 6/60/6 5/51/5
f 7/52/7 15/54/15 14/53/14
f 15/54/15 22/55/22 21/43/21
f 22/55/22 29/56/29 28/44/28
f 29/56/29 36/65/36 35/46/35
f 35/46/35 36/65/36 43/57/43
f 43/57/43 50/58/50 49/49/49
f 50/58/50 57/59/57 56/50/56
f 57/59/57 7/70/7 6/60/6
f 8/61/8 16/62/16 15/54/15
f 16/62/16 23/63/23 22/55/22
f 23/63/23 30/64/30 29/56/29
f 30/64/30 37/66/37 36/65/36
f 37/66/37 44/67/44 43/57/43
f 44/67/44 51/68/51 50/58/50
f 51/68/51 58/69/58 57/59/57
f 58/69/58 8/79/8 7/70/7
g Calibration_1.001_Calibration_1_profile_mesh.001
v 0.272500 -0.442500 0.000000
v 0.297500 -0.442500 0.000000
v 0.297500 -0.397500 0.000000
v 0.272500 -0.397500 0.000000
v 0.192687 -0.442500 -0.192687
v 0.210364 -0.442500 -0.210364
v 0.210364 -0.397500 -0.210364
v 0.192687 -0.397500 -0.192687
v -0.000000 -0.442500 -0.272500
v -0.000000 -0.442500 -0.297500
v -0.000000 -0.397500 -0.297500
v -0.000000 -0.397500 -0.272500
v -0.192687 -0.442500 -0.192687
v -0.210364 -0.442500 -0.210364
v -0.210364 -0.397500 -0.210364
v -0.192687 -0.397500 -0.192687
v -0.272500 -0.442500 0.000000
v -0.297500 -0.442500 0.000000
v -0.297500 -0.397500 0.000000
v -0.272500 -0.397500 0.000000
v -0.192687 -0.442500 0.192687
v -0.210364 -0.442500 0.210364
v -0.210364 -0.397500 0.210364
v -0.192687 -0.397500 0.192687
v 0.000000 -0.442500 0.272500
v 0.000000 -0.442500 0.297500
v 0.000000 -0.397500 0.297500
v 0.000000 -0.397500 0.272500
v 0.192687 -0.442500 0.192687
v 0.210364 -0.442500 0.210364
v 0.210364 -0.397500 0.210364
v 0.192687 -0.397500 0.192687
vn -0.0000 1.0000 -0.0000
vn -0.9239 -0.0000 0.3827
vn -0.3827 -0.0000 0.9239
vn 0.3827 -0.0000 0.9239
vn 0.9239 -0.0000 0.3827
vn 0.9239 -0.0000 -0.3827
vn 0.3827 -0.0000 -0.9239
vn -0.3827 -0.0000 -0.9239
vn -0.9239 -0.0000 -0.3827
vn -0.0000 -1.0000 -0.0000
vt 0.000000 0.000000
vt 0.125000 0.000000
vt 0.250000 0.000000
vt 0.375000 0.000000
vt 0.500000 0.000000
vt 0.625000 0.000000
vt 0.750000 0.000000
vt 0.875000 0.000000
vt 1.000000 0.000000
vt 0.000000 1.000000
vt 0.125000 1.000000
vt 0.250000 1.000000
vt 0.375000 1.000000
vt 0.500000 1.000000
vt 0.625000 1.000000
vt 0.750000 1.000000
vt 0.875000 1.000000
vt 1.000000 1.000000
s 0
g Calibration_1.001_sr_ritual_gold
usemtl sr_ritual_gold
f 59/80/59 64/81/59 63/81/59
f 63/81/59 68/82/59 67/82/59
f 68/82/59 71/83/59 67/82/59
f 71/83/59 76/84/59 75/84/59
f 76/84/59 79/85/59 75/84/59
f 80/85/59 83/86/59 79/85/59
f 84/86/59 87/87/59 83/86/59
f 88/87/59 59/88/59 87/87/59
f 61/89/60 64/81/60 60/80/60
f 65/90/61 68/82/61 64/81/61
f 69/91/62 72/83/62 68/82/62
f 73/92/63 76/84/63 72/83/63
f 77/93/64 80/85/64 76/84/64
f 81/94/65 84/86/65 80/85/65
f 85/95/66 88/87/66 84/86/66
f 89/96/67 60/88/67 88/87/67
f 62/89/68 65/90/68 61/89/68
f 66/90/68 69/91/68 65/90/68
f 70/91/68 73/92/68 69/91/68
f 74/92/68 77/93/68 73/92/68
f 78/93/68 81/94/68 77/93/68
f 81/94/68 86/95/68 85/95/68
f 85/95/68 90/96/68 89/96/68
f 89/96/68 62/97/68 61/97/68
f 59/80/64 66/90/64 62/89/64
f 63/81/65 70/91/65 66/90/65
f 67/82/66 74/92/66 70/91/66
f 71/83/67 78/93/67 74/92/67
f 75/84/60 82/94/60 78/93/60
f 79/85/61 86/95/61 82/94/61
f 83/86/62 90/96/62 86/95/62
f 87/87/63 62/97/63 90/96/63
f 59/80/59 60/80/59 64/81/59
f 63/81/59 64/81/59 68/82/59
f 68/82/59 72/83/59 71/83/59
f 71/83/59 72/83/59 76/84/59
f 76/84/59 80/85/59 79/85/59
f 80/85/59 84/86/59 83/86/59
f 84/86/59 88/87/59 87/87/59
f 88/87/59 60/88/59 59/88/59
f 61/89/60 65/90/60 64/81/60
f 65/90/61 69/91/61 68/82/61
f 69/91/62 73/92/62 72/83/62
f 73/92/63 77/93/63 76/84/63
f 77/93/64 81/94/64 80/85/64
f 81/94/65 85/95/65 84/86/65
f 85/95/66 89/96/66 88/87/66
f 89/96/67 61/97/67 60/88/67
f 62/89/68 66/90/68 65/90/68
f 66/90/68 70/91/68 69/91/68
f 70/91/68 74/92/68 73/92/68
f 74/92/68 78/93/68 77/93/68
f 78/93/68 82/94/68 81/94/68
f 81/94/68 82/94/68 86/95/68
f 85/95/68 86/95/68 90/96/68
f 89/96/68 90/96/68 62/97/68
f 59/80/64 63/81/64 66/90/64
f 63/81/65 67/82/65 70/91/65
f 67/82/66 71/83/66 74/92/66
f 71/83/67 75/84/67 78/93/67
f 75/84/60 79/85/60 82/94/60
f 79/85/61 83/86/61 86/95/61
f 83/86/62 87/87/62 90/96/62
f 87/87/63 59/88/63 62/97/63
g Calibration_2.001_Calibration_2_profile_mesh.001
v 0.262500 -0.072500 0.000000
v 0.287500 -0.072500 0.000000
v 0.287500 -0.027500 0.000000
v 0.262500 -0.027500 0.000000
v 0.185616 -0.072500 -0.185616
v 0.203293 -0.072500 -0.203293
v 0.203293 -0.027500 -0.203293
v 0.185616 -0.027500 -0.185616
v -0.000000 -0.072500 -0.262500
v -0.000000 -0.072500 -0.287500
v -0.000000 -0.027500 -0.287500
v -0.000000 -0.027500 -0.262500
v -0.185616 -0.072500 -0.185616
v -0.203293 -0.072500 -0.203293
v -0.203293 -0.027500 -0.203293
v -0.185616 -0.027500 -0.185616
v -0.262500 -0.072500 0.000000
v -0.287500 -0.072500 0.000000
v -0.287500 -0.027500 0.000000
v -0.262500 -0.027500 0.000000
v -0.185615 -0.072500 0.185616
v -0.203293 -0.072500 0.203293
v -0.203293 -0.027500 0.203293
v -0.185615 -0.027500 0.185616
v 0.000000 -0.072500 0.262500
v 0.000000 -0.072500 0.287500
v 0.000000 -0.027500 0.287500
v 0.000000 -0.027500 0.262500
v 0.185616 -0.072500 0.185615
v 0.203293 -0.072500 0.203293
v 0.203293 -0.027500 0.203293
v 0.185616 -0.027500 0.185615
vn -0.0000 1.0000 -0.0000
vn -0.9239 -0.0000 0.3827
vn -0.3827 -0.0000 0.9239
vn 0.3827 -0.0000 0.9239
vn 0.9239 -0.0000 0.3827
vn 0.9239 -0.0000 -0.3827
vn 0.3827 -0.0000 -0.9239
vn -0.3827 -0.0000 -0.9239
vn -0.9239 -0.0000 -0.3827
vn -0.0000 -1.0000 -0.0000
vt 0.000000 0.000000
vt 0.125000 0.000000
vt 0.250000 0.000000
vt 0.375000 0.000000
vt 0.500000 0.000000
vt 0.625000 0.000000
vt 0.750000 0.000000
vt 0.875000 0.000000
vt 1.000000 0.000000
vt 0.000000 1.000000
vt 0.125000 1.000000
vt 0.250000 1.000000
vt 0.375000 1.000000
vt 0.500000 1.000000
vt 0.625000 1.000000
vt 0.750000 1.000000
vt 0.875000 1.000000
vt 1.000000 1.000000
s 0
g Calibration_2.001_sr_ritual_gold
usemtl sr_ritual_gold
f 92/98/69 95/99/69 91/98/69
f 95/99/69 100/100/69 99/100/69
f 99/100/69 104/101/69 103/101/69
f 104/101/69 107/102/69 103/101/69
f 107/102/69 112/103/69 111/103/69
f 111/103/69 116/104/69 115/104/69
f 116/104/69 119/105/69 115/104/69
f 120/105/69 91/106/69 119/105/69
f 93/107/70 96/99/70 92/98/70
f 97/108/71 100/100/71 96/99/71
f 101/109/72 104/101/72 100/100/72
f 105/110/73 108/102/73 104/101/73
f 109/111/74 112/103/74 108/102/74
f 113/112/75 116/104/75 112/103/75
f 117/113/76 120/105/76 116/104/76
f 121/114/77 92/106/77 120/105/77
f 93/107/78 98/108/78 97/108/78
f 98/108/78 101/109/78 97/108/78
f 102/109/78 105/110/78 101/109/78
f 106/110/78 109/111/78 105/110/78
f 110/111/78 113/112/78 109/111/78
f 114/112/78 117/113/78 113/112/78
f 118/113/78 121/114/78 117/113/78
f 122/114/78 93/115/78 121/114/78
f 91/98/74 98/108/74 94/107/74
f 95/99/75 102/109/75 98/108/75
f 99/100/76 106/110/76 102/109/76
f 103/101/77 110/111/77 106/110/77
f 107/102/70 114/112/70 110/111/70
f 111/103/71 118/113/71 114/112/71
f 115/104/72 122/114/72 118/113/72
f 119/105/73 94/115/73 122/114/73
f 92/98/69 96/99/69 95/99/69
f 95/99/69 96/99/69 100/100/69
f 99/100/69 100/100/69 104/101/69
f 104/101/69 108/102/69 107/102/69
f 107/102/69 108/102/69 112/103/69
f 111/103/69 112/103/69 116/104/69
f 116/104/69 120/105/69 119/105/69
f 120/105/69 92/106/69 91/106/69
f 93/107/70 97/108/70 96/99/70
f 97/108/71 101/109/71 100/100/71
f 101/109/72 105/110/72 104/101/72
f 105/110/73 109/111/73 108/102/73
f 109/111/74 113/112/74 112/103/74
f 113/112/75 117/113/75 116/104/75
f 117/113/76 121/114/76 120/105/76
f 121/114/77 93/115/77 92/106/77
f 93/107/78 94/107/78 98/108/78
f 98/108/78 102/109/78 101/109/78
f 102/109/78 106/110/78 105/110/78
f 106/110/78 110/111/78 109/111/78
f 110/111/78 114/112/78 113/112/78
f 114/112/78 118/113/78 117/113/78
f 118/113/78 122/114/78 121/114/78
f 122/114/78 94/115/78 93/115/78
f 91/98/74 95/99/74 98/108/74
f 95/99/75 99/100/75 102/109/75
f 99/100/76 103/101/76 106/110/76
f 103/101/77 107/102/77 110/111/77
f 107/102/70 111/103/70 114/112/70
f 111/103/71 115/104/71 118/113/71
f 115/104/72 119/105/72 122/114/72
f 119/105/73 91/106/73 94/115/73
g Calibration_3.001_Calibration_3_profile_mesh.001
v 0.242500 0.277500 0.000000
v 0.267500 0.277500 0.000000
v 0.267500 0.322500 0.000000
v 0.242500 0.322500 0.000000
v 0.171473 0.277500 -0.171473
v 0.189151 0.277500 -0.189151
v 0.189151 0.322500 -0.189151
v 0.171473 0.322500 -0.171473
v -0.000000 0.277500 -0.242500
v -0.000000 0.277500 -0.267500
v -0.000000 0.322500 -0.267500
v -0.000000 0.322500 -0.242500
v -0.171473 0.277500 -0.171473
v -0.189151 0.277500 -0.189151
v -0.189151 0.322500 -0.189151
v -0.171473 0.322500 -0.171473
v -0.242500 0.277500 0.000000
v -0.267500 0.277500 0.000000
v -0.267500 0.322500 0.000000
v -0.242500 0.322500 0.000000
v -0.171473 0.277500 0.171473
v -0.189151 0.277500 0.189151
v -0.189151 0.322500 0.189151
v -0.171473 0.322500 0.171473
v 0.000000 0.277500 0.242500
v 0.000000 0.277500 0.267500
v 0.000000 0.322500 0.267500
v 0.000000 0.322500 0.242500
v 0.171473 0.277500 0.171473
v 0.189151 0.277500 0.189151
v 0.189151 0.322500 0.189151
v 0.171473 0.322500 0.171473
vn -0.0000 1.0000 -0.0000
vn -0.9239 -0.0000 0.3827
vn -0.3827 -0.0000 0.9239
vn 0.3827 -0.0000 0.9239
vn 0.9239 -0.0000 0.3827
vn 0.9239 -0.0000 -0.3827
vn 0.3827 -0.0000 -0.9239
vn -0.3827 -0.0000 -0.9239
vn -0.9239 -0.0000 -0.3827
vn -0.0000 -1.0000 -0.0000
vt 0.000000 0.000000
vt 0.125000 0.000000
vt 0.250000 0.000000
vt 0.375000 0.000000
vt 0.500000 0.000000
vt 0.625000 0.000000
vt 0.750000 0.000000
vt 0.875000 0.000000
vt 1.000000 0.000000
vt 0.000000 1.000000
vt 0.125000 1.000000
vt 0.250000 1.000000
vt 0.375000 1.000000
vt 0.500000 1.000000
vt 0.625000 1.000000
vt 0.750000 1.000000
vt 0.875000 1.000000
vt 1.000000 1.000000
s 0
g Calibration_3.001_sr_ritual_gold
usemtl sr_ritual_gold
f 124/116/79 127/117/79 123/116/79
f 128/117/79 131/118/79 127/117/79
f 132/118/79 135/119/79 131/118/79
f 136/119/79 139/120/79 135/119/79
f 140/120/79 143/121/79 139/120/79
f 144/121/79 147/122/79 143/121/79
f 147/122/79 152/123/79 151/123/79
f 152/123/79 123/124/79 151/123/79
f 125/125/80 128/117/80 124/116/80
f 129/126/81 132/118/81 128/117/81
f 133/127/82 136/119/82 132/118/82
f 137/128/83 140/120/83 136/119/83
f 141/129/84 144/121/84 140/120/84
f 145/130/85 148/122/85 144/121/85
f 149/131/86 152/123/86 148/122/86
f 153/132/87 124/124/87 152/123/87
f 126/125/88 129/126/88 125/125/88
f 130/126/88 133/127/88 129/126/88
f 134/127/88 137/128/88 133/127/88
f 138/128/88 141/129/88 137/128/88
f 142/129/88 145/130/88 141/129/88
f 146/130/88 149/131/88 145/130/88
f 150/131/88 153/132/88 149/131/88
f 154/132/88 125/133/88 153/132/88
f 123/116/84 130/126/84 126/125/84
f 127/117/85 134/127/85 130/126/85
f 131/118/86 138/128/86 134/127/86
f 135/119/87 142/129/87 138/128/87
f 139/120/80 146/130/80 142/129/80
f 143/121/81 150/131/81 146/130/81
f 147/122/82 154/132/82 150/131/82
f 151/123/83 126/133/83 154/132/83
f 124/116/79 128/117/79 127/117/79
f 128/117/79 132/118/79 131/118/79
f 132/118/79 136/119/79 135/119/79
f 136/119/79 140/120/79 139/120/79
f 140/120/79 144/121/79 143/121/79
f 144/121/79 148/122/79 147/122/79
f 147/122/79 148/122/79 152/123/79
f 152/123/79 124/124/79 123/124/79
f 125/125/80 129/126/80 128/117/80
f 129/126/81 133/127/81 132/118/81
f 133/127/82 137/128/82 136/119/82
f 137/128/83 141/129/83 140/120/83
f 141/129/84 145/130/84 144/121/84
f 145/130/85 149/131/85 148/122/85
f 149/131/86 153/132/86 152/123/86
f 153/132/87 125/133/87 124/124/87
f 126/125/88 130/126/88 129/126/88
f 130/126/88 134/127/88 133/127/88
f 134/127/88 138/128/88 137/128/88
f 138/128/88 142/129/88 141/129/88
f 142/129/88 146/130/88 145/130/88
f 146/130/88 150/131/88 149/131/88
f 150/131/88 154/132/88 153/132/88
f 154/132/88 126/133/88 125/133/88
f 123/116/84 127/117/84 130/126/84
f 127/117/85 131/118/85 134/127/85
f 131/118/86 135/119/86 138/128/86
f 135/119/87 139/120/87 142/129/87
f 139/120/80 143/121/80 146/130/80
f 143/121/81 147/122/81 150/131/81
f 147/122/82 151/123/82 154/132/82
f 151/123/83 123/124/83 126/133/83
g Crystal_Needle_Cap.001_Crystal_Needle_Cap_profile_mesh.001
v 0.000000 0.800000 0.000000
v 0.090000 0.800000 0.000000
v 0.070000 0.970000 0.000000
v 0.000000 1.070000 0.000000
v 0.045000 0.800000 -0.077942
v 0.035000 0.970000 -0.060622
v -0.045000 0.800000 -0.077942
v -0.035000 0.970000 -0.060622
v -0.090000 0.800000 0.000000
v -0.070000 0.970000 0.000000
v -0.045000 0.800000 0.077942
v -0.035000 0.970000 0.060622
v 0.045000 0.800000 0.077942
v 0.035000 0.970000 0.060622
vn -0.0000 1.0000 -0.0000
vn -0.8616 -0.1014 0.4974
vn -0.0000 -0.1014 0.9948
vn 0.8616 -0.1014 0.4974
vn 0.8616 -0.1014 -0.4974
vn -0.0000 -0.1014 -0.9948
vn -0.8616 -0.1014 -0.4974
vn -0.7406 -0.5184 0.4276
vn -0.0000 -0.5184 0.8551
vn 0.7406 -0.5184 0.4276
vn 0.7406 -0.5184 -0.4276
vn -0.0000 -0.5184 -0.8551
vn -0.7406 -0.5184 -0.4276
vt 0.083333 0.000000
vt 0.000000 0.000000
vt 0.166667 0.000000
vt 0.250000 0.000000
vt 0.333333 0.000000
vt 0.416667 0.000000
vt 0.500000 0.000000
vt 0.583333 0.000000
vt 0.666667 0.000000
vt 0.750000 0.000000
vt 0.833333 0.000000
vt 0.916667 0.000000
vt 1.000000 0.000000
vt 0.166667 0.629630
vt 0.333333 0.629630
vt 0.500000 0.629630
vt 0.666667 0.629630
vt 1.000000 0.629630
vt 0.000000 0.629630
vt 0.083333 1.000000
vt 0.250000 1.000000
vt 0.416667 1.000000
vt 0.583333 1.000000
vt 0.750000 1.000000
vt 0.833333 0.629630
vt 0.916667 1.000000
s 0
g Crystal_Needle_Cap.001_sr_crystal
usemtl sr_crystal
f 155/134/89 156/135/89 159/136/89
f 155/137/89 159/136/89 161/138/89
f 155/139/89 161/138/89 163/140/89
f 155/141/89 163/140/89 165/142/89
f 155/143/89 165/142/89 167/144/89
f 155/145/89 167/144/89 156/146/89
f 156/135/90 160/147/90 159/136/90
f 160/147/91 161/138/91 159/136/91
f 162/148/92 163/140/92 161/138/92
f 164/149/93 165/142/93 163/140/93
f 166/150/94 167/144/94 165/142/94
f 167/144/95 157/151/95 156/146/95
f 157/152/96 158/153/96 160/147/96
f 160/147/97 158/154/97 162/148/97
f 162/148/98 158/155/98 164/149/98
f 164/149/99 158/156/99 166/150/99
f 166/150/100 158/157/100 168/158/100
f 168/158/101 158/159/101 157/151/101
f 156/135/90 157/152/90 160/147/90
f 160/147/91 162/148/91 161/138/91
f 162/148/92 164/149/92 163/140/92
f 164/149/93 166/150/93 165/142/93
f 166/150/94 168/158/94 167/144/94
f 167/144/95 168/158/95 157/151/95
