# Blender 5.0.1
# www.blender.org
mtllib glittering_teardrop.mtl
g Teardrop_Body.001_Mesh
v 0.000000 -0.825000 -0.603764
v -0.013934 -0.810491 -0.610109
v 0.013934 -0.810491 -0.610109
v -0.000000 0.725000 -0.163764
v 0.013934 0.710490 -0.178347
v -0.013934 0.710490 -0.178347
v 0.426926 -0.825000 -0.426926
v 0.421559 -0.810491 -0.441266
v 0.441266 -0.810491 -0.421559
v 0.115799 0.725000 -0.115799
v 0.135963 0.710490 -0.116257
v 0.116257 0.710490 -0.135963
v 0.603764 -0.825000 0.000000
v 0.610109 -0.810491 -0.013934
v 0.610109 -0.810491 0.013934
v 0.163764 0.725000 -0.000000
v 0.178347 0.710490 0.013934
v 0.178347 0.710490 -0.013934
v 0.426926 -0.825000 0.426926
v 0.441266 -0.810491 0.421559
v 0.421559 -0.810491 0.441266
v 0.115799 0.725000 0.115799
v 0.116257 0.710490 0.135963
v 0.135963 0.710490 0.116257
v -0.000000 -0.825000 0.603764
v 0.013934 -0.810491 0.610109
v -0.013934 -0.810491 0.610109
v 0.000000 0.725000 0.163764
v -0.013934 0.710490 0.178347
v 0.013934 0.710490 0.178347
v -0.426926 -0.825000 0.426926
v -0.421559 -0.810491 0.441266
v -0.441266 -0.810491 0.421559
v -0.115799 0.725000 0.115799
v -0.135963 0.710490 0.116257
v -0.116257 0.710490 0.135963
v -0.603764 -0.825000 -0.000000
v -0.610109 -0.810491 0.013934
v -0.610109 -0.810491 -0.013934
v -0.163764 0.725000 0.000000
v -0.178347 0.710490 -0.013934
v -0.178347 0.710490 0.013934
v -0.426926 -0.825000 -0.426926
v -0.441266 -0.810491 -0.421559
v -0.421559 -0.810491 -0.441266
v -0.115799 0.725000 -0.115799
v -0.116257 0.710490 -0.135963
v -0.135963 0.710490 -0.116257
vn -0.0000 -0.4007 -0.9162
vn -0.0000 0.7089 -0.7053
vn 0.6479 -0.4007 -0.6479
vn 0.4987 0.7089 -0.4987
vn 0.9162 -0.4007 -0.0000
vn 0.7053 0.7089 -0.0000
vn 0.6479 -0.4007 0.6479
vn 0.4987 0.7089 0.4987
vn -0.0000 -0.4007 0.9162
vn -0.0000 0.7089 0.7053
vn -0.6479 -0.4007 0.6479
vn -0.4987 0.7089 0.4987
vn -0.9162 -0.4007 -0.0000
vn -0.7053 0.7089 -0.0000
vn -0.6479 -0.4007 -0.6479
vn -0.4987 0.7089 -0.4987
vn 0.3030 -0.6109 -0.7315
vn 0.2338 0.7917 -0.5644
vn -0.0000 0.2731 -0.9620
vn 0.6802 0.2731 -0.6802
vn 0.7315 -0.6109 -0.3030
vn 0.5644 0.7917 -0.2338
vn 0.9620 0.2731 -0.0000
vn 0.7315 -0.6109 0.3030
vn 0.5644 0.7917 0.2338
vn 0.6802 0.2731 0.6802
vn 0.3030 -0.6109 0.7315
vn 0.2338 0.7917 0.5644
vn -0.0000 0.2731 0.9620
vn -0.3030 -0.6109 0.7315
vn -0.2338 0.7917 0.5644
vn -0.6802 0.2731 0.6802
vn -0.7315 -0.6109 0.3030
vn -0.5644 0.7917 0.2338
vn -0.9620 0.2731 -0.0000
vn -0.7315 -0.6109 -0.3030
vn -0.5644 0.7917 -0.2338
vn -0.6802 0.2731 -0.6802
vn -0.3030 -0.6109 -0.7315
vn -0.2338 0.7917 -0.5644
vn -0.0000 -1.0000 -0.0000
vn 0.3702 0.2537 -0.8937
vn -0.3702 0.2537 -0.8937
vn -0.0000 1.0000 -0.0000
vn 0.8937 0.2537 -0.3702
vn 0.8937 0.2537 0.3702
vn 0.3702 0.2537 0.8937
vn -0.3702 0.2537 0.8937
vn -0.8937 0.2537 0.3702
vn -0.8937 0.2537 -0.3702
vt 0.750000 0.483715
vt 0.744324 0.486852
vt 0.755676 0.486852
vt 0.250000 0.468352
vt 0.266638 0.483108
vt 0.233362 0.483108
vt 0.915262 0.415262
vt 0.913466 0.421493
vt 0.921493 0.413466
vt 0.404398 0.404398
vt 0.426597 0.403068
vt 0.403068 0.426597
vt 0.983715 0.250000
vt 0.986852 0.255676
vt 0.986852 0.244324
vt 0.468352 0.250000
vt 0.483108 0.233362
vt 0.483108 0.266638
vt 0.915262 0.084738
vt 0.921493 0.086534
vt 0.913466 0.078507
vt 0.404398 0.095602
vt 0.403068 0.073403
vt 0.426597 0.096932
vt 0.750000 0.016285
vt 0.755676 0.013148
vt 0.744324 0.013148
vt 0.250000 0.031648
vt 0.233362 0.016892
vt 0.266638 0.016892
vt 0.584738 0.084738
vt 0.586534 0.078507
vt 0.578507 0.086534
vt 0.095602 0.095602
vt 0.073403 0.096932
vt 0.096932 0.073403
vt 0.516285 0.250000
vt 0.513148 0.244324
vt 0.513148 0.255676
vt 0.031648 0.250000
vt 0.016892 0.266638
vt 0.016892 0.233362
vt 0.584738 0.415262
vt 0.578507 0.413466
vt 0.586534 0.421493
vt 0.095602 0.404398
vt 0.096932 0.426597
vt 0.073403 0.403068
vt 0.012790 0.995320
vt 0.000000 0.505170
vt 0.004185 0.504680
vt 0.870815 0.504680
vt 0.887790 0.995320
vt 0.862210 0.995320
vt 0.745815 0.504680
vt 0.762790 0.995320
vt 0.737210 0.995320
vt 0.620815 0.504680
vt 0.637790 0.995320
vt 0.612210 0.995320
vt 0.495815 0.504680
vt 0.512790 0.995320
vt 0.487210 0.995320
vt 0.370815 0.504680
vt 0.387790 0.995320
vt 0.362210 0.995320
vt 0.245815 0.504680
vt 0.262790 0.995320
vt 0.237210 0.995320
vt 0.120815 0.504680
vt 0.137790 0.995320
vt 0.112210 0.995320
vt 0.987210 0.995320
vt 0.879185 0.504680
vt 0.995815 0.504680
vt 0.754185 0.504680
vt 0.629185 0.504680
vt 0.504185 0.504680
vt 0.379185 0.504680
vt 0.254185 0.504680
vt 0.129185 0.504680
vt 0.000000 0.995809
s 0
g Teardrop_Body.001_MAT_Sapphire
usemtl MAT_Sapphire
f 1/1/1 2/2/1 3/3/1
f 4/4/2 5/5/2 6/6/2
f 7/7/3 8/8/3 9/9/3
f 10/10/4 11/11/4 12/12/4
f 13/13/5 14/14/5 15/15/5
f 16/16/6 17/17/6 18/18/6
f 19/19/7 20/20/7 21/21/7
f 22/22/8 23/23/8 24/24/8
f 25/25/9 26/26/9 27/27/9
f 28/28/10 29/29/10 30/30/10
f 31/31/11 32/32/11 33/33/11
f 34/34/12 35/35/12 36/36/12
f 37/37/13 38/38/13 39/39/13
f 40/40/14 41/41/14 42/42/14
f 43/43/15 44/44/15 45/45/15
f 46/46/16 47/47/16 48/48/16
f 8/8/17 1/1/17 3/3/17
f 5/5/18 10/10/18 12/12/18
f 6/49/19 3/50/19 2/51/19
f 9/52/20 12/53/20 11/54/20
f 14/14/21 7/7/21 9/9/21
f 11/11/22 16/16/22 18/18/22
f 15/55/23 18/56/23 17/57/23
f 20/20/24 13/13/24 15/15/24
f 17/17/25 22/22/25 24/24/25
f 21/58/26 24/59/26 23/60/26
f 26/26/27 19/19/27 21/21/27
f 23/23/28 28/28/28 30/30/28
f 27/61/29 30/62/29 29/63/29
f 32/32/30 25/25/30 27/27/30
f 29/29/31 34/34/31 36/36/31
f 33/64/32 36/65/32 35/66/32
f 38/38/33 31/31/33 33/33/33
f 35/35/34 40/40/34 42/42/34
f 39/67/35 42/68/35 41/69/35
f 44/44/36 37/37/36 39/39/36
f 41/41/37 46/46/37 48/48/37
f 45/70/38 48/71/38 47/72/38
f 2/2/39 43/43/39 45/45/39
f 47/47/40 4/4/40 6/6/40
f 19/19/41 31/31/41 43/43/41
f 5/73/42 8/74/42 3/75/42
f 47/72/43 2/51/43 45/70/43
f 40/40/44 28/28/44 16/16/44
f 11/54/45 14/76/45 9/52/45
f 17/57/46 20/77/46 15/55/46
f 23/60/47 26/78/47 21/58/47
f 29/63/48 32/79/48 27/61/48
f 35/66/49 38/80/49 33/64/49
f 41/69/50 44/81/50 39/67/50
f 8/8/17 7/7/17 1/1/17
f 5/5/18 4/4/18 10/10/18
f 6/49/19 5/82/19 3/50/19
f 9/52/20 8/74/20 12/53/20
f 14/14/21 13/13/21 7/7/21
f 11/11/22 10/10/22 16/16/22
f 15/55/23 14/76/23 18/56/23
f 20/20/24 19/19/24 13/13/24
f 17/17/25 16/16/25 22/22/25
f 21/58/26 20/77/26 24/59/26
f 26/26/27 25/25/27 19/19/27
f 23/23/28 22/22/28 28/28/28
f 27/61/29 26/78/29 30/62/29
f 32/32/30 31/31/30 25/25/30
f 29/29/31 28/28/31 34/34/31
f 33/64/32 32/79/32 36/65/32
f 38/38/33 37/37/33 31/31/33
f 35/35/34 34/34/34 40/40/34
f 39/67/35 38/80/35 42/68/35
f 44/44/36 43/43/36 37/37/36
f 41/41/37 40/40/37 46/46/37
f 45/70/38 44/81/38 48/71/38
f 2/2/39 1/1/39 43/43/39
f 47/47/40 46/46/40 4/4/40
f 43/43/41 1/1/41 7/7/41
f 7/7/41 13/13/41 19/19/41
f 19/19/41 25/25/41 31/31/41
f 31/31/41 37/37/41 43/43/41
f 43/43/41 7/7/41 19/19/41
f 5/73/42 12/53/42 8/74/42
f 47/72/43 6/49/43 2/51/43
f 16/16/44 10/10/44 4/4/44
f 4/4/44 46/46/44 40/40/44
f 40/40/44 34/34/44 28/28/44
f 28/28/44 22/22/44 16/16/44
f 16/16/44 4/4/44 40/40/44
f 11/54/45 18/56/45 14/76/45
f 17/57/46 24/59/46 20/77/46
f 23/60/47 30/62/47 26/78/47
f 29/63/48 36/65/48 32/79/48
f 35/66/49 42/68/49 38/80/49
f 41/69/50 48/71/50 44/81/50
g Teardrop_Crown.001_Mesh
v 0.000000 0.380000 0.000000
v 0.231552 0.567947 0.147202
v -0.088443 0.567947 0.238179
v -0.286216 0.567947 0.000000
v -0.088443 0.567947 -0.238179
v 0.231552 0.567947 -0.147202
v 0.088443 0.872053 0.238179
v -0.231552 0.872053 0.147202
v -0.231552 0.872053 -0.147202
v 0.088443 0.872053 -0.238179
v 0.286216 0.872053 0.000000
v 0.000000 1.060000 0.000000
vn 0.1849 -0.7370 0.6502
vn 0.6302 -0.7764 -0.0000
vn -0.4995 -0.7606 0.4147
vn -0.4995 -0.7606 -0.4147
vn 0.1849 -0.7370 -0.6502
vn 0.9842 -0.1769 -0.0000
vn 0.2701 -0.1571 0.9499
vn -0.7583 -0.1685 0.6297
vn -0.7583 -0.1685 -0.6297
vn 0.2701 -0.1571 -0.9499
vn 0.7583 0.1685 0.6297
vn -0.2701 0.1571 0.9499
vn -0.9842 0.1769 -0.0000
vn -0.2701 0.1571 -0.9499
vn 0.7583 0.1685 -0.6297
vn 0.4995 0.7606 0.4147
vn -0.1849 0.7370 0.6502
vn -0.6302 0.7764 -0.0000
vn -0.1849 0.7370 -0.6502
vn 0.4995 0.7606 -0.4147
vt 0.181819 0.000000
vt 0.272728 0.157461
vt 0.090910 0.157461
vt 0.363637 0.000000
vt 0.454546 0.157461
vt 0.909091 0.000000
vt 1.000000 0.157461
vt 0.818182 0.157461
vt 0.727273 0.000000
vt 0.636364 0.157461
vt 0.545455 0.000000
vt 0.363637 0.314921
vt 0.181819 0.314921
vt 0.909091 0.314921
vt 0.727273 0.314921
vt 0.545455 0.314921
vt 0.000000 0.314921
vt 0.272728 0.472382
vt 0.090910 0.472382
vt 0.818182 0.472382
vt 0.636364 0.472382
vt 0.454546 0.472382
s 0
g Teardrop_Crown.001_MAT_Sapphire
usemtl MAT_Sapphire
f 49/83/51 50/84/51 51/85/51
f 50/84/52 49/86/52 54/87/52
f 49/88/53 51/89/53 52/90/53
f 49/91/54 52/90/54 53/92/54
f 49/93/55 53/92/55 54/87/55
f 50/84/56 54/87/56 59/94/56
f 51/85/57 50/84/57 55/95/57
f 52/90/58 51/89/58 56/96/58
f 53/92/59 52/90/59 57/97/59
f 54/87/60 53/92/60 58/98/60
f 50/84/61 59/94/61 55/95/61
f 51/85/62 55/95/62 56/99/62
f 52/90/63 56/96/63 57/97/63
f 53/92/64 57/97/64 58/98/64
f 54/87/65 58/98/65 59/94/65
f 55/95/66 59/94/66 60/100/66
f 56/99/67 55/95/67 60/101/67
f 57/97/68 56/96/68 60/102/68
f 58/98/69 57/97/69 60/103/69
f 59/94/70 58/98/70 60/104/70
g Teardrop_Frame.001_Mesh
v 0.825000 0.100000 0.000000
v 0.760000 0.100000 0.065000
v 0.695000 0.100000 0.000000
v 0.760000 0.100000 -0.065000
v 0.762201 0.415714 -0.000000
v 0.702148 0.390839 0.065000
v 0.642096 0.365965 -0.000000
v 0.702148 0.390839 -0.065000
v 0.583363 0.683363 -0.000000
v 0.537401 0.637401 0.065000
v 0.491439 0.591439 -0.000000
v 0.537401 0.637401 -0.065000
v 0.315714 0.862200 -0.000000
v 0.290840 0.802148 0.065000
v 0.265965 0.742096 -0.000000
v 0.290840 0.802148 -0.065000
v 0.000000 0.925000 -0.000000
v 0.000000 0.860000 0.065000
v 0.000000 0.795000 -0.000000
v 0.000000 0.860000 -0.065000
v -0.315714 0.862200 -0.000000
v -0.290839 0.802148 0.065000
v -0.265965 0.742096 -0.000000
v -0.290839 0.802148 -0.065000
v -0.583363 0.683363 -0.000000
v -0.537401 0.637401 0.065000
v -0.491439 0.591439 -0.000000
v -0.537401 0.637401 -0.065000
v -0.762201 0.415714 -0.000000
v -0.702148 0.390839 0.065000
v -0.642096 0.365965 -0.000000
v -0.702148 0.390839 -0.065000
v -0.825000 0.100000 -0.000000
v -0.760000 0.100000 0.065000
v -0.695000 0.100000 -0.000000
v -0.760000 0.100000 -0.065000
v -0.762201 -0.215714 0.000000
v -0.702149 -0.190839 0.065000
v -0.642096 -0.165965 0.000000
v -0.702149 -0.190839 -0.065000
v -0.583363 -0.483363 0.000000
v -0.537401 -0.437401 0.065000
v -0.491439 -0.391439 0.000000
v -0.537401 -0.437401 -0.065000
v -0.315714 -0.662201 0.000000
v -0.290839 -0.602149 0.065000
v -0.265965 -0.542096 0.000000
v -0.290839 -0.602149 -0.065000
v 0.000000 -0.725000 0.000000
v 0.000000 -0.660000 0.065000
v 0.000000 -0.595000 0.000000
v 0.000000 -0.660000 -0.065000
v 0.315714 -0.662201 0.000000
v 0.290840 -0.602148 0.065000
v 0.265965 -0.542096 0.000000
v 0.290840 -0.602148 -0.065000
v 0.583363 -0.483364 0.000000
v 0.537401 -0.437402 0.065000
v 0.491439 -0.391440 0.000000
v 0.537401 -0.437402 -0.065000
v 0.762200 -0.215714 0.000000
v 0.702148 -0.190840 0.065000
v 0.642096 -0.165965 0.000000
v 0.702148 -0.190840 -0.065000
vn 0.7002 0.1393 0.7002
vn -0.7002 -0.1393 0.7002
vn -0.7002 -0.1393 -0.7002
vn 0.7002 0.1393 -0.7002
vn 0.5936 0.3966 0.7002
vn -0.5936 -0.3966 0.7002
vn -0.5936 -0.3966 -0.7002
vn 0.5936 0.3966 -0.7002
vn 0.3966 0.5936 0.7002
vn -0.3966 -0.5936 0.7002
vn -0.3966 -0.5936 -0.7002
vn 0.3966 0.5936 -0.7002
vn 0.1393 0.7002 0.7002
vn -0.1393 -0.7002 0.7002
vn -0.1393 -0.7002 -0.7002
vn 0.1393 0.7002 -0.7002
vn -0.1393 0.7002 0.7002
vn 0.1393 -0.7002 0.7002
vn 0.1393 -0.7002 -0.7002
vn -0.1393 0.7002 -0.7002
vn -0.3966 0.5936 0.7002
vn 0.3966 -0.5936 0.7002
vn 0.3966 -0.5936 -0.7002
vn -0.3966 0.5936 -0.7002
vn -0.5936 0.3966 0.7002
vn 0.5936 -0.3966 0.7002
vn 0.5936 -0.3966 -0.7002
vn -0.5936 0.3966 -0.7002
vn -0.7002 0.1393 0.7002
vn 0.7002 -0.1393 0.7002
vn 0.7002 -0.1393 -0.7002
vn -0.7002 0.1393 -0.7002
vt 0.500000 0.500000
vt 0.562500 0.750000
vt 0.500000 0.750000
vt 0.500000 1.000000
vt 0.562500 0.000000
vt 0.500000 0.250000
vt 0.500000 0.000000
vt 0.562500 0.500000
vt 0.625000 0.500000
vt 0.625000 0.750000
vt 0.562500 1.000000
vt 0.625000 0.000000
vt 0.562500 0.250000
vt 0.625000 0.250000
vt 0.687500 0.500000
vt 0.687500 1.000000
vt 0.625000 1.000000
vt 0.687500 0.000000
vt 0.750000 0.500000
vt 0.687500 0.750000
vt 0.750000 0.750000
vt 0.750000 0.250000
vt 0.687500 0.250000
vt 0.812500 0.750000
vt 0.750000 1.000000
vt 0.750000 0.000000
vt 0.812500 0.250000
vt 0.812500 0.500000
vt 0.875000 0.750000
vt 0.812500 1.000000
vt 0.812500 0.000000
vt 0.875000 0.250000
vt 0.937500 0.500000
vt 0.875000 0.500000
vt 0.937500 1.000000
vt 0.875000 1.000000
vt 0.937500 0.000000
vt 0.875000 0.000000
vt 0.937500 0.250000
vt 1.000000 0.500000
vt 0.937500 0.750000
vt 1.000000 0.750000
vt 1.000000 0.000000
vt 0.062500 0.500000
vt 0.000000 0.750000
vt 0.000000 0.500000
vt 0.062500 0.750000
vt 0.000000 1.000000
vt 0.000000 0.000000
vt 0.062500 0.250000
vt 0.000000 0.250000
vt 0.125000 0.500000
vt 0.125000 0.750000
vt 0.062500 1.000000
vt 0.125000 0.000000
vt 0.062500 0.000000
vt 0.125000 0.250000
vt 0.187500 0.500000
vt 0.187500 1.000000
vt 0.125000 1.000000
vt 0.187500 0.000000
vt 0.250000 0.500000
vt 0.187500 0.750000
vt 0.250000 0.750000
vt 0.250000 0.000000
vt 0.187500 0.250000
vt 0.312500 0.500000
vt 0.312500 0.750000
vt 0.250000 1.000000
vt 0.312500 0.250000
vt 0.250000 0.250000
vt 0.375000 0.500000
vt 0.375000 0.750000
vt 0.312500 1.000000
vt 0.375000 0.000000
vt 0.312500 0.000000
vt 0.375000 0.250000
vt 0.437500 0.500000
vt 0.437500 0.750000
vt 0.375000 1.000000
vt 0.437500 0.000000
vt 0.437500 0.250000
vt 0.437500 1.000000
vt 1.000000 1.000000
vt 1.000000 0.250000
s 0
g Teardrop_Frame.001_MAT_BrightGold
usemtl MAT_BrightGold
f 61/105/71 66/106/71 62/107/71
f 66/106/72 63/108/72 62/107/72
f 67/109/73 64/110/73 63/111/73
f 64/110/74 65/112/74 61/105/74
f 69/113/75 66/106/75 65/112/75
f 70/114/76 67/115/76 66/106/76
f 71/116/77 68/117/77 67/109/77
f 72/118/78 65/112/78 68/117/78
f 73/119/79 70/114/79 69/113/79
f 70/114/80 75/120/80 71/121/80
f 75/122/81 72/118/81 71/116/81
f 72/118/82 73/119/82 69/113/82
f 77/123/83 74/124/83 73/119/83
f 78/125/84 75/120/84 74/124/84
f 75/122/85 80/126/85 76/127/85
f 80/126/86 73/119/86 76/127/86
f 77/123/87 82/128/87 78/125/87
f 82/128/88 79/129/88 78/125/88
f 79/130/89 84/131/89 80/126/89
f 84/131/90 77/123/90 80/126/90
f 81/132/91 86/133/91 82/128/91
f 86/133/92 83/134/92 82/128/92
f 83/135/93 88/136/93 84/131/93
f 88/136/94 81/132/94 84/131/94
f 89/137/95 86/133/95 85/138/95
f 86/133/96 91/139/96 87/140/96
f 91/141/97 88/136/97 87/142/97
f 92/143/98 85/138/98 88/136/98
f 93/144/99 90/145/99 89/137/99
f 94/146/100 91/139/100 90/145/100
f 95/147/101 92/143/101 91/141/101
f 92/143/102 93/144/102 89/137/102
f 97/148/72 94/149/72 93/150/72
f 98/151/71 95/152/71 94/149/71
f 95/153/74 100/154/74 96/155/74
f 100/154/73 93/150/73 96/155/73
f 101/156/76 98/151/76 97/148/76
f 102/157/75 99/158/75 98/151/75
f 103/159/78 100/154/78 99/160/78
f 104/161/77 97/148/77 100/154/77
f 105/162/80 102/157/80 101/156/80
f 102/157/79 107/163/79 103/164/79
f 107/165/82 104/161/82 103/159/82
f 104/161/81 105/162/81 101/156/81
f 109/166/84 106/167/84 105/162/84
f 110/168/83 107/163/83 106/167/83
f 111/169/86 108/170/86 107/165/86
f 108/170/85 109/166/85 105/162/85
f 113/171/88 110/168/88 109/166/88
f 114/172/87 111/173/87 110/168/87
f 111/169/90 116/174/90 112/175/90
f 116/174/89 109/166/89 112/175/89
f 117/176/92 114/172/92 113/171/92
f 118/177/91 115/178/91 114/172/91
f 119/179/94 116/174/94 115/180/94
f 120/181/93 113/171/93 116/174/93
f 121/182/96 118/177/96 117/176/96
f 122/183/95 119/184/95 118/177/95
f 123/185/98 120/181/98 119/179/98
f 124/186/97 117/176/97 120/181/97
f 61/105/100 122/183/100 121/182/100
f 62/107/99 123/187/99 122/183/99
f 63/111/102 124/186/102 123/185/102
f 64/110/101 121/182/101 124/186/101
f 61/105/71 65/112/71 66/106/71
f 66/106/72 67/115/72 63/108/72
f 67/109/73 68/117/73 64/110/73
f 64/110/74 68/117/74 65/112/74
f 69/113/75 70/114/75 66/106/75
f 70/114/76 71/121/76 67/115/76
f 71/116/77 72/118/77 68/117/77
f 72/118/78 69/113/78 65/112/78
f 73/119/79 74/124/79 70/114/79
f 70/114/80 74/124/80 75/120/80
f 75/122/81 76/127/81 72/118/81
f 72/118/82 76/127/82 73/119/82
f 77/123/83 78/125/83 74/124/83
f 78/125/84 79/129/84 75/120/84
f 75/122/85 79/130/85 80/126/85
f 80/126/86 77/123/86 73/119/86
f 77/123/87 81/132/87 82/128/87
f 82/128/88 83/134/88 79/129/88
f 79/130/89 83/135/89 84/131/89
f 84/131/90 81/132/90 77/123/90
f 81/132/91 85/138/91 86/133/91
f 86/133/92 87/140/92 83/134/92
f 83/135/93 87/142/93 88/136/93
f 88/136/94 85/138/94 81/132/94
f 89/137/95 90/145/95 86/133/95
f 86/133/96 90/145/96 91/139/96
f 91/141/97 92/143/97 88/136/97
f 92/143/98 89/137/98 85/138/98
f 93/144/99 94/146/99 90/145/99
f 94/146/100 95/188/100 91/139/100
f 95/147/101 96/189/101 92/143/101
f 92/143/102 96/189/102 93/144/102
f 97/148/72 98/151/72 94/149/72
f 98/151/71 99/158/71 95/152/71
f 95/153/74 99/160/74 100/154/74
f 100/154/73 97/148/73 93/150/73
f 101/156/76 102/157/76 98/151/76
f 102/157/75 103/164/75 99/158/75
f 103/159/78 104/161/78 100/154/78
f 104/161/77 101/156/77 97/148/77
f 105/162/80 106/167/80 102/157/80
f 102/157/79 106/167/79 107/163/79
f 107/165/82 108/170/82 104/161/82
f 104/161/81 108/170/81 105/162/81
f 109/166/84 110/168/84 106/167/84
f 110/168/83 111/173/83 107/163/83
f 111/169/86 112/175/86 108/170/86
f 108/170/85 112/175/85 109/166/85
f 113/171/88 114/172/88 110/168/88
f 114/172/87 115/178/87 111/173/87
f 111/169/90 115/180/90 116/174/90
f 116/174/89 113/171/89 109/166/89
f 117/176/92 118/177/92 114/172/92
f 118/177/91 119/184/91 115/178/91
f 119/179/94 120/181/94 116/174/94
f 120/181/93 117/176/93 113/171/93
f 121/182/96 122/183/96 118/177/96
f 122/183/95 123/187/95 119/184/95
f 123/185/98 124/186/98 120/181/98
f 124/186/97 121/182/97 117/176/97
f 61/105/100 62/107/100 122/183/100
f 62/107/99 63/108/99 123/187/99
f 63/111/102 64/110/102 124/186/102
f 64/110/101 61/105/101 121/182/101
g Teardrop_Hook.001_Mesh
v 0.000000 1.020000 0.000000
v 0.108540 1.108445 0.063086
v -0.041458 1.108445 0.102077
v -0.134164 1.108445 0.000000
v -0.041458 1.108445 -0.102077
v 0.108540 1.108445 -0.063086
v 0.041458 1.251554 0.102077
v -0.108540 1.251554 0.063086
v -0.108540 1.251554 -0.063086
v 0.041458 1.251554 -0.102077
v 0.134164 1.251554 0.000000
v 0.000000 1.340000 0.000000
vn 0.1780 -0.7068 0.6847
vn 0.6317 -0.7752 -0.0000
vn -0.4923 -0.7468 0.4471
vn -0.4923 -0.7468 -0.4471
vn 0.1780 -0.7068 -0.6847
vn 0.9843 -0.1762 -0.0000
vn 0.2489 -0.1442 0.9577
vn -0.7305 -0.1617 0.6635
vn -0.7305 -0.1617 -0.6635
vn 0.2489 -0.1442 -0.9577
vn 0.7305 0.1617 0.6635
vn -0.2489 0.1442 0.9577
vn -0.9843 0.1762 -0.0000
vn -0.2489 0.1442 -0.9577
vn 0.7305 0.1617 -0.6635
vn 0.4923 0.7468 0.4471
vn -0.1780 0.7068 0.6847
vn -0.6317 0.7752 -0.0000
vn -0.1780 0.7068 -0.6847
vn 0.4923 0.7468 -0.4471
vt 0.181819 0.000000
vt 0.272728 0.157461
vt 0.090910 0.157461
vt 0.363637 0.000000
vt 0.454546 0.157461
vt 0.909091 0.000000
vt 1.000000 0.157461
vt 0.818182 0.157461
vt 0.727273 0.000000
vt 0.636364 0.157461
vt 0.545455 0.000000
vt 0.363637 0.314921
vt 0.181819 0.314921
vt 0.909091 0.314921
vt 0.727273 0.314921
vt 0.545455 0.314921
vt 0.000000 0.314921
vt 0.272728 0.472382
vt 0.090910 0.472382
vt 0.818182 0.472382
vt 0.636364 0.472382
vt 0.454546 0.472382
s 0
g Teardrop_Hook.001_MAT_OldGold
usemtl MAT_OldGold
f 125/190/103 126/191/103 127/192/103
f 126/191/104 125/193/104 130/194/104
f 125/195/105 127/196/105 128/197/105
f 125/198/106 128/197/106 129/199/106
f 125/200/107 129/199/107 130/194/107
f 126/191/108 130/194/108 135/201/108
f 127/192/109 126/191/109 131/202/109
f 128/197/110 127/196/110 132/203/110
f 129/199/111 128/197/111 133/204/111
f 130/194/112 129/199/112 134/205/112
f 126/191/113 135/201/113 131/202/113
f 127/192/114 131/202/114 132/206/114
f 128/197/115 132/203/115 133/204/115
f 129/199/116 133/204/116 134/205/116
f 130/194/117 134/205/117 135/201/117
f 131/202/118 135/201/118 136/207/118
f 132/206/119 131/202/119 136/208/119
f 133/204/120 132/203/120 136/209/120
f 134/205/121 133/204/121 136/210/121
f 135/201/122 134/205/122 136/211/122
