# Blender 5.0.1
# www.blender.org
mtllib greatsword.mtl
g B_Blade.001_Mesh
v -0.208000 0.240000 -0.053000
v -0.220396 0.251993 -0.053000
v -0.208390 0.252000 -0.065000
v -0.260000 1.450000 -0.053000
v -0.247904 1.447305 -0.065000
v -0.005450 1.949309 -0.053000
v 0.005450 1.949309 -0.053000
v 0.000000 1.933579 -0.065000
v 0.260000 1.450000 -0.053000
v 0.247904 1.447305 -0.065000
v 0.208000 0.240000 -0.053000
v 0.208390 0.252000 -0.065000
v 0.220396 0.251993 -0.053000
v -0.208000 0.240000 0.053000
v -0.208390 0.252000 0.065000
v -0.220396 0.251993 0.053000
v -0.247904 1.447305 0.065000
v -0.260000 1.450000 0.053000
v -0.005450 1.949309 0.053000
v -0.000000 1.933579 0.065000
v 0.005450 1.949309 0.053000
v 0.247904 1.447305 0.065000
v 0.260000 1.450000 0.053000
v 0.208000 0.240000 0.053000
v 0.220396 0.251993 0.053000
v 0.208390 0.252000 0.065000
vn -0.5707 -0.5899 -0.5713
vn -0.0000 0.6065 -0.7951
vn 0.5707 -0.5899 -0.5713
vn -0.5707 -0.5899 0.5713
vn -0.0000 0.6065 0.7951
vn 0.5707 -0.5899 0.5713
vn -0.0000 -0.7071 -0.7071
vn -0.7067 -0.0234 -0.7071
vn -0.6300 0.3212 -0.7071
vn 0.6300 0.3212 -0.7071
vn 0.7067 -0.0234 -0.7071
vn -0.0000 -0.7071 0.7071
vn -0.7067 -0.0234 0.7071
vn -0.6300 0.3212 0.7071
vn 0.6300 0.3212 0.7071
vn 0.7067 -0.0234 0.7071
vn -0.6953 -0.7187 -0.0000
vn -0.0000 1.0000 -0.0000
vn 0.6953 -0.7187 -0.0000
vn -0.0000 -1.0000 -0.0000
vn -0.0000 -0.0000 -1.0000
vn -0.9995 -0.0330 -0.0000
vn -0.8909 0.4542 -0.0000
vn 0.8909 0.4542 -0.0000
vn 0.9995 -0.0330 -0.0000
vn -0.0000 -0.0000 1.0000
vt 0.175758 0.175758
vt 0.169971 0.166667
vt 0.177415 0.175536
vt 0.826346 0.166667
vt 0.819358 0.173654
vt 0.808810 0.174841
vt 0.490909 0.490909
vt 0.489677 0.490989
vt 0.496696 0.500000
vt 0.175758 0.175758
vt 0.169971 0.166667
vt 0.826346 0.166667
vt 0.808810 0.174841
vt 0.490909 0.490909
vt 0.489677 0.490989
vt 0.499257 0.171761
vt 0.500000 0.166667
vt 0.166667 0.500000
vt 0.182980 0.489716
s 0
g B_Blade.001_wrought_iron
usemtl wrought_iron
f 1/1/1 2/2/1 3/3/1
f 6/4/2 7/5/2 8/6/2
f 11/7/3 12/8/3 13/9/3
f 14/10/4 15/3/4 16/11/4
f 19/12/5 20/13/5 21/5/5
f 24/14/6 25/9/6 26/15/6
f 12/8/7 1/1/7 3/3/7
f 2/2/8 5/16/8 3/3/8
f 4/17/9 8/6/9 5/16/9
f 9/18/10 8/6/10 7/5/10
f 13/9/11 10/19/11 9/18/11
f 24/14/12 15/3/12 14/10/12
f 17/16/13 16/11/13 15/3/13
f 20/13/14 18/17/14 17/16/14
f 20/13/15 23/18/15 21/5/15
f 22/19/16 25/9/16 23/18/16
f 14/10/17 2/2/17 1/1/17
f 19/12/18 7/5/18 6/4/18
f 25/9/19 11/7/19 13/9/19
f 11/7/20 14/10/20 1/1/20
f 5/16/21 10/19/21 12/8/21
f 2/2/22 18/17/22 4/17/22
f 4/17/23 19/12/23 6/4/23
f 7/5/24 23/18/24 9/18/24
f 9/18/25 25/9/25 13/9/25
f 26/15/26 20/13/26 17/16/26
f 12/8/7 11/7/7 1/1/7
f 2/2/8 4/17/8 5/16/8
f 4/17/9 6/4/9 8/6/9
f 9/18/10 10/19/10 8/6/10
f 13/9/11 12/8/11 10/19/11
f 24/14/12 26/15/12 15/3/12
f 17/16/13 18/17/13 16/11/13
f 20/13/14 19/12/14 18/17/14
f 20/13/15 22/19/15 23/18/15
f 22/19/16 26/15/16 25/9/16
f 14/10/17 16/11/17 2/2/17
f 19/12/18 21/5/18 7/5/18
f 25/9/19 24/14/19 11/7/19
f 11/7/20 24/14/20 14/10/20
f 12/8/21 3/3/21 5/16/21
f 5/16/21 8/6/21 10/19/21
f 2/2/22 16/11/22 18/17/22
f 4/17/23 18/17/23 19/12/23
f 7/5/24 21/5/24 23/18/24
f 9/18/25 23/18/25 25/9/25
f 17/16/26 15/3/26 26/15/26
f 26/15/26 22/19/26 20/13/26
g B_Fuller.001_Mesh
v -0.021500 0.420000 0.073500
v -0.027500 0.426000 0.073500
v -0.021500 0.426000 0.067500
v -0.027500 1.544000 0.073500
v -0.021500 1.550000 0.073500
v -0.021500 1.544000 0.067500
v 0.021500 1.550000 0.073500
v 0.027500 1.544000 0.073500
v 0.021500 1.544000 0.067500
v 0.021500 0.420000 0.073500
v 0.021500 0.426000 0.067500
v 0.027500 0.426000 0.073500
v -0.021500 0.420000 0.096500
v -0.021500 0.426000 0.102500
v -0.027500 0.426000 0.096500
v -0.027500 1.544000 0.096500
v -0.021500 1.544000 0.102500
v -0.021500 1.550000 0.096500
v 0.021500 1.550000 0.096500
v 0.021500 1.544000 0.102500
v 0.027500 1.544000 0.096500
v 0.021500 0.420000 0.096500
v 0.027500 0.426000 0.096500
v 0.021500 0.426000 0.102500
vn -0.5774 -0.5773 -0.5773
vn -0.5774 0.5773 -0.5773
vn 0.5774 0.5773 -0.5773
vn 0.5774 -0.5773 -0.5773
vn -0.5774 -0.5773 0.5773
vn -0.5774 0.5773 0.5773
vn 0.5774 0.5773 0.5773
vn 0.5774 -0.5773 0.5773
vn -0.0000 -0.7071 -0.7071
vn -0.7071 -0.0000 -0.7071
vn -0.0000 0.7071 -0.7071
vn 0.7071 -0.0000 -0.7071
vn -0.0000 -0.7071 0.7071
vn -0.7071 -0.0000 0.7071
vn -0.0000 0.7071 0.7071
vn 0.7071 -0.0000 0.7071
vn -0.7071 -0.7071 -0.0000
vn -0.7071 0.7071 -0.0000
vn 0.7071 0.7071 -0.0000
vn 0.7071 -0.7071 -0.0000
vn -0.0000 -1.0000 -0.0000
vn -0.0000 -0.0000 -1.0000
vn -1.0000 -0.0000 -0.0000
vn -0.0000 1.0000 -0.0000
vn 1.0000 -0.0000 -0.0000
vn -0.0000 -0.0000 1.0000
vt 0.304545 0.304545
vt 0.252655 0.250000
vt 0.305536 0.304545
vt 0.747345 0.250000
vt 0.695455 0.304545
vt 0.694464 0.304545
vt 0.304545 0.695455
vt 0.252655 0.750000
vt 0.305536 0.695455
vt 0.695455 0.695455
vt 0.694464 0.695455
vt 0.747345 0.750000
vt 0.252655 0.250000
vt 0.747345 0.250000
vt 0.694464 0.304545
vt 0.695455 0.304545
vt 0.305536 0.695455
vt 0.252655 0.750000
vt 0.747345 0.750000
vt 0.694464 0.695455
s 0
g B_Fuller.001_ritual_gold
usemtl ritual_gold
f 27/20/27 28/21/27 29/22/27
f 30/23/28 31/24/28 32/25/28
f 33/26/29 34/27/29 35/28/29
f 36/29/30 37/30/30 38/31/30
f 39/20/31 40/22/31 41/32/31
f 42/33/32 43/34/32 44/35/32
f 45/26/33 46/36/33 47/37/33
f 48/29/34 49/38/34 50/39/34
f 37/30/35 27/20/35 29/22/35
f 30/23/36 29/22/36 28/21/36
f 33/26/37 32/25/37 31/24/37
f 38/31/38 35/28/38 34/27/38
f 48/29/39 40/22/39 39/20/39
f 43/34/40 41/32/40 40/22/40
f 46/36/41 44/35/41 43/34/41
f 50/39/42 47/37/42 46/36/42
f 39/20/43 28/21/43 27/20/43
f 42/33/44 31/24/44 30/23/44
f 45/26/45 34/27/45 33/26/45
f 49/38/46 36/29/46 38/31/46
f 36/29/47 39/20/47 27/20/47
f 32/25/48 37/30/48 29/22/48
f 28/21/49 42/33/49 30/23/49
f 31/24/50 45/26/50 33/26/50
f 34/27/51 49/38/51 38/31/51
f 50/39/52 43/34/52 40/22/52
f 37/30/35 36/29/35 27/20/35
f 30/23/36 32/25/36 29/22/36
f 33/26/37 35/28/37 32/25/37
f 38/31/38 37/30/38 35/28/38
f 48/29/39 50/39/39 40/22/39
f 43/34/40 42/33/40 41/32/40
f 46/36/41 45/26/41 44/35/41
f 50/39/42 49/38/42 47/37/42
f 39/20/43 41/32/43 28/21/43
f 42/33/44 44/35/44 31/24/44
f 45/26/45 47/37/45 34/27/45
f 49/38/46 48/29/46 36/29/46
f 36/29/47 48/29/47 39/20/47
f 32/25/48 35/28/48 37/30/48
f 28/21/49 41/32/49 42/33/49
f 31/24/50 44/35/50 45/26/50
f 34/27/51 47/37/51 49/38/51
f 50/39/52 46/36/52 43/34/52
g B_Grip.001_Mesh
v -0.060000 -0.480000 -0.065000
v -0.075000 -0.465000 -0.065000
v -0.060000 -0.465000 -0.080000
v -0.075000 0.165000 -0.065000
v -0.060000 0.180000 -0.065000
v -0.060000 0.165000 -0.080000
v 0.060000 0.180000 -0.065000
v 0.075000 0.165000 -0.065000
v 0.060000 0.165000 -0.080000
v 0.060000 -0.480000 -0.065000
v 0.060000 -0.465000 -0.080000
v 0.075000 -0.465000 -0.065000
v -0.060000 -0.480000 0.065000
v -0.060000 -0.465000 0.080000
v -0.075000 -0.465000 0.065000
v -0.075000 0.165000 0.065000
v -0.060000 0.165000 0.080000
v -0.060000 0.180000 0.065000
v 0.060000 0.180000 0.065000
v 0.060000 0.165000 0.080000
v 0.075000 0.165000 0.065000
v 0.060000 -0.480000 0.065000
v 0.075000 -0.465000 0.065000
v 0.060000 -0.465000 0.080000
vn -0.5773 -0.5774 -0.5774
vn -0.5773 0.5774 -0.5774
vn 0.5773 0.5774 -0.5774
vn 0.5773 -0.5774 -0.5774
vn -0.5773 -0.5774 0.5774
vn -0.5773 0.5774 0.5774
vn 0.5773 0.5774 0.5774
vn 0.5773 -0.5774 0.5774
vn -0.0000 -0.7071 -0.7071
vn -0.7071 -0.0000 -0.7071
vn -0.0000 0.7071 -0.7071
vn 0.7071 -0.0000 -0.7071
vn -0.0000 -0.7071 0.7071
vn -0.7071 -0.0000 0.7071
vn -0.0000 0.7071 0.7071
vn 0.7071 -0.0000 0.7071
vn -0.7071 -0.7071 -0.0000
vn -0.7071 0.7071 -0.0000
vn 0.7071 0.7071 -0.0000
vn 0.7071 -0.7071 -0.0000
vn -0.0000 -1.0000 -0.0000
vn -0.0000 -0.0000 -1.0000
vn -1.0000 -0.0000 -0.0000
vn -0.0000 1.0000 -0.0000
vn 1.0000 -0.0000 -0.0000
vn -0.0000 -0.0000 1.0000
vt 0.300000 0.300000
vt 0.261364 0.250000
vt 0.304769 0.300000
vt 0.738636 0.250000
vt 0.700000 0.300000
vt 0.695231 0.300000
vt 0.300000 0.700000
vt 0.261364 0.750000
vt 0.304769 0.700000
vt 0.700000 0.700000
vt 0.695231 0.700000
vt 0.738636 0.750000
vt 0.300000 0.300000
vt 0.304769 0.300000
vt 0.261364 0.250000
vt 0.300000 0.700000
vt 0.304769 0.700000
vt 0.261364 0.750000
vt 0.695231 0.700000
s 0
g B_Grip.001_dark_wood
usemtl dark_wood
f 51/40/53 52/41/53 53/42/53
f 54/43/54 55/44/54 56/45/54
f 57/46/55 58/47/55 59/48/55
f 60/49/56 61/50/56 62/51/56
f 63/52/57 64/53/57 65/54/57
f 66/43/58 67/45/58 68/44/58
f 69/55/59 70/56/59 71/57/59
f 72/49/60 73/51/60 74/58/60
f 61/50/61 51/40/61 53/42/61
f 54/43/62 53/42/62 52/41/62
f 57/46/63 56/45/63 55/44/63
f 62/51/64 59/48/64 58/47/64
f 72/49/65 64/53/65 63/52/65
f 67/45/66 65/54/66 64/53/66
f 70/56/67 68/44/67 67/45/67
f 74/58/68 71/57/68 70/56/68
f 63/52/69 52/41/69 51/40/69
f 66/43/70 55/44/70 54/43/70
f 69/55/71 58/47/71 57/46/71
f 73/51/72 60/49/72 62/51/72
f 60/49/73 63/52/73 51/40/73
f 56/45/74 61/50/74 53/42/74
f 52/41/75 66/43/75 54/43/75
f 55/44/76 69/55/76 57/46/76
f 58/47/77 73/51/77 62/51/77
f 74/58/78 67/45/78 64/53/78
f 61/50/61 60/49/61 51/40/61
f 54/43/62 56/45/62 53/42/62
f 57/46/63 59/48/63 56/45/63
f 62/51/64 61/50/64 59/48/64
f 72/49/65 74/58/65 64/53/65
f 67/45/66 66/43/66 65/54/66
f 70/56/67 69/55/67 68/44/67
f 74/58/68 73/51/68 71/57/68
f 63/52/69 65/54/69 52/41/69
f 66/43/70 68/44/70 55/44/70
f 69/55/71 71/57/71 58/47/71
f 73/51/72 72/49/72 60/49/72
f 60/49/73 72/49/73 63/52/73
f 56/45/74 59/48/74 61/50/74
f 52/41/75 65/54/75 66/43/75
f 55/44/76 68/44/76 69/55/76
f 58/47/77 71/57/77 73/51/77
f 74/58/78 70/56/78 67/45/78
g B_Guard.001_Mesh
v -0.580000 0.250000 -0.075000
v -0.565000 0.265000 -0.075000
v -0.565000 0.250000 -0.090000
v 0.565000 0.265000 -0.075000
v 0.580000 0.250000 -0.075000
v 0.565000 0.250000 -0.090000
v 0.580000 0.150000 -0.075000
v 0.565000 0.135000 -0.075000
v 0.565000 0.150000 -0.090000
v -0.580000 0.150000 -0.075000
v -0.565000 0.150000 -0.090000
v -0.565000 0.135000 -0.075000
v -0.580000 0.250000 0.075000
v -0.565000 0.250000 0.090000
v -0.565000 0.265000 0.075000
v 0.565000 0.265000 0.075000
v 0.565000 0.250000 0.090000
v 0.580000 0.250000 0.075000
v 0.580000 0.150000 0.075000
v 0.565000 0.150000 0.090000
v 0.565000 0.135000 0.075000
v -0.580000 0.150000 0.075000
v -0.565000 0.135000 0.075000
v -0.565000 0.150000 0.090000
vn -0.5774 0.5773 -0.5774
vn 0.5774 0.5773 -0.5774
vn 0.5774 -0.5773 -0.5774
vn -0.5774 -0.5773 -0.5774
vn -0.5774 0.5773 0.5774
vn 0.5774 0.5773 0.5774
vn 0.5774 -0.5773 0.5774
vn -0.5774 -0.5773 0.5774
vn -0.7071 -0.0000 -0.7071
vn -0.0000 0.7071 -0.7071
vn 0.7071 -0.0000 -0.7071
vn -0.0000 -0.7071 -0.7071
vn -0.7071 -0.0000 0.7071
vn -0.0000 0.7071 0.7071
vn 0.7071 -0.0000 0.7071
vn -0.0000 -0.7071 0.7071
vn -0.7071 0.7071 -0.0000
vn 0.7071 0.7071 -0.0000
vn 0.7071 -0.7071 -0.0000
vn -0.7071 -0.7071 -0.0000
vn -1.0000 -0.0000 -0.0000
vn -0.0000 -0.0000 -1.0000
vn -0.0000 1.0000 -0.0000
vn 1.0000 -0.0000 -0.0000
vn -0.0000 -1.0000 -0.0000
vn -0.0000 -0.0000 1.0000
vt 0.307692 0.307692
vt 0.256466 0.250000
vt 0.310172 0.307692
vt 0.743535 0.250000
vt 0.692308 0.307692
vt 0.689828 0.307692
vt 0.307692 0.692308
vt 0.256466 0.750000
vt 0.310172 0.692308
vt 0.692308 0.692308
vt 0.689828 0.692308
vt 0.743535 0.750000
vt 0.307692 0.307692
vt 0.310172 0.307692
vt 0.743534 0.250000
vt 0.689828 0.307692
vt 0.307692 0.692308
vt 0.310172 0.692308
vt 0.743534 0.750000
vt 0.689828 0.692308
s 0
g B_Guard.001_oxidized_bronze
usemtl oxidized_bronze
f 75/59/79 76/60/79 77/61/79
f 78/62/80 79/63/80 80/64/80
f 81/65/81 82/66/81 83/67/81
f 84/68/82 85/69/82 86/70/82
f 87/71/83 88/72/83 89/60/83
f 90/73/84 91/74/84 92/63/84
f 93/75/85 94/76/85 95/66/85
f 96/68/86 97/77/86 98/78/86
f 85/69/87 75/59/87 77/61/87
f 78/62/88 77/61/88 76/60/88
f 81/65/89 80/64/89 79/63/89
f 86/70/90 83/67/90 82/66/90
f 96/68/91 88/72/91 87/71/91
f 91/74/92 89/60/92 88/72/92
f 94/76/93 92/63/93 91/74/93
f 98/78/94 95/66/94 94/76/94
f 87/71/95 76/60/95 75/59/95
f 90/73/96 79/63/96 78/62/96
f 93/75/97 82/66/97 81/65/97
f 97/77/98 84/68/98 86/70/98
f 84/68/99 87/71/99 75/59/99
f 80/64/100 85/69/100 77/61/100
f 76/60/101 90/73/101 78/62/101
f 79/63/102 93/75/102 81/65/102
f 82/66/103 97/77/103 86/70/103
f 98/78/104 91/74/104 88/72/104
f 85/69/87 84/68/87 75/59/87
f 78/62/88 80/64/88 77/61/88
f 81/65/89 83/67/89 80/64/89
f 86/70/90 85/69/90 83/67/90
f 96/68/91 98/78/91 88/72/91
f 91/74/92 90/73/92 89/60/92
f 94/76/93 93/75/93 92/63/93
f 98/78/94 97/77/94 95/66/94
f 87/71/95 89/60/95 76/60/95
f 90/73/96 92/63/96 79/63/96
f 93/75/97 95/66/97 82/66/97
f 97/77/98 96/68/98 84/68/98
f 84/68/99 96/68/99 87/71/99
f 80/64/100 83/67/100 85/69/100
f 76/60/101 89/60/101 90/73/101
f 79/63/102 92/63/102 93/75/102
f 82/66/103 95/66/103 97/77/103
f 98/78/104 94/76/104 91/74/104
g B_Pommel.001_Mesh
v 0.164545 -0.507000 0.078000
v 0.154153 -0.489000 0.078000
v 0.152545 -0.501928 0.090000
v 0.010392 -0.406000 0.078000
v -0.010392 -0.406000 0.078000
v 0.000000 -0.413856 0.090000
v -0.154153 -0.489000 0.078000
v -0.164545 -0.507000 0.078000
v -0.152545 -0.501928 0.090000
v -0.164545 -0.673000 0.078000
v -0.154153 -0.691000 0.078000
v -0.152545 -0.678072 0.090000
v -0.010392 -0.774000 0.078000
v 0.010392 -0.774000 0.078000
v -0.000000 -0.766144 0.090000
v 0.164545 -0.673000 0.078000
v 0.152545 -0.678072 0.090000
v 0.154153 -0.691000 0.078000
v 0.164545 -0.507000 -0.078000
v 0.152545 -0.501928 -0.090000
v 0.154153 -0.489000 -0.078000
v 0.010392 -0.406000 -0.078000
v -0.000000 -0.413856 -0.090000
v -0.010392 -0.406000 -0.078000
v -0.154153 -0.489000 -0.078000
v -0.152545 -0.501928 -0.090000
v -0.164545 -0.507000 -0.078000
v -0.164545 -0.673000 -0.078000
v -0.152545 -0.678072 -0.090000
v -0.154153 -0.691000 -0.078000
v -0.010392 -0.774000 -0.078000
v 0.000000 -0.766144 -0.090000
v 0.010392 -0.774000 -0.078000
v 0.164545 -0.673000 -0.078000
v 0.154153 -0.691000 -0.078000
v 0.152545 -0.678072 -0.090000
vn 0.7246 0.4183 0.5478
vn -0.0000 0.8366 0.5478
vn -0.7246 0.4183 0.5477
vn -0.7246 -0.4183 0.5478
vn -0.0000 -0.8366 0.5478
vn 0.7246 -0.4183 0.5477
vn 0.7246 0.4183 -0.5477
vn -0.0000 0.8366 -0.5478
vn -0.7246 0.4183 -0.5478
vn -0.7246 -0.4183 -0.5477
vn -0.0000 -0.8366 -0.5478
vn 0.7246 -0.4183 -0.5478
vn 0.7071 -0.0000 0.7071
vn 0.3536 0.6124 0.7071
vn -0.3536 0.6124 0.7071
vn -0.7071 -0.0000 0.7071
vn -0.3536 -0.6124 0.7071
vn 0.3536 -0.6124 0.7071
vn 0.7071 -0.0000 -0.7071
vn 0.3536 0.6124 -0.7071
vn -0.3536 0.6124 -0.7071
vn -0.7071 -0.0000 -0.7071
vn -0.3536 -0.6124 -0.7071
vn 0.3536 -0.6124 -0.7071
vn 0.8660 0.5000 -0.0000
vn -0.0000 1.0000 -0.0000
vn -0.8660 0.5000 -0.0000
vn -0.8660 -0.5000 -0.0000
vn -0.0000 -1.0000 -0.0000
vn 0.8660 -0.5000 -0.0000
vn 1.0000 -0.0000 -0.0000
vn -0.0000 -0.0000 1.0000
vn 0.5000 0.8660 -0.0000
vn -0.5000 0.8660 -0.0000
vn -1.0000 -0.0000 -0.0000
vn -0.5000 -0.8660 -0.0000
vn 0.5000 -0.8660 -0.0000
vn -0.0000 -0.0000 -1.0000
vt 0.208772 0.187719
vt 0.187719 0.166667
vt 0.213787 0.184348
vt 0.478947 0.166667
vt 0.521053 0.166667
vt 0.500000 0.173295
vt 0.812281 0.166667
vt 0.791228 0.187719
vt 0.786213 0.184348
vt 0.208772 0.478947
vt 0.187719 0.500000
vt 0.213787 0.482319
vt 0.478947 0.500000
vt 0.521053 0.500000
vt 0.500000 0.493372
vt 0.791228 0.478947
vt 0.786213 0.482319
vt 0.812281 0.500000
vt 0.208772 0.187719
vt 0.187719 0.166667
vt 0.478947 0.166667
vt 0.500000 0.173295
vt 0.521053 0.166667
vt 0.786213 0.184348
vt 0.791228 0.187719
vt 0.208772 0.478947
vt 0.187719 0.500000
vt 0.478947 0.500000
vt 0.500000 0.493372
vt 0.791228 0.478947
s 0
g B_Pommel.001_ritual_gold
usemtl ritual_gold
f 99/79/105 100/80/105 101/81/105
f 102/82/106 103/83/106 104/84/106
f 105/85/107 106/86/107 107/87/107
f 108/88/108 109/89/108 110/90/108
f 111/91/109 112/92/109 113/93/109
f 114/94/110 115/95/110 116/96/110
f 117/97/111 118/81/111 119/98/111
f 120/99/112 121/100/112 122/101/112
f 123/85/113 124/102/113 125/103/113
f 126/104/114 127/90/114 128/105/114
f 129/106/115 130/107/115 131/92/115
f 132/108/116 133/96/116 134/95/116
f 115/95/117 99/79/117 101/81/117
f 102/82/118 101/81/118 100/80/118
f 105/85/119 104/84/119 103/83/119
f 108/88/120 107/87/120 106/86/120
f 111/91/121 110/90/121 109/89/121
f 116/96/122 113/93/122 112/92/122
f 132/108/123 118/81/123 117/97/123
f 121/100/124 119/98/124 118/81/124
f 124/102/125 122/101/125 121/100/125
f 127/90/126 125/103/126 124/102/126
f 130/107/127 128/105/127 127/90/127
f 134/95/128 131/92/128 130/107/128
f 117/97/129 100/80/129 99/79/129
f 120/99/130 103/83/130 102/82/130
f 123/85/131 106/86/131 105/85/131
f 126/104/132 109/89/132 108/88/132
f 129/106/133 112/92/133 111/91/133
f 133/96/134 114/94/134 116/96/134
f 114/94/135 117/97/135 99/79/135
f 104/84/136 110/90/136 115/95/136
f 100/80/137 120/99/137 102/82/137
f 103/83/138 123/85/138 105/85/138
f 106/86/139 126/104/139 108/88/139
f 109/89/140 129/106/140 111/91/140
f 112/92/141 133/96/141 116/96/141
f 134/95/142 127/90/142 121/100/142
f 115/95/117 114/94/117 99/79/117
f 102/82/118 104/84/118 101/81/118
f 105/85/119 107/87/119 104/84/119
f 108/88/120 110/90/120 107/87/120
f 111/91/121 113/93/121 110/90/121
f 116/96/122 115/95/122 113/93/122
f 132/108/123 134/95/123 118/81/123
f 121/100/124 120/99/124 119/98/124
f 124/102/125 123/85/125 122/101/125
f 127/90/126 126/104/126 125/103/126
f 130/107/127 129/106/127 128/105/127
f 134/95/128 133/96/128 131/92/128
f 117/97/129 119/98/129 100/80/129
f 120/99/130 122/101/130 103/83/130
f 123/85/131 125/103/131 106/86/131
f 126/104/132 128/105/132 109/89/132
f 129/106/133 131/92/133 112/92/133
f 133/96/134 132/108/134 114/94/134
f 114/94/135 132/108/135 117/97/135
f 115/95/136 101/81/136 104/84/136
f 104/84/136 107/87/136 110/90/136
f 110/90/136 113/93/136 115/95/136
f 100/80/137 119/98/137 120/99/137
f 103/83/138 122/101/138 123/85/138
f 106/86/139 125/103/139 126/104/139
f 109/89/140 128/105/140 129/106/140
f 112/92/141 131/92/141 133/96/141
f 121/100/142 118/81/142 134/95/142
f 134/95/142 130/107/142 127/90/142
f 127/90/142 124/102/142 121/100/142
