# Second Rite deterministic item batch 53-62
# Hazel Wand
mtllib item_batch_53_62.mtl
o hazel_wand
s off
v 0.082937 -1.431180 0.000000
v 0.031082 -1.421917 -0.090831
v -0.073445 -1.411961 -0.090831
v -0.126117 -1.411270 -0.000000
v -0.074262 -1.420535 0.090831
v 0.030265 -1.430489 0.090831
v 0.132982 -0.800232 0.030000
v 0.086065 -0.791850 -0.052180
v -0.008507 -0.782843 -0.052180
v -0.056162 -0.782218 0.030000
v -0.009245 -0.790600 0.112180
v 0.085327 -0.799607 0.112180
v -0.021590 -1.421226 0.000000
v 0.038410 -0.791225 0.030000
v 0.130416 -0.776882 0.011182
v 0.069353 -0.792923 -0.059803
v -0.022653 -0.807266 -0.040986
v -0.053596 -0.805568 0.048818
v 0.007467 -0.789527 0.119803
v 0.099473 -0.775184 0.100986
v 0.010731 -0.138391 -0.036837
v -0.043904 -0.152744 -0.100350
v -0.126226 -0.165577 -0.083513
v -0.153911 -0.164059 -0.003163
v -0.099276 -0.149706 0.060350
v -0.016954 -0.136873 0.043513
v 0.038410 -0.791225 0.030000
v -0.071590 -0.151225 -0.020000
v 0.005706 -0.164036 -0.052958
v -0.059744 -0.145671 -0.103987
v -0.137040 -0.132859 -0.071030
v -0.148886 -0.138414 0.012958
v -0.083436 -0.156779 0.063987
v -0.006140 -0.169591 0.031030
v 0.123884 0.467923 0.012083
v 0.068444 0.483480 -0.031142
v 0.002970 0.494332 -0.003225
v -0.007064 0.489627 0.067917
v 0.048376 0.474070 0.111142
v 0.113850 0.463218 0.083225
v -0.071590 -0.151225 -0.020000
v 0.058410 0.478775 0.040000
v 0.117804 0.482181 -0.000556
v 0.053468 0.473229 -0.031616
v -0.005926 0.469823 0.008940
v -0.000984 0.475369 0.080556
v 0.063352 0.484321 0.111616
v 0.122746 0.487727 0.071060
v 0.047905 1.051613 -0.033796
v -0.005708 1.044153 -0.059680
v -0.055203 1.041315 -0.025883
v -0.051085 1.045937 0.033796
v 0.002528 1.053397 0.059680
v 0.052023 1.056234 0.025883
v 0.058410 0.478775 0.040000
v -0.001590 1.048775 0.000000
v 0.044503 1.087186 0.000000
v 0.011096 1.062514 -0.057011
v -0.039843 1.018854 -0.035235
v -0.037918 1.016544 0.035235
v 0.014211 1.058774 0.057011
v -0.274702 1.431180 0.020000
v -0.294190 1.416789 -0.013257
v -0.323904 1.391322 -0.000554
v -0.322781 1.389973 0.040554
v -0.292373 1.414609 0.053257
v -0.001590 1.048775 0.000000
v -0.301590 1.408775 0.020000
v 0.043400 1.009078 0.000000
v 0.009820 1.033683 -0.056939
v -0.039528 1.079144 -0.035190
v -0.036447 1.082637 0.035190
v 0.014805 1.039332 0.056939
v 0.323904 1.366280 -0.030000
v 0.304876 1.380223 -0.062265
v 0.276912 1.405984 -0.049941
v 0.278657 1.407963 -0.010059
v 0.307701 1.383424 0.002265
v -0.001590 1.048775 0.000000
v 0.298410 1.388775 -0.030000
v 0.178410 1.298775 0.000000
v 0.093410 1.298775 0.147224
v -0.076590 1.298775 0.147224
v -0.161590 1.298775 0.000000
v -0.076590 1.298775 -0.147224
v 0.093410 1.298775 -0.147224
v 0.008410 1.423775 0.000000
v 0.008410 1.173775 0.000000
v -0.132589 1.183795 0.050000
v -0.131899 1.201056 0.026224
v -0.130782 1.228984 0.035305
v -0.130782 1.228984 0.064695
v -0.131899 1.201056 0.073776
v 0.117411 1.173795 0.050000
v 0.118101 1.191056 0.026224
v 0.119218 1.218983 0.035305
v 0.119218 1.218983 0.064695
v 0.118101 1.191056 0.073776
v -0.131590 1.208775 0.050000
v 0.118410 1.198775 0.050000
usemtl dark_wood
f 13 2 1
f 14 7 8
f 1 2 8
f 1 8 7
f 13 3 2
f 14 8 9
f 2 3 9
f 2 9 8
f 13 4 3
f 14 9 10
f 3 4 10
f 3 10 9
f 13 5 4
f 14 10 11
f 4 5 11
f 4 11 10
f 13 6 5
f 14 11 12
f 5 6 12
f 5 12 11
f 13 1 6
f 14 12 7
f 6 1 7
f 6 7 12
f 27 16 15
f 28 21 22
f 15 16 22
f 15 22 21
f 27 17 16
f 28 22 23
f 16 17 23
f 16 23 22
f 27 18 17
f 28 23 24
f 17 18 24
f 17 24 23
f 27 19 18
f 28 24 25
f 18 19 25
f 18 25 24
f 27 20 19
f 28 25 26
f 19 20 26
f 19 26 25
f 27 15 20
f 28 26 21
f 20 15 21
f 20 21 26
f 41 30 29
f 42 35 36
f 29 30 36
f 29 36 35
f 41 31 30
f 42 36 37
f 30 31 37
f 30 37 36
f 41 32 31
f 42 37 38
f 31 32 38
f 31 38 37
f 41 33 32
f 42 38 39
f 32 33 39
f 32 39 38
f 41 34 33
f 42 39 40
f 33 34 40
f 33 40 39
f 41 29 34
f 42 40 35
f 34 29 35
f 34 35 40
f 55 44 43
f 56 49 50
f 43 44 50
f 43 50 49
f 55 45 44
f 56 50 51
f 44 45 51
f 44 51 50
f 55 46 45
f 56 51 52
f 45 46 52
f 45 52 51
f 55 47 46
f 56 52 53
f 46 47 53
f 46 53 52
f 55 48 47
f 56 53 54
f 47 48 54
f 47 54 53
f 55 43 48
f 56 54 49
f 48 43 49
f 48 49 54
f 67 58 57
f 68 62 63
f 57 58 63
f 57 63 62
f 67 59 58
f 68 63 64
f 58 59 64
f 58 64 63
f 67 60 59
f 68 64 65
f 59 60 65
f 59 65 64
f 67 61 60
f 68 65 66
f 60 61 66
f 60 66 65
f 67 57 61
f 68 66 62
f 61 57 62
f 61 62 66
f 79 70 69
f 80 74 75
f 69 70 75
f 69 75 74
f 79 71 70
f 80 75 76
f 70 71 76
f 70 76 75
f 79 72 71
f 80 76 77
f 71 72 77
f 71 77 76
f 79 73 72
f 80 77 78
f 72 73 78
f 72 78 77
f 79 69 73
f 80 78 74
f 73 69 74
f 73 74 78
usemtl crystal
f 87 81 82
f 88 82 81
f 87 82 83
f 88 83 82
f 87 83 84
f 88 84 83
f 87 84 85
f 88 85 84
f 87 85 86
f 88 86 85
f 87 86 81
f 88 81 86
usemtl aged_cloth
f 99 90 89
f 100 94 95
f 89 90 95
f 89 95 94
f 99 91 90
f 100 95 96
f 90 91 96
f 90 96 95
f 99 92 91
f 100 96 97
f 91 92 97
f 91 97 96
f 99 93 92
f 100 97 98
f 92 93 98
f 92 98 97
f 99 89 93
f 100 98 94
f 93 89 94
f 93 94 98
