# Blender 5.2.2 LTS
# www.blender.org
mtllib hi_potion.mtl
g Body_Profile.001_Body_Profile_profile_mesh.001
v 0.000000 -0.920000 0.000000
v 0.250000 -0.920000 0.000000
v 0.350000 -0.790000 0.000000
v 0.410000 -0.550000 0.000000
v 0.390000 0.300000 0.000000
v 0.290000 0.540000 0.000000
v 0.170000 0.670000 0.000000
v 0.145000 0.780000 0.000000
v 0.000000 0.780000 0.000000
v -0.000000 -0.920000 -0.250000
v -0.000000 -0.790000 -0.350000
v -0.000000 -0.550000 -0.410000
v -0.000000 0.300000 -0.390000
v -0.000000 0.540000 -0.290000
v -0.000000 0.670000 -0.170000
v -0.000000 0.780000 -0.145000
v -0.250000 -0.920000 0.000000
v -0.350000 -0.790000 0.000000
v -0.410000 -0.550000 0.000000
v -0.390000 0.300000 0.000000
v -0.290000 0.540000 0.000000
v -0.170000 0.670000 0.000000
v -0.145000 0.780000 0.000000
v 0.000000 -0.920000 0.250000
v 0.000000 -0.790000 0.350000
v 0.000000 -0.550000 0.410000
v 0.000000 0.300000 0.390000
v 0.000000 0.540000 0.290000
v 0.000000 0.670000 0.170000
v 0.000000 0.780000 0.145000
vn -0.0000 1.0000 -0.0000
vn -0.5823 0.8130 -0.0000
vn -0.9154 0.4025 -0.0000
vn -0.9945 0.1044 -0.0000
vn -0.9813 -0.1925 -0.0000
vn -0.8625 -0.5061 -0.0000
vn -0.8526 -0.5225 -0.0000
vn -0.7513 -0.6599 -0.0000
vn -0.0000 -1.0000 -0.0000
vn -0.0000 0.8130 0.5823
vn -0.0000 0.4025 0.9154
vn -0.0000 0.1044 0.9945
vn -0.0000 -0.1925 0.9813
vn -0.0000 -0.5061 0.8625
vn -0.0000 -0.5225 0.8526
vn -0.0000 -0.6599 0.7513
vn 0.5823 0.8130 -0.0000
vn 0.9154 0.4025 -0.0000
vn 0.9945 0.1044 -0.0000
vn 0.9813 -0.1925 -0.0000
vn 0.8625 -0.5061 -0.0000
vn 0.8526 -0.5225 -0.0000
vn 0.7513 -0.6599 -0.0000
vn -0.0000 0.8130 -0.5823
vn -0.0000 0.4025 -0.9154
vn -0.0000 0.1044 -0.9945
vn -0.0000 -0.1925 -0.9813
vn -0.0000 -0.5061 -0.8625
vn -0.0000 -0.5225 -0.8526
vn -0.0000 -0.6599 -0.7513
vt 0.125000 0.000000
vt 0.000000 0.000000
vt 0.250000 0.000000
vt 0.375000 0.000000
vt 0.500000 0.000000
vt 0.625000 0.000000
vt 0.750000 0.000000
vt 0.875000 0.000000
vt 1.000000 0.000000
vt 0.000000 0.076471
vt 0.500000 0.076471
vt 0.750000 0.076471
vt 0.000000 0.217647
vt 0.250000 0.076471
vt 0.500000 0.217647
vt 0.750000 0.217647
vt 1.000000 0.076471
vt 0.000000 0.717647
vt 0.250000 0.217647
vt 0.250000 0.717647
vt 0.500000 0.717647
vt 0.750000 0.717647
vt 1.000000 0.217647
vt 0.000000 0.858823
vt 0.250000 0.858823
vt 0.750000 0.858823
vt 1.000000 0.717647
vt 0.000000 0.935294
vt 0.250000 0.935294
vt 0.500000 0.858823
vt 0.500000 0.935294
vt 0.750000 0.935294
vt 1.000000 0.858823
vt 0.000000 1.000000
vt 0.250000 1.000000
vt 0.500000 1.000000
vt 0.750000 1.000000
vt 1.000000 0.935294
vt 0.125000 1.000000
vt 0.375000 1.000000
vt 0.625000 1.000000
vt 0.875000 1.000000
vt 1.000000 1.000000
s 1
g Body_Profile.001_sr_smoked_glass
usemtl sr_smoked_glass
f 1/1/1 2/2/2 10/3/10
f 1/4/1 10/3/10 17/5/17
f 1/6/1 17/5/17 24/7/24
f 1/8/1 24/7/24 2/9/2
f 3/10/3 10/3/10 2/2/2
f 10/3/10 18/11/18 17/5/17
f 17/5/17 25/12/25 24/7/24
f 25/12/25 2/9/2 24/7/24
f 4/13/4 11/14/11 3/10/3
f 11/14/11 19/15/19 18/11/18
f 19/15/19 25/12/25 18/11/18
f 26/16/26 3/17/3 25/12/25
f 5/18/5 12/19/12 4/13/4
f 13/20/13 19/15/19 12/19/12
f 20/21/20 26/16/26 19/15/19
f 27/22/27 4/23/4 26/16/26
f 6/24/6 13/20/13 5/18/5
f 14/25/14 20/21/20 13/20/13
f 20/21/20 28/26/28 27/22/27
f 28/26/28 5/27/5 27/22/27
f 7/28/7 14/25/14 6/24/6
f 15/29/15 21/30/21 14/25/14
f 22/31/22 28/26/28 21/30/21
f 29/32/29 6/33/6 28/26/28
f 8/34/8 15/29/15 7/28/7
f 16/35/16 22/31/22 15/29/15
f 23/36/23 29/32/29 22/31/22
f 30/37/30 7/38/7 29/32/29
f 8/34/8 9/39/9 16/35/16
f 16/35/16 9/40/9 23/36/23
f 23/36/23 9/41/9 30/37/30
f 30/37/30 9/42/9 8/43/8
f 3/10/3 11/14/11 10/3/10
f 10/3/10 11/14/11 18/11/18
f 17/5/17 18/11/18 25/12/25
f 25/12/25 3/17/3 2/9/2
f 4/13/4 12/19/12 11/14/11
f 11/14/11 12/19/12 19/15/19
f 19/15/19 26/16/26 25/12/25
f 26/16/26 4/23/4 3/17/3
f 5/18/5 13/20/13 12/19/12
f 13/20/13 20/21/20 19/15/19
f 20/21/20 27/22/27 26/16/26
f 27/22/27 5/27/5 4/23/4
f 6/24/6 14/25/14 13/20/13
f 14/25/14 21/30/21 20/21/20
f 20/21/20 21/30/21 28/26/28
f 28/26/28 6/33/6 5/27/5
f 7/28/7 15/29/15 14/25/14
f 15/29/15 22/31/22 21/30/21
f 22/31/22 29/32/29 28/26/28
f 29/32/29 7/38/7 6/33/6
f 8/34/8 16/35/16 15/29/15
f 16/35/16 23/36/23 22/31/22
f 23/36/23 30/37/30 29/32/29
f 30/37/30 8/43/8 7/38/7
g Gold_Rib_1.001_Gold_Rib_1_curve.001
v 0.313241 -0.539390 -0.313241
v 0.287792 -0.540000 -0.313248
v 0.287800 -0.540610 -0.287800
v 0.313248 -0.540000 -0.287792
v 0.298987 0.052453 -0.298987
v 0.273650 0.050000 -0.299106
v 0.273769 0.047547 -0.273769
v 0.299106 0.050000 -0.273650
v 0.223885 0.486910 -0.223885
v 0.199404 0.480000 -0.224860
v 0.200379 0.473090 -0.200379
v 0.224860 0.480000 -0.199404
v 0.145211 0.669386 -0.145211
v 0.121622 0.660000 -0.147078
v 0.123490 0.650614 -0.123490
v 0.147078 0.660000 -0.121622
vn 0.7067 0.0340 -0.7067
vn -0.7071 0.0001 -0.7071
vn -0.7067 -0.0338 0.7067
vn 0.7071 0.0001 0.7071
vn 0.7005 0.1365 -0.7005
vn -0.6740 0.0064 -0.7387
vn -0.7005 -0.1363 0.7005
vn 0.7387 0.0064 0.6740
vn 0.6530 0.3837 -0.6530
vn -0.6604 0.0263 -0.7505
vn -0.6529 -0.3840 0.6529
vn 0.7505 0.0263 0.6604
vn 0.6035 0.5210 -0.6035
vn -0.7069 -0.0004 -0.7073
vn -0.6032 -0.5219 0.6032
vn 0.7073 -0.0004 0.7069
vt 0.000000 1.000000
vt 0.333333 1.000000
vt 0.333333 0.750000
vt 0.000000 0.750000
vt 0.000000 0.250000
vt 0.333333 0.250000
vt 0.333333 0.000000
vt 0.000000 0.000000
vt 0.000000 0.500000
vt 0.333333 0.500000
vt 0.666667 1.000000
vt 0.666667 0.750000
vt 0.666667 0.250000
vt 0.666667 0.000000
vt 0.666667 0.500000
vt 1.000000 1.000000
vt 1.000000 0.750000
vt 1.000000 0.250000
vt 1.000000 0.000000
vt 1.000000 0.500000
s 1
g Gold_Rib_1.001_sr_ritual_gold
usemtl sr_ritual_gold
f 31/44/31 35/45/35 38/46/38 34/47/34
f 32/48/32 36/49/36 35/50/35 31/51/31
f 33/52/33 37/53/37 36/49/36 32/48/32
f 34/47/34 38/46/38 37/53/37 33/52/33
f 35/45/35 39/54/39 42/55/42 38/46/38
f 36/49/36 40/56/40 39/57/39 35/50/35
f 37/53/37 41/58/41 40/56/40 36/49/36
f 38/46/38 42/55/42 41/58/41 37/53/37
f 39/54/39 43/59/43 46/60/46 42/55/42
f 40/56/40 44/61/44 43/62/43 39/57/39
f 41/58/41 45/63/45 44/61/44 40/56/40
f 42/55/42 46/60/46 45/63/45 41/58/41
g Gold_Rib_1.001_Gold_Rib_1_curve.001
v 0.313241 -0.539390 -0.313241
v 0.287792 -0.540000 -0.313248
v 0.287800 -0.540610 -0.287800
v 0.313248 -0.540000 -0.287792
v 0.298987 0.052453 -0.298987
v 0.273650 0.050000 -0.299106
v 0.273769 0.047547 -0.273769
v 0.299106 0.050000 -0.273650
v 0.223885 0.486910 -0.223885
v 0.199404 0.480000 -0.224860
v 0.200379 0.473090 -0.200379
v 0.224860 0.480000 -0.199404
v 0.145211 0.669386 -0.145211
v 0.121622 0.660000 -0.147078
v 0.123490 0.650614 -0.123490
v 0.147078 0.660000 -0.121622
vn 0.7067 0.0339 -0.7067
vn -0.7071 0.0001 -0.7071
vn -0.7067 -0.0337 0.7067
vn 0.7071 0.0001 0.7071
vn 0.7005 0.1363 -0.7005
vn -0.6741 0.0064 -0.7386
vn -0.7005 -0.1361 0.7005
vn 0.7386 0.0064 0.6741
vn 0.6530 0.3836 -0.6530
vn -0.6602 0.0263 -0.7506
vn -0.6529 -0.3839 0.6529
vn 0.7506 0.0263 0.6602
vn 0.6034 0.5214 -0.6034
vn -0.7071 -0.0005 -0.7071
vn -0.6030 -0.5223 0.6030
vn 0.7071 -0.0005 0.7071
vt 0.000000 1.000000
vt 0.333333 0.750000
vt 0.000000 0.750000
vt 0.333333 0.250000
vt 0.000000 0.000000
vt 0.000000 0.250000
vt 0.333333 0.500000
vt 0.000000 0.500000
vt 0.333333 1.000000
vt 0.666667 0.750000
vt 0.666667 0.250000
vt 0.333333 0.000000
vt 0.666667 0.500000
vt 1.000000 1.000000
vt 0.666667 1.000000
vt 1.000000 0.000000
vt 0.666667 0.000000
vt 1.000000 0.250000
vt 1.000000 0.750000
vt 1.000000 0.500000
s 1
g Gold_Rib_1.001_sr_ritual_gold
usemtl sr_ritual_gold
f 47/64/47 54/65/54 50/66/50
f 52/67/52 47/68/47 48/69/48
f 53/70/53 48/69/48 49/71/49
f 50/66/50 53/70/53 49/71/49
f 51/72/51 58/73/58 54/65/54
f 56/74/56 51/75/51 52/67/52
f 57/76/57 52/67/52 53/70/53
f 54/65/54 57/76/57 53/70/53
f 59/77/59 58/73/58 55/78/55
f 56/74/56 59/79/59 55/80/55
f 57/76/57 60/81/60 56/74/56
f 62/82/62 57/76/57 58/73/58
f 47/64/47 51/72/51 54/65/54
f 52/67/52 51/75/51 47/68/47
f 53/70/53 52/67/52 48/69/48
f 50/66/50 54/65/54 53/70/53
f 51/72/51 55/78/55 58/73/58
f 56/74/56 55/80/55 51/75/51
f 57/76/57 56/74/56 52/67/52
f 54/65/54 58/73/58 57/76/57
f 59/77/59 62/82/62 58/73/58
f 56/74/56 60/81/60 59/79/59
f 57/76/57 61/83/61 60/81/60
f 62/82/62 61/83/61 57/76/57
g Gold_Rib_2.001_Gold_Rib_2_curve.001
v -0.313241 -0.539390 -0.313241
v -0.313248 -0.540000 -0.287792
v -0.287800 -0.540610 -0.287800
v -0.287792 -0.540000 -0.313248
v -0.298987 0.052453 -0.298987
v -0.299106 0.050000 -0.273650
v -0.273769 0.047547 -0.273769
v -0.273650 0.050000 -0.299106
v -0.223885 0.486910 -0.223885
v -0.224860 0.480000 -0.199404
v -0.200379 0.473090 -0.200379
v -0.199404 0.480000 -0.224860
v -0.145211 0.669386 -0.145211
v -0.147078 0.660000 -0.121622
v -0.123490 0.650614 -0.123490
v -0.121622 0.660000 -0.147078
vn -0.7067 0.0340 -0.7067
vn -0.7071 0.0001 0.7071
vn 0.7067 -0.0338 0.7067
vn 0.7071 0.0001 -0.7071
vn -0.7005 0.1365 -0.7005
vn -0.7387 0.0064 0.6740
vn 0.7005 -0.1363 0.7005
vn 0.6740 0.0064 -0.7387
vn -0.6530 0.3837 -0.6530
vn -0.7505 0.0263 0.6604
vn 0.6529 -0.3840 0.6529
vn 0.6604 0.0263 -0.7505
vn -0.6035 0.5210 -0.6035
vn -0.7073 -0.0004 0.7069
vn 0.6032 -0.5219 0.6032
vn 0.7069 -0.0004 -0.7073
vt 0.000000 1.000000
vt 0.333333 1.000000
vt 0.333333 0.750000
vt 0.000000 0.750000
vt 0.000000 0.250000
vt 0.333333 0.250000
vt 0.333333 0.000000
vt 0.000000 0.000000
vt 0.000000 0.500000
vt 0.333333 0.500000
vt 0.666667 1.000000
vt 0.666667 0.750000
vt 0.666667 0.250000
vt 0.666667 0.000000
vt 0.666667 0.500000
vt 1.000000 1.000000
vt 1.000000 0.750000
vt 1.000000 0.250000
vt 1.000000 0.000000
vt 1.000000 0.500000
s 1
g Gold_Rib_2.001_sr_ritual_gold
usemtl sr_ritual_gold
f 63/84/63 67/85/67 70/86/70 66/87/66
f 64/88/64 68/89/68 67/90/67 63/91/63
f 65/92/65 69/93/69 68/89/68 64/88/64
f 66/87/66 70/86/70 69/93/69 65/92/65
f 67/85/67 71/94/71 74/95/74 70/86/70
f 68/89/68 72/96/72 71/97/71 67/90/67
f 69/93/69 73/98/73 72/96/72 68/89/68
f 70/86/70 74/95/74 73/98/73 69/93/69
f 71/94/71 75/99/75 78/100/78 74/95/74
f 72/96/72 76/101/76 75/102/75 71/97/71
f 73/98/73 77/103/77 76/101/76 72/96/72
f 74/95/74 78/100/78 77/103/77 73/98/73
g Gold_Rib_2.001_Gold_Rib_2_curve.001
v -0.313241 -0.539390 -0.313241
v -0.313248 -0.540000 -0.287792
v -0.287800 -0.540610 -0.287800
v -0.287792 -0.540000 -0.313248
v -0.298987 0.052453 -0.298987
v -0.299106 0.050000 -0.273650
v -0.273769 0.047547 -0.273769
v -0.273650 0.050000 -0.299106
v -0.223885 0.486910 -0.223885
v -0.224860 0.480000 -0.199404
v -0.200379 0.473090 -0.200379
v -0.199404 0.480000 -0.224860
v -0.145211 0.669386 -0.145211
v -0.147078 0.660000 -0.121622
v -0.123490 0.650614 -0.123490
v -0.121622 0.660000 -0.147078
vn -0.7067 0.0339 -0.7067
vn -0.7071 0.0001 0.7071
vn 0.7067 -0.0337 0.7067
vn 0.7071 0.0001 -0.7071
vn -0.7005 0.1363 -0.7005
vn -0.7386 0.0064 0.6741
vn 0.7005 -0.1361 0.7005
vn 0.6741 0.0064 -0.7387
vn -0.6530 0.3836 -0.6530
vn -0.7506 0.0263 0.6602
vn 0.6529 -0.3839 0.6529
vn 0.6602 0.0263 -0.7506
vn -0.6034 0.5214 -0.6034
vn -0.7071 -0.0005 0.7071
vn 0.6030 -0.5223 0.6030
vn 0.7071 -0.0005 -0.7071
vt 0.000000 1.000000
vt 0.333333 0.750000
vt 0.000000 0.750000
vt 0.333333 0.250000
vt 0.000000 0.000000
vt 0.000000 0.250000
vt 0.333333 0.500000
vt 0.000000 0.500000
vt 0.333333 1.000000
vt 0.666667 0.750000
vt 0.666667 0.250000
vt 0.333333 0.000000
vt 0.666667 0.500000
vt 1.000000 1.000000
vt 0.666667 1.000000
vt 1.000000 0.000000
vt 0.666667 0.000000
vt 1.000000 0.250000
vt 1.000000 0.750000
vt 1.000000 0.500000
s 1
g Gold_Rib_2.001_sr_ritual_gold
usemtl sr_ritual_gold
f 79/104/79 86/105/86 82/106/82
f 84/107/84 79/108/79 80/109/80
f 85/110/85 80/109/80 81/111/81
f 82/106/82 85/110/85 81/111/81
f 83/112/83 90/113/90 86/105/86
f 88/114/88 83/115/83 84/107/84
f 89/116/89 84/107/84 85/110/85
f 86/105/86 89/116/89 85/110/85
f 91/117/91 90/113/90 87/118/87
f 88/114/88 91/119/91 87/120/87
f 89/116/89 92/121/92 88/114/88
f 94/122/94 89/116/89 90/113/90
f 79/104/79 83/112/83 86/105/86
f 84/107/84 83/115/83 79/108/79
f 85/110/85 84/107/84 80/109/80
f 82/106/82 86/105/86 85/110/85
f 83/112/83 87/118/87 90/113/90
f 88/114/88 87/120/87 83/115/83
f 89/116/89 88/114/88 84/107/84
f 86/105/86 90/113/90 89/116/89
f 91/117/91 94/122/94 90/113/90
f 88/114/88 92/121/92 91/119/91
f 89/116/89 93/123/93 92/121/92
f 94/122/94 93/123/93 89/116/89
g Gold_Rib_3.001_Gold_Rib_3_curve.001
v -0.313241 -0.539390 0.313241
v -0.287792 -0.540000 0.313248
v -0.287800 -0.540610 0.287800
v -0.313248 -0.540000 0.287792
v -0.298987 0.052453 0.298987
v -0.273650 0.050000 0.299106
v -0.273769 0.047547 0.273769
v -0.299106 0.050000 0.273650
v -0.223885 0.486910 0.223885
v -0.199404 0.480000 0.224860
v -0.200379 0.473090 0.200379
v -0.224860 0.480000 0.199404
v -0.145211 0.669386 0.145211
v -0.121622 0.660000 0.147078
v -0.123490 0.650614 0.123490
v -0.147078 0.660000 0.121622
vn -0.7067 0.0340 0.7067
vn 0.7071 0.0001 0.7071
vn 0.7067 -0.0338 -0.7067
vn -0.7071 0.0001 -0.7071
vn -0.7005 0.1365 0.7005
vn 0.6740 0.0064 0.7387
vn 0.7005 -0.1363 -0.7005
vn -0.7387 0.0064 -0.6740
vn -0.6530 0.3837 0.6530
vn 0.6604 0.0263 0.7505
vn 0.6529 -0.3840 -0.6529
vn -0.7505 0.0263 -0.6604
vn -0.6035 0.5210 0.6035
vn 0.7069 -0.0004 0.7073
vn 0.6032 -0.5219 -0.6032
vn -0.7073 -0.0004 -0.7069
vt 0.000000 1.000000
vt 0.333333 1.000000
vt 0.333333 0.750000
vt 0.000000 0.750000
vt 0.000000 0.250000
vt 0.333333 0.250000
vt 0.333333 0.000000
vt 0.000000 0.000000
vt 0.000000 0.500000
vt 0.333333 0.500000
vt 0.666667 1.000000
vt 0.666667 0.750000
vt 0.666667 0.250000
vt 0.666667 0.000000
vt 0.666667 0.500000
vt 1.000000 1.000000
vt 1.000000 0.750000
vt 1.000000 0.250000
vt 1.000000 0.000000
vt 1.000000 0.500000
s 1
g Gold_Rib_3.001_sr_ritual_gold
usemtl sr_ritual_gold
f 95/124/95 99/125/99 102/126/102 98/127/98
f 96/128/96 100/129/100 99/130/99 95/131/95
f 97/132/97 101/133/101 100/129/100 96/128/96
f 98/127/98 102/126/102 101/133/101 97/132/97
f 99/125/99 103/134/103 106/135/106 102/126/102
f 100/129/100 104/136/104 103/137/103 99/130/99
f 101/133/101 105/138/105 104/136/104 100/129/100
f 102/126/102 106/135/106 105/138/105 101/133/101
f 103/134/103 107/139/107 110/140/110 106/135/106
f 104/136/104 108/141/108 107/142/107 103/137/103
f 105/138/105 109/143/109 108/141/108 104/136/104
f 106/135/106 110/140/110 109/143/109 105/138/105
g Gold_Rib_3.001_Gold_Rib_3_curve.001
v -0.313241 -0.539390 0.313241
v -0.287792 -0.540000 0.313248
v -0.287800 -0.540610 0.287800
v -0.313248 -0.540000 0.287792
v -0.298987 0.052453 0.298987
v -0.273650 0.050000 0.299106
v -0.273769 0.047547 0.273769
v -0.299106 0.050000 0.273650
v -0.223885 0.486910 0.223885
v -0.199404 0.480000 0.224860
v -0.200379 0.473090 0.200379
v -0.224860 0.480000 0.199404
v -0.145211 0.669386 0.145211
v -0.121622 0.660000 0.147078
v -0.123490 0.650614 0.123490
v -0.147078 0.660000 0.121622
vn -0.7067 0.0339 0.7067
vn 0.7071 0.0001 0.7071
vn 0.7067 -0.0337 -0.7067
vn -0.7071 0.0001 -0.7071
vn -0.7005 0.1363 0.7005
vn 0.6741 0.0064 0.7386
vn 0.7005 -0.1361 -0.7005
vn -0.7386 0.0064 -0.6741
vn -0.6530 0.3836 0.6530
vn 0.6602 0.0263 0.7506
vn 0.6529 -0.3839 -0.6529
vn -0.7506 0.0263 -0.6602
vn -0.6034 0.5214 0.6034
vn 0.7071 -0.0005 0.7071
vn 0.6030 -0.5223 -0.6030
vn -0.7071 -0.0005 -0.7071
vt 0.000000 1.000000
vt 0.333333 0.750000
vt 0.000000 0.750000
vt 0.333333 0.250000
vt 0.000000 0.000000
vt 0.000000 0.250000
vt 0.333333 0.500000
vt 0.000000 0.500000
vt 0.333333 1.000000
vt 0.666667 0.750000
vt 0.666667 0.250000
vt 0.333333 0.000000
vt 0.666667 0.500000
vt 1.000000 1.000000
vt 0.666667 1.000000
vt 1.000000 0.000000
vt 0.666667 0.000000
vt 1.000000 0.250000
vt 1.000000 0.750000
vt 1.000000 0.500000
s 1
g Gold_Rib_3.001_sr_ritual_gold
usemtl sr_ritual_gold
f 111/144/111 118/145/118 114/146/114
f 116/147/116 111/148/111 112/149/112
f 117/150/117 112/149/112 113/151/113
f 114/146/114 117/150/117 113/151/113
f 115/152/115 122/153/122 118/145/118
f 120/154/120 115/155/115 116/147/116
f 121/156/121 116/147/116 117/150/117
f 118/145/118 121/156/121 117/150/117
f 123/157/123 122/153/122 119/158/119
f 120/154/120 123/159/123 119/160/119
f 121/156/121 124/161/124 120/154/120
f 126/162/126 121/156/121 122/153/122
f 111/144/111 115/152/115 118/145/118
f 116/147/116 115/155/115 111/148/111
f 117/150/117 116/147/116 112/149/112
f 114/146/114 118/145/118 117/150/117
f 115/152/115 119/158/119 122/153/122
f 120/154/120 119/160/119 115/155/115
f 121/156/121 120/154/120 116/147/116
f 118/145/118 122/153/122 121/156/121
f 123/157/123 126/162/126 122/153/122
f 120/154/120 124/161/124 123/159/123
f 121/156/121 125/163/125 124/161/124
f 126/162/126 125/163/125 121/156/121
g Gold_Rib_4.001_Gold_Rib_4_curve.001
v 0.313241 -0.539390 0.313241
v 0.313248 -0.540000 0.287792
v 0.287800 -0.540610 0.287800
v 0.287792 -0.540000 0.313248
v 0.298987 0.052453 0.298987
v 0.299106 0.050000 0.273650
v 0.273769 0.047547 0.273769
v 0.273650 0.050000 0.299106
v 0.223885 0.486910 0.223885
v 0.224860 0.480000 0.199404
v 0.200379 0.473090 0.200379
v 0.199404 0.480000 0.224860
v 0.145211 0.669386 0.145211
v 0.147078 0.660000 0.121622
v 0.123490 0.650614 0.123490
v 0.121622 0.660000 0.147078
vn 0.7067 0.0340 0.7067
vn 0.7071 0.0001 -0.7071
vn -0.7067 -0.0338 -0.7067
vn -0.7071 0.0001 0.7071
vn 0.7005 0.1365 0.7005
vn 0.7387 0.0064 -0.6740
vn -0.7005 -0.1363 -0.7005
vn -0.6740 0.0064 0.7387
vn 0.6530 0.3837 0.6530
vn 0.7505 0.0263 -0.6604
vn -0.6529 -0.3840 -0.6529
vn -0.6604 0.0263 0.7505
vn 0.6035 0.5210 0.6035
vn 0.7073 -0.0004 -0.7069
vn -0.6032 -0.5219 -0.6032
vn -0.7069 -0.0004 0.7073
vt 0.000000 1.000000
vt 0.333333 1.000000
vt 0.333333 0.750000
vt 0.000000 0.750000
vt 0.000000 0.250000
vt 0.333333 0.250000
vt 0.333333 0.000000
vt 0.000000 0.000000
vt 0.000000 0.500000
vt 0.333333 0.500000
vt 0.666667 1.000000
vt 0.666667 0.750000
vt 0.666667 0.250000
vt 0.666667 0.000000
vt 0.666667 0.500000
vt 1.000000 1.000000
vt 1.000000 0.750000
vt 1.000000 0.250000
vt 1.000000 0.000000
vt 1.000000 0.500000
s 1
g Gold_Rib_4.001_sr_ritual_gold
usemtl sr_ritual_gold
f 127/164/127 131/165/131 134/166/134 130/167/130
f 128/168/128 132/169/132 131/170/131 127/171/127
f 129/172/129 133/173/133 132/169/132 128/168/128
f 130/167/130 134/166/134 133/173/133 129/172/129
f 131/165/131 135/174/135 138/175/138 134/166/134
f 132/169/132 136/176/136 135/177/135 131/170/131
f 133/173/133 137/178/137 136/176/136 132/169/132
f 134/166/134 138/175/138 137/178/137 133/173/133
f 135/174/135 139/179/139 142/180/142 138/175/138
f 136/176/136 140/181/140 139/182/139 135/177/135
f 137/178/137 141/183/141 140/181/140 136/176/136
f 138/175/138 142/180/142 141/183/141 137/178/137
g Gold_Rib_4.001_Gold_Rib_4_curve.001
v 0.313241 -0.539390 0.313241
v 0.313248 -0.540000 0.287792
v 0.287800 -0.540610 0.287800
v 0.287792 -0.540000 0.313248
v 0.298987 0.052453 0.298987
v 0.299106 0.050000 0.273650
v 0.273769 0.047547 0.273769
v 0.273650 0.050000 0.299106
v 0.223885 0.486910 0.223885
v 0.224860 0.480000 0.199404
v 0.200379 0.473090 0.200379
v 0.199404 0.480000 0.224860
v 0.145211 0.669386 0.145211
v 0.147078 0.660000 0.121622
v 0.123490 0.650614 0.123490
v 0.121622 0.660000 0.147078
vn 0.7067 0.0339 0.7067
vn 0.7071 0.0001 -0.7071
vn -0.7067 -0.0337 -0.7067
vn -0.7071 0.0001 0.7071
vn 0.7005 0.1363 0.7005
vn 0.7386 0.0064 -0.6741
vn -0.7005 -0.1361 -0.7005
vn -0.6741 0.0064 0.7386
vn 0.6530 0.3836 0.6530
vn 0.7506 0.0263 -0.6602
vn -0.6529 -0.3839 -0.6529
vn -0.6602 0.0263 0.7506
vn 0.6034 0.5214 0.6034
vn 0.7071 -0.0005 -0.7071
vn -0.6030 -0.5223 -0.6030
vn -0.7071 -0.0005 0.7071
vt 0.000000 1.000000
vt 0.333333 0.750000
vt 0.000000 0.750000
vt 0.333333 0.250000
vt 0.000000 0.000000
vt 0.000000 0.250000
vt 0.333333 0.500000
vt 0.000000 0.500000
vt 0.333333 1.000000
vt 0.666667 0.750000
vt 0.666667 0.250000
vt 0.333333 0.000000
vt 0.666667 0.500000
vt 1.000000 1.000000
vt 0.666667 1.000000
vt 1.000000 0.000000
vt 0.666667 0.000000
vt 1.000000 0.250000
vt 1.000000 0.750000
vt 1.000000 0.500000
s 1
g Gold_Rib_4.001_sr_ritual_gold
usemtl sr_ritual_gold
f 143/184/143 150/185/150 146/186/146
f 148/187/148 143/188/143 144/189/144
f 149/190/149 144/189/144 145/191/145
f 146/186/146 149/190/149 145/191/145
f 147/192/147 154/193/154 150/185/150
f 152/194/152 147/195/147 148/187/148
f 153/196/153 148/187/148 149/190/149
f 150/185/150 153/196/153 149/190/149
f 155/197/155 154/193/154 151/198/151
f 152/194/152 155/199/155 151/200/151
f 153/196/153 156/201/156 152/194/152
f 158/202/158 153/196/153 154/193/154
f 143/184/143 147/192/147 150/185/150
f 148/187/148 147/195/147 143/188/143
f 149/190/149 148/187/148 144/189/144
f 146/186/146 150/185/150 149/190/149
f 147/192/147 151/198/151 154/193/154
f 152/194/152 151/200/151 147/195/147
f 153/196/153 152/194/152 148/187/148
f 150/185/150 154/193/154 153/196/153
f 155/197/155 158/202/158 154/193/154
f 152/194/152 156/201/156 155/199/155
f 153/196/153 157/203/157 156/201/156
f 158/202/158 157/203/157 153/196/153
g Gold_Stopper.001_Gold_Stopper_profile_mesh.001
v 0.000000 0.730000 0.000000
v 0.150000 0.730000 0.000000
v 0.140000 0.910000 0.000000
v 0.100000 0.960000 0.000000
v 0.000000 0.960000 0.000000
v -0.000000 0.730000 -0.150000
v -0.000000 0.910000 -0.140000
v -0.000000 0.960000 -0.100000
v -0.150000 0.730000 0.000000
v -0.140000 0.910000 0.000000
v -0.100000 0.960000 0.000000
v 0.000000 0.730000 0.150000
v 0.000000 0.910000 0.140000
v 0.000000 0.960000 0.100000
vn -0.0000 1.0000 -0.0000
vn -0.7066 -0.0393 0.7066
vn 0.7066 -0.0393 0.7066
vn 0.7066 -0.0393 -0.7066
vn -0.7066 -0.0393 -0.7066
vn -0.6155 -0.4924 0.6155
vn 0.6155 -0.4924 0.6155
vn 0.6155 -0.4924 -0.6155
vn -0.6155 -0.4924 -0.6155
vn -0.0000 -1.0000 -0.0000
vt 0.125000 0.000000
vt 0.000000 0.000000
vt 0.250000 0.000000
vt 0.375000 0.000000
vt 0.500000 0.000000
vt 0.625000 0.000000
vt 0.750000 0.000000
vt 0.875000 0.000000
vt 1.000000 0.000000
vt 0.000000 0.782609
vt 0.500000 0.782609
vt 0.750000 0.782609
vt 0.000000 1.000000
vt 0.250000 0.782609
vt 0.250000 1.000000
vt 0.500000 1.000000
vt 0.750000 1.000000
vt 1.000000 0.782609
vt 0.125000 1.000000
vt 0.375000 1.000000
vt 0.625000 1.000000
vt 0.875000 1.000000
vt 1.000000 1.000000
s 0
g Gold_Stopper.001_sr_ritual_gold
usemtl sr_ritual_gold
f 159/204/159 160/205/159 164/206/159
f 159/207/159 164/206/159 167/208/159
f 159/209/159 167/208/159 170/210/159
f 159/211/159 170/210/159 160/212/159
f 161/213/160 164/206/160 160/205/160
f 164/206/161 168/214/161 167/208/161
f 168/214/162 170/210/162 167/208/162
f 171/215/163 160/212/163 170/210/163
f 162/216/164 165/217/164 161/213/164
f 166/218/165 168/214/165 165/217/165
f 169/219/166 171/215/166 168/214/166
f 172/220/167 161/221/167 171/215/167
f 162/216/168 163/222/168 166/218/168
f 166/218/168 163/223/168 169/219/168
f 169/219/168 163/224/168 172/220/168
f 172/220/168 163/225/168 162/226/168
f 161/213/160 165/217/160 164/206/160
f 164/206/161 165/217/161 168/214/161
f 168/214/162 171/215/162 170/210/162
f 171/215/163 161/221/163 160/212/163
f 162/216/164 166/218/164 165/217/164
f 166/218/165 169/219/165 168/214/165
f 169/219/166 172/220/166 171/215/166
f 172/220/167 162/226/167 161/221/167
g Lower_Gold_Collar.001_Lower_Gold_Collar_profile_mesh.001
v 0.395000 -0.577500 0.000000
v 0.435000 -0.577500 0.000000
v 0.435000 -0.502500 0.000000
v 0.395000 -0.502500 0.000000
v -0.000000 -0.577500 -0.395000
v -0.000000 -0.577500 -0.435000
v -0.000000 -0.502500 -0.435000
v -0.000000 -0.502500 -0.395000
v -0.395000 -0.577500 0.000000
v -0.435000 -0.577500 0.000000
v -0.435000 -0.502500 0.000000
v -0.395000 -0.502500 0.000000
v 0.000000 -0.577500 0.395000
v 0.000000 -0.577500 0.435000
v 0.000000 -0.502500 0.435000
v 0.000000 -0.502500 0.395000
vn -0.0000 1.0000 -0.0000
vn -0.7071 -0.0000 0.7071
vn 0.7071 -0.0000 0.7071
vn 0.7071 -0.0000 -0.7071
vn -0.7071 -0.0000 -0.7071
vn -0.0000 -1.0000 -0.0000
vt 0.000000 0.000000
vt 0.250000 0.000000
vt 0.500000 0.000000
vt 0.750000 0.000000
vt 1.000000 0.000000
vt 0.000000 1.000000
vt 0.250000 1.000000
vt 0.500000 1.000000
vt 0.750000 1.000000
vt 1.000000 1.000000
s 0
g Lower_Gold_Collar.001_sr_ritual_gold
usemtl sr_ritual_gold
f 174/227/169 177/228/169 173/227/169
f 178/228/169 181/229/169 177/228/169
f 182/229/169 185/230/169 181/229/169
f 186/230/169 173/231/169 185/230/169
f 175/232/170 178/228/170 174/227/170
f 179/233/171 182/229/171 178/228/171
f 183/234/172 186/230/172 182/229/172
f 187/235/173 174/231/173 186/230/173
f 176/232/174 179/233/174 175/232/174
f 180/233/174 183/234/174 179/233/174
f 184/234/174 187/235/174 183/234/174
f 188/235/174 175/236/174 187/235/174
f 173/227/172 180/233/172 176/232/172
f 177/228/173 184/234/173 180/233/173
f 181/229/170 188/235/170 184/234/170
f 185/230/171 176/236/171 188/235/171
f 174/227/169 178/228/169 177/228/169
f 178/228/169 182/229/169 181/229/169
f 182/229/169 186/230/169 185/230/169
f 186/230/169 174/231/169 173/231/169
f 175/232/170 179/233/170 178/228/170
f 179/233/171 183/234/171 182/229/171
f 183/234/172 187/235/172 186/230/172
f 187/235/173 175/236/173 174/231/173
f 176/232/174 180/233/174 179/233/174
f 180/233/174 184/234/174 183/234/174
f 184/234/174 188/235/174 187/235/174
f 188/235/174 176/236/174 175/236/174
f 173/227/172 177/228/172 180/233/172
f 177/228/173 181/229/173 184/234/173
f 181/229/170 185/230/170 188/235/170
f 185/230/171 173/231/171 176/236/171
g Neck_Gold_Collar.001_Neck_Gold_Collar_profile_mesh.001
v 0.165000 0.632500 0.000000
v 0.205000 0.632500 0.000000
v 0.205000 0.707500 0.000000
v 0.165000 0.707500 0.000000
v -0.000000 0.632500 -0.165000
v -0.000000 0.632500 -0.205000
v -0.000000 0.707500 -0.205000
v -0.000000 0.707500 -0.165000
v -0.165000 0.632500 0.000000
v -0.205000 0.632500 0.000000
v -0.205000 0.707500 0.000000
v -0.165000 0.707500 0.000000
v 0.000000 0.632500 0.165000
v 0.000000 0.632500 0.205000
v 0.000000 0.707500 0.205000
v 0.000000 0.707500 0.165000
vn -0.0000 1.0000 -0.0000
vn -0.7071 -0.0000 0.7071
vn 0.7071 -0.0000 0.7071
vn 0.7071 -0.0000 -0.7071
vn -0.7071 -0.0000 -0.7071
vn -0.0000 -1.0000 -0.0000
vt 0.000000 0.000000
vt 0.250000 0.000000
vt 0.500000 0.000000
vt 0.750000 0.000000
vt 1.000000 0.000000
vt 0.000000 1.000000
vt 0.250000 1.000000
vt 0.500000 1.000000
vt 0.750000 1.000000
vt 1.000000 1.000000
s 0
g Neck_Gold_Collar.001_sr_ritual_gold
usemtl sr_ritual_gold
f 190/237/175 193/238/175 189/237/175
f 194/238/175 197/239/175 193/238/175
f 198/239/175 201/240/175 197/239/175
f 202/240/175 189/241/175 201/240/175
f 191/242/176 194/238/176 190/237/176
f 195/243/177 198/239/177 194/238/177
f 199/244/178 202/240/178 198/239/178
f 203/245/179 190/241/179 202/240/179
f 192/242/180 195/243/180 191/242/180
f 196/243/180 199/244/180 195/243/180
f 200/244/180 203/245/180 199/244/180
f 204/245/180 191/246/180 203/245/180
f 189/237/178 196/243/178 192/242/178
f 193/238/179 200/244/179 196/243/179
f 197/239/176 204/245/176 200/244/176
f 201/240/177 192/246/177 204/245/177
f 190/237/175 194/238/175 193/238/175
f 194/238/175 198/239/175 197/239/175
f 198/239/175 202/240/175 201/240/175
f 202/240/175 190/241/175 189/241/175
f 191/242/176 195/243/176 194/238/176
f 195/243/177 199/244/177 198/239/177
f 199/244/178 203/245/178 202/240/178
f 203/245/179 191/246/179 190/241/179
f 192/242/180 196/243/180 195/243/180
f 196/243/180 200/244/180 199/244/180
f 200/244/180 204/245/180 203/245/180
f 204/245/180 192/246/180 191/246/180
f 189/237/178 193/238/178 196/243/178
f 193/238/179 197/239/179 200/244/179
f 197/239/176 201/240/176 204/245/176
f 201/240/177 189/241/177 192/246/177
