# Second Rite deterministic completion model
# Hook Spear
mtllib item_complete_library.mtl
o item_199
s off
v -0.09 -1.825 -0.08608449999999998
v -0.045 -1.825 -0.008142499999999983
v 0.045 -1.825 -0.008142499999999983
v 0.09 -1.825 -0.08608449999999998
v 0.045 -1.825 -0.16402649999999996
v -0.045 -1.825 -0.16402649999999996
v -0.07 1.075 -0.08608449999999998
v -0.035 1.075 -0.025462499999999978
v 0.035 1.075 -0.025462499999999978
v 0.07 1.075 -0.08608449999999998
v 0.035 1.075 -0.1467065
v -0.035 1.075 -0.1467065
v 0 -1.825 -0.08608449999999998
v 0 1.075 -0.08608449999999998
v -0.28 0.875 -0.16608449999999997
v -0.1 1.575 -0.16608449999999997
v 0 1.825 -0.16608449999999997
v 0.1 1.575 -0.16608449999999997
v 0.28 0.875 -0.16608449999999997
v 0 1.075 -0.16608449999999997
v -0.28 0.875 -0.006084499999999979
v -0.1 1.575 -0.006084499999999979
v 0 1.825 -0.006084499999999979
v 0.1 1.575 -0.006084499999999979
v 0.28 0.875 -0.006084499999999979
v 0 1.075 -0.006084499999999979
v 0.16 1.2049999999999998 0.013915500000000025
v 0.049443 1.2049999999999998 0.1660845
v -0.129443 1.2049999999999998 0.10796150000000002
v -0.129443 1.2049999999999998 -0.08013049999999998
v 0.049443 1.2049999999999998 -0.13825349999999997
v 0 1.315 0.013915500000000025
v 0 1.095 0.013915500000000025
usemtl dark_wood
f 13 2 1
f 14 7 8
f 1 2 8
f 1 8 7
f 13 3 2
f 14 8 9
f 2 3 9
f 2 9 8
f 13 4 3
f 14 9 10
f 3 4 10
f 3 10 9
f 13 5 4
f 14 10 11
f 4 5 11
f 4 11 10
f 13 6 5
f 14 11 12
f 5 6 12
f 5 12 11
f 13 1 6
f 14 12 7
f 6 1 7
f 6 7 12
usemtl wrought_iron
f 15 17 16
f 21 22 23
f 15 18 17
f 21 23 24
f 15 19 18
f 21 24 25
f 15 20 19
f 21 25 26
f 15 16 22
f 15 22 21
f 16 17 23
f 16 23 22
f 17 18 24
f 17 24 23
f 18 19 25
f 18 25 24
f 19 20 26
f 19 26 25
f 20 15 21
f 20 21 26
usemtl ritual_gold
f 32 27 28
f 33 28 27
f 32 28 29
f 33 29 28
f 32 29 30
f 33 30 29
f 32 30 31
f 33 31 30
f 32 31 27
f 33 27 31
