# Second Rite deterministic completion model
# Kimchi
mtllib item_complete_library.mtl
o item_189
s off
v -0.375 -0.29500000000000004 -0.29
v 0.375 -0.29500000000000004 -0.29
v 0.375 0.0049999999999999906 -0.29
v -0.375 0.0049999999999999906 -0.29
v -0.375 -0.29500000000000004 0.29
v 0.375 -0.29500000000000004 0.29
v 0.375 0.0049999999999999906 0.29
v -0.375 0.0049999999999999906 0.29
v 0.27 0.13499999999999998 0
v 0.135 0.13499999999999998 0.233827
v -0.135 0.13499999999999998 0.233827
v -0.27 0.13499999999999998 0
v -0.135 0.13499999999999998 -0.233827
v 0.135 0.13499999999999998 -0.233827
v 0 0.29500000000000004 0
v 0 -0.025000000000000012 0
usemtl aged_cloth
f 1 4 3
f 1 3 2
f 5 6 7
f 5 7 8
f 1 2 6
f 1 6 5
f 4 8 7
f 4 7 3
f 1 5 8
f 1 8 4
f 2 3 7
f 2 7 6
usemtl wax
f 15 9 10
f 16 10 9
f 15 10 11
f 16 11 10
f 15 11 12
f 16 12 11
f 15 12 13
f 16 13 12
f 15 13 14
f 16 14 13
f 15 14 9
f 16 9 14
