# Second Rite deterministic item batch 53-62
# Knight Sword
mtllib item_batch_53_62.mtl
o knight_sword
s off
v -0.273376 -0.830000 -0.060000
v -0.353376 -0.510000 -0.060000
v -0.213976 1.330000 -0.060000
v -0.003376 1.790000 -0.060000
v 0.207224 1.330000 -0.060000
v 0.346624 -0.510000 -0.060000
v 0.266624 -0.830000 -0.060000
v -0.273376 -0.830000 0.060000
v -0.353376 -0.510000 0.060000
v -0.213976 1.330000 0.060000
v -0.003376 1.790000 0.060000
v 0.207224 1.330000 0.060000
v 0.346624 -0.510000 0.060000
v 0.266624 -0.830000 0.060000
v -0.528376 -1.010000 -0.120000
v 0.521624 -1.010000 -0.120000
v 0.521624 -0.850000 -0.120000
v -0.528376 -0.850000 -0.120000
v -0.528376 -1.010000 0.120000
v 0.521624 -1.010000 0.120000
v 0.521624 -0.850000 0.120000
v -0.528376 -0.850000 0.120000
v -0.113376 -0.990000 0.000000
v -0.058376 -0.990000 -0.095263
v 0.051624 -0.990000 -0.095263
v 0.106624 -0.990000 -0.000000
v 0.051624 -0.990000 0.095263
v -0.058376 -0.990000 0.095263
v -0.093376 -1.610000 0.000000
v -0.048376 -1.610000 -0.077942
v 0.041624 -1.610000 -0.077942
v 0.086624 -1.610000 -0.000000
v 0.041624 -1.610000 0.077942
v -0.048376 -1.610000 0.077942
v -0.003376 -0.990000 0.000000
v -0.003376 -1.610000 0.000000
v 0.156624 -1.690000 0.000000
v -0.003376 -1.690000 0.160000
v -0.163376 -1.690000 0.000000
v -0.003376 -1.690000 -0.160000
v -0.003376 -1.590000 0.000000
v -0.003376 -1.790000 0.000000
v -0.033076 -0.527600 0.056400
v 0.026324 -0.527600 0.056400
v 0.026324 1.027600 0.056400
v -0.033076 1.027600 0.056400
v -0.033076 -0.527600 0.075600
v 0.026324 -0.527600 0.075600
v 0.026324 1.027600 0.075600
v -0.033076 1.027600 0.075600
v -0.033076 -0.527600 -0.075600
v 0.026324 -0.527600 -0.075600
v 0.026324 1.027600 -0.075600
v -0.033076 1.027600 -0.075600
v -0.033076 -0.527600 -0.056400
v 0.026324 -0.527600 -0.056400
v 0.026324 1.027600 -0.056400
v -0.033076 1.027600 -0.056400
v -0.446807 -0.978431 0.000000
v -0.485895 -1.017519 -0.076085
v -0.549141 -1.080765 -0.047023
v -0.549141 -1.080765 0.047023
v -0.485895 -1.017519 0.076085
v -0.628021 -0.839645 0.000000
v -0.652451 -0.864075 -0.047553
v -0.691979 -0.903603 -0.029389
v -0.691979 -0.903603 0.029389
v -0.652451 -0.864075 0.047553
v -0.503376 -1.035000 0.000000
v -0.663376 -0.875000 0.000000
v 0.553193 -1.091569 0.000000
v 0.514105 -1.052481 -0.076085
v 0.450859 -0.989235 -0.047023
v 0.450859 -0.989235 0.047023
v 0.514105 -1.052481 0.076085
v 0.691979 -0.910355 0.000000
v 0.667549 -0.885925 -0.047553
v 0.628021 -0.846397 -0.029389
v 0.628021 -0.846397 0.029389
v 0.667549 -0.885925 0.047553
v 0.496624 -1.035000 0.000000
v 0.656624 -0.875000 0.000000
usemtl wrought_iron
f 1 3 2
f 8 9 10
f 1 4 3
f 8 10 11
f 1 5 4
f 8 11 12
f 1 6 5
f 8 12 13
f 1 7 6
f 8 13 14
f 1 2 9
f 1 9 8
f 2 3 10
f 2 10 9
f 3 4 11
f 3 11 10
f 4 5 12
f 4 12 11
f 5 6 13
f 5 13 12
f 6 7 14
f 6 14 13
f 7 1 8
f 7 8 14
usemtl ritual_gold
f 15 18 17
f 15 17 16
f 19 20 21
f 19 21 22
f 15 16 20
f 15 20 19
f 18 22 21
f 18 21 17
f 15 19 22
f 15 22 18
f 16 17 21
f 16 21 20
usemtl dark_wood
f 35 24 23
f 36 29 30
f 23 24 30
f 23 30 29
f 35 25 24
f 36 30 31
f 24 25 31
f 24 31 30
f 35 26 25
f 36 31 32
f 25 26 32
f 25 32 31
f 35 27 26
f 36 32 33
f 26 27 33
f 26 33 32
f 35 28 27
f 36 33 34
f 27 28 34
f 27 34 33
f 35 23 28
f 36 34 29
f 28 23 29
f 28 29 34
usemtl ritual_gold
f 41 37 38
f 42 38 37
f 41 38 39
f 42 39 38
f 41 39 40
f 42 40 39
f 41 40 37
f 42 37 40
f 43 46 45
f 43 45 44
f 47 48 49
f 47 49 50
f 43 44 48
f 43 48 47
f 46 50 49
f 46 49 45
f 43 47 50
f 43 50 46
f 44 45 49
f 44 49 48
f 51 54 53
f 51 53 52
f 55 56 57
f 55 57 58
f 51 52 56
f 51 56 55
f 54 58 57
f 54 57 53
f 51 55 58
f 51 58 54
f 52 53 57
f 52 57 56
f 69 60 59
f 70 64 65
f 59 60 65
f 59 65 64
f 69 61 60
f 70 65 66
f 60 61 66
f 60 66 65
f 69 62 61
f 70 66 67
f 61 62 67
f 61 67 66
f 69 63 62
f 70 67 68
f 62 63 68
f 62 68 67
f 69 59 63
f 70 68 64
f 63 59 64
f 63 64 68
f 81 72 71
f 82 76 77
f 71 72 77
f 71 77 76
f 81 73 72
f 82 77 78
f 72 73 78
f 72 78 77
f 81 74 73
f 82 78 79
f 73 74 79
f 73 79 78
f 81 75 74
f 82 79 80
f 74 75 80
f 74 80 79
f 81 71 75
f 82 80 76
f 75 71 76
f 75 76 80
