# Blender 5.2.2 LTS
# www.blender.org
mtllib mega_potion.mtl
g Canteen_Body_Profile.001_Canteen_Body_Profile_profile_mesh.001
v 0.000000 -0.870000 0.000000
v 0.330000 -0.870000 0.000000
v 0.510000 -0.730000 0.000000
v 0.600000 -0.450000 0.000000
v 0.580000 0.310000 0.000000
v 0.450000 0.500000 0.000000
v 0.270000 0.620000 0.000000
v 0.190000 0.730000 0.000000
v 0.000000 0.730000 0.000000
v 0.266976 -0.870000 -0.112502
v 0.412599 -0.730000 -0.173867
v 0.485410 -0.450000 -0.204549
v 0.469230 0.310000 -0.197731
v 0.364058 0.500000 -0.153412
v 0.218435 0.620000 -0.092047
v 0.153713 0.730000 -0.064774
v 0.101976 -0.870000 -0.182032
v 0.157599 -0.730000 -0.281323
v 0.185410 -0.450000 -0.330968
v 0.179230 0.310000 -0.319935
v 0.139058 0.500000 -0.248226
v 0.083435 0.620000 -0.148935
v 0.058713 0.730000 -0.104806
v -0.101976 -0.870000 -0.182032
v -0.157599 -0.730000 -0.281322
v -0.185410 -0.450000 -0.330968
v -0.179230 0.310000 -0.319935
v -0.139058 0.500000 -0.248226
v -0.083435 0.620000 -0.148935
v -0.058713 0.730000 -0.104806
v -0.266976 -0.870000 -0.112502
v -0.412599 -0.730000 -0.173867
v -0.485410 -0.450000 -0.204549
v -0.469230 0.310000 -0.197731
v -0.364058 0.500000 -0.153412
v -0.218435 0.620000 -0.092047
v -0.153713 0.730000 -0.064774
v -0.330000 -0.870000 0.000000
v -0.510000 -0.730000 0.000000
v -0.600000 -0.450000 0.000000
v -0.580000 0.310000 0.000000
v -0.450000 0.500000 0.000000
v -0.270000 0.620000 0.000000
v -0.190000 0.730000 0.000000
v -0.266976 -0.870000 0.112502
v -0.412599 -0.730000 0.173867
v -0.485410 -0.450000 0.204549
v -0.469230 0.310000 0.197731
v -0.364058 0.500000 0.153412
v -0.218435 0.620000 0.092047
v -0.153713 0.730000 0.064774
v -0.101976 -0.870000 0.182032
v -0.157599 -0.730000 0.281322
v -0.185410 -0.450000 0.330968
v -0.179230 0.310000 0.319935
v -0.139058 0.500000 0.248226
v -0.083435 0.620000 0.148935
v -0.058713 0.730000 0.104806
v 0.101976 -0.870000 0.182032
v 0.157599 -0.730000 0.281322
v 0.185410 -0.450000 0.330968
v 0.179230 0.310000 0.319935
v 0.139058 0.500000 0.248226
v 0.083435 0.620000 0.148935
v 0.058713 0.730000 0.104806
v 0.266976 -0.870000 0.112502
v 0.412599 -0.730000 0.173867
v 0.485410 -0.450000 0.204549
v 0.469230 0.310000 0.197731
v 0.364058 0.500000 0.153412
v 0.218435 0.620000 0.092047
v 0.153713 0.730000 0.064774
vn -0.0000 1.0000 -0.0000
vn -0.3800 0.9250 -0.0000
vn -0.8369 0.5473 -0.0000
vn -0.9905 0.1374 -0.0000
vn -0.9561 -0.2929 -0.0000
vn -0.7210 -0.6930 -0.0000
vn -0.6735 -0.7392 -0.0000
vn -0.5198 -0.8543 -0.0000
vn -0.0000 -1.0000 -0.0000
vn -0.2933 0.8826 0.3674
vn -0.5571 0.4503 0.6978
vn -0.6203 0.1064 0.7771
vn -0.6072 -0.2299 0.7606
vn -0.5012 -0.5955 0.6278
vn -0.4762 -0.6461 0.5965
vn -0.3865 -0.7850 0.4841
vn -0.1047 0.8248 0.5556
vn -0.1724 0.3649 0.9149
vn -0.1846 0.0829 0.9793
vn -0.1822 -0.1806 0.9665
vn -0.1605 -0.4991 0.8515
vn -0.1547 -0.5496 0.8210
vn -0.1319 -0.7017 0.7001
vn 0.1047 0.8248 0.5556
vn 0.1724 0.3649 0.9149
vn 0.1846 0.0829 0.9793
vn 0.1821 -0.1806 0.9665
vn 0.1605 -0.4992 0.8515
vn 0.1547 -0.5496 0.8210
vn 0.1319 -0.7017 0.7001
vn 0.2933 0.8826 0.3674
vn 0.5571 0.4503 0.6978
vn 0.6203 0.1064 0.7771
vn 0.6072 -0.2299 0.7606
vn 0.5012 -0.5955 0.6278
vn 0.4762 -0.6461 0.5965
vn 0.3865 -0.7850 0.4841
vn 0.3800 0.9250 -0.0000
vn 0.8369 0.5473 -0.0000
vn 0.9905 0.1374 -0.0000
vn 0.9561 -0.2929 -0.0000
vn 0.7210 -0.6930 -0.0000
vn 0.6735 -0.7392 -0.0000
vn 0.5198 -0.8543 -0.0000
vn 0.2933 0.8826 -0.3674
vn 0.5571 0.4503 -0.6978
vn 0.6203 0.1064 -0.7771
vn 0.6072 -0.2299 -0.7606
vn 0.5012 -0.5955 -0.6278
vn 0.4762 -0.6461 -0.5965
vn 0.3865 -0.7850 -0.4841
vn 0.1047 0.8248 -0.5556
vn 0.1724 0.3649 -0.9149
vn 0.1846 0.0829 -0.9793
vn 0.1822 -0.1806 -0.9665
vn 0.1605 -0.4991 -0.8515
vn 0.1547 -0.5496 -0.8210
vn 0.1319 -0.7017 -0.7001
vn -0.1047 0.8248 -0.5556
vn -0.1724 0.3649 -0.9149
vn -0.1846 0.0829 -0.9793
vn -0.1821 -0.1806 -0.9665
vn -0.1605 -0.4991 -0.8515
vn -0.1547 -0.5496 -0.8210
vn -0.1319 -0.7017 -0.7001
vn -0.2933 0.8826 -0.3674
vn -0.5571 0.4503 -0.6978
vn -0.6203 0.1064 -0.7771
vn -0.6072 -0.2299 -0.7606
vn -0.5012 -0.5955 -0.6278
vn -0.4762 -0.6461 -0.5965
vn -0.3865 -0.7850 -0.4841
vt 0.050000 0.000000
vt 0.000000 0.000000
vt 0.100000 0.000000
vt 0.150000 0.000000
vt 0.200000 0.000000
vt 0.250000 0.000000
vt 0.300000 0.000000
vt 0.350000 0.000000
vt 0.400000 0.000000
vt 0.450000 0.000000
vt 0.500000 0.000000
vt 0.550000 0.000000
vt 0.600000 0.000000
vt 0.650000 0.000000
vt 0.700000 0.000000
vt 0.750000 0.000000
vt 0.800000 0.000000
vt 0.850000 0.000000
vt 0.900000 0.000000
vt 0.950000 0.000000
vt 1.000000 0.000000
vt 0.000000 0.087500
vt 0.100000 0.087500
vt 0.200000 0.087500
vt 0.300000 0.087500
vt 0.400000 0.087500
vt 0.500000 0.087500
vt 0.600000 0.087500
vt 0.700000 0.087500
vt 0.800000 0.087500
vt 1.000000 0.087500
vt 0.000000 0.262500
vt 0.100000 0.262500
vt 0.200000 0.262500
vt 0.400000 0.262500
vt 0.500000 0.262500
vt 0.600000 0.262500
vt 0.700000 0.262500
vt 0.800000 0.262500
vt 0.900000 0.087500
vt 1.000000 0.262500
vt 0.000000 0.737500
vt 0.100000 0.737500
vt 0.200000 0.737500
vt 0.300000 0.262500
vt 0.400000 0.737500
vt 0.500000 0.737500
vt 0.600000 0.737500
vt 0.700000 0.737500
vt 0.800000 0.737500
vt 0.900000 0.262500
vt 0.900000 0.737500
vt 0.000000 0.856250
vt 0.100000 0.856250
vt 0.200000 0.856250
vt 0.300000 0.737500
vt 0.300000 0.856250
vt 0.400000 0.856250
vt 0.500000 0.856250
vt 0.600000 0.856250
vt 0.700000 0.856250
vt 0.800000 0.856250
vt 0.900000 0.856250
vt 1.000000 0.737500
vt 0.000000 0.931250
vt 0.200000 0.931250
vt 0.400000 0.931250
vt 0.500000 0.931250
vt 0.700000 0.931250
vt 0.800000 0.931250
vt 0.900000 0.931250
vt 1.000000 0.856250
vt 0.000000 1.000000
vt 0.100000 0.931250
vt 0.100000 1.000000
vt 0.200000 1.000000
vt 0.300000 0.931250
vt 0.300000 1.000000
vt 0.400000 1.000000
vt 0.600000 1.000000
vt 0.600000 0.931250
vt 0.700000 1.000000
vt 0.900000 1.000000
vt 1.000000 0.931250
vt 0.050000 1.000000
vt 0.150000 1.000000
vt 0.250000 1.000000
vt 0.350000 1.000000
vt 0.450000 1.000000
vt 0.500000 1.000000
vt 0.550000 1.000000
vt 0.650000 1.000000
vt 0.750000 1.000000
vt 0.800000 1.000000
vt 0.850000 1.000000
vt 0.950000 1.000000
vt 1.000000 1.000000
s 1
g Canteen_Body_Profile.001_sr_smoked_glass
usemtl sr_smoked_glass
f 1/1/1 2/2/2 10/3/10
f 1/4/1 10/3/10 17/5/17
f 1/6/1 17/5/17 24/7/24
f 1/8/1 24/7/24 31/9/31
f 1/10/1 31/9/31 38/11/38
f 1/12/1 38/11/38 45/13/45
f 1/14/1 45/13/45 52/15/52
f 1/16/1 52/15/52 59/17/59
f 1/18/1 59/17/59 66/19/66
f 1/20/1 66/19/66 2/21/2
f 3/22/3 10/3/10 2/2/2
f 11/23/11 17/5/17 10/3/10
f 18/24/18 24/7/24 17/5/17
f 25/25/25 31/9/31 24/7/24
f 32/26/32 38/11/38 31/9/31
f 39/27/39 45/13/45 38/11/38
f 46/28/46 52/15/52 45/13/45
f 53/29/53 59/17/59 52/15/52
f 60/30/60 66/19/66 59/17/59
f 66/19/66 3/31/3 2/21/2
f 4/32/4 11/23/11 3/22/3
f 12/33/12 18/24/18 11/23/11
f 19/34/19 25/25/25 18/24/18
f 25/25/25 33/35/33 32/26/32
f 33/35/33 39/27/39 32/26/32
f 40/36/40 46/28/46 39/27/39
f 47/37/47 53/29/53 46/28/46
f 54/38/54 60/30/60 53/29/53
f 61/39/61 67/40/67 60/30/60
f 67/40/67 4/41/4 3/31/3
f 5/42/5 12/33/12 4/32/4
f 13/43/13 19/34/19 12/33/12
f 20/44/20 26/45/26 19/34/19
f 26/45/26 34/46/34 33/35/33
f 34/46/34 40/36/40 33/35/33
f 41/47/41 47/37/47 40/36/40
f 48/48/48 54/38/54 47/37/47
f 55/49/55 61/39/61 54/38/54
f 62/50/62 68/51/68 61/39/61
f 69/52/69 4/41/4 68/51/68
f 6/53/6 13/43/13 5/42/5
f 14/54/14 20/44/20 13/43/13
f 21/55/21 27/56/27 20/44/20
f 28/57/28 34/46/34 27/56/27
f 35/58/35 41/47/41 34/46/34
f 42/59/42 48/48/48 41/47/41
f 49/60/49 55/49/55 48/48/48
f 56/61/56 62/50/62 55/49/55
f 63/62/63 69/52/69 62/50/62
f 70/63/70 5/64/5 69/52/69
f 7/65/7 14/54/14 6/53/6
f 14/54/14 22/66/22 21/55/21
f 22/66/22 28/57/28 21/55/21
f 28/57/28 36/67/36 35/58/35
f 36/67/36 42/59/42 35/58/35
f 43/68/43 49/60/49 42/59/42
f 49/60/49 57/69/57 56/61/56
f 57/69/57 63/62/63 56/61/56
f 64/70/64 70/63/70 63/62/63
f 71/71/71 6/72/6 70/63/70
f 8/73/8 15/74/15 7/65/7
f 16/75/16 22/66/22 15/74/15
f 23/76/23 29/77/29 22/66/22
f 30/78/30 36/67/36 29/77/29
f 37/79/37 43/68/43 36/67/36
f 43/68/43 51/80/51 50/81/50
f 51/80/51 57/69/57 50/81/50
f 58/82/58 64/70/64 57/69/57
f 64/70/64 72/83/72 71/71/71
f 72/83/72 7/84/7 71/71/71
f 8/73/8 9/85/9 16/75/16
f 16/75/16 9/86/9 23/76/23
f 23/76/23 9/87/9 30/78/30
f 30/78/30 9/88/9 37/79/37
f 37/79/37 9/89/9 44/90/44
f 44/90/44 9/91/9 51/80/51
f 51/80/51 9/92/9 58/82/58
f 58/82/58 9/93/9 65/94/65
f 65/94/65 9/95/9 72/83/72
f 72/83/72 9/96/9 8/97/8
f 3/22/3 11/23/11 10/3/10
f 11/23/11 18/24/18 17/5/17
f 18/24/18 25/25/25 24/7/24
f 25/25/25 32/26/32 31/9/31
f 32/26/32 39/27/39 38/11/38
f 39/27/39 46/28/46 45/13/45
f 46/28/46 53/29/53 52/15/52
f 53/29/53 60/30/60 59/17/59
f 60/30/60 67/40/67 66/19/66
f 66/19/66 67/40/67 3/31/3
f 4/32/4 12/33/12 11/23/11
f 12/33/12 19/34/19 18/24/18
f 19/34/19 26/45/26 25/25/25
f 25/25/25 26/45/26 33/35/33
f 33/35/33 40/36/40 39/27/39
f 40/36/40 47/37/47 46/28/46
f 47/37/47 54/38/54 53/29/53
f 54/38/54 61/39/61 60/30/60
f 61/39/61 68/51/68 67/40/67
f 67/40/67 68/51/68 4/41/4
f 5/42/5 13/43/13 12/33/12
f 13/43/13 20/44/20 19/34/19
f 20/44/20 27/56/27 26/45/26
f 26/45/26 27/56/27 34/46/34
f 34/46/34 41/47/41 40/36/40
f 41/47/41 48/48/48 47/37/47
f 48/48/48 55/49/55 54/38/54
f 55/49/55 62/50/62 61/39/61
f 62/50/62 69/52/69 68/51/68
f 69/52/69 5/64/5 4/41/4
f 6/53/6 14/54/14 13/43/13
f 14/54/14 21/55/21 20/44/20
f 21/55/21 28/57/28 27/56/27
f 28/57/28 35/58/35 34/46/34
f 35/58/35 42/59/42 41/47/41
f 42/59/42 49/60/49 48/48/48
f 49/60/49 56/61/56 55/49/55
f 56/61/56 63/62/63 62/50/62
f 63/62/63 70/63/70 69/52/69
f 70/63/70 6/72/6 5/64/5
f 7/65/7 15/74/15 14/54/14
f 14/54/14 15/74/15 22/66/22
f 22/66/22 29/77/29 28/57/28
f 28/57/28 29/77/29 36/67/36
f 36/67/36 43/68/43 42/59/42
f 43/68/43 50/81/50 49/60/49
f 49/60/49 50/81/50 57/69/57
f 57/69/57 64/70/64 63/62/63
f 64/70/64 71/71/71 70/63/70
f 71/71/71 7/84/7 6/72/6
f 8/73/8 16/75/16 15/74/15
f 16/75/16 23/76/23 22/66/22
f 23/76/23 30/78/30 29/77/29
f 30/78/30 37/79/37 36/67/36
f 37/79/37 44/90/44 43/68/43
f 43/68/43 44/90/44 51/80/51
f 51/80/51 58/82/58 57/69/57
f 58/82/58 65/94/65 64/70/64
f 64/70/64 65/94/65 72/83/72
f 72/83/72 8/97/8 7/84/7
g Cloth_Seal_Loop.001_Cloth_Seal_Loop_curve.001
v 0.184475 0.688234 0.114337
v 0.139929 0.670000 0.121030
v 0.135525 0.651766 0.094463
v 0.180071 0.670000 0.087770
v 0.287440 0.477902 0.156739
v 0.238528 0.474881 0.160779
v 0.232560 0.462098 0.133261
v 0.281472 0.465119 0.129221
v 0.224187 0.230787 0.181865
v 0.180114 0.253225 0.183040
v 0.175813 0.249213 0.154535
v 0.219886 0.226775 0.153360
v 0.100569 0.075152 0.187986
v 0.061968 0.106113 0.188676
v 0.059431 0.104848 0.160014
v 0.098032 0.073887 0.159324
vn 0.5787 0.4261 0.6954
vn -0.3755 -0.0034 0.9268
vn -0.5764 -0.4335 -0.6927
vn 0.3786 -0.0022 -0.9256
vn 0.6530 0.1731 0.7373
vn -0.3086 0.1098 0.9448
vn -0.5389 -0.1762 -0.8237
vn 0.5055 -0.0791 -0.8592
vn 0.5299 -0.2041 0.8231
vn -0.3353 0.2375 0.9117
vn -0.4685 0.1740 -0.8662
vn 0.4522 -0.2874 -0.8443
vn 0.4238 -0.3041 0.8532
vn -0.3611 0.3246 0.8742
vn -0.4218 0.3064 -0.8533
vn 0.3628 -0.3222 -0.8744
vt 0.000000 1.000000
vt 0.333333 1.000000
vt 0.333333 0.750000
vt 0.000000 0.750000
vt 0.000000 0.250000
vt 0.333333 0.250000
vt 0.333333 0.000000
vt 0.000000 0.000000
vt 0.000000 0.500000
vt 0.333333 0.500000
vt 0.666667 1.000000
vt 0.666667 0.750000
vt 0.666667 0.250000
vt 0.666667 0.000000
vt 0.666667 0.500000
vt 1.000000 1.000000
vt 1.000000 0.750000
vt 1.000000 0.250000
vt 1.000000 0.000000
vt 1.000000 0.500000
s 1
g Cloth_Seal_Loop.001_sr_aged_cloth
usemtl sr_aged_cloth
f 73/98/73 77/99/77 80/100/80 76/101/76
f 74/102/74 78/103/78 77/104/77 73/105/73
f 75/106/75 79/107/79 78/103/78 74/102/74
f 76/101/76 80/100/80 79/107/79 75/106/75
f 77/99/77 81/108/81 84/109/84 80/100/80
f 78/103/78 82/110/82 81/111/81 77/104/77
f 79/107/79 83/112/83 82/110/82 78/103/78
f 80/100/80 84/109/84 83/112/83 79/107/79
f 81/108/81 85/113/85 88/114/88 84/109/84
f 82/110/82 86/115/86 85/116/85 81/111/81
f 83/112/83 87/117/87 86/115/86 82/110/82
f 84/109/84 88/114/88 87/117/87 83/112/83
g Cloth_Seal_Loop.001_Cloth_Seal_Loop_curve.001
v 0.184475 0.688234 0.114337
v 0.139929 0.670000 0.121030
v 0.135525 0.651766 0.094463
v 0.180071 0.670000 0.087770
v 0.287440 0.477902 0.156739
v 0.238528 0.474881 0.160779
v 0.232560 0.462098 0.133261
v 0.281472 0.465119 0.129221
v 0.224187 0.230787 0.181865
v 0.180114 0.253225 0.183040
v 0.175813 0.249213 0.154535
v 0.219886 0.226775 0.153360
v 0.100569 0.075152 0.187986
v 0.061968 0.106113 0.188676
v 0.059431 0.104848 0.160014
v 0.098032 0.073887 0.159324
vn 0.5781 0.4278 0.6949
vn -0.3763 -0.0036 0.9265
vn -0.5756 -0.4360 -0.6918
vn 0.3779 -0.0023 -0.9259
vn 0.6527 0.1731 0.7376
vn -0.3079 0.1101 0.9450
vn -0.5401 -0.1762 -0.8229
vn 0.5060 -0.0791 -0.8589
vn 0.5295 -0.2046 0.8232
vn -0.3364 0.2373 0.9113
vn -0.4676 0.1748 -0.8665
vn 0.4519 -0.2870 -0.8446
vn 0.4234 -0.3046 0.8532
vn -0.3615 0.3247 0.8740
vn -0.4212 0.3072 -0.8534
vn 0.3625 -0.3221 -0.8746
vt 0.000000 1.000000
vt 0.333333 0.750000
vt 0.000000 0.750000
vt 0.333333 0.250000
vt 0.000000 0.000000
vt 0.000000 0.250000
vt 0.333333 0.500000
vt 0.000000 0.500000
vt 0.666667 1.000000
vt 0.333333 1.000000
vt 0.666667 0.000000
vt 0.333333 0.000000
vt 0.666667 0.250000
vt 0.666667 0.750000
vt 1.000000 1.000000
vt 1.000000 0.000000
vt 0.666667 0.500000
vt 1.000000 0.250000
vt 1.000000 0.750000
vt 1.000000 0.500000
s 1
g Cloth_Seal_Loop.001_sr_aged_cloth
usemtl sr_aged_cloth
f 89/118/89 96/119/96 92/120/92
f 94/121/94 89/122/89 90/123/90
f 95/124/95 90/123/90 91/125/91
f 92/120/92 95/124/95 91/125/91
f 97/126/97 96/119/96 93/127/93
f 94/121/94 97/128/97 93/129/93
f 95/124/95 98/130/98 94/121/94
f 100/131/100 95/124/95 96/119/96
f 101/132/101 100/131/100 97/126/97
f 98/130/98 101/133/101 97/128/97
f 99/134/99 102/135/102 98/130/98
f 104/136/104 99/134/99 100/131/100
f 89/118/89 93/127/93 96/119/96
f 94/121/94 93/129/93 89/122/89
f 95/124/95 94/121/94 90/123/90
f 92/120/92 96/119/96 95/124/95
f 97/126/97 100/131/100 96/119/96
f 94/121/94 98/130/98 97/128/97
f 95/124/95 99/134/99 98/130/98
f 100/131/100 99/134/99 95/124/95
f 101/132/101 104/136/104 100/131/100
f 98/130/98 102/135/102 101/133/101
f 99/134/99 103/137/103 102/135/102
f 104/136/104 103/137/103 99/134/99
g Heavy_Stopper.001_Heavy_Stopper_profile_mesh.001
v 0.000000 0.670000 0.000000
v 0.180000 0.670000 0.000000
v 0.170000 0.880000 0.000000
v 0.120000 0.940000 0.000000
v 0.000000 0.940000 0.000000
v 0.127279 0.670000 -0.073822
v 0.120208 0.880000 -0.069721
v 0.084853 0.940000 -0.049215
v -0.000000 0.670000 -0.104400
v -0.000000 0.880000 -0.098600
v -0.000000 0.940000 -0.069600
v -0.127279 0.670000 -0.073822
v -0.120208 0.880000 -0.069721
v -0.084853 0.940000 -0.049215
v -0.180000 0.670000 0.000000
v -0.170000 0.880000 0.000000
v -0.120000 0.940000 0.000000
v -0.127279 0.670000 0.073822
v -0.120208 0.880000 0.069721
v -0.084853 0.940000 0.049215
v 0.000000 0.670000 0.104400
v 0.000000 0.880000 0.098600
v 0.000000 0.940000 0.069600
v 0.127279 0.670000 0.073822
v 0.120208 0.880000 0.069721
v 0.084853 0.940000 0.049215
vn -0.0000 1.0000 -0.0000
vn -0.8132 -0.0387 0.5807
vn -0.2335 -0.0268 0.9720
vn 0.2335 -0.0268 0.9720
vn 0.8132 -0.0387 0.5807
vn 0.8132 -0.0387 -0.5807
vn 0.2335 -0.0268 -0.9720
vn -0.2335 -0.0268 -0.9720
vn -0.8132 -0.0387 -0.5807
vn -0.6735 -0.5613 0.4810
vn -0.2114 -0.4253 0.8800
vn 0.2114 -0.4253 0.8800
vn 0.6735 -0.5613 0.4810
vn 0.6735 -0.5613 -0.4810
vn 0.2114 -0.4253 -0.8800
vn -0.2114 -0.4253 -0.8800
vn -0.6735 -0.5613 -0.4810
vn -0.0000 -1.0000 -0.0000
vt 0.062500 0.000000
vt 0.000000 0.000000
vt 0.125000 0.000000
vt 0.187500 0.000000
vt 0.250000 0.000000
vt 0.312500 0.000000
vt 0.375000 0.000000
vt 0.437500 0.000000
vt 0.500000 0.000000
vt 0.562500 0.000000
vt 0.625000 0.000000
vt 0.687500 0.000000
vt 0.750000 0.000000
vt 0.812500 0.000000
vt 0.875000 0.000000
vt 0.937500 0.000000
vt 1.000000 0.000000
vt 0.000000 0.777778
vt 0.125000 0.777778
vt 0.375000 0.777778
vt 0.500000 0.777778
vt 0.625000 0.777778
vt 0.875000 0.777778
vt 0.125000 1.000000
vt 0.250000 0.777778
vt 0.250000 1.000000
vt 0.375000 1.000000
vt 0.500000 1.000000
vt 0.625000 1.000000
vt 0.750000 0.777778
vt 0.750000 1.000000
vt 0.875000 1.000000
vt 1.000000 0.777778
vt 0.000000 1.000000
vt 0.062500 1.000000
vt 0.187500 1.000000
vt 0.312500 1.000000
vt 0.437500 1.000000
vt 0.562500 1.000000
vt 0.687500 1.000000
vt 0.812500 1.000000
vt 0.937500 1.000000
vt 1.000000 1.000000
s 0
g Heavy_Stopper.001_sr_dark_wood
usemtl sr_dark_wood
f 105/138/105 106/139/105 110/140/105
f 105/141/105 110/140/105 113/142/105
f 105/143/105 113/142/105 116/144/105
f 105/145/105 116/144/105 119/146/105
f 105/147/105 119/146/105 122/148/105
f 105/149/105 122/148/105 125/150/105
f 105/151/105 125/150/105 128/152/105
f 105/153/105 128/152/105 106/154/105
f 107/155/106 110/140/106 106/139/106
f 111/156/107 113/142/107 110/140/107
f 113/142/108 117/157/108 116/144/108
f 117/157/109 119/146/109 116/144/109
f 120/158/110 122/148/110 119/146/110
f 123/159/111 125/150/111 122/148/111
f 125/150/112 129/160/112 128/152/112
f 129/160/113 106/154/113 128/152/113
f 107/155/114 112/161/114 111/156/114
f 112/161/115 114/162/115 111/156/115
f 115/163/116 117/157/116 114/162/116
f 118/164/117 120/158/117 117/157/117
f 121/165/118 123/159/118 120/158/118
f 124/166/119 126/167/119 123/159/119
f 127/168/120 129/160/120 126/167/120
f 130/169/121 107/170/121 129/160/121
f 108/171/122 109/172/122 112/161/122
f 112/161/122 109/173/122 115/163/122
f 115/163/122 109/174/122 118/164/122
f 118/164/122 109/175/122 121/165/122
f 121/165/122 109/176/122 124/166/122
f 124/166/122 109/177/122 127/168/122
f 127/168/122 109/178/122 130/169/122
f 130/169/122 109/179/122 108/180/122
f 107/155/106 111/156/106 110/140/106
f 111/156/107 114/162/107 113/142/107
f 113/142/108 114/162/108 117/157/108
f 117/157/109 120/158/109 119/146/109
f 120/158/110 123/159/110 122/148/110
f 123/159/111 126/167/111 125/150/111
f 125/150/112 126/167/112 129/160/112
f 129/160/113 107/170/113 106/154/113
f 107/155/114 108/171/114 112/161/114
f 112/161/115 115/163/115 114/162/115
f 115/163/116 118/164/116 117/157/116
f 118/164/117 121/165/117 120/158/117
f 121/165/118 124/166/118 123/159/118
f 124/166/119 127/168/119 126/167/119
f 127/168/120 130/169/120 129/160/120
f 130/169/121 108/180/121 107/170/121
g Left_Handle.001_Left_Handle_curve.001
v -0.452373 0.525521 0.000000
v -0.480000 0.490000 -0.026100
v -0.507627 0.454479 0.000000
v -0.480000 0.490000 0.026100
v -0.621721 0.653658 0.000000
v -0.660000 0.630000 -0.026100
v -0.698279 0.606342 0.000000
v -0.660000 0.630000 0.026100
v -0.660933 0.807666 0.000000
v -0.700000 0.830000 -0.026100
v -0.739067 0.852333 0.000000
v -0.700000 0.830000 0.026100
v -0.455217 0.867498 0.000000
v -0.470000 0.910000 -0.026100
v -0.484783 0.952502 0.000000
v -0.470000 0.910000 0.026100
vn 0.6089 0.7933 -0.0000
vn -0.0027 0.0025 -1.0000
vn -0.6187 -0.7857 -0.0000
vn -0.0027 0.0025 1.0000
vn 0.8466 0.5323 -0.0000
vn -0.0834 -0.0411 -0.9957
vn -0.8606 -0.5094 -0.0000
vn -0.0834 -0.0411 0.9957
vn 0.8708 -0.4916 -0.0000
vn -0.1416 0.0786 -0.9868
vn -0.8717 0.4900 -0.0000
vn -0.1416 0.0786 0.9868
vn 0.3056 -0.9522 -0.0000
vn -0.0135 -0.0073 -0.9999
vn -0.3487 0.9372 -0.0000
vn -0.0135 -0.0073 0.9999
vt 0.000000 1.000000
vt 0.333333 1.000000
vt 0.333333 0.750000
vt 0.000000 0.750000
vt 0.000000 0.250000
vt 0.333333 0.250000
vt 0.333333 0.000000
vt 0.000000 0.000000
vt 0.000000 0.500000
vt 0.333333 0.500000
vt 0.666667 1.000000
vt 0.666667 0.750000
vt 0.666667 0.250000
vt 0.666667 0.000000
vt 0.666667 0.500000
vt 1.000000 1.000000
vt 1.000000 0.750000
vt 1.000000 0.250000
vt 1.000000 0.000000
vt 1.000000 0.500000
s 1
g Left_Handle.001_sr_ritual_gold
usemtl sr_ritual_gold
f 131/181/123 135/182/127 138/183/130 134/184/126
f 132/185/124 136/186/128 135/187/127 131/188/123
f 133/189/125 137/190/129 136/186/128 132/185/124
f 134/184/126 138/183/130 137/190/129 133/189/125
f 135/182/127 139/191/131 142/192/134 138/183/130
f 136/186/128 140/193/132 139/194/131 135/187/127
f 137/190/129 141/195/133 140/193/132 136/186/128
f 138/183/130 142/192/134 141/195/133 137/190/129
f 139/191/131 143/196/135 146/197/138 142/192/134
f 140/193/132 144/198/136 143/199/135 139/194/131
f 141/195/133 145/200/137 144/198/136 140/193/132
f 142/192/134 146/197/138 145/200/137 141/195/133
g Left_Handle.001_Left_Handle_curve.001
v -0.452373 0.525521 0.000000
v -0.480000 0.490000 -0.026100
v -0.507627 0.454479 0.000000
v -0.480000 0.490000 0.026100
v -0.621721 0.653658 0.000000
v -0.660000 0.630000 -0.026100
v -0.698279 0.606342 0.000000
v -0.660000 0.630000 0.026100
v -0.660933 0.807666 0.000000
v -0.700000 0.830000 -0.026100
v -0.739067 0.852333 0.000000
v -0.700000 0.830000 0.026100
v -0.455217 0.867498 0.000000
v -0.470000 0.910000 -0.026100
v -0.484783 0.952502 0.000000
v -0.470000 0.910000 0.026100
vn 0.6034 0.7974 -0.0000
vn -0.0015 0.0033 -1.0000
vn -0.6155 -0.7881 -0.0000
vn -0.0015 0.0033 1.0000
vn 0.8335 0.5526 -0.0000
vn -0.0777 -0.0409 -0.9961
vn -0.8550 -0.5186 -0.0000
vn -0.0777 -0.0409 0.9961
vn 0.8685 -0.4956 -0.0000
vn -0.1514 0.0843 -0.9849
vn -0.8696 0.4937 -0.0000
vn -0.1514 0.0843 0.9849
vn 0.2793 -0.9602 -0.0000
vn -0.0099 -0.0103 -0.9999
vn -0.3347 0.9423 -0.0000
vn -0.0099 -0.0103 0.9999
vt 0.333333 1.000000
vt 0.000000 0.750000
vt 0.000000 1.000000
vt 0.000000 0.250000
vt 0.333333 0.000000
vt 0.000000 0.000000
vt 0.000000 0.500000
vt 0.333333 0.250000
vt 0.333333 0.750000
vt 0.666667 1.000000
vt 0.666667 0.000000
vt 0.333333 0.500000
vt 0.666667 0.250000
vt 0.666667 0.750000
vt 1.000000 0.750000
vt 1.000000 0.250000
vt 1.000000 0.500000
vt 0.666667 0.500000
vt 1.000000 1.000000
vt 1.000000 0.000000
s 1
g Left_Handle.001_sr_ritual_gold
usemtl sr_ritual_gold
f 151/201/143 150/202/142 147/203/139
f 148/204/140 151/205/143 147/206/139
f 149/207/141 152/208/144 148/204/140
f 154/209/146 149/207/141 150/202/142
f 155/210/147 154/209/146 151/201/143
f 152/208/144 155/211/147 151/205/143
f 153/212/145 156/213/148 152/208/144
f 158/214/150 153/212/145 154/209/146
f 155/210/147 162/215/154 158/214/150
f 160/216/152 155/211/147 156/213/148
f 161/217/153 156/213/148 157/218/149
f 158/214/150 161/217/153 157/218/149
f 151/201/143 154/209/146 150/202/142
f 148/204/140 152/208/144 151/205/143
f 149/207/141 153/212/145 152/208/144
f 154/209/146 153/212/145 149/207/141
f 155/210/147 158/214/150 154/209/146
f 152/208/144 156/213/148 155/211/147
f 153/212/145 157/218/149 156/213/148
f 158/214/150 157/218/149 153/212/145
f 155/210/147 159/219/151 162/215/154
f 160/216/152 159/220/151 155/211/147
f 161/217/153 160/216/152 156/213/148
f 158/214/150 162/215/154 161/217/153
g Lower_Harness.001_Lower_Harness_profile_mesh.001
v 0.587500 -0.542500 0.000000
v 0.632500 -0.542500 0.000000
v 0.632500 -0.457500 0.000000
v 0.587500 -0.457500 0.000000
v 0.475297 -0.542500 -0.200288
v 0.511703 -0.542500 -0.215629
v 0.511703 -0.457500 -0.215629
v 0.475297 -0.457500 -0.200288
v 0.181547 -0.542500 -0.324072
v 0.195453 -0.542500 -0.348895
v 0.195453 -0.457500 -0.348895
v 0.181547 -0.457500 -0.324072
v -0.181547 -0.542500 -0.324072
v -0.195453 -0.542500 -0.348895
v -0.195453 -0.457500 -0.348895
v -0.181547 -0.457500 -0.324072
v -0.475298 -0.542500 -0.200288
v -0.511703 -0.542500 -0.215629
v -0.511703 -0.457500 -0.215629
v -0.475298 -0.457500 -0.200288
v -0.587500 -0.542500 0.000000
v -0.632500 -0.542500 0.000000
v -0.632500 -0.457500 0.000000
v -0.587500 -0.457500 0.000000
v -0.475297 -0.542500 0.200288
v -0.511703 -0.542500 0.215629
v -0.511703 -0.457500 0.215629
v -0.475297 -0.457500 0.200288
v -0.181548 -0.542500 0.324072
v -0.195453 -0.542500 0.348895
v -0.195453 -0.457500 0.348895
v -0.181548 -0.457500 0.324072
v 0.181548 -0.542500 0.324072
v 0.195453 -0.542500 0.348895
v 0.195453 -0.457500 0.348895
v 0.181548 -0.457500 0.324072
v 0.475298 -0.542500 0.200288
v 0.511703 -0.542500 0.215629
v 0.511703 -0.457500 0.215629
v 0.475298 -0.457500 0.200288
vn -0.0000 1.0000 -0.0000
vn -0.8724 -0.0000 0.4887
vn -0.3883 -0.0000 0.9215
vn -0.0000 -0.0000 1.0000
vn 0.3883 -0.0000 0.9215
vn 0.8724 -0.0000 0.4887
vn 0.8724 -0.0000 -0.4887
vn 0.3883 -0.0000 -0.9215
vn -0.0000 -0.0000 -1.0000
vn -0.3883 -0.0000 -0.9215
vn -0.8724 -0.0000 -0.4887
vn -0.0000 -1.0000 -0.0000
vt 0.000000 0.000000
vt 0.100000 0.000000
vt 0.200000 0.000000
vt 0.300000 0.000000
vt 0.400000 0.000000
vt 0.500000 0.000000
vt 0.600000 0.000000
vt 0.700000 0.000000
vt 0.800000 0.000000
vt 0.900000 0.000000
vt 1.000000 0.000000
vt 0.000000 1.000000
vt 0.100000 1.000000
vt 0.200000 1.000000
vt 0.300000 1.000000
vt 0.400000 1.000000
vt 0.500000 1.000000
vt 0.600000 1.000000
vt 0.700000 1.000000
vt 0.800000 1.000000
vt 0.900000 1.000000
vt 1.000000 1.000000
s 0
g Lower_Harness.001_sr_ritual_gold
usemtl sr_ritual_gold
f 164/221/155 167/222/155 163/221/155
f 168/222/155 171/223/155 167/222/155
f 172/223/155 175/224/155 171/223/155
f 176/224/155 179/225/155 175/224/155
f 180/225/155 183/226/155 179/225/155
f 183/226/155 188/227/155 187/227/155
f 188/227/155 191/228/155 187/227/155
f 192/228/155 195/229/155 191/228/155
f 195/229/155 200/230/155 199/230/155
f 199/230/155 164/231/155 163/231/155
f 165/232/156 168/222/156 164/221/156
f 169/233/157 172/223/157 168/222/157
f 173/234/158 176/224/158 172/223/158
f 177/235/159 180/225/159 176/224/159
f 181/236/160 184/226/160 180/225/160
f 185/237/161 188/227/161 184/226/161
f 189/238/162 192/228/162 188/227/162
f 193/239/163 196/229/163 192/228/163
f 197/240/164 200/230/164 196/229/164
f 201/241/165 164/231/165 200/230/165
f 166/232/166 169/233/166 165/232/166
f 170/233/166 173/234/166 169/233/166
f 173/234/166 178/235/166 177/235/166
f 178/235/166 181/236/166 177/235/166
f 182/236/166 185/237/166 181/236/166
f 186/237/166 189/238/166 185/237/166
f 190/238/166 193/239/166 189/238/166
f 194/239/166 197/240/166 193/239/166
f 198/240/166 201/241/166 197/240/166
f 202/241/166 165/242/166 201/241/166
f 163/221/161 170/233/161 166/232/161
f 167/222/162 174/234/162 170/233/162
f 171/223/163 178/235/163 174/234/163
f 175/224/164 182/236/164 178/235/164
f 179/225/165 186/237/165 182/236/165
f 183/226/156 190/238/156 186/237/156
f 187/227/157 194/239/157 190/238/157
f 191/228/158 198/240/158 194/239/158
f 195/229/159 202/241/159 198/240/159
f 199/230/160 166/242/160 202/241/160
f 164/221/155 168/222/155 167/222/155
f 168/222/155 172/223/155 171/223/155
f 172/223/155 176/224/155 175/224/155
f 176/224/155 180/225/155 179/225/155
f 180/225/155 184/226/155 183/226/155
f 183/226/155 184/226/155 188/227/155
f 188/227/155 192/228/155 191/228/155
f 192/228/155 196/229/155 195/229/155
f 195/229/155 196/229/155 200/230/155
f 199/230/155 200/230/155 164/231/155
f 165/232/156 169/233/156 168/222/156
f 169/233/157 173/234/157 172/223/157
f 173/234/158 177/235/158 176/224/158
f 177/235/159 181/236/159 180/225/159
f 181/236/160 185/237/160 184/226/160
f 185/237/161 189/238/161 188/227/161
f 189/238/162 193/239/162 192/228/162
f 193/239/163 197/240/163 196/229/163
f 197/240/164 201/241/164 200/230/164
f 201/241/165 165/242/165 164/231/165
f 166/232/166 170/233/166 169/233/166
f 170/233/166 174/234/166 173/234/166
f 173/234/166 174/234/166 178/235/166
f 178/235/166 182/236/166 181/236/166
f 182/236/166 186/237/166 185/237/166
f 186/237/166 190/238/166 189/238/166
f 190/238/166 194/239/166 193/239/166
f 194/239/166 198/240/166 197/240/166
f 198/240/166 202/241/166 201/241/166
f 202/241/166 166/242/166 165/242/166
f 163/221/161 167/222/161 170/233/161
f 167/222/162 171/223/162 174/234/162
f 171/223/163 175/224/163 178/235/163
f 175/224/164 179/225/164 182/236/164
f 179/225/165 183/226/165 186/237/165
f 183/226/156 187/227/156 190/238/156
f 187/227/157 191/228/157 194/239/157
f 191/228/158 195/229/158 198/240/158
f 195/229/159 199/230/159 202/241/159
f 199/230/160 163/231/160 166/242/160
g Neck_Hardware.001_Neck_Hardware_profile_mesh.001
v 0.207500 0.590000 0.000000
v 0.262500 0.590000 0.000000
v 0.262500 0.690000 0.000000
v 0.207500 0.690000 0.000000
v 0.167871 0.590000 -0.070740
v 0.212367 0.590000 -0.089490
v 0.212367 0.690000 -0.089490
v 0.167871 0.690000 -0.070740
v 0.064121 0.590000 -0.114460
v 0.081117 0.590000 -0.144798
v 0.081117 0.690000 -0.144798
v 0.064121 0.690000 -0.114460
v -0.064121 0.590000 -0.114460
v -0.081117 0.590000 -0.144798
v -0.081117 0.690000 -0.144798
v -0.064121 0.690000 -0.114460
v -0.167871 0.590000 -0.070740
v -0.212367 0.590000 -0.089490
v -0.212367 0.690000 -0.089490
v -0.167871 0.690000 -0.070740
v -0.207500 0.590000 0.000000
v -0.262500 0.590000 0.000000
v -0.262500 0.690000 0.000000
v -0.207500 0.690000 0.000000
v -0.167871 0.590000 0.070740
v -0.212367 0.590000 0.089490
v -0.212367 0.690000 0.089490
v -0.167871 0.690000 0.070740
v -0.064121 0.590000 0.114460
v -0.081117 0.590000 0.144798
v -0.081117 0.690000 0.144798
v -0.064121 0.690000 0.114460
v 0.064121 0.590000 0.114460
v 0.081117 0.590000 0.144798
v 0.081117 0.690000 0.144798
v 0.064121 0.690000 0.114460
v 0.167871 0.590000 0.070740
v 0.212367 0.590000 0.089490
v 0.212367 0.690000 0.089490
v 0.167871 0.690000 0.070740
vn -0.0000 1.0000 -0.0000
vn -0.8724 -0.0000 0.4887
vn -0.3883 -0.0000 0.9215
vn -0.0000 -0.0000 1.0000
vn 0.3883 -0.0000 0.9215
vn 0.8724 -0.0000 0.4887
vn 0.8724 -0.0000 -0.4887
vn 0.3883 -0.0000 -0.9215
vn -0.0000 -0.0000 -1.0000
vn -0.3883 -0.0000 -0.9215
vn -0.8724 -0.0000 -0.4887
vn -0.0000 -1.0000 -0.0000
vt 0.000000 0.000000
vt 0.100000 0.000000
vt 0.200000 0.000000
vt 0.300000 0.000000
vt 0.400000 0.000000
vt 0.500000 0.000000
vt 0.600000 0.000000
vt 0.700000 0.000000
vt 0.800000 0.000000
vt 0.900000 0.000000
vt 1.000000 0.000000
vt 0.000000 1.000000
vt 0.100000 1.000000
vt 0.200000 1.000000
vt 0.300000 1.000000
vt 0.400000 1.000000
vt 0.500000 1.000000
vt 0.600000 1.000000
vt 0.700000 1.000000
vt 0.800000 1.000000
vt 0.900000 1.000000
vt 1.000000 1.000000
s 0
g Neck_Hardware.001_sr_ritual_gold
usemtl sr_ritual_gold
f 204/243/167 207/244/167 203/243/167
f 208/244/167 211/245/167 207/244/167
f 212/245/167 215/246/167 211/245/167
f 215/246/167 220/247/167 219/247/167
f 220/247/167 223/248/167 219/247/167
f 224/248/167 227/249/167 223/248/167
f 228/249/167 231/250/167 227/249/167
f 232/250/167 235/251/167 231/250/167
f 236/251/167 239/252/167 235/251/167
f 240/252/167 203/253/167 239/252/167
f 205/254/168 208/244/168 204/243/168
f 209/255/169 212/245/169 208/244/169
f 213/256/170 216/246/170 212/245/170
f 217/257/171 220/247/171 216/246/171
f 221/258/172 224/248/172 220/247/172
f 225/259/173 228/249/173 224/248/173
f 229/260/174 232/250/174 228/249/174
f 233/261/175 236/251/175 232/250/175
f 237/262/176 240/252/176 236/251/176
f 241/263/177 204/253/177 240/252/177
f 206/254/178 209/255/178 205/254/178
f 210/255/178 213/256/178 209/255/178
f 214/256/178 217/257/178 213/256/178
f 218/257/178 221/258/178 217/257/178
f 222/258/178 225/259/178 221/258/178
f 225/259/178 230/260/178 229/260/178
f 230/260/178 233/261/178 229/260/178
f 234/261/178 237/262/178 233/261/178
f 237/262/178 242/263/178 241/263/178
f 242/263/178 205/264/178 241/263/178
f 203/243/173 210/255/173 206/254/173
f 207/244/174 214/256/174 210/255/174
f 211/245/175 218/257/175 214/256/175
f 215/246/176 222/258/176 218/257/176
f 219/247/177 226/259/177 222/258/177
f 223/248/168 230/260/168 226/259/168
f 227/249/169 234/261/169 230/260/169
f 231/250/170 238/262/170 234/261/170
f 235/251/171 242/263/171 238/262/171
f 239/252/172 206/264/172 242/263/172
f 204/243/167 208/244/167 207/244/167
f 208/244/167 212/245/167 211/245/167
f 212/245/167 216/246/167 215/246/167
f 215/246/167 216/246/167 220/247/167
f 220/247/167 224/248/167 223/248/167
f 224/248/167 228/249/167 227/249/167
f 228/249/167 232/250/167 231/250/167
f 232/250/167 236/251/167 235/251/167
f 236/251/167 240/252/167 239/252/167
f 240/252/167 204/253/167 203/253/167
f 205/254/168 209/255/168 208/244/168
f 209/255/169 213/256/169 212/245/169
f 213/256/170 217/257/170 216/246/170
f 217/257/171 221/258/171 220/247/171
f 221/258/172 225/259/172 224/248/172
f 225/259/173 229/260/173 228/249/173
f 229/260/174 233/261/174 232/250/174
f 233/261/175 237/262/175 236/251/175
f 237/262/176 241/263/176 240/252/176
f 241/263/177 205/264/177 204/253/177
f 206/254/178 210/255/178 209/255/178
f 210/255/178 214/256/178 213/256/178
f 214/256/178 218/257/178 217/257/178
f 218/257/178 222/258/178 221/258/178
f 222/258/178 226/259/178 225/259/178
f 225/259/178 226/259/178 230/260/178
f 230/260/178 234/261/178 233/261/178
f 234/261/178 238/262/178 237/262/178
f 237/262/178 238/262/178 242/263/178
f 242/263/178 206/264/178 205/264/178
f 203/243/173 207/244/173 210/255/173
f 207/244/174 211/245/174 214/256/174
f 211/245/175 215/246/175 218/257/175
f 215/246/176 219/247/176 222/258/176
f 219/247/177 223/248/177 226/259/177
f 223/248/168 227/249/168 230/260/168
f 227/249/169 231/250/169 234/261/169
f 231/250/170 235/251/170 238/262/170
f 235/251/171 239/252/171 242/263/171
f 239/252/172 203/253/172 206/264/172
g Right_Handle.001_Right_Handle_curve.001
v 0.452373 0.525521 0.000000
v 0.480000 0.490000 0.026100
v 0.507627 0.454479 -0.000000
v 0.480000 0.490000 -0.026100
v 0.621721 0.653658 0.000000
v 0.660000 0.630000 0.026100
v 0.698279 0.606342 -0.000000
v 0.660000 0.630000 -0.026100
v 0.660933 0.807666 0.000000
v 0.700000 0.830000 0.026100
v 0.739067 0.852333 -0.000000
v 0.700000 0.830000 -0.026100
v 0.455217 0.867498 0.000000
v 0.470000 0.910000 0.026100
v 0.484783 0.952502 -0.000000
v 0.470000 0.910000 -0.026100
vn -0.6089 0.7933 -0.0000
vn 0.0027 0.0025 1.0000
vn 0.6187 -0.7857 -0.0000
vn 0.0027 0.0025 -1.0000
vn -0.8466 0.5323 -0.0000
vn 0.0834 -0.0411 0.9957
vn 0.8606 -0.5094 -0.0000
vn 0.0834 -0.0411 -0.9957
vn -0.8708 -0.4916 -0.0000
vn 0.1416 0.0786 0.9868
vn 0.8717 0.4900 -0.0000
vn 0.1416 0.0786 -0.9868
vn -0.3056 -0.9522 -0.0000
vn 0.0135 -0.0073 0.9999
vn 0.3487 0.9372 -0.0000
vn 0.0135 -0.0073 -0.9999
vt 0.000000 1.000000
vt 0.333333 1.000000
vt 0.333333 0.750000
vt 0.000000 0.750000
vt 0.000000 0.250000
vt 0.333333 0.250000
vt 0.333333 0.000000
vt 0.000000 0.000000
vt 0.000000 0.500000
vt 0.333333 0.500000
vt 0.666667 1.000000
vt 0.666667 0.750000
vt 0.666667 0.250000
vt 0.666667 0.000000
vt 0.666667 0.500000
vt 1.000000 1.000000
vt 1.000000 0.750000
vt 1.000000 0.250000
vt 1.000000 0.000000
vt 1.000000 0.500000
s 1
g Right_Handle.001_sr_ritual_gold
usemtl sr_ritual_gold
f 243/265/179 247/266/183 250/267/186 246/268/182
f 244/269/180 248/270/184 247/271/183 243/272/179
f 245/273/181 249/274/185 248/270/184 244/269/180
f 246/268/182 250/267/186 249/274/185 245/273/181
f 247/266/183 251/275/187 254/276/190 250/267/186
f 248/270/184 252/277/188 251/278/187 247/271/183
f 249/274/185 253/279/189 252/277/188 248/270/184
f 250/267/186 254/276/190 253/279/189 249/274/185
f 251/275/187 255/280/191 258/281/194 254/276/190
f 252/277/188 256/282/192 255/283/191 251/278/187
f 253/279/189 257/284/193 256/282/192 252/277/188
f 254/276/190 258/281/194 257/284/193 253/279/189
g Right_Handle.001_Right_Handle_curve.001
v 0.452373 0.525521 0.000000
v 0.480000 0.490000 0.026100
v 0.507627 0.454479 -0.000000
v 0.480000 0.490000 -0.026100
v 0.621721 0.653658 0.000000
v 0.660000 0.630000 0.026100
v 0.698279 0.606342 -0.000000
v 0.660000 0.630000 -0.026100
v 0.660933 0.807666 0.000000
v 0.700000 0.830000 0.026100
v 0.739067 0.852333 -0.000000
v 0.700000 0.830000 -0.026100
v 0.455217 0.867498 0.000000
v 0.470000 0.910000 0.026100
v 0.484783 0.952502 -0.000000
v 0.470000 0.910000 -0.026100
vn -0.6034 0.7974 -0.0000
vn 0.0015 0.0033 1.0000
vn 0.6155 -0.7881 -0.0000
vn 0.0015 0.0033 -1.0000
vn -0.8335 0.5526 -0.0000
vn 0.0777 -0.0409 0.9961
vn 0.8550 -0.5186 -0.0000
vn 0.0777 -0.0409 -0.9961
vn -0.8685 -0.4956 -0.0000
vn 0.1514 0.0843 0.9849
vn 0.8696 0.4937 -0.0000
vn 0.1514 0.0843 -0.9849
vn -0.2793 -0.9602 -0.0000
vn 0.0099 -0.0103 0.9999
vn 0.3347 0.9423 -0.0000
vn 0.0099 -0.0103 -0.9999
vt 0.333333 1.000000
vt 0.000000 0.750000
vt 0.000000 1.000000
vt 0.000000 0.250000
vt 0.333333 0.000000
vt 0.000000 0.000000
vt 0.000000 0.500000
vt 0.333333 0.250000
vt 0.333333 0.750000
vt 0.666667 1.000000
vt 0.666667 0.000000
vt 0.333333 0.500000
vt 0.666667 0.250000
vt 0.666667 0.750000
vt 1.000000 0.750000
vt 1.000000 0.250000
vt 1.000000 0.500000
vt 0.666667 0.500000
vt 1.000000 1.000000
vt 1.000000 0.000000
s 1
g Right_Handle.001_sr_ritual_gold
usemtl sr_ritual_gold
f 263/285/199 262/286/198 259/287/195
f 260/288/196 263/289/199 259/290/195
f 261/291/197 264/292/200 260/288/196
f 266/293/202 261/291/197 262/286/198
f 267/294/203 266/293/202 263/285/199
f 264/292/200 267/295/203 263/289/199
f 265/296/201 268/297/204 264/292/200
f 270/298/206 265/296/201 266/293/202
f 267/294/203 274/299/210 270/298/206
f 272/300/208 267/295/203 268/297/204
f 273/301/209 268/297/204 269/302/205
f 270/298/206 273/301/209 269/302/205
f 263/285/199 266/293/202 262/286/198
f 260/288/196 264/292/200 263/289/199
f 261/291/197 265/296/201 264/292/200
f 266/293/202 265/296/201 261/291/197
f 267/294/203 270/298/206 266/293/202
f 264/292/200 268/297/204 267/295/203
f 265/296/201 269/302/205 268/297/204
f 270/298/206 269/302/205 265/296/201
f 267/294/203 271/303/207 274/299/210
f 272/300/208 271/304/207 267/295/203
f 273/301/209 272/300/208 268/297/204
f 270/298/206 274/299/210 273/301/209
g Upper_Harness.001_Upper_Harness_profile_mesh.001
v 0.527500 0.337500 0.000000
v 0.572500 0.337500 0.000000
v 0.572500 0.422500 0.000000
v 0.527500 0.422500 0.000000
v 0.426756 0.337500 -0.179833
v 0.463162 0.337500 -0.195174
v 0.463162 0.422500 -0.195174
v 0.426756 0.422500 -0.179833
v 0.163006 0.337500 -0.290976
v 0.176912 0.337500 -0.315798
v 0.176912 0.422500 -0.315798
v 0.163006 0.422500 -0.290976
v -0.163006 0.337500 -0.290976
v -0.176912 0.337500 -0.315798
v -0.176912 0.422500 -0.315798
v -0.163006 0.422500 -0.290976
v -0.426756 0.337500 -0.179833
v -0.463162 0.337500 -0.195174
v -0.463162 0.422500 -0.195174
v -0.426756 0.422500 -0.179833
v -0.527500 0.337500 0.000000
v -0.572500 0.337500 0.000000
v -0.572500 0.422500 0.000000
v -0.527500 0.422500 0.000000
v -0.426756 0.337500 0.179833
v -0.463162 0.337500 0.195174
v -0.463162 0.422500 0.195174
v -0.426756 0.422500 0.179833
v -0.163007 0.337500 0.290976
v -0.176912 0.337500 0.315798
v -0.176912 0.422500 0.315798
v -0.163007 0.422500 0.290976
v 0.163007 0.337500 0.290976
v 0.176912 0.337500 0.315798
v 0.176912 0.422500 0.315798
v 0.163007 0.422500 0.290976
v 0.426757 0.337500 0.179833
v 0.463162 0.337500 0.195174
v 0.463162 0.422500 0.195174
v 0.426757 0.422500 0.179833
vn -0.0000 1.0000 -0.0000
vn -0.8724 -0.0000 0.4887
vn -0.3883 -0.0000 0.9215
vn -0.0000 -0.0000 1.0000
vn 0.3883 -0.0000 0.9215
vn 0.8724 -0.0000 0.4887
vn 0.8724 -0.0000 -0.4887
vn 0.3883 -0.0000 -0.9215
vn -0.0000 -0.0000 -1.0000
vn -0.3883 -0.0000 -0.9215
vn -0.8724 -0.0000 -0.4887
vn -0.0000 -1.0000 -0.0000
vt 0.000000 0.000000
vt 0.100000 0.000000
vt 0.200000 0.000000
vt 0.300000 0.000000
vt 0.400000 0.000000
vt 0.500000 0.000000
vt 0.600000 0.000000
vt 0.700000 0.000000
vt 0.800000 0.000000
vt 0.900000 0.000000
vt 1.000000 0.000000
vt 0.000000 1.000000
vt 0.100000 1.000000
vt 0.200000 1.000000
vt 0.300000 1.000000
vt 0.400000 1.000000
vt 0.500000 1.000000
vt 0.600000 1.000000
vt 0.700000 1.000000
vt 0.800000 1.000000
vt 0.900000 1.000000
vt 1.000000 1.000000
s 0
g Upper_Harness.001_sr_ritual_gold
usemtl sr_ritual_gold
f 276/305/211 279/306/211 275/305/211
f 279/306/211 284/307/211 283/307/211
f 284/307/211 287/308/211 283/307/211
f 288/308/211 291/309/211 287/308/211
f 292/309/211 295/310/211 291/309/211
f 296/310/211 299/311/211 295/310/211
f 299/311/211 304/312/211 303/312/211
f 304/312/211 307/313/211 303/312/211
f 307/313/211 312/314/211 311/314/211
f 312/314/211 275/315/211 311/314/211
f 277/316/212 280/306/212 276/305/212
f 281/317/213 284/307/213 280/306/213
f 285/318/214 288/308/214 284/307/214
f 289/319/215 292/309/215 288/308/215
f 293/320/216 296/310/216 292/309/216
f 297/321/217 300/311/217 296/310/217
f 301/322/218 304/312/218 300/311/218
f 305/323/219 308/313/219 304/312/219
f 309/324/220 312/314/220 308/313/220
f 313/325/221 276/315/221 312/314/221
f 278/316/222 281/317/222 277/316/222
f 282/317/222 285/318/222 281/317/222
f 286/318/222 289/319/222 285/318/222
f 290/319/222 293/320/222 289/319/222
f 294/320/222 297/321/222 293/320/222
f 298/321/222 301/322/222 297/321/222
f 302/322/222 305/323/222 301/322/222
f 306/323/222 309/324/222 305/323/222
f 310/324/222 313/325/222 309/324/222
f 314/325/222 277/326/222 313/325/222
f 275/305/217 282/317/217 278/316/217
f 279/306/218 286/318/218 282/317/218
f 283/307/219 290/319/219 286/318/219
f 287/308/220 294/320/220 290/319/220
f 291/309/221 298/321/221 294/320/221
f 295/310/212 302/322/212 298/321/212
f 299/311/213 306/323/213 302/322/213
f 303/312/214 310/324/214 306/323/214
f 307/313/215 314/325/215 310/324/215
f 311/314/216 278/326/216 314/325/216
f 276/305/211 280/306/211 279/306/211
f 279/306/211 280/306/211 284/307/211
f 284/307/211 288/308/211 287/308/211
f 288/308/211 292/309/211 291/309/211
f 292/309/211 296/310/211 295/310/211
f 296/310/211 300/311/211 299/311/211
f 299/311/211 300/311/211 304/312/211
f 304/312/211 308/313/211 307/313/211
f 307/313/211 308/313/211 312/314/211
f 312/314/211 276/315/211 275/315/211
f 277/316/212 281/317/212 280/306/212
f 281/317/213 285/318/213 284/307/213
f 285/318/214 289/319/214 288/308/214
f 289/319/215 293/320/215 292/309/215
f 293/320/216 297/321/216 296/310/216
f 297/321/217 301/322/217 300/311/217
f 301/322/218 305/323/218 304/312/218
f 305/323/219 309/324/219 308/313/219
f 309/324/220 313/325/220 312/314/220
f 313/325/221 277/326/221 276/315/221
f 278/316/222 282/317/222 281/317/222
f 282/317/222 286/318/222 285/318/222
f 286/318/222 290/319/222 289/319/222
f 290/319/222 294/320/222 293/320/222
f 294/320/222 298/321/222 297/321/222
f 298/321/222 302/322/222 301/322/222
f 302/322/222 306/323/222 305/323/222
f 306/323/222 310/324/222 309/324/222
f 310/324/222 314/325/222 313/325/222
f 314/325/222 278/326/222 277/326/222
f 275/305/217 279/306/217 282/317/217
f 279/306/218 283/307/218 286/318/218
f 283/307/219 287/308/219 290/319/219
f 287/308/220 291/309/220 294/320/220
f 291/309/221 295/310/221 298/321/221
f 295/310/212 299/311/212 302/322/212
f 299/311/213 303/312/213 306/323/213
f 303/312/214 307/313/214 310/324/214
f 307/313/215 311/314/215 314/325/215
f 311/314/216 275/315/216 278/326/216
