# Blender 5.0.1
# www.blender.org
mtllib mercury_crest.mtl
g Mercury_Cross.001_Mesh
v -0.280000 -0.796649 -0.000000
v -0.265000 -0.786508 0.013515
v -0.265000 -0.786508 -0.013515
v 0.280000 -0.796649 0.000000
v 0.265000 -0.786508 -0.013515
v 0.265000 -0.786508 0.013515
v -0.280000 -0.816736 -0.041712
v -0.265000 -0.799847 -0.041214
v -0.265000 -0.820980 -0.058066
v 0.280000 -0.816736 -0.041712
v 0.265000 -0.820980 -0.058066
v 0.265000 -0.799847 -0.041214
v -0.280000 -0.861872 -0.052014
v -0.265000 -0.850952 -0.064907
v -0.265000 -0.877304 -0.058893
v 0.280000 -0.861872 -0.052014
v 0.265000 -0.877304 -0.058893
v 0.265000 -0.850952 -0.064907
v -0.280000 -0.898068 -0.023148
v -0.265000 -0.901340 -0.039724
v -0.265000 -0.913068 -0.015372
v 0.280000 -0.898068 -0.023148
v 0.265000 -0.913068 -0.015372
v 0.265000 -0.901340 -0.039724
v -0.280000 -0.898068 0.023148
v -0.265000 -0.913068 0.015372
v -0.265000 -0.901340 0.039724
v 0.280000 -0.898068 0.023148
v 0.265000 -0.901340 0.039724
v 0.265000 -0.913068 0.015372
v -0.280000 -0.861872 0.052014
v -0.265000 -0.877304 0.058893
v -0.265000 -0.850952 0.064907
v 0.280000 -0.861872 0.052014
v 0.265000 -0.850952 0.064907
v 0.265000 -0.877304 0.058893
v -0.280000 -0.816736 0.041712
v -0.265000 -0.820980 0.058066
v -0.265000 -0.799847 0.041214
v 0.280000 -0.816736 0.041712
v 0.265000 -0.799847 0.041214
v 0.265000 -0.820980 0.058066
vn -0.5601 0.8285 -0.0000
vn 0.5601 0.8285 -0.0000
vn -0.5601 0.5165 -0.6477
vn 0.5601 0.5165 -0.6477
vn -0.5601 -0.1843 -0.8077
vn 0.5601 -0.1843 -0.8077
vn -0.5601 -0.7464 -0.3595
vn 0.5601 -0.7464 -0.3595
vn -0.5601 -0.7464 0.3595
vn 0.5601 -0.7464 0.3595
vn -0.5601 -0.1843 0.8077
vn 0.5601 -0.1843 0.8077
vn -0.5601 0.5165 0.6477
vn 0.5601 0.5165 0.6477
vn -0.7071 0.6371 -0.3068
vn 0.7071 0.6371 -0.3068
vn -0.0000 1.0000 -0.0000
vn -0.0000 0.6235 -0.7818
vn -0.7071 0.1573 -0.6894
vn 0.7071 0.1573 -0.6894
vn -0.0000 -0.2225 -0.9749
vn -0.7071 -0.4409 -0.5528
vn 0.7071 -0.4409 -0.5528
vn -0.0000 -0.9010 -0.4339
vn -0.7071 -0.7071 -0.0000
vn 0.7071 -0.7071 -0.0000
vn -0.0000 -0.9010 0.4339
vn -0.7071 -0.4409 0.5528
vn 0.7071 -0.4409 0.5528
vn -0.0000 -0.2225 0.9749
vn -0.7071 0.1573 0.6894
vn 0.7071 0.1573 0.6894
vn -0.0000 0.6235 0.7818
vn -0.7071 0.6371 0.3068
vn 0.7071 0.6371 0.3068
vn -1.0000 -0.0000 -0.0000
vn -0.0000 0.9010 -0.4339
vn -0.0000 0.9010 0.4339
vn 1.0000 -0.0000 -0.0000
vn -0.0000 0.2225 -0.9749
vn -0.0000 -0.6235 -0.7818
vn -0.0000 -1.0000 -0.0000
vn -0.0000 -0.6235 0.7818
vn -0.0000 0.2225 0.9749
vt 0.750000 0.432919
vt 0.703664 0.467686
vt 0.796336 0.467686
vt 0.250000 0.432919
vt 0.296336 0.467686
vt 0.203664 0.467686
vt 0.893012 0.364048
vt 0.891304 0.421952
vt 0.949083 0.349498
vt 0.393012 0.364048
vt 0.449083 0.349498
vt 0.391304 0.421952
vt 0.928332 0.209297
vt 0.972539 0.246734
vt 0.951918 0.156386
vt 0.428332 0.209297
vt 0.451917 0.156387
vt 0.472539 0.246734
vt 0.829365 0.085196
vt 0.886197 0.073976
vt 0.802703 0.033768
vt 0.329365 0.085196
vt 0.302704 0.033768
vt 0.386197 0.073976
vt 0.670635 0.085196
vt 0.697296 0.033768
vt 0.613803 0.073976
vt 0.170635 0.085196
vt 0.113803 0.073976
vt 0.197296 0.033768
vt 0.571668 0.209297
vt 0.548082 0.156387
vt 0.527461 0.246734
vt 0.071668 0.209297
vt 0.027461 0.246734
vt 0.048083 0.156386
vt 0.606988 0.364048
vt 0.550917 0.349498
vt 0.608696 0.421952
vt 0.106989 0.364048
vt 0.108696 0.421952
vt 0.050917 0.349498
vt 0.035277 0.986607
vt 0.000000 0.513393
vt 0.035277 0.513393
vt 0.821866 0.513393
vt 0.892420 0.986607
vt 0.821866 0.986607
vt 0.679009 0.513393
vt 0.749563 0.986607
vt 0.679009 0.986607
vt 0.536152 0.513393
vt 0.606706 0.986607
vt 0.536152 0.986607
vt 0.393294 0.513393
vt 0.463848 0.986607
vt 0.393294 0.986607
vt 0.250437 0.513393
vt 0.320991 0.986607
vt 0.250437 0.986607
vt 0.107580 0.513393
vt 0.178134 0.986607
vt 0.107580 0.986607
vt 0.964723 0.986607
vt 0.892420 0.513393
vt 0.964723 0.513393
vt 0.749563 0.513393
vt 0.606706 0.513393
vt 0.463848 0.513393
vt 0.320991 0.513393
vt 0.178134 0.513393
vt 0.000000 0.986607
s 0
g Mercury_Cross.001_MAT_BrightGold
usemtl MAT_BrightGold
f 1/1/1 2/2/1 3/3/1
f 4/4/2 5/5/2 6/6/2
f 7/7/3 8/8/3 9/9/3
f 10/10/4 11/11/4 12/12/4
f 13/13/5 14/14/5 15/15/5
f 16/16/6 17/17/6 18/18/6
f 19/19/7 20/20/7 21/21/7
f 22/22/8 23/23/8 24/24/8
f 25/25/9 26/26/9 27/27/9
f 28/28/10 29/29/10 30/30/10
f 31/31/11 32/32/11 33/33/11
f 34/34/12 35/35/12 36/36/12
f 37/37/13 38/38/13 39/39/13
f 40/40/14 41/41/14 42/42/14
f 8/8/15 1/1/15 3/3/15
f 5/5/16 10/10/16 12/12/16
f 6/43/17 3/44/17 2/45/17
f 9/46/18 12/47/18 11/48/18
f 14/14/19 7/7/19 9/9/19
f 11/11/20 16/16/20 18/18/20
f 15/49/21 18/50/21 17/51/21
f 20/20/22 13/13/22 15/15/22
f 17/17/23 22/22/23 24/24/23
f 21/52/24 24/53/24 23/54/24
f 21/21/25 25/25/25 19/19/25
f 30/30/26 22/22/26 28/28/26
f 27/55/27 30/56/27 29/57/27
f 32/32/28 25/25/28 27/27/28
f 29/29/29 34/34/29 36/36/29
f 33/58/30 36/59/30 35/60/30
f 38/38/31 31/31/31 33/33/31
f 35/35/32 40/40/32 42/42/32
f 39/61/33 42/62/33 41/63/33
f 2/2/34 37/37/34 39/39/34
f 41/41/35 4/4/35 6/6/35
f 7/7/36 19/19/36 31/31/36
f 5/64/37 8/65/37 3/66/37
f 41/63/38 2/45/38 39/61/38
f 4/4/39 34/34/39 22/22/39
f 9/46/40 18/50/40 14/67/40
f 17/51/41 20/68/41 15/49/41
f 23/54/42 26/69/42 21/52/42
f 29/57/43 32/70/43 27/55/43
f 35/60/44 38/71/44 33/58/44
f 8/8/15 7/7/15 1/1/15
f 5/5/16 4/4/16 10/10/16
f 6/43/17 5/72/17 3/44/17
f 9/46/18 8/65/18 12/47/18
f 14/14/19 13/13/19 7/7/19
f 11/11/20 10/10/20 16/16/20
f 15/49/21 14/67/21 18/50/21
f 20/20/22 19/19/22 13/13/22
f 17/17/23 16/16/23 22/22/23
f 21/52/24 20/68/24 24/53/24
f 21/21/25 26/26/25 25/25/25
f 30/30/26 23/23/26 22/22/26
f 27/55/27 26/69/27 30/56/27
f 32/32/28 31/31/28 25/25/28
f 29/29/29 28/28/29 34/34/29
f 33/58/30 32/70/30 36/59/30
f 38/38/31 37/37/31 31/31/31
f 35/35/32 34/34/32 40/40/32
f 39/61/33 38/71/33 42/62/33
f 2/2/34 1/1/34 37/37/34
f 41/41/35 40/40/35 4/4/35
f 37/37/36 1/1/36 7/7/36
f 7/7/36 13/13/36 19/19/36
f 19/19/36 25/25/36 31/31/36
f 31/31/36 37/37/36 7/7/36
f 5/64/37 12/47/37 8/65/37
f 41/63/38 6/43/38 2/45/38
f 16/16/39 10/10/39 4/4/39
f 4/4/39 40/40/39 34/34/39
f 34/34/39 28/28/39 22/22/39
f 22/22/39 16/16/39 4/4/39
f 9/46/40 11/48/40 18/50/40
f 17/51/41 24/53/41 20/68/41
f 23/54/42 30/56/42 26/69/42
f 29/57/43 36/59/43 32/70/43
f 35/60/44 42/62/44 38/71/44
g Mercury_Disc.001_Mesh
v 0.000000 0.639383 -0.090000
v 0.000000 0.680000 -0.050000
v 0.000000 0.639383 0.090000
v 0.000000 0.680000 0.050000
v 0.218682 0.600823 -0.090000
v 0.232574 0.638991 -0.050000
v 0.218682 0.600823 0.090000
v 0.232574 0.638991 0.050000
v 0.410987 0.489796 -0.090000
v 0.437096 0.520910 -0.050000
v 0.410987 0.489796 0.090000
v 0.437096 0.520910 0.050000
v 0.553722 0.319691 -0.090000
v 0.588897 0.340000 -0.050000
v 0.553722 0.319691 0.090000
v 0.588897 0.340000 0.050000
v 0.629669 0.111028 -0.090000
v 0.669669 0.118081 -0.050000
v 0.629669 0.111028 0.090000
v 0.669669 0.118081 0.050000
v 0.629669 -0.111028 -0.090000
v 0.669669 -0.118081 -0.050000
v 0.629669 -0.111028 0.090000
v 0.669669 -0.118081 0.050000
v 0.553722 -0.319691 -0.090000
v 0.588897 -0.340000 -0.050000
v 0.553722 -0.319691 0.090000
v 0.588897 -0.340000 0.050000
v 0.410987 -0.489796 -0.090000
v 0.437096 -0.520910 -0.050000
v 0.410987 -0.489796 0.090000
v 0.437096 -0.520910 0.050000
v 0.218682 -0.600823 -0.090000
v 0.232574 -0.638991 -0.050000
v 0.218682 -0.600823 0.090000
v 0.232574 -0.638991 0.050000
v 0.000000 -0.639383 -0.090000
v 0.000000 -0.680000 -0.050000
v 0.000000 -0.639383 0.090000
v 0.000000 -0.680000 0.050000
v -0.218682 -0.600823 -0.090000
v -0.232574 -0.638991 -0.050000
v -0.218682 -0.600823 0.090000
v -0.232574 -0.638991 0.050000
v -0.410987 -0.489796 -0.090000
v -0.437096 -0.520910 -0.050000
v -0.410987 -0.489796 0.090000
v -0.437096 -0.520910 0.050000
v -0.553722 -0.319691 -0.090000
v -0.588897 -0.340000 -0.050000
v -0.553722 -0.319691 0.090000
v -0.588897 -0.340000 0.050000
v -0.629669 -0.111028 -0.090000
v -0.669669 -0.118081 -0.050000
v -0.629669 -0.111028 0.090000
v -0.669669 -0.118081 0.050000
v -0.629669 0.111028 -0.090000
v -0.669669 0.118081 -0.050000
v -0.629669 0.111028 0.090000
v -0.669669 0.118081 0.050000
v -0.553722 0.319691 -0.090000
v -0.588897 0.340000 -0.050000
v -0.553722 0.319691 0.090000
v -0.588897 0.340000 0.050000
v -0.410987 0.489796 -0.090000
v -0.437096 0.520910 -0.050000
v -0.410987 0.489796 0.090000
v -0.437096 0.520910 0.050000
v -0.218682 0.600823 -0.090000
v -0.232574 0.638991 -0.050000
v -0.218682 0.600823 0.090000
v -0.232574 0.638991 0.050000
vn 0.1228 0.6964 -0.7071
vn 0.1228 0.6964 0.7071
vn 0.3536 0.6124 -0.7071
vn 0.3536 0.6124 0.7071
vn 0.5417 0.4545 -0.7071
vn 0.5417 0.4545 0.7071
vn 0.6645 0.2418 -0.7071
vn 0.6645 0.2418 0.7071
vn 0.7071 -0.0000 -0.7071
vn 0.7071 -0.0000 0.7071
vn 0.6645 -0.2418 -0.7071
vn 0.6645 -0.2418 0.7071
vn 0.5417 -0.4545 -0.7071
vn 0.5417 -0.4545 0.7071
vn 0.3536 -0.6124 -0.7071
vn 0.3536 -0.6124 0.7071
vn 0.1228 -0.6964 -0.7071
vn 0.1228 -0.6964 0.7071
vn -0.1228 -0.6964 -0.7071
vn -0.1228 -0.6964 0.7071
vn -0.3536 -0.6124 -0.7071
vn -0.3536 -0.6124 0.7071
vn -0.5417 -0.4545 -0.7071
vn -0.5417 -0.4545 0.7071
vn -0.6645 -0.2418 -0.7071
vn -0.6645 -0.2418 0.7071
vn -0.7071 -0.0000 -0.7071
vn -0.7071 -0.0000 0.7071
vn -0.6645 0.2418 -0.7071
vn -0.6645 0.2418 0.7071
vn -0.5417 0.4545 -0.7071
vn -0.5417 0.4545 0.7071
vn -0.3536 0.6124 -0.7071
vn -0.3536 0.6124 0.7071
vn -0.1228 0.6964 -0.7071
vn -0.1228 0.6964 0.7071
vn -0.0000 -0.0000 -1.0000
vn 0.1736 0.9848 -0.0000
vn -0.1736 0.9848 -0.0000
vn -0.0000 -0.0000 1.0000
vn 0.5000 0.8660 -0.0000
vn 0.7660 0.6428 -0.0000
vn 0.9397 0.3420 -0.0000
vn 1.0000 -0.0000 -0.0000
vn 0.9397 -0.3420 -0.0000
vn 0.7660 -0.6428 -0.0000
vn 0.5000 -0.8660 -0.0000
vn 0.1736 -0.9848 -0.0000
vn -0.1736 -0.9848 -0.0000
vn -0.5000 -0.8660 -0.0000
vn -0.7660 -0.6428 -0.0000
vn -0.9397 -0.3420 -0.0000
vn -1.0000 -0.0000 -0.0000
vn -0.9397 0.3420 -0.0000
vn -0.7660 0.6428 -0.0000
vn -0.5000 0.8660 -0.0000
vt 0.750000 0.490000
vt 0.827182 0.462055
vt 0.750000 0.475665
vt 0.250000 0.490000
vt 0.327182 0.462055
vt 0.332085 0.475526
vt 0.904269 0.433851
vt 0.832085 0.475526
vt 0.395054 0.422869
vt 0.404269 0.433851
vt 0.957846 0.370000
vt 0.895055 0.422869
vt 0.457846 0.370000
vt 0.445431 0.362832
vt 0.986354 0.291676
vt 0.945431 0.362832
vt 0.472236 0.289186
vt 0.486354 0.291676
vt 0.986354 0.208324
vt 0.972236 0.289186
vt 0.472236 0.210814
vt 0.486354 0.208324
vt 0.957846 0.130000
vt 0.972236 0.210814
vt 0.445431 0.137168
vt 0.457846 0.130000
vt 0.895055 0.077131
vt 0.945431 0.137168
vt 0.395054 0.077131
vt 0.404269 0.066149
vt 0.832085 0.024474
vt 0.904269 0.066149
vt 0.327182 0.037945
vt 0.332085 0.024474
vt 0.750000 0.010000
vt 0.827182 0.037945
vt 0.250000 0.010000
vt 0.250000 0.024335
vt 0.672818 0.037945
vt 0.750000 0.024335
vt 0.172818 0.037945
vt 0.167915 0.024474
vt 0.595731 0.066149
vt 0.667915 0.024474
vt 0.104946 0.077131
vt 0.095731 0.066149
vt 0.542154 0.130000
vt 0.604946 0.077131
vt 0.042154 0.130000
vt 0.054569 0.137168
vt 0.513646 0.208324
vt 0.554569 0.137168
vt 0.027764 0.210814
vt 0.013646 0.208324
vt 0.513646 0.291676
vt 0.527764 0.210814
vt 0.027764 0.289186
vt 0.013646 0.291676
vt 0.542154 0.370000
vt 0.527764 0.289186
vt 0.054569 0.362832
vt 0.042154 0.370000
vt 0.604946 0.422869
vt 0.554569 0.362832
vt 0.104946 0.422869
vt 0.095731 0.433851
vt 0.667915 0.475526
vt 0.595731 0.433851
vt 0.172818 0.462055
vt 0.167915 0.475526
vt 0.672818 0.462055
vt 0.250000 0.475665
vt 1.000000 0.888889
vt 0.944444 0.611111
vt 1.000000 0.611111
vt 0.055555 0.888889
vt -0.000000 0.611111
vt 0.055555 0.611111
vt 0.944444 0.888889
vt 0.888889 0.611111
vt 0.888889 0.888889
vt 0.833333 0.611111
vt 0.833333 0.888889
vt 0.777778 0.611111
vt 0.777778 0.888889
vt 0.722222 0.611111
vt 0.722222 0.888889
vt 0.666667 0.611111
vt 0.666667 0.888889
vt 0.611111 0.611111
vt 0.611111 0.888889
vt 0.555555 0.611111
vt 0.555555 0.888889
vt 0.500000 0.611111
vt 0.500000 0.888889
vt 0.444444 0.611111
vt 0.444444 0.888889
vt 0.388889 0.611111
vt 0.388889 0.888889
vt 0.333333 0.611111
vt 0.333333 0.888889
vt 0.277778 0.611111
vt 0.277778 0.888889
vt 0.222222 0.611111
vt 0.222222 0.888889
vt 0.166666 0.611111
vt 0.166666 0.888889
vt 0.111111 0.611111
vt 0.111111 0.888889
vt -0.000000 0.888889
s 0
g Mercury_Disc.001_MAT_Sapphire
usemtl MAT_Sapphire
f 44/73/45 47/74/45 43/75/45
f 46/76/46 49/77/46 50/78/46
f 52/79/47 47/74/47 48/80/47
f 50/78/48 53/81/48 54/82/48
f 56/83/49 51/84/49 52/79/49
f 58/85/50 53/81/50 57/86/50
f 60/87/51 55/88/51 56/83/51
f 58/85/52 61/89/52 62/90/52
f 64/91/53 59/92/53 60/87/53
f 62/90/54 65/93/54 66/94/54
f 68/95/55 63/96/55 64/91/55
f 66/94/56 69/97/56 70/98/56
f 68/95/57 71/99/57 67/100/57
f 70/98/58 73/101/58 74/102/58
f 76/103/59 71/99/59 72/104/59
f 74/102/60 77/105/60 78/106/60
f 80/107/61 75/108/61 76/103/61
f 82/109/62 77/105/62 81/110/62
f 80/107/63 83/111/63 79/112/63
f 82/109/64 85/113/64 86/114/64
f 88/115/65 83/111/65 84/116/65
f 86/114/66 89/117/66 90/118/66
f 92/119/67 87/120/67 88/115/67
f 94/121/68 89/117/68 93/122/68
f 96/123/69 91/124/69 92/119/69
f 94/121/70 97/125/70 98/126/70
f 100/127/71 95/128/71 96/123/71
f 98/126/72 101/129/72 102/130/72
f 104/131/73 99/132/73 100/127/73
f 102/130/74 105/133/74 106/134/74
f 104/131/75 107/135/75 103/136/75
f 106/134/76 109/137/76 110/138/76
f 112/139/77 107/135/77 108/140/77
f 110/138/78 113/141/78 114/142/78
f 44/73/79 111/143/79 112/139/79
f 46/76/80 113/141/80 45/144/80
f 55/88/81 87/120/81 103/136/81
f 46/145/82 48/146/82 44/147/82
f 114/148/83 44/149/83 112/150/83
f 109/137/84 77/105/84 61/89/84
f 50/151/85 52/152/85 48/146/85
f 54/153/86 56/154/86 52/152/86
f 58/155/87 60/156/87 56/154/87
f 62/157/88 64/158/88 60/156/88
f 66/159/89 68/160/89 64/158/89
f 70/161/90 72/162/90 68/160/90
f 74/163/91 76/164/91 72/162/91
f 78/165/92 80/166/92 76/164/92
f 82/167/93 84/168/93 80/166/93
f 86/169/94 88/170/94 84/168/94
f 90/171/95 92/172/95 88/170/95
f 94/173/96 96/174/96 92/172/96
f 98/175/97 100/176/97 96/174/97
f 102/177/98 104/178/98 100/176/98
f 106/179/99 108/180/99 104/178/99
f 110/181/100 112/150/100 108/180/100
f 44/73/45 48/80/45 47/74/45
f 46/76/46 45/144/46 49/77/46
f 52/79/47 51/84/47 47/74/47
f 50/78/48 49/77/48 53/81/48
f 56/83/49 55/88/49 51/84/49
f 58/85/50 54/82/50 53/81/50
f 60/87/51 59/92/51 55/88/51
f 58/85/52 57/86/52 61/89/52
f 64/91/53 63/96/53 59/92/53
f 62/90/54 61/89/54 65/93/54
f 68/95/55 67/100/55 63/96/55
f 66/94/56 65/93/56 69/97/56
f 68/95/57 72/104/57 71/99/57
f 70/98/58 69/97/58 73/101/58
f 76/103/59 75/108/59 71/99/59
f 74/102/60 73/101/60 77/105/60
f 80/107/61 79/112/61 75/108/61
f 82/109/62 78/106/62 77/105/62
f 80/107/63 84/116/63 83/111/63
f 82/109/64 81/110/64 85/113/64
f 88/115/65 87/120/65 83/111/65
f 86/114/66 85/113/66 89/117/66
f 92/119/67 91/124/67 87/120/67
f 94/121/68 90/118/68 89/117/68
f 96/123/69 95/128/69 91/124/69
f 94/121/70 93/122/70 97/125/70
f 100/127/71 99/132/71 95/128/71
f 98/126/72 97/125/72 101/129/72
f 104/131/73 103/136/73 99/132/73
f 102/130/74 101/129/74 105/133/74
f 104/131/75 108/140/75 107/135/75
f 106/134/76 105/133/76 109/137/76
f 112/139/77 111/143/77 107/135/77
f 110/138/78 109/137/78 113/141/78
f 44/73/79 43/75/79 111/143/79
f 46/76/80 114/142/80 113/141/80
f 111/143/81 43/75/81 47/74/81
f 47/74/81 51/84/81 55/88/81
f 55/88/81 59/92/81 63/96/81
f 63/96/81 67/100/81 71/99/81
f 71/99/81 75/108/81 79/112/81
f 79/112/81 83/111/81 87/120/81
f 87/120/81 91/124/81 95/128/81
f 95/128/81 99/132/81 103/136/81
f 103/136/81 107/135/81 111/143/81
f 111/143/81 47/74/81 55/88/81
f 55/88/81 63/96/81 71/99/81
f 71/99/81 79/112/81 87/120/81
f 87/120/81 95/128/81 103/136/81
f 103/136/81 111/143/81 55/88/81
f 55/88/81 71/99/81 87/120/81
f 46/145/82 50/151/82 48/146/82
f 114/148/83 46/182/83 44/149/83
f 53/81/84 49/77/84 45/144/84
f 45/144/84 113/141/84 109/137/84
f 109/137/84 105/133/84 101/129/84
f 101/129/84 97/125/84 93/122/84
f 93/122/84 89/117/84 85/113/84
f 85/113/84 81/110/84 77/105/84
f 77/105/84 73/101/84 69/97/84
f 69/97/84 65/93/84 61/89/84
f 61/89/84 57/86/84 53/81/84
f 53/81/84 45/144/84 109/137/84
f 109/137/84 101/129/84 93/122/84
f 93/122/84 85/113/84 77/105/84
f 77/105/84 69/97/84 61/89/84
f 61/89/84 53/81/84 109/137/84
f 109/137/84 93/122/84 77/105/84
f 50/151/85 54/153/85 52/152/85
f 54/153/86 58/155/86 56/154/86
f 58/155/87 62/157/87 60/156/87
f 62/157/88 66/159/88 64/158/88
f 66/159/89 70/161/89 68/160/89
f 70/161/90 74/163/90 72/162/90
f 74/163/91 78/165/91 76/164/91
f 78/165/92 82/167/92 80/166/92
f 82/167/93 86/169/93 84/168/93
f 86/169/94 90/171/94 88/170/94
f 90/171/95 94/173/95 92/172/95
f 94/173/96 98/175/96 96/174/96
f 98/175/97 102/177/97 100/176/97
f 102/177/98 106/179/98 104/178/98
f 106/179/99 110/181/99 108/180/99
f 110/181/100 114/148/100 112/150/100
g Mercury_Horns.001_Mesh
v 0.530000 0.550000 0.000000
v 0.460000 0.550000 0.070000
v 0.390000 0.550000 0.000000
v 0.460000 0.550000 -0.070000
v 0.489656 0.752822 -0.000000
v 0.424985 0.726035 0.070000
v 0.360313 0.699247 -0.000000
v 0.424985 0.726035 -0.070000
v 0.374767 0.924767 -0.000000
v 0.325269 0.875269 0.070000
v 0.275772 0.825772 -0.000000
v 0.325269 0.875269 -0.070000
v 0.202822 1.039656 -0.000000
v 0.176034 0.974985 0.070000
v 0.149247 0.910313 -0.000000
v 0.176034 0.974985 -0.070000
v 0.000000 1.080000 -0.000000
v 0.000000 1.010000 0.070000
v 0.000000 0.940000 -0.000000
v 0.000000 1.010000 -0.070000
v -0.202822 1.039656 -0.000000
v -0.176034 0.974985 0.070000
v -0.149247 0.910313 -0.000000
v -0.176034 0.974985 -0.070000
v -0.374767 0.924767 -0.000000
v -0.325269 0.875269 0.070000
v -0.275772 0.825772 -0.000000
v -0.325269 0.875269 -0.070000
v -0.489656 0.752822 -0.000000
v -0.424985 0.726035 0.070000
v -0.360313 0.699247 -0.000000
v -0.424985 0.726035 -0.070000
v -0.530000 0.550000 -0.000000
v -0.460000 0.550000 0.070000
v -0.390000 0.550000 -0.000000
v -0.460000 0.550000 -0.070000
v -0.489656 0.347178 0.000000
v -0.424985 0.373966 0.070000
v -0.360313 0.400754 0.000000
v -0.424985 0.373966 -0.070000
v -0.374767 0.175234 0.000000
v -0.325269 0.224731 0.070000
v -0.275772 0.274229 0.000000
v -0.325269 0.224731 -0.070000
v -0.202822 0.060344 0.000000
v -0.176034 0.125016 0.070000
v -0.149247 0.189687 0.000000
v -0.176034 0.125016 -0.070000
v 0.000000 0.020000 0.000000
v 0.000000 0.090000 0.070000
v 0.000000 0.160000 0.000000
v 0.000000 0.090000 -0.070000
v 0.202822 0.060344 0.000000
v 0.176034 0.125016 0.070000
v 0.149247 0.189687 0.000000
v 0.176034 0.125016 -0.070000
v 0.374766 0.175233 0.000000
v 0.325269 0.224731 0.070000
v 0.275771 0.274228 0.000000
v 0.325269 0.224731 -0.070000
v 0.489656 0.347178 0.000000
v 0.424985 0.373966 0.070000
v 0.360313 0.400753 0.000000
v 0.424985 0.373966 -0.070000
vn 0.7002 0.1393 0.7002
vn -0.7002 -0.1393 0.7002
vn -0.7002 -0.1393 -0.7002
vn 0.7002 0.1393 -0.7002
vn 0.5936 0.3966 0.7002
vn -0.5936 -0.3966 0.7002
vn -0.5936 -0.3966 -0.7002
vn 0.5936 0.3966 -0.7002
vn 0.3966 0.5936 0.7002
vn -0.3966 -0.5936 0.7002
vn -0.3966 -0.5936 -0.7002
vn 0.3966 0.5936 -0.7002
vn 0.1393 0.7002 0.7002
vn -0.1393 -0.7002 0.7002
vn -0.1393 -0.7002 -0.7002
vn 0.1393 0.7002 -0.7002
vn -0.1393 0.7002 0.7002
vn 0.1393 -0.7002 0.7002
vn 0.1393 -0.7002 -0.7002
vn -0.1393 0.7002 -0.7002
vn -0.3966 0.5936 0.7002
vn 0.3966 -0.5936 0.7002
vn 0.3966 -0.5936 -0.7002
vn -0.3966 0.5936 -0.7002
vn -0.5936 0.3966 0.7002
vn 0.5936 -0.3966 0.7002
vn 0.5936 -0.3966 -0.7002
vn -0.5936 0.3966 -0.7002
vn -0.7002 0.1393 0.7002
vn 0.7002 -0.1393 0.7002
vn 0.7002 -0.1393 -0.7002
vn -0.7002 0.1393 -0.7002
vt 0.562500 0.500000
vt 0.500000 0.750000
vt 0.500000 0.500000
vt 0.562500 1.000000
vt 0.500000 1.000000
vt 0.562500 0.000000
vt 0.500000 0.250000
vt 0.500000 0.000000
vt 0.625000 0.500000
vt 0.562500 0.750000
vt 0.625000 0.750000
vt 0.625000 0.000000
vt 0.562500 0.250000
vt 0.687500 0.500000
vt 0.687500 0.750000
vt 0.625000 1.000000
vt 0.687500 0.000000
vt 0.625000 0.250000
vt 0.687500 0.250000
vt 0.750000 0.500000
vt 0.750000 0.750000
vt 0.687500 1.000000
vt 0.750000 0.000000
vt 0.750000 0.250000
vt 0.812500 0.500000
vt 0.812500 0.750000
vt 0.750000 1.000000
vt 0.812500 0.250000
vt 0.875000 0.500000
vt 0.875000 0.750000
vt 0.812500 1.000000
vt 0.875000 0.000000
vt 0.812500 0.000000
vt 0.875000 0.250000
vt 0.937500 0.500000
vt 0.937500 0.750000
vt 0.875000 1.000000
vt 0.937500 0.000000
vt 1.000000 0.500000
vt 1.000000 1.000000
vt 0.937500 1.000000
vt 1.000000 0.000000
vt 0.937500 0.250000
vt 0.062500 0.500000
vt 0.000000 0.750000
vt 0.000000 0.500000
vt 0.062500 0.750000
vt 0.000000 1.000000
vt 0.000000 0.000000
vt 0.062500 0.250000
vt 0.000000 0.250000
vt 0.125000 0.500000
vt 0.125000 0.750000
vt 0.062500 1.000000
vt 0.125000 0.000000
vt 0.062500 0.000000
vt 0.125000 0.250000
vt 0.187500 0.500000
vt 0.187500 0.750000
vt 0.125000 1.000000
vt 0.187500 0.000000
vt 0.187500 0.250000
vt 0.250000 0.750000
vt 0.187500 1.000000
vt 0.250000 0.000000
vt 0.250000 0.250000
vt 0.250000 0.500000
vt 0.312500 0.750000
vt 0.312500 1.000000
vt 0.250000 1.000000
vt 0.312500 0.000000
vt 0.312500 0.250000
vt 0.375000 0.500000
vt 0.312500 0.500000
vt 0.375000 1.000000
vt 0.375000 0.000000
vt 0.437500 0.500000
vt 0.375000 0.750000
vt 0.437500 1.000000
vt 0.437500 0.250000
vt 0.375000 0.250000
vt 0.437500 0.750000
vt 0.437500 0.000000
vt 1.000000 0.750000
vt 1.000000 0.250000
s 0
g Mercury_Horns.001_MAT_BrightGold
usemtl MAT_BrightGold
f 119/183/101 116/184/101 115/185/101
f 116/184/102 121/186/102 117/187/102
f 121/188/103 118/189/103 117/190/103
f 118/189/104 119/183/104 115/185/104
f 123/191/105 120/192/105 119/183/105
f 124/193/106 121/186/106 120/192/106
f 125/194/107 122/195/107 121/188/107
f 122/195/108 123/191/108 119/183/108
f 127/196/109 124/193/109 123/191/109
f 128/197/110 125/198/110 124/193/110
f 129/199/111 126/200/111 125/194/111
f 130/201/112 123/191/112 126/200/112
f 131/202/113 128/197/113 127/196/113
f 132/203/114 129/204/114 128/197/114
f 133/205/115 130/201/115 129/199/115
f 134/206/116 127/196/116 130/201/116
f 135/207/117 132/203/117 131/202/117
f 136/208/118 133/209/118 132/203/118
f 133/205/119 138/210/119 134/206/119
f 134/206/120 135/207/120 131/202/120
f 139/211/121 136/208/121 135/207/121
f 140/212/122 137/213/122 136/208/122
f 141/214/123 138/210/123 137/215/123
f 142/216/124 135/207/124 138/210/124
f 143/217/125 140/212/125 139/211/125
f 144/218/126 141/219/126 140/212/126
f 145/220/127 142/216/127 141/214/127
f 142/216/128 143/217/128 139/211/128
f 147/221/129 144/218/129 143/217/129
f 144/218/130 149/222/130 145/223/130
f 149/224/131 146/225/131 145/220/131
f 146/225/132 147/221/132 143/217/132
f 151/226/102 148/227/102 147/228/102
f 152/229/101 149/230/101 148/227/101
f 149/231/104 154/232/104 150/233/104
f 154/232/103 147/228/103 150/233/103
f 155/234/106 152/229/106 151/226/106
f 156/235/105 153/236/105 152/229/105
f 157/237/108 154/232/108 153/238/108
f 158/239/107 151/226/107 154/232/107
f 159/240/110 156/235/110 155/234/110
f 160/241/109 157/242/109 156/235/109
f 161/243/112 158/239/112 157/237/112
f 162/244/111 155/234/111 158/239/111
f 159/240/114 164/245/114 160/241/114
f 164/245/113 161/246/113 160/241/113
f 165/247/116 162/244/116 161/243/116
f 166/248/115 159/240/115 162/244/115
f 163/249/118 168/250/118 164/245/118
f 164/245/117 169/251/117 165/252/117
f 169/253/120 166/248/120 165/247/120
f 170/254/119 163/249/119 166/248/119
f 171/255/122 168/250/122 167/256/122
f 168/250/121 173/257/121 169/251/121
f 173/258/124 170/254/124 169/253/124
f 170/254/123 171/255/123 167/256/123
f 175/259/126 172/260/126 171/255/126
f 172/260/125 177/261/125 173/257/125
f 173/258/128 178/262/128 174/263/128
f 178/262/127 171/255/127 174/263/127
f 115/185/130 176/264/130 175/259/130
f 116/184/129 177/261/129 176/264/129
f 117/190/132 178/262/132 177/265/132
f 118/189/131 175/259/131 178/262/131
f 119/183/101 120/192/101 116/184/101
f 116/184/102 120/192/102 121/186/102
f 121/188/103 122/195/103 118/189/103
f 118/189/104 122/195/104 119/183/104
f 123/191/105 124/193/105 120/192/105
f 124/193/106 125/198/106 121/186/106
f 125/194/107 126/200/107 122/195/107
f 122/195/108 126/200/108 123/191/108
f 127/196/109 128/197/109 124/193/109
f 128/197/110 129/204/110 125/198/110
f 129/199/111 130/201/111 126/200/111
f 130/201/112 127/196/112 123/191/112
f 131/202/113 132/203/113 128/197/113
f 132/203/114 133/209/114 129/204/114
f 133/205/115 134/206/115 130/201/115
f 134/206/116 131/202/116 127/196/116
f 135/207/117 136/208/117 132/203/117
f 136/208/118 137/213/118 133/209/118
f 133/205/119 137/215/119 138/210/119
f 134/206/120 138/210/120 135/207/120
f 139/211/121 140/212/121 136/208/121
f 140/212/122 141/219/122 137/213/122
f 141/214/123 142/216/123 138/210/123
f 142/216/124 139/211/124 135/207/124
f 143/217/125 144/218/125 140/212/125
f 144/218/126 145/223/126 141/219/126
f 145/220/127 146/225/127 142/216/127
f 142/216/128 146/225/128 143/217/128
f 147/221/129 148/266/129 144/218/129
f 144/218/130 148/266/130 149/222/130
f 149/224/131 150/267/131 146/225/131
f 146/225/132 150/267/132 147/221/132
f 151/226/102 152/229/102 148/227/102
f 152/229/101 153/236/101 149/230/101
f 149/231/104 153/238/104 154/232/104
f 154/232/103 151/226/103 147/228/103
f 155/234/106 156/235/106 152/229/106
f 156/235/105 157/242/105 153/236/105
f 157/237/108 158/239/108 154/232/108
f 158/239/107 155/234/107 151/226/107
f 159/240/110 160/241/110 156/235/110
f 160/241/109 161/246/109 157/242/109
f 161/243/112 162/244/112 158/239/112
f 162/244/111 159/240/111 155/234/111
f 159/240/114 163/249/114 164/245/114
f 164/245/113 165/252/113 161/246/113
f 165/247/116 166/248/116 162/244/116
f 166/248/115 163/249/115 159/240/115
f 163/249/118 167/256/118 168/250/118
f 164/245/117 168/250/117 169/251/117
f 169/253/120 170/254/120 166/248/120
f 170/254/119 167/256/119 163/249/119
f 171/255/122 172/260/122 168/250/122
f 168/250/121 172/260/121 173/257/121
f 173/258/124 174/263/124 170/254/124
f 170/254/123 174/263/123 171/255/123
f 175/259/126 176/264/126 172/260/126
f 172/260/125 176/264/125 177/261/125
f 173/258/128 177/265/128 178/262/128
f 178/262/127 175/259/127 171/255/127
f 115/185/130 116/184/130 176/264/130
f 116/184/129 117/187/129 177/261/129
f 117/190/132 118/189/132 178/262/132
f 118/189/131 115/185/131 175/259/131
g Mercury_Ring.001_Mesh
v 0.805000 0.100000 0.000000
v 0.720000 0.100000 0.085000
v 0.635000 0.100000 0.000000
v 0.720000 0.100000 -0.085000
v 0.756453 0.375326 -0.000000
v 0.676579 0.346254 0.085000
v 0.596705 0.317183 -0.000000
v 0.676579 0.346254 -0.085000
v 0.616666 0.617444 -0.000000
v 0.551552 0.562807 0.085000
v 0.486438 0.508170 -0.000000
v 0.551552 0.562807 -0.085000
v 0.402500 0.797150 -0.000000
v 0.360000 0.723538 0.085000
v 0.317500 0.649926 -0.000000
v 0.360000 0.723538 -0.085000
v 0.139787 0.892770 -0.000000
v 0.125027 0.809062 0.085000
v 0.110267 0.725353 -0.000000
v 0.125027 0.809062 -0.085000
v -0.139787 0.892770 -0.000000
v -0.125027 0.809062 0.085000
v -0.110267 0.725353 -0.000000
v -0.125027 0.809062 -0.085000
v -0.402500 0.797150 -0.000000
v -0.360000 0.723538 0.085000
v -0.317500 0.649926 -0.000000
v -0.360000 0.723538 -0.085000
v -0.616666 0.617444 -0.000000
v -0.551552 0.562807 0.085000
v -0.486438 0.508170 -0.000000
v -0.551552 0.562807 -0.085000
v -0.756452 0.375326 -0.000000
v -0.676579 0.346255 0.085000
v -0.596705 0.317183 -0.000000
v -0.676579 0.346255 -0.085000
v -0.805000 0.100000 -0.000000
v -0.720000 0.100000 0.085000
v -0.635000 0.100000 -0.000000
v -0.720000 0.100000 -0.085000
v -0.756453 -0.175326 0.000000
v -0.676579 -0.146255 0.085000
v -0.596705 -0.117183 0.000000
v -0.676579 -0.146255 -0.085000
v -0.616666 -0.417444 0.000000
v -0.551552 -0.362807 0.085000
v -0.486438 -0.308170 0.000000
v -0.551552 -0.362807 -0.085000
v -0.402500 -0.597151 0.000000
v -0.360000 -0.523538 0.085000
v -0.317500 -0.449926 0.000000
v -0.360000 -0.523538 -0.085000
v -0.139787 -0.692770 0.000000
v -0.125027 -0.609062 0.085000
v -0.110267 -0.525353 0.000000
v -0.125027 -0.609062 -0.085000
v 0.139787 -0.692770 0.000000
v 0.125027 -0.609062 0.085000
v 0.110267 -0.525353 0.000000
v 0.125027 -0.609062 -0.085000
v 0.402500 -0.597151 0.000000
v 0.360000 -0.523538 0.085000
v 0.317500 -0.449926 0.000000
v 0.360000 -0.523538 -0.085000
v 0.616666 -0.417444 0.000000
v 0.551552 -0.362807 0.085000
v 0.486438 -0.308170 0.000000
v 0.551552 -0.362807 -0.085000
v 0.756453 -0.175326 0.000000
v 0.676579 -0.146255 0.085000
v 0.596705 -0.117183 0.000000
v 0.676579 -0.146255 -0.085000
vn 0.7017 0.1237 0.7017
vn -0.7017 -0.1237 0.7017
vn -0.7017 -0.1237 -0.7017
vn 0.7017 0.1237 -0.7017
vn 0.6170 0.3562 0.7017
vn -0.6170 -0.3562 0.7017
vn -0.6170 -0.3562 -0.7017
vn 0.6170 0.3562 -0.7017
vn 0.4580 0.5458 0.7017
vn -0.4580 -0.5458 0.7017
vn -0.4580 -0.5458 -0.7017
vn 0.4580 0.5458 -0.7017
vn 0.2437 0.6695 0.7017
vn -0.2437 -0.6695 0.7017
vn -0.2437 -0.6695 -0.7017
vn 0.2437 0.6695 -0.7017
vn -0.0000 0.7125 0.7017
vn -0.0000 -0.7125 0.7017
vn -0.0000 -0.7125 -0.7017
vn -0.0000 0.7125 -0.7017
vn -0.2437 0.6695 0.7017
vn 0.2437 -0.6695 0.7017
vn 0.2437 -0.6695 -0.7017
vn -0.2437 0.6695 -0.7017
vn -0.4580 0.5458 0.7017
vn 0.4580 -0.5458 0.7017
vn 0.4580 -0.5458 -0.7017
vn -0.4580 0.5458 -0.7017
vn -0.6170 0.3562 0.7017
vn 0.6170 -0.3562 0.7017
vn 0.6170 -0.3562 -0.7017
vn -0.6170 0.3562 -0.7017
vn -0.7017 0.1237 0.7017
vn 0.7017 -0.1237 0.7017
vn 0.7017 -0.1237 -0.7017
vn -0.7017 0.1237 -0.7017
vt 0.555556 0.500000
vt 0.500000 0.750000
vt 0.500000 0.500000
vt 0.555556 0.750000
vt 0.500000 1.000000
vt 0.555556 0.000000
vt 0.500000 0.250000
vt 0.500000 0.000000
vt 0.555556 0.250000
vt 0.611111 0.750000
vt 0.555556 1.000000
vt 0.611111 0.000000
vt 0.611111 0.250000
vt 0.666667 0.500000
vt 0.611111 0.500000
vt 0.666667 0.750000
vt 0.611111 1.000000
vt 0.666667 0.250000
vt 0.722222 0.500000
vt 0.722222 0.750000
vt 0.666667 1.000000
vt 0.722222 0.000000
vt 0.666667 0.000000
vt 0.777778 0.750000
vt 0.722222 1.000000
vt 0.777778 0.000000
vt 0.722222 0.250000
vt 0.777778 0.250000
vt 0.833333 0.500000
vt 0.777778 0.500000
vt 0.833333 0.750000
vt 0.777778 1.000000
vt 0.833333 0.250000
vt 0.888889 0.750000
vt 0.833333 1.000000
vt 0.888889 0.000000
vt 0.833333 0.000000
vt 0.888889 0.250000
vt 0.944444 0.500000
vt 0.888889 0.500000
vt 0.944444 0.750000
vt 0.888889 1.000000
vt 0.944444 0.000000
vt 1.000000 0.500000
vt 1.000000 0.750000
vt 0.944444 1.000000
vt 1.000000 0.000000
vt 0.944444 0.250000
vt 1.000000 0.250000
vt 0.055556 0.500000
vt 0.000000 0.750000
vt 0.000000 0.500000
vt 0.055556 0.750000
vt 0.000000 1.000000
vt 0.055556 0.000000
vt 0.000000 0.250000
vt 0.000000 0.000000
vt 0.111111 0.500000
vt 0.111111 0.750000
vt 0.055556 1.000000
vt 0.111111 0.000000
vt 0.055556 0.250000
vt 0.166667 0.500000
vt 0.166667 1.000000
vt 0.111111 1.000000
vt 0.166667 0.000000
vt 0.111111 0.250000
vt 0.166667 0.250000
vt 0.222222 0.500000
vt 0.166667 0.750000
vt 0.222222 0.750000
vt 0.222222 0.000000
vt 0.277778 0.500000
vt 0.277778 0.750000
vt 0.222222 1.000000
vt 0.277778 0.000000
vt 0.222222 0.250000
vt 0.333333 0.500000
vt 0.333333 1.000000
vt 0.277778 1.000000
vt 0.333333 0.000000
vt 0.277778 0.250000
vt 0.333333 0.250000
vt 0.388889 0.500000
vt 0.333333 0.750000
vt 0.388889 1.000000
vt 0.388889 0.000000
vt 0.388889 0.250000
vt 0.444444 0.500000
vt 0.388889 0.750000
vt 0.444444 0.750000
vt 0.444444 0.250000
vt 0.444444 1.000000
vt 0.444444 0.000000
vt 1.000000 1.000000
s 0
g Mercury_Ring.001_MAT_OldGold
usemtl MAT_OldGold
f 183/268/133 180/269/133 179/270/133
f 184/271/134 181/272/134 180/269/134
f 185/273/135 182/274/135 181/275/135
f 186/276/136 179/270/136 182/274/136
f 183/268/137 188/277/137 184/271/137
f 188/277/138 185/278/138 184/271/138
f 189/279/139 186/276/139 185/273/139
f 190/280/140 183/268/140 186/276/140
f 191/281/141 188/277/141 187/282/141
f 192/283/142 189/284/142 188/277/142
f 189/279/143 194/285/143 190/280/143
f 194/285/144 187/282/144 190/280/144
f 195/286/145 192/283/145 191/281/145
f 196/287/146 193/288/146 192/283/146
f 197/289/147 194/285/147 193/290/147
f 194/285/148 195/286/148 191/281/148
f 195/286/149 200/291/149 196/287/149
f 200/291/150 197/292/150 196/287/150
f 201/293/151 198/294/151 197/289/151
f 202/295/152 195/286/152 198/294/152
f 203/296/153 200/291/153 199/297/153
f 204/298/154 201/299/154 200/291/154
f 201/293/155 206/300/155 202/295/155
f 206/300/156 199/297/156 202/295/156
f 203/296/157 208/301/157 204/298/157
f 208/301/158 205/302/158 204/298/158
f 209/303/159 206/300/159 205/304/159
f 210/305/160 203/296/160 206/300/160
f 211/306/161 208/301/161 207/307/161
f 212/308/162 209/309/162 208/301/162
f 213/310/163 210/305/163 209/303/163
f 210/305/164 211/306/164 207/307/164
f 215/311/165 212/308/165 211/306/165
f 216/312/166 213/313/166 212/308/166
f 217/314/167 214/315/167 213/310/167
f 218/316/168 211/306/168 214/315/168
f 219/317/134 216/318/134 215/319/134
f 220/320/133 217/321/133 216/318/133
f 221/322/136 218/323/136 217/324/136
f 218/323/135 219/317/135 215/319/135
f 223/325/138 220/320/138 219/317/138
f 224/326/137 221/327/137 220/320/137
f 225/328/140 222/329/140 221/322/140
f 222/329/139 223/325/139 219/317/139
f 227/330/142 224/326/142 223/325/142
f 224/326/141 229/331/141 225/332/141
f 229/333/144 226/334/144 225/328/144
f 230/335/143 223/325/143 226/334/143
f 231/336/146 228/337/146 227/330/146
f 232/338/145 229/331/145 228/337/145
f 233/339/148 230/335/148 229/333/148
f 230/335/147 231/336/147 227/330/147
f 235/340/150 232/338/150 231/336/150
f 236/341/149 233/342/149 232/338/149
f 237/343/152 234/344/152 233/339/152
f 234/344/151 235/340/151 231/336/151
f 239/345/154 236/341/154 235/340/154
f 236/341/153 241/346/153 237/347/153
f 241/348/156 238/349/156 237/343/156
f 242/350/155 235/340/155 238/349/155
f 243/351/158 240/352/158 239/345/158
f 240/352/157 245/353/157 241/346/157
f 245/354/160 242/350/160 241/348/160
f 246/355/159 239/345/159 242/350/159
f 247/356/162 244/357/162 243/351/162
f 248/358/161 245/353/161 244/357/161
f 245/354/164 250/359/164 246/355/164
f 250/359/163 243/351/163 246/355/163
f 247/356/166 180/269/166 248/358/166
f 180/269/165 249/360/165 248/358/165
f 249/361/168 182/274/168 250/359/168
f 182/274/167 247/356/167 250/359/167
f 183/268/133 184/271/133 180/269/133
f 184/271/134 185/278/134 181/272/134
f 185/273/135 186/276/135 182/274/135
f 186/276/136 183/268/136 179/270/136
f 183/268/137 187/282/137 188/277/137
f 188/277/138 189/284/138 185/278/138
f 189/279/139 190/280/139 186/276/139
f 190/280/140 187/282/140 183/268/140
f 191/281/141 192/283/141 188/277/141
f 192/283/142 193/288/142 189/284/142
f 189/279/143 193/290/143 194/285/143
f 194/285/144 191/281/144 187/282/144
f 195/286/145 196/287/145 192/283/145
f 196/287/146 197/292/146 193/288/146
f 197/289/147 198/294/147 194/285/147
f 194/285/148 198/294/148 195/286/148
f 195/286/149 199/297/149 200/291/149
f 200/291/150 201/299/150 197/292/150
f 201/293/151 202/295/151 198/294/151
f 202/295/152 199/297/152 195/286/152
f 203/296/153 204/298/153 200/291/153
f 204/298/154 205/302/154 201/299/154
f 201/293/155 205/304/155 206/300/155
f 206/300/156 203/296/156 199/297/156
f 203/296/157 207/307/157 208/301/157
f 208/301/158 209/309/158 205/302/158
f 209/303/159 210/305/159 206/300/159
f 210/305/160 207/307/160 203/296/160
f 211/306/161 212/308/161 208/301/161
f 212/308/162 213/313/162 209/309/162
f 213/310/163 214/315/163 210/305/163
f 210/305/164 214/315/164 211/306/164
f 215/311/165 216/312/165 212/308/165
f 216/312/166 217/362/166 213/313/166
f 217/314/167 218/316/167 214/315/167
f 218/316/168 215/311/168 211/306/168
f 219/317/134 220/320/134 216/318/134
f 220/320/133 221/327/133 217/321/133
f 221/322/136 222/329/136 218/323/136
f 218/323/135 222/329/135 219/317/135
f 223/325/138 224/326/138 220/320/138
f 224/326/137 225/332/137 221/327/137
f 225/328/140 226/334/140 222/329/140
f 222/329/139 226/334/139 223/325/139
f 227/330/142 228/337/142 224/326/142
f 224/326/141 228/337/141 229/331/141
f 229/333/144 230/335/144 226/334/144
f 230/335/143 227/330/143 223/325/143
f 231/336/146 232/338/146 228/337/146
f 232/338/145 233/342/145 229/331/145
f 233/339/148 234/344/148 230/335/148
f 230/335/147 234/344/147 231/336/147
f 235/340/150 236/341/150 232/338/150
f 236/341/149 237/347/149 233/342/149
f 237/343/152 238/349/152 234/344/152
f 234/344/151 238/349/151 235/340/151
f 239/345/154 240/352/154 236/341/154
f 236/341/153 240/352/153 241/346/153
f 241/348/156 242/350/156 238/349/156
f 242/350/155 239/345/155 235/340/155
f 243/351/158 244/357/158 240/352/158
f 240/352/157 244/357/157 245/353/157
f 245/354/160 246/355/160 242/350/160
f 246/355/159 243/351/159 239/345/159
f 247/356/162 248/358/162 244/357/162
f 248/358/161 249/360/161 245/353/161
f 245/354/164 249/361/164 250/359/164
f 250/359/163 247/356/163 243/351/163
f 247/356/166 179/270/166 180/269/166
f 180/269/165 181/272/165 249/360/165
f 249/361/168 181/275/168 182/274/168
f 182/274/167 179/270/167 247/356/167
g Mercury_Stem.001_Mesh
v 0.000000 -0.580000 -0.053351
v 0.013515 -0.595000 -0.063492
v -0.013515 -0.595000 -0.063492
v 0.000000 -1.100000 -0.053351
v -0.013515 -1.085000 -0.063492
v 0.013515 -1.085000 -0.063492
v -0.041712 -0.580000 -0.033264
v -0.041214 -0.595000 -0.050153
v -0.058066 -0.595000 -0.029020
v -0.041712 -1.100000 -0.033264
v -0.058066 -1.085000 -0.029020
v -0.041214 -1.085000 -0.050153
v -0.052014 -0.580000 0.011872
v -0.064907 -0.595000 0.000953
v -0.058893 -0.595000 0.027304
v -0.052014 -1.100000 0.011872
v -0.058893 -1.085000 0.027304
v -0.064907 -1.085000 0.000953
v -0.023148 -0.580000 0.048068
v -0.039724 -0.595000 0.051340
v -0.015372 -0.595000 0.063068
v -0.023148 -1.100000 0.048068
v -0.015372 -1.085000 0.063068
v -0.039724 -1.085000 0.051340
v 0.023148 -0.580000 0.048068
v 0.015372 -0.595000 0.063068
v 0.039724 -0.595000 0.051340
v 0.023148 -1.100000 0.048068
v 0.039724 -1.085000 0.051340
v 0.015372 -1.085000 0.063068
v 0.052014 -0.580000 0.011872
v 0.058893 -0.595000 0.027304
v 0.064907 -0.595000 0.000953
v 0.052014 -1.100000 0.011872
v 0.064907 -1.085000 0.000953
v 0.058893 -1.085000 0.027304
v 0.041712 -0.580000 -0.033264
v 0.058066 -0.595000 -0.029020
v 0.041214 -0.595000 -0.050153
v 0.041712 -1.100000 -0.033264
v 0.041214 -1.085000 -0.050153
v 0.058066 -1.085000 -0.029020
vn -0.0000 0.5601 -0.8285
vn -0.0000 -0.5601 -0.8285
vn -0.6477 0.5601 -0.5165
vn -0.6477 -0.5601 -0.5165
vn -0.8077 0.5601 0.1843
vn -0.8077 -0.5601 0.1843
vn -0.3595 0.5601 0.7464
vn -0.3595 -0.5601 0.7464
vn 0.3595 0.5601 0.7464
vn 0.3595 -0.5601 0.7464
vn 0.8077 0.5601 0.1843
vn 0.8077 -0.5601 0.1843
vn 0.6477 0.5601 -0.5165
vn 0.6477 -0.5601 -0.5165
vn -0.3068 0.7071 -0.6371
vn -0.3068 -0.7071 -0.6371
vn -0.0000 -0.0000 -1.0000
vn -0.7818 -0.0000 -0.6235
vn -0.6894 0.7071 -0.1573
vn -0.6894 -0.7071 -0.1573
vn -0.9749 -0.0000 0.2225
vn -0.5528 0.7071 0.4409
vn -0.5528 -0.7071 0.4409
vn -0.4339 -0.0000 0.9010
vn -0.0000 0.7071 0.7071
vn -0.0000 -0.7071 0.7071
vn 0.4339 -0.0000 0.9010
vn 0.5528 0.7071 0.4409
vn 0.5528 -0.7071 0.4409
vn 0.9749 -0.0000 0.2225
vn 0.6894 0.7071 -0.1573
vn 0.6894 -0.7071 -0.1573
vn 0.7818 -0.0000 -0.6235
vn 0.3068 0.7071 -0.6371
vn 0.3068 -0.7071 -0.6371
vn -0.0000 1.0000 -0.0000
vn -0.4339 -0.0000 -0.9010
vn 0.4339 -0.0000 -0.9010
vn -0.0000 -1.0000 -0.0000
vn -0.9749 -0.0000 -0.2225
vn -0.7818 -0.0000 0.6235
vn -0.0000 -0.0000 1.0000
vn 0.7818 -0.0000 0.6235
vn 0.9749 -0.0000 -0.2225
vt 0.750000 0.432919
vt 0.703664 0.467686
vt 0.796336 0.467686
vt 0.250000 0.432919
vt 0.296336 0.467686
vt 0.203664 0.467686
vt 0.893012 0.364048
vt 0.891304 0.421952
vt 0.949083 0.349498
vt 0.393012 0.364048
vt 0.449083 0.349498
vt 0.391304 0.421952
vt 0.928332 0.209297
vt 0.972539 0.246734
vt 0.951918 0.156386
vt 0.428332 0.209297
vt 0.451917 0.156387
vt 0.472539 0.246734
vt 0.829365 0.085196
vt 0.886197 0.073976
vt 0.802703 0.033768
vt 0.329365 0.085196
vt 0.302704 0.033768
vt 0.386197 0.073976
vt 0.670635 0.085196
vt 0.697296 0.033768
vt 0.613803 0.073976
vt 0.170635 0.085196
vt 0.113803 0.073976
vt 0.197296 0.033768
vt 0.571668 0.209297
vt 0.548082 0.156387
vt 0.527461 0.246734
vt 0.071668 0.209297
vt 0.027461 0.246734
vt 0.048083 0.156386
vt 0.606988 0.364048
vt 0.550917 0.349498
vt 0.608696 0.421952
vt 0.106989 0.364048
vt 0.108696 0.421952
vt 0.050917 0.349498
vt 0.035277 0.985577
vt 0.000000 0.514423
vt 0.035277 0.514423
vt 0.821866 0.514423
vt 0.892420 0.985577
vt 0.821866 0.985577
vt 0.679009 0.514423
vt 0.749563 0.985577
vt 0.679009 0.985577
vt 0.536152 0.514423
vt 0.606706 0.985577
vt 0.536152 0.985577
vt 0.393294 0.514423
vt 0.463848 0.985577
vt 0.393294 0.985577
vt 0.250437 0.985577
vt 0.320991 0.514423
vt 0.320991 0.985577
vt 0.107580 0.514423
vt 0.178134 0.985577
vt 0.107580 0.985577
vt 0.964723 0.985577
vt 0.892420 0.514423
vt 0.964723 0.514423
vt 0.749563 0.514423
vt 0.606706 0.514423
vt 0.463848 0.514423
vt 0.178134 0.514423
vt 0.250437 0.514423
vt 0.000000 0.985577
s 0
g Mercury_Stem.001_MAT_BrightGold
usemtl MAT_BrightGold
f 251/363/169 252/364/169 253/365/169
f 254/366/170 255/367/170 256/368/170
f 257/369/171 258/370/171 259/371/171
f 260/372/172 261/373/172 262/374/172
f 263/375/173 264/376/173 265/377/173
f 266/378/174 267/379/174 268/380/174
f 269/381/175 270/382/175 271/383/175
f 272/384/176 273/385/176 274/386/176
f 275/387/177 276/388/177 277/389/177
f 278/390/178 279/391/178 280/392/178
f 281/393/179 282/394/179 283/395/179
f 284/396/180 285/397/180 286/398/180
f 287/399/181 288/400/181 289/401/181
f 290/402/182 291/403/182 292/404/182
f 258/370/183 251/363/183 253/365/183
f 255/367/184 260/372/184 262/374/184
f 256/405/185 253/406/185 252/407/185
f 259/408/186 262/409/186 261/410/186
f 264/376/187 257/369/187 259/371/187
f 261/373/188 266/378/188 268/380/188
f 265/411/189 268/412/189 267/413/189
f 270/382/190 263/375/190 265/377/190
f 267/379/191 272/384/191 274/386/191
f 271/414/192 274/415/192 273/416/192
f 276/388/193 269/381/193 271/383/193
f 273/385/194 278/390/194 280/392/194
f 277/417/195 280/418/195 279/419/195
f 282/394/196 275/387/196 277/389/196
f 279/391/197 284/396/197 286/398/197
f 285/420/198 282/421/198 286/422/198
f 288/400/199 281/393/199 283/395/199
f 285/397/200 290/402/200 292/404/200
f 289/423/201 292/424/201 291/425/201
f 252/364/202 287/399/202 289/401/202
f 291/403/203 254/366/203 256/368/203
f 257/369/204 269/381/204 281/393/204
f 255/426/205 258/427/205 253/428/205
f 291/425/206 252/407/206 289/423/206
f 254/366/207 284/396/207 272/384/207
f 261/410/208 264/429/208 259/408/208
f 267/413/209 270/430/209 265/411/209
f 273/416/210 276/431/210 271/414/210
f 279/419/211 282/421/211 277/417/211
f 285/420/212 288/432/212 283/433/212
f 258/370/183 257/369/183 251/363/183
f 255/367/184 254/366/184 260/372/184
f 256/405/185 255/434/185 253/406/185
f 259/408/186 258/427/186 262/409/186
f 264/376/187 263/375/187 257/369/187
f 261/373/188 260/372/188 266/378/188
f 265/411/189 264/429/189 268/412/189
f 270/382/190 269/381/190 263/375/190
f 267/379/191 266/378/191 272/384/191
f 271/414/192 270/430/192 274/415/192
f 276/388/193 275/387/193 269/381/193
f 273/385/194 272/384/194 278/390/194
f 277/417/195 276/431/195 280/418/195
f 282/394/196 281/393/196 275/387/196
f 279/391/197 278/390/197 284/396/197
f 285/420/198 283/433/198 282/421/198
f 288/400/199 287/399/199 281/393/199
f 285/397/200 284/396/200 290/402/200
f 289/423/201 288/432/201 292/424/201
f 252/364/202 251/363/202 287/399/202
f 291/403/203 290/402/203 254/366/203
f 287/399/204 251/363/204 257/369/204
f 257/369/204 263/375/204 269/381/204
f 269/381/204 275/387/204 281/393/204
f 281/393/204 287/399/204 257/369/204
f 255/426/205 262/409/205 258/427/205
f 291/425/206 256/405/206 252/407/206
f 266/378/207 260/372/207 254/366/207
f 254/366/207 290/402/207 284/396/207
f 284/396/207 278/390/207 272/384/207
f 272/384/207 266/378/207 254/366/207
f 261/410/208 268/412/208 264/429/208
f 267/413/209 274/415/209 270/430/209
f 273/416/210 280/418/210 276/431/210
f 279/419/211 286/422/211 282/421/211
f 285/420/212 292/424/212 288/432/212
g Mercury_Wing-1.001_Mesh
v -0.582059 0.131765 0.035000
v -0.583984 0.112946 0.035000
v -0.625735 0.126725 0.060000
v -0.987941 0.348235 0.035000
v -0.967167 0.308822 0.060000
v -1.002304 0.336214 0.035000
v -0.876016 0.027054 0.035000
v -0.907695 0.043786 0.035000
v -0.883705 0.050851 0.060000
v -0.583984 0.112946 -0.035000
v -0.582059 0.131765 -0.035000
v -0.625735 0.126725 -0.060000
v -0.987941 0.348235 -0.035000
v -1.002304 0.336214 -0.035000
v -0.967167 0.308822 -0.060000
v -0.876016 0.027054 -0.035000
v -0.883705 0.050851 -0.060000
v -0.907695 0.043786 -0.035000
vn -0.5006 0.0512 -0.8642
vn 0.3195 -0.3817 -0.8673
vn 0.3830 0.7251 -0.5724
vn -0.5006 0.0512 0.8642
vn 0.3195 -0.3817 0.8673
vn 0.3830 0.7251 0.5724
vn -0.3328 -0.6239 -0.7071
vn -0.1995 0.6784 -0.7071
vn 0.6728 0.2177 -0.7071
vn -0.1995 0.6784 0.7071
vn -0.3328 -0.6239 0.7071
vn 0.6728 0.2177 0.7071
vn -0.9948 0.1018 -0.0000
vn 0.6418 -0.7669 -0.0000
vn 0.4670 0.8842 -0.0000
vn -0.4706 -0.8824 -0.0000
vn -0.0000 -0.0000 -1.0000
vn -0.2822 0.9594 -0.0000
vn 0.9514 0.3078 -0.0000
vn -0.0000 -0.0000 1.0000
s 0
g Mercury_Wing-1.001_MAT_Pearl
usemtl MAT_Pearl
f 293//213 294//213 295//213
f 296//214 297//214 298//214
f 299//215 300//215 301//215
f 302//216 303//216 304//216
f 305//217 306//217 307//217
f 308//218 309//218 310//218
f 297//219 293//219 295//219
f 299//220 295//220 294//220
f 297//221 300//221 298//221
f 304//222 308//222 302//222
f 303//223 307//223 304//223
f 310//224 307//224 306//224
f 303//225 294//225 293//225
f 306//226 296//226 298//226
f 308//227 300//227 299//227
f 296//228 303//228 293//228
f 295//229 301//229 297//229
f 294//230 308//230 299//230
f 300//231 306//231 298//231
f 304//232 307//232 309//232
f 297//219 296//219 293//219
f 299//220 301//220 295//220
f 297//221 301//221 300//221
f 304//222 309//222 308//222
f 303//223 305//223 307//223
f 310//224 309//224 307//224
f 303//225 302//225 294//225
f 306//226 305//226 296//226
f 308//227 310//227 300//227
f 296//228 305//228 303//228
f 294//230 302//230 308//230
f 300//231 310//231 306//231
g Mercury_Wing1.001_Mesh
v 0.582059 0.131765 0.035000
v 0.583984 0.112946 0.035000
v 0.625735 0.126725 0.060000
v 0.987941 0.348235 0.035000
v 0.967167 0.308822 0.060000
v 1.002304 0.336214 0.035000
v 0.876016 0.027054 0.035000
v 0.907695 0.043786 0.035000
v 0.883705 0.050851 0.060000
v 0.583984 0.112946 -0.035000
v 0.582059 0.131765 -0.035000
v 0.625735 0.126725 -0.060000
v 0.987941 0.348235 -0.035000
v 1.002304 0.336214 -0.035000
v 0.967167 0.308822 -0.060000
v 0.876016 0.027054 -0.035000
v 0.883705 0.050851 -0.060000
v 0.907695 0.043786 -0.035000
vn -0.5006 -0.0512 0.8642
vn 0.3195 0.3817 0.8673
vn 0.3830 -0.7251 0.5724
vn -0.5006 -0.0512 -0.8642
vn 0.3195 0.3817 -0.8673
vn 0.3830 -0.7251 -0.5724
vn -0.3328 0.6239 0.7071
vn -0.1995 -0.6784 0.7071
vn 0.6728 -0.2177 0.7071
vn -0.1995 -0.6784 -0.7071
vn -0.3328 0.6239 -0.7071
vn 0.6728 -0.2177 -0.7071
vn -0.9948 -0.1018 -0.0000
vn 0.6418 0.7669 -0.0000
vn 0.4670 -0.8842 -0.0000
vn -0.4706 0.8824 -0.0000
vn -0.0000 -0.0000 1.0000
vn -0.2822 -0.9594 -0.0000
vn 0.9514 -0.3078 -0.0000
vn -0.0000 -0.0000 -1.0000
s 0
g Mercury_Wing1.001_MAT_Pearl
usemtl MAT_Pearl
f 311//233 312//233 313//233
f 314//234 315//234 316//234
f 317//235 318//235 319//235
f 320//236 321//236 322//236
f 323//237 324//237 325//237
f 326//238 327//238 328//238
f 315//239 311//239 313//239
f 317//240 313//240 312//240
f 315//241 318//241 316//241
f 322//242 326//242 320//242
f 321//243 325//243 322//243
f 328//244 325//244 324//244
f 321//245 312//245 311//245
f 324//246 314//246 316//246
f 326//247 318//247 317//247
f 314//248 321//248 311//248
f 313//249 319//249 315//249
f 312//250 326//250 317//250
f 318//251 324//251 316//251
f 322//252 325//252 327//252
f 315//239 314//239 311//239
f 317//240 319//240 313//240
f 315//241 319//241 318//241
f 322//242 327//242 326//242
f 321//243 323//243 325//243
f 328//244 327//244 325//244
f 321//245 320//245 312//245
f 324//246 323//246 314//246
f 326//247 328//247 318//247
f 314//248 323//248 321//248
f 312//250 320//250 326//250
f 318//251 328//251 324//251
