# Blender 5.0.1
# www.blender.org
mtllib mystic_egg.mtl
g Egg_Band.002_Mesh
v 0.765000 -0.080000 0.000000
v 0.700000 -0.015000 0.000000
v 0.635000 -0.080000 0.000000
v 0.700000 -0.145000 0.000000
v 0.706768 -0.080000 -0.292753
v 0.646716 -0.015000 -0.267878
v 0.586663 -0.080000 -0.243004
v 0.646716 -0.145000 -0.267878
v 0.540937 -0.080000 -0.540937
v 0.494975 -0.015000 -0.494975
v 0.449013 -0.080000 -0.449013
v 0.494975 -0.145000 -0.494975
v 0.292753 -0.080000 -0.706768
v 0.267879 -0.015000 -0.646716
v 0.243004 -0.080000 -0.586663
v 0.267879 -0.145000 -0.646716
v 0.000000 -0.080000 -0.765000
v 0.000000 -0.015000 -0.700000
v 0.000000 -0.080000 -0.635000
v 0.000000 -0.145000 -0.700000
v -0.292753 -0.080000 -0.706768
v -0.267878 -0.015000 -0.646716
v -0.243004 -0.080000 -0.586663
v -0.267878 -0.145000 -0.646716
v -0.540937 -0.080000 -0.540937
v -0.494975 -0.015000 -0.494975
v -0.449013 -0.080000 -0.449013
v -0.494975 -0.145000 -0.494975
v -0.706768 -0.080000 -0.292753
v -0.646716 -0.015000 -0.267878
v -0.586663 -0.080000 -0.243004
v -0.646716 -0.145000 -0.267878
v -0.765000 -0.080000 -0.000000
v -0.700000 -0.015000 -0.000000
v -0.635000 -0.080000 -0.000000
v -0.700000 -0.145000 -0.000000
v -0.706768 -0.080000 0.292753
v -0.646716 -0.015000 0.267878
v -0.586664 -0.080000 0.243004
v -0.646716 -0.145000 0.267878
v -0.540937 -0.080000 0.540937
v -0.494975 -0.015000 0.494975
v -0.449013 -0.080000 0.449013
v -0.494975 -0.145000 0.494975
v -0.292753 -0.080000 0.706768
v -0.267878 -0.015000 0.646716
v -0.243004 -0.080000 0.586663
v -0.267878 -0.145000 0.646716
v 0.000000 -0.080000 0.765000
v 0.000000 -0.015000 0.700000
v 0.000000 -0.080000 0.635000
v 0.000000 -0.145000 0.700000
v 0.292753 -0.080000 0.706768
v 0.267879 -0.015000 0.646716
v 0.243004 -0.080000 0.586663
v 0.267879 -0.145000 0.646716
v 0.540936 -0.080000 0.540937
v 0.494974 -0.015000 0.494975
v 0.449013 -0.080000 0.449013
v 0.494974 -0.145000 0.494975
v 0.706768 -0.080000 0.292753
v 0.646716 -0.015000 0.267879
v 0.586663 -0.080000 0.243004
v 0.646716 -0.145000 0.267879
vn 0.7002 0.7002 -0.1393
vn -0.7002 0.7002 0.1393
vn -0.7002 -0.7002 0.1393
vn 0.7002 -0.7002 -0.1393
vn 0.5936 0.7002 -0.3966
vn -0.5936 0.7002 0.3966
vn -0.5936 -0.7002 0.3966
vn 0.5936 -0.7002 -0.3966
vn 0.3966 0.7002 -0.5936
vn -0.3966 0.7002 0.5936
vn -0.3966 -0.7002 0.5936
vn 0.3966 -0.7002 -0.5936
vn 0.1393 0.7002 -0.7002
vn -0.1393 0.7002 0.7002
vn -0.1393 -0.7002 0.7002
vn 0.1393 -0.7002 -0.7002
vn -0.1393 0.7002 -0.7002
vn 0.1393 0.7002 0.7002
vn 0.1393 -0.7002 0.7002
vn -0.1393 -0.7002 -0.7002
vn -0.3966 0.7002 -0.5936
vn 0.3966 0.7002 0.5936
vn 0.3966 -0.7002 0.5936
vn -0.3966 -0.7002 -0.5936
vn -0.5936 0.7002 -0.3966
vn 0.5936 0.7002 0.3966
vn 0.5936 -0.7002 0.3966
vn -0.5936 -0.7002 -0.3966
vn -0.7002 0.7002 -0.1393
vn 0.7002 0.7002 0.1393
vn 0.7002 -0.7002 0.1393
vn -0.7002 -0.7002 -0.1393
vt 0.500000 0.500000
vt 0.562500 0.750000
vt 0.500000 0.750000
vt 0.500000 1.000000
vt 0.562500 0.000000
vt 0.500000 0.250000
vt 0.500000 0.000000
vt 0.562500 0.250000
vt 0.625000 0.500000
vt 0.562500 0.500000
vt 0.625000 0.750000
vt 0.562500 1.000000
vt 0.625000 0.000000
vt 0.687500 0.750000
vt 0.625000 1.000000
vt 0.687500 0.000000
vt 0.625000 0.250000
vt 0.687500 0.500000
vt 0.750000 0.500000
vt 0.750000 0.750000
vt 0.687500 1.000000
vt 0.750000 0.000000
vt 0.687500 0.250000
vt 0.812500 0.500000
vt 0.812500 1.000000
vt 0.750000 1.000000
vt 0.812500 0.000000
vt 0.750000 0.250000
vt 0.812500 0.250000
vt 0.875000 0.750000
vt 0.812500 0.750000
vt 0.875000 0.000000
vt 0.875000 0.250000
vt 0.937500 0.500000
vt 0.875000 0.500000
vt 0.937500 1.000000
vt 0.875000 1.000000
vt 0.937500 0.250000
vt 1.000000 0.500000
vt 0.937500 0.750000
vt 1.000000 0.750000
vt 1.000000 0.000000
vt 0.937500 0.000000
vt 1.000000 0.250000
vt 0.062500 0.500000
vt 0.000000 0.750000
vt 0.000000 0.500000
vt 0.062500 1.000000
vt 0.000000 1.000000
vt 0.000000 0.000000
vt 0.062500 0.250000
vt 0.000000 0.250000
vt 0.125000 0.500000
vt 0.062500 0.750000
vt 0.125000 0.750000
vt 0.125000 0.000000
vt 0.062500 0.000000
vt 0.125000 0.250000
vt 0.187500 0.500000
vt 0.187500 0.750000
vt 0.125000 1.000000
vt 0.187500 0.000000
vt 0.187500 0.250000
vt 0.250000 0.500000
vt 0.250000 0.750000
vt 0.187500 1.000000
vt 0.250000 0.250000
vt 0.312500 0.750000
vt 0.250000 1.000000
vt 0.312500 0.000000
vt 0.250000 0.000000
vt 0.312500 0.250000
vt 0.375000 0.500000
vt 0.312500 0.500000
vt 0.375000 1.000000
vt 0.312500 1.000000
vt 0.375000 0.000000
vt 0.375000 0.250000
vt 0.437500 0.500000
vt 0.375000 0.750000
vt 0.437500 0.750000
vt 0.437500 0.250000
vt 0.437500 1.000000
vt 0.437500 0.000000
vt 1.000000 1.000000
s 0
g Egg_Band.002_MAT_OldGold
usemtl MAT_OldGold
f 1/1/1 6/2/1 2/3/1
f 6/2/2 3/4/2 2/3/2
f 7/5/3 4/6/3 3/7/3
f 8/8/4 1/1/4 4/6/4
f 9/9/5 6/2/5 5/10/5
f 10/11/6 7/12/6 6/2/6
f 11/13/7 8/8/7 7/5/7
f 8/8/8 9/9/8 5/10/8
f 9/9/9 14/14/9 10/11/9
f 14/14/10 11/15/10 10/11/10
f 15/16/11 12/17/11 11/13/11
f 12/17/12 13/18/12 9/9/12
f 17/19/13 14/14/13 13/18/13
f 18/20/14 15/21/14 14/14/14
f 19/22/15 16/23/15 15/16/15
f 16/23/16 17/19/16 13/18/16
f 21/24/17 18/20/17 17/19/17
f 18/20/18 23/25/18 19/26/18
f 23/27/19 20/28/19 19/22/19
f 24/29/20 17/19/20 20/28/20
f 21/24/21 26/30/21 22/31/21
f 26/30/22 23/25/22 22/31/22
f 27/32/23 24/29/23 23/27/23
f 28/33/24 21/24/24 24/29/24
f 29/34/25 26/30/25 25/35/25
f 26/30/26 31/36/26 27/37/26
f 27/32/27 32/38/27 28/33/27
f 32/38/28 25/35/28 28/33/28
f 33/39/29 30/40/29 29/34/29
f 34/41/30 31/36/30 30/40/30
f 35/42/31 32/38/31 31/43/31
f 36/44/32 29/34/32 32/38/32
f 37/45/2 34/46/2 33/47/2
f 34/46/1 39/48/1 35/49/1
f 35/50/4 40/51/4 36/52/4
f 36/52/3 37/45/3 33/47/3
f 41/53/6 38/54/6 37/45/6
f 42/55/5 39/48/5 38/54/5
f 43/56/8 40/51/8 39/57/8
f 44/58/7 37/45/7 40/51/7
f 45/59/10 42/55/10 41/53/10
f 46/60/9 43/61/9 42/55/9
f 47/62/12 44/58/12 43/56/12
f 48/63/11 41/53/11 44/58/11
f 49/64/14 46/60/14 45/59/14
f 50/65/13 47/66/13 46/60/13
f 47/62/16 52/67/16 48/63/16
f 52/67/15 45/59/15 48/63/15
f 49/64/18 54/68/18 50/65/18
f 54/68/17 51/69/17 50/65/17
f 55/70/20 52/67/20 51/71/20
f 56/72/19 49/64/19 52/67/19
f 57/73/22 54/68/22 53/74/22
f 54/68/21 59/75/21 55/76/21
f 59/77/24 56/72/24 55/70/24
f 60/78/23 53/74/23 56/72/23
f 61/79/26 58/80/26 57/73/26
f 62/81/25 59/75/25 58/80/25
f 59/77/28 64/82/28 60/78/28
f 64/82/27 57/73/27 60/78/27
f 61/79/30 2/3/30 62/81/30
f 2/3/29 63/83/29 62/81/29
f 3/7/32 64/82/32 63/84/32
f 4/6/31 61/79/31 64/82/31
f 1/1/1 5/10/1 6/2/1
f 6/2/2 7/12/2 3/4/2
f 7/5/3 8/8/3 4/6/3
f 8/8/4 5/10/4 1/1/4
f 9/9/5 10/11/5 6/2/5
f 10/11/6 11/15/6 7/12/6
f 11/13/7 12/17/7 8/8/7
f 8/8/8 12/17/8 9/9/8
f 9/9/9 13/18/9 14/14/9
f 14/14/10 15/21/10 11/15/10
f 15/16/11 16/23/11 12/17/11
f 12/17/12 16/23/12 13/18/12
f 17/19/13 18/20/13 14/14/13
f 18/20/14 19/26/14 15/21/14
f 19/22/15 20/28/15 16/23/15
f 16/23/16 20/28/16 17/19/16
f 21/24/17 22/31/17 18/20/17
f 18/20/18 22/31/18 23/25/18
f 23/27/19 24/29/19 20/28/19
f 24/29/20 21/24/20 17/19/20
f 21/24/21 25/35/21 26/30/21
f 26/30/22 27/37/22 23/25/22
f 27/32/23 28/33/23 24/29/23
f 28/33/24 25/35/24 21/24/24
f 29/34/25 30/40/25 26/30/25
f 26/30/26 30/40/26 31/36/26
f 27/32/27 31/43/27 32/38/27
f 32/38/28 29/34/28 25/35/28
f 33/39/29 34/41/29 30/40/29
f 34/41/30 35/85/30 31/36/30
f 35/42/31 36/44/31 32/38/31
f 36/44/32 33/39/32 29/34/32
f 37/45/2 38/54/2 34/46/2
f 34/46/1 38/54/1 39/48/1
f 35/50/4 39/57/4 40/51/4
f 36/52/3 40/51/3 37/45/3
f 41/53/6 42/55/6 38/54/6
f 42/55/5 43/61/5 39/48/5
f 43/56/8 44/58/8 40/51/8
f 44/58/7 41/53/7 37/45/7
f 45/59/10 46/60/10 42/55/10
f 46/60/9 47/66/9 43/61/9
f 47/62/12 48/63/12 44/58/12
f 48/63/11 45/59/11 41/53/11
f 49/64/14 50/65/14 46/60/14
f 50/65/13 51/69/13 47/66/13
f 47/62/16 51/71/16 52/67/16
f 52/67/15 49/64/15 45/59/15
f 49/64/18 53/74/18 54/68/18
f 54/68/17 55/76/17 51/69/17
f 55/70/20 56/72/20 52/67/20
f 56/72/19 53/74/19 49/64/19
f 57/73/22 58/80/22 54/68/22
f 54/68/21 58/80/21 59/75/21
f 59/77/24 60/78/24 56/72/24
f 60/78/23 57/73/23 53/74/23
f 61/79/26 62/81/26 58/80/26
f 62/81/25 63/83/25 59/75/25
f 59/77/28 63/84/28 64/82/28
f 64/82/27 61/79/27 57/73/27
f 61/79/30 1/1/30 2/3/30
f 2/3/29 3/4/29 63/83/29
f 3/7/32 4/6/32 64/82/32
f 4/6/31 1/1/31 61/79/31
g Egg_Band2.002_Mesh
v 0.610000 0.430000 0.000000
v 0.560000 0.480000 0.000000
v 0.510000 0.430000 0.000000
v 0.560000 0.380000 0.000000
v 0.563567 0.430000 -0.233437
v 0.517373 0.480000 -0.214303
v 0.471179 0.430000 -0.195169
v 0.517373 0.380000 -0.214303
v 0.431335 0.430000 -0.431335
v 0.395980 0.480000 -0.395980
v 0.360624 0.430000 -0.360624
v 0.395980 0.380000 -0.395980
v 0.233437 0.430000 -0.563566
v 0.214303 0.480000 -0.517372
v 0.195169 0.430000 -0.471179
v 0.214303 0.380000 -0.517372
v 0.000000 0.430000 -0.610000
v 0.000000 0.480000 -0.560000
v 0.000000 0.430000 -0.510000
v 0.000000 0.380000 -0.560000
v -0.233437 0.430000 -0.563567
v -0.214303 0.480000 -0.517373
v -0.195169 0.430000 -0.471179
v -0.214303 0.380000 -0.517373
v -0.431335 0.430000 -0.431335
v -0.395980 0.480000 -0.395980
v -0.360625 0.430000 -0.360624
v -0.395980 0.380000 -0.395980
v -0.563567 0.430000 -0.233437
v -0.517373 0.480000 -0.214303
v -0.471179 0.430000 -0.195169
v -0.517373 0.380000 -0.214303
v -0.610000 0.430000 -0.000000
v -0.560000 0.480000 -0.000000
v -0.510000 0.430000 -0.000000
v -0.560000 0.380000 -0.000000
v -0.563567 0.430000 0.233437
v -0.517373 0.480000 0.214303
v -0.471179 0.430000 0.195168
v -0.517373 0.380000 0.214303
v -0.431335 0.430000 0.431335
v -0.395980 0.480000 0.395980
v -0.360625 0.430000 0.360624
v -0.395980 0.380000 0.395980
v -0.233437 0.430000 0.563567
v -0.214303 0.480000 0.517373
v -0.195169 0.430000 0.471179
v -0.214303 0.380000 0.517373
v 0.000000 0.430000 0.610000
v 0.000000 0.480000 0.560000
v 0.000000 0.430000 0.510000
v 0.000000 0.380000 0.560000
v 0.233437 0.430000 0.563566
v 0.214303 0.480000 0.517372
v 0.195169 0.430000 0.471179
v 0.214303 0.380000 0.517372
v 0.431335 0.430000 0.431335
v 0.395980 0.480000 0.395980
v 0.360624 0.430000 0.360625
v 0.395980 0.380000 0.395980
v 0.563566 0.430000 0.233437
v 0.517372 0.480000 0.214303
v 0.471178 0.430000 0.195169
v 0.517372 0.380000 0.214303
vn 0.7002 0.7002 -0.1393
vn -0.7002 0.7002 0.1393
vn -0.7002 -0.7002 0.1393
vn 0.7002 -0.7002 -0.1393
vn 0.5936 0.7002 -0.3966
vn -0.5936 0.7002 0.3966
vn -0.5936 -0.7002 0.3966
vn 0.5936 -0.7002 -0.3966
vn 0.3966 0.7002 -0.5936
vn -0.3966 0.7002 0.5936
vn -0.3966 -0.7002 0.5936
vn 0.3966 -0.7002 -0.5936
vn 0.1393 0.7002 -0.7002
vn -0.1393 0.7002 0.7002
vn -0.1393 -0.7002 0.7002
vn 0.1393 -0.7002 -0.7002
vn -0.1393 0.7002 -0.7002
vn 0.1393 0.7002 0.7002
vn 0.1393 -0.7002 0.7002
vn -0.1393 -0.7002 -0.7002
vn -0.3966 0.7002 -0.5936
vn 0.3966 0.7002 0.5936
vn 0.3966 -0.7002 0.5936
vn -0.3966 -0.7002 -0.5936
vn -0.5936 0.7002 -0.3966
vn 0.5936 0.7002 0.3966
vn 0.5936 -0.7002 0.3966
vn -0.5936 -0.7002 -0.3966
vn -0.7002 0.7002 -0.1393
vn 0.7002 0.7002 0.1393
vn 0.7002 -0.7002 0.1393
vn -0.7002 -0.7002 -0.1393
vt 0.562500 0.500000
vt 0.500000 0.750000
vt 0.500000 0.500000
vt 0.562500 0.750000
vt 0.500000 1.000000
vt 0.562500 0.000000
vt 0.500000 0.250000
vt 0.500000 0.000000
vt 0.562500 0.250000
vt 0.625000 0.500000
vt 0.625000 0.750000
vt 0.562500 1.000000
vt 0.625000 0.250000
vt 0.687500 0.500000
vt 0.687500 0.750000
vt 0.625000 1.000000
vt 0.687500 0.000000
vt 0.625000 0.000000
vt 0.750000 0.500000
vt 0.750000 1.000000
vt 0.687500 1.000000
vt 0.750000 0.250000
vt 0.687500 0.250000
vt 0.812500 0.500000
vt 0.750000 0.750000
vt 0.812500 0.750000
vt 0.750000 0.000000
vt 0.812500 0.250000
vt 0.875000 0.500000
vt 0.875000 0.750000
vt 0.812500 1.000000
vt 0.812500 0.000000
vt 0.875000 0.250000
vt 0.937500 0.500000
vt 0.937500 1.000000
vt 0.875000 1.000000
vt 0.937500 0.000000
vt 0.875000 0.000000
vt 0.937500 0.250000
vt 1.000000 0.500000
vt 0.937500 0.750000
vt 1.000000 0.750000
vt 1.000000 0.000000
vt 1.000000 0.250000
vt 0.062500 0.500000
vt 0.000000 0.750000
vt 0.000000 0.500000
vt 0.062500 0.750000
vt 0.000000 1.000000
vt 0.062500 0.000000
vt 0.000000 0.250000
vt 0.000000 0.000000
vt 0.125000 0.500000
vt 0.125000 1.000000
vt 0.062500 1.000000
vt 0.125000 0.000000
vt 0.062500 0.250000
vt 0.187500 0.500000
vt 0.125000 0.750000
vt 0.187500 0.750000
vt 0.187500 0.000000
vt 0.125000 0.250000
vt 0.187500 0.250000
vt 0.250000 0.500000
vt 0.250000 1.000000
vt 0.187500 1.000000
vt 0.250000 0.000000
vt 0.250000 0.250000
vt 0.312500 0.500000
vt 0.250000 0.750000
vt 0.312500 0.750000
vt 0.312500 0.000000
vt 0.312500 0.250000
vt 0.375000 0.750000
vt 0.312500 1.000000
vt 0.375000 0.000000
vt 0.375000 0.250000
vt 0.375000 0.500000
vt 0.437500 0.750000
vt 0.375000 1.000000
vt 0.437500 0.250000
vt 0.437500 0.500000
vt 0.437500 1.000000
vt 0.437500 0.000000
vt 1.000000 1.000000
s 0
g Egg_Band2.002_MAT_OldGold
usemtl MAT_OldGold
f 69/86/33 66/87/33 65/88/33
f 70/89/34 67/90/34 66/87/34
f 71/91/35 68/92/35 67/93/35
f 72/94/36 65/88/36 68/92/36
f 73/95/37 70/89/37 69/86/37
f 74/96/38 71/97/38 70/89/38
f 71/91/39 76/98/39 72/94/39
f 72/94/40 73/95/40 69/86/40
f 77/99/41 74/96/41 73/95/41
f 78/100/42 75/101/42 74/96/42
f 79/102/43 76/98/43 75/103/43
f 76/98/44 77/99/44 73/95/44
f 81/104/45 78/100/45 77/99/45
f 78/100/46 83/105/46 79/106/46
f 79/102/47 84/107/47 80/108/47
f 80/108/48 81/104/48 77/99/48
f 85/109/49 82/110/49 81/104/49
f 86/111/50 83/105/50 82/110/50
f 83/112/51 88/113/51 84/107/51
f 88/113/52 81/104/52 84/107/52
f 89/114/53 86/111/53 85/109/53
f 90/115/54 87/116/54 86/111/54
f 87/117/55 92/118/55 88/113/55
f 92/118/56 85/109/56 88/113/56
f 93/119/57 90/115/57 89/114/57
f 90/115/58 95/120/58 91/121/58
f 95/122/59 92/118/59 91/123/59
f 96/124/60 89/114/60 92/118/60
f 97/125/61 94/126/61 93/119/61
f 98/127/62 95/120/62 94/126/62
f 99/128/63 96/124/63 95/122/63
f 100/129/64 93/119/64 96/124/64
f 101/130/34 98/131/34 97/132/34
f 102/133/33 99/134/33 98/131/33
f 103/135/36 100/136/36 99/137/36
f 100/136/35 101/130/35 97/132/35
f 105/138/38 102/133/38 101/130/38
f 102/133/37 107/139/37 103/140/37
f 107/141/40 104/142/40 103/135/40
f 104/142/39 105/138/39 101/130/39
f 109/143/42 106/144/42 105/138/42
f 110/145/41 107/139/41 106/144/41
f 111/146/44 108/147/44 107/141/44
f 112/148/43 105/138/43 108/147/43
f 113/149/46 110/145/46 109/143/46
f 110/145/45 115/150/45 111/151/45
f 115/152/48 112/148/48 111/146/48
f 116/153/47 109/143/47 112/148/47
f 117/154/50 114/155/50 113/149/50
f 118/156/49 115/150/49 114/155/49
f 119/157/52 116/153/52 115/152/52
f 120/158/51 113/149/51 116/153/51
f 117/154/54 122/159/54 118/156/54
f 122/159/53 119/160/53 118/156/53
f 123/161/56 120/158/56 119/157/56
f 124/162/55 117/154/55 120/158/55
f 121/163/58 126/164/58 122/159/58
f 126/164/57 123/165/57 122/159/57
f 123/161/60 128/166/60 124/162/60
f 128/166/59 121/163/59 124/162/59
f 125/167/62 66/87/62 126/164/62
f 66/87/61 127/168/61 126/164/61
f 67/93/64 128/166/64 127/169/64
f 68/92/63 125/167/63 128/166/63
f 69/86/33 70/89/33 66/87/33
f 70/89/34 71/97/34 67/90/34
f 71/91/35 72/94/35 68/92/35
f 72/94/36 69/86/36 65/88/36
f 73/95/37 74/96/37 70/89/37
f 74/96/38 75/101/38 71/97/38
f 71/91/39 75/103/39 76/98/39
f 72/94/40 76/98/40 73/95/40
f 77/99/41 78/100/41 74/96/41
f 78/100/42 79/106/42 75/101/42
f 79/102/43 80/108/43 76/98/43
f 76/98/44 80/108/44 77/99/44
f 81/104/45 82/110/45 78/100/45
f 78/100/46 82/110/46 83/105/46
f 79/102/47 83/112/47 84/107/47
f 80/108/48 84/107/48 81/104/48
f 85/109/49 86/111/49 82/110/49
f 86/111/50 87/116/50 83/105/50
f 83/112/51 87/117/51 88/113/51
f 88/113/52 85/109/52 81/104/52
f 89/114/53 90/115/53 86/111/53
f 90/115/54 91/121/54 87/116/54
f 87/117/55 91/123/55 92/118/55
f 92/118/56 89/114/56 85/109/56
f 93/119/57 94/126/57 90/115/57
f 90/115/58 94/126/58 95/120/58
f 95/122/59 96/124/59 92/118/59
f 96/124/60 93/119/60 89/114/60
f 97/125/61 98/127/61 94/126/61
f 98/127/62 99/170/62 95/120/62
f 99/128/63 100/129/63 96/124/63
f 100/129/64 97/125/64 93/119/64
f 101/130/34 102/133/34 98/131/34
f 102/133/33 103/140/33 99/134/33
f 103/135/36 104/142/36 100/136/36
f 100/136/35 104/142/35 101/130/35
f 105/138/38 106/144/38 102/133/38
f 102/133/37 106/144/37 107/139/37
f 107/141/40 108/147/40 104/142/40
f 104/142/39 108/147/39 105/138/39
f 109/143/42 110/145/42 106/144/42
f 110/145/41 111/151/41 107/139/41
f 111/146/44 112/148/44 108/147/44
f 112/148/43 109/143/43 105/138/43
f 113/149/46 114/155/46 110/145/46
f 110/145/45 114/155/45 115/150/45
f 115/152/48 116/153/48 112/148/48
f 116/153/47 113/149/47 109/143/47
f 117/154/50 118/156/50 114/155/50
f 118/156/49 119/160/49 115/150/49
f 119/157/52 120/158/52 116/153/52
f 120/158/51 117/154/51 113/149/51
f 117/154/54 121/163/54 122/159/54
f 122/159/53 123/165/53 119/160/53
f 123/161/56 124/162/56 120/158/56
f 124/162/55 121/163/55 117/154/55
f 121/163/58 125/167/58 126/164/58
f 126/164/57 127/168/57 123/165/57
f 123/161/60 127/169/60 128/166/60
f 128/166/59 125/167/59 121/163/59
f 125/167/62 65/88/62 66/87/62
f 66/87/61 67/90/61 127/168/61
f 67/93/64 68/92/64 128/166/64
f 68/92/63 65/88/63 125/167/63
g Egg_Body.002_Mesh
v 0.000000 1.180000 0.000000
v 0.000000 0.834386 -0.494975
v 0.000000 0.000000 -0.700000
v 0.000000 -1.180000 0.000000
v 0.149247 1.090178 -0.231990
v 0.275772 0.834386 -0.428661
v 0.360313 0.451566 -0.560072
v 0.390000 0.000000 -0.606218
v 0.360313 -0.451566 -0.560072
v 0.275772 -0.834386 -0.428661
v 0.149247 -1.090178 -0.231990
v 0.258503 1.090178 -0.133939
v 0.477650 0.834386 -0.247487
v 0.624080 0.451566 -0.323358
v 0.675500 0.000000 -0.350000
v 0.624080 -0.451566 -0.323358
v 0.477650 -0.834386 -0.247487
v 0.258503 -1.090178 -0.133939
v 0.298493 1.090178 0.000000
v 0.551543 0.834386 0.000000
v 0.720626 0.451566 0.000000
v 0.780000 0.000000 0.000000
v 0.720626 -0.451566 0.000000
v 0.551543 -0.834386 0.000000
v 0.298493 -1.090178 0.000000
v 0.258503 1.090178 0.133939
v 0.477650 0.834386 0.247487
v 0.624080 0.451566 0.323358
v 0.675500 0.000000 0.350000
v 0.624080 -0.451566 0.323358
v 0.477650 -0.834386 0.247487
v 0.258503 -1.090178 0.133939
v 0.149247 1.090178 0.231989
v 0.275772 0.834386 0.428661
v 0.360313 0.451566 0.560072
v 0.390000 0.000000 0.606218
v 0.360313 -0.451566 0.560072
v 0.275772 -0.834386 0.428661
v 0.149247 -1.090178 0.231989
v 0.000000 1.090178 0.267878
v -0.000000 0.834386 0.494975
v 0.000000 0.451566 0.646716
v 0.000000 0.000000 0.700000
v 0.000000 -0.451566 0.646716
v -0.000000 -0.834386 0.494975
v 0.000000 -1.090178 0.267878
v -0.149247 1.090178 0.231989
v -0.275772 0.834386 0.428661
v -0.360313 0.451566 0.560072
v -0.390000 0.000000 0.606218
v -0.360313 -0.451566 0.560072
v -0.275772 -0.834386 0.428661
v -0.149247 -1.090178 0.231989
v -0.258503 1.090178 0.133939
v -0.477650 0.834386 0.247487
v -0.624080 0.451566 0.323358
v -0.675500 0.000000 0.350000
v -0.624080 -0.451566 0.323358
v -0.477650 -0.834386 0.247487
v -0.258503 -1.090178 0.133939
v -0.298493 1.090178 0.000000
v -0.551543 0.834386 -0.000000
v -0.720626 0.451566 0.000000
v -0.780000 0.000000 0.000000
v -0.720626 -0.451566 0.000000
v -0.551543 -0.834386 -0.000000
v -0.298493 -1.090178 0.000000
v -0.258503 1.090178 -0.133939
v -0.477650 0.834386 -0.247487
v -0.624080 0.451566 -0.323358
v -0.675500 0.000000 -0.350000
v -0.624080 -0.451566 -0.323358
v -0.477650 -0.834386 -0.247487
v -0.258503 -1.090178 -0.133939
v -0.149247 1.090178 -0.231989
v -0.275772 0.834386 -0.428661
v -0.360313 0.451566 -0.560072
v -0.390000 0.000000 -0.606218
v -0.360313 -0.451566 -0.560072
v -0.275772 -0.834386 -0.428661
v -0.149247 -1.090178 -0.231989
v -0.000000 1.090178 -0.267878
v -0.000000 0.451566 -0.646716
v -0.000000 -0.451566 -0.646716
v 0.000000 -0.834386 -0.494975
v -0.000000 -1.090178 -0.267878
vn 0.1770 -0.6534 -0.7360
vn 0.2323 -0.1140 -0.9659
vn 0.2182 0.3596 -0.9072
vn 0.0762 0.9454 -0.3170
vn 0.0762 -0.9454 -0.3170
vn 0.2182 -0.3596 -0.9072
vn 0.2323 0.1140 -0.9659
vn 0.1770 0.6534 -0.7360
vn 0.6195 0.3738 -0.6903
vn 0.2092 0.9497 -0.2331
vn 0.2092 -0.9497 -0.2331
vn 0.6195 -0.3738 -0.6903
vn 0.6632 0.1191 -0.7389
vn 0.4958 0.6700 -0.5525
vn 0.4958 -0.6700 -0.5525
vn 0.6632 -0.1191 -0.7389
vn 0.2871 -0.9541 -0.0857
vn 0.8824 -0.3897 -0.2635
vn 0.9507 0.1250 -0.2838
vn 0.6954 0.6880 -0.2076
vn 0.6954 -0.6880 -0.2076
vn 0.9507 -0.1250 -0.2838
vn 0.8824 0.3897 -0.2635
vn 0.2871 0.9541 -0.0857
vn 0.6954 0.6880 0.2076
vn 0.6954 -0.6880 0.2076
vn 0.9507 -0.1250 0.2838
vn 0.8824 0.3897 0.2635
vn 0.2871 0.9541 0.0857
vn 0.2871 -0.9541 0.0857
vn 0.8824 -0.3897 0.2635
vn 0.9507 0.1250 0.2838
vn 0.4958 -0.6700 0.5525
vn 0.6632 -0.1191 0.7389
vn 0.6195 0.3738 0.6903
vn 0.2092 0.9497 0.2331
vn 0.2092 -0.9497 0.2331
vn 0.6195 -0.3738 0.6903
vn 0.6632 0.1191 0.7389
vn 0.4958 0.6700 0.5525
vn 0.0762 0.9454 0.3170
vn 0.0762 -0.9454 0.3170
vn 0.2182 -0.3596 0.9072
vn 0.2323 0.1140 0.9659
vn 0.1770 0.6534 0.7360
vn 0.1770 -0.6534 0.7360
vn 0.2323 -0.1140 0.9659
vn 0.2182 0.3596 0.9072
vn -0.2182 -0.3596 0.9072
vn -0.2323 0.1140 0.9659
vn -0.1770 0.6534 0.7360
vn -0.1770 -0.6534 0.7360
vn -0.2323 -0.1140 0.9659
vn -0.2182 0.3596 0.9072
vn -0.0762 0.9454 0.3170
vn -0.0762 -0.9454 0.3170
vn -0.4958 -0.6700 0.5525
vn -0.6632 -0.1191 0.7389
vn -0.6195 0.3738 0.6903
vn -0.2092 0.9497 0.2331
vn -0.2092 -0.9497 0.2331
vn -0.6195 -0.3738 0.6903
vn -0.6632 0.1191 0.7389
vn -0.4958 0.6700 0.5525
vn -0.9507 -0.1250 0.2838
vn -0.8824 0.3897 0.2635
vn -0.2871 0.9541 0.0857
vn -0.2871 -0.9541 0.0857
vn -0.8824 -0.3897 0.2635
vn -0.9507 0.1250 0.2838
vn -0.6954 0.6880 0.2076
vn -0.6954 -0.6880 0.2076
vn -0.2871 -0.9541 -0.0857
vn -0.8824 -0.3897 -0.2635
vn -0.9507 0.1250 -0.2838
vn -0.6954 0.6880 -0.2076
vn -0.6954 -0.6880 -0.2076
vn -0.9507 -0.1250 -0.2838
vn -0.8824 0.3897 -0.2635
vn -0.2871 0.9541 -0.0857
vn -0.6632 0.1191 -0.7389
vn -0.4958 0.6700 -0.5525
vn -0.4958 -0.6700 -0.5525
vn -0.6632 -0.1191 -0.7389
vn -0.6195 0.3738 -0.6903
vn -0.2092 0.9497 -0.2331
vn -0.2092 -0.9497 -0.2331
vn -0.6195 -0.3738 -0.6903
vn -0.1770 -0.6534 -0.7360
vn -0.2323 -0.1140 -0.9659
vn -0.2182 0.3596 -0.9072
vn -0.0762 0.9454 -0.3170
vn -0.0762 -0.9454 -0.3170
vn -0.2182 -0.3596 -0.9072
vn -0.2323 0.1140 -0.9659
vn -0.1770 0.6534 -0.7360
vt 0.750000 0.250000
vt 0.666667 0.125000
vt 0.750000 0.125000
vt 0.750000 0.500000
vt 0.666667 0.375000
vt 0.750000 0.375000
vt 0.750000 0.750000
vt 0.666667 0.625000
vt 0.750000 0.625000
vt 0.750000 0.875000
vt 0.708333 1.000000
vt 0.666667 0.875000
vt 0.708333 0.000000
vt 0.666667 0.250000
vt 0.666667 0.500000
vt 0.666667 0.750000
vt 0.583333 0.625000
vt 0.625000 1.000000
vt 0.583333 0.875000
vt 0.625000 0.000000
vt 0.583333 0.125000
vt 0.583333 0.250000
vt 0.583333 0.500000
vt 0.583333 0.750000
vt 0.583333 0.375000
vt 0.541667 0.000000
vt 0.500000 0.125000
vt 0.500000 0.250000
vt 0.500000 0.500000
vt 0.500000 0.750000
vt 0.500000 0.375000
vt 0.500000 0.625000
vt 0.541667 1.000000
vt 0.500000 0.875000
vt 0.416667 0.750000
vt 0.416667 0.125000
vt 0.416667 0.375000
vt 0.416667 0.625000
vt 0.458333 1.000000
vt 0.416667 0.875000
vt 0.458333 0.000000
vt 0.416667 0.250000
vt 0.416667 0.500000
vt 0.333333 0.125000
vt 0.333333 0.375000
vt 0.333333 0.625000
vt 0.375000 1.000000
vt 0.333333 0.875000
vt 0.375000 0.000000
vt 0.333333 0.250000
vt 0.333333 0.500000
vt 0.333333 0.750000
vt 0.291667 1.000000
vt 0.250000 0.875000
vt 0.291667 0.000000
vt 0.250000 0.125000
vt 0.250000 0.250000
vt 0.250000 0.500000
vt 0.250000 0.750000
vt 0.250000 0.375000
vt 0.250000 0.625000
vt 0.166667 0.250000
vt 0.166667 0.500000
vt 0.166667 0.750000
vt 0.166667 0.125000
vt 0.166667 0.375000
vt 0.166667 0.625000
vt 0.208333 1.000000
vt 0.166667 0.875000
vt 0.208333 0.000000
vt 0.083333 0.125000
vt 0.083333 0.375000
vt 0.083333 0.625000
vt 0.125000 1.000000
vt 0.083333 0.875000
vt 0.125000 0.000000
vt 0.083333 0.250000
vt 0.083333 0.500000
vt 0.083333 0.750000
vt 0.000000 0.375000
vt 0.000000 0.625000
vt 0.041667 1.000000
vt 0.000000 0.875000
vt 0.041667 0.000000
vt 0.000000 0.125000
vt 0.000000 0.250000
vt 0.000000 0.500000
vt 0.000000 0.750000
vt 0.958333 0.000000
vt 1.000000 0.125000
vt 0.916667 0.125000
vt 1.000000 0.250000
vt 0.916667 0.375000
vt 0.916667 0.250000
vt 1.000000 0.625000
vt 0.916667 0.500000
vt 1.000000 0.500000
vt 1.000000 0.750000
vt 0.916667 0.875000
vt 0.916667 0.750000
vt 1.000000 0.375000
vt 0.916667 0.625000
vt 1.000000 0.875000
vt 0.958333 1.000000
vt 0.833333 0.625000
vt 0.833333 0.500000
vt 0.833333 0.875000
vt 0.833333 0.750000
vt 0.833333 0.125000
vt 0.833333 0.375000
vt 0.875000 1.000000
vt 0.875000 0.000000
vt 0.833333 0.250000
vt 0.791667 1.000000
vt 0.791667 0.000000
s 0
g Egg_Body.002_MAT_Amethyst
usemtl MAT_Amethyst
f 213/171/65 139/172/65 214/173/65
f 131/174/66 137/175/66 212/176/66
f 130/177/67 135/178/67 211/179/67
f 210/180/68 129/181/68 133/182/68
f 132/183/69 214/173/69 139/172/69
f 213/171/70 137/175/70 138/184/70
f 131/174/71 135/178/71 136/185/71
f 210/180/72 134/186/72 130/177/72
f 134/186/73 142/187/73 135/178/73
f 133/182/74 129/188/74 140/189/74
f 132/190/75 139/172/75 146/191/75
f 137/175/76 145/192/76 138/184/76
f 135/178/77 143/193/77 136/185/77
f 133/182/78 141/194/78 134/186/78
f 138/184/79 146/191/79 139/172/79
f 136/185/80 144/195/80 137/175/80
f 132/196/81 146/191/81 153/197/81
f 144/195/82 152/198/82 145/192/82
f 142/187/83 150/199/83 143/193/83
f 140/189/84 148/200/84 141/194/84
f 146/191/85 152/198/85 153/197/85
f 144/195/86 150/199/86 151/201/86
f 141/194/87 149/202/87 142/187/87
f 140/189/88 129/203/88 147/204/88
f 147/204/89 155/205/89 148/200/89
f 152/198/90 160/206/90 153/197/90
f 150/199/91 158/207/91 151/201/91
f 148/200/92 156/208/92 149/202/92
f 147/204/93 129/209/93 154/210/93
f 132/211/94 153/197/94 160/206/94
f 152/198/95 158/207/95 159/212/95
f 150/199/96 156/208/96 157/213/96
f 159/212/97 167/214/97 160/206/97
f 157/213/98 165/215/98 158/207/98
f 155/205/99 163/216/99 156/208/99
f 154/210/100 129/217/100 161/218/100
f 132/219/101 160/206/101 167/214/101
f 159/212/102 165/215/102 166/220/102
f 156/208/103 164/221/103 157/213/103
f 155/205/104 161/218/104 162/222/104
f 161/218/105 129/223/105 168/224/105
f 132/225/106 167/214/106 174/226/106
f 165/215/107 173/227/107 166/220/107
f 163/216/108 171/228/108 164/221/108
f 162/222/109 168/224/109 169/229/109
f 166/220/110 174/226/110 167/214/110
f 164/221/111 172/230/111 165/215/111
f 162/222/112 170/231/112 163/216/112
f 172/230/113 180/232/113 173/227/113
f 170/231/114 178/233/114 171/228/114
f 168/224/115 176/234/115 169/229/115
f 173/227/116 181/235/116 174/226/116
f 171/228/117 179/236/117 172/230/117
f 169/229/118 177/237/118 170/231/118
f 168/224/119 129/238/119 175/239/119
f 132/240/120 174/226/120 181/235/120
f 180/232/121 188/241/121 181/235/121
f 178/233/122 186/242/122 179/236/122
f 176/234/123 184/243/123 177/237/123
f 175/239/124 129/244/124 182/245/124
f 132/246/125 181/235/125 188/241/125
f 180/232/126 186/242/126 187/247/126
f 177/237/127 185/248/127 178/233/127
f 176/234/128 182/245/128 183/249/128
f 185/248/129 193/250/129 186/242/129
f 183/249/130 191/251/130 184/243/130
f 182/245/131 129/252/131 189/253/131
f 132/254/132 188/241/132 195/255/132
f 187/247/133 193/250/133 194/256/133
f 184/243/134 192/257/134 185/248/134
f 183/249/135 189/253/135 190/258/135
f 187/247/136 195/255/136 188/241/136
f 132/259/137 195/260/137 202/261/137
f 194/262/138 200/263/138 201/264/138
f 191/265/139 199/266/139 192/267/139
f 190/268/140 196/269/140 197/270/140
f 194/262/141 202/261/141 195/260/141
f 192/267/142 200/263/142 193/271/142
f 190/268/143 198/272/143 191/265/143
f 189/273/144 129/274/144 196/269/144
f 199/266/145 205/275/145 206/276/145
f 197/270/146 203/277/146 204/278/146
f 201/264/147 209/279/147 202/261/147
f 199/266/148 207/280/148 200/263/148
f 197/270/149 205/275/149 198/272/149
f 196/269/150 129/281/150 203/277/150
f 132/282/151 202/261/151 209/279/151
f 201/264/152 207/280/152 208/283/152
f 208/283/153 214/173/153 209/279/153
f 206/276/154 212/176/154 207/280/154
f 204/278/155 211/179/155 205/275/155
f 203/277/156 129/284/156 210/180/156
f 132/285/157 209/279/157 214/173/157
f 208/283/158 212/176/158 213/171/158
f 205/275/159 131/174/159 206/276/159
f 204/278/160 210/180/160 130/177/160
f 213/171/65 138/184/65 139/172/65
f 131/174/66 136/185/66 137/175/66
f 130/177/67 134/186/67 135/178/67
f 213/171/70 212/176/70 137/175/70
f 131/174/71 211/179/71 135/178/71
f 210/180/72 133/182/72 134/186/72
f 134/186/73 141/194/73 142/187/73
f 137/175/76 144/195/76 145/192/76
f 135/178/77 142/187/77 143/193/77
f 133/182/78 140/189/78 141/194/78
f 138/184/79 145/192/79 146/191/79
f 136/185/80 143/193/80 144/195/80
f 144/195/82 151/201/82 152/198/82
f 142/187/83 149/202/83 150/199/83
f 140/189/84 147/204/84 148/200/84
f 146/191/85 145/192/85 152/198/85
f 144/195/86 143/193/86 150/199/86
f 141/194/87 148/200/87 149/202/87
f 147/204/89 154/210/89 155/205/89
f 152/198/90 159/212/90 160/206/90
f 150/199/91 157/213/91 158/207/91
f 148/200/92 155/205/92 156/208/92
f 152/198/95 151/201/95 158/207/95
f 150/199/96 149/202/96 156/208/96
f 159/212/97 166/220/97 167/214/97
f 157/213/98 164/221/98 165/215/98
f 155/205/99 162/222/99 163/216/99
f 159/212/102 158/207/102 165/215/102
f 156/208/103 163/216/103 164/221/103
f 155/205/104 154/210/104 161/218/104
f 165/215/107 172/230/107 173/227/107
f 163/216/108 170/231/108 171/228/108
f 162/222/109 161/218/109 168/224/109
f 166/220/110 173/227/110 174/226/110
f 164/221/111 171/228/111 172/230/111
f 162/222/112 169/229/112 170/231/112
f 172/230/113 179/236/113 180/232/113
f 170/231/114 177/237/114 178/233/114
f 168/224/115 175/239/115 176/234/115
f 173/227/116 180/232/116 181/235/116
f 171/228/117 178/233/117 179/236/117
f 169/229/118 176/234/118 177/237/118
f 180/232/121 187/247/121 188/241/121
f 178/233/122 185/248/122 186/242/122
f 176/234/123 183/249/123 184/243/123
f 180/232/126 179/236/126 186/242/126
f 177/237/127 184/243/127 185/248/127
f 176/234/128 175/239/128 182/245/128
f 185/248/129 192/257/129 193/250/129
f 183/249/130 190/258/130 191/251/130
f 187/247/133 186/242/133 193/250/133
f 184/243/134 191/251/134 192/257/134
f 183/249/135 182/245/135 189/253/135
f 187/247/136 194/256/136 195/255/136
f 194/262/138 193/271/138 200/263/138
f 191/265/139 198/272/139 199/266/139
f 190/268/140 189/273/140 196/269/140
f 194/262/141 201/264/141 202/261/141
f 192/267/142 199/266/142 200/263/142
f 190/268/143 197/270/143 198/272/143
f 199/266/145 198/272/145 205/275/145
f 197/270/146 196/269/146 203/277/146
f 201/264/147 208/283/147 209/279/147
f 199/266/148 206/276/148 207/280/148
f 197/270/149 204/278/149 205/275/149
f 201/264/152 200/263/152 207/280/152
f 208/283/153 213/171/153 214/173/153
f 206/276/154 131/174/154 212/176/154
f 204/278/155 130/177/155 211/179/155
f 208/283/158 207/280/158 212/176/158
f 205/275/159 211/179/159 131/174/159
f 204/278/160 203/277/160 210/180/160
g Egg_Node0.001_Mesh
v 0.550000 0.010000 0.000000
v 0.629596 0.070806 0.057829
v 0.519598 0.070806 0.093570
v 0.451613 0.070806 0.000000
v 0.519598 0.070806 -0.093570
v 0.629596 0.070806 -0.057829
v 0.580403 0.169194 0.093570
v 0.470404 0.169194 0.057829
v 0.470404 0.169194 -0.057829
v 0.580403 0.169194 -0.093570
v 0.648387 0.169194 0.000000
v 0.550000 0.230000 0.000000
vn 0.1876 -0.7947 0.5774
vn 0.6071 -0.7947 -0.0000
vn -0.4911 -0.7947 0.3568
vn -0.4911 -0.7947 -0.3568
vn 0.1876 -0.7947 -0.5774
vn 0.9822 -0.1876 -0.0000
vn 0.3035 -0.1876 0.9342
vn -0.7946 -0.1876 0.5774
vn -0.7946 -0.1876 -0.5774
vn 0.3035 -0.1876 -0.9342
vn 0.7946 0.1876 0.5774
vn -0.3035 0.1876 0.9342
vn -0.9822 0.1876 -0.0000
vn -0.3035 0.1876 -0.9342
vn 0.7946 0.1876 -0.5774
vn 0.4911 0.7947 0.3568
vn -0.1876 0.7947 0.5774
vn -0.6071 0.7947 -0.0000
vn -0.1876 0.7947 -0.5774
vn 0.4911 0.7947 -0.3568
vt 0.181819 0.000000
vt 0.272728 0.157461
vt 0.090910 0.157461
vt 0.363637 0.000000
vt 0.454546 0.157461
vt 0.909091 0.000000
vt 1.000000 0.157461
vt 0.818182 0.157461
vt 0.727273 0.000000
vt 0.636364 0.157461
vt 0.545455 0.000000
vt 0.363637 0.314921
vt 0.181819 0.314921
vt 0.909091 0.314921
vt 0.727273 0.314921
vt 0.545455 0.314921
vt 0.000000 0.314921
vt 0.272728 0.472382
vt 0.090910 0.472382
vt 0.818182 0.472382
vt 0.636364 0.472382
vt 0.454546 0.472382
s 0
g Egg_Node0.001_MAT_Teal
usemtl MAT_Teal
f 215/286/161 216/287/161 217/288/161
f 216/287/162 215/289/162 220/290/162
f 215/291/163 217/292/163 218/293/163
f 215/294/164 218/293/164 219/295/164
f 215/296/165 219/295/165 220/290/165
f 216/287/166 220/290/166 225/297/166
f 217/288/167 216/287/167 221/298/167
f 218/293/168 217/292/168 222/299/168
f 219/295/169 218/293/169 223/300/169
f 220/290/170 219/295/170 224/301/170
f 216/287/171 225/297/171 221/298/171
f 217/288/172 221/298/172 222/302/172
f 218/293/173 222/299/173 223/300/173
f 219/295/174 223/300/174 224/301/174
f 220/290/175 224/301/175 225/297/175
f 221/298/176 225/297/176 226/303/176
f 222/302/177 221/298/177 226/304/177
f 223/300/178 222/299/178 226/305/178
f 224/301/179 223/300/179 226/306/179
f 225/297/180 224/301/180 226/307/180
g Egg_Node1.001_Mesh
v 0.000000 0.010000 -0.550000
v 0.079596 0.070806 -0.492171
v -0.030402 0.070806 -0.456430
v -0.098387 0.070806 -0.550000
v -0.030402 0.070806 -0.643570
v 0.079596 0.070806 -0.607829
v 0.030402 0.169194 -0.456430
v -0.079596 0.169194 -0.492171
v -0.079596 0.169194 -0.607829
v 0.030402 0.169194 -0.643570
v 0.098387 0.169194 -0.550000
v 0.000000 0.230000 -0.550000
vn 0.1876 -0.7947 0.5774
vn 0.6071 -0.7947 -0.0000
vn -0.4911 -0.7947 0.3568
vn -0.4911 -0.7947 -0.3568
vn 0.1876 -0.7947 -0.5774
vn 0.9822 -0.1876 -0.0000
vn 0.3035 -0.1876 0.9342
vn -0.7946 -0.1876 0.5774
vn -0.7946 -0.1876 -0.5774
vn 0.3035 -0.1876 -0.9342
vn 0.7946 0.1876 0.5774
vn -0.3035 0.1876 0.9342
vn -0.9822 0.1876 -0.0000
vn -0.3035 0.1876 -0.9342
vn 0.7946 0.1876 -0.5774
vn 0.4911 0.7947 0.3568
vn -0.1876 0.7947 0.5774
vn -0.6071 0.7947 -0.0000
vn -0.1876 0.7947 -0.5774
vn 0.4911 0.7947 -0.3568
vt 0.181819 0.000000
vt 0.272728 0.157461
vt 0.090910 0.157461
vt 0.363637 0.000000
vt 0.454546 0.157461
vt 0.909091 0.000000
vt 1.000000 0.157461
vt 0.818182 0.157461
vt 0.727273 0.000000
vt 0.636364 0.157461
vt 0.545455 0.000000
vt 0.363637 0.314921
vt 0.181819 0.314921
vt 0.909091 0.314921
vt 0.727273 0.314921
vt 0.545455 0.314921
vt 0.000000 0.314921
vt 0.272728 0.472382
vt 0.090910 0.472382
vt 0.818182 0.472382
vt 0.636364 0.472382
vt 0.454546 0.472382
s 0
g Egg_Node1.001_MAT_Teal
usemtl MAT_Teal
f 227/308/181 228/309/181 229/310/181
f 228/309/182 227/311/182 232/312/182
f 227/313/183 229/314/183 230/315/183
f 227/316/184 230/315/184 231/317/184
f 227/318/185 231/317/185 232/312/185
f 228/309/186 232/312/186 237/319/186
f 229/310/187 228/309/187 233/320/187
f 230/315/188 229/314/188 234/321/188
f 231/317/189 230/315/189 235/322/189
f 232/312/190 231/317/190 236/323/190
f 228/309/191 237/319/191 233/320/191
f 229/310/192 233/320/192 234/324/192
f 230/315/193 234/321/193 235/322/193
f 231/317/194 235/322/194 236/323/194
f 232/312/195 236/323/195 237/319/195
f 233/320/196 237/319/196 238/325/196
f 234/324/197 233/320/197 238/326/197
f 235/322/198 234/321/198 238/327/198
f 236/323/199 235/322/199 238/328/199
f 237/319/200 236/323/200 238/329/200
g Egg_Node2.001_Mesh
v -0.550000 0.010000 -0.000000
v -0.470404 0.070806 0.057829
v -0.580403 0.070806 0.093570
v -0.648387 0.070806 -0.000000
v -0.580403 0.070806 -0.093570
v -0.470404 0.070806 -0.057829
v -0.519598 0.169194 0.093570
v -0.629596 0.169194 0.057829
v -0.629596 0.169194 -0.057829
v -0.519598 0.169194 -0.093570
v -0.451613 0.169194 -0.000000
v -0.550000 0.230000 -0.000000
vn 0.1876 -0.7947 0.5774
vn 0.6071 -0.7947 -0.0000
vn -0.4911 -0.7947 0.3568
vn -0.4911 -0.7947 -0.3568
vn 0.1876 -0.7947 -0.5774
vn 0.9822 -0.1876 -0.0000
vn 0.3035 -0.1876 0.9342
vn -0.7946 -0.1876 0.5774
vn -0.7946 -0.1876 -0.5774
vn 0.3035 -0.1876 -0.9342
vn 0.7946 0.1876 0.5774
vn -0.3035 0.1876 0.9342
vn -0.9822 0.1876 -0.0000
vn -0.3035 0.1876 -0.9342
vn 0.7946 0.1876 -0.5774
vn 0.4911 0.7947 0.3568
vn -0.1876 0.7947 0.5774
vn -0.6071 0.7947 -0.0000
vn -0.1876 0.7947 -0.5774
vn 0.4911 0.7947 -0.3568
vt 0.181819 0.000000
vt 0.272728 0.157461
vt 0.090910 0.157461
vt 0.363637 0.000000
vt 0.454546 0.157461
vt 0.909091 0.000000
vt 1.000000 0.157461
vt 0.818182 0.157461
vt 0.727273 0.000000
vt 0.636364 0.157461
vt 0.545455 0.000000
vt 0.363637 0.314921
vt 0.181819 0.314921
vt 0.909091 0.314921
vt 0.727273 0.314921
vt 0.545455 0.314921
vt 0.000000 0.314921
vt 0.272728 0.472382
vt 0.090910 0.472382
vt 0.818182 0.472382
vt 0.636364 0.472382
vt 0.454546 0.472382
s 0
g Egg_Node2.001_MAT_Teal
usemtl MAT_Teal
f 239/330/201 240/331/201 241/332/201
f 240/331/202 239/333/202 244/334/202
f 239/335/203 241/336/203 242/337/203
f 239/338/204 242/337/204 243/339/204
f 239/340/205 243/339/205 244/334/205
f 240/331/206 244/334/206 249/341/206
f 241/332/207 240/331/207 245/342/207
f 242/337/208 241/336/208 246/343/208
f 243/339/209 242/337/209 247/344/209
f 244/334/210 243/339/210 248/345/210
f 240/331/211 249/341/211 245/342/211
f 241/332/212 245/342/212 246/346/212
f 242/337/213 246/343/213 247/344/213
f 243/339/214 247/344/214 248/345/214
f 244/334/215 248/345/215 249/341/215
f 245/342/216 249/341/216 250/347/216
f 246/346/217 245/342/217 250/348/217
f 247/344/218 246/343/218 250/349/218
f 248/345/219 247/344/219 250/350/219
f 249/341/220 248/345/220 250/351/220
g Egg_Node3.001_Mesh
v 0.000000 0.010000 0.550000
v 0.079596 0.070806 0.607829
v -0.030402 0.070806 0.643570
v -0.098387 0.070806 0.550000
v -0.030402 0.070806 0.456430
v 0.079596 0.070806 0.492171
v 0.030402 0.169194 0.643570
v -0.079596 0.169194 0.607829
v -0.079596 0.169194 0.492171
v 0.030402 0.169194 0.456430
v 0.098387 0.169194 0.550000
v 0.000000 0.230000 0.550000
vn 0.1876 -0.7947 0.5774
vn 0.6071 -0.7947 -0.0000
vn -0.4911 -0.7947 0.3568
vn -0.4911 -0.7947 -0.3568
vn 0.1876 -0.7947 -0.5774
vn 0.9822 -0.1876 -0.0000
vn 0.3035 -0.1876 0.9342
vn -0.7946 -0.1876 0.5774
vn -0.7946 -0.1876 -0.5774
vn 0.3035 -0.1876 -0.9342
vn 0.7946 0.1876 0.5774
vn -0.3035 0.1876 0.9342
vn -0.9822 0.1876 -0.0000
vn -0.3035 0.1876 -0.9342
vn 0.7946 0.1876 -0.5774
vn 0.4911 0.7947 0.3568
vn -0.1876 0.7947 0.5774
vn -0.6071 0.7947 -0.0000
vn -0.1876 0.7947 -0.5774
vn 0.4911 0.7947 -0.3568
vt 0.181819 0.000000
vt 0.272728 0.157461
vt 0.090910 0.157461
vt 0.363637 0.000000
vt 0.454546 0.157461
vt 0.909091 0.000000
vt 1.000000 0.157461
vt 0.818182 0.157461
vt 0.727273 0.000000
vt 0.636364 0.157461
vt 0.545455 0.000000
vt 0.363637 0.314921
vt 0.181819 0.314921
vt 0.909091 0.314921
vt 0.727273 0.314921
vt 0.545455 0.314921
vt 0.000000 0.314921
vt 0.272728 0.472382
vt 0.090910 0.472382
vt 0.818182 0.472382
vt 0.636364 0.472382
vt 0.454546 0.472382
s 0
g Egg_Node3.001_MAT_Teal
usemtl MAT_Teal
f 251/352/221 252/353/221 253/354/221
f 252/353/222 251/355/222 256/356/222
f 251/357/223 253/358/223 254/359/223
f 251/360/224 254/359/224 255/361/224
f 251/362/225 255/361/225 256/356/225
f 252/353/226 256/356/226 261/363/226
f 253/354/227 252/353/227 257/364/227
f 254/359/228 253/358/228 258/365/228
f 255/361/229 254/359/229 259/366/229
f 256/356/230 255/361/230 260/367/230
f 252/353/231 261/363/231 257/364/231
f 253/354/232 257/364/232 258/368/232
f 254/359/233 258/365/233 259/366/233
f 255/361/234 259/366/234 260/367/234
f 256/356/235 260/367/235 261/363/235
f 257/364/236 261/363/236 262/369/236
f 258/368/237 257/364/237 262/370/237
f 259/366/238 258/365/238 262/371/238
f 260/367/239 259/366/239 262/372/239
f 261/363/240 260/367/240 262/373/240
g Egg_Pulse.001_Mesh
v 0.000000 -0.190000 0.700000
v 0.130248 -0.057331 0.742058
v -0.049749 -0.057331 0.768051
v -0.160996 -0.057331 0.700000
v -0.049749 -0.057331 0.631949
v 0.130248 -0.057331 0.657942
v 0.049749 0.157332 0.768051
v -0.130248 0.157332 0.742058
v -0.130248 0.157332 0.657942
v 0.049749 0.157332 0.631949
v 0.160996 0.157332 0.700000
v 0.000000 0.290000 0.700000
vn 0.1301 -0.4135 0.9012
vn 0.7136 -0.7006 -0.0000
vn -0.4409 -0.5350 0.7207
vn -0.4409 -0.5350 -0.7207
vn 0.1301 -0.4135 -0.9012
vn 0.9899 -0.1418 -0.0000
vn 0.1426 -0.0661 0.9876
vn -0.5196 -0.0920 0.8494
vn -0.5196 -0.0920 -0.8494
vn 0.1426 -0.0661 -0.9876
vn 0.5196 0.0920 0.8494
vn -0.1426 0.0661 0.9876
vn -0.9899 0.1418 -0.0000
vn -0.1426 0.0661 -0.9876
vn 0.5196 0.0920 -0.8494
vn 0.4409 0.5350 0.7207
vn -0.1301 0.4135 0.9012
vn -0.7136 0.7006 -0.0000
vn -0.1301 0.4135 -0.9012
vn 0.4409 0.5350 -0.7207
vt 0.181819 0.000000
vt 0.272728 0.157461
vt 0.090910 0.157461
vt 0.363637 0.000000
vt 0.454546 0.157461
vt 0.909091 0.000000
vt 1.000000 0.157461
vt 0.818182 0.157461
vt 0.727273 0.000000
vt 0.636364 0.157461
vt 0.545455 0.000000
vt 0.363637 0.314921
vt 0.181819 0.314921
vt 0.909091 0.314921
vt 0.727273 0.314921
vt 0.545455 0.314921
vt 0.000000 0.314921
vt 0.272728 0.472382
vt 0.090910 0.472382
vt 0.818182 0.472382
vt 0.636364 0.472382
vt 0.454546 0.472382
s 0
g Egg_Pulse.001_MAT_Teal
usemtl MAT_Teal
f 263/374/241 264/375/241 265/376/241
f 264/375/242 263/377/242 268/378/242
f 263/379/243 265/380/243 266/381/243
f 263/382/244 266/381/244 267/383/244
f 263/384/245 267/383/245 268/378/245
f 264/375/246 268/378/246 273/385/246
f 265/376/247 264/375/247 269/386/247
f 266/381/248 265/380/248 270/387/248
f 267/383/249 266/381/249 271/388/249
f 268/378/250 267/383/250 272/389/250
f 264/375/251 273/385/251 269/386/251
f 265/376/252 269/386/252 270/390/252
f 266/381/253 270/387/253 271/388/253
f 267/383/254 271/388/254 272/389/254
f 268/378/255 272/389/255 273/385/255
f 269/386/256 273/385/256 274/391/256
f 270/390/257 269/386/257 274/392/257
f 271/388/258 270/387/258 274/393/258
f 272/389/259 271/388/259 274/394/259
f 273/385/260 272/389/260 274/395/260
