# food cohort: composed from tools/asset-production/parts.py
# generated by tools/asset-production/lathe.py
mtllib food_cohort.mtl
o pizza
v 0.820000 -0.110000 0.000000
v 0.786784 -0.110000 0.231021
v 0.689828 -0.110000 0.443325
v 0.536986 -0.110000 0.619715
v 0.340640 -0.110000 0.745898
v 0.116698 -0.110000 0.811654
v -0.116698 -0.110000 0.811654
v -0.340640 -0.110000 0.745898
v -0.536986 -0.110000 0.619715
v -0.689828 -0.110000 0.443325
v -0.786784 -0.110000 0.231021
v -0.820000 -0.110000 0.000000
v -0.786784 -0.110000 -0.231021
v -0.689828 -0.110000 -0.443325
v -0.536986 -0.110000 -0.619715
v -0.340640 -0.110000 -0.745898
v -0.116698 -0.110000 -0.811654
v 0.116698 -0.110000 -0.811654
v 0.340640 -0.110000 -0.745898
v 0.536986 -0.110000 -0.619715
v 0.689828 -0.110000 -0.443325
v 0.786784 -0.110000 -0.231021
v 0.880000 -0.050000 0.000000
v 0.844354 -0.050000 0.247925
v 0.740303 -0.050000 0.475764
v 0.576277 -0.050000 0.665060
v 0.365565 -0.050000 0.800476
v 0.125237 -0.050000 0.871043
v -0.125237 -0.050000 0.871043
v -0.365565 -0.050000 0.800476
v -0.576277 -0.050000 0.665060
v -0.740303 -0.050000 0.475764
v -0.844354 -0.050000 0.247925
v -0.880000 -0.050000 0.000000
v -0.844354 -0.050000 -0.247925
v -0.740303 -0.050000 -0.475764
v -0.576277 -0.050000 -0.665060
v -0.365565 -0.050000 -0.800476
v -0.125237 -0.050000 -0.871043
v 0.125237 -0.050000 -0.871043
v 0.365565 -0.050000 -0.800476
v 0.576277 -0.050000 -0.665060
v 0.740303 -0.050000 -0.475764
v 0.844354 -0.050000 -0.247925
v 0.880000 0.050000 0.000000
v 0.844354 0.050000 0.247925
v 0.740303 0.050000 0.475764
v 0.576277 0.050000 0.665060
v 0.365565 0.050000 0.800476
v 0.125237 0.050000 0.871043
v -0.125237 0.050000 0.871043
v -0.365565 0.050000 0.800476
v -0.576277 0.050000 0.665060
v -0.740303 0.050000 0.475764
v -0.844354 0.050000 0.247925
v -0.880000 0.050000 0.000000
v -0.844354 0.050000 -0.247925
v -0.740303 0.050000 -0.475764
v -0.576277 0.050000 -0.665060
v -0.365565 0.050000 -0.800476
v -0.125237 0.050000 -0.871043
v 0.125237 0.050000 -0.871043
v 0.365565 0.050000 -0.800476
v 0.576277 0.050000 -0.665060
v 0.740303 0.050000 -0.475764
v 0.844354 0.050000 -0.247925
v 0.820000 0.110000 0.000000
v 0.786784 0.110000 0.231021
v 0.689828 0.110000 0.443325
v 0.536986 0.110000 0.619715
v 0.340640 0.110000 0.745898
v 0.116698 0.110000 0.811654
v -0.116698 0.110000 0.811654
v -0.340640 0.110000 0.745898
v -0.536986 0.110000 0.619715
v -0.689828 0.110000 0.443325
v -0.786784 0.110000 0.231021
v -0.820000 0.110000 0.000000
v -0.786784 0.110000 -0.231021
v -0.689828 0.110000 -0.443325
v -0.536986 0.110000 -0.619715
v -0.340640 0.110000 -0.745898
v -0.116698 0.110000 -0.811654
v 0.116698 0.110000 -0.811654
v 0.340640 0.110000 -0.745898
v 0.536986 0.110000 -0.619715
v 0.689828 0.110000 -0.443325
v 0.786784 0.110000 -0.231021
v 0.000000 -0.110000 0.000000
v 0.000000 0.110000 0.000000
v 1.000000 0.000000 0.000000
v 0.959493 0.000000 0.281733
v 0.841254 0.000000 0.540641
v 0.654861 0.000000 0.755750
v 0.415415 0.000000 0.909632
v 0.142315 0.000000 0.989821
v -0.142315 0.000000 0.989821
v -0.415415 0.000000 0.909632
v -0.654861 0.000000 0.755750
v -0.841254 0.000000 0.540641
v -0.959493 0.000000 0.281733
v -1.000000 0.000000 0.000000
v -0.959493 0.000000 -0.281733
v -0.841254 0.000000 -0.540641
v -0.654861 0.000000 -0.755750
v -0.415415 0.000000 -0.909632
v -0.142315 0.000000 -0.989821
v 0.142315 0.000000 -0.989821
v 0.415415 0.000000 -0.909632
v 0.654861 0.000000 -0.755750
v 0.841254 0.000000 -0.540641
v 0.959493 0.000000 -0.281733
v 0.978564 0.080000 0.000000
v 0.938925 0.080000 0.275693
v 0.823220 0.080000 0.529052
v 0.640823 0.080000 0.739549
v 0.406510 0.080000 0.890133
v 0.139264 0.080000 0.968604
v -0.139264 0.080000 0.968604
v -0.406510 0.080000 0.890133
v -0.640823 0.080000 0.739549
v -0.823220 0.080000 0.529052
v -0.938925 0.080000 0.275693
v -0.978564 0.080000 0.000000
v -0.938925 0.080000 -0.275693
v -0.823220 0.080000 -0.529052
v -0.640823 0.080000 -0.739549
v -0.406510 0.080000 -0.890133
v -0.139264 0.080000 -0.968604
v 0.139264 0.080000 -0.968604
v 0.406510 0.080000 -0.890133
v 0.640823 0.080000 -0.739549
v 0.823220 0.080000 -0.529052
v 0.938925 0.080000 -0.275693
v 0.920000 0.138564 0.000000
v 0.882734 0.138564 0.259194
v 0.773953 0.138564 0.497390
v 0.602472 0.138564 0.695290
v 0.382182 0.138564 0.836861
v 0.130930 0.138564 0.910636
v -0.130930 0.138564 0.910636
v -0.382182 0.138564 0.836861
v -0.602472 0.138564 0.695290
v -0.773953 0.138564 0.497390
v -0.882734 0.138564 0.259194
v -0.920000 0.138564 0.000000
v -0.882734 0.138564 -0.259194
v -0.773953 0.138564 -0.497390
v -0.602472 0.138564 -0.695290
v -0.382182 0.138564 -0.836861
v -0.130930 0.138564 -0.910636
v 0.130930 0.138564 -0.910636
v 0.382182 0.138564 -0.836861
v 0.602472 0.138564 -0.695290
v 0.773953 0.138564 -0.497390
v 0.882734 0.138564 -0.259194
v 0.840000 0.160000 0.000000
v 0.805974 0.160000 0.236655
v 0.706653 0.160000 0.454138
v 0.550083 0.160000 0.634830
v 0.348949 0.160000 0.764091
v 0.119544 0.160000 0.831450
v -0.119544 0.160000 0.831450
v -0.348949 0.160000 0.764091
v -0.550083 0.160000 0.634830
v -0.706653 0.160000 0.454138
v -0.805974 0.160000 0.236655
v -0.840000 0.160000 0.000000
v -0.805974 0.160000 -0.236655
v -0.706653 0.160000 -0.454138
v -0.550083 0.160000 -0.634830
v -0.348949 0.160000 -0.764091
v -0.119544 0.160000 -0.831450
v 0.119544 0.160000 -0.831450
v 0.348949 0.160000 -0.764091
v 0.550083 0.160000 -0.634830
v 0.706653 0.160000 -0.454138
v 0.805974 0.160000 -0.236655
v 0.760000 0.138564 0.000000
v 0.729215 0.138564 0.214117
v 0.639353 0.138564 0.410887
v 0.497694 0.138564 0.574370
v 0.315715 0.138564 0.691320
v 0.108159 0.138564 0.752264
v -0.108159 0.138564 0.752264
v -0.315715 0.138564 0.691320
v -0.497694 0.138564 0.574370
v -0.639353 0.138564 0.410887
v -0.729215 0.138564 0.214117
v -0.760000 0.138564 0.000000
v -0.729215 0.138564 -0.214117
v -0.639353 0.138564 -0.410887
v -0.497694 0.138564 -0.574370
v -0.315715 0.138564 -0.691320
v -0.108159 0.138564 -0.752264
v 0.108159 0.138564 -0.752264
v 0.315715 0.138564 -0.691320
v 0.497694 0.138564 -0.574370
v 0.639353 0.138564 -0.410887
v 0.729215 0.138564 -0.214117
v 0.701436 0.080000 0.000000
v 0.673023 0.080000 0.197617
v 0.590085 0.080000 0.379225
v 0.459343 0.080000 0.530110
v 0.291387 0.080000 0.638049
v 0.099825 0.080000 0.694296
v -0.099825 0.080000 0.694296
v -0.291387 0.080000 0.638049
v -0.459343 0.080000 0.530110
v -0.590085 0.080000 0.379225
v -0.673023 0.080000 0.197617
v -0.701436 0.080000 0.000000
v -0.673023 0.080000 -0.197617
v -0.590085 0.080000 -0.379225
v -0.459343 0.080000 -0.530110
v -0.291387 0.080000 -0.638049
v -0.099825 0.080000 -0.694296
v 0.099825 0.080000 -0.694296
v 0.291387 0.080000 -0.638049
v 0.459343 0.080000 -0.530110
v 0.590085 0.080000 -0.379225
v 0.673023 0.080000 -0.197617
v 0.680000 0.000000 0.000000
v 0.652455 0.000000 0.191578
v 0.572052 0.000000 0.367636
v 0.445305 0.000000 0.513910
v 0.282482 0.000000 0.618550
v 0.096774 0.000000 0.673079
v -0.096774 0.000000 0.673079
v -0.282482 0.000000 0.618550
v -0.445305 0.000000 0.513910
v -0.572052 0.000000 0.367636
v -0.652455 0.000000 0.191578
v -0.680000 0.000000 0.000000
v -0.652455 0.000000 -0.191578
v -0.572052 0.000000 -0.367636
v -0.445305 0.000000 -0.513910
v -0.282482 0.000000 -0.618550
v -0.096774 0.000000 -0.673079
v 0.096774 0.000000 -0.673079
v 0.282482 0.000000 -0.618550
v 0.445305 0.000000 -0.513910
v 0.572052 0.000000 -0.367636
v 0.652455 0.000000 -0.191578
v 0.701436 -0.080000 0.000000
v 0.673023 -0.080000 0.197617
v 0.590085 -0.080000 0.379225
v 0.459343 -0.080000 0.530110
v 0.291387 -0.080000 0.638049
v 0.099825 -0.080000 0.694296
v -0.099825 -0.080000 0.694296
v -0.291387 -0.080000 0.638049
v -0.459343 -0.080000 0.530110
v -0.590085 -0.080000 0.379225
v -0.673023 -0.080000 0.197617
v -0.701436 -0.080000 0.000000
v -0.673023 -0.080000 -0.197617
v -0.590085 -0.080000 -0.379225
v -0.459343 -0.080000 -0.530110
v -0.291387 -0.080000 -0.638049
v -0.099825 -0.080000 -0.694296
v 0.099825 -0.080000 -0.694296
v 0.291387 -0.080000 -0.638049
v 0.459343 -0.080000 -0.530110
v 0.590085 -0.080000 -0.379225
v 0.673023 -0.080000 -0.197617
v 0.760000 -0.138564 0.000000
v 0.729215 -0.138564 0.214117
v 0.639353 -0.138564 0.410887
v 0.497694 -0.138564 0.574370
v 0.315715 -0.138564 0.691320
v 0.108159 -0.138564 0.752264
v -0.108159 -0.138564 0.752264
v -0.315715 -0.138564 0.691320
v -0.497694 -0.138564 0.574370
v -0.639353 -0.138564 0.410887
v -0.729215 -0.138564 0.214117
v -0.760000 -0.138564 0.000000
v -0.729215 -0.138564 -0.214117
v -0.639353 -0.138564 -0.410887
v -0.497694 -0.138564 -0.574370
v -0.315715 -0.138564 -0.691320
v -0.108159 -0.138564 -0.752264
v 0.108159 -0.138564 -0.752264
v 0.315715 -0.138564 -0.691320
v 0.497694 -0.138564 -0.574370
v 0.639353 -0.138564 -0.410887
v 0.729215 -0.138564 -0.214117
v 0.840000 -0.160000 0.000000
v 0.805974 -0.160000 0.236655
v 0.706653 -0.160000 0.454138
v 0.550083 -0.160000 0.634830
v 0.348949 -0.160000 0.764091
v 0.119544 -0.160000 0.831450
v -0.119544 -0.160000 0.831450
v -0.348949 -0.160000 0.764091
v -0.550083 -0.160000 0.634830
v -0.706653 -0.160000 0.454138
v -0.805974 -0.160000 0.236655
v -0.840000 -0.160000 0.000000
v -0.805974 -0.160000 -0.236655
v -0.706653 -0.160000 -0.454138
v -0.550083 -0.160000 -0.634830
v -0.348949 -0.160000 -0.764091
v -0.119544 -0.160000 -0.831450
v 0.119544 -0.160000 -0.831450
v 0.348949 -0.160000 -0.764091
v 0.550083 -0.160000 -0.634830
v 0.706653 -0.160000 -0.454138
v 0.805974 -0.160000 -0.236655
v 0.920000 -0.138564 0.000000
v 0.882734 -0.138564 0.259194
v 0.773953 -0.138564 0.497390
v 0.602472 -0.138564 0.695290
v 0.382182 -0.138564 0.836861
v 0.130930 -0.138564 0.910636
v -0.130930 -0.138564 0.910636
v -0.382182 -0.138564 0.836861
v -0.602472 -0.138564 0.695290
v -0.773953 -0.138564 0.497390
v -0.882734 -0.138564 0.259194
v -0.920000 -0.138564 0.000000
v -0.882734 -0.138564 -0.259194
v -0.773953 -0.138564 -0.497390
v -0.602472 -0.138564 -0.695290
v -0.382182 -0.138564 -0.836861
v -0.130930 -0.138564 -0.910636
v 0.130930 -0.138564 -0.910636
v 0.382182 -0.138564 -0.836861
v 0.602472 -0.138564 -0.695290
v 0.773953 -0.138564 -0.497390
v 0.882734 -0.138564 -0.259194
v 0.978564 -0.080000 0.000000
v 0.938925 -0.080000 0.275693
v 0.823220 -0.080000 0.529052
v 0.640823 -0.080000 0.739549
v 0.406510 -0.080000 0.890133
v 0.139264 -0.080000 0.968604
v -0.139264 -0.080000 0.968604
v -0.406510 -0.080000 0.890133
v -0.640823 -0.080000 0.739549
v -0.823220 -0.080000 0.529052
v -0.938925 -0.080000 0.275693
v -0.978564 -0.080000 0.000000
v -0.938925 -0.080000 -0.275693
v -0.823220 -0.080000 -0.529052
v -0.640823 -0.080000 -0.739549
v -0.406510 -0.080000 -0.890133
v -0.139264 -0.080000 -0.968604
v 0.139264 -0.080000 -0.968604
v 0.406510 -0.080000 -0.890133
v 0.640823 -0.080000 -0.739549
v 0.823220 -0.080000 -0.529052
v 0.938925 -0.080000 -0.275693
v 1.000000 0.000000 0.000000
v 0.959493 0.000000 0.281733
v 0.841254 0.000000 0.540641
v 0.654861 0.000000 0.755750
v 0.415415 0.000000 0.909632
v 0.142315 0.000000 0.989821
v -0.142315 0.000000 0.989821
v -0.415415 0.000000 0.909632
v -0.654861 0.000000 0.755750
v -0.841254 0.000000 0.540641
v -0.959493 0.000000 0.281733
v -1.000000 0.000000 0.000000
v -0.959493 0.000000 -0.281733
v -0.841254 0.000000 -0.540641
v -0.654861 0.000000 -0.755750
v -0.415415 0.000000 -0.909632
v -0.142315 0.000000 -0.989821
v 0.142315 0.000000 -0.989821
v 0.415415 0.000000 -0.909632
v 0.654861 0.000000 -0.755750
v 0.841254 0.000000 -0.540641
v 0.959493 0.000000 -0.281733
v 0.740000 0.100000 0.000000
v 0.703782 0.100000 0.228673
v 0.598673 0.100000 0.434961
v 0.434961 0.100000 0.598673
v 0.228673 0.100000 0.703782
v 0.000000 0.100000 0.740000
v -0.228673 0.100000 0.703782
v -0.434961 0.100000 0.598673
v -0.598673 0.100000 0.434961
v -0.703782 0.100000 0.228673
v -0.740000 0.100000 0.000000
v -0.703782 0.100000 -0.228673
v -0.598673 0.100000 -0.434961
v -0.434961 0.100000 -0.598673
v -0.228673 0.100000 -0.703782
v -0.000000 0.100000 -0.740000
v 0.228673 0.100000 -0.703782
v 0.434961 0.100000 -0.598673
v 0.598673 0.100000 -0.434961
v 0.703782 0.100000 -0.228673
v 0.740000 0.160000 0.000000
v 0.703782 0.160000 0.228673
v 0.598673 0.160000 0.434961
v 0.434961 0.160000 0.598673
v 0.228673 0.160000 0.703782
v 0.000000 0.160000 0.740000
v -0.228673 0.160000 0.703782
v -0.434961 0.160000 0.598673
v -0.598673 0.160000 0.434961
v -0.703782 0.160000 0.228673
v -0.740000 0.160000 0.000000
v -0.703782 0.160000 -0.228673
v -0.598673 0.160000 -0.434961
v -0.434961 0.160000 -0.598673
v -0.228673 0.160000 -0.703782
v -0.000000 0.160000 -0.740000
v 0.228673 0.160000 -0.703782
v 0.434961 0.160000 -0.598673
v 0.598673 0.160000 -0.434961
v 0.703782 0.160000 -0.228673
v 0.000000 0.100000 0.000000
v 0.000000 0.160000 0.000000
v 0.590000 0.160000 0.000000
v 0.533523 0.160000 0.117275
v 0.406622 0.160000 0.146239
v 0.304855 0.160000 0.065083
v 0.304855 0.160000 -0.065083
v 0.406622 0.160000 -0.146239
v 0.533523 0.160000 -0.117275
v 0.586912 0.185882 0.000000
v 0.531598 0.185882 0.114860
v 0.407309 0.185882 0.143229
v 0.307637 0.185882 0.063743
v 0.307637 0.185882 -0.063743
v 0.407309 0.185882 -0.143229
v 0.531598 0.185882 -0.114860
v 0.577597 0.210000 0.000000
v 0.525790 0.210000 0.107578
v 0.409382 0.210000 0.134147
v 0.316029 0.210000 0.059701
v 0.316029 0.210000 -0.059701
v 0.409382 0.210000 -0.134147
v 0.525790 0.210000 -0.107578
v 0.561838 0.230711 0.000000
v 0.515965 0.230711 0.095257
v 0.412889 0.230711 0.118783
v 0.330228 0.230711 0.052863
v 0.330228 0.230711 -0.052863
v 0.412889 0.230711 -0.118783
v 0.515965 0.230711 -0.095257
v 0.538963 0.246603 0.000000
v 0.501702 0.246603 0.077372
v 0.417979 0.246603 0.096482
v 0.350837 0.246603 0.042938
v 0.350837 0.246603 -0.042938
v 0.417979 0.246603 -0.096482
v 0.501702 0.246603 -0.077372
v 0.506664 0.256593 0.000000
v 0.481564 0.256593 0.052120
v 0.425166 0.256593 0.064992
v 0.379938 0.256593 0.028924
v 0.379938 0.256593 -0.028924
v 0.425166 0.256593 -0.064992
v 0.481564 0.256593 -0.052120
v 0.440000 0.260000 0.000000
v 0.440000 0.160000 0.000000
v 0.393304 0.180265 0.416151
v 0.335683 0.180265 0.535802
v 0.206210 0.180265 0.565353
v 0.102381 0.180265 0.482552
v 0.102381 0.180265 0.349749
v 0.206210 0.180265 0.266948
v 0.335683 0.180265 0.296499
v 0.390154 0.206671 0.416151
v 0.333719 0.206671 0.533339
v 0.206911 0.206671 0.562282
v 0.105219 0.206671 0.481185
v 0.105219 0.206671 0.351116
v 0.206911 0.206671 0.270020
v 0.333719 0.206671 0.298963
v 0.380650 0.231278 0.416151
v 0.327794 0.231278 0.525909
v 0.209026 0.231278 0.553017
v 0.113782 0.231278 0.477062
v 0.113782 0.231278 0.355240
v 0.209026 0.231278 0.279285
v 0.327794 0.231278 0.306393
v 0.364572 0.252408 0.416151
v 0.317769 0.252408 0.513338
v 0.212604 0.252408 0.537341
v 0.128268 0.252408 0.470085
v 0.128268 0.252408 0.362216
v 0.212604 0.252408 0.294960
v 0.317769 0.252408 0.318964
v 0.341233 0.268622 0.416151
v 0.303218 0.268622 0.495091
v 0.217797 0.268622 0.514588
v 0.149295 0.268622 0.459959
v 0.149295 0.268622 0.372342
v 0.217797 0.268622 0.317714
v 0.303218 0.268622 0.337210
v 0.308279 0.278815 0.416151
v 0.282671 0.278815 0.469327
v 0.225130 0.278815 0.482460
v 0.178986 0.278815 0.445661
v 0.178986 0.278815 0.386640
v 0.225130 0.278815 0.349841
v 0.282671 0.278815 0.362975
v 0.240265 0.282291 0.416151
v 0.240265 0.180265 0.416151
v -0.044598 0.130115 0.329289
v -0.099386 0.130115 0.443059
v -0.222495 0.130115 0.471157
v -0.321221 0.130115 0.392426
v -0.321221 0.130115 0.266151
v -0.222495 0.130115 0.187420
v -0.099386 0.130115 0.215519
v -0.047593 0.155223 0.329289
v -0.101254 0.155223 0.440716
v -0.221829 0.155223 0.468237
v -0.318522 0.155223 0.391126
v -0.318522 0.155223 0.267451
v -0.221829 0.155223 0.190340
v -0.101254 0.155223 0.217861
v -0.056630 0.178621 0.329289
v -0.106888 0.178621 0.433651
v -0.219818 0.178621 0.459427
v -0.310381 0.178621 0.387206
v -0.310381 0.178621 0.271372
v -0.219818 0.178621 0.199150
v -0.106888 0.178621 0.224926
v -0.071918 0.198712 0.329289
v -0.116420 0.198712 0.421699
v -0.216416 0.198712 0.444522
v -0.296606 0.198712 0.380572
v -0.296606 0.198712 0.278005
v -0.216416 0.198712 0.214055
v -0.116420 0.198712 0.236879
v -0.094109 0.214129 0.329289
v -0.130256 0.214129 0.404349
v -0.211478 0.214129 0.422887
v -0.276613 0.214129 0.370944
v -0.276613 0.214129 0.287633
v -0.211478 0.214129 0.235690
v -0.130256 0.214129 0.254228
v -0.125443 0.223821 0.329289
v -0.149793 0.223821 0.379851
v -0.204506 0.223821 0.392339
v -0.248382 0.223821 0.357348
v -0.248382 0.223821 0.301229
v -0.204506 0.223821 0.266239
v -0.149793 0.223821 0.278726
v -0.190115 0.227126 0.329289
v -0.190115 0.130115 0.329289
v -0.334045 0.183808 0.000000
v -0.391866 0.183808 0.120067
v -0.521789 0.183808 0.149721
v -0.625979 0.183808 0.066632
v -0.625979 0.183808 -0.066632
v -0.521789 0.183808 -0.149721
v -0.391866 0.183808 -0.120067
v -0.337206 0.210306 0.000000
v -0.393837 0.210306 0.117595
v -0.521085 0.210306 0.146639
v -0.623131 0.210306 0.065260
v -0.623131 0.210306 -0.065260
v -0.521085 0.210306 -0.146639
v -0.393837 0.210306 -0.117595
v -0.346743 0.234998 0.000000
v -0.399783 0.234998 0.110139
v -0.518963 0.234998 0.137341
v -0.614538 0.234998 0.061123
v -0.614538 0.234998 -0.061123
v -0.518963 0.234998 -0.137341
v -0.399783 0.234998 -0.110139
v -0.362877 0.256202 0.000000
v -0.409843 0.256202 0.097525
v -0.515373 0.256202 0.121611
v -0.600002 0.256202 0.054122
v -0.600002 0.256202 -0.054122
v -0.515373 0.256202 -0.121611
v -0.409843 0.256202 -0.097525
v -0.386297 0.272472 0.000000
v -0.424445 0.272472 0.079215
v -0.510162 0.272472 0.098779
v -0.578901 0.272472 0.043961
v -0.578901 0.272472 -0.043961
v -0.510162 0.272472 -0.098779
v -0.424445 0.272472 -0.079215
v -0.419365 0.282700 0.000000
v -0.445062 0.282700 0.053361
v -0.502803 0.282700 0.066540
v -0.549108 0.282700 0.029613
v -0.549108 0.282700 -0.029613
v -0.502803 0.282700 -0.066540
v -0.445062 0.282700 -0.053361
v -0.487616 0.286189 0.000000
v -0.487616 0.183808 0.000000
v -0.065558 0.154775 -0.372000
v -0.121740 0.154775 -0.255339
v -0.247978 0.154775 -0.226525
v -0.349214 0.154775 -0.307258
v -0.349214 0.154775 -0.436743
v -0.247978 0.154775 -0.517475
v -0.121740 0.154775 -0.488662
v -0.068630 0.180521 -0.372000
v -0.123655 0.180521 -0.257740
v -0.247295 0.180521 -0.229520
v -0.346446 0.180521 -0.308591
v -0.346446 0.180521 -0.435410
v -0.247295 0.180521 -0.514481
v -0.123655 0.180521 -0.486261
v -0.077896 0.204513 -0.372000
v -0.129432 0.204513 -0.264985
v -0.245233 0.204513 -0.238554
v -0.338098 0.204513 -0.312611
v -0.338098 0.204513 -0.431390
v -0.245233 0.204513 -0.505447
v -0.129432 0.204513 -0.479016
v -0.093573 0.225116 -0.372000
v -0.139207 0.225116 -0.277242
v -0.241744 0.225116 -0.253838
v -0.323973 0.225116 -0.319413
v -0.323973 0.225116 -0.424588
v -0.241744 0.225116 -0.490163
v -0.139207 0.225116 -0.466759
v -0.116329 0.240925 -0.372000
v -0.153395 0.240925 -0.295032
v -0.236681 0.240925 -0.276023
v -0.303471 0.240925 -0.329286
v -0.303471 0.240925 -0.414715
v -0.236681 0.240925 -0.467978
v -0.153395 0.240925 -0.448969
v -0.148459 0.250862 -0.372000
v -0.173428 0.250862 -0.320153
v -0.229531 0.250862 -0.307348
v -0.274523 0.250862 -0.343227
v -0.274523 0.250862 -0.400774
v -0.229531 0.250862 -0.436653
v -0.173428 0.250862 -0.423848
v -0.214775 0.254252 -0.372000
v -0.214775 0.154775 -0.372000
v 0.351483 0.143898 -0.353162
v 0.295916 0.143898 -0.237776
v 0.171057 0.143898 -0.209277
v 0.070929 0.143898 -0.289127
v 0.070929 0.143898 -0.417197
v 0.171057 0.143898 -0.497046
v 0.295916 0.143898 -0.468548
v 0.348445 0.169363 -0.353162
v 0.294021 0.169363 -0.240151
v 0.171734 0.169363 -0.212239
v 0.073666 0.169363 -0.290446
v 0.073666 0.169363 -0.415878
v 0.171734 0.169363 -0.494084
v 0.294021 0.169363 -0.466173
v 0.339280 0.193093 -0.353162
v 0.288307 0.193093 -0.247316
v 0.173773 0.193093 -0.221175
v 0.081923 0.193093 -0.294422
v 0.081923 0.193093 -0.411902
v 0.173773 0.193093 -0.485149
v 0.288307 0.193093 -0.459008
v 0.323774 0.213470 -0.353162
v 0.278640 0.213470 -0.259439
v 0.177223 0.213470 -0.236291
v 0.095894 0.213470 -0.301150
v 0.095894 0.213470 -0.405174
v 0.177223 0.213470 -0.470032
v 0.278640 0.213470 -0.446885
v 0.301268 0.229106 -0.353162
v 0.264607 0.229106 -0.277035
v 0.182231 0.229106 -0.258234
v 0.116171 0.229106 -0.310915
v 0.116171 0.229106 -0.395409
v 0.182231 0.229106 -0.448090
v 0.264607 0.229106 -0.429289
v 0.269488 0.238935 -0.353162
v 0.244793 0.238935 -0.301881
v 0.189303 0.238935 -0.289216
v 0.144803 0.238935 -0.324703
v 0.144803 0.238935 -0.381620
v 0.189303 0.238935 -0.417108
v 0.244793 0.238935 -0.404442
v 0.203898 0.242288 -0.353162
v 0.203898 0.143898 -0.353162
vt 0.000000 0.000000
vt 0.045455 0.000000
vt 0.090909 0.000000
vt 0.136364 0.000000
vt 0.181818 0.000000
vt 0.227273 0.000000
vt 0.272727 0.000000
vt 0.318182 0.000000
vt 0.363636 0.000000
vt 0.409091 0.000000
vt 0.454545 0.000000
vt 0.500000 0.000000
vt 0.545455 0.000000
vt 0.590909 0.000000
vt 0.636364 0.000000
vt 0.681818 0.000000
vt 0.727273 0.000000
vt 0.772727 0.000000
vt 0.818182 0.000000
vt 0.863636 0.000000
vt 0.909091 0.000000
vt 0.954545 0.000000
vt 0.000000 0.314613
vt 0.045455 0.314613
vt 0.090909 0.314613
vt 0.136364 0.314613
vt 0.181818 0.314613
vt 0.227273 0.314613
vt 0.272727 0.314613
vt 0.318182 0.314613
vt 0.363636 0.314613
vt 0.409091 0.314613
vt 0.454545 0.314613
vt 0.500000 0.314613
vt 0.545455 0.314613
vt 0.590909 0.314613
vt 0.636364 0.314613
vt 0.681818 0.314613
vt 0.727273 0.314613
vt 0.772727 0.314613
vt 0.818182 0.314613
vt 0.863636 0.314613
vt 0.909091 0.314613
vt 0.954545 0.314613
vt 0.000000 0.685387
vt 0.045455 0.685387
vt 0.090909 0.685387
vt 0.136364 0.685387
vt 0.181818 0.685387
vt 0.227273 0.685387
vt 0.272727 0.685387
vt 0.318182 0.685387
vt 0.363636 0.685387
vt 0.409091 0.685387
vt 0.454545 0.685387
vt 0.500000 0.685387
vt 0.545455 0.685387
vt 0.590909 0.685387
vt 0.636364 0.685387
vt 0.681818 0.685387
vt 0.727273 0.685387
vt 0.772727 0.685387
vt 0.818182 0.685387
vt 0.863636 0.685387
vt 0.909091 0.685387
vt 0.954545 0.685387
vt 0.000000 1.000000
vt 0.045455 1.000000
vt 0.090909 1.000000
vt 0.136364 1.000000
vt 0.181818 1.000000
vt 0.227273 1.000000
vt 0.272727 1.000000
vt 0.318182 1.000000
vt 0.363636 1.000000
vt 0.409091 1.000000
vt 0.454545 1.000000
vt 0.500000 1.000000
vt 0.545455 1.000000
vt 0.590909 1.000000
vt 0.636364 1.000000
vt 0.681818 1.000000
vt 0.727273 1.000000
vt 0.772727 1.000000
vt 0.818182 1.000000
vt 0.863636 1.000000
vt 0.909091 1.000000
vt 0.954545 1.000000
vt 0.500000 0.000000
vt 0.500000 1.000000
vt 0.000000 0.000000
vt 0.045455 0.000000
vt 0.090909 0.000000
vt 0.136364 0.000000
vt 0.181818 0.000000
vt 0.227273 0.000000
vt 0.272727 0.000000
vt 0.318182 0.000000
vt 0.363636 0.000000
vt 0.409091 0.000000
vt 0.454545 0.000000
vt 0.500000 0.000000
vt 0.545455 0.000000
vt 0.590909 0.000000
vt 0.636364 0.000000
vt 0.681818 0.000000
vt 0.727273 0.000000
vt 0.772727 0.000000
vt 0.818182 0.000000
vt 0.863636 0.000000
vt 0.909091 0.000000
vt 0.954545 0.000000
vt 0.000000 0.083333
vt 0.045455 0.083333
vt 0.090909 0.083333
vt 0.136364 0.083333
vt 0.181818 0.083333
vt 0.227273 0.083333
vt 0.272727 0.083333
vt 0.318182 0.083333
vt 0.363636 0.083333
vt 0.409091 0.083333
vt 0.454545 0.083333
vt 0.500000 0.083333
vt 0.545455 0.083333
vt 0.590909 0.083333
vt 0.636364 0.083333
vt 0.681818 0.083333
vt 0.727273 0.083333
vt 0.772727 0.083333
vt 0.818182 0.083333
vt 0.863636 0.083333
vt 0.909091 0.083333
vt 0.954545 0.083333
vt 0.000000 0.166667
vt 0.045455 0.166667
vt 0.090909 0.166667
vt 0.136364 0.166667
vt 0.181818 0.166667
vt 0.227273 0.166667
vt 0.272727 0.166667
vt 0.318182 0.166667
vt 0.363636 0.166667
vt 0.409091 0.166667
vt 0.454545 0.166667
vt 0.500000 0.166667
vt 0.545455 0.166667
vt 0.590909 0.166667
vt 0.636364 0.166667
vt 0.681818 0.166667
vt 0.727273 0.166667
vt 0.772727 0.166667
vt 0.818182 0.166667
vt 0.863636 0.166667
vt 0.909091 0.166667
vt 0.954545 0.166667
vt 0.000000 0.250000
vt 0.045455 0.250000
vt 0.090909 0.250000
vt 0.136364 0.250000
vt 0.181818 0.250000
vt 0.227273 0.250000
vt 0.272727 0.250000
vt 0.318182 0.250000
vt 0.363636 0.250000
vt 0.409091 0.250000
vt 0.454545 0.250000
vt 0.500000 0.250000
vt 0.545455 0.250000
vt 0.590909 0.250000
vt 0.636364 0.250000
vt 0.681818 0.250000
vt 0.727273 0.250000
vt 0.772727 0.250000
vt 0.818182 0.250000
vt 0.863636 0.250000
vt 0.909091 0.250000
vt 0.954545 0.250000
vt 0.000000 0.333333
vt 0.045455 0.333333
vt 0.090909 0.333333
vt 0.136364 0.333333
vt 0.181818 0.333333
vt 0.227273 0.333333
vt 0.272727 0.333333
vt 0.318182 0.333333
vt 0.363636 0.333333
vt 0.409091 0.333333
vt 0.454545 0.333333
vt 0.500000 0.333333
vt 0.545455 0.333333
vt 0.590909 0.333333
vt 0.636364 0.333333
vt 0.681818 0.333333
vt 0.727273 0.333333
vt 0.772727 0.333333
vt 0.818182 0.333333
vt 0.863636 0.333333
vt 0.909091 0.333333
vt 0.954545 0.333333
vt 0.000000 0.416667
vt 0.045455 0.416667
vt 0.090909 0.416667
vt 0.136364 0.416667
vt 0.181818 0.416667
vt 0.227273 0.416667
vt 0.272727 0.416667
vt 0.318182 0.416667
vt 0.363636 0.416667
vt 0.409091 0.416667
vt 0.454545 0.416667
vt 0.500000 0.416667
vt 0.545455 0.416667
vt 0.590909 0.416667
vt 0.636364 0.416667
vt 0.681818 0.416667
vt 0.727273 0.416667
vt 0.772727 0.416667
vt 0.818182 0.416667
vt 0.863636 0.416667
vt 0.909091 0.416667
vt 0.954545 0.416667
vt 0.000000 0.500000
vt 0.045455 0.500000
vt 0.090909 0.500000
vt 0.136364 0.500000
vt 0.181818 0.500000
vt 0.227273 0.500000
vt 0.272727 0.500000
vt 0.318182 0.500000
vt 0.363636 0.500000
vt 0.409091 0.500000
vt 0.454545 0.500000
vt 0.500000 0.500000
vt 0.545455 0.500000
vt 0.590909 0.500000
vt 0.636364 0.500000
vt 0.681818 0.500000
vt 0.727273 0.500000
vt 0.772727 0.500000
vt 0.818182 0.500000
vt 0.863636 0.500000
vt 0.909091 0.500000
vt 0.954545 0.500000
vt 0.000000 0.583333
vt 0.045455 0.583333
vt 0.090909 0.583333
vt 0.136364 0.583333
vt 0.181818 0.583333
vt 0.227273 0.583333
vt 0.272727 0.583333
vt 0.318182 0.583333
vt 0.363636 0.583333
vt 0.409091 0.583333
vt 0.454545 0.583333
vt 0.500000 0.583333
vt 0.545455 0.583333
vt 0.590909 0.583333
vt 0.636364 0.583333
vt 0.681818 0.583333
vt 0.727273 0.583333
vt 0.772727 0.583333
vt 0.818182 0.583333
vt 0.863636 0.583333
vt 0.909091 0.583333
vt 0.954545 0.583333
vt 0.000000 0.666667
vt 0.045455 0.666667
vt 0.090909 0.666667
vt 0.136364 0.666667
vt 0.181818 0.666667
vt 0.227273 0.666667
vt 0.272727 0.666667
vt 0.318182 0.666667
vt 0.363636 0.666667
vt 0.409091 0.666667
vt 0.454545 0.666667
vt 0.500000 0.666667
vt 0.545455 0.666667
vt 0.590909 0.666667
vt 0.636364 0.666667
vt 0.681818 0.666667
vt 0.727273 0.666667
vt 0.772727 0.666667
vt 0.818182 0.666667
vt 0.863636 0.666667
vt 0.909091 0.666667
vt 0.954545 0.666667
vt 0.000000 0.750000
vt 0.045455 0.750000
vt 0.090909 0.750000
vt 0.136364 0.750000
vt 0.181818 0.750000
vt 0.227273 0.750000
vt 0.272727 0.750000
vt 0.318182 0.750000
vt 0.363636 0.750000
vt 0.409091 0.750000
vt 0.454545 0.750000
vt 0.500000 0.750000
vt 0.545455 0.750000
vt 0.590909 0.750000
vt 0.636364 0.750000
vt 0.681818 0.750000
vt 0.727273 0.750000
vt 0.772727 0.750000
vt 0.818182 0.750000
vt 0.863636 0.750000
vt 0.909091 0.750000
vt 0.954545 0.750000
vt 0.000000 0.833333
vt 0.045455 0.833333
vt 0.090909 0.833333
vt 0.136364 0.833333
vt 0.181818 0.833333
vt 0.227273 0.833333
vt 0.272727 0.833333
vt 0.318182 0.833333
vt 0.363636 0.833333
vt 0.409091 0.833333
vt 0.454545 0.833333
vt 0.500000 0.833333
vt 0.545455 0.833333
vt 0.590909 0.833333
vt 0.636364 0.833333
vt 0.681818 0.833333
vt 0.727273 0.833333
vt 0.772727 0.833333
vt 0.818182 0.833333
vt 0.863636 0.833333
vt 0.909091 0.833333
vt 0.954545 0.833333
vt 0.000000 0.916667
vt 0.045455 0.916667
vt 0.090909 0.916667
vt 0.136364 0.916667
vt 0.181818 0.916667
vt 0.227273 0.916667
vt 0.272727 0.916667
vt 0.318182 0.916667
vt 0.363636 0.916667
vt 0.409091 0.916667
vt 0.454545 0.916667
vt 0.500000 0.916667
vt 0.545455 0.916667
vt 0.590909 0.916667
vt 0.636364 0.916667
vt 0.681818 0.916667
vt 0.727273 0.916667
vt 0.772727 0.916667
vt 0.818182 0.916667
vt 0.863636 0.916667
vt 0.909091 0.916667
vt 0.954545 0.916667
vt 0.000000 1.000000
vt 0.045455 1.000000
vt 0.090909 1.000000
vt 0.136364 1.000000
vt 0.181818 1.000000
vt 0.227273 1.000000
vt 0.272727 1.000000
vt 0.318182 1.000000
vt 0.363636 1.000000
vt 0.409091 1.000000
vt 0.454545 1.000000
vt 0.500000 1.000000
vt 0.545455 1.000000
vt 0.590909 1.000000
vt 0.636364 1.000000
vt 0.681818 1.000000
vt 0.727273 1.000000
vt 0.772727 1.000000
vt 0.818182 1.000000
vt 0.863636 1.000000
vt 0.909091 1.000000
vt 0.954545 1.000000
vt 0.000000 0.000000
vt 0.050000 0.000000
vt 0.100000 0.000000
vt 0.150000 0.000000
vt 0.200000 0.000000
vt 0.250000 0.000000
vt 0.300000 0.000000
vt 0.350000 0.000000
vt 0.400000 0.000000
vt 0.450000 0.000000
vt 0.500000 0.000000
vt 0.550000 0.000000
vt 0.600000 0.000000
vt 0.650000 0.000000
vt 0.700000 0.000000
vt 0.750000 0.000000
vt 0.800000 0.000000
vt 0.850000 0.000000
vt 0.900000 0.000000
vt 0.950000 0.000000
vt 0.000000 1.000000
vt 0.050000 1.000000
vt 0.100000 1.000000
vt 0.150000 1.000000
vt 0.200000 1.000000
vt 0.250000 1.000000
vt 0.300000 1.000000
vt 0.350000 1.000000
vt 0.400000 1.000000
vt 0.450000 1.000000
vt 0.500000 1.000000
vt 0.550000 1.000000
vt 0.600000 1.000000
vt 0.650000 1.000000
vt 0.700000 1.000000
vt 0.750000 1.000000
vt 0.800000 1.000000
vt 0.850000 1.000000
vt 0.900000 1.000000
vt 0.950000 1.000000
vt 0.500000 0.000000
vt 0.500000 1.000000
vt 0.000000 0.000000
vt 0.142857 0.000000
vt 0.285714 0.000000
vt 0.428571 0.000000
vt 0.571429 0.000000
vt 0.714286 0.000000
vt 0.857143 0.000000
vt 0.000000 0.126312
vt 0.142857 0.126312
vt 0.285714 0.126312
vt 0.428571 0.126312
vt 0.571429 0.126312
vt 0.714286 0.126312
vt 0.857143 0.126312
vt 0.000000 0.251601
vt 0.142857 0.251601
vt 0.285714 0.251601
vt 0.428571 0.251601
vt 0.571429 0.251601
vt 0.714286 0.251601
vt 0.857143 0.251601
vt 0.000000 0.377716
vt 0.142857 0.377716
vt 0.285714 0.377716
vt 0.428571 0.377716
vt 0.571429 0.377716
vt 0.714286 0.377716
vt 0.857143 0.377716
vt 0.000000 0.512692
vt 0.142857 0.512692
vt 0.285714 0.512692
vt 0.428571 0.512692
vt 0.571429 0.512692
vt 0.714286 0.512692
vt 0.857143 0.512692
vt 0.000000 0.676529
vt 0.142857 0.676529
vt 0.285714 0.676529
vt 0.428571 0.676529
vt 0.571429 0.676529
vt 0.714286 0.676529
vt 0.857143 0.676529
vt 0.000000 1.000000
vt 0.166667 1.000000
vt 0.333333 1.000000
vt 0.500000 1.000000
vt 0.666667 1.000000
vt 0.833333 1.000000
vt 1.000000 1.000000
vt 0.500000 0.000000
vt 0.000000 0.000000
vt 0.142857 0.000000
vt 0.285714 0.000000
vt 0.428571 0.000000
vt 0.571429 0.000000
vt 0.714286 0.000000
vt 0.857143 0.000000
vt 0.000000 0.126312
vt 0.142857 0.126312
vt 0.285714 0.126312
vt 0.428571 0.126312
vt 0.571429 0.126312
vt 0.714286 0.126312
vt 0.857143 0.126312
vt 0.000000 0.251601
vt 0.142857 0.251601
vt 0.285714 0.251601
vt 0.428571 0.251601
vt 0.571429 0.251601
vt 0.714286 0.251601
vt 0.857143 0.251601
vt 0.000000 0.377716
vt 0.142857 0.377716
vt 0.285714 0.377716
vt 0.428571 0.377716
vt 0.571429 0.377716
vt 0.714286 0.377716
vt 0.857143 0.377716
vt 0.000000 0.512692
vt 0.142857 0.512692
vt 0.285714 0.512692
vt 0.428571 0.512692
vt 0.571429 0.512692
vt 0.714286 0.512692
vt 0.857143 0.512692
vt 0.000000 0.676529
vt 0.142857 0.676529
vt 0.285714 0.676529
vt 0.428571 0.676529
vt 0.571429 0.676529
vt 0.714286 0.676529
vt 0.857143 0.676529
vt 0.000000 1.000000
vt 0.166667 1.000000
vt 0.333333 1.000000
vt 0.500000 1.000000
vt 0.666667 1.000000
vt 0.833333 1.000000
vt 1.000000 1.000000
vt 0.500000 0.000000
vt 0.000000 0.000000
vt 0.142857 0.000000
vt 0.285714 0.000000
vt 0.428571 0.000000
vt 0.571429 0.000000
vt 0.714286 0.000000
vt 0.857143 0.000000
vt 0.000000 0.126312
vt 0.142857 0.126312
vt 0.285714 0.126312
vt 0.428571 0.126312
vt 0.571429 0.126312
vt 0.714286 0.126312
vt 0.857143 0.126312
vt 0.000000 0.251601
vt 0.142857 0.251601
vt 0.285714 0.251601
vt 0.428571 0.251601
vt 0.571429 0.251601
vt 0.714286 0.251601
vt 0.857143 0.251601
vt 0.000000 0.377716
vt 0.142857 0.377716
vt 0.285714 0.377716
vt 0.428571 0.377716
vt 0.571429 0.377716
vt 0.714286 0.377716
vt 0.857143 0.377716
vt 0.000000 0.512692
vt 0.142857 0.512692
vt 0.285714 0.512692
vt 0.428571 0.512692
vt 0.571429 0.512692
vt 0.714286 0.512692
vt 0.857143 0.512692
vt 0.000000 0.676529
vt 0.142857 0.676529
vt 0.285714 0.676529
vt 0.428571 0.676529
vt 0.571429 0.676529
vt 0.714286 0.676529
vt 0.857143 0.676529
vt 0.000000 1.000000
vt 0.166667 1.000000
vt 0.333333 1.000000
vt 0.500000 1.000000
vt 0.666667 1.000000
vt 0.833333 1.000000
vt 1.000000 1.000000
vt 0.500000 0.000000
vt 0.000000 0.000000
vt 0.142857 0.000000
vt 0.285714 0.000000
vt 0.428571 0.000000
vt 0.571429 0.000000
vt 0.714286 0.000000
vt 0.857143 0.000000
vt 0.000000 0.126312
vt 0.142857 0.126312
vt 0.285714 0.126312
vt 0.428571 0.126312
vt 0.571429 0.126312
vt 0.714286 0.126312
vt 0.857143 0.126312
vt 0.000000 0.251601
vt 0.142857 0.251601
vt 0.285714 0.251601
vt 0.428571 0.251601
vt 0.571429 0.251601
vt 0.714286 0.251601
vt 0.857143 0.251601
vt 0.000000 0.377716
vt 0.142857 0.377716
vt 0.285714 0.377716
vt 0.428571 0.377716
vt 0.571429 0.377716
vt 0.714286 0.377716
vt 0.857143 0.377716
vt 0.000000 0.512692
vt 0.142857 0.512692
vt 0.285714 0.512692
vt 0.428571 0.512692
vt 0.571429 0.512692
vt 0.714286 0.512692
vt 0.857143 0.512692
vt 0.000000 0.676529
vt 0.142857 0.676529
vt 0.285714 0.676529
vt 0.428571 0.676529
vt 0.571429 0.676529
vt 0.714286 0.676529
vt 0.857143 0.676529
vt 0.000000 1.000000
vt 0.166667 1.000000
vt 0.333333 1.000000
vt 0.500000 1.000000
vt 0.666667 1.000000
vt 0.833333 1.000000
vt 1.000000 1.000000
vt 0.500000 0.000000
vt 0.000000 0.000000
vt 0.142857 0.000000
vt 0.285714 0.000000
vt 0.428571 0.000000
vt 0.571429 0.000000
vt 0.714286 0.000000
vt 0.857143 0.000000
vt 0.000000 0.126312
vt 0.142857 0.126312
vt 0.285714 0.126312
vt 0.428571 0.126312
vt 0.571429 0.126312
vt 0.714286 0.126312
vt 0.857143 0.126312
vt 0.000000 0.251601
vt 0.142857 0.251601
vt 0.285714 0.251601
vt 0.428571 0.251601
vt 0.571429 0.251601
vt 0.714286 0.251601
vt 0.857143 0.251601
vt 0.000000 0.377716
vt 0.142857 0.377716
vt 0.285714 0.377716
vt 0.428571 0.377716
vt 0.571429 0.377716
vt 0.714286 0.377716
vt 0.857143 0.377716
vt 0.000000 0.512692
vt 0.142857 0.512692
vt 0.285714 0.512692
vt 0.428571 0.512692
vt 0.571429 0.512692
vt 0.714286 0.512692
vt 0.857143 0.512692
vt 0.000000 0.676529
vt 0.142857 0.676529
vt 0.285714 0.676529
vt 0.428571 0.676529
vt 0.571429 0.676529
vt 0.714286 0.676529
vt 0.857143 0.676529
vt 0.000000 1.000000
vt 0.166667 1.000000
vt 0.333333 1.000000
vt 0.500000 1.000000
vt 0.666667 1.000000
vt 0.833333 1.000000
vt 1.000000 1.000000
vt 0.500000 0.000000
vt 0.000000 0.000000
vt 0.142857 0.000000
vt 0.285714 0.000000
vt 0.428571 0.000000
vt 0.571429 0.000000
vt 0.714286 0.000000
vt 0.857143 0.000000
vt 0.000000 0.126312
vt 0.142857 0.126312
vt 0.285714 0.126312
vt 0.428571 0.126312
vt 0.571429 0.126312
vt 0.714286 0.126312
vt 0.857143 0.126312
vt 0.000000 0.251601
vt 0.142857 0.251601
vt 0.285714 0.251601
vt 0.428571 0.251601
vt 0.571429 0.251601
vt 0.714286 0.251601
vt 0.857143 0.251601
vt 0.000000 0.377716
vt 0.142857 0.377716
vt 0.285714 0.377716
vt 0.428571 0.377716
vt 0.571429 0.377716
vt 0.714286 0.377716
vt 0.857143 0.377716
vt 0.000000 0.512692
vt 0.142857 0.512692
vt 0.285714 0.512692
vt 0.428571 0.512692
vt 0.571429 0.512692
vt 0.714286 0.512692
vt 0.857143 0.512692
vt 0.000000 0.676529
vt 0.142857 0.676529
vt 0.285714 0.676529
vt 0.428571 0.676529
vt 0.571429 0.676529
vt 0.714286 0.676529
vt 0.857143 0.676529
vt 0.000000 1.000000
vt 0.166667 1.000000
vt 0.333333 1.000000
vt 0.500000 1.000000
vt 0.666667 1.000000
vt 0.833333 1.000000
vt 1.000000 1.000000
vt 0.500000 0.000000
vn -0.707107 0.707107 0.000000
vn -0.678464 0.707107 -0.199215
vn -0.886068 0.383657 -0.260173
vn -0.923476 0.383657 -0.000000
vn -0.594856 0.707107 -0.382291
vn -0.776877 0.383657 -0.499269
vn -0.463056 0.707107 -0.534396
vn -0.604748 0.383657 -0.697916
vn -0.293743 0.707107 -0.643207
vn -0.383626 0.383657 -0.840023
vn -0.100632 0.707107 -0.699909
vn -0.131424 0.383657 -0.914076
vn 0.100632 0.707107 -0.699909
vn 0.131424 0.383657 -0.914076
vn 0.293743 0.707107 -0.643207
vn 0.383626 0.383657 -0.840023
vn 0.463056 0.707107 -0.534396
vn 0.604748 0.383657 -0.697916
vn 0.594856 0.707107 -0.382291
vn 0.776877 0.383657 -0.499269
vn 0.678464 0.707107 -0.199215
vn 0.886068 0.383657 -0.260173
vn 0.707107 0.707107 -0.000000
vn 0.923476 0.383657 -0.000000
vn 0.678464 0.707107 0.199215
vn 0.886068 0.383657 0.260173
vn 0.594856 0.707107 0.382291
vn 0.776877 0.383657 0.499269
vn 0.463056 0.707107 0.534396
vn 0.604748 0.383657 0.697916
vn 0.293743 0.707107 0.643207
vn 0.383626 0.383657 0.840023
vn 0.100632 0.707107 0.699909
vn 0.131424 0.383657 0.914076
vn -0.100632 0.707107 0.699909
vn -0.131424 0.383657 0.914076
vn -0.293743 0.707107 0.643207
vn -0.383626 0.383657 0.840023
vn -0.463056 0.707107 0.534396
vn -0.604748 0.383657 0.697916
vn -0.594856 0.707107 0.382291
vn -0.776877 0.383657 0.499269
vn -0.678464 0.707107 0.199215
vn -0.886068 0.383657 0.260173
vn -0.886068 -0.383657 -0.260173
vn -0.923476 -0.383657 -0.000000
vn -0.776877 -0.383657 -0.499269
vn -0.604748 -0.383657 -0.697916
vn -0.383626 -0.383657 -0.840023
vn -0.131424 -0.383657 -0.914076
vn 0.131424 -0.383657 -0.914076
vn 0.383626 -0.383657 -0.840023
vn 0.604748 -0.383657 -0.697916
vn 0.776877 -0.383657 -0.499269
vn 0.886068 -0.383657 -0.260173
vn 0.923476 -0.383657 -0.000000
vn 0.886068 -0.383657 0.260173
vn 0.776877 -0.383657 0.499269
vn 0.604748 -0.383657 0.697916
vn 0.383626 -0.383657 0.840023
vn 0.131424 -0.383657 0.914076
vn -0.131424 -0.383657 0.914076
vn -0.383626 -0.383657 0.840023
vn -0.604748 -0.383657 0.697916
vn -0.776877 -0.383657 0.499269
vn -0.886068 -0.383657 0.260173
vn -0.678464 -0.707107 -0.199215
vn -0.707107 -0.707107 -0.000000
vn -0.594856 -0.707107 -0.382291
vn -0.463056 -0.707107 -0.534396
vn -0.293743 -0.707107 -0.643207
vn -0.100632 -0.707107 -0.699909
vn 0.100632 -0.707107 -0.699909
vn 0.293743 -0.707107 -0.643207
vn 0.463056 -0.707107 -0.534396
vn 0.594856 -0.707107 -0.382291
vn 0.678464 -0.707107 -0.199215
vn 0.707107 -0.707107 -0.000000
vn 0.678464 -0.707107 0.199215
vn 0.594856 -0.707107 0.382291
vn 0.463056 -0.707107 0.534396
vn 0.293743 -0.707107 0.643207
vn 0.100632 -0.707107 0.699909
vn -0.100632 -0.707107 0.699909
vn -0.293743 -0.707107 0.643207
vn -0.463056 -0.707107 0.534396
vn -0.594856 -0.707107 0.382291
vn -0.678464 -0.707107 0.199215
vn 0.000000 -1.000000 0.000000
vn 0.000000 1.000000 0.000000
vn -0.965926 -0.258819 -0.000000
vn -0.926799 -0.258819 -0.272133
vn -0.830662 -0.500512 -0.243904
vn -0.865730 -0.500512 -0.000000
vn -0.812589 -0.258819 -0.522219
vn -0.728298 -0.500512 -0.468049
vn -0.632547 -0.258819 -0.729998
vn -0.566932 -0.500512 -0.654275
vn -0.401260 -0.258819 -0.878637
vn -0.359637 -0.500512 -0.787496
vn -0.137466 -0.258819 -0.956094
vn -0.123206 -0.500512 -0.856918
vn 0.137466 -0.258819 -0.956094
vn 0.123206 -0.500512 -0.856918
vn 0.401260 -0.258819 -0.878637
vn 0.359637 -0.500512 -0.787496
vn 0.632547 -0.258819 -0.729998
vn 0.566932 -0.500512 -0.654275
vn 0.812589 -0.258819 -0.522219
vn 0.728298 -0.500512 -0.468049
vn 0.926799 -0.258819 -0.272133
vn 0.830662 -0.500512 -0.243904
vn 0.965926 -0.258819 -0.000000
vn 0.865730 -0.500512 -0.000000
vn 0.926799 -0.258819 0.272133
vn 0.830662 -0.500512 0.243904
vn 0.812589 -0.258819 0.522219
vn 0.728298 -0.500512 0.468049
vn 0.632547 -0.258819 0.729998
vn 0.566932 -0.500512 0.654275
vn 0.401260 -0.258819 0.878637
vn 0.359637 -0.500512 0.787496
vn 0.137466 -0.258819 0.956094
vn 0.123206 -0.500512 0.856918
vn -0.137466 -0.258819 0.956094
vn -0.123206 -0.500512 0.856918
vn -0.401260 -0.258819 0.878637
vn -0.359637 -0.500512 0.787496
vn -0.632547 -0.258819 0.729998
vn -0.566932 -0.500512 0.654275
vn -0.812589 -0.258819 0.522219
vn -0.728298 -0.500512 0.468049
vn -0.926799 -0.258819 0.272133
vn -0.830662 -0.500512 0.243904
vn -0.479251 -0.866323 -0.140721
vn -0.499484 -0.866323 -0.000000
vn -0.420192 -0.866323 -0.270041
vn -0.327092 -0.866323 -0.377485
vn -0.207493 -0.866323 -0.454346
vn -0.071084 -0.866323 -0.494400
vn 0.071084 -0.866323 -0.494400
vn 0.207493 -0.866323 -0.454346
vn 0.327092 -0.866323 -0.377485
vn 0.420192 -0.866323 -0.270041
vn 0.479251 -0.866323 -0.140721
vn 0.499484 -0.866323 -0.000000
vn 0.479251 -0.866323 0.140721
vn 0.420192 -0.866323 0.270041
vn 0.327092 -0.866323 0.377485
vn 0.207493 -0.866323 0.454346
vn 0.071084 -0.866323 0.494400
vn -0.071084 -0.866323 0.494400
vn -0.207493 -0.866323 0.454346
vn -0.327092 -0.866323 0.377485
vn -0.420192 -0.866323 0.270041
vn -0.479251 -0.866323 0.140721
vn 0.959493 -0.000000 0.281733
vn 1.000000 -0.000000 0.000000
vn 0.841254 -0.000000 0.540641
vn 0.654861 -0.000000 0.755750
vn 0.415415 -0.000000 0.909632
vn 0.142315 -0.000000 0.989821
vn -0.142315 -0.000000 0.989821
vn -0.415415 -0.000000 0.909632
vn -0.654861 -0.000000 0.755750
vn -0.841254 -0.000000 0.540641
vn -0.959493 -0.000000 0.281733
vn -1.000000 -0.000000 0.000000
vn -0.959493 -0.000000 -0.281733
vn -0.841254 -0.000000 -0.540641
vn -0.654861 -0.000000 -0.755750
vn -0.415415 -0.000000 -0.909632
vn -0.142315 -0.000000 -0.989821
vn 0.142315 -0.000000 -0.989821
vn 0.415415 -0.000000 -0.909632
vn 0.654861 0.000000 -0.755750
vn 0.841254 -0.000000 -0.540641
vn 0.959493 -0.000000 -0.281733
vn 0.830662 0.500512 0.243904
vn 0.865730 0.500512 0.000000
vn 0.728298 0.500512 0.468049
vn 0.566932 0.500512 0.654275
vn 0.359637 0.500512 0.787496
vn 0.123206 0.500512 0.856918
vn -0.123206 0.500512 0.856918
vn -0.359637 0.500512 0.787496
vn -0.566932 0.500512 0.654275
vn -0.728298 0.500512 0.468049
vn -0.830662 0.500512 0.243904
vn -0.865730 0.500512 0.000000
vn -0.830662 0.500512 -0.243904
vn -0.728298 0.500512 -0.468049
vn -0.566932 0.500512 -0.654275
vn -0.359637 0.500512 -0.787496
vn -0.123206 0.500512 -0.856918
vn 0.123206 0.500512 -0.856918
vn 0.359637 0.500512 -0.787496
vn 0.566932 0.500512 -0.654275
vn 0.728298 0.500512 -0.468049
vn 0.830662 0.500512 -0.243904
vn 0.479251 0.866323 0.140721
vn 0.499484 0.866323 0.000000
vn 0.420192 0.866323 0.270041
vn 0.327092 0.866323 0.377485
vn 0.207493 0.866323 0.454346
vn 0.071084 0.866323 0.494400
vn -0.071084 0.866323 0.494400
vn -0.207493 0.866323 0.454346
vn -0.327092 0.866323 0.377485
vn -0.420192 0.866323 0.270041
vn -0.479251 0.866323 0.140721
vn -0.499484 0.866323 0.000000
vn -0.479251 0.866323 -0.140721
vn -0.420192 0.866323 -0.270041
vn -0.327092 0.866323 -0.377485
vn -0.207493 0.866323 -0.454346
vn -0.071084 0.866323 -0.494400
vn 0.071084 0.866323 -0.494400
vn 0.207493 0.866323 -0.454346
vn 0.327092 0.866323 -0.377485
vn 0.420192 0.866323 -0.270041
vn 0.479251 0.866323 -0.140721
vn -0.926799 0.258819 -0.272133
vn -0.965926 0.258819 -0.000000
vn -0.812589 0.258819 -0.522219
vn -0.632547 0.258819 -0.729998
vn -0.401260 0.258819 -0.878637
vn -0.137466 0.258819 -0.956094
vn 0.137466 0.258819 -0.956094
vn 0.401260 0.258819 -0.878637
vn 0.632547 0.258819 -0.729998
vn 0.812589 0.258819 -0.522219
vn 0.926799 0.258819 -0.272133
vn 0.965926 0.258819 -0.000000
vn 0.926799 0.258819 0.272133
vn 0.812589 0.258819 0.522219
vn 0.632547 0.258819 0.729998
vn 0.401260 0.258819 0.878637
vn 0.137466 0.258819 0.956094
vn -0.137466 0.258819 0.956094
vn -0.401260 0.258819 0.878637
vn -0.632547 0.258819 0.729998
vn -0.812589 0.258819 0.522219
vn -0.926799 0.258819 0.272133
vn -0.951057 0.000000 -0.309017
vn -0.809017 0.000000 -0.587785
vn -0.587785 0.000000 -0.809017
vn -0.309017 0.000000 -0.951057
vn -0.000000 0.000000 -1.000000
vn 0.309017 0.000000 -0.951057
vn 0.587785 0.000000 -0.809017
vn 0.809017 0.000000 -0.587785
vn 0.951057 0.000000 -0.309017
vn 0.951057 0.000000 0.309017
vn 0.809017 0.000000 0.587785
vn 0.587785 0.000000 0.809017
vn 0.309017 0.000000 0.951057
vn 0.000000 0.000000 1.000000
vn -0.309017 0.000000 0.951057
vn -0.587785 0.000000 0.809017
vn -0.809017 0.000000 0.587785
vn -0.951057 0.000000 0.309017
vn -0.992958 -0.118468 0.000000
vn -0.619099 -0.118468 -0.776326
vn -0.604969 -0.241928 -0.758607
vn -0.970294 -0.241928 0.000000
vn 0.220954 -0.118468 -0.968062
vn 0.215911 -0.241928 -0.945967
vn 0.894624 -0.118468 -0.430828
vn 0.874205 -0.241928 -0.420995
vn 0.894624 -0.118468 0.430828
vn 0.874205 -0.241928 0.420995
vn 0.220954 -0.118468 0.968062
vn 0.215911 -0.241928 0.945967
vn -0.619099 -0.118468 0.776326
vn -0.604969 -0.241928 0.758607
vn -0.543790 -0.489202 -0.681890
vn -0.872171 -0.489202 0.000000
vn 0.194076 -0.489202 -0.850304
vn 0.785799 -0.489202 -0.378421
vn 0.785799 -0.489202 0.378421
vn 0.194076 -0.489202 0.850304
vn -0.543790 -0.489202 0.681890
vn -0.430088 -0.723992 -0.539314
vn -0.689808 -0.723992 -0.000000
vn 0.153497 -0.723992 -0.672513
vn 0.621496 -0.723992 -0.299297
vn 0.621496 -0.723992 0.299297
vn 0.153497 -0.723992 0.672513
vn -0.430088 -0.723992 0.539314
vn -0.272056 -0.899780 -0.341147
vn -0.436344 -0.899780 -0.000000
vn 0.097096 -0.899780 -0.425404
vn 0.393132 -0.899780 -0.189322
vn 0.393132 -0.899780 0.189322
vn 0.097096 -0.899780 0.425404
vn -0.272056 -0.899780 0.341147
vn -0.108498 -0.984743 -0.136052
vn -0.174017 -0.984743 0.000000
vn 0.038722 -0.984743 -0.169654
vn 0.156784 -0.984743 -0.075503
vn 0.156784 -0.984743 0.075503
vn 0.038722 -0.984743 0.169654
vn -0.108498 -0.984743 0.136052
usemtl wax
s 1
f 1/1/1 2/2/2 24/24/3 23/23/4
s 1
f 2/2/2 3/3/5 25/25/6 24/24/3
s 1
f 3/3/5 4/4/7 26/26/8 25/25/6
s 1
f 4/4/7 5/5/9 27/27/10 26/26/8
s 1
f 5/5/9 6/6/11 28/28/12 27/27/10
s 1
f 6/6/11 7/7/13 29/29/14 28/28/12
s 1
f 7/7/13 8/8/15 30/30/16 29/29/14
s 1
f 8/8/15 9/9/17 31/31/18 30/30/16
s 1
f 9/9/17 10/10/19 32/32/20 31/31/18
s 1
f 10/10/19 11/11/21 33/33/22 32/32/20
s 1
f 11/11/21 12/12/23 34/34/24 33/33/22
s 1
f 12/12/23 13/13/25 35/35/26 34/34/24
s 1
f 13/13/25 14/14/27 36/36/28 35/35/26
s 1
f 14/14/27 15/15/29 37/37/30 36/36/28
s 1
f 15/15/29 16/16/31 38/38/32 37/37/30
s 1
f 16/16/31 17/17/33 39/39/34 38/38/32
s 1
f 17/17/33 18/18/35 40/40/36 39/39/34
s 1
f 18/18/35 19/19/37 41/41/38 40/40/36
s 1
f 19/19/37 20/20/39 42/42/40 41/41/38
s 1
f 20/20/39 21/21/41 43/43/42 42/42/40
s 1
f 21/21/41 22/22/43 44/44/44 43/43/42
s 1
f 22/22/43 1/1/1 23/23/4 44/44/44
s 1
f 23/23/4 24/24/3 46/46/45 45/45/46
s 1
f 24/24/3 25/25/6 47/47/47 46/46/45
s 1
f 25/25/6 26/26/8 48/48/48 47/47/47
s 1
f 26/26/8 27/27/10 49/49/49 48/48/48
s 1
f 27/27/10 28/28/12 50/50/50 49/49/49
s 1
f 28/28/12 29/29/14 51/51/51 50/50/50
s 1
f 29/29/14 30/30/16 52/52/52 51/51/51
s 1
f 30/30/16 31/31/18 53/53/53 52/52/52
s 1
f 31/31/18 32/32/20 54/54/54 53/53/53
s 1
f 32/32/20 33/33/22 55/55/55 54/54/54
s 1
f 33/33/22 34/34/24 56/56/56 55/55/55
s 1
f 34/34/24 35/35/26 57/57/57 56/56/56
s 1
f 35/35/26 36/36/28 58/58/58 57/57/57
s 1
f 36/36/28 37/37/30 59/59/59 58/58/58
s 1
f 37/37/30 38/38/32 60/60/60 59/59/59
s 1
f 38/38/32 39/39/34 61/61/61 60/60/60
s 1
f 39/39/34 40/40/36 62/62/62 61/61/61
s 1
f 40/40/36 41/41/38 63/63/63 62/62/62
s 1
f 41/41/38 42/42/40 64/64/64 63/63/63
s 1
f 42/42/40 43/43/42 65/65/65 64/64/64
s 1
f 43/43/42 44/44/44 66/66/66 65/65/65
s 1
f 44/44/44 23/23/4 45/45/46 66/66/66
s 1
f 45/45/46 46/46/45 68/68/67 67/67/68
s 1
f 46/46/45 47/47/47 69/69/69 68/68/67
s 1
f 47/47/47 48/48/48 70/70/70 69/69/69
s 1
f 48/48/48 49/49/49 71/71/71 70/70/70
s 1
f 49/49/49 50/50/50 72/72/72 71/71/71
s 1
f 50/50/50 51/51/51 73/73/73 72/72/72
s 1
f 51/51/51 52/52/52 74/74/74 73/73/73
s 1
f 52/52/52 53/53/53 75/75/75 74/74/74
s 1
f 53/53/53 54/54/54 76/76/76 75/75/75
s 1
f 54/54/54 55/55/55 77/77/77 76/76/76
s 1
f 55/55/55 56/56/56 78/78/78 77/77/77
s 1
f 56/56/56 57/57/57 79/79/79 78/78/78
s 1
f 57/57/57 58/58/58 80/80/80 79/79/79
s 1
f 58/58/58 59/59/59 81/81/81 80/80/80
s 1
f 59/59/59 60/60/60 82/82/82 81/81/81
s 1
f 60/60/60 61/61/61 83/83/83 82/82/82
s 1
f 61/61/61 62/62/62 84/84/84 83/83/83
s 1
f 62/62/62 63/63/63 85/85/85 84/84/84
s 1
f 63/63/63 64/64/64 86/86/86 85/85/85
s 1
f 64/64/64 65/65/65 87/87/87 86/86/86
s 1
f 65/65/65 66/66/66 88/88/88 87/87/87
s 1
f 66/66/66 45/45/46 67/67/68 88/88/88
s off
f 89/89/89 1/1/89 2/2/89
s off
f 89/89/89 2/2/89 3/3/89
s off
f 89/89/89 3/3/89 4/4/89
s off
f 89/89/89 4/4/89 5/5/89
s off
f 89/89/89 5/5/89 6/6/89
s off
f 89/89/89 6/6/89 7/7/89
s off
f 89/89/89 7/7/89 8/8/89
s off
f 89/89/89 8/8/89 9/9/89
s off
f 89/89/89 9/9/89 10/10/89
s off
f 89/89/89 10/10/89 11/11/89
s off
f 89/89/89 11/11/89 12/12/89
s off
f 89/89/89 12/12/89 13/13/89
s off
f 89/89/89 13/13/89 14/14/89
s off
f 89/89/89 14/14/89 15/15/89
s off
f 89/89/89 15/15/89 16/16/89
s off
f 89/89/89 16/16/89 17/17/89
s off
f 89/89/89 17/17/89 18/18/89
s off
f 89/89/89 18/18/89 19/19/89
s off
f 89/89/89 19/19/89 20/20/89
s off
f 89/89/89 20/20/89 21/21/89
s off
f 89/89/89 21/21/89 22/22/89
s off
f 89/89/89 22/22/89 1/1/89
s off
f 90/90/90 68/68/90 67/67/90
s off
f 90/90/90 69/69/90 68/68/90
s off
f 90/90/90 70/70/90 69/69/90
s off
f 90/90/90 71/71/90 70/70/90
s off
f 90/90/90 72/72/90 71/71/90
s off
f 90/90/90 73/73/90 72/72/90
s off
f 90/90/90 74/74/90 73/73/90
s off
f 90/90/90 75/75/90 74/74/90
s off
f 90/90/90 76/76/90 75/75/90
s off
f 90/90/90 77/77/90 76/76/90
s off
f 90/90/90 78/78/90 77/77/90
s off
f 90/90/90 79/79/90 78/78/90
s off
f 90/90/90 80/80/90 79/79/90
s off
f 90/90/90 81/81/90 80/80/90
s off
f 90/90/90 82/82/90 81/81/90
s off
f 90/90/90 83/83/90 82/82/90
s off
f 90/90/90 84/84/90 83/83/90
s off
f 90/90/90 85/85/90 84/84/90
s off
f 90/90/90 86/86/90 85/85/90
s off
f 90/90/90 87/87/90 86/86/90
s off
f 90/90/90 88/88/90 87/87/90
s off
f 90/90/90 67/67/90 88/88/90
s 2
f 91/91/91 92/92/92 114/114/93 113/113/94
s 2
f 92/92/92 93/93/95 115/115/96 114/114/93
s 2
f 93/93/95 94/94/97 116/116/98 115/115/96
s 2
f 94/94/97 95/95/99 117/117/100 116/116/98
s 2
f 95/95/99 96/96/101 118/118/102 117/117/100
s 2
f 96/96/101 97/97/103 119/119/104 118/118/102
s 2
f 97/97/103 98/98/105 120/120/106 119/119/104
s 2
f 98/98/105 99/99/107 121/121/108 120/120/106
s 2
f 99/99/107 100/100/109 122/122/110 121/121/108
s 2
f 100/100/109 101/101/111 123/123/112 122/122/110
s 2
f 101/101/111 102/102/113 124/124/114 123/123/112
s 2
f 102/102/113 103/103/115 125/125/116 124/124/114
s 2
f 103/103/115 104/104/117 126/126/118 125/125/116
s 2
f 104/104/117 105/105/119 127/127/120 126/126/118
s 2
f 105/105/119 106/106/121 128/128/122 127/127/120
s 2
f 106/106/121 107/107/123 129/129/124 128/128/122
s 2
f 107/107/123 108/108/125 130/130/126 129/129/124
s 2
f 108/108/125 109/109/127 131/131/128 130/130/126
s 2
f 109/109/127 110/110/129 132/132/130 131/131/128
s 2
f 110/110/129 111/111/131 133/133/132 132/132/130
s 2
f 111/111/131 112/112/133 134/134/134 133/133/132
s 2
f 112/112/133 91/91/91 113/113/94 134/134/134
s 2
f 113/113/94 114/114/93 136/136/135 135/135/136
s 2
f 114/114/93 115/115/96 137/137/137 136/136/135
s 2
f 115/115/96 116/116/98 138/138/138 137/137/137
s 2
f 116/116/98 117/117/100 139/139/139 138/138/138
s 2
f 117/117/100 118/118/102 140/140/140 139/139/139
s 2
f 118/118/102 119/119/104 141/141/141 140/140/140
s 2
f 119/119/104 120/120/106 142/142/142 141/141/141
s 2
f 120/120/106 121/121/108 143/143/143 142/142/142
s 2
f 121/121/108 122/122/110 144/144/144 143/143/143
s 2
f 122/122/110 123/123/112 145/145/145 144/144/144
s 2
f 123/123/112 124/124/114 146/146/146 145/145/145
s 2
f 124/124/114 125/125/116 147/147/147 146/146/146
s 2
f 125/125/116 126/126/118 148/148/148 147/147/147
s 2
f 126/126/118 127/127/120 149/149/149 148/148/148
s 2
f 127/127/120 128/128/122 150/150/150 149/149/149
s 2
f 128/128/122 129/129/124 151/151/151 150/150/150
s 2
f 129/129/124 130/130/126 152/152/152 151/151/151
s 2
f 130/130/126 131/131/128 153/153/153 152/152/152
s 2
f 131/131/128 132/132/130 154/154/154 153/153/153
s 2
f 132/132/130 133/133/132 155/155/155 154/154/154
s 2
f 133/133/132 134/134/134 156/156/156 155/155/155
s 2
f 134/134/134 113/113/94 135/135/136 156/156/156
s 2
f 135/135/136 136/136/135 158/158/89 157/157/89
s 2
f 136/136/135 137/137/137 159/159/89 158/158/89
s 2
f 137/137/137 138/138/138 160/160/89 159/159/89
s 2
f 138/138/138 139/139/139 161/161/89 160/160/89
s 2
f 139/139/139 140/140/140 162/162/89 161/161/89
s 2
f 140/140/140 141/141/141 163/163/89 162/162/89
s 2
f 141/141/141 142/142/142 164/164/89 163/163/89
s 2
f 142/142/142 143/143/143 165/165/89 164/164/89
s 2
f 143/143/143 144/144/144 166/166/89 165/165/89
s 2
f 144/144/144 145/145/145 167/167/89 166/166/89
s 2
f 145/145/145 146/146/146 168/168/89 167/167/89
s 2
f 146/146/146 147/147/147 169/169/89 168/168/89
s 2
f 147/147/147 148/148/148 170/170/89 169/169/89
s 2
f 148/148/148 149/149/149 171/171/89 170/170/89
s 2
f 149/149/149 150/150/150 172/172/89 171/171/89
s 2
f 150/150/150 151/151/151 173/173/89 172/172/89
s 2
f 151/151/151 152/152/152 174/174/89 173/173/89
s 2
f 152/152/152 153/153/153 175/175/89 174/174/89
s 2
f 153/153/153 154/154/154 176/176/89 175/175/89
s 2
f 154/154/154 155/155/155 177/177/89 176/176/89
s 2
f 155/155/155 156/156/156 178/178/89 177/177/89
s 2
f 156/156/156 135/135/136 157/157/89 178/178/89
s 2
f 157/157/89 158/158/89 180/180/147 179/179/146
s 2
f 158/158/89 159/159/89 181/181/148 180/180/147
s 2
f 159/159/89 160/160/89 182/182/149 181/181/148
s 2
f 160/160/89 161/161/89 183/183/150 182/182/149
s 2
f 161/161/89 162/162/89 184/184/151 183/183/150
s 2
f 162/162/89 163/163/89 185/185/152 184/184/151
s 2
f 163/163/89 164/164/89 186/186/153 185/185/152
s 2
f 164/164/89 165/165/89 187/187/154 186/186/153
s 2
f 165/165/89 166/166/89 188/188/155 187/187/154
s 2
f 166/166/89 167/167/89 189/189/156 188/188/155
s 2
f 167/167/89 168/168/89 190/190/136 189/189/156
s 2
f 168/168/89 169/169/89 191/191/135 190/190/136
s 2
f 169/169/89 170/170/89 192/192/137 191/191/135
s 2
f 170/170/89 171/171/89 193/193/138 192/192/137
s 2
f 171/171/89 172/172/89 194/194/139 193/193/138
s 2
f 172/172/89 173/173/89 195/195/140 194/194/139
s 2
f 173/173/89 174/174/89 196/196/141 195/195/140
s 2
f 174/174/89 175/175/89 197/197/142 196/196/141
s 2
f 175/175/89 176/176/89 198/198/143 197/197/142
s 2
f 176/176/89 177/177/89 199/199/144 198/198/143
s 2
f 177/177/89 178/178/89 200/200/145 199/199/144
s 2
f 178/178/89 157/157/89 179/179/146 200/200/145
s 2
f 179/179/146 180/180/147 202/202/116 201/201/114
s 2
f 180/180/147 181/181/148 203/203/118 202/202/116
s 2
f 181/181/148 182/182/149 204/204/120 203/203/118
s 2
f 182/182/149 183/183/150 205/205/122 204/204/120
s 2
f 183/183/150 184/184/151 206/206/124 205/205/122
s 2
f 184/184/151 185/185/152 207/207/126 206/206/124
s 2
f 185/185/152 186/186/153 208/208/128 207/207/126
s 2
f 186/186/153 187/187/154 209/209/130 208/208/128
s 2
f 187/187/154 188/188/155 210/210/132 209/209/130
s 2
f 188/188/155 189/189/156 211/211/134 210/210/132
s 2
f 189/189/156 190/190/136 212/212/94 211/211/134
s 2
f 190/190/136 191/191/135 213/213/93 212/212/94
s 2
f 191/191/135 192/192/137 214/214/96 213/213/93
s 2
f 192/192/137 193/193/138 215/215/98 214/214/96
s 2
f 193/193/138 194/194/139 216/216/100 215/215/98
s 2
f 194/194/139 195/195/140 217/217/102 216/216/100
s 2
f 195/195/140 196/196/141 218/218/104 217/217/102
s 2
f 196/196/141 197/197/142 219/219/106 218/218/104
s 2
f 197/197/142 198/198/143 220/220/108 219/219/106
s 2
f 198/198/143 199/199/144 221/221/110 220/220/108
s 2
f 199/199/144 200/200/145 222/222/112 221/221/110
s 2
f 200/200/145 179/179/146 201/201/114 222/222/112
s 2
f 201/201/114 202/202/116 224/224/157 223/223/158
s 2
f 202/202/116 203/203/118 225/225/159 224/224/157
s 2
f 203/203/118 204/204/120 226/226/160 225/225/159
s 2
f 204/204/120 205/205/122 227/227/161 226/226/160
s 2
f 205/205/122 206/206/124 228/228/162 227/227/161
s 2
f 206/206/124 207/207/126 229/229/163 228/228/162
s 2
f 207/207/126 208/208/128 230/230/164 229/229/163
s 2
f 208/208/128 209/209/130 231/231/165 230/230/164
s 2
f 209/209/130 210/210/132 232/232/166 231/231/165
s 2
f 210/210/132 211/211/134 233/233/167 232/232/166
s 2
f 211/211/134 212/212/94 234/234/168 233/233/167
s 2
f 212/212/94 213/213/93 235/235/169 234/234/168
s 2
f 213/213/93 214/214/96 236/236/170 235/235/169
s 2
f 214/214/96 215/215/98 237/237/171 236/236/170
s 2
f 215/215/98 216/216/100 238/238/172 237/237/171
s 2
f 216/216/100 217/217/102 239/239/173 238/238/172
s 2
f 217/217/102 218/218/104 240/240/174 239/239/173
s 2
f 218/218/104 219/219/106 241/241/175 240/240/174
s 2
f 219/219/106 220/220/108 242/242/176 241/241/175
s 2
f 220/220/108 221/221/110 243/243/177 242/242/176
s 2
f 221/221/110 222/222/112 244/244/178 243/243/177
s 2
f 222/222/112 201/201/114 223/223/158 244/244/178
s 2
f 223/223/158 224/224/157 246/246/179 245/245/180
s 2
f 224/224/157 225/225/159 247/247/181 246/246/179
s 2
f 225/225/159 226/226/160 248/248/182 247/247/181
s 2
f 226/226/160 227/227/161 249/249/183 248/248/182
s 2
f 227/227/161 228/228/162 250/250/184 249/249/183
s 2
f 228/228/162 229/229/163 251/251/185 250/250/184
s 2
f 229/229/163 230/230/164 252/252/186 251/251/185
s 2
f 230/230/164 231/231/165 253/253/187 252/252/186
s 2
f 231/231/165 232/232/166 254/254/188 253/253/187
s 2
f 232/232/166 233/233/167 255/255/189 254/254/188
s 2
f 233/233/167 234/234/168 256/256/190 255/255/189
s 2
f 234/234/168 235/235/169 257/257/191 256/256/190
s 2
f 235/235/169 236/236/170 258/258/192 257/257/191
s 2
f 236/236/170 237/237/171 259/259/193 258/258/192
s 2
f 237/237/171 238/238/172 260/260/194 259/259/193
s 2
f 238/238/172 239/239/173 261/261/195 260/260/194
s 2
f 239/239/173 240/240/174 262/262/196 261/261/195
s 2
f 240/240/174 241/241/175 263/263/197 262/262/196
s 2
f 241/241/175 242/242/176 264/264/198 263/263/197
s 2
f 242/242/176 243/243/177 265/265/199 264/264/198
s 2
f 243/243/177 244/244/178 266/266/200 265/265/199
s 2
f 244/244/178 223/223/158 245/245/180 266/266/200
s 2
f 245/245/180 246/246/179 268/268/201 267/267/202
s 2
f 246/246/179 247/247/181 269/269/203 268/268/201
s 2
f 247/247/181 248/248/182 270/270/204 269/269/203
s 2
f 248/248/182 249/249/183 271/271/205 270/270/204
s 2
f 249/249/183 250/250/184 272/272/206 271/271/205
s 2
f 250/250/184 251/251/185 273/273/207 272/272/206
s 2
f 251/251/185 252/252/186 274/274/208 273/273/207
s 2
f 252/252/186 253/253/187 275/275/209 274/274/208
s 2
f 253/253/187 254/254/188 276/276/210 275/275/209
s 2
f 254/254/188 255/255/189 277/277/211 276/276/210
s 2
f 255/255/189 256/256/190 278/278/212 277/277/211
s 2
f 256/256/190 257/257/191 279/279/213 278/278/212
s 2
f 257/257/191 258/258/192 280/280/214 279/279/213
s 2
f 258/258/192 259/259/193 281/281/215 280/280/214
s 2
f 259/259/193 260/260/194 282/282/216 281/281/215
s 2
f 260/260/194 261/261/195 283/283/217 282/282/216
s 2
f 261/261/195 262/262/196 284/284/218 283/283/217
s 2
f 262/262/196 263/263/197 285/285/219 284/284/218
s 2
f 263/263/197 264/264/198 286/286/220 285/285/219
s 2
f 264/264/198 265/265/199 287/287/221 286/286/220
s 2
f 265/265/199 266/266/200 288/288/222 287/287/221
s 2
f 266/266/200 245/245/180 267/267/202 288/288/222
s 2
f 267/267/202 268/268/201 290/290/90 289/289/90
s 2
f 268/268/201 269/269/203 291/291/90 290/290/90
s 2
f 269/269/203 270/270/204 292/292/90 291/291/90
s 2
f 270/270/204 271/271/205 293/293/90 292/292/90
s 2
f 271/271/205 272/272/206 294/294/90 293/293/90
s 2
f 272/272/206 273/273/207 295/295/90 294/294/90
s 2
f 273/273/207 274/274/208 296/296/90 295/295/90
s 2
f 274/274/208 275/275/209 297/297/90 296/296/90
s 2
f 275/275/209 276/276/210 298/298/90 297/297/90
s 2
f 276/276/210 277/277/211 299/299/90 298/298/90
s 2
f 277/277/211 278/278/212 300/300/90 299/299/90
s 2
f 278/278/212 279/279/213 301/301/90 300/300/90
s 2
f 279/279/213 280/280/214 302/302/90 301/301/90
s 2
f 280/280/214 281/281/215 303/303/90 302/302/90
s 2
f 281/281/215 282/282/216 304/304/90 303/303/90
s 2
f 282/282/216 283/283/217 305/305/90 304/304/90
s 2
f 283/283/217 284/284/218 306/306/90 305/305/90
s 2
f 284/284/218 285/285/219 307/307/90 306/306/90
s 2
f 285/285/219 286/286/220 308/308/90 307/307/90
s 2
f 286/286/220 287/287/221 309/309/90 308/308/90
s 2
f 287/287/221 288/288/222 310/310/90 309/309/90
s 2
f 288/288/222 267/267/202 289/289/90 310/310/90
s 2
f 289/289/90 290/290/90 312/312/213 311/311/212
s 2
f 290/290/90 291/291/90 313/313/214 312/312/213
s 2
f 291/291/90 292/292/90 314/314/215 313/313/214
s 2
f 292/292/90 293/293/90 315/315/216 314/314/215
s 2
f 293/293/90 294/294/90 316/316/217 315/315/216
s 2
f 294/294/90 295/295/90 317/317/218 316/316/217
s 2
f 295/295/90 296/296/90 318/318/219 317/317/218
s 2
f 296/296/90 297/297/90 319/319/220 318/318/219
s 2
f 297/297/90 298/298/90 320/320/221 319/319/220
s 2
f 298/298/90 299/299/90 321/321/222 320/320/221
s 2
f 299/299/90 300/300/90 322/322/202 321/321/222
s 2
f 300/300/90 301/301/90 323/323/201 322/322/202
s 2
f 301/301/90 302/302/90 324/324/203 323/323/201
s 2
f 302/302/90 303/303/90 325/325/204 324/324/203
s 2
f 303/303/90 304/304/90 326/326/205 325/325/204
s 2
f 304/304/90 305/305/90 327/327/206 326/326/205
s 2
f 305/305/90 306/306/90 328/328/207 327/327/206
s 2
f 306/306/90 307/307/90 329/329/208 328/328/207
s 2
f 307/307/90 308/308/90 330/330/209 329/329/208
s 2
f 308/308/90 309/309/90 331/331/210 330/330/209
s 2
f 309/309/90 310/310/90 332/332/211 331/331/210
s 2
f 310/310/90 289/289/90 311/311/212 332/332/211
s 2
f 311/311/212 312/312/213 334/334/191 333/333/190
s 2
f 312/312/213 313/313/214 335/335/192 334/334/191
s 2
f 313/313/214 314/314/215 336/336/193 335/335/192
s 2
f 314/314/215 315/315/216 337/337/194 336/336/193
s 2
f 315/315/216 316/316/217 338/338/195 337/337/194
s 2
f 316/316/217 317/317/218 339/339/196 338/338/195
s 2
f 317/317/218 318/318/219 340/340/197 339/339/196
s 2
f 318/318/219 319/319/220 341/341/198 340/340/197
s 2
f 319/319/220 320/320/221 342/342/199 341/341/198
s 2
f 320/320/221 321/321/222 343/343/200 342/342/199
s 2
f 321/321/222 322/322/202 344/344/180 343/343/200
s 2
f 322/322/202 323/323/201 345/345/179 344/344/180
s 2
f 323/323/201 324/324/203 346/346/181 345/345/179
s 2
f 324/324/203 325/325/204 347/347/182 346/346/181
s 2
f 325/325/204 326/326/205 348/348/183 347/347/182
s 2
f 326/326/205 327/327/206 349/349/184 348/348/183
s 2
f 327/327/206 328/328/207 350/350/185 349/349/184
s 2
f 328/328/207 329/329/208 351/351/186 350/350/185
s 2
f 329/329/208 330/330/209 352/352/187 351/351/186
s 2
f 330/330/209 331/331/210 353/353/188 352/352/187
s 2
f 331/331/210 332/332/211 354/354/189 353/353/188
s 2
f 332/332/211 311/311/212 333/333/190 354/354/189
s 2
f 333/333/190 334/334/191 356/356/223 355/355/224
s 2
f 334/334/191 335/335/192 357/357/225 356/356/223
s 2
f 335/335/192 336/336/193 358/358/226 357/357/225
s 2
f 336/336/193 337/337/194 359/359/227 358/358/226
s 2
f 337/337/194 338/338/195 360/360/228 359/359/227
s 2
f 338/338/195 339/339/196 361/361/229 360/360/228
s 2
f 339/339/196 340/340/197 362/362/230 361/361/229
s 2
f 340/340/197 341/341/198 363/363/231 362/362/230
s 2
f 341/341/198 342/342/199 364/364/232 363/363/231
s 2
f 342/342/199 343/343/200 365/365/233 364/364/232
s 2
f 343/343/200 344/344/180 366/366/234 365/365/233
s 2
f 344/344/180 345/345/179 367/367/235 366/366/234
s 2
f 345/345/179 346/346/181 368/368/236 367/367/235
s 2
f 346/346/181 347/347/182 369/369/237 368/368/236
s 2
f 347/347/182 348/348/183 370/370/238 369/369/237
s 2
f 348/348/183 349/349/184 371/371/239 370/370/238
s 2
f 349/349/184 350/350/185 372/372/240 371/371/239
s 2
f 350/350/185 351/351/186 373/373/241 372/372/240
s 2
f 351/351/186 352/352/187 374/374/242 373/373/241
s 2
f 352/352/187 353/353/188 375/375/243 374/374/242
s 2
f 353/353/188 354/354/189 376/376/244 375/375/243
s 2
f 354/354/189 333/333/190 355/355/224 376/376/244
usemtl wet_residue
s 3
f 377/377/168 378/378/245 398/398/245 397/397/168
s 3
f 378/378/245 379/379/246 399/399/246 398/398/245
s 3
f 379/379/246 380/380/247 400/400/247 399/399/246
s 3
f 380/380/247 381/381/248 401/401/248 400/400/247
s 3
f 381/381/248 382/382/249 402/402/249 401/401/248
s 3
f 382/382/249 383/383/250 403/403/250 402/402/249
s 3
f 383/383/250 384/384/251 404/404/251 403/403/250
s 3
f 384/384/251 385/385/252 405/405/252 404/404/251
s 3
f 385/385/252 386/386/253 406/406/253 405/405/252
s 3
f 386/386/253 387/387/158 407/407/158 406/406/253
s 3
f 387/387/158 388/388/254 408/408/254 407/407/158
s 3
f 388/388/254 389/389/255 409/409/255 408/408/254
s 3
f 389/389/255 390/390/256 410/410/256 409/409/255
s 3
f 390/390/256 391/391/257 411/411/257 410/410/256
s 3
f 391/391/257 392/392/258 412/412/258 411/411/257
s 3
f 392/392/258 393/393/259 413/413/259 412/412/258
s 3
f 393/393/259 394/394/260 414/414/260 413/413/259
s 3
f 394/394/260 395/395/261 415/415/261 414/414/260
s 3
f 395/395/261 396/396/262 416/416/262 415/415/261
s 3
f 396/396/262 377/377/168 397/397/168 416/416/262
s off
f 417/417/89 377/377/89 378/378/89
s off
f 417/417/89 378/378/89 379/379/89
s off
f 417/417/89 379/379/89 380/380/89
s off
f 417/417/89 380/380/89 381/381/89
s off
f 417/417/89 381/381/89 382/382/89
s off
f 417/417/89 382/382/89 383/383/89
s off
f 417/417/89 383/383/89 384/384/89
s off
f 417/417/89 384/384/89 385/385/89
s off
f 417/417/89 385/385/89 386/386/89
s off
f 417/417/89 386/386/89 387/387/89
s off
f 417/417/89 387/387/89 388/388/89
s off
f 417/417/89 388/388/89 389/389/89
s off
f 417/417/89 389/389/89 390/390/89
s off
f 417/417/89 390/390/89 391/391/89
s off
f 417/417/89 391/391/89 392/392/89
s off
f 417/417/89 392/392/89 393/393/89
s off
f 417/417/89 393/393/89 394/394/89
s off
f 417/417/89 394/394/89 395/395/89
s off
f 417/417/89 395/395/89 396/396/89
s off
f 417/417/89 396/396/89 377/377/89
s off
f 418/418/90 398/398/90 397/397/90
s off
f 418/418/90 399/399/90 398/398/90
s off
f 418/418/90 400/400/90 399/399/90
s off
f 418/418/90 401/401/90 400/400/90
s off
f 418/418/90 402/402/90 401/401/90
s off
f 418/418/90 403/403/90 402/402/90
s off
f 418/418/90 404/404/90 403/403/90
s off
f 418/418/90 405/405/90 404/404/90
s off
f 418/418/90 406/406/90 405/405/90
s off
f 418/418/90 407/407/90 406/406/90
s off
f 418/418/90 408/408/90 407/407/90
s off
f 418/418/90 409/409/90 408/408/90
s off
f 418/418/90 410/410/90 409/409/90
s off
f 418/418/90 411/411/90 410/410/90
s off
f 418/418/90 412/412/90 411/411/90
s off
f 418/418/90 413/413/90 412/412/90
s off
f 418/418/90 414/414/90 413/413/90
s off
f 418/418/90 415/415/90 414/414/90
s off
f 418/418/90 416/416/90 415/415/90
s off
f 418/418/90 397/397/90 416/416/90
usemtl bone
s 4
f 419/419/263 420/420/264 427/427/265 426/426/266
s 4
f 420/420/264 421/421/267 428/428/268 427/427/265
s 4
f 421/421/267 422/422/269 429/429/270 428/428/268
s 4
f 422/422/269 423/423/271 430/430/272 429/429/270
s 4
f 423/423/271 424/424/273 431/431/274 430/430/272
s 4
f 424/424/273 425/425/275 432/432/276 431/431/274
s 4
f 425/425/275 419/419/263 426/426/266 432/432/276
s 4
f 426/426/266 427/427/265 434/434/277 433/433/278
s 4
f 427/427/265 428/428/268 435/435/279 434/434/277
s 4
f 428/428/268 429/429/270 436/436/280 435/435/279
s 4
f 429/429/270 430/430/272 437/437/281 436/436/280
s 4
f 430/430/272 431/431/274 438/438/282 437/437/281
s 4
f 431/431/274 432/432/276 439/439/283 438/438/282
s 4
f 432/432/276 426/426/266 433/433/278 439/439/283
s 4
f 433/433/278 434/434/277 441/441/284 440/440/285
s 4
f 434/434/277 435/435/279 442/442/286 441/441/284
s 4
f 435/435/279 436/436/280 443/443/287 442/442/286
s 4
f 436/436/280 437/437/281 444/444/288 443/443/287
s 4
f 437/437/281 438/438/282 445/445/289 444/444/288
s 4
f 438/438/282 439/439/283 446/446/290 445/445/289
s 4
f 439/439/283 433/433/278 440/440/285 446/446/290
s 4
f 440/440/285 441/441/284 448/448/291 447/447/292
s 4
f 441/441/284 442/442/286 449/449/293 448/448/291
s 4
f 442/442/286 443/443/287 450/450/294 449/449/293
s 4
f 443/443/287 444/444/288 451/451/295 450/450/294
s 4
f 444/444/288 445/445/289 452/452/296 451/451/295
s 4
f 445/445/289 446/446/290 453/453/297 452/452/296
s 4
f 446/446/290 440/440/285 447/447/292 453/453/297
s 4
f 447/447/292 448/448/291 455/455/298 454/454/299
s 4
f 448/448/291 449/449/293 456/456/300 455/455/298
s 4
f 449/449/293 450/450/294 457/457/301 456/456/300
s 4
f 450/450/294 451/451/295 458/458/302 457/457/301
s 4
f 451/451/295 452/452/296 459/459/303 458/458/302
s 4
f 452/452/296 453/453/297 460/460/304 459/459/303
s 4
f 453/453/297 447/447/292 454/454/299 460/460/304
s 4
f 454/454/299 455/455/298 461/461/89
s 4
f 455/455/298 456/456/300 461/462/89
s 4
f 456/456/300 457/457/301 461/463/89
s 4
f 457/457/301 458/458/302 461/464/89
s 4
f 458/458/302 459/459/303 461/465/89
s 4
f 459/459/303 460/460/304 461/466/89
s 4
f 460/460/304 454/454/299 461/467/89
s off
f 462/468/89 419/419/89 420/420/89
s off
f 462/468/89 420/420/89 421/421/89
s off
f 462/468/89 421/421/89 422/422/89
s off
f 462/468/89 422/422/89 423/423/89
s off
f 462/468/89 423/423/89 424/424/89
s off
f 462/468/89 424/424/89 425/425/89
s off
f 462/468/89 425/425/89 419/419/89
s 5
f 463/469/263 464/470/264 471/477/265 470/476/266
s 5
f 464/470/264 465/471/267 472/478/268 471/477/265
s 5
f 465/471/267 466/472/269 473/479/270 472/478/268
s 5
f 466/472/269 467/473/271 474/480/272 473/479/270
s 5
f 467/473/271 468/474/273 475/481/274 474/480/272
s 5
f 468/474/273 469/475/275 476/482/276 475/481/274
s 5
f 469/475/275 463/469/263 470/476/266 476/482/276
s 5
f 470/476/266 471/477/265 478/484/277 477/483/278
s 5
f 471/477/265 472/478/268 479/485/279 478/484/277
s 5
f 472/478/268 473/479/270 480/486/280 479/485/279
s 5
f 473/479/270 474/480/272 481/487/281 480/486/280
s 5
f 474/480/272 475/481/274 482/488/282 481/487/281
s 5
f 475/481/274 476/482/276 483/489/283 482/488/282
s 5
f 476/482/276 470/476/266 477/483/278 483/489/283
s 5
f 477/483/278 478/484/277 485/491/284 484/490/285
s 5
f 478/484/277 479/485/279 486/492/286 485/491/284
s 5
f 479/485/279 480/486/280 487/493/287 486/492/286
s 5
f 480/486/280 481/487/281 488/494/288 487/493/287
s 5
f 481/487/281 482/488/282 489/495/289 488/494/288
s 5
f 482/488/282 483/489/283 490/496/290 489/495/289
s 5
f 483/489/283 477/483/278 484/490/285 490/496/290
s 5
f 484/490/285 485/491/284 492/498/291 491/497/292
s 5
f 485/491/284 486/492/286 493/499/293 492/498/291
s 5
f 486/492/286 487/493/287 494/500/294 493/499/293
s 5
f 487/493/287 488/494/288 495/501/295 494/500/294
s 5
f 488/494/288 489/495/289 496/502/296 495/501/295
s 5
f 489/495/289 490/496/290 497/503/297 496/502/296
s 5
f 490/496/290 484/490/285 491/497/292 497/503/297
s 5
f 491/497/292 492/498/291 499/505/298 498/504/299
s 5
f 492/498/291 493/499/293 500/506/300 499/505/298
s 5
f 493/499/293 494/500/294 501/507/301 500/506/300
s 5
f 494/500/294 495/501/295 502/508/302 501/507/301
s 5
f 495/501/295 496/502/296 503/509/303 502/508/302
s 5
f 496/502/296 497/503/297 504/510/304 503/509/303
s 5
f 497/503/297 491/497/292 498/504/299 504/510/304
s 5
f 498/504/299 499/505/298 505/511/89
s 5
f 499/505/298 500/506/300 505/512/89
s 5
f 500/506/300 501/507/301 505/513/89
s 5
f 501/507/301 502/508/302 505/514/89
s 5
f 502/508/302 503/509/303 505/515/89
s 5
f 503/509/303 504/510/304 505/516/89
s 5
f 504/510/304 498/504/299 505/517/89
s off
f 506/518/89 463/469/89 464/470/89
s off
f 506/518/89 464/470/89 465/471/89
s off
f 506/518/89 465/471/89 466/472/89
s off
f 506/518/89 466/472/89 467/473/89
s off
f 506/518/89 467/473/89 468/474/89
s off
f 506/518/89 468/474/89 469/475/89
s off
f 506/518/89 469/475/89 463/469/89
s 6
f 507/519/263 508/520/264 515/527/265 514/526/266
s 6
f 508/520/264 509/521/267 516/528/268 515/527/265
s 6
f 509/521/267 510/522/269 517/529/270 516/528/268
s 6
f 510/522/269 511/523/271 518/530/272 517/529/270
s 6
f 511/523/271 512/524/273 519/531/274 518/530/272
s 6
f 512/524/273 513/525/275 520/532/276 519/531/274
s 6
f 513/525/275 507/519/263 514/526/266 520/532/276
s 6
f 514/526/266 515/527/265 522/534/277 521/533/278
s 6
f 515/527/265 516/528/268 523/535/279 522/534/277
s 6
f 516/528/268 517/529/270 524/536/280 523/535/279
s 6
f 517/529/270 518/530/272 525/537/281 524/536/280
s 6
f 518/530/272 519/531/274 526/538/282 525/537/281
s 6
f 519/531/274 520/532/276 527/539/283 526/538/282
s 6
f 520/532/276 514/526/266 521/533/278 527/539/283
s 6
f 521/533/278 522/534/277 529/541/284 528/540/285
s 6
f 522/534/277 523/535/279 530/542/286 529/541/284
s 6
f 523/535/279 524/536/280 531/543/287 530/542/286
s 6
f 524/536/280 525/537/281 532/544/288 531/543/287
s 6
f 525/537/281 526/538/282 533/545/289 532/544/288
s 6
f 526/538/282 527/539/283 534/546/290 533/545/289
s 6
f 527/539/283 521/533/278 528/540/285 534/546/290
s 6
f 528/540/285 529/541/284 536/548/291 535/547/292
s 6
f 529/541/284 530/542/286 537/549/293 536/548/291
s 6
f 530/542/286 531/543/287 538/550/294 537/549/293
s 6
f 531/543/287 532/544/288 539/551/295 538/550/294
s 6
f 532/544/288 533/545/289 540/552/296 539/551/295
s 6
f 533/545/289 534/546/290 541/553/297 540/552/296
s 6
f 534/546/290 528/540/285 535/547/292 541/553/297
s 6
f 535/547/292 536/548/291 543/555/298 542/554/299
s 6
f 536/548/291 537/549/293 544/556/300 543/555/298
s 6
f 537/549/293 538/550/294 545/557/301 544/556/300
s 6
f 538/550/294 539/551/295 546/558/302 545/557/301
s 6
f 539/551/295 540/552/296 547/559/303 546/558/302
s 6
f 540/552/296 541/553/297 548/560/304 547/559/303
s 6
f 541/553/297 535/547/292 542/554/299 548/560/304
s 6
f 542/554/299 543/555/298 549/561/89
s 6
f 543/555/298 544/556/300 549/562/89
s 6
f 544/556/300 545/557/301 549/563/89
s 6
f 545/557/301 546/558/302 549/564/89
s 6
f 546/558/302 547/559/303 549/565/89
s 6
f 547/559/303 548/560/304 549/566/89
s 6
f 548/560/304 542/554/299 549/567/89
s off
f 550/568/89 507/519/89 508/520/89
s off
f 550/568/89 508/520/89 509/521/89
s off
f 550/568/89 509/521/89 510/522/89
s off
f 550/568/89 510/522/89 511/523/89
s off
f 550/568/89 511/523/89 512/524/89
s off
f 550/568/89 512/524/89 513/525/89
s off
f 550/568/89 513/525/89 507/519/89
s 7
f 551/569/263 552/570/264 559/577/265 558/576/266
s 7
f 552/570/264 553/571/267 560/578/268 559/577/265
s 7
f 553/571/267 554/572/269 561/579/270 560/578/268
s 7
f 554/572/269 555/573/271 562/580/272 561/579/270
s 7
f 555/573/271 556/574/273 563/581/274 562/580/272
s 7
f 556/574/273 557/575/275 564/582/276 563/581/274
s 7
f 557/575/275 551/569/263 558/576/266 564/582/276
s 7
f 558/576/266 559/577/265 566/584/277 565/583/278
s 7
f 559/577/265 560/578/268 567/585/279 566/584/277
s 7
f 560/578/268 561/579/270 568/586/280 567/585/279
s 7
f 561/579/270 562/580/272 569/587/281 568/586/280
s 7
f 562/580/272 563/581/274 570/588/282 569/587/281
s 7
f 563/581/274 564/582/276 571/589/283 570/588/282
s 7
f 564/582/276 558/576/266 565/583/278 571/589/283
s 7
f 565/583/278 566/584/277 573/591/284 572/590/285
s 7
f 566/584/277 567/585/279 574/592/286 573/591/284
s 7
f 567/585/279 568/586/280 575/593/287 574/592/286
s 7
f 568/586/280 569/587/281 576/594/288 575/593/287
s 7
f 569/587/281 570/588/282 577/595/289 576/594/288
s 7
f 570/588/282 571/589/283 578/596/290 577/595/289
s 7
f 571/589/283 565/583/278 572/590/285 578/596/290
s 7
f 572/590/285 573/591/284 580/598/291 579/597/292
s 7
f 573/591/284 574/592/286 581/599/293 580/598/291
s 7
f 574/592/286 575/593/287 582/600/294 581/599/293
s 7
f 575/593/287 576/594/288 583/601/295 582/600/294
s 7
f 576/594/288 577/595/289 584/602/296 583/601/295
s 7
f 577/595/289 578/596/290 585/603/297 584/602/296
s 7
f 578/596/290 572/590/285 579/597/292 585/603/297
s 7
f 579/597/292 580/598/291 587/605/298 586/604/299
s 7
f 580/598/291 581/599/293 588/606/300 587/605/298
s 7
f 581/599/293 582/600/294 589/607/301 588/606/300
s 7
f 582/600/294 583/601/295 590/608/302 589/607/301
s 7
f 583/601/295 584/602/296 591/609/303 590/608/302
s 7
f 584/602/296 585/603/297 592/610/304 591/609/303
s 7
f 585/603/297 579/597/292 586/604/299 592/610/304
s 7
f 586/604/299 587/605/298 593/611/89
s 7
f 587/605/298 588/606/300 593/612/89
s 7
f 588/606/300 589/607/301 593/613/89
s 7
f 589/607/301 590/608/302 593/614/89
s 7
f 590/608/302 591/609/303 593/615/89
s 7
f 591/609/303 592/610/304 593/616/89
s 7
f 592/610/304 586/604/299 593/617/89
s off
f 594/618/89 551/569/89 552/570/89
s off
f 594/618/89 552/570/89 553/571/89
s off
f 594/618/89 553/571/89 554/572/89
s off
f 594/618/89 554/572/89 555/573/89
s off
f 594/618/89 555/573/89 556/574/89
s off
f 594/618/89 556/574/89 557/575/89
s off
f 594/618/89 557/575/89 551/569/89
s 8
f 595/619/263 596/620/264 603/627/265 602/626/266
s 8
f 596/620/264 597/621/267 604/628/268 603/627/265
s 8
f 597/621/267 598/622/269 605/629/270 604/628/268
s 8
f 598/622/269 599/623/271 606/630/272 605/629/270
s 8
f 599/623/271 600/624/273 607/631/274 606/630/272
s 8
f 600/624/273 601/625/275 608/632/276 607/631/274
s 8
f 601/625/275 595/619/263 602/626/266 608/632/276
s 8
f 602/626/266 603/627/265 610/634/277 609/633/278
s 8
f 603/627/265 604/628/268 611/635/279 610/634/277
s 8
f 604/628/268 605/629/270 612/636/280 611/635/279
s 8
f 605/629/270 606/630/272 613/637/281 612/636/280
s 8
f 606/630/272 607/631/274 614/638/282 613/637/281
s 8
f 607/631/274 608/632/276 615/639/283 614/638/282
s 8
f 608/632/276 602/626/266 609/633/278 615/639/283
s 8
f 609/633/278 610/634/277 617/641/284 616/640/285
s 8
f 610/634/277 611/635/279 618/642/286 617/641/284
s 8
f 611/635/279 612/636/280 619/643/287 618/642/286
s 8
f 612/636/280 613/637/281 620/644/288 619/643/287
s 8
f 613/637/281 614/638/282 621/645/289 620/644/288
s 8
f 614/638/282 615/639/283 622/646/290 621/645/289
s 8
f 615/639/283 609/633/278 616/640/285 622/646/290
s 8
f 616/640/285 617/641/284 624/648/291 623/647/292
s 8
f 617/641/284 618/642/286 625/649/293 624/648/291
s 8
f 618/642/286 619/643/287 626/650/294 625/649/293
s 8
f 619/643/287 620/644/288 627/651/295 626/650/294
s 8
f 620/644/288 621/645/289 628/652/296 627/651/295
s 8
f 621/645/289 622/646/290 629/653/297 628/652/296
s 8
f 622/646/290 616/640/285 623/647/292 629/653/297
s 8
f 623/647/292 624/648/291 631/655/298 630/654/299
s 8
f 624/648/291 625/649/293 632/656/300 631/655/298
s 8
f 625/649/293 626/650/294 633/657/301 632/656/300
s 8
f 626/650/294 627/651/295 634/658/302 633/657/301
s 8
f 627/651/295 628/652/296 635/659/303 634/658/302
s 8
f 628/652/296 629/653/297 636/660/304 635/659/303
s 8
f 629/653/297 623/647/292 630/654/299 636/660/304
s 8
f 630/654/299 631/655/298 637/661/89
s 8
f 631/655/298 632/656/300 637/662/89
s 8
f 632/656/300 633/657/301 637/663/89
s 8
f 633/657/301 634/658/302 637/664/89
s 8
f 634/658/302 635/659/303 637/665/89
s 8
f 635/659/303 636/660/304 637/666/89
s 8
f 636/660/304 630/654/299 637/667/89
s off
f 638/668/89 595/619/89 596/620/89
s off
f 638/668/89 596/620/89 597/621/89
s off
f 638/668/89 597/621/89 598/622/89
s off
f 638/668/89 598/622/89 599/623/89
s off
f 638/668/89 599/623/89 600/624/89
s off
f 638/668/89 600/624/89 601/625/89
s off
f 638/668/89 601/625/89 595/619/89
s 9
f 639/669/263 640/670/264 647/677/265 646/676/266
s 9
f 640/670/264 641/671/267 648/678/268 647/677/265
s 9
f 641/671/267 642/672/269 649/679/270 648/678/268
s 9
f 642/672/269 643/673/271 650/680/272 649/679/270
s 9
f 643/673/271 644/674/273 651/681/274 650/680/272
s 9
f 644/674/273 645/675/275 652/682/276 651/681/274
s 9
f 645/675/275 639/669/263 646/676/266 652/682/276
s 9
f 646/676/266 647/677/265 654/684/277 653/683/278
s 9
f 647/677/265 648/678/268 655/685/279 654/684/277
s 9
f 648/678/268 649/679/270 656/686/280 655/685/279
s 9
f 649/679/270 650/680/272 657/687/281 656/686/280
s 9
f 650/680/272 651/681/274 658/688/282 657/687/281
s 9
f 651/681/274 652/682/276 659/689/283 658/688/282
s 9
f 652/682/276 646/676/266 653/683/278 659/689/283
s 9
f 653/683/278 654/684/277 661/691/284 660/690/285
s 9
f 654/684/277 655/685/279 662/692/286 661/691/284
s 9
f 655/685/279 656/686/280 663/693/287 662/692/286
s 9
f 656/686/280 657/687/281 664/694/288 663/693/287
s 9
f 657/687/281 658/688/282 665/695/289 664/694/288
s 9
f 658/688/282 659/689/283 666/696/290 665/695/289
s 9
f 659/689/283 653/683/278 660/690/285 666/696/290
s 9
f 660/690/285 661/691/284 668/698/291 667/697/292
s 9
f 661/691/284 662/692/286 669/699/293 668/698/291
s 9
f 662/692/286 663/693/287 670/700/294 669/699/293
s 9
f 663/693/287 664/694/288 671/701/295 670/700/294
s 9
f 664/694/288 665/695/289 672/702/296 671/701/295
s 9
f 665/695/289 666/696/290 673/703/297 672/702/296
s 9
f 666/696/290 660/690/285 667/697/292 673/703/297
s 9
f 667/697/292 668/698/291 675/705/298 674/704/299
s 9
f 668/698/291 669/699/293 676/706/300 675/705/298
s 9
f 669/699/293 670/700/294 677/707/301 676/706/300
s 9
f 670/700/294 671/701/295 678/708/302 677/707/301
s 9
f 671/701/295 672/702/296 679/709/303 678/708/302
s 9
f 672/702/296 673/703/297 680/710/304 679/709/303
s 9
f 673/703/297 667/697/292 674/704/299 680/710/304
s 9
f 674/704/299 675/705/298 681/711/89
s 9
f 675/705/298 676/706/300 681/712/89
s 9
f 676/706/300 677/707/301 681/713/89
s 9
f 677/707/301 678/708/302 681/714/89
s 9
f 678/708/302 679/709/303 681/715/89
s 9
f 679/709/303 680/710/304 681/716/89
s 9
f 680/710/304 674/704/299 681/717/89
s off
f 682/718/89 639/669/89 640/670/89
s off
f 682/718/89 640/670/89 641/671/89
s off
f 682/718/89 641/671/89 642/672/89
s off
f 682/718/89 642/672/89 643/673/89
s off
f 682/718/89 643/673/89 644/674/89
s off
f 682/718/89 644/674/89 645/675/89
s off
f 682/718/89 645/675/89 639/669/89
