# Blender 5.0.1
# www.blender.org
mtllib placeholder_question.mtl
g Question_Block0.001_Mesh
v -0.644600 0.680000 0.167400
v -0.644600 0.695400 0.180000
v -0.660000 0.695400 0.167400
v -0.644600 1.104600 0.180000
v -0.644600 1.120000 0.167400
v -0.660000 1.104600 0.167400
v -0.644600 0.680000 -0.167400
v -0.660000 0.695400 -0.167400
v -0.644600 0.695400 -0.180000
v -0.644600 1.120000 -0.167400
v -0.644600 1.104600 -0.180000
v -0.660000 1.104600 -0.167400
v -0.235400 0.680000 0.167400
v -0.220000 0.695400 0.167400
v -0.235400 0.695400 0.180000
v -0.235400 1.120000 0.167400
v -0.235400 1.104600 0.180000
v -0.220000 1.104600 0.167400
v -0.235400 0.680000 -0.167400
v -0.235400 0.695400 -0.180000
v -0.220000 0.695400 -0.167400
v -0.235400 1.120000 -0.167400
v -0.220000 1.104600 -0.167400
v -0.235400 1.104600 -0.180000
vn -0.5350 -0.5350 0.6539
vn -0.5350 0.5350 0.6539
vn -0.5350 -0.5350 -0.6539
vn -0.5350 0.5350 -0.6539
vn 0.5350 -0.5350 0.6539
vn 0.5350 0.5350 0.6539
vn 0.5350 -0.5350 -0.6539
vn 0.5350 0.5350 -0.6539
vn -0.7071 -0.7071 -0.0000
vn -0.6332 -0.0000 0.7740
vn -0.7071 0.7071 -0.0000
vn -0.6332 -0.0000 -0.7740
vn -0.0000 -0.6332 -0.7740
vn -0.0000 0.6332 -0.7740
vn 0.6332 -0.0000 -0.7740
vn 0.7071 -0.7071 -0.0000
vn 0.7071 0.7071 -0.0000
vn 0.6332 -0.0000 0.7740
vn -0.0000 -0.6332 0.7740
vn -0.0000 0.6332 0.7740
vn -0.0000 -1.0000 -0.0000
vn -1.0000 -0.0000 -0.0000
vn -0.0000 -0.0000 1.0000
vn -0.0000 1.0000 -0.0000
vn -0.0000 -0.0000 -1.0000
vn 1.0000 -0.0000 -0.0000
vt 0.133750 0.741250
vt 0.133750 0.750000
vt 0.125000 0.741250
vt 0.616250 0.000000
vt 0.625000 0.008750
vt 0.616250 0.008750
vt 0.133750 0.508750
vt 0.125000 0.508750
vt 0.133750 0.500000
vt 0.625000 0.247083
vt 0.616250 0.256563
vt 0.616250 0.241250
vt 0.366250 0.741250
vt 0.381562 0.741250
vt 0.375000 0.754375
vt 0.629375 0.750000
vt 0.616250 0.758750
vt 0.616250 0.743438
vt 0.366250 0.508750
vt 0.375000 0.495625
vt 0.381562 0.508750
vt 0.629375 0.500000
vt 0.616250 0.506562
vt 0.616250 0.491250
vt 0.383750 0.008750
vt 0.383750 0.000000
vt 0.383750 0.258750
vt 0.625000 0.991250
vt 0.383750 0.241250
vt 0.383750 0.991250
vt 0.866250 0.508750
vt 0.616250 0.991250
vt 0.866250 0.741250
s 0
g Question_Block0.001_MAT_BrightGold
usemtl MAT_BrightGold
f 1/1/1 2/2/1 3/3/1
f 4/4/2 5/5/2 6/6/2
f 7/7/3 8/8/3 9/9/3
f 10/10/4 11/11/4 12/12/4
f 13/13/5 14/14/5 15/15/5
f 16/16/6 17/17/6 18/18/6
f 19/19/7 20/20/7 21/21/7
f 22/22/8 23/23/8 24/24/8
f 1/1/9 8/8/9 7/7/9
f 4/4/10 3/25/10 2/26/10
f 10/10/11 6/6/11 5/5/11
f 9/27/12 12/12/12 11/11/12
f 7/7/13 20/20/13 19/19/13
f 22/22/14 11/11/14 10/10/14
f 21/21/15 24/24/15 23/23/15
f 19/19/16 14/14/16 13/13/16
f 16/16/17 23/23/17 22/22/17
f 15/15/18 18/18/18 17/17/18
f 13/13/19 2/2/19 1/1/19
f 5/28/20 17/17/20 16/16/20
f 19/19/21 1/1/21 7/7/21
f 6/6/22 8/29/22 3/25/22
f 17/17/23 2/30/23 15/15/23
f 10/31/24 16/16/24 22/22/24
f 11/11/25 20/20/25 9/27/25
f 23/23/26 14/14/26 21/21/26
f 1/1/9 3/3/9 8/8/9
f 4/4/10 6/6/10 3/25/10
f 10/10/11 12/12/11 6/6/11
f 9/27/12 8/29/12 12/12/12
f 7/7/13 9/9/13 20/20/13
f 22/22/14 24/24/14 11/11/14
f 21/21/15 20/20/15 24/24/15
f 19/19/16 21/21/16 14/14/16
f 16/16/17 18/18/17 23/23/17
f 15/15/18 14/14/18 18/18/18
f 13/13/19 15/15/19 2/2/19
f 5/28/20 4/32/20 17/17/20
f 19/19/21 13/13/21 1/1/21
f 6/6/22 12/12/22 8/29/22
f 17/17/23 4/32/23 2/30/23
f 10/31/24 5/33/24 16/16/24
f 11/11/25 24/24/25 20/20/25
f 23/23/26 18/18/26 14/14/26
g Question_Block1.001_Mesh
v -0.465000 0.920000 0.167400
v -0.465000 0.934000 0.180000
v -0.500000 0.934000 0.167400
v -0.465000 1.306000 0.180000
v -0.465000 1.320000 0.167400
v -0.500000 1.306000 0.167400
v -0.465000 0.920000 -0.167400
v -0.500000 0.934000 -0.167400
v -0.465000 0.934000 -0.180000
v -0.465000 1.320000 -0.167400
v -0.465000 1.306000 -0.180000
v -0.500000 1.306000 -0.167400
v 0.465000 0.920000 0.167400
v 0.500000 0.934000 0.167400
v 0.465000 0.934000 0.180000
v 0.465000 1.320000 0.167400
v 0.465000 1.306000 0.180000
v 0.500000 1.306000 0.167400
v 0.465000 0.920000 -0.167400
v 0.465000 0.934000 -0.180000
v 0.500000 0.934000 -0.167400
v 0.465000 1.320000 -0.167400
v 0.500000 1.306000 -0.167400
v 0.465000 1.306000 -0.180000
vn -0.2585 -0.6462 0.7180
vn -0.2585 0.6462 0.7180
vn -0.2585 -0.6462 -0.7180
vn -0.2585 0.6462 -0.7180
vn 0.2585 -0.6462 0.7180
vn 0.2585 0.6462 0.7180
vn 0.2585 -0.6462 -0.7180
vn 0.2585 0.6462 -0.7180
vn -0.3714 -0.9285 -0.0000
vn -0.3387 -0.0000 0.9409
vn -0.3714 0.9285 -0.0000
vn -0.3387 -0.0000 -0.9409
vn -0.0000 -0.6690 -0.7433
vn -0.0000 0.6690 -0.7433
vn 0.3387 -0.0000 -0.9409
vn 0.3714 -0.9285 -0.0000
vn 0.3714 0.9285 -0.0000
vn 0.3387 -0.0000 0.9409
vn -0.0000 -0.6690 0.7433
vn -0.0000 0.6690 0.7433
vn -0.0000 -1.0000 -0.0000
vn -1.0000 -0.0000 -0.0000
vn -0.0000 -0.0000 1.0000
vn -0.0000 1.0000 -0.0000
vn -0.0000 -0.0000 -1.0000
vn 1.0000 -0.0000 -0.0000
vt 0.133750 0.741250
vt 0.133750 0.750000
vt 0.125000 0.741250
vt 0.616250 0.000000
vt 0.625000 0.008750
vt 0.616250 0.008750
vt 0.133750 0.508750
vt 0.125000 0.508750
vt 0.133750 0.500000
vt 0.625000 0.247083
vt 0.616250 0.256563
vt 0.616250 0.241250
vt 0.366250 0.741250
vt 0.381562 0.741250
vt 0.375000 0.754375
vt 0.629375 0.750000
vt 0.616250 0.758750
vt 0.616250 0.743438
vt 0.366250 0.508750
vt 0.375000 0.495625
vt 0.381562 0.508750
vt 0.629375 0.500000
vt 0.616250 0.506563
vt 0.616250 0.491250
vt 0.383750 0.008750
vt 0.383750 0.000000
vt 0.383750 0.258750
vt 0.625000 0.991250
vt 0.383750 0.241250
vt 0.383750 0.991250
vt 0.866250 0.508750
vt 0.616250 0.991250
vt 0.866250 0.741250
s 0
g Question_Block1.001_MAT_BrightGold
usemtl MAT_BrightGold
f 25/34/27 26/35/27 27/36/27
f 28/37/28 29/38/28 30/39/28
f 31/40/29 32/41/29 33/42/29
f 34/43/30 35/44/30 36/45/30
f 37/46/31 38/47/31 39/48/31
f 40/49/32 41/50/32 42/51/32
f 43/52/33 44/53/33 45/54/33
f 46/55/34 47/56/34 48/57/34
f 25/34/35 32/41/35 31/40/35
f 28/37/36 27/58/36 26/59/36
f 34/43/37 30/39/37 29/38/37
f 33/60/38 36/45/38 35/44/38
f 31/40/39 44/53/39 43/52/39
f 46/55/40 35/44/40 34/43/40
f 45/54/41 48/57/41 47/56/41
f 43/52/42 38/47/42 37/46/42
f 40/49/43 47/56/43 46/55/43
f 39/48/44 42/51/44 41/50/44
f 37/46/45 26/35/45 25/34/45
f 29/61/46 41/50/46 40/49/46
f 43/52/47 25/34/47 31/40/47
f 30/39/48 32/62/48 27/58/48
f 41/50/49 26/63/49 39/48/49
f 34/64/50 40/49/50 46/55/50
f 35/44/51 44/53/51 33/60/51
f 47/56/52 38/47/52 45/54/52
f 25/34/35 27/36/35 32/41/35
f 28/37/36 30/39/36 27/58/36
f 34/43/37 36/45/37 30/39/37
f 33/60/38 32/62/38 36/45/38
f 31/40/39 33/42/39 44/53/39
f 46/55/40 48/57/40 35/44/40
f 45/54/41 44/53/41 48/57/41
f 43/52/42 45/54/42 38/47/42
f 40/49/43 42/51/43 47/56/43
f 39/48/44 38/47/44 42/51/44
f 37/46/45 39/48/45 26/35/45
f 29/61/46 28/65/46 41/50/46
f 43/52/47 37/46/47 25/34/47
f 30/39/48 36/45/48 32/62/48
f 41/50/49 28/65/49 26/63/49
f 34/64/50 29/66/50 40/49/50
f 35/44/51 48/57/51 44/53/51
f 47/56/52 42/51/52 38/47/52
g Question_Block2.001_Mesh
v 0.294000 0.560000 0.167400
v 0.294000 0.581000 0.180000
v 0.280000 0.581000 0.167400
v 0.294000 1.139000 0.180000
v 0.294000 1.160000 0.167400
v 0.280000 1.139000 0.167400
v 0.294000 0.560000 -0.167400
v 0.280000 0.581000 -0.167400
v 0.294000 0.581000 -0.180000
v 0.294000 1.160000 -0.167400
v 0.294000 1.139000 -0.180000
v 0.280000 1.139000 -0.167400
v 0.666000 0.560000 0.167400
v 0.680000 0.581000 0.167400
v 0.666000 0.581000 0.180000
v 0.666000 1.160000 0.167400
v 0.666000 1.139000 0.180000
v 0.680000 1.139000 0.167400
v 0.666000 0.560000 -0.167400
v 0.666000 0.581000 -0.180000
v 0.680000 0.581000 -0.167400
v 0.666000 1.160000 -0.167400
v 0.680000 1.139000 -0.167400
v 0.666000 1.139000 -0.180000
vn -0.6110 -0.4073 0.6788
vn -0.6110 0.4073 0.6788
vn -0.6110 -0.4073 -0.6788
vn -0.6110 0.4073 -0.6788
vn 0.6110 -0.4073 0.6788
vn 0.6110 0.4073 0.6788
vn 0.6110 -0.4073 -0.6788
vn 0.6110 0.4073 -0.6788
vn -0.8321 -0.5547 -0.0000
vn -0.6690 -0.0000 0.7433
vn -0.8321 0.5547 -0.0000
vn -0.6690 -0.0000 -0.7433
vn -0.0000 -0.5145 -0.8575
vn -0.0000 0.5145 -0.8575
vn 0.6690 -0.0000 -0.7433
vn 0.8321 -0.5547 -0.0000
vn 0.8321 0.5547 -0.0000
vn 0.6690 -0.0000 0.7433
vn -0.0000 -0.5145 0.8575
vn -0.0000 0.5145 0.8575
vn -0.0000 -1.0000 -0.0000
vn -1.0000 -0.0000 -0.0000
vn -0.0000 -0.0000 1.0000
vn -0.0000 1.0000 -0.0000
vn -0.0000 -0.0000 -1.0000
vn 1.0000 -0.0000 -0.0000
vt 0.133750 0.741250
vt 0.133750 0.750000
vt 0.125000 0.741250
vt 0.616250 0.000000
vt 0.625000 0.008750
vt 0.616250 0.008750
vt 0.133750 0.508750
vt 0.125000 0.508750
vt 0.133750 0.500000
vt 0.625000 0.247083
vt 0.616250 0.256563
vt 0.616250 0.241250
vt 0.366250 0.741250
vt 0.381562 0.741250
vt 0.375000 0.754375
vt 0.629375 0.750000
vt 0.616250 0.758750
vt 0.616250 0.743438
vt 0.366250 0.508750
vt 0.375000 0.495625
vt 0.381562 0.508750
vt 0.629375 0.500000
vt 0.616250 0.506563
vt 0.616250 0.491250
vt 0.383750 0.008750
vt 0.383750 0.000000
vt 0.383750 0.258750
vt 0.625000 0.991250
vt 0.383750 0.241250
vt 0.383750 0.991250
vt 0.866250 0.508750
vt 0.616250 0.991250
vt 0.866250 0.741250
s 0
g Question_Block2.001_MAT_BrightGold
usemtl MAT_BrightGold
f 49/67/53 50/68/53 51/69/53
f 52/70/54 53/71/54 54/72/54
f 55/73/55 56/74/55 57/75/55
f 58/76/56 59/77/56 60/78/56
f 61/79/57 62/80/57 63/81/57
f 64/82/58 65/83/58 66/84/58
f 67/85/59 68/86/59 69/87/59
f 70/88/60 71/89/60 72/90/60
f 49/67/61 56/74/61 55/73/61
f 52/70/62 51/91/62 50/92/62
f 58/76/63 54/72/63 53/71/63
f 57/93/64 60/78/64 59/77/64
f 55/73/65 68/86/65 67/85/65
f 70/88/66 59/77/66 58/76/66
f 69/87/67 72/90/67 71/89/67
f 67/85/68 62/80/68 61/79/68
f 64/82/69 71/89/69 70/88/69
f 63/81/70 66/84/70 65/83/70
f 61/79/71 50/68/71 49/67/71
f 53/94/72 65/83/72 64/82/72
f 67/85/73 49/67/73 55/73/73
f 54/72/74 56/95/74 51/91/74
f 65/83/75 50/96/75 63/81/75
f 58/97/76 64/82/76 70/88/76
f 59/77/77 68/86/77 57/93/77
f 71/89/78 62/80/78 69/87/78
f 49/67/61 51/69/61 56/74/61
f 52/70/62 54/72/62 51/91/62
f 58/76/63 60/78/63 54/72/63
f 57/93/64 56/95/64 60/78/64
f 55/73/65 57/75/65 68/86/65
f 70/88/66 72/90/66 59/77/66
f 69/87/67 68/86/67 72/90/67
f 67/85/68 69/87/68 62/80/68
f 64/82/69 66/84/69 71/89/69
f 63/81/70 62/80/70 66/84/70
f 61/79/71 63/81/71 50/68/71
f 53/94/72 52/98/72 65/83/72
f 67/85/73 61/79/73 49/67/73
f 54/72/74 60/78/74 56/95/74
f 65/83/75 52/98/75 50/96/75
f 58/97/76 53/99/76 64/82/76
f 59/77/77 72/90/77 68/86/77
f 71/89/78 66/84/78 62/80/78
g Question_Block3.001_Mesh
v 0.115400 0.180000 0.167400
v 0.115400 0.195400 0.180000
v 0.100000 0.195400 0.167400
v 0.115400 0.604600 0.180000
v 0.115400 0.620000 0.167400
v 0.100000 0.604600 0.167400
v 0.115400 0.180000 -0.167400
v 0.100000 0.195400 -0.167400
v 0.115400 0.195400 -0.180000
v 0.115400 0.620000 -0.167400
v 0.115400 0.604600 -0.180000
v 0.100000 0.604600 -0.167400
v 0.524600 0.180000 0.167400
v 0.540000 0.195400 0.167400
v 0.524600 0.195400 0.180000
v 0.524600 0.620000 0.167400
v 0.524600 0.604600 0.180000
v 0.540000 0.604600 0.167400
v 0.524600 0.180000 -0.167400
v 0.524600 0.195400 -0.180000
v 0.540000 0.195400 -0.167400
v 0.524600 0.620000 -0.167400
v 0.540000 0.604600 -0.167400
v 0.524600 0.604600 -0.180000
vn -0.5350 -0.5350 0.6539
vn -0.5350 0.5350 0.6539
vn -0.5350 -0.5350 -0.6539
vn -0.5350 0.5350 -0.6539
vn 0.5350 -0.5350 0.6539
vn 0.5350 0.5350 0.6539
vn 0.5350 -0.5350 -0.6539
vn 0.5350 0.5350 -0.6539
vn -0.7071 -0.7071 -0.0000
vn -0.6332 -0.0000 0.7740
vn -0.7071 0.7071 -0.0000
vn -0.6332 -0.0000 -0.7740
vn -0.0000 -0.6332 -0.7740
vn -0.0000 0.6332 -0.7740
vn 0.6332 -0.0000 -0.7740
vn 0.7071 -0.7071 -0.0000
vn 0.7071 0.7071 -0.0000
vn 0.6332 -0.0000 0.7740
vn -0.0000 -0.6332 0.7740
vn -0.0000 0.6332 0.7740
vn -0.0000 -1.0000 -0.0000
vn -1.0000 -0.0000 -0.0000
vn -0.0000 -0.0000 1.0000
vn -0.0000 1.0000 -0.0000
vn -0.0000 -0.0000 -1.0000
vn 1.0000 -0.0000 -0.0000
vt 0.133750 0.741250
vt 0.133750 0.750000
vt 0.125000 0.741250
vt 0.616250 0.000000
vt 0.625000 0.008750
vt 0.616250 0.008750
vt 0.133750 0.508750
vt 0.125000 0.508750
vt 0.133750 0.500000
vt 0.625000 0.247083
vt 0.616250 0.256563
vt 0.616250 0.241250
vt 0.366250 0.741250
vt 0.381562 0.741250
vt 0.375000 0.754375
vt 0.629375 0.750000
vt 0.616250 0.758750
vt 0.616250 0.743438
vt 0.366250 0.508750
vt 0.375000 0.495625
vt 0.381562 0.508750
vt 0.629375 0.500000
vt 0.616250 0.506562
vt 0.616250 0.491250
vt 0.383750 0.008750
vt 0.383750 0.000000
vt 0.383750 0.258750
vt 0.625000 0.991250
vt 0.383750 0.241250
vt 0.383750 0.991250
vt 0.866250 0.508750
vt 0.616250 0.991250
vt 0.866250 0.741250
s 0
g Question_Block3.001_MAT_BrightGold
usemtl MAT_BrightGold
f 73/100/79 74/101/79 75/102/79
f 76/103/80 77/104/80 78/105/80
f 79/106/81 80/107/81 81/108/81
f 82/109/82 83/110/82 84/111/82
f 85/112/83 86/113/83 87/114/83
f 88/115/84 89/116/84 90/117/84
f 91/118/85 92/119/85 93/120/85
f 94/121/86 95/122/86 96/123/86
f 73/100/87 80/107/87 79/106/87
f 76/103/88 75/124/88 74/125/88
f 82/109/89 78/105/89 77/104/89
f 81/126/90 84/111/90 83/110/90
f 79/106/91 92/119/91 91/118/91
f 94/121/92 83/110/92 82/109/92
f 93/120/93 96/123/93 95/122/93
f 91/118/94 86/113/94 85/112/94
f 88/115/95 95/122/95 94/121/95
f 87/114/96 90/117/96 89/116/96
f 85/112/97 74/101/97 73/100/97
f 77/127/98 89/116/98 88/115/98
f 91/118/99 73/100/99 79/106/99
f 78/105/100 80/128/100 75/124/100
f 89/116/101 74/129/101 87/114/101
f 82/130/102 88/115/102 94/121/102
f 83/110/103 92/119/103 81/126/103
f 95/122/104 86/113/104 93/120/104
f 73/100/87 75/102/87 80/107/87
f 76/103/88 78/105/88 75/124/88
f 82/109/89 84/111/89 78/105/89
f 81/126/90 80/128/90 84/111/90
f 79/106/91 81/108/91 92/119/91
f 94/121/92 96/123/92 83/110/92
f 93/120/93 92/119/93 96/123/93
f 91/118/94 93/120/94 86/113/94
f 88/115/95 90/117/95 95/122/95
f 87/114/96 86/113/96 90/117/96
f 85/112/97 87/114/97 74/101/97
f 77/127/98 76/131/98 89/116/98
f 91/118/99 85/112/99 73/100/99
f 78/105/100 84/111/100 80/128/100
f 89/116/101 76/131/101 74/129/101
f 82/130/102 77/132/102 88/115/102
f 83/110/103 96/123/103 92/119/103
f 95/122/104 90/117/104 86/113/104
g Question_Block4.001_Mesh
v -0.221800 -0.020000 0.167400
v -0.221800 -0.007400 0.180000
v -0.240000 -0.007400 0.167400
v -0.221800 0.327400 0.180000
v -0.221800 0.340000 0.167400
v -0.240000 0.327400 0.167400
v -0.221800 -0.020000 -0.167400
v -0.240000 -0.007400 -0.167400
v -0.221800 -0.007400 -0.180000
v -0.221800 0.340000 -0.167400
v -0.221800 0.327400 -0.180000
v -0.240000 0.327400 -0.167400
v 0.261800 -0.020000 0.167400
v 0.280000 -0.007400 0.167400
v 0.261800 -0.007400 0.180000
v 0.261800 0.340000 0.167400
v 0.261800 0.327400 0.180000
v 0.280000 0.327400 0.167400
v 0.261800 -0.020000 -0.167400
v 0.261800 -0.007400 -0.180000
v 0.280000 -0.007400 -0.167400
v 0.261800 0.340000 -0.167400
v 0.280000 0.327400 -0.167400
v 0.261800 0.327400 -0.180000
vn -0.4397 -0.6351 0.6351
vn -0.4397 0.6351 0.6351
vn -0.4397 -0.6351 -0.6351
vn -0.4397 0.6351 -0.6351
vn 0.4397 -0.6351 0.6351
vn 0.4397 0.6351 0.6351
vn 0.4397 -0.6351 -0.6351
vn 0.4397 0.6351 -0.6351
vn -0.5692 -0.8222 -0.0000
vn -0.5692 -0.0000 0.8222
vn -0.5692 0.8222 -0.0000
vn -0.5692 -0.0000 -0.8222
vn -0.0000 -0.7071 -0.7071
vn -0.0000 0.7071 -0.7071
vn 0.5692 -0.0000 -0.8222
vn 0.5692 -0.8222 -0.0000
vn 0.5692 0.8222 -0.0000
vn 0.5692 -0.0000 0.8222
vn -0.0000 -0.7071 0.7071
vn -0.0000 0.7071 0.7071
vn -0.0000 -1.0000 -0.0000
vn -1.0000 -0.0000 -0.0000
vn -0.0000 -0.0000 1.0000
vn -0.0000 1.0000 -0.0000
vn -0.0000 -0.0000 -1.0000
vn 1.0000 -0.0000 -0.0000
vt 0.133750 0.741250
vt 0.133750 0.750000
vt 0.125000 0.741250
vt 0.616250 0.000000
vt 0.625000 0.008750
vt 0.616250 0.008750
vt 0.133750 0.508750
vt 0.125000 0.508750
vt 0.133750 0.500000
vt 0.625000 0.247083
vt 0.616250 0.256563
vt 0.616250 0.241250
vt 0.366250 0.741250
vt 0.381562 0.741250
vt 0.375000 0.754375
vt 0.629375 0.750000
vt 0.616250 0.758750
vt 0.616250 0.743438
vt 0.366250 0.508750
vt 0.375000 0.495625
vt 0.381562 0.508750
vt 0.629375 0.500000
vt 0.616250 0.506563
vt 0.616250 0.491250
vt 0.383750 0.008750
vt 0.383750 0.000000
vt 0.383750 0.258750
vt 0.625000 0.991250
vt 0.383750 0.241250
vt 0.383750 0.991250
vt 0.866250 0.508750
vt 0.616250 0.991250
vt 0.866250 0.741250
s 0
g Question_Block4.001_MAT_BrightGold
usemtl MAT_BrightGold
f 97/133/105 98/134/105 99/135/105
f 100/136/106 101/137/106 102/138/106
f 103/139/107 104/140/107 105/141/107
f 106/142/108 107/143/108 108/144/108
f 109/145/109 110/146/109 111/147/109
f 112/148/110 113/149/110 114/150/110
f 115/151/111 116/152/111 117/153/111
f 118/154/112 119/155/112 120/156/112
f 97/133/113 104/140/113 103/139/113
f 100/136/114 99/157/114 98/158/114
f 106/142/115 102/138/115 101/137/115
f 105/159/116 108/144/116 107/143/116
f 103/139/117 116/152/117 115/151/117
f 118/154/118 107/143/118 106/142/118
f 117/153/119 120/156/119 119/155/119
f 115/151/120 110/146/120 109/145/120
f 112/148/121 119/155/121 118/154/121
f 111/147/122 114/150/122 113/149/122
f 109/145/123 98/134/123 97/133/123
f 101/160/124 113/149/124 112/148/124
f 115/151/125 97/133/125 103/139/125
f 102/138/126 104/161/126 99/157/126
f 113/149/127 98/162/127 111/147/127
f 106/163/128 112/148/128 118/154/128
f 107/143/129 116/152/129 105/159/129
f 119/155/130 110/146/130 117/153/130
f 97/133/113 99/135/113 104/140/113
f 100/136/114 102/138/114 99/157/114
f 106/142/115 108/144/115 102/138/115
f 105/159/116 104/161/116 108/144/116
f 103/139/117 105/141/117 116/152/117
f 118/154/118 120/156/118 107/143/118
f 117/153/119 116/152/119 120/156/119
f 115/151/120 117/153/120 110/146/120
f 112/148/121 114/150/121 119/155/121
f 111/147/122 110/146/122 114/150/122
f 109/145/123 111/147/123 98/134/123
f 101/160/124 100/164/124 113/149/124
f 115/151/125 109/145/125 97/133/125
f 102/138/126 108/144/126 104/161/126
f 113/149/127 100/164/127 98/162/127
f 106/163/128 101/165/128 112/148/128
f 107/143/129 120/156/129 116/152/129
f 119/155/130 114/150/130 110/146/130
g Question_Block5.001_Mesh
v -0.167400 -0.400000 0.167400
v -0.167400 -0.387400 0.180000
v -0.180000 -0.387400 0.167400
v -0.167400 -0.052600 0.180000
v -0.167400 -0.040000 0.167400
v -0.180000 -0.052600 0.167400
v -0.167400 -0.400000 -0.167400
v -0.180000 -0.387400 -0.167400
v -0.167400 -0.387400 -0.180000
v -0.167400 -0.040000 -0.167400
v -0.167400 -0.052600 -0.180000
v -0.180000 -0.052600 -0.167400
v 0.167400 -0.400000 0.167400
v 0.180000 -0.387400 0.167400
v 0.167400 -0.387400 0.180000
v 0.167400 -0.040000 0.167400
v 0.167400 -0.052600 0.180000
v 0.180000 -0.052600 0.167400
v 0.167400 -0.400000 -0.167400
v 0.167400 -0.387400 -0.180000
v 0.180000 -0.387400 -0.167400
v 0.167400 -0.040000 -0.167400
v 0.180000 -0.052600 -0.167400
v 0.167400 -0.052600 -0.180000
vn -0.5774 -0.5774 0.5774
vn -0.5774 0.5774 0.5774
vn -0.5774 -0.5774 -0.5774
vn -0.5774 0.5774 -0.5774
vn 0.5774 -0.5774 0.5774
vn 0.5774 0.5774 0.5774
vn 0.5774 -0.5774 -0.5774
vn 0.5774 0.5774 -0.5774
vn -0.7071 -0.7071 -0.0000
vn -0.7071 -0.0000 0.7071
vn -0.7071 0.7071 -0.0000
vn -0.7071 -0.0000 -0.7071
vn -0.0000 -0.7071 -0.7071
vn -0.0000 0.7071 -0.7071
vn 0.7071 -0.0000 -0.7071
vn 0.7071 -0.7071 -0.0000
vn 0.7071 0.7071 -0.0000
vn 0.7071 -0.0000 0.7071
vn -0.0000 -0.7071 0.7071
vn -0.0000 0.7071 0.7071
vn -0.0000 -1.0000 -0.0000
vn -1.0000 -0.0000 -0.0000
vn -0.0000 -0.0000 1.0000
vn -0.0000 1.0000 -0.0000
vn -0.0000 -0.0000 -1.0000
vn 1.0000 -0.0000 -0.0000
vt 0.133750 0.741250
vt 0.133750 0.750000
vt 0.125000 0.741250
vt 0.616250 0.000000
vt 0.625000 0.008750
vt 0.616250 0.008750
vt 0.133750 0.508750
vt 0.125000 0.508750
vt 0.133750 0.500000
vt 0.625000 0.247083
vt 0.616250 0.256563
vt 0.616250 0.241250
vt 0.366250 0.741250
vt 0.381562 0.741250
vt 0.375000 0.754375
vt 0.629375 0.750000
vt 0.616250 0.758750
vt 0.616250 0.743438
vt 0.366250 0.508750
vt 0.375000 0.495625
vt 0.381562 0.508750
vt 0.629375 0.500000
vt 0.616250 0.506563
vt 0.616250 0.491250
vt 0.383750 0.008750
vt 0.383750 0.000000
vt 0.383750 0.258750
vt 0.625000 0.991250
vt 0.383750 0.241250
vt 0.383750 0.991250
vt 0.866250 0.508750
vt 0.616250 0.991250
vt 0.866250 0.741250
s 0
g Question_Block5.001_MAT_BrightGold
usemtl MAT_BrightGold
f 121/166/131 122/167/131 123/168/131
f 124/169/132 125/170/132 126/171/132
f 127/172/133 128/173/133 129/174/133
f 130/175/134 131/176/134 132/177/134
f 133/178/135 134/179/135 135/180/135
f 136/181/136 137/182/136 138/183/136
f 139/184/137 140/185/137 141/186/137
f 142/187/138 143/188/138 144/189/138
f 121/166/139 128/173/139 127/172/139
f 124/169/140 123/190/140 122/191/140
f 130/175/141 126/171/141 125/170/141
f 129/192/142 132/177/142 131/176/142
f 127/172/143 140/185/143 139/184/143
f 142/187/144 131/176/144 130/175/144
f 141/186/145 144/189/145 143/188/145
f 139/184/146 134/179/146 133/178/146
f 136/181/147 143/188/147 142/187/147
f 135/180/148 138/183/148 137/182/148
f 133/178/149 122/167/149 121/166/149
f 125/193/150 137/182/150 136/181/150
f 139/184/151 121/166/151 127/172/151
f 126/171/152 128/194/152 123/190/152
f 137/182/153 122/195/153 135/180/153
f 130/196/154 136/181/154 142/187/154
f 131/176/155 140/185/155 129/192/155
f 143/188/156 134/179/156 141/186/156
f 121/166/139 123/168/139 128/173/139
f 124/169/140 126/171/140 123/190/140
f 130/175/141 132/177/141 126/171/141
f 129/192/142 128/194/142 132/177/142
f 127/172/143 129/174/143 140/185/143
f 142/187/144 144/189/144 131/176/144
f 141/186/145 140/185/145 144/189/145
f 139/184/146 141/186/146 134/179/146
f 136/181/147 138/183/147 143/188/147
f 135/180/148 134/179/148 138/183/148
f 133/178/149 135/180/149 122/167/149
f 125/193/150 124/197/150 137/182/150
f 139/184/151 133/178/151 121/166/151
f 126/171/152 132/177/152 128/194/152
f 137/182/153 124/197/153 122/195/153
f 130/196/154 125/198/154 136/181/154
f 131/176/155 144/189/155 140/185/155
f 143/188/156 138/183/156 134/179/156
g Question_Dot.001_Mesh
v 0.000000 -1.040000 0.000000
v 0.159192 -0.918387 0.094630
v -0.060805 -0.918387 0.153115
v -0.196773 -0.918387 0.000000
v -0.060805 -0.918387 -0.153115
v 0.159192 -0.918387 -0.094630
v 0.060805 -0.721612 0.153115
v -0.159192 -0.721612 0.094630
v -0.159192 -0.721612 -0.094630
v 0.060805 -0.721612 -0.153115
v 0.196773 -0.721612 0.000000
v 0.000000 -0.600000 0.000000
vn 0.1738 -0.7364 0.6539
vn 0.6071 -0.7947 -0.0000
vn -0.4764 -0.7708 0.4230
vn -0.4764 -0.7708 -0.4230
vn 0.1738 -0.7364 -0.6539
vn 0.9822 -0.1876 -0.0000
vn 0.2537 -0.1568 0.9545
vn -0.7364 -0.1738 0.6539
vn -0.7364 -0.1738 -0.6539
vn 0.2537 -0.1568 -0.9545
vn 0.7364 0.1738 0.6539
vn -0.2537 0.1568 0.9545
vn -0.9822 0.1876 -0.0000
vn -0.2537 0.1568 -0.9545
vn 0.7364 0.1738 -0.6539
vn 0.4764 0.7708 0.4230
vn -0.1738 0.7364 0.6539
vn -0.6071 0.7947 -0.0000
vn -0.1738 0.7364 -0.6539
vn 0.4764 0.7708 -0.4230
vt 0.181819 0.000000
vt 0.272728 0.157461
vt 0.090910 0.157461
vt 0.363637 0.000000
vt 0.454546 0.157461
vt 0.909091 0.000000
vt 1.000000 0.157461
vt 0.818182 0.157461
vt 0.727273 0.000000
vt 0.636364 0.157461
vt 0.545455 0.000000
vt 0.363637 0.314921
vt 0.181819 0.314921
vt 0.909091 0.314921
vt 0.727273 0.314921
vt 0.545455 0.314921
vt 0.000000 0.314921
vt 0.272728 0.472382
vt 0.090910 0.472382
vt 0.818182 0.472382
vt 0.636364 0.472382
vt 0.454546 0.472382
s 0
g Question_Dot.001_MAT_Ruby
usemtl MAT_Ruby
f 145/199/157 146/200/157 147/201/157
f 146/200/158 145/202/158 150/203/158
f 145/204/159 147/205/159 148/206/159
f 145/207/160 148/206/160 149/208/160
f 145/209/161 149/208/161 150/203/161
f 146/200/162 150/203/162 155/210/162
f 147/201/163 146/200/163 151/211/163
f 148/206/164 147/205/164 152/212/164
f 149/208/165 148/206/165 153/213/165
f 150/203/166 149/208/166 154/214/166
f 146/200/167 155/210/167 151/211/167
f 147/201/168 151/211/168 152/215/168
f 148/206/169 152/212/169 153/213/169
f 149/208/170 153/213/170 154/214/170
f 150/203/171 154/214/171 155/210/171
f 151/211/172 155/210/172 156/216/172
f 152/215/173 151/211/173 156/217/173
f 153/213/174 152/212/174 156/218/174
f 154/214/175 153/213/175 156/219/175
f 155/210/176 154/214/176 156/220/176
g Question_Halo.001_Mesh
v 1.120000 0.200000 0.000000
v 1.050000 0.200000 0.070000
v 0.980000 0.200000 0.000000
v 1.050000 0.200000 -0.070000
v 1.034745 0.628605 -0.000000
v 0.970074 0.601817 0.070000
v 0.905402 0.575029 -0.000000
v 0.970074 0.601817 -0.070000
v 0.791960 0.991959 -0.000000
v 0.742462 0.942462 0.070000
v 0.692965 0.892964 -0.000000
v 0.742462 0.942462 -0.070000
v 0.428606 1.234745 -0.000000
v 0.401818 1.170073 0.070000
v 0.375030 1.105402 -0.000000
v 0.401818 1.170073 -0.070000
v 0.000000 1.320000 -0.000000
v 0.000000 1.250000 0.070000
v 0.000000 1.180000 -0.000000
v 0.000000 1.250000 -0.070000
v -0.428606 1.234745 -0.000000
v -0.401818 1.170073 0.070000
v -0.375030 1.105402 -0.000000
v -0.401818 1.170073 -0.070000
v -0.791960 0.991959 -0.000000
v -0.742462 0.942462 0.070000
v -0.692965 0.892964 -0.000000
v -0.742462 0.942462 -0.070000
v -1.034745 0.628605 -0.000000
v -0.970073 0.601817 0.070000
v -0.905402 0.575030 -0.000000
v -0.970073 0.601817 -0.070000
v -1.120000 0.200000 -0.000000
v -1.050000 0.200000 0.070000
v -0.980000 0.200000 -0.000000
v -1.050000 0.200000 -0.070000
v -1.034745 -0.228605 0.000000
v -0.970074 -0.201817 0.070000
v -0.905402 -0.175030 0.000000
v -0.970074 -0.201817 -0.070000
v -0.791960 -0.591960 0.000000
v -0.742462 -0.542462 0.070000
v -0.692965 -0.492965 0.000000
v -0.742462 -0.542462 -0.070000
v -0.428606 -0.834745 0.000000
v -0.401818 -0.770074 0.070000
v -0.375030 -0.705402 0.000000
v -0.401818 -0.770074 -0.070000
v 0.000000 -0.920000 0.000000
v 0.000000 -0.850000 0.070000
v 0.000000 -0.780000 0.000000
v 0.000000 -0.850000 -0.070000
v 0.428606 -0.834745 0.000000
v 0.401818 -0.770074 0.070000
v 0.375030 -0.705402 0.000000
v 0.401818 -0.770074 -0.070000
v 0.791959 -0.591960 0.000000
v 0.742462 -0.542463 0.070000
v 0.692964 -0.492965 0.000000
v 0.742462 -0.542463 -0.070000
v 1.034745 -0.228606 0.000000
v 0.970073 -0.201818 0.070000
v 0.905402 -0.175030 0.000000
v 0.970073 -0.201818 -0.070000
vn 0.7002 0.1393 0.7002
vn -0.7002 -0.1393 0.7002
vn -0.7002 -0.1393 -0.7002
vn 0.7002 0.1393 -0.7002
vn 0.5936 0.3966 0.7002
vn -0.5936 -0.3966 0.7002
vn -0.5936 -0.3966 -0.7002
vn 0.5936 0.3966 -0.7002
vn 0.3966 0.5936 0.7002
vn -0.3966 -0.5936 0.7002
vn -0.3966 -0.5936 -0.7002
vn 0.3966 0.5936 -0.7002
vn 0.1393 0.7002 0.7002
vn -0.1393 -0.7002 0.7002
vn -0.1393 -0.7002 -0.7002
vn 0.1393 0.7002 -0.7002
vn -0.1393 0.7002 0.7002
vn 0.1393 -0.7002 0.7002
vn 0.1393 -0.7002 -0.7002
vn -0.1393 0.7002 -0.7002
vn -0.3966 0.5936 0.7002
vn 0.3966 -0.5936 0.7002
vn 0.3966 -0.5936 -0.7002
vn -0.3966 0.5936 -0.7002
vn -0.5936 0.3966 0.7002
vn 0.5936 -0.3966 0.7002
vn 0.5936 -0.3966 -0.7002
vn -0.5936 0.3966 -0.7002
vn -0.7002 0.1393 0.7002
vn 0.7002 -0.1393 0.7002
vn 0.7002 -0.1393 -0.7002
vn -0.7002 0.1393 -0.7002
vt 0.562500 0.500000
vt 0.500000 0.750000
vt 0.500000 0.500000
vt 0.562500 1.000000
vt 0.500000 1.000000
vt 0.562500 0.000000
vt 0.500000 0.250000
vt 0.500000 0.000000
vt 0.625000 0.750000
vt 0.562500 0.750000
vt 0.625000 0.000000
vt 0.562500 0.250000
vt 0.625000 0.250000
vt 0.687500 0.500000
vt 0.625000 0.500000
vt 0.687500 0.750000
vt 0.625000 1.000000
vt 0.687500 0.250000
vt 0.750000 0.500000
vt 0.750000 0.750000
vt 0.687500 1.000000
vt 0.750000 0.000000
vt 0.687500 0.000000
vt 0.812500 0.500000
vt 0.812500 0.750000
vt 0.750000 1.000000
vt 0.812500 0.000000
vt 0.750000 0.250000
vt 0.875000 0.500000
vt 0.875000 0.750000
vt 0.812500 1.000000
vt 0.875000 0.000000
vt 0.812500 0.250000
vt 0.937500 0.500000
vt 0.937500 1.000000
vt 0.875000 1.000000
vt 0.937500 0.000000
vt 0.875000 0.250000
vt 1.000000 0.500000
vt 0.937500 0.750000
vt 1.000000 0.750000
vt 1.000000 0.000000
vt 0.937500 0.250000
vt 1.000000 0.250000
vt 0.062500 0.500000
vt 0.000000 0.750000
vt 0.000000 0.500000
vt 0.062500 0.750000
vt 0.000000 1.000000
vt 0.000000 0.000000
vt 0.062500 0.250000
vt 0.000000 0.250000
vt 0.125000 0.750000
vt 0.062500 1.000000
vt 0.062500 0.000000
vt 0.125000 0.250000
vt 0.125000 0.500000
vt 0.187500 0.750000
vt 0.125000 1.000000
vt 0.187500 0.000000
vt 0.125000 0.000000
vt 0.187500 0.250000
vt 0.187500 0.500000
vt 0.250000 0.750000
vt 0.187500 1.000000
vt 0.250000 0.000000
vt 0.250000 0.250000
vt 0.312500 0.500000
vt 0.250000 0.500000
vt 0.312500 0.750000
vt 0.250000 1.000000
vt 0.312500 0.000000
vt 0.375000 0.500000
vt 0.375000 0.750000
vt 0.312500 1.000000
vt 0.375000 0.250000
vt 0.312500 0.250000
vt 0.437500 0.500000
vt 0.437500 0.750000
vt 0.375000 1.000000
vt 0.437500 0.000000
vt 0.375000 0.000000
vt 0.437500 1.000000
vt 0.437500 0.250000
vt 1.000000 1.000000
s 0
g Question_Halo.001_MAT_OldGold
usemtl MAT_OldGold
f 161/221/177 158/222/177 157/223/177
f 158/222/178 163/224/178 159/225/178
f 163/226/179 160/227/179 159/228/179
f 160/227/180 161/221/180 157/223/180
f 161/221/181 166/229/181 162/230/181
f 166/229/182 163/224/182 162/230/182
f 167/231/183 164/232/183 163/226/183
f 168/233/184 161/221/184 164/232/184
f 169/234/185 166/229/185 165/235/185
f 170/236/186 167/237/186 166/229/186
f 167/231/187 172/238/187 168/233/187
f 168/233/188 169/234/188 165/235/188
f 173/239/189 170/236/189 169/234/189
f 174/240/190 171/241/190 170/236/190
f 175/242/191 172/238/191 171/243/191
f 172/238/192 173/239/192 169/234/192
f 177/244/193 174/240/193 173/239/193
f 178/245/194 175/246/194 174/240/194
f 179/247/195 176/248/195 175/242/195
f 176/248/196 177/244/196 173/239/196
f 181/249/197 178/245/197 177/244/197
f 182/250/198 179/251/198 178/245/198
f 183/252/199 180/253/199 179/247/199
f 180/253/200 181/249/200 177/244/200
f 185/254/201 182/250/201 181/249/201
f 182/250/202 187/255/202 183/256/202
f 187/257/203 184/258/203 183/252/203
f 184/258/204 185/254/204 181/249/204
f 189/259/205 186/260/205 185/254/205
f 190/261/206 187/255/206 186/260/206
f 191/262/207 188/263/207 187/257/207
f 192/264/208 185/254/208 188/263/208
f 193/265/178 190/266/178 189/267/178
f 194/268/177 191/269/177 190/266/177
f 191/270/180 196/271/180 192/272/180
f 196/271/179 189/267/179 192/272/179
f 193/265/182 198/273/182 194/268/182
f 198/273/181 195/274/181 194/268/181
f 195/275/184 200/276/184 196/271/184
f 200/276/183 193/265/183 196/271/183
f 197/277/186 202/278/186 198/273/186
f 202/278/185 199/279/185 198/273/185
f 203/280/188 200/276/188 199/281/188
f 204/282/187 197/277/187 200/276/187
f 201/283/190 206/284/190 202/278/190
f 206/284/189 203/285/189 202/278/189
f 207/286/192 204/282/192 203/280/192
f 208/287/191 201/283/191 204/282/191
f 209/288/194 206/284/194 205/289/194
f 210/290/193 207/291/193 206/284/193
f 211/292/196 208/287/196 207/286/196
f 208/287/195 209/288/195 205/289/195
f 213/293/198 210/290/198 209/288/198
f 214/294/197 211/295/197 210/290/197
f 211/292/200 216/296/200 212/297/200
f 212/297/199 213/293/199 209/288/199
f 217/298/202 214/294/202 213/293/202
f 218/299/201 215/300/201 214/294/201
f 219/301/204 216/296/204 215/302/204
f 216/296/203 217/298/203 213/293/203
f 157/223/206 218/299/206 217/298/206
f 158/222/205 219/303/205 218/299/205
f 219/301/208 160/227/208 220/304/208
f 220/304/207 157/223/207 217/298/207
f 161/221/177 162/230/177 158/222/177
f 158/222/178 162/230/178 163/224/178
f 163/226/179 164/232/179 160/227/179
f 160/227/180 164/232/180 161/221/180
f 161/221/181 165/235/181 166/229/181
f 166/229/182 167/237/182 163/224/182
f 167/231/183 168/233/183 164/232/183
f 168/233/184 165/235/184 161/221/184
f 169/234/185 170/236/185 166/229/185
f 170/236/186 171/241/186 167/237/186
f 167/231/187 171/243/187 172/238/187
f 168/233/188 172/238/188 169/234/188
f 173/239/189 174/240/189 170/236/189
f 174/240/190 175/246/190 171/241/190
f 175/242/191 176/248/191 172/238/191
f 172/238/192 176/248/192 173/239/192
f 177/244/193 178/245/193 174/240/193
f 178/245/194 179/251/194 175/246/194
f 179/247/195 180/253/195 176/248/195
f 176/248/196 180/253/196 177/244/196
f 181/249/197 182/250/197 178/245/197
f 182/250/198 183/256/198 179/251/198
f 183/252/199 184/258/199 180/253/199
f 180/253/200 184/258/200 181/249/200
f 185/254/201 186/260/201 182/250/201
f 182/250/202 186/260/202 187/255/202
f 187/257/203 188/263/203 184/258/203
f 184/258/204 188/263/204 185/254/204
f 189/259/205 190/261/205 186/260/205
f 190/261/206 191/305/206 187/255/206
f 191/262/207 192/264/207 188/263/207
f 192/264/208 189/259/208 185/254/208
f 193/265/178 194/268/178 190/266/178
f 194/268/177 195/274/177 191/269/177
f 191/270/180 195/275/180 196/271/180
f 196/271/179 193/265/179 189/267/179
f 193/265/182 197/277/182 198/273/182
f 198/273/181 199/279/181 195/274/181
f 195/275/184 199/281/184 200/276/184
f 200/276/183 197/277/183 193/265/183
f 197/277/186 201/283/186 202/278/186
f 202/278/185 203/285/185 199/279/185
f 203/280/188 204/282/188 200/276/188
f 204/282/187 201/283/187 197/277/187
f 201/283/190 205/289/190 206/284/190
f 206/284/189 207/291/189 203/285/189
f 207/286/192 208/287/192 204/282/192
f 208/287/191 205/289/191 201/283/191
f 209/288/194 210/290/194 206/284/194
f 210/290/193 211/295/193 207/291/193
f 211/292/196 212/297/196 208/287/196
f 208/287/195 212/297/195 209/288/195
f 213/293/198 214/294/198 210/290/198
f 214/294/197 215/300/197 211/295/197
f 211/292/200 215/302/200 216/296/200
f 212/297/199 216/296/199 213/293/199
f 217/298/202 218/299/202 214/294/202
f 218/299/201 219/303/201 215/300/201
f 219/301/204 220/304/204 216/296/204
f 216/296/203 220/304/203 217/298/203
f 157/223/206 158/222/206 218/299/206
f 158/222/205 159/225/205 219/303/205
f 219/301/208 159/228/208 160/227/208
f 220/304/207 160/227/207 157/223/207
