# Second Rite deterministic completion model
# Plate Armor
mtllib item_complete_library.mtl
o item_88
s off
v -0.48 -0.77 -0.305
v -0.62 -0.35 -0.305
v -0.42 0.5700000000000001 -0.305
v 0 0.77 -0.305
v 0.42 0.5700000000000001 -0.305
v 0.62 -0.35 -0.305
v 0.48 -0.77 -0.305
v -0.48 -0.77 0.195
v -0.62 -0.35 0.195
v -0.42 0.5700000000000001 0.195
v 0 0.77 0.195
v 0.42 0.5700000000000001 0.195
v 0.62 -0.35 0.195
v 0.48 -0.77 0.195
v -0.21 -0.07499999999999998 0.14500000000000002
v 0.21 -0.07499999999999998 0.14500000000000002
v 0.21 0.47500000000000003 0.14500000000000002
v -0.21 0.47500000000000003 0.14500000000000002
v -0.21 -0.07499999999999998 0.305
v 0.21 -0.07499999999999998 0.305
v 0.21 0.47500000000000003 0.305
v -0.21 0.47500000000000003 0.305
v -0.77 -0.5900000000000001 -0.155
v -0.59 -0.5900000000000001 -0.155
v -0.59 0.09000000000000002 -0.155
v -0.77 0.09000000000000002 -0.155
v -0.77 -0.5900000000000001 0.04500000000000001
v -0.59 -0.5900000000000001 0.04500000000000001
v -0.59 0.09000000000000002 0.04500000000000001
v -0.77 0.09000000000000002 0.04500000000000001
v 0.59 -0.5900000000000001 -0.155
v 0.77 -0.5900000000000001 -0.155
v 0.77 0.09000000000000002 -0.155
v 0.59 0.09000000000000002 -0.155
v 0.59 -0.5900000000000001 0.04500000000000001
v 0.77 -0.5900000000000001 0.04500000000000001
v 0.77 0.09000000000000002 0.04500000000000001
v 0.59 0.09000000000000002 0.04500000000000001
usemtl wrought_iron
f 1 3 2
f 8 9 10
f 1 4 3
f 8 10 11
f 1 5 4
f 8 11 12
f 1 6 5
f 8 12 13
f 1 7 6
f 8 13 14
f 1 2 9
f 1 9 8
f 2 3 10
f 2 10 9
f 3 4 11
f 3 11 10
f 4 5 12
f 4 12 11
f 5 6 13
f 5 13 12
f 6 7 14
f 6 14 13
f 7 1 8
f 7 8 14
usemtl oxidized_bronze
f 15 18 17
f 15 17 16
f 19 20 21
f 19 21 22
f 15 16 20
f 15 20 19
f 18 22 21
f 18 21 17
f 15 19 22
f 15 22 18
f 16 17 21
f 16 21 20
usemtl wrought_iron
f 23 26 25
f 23 25 24
f 27 28 29
f 27 29 30
f 23 24 28
f 23 28 27
f 26 30 29
f 26 29 25
f 23 27 30
f 23 30 26
f 24 25 29
f 24 29 28
f 31 34 33
f 31 33 32
f 35 36 37
f 35 37 38
f 31 32 36
f 31 36 35
f 34 38 37
f 34 37 33
f 31 35 38
f 31 38 34
f 32 33 37
f 32 37 36
