# Blender 5.0.1
# www.blender.org
mtllib rear_mirror.mtl
g B_Finial.001_Mesh
v -0.078295 1.435753 0.044000
v -0.074000 1.430000 0.044000
v -0.071964 1.436000 0.050000
v 0.074000 1.430000 0.044000
v 0.078295 1.435753 0.044000
v 0.071964 1.436000 0.050000
v -0.001705 1.694247 0.044000
v 0.000000 1.678880 0.050000
v 0.001705 1.694247 0.044000
v -0.078295 1.435753 -0.044000
v -0.071964 1.436000 -0.050000
v -0.074000 1.430000 -0.044000
v 0.074000 1.430000 -0.044000
v 0.071964 1.436000 -0.050000
v 0.078295 1.435753 -0.044000
v -0.001705 1.694247 -0.044000
v 0.001705 1.694247 -0.044000
v 0.000000 1.678880 -0.050000
vn -0.6045 -0.4513 0.6564
vn 0.6045 -0.4513 0.6564
vn -0.0000 0.3637 0.9315
vn -0.6045 -0.4513 -0.6564
vn 0.6045 -0.4513 -0.6564
vn -0.0000 0.3637 -0.9315
vn -0.6780 0.2009 0.7071
vn -0.0000 -0.7071 0.7071
vn 0.6780 0.2009 0.7071
vn -0.6780 0.2009 -0.7071
vn -0.0000 -0.7071 -0.7071
vn 0.6780 0.2009 -0.7071
vn -0.8013 -0.5983 -0.0000
vn 0.8013 -0.5983 -0.0000
vn -0.0000 1.0000 -0.0000
vn -0.9588 0.2841 -0.0000
vn -0.0000 -0.0000 1.0000
vn -0.0000 -1.0000 -0.0000
vn 0.9588 0.2841 -0.0000
vn -0.0000 -0.0000 -1.0000
vt 0.311627 0.500000
vt 0.307952 0.500000
vt 0.289956 0.500000
vt 0.140048 0.500000
vt 0.136373 0.500000
vt 0.110045 0.500000
vt 0.491477 0.100000
vt 0.476533 0.100000
vt 0.495739 0.100000
vt 0.861967 0.300000
vt 0.894293 0.300000
vt 0.863684 0.300000
vt 0.659952 0.500000
vt 0.689955 0.500000
vt 0.663627 0.500000
vt 0.690033 0.300000
vt 0.688782 0.300000
vt 0.714382 0.300000
vt 0.108523 0.100000
vt 0.116711 0.100000
vt 0.292500 0.100000
vt 0.107500 0.100000
vt 0.304261 0.100000
vt 0.296622 0.100000
vt 0.492048 0.500000
vt 0.510045 0.500000
vt 0.860888 0.107822
vt 0.117045 0.295739
vt 0.141245 0.287733
vt 0.488000 0.500000
vt 0.509967 0.300000
vt 0.512000 0.300000
vt 0.338033 0.300000
vt 0.125703 0.696853
vt 0.516396 0.689114
vt 0.862297 0.515147
vt 0.680978 0.107822
vt 0.882955 0.104261
vt 0.295604 0.698886
s 0
g B_Finial.001_ritual_gold
usemtl ritual_gold
f 1/1/1 2/2/1 3/3/1
f 4/4/2 5/5/2 6/6/2
f 7/7/3 8/8/3 9/9/3
f 10/10/4 11/11/4 12/12/4
f 13/13/5 14/14/5 15/15/5
f 16/16/6 17/17/6 18/18/6
f 8/8/7 1/19/7 3/20/7
f 4/21/8 3/20/8 2/22/8
f 5/23/9 8/8/9 6/24/9
f 10/10/10 18/18/10 11/11/10
f 14/14/11 12/25/11 11/26/11
f 18/27/12 15/28/12 14/29/12
f 10/30/13 2/2/13 1/1/13
f 13/13/14 5/5/14 4/4/14
f 17/17/15 7/31/15 9/32/15
f 7/31/16 10/10/16 1/33/16
f 3/20/17 6/24/17 8/8/17
f 2/2/18 13/13/18 4/4/18
f 5/34/19 17/35/19 9/36/19
f 11/37/20 18/27/20 14/29/20
f 8/8/7 7/7/7 1/19/7
f 4/21/8 6/24/8 3/20/8
f 5/23/9 9/9/9 8/8/9
f 10/10/10 16/16/10 18/18/10
f 14/14/11 13/13/11 12/25/11
f 18/27/12 17/38/12 15/28/12
f 10/30/13 12/25/13 2/2/13
f 13/13/14 15/15/14 5/5/14
f 17/17/15 16/16/15 7/31/15
f 7/31/16 16/16/16 10/10/16
f 2/2/18 12/25/18 13/13/18
f 5/34/19 15/39/19 17/35/19
g B_Frame.001_Mesh
v 0.490435 1.086352 0.078000
v 0.487549 1.078414 0.085000
v 0.494549 1.073689 0.078000
v 0.309763 1.335026 0.078000
v 0.298991 1.342852 0.078000
v 0.301322 1.334734 0.085000
v 0.006657 1.437837 0.078000
v -0.006657 1.437837 0.078000
v 0.000000 1.432640 0.085000
v -0.298991 1.342852 0.078000
v -0.309763 1.335026 0.078000
v -0.301322 1.334734 0.085000
v -0.490435 1.086352 0.078000
v -0.494549 1.073689 0.078000
v -0.487549 1.078414 0.085000
v -0.494549 0.766311 0.078000
v -0.490435 0.753648 0.078000
v -0.487549 0.761586 0.085000
v -0.309763 0.504974 0.078000
v -0.298991 0.497148 0.078000
v -0.301322 0.505266 0.085000
v -0.006657 0.402163 0.078000
v 0.006657 0.402163 0.078000
v -0.000000 0.407360 0.085000
v 0.298991 0.497148 0.078000
v 0.309763 0.504974 0.078000
v 0.301322 0.505266 0.085000
v 0.490435 0.753648 0.078000
v 0.494549 0.766311 0.078000
v 0.487549 0.761586 0.085000
v 0.414350 1.061631 0.078000
v 0.418465 1.048967 0.078000
v 0.425465 1.058242 0.085000
v 0.262740 1.270304 0.078000
v 0.262952 1.281922 0.085000
v 0.251968 1.278131 0.078000
v 0.006657 1.357837 0.078000
v 0.000000 1.367360 0.085000
v -0.006657 1.357837 0.078000
v -0.251968 1.278131 0.078000
v -0.262952 1.281922 0.085000
v -0.262740 1.270304 0.078000
v -0.414350 1.061631 0.078000
v -0.425465 1.058242 0.085000
v -0.418465 1.048967 0.078000
v -0.418465 0.791033 0.078000
v -0.425465 0.781758 0.085000
v -0.414350 0.778369 0.078000
v -0.262740 0.569696 0.078000
v -0.262952 0.558078 0.085000
v -0.251968 0.561869 0.078000
v -0.006657 0.482163 0.078000
v -0.000000 0.472640 0.085000
v 0.006657 0.482163 0.078000
v 0.251968 0.561869 0.078000
v 0.262952 0.558078 0.085000
v 0.262740 0.569696 0.078000
v 0.414350 0.778369 0.078000
v 0.425465 0.781758 0.085000
v 0.418465 0.791033 0.078000
v 0.490435 1.086352 -0.018000
v 0.494549 1.073689 -0.018000
v 0.487549 1.078414 -0.025000
v 0.309763 1.335026 -0.018000
v 0.301322 1.334734 -0.025000
v 0.298991 1.342852 -0.018000
v 0.006657 1.437837 -0.018000
v 0.000000 1.432640 -0.025000
v -0.006657 1.437837 -0.018000
v -0.298991 1.342852 -0.018000
v -0.301322 1.334734 -0.025000
v -0.309763 1.335026 -0.018000
v -0.490435 1.086352 -0.018000
v -0.487549 1.078414 -0.025000
v -0.494549 1.073689 -0.018000
v -0.494549 0.766311 -0.018000
v -0.487549 0.761586 -0.025000
v -0.490435 0.753648 -0.018000
v -0.309763 0.504974 -0.018000
v -0.301322 0.505266 -0.025000
v -0.298991 0.497148 -0.018000
v -0.006657 0.402163 -0.018000
v -0.000000 0.407360 -0.025000
v 0.006657 0.402163 -0.018000
v 0.298991 0.497148 -0.018000
v 0.301322 0.505266 -0.025000
v 0.309763 0.504974 -0.018000
v 0.490435 0.753648 -0.018000
v 0.487549 0.761586 -0.025000
v 0.494549 0.766311 -0.018000
v 0.414350 1.061631 -0.018000
v 0.425465 1.058242 -0.025000
v 0.418465 1.048967 -0.018000
v 0.262740 1.270304 -0.018000
v 0.251968 1.278131 -0.018000
v 0.262952 1.281922 -0.025000
v 0.006657 1.357837 -0.018000
v -0.006657 1.357837 -0.018000
v 0.000000 1.367360 -0.025000
v -0.251968 1.278131 -0.018000
v -0.262740 1.270304 -0.018000
v -0.262952 1.281922 -0.025000
v -0.414350 1.061631 -0.018000
v -0.418465 1.048967 -0.018000
v -0.425465 1.058242 -0.025000
v -0.418465 0.791033 -0.018000
v -0.414350 0.778369 -0.018000
v -0.425465 0.781758 -0.025000
v -0.262740 0.569696 -0.018000
v -0.251968 0.561869 -0.018000
v -0.262952 0.558078 -0.025000
v -0.006657 0.482163 -0.018000
v 0.006657 0.482163 -0.018000
v -0.000000 0.472640 -0.025000
v 0.251968 0.561869 -0.018000
v 0.262740 0.569696 -0.018000
v 0.262952 0.558078 -0.025000
v 0.414350 0.778369 -0.018000
v 0.418465 0.791033 -0.018000
v 0.425465 0.781758 -0.025000
vn 0.7636 0.2481 0.5961
vn 0.4719 0.6496 0.5961
vn -0.0000 0.8029 0.5961
vn -0.4719 0.6496 0.5961
vn -0.7636 0.2481 0.5961
vn -0.7636 -0.2481 0.5961
vn -0.4719 -0.6496 0.5961
vn -0.0000 -0.8029 0.5961
vn 0.4719 -0.6496 0.5961
vn 0.7636 -0.2481 0.5961
vn -0.5633 -0.1830 0.8058
vn -0.3481 -0.4791 0.8057
vn -0.0000 -0.5923 0.8058
vn 0.3481 -0.4791 0.8057
vn 0.5633 -0.1830 0.8058
vn 0.5633 0.1830 0.8058
vn 0.3481 0.4791 0.8057
vn -0.0000 0.5923 0.8058
vn -0.3481 0.4791 0.8057
vn -0.5633 0.1830 0.8058
vn 0.7636 0.2481 -0.5961
vn 0.4719 0.6496 -0.5961
vn -0.0000 0.8029 -0.5961
vn -0.4719 0.6496 -0.5961
vn -0.7636 0.2481 -0.5961
vn -0.7636 -0.2481 -0.5961
vn -0.4719 -0.6496 -0.5961
vn -0.0000 -0.8029 -0.5961
vn 0.4719 -0.6496 -0.5961
vn 0.7636 -0.2481 -0.5961
vn -0.5633 -0.1830 -0.8058
vn -0.3481 -0.4791 -0.8057
vn -0.0000 -0.5923 -0.8058
vn 0.3481 -0.4791 -0.8057
vn 0.5633 -0.1830 -0.8058
vn 0.5633 0.1830 -0.8058
vn 0.3481 0.4791 -0.8057
vn -0.0000 0.5923 -0.8058
vn -0.3481 0.4791 -0.8057
vn -0.5633 0.1830 -0.8058
vn 0.5721 0.4156 0.7071
vn -0.5721 -0.4156 0.7071
vn 0.2185 0.6725 0.7071
vn -0.2185 -0.6725 0.7071
vn -0.2185 0.6725 0.7071
vn 0.2185 -0.6725 0.7071
vn -0.5721 0.4156 0.7071
vn 0.5721 -0.4156 0.7071
vn -0.7071 -0.0000 0.7071
vn 0.7071 -0.0000 0.7071
vn 0.5721 0.4156 -0.7071
vn -0.5721 -0.4156 -0.7071
vn 0.2185 0.6725 -0.7071
vn -0.2185 -0.6725 -0.7071
vn -0.2185 0.6725 -0.7071
vn 0.2185 -0.6725 -0.7071
vn -0.5721 0.4156 -0.7071
vn 0.5721 -0.4156 -0.7071
vn -0.7071 -0.0000 -0.7071
vn 0.7071 -0.0000 -0.7071
vn 0.9511 0.3090 -0.0000
vn 0.5878 0.8090 -0.0000
vn -0.0000 1.0000 -0.0000
vn -0.5878 0.8090 -0.0000
vn -0.9511 0.3090 -0.0000
vn -0.9511 -0.3090 -0.0000
vn -0.5878 -0.8090 -0.0000
vn -0.0000 -1.0000 -0.0000
vn 0.5878 -0.8090 -0.0000
vn 0.9511 -0.3090 -0.0000
vn -0.0000 -0.0000 1.0000
vn 1.0000 -0.0000 -0.0000
vn 0.8090 0.5878 -0.0000
vn 0.3090 0.9511 -0.0000
vn -0.3090 0.9511 -0.0000
vn -0.8090 0.5878 -0.0000
vn -1.0000 -0.0000 -0.0000
vn -0.8090 -0.5878 -0.0000
vn -0.3090 -0.9511 -0.0000
vn 0.3090 -0.9511 -0.0000
vn 0.8090 -0.5878 -0.0000
vn -0.0000 -0.0000 -1.0000
vt 0.273336 0.500000
vt 0.268686 0.500000
vt 0.274126 0.500000
vt 0.889510 0.500000
vt 0.882965 0.500443
vt 0.884071 0.500000
vt 0.765287 0.504452
vt 0.758741 0.504895
vt 0.808237 0.500000
vt 0.438552 0.576923
vt 0.437762 0.576923
vt 0.423621 0.576923
vt 0.053937 0.653846
vt 0.053147 0.653846
vt 0.039006 0.653846
vt 0.669322 0.653846
vt 0.668531 0.653846
vt 0.654391 0.653846
vt 0.902797 0.735664
vt 0.902007 0.735664
vt 0.960994 0.730769
vt 0.836454 0.735664
vt 0.835664 0.735664
vt 0.885160 0.730769
vt 0.515475 0.807692
vt 0.514685 0.807692
vt 0.500544 0.807692
vt 0.130860 0.884615
vt 0.130070 0.884615
vt 0.115929 0.884615
vt 0.515649 0.500000
vt 0.514685 0.500000
vt 0.500000 0.500000
vt 0.580855 0.500000
vt 0.576923 0.500000
vt 0.581818 0.500000
vt 0.196239 0.576923
vt 0.192308 0.576923
vt 0.197203 0.576923
vt 0.809672 0.038462
vt 0.800615 0.038462
vt 0.807692 0.038462
vt 0.117365 0.115385
vt 0.108307 0.115385
vt 0.115385 0.115385
vt 0.425057 0.115385
vt 0.416000 0.115385
vt 0.423077 0.115385
vt 0.732749 0.115385
vt 0.723692 0.115385
vt 0.730769 0.115385
vt 0.040442 0.192308
vt 0.123388 0.185231
vt 0.038462 0.192308
vt 0.348134 0.192308
vt 0.339077 0.192308
vt 0.346154 0.192308
vt 0.655826 0.192308
vt 0.646769 0.192308
vt 0.653846 0.192308
vt 0.342049 0.500000
vt 0.341259 0.500000
vt 0.346698 0.500000
vt 0.341127 0.269231
vt 0.339077 0.269231
vt 0.344074 0.269231
vt 0.102648 0.570795
vt 0.044994 0.576379
vt 0.087413 0.572028
vt 0.956512 0.269231
vt 0.954461 0.269231
vt 0.959459 0.269231
vt 0.264204 0.346154
vt 0.262154 0.346154
vt 0.267151 0.346154
vt 0.571897 0.346154
vt 0.569846 0.346154
vt 0.574843 0.346154
vt 0.879589 0.346154
vt 0.877538 0.346154
vt 0.882535 0.346154
vt 0.163546 0.802797
vt 0.114840 0.807692
vt 0.164336 0.802797
vt 0.494974 0.423077
vt 0.492923 0.423077
vt 0.497920 0.423077
vt 0.802666 0.423077
vt 0.800615 0.423077
vt 0.805612 0.423077
vt 0.194288 0.269231
vt 0.185231 0.269231
vt 0.192308 0.269231
vt 0.649915 0.500000
vt 0.648951 0.500000
vt 0.653846 0.500000
vt 0.265299 0.576923
vt 0.264336 0.576923
vt 0.269231 0.576923
vt 0.880684 0.576923
vt 0.879720 0.576923
vt 0.884615 0.576923
vt 0.496068 0.653846
vt 0.495105 0.653846
vt 0.500000 0.653846
vt 0.118061 0.730261
vt 0.110490 0.730769
vt 0.115385 0.730769
vt 0.726838 0.730769
vt 0.725874 0.730769
vt 0.730769 0.730769
vt 0.342222 0.807692
vt 0.341259 0.807692
vt 0.346154 0.807692
vt 0.938473 0.809164
vt 0.956643 0.807692
vt 0.961538 0.807692
vt 0.572992 0.884615
vt 0.572028 0.884615
vt 0.576923 0.884615
vt 0.192852 0.500000
vt 0.131033 0.576923
vt 0.115385 0.576923
vt 0.729094 0.038462
vt 0.675078 0.038462
vt 0.655522 0.038462
vt 0.863384 0.038462
vt 0.882635 0.038462
vt 0.941433 0.040137
vt 0.045539 0.115385
vt 0.890767 0.045539
vt 0.190328 0.115385
vt 0.263079 0.108307
vt 0.270906 0.115385
vt 0.353231 0.115385
vt 0.290462 0.115385
vt 0.498020 0.115385
vt 0.478769 0.115385
vt 0.578599 0.115385
vt 0.660923 0.115385
vt 0.598155 0.115385
vt 0.786461 0.115385
vt 0.805712 0.115385
vt 0.113404 0.192308
vt 0.186156 0.185231
vt 0.267555 0.192308
vt 0.213539 0.192308
vt 0.193983 0.192308
vt 0.401845 0.192308
vt 0.421097 0.192308
vt 0.501675 0.192308
vt 0.584000 0.192308
vt 0.521231 0.192308
vt 0.728789 0.192308
vt 0.709538 0.192308
vt 0.891693 0.192308
vt 0.809368 0.192308
vt 0.882940 0.192308
vt 0.062223 0.267251
vt 0.954461 0.192308
vt 0.937777 0.194288
vt 0.122462 0.269231
vt 0.120411 0.269231
vt 0.267251 0.269231
vt 0.955006 0.500544
vt 0.941408 0.501233
vt 0.501980 0.269231
vt 0.584000 0.269231
vt 0.492923 0.269231
vt 0.735796 0.269231
vt 0.737846 0.269231
vt 0.882635 0.269231
vt 0.800615 0.269231
vt 0.809672 0.269231
vt 0.043488 0.346154
vt 0.045539 0.346154
vt 0.117365 0.346154
vt 0.199385 0.346154
vt 0.108307 0.346154
vt 0.353231 0.346154
vt 0.351180 0.346154
vt 0.498020 0.346154
vt 0.416000 0.346154
vt 0.425057 0.346154
vt 0.660923 0.346154
vt 0.658873 0.346154
vt 0.805712 0.346154
vt 0.723692 0.346154
vt 0.732749 0.346154
vt 0.039006 0.807692
vt 0.097993 0.802797
vt 0.040442 0.423077
vt 0.122462 0.423077
vt 0.123387 0.416000
vt 0.274257 0.423077
vt 0.276308 0.423077
vt 0.421097 0.423077
vt 0.339077 0.423077
vt 0.348134 0.423077
vt 0.581949 0.423077
vt 0.584000 0.423077
vt 0.655826 0.423077
vt 0.737846 0.423077
vt 0.646769 0.423077
vt 0.132139 0.498325
vt 0.891693 0.423077
vt 0.108307 0.500000
vt 0.954461 0.423077
vt 0.062223 0.498020
vt 0.045539 0.500000
vt 0.956643 0.500000
vt 0.638371 0.576923
vt 0.253755 0.653846
vt 0.869140 0.653846
vt 0.097203 0.802797
vt 0.715294 0.807692
vt 0.330679 0.884615
vt 0.715120 0.500000
vt 0.811624 0.576923
vt 0.812587 0.576923
vt 0.427009 0.653846
vt 0.427972 0.653846
vt 0.061527 0.729297
vt 0.043357 0.730769
vt 0.657778 0.730769
vt 0.658741 0.730769
vt 0.273162 0.807692
vt 0.274126 0.807692
vt 0.881939 0.808201
vt 0.889510 0.807692
vt 0.503932 0.884615
vt 0.504895 0.884615
vt 0.109233 0.262154
vt 0.736921 0.199385
vt 0.122462 0.038462
vt 0.247999 0.038462
vt 0.059693 0.038462
vt 0.811797 0.884615
vt 0.946063 0.884615
vt 0.746245 0.884615
vt 0.407602 0.500000
vt 0.207783 0.500000
vt 0.430154 0.038462
vt 0.555692 0.038462
vt 0.367385 0.038462
vt 0.737846 0.038462
vt 0.504105 0.576923
vt 0.188203 0.653846
vt 0.734874 0.653846
vt 0.350259 0.730769
vt 0.484525 0.730769
vt 0.284706 0.730769
vt 0.876613 0.122462
vt 0.813844 0.122462
vt 0.276308 0.192308
vt 0.581028 0.807692
vt 0.265126 0.884615
vt 0.119316 0.961538
vt 0.253582 0.961538
vt 0.054110 0.961538
vt 0.330505 0.576923
vt 0.945890 0.576923
vt 0.746418 0.576923
vt 0.361803 0.653846
vt 0.561274 0.653846
vt 0.233687 0.726382
vt 0.894417 0.660213
vt 0.792044 0.730769
vt 0.592572 0.730769
vt 0.407428 0.807692
vt 0.207957 0.807692
vt 0.105583 0.878248
vt 0.766313 0.812079
vt 0.438726 0.884615
vt 0.638197 0.884615
vt 0.430154 0.269231
vt 0.646769 0.269231
vt 0.876613 0.353231
vt 0.185231 0.423077
vt 0.058567 0.113709
vt 0.344478 0.115385
vt 0.652171 0.115385
vt 0.575248 0.192308
vt 0.276308 0.269231
vt 0.574943 0.269231
vt 0.891693 0.269231
vt 0.190328 0.346154
vt 0.507077 0.346154
vt 0.814769 0.346154
vt 0.113404 0.423077
vt 0.430154 0.423077
vt 0.728789 0.423077
vt 0.867861 0.424752
vt 0.937777 0.425057
vt 0.639161 0.576923
vt 0.254545 0.653846
vt 0.869930 0.653846
vt 0.716084 0.807692
vt 0.331469 0.884615
vt 0.716084 0.500000
vt 0.185231 0.038462
vt 0.880510 0.884615
vt 0.492923 0.038462
vt 0.572818 0.576923
vt 0.119490 0.653846
vt 0.803587 0.653846
vt 0.418972 0.730769
vt 0.649741 0.807692
vt 0.196413 0.884615
vt 0.188376 0.961538
s 0
g B_Frame.001_ritual_gold
usemtl ritual_gold
f 19/40/21 20/41/21 21/42/21
f 22/43/22 23/44/22 24/45/22
f 25/46/23 26/47/23 27/48/23
f 28/49/24 29/50/24 30/51/24
f 31/52/25 32/53/25 33/54/25
f 34/55/26 35/56/26 36/57/26
f 37/58/27 38/59/27 39/60/27
f 40/61/28 41/62/28 42/63/28
f 43/64/29 44/65/29 45/66/29
f 46/67/30 47/68/30 48/69/30
f 49/70/31 50/71/31 51/72/31
f 52/73/32 53/74/32 54/75/32
f 55/76/33 56/77/33 57/78/33
f 58/79/34 59/80/34 60/81/34
f 61/82/35 62/83/35 63/84/35
f 64/85/36 65/86/36 66/87/36
f 67/88/37 68/89/37 69/90/37
f 70/91/38 71/92/38 72/93/38
f 73/94/39 74/95/39 75/96/39
f 76/97/40 77/98/40 78/99/40
f 79/100/41 80/101/41 81/102/41
f 82/103/42 83/104/42 84/105/42
f 85/106/43 86/107/43 87/108/43
f 88/109/44 89/110/44 90/111/44
f 91/112/45 92/113/45 93/114/45
f 94/115/46 95/116/46 96/117/46
f 97/118/47 98/119/47 99/120/47
f 100/121/48 101/122/48 102/123/48
f 103/124/49 104/125/49 105/126/49
f 106/127/50 107/128/50 108/129/50
f 109/130/51 110/131/51 111/132/51
f 112/133/52 113/134/52 114/135/52
f 115/136/53 116/137/53 117/138/53
f 118/139/54 119/140/54 120/141/54
f 121/142/55 122/143/55 123/144/55
f 124/145/56 125/146/56 126/147/56
f 127/148/57 128/149/57 129/150/57
f 130/151/58 131/152/58 132/153/58
f 133/154/59 134/155/59 135/156/59
f 136/157/60 137/158/60 138/159/60
f 19/40/61 24/160/61 20/41/61
f 51/72/62 52/73/62 49/70/62
f 23/44/63 27/48/63 24/45/63
f 56/77/64 54/161/64 53/162/64
f 28/163/65 27/164/65 26/165/65
f 56/166/66 58/79/66 57/167/66
f 29/168/67 33/169/67 30/170/67
f 62/83/68 60/171/68 59/172/68
f 32/173/69 36/174/69 33/175/69
f 65/86/70 63/176/70 62/177/70
f 35/178/62 39/179/62 36/180/62
f 65/181/61 67/88/61 66/182/61
f 38/59/64 42/63/64 39/60/64
f 71/92/63 69/183/63 68/184/63
f 43/185/66 42/186/66 41/187/66
f 71/188/65 73/94/65 72/189/65
f 44/190/68 48/191/68 45/192/68
f 77/98/67 75/193/67 74/194/67
f 20/195/70 47/196/70 21/197/70
f 78/198/69 51/199/69 50/200/69
f 81/201/71 82/103/71 79/202/71
f 112/203/72 110/131/72 109/130/72
f 83/204/73 85/106/73 84/205/73
f 113/206/74 117/207/74 114/208/74
f 89/110/75 87/209/75 86/210/75
f 118/211/76 117/212/76 116/213/76
f 92/113/77 90/214/77 89/215/77
f 119/216/78 123/217/78 120/218/78
f 92/219/79 94/115/79 93/220/79
f 124/221/80 123/222/80 122/223/80
f 95/224/72 97/118/72 96/225/72
f 127/226/71 126/227/71 125/228/71
f 98/229/74 100/121/74 99/230/74
f 128/231/73 132/232/73 129/233/73
f 104/125/76 102/234/76 101/235/76
f 133/236/75 132/237/75 131/238/75
f 107/128/78 105/239/78 104/240/78
f 134/241/77 138/242/77 135/243/77
f 80/244/80 107/245/80 81/246/80
f 138/247/79 111/248/79 110/249/79
f 80/101/81 19/40/81 21/42/81
f 82/250/82 23/44/82 22/43/82
f 85/106/83 26/47/83 25/46/83
f 88/251/84 29/50/84 28/49/84
f 91/252/85 32/53/85 31/52/85
f 94/253/86 35/56/86 34/55/86
f 97/254/87 38/59/87 37/58/87
f 100/121/88 41/62/88 40/61/88
f 103/255/89 44/65/89 43/64/89
f 106/256/90 47/68/90 46/67/90
f 109/257/86 50/71/86 49/70/86
f 113/134/87 52/73/87 54/75/87
f 116/137/88 55/76/88 57/78/88
f 119/140/89 58/258/89 60/259/89
f 122/143/90 61/260/90 63/261/90
f 125/146/81 64/262/81 66/263/81
f 128/149/82 67/264/82 69/265/82
f 131/152/83 70/266/83 72/267/83
f 134/155/84 73/268/84 75/269/84
f 137/158/85 76/270/85 78/271/85
f 20/195/91 77/272/91 48/273/91
f 24/274/91 51/275/91 20/276/91
f 47/277/92 80/278/92 21/279/92
f 19/40/93 82/280/93 22/281/93
f 27/282/91 53/283/91 24/284/91
f 23/44/94 85/106/94 25/46/94
f 30/285/91 56/166/91 27/164/91
f 26/286/95 88/251/95 28/49/95
f 30/170/91 62/83/91 59/172/91
f 31/52/96 90/287/96 91/252/96
f 36/174/91 62/177/91 33/175/91
f 32/288/97 94/253/97 34/55/97
f 39/179/91 65/181/91 36/180/91
f 35/289/98 97/290/98 37/291/98
f 42/292/91 68/184/91 39/293/91
f 38/59/99 100/121/99 40/61/99
f 45/294/91 71/188/91 42/186/91
f 41/295/100 103/255/100 43/64/100
f 45/192/91 77/98/91 74/194/91
f 46/67/101 105/296/101 106/256/101
f 50/297/97 137/298/97 78/299/97
f 52/73/98 109/257/98 49/70/98
f 55/76/99 113/300/99 54/161/99
f 58/258/100 116/301/100 57/302/100
f 60/303/101 121/142/101 119/304/101
f 64/262/92 122/305/92 63/306/92
f 67/264/93 125/307/93 66/308/93
f 70/266/94 128/309/94 69/310/94
f 73/268/95 131/311/95 72/312/95
f 75/313/96 136/157/96 134/314/96
f 138/247/102 81/246/102 107/245/102
f 110/131/102 83/104/102 81/201/102
f 83/315/102 117/207/102 86/316/102
f 117/212/102 89/110/102 86/210/102
f 89/215/102 123/217/102 92/113/102
f 123/222/102 95/116/102 92/219/102
f 126/227/102 98/119/102 95/224/102
f 98/317/102 132/232/102 101/318/102
f 132/237/102 104/125/102 101/235/102
f 104/240/102 138/242/102 107/128/102
f 19/40/61 22/281/61 24/160/61
f 51/72/62 53/74/62 52/73/62
f 23/44/63 25/46/63 27/48/63
f 56/77/64 55/76/64 54/161/64
f 28/163/65 30/285/65 27/164/65
f 56/166/66 59/80/66 58/79/66
f 29/168/67 31/319/67 33/169/67
f 62/83/68 61/82/68 60/171/68
f 32/173/69 34/320/69 36/174/69
f 65/86/70 64/85/70 63/176/70
f 35/178/62 37/321/62 39/179/62
f 65/181/61 68/89/61 67/88/61
f 38/59/64 40/61/64 42/63/64
f 71/92/63 70/91/63 69/183/63
f 43/185/66 45/294/66 42/186/66
f 71/188/65 74/95/65 73/94/65
f 44/190/68 46/322/68 48/191/68
f 77/98/67 76/97/67 75/193/67
f 20/195/70 48/273/70 47/196/70
f 78/198/69 77/272/69 51/199/69
f 81/201/71 83/104/71 82/103/71
f 112/203/72 114/323/72 110/131/72
f 83/204/73 86/107/73 85/106/73
f 113/206/74 115/324/74 117/207/74
f 89/110/75 88/109/75 87/209/75
f 118/211/76 120/325/76 117/212/76
f 92/113/77 91/112/77 90/214/77
f 119/216/78 121/326/78 123/217/78
f 92/219/79 95/116/79 94/115/79
f 124/221/80 126/327/80 123/222/80
f 95/224/72 98/119/72 97/118/72
f 127/226/71 129/328/71 126/227/71
f 98/229/74 101/122/74 100/121/74
f 128/231/73 130/329/73 132/232/73
f 104/125/76 103/124/76 102/234/76
f 133/236/75 135/330/75 132/237/75
f 107/128/78 106/127/78 105/239/78
f 134/241/77 136/331/77 138/242/77
f 80/244/80 108/332/80 107/245/80
f 138/247/79 137/333/79 111/248/79
f 80/101/81 79/100/81 19/40/81
f 82/250/82 84/205/82 23/44/82
f 85/106/83 87/108/83 26/47/83
f 88/251/84 90/334/84 29/50/84
f 91/252/85 93/335/85 32/53/85
f 94/253/86 96/336/86 35/56/86
f 97/254/87 99/230/87 38/59/87
f 100/121/88 102/123/88 41/62/88
f 103/255/89 105/337/89 44/65/89
f 106/256/90 108/338/90 47/68/90
f 109/257/86 111/339/86 50/71/86
f 113/134/87 112/133/87 52/73/87
f 116/137/88 115/136/88 55/76/88
f 119/140/89 118/139/89 58/258/89
f 122/143/90 121/142/90 61/260/90
f 125/146/81 124/145/81 64/262/81
f 128/149/82 127/148/82 67/264/82
f 131/152/83 130/151/83 70/266/83
f 134/155/84 133/154/84 73/268/84
f 137/158/85 136/157/85 76/270/85
f 20/195/91 51/199/91 77/272/91
f 24/274/91 53/340/91 51/275/91
f 47/277/92 108/341/92 80/278/92
f 19/40/93 79/100/93 82/280/93
f 27/282/91 56/342/91 53/283/91
f 23/44/94 84/205/94 85/106/94
f 30/285/91 59/80/91 56/166/91
f 26/286/95 87/343/95 88/251/95
f 30/170/91 33/169/91 62/83/91
f 31/52/96 29/344/96 90/287/96
f 36/174/91 65/86/91 62/177/91
f 32/288/97 93/345/97 94/253/97
f 39/179/91 68/89/91 65/181/91
f 35/289/98 96/346/98 97/290/98
f 42/292/91 71/92/91 68/184/91
f 38/59/99 99/230/99 100/121/99
f 45/294/91 74/95/91 71/188/91
f 41/295/100 102/347/100 103/255/100
f 45/192/91 48/191/91 77/98/91
f 46/67/101 44/348/101 105/296/101
f 50/297/97 111/349/97 137/298/97
f 52/73/98 112/133/98 109/257/98
f 55/76/99 115/136/99 113/300/99
f 58/258/100 118/139/100 116/301/100
f 60/303/101 61/260/101 121/142/101
f 64/262/92 124/145/92 122/305/92
f 67/264/93 127/148/93 125/307/93
f 70/266/94 130/151/94 128/309/94
f 73/268/95 133/154/95 131/311/95
f 75/313/96 76/270/96 136/157/96
f 138/247/102 110/249/102 81/246/102
f 110/131/102 114/323/102 83/104/102
f 83/315/102 114/208/102 117/207/102
f 117/212/102 120/325/102 89/110/102
f 89/215/102 120/218/102 123/217/102
f 123/222/102 126/327/102 95/116/102
f 126/227/102 129/328/102 98/119/102
f 98/317/102 129/233/102 132/232/102
f 132/237/102 135/330/102 104/125/102
f 104/240/102 135/243/102 138/242/102
g B_Glass.001_Mesh
v 0.408954 1.052877 0.027500
v 0.252748 1.267877 0.027500
v 0.000000 1.350000 0.027500
v -0.252748 1.267877 0.027500
v -0.408954 1.052877 0.027500
v -0.408954 0.787123 0.027500
v -0.252748 0.572123 0.027500
v -0.000000 0.490000 0.027500
v 0.252748 0.572123 0.027500
v 0.408954 0.787123 0.027500
v 0.408954 1.052877 -0.007500
v 0.252748 1.267877 -0.007500
v 0.000000 1.350000 -0.007500
v -0.252748 1.267877 -0.007500
v -0.408954 1.052877 -0.007500
v -0.408954 0.787123 -0.007500
v -0.252748 0.572123 -0.007500
v -0.000000 0.490000 -0.007500
v 0.252748 0.572123 -0.007500
v 0.408954 0.787123 -0.007500
vn -0.0000 -0.0000 1.0000
vn -0.0000 -0.0000 -1.0000
vn 1.0000 -0.0000 -0.0000
vn 0.8090 0.5878 -0.0000
vn 0.3090 0.9511 -0.0000
vn -0.3090 0.9511 -0.0000
vn -0.8090 0.5878 -0.0000
vn -1.0000 -0.0000 -0.0000
vn -0.8090 -0.5878 -0.0000
vn -0.3090 -0.9511 -0.0000
vn 0.3090 -0.9511 -0.0000
vn 0.8090 -0.5878 -0.0000
vt 0.437500 0.062500
vt 0.937500 0.062500
vt 0.187500 0.187500
vt 0.687500 0.187500
vt 0.187500 0.312500
vt 0.437500 0.312500
vt 0.687500 0.312500
vt 0.937500 0.312500
vt 0.562500 0.312500
vt 0.187500 0.437500
vt 0.437500 0.437500
vt 0.062500 0.437500
vt 0.687500 0.437500
vt 0.937500 0.437500
vt 0.562500 0.437500
vt 0.187500 0.562500
vt 0.437500 0.562500
vt 0.062500 0.562500
vt 0.687500 0.562500
vt 0.937500 0.562500
vt 0.562500 0.562500
vt 0.187500 0.687500
vt 0.437500 0.687500
vt 0.062500 0.687500
vt 0.687500 0.687500
vt 0.937500 0.687500
vt 0.562500 0.687500
vt 0.187500 0.812500
vt 0.437500 0.812500
vt 0.062500 0.812500
vt 0.687500 0.812500
vt 0.937500 0.812500
vt 0.562500 0.812500
vt 0.187500 0.937500
vt 0.437500 0.937500
vt 0.062500 0.937500
vt 0.062500 0.062500
vt 0.187500 0.062500
vt 0.312500 0.062500
vt 0.562500 0.062500
vt 0.687500 0.062500
vt 0.812500 0.062500
vt 0.062500 0.187500
vt 0.312500 0.187500
vt 0.437500 0.187500
vt 0.562500 0.187500
vt 0.812500 0.187500
vt 0.937500 0.187500
vt 0.062500 0.312500
vt 0.312500 0.312500
vt 0.812500 0.312500
vt 0.312500 0.437500
vt 0.812500 0.437500
vt 0.312500 0.562500
vt 0.812500 0.562500
vt 0.312500 0.687500
vt 0.812500 0.687500
vt 0.312500 0.812500
vt 0.812500 0.812500
vt 0.312500 0.937500
s 0
g B_Glass.001_smoked_glass
usemtl smoked_glass
f 142/350/103 146/351/103 148/352/103
f 156/353/104 152/354/104 150/355/104
f 148/356/105 149/357/105 139/358/105
f 139/359/106 150/360/106 140/361/106
f 140/362/107 151/363/107 141/364/107
f 141/365/108 152/366/108 142/367/108
f 142/368/109 153/369/109 143/370/109
f 143/371/110 154/372/110 144/373/110
f 144/374/111 155/375/111 145/376/111
f 145/377/112 156/378/112 146/379/112
f 146/380/113 157/381/113 147/382/113
f 147/383/114 158/384/114 148/385/114
f 148/352/103 139/386/103 140/387/103
f 140/387/103 141/388/103 142/350/103
f 142/350/103 143/389/103 144/390/103
f 144/390/103 145/391/103 146/351/103
f 146/351/103 147/392/103 148/352/103
f 148/352/103 140/387/103 142/350/103
f 142/350/103 144/390/103 146/351/103
f 150/355/104 149/393/104 158/394/104
f 158/394/104 157/395/104 156/353/104
f 156/353/104 155/396/104 154/397/104
f 154/397/104 153/398/104 152/354/104
f 152/354/104 151/399/104 150/355/104
f 150/355/104 158/394/104 156/353/104
f 156/353/104 154/397/104 152/354/104
f 148/356/105 158/400/105 149/357/105
f 139/359/106 149/401/106 150/360/106
f 140/362/107 150/402/107 151/363/107
f 141/365/108 151/403/108 152/366/108
f 142/368/109 152/404/109 153/369/109
f 143/371/110 153/405/110 154/372/110
f 144/374/111 154/406/111 155/375/111
f 145/377/112 155/407/112 156/378/112
f 146/380/113 156/408/113 157/381/113
f 147/383/114 157/409/114 158/384/114
g B_Handle.001_Mesh
v -0.070000 -0.420000 -0.070000
v -0.080000 -0.410000 -0.070000
v -0.070000 -0.410000 -0.080000
v -0.080000 0.420000 -0.070000
v -0.070000 0.430000 -0.070000
v -0.070000 0.420000 -0.080000
v 0.070000 0.430000 -0.070000
v 0.080000 0.420000 -0.070000
v 0.070000 0.420000 -0.080000
v 0.070000 -0.420000 -0.070000
v 0.070000 -0.410000 -0.080000
v 0.080000 -0.410000 -0.070000
v -0.070000 -0.420000 0.070000
v -0.070000 -0.410000 0.080000
v -0.080000 -0.410000 0.070000
v -0.080000 0.420000 0.070000
v -0.070000 0.420000 0.080000
v -0.070000 0.430000 0.070000
v 0.070000 0.430000 0.070000
v 0.070000 0.420000 0.080000
v 0.080000 0.420000 0.070000
v 0.070000 -0.420000 0.070000
v 0.080000 -0.410000 0.070000
v 0.070000 -0.410000 0.080000
vn -0.5773 -0.5774 -0.5774
vn -0.5773 0.5774 -0.5774
vn 0.5773 0.5774 -0.5774
vn 0.5773 -0.5774 -0.5774
vn -0.5773 -0.5774 0.5774
vn -0.5773 0.5774 0.5774
vn 0.5773 0.5774 0.5774
vn 0.5773 -0.5774 0.5774
vn -0.0000 -0.7071 -0.7071
vn -0.7071 -0.0000 -0.7071
vn -0.0000 0.7071 -0.7071
vn 0.7071 -0.0000 -0.7071
vn -0.0000 -0.7071 0.7071
vn -0.7071 -0.0000 0.7071
vn -0.0000 0.7071 0.7071
vn 0.7071 -0.0000 0.7071
vn -0.7071 -0.7071 -0.0000
vn -0.7071 0.7071 -0.0000
vn 0.7071 0.7071 -0.0000
vn 0.7071 -0.7071 -0.0000
vn -0.0000 -1.0000 -0.0000
vn -0.0000 -0.0000 -1.0000
vn -1.0000 -0.0000 -0.0000
vn -0.0000 1.0000 -0.0000
vn 1.0000 -0.0000 -0.0000
vn -0.0000 -0.0000 1.0000
vt 0.682629 0.312500
vt 0.675000 0.312500
vt 0.712500 0.300000
vt 0.512500 0.700000
vt 0.504871 0.700000
vt 0.487500 0.700000
vt 0.345129 0.700000
vt 0.337500 0.700000
vt 0.312500 0.700000
vt 0.842371 0.312500
vt 0.887500 0.300000
vt 0.850000 0.312500
vt 0.317371 0.487500
vt 0.287500 0.500000
vt 0.325000 0.487500
vt 0.504706 0.297647
vt 0.490208 0.298313
vt 0.487500 0.300000
vt 0.854871 0.700000
vt 0.887500 0.700000
vt 0.862500 0.700000
vt 0.157629 0.487500
vt 0.150000 0.487500
vt 0.112500 0.500000
vt 0.479351 0.511834
vt 0.697647 0.500000
vt 0.708149 0.500666
vt 0.697647 0.100000
vt 0.488521 0.100000
vt 0.502353 0.100000
vt 0.895294 0.102353
vt 0.847292 0.114187
vt 0.695129 0.700000
vt 0.712500 0.700000
vt 0.150355 0.288166
vt 0.297647 0.300000
vt 0.312145 0.299334
vt 0.687500 0.700000
vt 0.311479 0.100000
vt 0.661479 0.100000
vt 0.138521 0.100000
vt 0.132414 0.685813
vt 0.311479 0.900000
vt 0.661479 0.900000
vt 0.138521 0.900000
vt 0.502353 0.500000
vt 0.102353 0.300000
vt 0.880086 0.501687
vt 0.488521 0.900000
s 0
g B_Handle.001_dark_wood
usemtl dark_wood
f 159/410/115 160/411/115 161/412/115
f 162/413/116 163/414/116 164/415/116
f 165/416/117 166/417/117 167/418/117
f 168/419/118 169/420/118 170/421/118
f 171/422/119 172/423/119 173/424/119
f 174/425/120 175/426/120 176/427/120
f 177/428/121 178/429/121 179/430/121
f 180/431/122 181/432/122 182/433/122
f 169/420/123 159/410/123 161/412/123
f 162/434/124 161/435/124 160/436/124
f 165/416/125 164/415/125 163/414/125
f 170/437/126 167/438/126 166/439/126
f 180/431/127 172/423/127 171/422/127
f 175/426/128 173/440/128 172/441/128
f 178/429/129 176/442/129 175/443/129
f 182/444/130 179/445/130 178/446/130
f 171/422/131 160/411/131 159/410/131
f 174/447/132 163/414/132 162/413/132
f 177/428/133 166/417/133 165/416/133
f 181/432/134 168/419/134 170/421/134
f 168/419/135 171/422/135 159/410/135
f 164/448/136 169/449/136 161/450/136
f 160/436/137 174/451/137 162/434/137
f 163/414/138 177/428/138 165/416/138
f 166/452/139 181/453/139 170/454/139
f 182/444/140 175/426/140 172/441/140
f 169/420/123 168/419/123 159/410/123
f 162/434/124 164/455/124 161/435/124
f 165/416/125 167/418/125 164/415/125
f 170/437/126 169/449/126 167/438/126
f 180/431/127 182/433/127 172/423/127
f 175/426/128 174/425/128 173/440/128
f 178/429/129 177/428/129 176/442/129
f 182/444/130 181/456/130 179/445/130
f 171/422/131 173/424/131 160/411/131
f 174/447/132 176/442/132 163/414/132
f 177/428/133 179/430/133 166/417/133
f 181/432/134 180/431/134 168/419/134
f 168/419/135 180/431/135 171/422/135
f 164/448/136 167/438/136 169/449/136
f 160/436/137 173/457/137 174/451/137
f 163/414/138 176/442/138 177/428/138
f 166/452/139 179/458/139 181/453/139
f 182/444/140 178/446/140 175/426/140
g B_Pommel.001_Mesh
v 0.173205 -0.438000 0.077000
v 0.166277 -0.426000 0.077000
v 0.165205 -0.434619 0.085000
v 0.006928 -0.334000 0.077000
v -0.006928 -0.334000 0.077000
v 0.000000 -0.339238 0.085000
v -0.166277 -0.426000 0.077000
v -0.173205 -0.438000 0.077000
v -0.165205 -0.434619 0.085000
v -0.173205 -0.622000 0.077000
v -0.166277 -0.634000 0.077000
v -0.165205 -0.625381 0.085000
v -0.006928 -0.726000 0.077000
v 0.006928 -0.726000 0.077000
v -0.000000 -0.720762 0.085000
v 0.173205 -0.622000 0.077000
v 0.165205 -0.625381 0.085000
v 0.166277 -0.634000 0.077000
v 0.173205 -0.438000 -0.077000
v 0.165205 -0.434619 -0.085000
v 0.166277 -0.426000 -0.077000
v 0.006928 -0.334000 -0.077000
v -0.000000 -0.339238 -0.085000
v -0.006928 -0.334000 -0.077000
v -0.166277 -0.426000 -0.077000
v -0.165205 -0.434619 -0.085000
v -0.173205 -0.438000 -0.077000
v -0.173205 -0.622000 -0.077000
v -0.165205 -0.625381 -0.085000
v -0.166277 -0.634000 -0.077000
v -0.006928 -0.726000 -0.077000
v 0.000000 -0.720762 -0.085000
v 0.006928 -0.726000 -0.077000
v 0.173205 -0.622000 -0.077000
v 0.166277 -0.634000 -0.077000
v 0.165205 -0.625381 -0.085000
vn 0.7246 0.4183 0.5478
vn -0.0000 0.8366 0.5477
vn -0.7246 0.4183 0.5478
vn -0.7246 -0.4183 0.5478
vn -0.0000 -0.8366 0.5477
vn 0.7246 -0.4183 0.5478
vn 0.7246 0.4183 -0.5478
vn -0.0000 0.8366 -0.5477
vn -0.7246 0.4183 -0.5478
vn -0.7246 -0.4183 -0.5478
vn -0.0000 -0.8366 -0.5477
vn 0.7246 -0.4183 -0.5478
vn 0.7071 -0.0000 0.7071
vn 0.3536 0.6124 0.7071
vn -0.3536 0.6124 0.7071
vn -0.7071 -0.0000 0.7071
vn -0.3536 -0.6124 0.7071
vn 0.3536 -0.6124 0.7071
vn 0.7071 -0.0000 -0.7071
vn 0.3536 0.6124 -0.7071
vn -0.3536 0.6124 -0.7071
vn -0.7071 -0.0000 -0.7071
vn -0.3536 -0.6124 -0.7071
vn 0.3536 -0.6124 -0.7071
vn 0.8660 0.5000 -0.0000
vn -0.0000 1.0000 -0.0000
vn -0.8660 0.5000 -0.0000
vn -0.8660 -0.5000 -0.0000
vn -0.0000 -1.0000 -0.0000
vn 0.8660 -0.5000 -0.0000
vn 1.0000 -0.0000 -0.0000
vn -0.0000 -0.0000 1.0000
vn 0.5000 0.8660 -0.0000
vn -0.5000 0.8660 -0.0000
vn -1.0000 -0.0000 -0.0000
vn -0.5000 -0.8660 -0.0000
vn 0.5000 -0.8660 -0.0000
vn -0.0000 -0.0000 -1.0000
vt 0.877451 0.424510
vt 0.873481 0.424510
vt 0.912818 0.416667
vt 0.730441 0.424510
vt 0.726471 0.424510
vt 0.753849 0.416667
vt 0.444166 0.583333
vt 0.440196 0.583333
vt 0.420516 0.583333
vt 0.877451 0.757843
vt 0.873481 0.757843
vt 0.912818 0.750000
vt 0.730441 0.757843
vt 0.726471 0.757843
vt 0.753849 0.750000
vt 0.253873 0.416667
vt 0.246151 0.416667
vt 0.257843 0.416667
vt 0.555834 0.416667
vt 0.579484 0.416667
vt 0.559804 0.416667
vt 0.269559 0.575490
vt 0.246151 0.583333
vt 0.273529 0.575490
vt 0.889167 0.583333
vt 0.912818 0.583333
vt 0.893137 0.583333
vt 0.555834 0.750000
vt 0.579484 0.750000
vt 0.559804 0.750000
vt 0.269559 0.908823
vt 0.246151 0.916667
vt 0.273529 0.908823
vt 0.412793 0.416667
vt 0.408823 0.416667
vt 0.420516 0.416667
vt 0.110833 0.416667
vt 0.087182 0.416667
vt 0.256667 0.083333
vt 0.418509 0.083333
vt 0.256153 0.083333
vt 0.576667 0.083333
vt 0.423333 0.083333
vt 0.756667 0.083333
vt 0.884627 0.083333
vt 0.743847 0.083333
vt 0.126519 0.575490
vt 0.087182 0.583333
vt 0.753849 0.583333
vt 0.746127 0.583333
vt 0.412793 0.750000
vt 0.420516 0.750000
vt 0.126519 0.908823
vt 0.087182 0.916667
vt 0.418509 0.250000
vt 0.256667 0.250000
vt 0.410000 0.250000
vt 0.122549 0.575490
vt 0.122549 0.908823
vt 0.581491 0.083333
vt 0.587207 0.583333
vt 0.253873 0.750000
vt 0.110833 0.750000
vt 0.587207 0.916667
vt 0.889167 0.916667
vt 0.444166 0.916667
vt 0.256153 0.250000
vt 0.581491 0.250000
vt 0.884627 0.250000
vt 0.410000 0.083333
vt 0.910000 0.083333
vt 0.115373 0.083333
vt 0.746127 0.916667
vt 0.115373 0.250000
vt 0.743847 0.250000
s 0
g B_Pommel.001_ritual_gold
usemtl ritual_gold
f 183/459/141 184/460/141 185/461/141
f 186/462/142 187/463/142 188/464/142
f 189/465/143 190/466/143 191/467/143
f 192/468/144 193/469/144 194/470/144
f 195/471/145 196/472/145 197/473/145
f 198/474/146 199/475/146 200/476/146
f 201/477/147 202/478/147 203/479/147
f 204/480/148 205/481/148 206/482/148
f 207/483/149 208/484/149 209/485/149
f 210/486/150 211/487/150 212/488/150
f 213/489/151 214/490/151 215/491/151
f 216/492/152 217/493/152 218/494/152
f 199/475/153 183/495/153 185/496/153
f 184/460/154 188/464/154 185/461/154
f 187/497/155 191/498/155 188/499/155
f 192/500/156 191/498/156 190/501/156
f 193/469/157 197/473/157 194/470/157
f 196/502/158 199/503/158 197/504/158
f 216/492/159 202/478/159 201/477/159
f 205/481/160 203/505/160 202/506/160
f 205/507/161 207/483/161 206/508/161
f 211/487/162 209/509/162 208/510/162
f 214/490/163 212/511/163 211/512/163
f 214/513/164 217/514/164 215/515/164
f 201/516/165 184/460/165 183/459/165
f 204/480/166 187/463/166 186/462/166
f 207/483/167 190/466/167 189/465/167
f 210/517/168 193/469/168 192/468/168
f 213/489/169 196/472/169 195/471/169
f 217/493/170 198/474/170 200/476/170
f 198/474/171 201/477/171 183/495/171
f 188/499/172 194/518/172 199/503/172
f 184/460/173 204/480/173 186/462/173
f 187/519/174 207/483/174 189/465/174
f 190/520/175 210/486/175 192/521/175
f 193/469/176 213/489/176 195/471/176
f 196/522/177 217/523/177 200/524/177
f 218/525/178 211/526/178 205/527/178
f 199/475/153 198/474/153 183/495/153
f 184/460/154 186/462/154 188/464/154
f 187/497/155 189/528/155 191/498/155
f 192/500/156 194/518/156 191/498/156
f 193/469/157 195/471/157 197/473/157
f 196/502/158 200/529/158 199/503/158
f 216/492/159 218/494/159 202/478/159
f 205/481/160 204/480/160 203/505/160
f 205/507/161 208/484/161 207/483/161
f 211/487/162 210/486/162 209/509/162
f 214/490/163 213/489/163 212/511/163
f 214/513/164 218/525/164 217/514/164
f 201/516/165 203/505/165 184/460/165
f 204/480/166 206/482/166 187/463/166
f 207/483/167 209/485/167 190/466/167
f 210/517/168 212/511/168 193/469/168
f 213/489/169 215/491/169 196/472/169
f 217/493/170 216/492/170 198/474/170
f 198/474/171 216/492/171 201/477/171
f 199/503/172 185/530/172 188/499/172
f 188/499/172 191/498/172 194/518/172
f 194/518/172 197/504/172 199/503/172
f 184/460/173 203/505/173 204/480/173
f 187/519/174 206/508/174 207/483/174
f 190/520/175 209/509/175 210/486/175
f 193/469/176 212/511/176 213/489/176
f 196/522/177 215/531/177 217/523/177
f 205/527/178 202/532/178 218/525/178
f 218/525/178 214/513/178 211/526/178
f 211/526/178 208/533/178 205/527/178
g B_Throat.001_Mesh
v -0.197357 0.387551 0.067000
v -0.192000 0.380000 0.067000
v -0.188724 0.388000 0.075000
v 0.192000 0.380000 0.067000
v 0.197357 0.387551 0.067000
v 0.188724 0.388000 0.075000
v 0.132643 0.572449 0.067000
v 0.122000 0.580000 0.067000
v 0.124324 0.572000 0.075000
v -0.132643 0.572449 0.067000
v -0.124324 0.572000 0.075000
v -0.122000 0.580000 0.067000
v -0.197357 0.387551 -0.067000
v -0.188724 0.388000 -0.075000
v -0.192000 0.380000 -0.067000
v 0.192000 0.380000 -0.067000
v 0.188724 0.388000 -0.075000
v 0.197357 0.387551 -0.067000
v 0.132643 0.572449 -0.067000
v 0.124324 0.572000 -0.075000
v 0.122000 0.580000 -0.067000
v -0.132643 0.572449 -0.067000
v -0.122000 0.580000 -0.067000
v -0.124324 0.572000 -0.075000
vn -0.6024 -0.4274 0.6741
vn 0.6024 -0.4274 0.6741
vn 0.4857 0.6846 0.5435
vn -0.4857 0.6846 0.5435
vn -0.6024 -0.4274 -0.6741
vn 0.6024 -0.4274 -0.6741
vn 0.4857 0.6846 -0.5435
vn -0.4857 0.6846 -0.5435
vn -0.6674 0.2336 0.7071
vn -0.0000 -0.7071 0.7071
vn 0.6674 0.2336 0.7071
vn -0.0000 0.7071 0.7071
vn -0.6674 0.2336 -0.7071
vn -0.0000 -0.7071 -0.7071
vn 0.6674 0.2336 -0.7071
vn -0.0000 0.7071 -0.7071
vn -0.8156 -0.5786 -0.0000
vn 0.8156 -0.5786 -0.0000
vn 0.5786 0.8156 -0.0000
vn -0.5786 0.8156 -0.0000
vn -0.9439 0.3304 -0.0000
vn -0.0000 -0.0000 1.0000
vn -0.0000 -1.0000 -0.0000
vn 0.9439 0.3304 -0.0000
vn -0.0000 1.0000 -0.0000
vn -0.0000 -0.0000 -1.0000
vt 0.709301 0.500235
vt 0.703586 0.501027
vt 0.694362 0.500000
vt 0.485748 0.509640
vt 0.480033 0.510432
vt 0.505638 0.500000
vt 0.310667 0.900000
vt 0.307380 0.900000
vt 0.295634 0.900000
vt 0.853087 0.310667
vt 0.894643 0.300000
vt 0.857333 0.310667
vt 0.317087 0.489333
vt 0.289357 0.500000
vt 0.320351 0.489333
vt 0.134252 0.686360
vt 0.122552 0.694362
vt 0.123271 0.688908
vt 0.307551 0.300000
vt 0.306809 0.298494
vt 0.293846 0.300000
vt 0.668000 0.900000
vt 0.664713 0.900000
vt 0.695634 0.900000
vt 0.710643 0.300000
vt 0.682914 0.310667
vt 0.336247 0.700000
vt 0.489357 0.700000
vt 0.506420 0.700000
vt 0.135287 0.900000
vt 0.146914 0.489333
vt 0.876414 0.502973
vt 0.877448 0.505638
vt 0.498662 0.296275
vt 0.492449 0.300000
vt 0.504366 0.900000
vt 0.492620 0.900000
vt 0.889333 0.500000
vt 0.489333 0.900000
vt 0.132000 0.900000
vt 0.305063 0.100000
vt 0.673303 0.100000
vt 0.126937 0.100000
vt 0.863753 0.700000
vt 0.133191 0.293506
vt 0.861338 0.111725
vt 0.305357 0.700000
vt 0.104366 0.900000
vt 0.105357 0.500000
vt 0.494697 0.100000
vt 0.693580 0.700000
s 0
g B_Throat.001_oxidized_bronze
usemtl oxidized_bronze
f 219/534/179 220/535/179 221/536/179
f 222/537/180 223/538/180 224/539/180
f 225/540/181 226/541/181 227/542/181
f 228/543/182 229/544/182 230/545/182
f 231/546/183 232/547/183 233/548/183
f 234/549/184 235/550/184 236/551/184
f 237/552/185 238/553/185 239/554/185
f 240/555/186 241/556/186 242/557/186
f 221/558/187 228/543/187 219/559/187
f 222/537/188 221/536/188 220/535/188
f 225/560/189 224/561/189 223/562/189
f 230/563/190 227/542/190 226/541/190
f 240/564/191 232/547/191 231/546/191
f 235/550/192 233/565/192 232/566/192
f 235/567/193 237/552/193 236/568/193
f 238/569/194 241/556/194 239/570/194
f 231/571/195 220/535/195 219/534/195
f 234/549/196 223/538/196 222/537/196
f 237/572/197 226/541/197 225/540/197
f 241/556/198 228/573/198 230/563/198
f 228/543/199 231/546/199 219/559/199
f 224/574/200 229/575/200 221/576/200
f 220/535/201 234/549/201 222/537/201
f 223/562/202 237/577/202 225/560/202
f 226/541/203 241/556/203 230/563/203
f 242/578/204 235/567/204 232/579/204
f 221/558/187 229/544/187 228/543/187
f 222/537/188 224/539/188 221/536/188
f 225/560/189 227/580/189 224/561/189
f 230/563/190 229/581/190 227/542/190
f 240/564/191 242/582/191 232/547/191
f 235/550/192 234/549/192 233/565/192
f 235/567/193 238/553/193 237/552/193
f 238/569/194 242/557/194 241/556/194
f 231/571/195 233/565/195 220/535/195
f 234/549/196 236/551/196 223/538/196
f 237/572/197 239/570/197 226/541/197
f 241/556/198 240/555/198 228/573/198
f 228/543/199 240/564/199 231/546/199
f 224/574/200 227/583/200 229/575/200
f 220/535/201 233/565/201 234/549/201
f 223/562/202 236/584/202 237/577/202
f 226/541/203 239/570/203 241/556/203
f 242/578/204 238/553/204 235/567/204
