# Second Rite deterministic item batch 63-72
# Sage Staff
mtllib item_batch_63_72.mtl
o sage_staff
s off
v 0.115000 -1.610000 0.000000
v 0.081317 -1.610000 -0.081317
v 0.000000 -1.610000 -0.115000
v -0.081317 -1.610000 -0.081317
v -0.115000 -1.610000 -0.000000
v -0.081317 -1.610000 0.081317
v -0.000000 -1.610000 0.115000
v 0.081317 -1.610000 0.081317
v 0.090000 1.090000 0.000000
v 0.063640 1.090000 -0.063640
v 0.000000 1.090000 -0.090000
v -0.063640 1.090000 -0.063640
v -0.090000 1.090000 -0.000000
v -0.063640 1.090000 0.063640
v -0.000000 1.090000 0.090000
v 0.063640 1.090000 0.063640
v 0.000000 -1.610000 0.000000
v 0.000000 1.090000 0.000000
v 0.067427 1.073849 0.000000
v 0.033713 1.036924 -0.086603
v -0.033713 0.963076 -0.086603
v -0.067427 0.926151 -0.000000
v -0.033713 0.963076 0.086603
v 0.033713 1.036924 0.086603
v -0.422915 1.460617 0.000000
v -0.441458 1.440308 -0.047631
v -0.478542 1.399692 -0.047631
v -0.497085 1.379383 -0.000000
v -0.478542 1.399692 0.047631
v -0.441458 1.440308 0.047631
v 0.000000 1.000000 0.000000
v -0.460000 1.420000 0.000000
v -0.416000 1.387000 0.000000
v -0.438000 1.403500 -0.047631
v -0.482000 1.436500 -0.047631
v -0.504000 1.453000 -0.000000
v -0.482000 1.436500 0.047631
v -0.438000 1.403500 0.047631
v -0.218000 1.676000 0.000000
v -0.234000 1.688000 -0.034641
v -0.266000 1.712000 -0.034641
v -0.282000 1.724000 -0.000000
v -0.266000 1.712000 0.034641
v -0.234000 1.688000 0.034641
v -0.460000 1.420000 0.000000
v -0.250000 1.700000 0.000000
v 0.067427 0.926151 0.000000
v 0.033713 0.963076 -0.086603
v -0.033713 1.036924 -0.086603
v -0.067427 1.073849 -0.000000
v -0.033713 1.036924 0.086603
v 0.033713 0.963076 0.086603
v 0.497085 1.379383 0.000000
v 0.478542 1.399692 -0.047631
v 0.441458 1.440308 -0.047631
v 0.422915 1.460617 -0.000000
v 0.441458 1.440308 0.047631
v 0.478542 1.399692 0.047631
v 0.000000 1.000000 0.000000
v 0.460000 1.420000 0.000000
v 0.504000 1.453000 0.000000
v 0.482000 1.436500 -0.047631
v 0.438000 1.403500 -0.047631
v 0.416000 1.387000 -0.000000
v 0.438000 1.403500 0.047631
v 0.482000 1.436500 0.047631
v 0.282000 1.724000 0.000000
v 0.266000 1.712000 -0.034641
v 0.234000 1.688000 -0.034641
v 0.218000 1.676000 -0.000000
v 0.234000 1.688000 0.034641
v 0.266000 1.712000 0.034641
v 0.460000 1.420000 0.000000
v 0.250000 1.700000 0.000000
v 0.300000 1.490000 0.000000
v 0.212132 1.490000 0.212132
v 0.000000 1.490000 0.300000
v -0.212132 1.490000 0.212132
v -0.300000 1.490000 0.000000
v -0.212132 1.490000 -0.212132
v -0.000000 1.490000 -0.300000
v 0.212132 1.490000 -0.212132
v 0.000000 1.780000 0.000000
v 0.000000 1.200000 0.000000
v -0.160000 -1.460000 0.000000
v -0.080000 -1.460000 -0.138564
v 0.080000 -1.460000 -0.138564
v 0.160000 -1.460000 -0.000000
v 0.080000 -1.460000 0.138564
v -0.080000 -1.460000 0.138564
v -0.120000 -1.780000 0.000000
v -0.060000 -1.780000 -0.103923
v 0.060000 -1.780000 -0.103923
v 0.120000 -1.780000 -0.000000
v 0.060000 -1.780000 0.103923
v -0.060000 -1.780000 0.103923
v 0.000000 -1.460000 0.000000
v 0.000000 -1.780000 0.000000
usemtl dark_wood
f 17 2 1
f 18 9 10
f 1 2 10
f 1 10 9
f 17 3 2
f 18 10 11
f 2 3 11
f 2 11 10
f 17 4 3
f 18 11 12
f 3 4 12
f 3 12 11
f 17 5 4
f 18 12 13
f 4 5 13
f 4 13 12
f 17 6 5
f 18 13 14
f 5 6 14
f 5 14 13
f 17 7 6
f 18 14 15
f 6 7 15
f 6 15 14
f 17 8 7
f 18 15 16
f 7 8 16
f 7 16 15
f 17 1 8
f 18 16 9
f 8 1 9
f 8 9 16
usemtl ritual_gold
f 31 20 19
f 32 25 26
f 19 20 26
f 19 26 25
f 31 21 20
f 32 26 27
f 20 21 27
f 20 27 26
f 31 22 21
f 32 27 28
f 21 22 28
f 21 28 27
f 31 23 22
f 32 28 29
f 22 23 29
f 22 29 28
f 31 24 23
f 32 29 30
f 23 24 30
f 23 30 29
f 31 19 24
f 32 30 25
f 24 19 25
f 24 25 30
f 45 34 33
f 46 39 40
f 33 34 40
f 33 40 39
f 45 35 34
f 46 40 41
f 34 35 41
f 34 41 40
f 45 36 35
f 46 41 42
f 35 36 42
f 35 42 41
f 45 37 36
f 46 42 43
f 36 37 43
f 36 43 42
f 45 38 37
f 46 43 44
f 37 38 44
f 37 44 43
f 45 33 38
f 46 44 39
f 38 33 39
f 38 39 44
f 59 48 47
f 60 53 54
f 47 48 54
f 47 54 53
f 59 49 48
f 60 54 55
f 48 49 55
f 48 55 54
f 59 50 49
f 60 55 56
f 49 50 56
f 49 56 55
f 59 51 50
f 60 56 57
f 50 51 57
f 50 57 56
f 59 52 51
f 60 57 58
f 51 52 58
f 51 58 57
f 59 47 52
f 60 58 53
f 52 47 53
f 52 53 58
f 73 62 61
f 74 67 68
f 61 62 68
f 61 68 67
f 73 63 62
f 74 68 69
f 62 63 69
f 62 69 68
f 73 64 63
f 74 69 70
f 63 64 70
f 63 70 69
f 73 65 64
f 74 70 71
f 64 65 71
f 64 71 70
f 73 66 65
f 74 71 72
f 65 66 72
f 65 72 71
f 73 61 66
f 74 72 67
f 66 61 67
f 66 67 72
usemtl crystal
f 83 75 76
f 84 76 75
f 83 76 77
f 84 77 76
f 83 77 78
f 84 78 77
f 83 78 79
f 84 79 78
f 83 79 80
f 84 80 79
f 83 80 81
f 84 81 80
f 83 81 82
f 84 82 81
f 83 82 75
f 84 75 82
usemtl ritual_gold
f 97 86 85
f 98 91 92
f 85 86 92
f 85 92 91
f 97 87 86
f 98 92 93
f 86 87 93
f 86 93 92
f 97 88 87
f 98 93 94
f 87 88 94
f 87 94 93
f 97 89 88
f 98 94 95
f 88 89 95
f 88 95 94
f 97 90 89
f 98 95 96
f 89 90 96
f 89 96 95
f 97 85 90
f 98 96 91
f 90 85 91
f 90 91 96
