# Blender 5.0.1
# www.blender.org
mtllib scrap_plating.mtl
g Scrap_Plate0.001_Mesh
v -1.198738 -0.250000 0.291138
v -1.196555 -0.211500 0.301408
v -1.253514 -0.211500 0.302781
v -1.196555 0.811500 0.301408
v -1.198738 0.850000 0.291138
v -1.253514 0.811500 0.302781
v -1.256746 -0.250000 0.018235
v -1.311522 -0.211500 0.029878
v -1.258929 -0.211500 0.007964
v -1.256746 0.850000 0.018235
v -1.258929 0.811500 0.007964
v -1.311522 0.811500 0.029878
v 0.256746 -0.250000 -0.018235
v 0.311522 -0.211500 -0.029878
v 0.258929 -0.211500 -0.007964
v 0.256746 0.850000 -0.018235
v 0.258929 0.811500 -0.007964
v 0.311522 0.811500 -0.029878
v 0.198738 -0.250000 -0.291138
v 0.196555 -0.211500 -0.301408
v 0.253514 -0.211500 -0.302781
v 0.198738 0.850000 -0.291138
v 0.253514 0.811500 -0.302781
v 0.196555 0.811500 -0.301408
vn 0.0233 -0.2589 0.9656
vn 0.0233 0.2589 0.9656
vn -0.3715 -0.2589 -0.8916
vn -0.3715 0.2589 -0.8916
vn 0.3715 -0.2589 0.8916
vn 0.3715 0.2589 0.8916
vn -0.0233 -0.2589 -0.9656
vn -0.0233 0.2589 -0.9656
vn -0.5541 -0.8240 0.1178
vn 0.0241 -0.0000 0.9997
vn -0.5541 0.8240 0.1178
vn -0.3846 -0.0000 -0.9231
vn -0.2006 -0.2631 -0.9437
vn -0.2006 0.2631 -0.9437
vn -0.0241 -0.0000 -0.9997
vn 0.5541 -0.8240 -0.1178
vn 0.5541 0.8240 -0.1178
vn 0.3846 -0.0000 0.9231
vn 0.2006 -0.2631 0.9437
vn 0.2006 0.2631 0.9437
vn -0.0000 -1.0000 -0.0000
vn -0.9781 -0.0000 0.2079
vn 0.2079 -0.0000 0.9781
vn -0.0000 1.0000 -0.0000
vn -0.2079 -0.0000 -0.9781
vn 0.9781 -0.0000 -0.2079
vt 0.133750 0.741250
vt 0.133750 0.750000
vt 0.125000 0.741250
vt 0.616250 0.000000
vt 0.625000 0.008750
vt 0.616250 0.008750
vt 0.133750 0.508750
vt 0.125000 0.508750
vt 0.133750 0.500000
vt 0.625000 0.247083
vt 0.616250 0.256563
vt 0.616250 0.241250
vt 0.366250 0.741250
vt 0.381562 0.741250
vt 0.375000 0.754375
vt 0.629375 0.750000
vt 0.616250 0.758750
vt 0.616250 0.743438
vt 0.366250 0.508750
vt 0.375000 0.495625
vt 0.381562 0.508750
vt 0.629375 0.500000
vt 0.616250 0.506563
vt 0.616250 0.491250
vt 0.383750 0.008750
vt 0.383750 0.000000
vt 0.383750 0.258750
vt 0.625000 0.991250
vt 0.383750 0.241250
vt 0.383750 0.991250
vt 0.866250 0.508750
vt 0.616250 0.991250
vt 0.866250 0.741250
s 0
g Scrap_Plate0.001_MAT_Iron
usemtl MAT_Iron
f 1/1/1 2/2/1 3/3/1
f 4/4/2 5/5/2 6/6/2
f 7/7/3 8/8/3 9/9/3
f 10/10/4 11/11/4 12/12/4
f 13/13/5 14/14/5 15/15/5
f 16/16/6 17/17/6 18/18/6
f 19/19/7 20/20/7 21/21/7
f 22/22/8 23/23/8 24/24/8
f 1/1/9 8/8/9 7/7/9
f 4/4/10 3/25/10 2/26/10
f 10/10/11 6/6/11 5/5/11
f 9/27/12 12/12/12 11/11/12
f 7/7/13 20/20/13 19/19/13
f 22/22/14 11/11/14 10/10/14
f 21/21/15 24/24/15 23/23/15
f 19/19/16 14/14/16 13/13/16
f 16/16/17 23/23/17 22/22/17
f 15/15/18 18/18/18 17/17/18
f 13/13/19 2/2/19 1/1/19
f 5/28/20 17/17/20 16/16/20
f 19/19/21 1/1/21 7/7/21
f 6/6/22 8/29/22 3/25/22
f 17/17/23 2/30/23 15/15/23
f 10/31/24 16/16/24 22/22/24
f 11/11/25 20/20/25 9/27/25
f 23/23/26 14/14/26 21/21/26
f 1/1/9 3/3/9 8/8/9
f 4/4/10 6/6/10 3/25/10
f 10/10/11 12/12/11 6/6/11
f 9/27/12 8/29/12 12/12/12
f 7/7/13 9/9/13 20/20/13
f 22/22/14 24/24/14 11/11/14
f 21/21/15 20/20/15 24/24/15
f 19/19/16 21/21/16 14/14/16
f 16/16/17 18/18/17 23/23/17
f 15/15/18 14/14/18 18/18/18
f 13/13/19 15/15/19 2/2/19
f 5/28/20 4/32/20 17/17/20
f 19/19/21 13/13/21 1/1/21
f 6/6/22 12/12/22 8/29/22
f 17/17/23 4/32/23 2/30/23
f 10/31/24 5/33/24 16/16/24
f 11/11/25 24/24/25 20/20/25
f 23/23/26 18/18/26 14/14/26
g Scrap_Plate1.001_Mesh
v -0.323652 -0.340000 0.021106
v -0.325475 -0.305000 0.031446
v -0.373286 -0.305000 0.012354
v -0.325475 0.625000 0.031446
v -0.323652 0.660000 0.021106
v -0.373286 0.625000 0.012354
v -0.275204 -0.340000 -0.253656
v -0.324838 -0.305000 -0.262407
v -0.273380 -0.305000 -0.263996
v -0.275204 0.660000 -0.253656
v -0.273380 0.625000 -0.263996
v -0.324838 0.625000 -0.262407
v 0.995203 -0.340000 0.253656
v 1.044837 -0.305000 0.262407
v 0.993380 -0.305000 0.263996
v 0.995203 0.660000 0.253656
v 0.993380 0.625000 0.263996
v 1.044837 0.625000 0.262407
v 1.043651 -0.340000 -0.021106
v 1.045474 -0.305000 -0.031446
v 1.093285 -0.305000 -0.012354
v 1.043651 0.660000 -0.021106
v 1.093285 0.625000 -0.012354
v 1.045474 0.625000 -0.031446
vn -0.3558 -0.2818 0.8911
vn -0.3558 0.2818 0.8911
vn -0.0296 -0.2818 -0.9590
vn -0.0296 0.2818 -0.9590
vn 0.0296 -0.2818 0.9590
vn 0.0296 0.2818 0.9590
vn 0.3558 -0.2818 -0.8911
vn 0.3558 0.2818 -0.8911
vn -0.5617 -0.8214 -0.0990
vn -0.3709 -0.0000 0.9287
vn -0.5617 0.8214 -0.0990
vn -0.0309 -0.0000 -0.9995
vn 0.1663 -0.2873 -0.9433
vn 0.1663 0.2873 -0.9433
vn 0.3709 -0.0000 -0.9287
vn 0.5617 -0.8214 0.0990
vn 0.5617 0.8214 0.0990
vn 0.0309 -0.0000 0.9995
vn -0.1663 -0.2873 0.9433
vn -0.1663 0.2873 0.9433
vn -0.0000 -1.0000 -0.0000
vn -0.9848 -0.0000 -0.1736
vn -0.1736 -0.0000 0.9848
vn -0.0000 1.0000 -0.0000
vn 0.1736 -0.0000 -0.9848
vn 0.9848 -0.0000 0.1736
vt 0.133750 0.741250
vt 0.133750 0.750000
vt 0.125000 0.741250
vt 0.616250 0.000000
vt 0.625000 0.008750
vt 0.616250 0.008750
vt 0.133750 0.508750
vt 0.125000 0.508750
vt 0.133750 0.500000
vt 0.625000 0.247083
vt 0.616250 0.256563
vt 0.616250 0.241250
vt 0.366250 0.741250
vt 0.381562 0.741250
vt 0.375000 0.754375
vt 0.629375 0.750000
vt 0.616250 0.758750
vt 0.616250 0.743438
vt 0.366250 0.508750
vt 0.375000 0.495625
vt 0.381562 0.508750
vt 0.629375 0.500000
vt 0.616250 0.506563
vt 0.616250 0.491250
vt 0.383750 0.008750
vt 0.383750 0.000000
vt 0.383750 0.258750
vt 0.625000 0.991250
vt 0.383750 0.241250
vt 0.383750 0.991250
vt 0.866250 0.508750
vt 0.616250 0.991250
vt 0.866250 0.741250
s 0
g Scrap_Plate1.001_MAT_Iron
usemtl MAT_Iron
f 25/34/27 26/35/27 27/36/27
f 28/37/28 29/38/28 30/39/28
f 31/40/29 32/41/29 33/42/29
f 34/43/30 35/44/30 36/45/30
f 37/46/31 38/47/31 39/48/31
f 40/49/32 41/50/32 42/51/32
f 43/52/33 44/53/33 45/54/33
f 46/55/34 47/56/34 48/57/34
f 25/34/35 32/41/35 31/40/35
f 28/37/36 27/58/36 26/59/36
f 34/43/37 30/39/37 29/38/37
f 33/60/38 36/45/38 35/44/38
f 31/40/39 44/53/39 43/52/39
f 46/55/40 35/44/40 34/43/40
f 45/54/41 48/57/41 47/56/41
f 43/52/42 38/47/42 37/46/42
f 40/49/43 47/56/43 46/55/43
f 39/48/44 42/51/44 41/50/44
f 37/46/45 26/35/45 25/34/45
f 29/61/46 41/50/46 40/49/46
f 43/52/47 25/34/47 31/40/47
f 30/39/48 32/62/48 27/58/48
f 41/50/49 26/63/49 39/48/49
f 34/64/50 40/49/50 46/55/50
f 35/44/51 44/53/51 33/60/51
f 47/56/52 38/47/52 45/54/52
f 25/34/35 27/36/35 32/41/35
f 28/37/36 30/39/36 27/58/36
f 34/43/37 36/45/37 30/39/37
f 33/60/38 32/62/38 36/45/38
f 31/40/39 33/42/39 44/53/39
f 46/55/40 48/57/40 35/44/40
f 45/54/41 44/53/41 48/57/41
f 43/52/42 45/54/42 38/47/42
f 40/49/43 42/51/43 47/56/43
f 39/48/44 38/47/44 42/51/44
f 37/46/45 39/48/45 26/35/45
f 29/61/46 28/65/46 41/50/46
f 43/52/47 37/46/47 25/34/47
f 30/39/48 36/45/48 32/62/48
f 41/50/49 28/65/49 26/63/49
f 34/64/50 29/66/50 40/49/50
f 35/44/51 48/57/51 44/53/51
f 47/56/52 42/51/52 38/47/52
g Scrap_Plate2.001_Mesh
v -0.863840 -0.980000 0.218449
v -0.862743 -0.950600 0.228892
v -0.920926 -0.950600 0.224449
v -0.862743 -0.169400 0.228892
v -0.863840 -0.140000 0.218449
v -0.920926 -0.169400 0.224449
v -0.893004 -0.980000 -0.059022
v -0.950090 -0.950600 -0.053022
v -0.894102 -0.950600 -0.069465
v -0.893004 -0.140000 -0.059022
v -0.894102 -0.169400 -0.069465
v -0.950090 -0.169400 -0.053022
v 0.653004 -0.980000 0.059022
v 0.710090 -0.950600 0.053022
v 0.654102 -0.950600 0.069465
v 0.653004 -0.140000 0.059022
v 0.654102 -0.169400 0.069465
v 0.710090 -0.169400 0.053022
v 0.623841 -0.980000 -0.218449
v 0.622743 -0.950600 -0.228892
v 0.680926 -0.950600 -0.224449
v 0.623841 -0.140000 -0.218449
v 0.680926 -0.169400 -0.224449
v 0.622743 -0.169400 -0.228892
vn -0.0718 -0.3315 0.9407
vn -0.0718 0.3315 0.9407
vn -0.2658 -0.3315 -0.9052
vn -0.2658 0.3315 -0.9052
vn 0.2658 -0.3315 0.9052
vn 0.2658 0.3315 0.9052
vn 0.0718 -0.3315 -0.9407
vn 0.0718 0.3315 -0.9407
vn -0.4534 -0.8900 0.0477
vn -0.0761 -0.0000 0.9971
vn -0.4534 0.8900 0.0477
vn -0.2818 -0.0000 -0.9595
vn -0.0984 -0.3363 -0.9366
vn -0.0984 0.3363 -0.9366
vn 0.0761 -0.0000 -0.9971
vn 0.4534 -0.8900 -0.0477
vn 0.4534 0.8900 -0.0477
vn 0.2818 -0.0000 0.9595
vn 0.0984 -0.3363 0.9366
vn 0.0984 0.3363 0.9366
vn -0.0000 -1.0000 -0.0000
vn -0.9945 -0.0000 0.1045
vn 0.1045 -0.0000 0.9945
vn -0.0000 1.0000 -0.0000
vn -0.1045 -0.0000 -0.9945
vn 0.9945 -0.0000 -0.1045
vt 0.133750 0.741250
vt 0.133750 0.750000
vt 0.125000 0.741250
vt 0.616250 0.000000
vt 0.625000 0.008750
vt 0.616250 0.008750
vt 0.133750 0.508750
vt 0.125000 0.508750
vt 0.133750 0.500000
vt 0.625000 0.247083
vt 0.616250 0.256563
vt 0.616250 0.241250
vt 0.366250 0.741250
vt 0.381562 0.741250
vt 0.375000 0.754375
vt 0.629375 0.750000
vt 0.616250 0.758750
vt 0.616250 0.743438
vt 0.366250 0.508750
vt 0.375000 0.495625
vt 0.381562 0.508750
vt 0.629375 0.500000
vt 0.616250 0.506563
vt 0.616250 0.491250
vt 0.383750 0.008750
vt 0.383750 0.000000
vt 0.383750 0.258750
vt 0.625000 0.991250
vt 0.383750 0.241250
vt 0.383750 0.991250
vt 0.866250 0.508750
vt 0.616250 0.991250
vt 0.866250 0.741250
s 0
g Scrap_Plate2.001_MAT_Iron
usemtl MAT_Iron
f 49/67/53 50/68/53 51/69/53
f 52/70/54 53/71/54 54/72/54
f 55/73/55 56/74/55 57/75/55
f 58/76/56 59/77/56 60/78/56
f 61/79/57 62/80/57 63/81/57
f 64/82/58 65/83/58 66/84/58
f 67/85/59 68/86/59 69/87/59
f 70/88/60 71/89/60 72/90/60
f 49/67/61 56/74/61 55/73/61
f 52/70/62 51/91/62 50/92/62
f 58/76/63 54/72/63 53/71/63
f 57/93/64 60/78/64 59/77/64
f 55/73/65 68/86/65 67/85/65
f 70/88/66 59/77/66 58/76/66
f 69/87/67 72/90/67 71/89/67
f 67/85/68 62/80/68 61/79/68
f 64/82/69 71/89/69 70/88/69
f 63/81/70 66/84/70 65/83/70
f 61/79/71 50/68/71 49/67/71
f 53/94/72 65/83/72 64/82/72
f 67/85/73 49/67/73 55/73/73
f 54/72/74 56/95/74 51/91/74
f 65/83/75 50/96/75 63/81/75
f 58/97/76 64/82/76 70/88/76
f 59/77/77 68/86/77 57/93/77
f 71/89/78 62/80/78 69/87/78
f 49/67/61 51/69/61 56/74/61
f 52/70/62 54/72/62 51/91/62
f 58/76/63 60/78/63 54/72/63
f 57/93/64 56/95/64 60/78/64
f 55/73/65 57/75/65 68/86/65
f 70/88/66 72/90/66 59/77/66
f 69/87/67 68/86/67 72/90/67
f 67/85/68 69/87/68 62/80/68
f 64/82/69 66/84/69 71/89/69
f 63/81/70 62/80/70 66/84/70
f 61/79/71 63/81/71 50/68/71
f 53/94/72 52/98/72 65/83/72
f 67/85/73 61/79/73 49/67/73
f 54/72/74 60/78/74 56/95/74
f 65/83/75 52/98/75 50/96/75
f 58/97/76 53/99/76 64/82/76
f 59/77/77 72/90/77 68/86/77
f 71/89/78 66/84/78 62/80/78
g Scrap_Rivet0_-1.001_Mesh
v -1.044001 -0.100000 0.180000
v -0.993349 -0.061305 0.206286
v -1.063348 -0.061305 0.222532
v -1.106610 -0.061305 0.180000
v -1.063348 -0.061305 0.137468
v -0.993349 -0.061305 0.153714
v -1.024654 0.001305 0.222532
v -1.094653 0.001305 0.206286
v -1.094653 0.001305 0.153714
v -1.024654 0.001305 0.137468
v -0.981391 0.001305 0.180000
v -1.044001 0.040000 0.180000
vn 0.1633 -0.6917 0.7035
vn 0.6071 -0.7947 -0.0000
vn -0.4636 -0.7501 0.4716
vn -0.4636 -0.7501 -0.4716
vn 0.1633 -0.6917 -0.7035
vn 0.9822 -0.1876 -0.0000
vn 0.2239 -0.1384 0.9647
vn -0.6917 -0.1633 0.7035
vn -0.6917 -0.1633 -0.7035
vn 0.2239 -0.1384 -0.9647
vn 0.6917 0.1633 0.7035
vn -0.2239 0.1384 0.9647
vn -0.9822 0.1876 -0.0000
vn -0.2239 0.1384 -0.9647
vn 0.6917 0.1633 -0.7035
vn 0.4636 0.7501 0.4716
vn -0.1633 0.6917 0.7035
vn -0.6071 0.7947 -0.0000
vn -0.1633 0.6917 -0.7035
vn 0.4636 0.7501 -0.4716
vt 0.181819 0.000000
vt 0.272728 0.157461
vt 0.090910 0.157461
vt 0.363637 0.000000
vt 0.454546 0.157461
vt 0.909091 0.000000
vt 1.000000 0.157461
vt 0.818182 0.157461
vt 0.727273 0.000000
vt 0.636364 0.157461
vt 0.545455 0.000000
vt 0.363637 0.314921
vt 0.181819 0.314921
vt 0.909091 0.314921
vt 0.727273 0.314921
vt 0.545455 0.314921
vt 0.000000 0.314921
vt 0.272728 0.472382
vt 0.090910 0.472382
vt 0.818182 0.472382
vt 0.636364 0.472382
vt 0.454546 0.472382
s 0
g Scrap_Rivet0_-1.001_MAT_OldGold
usemtl MAT_OldGold
f 73/100/79 74/101/79 75/102/79
f 74/101/80 73/103/80 78/104/80
f 73/105/81 75/106/81 76/107/81
f 73/108/82 76/107/82 77/109/82
f 73/110/83 77/109/83 78/104/83
f 74/101/84 78/104/84 83/111/84
f 75/102/85 74/101/85 79/112/85
f 76/107/86 75/106/86 80/113/86
f 77/109/87 76/107/87 81/114/87
f 78/104/88 77/109/88 82/115/88
f 74/101/89 83/111/89 79/112/89
f 75/102/90 79/112/90 80/116/90
f 76/107/91 80/113/91 81/114/91
f 77/109/92 81/114/92 82/115/92
f 78/104/93 82/115/93 83/111/93
f 79/112/94 83/111/94 84/117/94
f 80/116/95 79/112/95 84/118/95
f 81/114/96 80/113/96 84/119/96
f 82/115/97 81/114/97 84/120/97
f 83/111/98 82/115/98 84/121/98
g Scrap_Rivet0_1.001_Mesh
v 0.044000 0.560000 0.180000
v 0.094652 0.598695 0.206286
v 0.024653 0.598695 0.222532
v -0.018610 0.598695 0.180000
v 0.024653 0.598695 0.137468
v 0.094652 0.598695 0.153714
v 0.063347 0.661305 0.222532
v -0.006652 0.661305 0.206286
v -0.006652 0.661305 0.153714
v 0.063347 0.661305 0.137468
v 0.106609 0.661305 0.180000
v 0.044000 0.700000 0.180000
vn 0.1633 -0.6917 0.7035
vn 0.6071 -0.7947 -0.0000
vn -0.4636 -0.7501 0.4716
vn -0.4636 -0.7501 -0.4716
vn 0.1633 -0.6917 -0.7035
vn 0.9822 -0.1876 -0.0000
vn 0.2239 -0.1384 0.9647
vn -0.6917 -0.1633 0.7035
vn -0.6917 -0.1633 -0.7035
vn 0.2239 -0.1384 -0.9647
vn 0.6917 0.1633 0.7035
vn -0.2239 0.1384 0.9647
vn -0.9822 0.1876 -0.0000
vn -0.2239 0.1384 -0.9647
vn 0.6917 0.1633 -0.7035
vn 0.4636 0.7501 0.4716
vn -0.1633 0.6917 0.7035
vn -0.6071 0.7947 -0.0000
vn -0.1633 0.6917 -0.7035
vn 0.4636 0.7501 -0.4716
vt 0.181819 0.000000
vt 0.272728 0.157461
vt 0.090910 0.157461
vt 0.363637 0.000000
vt 0.454546 0.157461
vt 0.909091 0.000000
vt 1.000000 0.157461
vt 0.818182 0.157461
vt 0.727273 0.000000
vt 0.636364 0.157461
vt 0.545455 0.000000
vt 0.363637 0.314921
vt 0.181819 0.314921
vt 0.909091 0.314921
vt 0.727273 0.314921
vt 0.545455 0.314921
vt 0.000000 0.314921
vt 0.272728 0.472382
vt 0.090910 0.472382
vt 0.818182 0.472382
vt 0.636364 0.472382
vt 0.454546 0.472382
s 0
g Scrap_Rivet0_1.001_MAT_OldGold
usemtl MAT_OldGold
f 85/122/99 86/123/99 87/124/99
f 86/123/100 85/125/100 90/126/100
f 85/127/101 87/128/101 88/129/101
f 85/130/102 88/129/102 89/131/102
f 85/132/103 89/131/103 90/126/103
f 86/123/104 90/126/104 95/133/104
f 87/124/105 86/123/105 91/134/105
f 88/129/106 87/128/106 92/135/106
f 89/131/107 88/129/107 93/136/107
f 90/126/108 89/131/108 94/137/108
f 86/123/109 95/133/109 91/134/109
f 87/124/110 91/134/110 92/138/110
f 88/129/111 92/135/111 93/136/111
f 89/131/112 93/136/112 94/137/112
f 90/126/113 94/137/113 95/133/113
f 91/134/114 95/133/114 96/139/114
f 92/138/115 91/134/115 96/140/115
f 93/136/116 92/135/116 96/141/116
f 94/137/117 93/136/117 96/142/117
f 95/133/118 94/137/118 96/143/118
g Scrap_Rivet1_-1.001_Mesh
v -0.129600 -0.210000 0.180000
v -0.078948 -0.171305 0.206286
v -0.148947 -0.171305 0.222532
v -0.192209 -0.171305 0.180000
v -0.148947 -0.171305 0.137468
v -0.078948 -0.171305 0.153714
v -0.110253 -0.108695 0.222532
v -0.180252 -0.108695 0.206286
v -0.180252 -0.108695 0.153714
v -0.110253 -0.108695 0.137468
v -0.066990 -0.108695 0.180000
v -0.129600 -0.070000 0.180000
vn 0.1633 -0.6917 0.7035
vn 0.6071 -0.7947 -0.0000
vn -0.4636 -0.7501 0.4716
vn -0.4636 -0.7501 -0.4716
vn 0.1633 -0.6917 -0.7035
vn 0.9822 -0.1876 -0.0000
vn 0.2239 -0.1384 0.9647
vn -0.6917 -0.1633 0.7035
vn -0.6917 -0.1633 -0.7035
vn 0.2239 -0.1384 -0.9647
vn 0.6917 0.1633 0.7035
vn -0.2239 0.1384 0.9647
vn -0.9822 0.1876 -0.0000
vn -0.2239 0.1384 -0.9647
vn 0.6917 0.1633 -0.7035
vn 0.4636 0.7501 0.4716
vn -0.1633 0.6917 0.7035
vn -0.6071 0.7947 -0.0000
vn -0.1633 0.6917 -0.7035
vn 0.4636 0.7501 -0.4716
vt 0.181819 0.000000
vt 0.272728 0.157461
vt 0.090910 0.157461
vt 0.363637 0.000000
vt 0.454546 0.157461
vt 0.909091 0.000000
vt 1.000000 0.157461
vt 0.818182 0.157461
vt 0.727273 0.000000
vt 0.636364 0.157461
vt 0.545455 0.000000
vt 0.363637 0.314921
vt 0.181819 0.314921
vt 0.909091 0.314921
vt 0.727273 0.314921
vt 0.545455 0.314921
vt 0.000000 0.314921
vt 0.272728 0.472382
vt 0.090910 0.472382
vt 0.818182 0.472382
vt 0.636364 0.472382
vt 0.454546 0.472382
s 0
g Scrap_Rivet1_-1.001_MAT_OldGold
usemtl MAT_OldGold
f 97/144/119 98/145/119 99/146/119
f 98/145/120 97/147/120 102/148/120
f 97/149/121 99/150/121 100/151/121
f 97/152/122 100/151/122 101/153/122
f 97/154/123 101/153/123 102/148/123
f 98/145/124 102/148/124 107/155/124
f 99/146/125 98/145/125 103/156/125
f 100/151/126 99/150/126 104/157/126
f 101/153/127 100/151/127 105/158/127
f 102/148/128 101/153/128 106/159/128
f 98/145/129 107/155/129 103/156/129
f 99/146/130 103/156/130 104/160/130
f 100/151/131 104/157/131 105/158/131
f 101/153/132 105/158/132 106/159/132
f 102/148/133 106/159/133 107/155/133
f 103/156/134 107/155/134 108/161/134
f 104/160/135 103/156/135 108/162/135
f 105/158/136 104/157/136 108/163/136
f 106/159/137 105/158/137 108/164/137
f 107/155/138 106/159/138 108/165/138
g Scrap_Rivet1_1.001_Mesh
v 0.849600 0.390000 0.180000
v 0.900252 0.428695 0.206286
v 0.830253 0.428695 0.222532
v 0.786990 0.428695 0.180000
v 0.830253 0.428695 0.137468
v 0.900252 0.428695 0.153714
v 0.868947 0.491305 0.222532
v 0.798948 0.491305 0.206286
v 0.798948 0.491305 0.153714
v 0.868947 0.491305 0.137468
v 0.912210 0.491305 0.180000
v 0.849600 0.530000 0.180000
vn 0.1633 -0.6917 0.7035
vn 0.6071 -0.7947 -0.0000
vn -0.4636 -0.7501 0.4716
vn -0.4636 -0.7501 -0.4716
vn 0.1633 -0.6917 -0.7035
vn 0.9822 -0.1876 -0.0000
vn 0.2239 -0.1384 0.9647
vn -0.6917 -0.1633 0.7035
vn -0.6917 -0.1633 -0.7035
vn 0.2239 -0.1384 -0.9647
vn 0.6917 0.1633 0.7035
vn -0.2239 0.1384 0.9647
vn -0.9822 0.1876 -0.0000
vn -0.2239 0.1384 -0.9647
vn 0.6917 0.1633 -0.7035
vn 0.4636 0.7501 0.4716
vn -0.1633 0.6917 0.7035
vn -0.6071 0.7947 -0.0000
vn -0.1633 0.6917 -0.7035
vn 0.4636 0.7501 -0.4716
vt 0.181819 0.000000
vt 0.272728 0.157461
vt 0.090910 0.157461
vt 0.363637 0.000000
vt 0.454546 0.157461
vt 0.909091 0.000000
vt 1.000000 0.157461
vt 0.818182 0.157461
vt 0.727273 0.000000
vt 0.636364 0.157461
vt 0.545455 0.000000
vt 0.363637 0.314921
vt 0.181819 0.314921
vt 0.909091 0.314921
vt 0.727273 0.314921
vt 0.545455 0.314921
vt 0.000000 0.314921
vt 0.272728 0.472382
vt 0.090910 0.472382
vt 0.818182 0.472382
vt 0.636364 0.472382
vt 0.454546 0.472382
s 0
g Scrap_Rivet1_1.001_MAT_OldGold
usemtl MAT_OldGold
f 109/166/139 110/167/139 111/168/139
f 110/167/140 109/169/140 114/170/140
f 109/171/141 111/172/141 112/173/141
f 109/174/142 112/173/142 113/175/142
f 109/176/143 113/175/143 114/170/143
f 110/167/144 114/170/144 119/177/144
f 111/168/145 110/167/145 115/178/145
f 112/173/146 111/172/146 116/179/146
f 113/175/147 112/173/147 117/180/147
f 114/170/148 113/175/148 118/181/148
f 110/167/149 119/177/149 115/178/149
f 111/168/150 115/178/150 116/182/150
f 112/173/151 116/179/151 117/180/151
f 113/175/152 117/180/152 118/181/152
f 114/170/153 118/181/153 119/177/153
f 115/178/154 119/177/154 120/183/154
f 116/182/155 115/178/155 120/184/155
f 117/180/156 116/179/156 120/185/156
f 118/181/157 117/180/157 120/186/157
f 119/177/158 118/181/158 120/187/158
g Scrap_Rivet2_-1.001_Mesh
v -0.677600 -0.882000 0.180000
v -0.626948 -0.843305 0.206286
v -0.696947 -0.843305 0.222532
v -0.740210 -0.843305 0.180000
v -0.696947 -0.843305 0.137468
v -0.626948 -0.843305 0.153714
v -0.658253 -0.780695 0.222532
v -0.728252 -0.780695 0.206286
v -0.728252 -0.780695 0.153714
v -0.658253 -0.780695 0.137468
v -0.614990 -0.780695 0.180000
v -0.677600 -0.742000 0.180000
vn 0.1633 -0.6917 0.7035
vn 0.6071 -0.7947 -0.0000
vn -0.4636 -0.7501 0.4716
vn -0.4636 -0.7501 -0.4716
vn 0.1633 -0.6917 -0.7035
vn 0.9822 -0.1876 -0.0000
vn 0.2239 -0.1384 0.9647
vn -0.6917 -0.1633 0.7035
vn -0.6917 -0.1633 -0.7035
vn 0.2239 -0.1384 -0.9647
vn 0.6917 0.1633 0.7035
vn -0.2239 0.1384 0.9647
vn -0.9822 0.1876 -0.0000
vn -0.2239 0.1384 -0.9647
vn 0.6917 0.1633 -0.7035
vn 0.4636 0.7501 0.4716
vn -0.1633 0.6917 0.7035
vn -0.6071 0.7947 -0.0000
vn -0.1633 0.6917 -0.7035
vn 0.4636 0.7501 -0.4716
vt 0.181819 0.000000
vt 0.272728 0.157461
vt 0.090910 0.157461
vt 0.363637 0.000000
vt 0.454546 0.157461
vt 0.909091 0.000000
vt 1.000000 0.157461
vt 0.818182 0.157461
vt 0.727273 0.000000
vt 0.636364 0.157461
vt 0.545455 0.000000
vt 0.363637 0.314921
vt 0.181819 0.314921
vt 0.909091 0.314921
vt 0.727273 0.314921
vt 0.545455 0.314921
vt 0.000000 0.314921
vt 0.272728 0.472382
vt 0.090910 0.472382
vt 0.818182 0.472382
vt 0.636364 0.472382
vt 0.454546 0.472382
s 0
g Scrap_Rivet2_-1.001_MAT_OldGold
usemtl MAT_OldGold
f 121/188/159 122/189/159 123/190/159
f 122/189/160 121/191/160 126/192/160
f 121/193/161 123/194/161 124/195/161
f 121/196/162 124/195/162 125/197/162
f 121/198/163 125/197/163 126/192/163
f 122/189/164 126/192/164 131/199/164
f 123/190/165 122/189/165 127/200/165
f 124/195/166 123/194/166 128/201/166
f 125/197/167 124/195/167 129/202/167
f 126/192/168 125/197/168 130/203/168
f 122/189/169 131/199/169 127/200/169
f 123/190/170 127/200/170 128/204/170
f 124/195/171 128/201/171 129/202/171
f 125/197/172 129/202/172 130/203/172
f 126/192/173 130/203/173 131/199/173
f 127/200/174 131/199/174 132/205/174
f 128/204/175 127/200/175 132/206/175
f 129/202/176 128/201/176 132/207/176
f 130/203/177 129/202/177 132/208/177
f 131/199/178 130/203/178 132/209/178
g Scrap_Rivet2_1.001_Mesh
v 0.437600 -0.378000 0.180000
v 0.488252 -0.339305 0.206286
v 0.418253 -0.339305 0.222532
v 0.374990 -0.339305 0.180000
v 0.418253 -0.339305 0.137468
v 0.488252 -0.339305 0.153714
v 0.456947 -0.276695 0.222532
v 0.386948 -0.276695 0.206286
v 0.386948 -0.276695 0.153714
v 0.456947 -0.276695 0.137468
v 0.500210 -0.276695 0.180000
v 0.437600 -0.238000 0.180000
vn 0.1633 -0.6917 0.7035
vn 0.6071 -0.7947 -0.0000
vn -0.4636 -0.7501 0.4716
vn -0.4636 -0.7501 -0.4716
vn 0.1633 -0.6917 -0.7035
vn 0.9822 -0.1876 -0.0000
vn 0.2239 -0.1384 0.9647
vn -0.6917 -0.1633 0.7035
vn -0.6917 -0.1633 -0.7035
vn 0.2239 -0.1384 -0.9647
vn 0.6917 0.1633 0.7035
vn -0.2239 0.1384 0.9647
vn -0.9822 0.1876 -0.0000
vn -0.2239 0.1384 -0.9647
vn 0.6917 0.1633 -0.7035
vn 0.4636 0.7501 0.4716
vn -0.1633 0.6917 0.7035
vn -0.6071 0.7947 -0.0000
vn -0.1633 0.6917 -0.7035
vn 0.4636 0.7501 -0.4716
vt 0.181819 0.000000
vt 0.272728 0.157461
vt 0.090910 0.157461
vt 0.363637 0.000000
vt 0.454546 0.157461
vt 0.909091 0.000000
vt 1.000000 0.157461
vt 0.818182 0.157461
vt 0.727273 0.000000
vt 0.636364 0.157461
vt 0.545455 0.000000
vt 0.363637 0.314921
vt 0.181819 0.314921
vt 0.909091 0.314921
vt 0.727273 0.314921
vt 0.545455 0.314921
vt 0.000000 0.314921
vt 0.272728 0.472382
vt 0.090910 0.472382
vt 0.818182 0.472382
vt 0.636364 0.472382
vt 0.454546 0.472382
s 0
g Scrap_Rivet2_1.001_MAT_OldGold
usemtl MAT_OldGold
f 133/210/179 134/211/179 135/212/179
f 134/211/180 133/213/180 138/214/180
f 133/215/181 135/216/181 136/217/181
f 133/218/182 136/217/182 137/219/182
f 133/220/183 137/219/183 138/214/183
f 134/211/184 138/214/184 143/221/184
f 135/212/185 134/211/185 139/222/185
f 136/217/186 135/216/186 140/223/186
f 137/219/187 136/217/187 141/224/187
f 138/214/188 137/219/188 142/225/188
f 134/211/189 143/221/189 139/222/189
f 135/212/190 139/222/190 140/226/190
f 136/217/191 140/223/191 141/224/191
f 137/219/192 141/224/192 142/225/192
f 138/214/193 142/225/193 143/221/193
f 139/222/194 143/221/194 144/227/194
f 140/226/195 139/222/195 144/228/195
f 141/224/196 140/223/196 144/229/196
f 142/225/197 141/224/197 144/230/197
f 143/221/198 142/225/198 144/231/198
g Scrap_Strap1.001_Mesh
v -0.950666 0.320000 0.610085
v -0.950110 0.323000 0.611797
v -0.980624 0.323000 0.619819
v -0.950110 0.517000 0.611797
v -0.950666 0.520000 0.610085
v -0.980624 0.517000 0.619819
v -0.986636 0.320000 0.499382
v -1.016594 0.323000 0.509116
v -0.987192 0.323000 0.497670
v -0.986636 0.520000 0.499382
v -0.987192 0.517000 0.497670
v -1.016594 0.517000 0.509116
v 0.986636 0.320000 -0.019382
v 1.016594 0.323000 -0.029116
v 0.987192 0.323000 -0.017670
v 0.986636 0.520000 -0.019382
v 0.987192 0.517000 -0.017670
v 1.016594 0.517000 -0.029116
v 0.950666 0.320000 -0.130085
v 0.950110 0.323000 -0.131797
v 0.980624 0.323000 -0.139819
v 0.950666 0.520000 -0.130085
v 0.980624 0.517000 -0.139819
v 0.950110 0.517000 -0.131797
vn 0.2181 -0.5139 0.8297
vn 0.2181 0.5139 0.8297
vn -0.3112 -0.5139 -0.7994
vn -0.3112 0.5139 -0.7994
vn 0.3112 -0.5139 0.7994
vn 0.3112 0.5139 0.7994
vn -0.2181 -0.5139 -0.8297
vn -0.2181 0.5139 -0.8297
vn -0.0902 -0.9955 0.0293
vn 0.2543 -0.0000 0.9671
vn -0.0902 0.9955 0.0293
vn -0.3628 -0.0000 -0.9319
vn -0.2650 -0.5145 -0.8155
vn -0.2650 0.5145 -0.8155
vn -0.2543 -0.0000 -0.9671
vn 0.0902 -0.9955 -0.0293
vn 0.0902 0.9955 -0.0293
vn 0.3628 -0.0000 0.9319
vn 0.2650 -0.5145 0.8155
vn 0.2650 0.5145 0.8155
vn -0.0000 -1.0000 -0.0000
vn -0.9511 -0.0000 0.3090
vn 0.3090 -0.0000 0.9511
vn -0.0000 1.0000 -0.0000
vn -0.3090 -0.0000 -0.9511
vn 0.9511 -0.0000 -0.3090
vt 0.128750 0.746250
vt 0.128750 0.750000
vt 0.125000 0.746250
vt 0.621250 0.000000
vt 0.625000 0.003750
vt 0.621250 0.003750
vt 0.128750 0.503750
vt 0.125000 0.503750
vt 0.128750 0.500000
vt 0.625000 0.248750
vt 0.621250 0.252812
vt 0.621250 0.246250
vt 0.371250 0.746250
vt 0.377812 0.746250
vt 0.375000 0.751875
vt 0.626875 0.750000
vt 0.621250 0.753750
vt 0.621250 0.747187
vt 0.371250 0.503750
vt 0.375000 0.498125
vt 0.377812 0.503750
vt 0.626875 0.500000
vt 0.621250 0.502813
vt 0.621250 0.496250
vt 0.378750 0.003750
vt 0.378750 0.000000
vt 0.378750 0.253750
vt 0.625000 0.996250
vt 0.378750 0.246250
vt 0.378750 0.996250
vt 0.871250 0.503750
vt 0.621250 0.996250
vt 0.871250 0.746250
s 0
g Scrap_Strap1.001_MAT_Leather
usemtl MAT_Leather
f 145/232/199 146/233/199 147/234/199
f 148/235/200 149/236/200 150/237/200
f 151/238/201 152/239/201 153/240/201
f 154/241/202 155/242/202 156/243/202
f 157/244/203 158/245/203 159/246/203
f 160/247/204 161/248/204 162/249/204
f 163/250/205 164/251/205 165/252/205
f 166/253/206 167/254/206 168/255/206
f 145/232/207 152/239/207 151/238/207
f 148/235/208 147/256/208 146/257/208
f 154/241/209 150/237/209 149/236/209
f 153/258/210 156/243/210 155/242/210
f 151/238/211 164/251/211 163/250/211
f 166/253/212 155/242/212 154/241/212
f 165/252/213 168/255/213 167/254/213
f 163/250/214 158/245/214 157/244/214
f 160/247/215 167/254/215 166/253/215
f 159/246/216 162/249/216 161/248/216
f 157/244/217 146/233/217 145/232/217
f 149/259/218 161/248/218 160/247/218
f 163/250/219 145/232/219 151/238/219
f 150/237/220 152/260/220 147/256/220
f 161/248/221 146/261/221 159/246/221
f 154/262/222 160/247/222 166/253/222
f 155/242/223 164/251/223 153/258/223
f 167/254/224 158/245/224 165/252/224
f 145/232/207 147/234/207 152/239/207
f 148/235/208 150/237/208 147/256/208
f 154/241/209 156/243/209 150/237/209
f 153/258/210 152/260/210 156/243/210
f 151/238/211 153/240/211 164/251/211
f 166/253/212 168/255/212 155/242/212
f 165/252/213 164/251/213 168/255/213
f 163/250/214 165/252/214 158/245/214
f 160/247/215 162/249/215 167/254/215
f 159/246/216 158/245/216 162/249/216
f 157/244/217 159/246/217 146/233/217
f 149/259/218 148/263/218 161/248/218
f 163/250/219 157/244/219 145/232/219
f 150/237/220 156/243/220 152/260/220
f 161/248/221 148/263/221 146/261/221
f 154/262/222 149/264/222 160/247/222
f 155/242/223 168/255/223 164/251/223
f 167/254/224 162/249/224 158/245/224
g Scrap_Strap2.001_Mesh
v -1.002326 -0.360000 0.050074
v -1.002761 -0.357000 0.051820
v -1.032890 -0.357000 0.042453
v -1.002761 -0.163000 0.051820
v -1.002326 -0.160000 0.050074
v -1.032890 -0.163000 0.042453
v -0.974166 -0.360000 -0.062869
v -1.004731 -0.357000 -0.070489
v -0.973731 -0.357000 -0.064615
v -0.974166 -0.160000 -0.062869
v -0.973731 -0.163000 -0.064615
v -1.004731 -0.163000 -0.070489
v 0.974166 -0.360000 0.542869
v 1.004731 -0.357000 0.550489
v 0.973731 -0.357000 0.544615
v 0.974166 -0.160000 0.542869
v 0.973731 -0.163000 0.544615
v 1.004731 -0.163000 0.550489
v 1.002326 -0.360000 0.429926
v 1.002761 -0.357000 0.428180
v 1.032890 -0.357000 0.437547
v 1.002326 -0.160000 0.429926
v 1.032890 -0.163000 0.437547
v 1.002761 -0.163000 0.428180
vn -0.2547 -0.5139 0.8192
vn -0.2547 0.5139 0.8192
vn 0.1597 -0.5139 -0.8429
vn 0.1597 0.5139 -0.8429
vn -0.1597 -0.5139 0.8429
vn -0.1597 0.5139 0.8429
vn 0.2547 -0.5139 -0.8192
vn 0.2547 0.5139 -0.8192
vn -0.0920 -0.9955 -0.0229
vn -0.2969 -0.0000 0.9549
vn -0.0920 0.9955 -0.0229
vn 0.1862 -0.0000 -0.9825
vn 0.2074 -0.5145 -0.8320
vn 0.2074 0.5145 -0.8320
vn 0.2969 -0.0000 -0.9549
vn 0.0920 -0.9955 0.0229
vn 0.0920 0.9955 0.0229
vn -0.1862 -0.0000 0.9825
vn -0.2074 -0.5145 0.8320
vn -0.2074 0.5145 0.8320
vn -0.0000 -1.0000 -0.0000
vn -0.9703 -0.0000 -0.2419
vn -0.2419 -0.0000 0.9703
vn -0.0000 1.0000 -0.0000
vn 0.2419 -0.0000 -0.9703
vn 0.9703 -0.0000 0.2419
vt 0.128750 0.746250
vt 0.128750 0.750000
vt 0.125000 0.746250
vt 0.621250 0.000000
vt 0.625000 0.003750
vt 0.621250 0.003750
vt 0.128750 0.503750
vt 0.125000 0.503750
vt 0.128750 0.500000
vt 0.625000 0.248750
vt 0.621250 0.252812
vt 0.621250 0.246250
vt 0.371250 0.746250
vt 0.377812 0.746250
vt 0.375000 0.751875
vt 0.626875 0.750000
vt 0.621250 0.753750
vt 0.621250 0.747187
vt 0.371250 0.503750
vt 0.375000 0.498125
vt 0.377812 0.503750
vt 0.626875 0.500000
vt 0.621250 0.502813
vt 0.621250 0.496250
vt 0.378750 0.003750
vt 0.378750 0.000000
vt 0.378750 0.253750
vt 0.625000 0.996250
vt 0.378750 0.246250
vt 0.378750 0.996250
vt 0.871250 0.503750
vt 0.621250 0.996250
vt 0.871250 0.746250
s 0
g Scrap_Strap2.001_MAT_Leather
usemtl MAT_Leather
f 169/265/225 170/266/225 171/267/225
f 172/268/226 173/269/226 174/270/226
f 175/271/227 176/272/227 177/273/227
f 178/274/228 179/275/228 180/276/228
f 181/277/229 182/278/229 183/279/229
f 184/280/230 185/281/230 186/282/230
f 187/283/231 188/284/231 189/285/231
f 190/286/232 191/287/232 192/288/232
f 169/265/233 176/272/233 175/271/233
f 172/268/234 171/289/234 170/290/234
f 178/274/235 174/270/235 173/269/235
f 177/291/236 180/276/236 179/275/236
f 175/271/237 188/284/237 187/283/237
f 190/286/238 179/275/238 178/274/238
f 189/285/239 192/288/239 191/287/239
f 187/283/240 182/278/240 181/277/240
f 184/280/241 191/287/241 190/286/241
f 183/279/242 186/282/242 185/281/242
f 181/277/243 170/266/243 169/265/243
f 173/292/244 185/281/244 184/280/244
f 187/283/245 169/265/245 175/271/245
f 174/270/246 176/293/246 171/289/246
f 185/281/247 170/294/247 183/279/247
f 178/295/248 184/280/248 190/286/248
f 179/275/249 188/284/249 177/291/249
f 191/287/250 182/278/250 189/285/250
f 169/265/233 171/267/233 176/272/233
f 172/268/234 174/270/234 171/289/234
f 178/274/235 180/276/235 174/270/235
f 177/291/236 176/293/236 180/276/236
f 175/271/237 177/273/237 188/284/237
f 190/286/238 192/288/238 179/275/238
f 189/285/239 188/284/239 192/288/239
f 187/283/240 189/285/240 182/278/240
f 184/280/241 186/282/241 191/287/241
f 183/279/242 182/278/242 186/282/242
f 181/277/243 183/279/243 170/266/243
f 173/292/244 172/296/244 185/281/244
f 187/283/245 181/277/245 169/265/245
f 174/270/246 180/276/246 176/293/246
f 185/281/247 172/296/247 170/294/247
f 178/295/248 173/297/248 184/280/248
f 179/275/249 192/288/249 188/284/249
f 191/287/250 186/282/250 182/278/250
