# Blender 5.0.1
# www.blender.org
mtllib silver_blade.mtl
g SilverBlade_Blade.001_Mesh
v -0.195000 -0.450000 0.045000
v -0.219136 -0.425015 0.045000
v -0.194121 -0.425000 0.070000
v 0.195000 -0.450000 0.045000
v 0.207332 -0.425000 0.070000
v 0.219136 -0.425015 0.045000
v 0.114405 2.278249 0.070000
v 0.123200 2.350000 0.045000
v 0.008301 2.676418 0.045000
v -0.005621 2.619515 0.070000
v -0.008301 2.676418 0.045000
v -0.123200 2.350000 0.045000
v -0.097950 2.356802 0.070000
v -0.195000 -0.450000 -0.045000
v -0.194121 -0.425000 -0.070000
v -0.219136 -0.425015 -0.045000
v 0.195000 -0.450000 -0.045000
v 0.219136 -0.425015 -0.045000
v 0.207332 -0.425000 -0.070000
v 0.123200 2.350000 -0.045000
v 0.114405 2.278249 -0.070000
v 0.008301 2.676418 -0.045000
v -0.008301 2.676418 -0.045000
v -0.005621 2.619515 -0.070000
v -0.097950 2.356802 -0.070000
v -0.123200 2.350000 -0.045000
vn 0.5836 0.5638 -0.5843
vn -0.6809 0.6578 -0.3219
vn -0.0000 -0.4022 -0.9155
vn 0.5836 0.5638 0.5843
vn -0.6809 0.6578 0.3219
vn -0.0000 -0.4022 0.9155
vn -0.0000 0.7071 -0.7071
vn -0.9038 -0.0311 -0.4267
vn -0.0000 0.7071 0.7071
vn -0.9038 -0.0311 0.4267
vn -0.5796 -0.2039 -0.7890
vn -0.5796 -0.2039 0.7890
vn 0.7067 -0.0244 -0.7071
vn 0.7163 -0.2521 -0.6507
vn 0.7067 -0.0244 0.7071
vn 0.7163 -0.2521 0.6507
vn 0.7192 0.6948 -0.0000
vn -0.7192 0.6948 -0.0000
vn -0.0000 -1.0000 -0.0000
vn -0.0000 1.0000 -0.0000
vn -0.0000 -0.0000 -1.0000
vn 0.9994 -0.0346 -0.0000
vn -0.9994 -0.0346 -0.0000
vn -0.9433 -0.3320 -0.0000
vn 0.9433 -0.3320 -0.0000
vn -0.0000 -0.0000 1.0000
vn -0.9111 -0.0315 -0.4109
vn -0.9111 -0.0315 0.4109
vn -0.5804 -0.2043 -0.7883
vn -0.5804 -0.2043 0.7883
vn 0.7144 -0.2511 -0.6532
vn 0.7144 -0.2511 0.6532
s 0
g SilverBlade_Blade.001_MAT_SilverSteel
usemtl MAT_SilverSteel
f 1//1 2//1 3//1
f 4//2 5//2 6//2
f 9//3 10//3 11//3
f 14//4 15//4 16//4
f 17//5 18//5 19//5
f 22//6 23//6 24//6
f 3//7 4//7 1//7
f 7//8 6//8 5//8
f 17//9 15//9 14//9
f 18//10 21//10 19//10
f 10//11 8//11 7//11
f 20//12 24//12 21//12
f 12//13 3//13 2//13
f 10//14 12//14 11//14
f 15//15 26//15 16//15
f 26//16 24//16 23//16
f 14//17 2//17 1//17
f 18//18 4//18 6//18
f 23//19 9//19 11//19
f 4//20 14//20 1//20
f 3//21 7//21 5//21
f 3//21 10//21 7//21
f 3//21 13//21 10//21
f 2//22 26//22 12//22
f 8//23 18//23 6//23
f 9//24 20//24 8//24
f 12//25 23//25 11//25
f 15//26 21//26 24//26
f 15//26 19//26 21//26
f 15//26 24//26 25//26
f 3//7 5//7 4//7
f 7//27 8//27 6//27
f 17//9 19//9 15//9
f 18//28 20//28 21//28
f 10//29 9//29 8//29
f 20//30 22//30 24//30
f 12//13 13//13 3//13
f 10//31 13//31 12//31
f 15//15 25//15 26//15
f 26//32 25//32 24//32
f 14//17 16//17 2//17
f 18//18 17//18 4//18
f 23//19 22//19 9//19
f 4//20 17//20 14//20
f 2//22 16//22 26//22
f 8//23 20//23 18//23
f 9//24 22//24 20//24
f 12//25 26//25 23//25
g SilverBlade_Fuller.001_Mesh
v -0.035000 -0.330000 0.087500
v -0.044935 -0.320000 0.087500
v -0.034935 -0.320000 0.097500
v 0.035000 -0.330000 0.087500
v 0.034935 -0.320000 0.097500
v 0.044935 -0.320000 0.087500
v 0.028065 2.270000 0.087500
v 0.018065 2.270000 0.097500
v 0.018000 2.280000 0.087500
v -0.028065 2.270000 0.087500
v -0.018000 2.280000 0.087500
v -0.018065 2.270000 0.097500
v -0.035000 -0.330000 -0.067500
v -0.034935 -0.320000 -0.077500
v -0.044935 -0.320000 -0.067500
v 0.035000 -0.330000 -0.067500
v 0.044935 -0.320000 -0.067500
v 0.034935 -0.320000 -0.077500
v 0.028065 2.270000 -0.067500
v 0.018000 2.280000 -0.067500
v 0.018065 2.270000 -0.077500
v -0.028065 2.270000 -0.067500
v -0.018065 2.270000 -0.077500
v -0.018000 2.280000 -0.067500
vn 0.5786 0.5748 -0.5786
vn -0.5786 0.5748 -0.5786
vn -0.5761 -0.5798 -0.5761
vn 0.5761 -0.5798 -0.5761
vn 0.5786 0.5748 0.5786
vn -0.5786 0.5748 0.5786
vn -0.5761 -0.5798 0.5761
vn 0.5761 -0.5798 0.5761
vn -0.0000 0.7071 -0.7071
vn -0.7071 -0.0046 -0.7071
vn -0.0000 0.7071 0.7071
vn -0.7071 -0.0046 0.7071
vn 0.7071 -0.0046 -0.7071
vn -0.0000 -0.7071 -0.7071
vn 0.7071 -0.0046 0.7071
vn -0.0000 -0.7071 0.7071
vn 0.7094 0.7048 -0.0000
vn -0.7094 0.7048 -0.0000
vn -0.7048 -0.7094 -0.0000
vn 0.7048 -0.7094 -0.0000
vn -0.0000 1.0000 -0.0000
vn -0.0000 -0.0000 -1.0000
vn 1.0000 -0.0065 -0.0000
vn -1.0000 -0.0065 -0.0000
vn -0.0000 -1.0000 -0.0000
vn -0.0000 -0.0000 1.0000
s 0
g SilverBlade_Fuller.001_MAT_OldGold
usemtl MAT_OldGold
f 27//33 28//33 29//33
f 30//34 31//34 32//34
f 33//35 34//35 35//35
f 36//36 37//36 38//36
f 39//37 40//37 41//37
f 42//38 43//38 44//38
f 45//39 46//39 47//39
f 48//40 49//40 50//40
f 31//41 27//41 29//41
f 31//42 33//42 32//42
f 42//43 40//43 39//43
f 45//44 44//44 43//44
f 36//45 29//45 28//45
f 38//46 35//46 34//46
f 40//47 48//47 41//47
f 50//48 47//48 46//48
f 39//49 28//49 27//49
f 43//50 30//50 32//50
f 46//51 33//51 35//51
f 48//52 37//52 36//52
f 30//53 39//53 27//53
f 29//54 34//54 31//54
f 29//54 38//54 34//54
f 28//55 48//55 36//55
f 33//56 43//56 32//56
f 37//57 46//57 35//57
f 40//58 47//58 49//58
f 40//58 44//58 47//58
f 31//41 30//41 27//41
f 31//42 34//42 33//42
f 42//43 44//43 40//43
f 45//44 47//44 44//44
f 36//45 38//45 29//45
f 38//46 37//46 35//46
f 40//47 49//47 48//47
f 50//48 49//48 47//48
f 39//49 41//49 28//49
f 43//50 42//50 30//50
f 46//51 45//51 33//51
f 48//52 50//52 37//52
f 30//53 42//53 39//53
f 28//55 41//55 48//55
f 33//56 45//56 43//56
f 37//57 50//57 46//57
g SilverBlade_Gem.001_Mesh
v 0.000000 -0.590000 0.150000
v 0.115776 -0.501555 0.197315
v -0.044222 -0.501555 0.226558
v -0.143108 -0.501555 0.150000
v -0.044222 -0.501555 0.073442
v 0.115776 -0.501555 0.102685
v 0.044222 -0.358446 0.226558
v -0.115776 -0.358446 0.197315
v -0.115776 -0.358446 0.102685
v 0.044222 -0.358446 0.073442
v 0.143108 -0.358446 0.150000
v 0.000000 -0.270000 0.150000
vn 0.1430 -0.6059 0.7826
vn 0.6071 -0.7947 -0.0000
vn -0.4349 -0.7037 0.5618
vn -0.4349 -0.7037 -0.5618
vn 0.1430 -0.6059 -0.7826
vn 0.9822 -0.1876 -0.0000
vn 0.1787 -0.1104 0.9777
vn -0.6059 -0.1430 0.7826
vn -0.6059 -0.1430 -0.7826
vn 0.1787 -0.1104 -0.9777
vn 0.6059 0.1430 0.7826
vn -0.1787 0.1104 0.9777
vn -0.9822 0.1876 -0.0000
vn -0.1787 0.1104 -0.9777
vn 0.6059 0.1430 -0.7826
vn 0.4349 0.7037 0.5618
vn -0.1430 0.6059 0.7826
vn -0.6071 0.7947 -0.0000
vn -0.1430 0.6059 -0.7826
vn 0.4349 0.7037 -0.5618
vt 0.181819 0.000000
vt 0.272728 0.157461
vt 0.090910 0.157461
vt 0.363637 0.000000
vt 0.454546 0.157461
vt 0.909091 0.000000
vt 1.000000 0.157461
vt 0.818182 0.157461
vt 0.727273 0.000000
vt 0.636364 0.157461
vt 0.545455 0.000000
vt 0.363637 0.314921
vt 0.181819 0.314921
vt 0.909091 0.314921
vt 0.727273 0.314921
vt 0.545455 0.314921
vt 0.000000 0.314921
vt 0.272728 0.472382
vt 0.090910 0.472382
vt 0.818182 0.472382
vt 0.636364 0.472382
vt 0.454546 0.472382
s 0
g SilverBlade_Gem.001_MAT_Ruby
usemtl MAT_Ruby
f 51/1/59 52/2/59 53/3/59
f 52/2/60 51/4/60 56/5/60
f 51/6/61 53/7/61 54/8/61
f 51/9/62 54/8/62 55/10/62
f 51/11/63 55/10/63 56/5/63
f 52/2/64 56/5/64 61/12/64
f 53/3/65 52/2/65 57/13/65
f 54/8/66 53/7/66 58/14/66
f 55/10/67 54/8/67 59/15/67
f 56/5/68 55/10/68 60/16/68
f 52/2/69 61/12/69 57/13/69
f 53/3/70 57/13/70 58/17/70
f 54/8/71 58/14/71 59/15/71
f 55/10/72 59/15/72 60/16/72
f 56/5/73 60/16/73 61/12/73
f 57/13/74 61/12/74 62/18/74
f 58/17/75 57/13/75 62/19/75
f 59/15/76 58/14/76 62/20/76
f 60/16/77 59/15/77 62/21/77
f 61/12/78 60/16/78 62/22/78
g SilverBlade_Grip.001_Mesh
v 0.000000 -1.505000 -0.132940
v -0.023097 -1.480000 -0.150433
v 0.023097 -1.480000 -0.150433
v 0.000000 -0.555000 -0.132940
v 0.023097 -0.580000 -0.150433
v -0.023097 -0.580000 -0.150433
v 0.094003 -1.505000 -0.094003
v 0.090040 -1.480000 -0.122704
v 0.122704 -1.480000 -0.090040
v 0.094003 -0.555000 -0.094003
v 0.122704 -0.580000 -0.090040
v 0.090040 -0.580000 -0.122704
v 0.132940 -1.505000 0.000000
v 0.150433 -1.480000 -0.023097
v 0.150433 -1.480000 0.023097
v 0.132940 -0.555000 0.000000
v 0.150433 -0.580000 0.023097
v 0.150433 -0.580000 -0.023097
v 0.094003 -1.505000 0.094003
v 0.122704 -1.480000 0.090040
v 0.090040 -1.480000 0.122704
v 0.094003 -0.555000 0.094003
v 0.090040 -0.580000 0.122704
v 0.122704 -0.580000 0.090040
v 0.000000 -1.505000 0.132940
v 0.023097 -1.480000 0.150433
v -0.023097 -1.480000 0.150433
v 0.000000 -0.555000 0.132940
v -0.023097 -0.580000 0.150433
v 0.023097 -0.580000 0.150433
v -0.094003 -1.505000 0.094003
v -0.090040 -1.480000 0.122704
v -0.122704 -1.480000 0.090040
v -0.094003 -0.555000 0.094003
v -0.122704 -0.580000 0.090040
v -0.090040 -0.580000 0.122704
v -0.132940 -1.505000 0.000000
v -0.150433 -1.480000 0.023097
v -0.150433 -1.480000 -0.023097
v -0.132940 -0.555000 0.000000
v -0.150433 -0.580000 -0.023097
v -0.150433 -0.580000 0.023097
v -0.094003 -1.505000 -0.094003
v -0.122704 -1.480000 -0.090040
v -0.090040 -1.480000 -0.122704
v -0.094003 -0.555000 -0.094003
v -0.090040 -0.580000 -0.122704
v -0.122704 -0.580000 -0.090040
vn -0.0000 -0.5733 -0.8193
vn -0.0000 0.5733 -0.8193
vn 0.5794 -0.5733 -0.5794
vn 0.5794 0.5733 -0.5794
vn 0.8193 -0.5733 -0.0000
vn 0.8193 0.5733 -0.0000
vn 0.5794 -0.5733 0.5794
vn 0.5794 0.5733 0.5794
vn -0.0000 -0.5733 0.8193
vn -0.0000 0.5733 0.8193
vn -0.5794 -0.5733 0.5794
vn -0.5794 0.5733 0.5794
vn -0.8193 -0.5733 -0.0000
vn -0.8193 0.5733 -0.0000
vn -0.5794 -0.5733 -0.5794
vn -0.5794 0.5733 -0.5794
vn 0.2706 -0.7071 -0.6533
vn 0.2706 0.7071 -0.6533
vn -0.0000 -0.0000 -1.0000
vn 0.7071 -0.0000 -0.7071
vn 0.6533 -0.7071 -0.2706
vn 0.6533 0.7071 -0.2706
vn 1.0000 -0.0000 -0.0000
vn 0.6533 -0.7071 0.2706
vn 0.6533 0.7071 0.2706
vn 0.7071 -0.0000 0.7071
vn 0.2706 -0.7071 0.6533
vn 0.2706 0.7071 0.6533
vn -0.0000 -0.0000 1.0000
vn -0.2706 -0.7071 0.6533
vn -0.2706 0.7071 0.6533
vn -0.7071 -0.0000 0.7071
vn -0.6533 -0.7071 0.2706
vn -0.6533 0.7071 0.2706
vn -1.0000 -0.0000 -0.0000
vn -0.6533 -0.7071 -0.2706
vn -0.6533 0.7071 -0.2706
vn -0.7071 -0.0000 -0.7071
vn -0.2706 -0.7071 -0.6533
vn -0.2706 0.7071 -0.6533
vn -0.0000 -1.0000 -0.0000
vn 0.3827 -0.0000 -0.9239
vn -0.3827 -0.0000 -0.9239
vn -0.0000 1.0000 -0.0000
vn 0.9239 -0.0000 -0.3827
vn 0.9239 -0.0000 0.3827
vn 0.3827 -0.0000 0.9239
vn -0.3827 -0.0000 0.9239
vn -0.9239 -0.0000 0.3827
vn -0.9239 -0.0000 -0.3827
vt 0.750000 0.449410
vt 0.715355 0.475649
vt 0.784645 0.475649
vt 0.250000 0.449410
vt 0.284645 0.475649
vt 0.215355 0.475649
vt 0.891004 0.391004
vt 0.885060 0.434056
vt 0.934056 0.385060
vt 0.391004 0.391004
vt 0.434056 0.385060
vt 0.385060 0.434056
vt 0.949410 0.250000
vt 0.975649 0.284645
vt 0.975649 0.215355
vt 0.449410 0.250000
vt 0.475649 0.215355
vt 0.475649 0.284645
vt 0.891004 0.108996
vt 0.934056 0.114940
vt 0.885060 0.065944
vt 0.391004 0.108996
vt 0.385060 0.065944
vt 0.434056 0.114940
vt 0.750000 0.050590
vt 0.784645 0.024351
vt 0.715355 0.024351
vt 0.250000 0.050590
vt 0.215355 0.024351
vt 0.284645 0.024351
vt 0.608996 0.108996
vt 0.614940 0.065944
vt 0.565944 0.114940
vt 0.108996 0.108996
vt 0.065944 0.114940
vt 0.114940 0.065944
vt 0.550590 0.250000
vt 0.524351 0.215355
vt 0.524351 0.284645
vt 0.050590 0.250000
vt 0.024351 0.284645
vt 0.024351 0.215355
vt 0.608996 0.391004
vt 0.565944 0.385060
vt 0.614940 0.434056
vt 0.108996 0.391004
vt 0.114940 0.434056
vt 0.065944 0.385060
vt 0.025519 0.986842
vt 0.000000 0.513158
vt 0.025519 0.513158
vt 0.849481 0.513158
vt 0.900519 0.986842
vt 0.849481 0.986842
vt 0.724481 0.513158
vt 0.775519 0.986842
vt 0.724481 0.986842
vt 0.599481 0.513158
vt 0.650519 0.986842
vt 0.599481 0.986842
vt 0.474481 0.513158
vt 0.525519 0.986842
vt 0.474481 0.986842
vt 0.349481 0.513158
vt 0.400519 0.986842
vt 0.349481 0.986842
vt 0.224481 0.513158
vt 0.275519 0.986842
vt 0.224481 0.986842
vt 0.099481 0.513158
vt 0.150519 0.986842
vt 0.099481 0.986842
vt 0.974481 0.986842
vt 0.900519 0.513158
vt 0.974481 0.513158
vt 0.775519 0.513158
vt 0.650519 0.513158
vt 0.525519 0.513158
vt 0.400519 0.513158
vt 0.275519 0.513158
vt 0.150519 0.513158
vt 0.000000 0.986842
s 0
g SilverBlade_Grip.001_MAT_Leather
usemtl MAT_Leather
f 63/23/79 64/24/79 65/25/79
f 66/26/80 67/27/80 68/28/80
f 69/29/81 70/30/81 71/31/81
f 72/32/82 73/33/82 74/34/82
f 75/35/83 76/36/83 77/37/83
f 78/38/84 79/39/84 80/40/84
f 81/41/85 82/42/85 83/43/85
f 84/44/86 85/45/86 86/46/86
f 87/47/87 88/48/87 89/49/87
f 90/50/88 91/51/88 92/52/88
f 93/53/89 94/54/89 95/55/89
f 96/56/90 97/57/90 98/58/90
f 99/59/91 100/60/91 101/61/91
f 102/62/92 103/63/92 104/64/92
f 105/65/93 106/66/93 107/67/93
f 108/68/94 109/69/94 110/70/94
f 70/30/95 63/23/95 65/25/95
f 74/34/96 66/26/96 72/32/96
f 68/71/97 65/72/97 64/73/97
f 71/74/98 74/75/98 73/76/98
f 71/31/99 75/35/99 69/29/99
f 73/33/100 78/38/100 80/40/100
f 77/77/101 80/78/101 79/79/101
f 82/42/102 75/35/102 77/37/102
f 86/46/103 78/38/103 84/44/103
f 83/80/104 86/81/104 85/82/104
f 83/43/105 87/47/105 81/41/105
f 85/45/106 90/50/106 92/52/106
f 89/83/107 92/84/107 91/85/107
f 94/54/108 87/47/108 89/49/108
f 98/58/109 90/50/109 96/56/109
f 95/86/110 98/87/110 97/88/110
f 95/55/111 99/59/111 93/53/111
f 97/57/112 102/62/112 104/64/112
f 101/89/113 104/90/113 103/91/113
f 106/66/114 99/59/114 101/61/114
f 110/70/115 102/62/115 108/68/115
f 107/92/116 110/93/116 109/94/116
f 107/67/117 63/23/117 105/65/117
f 109/69/118 66/26/118 68/28/118
f 81/41/119 93/53/119 105/65/119
f 67/95/120 70/96/120 65/97/120
f 109/94/121 64/73/121 107/92/121
f 102/62/122 90/50/122 78/38/122
f 73/76/123 76/98/123 71/74/123
f 79/79/124 82/99/124 77/77/124
f 85/82/125 88/100/125 83/80/125
f 91/85/126 94/101/126 89/83/126
f 97/88/127 100/102/127 95/86/127
f 103/91/128 106/103/128 101/89/128
f 70/30/95 69/29/95 63/23/95
f 74/34/96 67/27/96 66/26/96
f 68/71/97 67/104/97 65/72/97
f 71/74/98 70/96/98 74/75/98
f 71/31/99 76/36/99 75/35/99
f 73/33/100 72/32/100 78/38/100
f 77/77/101 76/98/101 80/78/101
f 82/42/102 81/41/102 75/35/102
f 86/46/103 79/39/103 78/38/103
f 83/80/104 82/99/104 86/81/104
f 83/43/105 88/48/105 87/47/105
f 85/45/106 84/44/106 90/50/106
f 89/83/107 88/100/107 92/84/107
f 94/54/108 93/53/108 87/47/108
f 98/58/109 91/51/109 90/50/109
f 95/86/110 94/101/110 98/87/110
f 95/55/111 100/60/111 99/59/111
f 97/57/112 96/56/112 102/62/112
f 101/89/113 100/102/113 104/90/113
f 106/66/114 105/65/114 99/59/114
f 110/70/115 103/63/115 102/62/115
f 107/92/116 106/103/116 110/93/116
f 107/67/117 64/24/117 63/23/117
f 109/69/118 108/68/118 66/26/118
f 105/65/119 63/23/119 69/29/119
f 69/29/119 75/35/119 81/41/119
f 81/41/119 87/47/119 93/53/119
f 93/53/119 99/59/119 105/65/119
f 105/65/119 69/29/119 81/41/119
f 67/95/120 74/75/120 70/96/120
f 109/94/121 68/71/121 64/73/121
f 78/38/122 72/32/122 66/26/122
f 66/26/122 108/68/122 102/62/122
f 102/62/122 96/56/122 90/50/122
f 90/50/122 84/44/122 78/38/122
f 78/38/122 66/26/122 102/62/122
f 73/76/123 80/78/123 76/98/123
f 79/79/124 86/81/124 82/99/124
f 85/82/125 92/84/125 88/100/125
f 91/85/126 98/87/126 94/101/126
f 97/88/127 104/90/127 100/102/127
f 103/91/128 110/93/128 106/103/128
g SilverBlade_GripBand0.001_Mesh
v 0.195000 -0.730000 0.000000
v 0.170000 -0.705000 0.000000
v 0.145000 -0.730000 0.000000
v 0.170000 -0.755000 0.000000
v 0.137886 -0.730000 -0.137886
v 0.120208 -0.705000 -0.120208
v 0.102530 -0.730000 -0.102530
v 0.120208 -0.755000 -0.120208
v 0.000000 -0.730000 -0.195000
v 0.000000 -0.705000 -0.170000
v 0.000000 -0.730000 -0.145000
v 0.000000 -0.755000 -0.170000
v -0.137886 -0.730000 -0.137886
v -0.120208 -0.705000 -0.120208
v -0.102531 -0.730000 -0.102530
v -0.120208 -0.755000 -0.120208
v -0.195000 -0.730000 -0.000000
v -0.170000 -0.705000 -0.000000
v -0.145000 -0.730000 -0.000000
v -0.170000 -0.755000 -0.000000
v -0.137886 -0.730000 0.137886
v -0.120208 -0.705000 0.120208
v -0.102531 -0.730000 0.102530
v -0.120208 -0.755000 0.120208
v 0.000000 -0.730000 0.195000
v 0.000000 -0.705000 0.170000
v 0.000000 -0.730000 0.145000
v 0.000000 -0.755000 0.170000
v 0.137886 -0.730000 0.137886
v 0.120208 -0.705000 0.120208
v 0.102530 -0.730000 0.102531
v 0.120208 -0.755000 0.120208
vn 0.6786 0.6786 -0.2811
vn -0.6786 0.6786 0.2811
vn -0.6786 -0.6786 0.2811
vn 0.6786 -0.6786 -0.2811
vn 0.2811 0.6786 -0.6786
vn -0.2811 0.6786 0.6786
vn -0.2811 -0.6786 0.6786
vn 0.2811 -0.6786 -0.6786
vn -0.2811 0.6786 -0.6786
vn 0.2811 0.6786 0.6786
vn 0.2811 -0.6786 0.6786
vn -0.2811 -0.6786 -0.6786
vn -0.6786 0.6786 -0.2811
vn 0.6786 0.6786 0.2811
vn 0.6786 -0.6786 0.2811
vn -0.6786 -0.6786 -0.2811
vt 0.625000 0.500000
vt 0.500000 0.750000
vt 0.500000 0.500000
vt 0.625000 0.750000
vt 0.500000 1.000000
vt 0.625000 0.000000
vt 0.500000 0.250000
vt 0.500000 0.000000
vt 0.625000 0.250000
vt 0.750000 0.750000
vt 0.625000 1.000000
vt 0.750000 0.000000
vt 0.750000 0.250000
vt 0.875000 0.500000
vt 0.750000 0.500000
vt 0.875000 1.000000
vt 0.750000 1.000000
vt 0.875000 0.000000
vt 0.875000 0.250000
vt 1.000000 0.500000
vt 0.875000 0.750000
vt 1.000000 0.750000
vt 1.000000 0.000000
vt 1.000000 0.250000
vt 0.125000 0.500000
vt 0.000000 0.750000
vt 0.000000 0.500000
vt 0.125000 0.750000
vt 0.000000 1.000000
vt 0.125000 0.000000
vt 0.000000 0.250000
vt 0.000000 0.000000
vt 0.125000 0.250000
vt 0.250000 0.500000
vt 0.250000 0.750000
vt 0.125000 1.000000
vt 0.250000 0.000000
vt 0.250000 0.250000
vt 0.375000 0.500000
vt 0.375000 0.750000
vt 0.250000 1.000000
vt 0.375000 0.000000
vt 0.375000 0.250000
vt 0.375000 1.000000
vt 1.000000 1.000000
s 0
g SilverBlade_GripBand0.001_MAT_OldGold
usemtl MAT_OldGold
f 115/105/129 112/106/129 111/107/129
f 116/108/130 113/109/130 112/106/130
f 117/110/131 114/111/131 113/112/131
f 118/113/132 111/107/132 114/111/132
f 115/105/133 120/114/133 116/108/133
f 120/114/134 117/115/134 116/108/134
f 121/116/135 118/113/135 117/110/135
f 122/117/136 115/105/136 118/113/136
f 123/118/137 120/114/137 119/119/137
f 120/114/138 125/120/138 121/121/138
f 125/122/139 122/117/139 121/116/139
f 126/123/140 119/119/140 122/117/140
f 127/124/141 124/125/141 123/118/141
f 128/126/142 125/120/142 124/125/142
f 129/127/143 126/123/143 125/122/143
f 130/128/144 123/118/144 126/123/144
f 131/129/130 128/130/130 127/131/130
f 132/132/129 129/133/129 128/130/129
f 133/134/132 130/135/132 129/136/132
f 134/137/131 127/131/131 130/135/131
f 135/138/134 132/132/134 131/129/134
f 136/139/133 133/140/133 132/132/133
f 137/141/136 134/137/136 133/134/136
f 138/142/135 131/129/135 134/137/135
f 139/143/138 136/139/138 135/138/138
f 140/144/137 137/145/137 136/139/137
f 141/146/140 138/142/140 137/141/140
f 142/147/139 135/138/139 138/142/139
f 111/107/142 140/144/142 139/143/142
f 140/144/141 113/109/141 141/148/141
f 113/112/144 142/147/144 141/146/144
f 142/147/143 111/107/143 139/143/143
f 115/105/129 116/108/129 112/106/129
f 116/108/130 117/115/130 113/109/130
f 117/110/131 118/113/131 114/111/131
f 118/113/132 115/105/132 111/107/132
f 115/105/133 119/119/133 120/114/133
f 120/114/134 121/121/134 117/115/134
f 121/116/135 122/117/135 118/113/135
f 122/117/136 119/119/136 115/105/136
f 123/118/137 124/125/137 120/114/137
f 120/114/138 124/125/138 125/120/138
f 125/122/139 126/123/139 122/117/139
f 126/123/140 123/118/140 119/119/140
f 127/124/141 128/126/141 124/125/141
f 128/126/142 129/149/142 125/120/142
f 129/127/143 130/128/143 126/123/143
f 130/128/144 127/124/144 123/118/144
f 131/129/130 132/132/130 128/130/130
f 132/132/129 133/140/129 129/133/129
f 133/134/132 134/137/132 130/135/132
f 134/137/131 131/129/131 127/131/131
f 135/138/134 136/139/134 132/132/134
f 136/139/133 137/145/133 133/140/133
f 137/141/136 138/142/136 134/137/136
f 138/142/135 135/138/135 131/129/135
f 139/143/138 140/144/138 136/139/138
f 140/144/137 141/148/137 137/145/137
f 141/146/140 142/147/140 138/142/140
f 142/147/139 139/143/139 135/138/139
f 111/107/142 112/106/142 140/144/142
f 140/144/141 112/106/141 113/109/141
f 113/112/144 114/111/144 142/147/144
f 142/147/143 114/111/143 111/107/143
g SilverBlade_GripBand1.001_Mesh
v 0.195000 -0.910000 0.000000
v 0.170000 -0.885000 0.000000
v 0.145000 -0.910000 0.000000
v 0.170000 -0.935000 0.000000
v 0.137886 -0.910000 -0.137886
v 0.120208 -0.885000 -0.120208
v 0.102530 -0.910000 -0.102530
v 0.120208 -0.935000 -0.120208
v 0.000000 -0.910000 -0.195000
v 0.000000 -0.885000 -0.170000
v 0.000000 -0.910000 -0.145000
v 0.000000 -0.935000 -0.170000
v -0.137886 -0.910000 -0.137886
v -0.120208 -0.885000 -0.120208
v -0.102531 -0.910000 -0.102530
v -0.120208 -0.935000 -0.120208
v -0.195000 -0.910000 -0.000000
v -0.170000 -0.885000 -0.000000
v -0.145000 -0.910000 -0.000000
v -0.170000 -0.935000 -0.000000
v -0.137886 -0.910000 0.137886
v -0.120208 -0.885000 0.120208
v -0.102531 -0.910000 0.102530
v -0.120208 -0.935000 0.120208
v 0.000000 -0.910000 0.195000
v 0.000000 -0.885000 0.170000
v 0.000000 -0.910000 0.145000
v 0.000000 -0.935000 0.170000
v 0.137886 -0.910000 0.137886
v 0.120208 -0.885000 0.120208
v 0.102530 -0.910000 0.102531
v 0.120208 -0.935000 0.120208
vn 0.6786 0.6786 -0.2811
vn -0.6786 0.6786 0.2811
vn -0.6786 -0.6786 0.2811
vn 0.6786 -0.6786 -0.2811
vn 0.2811 0.6786 -0.6786
vn -0.2811 0.6786 0.6786
vn -0.2811 -0.6786 0.6786
vn 0.2811 -0.6786 -0.6786
vn -0.2811 0.6786 -0.6786
vn 0.2811 0.6786 0.6786
vn 0.2811 -0.6786 0.6786
vn -0.2811 -0.6786 -0.6786
vn -0.6786 0.6786 -0.2811
vn 0.6786 0.6786 0.2811
vn 0.6786 -0.6786 0.2811
vn -0.6786 -0.6786 -0.2811
vt 0.625000 0.500000
vt 0.500000 0.750000
vt 0.500000 0.500000
vt 0.625000 0.750000
vt 0.500000 1.000000
vt 0.625000 0.000000
vt 0.500000 0.250000
vt 0.500000 0.000000
vt 0.625000 0.250000
vt 0.750000 0.750000
vt 0.625000 1.000000
vt 0.750000 0.000000
vt 0.750000 0.250000
vt 0.875000 0.500000
vt 0.750000 0.500000
vt 0.875000 1.000000
vt 0.750000 1.000000
vt 0.875000 0.000000
vt 0.875000 0.250000
vt 1.000000 0.500000
vt 0.875000 0.750000
vt 1.000000 0.750000
vt 1.000000 0.000000
vt 1.000000 0.250000
vt 0.125000 0.500000
vt 0.000000 0.750000
vt 0.000000 0.500000
vt 0.125000 0.750000
vt 0.000000 1.000000
vt 0.125000 0.000000
vt 0.000000 0.250000
vt 0.000000 0.000000
vt 0.125000 0.250000
vt 0.250000 0.500000
vt 0.250000 0.750000
vt 0.125000 1.000000
vt 0.250000 0.000000
vt 0.250000 0.250000
vt 0.375000 0.500000
vt 0.375000 0.750000
vt 0.250000 1.000000
vt 0.375000 0.000000
vt 0.375000 0.250000
vt 0.375000 1.000000
vt 1.000000 1.000000
s 0
g SilverBlade_GripBand1.001_MAT_OldGold
usemtl MAT_OldGold
f 147/150/145 144/151/145 143/152/145
f 148/153/146 145/154/146 144/151/146
f 149/155/147 146/156/147 145/157/147
f 150/158/148 143/152/148 146/156/148
f 147/150/149 152/159/149 148/153/149
f 152/159/150 149/160/150 148/153/150
f 153/161/151 150/158/151 149/155/151
f 154/162/152 147/150/152 150/158/152
f 155/163/153 152/159/153 151/164/153
f 152/159/154 157/165/154 153/166/154
f 157/167/155 154/162/155 153/161/155
f 158/168/156 151/164/156 154/162/156
f 159/169/157 156/170/157 155/163/157
f 160/171/158 157/165/158 156/170/158
f 161/172/159 158/168/159 157/167/159
f 162/173/160 155/163/160 158/168/160
f 163/174/146 160/175/146 159/176/146
f 164/177/145 161/178/145 160/175/145
f 165/179/148 162/180/148 161/181/148
f 166/182/147 159/176/147 162/180/147
f 167/183/150 164/177/150 163/174/150
f 168/184/149 165/185/149 164/177/149
f 169/186/152 166/182/152 165/179/152
f 170/187/151 163/174/151 166/182/151
f 171/188/154 168/184/154 167/183/154
f 172/189/153 169/190/153 168/184/153
f 173/191/156 170/187/156 169/186/156
f 174/192/155 167/183/155 170/187/155
f 143/152/158 172/189/158 171/188/158
f 172/189/157 145/154/157 173/193/157
f 145/157/160 174/192/160 173/191/160
f 174/192/159 143/152/159 171/188/159
f 147/150/145 148/153/145 144/151/145
f 148/153/146 149/160/146 145/154/146
f 149/155/147 150/158/147 146/156/147
f 150/158/148 147/150/148 143/152/148
f 147/150/149 151/164/149 152/159/149
f 152/159/150 153/166/150 149/160/150
f 153/161/151 154/162/151 150/158/151
f 154/162/152 151/164/152 147/150/152
f 155/163/153 156/170/153 152/159/153
f 152/159/154 156/170/154 157/165/154
f 157/167/155 158/168/155 154/162/155
f 158/168/156 155/163/156 151/164/156
f 159/169/157 160/171/157 156/170/157
f 160/171/158 161/194/158 157/165/158
f 161/172/159 162/173/159 158/168/159
f 162/173/160 159/169/160 155/163/160
f 163/174/146 164/177/146 160/175/146
f 164/177/145 165/185/145 161/178/145
f 165/179/148 166/182/148 162/180/148
f 166/182/147 163/174/147 159/176/147
f 167/183/150 168/184/150 164/177/150
f 168/184/149 169/190/149 165/185/149
f 169/186/152 170/187/152 166/182/152
f 170/187/151 167/183/151 163/174/151
f 171/188/154 172/189/154 168/184/154
f 172/189/153 173/193/153 169/190/153
f 173/191/156 174/192/156 170/187/156
f 174/192/155 171/188/155 167/183/155
f 143/152/158 144/151/158 172/189/158
f 172/189/157 144/151/157 145/154/157
f 145/157/160 146/156/160 174/192/160
f 174/192/159 146/156/159 143/152/159
g SilverBlade_GripBand2.001_Mesh
v 0.195000 -1.090000 0.000000
v 0.170000 -1.065000 0.000000
v 0.145000 -1.090000 0.000000
v 0.170000 -1.115000 0.000000
v 0.137886 -1.090000 -0.137886
v 0.120208 -1.065000 -0.120208
v 0.102530 -1.090000 -0.102530
v 0.120208 -1.115000 -0.120208
v 0.000000 -1.090000 -0.195000
v 0.000000 -1.065000 -0.170000
v 0.000000 -1.090000 -0.145000
v 0.000000 -1.115000 -0.170000
v -0.137886 -1.090000 -0.137886
v -0.120208 -1.065000 -0.120208
v -0.102531 -1.090000 -0.102530
v -0.120208 -1.115000 -0.120208
v -0.195000 -1.090000 -0.000000
v -0.170000 -1.065000 -0.000000
v -0.145000 -1.090000 -0.000000
v -0.170000 -1.115000 -0.000000
v -0.137886 -1.090000 0.137886
v -0.120208 -1.065000 0.120208
v -0.102531 -1.090000 0.102530
v -0.120208 -1.115000 0.120208
v 0.000000 -1.090000 0.195000
v 0.000000 -1.065000 0.170000
v 0.000000 -1.090000 0.145000
v 0.000000 -1.115000 0.170000
v 0.137886 -1.090000 0.137886
v 0.120208 -1.065000 0.120208
v 0.102530 -1.090000 0.102531
v 0.120208 -1.115000 0.120208
vn 0.6786 0.6786 -0.2811
vn -0.6786 0.6786 0.2811
vn -0.6786 -0.6786 0.2811
vn 0.6786 -0.6786 -0.2811
vn 0.2811 0.6786 -0.6786
vn -0.2811 0.6786 0.6786
vn -0.2811 -0.6786 0.6786
vn 0.2811 -0.6786 -0.6786
vn -0.2811 0.6786 -0.6786
vn 0.2811 0.6786 0.6786
vn 0.2811 -0.6786 0.6786
vn -0.2811 -0.6786 -0.6786
vn -0.6786 0.6786 -0.2811
vn 0.6786 0.6786 0.2811
vn 0.6786 -0.6786 0.2811
vn -0.6786 -0.6786 -0.2811
vt 0.625000 0.500000
vt 0.500000 0.750000
vt 0.500000 0.500000
vt 0.625000 0.750000
vt 0.500000 1.000000
vt 0.625000 0.000000
vt 0.500000 0.250000
vt 0.500000 0.000000
vt 0.625000 0.250000
vt 0.750000 0.750000
vt 0.625000 1.000000
vt 0.750000 0.000000
vt 0.750000 0.250000
vt 0.875000 0.500000
vt 0.750000 0.500000
vt 0.875000 1.000000
vt 0.750000 1.000000
vt 0.875000 0.000000
vt 0.875000 0.250000
vt 1.000000 0.500000
vt 0.875000 0.750000
vt 1.000000 0.750000
vt 1.000000 0.000000
vt 1.000000 0.250000
vt 0.125000 0.500000
vt 0.000000 0.750000
vt 0.000000 0.500000
vt 0.125000 0.750000
vt 0.000000 1.000000
vt 0.125000 0.000000
vt 0.000000 0.250000
vt 0.000000 0.000000
vt 0.125000 0.250000
vt 0.250000 0.500000
vt 0.250000 0.750000
vt 0.125000 1.000000
vt 0.250000 0.000000
vt 0.250000 0.250000
vt 0.375000 0.500000
vt 0.375000 0.750000
vt 0.250000 1.000000
vt 0.375000 0.000000
vt 0.375000 0.250000
vt 0.375000 1.000000
vt 1.000000 1.000000
s 0
g SilverBlade_GripBand2.001_MAT_OldGold
usemtl MAT_OldGold
f 179/195/161 176/196/161 175/197/161
f 180/198/162 177/199/162 176/196/162
f 181/200/163 178/201/163 177/202/163
f 182/203/164 175/197/164 178/201/164
f 179/195/165 184/204/165 180/198/165
f 184/204/166 181/205/166 180/198/166
f 185/206/167 182/203/167 181/200/167
f 186/207/168 179/195/168 182/203/168
f 187/208/169 184/204/169 183/209/169
f 184/204/170 189/210/170 185/211/170
f 189/212/171 186/207/171 185/206/171
f 190/213/172 183/209/172 186/207/172
f 191/214/173 188/215/173 187/208/173
f 192/216/174 189/210/174 188/215/174
f 193/217/175 190/213/175 189/212/175
f 194/218/176 187/208/176 190/213/176
f 195/219/162 192/220/162 191/221/162
f 196/222/161 193/223/161 192/220/161
f 197/224/164 194/225/164 193/226/164
f 198/227/163 191/221/163 194/225/163
f 199/228/166 196/222/166 195/219/166
f 200/229/165 197/230/165 196/222/165
f 201/231/168 198/227/168 197/224/168
f 202/232/167 195/219/167 198/227/167
f 203/233/170 200/229/170 199/228/170
f 204/234/169 201/235/169 200/229/169
f 205/236/172 202/232/172 201/231/172
f 206/237/171 199/228/171 202/232/171
f 175/197/174 204/234/174 203/233/174
f 204/234/173 177/199/173 205/238/173
f 177/202/176 206/237/176 205/236/176
f 206/237/175 175/197/175 203/233/175
f 179/195/161 180/198/161 176/196/161
f 180/198/162 181/205/162 177/199/162
f 181/200/163 182/203/163 178/201/163
f 182/203/164 179/195/164 175/197/164
f 179/195/165 183/209/165 184/204/165
f 184/204/166 185/211/166 181/205/166
f 185/206/167 186/207/167 182/203/167
f 186/207/168 183/209/168 179/195/168
f 187/208/169 188/215/169 184/204/169
f 184/204/170 188/215/170 189/210/170
f 189/212/171 190/213/171 186/207/171
f 190/213/172 187/208/172 183/209/172
f 191/214/173 192/216/173 188/215/173
f 192/216/174 193/239/174 189/210/174
f 193/217/175 194/218/175 190/213/175
f 194/218/176 191/214/176 187/208/176
f 195/219/162 196/222/162 192/220/162
f 196/222/161 197/230/161 193/223/161
f 197/224/164 198/227/164 194/225/164
f 198/227/163 195/219/163 191/221/163
f 199/228/166 200/229/166 196/222/166
f 200/229/165 201/235/165 197/230/165
f 201/231/168 202/232/168 198/227/168
f 202/232/167 199/228/167 195/219/167
f 203/233/170 204/234/170 200/229/170
f 204/234/169 205/238/169 201/235/169
f 205/236/172 206/237/172 202/232/172
f 206/237/171 203/233/171 199/228/171
f 175/197/174 176/196/174 204/234/174
f 204/234/173 176/196/173 177/199/173
f 177/202/176 178/201/176 206/237/176
f 206/237/175 178/201/175 175/197/175
g SilverBlade_GripBand3.001_Mesh
v 0.195000 -1.270000 0.000000
v 0.170000 -1.245000 0.000000
v 0.145000 -1.270000 0.000000
v 0.170000 -1.295000 0.000000
v 0.137886 -1.270000 -0.137886
v 0.120208 -1.245000 -0.120208
v 0.102530 -1.270000 -0.102530
v 0.120208 -1.295000 -0.120208
v 0.000000 -1.270000 -0.195000
v 0.000000 -1.245000 -0.170000
v 0.000000 -1.270000 -0.145000
v 0.000000 -1.295000 -0.170000
v -0.137886 -1.270000 -0.137886
v -0.120208 -1.245000 -0.120208
v -0.102531 -1.270000 -0.102530
v -0.120208 -1.295000 -0.120208
v -0.195000 -1.270000 -0.000000
v -0.170000 -1.245000 -0.000000
v -0.145000 -1.270000 -0.000000
v -0.170000 -1.295000 -0.000000
v -0.137886 -1.270000 0.137886
v -0.120208 -1.245000 0.120208
v -0.102531 -1.270000 0.102530
v -0.120208 -1.295000 0.120208
v 0.000000 -1.270000 0.195000
v 0.000000 -1.245000 0.170000
v 0.000000 -1.270000 0.145000
v 0.000000 -1.295000 0.170000
v 0.137886 -1.270000 0.137886
v 0.120208 -1.245000 0.120208
v 0.102530 -1.270000 0.102531
v 0.120208 -1.295000 0.120208
vn 0.6786 0.6786 -0.2811
vn -0.6786 0.6786 0.2811
vn -0.6786 -0.6786 0.2811
vn 0.6786 -0.6786 -0.2811
vn 0.2811 0.6786 -0.6786
vn -0.2811 0.6786 0.6786
vn -0.2811 -0.6786 0.6786
vn 0.2811 -0.6786 -0.6786
vn -0.2811 0.6786 -0.6786
vn 0.2811 0.6786 0.6786
vn 0.2811 -0.6786 0.6786
vn -0.2811 -0.6786 -0.6786
vn -0.6786 0.6786 -0.2811
vn 0.6786 0.6786 0.2811
vn 0.6786 -0.6786 0.2811
vn -0.6786 -0.6786 -0.2811
vt 0.625000 0.500000
vt 0.500000 0.750000
vt 0.500000 0.500000
vt 0.625000 0.750000
vt 0.500000 1.000000
vt 0.625000 0.000000
vt 0.500000 0.250000
vt 0.500000 0.000000
vt 0.625000 0.250000
vt 0.750000 0.750000
vt 0.625000 1.000000
vt 0.750000 0.000000
vt 0.750000 0.250000
vt 0.875000 0.500000
vt 0.750000 0.500000
vt 0.875000 1.000000
vt 0.750000 1.000000
vt 0.875000 0.000000
vt 0.875000 0.250000
vt 1.000000 0.500000
vt 0.875000 0.750000
vt 1.000000 0.750000
vt 1.000000 0.000000
vt 1.000000 0.250000
vt 0.125000 0.500000
vt 0.000000 0.750000
vt 0.000000 0.500000
vt 0.125000 0.750000
vt 0.000000 1.000000
vt 0.125000 0.000000
vt 0.000000 0.250000
vt 0.000000 0.000000
vt 0.125000 0.250000
vt 0.250000 0.500000
vt 0.250000 0.750000
vt 0.125000 1.000000
vt 0.250000 0.000000
vt 0.250000 0.250000
vt 0.375000 0.500000
vt 0.375000 0.750000
vt 0.250000 1.000000
vt 0.375000 0.000000
vt 0.375000 0.250000
vt 0.375000 1.000000
vt 1.000000 1.000000
s 0
g SilverBlade_GripBand3.001_MAT_OldGold
usemtl MAT_OldGold
f 211/240/177 208/241/177 207/242/177
f 212/243/178 209/244/178 208/241/178
f 213/245/179 210/246/179 209/247/179
f 214/248/180 207/242/180 210/246/180
f 211/240/181 216/249/181 212/243/181
f 216/249/182 213/250/182 212/243/182
f 217/251/183 214/248/183 213/245/183
f 218/252/184 211/240/184 214/248/184
f 219/253/185 216/249/185 215/254/185
f 216/249/186 221/255/186 217/256/186
f 221/257/187 218/252/187 217/251/187
f 222/258/188 215/254/188 218/252/188
f 223/259/189 220/260/189 219/253/189
f 224/261/190 221/255/190 220/260/190
f 225/262/191 222/258/191 221/257/191
f 226/263/192 219/253/192 222/258/192
f 227/264/178 224/265/178 223/266/178
f 228/267/177 225/268/177 224/265/177
f 229/269/180 226/270/180 225/271/180
f 230/272/179 223/266/179 226/270/179
f 231/273/182 228/267/182 227/264/182
f 232/274/181 229/275/181 228/267/181
f 233/276/184 230/272/184 229/269/184
f 234/277/183 227/264/183 230/272/183
f 235/278/186 232/274/186 231/273/186
f 236/279/185 233/280/185 232/274/185
f 237/281/188 234/277/188 233/276/188
f 238/282/187 231/273/187 234/277/187
f 207/242/190 236/279/190 235/278/190
f 236/279/189 209/244/189 237/283/189
f 209/247/192 238/282/192 237/281/192
f 238/282/191 207/242/191 235/278/191
f 211/240/177 212/243/177 208/241/177
f 212/243/178 213/250/178 209/244/178
f 213/245/179 214/248/179 210/246/179
f 214/248/180 211/240/180 207/242/180
f 211/240/181 215/254/181 216/249/181
f 216/249/182 217/256/182 213/250/182
f 217/251/183 218/252/183 214/248/183
f 218/252/184 215/254/184 211/240/184
f 219/253/185 220/260/185 216/249/185
f 216/249/186 220/260/186 221/255/186
f 221/257/187 222/258/187 218/252/187
f 222/258/188 219/253/188 215/254/188
f 223/259/189 224/261/189 220/260/189
f 224/261/190 225/284/190 221/255/190
f 225/262/191 226/263/191 222/258/191
f 226/263/192 223/259/192 219/253/192
f 227/264/178 228/267/178 224/265/178
f 228/267/177 229/275/177 225/268/177
f 229/269/180 230/272/180 226/270/180
f 230/272/179 227/264/179 223/266/179
f 231/273/182 232/274/182 228/267/182
f 232/274/181 233/280/181 229/275/181
f 233/276/184 234/277/184 230/272/184
f 234/277/183 231/273/183 227/264/183
f 235/278/186 236/279/186 232/274/186
f 236/279/185 237/283/185 233/280/185
f 237/281/188 238/282/188 234/277/188
f 238/282/187 235/278/187 231/273/187
f 207/242/190 208/241/190 236/279/190
f 236/279/189 208/241/189 209/244/189
f 209/247/192 210/246/192 238/282/192
f 238/282/191 210/246/191 207/242/191
g SilverBlade_Guard.001_Mesh
v -0.604500 -0.550000 0.111600
v -0.604500 -0.543000 0.120000
v -0.650000 -0.543000 0.111600
v -0.604500 -0.357000 0.120000
v -0.604500 -0.350000 0.111600
v -0.650000 -0.357000 0.111600
v -0.604500 -0.550000 -0.111600
v -0.650000 -0.543000 -0.111600
v -0.604500 -0.543000 -0.120000
v -0.604500 -0.350000 -0.111600
v -0.604500 -0.357000 -0.120000
v -0.650000 -0.357000 -0.111600
v 0.604500 -0.550000 0.111600
v 0.650000 -0.543000 0.111600
v 0.604500 -0.543000 0.120000
v 0.604500 -0.350000 0.111600
v 0.604500 -0.357000 0.120000
v 0.650000 -0.357000 0.111600
v 0.604500 -0.550000 -0.111600
v 0.604500 -0.543000 -0.120000
v 0.650000 -0.543000 -0.111600
v 0.604500 -0.350000 -0.111600
v 0.650000 -0.357000 -0.111600
v 0.604500 -0.357000 -0.120000
vn -0.1174 -0.7629 0.6358
vn -0.1174 0.7629 0.6358
vn -0.1174 -0.7629 -0.6358
vn -0.1174 0.7629 -0.6358
vn 0.1174 -0.7629 0.6358
vn 0.1174 0.7629 0.6358
vn 0.1174 -0.7629 -0.6358
vn 0.1174 0.7629 -0.6358
vn -0.1521 -0.9884 -0.0000
vn -0.1815 -0.0000 0.9834
vn -0.1521 0.9884 -0.0000
vn -0.1815 -0.0000 -0.9834
vn -0.0000 -0.7682 -0.6402
vn -0.0000 0.7682 -0.6402
vn 0.1815 -0.0000 -0.9834
vn 0.1521 -0.9884 -0.0000
vn 0.1521 0.9884 -0.0000
vn 0.1815 -0.0000 0.9834
vn -0.0000 -0.7682 0.6402
vn -0.0000 0.7682 0.6402
vn -0.0000 -1.0000 -0.0000
vn -1.0000 -0.0000 -0.0000
vn -0.0000 -0.0000 1.0000
vn -0.0000 1.0000 -0.0000
vn -0.0000 -0.0000 -1.0000
vn 1.0000 -0.0000 -0.0000
vt 0.133750 0.741250
vt 0.133750 0.750000
vt 0.125000 0.741250
vt 0.616250 0.000000
vt 0.625000 0.008750
vt 0.616250 0.008750
vt 0.133750 0.508750
vt 0.125000 0.508750
vt 0.133750 0.500000
vt 0.625000 0.247083
vt 0.616250 0.256563
vt 0.616250 0.241250
vt 0.366250 0.741250
vt 0.381562 0.741250
vt 0.375000 0.754375
vt 0.629375 0.750000
vt 0.616250 0.758750
vt 0.616250 0.743438
vt 0.366250 0.508750
vt 0.375000 0.495625
vt 0.381562 0.508750
vt 0.629375 0.500000
vt 0.616250 0.506563
vt 0.616250 0.491250
vt 0.383750 0.008750
vt 0.383750 0.000000
vt 0.383750 0.258750
vt 0.625000 0.991250
vt 0.383750 0.241250
vt 0.383750 0.991250
vt 0.866250 0.508750
vt 0.616250 0.991250
vt 0.866250 0.741250
s 0
g SilverBlade_Guard.001_MAT_OldGold
usemtl MAT_OldGold
f 239/285/193 240/286/193 241/287/193
f 242/288/194 243/289/194 244/290/194
f 245/291/195 246/292/195 247/293/195
f 248/294/196 249/295/196 250/296/196
f 251/297/197 252/298/197 253/299/197
f 254/300/198 255/301/198 256/302/198
f 257/303/199 258/304/199 259/305/199
f 260/306/200 261/307/200 262/308/200
f 239/285/201 246/292/201 245/291/201
f 242/288/202 241/309/202 240/310/202
f 248/294/203 244/290/203 243/289/203
f 247/311/204 250/296/204 249/295/204
f 245/291/205 258/304/205 257/303/205
f 260/306/206 249/295/206 248/294/206
f 259/305/207 262/308/207 261/307/207
f 257/303/208 252/298/208 251/297/208
f 254/300/209 261/307/209 260/306/209
f 253/299/210 256/302/210 255/301/210
f 251/297/211 240/286/211 239/285/211
f 243/312/212 255/301/212 254/300/212
f 257/303/213 239/285/213 245/291/213
f 244/290/214 246/313/214 241/309/214
f 255/301/215 240/314/215 253/299/215
f 248/315/216 254/300/216 260/306/216
f 249/295/217 258/304/217 247/311/217
f 261/307/218 252/298/218 259/305/218
f 239/285/201 241/287/201 246/292/201
f 242/288/202 244/290/202 241/309/202
f 248/294/203 250/296/203 244/290/203
f 247/311/204 246/313/204 250/296/204
f 245/291/205 247/293/205 258/304/205
f 260/306/206 262/308/206 249/295/206
f 259/305/207 258/304/207 262/308/207
f 257/303/208 259/305/208 252/298/208
f 254/300/209 256/302/209 261/307/209
f 253/299/210 252/298/210 256/302/210
f 251/297/211 253/299/211 240/286/211
f 243/312/212 242/316/212 255/301/212
f 257/303/213 251/297/213 239/285/213
f 244/290/214 250/296/214 246/313/214
f 255/301/215 242/316/215 240/314/215
f 248/315/216 243/317/216 254/300/216
f 249/295/217 262/308/217 258/304/217
f 261/307/218 256/302/218 252/298/218
g SilverBlade_Pommel.001_Mesh
v 0.000000 -1.820000 0.000000
v 0.159192 -1.681803 0.094630
v -0.060805 -1.681803 0.153115
v -0.196773 -1.681803 0.000000
v -0.060805 -1.681803 -0.153115
v 0.159192 -1.681803 -0.094630
v 0.060805 -1.458196 0.153115
v -0.159192 -1.458196 0.094630
v -0.159192 -1.458196 -0.094630
v 0.060805 -1.458196 -0.153115
v 0.196773 -1.458196 0.000000
v 0.000000 -1.320000 0.000000
vn 0.1856 -0.6917 0.6980
vn 0.6556 -0.7551 -0.0000
vn -0.5119 -0.7289 0.4546
vn -0.5119 -0.7289 -0.4546
vn 0.1856 -0.6917 -0.6980
vn 0.9862 -0.1657 -0.0000
vn 0.2545 -0.1384 0.9571
vn -0.7389 -0.1535 0.6561
vn -0.7389 -0.1535 -0.6561
vn 0.2545 -0.1384 -0.9571
vn 0.7389 0.1535 0.6561
vn -0.2545 0.1384 0.9571
vn -0.9862 0.1657 -0.0000
vn -0.2545 0.1384 -0.9571
vn 0.7389 0.1535 -0.6561
vn 0.5119 0.7289 0.4546
vn -0.1856 0.6917 0.6980
vn -0.6556 0.7551 -0.0000
vn -0.1856 0.6917 -0.6980
vn 0.5119 0.7289 -0.4546
vt 0.181819 0.000000
vt 0.272728 0.157461
vt 0.090910 0.157461
vt 0.363637 0.000000
vt 0.454546 0.157461
vt 0.909091 0.000000
vt 1.000000 0.157461
vt 0.818182 0.157461
vt 0.727273 0.000000
vt 0.636364 0.157461
vt 0.545455 0.000000
vt 0.363637 0.314921
vt 0.181819 0.314921
vt 0.909091 0.314921
vt 0.727273 0.314921
vt 0.545455 0.314921
vt 0.000000 0.314921
vt 0.272728 0.472382
vt 0.090910 0.472382
vt 0.818182 0.472382
vt 0.636364 0.472382
vt 0.454546 0.472382
s 0
g SilverBlade_Pommel.001_MAT_OldGold
usemtl MAT_OldGold
f 263/318/219 264/319/219 265/320/219
f 264/319/220 263/321/220 268/322/220
f 263/323/221 265/324/221 266/325/221
f 263/326/222 266/325/222 267/327/222
f 263/328/223 267/327/223 268/322/223
f 264/319/224 268/322/224 273/329/224
f 265/320/225 264/319/225 269/330/225
f 266/325/226 265/324/226 270/331/226
f 267/327/227 266/325/227 271/332/227
f 268/322/228 267/327/228 272/333/228
f 264/319/229 273/329/229 269/330/229
f 265/320/230 269/330/230 270/334/230
f 266/325/231 270/331/231 271/332/231
f 267/327/232 271/332/232 272/333/232
f 268/322/233 272/333/233 273/329/233
f 269/330/234 273/329/234 274/335/234
f 270/334/235 269/330/235 274/336/235
f 271/332/236 270/331/236 274/337/236
f 272/333/237 271/332/237 274/338/237
f 273/329/238 272/333/238 274/339/238
