# Second Rite deterministic completion model
# Sleep Blade
mtllib item_complete_library.mtl
o item_78
s off
v -0.25 -0.8749999999999999 -0.065
v -0.31 -0.575 -0.065
v -0.1875 1.3850000000000002 -0.065
v 0 1.725 -0.065
v 0.1875 1.3850000000000002 -0.065
v 0.31 -0.575 -0.065
v 0.25 -0.8749999999999999 -0.065
v -0.25 -0.8749999999999999 0.065
v -0.31 -0.575 0.065
v -0.1875 1.3850000000000002 0.065
v 0 1.725 0.065
v 0.1875 1.3850000000000002 0.065
v 0.31 -0.575 0.065
v 0.25 -0.8749999999999999 0.065
v -0.39 -1.025 -0.11
v 0.39 -1.025 -0.11
v 0.39 -0.8849999999999999 -0.11
v -0.39 -0.8849999999999999 -0.11
v -0.39 -1.025 0.11
v 0.39 -1.025 0.11
v 0.39 -0.8849999999999999 0.11
v -0.39 -0.8849999999999999 0.11
v 0.1 -1.0150000000000001 0
v 0.05 -1.0150000000000001 0.086603
v -0.05 -1.0150000000000001 0.086603
v -0.1 -1.0150000000000001 0
v -0.05 -1.0150000000000001 -0.086603
v 0.05 -1.0150000000000001 -0.086603
v 0.07 -1.5550000000000002 0
v 0.035 -1.5550000000000002 0.060622
v -0.035 -1.5550000000000002 0.060622
v -0.07 -1.5550000000000002 0
v -0.035 -1.5550000000000002 -0.060622
v 0.035 -1.5550000000000002 -0.060622
v 0 -1.0150000000000001 0
v 0 -1.5550000000000002 0
v 0.14 -1.6349999999999998 0
v 0 -1.6349999999999998 0.14
v -0.14 -1.6349999999999998 0
v 0 -1.6349999999999998 -0.14
v 0 -1.545 0
v 0 -1.725 0
usemtl wrought_iron
f 1 3 2
f 8 9 10
f 1 4 3
f 8 10 11
f 1 5 4
f 8 11 12
f 1 6 5
f 8 12 13
f 1 7 6
f 8 13 14
f 1 2 9
f 1 9 8
f 2 3 10
f 2 10 9
f 3 4 11
f 3 11 10
f 4 5 12
f 4 12 11
f 5 6 13
f 5 13 12
f 6 7 14
f 6 14 13
f 7 1 8
f 7 8 14
usemtl ritual_gold
f 15 18 17
f 15 17 16
f 19 20 21
f 19 21 22
f 15 16 20
f 15 20 19
f 18 22 21
f 18 21 17
f 15 19 22
f 15 22 18
f 16 17 21
f 16 21 20
usemtl dark_wood
f 35 24 23
f 36 29 30
f 23 24 30
f 23 30 29
f 35 25 24
f 36 30 31
f 24 25 31
f 24 31 30
f 35 26 25
f 36 31 32
f 25 26 32
f 25 32 31
f 35 27 26
f 36 32 33
f 26 27 33
f 26 33 32
f 35 28 27
f 36 33 34
f 27 28 34
f 27 34 33
f 35 23 28
f 36 34 29
f 28 23 29
f 28 29 34
usemtl ritual_gold
f 41 37 38
f 42 38 37
f 41 38 39
f 42 39 38
f 41 39 40
f 42 40 39
f 41 40 37
f 42 37 40
