# Blender 5.0.1
# www.blender.org
mtllib sludge.mtl
g Bowl.002_Mesh
v 0.000000 -0.650000 -0.798236
v 0.000000 -0.605668 -0.826061
v -0.000000 -0.150000 -0.528236
v 0.000000 -0.194332 -0.603939
v 0.399118 -0.650000 -0.691293
v 0.413030 -0.605668 -0.715390
v 0.264118 -0.150000 -0.457466
v 0.301970 -0.194332 -0.523027
v 0.691293 -0.650000 -0.399118
v 0.715390 -0.605668 -0.413030
v 0.457466 -0.150000 -0.264118
v 0.523027 -0.194332 -0.301970
v 0.798236 -0.650000 0.000000
v 0.826061 -0.605668 0.000000
v 0.528236 -0.150000 -0.000000
v 0.603939 -0.194332 0.000000
v 0.691293 -0.650000 0.399118
v 0.715390 -0.605668 0.413030
v 0.457466 -0.150000 0.264118
v 0.523027 -0.194332 0.301970
v 0.399118 -0.650000 0.691293
v 0.413030 -0.605668 0.715390
v 0.264118 -0.150000 0.457466
v 0.301970 -0.194332 0.523027
v -0.000000 -0.650000 0.798236
v 0.000000 -0.605668 0.826061
v 0.000000 -0.150000 0.528236
v 0.000000 -0.194332 0.603939
v -0.399118 -0.650000 0.691293
v -0.413030 -0.605668 0.715390
v -0.264118 -0.150000 0.457466
v -0.301970 -0.194332 0.523027
v -0.691293 -0.650000 0.399118
v -0.715390 -0.605668 0.413030
v -0.457466 -0.150000 0.264118
v -0.523027 -0.194332 0.301970
v -0.798236 -0.650000 -0.000000
v -0.826061 -0.605668 0.000000
v -0.528236 -0.150000 0.000000
v -0.603939 -0.194332 0.000000
v -0.691293 -0.650000 -0.399118
v -0.715390 -0.605668 -0.413030
v -0.457466 -0.150000 -0.264118
v -0.523027 -0.194332 -0.301970
v -0.399118 -0.650000 -0.691293
v -0.413030 -0.605668 -0.715390
v -0.264118 -0.150000 -0.457466
v -0.301970 -0.194332 -0.523027
vn 0.2213 -0.5184 -0.8260
vn 0.1342 0.8551 -0.5008
vn 0.6047 -0.5184 -0.6047
vn 0.3666 0.8551 -0.3666
vn 0.8260 -0.5184 -0.2213
vn 0.5008 0.8551 -0.1342
vn 0.8260 -0.5184 0.2213
vn 0.5008 0.8551 0.1342
vn 0.6047 -0.5184 0.6047
vn 0.3666 0.8551 0.3666
vn 0.2213 -0.5184 0.8260
vn 0.1342 0.8551 0.5008
vn -0.2213 -0.5184 0.8260
vn -0.1342 0.8551 0.5008
vn -0.6047 -0.5184 0.6047
vn -0.3666 0.8551 0.3666
vn -0.8260 -0.5184 0.2213
vn -0.5008 0.8551 0.1342
vn -0.8260 -0.5184 -0.2213
vn -0.5008 0.8551 -0.1342
vn -0.6047 -0.5184 -0.6047
vn -0.3666 0.8551 -0.3666
vn -0.2213 -0.5184 -0.8260
vn -0.1342 0.8551 -0.5008
vn -0.0000 -1.0000 -0.0000
vn 0.2295 0.4625 -0.8564
vn -0.2295 0.4625 -0.8564
vn -0.0000 1.0000 -0.0000
vn 0.6269 0.4625 -0.6269
vn 0.8564 0.4625 -0.2295
vn 0.8564 0.4625 0.2295
vn 0.6269 0.4625 0.6269
vn 0.2295 0.4625 0.8564
vn -0.2295 0.4625 0.8564
vn -0.6269 0.4625 0.6269
vn -0.8564 0.4625 0.2295
vn -0.8564 0.4625 -0.2295
vn -0.6269 0.4625 -0.6269
vt 0.869774 0.457454
vt 0.750000 0.475384
vt 0.750000 0.489547
vt 0.370000 0.457846
vt 0.250000 0.468580
vt 0.359290 0.439296
vt 0.957454 0.369774
vt 0.862692 0.445189
vt 0.457846 0.370000
vt 0.439296 0.359290
vt 0.975384 0.250000
vt 0.945189 0.362692
vt 0.468581 0.250000
vt 0.490000 0.250000
vt 0.957454 0.130226
vt 0.989547 0.250000
vt 0.457846 0.130000
vt 0.439296 0.140710
vt 0.869774 0.042546
vt 0.945189 0.137308
vt 0.370000 0.042154
vt 0.359290 0.060704
vt 0.750000 0.024616
vt 0.862692 0.054811
vt 0.250000 0.031419
vt 0.250000 0.010000
vt 0.630226 0.042546
vt 0.750000 0.010453
vt 0.130000 0.042154
vt 0.140710 0.060704
vt 0.542546 0.130226
vt 0.637308 0.054811
vt 0.042154 0.130000
vt 0.060704 0.140710
vt 0.524616 0.250000
vt 0.554811 0.137308
vt 0.031419 0.250000
vt 0.010000 0.250000
vt 0.542546 0.369774
vt 0.510453 0.250000
vt 0.042154 0.370000
vt 0.060704 0.359290
vt 0.630226 0.457454
vt 0.554811 0.362692
vt 0.130000 0.457846
vt 0.140710 0.439296
vt 0.637308 0.445189
vt 0.250000 0.490000
vt 1.000000 0.955668
vt 0.916667 0.544332
vt 1.000000 0.544332
vt 0.083333 0.955668
vt 0.000000 0.544332
vt 0.083333 0.544332
vt 0.916667 0.955668
vt 0.833333 0.544332
vt 0.833333 0.955668
vt 0.750000 0.544332
vt 0.750000 0.955668
vt 0.666667 0.544332
vt 0.666667 0.955668
vt 0.583333 0.544332
vt 0.583333 0.955668
vt 0.500000 0.544332
vt 0.500000 0.955668
vt 0.416667 0.544332
vt 0.416667 0.955668
vt 0.333333 0.544332
vt 0.333333 0.955668
vt 0.250000 0.544332
vt 0.250000 0.955668
vt 0.166667 0.544332
vt 0.166667 0.955668
vt 0.000000 0.955668
s 0
g Bowl.002_MAT_Iron
usemtl MAT_Iron
f 6/1/1 1/2/1 2/3/1
f 8/4/2 3/5/2 7/6/2
f 10/7/3 5/8/3 6/1/3
f 12/9/4 7/6/4 11/10/4
f 10/7/5 13/11/5 9/12/5
f 12/9/6 15/13/6 16/14/6
f 18/15/7 13/11/7 14/16/7
f 20/17/8 15/13/8 19/18/8
f 22/19/9 17/20/9 18/15/9
f 24/21/10 19/18/10 23/22/10
f 22/19/11 25/23/11 21/24/11
f 24/21/12 27/25/12 28/26/12
f 30/27/13 25/23/13 26/28/13
f 32/29/14 27/25/14 31/30/14
f 34/31/15 29/32/15 30/27/15
f 36/33/16 31/30/16 35/34/16
f 34/31/17 37/35/17 33/36/17
f 36/33/18 39/37/18 40/38/18
f 42/39/19 37/35/19 38/40/19
f 44/41/20 39/37/20 43/42/20
f 46/43/21 41/44/21 42/39/21
f 48/45/22 43/42/22 47/46/22
f 46/43/23 1/2/23 45/47/23
f 48/45/24 3/5/24 4/48/24
f 13/11/25 29/32/25 45/47/25
f 4/49/26 6/50/26 2/51/26
f 48/52/27 2/53/27 46/54/27
f 43/42/28 27/25/28 11/10/28
f 8/55/29 10/56/29 6/50/29
f 12/57/30 14/58/30 10/56/30
f 16/59/31 18/60/31 14/58/31
f 20/61/32 22/62/32 18/60/32
f 24/63/33 26/64/33 22/62/33
f 28/65/34 30/66/34 26/64/34
f 32/67/35 34/68/35 30/66/35
f 36/69/36 38/70/36 34/68/36
f 40/71/37 42/72/37 38/70/37
f 44/73/38 46/54/38 42/72/38
f 6/1/1 5/8/1 1/2/1
f 8/4/2 4/48/2 3/5/2
f 10/7/3 9/12/3 5/8/3
f 12/9/4 8/4/4 7/6/4
f 10/7/5 14/16/5 13/11/5
f 12/9/6 11/10/6 15/13/6
f 18/15/7 17/20/7 13/11/7
f 20/17/8 16/14/8 15/13/8
f 22/19/9 21/24/9 17/20/9
f 24/21/10 20/17/10 19/18/10
f 22/19/11 26/28/11 25/23/11
f 24/21/12 23/22/12 27/25/12
f 30/27/13 29/32/13 25/23/13
f 32/29/14 28/26/14 27/25/14
f 34/31/15 33/36/15 29/32/15
f 36/33/16 32/29/16 31/30/16
f 34/31/17 38/40/17 37/35/17
f 36/33/18 35/34/18 39/37/18
f 42/39/19 41/44/19 37/35/19
f 44/41/20 40/38/20 39/37/20
f 46/43/21 45/47/21 41/44/21
f 48/45/22 44/41/22 43/42/22
f 46/43/23 2/3/23 1/2/23
f 48/45/24 47/46/24 3/5/24
f 45/47/25 1/2/25 5/8/25
f 5/8/25 9/12/25 13/11/25
f 13/11/25 17/20/25 21/24/25
f 21/24/25 25/23/25 29/32/25
f 29/32/25 33/36/25 37/35/25
f 37/35/25 41/44/25 45/47/25
f 45/47/25 5/8/25 13/11/25
f 13/11/25 21/24/25 29/32/25
f 29/32/25 37/35/25 45/47/25
f 4/49/26 8/55/26 6/50/26
f 48/52/27 4/74/27 2/53/27
f 11/10/28 7/6/28 3/5/28
f 3/5/28 47/46/28 43/42/28
f 43/42/28 39/37/28 35/34/28
f 35/34/28 31/30/28 27/25/28
f 27/25/28 23/22/28 19/18/28
f 19/18/28 15/13/28 11/10/28
f 11/10/28 3/5/28 43/42/28
f 43/42/28 35/34/28 27/25/28
f 27/25/28 19/18/28 11/10/28
f 8/55/29 12/57/29 10/56/29
f 12/57/30 16/59/30 14/58/30
f 16/59/31 20/61/31 18/60/31
f 20/61/32 24/63/32 22/62/32
f 24/63/33 28/65/33 26/64/33
f 28/65/34 32/67/34 30/66/34
f 32/67/35 36/69/35 34/68/35
f 36/69/36 40/71/36 38/70/36
f 40/71/37 44/73/37 42/72/37
f 44/73/38 48/52/38 46/54/38
g Food_Lump0.002_Mesh
v -0.350000 -0.359000 -0.120000
v -0.024380 -0.204773 0.059796
v -0.474374 -0.204773 0.170919
v -0.752492 -0.204773 -0.120000
v -0.474374 -0.204773 -0.410919
v -0.024380 -0.204773 -0.299796
v -0.225627 0.044773 0.170919
v -0.675620 0.044773 0.059796
v -0.675620 0.044773 -0.299796
v -0.225627 0.044773 -0.410919
v 0.052491 0.044773 -0.120000
v -0.350000 0.199000 -0.120000
vn 0.1249 -0.8535 0.5059
vn 0.4281 -0.9038 -0.0000
vn -0.3386 -0.8835 0.3237
vn -0.3386 -0.8835 -0.3237
vn 0.1249 -0.8535 -0.5059
vn 0.9557 -0.2944 -0.0000
vn 0.2332 -0.2324 0.9442
vn -0.6969 -0.2653 0.6663
vn -0.6969 -0.2653 -0.6663
vn 0.2332 -0.2324 -0.9442
vn 0.6969 0.2653 0.6663
vn -0.2332 0.2324 0.9442
vn -0.9557 0.2944 -0.0000
vn -0.2332 0.2324 -0.9442
vn 0.6969 0.2653 -0.6663
vn 0.3386 0.8835 0.3237
vn -0.1249 0.8535 0.5059
vn -0.4281 0.9038 -0.0000
vn -0.1249 0.8535 -0.5059
vn 0.3386 0.8835 -0.3237
vt 0.181819 0.000000
vt 0.272728 0.157461
vt 0.090910 0.157461
vt 0.363637 0.000000
vt 0.454546 0.157461
vt 0.909091 0.000000
vt 1.000000 0.157461
vt 0.818182 0.157461
vt 0.727273 0.000000
vt 0.636364 0.157461
vt 0.545455 0.000000
vt 0.363637 0.314921
vt 0.181819 0.314921
vt 0.909091 0.314921
vt 0.727273 0.314921
vt 0.545455 0.314921
vt 0.000000 0.314921
vt 0.272728 0.472382
vt 0.090910 0.472382
vt 0.818182 0.472382
vt 0.636364 0.472382
vt 0.454546 0.472382
s 0
g Food_Lump0.002_MAT_Sludge
usemtl MAT_Sludge
f 49/75/39 50/76/39 51/77/39
f 50/76/40 49/78/40 54/79/40
f 49/80/41 51/81/41 52/82/41
f 49/83/42 52/82/42 53/84/42
f 49/85/43 53/84/43 54/79/43
f 50/76/44 54/79/44 59/86/44
f 51/77/45 50/76/45 55/87/45
f 52/82/46 51/81/46 56/88/46
f 53/84/47 52/82/47 57/89/47
f 54/79/48 53/84/48 58/90/48
f 50/76/49 59/86/49 55/87/49
f 51/77/50 55/87/50 56/91/50
f 52/82/51 56/88/51 57/89/51
f 53/84/52 57/89/52 58/90/52
f 54/79/53 58/90/53 59/86/53
f 55/87/54 59/86/54 60/92/54
f 56/91/55 55/87/55 60/93/55
f 57/89/56 56/88/56 60/94/56
f 58/90/57 57/89/57 60/95/57
f 59/86/58 58/90/58 60/96/58
g Food_Lump1.002_Mesh
v 0.280000 -0.342400 0.120000
v 0.656272 -0.164182 0.327765
v 0.136280 -0.164182 0.456173
v -0.185101 -0.164182 0.120000
v 0.136280 -0.164182 -0.216173
v 0.656272 -0.164182 -0.087765
v 0.423720 0.124182 0.456173
v -0.096272 0.124182 0.327765
v -0.096272 0.124182 -0.087765
v 0.423720 0.124182 -0.216173
v 0.745101 0.124182 0.120000
v 0.280000 0.302400 0.120000
vn 0.1249 -0.8535 0.5059
vn 0.4281 -0.9038 -0.0000
vn -0.3386 -0.8835 0.3237
vn -0.3386 -0.8835 -0.3237
vn 0.1249 -0.8535 -0.5059
vn 0.9557 -0.2944 -0.0000
vn 0.2332 -0.2324 0.9442
vn -0.6969 -0.2653 0.6663
vn -0.6969 -0.2653 -0.6663
vn 0.2332 -0.2324 -0.9442
vn 0.6969 0.2653 0.6663
vn -0.2332 0.2324 0.9442
vn -0.9557 0.2944 -0.0000
vn -0.2332 0.2324 -0.9442
vn 0.6969 0.2653 -0.6663
vn 0.3386 0.8835 0.3237
vn -0.1249 0.8535 0.5059
vn -0.4281 0.9038 -0.0000
vn -0.1249 0.8535 -0.5059
vn 0.3386 0.8835 -0.3237
vt 0.181819 0.000000
vt 0.272728 0.157461
vt 0.090910 0.157461
vt 0.363637 0.000000
vt 0.454546 0.157461
vt 0.909091 0.000000
vt 1.000000 0.157461
vt 0.818182 0.157461
vt 0.727273 0.000000
vt 0.636364 0.157461
vt 0.545455 0.000000
vt 0.363637 0.314921
vt 0.181819 0.314921
vt 0.909091 0.314921
vt 0.727273 0.314921
vt 0.545455 0.314921
vt 0.000000 0.314921
vt 0.272728 0.472382
vt 0.090910 0.472382
vt 0.818182 0.472382
vt 0.636364 0.472382
vt 0.454546 0.472382
s 0
g Food_Lump1.002_MAT_Sludge
usemtl MAT_Sludge
f 61/97/59 62/98/59 63/99/59
f 62/98/60 61/100/60 66/101/60
f 61/102/61 63/103/61 64/104/61
f 61/105/62 64/104/62 65/106/62
f 61/107/63 65/106/63 66/101/63
f 62/98/64 66/101/64 71/108/64
f 63/99/65 62/98/65 67/109/65
f 64/104/66 63/103/66 68/110/66
f 65/106/67 64/104/67 69/111/67
f 66/101/68 65/106/68 70/112/68
f 62/98/69 71/108/69 67/109/69
f 63/99/70 67/109/70 68/113/70
f 64/104/71 68/110/71 69/111/71
f 65/106/72 69/111/72 70/112/72
f 66/101/73 70/112/73 71/108/73
f 67/109/74 71/108/74 72/114/74
f 68/113/75 67/109/75 72/115/75
f 69/111/76 68/110/76 72/116/76
f 70/112/77 69/111/77 72/117/77
f 71/108/78 70/112/78 72/118/78
g Food_Lump2.002_Mesh
v 0.050000 -0.035600 -0.180000
v 0.324968 0.094636 -0.028172
v -0.055026 0.094636 0.065665
v -0.289881 0.094636 -0.180000
v -0.055026 0.094636 -0.425665
v 0.324968 0.094636 -0.331828
v 0.155026 0.305364 0.065665
v -0.224968 0.305364 -0.028172
v -0.224968 0.305364 -0.331828
v 0.155026 0.305364 -0.425665
v 0.389882 0.305364 -0.180000
v 0.050000 0.435600 -0.180000
vn 0.1249 -0.8535 0.5059
vn 0.4281 -0.9038 -0.0000
vn -0.3386 -0.8835 0.3237
vn -0.3386 -0.8835 -0.3237
vn 0.1249 -0.8535 -0.5059
vn 0.9557 -0.2944 -0.0000
vn 0.2332 -0.2324 0.9442
vn -0.6969 -0.2653 0.6663
vn -0.6969 -0.2653 -0.6663
vn 0.2332 -0.2324 -0.9442
vn 0.6969 0.2653 0.6663
vn -0.2332 0.2324 0.9442
vn -0.9557 0.2944 -0.0000
vn -0.2332 0.2324 -0.9442
vn 0.6969 0.2653 -0.6663
vn 0.3386 0.8835 0.3237
vn -0.1249 0.8535 0.5059
vn -0.4281 0.9038 -0.0000
vn -0.1249 0.8535 -0.5059
vn 0.3386 0.8835 -0.3237
vt 0.181819 0.000000
vt 0.272728 0.157461
vt 0.090910 0.157461
vt 0.363637 0.000000
vt 0.454546 0.157461
vt 0.909091 0.000000
vt 1.000000 0.157461
vt 0.818182 0.157461
vt 0.727273 0.000000
vt 0.636364 0.157461
vt 0.545455 0.000000
vt 0.363637 0.314921
vt 0.181819 0.314921
vt 0.909091 0.314921
vt 0.727273 0.314921
vt 0.545455 0.314921
vt 0.000000 0.314921
vt 0.272728 0.472382
vt 0.090910 0.472382
vt 0.818182 0.472382
vt 0.636364 0.472382
vt 0.454546 0.472382
s 0
g Food_Lump2.002_MAT_Sludge
usemtl MAT_Sludge
f 73/119/79 74/120/79 75/121/79
f 74/120/80 73/122/80 78/123/80
f 73/124/81 75/125/81 76/126/81
f 73/127/82 76/126/82 77/128/82
f 73/129/83 77/128/83 78/123/83
f 74/120/84 78/123/84 83/130/84
f 75/121/85 74/120/85 79/131/85
f 76/126/86 75/125/86 80/132/86
f 77/128/87 76/126/87 81/133/87
f 78/123/88 77/128/88 82/134/88
f 74/120/89 83/130/89 79/131/89
f 75/121/90 79/131/90 80/135/90
f 76/126/91 80/132/91 81/133/91
f 77/128/92 81/133/92 82/134/92
f 78/123/93 82/134/93 83/130/93
f 79/131/94 83/130/94 84/136/94
f 80/135/95 79/131/95 84/137/95
f 81/133/96 80/132/96 84/138/96
f 82/134/97 81/133/97 84/139/97
f 83/130/98 82/134/98 84/140/98
g Food_Lump3.002_Mesh
v -0.100000 0.164000 0.220000
v 0.117080 0.266818 0.339864
v -0.182916 0.266818 0.413946
v -0.368328 0.266818 0.220000
v -0.182916 0.266818 0.026054
v 0.117080 0.266818 0.100136
v -0.017085 0.433182 0.413946
v -0.317080 0.433182 0.339864
v -0.317080 0.433182 0.100136
v -0.017085 0.433182 0.026054
v 0.168327 0.433182 0.220000
v -0.100000 0.536000 0.220000
vn 0.1249 -0.8535 0.5059
vn 0.4281 -0.9038 -0.0000
vn -0.3386 -0.8835 0.3237
vn -0.3386 -0.8835 -0.3237
vn 0.1249 -0.8535 -0.5059
vn 0.9557 -0.2944 -0.0000
vn 0.2332 -0.2324 0.9442
vn -0.6969 -0.2653 0.6663
vn -0.6969 -0.2653 -0.6663
vn 0.2332 -0.2324 -0.9442
vn 0.6969 0.2653 0.6663
vn -0.2332 0.2324 0.9442
vn -0.9557 0.2944 -0.0000
vn -0.2332 0.2324 -0.9442
vn 0.6969 0.2653 -0.6663
vn 0.3386 0.8835 0.3237
vn -0.1249 0.8535 0.5059
vn -0.4281 0.9038 -0.0000
vn -0.1249 0.8535 -0.5059
vn 0.3386 0.8835 -0.3237
vt 0.181819 0.000000
vt 0.272728 0.157461
vt 0.090910 0.157461
vt 0.363637 0.000000
vt 0.454546 0.157461
vt 0.909091 0.000000
vt 1.000000 0.157461
vt 0.818182 0.157461
vt 0.727273 0.000000
vt 0.636364 0.157461
vt 0.545455 0.000000
vt 0.363637 0.314921
vt 0.181819 0.314921
vt 0.909091 0.314921
vt 0.727273 0.314921
vt 0.545455 0.314921
vt 0.000000 0.314921
vt 0.272728 0.472382
vt 0.090910 0.472382
vt 0.818182 0.472382
vt 0.636364 0.472382
vt 0.454546 0.472382
s 0
g Food_Lump3.002_MAT_Sludge
usemtl MAT_Sludge
f 85/141/99 86/142/99 87/143/99
f 86/142/100 85/144/100 90/145/100
f 85/146/101 87/147/101 88/148/101
f 85/149/102 88/148/102 89/150/102
f 85/151/103 89/150/103 90/145/103
f 86/142/104 90/145/104 95/152/104
f 87/143/105 86/142/105 91/153/105
f 88/148/106 87/147/106 92/154/106
f 89/150/107 88/148/107 93/155/107
f 90/145/108 89/150/108 94/156/108
f 86/142/109 95/152/109 91/153/109
f 87/143/110 91/153/110 92/157/110
f 88/148/111 92/154/111 93/155/111
f 89/150/112 93/155/112 94/156/112
f 90/145/113 94/156/113 95/152/113
f 91/153/114 95/152/114 96/158/114
f 92/157/115 91/153/115 96/159/115
f 93/155/116 92/154/116 96/160/116
f 94/156/117 93/155/117 96/161/117
f 95/152/118 94/156/118 96/162/118
g Sludge_Bubble.001_Mesh
v 0.320000 0.140000 0.250000
v 0.450248 0.239501 0.323601
v 0.270250 0.239501 0.369090
v 0.159003 0.239501 0.250000
v 0.270250 0.239501 0.130910
v 0.450248 0.239501 0.176399
v 0.369749 0.400499 0.369090
v 0.189752 0.400499 0.323601
v 0.189752 0.400499 0.176399
v 0.369749 0.400499 0.130910
v 0.480996 0.400499 0.250000
v 0.320000 0.500000 0.250000
vn 0.1700 -0.7201 0.6727
vn 0.6071 -0.7947 -0.0000
vn -0.4719 -0.7635 0.4408
vn -0.4719 -0.7635 -0.4408
vn 0.1700 -0.7201 -0.6727
vn 0.9822 -0.1876 -0.0000
vn 0.2423 -0.1497 0.9586
vn -0.7201 -0.1700 0.6727
vn -0.7201 -0.1700 -0.6727
vn 0.2423 -0.1497 -0.9586
vn 0.7201 0.1700 0.6727
vn -0.2423 0.1497 0.9586
vn -0.9822 0.1876 -0.0000
vn -0.2423 0.1497 -0.9586
vn 0.7201 0.1700 -0.6727
vn 0.4719 0.7635 0.4408
vn -0.1700 0.7201 0.6727
vn -0.6071 0.7947 -0.0000
vn -0.1700 0.7201 -0.6727
vn 0.4719 0.7635 -0.4408
vt 0.181819 0.000000
vt 0.272728 0.157461
vt 0.090910 0.157461
vt 0.363637 0.000000
vt 0.454546 0.157461
vt 0.909091 0.000000
vt 1.000000 0.157461
vt 0.818182 0.157461
vt 0.727273 0.000000
vt 0.636364 0.157461
vt 0.545455 0.000000
vt 0.363637 0.314921
vt 0.181819 0.314921
vt 0.909091 0.314921
vt 0.727273 0.314921
vt 0.545455 0.314921
vt 0.000000 0.314921
vt 0.272728 0.472382
vt 0.090910 0.472382
vt 0.818182 0.472382
vt 0.636364 0.472382
vt 0.454546 0.472382
s 0
g Sludge_Bubble.001_MAT_Ectoplasm
usemtl MAT_Ectoplasm
f 97/163/119 98/164/119 99/165/119
f 98/164/120 97/166/120 102/167/120
f 97/168/121 99/169/121 100/170/121
f 97/171/122 100/170/122 101/172/122
f 97/173/123 101/172/123 102/167/123
f 98/164/124 102/167/124 107/174/124
f 99/165/125 98/164/125 103/175/125
f 100/170/126 99/169/126 104/176/126
f 101/172/127 100/170/127 105/177/127
f 102/167/128 101/172/128 106/178/128
f 98/164/129 107/174/129 103/175/129
f 99/165/130 103/175/130 104/179/130
f 100/170/131 104/176/131 105/177/131
f 101/172/132 105/177/132 106/178/132
f 102/167/133 106/178/133 107/174/133
f 103/175/134 107/174/134 108/180/134
f 104/179/135 103/175/135 108/181/135
f 105/177/136 104/176/136 108/182/136
f 106/178/137 105/177/137 108/183/137
f 107/174/138 106/178/138 108/184/138
