# Second Rite deterministic completion model
# Smoke Bomb
mtllib item_complete_library.mtl
o item_168
s off
v 0.38 -0.145 0
v 0.268701 -0.145 0.268701
v 0 -0.145 0.38
v -0.268701 -0.145 0.268701
v -0.38 -0.145 0
v -0.268701 -0.145 -0.268701
v 0 -0.145 -0.38
v 0.268701 -0.145 -0.268701
v 0 0.165 0
v 0 -0.45499999999999996 0
v -0.08 0.13500000000000004 0
v -0.04 0.13500000000000004 0.069282
v 0.04 0.13500000000000004 0.069282
v 0.08 0.13500000000000004 0
v 0.04 0.13500000000000004 -0.069282
v -0.04 0.13500000000000004 -0.069282
v -0.04 0.45499999999999996 0
v -0.02 0.45499999999999996 0.034641
v 0.02 0.45499999999999996 0.034641
v 0.04 0.45499999999999996 0
v 0.02 0.45499999999999996 -0.034641
v -0.02 0.45499999999999996 -0.034641
v 0 0.13500000000000004 0
v 0 0.45499999999999996 0
usemtl wrought_iron
f 9 1 2
f 10 2 1
f 9 2 3
f 10 3 2
f 9 3 4
f 10 4 3
f 9 4 5
f 10 5 4
f 9 5 6
f 10 6 5
f 9 6 7
f 10 7 6
f 9 7 8
f 10 8 7
f 9 8 1
f 10 1 8
usemtl wax
f 23 12 11
f 24 17 18
f 11 12 18
f 11 18 17
f 23 13 12
f 24 18 19
f 12 13 19
f 12 19 18
f 23 14 13
f 24 19 20
f 13 14 20
f 13 20 19
f 23 15 14
f 24 20 21
f 14 15 21
f 14 21 20
f 23 16 15
f 24 21 22
f 15 16 22
f 15 22 21
f 23 11 16
f 24 22 17
f 16 11 17
f 16 17 22
