# food cohort: composed from tools/asset-production/parts.py
# generated by tools/asset-production/lathe.py
mtllib food_cohort.mtl
o sushi
v 0.620000 0.000000 0.000000
v 0.572805 0.000000 0.237264
v 0.438406 0.000000 0.438406
v 0.237264 0.000000 0.572805
v 0.000000 0.000000 0.620000
v -0.237264 0.000000 0.572805
v -0.438406 0.000000 0.438406
v -0.572805 0.000000 0.237264
v -0.620000 0.000000 0.000000
v -0.572805 0.000000 -0.237264
v -0.438406 0.000000 -0.438406
v -0.237264 0.000000 -0.572805
v -0.000000 0.000000 -0.620000
v 0.237264 0.000000 -0.572805
v 0.438406 0.000000 -0.438406
v 0.572805 0.000000 -0.237264
v 0.620000 0.520000 0.000000
v 0.572805 0.520000 0.237264
v 0.438406 0.520000 0.438406
v 0.237264 0.520000 0.572805
v 0.000000 0.520000 0.620000
v -0.237264 0.520000 0.572805
v -0.438406 0.520000 0.438406
v -0.572805 0.520000 0.237264
v -0.620000 0.520000 0.000000
v -0.572805 0.520000 -0.237264
v -0.438406 0.520000 -0.438406
v -0.237264 0.520000 -0.572805
v -0.000000 0.520000 -0.620000
v 0.237264 0.520000 -0.572805
v 0.438406 0.520000 -0.438406
v 0.572805 0.520000 -0.237264
v 0.000000 0.000000 0.000000
v 0.000000 0.520000 0.000000
v 0.650000 0.000000 0.000000
v 0.600522 0.000000 0.248744
v 0.459619 0.000000 0.459619
v 0.248744 0.000000 0.600522
v 0.000000 0.000000 0.650000
v -0.248744 0.000000 0.600522
v -0.459619 0.000000 0.459619
v -0.600522 0.000000 0.248744
v -0.650000 0.000000 0.000000
v -0.600522 0.000000 -0.248744
v -0.459619 0.000000 -0.459619
v -0.248744 0.000000 -0.600522
v -0.000000 0.000000 -0.650000
v 0.248744 0.000000 -0.600522
v 0.459619 0.000000 -0.459619
v 0.600522 0.000000 -0.248744
v 0.650000 0.520000 0.000000
v 0.600522 0.520000 0.248744
v 0.459619 0.520000 0.459619
v 0.248744 0.520000 0.600522
v 0.000000 0.520000 0.650000
v -0.248744 0.520000 0.600522
v -0.459619 0.520000 0.459619
v -0.600522 0.520000 0.248744
v -0.650000 0.520000 0.000000
v -0.600522 0.520000 -0.248744
v -0.459619 0.520000 -0.459619
v -0.248744 0.520000 -0.600522
v -0.000000 0.520000 -0.650000
v 0.248744 0.520000 -0.600522
v 0.459619 0.520000 -0.459619
v 0.600522 0.520000 -0.248744
v 0.000000 0.000000 0.000000
v 0.000000 0.520000 0.000000
v 0.580000 0.520000 0.000000
v 0.522562 0.520000 0.251653
v 0.361624 0.520000 0.453462
v 0.129062 0.520000 0.565458
v -0.129062 0.520000 0.565458
v -0.361624 0.520000 0.453462
v -0.522562 0.520000 0.251653
v -0.580000 0.520000 0.000000
v -0.522562 0.520000 -0.251653
v -0.361624 0.520000 -0.453462
v -0.129062 0.520000 -0.565458
v 0.129062 0.520000 -0.565458
v 0.361624 0.520000 -0.453462
v 0.522562 0.520000 -0.251653
v 0.573999 0.571764 0.000000
v 0.517155 0.571764 0.249049
v 0.357883 0.571764 0.448770
v 0.127727 0.571764 0.559608
v -0.127727 0.571764 0.559608
v -0.357883 0.571764 0.448770
v -0.517155 0.571764 0.249049
v -0.573999 0.571764 0.000000
v -0.517155 0.571764 -0.249049
v -0.357883 0.571764 -0.448770
v -0.127727 0.571764 -0.559608
v 0.127727 0.571764 -0.559608
v 0.357883 0.571764 -0.448770
v 0.517155 0.571764 -0.249049
v 0.555504 0.620000 0.000000
v 0.500492 0.620000 0.241024
v 0.346351 0.620000 0.434311
v 0.123611 0.620000 0.541576
v -0.123611 0.620000 0.541576
v -0.346351 0.620000 0.434311
v -0.500492 0.620000 0.241024
v -0.555504 0.620000 0.000000
v -0.500492 0.620000 -0.241024
v -0.346351 0.620000 -0.434311
v -0.123611 0.620000 -0.541576
v 0.123611 0.620000 -0.541576
v 0.346351 0.620000 -0.434311
v 0.500492 0.620000 -0.241024
v 0.522725 0.661421 0.000000
v 0.470959 0.661421 0.226802
v 0.325914 0.661421 0.408683
v 0.116317 0.661421 0.509619
v -0.116317 0.661421 0.509619
v -0.325914 0.661421 0.408683
v -0.470959 0.661421 0.226802
v -0.522725 0.661421 0.000000
v -0.470959 0.661421 -0.226802
v -0.325914 0.661421 -0.408683
v -0.116317 0.661421 -0.509619
v 0.116317 0.661421 -0.509619
v 0.325914 0.661421 -0.408683
v 0.470959 0.661421 -0.226802
v 0.471106 0.693205 0.000000
v 0.424452 0.693205 0.204405
v 0.293730 0.693205 0.368326
v 0.104831 0.693205 0.459295
v -0.104831 0.693205 0.459295
v -0.293730 0.693205 0.368326
v -0.424452 0.693205 0.204405
v -0.471106 0.693205 0.000000
v -0.424452 0.693205 -0.204405
v -0.293730 0.693205 -0.368326
v -0.104831 0.693205 -0.459295
v 0.104831 0.693205 -0.459295
v 0.293730 0.693205 -0.368326
v 0.424452 0.693205 -0.204405
v 0.386658 0.713185 0.000000
v 0.348367 0.713185 0.167765
v 0.241077 0.713185 0.302301
v 0.086039 0.713185 0.376964
v -0.086039 0.713185 0.376964
v -0.241077 0.713185 0.302301
v -0.348367 0.713185 0.167765
v -0.386658 0.713185 0.000000
v -0.348367 0.713185 -0.167765
v -0.241077 0.713185 -0.302301
v -0.086039 0.713185 -0.376964
v 0.086039 0.713185 -0.376964
v 0.241077 0.713185 -0.302301
v 0.348367 0.713185 -0.167765
v 0.000000 0.720000 0.000000
v 0.000000 0.520000 0.000000
vt 0.000000 0.000000
vt 0.062500 0.000000
vt 0.125000 0.000000
vt 0.187500 0.000000
vt 0.250000 0.000000
vt 0.312500 0.000000
vt 0.375000 0.000000
vt 0.437500 0.000000
vt 0.500000 0.000000
vt 0.562500 0.000000
vt 0.625000 0.000000
vt 0.687500 0.000000
vt 0.750000 0.000000
vt 0.812500 0.000000
vt 0.875000 0.000000
vt 0.937500 0.000000
vt 0.000000 1.000000
vt 0.062500 1.000000
vt 0.125000 1.000000
vt 0.187500 1.000000
vt 0.250000 1.000000
vt 0.312500 1.000000
vt 0.375000 1.000000
vt 0.437500 1.000000
vt 0.500000 1.000000
vt 0.562500 1.000000
vt 0.625000 1.000000
vt 0.687500 1.000000
vt 0.750000 1.000000
vt 0.812500 1.000000
vt 0.875000 1.000000
vt 0.937500 1.000000
vt 0.500000 0.000000
vt 0.500000 1.000000
vt 0.000000 0.000000
vt 0.062500 0.000000
vt 0.125000 0.000000
vt 0.187500 0.000000
vt 0.250000 0.000000
vt 0.312500 0.000000
vt 0.375000 0.000000
vt 0.437500 0.000000
vt 0.500000 0.000000
vt 0.562500 0.000000
vt 0.625000 0.000000
vt 0.687500 0.000000
vt 0.750000 0.000000
vt 0.812500 0.000000
vt 0.875000 0.000000
vt 0.937500 0.000000
vt 0.000000 1.000000
vt 0.062500 1.000000
vt 0.125000 1.000000
vt 0.187500 1.000000
vt 0.250000 1.000000
vt 0.312500 1.000000
vt 0.375000 1.000000
vt 0.437500 1.000000
vt 0.500000 1.000000
vt 0.562500 1.000000
vt 0.625000 1.000000
vt 0.687500 1.000000
vt 0.750000 1.000000
vt 0.812500 1.000000
vt 0.875000 1.000000
vt 0.937500 1.000000
vt 0.500000 0.000000
vt 0.500000 1.000000
vt 0.000000 0.000000
vt 0.071429 0.000000
vt 0.142857 0.000000
vt 0.214286 0.000000
vt 0.285714 0.000000
vt 0.357143 0.000000
vt 0.428571 0.000000
vt 0.500000 0.000000
vt 0.571429 0.000000
vt 0.642857 0.000000
vt 0.714286 0.000000
vt 0.785714 0.000000
vt 0.857143 0.000000
vt 0.928571 0.000000
vt 0.000000 0.075445
vt 0.071429 0.075445
vt 0.142857 0.075445
vt 0.214286 0.075445
vt 0.285714 0.075445
vt 0.357143 0.075445
vt 0.428571 0.075445
vt 0.500000 0.075445
vt 0.571429 0.075445
vt 0.642857 0.075445
vt 0.714286 0.075445
vt 0.785714 0.075445
vt 0.857143 0.075445
vt 0.928571 0.075445
vt 0.000000 0.150238
vt 0.071429 0.150238
vt 0.142857 0.150238
vt 0.214286 0.150238
vt 0.285714 0.150238
vt 0.357143 0.150238
vt 0.428571 0.150238
vt 0.500000 0.150238
vt 0.571429 0.150238
vt 0.642857 0.150238
vt 0.714286 0.150238
vt 0.785714 0.150238
vt 0.857143 0.150238
vt 0.928571 0.150238
vt 0.000000 0.226713
vt 0.071429 0.226713
vt 0.142857 0.226713
vt 0.214286 0.226713
vt 0.285714 0.226713
vt 0.357143 0.226713
vt 0.428571 0.226713
vt 0.500000 0.226713
vt 0.571429 0.226713
vt 0.642857 0.226713
vt 0.714286 0.226713
vt 0.785714 0.226713
vt 0.857143 0.226713
vt 0.928571 0.226713
vt 0.000000 0.314477
vt 0.071429 0.314477
vt 0.142857 0.314477
vt 0.214286 0.314477
vt 0.285714 0.314477
vt 0.357143 0.314477
vt 0.428571 0.314477
vt 0.500000 0.314477
vt 0.571429 0.314477
vt 0.642857 0.314477
vt 0.714286 0.314477
vt 0.785714 0.314477
vt 0.857143 0.314477
vt 0.928571 0.314477
vt 0.000000 0.440116
vt 0.071429 0.440116
vt 0.142857 0.440116
vt 0.214286 0.440116
vt 0.285714 0.440116
vt 0.357143 0.440116
vt 0.428571 0.440116
vt 0.500000 0.440116
vt 0.571429 0.440116
vt 0.642857 0.440116
vt 0.714286 0.440116
vt 0.785714 0.440116
vt 0.857143 0.440116
vt 0.928571 0.440116
vt 0.000000 1.000000
vt 0.076923 1.000000
vt 0.153846 1.000000
vt 0.230769 1.000000
vt 0.307692 1.000000
vt 0.384615 1.000000
vt 0.461538 1.000000
vt 0.538462 1.000000
vt 0.615385 1.000000
vt 0.692308 1.000000
vt 0.769231 1.000000
vt 0.846154 1.000000
vt 0.923077 1.000000
vt 1.000000 1.000000
vt 0.500000 0.000000
vn -1.000000 0.000000 0.000000
vn -0.923880 0.000000 -0.382683
vn -0.707107 0.000000 -0.707107
vn -0.382683 0.000000 -0.923880
vn 0.000000 0.000000 -1.000000
vn 0.382683 0.000000 -0.923880
vn 0.707107 0.000000 -0.707107
vn 0.923880 0.000000 -0.382683
vn 1.000000 0.000000 -0.000000
vn 0.923880 0.000000 0.382683
vn 0.707107 0.000000 0.707107
vn 0.382683 0.000000 0.923880
vn 0.000000 0.000000 1.000000
vn -0.382683 0.000000 0.923880
vn -0.707107 0.000000 0.707107
vn -0.923880 0.000000 0.382683
vn 0.000000 -1.000000 0.000000
vn 0.000000 1.000000 0.000000
vn -0.993347 -0.115159 0.000000
vn -0.894975 -0.115159 -0.430997
vn -0.874940 -0.238631 -0.421349
vn -0.971110 -0.238631 0.000000
vn -0.619342 -0.115159 -0.776630
vn -0.605477 -0.238631 -0.759245
vn -0.221041 -0.115159 -0.968442
vn -0.216092 -0.238631 -0.946762
vn 0.221041 -0.115159 -0.968442
vn 0.216092 -0.238631 -0.946762
vn 0.619342 -0.115159 -0.776630
vn 0.605477 -0.238631 -0.759245
vn 0.894975 -0.115159 -0.430997
vn 0.874940 -0.238631 -0.421349
vn 0.993347 -0.115159 -0.000000
vn 0.971110 -0.238631 -0.000000
vn 0.894975 -0.115159 0.430997
vn 0.874940 -0.238631 0.421349
vn 0.619342 -0.115159 0.776630
vn 0.605477 -0.238631 0.759245
vn 0.221041 -0.115159 0.968442
vn 0.216092 -0.238631 0.946762
vn -0.221041 -0.115159 0.968442
vn -0.216092 -0.238631 0.946762
vn -0.619342 -0.115159 0.776630
vn -0.605477 -0.238631 0.759245
vn -0.894975 -0.115159 0.430997
vn -0.874940 -0.238631 0.421349
vn -0.782646 -0.495389 -0.376902
vn -0.868671 -0.495389 0.000000
vn -0.541608 -0.495389 -0.679155
vn -0.193298 -0.495389 -0.846892
vn 0.193298 -0.495389 -0.846892
vn 0.541608 -0.495389 -0.679155
vn 0.782646 -0.495389 -0.376902
vn 0.868671 -0.495389 -0.000000
vn 0.782646 -0.495389 0.376902
vn 0.541608 -0.495389 0.679155
vn 0.193298 -0.495389 0.846892
vn -0.193298 -0.495389 0.846892
vn -0.541608 -0.495389 0.679155
vn -0.782646 -0.495389 0.376902
vn -0.598050 -0.747923 -0.288006
vn -0.663785 -0.747923 -0.000000
vn -0.413863 -0.747923 -0.518968
vn -0.147706 -0.747923 -0.647143
vn 0.147706 -0.747923 -0.647143
vn 0.413863 -0.747923 -0.518968
vn 0.598050 -0.747923 -0.288006
vn 0.663785 -0.747923 -0.000000
vn 0.598050 -0.747923 0.288006
vn 0.413863 -0.747923 0.518968
vn 0.147706 -0.747923 0.647143
vn -0.147706 -0.747923 0.647143
vn -0.413863 -0.747923 0.518968
vn -0.598050 -0.747923 0.288006
vn -0.343917 -0.924278 -0.165622
vn -0.381719 -0.924278 0.000000
vn -0.237998 -0.924278 -0.298440
vn -0.084940 -0.924278 -0.372148
vn 0.084940 -0.924278 -0.372148
vn 0.237998 -0.924278 -0.298440
vn 0.343917 -0.924278 -0.165622
vn 0.381719 -0.924278 -0.000000
vn 0.343917 -0.924278 0.165622
vn 0.237998 -0.924278 0.298440
vn 0.084940 -0.924278 0.372148
vn -0.084940 -0.924278 0.372148
vn -0.237998 -0.924278 0.298440
vn -0.343917 -0.924278 0.165622
vn -0.112238 -0.992210 -0.054051
vn -0.124575 -0.992210 0.000000
vn -0.077671 -0.992210 -0.097396
vn -0.027720 -0.992210 -0.121451
vn 0.027720 -0.992210 -0.121451
vn 0.077671 -0.992210 -0.097396
vn 0.112238 -0.992210 -0.054051
vn 0.124575 -0.992210 -0.000000
vn 0.112238 -0.992210 0.054051
vn 0.077671 -0.992210 0.097396
vn 0.027720 -0.992210 0.121451
vn -0.027720 -0.992210 0.121451
vn -0.077671 -0.992210 0.097396
vn -0.112238 -0.992210 0.054051
usemtl old_limestone
s 1
f 1/1/1 2/2/2 18/18/2 17/17/1
s 1
f 2/2/2 3/3/3 19/19/3 18/18/2
s 1
f 3/3/3 4/4/4 20/20/4 19/19/3
s 1
f 4/4/4 5/5/5 21/21/5 20/20/4
s 1
f 5/5/5 6/6/6 22/22/6 21/21/5
s 1
f 6/6/6 7/7/7 23/23/7 22/22/6
s 1
f 7/7/7 8/8/8 24/24/8 23/23/7
s 1
f 8/8/8 9/9/9 25/25/9 24/24/8
s 1
f 9/9/9 10/10/10 26/26/10 25/25/9
s 1
f 10/10/10 11/11/11 27/27/11 26/26/10
s 1
f 11/11/11 12/12/12 28/28/12 27/27/11
s 1
f 12/12/12 13/13/13 29/29/13 28/28/12
s 1
f 13/13/13 14/14/14 30/30/14 29/29/13
s 1
f 14/14/14 15/15/15 31/31/15 30/30/14
s 1
f 15/15/15 16/16/16 32/32/16 31/31/15
s 1
f 16/16/16 1/1/1 17/17/1 32/32/16
s off
f 33/33/17 1/1/17 2/2/17
s off
f 33/33/17 2/2/17 3/3/17
s off
f 33/33/17 3/3/17 4/4/17
s off
f 33/33/17 4/4/17 5/5/17
s off
f 33/33/17 5/5/17 6/6/17
s off
f 33/33/17 6/6/17 7/7/17
s off
f 33/33/17 7/7/17 8/8/17
s off
f 33/33/17 8/8/17 9/9/17
s off
f 33/33/17 9/9/17 10/10/17
s off
f 33/33/17 10/10/17 11/11/17
s off
f 33/33/17 11/11/17 12/12/17
s off
f 33/33/17 12/12/17 13/13/17
s off
f 33/33/17 13/13/17 14/14/17
s off
f 33/33/17 14/14/17 15/15/17
s off
f 33/33/17 15/15/17 16/16/17
s off
f 33/33/17 16/16/17 1/1/17
s off
f 34/34/18 18/18/18 17/17/18
s off
f 34/34/18 19/19/18 18/18/18
s off
f 34/34/18 20/20/18 19/19/18
s off
f 34/34/18 21/21/18 20/20/18
s off
f 34/34/18 22/22/18 21/21/18
s off
f 34/34/18 23/23/18 22/22/18
s off
f 34/34/18 24/24/18 23/23/18
s off
f 34/34/18 25/25/18 24/24/18
s off
f 34/34/18 26/26/18 25/25/18
s off
f 34/34/18 27/27/18 26/26/18
s off
f 34/34/18 28/28/18 27/27/18
s off
f 34/34/18 29/29/18 28/28/18
s off
f 34/34/18 30/30/18 29/29/18
s off
f 34/34/18 31/31/18 30/30/18
s off
f 34/34/18 32/32/18 31/31/18
s off
f 34/34/18 17/17/18 32/32/18
usemtl dark_wood
s 2
f 35/35/1 36/36/2 52/52/2 51/51/1
s 2
f 36/36/2 37/37/3 53/53/3 52/52/2
s 2
f 37/37/3 38/38/4 54/54/4 53/53/3
s 2
f 38/38/4 39/39/5 55/55/5 54/54/4
s 2
f 39/39/5 40/40/6 56/56/6 55/55/5
s 2
f 40/40/6 41/41/7 57/57/7 56/56/6
s 2
f 41/41/7 42/42/8 58/58/8 57/57/7
s 2
f 42/42/8 43/43/9 59/59/9 58/58/8
s 2
f 43/43/9 44/44/10 60/60/10 59/59/9
s 2
f 44/44/10 45/45/11 61/61/11 60/60/10
s 2
f 45/45/11 46/46/12 62/62/12 61/61/11
s 2
f 46/46/12 47/47/13 63/63/13 62/62/12
s 2
f 47/47/13 48/48/14 64/64/14 63/63/13
s 2
f 48/48/14 49/49/15 65/65/15 64/64/14
s 2
f 49/49/15 50/50/16 66/66/16 65/65/15
s 2
f 50/50/16 35/35/1 51/51/1 66/66/16
s off
f 67/67/17 35/35/17 36/36/17
s off
f 67/67/17 36/36/17 37/37/17
s off
f 67/67/17 37/37/17 38/38/17
s off
f 67/67/17 38/38/17 39/39/17
s off
f 67/67/17 39/39/17 40/40/17
s off
f 67/67/17 40/40/17 41/41/17
s off
f 67/67/17 41/41/17 42/42/17
s off
f 67/67/17 42/42/17 43/43/17
s off
f 67/67/17 43/43/17 44/44/17
s off
f 67/67/17 44/44/17 45/45/17
s off
f 67/67/17 45/45/17 46/46/17
s off
f 67/67/17 46/46/17 47/47/17
s off
f 67/67/17 47/47/17 48/48/17
s off
f 67/67/17 48/48/17 49/49/17
s off
f 67/67/17 49/49/17 50/50/17
s off
f 67/67/17 50/50/17 35/35/17
s off
f 68/68/18 52/52/18 51/51/18
s off
f 68/68/18 53/53/18 52/52/18
s off
f 68/68/18 54/54/18 53/53/18
s off
f 68/68/18 55/55/18 54/54/18
s off
f 68/68/18 56/56/18 55/55/18
s off
f 68/68/18 57/57/18 56/56/18
s off
f 68/68/18 58/58/18 57/57/18
s off
f 68/68/18 59/59/18 58/58/18
s off
f 68/68/18 60/60/18 59/59/18
s off
f 68/68/18 61/61/18 60/60/18
s off
f 68/68/18 62/62/18 61/61/18
s off
f 68/68/18 63/63/18 62/62/18
s off
f 68/68/18 64/64/18 63/63/18
s off
f 68/68/18 65/65/18 64/64/18
s off
f 68/68/18 66/66/18 65/65/18
s off
f 68/68/18 51/51/18 66/66/18
usemtl bone
s 3
f 69/69/19 70/70/20 84/84/21 83/83/22
s 3
f 70/70/20 71/71/23 85/85/24 84/84/21
s 3
f 71/71/23 72/72/25 86/86/26 85/85/24
s 3
f 72/72/25 73/73/27 87/87/28 86/86/26
s 3
f 73/73/27 74/74/29 88/88/30 87/87/28
s 3
f 74/74/29 75/75/31 89/89/32 88/88/30
s 3
f 75/75/31 76/76/33 90/90/34 89/89/32
s 3
f 76/76/33 77/77/35 91/91/36 90/90/34
s 3
f 77/77/35 78/78/37 92/92/38 91/91/36
s 3
f 78/78/37 79/79/39 93/93/40 92/92/38
s 3
f 79/79/39 80/80/41 94/94/42 93/93/40
s 3
f 80/80/41 81/81/43 95/95/44 94/94/42
s 3
f 81/81/43 82/82/45 96/96/46 95/95/44
s 3
f 82/82/45 69/69/19 83/83/22 96/96/46
s 3
f 83/83/22 84/84/21 98/98/47 97/97/48
s 3
f 84/84/21 85/85/24 99/99/49 98/98/47
s 3
f 85/85/24 86/86/26 100/100/50 99/99/49
s 3
f 86/86/26 87/87/28 101/101/51 100/100/50
s 3
f 87/87/28 88/88/30 102/102/52 101/101/51
s 3
f 88/88/30 89/89/32 103/103/53 102/102/52
s 3
f 89/89/32 90/90/34 104/104/54 103/103/53
s 3
f 90/90/34 91/91/36 105/105/55 104/104/54
s 3
f 91/91/36 92/92/38 106/106/56 105/105/55
s 3
f 92/92/38 93/93/40 107/107/57 106/106/56
s 3
f 93/93/40 94/94/42 108/108/58 107/107/57
s 3
f 94/94/42 95/95/44 109/109/59 108/108/58
s 3
f 95/95/44 96/96/46 110/110/60 109/109/59
s 3
f 96/96/46 83/83/22 97/97/48 110/110/60
s 3
f 97/97/48 98/98/47 112/112/61 111/111/62
s 3
f 98/98/47 99/99/49 113/113/63 112/112/61
s 3
f 99/99/49 100/100/50 114/114/64 113/113/63
s 3
f 100/100/50 101/101/51 115/115/65 114/114/64
s 3
f 101/101/51 102/102/52 116/116/66 115/115/65
s 3
f 102/102/52 103/103/53 117/117/67 116/116/66
s 3
f 103/103/53 104/104/54 118/118/68 117/117/67
s 3
f 104/104/54 105/105/55 119/119/69 118/118/68
s 3
f 105/105/55 106/106/56 120/120/70 119/119/69
s 3
f 106/106/56 107/107/57 121/121/71 120/120/70
s 3
f 107/107/57 108/108/58 122/122/72 121/121/71
s 3
f 108/108/58 109/109/59 123/123/73 122/122/72
s 3
f 109/109/59 110/110/60 124/124/74 123/123/73
s 3
f 110/110/60 97/97/48 111/111/62 124/124/74
s 3
f 111/111/62 112/112/61 126/126/75 125/125/76
s 3
f 112/112/61 113/113/63 127/127/77 126/126/75
s 3
f 113/113/63 114/114/64 128/128/78 127/127/77
s 3
f 114/114/64 115/115/65 129/129/79 128/128/78
s 3
f 115/115/65 116/116/66 130/130/80 129/129/79
s 3
f 116/116/66 117/117/67 131/131/81 130/130/80
s 3
f 117/117/67 118/118/68 132/132/82 131/131/81
s 3
f 118/118/68 119/119/69 133/133/83 132/132/82
s 3
f 119/119/69 120/120/70 134/134/84 133/133/83
s 3
f 120/120/70 121/121/71 135/135/85 134/134/84
s 3
f 121/121/71 122/122/72 136/136/86 135/135/85
s 3
f 122/122/72 123/123/73 137/137/87 136/136/86
s 3
f 123/123/73 124/124/74 138/138/88 137/137/87
s 3
f 124/124/74 111/111/62 125/125/76 138/138/88
s 3
f 125/125/76 126/126/75 140/140/89 139/139/90
s 3
f 126/126/75 127/127/77 141/141/91 140/140/89
s 3
f 127/127/77 128/128/78 142/142/92 141/141/91
s 3
f 128/128/78 129/129/79 143/143/93 142/142/92
s 3
f 129/129/79 130/130/80 144/144/94 143/143/93
s 3
f 130/130/80 131/131/81 145/145/95 144/144/94
s 3
f 131/131/81 132/132/82 146/146/96 145/145/95
s 3
f 132/132/82 133/133/83 147/147/97 146/146/96
s 3
f 133/133/83 134/134/84 148/148/98 147/147/97
s 3
f 134/134/84 135/135/85 149/149/99 148/148/98
s 3
f 135/135/85 136/136/86 150/150/100 149/149/99
s 3
f 136/136/86 137/137/87 151/151/101 150/150/100
s 3
f 137/137/87 138/138/88 152/152/102 151/151/101
s 3
f 138/138/88 125/125/76 139/139/90 152/152/102
s 3
f 139/139/90 140/140/89 153/153/17
s 3
f 140/140/89 141/141/91 153/154/17
s 3
f 141/141/91 142/142/92 153/155/17
s 3
f 142/142/92 143/143/93 153/156/17
s 3
f 143/143/93 144/144/94 153/157/17
s 3
f 144/144/94 145/145/95 153/158/17
s 3
f 145/145/95 146/146/96 153/159/17
s 3
f 146/146/96 147/147/97 153/160/17
s 3
f 147/147/97 148/148/98 153/161/17
s 3
f 148/148/98 149/149/99 153/162/17
s 3
f 149/149/99 150/150/100 153/163/17
s 3
f 150/150/100 151/151/101 153/164/17
s 3
f 151/151/101 152/152/102 153/165/17
s 3
f 152/152/102 139/139/90 153/166/17
s off
f 154/167/17 69/69/17 70/70/17
s off
f 154/167/17 70/70/17 71/71/17
s off
f 154/167/17 71/71/17 72/72/17
s off
f 154/167/17 72/72/17 73/73/17
s off
f 154/167/17 73/73/17 74/74/17
s off
f 154/167/17 74/74/17 75/75/17
s off
f 154/167/17 75/75/17 76/76/17
s off
f 154/167/17 76/76/17 77/77/17
s off
f 154/167/17 77/77/17 78/78/17
s off
f 154/167/17 78/78/17 79/79/17
s off
f 154/167/17 79/79/17 80/80/17
s off
f 154/167/17 80/80/17 81/81/17
s off
f 154/167/17 81/81/17 82/82/17
s off
f 154/167/17 82/82/17 69/69/17
