# Blender 5.0.1
# www.blender.org
mtllib tome_wind_blade.mtl
g Tome_Corner-0.001_Mesh
v 0.605600 -0.920000 0.517200
v 0.605600 -0.914400 0.520000
v 0.600000 -0.914400 0.517200
v 0.605600 -0.605600 0.520000
v 0.605600 -0.600000 0.517200
v 0.600000 -0.605600 0.517200
v 0.605600 -0.920000 0.362800
v 0.600000 -0.914400 0.362800
v 0.605600 -0.914400 0.360000
v 0.605600 -0.600000 0.362800
v 0.605600 -0.605600 0.360000
v 0.600000 -0.605600 0.362800
v 0.914400 -0.920000 0.517200
v 0.920000 -0.914400 0.517200
v 0.914400 -0.914400 0.520000
v 0.914400 -0.600000 0.517200
v 0.914400 -0.605600 0.520000
v 0.920000 -0.605600 0.517200
v 0.914400 -0.920000 0.362800
v 0.914400 -0.914400 0.360000
v 0.920000 -0.914400 0.362800
v 0.914400 -0.600000 0.362800
v 0.920000 -0.605600 0.362800
v 0.914400 -0.605600 0.360000
vn -0.4082 -0.4082 0.8165
vn -0.4082 0.4082 0.8165
vn -0.4082 -0.4082 -0.8165
vn -0.4082 0.4082 -0.8165
vn 0.4082 -0.4082 0.8165
vn 0.4082 0.4082 0.8165
vn 0.4082 -0.4082 -0.8165
vn 0.4082 0.4082 -0.8165
vn -0.7071 -0.7071 -0.0000
vn -0.4472 -0.0000 0.8944
vn -0.7071 0.7071 -0.0000
vn -0.4472 -0.0000 -0.8944
vn -0.0000 -0.4472 -0.8944
vn -0.0000 0.4472 -0.8944
vn 0.4472 -0.0000 -0.8944
vn 0.7071 -0.7071 -0.0000
vn 0.7071 0.7071 -0.0000
vn 0.4472 -0.0000 0.8944
vn -0.0000 -0.4472 0.8944
vn -0.0000 0.4472 0.8944
vn -0.0000 -1.0000 -0.0000
vn -1.0000 -0.0000 -0.0000
vn -0.0000 -0.0000 1.0000
vn -0.0000 1.0000 -0.0000
vn -0.0000 -0.0000 -1.0000
vn 1.0000 -0.0000 -0.0000
vt 0.129375 0.745625
vt 0.129375 0.750000
vt 0.125000 0.745625
vt 0.620625 0.000000
vt 0.625000 0.004375
vt 0.620625 0.004375
vt 0.129375 0.504375
vt 0.125000 0.504375
vt 0.129375 0.500000
vt 0.625000 0.248542
vt 0.620625 0.253281
vt 0.620625 0.245625
vt 0.370625 0.745625
vt 0.378281 0.745625
vt 0.375000 0.752187
vt 0.627187 0.750000
vt 0.620625 0.754375
vt 0.620625 0.746719
vt 0.370625 0.504375
vt 0.375000 0.497813
vt 0.378281 0.504375
vt 0.627187 0.500000
vt 0.620625 0.503281
vt 0.620625 0.495625
vt 0.379375 0.004375
vt 0.379375 0.000000
vt 0.379375 0.254375
vt 0.625000 0.995625
vt 0.379375 0.245625
vt 0.379375 0.995625
vt 0.870625 0.504375
vt 0.620625 0.995625
vt 0.870625 0.745625
s 0
g Tome_Corner-0.001_MAT_OldGold
usemtl MAT_OldGold
f 1/1/1 2/2/1 3/3/1
f 4/4/2 5/5/2 6/6/2
f 7/7/3 8/8/3 9/9/3
f 10/10/4 11/11/4 12/12/4
f 13/13/5 14/14/5 15/15/5
f 16/16/6 17/17/6 18/18/6
f 19/19/7 20/20/7 21/21/7
f 22/22/8 23/23/8 24/24/8
f 1/1/9 8/8/9 7/7/9
f 4/4/10 3/25/10 2/26/10
f 10/10/11 6/6/11 5/5/11
f 9/27/12 12/12/12 11/11/12
f 7/7/13 20/20/13 19/19/13
f 22/22/14 11/11/14 10/10/14
f 21/21/15 24/24/15 23/23/15
f 19/19/16 14/14/16 13/13/16
f 16/16/17 23/23/17 22/22/17
f 15/15/18 18/18/18 17/17/18
f 13/13/19 2/2/19 1/1/19
f 5/28/20 17/17/20 16/16/20
f 19/19/21 1/1/21 7/7/21
f 6/6/22 8/29/22 3/25/22
f 17/17/23 2/30/23 15/15/23
f 10/31/24 16/16/24 22/22/24
f 11/11/25 20/20/25 9/27/25
f 23/23/26 14/14/26 21/21/26
f 1/1/9 3/3/9 8/8/9
f 4/4/10 6/6/10 3/25/10
f 10/10/11 12/12/11 6/6/11
f 9/27/12 8/29/12 12/12/12
f 7/7/13 9/9/13 20/20/13
f 22/22/14 24/24/14 11/11/14
f 21/21/15 20/20/15 24/24/15
f 19/19/16 21/21/16 14/14/16
f 16/16/17 18/18/17 23/23/17
f 15/15/18 14/14/18 18/18/18
f 13/13/19 15/15/19 2/2/19
f 5/28/20 4/32/20 17/17/20
f 19/19/21 13/13/21 1/1/21
f 6/6/22 12/12/22 8/29/22
f 17/17/23 4/32/23 2/30/23
f 10/31/24 5/33/24 16/16/24
f 11/11/25 24/24/25 20/20/25
f 23/23/26 18/18/26 14/14/26
g Tome_Corner0.001_Mesh
v 0.605600 0.620000 0.517200
v 0.605600 0.625600 0.520000
v 0.600000 0.625600 0.517200
v 0.605600 0.934400 0.520000
v 0.605600 0.940000 0.517200
v 0.600000 0.934400 0.517200
v 0.605600 0.620000 0.362800
v 0.600000 0.625600 0.362800
v 0.605600 0.625600 0.360000
v 0.605600 0.940000 0.362800
v 0.605600 0.934400 0.360000
v 0.600000 0.934400 0.362800
v 0.914400 0.620000 0.517200
v 0.920000 0.625600 0.517200
v 0.914400 0.625600 0.520000
v 0.914400 0.940000 0.517200
v 0.914400 0.934400 0.520000
v 0.920000 0.934400 0.517200
v 0.914400 0.620000 0.362800
v 0.914400 0.625600 0.360000
v 0.920000 0.625600 0.362800
v 0.914400 0.940000 0.362800
v 0.920000 0.934400 0.362800
v 0.914400 0.934400 0.360000
vn -0.4082 -0.4082 0.8165
vn -0.4082 0.4082 0.8165
vn -0.4082 -0.4082 -0.8165
vn -0.4082 0.4082 -0.8165
vn 0.4082 -0.4082 0.8165
vn 0.4082 0.4082 0.8165
vn 0.4082 -0.4082 -0.8165
vn 0.4082 0.4082 -0.8165
vn -0.7071 -0.7071 -0.0000
vn -0.4472 -0.0000 0.8944
vn -0.7071 0.7071 -0.0000
vn -0.4472 -0.0000 -0.8944
vn -0.0000 -0.4472 -0.8944
vn -0.0000 0.4472 -0.8944
vn 0.4472 -0.0000 -0.8944
vn 0.7071 -0.7071 -0.0000
vn 0.7071 0.7071 -0.0000
vn 0.4472 -0.0000 0.8944
vn -0.0000 -0.4472 0.8944
vn -0.0000 0.4472 0.8944
vn -0.0000 -1.0000 -0.0000
vn -1.0000 -0.0000 -0.0000
vn -0.0000 -0.0000 1.0000
vn -0.0000 1.0000 -0.0000
vn -0.0000 -0.0000 -1.0000
vn 1.0000 -0.0000 -0.0000
vt 0.129375 0.745625
vt 0.129375 0.750000
vt 0.125000 0.745625
vt 0.620625 0.000000
vt 0.625000 0.004375
vt 0.620625 0.004375
vt 0.129375 0.504375
vt 0.125000 0.504375
vt 0.129375 0.500000
vt 0.625000 0.248542
vt 0.620625 0.253281
vt 0.620625 0.245625
vt 0.370625 0.745625
vt 0.378281 0.745625
vt 0.375000 0.752187
vt 0.627187 0.750000
vt 0.620625 0.754375
vt 0.620625 0.746719
vt 0.370625 0.504375
vt 0.375000 0.497813
vt 0.378281 0.504375
vt 0.627187 0.500000
vt 0.620625 0.503281
vt 0.620625 0.495625
vt 0.379375 0.004375
vt 0.379375 0.000000
vt 0.379375 0.254375
vt 0.625000 0.995625
vt 0.379375 0.245625
vt 0.379375 0.995625
vt 0.870625 0.504375
vt 0.620625 0.995625
vt 0.870625 0.745625
s 0
g Tome_Corner0.001_MAT_OldGold
usemtl MAT_OldGold
f 25/34/27 26/35/27 27/36/27
f 28/37/28 29/38/28 30/39/28
f 31/40/29 32/41/29 33/42/29
f 34/43/30 35/44/30 36/45/30
f 37/46/31 38/47/31 39/48/31
f 40/49/32 41/50/32 42/51/32
f 43/52/33 44/53/33 45/54/33
f 46/55/34 47/56/34 48/57/34
f 25/34/35 32/41/35 31/40/35
f 28/37/36 27/58/36 26/59/36
f 34/43/37 30/39/37 29/38/37
f 33/60/38 36/45/38 35/44/38
f 31/40/39 44/53/39 43/52/39
f 46/55/40 35/44/40 34/43/40
f 45/54/41 48/57/41 47/56/41
f 43/52/42 38/47/42 37/46/42
f 40/49/43 47/56/43 46/55/43
f 39/48/44 42/51/44 41/50/44
f 37/46/45 26/35/45 25/34/45
f 29/61/46 41/50/46 40/49/46
f 43/52/47 25/34/47 31/40/47
f 30/39/48 32/62/48 27/58/48
f 41/50/49 26/63/49 39/48/49
f 34/64/50 40/49/50 46/55/50
f 35/44/51 44/53/51 33/60/51
f 47/56/52 38/47/52 45/54/52
f 25/34/35 27/36/35 32/41/35
f 28/37/36 30/39/36 27/58/36
f 34/43/37 36/45/37 30/39/37
f 33/60/38 32/62/38 36/45/38
f 31/40/39 33/42/39 44/53/39
f 46/55/40 48/57/40 35/44/40
f 45/54/41 44/53/41 48/57/41
f 43/52/42 45/54/42 38/47/42
f 40/49/43 42/51/43 47/56/43
f 39/48/44 38/47/44 42/51/44
f 37/46/45 39/48/45 26/35/45
f 29/61/46 28/65/46 41/50/46
f 43/52/47 37/46/47 25/34/47
f 30/39/48 36/45/48 32/62/48
f 41/50/49 28/65/49 26/63/49
f 34/64/50 29/66/50 40/49/50
f 35/44/51 48/57/51 44/53/51
f 47/56/52 42/51/52 38/47/52
g Tome_CoverBack.001_Mesh
v -0.911400 -1.240000 -0.265600
v -0.911400 -1.153200 -0.260000
v -0.980000 -1.153200 -0.265600
v -0.911400 1.153200 -0.260000
v -0.911400 1.240000 -0.265600
v -0.980000 1.153200 -0.265600
v -0.911400 -1.240000 -0.414400
v -0.980000 -1.153200 -0.414400
v -0.911400 -1.153200 -0.420000
v -0.911400 1.240000 -0.414400
v -0.911400 1.153200 -0.420000
v -0.980000 1.153200 -0.414400
v 0.911400 -1.240000 -0.265600
v 0.980000 -1.153200 -0.265600
v 0.911400 -1.153200 -0.260000
v 0.911400 1.240000 -0.265600
v 0.911400 1.153200 -0.260000
v 0.980000 1.153200 -0.265600
v 0.911400 -1.240000 -0.414400
v 0.911400 -1.153200 -0.420000
v 0.980000 -1.153200 -0.414400
v 0.911400 1.240000 -0.414400
v 0.980000 1.153200 -0.414400
v 0.911400 1.153200 -0.420000
vn -0.0812 -0.0642 0.9946
vn -0.0812 0.0642 0.9946
vn -0.0812 -0.0642 -0.9946
vn -0.0812 0.0642 -0.9946
vn 0.0812 -0.0642 0.9946
vn 0.0812 0.0642 0.9946
vn 0.0812 -0.0642 -0.9946
vn 0.0812 0.0642 -0.9946
vn -0.7846 -0.6201 -0.0000
vn -0.0814 -0.0000 0.9967
vn -0.7846 0.6201 -0.0000
vn -0.0814 -0.0000 -0.9967
vn -0.0000 -0.0644 -0.9979
vn -0.0000 0.0644 -0.9979
vn 0.0814 -0.0000 -0.9967
vn 0.7846 -0.6201 -0.0000
vn 0.7846 0.6201 -0.0000
vn 0.0814 -0.0000 0.9967
vn -0.0000 -0.0644 0.9979
vn -0.0000 0.0644 0.9979
vn -0.0000 -1.0000 -0.0000
vn -1.0000 -0.0000 -0.0000
vn -0.0000 -0.0000 1.0000
vn -0.0000 1.0000 -0.0000
vn -0.0000 -0.0000 -1.0000
vn 1.0000 -0.0000 -0.0000
vt 0.133750 0.741250
vt 0.133750 0.750000
vt 0.125000 0.741250
vt 0.616250 0.000000
vt 0.625000 0.008750
vt 0.616250 0.008750
vt 0.133750 0.508750
vt 0.125000 0.508750
vt 0.133750 0.500000
vt 0.625000 0.247083
vt 0.616250 0.256563
vt 0.616250 0.241250
vt 0.366250 0.741250
vt 0.381562 0.741250
vt 0.375000 0.754375
vt 0.629375 0.750000
vt 0.616250 0.758750
vt 0.616250 0.743438
vt 0.366250 0.508750
vt 0.375000 0.495625
vt 0.381562 0.508750
vt 0.629375 0.500000
vt 0.616250 0.506562
vt 0.616250 0.491250
vt 0.383750 0.008750
vt 0.383750 0.000000
vt 0.383750 0.258750
vt 0.625000 0.991250
vt 0.383750 0.241250
vt 0.383750 0.991250
vt 0.866250 0.508750
vt 0.616250 0.991250
vt 0.866250 0.741250
s 0
g Tome_CoverBack.001_MAT_ClothGreen
usemtl MAT_ClothGreen
f 49/67/53 50/68/53 51/69/53
f 52/70/54 53/71/54 54/72/54
f 55/73/55 56/74/55 57/75/55
f 58/76/56 59/77/56 60/78/56
f 61/79/57 62/80/57 63/81/57
f 64/82/58 65/83/58 66/84/58
f 67/85/59 68/86/59 69/87/59
f 70/88/60 71/89/60 72/90/60
f 49/67/61 56/74/61 55/73/61
f 52/70/62 51/91/62 50/92/62
f 58/76/63 54/72/63 53/71/63
f 57/93/64 60/78/64 59/77/64
f 55/73/65 68/86/65 67/85/65
f 70/88/66 59/77/66 58/76/66
f 69/87/67 72/90/67 71/89/67
f 67/85/68 62/80/68 61/79/68
f 64/82/69 71/89/69 70/88/69
f 63/81/70 66/84/70 65/83/70
f 61/79/71 50/68/71 49/67/71
f 53/94/72 65/83/72 64/82/72
f 67/85/73 49/67/73 55/73/73
f 54/72/74 56/95/74 51/91/74
f 65/83/75 50/96/75 63/81/75
f 58/97/76 64/82/76 70/88/76
f 59/77/77 68/86/77 57/93/77
f 71/89/78 62/80/78 69/87/78
f 49/67/61 51/69/61 56/74/61
f 52/70/62 54/72/62 51/91/62
f 58/76/63 60/78/63 54/72/63
f 57/93/64 56/95/64 60/78/64
f 55/73/65 57/75/65 68/86/65
f 70/88/66 72/90/66 59/77/66
f 69/87/67 68/86/67 72/90/67
f 67/85/68 69/87/68 62/80/68
f 64/82/69 66/84/69 71/89/69
f 63/81/70 62/80/70 66/84/70
f 61/79/71 63/81/71 50/68/71
f 53/94/72 52/98/72 65/83/72
f 67/85/73 61/79/73 49/67/73
f 54/72/74 60/78/74 56/95/74
f 65/83/75 52/98/75 50/96/75
f 58/97/76 53/99/76 64/82/76
f 59/77/77 72/90/77 68/86/77
f 71/89/78 66/84/78 62/80/78
g Tome_CoverFront.001_Mesh
v -0.911400 -1.240000 0.414400
v -0.911400 -1.153200 0.420000
v -0.980000 -1.153200 0.414400
v -0.911400 1.153200 0.420000
v -0.911400 1.240000 0.414400
v -0.980000 1.153200 0.414400
v -0.911400 -1.240000 0.265600
v -0.980000 -1.153200 0.265600
v -0.911400 -1.153200 0.260000
v -0.911400 1.240000 0.265600
v -0.911400 1.153200 0.260000
v -0.980000 1.153200 0.265600
v 0.911400 -1.240000 0.414400
v 0.980000 -1.153200 0.414400
v 0.911400 -1.153200 0.420000
v 0.911400 1.240000 0.414400
v 0.911400 1.153200 0.420000
v 0.980000 1.153200 0.414400
v 0.911400 -1.240000 0.265600
v 0.911400 -1.153200 0.260000
v 0.980000 -1.153200 0.265600
v 0.911400 1.240000 0.265600
v 0.980000 1.153200 0.265600
v 0.911400 1.153200 0.260000
vn -0.0812 -0.0642 0.9946
vn -0.0812 0.0642 0.9946
vn -0.0812 -0.0642 -0.9946
vn -0.0812 0.0642 -0.9946
vn 0.0812 -0.0642 0.9946
vn 0.0812 0.0642 0.9946
vn 0.0812 -0.0642 -0.9946
vn 0.0812 0.0642 -0.9946
vn -0.7846 -0.6201 -0.0000
vn -0.0814 -0.0000 0.9967
vn -0.7846 0.6201 -0.0000
vn -0.0814 -0.0000 -0.9967
vn -0.0000 -0.0644 -0.9979
vn -0.0000 0.0644 -0.9979
vn 0.0814 -0.0000 -0.9967
vn 0.7846 -0.6201 -0.0000
vn 0.7846 0.6201 -0.0000
vn 0.0814 -0.0000 0.9967
vn -0.0000 -0.0644 0.9979
vn -0.0000 0.0644 0.9979
vn -0.0000 -1.0000 -0.0000
vn -1.0000 -0.0000 -0.0000
vn -0.0000 -0.0000 1.0000
vn -0.0000 1.0000 -0.0000
vn -0.0000 -0.0000 -1.0000
vn 1.0000 -0.0000 -0.0000
vt 0.133750 0.741250
vt 0.133750 0.750000
vt 0.125000 0.741250
vt 0.616250 0.000000
vt 0.625000 0.008750
vt 0.616250 0.008750
vt 0.133750 0.508750
vt 0.125000 0.508750
vt 0.133750 0.500000
vt 0.625000 0.247083
vt 0.616250 0.256563
vt 0.616250 0.241250
vt 0.366250 0.741250
vt 0.381562 0.741250
vt 0.375000 0.754375
vt 0.629375 0.750000
vt 0.616250 0.758750
vt 0.616250 0.743438
vt 0.366250 0.508750
vt 0.375000 0.495625
vt 0.381562 0.508750
vt 0.629375 0.500000
vt 0.616250 0.506562
vt 0.616250 0.491250
vt 0.383750 0.008750
vt 0.383750 0.000000
vt 0.383750 0.258750
vt 0.625000 0.991250
vt 0.383750 0.241250
vt 0.383750 0.991250
vt 0.866250 0.508750
vt 0.616250 0.991250
vt 0.866250 0.741250
s 0
g Tome_CoverFront.001_MAT_ClothGreen
usemtl MAT_ClothGreen
f 73/100/79 74/101/79 75/102/79
f 76/103/80 77/104/80 78/105/80
f 79/106/81 80/107/81 81/108/81
f 82/109/82 83/110/82 84/111/82
f 85/112/83 86/113/83 87/114/83
f 88/115/84 89/116/84 90/117/84
f 91/118/85 92/119/85 93/120/85
f 94/121/86 95/122/86 96/123/86
f 73/100/87 80/107/87 79/106/87
f 76/103/88 75/124/88 74/125/88
f 82/109/89 78/105/89 77/104/89
f 81/126/90 84/111/90 83/110/90
f 79/106/91 92/119/91 91/118/91
f 94/121/92 83/110/92 82/109/92
f 93/120/93 96/123/93 95/122/93
f 91/118/94 86/113/94 85/112/94
f 88/115/95 95/122/95 94/121/95
f 87/114/96 90/117/96 89/116/96
f 85/112/97 74/101/97 73/100/97
f 77/127/98 89/116/98 88/115/98
f 91/118/99 73/100/99 79/106/99
f 78/105/100 80/128/100 75/124/100
f 89/116/101 74/129/101 87/114/101
f 82/130/102 88/115/102 94/121/102
f 83/110/103 92/119/103 81/126/103
f 95/122/104 86/113/104 93/120/104
f 73/100/87 75/102/87 80/107/87
f 76/103/88 78/105/88 75/124/88
f 82/109/89 84/111/89 78/105/89
f 81/126/90 80/128/90 84/111/90
f 79/106/91 81/108/91 92/119/91
f 94/121/92 96/123/92 83/110/92
f 93/120/93 92/119/93 96/123/93
f 91/118/94 93/120/94 86/113/94
f 88/115/95 90/117/95 95/122/95
f 87/114/96 86/113/96 90/117/96
f 85/112/97 87/114/97 74/101/97
f 77/127/98 76/131/98 89/116/98
f 91/118/99 85/112/99 73/100/99
f 78/105/100 84/111/100 80/128/100
f 89/116/101 76/131/101 74/129/101
f 82/130/102 77/132/102 88/115/102
f 83/110/103 96/123/103 92/119/103
f 95/122/104 90/117/104 86/113/104
g Tome_Emblem.001_Mesh
v 0.520000 0.080000 0.440000
v 0.460000 0.080000 0.500000
v 0.400000 0.080000 0.440000
v 0.460000 0.080000 0.380000
v 0.468504 0.305619 0.440000
v 0.414446 0.279586 0.500000
v 0.360388 0.253553 0.440000
v 0.414446 0.279586 0.380000
v 0.324215 0.486552 0.440000
v 0.286805 0.439642 0.500000
v 0.249396 0.392733 0.440000
v 0.286805 0.439642 0.380000
v 0.115711 0.586962 0.440000
v 0.102360 0.528467 0.500000
v 0.089008 0.469971 0.440000
v 0.102360 0.528467 0.380000
v -0.115711 0.586962 0.440000
v -0.102360 0.528467 0.500000
v -0.089008 0.469971 0.440000
v -0.102360 0.528467 0.380000
v -0.324215 0.486552 0.440000
v -0.286805 0.439642 0.500000
v -0.249396 0.392732 0.440000
v -0.286805 0.439642 0.380000
v -0.468504 0.305619 0.440000
v -0.414446 0.279586 0.500000
v -0.360388 0.253553 0.440000
v -0.414446 0.279586 0.380000
v -0.520000 0.080000 0.440000
v -0.460000 0.080000 0.500000
v -0.400000 0.080000 0.440000
v -0.460000 0.080000 0.380000
v -0.468504 -0.145619 0.440000
v -0.414446 -0.119586 0.500000
v -0.360388 -0.093553 0.440000
v -0.414446 -0.119586 0.380000
v -0.324215 -0.326552 0.440000
v -0.286805 -0.279643 0.500000
v -0.249396 -0.232733 0.440000
v -0.286805 -0.279643 0.380000
v -0.115711 -0.426963 0.440000
v -0.102360 -0.368467 0.500000
v -0.089008 -0.309971 0.440000
v -0.102360 -0.368467 0.380000
v 0.115711 -0.426963 0.440000
v 0.102360 -0.368467 0.500000
v 0.089008 -0.309971 0.440000
v 0.102360 -0.368467 0.380000
v 0.324214 -0.326553 0.440000
v 0.286805 -0.279643 0.500000
v 0.249396 -0.232733 0.440000
v 0.286805 -0.279643 0.380000
v 0.468504 -0.145620 0.440000
v 0.414446 -0.119587 0.500000
v 0.360387 -0.093554 0.440000
v 0.414446 -0.119587 0.380000
vn 0.6981 0.1593 0.6981
vn -0.6981 -0.1593 0.6981
vn -0.6981 -0.1593 -0.6981
vn 0.6981 0.1593 -0.6981
vn 0.5598 0.4464 0.6981
vn -0.5598 -0.4464 0.6981
vn -0.5598 -0.4464 -0.6981
vn 0.5598 0.4464 -0.6981
vn 0.3107 0.6451 0.6981
vn -0.3107 -0.6451 0.6981
vn -0.3107 -0.6451 -0.6981
vn 0.3107 0.6451 -0.6981
vn -0.0000 0.7160 0.6981
vn -0.0000 -0.7160 0.6981
vn -0.0000 -0.7160 -0.6981
vn -0.0000 0.7160 -0.6981
vn -0.3107 0.6451 0.6981
vn 0.3107 -0.6451 0.6981
vn 0.3107 -0.6451 -0.6981
vn -0.3107 0.6451 -0.6981
vn -0.5598 0.4464 0.6981
vn 0.5598 -0.4464 0.6981
vn 0.5598 -0.4464 -0.6981
vn -0.5598 0.4464 -0.6981
vn -0.6981 0.1593 0.6981
vn 0.6981 -0.1593 0.6981
vn 0.6981 -0.1593 -0.6981
vn -0.6981 0.1593 -0.6981
vt 0.571429 0.500000
vt 0.500000 0.750000
vt 0.500000 0.500000
vt 0.571429 1.000000
vt 0.500000 1.000000
vt 0.571429 0.000000
vt 0.500000 0.250000
vt 0.500000 0.000000
vt 0.571429 0.250000
vt 0.642857 0.500000
vt 0.571429 0.750000
vt 0.642857 0.750000
vt 0.642857 0.000000
vt 0.714286 0.500000
vt 0.714286 0.750000
vt 0.642857 1.000000
vt 0.714286 0.000000
vt 0.642857 0.250000
vt 0.714286 0.250000
vt 0.785714 0.500000
vt 0.785714 0.750000
vt 0.714286 1.000000
vt 0.785714 0.000000
vt 0.785714 0.250000
vt 0.857143 0.500000
vt 0.857143 0.750000
vt 0.785714 1.000000
vt 0.857143 0.000000
vt 0.857143 0.250000
vt 0.928571 0.750000
vt 0.857143 1.000000
vt 0.928571 0.000000
vt 0.928571 0.250000
vt 1.000000 0.500000
vt 0.928571 0.500000
vt 1.000000 0.750000
vt 0.928571 1.000000
vt 1.000000 0.000000
vt 1.000000 0.250000
vt -0.000000 0.500000
vt 0.071429 0.750000
vt -0.000000 0.750000
vt -0.000000 1.000000
vt -0.000000 0.000000
vt 0.071429 0.250000
vt -0.000000 0.250000
vt 0.142857 0.500000
vt 0.071429 0.500000
vt 0.142857 0.750000
vt 0.071429 1.000000
vt 0.142857 0.000000
vt 0.071429 0.000000
vt 0.142857 0.250000
vt 0.214286 0.750000
vt 0.142857 1.000000
vt 0.214286 0.250000
vt 0.285714 0.500000
vt 0.214286 0.500000
vt 0.285714 0.750000
vt 0.214286 1.000000
vt 0.285714 0.000000
vt 0.214286 0.000000
vt 0.285714 0.250000
vt 0.357143 0.500000
vt 0.357143 0.750000
vt 0.285714 1.000000
vt 0.357143 0.250000
vt 0.428571 0.500000
vt 0.428571 0.750000
vt 0.357143 1.000000
vt 0.428571 0.000000
vt 0.357143 0.000000
vt 0.428571 0.250000
vt 0.428571 1.000000
vt 1.000000 1.000000
s 0
g Tome_Emblem.001_MAT_BrightGold
usemtl MAT_BrightGold
f 101/133/105 98/134/105 97/135/105
f 98/134/106 103/136/106 99/137/106
f 103/138/107 100/139/107 99/140/107
f 104/141/108 97/135/108 100/139/108
f 105/142/109 102/143/109 101/133/109
f 106/144/110 103/136/110 102/143/110
f 107/145/111 104/141/111 103/138/111
f 104/141/112 105/142/112 101/133/112
f 109/146/113 106/144/113 105/142/113
f 110/147/114 107/148/114 106/144/114
f 111/149/115 108/150/115 107/145/115
f 112/151/116 105/142/116 108/150/116
f 113/152/117 110/147/117 109/146/117
f 114/153/118 111/154/118 110/147/118
f 115/155/119 112/151/119 111/149/119
f 116/156/120 109/146/120 112/151/120
f 117/157/121 114/153/121 113/152/121
f 118/158/122 115/159/122 114/153/122
f 119/160/123 116/156/123 115/155/123
f 120/161/124 113/152/124 116/156/124
f 117/157/125 122/162/125 118/158/125
f 122/162/126 119/163/126 118/158/126
f 123/164/127 120/161/127 119/160/127
f 124/165/128 117/157/128 120/161/128
f 125/166/129 122/162/129 121/167/129
f 126/168/130 123/169/130 122/162/130
f 127/170/131 124/165/131 123/164/131
f 128/171/132 121/167/132 124/165/132
f 125/172/106 130/173/106 126/174/106
f 130/173/105 127/175/105 126/174/105
f 127/176/108 132/177/108 128/178/108
f 132/177/107 125/172/107 128/178/107
f 133/179/110 130/173/110 129/180/110
f 134/181/109 131/182/109 130/173/109
f 135/183/112 132/177/112 131/184/112
f 136/185/111 129/180/111 132/177/111
f 133/179/114 138/186/114 134/181/114
f 138/186/113 135/187/113 134/181/113
f 135/183/116 140/188/116 136/185/116
f 140/188/115 133/179/115 136/185/115
f 141/189/118 138/186/118 137/190/118
f 142/191/117 139/192/117 138/186/117
f 143/193/120 140/188/120 139/194/120
f 144/195/119 137/190/119 140/188/119
f 145/196/122 142/191/122 141/189/122
f 146/197/121 143/198/121 142/191/121
f 143/193/124 148/199/124 144/195/124
f 148/199/123 141/189/123 144/195/123
f 149/200/126 146/197/126 145/196/126
f 150/201/125 147/202/125 146/197/125
f 151/203/128 148/199/128 147/204/128
f 152/205/127 145/196/127 148/199/127
f 97/135/130 150/201/130 149/200/130
f 98/134/129 151/206/129 150/201/129
f 99/140/132 152/205/132 151/203/132
f 100/139/131 149/200/131 152/205/131
f 101/133/105 102/143/105 98/134/105
f 98/134/106 102/143/106 103/136/106
f 103/138/107 104/141/107 100/139/107
f 104/141/108 101/133/108 97/135/108
f 105/142/109 106/144/109 102/143/109
f 106/144/110 107/148/110 103/136/110
f 107/145/111 108/150/111 104/141/111
f 104/141/112 108/150/112 105/142/112
f 109/146/113 110/147/113 106/144/113
f 110/147/114 111/154/114 107/148/114
f 111/149/115 112/151/115 108/150/115
f 112/151/116 109/146/116 105/142/116
f 113/152/117 114/153/117 110/147/117
f 114/153/118 115/159/118 111/154/118
f 115/155/119 116/156/119 112/151/119
f 116/156/120 113/152/120 109/146/120
f 117/157/121 118/158/121 114/153/121
f 118/158/122 119/163/122 115/159/122
f 119/160/123 120/161/123 116/156/123
f 120/161/124 117/157/124 113/152/124
f 117/157/125 121/167/125 122/162/125
f 122/162/126 123/169/126 119/163/126
f 123/164/127 124/165/127 120/161/127
f 124/165/128 121/167/128 117/157/128
f 125/166/129 126/168/129 122/162/129
f 126/168/130 127/207/130 123/169/130
f 127/170/131 128/171/131 124/165/131
f 128/171/132 125/166/132 121/167/132
f 125/172/106 129/180/106 130/173/106
f 130/173/105 131/182/105 127/175/105
f 127/176/108 131/184/108 132/177/108
f 132/177/107 129/180/107 125/172/107
f 133/179/110 134/181/110 130/173/110
f 134/181/109 135/187/109 131/182/109
f 135/183/112 136/185/112 132/177/112
f 136/185/111 133/179/111 129/180/111
f 133/179/114 137/190/114 138/186/114
f 138/186/113 139/192/113 135/187/113
f 135/183/116 139/194/116 140/188/116
f 140/188/115 137/190/115 133/179/115
f 141/189/118 142/191/118 138/186/118
f 142/191/117 143/198/117 139/192/117
f 143/193/120 144/195/120 140/188/120
f 144/195/119 141/189/119 137/190/119
f 145/196/122 146/197/122 142/191/122
f 146/197/121 147/202/121 143/198/121
f 143/193/124 147/204/124 148/199/124
f 148/199/123 145/196/123 141/189/123
f 149/200/126 150/201/126 146/197/126
f 150/201/125 151/206/125 147/202/125
f 151/203/128 152/205/128 148/199/128
f 152/205/127 149/200/127 145/196/127
f 97/135/130 98/134/130 150/201/130
f 98/134/129 99/137/129 151/206/129
f 99/140/132 100/139/132 152/205/132
f 100/139/131 97/135/131 149/200/131
g Tome_Pages.001_Mesh
v -0.846000 -1.160000 0.244400
v -0.846000 -1.090400 0.260000
v -0.900000 -1.090400 0.244400
v -0.846000 1.090400 0.260000
v -0.846000 1.160000 0.244400
v -0.900000 1.090400 0.244400
v -0.846000 -1.160000 -0.244400
v -0.900000 -1.090400 -0.244400
v -0.846000 -1.090400 -0.260000
v -0.846000 1.160000 -0.244400
v -0.846000 1.090400 -0.260000
v -0.900000 1.090400 -0.244400
v 0.846000 -1.160000 0.244400
v 0.900000 -1.090400 0.244400
v 0.846000 -1.090400 0.260000
v 0.846000 1.160000 0.244400
v 0.846000 1.090400 0.260000
v 0.900000 1.090400 0.244400
v 0.846000 -1.160000 -0.244400
v 0.846000 -1.090400 -0.260000
v 0.900000 -1.090400 -0.244400
v 0.846000 1.160000 -0.244400
v 0.900000 1.090400 -0.244400
v 0.846000 1.090400 -0.260000
vn -0.2713 -0.2105 0.9392
vn -0.2713 0.2105 0.9392
vn -0.2713 -0.2105 -0.9392
vn -0.2713 0.2105 -0.9392
vn 0.2713 -0.2105 0.9392
vn 0.2713 0.2105 0.9392
vn 0.2713 -0.2105 -0.9392
vn 0.2713 0.2105 -0.9392
vn -0.7901 -0.6130 -0.0000
vn -0.2775 -0.0000 0.9607
vn -0.7901 0.6130 -0.0000
vn -0.2775 -0.0000 -0.9607
vn -0.0000 -0.2187 -0.9758
vn -0.0000 0.2187 -0.9758
vn 0.2775 -0.0000 -0.9607
vn 0.7901 -0.6130 -0.0000
vn 0.7901 0.6130 -0.0000
vn 0.2775 -0.0000 0.9607
vn -0.0000 -0.2187 0.9758
vn -0.0000 0.2187 0.9758
vn -0.0000 -1.0000 -0.0000
vn -1.0000 -0.0000 -0.0000
vn -0.0000 -0.0000 1.0000
vn -0.0000 1.0000 -0.0000
vn -0.0000 -0.0000 -1.0000
vn 1.0000 -0.0000 -0.0000
vt 0.132500 0.742500
vt 0.132500 0.750000
vt 0.125000 0.742500
vt 0.617500 0.000000
vt 0.625000 0.007500
vt 0.617500 0.007500
vt 0.132500 0.507500
vt 0.125000 0.507500
vt 0.132500 0.500000
vt 0.625000 0.247500
vt 0.617500 0.255625
vt 0.617500 0.242500
vt 0.367500 0.742500
vt 0.380625 0.742500
vt 0.375000 0.753750
vt 0.628750 0.750000
vt 0.617500 0.757500
vt 0.617500 0.744375
vt 0.367500 0.507500
vt 0.375000 0.496250
vt 0.380625 0.507500
vt 0.628750 0.500000
vt 0.617500 0.505625
vt 0.617500 0.492500
vt 0.382500 0.007500
vt 0.382500 0.000000
vt 0.382500 0.257500
vt 0.625000 0.992500
vt 0.382500 0.242500
vt 0.382500 0.992500
vt 0.867500 0.507500
vt 0.617500 0.992500
vt 0.867500 0.742500
s 0
g Tome_Pages.001_MAT_Paper
usemtl MAT_Paper
f 153/208/133 154/209/133 155/210/133
f 156/211/134 157/212/134 158/213/134
f 159/214/135 160/215/135 161/216/135
f 162/217/136 163/218/136 164/219/136
f 165/220/137 166/221/137 167/222/137
f 168/223/138 169/224/138 170/225/138
f 171/226/139 172/227/139 173/228/139
f 174/229/140 175/230/140 176/231/140
f 153/208/141 160/215/141 159/214/141
f 156/211/142 155/232/142 154/233/142
f 162/217/143 158/213/143 157/212/143
f 161/234/144 164/219/144 163/218/144
f 159/214/145 172/227/145 171/226/145
f 174/229/146 163/218/146 162/217/146
f 173/228/147 176/231/147 175/230/147
f 171/226/148 166/221/148 165/220/148
f 168/223/149 175/230/149 174/229/149
f 167/222/150 170/225/150 169/224/150
f 165/220/151 154/209/151 153/208/151
f 157/235/152 169/224/152 168/223/152
f 171/226/153 153/208/153 159/214/153
f 158/213/154 160/236/154 155/232/154
f 169/224/155 154/237/155 167/222/155
f 162/238/156 168/223/156 174/229/156
f 163/218/157 172/227/157 161/234/157
f 175/230/158 166/221/158 173/228/158
f 153/208/141 155/210/141 160/215/141
f 156/211/142 158/213/142 155/232/142
f 162/217/143 164/219/143 158/213/143
f 161/234/144 160/236/144 164/219/144
f 159/214/145 161/216/145 172/227/145
f 174/229/146 176/231/146 163/218/146
f 173/228/147 172/227/147 176/231/147
f 171/226/148 173/228/148 166/221/148
f 168/223/149 170/225/149 175/230/149
f 167/222/150 166/221/150 170/225/150
f 165/220/151 167/222/151 154/209/151
f 157/235/152 156/239/152 169/224/152
f 171/226/153 165/220/153 153/208/153
f 158/213/154 164/219/154 160/236/154
f 169/224/155 156/239/155 154/237/155
f 162/238/156 157/240/156 168/223/156
f 163/218/157 176/231/157 172/227/157
f 175/230/158 170/225/158 166/221/158
g Tome_Spine.001_Mesh
v -1.036800 -1.240000 0.326400
v -1.036800 -1.190400 0.340000
v -1.040000 -1.190400 0.326400
v -1.036800 1.190400 0.340000
v -1.036800 1.240000 0.326400
v -1.040000 1.190400 0.326400
v -1.036800 -1.240000 -0.326400
v -1.040000 -1.190400 -0.326400
v -1.036800 -1.190400 -0.340000
v -1.036800 1.240000 -0.326400
v -1.036800 1.190400 -0.340000
v -1.040000 1.190400 -0.326400
v -0.883200 -1.240000 0.326400
v -0.880000 -1.190400 0.326400
v -0.883200 -1.190400 0.340000
v -0.883200 1.240000 0.326400
v -0.883200 1.190400 0.340000
v -0.880000 1.190400 0.326400
v -0.883200 -1.240000 -0.326400
v -0.883200 -1.190400 -0.340000
v -0.880000 -1.190400 -0.326400
v -0.883200 1.240000 -0.326400
v -0.880000 1.190400 -0.326400
v -0.883200 1.190400 -0.340000
vn -0.9715 -0.0627 0.2286
vn -0.9715 0.0627 0.2286
vn -0.9715 -0.0627 -0.2286
vn -0.9715 0.0627 -0.2286
vn 0.9715 -0.0627 0.2286
vn 0.9715 0.0627 0.2286
vn 0.9715 -0.0627 -0.2286
vn 0.9715 0.0627 -0.2286
vn -0.9979 -0.0644 -0.0000
vn -0.9734 -0.0000 0.2290
vn -0.9979 0.0644 -0.0000
vn -0.9734 -0.0000 -0.2290
vn -0.0000 -0.2644 -0.9644
vn -0.0000 0.2644 -0.9644
vn 0.9734 -0.0000 -0.2290
vn 0.9979 -0.0644 -0.0000
vn 0.9979 0.0644 -0.0000
vn 0.9734 -0.0000 0.2290
vn -0.0000 -0.2644 0.9644
vn -0.0000 0.2644 0.9644
vn -0.0000 -1.0000 -0.0000
vn -1.0000 -0.0000 -0.0000
vn -0.0000 -0.0000 1.0000
vn -0.0000 1.0000 -0.0000
vn -0.0000 -0.0000 -1.0000
vn 1.0000 -0.0000 -0.0000
vt 0.130000 0.745000
vt 0.130000 0.750000
vt 0.125000 0.745000
vt 0.620000 0.000000
vt 0.625000 0.005000
vt 0.620000 0.005000
vt 0.130000 0.505000
vt 0.125000 0.505000
vt 0.130000 0.500000
vt 0.625000 0.248333
vt 0.620000 0.253750
vt 0.620000 0.245000
vt 0.370000 0.745000
vt 0.378750 0.745000
vt 0.375000 0.752500
vt 0.627500 0.750000
vt 0.620000 0.755000
vt 0.620000 0.746250
vt 0.370000 0.505000
vt 0.375000 0.497500
vt 0.378750 0.505000
vt 0.627500 0.500000
vt 0.620000 0.503750
vt 0.620000 0.495000
vt 0.380000 0.005000
vt 0.380000 0.000000
vt 0.380000 0.255000
vt 0.625000 0.995000
vt 0.380000 0.245000
vt 0.380000 0.995000
vt 0.870000 0.505000
vt 0.620000 0.995000
vt 0.870000 0.745000
s 0
g Tome_Spine.001_MAT_OldGold
usemtl MAT_OldGold
f 177/241/159 178/242/159 179/243/159
f 180/244/160 181/245/160 182/246/160
f 183/247/161 184/248/161 185/249/161
f 186/250/162 187/251/162 188/252/162
f 189/253/163 190/254/163 191/255/163
f 192/256/164 193/257/164 194/258/164
f 195/259/165 196/260/165 197/261/165
f 198/262/166 199/263/166 200/264/166
f 177/241/167 184/248/167 183/247/167
f 180/244/168 179/265/168 178/266/168
f 186/250/169 182/246/169 181/245/169
f 185/267/170 188/252/170 187/251/170
f 183/247/171 196/260/171 195/259/171
f 198/262/172 187/251/172 186/250/172
f 197/261/173 200/264/173 199/263/173
f 195/259/174 190/254/174 189/253/174
f 192/256/175 199/263/175 198/262/175
f 191/255/176 194/258/176 193/257/176
f 189/253/177 178/242/177 177/241/177
f 181/268/178 193/257/178 192/256/178
f 195/259/179 177/241/179 183/247/179
f 182/246/180 184/269/180 179/265/180
f 193/257/181 178/270/181 191/255/181
f 186/271/182 192/256/182 198/262/182
f 187/251/183 196/260/183 185/267/183
f 199/263/184 190/254/184 197/261/184
f 177/241/167 179/243/167 184/248/167
f 180/244/168 182/246/168 179/265/168
f 186/250/169 188/252/169 182/246/169
f 185/267/170 184/269/170 188/252/170
f 183/247/171 185/249/171 196/260/171
f 198/262/172 200/264/172 187/251/172
f 197/261/173 196/260/173 200/264/173
f 195/259/174 197/261/174 190/254/174
f 192/256/175 194/258/175 199/263/175
f 191/255/176 190/254/176 194/258/176
f 189/253/177 191/255/177 178/242/177
f 181/268/178 180/272/178 193/257/178
f 195/259/179 189/253/179 177/241/179
f 182/246/180 188/252/180 184/269/180
f 193/257/181 180/272/181 178/270/181
f 186/271/182 181/273/182 192/256/182
f 187/251/183 200/264/183 196/260/183
f 199/263/184 194/258/184 190/254/184
g Tome_WindMark.001_Mesh
v -0.400422 0.065547 0.575000
v -0.405296 0.029782 0.575000
v -0.379520 0.040800 0.600000
v -0.184806 0.106347 0.600000
v -0.333652 0.086646 0.600000
v -0.099578 0.304453 0.575000
v -0.077252 0.290258 0.600000
v -0.057905 0.308303 0.575000
v 0.247653 0.163584 0.600000
v 0.276817 0.158498 0.575000
v 0.237905 0.151697 0.575000
v 0.179147 0.154517 0.600000
v 0.407484 0.317923 0.600000
v 0.449214 0.337447 0.575000
v 0.443183 0.341502 0.575000
v 0.374847 0.303497 0.600000
v 0.250786 -0.077447 0.575000
v 0.210614 -0.093321 0.600000
v 0.217021 -0.109848 0.575000
v -0.194704 -0.259782 0.575000
v -0.157021 -0.270152 0.575000
v -0.165179 -0.254071 0.600000
v -0.184806 0.106347 0.440000
v -0.379520 0.040800 0.440000
v -0.405296 0.029782 0.465000
v -0.400422 0.065547 0.465000
v -0.333652 0.086646 0.440000
v -0.099578 0.304453 0.465000
v -0.057905 0.308303 0.465000
v -0.077252 0.290258 0.440000
v 0.247653 0.163584 0.440000
v 0.179147 0.154517 0.440000
v 0.237905 0.151697 0.465000
v 0.276817 0.158498 0.465000
v 0.407484 0.317923 0.440000
v 0.374847 0.303497 0.440000
v 0.443183 0.341502 0.465000
v 0.449214 0.337447 0.465000
v 0.250786 -0.077447 0.465000
v 0.217021 -0.109848 0.465000
v 0.210614 -0.093321 0.440000
v -0.194704 -0.259782 0.465000
v -0.165179 -0.254071 0.440000
v -0.157021 -0.270152 0.465000
vn 0.0616 -0.4658 0.8828
vn -0.0772 0.8358 0.5435
vn -0.1210 0.9139 -0.3874
vn -0.3888 0.8795 0.2744
vn 0.5794 -0.6037 0.5476
vn -0.2341 -0.8506 0.4708
vn -0.4329 0.4331 -0.7906
vn -0.0772 0.8358 -0.5435
vn -0.1598 0.9142 0.3724
vn 0.2985 0.4439 -0.8449
vn 0.5794 -0.6037 -0.5476
vn -0.2341 -0.8506 -0.4708
vn -0.4397 0.5537 0.7071
vn -0.0000 0.5547 0.8321
vn 0.3308 0.6249 0.7071
vn -0.0000 0.9055 0.4244
vn -0.4397 0.5537 -0.7071
vn 0.3308 0.6249 -0.7071
vn -0.0000 -0.0000 -1.0000
vn -0.5232 0.4757 -0.7071
vn -0.0000 -0.0000 1.0000
vn -0.5232 0.4757 0.7071
vn 0.5865 -0.2805 0.7599
vn 0.5865 -0.2805 -0.7599
vn -0.5459 -0.3970 0.7378
vn 0.3214 -0.7500 0.5781
vn -0.5459 -0.3970 -0.7378
vn 0.3214 -0.7500 -0.5781
vn -0.9908 0.1350 -0.0000
vn -0.0920 0.9958 -0.0000
vn -0.1722 0.9851 -0.0000
vn 0.5580 0.8298 -0.0000
vn 0.6924 -0.7215 -0.0000
vn -0.2653 -0.9642 -0.0000
vn -0.6219 0.7831 -0.0000
vn -0.8087 -0.5882 -0.0000
vn 0.4679 0.8838 -0.0000
vn -0.7399 0.6727 -0.0000
vn 0.9021 -0.4315 -0.0000
vn 0.3939 -0.9191 -0.0000
vn -0.3639 0.0496 0.9301
vn -0.3178 0.9440 -0.0884
vn -0.1598 0.9142 -0.3724
vn 0.2985 0.4439 0.8449
vn -0.7140 0.0973 -0.6933
vn -0.1210 0.9139 0.3874
vn -0.3888 0.8795 -0.2744
vn -0.0000 0.4961 -0.8682
vn 0.5845 -0.2798 0.7616
vn 0.5845 -0.2798 -0.7616
vn -0.5469 -0.3976 0.7367
vn 0.3192 -0.7462 0.5842
vn -0.5469 -0.3976 -0.7367
vn 0.3192 -0.7462 -0.5842
vn 0.5580 0.8299 -0.0000
s 0
g Tome_WindMark.001_MAT_Teal
usemtl MAT_Teal
f 202//185 204//185 205//185
f 206//186 207//186 208//186
f 209//187 211//187 212//187
f 213//188 215//188 216//188
f 217//189 218//189 219//189
f 220//190 221//190 222//190
f 224//191 226//191 227//191
f 228//192 229//192 230//192
f 231//193 233//193 234//193
f 235//194 237//194 238//194
f 239//195 240//195 241//195
f 242//196 243//196 244//196
f 205//197 206//197 201//197
f 209//198 205//198 204//198
f 212//199 208//199 207//199
f 227//200 231//200 223//200
f 228//201 227//201 226//201
f 229//202 232//202 230//202
f 213//203 204//203 203//203
f 216//204 210//204 209//204
f 223//205 235//205 224//205
f 234//206 236//206 231//206
f 213//207 217//207 214//207
f 239//208 235//208 238//208
f 220//209 203//209 202//209
f 218//210 221//210 219//210
f 224//211 242//211 225//211
f 244//212 241//212 240//212
f 226//213 202//213 201//213
f 229//214 206//214 208//214
f 234//215 211//215 210//215
f 238//216 215//216 214//216
f 240//217 217//217 219//217
f 242//218 221//218 220//218
f 206//219 226//219 201//219
f 205//205 212//205 207//205
f 204//203 216//203 209//203
f 203//205 218//205 213//205
f 203//205 222//205 218//205
f 202//220 242//220 220//220
f 211//221 229//221 208//221
f 215//222 234//222 210//222
f 214//223 239//223 238//223
f 221//224 240//224 219//224
f 223//205 231//205 236//205
f 227//203 230//203 232//203
f 224//203 235//203 241//203
f 224//203 241//203 243//203
f 205//225 201//225 202//225
f 202//226 203//226 204//226
f 209//227 210//227 211//227
f 213//228 214//228 215//228
f 227//203 223//203 224//203
f 224//229 225//229 226//229
f 231//230 232//230 233//230
f 235//231 236//231 237//231
f 205//197 207//197 206//197
f 209//205 212//205 205//205
f 212//199 211//199 208//199
f 227//232 232//232 231//232
f 228//201 230//201 227//201
f 229//202 233//202 232//202
f 213//203 216//203 204//203
f 216//204 215//204 210//204
f 223//205 236//205 235//205
f 234//206 237//206 236//206
f 213//233 218//233 217//233
f 239//234 241//234 235//234
f 220//235 222//235 203//235
f 218//236 222//236 221//236
f 224//237 243//237 242//237
f 244//238 243//238 241//238
f 226//213 225//213 202//213
f 229//214 228//214 206//214
f 234//215 233//215 211//215
f 238//239 237//239 215//239
f 240//217 239//217 217//217
f 242//218 244//218 221//218
f 206//219 228//219 226//219
f 202//220 225//220 242//220
f 211//221 233//221 229//221
f 215//222 237//222 234//222
f 214//223 217//223 239//223
f 221//224 244//224 240//224
