# Blender 5.0.1
# www.blender.org
mtllib verdigris_coin.mtl
g VerdigrisCoin_Body.001_Mesh
v 0.000000 0.864152 -0.110000
v 0.000000 0.920000 -0.055000
v -0.000000 0.864152 0.110000
v 0.000000 0.920000 0.055000
v 0.295557 0.812037 -0.110000
v 0.314659 0.864517 -0.055000
v 0.295557 0.812037 0.110000
v 0.314659 0.864517 0.055000
v 0.555466 0.661979 -0.110000
v 0.591365 0.704761 -0.055000
v 0.555466 0.661979 0.110000
v 0.591365 0.704761 0.055000
v 0.748377 0.432076 -0.110000
v 0.796743 0.460000 -0.055000
v 0.748377 0.432076 0.110000
v 0.796743 0.460000 0.055000
v 0.851023 0.150058 -0.110000
v 0.906023 0.159756 -0.055000
v 0.851023 0.150058 0.110000
v 0.906023 0.159756 0.055000
v 0.851023 -0.150058 -0.110000
v 0.906023 -0.159756 -0.055000
v 0.851023 -0.150058 0.110000
v 0.906023 -0.159756 0.055000
v 0.748377 -0.432076 -0.110000
v 0.796743 -0.460000 -0.055000
v 0.748377 -0.432076 0.110000
v 0.796743 -0.460000 0.055000
v 0.555466 -0.661979 -0.110000
v 0.591365 -0.704761 -0.055000
v 0.555466 -0.661979 0.110000
v 0.591365 -0.704761 0.055000
v 0.295557 -0.812037 -0.110000
v 0.314659 -0.864517 -0.055000
v 0.295557 -0.812037 0.110000
v 0.314659 -0.864517 0.055000
v -0.000000 -0.864152 -0.110000
v 0.000000 -0.920000 -0.055000
v 0.000000 -0.864152 0.110000
v 0.000000 -0.920000 0.055000
v -0.295557 -0.812037 -0.110000
v -0.314659 -0.864517 -0.055000
v -0.295557 -0.812037 0.110000
v -0.314659 -0.864517 0.055000
v -0.555466 -0.661979 -0.110000
v -0.591365 -0.704761 -0.055000
v -0.555466 -0.661979 0.110000
v -0.591365 -0.704761 0.055000
v -0.748377 -0.432076 -0.110000
v -0.796743 -0.460000 -0.055000
v -0.748377 -0.432076 0.110000
v -0.796743 -0.460000 0.055000
v -0.851023 -0.150058 -0.110000
v -0.906023 -0.159756 -0.055000
v -0.851023 -0.150058 0.110000
v -0.906023 -0.159756 0.055000
v -0.851023 0.150058 -0.110000
v -0.906023 0.159756 -0.055000
v -0.851023 0.150058 0.110000
v -0.906023 0.159756 0.055000
v -0.748377 0.432076 -0.110000
v -0.796743 0.460000 -0.055000
v -0.748377 0.432076 0.110000
v -0.796743 0.460000 0.055000
v -0.555466 0.661979 -0.110000
v -0.591365 0.704761 -0.055000
v -0.555466 0.661979 0.110000
v -0.591365 0.704761 0.055000
v -0.295557 0.812037 -0.110000
v -0.314659 0.864517 -0.055000
v -0.295557 0.812037 0.110000
v -0.314659 0.864517 0.055000
vn 0.1228 0.6964 -0.7071
vn 0.1228 0.6964 0.7071
vn 0.3536 0.6124 -0.7071
vn 0.3536 0.6124 0.7071
vn 0.5417 0.4545 -0.7071
vn 0.5417 0.4545 0.7071
vn 0.6645 0.2418 -0.7071
vn 0.6645 0.2418 0.7071
vn 0.7071 -0.0000 -0.7071
vn 0.7071 -0.0000 0.7071
vn 0.6645 -0.2418 -0.7071
vn 0.6645 -0.2418 0.7071
vn 0.5417 -0.4545 -0.7071
vn 0.5417 -0.4545 0.7071
vn 0.3536 -0.6124 -0.7071
vn 0.3536 -0.6124 0.7071
vn 0.1228 -0.6964 -0.7071
vn 0.1228 -0.6964 0.7071
vn -0.1228 -0.6964 -0.7071
vn -0.1228 -0.6964 0.7071
vn -0.3536 -0.6124 -0.7071
vn -0.3536 -0.6124 0.7071
vn -0.5417 -0.4545 -0.7071
vn -0.5417 -0.4545 0.7071
vn -0.6645 -0.2418 -0.7071
vn -0.6645 -0.2418 0.7071
vn -0.7071 -0.0000 -0.7071
vn -0.7071 -0.0000 0.7071
vn -0.6645 0.2418 -0.7071
vn -0.6645 0.2418 0.7071
vn -0.5417 0.4545 -0.7071
vn -0.5417 0.4545 0.7071
vn -0.3536 0.6124 -0.7071
vn -0.3536 0.6124 0.7071
vn -0.1228 0.6964 -0.7071
vn -0.1228 0.6964 0.7071
vn -0.0000 -0.0000 -1.0000
vn 0.1736 0.9848 -0.0000
vn -0.1736 0.9848 -0.0000
vn -0.0000 -0.0000 1.0000
vn 0.5000 0.8660 -0.0000
vn 0.7660 0.6428 -0.0000
vn 0.9397 0.3420 -0.0000
vn 1.0000 -0.0000 -0.0000
vn 0.9397 -0.3420 -0.0000
vn 0.7660 -0.6428 -0.0000
vn 0.5000 -0.8660 -0.0000
vn 0.1736 -0.9848 -0.0000
vn -0.1736 -0.9848 -0.0000
vn -0.5000 -0.8660 -0.0000
vn -0.7660 -0.6428 -0.0000
vn -0.9397 -0.3420 -0.0000
vn -1.0000 -0.0000 -0.0000
vn -0.9397 0.3420 -0.0000
vn -0.7660 0.6428 -0.0000
vn -0.5000 0.8660 -0.0000
vt 0.832085 0.475526
vt 0.750000 0.475431
vt 0.750000 0.490000
vt 0.332085 0.475526
vt 0.250000 0.475431
vt 0.327102 0.461836
vt 0.894904 0.422690
vt 0.827102 0.461836
vt 0.394904 0.422690
vt 0.404269 0.433851
vt 0.957846 0.370000
vt 0.904269 0.433851
vt 0.457846 0.370000
vt 0.445229 0.362715
vt 0.986354 0.291676
vt 0.945229 0.362715
vt 0.472006 0.289146
vt 0.486354 0.291676
vt 0.986354 0.208324
vt 0.972006 0.289146
vt 0.472006 0.210854
vt 0.486354 0.208324
vt 0.957846 0.130000
vt 0.972006 0.210854
vt 0.445229 0.137285
vt 0.457846 0.130000
vt 0.894904 0.077310
vt 0.945229 0.137285
vt 0.394904 0.077310
vt 0.404269 0.066149
vt 0.832085 0.024474
vt 0.904269 0.066149
vt 0.332085 0.024474
vt 0.327102 0.038164
vt 0.750000 0.024569
vt 0.827102 0.038164
vt 0.250000 0.024569
vt 0.250000 0.010000
vt 0.667915 0.024474
vt 0.750000 0.010000
vt 0.167915 0.024474
vt 0.172898 0.038164
vt 0.605096 0.077310
vt 0.672898 0.038164
vt 0.105096 0.077310
vt 0.095731 0.066149
vt 0.542154 0.130000
vt 0.595731 0.066149
vt 0.042154 0.130000
vt 0.054771 0.137285
vt 0.513646 0.208324
vt 0.554771 0.137285
vt 0.027994 0.210854
vt 0.013646 0.208324
vt 0.513646 0.291676
vt 0.527994 0.210854
vt 0.027994 0.289146
vt 0.013646 0.291676
vt 0.542154 0.370000
vt 0.527994 0.289146
vt 0.054771 0.362715
vt 0.042154 0.370000
vt 0.605096 0.422690
vt 0.554771 0.362715
vt 0.105096 0.422690
vt 0.095731 0.433851
vt 0.667915 0.475526
vt 0.595731 0.433851
vt 0.167915 0.475526
vt 0.172898 0.461836
vt 0.672898 0.461836
vt 0.250000 0.490000
vt 1.000000 0.875000
vt 0.944444 0.625000
vt 1.000000 0.625000
vt 0.055555 0.875000
vt -0.000000 0.625000
vt 0.055555 0.625000
vt 0.944444 0.875000
vt 0.888889 0.625000
vt 0.888889 0.875000
vt 0.833333 0.625000
vt 0.833333 0.875000
vt 0.777778 0.625000
vt 0.777778 0.875000
vt 0.722222 0.625000
vt 0.722222 0.875000
vt 0.666667 0.625000
vt 0.666667 0.875000
vt 0.611111 0.625000
vt 0.611111 0.875000
vt 0.555555 0.625000
vt 0.555555 0.875000
vt 0.500000 0.625000
vt 0.500000 0.875000
vt 0.444444 0.625000
vt 0.444444 0.875000
vt 0.388889 0.625000
vt 0.388889 0.875000
vt 0.333333 0.625000
vt 0.333333 0.875000
vt 0.277778 0.625000
vt 0.277778 0.875000
vt 0.222222 0.625000
vt 0.222222 0.875000
vt 0.166666 0.625000
vt 0.166666 0.875000
vt 0.111111 0.625000
vt 0.111111 0.875000
vt -0.000000 0.875000
s 0
g VerdigrisCoin_Body.001_MAT_Verdigris
usemtl MAT_Verdigris
f 6/1/1 1/2/1 2/3/1
f 8/4/2 3/5/2 7/6/2
f 6/1/3 9/7/3 5/8/3
f 8/4/4 11/9/4 12/10/4
f 14/11/5 9/7/5 10/12/5
f 16/13/6 11/9/6 15/14/6
f 18/15/7 13/16/7 14/11/7
f 16/13/8 19/17/8 20/18/8
f 22/19/9 17/20/9 18/15/9
f 20/18/10 23/21/10 24/22/10
f 26/23/11 21/24/11 22/19/11
f 24/22/12 27/25/12 28/26/12
f 26/23/13 29/27/13 25/28/13
f 28/26/14 31/29/14 32/30/14
f 34/31/15 29/27/15 30/32/15
f 36/33/16 31/29/16 35/34/16
f 34/31/17 37/35/17 33/36/17
f 36/33/18 39/37/18 40/38/18
f 42/39/19 37/35/19 38/40/19
f 44/41/20 39/37/20 43/42/20
f 42/39/21 45/43/21 41/44/21
f 44/41/22 47/45/22 48/46/22
f 50/47/23 45/43/23 46/48/23
f 52/49/24 47/45/24 51/50/24
f 54/51/25 49/52/25 50/47/25
f 52/49/26 55/53/26 56/54/26
f 58/55/27 53/56/27 54/51/27
f 56/54/28 59/57/28 60/58/28
f 62/59/29 57/60/29 58/55/29
f 60/58/30 63/61/30 64/62/30
f 62/59/31 65/63/31 61/64/31
f 64/62/32 67/65/32 68/66/32
f 70/67/33 65/63/33 66/68/33
f 72/69/34 67/65/34 71/70/34
f 70/67/35 1/2/35 69/71/35
f 72/69/36 3/5/36 4/72/36
f 13/16/37 45/43/37 61/64/37
f 4/73/38 6/74/38 2/75/38
f 72/76/39 2/77/39 70/78/39
f 67/65/40 35/34/40 19/17/40
f 8/79/41 10/80/41 6/74/41
f 12/81/42 14/82/42 10/80/42
f 16/83/43 18/84/43 14/82/43
f 20/85/44 22/86/44 18/84/44
f 24/87/45 26/88/45 22/86/45
f 28/89/46 30/90/46 26/88/46
f 32/91/47 34/92/47 30/90/47
f 36/93/48 38/94/48 34/92/48
f 40/95/49 42/96/49 38/94/49
f 44/97/50 46/98/50 42/96/50
f 48/99/51 50/100/51 46/98/51
f 52/101/52 54/102/52 50/100/52
f 56/103/53 58/104/53 54/102/53
f 60/105/54 62/106/54 58/104/54
f 64/107/55 66/108/55 62/106/55
f 68/109/56 70/78/56 66/108/56
f 6/1/1 5/8/1 1/2/1
f 8/4/2 4/72/2 3/5/2
f 6/1/3 10/12/3 9/7/3
f 8/4/4 7/6/4 11/9/4
f 14/11/5 13/16/5 9/7/5
f 16/13/6 12/10/6 11/9/6
f 18/15/7 17/20/7 13/16/7
f 16/13/8 15/14/8 19/17/8
f 22/19/9 21/24/9 17/20/9
f 20/18/10 19/17/10 23/21/10
f 26/23/11 25/28/11 21/24/11
f 24/22/12 23/21/12 27/25/12
f 26/23/13 30/32/13 29/27/13
f 28/26/14 27/25/14 31/29/14
f 34/31/15 33/36/15 29/27/15
f 36/33/16 32/30/16 31/29/16
f 34/31/17 38/40/17 37/35/17
f 36/33/18 35/34/18 39/37/18
f 42/39/19 41/44/19 37/35/19
f 44/41/20 40/38/20 39/37/20
f 42/39/21 46/48/21 45/43/21
f 44/41/22 43/42/22 47/45/22
f 50/47/23 49/52/23 45/43/23
f 52/49/24 48/46/24 47/45/24
f 54/51/25 53/56/25 49/52/25
f 52/49/26 51/50/26 55/53/26
f 58/55/27 57/60/27 53/56/27
f 56/54/28 55/53/28 59/57/28
f 62/59/29 61/64/29 57/60/29
f 60/58/30 59/57/30 63/61/30
f 62/59/31 66/68/31 65/63/31
f 64/62/32 63/61/32 67/65/32
f 70/67/33 69/71/33 65/63/33
f 72/69/34 68/66/34 67/65/34
f 70/67/35 2/3/35 1/2/35
f 72/69/36 71/70/36 3/5/36
f 69/71/37 1/2/37 5/8/37
f 5/8/37 9/7/37 13/16/37
f 13/16/37 17/20/37 21/24/37
f 21/24/37 25/28/37 29/27/37
f 29/27/37 33/36/37 37/35/37
f 37/35/37 41/44/37 45/43/37
f 45/43/37 49/52/37 53/56/37
f 53/56/37 57/60/37 61/64/37
f 61/64/37 65/63/37 69/71/37
f 69/71/37 5/8/37 13/16/37
f 13/16/37 21/24/37 29/27/37
f 29/27/37 37/35/37 45/43/37
f 45/43/37 53/56/37 61/64/37
f 61/64/37 69/71/37 13/16/37
f 13/16/37 29/27/37 45/43/37
f 4/73/38 8/79/38 6/74/38
f 72/76/39 4/110/39 2/77/39
f 11/9/40 7/6/40 3/5/40
f 3/5/40 71/70/40 67/65/40
f 67/65/40 63/61/40 59/57/40
f 59/57/40 55/53/40 51/50/40
f 51/50/40 47/45/40 43/42/40
f 43/42/40 39/37/40 35/34/40
f 35/34/40 31/29/40 27/25/40
f 27/25/40 23/21/40 19/17/40
f 19/17/40 15/14/40 11/9/40
f 11/9/40 3/5/40 67/65/40
f 67/65/40 59/57/40 51/50/40
f 51/50/40 43/42/40 35/34/40
f 35/34/40 27/25/40 19/17/40
f 19/17/40 11/9/40 67/65/40
f 67/65/40 51/50/40 35/34/40
f 8/79/41 12/81/41 10/80/41
f 12/81/42 16/83/42 14/82/42
f 16/83/43 20/85/43 18/84/43
f 20/85/44 24/87/44 22/86/44
f 24/87/45 28/89/45 26/88/45
f 28/89/46 32/91/46 30/90/46
f 32/91/47 36/93/47 34/92/47
f 36/93/48 40/95/48 38/94/48
f 40/95/49 44/97/49 42/96/49
f 44/97/50 48/99/50 46/98/50
f 48/99/51 52/101/51 50/100/51
f 52/101/52 56/103/52 54/102/52
f 56/103/53 60/105/53 58/104/53
f 60/105/54 64/107/54 62/106/54
f 64/107/55 68/109/55 66/108/55
f 68/109/56 72/76/56 70/78/56
g VerdigrisCoin_Inner.001_Mesh
v 0.470000 0.000000 0.180000
v 0.420000 0.000000 0.230000
v 0.370000 0.000000 0.180000
v 0.420000 -0.000000 0.130000
v 0.434223 0.179861 0.180000
v 0.388029 0.160727 0.230000
v 0.341835 0.141593 0.180000
v 0.388029 0.160727 0.130000
v 0.332340 0.332340 0.180000
v 0.296985 0.296985 0.230000
v 0.261629 0.261630 0.180000
v 0.296985 0.296985 0.130000
v 0.179861 0.434223 0.180000
v 0.160727 0.388029 0.230000
v 0.141593 0.341835 0.180000
v 0.160727 0.388029 0.130000
v 0.000000 0.470000 0.180000
v 0.000000 0.420000 0.230000
v 0.000000 0.370000 0.180000
v 0.000000 0.420000 0.130000
v -0.179861 0.434223 0.180000
v -0.160727 0.388029 0.230000
v -0.141593 0.341835 0.180000
v -0.160727 0.388029 0.130000
v -0.332340 0.332340 0.180000
v -0.296985 0.296985 0.230000
v -0.261630 0.261629 0.180000
v -0.296985 0.296985 0.130000
v -0.434223 0.179861 0.180000
v -0.388029 0.160727 0.230000
v -0.341835 0.141593 0.180000
v -0.388029 0.160727 0.130000
v -0.470000 0.000000 0.180000
v -0.420000 0.000000 0.230000
v -0.370000 0.000000 0.180000
v -0.420000 0.000000 0.130000
v -0.434223 -0.179861 0.180000
v -0.388029 -0.160727 0.230000
v -0.341835 -0.141593 0.180000
v -0.388029 -0.160727 0.130000
v -0.332340 -0.332340 0.180000
v -0.296985 -0.296985 0.230000
v -0.261630 -0.261629 0.180000
v -0.296985 -0.296985 0.130000
v -0.179861 -0.434223 0.180000
v -0.160727 -0.388029 0.230000
v -0.141593 -0.341835 0.180000
v -0.160727 -0.388029 0.130000
v 0.000000 -0.470000 0.180000
v 0.000000 -0.420000 0.230000
v 0.000000 -0.370000 0.180000
v 0.000000 -0.420000 0.130000
v 0.179861 -0.434223 0.180000
v 0.160727 -0.388029 0.230000
v 0.141593 -0.341835 0.180000
v 0.160727 -0.388029 0.130000
v 0.332340 -0.332340 0.180000
v 0.296985 -0.296985 0.230000
v 0.261629 -0.261630 0.180000
v 0.296985 -0.296985 0.130000
v 0.434223 -0.179861 0.180000
v 0.388029 -0.160727 0.230000
v 0.341835 -0.141593 0.180000
v 0.388029 -0.160727 0.130000
vn 0.7002 0.1393 0.7002
vn -0.7002 -0.1393 0.7002
vn -0.7002 -0.1393 -0.7002
vn 0.7002 0.1393 -0.7002
vn 0.5936 0.3966 0.7002
vn -0.5936 -0.3966 0.7002
vn -0.5936 -0.3966 -0.7002
vn 0.5936 0.3966 -0.7002
vn 0.3966 0.5936 0.7002
vn -0.3966 -0.5936 0.7002
vn -0.3966 -0.5936 -0.7002
vn 0.3966 0.5936 -0.7002
vn 0.1393 0.7002 0.7002
vn -0.1393 -0.7002 0.7002
vn -0.1393 -0.7002 -0.7002
vn 0.1393 0.7002 -0.7002
vn -0.1393 0.7002 0.7002
vn 0.1393 -0.7002 0.7002
vn 0.1393 -0.7002 -0.7002
vn -0.1393 0.7002 -0.7002
vn -0.3966 0.5936 0.7002
vn 0.3966 -0.5936 0.7002
vn 0.3966 -0.5936 -0.7002
vn -0.3966 0.5936 -0.7002
vn -0.5936 0.3966 0.7002
vn 0.5936 -0.3966 0.7002
vn 0.5936 -0.3966 -0.7002
vn -0.5936 0.3966 -0.7002
vn -0.7002 0.1393 0.7002
vn 0.7002 -0.1393 0.7002
vn 0.7002 -0.1393 -0.7002
vn -0.7002 0.1393 -0.7002
vt 0.562500 0.500000
vt 0.500000 0.750000
vt 0.500000 0.500000
vt 0.562500 1.000000
vt 0.500000 1.000000
vt 0.500000 0.000000
vt 0.562500 0.250000
vt 0.500000 0.250000
vt 0.625000 0.750000
vt 0.562500 0.750000
vt 0.625000 0.000000
vt 0.562500 0.000000
vt 0.625000 0.250000
vt 0.687500 0.500000
vt 0.625000 0.500000
vt 0.687500 0.750000
vt 0.625000 1.000000
vt 0.687500 0.000000
vt 0.687500 0.250000
vt 0.750000 0.500000
vt 0.750000 0.750000
vt 0.687500 1.000000
vt 0.750000 0.000000
vt 0.750000 0.250000
vt 0.812500 0.500000
vt 0.812500 1.000000
vt 0.750000 1.000000
vt 0.812500 0.000000
vt 0.875000 0.500000
vt 0.812500 0.750000
vt 0.875000 1.000000
vt 0.875000 0.000000
vt 0.812500 0.250000
vt 0.875000 0.250000
vt 0.937500 0.500000
vt 0.875000 0.750000
vt 0.937500 0.750000
vt 0.937500 0.000000
vt 0.937500 0.250000
vt 1.000000 0.500000
vt 1.000000 0.750000
vt 0.937500 1.000000
vt 1.000000 0.000000
vt 1.000000 0.250000
vt 0.062500 0.500000
vt 0.000000 0.750000
vt 0.000000 0.500000
vt 0.062500 0.750000
vt 0.000000 1.000000
vt 0.062500 0.000000
vt 0.000000 0.250000
vt 0.000000 0.000000
vt 0.125000 0.500000
vt 0.125000 0.750000
vt 0.062500 1.000000
vt 0.125000 0.000000
vt 0.062500 0.250000
vt 0.125000 0.250000
vt 0.187500 0.750000
vt 0.125000 1.000000
vt 0.187500 0.250000
vt 0.187500 0.500000
vt 0.250000 0.750000
vt 0.250000 1.000000
vt 0.187500 1.000000
vt 0.250000 0.000000
vt 0.187500 0.000000
vt 0.250000 0.250000
vt 0.312500 0.500000
vt 0.250000 0.500000
vt 0.312500 1.000000
vt 0.312500 0.000000
vt 0.312500 0.250000
vt 0.375000 0.750000
vt 0.312500 0.750000
vt 0.375000 0.000000
vt 0.375000 0.250000
vt 0.375000 0.500000
vt 0.437500 0.750000
vt 0.437500 1.000000
vt 0.375000 1.000000
vt 0.437500 0.000000
vt 0.437500 0.250000
vt 0.437500 0.500000
vt 1.000000 1.000000
s 0
g VerdigrisCoin_Inner.001_MAT_BrightGold
usemtl MAT_BrightGold
f 77/111/57 74/112/57 73/113/57
f 74/112/58 79/114/58 75/115/58
f 75/116/59 80/117/59 76/118/59
f 76/118/60 77/111/60 73/113/60
f 77/111/61 82/119/61 78/120/61
f 82/119/62 79/114/62 78/120/62
f 83/121/63 80/117/63 79/122/63
f 84/123/64 77/111/64 80/117/64
f 85/124/65 82/119/65 81/125/65
f 86/126/66 83/127/66 82/119/66
f 87/128/67 84/123/67 83/121/67
f 88/129/68 81/125/68 84/123/68
f 89/130/69 86/126/69 85/124/69
f 90/131/70 87/132/70 86/126/70
f 91/133/71 88/129/71 87/128/71
f 92/134/72 85/124/72 88/129/72
f 93/135/73 90/131/73 89/130/73
f 90/131/74 95/136/74 91/137/74
f 95/138/75 92/134/75 91/133/75
f 92/134/76 93/135/76 89/130/76
f 97/139/77 94/140/77 93/135/77
f 94/140/78 99/141/78 95/136/78
f 99/142/79 96/143/79 95/138/79
f 100/144/80 93/135/80 96/143/80
f 101/145/81 98/146/81 97/139/81
f 102/147/82 99/141/82 98/146/82
f 103/148/83 100/144/83 99/142/83
f 104/149/84 97/139/84 100/144/84
f 105/150/85 102/147/85 101/145/85
f 106/151/86 103/152/86 102/147/86
f 107/153/87 104/149/87 103/148/87
f 108/154/88 101/145/88 104/149/88
f 109/155/58 106/156/58 105/157/58
f 110/158/57 107/159/57 106/156/57
f 111/160/60 108/161/60 107/162/60
f 108/161/59 109/155/59 105/157/59
f 113/163/62 110/158/62 109/155/62
f 114/164/61 111/165/61 110/158/61
f 115/166/64 112/167/64 111/160/64
f 116/168/63 109/155/63 112/167/63
f 113/163/66 118/169/66 114/164/66
f 118/169/65 115/170/65 114/164/65
f 115/166/68 120/171/68 116/168/68
f 120/171/67 113/163/67 116/168/67
f 117/172/70 122/173/70 118/169/70
f 118/169/69 123/174/69 119/175/69
f 123/176/72 120/171/72 119/177/72
f 124/178/71 117/172/71 120/171/71
f 125/179/74 122/173/74 121/180/74
f 122/173/73 127/181/73 123/174/73
f 127/182/76 124/178/76 123/176/76
f 128/183/75 121/180/75 124/178/75
f 125/179/78 130/184/78 126/185/78
f 130/184/77 127/181/77 126/185/77
f 131/186/80 128/183/80 127/182/80
f 132/187/79 125/179/79 128/183/79
f 129/188/82 134/189/82 130/184/82
f 130/184/81 135/190/81 131/191/81
f 135/192/84 132/187/84 131/186/84
f 136/193/83 129/188/83 132/187/83
f 73/113/86 134/189/86 133/194/86
f 74/112/85 135/190/85 134/189/85
f 75/116/88 136/193/88 135/192/88
f 136/193/87 73/113/87 133/194/87
f 77/111/57 78/120/57 74/112/57
f 74/112/58 78/120/58 79/114/58
f 75/116/59 79/122/59 80/117/59
f 76/118/60 80/117/60 77/111/60
f 77/111/61 81/125/61 82/119/61
f 82/119/62 83/127/62 79/114/62
f 83/121/63 84/123/63 80/117/63
f 84/123/64 81/125/64 77/111/64
f 85/124/65 86/126/65 82/119/65
f 86/126/66 87/132/66 83/127/66
f 87/128/67 88/129/67 84/123/67
f 88/129/68 85/124/68 81/125/68
f 89/130/69 90/131/69 86/126/69
f 90/131/70 91/137/70 87/132/70
f 91/133/71 92/134/71 88/129/71
f 92/134/72 89/130/72 85/124/72
f 93/135/73 94/140/73 90/131/73
f 90/131/74 94/140/74 95/136/74
f 95/138/75 96/143/75 92/134/75
f 92/134/76 96/143/76 93/135/76
f 97/139/77 98/146/77 94/140/77
f 94/140/78 98/146/78 99/141/78
f 99/142/79 100/144/79 96/143/79
f 100/144/80 97/139/80 93/135/80
f 101/145/81 102/147/81 98/146/81
f 102/147/82 103/152/82 99/141/82
f 103/148/83 104/149/83 100/144/83
f 104/149/84 101/145/84 97/139/84
f 105/150/85 106/151/85 102/147/85
f 106/151/86 107/195/86 103/152/86
f 107/153/87 108/154/87 104/149/87
f 108/154/88 105/150/88 101/145/88
f 109/155/58 110/158/58 106/156/58
f 110/158/57 111/165/57 107/159/57
f 111/160/60 112/167/60 108/161/60
f 108/161/59 112/167/59 109/155/59
f 113/163/62 114/164/62 110/158/62
f 114/164/61 115/170/61 111/165/61
f 115/166/64 116/168/64 112/167/64
f 116/168/63 113/163/63 109/155/63
f 113/163/66 117/172/66 118/169/66
f 118/169/65 119/175/65 115/170/65
f 115/166/68 119/177/68 120/171/68
f 120/171/67 117/172/67 113/163/67
f 117/172/70 121/180/70 122/173/70
f 118/169/69 122/173/69 123/174/69
f 123/176/72 124/178/72 120/171/72
f 124/178/71 121/180/71 117/172/71
f 125/179/74 126/185/74 122/173/74
f 122/173/73 126/185/73 127/181/73
f 127/182/76 128/183/76 124/178/76
f 128/183/75 125/179/75 121/180/75
f 125/179/78 129/188/78 130/184/78
f 130/184/77 131/191/77 127/181/77
f 131/186/80 132/187/80 128/183/80
f 132/187/79 129/188/79 125/179/79
f 129/188/82 133/194/82 134/189/82
f 130/184/81 134/189/81 135/190/81
f 135/192/84 136/193/84 132/187/84
f 136/193/83 133/194/83 129/188/83
f 73/113/86 74/112/86 134/189/86
f 74/112/85 75/115/85 135/190/85
f 75/116/88 76/118/88 136/193/88
f 136/193/87 76/118/87 73/113/87
g VerdigrisCoin_Mark.001_Mesh
v -0.102322 -0.462322 0.295000
v -0.124110 -0.455340 0.295000
v -0.109840 -0.400172 0.320000
v 0.028870 -0.126359 0.320000
v -0.060821 -0.385466 0.320000
v 0.162322 -0.197678 0.295000
v 0.149095 -0.175549 0.320000
v 0.168029 -0.158053 0.295000
v 0.082421 0.028345 0.320000
v 0.074637 0.060267 0.295000
v 0.071971 0.018053 0.295000
v 0.065129 -0.021611 0.320000
v 0.284797 0.388964 0.320000
v 0.299840 0.414784 0.295000
v 0.305363 0.379733 0.295000
v 0.159773 0.135449 0.320000
v 0.040160 0.605216 0.295000
v 0.015683 0.586081 0.320000
v 0.005883 0.599367 0.295000
v -0.235890 0.215340 0.295000
v -0.225883 0.260633 0.295000
v -0.217287 0.244945 0.320000
v 0.028870 -0.126359 0.040000
v -0.109840 -0.400172 0.040000
v -0.124110 -0.455340 0.065000
v -0.102322 -0.462322 0.065000
v -0.060821 -0.385466 0.040000
v 0.162322 -0.197678 0.065000
v 0.168029 -0.158053 0.065000
v 0.149095 -0.175549 0.040000
v 0.082421 0.028345 0.040000
v 0.065129 -0.021611 0.040000
v 0.071971 0.018053 0.065000
v 0.074637 0.060267 0.065000
v 0.284797 0.388964 0.040000
v 0.159773 0.135449 0.040000
v 0.305363 0.379733 0.065000
v 0.299840 0.414784 0.065000
v 0.040160 0.605216 0.065000
v 0.005883 0.599367 0.065000
v 0.015683 0.586081 0.040000
v -0.235890 0.215340 0.065000
v -0.217287 0.244945 0.040000
v -0.225883 0.260633 0.065000
vn 0.5295 -0.1833 -0.8282
vn -0.8299 0.1195 -0.5449
vn -0.9145 0.3166 0.2519
vn -0.6663 0.3286 -0.6694
vn 0.1449 -0.8491 -0.5080
vn 0.8833 -0.1952 -0.4262
vn -0.1079 0.3597 0.9268
vn -0.8299 0.1195 0.5449
vn -0.9294 0.0587 -0.3643
vn -0.7883 -0.1242 0.6026
vn 0.1449 -0.8491 0.5080
vn 0.8833 -0.1952 0.4262
vn -0.5000 0.5000 -0.7071
vn -0.0000 -0.9956 0.0933
vn -0.6208 -0.3386 -0.7071
vn -0.0000 0.7071 -0.7071
vn -0.5000 0.5000 0.7071
vn -0.6208 -0.3386 0.7071
vn -0.0000 -0.0000 -1.0000
vn -0.5732 0.4140 0.7071
vn -0.0000 -0.0000 1.0000
vn -0.5732 0.4140 -0.7071
vn -0.3807 -0.5191 -0.7652
vn -0.3807 -0.5191 0.7652
vn 0.7238 0.1206 -0.6794
vn 0.7003 -0.4791 -0.5292
vn 0.7238 0.1206 0.6794
vn 0.7003 -0.4791 0.5292
vn 0.3052 0.9523 -0.0000
vn -0.9898 0.1425 -0.0000
vn -0.9980 0.0630 -0.0000
vn -0.9878 -0.1556 -0.0000
vn 0.1682 -0.9858 -0.0000
vn 0.9765 -0.2157 -0.0000
vn -0.7071 0.7071 -0.0000
vn 0.9864 0.1644 -0.0000
vn -0.8779 -0.4789 -0.0000
vn -0.8107 0.5855 -0.0000
vn -0.5914 -0.8064 -0.0000
vn 0.8253 -0.5647 -0.0000
vn 0.0853 0.2662 -0.9601
vn -0.8017 0.4061 -0.4386
vn -0.9294 0.0587 0.3643
vn -0.7883 -0.1242 -0.6026
vn 0.1228 0.3831 0.9155
vn -0.9145 0.3166 -0.2519
vn -0.6663 0.3286 0.6694
vn -0.0000 -0.4472 -0.8944
vn -0.0000 -1.0000 -0.0000
vn -0.3790 -0.5175 -0.7672
vn -0.3790 -0.5175 0.7672
vn 0.7228 0.1204 -0.6804
vn 0.6962 -0.4755 -0.5377
vn 0.7228 0.1204 0.6804
vn 0.6962 -0.4755 0.5377
s 0
g VerdigrisCoin_Mark.001_MAT_Pearl
usemtl MAT_Pearl
f 138//89 140//89 141//89
f 142//90 143//90 144//90
f 145//91 147//91 148//91
f 149//92 151//92 152//92
f 153//93 154//93 155//93
f 156//94 157//94 158//94
f 160//95 162//95 163//95
f 164//96 165//96 166//96
f 167//97 169//97 170//97
f 171//98 173//98 174//98
f 175//99 176//99 177//99
f 178//100 179//100 180//100
f 141//101 142//101 137//101
f 140//102 148//102 141//102
f 148//103 144//103 143//103
f 163//104 167//104 159//104
f 164//105 163//105 162//105
f 165//106 168//106 166//106
f 149//107 140//107 139//107
f 152//108 146//108 145//108
f 159//109 171//109 160//109
f 170//110 172//110 167//110
f 149//111 153//111 150//111
f 175//112 171//112 174//112
f 156//113 139//113 138//113
f 154//114 157//114 155//114
f 160//115 178//115 161//115
f 180//116 177//116 176//116
f 162//117 138//117 137//117
f 165//118 142//118 144//118
f 170//119 147//119 146//119
f 174//120 151//120 150//120
f 176//121 153//121 155//121
f 178//122 157//122 156//122
f 142//123 162//123 137//123
f 141//107 148//107 143//107
f 140//109 152//109 145//109
f 139//107 154//107 149//107
f 139//107 158//107 154//107
f 138//124 178//124 156//124
f 147//125 165//125 144//125
f 151//126 170//126 146//126
f 153//127 174//127 150//127
f 157//128 176//128 155//128
f 159//107 167//107 172//107
f 163//109 166//109 168//109
f 160//109 171//109 177//109
f 160//109 177//109 179//109
f 141//129 137//129 138//129
f 138//130 139//130 140//130
f 145//131 146//131 147//131
f 149//132 150//132 151//132
f 163//109 159//109 160//109
f 160//133 161//133 162//133
f 167//134 168//134 169//134
f 171//135 172//135 173//135
f 141//101 143//101 142//101
f 140//136 145//136 148//136
f 148//103 147//103 144//103
f 163//137 168//137 167//137
f 164//105 166//105 163//105
f 165//106 169//106 168//106
f 149//107 152//107 140//107
f 152//108 151//108 146//108
f 159//109 172//109 171//109
f 170//110 173//110 172//110
f 149//138 154//138 153//138
f 175//139 177//139 171//139
f 156//140 158//140 139//140
f 154//141 158//141 157//141
f 160//142 179//142 178//142
f 180//143 179//143 177//143
f 162//117 161//117 138//117
f 165//118 164//118 142//118
f 170//119 169//119 147//119
f 174//120 173//120 151//120
f 176//121 175//121 153//121
f 178//122 180//122 157//122
f 142//123 164//123 162//123
f 138//124 161//124 178//124
f 147//125 169//125 165//125
f 151//126 173//126 170//126
f 153//127 175//127 174//127
f 157//128 180//128 176//128
g VerdigrisCoin_Notch.001_Mesh
v 0.510754 0.280000 0.186189
v 0.497218 0.299695 0.176711
v 0.497713 0.303649 0.201474
v 0.740116 0.280000 0.346790
v 0.725622 0.303509 0.361057
v 0.753652 0.299695 0.356268
v 0.710197 0.600304 0.325841
v 0.682893 0.599270 0.331138
v 0.690967 0.620000 0.312376
v 0.540673 0.600304 0.207139
v 0.559903 0.620000 0.220604
v 0.540653 0.599298 0.231540
v 0.659883 0.280000 -0.026790
v 0.669786 0.303649 -0.044272
v 0.646348 0.299695 -0.036268
v 0.889246 0.280000 0.133811
v 0.902782 0.299695 0.143289
v 0.897695 0.303509 0.115312
v 0.859327 0.600304 0.112861
v 0.840097 0.620000 0.099396
v 0.854966 0.599270 0.085393
v 0.689802 0.600304 -0.005841
v 0.712726 0.599298 -0.014205
v 0.709033 0.620000 0.007624
vn 0.8420 0.5298 -0.1015
vn -0.0842 0.4785 -0.8740
vn -0.1231 -0.6392 -0.7591
vn 0.7247 -0.6885 -0.0278
vn 0.1926 0.5298 0.8259
vn -0.8501 0.4785 0.2198
vn -0.7555 -0.6392 0.1440
vn 0.2217 -0.6885 0.6905
vn 0.4382 0.6457 -0.6253
vn -0.1836 -0.1252 -0.9750
vn -0.4377 0.6457 0.6257
vn -0.9790 -0.1252 0.1609
vn 0.9897 -0.1434 0.0031
vn 0.4128 -0.6943 -0.5895
vn 0.3414 -0.1434 0.9289
vn -0.4128 -0.6943 0.5895
vn 0.6275 0.6427 0.4394
vn -0.6275 0.6427 -0.4394
vn -0.5265 -0.7661 -0.3687
vn 0.5265 -0.7661 0.3687
vn -0.0000 1.0000 -0.0000
vn 0.5736 -0.0000 -0.8192
vn 0.8067 -0.1738 0.5648
vn -0.8067 -0.1738 -0.5648
vn -0.0000 -1.0000 -0.0000
vn -0.5736 -0.0000 0.8192
vn 0.4369 0.6480 -0.6239
vn -0.1844 -0.1253 -0.9748
vn -0.4369 0.6480 0.6239
vn -0.9791 -0.1253 0.1601
vn 0.9897 -0.1432 -0.0051
vn 0.4124 -0.6948 -0.5892
vn 0.3337 -0.1432 0.9317
vn -0.4126 -0.6948 0.5891
s 0
g VerdigrisCoin_Notch.001_MAT_DarkIron
usemtl MAT_DarkIron
f 181//144 182//144 183//144
f 184//145 185//145 186//145
f 187//146 188//146 189//146
f 190//147 191//147 192//147
f 193//148 194//148 195//148
f 196//149 197//149 198//149
f 199//150 200//150 201//150
f 202//151 203//151 204//151
f 185//152 181//152 183//152
f 185//153 187//153 186//153
f 193//154 198//154 194//154
f 199//155 198//155 197//155
f 190//156 183//156 182//156
f 188//157 191//157 189//157
f 194//158 202//158 195//158
f 204//159 201//159 200//159
f 193//160 182//160 181//160
f 197//161 184//161 186//161
f 200//162 187//162 189//162
f 202//163 191//163 190//163
f 184//164 193//164 181//164
f 183//165 188//165 185//165
f 183//165 192//165 188//165
f 182//166 202//166 190//166
f 187//167 197//167 186//167
f 191//168 200//168 189//168
f 194//169 201//169 203//169
f 194//169 198//169 201//169
f 185//170 184//170 181//170
f 185//171 188//171 187//171
f 193//172 196//172 198//172
f 199//173 201//173 198//173
f 190//174 192//174 183//174
f 188//175 192//175 191//175
f 194//176 203//176 202//176
f 204//177 203//177 201//177
f 193//160 195//160 182//160
f 197//161 196//161 184//161
f 200//162 199//162 187//162
f 202//163 204//163 191//163
f 184//164 196//164 193//164
f 182//166 195//166 202//166
f 187//167 199//167 197//167
f 191//168 204//168 200//168
g VerdigrisCoin_Rim.001_Mesh
v 0.860000 0.000000 0.140000
v 0.780000 0.000000 0.220000
v 0.700000 0.000000 0.140000
v 0.780000 -0.000000 0.060000
v 0.808136 0.294137 0.140000
v 0.732960 0.266776 0.220000
v 0.657785 0.239414 0.140000
v 0.732960 0.266776 0.060000
v 0.658798 0.552797 0.140000
v 0.597515 0.501374 0.220000
v 0.536231 0.449951 0.140000
v 0.597515 0.501374 0.060000
v 0.430000 0.744782 0.140000
v 0.390000 0.675500 0.220000
v 0.350000 0.606218 0.140000
v 0.390000 0.675500 0.060000
v 0.149337 0.846935 0.140000
v 0.135446 0.768150 0.220000
v 0.121554 0.689365 0.140000
v 0.135446 0.768150 0.060000
v -0.149337 0.846935 0.140000
v -0.135445 0.768150 0.220000
v -0.121554 0.689365 0.140000
v -0.135445 0.768150 0.060000
v -0.430000 0.744782 0.140000
v -0.390000 0.675500 0.220000
v -0.350000 0.606218 0.140000
v -0.390000 0.675500 0.060000
v -0.658798 0.552797 0.140000
v -0.597515 0.501374 0.220000
v -0.536231 0.449951 0.140000
v -0.597515 0.501374 0.060000
v -0.808136 0.294138 0.140000
v -0.732960 0.266776 0.220000
v -0.657785 0.239414 0.140000
v -0.732960 0.266776 0.060000
v -0.860000 0.000000 0.140000
v -0.780000 0.000000 0.220000
v -0.700000 0.000000 0.140000
v -0.780000 0.000000 0.060000
v -0.808136 -0.294137 0.140000
v -0.732960 -0.266776 0.220000
v -0.657785 -0.239414 0.140000
v -0.732960 -0.266776 0.060000
v -0.658798 -0.552797 0.140000
v -0.597515 -0.501374 0.220000
v -0.536231 -0.449951 0.140000
v -0.597515 -0.501374 0.060000
v -0.430000 -0.744782 0.140000
v -0.390000 -0.675500 0.220000
v -0.350000 -0.606218 0.140000
v -0.390000 -0.675500 0.060000
v -0.149337 -0.846935 0.140000
v -0.135445 -0.768150 0.220000
v -0.121554 -0.689365 0.140000
v -0.135445 -0.768150 0.060000
v 0.149337 -0.846935 0.140000
v 0.135446 -0.768150 0.220000
v 0.121554 -0.689365 0.140000
v 0.135446 -0.768150 0.060000
v 0.430000 -0.744782 0.140000
v 0.390000 -0.675500 0.220000
v 0.350000 -0.606218 0.140000
v 0.390000 -0.675500 0.060000
v 0.658798 -0.552797 0.140000
v 0.597515 -0.501374 0.220000
v 0.536231 -0.449951 0.140000
v 0.597515 -0.501374 0.060000
v 0.808136 -0.294137 0.140000
v 0.732960 -0.266776 0.220000
v 0.657785 -0.239414 0.140000
v 0.732960 -0.266776 0.060000
vn 0.7017 0.1237 0.7017
vn -0.7017 -0.1237 0.7017
vn -0.7017 -0.1237 -0.7017
vn 0.7017 0.1237 -0.7017
vn 0.6170 0.3562 0.7017
vn -0.6170 -0.3562 0.7017
vn -0.6170 -0.3562 -0.7017
vn 0.6170 0.3562 -0.7017
vn 0.4580 0.5458 0.7017
vn -0.4580 -0.5458 0.7017
vn -0.4580 -0.5458 -0.7017
vn 0.4580 0.5458 -0.7017
vn 0.2437 0.6695 0.7017
vn -0.2437 -0.6695 0.7017
vn -0.2437 -0.6695 -0.7017
vn 0.2437 0.6695 -0.7017
vn -0.0000 0.7125 0.7017
vn -0.0000 -0.7125 0.7017
vn -0.0000 -0.7125 -0.7017
vn -0.0000 0.7125 -0.7017
vn -0.2437 0.6695 0.7017
vn 0.2437 -0.6695 0.7017
vn 0.2437 -0.6695 -0.7017
vn -0.2437 0.6695 -0.7017
vn -0.4580 0.5458 0.7017
vn 0.4580 -0.5458 0.7017
vn 0.4580 -0.5458 -0.7017
vn -0.4580 0.5458 -0.7017
vn -0.6170 0.3562 0.7017
vn 0.6170 -0.3562 0.7017
vn 0.6170 -0.3562 -0.7017
vn -0.6170 0.3562 -0.7017
vn -0.7017 0.1237 0.7017
vn 0.7017 -0.1237 0.7017
vn 0.7017 -0.1237 -0.7017
vn -0.7017 0.1237 -0.7017
vt 0.555556 0.500000
vt 0.500000 0.750000
vt 0.500000 0.500000
vt 0.555556 0.750000
vt 0.500000 1.000000
vt 0.555556 0.000000
vt 0.500000 0.250000
vt 0.500000 0.000000
vt 0.555556 0.250000
vt 0.611111 0.500000
vt 0.611111 1.000000
vt 0.555556 1.000000
vt 0.611111 0.000000
vt 0.611111 0.250000
vt 0.666667 0.500000
vt 0.611111 0.750000
vt 0.666667 0.750000
vt 0.666667 0.000000
vt 0.666667 0.250000
vt 0.722222 0.750000
vt 0.666667 1.000000
vt 0.722222 0.250000
vt 0.722222 0.500000
vt 0.777778 0.750000
vt 0.722222 1.000000
vt 0.777778 0.000000
vt 0.722222 0.000000
vt 0.777778 0.250000
vt 0.833333 0.500000
vt 0.777778 0.500000
vt 0.833333 0.750000
vt 0.777778 1.000000
vt 0.833333 0.000000
vt 0.833333 0.250000
vt 0.888889 0.500000
vt 0.888889 1.000000
vt 0.833333 1.000000
vt 0.888889 0.250000
vt 0.944444 0.500000
vt 0.888889 0.750000
vt 0.944444 0.750000
vt 0.944444 0.000000
vt 0.888889 0.000000
vt 0.944444 0.250000
vt 1.000000 0.750000
vt 0.944444 1.000000
vt 1.000000 0.000000
vt 1.000000 0.250000
vt 0.055556 0.500000
vt 0.000000 0.750000
vt 0.000000 0.500000
vt 0.055556 0.750000
vt 0.000000 1.000000
vt 0.055556 0.000000
vt 0.000000 0.250000
vt 0.000000 0.000000
vt 0.055556 0.250000
vt 0.111111 0.750000
vt 0.055556 1.000000
vt 0.111111 0.000000
vt 0.111111 0.250000
vt 0.111111 0.500000
vt 0.166667 0.750000
vt 0.111111 1.000000
vt 0.166667 0.000000
vt 0.166667 0.250000
vt 0.222222 0.500000
vt 0.166667 0.500000
vt 0.222222 1.000000
vt 0.166667 1.000000
vt 0.222222 0.000000
vt 0.222222 0.250000
vt 0.277778 0.500000
vt 0.222222 0.750000
vt 0.277778 0.750000
vt 0.277778 0.000000
vt 0.333333 0.750000
vt 0.277778 1.000000
vt 0.333333 0.000000
vt 0.277778 0.250000
vt 0.333333 0.500000
vt 0.388889 0.500000
vt 0.388889 0.750000
vt 0.333333 1.000000
vt 0.388889 0.000000
vt 0.333333 0.250000
vt 0.444444 0.500000
vt 0.444444 0.750000
vt 0.388889 1.000000
vt 0.444444 0.000000
vt 0.388889 0.250000
vt 0.444444 0.250000
vt 0.444444 1.000000
vt 1.000000 0.500000
vt 1.000000 1.000000
s 0
g VerdigrisCoin_Rim.001_MAT_OldGold
usemtl MAT_OldGold
f 209/196/178 206/197/178 205/198/178
f 210/199/179 207/200/179 206/197/179
f 211/201/180 208/202/180 207/203/180
f 212/204/181 205/198/181 208/202/181
f 213/205/182 210/199/182 209/196/182
f 210/199/183 215/206/183 211/207/183
f 215/208/184 212/204/184 211/201/184
f 216/209/185 209/196/185 212/204/185
f 217/210/186 214/211/186 213/205/186
f 218/212/187 215/206/187 214/211/187
f 219/213/188 216/209/188 215/208/188
f 220/214/189 213/205/189 216/209/189
f 217/210/190 222/215/190 218/212/190
f 222/215/191 219/216/191 218/212/191
f 219/213/192 224/217/192 220/214/192
f 224/217/193 217/210/193 220/214/193
f 221/218/194 226/219/194 222/215/194
f 226/219/195 223/220/195 222/215/195
f 227/221/196 224/217/196 223/222/196
f 228/223/197 221/218/197 224/217/197
f 229/224/198 226/219/198 225/225/198
f 230/226/199 227/227/199 226/219/199
f 231/228/200 228/223/200 227/221/200
f 232/229/201 225/225/201 228/223/201
f 233/230/202 230/226/202 229/224/202
f 230/226/203 235/231/203 231/232/203
f 231/228/204 236/233/204 232/229/204
f 232/229/205 233/230/205 229/224/205
f 237/234/206 234/235/206 233/230/206
f 238/236/207 235/231/207 234/235/207
f 239/237/208 236/233/208 235/238/208
f 240/239/209 233/230/209 236/233/209
f 237/234/210 242/240/210 238/236/210
f 242/240/211 239/241/211 238/236/211
f 243/242/212 240/239/212 239/237/212
f 244/243/213 237/234/213 240/239/213
f 245/244/179 242/245/179 241/246/179
f 246/247/178 243/248/178 242/245/178
f 247/249/181 244/250/181 243/251/181
f 248/252/180 241/246/180 244/250/180
f 245/244/183 250/253/183 246/247/183
f 250/253/182 247/254/182 246/247/182
f 251/255/185 248/252/185 247/249/185
f 252/256/184 245/244/184 248/252/184
f 249/257/187 254/258/187 250/253/187
f 254/258/186 251/259/186 250/253/186
f 255/260/189 252/256/189 251/255/189
f 256/261/188 249/257/188 252/256/188
f 257/262/191 254/258/191 253/263/191
f 254/258/190 259/264/190 255/265/190
f 259/266/193 256/261/193 255/260/193
f 260/267/192 253/263/192 256/261/192
f 261/268/195 258/269/195 257/262/195
f 262/270/194 259/264/194 258/269/194
f 263/271/197 260/267/197 259/266/197
f 260/267/196 261/268/196 257/262/196
f 261/268/199 266/272/199 262/270/199
f 266/272/198 263/273/198 262/270/198
f 267/274/201 264/275/201 263/271/201
f 264/275/200 265/276/200 261/268/200
f 269/277/203 266/272/203 265/276/203
f 270/278/202 267/279/202 266/272/202
f 271/280/205 268/281/205 267/274/205
f 268/281/204 269/277/204 265/276/204
f 273/282/207 270/278/207 269/277/207
f 274/283/206 271/284/206 270/278/206
f 275/285/209 272/286/209 271/280/209
f 276/287/208 269/277/208 272/286/208
f 205/198/211 274/283/211 273/282/211
f 274/283/210 207/200/210 275/288/210
f 207/203/213 276/287/213 275/285/213
f 276/287/212 205/198/212 273/282/212
f 209/196/178 210/199/178 206/197/178
f 210/199/179 211/207/179 207/200/179
f 211/201/180 212/204/180 208/202/180
f 212/204/181 209/196/181 205/198/181
f 213/205/182 214/211/182 210/199/182
f 210/199/183 214/211/183 215/206/183
f 215/208/184 216/209/184 212/204/184
f 216/209/185 213/205/185 209/196/185
f 217/210/186 218/212/186 214/211/186
f 218/212/187 219/216/187 215/206/187
f 219/213/188 220/214/188 216/209/188
f 220/214/189 217/210/189 213/205/189
f 217/210/190 221/218/190 222/215/190
f 222/215/191 223/220/191 219/216/191
f 219/213/192 223/222/192 224/217/192
f 224/217/193 221/218/193 217/210/193
f 221/218/194 225/225/194 226/219/194
f 226/219/195 227/227/195 223/220/195
f 227/221/196 228/223/196 224/217/196
f 228/223/197 225/225/197 221/218/197
f 229/224/198 230/226/198 226/219/198
f 230/226/199 231/232/199 227/227/199
f 231/228/200 232/229/200 228/223/200
f 232/229/201 229/224/201 225/225/201
f 233/230/202 234/235/202 230/226/202
f 230/226/203 234/235/203 235/231/203
f 231/228/204 235/238/204 236/233/204
f 232/229/205 236/233/205 233/230/205
f 237/234/206 238/236/206 234/235/206
f 238/236/207 239/241/207 235/231/207
f 239/237/208 240/239/208 236/233/208
f 240/239/209 237/234/209 233/230/209
f 237/234/210 241/289/210 242/240/210
f 242/240/211 243/290/211 239/241/211
f 243/242/212 244/243/212 240/239/212
f 244/243/213 241/289/213 237/234/213
f 245/244/179 246/247/179 242/245/179
f 246/247/178 247/254/178 243/248/178
f 247/249/181 248/252/181 244/250/181
f 248/252/180 245/244/180 241/246/180
f 245/244/183 249/257/183 250/253/183
f 250/253/182 251/259/182 247/254/182
f 251/255/185 252/256/185 248/252/185
f 252/256/184 249/257/184 245/244/184
f 249/257/187 253/263/187 254/258/187
f 254/258/186 255/265/186 251/259/186
f 255/260/189 256/261/189 252/256/189
f 256/261/188 253/263/188 249/257/188
f 257/262/191 258/269/191 254/258/191
f 254/258/190 258/269/190 259/264/190
f 259/266/193 260/267/193 256/261/193
f 260/267/192 257/262/192 253/263/192
f 261/268/195 262/270/195 258/269/195
f 262/270/194 263/273/194 259/264/194
f 263/271/197 264/275/197 260/267/197
f 260/267/196 264/275/196 261/268/196
f 261/268/199 265/276/199 266/272/199
f 266/272/198 267/279/198 263/273/198
f 267/274/201 268/281/201 264/275/201
f 264/275/200 268/281/200 265/276/200
f 269/277/203 270/278/203 266/272/203
f 270/278/202 271/284/202 267/279/202
f 271/280/205 272/286/205 268/281/205
f 268/281/204 272/286/204 269/277/204
f 273/282/207 274/283/207 270/278/207
f 274/283/206 275/288/206 271/284/206
f 275/285/209 276/287/209 272/286/209
f 276/287/208 273/282/208 269/277/208
f 205/198/211 206/197/211 274/283/211
f 274/283/210 206/197/210 207/200/210
f 207/203/213 208/202/213 276/287/213
f 276/287/212 208/202/212 205/198/212
