# Blender 5.0.1
# www.blender.org
mtllib warding_charm.mtl
g Warding_Eye.001_Mesh
v 0.000000 -0.130000 0.220000
v 0.188136 -0.030499 0.272572
v -0.071860 -0.030499 0.305064
v -0.232550 -0.030499 0.220000
v -0.071860 -0.030499 0.134936
v 0.188136 -0.030499 0.167428
v 0.071860 0.130499 0.305064
v -0.188136 0.130499 0.272572
v -0.188136 0.130499 0.167428
v 0.071860 0.130499 0.134936
v 0.232550 0.130499 0.220000
v 0.000000 0.230000 0.220000
vn 0.0988 -0.6045 0.7905
vn 0.4675 -0.8840 -0.0000
vn -0.3157 -0.7379 0.5965
vn -0.3157 -0.7379 -0.5965
vn 0.0988 -0.6045 -0.7905
vn 0.9640 -0.2659 -0.0000
vn 0.1233 -0.1100 0.9863
vn -0.4620 -0.1575 0.8728
vn -0.4620 -0.1575 -0.8728
vn 0.1233 -0.1100 -0.9863
vn 0.4620 0.1575 0.8728
vn -0.1233 0.1100 0.9863
vn -0.9640 0.2659 -0.0000
vn -0.1233 0.1100 -0.9863
vn 0.4620 0.1575 -0.8728
vn 0.3157 0.7379 0.5965
vn -0.0988 0.6045 0.7905
vn -0.4675 0.8840 -0.0000
vn -0.0988 0.6045 -0.7905
vn 0.3157 0.7379 -0.5965
vt 0.181819 0.000000
vt 0.272728 0.157461
vt 0.090910 0.157461
vt 0.363637 0.000000
vt 0.454546 0.157461
vt 0.909091 0.000000
vt 1.000000 0.157461
vt 0.818182 0.157461
vt 0.727273 0.000000
vt 0.636364 0.157461
vt 0.545455 0.000000
vt 0.363637 0.314921
vt 0.181819 0.314921
vt 0.909091 0.314921
vt 0.727273 0.314921
vt 0.545455 0.314921
vt 0.000000 0.314921
vt 0.272728 0.472382
vt 0.090910 0.472382
vt 0.818182 0.472382
vt 0.636364 0.472382
vt 0.454546 0.472382
s 0
g Warding_Eye.001_MAT_Sapphire
usemtl MAT_Sapphire
f 1/1/1 2/2/1 3/3/1
f 2/2/2 1/4/2 6/5/2
f 1/6/3 3/7/3 4/8/3
f 1/9/4 4/8/4 5/10/4
f 1/11/5 5/10/5 6/5/5
f 2/2/6 6/5/6 11/12/6
f 3/3/7 2/2/7 7/13/7
f 4/8/8 3/7/8 8/14/8
f 5/10/9 4/8/9 9/15/9
f 6/5/10 5/10/10 10/16/10
f 2/2/11 11/12/11 7/13/11
f 3/3/12 7/13/12 8/17/12
f 4/8/13 8/14/13 9/15/13
f 5/10/14 9/15/14 10/16/14
f 6/5/15 10/16/15 11/12/15
f 7/13/16 11/12/16 12/18/16
f 8/17/17 7/13/17 12/19/17
f 9/15/18 8/14/18 12/20/18
f 10/16/19 9/15/19 12/21/19
f 11/12/20 10/16/20 12/22/20
g Warding_Inset.001_Mesh
v -0.473952 0.559482 0.190000
v -0.512929 0.490503 0.190000
v -0.465057 0.508954 0.240000
v -0.046048 0.740518 0.190000
v 0.035205 0.720604 0.240000
v 0.046048 0.740518 0.190000
v 0.473952 0.559482 0.190000
v 0.464903 0.540000 0.240000
v 0.512929 0.490503 0.190000
v 0.351886 -0.256070 0.240000
v 0.400000 -0.300000 0.190000
v 0.029761 -0.799822 0.190000
v -0.027253 -0.767674 0.240000
v -0.029761 -0.799822 0.190000
v -0.400000 -0.300000 0.190000
v -0.344043 -0.338143 0.240000
v -0.473952 0.559482 0.010000
v -0.465057 0.508954 -0.040000
v -0.512929 0.490503 0.010000
v -0.046048 0.740518 0.010000
v 0.046048 0.740518 0.010000
v 0.035205 0.720604 -0.040000
v 0.473952 0.559482 0.010000
v 0.512929 0.490503 0.010000
v 0.464903 0.540000 -0.040000
v 0.400000 -0.300000 0.010000
v 0.351886 -0.256070 -0.040000
v 0.029761 -0.799822 0.010000
v -0.029761 -0.799822 0.010000
v -0.027253 -0.767674 -0.040000
v -0.344043 -0.338143 -0.040000
v -0.400000 -0.300000 0.010000
vn -0.7293 0.4121 0.5462
vn -0.0000 0.9290 0.3700
vn 0.8219 0.4644 0.3297
vn -0.0000 -0.8411 0.5408
vn -0.7293 0.4121 -0.5462
vn -0.0000 0.9290 -0.3700
vn 0.8219 0.4644 -0.3297
vn -0.0000 -0.8411 -0.5408
vn -0.2755 0.6512 0.7071
vn 0.3532 0.8403 0.4113
vn -0.2755 0.6512 -0.7071
vn 0.3532 0.8403 -0.4113
vn 0.6693 -0.0950 0.7369
vn 0.6693 -0.0950 -0.7369
vn 0.4908 -0.3636 0.7918
vn 0.4908 -0.3636 -0.7918
vn -0.7000 -0.1000 0.7071
vn -0.7415 -0.5469 0.3888
vn -0.7000 -0.1000 -0.7071
vn -0.7415 -0.5469 -0.3888
vn -0.8706 0.4920 -0.0000
vn -0.0000 1.0000 -0.0000
vn 0.8706 0.4920 -0.0000
vn -0.0000 -1.0000 -0.0000
vn -0.3896 0.9210 -0.0000
vn -0.0000 -0.0000 1.0000
vn -0.9899 -0.1414 -0.0000
vn 0.3896 0.9210 -0.0000
vn 0.9899 -0.1414 -0.0000
vn 0.8036 -0.5952 -0.0000
vn -0.8036 -0.5952 -0.0000
vn -0.0000 -0.0000 -1.0000
vn 0.3580 0.8463 0.3945
vn 0.3580 0.8463 -0.3945
vn 0.6736 -0.0962 0.7328
vn 0.6736 -0.0962 -0.7328
vn 0.4901 -0.3632 0.7924
vn 0.4901 -0.3632 -0.7924
vn -0.7341 -0.5438 0.4067
vn -0.7341 -0.5438 -0.4067
s 0
g Warding_Inset.001_MAT_Pearl
usemtl MAT_Pearl
f 13//21 14//21 15//21
f 16//22 17//22 18//22
f 19//23 20//23 21//23
f 24//24 25//24 26//24
f 29//25 30//25 31//25
f 32//26 33//26 34//26
f 35//27 36//27 37//27
f 40//28 41//28 42//28
f 15//29 16//29 13//29
f 20//30 18//30 17//30
f 32//31 30//31 29//31
f 33//32 37//32 34//32
f 22//33 21//33 20//33
f 36//34 39//34 37//34
f 22//35 24//35 23//35
f 40//36 39//36 38//36
f 27//37 15//37 14//37
f 28//38 26//38 25//38
f 30//39 44//39 31//39
f 41//40 43//40 42//40
f 29//41 14//41 13//41
f 33//42 16//42 18//42
f 36//43 19//43 21//43
f 41//44 24//44 26//44
f 16//45 29//45 13//45
f 15//46 20//46 17//46
f 15//46 22//46 20//46
f 15//46 25//46 22//46
f 15//46 28//46 25//46
f 14//47 44//47 27//47
f 19//48 33//48 18//48
f 23//49 36//49 21//49
f 24//50 38//50 23//50
f 27//51 41//51 26//51
f 30//52 37//52 39//52
f 30//52 34//52 37//52
f 30//52 39//52 42//52
f 30//52 42//52 43//52
f 15//29 17//29 16//29
f 20//53 19//53 18//53
f 32//31 34//31 30//31
f 33//54 35//54 37//54
f 22//55 23//55 21//55
f 36//56 38//56 39//56
f 22//57 25//57 24//57
f 40//58 42//58 39//58
f 27//37 28//37 15//37
f 28//59 27//59 26//59
f 30//39 43//39 44//39
f 41//60 44//60 43//60
f 29//41 31//41 14//41
f 33//42 32//42 16//42
f 36//43 35//43 19//43
f 41//44 40//44 24//44
f 16//45 32//45 29//45
f 14//47 31//47 44//47
f 19//48 35//48 33//48
f 23//49 38//49 36//49
f 24//50 40//50 38//50
f 27//51 44//51 41//51
g Warding_Loop.001_Mesh
v 0.295000 1.150000 0.000000
v 0.240000 1.150000 0.055000
v 0.185000 1.150000 0.000000
v 0.240000 1.150000 -0.055000
v 0.255477 1.297500 -0.000000
v 0.207846 1.270000 0.055000
v 0.160215 1.242500 -0.000000
v 0.207846 1.270000 -0.055000
v 0.147500 1.405478 -0.000000
v 0.120000 1.357846 0.055000
v 0.092500 1.310215 -0.000000
v 0.120000 1.357846 -0.055000
v 0.000000 1.445000 -0.000000
v 0.000000 1.390000 0.055000
v 0.000000 1.335000 -0.000000
v 0.000000 1.390000 -0.055000
v -0.147500 1.405478 -0.000000
v -0.120000 1.357846 0.055000
v -0.092500 1.310215 -0.000000
v -0.120000 1.357846 -0.055000
v -0.255477 1.297500 -0.000000
v -0.207846 1.270000 0.055000
v -0.160215 1.242500 -0.000000
v -0.207846 1.270000 -0.055000
v -0.295000 1.150000 -0.000000
v -0.240000 1.150000 0.055000
v -0.185000 1.150000 -0.000000
v -0.240000 1.150000 -0.055000
v -0.255478 1.002500 0.000000
v -0.207846 1.030000 0.055000
v -0.160215 1.057500 0.000000
v -0.207846 1.030000 -0.055000
v -0.147500 0.894523 0.000000
v -0.120000 0.942154 0.055000
v -0.092500 0.989785 0.000000
v -0.120000 0.942154 -0.055000
v 0.000000 0.855000 0.000000
v 0.000000 0.910000 0.055000
v 0.000000 0.965000 0.000000
v 0.000000 0.910000 -0.055000
v 0.147500 0.894523 0.000000
v 0.120000 0.942154 0.055000
v 0.092500 0.989785 0.000000
v 0.120000 0.942154 -0.055000
v 0.255477 1.002500 0.000000
v 0.207846 1.030000 0.055000
v 0.160215 1.057500 0.000000
v 0.207846 1.030000 -0.055000
vn 0.6947 0.1862 0.6947
vn -0.6947 -0.1862 0.6947
vn -0.6947 -0.1862 -0.6947
vn 0.6947 0.1862 -0.6947
vn 0.5086 0.5086 0.6947
vn -0.5086 -0.5086 0.6947
vn -0.5086 -0.5086 -0.6947
vn 0.5086 0.5086 -0.6947
vn 0.1862 0.6947 0.6947
vn -0.1862 -0.6947 0.6947
vn -0.1862 -0.6947 -0.6947
vn 0.1862 0.6947 -0.6947
vn -0.1862 0.6947 0.6947
vn 0.1862 -0.6947 0.6947
vn 0.1862 -0.6947 -0.6947
vn -0.1862 0.6947 -0.6947
vn -0.5086 0.5086 0.6947
vn 0.5086 -0.5086 0.6947
vn 0.5086 -0.5086 -0.6947
vn -0.5086 0.5086 -0.6947
vn -0.6947 0.1862 0.6947
vn 0.6947 -0.1862 0.6947
vn 0.6947 -0.1862 -0.6947
vn -0.6947 0.1862 -0.6947
vt 0.583333 0.500000
vt 0.500000 0.750000
vt 0.500000 0.500000
vt 0.583333 1.000000
vt 0.500000 1.000000
vt 0.583333 0.000000
vt 0.500000 0.250000
vt 0.500000 0.000000
vt 0.666667 0.500000
vt 0.583333 0.750000
vt 0.666667 0.750000
vt 0.666667 0.000000
vt 0.583333 0.250000
vt 0.666667 0.250000
vt 0.750000 0.750000
vt 0.666667 1.000000
vt 0.750000 0.250000
vt 0.833333 0.500000
vt 0.750000 0.500000
vt 0.833333 0.750000
vt 0.750000 1.000000
vt 0.833333 0.000000
vt 0.750000 0.000000
vt 0.833333 0.250000
vt 0.916667 0.500000
vt 0.916667 0.750000
vt 0.833333 1.000000
vt 0.916667 0.000000
vt 1.000000 0.500000
vt 1.000000 1.000000
vt 0.916667 1.000000
vt 1.000000 0.000000
vt 0.916667 0.250000
vt 1.000000 0.250000
vt 0.083333 0.500000
vt 0.000000 0.750000
vt 0.000000 0.500000
vt 0.083333 0.750000
vt 0.000000 1.000000
vt 0.083333 0.000000
vt 0.000000 0.250000
vt 0.000000 0.000000
vt 0.166667 0.500000
vt 0.166667 0.750000
vt 0.083333 1.000000
vt 0.166667 0.000000
vt 0.083333 0.250000
vt 0.166667 0.250000
vt 0.250000 0.500000
vt 0.250000 0.750000
vt 0.166667 1.000000
vt 0.250000 0.000000
vt 0.250000 0.250000
vt 0.333333 0.500000
vt 0.333333 0.750000
vt 0.250000 1.000000
vt 0.333333 0.000000
vt 0.416667 0.500000
vt 0.416667 0.750000
vt 0.333333 1.000000
vt 0.416667 0.000000
vt 0.333333 0.250000
vt 0.416667 0.250000
vt 0.416667 1.000000
vt 1.000000 0.750000
s 0
g Warding_Loop.001_MAT_BrightGold
usemtl MAT_BrightGold
f 49/23/61 46/24/61 45/25/61
f 46/24/62 51/26/62 47/27/62
f 51/28/63 48/29/63 47/30/63
f 48/29/64 49/23/64 45/25/64
f 53/31/65 50/32/65 49/23/65
f 54/33/66 51/26/66 50/32/66
f 55/34/67 52/35/67 51/28/67
f 56/36/68 49/23/68 52/35/68
f 53/31/69 58/37/69 54/33/69
f 58/37/70 55/38/70 54/33/70
f 55/34/71 60/39/71 56/36/71
f 60/39/72 53/31/72 56/36/72
f 61/40/73 58/37/73 57/41/73
f 62/42/74 59/43/74 58/37/74
f 63/44/75 60/39/75 59/45/75
f 64/46/76 57/41/76 60/39/76
f 65/47/77 62/42/77 61/40/77
f 66/48/78 63/49/78 62/42/78
f 67/50/79 64/46/79 63/44/79
f 64/46/80 65/47/80 61/40/80
f 69/51/81 66/48/81 65/47/81
f 66/48/82 71/52/82 67/53/82
f 71/54/83 68/55/83 67/50/83
f 72/56/84 65/47/84 68/55/84
f 73/57/62 70/58/62 69/59/62
f 74/60/61 71/61/61 70/58/61
f 75/62/64 72/63/64 71/64/64
f 72/63/63 73/57/63 69/59/63
f 77/65/66 74/60/66 73/57/66
f 78/66/65 75/67/65 74/60/65
f 79/68/68 76/69/68 75/62/68
f 80/70/67 73/57/67 76/69/67
f 81/71/70 78/66/70 77/65/70
f 82/72/69 79/73/69 78/66/69
f 83/74/72 80/70/72 79/68/72
f 84/75/71 77/65/71 80/70/71
f 85/76/74 82/72/74 81/71/74
f 86/77/73 83/78/73 82/72/73
f 87/79/76 84/75/76 83/74/76
f 84/75/75 85/76/75 81/71/75
f 89/80/78 86/77/78 85/76/78
f 90/81/77 87/82/77 86/77/77
f 91/83/80 88/84/80 87/79/80
f 92/85/79 85/76/79 88/84/79
f 45/25/82 90/81/82 89/80/82
f 46/24/81 91/86/81 90/81/81
f 91/83/84 48/29/84 92/85/84
f 48/29/83 89/80/83 92/85/83
f 49/23/61 50/32/61 46/24/61
f 46/24/62 50/32/62 51/26/62
f 51/28/63 52/35/63 48/29/63
f 48/29/64 52/35/64 49/23/64
f 53/31/65 54/33/65 50/32/65
f 54/33/66 55/38/66 51/26/66
f 55/34/67 56/36/67 52/35/67
f 56/36/68 53/31/68 49/23/68
f 53/31/69 57/41/69 58/37/69
f 58/37/70 59/43/70 55/38/70
f 55/34/71 59/45/71 60/39/71
f 60/39/72 57/41/72 53/31/72
f 61/40/73 62/42/73 58/37/73
f 62/42/74 63/49/74 59/43/74
f 63/44/75 64/46/75 60/39/75
f 64/46/76 61/40/76 57/41/76
f 65/47/77 66/48/77 62/42/77
f 66/48/78 67/53/78 63/49/78
f 67/50/79 68/55/79 64/46/79
f 64/46/80 68/55/80 65/47/80
f 69/51/81 70/87/81 66/48/81
f 66/48/82 70/87/82 71/52/82
f 71/54/83 72/56/83 68/55/83
f 72/56/84 69/51/84 65/47/84
f 73/57/62 74/60/62 70/58/62
f 74/60/61 75/67/61 71/61/61
f 75/62/64 76/69/64 72/63/64
f 72/63/63 76/69/63 73/57/63
f 77/65/66 78/66/66 74/60/66
f 78/66/65 79/73/65 75/67/65
f 79/68/68 80/70/68 76/69/68
f 80/70/67 77/65/67 73/57/67
f 81/71/70 82/72/70 78/66/70
f 82/72/69 83/78/69 79/73/69
f 83/74/72 84/75/72 80/70/72
f 84/75/71 81/71/71 77/65/71
f 85/76/74 86/77/74 82/72/74
f 86/77/73 87/82/73 83/78/73
f 87/79/76 88/84/76 84/75/76
f 84/75/75 88/84/75 85/76/75
f 89/80/78 90/81/78 86/77/78
f 90/81/77 91/86/77 87/82/77
f 91/83/80 92/85/80 88/84/80
f 92/85/79 89/80/79 85/76/79
f 45/25/82 46/24/82 90/81/82
f 46/24/81 47/27/81 91/86/81
f 91/83/84 47/30/84 48/29/84
f 48/29/83 45/25/83 89/80/83
g Warding_Shield.001_Mesh
v -0.714666 0.745129 0.040000
v -0.771468 0.650522 0.040000
v -0.703860 0.674286 0.110000
v -0.065334 0.994871 0.040000
v 0.056251 0.966636 0.110000
v 0.065334 0.994871 0.040000
v 0.714666 0.745129 0.040000
v 0.702004 0.720000 0.110000
v 0.771468 0.650522 0.040000
v 0.648532 -0.350522 0.040000
v 0.569825 -0.363662 0.110000
v 0.593495 -0.472319 0.040000
v 0.046505 -1.087681 0.040000
v -0.038656 -1.047819 0.110000
v -0.046505 -1.087681 0.040000
v -0.648532 -0.350522 0.040000
v -0.593495 -0.472319 0.040000
v -0.565417 -0.453034 0.110000
v -0.714666 0.745129 -0.040000
v -0.703860 0.674286 -0.110000
v -0.771468 0.650522 -0.040000
v -0.065334 0.994871 -0.040000
v 0.065334 0.994871 -0.040000
v 0.056251 0.966636 -0.110000
v 0.714666 0.745129 -0.040000
v 0.771468 0.650522 -0.040000
v 0.702004 0.720000 -0.110000
v 0.648532 -0.350522 -0.040000
v 0.593495 -0.472319 -0.040000
v 0.569825 -0.363662 -0.110000
v 0.046505 -1.087681 -0.040000
v -0.046505 -1.087681 -0.040000
v -0.038656 -1.047819 -0.110000
v -0.648532 -0.350522 -0.040000
v -0.565417 -0.453034 -0.110000
v -0.593495 -0.472319 -0.040000
vn -0.7178 0.4309 0.5469
vn -0.0000 0.9274 0.3741
vn 0.8117 0.4874 0.3218
vn 0.6616 -0.2989 0.6877
vn -0.0000 -0.8690 0.4948
vn -0.8219 -0.3714 0.4320
vn -0.7178 0.4309 -0.5469
vn -0.0000 0.9274 -0.3741
vn 0.8117 0.4874 -0.3218
vn 0.6616 -0.2989 -0.6877
vn -0.0000 -0.8690 -0.4948
vn -0.8219 -0.3714 -0.4320
vn -0.2538 0.6600 0.7071
vn 0.3286 0.8603 0.3897
vn -0.2538 0.6600 -0.7071
vn 0.3286 0.8603 -0.3897
vn 0.6660 -0.0812 0.7415
vn 0.6660 -0.0812 -0.7415
vn 0.4591 -0.4083 0.7890
vn 0.4591 -0.4083 -0.7890
vn -0.7018 -0.0862 0.7071
vn -0.6785 -0.6031 0.4195
vn -0.7018 -0.0862 -0.7071
vn -0.6785 -0.6031 -0.4195
vn -0.8573 0.5147 -0.0000
vn -0.0000 1.0000 -0.0000
vn 0.8573 0.5147 -0.0000
vn 0.9113 -0.4118 -0.0000
vn -0.0000 -1.0000 -0.0000
vn -0.9113 -0.4118 -0.0000
vn -0.3590 0.9333 -0.0000
vn -0.0000 -0.0000 1.0000
vn -0.9925 -0.1219 -0.0000
vn 0.3590 0.9333 -0.0000
vn 0.9925 -0.1219 -0.0000
vn 0.7474 -0.6644 -0.0000
vn -0.7474 -0.6644 -0.0000
vn -0.0000 -0.0000 -1.0000
vn 0.3333 0.8666 0.3714
vn 0.3333 0.8666 -0.3714
vn 0.6699 -0.0823 0.7378
vn 0.6699 -0.0823 -0.7378
vn 0.4584 -0.4075 0.7898
vn 0.4584 -0.4075 -0.7898
vn -0.6741 -0.5970 0.4349
vn -0.6741 -0.5970 -0.4349
s 0
g Warding_Shield.001_MAT_OldGold
usemtl MAT_OldGold
f 93//85 94//85 95//85
f 96//86 97//86 98//86
f 99//87 100//87 101//87
f 102//88 103//88 104//88
f 105//89 106//89 107//89
f 108//90 109//90 110//90
f 111//91 112//91 113//91
f 114//92 115//92 116//92
f 117//93 118//93 119//93
f 120//94 121//94 122//94
f 123//95 124//95 125//95
f 126//96 127//96 128//96
f 95//97 96//97 93//97
f 100//98 98//98 97//98
f 114//99 112//99 111//99
f 115//100 119//100 116//100
f 103//101 101//101 100//101
f 118//102 122//102 119//102
f 106//103 104//103 103//103
f 121//104 125//104 122//104
f 108//105 95//105 94//105
f 106//106 109//106 107//106
f 112//107 126//107 113//107
f 128//108 125//108 124//108
f 111//109 94//109 93//109
f 115//110 96//110 98//110
f 118//111 99//111 101//111
f 121//112 102//112 104//112
f 124//113 105//113 107//113
f 126//114 109//114 108//114
f 96//115 111//115 93//115
f 95//116 100//116 97//116
f 95//116 103//116 100//116
f 95//116 106//116 103//116
f 95//116 110//116 106//116
f 94//117 126//117 108//117
f 99//118 115//118 98//118
f 102//119 118//119 101//119
f 105//120 121//120 104//120
f 109//121 124//121 107//121
f 112//122 119//122 122//122
f 112//122 116//122 119//122
f 112//122 122//122 125//122
f 112//122 125//122 127//122
f 95//97 97//97 96//97
f 100//123 99//123 98//123
f 114//99 116//99 112//99
f 115//124 117//124 119//124
f 103//125 102//125 101//125
f 118//126 120//126 122//126
f 106//127 105//127 104//127
f 121//128 123//128 125//128
f 108//105 110//105 95//105
f 106//129 110//129 109//129
f 112//107 127//107 126//107
f 128//130 127//130 125//130
f 111//109 113//109 94//109
f 115//110 114//110 96//110
f 118//111 117//111 99//111
f 121//112 120//112 102//112
f 124//113 123//113 105//113
f 126//114 128//114 109//114
f 96//115 114//115 111//115
f 94//117 113//117 126//117
f 99//118 117//118 115//118
f 102//119 120//119 118//119
f 105//120 123//120 121//120
f 109//121 128//121 124//121
