# Blender 5.0.1
# www.blender.org
mtllib whetstone_draught.mtl
g Whetstone_Bottle.001_Mesh
v 0.000000 -1.040000 -0.518589
v 0.000000 -1.000302 -0.554922
v 0.000000 0.680000 -0.298589
v 0.000000 0.640302 -0.345078
v 0.259294 -1.040000 -0.449111
v 0.277461 -1.000302 -0.480577
v 0.149294 0.680000 -0.258586
v 0.172539 0.640302 -0.298846
v 0.449111 -1.040000 -0.259294
v 0.480577 -1.000302 -0.277461
v 0.258586 0.680000 -0.149294
v 0.298846 0.640302 -0.172539
v 0.518589 -1.040000 0.000000
v 0.554922 -1.000302 0.000000
v 0.298589 0.680000 0.000000
v 0.345078 0.640302 0.000000
v 0.449111 -1.040000 0.259294
v 0.480577 -1.000302 0.277461
v 0.258586 0.680000 0.149294
v 0.298846 0.640302 0.172539
v 0.259294 -1.040000 0.449111
v 0.277461 -1.000302 0.480577
v 0.149294 0.680000 0.258586
v 0.172539 0.640302 0.298846
v 0.000000 -1.040000 0.518589
v 0.000000 -1.000302 0.554922
v 0.000000 0.680000 0.298589
v 0.000000 0.640302 0.345078
v -0.259294 -1.040000 0.449111
v -0.277461 -1.000302 0.480577
v -0.149294 0.680000 0.258586
v -0.172539 0.640302 0.298846
v -0.449111 -1.040000 0.259294
v -0.480577 -1.000302 0.277461
v -0.258586 0.680000 0.149294
v -0.298846 0.640302 0.172539
v -0.518589 -1.040000 0.000000
v -0.554922 -1.000302 0.000000
v -0.298589 0.680000 0.000000
v -0.345078 0.640302 0.000000
v -0.449111 -1.040000 -0.259294
v -0.480577 -1.000302 -0.277461
v -0.258586 0.680000 -0.149294
v -0.298846 0.640302 -0.172539
v -0.259294 -1.040000 -0.449111
v -0.277461 -1.000302 -0.480577
v -0.149294 0.680000 -0.258586
v -0.172539 0.640302 -0.298846
vn 0.1939 -0.6623 -0.7237
vn 0.1714 0.7492 -0.6398
vn 0.5298 -0.6623 -0.5298
vn 0.4683 0.7492 -0.4683
vn 0.7237 -0.6623 -0.1939
vn 0.6398 0.7492 -0.1714
vn 0.7237 -0.6623 0.1939
vn 0.6398 0.7492 0.1714
vn 0.5298 -0.6623 0.5298
vn 0.4683 0.7492 0.4683
vn 0.1939 -0.6623 0.7237
vn 0.1714 0.7492 0.6398
vn -0.1939 -0.6623 0.7237
vn -0.1714 0.7492 0.6398
vn -0.5298 -0.6623 0.5298
vn -0.4683 0.7492 0.4683
vn -0.7237 -0.6623 0.1939
vn -0.6398 0.7492 0.1714
vn -0.7237 -0.6623 -0.1939
vn -0.6398 0.7492 -0.1714
vn -0.5298 -0.6623 -0.5298
vn -0.4683 0.7492 -0.4683
vn -0.1939 -0.6623 -0.7237
vn -0.1714 0.7492 -0.6398
vn -0.0000 -1.0000 -0.0000
vn 0.2569 0.1226 -0.9586
vn -0.2569 0.1226 -0.9586
vn -0.0000 1.0000 -0.0000
vn 0.7018 0.1226 -0.7018
vn 0.9586 0.1226 -0.2569
vn 0.9586 0.1226 0.2569
vn 0.7018 0.1226 0.7018
vn 0.2569 0.1226 0.9586
vn -0.2569 0.1226 0.9586
vn -0.7018 0.1226 0.7018
vn -0.9586 0.1226 0.2569
vn -0.9586 0.1226 -0.2569
vn -0.7018 0.1226 -0.7018
vt 0.869927 0.457720
vt 0.750000 0.472252
vt 0.750000 0.489854
vt 0.370000 0.457846
vt 0.250000 0.460769
vt 0.355384 0.432531
vt 0.957720 0.369927
vt 0.861126 0.442476
vt 0.432531 0.355384
vt 0.457846 0.370000
vt 0.989854 0.250000
vt 0.942476 0.361126
vt 0.460769 0.250000
vt 0.490000 0.250000
vt 0.957720 0.130073
vt 0.972252 0.250000
vt 0.457846 0.130000
vt 0.432531 0.144616
vt 0.869927 0.042280
vt 0.942476 0.138874
vt 0.355384 0.067469
vt 0.370000 0.042154
vt 0.750000 0.010146
vt 0.861126 0.057524
vt 0.250000 0.039231
vt 0.250000 0.010000
vt 0.630073 0.042280
vt 0.750000 0.027748
vt 0.130000 0.042154
vt 0.144616 0.067469
vt 0.542280 0.130073
vt 0.638874 0.057524
vt 0.067469 0.144616
vt 0.042154 0.130000
vt 0.510146 0.250000
vt 0.557524 0.138874
vt 0.039231 0.250000
vt 0.010000 0.250000
vt 0.542280 0.369927
vt 0.527748 0.250000
vt 0.042154 0.370000
vt 0.067469 0.355384
vt 0.630073 0.457720
vt 0.557524 0.361126
vt 0.144616 0.432531
vt 0.130000 0.457846
vt 0.638874 0.442476
vt 0.250000 0.490000
vt 1.000000 0.988460
vt 0.916667 0.511540
vt 1.000000 0.511540
vt 0.083333 0.988460
vt 0.000000 0.511540
vt 0.083333 0.511540
vt 0.916667 0.988460
vt 0.833333 0.511540
vt 0.833333 0.988460
vt 0.750000 0.511540
vt 0.750000 0.988460
vt 0.666667 0.511540
vt 0.666667 0.988460
vt 0.583333 0.511540
vt 0.583333 0.988460
vt 0.500000 0.511540
vt 0.500000 0.988460
vt 0.416667 0.511540
vt 0.416667 0.988460
vt 0.333333 0.511540
vt 0.333333 0.988460
vt 0.250000 0.511540
vt 0.250000 0.988460
vt 0.166667 0.511540
vt 0.166667 0.988460
vt 0.000000 0.988460
s 0
g Whetstone_Bottle.001_MAT_GlassRed
usemtl MAT_GlassRed
f 6/1/1 1/2/1 2/3/1
f 8/4/2 3/5/2 7/6/2
f 10/7/3 5/8/3 6/1/3
f 8/4/4 11/9/4 12/10/4
f 14/11/5 9/12/5 10/7/5
f 12/10/6 15/13/6 16/14/6
f 18/15/7 13/16/7 14/11/7
f 20/17/8 15/13/8 19/18/8
f 22/19/9 17/20/9 18/15/9
f 20/17/10 23/21/10 24/22/10
f 26/23/11 21/24/11 22/19/11
f 24/22/12 27/25/12 28/26/12
f 30/27/13 25/28/13 26/23/13
f 32/29/14 27/25/14 31/30/14
f 34/31/15 29/32/15 30/27/15
f 32/29/16 35/33/16 36/34/16
f 38/35/17 33/36/17 34/31/17
f 36/34/18 39/37/18 40/38/18
f 42/39/19 37/40/19 38/35/19
f 44/41/20 39/37/20 43/42/20
f 46/43/21 41/44/21 42/39/21
f 44/41/22 47/45/22 48/46/22
f 2/3/23 45/47/23 46/43/23
f 48/46/24 3/5/24 4/48/24
f 13/16/25 29/32/25 45/47/25
f 4/49/26 6/50/26 2/51/26
f 48/52/27 2/53/27 46/54/27
f 43/42/28 27/25/28 11/9/28
f 8/55/29 10/56/29 6/50/29
f 12/57/30 14/58/30 10/56/30
f 16/59/31 18/60/31 14/58/31
f 20/61/32 22/62/32 18/60/32
f 24/63/33 26/64/33 22/62/33
f 28/65/34 30/66/34 26/64/34
f 32/67/35 34/68/35 30/66/35
f 36/69/36 38/70/36 34/68/36
f 40/71/37 42/72/37 38/70/37
f 44/73/38 46/54/38 42/72/38
f 6/1/1 5/8/1 1/2/1
f 8/4/2 4/48/2 3/5/2
f 10/7/3 9/12/3 5/8/3
f 8/4/4 7/6/4 11/9/4
f 14/11/5 13/16/5 9/12/5
f 12/10/6 11/9/6 15/13/6
f 18/15/7 17/20/7 13/16/7
f 20/17/8 16/14/8 15/13/8
f 22/19/9 21/24/9 17/20/9
f 20/17/10 19/18/10 23/21/10
f 26/23/11 25/28/11 21/24/11
f 24/22/12 23/21/12 27/25/12
f 30/27/13 29/32/13 25/28/13
f 32/29/14 28/26/14 27/25/14
f 34/31/15 33/36/15 29/32/15
f 32/29/16 31/30/16 35/33/16
f 38/35/17 37/40/17 33/36/17
f 36/34/18 35/33/18 39/37/18
f 42/39/19 41/44/19 37/40/19
f 44/41/20 40/38/20 39/37/20
f 46/43/21 45/47/21 41/44/21
f 44/41/22 43/42/22 47/45/22
f 2/3/23 1/2/23 45/47/23
f 48/46/24 47/45/24 3/5/24
f 45/47/25 1/2/25 5/8/25
f 5/8/25 9/12/25 13/16/25
f 13/16/25 17/20/25 21/24/25
f 21/24/25 25/28/25 29/32/25
f 29/32/25 33/36/25 37/40/25
f 37/40/25 41/44/25 45/47/25
f 45/47/25 5/8/25 13/16/25
f 13/16/25 21/24/25 29/32/25
f 29/32/25 37/40/25 45/47/25
f 4/49/26 8/55/26 6/50/26
f 48/52/27 4/74/27 2/53/27
f 11/9/28 7/6/28 3/5/28
f 3/5/28 47/45/28 43/42/28
f 43/42/28 39/37/28 35/33/28
f 35/33/28 31/30/28 27/25/28
f 27/25/28 23/21/28 19/18/28
f 19/18/28 15/13/28 11/9/28
f 11/9/28 3/5/28 43/42/28
f 43/42/28 35/33/28 27/25/28
f 27/25/28 19/18/28 11/9/28
f 8/55/29 12/57/29 10/56/29
f 12/57/30 16/59/30 14/58/30
f 16/59/31 20/61/31 18/60/31
f 20/61/32 24/63/32 22/62/32
f 24/63/33 28/65/33 26/64/33
f 28/65/34 32/67/34 30/66/34
f 32/67/35 36/69/35 34/68/35
f 36/69/36 40/71/36 38/70/36
f 40/71/37 44/73/37 42/72/37
f 44/73/38 48/52/38 46/54/38
g Whetstone_Chip.001_Mesh
v 0.560000 -0.160000 0.220000
v 0.733664 -0.005220 0.283086
v 0.493668 -0.005220 0.322077
v 0.345338 -0.005220 0.220000
v 0.493668 -0.005220 0.117923
v 0.733664 -0.005220 0.156914
v 0.626333 0.245220 0.322077
v 0.386336 0.245220 0.283086
v 0.386336 0.245220 0.156914
v 0.626333 0.245220 0.117923
v 0.774662 0.245220 0.220000
v 0.560000 0.400000 0.220000
vn 0.1386 -0.5032 0.8530
vn 0.6654 -0.7465 -0.0000
vn -0.4457 -0.6181 0.6476
vn -0.4457 -0.6181 -0.6476
vn 0.1386 -0.5032 -0.8530
vn 0.9869 -0.1616 -0.0000
vn 0.1598 -0.0846 0.9835
vn -0.5632 -0.1140 0.8184
vn -0.5632 -0.1140 -0.8184
vn 0.1598 -0.0846 -0.9835
vn 0.5632 0.1140 0.8184
vn -0.1598 0.0846 0.9835
vn -0.9869 0.1616 -0.0000
vn -0.1598 0.0846 -0.9835
vn 0.5632 0.1140 -0.8184
vn 0.4457 0.6181 0.6476
vn -0.1386 0.5032 0.8530
vn -0.6654 0.7465 -0.0000
vn -0.1386 0.5032 -0.8530
vn 0.4457 0.6181 -0.6476
vt 0.181819 0.000000
vt 0.272728 0.157461
vt 0.090910 0.157461
vt 0.363637 0.000000
vt 0.454546 0.157461
vt 0.909091 0.000000
vt 1.000000 0.157461
vt 0.818182 0.157461
vt 0.727273 0.000000
vt 0.636364 0.157461
vt 0.545455 0.000000
vt 0.363637 0.314921
vt 0.181819 0.314921
vt 0.909091 0.314921
vt 0.727273 0.314921
vt 0.545455 0.314921
vt 0.000000 0.314921
vt 0.272728 0.472382
vt 0.090910 0.472382
vt 0.818182 0.472382
vt 0.636364 0.472382
vt 0.454546 0.472382
s 0
g Whetstone_Chip.001_MAT_SilverSteel
usemtl MAT_SilverSteel
f 49/75/39 50/76/39 51/77/39
f 50/76/40 49/78/40 54/79/40
f 49/80/41 51/81/41 52/82/41
f 49/83/42 52/82/42 53/84/42
f 49/85/43 53/84/43 54/79/43
f 50/76/44 54/79/44 59/86/44
f 51/77/45 50/76/45 55/87/45
f 52/82/46 51/81/46 56/88/46
f 53/84/47 52/82/47 57/89/47
f 54/79/48 53/84/48 58/90/48
f 50/76/49 59/86/49 55/87/49
f 51/77/50 55/87/50 56/91/50
f 52/82/51 56/88/51 57/89/51
f 53/84/52 57/89/52 58/90/52
f 54/79/53 58/90/53 59/86/53
f 55/87/54 59/86/54 60/92/54
f 56/91/55 55/87/55 60/93/55
f 57/89/56 56/88/56 60/94/56
f 58/90/57 57/89/57 60/95/57
f 59/86/58 58/90/58 60/96/58
g Whetstone_Liquid.001_Mesh
v 0.000000 -0.820000 -0.399294
v 0.000000 -0.800000 -0.420000
v -0.000000 0.060000 -0.399294
v 0.000000 0.040000 -0.420000
v 0.199647 -0.820000 -0.345799
v 0.210000 -0.800000 -0.363731
v 0.199647 0.060000 -0.345799
v 0.210000 0.040000 -0.363731
v 0.345799 -0.820000 -0.199647
v 0.363731 -0.800000 -0.210000
v 0.345799 0.060000 -0.199647
v 0.363731 0.040000 -0.210000
v 0.399294 -0.820000 0.000000
v 0.420000 -0.800000 0.000000
v 0.399294 0.060000 -0.000000
v 0.420000 0.040000 0.000000
v 0.345799 -0.820000 0.199647
v 0.363731 -0.800000 0.210000
v 0.345799 0.060000 0.199647
v 0.363731 0.040000 0.210000
v 0.199647 -0.820000 0.345799
v 0.210000 -0.800000 0.363731
v 0.199647 0.060000 0.345799
v 0.210000 0.040000 0.363731
v -0.000000 -0.820000 0.399294
v 0.000000 -0.800000 0.420000
v 0.000000 0.060000 0.399294
v 0.000000 0.040000 0.420000
v -0.199647 -0.820000 0.345799
v -0.210000 -0.800000 0.363731
v -0.199647 0.060000 0.345799
v -0.210000 0.040000 0.363731
v -0.345799 -0.820000 0.199647
v -0.363731 -0.800000 0.210000
v -0.345799 0.060000 0.199647
v -0.363731 0.040000 0.210000
v -0.399294 -0.820000 -0.000000
v -0.420000 -0.800000 0.000000
v -0.399294 0.060000 0.000000
v -0.420000 0.040000 0.000000
v -0.345799 -0.820000 -0.199647
v -0.363731 -0.800000 -0.210000
v -0.345799 0.060000 -0.199647
v -0.363731 0.040000 -0.210000
v -0.199647 -0.820000 -0.345799
v -0.210000 -0.800000 -0.363731
v -0.199647 0.060000 -0.345799
v -0.210000 0.040000 -0.363731
vn 0.1830 -0.7071 -0.6830
vn 0.1830 0.7071 -0.6830
vn 0.5000 -0.7071 -0.5000
vn 0.5000 0.7071 -0.5000
vn 0.6830 -0.7071 -0.1830
vn 0.6830 0.7071 -0.1830
vn 0.6830 -0.7071 0.1830
vn 0.6830 0.7071 0.1830
vn 0.5000 -0.7071 0.5000
vn 0.5000 0.7071 0.5000
vn 0.1830 -0.7071 0.6830
vn 0.1830 0.7071 0.6830
vn -0.1830 -0.7071 0.6830
vn -0.1830 0.7071 0.6830
vn -0.5000 -0.7071 0.5000
vn -0.5000 0.7071 0.5000
vn -0.6830 -0.7071 0.1830
vn -0.6830 0.7071 0.1830
vn -0.6830 -0.7071 -0.1830
vn -0.6830 0.7071 -0.1830
vn -0.5000 -0.7071 -0.5000
vn -0.5000 0.7071 -0.5000
vn -0.1830 -0.7071 -0.6830
vn -0.1830 0.7071 -0.6830
vn -0.0000 -1.0000 -0.0000
vn 0.2588 -0.0000 -0.9659
vn -0.2588 -0.0000 -0.9659
vn -0.0000 1.0000 -0.0000
vn 0.7071 -0.0000 -0.7071
vn 0.9659 -0.0000 -0.2588
vn 0.9659 -0.0000 0.2588
vn 0.7071 -0.0000 0.7071
vn 0.2588 -0.0000 0.9659
vn -0.2588 -0.0000 0.9659
vn -0.7071 -0.0000 0.7071
vn -0.9659 -0.0000 0.2588
vn -0.9659 -0.0000 -0.2588
vn -0.7071 -0.0000 -0.7071
vt 0.870000 0.457846
vt 0.750000 0.478168
vt 0.750000 0.490000
vt 0.370000 0.457846
vt 0.250000 0.478168
vt 0.364084 0.447600
vt 0.957846 0.370000
vt 0.864084 0.447600
vt 0.447600 0.364084
vt 0.457846 0.370000
vt 0.978168 0.250000
vt 0.947600 0.364084
vt 0.478168 0.250000
vt 0.490000 0.250000
vt 0.957846 0.130000
vt 0.990000 0.250000
vt 0.457846 0.130000
vt 0.447600 0.135916
vt 0.870000 0.042154
vt 0.947600 0.135916
vt 0.364084 0.052400
vt 0.370000 0.042154
vt 0.750000 0.021832
vt 0.864084 0.052401
vt 0.250000 0.021832
vt 0.250000 0.010000
vt 0.630000 0.042154
vt 0.750000 0.010000
vt 0.130000 0.042154
vt 0.135916 0.052400
vt 0.542154 0.130000
vt 0.635916 0.052400
vt 0.052400 0.135916
vt 0.042154 0.130000
vt 0.521832 0.250000
vt 0.552400 0.135916
vt 0.021832 0.250000
vt 0.010000 0.250000
vt 0.542154 0.370000
vt 0.510000 0.250000
vt 0.042154 0.370000
vt 0.052401 0.364084
vt 0.630000 0.457846
vt 0.552400 0.364084
vt 0.135916 0.447600
vt 0.130000 0.457846
vt 0.635916 0.447600
vt 0.250000 0.490000
vt 1.000000 0.988636
vt 0.916667 0.511364
vt 1.000000 0.511364
vt 0.083333 0.988636
vt 0.000000 0.511364
vt 0.083333 0.511364
vt 0.916667 0.988636
vt 0.833333 0.511364
vt 0.833333 0.988636
vt 0.750000 0.511364
vt 0.750000 0.988636
vt 0.666667 0.511364
vt 0.666667 0.988636
vt 0.583333 0.511364
vt 0.583333 0.988636
vt 0.500000 0.511364
vt 0.500000 0.988636
vt 0.416667 0.511364
vt 0.416667 0.988636
vt 0.333333 0.511364
vt 0.333333 0.988636
vt 0.250000 0.511364
vt 0.250000 0.988636
vt 0.166667 0.511364
vt 0.166667 0.988636
vt 0.000000 0.988636
s 0
g Whetstone_Liquid.001_MAT_LiquidRed
usemtl MAT_LiquidRed
f 66/97/59 61/98/59 62/99/59
f 68/100/60 63/101/60 67/102/60
f 70/103/61 65/104/61 66/97/61
f 68/100/62 71/105/62 72/106/62
f 70/103/63 73/107/63 69/108/63
f 72/106/64 75/109/64 76/110/64
f 78/111/65 73/107/65 74/112/65
f 80/113/66 75/109/66 79/114/66
f 82/115/67 77/116/67 78/111/67
f 80/113/68 83/117/68 84/118/68
f 82/115/69 85/119/69 81/120/69
f 84/118/70 87/121/70 88/122/70
f 90/123/71 85/119/71 86/124/71
f 92/125/72 87/121/72 91/126/72
f 94/127/73 89/128/73 90/123/73
f 92/125/74 95/129/74 96/130/74
f 94/127/75 97/131/75 93/132/75
f 96/130/76 99/133/76 100/134/76
f 102/135/77 97/131/77 98/136/77
f 104/137/78 99/133/78 103/138/78
f 106/139/79 101/140/79 102/135/79
f 104/137/80 107/141/80 108/142/80
f 106/139/81 61/98/81 105/143/81
f 108/142/82 63/101/82 64/144/82
f 73/107/83 89/128/83 105/143/83
f 64/145/84 66/146/84 62/147/84
f 108/148/85 62/149/85 106/150/85
f 103/138/86 87/121/86 71/105/86
f 68/151/87 70/152/87 66/146/87
f 72/153/88 74/154/88 70/152/88
f 76/155/89 78/156/89 74/154/89
f 80/157/90 82/158/90 78/156/90
f 84/159/91 86/160/91 82/158/91
f 88/161/92 90/162/92 86/160/92
f 92/163/93 94/164/93 90/162/93
f 96/165/94 98/166/94 94/164/94
f 100/167/95 102/168/95 98/166/95
f 104/169/96 106/150/96 102/168/96
f 66/97/59 65/104/59 61/98/59
f 68/100/60 64/144/60 63/101/60
f 70/103/61 69/108/61 65/104/61
f 68/100/62 67/102/62 71/105/62
f 70/103/63 74/112/63 73/107/63
f 72/106/64 71/105/64 75/109/64
f 78/111/65 77/116/65 73/107/65
f 80/113/66 76/110/66 75/109/66
f 82/115/67 81/120/67 77/116/67
f 80/113/68 79/114/68 83/117/68
f 82/115/69 86/124/69 85/119/69
f 84/118/70 83/117/70 87/121/70
f 90/123/71 89/128/71 85/119/71
f 92/125/72 88/122/72 87/121/72
f 94/127/73 93/132/73 89/128/73
f 92/125/74 91/126/74 95/129/74
f 94/127/75 98/136/75 97/131/75
f 96/130/76 95/129/76 99/133/76
f 102/135/77 101/140/77 97/131/77
f 104/137/78 100/134/78 99/133/78
f 106/139/79 105/143/79 101/140/79
f 104/137/80 103/138/80 107/141/80
f 106/139/81 62/99/81 61/98/81
f 108/142/82 107/141/82 63/101/82
f 105/143/83 61/98/83 65/104/83
f 65/104/83 69/108/83 73/107/83
f 73/107/83 77/116/83 81/120/83
f 81/120/83 85/119/83 89/128/83
f 89/128/83 93/132/83 97/131/83
f 97/131/83 101/140/83 105/143/83
f 105/143/83 65/104/83 73/107/83
f 73/107/83 81/120/83 89/128/83
f 89/128/83 97/131/83 105/143/83
f 64/145/84 68/151/84 66/146/84
f 108/148/85 64/170/85 62/149/85
f 71/105/86 67/102/86 63/101/86
f 63/101/86 107/141/86 103/138/86
f 103/138/86 99/133/86 95/129/86
f 95/129/86 91/126/86 87/121/86
f 87/121/86 83/117/86 79/114/86
f 79/114/86 75/109/86 71/105/86
f 71/105/86 63/101/86 103/138/86
f 103/138/86 95/129/86 87/121/86
f 87/121/86 79/114/86 71/105/86
f 68/151/87 72/153/87 70/152/87
f 72/153/88 76/155/88 74/154/88
f 76/155/89 80/157/89 78/156/89
f 80/157/90 84/159/90 82/158/90
f 84/159/91 88/161/91 86/160/91
f 88/161/92 92/163/92 90/162/92
f 92/163/93 96/165/93 94/164/93
f 96/165/94 100/167/94 98/166/94
f 100/167/95 104/169/95 102/168/95
f 104/169/96 108/148/96 106/150/96
g Whetstone_Ring.001_Mesh
v 0.750000 0.160000 0.000000
v 0.660172 0.160000 0.123637
v 0.514828 0.160000 0.076412
v 0.514828 0.160000 -0.076412
v 0.660172 0.160000 -0.123637
v 0.675727 0.485413 -0.000000
v 0.594795 0.446438 0.123637
v 0.463844 0.383375 0.076412
v 0.463844 0.383375 -0.076412
v 0.594795 0.446438 -0.123637
v 0.467617 0.746374 -0.000000
v 0.411611 0.676143 0.123637
v 0.320990 0.562508 0.076412
v 0.320990 0.562508 -0.076412
v 0.411611 0.676143 -0.123637
v 0.166891 0.891196 -0.000000
v 0.146902 0.803620 0.123637
v 0.114560 0.661920 0.076412
v 0.114560 0.661920 -0.076412
v 0.146902 0.803620 -0.123637
v -0.166891 0.891196 -0.000000
v -0.146902 0.803620 0.123637
v -0.114560 0.661920 0.076412
v -0.114560 0.661920 -0.076412
v -0.146902 0.803620 -0.123637
v -0.467617 0.746373 -0.000000
v -0.411611 0.676143 0.123637
v -0.320990 0.562508 0.076412
v -0.320990 0.562508 -0.076412
v -0.411611 0.676143 -0.123637
v -0.675727 0.485413 -0.000000
v -0.594795 0.446438 0.123637
v -0.463844 0.383375 0.076412
v -0.463844 0.383375 -0.076412
v -0.594795 0.446438 -0.123637
v -0.750000 0.160000 -0.000000
v -0.660172 0.160000 0.123637
v -0.514828 0.160000 0.076412
v -0.514828 0.160000 -0.076412
v -0.660172 0.160000 -0.123637
v -0.675727 -0.165413 0.000000
v -0.594795 -0.126438 0.123637
v -0.463844 -0.063375 0.076412
v -0.463844 -0.063375 -0.076412
v -0.594795 -0.126438 -0.123637
v -0.467617 -0.426374 0.000000
v -0.411611 -0.356144 0.123637
v -0.320990 -0.242509 0.076412
v -0.320990 -0.242509 -0.076412
v -0.411611 -0.356144 -0.123637
v -0.166891 -0.571196 0.000000
v -0.146902 -0.483620 0.123637
v -0.114560 -0.341920 0.076412
v -0.114560 -0.341920 -0.076412
v -0.146902 -0.483620 -0.123637
v 0.166891 -0.571196 0.000000
v 0.146902 -0.483620 0.123637
v 0.114560 -0.341920 0.076412
v 0.114560 -0.341920 -0.076412
v 0.146902 -0.483620 -0.123637
v 0.467617 -0.426374 0.000000
v 0.411610 -0.356144 0.123637
v 0.320990 -0.242509 0.076412
v 0.320990 -0.242509 -0.076412
v 0.411610 -0.356144 -0.123637
v 0.675727 -0.165413 0.000000
v 0.594795 -0.126438 0.123637
v 0.463844 -0.063376 0.076412
v 0.463844 -0.063376 -0.076412
v 0.594795 -0.126438 -0.123637
vn 0.7956 0.1816 0.5780
vn -0.3083 -0.0704 0.9487
vn -0.9749 -0.2225 -0.0000
vn -0.3083 -0.0704 -0.9487
vn 0.7956 0.1816 -0.5780
vn 0.6380 0.5088 0.5780
vn -0.2472 -0.1971 0.9487
vn -0.7818 -0.6235 -0.0000
vn -0.2472 -0.1971 -0.9487
vn 0.6380 0.5088 -0.5780
vn 0.3541 0.7352 0.5780
vn -0.1372 -0.2849 0.9487
vn -0.4339 -0.9010 -0.0000
vn -0.1372 -0.2849 -0.9487
vn 0.3541 0.7352 -0.5780
vn -0.0000 0.8160 0.5780
vn -0.0000 -0.3162 0.9487
vn -0.0000 -1.0000 -0.0000
vn -0.0000 -0.3162 -0.9487
vn -0.0000 0.8160 -0.5780
vn -0.3541 0.7352 0.5780
vn 0.1372 -0.2849 0.9487
vn 0.4339 -0.9010 -0.0000
vn 0.1372 -0.2849 -0.9487
vn -0.3541 0.7352 -0.5780
vn -0.6380 0.5088 0.5780
vn 0.2472 -0.1971 0.9487
vn 0.7818 -0.6235 -0.0000
vn 0.2472 -0.1971 -0.9487
vn -0.6380 0.5088 -0.5780
vn -0.7956 0.1816 0.5780
vn 0.3083 -0.0704 0.9487
vn 0.9749 -0.2225 -0.0000
vn 0.3083 -0.0704 -0.9487
vn -0.7956 0.1816 -0.5780
vn -0.7956 -0.1816 0.5780
vn 0.3083 0.0704 0.9487
vn 0.9749 0.2225 -0.0000
vn 0.3083 0.0704 -0.9487
vn -0.7956 -0.1816 -0.5780
vn -0.6380 -0.5088 0.5780
vn 0.2472 0.1971 0.9487
vn 0.7818 0.6235 -0.0000
vn 0.2472 0.1971 -0.9487
vn -0.6380 -0.5088 -0.5780
vn -0.3541 -0.7352 0.5780
vn 0.1372 0.2849 0.9487
vn 0.4339 0.9010 -0.0000
vn 0.1372 0.2849 -0.9487
vn -0.3541 -0.7352 -0.5780
vn -0.0000 -0.8160 0.5780
vn -0.0000 0.3162 0.9487
vn -0.0000 1.0000 -0.0000
vn -0.0000 0.3162 -0.9487
vn -0.0000 -0.8160 -0.5780
vn 0.3541 -0.7352 0.5780
vn -0.1372 0.2849 0.9487
vn -0.4339 0.9010 -0.0000
vn -0.1372 0.2849 -0.9487
vn 0.3541 -0.7352 -0.5780
vn 0.6380 -0.5088 0.5780
vn -0.2472 0.1971 0.9487
vn -0.7818 0.6235 -0.0000
vn -0.2472 0.1971 -0.9487
vn 0.6380 -0.5088 -0.5780
vn 0.7956 -0.1816 0.5780
vn -0.3083 0.0704 0.9487
vn -0.9749 0.2225 -0.0000
vn -0.3083 0.0704 -0.9487
vn 0.7956 -0.1816 -0.5780
vt 0.571429 0.600000
vt 0.500000 0.800000
vt 0.500000 0.600000
vt 0.571429 0.800000
vt 0.500000 1.000000
vt 0.571429 0.000000
vt 0.500000 0.200000
vt 0.500000 0.000000
vt 0.571429 0.200000
vt 0.500000 0.400000
vt 0.571429 0.400000
vt 0.642857 0.600000
vt 0.642857 0.800000
vt 0.571429 1.000000
vt 0.642857 0.000000
vt 0.642857 0.400000
vt 0.714286 0.600000
vt 0.714286 1.000000
vt 0.642857 1.000000
vt 0.714286 0.000000
vt 0.642857 0.200000
vt 0.714286 0.200000
vt 0.785714 0.600000
vt 0.714286 0.800000
vt 0.785714 0.800000
vt 0.785714 0.000000
vt 0.785714 0.200000
vt 0.714286 0.400000
vt 0.857143 0.800000
vt 0.785714 1.000000
vt 0.857143 0.000000
vt 0.857143 0.200000
vt 0.785714 0.400000
vt 0.857143 0.400000
vt 0.928571 0.600000
vt 0.857143 0.600000
vt 0.928571 0.800000
vt 0.857143 1.000000
vt 0.928571 0.000000
vt 0.928571 0.200000
vt 1.000000 0.600000
vt 1.000000 0.800000
vt 0.928571 1.000000
vt 1.000000 0.000000
vt 1.000000 0.200000
vt 0.928571 0.400000
vt 1.000000 0.400000
vt 0.071429 0.600000
vt -0.000000 0.800000
vt -0.000000 0.600000
vt 0.071429 0.800000
vt -0.000000 1.000000
vt 0.071429 0.000000
vt -0.000000 0.200000
vt -0.000000 0.000000
vt 0.071429 0.400000
vt -0.000000 0.400000
vt 0.142857 0.600000
vt 0.142857 1.000000
vt 0.071429 1.000000
vt 0.142857 0.000000
vt 0.071429 0.200000
vt 0.142857 0.200000
vt 0.214286 0.600000
vt 0.142857 0.800000
vt 0.214286 1.000000
vt 0.214286 0.000000
vt 0.214286 0.200000
vt 0.142857 0.400000
vt 0.285714 0.800000
vt 0.214286 0.800000
vt 0.285714 0.000000
vt 0.285714 0.200000
vt 0.214286 0.400000
vt 0.285714 0.400000
vt 0.357143 0.600000
vt 0.285714 0.600000
vt 0.357143 0.800000
vt 0.285714 1.000000
vt 0.357143 0.000000
vt 0.357143 0.200000
vt 0.357143 0.400000
vt 0.428571 0.600000
vt 0.428571 0.800000
vt 0.357143 1.000000
vt 0.428571 0.000000
vt 0.428571 0.200000
vt 0.428571 1.000000
vt 0.428571 0.400000
vt 1.000000 1.000000
s 0
g Whetstone_Ring.001_MAT_Iron
usemtl MAT_Iron
f 114/171/97 110/172/97 109/173/97
f 115/174/98 111/175/98 110/172/98
f 116/176/99 112/177/99 111/178/99
f 117/179/100 113/180/100 112/177/100
f 118/181/101 109/173/101 113/180/101
f 119/182/102 115/174/102 114/171/102
f 120/183/103 116/184/103 115/174/103
f 121/185/104 117/179/104 116/176/104
f 117/179/105 123/186/105 118/181/105
f 123/186/106 114/171/106 118/181/106
f 124/187/107 120/183/107 119/182/107
f 120/183/108 126/188/108 121/189/108
f 126/190/109 122/191/109 121/185/109
f 127/192/110 123/186/110 122/191/110
f 123/186/111 124/187/111 119/182/111
f 129/193/112 125/194/112 124/187/112
f 130/195/113 126/188/113 125/194/113
f 131/196/114 127/192/114 126/190/114
f 132/197/115 128/198/115 127/192/115
f 128/198/116 129/193/116 124/187/116
f 129/193/117 135/199/117 130/195/117
f 135/199/118 131/200/118 130/195/118
f 136/201/119 132/197/119 131/196/119
f 137/202/120 133/203/120 132/197/120
f 138/204/121 129/193/121 133/203/121
f 139/205/122 135/199/122 134/206/122
f 140/207/123 136/208/123 135/199/123
f 141/209/124 137/202/124 136/201/124
f 142/210/125 138/204/125 137/202/125
f 138/204/126 139/205/126 134/206/126
f 144/211/127 140/207/127 139/205/127
f 145/212/128 141/213/128 140/207/128
f 146/214/129 142/210/129 141/209/129
f 147/215/130 143/216/130 142/210/130
f 148/217/131 139/205/131 143/216/131
f 149/218/132 145/219/132 144/220/132
f 150/221/133 146/222/133 145/219/133
f 151/223/134 147/224/134 146/225/134
f 147/224/135 153/226/135 148/227/135
f 153/226/136 144/220/136 148/227/136
f 154/228/137 150/221/137 149/218/137
f 150/221/138 156/229/138 151/230/138
f 156/231/139 152/232/139 151/223/139
f 157/233/140 153/226/140 152/232/140
f 153/226/141 154/228/141 149/218/141
f 159/234/142 155/235/142 154/228/142
f 155/235/143 161/236/143 156/229/143
f 161/237/144 157/233/144 156/231/144
f 162/238/145 158/239/145 157/233/145
f 158/239/146 159/234/146 154/228/146
f 159/234/147 165/240/147 160/241/147
f 165/240/148 161/236/148 160/241/148
f 166/242/149 162/238/149 161/237/149
f 167/243/150 163/244/150 162/238/150
f 168/245/151 159/234/151 163/244/151
f 169/246/152 165/240/152 164/247/152
f 170/248/153 166/249/153 165/240/153
f 171/250/154 167/243/154 166/242/154
f 172/251/155 168/245/155 167/243/155
f 173/252/156 164/247/156 168/245/156
f 174/253/157 170/248/157 169/246/157
f 175/254/158 171/255/158 170/248/158
f 176/256/159 172/251/159 171/250/159
f 177/257/160 173/252/160 172/251/160
f 173/252/161 174/253/161 169/246/161
f 109/173/162 175/254/162 174/253/162
f 110/172/163 176/258/163 175/254/163
f 111/178/164 177/257/164 176/256/164
f 177/257/165 113/180/165 178/259/165
f 113/180/166 174/253/166 178/259/166
f 114/171/97 115/174/97 110/172/97
f 115/174/98 116/184/98 111/175/98
f 116/176/99 117/179/99 112/177/99
f 117/179/100 118/181/100 113/180/100
f 118/181/101 114/171/101 109/173/101
f 119/182/102 120/183/102 115/174/102
f 120/183/103 121/189/103 116/184/103
f 121/185/104 122/191/104 117/179/104
f 117/179/105 122/191/105 123/186/105
f 123/186/106 119/182/106 114/171/106
f 124/187/107 125/194/107 120/183/107
f 120/183/108 125/194/108 126/188/108
f 126/190/109 127/192/109 122/191/109
f 127/192/110 128/198/110 123/186/110
f 123/186/111 128/198/111 124/187/111
f 129/193/112 130/195/112 125/194/112
f 130/195/113 131/200/113 126/188/113
f 131/196/114 132/197/114 127/192/114
f 132/197/115 133/203/115 128/198/115
f 128/198/116 133/203/116 129/193/116
f 129/193/117 134/206/117 135/199/117
f 135/199/118 136/208/118 131/200/118
f 136/201/119 137/202/119 132/197/119
f 137/202/120 138/204/120 133/203/120
f 138/204/121 134/206/121 129/193/121
f 139/205/122 140/207/122 135/199/122
f 140/207/123 141/213/123 136/208/123
f 141/209/124 142/210/124 137/202/124
f 142/210/125 143/216/125 138/204/125
f 138/204/126 143/216/126 139/205/126
f 144/211/127 145/212/127 140/207/127
f 145/212/128 146/260/128 141/213/128
f 146/214/129 147/215/129 142/210/129
f 147/215/130 148/217/130 143/216/130
f 148/217/131 144/211/131 139/205/131
f 149/218/132 150/221/132 145/219/132
f 150/221/133 151/230/133 146/222/133
f 151/223/134 152/232/134 147/224/134
f 147/224/135 152/232/135 153/226/135
f 153/226/136 149/218/136 144/220/136
f 154/228/137 155/235/137 150/221/137
f 150/221/138 155/235/138 156/229/138
f 156/231/139 157/233/139 152/232/139
f 157/233/140 158/239/140 153/226/140
f 153/226/141 158/239/141 154/228/141
f 159/234/142 160/241/142 155/235/142
f 155/235/143 160/241/143 161/236/143
f 161/237/144 162/238/144 157/233/144
f 162/238/145 163/244/145 158/239/145
f 158/239/146 163/244/146 159/234/146
f 159/234/147 164/247/147 165/240/147
f 165/240/148 166/249/148 161/236/148
f 166/242/149 167/243/149 162/238/149
f 167/243/150 168/245/150 163/244/150
f 168/245/151 164/247/151 159/234/151
f 169/246/152 170/248/152 165/240/152
f 170/248/153 171/255/153 166/249/153
f 171/250/154 172/251/154 167/243/154
f 172/251/155 173/252/155 168/245/155
f 173/252/156 169/246/156 164/247/156
f 174/253/157 175/254/157 170/248/157
f 175/254/158 176/258/158 171/255/158
f 176/256/159 177/257/159 172/251/159
f 177/257/160 178/259/160 173/252/160
f 173/252/161 178/259/161 174/253/161
f 109/173/162 110/172/162 175/254/162
f 110/172/163 111/175/163 176/258/163
f 111/178/164 112/177/164 177/257/164
f 177/257/165 112/177/165 113/180/165
f 113/180/166 109/173/166 174/253/166
g Whetstone_Stopper.001_Mesh
v 0.000000 0.660000 -0.263199
v -0.033287 0.695000 -0.289184
v 0.033287 0.695000 -0.289184
v -0.000000 1.020000 -0.263199
v 0.033287 0.985000 -0.289184
v -0.033287 0.985000 -0.289184
v 0.154704 0.660000 -0.212932
v 0.143049 0.695000 -0.253521
v 0.196908 0.695000 -0.214390
v 0.154704 1.020000 -0.212932
v 0.196908 0.985000 -0.214390
v 0.143049 0.985000 -0.253521
v 0.250317 0.660000 -0.081333
v 0.264744 0.695000 -0.121021
v 0.285317 0.695000 -0.057705
v 0.250317 1.020000 -0.081333
v 0.285317 0.985000 -0.057705
v 0.264744 0.985000 -0.121021
v 0.250317 0.660000 0.081333
v 0.285317 0.695000 0.057705
v 0.264744 0.695000 0.121021
v 0.250317 1.020000 0.081333
v 0.264744 0.985000 0.121021
v 0.285317 0.985000 0.057705
v 0.154704 0.660000 0.212932
v 0.196908 0.695000 0.214390
v 0.143049 0.695000 0.253521
v 0.154704 1.020000 0.212932
v 0.143049 0.985000 0.253521
v 0.196908 0.985000 0.214390
v -0.000000 0.660000 0.263199
v 0.033287 0.695000 0.289184
v -0.033287 0.695000 0.289184
v 0.000000 1.020000 0.263199
v -0.033287 0.985000 0.289184
v 0.033287 0.985000 0.289184
v -0.154704 0.660000 0.212932
v -0.143049 0.695000 0.253521
v -0.196908 0.695000 0.214390
v -0.154704 1.020000 0.212932
v -0.196908 0.985000 0.214390
v -0.143049 0.985000 0.253521
v -0.250317 0.660000 0.081333
v -0.264744 0.695000 0.121021
v -0.285317 0.695000 0.057705
v -0.250317 1.020000 0.081333
v -0.285317 0.985000 0.057705
v -0.264744 0.985000 0.121021
v -0.250317 0.660000 -0.081333
v -0.285317 0.695000 -0.057705
v -0.264744 0.695000 -0.121021
v -0.250317 1.020000 -0.081333
v -0.264744 0.985000 -0.121021
v -0.285317 0.985000 -0.057705
v -0.154704 0.660000 -0.212932
v -0.196908 0.695000 -0.214390
v -0.143049 0.695000 -0.253521
v -0.154704 1.020000 -0.212932
v -0.143049 0.985000 -0.253521
v -0.196908 0.985000 -0.214390
vn -0.0000 -0.5961 -0.8029
vn -0.0000 0.5961 -0.8029
vn 0.4719 -0.5961 -0.6496
vn 0.4719 0.5961 -0.6496
vn 0.7636 -0.5961 -0.2481
vn 0.7636 0.5961 -0.2481
vn 0.7636 -0.5961 0.2481
vn 0.7636 0.5961 0.2481
vn 0.4719 -0.5961 0.6496
vn 0.4719 0.5961 0.6496
vn -0.0000 -0.5961 0.8029
vn -0.0000 0.5961 0.8029
vn -0.4719 -0.5961 0.6496
vn -0.4719 0.5961 0.6496
vn -0.7636 -0.5961 0.2481
vn -0.7636 0.5961 0.2481
vn -0.7636 -0.5961 -0.2481
vn -0.7636 0.5961 -0.2481
vn -0.4719 -0.5961 -0.6496
vn -0.4719 0.5961 -0.6496
vn 0.2185 -0.7071 -0.6725
vn 0.2185 0.7071 -0.6725
vn -0.0000 -0.0000 -1.0000
vn 0.5878 -0.0000 -0.8090
vn 0.5721 -0.7071 -0.4156
vn 0.5721 0.7071 -0.4156
vn 0.9511 -0.0000 -0.3090
vn 0.7071 -0.7071 -0.0000
vn 0.7071 0.7071 -0.0000
vn 0.9511 -0.0000 0.3090
vn 0.5721 -0.7071 0.4156
vn 0.5721 0.7071 0.4156
vn 0.5878 -0.0000 0.8090
vn 0.2185 -0.7071 0.6725
vn 0.2185 0.7071 0.6725
vn -0.0000 -0.0000 1.0000
vn -0.2185 -0.7071 0.6725
vn -0.2185 0.7071 0.6725
vn -0.5878 -0.0000 0.8090
vn -0.5721 -0.7071 0.4156
vn -0.5721 0.7071 0.4156
vn -0.9511 -0.0000 0.3090
vn -0.7071 -0.7071 -0.0000
vn -0.7071 0.7071 -0.0000
vn -0.9511 -0.0000 -0.3090
vn -0.5721 -0.7071 -0.4156
vn -0.5721 0.7071 -0.4156
vn -0.5878 -0.0000 -0.8090
vn -0.2185 -0.7071 -0.6725
vn -0.2185 0.7071 -0.6725
vn -0.0000 -1.0000 -0.0000
vn 0.3090 -0.0000 -0.9511
vn -0.3090 -0.0000 -0.9511
vn -0.0000 1.0000 -0.0000
vn 0.8090 -0.0000 -0.5878
vn 1.0000 -0.0000 -0.0000
vn 0.8090 -0.0000 0.5878
vn 0.3090 -0.0000 0.9511
vn -0.3090 -0.0000 0.9511
vn -0.8090 -0.0000 0.5878
vn -1.0000 -0.0000 -0.0000
vn -0.8090 -0.0000 -0.5878
vt 0.750000 0.460559
vt 0.723370 0.481348
vt 0.776630 0.481348
vt 0.250000 0.460559
vt 0.276630 0.481348
vt 0.223370 0.481348
vt 0.873764 0.420346
vt 0.864439 0.452817
vt 0.907526 0.421512
vt 0.373764 0.420346
vt 0.407526 0.421512
vt 0.364439 0.452817
vt 0.950254 0.315066
vt 0.961796 0.346817
vt 0.978254 0.296164
vt 0.450254 0.315066
vt 0.478254 0.296164
vt 0.461796 0.346817
vt 0.950254 0.184934
vt 0.978254 0.203836
vt 0.961796 0.153183
vt 0.450254 0.184934
vt 0.461796 0.153183
vt 0.478254 0.203836
vt 0.873764 0.079654
vt 0.907526 0.078488
vt 0.864439 0.047183
vt 0.373764 0.079654
vt 0.364439 0.047183
vt 0.407526 0.078488
vt 0.750000 0.039441
vt 0.776630 0.018652
vt 0.723370 0.018652
vt 0.250000 0.039441
vt 0.223370 0.018652
vt 0.276630 0.018652
vt 0.626236 0.079654
vt 0.635561 0.047183
vt 0.592474 0.078488
vt 0.126237 0.079654
vt 0.092474 0.078488
vt 0.135561 0.047183
vt 0.549747 0.184934
vt 0.538204 0.153183
vt 0.521746 0.203836
vt 0.049746 0.184934
vt 0.021746 0.203836
vt 0.038204 0.153183
vt 0.549747 0.315066
vt 0.521746 0.296164
vt 0.538204 0.346817
vt 0.049746 0.315066
vt 0.038204 0.346817
vt 0.021746 0.296164
vt 0.626237 0.420346
vt 0.592474 0.421512
vt 0.635561 0.452817
vt 0.126237 0.420346
vt 0.135561 0.452817
vt 0.092474 0.421512
vt 0.018877 0.951389
vt -0.000000 0.548611
vt 0.018877 0.548611
vt 0.881123 0.548611
vt 0.918877 0.951389
vt 0.881123 0.951389
vt 0.781123 0.951389
vt 0.818877 0.548611
vt 0.818877 0.951389
vt 0.681123 0.548611
vt 0.718877 0.951389
vt 0.681123 0.951389
vt 0.581123 0.548611
vt 0.618877 0.951389
vt 0.581123 0.951389
vt 0.481123 0.548611
vt 0.518877 0.951389
vt 0.481123 0.951389
vt 0.381123 0.548611
vt 0.418877 0.951389
vt 0.381123 0.951389
vt 0.281123 0.951389
vt 0.318877 0.548611
vt 0.318877 0.951389
vt 0.181123 0.548611
vt 0.218877 0.951389
vt 0.181123 0.951389
vt 0.081123 0.548611
vt 0.118877 0.951389
vt 0.081123 0.951389
vt 0.981123 0.951389
vt 0.918877 0.548611
vt 0.981123 0.548611
vt 0.781123 0.548611
vt 0.718877 0.548611
vt 0.618877 0.548611
vt 0.518877 0.548611
vt 0.418877 0.548611
vt 0.281123 0.548611
vt 0.218877 0.548611
vt 0.118877 0.548611
vt -0.000000 0.951389
s 0
g Whetstone_Stopper.001_MAT_Iron
usemtl MAT_Iron
f 179/261/167 180/262/167 181/263/167
f 182/264/168 183/265/168 184/266/168
f 185/267/169 186/268/169 187/269/169
f 188/270/170 189/271/170 190/272/170
f 191/273/171 192/274/171 193/275/171
f 194/276/172 195/277/172 196/278/172
f 197/279/173 198/280/173 199/281/173
f 200/282/174 201/283/174 202/284/174
f 203/285/175 204/286/175 205/287/175
f 206/288/176 207/289/176 208/290/176
f 209/291/177 210/292/177 211/293/177
f 212/294/178 213/295/178 214/296/178
f 215/297/179 216/298/179 217/299/179
f 218/300/180 219/301/180 220/302/180
f 221/303/181 222/304/181 223/305/181
f 224/306/182 225/307/182 226/308/182
f 227/309/183 228/310/183 229/311/183
f 230/312/184 231/313/184 232/314/184
f 233/315/185 234/316/185 235/317/185
f 236/318/186 237/319/186 238/320/186
f 186/268/187 179/261/187 181/263/187
f 183/265/188 188/270/188 190/272/188
f 184/321/189 181/322/189 180/323/189
f 187/324/190 190/325/190 189/326/190
f 192/274/191 185/267/191 187/269/191
f 189/271/192 194/276/192 196/278/192
f 195/327/193 192/328/193 196/329/193
f 198/280/194 191/273/194 193/275/194
f 195/277/195 200/282/195 202/284/195
f 199/330/196 202/331/196 201/332/196
f 204/286/197 197/279/197 199/281/197
f 201/283/198 206/288/198 208/290/198
f 205/333/199 208/334/199 207/335/199
f 210/292/200 203/285/200 205/287/200
f 207/289/201 212/294/201 214/296/201
f 211/336/202 214/337/202 213/338/202
f 216/298/203 209/291/203 211/293/203
f 213/295/204 218/300/204 220/302/204
f 217/339/205 220/340/205 219/341/205
f 222/304/206 215/297/206 217/299/206
f 219/301/207 224/306/207 226/308/207
f 225/342/208 222/343/208 226/344/208
f 228/310/209 221/303/209 223/305/209
f 225/307/210 230/312/210 232/314/210
f 229/345/211 232/346/211 231/347/211
f 234/316/212 227/309/212 229/311/212
f 231/313/213 236/318/213 238/320/213
f 235/348/214 238/349/214 237/350/214
f 180/262/215 233/315/215 235/317/215
f 237/319/216 182/264/216 184/266/216
f 197/279/217 221/303/217 233/315/217
f 183/351/218 186/352/218 181/353/218
f 237/350/219 180/323/219 235/348/219
f 230/312/220 206/288/220 194/276/220
f 189/326/221 192/328/221 187/324/221
f 193/354/222 202/331/222 198/355/222
f 201/332/223 204/356/223 199/330/223
f 207/335/224 210/357/224 205/333/224
f 213/338/225 216/358/225 211/336/225
f 219/341/226 222/343/226 217/339/226
f 223/359/227 232/346/227 228/360/227
f 231/347/228 234/361/228 229/345/228
f 186/268/187 185/267/187 179/261/187
f 183/265/188 182/264/188 188/270/188
f 184/321/189 183/362/189 181/322/189
f 187/324/190 186/352/190 190/325/190
f 192/274/191 191/273/191 185/267/191
f 189/271/192 188/270/192 194/276/192
f 195/327/193 193/354/193 192/328/193
f 198/280/194 197/279/194 191/273/194
f 195/277/195 194/276/195 200/282/195
f 199/330/196 198/355/196 202/331/196
f 204/286/197 203/285/197 197/279/197
f 201/283/198 200/282/198 206/288/198
f 205/333/199 204/356/199 208/334/199
f 210/292/200 209/291/200 203/285/200
f 207/289/201 206/288/201 212/294/201
f 211/336/202 210/357/202 214/337/202
f 216/298/203 215/297/203 209/291/203
f 213/295/204 212/294/204 218/300/204
f 217/339/205 216/358/205 220/340/205
f 222/304/206 221/303/206 215/297/206
f 219/301/207 218/300/207 224/306/207
f 225/342/208 223/359/208 222/343/208
f 228/310/209 227/309/209 221/303/209
f 225/307/210 224/306/210 230/312/210
f 229/345/211 228/360/211 232/346/211
f 234/316/212 233/315/212 227/309/212
f 231/313/213 230/312/213 236/318/213
f 235/348/214 234/361/214 238/349/214
f 180/262/215 179/261/215 233/315/215
f 237/319/216 236/318/216 182/264/216
f 233/315/217 179/261/217 185/267/217
f 185/267/217 191/273/217 197/279/217
f 197/279/217 203/285/217 209/291/217
f 209/291/217 215/297/217 221/303/217
f 221/303/217 227/309/217 233/315/217
f 233/315/217 185/267/217 197/279/217
f 197/279/217 209/291/217 221/303/217
f 183/351/218 190/325/218 186/352/218
f 237/350/219 184/321/219 180/323/219
f 194/276/220 188/270/220 182/264/220
f 182/264/220 236/318/220 230/312/220
f 230/312/220 224/306/220 218/300/220
f 218/300/220 212/294/220 206/288/220
f 206/288/220 200/282/220 194/276/220
f 194/276/220 182/264/220 230/312/220
f 230/312/220 218/300/220 206/288/220
f 189/326/221 196/329/221 192/328/221
f 193/354/222 195/327/222 202/331/222
f 201/332/223 208/334/223 204/356/223
f 207/335/224 214/337/224 210/357/224
f 213/338/225 220/340/225 216/358/225
f 219/341/226 226/344/226 222/343/226
f 223/359/227 225/342/227 232/346/227
f 231/347/228 238/349/228 234/361/228
