# Blender 5.2.2 LTS
# www.blender.org
mtllib range_ground.mtl
o Range_segment
v 0.000000 0.033000 -1.000000
v 0.500000 0.033000 -0.866025
v 0.000388 0.032598 -1.001449
v 0.500388 0.032598 -0.867474
v 0.000672 0.031500 -1.002510
v 0.500672 0.031500 -0.868535
v 0.000776 0.030000 -1.002898
v 0.500776 0.030000 -0.868923
v 0.000672 0.028500 -1.002510
v 0.500672 0.028500 -0.868535
v 0.000388 0.027402 -1.001449
v 0.500388 0.027402 -0.867474
v 0.000000 0.027000 -1.000000
v 0.500000 0.027000 -0.866025
v -0.000388 0.027402 -0.998551
v 0.499612 0.027402 -0.864577
v -0.000672 0.028500 -0.997491
v 0.499328 0.028500 -0.863516
v -0.000776 0.030000 -0.997102
v 0.499224 0.030000 -0.863128
v -0.000672 0.031500 -0.997491
v 0.499328 0.031500 -0.863516
v -0.000388 0.032598 -0.998551
v 0.499612 0.032598 -0.864577
vn 0.0670 0.9659 -0.2500
vn 0.1830 0.7071 -0.6830
vn 0.2500 0.2588 -0.9330
vn 0.2500 -0.2588 -0.9330
vn 0.1830 -0.7071 -0.6830
vn 0.0670 -0.9659 -0.2500
vn -0.0670 -0.9659 0.2500
vn -0.1830 -0.7071 0.6830
vn -0.2500 -0.2588 0.9330
vn -0.2500 0.2588 0.9330
vn 0.9659 -0.0000 0.2588
vn -0.1830 0.7071 0.6830
vn -0.0670 0.9659 0.2500
vn -0.9659 -0.0000 -0.2588
vt 1.000000 1.000000
vt 0.916667 0.500000
vt 1.000000 0.500000
vt 0.916667 1.000000
vt 0.833333 0.500000
vt 0.833333 1.000000
vt 0.750000 0.500000
vt 0.750000 1.000000
vt 0.666667 0.500000
vt 0.666667 1.000000
vt 0.583333 0.500000
vt 0.583333 1.000000
vt 0.500000 0.500000
vt 0.500000 1.000000
vt 0.416667 0.500000
vt 0.416667 1.000000
vt 0.333333 0.500000
vt 0.333333 1.000000
vt 0.250000 0.500000
vt 0.250000 1.000000
vt 0.166667 0.500000
vt 0.042154 0.370000
vt 0.250000 0.010000
vt 0.457846 0.370000
vt 0.166667 1.000000
vt 0.083333 0.500000
vt 0.083333 1.000000
vt 0.000000 0.500000
vt 0.990000 0.250000
vt 0.630000 0.042154
vt 0.630000 0.457846
vt 0.370000 0.457846
vt 0.250000 0.490000
vt 0.130000 0.457846
vt 0.010000 0.250000
vt 0.042154 0.130000
vt 0.130000 0.042154
vt 0.370000 0.042154
vt 0.457846 0.130000
vt 0.490000 0.250000
vt 0.000000 1.000000
vt 0.750000 0.490000
vt 0.870000 0.457846
vt 0.957846 0.370000
vt 0.957846 0.130000
vt 0.870000 0.042154
vt 0.750000 0.010000
vt 0.542154 0.130000
vt 0.510000 0.250000
vt 0.542154 0.370000
s 0
usemtl Range_ground_blue
f 2/1/1 3/2/1 1/3/1
f 4/4/2 5/5/2 3/2/2
f 6/6/3 7/7/3 5/5/3
f 8/8/4 9/9/4 7/7/4
f 10/10/5 11/11/5 9/9/5
f 12/12/6 13/13/6 11/11/6
f 14/14/7 15/15/7 13/13/7
f 16/16/8 17/17/8 15/15/8
f 18/18/9 19/19/9 17/17/9
f 20/20/10 21/21/10 19/19/10
f 22/22/11 14/23/11 6/24/11
f 22/25/12 23/26/12 21/21/12
f 24/27/13 1/28/13 23/26/13
f 7/29/14 15/30/14 23/31/14
f 2/1/1 4/4/1 3/2/1
f 4/4/2 6/6/2 5/5/2
f 6/6/3 8/8/3 7/7/3
f 8/8/4 10/10/4 9/9/4
f 10/10/5 12/12/5 11/11/5
f 12/12/6 14/14/6 13/13/6
f 14/14/7 16/16/7 15/15/7
f 16/16/8 18/18/8 17/17/8
f 18/18/9 20/20/9 19/19/9
f 20/20/10 22/25/10 21/21/10
f 6/24/11 4/32/11 2/33/11
f 2/33/11 24/34/11 22/22/11
f 22/22/11 20/35/11 18/36/11
f 18/36/11 16/37/11 14/23/11
f 14/23/11 12/38/11 10/39/11
f 10/39/11 8/40/11 6/24/11
f 6/24/11 2/33/11 22/22/11
f 22/22/11 18/36/11 14/23/11
f 14/23/11 10/39/11 6/24/11
f 22/25/12 24/27/12 23/26/12
f 24/27/13 2/41/13 1/28/13
f 23/31/14 1/42/14 3/43/14
f 3/43/14 5/44/14 7/29/14
f 7/29/14 9/45/14 11/46/14
f 11/46/14 13/47/14 15/30/14
f 15/30/14 17/48/14 19/49/14
f 19/49/14 21/50/14 23/31/14
f 23/31/14 3/43/14 7/29/14
f 7/29/14 11/46/14 15/30/14
f 15/30/14 19/49/14 23/31/14
o Range_segment.001
v 0.500000 0.033000 -0.866025
v 0.866025 0.033000 -0.500000
v 0.501061 0.032598 -0.867086
v 0.867086 0.032598 -0.501061
v 0.501837 0.031500 -0.867863
v 0.867863 0.031500 -0.501837
v 0.502121 0.030000 -0.868147
v 0.868147 0.030000 -0.502121
v 0.501837 0.028500 -0.867863
v 0.867863 0.028500 -0.501837
v 0.501061 0.027402 -0.867086
v 0.867086 0.027402 -0.501061
v 0.500000 0.027000 -0.866025
v 0.866025 0.027000 -0.500000
v 0.498939 0.027402 -0.864965
v 0.864965 0.027402 -0.498939
v 0.498163 0.028500 -0.864188
v 0.864188 0.028500 -0.498163
v 0.497879 0.030000 -0.863904
v 0.863904 0.030000 -0.497879
v 0.498163 0.031500 -0.864188
v 0.864188 0.031500 -0.498163
v 0.498939 0.032598 -0.864965
v 0.864965 0.032598 -0.498939
vn 0.1830 0.9659 -0.1830
vn 0.5000 0.7071 -0.5000
vn 0.6830 0.2588 -0.6830
vn 0.6830 -0.2588 -0.6830
vn 0.5000 -0.7071 -0.5000
vn 0.1830 -0.9659 -0.1830
vn -0.1830 -0.9659 0.1830
vn -0.5000 -0.7071 0.5000
vn -0.6830 -0.2588 0.6830
vn -0.6830 0.2588 0.6830
vn 0.7071 -0.0000 0.7071
vn -0.5000 0.7071 0.5000
vn -0.1830 0.9659 0.1830
vn -0.7071 -0.0000 -0.7071
vt 1.000000 1.000000
vt 0.916667 0.500000
vt 1.000000 0.500000
vt 0.916667 1.000000
vt 0.833333 0.500000
vt 0.833333 1.000000
vt 0.750000 0.500000
vt 0.750000 1.000000
vt 0.666667 0.500000
vt 0.666667 1.000000
vt 0.583333 0.500000
vt 0.583333 1.000000
vt 0.500000 0.500000
vt 0.500000 1.000000
vt 0.416667 0.500000
vt 0.416667 1.000000
vt 0.333333 0.500000
vt 0.333333 1.000000
vt 0.250000 0.500000
vt 0.250000 1.000000
vt 0.166667 0.500000
vt 0.042154 0.370000
vt 0.250000 0.010000
vt 0.457846 0.370000
vt 0.166667 1.000000
vt 0.083333 0.500000
vt 0.083333 1.000000
vt 0.000000 0.500000
vt 0.990000 0.250000
vt 0.630000 0.042154
vt 0.630000 0.457846
vt 0.370000 0.457846
vt 0.250000 0.490000
vt 0.130000 0.457846
vt 0.010000 0.250000
vt 0.042154 0.130000
vt 0.130000 0.042154
vt 0.370000 0.042154
vt 0.457846 0.130000
vt 0.490000 0.250000
vt 0.000000 1.000000
vt 0.750000 0.490000
vt 0.870000 0.457846
vt 0.957846 0.370000
vt 0.957846 0.130000
vt 0.870000 0.042154
vt 0.750000 0.010000
vt 0.542154 0.130000
vt 0.510000 0.250000
vt 0.542154 0.370000
s 0
usemtl Range_ground_blue
f 26/51/15 27/52/15 25/53/15
f 28/54/16 29/55/16 27/52/16
f 30/56/17 31/57/17 29/55/17
f 32/58/18 33/59/18 31/57/18
f 34/60/19 35/61/19 33/59/19
f 36/62/20 37/63/20 35/61/20
f 38/64/21 39/65/21 37/63/21
f 40/66/22 41/67/22 39/65/22
f 42/68/23 43/69/23 41/67/23
f 44/70/24 45/71/24 43/69/24
f 46/72/25 38/73/25 30/74/25
f 46/75/26 47/76/26 45/71/26
f 48/77/27 25/78/27 47/76/27
f 31/79/28 39/80/28 47/81/28
f 26/51/15 28/54/15 27/52/15
f 28/54/16 30/56/16 29/55/16
f 30/56/17 32/58/17 31/57/17
f 32/58/18 34/60/18 33/59/18
f 34/60/19 36/62/19 35/61/19
f 36/62/20 38/64/20 37/63/20
f 38/64/21 40/66/21 39/65/21
f 40/66/22 42/68/22 41/67/22
f 42/68/23 44/70/23 43/69/23
f 44/70/24 46/75/24 45/71/24
f 30/74/25 28/82/25 26/83/25
f 26/83/25 48/84/25 46/72/25
f 46/72/25 44/85/25 42/86/25
f 42/86/25 40/87/25 38/73/25
f 38/73/25 36/88/25 34/89/25
f 34/89/25 32/90/25 30/74/25
f 30/74/25 26/83/25 46/72/25
f 46/72/25 42/86/25 38/73/25
f 38/73/25 34/89/25 30/74/25
f 46/75/26 48/77/26 47/76/26
f 48/77/27 26/91/27 25/78/27
f 47/81/28 25/92/28 27/93/28
f 27/93/28 29/94/28 31/79/28
f 31/79/28 33/95/28 35/96/28
f 35/96/28 37/97/28 39/80/28
f 39/80/28 41/98/28 43/99/28
f 43/99/28 45/100/28 47/81/28
f 47/81/28 27/93/28 31/79/28
f 31/79/28 35/96/28 39/80/28
f 39/80/28 43/99/28 47/81/28
o Range_segment.002
v 0.866025 0.033000 -0.500000
v 1.000000 0.033000 0.000000
v 0.867474 0.032598 -0.500388
v 1.001449 0.032598 -0.000388
v 0.868535 0.031500 -0.500672
v 1.002510 0.031500 -0.000672
v 0.868923 0.030000 -0.500776
v 1.002898 0.030000 -0.000776
v 0.868535 0.028500 -0.500672
v 1.002510 0.028500 -0.000672
v 0.867474 0.027402 -0.500388
v 1.001449 0.027402 -0.000388
v 0.866025 0.027000 -0.500000
v 1.000000 0.027000 0.000000
v 0.864577 0.027402 -0.499612
v 0.998551 0.027402 0.000388
v 0.863516 0.028500 -0.499328
v 0.997490 0.028500 0.000672
v 0.863128 0.030000 -0.499224
v 0.997102 0.030000 0.000776
v 0.863516 0.031500 -0.499328
v 0.997490 0.031500 0.000672
v 0.864577 0.032598 -0.499612
v 0.998551 0.032598 0.000388
vn 0.2500 0.9659 -0.0670
vn 0.6830 0.7071 -0.1830
vn 0.9330 0.2588 -0.2500
vn 0.9330 -0.2588 -0.2500
vn 0.6830 -0.7071 -0.1830
vn 0.2500 -0.9659 -0.0670
vn -0.2500 -0.9659 0.0670
vn -0.6830 -0.7071 0.1830
vn -0.9330 -0.2588 0.2500
vn -0.9330 0.2588 0.2500
vn 0.2588 -0.0000 0.9659
vn -0.6830 0.7071 0.1830
vn -0.2500 0.9659 0.0670
vn -0.2588 -0.0000 -0.9659
vt 1.000000 1.000000
vt 0.916667 0.500000
vt 1.000000 0.500000
vt 0.916667 1.000000
vt 0.833333 0.500000
vt 0.833333 1.000000
vt 0.750000 0.500000
vt 0.750000 1.000000
vt 0.666667 0.500000
vt 0.666667 1.000000
vt 0.583333 0.500000
vt 0.583333 1.000000
vt 0.500000 0.500000
vt 0.500000 1.000000
vt 0.416667 0.500000
vt 0.416667 1.000000
vt 0.333333 0.500000
vt 0.333333 1.000000
vt 0.250000 0.500000
vt 0.250000 1.000000
vt 0.166667 0.500000
vt 0.042154 0.370000
vt 0.250000 0.010000
vt 0.457846 0.370000
vt 0.166667 1.000000
vt 0.083333 0.500000
vt 0.083333 1.000000
vt 0.000000 0.500000
vt 0.990000 0.250000
vt 0.630000 0.042154
vt 0.630000 0.457846
vt 0.370000 0.457846
vt 0.250000 0.490000
vt 0.130000 0.457846
vt 0.010000 0.250000
vt 0.042154 0.130000
vt 0.130000 0.042154
vt 0.370000 0.042154
vt 0.457846 0.130000
vt 0.490000 0.250000
vt 0.000000 1.000000
vt 0.750000 0.490000
vt 0.870000 0.457846
vt 0.957846 0.370000
vt 0.957846 0.130000
vt 0.870000 0.042154
vt 0.750000 0.010000
vt 0.542154 0.130000
vt 0.510000 0.250000
vt 0.542154 0.370000
s 0
usemtl Range_ground_blue
f 50/101/29 51/102/29 49/103/29
f 52/104/30 53/105/30 51/102/30
f 54/106/31 55/107/31 53/105/31
f 56/108/32 57/109/32 55/107/32
f 58/110/33 59/111/33 57/109/33
f 60/112/34 61/113/34 59/111/34
f 62/114/35 63/115/35 61/113/35
f 64/116/36 65/117/36 63/115/36
f 66/118/37 67/119/37 65/117/37
f 68/120/38 69/121/38 67/119/38
f 70/122/39 62/123/39 54/124/39
f 70/125/40 71/126/40 69/121/40
f 72/127/41 49/128/41 71/126/41
f 55/129/42 63/130/42 71/131/42
f 50/101/29 52/104/29 51/102/29
f 52/104/30 54/106/30 53/105/30
f 54/106/31 56/108/31 55/107/31
f 56/108/32 58/110/32 57/109/32
f 58/110/33 60/112/33 59/111/33
f 60/112/34 62/114/34 61/113/34
f 62/114/35 64/116/35 63/115/35
f 64/116/36 66/118/36 65/117/36
f 66/118/37 68/120/37 67/119/37
f 68/120/38 70/125/38 69/121/38
f 54/124/39 52/132/39 50/133/39
f 50/133/39 72/134/39 70/122/39
f 70/122/39 68/135/39 66/136/39
f 66/136/39 64/137/39 62/123/39
f 62/123/39 60/138/39 58/139/39
f 58/139/39 56/140/39 54/124/39
f 54/124/39 50/133/39 70/122/39
f 70/122/39 66/136/39 62/123/39
f 62/123/39 58/139/39 54/124/39
f 70/125/40 72/127/40 71/126/40
f 72/127/41 50/141/41 49/128/41
f 71/131/42 49/142/42 51/143/42
f 51/143/42 53/144/42 55/129/42
f 55/129/42 57/145/42 59/146/42
f 59/146/42 61/147/42 63/130/42
f 63/130/42 65/148/42 67/149/42
f 67/149/42 69/150/42 71/131/42
f 71/131/42 51/143/42 55/129/42
f 55/129/42 59/146/42 63/130/42
f 63/130/42 67/149/42 71/131/42
o Range_segment.003
v 1.000000 0.033000 0.000000
v 0.866025 0.033000 0.500000
v 1.001449 0.032598 0.000388
v 0.867474 0.032598 0.500388
v 1.002510 0.031500 0.000672
v 0.868535 0.031500 0.500672
v 1.002898 0.030000 0.000776
v 0.868923 0.030000 0.500776
v 1.002510 0.028500 0.000672
v 0.868535 0.028500 0.500672
v 1.001449 0.027402 0.000388
v 0.867474 0.027402 0.500388
v 1.000000 0.027000 0.000000
v 0.866025 0.027000 0.500000
v 0.998551 0.027402 -0.000388
v 0.864577 0.027402 0.499612
v 0.997490 0.028500 -0.000672
v 0.863516 0.028500 0.499328
v 0.997102 0.030000 -0.000776
v 0.863128 0.030000 0.499224
v 0.997490 0.031500 -0.000672
v 0.863516 0.031500 0.499328
v 0.998551 0.032598 -0.000388
v 0.864577 0.032598 0.499612
vn 0.2500 0.9659 0.0670
vn 0.6830 0.7071 0.1830
vn 0.9330 0.2588 0.2500
vn 0.9330 -0.2588 0.2500
vn 0.6830 -0.7071 0.1830
vn 0.2500 -0.9659 0.0670
vn -0.2500 -0.9659 -0.0670
vn -0.6830 -0.7071 -0.1830
vn -0.9330 -0.2588 -0.2500
vn -0.9330 0.2588 -0.2500
vn -0.2588 -0.0000 0.9659
vn -0.6830 0.7071 -0.1830
vn -0.2500 0.9659 -0.0670
vn 0.2588 -0.0000 -0.9659
vt 1.000000 1.000000
vt 0.916667 0.500000
vt 1.000000 0.500000
vt 0.916667 1.000000
vt 0.833333 0.500000
vt 0.833333 1.000000
vt 0.750000 0.500000
vt 0.750000 1.000000
vt 0.666667 0.500000
vt 0.666667 1.000000
vt 0.583333 0.500000
vt 0.583333 1.000000
vt 0.500000 0.500000
vt 0.500000 1.000000
vt 0.416667 0.500000
vt 0.416667 1.000000
vt 0.333333 0.500000
vt 0.333333 1.000000
vt 0.250000 0.500000
vt 0.250000 1.000000
vt 0.166667 0.500000
vt 0.042154 0.370000
vt 0.250000 0.010000
vt 0.457846 0.370000
vt 0.166667 1.000000
vt 0.083333 0.500000
vt 0.083333 1.000000
vt 0.000000 0.500000
vt 0.990000 0.250000
vt 0.630000 0.042154
vt 0.630000 0.457846
vt 0.370000 0.457846
vt 0.250000 0.490000
vt 0.130000 0.457846
vt 0.010000 0.250000
vt 0.042154 0.130000
vt 0.130000 0.042154
vt 0.370000 0.042154
vt 0.457846 0.130000
vt 0.490000 0.250000
vt 0.000000 1.000000
vt 0.750000 0.490000
vt 0.870000 0.457846
vt 0.957846 0.370000
vt 0.957846 0.130000
vt 0.870000 0.042154
vt 0.750000 0.010000
vt 0.542154 0.130000
vt 0.510000 0.250000
vt 0.542154 0.370000
s 0
usemtl Range_ground_blue
f 74/151/43 75/152/43 73/153/43
f 76/154/44 77/155/44 75/152/44
f 78/156/45 79/157/45 77/155/45
f 80/158/46 81/159/46 79/157/46
f 82/160/47 83/161/47 81/159/47
f 84/162/48 85/163/48 83/161/48
f 86/164/49 87/165/49 85/163/49
f 88/166/50 89/167/50 87/165/50
f 90/168/51 91/169/51 89/167/51
f 92/170/52 93/171/52 91/169/52
f 94/172/53 86/173/53 78/174/53
f 94/175/54 95/176/54 93/171/54
f 96/177/55 73/178/55 95/176/55
f 79/179/56 87/180/56 95/181/56
f 74/151/43 76/154/43 75/152/43
f 76/154/44 78/156/44 77/155/44
f 78/156/45 80/158/45 79/157/45
f 80/158/46 82/160/46 81/159/46
f 82/160/47 84/162/47 83/161/47
f 84/162/48 86/164/48 85/163/48
f 86/164/49 88/166/49 87/165/49
f 88/166/50 90/168/50 89/167/50
f 90/168/51 92/170/51 91/169/51
f 92/170/52 94/175/52 93/171/52
f 78/174/53 76/182/53 74/183/53
f 74/183/53 96/184/53 94/172/53
f 94/172/53 92/185/53 90/186/53
f 90/186/53 88/187/53 86/173/53
f 86/173/53 84/188/53 82/189/53
f 82/189/53 80/190/53 78/174/53
f 78/174/53 74/183/53 94/172/53
f 94/172/53 90/186/53 86/173/53
f 86/173/53 82/189/53 78/174/53
f 94/175/54 96/177/54 95/176/54
f 96/177/55 74/191/55 73/178/55
f 95/181/56 73/192/56 75/193/56
f 75/193/56 77/194/56 79/179/56
f 79/179/56 81/195/56 83/196/56
f 83/196/56 85/197/56 87/180/56
f 87/180/56 89/198/56 91/199/56
f 91/199/56 93/200/56 95/181/56
f 95/181/56 75/193/56 79/179/56
f 79/179/56 83/196/56 87/180/56
f 87/180/56 91/199/56 95/181/56
o Range_segment.004
v 0.866025 0.033000 0.500000
v 0.500000 0.033000 0.866025
v 0.867086 0.032598 0.501061
v 0.501061 0.032598 0.867086
v 0.867863 0.031500 0.501837
v 0.501837 0.031500 0.867863
v 0.868147 0.030000 0.502121
v 0.502121 0.030000 0.868147
v 0.867863 0.028500 0.501837
v 0.501837 0.028500 0.867863
v 0.867086 0.027402 0.501061
v 0.501061 0.027402 0.867086
v 0.866025 0.027000 0.500000
v 0.500000 0.027000 0.866025
v 0.864965 0.027402 0.498939
v 0.498939 0.027402 0.864965
v 0.864188 0.028500 0.498163
v 0.498163 0.028500 0.864188
v 0.863904 0.030000 0.497879
v 0.497879 0.030000 0.863904
v 0.864188 0.031500 0.498163
v 0.498163 0.031500 0.864188
v 0.864965 0.032598 0.498939
v 0.498939 0.032598 0.864965
vn 0.1830 0.9659 0.1830
vn 0.5000 0.7071 0.5000
vn 0.6830 0.2588 0.6830
vn 0.6830 -0.2588 0.6830
vn 0.5000 -0.7071 0.5000
vn 0.1830 -0.9659 0.1830
vn -0.1830 -0.9659 -0.1830
vn -0.5000 -0.7071 -0.5000
vn -0.6830 -0.2588 -0.6830
vn -0.6830 0.2588 -0.6830
vn -0.7071 -0.0000 0.7071
vn -0.5000 0.7071 -0.5000
vn -0.1830 0.9659 -0.1830
vn 0.7071 -0.0000 -0.7071
vt 1.000000 1.000000
vt 0.916667 0.500000
vt 1.000000 0.500000
vt 0.916667 1.000000
vt 0.833333 0.500000
vt 0.833333 1.000000
vt 0.750000 0.500000
vt 0.750000 1.000000
vt 0.666667 0.500000
vt 0.666667 1.000000
vt 0.583333 0.500000
vt 0.583333 1.000000
vt 0.500000 0.500000
vt 0.500000 1.000000
vt 0.416667 0.500000
vt 0.416667 1.000000
vt 0.333333 0.500000
vt 0.333333 1.000000
vt 0.250000 0.500000
vt 0.250000 1.000000
vt 0.166667 0.500000
vt 0.042154 0.370000
vt 0.250000 0.010000
vt 0.457846 0.370000
vt 0.166667 1.000000
vt 0.083333 0.500000
vt 0.083333 1.000000
vt 0.000000 0.500000
vt 0.990000 0.250000
vt 0.630000 0.042154
vt 0.630000 0.457846
vt 0.370000 0.457846
vt 0.250000 0.490000
vt 0.130000 0.457846
vt 0.010000 0.250000
vt 0.042154 0.130000
vt 0.130000 0.042154
vt 0.370000 0.042154
vt 0.457846 0.130000
vt 0.490000 0.250000
vt 0.000000 1.000000
vt 0.750000 0.490000
vt 0.870000 0.457846
vt 0.957846 0.370000
vt 0.957846 0.130000
vt 0.870000 0.042154
vt 0.750000 0.010000
vt 0.542154 0.130000
vt 0.510000 0.250000
vt 0.542154 0.370000
s 0
usemtl Range_ground_blue
f 98/201/57 99/202/57 97/203/57
f 100/204/58 101/205/58 99/202/58
f 102/206/59 103/207/59 101/205/59
f 104/208/60 105/209/60 103/207/60
f 106/210/61 107/211/61 105/209/61
f 108/212/62 109/213/62 107/211/62
f 110/214/63 111/215/63 109/213/63
f 112/216/64 113/217/64 111/215/64
f 114/218/65 115/219/65 113/217/65
f 116/220/66 117/221/66 115/219/66
f 118/222/67 110/223/67 102/224/67
f 118/225/68 119/226/68 117/221/68
f 120/227/69 97/228/69 119/226/69
f 103/229/70 111/230/70 119/231/70
f 98/201/57 100/204/57 99/202/57
f 100/204/58 102/206/58 101/205/58
f 102/206/59 104/208/59 103/207/59
f 104/208/60 106/210/60 105/209/60
f 106/210/61 108/212/61 107/211/61
f 108/212/62 110/214/62 109/213/62
f 110/214/63 112/216/63 111/215/63
f 112/216/64 114/218/64 113/217/64
f 114/218/65 116/220/65 115/219/65
f 116/220/66 118/225/66 117/221/66
f 102/224/67 100/232/67 98/233/67
f 98/233/67 120/234/67 118/222/67
f 118/222/67 116/235/67 114/236/67
f 114/236/67 112/237/67 110/223/67
f 110/223/67 108/238/67 106/239/67
f 106/239/67 104/240/67 102/224/67
f 102/224/67 98/233/67 118/222/67
f 118/222/67 114/236/67 110/223/67
f 110/223/67 106/239/67 102/224/67
f 118/225/68 120/227/68 119/226/68
f 120/227/69 98/241/69 97/228/69
f 119/231/70 97/242/70 99/243/70
f 99/243/70 101/244/70 103/229/70
f 103/229/70 105/245/70 107/246/70
f 107/246/70 109/247/70 111/230/70
f 111/230/70 113/248/70 115/249/70
f 115/249/70 117/250/70 119/231/70
f 119/231/70 99/243/70 103/229/70
f 103/229/70 107/246/70 111/230/70
f 111/230/70 115/249/70 119/231/70
o Range_segment.005
v 0.500000 0.033000 0.866025
v 0.000000 0.033000 1.000000
v 0.500388 0.032598 0.867474
v 0.000388 0.032598 1.001449
v 0.500672 0.031500 0.868535
v 0.000672 0.031500 1.002510
v 0.500776 0.030000 0.868923
v 0.000776 0.030000 1.002898
v 0.500672 0.028500 0.868535
v 0.000672 0.028500 1.002510
v 0.500388 0.027402 0.867474
v 0.000388 0.027402 1.001449
v 0.500000 0.027000 0.866025
v 0.000000 0.027000 1.000000
v 0.499612 0.027402 0.864577
v -0.000388 0.027402 0.998551
v 0.499328 0.028500 0.863516
v -0.000672 0.028500 0.997491
v 0.499224 0.030000 0.863128
v -0.000776 0.030000 0.997102
v 0.499328 0.031500 0.863516
v -0.000672 0.031500 0.997491
v 0.499612 0.032598 0.864577
v -0.000388 0.032598 0.998551
vn 0.0670 0.9659 0.2500
vn 0.1830 0.7071 0.6830
vn 0.2500 0.2588 0.9330
vn 0.2500 -0.2588 0.9330
vn 0.1830 -0.7071 0.6830
vn 0.0670 -0.9659 0.2500
vn -0.0670 -0.9659 -0.2500
vn -0.1830 -0.7071 -0.6830
vn -0.2500 -0.2588 -0.9330
vn -0.2500 0.2588 -0.9330
vn -0.9659 -0.0000 0.2588
vn -0.1830 0.7071 -0.6830
vn -0.0670 0.9659 -0.2500
vn 0.9659 -0.0000 -0.2588
vt 1.000000 1.000000
vt 0.916667 0.500000
vt 1.000000 0.500000
vt 0.916667 1.000000
vt 0.833333 0.500000
vt 0.833333 1.000000
vt 0.750000 0.500000
vt 0.750000 1.000000
vt 0.666667 0.500000
vt 0.666667 1.000000
vt 0.583333 0.500000
vt 0.583333 1.000000
vt 0.500000 0.500000
vt 0.500000 1.000000
vt 0.416667 0.500000
vt 0.416667 1.000000
vt 0.333333 0.500000
vt 0.333333 1.000000
vt 0.250000 0.500000
vt 0.250000 1.000000
vt 0.166667 0.500000
vt 0.042154 0.370000
vt 0.250000 0.010000
vt 0.457846 0.370000
vt 0.166667 1.000000
vt 0.083333 0.500000
vt 0.083333 1.000000
vt 0.000000 0.500000
vt 0.990000 0.250000
vt 0.630000 0.042154
vt 0.630000 0.457846
vt 0.370000 0.457846
vt 0.250000 0.490000
vt 0.130000 0.457846
vt 0.010000 0.250000
vt 0.042154 0.130000
vt 0.130000 0.042154
vt 0.370000 0.042154
vt 0.457846 0.130000
vt 0.490000 0.250000
vt 0.000000 1.000000
vt 0.750000 0.490000
vt 0.870000 0.457846
vt 0.957846 0.370000
vt 0.957846 0.130000
vt 0.870000 0.042154
vt 0.750000 0.010000
vt 0.542154 0.130000
vt 0.510000 0.250000
vt 0.542154 0.370000
s 0
usemtl Range_ground_blue
f 122/251/71 123/252/71 121/253/71
f 124/254/72 125/255/72 123/252/72
f 126/256/73 127/257/73 125/255/73
f 128/258/74 129/259/74 127/257/74
f 130/260/75 131/261/75 129/259/75
f 132/262/76 133/263/76 131/261/76
f 134/264/77 135/265/77 133/263/77
f 136/266/78 137/267/78 135/265/78
f 138/268/79 139/269/79 137/267/79
f 140/270/80 141/271/80 139/269/80
f 142/272/81 134/273/81 126/274/81
f 142/275/82 143/276/82 141/271/82
f 144/277/83 121/278/83 143/276/83
f 127/279/84 135/280/84 143/281/84
f 122/251/71 124/254/71 123/252/71
f 124/254/72 126/256/72 125/255/72
f 126/256/73 128/258/73 127/257/73
f 128/258/74 130/260/74 129/259/74
f 130/260/75 132/262/75 131/261/75
f 132/262/76 134/264/76 133/263/76
f 134/264/77 136/266/77 135/265/77
f 136/266/78 138/268/78 137/267/78
f 138/268/79 140/270/79 139/269/79
f 140/270/80 142/275/80 141/271/80
f 126/274/81 124/282/81 122/283/81
f 122/283/81 144/284/81 142/272/81
f 142/272/81 140/285/81 138/286/81
f 138/286/81 136/287/81 134/273/81
f 134/273/81 132/288/81 130/289/81
f 130/289/81 128/290/81 126/274/81
f 126/274/81 122/283/81 142/272/81
f 142/272/81 138/286/81 134/273/81
f 134/273/81 130/289/81 126/274/81
f 142/275/82 144/277/82 143/276/82
f 144/277/83 122/291/83 121/278/83
f 143/281/84 121/292/84 123/293/84
f 123/293/84 125/294/84 127/279/84
f 127/279/84 129/295/84 131/296/84
f 131/296/84 133/297/84 135/280/84
f 135/280/84 137/298/84 139/299/84
f 139/299/84 141/300/84 143/281/84
f 143/281/84 123/293/84 127/279/84
f 127/279/84 131/296/84 135/280/84
f 135/280/84 139/299/84 143/281/84
o Range_segment.006
v 0.000000 0.033000 1.000000
v -0.500000 0.033000 0.866025
v -0.000388 0.032598 1.001449
v -0.500388 0.032598 0.867474
v -0.000672 0.031500 1.002510
v -0.500672 0.031500 0.868535
v -0.000776 0.030000 1.002898
v -0.500776 0.030000 0.868923
v -0.000672 0.028500 1.002510
v -0.500672 0.028500 0.868535
v -0.000388 0.027402 1.001449
v -0.500388 0.027402 0.867474
v 0.000000 0.027000 1.000000
v -0.500000 0.027000 0.866025
v 0.000388 0.027402 0.998551
v -0.499612 0.027402 0.864577
v 0.000672 0.028500 0.997490
v -0.499328 0.028500 0.863516
v 0.000776 0.030000 0.997102
v -0.499224 0.030000 0.863128
v 0.000672 0.031500 0.997490
v -0.499328 0.031500 0.863516
v 0.000388 0.032598 0.998551
v -0.499612 0.032598 0.864577
vn -0.0670 0.9659 0.2500
vn -0.1830 0.7071 0.6830
vn -0.2500 0.2588 0.9330
vn -0.2500 -0.2588 0.9330
vn -0.1830 -0.7071 0.6830
vn -0.0670 -0.9659 0.2500
vn 0.0670 -0.9659 -0.2500
vn 0.1830 -0.7071 -0.6830
vn 0.2500 -0.2588 -0.9330
vn 0.2500 0.2588 -0.9330
vn -0.9659 -0.0000 -0.2588
vn 0.1830 0.7071 -0.6830
vn 0.0670 0.9659 -0.2500
vn 0.9659 -0.0000 0.2588
vt 1.000000 1.000000
vt 0.916667 0.500000
vt 1.000000 0.500000
vt 0.916667 1.000000
vt 0.833333 0.500000
vt 0.833333 1.000000
vt 0.750000 0.500000
vt 0.750000 1.000000
vt 0.666667 0.500000
vt 0.666667 1.000000
vt 0.583333 0.500000
vt 0.583333 1.000000
vt 0.500000 0.500000
vt 0.500000 1.000000
vt 0.416667 0.500000
vt 0.416667 1.000000
vt 0.333333 0.500000
vt 0.333333 1.000000
vt 0.250000 0.500000
vt 0.250000 1.000000
vt 0.166667 0.500000
vt 0.042154 0.370000
vt 0.250000 0.010000
vt 0.457846 0.370000
vt 0.166667 1.000000
vt 0.083333 0.500000
vt 0.083333 1.000000
vt 0.000000 0.500000
vt 0.990000 0.250000
vt 0.630000 0.042154
vt 0.630000 0.457846
vt 0.370000 0.457846
vt 0.250000 0.490000
vt 0.130000 0.457846
vt 0.010000 0.250000
vt 0.042154 0.130000
vt 0.130000 0.042154
vt 0.370000 0.042154
vt 0.457846 0.130000
vt 0.490000 0.250000
vt 0.000000 1.000000
vt 0.750000 0.490000
vt 0.870000 0.457846
vt 0.957846 0.370000
vt 0.957846 0.130000
vt 0.870000 0.042154
vt 0.750000 0.010000
vt 0.542154 0.130000
vt 0.510000 0.250000
vt 0.542154 0.370000
s 0
usemtl Range_ground_blue
f 146/301/85 147/302/85 145/303/85
f 148/304/86 149/305/86 147/302/86
f 150/306/87 151/307/87 149/305/87
f 152/308/88 153/309/88 151/307/88
f 154/310/89 155/311/89 153/309/89
f 156/312/90 157/313/90 155/311/90
f 158/314/91 159/315/91 157/313/91
f 160/316/92 161/317/92 159/315/92
f 162/318/93 163/319/93 161/317/93
f 164/320/94 165/321/94 163/319/94
f 166/322/95 158/323/95 150/324/95
f 166/325/96 167/326/96 165/321/96
f 168/327/97 145/328/97 167/326/97
f 151/329/98 159/330/98 167/331/98
f 146/301/85 148/304/85 147/302/85
f 148/304/86 150/306/86 149/305/86
f 150/306/87 152/308/87 151/307/87
f 152/308/88 154/310/88 153/309/88
f 154/310/89 156/312/89 155/311/89
f 156/312/90 158/314/90 157/313/90
f 158/314/91 160/316/91 159/315/91
f 160/316/92 162/318/92 161/317/92
f 162/318/93 164/320/93 163/319/93
f 164/320/94 166/325/94 165/321/94
f 150/324/95 148/332/95 146/333/95
f 146/333/95 168/334/95 166/322/95
f 166/322/95 164/335/95 162/336/95
f 162/336/95 160/337/95 158/323/95
f 158/323/95 156/338/95 154/339/95
f 154/339/95 152/340/95 150/324/95
f 150/324/95 146/333/95 166/322/95
f 166/322/95 162/336/95 158/323/95
f 158/323/95 154/339/95 150/324/95
f 166/325/96 168/327/96 167/326/96
f 168/327/97 146/341/97 145/328/97
f 167/331/98 145/342/98 147/343/98
f 147/343/98 149/344/98 151/329/98
f 151/329/98 153/345/98 155/346/98
f 155/346/98 157/347/98 159/330/98
f 159/330/98 161/348/98 163/349/98
f 163/349/98 165/350/98 167/331/98
f 167/331/98 147/343/98 151/329/98
f 151/329/98 155/346/98 159/330/98
f 159/330/98 163/349/98 167/331/98
o Range_segment.007
v -0.500000 0.033000 0.866025
v -0.866025 0.033000 0.500000
v -0.501061 0.032598 0.867086
v -0.867086 0.032598 0.501061
v -0.501837 0.031500 0.867863
v -0.867863 0.031500 0.501837
v -0.502121 0.030000 0.868147
v -0.868147 0.030000 0.502121
v -0.501837 0.028500 0.867863
v -0.867863 0.028500 0.501837
v -0.501061 0.027402 0.867086
v -0.867086 0.027402 0.501061
v -0.500000 0.027000 0.866025
v -0.866025 0.027000 0.500000
v -0.498939 0.027402 0.864965
v -0.864965 0.027402 0.498939
v -0.498163 0.028500 0.864188
v -0.864188 0.028500 0.498163
v -0.497879 0.030000 0.863904
v -0.863904 0.030000 0.497879
v -0.498163 0.031500 0.864188
v -0.864188 0.031500 0.498163
v -0.498939 0.032598 0.864965
v -0.864965 0.032598 0.498939
vn -0.1830 0.9659 0.1830
vn -0.5000 0.7071 0.5000
vn -0.6830 0.2588 0.6830
vn -0.6830 -0.2588 0.6830
vn -0.5000 -0.7071 0.5000
vn -0.1830 -0.9659 0.1830
vn 0.1830 -0.9659 -0.1830
vn 0.5000 -0.7071 -0.5000
vn 0.6830 -0.2588 -0.6830
vn 0.6830 0.2588 -0.6830
vn -0.7071 -0.0000 -0.7071
vn 0.5000 0.7071 -0.5000
vn 0.1830 0.9659 -0.1830
vn 0.7071 -0.0000 0.7071
vt 1.000000 1.000000
vt 0.916667 0.500000
vt 1.000000 0.500000
vt 0.916667 1.000000
vt 0.833333 0.500000
vt 0.833333 1.000000
vt 0.750000 0.500000
vt 0.750000 1.000000
vt 0.666667 0.500000
vt 0.666667 1.000000
vt 0.583333 0.500000
vt 0.583333 1.000000
vt 0.500000 0.500000
vt 0.500000 1.000000
vt 0.416667 0.500000
vt 0.416667 1.000000
vt 0.333333 0.500000
vt 0.333333 1.000000
vt 0.250000 0.500000
vt 0.250000 1.000000
vt 0.166667 0.500000
vt 0.042154 0.370000
vt 0.250000 0.010000
vt 0.457846 0.370000
vt 0.166667 1.000000
vt 0.083333 0.500000
vt 0.083333 1.000000
vt 0.000000 0.500000
vt 0.990000 0.250000
vt 0.630000 0.042154
vt 0.630000 0.457846
vt 0.370000 0.457846
vt 0.250000 0.490000
vt 0.130000 0.457846
vt 0.010000 0.250000
vt 0.042154 0.130000
vt 0.130000 0.042154
vt 0.370000 0.042154
vt 0.457846 0.130000
vt 0.490000 0.250000
vt 0.000000 1.000000
vt 0.750000 0.490000
vt 0.870000 0.457846
vt 0.957846 0.370000
vt 0.957846 0.130000
vt 0.870000 0.042154
vt 0.750000 0.010000
vt 0.542154 0.130000
vt 0.510000 0.250000
vt 0.542154 0.370000
s 0
usemtl Range_ground_blue
f 170/351/99 171/352/99 169/353/99
f 172/354/100 173/355/100 171/352/100
f 174/356/101 175/357/101 173/355/101
f 176/358/102 177/359/102 175/357/102
f 178/360/103 179/361/103 177/359/103
f 180/362/104 181/363/104 179/361/104
f 182/364/105 183/365/105 181/363/105
f 184/366/106 185/367/106 183/365/106
f 186/368/107 187/369/107 185/367/107
f 188/370/108 189/371/108 187/369/108
f 190/372/109 182/373/109 174/374/109
f 190/375/110 191/376/110 189/371/110
f 192/377/111 169/378/111 191/376/111
f 175/379/112 183/380/112 191/381/112
f 170/351/99 172/354/99 171/352/99
f 172/354/100 174/356/100 173/355/100
f 174/356/101 176/358/101 175/357/101
f 176/358/102 178/360/102 177/359/102
f 178/360/103 180/362/103 179/361/103
f 180/362/104 182/364/104 181/363/104
f 182/364/105 184/366/105 183/365/105
f 184/366/106 186/368/106 185/367/106
f 186/368/107 188/370/107 187/369/107
f 188/370/108 190/375/108 189/371/108
f 174/374/109 172/382/109 170/383/109
f 170/383/109 192/384/109 190/372/109
f 190/372/109 188/385/109 186/386/109
f 186/386/109 184/387/109 182/373/109
f 182/373/109 180/388/109 178/389/109
f 178/389/109 176/390/109 174/374/109
f 174/374/109 170/383/109 190/372/109
f 190/372/109 186/386/109 182/373/109
f 182/373/109 178/389/109 174/374/109
f 190/375/110 192/377/110 191/376/110
f 192/377/111 170/391/111 169/378/111
f 191/381/112 169/392/112 171/393/112
f 171/393/112 173/394/112 175/379/112
f 175/379/112 177/395/112 179/396/112
f 179/396/112 181/397/112 183/380/112
f 183/380/112 185/398/112 187/399/112
f 187/399/112 189/400/112 191/381/112
f 191/381/112 171/393/112 175/379/112
f 175/379/112 179/396/112 183/380/112
f 183/380/112 187/399/112 191/381/112
o Range_segment.008
v -0.866025 0.033000 0.500000
v -1.000000 0.033000 0.000000
v -0.867474 0.032598 0.500388
v -1.001449 0.032598 0.000388
v -0.868535 0.031500 0.500672
v -1.002510 0.031500 0.000672
v -0.868923 0.030000 0.500776
v -1.002898 0.030000 0.000776
v -0.868535 0.028500 0.500672
v -1.002510 0.028500 0.000672
v -0.867474 0.027402 0.500388
v -1.001449 0.027402 0.000388
v -0.866025 0.027000 0.500000
v -1.000000 0.027000 0.000000
v -0.864577 0.027402 0.499612
v -0.998551 0.027402 -0.000388
v -0.863516 0.028500 0.499328
v -0.997491 0.028500 -0.000672
v -0.863128 0.030000 0.499224
v -0.997102 0.030000 -0.000776
v -0.863516 0.031500 0.499328
v -0.997491 0.031500 -0.000672
v -0.864577 0.032598 0.499612
v -0.998551 0.032598 -0.000388
vn -0.2500 0.9659 0.0670
vn -0.6830 0.7071 0.1830
vn -0.9330 0.2588 0.2500
vn -0.9330 -0.2588 0.2500
vn -0.6830 -0.7071 0.1830
vn -0.2500 -0.9659 0.0670
vn 0.2500 -0.9659 -0.0670
vn 0.6830 -0.7071 -0.1830
vn 0.9330 -0.2588 -0.2500
vn 0.9330 0.2588 -0.2500
vn -0.2588 -0.0000 -0.9659
vn 0.6830 0.7071 -0.1830
vn 0.2500 0.9659 -0.0670
vn 0.2588 -0.0000 0.9659
vt 1.000000 1.000000
vt 0.916667 0.500000
vt 1.000000 0.500000
vt 0.916667 1.000000
vt 0.833333 0.500000
vt 0.833333 1.000000
vt 0.750000 0.500000
vt 0.750000 1.000000
vt 0.666667 0.500000
vt 0.666667 1.000000
vt 0.583333 0.500000
vt 0.583333 1.000000
vt 0.500000 0.500000
vt 0.500000 1.000000
vt 0.416667 0.500000
vt 0.416667 1.000000
vt 0.333333 0.500000
vt 0.333333 1.000000
vt 0.250000 0.500000
vt 0.250000 1.000000
vt 0.166667 0.500000
vt 0.042154 0.370000
vt 0.250000 0.010000
vt 0.457846 0.370000
vt 0.166667 1.000000
vt 0.083333 0.500000
vt 0.083333 1.000000
vt 0.000000 0.500000
vt 0.990000 0.250000
vt 0.630000 0.042154
vt 0.630000 0.457846
vt 0.370000 0.457846
vt 0.250000 0.490000
vt 0.130000 0.457846
vt 0.010000 0.250000
vt 0.042154 0.130000
vt 0.130000 0.042154
vt 0.370000 0.042154
vt 0.457846 0.130000
vt 0.490000 0.250000
vt 0.000000 1.000000
vt 0.750000 0.490000
vt 0.870000 0.457846
vt 0.957846 0.370000
vt 0.957846 0.130000
vt 0.870000 0.042154
vt 0.750000 0.010000
vt 0.542154 0.130000
vt 0.510000 0.250000
vt 0.542154 0.370000
s 0
usemtl Range_ground_blue
f 194/401/113 195/402/113 193/403/113
f 196/404/114 197/405/114 195/402/114
f 198/406/115 199/407/115 197/405/115
f 200/408/116 201/409/116 199/407/116
f 202/410/117 203/411/117 201/409/117
f 204/412/118 205/413/118 203/411/118
f 206/414/119 207/415/119 205/413/119
f 208/416/120 209/417/120 207/415/120
f 210/418/121 211/419/121 209/417/121
f 212/420/122 213/421/122 211/419/122
f 214/422/123 206/423/123 198/424/123
f 214/425/124 215/426/124 213/421/124
f 216/427/125 193/428/125 215/426/125
f 199/429/126 207/430/126 215/431/126
f 194/401/113 196/404/113 195/402/113
f 196/404/114 198/406/114 197/405/114
f 198/406/115 200/408/115 199/407/115
f 200/408/116 202/410/116 201/409/116
f 202/410/117 204/412/117 203/411/117
f 204/412/118 206/414/118 205/413/118
f 206/414/119 208/416/119 207/415/119
f 208/416/120 210/418/120 209/417/120
f 210/418/121 212/420/121 211/419/121
f 212/420/122 214/425/122 213/421/122
f 198/424/123 196/432/123 194/433/123
f 194/433/123 216/434/123 214/422/123
f 214/422/123 212/435/123 210/436/123
f 210/436/123 208/437/123 206/423/123
f 206/423/123 204/438/123 202/439/123
f 202/439/123 200/440/123 198/424/123
f 198/424/123 194/433/123 214/422/123
f 214/422/123 210/436/123 206/423/123
f 206/423/123 202/439/123 198/424/123
f 214/425/124 216/427/124 215/426/124
f 216/427/125 194/441/125 193/428/125
f 215/431/126 193/442/126 195/443/126
f 195/443/126 197/444/126 199/429/126
f 199/429/126 201/445/126 203/446/126
f 203/446/126 205/447/126 207/430/126
f 207/430/126 209/448/126 211/449/126
f 211/449/126 213/450/126 215/431/126
f 215/431/126 195/443/126 199/429/126
f 199/429/126 203/446/126 207/430/126
f 207/430/126 211/449/126 215/431/126
o Range_segment.009
v -1.000000 0.033000 0.000000
v -0.866025 0.033000 -0.500000
v -1.001449 0.032598 -0.000388
v -0.867474 0.032598 -0.500388
v -1.002510 0.031500 -0.000672
v -0.868535 0.031500 -0.500672
v -1.002898 0.030000 -0.000776
v -0.868923 0.030000 -0.500776
v -1.002510 0.028500 -0.000672
v -0.868535 0.028500 -0.500672
v -1.001449 0.027402 -0.000388
v -0.867474 0.027402 -0.500388
v -1.000000 0.027000 0.000000
v -0.866025 0.027000 -0.500000
v -0.998551 0.027402 0.000388
v -0.864577 0.027402 -0.499612
v -0.997491 0.028500 0.000672
v -0.863516 0.028500 -0.499328
v -0.997102 0.030000 0.000776
v -0.863128 0.030000 -0.499224
v -0.997491 0.031500 0.000672
v -0.863516 0.031500 -0.499328
v -0.998551 0.032598 0.000388
v -0.864577 0.032598 -0.499612
vn -0.2500 0.9659 -0.0670
vn -0.6830 0.7071 -0.1830
vn -0.9330 0.2588 -0.2500
vn -0.9330 -0.2588 -0.2500
vn -0.6830 -0.7071 -0.1830
vn -0.2500 -0.9659 -0.0670
vn 0.2500 -0.9659 0.0670
vn 0.6830 -0.7071 0.1830
vn 0.9330 -0.2588 0.2500
vn 0.9330 0.2588 0.2500
vn 0.2588 -0.0000 -0.9659
vn 0.6830 0.7071 0.1830
vn 0.2500 0.9659 0.0670
vn -0.2588 -0.0000 0.9659
vt 1.000000 1.000000
vt 0.916667 0.500000
vt 1.000000 0.500000
vt 0.916667 1.000000
vt 0.833333 0.500000
vt 0.833333 1.000000
vt 0.750000 0.500000
vt 0.750000 1.000000
vt 0.666667 0.500000
vt 0.666667 1.000000
vt 0.583333 0.500000
vt 0.583333 1.000000
vt 0.500000 0.500000
vt 0.500000 1.000000
vt 0.416667 0.500000
vt 0.416667 1.000000
vt 0.333333 0.500000
vt 0.333333 1.000000
vt 0.250000 0.500000
vt 0.250000 1.000000
vt 0.166667 0.500000
vt 0.042154 0.370000
vt 0.250000 0.010000
vt 0.457846 0.370000
vt 0.166667 1.000000
vt 0.083333 0.500000
vt 0.083333 1.000000
vt 0.000000 0.500000
vt 0.990000 0.250000
vt 0.630000 0.042154
vt 0.630000 0.457846
vt 0.370000 0.457846
vt 0.250000 0.490000
vt 0.130000 0.457846
vt 0.010000 0.250000
vt 0.042154 0.130000
vt 0.130000 0.042154
vt 0.370000 0.042154
vt 0.457846 0.130000
vt 0.490000 0.250000
vt 0.000000 1.000000
vt 0.750000 0.490000
vt 0.870000 0.457846
vt 0.957846 0.370000
vt 0.957846 0.130000
vt 0.870000 0.042154
vt 0.750000 0.010000
vt 0.542154 0.130000
vt 0.510000 0.250000
vt 0.542154 0.370000
s 0
usemtl Range_ground_blue
f 218/451/127 219/452/127 217/453/127
f 220/454/128 221/455/128 219/452/128
f 222/456/129 223/457/129 221/455/129
f 224/458/130 225/459/130 223/457/130
f 226/460/131 227/461/131 225/459/131
f 228/462/132 229/463/132 227/461/132
f 230/464/133 231/465/133 229/463/133
f 232/466/134 233/467/134 231/465/134
f 234/468/135 235/469/135 233/467/135
f 236/470/136 237/471/136 235/469/136
f 238/472/137 230/473/137 222/474/137
f 238/475/138 239/476/138 237/471/138
f 240/477/139 217/478/139 239/476/139
f 223/479/140 231/480/140 239/481/140
f 218/451/127 220/454/127 219/452/127
f 220/454/128 222/456/128 221/455/128
f 222/456/129 224/458/129 223/457/129
f 224/458/130 226/460/130 225/459/130
f 226/460/131 228/462/131 227/461/131
f 228/462/132 230/464/132 229/463/132
f 230/464/133 232/466/133 231/465/133
f 232/466/134 234/468/134 233/467/134
f 234/468/135 236/470/135 235/469/135
f 236/470/136 238/475/136 237/471/136
f 222/474/137 220/482/137 218/483/137
f 218/483/137 240/484/137 238/472/137
f 238/472/137 236/485/137 234/486/137
f 234/486/137 232/487/137 230/473/137
f 230/473/137 228/488/137 226/489/137
f 226/489/137 224/490/137 222/474/137
f 222/474/137 218/483/137 238/472/137
f 238/472/137 234/486/137 230/473/137
f 230/473/137 226/489/137 222/474/137
f 238/475/138 240/477/138 239/476/138
f 240/477/139 218/491/139 217/478/139
f 239/481/140 217/492/140 219/493/140
f 219/493/140 221/494/140 223/479/140
f 223/479/140 225/495/140 227/496/140
f 227/496/140 229/497/140 231/480/140
f 231/480/140 233/498/140 235/499/140
f 235/499/140 237/500/140 239/481/140
f 239/481/140 219/493/140 223/479/140
f 223/479/140 227/496/140 231/480/140
f 231/480/140 235/499/140 239/481/140
o Range_segment.010
v -0.866025 0.033000 -0.500000
v -0.500000 0.033000 -0.866025
v -0.867086 0.032598 -0.501061
v -0.501061 0.032598 -0.867086
v -0.867863 0.031500 -0.501837
v -0.501837 0.031500 -0.867863
v -0.868147 0.030000 -0.502121
v -0.502121 0.030000 -0.868147
v -0.867863 0.028500 -0.501837
v -0.501837 0.028500 -0.867863
v -0.867086 0.027402 -0.501061
v -0.501061 0.027402 -0.867086
v -0.866025 0.027000 -0.500000
v -0.500000 0.027000 -0.866025
v -0.864965 0.027402 -0.498939
v -0.498939 0.027402 -0.864965
v -0.864188 0.028500 -0.498163
v -0.498163 0.028500 -0.864188
v -0.863904 0.030000 -0.497879
v -0.497879 0.030000 -0.863904
v -0.864188 0.031500 -0.498163
v -0.498163 0.031500 -0.864188
v -0.864965 0.032598 -0.498939
v -0.498939 0.032598 -0.864965
vn -0.1830 0.9659 -0.1830
vn -0.5000 0.7071 -0.5000
vn -0.6830 0.2588 -0.6830
vn -0.6830 -0.2588 -0.6830
vn -0.5000 -0.7071 -0.5000
vn -0.1830 -0.9659 -0.1830
vn 0.1830 -0.9659 0.1830
vn 0.5000 -0.7071 0.5000
vn 0.6830 -0.2588 0.6830
vn 0.6830 0.2588 0.6830
vn 0.7071 -0.0000 -0.7071
vn 0.5000 0.7071 0.5000
vn 0.1830 0.9659 0.1830
vn -0.7071 -0.0000 0.7071
vt 1.000000 1.000000
vt 0.916667 0.500000
vt 1.000000 0.500000
vt 0.916667 1.000000
vt 0.833333 0.500000
vt 0.833333 1.000000
vt 0.750000 0.500000
vt 0.750000 1.000000
vt 0.666667 0.500000
vt 0.666667 1.000000
vt 0.583333 0.500000
vt 0.583333 1.000000
vt 0.500000 0.500000
vt 0.500000 1.000000
vt 0.416667 0.500000
vt 0.416667 1.000000
vt 0.333333 0.500000
vt 0.333333 1.000000
vt 0.250000 0.500000
vt 0.250000 1.000000
vt 0.166667 0.500000
vt 0.042154 0.370000
vt 0.250000 0.010000
vt 0.457846 0.370000
vt 0.166667 1.000000
vt 0.083333 0.500000
vt 0.083333 1.000000
vt 0.000000 0.500000
vt 0.990000 0.250000
vt 0.630000 0.042154
vt 0.630000 0.457846
vt 0.370000 0.457846
vt 0.250000 0.490000
vt 0.130000 0.457846
vt 0.010000 0.250000
vt 0.042154 0.130000
vt 0.130000 0.042154
vt 0.370000 0.042154
vt 0.457846 0.130000
vt 0.490000 0.250000
vt 0.000000 1.000000
vt 0.750000 0.490000
vt 0.870000 0.457846
vt 0.957846 0.370000
vt 0.957846 0.130000
vt 0.870000 0.042154
vt 0.750000 0.010000
vt 0.542154 0.130000
vt 0.510000 0.250000
vt 0.542154 0.370000
s 0
usemtl Range_ground_blue
f 242/501/141 243/502/141 241/503/141
f 244/504/142 245/505/142 243/502/142
f 246/506/143 247/507/143 245/505/143
f 248/508/144 249/509/144 247/507/144
f 250/510/145 251/511/145 249/509/145
f 252/512/146 253/513/146 251/511/146
f 254/514/147 255/515/147 253/513/147
f 256/516/148 257/517/148 255/515/148
f 258/518/149 259/519/149 257/517/149
f 260/520/150 261/521/150 259/519/150
f 262/522/151 254/523/151 246/524/151
f 262/525/152 263/526/152 261/521/152
f 264/527/153 241/528/153 263/526/153
f 247/529/154 255/530/154 263/531/154
f 242/501/141 244/504/141 243/502/141
f 244/504/142 246/506/142 245/505/142
f 246/506/143 248/508/143 247/507/143
f 248/508/144 250/510/144 249/509/144
f 250/510/145 252/512/145 251/511/145
f 252/512/146 254/514/146 253/513/146
f 254/514/147 256/516/147 255/515/147
f 256/516/148 258/518/148 257/517/148
f 258/518/149 260/520/149 259/519/149
f 260/520/150 262/525/150 261/521/150
f 246/524/151 244/532/151 242/533/151
f 242/533/151 264/534/151 262/522/151
f 262/522/151 260/535/151 258/536/151
f 258/536/151 256/537/151 254/523/151
f 254/523/151 252/538/151 250/539/151
f 250/539/151 248/540/151 246/524/151
f 246/524/151 242/533/151 262/522/151
f 262/522/151 258/536/151 254/523/151
f 254/523/151 250/539/151 246/524/151
f 262/525/152 264/527/152 263/526/152
f 264/527/153 242/541/153 241/528/153
f 263/531/154 241/542/154 243/543/154
f 243/543/154 245/544/154 247/529/154
f 247/529/154 249/545/154 251/546/154
f 251/546/154 253/547/154 255/530/154
f 255/530/154 257/548/154 259/549/154
f 259/549/154 261/550/154 263/531/154
f 263/531/154 243/543/154 247/529/154
f 247/529/154 251/546/154 255/530/154
f 255/530/154 259/549/154 263/531/154
o Range_segment.011
v -0.500000 0.033000 -0.866025
v 0.000000 0.033000 -1.000000
v -0.500388 0.032598 -0.867474
v -0.000388 0.032598 -1.001449
v -0.500672 0.031500 -0.868535
v -0.000672 0.031500 -1.002510
v -0.500776 0.030000 -0.868923
v -0.000776 0.030000 -1.002898
v -0.500672 0.028500 -0.868535
v -0.000672 0.028500 -1.002510
v -0.500388 0.027402 -0.867474
v -0.000388 0.027402 -1.001449
v -0.500000 0.027000 -0.866025
v 0.000000 0.027000 -1.000000
v -0.499612 0.027402 -0.864577
v 0.000388 0.027402 -0.998551
v -0.499328 0.028500 -0.863516
v 0.000672 0.028500 -0.997490
v -0.499224 0.030000 -0.863128
v 0.000776 0.030000 -0.997102
v -0.499328 0.031500 -0.863516
v 0.000672 0.031500 -0.997490
v -0.499612 0.032598 -0.864577
v 0.000388 0.032598 -0.998551
vn -0.0670 0.9659 -0.2500
vn -0.1830 0.7071 -0.6830
vn -0.2500 0.2588 -0.9330
vn -0.2500 -0.2588 -0.9330
vn -0.1830 -0.7071 -0.6830
vn -0.0670 -0.9659 -0.2500
vn 0.0670 -0.9659 0.2500
vn 0.1830 -0.7071 0.6830
vn 0.2500 -0.2588 0.9330
vn 0.2500 0.2588 0.9330
vn 0.9659 -0.0000 -0.2588
vn 0.1830 0.7071 0.6830
vn 0.0670 0.9659 0.2500
vn -0.9659 -0.0000 0.2588
vt 1.000000 1.000000
vt 0.916667 0.500000
vt 1.000000 0.500000
vt 0.916667 1.000000
vt 0.833333 0.500000
vt 0.833333 1.000000
vt 0.750000 0.500000
vt 0.750000 1.000000
vt 0.666667 0.500000
vt 0.666667 1.000000
vt 0.583333 0.500000
vt 0.583333 1.000000
vt 0.500000 0.500000
vt 0.500000 1.000000
vt 0.416667 0.500000
vt 0.416667 1.000000
vt 0.333333 0.500000
vt 0.333333 1.000000
vt 0.250000 0.500000
vt 0.250000 1.000000
vt 0.166667 0.500000
vt 0.042154 0.370000
vt 0.250000 0.010000
vt 0.457846 0.370000
vt 0.166667 1.000000
vt 0.083333 0.500000
vt 0.083333 1.000000
vt 0.000000 0.500000
vt 0.990000 0.250000
vt 0.630000 0.042154
vt 0.630000 0.457846
vt 0.370000 0.457846
vt 0.250000 0.490000
vt 0.130000 0.457846
vt 0.010000 0.250000
vt 0.042154 0.130000
vt 0.130000 0.042154
vt 0.370000 0.042154
vt 0.457846 0.130000
vt 0.490000 0.250000
vt 0.000000 1.000000
vt 0.750000 0.490000
vt 0.870000 0.457846
vt 0.957846 0.370000
vt 0.957846 0.130000
vt 0.870000 0.042154
vt 0.750000 0.010000
vt 0.542154 0.130000
vt 0.510000 0.250000
vt 0.542154 0.370000
s 0
usemtl Range_ground_blue
f 266/551/155 267/552/155 265/553/155
f 268/554/156 269/555/156 267/552/156
f 270/556/157 271/557/157 269/555/157
f 272/558/158 273/559/158 271/557/158
f 274/560/159 275/561/159 273/559/159
f 276/562/160 277/563/160 275/561/160
f 278/564/161 279/565/161 277/563/161
f 280/566/162 281/567/162 279/565/162
f 282/568/163 283/569/163 281/567/163
f 284/570/164 285/571/164 283/569/164
f 286/572/165 278/573/165 270/574/165
f 286/575/166 287/576/166 285/571/166
f 288/577/167 265/578/167 287/576/167
f 271/579/168 279/580/168 287/581/168
f 266/551/155 268/554/155 267/552/155
f 268/554/156 270/556/156 269/555/156
f 270/556/157 272/558/157 271/557/157
f 272/558/158 274/560/158 273/559/158
f 274/560/159 276/562/159 275/561/159
f 276/562/160 278/564/160 277/563/160
f 278/564/161 280/566/161 279/565/161
f 280/566/162 282/568/162 281/567/162
f 282/568/163 284/570/163 283/569/163
f 284/570/164 286/575/164 285/571/164
f 270/574/165 268/582/165 266/583/165
f 266/583/165 288/584/165 286/572/165
f 286/572/165 284/585/165 282/586/165
f 282/586/165 280/587/165 278/573/165
f 278/573/165 276/588/165 274/589/165
f 274/589/165 272/590/165 270/574/165
f 270/574/165 266/583/165 286/572/165
f 286/572/165 282/586/165 278/573/165
f 278/573/165 274/589/165 270/574/165
f 286/575/166 288/577/166 287/576/166
f 288/577/167 266/591/167 265/578/167
f 287/581/168 265/592/168 267/593/168
f 267/593/168 269/594/168 271/579/168
f 271/579/168 273/595/168 275/596/168
f 275/596/168 277/597/168 279/580/168
f 279/580/168 281/598/168 283/599/168
f 283/599/168 285/600/168 287/581/168
f 287/581/168 267/593/168 271/579/168
f 271/579/168 275/596/168 279/580/168
f 279/580/168 283/599/168 287/581/168
