# Blender 5.2.2 LTS
# www.blender.org
mtllib environment.mtl
g pe_corridor_a_render_Cube.022
v -2.300000 -0.100000 3.300000
v -2.300000 0.000000 3.300000
v -2.300000 -0.100000 -14.300000
v -2.300000 0.000000 -14.300000
v 2.300000 -0.100000 3.300000
v 2.300000 0.000000 3.300000
v 2.300000 -0.100000 -14.300000
v 2.300000 0.000000 -14.300000
v -2.300000 0.000000 -14.000000
v -2.300000 3.400000 -14.000000
v -2.300000 0.000000 -14.299999
v -2.300000 3.400000 -14.299999
v 2.300000 0.000000 -14.000000
v 2.300000 3.400000 -14.000000
v 2.300000 0.000000 -14.299999
v 2.300000 3.400000 -14.299999
v -2.300000 0.000000 3.300000
v -2.300000 3.400000 3.300000
v -2.300000 0.000000 -14.300000
v -2.300000 3.400000 -14.300000
v -2.000000 0.000000 3.300000
v -2.000000 3.400000 3.300000
v -2.000000 0.000000 -14.300000
v -2.000000 3.400000 -14.300000
v 2.000000 0.000000 3.300000
v 2.000000 3.400000 3.300000
v 2.000000 0.000000 -14.300000
v 2.000000 3.400000 -14.300000
v 2.300000 0.000000 3.300000
v 2.300000 3.400000 3.300000
v 2.300000 0.000000 -14.300000
v 2.300000 3.400000 -14.300000
v -2.000000 0.000000 -13.950000
v -2.000000 0.180000 -13.950000
v -2.000000 0.000000 -14.009999
v -2.000000 0.180000 -14.009999
v 2.000000 0.000000 -13.950000
v 2.000000 0.180000 -13.950000
v 2.000000 0.000000 -14.009999
v 2.000000 0.180000 -14.009999
v -2.010000 0.000000 0.000000
v -2.010000 0.180000 0.000000
v -2.010000 0.000000 -14.000000
v -2.010000 0.180000 -14.000000
v -1.950000 0.000000 0.000000
v -1.950000 0.180000 0.000000
v -1.950000 0.000000 -14.000000
v -1.950000 0.180000 -14.000000
v 1.950000 0.000000 0.000000
v 1.950000 0.180000 0.000000
v 1.950000 0.000000 -14.000000
v 1.950000 0.180000 -14.000000
v 2.010000 0.000000 0.000000
v 2.010000 0.180000 0.000000
v 2.010000 0.000000 -14.000000
v 2.010000 0.180000 -14.000000
v -2.010000 0.000000 -9.500000
v -2.010000 2.200000 -9.500000
v -2.010000 0.000000 -10.500000
v -2.010000 2.200000 -10.500000
v -1.950000 0.000000 -9.500000
v -1.950000 2.200000 -9.500000
v -1.950000 0.000000 -10.500000
v -1.950000 2.200000 -10.500000
v -2.025000 0.000000 -9.350000
v -2.025000 2.400000 -9.350000
v -2.025000 0.000000 -10.650000
v -2.025000 2.400000 -10.650000
v -1.975000 0.000000 -9.350000
v -1.975000 2.400000 -9.350000
v -1.975000 0.000000 -10.650000
v -1.975000 2.400000 -10.650000
v -1.950000 0.800000 -9.675000
v -1.950000 1.300000 -9.675000
v -1.950000 0.800000 -9.724999
v -1.950000 1.300000 -9.724999
v -1.910000 0.800000 -9.675000
v -1.910000 1.300000 -9.675000
v -1.910000 0.800000 -9.724999
v -1.910000 1.300000 -9.724999
v -0.500000 0.000000 -13.950000
v -0.500000 2.200000 -13.950000
v -0.500000 0.000000 -14.009999
v -0.500000 2.200000 -14.009999
v 0.500000 0.000000 -13.950000
v 0.500000 2.200000 -13.950000
v 0.500000 0.000000 -14.009999
v 0.500000 2.200000 -14.009999
v -0.650000 0.000000 -13.975000
v -0.650000 2.400000 -13.975000
v -0.650000 0.000000 -14.025000
v -0.650000 2.400000 -14.025000
v 0.650000 0.000000 -13.975000
v 0.650000 2.400000 -13.975000
v 0.650000 0.000000 -14.025000
v 0.650000 2.400000 -14.025000
v 0.275000 0.800000 -13.910000
v 0.275000 1.300000 -13.910000
v 0.275000 0.800000 -13.950001
v 0.275000 1.300000 -13.950001
v 0.325000 0.800000 -13.910000
v 0.325000 1.300000 -13.910000
v 0.325000 0.800000 -13.950001
v 0.325000 1.300000 -13.950001
v -0.200000 3.320000 -1.550000
v -0.200000 3.380000 -1.550000
v -0.200000 3.320000 -1.950000
v -0.200000 3.380000 -1.950000
v 0.200000 3.320000 -1.550000
v 0.200000 3.380000 -1.550000
v 0.200000 3.320000 -1.950000
v 0.200000 3.380000 -1.950000
v -0.200000 3.320000 -5.050000
v -0.200000 3.380000 -5.050000
v -0.200000 3.320000 -5.450000
v -0.200000 3.380000 -5.450000
v 0.200000 3.320000 -5.050000
v 0.200000 3.380000 -5.050000
v 0.200000 3.320000 -5.450000
v 0.200000 3.380000 -5.450000
v -0.200000 3.320000 -8.550000
v -0.200000 3.380000 -8.550000
v -0.200000 3.320000 -8.950000
v -0.200000 3.380000 -8.950000
v 0.200000 3.320000 -8.550000
v 0.200000 3.380000 -8.550000
v 0.200000 3.320000 -8.950000
v 0.200000 3.380000 -8.950000
v -0.200000 3.320000 -12.050000
v -0.200000 3.380000 -12.050000
v -0.200000 3.320000 -12.450000
v -0.200000 3.380000 -12.450000
v 0.200000 3.320000 -12.050000
v 0.200000 3.380000 -12.050000
v 0.200000 3.320000 -12.450000
v 0.200000 3.380000 -12.450000
v -1.985000 2.370000 -3.900000
v -1.985000 2.430000 -3.900000
v -1.985000 2.370000 -4.500000
v -1.985000 2.430000 -4.500000
v -1.955000 2.370000 -3.900000
v -1.955000 2.430000 -3.900000
v -1.955000 2.370000 -4.500000
v -1.955000 2.430000 -4.500000
v -1.985000 2.370000 -9.500000
v -1.985000 2.430000 -9.500000
v -1.985000 2.370000 -10.100000
v -1.985000 2.430000 -10.100000
v -1.955000 2.370000 -9.500000
v -1.955000 2.430000 -9.500000
v -1.955000 2.370000 -10.100000
v -1.955000 2.430000 -10.100000
v 1.955000 2.370000 -3.900000
v 1.955000 2.430000 -3.900000
v 1.955000 2.370000 -4.500000
v 1.955000 2.430000 -4.500000
v 1.985000 2.370000 -3.900000
v 1.985000 2.430000 -3.900000
v 1.985000 2.370000 -4.500000
v 1.985000 2.430000 -4.500000
v 1.955000 2.370000 -9.500000
v 1.955000 2.430000 -9.500000
v 1.955000 2.370000 -10.100000
v 1.955000 2.430000 -10.100000
v 1.985000 2.370000 -9.500000
v 1.985000 2.430000 -9.500000
v 1.985000 2.370000 -10.100000
v 1.985000 2.430000 -10.100000
v 1.850000 3.050000 -14.000000
v 1.850000 3.050000 0.000000
v 1.885355 3.035356 -14.000000
v 1.885355 3.035355 0.000000
v 1.900000 3.000000 -14.000000
v 1.900000 3.000000 0.000000
v 1.885355 2.964645 -14.000000
v 1.885355 2.964644 0.000000
v 1.850000 2.950000 -14.000000
v 1.850000 2.950000 0.000000
v 1.814645 2.964645 -14.000000
v 1.814645 2.964644 0.000000
v 1.800000 3.000000 -14.000000
v 1.800000 3.000000 0.000000
v 1.814645 3.035356 -14.000000
v 1.814645 3.035355 0.000000
v -1.850000 0.000000 -2.500000
v -1.850000 0.600000 -2.500000
v -1.850000 0.000000 -3.100000
v -1.850000 0.600000 -3.100000
v -1.250000 0.000000 -2.500000
v -1.250000 0.600000 -2.500000
v -1.250000 0.000000 -3.100000
v -1.250000 0.600000 -3.100000
vn -1.0000 -0.0000 -0.0000
vn -0.0000 -0.0000 -1.0000
vn 1.0000 -0.0000 -0.0000
vn -0.0000 -0.0000 1.0000
vn -0.0000 -1.0000 -0.0000
vn -0.0000 1.0000 -0.0000
vn 0.3827 0.9239 -0.0000
vn 0.9239 0.3827 -0.0000
vn 0.9239 -0.3827 -0.0000
vn 0.3827 -0.9239 -0.0000
vn -0.3827 -0.9239 -0.0000
vn -0.9239 -0.3827 -0.0000
vn -0.9239 0.3827 -0.0000
vn -0.3827 0.9239 -0.0000
vt 0.939453 0.632812
vt 0.942383 0.001953
vt 0.942383 0.632812
vt 0.748047 0.800781
vt 0.750977 0.636719
vt 0.750977 0.800781
vt 0.947266 0.632812
vt 0.950195 0.001953
vt 0.950195 0.632812
vt 0.754883 0.800781
vt 0.757812 0.636719
vt 0.757812 0.800781
vt 0.001953 0.632812
vt 0.166016 0.001953
vt 0.166016 0.632812
vt 0.170898 0.632812
vt 0.334961 0.001953
vt 0.334961 0.632812
vt 0.699219 0.636719
vt 0.708984 0.757812
vt 0.699219 0.757812
vt 0.001953 0.800781
vt 0.123047 0.636719
vt 0.123047 0.800781
vt 0.713867 0.636719
vt 0.723633 0.757812
vt 0.713867 0.757812
vt 0.127930 0.800781
vt 0.249023 0.636719
vt 0.249023 0.800781
vt 0.622070 0.800781
vt 0.612305 0.636719
vt 0.622070 0.636719
vt 0.636719 0.800781
vt 0.626953 0.636719
vt 0.636719 0.636719
vt 0.339844 0.632812
vt 0.460938 0.001953
vt 0.460938 0.632812
vt 0.641602 0.636719
vt 0.651367 0.757812
vt 0.641602 0.757812
vt 0.464844 0.632812
vt 0.585938 0.001953
vt 0.585938 0.632812
vt 0.656250 0.636719
vt 0.666016 0.757812
vt 0.656250 0.757812
vt 0.841797 0.632812
vt 0.851562 0.001953
vt 0.851562 0.632812
vt 0.856445 0.632812
vt 0.866211 0.001953
vt 0.866211 0.632812
vt 0.590820 0.632812
vt 0.711914 0.001953
vt 0.711914 0.632812
vt 0.669922 0.636719
vt 0.679688 0.757812
vt 0.669922 0.757812
vt 0.715820 0.632812
vt 0.836914 0.001953
vt 0.836914 0.632812
vt 0.684570 0.636719
vt 0.694336 0.757812
vt 0.684570 0.757812
vt 0.871094 0.632812
vt 0.880859 0.001953
vt 0.880859 0.632812
vt 0.884766 0.632812
vt 0.894531 0.001953
vt 0.894531 0.632812
vt 0.536133 0.745117
vt 0.537109 0.750000
vt 0.536133 0.750000
vt 0.727539 0.779297
vt 0.733398 0.636719
vt 0.733398 0.779297
vt 0.541992 0.745117
vt 0.542969 0.750000
vt 0.541992 0.750000
vt 0.738281 0.779297
vt 0.743164 0.636719
vt 0.743164 0.779297
vt 0.763672 0.779297
vt 0.762695 0.636719
vt 0.763672 0.636719
vt 0.769531 0.779297
vt 0.768555 0.636719
vt 0.769531 0.636719
vt 0.899414 0.502930
vt 0.905273 0.001953
vt 0.905273 0.502930
vt 0.524414 0.745117
vt 0.525391 0.750000
vt 0.524414 0.750000
vt 0.909180 0.502930
vt 0.915039 0.001953
vt 0.915039 0.502930
vt 0.979492 0.001953
vt 0.980469 0.008789
vt 0.979492 0.008789
vt 0.979492 0.509766
vt 0.980469 0.509766
vt 0.990234 0.502930
vt 0.992188 0.001953
vt 0.992188 0.502930
vt 0.919922 0.502930
vt 0.924805 0.001953
vt 0.924805 0.502930
vt 0.530273 0.745117
vt 0.531250 0.750000
vt 0.530273 0.750000
vt 0.929688 0.502930
vt 0.935547 0.001953
vt 0.935547 0.502930
vt 0.985352 0.001953
vt 0.986328 0.008789
vt 0.985352 0.008789
vt 0.985352 0.509766
vt 0.986328 0.509766
vt 0.996094 0.502930
vt 0.998047 0.001953
vt 0.998047 0.502930
vt 0.454102 0.636719
vt 0.489258 0.714844
vt 0.454102 0.714844
vt 0.795898 0.636719
vt 0.796875 0.714844
vt 0.795898 0.714844
vt 0.494141 0.636719
vt 0.529297 0.714844
vt 0.494141 0.714844
vt 0.605469 0.719727
vt 0.606445 0.797852
vt 0.605469 0.797852
vt 0.418945 0.761719
vt 0.419922 0.726562
vt 0.419922 0.761719
vt 0.424805 0.761719
vt 0.425781 0.726562
vt 0.425781 0.761719
vt 0.354492 0.636719
vt 0.399414 0.722656
vt 0.354492 0.722656
vt 0.774414 0.636719
vt 0.775391 0.722656
vt 0.774414 0.722656
vt 0.404297 0.636719
vt 0.450195 0.722656
vt 0.404297 0.722656
vt 0.779297 0.636719
vt 0.780273 0.722656
vt 0.779297 0.722656
vt 0.397461 0.772461
vt 0.398438 0.726562
vt 0.398438 0.772461
vt 0.402372 0.772988
vt 0.404165 0.726367
vt 0.404165 0.772988
vt 0.337891 0.745117
vt 0.338867 0.761719
vt 0.337891 0.761719
vt 0.358697 0.744360
vt 0.360131 0.762291
vt 0.358697 0.762291
vt 0.343750 0.745117
vt 0.344727 0.761719
vt 0.343750 0.761719
vt 0.363780 0.744360
vt 0.365214 0.762291
vt 0.363780 0.762291
vt 0.572266 0.746094
vt 0.573242 0.745117
vt 0.573242 0.746094
vt 0.577148 0.746094
vt 0.578125 0.745117
vt 0.578125 0.746094
vt 0.795898 0.719727
vt 0.796875 0.797852
vt 0.795898 0.797852
vt 0.533203 0.636719
vt 0.568359 0.714844
vt 0.533203 0.714844
vt 0.801758 0.636719
vt 0.802734 0.714844
vt 0.801758 0.714844
vt 0.573242 0.636719
vt 0.608398 0.714844
vt 0.573242 0.714844
vt 0.431641 0.761719
vt 0.430664 0.726562
vt 0.431641 0.726562
vt 0.437500 0.761719
vt 0.436523 0.726562
vt 0.437500 0.726562
vt 0.785156 0.636719
vt 0.786133 0.722656
vt 0.785156 0.722656
vt 0.253906 0.636719
vt 0.298828 0.722656
vt 0.253906 0.722656
vt 0.790039 0.636719
vt 0.791016 0.722656
vt 0.790039 0.722656
vt 0.303711 0.636719
vt 0.349609 0.722656
vt 0.303711 0.722656
vt 0.409180 0.772461
vt 0.408203 0.726562
vt 0.409180 0.726562
vt 0.415039 0.772461
vt 0.414062 0.726562
vt 0.415039 0.726562
vt 0.348633 0.745117
vt 0.349609 0.761719
vt 0.348633 0.761719
vt 0.327148 0.745117
vt 0.328125 0.761719
vt 0.327148 0.761719
vt 0.353614 0.744360
vt 0.355048 0.762291
vt 0.353614 0.762291
vt 0.333008 0.745117
vt 0.333984 0.761719
vt 0.333008 0.761719
vt 0.563121 0.746153
vt 0.561686 0.744360
vt 0.563121 0.744360
vt 0.568204 0.746153
vt 0.566769 0.744360
vt 0.568204 0.744360
vt 0.369141 0.757812
vt 0.370117 0.745117
vt 0.370117 0.757812
vt 0.380859 0.757812
vt 0.381836 0.745117
vt 0.381836 0.757812
vt 0.375000 0.757812
vt 0.375977 0.745117
vt 0.375977 0.757812
vt 0.386719 0.757812
vt 0.387695 0.745117
vt 0.387695 0.757812
vt 0.253906 0.740234
vt 0.266602 0.726562
vt 0.266602 0.740234
vt 0.271484 0.740234
vt 0.285156 0.726562
vt 0.285156 0.740234
vt 0.489258 0.757812
vt 0.490234 0.745117
vt 0.490234 0.757812
vt 0.454102 0.757812
vt 0.456055 0.745117
vt 0.456055 0.757812
vt 0.495117 0.757812
vt 0.496094 0.745117
vt 0.496094 0.757812
vt 0.459961 0.757812
vt 0.461914 0.745117
vt 0.461914 0.757812
vt 0.302734 0.740234
vt 0.289062 0.726562
vt 0.302734 0.726562
vt 0.321289 0.740234
vt 0.307617 0.726562
vt 0.321289 0.726562
vt 0.500977 0.757812
vt 0.501953 0.745117
vt 0.501953 0.757812
vt 0.465820 0.757812
vt 0.467773 0.745117
vt 0.467773 0.757812
vt 0.506836 0.757812
vt 0.507812 0.745117
vt 0.507812 0.757812
vt 0.471680 0.757812
vt 0.472656 0.745117
vt 0.472656 0.757812
vt 0.338867 0.740234
vt 0.325195 0.726562
vt 0.338867 0.726562
vt 0.356445 0.740234
vt 0.343750 0.726562
vt 0.356445 0.726562
vt 0.512695 0.757812
vt 0.513672 0.745117
vt 0.513672 0.757812
vt 0.477539 0.757812
vt 0.478516 0.745117
vt 0.478516 0.757812
vt 0.518555 0.757812
vt 0.519531 0.745117
vt 0.519531 0.757812
vt 0.483398 0.757812
vt 0.484375 0.745117
vt 0.484375 0.757812
vt 0.375000 0.740234
vt 0.361328 0.726562
vt 0.375000 0.726562
vt 0.392578 0.740234
vt 0.379883 0.726562
vt 0.392578 0.726562
vt 0.276367 0.765625
vt 0.278320 0.745117
vt 0.278320 0.765625
vt 0.392063 0.744360
vt 0.393139 0.746512
vt 0.392063 0.746512
vt 0.442383 0.747070
vt 0.443359 0.726562
vt 0.443359 0.747070
vt 0.582031 0.745117
vt 0.583008 0.746094
vt 0.582031 0.746094
vt 0.307868 0.765877
vt 0.308944 0.744360
vt 0.308944 0.765877
vt 0.312592 0.765877
vt 0.313668 0.744360
vt 0.313668 0.765877
vt 0.448242 0.747070
vt 0.449219 0.726562
vt 0.449219 0.747070
vt 0.586742 0.744360
vt 0.587818 0.746512
vt 0.586742 0.746512
vt 0.253906 0.765625
vt 0.254883 0.745117
vt 0.254883 0.765625
vt 0.591466 0.744360
vt 0.592542 0.746512
vt 0.591466 0.746512
vt 0.289062 0.765625
vt 0.290039 0.745117
vt 0.290039 0.765625
vt 0.293695 0.765877
vt 0.294771 0.744360
vt 0.294771 0.765877
vt 0.282227 0.765625
vt 0.283203 0.745117
vt 0.283203 0.765625
vt 0.596191 0.744360
vt 0.597267 0.746512
vt 0.596191 0.746512
vt 0.258789 0.765625
vt 0.260742 0.745117
vt 0.260742 0.765625
vt 0.561686 0.749802
vt 0.562762 0.751953
vt 0.561686 0.751953
vt 0.317383 0.765625
vt 0.318359 0.745117
vt 0.318359 0.765625
vt 0.322041 0.765877
vt 0.323117 0.744360
vt 0.323117 0.765877
vt 0.264648 0.765625
vt 0.266602 0.745117
vt 0.266602 0.765625
vt 0.566411 0.749802
vt 0.567487 0.751953
vt 0.566411 0.751953
vt 0.270508 0.765625
vt 0.272461 0.745117
vt 0.272461 0.765625
vt 0.571135 0.749802
vt 0.572211 0.751953
vt 0.571135 0.751953
vt 0.298420 0.765877
vt 0.299496 0.744360
vt 0.299496 0.765877
vt 0.303144 0.765877
vt 0.304220 0.744360
vt 0.304220 0.765877
vt 0.967773 0.001953
vt 0.968750 0.502930
vt 0.967773 0.502930
vt 0.956423 0.503896
vt 0.955155 0.001824
vt 0.956423 0.001824
vt 0.955155 0.503896
vt 0.953887 0.001824
vt 0.972440 0.001824
vt 0.973708 0.503896
vt 0.972440 0.503896
vt 0.973708 0.001824
vt 0.974976 0.503896
vt 0.960071 0.001824
vt 0.961339 0.503896
vt 0.960071 0.503896
vt 0.549302 0.747673
vt 0.546959 0.746703
vt 0.547930 0.744360
vt 0.961339 0.001824
vt 0.962607 0.503896
vt 0.966797 0.001953
vt 0.966797 0.502930
vt 0.555695 0.747673
vt 0.554725 0.745330
vt 0.557068 0.744360
vt 0.504883 0.719727
vt 0.525391 0.740234
vt 0.504883 0.740234
vt 0.530273 0.719727
vt 0.550781 0.740234
vt 0.530273 0.740234
vt 0.555664 0.719727
vt 0.576172 0.740234
vt 0.555664 0.740234
vt 0.580078 0.719727
vt 0.600586 0.740234
vt 0.580078 0.740234
vt 0.474609 0.740234
vt 0.454102 0.719727
vt 0.474609 0.719727
vt 0.500000 0.740234
vt 0.479492 0.719727
vt 0.500000 0.719727
vt 0.939453 0.001953
vt 0.748047 0.636719
vt 0.947266 0.001953
vt 0.754883 0.636719
vt 0.001953 0.001953
vt 0.170898 0.001953
vt 0.708984 0.636719
vt 0.001953 0.636719
vt 0.723633 0.636719
vt 0.127930 0.636719
vt 0.612305 0.800781
vt 0.626953 0.800781
vt 0.339844 0.001953
vt 0.651367 0.636719
vt 0.464844 0.001953
vt 0.666016 0.636719
vt 0.841797 0.001953
vt 0.856445 0.001953
vt 0.590820 0.001953
vt 0.679688 0.636719
vt 0.715820 0.001953
vt 0.694336 0.636719
vt 0.871094 0.001953
vt 0.884766 0.001953
vt 0.537109 0.745117
vt 0.727539 0.636719
vt 0.542969 0.745117
vt 0.738281 0.636719
vt 0.762695 0.779297
vt 0.768555 0.779297
vt 0.899414 0.001953
vt 0.525391 0.745117
vt 0.909180 0.001953
vt 0.980469 0.001953
vt 0.990234 0.001953
vt 0.919922 0.001953
vt 0.531250 0.745117
vt 0.929688 0.001953
vt 0.986328 0.001953
vt 0.996094 0.001953
vt 0.489258 0.636719
vt 0.796875 0.636719
vt 0.529297 0.636719
vt 0.606445 0.719727
vt 0.418945 0.726562
vt 0.424805 0.726562
vt 0.399414 0.636719
vt 0.775391 0.636719
vt 0.450195 0.636719
vt 0.780273 0.636719
vt 0.397461 0.726562
vt 0.402372 0.726367
vt 0.338867 0.745117
vt 0.360131 0.744360
vt 0.344727 0.745117
vt 0.365214 0.744360
vt 0.572266 0.745117
vt 0.577148 0.745117
vt 0.796875 0.719727
vt 0.568359 0.636719
vt 0.802734 0.636719
vt 0.608398 0.636719
vt 0.430664 0.761719
vt 0.436523 0.761719
vt 0.786133 0.636719
vt 0.298828 0.636719
vt 0.791016 0.636719
vt 0.349609 0.636719
vt 0.408203 0.772461
vt 0.414062 0.772461
vt 0.349609 0.745117
vt 0.328125 0.745117
vt 0.355048 0.744360
vt 0.333984 0.745117
vt 0.561686 0.746153
vt 0.566769 0.746153
vt 0.369141 0.745117
vt 0.380859 0.745117
vt 0.375000 0.745117
vt 0.386719 0.745117
vt 0.253906 0.726562
vt 0.271484 0.726562
vt 0.489258 0.745117
vt 0.454102 0.745117
vt 0.495117 0.745117
vt 0.459961 0.745117
vt 0.289062 0.740234
vt 0.307617 0.740234
vt 0.500977 0.745117
vt 0.465820 0.745117
vt 0.506836 0.745117
vt 0.471680 0.745117
vt 0.325195 0.740234
vt 0.343750 0.740234
vt 0.512695 0.745117
vt 0.477539 0.745117
vt 0.518555 0.745117
vt 0.483398 0.745117
vt 0.361328 0.740234
vt 0.379883 0.740234
vt 0.276367 0.745117
vt 0.393139 0.744360
vt 0.442383 0.726562
vt 0.583008 0.745117
vt 0.307868 0.744360
vt 0.312592 0.744360
vt 0.448242 0.726562
vt 0.587818 0.744360
vt 0.253906 0.745117
vt 0.592542 0.744360
vt 0.289062 0.745117
vt 0.293695 0.744360
vt 0.282227 0.745117
vt 0.597267 0.744360
vt 0.258789 0.745117
vt 0.562762 0.749802
vt 0.317383 0.745117
vt 0.322041 0.744360
vt 0.264648 0.745117
vt 0.567487 0.749802
vt 0.270508 0.745117
vt 0.572211 0.749802
vt 0.298420 0.744360
vt 0.303144 0.744360
vt 0.968750 0.001953
vt 0.953887 0.503896
vt 0.974976 0.001824
vt 0.549302 0.744360
vt 0.550273 0.745331
vt 0.550273 0.746703
vt 0.547930 0.747673
vt 0.546959 0.745331
vt 0.962607 0.001824
vt 0.558038 0.745330
vt 0.558038 0.746703
vt 0.557068 0.747673
vt 0.554725 0.746703
vt 0.555695 0.744360
vt 0.525391 0.719727
vt 0.550781 0.719727
vt 0.576172 0.719727
vt 0.600586 0.719727
vt 0.454102 0.740234
vt 0.479492 0.740234
s 0
g pe_corridor_a_render_EnvironmentBakedAtlas
usemtl EnvironmentBakedAtlas
f 2/1/1 3/2/1 1/3/1
f 4/4/2 7/5/2 3/6/2
f 8/7/3 5/8/3 7/9/3
f 6/10/4 1/11/4 5/12/4
f 7/13/5 1/14/5 3/15/5
f 4/16/6 6/17/6 8/18/6
f 10/19/1 11/20/1 9/21/1
f 12/22/2 15/23/2 11/24/2
f 16/25/3 13/26/3 15/27/3
f 14/28/4 9/29/4 13/30/4
f 15/31/5 9/32/5 11/33/5
f 12/34/6 14/35/6 16/36/6
f 18/37/1 19/38/1 17/39/1
f 20/40/2 23/41/2 19/42/2
f 24/43/3 21/44/3 23/45/3
f 22/46/4 17/47/4 21/48/4
f 23/49/5 17/50/5 19/51/5
f 20/52/6 22/53/6 24/54/6
f 26/55/1 27/56/1 25/57/1
f 28/58/2 31/59/2 27/60/2
f 32/61/3 29/62/3 31/63/3
f 30/64/4 25/65/4 29/66/4
f 31/67/5 25/68/5 27/69/5
f 28/70/6 30/71/6 32/72/6
f 34/73/1 35/74/1 33/75/1
f 36/76/2 39/77/2 35/78/2
f 40/79/3 37/80/3 39/81/3
f 38/82/4 33/83/4 37/84/4
f 39/85/5 33/86/5 35/87/5
f 36/88/6 38/89/6 40/90/6
f 42/91/1 43/92/1 41/93/1
f 44/94/2 47/95/2 43/96/2
f 48/97/3 45/98/3 47/99/3
f 46/100/4 41/101/4 45/102/4
f 47/103/5 41/101/5 43/104/5
f 44/105/6 46/106/6 48/107/6
f 50/108/1 51/109/1 49/110/1
f 52/111/2 55/112/2 51/113/2
f 56/114/3 53/115/3 55/116/3
f 54/117/4 49/118/4 53/119/4
f 55/120/5 49/118/5 51/121/5
f 52/122/6 54/123/6 56/124/6
f 58/125/1 59/126/1 57/127/1
f 60/128/2 63/129/2 59/130/2
f 64/131/3 61/132/3 63/133/3
f 62/134/4 57/135/4 61/136/4
f 63/137/5 57/138/5 59/139/5
f 60/140/6 62/141/6 64/142/6
f 66/143/1 67/144/1 65/145/1
f 68/146/2 71/147/2 67/148/2
f 72/149/3 69/150/3 71/151/3
f 70/152/4 65/153/4 69/154/4
f 71/155/5 65/156/5 67/157/5
f 68/158/6 70/159/6 72/160/6
f 74/161/1 75/162/1 73/163/1
f 76/164/2 79/165/2 75/166/2
f 80/167/3 77/168/3 79/169/3
f 78/170/4 73/171/4 77/172/4
f 79/173/5 73/174/5 75/175/5
f 76/176/6 78/177/6 80/178/6
f 82/179/1 83/180/1 81/181/1
f 84/182/2 87/183/2 83/184/2
f 88/185/3 85/186/3 87/187/3
f 86/188/4 81/189/4 85/190/4
f 87/191/5 81/192/5 83/193/5
f 84/194/6 86/195/6 88/196/6
f 90/197/1 91/198/1 89/199/1
f 92/200/2 95/201/2 91/202/2
f 96/203/3 93/204/3 95/205/3
f 94/206/4 89/207/4 93/208/4
f 95/209/5 89/210/5 91/211/5
f 92/212/6 94/213/6 96/214/6
f 98/215/1 99/216/1 97/217/1
f 100/218/2 103/219/2 99/220/2
f 104/221/3 101/222/3 103/223/3
f 102/224/4 97/225/4 101/226/4
f 103/227/5 97/228/5 99/229/5
f 100/230/6 102/231/6 104/232/6
f 106/233/1 107/234/1 105/235/1
f 108/236/2 111/237/2 107/238/2
f 112/239/3 109/240/3 111/241/3
f 110/242/4 105/243/4 109/244/4
f 111/245/5 105/246/5 107/247/5
f 108/248/6 110/249/6 112/250/6
f 114/251/1 115/252/1 113/253/1
f 116/254/2 119/255/2 115/256/2
f 120/257/3 117/258/3 119/259/3
f 118/260/4 113/261/4 117/262/4
f 119/263/5 113/264/5 115/265/5
f 116/266/6 118/267/6 120/268/6
f 122/269/1 123/270/1 121/271/1
f 124/272/2 127/273/2 123/274/2
f 128/275/3 125/276/3 127/277/3
f 126/278/4 121/279/4 125/280/4
f 127/281/5 121/282/5 123/283/5
f 124/284/6 126/285/6 128/286/6
f 130/287/1 131/288/1 129/289/1
f 132/290/2 135/291/2 131/292/2
f 136/293/3 133/294/3 135/295/3
f 134/296/4 129/297/4 133/298/4
f 135/299/5 129/300/5 131/301/5
f 132/302/6 134/303/6 136/304/6
f 138/305/1 139/306/1 137/307/1
f 140/308/2 143/309/2 139/310/2
f 144/311/3 141/312/3 143/313/3
f 142/314/4 137/315/4 141/316/4
f 143/317/5 137/318/5 139/319/5
f 140/320/6 142/321/6 144/322/6
f 146/323/1 147/324/1 145/325/1
f 148/326/2 151/327/2 147/328/2
f 152/329/3 149/330/3 151/331/3
f 150/332/4 145/333/4 149/334/4
f 151/335/5 145/336/5 147/337/5
f 148/338/6 150/339/6 152/340/6
f 154/341/1 155/342/1 153/343/1
f 156/344/2 159/345/2 155/346/2
f 160/347/3 157/348/3 159/349/3
f 158/350/4 153/351/4 157/352/4
f 159/353/5 153/354/5 155/355/5
f 156/356/6 158/357/6 160/358/6
f 162/359/1 163/360/1 161/361/1
f 164/362/2 167/363/2 163/364/2
f 168/365/3 165/366/3 167/367/3
f 166/368/4 161/369/4 165/370/4
f 167/371/5 161/372/5 163/373/5
f 164/374/6 166/375/6 168/376/6
f 170/377/7 171/378/7 169/379/7
f 172/380/8 173/381/8 171/382/8
f 174/383/9 175/384/9 173/381/9
f 176/385/10 177/386/10 175/387/10
f 178/388/11 179/389/11 177/386/11
f 180/390/12 181/391/12 179/392/12
f 182/393/4 178/394/4 174/395/4
f 182/396/13 183/397/13 181/391/13
f 184/398/14 169/379/14 183/399/14
f 175/400/2 179/401/2 183/402/2
f 186/403/1 187/404/1 185/405/1
f 188/406/2 191/407/2 187/408/2
f 192/409/3 189/410/3 191/411/3
f 190/412/4 185/413/4 189/414/4
f 191/415/5 185/416/5 187/417/5
f 188/418/6 190/419/6 192/420/6
f 2/1/1 4/421/1 3/2/1
f 4/4/2 8/422/2 7/5/2
f 8/7/3 6/423/3 5/8/3
f 6/10/4 2/424/4 1/11/4
f 7/13/5 5/425/5 1/14/5
f 4/16/6 2/426/6 6/17/6
f 10/19/1 12/427/1 11/20/1
f 12/22/2 16/428/2 15/23/2
f 16/25/3 14/429/3 13/26/3
f 14/28/4 10/430/4 9/29/4
f 15/31/5 13/431/5 9/32/5
f 12/34/6 10/432/6 14/35/6
f 18/37/1 20/433/1 19/38/1
f 20/40/2 24/434/2 23/41/2
f 24/43/3 22/435/3 21/44/3
f 22/46/4 18/436/4 17/47/4
f 23/49/5 21/437/5 17/50/5
f 20/52/6 18/438/6 22/53/6
f 26/55/1 28/439/1 27/56/1
f 28/58/2 32/440/2 31/59/2
f 32/61/3 30/441/3 29/62/3
f 30/64/4 26/442/4 25/65/4
f 31/67/5 29/443/5 25/68/5
f 28/70/6 26/444/6 30/71/6
f 34/73/1 36/445/1 35/74/1
f 36/76/2 40/446/2 39/77/2
f 40/79/3 38/447/3 37/80/3
f 38/82/4 34/448/4 33/83/4
f 39/85/5 37/449/5 33/86/5
f 36/88/6 34/450/6 38/89/6
f 42/91/1 44/451/1 43/92/1
f 44/94/2 48/452/2 47/95/2
f 48/97/3 46/453/3 45/98/3
f 46/100/4 42/454/4 41/101/4
f 47/103/5 45/102/5 41/101/5
f 44/105/6 42/455/6 46/106/6
f 50/108/1 52/456/1 51/109/1
f 52/111/2 56/457/2 55/112/2
f 56/114/3 54/458/3 53/115/3
f 54/117/4 50/459/4 49/118/4
f 55/120/5 53/119/5 49/118/5
f 52/122/6 50/460/6 54/123/6
f 58/125/1 60/461/1 59/126/1
f 60/128/2 64/462/2 63/129/2
f 64/131/3 62/463/3 61/132/3
f 62/134/4 58/464/4 57/135/4
f 63/137/5 61/465/5 57/138/5
f 60/140/6 58/466/6 62/141/6
f 66/143/1 68/467/1 67/144/1
f 68/146/2 72/468/2 71/147/2
f 72/149/3 70/469/3 69/150/3
f 70/152/4 66/470/4 65/153/4
f 71/155/5 69/471/5 65/156/5
f 68/158/6 66/472/6 70/159/6
f 74/161/1 76/473/1 75/162/1
f 76/164/2 80/474/2 79/165/2
f 80/167/3 78/475/3 77/168/3
f 78/170/4 74/476/4 73/171/4
f 79/173/5 77/477/5 73/174/5
f 76/176/6 74/478/6 78/177/6
f 82/179/1 84/479/1 83/180/1
f 84/182/2 88/480/2 87/183/2
f 88/185/3 86/481/3 85/186/3
f 86/188/4 82/482/4 81/189/4
f 87/191/5 85/483/5 81/192/5
f 84/194/6 82/484/6 86/195/6
f 90/197/1 92/485/1 91/198/1
f 92/200/2 96/486/2 95/201/2
f 96/203/3 94/487/3 93/204/3
f 94/206/4 90/488/4 89/207/4
f 95/209/5 93/489/5 89/210/5
f 92/212/6 90/490/6 94/213/6
f 98/215/1 100/491/1 99/216/1
f 100/218/2 104/492/2 103/219/2
f 104/221/3 102/493/3 101/222/3
f 102/224/4 98/494/4 97/225/4
f 103/227/5 101/495/5 97/228/5
f 100/230/6 98/496/6 102/231/6
f 106/233/1 108/497/1 107/234/1
f 108/236/2 112/498/2 111/237/2
f 112/239/3 110/499/3 109/240/3
f 110/242/4 106/500/4 105/243/4
f 111/245/5 109/501/5 105/246/5
f 108/248/6 106/502/6 110/249/6
f 114/251/1 116/503/1 115/252/1
f 116/254/2 120/504/2 119/255/2
f 120/257/3 118/505/3 117/258/3
f 118/260/4 114/506/4 113/261/4
f 119/263/5 117/507/5 113/264/5
f 116/266/6 114/508/6 118/267/6
f 122/269/1 124/509/1 123/270/1
f 124/272/2 128/510/2 127/273/2
f 128/275/3 126/511/3 125/276/3
f 126/278/4 122/512/4 121/279/4
f 127/281/5 125/513/5 121/282/5
f 124/284/6 122/514/6 126/285/6
f 130/287/1 132/515/1 131/288/1
f 132/290/2 136/516/2 135/291/2
f 136/293/3 134/517/3 133/294/3
f 134/296/4 130/518/4 129/297/4
f 135/299/5 133/519/5 129/300/5
f 132/302/6 130/520/6 134/303/6
f 138/305/1 140/521/1 139/306/1
f 140/308/2 144/522/2 143/309/2
f 144/311/3 142/523/3 141/312/3
f 142/314/4 138/524/4 137/315/4
f 143/317/5 141/525/5 137/318/5
f 140/320/6 138/526/6 142/321/6
f 146/323/1 148/527/1 147/324/1
f 148/326/2 152/528/2 151/327/2
f 152/329/3 150/529/3 149/330/3
f 150/332/4 146/530/4 145/333/4
f 151/335/5 149/531/5 145/336/5
f 148/338/6 146/532/6 150/339/6
f 154/341/1 156/533/1 155/342/1
f 156/344/2 160/534/2 159/345/2
f 160/347/3 158/535/3 157/348/3
f 158/350/4 154/536/4 153/351/4
f 159/353/5 157/537/5 153/354/5
f 156/356/6 154/538/6 158/357/6
f 162/359/1 164/539/1 163/360/1
f 164/362/2 168/540/2 167/363/2
f 168/365/3 166/541/3 165/366/3
f 166/368/4 162/542/4 161/369/4
f 167/371/5 165/543/5 161/372/5
f 164/374/6 162/544/6 166/375/6
f 170/377/7 172/545/7 171/378/7
f 172/380/8 174/383/8 173/381/8
f 174/383/9 176/546/9 175/384/9
f 176/385/10 178/388/10 177/386/10
f 178/388/11 180/547/11 179/389/11
f 180/390/12 182/396/12 181/391/12
f 174/395/4 172/548/4 170/549/4
f 170/549/4 184/550/4 182/393/4
f 182/393/4 180/551/4 178/394/4
f 178/394/4 176/552/4 174/395/4
f 174/395/4 170/549/4 182/393/4
f 182/396/13 184/553/13 183/397/13
f 184/398/14 170/377/14 169/379/14
f 183/402/2 169/554/2 171/555/2
f 171/555/2 173/556/2 175/400/2
f 175/400/2 177/557/2 179/401/2
f 179/401/2 181/558/2 183/402/2
f 183/402/2 171/555/2 175/400/2
f 186/403/1 188/559/1 187/404/1
f 188/406/2 192/560/2 191/407/2
f 192/409/3 190/561/3 189/410/3
f 190/412/4 186/562/4 185/413/4
f 191/415/5 189/563/5 185/416/5
f 188/418/6 186/564/6 190/419/6
