# Generated by tools/asset-gen/build_first_stratum_props.py
mtllib wall_sconce.mtl
o wall_sconce

v -0.060000 0.400000 0.430000
v 0.060000 0.400000 0.430000
v 0.060000 0.640000 0.430000
v -0.060000 0.640000 0.430000
v 0.060000 0.400000 0.470000
v -0.060000 0.400000 0.470000
v -0.060000 0.640000 0.470000
v 0.060000 0.640000 0.470000
v 0.060000 0.400000 0.430000
v 0.060000 0.400000 0.470000
v 0.060000 0.640000 0.470000
v 0.060000 0.640000 0.430000
v -0.060000 0.400000 0.470000
v -0.060000 0.400000 0.430000
v -0.060000 0.640000 0.430000
v -0.060000 0.640000 0.470000
v -0.060000 0.640000 0.470000
v 0.060000 0.640000 0.470000
v 0.060000 0.640000 0.430000
v -0.060000 0.640000 0.430000
v -0.060000 0.400000 0.430000
v 0.060000 0.400000 0.430000
v 0.060000 0.400000 0.470000
v -0.060000 0.400000 0.470000
v -0.020000 0.400000 0.320000
v 0.020000 0.400000 0.320000
v 0.020000 0.440000 0.320000
v -0.020000 0.440000 0.320000
v 0.020000 0.400000 0.440000
v -0.020000 0.400000 0.440000
v -0.020000 0.440000 0.440000
v 0.020000 0.440000 0.440000
v 0.020000 0.400000 0.320000
v 0.020000 0.400000 0.440000
v 0.020000 0.440000 0.440000
v 0.020000 0.440000 0.320000
v -0.020000 0.400000 0.440000
v -0.020000 0.400000 0.320000
v -0.020000 0.440000 0.320000
v -0.020000 0.440000 0.440000
v -0.020000 0.440000 0.440000
v 0.020000 0.440000 0.440000
v 0.020000 0.440000 0.320000
v -0.020000 0.440000 0.320000
v -0.020000 0.400000 0.320000
v 0.020000 0.400000 0.320000
v 0.020000 0.400000 0.440000
v -0.020000 0.400000 0.440000
v -0.050000 0.400000 0.320000
v -0.075000 0.400000 0.276699
v -0.075000 0.480000 0.276699
v -0.050000 0.480000 0.320000
v -0.075000 0.400000 0.276699
v -0.125000 0.400000 0.276699
v -0.125000 0.480000 0.276699
v -0.075000 0.480000 0.276699
v -0.125000 0.400000 0.276699
v -0.150000 0.400000 0.320000
v -0.150000 0.480000 0.320000
v -0.125000 0.480000 0.276699
v -0.150000 0.400000 0.320000
v -0.125000 0.400000 0.363301
v -0.125000 0.480000 0.363301
v -0.150000 0.480000 0.320000
v -0.125000 0.400000 0.363301
v -0.075000 0.400000 0.363301
v -0.075000 0.480000 0.363301
v -0.125000 0.480000 0.363301
v -0.075000 0.400000 0.363301
v -0.050000 0.400000 0.320000
v -0.050000 0.480000 0.320000
v -0.075000 0.480000 0.363301
v -0.075000 0.480000 0.363301
v -0.125000 0.480000 0.363301
v -0.150000 0.480000 0.320000
v -0.125000 0.480000 0.276699
v -0.075000 0.480000 0.276699
v -0.050000 0.480000 0.320000
v -0.050000 0.400000 0.320000
v -0.075000 0.400000 0.276699
v -0.125000 0.400000 0.276699
v -0.150000 0.400000 0.320000
v -0.125000 0.400000 0.363301
v -0.075000 0.400000 0.363301
v 0.150000 0.400000 0.320000
v 0.125000 0.400000 0.276699
v 0.125000 0.480000 0.276699
v 0.150000 0.480000 0.320000
v 0.125000 0.400000 0.276699
v 0.075000 0.400000 0.276699
v 0.075000 0.480000 0.276699
v 0.125000 0.480000 0.276699
v 0.075000 0.400000 0.276699
v 0.050000 0.400000 0.320000
v 0.050000 0.480000 0.320000
v 0.075000 0.480000 0.276699
v 0.050000 0.400000 0.320000
v 0.075000 0.400000 0.363301
v 0.075000 0.480000 0.363301
v 0.050000 0.480000 0.320000
v 0.075000 0.400000 0.363301
v 0.125000 0.400000 0.363301
v 0.125000 0.480000 0.363301
v 0.075000 0.480000 0.363301
v 0.125000 0.400000 0.363301
v 0.150000 0.400000 0.320000
v 0.150000 0.480000 0.320000
v 0.125000 0.480000 0.363301
v 0.125000 0.480000 0.363301
v 0.075000 0.480000 0.363301
v 0.050000 0.480000 0.320000
v 0.075000 0.480000 0.276699
v 0.125000 0.480000 0.276699
v 0.150000 0.480000 0.320000
v 0.150000 0.400000 0.320000
v 0.125000 0.400000 0.276699
v 0.075000 0.400000 0.276699
v 0.050000 0.400000 0.320000
v 0.075000 0.400000 0.363301
v 0.125000 0.400000 0.363301
v -0.070000 0.480000 0.320000
v -0.085000 0.480000 0.294019
v -0.085000 0.600000 0.294019
v -0.070000 0.600000 0.320000
v -0.085000 0.480000 0.294019
v -0.115000 0.480000 0.294019
v -0.115000 0.600000 0.294019
v -0.085000 0.600000 0.294019
v -0.115000 0.480000 0.294019
v -0.130000 0.480000 0.320000
v -0.130000 0.600000 0.320000
v -0.115000 0.600000 0.294019
v -0.130000 0.480000 0.320000
v -0.115000 0.480000 0.345981
v -0.115000 0.600000 0.345981
v -0.130000 0.600000 0.320000
v -0.115000 0.480000 0.345981
v -0.085000 0.480000 0.345981
v -0.085000 0.600000 0.345981
v -0.115000 0.600000 0.345981
v -0.085000 0.480000 0.345981
v -0.070000 0.480000 0.320000
v -0.070000 0.600000 0.320000
v -0.085000 0.600000 0.345981
v -0.085000 0.600000 0.345981
v -0.115000 0.600000 0.345981
v -0.130000 0.600000 0.320000
v -0.115000 0.600000 0.294019
v -0.085000 0.600000 0.294019
v -0.070000 0.600000 0.320000
v -0.070000 0.480000 0.320000
v -0.085000 0.480000 0.294019
v -0.115000 0.480000 0.294019
v -0.130000 0.480000 0.320000
v -0.115000 0.480000 0.345981
v -0.085000 0.480000 0.345981
v 0.130000 0.480000 0.320000
v 0.115000 0.480000 0.294019
v 0.115000 0.600000 0.294019
v 0.130000 0.600000 0.320000
v 0.115000 0.480000 0.294019
v 0.085000 0.480000 0.294019
v 0.085000 0.600000 0.294019
v 0.115000 0.600000 0.294019
v 0.085000 0.480000 0.294019
v 0.070000 0.480000 0.320000
v 0.070000 0.600000 0.320000
v 0.085000 0.600000 0.294019
v 0.070000 0.480000 0.320000
v 0.085000 0.480000 0.345981
v 0.085000 0.600000 0.345981
v 0.070000 0.600000 0.320000
v 0.085000 0.480000 0.345981
v 0.115000 0.480000 0.345981
v 0.115000 0.600000 0.345981
v 0.085000 0.600000 0.345981
v 0.115000 0.480000 0.345981
v 0.130000 0.480000 0.320000
v 0.130000 0.600000 0.320000
v 0.115000 0.600000 0.345981
v 0.115000 0.600000 0.345981
v 0.085000 0.600000 0.345981
v 0.070000 0.600000 0.320000
v 0.085000 0.600000 0.294019
v 0.115000 0.600000 0.294019
v 0.130000 0.600000 0.320000
v 0.130000 0.480000 0.320000
v 0.115000 0.480000 0.294019
v 0.085000 0.480000 0.294019
v 0.070000 0.480000 0.320000
v 0.085000 0.480000 0.345981
v 0.115000 0.480000 0.345981
vt 0.000000 1.000000
vt 1.000000 1.000000
vt 1.000000 0.000000
vt 0.000000 0.000000
vt 0.000000 1.000000
vt 1.000000 1.000000
vt 1.000000 0.000000
vt 0.000000 0.000000
vt 0.000000 1.000000
vt 1.000000 1.000000
vt 1.000000 0.000000
vt 0.000000 0.000000
vt 0.000000 1.000000
vt 1.000000 1.000000
vt 1.000000 0.000000
vt 0.000000 0.000000
vt 0.000000 1.000000
vt 1.000000 1.000000
vt 1.000000 0.000000
vt 0.000000 0.000000
vt 0.000000 1.000000
vt 1.000000 1.000000
vt 1.000000 0.000000
vt 0.000000 0.000000
vt 0.000000 1.000000
vt 1.000000 1.000000
vt 1.000000 0.000000
vt 0.000000 0.000000
vt 0.000000 1.000000
vt 1.000000 1.000000
vt 1.000000 0.000000
vt 0.000000 0.000000
vt 0.000000 1.000000
vt 1.000000 1.000000
vt 1.000000 0.000000
vt 0.000000 0.000000
vt 0.000000 1.000000
vt 1.000000 1.000000
vt 1.000000 0.000000
vt 0.000000 0.000000
vt 0.000000 1.000000
vt 1.000000 1.000000
vt 1.000000 0.000000
vt 0.000000 0.000000
vt 0.000000 1.000000
vt 1.000000 1.000000
vt 1.000000 0.000000
vt 0.000000 0.000000
vt 0.000000 1.000000
vt 1.000000 1.000000
vt 1.000000 0.000000
vt 0.000000 0.000000
vt 0.000000 1.000000
vt 1.000000 1.000000
vt 1.000000 0.000000
vt 0.000000 0.000000
vt 0.000000 1.000000
vt 1.000000 1.000000
vt 1.000000 0.000000
vt 0.000000 0.000000
vt 0.000000 1.000000
vt 1.000000 1.000000
vt 1.000000 0.000000
vt 0.000000 0.000000
vt 0.000000 1.000000
vt 1.000000 1.000000
vt 1.000000 0.000000
vt 0.000000 0.000000
vt 0.000000 1.000000
vt 1.000000 1.000000
vt 1.000000 0.000000
vt 0.000000 0.000000
vt 0.500000 0.500000
vt 0.500000 0.500000
vt 0.500000 0.500000
vt 0.500000 0.500000
vt 0.500000 0.500000
vt 0.500000 0.500000
vt 0.500000 0.500000
vt 0.500000 0.500000
vt 0.500000 0.500000
vt 0.500000 0.500000
vt 0.500000 0.500000
vt 0.500000 0.500000
vt 0.000000 1.000000
vt 1.000000 1.000000
vt 1.000000 0.000000
vt 0.000000 0.000000
vt 0.000000 1.000000
vt 1.000000 1.000000
vt 1.000000 0.000000
vt 0.000000 0.000000
vt 0.000000 1.000000
vt 1.000000 1.000000
vt 1.000000 0.000000
vt 0.000000 0.000000
vt 0.000000 1.000000
vt 1.000000 1.000000
vt 1.000000 0.000000
vt 0.000000 0.000000
vt 0.000000 1.000000
vt 1.000000 1.000000
vt 1.000000 0.000000
vt 0.000000 0.000000
vt 0.000000 1.000000
vt 1.000000 1.000000
vt 1.000000 0.000000
vt 0.000000 0.000000
vt 0.500000 0.500000
vt 0.500000 0.500000
vt 0.500000 0.500000
vt 0.500000 0.500000
vt 0.500000 0.500000
vt 0.500000 0.500000
vt 0.500000 0.500000
vt 0.500000 0.500000
vt 0.500000 0.500000
vt 0.500000 0.500000
vt 0.500000 0.500000
vt 0.500000 0.500000
vt 0.000000 1.000000
vt 1.000000 1.000000
vt 1.000000 0.000000
vt 0.000000 0.000000
vt 0.000000 1.000000
vt 1.000000 1.000000
vt 1.000000 0.000000
vt 0.000000 0.000000
vt 0.000000 1.000000
vt 1.000000 1.000000
vt 1.000000 0.000000
vt 0.000000 0.000000
vt 0.000000 1.000000
vt 1.000000 1.000000
vt 1.000000 0.000000
vt 0.000000 0.000000
vt 0.000000 1.000000
vt 1.000000 1.000000
vt 1.000000 0.000000
vt 0.000000 0.000000
vt 0.000000 1.000000
vt 1.000000 1.000000
vt 1.000000 0.000000
vt 0.000000 0.000000
vt 0.500000 0.500000
vt 0.500000 0.500000
vt 0.500000 0.500000
vt 0.500000 0.500000
vt 0.500000 0.500000
vt 0.500000 0.500000
vt 0.500000 0.500000
vt 0.500000 0.500000
vt 0.500000 0.500000
vt 0.500000 0.500000
vt 0.500000 0.500000
vt 0.500000 0.500000
vt 0.000000 1.000000
vt 1.000000 1.000000
vt 1.000000 0.000000
vt 0.000000 0.000000
vt 0.000000 1.000000
vt 1.000000 1.000000
vt 1.000000 0.000000
vt 0.000000 0.000000
vt 0.000000 1.000000
vt 1.000000 1.000000
vt 1.000000 0.000000
vt 0.000000 0.000000
vt 0.000000 1.000000
vt 1.000000 1.000000
vt 1.000000 0.000000
vt 0.000000 0.000000
vt 0.000000 1.000000
vt 1.000000 1.000000
vt 1.000000 0.000000
vt 0.000000 0.000000
vt 0.000000 1.000000
vt 1.000000 1.000000
vt 1.000000 0.000000
vt 0.000000 0.000000
vt 0.500000 0.500000
vt 0.500000 0.500000
vt 0.500000 0.500000
vt 0.500000 0.500000
vt 0.500000 0.500000
vt 0.500000 0.500000
vt 0.500000 0.500000
vt 0.500000 0.500000
vt 0.500000 0.500000
vt 0.500000 0.500000
vt 0.500000 0.500000
vt 0.500000 0.500000
vn 0.000000 0.000000 1.000000
vn 0.000000 0.000000 -1.000000
vn -1.000000 0.000000 -0.000000
vn 1.000000 0.000000 -0.000000
vn 0.000000 1.000000 -0.000000
vn 0.000000 -1.000000 -0.000000
vn 0.000000 0.000000 1.000000
vn 0.000000 0.000000 -1.000000
vn -1.000000 0.000000 -0.000000
vn 1.000000 0.000000 -0.000000
vn 0.000000 1.000000 -0.000000
vn 0.000000 -1.000000 -0.000000
vn 0.866025 0.000000 -0.500000
vn 0.000000 0.000000 -1.000000
vn -0.866025 0.000000 -0.500000
vn -0.866025 0.000000 0.500000
vn -0.000000 0.000000 1.000000
vn 0.866025 0.000000 0.500000
vn 0.000000 -1.000000 -0.000000
vn 0.000000 1.000000 -0.000000
vn 0.866025 0.000000 -0.500000
vn 0.000000 0.000000 -1.000000
vn -0.866025 0.000000 -0.500000
vn -0.866025 0.000000 0.500000
vn -0.000000 0.000000 1.000000
vn 0.866025 0.000000 0.500000
vn 0.000000 -1.000000 -0.000000
vn 0.000000 1.000000 -0.000000
vn 0.866025 0.000000 -0.500000
vn 0.000000 0.000000 -1.000000
vn -0.866025 0.000000 -0.500000
vn -0.866025 0.000000 0.500000
vn 0.000000 0.000000 1.000000
vn 0.866025 0.000000 0.500000
vn 0.000000 -1.000000 -0.000000
vn 0.000000 1.000000 -0.000000
vn 0.866025 0.000000 -0.500000
vn 0.000000 0.000000 -1.000000
vn -0.866025 0.000000 -0.500000
vn -0.866025 0.000000 0.500000
vn 0.000000 0.000000 1.000000
vn 0.866025 0.000000 0.500000
vn 0.000000 -1.000000 -0.000000
vn 0.000000 1.000000 -0.000000

usemtl bronze_fixture
f 1/1/1 2/2/1 3/3/1 4/4/1
f 5/5/2 6/6/2 7/7/2 8/8/2
f 9/9/3 10/10/3 11/11/3 12/12/3
f 13/13/4 14/14/4 15/15/4 16/16/4
f 17/17/5 18/18/5 19/19/5 20/20/5
f 21/21/6 22/22/6 23/23/6 24/24/6
f 25/25/7 26/26/7 27/27/7 28/28/7
f 29/29/8 30/30/8 31/31/8 32/32/8
f 33/33/9 34/34/9 35/35/9 36/36/9
f 37/37/10 38/38/10 39/39/10 40/40/10
f 41/41/11 42/42/11 43/43/11 44/44/11
f 45/45/12 46/46/12 47/47/12 48/48/12
f 49/49/13 50/50/13 51/51/13 52/52/13
f 53/53/14 54/54/14 55/55/14 56/56/14
f 57/57/15 58/58/15 59/59/15 60/60/15
f 61/61/16 62/62/16 63/63/16 64/64/16
f 65/65/17 66/66/17 67/67/17 68/68/17
f 69/69/18 70/70/18 71/71/18 72/72/18
f 73/73/19 74/74/19 75/75/19
f 73/73/19 75/75/19 76/76/19
f 73/73/19 76/76/19 77/77/19
f 73/73/19 77/77/19 78/78/19
f 79/79/20 80/80/20 81/81/20
f 79/79/20 81/81/20 82/82/20
f 79/79/20 82/82/20 83/83/20
f 79/79/20 83/83/20 84/84/20
f 85/85/21 86/86/21 87/87/21 88/88/21
f 89/89/22 90/90/22 91/91/22 92/92/22
f 93/93/23 94/94/23 95/95/23 96/96/23
f 97/97/24 98/98/24 99/99/24 100/100/24
f 101/101/25 102/102/25 103/103/25 104/104/25
f 105/105/26 106/106/26 107/107/26 108/108/26
f 109/109/27 110/110/27 111/111/27
f 109/109/27 111/111/27 112/112/27
f 109/109/27 112/112/27 113/113/27
f 109/109/27 113/113/27 114/114/27
f 115/115/28 116/116/28 117/117/28
f 115/115/28 117/117/28 118/118/28
f 115/115/28 118/118/28 119/119/28
f 115/115/28 119/119/28 120/120/28

usemtl wax_candle
f 121/121/29 122/122/29 123/123/29 124/124/29
f 125/125/30 126/126/30 127/127/30 128/128/30
f 129/129/31 130/130/31 131/131/31 132/132/31
f 133/133/32 134/134/32 135/135/32 136/136/32
f 137/137/33 138/138/33 139/139/33 140/140/33
f 141/141/34 142/142/34 143/143/34 144/144/34
f 145/145/35 146/146/35 147/147/35
f 145/145/35 147/147/35 148/148/35
f 145/145/35 148/148/35 149/149/35
f 145/145/35 149/149/35 150/150/35
f 151/151/36 152/152/36 153/153/36
f 151/151/36 153/153/36 154/154/36
f 151/151/36 154/154/36 155/155/36
f 151/151/36 155/155/36 156/156/36
f 157/157/37 158/158/37 159/159/37 160/160/37
f 161/161/38 162/162/38 163/163/38 164/164/38
f 165/165/39 166/166/39 167/167/39 168/168/39
f 169/169/40 170/170/40 171/171/40 172/172/40
f 173/173/41 174/174/41 175/175/41 176/176/41
f 177/177/42 178/178/42 179/179/42 180/180/42
f 181/181/43 182/182/43 183/183/43
f 181/181/43 183/183/43 184/184/43
f 181/181/43 184/184/43 185/185/43
f 181/181/43 185/185/43 186/186/43
f 187/187/44 188/188/44 189/189/44
f 187/187/44 189/189/44 190/190/44
f 187/187/44 190/190/44 191/191/44
f 187/187/44 191/191/44 192/192/44
