mtllib walk.mtl
usemtl stone
v -0.6 0.0 0.0
v 0.6 0.0 0.0
v -0.6 0.19945506545974023 0.0
v 0.6 0.19945506545974023 0.0
v -0.6 0.39891013091948047 0.0
v 0.6 0.39891013091948047 0.0
v -0.6 0.5983651963792207 0.0
v 0.6 0.5983651963792207 0.0
v -0.6 0.7978202618389609 0.0
v 0.6 0.7978202618389609 0.0
v -0.6 0.9972753272987012 0.0
v 0.6 0.9972753272987012 0.0
v -0.6 1.1967303927584414 0.0
v 0.6 1.1967303927584414 0.0
v -0.6 1.3961854582181816 0.0
v 0.6 1.3961854582181816 0.0
v -0.6 1.5956405236779219 0.0
v 0.6 1.5956405236779219 0.0
v -0.6 1.7950955891376619 0.0
v 0.6 1.7950955891376619 0.0
v -0.6 1.9945506545974023 0.0
v 0.6 1.9945506545974023 0.0
v -0.6 2.1940057200571426 0.0
v 0.6 2.1940057200571426 0.0
v -0.6 2.393460785516883 0.0
v 0.6 2.393460785516883 0.0
v -0.6 2.5929158509766226 0.0
v 0.6 2.5929158509766226 0.0
v -0.6 2.7923709164363633 0.0
v 0.6 2.7923709164363633 0.0
v -0.6 2.991825981896103 0.0
v 0.6 2.991825981896103 0.0
v -0.6 3.1912810473558437 0.0
v 0.6 3.1912810473558437 0.0
v -0.6 3.390736112815584 0.0
v 0.6 3.390736112815584 0.0
v -0.6 3.5901911782753237 0.0
v 0.6 3.5901911782753237 0.0
v -0.6 3.789646243735064 0.0
v 0.6 3.789646243735064 0.0
v -0.6 3.9891013091948047 0.0
v 0.6 3.9891013091948047 0.0
v -0.6 4.188556374654545 0.0
v 0.6 4.188556374654545 0.0
v -0.6 4.388011440114285 0.0
v 0.6 4.388011440114285 0.0
v -0.6 4.5874665055740245 0.0
v 0.6 4.5874665055740245 0.0
v -0.6 4.786921571033766 0.0
v 0.6 4.786921571033766 0.0
v -0.6 4.986376636493506 0.0
v 0.6 4.986376636493506 0.0
v -0.6 5.185831701953245 0.0
v 0.6 5.185831701953245 0.0
v -0.6 5.385286767412986 0.0
v 0.6 5.385286767412986 0.0
v -0.6 5.5847418328727265 0.0
v 0.6 5.5847418328727265 0.0
v -0.6 5.784196898332466 0.0
v 0.6 5.784196898332466 0.0
v -0.6 5.983651963792206 0.0
v 0.6 5.983651963792206 0.0
v -0.6 6.183107029251947 0.0
v 0.6 6.183107029251947 0.0
v -0.6 6.3825620947116875 0.0
v 0.6 6.3825620947116875 0.0
v -0.6 6.582017160171427 0.0
v 0.6 6.582017160171427 0.0
v -0.6 6.781472225631168 0.0
v 0.6 6.781472225631168 0.0
v -0.6 6.980927291090908 0.0
v 0.6 6.980927291090908 0.0
v -0.6 7.1803823565506475 0.0
v 0.6 7.1803823565506475 0.0
v -0.6 7.379837422010389 0.0
v 0.6 7.379837422010389 0.0
v -0.6 7.579292487470128 0.0
v 0.6 7.579292487470128 0.0
v -0.6 7.778747552929868 0.0
v 0.6 7.778747552929868 0.0
v -0.6 7.978202618389609 0.0
v 0.6 7.978202618389609 0.0
v -0.6 8.177657683849349 0.0
v 0.6 8.177657683849349 0.0
v -0.6 8.37711274930909 0.0
v 0.6 8.37711274930909 0.0
v -0.6 8.576567814768831 0.0
v 0.6 8.576567814768831 0.0
v -0.6 8.77602288022857 0.0
v 0.6 8.77602288022857 0.0
v -0.6 8.97547794568831 0.0
v 0.6 8.97547794568831 0.0
v -0.6 9.174933011148049 0.0
v 0.6 9.174933011148049 0.0
v -0.6 9.37438807660779 0.0
v 0.6 9.37438807660779 0.0
v -0.6 9.573843142067531 0.0
v 0.6 9.573843142067531 0.0
v -0.6 9.77329820752727 0.0
v 0.6 9.77329820752727 0.0
v -0.6 9.972753272987012 0.0
v 0.6 9.972753272987012 0.0
v -0.6 10.172208338446751 0.0
v 0.6 10.172208338446751 0.0
v -0.6 10.37166340390649 0.0
v 0.6 10.37166340390649 0.0
v -0.6 10.571118469366231 0.0
v 0.6 10.571118469366231 0.0
v -0.6 10.770573534825973 0.0
v 0.6 10.770573534825973 0.0
v -0.6 10.970028600285712 0.0
v 0.6 10.970028600285712 0.0
v -0.6 11.169483665745453 0.0
v 0.6 11.169483665745453 0.0
v -0.6 11.368938731205194 0.0
v 0.6 11.368938731205194 0.0
v -0.6 11.568393796664932 0.0
v 0.6 11.568393796664932 0.0
v -0.6 11.767848862124673 0.0
v 0.6 11.767848862124673 0.0
v -0.6 11.967303927584412 0.0
v 0.6 11.967303927584412 0.0
v -0.6 12.166758993044153 0.0
v 0.6 12.166758993044153 0.0
v -0.6 12.366214058503894 0.0
v 0.6 12.366214058503894 0.0
v -0.6 12.565669123963634 0.0
v 0.6 12.565669123963634 0.0
v -0.6 12.765124189423375 0.0
v 0.6 12.765124189423375 0.0
v -0.6 12.964579254883114 0.0
v 0.6 12.964579254883114 0.0
v -0.6 13.164034320342854 0.0
v 0.6 13.164034320342854 0.0
v -0.6 13.363489385802595 0.0
v 0.6 13.363489385802595 0.0
v -0.6 13.562944451262336 0.0
v 0.6 13.562944451262336 0.0
v -0.6 13.762399516722075 0.0
v 0.6 13.762399516722075 0.0
v -0.6 13.961854582181816 0.0
v 0.6 13.961854582181816 0.0
v -0.6 14.161309647641556 0.0
v 0.6 14.161309647641556 0.0
v -0.6 14.360764713101295 0.0
v 0.6 14.360764713101295 0.0
v -0.6 14.560219778561036 0.0
v 0.6 14.560219778561036 0.0
f 1 2 4 3
f 3 4 6 5
f 5 6 8 7
f 7 8 10 9
f 9 10 12 11
f 11 12 14 13
f 13 14 16 15
f 15 16 18 17
f 17 18 20 19
f 19 20 22 21
f 21 22 24 23
f 23 24 26 25
f 25 26 28 27
f 27 28 30 29
f 29 30 32 31
f 31 32 34 33
f 33 34 36 35
f 35 36 38 37
f 37 38 40 39
f 39 40 42 41
f 41 42 44 43
f 43 44 46 45
f 45 46 48 47
f 47 48 50 49
f 49 50 52 51
f 51 52 54 53
f 53 54 56 55
f 55 56 58 57
f 57 58 60 59
f 59 60 62 61
f 61 62 64 63
f 63 64 66 65
f 65 66 68 67
f 67 68 70 69
f 69 70 72 71
f 71 72 74 73
f 73 74 76 75
f 75 76 78 77
f 77 78 80 79
f 79 80 82 81
f 81 82 84 83
f 83 84 86 85
f 85 86 88 87
f 87 88 90 89
f 89 90 92 91
f 91 92 94 93
f 93 94 96 95
f 95 96 98 97
f 97 98 100 99
f 99 100 102 101
f 101 102 104 103
f 103 104 106 105
f 105 106 108 107
f 107 108 110 109
f 109 110 112 111
f 111 112 114 113
f 113 114 116 115
f 115 116 118 117
f 117 118 120 119
f 119 120 122 121
f 121 122 124 123
f 123 124 126 125
f 125 126 128 127
f 127 128 130 129
f 129 130 132 131
f 131 132 134 133
f 133 134 136 135
f 135 136 138 137
f 137 138 140 139
f 139 140 142 141
f 141 142 144 143
f 143 144 146 145
f 145 146 148 147
