mtllib ruins_crystal_cluster.mtl
o ruins_crystal_cluster

# Group: stone_outcrop
v 0.000000 0.000000 0.000000
v 0.380000 0.000000 0.000000
v 0.380000 0.140000 0.000000
v 0.000000 0.140000 0.000000
v 0.236926 0.000000 -0.297096
v 0.236926 0.140000 -0.297096
v -0.084558 0.000000 -0.370473
v -0.084558 0.140000 -0.370473
v -0.342368 0.000000 -0.164876
v -0.342368 0.140000 -0.164876
v -0.342368 0.000000 0.164876
v -0.342368 0.140000 0.164876
v -0.084558 0.000000 0.370473
v -0.084558 0.140000 0.370473
v 0.236926 0.000000 0.297096
v 0.236926 0.140000 0.297096
vt 0.0 0.0
vn 0.000000 -1.000000 0.000000
vn 0.783614 -0.621247 0.000000
vn 0.783614 0.621247 0.000000
vn 0.000000 1.000000 0.000000
vn 0.488576 -0.621247 -0.612654
vn 0.488576 0.621247 -0.612654
vn -0.174371 -0.621247 -0.763968
vn -0.174371 0.621247 -0.763968
vn -0.706012 -0.621247 -0.339998
vn -0.706012 0.621247 -0.339998
vn -0.706012 -0.621247 0.339998
vn -0.706012 0.621247 0.339998
vn -0.174371 -0.621247 0.763968
vn -0.174371 0.621247 0.763968
vn 0.488576 -0.621247 0.612654
vn 0.488576 0.621247 0.612654
usemtl stone_outcrop
f 2/1/2 1/1/1 5/1/5
f 2/1/2 5/1/5 3/1/3
f 3/1/3 5/1/5 6/1/6
f 3/1/3 6/1/6 4/1/4
f 5/1/5 1/1/1 7/1/7
f 5/1/5 7/1/7 6/1/6
f 6/1/6 7/1/7 8/1/8
f 6/1/6 8/1/8 4/1/4
f 7/1/7 1/1/1 9/1/9
f 7/1/7 9/1/9 8/1/8
f 8/1/8 9/1/9 10/1/10
f 8/1/8 10/1/10 4/1/4
f 9/1/9 1/1/1 11/1/11
f 9/1/9 11/1/11 10/1/10
f 10/1/10 11/1/11 12/1/12
f 10/1/10 12/1/12 4/1/4
f 11/1/11 1/1/1 13/1/13
f 11/1/11 13/1/13 12/1/12
f 12/1/12 13/1/13 14/1/14
f 12/1/12 14/1/14 4/1/4
f 13/1/13 1/1/1 15/1/15
f 13/1/13 15/1/15 14/1/14
f 14/1/14 15/1/15 16/1/16
f 14/1/14 16/1/16 4/1/4
f 15/1/15 1/1/1 2/1/2
f 15/1/15 2/1/2 16/1/16
f 16/1/16 2/1/2 3/1/3
f 16/1/16 3/1/3 4/1/4

# Group: crystal_core
v 0.016191 0.096444 -0.025972
v 0.156016 0.103441 -0.025972
v 0.123634 0.750553 0.025972
v -0.016191 0.743556 0.025972
v 0.085620 0.109620 -0.146828
v 0.053237 0.756731 -0.094884
v -0.054205 0.102623 -0.146828
v -0.086588 0.749734 -0.094884
v -0.123634 0.089447 -0.025972
v -0.156016 0.736559 0.025972
v -0.053237 0.083269 0.094884
v -0.085620 0.730380 0.146828
v 0.086588 0.090266 0.094884
v 0.054205 0.737377 0.146828
vt 0.0 0.0
vn 0.049819 -0.995556 -0.079915
vn 0.821805 -0.567680 -0.048748
vn 0.761026 0.646887 0.048748
vn -0.049819 0.995556 0.079915
vn 0.423356 -0.532709 -0.732796
vn 0.362577 0.681858 -0.635301
vn -0.368059 -0.572313 -0.732796
vn -0.428838 0.642254 -0.635301
vn -0.761026 -0.646887 -0.048748
vn -0.821805 0.567680 0.048748
vn -0.362577 -0.681858 0.635301
vn -0.423356 0.532709 0.732796
vn 0.428838 -0.642254 0.635301
vn 0.368059 0.572313 0.732796
usemtl crystal_core
f 18/1/18 17/1/17 21/1/21
f 18/1/18 21/1/21 19/1/19
f 19/1/19 21/1/21 22/1/22
f 19/1/19 22/1/22 20/1/20
f 21/1/21 17/1/17 23/1/23
f 21/1/21 23/1/23 22/1/22
f 22/1/22 23/1/23 24/1/24
f 22/1/22 24/1/24 20/1/20
f 23/1/23 17/1/17 25/1/25
f 23/1/23 25/1/25 24/1/24
f 24/1/24 25/1/25 26/1/26
f 24/1/24 26/1/26 20/1/20
f 25/1/25 17/1/17 27/1/27
f 25/1/25 27/1/27 26/1/26
f 26/1/26 27/1/27 28/1/28
f 26/1/26 28/1/28 20/1/20
f 27/1/27 17/1/17 29/1/29
f 27/1/27 29/1/29 28/1/28
f 28/1/28 29/1/29 30/1/30
f 28/1/28 30/1/30 20/1/20
f 29/1/29 17/1/17 18/1/18
f 29/1/29 18/1/18 30/1/30
f 30/1/30 18/1/18 19/1/19
f 30/1/30 19/1/19 20/1/20

# Group: mana_crystal
v -0.137790 0.098638 0.153624
v -0.038289 0.108621 0.153624
v -0.082710 0.551345 0.086376
v -0.182210 0.541362 0.086376
v -0.086747 0.090753 0.067993
v -0.131168 0.533477 0.000746
v -0.186248 0.080769 0.067993
v -0.230668 0.523493 0.000746
v -0.237290 0.088655 0.153624
v -0.281711 0.531379 0.086376
v -0.188832 0.106523 0.239254
v -0.233253 0.549247 0.172007
v -0.089332 0.116507 0.239254
v -0.133752 0.559231 0.172007
v 0.134132 0.102073 0.076058
v 0.223844 0.094881 0.076058
v 0.255580 0.490734 0.123942
v 0.165868 0.497927 0.123942
v 0.179734 0.107778 -0.001324
v 0.211470 0.503631 0.046561
v 0.090022 0.114970 -0.001324
v 0.121758 0.510824 0.046561
v 0.044420 0.109266 0.076058
v 0.076156 0.505119 0.123942
v 0.088530 0.096369 0.153439
v 0.120266 0.492222 0.201324
v 0.178242 0.089176 0.153439
v 0.209978 0.485030 0.201324
v -0.104342 0.107266 -0.136015
v -0.025125 0.096103 -0.136015
v 0.023559 0.441570 -0.163985
v -0.055658 0.452734 -0.163985
v -0.065506 0.096202 -0.205075
v -0.016822 0.441669 -0.233046
v -0.144723 0.107366 -0.205075
v -0.096039 0.452833 -0.233046
v -0.183559 0.118430 -0.136015
v -0.134875 0.463897 -0.163985
v -0.143178 0.118331 -0.066954
v -0.094494 0.463798 -0.094925
v -0.063961 0.107167 -0.066954
v -0.015277 0.452634 -0.094925
vt 0.0 0.0
vn 0.098712 -0.983831 0.149438
vn 0.848661 -0.521023 0.091156
vn 0.728233 0.679240 -0.091156
vn -0.098712 0.983831 -0.149438
vn 0.464676 -0.662616 -0.587381
vn 0.344248 0.537647 -0.769694
vn -0.323772 -0.741724 -0.587381
vn -0.444200 0.458539 -0.769694
vn -0.728233 -0.679240 0.091156
vn -0.848661 0.521023 -0.091156
vn -0.344248 -0.537647 0.769694
vn -0.464676 0.662616 0.587381
vn 0.444200 -0.458539 0.769694
vn 0.323772 0.741724 0.587381
vn -0.079340 -0.989633 -0.119712
vn 0.741475 -0.666996 -0.073024
vn 0.838268 0.540346 0.073024
vn 0.079340 0.989633 0.119712
vn 0.353104 -0.553444 -0.754332
vn 0.449898 0.653897 -0.608285
vn -0.436768 -0.490119 -0.754332
vn -0.339974 0.717222 -0.608285
vn -0.838268 -0.540346 -0.073024
vn -0.741475 0.666996 0.073024
vn -0.449898 -0.653897 0.608285
vn -0.353104 0.553444 0.754332
vn 0.339974 -0.717222 0.608285
vn 0.436768 0.490119 0.754332
vn -0.139097 -0.987049 0.079915
vn 0.699805 -0.712669 0.048748
vn 0.869501 0.491519 -0.048748
vn 0.139097 0.987049 -0.079915
vn 0.299826 -0.711686 -0.635301
vn 0.469522 0.492502 -0.732796
vn -0.484827 -0.601111 -0.635301
vn -0.315131 0.603077 -0.732796
vn -0.869501 -0.491519 0.048748
vn -0.699805 0.712669 -0.048748
vn -0.469522 -0.492502 0.732796
vn -0.299826 0.711686 0.635301
vn 0.315131 -0.603077 0.732796
vn 0.484827 0.601111 0.635301
usemtl mana_crystal
f 32/1/32 31/1/31 35/1/35
f 32/1/32 35/1/35 33/1/33
f 33/1/33 35/1/35 36/1/36
f 33/1/33 36/1/36 34/1/34
f 35/1/35 31/1/31 37/1/37
f 35/1/35 37/1/37 36/1/36
f 36/1/36 37/1/37 38/1/38
f 36/1/36 38/1/38 34/1/34
f 37/1/37 31/1/31 39/1/39
f 37/1/37 39/1/39 38/1/38
f 38/1/38 39/1/39 40/1/40
f 38/1/38 40/1/40 34/1/34
f 39/1/39 31/1/31 41/1/41
f 39/1/39 41/1/41 40/1/40
f 40/1/40 41/1/41 42/1/42
f 40/1/40 42/1/42 34/1/34
f 41/1/41 31/1/31 43/1/43
f 41/1/41 43/1/43 42/1/42
f 42/1/42 43/1/43 44/1/44
f 42/1/42 44/1/44 34/1/34
f 43/1/43 31/1/31 32/1/32
f 43/1/43 32/1/32 44/1/44
f 44/1/44 32/1/32 33/1/33
f 44/1/44 33/1/33 34/1/34
f 46/1/46 45/1/45 49/1/49
f 46/1/46 49/1/49 47/1/47
f 47/1/47 49/1/49 50/1/50
f 47/1/47 50/1/50 48/1/48
f 49/1/49 45/1/45 51/1/51
f 49/1/49 51/1/51 50/1/50
f 50/1/50 51/1/51 52/1/52
f 50/1/50 52/1/52 48/1/48
f 51/1/51 45/1/45 53/1/53
f 51/1/51 53/1/53 52/1/52
f 52/1/52 53/1/53 54/1/54
f 52/1/52 54/1/54 48/1/48
f 53/1/53 45/1/45 55/1/55
f 53/1/53 55/1/55 54/1/54
f 54/1/54 55/1/55 56/1/56
f 54/1/54 56/1/56 48/1/48
f 55/1/55 45/1/45 57/1/57
f 55/1/55 57/1/57 56/1/56
f 56/1/56 57/1/57 58/1/58
f 56/1/56 58/1/58 48/1/48
f 57/1/57 45/1/45 46/1/46
f 57/1/57 46/1/46 58/1/58
f 58/1/58 46/1/46 47/1/47
f 58/1/58 47/1/47 48/1/48
f 60/1/60 59/1/59 63/1/63
f 60/1/60 63/1/63 61/1/61
f 61/1/61 63/1/63 64/1/64
f 61/1/61 64/1/64 62/1/62
f 63/1/63 59/1/59 65/1/65
f 63/1/63 65/1/65 64/1/64
f 64/1/64 65/1/65 66/1/66
f 64/1/64 66/1/66 62/1/62
f 65/1/65 59/1/59 67/1/67
f 65/1/65 67/1/67 66/1/66
f 66/1/66 67/1/67 68/1/68
f 66/1/66 68/1/68 62/1/62
f 67/1/67 59/1/59 69/1/69
f 67/1/67 69/1/69 68/1/68
f 68/1/68 69/1/69 70/1/70
f 68/1/68 70/1/70 62/1/62
f 69/1/69 59/1/59 71/1/71
f 69/1/69 71/1/71 70/1/70
f 70/1/70 71/1/71 72/1/72
f 70/1/70 72/1/72 62/1/62
f 71/1/71 59/1/59 60/1/60
f 71/1/71 60/1/60 72/1/72
f 72/1/72 60/1/60 61/1/61
f 72/1/72 61/1/61 62/1/62

