# polygonal cohort: fabricated from poly_parts.py; no lathed geometry
# generated by tools/asset-production/lathe.py
mtllib polygonal_cohort.mtl
o angel_feather
v -0.037485 -0.418929 0.037500
v 0.037485 -0.421071 0.037500
v 0.097485 1.678929 0.037500
v 0.022515 1.681071 0.037500
v -0.037485 -0.418929 -0.037500
v 0.037485 -0.421071 -0.037500
v 0.097485 1.678929 -0.037500
v 0.022515 1.681071 -0.037500
v 0.020000 0.080000 0.027500
v -0.480000 0.080000 0.027500
v -0.393600 -0.040000 0.027500
v 0.000000 -0.100000 0.027500
v 0.020000 0.080000 -0.027500
v -0.480000 0.080000 -0.027500
v -0.393600 -0.040000 -0.027500
v 0.000000 -0.100000 -0.027500
v -0.000000 -0.100000 0.027500
v 0.393600 -0.040000 0.027500
v 0.480000 0.080000 0.027500
v -0.020000 0.080000 0.027500
v -0.000000 -0.100000 -0.027500
v 0.393600 -0.040000 -0.027500
v 0.480000 0.080000 -0.027500
v -0.020000 0.080000 -0.027500
v 0.020000 0.280000 0.027500
v -0.620000 0.310000 0.027500
v -0.508400 0.160000 0.027500
v 0.000000 0.100000 0.027500
v 0.020000 0.280000 -0.027500
v -0.620000 0.310000 -0.027500
v -0.508400 0.160000 -0.027500
v 0.000000 0.100000 -0.027500
v -0.000000 0.100000 0.027500
v 0.508400 0.160000 0.027500
v 0.620000 0.310000 0.027500
v -0.020000 0.280000 0.027500
v -0.000000 0.100000 -0.027500
v 0.508400 0.160000 -0.027500
v 0.620000 0.310000 -0.027500
v -0.020000 0.280000 -0.027500
v -0.000000 0.320000 0.027500
v 0.590400 0.380000 0.027500
v 0.720000 0.540000 0.027500
v -0.020000 0.500000 0.027500
v -0.000000 0.320000 -0.027500
v 0.590400 0.380000 -0.027500
v 0.720000 0.540000 -0.027500
v -0.020000 0.500000 -0.027500
v 0.020000 0.740000 0.027500
v -0.780000 0.770000 0.027500
v -0.639600 0.620000 0.027500
v 0.000000 0.560000 0.027500
v 0.020000 0.740000 -0.027500
v -0.780000 0.770000 -0.027500
v -0.639600 0.620000 -0.027500
v 0.000000 0.560000 -0.027500
v -0.000000 0.560000 0.027500
v 0.639600 0.620000 0.027500
v 0.780000 0.770000 0.027500
v -0.020000 0.740000 0.027500
v -0.000000 0.560000 -0.027500
v 0.639600 0.620000 -0.027500
v 0.780000 0.770000 -0.027500
v -0.020000 0.740000 -0.027500
v 0.020000 0.980000 0.027500
v -0.700000 0.990000 0.027500
v -0.574000 0.860000 0.027500
v 0.000000 0.800000 0.027500
v 0.020000 0.980000 -0.027500
v -0.700000 0.990000 -0.027500
v -0.574000 0.860000 -0.027500
v 0.000000 0.800000 -0.027500
v -0.000000 0.800000 0.027500
v 0.574000 0.860000 0.027500
v 0.700000 0.990000 0.027500
v -0.020000 0.980000 0.027500
v -0.000000 0.800000 -0.027500
v 0.574000 0.860000 -0.027500
v 0.700000 0.990000 -0.027500
v -0.020000 0.980000 -0.027500
v 0.020000 1.220000 0.027500
v -0.560000 1.210000 0.027500
v -0.459200 1.100000 0.027500
v 0.000000 1.040000 0.027500
v 0.020000 1.220000 -0.027500
v -0.560000 1.210000 -0.027500
v -0.459200 1.100000 -0.027500
v 0.000000 1.040000 -0.027500
v -0.000000 1.040000 0.027500
v 0.459200 1.100000 0.027500
v 0.560000 1.210000 0.027500
v -0.020000 1.220000 0.027500
v -0.000000 1.040000 -0.027500
v 0.459200 1.100000 -0.027500
v 0.560000 1.210000 -0.027500
v -0.020000 1.220000 -0.027500
v 0.020000 1.440000 0.027500
v -0.400000 1.410000 0.027500
v -0.328000 1.320000 0.027500
v 0.000000 1.260000 0.027500
v 0.020000 1.440000 -0.027500
v -0.400000 1.410000 -0.027500
v -0.328000 1.320000 -0.027500
v 0.000000 1.260000 -0.027500
v -0.000000 1.260000 0.027500
v 0.328000 1.320000 0.027500
v 0.400000 1.410000 0.027500
v -0.020000 1.440000 0.027500
v -0.000000 1.260000 -0.027500
v 0.328000 1.320000 -0.027500
v 0.400000 1.410000 -0.027500
v -0.020000 1.440000 -0.027500
v -0.060000 1.550000 0.030000
v 0.060000 1.550000 0.030000
v 0.030000 1.920000 0.030000
v -0.060000 1.550000 -0.030000
v 0.060000 1.550000 -0.030000
v 0.030000 1.920000 -0.030000
vt 0.000000 0.001019
vt 0.555455 0.000000
vt 1.000000 0.998981
vt 0.444545 1.000000
vt 0.000000 0.001019
vt 0.555455 0.000000
vt 1.000000 0.998981
vt 0.444545 1.000000
vt 1.000000 1.000000
vt 0.000000 1.000000
vt 0.172800 0.333333
vt 0.960000 0.000000
vt 1.000000 1.000000
vt 0.000000 1.000000
vt 0.172800 0.333333
vt 0.960000 0.000000
vt 0.040000 0.000000
vt 0.827200 0.333333
vt 1.000000 1.000000
vt 0.000000 1.000000
vt 0.040000 0.000000
vt 0.827200 0.333333
vt 1.000000 1.000000
vt 0.000000 1.000000
vt 1.000000 0.857143
vt 0.000000 1.000000
vt 0.174375 0.285714
vt 0.968750 0.000000
vt 1.000000 0.857143
vt 0.000000 1.000000
vt 0.174375 0.285714
vt 0.968750 0.000000
vt 0.031250 0.000000
vt 0.825625 0.285714
vt 1.000000 1.000000
vt 0.000000 0.857143
vt 0.031250 0.000000
vt 0.825625 0.285714
vt 1.000000 1.000000
vt 0.000000 0.857143
vt 0.027027 0.000000
vt 0.824865 0.272727
vt 1.000000 1.000000
vt 0.000000 0.818182
vt 0.027027 0.000000
vt 0.824865 0.272727
vt 1.000000 1.000000
vt 0.000000 0.818182
vt 1.000000 0.857143
vt 0.000000 1.000000
vt 0.175500 0.285714
vt 0.975000 0.000000
vt 1.000000 0.857143
vt 0.000000 1.000000
vt 0.175500 0.285714
vt 0.975000 0.000000
vt 0.025000 0.000000
vt 0.824500 0.285714
vt 1.000000 1.000000
vt 0.000000 0.857143
vt 0.025000 0.000000
vt 0.824500 0.285714
vt 1.000000 1.000000
vt 0.000000 0.857143
vt 1.000000 0.947368
vt 0.000000 1.000000
vt 0.175000 0.315789
vt 0.972222 0.000000
vt 1.000000 0.947368
vt 0.000000 1.000000
vt 0.175000 0.315789
vt 0.972222 0.000000
vt 0.027778 0.000000
vt 0.825000 0.315789
vt 1.000000 1.000000
vt 0.000000 0.947368
vt 0.027778 0.000000
vt 0.825000 0.315789
vt 1.000000 1.000000
vt 0.000000 0.947368
vt 1.000000 1.000000
vt 0.000000 0.944444
vt 0.173793 0.333333
vt 0.965517 0.000000
vt 1.000000 1.000000
vt 0.000000 0.944444
vt 0.173793 0.333333
vt 0.965517 0.000000
vt 0.034483 0.000000
vt 0.826207 0.333333
vt 1.000000 0.944444
vt 0.000000 1.000000
vt 0.034483 0.000000
vt 0.826207 0.333333
vt 1.000000 0.944444
vt 0.000000 1.000000
vt 1.000000 1.000000
vt 0.000000 0.833333
vt 0.171429 0.333333
vt 0.952381 0.000000
vt 1.000000 1.000000
vt 0.000000 0.833333
vt 0.171429 0.333333
vt 0.952381 0.000000
vt 0.047619 0.000000
vt 0.828571 0.333333
vt 1.000000 0.833333
vt 0.000000 1.000000
vt 0.047619 0.000000
vt 0.828571 0.333333
vt 1.000000 0.833333
vt 0.000000 1.000000
vt 0.000000 0.000000
vt 1.000000 0.000000
vt 0.750000 1.000000
vt 0.000000 0.000000
vt 1.000000 0.000000
vt 0.750000 1.000000
vn -0.000000 0.000000 1.000000
vn 0.000000 0.000000 -1.000000
vn -0.028560 -0.999592 -0.000000
vn 0.999592 -0.028560 0.000000
vn 0.028560 0.999592 0.000000
vn -0.999592 0.028560 0.000000
vn 0.000000 1.000000 0.000000
vn -0.811534 -0.584305 -0.000000
vn -0.150698 -0.988580 -0.000000
vn 0.993884 -0.110432 0.000000
vn 0.150698 -0.988580 0.000000
vn 0.811534 -0.584305 0.000000
vn -0.993884 -0.110432 -0.000000
vn 0.046824 0.998903 0.000000
vn -0.802305 -0.596915 -0.000000
vn -0.117204 -0.993108 -0.000000
vn 0.117204 -0.993108 0.000000
vn 0.802305 -0.596915 0.000000
vn -0.046824 0.998903 0.000000
vn 0.101105 -0.994876 0.000000
vn 0.777064 -0.629422 0.000000
vn -0.053975 0.998542 0.000000
vn 0.037474 0.999298 0.000000
vn -0.730083 -0.683358 -0.000000
vn -0.093399 -0.995629 -0.000000
vn 0.093399 -0.995629 0.000000
vn 0.730083 -0.683358 0.000000
vn -0.037474 0.999298 0.000000
vn 0.013888 0.999904 0.000000
vn -0.718068 -0.695973 -0.000000
vn -0.103963 -0.994581 -0.000000
vn 0.103963 -0.994581 0.000000
vn 0.718068 -0.695973 0.000000
vn -0.013888 0.999904 0.000000
vn -0.017239 0.999851 0.000000
vn -0.737265 -0.675603 -0.000000
vn -0.129561 -0.991571 -0.000000
vn 0.129561 -0.991571 0.000000
vn 0.737265 -0.675603 0.000000
vn 0.017239 0.999851 0.000000
vn -0.071247 0.997459 0.000000
vn -0.780869 -0.624695 -0.000000
vn -0.179941 -0.983677 -0.000000
vn 0.179941 -0.983677 0.000000
vn 0.780869 -0.624695 0.000000
vn 0.071247 0.997459 0.000000
vn 0.000000 -1.000000 0.000000
vn 0.996729 0.080816 0.000000
vn -0.971668 0.236352 0.000000
usemtl ritual_gold
s off
f 1/1/1 2/2/1 3/3/1
s off
f 5/5/2 7/7/2 6/6/2
s off
f 1/1/1 3/3/1 4/4/1
s off
f 5/5/2 8/8/2 7/7/2
s off
f 1/1/3 5/5/3 6/6/3 2/2/3
s off
f 2/2/4 6/6/4 7/7/4 3/3/4
s off
f 3/3/5 7/7/5 8/8/5 4/4/5
s off
f 4/4/6 8/8/6 5/5/6 1/1/6
usemtl bone
s off
f 9/9/1 10/10/1 11/11/1
s off
f 13/13/2 15/15/2 14/14/2
s off
f 9/9/1 11/11/1 12/12/1
s off
f 13/13/2 16/16/2 15/15/2
s off
f 9/9/7 13/13/7 14/14/7 10/10/7
s off
f 10/10/8 14/14/8 15/15/8 11/11/8
s off
f 11/11/9 15/15/9 16/16/9 12/12/9
s off
f 12/12/10 16/16/10 13/13/10 9/9/10
s off
f 17/17/1 18/18/1 19/19/1
s off
f 21/21/2 23/23/2 22/22/2
s off
f 17/17/1 19/19/1 20/20/1
s off
f 21/21/2 24/24/2 23/23/2
s off
f 17/17/11 21/21/11 22/22/11 18/18/11
s off
f 18/18/12 22/22/12 23/23/12 19/19/12
s off
f 19/19/7 23/23/7 24/24/7 20/20/7
s off
f 20/20/13 24/24/13 21/21/13 17/17/13
s off
f 25/25/1 26/26/1 27/27/1
s off
f 29/29/2 31/31/2 30/30/2
s off
f 25/25/1 27/27/1 28/28/1
s off
f 29/29/2 32/32/2 31/31/2
s off
f 25/25/14 29/29/14 30/30/14 26/26/14
s off
f 26/26/15 30/30/15 31/31/15 27/27/15
s off
f 27/27/16 31/31/16 32/32/16 28/28/16
s off
f 28/28/10 32/32/10 29/29/10 25/25/10
s off
f 33/33/1 34/34/1 35/35/1
s off
f 37/37/2 39/39/2 38/38/2
s off
f 33/33/1 35/35/1 36/36/1
s off
f 37/37/2 40/40/2 39/39/2
s off
f 33/33/17 37/37/17 38/38/17 34/34/17
s off
f 34/34/18 38/38/18 39/39/18 35/35/18
s off
f 35/35/19 39/39/19 40/40/19 36/36/19
s off
f 36/36/13 40/40/13 37/37/13 33/33/13
s off
f 41/41/1 42/42/1 43/43/1
s off
f 45/45/2 47/47/2 46/46/2
s off
f 41/41/1 43/43/1 44/44/1
s off
f 45/45/2 48/48/2 47/47/2
s off
f 41/41/20 45/45/20 46/46/20 42/42/20
s off
f 42/42/21 46/46/21 47/47/21 43/43/21
s off
f 43/43/22 47/47/22 48/48/22 44/44/22
s off
f 44/44/13 48/48/13 45/45/13 41/41/13
s off
f 49/49/1 50/50/1 51/51/1
s off
f 53/53/2 55/55/2 54/54/2
s off
f 49/49/1 51/51/1 52/52/1
s off
f 53/53/2 56/56/2 55/55/2
s off
f 49/49/23 53/53/23 54/54/23 50/50/23
s off
f 50/50/24 54/54/24 55/55/24 51/51/24
s off
f 51/51/25 55/55/25 56/56/25 52/52/25
s off
f 52/52/10 56/56/10 53/53/10 49/49/10
s off
f 57/57/1 58/58/1 59/59/1
s off
f 61/61/2 63/63/2 62/62/2
s off
f 57/57/1 59/59/1 60/60/1
s off
f 61/61/2 64/64/2 63/63/2
s off
f 57/57/26 61/61/26 62/62/26 58/58/26
s off
f 58/58/27 62/62/27 63/63/27 59/59/27
s off
f 59/59/28 63/63/28 64/64/28 60/60/28
s off
f 60/60/13 64/64/13 61/61/13 57/57/13
s off
f 65/65/1 66/66/1 67/67/1
s off
f 69/69/2 71/71/2 70/70/2
s off
f 65/65/1 67/67/1 68/68/1
s off
f 69/69/2 72/72/2 71/71/2
s off
f 65/65/29 69/69/29 70/70/29 66/66/29
s off
f 66/66/30 70/70/30 71/71/30 67/67/30
s off
f 67/67/31 71/71/31 72/72/31 68/68/31
s off
f 68/68/10 72/72/10 69/69/10 65/65/10
s off
f 73/73/1 74/74/1 75/75/1
s off
f 77/77/2 79/79/2 78/78/2
s off
f 73/73/1 75/75/1 76/76/1
s off
f 77/77/2 80/80/2 79/79/2
s off
f 73/73/32 77/77/32 78/78/32 74/74/32
s off
f 74/74/33 78/78/33 79/79/33 75/75/33
s off
f 75/75/34 79/79/34 80/80/34 76/76/34
s off
f 76/76/13 80/80/13 77/77/13 73/73/13
s off
f 81/81/1 82/82/1 83/83/1
s off
f 85/85/2 87/87/2 86/86/2
s off
f 81/81/1 83/83/1 84/84/1
s off
f 85/85/2 88/88/2 87/87/2
s off
f 81/81/35 85/85/35 86/86/35 82/82/35
s off
f 82/82/36 86/86/36 87/87/36 83/83/36
s off
f 83/83/37 87/87/37 88/88/37 84/84/37
s off
f 84/84/10 88/88/10 85/85/10 81/81/10
s off
f 89/89/1 90/90/1 91/91/1
s off
f 93/93/2 95/95/2 94/94/2
s off
f 89/89/1 91/91/1 92/92/1
s off
f 93/93/2 96/96/2 95/95/2
s off
f 89/89/38 93/93/38 94/94/38 90/90/38
s off
f 90/90/39 94/94/39 95/95/39 91/91/39
s off
f 91/91/40 95/95/40 96/96/40 92/92/40
s off
f 92/92/13 96/96/13 93/93/13 89/89/13
s off
f 97/97/1 98/98/1 99/99/1
s off
f 101/101/2 103/103/2 102/102/2
s off
f 97/97/1 99/99/1 100/100/1
s off
f 101/101/2 104/104/2 103/103/2
s off
f 97/97/41 101/101/41 102/102/41 98/98/41
s off
f 98/98/42 102/102/42 103/103/42 99/99/42
s off
f 99/99/43 103/103/43 104/104/43 100/100/43
s off
f 100/100/10 104/104/10 101/101/10 97/97/10
s off
f 105/105/1 106/106/1 107/107/1
s off
f 109/109/2 111/111/2 110/110/2
s off
f 105/105/1 107/107/1 108/108/1
s off
f 109/109/2 112/112/2 111/111/2
s off
f 105/105/44 109/109/44 110/110/44 106/106/44
s off
f 106/106/45 110/110/45 111/111/45 107/107/45
s off
f 107/107/46 111/111/46 112/112/46 108/108/46
s off
f 108/108/13 112/112/13 109/109/13 105/105/13
s off
f 113/113/1 114/114/1 115/115/1
s off
f 116/116/2 118/118/2 117/117/2
s off
f 113/113/47 116/116/47 117/117/47 114/114/47
s off
f 114/114/48 117/117/48 118/118/48 115/115/48
s off
f 115/115/49 118/118/49 116/116/49 113/113/49
