# Second Rite deterministic completion model
# Bacchus Wine
mtllib item_complete_library.mtl
o item_170
s off
v -0.25 -0.585 0
v -0.176777 -0.585 0.176777
v 0 -0.585 0.25
v 0.176777 -0.585 0.176777
v 0.25 -0.585 0
v 0.176777 -0.585 -0.176777
v 0 -0.585 -0.25
v -0.176777 -0.585 -0.176777
v -0.195 0.415 0
v -0.137886 0.415 0.137886
v 0 0.415 0.195
v 0.137886 0.415 0.137886
v 0.195 0.415 0
v 0.137886 0.415 -0.137886
v 0 0.415 -0.195
v -0.137886 0.415 -0.137886
v 0 -0.585 0
v 0 0.415 0
v -0.12 0.355 0
v -0.06 0.355 0.103923
v 0.06 0.355 0.103923
v 0.12 0.355 0
v 0.06 0.355 -0.103923
v -0.06 0.355 -0.103923
v -0.1 0.635 0
v -0.05 0.635 0.086603
v 0.05 0.635 0.086603
v 0.1 0.635 0
v 0.05 0.635 -0.086603
v -0.05 0.635 -0.086603
v 0 0.355 0
v 0 0.635 0
v -0.225 -0.635 -0.225
v 0.225 -0.635 -0.225
v 0.225 -0.5349999999999999 -0.225
v -0.225 -0.5349999999999999 -0.225
v -0.225 -0.635 0.225
v 0.225 -0.635 0.225
v 0.225 -0.5349999999999999 0.225
v -0.225 -0.5349999999999999 0.225
usemtl smoked_glass
f 17 2 1
f 18 9 10
f 1 2 10
f 1 10 9
f 17 3 2
f 18 10 11
f 2 3 11
f 2 11 10
f 17 4 3
f 18 11 12
f 3 4 12
f 3 12 11
f 17 5 4
f 18 12 13
f 4 5 13
f 4 13 12
f 17 6 5
f 18 13 14
f 5 6 14
f 5 14 13
f 17 7 6
f 18 14 15
f 6 7 15
f 6 15 14
f 17 8 7
f 18 15 16
f 7 8 16
f 7 16 15
f 17 1 8
f 18 16 9
f 8 1 9
f 8 9 16
usemtl ritual_gold
f 31 20 19
f 32 25 26
f 19 20 26
f 19 26 25
f 31 21 20
f 32 26 27
f 20 21 27
f 20 27 26
f 31 22 21
f 32 27 28
f 21 22 28
f 21 28 27
f 31 23 22
f 32 28 29
f 22 23 29
f 22 29 28
f 31 24 23
f 32 29 30
f 23 24 30
f 23 30 29
f 31 19 24
f 32 30 25
f 24 19 25
f 24 25 30
usemtl aged_cloth
f 33 36 35
f 33 35 34
f 37 38 39
f 37 39 40
f 33 34 38
f 33 38 37
f 36 40 39
f 36 39 35
f 33 37 40
f 33 40 36
f 34 35 39
f 34 39 38
