# Batch C: authored as spatial sweep gestures
# generated by tools/asset-production/lathe.py
mtllib swept_cohort.mtl
o barbed_spear
v 0.027497 -1.120410 0.047631
v 0.054994 -1.120821 0.000000
v 0.027497 -1.120410 -0.047631
v -0.027497 -1.119590 -0.047631
v -0.054994 -1.119179 -0.000000
v -0.027497 -1.119590 0.047631
v 0.039005 -0.450550 0.050224
v 0.067998 -0.449554 0.000000
v 0.038993 -0.449004 -0.050224
v -0.019005 -0.449450 -0.050224
v -0.047998 -0.450446 -0.000000
v -0.018993 -0.450996 0.050224
v 0.017498 0.180243 0.067632
v 0.044998 0.180487 0.020001
v 0.017500 0.180243 -0.027631
v -0.037498 0.179757 -0.027632
v -0.064998 0.179513 0.019999
v -0.037500 0.179757 0.067631
v 0.024028 0.681181 0.041536
v 0.047990 0.679040 0.000001
v 0.023963 0.677859 -0.041536
v -0.024028 0.678819 -0.041536
v -0.047990 0.680960 -0.000001
v -0.023963 0.682141 0.041536
v 0.000000 -1.120000 0.000000
v 0.000000 0.680000 0.000000
v 0.140729 0.600000 -0.020800
v 0.000000 0.600000 -0.041600
v -0.140729 0.600000 -0.020800
v -0.140729 0.600000 0.020800
v -0.000000 0.600000 0.041600
v 0.140729 0.600000 0.020800
v 0.230350 0.863507 -0.048535
v -0.004878 0.872165 -0.055745
v -0.235228 0.878658 -0.007210
v -0.230350 0.876493 0.048535
v 0.004878 0.867835 0.055745
v 0.235228 0.861342 0.007210
v 0.148072 1.160000 -0.018595
v 0.014543 1.160000 -0.010719
v -0.113529 1.160000 0.027876
v -0.108072 1.160000 0.058595
v 0.025457 1.160000 0.050719
v 0.153529 1.160000 0.012124
v 0.014541 1.420668 -0.005860
v -0.000933 1.419662 -0.003460
v -0.015475 1.418994 0.002400
v -0.014541 1.419332 0.005860
v 0.000933 1.420338 0.003460
v 0.015475 1.421006 -0.002400
v 0.000000 0.600000 -0.000000
v 0.000000 1.420000 -0.000000
v -0.075502 0.557993 0.012936
v -0.095538 0.560881 0.006774
v -0.107921 0.548731 0.018890
v -0.095538 0.538335 0.032540
v -0.075502 0.544059 0.028860
v -0.086994 0.630520 0.077567
v -0.104762 0.642012 0.077469
v -0.115949 0.636904 0.094688
v -0.105095 0.622255 0.105429
v -0.087200 0.618309 0.094847
v -0.001552 0.681008 0.104484
v -0.001330 0.702051 0.106696
v 0.000729 0.706440 0.127293
v 0.001781 0.688109 0.137812
v 0.000371 0.672391 0.123715
v 0.083661 0.623779 0.065717
v 0.093765 0.639766 0.056225
v 0.112485 0.642256 0.065770
v 0.113952 0.627809 0.081160
v 0.096137 0.616389 0.081128
v 0.072276 0.548906 -0.017058
v 0.081896 0.562449 -0.030165
v 0.102716 0.558788 -0.029224
v 0.105963 0.542982 -0.015535
v 0.087150 0.536875 -0.008016
v -0.090000 0.550000 0.020000
v 0.090000 0.550000 -0.020000
v -0.000660 0.971356 0.055098
v -0.017097 0.976541 -0.021046
v -0.009906 0.945047 -0.068105
v 0.010975 0.920398 -0.021046
v 0.016689 0.936658 0.055098
v -0.220361 0.856585 0.081101
v -0.238151 0.856272 0.025317
v -0.230857 0.833472 -0.010175
v -0.208559 0.819694 0.023673
v -0.202072 0.833978 0.080085
v -0.340136 0.674582 0.120894
v -0.346114 0.672902 0.106568
v -0.343642 0.667212 0.096985
v -0.336137 0.665374 0.105388
v -0.333970 0.669929 0.120165
v 0.000000 0.950000 0.000000
v -0.340000 0.670000 0.110000
v 0.001272 0.997678 0.054703
v -0.017835 0.993828 -0.020895
v -0.012294 1.026147 -0.067617
v 0.010237 1.049971 -0.020895
v 0.018621 1.032376 0.054703
v 0.221908 0.892183 -0.009461
v 0.201687 0.893651 -0.064392
v 0.206774 0.917712 -0.099433
v 0.230139 0.931116 -0.066159
v 0.239492 0.915338 -0.010554
v 0.360677 0.734919 -0.129350
v 0.353977 0.736801 -0.143327
v 0.355601 0.743104 -0.152706
v 0.363304 0.745117 -0.144526
v 0.366442 0.740059 -0.130091
v -0.000000 1.020000 -0.000000
v 0.360000 0.740000 -0.140000
v 0.055441 1.120011 0.004264
v -0.021177 1.125755 0.018107
v -0.068529 1.095907 0.006926
v -0.021177 1.071715 -0.013826
v 0.055441 1.086612 -0.015471
v 0.071240 0.986046 0.222501
v 0.014928 0.985465 0.238533
v -0.020555 0.963512 0.228953
v 0.013827 0.950525 0.207000
v 0.070560 0.964452 0.203012
v 0.110869 0.794608 0.340573
v 0.096401 0.792680 0.346120
v 0.086907 0.787048 0.343210
v 0.095507 0.785495 0.335864
v 0.110316 0.790168 0.334234
v -0.000000 1.100000 0.000000
v 0.100000 0.790000 0.340000
v 0.055618 0.860914 0.005890
v -0.021244 0.854025 0.017709
v -0.068748 0.883033 0.005055
v -0.021244 0.907850 -0.014585
v 0.055618 0.894179 -0.014069
v 0.021297 0.744224 -0.196814
v -0.035305 0.744340 -0.181825
v -0.070756 0.766098 -0.191953
v -0.036064 0.779428 -0.213202
v 0.020828 0.765910 -0.216206
v -0.069191 0.605260 -0.299375
v -0.083653 0.607384 -0.293885
v -0.093066 0.613124 -0.296846
v -0.084423 0.614546 -0.304166
v -0.069667 0.609686 -0.305729
v 0.000000 0.880000 -0.000000
v -0.080000 0.610000 -0.300000
vt 0.000000 0.000000
vt 0.166667 0.000000
vt 0.333333 0.000000
vt 0.500000 0.000000
vt 0.666667 0.000000
vt 0.833333 0.000000
vt 0.000000 0.372014
vt 0.166667 0.372014
vt 0.333333 0.372014
vt 0.500000 0.372014
vt 0.666667 0.372014
vt 0.833333 0.372014
vt 0.000000 0.722131
vt 0.166667 0.722131
vt 0.333333 0.722131
vt 0.500000 0.722131
vt 0.666667 0.722131
vt 0.833333 0.722131
vt 0.000000 1.000000
vt 0.166667 1.000000
vt 0.333333 1.000000
vt 0.500000 1.000000
vt 0.666667 1.000000
vt 0.833333 1.000000
vt 0.500000 0.500000
vt 0.500000 0.500000
vt 0.000000 0.000000
vt 0.166667 0.000000
vt 0.333333 0.000000
vt 0.500000 0.000000
vt 0.666667 0.000000
vt 0.833333 0.000000
vt 0.000000 0.328104
vt 0.166667 0.328104
vt 0.333333 0.328104
vt 0.500000 0.328104
vt 0.666667 0.328104
vt 0.833333 0.328104
vt 0.000000 0.682184
vt 0.166667 0.682184
vt 0.333333 0.682184
vt 0.500000 0.682184
vt 0.666667 0.682184
vt 0.833333 0.682184
vt 0.000000 1.000000
vt 0.166667 1.000000
vt 0.333333 1.000000
vt 0.500000 1.000000
vt 0.666667 1.000000
vt 0.833333 1.000000
vt 0.500000 0.500000
vt 0.500000 0.500000
vt 0.000000 0.000000
vt 0.200000 0.000000
vt 0.400000 0.000000
vt 0.600000 0.000000
vt 0.800000 0.000000
vt 0.000000 0.224827
vt 0.200000 0.224827
vt 0.400000 0.224827
vt 0.600000 0.224827
vt 0.800000 0.224827
vt 0.000000 0.478386
vt 0.200000 0.478386
vt 0.400000 0.478386
vt 0.600000 0.478386
vt 0.800000 0.478386
vt 0.000000 0.745568
vt 0.200000 0.745568
vt 0.400000 0.745568
vt 0.600000 0.745568
vt 0.800000 0.745568
vt 0.000000 1.000000
vt 0.200000 1.000000
vt 0.400000 1.000000
vt 0.600000 1.000000
vt 0.800000 1.000000
vt 0.500000 0.500000
vt 0.500000 0.500000
vt 0.000000 0.000000
vt 0.200000 0.000000
vt 0.400000 0.000000
vt 0.600000 0.000000
vt 0.800000 0.000000
vt 0.000000 0.531631
vt 0.200000 0.531631
vt 0.400000 0.531631
vt 0.600000 0.531631
vt 0.800000 0.531631
vt 0.000000 1.000000
vt 0.200000 1.000000
vt 0.400000 1.000000
vt 0.600000 1.000000
vt 0.800000 1.000000
vt 0.500000 0.500000
vt 0.500000 0.500000
vt 0.000000 0.000000
vt 0.200000 0.000000
vt 0.400000 0.000000
vt 0.600000 0.000000
vt 0.800000 0.000000
vt 0.000000 0.513388
vt 0.200000 0.513388
vt 0.400000 0.513388
vt 0.600000 0.513388
vt 0.800000 0.513388
vt 0.000000 1.000000
vt 0.200000 1.000000
vt 0.400000 1.000000
vt 0.600000 1.000000
vt 0.800000 1.000000
vt 0.500000 0.500000
vt 0.500000 0.500000
vt 0.000000 0.000000
vt 0.200000 0.000000
vt 0.400000 0.000000
vt 0.600000 0.000000
vt 0.800000 0.000000
vt 0.000000 0.530864
vt 0.200000 0.530864
vt 0.400000 0.530864
vt 0.600000 0.530864
vt 0.800000 0.530864
vt 0.000000 1.000000
vt 0.200000 1.000000
vt 0.400000 1.000000
vt 0.600000 1.000000
vt 0.800000 1.000000
vt 0.500000 0.500000
vt 0.500000 0.500000
vt 0.000000 0.000000
vt 0.200000 0.000000
vt 0.400000 0.000000
vt 0.600000 0.000000
vt 0.800000 0.000000
vt 0.000000 0.551986
vt 0.200000 0.551986
vt 0.400000 0.551986
vt 0.600000 0.551986
vt 0.800000 0.551986
vt 0.000000 1.000000
vt 0.200000 1.000000
vt 0.400000 1.000000
vt 0.600000 1.000000
vt 0.800000 1.000000
vt 0.500000 0.500000
vt 0.500000 0.500000
vn 0.499873 -0.011918 0.866017
vn 0.999813 -0.019359 -0.000000
vn 0.999963 0.008569 0.000281
vn 0.499963 -0.009380 0.865996
vn 0.499873 -0.011907 -0.866017
vn 0.499822 0.018114 -0.865939
vn -0.500006 0.002997 -0.866017
vn -0.500100 0.009692 -0.865913
vn -0.999945 0.010470 0.000000
vn -0.999966 -0.008239 -0.000187
vn -0.500006 0.003006 0.866017
vn -0.499884 -0.017771 0.865910
vn 0.999883 0.015263 0.000364
vn 0.500005 0.015895 0.865877
vn 0.500028 0.008748 -0.865965
vn -0.500112 0.002875 -0.865956
vn -0.999994 0.003466 -0.000409
vn -0.500110 0.009972 0.865905
vn 0.999982 -0.005975 0.000166
vn 0.499702 0.038623 0.865336
vn 0.499961 -0.030633 -0.865506
vn -0.499961 -0.010641 -0.865983
vn -0.999426 0.033873 -0.000443
vn -0.499497 0.058438 0.864342
vn -0.014924 -0.999889 -0.000000
vn 0.019980 0.999001 -0.039960
vn 0.719323 -0.244033 -0.650402
vn -0.000088 -0.025315 -0.999680
vn -0.040769 0.077811 -0.996134
vn 0.713553 0.018765 -0.700350
vn -0.726989 -0.205134 -0.655292
vn -0.762413 0.098780 -0.639507
vn -0.722231 -0.235539 0.650311
vn -0.700071 0.018105 0.713844
vn 0.000091 -0.025758 0.999668
vn 0.044809 0.002254 0.998993
vn 0.724181 -0.214296 0.655469
vn 0.766406 -0.003158 0.642349
vn -0.128399 0.100141 -0.986654
vn 0.603715 0.301969 -0.737796
vn -0.769445 0.323704 -0.550608
vn -0.595334 0.316127 0.738675
vn 0.130880 0.112537 0.984990
vn 0.766737 0.320620 0.556163
vn -0.174879 0.019858 -0.984390
vn 0.547273 0.321966 -0.772548
vn -0.807651 0.253860 -0.532217
vn -0.560822 0.357345 0.746849
vn 0.171378 0.193908 0.965935
vn 0.749902 0.425891 0.506225
vn 0.000000 -1.000000 0.000000
vn -0.076472 0.994135 -0.076472
vn 0.804218 0.453107 -0.384614
vn -0.308223 0.609338 -0.730552
vn -0.269997 0.657517 -0.703401
vn 0.693183 0.092750 -0.714769
vn -0.996865 -0.059559 -0.052078
vn -0.894669 0.373714 0.244756
vn -0.308139 -0.644069 0.700161
vn -0.228924 -0.473104 0.850744
vn 0.803927 -0.318983 0.501947
vn 0.694158 -0.639570 0.330296
vn -0.125322 0.686649 -0.716106
vn -0.116633 -0.386442 -0.914910
vn 0.011087 0.894099 0.447732
vn 0.103367 -0.217064 0.970669
vn 0.037290 -0.973073 0.227462
vn -0.221816 0.703526 -0.675166
vn -0.921758 -0.209935 -0.326021
vn 0.729135 0.678030 -0.092943
vn 0.677696 -0.317058 0.663477
vn -0.334685 -0.805088 0.489713
vn -0.405719 0.713986 -0.570628
vn -0.991815 0.012841 0.127039
vn 0.765494 0.449075 -0.460816
vn 0.864063 -0.411087 0.290523
vn -0.232243 -0.702717 0.672497
vn 0.093659 -0.749269 -0.655610
vn -0.082761 -0.662085 -0.744845
vn -0.232392 0.610368 0.757261
vn -0.500961 0.841266 -0.203248
vn -0.714096 0.684928 -0.144706
vn -0.318056 0.528608 0.787029
vn -0.207802 -0.103949 -0.972632
vn -0.290538 -0.212039 -0.933074
vn 0.371697 -0.905857 -0.203138
vn 0.527174 -0.814403 -0.242558
vn 0.347111 -0.552894 0.757511
vn 0.499560 -0.455448 0.736890
vn -0.873942 0.480037 -0.076088
vn -0.398813 0.439163 0.805037
vn -0.367319 -0.315706 -0.874875
vn 0.664826 -0.695034 -0.273740
vn 0.636180 -0.342203 0.691500
vn 0.882830 0.441415 -0.160514
vn -0.546585 -0.774329 0.318841
vn -0.105280 -0.673900 0.731283
vn -0.439890 -0.871754 -0.215737
vn -0.602142 -0.779425 -0.172978
vn -0.125688 -0.676303 0.725821
vn -0.113698 0.057005 -0.991879
vn -0.166057 0.083721 -0.982556
vn 0.431298 0.876146 -0.215290
vn 0.579772 0.769841 -0.266849
vn 0.475886 0.488601 0.731301
vn 0.657837 0.346703 0.668616
vn -0.742168 -0.658655 -0.123931
vn -0.146348 -0.678430 0.719941
vn -0.218605 0.110537 -0.969533
vn 0.706992 0.636301 -0.308680
vn 0.799441 0.188732 0.570329
vn -0.876501 0.438250 0.199205
vn 0.588464 -0.714563 -0.378298
vn 0.759288 0.576409 0.302051
vn -0.206387 0.809407 0.549786
vn -0.159639 0.650402 0.742626
vn 0.780360 0.505736 0.367789
vn -0.982442 -0.094963 0.160592
vn -0.944786 -0.213730 0.248391
vn -0.206346 -0.872308 -0.443283
vn -0.234331 -0.782133 -0.577370
vn 0.759461 -0.543559 -0.357439
vn 0.745209 -0.437103 -0.503591
vn -0.102953 0.450714 0.886711
vn 0.793816 0.430126 0.429940
vn -0.885639 -0.326812 0.329906
vn -0.256045 -0.670722 -0.696113
vn 0.706252 -0.315791 -0.633628
vn -0.116598 0.505259 -0.855054
vn 0.307860 -0.791639 0.527759
vn 0.749623 -0.622063 0.226059
vn -0.214963 -0.849798 0.481284
vn -0.190817 -0.735950 0.649589
vn 0.735163 -0.635885 0.234917
vn -0.999977 0.003611 0.005655
vn -0.997575 0.035154 0.060061
vn -0.214772 0.826250 -0.520753
vn -0.251218 0.690702 -0.678101
vn 0.749630 0.492232 -0.442451
vn 0.700732 0.306085 -0.644427
vn -0.158731 -0.591512 0.790518
vn 0.720025 -0.649692 0.243851
vn -0.991050 0.067203 0.115341
vn -0.276407 0.525257 -0.804801
vn 0.601532 0.103306 -0.792141
vn 0.085436 0.512615 0.854358
vn -0.315789 -0.789474 -0.526316
usemtl dark_wood
s 1
f 1/1/1 2/2/2 8/8/3 7/7/4
s 1
f 2/2/2 3/3/5 9/9/6 8/8/3
s 1
f 3/3/5 4/4/7 10/10/8 9/9/6
s 1
f 4/4/7 5/5/9 11/11/10 10/10/8
s 1
f 5/5/9 6/6/11 12/12/12 11/11/10
s 1
f 6/6/11 1/1/1 7/7/4 12/12/12
s 1
f 7/7/4 8/8/3 14/14/13 13/13/14
s 1
f 8/8/3 9/9/6 15/15/15 14/14/13
s 1
f 9/9/6 10/10/8 16/16/16 15/15/15
s 1
f 10/10/8 11/11/10 17/17/17 16/16/16
s 1
f 11/11/10 12/12/12 18/18/18 17/17/17
s 1
f 12/12/12 7/7/4 13/13/14 18/18/18
s 1
f 13/13/14 14/14/13 20/20/19 19/19/20
s 1
f 14/14/13 15/15/15 21/21/21 20/20/19
s 1
f 15/15/15 16/16/16 22/22/22 21/21/21
s 1
f 16/16/16 17/17/17 23/23/23 22/22/22
s 1
f 17/17/17 18/18/18 24/24/24 23/23/23
s 1
f 18/18/18 13/13/14 19/19/20 24/24/24
s off
f 25/25/25 2/2/25 1/1/25
s off
f 25/25/25 3/3/25 2/2/25
s off
f 25/25/25 4/4/25 3/3/25
s off
f 25/25/25 5/5/25 4/4/25
s off
f 25/25/25 6/6/25 5/5/25
s off
f 25/25/25 1/1/25 6/6/25
s off
f 26/26/26 19/19/26 20/20/26
s off
f 26/26/26 20/20/26 21/21/26
s off
f 26/26/26 21/21/26 22/22/26
s off
f 26/26/26 22/22/26 23/23/26
s off
f 26/26/26 23/23/26 24/24/26
s off
f 26/26/26 24/24/26 19/19/26
usemtl wrought_iron
s 2
f 27/27/27 28/28/28 34/34/29 33/33/30
s 2
f 28/28/28 29/29/31 35/35/32 34/34/29
s 2
f 29/29/31 30/30/33 36/36/34 35/35/32
s 2
f 30/30/33 31/31/35 37/37/36 36/36/34
s 2
f 31/31/35 32/32/37 38/38/38 37/37/36
s 2
f 32/32/37 27/27/27 33/33/30 38/38/38
s 2
f 33/33/30 34/34/29 40/40/39 39/39/40
s 2
f 34/34/29 35/35/32 41/41/41 40/40/39
s 2
f 35/35/32 36/36/34 42/42/42 41/41/41
s 2
f 36/36/34 37/37/36 43/43/43 42/42/42
s 2
f 37/37/36 38/38/38 44/44/44 43/43/43
s 2
f 38/38/38 33/33/30 39/39/40 44/44/44
s 2
f 39/39/40 40/40/39 46/46/45 45/45/46
s 2
f 40/40/39 41/41/41 47/47/47 46/46/45
s 2
f 41/41/41 42/42/42 48/48/48 47/47/47
s 2
f 42/42/42 43/43/43 49/49/49 48/48/48
s 2
f 43/43/43 44/44/44 50/50/50 49/49/49
s 2
f 44/44/44 39/39/40 45/45/46 50/50/50
s off
f 51/51/51 28/28/51 27/27/51
s off
f 51/51/51 29/29/51 28/28/51
s off
f 51/51/51 30/30/51 29/29/51
s off
f 51/51/51 31/31/51 30/30/51
s off
f 51/51/51 32/32/51 31/31/51
s off
f 51/51/51 27/27/51 32/32/51
s off
f 52/52/52 45/45/52 46/46/52
s off
f 52/52/52 46/46/52 47/47/52
s off
f 52/52/52 47/47/52 48/48/52
s off
f 52/52/52 48/48/52 49/49/52
s off
f 52/52/52 49/49/52 50/50/52
s off
f 52/52/52 50/50/52 45/45/52
usemtl ritual_gold
s 3
f 53/53/53 54/54/54 59/59/55 58/58/56
s 3
f 54/54/54 55/55/57 60/60/58 59/59/55
s 3
f 55/55/57 56/56/59 61/61/60 60/60/58
s 3
f 56/56/59 57/57/61 62/62/62 61/61/60
s 3
f 57/57/61 53/53/53 58/58/56 62/62/62
s 3
f 58/58/56 59/59/55 64/64/63 63/63/64
s 3
f 59/59/55 60/60/58 65/65/65 64/64/63
s 3
f 60/60/58 61/61/60 66/66/66 65/65/65
s 3
f 61/61/60 62/62/62 67/67/67 66/66/66
s 3
f 62/62/62 58/58/56 63/63/64 67/67/67
s 3
f 63/63/64 64/64/63 69/69/68 68/68/69
s 3
f 64/64/63 65/65/65 70/70/70 69/69/68
s 3
f 65/65/65 66/66/66 71/71/71 70/70/70
s 3
f 66/66/66 67/67/67 72/72/72 71/71/71
s 3
f 67/67/67 63/63/64 68/68/69 72/72/72
s 3
f 68/68/69 69/69/68 74/74/73 73/73/74
s 3
f 69/69/68 70/70/70 75/75/75 74/74/73
s 3
f 70/70/70 71/71/71 76/76/76 75/75/75
s 3
f 71/71/71 72/72/72 77/77/77 76/76/76
s 3
f 72/72/72 68/68/69 73/73/74 77/77/77
s off
f 78/78/78 54/54/78 53/53/78
s off
f 78/78/78 55/55/78 54/54/78
s off
f 78/78/78 56/56/78 55/55/78
s off
f 78/78/78 57/57/78 56/56/78
s off
f 78/78/78 53/53/78 57/57/78
s off
f 79/79/79 73/73/79 74/74/79
s off
f 79/79/79 74/74/79 75/75/79
s off
f 79/79/79 75/75/79 76/76/79
s off
f 79/79/79 76/76/79 77/77/79
s off
f 79/79/79 77/77/79 73/73/79
usemtl wrought_iron
s 4
f 80/80/80 81/81/81 86/86/82 85/85/83
s 4
f 81/81/81 82/82/84 87/87/85 86/86/82
s 4
f 82/82/84 83/83/86 88/88/87 87/87/85
s 4
f 83/83/86 84/84/88 89/89/89 88/88/87
s 4
f 84/84/88 80/80/80 85/85/83 89/89/89
s 4
f 85/85/83 86/86/82 91/91/90 90/90/91
s 4
f 86/86/82 87/87/85 92/92/92 91/91/90
s 4
f 87/87/85 88/88/87 93/93/93 92/92/92
s 4
f 88/88/87 89/89/89 94/94/94 93/93/93
s 4
f 89/89/89 85/85/83 90/90/91 94/94/94
s off
f 95/95/95 81/81/95 80/80/95
s off
f 95/95/95 82/82/95 81/81/95
s off
f 95/95/95 83/83/95 82/82/95
s off
f 95/95/95 84/84/95 83/83/95
s off
f 95/95/95 80/80/95 84/84/95
s off
f 96/96/96 90/90/96 91/91/96
s off
f 96/96/96 91/91/96 92/92/96
s off
f 96/96/96 92/92/96 93/93/96
s off
f 96/96/96 93/93/96 94/94/96
s off
f 96/96/96 94/94/96 90/90/96
s 5
f 97/97/97 98/98/98 103/103/99 102/102/100
s 5
f 98/98/98 99/99/101 104/104/102 103/103/99
s 5
f 99/99/101 100/100/103 105/105/104 104/104/102
s 5
f 100/100/103 101/101/105 106/106/106 105/105/104
s 5
f 101/101/105 97/97/97 102/102/100 106/106/106
s 5
f 102/102/100 103/103/99 108/108/107 107/107/108
s 5
f 103/103/99 104/104/102 109/109/109 108/108/107
s 5
f 104/104/102 105/105/104 110/110/110 109/109/109
s 5
f 105/105/104 106/106/106 111/111/111 110/110/110
s 5
f 106/106/106 102/102/100 107/107/108 111/111/111
s off
f 112/112/112 98/98/112 97/97/112
s off
f 112/112/112 99/99/112 98/98/112
s off
f 112/112/112 100/100/112 99/99/112
s off
f 112/112/112 101/101/112 100/100/112
s off
f 112/112/112 97/97/112 101/101/112
s off
f 113/113/113 107/107/113 108/108/113
s off
f 113/113/113 108/108/113 109/109/113
s off
f 113/113/113 109/109/113 110/110/113
s off
f 113/113/113 110/110/113 111/111/113
s off
f 113/113/113 111/111/113 107/107/113
s 6
f 114/114/114 115/115/115 120/120/116 119/119/117
s 6
f 115/115/115 116/116/118 121/121/119 120/120/116
s 6
f 116/116/118 117/117/120 122/122/121 121/121/119
s 6
f 117/117/120 118/118/122 123/123/123 122/122/121
s 6
f 118/118/122 114/114/114 119/119/117 123/123/123
s 6
f 119/119/117 120/120/116 125/125/124 124/124/125
s 6
f 120/120/116 121/121/119 126/126/126 125/125/124
s 6
f 121/121/119 122/122/121 127/127/127 126/126/126
s 6
f 122/122/121 123/123/123 128/128/128 127/127/127
s 6
f 123/123/123 119/119/117 124/124/125 128/128/128
s off
f 129/129/129 115/115/129 114/114/129
s off
f 129/129/129 116/116/129 115/115/129
s off
f 129/129/129 117/117/129 116/116/129
s off
f 129/129/129 118/118/129 117/117/129
s off
f 129/129/129 114/114/129 118/118/129
s off
f 130/130/130 124/124/130 125/125/130
s off
f 130/130/130 125/125/130 126/126/130
s off
f 130/130/130 126/126/130 127/127/130
s off
f 130/130/130 127/127/130 128/128/130
s off
f 130/130/130 128/128/130 124/124/130
s 7
f 131/131/131 132/132/132 137/137/133 136/136/134
s 7
f 132/132/132 133/133/135 138/138/136 137/137/133
s 7
f 133/133/135 134/134/137 139/139/138 138/138/136
s 7
f 134/134/137 135/135/139 140/140/140 139/139/138
s 7
f 135/135/139 131/131/131 136/136/134 140/140/140
s 7
f 136/136/134 137/137/133 142/142/141 141/141/142
s 7
f 137/137/133 138/138/136 143/143/143 142/142/141
s 7
f 138/138/136 139/139/138 144/144/144 143/143/143
s 7
f 139/139/138 140/140/140 145/145/145 144/144/144
s 7
f 140/140/140 136/136/134 141/141/142 145/145/145
s off
f 146/146/146 132/132/146 131/131/146
s off
f 146/146/146 133/133/146 132/132/146
s off
f 146/146/146 134/134/146 133/133/146
s off
f 146/146/146 135/135/146 134/134/146
s off
f 146/146/146 131/131/146 135/135/146
s off
f 147/147/147 141/141/147 142/142/147
s off
f 147/147/147 142/142/147 143/143/147
s off
f 147/147/147 143/143/147 144/144/147
s off
f 147/147/147 144/144/147 145/145/147
s off
f 147/147/147 145/145/147 141/141/147
