# St. Maria relic showcase: composed from parts.py + lathe.py
# generated by tools/asset-production/lathe.py
mtllib relic_showcase.mtl
o bell_salt
v 0.207200 0.000000 0.000000
v 0.191428 0.000000 0.079292
v 0.146513 0.000000 0.146513
v 0.079292 0.000000 0.191428
v 0.000000 0.000000 0.207200
v -0.079292 0.000000 0.191428
v -0.146513 0.000000 0.146513
v -0.191428 0.000000 0.079292
v -0.207200 0.000000 0.000000
v -0.191428 0.000000 -0.079292
v -0.146513 0.000000 -0.146513
v -0.079292 0.000000 -0.191428
v -0.000000 0.000000 -0.207200
v 0.079292 0.000000 -0.191428
v 0.146513 0.000000 -0.146513
v 0.191428 0.000000 -0.079292
v 0.407000 0.000000 0.000000
v 0.376019 0.000000 0.155752
v 0.287792 0.000000 0.287792
v 0.155752 0.000000 0.376019
v 0.000000 0.000000 0.407000
v -0.155752 0.000000 0.376019
v -0.287792 0.000000 0.287792
v -0.376019 0.000000 0.155752
v -0.407000 0.000000 0.000000
v -0.376019 0.000000 -0.155752
v -0.287792 0.000000 -0.287792
v -0.155752 0.000000 -0.376019
v -0.000000 0.000000 -0.407000
v 0.155752 0.000000 -0.376019
v 0.287792 0.000000 -0.287792
v 0.376019 0.000000 -0.155752
v 0.740000 0.242000 0.000000
v 0.683671 0.242000 0.283186
v 0.523259 0.242000 0.523259
v 0.283186 0.242000 0.683671
v 0.000000 0.242000 0.740000
v -0.283186 0.242000 0.683671
v -0.523259 0.242000 0.523259
v -0.683671 0.242000 0.283186
v -0.740000 0.242000 0.000000
v -0.683671 0.242000 -0.283186
v -0.523259 0.242000 -0.523259
v -0.283186 0.242000 -0.683671
v -0.000000 0.242000 -0.740000
v 0.283186 0.242000 -0.683671
v 0.523259 0.242000 -0.523259
v 0.683671 0.242000 -0.283186
v 0.740000 0.440000 0.000000
v 0.683671 0.440000 0.283186
v 0.523259 0.440000 0.523259
v 0.283186 0.440000 0.683671
v 0.000000 0.440000 0.740000
v -0.283186 0.440000 0.683671
v -0.523259 0.440000 0.523259
v -0.683671 0.440000 0.283186
v -0.740000 0.440000 0.000000
v -0.683671 0.440000 -0.283186
v -0.523259 0.440000 -0.523259
v -0.283186 0.440000 -0.683671
v -0.000000 0.440000 -0.740000
v 0.283186 0.440000 -0.683671
v 0.523259 0.440000 -0.523259
v 0.683671 0.440000 -0.283186
v 0.660000 0.440000 0.000000
v 0.609760 0.440000 0.252571
v 0.466690 0.440000 0.466690
v 0.252571 0.440000 0.609760
v 0.000000 0.440000 0.660000
v -0.252571 0.440000 0.609760
v -0.466690 0.440000 0.466690
v -0.609760 0.440000 0.252571
v -0.660000 0.440000 0.000000
v -0.609760 0.440000 -0.252571
v -0.466690 0.440000 -0.466690
v -0.252571 0.440000 -0.609760
v -0.000000 0.440000 -0.660000
v 0.252571 0.440000 -0.609760
v 0.466690 0.440000 -0.466690
v 0.609760 0.440000 -0.252571
v 0.495000 0.220000 0.000000
v 0.457320 0.220000 0.189428
v 0.350018 0.220000 0.350018
v 0.189428 0.220000 0.457320
v 0.000000 0.220000 0.495000
v -0.189428 0.220000 0.457320
v -0.350018 0.220000 0.350018
v -0.457320 0.220000 0.189428
v -0.495000 0.220000 0.000000
v -0.457320 0.220000 -0.189428
v -0.350018 0.220000 -0.350018
v -0.189428 0.220000 -0.457320
v -0.000000 0.220000 -0.495000
v 0.189428 0.220000 -0.457320
v 0.350018 0.220000 -0.350018
v 0.457320 0.220000 -0.189428
v 0.198000 0.064000 0.000000
v 0.182928 0.064000 0.075771
v 0.140007 0.064000 0.140007
v 0.075771 0.064000 0.182928
v 0.000000 0.064000 0.198000
v -0.075771 0.064000 0.182928
v -0.140007 0.064000 0.140007
v -0.182928 0.064000 0.075771
v -0.198000 0.064000 0.000000
v -0.182928 0.064000 -0.075771
v -0.140007 0.064000 -0.140007
v -0.075771 0.064000 -0.182928
v -0.000000 0.064000 -0.198000
v 0.075771 0.064000 -0.182928
v 0.140007 0.064000 -0.140007
v 0.182928 0.064000 -0.075771
v 0.196840 0.040000 0.000000
v 0.181856 0.040000 0.075327
v 0.139187 0.040000 0.139187
v 0.075327 0.040000 0.181856
v 0.000000 0.040000 0.196840
v -0.075327 0.040000 0.181856
v -0.139187 0.040000 0.139187
v -0.181856 0.040000 0.075327
v -0.196840 0.040000 0.000000
v -0.181856 0.040000 -0.075327
v -0.139187 0.040000 -0.139187
v -0.075327 0.040000 -0.181856
v -0.000000 0.040000 -0.196840
v 0.075327 0.040000 -0.181856
v 0.139187 0.040000 -0.139187
v 0.181856 0.040000 -0.075327
v 0.207200 0.000000 0.000000
v 0.191428 0.000000 0.079292
v 0.146513 0.000000 0.146513
v 0.079292 0.000000 0.191428
v 0.000000 0.000000 0.207200
v -0.079292 0.000000 0.191428
v -0.146513 0.000000 0.146513
v -0.191428 0.000000 0.079292
v -0.207200 0.000000 0.000000
v -0.191428 0.000000 -0.079292
v -0.146513 0.000000 -0.146513
v -0.079292 0.000000 -0.191428
v -0.000000 0.000000 -0.207200
v 0.079292 0.000000 -0.191428
v 0.146513 0.000000 -0.146513
v 0.191428 0.000000 -0.079292
v 0.610000 0.345000 0.000000
v 0.549591 0.345000 0.264669
v 0.380329 0.345000 0.476917
v 0.135738 0.345000 0.594706
v -0.135738 0.345000 0.594706
v -0.380329 0.345000 0.476917
v -0.549591 0.345000 0.264669
v -0.610000 0.345000 0.000000
v -0.549591 0.345000 -0.264669
v -0.380329 0.345000 -0.476917
v -0.135738 0.345000 -0.594706
v 0.135738 0.345000 -0.594706
v 0.380329 0.345000 -0.476917
v 0.549591 0.345000 -0.264669
v 0.610000 0.395000 0.000000
v 0.549591 0.395000 0.264669
v 0.380329 0.395000 0.476917
v 0.135738 0.395000 0.594706
v -0.135738 0.395000 0.594706
v -0.380329 0.395000 0.476917
v -0.549591 0.395000 0.264669
v -0.610000 0.395000 0.000000
v -0.549591 0.395000 -0.264669
v -0.380329 0.395000 -0.476917
v -0.135738 0.395000 -0.594706
v 0.135738 0.395000 -0.594706
v 0.380329 0.395000 -0.476917
v 0.549591 0.395000 -0.264669
v 0.000000 0.345000 0.000000
v 0.000000 0.395000 0.000000
v -0.280000 0.380000 -0.100000
v -0.175993 0.432973 -0.100000
v -0.220362 0.442404 -0.021434
v -0.309100 0.461266 -0.021434
v -0.353469 0.470697 -0.100000
v -0.309100 0.461266 -0.178566
v -0.220362 0.442404 -0.178566
v -0.113491 0.557336 -0.100000
v -0.175114 0.570435 0.009119
v -0.298361 0.596631 0.009119
v -0.359984 0.609730 -0.100000
v -0.298361 0.596631 -0.209119
v -0.175114 0.570435 -0.209119
v -0.102513 0.730191 -0.100000
v -0.151811 0.740670 -0.012705
v -0.250409 0.761627 -0.012705
v -0.299707 0.772106 -0.100000
v -0.250409 0.761627 -0.187295
v -0.151811 0.740670 -0.187295
v -0.120081 0.877830 -0.100000
v -0.145963 0.883331 -0.054170
v -0.197726 0.894334 -0.054170
v -0.223608 0.899835 -0.100000
v -0.197726 0.894334 -0.145830
v -0.145963 0.883331 -0.145830
v -0.152758 0.978626 -0.100000
v 0.180000 0.380000 0.050000
v 0.269775 0.499096 0.050000
v 0.213536 0.485074 0.150390
v 0.101060 0.457031 0.150390
v 0.044821 0.443009 0.050000
v 0.101060 0.457031 -0.050390
v 0.213536 0.485074 -0.050390
v 0.271895 0.676932 0.050000
v 0.193787 0.657457 0.189430
v 0.037569 0.618508 0.189430
v -0.040540 0.599033 0.050000
v 0.037569 0.618508 -0.089430
v 0.193787 0.657457 -0.089430
v 0.187681 0.881598 0.050000
v 0.125194 0.866018 0.161544
v 0.000220 0.834858 0.161544
v -0.062268 0.819279 0.050000
v 0.000220 0.834858 -0.061544
v 0.125194 0.866018 -0.061544
v 0.084806 1.041314 0.050000
v 0.052000 1.033135 0.108561
v -0.013611 1.016776 0.108561
v -0.046417 1.008597 0.050000
v -0.013611 1.016776 -0.008561
v 0.052000 1.033135 -0.008561
v -0.009183 1.138771 0.050000
v 0.030000 0.380000 -0.220000
v 0.106376 0.445734 -0.211142
v 0.067419 0.434892 -0.143714
v -0.011157 0.432148 -0.143714
v -0.050776 0.440246 -0.211142
v -0.011818 0.451089 -0.278570
v 0.066758 0.453833 -0.278570
v 0.132901 0.562283 -0.194902
v 0.078794 0.547224 -0.101252
v -0.030340 0.543413 -0.101252
v -0.085366 0.554661 -0.194902
v -0.031258 0.569720 -0.288552
v 0.077875 0.573531 -0.288552
v 0.105942 0.708498 -0.174233
v 0.062656 0.696451 -0.099314
v -0.024651 0.693402 -0.099314
v -0.068672 0.702400 -0.174233
v -0.025386 0.714448 -0.249153
v 0.061921 0.717497 -0.249153
v 0.060255 0.827781 -0.157255
v 0.037530 0.821456 -0.117922
v -0.008306 0.819856 -0.117922
v -0.031417 0.824580 -0.157255
v -0.008692 0.830905 -0.196588
v 0.037144 0.832505 -0.196588
v 0.011669 0.904918 -0.146183
v 0.320000 0.380000 -0.120000
v 0.364025 0.459393 -0.120000
v 0.331314 0.446177 -0.058893
v 0.265891 0.419745 -0.058893
v 0.233180 0.406529 -0.120000
v 0.265891 0.419745 -0.181107
v 0.331314 0.446177 -0.181107
v 0.350238 0.566767 -0.120000
v 0.304806 0.548411 -0.035130
v 0.213942 0.511700 -0.035130
v 0.168510 0.493344 -0.120000
v 0.213942 0.511700 -0.204870
v 0.304806 0.548411 -0.204870
v 0.282137 0.683000 -0.120000
v 0.245792 0.668315 -0.052104
v 0.173100 0.638946 -0.052104
v 0.136755 0.624261 -0.120000
v 0.173100 0.638946 -0.187896
v 0.245792 0.668315 -0.187896
v 0.206597 0.770557 -0.120000
v 0.187516 0.762848 -0.084354
v 0.149353 0.747429 -0.084354
v 0.130271 0.739720 -0.120000
v 0.149353 0.747429 -0.155646
v 0.187516 0.762848 -0.155646
v 0.141687 0.821340 -0.120000
v -0.080000 0.380000 0.240000
v 0.019287 0.418095 0.240000
v -0.020018 0.430866 0.311582
v -0.098628 0.456408 0.311582
v -0.137934 0.469179 0.240000
v -0.098628 0.456408 0.168418
v -0.020018 0.430866 0.168418
v 0.087766 0.524830 0.240000
v 0.033175 0.542568 0.339420
v -0.076006 0.578043 0.339420
v -0.130597 0.595780 0.240000
v -0.076006 0.578043 0.140580
v 0.033175 0.542568 0.140580
v 0.114176 0.680412 0.240000
v 0.070503 0.694602 0.319536
v -0.016842 0.722982 0.319536
v -0.060514 0.737172 0.240000
v -0.016842 0.722982 0.160464
v 0.070503 0.694602 0.160464
v 0.112318 0.815863 0.240000
v 0.089390 0.823313 0.281756
v 0.043534 0.838213 0.281756
v 0.020606 0.845662 0.240000
v 0.043534 0.838213 0.198244
v 0.089390 0.823313 0.198244
v 0.092308 0.910309 0.240000
v 0.575000 0.520000 0.000000
v 0.543999 0.520000 0.186253
v 0.454339 0.520000 0.352422
v 0.315688 0.520000 0.480589
v 0.142997 0.520000 0.556935
v -0.045114 0.520000 0.573227
v -0.228360 0.520000 0.527709
v -0.386982 0.520000 0.425288
v -0.503876 0.520000 0.277008
v -0.566438 0.520000 0.098859
v -0.567921 0.520000 -0.089950
v -0.508165 0.520000 -0.269060
v -0.393615 0.520000 -0.419157
v -0.236621 0.520000 -0.524057
v -0.054112 0.520000 -0.572448
v 0.134231 0.520000 -0.559113
v 0.308100 0.520000 -0.485489
v 0.570311 0.537500 0.000000
v 0.539563 0.537500 0.184734
v 0.450634 0.537500 0.349548
v 0.313114 0.537500 0.476670
v 0.141831 0.537500 0.552394
v -0.044746 0.537500 0.568553
v -0.226498 0.537500 0.523405
v -0.383826 0.537500 0.421820
v -0.499767 0.537500 0.274749
v -0.561819 0.537500 0.098053
v -0.563289 0.537500 -0.089216
v -0.504021 0.537500 -0.266865
v -0.390405 0.537500 -0.415739
v -0.234691 0.537500 -0.519783
v -0.053671 0.537500 -0.567780
v 0.133136 0.537500 -0.554553
v 0.305588 0.537500 -0.481529
v 0.557500 0.550311 0.000000
v 0.527443 0.550311 0.180584
v 0.440511 0.550311 0.341696
v 0.306080 0.550311 0.465963
v 0.138645 0.550311 0.539985
v -0.043741 0.550311 0.555781
v -0.221410 0.550311 0.511648
v -0.375204 0.550311 0.412344
v -0.488541 0.550311 0.268578
v -0.549198 0.550311 0.095850
v -0.550636 0.550311 -0.087212
v -0.492699 0.550311 -0.260871
v -0.381635 0.550311 -0.406400
v -0.229419 0.550311 -0.508107
v -0.052465 0.550311 -0.555026
v 0.130146 0.550311 -0.542096
v 0.298723 0.550311 -0.470713
v 0.540000 0.555000 0.000000
v 0.510886 0.555000 0.174915
v 0.426684 0.555000 0.330970
v 0.296472 0.555000 0.451336
v 0.134293 0.555000 0.523035
v -0.042368 0.555000 0.538335
v -0.214460 0.555000 0.495587
v -0.363427 0.555000 0.399401
v -0.473206 0.555000 0.260147
v -0.531959 0.555000 0.092842
v -0.533352 0.555000 -0.084475
v -0.477233 0.555000 -0.252682
v -0.369655 0.555000 -0.393643
v -0.222218 0.555000 -0.492158
v -0.050818 0.555000 -0.537603
v 0.126060 0.555000 -0.525080
v 0.289346 0.555000 -0.455937
v 0.522500 0.550311 0.000000
v 0.494330 0.550311 0.169247
v 0.412856 0.550311 0.320244
v 0.286864 0.550311 0.436709
v 0.129940 0.550311 0.506085
v -0.040995 0.550311 0.520889
v -0.207510 0.550311 0.479527
v -0.351649 0.550311 0.386457
v -0.457870 0.550311 0.251716
v -0.514720 0.550311 0.089833
v -0.516067 0.550311 -0.081737
v -0.461768 0.550311 -0.244493
v -0.357676 0.550311 -0.380886
v -0.215016 0.550311 -0.476208
v -0.049172 0.550311 -0.520181
v 0.121975 0.550311 -0.508063
v 0.279970 0.550311 -0.441161
v 0.509689 0.537500 0.000000
v 0.482209 0.537500 0.165097
v 0.402733 0.537500 0.312392
v 0.279831 0.537500 0.426002
v 0.126755 0.537500 0.493676
v -0.039990 0.537500 0.508118
v -0.202422 0.537500 0.467770
v -0.343027 0.537500 0.376982
v -0.446644 0.537500 0.245545
v -0.502099 0.537500 0.087630
v -0.503414 0.537500 -0.079733
v -0.450446 0.537500 -0.238499
v -0.348906 0.537500 -0.371547
v -0.209744 0.537500 -0.464532
v -0.047966 0.537500 -0.507427
v 0.118985 0.537500 -0.495606
v 0.273105 0.537500 -0.430345
v 0.505000 0.520000 0.000000
v 0.477773 0.520000 0.163578
v 0.399028 0.520000 0.309518
v 0.277257 0.520000 0.422083
v 0.125588 0.520000 0.489134
v -0.039622 0.520000 0.503443
v -0.200560 0.520000 0.463466
v -0.339871 0.520000 0.373514
v -0.442535 0.520000 0.243286
v -0.497480 0.520000 0.086824
v -0.498783 0.520000 -0.078999
v -0.446302 0.520000 -0.236305
v -0.345696 0.520000 -0.368129
v -0.207815 0.520000 -0.460259
v -0.047525 0.520000 -0.502759
v 0.117890 0.520000 -0.491047
v 0.270593 0.520000 -0.426386
v 0.509689 0.502500 0.000000
v 0.482209 0.502500 0.165097
v 0.402733 0.502500 0.312392
v 0.279831 0.502500 0.426002
v 0.126755 0.502500 0.493676
v -0.039990 0.502500 0.508118
v -0.202422 0.502500 0.467770
v -0.343027 0.502500 0.376982
v -0.446644 0.502500 0.245545
v -0.502099 0.502500 0.087630
v -0.503414 0.502500 -0.079733
v -0.450446 0.502500 -0.238499
v -0.348906 0.502500 -0.371547
v -0.209744 0.502500 -0.464532
v -0.047966 0.502500 -0.507427
v 0.118985 0.502500 -0.495606
v 0.273105 0.502500 -0.430345
v 0.522500 0.489689 0.000000
v 0.494330 0.489689 0.169247
v 0.412856 0.489689 0.320244
v 0.286864 0.489689 0.436709
v 0.129940 0.489689 0.506085
v -0.040995 0.489689 0.520889
v -0.207510 0.489689 0.479527
v -0.351649 0.489689 0.386457
v -0.457870 0.489689 0.251716
v -0.514720 0.489689 0.089833
v -0.516067 0.489689 -0.081737
v -0.461768 0.489689 -0.244493
v -0.357676 0.489689 -0.380886
v -0.215016 0.489689 -0.476208
v -0.049172 0.489689 -0.520181
v 0.121975 0.489689 -0.508063
v 0.279970 0.489689 -0.441161
v 0.540000 0.485000 0.000000
v 0.510886 0.485000 0.174915
v 0.426684 0.485000 0.330970
v 0.296472 0.485000 0.451336
v 0.134293 0.485000 0.523035
v -0.042368 0.485000 0.538335
v -0.214460 0.485000 0.495587
v -0.363427 0.485000 0.399401
v -0.473206 0.485000 0.260147
v -0.531959 0.485000 0.092842
v -0.533352 0.485000 -0.084475
v -0.477233 0.485000 -0.252682
v -0.369655 0.485000 -0.393643
v -0.222218 0.485000 -0.492158
v -0.050818 0.485000 -0.537603
v 0.126060 0.485000 -0.525080
v 0.289346 0.485000 -0.455937
v 0.557500 0.489689 0.000000
v 0.527443 0.489689 0.180584
v 0.440511 0.489689 0.341696
v 0.306080 0.489689 0.465963
v 0.138645 0.489689 0.539985
v -0.043741 0.489689 0.555781
v -0.221410 0.489689 0.511648
v -0.375204 0.489689 0.412344
v -0.488541 0.489689 0.268578
v -0.549198 0.489689 0.095850
v -0.550636 0.489689 -0.087212
v -0.492699 0.489689 -0.260871
v -0.381635 0.489689 -0.406400
v -0.229419 0.489689 -0.508107
v -0.052465 0.489689 -0.555026
v 0.130146 0.489689 -0.542096
v 0.298723 0.489689 -0.470713
v 0.570311 0.502500 0.000000
v 0.539563 0.502500 0.184734
v 0.450634 0.502500 0.349548
v 0.313114 0.502500 0.476670
v 0.141831 0.502500 0.552394
v -0.044746 0.502500 0.568553
v -0.226498 0.502500 0.523405
v -0.383826 0.502500 0.421820
v -0.499767 0.502500 0.274749
v -0.561819 0.502500 0.098053
v -0.563289 0.502500 -0.089216
v -0.504021 0.502500 -0.266865
v -0.390405 0.502500 -0.415739
v -0.234691 0.502500 -0.519783
v -0.053671 0.502500 -0.567780
v 0.133136 0.502500 -0.554553
v 0.305588 0.502500 -0.481529
v 0.575000 0.520000 0.000000
v 0.543999 0.520000 0.186253
v 0.454339 0.520000 0.352422
v 0.315688 0.520000 0.480589
v 0.142997 0.520000 0.556935
v -0.045114 0.520000 0.573227
v -0.228360 0.520000 0.527709
v -0.386982 0.520000 0.425288
v -0.503876 0.520000 0.277008
v -0.566438 0.520000 0.098859
v -0.567921 0.520000 -0.089950
v -0.508165 0.520000 -0.269060
v -0.393615 0.520000 -0.419157
v -0.236621 0.520000 -0.524057
v -0.054112 0.520000 -0.572448
v 0.134231 0.520000 -0.559113
v 0.308100 0.520000 -0.485489
vt 0.000000 0.000000
vt 0.062500 0.000000
vt 0.125000 0.000000
vt 0.187500 0.000000
vt 0.250000 0.000000
vt 0.312500 0.000000
vt 0.375000 0.000000
vt 0.437500 0.000000
vt 0.500000 0.000000
vt 0.562500 0.000000
vt 0.625000 0.000000
vt 0.687500 0.000000
vt 0.750000 0.000000
vt 0.812500 0.000000
vt 0.875000 0.000000
vt 0.937500 0.000000
vt 0.000000 0.127646
vt 0.062500 0.127646
vt 0.125000 0.127646
vt 0.187500 0.127646
vt 0.250000 0.127646
vt 0.312500 0.127646
vt 0.375000 0.127646
vt 0.437500 0.127646
vt 0.500000 0.127646
vt 0.562500 0.127646
vt 0.625000 0.127646
vt 0.687500 0.127646
vt 0.750000 0.127646
vt 0.812500 0.127646
vt 0.875000 0.127646
vt 0.937500 0.127646
vt 0.000000 0.390633
vt 0.062500 0.390633
vt 0.125000 0.390633
vt 0.187500 0.390633
vt 0.250000 0.390633
vt 0.312500 0.390633
vt 0.375000 0.390633
vt 0.437500 0.390633
vt 0.500000 0.390633
vt 0.562500 0.390633
vt 0.625000 0.390633
vt 0.687500 0.390633
vt 0.750000 0.390633
vt 0.812500 0.390633
vt 0.875000 0.390633
vt 0.937500 0.390633
vt 0.000000 0.517129
vt 0.062500 0.517129
vt 0.125000 0.517129
vt 0.187500 0.517129
vt 0.250000 0.517129
vt 0.312500 0.517129
vt 0.375000 0.517129
vt 0.437500 0.517129
vt 0.500000 0.517129
vt 0.562500 0.517129
vt 0.625000 0.517129
vt 0.687500 0.517129
vt 0.750000 0.517129
vt 0.812500 0.517129
vt 0.875000 0.517129
vt 0.937500 0.517129
vt 0.000000 0.568238
vt 0.062500 0.568238
vt 0.125000 0.568238
vt 0.187500 0.568238
vt 0.250000 0.568238
vt 0.312500 0.568238
vt 0.375000 0.568238
vt 0.437500 0.568238
vt 0.500000 0.568238
vt 0.562500 0.568238
vt 0.625000 0.568238
vt 0.687500 0.568238
vt 0.750000 0.568238
vt 0.812500 0.568238
vt 0.875000 0.568238
vt 0.937500 0.568238
vt 0.000000 0.743926
vt 0.062500 0.743926
vt 0.125000 0.743926
vt 0.187500 0.743926
vt 0.250000 0.743926
vt 0.312500 0.743926
vt 0.375000 0.743926
vt 0.437500 0.743926
vt 0.500000 0.743926
vt 0.562500 0.743926
vt 0.625000 0.743926
vt 0.687500 0.743926
vt 0.750000 0.743926
vt 0.812500 0.743926
vt 0.875000 0.743926
vt 0.937500 0.743926
vt 0.000000 0.958251
vt 0.062500 0.958251
vt 0.125000 0.958251
vt 0.187500 0.958251
vt 0.250000 0.958251
vt 0.312500 0.958251
vt 0.375000 0.958251
vt 0.437500 0.958251
vt 0.500000 0.958251
vt 0.562500 0.958251
vt 0.625000 0.958251
vt 0.687500 0.958251
vt 0.750000 0.958251
vt 0.812500 0.958251
vt 0.875000 0.958251
vt 0.937500 0.958251
vt 0.000000 0.973602
vt 0.062500 0.973602
vt 0.125000 0.973602
vt 0.187500 0.973602
vt 0.250000 0.973602
vt 0.312500 0.973602
vt 0.375000 0.973602
vt 0.437500 0.973602
vt 0.500000 0.973602
vt 0.562500 0.973602
vt 0.625000 0.973602
vt 0.687500 0.973602
vt 0.750000 0.973602
vt 0.812500 0.973602
vt 0.875000 0.973602
vt 0.937500 0.973602
vt 0.000000 1.000000
vt 0.062500 1.000000
vt 0.125000 1.000000
vt 0.187500 1.000000
vt 0.250000 1.000000
vt 0.312500 1.000000
vt 0.375000 1.000000
vt 0.437500 1.000000
vt 0.500000 1.000000
vt 0.562500 1.000000
vt 0.625000 1.000000
vt 0.687500 1.000000
vt 0.750000 1.000000
vt 0.812500 1.000000
vt 0.875000 1.000000
vt 0.937500 1.000000
vt 0.000000 0.000000
vt 0.071429 0.000000
vt 0.142857 0.000000
vt 0.214286 0.000000
vt 0.285714 0.000000
vt 0.357143 0.000000
vt 0.428571 0.000000
vt 0.500000 0.000000
vt 0.571429 0.000000
vt 0.642857 0.000000
vt 0.714286 0.000000
vt 0.785714 0.000000
vt 0.857143 0.000000
vt 0.928571 0.000000
vt 0.000000 1.000000
vt 0.071429 1.000000
vt 0.142857 1.000000
vt 0.214286 1.000000
vt 0.285714 1.000000
vt 0.357143 1.000000
vt 0.428571 1.000000
vt 0.500000 1.000000
vt 0.571429 1.000000
vt 0.642857 1.000000
vt 0.714286 1.000000
vt 0.785714 1.000000
vt 0.857143 1.000000
vt 0.928571 1.000000
vt 0.500000 0.000000
vt 0.500000 1.000000
vt 0.000000 0.000000
vt 0.200000 0.000000
vt 0.400000 0.000000
vt 0.600000 0.000000
vt 0.800000 0.000000
vt 1.000000 0.000000
vt 0.000000 0.170706
vt 0.166667 0.170706
vt 0.333333 0.170706
vt 0.500000 0.170706
vt 0.666667 0.170706
vt 0.833333 0.170706
vt 0.000000 0.374268
vt 0.166667 0.374268
vt 0.333333 0.374268
vt 0.500000 0.374268
vt 0.666667 0.374268
vt 0.833333 0.374268
vt 0.000000 0.627581
vt 0.166667 0.627581
vt 0.333333 0.627581
vt 0.500000 0.627581
vt 0.666667 0.627581
vt 0.833333 0.627581
vt 0.000000 0.845029
vt 0.166667 0.845029
vt 0.333333 0.845029
vt 0.500000 0.845029
vt 0.666667 0.845029
vt 0.833333 0.845029
vt 0.000000 1.000000
vt 0.200000 1.000000
vt 0.400000 1.000000
vt 0.600000 1.000000
vt 0.800000 1.000000
vt 1.000000 1.000000
vt 0.000000 0.000000
vt 0.200000 0.000000
vt 0.400000 0.000000
vt 0.600000 0.000000
vt 0.800000 0.000000
vt 1.000000 0.000000
vt 0.000000 0.170706
vt 0.166667 0.170706
vt 0.333333 0.170706
vt 0.500000 0.170706
vt 0.666667 0.170706
vt 0.833333 0.170706
vt 0.000000 0.374268
vt 0.166667 0.374268
vt 0.333333 0.374268
vt 0.500000 0.374268
vt 0.666667 0.374268
vt 0.833333 0.374268
vt 0.000000 0.627581
vt 0.166667 0.627581
vt 0.333333 0.627581
vt 0.500000 0.627581
vt 0.666667 0.627581
vt 0.833333 0.627581
vt 0.000000 0.845029
vt 0.166667 0.845029
vt 0.333333 0.845029
vt 0.500000 0.845029
vt 0.666667 0.845029
vt 0.833333 0.845029
vt 0.000000 1.000000
vt 0.200000 1.000000
vt 0.400000 1.000000
vt 0.600000 1.000000
vt 0.800000 1.000000
vt 1.000000 1.000000
vt 0.000000 0.000000
vt 0.200000 0.000000
vt 0.400000 0.000000
vt 0.600000 0.000000
vt 0.800000 0.000000
vt 1.000000 0.000000
vt 0.000000 0.170706
vt 0.166667 0.170706
vt 0.333333 0.170706
vt 0.500000 0.170706
vt 0.666667 0.170706
vt 0.833333 0.170706
vt 0.000000 0.374268
vt 0.166667 0.374268
vt 0.333333 0.374268
vt 0.500000 0.374268
vt 0.666667 0.374268
vt 0.833333 0.374268
vt 0.000000 0.627581
vt 0.166667 0.627581
vt 0.333333 0.627581
vt 0.500000 0.627581
vt 0.666667 0.627581
vt 0.833333 0.627581
vt 0.000000 0.845029
vt 0.166667 0.845029
vt 0.333333 0.845029
vt 0.500000 0.845029
vt 0.666667 0.845029
vt 0.833333 0.845029
vt 0.000000 1.000000
vt 0.200000 1.000000
vt 0.400000 1.000000
vt 0.600000 1.000000
vt 0.800000 1.000000
vt 1.000000 1.000000
vt 0.000000 0.000000
vt 0.200000 0.000000
vt 0.400000 0.000000
vt 0.600000 0.000000
vt 0.800000 0.000000
vt 1.000000 0.000000
vt 0.000000 0.170706
vt 0.166667 0.170706
vt 0.333333 0.170706
vt 0.500000 0.170706
vt 0.666667 0.170706
vt 0.833333 0.170706
vt 0.000000 0.374268
vt 0.166667 0.374268
vt 0.333333 0.374268
vt 0.500000 0.374268
vt 0.666667 0.374268
vt 0.833333 0.374268
vt 0.000000 0.627581
vt 0.166667 0.627581
vt 0.333333 0.627581
vt 0.500000 0.627581
vt 0.666667 0.627581
vt 0.833333 0.627581
vt 0.000000 0.845029
vt 0.166667 0.845029
vt 0.333333 0.845029
vt 0.500000 0.845029
vt 0.666667 0.845029
vt 0.833333 0.845029
vt 0.000000 1.000000
vt 0.200000 1.000000
vt 0.400000 1.000000
vt 0.600000 1.000000
vt 0.800000 1.000000
vt 1.000000 1.000000
vt 0.000000 0.000000
vt 0.200000 0.000000
vt 0.400000 0.000000
vt 0.600000 0.000000
vt 0.800000 0.000000
vt 1.000000 0.000000
vt 0.000000 0.170706
vt 0.166667 0.170706
vt 0.333333 0.170706
vt 0.500000 0.170706
vt 0.666667 0.170706
vt 0.833333 0.170706
vt 0.000000 0.374268
vt 0.166667 0.374268
vt 0.333333 0.374268
vt 0.500000 0.374268
vt 0.666667 0.374268
vt 0.833333 0.374268
vt 0.000000 0.627581
vt 0.166667 0.627581
vt 0.333333 0.627581
vt 0.500000 0.627581
vt 0.666667 0.627581
vt 0.833333 0.627581
vt 0.000000 0.845029
vt 0.166667 0.845029
vt 0.333333 0.845029
vt 0.500000 0.845029
vt 0.666667 0.845029
vt 0.833333 0.845029
vt 0.000000 1.000000
vt 0.200000 1.000000
vt 0.400000 1.000000
vt 0.600000 1.000000
vt 0.800000 1.000000
vt 1.000000 1.000000
vt 0.000000 0.000000
vt 0.052500 0.000000
vt 0.105000 0.000000
vt 0.157500 0.000000
vt 0.210000 0.000000
vt 0.262500 0.000000
vt 0.315000 0.000000
vt 0.367500 0.000000
vt 0.420000 0.000000
vt 0.472500 0.000000
vt 0.525000 0.000000
vt 0.577500 0.000000
vt 0.630000 0.000000
vt 0.682500 0.000000
vt 0.735000 0.000000
vt 0.787500 0.000000
vt 0.840000 0.000000
vt 0.000000 0.083333
vt 0.052500 0.083333
vt 0.105000 0.083333
vt 0.157500 0.083333
vt 0.210000 0.083333
vt 0.262500 0.083333
vt 0.315000 0.083333
vt 0.367500 0.083333
vt 0.420000 0.083333
vt 0.472500 0.083333
vt 0.525000 0.083333
vt 0.577500 0.083333
vt 0.630000 0.083333
vt 0.682500 0.083333
vt 0.735000 0.083333
vt 0.787500 0.083333
vt 0.840000 0.083333
vt 0.000000 0.166667
vt 0.052500 0.166667
vt 0.105000 0.166667
vt 0.157500 0.166667
vt 0.210000 0.166667
vt 0.262500 0.166667
vt 0.315000 0.166667
vt 0.367500 0.166667
vt 0.420000 0.166667
vt 0.472500 0.166667
vt 0.525000 0.166667
vt 0.577500 0.166667
vt 0.630000 0.166667
vt 0.682500 0.166667
vt 0.735000 0.166667
vt 0.787500 0.166667
vt 0.840000 0.166667
vt 0.000000 0.250000
vt 0.052500 0.250000
vt 0.105000 0.250000
vt 0.157500 0.250000
vt 0.210000 0.250000
vt 0.262500 0.250000
vt 0.315000 0.250000
vt 0.367500 0.250000
vt 0.420000 0.250000
vt 0.472500 0.250000
vt 0.525000 0.250000
vt 0.577500 0.250000
vt 0.630000 0.250000
vt 0.682500 0.250000
vt 0.735000 0.250000
vt 0.787500 0.250000
vt 0.840000 0.250000
vt 0.000000 0.333333
vt 0.052500 0.333333
vt 0.105000 0.333333
vt 0.157500 0.333333
vt 0.210000 0.333333
vt 0.262500 0.333333
vt 0.315000 0.333333
vt 0.367500 0.333333
vt 0.420000 0.333333
vt 0.472500 0.333333
vt 0.525000 0.333333
vt 0.577500 0.333333
vt 0.630000 0.333333
vt 0.682500 0.333333
vt 0.735000 0.333333
vt 0.787500 0.333333
vt 0.840000 0.333333
vt 0.000000 0.416667
vt 0.052500 0.416667
vt 0.105000 0.416667
vt 0.157500 0.416667
vt 0.210000 0.416667
vt 0.262500 0.416667
vt 0.315000 0.416667
vt 0.367500 0.416667
vt 0.420000 0.416667
vt 0.472500 0.416667
vt 0.525000 0.416667
vt 0.577500 0.416667
vt 0.630000 0.416667
vt 0.682500 0.416667
vt 0.735000 0.416667
vt 0.787500 0.416667
vt 0.840000 0.416667
vt 0.000000 0.500000
vt 0.052500 0.500000
vt 0.105000 0.500000
vt 0.157500 0.500000
vt 0.210000 0.500000
vt 0.262500 0.500000
vt 0.315000 0.500000
vt 0.367500 0.500000
vt 0.420000 0.500000
vt 0.472500 0.500000
vt 0.525000 0.500000
vt 0.577500 0.500000
vt 0.630000 0.500000
vt 0.682500 0.500000
vt 0.735000 0.500000
vt 0.787500 0.500000
vt 0.840000 0.500000
vt 0.000000 0.583333
vt 0.052500 0.583333
vt 0.105000 0.583333
vt 0.157500 0.583333
vt 0.210000 0.583333
vt 0.262500 0.583333
vt 0.315000 0.583333
vt 0.367500 0.583333
vt 0.420000 0.583333
vt 0.472500 0.583333
vt 0.525000 0.583333
vt 0.577500 0.583333
vt 0.630000 0.583333
vt 0.682500 0.583333
vt 0.735000 0.583333
vt 0.787500 0.583333
vt 0.840000 0.583333
vt 0.000000 0.666667
vt 0.052500 0.666667
vt 0.105000 0.666667
vt 0.157500 0.666667
vt 0.210000 0.666667
vt 0.262500 0.666667
vt 0.315000 0.666667
vt 0.367500 0.666667
vt 0.420000 0.666667
vt 0.472500 0.666667
vt 0.525000 0.666667
vt 0.577500 0.666667
vt 0.630000 0.666667
vt 0.682500 0.666667
vt 0.735000 0.666667
vt 0.787500 0.666667
vt 0.840000 0.666667
vt 0.000000 0.750000
vt 0.052500 0.750000
vt 0.105000 0.750000
vt 0.157500 0.750000
vt 0.210000 0.750000
vt 0.262500 0.750000
vt 0.315000 0.750000
vt 0.367500 0.750000
vt 0.420000 0.750000
vt 0.472500 0.750000
vt 0.525000 0.750000
vt 0.577500 0.750000
vt 0.630000 0.750000
vt 0.682500 0.750000
vt 0.735000 0.750000
vt 0.787500 0.750000
vt 0.840000 0.750000
vt 0.000000 0.833333
vt 0.052500 0.833333
vt 0.105000 0.833333
vt 0.157500 0.833333
vt 0.210000 0.833333
vt 0.262500 0.833333
vt 0.315000 0.833333
vt 0.367500 0.833333
vt 0.420000 0.833333
vt 0.472500 0.833333
vt 0.525000 0.833333
vt 0.577500 0.833333
vt 0.630000 0.833333
vt 0.682500 0.833333
vt 0.735000 0.833333
vt 0.787500 0.833333
vt 0.840000 0.833333
vt 0.000000 0.916667
vt 0.052500 0.916667
vt 0.105000 0.916667
vt 0.157500 0.916667
vt 0.210000 0.916667
vt 0.262500 0.916667
vt 0.315000 0.916667
vt 0.367500 0.916667
vt 0.420000 0.916667
vt 0.472500 0.916667
vt 0.525000 0.916667
vt 0.577500 0.916667
vt 0.630000 0.916667
vt 0.682500 0.916667
vt 0.735000 0.916667
vt 0.787500 0.916667
vt 0.840000 0.916667
vt 0.000000 1.000000
vt 0.052500 1.000000
vt 0.105000 1.000000
vt 0.157500 1.000000
vt 0.210000 1.000000
vt 0.262500 1.000000
vt 0.315000 1.000000
vt 0.367500 1.000000
vt 0.420000 1.000000
vt 0.472500 1.000000
vt 0.525000 1.000000
vt 0.577500 1.000000
vt 0.630000 1.000000
vt 0.682500 1.000000
vt 0.735000 1.000000
vt 0.787500 1.000000
vt 0.840000 1.000000
vn 0.000000 1.000000 0.000000
vn -0.284578 0.951378 -0.117876
vn -0.308025 0.951378 0.000000
vn -0.217806 0.951378 -0.217806
vn -0.117876 0.951378 -0.284578
vn 0.000000 0.951378 -0.308025
vn 0.117876 0.951378 -0.284578
vn 0.217806 0.951378 -0.217806
vn 0.284578 0.951378 -0.117876
vn 0.308025 0.951378 -0.000000
vn 0.284578 0.951378 0.117876
vn 0.217806 0.951378 0.217806
vn 0.117876 0.951378 0.284578
vn 0.000000 0.951378 0.308025
vn -0.117876 0.951378 0.284578
vn -0.217806 0.951378 0.217806
vn -0.284578 0.951378 0.117876
vn -0.821857 0.456797 -0.340424
vn -0.889571 0.456797 0.000000
vn -0.629022 0.456797 -0.629022
vn -0.340424 0.456797 -0.821857
vn 0.000000 0.456797 -0.889571
vn 0.340424 0.456797 -0.821857
vn 0.629022 0.456797 -0.629022
vn 0.821857 0.456797 -0.340424
vn 0.889571 0.456797 -0.000000
vn 0.821857 0.456797 0.340424
vn 0.629022 0.456797 0.629022
vn 0.340424 0.456797 0.821857
vn 0.000000 0.456797 0.889571
vn -0.340424 0.456797 0.821857
vn -0.629022 0.456797 0.629022
vn -0.821857 0.456797 0.340424
vn -0.646914 -0.713933 -0.267960
vn -0.700215 -0.713933 0.000000
vn -0.495126 -0.713933 -0.495126
vn -0.267960 -0.713933 -0.646914
vn 0.000000 -0.713933 -0.700215
vn 0.267960 -0.713933 -0.646914
vn 0.495126 -0.713933 -0.495126
vn 0.646914 -0.713933 -0.267960
vn 0.700215 -0.713933 -0.000000
vn 0.646914 -0.713933 0.267960
vn 0.495126 -0.713933 0.495126
vn 0.267960 -0.713933 0.646914
vn 0.000000 -0.713933 0.700215
vn -0.267960 -0.713933 0.646914
vn -0.495126 -0.713933 0.495126
vn -0.646914 -0.713933 0.267960
vn 0.410586 -0.895821 0.170070
vn 0.444416 -0.895821 -0.000000
vn 0.314249 -0.895821 0.314249
vn 0.170070 -0.895821 0.410586
vn 0.000000 -0.895821 0.444416
vn -0.170070 -0.895821 0.410586
vn -0.314249 -0.895821 0.314249
vn -0.410586 -0.895821 0.170070
vn -0.444416 -0.895821 0.000000
vn -0.410586 -0.895821 -0.170070
vn -0.314249 -0.895821 -0.314249
vn -0.170070 -0.895821 -0.410586
vn 0.000000 -0.895821 -0.444416
vn 0.170070 -0.895821 -0.410586
vn 0.314249 -0.895821 -0.314249
vn 0.410586 -0.895821 -0.170070
vn 0.598382 -0.761909 0.247858
vn 0.647684 -0.761909 -0.000000
vn 0.457982 -0.761909 0.457982
vn 0.247858 -0.761909 0.598382
vn -0.000000 -0.761909 0.647684
vn -0.247858 -0.761909 0.598382
vn -0.457982 -0.761909 0.457982
vn -0.598382 -0.761909 0.247858
vn -0.647684 -0.761909 0.000000
vn -0.598382 -0.761909 -0.247858
vn -0.457982 -0.761909 -0.457982
vn -0.247858 -0.761909 -0.598382
vn -0.000000 -0.761909 -0.647684
vn 0.247858 -0.761909 -0.598382
vn 0.457982 -0.761909 -0.457982
vn 0.598382 -0.761909 -0.247858
vn 0.776796 -0.541348 0.321760
vn 0.840798 -0.541348 -0.000000
vn 0.594534 -0.541348 0.594534
vn 0.321760 -0.541348 0.776796
vn 0.000000 -0.541348 0.840798
vn -0.321760 -0.541348 0.776796
vn -0.594534 -0.541348 0.594534
vn -0.776796 -0.541348 0.321760
vn -0.840798 -0.541348 0.000000
vn -0.776796 -0.541348 -0.321760
vn -0.594534 -0.541348 -0.594534
vn -0.321760 -0.541348 -0.776796
vn -0.000000 -0.541348 -0.840798
vn 0.321760 -0.541348 -0.776796
vn 0.594534 -0.541348 -0.594534
vn 0.776796 -0.541348 -0.321760
vn 0.919016 0.102475 0.380669
vn 0.994736 0.102475 -0.000000
vn 0.703384 0.102475 0.703384
vn 0.380669 0.102475 0.919016
vn 0.000000 0.102475 0.994736
vn -0.380669 0.102475 0.919016
vn -0.703384 0.102475 0.703384
vn -0.919016 0.102475 0.380669
vn -0.994736 0.102475 0.000000
vn -0.919016 0.102475 -0.380669
vn -0.703384 0.102475 -0.703384
vn -0.380669 0.102475 -0.919016
vn -0.000000 0.102475 -0.994736
vn 0.380669 0.102475 -0.919016
vn 0.703384 0.102475 -0.703384
vn 0.919016 0.102475 -0.380669
vn 0.894369 0.250727 0.370460
vn 0.968058 0.250727 -0.000000
vn 0.684520 0.250727 0.684520
vn 0.370460 0.250727 0.894369
vn 0.000000 0.250727 0.968058
vn -0.370460 0.250727 0.894369
vn -0.684520 0.250727 0.684520
vn -0.894369 0.250727 0.370460
vn -0.968058 0.250727 0.000000
vn -0.894369 0.250727 -0.370460
vn -0.684520 0.250727 -0.684520
vn -0.370460 0.250727 -0.894369
vn -0.000000 0.250727 -0.968058
vn 0.370460 0.250727 -0.894369
vn 0.684520 0.250727 -0.684520
vn 0.894369 0.250727 -0.370460
vn -1.000000 0.000000 0.000000
vn -0.900969 0.000000 -0.433884
vn -0.623490 0.000000 -0.781831
vn -0.222521 0.000000 -0.974928
vn 0.222521 0.000000 -0.974928
vn 0.623490 0.000000 -0.781831
vn 0.900969 0.000000 -0.433884
vn 1.000000 0.000000 -0.000000
vn 0.900969 0.000000 0.433884
vn 0.623490 0.000000 0.781831
vn 0.222521 0.000000 0.974928
vn -0.222521 0.000000 0.974928
vn -0.623490 0.000000 0.781831
vn -0.900969 0.000000 0.433884
vn 0.000000 -1.000000 0.000000
vn 0.207912 0.978148 -0.000000
vn -0.292775 0.627080 -0.721840
vn -0.700423 0.713728 -0.000000
vn 0.522520 0.453784 -0.721840
vn 0.930167 0.367135 -0.000000
vn 0.522520 0.453784 0.721840
vn -0.292775 0.627080 0.721840
vn -0.476744 0.158234 -0.864683
vn -0.965060 0.262029 0.000000
vn 0.499887 -0.049356 -0.864683
vn 0.988203 -0.153150 -0.000000
vn 0.499887 -0.049356 0.864683
vn -0.476744 0.158234 0.864683
vn -0.524254 -0.129018 -0.841731
vn -0.999609 -0.027979 0.000000
vn 0.426454 -0.331098 -0.841731
vn 0.901808 -0.432137 -0.000000
vn 0.426454 -0.331098 0.841731
vn -0.524254 -0.129018 0.841731
vn -0.531275 -0.309854 -0.788504
vn -0.976569 -0.215204 0.000000
vn 0.359315 -0.499154 -0.788504
vn 0.804609 -0.593805 -0.000000
vn 0.359315 -0.499154 0.788504
vn -0.531275 -0.309854 0.788504
vn -0.207912 -0.978148 -0.000000
vn -0.241922 0.970296 0.000000
vn -0.538038 0.435272 -0.721840
vn -0.942414 0.334449 0.000000
vn 0.270712 0.636916 -0.721840
vn 0.675087 0.737738 -0.000000
vn 0.270712 0.636916 0.721840
vn -0.538038 0.435272 0.721840
vn -0.497860 -0.066771 -0.864683
vn -0.982256 -0.187545 0.000000
vn 0.470932 0.174776 -0.864683
vn 0.955328 0.295549 -0.000000
vn 0.470932 0.174776 0.864683
vn -0.497860 -0.066771 0.864683
vn -0.414639 -0.345779 -0.841731
vn -0.886177 -0.463347 0.000000
vn 0.528438 -0.110644 -0.841731
vn 0.999976 0.006924 -0.000000
vn 0.528438 -0.110644 0.841731
vn -0.414639 -0.345779 0.841731
vn -0.341675 -0.511390 -0.788504
vn -0.783396 -0.621523 -0.000000
vn 0.541765 -0.291124 -0.788504
vn 0.983485 -0.180991 -0.000000
vn 0.541765 -0.291124 0.788504
vn -0.341675 -0.511390 0.788504
vn 0.241922 -0.970296 -0.000000
vn -0.034560 0.989665 0.139173
vn -0.439101 0.632650 -0.637921
vn -0.852096 0.517706 0.076894
vn 0.393900 0.661739 -0.637921
vn 0.813907 0.575884 0.076894
vn 0.400912 0.460940 0.791709
vn -0.432089 0.431851 0.791709
vn -0.505044 0.157925 -0.848522
vn -0.999765 0.020235 0.007746
vn 0.492798 0.192770 -0.848522
vn 0.995918 0.089925 0.007746
vn 0.501197 -0.047765 0.864014
vn -0.496645 -0.082610 0.864014
vn -0.481638 -0.132652 -0.866273
vn -0.963227 -0.266687 -0.032733
vn 0.489718 -0.098732 -0.866273
vn 0.979484 -0.198846 -0.032733
vn 0.497894 -0.332882 0.800806
vn -0.473461 -0.366802 0.800806
vn -0.444503 -0.315483 -0.838384
vn -0.895639 -0.441042 -0.057554
vn 0.465428 -0.283708 -0.838384
vn 0.924223 -0.377491 -0.057554
vn 0.473087 -0.503051 0.723276
vn -0.436844 -0.534826 0.723276
vn 0.034560 -0.989665 -0.139173
vn -0.374607 0.927184 -0.000000
vn -0.593380 0.356155 -0.721840
vn -0.979789 0.200036 -0.000000
vn 0.179436 0.668393 -0.721840
vn 0.565844 0.824512 -0.000000
vn 0.179436 0.668393 0.721840
vn -0.593380 0.356155 0.721840
vn -0.483722 -0.135410 -0.864683
vn -0.946596 -0.322423 -0.000000
vn 0.442025 0.238616 -0.864683
vn 0.904898 0.425629 -0.000000
vn 0.442025 0.238616 0.864683
vn -0.483722 -0.135410 0.864683
vn -0.362480 -0.400121 -0.841731
vn -0.813067 -0.582169 0.000000
vn 0.538694 -0.036023 -0.841731
vn 0.989281 0.146026 -0.000000
vn 0.538694 -0.036023 0.841731
vn -0.362480 -0.400121 0.841731
vn -0.267179 -0.553965 -0.788504
vn -0.689272 -0.724502 0.000000
vn 0.577009 -0.212892 -0.788504
vn 0.999103 -0.042355 -0.000000
vn 0.577009 -0.212892 0.788504
vn -0.267179 -0.553965 0.788504
vn 0.374607 -0.927184 -0.000000
vn 0.309017 0.951057 -0.000000
vn -0.225624 0.654248 -0.721840
vn -0.621981 0.783032 -0.000000
vn 0.567091 0.396680 -0.721840
vn 0.963448 0.267895 -0.000000
vn 0.567091 0.396680 0.721840
vn -0.225624 0.654248 0.721840
vn -0.457593 0.207200 -0.864683
vn -0.932384 0.361469 -0.000000
vn 0.491990 -0.101338 -0.864683
vn 0.966781 -0.255607 -0.000000
vn 0.491990 -0.101338 0.864683
vn -0.457593 0.207200 0.864683
vn -0.534869 -0.073512 -0.841731
vn -0.997057 0.076662 -0.000000
vn 0.389508 -0.373860 -0.841731
vn 0.851697 -0.524035 -0.000000
vn 0.389508 -0.373860 0.841731
vn -0.534869 -0.073512 0.841731
vn -0.560753 -0.252623 -0.788504
vn -0.993714 -0.111945 0.000000
vn 0.305170 -0.533979 -0.788504
vn 0.738132 -0.674656 -0.000000
vn 0.305170 -0.533979 0.788504
vn -0.560753 -0.252623 0.788504
vn -0.309017 -0.951057 0.000000
vn -0.953679 -0.255538 -0.158736
vn -0.913848 -0.258819 -0.312880
vn -0.818961 -0.500682 -0.280393
vn -0.856784 -0.495565 -0.142608
vn -0.763231 -0.258819 -0.592023
vn -0.683983 -0.500682 -0.530551
vn -0.530315 -0.258819 -0.807328
vn -0.475251 -0.500682 -0.723501
vn -0.240216 -0.258819 -0.935579
vn -0.215274 -0.500682 -0.838436
vn 0.075786 -0.258819 -0.962948
vn 0.067917 -0.500682 -0.862963
vn 0.383615 -0.258819 -0.886483
vn 0.343784 -0.500682 -0.794437
vn 0.650080 -0.258819 -0.714429
vn 0.582581 -0.500682 -0.640248
vn 0.846447 -0.258819 -0.465338
vn 0.758558 -0.500682 -0.417021
vn 0.951543 -0.258819 -0.166071
vn 0.852741 -0.500682 -0.148827
vn 0.954034 -0.258819 0.151104
vn 0.854974 -0.500682 0.135415
vn 0.853652 -0.258819 0.451985
vn 0.765015 -0.500682 0.405055
vn 0.661222 -0.258819 0.704130
vn 0.592565 -0.500682 0.631018
vn 0.397492 -0.258819 0.880348
vn 0.356220 -0.500682 0.788939
vn 0.090902 -0.258819 0.961639
vn 0.081463 -0.500682 0.861789
vn -0.225491 -0.258819 0.939237
vn -0.202078 -0.500682 0.841714
vn -0.376982 -0.255538 0.890273
vn -0.338680 -0.495565 0.799820
vn -0.472389 -0.866424 -0.161735
vn -0.497594 -0.863447 -0.082822
vn -0.394532 -0.866424 -0.306030
vn -0.274132 -0.866424 -0.417326
vn -0.124173 -0.866424 -0.483623
vn 0.039175 -0.866424 -0.497770
vn 0.198300 -0.866424 -0.458243
vn 0.336041 -0.866424 -0.369305
vn 0.437548 -0.866424 -0.240544
vn 0.491874 -0.866424 -0.085846
vn 0.493162 -0.866424 0.078109
vn 0.441272 -0.866424 0.233642
vn 0.341801 -0.866424 0.363981
vn 0.205473 -0.866424 0.455072
vn 0.046989 -0.866424 0.497093
vn -0.116561 -0.866424 0.485513
vn -0.196695 -0.863447 0.464511
vn 0.472389 -0.866424 0.161735
vn 0.497594 -0.863447 0.082822
vn 0.394532 -0.866424 0.306030
vn 0.274132 -0.866424 0.417326
vn 0.124173 -0.866424 0.483623
vn -0.039175 -0.866424 0.497770
vn -0.198300 -0.866424 0.458243
vn -0.336041 -0.866424 0.369305
vn -0.437548 -0.866424 0.240544
vn -0.491874 -0.866424 0.085846
vn -0.493162 -0.866424 -0.078109
vn -0.441272 -0.866424 -0.233642
vn -0.341801 -0.866424 -0.363981
vn -0.205473 -0.866424 -0.455072
vn -0.046989 -0.866424 -0.497093
vn 0.116561 -0.866424 -0.485513
vn 0.196695 -0.863447 -0.464511
vn 0.818961 -0.500682 0.280393
vn 0.856784 -0.495565 0.142608
vn 0.683983 -0.500682 0.530551
vn 0.475251 -0.500682 0.723501
vn 0.215274 -0.500682 0.838436
vn -0.067917 -0.500682 0.862963
vn -0.343784 -0.500682 0.794437
vn -0.582581 -0.500682 0.640248
vn -0.758558 -0.500682 0.417021
vn -0.852741 -0.500682 0.148827
vn -0.854974 -0.500682 -0.135415
vn -0.765015 -0.500682 -0.405055
vn -0.592565 -0.500682 -0.631018
vn -0.356220 -0.500682 -0.788939
vn -0.081463 -0.500682 -0.861789
vn 0.202078 -0.500682 -0.841714
vn 0.338680 -0.495565 -0.799820
vn 0.946085 0.000000 0.323917
vn 0.986429 0.000000 0.164187
vn 0.790155 -0.000000 0.612907
vn 0.549023 -0.000000 0.835807
vn 0.248690 -0.000000 0.968583
vn -0.078459 0.000000 0.996917
vn -0.397148 0.000000 0.917755
vn -0.673013 -0.000000 0.739631
vn -0.876307 -0.000000 0.481754
vn -0.985109 0.000000 0.171929
vn -0.987688 0.000000 -0.156434
vn -0.883766 0.000000 -0.467930
vn -0.684547 0.000000 -0.728969
vn -0.411514 -0.000000 -0.911403
vn -0.094108 -0.000000 -0.995562
vn 0.233445 0.000000 -0.972370
vn 0.389928 -0.000000 -0.920845
vn 0.818961 0.500682 0.280393
vn 0.856784 0.495565 0.142608
vn 0.683983 0.500682 0.530551
vn 0.475251 0.500682 0.723501
vn 0.215274 0.500682 0.838436
vn -0.067917 0.500682 0.862963
vn -0.343784 0.500682 0.794437
vn -0.582581 0.500682 0.640248
vn -0.758558 0.500682 0.417021
vn -0.852741 0.500682 0.148827
vn -0.854974 0.500682 -0.135415
vn -0.765015 0.500682 -0.405055
vn -0.592565 0.500682 -0.631018
vn -0.356220 0.500682 -0.788939
vn -0.081463 0.500682 -0.861789
vn 0.202078 0.500682 -0.841714
vn 0.338680 0.495565 -0.799820
vn 0.472389 0.866424 0.161735
vn 0.497594 0.863447 0.082822
vn 0.394532 0.866424 0.306030
vn 0.274132 0.866424 0.417326
vn 0.124173 0.866424 0.483623
vn -0.039175 0.866424 0.497770
vn -0.198300 0.866424 0.458243
vn -0.336041 0.866424 0.369305
vn -0.437548 0.866424 0.240544
vn -0.491874 0.866424 0.085846
vn -0.493162 0.866424 -0.078109
vn -0.441272 0.866424 -0.233642
vn -0.341801 0.866424 -0.363981
vn -0.205473 0.866424 -0.455072
vn -0.046989 0.866424 -0.497093
vn 0.116561 0.866424 -0.485513
vn 0.196695 0.863447 -0.464511
vn -0.472389 0.866424 -0.161735
vn -0.497594 0.863447 -0.082822
vn -0.394532 0.866424 -0.306030
vn -0.274132 0.866424 -0.417326
vn -0.124173 0.866424 -0.483623
vn 0.039175 0.866424 -0.497770
vn 0.198300 0.866424 -0.458243
vn 0.336041 0.866424 -0.369305
vn 0.437548 0.866424 -0.240544
vn 0.491874 0.866424 -0.085846
vn 0.493162 0.866424 0.078109
vn 0.441272 0.866424 0.233642
vn 0.341801 0.866424 0.363981
vn 0.205473 0.866424 0.455072
vn 0.046989 0.866424 0.497093
vn -0.116561 0.866424 0.485513
vn -0.196695 0.863447 0.464511
vn -0.818961 0.500682 -0.280393
vn -0.856784 0.495565 -0.142608
vn -0.683983 0.500682 -0.530551
vn -0.475251 0.500682 -0.723501
vn -0.215274 0.500682 -0.838436
vn 0.067917 0.500682 -0.862963
vn 0.343784 0.500682 -0.794437
vn 0.582581 0.500682 -0.640248
vn 0.758558 0.500682 -0.417021
vn 0.852741 0.500682 -0.148827
vn 0.854974 0.500682 0.135415
vn 0.765015 0.500682 0.405055
vn 0.592565 0.500682 0.631018
vn 0.356220 0.500682 0.788939
vn 0.081463 0.500682 0.861789
vn -0.202078 0.500682 0.841714
vn -0.338680 0.495565 0.799820
vn -0.913848 0.258819 -0.312880
vn -0.953679 0.255538 -0.158736
vn -0.763231 0.258819 -0.592023
vn -0.530315 0.258819 -0.807328
vn -0.240216 0.258819 -0.935579
vn 0.075786 0.258819 -0.962948
vn 0.383615 0.258819 -0.886483
vn 0.650080 0.258819 -0.714429
vn 0.846447 0.258819 -0.465338
vn 0.951543 0.258819 -0.166071
vn 0.954034 0.258819 0.151104
vn 0.853652 0.258819 0.451985
vn 0.661222 0.258819 0.704130
vn 0.397492 0.258819 0.880348
vn 0.090902 0.258819 0.961639
vn -0.225491 0.258819 0.939237
vn -0.376982 0.255538 0.890273
usemtl old_limestone
s 1
f 1/1/1 2/2/1 18/18/2 17/17/3
s 1
f 2/2/1 3/3/1 19/19/4 18/18/2
s 1
f 3/3/1 4/4/1 20/20/5 19/19/4
s 1
f 4/4/1 5/5/1 21/21/6 20/20/5
s 1
f 5/5/1 6/6/1 22/22/7 21/21/6
s 1
f 6/6/1 7/7/1 23/23/8 22/22/7
s 1
f 7/7/1 8/8/1 24/24/9 23/23/8
s 1
f 8/8/1 9/9/1 25/25/10 24/24/9
s 1
f 9/9/1 10/10/1 26/26/11 25/25/10
s 1
f 10/10/1 11/11/1 27/27/12 26/26/11
s 1
f 11/11/1 12/12/1 28/28/13 27/27/12
s 1
f 12/12/1 13/13/1 29/29/14 28/28/13
s 1
f 13/13/1 14/14/1 30/30/15 29/29/14
s 1
f 14/14/1 15/15/1 31/31/16 30/30/15
s 1
f 15/15/1 16/16/1 32/32/17 31/31/16
s 1
f 16/16/1 1/1/1 17/17/3 32/32/17
s 1
f 17/17/3 18/18/2 34/34/18 33/33/19
s 1
f 18/18/2 19/19/4 35/35/20 34/34/18
s 1
f 19/19/4 20/20/5 36/36/21 35/35/20
s 1
f 20/20/5 21/21/6 37/37/22 36/36/21
s 1
f 21/21/6 22/22/7 38/38/23 37/37/22
s 1
f 22/22/7 23/23/8 39/39/24 38/38/23
s 1
f 23/23/8 24/24/9 40/40/25 39/39/24
s 1
f 24/24/9 25/25/10 41/41/26 40/40/25
s 1
f 25/25/10 26/26/11 42/42/27 41/41/26
s 1
f 26/26/11 27/27/12 43/43/28 42/42/27
s 1
f 27/27/12 28/28/13 44/44/29 43/43/28
s 1
f 28/28/13 29/29/14 45/45/30 44/44/29
s 1
f 29/29/14 30/30/15 46/46/31 45/45/30
s 1
f 30/30/15 31/31/16 47/47/32 46/46/31
s 1
f 31/31/16 32/32/17 48/48/33 47/47/32
s 1
f 32/32/17 17/17/3 33/33/19 48/48/33
s 1
f 33/33/19 34/34/18 50/50/34 49/49/35
s 1
f 34/34/18 35/35/20 51/51/36 50/50/34
s 1
f 35/35/20 36/36/21 52/52/37 51/51/36
s 1
f 36/36/21 37/37/22 53/53/38 52/52/37
s 1
f 37/37/22 38/38/23 54/54/39 53/53/38
s 1
f 38/38/23 39/39/24 55/55/40 54/54/39
s 1
f 39/39/24 40/40/25 56/56/41 55/55/40
s 1
f 40/40/25 41/41/26 57/57/42 56/56/41
s 1
f 41/41/26 42/42/27 58/58/43 57/57/42
s 1
f 42/42/27 43/43/28 59/59/44 58/58/43
s 1
f 43/43/28 44/44/29 60/60/45 59/59/44
s 1
f 44/44/29 45/45/30 61/61/46 60/60/45
s 1
f 45/45/30 46/46/31 62/62/47 61/61/46
s 1
f 46/46/31 47/47/32 63/63/48 62/62/47
s 1
f 47/47/32 48/48/33 64/64/49 63/63/48
s 1
f 48/48/33 33/33/19 49/49/35 64/64/49
s 1
f 49/49/35 50/50/34 66/66/50 65/65/51
s 1
f 50/50/34 51/51/36 67/67/52 66/66/50
s 1
f 51/51/36 52/52/37 68/68/53 67/67/52
s 1
f 52/52/37 53/53/38 69/69/54 68/68/53
s 1
f 53/53/38 54/54/39 70/70/55 69/69/54
s 1
f 54/54/39 55/55/40 71/71/56 70/70/55
s 1
f 55/55/40 56/56/41 72/72/57 71/71/56
s 1
f 56/56/41 57/57/42 73/73/58 72/72/57
s 1
f 57/57/42 58/58/43 74/74/59 73/73/58
s 1
f 58/58/43 59/59/44 75/75/60 74/74/59
s 1
f 59/59/44 60/60/45 76/76/61 75/75/60
s 1
f 60/60/45 61/61/46 77/77/62 76/76/61
s 1
f 61/61/46 62/62/47 78/78/63 77/77/62
s 1
f 62/62/47 63/63/48 79/79/64 78/78/63
s 1
f 63/63/48 64/64/49 80/80/65 79/79/64
s 1
f 64/64/49 49/49/35 65/65/51 80/80/65
s 1
f 65/65/51 66/66/50 82/82/66 81/81/67
s 1
f 66/66/50 67/67/52 83/83/68 82/82/66
s 1
f 67/67/52 68/68/53 84/84/69 83/83/68
s 1
f 68/68/53 69/69/54 85/85/70 84/84/69
s 1
f 69/69/54 70/70/55 86/86/71 85/85/70
s 1
f 70/70/55 71/71/56 87/87/72 86/86/71
s 1
f 71/71/56 72/72/57 88/88/73 87/87/72
s 1
f 72/72/57 73/73/58 89/89/74 88/88/73
s 1
f 73/73/58 74/74/59 90/90/75 89/89/74
s 1
f 74/74/59 75/75/60 91/91/76 90/90/75
s 1
f 75/75/60 76/76/61 92/92/77 91/91/76
s 1
f 76/76/61 77/77/62 93/93/78 92/92/77
s 1
f 77/77/62 78/78/63 94/94/79 93/93/78
s 1
f 78/78/63 79/79/64 95/95/80 94/94/79
s 1
f 79/79/64 80/80/65 96/96/81 95/95/80
s 1
f 80/80/65 65/65/51 81/81/67 96/96/81
s 1
f 81/81/67 82/82/66 98/98/82 97/97/83
s 1
f 82/82/66 83/83/68 99/99/84 98/98/82
s 1
f 83/83/68 84/84/69 100/100/85 99/99/84
s 1
f 84/84/69 85/85/70 101/101/86 100/100/85
s 1
f 85/85/70 86/86/71 102/102/87 101/101/86
s 1
f 86/86/71 87/87/72 103/103/88 102/102/87
s 1
f 87/87/72 88/88/73 104/104/89 103/103/88
s 1
f 88/88/73 89/89/74 105/105/90 104/104/89
s 1
f 89/89/74 90/90/75 106/106/91 105/105/90
s 1
f 90/90/75 91/91/76 107/107/92 106/106/91
s 1
f 91/91/76 92/92/77 108/108/93 107/107/92
s 1
f 92/92/77 93/93/78 109/109/94 108/108/93
s 1
f 93/93/78 94/94/79 110/110/95 109/109/94
s 1
f 94/94/79 95/95/80 111/111/96 110/110/95
s 1
f 95/95/80 96/96/81 112/112/97 111/111/96
s 1
f 96/96/81 81/81/67 97/97/83 112/112/97
s 1
f 97/97/83 98/98/82 114/114/98 113/113/99
s 1
f 98/98/82 99/99/84 115/115/100 114/114/98
s 1
f 99/99/84 100/100/85 116/116/101 115/115/100
s 1
f 100/100/85 101/101/86 117/117/102 116/116/101
s 1
f 101/101/86 102/102/87 118/118/103 117/117/102
s 1
f 102/102/87 103/103/88 119/119/104 118/118/103
s 1
f 103/103/88 104/104/89 120/120/105 119/119/104
s 1
f 104/104/89 105/105/90 121/121/106 120/120/105
s 1
f 105/105/90 106/106/91 122/122/107 121/121/106
s 1
f 106/106/91 107/107/92 123/123/108 122/122/107
s 1
f 107/107/92 108/108/93 124/124/109 123/123/108
s 1
f 108/108/93 109/109/94 125/125/110 124/124/109
s 1
f 109/109/94 110/110/95 126/126/111 125/125/110
s 1
f 110/110/95 111/111/96 127/127/112 126/126/111
s 1
f 111/111/96 112/112/97 128/128/113 127/127/112
s 1
f 112/112/97 97/97/83 113/113/99 128/128/113
s 1
f 113/113/99 114/114/98 130/130/114 129/129/115
s 1
f 114/114/98 115/115/100 131/131/116 130/130/114
s 1
f 115/115/100 116/116/101 132/132/117 131/131/116
s 1
f 116/116/101 117/117/102 133/133/118 132/132/117
s 1
f 117/117/102 118/118/103 134/134/119 133/133/118
s 1
f 118/118/103 119/119/104 135/135/120 134/134/119
s 1
f 119/119/104 120/120/105 136/136/121 135/135/120
s 1
f 120/120/105 121/121/106 137/137/122 136/136/121
s 1
f 121/121/106 122/122/107 138/138/123 137/137/122
s 1
f 122/122/107 123/123/108 139/139/124 138/138/123
s 1
f 123/123/108 124/124/109 140/140/125 139/139/124
s 1
f 124/124/109 125/125/110 141/141/126 140/140/125
s 1
f 125/125/110 126/126/111 142/142/127 141/141/126
s 1
f 126/126/111 127/127/112 143/143/128 142/142/127
s 1
f 127/127/112 128/128/113 144/144/129 143/143/128
s 1
f 128/128/113 113/113/99 129/129/115 144/144/129
usemtl smoked_glass
s 2
f 145/145/130 146/146/131 160/160/131 159/159/130
s 2
f 146/146/131 147/147/132 161/161/132 160/160/131
s 2
f 147/147/132 148/148/133 162/162/133 161/161/132
s 2
f 148/148/133 149/149/134 163/163/134 162/162/133
s 2
f 149/149/134 150/150/135 164/164/135 163/163/134
s 2
f 150/150/135 151/151/136 165/165/136 164/164/135
s 2
f 151/151/136 152/152/137 166/166/137 165/165/136
s 2
f 152/152/137 153/153/138 167/167/138 166/166/137
s 2
f 153/153/138 154/154/139 168/168/139 167/167/138
s 2
f 154/154/139 155/155/140 169/169/140 168/168/139
s 2
f 155/155/140 156/156/141 170/170/141 169/169/140
s 2
f 156/156/141 157/157/142 171/171/142 170/170/141
s 2
f 157/157/142 158/158/143 172/172/143 171/171/142
s 2
f 158/158/143 145/145/130 159/159/130 172/172/143
s off
f 173/173/144 145/145/144 146/146/144
s off
f 173/173/144 146/146/144 147/147/144
s off
f 173/173/144 147/147/144 148/148/144
s off
f 173/173/144 148/148/144 149/149/144
s off
f 173/173/144 149/149/144 150/150/144
s off
f 173/173/144 150/150/144 151/151/144
s off
f 173/173/144 151/151/144 152/152/144
s off
f 173/173/144 152/152/144 153/153/144
s off
f 173/173/144 153/153/144 154/154/144
s off
f 173/173/144 154/154/144 155/155/144
s off
f 173/173/144 155/155/144 156/156/144
s off
f 173/173/144 156/156/144 157/157/144
s off
f 173/173/144 157/157/144 158/158/144
s off
f 173/173/144 158/158/144 145/145/144
s off
f 174/174/1 160/160/1 159/159/1
s off
f 174/174/1 161/161/1 160/160/1
s off
f 174/174/1 162/162/1 161/161/1
s off
f 174/174/1 163/163/1 162/162/1
s off
f 174/174/1 164/164/1 163/163/1
s off
f 174/174/1 165/165/1 164/164/1
s off
f 174/174/1 166/166/1 165/165/1
s off
f 174/174/1 167/167/1 166/166/1
s off
f 174/174/1 168/168/1 167/167/1
s off
f 174/174/1 169/169/1 168/168/1
s off
f 174/174/1 170/170/1 169/169/1
s off
f 174/174/1 171/171/1 170/170/1
s off
f 174/174/1 172/172/1 171/171/1
s off
f 174/174/1 159/159/1 172/172/1
s 3
f 175/175/145 177/182/146 176/181/147
s 3
f 175/176/145 178/183/148 177/182/146
s 3
f 175/177/145 179/184/149 178/183/148
s 3
f 175/178/145 180/185/150 179/184/149
s 3
f 175/179/145 181/186/151 180/185/150
s 3
f 175/180/145 176/181/147 181/186/151
s 3
f 176/181/147 177/182/146 183/188/152 182/187/153
s 3
f 177/182/146 178/183/148 184/189/154 183/188/152
s 3
f 178/183/148 179/184/149 185/190/155 184/189/154
s 3
f 179/184/149 180/185/150 186/191/156 185/190/155
s 3
f 180/185/150 181/186/151 187/192/157 186/191/156
s 3
f 181/186/151 176/181/147 182/187/153 187/192/157
s 3
f 182/187/153 183/188/152 189/194/158 188/193/159
s 3
f 183/188/152 184/189/154 190/195/160 189/194/158
s 3
f 184/189/154 185/190/155 191/196/161 190/195/160
s 3
f 185/190/155 186/191/156 192/197/162 191/196/161
s 3
f 186/191/156 187/192/157 193/198/163 192/197/162
s 3
f 187/192/157 182/187/153 188/193/159 193/198/163
s 3
f 188/193/159 189/194/158 195/200/164 194/199/165
s 3
f 189/194/158 190/195/160 196/201/166 195/200/164
s 3
f 190/195/160 191/196/161 197/202/167 196/201/166
s 3
f 191/196/161 192/197/162 198/203/168 197/202/167
s 3
f 192/197/162 193/198/163 199/204/169 198/203/168
s 3
f 193/198/163 188/193/159 194/199/165 199/204/169
s 3
f 194/199/165 195/200/164 200/205/170
s 3
f 195/200/164 196/201/166 200/206/170
s 3
f 196/201/166 197/202/167 200/207/170
s 3
f 197/202/167 198/203/168 200/208/170
s 3
f 198/203/168 199/204/169 200/209/170
s 3
f 199/204/169 194/199/165 200/210/170
s 4
f 201/211/171 203/218/172 202/217/173
s 4
f 201/212/171 204/219/174 203/218/172
s 4
f 201/213/171 205/220/175 204/219/174
s 4
f 201/214/171 206/221/176 205/220/175
s 4
f 201/215/171 207/222/177 206/221/176
s 4
f 201/216/171 202/217/173 207/222/177
s 4
f 202/217/173 203/218/172 209/224/178 208/223/179
s 4
f 203/218/172 204/219/174 210/225/180 209/224/178
s 4
f 204/219/174 205/220/175 211/226/181 210/225/180
s 4
f 205/220/175 206/221/176 212/227/182 211/226/181
s 4
f 206/221/176 207/222/177 213/228/183 212/227/182
s 4
f 207/222/177 202/217/173 208/223/179 213/228/183
s 4
f 208/223/179 209/224/178 215/230/184 214/229/185
s 4
f 209/224/178 210/225/180 216/231/186 215/230/184
s 4
f 210/225/180 211/226/181 217/232/187 216/231/186
s 4
f 211/226/181 212/227/182 218/233/188 217/232/187
s 4
f 212/227/182 213/228/183 219/234/189 218/233/188
s 4
f 213/228/183 208/223/179 214/229/185 219/234/189
s 4
f 214/229/185 215/230/184 221/236/190 220/235/191
s 4
f 215/230/184 216/231/186 222/237/192 221/236/190
s 4
f 216/231/186 217/232/187 223/238/193 222/237/192
s 4
f 217/232/187 218/233/188 224/239/194 223/238/193
s 4
f 218/233/188 219/234/189 225/240/195 224/239/194
s 4
f 219/234/189 214/229/185 220/235/191 225/240/195
s 4
f 220/235/191 221/236/190 226/241/196
s 4
f 221/236/190 222/237/192 226/242/196
s 4
f 222/237/192 223/238/193 226/243/196
s 4
f 223/238/193 224/239/194 226/244/196
s 4
f 224/239/194 225/240/195 226/245/196
s 4
f 225/240/195 220/235/191 226/246/196
s 5
f 227/247/197 229/254/198 228/253/199
s 5
f 227/248/197 230/255/200 229/254/198
s 5
f 227/249/197 231/256/201 230/255/200
s 5
f 227/250/197 232/257/202 231/256/201
s 5
f 227/251/197 233/258/203 232/257/202
s 5
f 227/252/197 228/253/199 233/258/203
s 5
f 228/253/199 229/254/198 235/260/204 234/259/205
s 5
f 229/254/198 230/255/200 236/261/206 235/260/204
s 5
f 230/255/200 231/256/201 237/262/207 236/261/206
s 5
f 231/256/201 232/257/202 238/263/208 237/262/207
s 5
f 232/257/202 233/258/203 239/264/209 238/263/208
s 5
f 233/258/203 228/253/199 234/259/205 239/264/209
s 5
f 234/259/205 235/260/204 241/266/210 240/265/211
s 5
f 235/260/204 236/261/206 242/267/212 241/266/210
s 5
f 236/261/206 237/262/207 243/268/213 242/267/212
s 5
f 237/262/207 238/263/208 244/269/214 243/268/213
s 5
f 238/263/208 239/264/209 245/270/215 244/269/214
s 5
f 239/264/209 234/259/205 240/265/211 245/270/215
s 5
f 240/265/211 241/266/210 247/272/216 246/271/217
s 5
f 241/266/210 242/267/212 248/273/218 247/272/216
s 5
f 242/267/212 243/268/213 249/274/219 248/273/218
s 5
f 243/268/213 244/269/214 250/275/220 249/274/219
s 5
f 244/269/214 245/270/215 251/276/221 250/275/220
s 5
f 245/270/215 240/265/211 246/271/217 251/276/221
s 5
f 246/271/217 247/272/216 252/277/222
s 5
f 247/272/216 248/273/218 252/278/222
s 5
f 248/273/218 249/274/219 252/279/222
s 5
f 249/274/219 250/275/220 252/280/222
s 5
f 250/275/220 251/276/221 252/281/222
s 5
f 251/276/221 246/271/217 252/282/222
s 6
f 253/283/223 255/290/224 254/289/225
s 6
f 253/284/223 256/291/226 255/290/224
s 6
f 253/285/223 257/292/227 256/291/226
s 6
f 253/286/223 258/293/228 257/292/227
s 6
f 253/287/223 259/294/229 258/293/228
s 6
f 253/288/223 254/289/225 259/294/229
s 6
f 254/289/225 255/290/224 261/296/230 260/295/231
s 6
f 255/290/224 256/291/226 262/297/232 261/296/230
s 6
f 256/291/226 257/292/227 263/298/233 262/297/232
s 6
f 257/292/227 258/293/228 264/299/234 263/298/233
s 6
f 258/293/228 259/294/229 265/300/235 264/299/234
s 6
f 259/294/229 254/289/225 260/295/231 265/300/235
s 6
f 260/295/231 261/296/230 267/302/236 266/301/237
s 6
f 261/296/230 262/297/232 268/303/238 267/302/236
s 6
f 262/297/232 263/298/233 269/304/239 268/303/238
s 6
f 263/298/233 264/299/234 270/305/240 269/304/239
s 6
f 264/299/234 265/300/235 271/306/241 270/305/240
s 6
f 265/300/235 260/295/231 266/301/237 271/306/241
s 6
f 266/301/237 267/302/236 273/308/242 272/307/243
s 6
f 267/302/236 268/303/238 274/309/244 273/308/242
s 6
f 268/303/238 269/304/239 275/310/245 274/309/244
s 6
f 269/304/239 270/305/240 276/311/246 275/310/245
s 6
f 270/305/240 271/306/241 277/312/247 276/311/246
s 6
f 271/306/241 266/301/237 272/307/243 277/312/247
s 6
f 272/307/243 273/308/242 278/313/248
s 6
f 273/308/242 274/309/244 278/314/248
s 6
f 274/309/244 275/310/245 278/315/248
s 6
f 275/310/245 276/311/246 278/316/248
s 6
f 276/311/246 277/312/247 278/317/248
s 6
f 277/312/247 272/307/243 278/318/248
s 7
f 279/319/249 281/326/250 280/325/251
s 7
f 279/320/249 282/327/252 281/326/250
s 7
f 279/321/249 283/328/253 282/327/252
s 7
f 279/322/249 284/329/254 283/328/253
s 7
f 279/323/249 285/330/255 284/329/254
s 7
f 279/324/249 280/325/251 285/330/255
s 7
f 280/325/251 281/326/250 287/332/256 286/331/257
s 7
f 281/326/250 282/327/252 288/333/258 287/332/256
s 7
f 282/327/252 283/328/253 289/334/259 288/333/258
s 7
f 283/328/253 284/329/254 290/335/260 289/334/259
s 7
f 284/329/254 285/330/255 291/336/261 290/335/260
s 7
f 285/330/255 280/325/251 286/331/257 291/336/261
s 7
f 286/331/257 287/332/256 293/338/262 292/337/263
s 7
f 287/332/256 288/333/258 294/339/264 293/338/262
s 7
f 288/333/258 289/334/259 295/340/265 294/339/264
s 7
f 289/334/259 290/335/260 296/341/266 295/340/265
s 7
f 290/335/260 291/336/261 297/342/267 296/341/266
s 7
f 291/336/261 286/331/257 292/337/263 297/342/267
s 7
f 292/337/263 293/338/262 299/344/268 298/343/269
s 7
f 293/338/262 294/339/264 300/345/270 299/344/268
s 7
f 294/339/264 295/340/265 301/346/271 300/345/270
s 7
f 295/340/265 296/341/266 302/347/272 301/346/271
s 7
f 296/341/266 297/342/267 303/348/273 302/347/272
s 7
f 297/342/267 292/337/263 298/343/269 303/348/273
s 7
f 298/343/269 299/344/268 304/349/274
s 7
f 299/344/268 300/345/270 304/350/274
s 7
f 300/345/270 301/346/271 304/351/274
s 7
f 301/346/271 302/347/272 304/352/274
s 7
f 302/347/272 303/348/273 304/353/274
s 7
f 303/348/273 298/343/269 304/354/274
usemtl ritual_gold
s 8
f 305/355/275 306/356/276 323/373/277 322/372/278
s 8
f 306/356/276 307/357/279 324/374/280 323/373/277
s 8
f 307/357/279 308/358/281 325/375/282 324/374/280
s 8
f 308/358/281 309/359/283 326/376/284 325/375/282
s 8
f 309/359/283 310/360/285 327/377/286 326/376/284
s 8
f 310/360/285 311/361/287 328/378/288 327/377/286
s 8
f 311/361/287 312/362/289 329/379/290 328/378/288
s 8
f 312/362/289 313/363/291 330/380/292 329/379/290
s 8
f 313/363/291 314/364/293 331/381/294 330/380/292
s 8
f 314/364/293 315/365/295 332/382/296 331/381/294
s 8
f 315/365/295 316/366/297 333/383/298 332/382/296
s 8
f 316/366/297 317/367/299 334/384/300 333/383/298
s 8
f 317/367/299 318/368/301 335/385/302 334/384/300
s 8
f 318/368/301 319/369/303 336/386/304 335/385/302
s 8
f 319/369/303 320/370/305 337/387/306 336/386/304
s 8
f 320/370/305 321/371/307 338/388/308 337/387/306
s 8
f 322/372/278 323/373/277 340/390/309 339/389/310
s 8
f 323/373/277 324/374/280 341/391/311 340/390/309
s 8
f 324/374/280 325/375/282 342/392/312 341/391/311
s 8
f 325/375/282 326/376/284 343/393/313 342/392/312
s 8
f 326/376/284 327/377/286 344/394/314 343/393/313
s 8
f 327/377/286 328/378/288 345/395/315 344/394/314
s 8
f 328/378/288 329/379/290 346/396/316 345/395/315
s 8
f 329/379/290 330/380/292 347/397/317 346/396/316
s 8
f 330/380/292 331/381/294 348/398/318 347/397/317
s 8
f 331/381/294 332/382/296 349/399/319 348/398/318
s 8
f 332/382/296 333/383/298 350/400/320 349/399/319
s 8
f 333/383/298 334/384/300 351/401/321 350/400/320
s 8
f 334/384/300 335/385/302 352/402/322 351/401/321
s 8
f 335/385/302 336/386/304 353/403/323 352/402/322
s 8
f 336/386/304 337/387/306 354/404/324 353/403/323
s 8
f 337/387/306 338/388/308 355/405/325 354/404/324
s 8
f 339/389/310 340/390/309 357/407/144 356/406/144
s 8
f 340/390/309 341/391/311 358/408/144 357/407/144
s 8
f 341/391/311 342/392/312 359/409/144 358/408/144
s 8
f 342/392/312 343/393/313 360/410/144 359/409/144
s 8
f 343/393/313 344/394/314 361/411/144 360/410/144
s 8
f 344/394/314 345/395/315 362/412/144 361/411/144
s 8
f 345/395/315 346/396/316 363/413/144 362/412/144
s 8
f 346/396/316 347/397/317 364/414/144 363/413/144
s 8
f 347/397/317 348/398/318 365/415/144 364/414/144
s 8
f 348/398/318 349/399/319 366/416/144 365/415/144
s 8
f 349/399/319 350/400/320 367/417/144 366/416/144
s 8
f 350/400/320 351/401/321 368/418/144 367/417/144
s 8
f 351/401/321 352/402/322 369/419/144 368/418/144
s 8
f 352/402/322 353/403/323 370/420/144 369/419/144
s 8
f 353/403/323 354/404/324 371/421/144 370/420/144
s 8
f 354/404/324 355/405/325 372/422/144 371/421/144
s 8
f 356/406/144 357/407/144 374/424/326 373/423/327
s 8
f 357/407/144 358/408/144 375/425/328 374/424/326
s 8
f 358/408/144 359/409/144 376/426/329 375/425/328
s 8
f 359/409/144 360/410/144 377/427/330 376/426/329
s 8
f 360/410/144 361/411/144 378/428/331 377/427/330
s 8
f 361/411/144 362/412/144 379/429/332 378/428/331
s 8
f 362/412/144 363/413/144 380/430/333 379/429/332
s 8
f 363/413/144 364/414/144 381/431/334 380/430/333
s 8
f 364/414/144 365/415/144 382/432/335 381/431/334
s 8
f 365/415/144 366/416/144 383/433/336 382/432/335
s 8
f 366/416/144 367/417/144 384/434/337 383/433/336
s 8
f 367/417/144 368/418/144 385/435/338 384/434/337
s 8
f 368/418/144 369/419/144 386/436/339 385/435/338
s 8
f 369/419/144 370/420/144 387/437/340 386/436/339
s 8
f 370/420/144 371/421/144 388/438/341 387/437/340
s 8
f 371/421/144 372/422/144 389/439/342 388/438/341
s 8
f 373/423/327 374/424/326 391/441/343 390/440/344
s 8
f 374/424/326 375/425/328 392/442/345 391/441/343
s 8
f 375/425/328 376/426/329 393/443/346 392/442/345
s 8
f 376/426/329 377/427/330 394/444/347 393/443/346
s 8
f 377/427/330 378/428/331 395/445/348 394/444/347
s 8
f 378/428/331 379/429/332 396/446/349 395/445/348
s 8
f 379/429/332 380/430/333 397/447/350 396/446/349
s 8
f 380/430/333 381/431/334 398/448/351 397/447/350
s 8
f 381/431/334 382/432/335 399/449/352 398/448/351
s 8
f 382/432/335 383/433/336 400/450/353 399/449/352
s 8
f 383/433/336 384/434/337 401/451/354 400/450/353
s 8
f 384/434/337 385/435/338 402/452/355 401/451/354
s 8
f 385/435/338 386/436/339 403/453/356 402/452/355
s 8
f 386/436/339 387/437/340 404/454/357 403/453/356
s 8
f 387/437/340 388/438/341 405/455/358 404/454/357
s 8
f 388/438/341 389/439/342 406/456/359 405/455/358
s 8
f 390/440/344 391/441/343 408/458/360 407/457/361
s 8
f 391/441/343 392/442/345 409/459/362 408/458/360
s 8
f 392/442/345 393/443/346 410/460/363 409/459/362
s 8
f 393/443/346 394/444/347 411/461/364 410/460/363
s 8
f 394/444/347 395/445/348 412/462/365 411/461/364
s 8
f 395/445/348 396/446/349 413/463/366 412/462/365
s 8
f 396/446/349 397/447/350 414/464/367 413/463/366
s 8
f 397/447/350 398/448/351 415/465/368 414/464/367
s 8
f 398/448/351 399/449/352 416/466/369 415/465/368
s 8
f 399/449/352 400/450/353 417/467/370 416/466/369
s 8
f 400/450/353 401/451/354 418/468/371 417/467/370
s 8
f 401/451/354 402/452/355 419/469/372 418/468/371
s 8
f 402/452/355 403/453/356 420/470/373 419/469/372
s 8
f 403/453/356 404/454/357 421/471/374 420/470/373
s 8
f 404/454/357 405/455/358 422/472/375 421/471/374
s 8
f 405/455/358 406/456/359 423/473/376 422/472/375
s 8
f 407/457/361 408/458/360 425/475/377 424/474/378
s 8
f 408/458/360 409/459/362 426/476/379 425/475/377
s 8
f 409/459/362 410/460/363 427/477/380 426/476/379
s 8
f 410/460/363 411/461/364 428/478/381 427/477/380
s 8
f 411/461/364 412/462/365 429/479/382 428/478/381
s 8
f 412/462/365 413/463/366 430/480/383 429/479/382
s 8
f 413/463/366 414/464/367 431/481/384 430/480/383
s 8
f 414/464/367 415/465/368 432/482/385 431/481/384
s 8
f 415/465/368 416/466/369 433/483/386 432/482/385
s 8
f 416/466/369 417/467/370 434/484/387 433/483/386
s 8
f 417/467/370 418/468/371 435/485/388 434/484/387
s 8
f 418/468/371 419/469/372 436/486/389 435/485/388
s 8
f 419/469/372 420/470/373 437/487/390 436/486/389
s 8
f 420/470/373 421/471/374 438/488/391 437/487/390
s 8
f 421/471/374 422/472/375 439/489/392 438/488/391
s 8
f 422/472/375 423/473/376 440/490/393 439/489/392
s 8
f 424/474/378 425/475/377 442/492/394 441/491/395
s 8
f 425/475/377 426/476/379 443/493/396 442/492/394
s 8
f 426/476/379 427/477/380 444/494/397 443/493/396
s 8
f 427/477/380 428/478/381 445/495/398 444/494/397
s 8
f 428/478/381 429/479/382 446/496/399 445/495/398
s 8
f 429/479/382 430/480/383 447/497/400 446/496/399
s 8
f 430/480/383 431/481/384 448/498/401 447/497/400
s 8
f 431/481/384 432/482/385 449/499/402 448/498/401
s 8
f 432/482/385 433/483/386 450/500/403 449/499/402
s 8
f 433/483/386 434/484/387 451/501/404 450/500/403
s 8
f 434/484/387 435/485/388 452/502/405 451/501/404
s 8
f 435/485/388 436/486/389 453/503/406 452/502/405
s 8
f 436/486/389 437/487/390 454/504/407 453/503/406
s 8
f 437/487/390 438/488/391 455/505/408 454/504/407
s 8
f 438/488/391 439/489/392 456/506/409 455/505/408
s 8
f 439/489/392 440/490/393 457/507/410 456/506/409
s 8
f 441/491/395 442/492/394 459/509/1 458/508/1
s 8
f 442/492/394 443/493/396 460/510/1 459/509/1
s 8
f 443/493/396 444/494/397 461/511/1 460/510/1
s 8
f 444/494/397 445/495/398 462/512/1 461/511/1
s 8
f 445/495/398 446/496/399 463/513/1 462/512/1
s 8
f 446/496/399 447/497/400 464/514/1 463/513/1
s 8
f 447/497/400 448/498/401 465/515/1 464/514/1
s 8
f 448/498/401 449/499/402 466/516/1 465/515/1
s 8
f 449/499/402 450/500/403 467/517/1 466/516/1
s 8
f 450/500/403 451/501/404 468/518/1 467/517/1
s 8
f 451/501/404 452/502/405 469/519/1 468/518/1
s 8
f 452/502/405 453/503/406 470/520/1 469/519/1
s 8
f 453/503/406 454/504/407 471/521/1 470/520/1
s 8
f 454/504/407 455/505/408 472/522/1 471/521/1
s 8
f 455/505/408 456/506/409 473/523/1 472/522/1
s 8
f 456/506/409 457/507/410 474/524/1 473/523/1
s 8
f 458/508/1 459/509/1 476/526/411 475/525/412
s 8
f 459/509/1 460/510/1 477/527/413 476/526/411
s 8
f 460/510/1 461/511/1 478/528/414 477/527/413
s 8
f 461/511/1 462/512/1 479/529/415 478/528/414
s 8
f 462/512/1 463/513/1 480/530/416 479/529/415
s 8
f 463/513/1 464/514/1 481/531/417 480/530/416
s 8
f 464/514/1 465/515/1 482/532/418 481/531/417
s 8
f 465/515/1 466/516/1 483/533/419 482/532/418
s 8
f 466/516/1 467/517/1 484/534/420 483/533/419
s 8
f 467/517/1 468/518/1 485/535/421 484/534/420
s 8
f 468/518/1 469/519/1 486/536/422 485/535/421
s 8
f 469/519/1 470/520/1 487/537/423 486/536/422
s 8
f 470/520/1 471/521/1 488/538/424 487/537/423
s 8
f 471/521/1 472/522/1 489/539/425 488/538/424
s 8
f 472/522/1 473/523/1 490/540/426 489/539/425
s 8
f 473/523/1 474/524/1 491/541/427 490/540/426
s 8
f 475/525/412 476/526/411 493/543/428 492/542/429
s 8
f 476/526/411 477/527/413 494/544/430 493/543/428
s 8
f 477/527/413 478/528/414 495/545/431 494/544/430
s 8
f 478/528/414 479/529/415 496/546/432 495/545/431
s 8
f 479/529/415 480/530/416 497/547/433 496/546/432
s 8
f 480/530/416 481/531/417 498/548/434 497/547/433
s 8
f 481/531/417 482/532/418 499/549/435 498/548/434
s 8
f 482/532/418 483/533/419 500/550/436 499/549/435
s 8
f 483/533/419 484/534/420 501/551/437 500/550/436
s 8
f 484/534/420 485/535/421 502/552/438 501/551/437
s 8
f 485/535/421 486/536/422 503/553/439 502/552/438
s 8
f 486/536/422 487/537/423 504/554/440 503/553/439
s 8
f 487/537/423 488/538/424 505/555/441 504/554/440
s 8
f 488/538/424 489/539/425 506/556/442 505/555/441
s 8
f 489/539/425 490/540/426 507/557/443 506/556/442
s 8
f 490/540/426 491/541/427 508/558/444 507/557/443
s 8
f 492/542/429 493/543/428 510/560/445 509/559/446
s 8
f 493/543/428 494/544/430 511/561/447 510/560/445
s 8
f 494/544/430 495/545/431 512/562/448 511/561/447
s 8
f 495/545/431 496/546/432 513/563/449 512/562/448
s 8
f 496/546/432 497/547/433 514/564/450 513/563/449
s 8
f 497/547/433 498/548/434 515/565/451 514/564/450
s 8
f 498/548/434 499/549/435 516/566/452 515/565/451
s 8
f 499/549/435 500/550/436 517/567/453 516/566/452
s 8
f 500/550/436 501/551/437 518/568/454 517/567/453
s 8
f 501/551/437 502/552/438 519/569/455 518/568/454
s 8
f 502/552/438 503/553/439 520/570/456 519/569/455
s 8
f 503/553/439 504/554/440 521/571/457 520/570/456
s 8
f 504/554/440 505/555/441 522/572/458 521/571/457
s 8
f 505/555/441 506/556/442 523/573/459 522/572/458
s 8
f 506/556/442 507/557/443 524/574/460 523/573/459
s 8
f 507/557/443 508/558/444 525/575/461 524/574/460
