# Blender 5.0.1
# www.blender.org
mtllib blackroot.mtl
g C_Branch_0.001_C_Branch_0Curve.001
v -0.024498 0.194784 0.451716
v -0.089540 0.070000 0.333401
v -0.095502 -0.054784 0.468284
v -0.030460 0.070000 0.586599
v -0.325823 0.220252 0.472540
v -0.384016 0.107662 0.460834
v -0.394177 0.099748 0.587460
v -0.335984 0.212338 0.599166
v -0.549820 0.321328 0.427205
v -0.573196 0.299975 0.442940
v -0.570180 0.318672 0.472795
v -0.546804 0.340025 0.457060
vn 0.0989 0.9761 -0.1937
vn -0.3966 -0.1070 -0.9117
vn -0.3499 -0.9002 0.2593
vn 0.1433 0.2038 0.9685
vn 0.2354 0.8251 -0.5135
vn -0.4965 -0.4803 -0.7231
vn -0.5436 -0.6142 0.5721
vn 0.0674 0.4744 0.8777
vn 0.3769 0.4991 -0.7803
vn -0.5166 -0.5652 -0.6432
vn -0.7278 -0.2309 0.6457
vn 0.1214 0.8251 0.5519
vt 0.000000 1.000000
vt 0.500000 1.000000
vt 0.500000 0.750000
vt 0.000000 0.750000
vt 0.000000 0.250000
vt 0.500000 0.250000
vt 0.500000 0.000000
vt 0.000000 0.000000
vt 0.000000 0.500000
vt 0.500000 0.500000
vt 1.000000 1.000000
vt 1.000000 0.750000
vt 1.000000 0.250000
vt 1.000000 0.000000
vt 1.000000 0.500000
s 1
g C_Branch_0.001_dark_wood
usemtl dark_wood
f 1/1/1 5/2/5 8/3/8 4/4/4
f 2/5/2 6/6/6 5/7/5 1/8/1
f 3/9/3 7/10/7 6/6/6 2/5/2
f 4/4/4 8/3/8 7/10/7 3/9/3
f 5/2/5 9/11/9 12/12/12 8/3/8
f 6/6/6 10/13/10 9/14/9 5/7/5
f 7/10/7 11/15/11 10/13/10 6/6/6
f 8/3/8 12/12/12 11/15/11 7/10/7
g C_Branch_0.001_Mesh
v -0.024498 0.194784 0.451716
v -0.089540 0.070000 0.333401
v -0.095502 -0.054784 0.468284
v -0.030460 0.070000 0.586599
v -0.325823 0.220252 0.472540
v -0.384016 0.107662 0.460834
v -0.394177 0.099748 0.587460
v -0.335984 0.212338 0.599166
v -0.549820 0.321328 0.427205
v -0.573196 0.299975 0.442940
v -0.570180 0.318672 0.472795
v -0.546804 0.340025 0.457060
vn 0.0871 0.9953 0.0434
vn -0.2815 0.0222 -0.9593
vn -0.3204 -0.9441 0.0776
vn 0.0975 0.0991 0.9903
vn 0.2487 0.7999 -0.5461
vn -0.5304 -0.5445 -0.6498
vn -0.5327 -0.5578 0.6365
vn 0.1192 0.5895 0.7989
vn 0.1416 0.2404 -0.9603
vn -0.6806 -0.6919 -0.2409
vn -0.5927 0.0042 0.8054
vn 0.2606 0.9487 0.1790
vt 0.500000 1.000000
vt 0.000000 0.750000
vt 0.000000 1.000000
vt 0.000000 0.250000
vt 0.500000 0.000000
vt 0.000000 0.000000
vt 0.000000 0.500000
vt 0.500000 0.250000
vt 0.500000 0.500000
vt 1.000000 0.750000
vt 0.500000 0.750000
vt 1.000000 0.000000
vt 1.000000 0.500000
vt 1.000000 1.000000
vt 1.000000 0.250000
s 1
g C_Branch_0.001_dark_wood
usemtl dark_wood
f 17/16/17 16/17/16 13/18/13
f 14/19/14 17/20/17 13/21/13
f 15/22/15 18/23/18 14/19/14
f 16/17/16 19/24/19 15/22/15
f 17/16/17 24/25/24 20/26/20
f 18/23/18 21/27/21 17/20/17
f 23/28/23 18/23/18 19/24/19
f 20/26/20 23/28/23 19/24/19
f 17/16/17 20/26/20 16/17/16
f 14/19/14 18/23/18 17/20/17
f 15/22/15 19/24/19 18/23/18
f 16/17/16 20/26/20 19/24/19
f 17/16/17 21/29/21 24/25/24
f 18/23/18 22/30/22 21/27/21
f 23/28/23 22/30/22 18/23/18
f 20/26/20 24/25/24 23/28/23
g C_Branch_1.001_C_Branch_1Curve.001
v 0.059275 0.131185 0.402256
v -0.039161 0.020000 0.484403
v -0.019275 -0.091185 0.357744
v 0.079162 0.020000 0.275597
v 0.304849 -0.055628 0.595019
v 0.290389 -0.167147 0.607449
v 0.335151 -0.184372 0.504982
v 0.349611 -0.072853 0.492551
v 0.540385 -0.052012 0.651650
v 0.552631 -0.082922 0.639626
v 0.559615 -0.067988 0.608350
v 0.547369 -0.037078 0.620374
vn 0.3342 0.8609 0.3835
vn -0.4469 -0.2092 0.8698
vn -0.1361 -0.9475 -0.2895
vn 0.6369 0.1246 -0.7608
vn 0.0230 0.7494 0.6617
vn -0.2026 -0.5726 0.7944
vn 0.2073 -0.9074 -0.3655
vn 0.5218 0.3910 -0.7581
vn -0.1829 0.6623 0.7266
vn 0.1368 -0.6714 0.7284
vn 0.5758 -0.6051 -0.5499
vn 0.2586 0.7554 -0.6021
vt 0.000000 1.000000
vt 0.500000 1.000000
vt 0.500000 0.750000
vt 0.000000 0.750000
vt 0.000000 0.250000
vt 0.500000 0.250000
vt 0.500000 0.000000
vt 0.000000 0.000000
vt 0.000000 0.500000
vt 0.500000 0.500000
vt 1.000000 1.000000
vt 1.000000 0.750000
vt 1.000000 0.250000
vt 1.000000 0.000000
vt 1.000000 0.500000
s 1
g C_Branch_1.001_dark_wood
usemtl dark_wood
f 25/31/25 29/32/29 32/33/32 28/34/28
f 26/35/26 30/36/30 29/37/29 25/38/25
f 27/39/27 31/40/31 30/36/30 26/35/26
f 28/34/28 32/33/32 31/40/31 27/39/27
f 29/32/29 33/41/33 36/42/36 32/33/32
f 30/36/30 34/43/34 33/44/33 29/37/29
f 31/40/31 35/45/35 34/43/34 30/36/30
f 32/33/32 36/42/36 35/45/35 31/40/31
g C_Branch_1.001_Mesh
v 0.059275 0.131185 0.402256
v -0.039161 0.020000 0.484403
v -0.019275 -0.091185 0.357744
v 0.079162 0.020000 0.275597
v 0.304849 -0.055628 0.595019
v 0.290389 -0.167147 0.607449
v 0.335151 -0.184372 0.504982
v 0.349611 -0.072853 0.492551
v 0.540385 -0.052012 0.651650
v 0.552631 -0.082922 0.639626
v 0.559615 -0.067988 0.608350
v 0.547369 -0.037078 0.620374
vn 0.3707 0.9052 0.2079
vn -0.4541 -0.0183 0.8908
vn -0.1954 -0.9669 -0.1642
vn 0.6001 -0.1050 -0.7930
vn -0.0183 0.6740 0.7385
vn -0.1942 -0.6447 0.7394
vn 0.2665 -0.8390 -0.4744
vn 0.5139 0.4404 -0.7362
vn -0.2291 0.2692 0.9355
vn 0.2403 -0.8336 0.4974
vn 0.6341 -0.2468 -0.7328
vn 0.1750 0.9471 -0.2691
vt 0.000000 1.000000
vt 0.500000 0.750000
vt 0.000000 0.750000
vt 0.000000 0.250000
vt 0.500000 0.000000
vt 0.000000 0.000000
vt 0.000000 0.500000
vt 0.500000 0.250000
vt 0.500000 1.000000
vt 1.000000 0.750000
vt 1.000000 0.250000
vt 0.500000 0.500000
vt 1.000000 0.500000
vt 1.000000 1.000000
vt 1.000000 0.000000
s 1
g C_Branch_1.001_dark_wood
usemtl dark_wood
f 37/46/37 44/47/44 40/48/40
f 38/49/38 41/50/41 37/51/37
f 39/52/39 42/53/42 38/49/38
f 44/47/44 39/52/39 40/48/40
f 41/54/41 48/55/48 44/47/44
f 46/56/46 41/50/41 42/53/42
f 43/57/43 46/56/46 42/53/42
f 44/47/44 47/58/47 43/57/43
f 37/46/37 41/54/41 44/47/44
f 38/49/38 42/53/42 41/50/41
f 39/52/39 43/57/43 42/53/42
f 44/47/44 43/57/43 39/52/39
f 41/54/41 45/59/45 48/55/48
f 46/56/46 45/60/45 41/50/41
f 43/57/43 47/58/47 46/56/46
f 44/47/44 48/55/48 47/58/47
g C_Branch_2.001_C_Branch_2Curve.001
v -0.006203 0.045728 0.112228
v 0.062289 -0.050000 0.190618
v 0.046203 -0.145728 0.087772
v -0.022289 -0.050000 0.009382
v 0.324943 0.106121 0.001545
v 0.367859 0.016950 -0.001049
v 0.315057 -0.006121 -0.081545
v 0.272141 0.083050 -0.078951
v 0.511267 0.199127 -0.266225
v 0.512442 0.174343 -0.279802
v 0.488733 0.180873 -0.293775
v 0.487558 0.205657 -0.280198
vn -0.0954 0.9634 0.2506
vn 0.5430 -0.1608 0.8242
vn 0.2546 -0.9076 -0.3338
vn -0.3808 0.2084 -0.9009
vn 0.1931 0.8493 0.4914
vn 0.7597 -0.3353 0.5572
vn 0.1238 -0.8498 -0.5124
vn -0.5737 0.4616 -0.6766
vn 0.3467 0.7861 0.5116
vn 0.8719 -0.4504 0.1920
vn -0.1591 -0.6711 -0.7241
vn -0.7040 0.5871 -0.3997
vt 0.000000 1.000000
vt 0.500000 1.000000
vt 0.500000 0.750000
vt 0.000000 0.750000
vt 0.000000 0.250000
vt 0.500000 0.250000
vt 0.500000 0.000000
vt 0.000000 0.000000
vt 0.000000 0.500000
vt 0.500000 0.500000
vt 1.000000 1.000000
vt 1.000000 0.750000
vt 1.000000 0.250000
vt 1.000000 0.000000
vt 1.000000 0.500000
s 1
g C_Branch_2.001_dark_wood
usemtl dark_wood
f 49/61/49 53/62/53 56/63/56 52/64/52
f 50/65/50 54/66/54 53/67/53 49/68/49
f 51/69/51 55/70/55 54/66/54 50/65/50
f 52/64/52 56/63/56 55/70/55 51/69/51
f 53/62/53 57/71/57 60/72/60 56/63/56
f 54/66/54 58/73/58 57/74/57 53/67/53
f 55/70/55 59/75/59 58/73/58 54/66/54
f 56/63/56 60/72/60 59/75/59 55/70/55
g C_Branch_2.001_Mesh
v -0.006203 0.045728 0.112228
v 0.062289 -0.050000 0.190618
v 0.046203 -0.145728 0.087772
v -0.022289 -0.050000 0.009382
v 0.324943 0.106121 0.001545
v 0.367859 0.016950 -0.001049
v 0.315057 -0.006121 -0.081545
v 0.272141 0.083050 -0.078951
v 0.511267 0.199127 -0.266225
v 0.512442 0.174343 -0.279802
v 0.488733 0.180873 -0.293775
v 0.487558 0.205657 -0.280198
vn -0.2382 0.9651 0.1091
vn 0.5237 -0.0130 0.8518
vn 0.3910 -0.9111 -0.1303
vn -0.3975 0.0098 -0.9176
vn 0.2608 0.8023 0.5370
vn 0.7407 -0.4469 0.5017
vn 0.0913 -0.8268 -0.5550
vn -0.5328 0.5619 -0.6328
vn 0.5698 0.4585 0.6820
vn 0.7173 -0.6954 -0.0433
vn -0.4340 -0.3552 -0.8279
vn -0.5266 0.8488 -0.0466
vt 0.000000 1.000000
vt 0.500000 0.750000
vt 0.000000 0.750000
vt 0.000000 0.250000
vt 0.500000 0.000000
vt 0.000000 0.000000
vt 0.500000 0.500000
vt 0.000000 0.500000
vt 1.000000 1.000000
vt 0.500000 1.000000
vt 1.000000 0.250000
vt 0.500000 0.250000
vt 1.000000 0.500000
vt 1.000000 0.750000
vt 1.000000 0.000000
s 1
g C_Branch_2.001_dark_wood
usemtl dark_wood
f 61/76/61 68/77/68 64/78/64
f 62/79/62 65/80/65 61/81/61
f 67/82/67 62/79/62 63/83/63
f 64/78/64 67/82/67 63/83/63
f 69/84/69 68/77/68 65/85/65
f 70/86/70 65/80/65 66/87/66
f 67/82/67 70/86/70 66/87/66
f 68/77/68 71/88/71 67/82/67
f 61/76/61 65/85/65 68/77/68
f 62/79/62 66/87/66 65/80/65
f 67/82/67 66/87/66 62/79/62
f 64/78/64 68/77/68 67/82/67
f 69/84/69 72/89/72 68/77/68
f 70/86/70 69/90/69 65/80/65
f 67/82/67 71/88/71 70/86/70
f 68/77/68 72/89/72 71/88/71
g C_Branch_3.001_C_Branch_3Curve.001
v -0.141829 -0.055546 -0.251951
v -0.073901 -0.140000 -0.331345
v -0.058171 -0.224454 -0.228049
v -0.126099 -0.140000 -0.148655
v -0.363302 -0.232458 -0.345200
v -0.338975 -0.319736 -0.360715
v -0.396698 -0.347542 -0.294800
v -0.421025 -0.260264 -0.279285
v -0.452159 -0.202123 -0.544434
v -0.464504 -0.227241 -0.548518
v -0.487841 -0.217877 -0.535566
v -0.475496 -0.192759 -0.531482
vn -0.4755 0.8148 -0.3317
vn 0.2358 -0.1967 -0.9517
vn 0.2868 -0.9162 0.2799
vn -0.4459 0.1150 0.8877
vn 0.0178 0.9583 -0.2852
vn 0.3581 -0.6013 -0.7143
vn -0.3358 -0.9065 0.2559
vn -0.6931 0.1745 0.6994
vn 0.6382 0.7483 -0.1807
vn 0.4956 -0.6077 -0.6205
vn -0.7552 -0.6504 -0.0811
vn -0.6793 0.6579 0.3253
vt 0.000000 1.000000
vt 0.500000 1.000000
vt 0.500000 0.750000
vt 0.000000 0.750000
vt 0.000000 0.250000
vt 0.500000 0.250000
vt 0.500000 0.000000
vt 0.000000 0.000000
vt 0.000000 0.500000
vt 0.500000 0.500000
vt 1.000000 1.000000
vt 1.000000 0.750000
vt 1.000000 0.250000
vt 1.000000 0.000000
vt 1.000000 0.500000
s 1
g C_Branch_3.001_dark_wood
usemtl dark_wood
f 73/91/73 77/92/77 80/93/80 76/94/76
f 74/95/74 78/96/78 77/97/77 73/98/73
f 75/99/75 79/100/79 78/96/78 74/95/74
f 76/94/76 80/93/80 79/100/79 75/99/75
f 77/92/77 81/101/81 84/102/84 80/93/80
f 78/96/78 82/103/82 81/104/81 77/97/77
f 79/100/79 83/105/83 82/103/82 78/96/78
f 80/93/80 84/102/84 83/105/83 79/100/79
g C_Branch_3.001_Mesh
v -0.141829 -0.055546 -0.251951
v -0.073901 -0.140000 -0.331345
v -0.058171 -0.224454 -0.228049
v -0.126099 -0.140000 -0.148655
v -0.363302 -0.232458 -0.345200
v -0.338975 -0.319736 -0.360715
v -0.396698 -0.347542 -0.294800
v -0.421025 -0.260264 -0.279285
v -0.452159 -0.202123 -0.544434
v -0.464504 -0.227241 -0.548518
v -0.487841 -0.217877 -0.535566
v -0.475496 -0.192759 -0.531482
vn -0.5859 0.8004 -0.1271
vn 0.2204 -0.0168 -0.9753
vn 0.3236 -0.9358 0.1399
vn -0.4639 -0.1041 0.8797
vn 0.0390 0.9335 -0.3565
vn 0.3643 -0.6826 -0.6336
vn -0.3519 -0.8516 0.3885
vn -0.6907 0.2754 0.6687
vn 0.8723 0.3565 -0.3347
vn 0.2793 -0.8563 -0.4345
vn -0.9158 -0.3953 0.0706
vn -0.3523 0.9125 0.2080
vt 0.500000 1.000000
vt 0.000000 0.750000
vt 0.000000 1.000000
vt 0.000000 0.250000
vt 0.500000 0.000000
vt 0.000000 0.000000
vt 0.000000 0.500000
vt 0.500000 0.250000
vt 0.500000 0.750000
vt 1.000000 0.750000
vt 1.000000 0.250000
vt 1.000000 0.500000
vt 0.500000 0.500000
vt 1.000000 1.000000
vt 1.000000 0.000000
s 1
g C_Branch_3.001_dark_wood
usemtl dark_wood
f 89/106/89 88/107/88 85/108/85
f 86/109/86 89/110/89 85/111/85
f 87/112/87 90/113/90 86/109/86
f 92/114/92 87/112/87 88/107/88
f 89/106/89 96/115/96 92/114/92
f 94/116/94 89/110/89 90/113/90
f 95/117/95 90/113/90 91/118/91
f 92/114/92 95/117/95 91/118/91
f 89/106/89 92/114/92 88/107/88
f 86/109/86 90/113/90 89/110/89
f 87/112/87 91/118/91 90/113/90
f 92/114/92 91/118/91 87/112/87
f 89/106/89 93/119/93 96/115/96
f 94/116/94 93/120/93 89/110/89
f 95/117/95 94/116/94 90/113/90
f 92/114/92 96/115/96 95/117/95
g C_Branch_4.001_C_Branch_4Curve.001
v 0.025303 0.089947 -0.529598
v 0.026599 0.020000 -0.449875
v -0.025303 -0.049947 -0.510402
v -0.026599 0.020000 -0.590125
v 0.326333 -0.068983 -0.615239
v 0.298198 -0.128695 -0.589883
v 0.253667 -0.131017 -0.644761
v 0.281802 -0.071305 -0.670117
v 0.395384 -0.250115 -0.770655
v 0.373842 -0.263664 -0.770031
v 0.364616 -0.249885 -0.789345
v 0.386158 -0.236336 -0.789969
vn 0.4704 0.8818 0.0346
vn 0.3502 -0.2167 0.9113
vn -0.3274 -0.9407 -0.0884
vn -0.2094 0.1460 -0.9669
vn 0.7884 0.5888 0.1780
vn 0.3477 -0.4413 0.8273
vn -0.6252 -0.7493 -0.2185
vn 0.0003 0.4930 -0.8700
vn 0.9626 0.2041 0.1780
vn 0.0847 -0.7810 0.6187
vn -0.8560 -0.3782 -0.3524
vn 0.0580 0.6103 -0.7901
vt 0.000000 1.000000
vt 0.500000 1.000000
vt 0.500000 0.750000
vt 0.000000 0.750000
vt 0.000000 0.250000
vt 0.500000 0.250000
vt 0.500000 0.000000
vt 0.000000 0.000000
vt 0.000000 0.500000
vt 0.500000 0.500000
vt 1.000000 1.000000
vt 1.000000 0.750000
vt 1.000000 0.250000
vt 1.000000 0.000000
vt 1.000000 0.500000
s 1
g C_Branch_4.001_dark_wood
usemtl dark_wood
f 97/121/97 101/122/101 104/123/104 100/124/100
f 98/125/98 102/126/102 101/127/101 97/128/97
f 99/129/99 103/130/103 102/126/102 98/125/98
f 100/124/100 104/123/104 103/130/103 99/129/99
f 101/122/101 105/131/105 108/132/108 104/123/104
f 102/126/102 106/133/106 105/134/105 101/127/101
f 103/130/103 107/135/107 106/133/106 102/126/102
f 104/123/104 108/132/108 107/135/107 103/130/103
g C_Branch_4.001_Mesh
v 0.025303 0.089947 -0.529598
v 0.026599 0.020000 -0.449875
v -0.025303 -0.049947 -0.510402
v -0.026599 0.020000 -0.590125
v 0.326333 -0.068983 -0.615239
v 0.298198 -0.128695 -0.589883
v 0.253667 -0.131017 -0.644761
v 0.281802 -0.071305 -0.670117
v 0.395384 -0.250115 -0.770655
v 0.373842 -0.263664 -0.770031
v 0.364616 -0.249885 -0.789345
v 0.386158 -0.236336 -0.789969
vn 0.4294 0.8944 -0.1253
vn 0.5050 -0.0654 0.8607
vn -0.2226 -0.9673 0.1216
vn -0.3274 -0.0141 -0.9448
vn 0.7770 0.5549 0.2974
vn 0.2650 -0.5030 0.8227
vn -0.6363 -0.7158 -0.2876
vn 0.0609 0.5575 -0.8280
vn 0.9106 -0.0382 0.4115
vn -0.2560 -0.8739 0.4133
vn -0.7949 -0.0040 -0.6067
vn 0.3390 0.7632 -0.5501
vt 0.000000 1.000000
vt 0.500000 0.750000
vt 0.000000 0.750000
vt 0.500000 0.250000
vt 0.000000 0.000000
vt 0.000000 0.250000
vt 0.500000 0.500000
vt 0.000000 0.500000
vt 1.000000 1.000000
vt 0.500000 1.000000
vt 1.000000 0.000000
vt 0.500000 0.000000
vt 1.000000 0.250000
vt 1.000000 0.750000
vt 1.000000 0.500000
s 1
g C_Branch_4.001_dark_wood
usemtl dark_wood
f 109/136/109 116/137/116 112/138/112
f 114/139/114 109/140/109 110/141/110
f 115/142/115 110/141/110 111/143/111
f 112/138/112 115/142/115 111/143/111
f 117/144/117 116/137/116 113/145/113
f 114/139/114 117/146/117 113/147/113
f 115/142/115 118/148/118 114/139/114
f 120/149/120 115/142/115 116/137/116
f 109/136/109 113/145/113 116/137/116
f 114/139/114 113/147/113 109/140/109
f 115/142/115 114/139/114 110/141/110
f 112/138/112 116/137/116 115/142/115
f 117/144/117 120/149/120 116/137/116
f 114/139/114 118/148/118 117/146/117
f 115/142/115 119/150/119 118/148/118
f 120/149/120 119/150/119 115/142/115
g C_Sap.001_C_SapCurve.001
v 0.308620 0.089318 -0.026209
v 0.280714 0.060000 -0.013492
v 0.311380 0.030682 -0.013791
v 0.339286 0.060000 -0.026508
v 0.349055 0.121637 0.156134
v 0.328026 0.098984 0.159680
v 0.350945 0.078363 0.163866
v 0.371974 0.101016 0.160320
v 0.309668 0.126919 0.308989
v 0.303241 0.119424 0.308274
v 0.310332 0.113081 0.311011
v 0.316759 0.120576 0.311726
vn -0.0385 0.9857 -0.1641
vn -0.9658 0.0089 0.2591
vn 0.0530 -0.9669 0.2496
vn 0.9845 0.0091 -0.1754
vn 0.0566 0.9926 -0.1078
vn -0.9982 -0.0159 0.0575
vn 0.1465 -0.9588 0.2434
vn 0.9951 0.0686 0.0715
vn -0.0628 0.9967 -0.0515
vn -0.9855 -0.0689 -0.1547
vn 0.0310 -0.9711 0.2366
vn 0.9386 0.0950 0.3317
vt 0.000000 1.000000
vt 0.500000 1.000000
vt 0.500000 0.750000
vt 0.000000 0.750000
vt 0.000000 0.250000
vt 0.500000 0.250000
vt 0.500000 0.000000
vt 0.000000 0.000000
vt 0.000000 0.500000
vt 0.500000 0.500000
vt 1.000000 1.000000
vt 1.000000 0.750000
vt 1.000000 0.250000
vt 1.000000 0.000000
vt 1.000000 0.500000
s 1
g C_Sap.001_wet_residue
usemtl wet_residue
f 121/151/121 125/152/125 128/153/128 124/154/124
f 122/155/122 126/156/126 125/157/125 121/158/121
f 123/159/123 127/160/127 126/156/126 122/155/122
f 124/154/124 128/153/128 127/160/127 123/159/123
f 125/152/125 129/161/129 132/162/132 128/153/128
f 126/156/126 130/163/130 129/164/129 125/157/125
f 127/160/127 131/165/131 130/163/130 126/156/126
f 128/153/128 132/162/132 131/165/131 127/160/127
g C_Sap.001_Mesh
v 0.308620 0.089318 -0.026209
v 0.280714 0.060000 -0.013492
v 0.311380 0.030682 -0.013791
v 0.339286 0.060000 -0.026508
v 0.349055 0.121637 0.156134
v 0.328026 0.098984 0.159680
v 0.350945 0.078363 0.163866
v 0.371974 0.101016 0.160320
v 0.309668 0.126919 0.308989
v 0.303241 0.119424 0.308274
v 0.310332 0.113081 0.311011
v 0.316759 0.120576 0.311726
vn -0.0373 0.9857 -0.1643
vn -0.9652 0.0098 0.2615
vn 0.0543 -0.9669 0.2495
vn 0.9843 0.0092 -0.1761
vn 0.0569 0.9926 -0.1074
vn -0.9982 -0.0162 0.0570
vn 0.1468 -0.9587 0.2437
vn 0.9951 0.0684 0.0714
vn -0.0713 0.9961 -0.0529
vn -0.9855 -0.0701 -0.1547
vn 0.0223 -0.9718 0.2349
vn 0.9371 0.0945 0.3359
vt 0.500000 1.000000
vt 0.000000 0.750000
vt 0.000000 1.000000
vt 0.500000 0.250000
vt 0.000000 0.000000
vt 0.000000 0.250000
vt 0.000000 0.500000
vt 0.500000 0.500000
vt 1.000000 0.750000
vt 0.500000 0.750000
vt 1.000000 0.000000
vt 0.500000 0.000000
vt 1.000000 0.500000
vt 1.000000 1.000000
vt 1.000000 0.250000
s 1
g C_Sap.001_wet_residue
usemtl wet_residue
f 137/166/137 136/167/136 133/168/133
f 138/169/138 133/170/133 134/171/134
f 135/172/135 138/169/138 134/171/134
f 136/167/136 139/173/139 135/172/135
f 137/166/137 144/174/144 140/175/140
f 138/169/138 141/176/141 137/177/137
f 143/178/143 138/169/138 139/173/139
f 144/174/144 139/173/139 140/175/140
f 137/166/137 140/175/140 136/167/136
f 138/169/138 137/177/137 133/170/133
f 135/172/135 139/173/139 138/169/138
f 136/167/136 140/175/140 139/173/139
f 137/166/137 141/179/141 144/174/144
f 138/169/138 142/180/142 141/176/141
f 143/178/143 142/180/142 138/169/138
f 144/174/144 143/178/143 139/173/139
g C_Trunk.001_C_TrunkCurve.001
v 0.013997 0.192375 0.772876
v 0.193341 -0.000000 0.668822
v -0.013997 -0.192375 0.667124
v -0.193341 0.000000 0.771179
v -0.002703 0.312711 0.374233
v 0.122148 0.013481 0.400195
v -0.177297 -0.112711 0.385767
v -0.302148 0.186519 0.359805
v 0.207343 0.088130 -0.017534
v 0.209358 -0.190664 0.084788
v -0.087343 -0.188130 0.097534
v -0.089358 0.090664 -0.004788
v 0.046465 -0.081799 -0.293839
v -0.051722 -0.314064 -0.328658
v -0.286465 -0.218201 -0.306161
v -0.188278 0.014064 -0.271342
v 0.152298 0.031810 -0.536687
v 0.043958 -0.073968 -0.640963
v -0.092298 0.048190 -0.623313
v 0.016042 0.153968 -0.519037
v 0.151266 0.150496 -0.835950
v 0.084801 0.124473 -0.866856
v 0.048734 0.189504 -0.844050
v 0.115199 0.215527 -0.813144
vn 0.1585 0.9451 0.2856
vn 0.9707 -0.0883 -0.2236
vn -0.1255 -0.9713 -0.2020
vn -0.9368 0.1127 0.3312
vn 0.2428 0.9701 -0.0015
vn 0.9579 -0.2645 0.1118
vn -0.5545 -0.8317 -0.0288
vn -0.9044 0.4141 -0.1025
vn 0.7532 0.5655 -0.3360
vn 0.7687 -0.6204 0.1558
vn -0.5589 -0.7818 0.2765
vn -0.6077 0.7061 -0.3634
vn 0.9604 0.2364 -0.1471
vn 0.2006 -0.9380 -0.2827
vn -0.9026 -0.4196 -0.0958
vn -0.6225 0.7770 0.0939
vn 0.9730 0.0525 0.2250
vn 0.2114 -0.7905 -0.5748
vn -0.8649 0.1141 -0.4888
vn -0.0332 0.9441 0.3280
vn 0.9974 -0.0614 -0.0370
vn -0.0132 -0.7470 -0.6647
vn -0.8782 0.2890 -0.3810
vn 0.1423 0.9599 0.2415
vt 0.000000 1.000000
vt 0.200000 1.000000
vt 0.200000 0.750000
vt 0.000000 0.750000
vt 0.000000 0.250000
vt 0.200000 0.250000
vt 0.200000 0.000000
vt 0.000000 0.000000
vt 0.000000 0.500000
vt 0.200000 0.500000
vt 0.400000 1.000000
vt 0.400000 0.750000
vt 0.400000 0.250000
vt 0.400000 0.000000
vt 0.400000 0.500000
vt 0.600000 1.000000
vt 0.600000 0.750000
vt 0.600000 0.250000
vt 0.600000 0.000000
vt 0.600000 0.500000
vt 0.800000 1.000000
vt 0.800000 0.750000
vt 0.800000 0.250000
vt 0.800000 0.000000
vt 0.800000 0.500000
vt 1.000000 1.000000
vt 1.000000 0.750000
vt 1.000000 0.250000
vt 1.000000 0.000000
vt 1.000000 0.500000
s 1
g C_Trunk.001_dark_wood
usemtl dark_wood
f 145/181/145 149/182/149 152/183/152 148/184/148
f 146/185/146 150/186/150 149/187/149 145/188/145
f 147/189/147 151/190/151 150/186/150 146/185/146
f 148/184/148 152/183/152 151/190/151 147/189/147
f 149/182/149 153/191/153 156/192/156 152/183/152
f 150/186/150 154/193/154 153/194/153 149/187/149
f 151/190/151 155/195/155 154/193/154 150/186/150
f 152/183/152 156/192/156 155/195/155 151/190/151
f 153/191/153 157/196/157 160/197/160 156/192/156
f 154/193/154 158/198/158 157/199/157 153/194/153
f 155/195/155 159/200/159 158/198/158 154/193/154
f 156/192/156 160/197/160 159/200/159 155/195/155
f 157/196/157 161/201/161 164/202/164 160/197/160
f 158/198/158 162/203/162 161/204/161 157/199/157
f 159/200/159 163/205/163 162/203/162 158/198/158
f 160/197/160 164/202/164 163/205/163 159/200/159
f 161/201/161 165/206/165 168/207/168 164/202/164
f 162/203/162 166/208/166 165/209/165 161/204/161
f 163/205/163 167/210/167 166/208/166 162/203/162
f 164/202/164 168/207/168 167/210/167 163/205/163
g C_Trunk.001_Mesh
v 0.013997 0.192375 0.772876
v 0.193341 -0.000000 0.668822
v -0.013997 -0.192375 0.667124
v -0.193341 0.000000 0.771179
v -0.002703 0.312711 0.374233
v 0.122148 0.013481 0.400195
v -0.177297 -0.112711 0.385767
v -0.302148 0.186519 0.359805
v 0.207343 0.088130 -0.017534
v 0.209358 -0.190664 0.084788
v -0.087343 -0.188130 0.097534
v -0.089358 0.090664 -0.004788
v 0.046465 -0.081799 -0.293839
v -0.051722 -0.314064 -0.328658
v -0.286465 -0.218201 -0.306161
v -0.188278 0.014064 -0.271342
v 0.152298 0.031810 -0.536687
v 0.043958 -0.073968 -0.640963
v -0.092298 0.048190 -0.623313
v 0.016042 0.153968 -0.519037
v 0.151266 0.150496 -0.835950
v 0.084801 0.124473 -0.866856
v 0.048734 0.189504 -0.844050
v 0.115199 0.215527 -0.813144
vn 0.1248 0.9483 0.2918
vn 0.9626 0.1045 -0.2499
vn -0.0069 -0.9895 -0.1442
vn -0.9273 -0.0099 0.3743
vn 0.2661 0.9639 -0.0028
vn 0.9620 -0.2492 0.1118
vn -0.5465 -0.8321 -0.0944
vn -0.9075 0.4030 -0.1181
vn 0.7555 0.5511 -0.3543
vn 0.7451 -0.6422 0.1798
vn -0.5743 -0.7555 0.3153
vn -0.6113 0.6885 -0.3902
vn 0.9608 0.2396 -0.1394
vn 0.1910 -0.9344 -0.3006
vn -0.9062 -0.4060 -0.1179
vn -0.6174 0.7758 0.1304
vn 0.9730 -0.0177 0.2300
vn 0.1699 -0.8305 -0.5304
vn -0.8753 0.1191 -0.4686
vn 0.0044 0.9435 0.3312
vn 0.9596 -0.1996 -0.1984
vn -0.1888 -0.6428 -0.7424
vn -0.8064 0.4819 -0.3428
vn 0.3401 0.9193 0.1982
vt 0.000000 1.000000
vt 0.200000 0.750000
vt 0.000000 0.750000
vt 0.200000 0.250000
vt 0.000000 0.000000
vt 0.000000 0.250000
vt 0.000000 0.500000
vt 0.200000 0.500000
vt 0.200000 1.000000
vt 0.400000 0.750000
vt 0.400000 0.000000
vt 0.200000 0.000000
vt 0.400000 0.500000
vt 0.600000 1.000000
vt 0.400000 1.000000
vt 0.400000 0.250000
vt 0.600000 0.000000
vt 0.600000 0.250000
vt 0.600000 0.750000
vt 0.800000 0.750000
vt 0.800000 0.250000
vt 0.800000 0.500000
vt 0.600000 0.500000
vt 0.800000 1.000000
vt 1.000000 0.750000
vt 1.000000 0.000000
vt 0.800000 0.000000
vt 1.000000 0.250000
vt 1.000000 0.500000
vt 1.000000 1.000000
s 1
g C_Trunk.001_dark_wood
usemtl dark_wood
f 169/211/169 176/212/176 172/213/172
f 174/214/174 169/215/169 170/216/170
f 171/217/171 174/214/174 170/216/170
f 172/213/172 175/218/175 171/217/171
f 173/219/173 180/220/180 176/212/176
f 174/214/174 177/221/177 173/222/173
f 179/223/179 174/214/174 175/218/175
f 180/220/180 175/218/175 176/212/176
f 181/224/181 180/220/180 177/225/177
f 178/226/178 181/227/181 177/221/177
f 179/223/179 182/228/182 178/226/178
f 184/229/184 179/223/179 180/220/180
f 181/224/181 188/230/188 184/229/184
f 186/231/186 181/227/181 182/228/182
f 187/232/187 182/228/182 183/233/183
f 184/229/184 187/232/187 183/233/183
f 185/234/185 192/235/192 188/230/188
f 186/231/186 189/236/189 185/237/185
f 187/232/187 190/238/190 186/231/186
f 188/230/188 191/239/191 187/232/187
f 169/211/169 173/219/173 176/212/176
f 174/214/174 173/222/173 169/215/169
f 171/217/171 175/218/175 174/214/174
f 172/213/172 176/212/176 175/218/175
f 173/219/173 177/225/177 180/220/180
f 174/214/174 178/226/178 177/221/177
f 179/223/179 178/226/178 174/214/174
f 180/220/180 179/223/179 175/218/175
f 181/224/181 184/229/184 180/220/180
f 178/226/178 182/228/182 181/227/181
f 179/223/179 183/233/183 182/228/182
f 184/229/184 183/233/183 179/223/179
f 181/224/181 185/234/185 188/230/188
f 186/231/186 185/237/185 181/227/181
f 187/232/187 186/231/186 182/228/182
f 184/229/184 188/230/188 187/232/187
f 185/234/185 189/240/189 192/235/192
f 186/231/186 190/238/190 189/236/189
f 187/232/187 191/239/191 190/238/190
f 188/230/188 192/235/192 191/239/191
