# Blender 5.0.1
# www.blender.org
mtllib celestial_fossil.mtl
g BoneSpiral.001_Mesh
v -0.127767 0.040379 0.140228
v -0.084265 0.028865 0.185228
v -0.040763 0.017351 0.140228
v -0.084265 0.028865 0.095228
v -0.118720 0.066295 0.140228
v -0.073774 0.068500 0.185228
v -0.028828 0.070705 0.140228
v -0.073774 0.068500 0.095228
v -0.127281 0.088631 0.140228
v -0.091403 0.115793 0.185228
v -0.055525 0.142955 0.140228
v -0.091403 0.115793 0.095228
v -0.155523 0.109136 0.140228
v -0.140079 0.151402 0.185228
v -0.124635 0.193669 0.140228
v -0.140079 0.151402 0.095228
v -0.201075 0.112208 0.140228
v -0.210274 0.156257 0.185228
v -0.219474 0.200307 0.140228
v -0.210274 0.156257 0.095228
v -0.250966 0.086123 0.140228
v -0.281690 0.119002 0.185228
v -0.312414 0.151881 0.140228
v -0.281690 0.119002 0.095228
v -0.285814 0.029033 0.140228
v -0.329051 0.041505 0.185228
v -0.372288 0.053977 0.140228
v -0.329051 0.041505 0.095228
v -0.286803 -0.048406 0.140228
v -0.330377 -0.059646 0.185228
v -0.373951 -0.070886 0.140228
v -0.330377 -0.059646 0.095228
v -0.243218 -0.124841 0.140228
v -0.275146 -0.156552 0.185228
v -0.307075 -0.188262 0.140228
v -0.275146 -0.156552 0.095228
v -0.157947 -0.174199 0.140228
v -0.169609 -0.217662 0.185228
v -0.181271 -0.261124 0.140228
v -0.169609 -0.217662 0.095228
v -0.048886 -0.174125 0.140228
v -0.037216 -0.217586 0.185228
v -0.025547 -0.261046 0.140228
v -0.037216 -0.217586 0.095228
v 0.054653 -0.114270 0.140228
v 0.086462 -0.146101 0.185228
v 0.118271 -0.177931 0.140228
v 0.086462 -0.146101 0.095228
v 0.119842 -0.001646 0.140228
v 0.163278 -0.013406 0.185228
v 0.206715 -0.025166 0.140228
v 0.163278 -0.013406 0.095228
v 0.120405 0.139019 0.140228
v 0.163940 0.150405 0.185228
v 0.207476 0.161792 0.140228
v 0.163940 0.150405 0.095228
v 0.045841 0.270561 0.140228
v 0.077988 0.302050 0.185228
v 0.110134 0.333540 0.140228
v 0.077988 0.302050 0.095228
v -0.093198 0.353203 0.140228
v -0.080881 0.396484 0.185228
v -0.068565 0.439766 0.140228
v -0.080881 0.396484 0.095228
v -0.265456 0.356330 0.140228
v -0.276179 0.400034 0.185228
v -0.286901 0.443738 0.140228
v -0.276179 0.400034 0.095228
v -0.425961 0.268778 0.140228
v -0.456892 0.301462 0.185228
v -0.487824 0.334146 0.140228
v -0.456892 0.301462 0.095228
v -0.527764 0.104368 0.140228
v -0.570805 0.117501 0.185228
v -0.613846 0.130634 0.140228
v -0.570805 0.117501 0.095228
v -0.535483 -0.099410 0.140228
v -0.579396 -0.109239 0.185228
v -0.623310 -0.119069 0.140228
v -0.579396 -0.109239 0.095228
v -0.436765 -0.289812 0.140228
v -0.470110 -0.320030 0.185228
v -0.503455 -0.350247 0.140228
v -0.470110 -0.320030 0.095228
v -0.248128 -0.412497 0.140228
v -0.262236 -0.455229 0.185228
v -0.276343 -0.497960 0.140228
v -0.262236 -0.455229 0.095228
v -0.012993 -0.426881 0.140228
v -0.004205 -0.471015 0.185228
v 0.004582 -0.515148 0.140228
v -0.004205 -0.471015 0.095228
v 0.217830 -0.312535 0.140228
v 0.237573 -0.352973 0.185228
v 0.257315 -0.393410 0.140228
v 0.237573 -0.352973 0.095228
vn -0.6686 0.2334 -0.7061
vn -0.6686 0.2334 0.7061
vn 0.6836 -0.1809 0.7071
vn 0.6836 -0.1809 -0.7071
vn -0.6783 -0.2528 -0.6899
vn -0.6783 -0.2528 0.6899
vn 0.6787 0.2508 0.6902
vn 0.6787 0.2508 -0.6902
vn -0.4264 -0.5828 -0.6917
vn -0.4264 -0.5828 0.6917
vn 0.4271 0.5821 0.6919
vn 0.4271 0.5821 -0.6919
vn -0.0498 -0.7194 -0.6928
vn -0.0498 -0.7194 0.6928
vn 0.0503 0.7193 0.6929
vn 0.0503 0.7193 -0.6929
vn 0.3332 -0.6388 -0.6934
vn 0.3332 -0.6388 0.6934
vn -0.3329 0.6389 0.6935
vn -0.3329 0.6389 -0.6935
vn 0.6144 -0.3755 -0.6939
vn 0.6144 -0.3755 0.6939
vn -0.6143 0.3757 0.6939
vn -0.6143 0.3757 -0.6939
vn 0.7198 -0.0094 -0.6942
vn 0.7198 -0.0094 0.6942
vn -0.7197 0.0096 0.6942
vn -0.7197 0.0096 -0.6942
vn 0.6252 0.3563 -0.6944
vn 0.6252 0.3563 0.6944
vn -0.6252 -0.3562 0.6944
vn -0.6252 -0.3562 -0.6944
vn 0.3605 0.6226 -0.6945
vn 0.3605 0.6226 0.6945
vn -0.3606 -0.6226 0.6945
vn -0.3606 -0.6226 -0.6945
vn -0.0004 0.7193 -0.6947
vn -0.0004 0.7193 0.6947
vn 0.0004 -0.7193 0.6947
vn 0.0004 -0.7193 -0.6947
vn -0.3599 0.6227 -0.6948
vn -0.3599 0.6227 0.6948
vn 0.3599 -0.6227 0.6948
vn 0.3599 -0.6227 -0.6948
vn -0.6224 0.3603 -0.6948
vn -0.6224 0.3603 0.6948
vn 0.6224 -0.3603 0.6948
vn 0.6224 -0.3603 -0.6948
vn -0.7191 0.0029 -0.6949
vn -0.7191 0.0029 0.6949
vn 0.7191 -0.0029 0.6949
vn 0.7191 -0.0029 -0.6949
vn -0.6256 -0.3546 -0.6949
vn -0.6256 -0.3546 0.6949
vn 0.6256 0.3546 0.6949
vn 0.6256 0.3546 -0.6949
vn -0.3674 -0.6181 -0.6950
vn -0.3674 -0.6181 0.6950
vn 0.3674 0.6181 0.6950
vn 0.3674 0.6181 -0.6950
vn -0.0131 -0.7189 -0.6950
vn -0.0131 -0.7189 0.6950
vn 0.0131 0.7189 0.6950
vn 0.0131 0.7189 -0.6950
vn 0.3443 -0.6312 -0.6950
vn 0.3443 -0.6312 0.6950
vn -0.3443 0.6312 0.6950
vn -0.3443 0.6312 -0.6950
vn 0.6112 -0.3785 -0.6951
vn 0.6112 -0.3785 0.6951
vn -0.6112 0.3785 0.6951
vn -0.6112 0.3785 -0.6951
vn 0.7184 -0.0272 -0.6951
vn 0.7184 -0.0272 0.6951
vn -0.7184 0.0272 0.6951
vn -0.7184 0.0272 -0.6951
vn 0.6382 0.3309 -0.6951
vn 0.6382 0.3309 0.6951
vn -0.6382 -0.3309 0.6951
vn -0.6382 -0.3309 -0.6951
vn 0.3920 0.6026 -0.6951
vn 0.3920 0.6026 0.6951
vn -0.3920 -0.6026 0.6951
vn -0.3920 -0.6026 -0.6951
vn 0.0439 0.7175 -0.6951
vn 0.0439 0.7175 0.6951
vn -0.0439 -0.7175 0.6951
vn -0.0439 -0.7175 -0.6951
vn -0.3154 0.6460 -0.6951
vn -0.3154 0.6460 0.6951
vn 0.3118 -0.6472 0.6956
vn 0.3118 -0.6472 -0.6956
vn -0.6998 0.1852 -0.6899
vn -0.6998 0.1852 0.6899
vn 0.7026 -0.1572 0.6940
vn 0.7026 -0.1572 -0.6940
vn -0.6734 -0.2581 -0.6927
vn -0.6734 -0.2581 0.6927
vn 0.6767 0.2522 0.6917
vn 0.6767 0.2522 -0.6917
vn -0.4235 -0.5833 -0.6932
vn -0.4235 -0.5833 0.6932
vn 0.4258 0.5820 0.6928
vn 0.4258 0.5820 -0.6928
vn -0.0485 -0.7187 -0.6936
vn -0.0485 -0.7187 0.6936
vn 0.0497 0.7188 0.6934
vn 0.0497 0.7188 -0.6934
vn 0.3336 -0.6381 -0.6940
vn 0.3336 -0.6381 0.6940
vn -0.3331 0.6384 0.6939
vn -0.3331 0.6384 -0.6939
vn 0.6144 -0.3750 -0.6942
vn 0.6144 -0.3750 0.6942
vn -0.6142 0.3754 0.6942
vn -0.6142 0.3754 -0.6942
vn 0.7195 -0.0092 -0.6944
vn 0.7195 -0.0092 0.6944
vn -0.7195 0.0094 0.6944
vn -0.7195 0.0094 -0.6944
vn 0.6250 0.3564 -0.6946
vn 0.6250 0.3564 0.6946
vn -0.6251 -0.3562 0.6945
vn -0.6251 -0.3562 -0.6945
vn 0.3604 0.6226 -0.6947
vn 0.3604 0.6226 0.6947
vn -0.3605 -0.6225 0.6947
vn -0.3605 -0.6225 -0.6947
vn -0.0005 0.7192 -0.6948
vn -0.0005 0.7192 0.6948
vn 0.0004 -0.7193 0.6948
vn 0.0004 -0.7192 -0.6948
vn -0.3599 0.6226 -0.6948
vn -0.3599 0.6226 0.6948
vn -0.6224 0.3602 -0.6949
vn -0.6224 0.3602 0.6949
vn 0.6224 -0.3603 0.6949
vn 0.6224 -0.3603 -0.6949
vn -0.6255 -0.3546 -0.6950
vn -0.6255 -0.3546 0.6950
vn 0.6255 0.3546 0.6950
vn 0.6255 0.3546 -0.6950
vn 0.3443 -0.6312 -0.6951
vn 0.3443 -0.6312 0.6951
vn -0.3443 0.6312 0.6951
vn -0.3443 0.6312 -0.6951
vn 0.3919 0.6026 -0.6951
vn 0.3919 0.6026 0.6951
vn -0.3919 -0.6026 0.6951
vn -0.3919 -0.6026 -0.6951
vn -0.3139 0.6336 -0.7071
vn -0.3139 0.6336 0.7071
vn 0.3102 -0.6354 0.7071
vn 0.3102 -0.6354 -0.7071
vt 0.598276 0.638928
vt 0.572248 0.666482
vt 0.585702 0.634397
vt 0.576709 0.634397
vt 0.604878 0.609036
vt 0.609330 0.621978
vt 0.580205 0.542072
vt 0.603344 0.507060
vt 0.610597 0.525141
vt 0.578848 0.561300
vt 0.601987 0.596312
vt 0.571595 0.579381
vt 0.609330 0.662349
vt 0.591024 0.671687
vt 0.580769 0.596312
vt 0.571595 0.615079
vt 0.582552 0.488512
vt 0.571595 0.517903
vt 0.599640 0.542751
vt 0.610597 0.572142
vt 0.417337 0.822649
vt 0.377340 0.805973
vt 0.401576 0.794444
vt 0.321465 0.805973
vt 0.281468 0.822650
vt 0.297230 0.794445
vt 0.934189 0.615207
vt 0.883314 0.624904
vt 0.900570 0.598380
vt 0.997607 0.326088
vt 0.946792 0.317080
vt 0.980264 0.298830
vt 0.403324 0.829386
vt 0.356945 0.836825
vt 0.341861 0.836825
vt 0.295481 0.829386
vt 0.959462 0.657447
vt 0.906957 0.636789
vt 0.974068 0.338973
vt 0.921631 0.360239
vt 0.390114 0.849431
vt 0.349403 0.881124
vt 0.349403 0.881124
vt 0.308692 0.849431
vt 0.966025 0.715550
vt 0.925643 0.668071
vt 0.955464 0.370934
vt 0.915097 0.418339
vt 0.384863 0.880396
vt 0.360926 0.926655
vt 0.337880 0.926655
vt 0.313942 0.880396
vt 0.948147 0.773270
vt 0.930671 0.712731
vt 0.950458 0.415591
vt 0.932896 0.474962
vt 0.393363 0.913918
vt 0.392232 0.958216
vt 0.306574 0.958216
vt 0.305442 0.913919
vt 0.907173 0.812025
vt 0.916511 0.758405
vt 0.964555 0.460396
vt 0.973689 0.511679
vt 0.793137 0.573836
vt 0.852223 0.593328
vt 0.807125 0.598379
vt 0.856707 0.295750
vt 0.916039 0.275331
vt 0.902304 0.298830
vt 0.353365 0.787152
vt 0.422354 0.770202
vt 0.407841 0.794445
vt 0.430710 0.812731
vt 0.499699 0.829680
vt 0.445222 0.836973
vt 0.828712 0.569841
vt 0.892660 0.554388
vt 0.815822 0.258628
vt 0.880071 0.272891
vt 0.306165 0.739700
vt 0.377375 0.764172
vt 0.475688 0.806701
vt 0.546899 0.782229
vt 0.861378 0.538374
vt 0.915097 0.487423
vt 0.793137 0.192738
vt 0.847044 0.242893
vt 0.281468 0.660381
vt 0.337784 0.724362
vt 0.515280 0.766890
vt 0.571595 0.702910
vt 0.879856 0.483208
vt 0.909729 0.408006
vt 0.798564 0.113205
vt 0.828360 0.188612
vt 0.289690 0.568192
vt 0.316791 0.656925
vt 0.536272 0.699453
vt 0.563374 0.610721
vt 0.875359 0.416721
vt 0.873844 0.337836
vt 0.834847 0.041575
vt 0.832907 0.122027
vt 0.332728 0.488321
vt 0.323865 0.577643
vt 0.529199 0.620172
vt 0.520335 0.530849
vt 0.844900 0.357169
vt 0.813565 0.298830
vt 0.895793 0.000000
vt 0.863703 0.061235
vt 0.402465 0.445305
vt 0.361250 0.508269
vt 0.491814 0.550798
vt 0.450599 0.487833
vt 0.793137 0.461899
vt 0.707735 0.450135
vt 0.777636 0.438225
vt 0.706480 0.011910
vt 0.621078 0.023674
vt 0.636579 -0.000000
vt 0.397803 0.042427
vt 0.305726 0.014304
vt 0.328938 -0.000000
vt 0.621078 0.023524
vt 0.526319 0.014196
vt 0.605359 0.000000
vt 0.732502 0.472233
vt 0.649569 0.511804
vt 0.764646 0.073579
vt 0.681713 0.034007
vt 0.430710 0.130273
vt 0.366530 0.051767
vt 0.551289 0.036062
vt 0.461533 0.084146
vt 0.681598 0.526205
vt 0.621078 0.611626
vt 0.793137 0.173401
vt 0.732617 0.087980
vt 0.414640 0.243597
vt 0.395783 0.129865
vt 0.493694 0.098250
vt 0.430710 0.196023
vt 0.656469 0.614252
vt 0.633644 0.725728
vt 0.780571 0.287503
vt 0.757746 0.176027
vt 0.349198 0.353277
vt 0.381408 0.231231
vt 0.466124 0.198322
vt 0.445850 0.322751
vt 0.667632 0.715595
vt 0.688128 0.823646
vt 0.726087 0.385421
vt 0.746583 0.277369
vt 0.247870 0.428490
vt 0.322547 0.329879
vt 0.479742 0.312304
vt 0.507120 0.430529
vt 0.716325 0.803105
vt 0.773595 0.876450
vt 0.640620 0.438225
vt 0.697890 0.364879
vt 0.135407 0.445305
vt 0.230953 0.397866
vt 0.535127 0.409727
vt 0.601775 0.487833
vt 0.145005 0.854346
vt 0.248030 0.812288
vt 0.169293 0.867926
vt 0.043482 0.366356
vt 0.151379 0.398707
vt 0.128833 0.413133
vt 0.041801 0.394004
vt 0.145005 0.458574
vt 0.035000 0.507461
vt 0.120541 0.445305
vt 0.216127 0.804087
vt 0.281468 0.705121
vt 0.000000 0.264722
vt 0.074284 0.356453
vt 0.794898 0.892308
vt 0.883314 0.985711
vt 0.853631 1.000000
vt 0.067008 0.515250
vt 0.000000 0.625029
vt 0.246470 0.706838
vt 0.256423 0.571334
vt 0.014030 0.131323
vt 0.034827 0.264225
vt 0.793137 0.744117
vt 0.829556 0.887141
vt 0.034974 0.622859
vt 0.029163 0.770333
vt 0.223646 0.584922
vt 0.174808 0.445305
vt 0.086591 0.000000
vt 0.047613 0.142663
vt 0.850313 0.598380
vt 0.827940 0.751028
vt 0.061761 0.756320
vt 0.115456 0.900954
vt 0.606889 0.634397
vt 0.609330 0.600206
vt 0.610597 0.487833
vt 0.571595 0.542073
vt 0.417337 0.938069
vt 0.281468 0.938069
vt 0.883314 0.789790
vt 0.997607 0.490131
vt 0.793137 0.323677
vt 0.916039 0.025538
vt 0.422354 0.470581
vt 0.430710 0.513110
vt 0.793137 0.850560
vt 0.621078 0.412335
vt 0.621078 0.461760
vt 0.145005 0.464595
vt 0.117625 0.017211
vt 0.883314 0.611465
vt 0.145005 0.881279
s 0
g BoneSpiral.001_bone
usemtl bone
f 5/1/1 4/2/1 1/3/1
f 2/4/2 5/5/2 1/6/2
f 3/7/3 6/8/3 2/9/3
f 8/10/4 3/11/4 4/12/4
f 5/1/5 12/13/5 8/14/5
f 10/15/6 5/5/6 6/16/6
f 11/17/7 6/8/7 7/18/7
f 8/10/8 11/19/8 7/20/8
f 9/21/9 16/22/9 12/23/9
f 14/24/10 9/25/10 10/26/10
f 15/27/11 10/28/11 11/29/11
f 12/30/12 15/31/12 11/32/12
f 13/33/13 20/34/13 16/22/13
f 18/35/14 13/36/14 14/24/14
f 19/37/15 14/38/15 15/27/15
f 16/39/16 19/40/16 15/31/16
f 17/41/17 24/42/17 20/34/17
f 22/43/18 17/44/18 18/35/18
f 23/45/19 18/46/19 19/37/19
f 20/47/20 23/48/20 19/40/20
f 21/49/21 28/50/21 24/42/21
f 26/51/22 21/52/22 22/43/22
f 27/53/23 22/54/23 23/45/23
f 24/55/24 27/56/24 23/48/24
f 25/57/25 32/58/25 28/50/25
f 30/59/26 25/60/26 26/51/26
f 31/61/27 26/62/27 27/53/27
f 28/63/28 31/64/28 27/56/28
f 29/65/29 36/66/29 32/67/29
f 34/68/30 29/69/30 30/70/30
f 35/71/31 30/72/31 31/73/31
f 32/74/32 35/75/32 31/76/32
f 33/77/33 40/78/33 36/66/33
f 38/79/34 33/80/34 34/68/34
f 39/81/35 34/82/35 35/71/35
f 36/83/36 39/84/36 35/75/36
f 37/85/37 44/86/37 40/78/37
f 42/87/38 37/88/38 38/79/38
f 43/89/39 38/90/39 39/81/39
f 40/91/40 43/92/40 39/84/40
f 41/93/41 48/94/41 44/86/41
f 46/95/42 41/96/42 42/87/42
f 47/97/43 42/98/43 43/89/43
f 44/99/44 47/100/44 43/92/44
f 45/101/45 52/102/45 48/94/45
f 50/103/46 45/104/46 46/95/46
f 51/105/47 46/106/47 47/97/47
f 48/107/48 51/108/48 47/100/48
f 49/109/49 56/110/49 52/102/49
f 54/111/50 49/112/50 50/103/50
f 55/113/51 50/114/51 51/105/51
f 52/115/52 55/116/52 51/108/52
f 53/117/53 60/118/53 56/119/53
f 58/120/54 53/121/54 54/122/54
f 59/123/55 54/124/55 55/125/55
f 56/126/56 59/127/56 55/128/56
f 57/129/57 64/130/57 60/118/57
f 62/131/58 57/132/58 58/120/58
f 63/133/59 58/134/59 59/123/59
f 60/135/60 63/136/60 59/127/60
f 61/137/61 68/138/61 64/130/61
f 66/139/62 61/140/62 62/131/62
f 67/141/63 62/142/63 63/133/63
f 64/143/64 67/144/64 63/136/64
f 65/145/65 72/146/65 68/138/65
f 70/147/66 65/148/66 66/139/66
f 71/149/67 66/150/67 67/141/67
f 68/151/68 71/152/68 67/144/68
f 69/153/69 76/154/69 72/146/69
f 74/155/70 69/156/70 70/147/70
f 75/157/71 70/158/71 71/149/71
f 72/159/72 75/160/72 71/152/72
f 73/161/73 80/162/73 76/154/73
f 78/163/74 73/164/74 74/155/74
f 79/165/75 74/166/75 75/157/75
f 76/167/76 79/168/76 75/160/76
f 77/169/77 84/170/77 80/171/77
f 82/172/78 77/173/78 78/174/78
f 83/175/79 78/174/79 79/165/79
f 80/176/80 83/177/80 79/178/80
f 81/179/81 88/180/81 84/170/81
f 86/181/82 81/182/82 82/172/82
f 87/183/83 82/184/83 83/185/83
f 84/186/84 87/187/84 83/177/84
f 85/188/85 92/189/85 88/180/85
f 90/190/86 85/191/86 86/181/86
f 91/192/87 86/193/87 87/183/87
f 88/194/88 91/195/88 87/187/88
f 89/196/89 96/197/89 92/189/89
f 94/198/90 89/199/90 90/190/90
f 95/200/91 90/201/91 91/192/91
f 92/202/92 95/203/92 91/195/92
f 5/1/93 8/14/93 4/2/93
f 2/4/94 6/16/94 5/5/94
f 3/7/95 7/18/95 6/8/95
f 8/10/96 7/20/96 3/11/96
f 5/1/97 9/204/97 12/13/97
f 10/15/98 9/205/98 5/5/98
f 11/17/99 10/206/99 6/8/99
f 8/10/100 12/207/100 11/19/100
f 9/21/101 13/33/101 16/22/101
f 14/24/102 13/36/102 9/25/102
f 15/27/103 14/38/103 10/28/103
f 12/30/104 16/39/104 15/31/104
f 13/33/105 17/41/105 20/34/105
f 18/35/106 17/44/106 13/36/106
f 19/37/107 18/46/107 14/38/107
f 16/39/108 20/47/108 19/40/108
f 17/41/109 21/49/109 24/42/109
f 22/43/110 21/52/110 17/44/110
f 23/45/111 22/54/111 18/46/111
f 20/47/112 24/55/112 23/48/112
f 21/49/113 25/57/113 28/50/113
f 26/51/114 25/60/114 21/52/114
f 27/53/115 26/62/115 22/54/115
f 24/55/116 28/63/116 27/56/116
f 25/57/117 29/208/117 32/58/117
f 30/59/118 29/209/118 25/60/118
f 31/61/119 30/210/119 26/62/119
f 28/63/120 32/211/120 31/64/120
f 29/65/121 33/77/121 36/66/121
f 34/68/122 33/80/122 29/69/122
f 35/71/123 34/82/123 30/72/123
f 32/74/124 36/83/124 35/75/124
f 33/77/125 37/85/125 40/78/125
f 38/79/126 37/88/126 33/80/126
f 39/81/127 38/90/127 34/82/127
f 36/83/128 40/91/128 39/84/128
f 37/85/129 41/93/129 44/86/129
f 42/87/130 41/96/130 37/88/130
f 43/89/131 42/98/131 38/90/131
f 40/91/132 44/99/132 43/92/132
f 41/93/133 45/101/133 48/94/133
f 46/95/134 45/104/134 41/96/134
f 47/97/43 46/106/43 42/98/43
f 44/99/44 48/107/44 47/100/44
f 45/101/135 49/109/135 52/102/135
f 50/103/136 49/112/136 45/104/136
f 51/105/137 50/114/137 46/106/137
f 48/107/138 52/115/138 51/108/138
f 49/109/49 53/212/49 56/110/49
f 54/111/50 53/213/50 49/112/50
f 55/113/51 54/214/51 50/114/51
f 52/115/52 56/215/52 55/116/52
f 53/117/139 57/129/139 60/118/139
f 58/120/140 57/132/140 53/121/140
f 59/123/141 58/134/141 54/124/141
f 56/126/142 60/135/142 59/127/142
f 57/129/57 61/137/57 64/130/57
f 62/131/58 61/140/58 57/132/58
f 63/133/59 62/142/59 58/134/59
f 60/135/60 64/143/60 63/136/60
f 61/137/61 65/145/61 68/138/61
f 66/139/62 65/148/62 61/140/62
f 67/141/63 66/150/63 62/142/63
f 64/143/64 68/151/64 67/144/64
f 65/145/143 69/153/143 72/146/143
f 70/147/144 69/156/144 65/148/144
f 71/149/145 70/158/145 66/150/145
f 68/151/146 72/159/146 71/152/146
f 69/153/69 73/161/69 76/154/69
f 74/155/70 73/164/70 69/156/70
f 75/157/71 74/166/71 70/158/71
f 72/159/72 76/167/72 75/160/72
f 73/161/73 77/216/73 80/162/73
f 78/163/74 77/217/74 73/164/74
f 79/165/75 78/174/75 74/166/75
f 76/167/76 80/218/76 79/168/76
f 77/169/77 81/179/77 84/170/77
f 82/172/78 81/182/78 77/173/78
f 83/175/79 82/172/79 78/174/79
f 80/176/80 84/186/80 83/177/80
f 81/179/147 85/188/147 88/180/147
f 86/181/148 85/191/148 81/182/148
f 87/183/149 86/193/149 82/184/149
f 84/186/150 88/194/150 87/187/150
f 85/188/85 89/196/85 92/189/85
f 90/190/86 89/199/86 85/191/86
f 91/192/87 90/201/87 86/193/87
f 88/194/88 92/202/88 91/195/88
f 89/196/151 93/219/151 96/197/151
f 94/198/152 93/220/152 89/199/152
f 95/200/153 94/221/153 90/201/153
f 92/202/154 96/222/154 95/203/154
g EmbeddedNodule.001_Mesh
v -0.604265 -0.581135 0.175228
v -0.510197 -0.487161 0.212028
v -0.640195 -0.487161 0.234772
v -0.720540 -0.487161 0.175228
v -0.640195 -0.487161 0.115683
v -0.510197 -0.487161 0.138427
v -0.568335 -0.335108 0.234772
v -0.698333 -0.335108 0.212028
v -0.698333 -0.335108 0.138427
v -0.568335 -0.335108 0.115683
v -0.487990 -0.335108 0.175228
v -0.604265 -0.241135 0.175228
vn 0.1505 -0.4874 0.8601
vn 0.7068 -0.7075 -0.0000
vn -0.4794 -0.5931 0.6468
vn -0.4794 -0.5931 -0.6468
vn 0.1505 -0.4874 -0.8601
vn 0.9895 -0.1445 -0.0000
vn 0.1718 -0.0812 0.9818
vn -0.5920 -0.1069 0.7988
vn -0.5920 -0.1069 -0.7988
vn 0.1718 -0.0812 -0.9818
vn 0.5920 0.1069 0.7988
vn -0.1718 0.0812 0.9818
vn -0.9895 0.1445 -0.0000
vn -0.1718 0.0812 -0.9818
vn 0.5920 0.1069 -0.7988
vn 0.4794 0.5931 0.6468
vn -0.1505 0.4874 0.8601
vn -0.7068 0.7075 -0.0000
vn -0.1505 0.4874 -0.8601
vn 0.4794 0.5931 -0.6468
vt 0.204120 0.403881
vt 0.432335 0.227106
vt 0.432335 0.462805
vt 0.165140 0.117853
vt 0.031830 0.929890
vt 0.000000 0.696350
vt 0.250000 0.840685
vt 0.468170 0.929890
vt 0.250000 0.840685
vt 0.500000 0.696350
vt 0.000000 0.286028
vt 0.369263 0.000000
vt 0.718169 0.929890
vt 0.500000 0.840685
vt 0.750000 0.696345
vt 0.250000 0.552011
vt 0.250000 0.552011
vt 1.000000 0.840685
vt 0.781831 0.929890
vt 0.750000 0.696345
vt 0.500000 0.552010
vt 0.031831 0.462805
vt 0.801598 0.462805
vt 0.597475 0.344952
vt 0.864671 0.235699
vt 0.468169 0.462805
vt 1.000000 0.552010
vt 0.718170 0.462805
vt 0.432335 0.176777
vt 0.636455 0.058924
vt 0.864671 -0.000000
vt 0.781830 0.462805
s 0
g EmbeddedNodule.001_oxidized_bronze
usemtl oxidized_bronze
f 97/223/155 98/224/155 99/225/155
f 98/224/156 97/223/156 102/226/156
f 97/227/157 99/228/157 100/229/157
f 97/230/158 100/231/158 101/232/158
f 97/223/159 101/233/159 102/226/159
f 98/224/160 102/226/160 107/234/160
f 99/235/161 98/236/161 103/237/161
f 100/229/162 99/228/162 104/238/162
f 101/232/163 100/231/163 105/239/163
f 102/240/164 101/241/164 106/242/164
f 98/236/165 107/243/165 103/237/165
f 99/228/166 103/244/166 104/238/166
f 100/245/167 104/246/167 105/247/167
f 101/232/168 105/239/168 106/248/168
f 102/240/169 106/242/169 107/249/169
f 103/237/170 107/243/170 108/250/170
f 104/246/171 103/251/171 108/252/171
f 105/247/172 104/246/172 108/252/172
f 106/253/173 105/247/173 108/252/173
f 107/249/174 106/242/174 108/254/174
g StoneSlab.001_Mesh
v -0.836582 -0.828996 0.035228
v -0.906015 -0.741157 0.035228
v -0.835600 -0.756859 0.105228
v -0.082134 -0.955690 0.105228
v -0.184265 -1.001135 0.035228
v 0.618060 -0.789026 0.035228
v 0.617651 -0.772848 0.105228
v 0.714785 -0.707448 0.035228
v 0.916685 -0.264822 0.035228
v 0.868387 -0.226639 0.105228
v 0.932516 -0.132394 0.035228
v 0.808954 0.510125 0.035228
v 0.725487 0.521427 0.105228
v 0.741790 0.623474 0.035228
v 0.329680 0.964257 0.035228
v 0.226827 0.933431 0.105228
v 0.206163 1.001135 0.035228
v -0.374693 0.936595 0.035228
v -0.463693 0.855378 0.105228
v -0.491304 0.877026 0.035228
v -0.932516 0.318887 0.035228
v -0.887226 0.440704 0.035228
v -0.864805 0.411333 0.105228
v -0.836582 -0.828996 -0.164772
v -0.835600 -0.756859 -0.234772
v -0.906015 -0.741157 -0.164772
v -0.184265 -1.001135 -0.164772
v -0.082134 -0.955690 -0.234772
v 0.618060 -0.789026 -0.164772
v 0.714785 -0.707448 -0.164772
v 0.617651 -0.772848 -0.234772
v 0.916685 -0.264822 -0.164772
v 0.932516 -0.132394 -0.164772
v 0.868387 -0.226639 -0.234772
v 0.808954 0.510125 -0.164772
v 0.741790 0.623474 -0.164772
v 0.725487 0.521427 -0.234772
v 0.329680 0.964257 -0.164772
v 0.206163 1.001135 -0.164772
v 0.226827 0.933431 -0.234772
v -0.374693 0.936595 -0.164772
v -0.491304 0.877026 -0.164772
v -0.463693 0.855378 -0.234772
v -0.932516 0.318887 -0.164772
v -0.864805 0.411333 -0.234772
v -0.887226 0.440704 -0.164772
v 0.360169 0.222289 0.105228
v 0.394756 0.193268 0.105228
v 0.545244 0.193268 0.105228
v 0.660526 0.290000 0.105228
v 0.686658 0.438203 0.105228
v 0.666496 0.473123 0.105228
v 0.253342 0.438203 0.105228
v 0.279474 0.290000 0.105228
v 0.328587 0.568530 0.105228
v 0.470000 0.620000 0.105228
v 0.611413 0.568530 0.105228
v 0.360169 0.222289 -0.234772
v 0.394756 0.193268 -0.234772
v 0.686658 0.438203 -0.234772
v 0.660526 0.290000 -0.234772
v 0.666496 0.473123 -0.234772
v 0.545244 0.193268 -0.234772
v 0.253342 0.438203 -0.234772
v 0.279474 0.290000 -0.234772
v 0.328587 0.568530 -0.234772
v 0.470000 0.620000 -0.234772
v 0.611413 0.568530 -0.234772
vn -0.6578 -0.5199 0.5450
vn 0.6345 -0.7523 0.1776
vn 0.7944 -0.0950 0.5999
vn 0.6257 0.3708 0.6863
vn 0.2188 0.7329 0.6442
vn -0.4141 0.8106 0.4140
vn -0.8559 0.3182 0.4077
vn -0.6577 -0.5199 -0.5450
vn 0.6345 -0.7523 -0.1776
vn 0.7944 -0.0950 -0.5999
vn 0.6257 0.3708 -0.6863
vn 0.2188 0.7329 -0.6442
vn -0.4141 0.8106 -0.4140
vn -0.8559 0.3182 -0.4077
vn -0.1804 -0.6837 0.7071
vn 0.2466 -0.9439 0.2196
vn -0.1804 -0.6837 -0.7071
vn 0.2477 -0.9369 -0.2469
vn 0.6852 -0.3145 0.6569
vn 0.6918 -0.3156 -0.6495
vn 0.6437 0.1230 0.7553
vn 0.6474 0.1245 -0.7519
vn 0.3939 0.4763 0.7861
vn 0.3939 0.4763 -0.7861
vn -0.0790 0.6991 0.7106
vn -0.0783 0.7049 -0.7049
vn -0.7069 -0.0177 0.7071
vn -0.6587 0.5950 0.4606
vn -0.7069 -0.0177 -0.7071
vn -0.6624 0.6011 -0.4472
vn -0.7845 -0.6201 -0.0000
vn 0.6447 -0.7644 -0.0000
vn 0.9929 -0.1187 -0.0000
vn 0.8603 0.5098 -0.0000
vn 0.2861 0.9582 -0.0000
vn -0.4549 0.8905 -0.0000
vn -0.9373 0.3485 -0.0000
vn -0.2552 -0.9669 -0.0000
vn -0.0000 -0.0000 1.0000
vn -0.9997 -0.0250 -0.0000
vn 0.2556 -0.9668 -0.0000
vn 0.9098 -0.4150 -0.0000
vn 0.9820 0.1888 -0.0000
vn 0.6373 0.7706 -0.0000
vn -0.1104 0.9939 -0.0000
vn -0.7406 0.6720 -0.0000
vn -0.0000 -0.0000 -1.0000
vn -0.3420 -0.9397 -0.0000
vn -0.8660 -0.5000 -0.0000
vn -0.9848 0.1736 -0.0000
vn -0.6428 0.7660 -0.0000
vn -0.0000 1.0000 -0.0000
vn 0.6428 0.7660 -0.0000
vn 0.9848 0.1736 -0.0000
vn 0.8660 -0.5000 -0.0000
vn 0.3420 -0.9397 -0.0000
vn 0.2477 -0.9369 0.2469
vn 0.2466 -0.9439 -0.2196
vn 0.6918 -0.3156 0.6495
vn 0.6852 -0.3145 -0.6569
vn 0.6474 0.1245 0.7519
vn 0.6437 0.1230 -0.7553
vn 0.3930 0.4757 0.7869
vn 0.3930 0.4757 -0.7869
vn -0.0783 0.7049 0.7049
vn -0.0790 0.6991 -0.7106
vn -0.6624 0.6011 0.4472
vn -0.6587 0.5950 -0.4606
vt 0.107552 0.910057
vt 0.089190 0.914485
vt 0.107552 0.927812
vt 0.107552 0.528471
vt 0.107552 0.510718
vt 0.089190 0.527523
vt 0.196742 0.698911
vt 0.196742 0.669323
vt 0.178380 0.690220
vt 0.070827 0.510718
vt 0.070827 0.523491
vt 0.089190 0.513918
vt 0.070827 0.621063
vt 0.070827 0.647607
vt 0.089190 0.637552
vt 0.070827 0.810098
vt 0.070827 0.837636
vt 0.089190 0.832717
vt 0.070827 0.967265
vt 0.089190 0.954814
vt 0.070827 0.953500
vt 0.160017 0.910057
vt 0.160017 0.927812
vt 0.178380 0.914485
vt 0.160017 0.528471
vt 0.178380 0.527523
vt 0.160017 0.510718
vt 0.509419 0.350641
vt 0.520905 0.339287
vt 0.500728 0.325726
vt 0.018363 0.510718
vt 0.000000 0.513918
vt 0.018363 0.523491
vt 0.018363 0.621063
vt 0.000000 0.637552
vt 0.018363 0.647607
vt 0.018363 0.810098
vt 0.000000 0.832717
vt 0.018363 0.837636
vt 0.018363 0.967265
vt 0.018363 0.953500
vt 0.000000 0.954814
vt 0.107552 0.738939
vt 0.089190 0.724946
vt 0.160017 0.738939
vt 0.178380 0.724946
vt 0.196742 0.826531
vt 0.178380 0.844893
vt 0.574880 0.460193
vt 0.178380 0.519942
vt 0.536491 0.140113
vt 0.515057 0.145477
vt 0.019475 0.428163
vt 0.025370 0.144889
vt 0.001571 0.422029
vt 0.980526 0.428163
vt 0.974630 0.144889
vt 0.954299 0.122748
vt 0.249207 0.665581
vt 0.210157 0.501829
vt 0.397901 0.474430
vt 0.479095 0.339287
vt 0.439868 0.198568
vt 0.407010 0.220449
vt 0.345434 0.018250
vt 0.338001 0.148134
vt 0.361394 0.116335
vt 0.163142 0.018597
vt 0.045701 0.122748
vt 0.285932 0.529081
vt 0.338397 0.807242
vt 0.338397 0.529081
vt 0.249207 0.826531
vt 0.249207 0.525685
vt 0.196742 0.525685
vt 0.602099 0.474430
vt 0.789843 0.501829
vt 0.592990 0.220449
vt 0.560132 0.198568
vt 0.654566 0.018250
vt 0.600246 0.107012
vt 0.638606 0.116335
vt 0.836858 0.018597
vt 1.000000 0.797831
vt 0.888889 0.643285
vt 0.888889 0.797831
vt 0.807549 0.797831
vt 0.807549 0.643285
vt 0.777778 0.797831
vt 0.777778 0.643285
vt 0.666667 0.797831
vt 0.555556 0.797831
vt 0.666667 0.643285
vt 0.555556 0.643285
vt 0.444444 0.500000
vt 0.555556 0.500000
vt 0.411109 0.797831
vt 0.444444 0.643285
vt 0.411109 0.643285
vt 0.333333 0.797831
vt 0.222222 0.643285
vt 0.222222 0.797831
vt 0.111111 0.643285
vt 0.111111 0.797831
vt 0.111111 0.797831
vt 0.000000 0.643285
vt 0.000000 0.797831
vt 0.998429 0.422029
vt 0.249207 0.698911
vt 0.367775 0.216089
vt 0.359598 0.207521
vt 0.463509 0.140113
vt 0.446730 0.150998
vt 0.450975 0.160686
vt 0.435132 0.124528
vt 0.446730 0.150998
vt 0.359598 0.207521
vt 0.340521 0.187530
vt 0.399754 0.107012
vt 0.285932 0.807242
vt 0.549025 0.160686
vt 0.553270 0.150998
vt 0.640402 0.207521
vt 0.632225 0.216089
vt 0.659479 0.187530
vt 0.640402 0.207521
vt 0.564868 0.124528
vt 0.661999 0.148134
vt 1.000000 0.643285
vt 0.888889 0.643285
vt 0.777778 0.643285
vt 0.333333 0.643285
vt 0.444444 0.797831
vt 0.222222 0.643285
vt 0.111111 0.643285
s 0
g StoneSlab.001_rough_limestone
usemtl rough_limestone
f 109/255/175 111/256/175 110/257/175
f 114/258/176 116/259/176 115/260/176
f 117/261/177 119/262/177 118/263/177
f 120/264/178 122/265/178 121/266/178
f 123/267/179 125/268/179 124/269/179
f 126/270/180 128/271/180 127/272/180
f 129/273/181 131/274/181 130/275/181
f 132/276/182 134/277/182 133/278/182
f 137/279/183 139/280/183 138/281/183
f 140/282/184 142/283/184 141/284/184
f 143/285/185 145/286/185 144/287/185
f 146/288/186 148/289/186 147/290/186
f 149/291/187 151/292/187 150/293/187
f 152/294/188 154/295/188 153/296/188
f 111/256/189 113/297/189 112/298/189
f 112/298/190 114/258/190 115/260/190
f 133/278/191 135/299/191 132/276/191
f 136/300/192 137/279/192 135/299/192
f 116/301/193 118/263/193 115/302/193
f 138/303/194 142/283/194 140/282/194
f 119/262/195 121/304/195 118/263/195
f 141/284/196 145/305/196 143/306/196
f 123/267/197 121/266/197 122/265/197
f 145/286/198 146/288/198 144/287/198
f 124/269/199 126/270/199 127/272/199
f 148/289/200 149/291/200 147/290/200
f 111/307/201 129/308/201 110/309/201
f 127/272/202 130/275/202 131/274/202
f 133/310/203 152/311/203 153/312/203
f 151/292/204 154/295/204 150/293/204
f 110/257/205 132/276/205 109/255/205
f 114/258/206 138/281/206 116/259/206
f 117/261/207 141/313/207 119/262/207
f 120/264/208 144/287/208 122/265/208
f 123/267/209 147/290/209 125/268/209
f 126/270/210 150/293/210 128/271/210
f 130/275/211 152/294/211 129/273/211
f 132/276/212 113/297/212 109/255/212
f 111/307/213 112/314/213 115/315/213
f 111/307/213 115/315/213 118/316/213
f 118/316/213 158/317/213 157/318/213
f 124/319/213 161/320/213 163/321/213
f 111/307/213 124/319/213 127/322/213
f 111/307/213 127/322/213 131/323/213
f 152/324/214 110/325/214 129/326/214
f 113/297/215 137/279/215 114/258/215
f 138/327/216 117/261/216 116/301/216
f 119/262/217 143/328/217 120/329/217
f 144/287/218 123/267/218 122/265/218
f 147/290/219 126/270/219 125/268/219
f 150/293/220 130/275/220 128/271/220
f 133/310/221 142/283/221 139/330/221
f 133/310/221 139/330/221 136/331/221
f 142/283/221 171/332/221 169/333/221
f 148/334/221 175/335/221 174/336/221
f 133/310/221 151/337/221 148/334/221
f 133/310/221 153/312/221 151/337/221
f 164/338/222 176/339/222 165/340/222
f 160/341/223 170/342/223 159/343/223
f 168/344/224 158/345/224 159/343/224
f 157/346/225 169/347/225 171/348/225
f 156/349/226 171/350/226 167/349/226
f 155/351/227 167/352/227 166/353/227
f 162/354/228 172/355/228 161/356/228
f 161/356/229 174/357/229 163/358/229
f 163/359/230 175/360/230 164/361/230
f 111/256/189 109/255/189 113/297/189
f 112/298/231 113/297/231 114/258/231
f 133/278/191 136/300/191 135/299/191
f 136/300/232 139/280/232 137/279/232
f 116/301/233 117/261/233 118/263/233
f 138/303/234 139/330/234 142/283/234
f 119/262/235 120/329/235 121/304/235
f 141/284/236 142/283/236 145/305/236
f 123/267/237 124/269/237 121/266/237
f 145/286/238 148/289/238 146/288/238
f 124/269/239 125/268/239 126/270/239
f 148/289/240 151/292/240 149/291/240
f 111/307/201 131/323/201 129/308/201
f 127/272/241 128/271/241 130/275/241
f 133/310/203 134/362/203 152/311/203
f 151/292/242 153/296/242 154/295/242
f 110/257/205 134/277/205 132/276/205
f 114/258/206 137/279/206 138/281/206
f 117/261/207 140/363/207 141/313/207
f 120/264/208 143/285/208 144/287/208
f 123/267/209 146/288/209 147/290/209
f 126/270/210 149/291/210 150/293/210
f 130/275/211 154/295/211 152/294/211
f 132/276/212 135/299/212 113/297/212
f 156/364/213 155/365/213 111/307/213
f 121/366/213 160/367/213 159/368/213
f 121/366/213 159/368/213 158/317/213
f 156/364/213 111/307/213 118/316/213
f 157/318/213 156/364/213 118/316/213
f 118/316/213 121/366/213 158/317/213
f 165/369/213 160/370/213 121/366/213
f 111/307/213 155/371/213 162/372/213
f 111/307/213 162/372/213 161/320/213
f 165/369/213 121/366/213 124/319/213
f 164/373/213 165/369/213 124/319/213
f 124/319/213 111/307/213 161/320/213
f 163/321/213 164/373/213 124/319/213
f 152/324/214 134/374/214 110/325/214
f 113/297/215 135/299/215 137/279/215
f 138/327/216 140/363/216 117/261/216
f 119/262/217 141/313/217 143/328/217
f 144/287/218 146/288/218 123/267/218
f 147/290/219 149/291/219 126/270/219
f 150/293/220 154/295/220 130/275/220
f 168/375/221 170/376/221 145/305/221
f 142/283/221 133/310/221 166/377/221
f 142/283/221 166/377/221 167/378/221
f 168/375/221 145/305/221 142/283/221
f 169/333/221 168/375/221 142/283/221
f 142/283/221 167/378/221 171/332/221
f 173/379/221 166/380/221 133/310/221
f 145/305/221 170/376/221 176/381/221
f 148/334/221 145/305/221 176/381/221
f 172/382/221 173/379/221 133/310/221
f 174/336/221 172/382/221 133/310/221
f 148/334/221 176/381/221 175/335/221
f 174/336/221 133/310/221 148/334/221
f 164/338/222 175/383/222 176/339/222
f 160/341/223 165/340/223 176/384/223
f 170/342/223 168/385/223 159/343/223
f 160/341/223 176/384/223 170/342/223
f 168/344/224 169/347/224 158/345/224
f 157/346/225 158/345/225 169/347/225
f 156/349/226 157/350/226 171/350/226
f 166/353/227 173/386/227 162/354/227
f 155/351/227 156/387/227 167/352/227
f 166/353/227 162/354/227 155/351/227
f 162/354/228 173/386/228 172/355/228
f 161/356/229 172/388/229 174/357/229
f 163/359/230 174/389/230 175/360/230
g VeinA.001_Mesh
v -0.741179 0.450161 0.150731
v -0.755226 0.428865 0.175209
v -0.767351 0.407569 0.149724
v -0.753304 0.428865 0.125246
v -0.477174 0.287101 0.160825
v -0.494757 0.268507 0.185220
v -0.511356 0.250629 0.159630
v -0.493773 0.269223 0.135235
v -0.303862 0.043301 0.153777
v -0.324370 0.028062 0.178214
v -0.344668 0.014429 0.152678
v -0.324161 0.029668 0.128241
vn 0.3972 0.6024 -0.6924
vn 0.3431 0.6023 0.7208
vn -0.3964 -0.6029 0.6924
vn -0.3418 -0.6030 -0.7208
vn 0.5851 0.4357 -0.6839
vn 0.5791 0.3910 0.7154
vn -0.5858 -0.4350 0.6838
vn -0.5801 -0.3898 -0.7152
vn 0.4016 0.6078 -0.6851
vn 0.3480 0.6076 0.7139
vn -0.4009 -0.6083 0.6850
vn -0.3468 -0.6085 -0.7138
vn 0.5801 0.4309 -0.6912
vn 0.5740 0.3857 0.7223
vn -0.5807 -0.4301 0.6912
vn -0.5749 -0.3845 -0.7222
vt 0.058464 0.000000
vt 0.079740 0.509296
vt 0.000000 0.009200
vt 0.336456 0.509241
vt 0.341028 -0.000000
vt 0.399763 0.007272
vt 0.198118 0.501880
vt 0.218802 -0.000000
vt 0.277267 0.009197
vt 0.458499 0.000000
vt 0.462480 0.499859
vt 0.399763 0.007269
vt 0.058407 1.000000
vt 0.138929 0.509477
vt 0.341064 0.999998
vt 0.277267 0.509384
vt 0.218860 0.985173
vt 0.138929 0.502064
vt 0.458462 0.981241
vt 0.521670 0.500005
vt 0.000000 0.990443
vt 0.399763 0.992443
vt 0.277267 0.975614
vt 0.399763 0.973684
s 0
g VeinA.001_crystal
usemtl crystal
f 177/390/243 184/391/243 180/392/243
f 182/393/244 177/394/244 178/395/244
f 183/396/245 178/397/245 179/398/245
f 180/399/246 183/400/246 179/401/246
f 185/402/247 184/391/247 181/403/247
f 182/393/248 185/404/248 181/405/248
f 183/396/249 186/406/249 182/407/249
f 188/408/250 183/400/250 184/409/250
f 177/390/251 181/403/251 184/391/251
f 182/393/252 181/405/252 177/394/252
f 183/396/253 182/407/253 178/397/253
f 180/399/254 184/409/254 183/400/254
f 185/402/255 188/410/255 184/391/255
f 182/393/256 186/411/256 185/404/256
f 183/396/257 187/412/257 186/406/257
f 188/408/258 187/413/258 183/400/258
g VeinB.001_Mesh
v 0.118252 -0.567796 0.150572
v 0.134910 -0.581135 0.173212
v 0.153218 -0.594474 0.151883
v 0.136559 -0.581135 0.129243
v 0.282682 -0.353435 0.156660
v 0.295304 -0.370748 0.179220
v 0.308788 -0.388835 0.157795
v 0.296166 -0.371522 0.135235
v 0.588157 -0.240490 0.152637
v 0.595790 -0.260486 0.175218
v 0.603313 -0.281780 0.153818
v 0.595680 -0.261784 0.131237
vn -0.5355 0.4286 -0.7277
vn -0.5883 0.4289 0.6855
vn 0.5367 -0.4270 0.7277
vn 0.5900 -0.4266 -0.6855
vn -0.2518 0.6556 -0.7119
vn -0.2486 0.6963 0.6734
vn 0.2503 -0.6564 0.7117
vn 0.2465 -0.6973 -0.6730
vn -0.5457 0.4388 -0.7139
vn -0.5973 0.4391 0.6711
vn 0.5471 -0.4375 0.7137
vn 0.5992 -0.4371 -0.6707
vn -0.2452 0.6428 -0.7258
vn -0.2420 0.6844 0.6878
vn 0.2436 -0.6433 0.7258
vn 0.2398 -0.6852 -0.6878
vt 0.111100 1.000000
vt 0.054322 0.547735
vt 0.163874 0.987157
vt 0.418855 0.547186
vt 0.379897 0.999936
vt 0.326659 0.989181
vt 0.272337 0.537928
vt 0.216641 0.980415
vt 0.163874 0.967548
vt 0.565387 0.976529
vt 0.527507 0.535453
vt 0.618620 0.965750
vt 0.110596 0.000000
vt -0.000000 0.548905
vt 0.380250 0.000000
vt 0.473182 0.548165
vt 0.217156 0.000000
vt 0.326659 0.539123
vt 0.565026 -0.000000
vt 0.473182 0.536457
vt 0.163874 0.010557
vt 0.326659 0.008829
vt 0.163874 0.010533
vt 0.618620 0.008805
s 0
g VeinB.001_crystal
usemtl crystal
f 189/414/259 196/415/259 192/416/259
f 194/417/260 189/418/260 190/419/260
f 195/420/261 190/421/261 191/422/261
f 192/423/262 195/424/262 191/425/262
f 197/426/263 196/415/263 193/427/263
f 194/417/264 197/428/264 193/429/264
f 195/420/265 198/430/265 194/431/265
f 200/432/266 195/424/266 196/433/266
f 189/414/267 193/427/267 196/415/267
f 194/417/268 193/429/268 189/418/268
f 195/420/269 194/431/269 190/421/269
f 192/423/270 196/433/270 195/424/270
f 197/426/271 200/434/271 196/415/271
f 194/417/272 198/435/272 197/428/272
f 195/420/273 199/436/273 198/430/273
f 200/432/274 199/437/274 195/424/274
