# Blender 5.0.1
# www.blender.org
mtllib cerberus_fang.mtl
g Barb0.001_Mesh
v -0.037573 0.318859 -0.002327
v -0.080806 0.293095 0.095485
v -0.177840 0.241565 0.100875
v -0.231641 0.215800 0.008455
v -0.188409 0.241565 -0.089357
v -0.091374 0.293095 -0.094748
v -0.314607 0.607330 0.013064
vn 0.6561 0.6061 0.4496
vn -0.0585 0.2123 0.9755
vn -0.8270 -0.1815 0.5320
vn -0.8809 -0.1815 -0.4372
vn 0.4677 -0.8835 -0.0260
vn -0.1662 0.2123 -0.9630
vn 0.6023 0.6061 -0.5196
vt 0.602961 0.625377
vt 0.779884 -0.000000
vt 0.779884 0.649921
vt 0.342685 0.576288
vt 0.602961 -0.000000
vt 0.426039 0.625377
vt 0.602961 0.649921
vt -0.000000 0.531430
vt 0.342685 -0.000000
vt 0.075172 0.592313
vt 0.000000 0.732075
vt 0.309373 0.732075
vt 0.154687 1.000000
vt 0.246515 0.642766
vt 0.342685 0.632338
vt 0.000000 0.910692
vt 0.154687 0.642767
vt 0.309373 0.910692
s 0
g Barb0.001_bone
usemtl bone
f 1/1/1 7/2/1 2/3/1
f 2/4/2 7/5/2 3/6/2
f 3/6/3 7/5/3 4/7/3
f 4/8/4 7/9/4 5/10/4
f 2/11/5 4/12/5 6/13/5
f 5/10/6 7/9/6 6/14/6
f 6/14/7 7/9/7 1/15/7
f 6/13/5 1/16/5 2/11/5
f 2/11/5 3/17/5 4/12/5
f 4/12/5 5/18/5 6/13/5
g Barb1.001_Mesh
v 0.423208 0.620911 0.026579
v 0.390414 0.604120 0.103180
v 0.312598 0.570539 0.109664
v 0.267577 0.553749 0.039549
v 0.300372 0.570539 -0.037052
v 0.378187 0.604120 -0.043536
v 0.225393 0.867330 0.043064
vn 0.7186 0.5482 0.4278
vn -0.0117 0.2157 0.9764
vn -0.8227 -0.1169 0.5563
vn -0.9035 -0.1169 -0.4124
vn 0.3937 -0.9187 -0.0328
vn -0.1732 0.2157 -0.9610
vn 0.6379 0.5482 -0.5409
vt 0.420603 0.631331
vt 0.594949 -0.000000
vt 0.594949 0.654962
vt -0.000000 0.540959
vt 0.338235 0.000000
vt 0.074694 0.599602
vt 0.243812 0.648120
vt 0.338235 0.637996
vt 0.000000 0.736090
vt 0.304737 0.736090
vt 0.152368 1.000000
vt 0.594949 0.631331
vt 0.769295 -0.000000
vt 0.769295 0.654962
vt 0.338235 0.584069
vt 0.000000 0.912030
vt 0.152368 0.648120
vt 0.304737 0.912030
s 0
g Barb1.001_bone
usemtl bone
f 8/19/8 14/20/8 9/21/8
f 9/22/9 14/23/9 10/24/9
f 10/24/10 14/23/10 11/25/10
f 11/25/11 14/23/11 12/26/11
f 9/27/12 11/28/12 13/29/12
f 12/30/13 14/31/13 13/32/13
f 13/33/14 14/20/14 8/19/14
f 13/29/12 8/34/12 9/27/12
f 9/27/12 10/35/12 11/28/12
f 11/28/12 12/36/12 13/29/12
g Barb2.001_Mesh
v 0.782609 0.762670 0.012600
v 0.745459 0.755000 0.059087
v 0.688242 0.739659 0.049550
v 0.668176 0.731989 -0.006472
v 0.705327 0.739659 -0.052959
v 0.762543 0.755000 -0.043423
v 0.665393 0.977330 -0.006936
vn 0.6727 0.4226 0.6073
vn -0.2144 0.2063 0.9547
vn -0.9409 -0.0100 0.3384
vn -0.7803 -0.0100 -0.6253
vn 0.2522 -0.9668 0.0420
vn 0.1068 0.2063 -0.9726
vn 0.8333 0.4226 -0.3563
vt 0.561983 0.655190
vt 0.725904 0.000000
vt 0.725904 0.675384
vt 0.319835 0.614802
vt 0.561983 0.000000
vt 0.398063 0.655190
vt 0.561983 0.675384
vt 0.000000 0.578207
vt 0.319835 0.000000
vt 0.072330 0.628399
vt 0.000000 0.752261
vt 0.286065 0.752261
vt 0.143032 1.000000
vt 0.232247 0.669681
vt 0.319835 0.660770
vt 0.000000 0.917420
vt 0.143032 0.669681
vt 0.286065 0.917420
s 0
g Barb2.001_bone
usemtl bone
f 15/37/15 21/38/15 16/39/15
f 16/40/16 21/41/16 17/42/16
f 17/42/17 21/41/17 18/43/17
f 18/44/18 21/45/18 19/46/18
f 16/47/19 18/48/19 20/49/19
f 19/46/20 21/45/20 20/50/20
f 20/50/21 21/45/21 15/51/21
f 20/49/19 15/52/19 16/47/19
f 16/47/19 17/53/19 18/48/19
f 18/48/19 19/54/19 20/49/19
g FangSegment0.001_Mesh
v -1.161339 -0.454187 0.052164
v -0.916039 -0.109936 0.018714
v -1.089298 -0.521388 -0.225943
v -0.850354 -0.171207 -0.234854
v -0.855590 -0.672387 -0.324072
v -0.637268 -0.308882 -0.324325
v -0.636203 -0.793478 -0.168331
v -0.437239 -0.419289 -0.182326
v -0.596339 -0.793478 0.124004
v -0.400892 -0.419289 0.084215
v -0.766017 -0.672387 0.332799
v -0.555598 -0.308882 0.274587
v -1.017465 -0.521388 0.300827
v -0.784860 -0.171207 0.245436
vn -0.7836 0.5263 -0.3302
vn -0.2856 0.1709 -0.9430
vn 0.4525 -0.2724 -0.8492
vn 0.8748 -0.4696 -0.1193
vn 0.6633 -0.2724 0.6970
vn 0.5201 0.8511 -0.0709
vn -0.0226 0.1709 0.9850
vn -0.6666 0.5263 0.5279
vn -0.5201 -0.8511 0.0709
vt 0.339885 0.648557
vt 0.648443 0.500000
vt 0.659538 0.638740
vt 0.669355 0.500000
vt 0.882059 0.819653
vt 0.659538 0.819653
vt 0.000000 0.977941
vt 0.329769 0.861260
vt 0.318674 1.000000
vt 0.010116 0.851443
vt 0.329769 0.638740
vt 0.010116 0.648557
vt 0.318674 0.500000
vt 0.773293 0.455882
vt 0.487464 0.227941
vt 0.773293 -0.000000
vt 0.329769 0.977941
vt 0.659538 0.861260
vt 0.648443 1.000000
vt 0.339885 0.851443
vt 0.390916 0.450484
vt -0.000000 0.361260
vt 0.173974 -0.000000
vt 0.329769 0.522059
vt 0.872242 0.500000
vt 0.000000 0.522059
vt 0.931916 0.126498
vt 0.931916 0.329385
vt 0.575493 0.410736
vt 0.575493 0.045147
vt 0.390916 0.049516
vt 0.487464 0.250000
vt 0.173974 0.500000
vt 0.000000 0.138739
s 0
g FangSegment0.001_bone
usemtl bone
f 23/55/22 24/56/22 22/57/22
f 25/58/23 26/59/23 24/60/23
f 27/61/24 28/62/24 26/63/24
f 29/64/25 30/65/25 28/62/25
f 31/66/26 32/67/26 30/65/26
f 23/68/27 33/69/27 29/70/27
f 33/71/28 34/72/28 32/73/28
f 35/74/29 22/57/29 34/72/29
f 24/75/30 28/76/30 32/77/30
f 23/55/22 25/78/22 24/56/22
f 25/58/23 27/79/23 26/59/23
f 27/61/24 29/64/24 28/62/24
f 29/64/25 31/66/25 30/65/25
f 31/66/26 33/80/26 32/67/26
f 27/81/27 25/82/27 23/68/27
f 23/68/27 35/83/27 33/69/27
f 33/69/27 31/84/27 29/70/27
f 29/70/27 27/81/27 23/68/27
f 33/71/28 35/74/28 34/72/28
f 35/74/29 23/55/29 22/57/29
f 34/85/30 22/86/30 24/75/30
f 24/75/30 26/87/30 28/76/30
f 28/76/30 30/88/30 32/77/30
f 32/77/30 34/85/30 24/75/30
g FangSegment1.001_Mesh
v -0.882513 -0.065991 -0.054920
v -0.553106 0.247341 -0.000019
v -0.756859 -0.143808 -0.279689
v -0.443665 0.179565 -0.195785
v -0.554208 -0.318661 -0.306599
v -0.267162 0.027274 -0.219223
v -0.427159 -0.458882 -0.115387
v -0.156507 -0.094854 -0.052684
v -0.471384 -0.458882 0.149960
v -0.195025 -0.094854 0.178425
v -0.653579 -0.318661 0.289632
v -0.353712 0.027273 0.300075
v -0.836549 -0.143808 0.198451
v -0.513073 0.179565 0.220659
vn -0.5374 0.6575 -0.5281
vn 0.0485 0.2066 -0.9772
vn 0.6369 -0.3557 -0.6840
vn 0.7847 -0.6059 0.1308
vn 0.3806 -0.3557 0.8536
vn 0.6576 0.7453 0.1096
vn -0.2711 0.2066 0.9401
vn -0.6796 0.6575 0.3252
vn -0.6576 -0.7453 -0.1096
vt 0.700625 0.435690
vt 0.806239 0.772165
vt 0.684979 0.764816
vt 0.806239 0.442090
vt 1.000000 0.764816
vt 0.424766 0.407581
vt 0.765002 0.314795
vt 0.753063 0.435690
vt 0.435165 0.302285
vt 0.765002 0.120895
vt 0.435165 0.133404
vt 0.753063 -0.000000
vt 0.237921 0.815161
vt -0.000000 0.625426
vt 0.237921 0.435690
vt 0.394959 0.435690
vt 0.563718 0.772165
vt 0.369958 0.764816
vt 0.563718 0.442090
vt 0.684979 0.764816
vt 0.084130 0.392543
vt 0.084130 0.043147
vt 0.424766 0.120895
vt 0.974998 0.435690
vt 0.424766 0.028109
vt 0.369958 0.540985
vt 0.369958 0.709866
vt 0.073275 0.777582
vt 0.073275 0.473269
vt 0.669332 0.435690
vt 0.424766 0.314795
vt 0.273169 0.435690
vt -0.000000 0.217845
vt 0.273169 -0.000000
s 0
g FangSegment1.001_bone
usemtl bone
f 37/89/31 38/90/31 36/91/31
f 39/92/32 40/93/32 38/90/32
f 41/94/33 42/95/33 40/96/33
f 43/97/34 44/98/34 42/95/34
f 45/99/35 46/100/35 44/98/35
f 37/101/36 47/102/36 43/103/36
f 47/104/37 48/105/37 46/106/37
f 49/107/38 36/108/38 48/105/38
f 38/109/39 42/110/39 46/111/39
f 37/89/31 39/92/31 38/90/31
f 39/92/32 41/112/32 40/93/32
f 41/94/33 43/97/33 42/95/33
f 43/97/34 45/99/34 44/98/34
f 45/99/35 47/113/35 46/100/35
f 41/114/36 39/115/36 37/101/36
f 37/101/36 49/116/36 47/102/36
f 47/102/36 45/117/36 43/103/36
f 43/103/36 41/114/36 37/101/36
f 47/104/37 49/107/37 48/105/37
f 49/107/38 37/118/38 36/108/38
f 48/119/39 36/120/39 38/109/39
f 38/109/39 40/121/39 42/110/39
f 42/110/39 44/122/39 46/111/39
f 46/111/39 48/119/39 38/109/39
g FangSegment2.001_Mesh
v -0.530279 0.270731 0.058898
v -0.157748 0.533064 0.004114
v -0.494850 0.194148 -0.159677
v -0.128879 0.470663 -0.173984
v -0.353815 0.022069 -0.233114
v -0.013962 0.330450 -0.233822
v -0.213376 -0.115928 -0.106114
v 0.100470 0.218009 -0.130340
v -0.179288 -0.115928 0.125690
v 0.128246 0.218009 0.058537
v -0.277218 0.022069 0.287745
v 0.048451 0.330450 0.190582
v -0.433424 0.194148 0.258020
v -0.078828 0.470663 0.166361
vn -0.5729 0.7401 -0.3522
vn -0.2120 0.2314 -0.9495
vn 0.3637 -0.4028 -0.8399
vn 0.7207 -0.6851 -0.1060
vn 0.5901 -0.4028 0.6996
vn 0.7453 0.6576 -0.1096
vn 0.0703 0.2314 0.9703
vn -0.4473 0.7401 0.5022
vn -0.7453 -0.6576 0.1096
vt 0.455998 0.424417
vt 0.876287 0.337941
vt 0.860293 0.467725
vt 0.469030 0.318668
vt 0.876287 0.129784
vt 0.469030 0.149058
vt 0.860293 -0.000000
vt 0.811116 0.467725
vt 1.000000 0.874982
vt 0.791843 0.874982
vt 0.000000 0.892143
vt 0.420288 0.805667
vt 0.404295 0.935451
vt 0.791843 0.658280
vt 0.552894 0.848835
vt 0.420288 0.573475
vt 0.013032 0.786393
vt 0.420288 0.597509
vt 0.013032 0.616783
vt 0.404295 0.467725
vt 0.090316 0.421406
vt 0.090316 0.046319
vt 0.455999 0.129784
vt 0.455998 0.043308
vt 0.980726 0.467725
vt 0.552894 0.467725
vt 0.718252 0.505467
vt 0.718252 0.811093
vt 0.420288 0.743085
vt 0.000000 0.511033
vt 0.455999 0.337941
vt 0.293254 0.467725
vt -0.000000 0.233863
vt 0.293255 -0.000000
s 0
g FangSegment2.001_bone
usemtl bone
f 51/123/40 52/124/40 50/125/40
f 53/126/41 54/127/41 52/124/41
f 55/128/42 56/129/42 54/127/42
f 57/130/43 58/131/43 56/132/43
f 59/133/44 60/134/44 58/135/44
f 51/136/45 61/137/45 57/138/45
f 61/139/46 62/140/46 60/134/46
f 63/141/47 50/142/47 62/140/47
f 52/143/48 56/144/48 60/145/48
f 51/123/40 53/126/40 52/124/40
f 53/126/41 55/128/41 54/127/41
f 55/128/42 57/146/42 56/129/42
f 57/130/43 59/147/43 58/131/43
f 59/133/44 61/139/44 60/134/44
f 55/148/45 53/149/45 51/136/45
f 51/136/45 63/150/45 61/137/45
f 61/137/45 59/151/45 57/138/45
f 57/138/45 55/148/45 51/136/45
f 61/139/46 63/141/46 62/140/46
f 63/141/47 51/152/47 50/142/47
f 62/153/48 50/154/48 52/143/48
f 52/143/48 54/155/48 56/144/48
f 56/144/48 58/156/48 60/145/48
f 60/145/48 62/153/48 52/143/48
g FangSegment3.001_Mesh
v -0.129628 0.553986 -0.035097
v 0.276513 0.751564 0.029030
v -0.059495 0.483708 -0.198157
v 0.330707 0.697258 -0.096971
v 0.044439 0.325795 -0.224754
v 0.411019 0.575235 -0.117523
v 0.103910 0.199158 -0.094860
v 0.456974 0.477379 -0.017150
v 0.074135 0.199158 0.093713
v 0.433967 0.477379 0.128565
v -0.022464 0.325795 0.198965
v 0.359322 0.575235 0.209896
v -0.113147 0.483708 0.141639
v 0.289248 0.697258 0.165599
vn -0.3185 0.8130 -0.4874
vn 0.1184 0.2402 -0.9635
vn 0.5286 -0.4741 -0.7042
vn 0.6031 -0.7920 0.0952
vn 0.2859 -0.4741 0.8328
vn 0.8381 0.5293 0.1323
vn -0.1842 0.2402 0.9531
vn -0.4532 0.8130 0.3655
vn -0.8381 -0.5293 -0.1323
vt 0.271309 0.010733
vt 0.403764 0.425735
vt 0.291728 0.439624
vt 0.429348 0.403764
vt 0.516334 0.839745
vt 0.403764 0.831199
vt 0.655030 0.403764
vt 0.695823 0.831199
vt 0.025584 0.439624
vt 0.112570 0.875604
vt 0.000000 0.867059
vt 0.112570 0.446227
vt 0.292059 0.867059
vt 1.000000 0.559764
vt 0.804382 0.715764
vt 0.695823 0.490338
vt 0.045882 0.000000
vt 0.112036 0.439624
vt 0.000000 0.425735
vt 0.132456 0.010733
vt 0.719440 0.363779
vt 0.403764 0.291728
vt 0.544253 -0.000000
vt 0.357882 0.000000
vt 0.516334 0.410368
vt 0.251266 0.439624
vt 0.804382 0.403764
vt 0.939754 0.434662
vt 0.939754 0.684866
vt 0.695823 0.629191
vt 0.719440 0.039985
vt 0.797405 0.201882
vt 0.544253 0.403764
vt 0.403764 0.112036
s 0
g FangSegment3.001_bone
usemtl bone
f 65/157/49 66/158/49 64/159/49
f 67/160/50 68/161/50 66/162/50
f 68/161/51 71/163/51 70/164/51
f 71/165/52 72/166/52 70/167/52
f 73/168/53 74/169/53 72/166/53
f 65/170/54 75/171/54 71/172/54
f 75/173/55 76/174/55 74/175/55
f 77/176/56 64/159/56 76/174/56
f 66/177/57 70/178/57 74/179/57
f 65/157/49 67/180/49 66/158/49
f 67/160/50 69/181/50 68/161/50
f 68/161/51 69/181/51 71/163/51
f 71/165/52 73/168/52 72/166/52
f 73/168/53 75/182/53 74/169/53
f 69/183/54 67/184/54 65/170/54
f 65/170/54 77/185/54 75/171/54
f 75/171/54 73/186/54 71/172/54
f 71/172/54 69/183/54 65/170/54
f 75/173/55 77/176/55 76/174/55
f 77/176/56 65/157/56 64/159/56
f 76/187/57 64/188/57 66/177/57
f 66/177/57 68/189/57 70/178/57
f 70/178/57 72/190/57 74/179/57
f 74/179/57 76/187/57 66/177/57
g FangSegment4.001_Mesh
v 0.297550 0.762921 0.052487
v 0.677504 0.877159 -0.000285
v 0.304809 0.704339 -0.082709
v 0.682628 0.835807 -0.095717
v 0.357689 0.572708 -0.123195
v 0.719955 0.742891 -0.124295
v 0.416370 0.467147 -0.038484
v 0.761377 0.668377 -0.064500
v 0.436664 0.467147 0.107633
v 0.775702 0.668377 0.038642
v 0.403290 0.572707 0.205129
v 0.752143 0.742891 0.107463
v 0.341378 0.704339 0.180587
v 0.708441 0.835807 0.090139
vn -0.3144 0.8648 -0.3916
vn -0.1193 0.2478 -0.9614
vn 0.2425 -0.5216 -0.8180
vn 0.4987 -0.8640 -0.0693
vn 0.4563 -0.5216 0.7209
vn 0.9065 0.4029 -0.1259
vn 0.1472 0.2478 0.9576
vn -0.1958 0.8648 0.4624
vn -0.9065 -0.4029 0.1259
vt 0.269392 0.011350
vt 0.409988 0.489596
vt 0.296225 0.505675
vt 0.426542 0.505675
vt 0.582171 1.000000
vt 0.399709 1.000000
vt 0.470281 0.000000
vt 0.523751 0.505675
vt 0.679381 0.011350
vt 0.706213 0.505675
vt 0.819977 0.489596
vt 0.864319 0.714775
vt 0.638054 0.766419
vt 0.638054 0.534335
vt 0.060292 0.000000
vt 0.113763 0.505675
vt 0.000000 0.489596
vt 0.140596 0.011350
vt 0.320542 0.875062
vt -0.000000 0.801900
vt 0.142655 0.505675
vt 0.349696 0.000000
vt 0.555338 0.505675
vt 0.550584 0.011350
vt 0.759684 0.000000
vt 0.763621 0.505675
vt 0.864319 0.585979
vt 0.763621 0.795079
vt 0.582171 0.650377
vt 0.320542 0.546277
vt 0.399709 0.710669
vt 0.142654 0.915663
vt 0.000000 0.619438
s 0
g FangSegment4.001_bone
usemtl bone
f 79/191/58 80/192/58 78/193/58
f 81/194/59 82/195/59 80/196/59
f 83/197/60 84/198/60 82/192/60
f 84/198/61 87/199/61 86/200/61
f 87/199/62 88/201/62 86/200/62
f 79/202/63 89/203/63 85/204/63
f 89/205/64 90/206/64 88/207/64
f 91/208/65 78/193/65 90/206/65
f 80/209/66 84/210/66 88/211/66
f 79/191/58 81/212/58 80/192/58
f 81/194/59 83/213/59 82/195/59
f 83/197/60 85/214/60 84/198/60
f 84/198/61 85/214/61 87/199/61
f 87/199/62 89/215/62 88/201/62
f 83/216/63 81/217/63 79/202/63
f 79/202/63 91/218/63 89/203/63
f 89/203/63 87/219/63 85/204/63
f 85/204/63 83/216/63 79/202/63
f 89/205/64 91/208/64 90/206/64
f 91/208/65 79/191/65 78/193/65
f 90/220/66 78/221/66 80/209/66
f 80/209/66 82/222/66 84/210/66
f 84/210/66 86/223/66 88/211/66
f 88/211/66 90/220/66 80/209/66
g FangSegment5.001_Mesh
v 0.709808 0.886295 -0.009014
v 1.015652 0.881683 0.031765
v 0.728075 0.841504 -0.101228
v 1.027069 0.853688 -0.025869
v 0.744323 0.740857 -0.122439
v 1.037224 0.790785 -0.039125
v 0.746316 0.660146 -0.056673
v 1.038470 0.740340 0.001978
v 0.732553 0.660146 0.046546
v 1.029868 0.740340 0.066490
v 0.713399 0.740857 0.109491
v 1.017897 0.790785 0.105831
v 0.703276 0.841504 0.084765
v 1.011570 0.853688 0.090377
vn 0.0702 0.9027 -0.4246
vn 0.2284 0.2359 -0.9445
vn 0.3121 -0.5955 -0.7403
vn 0.2581 -0.9655 0.0344
vn 0.1072 -0.5955 0.7962
vn 0.9827 0.1310 0.1310
vn -0.0270 0.2359 0.9714
vn -0.0435 0.9027 0.4281
vn -0.9827 -0.1310 -0.1310
vt 0.076686 0.000000
vt 0.113486 0.550022
vt 0.000000 0.531287
vt 0.147615 0.011709
vt 0.295505 0.550022
vt 0.261376 0.011709
vt 0.408991 0.531287
vt 0.852110 0.000000
vt 1.000000 0.538312
vt 0.817982 0.538312
vt 0.485677 0.000000
vt 0.522477 0.550022
vt 0.559005 0.805641
vt 0.398737 0.677831
vt 0.559005 0.550022
vt 0.556606 0.011709
vt 0.704495 0.550022
vt 0.670367 0.011709
vt 0.817982 0.531287
vt 0.256429 0.959013
vt -0.000000 0.754517
vt 0.256429 0.550022
vt 0.332305 0.000000
vt 0.965872 0.000000
vt 0.647947 0.620951
vt 0.647947 0.734712
vt 0.448096 0.780327
vt 0.448096 0.575336
vt 0.741296 0.000000
vt 0.398737 0.663508
vt 0.398737 0.845526
vt 0.078975 0.918510
vt 0.078975 0.590524
s 0
g FangSegment5.001_bone
usemtl bone
f 93/224/67 94/225/67 92/226/67
f 95/227/68 96/228/68 94/225/68
f 97/229/69 98/230/69 96/228/69
f 99/231/70 100/232/70 98/233/70
f 101/234/71 102/235/71 100/230/71
f 93/236/72 103/237/72 99/238/72
f 103/239/73 104/240/73 102/235/73
f 105/241/74 92/242/74 104/240/74
f 94/243/75 98/244/75 102/245/75
f 93/224/67 95/227/67 94/225/67
f 95/227/68 97/229/68 96/228/68
f 97/229/69 99/246/69 98/230/69
f 99/231/70 101/247/70 100/232/70
f 101/234/71 103/239/71 102/235/71
f 97/248/72 95/249/72 93/236/72
f 93/236/72 105/250/72 103/237/72
f 103/237/72 101/251/72 99/238/72
f 99/238/72 97/248/72 93/236/72
f 103/239/73 105/241/73 104/240/73
f 105/241/74 93/252/74 92/242/74
f 104/253/75 92/254/75 94/243/75
f 94/243/75 96/255/75 98/244/75
f 98/244/75 100/256/75 102/245/75
f 102/245/75 104/253/75 94/243/75
g FangSegment6.001_Mesh
v 1.052990 0.877013 0.030304
v 1.234592 0.750557 0.012144
v 1.036765 0.850777 -0.027003
v 1.229183 0.741812 -0.006958
v 1.011976 0.791824 -0.039079
v 1.220920 0.722161 -0.010984
v 0.997290 0.744547 0.003171
v 1.216025 0.706402 0.003099
v 1.003766 0.744547 0.067930
v 1.218184 0.706402 0.024686
v 1.026527 0.791824 0.106435
v 1.225771 0.722161 0.037521
v 1.048434 0.850777 0.089690
v 1.233073 0.741812 0.031939
vn 0.4708 0.7441 -0.4740
vn 0.1737 0.1270 -0.9766
vn -0.1123 -0.6425 -0.7580
vn -0.1718 -0.9850 0.0172
vn 0.0400 -0.6425 0.7652
vn 0.9245 -0.3698 -0.0925
vn 0.3636 0.1270 0.9229
vn 0.5553 0.7441 0.3714
vn -0.9245 0.3698 0.0925
vt 0.925178 0.012995
vt 0.962829 0.604276
vt 0.849875 0.607255
vt 0.394526 0.012002
vt 0.507480 0.607255
vt 0.394526 0.604276
vt 0.432177 0.012995
vt 0.678677 0.568269
vt 0.131509 0.000000
vt 0.109473 0.605474
vt 0.000000 0.577489
vt 0.168000 0.009328
vt 0.285053 0.605474
vt 0.522737 0.673009
vt 0.440284 0.738764
vt 0.394526 0.643746
vt 0.226526 0.009328
vt 0.394526 0.577489
vt 0.868112 0.000000
vt 0.678678 0.568269
vt 0.076182 0.960930
vt 0.076182 0.644544
vt 0.384634 0.714947
vt 0.962829 0.012002
vt 0.489243 0.000000
vt 0.440284 0.607255
vt 0.497344 0.620278
vt 0.497344 0.725740
vt 0.394526 0.702273
vt 0.263017 0.000000
vt 0.384634 0.890527
vt 0.247360 1.000000
vt -0.000000 0.802737
vt 0.247360 0.605474
s 0
g FangSegment6.001_bone
usemtl bone
f 107/257/76 108/258/76 106/259/76
f 109/260/77 110/261/77 108/262/77
f 111/263/78 112/264/78 110/261/78
f 113/265/79 114/266/79 112/267/79
f 115/268/80 116/269/80 114/266/80
f 107/270/81 117/271/81 113/272/81
f 117/273/82 118/274/82 116/269/82
f 119/275/83 106/259/83 118/276/83
f 108/277/84 112/278/84 116/279/84
f 107/257/76 109/280/76 108/258/76
f 109/260/77 111/263/77 110/261/77
f 111/263/78 113/281/78 112/264/78
f 113/265/79 115/268/79 114/266/79
f 115/268/80 117/273/80 116/269/80
f 111/282/81 109/283/81 107/270/81
f 107/270/81 119/284/81 117/271/81
f 117/271/81 115/285/81 113/272/81
f 113/272/81 111/282/81 107/270/81
f 117/273/82 119/286/82 118/274/82
f 119/275/83 107/257/83 106/259/83
f 118/287/84 106/288/84 108/277/84
f 108/277/84 110/289/84 112/278/84
f 112/278/84 114/290/84 116/279/84
f 116/279/84 118/287/84 108/277/84
g RootTissue.001_Mesh
v -0.884607 -0.992670 -0.016936
v -0.580695 -0.804723 0.146037
v -1.000689 -0.804723 0.246762
v -1.260266 -0.804723 -0.016936
v -1.000689 -0.804723 -0.280634
v -0.580695 -0.804723 -0.179909
v -0.768526 -0.500617 0.246762
v -1.188519 -0.500617 0.146037
v -1.188519 -0.500617 -0.179909
v -0.768526 -0.500617 -0.280634
v -0.508949 -0.500617 -0.016936
v -0.884607 -0.312670 -0.016936
vn 0.1478 -0.7735 0.6164
vn 0.5260 -0.8505 -0.0000
vn -0.4095 -0.8184 0.4031
vn -0.4095 -0.8184 -0.4031
vn 0.1478 -0.7735 -0.6164
vn 0.9733 -0.2296 -0.0000
vn 0.2296 -0.1753 0.9574
vn -0.6977 -0.2035 0.6868
vn -0.6977 -0.2035 -0.6868
vn 0.2296 -0.1753 -0.9574
vn 0.6977 0.2035 0.6868
vn -0.2296 0.1753 0.9574
vn -0.9733 0.2296 -0.0000
vn -0.2296 0.1753 -0.9574
vn 0.6977 0.2035 -0.6868
vn 0.4095 0.8184 0.4031
vn -0.1478 0.7735 0.6164
vn -0.5260 0.8505 -0.0000
vn -0.1478 0.7735 -0.6164
vn 0.4095 0.8184 -0.4031
vt 0.204120 0.403881
vt 0.432335 0.227106
vt 0.432335 0.462805
vt 0.165140 0.117853
vt 0.031830 0.929890
vt 0.000000 0.696350
vt 0.250000 0.840685
vt 0.468170 0.929890
vt 0.250000 0.840685
vt 0.500000 0.696350
vt 0.000000 0.286028
vt 0.369263 0.000000
vt 0.718169 0.929890
vt 0.500000 0.840685
vt 0.750000 0.696345
vt 0.250000 0.552011
vt 0.250000 0.552011
vt 1.000000 0.840685
vt 0.781831 0.929890
vt 0.750000 0.696345
vt 0.500000 0.552010
vt 0.031831 0.462805
vt 0.801598 0.462805
vt 0.597475 0.344952
vt 0.864671 0.235699
vt 0.468169 0.462805
vt 1.000000 0.552010
vt 0.718170 0.462805
vt 0.432335 0.176777
vt 0.636455 0.058924
vt 0.864671 -0.000000
vt 0.781830 0.462805
s 0
g RootTissue.001_wet_residue
usemtl wet_residue
f 120/291/85 121/292/85 122/293/85
f 121/292/86 120/291/86 125/294/86
f 120/295/87 122/296/87 123/297/87
f 120/298/88 123/299/88 124/300/88
f 120/291/89 124/301/89 125/294/89
f 121/292/90 125/294/90 130/302/90
f 122/303/91 121/304/91 126/305/91
f 123/297/92 122/296/92 127/306/92
f 124/300/93 123/299/93 128/307/93
f 125/308/94 124/309/94 129/310/94
f 121/304/95 130/311/95 126/305/95
f 122/296/96 126/312/96 127/306/96
f 123/313/97 127/314/97 128/315/97
f 124/300/98 128/307/98 129/316/98
f 125/308/99 129/310/99 130/317/99
f 126/305/100 130/311/100 131/318/100
f 127/314/101 126/319/101 131/320/101
f 128/315/102 127/314/102 131/320/102
f 129/321/103 128/315/103 131/320/103
f 130/317/104 129/310/104 131/322/104
g Staple0.001_Mesh
v -0.918514 -0.511136 0.251737
v -0.948645 -0.522670 0.266196
v -0.930701 -0.534204 0.294391
v -0.900569 -0.522670 0.279932
v -0.940031 -0.375788 0.319470
v -0.963216 -0.366022 0.344311
v -0.949183 -0.389552 0.366658
v -0.925999 -0.399319 0.341817
v -0.580765 -0.356879 0.319537
v -0.559713 -0.342618 0.344102
v -0.568450 -0.368462 0.366591
v -0.589502 -0.382722 0.342026
v -0.563753 -0.492125 0.242324
v -0.531544 -0.495614 0.256482
v -0.545462 -0.513215 0.283804
v -0.577670 -0.509726 0.269646
vn 0.8452 0.3685 -0.3872
vn -0.5067 0.3201 -0.8005
vn -0.8537 -0.3159 0.4141
vn 0.5039 -0.3021 0.8092
vn 0.0358 -0.6769 -0.7352
vn -0.0531 0.9115 -0.4079
vn -0.0388 0.6759 0.7360
vn 0.0506 -0.9125 0.4060
vn -0.9505 0.0551 -0.3059
vn 0.4934 0.4989 -0.7125
vn 0.9401 -0.0218 0.3402
vn -0.5023 -0.4880 0.7138
vn 0.9179 0.2844 -0.2768
vn -0.6377 0.2954 -0.7114
vn -0.9161 -0.2439 0.3183
vn 0.6475 -0.2728 0.7116
vn 0.0331 -0.6625 -0.7484
vn -0.0463 0.8806 -0.4716
vn -0.0366 0.6630 0.7477
vn 0.0431 -0.8796 0.4737
vn -0.9151 0.1320 -0.3811
vn 0.3944 0.4925 -0.7758
vn 0.9094 -0.0881 0.4065
vn -0.3958 -0.4823 0.7815
vt 0.361682 0.966852
vt 0.429271 0.678572
vt 0.434272 0.967457
vt 0.361682 0.693476
vt 0.044571 0.636161
vt 0.358969 0.620921
vt 0.839377 0.025084
vt 0.907557 0.361690
vt 0.834925 0.360181
vt 0.654740 0.592018
vt 0.361682 0.622140
vt 0.368900 0.549936
vt 0.765141 0.000000
vt 0.833023 0.714555
vt 0.765141 0.740873
vt 0.033033 -0.000000
vt 0.000000 0.693476
vt 0.697143 0.806324
vt 0.765141 -0.000000
vt 0.765141 0.832342
vt 0.695450 -0.000000
vt 0.695450 0.652088
vt 0.969842 0.322279
vt 0.914589 0.023086
vt 0.969842 -0.000000
vt 0.953470 0.729282
vt 0.904393 0.405550
vt 0.953470 0.361690
vt 0.891427 0.383258
vt 0.834925 0.729118
vt 0.834925 0.361690
vt 0.483196 0.698085
vt 0.434272 0.998107
vt 0.434272 0.652088
vt 0.361682 0.652088
vt 0.907557 0.000000
vt 0.834925 0.020756
vt 0.077316 0.020222
vt 0.695450 0.021067
vt 0.651078 0.017075
vt 0.907557 0.324454
vt 0.897556 0.728014
vt 0.897556 0.729431
vt 0.490570 1.000000
s 0
g Staple0.001_wrought_iron
usemtl wrought_iron
f 132/323/105 139/324/105 135/325/105
f 133/326/106 136/327/106 132/328/106
f 138/329/107 133/330/107 134/331/107
f 139/332/108 134/333/108 135/334/108
f 140/335/109 139/336/109 136/337/109
f 141/338/110 136/327/110 137/339/110
f 138/340/111 141/341/111 137/342/111
f 139/332/112 142/343/112 138/344/112
f 144/345/113 143/346/113 140/347/113
f 145/348/114 140/349/114 141/350/114
f 142/351/115 145/352/115 141/353/115
f 143/354/116 146/355/116 142/356/116
f 132/323/117 136/357/117 139/324/117
f 133/326/118 137/339/118 136/327/118
f 138/329/119 137/358/119 133/330/119
f 139/332/120 138/344/120 134/333/120
f 140/335/121 143/359/121 139/336/121
f 141/338/122 140/360/122 136/327/122
f 138/340/123 142/361/123 141/341/123
f 139/332/124 143/362/124 142/343/124
f 144/345/125 147/363/125 143/346/125
f 145/348/126 144/364/126 140/349/126
f 142/351/127 146/365/127 145/352/127
f 143/354/128 147/366/128 146/355/128
g Staple1.001_Mesh
v -0.841514 -0.371136 0.251737
v -0.871645 -0.382670 0.266196
v -0.853701 -0.394204 0.294391
v -0.823569 -0.382670 0.279932
v -0.863031 -0.235788 0.319470
v -0.886216 -0.226022 0.344311
v -0.872183 -0.249552 0.366658
v -0.848999 -0.259319 0.341817
v -0.503765 -0.216879 0.319537
v -0.482713 -0.202618 0.344102
v -0.491450 -0.228462 0.366591
v -0.512502 -0.242722 0.342026
v -0.486753 -0.352125 0.242324
v -0.454544 -0.355615 0.256482
v -0.468462 -0.373215 0.283804
v -0.500670 -0.369726 0.269646
vn 0.8452 0.3685 -0.3872
vn -0.5067 0.3201 -0.8005
vn -0.8537 -0.3159 0.4141
vn 0.5039 -0.3021 0.8092
vn 0.0358 -0.6769 -0.7352
vn -0.0531 0.9115 -0.4079
vn -0.0388 0.6759 0.7360
vn 0.0506 -0.9125 0.4060
vn -0.9505 0.0551 -0.3059
vn 0.4934 0.4989 -0.7125
vn 0.9401 -0.0218 0.3402
vn -0.5023 -0.4880 0.7138
vn 0.9179 0.2844 -0.2768
vn -0.6377 0.2954 -0.7114
vn -0.9161 -0.2439 0.3183
vn 0.6475 -0.2728 0.7116
vn 0.0331 -0.6625 -0.7484
vn -0.0463 0.8806 -0.4716
vn -0.0366 0.6630 0.7477
vn 0.0431 -0.8796 0.4737
vn -0.9151 0.1320 -0.3811
vn 0.3944 0.4925 -0.7758
vn 0.9094 -0.0881 0.4065
vn -0.3958 -0.4823 0.7815
vt 0.362628 0.966765
vt 0.430393 0.677732
vt 0.435407 0.967372
vt 0.362628 0.695289
vt 0.044688 0.637825
vt 0.359908 0.622545
vt 0.842917 0.025149
vt 0.911275 0.362636
vt 0.838453 0.361123
vt 0.652578 0.594840
vt 0.362628 0.651178
vt 0.363366 0.578427
vt 0.768486 -0.000000
vt 0.836546 0.716423
vt 0.768486 0.742810
vt 0.033119 -0.000000
vt 0.000000 0.695289
vt 0.700310 0.808433
vt 0.768486 0.000000
vt 0.768486 0.834520
vt 0.640185 0.000000
vt 0.698613 0.651178
vt 0.973723 0.323122
vt 0.918325 0.023147
vt 0.973723 -0.000000
vt 0.957308 0.731189
vt 0.908103 0.406610
vt 0.957308 0.362636
vt 0.895103 0.384261
vt 0.838453 0.731025
vt 0.838453 0.362636
vt 0.484460 0.697295
vt 0.435407 0.998102
vt 0.435407 0.651178
vt 0.362628 0.651178
vt 0.911275 -0.000000
vt 0.838453 0.020810
vt 0.077518 0.020275
vt 0.698613 0.021123
vt 0.597406 0.021028
vt 0.911275 0.325302
vt 0.901248 0.729918
vt 0.901248 0.731339
vt 0.491853 1.000000
s 0
g Staple1.001_wrought_iron
usemtl wrought_iron
f 148/367/129 155/368/129 151/369/129
f 149/370/130 152/371/130 148/372/130
f 154/373/131 149/374/131 150/375/131
f 155/376/132 150/377/132 151/378/132
f 156/379/133 155/380/133 152/381/133
f 157/382/134 152/371/134 153/383/134
f 154/384/135 157/385/135 153/386/135
f 155/376/136 158/387/136 154/388/136
f 160/389/137 159/390/137 156/391/137
f 161/392/138 156/393/138 157/394/138
f 158/395/139 161/396/139 157/397/139
f 159/398/140 162/399/140 158/400/140
f 148/367/141 152/401/141 155/368/141
f 149/370/142 153/383/142 152/371/142
f 154/373/143 153/402/143 149/374/143
f 155/376/144 154/388/144 150/377/144
f 156/379/145 159/403/145 155/380/145
f 157/382/146 156/404/146 152/371/146
f 154/384/147 158/405/147 157/385/147
f 155/376/148 159/406/148 158/387/148
f 160/389/149 163/407/149 159/390/149
f 161/392/150 160/408/150 156/393/150
f 158/395/151 162/409/151 161/396/151
f 159/398/152 163/410/152 162/399/152
g Staple2.001_Mesh
v -0.753514 -0.211136 0.251737
v -0.783645 -0.222670 0.266196
v -0.765701 -0.234204 0.294391
v -0.735569 -0.222670 0.279932
v -0.775031 -0.075788 0.319470
v -0.798216 -0.066022 0.344311
v -0.784183 -0.089552 0.366658
v -0.760999 -0.099319 0.341817
v -0.415765 -0.056879 0.319536
v -0.394713 -0.042618 0.344102
v -0.403450 -0.068462 0.366591
v -0.424502 -0.082722 0.342026
v -0.398753 -0.192125 0.242324
v -0.366544 -0.195615 0.256482
v -0.380462 -0.213215 0.283804
v -0.412670 -0.209726 0.269646
vn 0.8452 0.3685 -0.3872
vn -0.5067 0.3201 -0.8005
vn -0.8537 -0.3159 0.4141
vn 0.5039 -0.3021 0.8092
vn 0.0358 -0.6769 -0.7352
vn -0.0531 0.9115 -0.4079
vn -0.0388 0.6759 0.7360
vn 0.0506 -0.9125 0.4060
vn -0.9505 0.0551 -0.3059
vn 0.4934 0.4989 -0.7125
vn 0.9401 -0.0218 0.3402
vn -0.5023 -0.4880 0.7138
vn 0.9179 0.2844 -0.2768
vn -0.6377 0.2954 -0.7114
vn -0.9161 -0.2439 0.3183
vn 0.6475 -0.2728 0.7116
vn 0.0331 -0.6625 -0.7484
vn -0.0463 0.8806 -0.4716
vn -0.0366 0.6630 0.7477
vn 0.0431 -0.8796 0.4737
vn -0.9151 0.1320 -0.3811
vn 0.3944 0.4925 -0.7758
vn 0.9094 -0.0881 0.4065
vn -0.3958 -0.4823 0.7815
vt 0.361272 0.966852
vt 0.428861 0.678572
vt 0.433862 0.967457
vt 0.361272 0.677053
vt 0.041794 0.634892
vt 0.355110 0.604710
vt 0.838967 0.025084
vt 0.907147 0.361690
vt 0.834515 0.360181
vt 0.654330 0.592019
vt 0.361272 0.622141
vt 0.368490 0.549936
vt 0.764731 0.000000
vt 0.832613 0.714554
vt 0.764731 0.740872
vt 0.000000 0.000000
vt 0.000000 0.694262
vt 0.696733 0.806324
vt 0.764731 0.000000
vt 0.764731 0.832342
vt 0.695040 0.000000
vt 0.695040 0.652089
vt 0.969432 0.322279
vt 0.914178 0.023086
vt 0.969432 -0.000000
vt 0.953060 0.729282
vt 0.903983 0.405549
vt 0.953060 0.361690
vt 0.891017 0.383258
vt 0.834515 0.729117
vt 0.834515 0.361690
vt 0.482786 0.698085
vt 0.433862 0.998107
vt 0.433862 0.652088
vt 0.361272 0.652088
vt 0.907147 0.000000
vt 0.834515 0.020756
vt 0.045195 0.018092
vt 0.695040 0.021067
vt 0.650668 0.017076
vt 0.907147 0.324454
vt 0.897146 0.728014
vt 0.897146 0.729431
vt 0.490160 1.000000
s 0
g Staple2.001_wrought_iron
usemtl wrought_iron
f 164/411/153 171/412/153 167/413/153
f 165/414/154 168/415/154 164/416/154
f 170/417/155 165/418/155 166/419/155
f 171/420/156 166/421/156 167/422/156
f 172/423/157 171/424/157 168/425/157
f 173/426/158 168/415/158 169/427/158
f 170/428/159 173/429/159 169/430/159
f 171/420/160 174/431/160 170/432/160
f 176/433/161 175/434/161 172/435/161
f 177/436/162 172/437/162 173/438/162
f 174/439/163 177/440/163 173/441/163
f 175/442/164 178/443/164 174/444/164
f 164/411/165 168/445/165 171/412/165
f 165/414/166 169/427/166 168/415/166
f 170/417/167 169/446/167 165/418/167
f 171/420/168 170/432/168 166/421/168
f 172/423/169 175/447/169 171/424/169
f 173/426/170 172/448/170 168/415/170
f 170/428/171 174/449/171 173/429/171
f 171/420/172 175/450/172 174/431/172
f 176/433/173 179/451/173 175/434/173
f 177/436/174 176/452/174 172/437/174
f 174/439/175 178/453/175 177/440/175
f 175/442/176 179/454/176 178/443/176
