# Blender 5.0.1
# www.blender.org
mtllib crossing_writ.mtl
g A_BottomRoll.001_A_BottomRollProfileData.001
v 0.640000 0.060000 0.000000
v 0.640000 0.135000 0.000000
v -0.640000 0.135000 0.000000
v -0.640000 0.060000 0.000000
v 0.640000 0.106762 -0.058637
v -0.640000 0.106762 -0.058637
v 0.640000 0.043311 -0.073120
v -0.640000 0.043311 -0.073120
v 0.640000 -0.007573 -0.032541
v -0.640000 -0.007573 -0.032541
v 0.640000 -0.007573 0.032541
v -0.640000 -0.007573 0.032541
v 0.640000 0.043311 0.073120
v -0.640000 0.043311 0.073120
v 0.640000 0.106762 0.058637
v -0.640000 0.106762 0.058637
vn -1.0000 -0.0000 -0.0000
vn -0.6212 -0.7836 -0.0000
vn 0.6212 -0.7836 -0.0000
vn 1.0000 -0.0000 -0.0000
vn -0.6212 -0.4886 0.6127
vn 0.6212 -0.4886 0.6127
vn -0.6212 0.1744 0.7640
vn 0.6212 0.1744 0.7640
vn -0.6212 0.7060 0.3400
vn 0.6212 0.7060 0.3400
vn -0.6212 0.7060 -0.3400
vn 0.6212 0.7060 -0.3400
vn -0.6212 0.1744 -0.7640
vn 0.6212 0.1744 -0.7640
vn -0.6212 -0.4886 -0.6127
vn 0.6212 -0.4886 -0.6127
vt 0.071429 0.000000
vt 0.000000 0.000000
vt 0.142857 0.000000
vt 0.214286 0.000000
vt 0.285714 0.000000
vt 0.357143 0.000000
vt 0.428571 0.000000
vt 0.500000 0.000000
vt 0.571429 0.000000
vt 0.642857 0.000000
vt 0.714286 0.000000
vt 0.785714 0.000000
vt 0.857143 0.000000
vt 0.928571 0.000000
vt 1.000000 0.000000
vt 0.000000 1.000000
vt 0.142857 1.000000
vt 0.285714 1.000000
vt 0.428571 1.000000
vt 0.571429 1.000000
vt 0.714286 1.000000
vt 0.857143 1.000000
vt 1.000000 1.000000
vt 0.071429 1.000000
vt 0.214286 1.000000
vt 0.357143 1.000000
vt 0.500000 1.000000
vt 0.642857 1.000000
vt 0.785714 1.000000
vt 0.928571 1.000000
s 1
g A_BottomRoll.001_dark_wood
usemtl dark_wood
f 1/1/1 2/2/2 5/3/5
f 1/4/1 5/3/5 7/5/7
f 1/6/1 7/5/7 9/7/9
f 1/8/1 9/7/9 11/9/11
f 1/10/1 11/9/11 13/11/13
f 1/12/1 13/11/13 15/13/15
f 1/14/1 15/13/15 2/15/2
f 2/2/2 3/16/3 6/17/6 5/3/5
f 5/3/5 6/17/6 8/18/8 7/5/7
f 7/5/7 8/18/8 10/19/10 9/7/9
f 9/7/9 10/19/10 12/20/12 11/9/11
f 11/9/11 12/20/12 14/21/14 13/11/13
f 13/11/13 14/21/14 16/22/16 15/13/15
f 15/13/15 16/22/16 3/23/3 2/15/2
f 3/16/3 4/24/4 6/17/6
f 6/17/6 4/25/4 8/18/8
f 8/18/8 4/26/4 10/19/10
f 10/19/10 4/27/4 12/20/12
f 12/20/12 4/28/4 14/21/14
f 14/21/14 4/29/4 16/22/16
f 16/22/16 4/30/4 3/23/3
g A_BottomRoll.001_Mesh
v 0.640000 0.060000 0.000000
v 0.640000 0.135000 0.000000
v -0.640000 0.135000 0.000000
v -0.640000 0.060000 0.000000
v 0.640000 0.106762 -0.058637
v -0.640000 0.106762 -0.058637
v 0.640000 0.043311 -0.073120
v -0.640000 0.043311 -0.073120
v 0.640000 -0.007573 -0.032541
v -0.640000 -0.007573 -0.032541
v 0.640000 -0.007573 0.032541
v -0.640000 -0.007573 0.032541
v 0.640000 0.043311 0.073120
v -0.640000 0.043311 0.073120
v 0.640000 0.106762 0.058637
v -0.640000 0.106762 0.058637
vn -1.0000 -0.0000 -0.0000
vn -0.6212 -0.7836 -0.0000
vn 0.6212 -0.7836 -0.0000
vn 1.0000 -0.0000 -0.0000
vn -0.6212 -0.4886 0.6127
vn 0.6212 -0.4886 0.6127
vn -0.6212 0.1744 0.7640
vn 0.6212 0.1744 0.7640
vn -0.6212 0.7060 0.3400
vn 0.6212 0.7060 0.3400
vn -0.6212 0.7060 -0.3400
vn 0.6212 0.7060 -0.3400
vn -0.6212 0.1744 -0.7640
vn 0.6212 0.1744 -0.7640
vn -0.6212 -0.4886 -0.6127
vn 0.6212 -0.4886 -0.6127
vt 0.071429 0.000000
vt 0.000000 0.000000
vt 0.142857 0.000000
vt 0.214286 0.000000
vt 0.285714 0.000000
vt 0.357143 0.000000
vt 0.428571 0.000000
vt 0.500000 0.000000
vt 0.571429 0.000000
vt 0.642857 0.000000
vt 0.714286 0.000000
vt 0.785714 0.000000
vt 0.857143 0.000000
vt 0.928571 0.000000
vt 1.000000 0.000000
vt 0.000000 1.000000
vt 0.142857 1.000000
vt 0.285714 1.000000
vt 0.428571 1.000000
vt 0.571429 1.000000
vt 0.714286 1.000000
vt 0.857143 1.000000
vt 0.071429 1.000000
vt 0.214286 1.000000
vt 0.357143 1.000000
vt 0.500000 1.000000
vt 0.642857 1.000000
vt 0.785714 1.000000
vt 0.928571 1.000000
vt 1.000000 1.000000
s 1
g A_BottomRoll.001_dark_wood
usemtl dark_wood
f 17/31/17 18/32/18 21/33/21
f 17/34/17 21/33/21 23/35/23
f 17/36/17 23/35/23 25/37/25
f 17/38/17 25/37/25 27/39/27
f 17/40/17 27/39/27 29/41/29
f 17/42/17 29/41/29 31/43/31
f 17/44/17 31/43/31 18/45/18
f 19/46/19 21/33/21 18/32/18
f 22/47/22 23/35/23 21/33/21
f 24/48/24 25/37/25 23/35/23
f 26/49/26 27/39/27 25/37/25
f 28/50/28 29/41/29 27/39/27
f 30/51/30 31/43/31 29/41/29
f 32/52/32 18/45/18 31/43/31
f 19/46/19 20/53/20 22/47/22
f 22/47/22 20/54/20 24/48/24
f 24/48/24 20/55/20 26/49/26
f 26/49/26 20/56/20 28/50/28
f 28/50/28 20/57/20 30/51/30
f 30/51/30 20/58/20 32/52/32
f 32/52/32 20/59/20 19/60/19
f 19/46/19 22/47/22 21/33/21
f 22/47/22 24/48/24 23/35/23
f 24/48/24 26/49/26 25/37/25
f 26/49/26 28/50/28 27/39/27
f 28/50/28 30/51/30 29/41/29
f 30/51/30 32/52/32 31/43/31
f 32/52/32 19/60/19 18/45/18
g A_ClothTail.001_A_ClothTailProfileData.001
v 0.100000 0.090000 0.080000
v 0.141723 0.106857 0.080000
v -0.026850 0.524090 0.080000
v -0.068573 0.507233 0.080000
v 0.112893 0.095209 0.062881
v -0.055680 0.512442 0.062881
v 0.066245 0.076362 0.069420
v -0.102328 0.493595 0.069420
v 0.066245 0.076362 0.090580
v -0.102328 0.493595 0.090580
v 0.112893 0.095209 0.097119
v -0.055680 0.512442 0.097119
vn -0.3746 0.9272 -0.0000
vn -0.9538 0.3005 -0.0000
vn -0.4773 -0.8787 -0.0000
vn 0.3746 -0.9272 -0.0000
vn -0.2348 0.2557 0.9378
vn 0.0087 -0.3470 0.9378
vn 0.2362 0.5710 0.7863
vn 0.5665 -0.2467 0.7863
vn 0.2362 0.5710 -0.7863
vn 0.5665 -0.2467 -0.7863
vn -0.2348 0.2557 -0.9378
vn 0.0087 -0.3470 -0.9378
vt 0.100000 0.000000
vt 0.000000 0.000000
vt 0.200000 0.000000
vt 0.300000 0.000000
vt 0.400000 0.000000
vt 0.500000 0.000000
vt 0.600000 0.000000
vt 0.700000 0.000000
vt 0.800000 0.000000
vt 0.900000 0.000000
vt 1.000000 0.000000
vt 0.000000 1.000000
vt 0.200000 1.000000
vt 0.400000 1.000000
vt 0.600000 1.000000
vt 0.800000 1.000000
vt 1.000000 1.000000
vt 0.100000 1.000000
vt 0.300000 1.000000
vt 0.500000 1.000000
vt 0.700000 1.000000
vt 0.900000 1.000000
s 1
g A_ClothTail.001_aged_cloth
usemtl aged_cloth
f 33/61/33 34/62/34 37/63/37
f 33/64/33 37/63/37 39/65/39
f 33/66/33 39/65/39 41/67/41
f 33/68/33 41/67/41 43/69/43
f 33/70/33 43/69/43 34/71/34
f 34/62/34 35/72/35 38/73/38 37/63/37
f 37/63/37 38/73/38 40/74/40 39/65/39
f 39/65/39 40/74/40 42/75/42 41/67/41
f 41/67/41 42/75/42 44/76/44 43/69/43
f 43/69/43 44/76/44 35/77/35 34/71/34
f 35/72/35 36/78/36 38/73/38
f 38/73/38 36/79/36 40/74/40
f 40/74/40 36/80/36 42/75/42
f 42/75/42 36/81/36 44/76/44
f 44/76/44 36/82/36 35/77/35
g A_ClothTail.001_Mesh
v 0.100000 0.090000 0.080000
v 0.141723 0.106857 0.080000
v -0.026850 0.524090 0.080000
v -0.068573 0.507233 0.080000
v 0.112893 0.095209 0.062881
v -0.055680 0.512442 0.062881
v 0.066245 0.076362 0.069420
v -0.102328 0.493595 0.069420
v 0.066245 0.076362 0.090580
v -0.102328 0.493595 0.090580
v 0.112893 0.095209 0.097119
v -0.055680 0.512442 0.097119
vn -0.3746 0.9272 -0.0000
vn -0.9538 0.3005 -0.0000
vn -0.4773 -0.8787 -0.0000
vn 0.3746 -0.9272 -0.0000
vn -0.2348 0.2557 0.9378
vn 0.0088 -0.3470 0.9378
vn 0.2362 0.5710 0.7863
vn 0.5665 -0.2467 0.7863
vn 0.2362 0.5710 -0.7863
vn 0.5665 -0.2467 -0.7863
vn -0.2348 0.2557 -0.9378
vn 0.0087 -0.3470 -0.9378
vt 0.100000 0.000000
vt 0.000000 0.000000
vt 0.200000 0.000000
vt 0.300000 0.000000
vt 0.400000 0.000000
vt 0.500000 0.000000
vt 0.600000 0.000000
vt 0.700000 0.000000
vt 0.800000 0.000000
vt 0.900000 0.000000
vt 1.000000 0.000000
vt 0.000000 1.000000
vt 0.200000 1.000000
vt 0.400000 1.000000
vt 0.600000 1.000000
vt 0.800000 1.000000
vt 0.100000 1.000000
vt 0.300000 1.000000
vt 0.500000 1.000000
vt 0.700000 1.000000
vt 0.900000 1.000000
vt 1.000000 1.000000
s 1
g A_ClothTail.001_aged_cloth
usemtl aged_cloth
f 45/83/45 46/84/46 49/85/49
f 45/86/45 49/85/49 51/87/51
f 45/88/45 51/87/51 53/89/53
f 45/90/45 53/89/53 55/91/55
f 45/92/45 55/91/55 46/93/46
f 47/94/47 49/85/49 46/84/46
f 50/95/50 51/87/51 49/85/49
f 52/96/52 53/89/53 51/87/51
f 54/97/54 55/91/55 53/89/53
f 56/98/56 46/93/46 55/91/55
f 47/94/47 48/99/48 50/95/50
f 50/95/50 48/100/48 52/96/52
f 52/96/52 48/101/48 54/97/54
f 54/97/54 48/102/48 56/98/56
f 56/98/56 48/103/48 47/104/47
f 47/94/47 50/95/50 49/85/49
f 50/95/50 52/96/52 51/87/51
f 52/96/52 54/97/54 53/89/53
f 54/97/54 56/98/56 55/91/55
f 56/98/56 47/104/47 46/93/46
g A_CordWrap.001_A_CordWrapProfileData.001
v 0.560000 0.460000 0.040000
v 0.600000 0.460000 0.040000
v 0.600000 0.460000 0.150000
v 0.560000 0.460000 0.150000
v 0.551629 0.529175 0.040000
v 0.590474 0.538716 0.040000
v 0.590474 0.538716 0.150000
v 0.551629 0.529175 0.150000
v 0.526999 0.594356 0.040000
v 0.562447 0.612888 0.040000
v 0.562447 0.612888 0.150000
v 0.526999 0.594356 0.150000
v 0.487532 0.651780 0.040000
v 0.517537 0.678233 0.040000
v 0.517537 0.678233 0.150000
v 0.487532 0.651780 0.150000
v 0.435507 0.698133 0.040000
v 0.458336 0.730979 0.040000
v 0.458336 0.730979 0.150000
v 0.435507 0.698133 0.150000
v 0.373927 0.730738 0.040000
v 0.388261 0.768082 0.040000
v 0.388261 0.768082 0.150000
v 0.373927 0.730738 0.150000
v 0.306347 0.747713 0.040000
v 0.311360 0.787398 0.040000
v 0.311360 0.787398 0.150000
v 0.306347 0.747713 0.150000
v 0.236668 0.748078 0.040000
v 0.232071 0.787813 0.040000
v 0.232071 0.787813 0.150000
v 0.236668 0.748078 0.150000
v 0.168914 0.731812 0.040000
v 0.154971 0.769303 0.040000
v 0.154971 0.769303 0.150000
v 0.168914 0.731812 0.150000
v 0.106996 0.699853 0.040000
v 0.084513 0.732937 0.040000
v 0.084513 0.732937 0.150000
v 0.106996 0.699853 0.150000
v 0.054488 0.654048 0.040000
v 0.024762 0.680813 0.040000
v 0.024762 0.680813 0.150000
v 0.054488 0.654048 0.150000
v 0.014422 0.597040 0.040000
v -0.020830 0.615942 0.040000
v -0.020830 0.615942 0.150000
v 0.014422 0.597040 0.150000
v -0.010889 0.532120 0.040000
v -0.049632 0.542068 0.040000
v -0.049632 0.542068 0.150000
v -0.010889 0.532120 0.150000
vn 0.6756 0.0818 0.7327
vn -0.7294 -0.0883 0.6784
vn -0.7294 -0.0883 -0.6784
vn 0.6756 0.0818 -0.7327
vn 0.6583 0.1617 0.7352
vn -0.7111 -0.1747 0.6810
vn -0.7111 -0.1747 -0.6810
vn 0.6583 0.1617 -0.7352
vn 0.6007 0.3141 0.7352
vn -0.6489 -0.3392 0.6810
vn -0.6489 -0.3392 -0.6810
vn 0.6007 0.3141 -0.7352
vn 0.5085 0.4483 0.7352
vn -0.5493 -0.4842 0.6810
vn -0.5493 -0.4842 -0.6810
vn 0.5085 0.4483 -0.7352
vn 0.3869 0.5566 0.7352
vn -0.4179 -0.6013 0.6810
vn -0.4179 -0.6013 -0.6810
vn 0.3869 0.5566 -0.7352
vn 0.2429 0.6329 0.7352
vn -0.2624 -0.6836 0.6810
vn -0.2624 -0.6836 -0.6810
vn 0.2429 0.6329 -0.7352
vn 0.0850 0.6725 0.7352
vn -0.0918 -0.7265 0.6810
vn -0.0918 -0.7265 -0.6810
vn 0.0850 0.6725 -0.7352
vn -0.0779 0.6734 0.7352
vn 0.0842 -0.7274 0.6810
vn 0.0842 -0.7274 -0.6810
vn -0.0779 0.6734 -0.7352
vn -0.2363 0.6354 0.7352
vn 0.2552 -0.6863 0.6810
vn 0.2552 -0.6863 -0.6810
vn -0.2363 0.6354 -0.7352
vn -0.3810 0.5607 0.7352
vn 0.4116 -0.6056 0.6810
vn 0.4116 -0.6056 -0.6810
vn -0.3810 0.5607 -0.7352
vn -0.5038 0.4536 0.7352
vn 0.5442 -0.4900 0.6810
vn 0.5442 -0.4900 -0.6810
vn -0.5038 0.4536 -0.7352
vn -0.5974 0.3203 0.7352
vn 0.6453 -0.3460 0.6810
vn 0.6453 -0.3460 -0.6810
vn -0.5974 0.3203 -0.7352
vn -0.6341 0.2472 0.7327
vn 0.6845 -0.2669 0.6784
vn 0.6845 -0.2669 -0.6784
vn -0.6341 0.2472 -0.7327
vt 0.000000 0.000000
vt 0.083333 0.000000
vt 0.166667 0.000000
vt 0.250000 0.000000
vt 0.333333 0.000000
vt 0.416667 0.000000
vt 0.500000 0.000000
vt 0.583333 0.000000
vt 0.666667 0.000000
vt 0.750000 0.000000
vt 0.833333 0.000000
vt 0.916667 0.000000
vt 1.000000 0.000000
vt 0.000000 1.000000
vt 0.083333 1.000000
vt 0.166667 1.000000
vt 0.250000 1.000000
vt 0.333333 1.000000
vt 0.416667 1.000000
vt 0.500000 1.000000
vt 0.583333 1.000000
vt 0.666667 1.000000
vt 0.750000 1.000000
vt 0.833333 1.000000
vt 0.916667 1.000000
vt 1.000000 1.000000
s 1
g A_CordWrap.001_aged_cloth
usemtl aged_cloth
f 57/105/57 58/105/58 62/106/62 61/106/61
f 61/106/61 62/106/62 66/107/66 65/107/65
f 65/107/65 66/107/66 70/108/70 69/108/69
f 69/108/69 70/108/70 74/109/74 73/109/73
f 73/109/73 74/109/74 78/110/78 77/110/77
f 77/110/77 78/110/78 82/111/82 81/111/81
f 81/111/81 82/111/82 86/112/86 85/112/85
f 85/112/85 86/112/86 90/113/90 89/113/89
f 89/113/89 90/113/90 94/114/94 93/114/93
f 93/114/93 94/114/94 98/115/98 97/115/97
f 97/115/97 98/115/98 102/116/102 101/116/101
f 101/116/101 102/116/102 106/117/106 105/117/105
f 58/105/58 59/118/59 63/119/63 62/106/62
f 62/106/62 63/119/63 67/120/67 66/107/66
f 66/107/66 67/120/67 71/121/71 70/108/70
f 70/108/70 71/121/71 75/122/75 74/109/74
f 74/109/74 75/122/75 79/123/79 78/110/78
f 78/110/78 79/123/79 83/124/83 82/111/82
f 82/111/82 83/124/83 87/125/87 86/112/86
f 86/112/86 87/125/87 91/126/91 90/113/90
f 90/113/90 91/126/91 95/127/95 94/114/94
f 94/114/94 95/127/95 99/128/99 98/115/98
f 98/115/98 99/128/99 103/129/103 102/116/102
f 102/116/102 103/129/103 107/130/107 106/117/106
f 59/118/59 60/118/60 64/119/64 63/119/63
f 63/119/63 64/119/64 68/120/68 67/120/67
f 67/120/67 68/120/68 72/121/72 71/121/71
f 71/121/71 72/121/72 76/122/76 75/122/75
f 75/122/75 76/122/76 80/123/80 79/123/79
f 79/123/79 80/123/80 84/124/84 83/124/83
f 83/124/83 84/124/84 88/125/88 87/125/87
f 87/125/87 88/125/88 92/126/92 91/126/91
f 91/126/91 92/126/92 96/127/96 95/127/95
f 95/127/95 96/127/96 100/128/100 99/128/99
f 99/128/99 100/128/100 104/129/104 103/129/103
f 103/129/103 104/129/104 108/130/108 107/130/107
f 60/118/60 57/105/57 61/106/61 64/119/64
f 64/119/64 61/106/61 65/107/65 68/120/68
f 68/120/68 65/107/65 69/108/69 72/121/72
f 72/121/72 69/108/69 73/109/73 76/122/76
f 76/122/76 73/109/73 77/110/77 80/123/80
f 80/123/80 77/110/77 81/111/81 84/124/84
f 84/124/84 81/111/81 85/112/85 88/125/88
f 88/125/88 85/112/85 89/113/89 92/126/92
f 92/126/92 89/113/89 93/114/93 96/127/96
f 96/127/96 93/114/93 97/115/97 100/128/100
f 100/128/100 97/115/97 101/116/101 104/129/104
f 104/129/104 101/116/101 105/117/105 108/130/108
g A_CordWrap.001_Mesh
v 0.560000 0.460000 0.040000
v 0.600000 0.460000 0.040000
v 0.600000 0.460000 0.150000
v 0.560000 0.460000 0.150000
v 0.551629 0.529175 0.040000
v 0.590474 0.538716 0.040000
v 0.590474 0.538716 0.150000
v 0.551629 0.529175 0.150000
v 0.526999 0.594356 0.040000
v 0.562447 0.612888 0.040000
v 0.562447 0.612888 0.150000
v 0.526999 0.594356 0.150000
v 0.487532 0.651780 0.040000
v 0.517537 0.678233 0.040000
v 0.517537 0.678233 0.150000
v 0.487532 0.651780 0.150000
v 0.435507 0.698133 0.040000
v 0.458336 0.730979 0.040000
v 0.458336 0.730979 0.150000
v 0.435507 0.698133 0.150000
v 0.373927 0.730738 0.040000
v 0.388261 0.768082 0.040000
v 0.388261 0.768082 0.150000
v 0.373927 0.730738 0.150000
v 0.306347 0.747713 0.040000
v 0.311360 0.787398 0.040000
v 0.311360 0.787398 0.150000
v 0.306347 0.747713 0.150000
v 0.236668 0.748078 0.040000
v 0.232071 0.787813 0.040000
v 0.232071 0.787813 0.150000
v 0.236668 0.748078 0.150000
v 0.168914 0.731812 0.040000
v 0.154971 0.769303 0.040000
v 0.154971 0.769303 0.150000
v 0.168914 0.731812 0.150000
v 0.106996 0.699853 0.040000
v 0.084513 0.732937 0.040000
v 0.084513 0.732937 0.150000
v 0.106996 0.699853 0.150000
v 0.054488 0.654048 0.040000
v 0.024762 0.680813 0.040000
v 0.024762 0.680813 0.150000
v 0.054488 0.654048 0.150000
v 0.014422 0.597040 0.040000
v -0.020830 0.615942 0.040000
v -0.020830 0.615942 0.150000
v 0.014422 0.597040 0.150000
v -0.010889 0.532120 0.040000
v -0.049632 0.542068 0.040000
v -0.049632 0.542068 0.150000
v -0.010889 0.532120 0.150000
vn 0.6756 0.0818 0.7327
vn -0.7294 -0.0883 0.6784
vn -0.7294 -0.0883 -0.6784
vn 0.6756 0.0818 -0.7327
vn 0.6583 0.1617 0.7352
vn -0.7111 -0.1747 0.6810
vn -0.7111 -0.1747 -0.6810
vn 0.6583 0.1617 -0.7352
vn 0.6007 0.3141 0.7352
vn -0.6489 -0.3392 0.6810
vn -0.6489 -0.3392 -0.6810
vn 0.6007 0.3141 -0.7352
vn 0.5085 0.4483 0.7352
vn -0.5493 -0.4842 0.6810
vn -0.5493 -0.4842 -0.6810
vn 0.5085 0.4483 -0.7352
vn 0.3869 0.5566 0.7352
vn -0.4179 -0.6013 0.6810
vn -0.4179 -0.6013 -0.6810
vn 0.3869 0.5566 -0.7352
vn 0.2429 0.6329 0.7352
vn -0.2624 -0.6836 0.6810
vn -0.2624 -0.6836 -0.6810
vn 0.2429 0.6329 -0.7352
vn 0.0850 0.6725 0.7352
vn -0.0918 -0.7265 0.6810
vn -0.0918 -0.7265 -0.6810
vn 0.0850 0.6725 -0.7352
vn -0.0779 0.6734 0.7352
vn 0.0842 -0.7274 0.6810
vn 0.0842 -0.7274 -0.6810
vn -0.0779 0.6734 -0.7352
vn -0.2363 0.6354 0.7352
vn 0.2552 -0.6863 0.6810
vn 0.2552 -0.6863 -0.6810
vn -0.2363 0.6354 -0.7352
vn -0.3810 0.5607 0.7352
vn 0.4116 -0.6056 0.6810
vn 0.4116 -0.6056 -0.6810
vn -0.3810 0.5607 -0.7352
vn -0.5038 0.4536 0.7352
vn 0.5442 -0.4900 0.6810
vn 0.5442 -0.4900 -0.6810
vn -0.5038 0.4536 -0.7352
vn -0.5974 0.3203 0.7352
vn 0.6453 -0.3460 0.6810
vn 0.6453 -0.3460 -0.6810
vn -0.5974 0.3203 -0.7352
vn -0.6341 0.2472 0.7327
vn 0.6845 -0.2669 0.6784
vn 0.6845 -0.2669 -0.6784
vn -0.6341 0.2472 -0.7327
vt 0.000000 0.000000
vt 0.083333 0.000000
vt 0.166667 0.000000
vt 0.250000 0.000000
vt 0.333333 0.000000
vt 0.416667 0.000000
vt 0.500000 0.000000
vt 0.583333 0.000000
vt 0.666667 0.000000
vt 0.750000 0.000000
vt 0.833333 0.000000
vt 0.916667 0.000000
vt 1.000000 0.000000
vt 0.000000 1.000000
vt 0.083333 1.000000
vt 0.166667 1.000000
vt 0.250000 1.000000
vt 0.333333 1.000000
vt 0.416667 1.000000
vt 0.500000 1.000000
vt 0.583333 1.000000
vt 0.666667 1.000000
vt 0.750000 1.000000
vt 0.833333 1.000000
vt 0.916667 1.000000
vt 1.000000 1.000000
s 1
g A_CordWrap.001_aged_cloth
usemtl aged_cloth
f 110/131/110 113/132/113 109/131/109
f 114/132/114 117/133/117 113/132/113
f 117/133/117 122/134/122 121/134/121
f 122/134/122 125/135/125 121/134/121
f 126/135/126 129/136/129 125/135/125
f 130/136/130 133/137/133 129/136/129
f 134/137/134 137/138/137 133/137/133
f 137/138/137 142/139/142 141/139/141
f 141/139/141 146/140/146 145/140/145
f 146/140/146 149/141/149 145/140/145
f 149/141/149 154/142/154 153/142/153
f 154/142/154 157/143/157 153/142/153
f 111/144/111 114/132/114 110/131/110
f 115/145/115 118/133/118 114/132/114
f 119/146/119 122/134/122 118/133/118
f 123/147/123 126/135/126 122/134/122
f 127/148/127 130/136/130 126/135/126
f 131/149/131 134/137/134 130/136/130
f 135/150/135 138/138/138 134/137/134
f 139/151/139 142/139/142 138/138/138
f 143/152/143 146/140/146 142/139/142
f 147/153/147 150/141/150 146/140/146
f 151/154/151 154/142/154 150/141/150
f 155/155/155 158/143/158 154/142/154
f 112/144/112 115/145/115 111/144/111
f 115/145/115 120/146/120 119/146/119
f 120/146/120 123/147/123 119/146/119
f 123/147/123 128/148/128 127/148/127
f 128/148/128 131/149/131 127/148/127
f 131/149/131 136/150/136 135/150/135
f 136/150/136 139/151/139 135/150/135
f 140/151/140 143/152/143 139/151/139
f 144/152/144 147/153/147 143/152/143
f 148/153/148 151/154/151 147/153/147
f 151/154/151 156/155/156 155/155/155
f 156/155/156 159/156/159 155/155/155
f 109/131/109 116/145/116 112/144/112
f 113/132/113 120/146/120 116/145/116
f 117/133/117 124/147/124 120/146/120
f 121/134/121 128/148/128 124/147/124
f 125/135/125 132/149/132 128/148/128
f 129/136/129 136/150/136 132/149/132
f 133/137/133 140/151/140 136/150/136
f 137/138/137 144/152/144 140/151/140
f 141/139/141 148/153/148 144/152/144
f 145/140/145 152/154/152 148/153/148
f 149/141/149 156/155/156 152/154/152
f 153/142/153 160/156/160 156/155/156
f 110/131/110 114/132/114 113/132/113
f 114/132/114 118/133/118 117/133/117
f 117/133/117 118/133/118 122/134/122
f 122/134/122 126/135/126 125/135/125
f 126/135/126 130/136/130 129/136/129
f 130/136/130 134/137/134 133/137/133
f 134/137/134 138/138/138 137/138/137
f 137/138/137 138/138/138 142/139/142
f 141/139/141 142/139/142 146/140/146
f 146/140/146 150/141/150 149/141/149
f 149/141/149 150/141/150 154/142/154
f 154/142/154 158/143/158 157/143/157
f 111/144/111 115/145/115 114/132/114
f 115/145/115 119/146/119 118/133/118
f 119/146/119 123/147/123 122/134/122
f 123/147/123 127/148/127 126/135/126
f 127/148/127 131/149/131 130/136/130
f 131/149/131 135/150/135 134/137/134
f 135/150/135 139/151/139 138/138/138
f 139/151/139 143/152/143 142/139/142
f 143/152/143 147/153/147 146/140/146
f 147/153/147 151/154/151 150/141/150
f 151/154/151 155/155/155 154/142/154
f 155/155/155 159/156/159 158/143/158
f 112/144/112 116/145/116 115/145/115
f 115/145/115 116/145/116 120/146/120
f 120/146/120 124/147/124 123/147/123
f 123/147/123 124/147/124 128/148/128
f 128/148/128 132/149/132 131/149/131
f 131/149/131 132/149/132 136/150/136
f 136/150/136 140/151/140 139/151/139
f 140/151/140 144/152/144 143/152/143
f 144/152/144 148/153/148 147/153/147
f 148/153/148 152/154/152 151/154/151
f 151/154/151 152/154/152 156/155/156
f 156/155/156 160/156/160 159/156/159
f 109/131/109 113/132/113 116/145/116
f 113/132/113 117/133/117 120/146/120
f 117/133/117 121/134/121 124/147/124
f 121/134/121 125/135/125 128/148/128
f 125/135/125 129/136/129 132/149/132
f 129/136/129 133/137/133 136/150/136
f 133/137/133 137/138/137 140/151/140
f 137/138/137 141/139/141 144/152/144
f 141/139/141 145/140/145 148/153/148
f 145/140/145 149/141/149 152/154/152
f 149/141/149 153/142/153 156/155/156
f 153/142/153 157/143/157 160/156/160
g A_Seal.001_A_SealProfileData.001
v 0.270000 0.460000 0.055000
v 0.460000 0.460000 0.055000
v 0.490000 0.460000 0.085000
v 0.490000 0.460000 0.115000
v 0.460000 0.460000 0.145000
v 0.270000 0.460000 0.145000
v 0.434545 0.555000 0.055000
v 0.460526 0.570000 0.085000
v 0.460526 0.570000 0.115000
v 0.434545 0.555000 0.145000
v 0.365000 0.624545 0.055000
v 0.380000 0.650526 0.085000
v 0.380000 0.650526 0.115000
v 0.365000 0.624545 0.145000
v 0.270000 0.650000 0.055000
v 0.270000 0.680000 0.085000
v 0.270000 0.680000 0.115000
v 0.270000 0.650000 0.145000
v 0.175000 0.624545 0.055000
v 0.160000 0.650526 0.085000
v 0.160000 0.650526 0.115000
v 0.175000 0.624545 0.145000
v 0.105455 0.555000 0.055000
v 0.079474 0.570000 0.085000
v 0.079474 0.570000 0.115000
v 0.105455 0.555000 0.145000
v 0.080000 0.460000 0.055000
v 0.050000 0.460000 0.085000
v 0.050000 0.460000 0.115000
v 0.080000 0.460000 0.145000
v 0.105455 0.365000 0.055000
v 0.079474 0.350000 0.085000
v 0.079474 0.350000 0.115000
v 0.105455 0.365000 0.145000
v 0.175000 0.295455 0.055000
v 0.160000 0.269474 0.085000
v 0.160000 0.269474 0.115000
v 0.175000 0.295455 0.145000
v 0.270000 0.270000 0.055000
v 0.270000 0.240000 0.085000
v 0.270000 0.240000 0.115000
v 0.270000 0.270000 0.145000
v 0.365000 0.295455 0.055000
v 0.380000 0.269474 0.085000
v 0.380000 0.269474 0.115000
v 0.365000 0.295455 0.145000
v 0.434545 0.365000 0.055000
v 0.460526 0.350000 0.085000
v 0.460526 0.350000 0.115000
v 0.434545 0.365000 0.145000
vn -0.0000 -0.0000 -1.0000
vn 0.4344 -0.0000 -0.9007
vn 0.9322 -0.0000 -0.3620
vn 0.9322 -0.0000 0.3620
vn 0.4344 -0.0000 0.9007
vn -0.0000 -0.0000 1.0000
vn 0.3762 0.2172 -0.9007
vn 0.8073 0.4661 -0.3620
vn 0.8073 0.4661 0.3620
vn 0.3762 0.2172 0.9007
vn 0.2172 0.3762 -0.9007
vn 0.4661 0.8073 -0.3620
vn 0.4661 0.8073 0.3620
vn 0.2172 0.3762 0.9007
vn -0.0000 0.4344 -0.9007
vn -0.0000 0.9322 -0.3620
vn -0.0000 0.9322 0.3620
vn -0.0000 0.4344 0.9007
vn -0.2172 0.3762 -0.9007
vn -0.4661 0.8073 -0.3620
vn -0.4661 0.8073 0.3620
vn -0.2172 0.3762 0.9007
vn -0.3762 0.2172 -0.9007
vn -0.8073 0.4661 -0.3620
vn -0.8073 0.4661 0.3620
vn -0.3762 0.2172 0.9007
vn -0.4344 -0.0000 -0.9007
vn -0.9322 -0.0000 -0.3620
vn -0.9322 -0.0000 0.3620
vn -0.4344 -0.0000 0.9007
vn -0.3762 -0.2172 -0.9007
vn -0.8073 -0.4661 -0.3620
vn -0.8073 -0.4661 0.3620
vn -0.3762 -0.2172 0.9007
vn -0.2172 -0.3762 -0.9007
vn -0.4661 -0.8073 -0.3620
vn -0.4661 -0.8073 0.3620
vn -0.2172 -0.3762 0.9007
vn -0.0000 -0.4344 -0.9007
vn -0.0000 -0.9322 -0.3620
vn -0.0000 -0.9322 0.3620
vn -0.0000 -0.4344 0.9007
vn 0.2172 -0.3762 -0.9007
vn 0.4661 -0.8073 -0.3620
vn 0.4661 -0.8073 0.3620
vn 0.2172 -0.3762 0.9007
vn 0.3762 -0.2172 -0.9007
vn 0.8073 -0.4661 -0.3620
vn 0.8073 -0.4661 0.3620
vn 0.3762 -0.2172 0.9007
vt 0.000000 0.000000
vt 0.041667 0.000000
vt 0.083333 0.000000
vt 0.125000 0.000000
vt 0.166667 0.000000
vt 0.208333 0.000000
vt 0.250000 0.000000
vt 0.291667 0.000000
vt 0.333333 0.000000
vt 0.375000 0.000000
vt 0.416667 0.000000
vt 0.458333 0.000000
vt 0.500000 0.000000
vt 0.541667 0.000000
vt 0.583333 0.000000
vt 0.625000 0.000000
vt 0.666667 0.000000
vt 0.708333 0.000000
vt 0.750000 0.000000
vt 0.791667 0.000000
vt 0.833333 0.000000
vt 0.875000 0.000000
vt 0.916667 0.000000
vt 0.958333 0.000000
vt 1.000000 0.000000
vt 0.000000 0.333333
vt 0.083333 0.333333
vt 0.166667 0.333333
vt 0.250000 0.333333
vt 0.333333 0.333333
vt 0.416667 0.333333
vt 0.500000 0.333333
vt 0.583333 0.333333
vt 0.666667 0.333333
vt 0.750000 0.333333
vt 0.833333 0.333333
vt 0.916667 0.333333
vt 1.000000 0.333333
vt 0.000000 0.666667
vt 0.083333 0.666667
vt 0.166667 0.666667
vt 0.250000 0.666667
vt 0.333333 0.666667
vt 0.416667 0.666667
vt 0.500000 0.666667
vt 0.583333 0.666667
vt 0.666667 0.666667
vt 0.750000 0.666667
vt 0.833333 0.666667
vt 0.916667 0.666667
vt 1.000000 0.666667
vt 0.000000 1.000000
vt 0.083333 1.000000
vt 0.166667 1.000000
vt 0.250000 1.000000
vt 0.333333 1.000000
vt 0.416667 1.000000
vt 0.500000 1.000000
vt 0.583333 1.000000
vt 0.666667 1.000000
vt 0.750000 1.000000
vt 0.833333 1.000000
vt 0.916667 1.000000
vt 1.000000 1.000000
vt 0.041667 1.000000
vt 0.125000 1.000000
vt 0.208333 1.000000
vt 0.291667 1.000000
vt 0.375000 1.000000
vt 0.458333 1.000000
vt 0.541667 1.000000
vt 0.625000 1.000000
vt 0.708333 1.000000
vt 0.791667 1.000000
vt 0.875000 1.000000
vt 0.958333 1.000000
s 1
g A_Seal.001_ritual_gold
usemtl ritual_gold
f 162/157/162 161/158/161 167/159/167
f 167/159/167 161/160/161 171/161/171
f 171/161/171 161/162/161 175/163/175
f 175/163/175 161/164/161 179/165/179
f 179/165/179 161/166/161 183/167/183
f 183/167/183 161/168/161 187/169/187
f 187/169/187 161/170/161 191/171/191
f 191/171/191 161/172/161 195/173/195
f 195/173/195 161/174/161 199/175/199
f 199/175/199 161/176/161 203/177/203
f 203/177/203 161/178/161 207/179/207
f 207/179/207 161/180/161 162/181/162
f 163/182/163 162/157/162 167/159/167 168/183/168
f 168/183/168 167/159/167 171/161/171 172/184/172
f 172/184/172 171/161/171 175/163/175 176/185/176
f 176/185/176 175/163/175 179/165/179 180/186/180
f 180/186/180 179/165/179 183/167/183 184/187/184
f 184/187/184 183/167/183 187/169/187 188/188/188
f 188/188/188 187/169/187 191/171/191 192/189/192
f 192/189/192 191/171/191 195/173/195 196/190/196
f 196/190/196 195/173/195 199/175/199 200/191/200
f 200/191/200 199/175/199 203/177/203 204/192/204
f 204/192/204 203/177/203 207/179/207 208/193/208
f 208/193/208 207/179/207 162/181/162 163/194/163
f 164/195/164 163/182/163 168/183/168 169/196/169
f 169/196/169 168/183/168 172/184/172 173/197/173
f 173/197/173 172/184/172 176/185/176 177/198/177
f 177/198/177 176/185/176 180/186/180 181/199/181
f 181/199/181 180/186/180 184/187/184 185/200/185
f 185/200/185 184/187/184 188/188/188 189/201/189
f 189/201/189 188/188/188 192/189/192 193/202/193
f 193/202/193 192/189/192 196/190/196 197/203/197
f 197/203/197 196/190/196 200/191/200 201/204/201
f 201/204/201 200/191/200 204/192/204 205/205/205
f 205/205/205 204/192/204 208/193/208 209/206/209
f 209/206/209 208/193/208 163/194/163 164/207/164
f 165/208/165 164/195/164 169/196/169 170/209/170
f 170/209/170 169/196/169 173/197/173 174/210/174
f 174/210/174 173/197/173 177/198/177 178/211/178
f 178/211/178 177/198/177 181/199/181 182/212/182
f 182/212/182 181/199/181 185/200/185 186/213/186
f 186/213/186 185/200/185 189/201/189 190/214/190
f 190/214/190 189/201/189 193/202/193 194/215/194
f 194/215/194 193/202/193 197/203/197 198/216/198
f 198/216/198 197/203/197 201/204/201 202/217/202
f 202/217/202 201/204/201 205/205/205 206/218/206
f 206/218/206 205/205/205 209/206/209 210/219/210
f 210/219/210 209/206/209 164/207/164 165/220/165
f 166/221/166 165/208/165 170/209/170
f 166/222/166 170/209/170 174/210/174
f 166/223/166 174/210/174 178/211/178
f 166/224/166 178/211/178 182/212/182
f 166/225/166 182/212/182 186/213/186
f 166/226/166 186/213/186 190/214/190
f 166/227/166 190/214/190 194/215/194
f 166/228/166 194/215/194 198/216/198
f 166/229/166 198/216/198 202/217/202
f 166/230/166 202/217/202 206/218/206
f 166/231/166 206/218/206 210/219/210
f 166/232/166 210/219/210 165/220/165
g A_Seal.001_Mesh
v 0.270000 0.460000 0.055000
v 0.460000 0.460000 0.055000
v 0.490000 0.460000 0.085000
v 0.490000 0.460000 0.115000
v 0.460000 0.460000 0.145000
v 0.270000 0.460000 0.145000
v 0.434545 0.555000 0.055000
v 0.460526 0.570000 0.085000
v 0.460526 0.570000 0.115000
v 0.434545 0.555000 0.145000
v 0.365000 0.624545 0.055000
v 0.380000 0.650526 0.085000
v 0.380000 0.650526 0.115000
v 0.365000 0.624545 0.145000
v 0.270000 0.650000 0.055000
v 0.270000 0.680000 0.085000
v 0.270000 0.680000 0.115000
v 0.270000 0.650000 0.145000
v 0.175000 0.624545 0.055000
v 0.160000 0.650526 0.085000
v 0.160000 0.650526 0.115000
v 0.175000 0.624545 0.145000
v 0.105455 0.555000 0.055000
v 0.079474 0.570000 0.085000
v 0.079474 0.570000 0.115000
v 0.105455 0.555000 0.145000
v 0.080000 0.460000 0.055000
v 0.050000 0.460000 0.085000
v 0.050000 0.460000 0.115000
v 0.080000 0.460000 0.145000
v 0.105455 0.365000 0.055000
v 0.079474 0.350000 0.085000
v 0.079474 0.350000 0.115000
v 0.105455 0.365000 0.145000
v 0.175000 0.295455 0.055000
v 0.160000 0.269474 0.085000
v 0.160000 0.269474 0.115000
v 0.175000 0.295455 0.145000
v 0.270000 0.270000 0.055000
v 0.270000 0.240000 0.085000
v 0.270000 0.240000 0.115000
v 0.270000 0.270000 0.145000
v 0.365000 0.295455 0.055000
v 0.380000 0.269474 0.085000
v 0.380000 0.269474 0.115000
v 0.365000 0.295455 0.145000
v 0.434545 0.365000 0.055000
v 0.460526 0.350000 0.085000
v 0.460526 0.350000 0.115000
v 0.434545 0.365000 0.145000
vn -0.0000 -0.0000 -1.0000
vn 0.4344 -0.0000 -0.9007
vn 0.9322 -0.0000 -0.3620
vn 0.9322 -0.0000 0.3620
vn 0.4344 -0.0000 0.9007
vn -0.0000 -0.0000 1.0000
vn 0.3762 0.2172 -0.9007
vn 0.8073 0.4661 -0.3620
vn 0.8073 0.4661 0.3620
vn 0.3762 0.2172 0.9007
vn 0.2172 0.3762 -0.9007
vn 0.4661 0.8073 -0.3620
vn 0.4661 0.8073 0.3620
vn 0.2172 0.3762 0.9007
vn -0.0000 0.4344 -0.9007
vn -0.0000 0.9322 -0.3620
vn -0.0000 0.9322 0.3620
vn -0.0000 0.4344 0.9007
vn -0.2172 0.3762 -0.9007
vn -0.4661 0.8073 -0.3620
vn -0.4661 0.8073 0.3620
vn -0.2172 0.3762 0.9007
vn -0.3762 0.2172 -0.9007
vn -0.8073 0.4661 -0.3620
vn -0.8073 0.4661 0.3620
vn -0.3762 0.2172 0.9007
vn -0.4344 -0.0000 -0.9007
vn -0.9322 -0.0000 -0.3620
vn -0.9322 -0.0000 0.3620
vn -0.4344 -0.0000 0.9007
vn -0.3762 -0.2172 -0.9007
vn -0.8073 -0.4661 -0.3620
vn -0.8073 -0.4661 0.3620
vn -0.3762 -0.2172 0.9007
vn -0.2172 -0.3762 -0.9007
vn -0.4661 -0.8073 -0.3620
vn -0.4661 -0.8073 0.3620
vn -0.2172 -0.3762 0.9007
vn -0.0000 -0.4344 -0.9007
vn -0.0000 -0.9322 -0.3620
vn -0.0000 -0.9322 0.3620
vn -0.0000 -0.4344 0.9007
vn 0.2172 -0.3762 -0.9007
vn 0.4661 -0.8073 -0.3620
vn 0.4661 -0.8073 0.3620
vn 0.2172 -0.3762 0.9007
vn 0.3762 -0.2172 -0.9007
vn 0.8073 -0.4661 -0.3620
vn 0.8073 -0.4661 0.3620
vn 0.3762 -0.2172 0.9007
vt 0.000000 0.000000
vt 0.041667 0.000000
vt 0.083333 0.000000
vt 0.125000 0.000000
vt 0.166667 0.000000
vt 0.208333 0.000000
vt 0.250000 0.000000
vt 0.291667 0.000000
vt 0.333333 0.000000
vt 0.375000 0.000000
vt 0.416667 0.000000
vt 0.458333 0.000000
vt 0.500000 0.000000
vt 0.541667 0.000000
vt 0.583333 0.000000
vt 0.625000 0.000000
vt 0.666667 0.000000
vt 0.708333 0.000000
vt 0.750000 0.000000
vt 0.791667 0.000000
vt 0.833333 0.000000
vt 0.875000 0.000000
vt 0.916667 0.000000
vt 0.958333 0.000000
vt 1.000000 0.000000
vt 0.000000 0.333333
vt 0.083333 0.333333
vt 0.166667 0.333333
vt 0.250000 0.333333
vt 0.333333 0.333333
vt 0.416667 0.333333
vt 0.500000 0.333333
vt 0.583333 0.333333
vt 0.666667 0.333333
vt 0.750000 0.333333
vt 0.833333 0.333333
vt 0.916667 0.333333
vt 1.000000 0.333333
vt 0.083333 0.666667
vt 0.000000 0.666667
vt 0.166667 0.666667
vt 0.250000 0.666667
vt 0.333333 0.666667
vt 0.416667 0.666667
vt 0.500000 0.666667
vt 0.583333 0.666667
vt 0.666667 0.666667
vt 0.750000 0.666667
vt 0.833333 0.666667
vt 0.916667 0.666667
vt 1.000000 0.666667
vt 0.083333 1.000000
vt 0.000000 1.000000
vt 0.166667 1.000000
vt 0.250000 1.000000
vt 0.333333 1.000000
vt 0.416667 1.000000
vt 0.500000 1.000000
vt 0.583333 1.000000
vt 0.666667 1.000000
vt 0.750000 1.000000
vt 0.833333 1.000000
vt 0.916667 1.000000
vt 1.000000 1.000000
vt 0.041667 1.000000
vt 0.125000 1.000000
vt 0.208333 1.000000
vt 0.291667 1.000000
vt 0.375000 1.000000
vt 0.458333 1.000000
vt 0.541667 1.000000
vt 0.625000 1.000000
vt 0.708333 1.000000
vt 0.791667 1.000000
vt 0.875000 1.000000
vt 0.958333 1.000000
s 1
g A_Seal.001_ritual_gold
usemtl ritual_gold
f 212/233/212 211/234/211 217/235/217
f 217/235/217 211/236/211 221/237/221
f 221/237/221 211/238/211 225/239/225
f 225/239/225 211/240/211 229/241/229
f 229/241/229 211/242/211 233/243/233
f 233/243/233 211/244/211 237/245/237
f 237/245/237 211/246/211 241/247/241
f 241/247/241 211/248/211 245/249/245
f 245/249/245 211/250/211 249/251/249
f 249/251/249 211/252/211 253/253/253
f 253/253/253 211/254/211 257/255/257
f 257/255/257 211/256/211 212/257/212
f 213/258/213 217/235/217 218/259/218
f 217/235/217 222/260/222 218/259/218
f 221/237/221 226/261/226 222/260/222
f 225/239/225 230/262/230 226/261/226
f 229/241/229 234/263/234 230/262/230
f 233/243/233 238/264/238 234/263/234
f 237/245/237 242/265/242 238/264/238
f 241/247/241 246/266/246 242/265/242
f 246/266/246 249/251/249 250/267/250
f 249/251/249 254/268/254 250/267/250
f 253/253/253 258/269/258 254/268/254
f 257/255/257 213/270/213 258/269/258
f 213/258/213 219/271/219 214/272/214
f 218/259/218 223/273/223 219/271/219
f 222/260/222 227/274/227 223/273/223
f 226/261/226 231/275/231 227/274/227
f 230/262/230 235/276/235 231/275/231
f 234/263/234 239/277/239 235/276/235
f 238/264/238 243/278/243 239/277/239
f 242/265/242 247/279/247 243/278/243
f 246/266/246 251/280/251 247/279/247
f 250/267/250 255/281/255 251/280/251
f 254/268/254 259/282/259 255/281/255
f 258/269/258 214/283/214 259/282/259
f 214/272/214 220/284/220 215/285/215
f 220/284/220 223/273/223 224/286/224
f 223/273/223 228/287/228 224/286/224
f 227/274/227 232/288/232 228/287/228
f 231/275/231 236/289/236 232/288/232
f 235/276/235 240/290/240 236/289/236
f 239/277/239 244/291/244 240/290/240
f 244/291/244 247/279/247 248/292/248
f 247/279/247 252/293/252 248/292/248
f 251/280/251 256/294/256 252/293/252
f 255/281/255 260/295/260 256/294/256
f 259/282/259 215/296/215 260/295/260
f 216/297/216 215/285/215 220/284/220
f 216/298/216 220/284/220 224/286/224
f 216/299/216 224/286/224 228/287/228
f 216/300/216 228/287/228 232/288/232
f 216/301/216 232/288/232 236/289/236
f 216/302/216 236/289/236 240/290/240
f 216/303/216 240/290/240 244/291/244
f 216/304/216 244/291/244 248/292/248
f 216/305/216 248/292/248 252/293/252
f 216/306/216 252/293/252 256/294/256
f 216/307/216 256/294/256 260/295/260
f 216/308/216 260/295/260 215/296/215
f 213/258/213 212/233/212 217/235/217
f 217/235/217 221/237/221 222/260/222
f 221/237/221 225/239/225 226/261/226
f 225/239/225 229/241/229 230/262/230
f 229/241/229 233/243/233 234/263/234
f 233/243/233 237/245/237 238/264/238
f 237/245/237 241/247/241 242/265/242
f 241/247/241 245/249/245 246/266/246
f 246/266/246 245/249/245 249/251/249
f 249/251/249 253/253/253 254/268/254
f 253/253/253 257/255/257 258/269/258
f 257/255/257 212/257/212 213/270/213
f 213/258/213 218/259/218 219/271/219
f 218/259/218 222/260/222 223/273/223
f 222/260/222 226/261/226 227/274/227
f 226/261/226 230/262/230 231/275/231
f 230/262/230 234/263/234 235/276/235
f 234/263/234 238/264/238 239/277/239
f 238/264/238 242/265/242 243/278/243
f 242/265/242 246/266/246 247/279/247
f 246/266/246 250/267/250 251/280/251
f 250/267/250 254/268/254 255/281/255
f 254/268/254 258/269/258 259/282/259
f 258/269/258 213/270/213 214/283/214
f 214/272/214 219/271/219 220/284/220
f 220/284/220 219/271/219 223/273/223
f 223/273/223 227/274/227 228/287/228
f 227/274/227 231/275/231 232/288/232
f 231/275/231 235/276/235 236/289/236
f 235/276/235 239/277/239 240/290/240
f 239/277/239 243/278/243 244/291/244
f 244/291/244 243/278/243 247/279/247
f 247/279/247 251/280/251 252/293/252
f 251/280/251 255/281/255 256/294/256
f 255/281/255 259/282/259 260/295/260
f 259/282/259 214/283/214 215/296/215
g A_TopRoll.001_A_TopRollProfileData.001
v 0.640000 1.380000 0.000000
v 0.640000 1.455000 0.000000
v -0.640000 1.455000 0.000000
v -0.640000 1.380000 0.000000
v 0.640000 1.426762 -0.058637
v -0.640000 1.426762 -0.058637
v 0.640000 1.363311 -0.073120
v -0.640000 1.363311 -0.073120
v 0.640000 1.312427 -0.032541
v -0.640000 1.312427 -0.032541
v 0.640000 1.312427 0.032541
v -0.640000 1.312427 0.032541
v 0.640000 1.363311 0.073120
v -0.640000 1.363311 0.073120
v 0.640000 1.426762 0.058637
v -0.640000 1.426762 0.058637
vn -1.0000 -0.0000 -0.0000
vn -0.6212 -0.7836 -0.0000
vn 0.6212 -0.7836 -0.0000
vn 1.0000 -0.0000 -0.0000
vn -0.6212 -0.4886 0.6127
vn 0.6212 -0.4886 0.6127
vn -0.6212 0.1744 0.7640
vn 0.6212 0.1744 0.7640
vn -0.6212 0.7060 0.3400
vn 0.6212 0.7060 0.3400
vn -0.6212 0.7060 -0.3400
vn 0.6212 0.7060 -0.3400
vn -0.6212 0.1744 -0.7640
vn 0.6212 0.1744 -0.7640
vn -0.6212 -0.4886 -0.6127
vn 0.6212 -0.4886 -0.6127
vt 0.071429 0.000000
vt 0.000000 0.000000
vt 0.142857 0.000000
vt 0.214286 0.000000
vt 0.285714 0.000000
vt 0.357143 0.000000
vt 0.428571 0.000000
vt 0.500000 0.000000
vt 0.571429 0.000000
vt 0.642857 0.000000
vt 0.714286 0.000000
vt 0.785714 0.000000
vt 0.857143 0.000000
vt 0.928571 0.000000
vt 1.000000 0.000000
vt 0.000000 1.000000
vt 0.142857 1.000000
vt 0.285714 1.000000
vt 0.428571 1.000000
vt 0.571429 1.000000
vt 0.714286 1.000000
vt 0.857143 1.000000
vt 1.000000 1.000000
vt 0.071429 1.000000
vt 0.214286 1.000000
vt 0.357143 1.000000
vt 0.500000 1.000000
vt 0.642857 1.000000
vt 0.785714 1.000000
vt 0.928571 1.000000
s 1
g A_TopRoll.001_dark_wood
usemtl dark_wood
f 261/309/261 262/310/262 265/311/265
f 261/312/261 265/311/265 267/313/267
f 261/314/261 267/313/267 269/315/269
f 261/316/261 269/315/269 271/317/271
f 261/318/261 271/317/271 273/319/273
f 261/320/261 273/319/273 275/321/275
f 261/322/261 275/321/275 262/323/262
f 262/310/262 263/324/263 266/325/266 265/311/265
f 265/311/265 266/325/266 268/326/268 267/313/267
f 267/313/267 268/326/268 270/327/270 269/315/269
f 269/315/269 270/327/270 272/328/272 271/317/271
f 271/317/271 272/328/272 274/329/274 273/319/273
f 273/319/273 274/329/274 276/330/276 275/321/275
f 275/321/275 276/330/276 263/331/263 262/323/262
f 263/324/263 264/332/264 266/325/266
f 266/325/266 264/333/264 268/326/268
f 268/326/268 264/334/264 270/327/270
f 270/327/270 264/335/264 272/328/272
f 272/328/272 264/336/264 274/329/274
f 274/329/274 264/337/264 276/330/276
f 276/330/276 264/338/264 263/331/263
g A_TopRoll.001_Mesh
v 0.640000 1.380000 0.000000
v 0.640000 1.455000 0.000000
v -0.640000 1.455000 0.000000
v -0.640000 1.380000 0.000000
v 0.640000 1.426762 -0.058637
v -0.640000 1.426762 -0.058637
v 0.640000 1.363311 -0.073120
v -0.640000 1.363311 -0.073120
v 0.640000 1.312427 -0.032541
v -0.640000 1.312427 -0.032541
v 0.640000 1.312427 0.032541
v -0.640000 1.312427 0.032541
v 0.640000 1.363311 0.073120
v -0.640000 1.363311 0.073120
v 0.640000 1.426762 0.058637
v -0.640000 1.426762 0.058637
vn -1.0000 -0.0000 -0.0000
vn -0.6212 -0.7836 -0.0000
vn 0.6212 -0.7836 -0.0000
vn 1.0000 -0.0000 -0.0000
vn -0.6212 -0.4886 0.6127
vn 0.6212 -0.4886 0.6127
vn -0.6212 0.1744 0.7640
vn 0.6212 0.1744 0.7640
vn -0.6212 0.7060 0.3400
vn 0.6212 0.7060 0.3400
vn -0.6212 0.7060 -0.3400
vn 0.6212 0.7060 -0.3400
vn -0.6212 0.1744 -0.7640
vn 0.6212 0.1744 -0.7640
vn -0.6212 -0.4886 -0.6127
vn 0.6212 -0.4886 -0.6127
vt 0.071429 0.000000
vt 0.000000 0.000000
vt 0.142857 0.000000
vt 0.214286 0.000000
vt 0.285714 0.000000
vt 0.357143 0.000000
vt 0.428571 0.000000
vt 0.500000 0.000000
vt 0.571429 0.000000
vt 0.642857 0.000000
vt 0.714286 0.000000
vt 0.785714 0.000000
vt 0.857143 0.000000
vt 0.928571 0.000000
vt 1.000000 0.000000
vt 0.000000 1.000000
vt 0.142857 1.000000
vt 0.285714 1.000000
vt 0.428571 1.000000
vt 0.571429 1.000000
vt 0.714286 1.000000
vt 0.857143 1.000000
vt 0.071429 1.000000
vt 0.214286 1.000000
vt 0.357143 1.000000
vt 0.500000 1.000000
vt 0.642857 1.000000
vt 0.785714 1.000000
vt 0.928571 1.000000
vt 1.000000 1.000000
s 1
g A_TopRoll.001_dark_wood
usemtl dark_wood
f 277/339/277 278/340/278 281/341/281
f 277/342/277 281/341/281 283/343/283
f 277/344/277 283/343/283 285/345/285
f 277/346/277 285/345/285 287/347/287
f 277/348/277 287/347/287 289/349/289
f 277/350/277 289/349/289 291/351/291
f 277/352/277 291/351/291 278/353/278
f 279/354/279 281/341/281 278/340/278
f 282/355/282 283/343/283 281/341/281
f 284/356/284 285/345/285 283/343/283
f 286/357/286 287/347/287 285/345/285
f 288/358/288 289/349/289 287/347/287
f 290/359/290 291/351/291 289/349/289
f 292/360/292 278/353/278 291/351/291
f 279/354/279 280/361/280 282/355/282
f 282/355/282 280/362/280 284/356/284
f 284/356/284 280/363/280 286/357/286
f 286/357/286 280/364/280 288/358/288
f 288/358/288 280/365/280 290/359/290
f 290/359/290 280/366/280 292/360/292
f 292/360/292 280/367/280 279/368/279
f 279/354/279 282/355/282 281/341/281
f 282/355/282 284/356/284 283/343/283
f 284/356/284 286/357/286 285/345/285
f 286/357/286 288/358/288 287/347/287
f 288/358/288 290/359/290 289/349/289
f 290/359/290 292/360/292 291/351/291
f 292/360/292 279/368/279 278/353/278
g A_WritSheet.001_A_WritSheetProfileData.001
v -0.000000 0.720000 -0.035000
v 0.351291 1.071291 -0.035000
v 0.366564 1.086564 -0.005000
v 0.366564 1.086564 0.005000
v 0.351291 1.071291 0.035000
v 0.000000 0.720000 0.035000
v -0.644033 1.364033 -0.035000
v -0.672035 1.392034 -0.005000
v -0.672035 1.392034 0.005000
v -0.644033 1.364033 0.035000
v -0.351291 0.368709 -0.035000
v -0.366564 0.353436 -0.005000
v -0.366564 0.353436 0.005000
v -0.351291 0.368709 0.035000
v 0.644033 0.075967 -0.035000
v 0.672035 0.047966 -0.005000
v 0.672035 0.047966 0.005000
v 0.644033 0.075967 0.035000
vn -0.0000 -0.0000 -1.0000
vn 0.4554 0.4554 -0.7650
vn 0.6854 0.6854 -0.2460
vn 0.6854 0.6854 0.2460
vn 0.4554 0.4554 0.7650
vn -0.0000 -0.0000 1.0000
vn -0.2951 0.2951 -0.9087
vn -0.6411 0.6411 -0.4218
vn -0.6411 0.6411 0.4218
vn -0.2951 0.2951 0.9087
vn -0.4554 -0.4554 -0.7650
vn -0.6854 -0.6854 -0.2460
vn -0.6854 -0.6854 0.2460
vn -0.4554 -0.4554 0.7650
vn 0.2951 -0.2951 -0.9087
vn 0.6411 -0.6411 -0.4218
vn 0.6411 -0.6411 0.4218
vn 0.2951 -0.2951 0.9087
vt 0.000000 0.000000
vt 0.125000 0.000000
vt 0.250000 0.000000
vt 0.375000 0.000000
vt 0.500000 0.000000
vt 0.625000 0.000000
vt 0.750000 0.000000
vt 0.875000 0.000000
vt 1.000000 0.000000
vt 0.000000 0.428571
vt 0.250000 0.428571
vt 0.500000 0.428571
vt 0.750000 0.428571
vt 1.000000 0.428571
vt 0.000000 0.571429
vt 0.250000 0.571429
vt 0.500000 0.571429
vt 0.750000 0.571429
vt 1.000000 0.571429
vt 0.000000 1.000000
vt 0.250000 1.000000
vt 0.500000 1.000000
vt 0.750000 1.000000
vt 1.000000 1.000000
vt 0.125000 1.000000
vt 0.375000 1.000000
vt 0.625000 1.000000
vt 0.875000 1.000000
s 1
g A_WritSheet.001_bone
usemtl bone
f 294/369/294 293/370/293 299/371/299
f 299/371/299 293/372/293 303/373/303
f 303/373/303 293/374/293 307/375/307
f 307/375/307 293/376/293 294/377/294
f 295/378/295 294/369/294 299/371/299 300/379/300
f 300/379/300 299/371/299 303/373/303 304/380/304
f 304/380/304 303/373/303 307/375/307 308/381/308
f 308/381/308 307/375/307 294/377/294 295/382/295
f 296/383/296 295/378/295 300/379/300 301/384/301
f 301/384/301 300/379/300 304/380/304 305/385/305
f 305/385/305 304/380/304 308/381/308 309/386/309
f 309/386/309 308/381/308 295/382/295 296/387/296
f 297/388/297 296/383/296 301/384/301 302/389/302
f 302/389/302 301/384/301 305/385/305 306/390/306
f 306/390/306 305/385/305 309/386/309 310/391/310
f 310/391/310 309/386/309 296/387/296 297/392/297
f 298/393/298 297/388/297 302/389/302
f 298/394/298 302/389/302 306/390/306
f 298/395/298 306/390/306 310/391/310
f 298/396/298 310/391/310 297/392/297
g A_WritSheet.001_Mesh
v -0.000000 0.720000 -0.035000
v 0.351291 1.071291 -0.035000
v 0.366564 1.086564 -0.005000
v 0.366564 1.086564 0.005000
v 0.351291 1.071291 0.035000
v 0.000000 0.720000 0.035000
v -0.644033 1.364033 -0.035000
v -0.672035 1.392034 -0.005000
v -0.672035 1.392034 0.005000
v -0.644033 1.364033 0.035000
v -0.351291 0.368709 -0.035000
v -0.366564 0.353436 -0.005000
v -0.366564 0.353436 0.005000
v -0.351291 0.368709 0.035000
v 0.644033 0.075967 -0.035000
v 0.672035 0.047966 -0.005000
v 0.672035 0.047966 0.005000
v 0.644033 0.075967 0.035000
vn -0.0000 -0.0000 -1.0000
vn 0.4554 0.4554 -0.7650
vn 0.6854 0.6854 -0.2460
vn 0.6854 0.6854 0.2460
vn 0.4554 0.4554 0.7650
vn -0.0000 -0.0000 1.0000
vn -0.2951 0.2951 -0.9087
vn -0.6411 0.6411 -0.4218
vn -0.6411 0.6411 0.4218
vn -0.2951 0.2951 0.9087
vn -0.4554 -0.4554 -0.7650
vn -0.6854 -0.6854 -0.2460
vn -0.6854 -0.6854 0.2460
vn -0.4554 -0.4554 0.7650
vn 0.2951 -0.2951 -0.9087
vn 0.6411 -0.6411 -0.4218
vn 0.6411 -0.6411 0.4218
vn 0.2951 -0.2951 0.9087
vt 0.000000 0.000000
vt 0.125000 0.000000
vt 0.250000 0.000000
vt 0.375000 0.000000
vt 0.500000 0.000000
vt 0.625000 0.000000
vt 0.750000 0.000000
vt 0.875000 0.000000
vt 1.000000 0.000000
vt 0.000000 0.428571
vt 0.250000 0.428571
vt 0.500000 0.428571
vt 0.750000 0.428571
vt 1.000000 0.428571
vt 0.250000 0.571429
vt 0.000000 0.571429
vt 0.500000 0.571429
vt 0.750000 0.571429
vt 1.000000 0.571429
vt 0.250000 1.000000
vt 0.000000 1.000000
vt 0.500000 1.000000
vt 0.750000 1.000000
vt 1.000000 1.000000
vt 0.125000 1.000000
vt 0.375000 1.000000
vt 0.625000 1.000000
vt 0.875000 1.000000
s 1
g A_WritSheet.001_bone
usemtl bone
f 312/397/312 311/398/311 317/399/317
f 317/399/317 311/400/311 321/401/321
f 321/401/321 311/402/311 325/403/325
f 325/403/325 311/404/311 312/405/312
f 313/406/313 317/399/317 318/407/318
f 317/399/317 322/408/322 318/407/318
f 321/401/321 326/409/326 322/408/322
f 325/403/325 313/410/313 326/409/326
f 313/406/313 319/411/319 314/412/314
f 318/407/318 323/413/323 319/411/319
f 322/408/322 327/414/327 323/413/323
f 326/409/326 314/415/314 327/414/327
f 314/412/314 320/416/320 315/417/315
f 320/416/320 323/413/323 324/418/324
f 323/413/323 328/419/328 324/418/324
f 327/414/327 315/420/315 328/419/328
f 316/421/316 315/417/315 320/416/320
f 316/422/316 320/416/320 324/418/324
f 316/423/316 324/418/324 328/419/328
f 316/424/316 328/419/328 315/420/315
f 313/406/313 312/397/312 317/399/317
f 317/399/317 321/401/321 322/408/322
f 321/401/321 325/403/325 326/409/326
f 325/403/325 312/405/312 313/410/313
f 313/406/313 318/407/318 319/411/319
f 318/407/318 322/408/322 323/413/323
f 322/408/322 326/409/326 327/414/327
f 326/409/326 313/410/313 314/415/314
f 314/412/314 319/411/319 320/416/320
f 320/416/320 319/411/319 323/413/323
f 323/413/323 327/414/327 328/419/328
f 327/414/327 314/415/314 315/420/315
