# Blender 5.1.2
# www.blender.org
mtllib curry.mtl
o bowl
v 0.000000 -0.310000 -0.720000
v 0.000000 0.070000 -0.720000
v 0.140465 -0.310000 -0.706165
v 0.140465 0.070000 -0.706165
v 0.275532 -0.310000 -0.665193
v 0.275532 0.070000 -0.665193
v 0.400011 -0.310000 -0.598658
v 0.400011 0.070000 -0.598658
v 0.509117 -0.310000 -0.509117
v 0.509117 0.070000 -0.509117
v 0.598658 -0.310000 -0.400011
v 0.598658 0.070000 -0.400011
v 0.665193 -0.310000 -0.275532
v 0.665193 0.070000 -0.275532
v 0.706165 -0.310000 -0.140465
v 0.706165 0.070000 -0.140465
v 0.720000 -0.310000 0.000000
v 0.720000 0.070000 0.000000
v 0.706165 -0.310000 0.140465
v 0.706165 0.070000 0.140465
v 0.665193 -0.310000 0.275532
v 0.665193 0.070000 0.275532
v 0.598658 -0.310000 0.400011
v 0.598658 0.070000 0.400011
v 0.509117 -0.310000 0.509117
v 0.509117 0.070000 0.509117
v 0.400011 -0.310000 0.598658
v 0.400011 0.070000 0.598658
v 0.275532 -0.310000 0.665193
v 0.275532 0.070000 0.665193
v 0.140465 -0.310000 0.706165
v 0.140465 0.070000 0.706165
v 0.000000 -0.310000 0.720000
v 0.000000 0.070000 0.720000
v -0.140465 -0.310000 0.706165
v -0.140465 0.070000 0.706165
v -0.275532 -0.310000 0.665193
v -0.275532 0.070000 0.665193
v -0.400011 -0.310000 0.598658
v -0.400011 0.070000 0.598658
v -0.509117 -0.310000 0.509117
v -0.509117 0.070000 0.509117
v -0.598658 -0.310000 0.400011
v -0.598658 0.070000 0.400011
v -0.665193 -0.310000 0.275532
v -0.665193 0.070000 0.275532
v -0.706165 -0.310000 0.140465
v -0.706165 0.070000 0.140465
v -0.720000 -0.310000 0.000000
v -0.720000 0.070000 0.000000
v -0.706165 -0.310000 -0.140465
v -0.706165 0.070000 -0.140465
v -0.665193 -0.310000 -0.275532
v -0.665193 0.070000 -0.275532
v -0.598658 -0.310000 -0.400011
v -0.598658 0.070000 -0.400011
v -0.509117 -0.310000 -0.509117
v -0.509117 0.070000 -0.509117
v -0.400011 -0.310000 -0.598658
v -0.400011 0.070000 -0.598658
v -0.275532 -0.310000 -0.665193
v -0.275532 0.070000 -0.665193
v -0.140465 -0.310000 -0.706165
v -0.140465 0.070000 -0.706165
vn 0.0980 -0.0000 -0.9952
vn 0.2903 -0.0000 -0.9569
vn 0.4714 -0.0000 -0.8819
vn 0.6344 -0.0000 -0.7730
vn 0.7730 -0.0000 -0.6344
vn 0.8819 -0.0000 -0.4714
vn 0.9569 -0.0000 -0.2903
vn 0.9952 -0.0000 -0.0980
vn 0.9952 -0.0000 0.0980
vn 0.9569 -0.0000 0.2903
vn 0.8819 -0.0000 0.4714
vn 0.7730 -0.0000 0.6344
vn 0.6344 -0.0000 0.7730
vn 0.4714 -0.0000 0.8819
vn 0.2903 -0.0000 0.9569
vn 0.0980 -0.0000 0.9952
vn -0.0980 -0.0000 0.9952
vn -0.2903 -0.0000 0.9569
vn -0.4714 -0.0000 0.8819
vn -0.6344 -0.0000 0.7730
vn -0.7730 -0.0000 0.6344
vn -0.8819 -0.0000 0.4714
vn -0.9569 -0.0000 0.2903
vn -0.9952 -0.0000 0.0980
vn -0.9952 -0.0000 -0.0980
vn -0.9569 -0.0000 -0.2903
vn -0.8819 -0.0000 -0.4714
vn -0.7730 -0.0000 -0.6344
vn -0.6344 -0.0000 -0.7730
vn -0.4714 -0.0000 -0.8819
vn -0.0000 1.0000 -0.0000
vn -0.2903 -0.0000 -0.9569
vn -0.0980 -0.0000 -0.9952
vn -0.0000 -1.0000 -0.0000
vt 1.000000 0.500000
vt 1.000000 1.000000
vt 0.968750 1.000000
vt 0.968750 0.500000
vt 0.937500 1.000000
vt 0.937500 0.500000
vt 0.906250 1.000000
vt 0.906250 0.500000
vt 0.875000 1.000000
vt 0.875000 0.500000
vt 0.843750 1.000000
vt 0.843750 0.500000
vt 0.812500 1.000000
vt 0.812500 0.500000
vt 0.781250 1.000000
vt 0.781250 0.500000
vt 0.750000 1.000000
vt 0.750000 0.500000
vt 0.718750 1.000000
vt 0.718750 0.500000
vt 0.687500 1.000000
vt 0.687500 0.500000
vt 0.656250 1.000000
vt 0.656250 0.500000
vt 0.625000 1.000000
vt 0.625000 0.500000
vt 0.593750 1.000000
vt 0.593750 0.500000
vt 0.562500 1.000000
vt 0.562500 0.500000
vt 0.531250 1.000000
vt 0.531250 0.500000
vt 0.500000 1.000000
vt 0.500000 0.500000
vt 0.468750 1.000000
vt 0.468750 0.500000
vt 0.437500 1.000000
vt 0.437500 0.500000
vt 0.406250 1.000000
vt 0.406250 0.500000
vt 0.375000 1.000000
vt 0.375000 0.500000
vt 0.343750 1.000000
vt 0.343750 0.500000
vt 0.312500 1.000000
vt 0.312500 0.500000
vt 0.281250 1.000000
vt 0.281250 0.500000
vt 0.250000 1.000000
vt 0.250000 0.500000
vt 0.218750 1.000000
vt 0.218750 0.500000
vt 0.187500 1.000000
vt 0.187500 0.500000
vt 0.156250 1.000000
vt 0.156250 0.500000
vt 0.125000 1.000000
vt 0.125000 0.500000
vt 0.093750 1.000000
vt 0.093750 0.500000
vt 0.062500 1.000000
vt 0.062500 0.500000
vt 0.296822 0.485388
vt 0.250000 0.490000
vt 0.203178 0.485388
vt 0.158156 0.471731
vt 0.116663 0.449553
vt 0.080294 0.419706
vt 0.050447 0.383337
vt 0.028269 0.341844
vt 0.014612 0.296822
vt 0.010000 0.250000
vt 0.014612 0.203178
vt 0.028269 0.158156
vt 0.050447 0.116663
vt 0.080294 0.080294
vt 0.116663 0.050447
vt 0.158156 0.028269
vt 0.203178 0.014612
vt 0.250000 0.010000
vt 0.296822 0.014612
vt 0.341844 0.028269
vt 0.383337 0.050447
vt 0.419706 0.080294
vt 0.449553 0.116663
vt 0.471731 0.158156
vt 0.485388 0.203178
vt 0.490000 0.250000
vt 0.485388 0.296822
vt 0.471731 0.341844
vt 0.449553 0.383337
vt 0.419706 0.419706
vt 0.383337 0.449553
vt 0.341844 0.471731
vt 0.031250 1.000000
vt 0.031250 0.500000
vt 0.000000 1.000000
vt 0.000000 0.500000
vt 0.750000 0.490000
vt 0.796822 0.485388
vt 0.841844 0.471731
vt 0.883337 0.449553
vt 0.919706 0.419706
vt 0.949553 0.383337
vt 0.971731 0.341844
vt 0.985388 0.296822
vt 0.990000 0.250000
vt 0.985388 0.203178
vt 0.971731 0.158156
vt 0.949553 0.116663
vt 0.919706 0.080294
vt 0.883337 0.050447
vt 0.841844 0.028269
vt 0.796822 0.014612
vt 0.750000 0.010000
vt 0.703178 0.014612
vt 0.658156 0.028269
vt 0.616663 0.050447
vt 0.580294 0.080294
vt 0.550447 0.116663
vt 0.528269 0.158156
vt 0.514612 0.203178
vt 0.510000 0.250000
vt 0.514612 0.296822
vt 0.528269 0.341844
vt 0.550447 0.383337
vt 0.580294 0.419706
vt 0.616663 0.449553
vt 0.658156 0.471731
vt 0.703178 0.485388
s 0
usemtl ceramic
f 1/1/1 2/2/1 4/3/1 3/4/1
f 3/4/2 4/3/2 6/5/2 5/6/2
f 5/6/3 6/5/3 8/7/3 7/8/3
f 7/8/4 8/7/4 10/9/4 9/10/4
f 9/10/5 10/9/5 12/11/5 11/12/5
f 11/12/6 12/11/6 14/13/6 13/14/6
f 13/14/7 14/13/7 16/15/7 15/16/7
f 15/16/8 16/15/8 18/17/8 17/18/8
f 17/18/9 18/17/9 20/19/9 19/20/9
f 19/20/10 20/19/10 22/21/10 21/22/10
f 21/22/11 22/21/11 24/23/11 23/24/11
f 23/24/12 24/23/12 26/25/12 25/26/12
f 25/26/13 26/25/13 28/27/13 27/28/13
f 27/28/14 28/27/14 30/29/14 29/30/14
f 29/30/15 30/29/15 32/31/15 31/32/15
f 31/32/16 32/31/16 34/33/16 33/34/16
f 33/34/17 34/33/17 36/35/17 35/36/17
f 35/36/18 36/35/18 38/37/18 37/38/18
f 37/38/19 38/37/19 40/39/19 39/40/19
f 39/40/20 40/39/20 42/41/20 41/42/20
f 41/42/21 42/41/21 44/43/21 43/44/21
f 43/44/22 44/43/22 46/45/22 45/46/22
f 45/46/23 46/45/23 48/47/23 47/48/23
f 47/48/24 48/47/24 50/49/24 49/50/24
f 49/50/25 50/49/25 52/51/25 51/52/25
f 51/52/26 52/51/26 54/53/26 53/54/26
f 53/54/27 54/53/27 56/55/27 55/56/27
f 55/56/28 56/55/28 58/57/28 57/58/28
f 57/58/29 58/57/29 60/59/29 59/60/29
f 59/60/30 60/59/30 62/61/30 61/62/30
f 4/63/31 2/64/31 64/65/31 62/66/31 60/67/31 58/68/31 56/69/31 54/70/31 52/71/31 50/72/31 48/73/31 46/74/31 44/75/31 42/76/31 40/77/31 38/78/31 36/79/31 34/80/31 32/81/31 30/82/31 28/83/31 26/84/31 24/85/31 22/86/31 20/87/31 18/88/31 16/89/31 14/90/31 12/91/31 10/92/31 8/93/31 6/94/31
f 61/62/32 62/61/32 64/95/32 63/96/32
f 63/96/33 64/95/33 2/97/33 1/98/33
f 1/99/34 3/100/34 5/101/34 7/102/34 9/103/34 11/104/34 13/105/34 15/106/34 17/107/34 19/108/34 21/109/34 23/110/34 25/111/34 27/112/34 29/113/34 31/114/34 33/115/34 35/116/34 37/117/34 39/118/34 41/119/34 43/120/34 45/121/34 47/122/34 49/123/34 51/124/34 53/125/34 55/126/34 57/127/34 59/128/34 61/129/34 63/130/34
o rim
v 0.720000 0.080000 0.000000
v 0.696569 0.136569 0.000000
v 0.640000 0.160000 0.000000
v 0.583431 0.136569 0.000000
v 0.560000 0.080000 0.000000
v 0.583431 0.023431 0.000000
v 0.640000 0.000000 0.000000
v 0.696569 0.023431 0.000000
v 0.706165 0.080000 -0.140465
v 0.683184 0.136569 -0.135894
v 0.627703 0.160000 -0.124858
v 0.572221 0.136569 -0.113822
v 0.549240 0.080000 -0.109251
v 0.572221 0.023431 -0.113822
v 0.627703 0.000000 -0.124858
v 0.683184 0.023431 -0.135894
v 0.665193 0.080000 -0.275532
v 0.643545 0.136569 -0.266565
v 0.591283 0.160000 -0.244917
v 0.539020 0.136569 -0.223270
v 0.517373 0.080000 -0.214303
v 0.539020 0.023431 -0.223270
v 0.591283 0.000000 -0.244917
v 0.643545 0.023431 -0.266565
v 0.598658 0.080000 -0.400011
v 0.579176 0.136569 -0.386993
v 0.532141 0.160000 -0.355565
v 0.485105 0.136569 -0.324137
v 0.465623 0.080000 -0.311119
v 0.485105 0.023431 -0.324137
v 0.532141 0.000000 -0.355565
v 0.579176 0.023431 -0.386993
v 0.509117 0.080000 -0.509117
v 0.492548 0.136569 -0.492548
v 0.452548 0.160000 -0.452548
v 0.412548 0.136569 -0.412548
v 0.395980 0.080000 -0.395980
v 0.412548 0.023431 -0.412548
v 0.452548 0.000000 -0.452548
v 0.492548 0.023431 -0.492548
v 0.400010 0.080000 -0.598658
v 0.386993 0.136569 -0.579176
v 0.355565 0.160000 -0.532141
v 0.324137 0.136569 -0.485106
v 0.311119 0.080000 -0.465623
v 0.324137 0.023431 -0.485106
v 0.355565 0.000000 -0.532141
v 0.386993 0.023431 -0.579176
v 0.275532 0.080000 -0.665193
v 0.266565 0.136569 -0.643545
v 0.244918 0.160000 -0.591283
v 0.223270 0.136569 -0.539020
v 0.214303 0.080000 -0.517372
v 0.223270 0.023431 -0.539020
v 0.244918 0.000000 -0.591283
v 0.266565 0.023431 -0.643545
v 0.140465 0.080000 -0.706165
v 0.135894 0.136569 -0.683184
v 0.124858 0.160000 -0.627703
v 0.113822 0.136569 -0.572221
v 0.109251 0.080000 -0.549240
v 0.113822 0.023431 -0.572221
v 0.124858 0.000000 -0.627703
v 0.135894 0.023431 -0.683184
v 0.000000 0.080000 -0.720000
v 0.000000 0.136569 -0.696569
v 0.000000 0.160000 -0.640000
v 0.000000 0.136569 -0.583431
v 0.000000 0.080000 -0.560000
v 0.000000 0.023431 -0.583431
v 0.000000 0.000000 -0.640000
v 0.000000 0.023431 -0.696569
v -0.140465 0.080000 -0.706165
v -0.135894 0.136569 -0.683184
v -0.124858 0.160000 -0.627703
v -0.113822 0.136569 -0.572221
v -0.109251 0.080000 -0.549240
v -0.113822 0.023431 -0.572221
v -0.124858 0.000000 -0.627703
v -0.135894 0.023431 -0.683184
v -0.275532 0.080000 -0.665193
v -0.266565 0.136569 -0.643545
v -0.244917 0.160000 -0.591283
v -0.223270 0.136569 -0.539020
v -0.214303 0.080000 -0.517373
v -0.223270 0.023431 -0.539020
v -0.244917 0.000000 -0.591283
v -0.266565 0.023431 -0.643545
v -0.400010 0.080000 -0.598658
v -0.386993 0.136569 -0.579176
v -0.355565 0.160000 -0.532141
v -0.324137 0.136569 -0.485106
v -0.311119 0.080000 -0.465623
v -0.324137 0.023431 -0.485106
v -0.355565 0.000000 -0.532141
v -0.386993 0.023431 -0.579176
v -0.509117 0.080000 -0.509117
v -0.492548 0.136569 -0.492548
v -0.452548 0.160000 -0.452548
v -0.412548 0.136569 -0.412548
v -0.395980 0.080000 -0.395980
v -0.412548 0.023431 -0.412548
v -0.452548 0.000000 -0.452548
v -0.492548 0.023431 -0.492548
v -0.598658 0.080000 -0.400011
v -0.579176 0.136569 -0.386993
v -0.532140 0.160000 -0.355565
v -0.485105 0.136569 -0.324137
v -0.465623 0.080000 -0.311119
v -0.485105 0.023431 -0.324137
v -0.532140 0.000000 -0.355565
v -0.579176 0.023431 -0.386993
v -0.665193 0.080000 -0.275532
v -0.643545 0.136569 -0.266565
v -0.591283 0.160000 -0.244917
v -0.539020 0.136569 -0.223270
v -0.517373 0.080000 -0.214303
v -0.539020 0.023431 -0.223270
v -0.591283 0.000000 -0.244917
v -0.643545 0.023431 -0.266565
v -0.706165 0.080000 -0.140465
v -0.683184 0.136569 -0.135894
v -0.627703 0.160000 -0.124858
v -0.572221 0.136569 -0.113822
v -0.549240 0.080000 -0.109251
v -0.572221 0.023431 -0.113822
v -0.627703 0.000000 -0.124858
v -0.683184 0.023431 -0.135894
v -0.720000 0.080000 -0.000000
v -0.696569 0.136569 -0.000000
v -0.640000 0.160000 -0.000000
v -0.583431 0.136569 -0.000000
v -0.560000 0.080000 -0.000000
v -0.583431 0.023431 -0.000000
v -0.640000 0.000000 -0.000000
v -0.696569 0.023431 -0.000000
v -0.706165 0.080000 0.140465
v -0.683184 0.136569 0.135894
v -0.627703 0.160000 0.124858
v -0.572221 0.136569 0.113822
v -0.549240 0.080000 0.109251
v -0.572221 0.023431 0.113822
v -0.627703 0.000000 0.124858
v -0.683184 0.023431 0.135894
v -0.665193 0.080000 0.275532
v -0.643546 0.136569 0.266565
v -0.591283 0.160000 0.244917
v -0.539020 0.136569 0.223269
v -0.517373 0.080000 0.214303
v -0.539020 0.023431 0.223269
v -0.591283 0.000000 0.244917
v -0.643546 0.023431 0.266565
v -0.598658 0.080000 0.400011
v -0.579176 0.136569 0.386993
v -0.532140 0.160000 0.355565
v -0.485105 0.136569 0.324137
v -0.465623 0.080000 0.311119
v -0.485105 0.023431 0.324137
v -0.532140 0.000000 0.355565
v -0.579176 0.023431 0.386993
v -0.509117 0.080000 0.509117
v -0.492548 0.136569 0.492548
v -0.452548 0.160000 0.452548
v -0.412548 0.136569 0.412548
v -0.395980 0.080000 0.395980
v -0.412548 0.023431 0.412548
v -0.452548 0.000000 0.452548
v -0.492548 0.023431 0.492548
v -0.400011 0.080000 0.598658
v -0.386993 0.136569 0.579175
v -0.355565 0.160000 0.532140
v -0.324137 0.136569 0.485105
v -0.311120 0.080000 0.465623
v -0.324137 0.023431 0.485105
v -0.355565 0.000000 0.532140
v -0.386993 0.023431 0.579175
v -0.275532 0.080000 0.665193
v -0.266565 0.136569 0.643545
v -0.244917 0.160000 0.591283
v -0.223270 0.136569 0.539020
v -0.214303 0.080000 0.517373
v -0.223270 0.023431 0.539020
v -0.244917 0.000000 0.591283
v -0.266565 0.023431 0.643545
v -0.140465 0.080000 0.706165
v -0.135894 0.136569 0.683184
v -0.124858 0.160000 0.627703
v -0.113822 0.136569 0.572221
v -0.109251 0.080000 0.549240
v -0.113822 0.023431 0.572221
v -0.124858 0.000000 0.627703
v -0.135894 0.023431 0.683184
v 0.000000 0.080000 0.720000
v 0.000000 0.136569 0.696569
v 0.000000 0.160000 0.640000
v 0.000000 0.136569 0.583431
v 0.000000 0.080000 0.560000
v 0.000000 0.023431 0.583431
v 0.000000 0.000000 0.640000
v 0.000000 0.023431 0.696569
v 0.140465 0.080000 0.706165
v 0.135894 0.136569 0.683184
v 0.124858 0.160000 0.627703
v 0.113822 0.136569 0.572221
v 0.109250 0.080000 0.549240
v 0.113822 0.023431 0.572221
v 0.124858 0.000000 0.627703
v 0.135894 0.023431 0.683184
v 0.275532 0.080000 0.665193
v 0.266565 0.136569 0.643545
v 0.244918 0.160000 0.591283
v 0.223270 0.136569 0.539020
v 0.214303 0.080000 0.517372
v 0.223270 0.023431 0.539020
v 0.244918 0.000000 0.591283
v 0.266565 0.023431 0.643545
v 0.400010 0.080000 0.598658
v 0.386993 0.136569 0.579176
v 0.355565 0.160000 0.532141
v 0.324137 0.136569 0.485106
v 0.311119 0.080000 0.465623
v 0.324137 0.023431 0.485106
v 0.355565 0.000000 0.532141
v 0.386993 0.023431 0.579176
v 0.509117 0.080000 0.509117
v 0.492548 0.136569 0.492549
v 0.452548 0.160000 0.452549
v 0.412548 0.136569 0.412549
v 0.395980 0.080000 0.395980
v 0.412548 0.023431 0.412549
v 0.452548 0.000000 0.452549
v 0.492548 0.023431 0.492549
v 0.598658 0.080000 0.400011
v 0.579176 0.136569 0.386993
v 0.532141 0.160000 0.355565
v 0.485105 0.136569 0.324137
v 0.465623 0.080000 0.311119
v 0.485105 0.023431 0.324137
v 0.532141 0.000000 0.355565
v 0.579176 0.023431 0.386993
v 0.665193 0.080000 0.275532
v 0.643545 0.136569 0.266566
v 0.591283 0.160000 0.244918
v 0.539020 0.136569 0.223270
v 0.517372 0.080000 0.214303
v 0.539020 0.023431 0.223270
v 0.591283 0.000000 0.244918
v 0.643545 0.023431 0.266566
v 0.706165 0.080000 0.140465
v 0.683184 0.136569 0.135894
v 0.627703 0.160000 0.124858
v 0.572221 0.136569 0.113822
v 0.549240 0.080000 0.109250
v 0.572221 0.023431 0.113822
v 0.627703 0.000000 0.124858
v 0.683184 0.023431 0.135894
vn 0.9201 0.3811 -0.0906
vn 0.3824 0.9232 -0.0377
vn -0.3824 0.9232 0.0377
vn -0.9201 0.3811 0.0906
vn -0.9201 -0.3811 0.0906
vn -0.3824 -0.9232 0.0377
vn 0.3824 -0.9232 -0.0377
vn 0.9201 -0.3811 -0.0906
vn 0.8847 0.3811 -0.2684
vn 0.3677 0.9232 -0.1115
vn -0.3677 0.9232 0.1115
vn -0.8847 0.3811 0.2684
vn -0.8847 -0.3811 0.2684
vn -0.3677 -0.9232 0.1115
vn 0.3677 -0.9232 -0.1115
vn 0.8847 -0.3811 -0.2684
vn 0.8154 0.3811 -0.4358
vn 0.3389 0.9232 -0.1811
vn -0.3389 0.9232 0.1811
vn -0.8154 0.3811 0.4358
vn -0.8154 -0.3811 0.4358
vn -0.3389 -0.9232 0.1811
vn 0.3389 -0.9232 -0.1811
vn 0.8154 -0.3811 -0.4358
vn 0.7147 0.3811 -0.5865
vn 0.2970 0.9232 -0.2438
vn -0.2970 0.9232 0.2438
vn -0.7147 0.3811 0.5865
vn -0.7147 -0.3811 0.5865
vn -0.2970 -0.9232 0.2438
vn 0.2970 -0.9232 -0.2438
vn 0.7147 -0.3811 -0.5865
vn 0.5865 0.3811 -0.7147
vn 0.2438 0.9232 -0.2970
vn -0.2438 0.9232 0.2970
vn -0.5865 0.3811 0.7147
vn -0.5865 -0.3811 0.7147
vn -0.2438 -0.9232 0.2970
vn 0.2438 -0.9232 -0.2970
vn 0.5865 -0.3811 -0.7147
vn 0.4358 0.3811 -0.8154
vn 0.1811 0.9232 -0.3389
vn -0.1811 0.9232 0.3389
vn -0.4358 0.3811 0.8154
vn -0.4358 -0.3811 0.8154
vn -0.1811 -0.9232 0.3389
vn 0.1811 -0.9232 -0.3389
vn 0.4358 -0.3811 -0.8154
vn 0.2684 0.3811 -0.8847
vn 0.1115 0.9232 -0.3677
vn -0.1115 0.9232 0.3677
vn -0.2684 0.3811 0.8847
vn -0.2684 -0.3811 0.8847
vn -0.1115 -0.9232 0.3677
vn 0.1115 -0.9232 -0.3677
vn 0.2684 -0.3811 -0.8847
vn 0.0906 0.3811 -0.9201
vn 0.0377 0.9232 -0.3824
vn -0.0377 0.9232 0.3824
vn -0.0906 0.3811 0.9201
vn -0.0906 -0.3811 0.9201
vn -0.0377 -0.9232 0.3824
vn 0.0377 -0.9232 -0.3824
vn 0.0906 -0.3811 -0.9201
vn -0.0906 0.3811 -0.9201
vn -0.0377 0.9232 -0.3824
vn 0.0377 0.9232 0.3824
vn 0.0906 0.3811 0.9201
vn 0.0906 -0.3811 0.9201
vn 0.0377 -0.9232 0.3824
vn -0.0377 -0.9232 -0.3824
vn -0.0906 -0.3811 -0.9201
vn -0.2684 0.3811 -0.8847
vn -0.1115 0.9232 -0.3677
vn 0.1115 0.9232 0.3677
vn 0.2684 0.3811 0.8847
vn 0.2684 -0.3811 0.8847
vn 0.1115 -0.9232 0.3677
vn -0.1115 -0.9232 -0.3677
vn -0.2684 -0.3811 -0.8847
vn -0.4358 0.3811 -0.8154
vn -0.1811 0.9232 -0.3389
vn 0.1811 0.9232 0.3389
vn 0.4358 0.3811 0.8154
vn 0.4358 -0.3811 0.8154
vn 0.1811 -0.9232 0.3389
vn -0.1811 -0.9232 -0.3389
vn -0.4358 -0.3811 -0.8154
vn -0.5865 0.3811 -0.7147
vn -0.2438 0.9232 -0.2970
vn 0.2438 0.9232 0.2970
vn 0.5865 0.3811 0.7147
vn 0.5865 -0.3811 0.7147
vn 0.2438 -0.9232 0.2970
vn -0.2438 -0.9232 -0.2970
vn -0.5865 -0.3811 -0.7147
vn -0.7147 0.3811 -0.5865
vn -0.2970 0.9232 -0.2438
vn 0.2970 0.9232 0.2438
vn 0.7147 0.3811 0.5865
vn 0.7147 -0.3811 0.5865
vn 0.2970 -0.9232 0.2438
vn -0.2970 -0.9232 -0.2438
vn -0.7147 -0.3811 -0.5865
vn -0.8154 0.3811 -0.4358
vn -0.3389 0.9232 -0.1811
vn 0.3389 0.9232 0.1811
vn 0.8154 0.3811 0.4358
vn 0.8154 -0.3811 0.4358
vn 0.3389 -0.9232 0.1811
vn -0.3389 -0.9232 -0.1811
vn -0.8154 -0.3811 -0.4358
vn -0.8847 0.3811 -0.2684
vn -0.3677 0.9232 -0.1115
vn 0.3677 0.9232 0.1115
vn 0.8847 0.3811 0.2684
vn 0.8847 -0.3811 0.2684
vn 0.3677 -0.9232 0.1115
vn -0.3677 -0.9232 -0.1115
vn -0.8847 -0.3811 -0.2684
vn -0.9201 0.3811 -0.0906
vn -0.3824 0.9232 -0.0377
vn 0.3824 0.9232 0.0377
vn 0.9201 0.3811 0.0906
vn 0.9201 -0.3811 0.0906
vn 0.3824 -0.9232 0.0377
vn -0.3824 -0.9232 -0.0377
vn -0.9201 -0.3811 -0.0906
vt 0.500000 0.500000
vt 0.531250 0.500000
vt 0.531250 0.625000
vt 0.500000 0.625000
vt 0.531250 0.750000
vt 0.500000 0.750000
vt 0.531250 0.875000
vt 0.500000 0.875000
vt 0.531250 1.000000
vt 0.500000 1.000000
vt 0.500000 0.000000
vt 0.531250 0.000000
vt 0.531250 0.125000
vt 0.500000 0.125000
vt 0.531250 0.250000
vt 0.500000 0.250000
vt 0.531250 0.375000
vt 0.500000 0.375000
vt 0.562500 0.500000
vt 0.562500 0.625000
vt 0.562500 0.750000
vt 0.562500 0.875000
vt 0.562500 1.000000
vt 0.562500 0.000000
vt 0.562500 0.125000
vt 0.562500 0.250000
vt 0.562500 0.375000
vt 0.593750 0.500000
vt 0.593750 0.625000
vt 0.593750 0.750000
vt 0.593750 0.875000
vt 0.593750 1.000000
vt 0.593750 0.000000
vt 0.593750 0.125000
vt 0.593750 0.250000
vt 0.593750 0.375000
vt 0.625000 0.500000
vt 0.625000 0.625000
vt 0.625000 0.750000
vt 0.625000 0.875000
vt 0.625000 1.000000
vt 0.625000 0.000000
vt 0.625000 0.125000
vt 0.625000 0.250000
vt 0.625000 0.375000
vt 0.656250 0.500000
vt 0.656250 0.625000
vt 0.656250 0.750000
vt 0.656250 0.875000
vt 0.656250 1.000000
vt 0.656250 0.000000
vt 0.656250 0.125000
vt 0.656250 0.250000
vt 0.656250 0.375000
vt 0.687500 0.500000
vt 0.687500 0.625000
vt 0.687500 0.750000
vt 0.687500 0.875000
vt 0.687500 1.000000
vt 0.687500 0.000000
vt 0.687500 0.125000
vt 0.687500 0.250000
vt 0.687500 0.375000
vt 0.718750 0.500000
vt 0.718750 0.625000
vt 0.718750 0.750000
vt 0.718750 0.875000
vt 0.718750 1.000000
vt 0.718750 0.000000
vt 0.718750 0.125000
vt 0.718750 0.250000
vt 0.718750 0.375000
vt 0.750000 0.500000
vt 0.750000 0.625000
vt 0.750000 0.750000
vt 0.750000 0.875000
vt 0.750000 1.000000
vt 0.750000 0.000000
vt 0.750000 0.125000
vt 0.750000…41217 tokens truncated…1
v 0.543941 -0.026876 0.257500
v 0.322287 0.398882 0.257500
v 0.539782 -0.029041 0.240000
v 0.318128 0.396716 0.240000
v 0.543941 -0.026876 0.222500
v 0.322287 0.398882 0.222500
v 0.555305 -0.020960 0.209689
v 0.333651 0.404798 0.209689
vn 0.2296 0.1195 -0.9659
vn 0.6272 0.3265 -0.7071
vn 0.8568 0.4460 -0.2588
vn 0.8568 0.4460 0.2588
vn 0.6272 0.3265 0.7071
vn 0.2296 0.1195 0.9659
vn -0.2296 -0.1195 0.9659
vn -0.6272 -0.3265 0.7071
vn -0.8568 -0.4460 0.2588
vn -0.8568 -0.4460 -0.2588
vn -0.4618 0.8870 -0.0000
vn -0.6272 -0.3265 -0.7071
vn -0.2296 -0.1195 -0.9659
vn 0.4618 -0.8870 -0.0000
vt 1.000000 0.500000
vt 1.000000 1.000000
vt 0.916667 1.000000
vt 0.916667 0.500000
vt 0.833333 1.000000
vt 0.833333 0.500000
vt 0.750000 1.000000
vt 0.750000 0.500000
vt 0.666667 1.000000
vt 0.666667 0.500000
vt 0.583333 1.000000
vt 0.583333 0.500000
vt 0.500000 1.000000
vt 0.500000 0.500000
vt 0.416667 1.000000
vt 0.416667 0.500000
vt 0.333333 1.000000
vt 0.333333 0.500000
vt 0.250000 1.000000
vt 0.250000 0.500000
vt 0.166667 1.000000
vt 0.166667 0.500000
vt 0.370000 0.457846
vt 0.250000 0.490000
vt 0.130000 0.457846
vt 0.042154 0.370000
vt 0.010000 0.250000
vt 0.042154 0.130000
vt 0.130000 0.042154
vt 0.250000 0.010000
vt 0.370000 0.042154
vt 0.457846 0.130000
vt 0.490000 0.250000
vt 0.457846 0.370000
vt 0.083333 1.000000
vt 0.083333 0.500000
vt 0.000000 1.000000
vt 0.000000 0.500000
vt 0.750000 0.490000
vt 0.870000 0.457846
vt 0.957846 0.370000
vt 0.990000 0.250000
vt 0.957846 0.130000
vt 0.870000 0.042154
vt 0.750000 0.010000
vt 0.630000 0.042154
vt 0.542154 0.130000
vt 0.510000 0.250000
vt 0.542154 0.370000
vt 0.630000 0.457846
s 0
usemtl spoon
f 1369/1794/1277 1370/1795/1277 1372/1796/1277 1371/1797/1277
f 1371/1797/1278 1372/1796/1278 1374/1798/1278 1373/1799/1278
f 1373/1799/1279 1374/1798/1279 1376/1800/1279 1375/1801/1279
f 1375/1801/1280 1376/1800/1280 1378/1802/1280 1377/1803/1280
f 1377/1803/1281 1378/1802/1281 1380/1804/1281 1379/1805/1281
f 1379/1805/1282 1380/1804/1282 1382/1806/1282 1381/1807/1282
f 1381/1807/1283 1382/1806/1283 1384/1808/1283 1383/1809/1283
f 1383/1809/1284 1384/1808/1284 1386/1810/1284 1385/1811/1284
f 1385/1811/1285 1386/1810/1285 1388/1812/1285 1387/1813/1285
f 1387/1813/1286 1388/1812/1286 1390/1814/1286 1389/1815/1286
f 1372/1816/1287 1370/1817/1287 1392/1818/1287 1390/1819/1287 1388/1820/1287 1386/1821/1287 1384/1822/1287 1382/1823/1287 1380/1824/1287 1378/1825/1287 1376/1826/1287 1374/1827/1287
f 1389/1815/1288 1390/1814/1288 1392/1828/1288 1391/1829/1288
f 1391/1829/1289 1392/1828/1289 1370/1830/1289 1369/1831/1289
f 1369/1832/1290 1371/1833/1290 1373/1834/1290 1375/1835/1290 1377/1836/1290 1379/1837/1290 1381/1838/1290 1383/1839/1290 1385/1840/1290 1387/1841/1290 1389/1842/1290 1391/1843/1290
o spoon_bowl
v 0.580000 0.215000 0.350000
v 0.580000 0.193394 0.257612
v 0.580000 0.180000 0.250000
v 0.580000 0.166606 0.257612
v 0.580000 0.147664 0.311732
v 0.580000 0.145000 0.350000
v 0.599038 0.212336 0.314645
v 0.615178 0.204749 0.284672
v 0.625962 0.193394 0.264645
v 0.629749 0.180000 0.257612
v 0.625962 0.166606 0.264645
v 0.615178 0.155251 0.284672
v 0.599038 0.147664 0.314645
v 0.615178 0.212336 0.322940
v 0.645000 0.204749 0.300000
v 0.664927 0.193394 0.284672
v 0.671924 0.180000 0.279289
v 0.664927 0.166606 0.284672
v 0.645000 0.155251 0.300000
v 0.615178 0.147664 0.322940
v 0.625962 0.212336 0.335355
v 0.664927 0.204749 0.322940
v 0.690962 0.193394 0.314645
v 0.700104 0.180000 0.311732
v 0.690962 0.166606 0.314645
v 0.664927 0.155251 0.322940
v 0.625962 0.147664 0.335355
v 0.629749 0.212336 0.350000
v 0.671924 0.204749 0.350000
v 0.700104 0.193394 0.350000
v 0.710000 0.180000 0.350000
v 0.700104 0.166606 0.350000
v 0.671924 0.155251 0.350000
v 0.629749 0.147664 0.350000
v 0.625962 0.212336 0.364645
v 0.664927 0.204749 0.377060
v 0.690962 0.193394 0.385355
v 0.700104 0.180000 0.388268
v 0.690962 0.166606 0.385355
v 0.664927 0.155251 0.377060
v 0.625962 0.147664 0.364645
v 0.615178 0.212336 0.377060
v 0.645000 0.204749 0.400000
v 0.664927 0.193394 0.415328
v 0.671924 0.180000 0.420711
v 0.664927 0.166606 0.415328
v 0.645000 0.155251 0.400000
v 0.615178 0.147664 0.377060
v 0.599038 0.212336 0.385355
v 0.615178 0.204749 0.415328
v 0.625962 0.193394 0.435355
v 0.629749 0.180000 0.442388
v 0.625962 0.166606 0.435355
v 0.615178 0.155251 0.415328
v 0.599038 0.147664 0.385355
v 0.580000 0.212336 0.388268
v 0.580000 0.204749 0.420711
v 0.580000 0.193394 0.442388
v 0.580000 0.180000 0.450000
v 0.580000 0.166606 0.442388
v 0.580000 0.155251 0.420711
v 0.580000 0.147664 0.388268
v 0.560962 0.212336 0.385355
v 0.544822 0.204749 0.415328
v 0.534038 0.193394 0.435355
v 0.530251 0.180000 0.442388
v 0.534038 0.166606 0.435355
v 0.544822 0.155251 0.415328
v 0.560962 0.147664 0.385355
v 0.544822 0.212336 0.377060
v 0.515000 0.204749 0.400000
v 0.495073 0.193394 0.415328
v 0.488076 0.180000 0.420711
v 0.495073 0.166606 0.415328
v 0.515000 0.155251 0.400000
v 0.544822 0.147664 0.377060
v 0.534038 0.212336 0.364645
v 0.495073 0.204749 0.377060
v 0.469038 0.193394 0.385355
v 0.459896 0.180000 0.388268
v 0.469038 0.166606 0.385355
v 0.495073 0.155251 0.377060
v 0.534038 0.147664 0.364645
v 0.530251 0.212336 0.350000
v 0.488076 0.204749 0.350000
v 0.459896 0.193394 0.350000
v 0.450000 0.180000 0.350000
v 0.459896 0.166606 0.350000
v 0.488076 0.155251 0.350000
v 0.530251 0.147664 0.350000
v 0.534038 0.212336 0.335355
v 0.495073 0.204749 0.322940
v 0.469038 0.193394 0.314645
v 0.459896 0.180000 0.311732
v 0.469038 0.166606 0.314645
v 0.495073 0.155251 0.322940
v 0.534038 0.147664 0.335355
v 0.544822 0.212336 0.322940
v 0.515000 0.204749 0.300000
v 0.495073 0.193394 0.284672
v 0.488076 0.180000 0.279289
v 0.495073 0.166606 0.284672
v 0.515000 0.155251 0.300000
v 0.544822 0.147664 0.322940
v 0.560962 0.212336 0.314645
v 0.544822 0.204749 0.284672
v 0.534038 0.193394 0.264645
v 0.530251 0.180000 0.257612
v 0.534038 0.166606 0.264645
v 0.544822 0.155251 0.284672
v 0.560962 0.147664 0.314645
v 0.580000 0.212336 0.311732
v 0.580000 0.204749 0.279289
v 0.580000 0.155251 0.279289
vn 0.0708 0.8836 -0.4628
vn 0.0106 0.9975 -0.0694
vn 0.0106 -0.9975 -0.0694
vn 0.0708 -0.8836 -0.4628
vn 0.1319 0.4898 -0.8618
vn 0.0348 0.9731 -0.2276
vn 0.0348 -0.9731 -0.2276
vn 0.1319 -0.4898 -0.8618
vn 0.2042 -0.8947 -0.3973
vn 0.3926 0.5121 -0.7639
vn 0.0995 0.9760 -0.1935
vn 0.0995 -0.9760 -0.1935
vn 0.3926 -0.5121 -0.7639
vn 0.2042 0.8947 -0.3973
vn 0.0303 0.9978 -0.0589
vn 0.0303 -0.9978 -0.0589
vn 0.1495 -0.9802 -0.1298
vn 0.6307 -0.5496 -0.5478
vn 0.3112 0.9111 -0.2703
vn 0.0453 0.9982 -0.0394
vn 0.0453 -0.9982 -0.0394
vn 0.3112 -0.9111 -0.2703
vn 0.6307 0.5496 -0.5478
vn 0.1495 0.9802 -0.1298
vn 0.7874 -0.5818 -0.2036
vn 0.3720 0.9232 -0.0962
vn 0.0535 0.9985 -0.0138
vn 0.0535 -0.9985 -0.0138
vn 0.3720 -0.9232 -0.0962
vn 0.7874 0.5818 -0.2036
vn 0.1769 0.9832 -0.0457
vn 0.1769 -0.9832 -0.0457
vn 0.0535 -0.9985 0.0138
vn 0.3720 -0.9232 0.0962
vn 0.7874 0.5818 0.2036
vn 0.1769 0.9832 0.0457
vn 0.1769 -0.9832 0.0457
vn 0.7874 -0.5818 0.2036
vn 0.3720 0.9232 0.0962
vn 0.0535 0.9985 0.0138
vn 0.6307 0.5496 0.5478
vn 0.1495 0.9802 0.1298
vn 0.1495 -0.9802 0.1298
vn 0.6307 -0.5496 0.5478
vn 0.3112 0.9111 0.2703
vn 0.0453 0.9982 0.0394
vn 0.0453 -0.9982 0.0394
vn 0.3112 -0.9111 0.2703
vn 0.0995 -0.9760 0.1935
vn 0.3926 -0.5121 0.7639
vn 0.2042 0.8947 0.3973
vn 0.0303 0.9978 0.0589
vn 0.0303 -0.9978 0.0589
vn 0.2042 -0.8947 0.3973
vn 0.3926 0.5121 0.7639
vn 0.0995 0.9760 0.1935
vn 0.0708 0.8836 0.4628
vn 0.0106 0.9975 0.0694
vn 0.0106 -0.9975 0.0694
vn 0.0708 -0.8836 0.4628
vn 0.1319 0.4898 0.8618
vn 0.0348 0.9731 0.2276
vn 0.0348 -0.9731 0.2276
vn 0.1319 -0.4898 0.8618
vn -0.0106 -0.9975 0.0694
vn -0.0708 -0.8836 0.4628
vn -0.1319 0.4898 0.8618
vn -0.0348 0.9731 0.2276
vn -0.0348 -0.9731 0.2276
vn -0.1319 -0.4898 0.8618
vn -0.0708 0.8836 0.4628
vn -0.0106 0.9975 0.0694
vn -0.0995 0.9760 0.1935
vn -0.0995 -0.9760 0.1935
vn -0.3926 -0.5121 0.7639
vn -0.2042 0.8947 0.3973
vn -0.0303 0.9978 0.0589
vn -0.0303 -0.9978 0.0589
vn -0.2042 -0.8947 0.3973
vn -0.3926 0.5121 0.7639
vn -0.1495 -0.9802 0.1298
vn -0.6307 -0.5496 0.5478
vn -0.3112 0.9111 0.2703
vn -0.0453 0.9982 0.0394
vn -0.0453 -0.9982 0.0394
vn -0.3112 -0.9111 0.2703
vn -0.6307 0.5496 0.5478
vn -0.1495 0.9802 0.1298
vn -0.0535 0.9985 0.0138
vn -0.0535 -0.9985 0.0138
vn -0.3720 -0.9232 0.0962
vn -0.7874 0.5818 0.2036
vn -0.1769 0.9832 0.0457
vn -0.1769 -0.9832 0.0457
vn -0.7874 -0.5818 0.2036
vn -0.3720 0.9232 0.0962
vn -0.3720 -0.9232 -0.0962
vn -0.7874 0.5818 -0.2036
vn -0.1769 0.9832 -0.0457
vn -0.1769 -0.9832 -0.0457
vn -0.7874 -0.5818 -0.2036
vn -0.3720 0.9232 -0.0962
vn -0.0535 0.9985 -0.0138
vn -0.0535 -0.9985 -0.0138
vn -0.1495 -0.9802 -0.1298
vn -0.6307 -0.5496 -0.5478
vn -0.3112 0.9111 -0.2703
vn -0.0453 0.9982 -0.0394
vn -0.0453 -0.9982 -0.0394
vn -0.3112 -0.9111 -0.2703
vn -0.6307 0.5496 -0.5478
vn -0.1495 0.9802 -0.1298
vn -0.3926 -0.5121 -0.7639
vn -0.2042 0.8947 -0.3973
vn -0.0303 0.9978 -0.0589
vn -0.0303 -0.9978 -0.0589
vn -0.2042 -0.8947 -0.3973
vn -0.3926 0.5121 -0.7639
vn -0.0995 0.9760 -0.1935
vn -0.0995 -0.9760 -0.1935
vn -0.0106 -0.9975 -0.0694
vn -0.0708 -0.8836 -0.4628
vn -0.1319 0.4898 -0.8618
vn -0.0348 0.9731 -0.2276
vn -0.0348 -0.9731 -0.2276
vn -0.1319 -0.4898 -0.8618
vn -0.0708 0.8836 -0.4628
vn -0.0106 0.9975 -0.0694
vt 0.750000 0.625000
vt 0.750000 0.750000
vt 0.687500 0.750000
vt 0.687500 0.625000
vt 0.750000 0.875000
vt 0.718750 1.000000
vt 0.687500 0.875000
vt 0.718750 0.000000
vt 0.750000 0.125000
vt 0.687500 0.125000
vt 0.750000 0.250000
vt 0.750000 0.375000
vt 0.687500 0.375000
vt 0.687500 0.250000
vt 0.750000 0.500000
vt 0.687500 0.500000
vt 0.625000 0.375000
vt 0.625000 0.250000
vt 0.625000 0.625000
vt 0.625000 0.500000
vt 0.625000 0.875000
vt 0.625000 0.750000
vt 0.625000 0.125000
vt 0.656250 1.000000
vt 0.656250 0.000000
vt 0.562500 0.250000
vt 0.562500 0.125000
vt 0.562500 0.500000
vt 0.562500 0.375000
vt 0.562500 0.750000
vt 0.562500 0.625000
vt 0.593750 1.000000
vt 0.562500 0.875000
vt 0.593750 0.000000
vt 0.500000 0.500000
vt 0.500000 0.375000
vt 0.500000 0.750000
vt 0.500000 0.625000
vt 0.531250 1.000000
vt 0.500000 0.875000
vt 0.531250 0.000000
vt 0.500000 0.125000
vt 0.500000 0.250000
vt 0.468750 0.000000
vt 0.437500 0.125000
vt 0.437500 0.375000
vt 0.437500 0.250000
vt 0.437500 0.625000
vt 0.437500 0.500000
vt 0.437500 0.875000
vt 0.437500 0.750000
vt 0.468750 1.000000
vt 0.375000 0.625000
vt 0.375000 0.500000
vt 0.375000 0.875000
vt 0.375000 0.750000
vt 0.375000 0.250000
vt 0.375000 0.125000
vt 0.375000 0.375000
vt 0.406250 1.000000
vt 0.406250 0.000000
vt 0.312500 0.250000
vt 0.312500 0.125000
vt 0.312500 0.500000
vt 0.312500 0.375000
vt 0.312500 0.750000
vt 0.312500 0.625000
vt 0.343750 1.000000
vt 0.312500 0.875000
vt 0.343750 0.000000
vt 0.250000 0.750000
vt 0.250000 0.625000
vt 0.281250 1.000000
vt 0.250000 0.875000
vt 0.281250 0.000000
vt 0.250000 0.125000
vt 0.250000 0.375000
vt 0.250000 0.250000
vt 0.250000 0.500000
vt 0.218750 0.000000
vt 0.187500 0.125000
vt 0.187500 0.375000
vt 0.187500 0.250000
vt 0.187500 0.625000
vt 0.187500 0.500000
vt 0.187500 0.875000
vt 0.187500 0.750000
vt 0.218750 1.000000
vt 0.125000 0.875000
vt 0.125000 0.750000
vt 0.125000 0.250000
vt 0.125000 0.125000
vt 0.125000 0.500000
vt 0.125000 0.375000
vt 0.125000 0.625000
vt 0.156250 1.000000
vt 0.156250 0.000000
vt 0.062500 0.250000
vt 0.062500 0.125000
vt 0.062500 0.500000
vt 0.062500 0.375000
vt 0.062500 0.750000
vt 0.062500 0.625000
vt 0.093750 1.000000
vt 0.062500 0.875000
vt 0.093750 0.000000
vt 0.031250 1.000000
vt 0.000000 0.875000
vt 0.031250 0.000000
vt 0.000000 0.125000
vt 0.000000 0.375000
vt 0.000000 0.250000
vt 0.000000 0.625000
vt 0.000000 0.500000
vt 0.000000 0.750000
vt 1.000000 0.250000
vt 1.000000 0.375000
vt 0.937500 0.375000
vt 0.937500 0.250000
vt 1.000000 0.500000
vt 1.000000 0.625000
vt 0.937500 0.625000
vt 0.937500 0.500000
vt 1.000000 0.750000
vt 1.000000 0.875000
vt 0.937500 0.875000
vt 0.937500 0.750000
vt 1.000000 0.125000
vt 0.937500 0.125000
vt 0.968750 1.000000
vt 0.968750 0.000000
vt 0.875000 0.250000
vt 0.875000 0.125000
vt 0.875000 0.500000
vt 0.875000 0.375000
vt 0.875000 0.750000
vt 0.875000 0.625000
vt 0.906250 1.000000
vt 0.875000 0.875000
vt 0.906250 0.000000
vt 0.812500 0.500000
vt 0.812500 0.375000
vt 0.812500 0.750000
vt 0.812500 0.625000
vt 0.843750 1.000000
vt 0.812500 0.875000
vt 0.843750 0.000000
vt 0.812500 0.125000
vt 0.812500 0.250000
vt 0.781250 0.000000
vt 0.781250 1.000000
s 0
usemtl spoon
f 1394/1844/1291 1505/1845/1291 1400/1846/1291 1401/1847/1291
f 1504/1848/1292 1393/1849/1292 1399/1850/1292
f 1398/1851/1293 1397/1852/1293 1405/1853/1293
f 1506/1854/1294 1396/1855/1294 1403/1856/1294 1404/1857/1294
f 1395/1858/1295 1394/1844/1295 1401/1847/1295 1402/1859/1295
f 1505/1845/1296 1504/1848/1296 1399/1850/1296 1400/1846/1296
f 1397/1852/1297 1506/1854/1297 1404/1857/1297 1405/1853/1297
f 1396/1855/1298 1395/1858/1298 1402/1859/1298 1403/1856/1298
f 1404/1857/1299 1403/1856/1299 1410/1860/1299 1411/1861/1299
f 1402/1859/1300 1401/1847/1300 1408/1862/1300 1409/1863/1300
f 1400/1846/1301 1399/1850/1301 1406/1864/1301 1407/1865/1301
f 1405/1853/1302 1404/1857/1302 1411/1861/1302 1412/1866/1302
f 1403/1856/1303 1402/1859/1303 1409/1863/1303 1410/1860/1303
f 1401/1847/1304 1400/1846/1304 1407/1865/1304 1408/1862/1304
f 1399/1850/1305 1393/1867/1305 1406/1864/1305
f 1398/1868/1306 1405/1853/1306 1412/1866/1306
f 1412/1866/1307 1411/1861/1307 1418/1869/1307 1419/1870/1307
f 1410/1860/1308 1409/1863/1308 1416/1871/1308 1417/1872/1308
f 1408/1862/1309 1407/1865/1309 1414/1873/1309 1415/1874/1309
f 1406/1864/1310 1393/1875/1310 1413/1876/1310
f 1398/1877/1311 1412/1866/1311 1419/1870/1311
f 1411/1861/1312 1410/1860/1312 1417/1872/1312 1418/1869/1312
f 1409/1863/1313 1408/1862/1313 1415/1874/1313 1416/1871/1313
f 1407/1865/1314 1406/1864/1314 1413/1876/1314 1414/1873/1314
f 1417/1872/1315 1416/1871/1315 1423/1878/1315 1424/1879/1315
f 1415/1874/1316 1414/1873/1316 1421/1880/1316 1422/1881/1316
f 1413/1876/1317 1393/1882/1317 1420/1883/1317
f 1398/1884/1318 1419/1870/1318 1426/1885/1318
f 1418/1869/1319 1417/1872/1319 1424/1879/1319 1425/1886/1319
f 1416/1871/1320 1415/1874/1320 1422/1881/1320 1423/1878/1320
f 1414/1873/1321 1413/1876/1321 1420/1883/1321 1421/1880/1321
f 1419/1870/1322 1418/1869/1322 1425/1886/1322 1426/1885/1322
f 1398/1887/1323 1426/1885/1323 1433/1888/1323
f 1425/1886/1324 1424/1879/1324 1431/1889/1324 1432/1890/1324
f 1423/1878/1325 1422/1881/1325 1429/1891/1325 1430/1892/1325
f 1421/1880/1326 1420/1883/1326 1427/1893/1326 1428/1894/1326
f 1426/1885/1327 1425/1886/1327 1432/1890/1327 1433/1888/1327
f 1424/1879/1328 1423/1878/1328 1430/1892/1328 1431/1889/1328
f 1422/1881/1329 1421/1880/1329 1428/1894/1329 1429/1891/1329
f 1420/1883/1330 1393/1895/1330 1427/1893/1330
f 1430/1892/1331 1429/1891/1331 1436/1896/1331 1437/1897/1331
f 1428/1894/1332 1427/1893/1332 1434/1898/1332 1435/1899/1332
f 1433/1888/1333 1432/1890/1333 1439/1900/1333 1440/1901/1333
f 1431/1889/1334 1430/1892/1334 1437/1897/1334 1438/1902/1334
f 1429/1891/1335 1428/1894/1335 1435/1899/1335 1436/1896/1335
f 1427/1893/1336 1393/1903/1336 1434/1898/1336
f 1398/1904/1337 1433/1888/1337 1440/1901/1337
f 1432/1890/1338 1431/1889/1338 1438/1902/1338 1439/1900/1338
f 1440/1901/1339 1439/1900/1339 1446/1905/1339 1447/1906/1339
f 1438/1902/1340 1437/1897/1340 1444/1907/1340 1445/1908/1340
f 1436/1896/1341 1435/1899/1341 1442/1909/1341 1443/1910/1341
f 1434/1898/1342 1393/1911/1342 1441/1912/1342
f 1398/1913/1343 1440/1901/1343 1447/1906/1343
f 1439/1900/1344 1438/1902/1344 1445/1908/1344 1446/1905/1344
f 1437/1897/1345 1436/1896/1345 1443/1910/1345 1444/1907/1345
f 1435/1899/1346 1434/1898/1346 1441/1912/1346 1442/1909/1346
f 1443/1910/1347 1442/1909/1347 1449/1914/1347 1450/1915/1347
f 1441/1912/1348 1393/1916/1348 1448/1917/1348
f 1398/1918/1349 1447/1906/1349 1454/1919/1349
f 1446/1905/1350 1445/1908/1350 1452/1920/1350 1453/1921/1350
f 1444/1907/1351 1443/1910/1351 1450/1915/1351 1451/1922/1351
f 1442/1909/1352 1441/1912/1352 1448/1917/1352 1449/1914/1352
f 1447/1906/1353 1446/1905/1353 1453/1921/1353 1454/1919/1353
f 1445/1908/1354 1444/1907/1354 1451/1922/1354 1452/1920/1354
f 1398/1923/1355 1454/1919/1355 1461/1924/1355
f 1453/1921/1356 1452/1920/1356 1459/1925/1356 1460/1926/1356
f 1451/1922/1357 1450/1915/1357 1457/1927/1357 1458/1928/1357
f 1449/1914/1358 1448/1917/1358 1455/1929/1358 1456/1930/1358
f 1454/1919/1359 1453/1921/1359 1460/1926/1359 1461/1924/1359
f 1452/1920/1360 1451/1922/1360 1458/1928/1360 1459/1925/1360
f 1450/1915/1361 1449/1914/1361 1456/1930/1361 1457/1927/1361
f 1448/1917/1362 1393/1931/1362 1455/1929/1362
f 1456/1930/1363 1455/1929/1363 1462/1932/1363 1463/1933/1363
f 1461/1924/1364 1460/1926/1364 1467/1934/1364 1468/1935/1364
f 1459/1925/1365 1458/1928/1365 1465/1936/1365 1466/1937/1365
f 1457/1927/1366 1456/1930/1366 1463/1933/1366 1464/1938/1366
f 1455/1929/1367 1393/1939/1367 1462/1932/1367
f 1398/1940/1368 1461/1924/1368 1468/1935/1368
f 1460/1926/1369 1459/1925/1369 1466/1937/1369 1467/1934/1369
f 1458/1928/1370 1457/1927/1370 1464/1938/1370 1465/1936/1370
f 1468/1935/1371 1467/1934/1371 1474/1941/1371 1475/1942/1371
f 1466/1937/1372 1465/1936/1372 1472/1943/1372 1473/1944/1372
f 1464/1938/1373 1463/1933/1373 1470/1945/1373 1471/1946/1373
f 1462/1932/1374 1393/1947/1374 1469/1948/1374
f 1398/1949/1375 1468/1935/1375 1475/1942/1375
f 1467/1934/1376 1466/1937/1376 1473/1944/1376 1474/1941/1376
f 1465/1936/1377 1464/1938/1377 1471/1946/1377 1472/1943/1377
f 1463/1933/1378 1462/1932/1378 1469/1948/1378 1470/1945/1378
f 1469/1948/1379 1393/1950/1379 1476/1951/1379
f 1398/1952/1380 1475/1942/1380 1482/1953/1380
f 1474/1941/1381 1473/1944/1381 1480/1954/1381 1481/1955/1381
f 1472/1943/1382 1471/1946/1382 1478/1956/1382 1479/1957/1382
f 1470/1945/1383 1469/1948/1383 1476/1951/1383 1477/1958/1383
f 1475/1942/1384 1474/1941/1384 1481/1955/1384 1482/1953/1384
f 1473/1944/1385 1472/1943/1385 1479/1957/1385 1480/1954/1385
f 1471/1946/1386 1470/1945/1386 1477/1958/1386 1478/1956/1386
f 1481/1959/1387 1480/1960/1387 1487/1961/1387 1488/1962/1387
f 1479/1963/1388 1478/1964/1388 1485/1965/1388 1486/1966/1388
f 1477/1967/1389 1476/1968/1389 1483/1969/1389 1484/1970/1389
f 1482/1971/1390 1481/1959/1390 1488/1962/1390 1489/1972/1390
f 1480/1960/1391 1479/1963/1391 1486/1966/1391 1487/1961/1391
f 1478/1964/1392 1477/1967/1392 1484/1970/1392 1485/1965/1392
f 1476/1968/1393 1393/1973/1393 1483/1969/1393
f 1398/1974/1394 1482/1971/1394 1489/1972/1394
f 1489/1972/1395 1488/1962/1395 1495/1975/1395 1496/1976/1395
f 1487/1961/1396 1486/1966/1396 1493/1977/1396 1494/1978/1396
f 1485/1965/1397 1484/1970/1397 1491/1979/1397 1492/1980/1397
f 1483/1969/1398 1393/1981/1398 1490/1982/1398
f 1398/1983/1399 1489/1972/1399 1496/1976/1399
f 1488/1962/1400 1487/1961/1400 1494/1978/1400 1495/1975/1400
f 1486/1966/1401 1485/1965/1401 1492/1980/1401 1493/1977/1401
f 1484/1970/1402 1483/1969/1402 1490/1982/1402 1491/1979/1402
f 1494/1978/1403 1493/1977/1403 1500/1984/1403 1501/1985/1403
f 1492/1980/1404 1491/1979/1404 1498/1986/1404 1499/1987/1404
f 1490/1982/1405 1393/1988/1405 1497/1989/1405
f 1398/1990/1406 1496/1976/1406 1503/1991/1406
f 1495/1975/1407 1494/1978/1407 1501/1985/1407 1502/1992/1407
f 1493/1977/1408 1492/1980/1408 1499/1987/1408 1500/1984/1408
f 1491/1979/1409 1490/1982/1409 1497/1989/1409 1498/1986/1409
f 1496/1976/1410 1495/1975/1410 1502/1992/1410 1503/1991/1410
f 1398/1993/1411 1503/1991/1411 1397/1852/1411
f 1502/1992/1412 1501/1985/1412 1396/1855/1412 1506/1854/1412
f 1500/1984/1413 1499/1987/1413 1394/1844/1413 1395/1858/1413
f 1498/1986/1414 1497/1989/1414 1504/1848/1414 1505/1845/1414
f 1503/1991/1415 1502/1992/1415 1506/1854/1415 1397/1852/1415
f 1501/1985/1416 1500/1984/1416 1395/1858/1416 1396/1855/1416
f 1499/1987/1417 1498/1986/1417 1505/1845/1417 1394/1844/1417
f 1497/1989/1418 1393/1994/1418 1504/1848/1418