# Second Rite deterministic completion model
# Death Sickle
mtllib item_complete_library.mtl
o item_76
s off
v 0.12 -1.46 0
v 0.16999999999999998 -1.46 0.086603
v 0.27 -1.46 0.086603
v 0.32 -1.46 0
v 0.27 -1.46 -0.086603
v 0.16999999999999998 -1.46 -0.086603
v 0.15 0.5900000000000001 0
v 0.185 0.5900000000000001 0.060622
v 0.255 0.5900000000000001 0.060622
v 0.29000000000000004 0.5900000000000001 0
v 0.255 0.5900000000000001 -0.060622
v 0.185 0.5900000000000001 -0.060622
v 0.22 -1.46 0
v 0.22 0.5900000000000001 0
v 0.14 0.49000000000000005 -0.08
v -0.28 0.79 -0.08
v -0.4 1.1400000000000001 -0.08
v -0.12999999999999998 1.46 -0.08
v 0.24 1.1600000000000001 -0.08
v 0.4 0.79 -0.08
v 0.14 0.49000000000000005 0.08
v -0.28 0.79 0.08
v -0.4 1.1400000000000001 0.08
v -0.12999999999999998 1.46 0.08
v 0.24 1.1600000000000001 0.08
v 0.4 0.79 0.08
usemtl dark_wood
f 13 2 1
f 14 7 8
f 1 2 8
f 1 8 7
f 13 3 2
f 14 8 9
f 2 3 9
f 2 9 8
f 13 4 3
f 14 9 10
f 3 4 10
f 3 10 9
f 13 5 4
f 14 10 11
f 4 5 11
f 4 11 10
f 13 6 5
f 14 11 12
f 5 6 12
f 5 12 11
f 13 1 6
f 14 12 7
f 6 1 7
f 6 7 12
usemtl wrought_iron
f 15 17 16
f 21 22 23
f 15 18 17
f 21 23 24
f 15 19 18
f 21 24 25
f 15 20 19
f 21 25 26
f 15 16 22
f 15 22 21
f 16 17 23
f 16 23 22
f 17 18 24
f 17 24 23
f 18 19 25
f 18 25 24
f 19 20 26
f 19 26 25
f 20 15 21
f 20 21 26
