# St. Maria relic showcase: composed from parts.py + lathe.py
# generated by tools/asset-production/lathe.py
mtllib relic_showcase.mtl
o first_scale
v 0.000000 0.000000 0.000000
v 0.475200 0.186000 0.000000
v 0.399764 0.186000 0.051383
v 0.197405 0.186000 0.086451
v -0.067628 0.186000 0.094073
v -0.311190 0.186000 0.071826
v -0.455951 0.186000 0.026776
v -0.455951 0.186000 -0.026776
v -0.311190 0.186000 -0.071826
v -0.067628 0.186000 -0.094073
v 0.197405 0.186000 -0.086451
v 0.399764 0.186000 -0.051383
v 0.660000 0.527000 0.000000
v 0.555227 0.527000 0.071365
v 0.274174 0.527000 0.120071
v -0.093928 0.527000 0.130656
v -0.432208 0.527000 0.099759
v -0.633265 0.527000 0.037189
v -0.633265 0.527000 -0.037189
v -0.432208 0.527000 -0.099759
v -0.093928 0.527000 -0.130656
v 0.274174 0.527000 -0.120071
v 0.555227 0.527000 -0.071365
v 0.528000 0.961000 0.000000
v 0.444182 0.961000 0.057092
v 0.219339 0.961000 0.096057
v -0.075142 0.961000 0.104525
v -0.345766 0.961000 0.079807
v -0.506612 0.961000 0.029751
v -0.506612 0.961000 -0.029751
v -0.345766 0.961000 -0.079807
v -0.075142 0.961000 -0.104525
v 0.219339 0.961000 -0.096057
v 0.444182 0.961000 -0.057092
v 0.277200 1.317500 0.000000
v 0.233195 1.317500 0.029973
v 0.115153 1.317500 0.050430
v -0.039450 1.317500 0.054876
v -0.181527 1.317500 0.041899
v -0.265971 1.317500 0.015619
v -0.265971 1.317500 -0.015619
v -0.181527 1.317500 -0.041899
v -0.039450 1.317500 -0.054876
v 0.115153 1.317500 -0.050430
v 0.233195 1.317500 -0.029973
v 0.000000 1.550000 0.000000
v 0.000000 0.130000 0.150000
v 0.345600 0.276400 0.150000
v 0.264745 0.276400 0.165550
v 0.060013 0.276400 0.173824
v -0.172800 0.276400 0.170951
v -0.324758 0.276400 0.158274
v -0.324758 0.276400 0.141726
v -0.172800 0.276400 0.129049
v 0.060013 0.276400 0.126176
v 0.264745 0.276400 0.134450
v 0.480000 0.544800 0.150000
v 0.367701 0.544800 0.171598
v 0.083351 0.544800 0.183090
v -0.240000 0.544800 0.179098
v -0.451052 0.544800 0.161492
v -0.451052 0.544800 0.138508
v -0.240000 0.544800 0.120902
v 0.083351 0.544800 0.116910
v 0.367701 0.544800 0.128402
v 0.384000 0.886400 0.150000
v 0.294161 0.886400 0.167278
v 0.066681 0.886400 0.176472
v -0.192000 0.886400 0.173279
v -0.360842 0.886400 0.159194
v -0.360842 0.886400 0.140806
v -0.192000 0.886400 0.126721
v 0.066681 0.886400 0.123528
v 0.294161 0.886400 0.132722
v 0.201600 1.167000 0.150000
v 0.154435 1.167000 0.159071
v 0.035007 1.167000 0.163898
v -0.100800 1.167000 0.162221
v -0.189442 1.167000 0.154827
v -0.189442 1.167000 0.145173
v -0.100800 1.167000 0.137779
v 0.035007 1.167000 0.136102
v 0.154435 1.167000 0.140929
v 0.000000 1.350000 0.150000
v 0.000000 0.260000 0.205000
v 0.230400 0.368000 0.205000
v 0.143652 0.368000 0.213106
v -0.051269 0.368000 0.215108
v -0.207583 0.368000 0.209499
v -0.207583 0.368000 0.200501
v -0.051269 0.368000 0.194892
v 0.143652 0.368000 0.196894
v 0.320000 0.566000 0.205000
v 0.199517 0.566000 0.216258
v -0.071207 0.566000 0.219039
v -0.288310 0.566000 0.211248
v -0.288310 0.566000 0.198752
v -0.071207 0.566000 0.190961
v 0.199517 0.566000 0.193742
v 0.256000 0.818000 0.205000
v 0.159613 0.818000 0.214007
v -0.056965 0.818000 0.216231
v -0.230648 0.818000 0.209998
v -0.230648 0.818000 0.200002
v -0.056965 0.818000 0.193769
v 0.159613 0.818000 0.195993
v 0.134400 1.025000 0.205000
v 0.083797 1.025000 0.209729
v -0.029907 1.025000 0.210896
v -0.121090 1.025000 0.207624
v -0.121090 1.025000 0.202376
v -0.029907 1.025000 0.199104
v 0.083797 1.025000 0.200271
v 0.000000 1.160000 0.205000
v 0.035000 0.180000 0.240000
v 0.010816 0.180000 0.273287
v -0.028316 0.180000 0.260572
v -0.028316 0.180000 0.219428
v 0.010816 0.180000 0.206713
v 0.035000 1.360000 0.240000
v 0.010816 1.360000 0.273287
v -0.028316 1.360000 0.260572
v -0.028316 1.360000 0.219428
v 0.010816 1.360000 0.206713
v 0.000000 0.180000 0.240000
v 0.000000 1.360000 0.240000
v -0.205661 0.570479 0.230000
v -0.215569 0.556328 0.253776
v -0.231601 0.533432 0.244695
v -0.231601 0.533432 0.215305
v -0.215569 0.556328 0.206224
v -0.713535 0.926096 0.230000
v -0.723443 0.911946 0.253776
v -0.739475 0.889050 0.244695
v -0.739475 0.889050 0.215305
v -0.723443 0.911946 0.206224
v -0.220000 0.550000 0.230000
v -0.727874 0.905617 0.230000
v 0.241000 0.760947 0.230000
v 0.233399 0.774112 0.250923
v 0.221101 0.795414 0.242931
v 0.221101 0.795414 0.217069
v 0.233399 0.774112 0.209077
v 0.656692 1.000947 0.230000
v 0.649091 1.014112 0.250923
v 0.636793 1.035414 0.242931
v 0.636793 1.035414 0.217069
v 0.649091 1.014112 0.209077
v 0.230000 0.780000 0.230000
v 0.645692 1.020000 0.230000
vt 0.000000 0.000000
vt 0.100000 0.000000
vt 0.200000 0.000000
vt 0.300000 0.000000
vt 0.400000 0.000000
vt 0.500000 0.000000
vt 0.600000 0.000000
vt 0.700000 0.000000
vt 0.800000 0.000000
vt 0.900000 0.000000
vt 1.000000 0.000000
vt 0.000000 0.237410
vt 0.090909 0.237410
vt 0.181818 0.237410
vt 0.272727 0.237410
vt 0.363636 0.237410
vt 0.454545 0.237410
vt 0.545455 0.237410
vt 0.636364 0.237410
vt 0.727273 0.237410
vt 0.818182 0.237410
vt 0.909091 0.237410
vt 0.000000 0.417853
vt 0.090909 0.417853
vt 0.181818 0.417853
vt 0.272727 0.417853
vt 0.363636 0.417853
vt 0.454545 0.417853
vt 0.545455 0.417853
vt 0.636364 0.417853
vt 0.727273 0.417853
vt 0.818182 0.417853
vt 0.909091 0.417853
vt 0.000000 0.628895
vt 0.090909 0.628895
vt 0.181818 0.628895
vt 0.272727 0.628895
vt 0.363636 0.628895
vt 0.454545 0.628895
vt 0.545455 0.628895
vt 0.636364 0.628895
vt 0.727273 0.628895
vt 0.818182 0.628895
vt 0.909091 0.628895
vt 0.000000 0.831681
vt 0.090909 0.831681
vt 0.181818 0.831681
vt 0.272727 0.831681
vt 0.363636 0.831681
vt 0.454545 0.831681
vt 0.545455 0.831681
vt 0.636364 0.831681
vt 0.727273 0.831681
vt 0.818182 0.831681
vt 0.909091 0.831681
vt 0.000000 1.000000
vt 0.100000 1.000000
vt 0.200000 1.000000
vt 0.300000 1.000000
vt 0.400000 1.000000
vt 0.500000 1.000000
vt 0.600000 1.000000
vt 0.700000 1.000000
vt 0.800000 1.000000
vt 0.900000 1.000000
vt 1.000000 1.000000
vt 0.000000 0.000000
vt 0.125000 0.000000
vt 0.250000 0.000000
vt 0.375000 0.000000
vt 0.500000 0.000000
vt 0.625000 0.000000
vt 0.750000 0.000000
vt 0.875000 0.000000
vt 1.000000 0.000000
vt 0.000000 0.229240
vt 0.111111 0.229240
vt 0.222222 0.229240
vt 0.333333 0.229240
vt 0.444444 0.229240
vt 0.555556 0.229240
vt 0.666667 0.229240
vt 0.777778 0.229240
vt 0.888889 0.229240
vt 0.000000 0.412575
vt 0.111111 0.412575
vt 0.222222 0.412575
vt 0.333333 0.412575
vt 0.444444 0.412575
vt 0.555556 0.412575
vt 0.666667 0.412575
vt 0.777778 0.412575
vt 0.888889 0.412575
vt 0.000000 0.629296
vt 0.111111 0.629296
vt 0.222222 0.629296
vt 0.333333 0.629296
vt 0.444444 0.629296
vt 0.555556 0.629296
vt 0.666667 0.629296
vt 0.777778 0.629296
vt 0.888889 0.629296
vt 0.000000 0.833705
vt 0.111111 0.833705
vt 0.222222 0.833705
vt 0.333333 0.833705
vt 0.444444 0.833705
vt 0.555556 0.833705
vt 0.666667 0.833705
vt 0.777778 0.833705
vt 0.888889 0.833705
vt 0.000000 1.000000
vt 0.125000 1.000000
vt 0.250000 1.000000
vt 0.375000 1.000000
vt 0.500000 1.000000
vt 0.625000 1.000000
vt 0.750000 1.000000
vt 0.875000 1.000000
vt 1.000000 1.000000
vt 0.000000 0.000000
vt 0.166667 0.000000
vt 0.333333 0.000000
vt 0.500000 0.000000
vt 0.666667 0.000000
vt 0.833333 0.000000
vt 1.000000 0.000000
vt 0.000000 0.218915
vt 0.142857 0.218915
vt 0.285714 0.218915
vt 0.428571 0.218915
vt 0.571429 0.218915
vt 0.714286 0.218915
vt 0.857143 0.218915
vt 0.000000 0.405888
vt 0.142857 0.405888
vt 0.285714 0.405888
vt 0.428571 0.405888
vt 0.571429 0.405888
vt 0.714286 0.405888
vt 0.857143 0.405888
vt 0.000000 0.629572
vt 0.142857 0.629572
vt 0.285714 0.629572
vt 0.428571 0.629572
vt 0.571429 0.629572
vt 0.714286 0.629572
vt 0.857143 0.629572
vt 0.000000 0.836113
vt 0.142857 0.836113
vt 0.285714 0.836113
vt 0.428571 0.836113
vt 0.571429 0.836113
vt 0.714286 0.836113
vt 0.857143 0.836113
vt 0.000000 1.000000
vt 0.166667 1.000000
vt 0.333333 1.000000
vt 0.500000 1.000000
vt 0.666667 1.000000
vt 0.833333 1.000000
vt 1.000000 1.000000
vt 0.000000 0.000000
vt 0.200000 0.000000
vt 0.400000 0.000000
vt 0.600000 0.000000
vt 0.800000 0.000000
vt 0.000000 1.000000
vt 0.200000 1.000000
vt 0.400000 1.000000
vt 0.600000 1.000000
vt 0.800000 1.000000
vt 0.500000 0.000000
vt 0.500000 1.000000
vt 0.000000 0.000000
vt 0.200000 0.000000
vt 0.400000 0.000000
vt 0.600000 0.000000
vt 0.800000 0.000000
vt 0.000000 1.000000
vt 0.200000 1.000000
vt 0.400000 1.000000
vt 0.600000 1.000000
vt 0.800000 1.000000
vt 0.500000 0.000000
vt 0.500000 1.000000
vt 0.000000 0.000000
vt 0.200000 0.000000
vt 0.400000 0.000000
vt 0.600000 0.000000
vt 0.800000 0.000000
vt 0.000000 1.000000
vt 0.200000 1.000000
vt 0.400000 1.000000
vt 0.600000 1.000000
vt 0.800000 1.000000
vt 0.500000 0.000000
vt 0.500000 1.000000
vn 0.000778 1.000000 -0.000000
vn -0.313663 0.477560 -0.820702
vn -0.611398 0.791323 0.000000
vn -0.093965 0.312275 -0.945333
vn 0.029590 0.288892 -0.956904
vn 0.177856 0.367728 -0.912767
vn 0.540368 0.674002 -0.503709
vn 0.540368 0.674002 0.503709
vn 0.177856 0.367728 0.912767
vn 0.029590 0.288892 0.956904
vn -0.093965 0.312275 0.945333
vn -0.313663 0.477560 0.820702
vn -0.372590 0.047204 -0.926795
vn -0.993727 0.111832 0.000000
vn -0.099886 0.026206 -0.994654
vn 0.031135 0.023871 -0.999230
vn 0.194687 0.032271 -0.980334
vn 0.787354 0.083847 -0.610773
vn 0.787354 0.083847 0.610773
vn 0.194687 0.032271 0.980334
vn 0.031135 0.023871 0.999230
vn -0.099886 0.026206 0.994654
vn -0.372590 0.047204 0.926795
vn -0.364243 -0.202136 -0.909103
vn -0.895143 -0.445779 0.000000
vn -0.099258 -0.111184 -0.988831
vn 0.030975 -0.101236 -0.994380
vn 0.192778 -0.137129 -0.971613
vn 0.731039 -0.361629 -0.578624
vn 0.731039 -0.361629 0.578624
vn 0.192778 -0.137129 0.971613
vn 0.030975 -0.101236 0.994380
vn -0.099258 -0.111184 0.988831
vn -0.364243 -0.202136 0.909103
vn -0.341289 -0.357305 -0.869399
vn -0.730784 -0.682609 0.000000
vn -0.097474 -0.205695 -0.973750
vn 0.030520 -0.187890 -0.981716
vn 0.187336 -0.251143 -0.949648
vn 0.613507 -0.573853 -0.542496
vn 0.613507 -0.573853 0.542496
vn 0.187336 -0.251143 0.949648
vn 0.030520 -0.187890 0.981716
vn -0.097474 -0.205695 0.973750
vn -0.341289 -0.357305 0.869399
vn 0.016361 -0.999866 -0.000000
vn 0.060245 0.998184 -0.000000
vn -0.111633 0.181320 -0.977068
vn -0.583818 0.811884 0.000000
vn -0.013929 0.101127 -0.994776
vn 0.047283 0.119030 -0.991764
vn 0.502243 0.550718 -0.666680
vn 0.502243 0.550718 0.666680
vn 0.047283 0.119030 0.991764
vn -0.013929 0.101127 0.994776
vn -0.111633 0.181320 0.977068
vn -0.114840 0.014514 -0.993278
vn -0.994084 0.108616 0.000000
vn -0.014023 0.007834 -0.999871
vn 0.047757 0.009264 -0.998816
vn 0.713578 0.067509 -0.697316
vn 0.713578 0.067509 0.697316
vn 0.047757 0.009264 0.998816
vn -0.014023 0.007834 0.999871
vn -0.114840 0.014514 0.993278
vn -0.114587 -0.061576 -0.991503
vn -0.906771 -0.421624 0.000000
vn -0.014015 -0.033199 -0.999351
vn 0.047718 -0.039264 -0.998089
vn 0.674708 -0.295998 -0.676132
vn 0.674708 -0.295998 0.676132
vn 0.047718 -0.039264 0.998089
vn -0.014015 -0.033199 0.999351
vn -0.114587 -0.061576 0.991503
vn -0.113738 -0.115045 -0.986827
vn -0.752842 -0.658202 0.000000
vn -0.013990 -0.062365 -0.997955
vn 0.047595 -0.073703 -0.996144
vn 0.574852 -0.475753 -0.665736
vn 0.574852 -0.475753 0.665736
vn 0.047595 -0.073703 0.996144
vn -0.013990 -0.062365 0.997955
vn -0.113738 -0.115045 0.986827
vn 0.252655 -0.967556 0.000000
vn 0.193443 0.981112 -0.000000
vn -0.051341 0.086255 -0.994949
vn -0.614099 0.789229 0.000000
vn 0.012764 0.060192 -0.998105
vn 0.514155 0.492642 -0.702103
vn 0.514155 0.492642 0.702103
vn 0.012764 0.060192 0.998105
vn -0.051341 0.086255 0.994949
vn -0.051688 0.006682 -0.998641
vn -0.995118 0.098687 0.000000
vn 0.012799 0.004637 -0.999907
vn 0.701284 0.058580 -0.710471
vn 0.701284 0.058580 0.710471
vn 0.012799 0.004637 0.999907
vn -0.051688 0.006682 0.998641
vn -0.051663 -0.028322 -0.998263
vn -0.921784 -0.387705 0.000000
vn 0.012796 -0.019649 -0.999725
vn 0.671725 -0.255567 -0.695321
vn 0.671725 -0.255567 0.695321
vn 0.012796 -0.019649 0.999725
vn -0.051663 -0.028322 0.998263
vn -0.051578 -0.053209 -0.997250
vn -0.784219 -0.620485 0.000000
vn 0.012787 -0.036947 -0.999235
vn 0.587943 -0.421075 -0.690666
vn 0.587943 -0.421075 0.690666
vn 0.012787 -0.036947 0.999235
vn -0.051578 -0.053209 0.997250
vn 0.506823 -0.862050 -0.000000
vn -1.000000 0.000000 0.000000
vn -0.309017 0.000000 -0.951057
vn 0.809017 0.000000 -0.587785
vn 0.809017 0.000000 0.587785
vn -0.309017 0.000000 0.951057
vn 0.000000 -1.000000 0.000000
vn 0.000000 1.000000 0.000000
vn -0.573576 -0.819152 0.000000
vn -0.177245 -0.253132 -0.951057
vn 0.464033 0.662708 -0.587785
vn 0.464033 0.662708 0.587785
vn -0.177245 -0.253132 0.951057
vn 0.819152 -0.573576 0.000000
vn -0.819152 0.573576 0.000000
vn -0.500000 0.866025 -0.000000
vn -0.154508 0.267617 -0.951057
vn 0.404508 -0.700629 -0.587785
vn 0.404508 -0.700629 0.587785
vn -0.154508 0.267617 0.951057
vn -0.866025 -0.500000 0.000000
vn 0.866025 0.500000 0.000000
usemtl crystal
s 1
f 1/1/1 3/13/2 2/12/3
s 1
f 1/2/1 4/14/4 3/13/2
s 1
f 1/3/1 5/15/5 4/14/4
s 1
f 1/4/1 6/16/6 5/15/5
s 1
f 1/5/1 7/17/7 6/16/6
s 1
f 1/6/1 8/18/8 7/17/7
s 1
f 1/7/1 9/19/9 8/18/8
s 1
f 1/8/1 10/20/10 9/19/9
s 1
f 1/9/1 11/21/11 10/20/10
s 1
f 1/10/1 12/22/12 11/21/11
s 1
f 1/11/1 2/12/3 12/22/12
s 1
f 2/12/3 3/13/2 14/24/13 13/23/14
s 1
f 3/13/2 4/14/4 15/25/15 14/24/13
s 1
f 4/14/4 5/15/5 16/26/16 15/25/15
s 1
f 5/15/5 6/16/6 17/27/17 16/26/16
s 1
f 6/16/6 7/17/7 18/28/18 17/27/17
s 1
f 7/17/7 8/18/8 19/29/19 18/28/18
s 1
f 8/18/8 9/19/9 20/30/20 19/29/19
s 1
f 9/19/9 10/20/10 21/31/21 20/30/20
s 1
f 10/20/10 11/21/11 22/32/22 21/31/21
s 1
f 11/21/11 12/22/12 23/33/23 22/32/22
s 1
f 12/22/12 2/12/3 13/23/14 23/33/23
s 1
f 13/23/14 14/24/13 25/35/24 24/34/25
s 1
f 14/24/13 15/25/15 26/36/26 25/35/24
s 1
f 15/25/15 16/26/16 27/37/27 26/36/26
s 1
f 16/26/16 17/27/17 28/38/28 27/37/27
s 1
f 17/27/17 18/28/18 29/39/29 28/38/28
s 1
f 18/28/18 19/29/19 30/40/30 29/39/29
s 1
f 19/29/19 20/30/20 31/41/31 30/40/30
s 1
f 20/30/20 21/31/21 32/42/32 31/41/31
s 1
f 21/31/21 22/32/22 33/43/33 32/42/32
s 1
f 22/32/22 23/33/23 34/44/34 33/43/33
s 1
f 23/33/23 13/23/14 24/34/25 34/44/34
s 1
f 24/34/25 25/35/24 36/46/35 35/45/36
s 1
f 25/35/24 26/36/26 37/47/37 36/46/35
s 1
f 26/36/26 27/37/27 38/48/38 37/47/37
s 1
f 27/37/27 28/38/28 39/49/39 38/48/38
s 1
f 28/38/28 29/39/29 40/50/40 39/49/39
s 1
f 29/39/29 30/40/30 41/51/41 40/50/40
s 1
f 30/40/30 31/41/31 42/52/42 41/51/41
s 1
f 31/41/31 32/42/32 43/53/43 42/52/42
s 1
f 32/42/32 33/43/33 44/54/44 43/53/43
s 1
f 33/43/33 34/44/34 45/55/45 44/54/44
s 1
f 34/44/34 24/34/25 35/45/36 45/55/45
s 1
f 35/45/36 36/46/35 46/56/46
s 1
f 36/46/35 37/47/37 46/57/46
s 1
f 37/47/37 38/48/38 46/58/46
s 1
f 38/48/38 39/49/39 46/59/46
s 1
f 39/49/39 40/50/40 46/60/46
s 1
f 40/50/40 41/51/41 46/61/46
s 1
f 41/51/41 42/52/42 46/62/46
s 1
f 42/52/42 43/53/43 46/63/46
s 1
f 43/53/43 44/54/44 46/64/46
s 1
f 44/54/44 45/55/45 46/65/46
s 1
f 45/55/45 35/45/36 46/66/46
usemtl ritual_gold
s 2
f 47/67/47 49/77/48 48/76/49
s 2
f 47/68/47 50/78/50 49/77/48
s 2
f 47/69/47 51/79/51 50/78/50
s 2
f 47/70/47 52/80/52 51/79/51
s 2
f 47/71/47 53/81/53 52/80/52
s 2
f 47/72/47 54/82/54 53/81/53
s 2
f 47/73/47 55/83/55 54/82/54
s 2
f 47/74/47 56/84/56 55/83/55
s 2
f 47/75/47 48/76/49 56/84/56
s 2
f 48/76/49 49/77/48 58/86/57 57/85/58
s 2
f 49/77/48 50/78/50 59/87/59 58/86/57
s 2
f 50/78/50 51/79/51 60/88/60 59/87/59
s 2
f 51/79/51 52/80/52 61/89/61 60/88/60
s 2
f 52/80/52 53/81/53 62/90/62 61/89/61
s 2
f 53/81/53 54/82/54 63/91/63 62/90/62
s 2
f 54/82/54 55/83/55 64/92/64 63/91/63
s 2
f 55/83/55 56/84/56 65/93/65 64/92/64
s 2
f 56/84/56 48/76/49 57/85/58 65/93/65
s 2
f 57/85/58 58/86/57 67/95/66 66/94/67
s 2
f 58/86/57 59/87/59 68/96/68 67/95/66
s 2
f 59/87/59 60/88/60 69/97/69 68/96/68
s 2
f 60/88/60 61/89/61 70/98/70 69/97/69
s 2
f 61/89/61 62/90/62 71/99/71 70/98/70
s 2
f 62/90/62 63/91/63 72/100/72 71/99/71
s 2
f 63/91/63 64/92/64 73/101/73 72/100/72
s 2
f 64/92/64 65/93/65 74/102/74 73/101/73
s 2
f 65/93/65 57/85/58 66/94/67 74/102/74
s 2
f 66/94/67 67/95/66 76/104/75 75/103/76
s 2
f 67/95/66 68/96/68 77/105/77 76/104/75
s 2
f 68/96/68 69/97/69 78/106/78 77/105/77
s 2
f 69/97/69 70/98/70 79/107/79 78/106/78
s 2
f 70/98/70 71/99/71 80/108/80 79/107/79
s 2
f 71/99/71 72/100/72 81/109/81 80/108/80
s 2
f 72/100/72 73/101/73 82/110/82 81/109/81
s 2
f 73/101/73 74/102/74 83/111/83 82/110/82
s 2
f 74/102/74 66/94/67 75/103/76 83/111/83
s 2
f 75/103/76 76/104/75 84/112/84
s 2
f 76/104/75 77/105/77 84/113/84
s 2
f 77/105/77 78/106/78 84/114/84
s 2
f 78/106/78 79/107/79 84/115/84
s 2
f 79/107/79 80/108/80 84/116/84
s 2
f 80/108/80 81/109/81 84/117/84
s 2
f 81/109/81 82/110/82 84/118/84
s 2
f 82/110/82 83/111/83 84/119/84
s 2
f 83/111/83 75/103/76 84/120/84
usemtl wrought_iron
s 3
f 85/121/85 87/129/86 86/128/87
s 3
f 85/122/85 88/130/88 87/129/86
s 3
f 85/123/85 89/131/89 88/130/88
s 3
f 85/124/85 90/132/90 89/131/89
s 3
f 85/125/85 91/133/91 90/132/90
s 3
f 85/126/85 92/134/92 91/133/91
s 3
f 85/127/85 86/128/87 92/134/92
s 3
f 86/128/87 87/129/86 94/136/93 93/135/94
s 3
f 87/129/86 88/130/88 95/137/95 94/136/93
s 3
f 88/130/88 89/131/89 96/138/96 95/137/95
s 3
f 89/131/89 90/132/90 97/139/97 96/138/96
s 3
f 90/132/90 91/133/91 98/140/98 97/139/97
s 3
f 91/133/91 92/134/92 99/141/99 98/140/98
s 3
f 92/134/92 86/128/87 93/135/94 99/141/99
s 3
f 93/135/94 94/136/93 101/143/100 100/142/101
s 3
f 94/136/93 95/137/95 102/144/102 101/143/100
s 3
f 95/137/95 96/138/96 103/145/103 102/144/102
s 3
f 96/138/96 97/139/97 104/146/104 103/145/103
s 3
f 97/139/97 98/140/98 105/147/105 104/146/104
s 3
f 98/140/98 99/141/99 106/148/106 105/147/105
s 3
f 99/141/99 93/135/94 100/142/101 106/148/106
s 3
f 100/142/101 101/143/100 108/150/107 107/149/108
s 3
f 101/143/100 102/144/102 109/151/109 108/150/107
s 3
f 102/144/102 103/145/103 110/152/110 109/151/109
s 3
f 103/145/103 104/146/104 111/153/111 110/152/110
s 3
f 104/146/104 105/147/105 112/154/112 111/153/111
s 3
f 105/147/105 106/148/106 113/155/113 112/154/112
s 3
f 106/148/106 100/142/101 107/149/108 113/155/113
s 3
f 107/149/108 108/150/107 114/156/114
s 3
f 108/150/107 109/151/109 114/157/114
s 3
f 109/151/109 110/152/110 114/158/114
s 3
f 110/152/110 111/153/111 114/159/114
s 3
f 111/153/111 112/154/112 114/160/114
s 3
f 112/154/112 113/155/113 114/161/114
s 3
f 113/155/113 107/149/108 114/162/114
usemtl ritual_gold
s 4
f 115/163/115 116/164/116 121/169/116 120/168/115
s 4
f 116/164/116 117/165/117 122/170/117 121/169/116
s 4
f 117/165/117 118/166/118 123/171/118 122/170/117
s 4
f 118/166/118 119/167/119 124/172/119 123/171/118
s 4
f 119/167/119 115/163/115 120/168/115 124/172/119
s off
f 125/173/120 115/163/120 116/164/120
s off
f 125/173/120 116/164/120 117/165/120
s off
f 125/173/120 117/165/120 118/166/120
s off
f 125/173/120 118/166/120 119/167/120
s off
f 125/173/120 119/167/120 115/163/120
s off
f 126/174/121 121/169/121 120/168/121
s off
f 126/174/121 122/170/121 121/169/121
s off
f 126/174/121 123/171/121 122/170/121
s off
f 126/174/121 124/172/121 123/171/121
s off
f 126/174/121 120/168/121 124/172/121
usemtl wrought_iron
s 5
f 127/175/122 128/176/123 133/181/123 132/180/122
s 5
f 128/176/123 129/177/124 134/182/124 133/181/123
s 5
f 129/177/124 130/178/125 135/183/125 134/182/124
s 5
f 130/178/125 131/179/126 136/184/126 135/183/125
s 5
f 131/179/126 127/175/122 132/180/122 136/184/126
s off
f 137/185/127 127/175/127 128/176/127
s off
f 137/185/127 128/176/127 129/177/127
s off
f 137/185/127 129/177/127 130/178/127
s off
f 137/185/127 130/178/127 131/179/127
s off
f 137/185/127 131/179/127 127/175/127
s off
f 138/186/128 133/181/128 132/180/128
s off
f 138/186/128 134/182/128 133/181/128
s off
f 138/186/128 135/183/128 134/182/128
s off
f 138/186/128 136/184/128 135/183/128
s off
f 138/186/128 132/180/128 136/184/128
s 6
f 139/187/129 140/188/130 145/193/130 144/192/129
s 6
f 140/188/130 141/189/131 146/194/131 145/193/130
s 6
f 141/189/131 142/190/132 147/195/132 146/194/131
s 6
f 142/190/132 143/191/133 148/196/133 147/195/132
s 6
f 143/191/133 139/187/129 144/192/129 148/196/133
s off
f 149/197/134 139/187/134 140/188/134
s off
f 149/197/134 140/188/134 141/189/134
s off
f 149/197/134 141/189/134 142/190/134
s off
f 149/197/134 142/190/134 143/191/134
s off
f 149/197/134 143/191/134 139/187/134
s off
f 150/198/135 145/193/135 144/192/135
s off
f 150/198/135 146/194/135 145/193/135
s off
f 150/198/135 147/195/135 146/194/135
s off
f 150/198/135 148/196/135 147/195/135
s off
f 150/198/135 144/192/135 148/196/135
