# polygonal cohort: fabricated from poly_parts.py; no lathed geometry
# generated by tools/asset-production/lathe.py
mtllib polygonal_cohort.mtl
o gas_mask
v 0.340000 0.160000 0.100000
v 0.580000 0.520000 0.100000
v 0.520000 1.050000 0.100000
v 0.250000 1.360000 0.100000
v -0.250000 1.360000 0.100000
v -0.520000 1.050000 0.100000
v -0.580000 0.520000 0.100000
v -0.340000 0.160000 0.100000
v 0.340000 0.160000 -0.100000
v 0.580000 0.520000 -0.100000
v 0.520000 1.050000 -0.100000
v 0.250000 1.360000 -0.100000
v -0.250000 1.360000 -0.100000
v -0.520000 1.050000 -0.100000
v -0.580000 0.520000 -0.100000
v -0.340000 0.160000 -0.100000
v -0.092776 1.065000 0.137500
v -0.240000 1.150000 0.137500
v -0.387224 1.065000 0.137500
v -0.387224 0.895000 0.137500
v -0.240000 0.810000 0.137500
v -0.092776 0.895000 0.137500
v -0.092776 1.065000 0.102500
v -0.240000 1.150000 0.102500
v -0.387224 1.065000 0.102500
v -0.387224 0.895000 0.102500
v -0.240000 0.810000 0.102500
v -0.092776 0.895000 0.102500
v 0.387224 1.065000 0.137500
v 0.240000 1.150000 0.137500
v 0.092776 1.065000 0.137500
v 0.092776 0.895000 0.137500
v 0.240000 0.810000 0.137500
v 0.387224 0.895000 0.137500
v 0.387224 1.065000 0.102500
v 0.240000 1.150000 0.102500
v 0.092776 1.065000 0.102500
v 0.092776 0.895000 0.102500
v 0.240000 0.810000 0.102500
v 0.387224 0.895000 0.102500
v -0.080545 1.056184 0.177500
v -0.053045 1.103816 0.177500
v -0.226250 1.203816 0.177500
v -0.253750 1.156184 0.177500
v -0.080545 1.056184 0.102500
v -0.053045 1.103816 0.102500
v -0.226250 1.203816 0.102500
v -0.253750 1.156184 0.102500
v -0.226250 1.156184 0.177500
v -0.253750 1.203816 0.177500
v -0.426955 1.103816 0.177500
v -0.399455 1.056184 0.177500
v -0.226250 1.156184 0.102500
v -0.253750 1.203816 0.102500
v -0.426955 1.103816 0.102500
v -0.399455 1.056184 0.102500
v -0.385705 1.080000 0.177500
v -0.440705 1.080000 0.177500
v -0.440705 0.880000 0.177500
v -0.385705 0.880000 0.177500
v -0.385705 1.080000 0.102500
v -0.440705 1.080000 0.102500
v -0.440705 0.880000 0.102500
v -0.385705 0.880000 0.102500
v -0.399455 0.903816 0.177500
v -0.426955 0.856184 0.177500
v -0.253750 0.756184 0.177500
v -0.226250 0.803816 0.177500
v -0.399455 0.903816 0.102500
v -0.426955 0.856184 0.102500
v -0.253750 0.756184 0.102500
v -0.226250 0.803816 0.102500
v -0.253750 0.803816 0.177500
v -0.226250 0.756184 0.177500
v -0.053045 0.856184 0.177500
v -0.080545 0.903816 0.177500
v -0.253750 0.803816 0.102500
v -0.226250 0.756184 0.102500
v -0.053045 0.856184 0.102500
v -0.080545 0.903816 0.102500
v -0.094295 0.880000 0.177500
v -0.039295 0.880000 0.177500
v -0.039295 1.080000 0.177500
v -0.094295 1.080000 0.177500
v -0.094295 0.880000 0.102500
v -0.039295 0.880000 0.102500
v -0.039295 1.080000 0.102500
v -0.094295 1.080000 0.102500
v 0.399455 1.056184 0.177500
v 0.426955 1.103816 0.177500
v 0.253750 1.203816 0.177500
v 0.226250 1.156184 0.177500
v 0.399455 1.056184 0.102500
v 0.426955 1.103816 0.102500
v 0.253750 1.203816 0.102500
v 0.226250 1.156184 0.102500
v 0.253750 1.156184 0.177500
v 0.226250 1.203816 0.177500
v 0.053045 1.103816 0.177500
v 0.080545 1.056184 0.177500
v 0.253750 1.156184 0.102500
v 0.226250 1.203816 0.102500
v 0.053045 1.103816 0.102500
v 0.080545 1.056184 0.102500
v 0.094295 1.080000 0.177500
v 0.039295 1.080000 0.177500
v 0.039295 0.880000 0.177500
v 0.094295 0.880000 0.177500
v 0.094295 1.080000 0.102500
v 0.039295 1.080000 0.102500
v 0.039295 0.880000 0.102500
v 0.094295 0.880000 0.102500
v 0.080545 0.903816 0.177500
v 0.053045 0.856184 0.177500
v 0.226250 0.756184 0.177500
v 0.253750 0.803816 0.177500
v 0.080545 0.903816 0.102500
v 0.053045 0.856184 0.102500
v 0.226250 0.756184 0.102500
v 0.253750 0.803816 0.102500
v 0.226250 0.803816 0.177500
v 0.253750 0.756184 0.177500
v 0.426955 0.856184 0.177500
v 0.399455 0.903816 0.177500
v 0.226250 0.803816 0.102500
v 0.253750 0.756184 0.102500
v 0.426955 0.856184 0.102500
v 0.399455 0.903816 0.102500
v 0.385705 0.880000 0.177500
v 0.440705 0.880000 0.177500
v 0.440705 1.080000 0.177500
v 0.385705 1.080000 0.177500
v 0.385705 0.880000 0.102500
v 0.440705 0.880000 0.102500
v 0.440705 1.080000 0.102500
v 0.385705 1.080000 0.102500
v 0.207846 0.600000 0.220000
v 0.000000 0.720000 0.220000
v -0.207846 0.600000 0.220000
v -0.207846 0.360000 0.220000
v -0.000000 0.240000 0.220000
v 0.207846 0.360000 0.220000
v 0.207846 0.600000 -0.020000
v 0.000000 0.720000 -0.020000
v -0.207846 0.600000 -0.020000
v -0.207846 0.360000 -0.020000
v -0.000000 0.240000 -0.020000
v 0.207846 0.360000 -0.020000
v -0.226747 0.474190 0.270000
v -0.345810 0.593253 0.270000
v -0.514190 0.593253 0.270000
v -0.633253 0.474190 0.270000
v -0.633253 0.305810 0.270000
v -0.514190 0.186747 0.270000
v -0.345810 0.186747 0.270000
v -0.226747 0.305810 0.270000
v -0.226747 0.474190 -0.030000
v -0.345810 0.593253 -0.030000
v -0.514190 0.593253 -0.030000
v -0.633253 0.474190 -0.030000
v -0.633253 0.305810 -0.030000
v -0.514190 0.186747 -0.030000
v -0.345810 0.186747 -0.030000
v -0.226747 0.305810 -0.030000
v 0.633253 0.474190 0.270000
v 0.514190 0.593253 0.270000
v 0.345810 0.593253 0.270000
v 0.226747 0.474190 0.270000
v 0.226747 0.305810 0.270000
v 0.345810 0.186747 0.270000
v 0.514190 0.186747 0.270000
v 0.633253 0.305810 0.270000
v 0.633253 0.474190 -0.030000
v 0.514190 0.593253 -0.030000
v 0.345810 0.593253 -0.030000
v 0.226747 0.474190 -0.030000
v 0.226747 0.305810 -0.030000
v 0.345810 0.186747 -0.030000
v 0.514190 0.186747 -0.030000
v 0.633253 0.305810 -0.030000
v -0.510984 0.798875 -0.102500
v -0.449016 0.841125 -0.102500
v -0.749016 1.281125 -0.102500
v -0.810984 1.238875 -0.102500
v -0.510984 0.798875 -0.157500
v -0.449016 0.841125 -0.157500
v -0.749016 1.281125 -0.157500
v -0.810984 1.238875 -0.157500
v 0.449016 0.841125 -0.102500
v 0.510984 0.798875 -0.102500
v 0.810984 1.238875 -0.102500
v 0.749016 1.281125 -0.102500
v 0.449016 0.841125 -0.157500
v 0.510984 0.798875 -0.157500
v 0.810984 1.238875 -0.157500
v 0.749016 1.281125 -0.157500
vt 0.793103 0.000000
vt 1.000000 0.300000
vt 0.948276 0.741667
vt 0.715517 1.000000
vt 0.284483 1.000000
vt 0.051724 0.741667
vt 0.000000 0.300000
vt 0.206897 0.000000
vt 0.793103 0.000000
vt 1.000000 0.300000
vt 0.948276 0.741667
vt 0.715517 1.000000
vt 0.284483 1.000000
vt 0.051724 0.741667
vt 0.000000 0.300000
vt 0.206897 0.000000
vt 1.000000 0.750000
vt 0.500000 1.000000
vt 0.000000 0.750000
vt 0.000000 0.250000
vt 0.500000 0.000000
vt 1.000000 0.250000
vt 1.000000 0.750000
vt 0.500000 1.000000
vt 0.000000 0.750000
vt 0.000000 0.250000
vt 0.500000 0.000000
vt 1.000000 0.250000
vt 1.000000 0.750000
vt 0.500000 1.000000
vt 0.000000 0.750000
vt 0.000000 0.250000
vt 0.500000 0.000000
vt 1.000000 0.250000
vt 1.000000 0.750000
vt 0.500000 1.000000
vt 0.000000 0.750000
vt 0.000000 0.250000
vt 0.500000 0.000000
vt 1.000000 0.250000
vt 0.862983 0.000000
vt 1.000000 0.322637
vt 0.137017 1.000000
vt 0.000000 0.677363
vt 0.862983 0.000000
vt 1.000000 0.322637
vt 0.137017 1.000000
vt 0.000000 0.677363
vt 1.000000 0.677363
vt 0.862983 1.000000
vt 0.000000 0.322637
vt 0.137017 0.000000
vt 1.000000 0.677363
vt 0.862983 1.000000
vt 0.000000 0.322637
vt 0.137017 0.000000
vt 1.000000 1.000000
vt 0.000000 1.000000
vt 0.000000 0.000000
vt 1.000000 0.000000
vt 1.000000 1.000000
vt 0.000000 1.000000
vt 0.000000 0.000000
vt 1.000000 0.000000
vt 0.137017 1.000000
vt 0.000000 0.677363
vt 0.862983 0.000000
vt 1.000000 0.322637
vt 0.137017 1.000000
vt 0.000000 0.677363
vt 0.862983 0.000000
vt 1.000000 0.322637
vt 0.000000 0.322637
vt 0.137017 0.000000
vt 1.000000 0.677363
vt 0.862983 1.000000
vt 0.000000 0.322637
vt 0.137017 0.000000
vt 1.000000 0.677363
vt 0.862983 1.000000
vt 0.000000 0.000000
vt 1.000000 0.000000
vt 1.000000 1.000000
vt 0.000000 1.000000
vt 0.000000 0.000000
vt 1.000000 0.000000
vt 1.000000 1.000000
vt 0.000000 1.000000
vt 0.862983 0.000000
vt 1.000000 0.322637
vt 0.137017 1.000000
vt 0.000000 0.677363
vt 0.862983 0.000000
vt 1.000000 0.322637
vt 0.137017 1.000000
vt 0.000000 0.677363
vt 1.000000 0.677363
vt 0.862983 1.000000
vt 0.000000 0.322637
vt 0.137017 0.000000
vt 1.000000 0.677363
vt 0.862983 1.000000
vt 0.000000 0.322637
vt 0.137017 0.000000
vt 1.000000 1.000000
vt 0.000000 1.000000
vt 0.000000 0.000000
vt 1.000000 0.000000
vt 1.000000 1.000000
vt 0.000000 1.000000
vt 0.000000 0.000000
vt 1.000000 0.000000
vt 0.137017 1.000000
vt 0.000000 0.677363
vt 0.862983 0.000000
vt 1.000000 0.322637
vt 0.137017 1.000000
vt 0.000000 0.677363
vt 0.862983 0.000000
vt 1.000000 0.322637
vt 0.000000 0.322637
vt 0.137017 0.000000
vt 1.000000 0.677363
vt 0.862983 1.000000
vt 0.000000 0.322637
vt 0.137017 0.000000
vt 1.000000 0.677363
vt 0.862983 1.000000
vt 0.000000 0.000000
vt 1.000000 0.000000
vt 1.000000 1.000000
vt 0.000000 1.000000
vt 0.000000 0.000000
vt 1.000000 0.000000
vt 1.000000 1.000000
vt 0.000000 1.000000
vt 1.000000 0.750000
vt 0.500000 1.000000
vt 0.000000 0.750000
vt 0.000000 0.250000
vt 0.500000 0.000000
vt 1.000000 0.250000
vt 1.000000 0.750000
vt 0.500000 1.000000
vt 0.000000 0.750000
vt 0.000000 0.250000
vt 0.500000 0.000000
vt 1.000000 0.250000
vt 1.000000 0.707107
vt 0.707107 1.000000
vt 0.292893 1.000000
vt 0.000000 0.707107
vt 0.000000 0.292893
vt 0.292893 0.000000
vt 0.707107 0.000000
vt 1.000000 0.292893
vt 1.000000 0.707107
vt 0.707107 1.000000
vt 0.292893 1.000000
vt 0.000000 0.707107
vt 0.000000 0.292893
vt 0.292893 0.000000
vt 0.707107 0.000000
vt 1.000000 0.292893
vt 1.000000 0.707107
vt 0.707107 1.000000
vt 0.292893 1.000000
vt 0.000000 0.707107
vt 0.000000 0.292893
vt 0.292893 0.000000
vt 0.707107 0.000000
vt 1.000000 0.292893
vt 1.000000 0.707107
vt 0.707107 1.000000
vt 0.292893 1.000000
vt 0.000000 0.707107
vt 0.000000 0.292893
vt 0.292893 0.000000
vt 0.707107 0.000000
vt 1.000000 0.292893
vt 0.828805 0.000000
vt 1.000000 0.087611
vt 0.171195 1.000000
vt 0.000000 0.912389
vt 0.828805 0.000000
vt 1.000000 0.087611
vt 0.171195 1.000000
vt 0.000000 0.912389
vt 0.000000 0.087611
vt 0.171195 0.000000
vt 1.000000 0.912389
vt 0.828805 1.000000
vt 0.000000 0.087611
vt 0.171195 0.000000
vt 1.000000 0.912389
vt 0.828805 1.000000
vn 0.000000 0.000000 1.000000
vn 0.000000 0.000000 -1.000000
vn 0.832050 -0.554700 0.000000
vn 0.993653 0.112489 0.000000
vn 0.754082 0.656781 0.000000
vn 0.000000 1.000000 0.000000
vn -0.754082 0.656781 0.000000
vn -0.993653 0.112489 0.000000
vn -0.832050 -0.554700 -0.000000
vn 0.000000 -1.000000 0.000000
vn 0.500000 0.866025 0.000000
vn -0.500000 0.866025 0.000000
vn -1.000000 0.000000 0.000000
vn -0.500000 -0.866025 -0.000000
vn 0.500000 -0.866025 0.000000
vn 1.000000 0.000000 0.000000
vn 0.866025 -0.500000 0.000000
vn -0.866025 0.500000 0.000000
vn 0.866025 0.500000 0.000000
vn -0.866025 -0.500000 -0.000000
vn 0.707107 0.707107 0.000000
vn -0.707107 0.707107 0.000000
vn -0.707107 -0.707107 -0.000000
vn 0.707107 -0.707107 0.000000
vn 0.563337 -0.826227 0.000000
vn 0.826227 0.563337 0.000000
vn -0.563337 0.826227 0.000000
vn -0.826227 -0.563337 -0.000000
vn -0.563337 -0.826227 -0.000000
vn 0.826227 -0.563337 0.000000
vn 0.563337 0.826227 0.000000
vn -0.826227 0.563337 0.000000
usemtl aged_cloth
s off
f 1/1/1 2/2/1 3/3/1
s off
f 9/9/2 11/11/2 10/10/2
s off
f 1/1/1 3/3/1 4/4/1
s off
f 9/9/2 12/12/2 11/11/2
s off
f 1/1/1 4/4/1 5/5/1
s off
f 9/9/2 13/13/2 12/12/2
s off
f 1/1/1 5/5/1 6/6/1
s off
f 9/9/2 14/14/2 13/13/2
s off
f 1/1/1 6/6/1 7/7/1
s off
f 9/9/2 15/15/2 14/14/2
s off
f 1/1/1 7/7/1 8/8/1
s off
f 9/9/2 16/16/2 15/15/2
s off
f 1/1/3 9/9/3 10/10/3 2/2/3
s off
f 2/2/4 10/10/4 11/11/4 3/3/4
s off
f 3/3/5 11/11/5 12/12/5 4/4/5
s off
f 4/4/6 12/12/6 13/13/6 5/5/6
s off
f 5/5/7 13/13/7 14/14/7 6/6/7
s off
f 6/6/8 14/14/8 15/15/8 7/7/8
s off
f 7/7/9 15/15/9 16/16/9 8/8/9
s off
f 8/8/10 16/16/10 9/9/10 1/1/10
usemtl smoked_glass
s off
f 17/17/1 18/18/1 19/19/1
s off
f 23/23/2 25/25/2 24/24/2
s off
f 17/17/1 19/19/1 20/20/1
s off
f 23/23/2 26/26/2 25/25/2
s off
f 17/17/1 20/20/1 21/21/1
s off
f 23/23/2 27/27/2 26/26/2
s off
f 17/17/1 21/21/1 22/22/1
s off
f 23/23/2 28/28/2 27/27/2
s off
f 17/17/11 23/23/11 24/24/11 18/18/11
s off
f 18/18/12 24/24/12 25/25/12 19/19/12
s off
f 19/19/13 25/25/13 26/26/13 20/20/13
s off
f 20/20/14 26/26/14 27/27/14 21/21/14
s off
f 21/21/15 27/27/15 28/28/15 22/22/15
s off
f 22/22/16 28/28/16 23/23/16 17/17/16
s off
f 29/29/1 30/30/1 31/31/1
s off
f 35/35/2 37/37/2 36/36/2
s off
f 29/29/1 31/31/1 32/32/1
s off
f 35/35/2 38/38/2 37/37/2
s off
f 29/29/1 32/32/1 33/33/1
s off
f 35/35/2 39/39/2 38/38/2
s off
f 29/29/1 33/33/1 34/34/1
s off
f 35/35/2 40/40/2 39/39/2
s off
f 29/29/11 35/35/11 36/36/11 30/30/11
s off
f 30/30/12 36/36/12 37/37/12 31/31/12
s off
f 31/31/13 37/37/13 38/38/13 32/32/13
s off
f 32/32/14 38/38/14 39/39/14 33/33/14
s off
f 33/33/15 39/39/15 40/40/15 34/34/15
s off
f 34/34/16 40/40/16 35/35/16 29/29/16
usemtl wrought_iron
s off
f 41/41/1 42/42/1 43/43/1
s off
f 45/45/2 47/47/2 46/46/2
s off
f 41/41/1 43/43/1 44/44/1
s off
f 45/45/2 48/48/2 47/47/2
s off
f 41/41/17 45/45/17 46/46/17 42/42/17
s off
f 42/42/11 46/46/11 47/47/11 43/43/11
s off
f 43/43/18 47/47/18 48/48/18 44/44/18
s off
f 44/44/14 48/48/14 45/45/14 41/41/14
s off
f 49/49/1 50/50/1 51/51/1
s off
f 53/53/2 55/55/2 54/54/2
s off
f 49/49/1 51/51/1 52/52/1
s off
f 53/53/2 56/56/2 55/55/2
s off
f 49/49/19 53/53/19 54/54/19 50/50/19
s off
f 50/50/12 54/54/12 55/55/12 51/51/12
s off
f 51/51/20 55/55/20 56/56/20 52/52/20
s off
f 52/52/15 56/56/15 53/53/15 49/49/15
s off
f 57/57/1 58/58/1 59/59/1
s off
f 61/61/2 63/63/2 62/62/2
s off
f 57/57/1 59/59/1 60/60/1
s off
f 61/61/2 64/64/2 63/63/2
s off
f 57/57/6 61/61/6 62/62/6 58/58/6
s off
f 58/58/13 62/62/13 63/63/13 59/59/13
s off
f 59/59/10 63/63/10 64/64/10 60/60/10
s off
f 60/60/16 64/64/16 61/61/16 57/57/16
s off
f 65/65/1 66/66/1 67/67/1
s off
f 69/69/2 71/71/2 70/70/2
s off
f 65/65/1 67/67/1 68/68/1
s off
f 69/69/2 72/72/2 71/71/2
s off
f 65/65/18 69/69/18 70/70/18 66/66/18
s off
f 66/66/14 70/70/14 71/71/14 67/67/14
s off
f 67/67/17 71/71/17 72/72/17 68/68/17
s off
f 68/68/11 72/72/11 69/69/11 65/65/11
s off
f 73/73/1 74/74/1 75/75/1
s off
f 77/77/2 79/79/2 78/78/2
s off
f 73/73/1 75/75/1 76/76/1
s off
f 77/77/2 80/80/2 79/79/2
s off
f 73/73/20 77/77/20 78/78/20 74/74/20
s off
f 74/74/15 78/78/15 79/79/15 75/75/15
s off
f 75/75/19 79/79/19 80/80/19 76/76/19
s off
f 76/76/12 80/80/12 77/77/12 73/73/12
s off
f 81/81/1 82/82/1 83/83/1
s off
f 85/85/2 87/87/2 86/86/2
s off
f 81/81/1 83/83/1 84/84/1
s off
f 85/85/2 88/88/2 87/87/2
s off
f 81/81/10 85/85/10 86/86/10 82/82/10
s off
f 82/82/16 86/86/16 87/87/16 83/83/16
s off
f 83/83/6 87/87/6 88/88/6 84/84/6
s off
f 84/84/13 88/88/13 85/85/13 81/81/13
s off
f 89/89/1 90/90/1 91/91/1
s off
f 93/93/2 95/95/2 94/94/2
s off
f 89/89/1 91/91/1 92/92/1
s off
f 93/93/2 96/96/2 95/95/2
s off
f 89/89/17 93/93/17 94/94/17 90/90/17
s off
f 90/90/11 94/94/11 95/95/11 91/91/11
s off
f 91/91/18 95/95/18 96/96/18 92/92/18
s off
f 92/92/14 96/96/14 93/93/14 89/89/14
s off
f 97/97/1 98/98/1 99/99/1
s off
f 101/101/2 103/103/2 102/102/2
s off
f 97/97/1 99/99/1 100/100/1
s off
f 101/101/2 104/104/2 103/103/2
s off
f 97/97/19 101/101/19 102/102/19 98/98/19
s off
f 98/98/12 102/102/12 103/103/12 99/99/12
s off
f 99/99/20 103/103/20 104/104/20 100/100/20
s off
f 100/100/15 104/104/15 101/101/15 97/97/15
s off
f 105/105/1 106/106/1 107/107/1
s off
f 109/109/2 111/111/2 110/110/2
s off
f 105/105/1 107/107/1 108/108/1
s off
f 109/109/2 112/112/2 111/111/2
s off
f 105/105/6 109/109/6 110/110/6 106/106/6
s off
f 106/106/13 110/110/13 111/111/13 107/107/13
s off
f 107/107/10 111/111/10 112/112/10 108/108/10
s off
f 108/108/16 112/112/16 109/109/16 105/105/16
s off
f 113/113/1 114/114/1 115/115/1
s off
f 117/117/2 119/119/2 118/118/2
s off
f 113/113/1 115/115/1 116/116/1
s off
f 117/117/2 120/120/2 119/119/2
s off
f 113/113/18 117/117/18 118/118/18 114/114/18
s off
f 114/114/14 118/118/14 119/119/14 115/115/14
s off
f 115/115/17 119/119/17 120/120/17 116/116/17
s off
f 116/116/11 120/120/11 117/117/11 113/113/11
s off
f 121/121/1 122/122/1 123/123/1
s off
f 125/125/2 127/127/2 126/126/2
s off
f 121/121/1 123/123/1 124/124/1
s off
f 125/125/2 128/128/2 127/127/2
s off
f 121/121/20 125/125/20 126/126/20 122/122/20
s off
f 122/122/15 126/126/15 127/127/15 123/123/15
s off
f 123/123/19 127/127/19 128/128/19 124/124/19
s off
f 124/124/12 128/128/12 125/125/12 121/121/12
s off
f 129/129/1 130/130/1 131/131/1
s off
f 133/133/2 135/135/2 134/134/2
s off
f 129/129/1 131/131/1 132/132/1
s off
f 133/133/2 136/136/2 135/135/2
s off
f 129/129/10 133/133/10 134/134/10 130/130/10
s off
f 130/130/16 134/134/16 135/135/16 131/131/16
s off
f 131/131/6 135/135/6 136/136/6 132/132/6
s off
f 132/132/13 136/136/13 133/133/13 129/129/13
s off
f 137/137/1 138/138/1 139/139/1
s off
f 143/143/2 145/145/2 144/144/2
s off
f 137/137/1 139/139/1 140/140/1
s off
f 143/143/2 146/146/2 145/145/2
s off
f 137/137/1 140/140/1 141/141/1
s off
f 143/143/2 147/147/2 146/146/2
s off
f 137/137/1 141/141/1 142/142/1
s off
f 143/143/2 148/148/2 147/147/2
s off
f 137/137/11 143/143/11 144/144/11 138/138/11
s off
f 138/138/12 144/144/12 145/145/12 139/139/12
s off
f 139/139/13 145/145/13 146/146/13 140/140/13
s off
f 140/140/14 146/146/14 147/147/14 141/141/14
s off
f 141/141/15 147/147/15 148/148/15 142/142/15
s off
f 142/142/16 148/148/16 143/143/16 137/137/16
usemtl wet_residue
s off
f 149/149/1 150/150/1 151/151/1
s off
f 157/157/2 159/159/2 158/158/2
s off
f 149/149/1 151/151/1 152/152/1
s off
f 157/157/2 160/160/2 159/159/2
s off
f 149/149/1 152/152/1 153/153/1
s off
f 157/157/2 161/161/2 160/160/2
s off
f 149/149/1 153/153/1 154/154/1
s off
f 157/157/2 162/162/2 161/161/2
s off
f 149/149/1 154/154/1 155/155/1
s off
f 157/157/2 163/163/2 162/162/2
s off
f 149/149/1 155/155/1 156/156/1
s off
f 157/157/2 164/164/2 163/163/2
s off
f 149/149/21 157/157/21 158/158/21 150/150/21
s off
f 150/150/6 158/158/6 159/159/6 151/151/6
s off
f 151/151/22 159/159/22 160/160/22 152/152/22
s off
f 152/152/13 160/160/13 161/161/13 153/153/13
s off
f 153/153/23 161/161/23 162/162/23 154/154/23
s off
f 154/154/10 162/162/10 163/163/10 155/155/10
s off
f 155/155/24 163/163/24 164/164/24 156/156/24
s off
f 156/156/16 164/164/16 157/157/16 149/149/16
s off
f 165/165/1 166/166/1 167/167/1
s off
f 173/173/2 175/175/2 174/174/2
s off
f 165/165/1 167/167/1 168/168/1
s off
f 173/173/2 176/176/2 175/175/2
s off
f 165/165/1 168/168/1 169/169/1
s off
f 173/173/2 177/177/2 176/176/2
s off
f 165/165/1 169/169/1 170/170/1
s off
f 173/173/2 178/178/2 177/177/2
s off
f 165/165/1 170/170/1 171/171/1
s off
f 173/173/2 179/179/2 178/178/2
s off
f 165/165/1 171/171/1 172/172/1
s off
f 173/173/2 180/180/2 179/179/2
s off
f 165/165/21 173/173/21 174/174/21 166/166/21
s off
f 166/166/6 174/174/6 175/175/6 167/167/6
s off
f 167/167/22 175/175/22 176/176/22 168/168/22
s off
f 168/168/13 176/176/13 177/177/13 169/169/13
s off
f 169/169/23 177/177/23 178/178/23 170/170/23
s off
f 170/170/10 178/178/10 179/179/10 171/171/10
s off
f 171/171/24 179/179/24 180/180/24 172/172/24
s off
f 172/172/16 180/180/16 173/173/16 165/165/16
usemtl wrought_iron
s off
f 181/181/1 182/182/1 183/183/1
s off
f 185/185/2 187/187/2 186/186/2
s off
f 181/181/1 183/183/1 184/184/1
s off
f 185/185/2 188/188/2 187/187/2
s off
f 181/181/25 185/185/25 186/186/25 182/182/25
s off
f 182/182/26 186/186/26 187/187/26 183/183/26
s off
f 183/183/27 187/187/27 188/188/27 184/184/27
s off
f 184/184/28 188/188/28 185/185/28 181/181/28
s off
f 189/189/1 190/190/1 191/191/1
s off
f 193/193/2 195/195/2 194/194/2
s off
f 189/189/1 191/191/1 192/192/1
s off
f 193/193/2 196/196/2 195/195/2
s off
f 189/189/29 193/193/29 194/194/29 190/190/29
s off
f 190/190/30 194/194/30 195/195/30 191/191/30
s off
f 191/191/31 195/195/31 196/196/31 192/192/31
s off
f 192/192/32 196/196/32 193/193/32 189/189/32
