# Second Rite deterministic item batch 63-72
# Glass Blade
mtllib item_batch_63_72.mtl
o glass_blade
s off
v -0.270000 -0.855000 -0.050000
v -0.291600 -0.505000 -0.050000
v -0.221400 1.265000 -0.050000
v 0.000000 1.815000 -0.050000
v 0.221400 1.265000 -0.050000
v 0.291600 -0.505000 -0.050000
v 0.270000 -0.855000 -0.050000
v -0.270000 -0.855000 0.050000
v -0.291600 -0.505000 0.050000
v -0.221400 1.265000 0.050000
v 0.000000 1.815000 0.050000
v 0.221400 1.265000 0.050000
v 0.291600 -0.505000 0.050000
v 0.270000 -0.855000 0.050000
v -0.430000 -1.035000 -0.100000
v 0.430000 -1.035000 -0.100000
v 0.430000 -0.875000 -0.100000
v -0.430000 -0.875000 -0.100000
v -0.430000 -1.035000 0.100000
v 0.430000 -1.035000 0.100000
v 0.430000 -0.875000 0.100000
v -0.430000 -0.875000 0.100000
v -0.110000 -1.015000 0.000000
v -0.055000 -1.015000 -0.095263
v 0.055000 -1.015000 -0.095263
v 0.110000 -1.015000 -0.000000
v 0.055000 -1.015000 0.095263
v -0.055000 -1.015000 0.095263
v -0.090000 -1.635000 0.000000
v -0.045000 -1.635000 -0.077942
v 0.045000 -1.635000 -0.077942
v 0.090000 -1.635000 -0.000000
v 0.045000 -1.635000 0.077942
v -0.045000 -1.635000 0.077942
v 0.000000 -1.015000 0.000000
v 0.000000 -1.635000 0.000000
v 0.160000 -1.715000 0.000000
v 0.000000 -1.715000 0.160000
v -0.160000 -1.715000 0.000000
v -0.000000 -1.715000 -0.160000
v 0.000000 -1.615000 0.000000
v 0.000000 -1.815000 0.000000
v -0.212500 -0.810000 -0.070000
v -0.147500 -0.810000 -0.070000
v -0.147500 1.440000 -0.070000
v -0.212500 1.440000 -0.070000
v -0.212500 -0.810000 0.070000
v -0.147500 -0.810000 0.070000
v -0.147500 1.440000 0.070000
v -0.212500 1.440000 0.070000
usemtl smoked_glass
f 1 3 2
f 8 9 10
f 1 4 3
f 8 10 11
f 1 5 4
f 8 11 12
f 1 6 5
f 8 12 13
f 1 7 6
f 8 13 14
f 1 2 9
f 1 9 8
f 2 3 10
f 2 10 9
f 3 4 11
f 3 11 10
f 4 5 12
f 4 12 11
f 5 6 13
f 5 13 12
f 6 7 14
f 6 14 13
f 7 1 8
f 7 8 14
usemtl ritual_gold
f 15 18 17
f 15 17 16
f 19 20 21
f 19 21 22
f 15 16 20
f 15 20 19
f 18 22 21
f 18 21 17
f 15 19 22
f 15 22 18
f 16 17 21
f 16 21 20
usemtl dark_wood
f 35 24 23
f 36 29 30
f 23 24 30
f 23 30 29
f 35 25 24
f 36 30 31
f 24 25 31
f 24 31 30
f 35 26 25
f 36 31 32
f 25 26 32
f 25 32 31
f 35 27 26
f 36 32 33
f 26 27 33
f 26 33 32
f 35 28 27
f 36 33 34
f 27 28 34
f 27 34 33
f 35 23 28
f 36 34 29
f 28 23 29
f 28 29 34
usemtl ritual_gold
f 41 37 38
f 42 38 37
f 41 38 39
f 42 39 38
f 41 39 40
f 42 40 39
f 41 40 37
f 42 37 40
usemtl wrought_iron
f 43 46 45
f 43 45 44
f 47 48 49
f 47 49 50
f 43 44 48
f 43 48 47
f 46 50 49
f 46 49 45
f 43 47 50
f 43 50 46
f 44 45 49
f 44 49 48
