# polygonal cohort: fabricated from poly_parts.py; no lathed geometry
# generated by tools/asset-production/lathe.py
mtllib polygonal_cohort.mtl
o greatsword
v 0.220000 0.240000 0.065000
v 0.260000 1.450000 0.065000
v 0.000000 1.960000 0.065000
v -0.260000 1.450000 0.065000
v -0.220000 0.240000 0.065000
v 0.220000 0.240000 -0.065000
v 0.260000 1.450000 -0.065000
v 0.000000 1.960000 -0.065000
v -0.260000 1.450000 -0.065000
v -0.220000 0.240000 -0.065000
v -0.027500 0.420000 0.102500
v 0.027500 0.420000 0.102500
v 0.027500 1.550000 0.102500
v -0.027500 1.550000 0.102500
v -0.027500 0.420000 0.067500
v 0.027500 0.420000 0.067500
v 0.027500 1.550000 0.067500
v -0.027500 1.550000 0.067500
v -0.580000 0.265000 0.090000
v -0.580000 0.135000 0.090000
v 0.580000 0.135000 0.090000
v 0.580000 0.265000 0.090000
v -0.580000 0.265000 -0.090000
v -0.580000 0.135000 -0.090000
v 0.580000 0.135000 -0.090000
v 0.580000 0.265000 -0.090000
v -0.075000 -0.480000 0.080000
v 0.075000 -0.480000 0.080000
v 0.075000 0.180000 0.080000
v -0.075000 0.180000 0.080000
v -0.075000 -0.480000 -0.080000
v 0.075000 -0.480000 -0.080000
v 0.075000 0.180000 -0.080000
v -0.075000 0.180000 -0.080000
v 0.164545 -0.495000 0.090000
v 0.000000 -0.400000 0.090000
v -0.164545 -0.495000 0.090000
v -0.164545 -0.685000 0.090000
v -0.000000 -0.780000 0.090000
v 0.164545 -0.685000 0.090000
v 0.164545 -0.495000 -0.090000
v 0.000000 -0.400000 -0.090000
v -0.164545 -0.495000 -0.090000
v -0.164545 -0.685000 -0.090000
v -0.000000 -0.780000 -0.090000
v 0.164545 -0.685000 -0.090000
vt 0.923077 0.000000
vt 1.000000 0.703488
vt 0.500000 1.000000
vt 0.000000 0.703488
vt 0.076923 0.000000
vt 0.923077 0.000000
vt 1.000000 0.703488
vt 0.500000 1.000000
vt 0.000000 0.703488
vt 0.076923 0.000000
vt 0.000000 0.000000
vt 1.000000 0.000000
vt 1.000000 1.000000
vt 0.000000 1.000000
vt 0.000000 0.000000
vt 1.000000 0.000000
vt 1.000000 1.000000
vt 0.000000 1.000000
vt 0.000000 1.000000
vt 0.000000 0.000000
vt 1.000000 0.000000
vt 1.000000 1.000000
vt 0.000000 1.000000
vt 0.000000 0.000000
vt 1.000000 0.000000
vt 1.000000 1.000000
vt 0.000000 0.000000
vt 1.000000 0.000000
vt 1.000000 1.000000
vt 0.000000 1.000000
vt 0.000000 0.000000
vt 1.000000 0.000000
vt 1.000000 1.000000
vt 0.000000 1.000000
vt 1.000000 0.750000
vt 0.500000 1.000000
vt 0.000000 0.750000
vt 0.000000 0.250000
vt 0.500000 0.000000
vt 1.000000 0.250000
vt 1.000000 0.750000
vt 0.500000 1.000000
vt 0.000000 0.750000
vt 0.000000 0.250000
vt 0.500000 0.000000
vt 1.000000 0.250000
vn 0.000000 -0.000000 1.000000
vn 0.000000 0.000000 -1.000000
vn 0.999454 -0.033040 0.000000
vn 0.890906 0.454187 0.000000
vn -0.890906 0.454187 0.000000
vn -0.999454 -0.033040 -0.000000
vn 0.000000 -1.000000 0.000000
vn 1.000000 0.000000 0.000000
vn 0.000000 1.000000 0.000000
vn -1.000000 0.000000 -0.000000
vn 0.500000 0.866025 0.000000
vn -0.500000 0.866025 0.000000
vn -0.500000 -0.866025 -0.000000
vn 0.500000 -0.866025 0.000000
usemtl wrought_iron
s off
f 1/1/1 2/2/1 3/3/1
s off
f 6/6/2 8/8/2 7/7/2
s off
f 1/1/1 3/3/1 4/4/1
s off
f 6/6/2 9/9/2 8/8/2
s off
f 1/1/1 4/4/1 5/5/1
s off
f 6/6/2 10/10/2 9/9/2
s off
f 1/1/3 6/6/3 7/7/3 2/2/3
s off
f 2/2/4 7/7/4 8/8/4 3/3/4
s off
f 3/3/5 8/8/5 9/9/5 4/4/5
s off
f 4/4/6 9/9/6 10/10/6 5/5/6
s off
f 5/5/7 10/10/7 6/6/7 1/1/7
usemtl ritual_gold
s off
f 11/11/1 12/12/1 13/13/1
s off
f 15/15/2 17/17/2 16/16/2
s off
f 11/11/1 13/13/1 14/14/1
s off
f 15/15/2 18/18/2 17/17/2
s off
f 11/11/7 15/15/7 16/16/7 12/12/7
s off
f 12/12/8 16/16/8 17/17/8 13/13/8
s off
f 13/13/9 17/17/9 18/18/9 14/14/9
s off
f 14/14/10 18/18/10 15/15/10 11/11/10
usemtl oxidized_bronze
s off
f 19/19/1 20/20/1 21/21/1
s off
f 23/23/2 25/25/2 24/24/2
s off
f 19/19/1 21/21/1 22/22/1
s off
f 23/23/2 26/26/2 25/25/2
s off
f 19/19/10 23/23/10 24/24/10 20/20/10
s off
f 20/20/7 24/24/7 25/25/7 21/21/7
s off
f 21/21/8 25/25/8 26/26/8 22/22/8
s off
f 22/22/9 26/26/9 23/23/9 19/19/9
usemtl dark_wood
s off
f 27/27/1 28/28/1 29/29/1
s off
f 31/31/2 33/33/2 32/32/2
s off
f 27/27/1 29/29/1 30/30/1
s off
f 31/31/2 34/34/2 33/33/2
s off
f 27/27/7 31/31/7 32/32/7 28/28/7
s off
f 28/28/8 32/32/8 33/33/8 29/29/8
s off
f 29/29/9 33/33/9 34/34/9 30/30/9
s off
f 30/30/10 34/34/10 31/31/10 27/27/10
usemtl ritual_gold
s off
f 35/35/1 36/36/1 37/37/1
s off
f 41/41/2 43/43/2 42/42/2
s off
f 35/35/1 37/37/1 38/38/1
s off
f 41/41/2 44/44/2 43/43/2
s off
f 35/35/1 38/38/1 39/39/1
s off
f 41/41/2 45/45/2 44/44/2
s off
f 35/35/1 39/39/1 40/40/1
s off
f 41/41/2 46/46/2 45/45/2
s off
f 35/35/11 41/41/11 42/42/11 36/36/11
s off
f 36/36/12 42/42/12 43/43/12 37/37/12
s off
f 37/37/10 43/43/10 44/44/10 38/38/10
s off
f 38/38/13 44/44/13 45/45/13 39/39/13
s off
f 39/39/14 45/45/14 46/46/14 40/40/14
s off
f 40/40/8 46/46/8 41/41/8 35/35/8
