# Batch C: authored as spatial sweep gestures
# generated by tools/asset-production/lathe.py
mtllib swept_cohort.mtl
o hermes_boots
v -0.300617 -0.771392 0.416944
v -0.386343 -0.635846 0.436308
v -0.386343 -0.444154 0.463692
v -0.300617 -0.308608 0.483056
v -0.179383 -0.308608 0.483056
v -0.093657 -0.444154 0.463692
v -0.093657 -0.635846 0.436308
v -0.179383 -0.771392 0.416944
v -0.310261 -0.795408 0.121661
v -0.409624 -0.622362 0.149977
v -0.409624 -0.377638 0.190023
v -0.310261 -0.204592 0.218339
v -0.169739 -0.204592 0.218339
v -0.070376 -0.377638 0.190023
v -0.070376 -0.622362 0.149977
v -0.169739 -0.795408 0.121661
v -0.291798 -0.662016 -0.226200
v -0.398886 -0.546078 -0.157189
v -0.412901 -0.373859 -0.054678
v -0.325632 -0.246242 0.021284
v -0.188202 -0.237984 0.026200
v -0.081114 -0.353922 -0.042811
v -0.067099 -0.526141 -0.145322
v -0.154368 -0.653758 -0.221284
v -0.251524 -0.310285 -0.436592
v -0.380804 -0.293134 -0.367910
v -0.427603 -0.250715 -0.230158
v -0.364507 -0.207877 -0.104029
v -0.228476 -0.189715 -0.063408
v -0.099196 -0.206866 -0.132090
v -0.052397 -0.249285 -0.269842
v -0.115493 -0.292123 -0.395971
v -0.178079 0.086958 -0.415450
v -0.308019 0.079745 -0.444731
v -0.409830 0.072681 -0.371656
v -0.423873 0.069905 -0.239033
v -0.341921 0.073042 -0.124550
v -0.211981 0.080255 -0.095269
v -0.110170 0.087319 -0.168344
v -0.096127 0.090095 -0.300967
v -0.119791 0.449232 -0.357570
v -0.249276 0.449261 -0.444231
v -0.396759 0.438007 -0.411256
v -0.475846 0.422063 -0.277962
v -0.440209 0.410768 -0.122430
v -0.310724 0.410739 -0.035769
v -0.163241 0.421993 -0.068744
v -0.084154 0.437937 -0.202038
v -0.240000 -0.540000 0.450000
v -0.280000 0.430000 -0.240000
v -0.212500 -0.510844 0.496916
v -0.212500 -0.849156 0.463084
v -0.267500 -0.849156 0.463084
v -0.267500 -0.510844 0.496916
v -0.212500 -0.456314 0.202597
v -0.212500 -0.843686 0.157403
v -0.267500 -0.843686 0.157403
v -0.267500 -0.456314 0.202597
v -0.218450 -0.445583 -0.073534
v -0.206584 -0.772569 -0.165944
v -0.261550 -0.774417 -0.166466
v -0.273416 -0.447431 -0.074056
v -0.240129 -0.404188 -0.214856
v -0.186072 -0.625846 -0.339538
v -0.239871 -0.635812 -0.345144
v -0.293928 -0.414154 -0.220462
v -0.240000 -0.680000 0.480000
v -0.240000 -0.520000 -0.280000
v 0.022652 -0.025740 -0.275897
v -0.008652 -0.023108 -0.285722
v -0.028000 -0.030000 -0.260000
v -0.008652 -0.036892 -0.234278
v 0.022652 -0.034260 -0.244103
v -0.029566 0.091680 -0.244434
v -0.052051 0.073273 -0.259897
v -0.065947 0.053378 -0.237659
v -0.052051 0.059489 -0.208453
v -0.029566 0.083161 -0.212640
v -0.160473 0.160875 -0.225894
v -0.167884 0.134129 -0.243591
v -0.172465 0.109080 -0.222734
v -0.167884 0.120345 -0.192146
v -0.160473 0.152356 -0.194099
v -0.319527 0.160875 -0.225894
v -0.312116 0.134129 -0.243591
v -0.307535 0.109080 -0.222734
v -0.312116 0.120345 -0.192146
v -0.319527 0.152356 -0.194099
v -0.450434 0.091680 -0.244434
v -0.427949 0.073273 -0.259897
v -0.414053 0.053378 -0.237659
v -0.427949 0.059489 -0.208453
v -0.450434 0.083161 -0.212640
v -0.502652 -0.025740 -0.275897
v -0.471348 -0.023108 -0.285722
v -0.452000 -0.030000 -0.260000
v -0.471348 -0.036892 -0.234278
v -0.502652 -0.034260 -0.244103
v -0.450434 -0.143161 -0.307360
v -0.427949 -0.119489 -0.311547
v -0.414053 -0.113378 -0.282341
v -0.427949 -0.133273 -0.260103
v -0.450434 -0.151680 -0.275566
v -0.319527 -0.212356 -0.325901
v -0.312116 -0.180345 -0.327854
v -0.307535 -0.169080 -0.297266
v -0.312116 -0.194129 -0.276409
v -0.319527 -0.220875 -0.294106
v -0.160473 -0.212356 -0.325901
v -0.167884 -0.180345 -0.327854
v -0.172465 -0.169080 -0.297266
v -0.167884 -0.194129 -0.276409
v -0.160473 -0.220875 -0.294106
v -0.029566 -0.143161 -0.307360
v -0.052051 -0.119489 -0.311547
v -0.065947 -0.113378 -0.282341
v -0.052051 -0.133273 -0.260103
v -0.029566 -0.151680 -0.275566
v -0.430303 -0.031975 -0.259504
v -0.419879 -0.041402 -0.160496
v -0.389697 -0.008025 -0.160496
v -0.400121 0.001402 -0.259504
v -0.625246 0.164316 -0.210639
v -0.638017 0.151031 -0.137938
v -0.612754 0.173684 -0.129361
v -0.599983 0.186969 -0.202062
v -0.790294 0.397643 -0.216473
v -0.802081 0.392138 -0.191679
v -0.789706 0.402357 -0.183527
v -0.777919 0.407862 -0.208321
v -0.410000 -0.020000 -0.210000
v -0.790000 0.400000 -0.200000
v -0.431346 0.088754 -0.269235
v -0.418209 0.077312 -0.170765
v -0.388654 0.111246 -0.170765
v -0.401791 0.122688 -0.269235
v -0.586883 0.243735 -0.220609
v -0.598998 0.230149 -0.147851
v -0.574117 0.253265 -0.139391
v -0.562002 0.266851 -0.212149
v -0.720040 0.427256 -0.226415
v -0.732048 0.422121 -0.201648
v -0.719960 0.432744 -0.193585
v -0.707952 0.437879 -0.218352
v -0.410000 0.100000 -0.220000
v -0.720000 0.430000 -0.210000
v -0.433147 0.190164 -0.278721
v -0.416043 0.175587 -0.181279
v -0.386853 0.209836 -0.181279
v -0.403957 0.224413 -0.278721
v -0.548674 0.307715 -0.230559
v -0.560023 0.293907 -0.157720
v -0.535326 0.317285 -0.149441
v -0.523977 0.331093 -0.222280
v -0.649693 0.446684 -0.236307
v -0.662136 0.442298 -0.211610
v -0.650307 0.453316 -0.203693
v -0.637864 0.457702 -0.228390
v -0.410000 0.200000 -0.230000
v -0.650000 0.450000 -0.220000
v 0.179383 -0.771392 0.416944
v 0.093657 -0.635846 0.436308
v 0.093657 -0.444154 0.463692
v 0.179383 -0.308608 0.483056
v 0.300617 -0.308608 0.483056
v 0.386343 -0.444154 0.463692
v 0.386343 -0.635846 0.436308
v 0.300617 -0.771392 0.416944
v 0.169739 -0.795408 0.121661
v 0.070376 -0.622362 0.149977
v 0.070376 -0.377638 0.190023
v 0.169739 -0.204592 0.218339
v 0.310261 -0.204592 0.218339
v 0.409624 -0.377638 0.190023
v 0.409624 -0.622362 0.149977
v 0.310261 -0.795408 0.121661
v 0.188202 -0.662016 -0.226200
v 0.081114 -0.546078 -0.157189
v 0.067099 -0.373859 -0.054678
v 0.154368 -0.246242 0.021284
v 0.291798 -0.237984 0.026200
v 0.398886 -0.353922 -0.042811
v 0.412901 -0.526141 -0.145322
v 0.325632 -0.653758 -0.221284
v 0.228476 -0.309497 -0.436845
v 0.099196 -0.283498 -0.371001
v 0.052397 -0.237877 -0.234276
v 0.115493 -0.199357 -0.106762
v 0.251524 -0.190503 -0.063155
v 0.380804 -0.216502 -0.128999
v 0.427603 -0.262123 -0.265724
v 0.364507 -0.300643 -0.393238
v 0.345233 0.077099 -0.413674
v 0.215995 0.085172 -0.445709
v 0.112535 0.090216 -0.374816
v 0.095457 0.089275 -0.242523
v 0.174767 0.082901 -0.126326
v 0.304005 0.074828 -0.094291
v 0.407465 0.069784 -0.165184
v 0.424543 0.070725 -0.297477
v 0.443830 0.430418 -0.354101
v 0.317097 0.445323 -0.443505
v 0.168633 0.451252 -0.413698
v 0.085406 0.444732 -0.282141
v 0.116170 0.429582 -0.125899
v 0.242903 0.414677 -0.036495
v 0.391367 0.408748 -0.066302
v 0.474594 0.415268 -0.197859
v 0.240000 -0.540000 0.450000
v 0.280000 0.430000 -0.240000
v 0.267500 -0.510844 0.496916
v 0.267500 -0.849156 0.463084
v 0.212500 -0.849156 0.463084
v 0.212500 -0.510844 0.496916
v 0.267500 -0.456314 0.202597
v 0.267500 -0.843686 0.157403
v 0.212500 -0.843686 0.157403
v 0.212500 -0.456314 0.202597
v 0.261550 -0.445583 -0.073534
v 0.273416 -0.772569 -0.165944
v 0.218450 -0.774417 -0.166466
v 0.206584 -0.447431 -0.074056
v 0.239871 -0.404188 -0.214856
v 0.293928 -0.625846 -0.339538
v 0.240129 -0.635812 -0.345144
v 0.186072 -0.414154 -0.220462
v 0.240000 -0.680000 0.480000
v 0.240000 -0.520000 -0.280000
v 0.502652 -0.025740 -0.275897
v 0.471348 -0.023108 -0.285722
v 0.452000 -0.030000 -0.260000
v 0.471348 -0.036892 -0.234278
v 0.502652 -0.034260 -0.244103
v 0.450434 0.091680 -0.244434
v 0.427949 0.073273 -0.259897
v 0.414053 0.053378 -0.237659
v 0.427949 0.059489 -0.208453
v 0.450434 0.083161 -0.212640
v 0.319527 0.160875 -0.225894
v 0.312116 0.134129 -0.243591
v 0.307535 0.109080 -0.222734
v 0.312116 0.120345 -0.192146
v 0.319527 0.152356 -0.194099
v 0.160473 0.160875 -0.225894
v 0.167884 0.134129 -0.243591
v 0.172465 0.109080 -0.222734
v 0.167884 0.120345 -0.192146
v 0.160473 0.152356 -0.194099
v 0.029566 0.091680 -0.244434
v 0.052051 0.073273 -0.259897
v 0.065947 0.053378 -0.237659
v 0.052051 0.059489 -0.208453
v 0.029566 0.083161 -0.212640
v -0.022652 -0.025740 -0.275897
v 0.008652 -0.023108 -0.285722
v 0.028000 -0.030000 -0.260000
v 0.008652 -0.036892 -0.234278
v -0.022652 -0.034260 -0.244103
v 0.029566 -0.143161 -0.307360
v 0.052051 -0.119489 -0.311547
v 0.065947 -0.113378 -0.282341
v 0.052051 -0.133273 -0.260103
v 0.029566 -0.151680 -0.275566
v 0.160473 -0.212356 -0.325901
v 0.167884 -0.180345 -0.327854
v 0.172465 -0.169080 -0.297266
v 0.167884 -0.194129 -0.276409
v 0.160473 -0.220875 -0.294106
v 0.319527 -0.212356 -0.325901
v 0.312116 -0.180345 -0.327854
v 0.307535 -0.169080 -0.297266
v 0.312116 -0.194129 -0.276409
v 0.319527 -0.220875 -0.294106
v 0.450434 -0.143161 -0.307360
v 0.427949 -0.119489 -0.311547
v 0.414053 -0.113378 -0.282341
v 0.427949 -0.133273 -0.260103
v 0.450434 -0.151680 -0.275566
v 0.400121 0.001402 -0.259504
v 0.389697 -0.008025 -0.160496
v 0.419879 -0.041402 -0.160496
v 0.430303 -0.031975 -0.259504
v 0.599983 0.186969 -0.202062
v 0.612754 0.173684 -0.129361
v 0.638017 0.151031 -0.137938
v 0.625246 0.164316 -0.210639
v 0.777919 0.407862 -0.208321
v 0.789706 0.402357 -0.183527
v 0.802081 0.392138 -0.191679
v 0.790294 0.397643 -0.216473
v 0.410000 -0.020000 -0.210000
v 0.790000 0.400000 -0.200000
v 0.401791 0.122688 -0.269235
v 0.388654 0.111246 -0.170765
v 0.418209 0.077312 -0.170765
v 0.431346 0.088754 -0.269235
v 0.562002 0.266851 -0.212149
v 0.574117 0.253265 -0.139391
v 0.598998 0.230149 -0.147851
v 0.586883 0.243735 -0.220609
v 0.707952 0.437879 -0.218352
v 0.719960 0.432744 -0.193585
v 0.732048 0.422121 -0.201648
v 0.720040 0.427256 -0.226415
v 0.410000 0.100000 -0.220000
v 0.720000 0.430000 -0.210000
v 0.403957 0.224413 -0.278721
v 0.386853 0.209836 -0.181279
v 0.416043 0.175587 -0.181279
v 0.433147 0.190164 -0.278721
v 0.523977 0.331093 -0.222280
v 0.535326 0.317285 -0.149441
v 0.560023 0.293907 -0.157720
v 0.548674 0.307715 -0.230559
v 0.637864 0.457702 -0.228390
v 0.650307 0.453316 -0.203693
v 0.662136 0.442298 -0.211610
v 0.649693 0.446684 -0.236307
v 0.410000 0.200000 -0.230000
v 0.650000 0.450000 -0.220000
vt 0.000000 0.000000
vt 0.125000 0.000000
vt 0.250000 0.000000
vt 0.375000 0.000000
vt 0.500000 0.000000
vt 0.625000 0.000000
vt 0.750000 0.000000
vt 0.875000 0.000000
vt 0.000000 0.189764
vt 0.125000 0.189764
vt 0.250000 0.189764
vt 0.375000 0.189764
vt 0.500000 0.189764
vt 0.625000 0.189764
vt 0.750000 0.189764
vt 0.875000 0.189764
vt 0.000000 0.373992
vt 0.125000 0.373992
vt 0.250000 0.373992
vt 0.375000 0.373992
vt 0.500000 0.373992
vt 0.625000 0.373992
vt 0.750000 0.373992
vt 0.875000 0.373992
vt 0.000000 0.541721
vt 0.125000 0.541721
vt 0.250000 0.541721
vt 0.375000 0.541721
vt 0.500000 0.541721
vt 0.625000 0.541721
vt 0.750000 0.541721
vt 0.875000 0.541721
vt 0.000000 0.763936
vt 0.125000 0.763936
vt 0.250000 0.763936
vt 0.375000 0.763936
vt 0.500000 0.763936
vt 0.625000 0.763936
vt 0.750000 0.763936
vt 0.875000 0.763936
vt 0.000000 1.000000
vt 0.125000 1.000000
vt 0.250000 1.000000
vt 0.375000 1.000000
vt 0.500000 1.000000
vt 0.625000 1.000000
vt 0.750000 1.000000
vt 0.875000 1.000000
vt 0.500000 0.500000
vt 0.500000 0.500000
vt 0.000000 0.000000
vt 0.250000 0.000000
vt 0.500000 0.000000
vt 0.750000 0.000000
vt 0.000000 0.382742
vt 0.250000 0.382742
vt 0.500000 0.382742
vt 0.750000 0.382742
vt 0.000000 0.766955
vt 0.250000 0.766955
vt 0.500000 0.766955
vt 0.750000 0.766955
vt 0.000000 1.000000
vt 0.250000 1.000000
vt 0.500000 1.000000
vt 0.750000 1.000000
vt 0.500000 0.500000
vt 0.500000 0.500000
vt 0.000000 0.000000
vt 0.200000 0.000000
vt 0.400000 0.000000
vt 0.600000 0.000000
vt 0.800000 0.000000
vt 0.000000 0.088389
vt 0.200000 0.088389
vt 0.400000 0.088389
vt 0.600000 0.088389
vt 0.800000 0.088389
vt 0.000000 0.193148
vt 0.200000 0.193148
vt 0.400000 0.193148
vt 0.600000 0.193148
vt 0.800000 0.193148
vt 0.000000 0.306852
vt 0.200000 0.306852
vt 0.400000 0.306852
vt 0.600000 0.306852
vt 0.800000 0.306852
vt 0.000000 0.411611
vt 0.200000 0.411611
vt 0.400000 0.411611
vt 0.600000 0.411611
vt 0.800000 0.411611
vt 0.000000 0.500000
vt 0.200000 0.500000
vt 0.400000 0.500000
vt 0.600000 0.500000
vt 0.800000 0.500000
vt 0.000000 0.588389
vt 0.200000 0.588389
vt 0.400000 0.588389
vt 0.600000 0.588389
vt 0.800000 0.588389
vt 0.000000 0.693148
vt 0.200000 0.693148
vt 0.400000 0.693148
vt 0.600000 0.693148
vt 0.800000 0.693148
vt 0.000000 0.806852
vt 0.200000 0.806852
vt 0.400000 0.806852
vt 0.600000 0.806852
vt 0.800000 0.806852
vt 0.000000 0.911611
vt 0.200000 0.911611
vt 0.400000 0.911611
vt 0.600000 0.911611
vt 0.800000 0.911611
vt 0.000000 0.000000
vt 0.250000 0.000000
vt 0.500000 0.000000
vt 0.750000 0.000000
vt 0.000000 0.496200
vt 0.250000 0.496200
vt 0.500000 0.496200
vt 0.750000 0.496200
vt 0.000000 1.000000
vt 0.250000 1.000000
vt 0.500000 1.000000
vt 0.750000 1.000000
vt 0.500000 0.500000
vt 0.500000 0.500000
vt 0.000000 0.000000
vt 0.250000 0.000000
vt 0.500000 0.000000
vt 0.750000 0.000000
vt 0.000000 0.498632
vt 0.250000 0.498632
vt 0.500000 0.498632
vt 0.750000 0.498632
vt 0.000000 1.000000
vt 0.250000 1.000000
vt 0.500000 1.000000
vt 0.750000 1.000000
vt 0.500000 0.500000
vt 0.500000 0.500000
vt 0.000000 0.000000
vt 0.250000 0.000000
vt 0.500000 0.000000
vt 0.750000 0.000000
vt 0.000000 0.500831
vt 0.250000 0.500831
vt 0.500000 0.500831
vt 0.750000 0.500831
vt 0.000000 1.000000
vt 0.250000 1.000000
vt 0.500000 1.000000
vt 0.750000 1.000000
vt 0.500000 0.500000
vt 0.500000 0.500000
vt 0.000000 0.000000
vt 0.125000 0.000000
vt 0.250000 0.000000
vt 0.375000 0.000000
vt 0.500000 0.000000
vt 0.625000 0.000000
vt 0.750000 0.000000
vt 0.875000 0.000000
vt 0.000000 0.189764
vt 0.125000 0.189764
vt 0.250000 0.189764
vt 0.375000 0.189764
vt 0.500000 0.189764
vt 0.625000 0.189764
vt 0.750000 0.189764
vt 0.875000 0.189764
vt 0.000000 0.373992
vt 0.125000 0.373992
vt 0.250000 0.373992
vt 0.375000 0.373992
vt 0.500000 0.373992
vt 0.625000 0.373992
vt 0.750000 0.373992
vt 0.875000 0.373992
vt 0.000000 0.541721
vt 0.125000 0.541721
vt 0.250000 0.541721
vt 0.375000 0.541721
vt 0.500000 0.541721
vt 0.625000 0.541721
vt 0.750000 0.541721
vt 0.875000 0.541721
vt 0.000000 0.763936
vt 0.125000 0.763936
vt 0.250000 0.763936
vt 0.375000 0.763936
vt 0.500000 0.763936
vt 0.625000 0.763936
vt 0.750000 0.763936
vt 0.875000 0.763936
vt 0.000000 1.000000
vt 0.125000 1.000000
vt 0.250000 1.000000
vt 0.375000 1.000000
vt 0.500000 1.000000
vt 0.625000 1.000000
vt 0.750000 1.000000
vt 0.875000 1.000000
vt 0.500000 0.500000
vt 0.500000 0.500000
vt 0.000000 0.000000
vt 0.250000 0.000000
vt 0.500000 0.000000
vt 0.750000 0.000000
vt 0.000000 0.382742
vt 0.250000 0.382742
vt 0.500000 0.382742
vt 0.750000 0.382742
vt 0.000000 0.766955
vt 0.250000 0.766955
vt 0.500000 0.766955
vt 0.750000 0.766955
vt 0.000000 1.000000
vt 0.250000 1.000000
vt 0.500000 1.000000
vt 0.750000 1.000000
vt 0.500000 0.500000
vt 0.500000 0.500000
vt 0.000000 0.000000
vt 0.200000 0.000000
vt 0.400000 0.000000
vt 0.600000 0.000000
vt 0.800000 0.000000
vt 0.000000 0.088389
vt 0.200000 0.088389
vt 0.400000 0.088389
vt 0.600000 0.088389
vt 0.800000 0.088389
vt 0.000000 0.193148
vt 0.200000 0.193148
vt 0.400000 0.193148
vt 0.600000 0.193148
vt 0.800000 0.193148
vt 0.000000 0.306852
vt 0.200000 0.306852
vt 0.400000 0.306852
vt 0.600000 0.306852
vt 0.800000 0.306852
vt 0.000000 0.411611
vt 0.200000 0.411611
vt 0.400000 0.411611
vt 0.600000 0.411611
vt 0.800000 0.411611
vt 0.000000 0.500000
vt 0.200000 0.500000
vt 0.400000 0.500000
vt 0.600000 0.500000
vt 0.800000 0.500000
vt 0.000000 0.588389
vt 0.200000 0.588389
vt 0.400000 0.588389
vt 0.600000 0.588389
vt 0.800000 0.588389
vt 0.000000 0.693148
vt 0.200000 0.693148
vt 0.400000 0.693148
vt 0.600000 0.693148
vt 0.800000 0.693148
vt 0.000000 0.806852
vt 0.200000 0.806852
vt 0.400000 0.806852
vt 0.600000 0.806852
vt 0.800000 0.806852
vt 0.000000 0.911611
vt 0.200000 0.911611
vt 0.400000 0.911611
vt 0.600000 0.911611
vt 0.800000 0.911611
vt 0.000000 0.000000
vt 0.250000 0.000000
vt 0.500000 0.000000
vt 0.750000 0.000000
vt 0.000000 0.496200
vt 0.250000 0.496200
vt 0.500000 0.496200
vt 0.750000 0.496200
vt 0.000000 1.000000
vt 0.250000 1.000000
vt 0.500000 1.000000
vt 0.750000 1.000000
vt 0.500000 0.500000
vt 0.500000 0.500000
vt 0.000000 0.000000
vt 0.250000 0.000000
vt 0.500000 0.000000
vt 0.750000 0.000000
vt 0.000000 0.498632
vt 0.250000 0.498632
vt 0.500000 0.498632
vt 0.750000 0.498632
vt 0.000000 1.000000
vt 0.250000 1.000000
vt 0.500000 1.000000
vt 0.750000 1.000000
vt 0.500000 0.500000
vt 0.500000 0.500000
vt 0.000000 0.000000
vt 0.250000 0.000000
vt 0.500000 0.000000
vt 0.750000 0.000000
vt 0.000000 0.500831
vt 0.250000 0.500831
vt 0.500000 0.500831
vt 0.750000 0.500831
vt 0.000000 1.000000
vt 0.250000 1.000000
vt 0.500000 1.000000
vt 0.750000 1.000000
vt 0.500000 0.500000
vt 0.500000 0.500000
vn -0.479517 -0.874678 0.070732
vn -0.955990 -0.286104 0.065016
vn -0.963717 -0.266915 -0.002529
vn -0.499153 -0.859305 -0.111538
vn -0.954194 0.252694 0.160185
vn -0.963627 0.256913 0.073608
vn -0.476377 0.812289 0.336529
vn -0.500794 0.858245 0.112342
vn 0.479344 0.817609 0.318976
vn 0.502083 0.856832 0.117265
vn 0.955970 0.256346 0.142855
vn 0.963405 0.256788 0.076887
vn 0.954634 -0.287116 0.078986
vn 0.963673 -0.267082 0.001585
vn 0.477023 -0.874603 0.086711
vn 0.498603 -0.860350 -0.105793
vn -0.953031 -0.251073 -0.169393
vn -0.464171 -0.686039 -0.560264
vn -0.974651 0.201730 0.096745
vn -0.539087 0.818209 0.199797
vn 0.476967 0.840192 0.258032
vn 0.955729 0.237888 0.173183
vn 0.971289 -0.203897 -0.122573
vn 0.523691 -0.660603 -0.537913
vn -0.870103 -0.176008 -0.460372
vn -0.254589 -0.285232 -0.924028
vn -0.988052 0.056784 0.143280
vn -0.626830 0.397121 0.670358
vn 0.264791 0.435718 0.860253
vn 0.859057 0.149509 0.489558
vn 0.990417 -0.042888 -0.131279
vn 0.590516 -0.215553 -0.777707
vn -0.514645 -0.077017 -0.853937
vn 0.241574 -0.046082 -0.969288
vn -0.971829 -0.079835 -0.221756
vn -0.845050 -0.078055 0.528959
vn -0.234244 -0.085811 0.968383
vn 0.524322 -0.066654 0.848907
vn 0.977189 -0.018744 0.211541
vn 0.842585 -0.009244 -0.538483
vn -0.195668 -0.055485 -0.979099
vn 0.553365 -0.038452 -0.832051
vn -0.854913 -0.122799 -0.504027
vn -0.946202 -0.208319 0.247598
vn -0.528007 -0.247855 0.812266
vn 0.208592 -0.205795 0.956106
vn 0.862056 -0.114268 0.493763
vn 0.965375 -0.054358 -0.255139
vn 0.000000 -0.141421 0.989949
vn -0.056842 0.994736 0.085263
vn 1.000000 0.000000 0.000000
vn -0.000000 -0.999840 -0.017892
vn -1.000000 -0.000000 -0.000000
vn -0.000000 0.983266 0.182175
vn 0.999839 -0.002081 0.017836
vn -0.000000 -0.977883 -0.209152
vn -0.999770 -0.002485 0.021300
vn -0.000000 0.999246 0.038830
vn 0.992859 0.002321 0.119275
vn 0.032397 -0.791625 -0.610147
vn -0.989937 -0.070585 0.122647
vn -0.034896 0.957635 0.285863
vn 0.000000 -0.099504 0.995037
vn 0.000000 0.490261 -0.871576
vn 0.791550 0.158925 -0.590077
vn -0.290467 0.247643 -0.924284
vn -0.219593 0.050679 -0.974274
vn 0.591594 0.674510 -0.441648
vn -0.999999 -0.001474 -0.000362
vn -0.737981 -0.651902 -0.174381
vn -0.290877 -0.247676 0.924147
vn -0.220010 -0.442622 0.869300
vn 0.791680 -0.157504 0.590284
vn 0.591927 0.362685 0.719779
vn -0.074352 -0.037701 -0.996519
vn 0.199198 0.905940 -0.373621
vn -0.246768 -0.936073 -0.250743
vn -0.074570 -0.530798 0.844211
vn 0.199409 0.597624 0.776583
vn 0.074200 -0.037079 -0.996554
vn -0.198781 0.905666 -0.374506
vn 0.246234 -0.936169 -0.250911
vn 0.074413 -0.530295 0.844542
vn -0.199039 0.597025 0.777139
vn 0.218389 0.051897 -0.974481
vn -0.590263 0.674197 -0.443901
vn 0.737681 -0.652081 -0.174978
vn 0.218862 -0.441736 0.870039
vn -0.590816 0.361490 0.721292
vn 0.290467 0.247677 -0.924275
vn -0.791550 0.157406 -0.590484
vn 0.999999 0.001457 0.000423
vn 0.290877 -0.247580 0.924172
vn -0.791680 -0.158739 0.589953
vn 0.219593 0.443248 -0.869086
vn -0.591594 -0.363318 -0.719734
vn 0.737981 0.651754 0.174933
vn 0.220010 -0.051328 0.974146
vn -0.591927 -0.673984 0.442005
vn 0.074352 0.530910 -0.844160
vn -0.199198 -0.597756 -0.776536
vn 0.246768 0.936035 0.250887
vn 0.074570 0.037579 0.996507
vn -0.199409 -0.905849 0.373729
vn -0.074200 0.530389 -0.844501
vn 0.198781 -0.597077 -0.777165
vn -0.246234 0.936202 0.250790
vn -0.074413 0.036978 0.996542
vn 0.199039 -0.905608 0.374510
vn -0.218389 0.442296 -0.869874
vn 0.590263 -0.361921 -0.721528
vn -0.737681 0.652208 0.174505
vn -0.218862 -0.052465 0.974344
vn 0.590816 -0.673706 0.443912
vn -0.661639 -0.749821 -0.001730
vn 0.079907 -0.072261 0.994180
vn 0.680134 0.733085 -0.001811
vn -0.129192 0.116829 -0.984713
vn -0.776018 -0.582144 -0.242702
vn -0.309773 -0.014516 0.950700
vn 0.751833 0.612542 0.244009
vn 0.214468 0.127495 -0.968374
vn 0.734342 -0.664070 -0.140544
vn -0.591763 0.799399 -0.103818
vn -0.645787 -0.763513 -0.002562
vn 0.100573 -0.087596 0.991066
vn 0.668356 0.743836 -0.002735
vn -0.163402 0.142318 -0.976240
vn -0.765431 -0.597479 -0.239029
vn -0.333337 0.013782 0.942707
vn 0.733958 0.635073 0.240808
vn 0.213800 0.124469 -0.968915
vn 0.742551 -0.646738 -0.174206
vn -0.604227 0.786145 -0.129941
vn -0.635290 -0.772264 -0.004018
vn 0.130664 -0.111361 0.985153
vn 0.663174 0.748452 -0.004439
vn -0.214239 0.182590 -0.959564
vn -0.759375 -0.607334 -0.233444
vn -0.367496 0.059527 0.928118
vn 0.716772 0.656136 0.236058
vn 0.215057 0.116226 -0.969661
vn 0.741617 -0.632060 -0.224732
vn -0.608799 0.775091 -0.169111
vn -0.953029 -0.249336 -0.171953
vn -0.463907 -0.684899 -0.561875
vn -0.974741 0.200324 0.098745
vn -0.539216 0.817505 0.202317
vn 0.476719 0.842057 0.252346
vn 0.955712 0.239994 0.170344
vn 0.971268 -0.204768 -0.121276
vn 0.523897 -0.661177 -0.537007
vn -0.868179 -0.130740 -0.478719
vn -0.243721 -0.279034 -0.928838
vn -0.985463 0.112606 0.127210
vn -0.623842 0.432047 0.651272
vn 0.257255 0.435569 0.862612
vn 0.857572 0.104563 0.503624
vn 0.988373 -0.103333 -0.111539
vn 0.597405 -0.253717 -0.760746
vn -0.497654 -0.018895 -0.867170
vn 0.257130 -0.075190 -0.963447
vn -0.967773 0.033044 -0.249645
vn -0.862423 0.022186 0.505702
vn -0.266626 -0.057872 0.962061
vn 0.489579 -0.129154 0.862341
vn 0.961643 -0.133533 0.239606
vn 0.849245 -0.107445 -0.516952
vn -0.180053 -0.033683 -0.983080
vn 0.562639 -0.103205 -0.820236
vn -0.852520 -0.023728 -0.522156
vn -0.968999 -0.097222 0.227132
vn -0.570467 -0.184141 0.800412
vn 0.162758 -0.227333 0.960120
vn 0.832323 -0.212550 0.511919
vn 0.957800 -0.165922 -0.234711
vn 0.056842 0.994736 0.085263
vn -0.632175 0.774792 0.007210
vn -0.057350 -0.051862 0.997006
vn 0.708595 -0.705576 0.007427
vn 0.152877 0.138248 -0.978527
vn -0.737951 0.628977 0.244574
vn 0.317639 -0.004796 0.948200
vn 0.789313 -0.564377 -0.241791
vn -0.205306 0.137923 -0.968931
vn -0.734342 -0.664070 -0.140544
vn 0.591763 0.799399 -0.103818
vn -0.609099 0.793020 0.010885
vn -0.072655 -0.063280 0.995348
vn 0.704002 -0.710107 0.011409
vn 0.193102 0.168185 -0.966657
vn -0.716128 0.654846 0.241531
vn 0.342934 0.025464 0.939014
vn 0.782590 -0.575348 -0.237754
vn -0.202126 0.137316 -0.969685
vn -0.742551 -0.646738 -0.174206
vn 0.604227 0.786145 -0.129941
vn -0.588656 0.808193 0.017578
vn -0.095469 -0.081365 0.992102
vn 0.709177 -0.704773 0.019048
vn 0.252424 0.215134 -0.943398
vn -0.693302 0.680551 0.237029
vn 0.379243 0.073985 0.922335
vn 0.782320 -0.578255 -0.231507
vn -0.199737 0.132816 -0.970806
vn -0.741617 -0.632060 -0.224732
vn 0.608799 0.775091 -0.169111
usemtl aged_cloth
s 1
f 1/1/1 2/2/2 10/10/3 9/9/4
s 1
f 2/2/2 3/3/5 11/11/6 10/10/3
s 1
f 3/3/5 4/4/7 12/12/8 11/11/6
s 1
f 4/4/7 5/5/9 13/13/10 12/12/8
s 1
f 5/5/9 6/6/11 14/14/12 13/13/10
s 1
f 6/6/11 7/7/13 15/15/14 14/14/12
s 1
f 7/7/13 8/8/15 16/16/16 15/15/14
s 1
f 8/8/15 1/1/1 9/9/4 16/16/16
s 1
f 9/9/4 10/10/3 18/18/17 17/17/18
s 1
f 10/10/3 11/11/6 19/19/19 18/18/17
s 1
f 11/11/6 12/12/8 20/20/20 19/19/19
s 1
f 12/12/8 13/13/10 21/21/21 20/20/20
s 1
f 13/13/10 14/14/12 22/22/22 21/21/21
s 1
f 14/14/12 15/15/14 23/23/23 22/22/22
s 1
f 15/15/14 16/16/16 24/24/24 23/23/23
s 1
f 16/16/16 9/9/4 17/17/18 24/24/24
s 1
f 17/17/18 18/18/17 26/26/25 25/25/26
s 1
f 18/18/17 19/19/19 27/27/27 26/26/25
s 1
f 19/19/19 20/20/20 28/28/28 27/27/27
s 1
f 20/20/20 21/21/21 29/29/29 28/28/28
s 1
f 21/21/21 22/22/22 30/30/30 29/29/29
s 1
f 22/22/22 23/23/23 31/31/31 30/30/30
s 1
f 23/23/23 24/24/24 32/32/32 31/31/31
s 1
f 24/24/24 17/17/18 25/25/26 32/32/32
s 1
f 25/25/26 26/26/25 34/34/33 33/33/34
s 1
f 26/26/25 27/27/27 35/35/35 34/34/33
s 1
f 27/27/27 28/28/28 36/36/36 35/35/35
s 1
f 28/28/28 29/29/29 37/37/37 36/36/36
s 1
f 29/29/29 30/30/30 38/38/38 37/37/37
s 1
f 30/30/30 31/31/31 39/39/39 38/38/38
s 1
f 31/31/31 32/32/32 40/40/40 39/39/39
s 1
f 32/32/32 25/25/26 33/33/34 40/40/40
s 1
f 33/33/34 34/34/33 42/42/41 41/41/42
s 1
f 34/34/33 35/35/35 43/43/43 42/42/41
s 1
f 35/35/35 36/36/36 44/44/44 43/43/43
s 1
f 36/36/36 37/37/37 45/45/45 44/44/44
s 1
f 37/37/37 38/38/38 46/46/46 45/45/45
s 1
f 38/38/38 39/39/39 47/47/47 46/46/46
s 1
f 39/39/39 40/40/40 48/48/48 47/47/47
s 1
f 40/40/40 33/33/34 41/41/42 48/48/48
s off
f 49/49/49 2/2/49 1/1/49
s off
f 49/49/49 3/3/49 2/2/49
s off
f 49/49/49 4/4/49 3/3/49
s off
f 49/49/49 5/5/49 4/4/49
s off
f 49/49/49 6/6/49 5/5/49
s off
f 49/49/49 7/7/49 6/6/49
s off
f 49/49/49 8/8/49 7/7/49
s off
f 49/49/49 1/1/49 8/8/49
s off
f 50/50/50 41/41/50 42/42/50
s off
f 50/50/50 42/42/50 43/43/50
s off
f 50/50/50 43/43/50 44/44/50
s off
f 50/50/50 44/44/50 45/45/50
s off
f 50/50/50 45/45/50 46/46/50
s off
f 50/50/50 46/46/50 47/47/50
s off
f 50/50/50 47/47/50 48/48/50
s off
f 50/50/50 48/48/50 41/41/50
usemtl wrought_iron
s off
f 51/51/51 52/52/51 56/56/51 55/55/51
s off
f 52/52/52 53/53/52 57/57/52 56/56/52
s off
f 53/53/53 54/54/53 58/58/53 57/57/53
s off
f 54/54/54 51/51/54 55/55/54 58/58/54
s off
f 55/55/55 56/56/55 60/60/55 59/59/55
s off
f 56/56/56 57/57/56 61/61/56 60/60/56
s off
f 57/57/57 58/58/57 62/62/57 61/61/57
s off
f 58/58/58 55/55/58 59/59/58 62/62/58
s off
f 59/59/59 60/60/59 64/64/59 63/63/59
s off
f 60/60/60 61/61/60 65/65/60 64/64/60
s off
f 61/61/61 62/62/61 66/66/61 65/65/61
s off
f 62/62/62 59/59/62 63/63/62 66/66/62
s off
f 67/67/63 52/52/63 51/51/63
s off
f 67/67/63 53/53/63 52/52/63
s off
f 67/67/63 54/54/63 53/53/63
s off
f 67/67/63 51/51/63 54/54/63
s off
f 68/68/64 63/63/64 64/64/64
s off
f 68/68/64 64/64/64 65/65/64
s off
f 68/68/64 65/65/64 66/66/64
s off
f 68/68/64 66/66/64 63/63/64
usemtl ritual_gold
s 2
f 69/69/65 70/70/66 75/75/67 74/74/68
s 2
f 70/70/66 71/71/69 76/76/70 75/75/67
s 2
f 71/71/69 72/72/71 77/77/72 76/76/70
s 2
f 72/72/71 73/73/73 78/78/74 77/77/72
s 2
f 73/73/73 69/69/65 74/74/68 78/78/74
s 2
f 74/74/68 75/75/67 80/80/75 79/79/76
s 2
f 75/75/67 76/76/70 81/81/77 80/80/75
s 2
f 76/76/70 77/77/72 82/82/78 81/81/77
s 2
f 77/77/72 78/78/74 83/83/79 82/82/78
s 2
f 78/78/74 74/74/68 79/79/76 83/83/79
s 2
f 79/79/76 80/80/75 85/85/80 84/84/81
s 2
f 80/80/75 81/81/77 86/86/82 85/85/80
s 2
f 81/81/77 82/82/78 87/87/83 86/86/82
s 2
f 82/82/78 83/83/79 88/88/84 87/87/83
s 2
f 83/83/79 79/79/76 84/84/81 88/88/84
s 2
f 84/84/81 85/85/80 90/90/85 89/89/86
s 2
f 85/85/80 86/86/82 91/91/87 90/90/85
s 2
f 86/86/82 87/87/83 92/92/88 91/91/87
s 2
f 87/87/83 88/88/84 93/93/89 92/92/88
s 2
f 88/88/84 84/84/81 89/89/86 93/93/89
s 2
f 89/89/86 90/90/85 95/95/90 94/94/91
s 2
f 90/90/85 91/91/87 96/96/92 95/95/90
s 2
f 91/91/87 92/92/88 97/97/93 96/96/92
s 2
f 92/92/88 93/93/89 98/98/94 97/97/93
s 2
f 93/93/89 89/89/86 94/94/91 98/98/94
s 2
f 94/94/91 95/95/90 100/100/95 99/99/96
s 2
f 95/95/90 96/96/92 101/101/97 100/100/95
s 2
f 96/96/92 97/97/93 102/102/98 101/101/97
s 2
f 97/97/93 98/98/94 103/103/99 102/102/98
s 2
f 98/98/94 94/94/91 99/99/96 103/103/99
s 2
f 99/99/96 100/100/95 105/105/100 104/104/101
s 2
f 100/100/95 101/101/97 106/106/102 105/105/100
s 2
f 101/101/97 102/102/98 107/107/103 106/106/102
s 2
f 102/102/98 103/103/99 108/108/104 107/107/103
s 2
f 103/103/99 99/99/96 104/104/101 108/108/104
s 2
f 104/104/101 105/105/100 110/110/105 109/109/106
s 2
f 105/105/100 106/106/102 111/111/107 110/110/105
s 2
f 106/106/102 107/107/103 112/112/108 111/111/107
s 2
f 107/107/103 108/108/104 113/113/109 112/112/108
s 2
f 108/108/104 104/104/101 109/109/106 113/113/109
s 2
f 109/109/106 110/110/105 115/115/110 114/114/111
s 2
f 110/110/105 111/111/107 116/116/112 115/115/110
s 2
f 111/111/107 112/112/108 117/117/113 116/116/112
s 2
f 112/112/108 113/113/109 118/118/114 117/117/113
s 2
f 113/113/109 109/109/106 114/114/111 118/118/114
s 2
f 114/114/111 115/115/110 70/70/66 69/69/65
s 2
f 115/115/110 116/116/112 71/71/69 70/70/66
s 2
f 116/116/112 117/117/113 72/72/71 71/71/69
s 2
f 117/117/113 118/118/114 73/73/73 72/72/71
s 2
f 118/118/114 114/114/111 69/69/65 73/73/73
usemtl crystal
s off
f 119/119/115 120/120/115 124/124/115 123/123/115
s off
f 120/120/116 121/121/116 125/125/116 124/124/116
s off
f 121/121/117 122/122/117 126/126/117 125/125/117
s off
f 122/122/118 119/119/118 123/123/118 126/126/118
s off
f 123/123/119 124/124/119 128/128/119 127/127/119
s off
f 124/124/120 125/125/120 129/129/120 128/128/120
s off
f 125/125/121 126/126/121 130/130/121 129/129/121
s off
f 126/126/122 123/123/122 127/127/122 130/130/122
s off
f 131/131/123 120/120/123 119/119/123
s off
f 131/131/123 121/121/123 120/120/123
s off
f 131/131/123 122/122/123 121/121/123
s off
f 131/131/123 119/119/123 122/122/123
s off
f 132/132/124 127/127/124 128/128/124
s off
f 132/132/124 128/128/124 129/129/124
s off
f 132/132/124 129/129/124 130/130/124
s off
f 132/132/124 130/130/124 127/127/124
s off
f 133/133/125 134/134/125 138/138/125 137/137/125
s off
f 134/134/126 135/135/126 139/139/126 138/138/126
s off
f 135/135/127 136/136/127 140/140/127 139/139/127
s off
f 136/136/128 133/133/128 137/137/128 140/140/128
s off
f 137/137/129 138/138/129 142/142/129 141/141/129
s off
f 138/138/130 139/139/130 143/143/130 142/142/130
s off
f 139/139/131 140/140/131 144/144/131 143/143/131
s off
f 140/140/132 137/137/132 141/141/132 144/144/132
s off
f 145/145/133 134/134/133 133/133/133
s off
f 145/145/133 135/135/133 134/134/133
s off
f 145/145/133 136/136/133 135/135/133
s off
f 145/145/133 133/133/133 136/136/133
s off
f 146/146/134 141/141/134 142/142/134
s off
f 146/146/134 142/142/134 143/143/134
s off
f 146/146/134 143/143/134 144/144/134
s off
f 146/146/134 144/144/134 141/141/134
s off
f 147/147/135 148/148/135 152/152/135 151/151/135
s off
f 148/148/136 149/149/136 153/153/136 152/152/136
s off
f 149/149/137 150/150/137 154/154/137 153/153/137
s off
f 150/150/138 147/147/138 151/151/138 154/154/138
s off
f 151/151/139 152/152/139 156/156/139 155/155/139
s off
f 152/152/140 153/153/140 157/157/140 156/156/140
s off
f 153/153/141 154/154/141 158/158/141 157/157/141
s off
f 154/154/142 151/151/142 155/155/142 158/158/142
s off
f 159/159/143 148/148/143 147/147/143
s off
f 159/159/143 149/149/143 148/148/143
s off
f 159/159/143 150/150/143 149/149/143
s off
f 159/159/143 147/147/143 150/150/143
s off
f 160/160/144 155/155/144 156/156/144
s off
f 160/160/144 156/156/144 157/157/144
s off
f 160/160/144 157/157/144 158/158/144
s off
f 160/160/144 158/158/144 155/155/144
usemtl aged_cloth
s 3
f 161/161/1 162/162/2 170/170/3 169/169/4
s 3
f 162/162/2 163/163/5 171/171/6 170/170/3
s 3
f 163/163/5 164/164/7 172/172/8 171/171/6
s 3
f 164/164/7 165/165/9 173/173/10 172/172/8
s 3
f 165/165/9 166/166/11 174/174/12 173/173/10
s 3
f 166/166/11 167/167/13 175/175/14 174/174/12
s 3
f 167/167/13 168/168/15 176/176/16 175/175/14
s 3
f 168/168/15 161/161/1 169/169/4 176/176/16
s 3
f 169/169/4 170/170/3 178/178/145 177/177/146
s 3
f 170/170/3 171/171/6 179/179/147 178/178/145
s 3
f 171/171/6 172/172/8 180/180/148 179/179/147
s 3
f 172/172/8 173/173/10 181/181/149 180/180/148
s 3
f 173/173/10 174/174/12 182/182/150 181/181/149
s 3
f 174/174/12 175/175/14 183/183/151 182/182/150
s 3
f 175/175/14 176/176/16 184/184/152 183/183/151
s 3
f 176/176/16 169/169/4 177/177/146 184/184/152
s 3
f 177/177/146 178/178/145 186/186/153 185/185/154
s 3
f 178/178/145 179/179/147 187/187/155 186/186/153
s 3
f 179/179/147 180/180/148 188/188/156 187/187/155
s 3
f 180/180/148 181/181/149 189/189/157 188/188/156
s 3
f 181/181/149 182/182/150 190/190/158 189/189/157
s 3
f 182/182/150 183/183/151 191/191/159 190/190/158
s 3
f 183/183/151 184/184/152 192/192/160 191/191/159
s 3
f 184/184/152 177/177/146 185/185/154 192/192/160
s 3
f 185/185/154 186/186/153 194/194/161 193/193/162
s 3
f 186/186/153 187/187/155 195/195/163 194/194/161
s 3
f 187/187/155 188/188/156 196/196/164 195/195/163
s 3
f 188/188/156 189/189/157 197/197/165 196/196/164
s 3
f 189/189/157 190/190/158 198/198/166 197/197/165
s 3
f 190/190/158 191/191/159 199/199/167 198/198/166
s 3
f 191/191/159 192/192/160 200/200/168 199/199/167
s 3
f 192/192/160 185/185/154 193/193/162 200/200/168
s 3
f 193/193/162 194/194/161 202/202/169 201/201/170
s 3
f 194/194/161 195/195/163 203/203/171 202/202/169
s 3
f 195/195/163 196/196/164 204/204/172 203/203/171
s 3
f 196/196/164 197/197/165 205/205/173 204/204/172
s 3
f 197/197/165 198/198/166 206/206/174 205/205/173
s 3
f 198/198/166 199/199/167 207/207/175 206/206/174
s 3
f 199/199/167 200/200/168 208/208/176 207/207/175
s 3
f 200/200/168 193/193/162 201/201/170 208/208/176
s off
f 209/209/49 162/162/49 161/161/49
s off
f 209/209/49 163/163/49 162/162/49
s off
f 209/209/49 164/164/49 163/163/49
s off
f 209/209/49 165/165/49 164/164/49
s off
f 209/209/49 166/166/49 165/165/49
s off
f 209/209/49 167/167/49 166/166/49
s off
f 209/209/49 168/168/49 167/167/49
s off
f 209/209/49 161/161/49 168/168/49
s off
f 210/210/177 201/201/177 202/202/177
s off
f 210/210/177 202/202/177 203/203/177
s off
f 210/210/177 203/203/177 204/204/177
s off
f 210/210/177 204/204/177 205/205/177
s off
f 210/210/177 205/205/177 206/206/177
s off
f 210/210/177 206/206/177 207/207/177
s off
f 210/210/177 207/207/177 208/208/177
s off
f 210/210/177 208/208/177 201/201/177
usemtl wrought_iron
s off
f 211/211/51 212/212/51 216/216/51 215/215/51
s off
f 212/212/52 213/213/52 217/217/52 216/216/52
s off
f 213/213/53 214/214/53 218/218/53 217/217/53
s off
f 214/214/54 211/211/54 215/215/54 218/218/54
s off
f 215/215/55 216/216/55 220/220/55 219/219/55
s off
f 216/216/56 217/217/56 221/221/56 220/220/56
s off
f 217/217/57 218/218/57 222/222/57 221/221/57
s off
f 218/218/58 215/215/58 219/219/58 222/222/58
s off
f 219/219/59 220/220/59 224/224/59 223/223/59
s off
f 220/220/60 221/221/60 225/225/60 224/224/60
s off
f 221/221/61 222/222/61 226/226/61 225/225/61
s off
f 222/222/62 219/219/62 223/223/62 226/226/62
s off
f 227/227/63 212/212/63 211/211/63
s off
f 227/227/63 213/213/63 212/212/63
s off
f 227/227/63 214/214/63 213/213/63
s off
f 227/227/63 211/211/63 214/214/63
s off
f 228/228/64 223/223/64 224/224/64
s off
f 228/228/64 224/224/64 225/225/64
s off
f 228/228/64 225/225/64 226/226/64
s off
f 228/228/64 226/226/64 223/223/64
usemtl ritual_gold
s 4
f 229/229/65 230/230/66 235/235/67 234/234/68
s 4
f 230/230/66 231/231/69 236/236/70 235/235/67
s 4
f 231/231/69 232/232/71 237/237/72 236/236/70
s 4
f 232/232/71 233/233/73 238/238/74 237/237/72
s 4
f 233/233/73 229/229/65 234/234/68 238/238/74
s 4
f 234/234/68 235/235/67 240/240/75 239/239/76
s 4
f 235/235/67 236/236/70 241/241/77 240/240/75
s 4
f 236/236/70 237/237/72 242/242/78 241/241/77
s 4
f 237/237/72 238/238/74 243/243/79 242/242/78
s 4
f 238/238/74 234/234/68 239/239/76 243/243/79
s 4
f 239/239/76 240/240/75 245/245/80 244/244/81
s 4
f 240/240/75 241/241/77 246/246/82 245/245/80
s 4
f 241/241/77 242/242/78 247/247/83 246/246/82
s 4
f 242/242/78 243/243/79 248/248/84 247/247/83
s 4
f 243/243/79 239/239/76 244/244/81 248/248/84
s 4
f 244/244/81 245/245/80 250/250/85 249/249/86
s 4
f 245/245/80 246/246/82 251/251/87 250/250/85
s 4
f 246/246/82 247/247/83 252/252/88 251/251/87
s 4
f 247/247/83 248/248/84 253/253/89 252/252/88
s 4
f 248/248/84 244/244/81 249/249/86 253/253/89
s 4
f 249/249/86 250/250/85 255/255/90 254/254/91
s 4
f 250/250/85 251/251/87 256/256/92 255/255/90
s 4
f 251/251/87 252/252/88 257/257/93 256/256/92
s 4
f 252/252/88 253/253/89 258/258/94 257/257/93
s 4
f 253/253/89 249/249/86 254/254/91 258/258/94
s 4
f 254/254/91 255/255/90 260/260/95 259/259/96
s 4
f 255/255/90 256/256/92 261/261/97 260/260/95
s 4
f 256/256/92 257/257/93 262/262/98 261/261/97
s 4
f 257/257/93 258/258/94 263/263/99 262/262/98
s 4
f 258/258/94 254/254/91 259/259/96 263/263/99
s 4
f 259/259/96 260/260/95 265/265/100 264/264/101
s 4
f 260/260/95 261/261/97 266/266/102 265/265/100
s 4
f 261/261/97 262/262/98 267/267/103 266/266/102
s 4
f 262/262/98 263/263/99 268/268/104 267/267/103
s 4
f 263/263/99 259/259/96 264/264/101 268/268/104
s 4
f 264/264/101 265/265/100 270/270/105 269/269/106
s 4
f 265/265/100 266/266/102 271/271/107 270/270/105
s 4
f 266/266/102 267/267/103 272/272/108 271/271/107
s 4
f 267/267/103 268/268/104 273/273/109 272/272/108
s 4
f 268/268/104 264/264/101 269/269/106 273/273/109
s 4
f 269/269/106 270/270/105 275/275/110 274/274/111
s 4
f 270/270/105 271/271/107 276/276/112 275/275/110
s 4
f 271/271/107 272/272/108 277/277/113 276/276/112
s 4
f 272/272/108 273/273/109 278/278/114 277/277/113
s 4
f 273/273/109 269/269/106 274/274/111 278/278/114
s 4
f 274/274/111 275/275/110 230/230/66 229/229/65
s 4
f 275/275/110 276/276/112 231/231/69 230/230/66
s 4
f 276/276/112 277/277/113 232/232/71 231/231/69
s 4
f 277/277/113 278/278/114 233/233/73 232/232/71
s 4
f 278/278/114 274/274/111 229/229/65 233/233/73
usemtl crystal
s off
f 279/279/178 280/280/178 284/284/178 283/283/178
s off
f 280/280/179 281/281/179 285/285/179 284/284/179
s off
f 281/281/180 282/282/180 286/286/180 285/285/180
s off
f 282/282/181 279/279/181 283/283/181 286/286/181
s off
f 283/283/182 284/284/182 288/288/182 287/287/182
s off
f 284/284/183 285/285/183 289/289/183 288/288/183
s off
f 285/285/184 286/286/184 290/290/184 289/289/184
s off
f 286/286/185 283/283/185 287/287/185 290/290/185
s off
f 291/291/186 280/280/186 279/279/186
s off
f 291/291/186 281/281/186 280/280/186
s off
f 291/291/186 282/282/186 281/281/186
s off
f 291/291/186 279/279/186 282/282/186
s off
f 292/292/187 287/287/187 288/288/187
s off
f 292/292/187 288/288/187 289/289/187
s off
f 292/292/187 289/289/187 290/290/187
s off
f 292/292/187 290/290/187 287/287/187
s off
f 293/293/188 294/294/188 298/298/188 297/297/188
s off
f 294/294/189 295/295/189 299/299/189 298/298/189
s off
f 295/295/190 296/296/190 300/300/190 299/299/190
s off
f 296/296/191 293/293/191 297/297/191 300/300/191
s off
f 297/297/192 298/298/192 302/302/192 301/301/192
s off
f 298/298/193 299/299/193 303/303/193 302/302/193
s off
f 299/299/194 300/300/194 304/304/194 303/303/194
s off
f 300/300/195 297/297/195 301/301/195 304/304/195
s off
f 305/305/196 294/294/196 293/293/196
s off
f 305/305/196 295/295/196 294/294/196
s off
f 305/305/196 296/296/196 295/295/196
s off
f 305/305/196 293/293/196 296/296/196
s off
f 306/306/197 301/301/197 302/302/197
s off
f 306/306/197 302/302/197 303/303/197
s off
f 306/306/197 303/303/197 304/304/197
s off
f 306/306/197 304/304/197 301/301/197
s off
f 307/307/198 308/308/198 312/312/198 311/311/198
s off
f 308/308/199 309/309/199 313/313/199 312/312/199
s off
f 309/309/200 310/310/200 314/314/200 313/313/200
s off
f 310/310/201 307/307/201 311/311/201 314/314/201
s off
f 311/311/202 312/312/202 316/316/202 315/315/202
s off
f 312/312/203 313/313/203 317/317/203 316/316/203
s off
f 313/313/204 314/314/204 318/318/204 317/317/204
s off
f 314/314/205 311/311/205 315/315/205 318/318/205
s off
f 319/319/206 308/308/206 307/307/206
s off
f 319/319/206 309/309/206 308/308/206
s off
f 319/319/206 310/310/206 309/309/206
s off
f 319/319/206 307/307/206 310/310/206
s off
f 320/320/207 315/315/207 316/316/207
s off
f 320/320/207 316/316/207 317/317/207
s off
f 320/320/207 317/317/207 318/318/207
s off
f 320/320/207 318/318/207 315/315/207
