# Blender 5.0.1
# www.blender.org
mtllib mirror_armor.mtl
g B_Collar.001_Mesh
v -0.420000 1.435000 -0.040000
v -0.410000 1.445000 -0.040000
v -0.410000 1.435000 -0.050000
v 0.410000 1.445000 -0.040000
v 0.420000 1.435000 -0.040000
v 0.410000 1.435000 -0.050000
v 0.420000 1.325000 -0.040000
v 0.410000 1.315000 -0.040000
v 0.410000 1.325000 -0.050000
v -0.420000 1.325000 -0.040000
v -0.410000 1.325000 -0.050000
v -0.410000 1.315000 -0.040000
v -0.420000 1.435000 0.120000
v -0.410000 1.435000 0.130000
v -0.410000 1.445000 0.120000
v 0.410000 1.445000 0.120000
v 0.410000 1.435000 0.130000
v 0.420000 1.435000 0.120000
v 0.420000 1.325000 0.120000
v 0.410000 1.325000 0.130000
v 0.410000 1.315000 0.120000
v -0.420000 1.325000 0.120000
v -0.410000 1.315000 0.120000
v -0.410000 1.325000 0.130000
vn -0.5774 0.5774 -0.5773
vn 0.5774 0.5774 -0.5773
vn 0.5774 -0.5774 -0.5773
vn -0.5774 -0.5774 -0.5773
vn -0.5774 0.5774 0.5773
vn 0.5774 0.5774 0.5773
vn 0.5774 -0.5774 0.5773
vn -0.5774 -0.5774 0.5773
vn -0.7071 -0.0000 -0.7071
vn -0.0000 0.7071 -0.7071
vn 0.7071 -0.0000 -0.7071
vn -0.0000 -0.7071 -0.7071
vn -0.7071 -0.0000 0.7071
vn -0.0000 0.7071 0.7071
vn 0.7071 -0.0000 0.7071
vn -0.0000 -0.7071 0.7071
vn -0.7071 0.7071 -0.0000
vn 0.7071 0.7071 -0.0000
vn 0.7071 -0.7071 -0.0000
vn -0.7071 -0.7071 -0.0000
vn -1.0000 -0.0000 -0.0000
vn -0.0000 -0.0000 -1.0000
vn -0.0000 1.0000 -0.0000
vn 1.0000 -0.0000 -0.0000
vn -0.0000 -1.0000 -0.0000
vn -0.0000 -0.0000 1.0000
vt 0.288462 0.288462
vt 0.255952 0.250000
vt 0.290943 0.288462
vt 0.744048 0.250000
vt 0.711538 0.288462
vt 0.709057 0.288462
vt 0.288462 0.711538
vt 0.255952 0.750000
vt 0.290943 0.711539
vt 0.711538 0.711538
vt 0.709057 0.711538
vt 0.744048 0.750000
vt 0.255952 0.250000
vt 0.709057 0.288462
vt 0.255952 0.750000
vt 0.744048 0.750000
s 0
g B_Collar.001_ritual_gold
usemtl ritual_gold
f 1/1/1 2/2/1 3/3/1
f 4/4/2 5/5/2 6/6/2
f 7/7/3 8/8/3 9/9/3
f 10/10/4 11/11/4 12/12/4
f 13/1/5 14/3/5 15/13/5
f 16/4/6 17/14/6 18/5/6
f 19/7/7 20/9/7 21/15/7
f 22/10/8 23/16/8 24/11/8
f 11/11/9 1/1/9 3/3/9
f 4/4/10 3/3/10 2/2/10
f 7/7/11 6/6/11 5/5/11
f 12/12/12 9/9/12 8/8/12
f 22/10/13 14/3/13 13/1/13
f 17/14/14 15/13/14 14/3/14
f 20/9/15 18/5/15 17/14/15
f 24/11/16 21/15/16 20/9/16
f 13/1/17 2/2/17 1/1/17
f 16/4/18 5/5/18 4/4/18
f 19/7/19 8/8/19 7/7/19
f 23/16/20 10/10/20 12/12/20
f 10/10/21 13/1/21 1/1/21
f 6/6/22 11/11/22 3/3/22
f 2/2/23 16/4/23 4/4/23
f 5/5/24 19/7/24 7/7/24
f 8/8/25 23/16/25 12/12/25
f 24/11/26 17/14/26 14/3/26
f 11/11/9 10/10/9 1/1/9
f 4/4/10 6/6/10 3/3/10
f 7/7/11 9/9/11 6/6/11
f 12/12/12 11/11/12 9/9/12
f 22/10/13 24/11/13 14/3/13
f 17/14/14 16/4/14 15/13/14
f 20/9/15 19/7/15 18/5/15
f 24/11/16 23/16/16 21/15/16
f 13/1/17 15/13/17 2/2/17
f 16/4/18 18/5/18 5/5/18
f 19/7/19 21/15/19 8/8/19
f 23/16/20 22/10/20 10/10/20
f 10/10/21 22/10/21 13/1/21
f 6/6/22 9/9/22 11/11/22
f 2/2/23 15/13/23 16/4/23
f 5/5/24 18/5/24 19/7/24
f 8/8/25 21/15/25 23/16/25
f 24/11/26 20/9/26 17/14/26
g B_LeftFacet.001_Mesh
v -0.310000 0.560000 0.182500
v -0.030000 0.860000 0.182500
v -0.030000 1.180000 0.182500
v -0.310000 1.120000 0.182500
v 0.310000 0.560000 0.182500
v 0.030000 0.860000 0.182500
v 0.030000 1.180000 0.182500
v 0.310000 1.120000 0.182500
v -0.310000 0.560000 0.157500
v -0.030000 0.860000 0.157500
v -0.030000 1.180000 0.157500
v -0.310000 1.120000 0.157500
v 0.310000 0.560000 0.157500
v 0.030000 0.860000 0.157500
v 0.030000 1.180000 0.157500
v 0.310000 1.120000 0.157500
vn -0.0000 -0.0000 1.0000
vn -0.0000 -0.0000 -1.0000
vn -1.0000 -0.0000 -0.0000
vn 0.7311 -0.6823 -0.0000
vn 1.0000 -0.0000 -0.0000
vn -0.2095 0.9778 -0.0000
vn -0.7311 -0.6823 -0.0000
vn 0.2095 0.9778 -0.0000
vt 0.750000 0.250000
vt 0.750000 0.750000
vt 0.250000 0.250000
vt 1.750000 0.750000
vt 1.750000 0.250000
vt 1.250000 0.250000
vt 0.250000 0.750000
vt 1.250000 0.750000
s 0
g B_LeftFacet.001_smoked_glass
usemtl smoked_glass
f 26/17/27 28/18/27 25/19/27
f 32/20/27 30/21/27 29/22/27
f 36/18/28 34/17/28 33/19/28
f 38/21/28 40/20/28 37/22/28
f 28/18/29 33/19/29 25/19/29
f 25/19/30 34/17/30 26/17/30
f 26/17/31 35/23/31 27/23/31
f 27/23/32 36/18/32 28/18/32
f 29/22/31 40/20/31 32/20/31
f 30/21/33 37/22/33 29/22/33
f 31/24/29 38/21/29 30/21/29
f 32/20/34 39/24/34 31/24/34
f 26/17/27 27/23/27 28/18/27
f 32/20/27 31/24/27 30/21/27
f 36/18/28 35/23/28 34/17/28
f 38/21/28 39/24/28 40/20/28
f 28/18/29 36/18/29 33/19/29
f 25/19/30 33/19/30 34/17/30
f 26/17/31 34/17/31 35/23/31
f 27/23/32 35/23/32 36/18/32
f 29/22/31 37/22/31 40/20/31
f 30/21/33 38/21/33 37/22/33
f 31/24/29 39/24/29 38/21/29
f 32/20/34 40/20/34 39/24/34
g B_LeftShoulder.001_Mesh
v -0.558675 1.328073 0.078000
v -0.571480 1.336506 0.078000
v -0.570331 1.324312 0.090000
v -1.008520 1.203494 0.078000
v -1.017789 1.188206 0.078000
v -1.006225 1.191649 0.090000
v -0.962211 0.891795 0.078000
v -0.948298 0.882659 0.078000
v -0.950503 0.894464 0.090000
v -0.521325 0.991927 0.078000
v -0.533110 0.989326 0.090000
v -0.531702 0.977341 0.078000
v 0.558675 1.328073 0.078000
v 0.570331 1.324312 0.090000
v 0.571480 1.336506 0.078000
v 1.008520 1.203494 0.078000
v 1.006225 1.191649 0.090000
v 1.017789 1.188206 0.078000
v 0.962211 0.891795 0.078000
v 0.950503 0.894464 0.090000
v 0.948298 0.882659 0.078000
v 0.521325 0.991927 0.078000
v 0.531702 0.977341 0.078000
v 0.533110 0.989326 0.090000
v -0.558675 1.328073 -0.078000
v -0.570331 1.324312 -0.090000
v -0.571480 1.336506 -0.078000
v -1.008520 1.203494 -0.078000
v -1.006225 1.191649 -0.090000
v -1.017789 1.188206 -0.078000
v -0.962211 0.891795 -0.078000
v -0.950503 0.894464 -0.090000
v -0.948298 0.882659 -0.078000
v -0.521325 0.991927 -0.078000
v -0.531702 0.977341 -0.078000
v -0.533110 0.989326 -0.090000
v 0.558675 1.328073 -0.078000
v 0.571480 1.336506 -0.078000
v 0.570331 1.324312 -0.090000
v 1.008520 1.203494 -0.078000
v 1.017789 1.188206 -0.078000
v 1.006225 1.191649 -0.090000
v 0.962211 0.891795 -0.078000
v 0.948298 0.882659 -0.078000
v 0.950503 0.894464 -0.090000
v 0.521325 0.991927 -0.078000
v 0.533110 0.989326 -0.090000
v 0.531702 0.977341 -0.078000
vn 0.4303 0.6534 0.6228
vn -0.7087 0.4296 0.5596
vn -0.4451 -0.6779 0.5851
vn 0.6755 -0.4805 0.5593
vn -0.4303 0.6534 0.6228
vn 0.7087 0.4296 0.5596
vn 0.4451 -0.6779 0.5851
vn -0.6755 -0.4805 0.5593
vn 0.4303 0.6534 -0.6228
vn -0.7087 0.4296 -0.5596
vn -0.4451 -0.6779 -0.5851
vn 0.6755 -0.4805 -0.5593
vn -0.4303 0.6534 -0.6228
vn 0.7087 0.4296 -0.5596
vn 0.4451 -0.6779 -0.5851
vn -0.6755 -0.4805 -0.5593
vn 0.7028 0.0781 0.7071
vn -0.2059 0.6765 0.7071
vn -0.6950 -0.1303 0.7071
vn 0.1567 -0.6895 0.7071
vn -0.7028 0.0781 0.7071
vn 0.2059 0.6765 0.7071
vn 0.6950 -0.1303 0.7071
vn -0.1567 -0.6895 0.7071
vn 0.7028 0.0781 -0.7071
vn -0.2059 0.6765 -0.7071
vn -0.6950 -0.1303 -0.7071
vn 0.1567 -0.6895 -0.7071
vn -0.7028 0.0781 -0.7071
vn 0.2059 0.6765 -0.7071
vn 0.6950 -0.1303 -0.7071
vn -0.1567 -0.6895 -0.7071
vn 0.5500 0.8352 -0.0000
vn -0.8551 0.5184 -0.0000
vn -0.5488 -0.8359 -0.0000
vn 0.8148 -0.5797 -0.0000
vn -0.5500 0.8352 -0.0000
vn 0.8551 0.5184 -0.0000
vn 0.5488 -0.8359 -0.0000
vn -0.8148 -0.5797 -0.0000
vn 0.9939 0.1104 -0.0000
vn -0.0000 -0.0000 1.0000
vn -0.2912 0.9567 -0.0000
vn -0.9829 -0.1843 -0.0000
vn 0.2216 -0.9751 -0.0000
vn -0.9939 0.1104 -0.0000
vn 0.2912 0.9567 -0.0000
vn 0.9829 -0.1843 -0.0000
vn -0.2216 -0.9751 -0.0000
vn -0.0000 -0.0000 -1.0000
vt 0.266565 0.266565
vt 0.262478 0.250000
vt 0.275535 0.267048
vt 0.737522 0.250000
vt 0.731571 0.268429
vt 0.725310 0.268227
vt 0.268429 0.731571
vt 0.263297 0.750000
vt 0.276401 0.731820
vt 0.733435 0.733435
vt 0.726137 0.733026
vt 0.736703 0.750000
vt 1.266565 0.266565
vt 1.275535 0.267048
vt 1.262478 0.250000
vt 1.737522 0.250000
vt 1.725310 0.268227
vt 1.731571 0.268429
vt 1.268429 0.731571
vt 1.276401 0.731820
vt 1.263297 0.750000
vt 1.733435 0.733435
vt 1.736703 0.750000
vt 1.726137 0.733026
vt 0.731571 0.268429
vt 0.268429 0.731571
vt 0.736703 0.750000
vt 1.266565 0.266565
vt 1.262478 0.250000
vt 1.275535 0.267048
vt 1.731571 0.268429
vt 1.725310 0.268227
vt 1.263297 0.750000
vt 1.733436 0.733435
vt 1.726137 0.733026
vt 1.736703 0.750000
s 0
g B_LeftShoulder.001_wrought_iron
usemtl wrought_iron
f 41/25/35 42/26/35 43/27/35
f 44/28/36 45/29/36 46/30/36
f 47/31/37 48/32/37 49/33/37
f 50/34/38 51/35/38 52/36/38
f 53/37/39 54/38/39 55/39/39
f 56/40/40 57/41/40 58/42/40
f 59/43/41 60/44/41 61/45/41
f 62/46/42 63/47/42 64/48/42
f 65/25/43 66/27/43 67/26/43
f 68/28/44 69/30/44 70/49/44
f 71/50/45 72/33/45 73/32/45
f 74/34/46 75/51/46 76/35/46
f 77/52/47 78/53/47 79/54/47
f 80/40/48 81/55/48 82/56/48
f 83/43/49 84/57/49 85/44/49
f 86/58/50 87/59/50 88/60/50
f 43/27/51 50/34/51 41/25/51
f 44/28/52 43/27/52 42/26/52
f 45/29/53 49/33/53 46/30/53
f 52/36/54 49/33/54 48/32/54
f 62/46/55 54/38/55 53/37/55
f 54/38/56 56/40/56 55/39/56
f 60/44/57 58/42/57 57/41/57
f 60/44/58 63/47/58 61/45/58
f 74/34/59 66/27/59 65/25/59
f 66/27/60 68/28/60 67/26/60
f 72/33/61 70/49/61 69/30/61
f 72/33/62 75/51/62 73/32/62
f 79/54/63 86/58/63 77/52/63
f 80/40/64 79/54/64 78/53/64
f 81/55/65 85/44/65 82/56/65
f 88/60/66 85/44/66 84/57/66
f 65/25/67 42/26/67 41/25/67
f 68/28/68 45/29/68 44/28/68
f 71/50/69 48/32/69 47/31/69
f 75/51/70 50/34/70 52/36/70
f 78/53/71 53/37/71 55/39/71
f 81/55/72 56/40/72 58/42/72
f 84/57/73 59/43/73 61/45/73
f 86/58/74 63/47/74 62/46/74
f 50/34/75 65/25/75 41/25/75
f 46/30/76 51/35/76 43/27/76
f 42/26/77 68/28/77 44/28/77
f 45/29/78 71/50/78 47/31/78
f 48/32/79 75/51/79 52/36/79
f 53/37/80 86/58/80 62/46/80
f 64/48/76 57/41/76 54/38/76
f 56/40/81 78/53/81 55/39/81
f 59/43/82 81/55/82 58/42/82
f 63/47/83 84/57/83 61/45/83
f 76/35/84 69/30/84 66/27/84
f 82/56/84 87/59/84 79/54/84
f 43/27/51 51/35/51 50/34/51
f 44/28/52 46/30/52 43/27/52
f 45/29/53 47/31/53 49/33/53
f 52/36/54 51/35/54 49/33/54
f 62/46/55 64/48/55 54/38/55
f 54/38/56 57/41/56 56/40/56
f 60/44/57 59/43/57 58/42/57
f 60/44/58 64/48/58 63/47/58
f 74/34/59 76/35/59 66/27/59
f 66/27/60 69/30/60 68/28/60
f 72/33/61 71/50/61 70/49/61
f 72/33/62 76/35/62 75/51/62
f 79/54/63 87/59/63 86/58/63
f 80/40/64 82/56/64 79/54/64
f 81/55/65 83/43/65 85/44/65
f 88/60/66 87/59/66 85/44/66
f 65/25/67 67/26/67 42/26/67
f 68/28/68 70/49/68 45/29/68
f 71/50/69 73/32/69 48/32/69
f 75/51/70 74/34/70 50/34/70
f 78/53/71 77/52/71 53/37/71
f 81/55/72 80/40/72 56/40/72
f 84/57/73 83/43/73 59/43/73
f 86/58/74 88/60/74 63/47/74
f 50/34/75 74/34/75 65/25/75
f 46/30/76 49/33/76 51/35/76
f 42/26/77 67/26/77 68/28/77
f 45/29/78 70/49/78 71/50/78
f 48/32/79 73/32/79 75/51/79
f 53/37/80 77/52/80 86/58/80
f 64/48/76 60/44/76 57/41/76
f 56/40/81 80/40/81 78/53/81
f 59/43/82 83/43/82 81/55/82
f 63/47/83 88/60/83 84/57/83
f 76/35/84 72/33/84 69/30/84
f 82/56/84 85/44/84 87/59/84
g B_MirrorPanel.001_Mesh
v -0.270715 0.505957 0.151500
v -0.264000 0.500000 0.151500
v -0.264677 0.506000 0.157500
v 0.264000 0.500000 0.151500
v 0.270715 0.505957 0.151500
v 0.264677 0.506000 0.157500
v 0.359285 1.244043 0.151500
v 0.354000 1.250000 0.151500
v 0.353237 1.244000 0.157500
v -0.359285 1.244043 0.151500
v -0.353237 1.244000 0.157500
v -0.354000 1.250000 0.151500
v -0.270715 0.505957 0.118500
v -0.264677 0.506000 0.112500
v -0.264000 0.500000 0.118500
v 0.264000 0.500000 0.118500
v 0.264677 0.506000 0.112500
v 0.270715 0.505957 0.118500
v 0.359285 1.244043 0.118500
v 0.353237 1.244000 0.112500
v 0.354000 1.250000 0.118500
v -0.359285 1.244043 0.118500
v -0.354000 1.250000 0.118500
v -0.353237 1.244000 0.112500
vn -0.5505 -0.6205 0.5584
vn 0.5505 -0.6205 0.5584
vn 0.5959 0.5287 0.6045
vn -0.5959 0.5287 0.6045
vn -0.5505 -0.6205 -0.5584
vn 0.5505 -0.6205 -0.5584
vn 0.5959 0.5287 -0.6045
vn -0.5959 0.5287 -0.6045
vn -0.7021 -0.0842 0.7071
vn -0.0000 -0.7071 0.7071
vn 0.7021 -0.0842 0.7071
vn -0.0000 0.7071 0.7071
vn -0.7021 -0.0842 -0.7071
vn -0.0000 -0.7071 -0.7071
vn 0.7021 -0.0842 -0.7071
vn -0.0000 0.7071 -0.7071
vn -0.6636 -0.7480 -0.0000
vn 0.6636 -0.7480 -0.0000
vn 0.7480 0.6636 -0.0000
vn -0.7480 0.6636 -0.0000
vn -0.9929 -0.1191 -0.0000
vn -0.0000 -0.0000 1.0000
vn -0.0000 -1.0000 -0.0000
vn 0.9929 -0.1191 -0.0000
vn -0.0000 1.0000 -0.0000
vn -0.0000 -0.0000 -1.0000
vt 0.253972 0.253972
vt 0.255556 0.250000
vt 0.257631 0.254000
vt 0.744444 0.250000
vt 0.746029 0.253972
vt 0.742369 0.254000
vt 0.253972 0.746029
vt 0.254167 0.750000
vt 0.257003 0.746000
vt 0.746029 0.746029
vt 0.742997 0.746000
vt 0.745833 0.750000
vt 0.742369 0.254000
vt 0.746029 0.253971
vt 0.257003 0.746000
vt 0.254167 0.750000
vt 0.745833 0.750000
vt 0.742997 0.746000
s 0
g B_MirrorPanel.001_crystal
usemtl crystal
f 89/61/85 90/62/85 91/63/85
f 92/64/86 93/65/86 94/66/86
f 95/67/87 96/68/87 97/69/87
f 98/70/88 99/71/88 100/72/88
f 101/61/89 102/63/89 103/62/89
f 104/64/90 105/73/90 106/74/90
f 107/67/91 108/75/91 109/76/91
f 110/70/92 111/77/92 112/78/92
f 99/71/93 89/61/93 91/63/93
f 92/64/94 91/63/94 90/62/94
f 93/65/95 97/69/95 94/66/95
f 100/72/96 97/69/96 96/68/96
f 101/61/97 112/78/97 102/63/97
f 105/73/98 103/62/98 102/63/98
f 108/75/99 106/74/99 105/73/99
f 112/78/100 109/76/100 108/75/100
f 101/61/101 90/62/101 89/61/101
f 104/64/102 93/65/102 92/64/102
f 107/67/103 96/68/103 95/67/103
f 111/77/104 98/70/104 100/72/104
f 98/70/105 101/61/105 89/61/105
f 94/66/106 99/71/106 91/63/106
f 90/62/107 104/64/107 92/64/107
f 93/65/108 107/67/108 95/67/108
f 96/68/109 111/77/109 100/72/109
f 112/78/110 105/73/110 102/63/110
f 99/71/93 98/70/93 89/61/93
f 92/64/94 94/66/94 91/63/94
f 93/65/95 95/67/95 97/69/95
f 100/72/96 99/71/96 97/69/96
f 101/61/97 110/70/97 112/78/97
f 105/73/98 104/64/98 103/62/98
f 108/75/99 107/67/99 106/74/99
f 112/78/100 111/77/100 109/76/100
f 101/61/101 103/62/101 90/62/101
f 104/64/102 106/74/102 93/65/102
f 107/67/103 109/76/103 96/68/103
f 111/77/104 110/70/104 98/70/104
f 98/70/105 110/70/105 101/61/105
f 94/66/106 97/69/106 99/71/106
f 90/62/107 103/62/107 104/64/107
f 93/65/108 106/74/108 107/67/108
f 96/68/109 109/76/109 111/77/109
f 112/78/110 108/75/110 105/73/110
g B_Torso.001_Mesh
v -0.402291 0.314824 0.095000
v -0.385000 0.300000 0.095000
v -0.387140 0.315000 0.110000
v 0.385000 0.300000 0.095000
v 0.402291 0.314824 0.095000
v 0.387140 0.315000 0.110000
v 0.567709 1.385176 0.095000
v 0.555000 1.400000 0.095000
v 0.552504 1.385000 0.110000
v -0.567709 1.385176 0.095000
v -0.552504 1.385000 0.110000
v -0.555000 1.400000 0.095000
v -0.402291 0.314824 -0.095000
v -0.387140 0.315000 -0.110000
v -0.385000 0.300000 -0.095000
v 0.385000 0.300000 -0.095000
v 0.387140 0.315000 -0.110000
v 0.402291 0.314824 -0.095000
v 0.567709 1.385176 -0.095000
v 0.552504 1.385000 -0.110000
v 0.555000 1.400000 -0.095000
v -0.567709 1.385176 -0.095000
v -0.555000 1.400000 -0.095000
v -0.552504 1.385000 -0.110000
vn -0.5416 -0.6318 0.5545
vn 0.5416 -0.6318 0.5545
vn 0.5994 0.5139 0.6137
vn -0.5994 0.5139 0.6137
vn -0.5416 -0.6318 -0.5545
vn 0.5416 -0.6318 -0.5545
vn 0.5994 0.5139 -0.6137
vn -0.5994 0.5139 -0.6137
vn -0.6988 -0.1080 0.7071
vn -0.0000 -0.7071 0.7071
vn 0.6988 -0.1080 0.7071
vn -0.0000 0.7071 0.7071
vn -0.6988 -0.1080 -0.7071
vn -0.0000 -0.7071 -0.7071
vn 0.6988 -0.1080 -0.7071
vn -0.0000 0.7071 -0.7071
vn -0.6509 -0.7592 -0.0000
vn 0.6509 -0.7592 -0.0000
vn 0.7592 0.6509 -0.0000
vn -0.7592 0.6509 -0.0000
vn -0.9883 -0.1527 -0.0000
vn -0.0000 -0.0000 1.0000
vn -0.0000 -1.0000 -0.0000
vn 0.9883 -0.1527 -0.0000
vn -0.0000 1.0000 -0.0000
vn -0.0000 -0.0000 -1.0000
vt 0.256738 0.256738
vt 0.259375 0.250000
vt 0.262754 0.256818
vt 0.740625 0.250000
vt 0.743262 0.256738
vt 0.737246 0.256818
vt 0.256738 0.743262
vt 0.256579 0.750000
vt 0.261576 0.743182
vt 0.743262 0.743262
vt 0.738424 0.743182
vt 0.743421 0.750000
vt 0.262754 0.256818
vt 0.740625 0.250000
vt 0.743262 0.256738
vt 0.261576 0.743182
vt 0.256579 0.750000
vt 0.743421 0.750000
s 0
g B_Torso.001_oxidized_bronze
usemtl oxidized_bronze
f 113/79/111 114/80/111 115/81/111
f 116/82/112 117/83/112 118/84/112
f 119/85/113 120/86/113 121/87/113
f 122/88/114 123/89/114 124/90/114
f 125/79/115 126/91/115 127/80/115
f 128/92/116 129/84/116 130/93/116
f 131/85/117 132/94/117 133/95/117
f 134/88/118 135/96/118 136/89/118
f 123/89/119 113/79/119 115/81/119
f 116/82/120 115/81/120 114/80/120
f 117/83/121 121/87/121 118/84/121
f 124/90/122 121/87/122 120/86/122
f 125/79/123 136/89/123 126/91/123
f 129/84/124 127/80/124 126/91/124
f 132/94/125 130/93/125 129/84/125
f 136/89/126 133/95/126 132/94/126
f 125/79/127 114/80/127 113/79/127
f 128/92/128 117/83/128 116/82/128
f 131/85/129 120/86/129 119/85/129
f 135/96/130 122/88/130 124/90/130
f 122/88/131 125/79/131 113/79/131
f 118/84/132 123/89/132 115/81/132
f 114/80/133 128/92/133 116/82/133
f 117/83/134 131/85/134 119/85/134
f 120/86/135 135/96/135 124/90/135
f 136/89/136 129/84/136 126/91/136
f 123/89/119 122/88/119 113/79/119
f 116/82/120 118/84/120 115/81/120
f 117/83/121 119/85/121 121/87/121
f 124/90/122 123/89/122 121/87/122
f 125/79/123 134/88/123 136/89/123
f 129/84/124 128/92/124 127/80/124
f 132/94/125 131/85/125 130/93/125
f 136/89/126 135/96/126 133/95/126
f 125/79/127 127/80/127 114/80/127
f 128/92/128 130/93/128 117/83/128
f 131/85/129 133/95/129 120/86/129
f 135/96/130 134/88/130 122/88/130
f 122/88/131 134/88/131 125/79/131
f 118/84/132 121/87/132 123/89/132
f 114/80/133 127/80/133 128/92/133
f 117/83/134 130/93/134 131/85/134
f 120/86/135 133/95/135 135/96/135
f 136/89/136 132/94/136 129/84/136
g B_Waist.001_Mesh
v -0.380000 0.400000 -0.080000
v -0.370000 0.410000 -0.080000
v -0.370000 0.400000 -0.090000
v 0.370000 0.410000 -0.080000
v 0.380000 0.400000 -0.080000
v 0.370000 0.400000 -0.090000
v 0.380000 0.300000 -0.080000
v 0.370000 0.290000 -0.080000
v 0.370000 0.300000 -0.090000
v -0.380000 0.300000 -0.080000
v -0.370000 0.300000 -0.090000
v -0.370000 0.290000 -0.080000
v -0.380000 0.400000 0.080000
v -0.370000 0.400000 0.090000
v -0.370000 0.410000 0.080000
v 0.370000 0.410000 0.080000
v 0.370000 0.400000 0.090000
v 0.380000 0.400000 0.080000
v 0.380000 0.300000 0.080000
v 0.370000 0.300000 0.090000
v 0.370000 0.290000 0.080000
v -0.380000 0.300000 0.080000
v -0.370000 0.290000 0.080000
v -0.370000 0.300000 0.090000
vn -0.5774 0.5774 -0.5773
vn 0.5774 0.5774 -0.5773
vn 0.5774 -0.5774 -0.5773
vn -0.5774 -0.5774 -0.5773
vn -0.5774 0.5774 0.5773
vn 0.5774 0.5774 0.5773
vn 0.5774 -0.5774 0.5773
vn -0.5774 -0.5774 0.5773
vn -0.7071 -0.0000 -0.7071
vn -0.0000 0.7071 -0.7071
vn 0.7071 -0.0000 -0.7071
vn -0.0000 -0.7071 -0.7071
vn -0.7071 -0.0000 0.7071
vn -0.0000 0.7071 0.7071
vn 0.7071 -0.0000 0.7071
vn -0.0000 -0.7071 0.7071
vn -0.7071 0.7071 -0.0000
vn 0.7071 0.7071 -0.0000
vn 0.7071 -0.7071 -0.0000
vn -0.7071 -0.7071 -0.0000
vn -1.0000 -0.0000 -0.0000
vn -0.0000 -0.0000 -1.0000
vn -0.0000 1.0000 -0.0000
vn 1.0000 -0.0000 -0.0000
vn -0.0000 -1.0000 -0.0000
vn -0.0000 -0.0000 1.0000
vt 0.291667 0.291667
vt 0.256579 0.250000
vt 0.294389 0.291667
vt 0.743421 0.250000
vt 0.708333 0.291667
vt 0.705611 0.291667
vt 0.291667 0.708333
vt 0.256579 0.750000
vt 0.294389 0.708333
vt 0.708333 0.708333
vt 0.705611 0.708333
vt 0.743421 0.750000
vt 0.291667 0.291667
vt 0.294389 0.291667
vt 0.708333 0.291667
vt 0.291667 0.708333
vt 0.294389 0.708333
vt 0.708333 0.708333
vt 0.743421 0.750000
s 0
g B_Waist.001_wrought_iron
usemtl wrought_iron
f 137/97/137 138/98/137 139/99/137
f 140/100/138 141/101/138 142/102/138
f 143/103/139 144/104/139 145/105/139
f 146/106/140 147/107/140 148/108/140
f 149/109/141 150/110/141 151/98/141
f 152/100/142 153/102/142 154/111/142
f 155/112/143 156/113/143 157/104/143
f 158/114/144 159/115/144 160/107/144
f 147/107/145 137/97/145 139/99/145
f 140/100/146 139/99/146 138/98/146
f 143/103/147 142/102/147 141/101/147
f 148/108/148 145/105/148 144/104/148
f 158/114/149 150/110/149 149/109/149
f 153/102/150 151/98/150 150/110/150
f 156/113/151 154/111/151 153/102/151
f 160/107/152 157/104/152 156/113/152
f 149/109/153 138/98/153 137/97/153
f 152/100/154 141/101/154 140/100/154
f 155/112/155 144/104/155 143/103/155
f 159/115/156 146/106/156 148/108/156
f 146/106/157 149/109/157 137/97/157
f 142/102/158 147/107/158 139/99/158
f 138/98/159 152/100/159 140/100/159
f 141/101/160 155/112/160 143/103/160
f 144/104/161 159/115/161 148/108/161
f 160/107/162 153/102/162 150/110/162
f 147/107/145 146/106/145 137/97/145
f 140/100/146 142/102/146 139/99/146
f 143/103/147 145/105/147 142/102/147
f 148/108/148 147/107/148 145/105/148
f 158/114/149 160/107/149 150/110/149
f 153/102/150 152/100/150 151/98/150
f 156/113/151 155/112/151 154/111/151
f 160/107/152 159/115/152 157/104/152
f 149/109/153 151/98/153 138/98/153
f 152/100/154 154/111/154 141/101/154
f 155/112/155 157/104/155 144/104/155
f 159/115/156 158/114/156 146/106/156
f 146/106/157 158/114/157 149/109/157
f 142/102/158 145/105/158 147/107/158
f 138/98/159 151/98/159 152/100/159
f 141/101/160 154/111/160 155/112/160
f 144/104/161 157/104/161 159/115/161
f 160/107/162 156/113/162 153/102/162
