# Batch C: authored as spatial sweep gestures
# generated by tools/asset-production/lathe.py
mtllib swept_cohort.mtl
o molten_manacle
v 0.668756 0.035812 -0.032076
v 0.598464 0.092579 -0.043847
v 0.510811 0.079632 -0.022601
v 0.471802 0.006721 0.015664
v 0.510811 -0.071252 0.042134
v 0.598464 -0.095570 0.036875
v 0.668756 -0.047922 0.003849
v 0.615824 0.162329 0.216774
v 0.539174 0.196915 0.151250
v 0.458064 0.142093 0.109056
v 0.433570 0.039146 0.121964
v 0.484138 -0.034405 0.180254
v 0.571688 -0.023175 0.240034
v 0.630293 0.064380 0.256286
v 0.361249 0.178914 0.382610
v 0.319514 0.193831 0.307601
v 0.292222 0.136203 0.248231
v 0.299924 0.049426 0.249207
v 0.336819 -0.001156 0.309794
v 0.375126 0.022546 0.384368
v 0.385998 0.102685 0.416774
v 0.098220 0.116684 0.456691
v 0.083300 0.122032 0.381693
v 0.090292 0.068160 0.327612
v 0.113932 -0.004366 0.335171
v 0.136418 -0.040931 0.398679
v 0.140818 -0.014002 0.470312
v 0.123818 0.056143 0.496130
v -0.155750 0.056173 0.451204
v -0.138695 0.054134 0.353875
v -0.107147 -0.021341 0.298409
v -0.084865 -0.113418 0.326575
v -0.088626 -0.152762 0.417162
v -0.115598 -0.109745 0.501957
v -0.145471 -0.016760 0.517107
v -0.390134 0.017369 0.351445
v -0.338932 -0.001444 0.263383
v -0.309047 -0.092584 0.224257
v -0.322982 -0.187420 0.263530
v -0.370244 -0.214539 0.351628
v -0.415244 -0.153520 0.422212
v -0.424096 -0.050311 0.422130
v -0.505194 0.010705 0.200060
v -0.447777 -0.029113 0.160724
v -0.447052 -0.105882 0.137584
v -0.503563 -0.161793 0.148064
v -0.574758 -0.154744 0.184273
v -0.607024 -0.090043 0.218944
v -0.576065 -0.016411 0.225970
v -0.480527 0.073024 0.039218
v -0.433417 0.009313 0.020318
v -0.454963 -0.061412 -0.013883
v -0.528940 -0.085892 -0.037629
v -0.599642 -0.045694 -0.033040
v -0.613830 0.028913 -0.003571
v -0.560819 0.081747 0.028587
v -0.387104 0.154406 -0.121389
v -0.350980 0.056768 -0.130857
v -0.395305 -0.024743 -0.179010
v -0.486702 -0.028749 -0.229589
v -0.556347 0.047767 -0.244507
v -0.551796 0.147187 -0.212529
v -0.476476 0.194646 -0.157737
v -0.287210 0.152087 -0.250891
v -0.290723 0.055332 -0.241107
v -0.336723 -0.009676 -0.297034
v -0.390572 0.006017 -0.376556
v -0.411719 0.090593 -0.419793
v -0.384241 0.180365 -0.394186
v -0.328829 0.207732 -0.319018
v -0.109164 0.076405 -0.331614
v -0.130875 0.003470 -0.331401
v -0.153715 -0.039406 -0.389976
v -0.160483 -0.019936 -0.463230
v -0.146085 0.047218 -0.496001
v -0.121361 0.111489 -0.463612
v -0.104929 0.124478 -0.390453
v 0.116663 -0.014777 -0.311616
v 0.093655 -0.098667 -0.329405
v 0.094494 -0.140931 -0.407484
v 0.118547 -0.109744 -0.487059
v 0.147702 -0.028589 -0.508207
v 0.160005 0.041421 -0.455005
v 0.146192 0.047568 -0.367513
v 0.252335 -0.081493 -0.225992
v 0.263646 -0.182517 -0.258518
v 0.316338 -0.219516 -0.343644
v 0.370732 -0.164629 -0.417268
v 0.385869 -0.059187 -0.423949
v 0.350350 0.017410 -0.358657
v 0.290922 0.007483 -0.270558
v 0.389372 -0.091104 -0.116899
v 0.438358 -0.164033 -0.133557
v 0.509668 -0.172315 -0.186868
v 0.549604 -0.109714 -0.236687
v 0.528093 -0.023369 -0.245500
v 0.461334 0.021699 -0.206670
v 0.399597 -0.008446 -0.149437
v 0.850622 -0.067549 0.026889
v 0.790000 -0.035097 0.013778
v 0.729378 -0.067549 0.026889
v 0.729378 -0.132451 0.053111
v 0.790000 -0.164903 0.066222
v 0.850622 -0.132451 0.053111
v 0.800157 0.015373 0.232126
v 0.746074 0.037565 0.193623
v 0.691991 -0.005146 0.181342
v 0.691991 -0.070048 0.207564
v 0.746074 -0.092241 0.246068
v 0.800157 -0.049530 0.258349
v 0.656688 0.070604 0.368828
v 0.631074 0.082473 0.304773
v 0.605459 0.029439 0.266941
v 0.605459 -0.035464 0.293163
v 0.631074 -0.047333 0.357218
v 0.656688 0.005701 0.395050
v 0.463312 0.070604 0.368828
v 0.488926 0.082473 0.304773
v 0.514541 0.029439 0.266941
v 0.514541 -0.035464 0.293163
v 0.488926 -0.047333 0.357218
v 0.463312 0.005701 0.395050
v 0.319843 0.015373 0.232126
v 0.373926 0.037565 0.193623
v 0.428009 -0.005146 0.181342
v 0.428009 -0.070048 0.207564
v 0.373926 -0.092241 0.246068
v 0.319843 -0.049530 0.258349
v 0.269378 -0.067549 0.026889
v 0.330000 -0.035097 0.013778
v 0.390622 -0.067549 0.026889
v 0.390622 -0.132451 0.053111
v 0.330000 -0.164903 0.066222
v 0.269378 -0.132451 0.053111
v 0.319843 -0.150470 -0.178349
v 0.373926 -0.107759 -0.166068
v 0.428009 -0.129952 -0.127564
v 0.428009 -0.194854 -0.101342
v 0.373926 -0.237565 -0.113623
v 0.319843 -0.215373 -0.152126
v 0.463312 -0.205701 -0.315050
v 0.488926 -0.152667 -0.277218
v 0.514541 -0.164536 -0.213163
v 0.514541 -0.229439 -0.186941
v 0.488926 -0.282473 -0.224773
v 0.463312 -0.270604 -0.288828
v 0.656688 -0.205701 -0.315050
v 0.631074 -0.152667 -0.277218
v 0.605459 -0.164536 -0.213163
v 0.605459 -0.229439 -0.186941
v 0.631074 -0.282473 -0.224773
v 0.656688 -0.270604 -0.288828
v 0.800157 -0.150470 -0.178349
v 0.746074 -0.107759 -0.166068
v 0.691991 -0.129952 -0.127564
v 0.691991 -0.194854 -0.101342
v 0.746074 -0.237565 -0.113623
v 0.800157 -0.215373 -0.152126
v 1.115426 -0.345972 0.071239
v 1.060000 -0.331944 0.042477
v 1.004574 -0.345972 0.071239
v 1.004574 -0.374028 0.128761
v 1.060000 -0.388056 0.157523
v 1.115426 -0.374028 0.128761
v 1.067246 -0.159370 0.162251
v 1.017984 -0.168172 0.122354
v 0.968721 -0.205030 0.139981
v 0.968721 -0.233085 0.197504
v 1.017984 -0.224283 0.237400
v 1.067246 -0.187426 0.219773
v 0.931057 -0.035688 0.222574
v 0.907984 -0.066955 0.171721
v 0.884911 -0.126278 0.178391
v 0.884911 -0.154333 0.235914
v 0.907984 -0.123067 0.286767
v 0.931057 -0.063744 0.280097
v 0.748943 -0.035688 0.222574
v 0.772016 -0.066955 0.171721
v 0.795089 -0.126278 0.178391
v 0.795089 -0.154333 0.235914
v 0.772016 -0.123067 0.286767
v 0.748943 -0.063744 0.280097
v 0.612754 -0.159370 0.162251
v 0.662016 -0.168172 0.122354
v 0.711279 -0.205030 0.139981
v 0.711279 -0.233085 0.197504
v 0.662016 -0.224283 0.237400
v 0.612754 -0.187426 0.219773
v 0.564574 -0.345972 0.071239
v 0.620000 -0.331944 0.042477
v 0.675426 -0.345972 0.071239
v 0.675426 -0.374028 0.128761
v 0.620000 -0.388056 0.157523
v 0.564574 -0.374028 0.128761
v 0.612754 -0.532574 -0.019773
v 0.662016 -0.495717 -0.037400
v 0.711279 -0.486915 0.002496
v 0.711279 -0.514970 0.060019
v 0.662016 -0.551828 0.077646
v 0.612754 -0.560630 0.037749
v 0.748943 -0.656256 -0.080097
v 0.772016 -0.596933 -0.086767
v 0.795089 -0.565667 -0.035914
v 0.795089 -0.593722 0.021609
v 0.772016 -0.653045 0.028279
v 0.748943 -0.684312 -0.022574
v 0.931057 -0.656256 -0.080097
v 0.907984 -0.596933 -0.086767
v 0.884911 -0.565667 -0.035914
v 0.884911 -0.593722 0.021609
v 0.907984 -0.653045 0.028279
v 0.931057 -0.684312 -0.022574
v 1.067246 -0.532574 -0.019773
v 1.017984 -0.495717 -0.037400
v 0.968721 -0.486915 0.002496
v 0.968721 -0.514970 0.060019
v 1.017984 -0.551828 0.077646
v 1.067246 -0.560630 0.037749
v 0.156055 -0.348804 0.342019
v 0.142631 -0.357348 0.297770
v 0.180850 -0.355737 0.270423
v 0.217894 -0.346198 0.297770
v 0.202570 -0.341913 0.342019
v 0.203058 -0.620474 0.372288
v 0.193563 -0.619804 0.340778
v 0.220603 -0.619405 0.322013
v 0.246810 -0.619828 0.341925
v 0.235966 -0.620489 0.372997
v 0.176236 -0.820411 0.304654
v 0.174528 -0.818431 0.298103
v 0.180382 -0.818620 0.294173
v 0.185708 -0.820716 0.298296
v 0.183146 -0.821822 0.304773
v 0.180000 -0.350000 0.310000
v 0.180000 -0.820000 0.300000
v -0.319368 -0.291158 -0.234553
v -0.329556 -0.282519 -0.269720
v -0.298899 -0.284218 -0.291454
v -0.269763 -0.293908 -0.269720
v -0.282414 -0.298197 -0.234553
v -0.353539 -0.501440 -0.282719
v -0.360676 -0.499376 -0.307492
v -0.339239 -0.498174 -0.321911
v -0.318854 -0.499496 -0.306050
v -0.327692 -0.501514 -0.281828
v -0.303739 -0.650688 -0.285358
v -0.305370 -0.651576 -0.292162
v -0.299580 -0.650287 -0.295978
v -0.294370 -0.648601 -0.291532
v -0.296940 -0.648849 -0.284969
v -0.300000 -0.290000 -0.260000
v -0.300000 -0.650000 -0.290000
vt 0.000000 0.000000
vt 0.142857 0.000000
vt 0.285714 0.000000
vt 0.428571 0.000000
vt 0.571429 0.000000
vt 0.714286 0.000000
vt 0.857143 0.000000
vt 0.000000 0.063890
vt 0.142857 0.063890
vt 0.285714 0.063890
vt 0.428571 0.063890
vt 0.571429 0.063890
vt 0.714286 0.063890
vt 0.857143 0.063890
vt 0.000000 0.140816
vt 0.142857 0.140816
vt 0.285714 0.140816
vt 0.428571 0.140816
vt 0.571429 0.140816
vt 0.714286 0.140816
vt 0.857143 0.140816
vt 0.000000 0.218470
vt 0.142857 0.218470
vt 0.285714 0.218470
vt 0.428571 0.218470
vt 0.571429 0.218470
vt 0.714286 0.218470
vt 0.857143 0.218470
vt 0.000000 0.296488
vt 0.142857 0.296488
vt 0.285714 0.296488
vt 0.428571 0.296488
vt 0.571429 0.296488
vt 0.714286 0.296488
vt 0.857143 0.296488
vt 0.000000 0.380407
vt 0.142857 0.380407
vt 0.285714 0.380407
vt 0.428571 0.380407
vt 0.571429 0.380407
vt 0.714286 0.380407
vt 0.857143 0.380407
vt 0.000000 0.448007
vt 0.142857 0.448007
vt 0.285714 0.448007
vt 0.428571 0.448007
vt 0.571429 0.448007
vt 0.714286 0.448007
vt 0.857143 0.448007
vt 0.000000 0.510501
vt 0.142857 0.510501
vt 0.285714 0.510501
vt 0.428571 0.510501
vt 0.571429 0.510501
vt 0.714286 0.510501
vt 0.857143 0.510501
vt 0.000000 0.576443
vt 0.142857 0.576443
vt 0.285714 0.576443
vt 0.428571 0.576443
vt 0.571429 0.576443
vt 0.714286 0.576443
vt 0.857143 0.576443
vt 0.000000 0.634534
vt 0.142857 0.634534
vt 0.285714 0.634534
vt 0.428571 0.634534
vt 0.571429 0.634534
vt 0.714286 0.634534
vt 0.857143 0.634534
vt 0.000000 0.708867
vt 0.142857 0.708867
vt 0.285714 0.708867
vt 0.428571 0.708867
vt 0.571429 0.708867
vt 0.714286 0.708867
vt 0.857143 0.708867
vt 0.000000 0.794562
vt 0.142857 0.794562
vt 0.285714 0.794562
vt 0.428571 0.794562
vt 0.571429 0.794562
vt 0.714286 0.794562
vt 0.857143 0.794562
vt 0.000000 0.862783
vt 0.142857 0.862783
vt 0.285714 0.862783
vt 0.428571 0.862783
vt 0.571429 0.862783
vt 0.714286 0.862783
vt 0.857143 0.862783
vt 0.000000 0.928929
vt 0.142857 0.928929
vt 0.285714 0.928929
vt 0.428571 0.928929
vt 0.571429 0.928929
vt 0.714286 0.928929
vt 0.857143 0.928929
vt 0.000000 0.000000
vt 0.166667 0.000000
vt 0.333333 0.000000
vt 0.500000 0.000000
vt 0.666667 0.000000
vt 0.833333 0.000000
vt 0.000000 0.114017
vt 0.166667 0.114017
vt 0.333333 0.114017
vt 0.500000 0.114017
vt 0.666667 0.114017
vt 0.833333 0.114017
vt 0.000000 0.209254
vt 0.166667 0.209254
vt 0.333333 0.209254
vt 0.500000 0.209254
vt 0.666667 0.209254
vt 0.833333 0.209254
vt 0.000000 0.290746
vt 0.166667 0.290746
vt 0.333333 0.290746
vt 0.500000 0.290746
vt 0.666667 0.290746
vt 0.833333 0.290746
vt 0.000000 0.385983
vt 0.166667 0.385983
vt 0.333333 0.385983
vt 0.500000 0.385983
vt 0.666667 0.385983
vt 0.833333 0.385983
vt 0.000000 0.500000
vt 0.166667 0.500000
vt 0.333333 0.500000
vt 0.500000 0.500000
vt 0.666667 0.500000
vt 0.833333 0.500000
vt 0.000000 0.614017
vt 0.166667 0.614017
vt 0.333333 0.614017
vt 0.500000 0.614017
vt 0.666667 0.614017
vt 0.833333 0.614017
vt 0.000000 0.709254
vt 0.166667 0.709254
vt 0.333333 0.709254
vt 0.500000 0.709254
vt 0.666667 0.709254
vt 0.833333 0.709254
vt 0.000000 0.790746
vt 0.166667 0.790746
vt 0.333333 0.790746
vt 0.500000 0.790746
vt 0.666667 0.790746
vt 0.833333 0.790746
vt 0.000000 0.885983
vt 0.166667 0.885983
vt 0.333333 0.885983
vt 0.500000 0.885983
vt 0.666667 0.885983
vt 0.833333 0.885983
vt 0.000000 0.000000
vt 0.166667 0.000000
vt 0.333333 0.000000
vt 0.500000 0.000000
vt 0.666667 0.000000
vt 0.833333 0.000000
vt 0.000000 0.113357
vt 0.166667 0.113357
vt 0.333333 0.113357
vt 0.500000 0.113357
vt 0.666667 0.113357
vt 0.833333 0.113357
vt 0.000000 0.208788
vt 0.166667 0.208788
vt 0.333333 0.208788
vt 0.500000 0.208788
vt 0.666667 0.208788
vt 0.833333 0.208788
vt 0.000000 0.291212
vt 0.166667 0.291212
vt 0.333333 0.291212
vt 0.500000 0.291212
vt 0.666667 0.291212
vt 0.833333 0.291212
vt 0.000000 0.386643
vt 0.166667 0.386643
vt 0.333333 0.386643
vt 0.500000 0.386643
vt 0.666667 0.386643
vt 0.833333 0.386643
vt 0.000000 0.500000
vt 0.166667 0.500000
vt 0.333333 0.500000
vt 0.500000 0.500000
vt 0.666667 0.500000
vt 0.833333 0.500000
vt 0.000000 0.613357
vt 0.166667 0.613357
vt 0.333333 0.613357
vt 0.500000 0.613357
vt 0.666667 0.613357
vt 0.833333 0.613357
vt 0.000000 0.708788
vt 0.166667 0.708788
vt 0.333333 0.708788
vt 0.500000 0.708788
vt 0.666667 0.708788
vt 0.833333 0.708788
vt 0.000000 0.791212
vt 0.166667 0.791212
vt 0.333333 0.791212
vt 0.500000 0.791212
vt 0.666667 0.791212
vt 0.833333 0.791212
vt 0.000000 0.886643
vt 0.166667 0.886643
vt 0.333333 0.886643
vt 0.500000 0.886643
vt 0.666667 0.886643
vt 0.833333 0.886643
vt 0.000000 0.000000
vt 0.200000 0.000000
vt 0.400000 0.000000
vt 0.600000 0.000000
vt 0.800000 0.000000
vt 0.000000 0.567779
vt 0.200000 0.567779
vt 0.400000 0.567779
vt 0.600000 0.567779
vt 0.800000 0.567779
vt 0.000000 1.000000
vt 0.200000 1.000000
vt 0.400000 1.000000
vt 0.600000 1.000000
vt 0.800000 1.000000
vt 0.500000 0.500000
vt 0.500000 0.500000
vt 0.000000 0.000000
vt 0.200000 0.000000
vt 0.400000 0.000000
vt 0.600000 0.000000
vt 0.800000 0.000000
vt 0.000000 0.582995
vt 0.200000 0.582995
vt 0.400000 0.582995
vt 0.600000 0.582995
vt 0.800000 0.582995
vt 0.000000 1.000000
vt 0.200000 1.000000
vt 0.400000 1.000000
vt 0.600000 1.000000
vt 0.800000 1.000000
vt 0.500000 0.500000
vt 0.500000 0.500000
vn 0.489227 0.404999 0.772420
vn 0.524991 0.545137 0.653613
vn 0.062059 0.969961 -0.235213
vn 0.700401 0.645916 0.303696
vn 0.504186 0.731624 0.458827
vn -0.606453 0.562287 -0.562182
vn 0.368596 -0.907590 0.201039
vn -0.855527 -0.240944 -0.458279
vn 0.626763 -0.482587 0.611782
vn -0.487167 -0.873132 0.017558
vn 0.613181 0.094748 0.784239
vn 0.224409 -0.845668 0.484237
vn 0.501777 0.317834 0.804488
vn 0.760654 -0.191049 0.620408
vn -0.229157 0.968925 -0.093119
vn 0.185013 0.759816 0.623257
vn -0.535024 0.450832 -0.714493
vn -0.495788 -0.422661 -0.758651
vn -0.135232 -0.976337 -0.168755
vn 0.264782 -0.770352 0.580042
vn 0.401055 -0.001630 0.916052
vn -0.321086 0.920906 -0.220989
vn -0.136656 0.786516 0.602260
vn -0.277596 0.368157 -0.887356
vn -0.028103 -0.480783 -0.876389
vn 0.228502 -0.955875 -0.184634
vn 0.298897 -0.707170 0.640759
vn 0.137647 0.067865 0.988154
vn -0.189118 0.896963 -0.399615
vn -0.302144 0.837438 0.455419
vn 0.074254 0.281952 -0.956551
vn 0.281159 -0.538250 -0.794504
vn 0.277736 -0.959519 -0.046746
vn 0.069667 -0.660173 0.747876
vn -0.188389 0.150624 0.970475
vn 0.066550 0.851844 -0.519551
vn -0.349524 0.908007 0.230990
vn 0.358813 0.134264 -0.923702
vn 0.284783 -0.682914 -0.672701
vn -0.087495 -0.995944 0.020977
vn -0.478344 -0.573102 0.665388
vn -0.588494 0.282100 0.757690
vn 0.667359 0.700898 -0.251741
vn -0.052340 0.973369 0.223191
vn 0.771739 -0.183536 -0.608879
vn 0.213012 -0.821298 -0.529241
vn -0.514028 -0.841735 -0.165098
vn -0.937825 -0.241602 0.249226
vn -0.722117 0.554598 0.413484
vn 0.937433 0.208231 0.279032
vn 0.344803 0.824229 0.449175
vn 0.820223 -0.562270 -0.105295
vn 0.063575 -0.916513 -0.394919
vn -0.730769 -0.574915 -0.368035
vn -0.981050 0.176891 -0.079059
vn -0.521634 0.806540 0.278193
vn 0.901249 -0.085633 0.424756
vn 0.546168 0.691110 0.473358
vn 0.596487 -0.800785 0.054287
vn -0.143544 -0.912899 -0.382114
vn -0.758718 -0.336745 -0.557628
vn -0.799896 0.504315 -0.325319
vn -0.212628 0.965928 0.147555
vn 0.684815 -0.285575 0.670429
vn 0.613403 0.580090 0.535940
vn 0.272796 -0.940014 0.204833
vn -0.242992 -0.854377 -0.459341
vn -0.501173 -0.155352 -0.851288
vn -0.316576 0.675620 -0.665821
vn 0.177509 0.983336 -0.039243
vn 0.133720 -0.396959 0.908043
vn 0.356062 0.462383 0.812048
vn -0.141237 -0.950276 0.277539
vn -0.256449 -0.784366 -0.564804
vn -0.136853 -0.049970 -0.989330
vn 0.125222 0.701243 -0.701839
vn 0.343657 0.935628 0.080627
vn -0.306054 -0.453169 0.837239
vn -0.081759 0.385653 0.919014
vn -0.299934 -0.945187 0.129081
vn -0.077728 -0.729640 -0.679400
vn 0.199221 0.044032 -0.978965
vn 0.324062 0.779908 -0.535469
vn 0.201986 0.931098 0.303741
vn -0.398786 -0.595662 0.697250
vn -0.437101 0.239917 0.866823
vn -0.018805 -0.998769 0.045908
vn 0.431014 -0.652287 -0.623498
vn 0.602333 0.192172 -0.774767
vn 0.374050 0.873644 -0.311179
vn -0.088449 0.903653 0.419032
vn -0.056715 -0.575177 0.816061
vn -0.426737 0.093403 0.899540
vn 0.545783 -0.750569 0.372515
vn 0.948767 -0.297308 -0.107003
vn 0.851154 0.456844 -0.258518
vn 0.309918 0.950193 0.032922
vn -0.274650 0.785312 0.554845
vn 0.863588 0.467434 -0.189002
vn -0.000131 0.927192 -0.374587
vn -0.000938 0.927862 -0.372923
vn 0.757309 0.624536 0.190888
vn -0.863734 0.467312 -0.188637
vn -0.761429 0.319082 -0.564281
vn -0.863698 -0.467258 0.188931
vn -0.760562 -0.622028 -0.186082
vn -0.000099 -0.927178 0.374621
vn -0.000584 -0.926749 0.375680
vn 0.863561 -0.467572 0.188782
vn 0.756755 -0.316069 0.572208
vn -0.000931 0.927760 -0.373176
vn 0.331612 0.775142 0.537762
vn -0.337433 0.186905 -0.922608
vn -0.336196 -0.775096 -0.534976
vn -0.000577 -0.926827 0.375488
vn 0.330850 -0.183427 0.925685
vn 0.001615 0.927540 -0.373719
vn -0.333283 0.773154 0.539588
vn 0.339658 0.183359 -0.922503
vn 0.337863 -0.773102 -0.536807
vn 0.000990 -0.926965 0.375146
vn -0.332186 -0.181245 0.925636
vn 0.001716 0.927637 -0.373478
vn -0.758600 0.622221 0.193303
vn 0.763086 0.314775 -0.564462
vn 0.761848 -0.619720 -0.188505
vn 0.001068 -0.926891 0.375329
vn -0.757814 -0.313333 0.572311
vn 0.000131 0.927176 -0.374626
vn -0.863588 0.467536 -0.188750
vn 0.863734 0.467194 -0.188928
vn 0.863698 -0.467360 0.188679
vn 0.000099 -0.927190 0.374592
vn -0.863561 -0.467482 0.189004
vn 0.000938 0.926502 -0.376289
vn -0.757309 0.316652 -0.571152
vn 0.761429 0.621511 0.184257
vn 0.760562 -0.318185 0.565953
vn 0.000584 -0.927617 0.373532
vn -0.756755 -0.624850 -0.192052
vn 0.000931 0.926605 -0.376036
vn -0.331612 0.184029 -0.925293
vn 0.337433 0.775345 0.533834
vn 0.336196 -0.185932 0.923256
vn 0.000577 -0.927539 0.373725
vn -0.330850 -0.774982 -0.538463
vn -0.001615 0.926824 -0.375492
vn 0.333283 0.181331 -0.925225
vn -0.339658 0.772722 0.536221
vn -0.337863 -0.183225 0.923188
vn -0.000990 -0.927401 0.374066
vn 0.332186 -0.773378 -0.539944
vn -0.001716 0.926726 -0.375734
vn 0.758600 0.313309 -0.571282
vn -0.763086 0.618538 0.187379
vn -0.761848 -0.314843 0.566093
vn -0.001068 -0.927475 0.373884
vn 0.757814 -0.622954 -0.194027
vn 0.863490 0.220976 -0.453382
vn -0.000128 0.438390 -0.898785
vn -0.000861 0.439856 -0.898068
vn 0.754659 0.596128 -0.274080
vn -0.863633 0.221135 -0.453031
vn -0.758476 -0.145182 -0.635323
vn -0.863599 -0.220894 0.453214
vn -0.757676 -0.591483 0.275815
vn -0.000097 -0.438357 0.898801
vn -0.000545 -0.437406 0.899264
vn 0.863464 -0.221228 0.453308
vn 0.754140 0.152091 0.638859
vn -0.000853 0.439618 -0.898185
vn 0.328471 0.937118 -0.117964
vn -0.333786 -0.480451 -0.811021
vn -0.332660 -0.935406 0.119799
vn -0.000538 -0.437588 0.899175
vn 0.327766 0.484641 0.810983
vn 0.001464 0.439136 -0.898420
vn -0.330037 0.936886 -0.115415
vn 0.335844 -0.482865 -0.808733
vn 0.334223 -0.935173 0.117243
vn 0.000914 -0.437896 0.899025
vn -0.329027 0.486163 0.809559
vn 0.001564 0.439361 -0.898309
vn -0.755889 0.596031 -0.270884
vn 0.760036 -0.148326 -0.632727
vn 0.758901 -0.591395 0.272619
vn 0.000991 -0.437725 0.899109
vn -0.755155 0.154114 0.637173
vn 0.000128 0.438352 -0.898803
vn -0.863490 0.221223 -0.453261
vn 0.863633 0.220849 -0.453170
vn 0.863599 -0.221142 0.453093
vn 0.000097 -0.438386 0.898787
vn -0.863464 -0.221010 0.453414
vn 0.000861 0.436885 -0.899517
vn -0.754659 -0.151035 -0.638496
vn 0.758476 0.590024 -0.276740
vn 0.757676 0.146809 0.635904
vn 0.000545 -0.439335 0.898323
vn -0.754140 -0.597065 0.273472
vn 0.000853 0.437123 -0.899401
vn -0.328471 -0.483991 -0.811086
vn 0.333786 0.934888 -0.120714
vn 0.332660 0.481490 0.810866
vn 0.000538 -0.439154 0.898412
vn -0.327766 -0.937438 0.117389
vn -0.001464 0.437605 -0.899166
vn 0.330037 -0.485856 -0.809333
vn -0.335844 0.934572 -0.117403
vn -0.334223 0.483361 0.809109
vn -0.000914 -0.438846 0.898562
vn 0.329027 -0.937253 0.115313
vn -0.001564 0.437379 -0.899276
vn 0.755889 -0.153494 -0.636452
vn -0.760036 0.589915 -0.272663
vn -0.758901 0.149273 0.633867
vn -0.000991 -0.439017 0.898478
vn 0.755155 -0.596981 0.270839
vn -0.591400 -0.014651 0.806245
vn -0.926401 -0.229381 -0.298606
vn -0.949098 -0.036959 -0.312805
vn -0.602785 -0.097206 0.791961
vn 0.027873 -0.187869 -0.981798
vn 0.028903 -0.028498 -0.999176
vn 0.952898 0.051058 -0.298964
vn 0.948788 -0.082802 -0.304869
vn 0.570227 0.157621 0.806224
vn 0.569660 -0.126896 0.812025
vn -0.935968 0.156893 -0.315197
vn -0.609910 -0.179879 0.771786
vn 0.029189 0.132443 -0.990761
vn 0.927524 -0.215634 -0.305288
vn 0.524682 -0.394528 0.754358
vn -0.145000 0.978749 -0.145000
vn -0.190476 -0.952381 -0.238095
vn -0.613196 -0.081444 0.785721
vn -0.931308 0.187726 -0.312129
vn -0.936374 -0.089008 -0.339531
vn -0.606312 -0.146739 0.781571
vn 0.025642 0.134641 -0.990563
vn 0.040733 -0.010073 -0.999119
vn 0.934780 -0.169115 -0.312389
vn 0.955033 -0.020480 -0.295790
vn 0.540034 -0.302346 0.785462
vn 0.553947 -0.105371 0.825857
vn -0.871551 -0.352338 -0.340965
vn -0.596677 -0.212155 0.773929
vn 0.054989 -0.154886 -0.986401
vn 0.953450 0.129611 -0.272277
vn 0.545379 0.095660 0.832713
vn 0.183920 0.965581 0.183920
vn 0.257130 -0.964237 0.064282
usemtl oxidized_bronze
s 1
f 1/1/1 2/2/2 9/9/3 8/8/4
s 1
f 2/2/2 3/3/5 10/10/6 9/9/3
s 1
f 3/3/5 4/4/7 11/11/8 10/10/6
s 1
f 4/4/7 5/5/9 12/12/10 11/11/8
s 1
f 5/5/9 6/6/11 13/13/12 12/12/10
s 1
f 6/6/11 7/7/13 14/14/14 13/13/12
s 1
f 7/7/13 1/1/1 8/8/4 14/14/14
s 1
f 8/8/4 9/9/3 16/16/15 15/15/16
s 1
f 9/9/3 10/10/6 17/17/17 16/16/15
s 1
f 10/10/6 11/11/8 18/18/18 17/17/17
s 1
f 11/11/8 12/12/10 19/19/19 18/18/18
s 1
f 12/12/10 13/13/12 20/20/20 19/19/19
s 1
f 13/13/12 14/14/14 21/21/21 20/20/20
s 1
f 14/14/14 8/8/4 15/15/16 21/21/21
s 1
f 15/15/16 16/16/15 23/23/22 22/22/23
s 1
f 16/16/15 17/17/17 24/24/24 23/23/22
s 1
f 17/17/17 18/18/18 25/25/25 24/24/24
s 1
f 18/18/18 19/19/19 26/26/26 25/25/25
s 1
f 19/19/19 20/20/20 27/27/27 26/26/26
s 1
f 20/20/20 21/21/21 28/28/28 27/27/27
s 1
f 21/21/21 15/15/16 22/22/23 28/28/28
s 1
f 22/22/23 23/23/22 30/30/29 29/29/30
s 1
f 23/23/22 24/24/24 31/31/31 30/30/29
s 1
f 24/24/24 25/25/25 32/32/32 31/31/31
s 1
f 25/25/25 26/26/26 33/33/33 32/32/32
s 1
f 26/26/26 27/27/27 34/34/34 33/33/33
s 1
f 27/27/27 28/28/28 35/35/35 34/34/34
s 1
f 28/28/28 22/22/23 29/29/30 35/35/35
s 1
f 29/29/30 30/30/29 37/37/36 36/36/37
s 1
f 30/30/29 31/31/31 38/38/38 37/37/36
s 1
f 31/31/31 32/32/32 39/39/39 38/38/38
s 1
f 32/32/32 33/33/33 40/40/40 39/39/39
s 1
f 33/33/33 34/34/34 41/41/41 40/40/40
s 1
f 34/34/34 35/35/35 42/42/42 41/41/41
s 1
f 35/35/35 29/29/30 36/36/37 42/42/42
s 1
f 36/36/37 37/37/36 44/44/43 43/43/44
s 1
f 37/37/36 38/38/38 45/45/45 44/44/43
s 1
f 38/38/38 39/39/39 46/46/46 45/45/45
s 1
f 39/39/39 40/40/40 47/47/47 46/46/46
s 1
f 40/40/40 41/41/41 48/48/48 47/47/47
s 1
f 41/41/41 42/42/42 49/49/49 48/48/48
s 1
f 42/42/42 36/36/37 43/43/44 49/49/49
s 1
f 43/43/44 44/44/43 51/51/50 50/50/51
s 1
f 44/44/43 45/45/45 52/52/52 51/51/50
s 1
f 45/45/45 46/46/46 53/53/53 52/52/52
s 1
f 46/46/46 47/47/47 54/54/54 53/53/53
s 1
f 47/47/47 48/48/48 55/55/55 54/54/54
s 1
f 48/48/48 49/49/49 56/56/56 55/55/55
s 1
f 49/49/49 43/43/44 50/50/51 56/56/56
s 1
f 50/50/51 51/51/50 58/58/57 57/57/58
s 1
f 51/51/50 52/52/52 59/59/59 58/58/57
s 1
f 52/52/52 53/53/53 60/60/60 59/59/59
s 1
f 53/53/53 54/54/54 61/61/61 60/60/60
s 1
f 54/54/54 55/55/55 62/62/62 61/61/61
s 1
f 55/55/55 56/56/56 63/63/63 62/62/62
s 1
f 56/56/56 50/50/51 57/57/58 63/63/63
s 1
f 57/57/58 58/58/57 65/65/64 64/64/65
s 1
f 58/58/57 59/59/59 66/66/66 65/65/64
s 1
f 59/59/59 60/60/60 67/67/67 66/66/66
s 1
f 60/60/60 61/61/61 68/68/68 67/67/67
s 1
f 61/61/61 62/62/62 69/69/69 68/68/68
s 1
f 62/62/62 63/63/63 70/70/70 69/69/69
s 1
f 63/63/63 57/57/58 64/64/65 70/70/70
s 1
f 64/64/65 65/65/64 72/72/71 71/71/72
s 1
f 65/65/64 66/66/66 73/73/73 72/72/71
s 1
f 66/66/66 67/67/67 74/74/74 73/73/73
s 1
f 67/67/67 68/68/68 75/75/75 74/74/74
s 1
f 68/68/68 69/69/69 76/76/76 75/75/75
s 1
f 69/69/69 70/70/70 77/77/77 76/76/76
s 1
f 70/70/70 64/64/65 71/71/72 77/77/77
s 1
f 71/71/72 72/72/71 79/79/78 78/78/79
s 1
f 72/72/71 73/73/73 80/80/80 79/79/78
s 1
f 73/73/73 74/74/74 81/81/81 80/80/80
s 1
f 74/74/74 75/75/75 82/82/82 81/81/81
s 1
f 75/75/75 76/76/76 83/83/83 82/82/82
s 1
f 76/76/76 77/77/77 84/84/84 83/83/83
s 1
f 77/77/77 71/71/72 78/78/79 84/84/84
s 1
f 78/78/79 79/79/78 86/86/85 85/85/86
s 1
f 79/79/78 80/80/80 87/87/87 86/86/85
s 1
f 80/80/80 81/81/81 88/88/88 87/87/87
s 1
f 81/81/81 82/82/82 89/89/89 88/88/88
s 1
f 82/82/82 83/83/83 90/90/90 89/89/89
s 1
f 83/83/83 84/84/84 91/91/91 90/90/90
s 1
f 84/84/84 78/78/79 85/85/86 91/91/91
s 1
f 85/85/86 86/86/85 93/93/92 92/92/93
s 1
f 86/86/85 87/87/87 94/94/94 93/93/92
s 1
f 87/87/87 88/88/88 95/95/95 94/94/94
s 1
f 88/88/88 89/89/89 96/96/96 95/95/95
s 1
f 89/89/89 90/90/90 97/97/97 96/96/96
s 1
f 90/90/90 91/91/91 98/98/98 97/97/97
s 1
f 91/91/91 85/85/86 92/92/93 98/98/98
s 1
f 92/92/93 93/93/92 2/2/2 1/1/1
s 1
f 93/93/92 94/94/94 3/3/5 2/2/2
s 1
f 94/94/94 95/95/95 4/4/7 3/3/5
s 1
f 95/95/95 96/96/96 5/5/9 4/4/7
s 1
f 96/96/96 97/97/97 6/6/11 5/5/9
s 1
f 97/97/97 98/98/98 7/7/13 6/6/11
s 1
f 98/98/98 92/92/93 1/1/1 7/7/13
usemtl wrought_iron
s 2
f 99/99/99 100/100/100 106/106/101 105/105/102
s 2
f 100/100/100 101/101/103 107/107/104 106/106/101
s 2
f 101/101/103 102/102/105 108/108/106 107/107/104
s 2
f 102/102/105 103/103/107 109/109/108 108/108/106
s 2
f 103/103/107 104/104/109 110/110/110 109/109/108
s 2
f 104/104/109 99/99/99 105/105/102 110/110/110
s 2
f 105/105/102 106/106/101 112/112/111 111/111/112
s 2
f 106/106/101 107/107/104 113/113/113 112/112/111
s 2
f 107/107/104 108/108/106 114/114/114 113/113/113
s 2
f 108/108/106 109/109/108 115/115/115 114/114/114
s 2
f 109/109/108 110/110/110 116/116/116 115/115/115
s 2
f 110/110/110 105/105/102 111/111/112 116/116/116
s 2
f 111/111/112 112/112/111 118/118/117 117/117/118
s 2
f 112/112/111 113/113/113 119/119/119 118/118/117
s 2
f 113/113/113 114/114/114 120/120/120 119/119/119
s 2
f 114/114/114 115/115/115 121/121/121 120/120/120
s 2
f 115/115/115 116/116/116 122/122/122 121/121/121
s 2
f 116/116/116 111/111/112 117/117/118 122/122/122
s 2
f 117/117/118 118/118/117 124/124/123 123/123/124
s 2
f 118/118/117 119/119/119 125/125/125 124/124/123
s 2
f 119/119/119 120/120/120 126/126/126 125/125/125
s 2
f 120/120/120 121/121/121 127/127/127 126/126/126
s 2
f 121/121/121 122/122/122 128/128/128 127/127/127
s 2
f 122/122/122 117/117/118 123/123/124 128/128/128
s 2
f 123/123/124 124/124/123 130/130/129 129/129/130
s 2
f 124/124/123 125/125/125 131/131/131 130/130/129
s 2
f 125/125/125 126/126/126 132/132/132 131/131/131
s 2
f 126/126/126 127/127/127 133/133/133 132/132/132
s 2
f 127/127/127 128/128/128 134/134/134 133/133/133
s 2
f 128/128/128 123/123/124 129/129/130 134/134/134
s 2
f 129/129/130 130/130/129 136/136/135 135/135/136
s 2
f 130/130/129 131/131/131 137/137/137 136/136/135
s 2
f 131/131/131 132/132/132 138/138/138 137/137/137
s 2
f 132/132/132 133/133/133 139/139/139 138/138/138
s 2
f 133/133/133 134/134/134 140/140/140 139/139/139
s 2
f 134/134/134 129/129/130 135/135/136 140/140/140
s 2
f 135/135/136 136/136/135 142/142/141 141/141/142
s 2
f 136/136/135 137/137/137 143/143/143 142/142/141
s 2
f 137/137/137 138/138/138 144/144/144 143/143/143
s 2
f 138/138/138 139/139/139 145/145/145 144/144/144
s 2
f 139/139/139 140/140/140 146/146/146 145/145/145
s 2
f 140/140/140 135/135/136 141/141/142 146/146/146
s 2
f 141/141/142 142/142/141 148/148/147 147/147/148
s 2
f 142/142/141 143/143/143 149/149/149 148/148/147
s 2
f 143/143/143 144/144/144 150/150/150 149/149/149
s 2
f 144/144/144 145/145/145 151/151/151 150/150/150
s 2
f 145/145/145 146/146/146 152/152/152 151/151/151
s 2
f 146/146/146 141/141/142 147/147/148 152/152/152
s 2
f 147/147/148 148/148/147 154/154/153 153/153/154
s 2
f 148/148/147 149/149/149 155/155/155 154/154/153
s 2
f 149/149/149 150/150/150 156/156/156 155/155/155
s 2
f 150/150/150 151/151/151 157/157/157 156/156/156
s 2
f 151/151/151 152/152/152 158/158/158 157/157/157
s 2
f 152/152/152 147/147/148 153/153/154 158/158/158
s 2
f 153/153/154 154/154/153 100/100/100 99/99/99
s 2
f 154/154/153 155/155/155 101/101/103 100/100/100
s 2
f 155/155/155 156/156/156 102/102/105 101/101/103
s 2
f 156/156/156 157/157/157 103/103/107 102/102/105
s 2
f 157/157/157 158/158/158 104/104/109 103/103/107
s 2
f 158/158/158 153/153/154 99/99/99 104/104/109
s 3
f 159/159/159 160/160/160 166/166/161 165/165/162
s 3
f 160/160/160 161/161/163 167/167/164 166/166/161
s 3
f 161/161/163 162/162/165 168/168/166 167/167/164
s 3
f 162/162/165 163/163/167 169/169/168 168/168/166
s 3
f 163/163/167 164/164/169 170/170/170 169/169/168
s 3
f 164/164/169 159/159/159 165/165/162 170/170/170
s 3
f 165/165/162 166/166/161 172/172/171 171/171/172
s 3
f 166/166/161 167/167/164 173/173/173 172/172/171
s 3
f 167/167/164 168/168/166 174/174/174 173/173/173
s 3
f 168/168/166 169/169/168 175/175/175 174/174/174
s 3
f 169/169/168 170/170/170 176/176/176 175/175/175
s 3
f 170/170/170 165/165/162 171/171/172 176/176/176
s 3
f 171/171/172 172/172/171 178/178/177 177/177/178
s 3
f 172/172/171 173/173/173 179/179/179 178/178/177
s 3
f 173/173/173 174/174/174 180/180/180 179/179/179
s 3
f 174/174/174 175/175/175 181/181/181 180/180/180
s 3
f 175/175/175 176/176/176 182/182/182 181/181/181
s 3
f 176/176/176 171/171/172 177/177/178 182/182/182
s 3
f 177/177/178 178/178/177 184/184/183 183/183/184
s 3
f 178/178/177 179/179/179 185/185/185 184/184/183
s 3
f 179/179/179 180/180/180 186/186/186 185/185/185
s 3
f 180/180/180 181/181/181 187/187/187 186/186/186
s 3
f 181/181/181 182/182/182 188/188/188 187/187/187
s 3
f 182/182/182 177/177/178 183/183/184 188/188/188
s 3
f 183/183/184 184/184/183 190/190/189 189/189/190
s 3
f 184/184/183 185/185/185 191/191/191 190/190/189
s 3
f 185/185/185 186/186/186 192/192/192 191/191/191
s 3
f 186/186/186 187/187/187 193/193/193 192/192/192
s 3
f 187/187/187 188/188/188 194/194/194 193/193/193
s 3
f 188/188/188 183/183/184 189/189/190 194/194/194
s 3
f 189/189/190 190/190/189 196/196/195 195/195/196
s 3
f 190/190/189 191/191/191 197/197/197 196/196/195
s 3
f 191/191/191 192/192/192 198/198/198 197/197/197
s 3
f 192/192/192 193/193/193 199/199/199 198/198/198
s 3
f 193/193/193 194/194/194 200/200/200 199/199/199
s 3
f 194/194/194 189/189/190 195/195/196 200/200/200
s 3
f 195/195/196 196/196/195 202/202/201 201/201/202
s 3
f 196/196/195 197/197/197 203/203/203 202/202/201
s 3
f 197/197/197 198/198/198 204/204/204 203/203/203
s 3
f 198/198/198 199/199/199 205/205/205 204/204/204
s 3
f 199/199/199 200/200/200 206/206/206 205/205/205
s 3
f 200/200/200 195/195/196 201/201/202 206/206/206
s 3
f 201/201/202 202/202/201 208/208/207 207/207/208
s 3
f 202/202/201 203/203/203 209/209/209 208/208/207
s 3
f 203/203/203 204/204/204 210/210/210 209/209/209
s 3
f 204/204/204 205/205/205 211/211/211 210/210/210
s 3
f 205/205/205 206/206/206 212/212/212 211/211/211
s 3
f 206/206/206 201/201/202 207/207/208 212/212/212
s 3
f 207/207/208 208/208/207 214/214/213 213/213/214
s 3
f 208/208/207 209/209/209 215/215/215 214/214/213
s 3
f 209/209/209 210/210/210 216/216/216 215/215/215
s 3
f 210/210/210 211/211/211 217/217/217 216/216/216
s 3
f 211/211/211 212/212/212 218/218/218 217/217/217
s 3
f 212/212/212 207/207/208 213/213/214 218/218/218
s 3
f 213/213/214 214/214/213 160/160/160 159/159/159
s 3
f 214/214/213 215/215/215 161/161/163 160/160/160
s 3
f 215/215/215 216/216/216 162/162/165 161/161/163
s 3
f 216/216/216 217/217/217 163/163/167 162/162/165
s 3
f 217/217/217 218/218/218 164/164/169 163/163/167
s 3
f 218/218/218 213/213/214 159/159/159 164/164/169
usemtl wax
s 4
f 219/219/219 220/220/220 225/225/221 224/224/222
s 4
f 220/220/220 221/221/223 226/226/224 225/225/221
s 4
f 221/221/223 222/222/225 227/227/226 226/226/224
s 4
f 222/222/225 223/223/227 228/228/228 227/227/226
s 4
f 223/223/227 219/219/219 224/224/222 228/228/228
s 4
f 224/224/222 225/225/221 230/230/229 229/229/230
s 4
f 225/225/221 226/226/224 231/231/231 230/230/229
s 4
f 226/226/224 227/227/226 232/232/232 231/231/231
s 4
f 227/227/226 228/228/228 233/233/233 232/232/232
s 4
f 228/228/228 224/224/222 229/229/230 233/233/233
s off
f 234/234/234 220/220/234 219/219/234
s off
f 234/234/234 221/221/234 220/220/234
s off
f 234/234/234 222/222/234 221/221/234
s off
f 234/234/234 223/223/234 222/222/234
s off
f 234/234/234 219/219/234 223/223/234
s off
f 235/235/235 229/229/235 230/230/235
s off
f 235/235/235 230/230/235 231/231/235
s off
f 235/235/235 231/231/235 232/232/235
s off
f 235/235/235 232/232/235 233/233/235
s off
f 235/235/235 233/233/235 229/229/235
s 5
f 236/236/236 237/237/237 242/242/238 241/241/239
s 5
f 237/237/237 238/238/240 243/243/241 242/242/238
s 5
f 238/238/240 239/239/242 244/244/243 243/243/241
s 5
f 239/239/242 240/240/244 245/245/245 244/244/243
s 5
f 240/240/244 236/236/236 241/241/239 245/245/245
s 5
f 241/241/239 242/242/238 247/247/246 246/246/247
s 5
f 242/242/238 243/243/241 248/248/248 247/247/246
s 5
f 243/243/241 244/244/243 249/249/249 248/248/248
s 5
f 244/244/243 245/245/245 250/250/250 249/249/249
s 5
f 245/245/245 241/241/239 246/246/247 250/250/250
s off
f 251/251/251 237/237/251 236/236/251
s off
f 251/251/251 238/238/251 237/237/251
s off
f 251/251/251 239/239/251 238/238/251
s off
f 251/251/251 240/240/251 239/239/251
s off
f 251/251/251 236/236/251 240/240/251
s off
f 252/252/252 246/246/252 247/247/252
s off
f 252/252/252 247/247/252 248/248/252
s off
f 252/252/252 248/248/252 249/249/252
s off
f 252/252/252 249/249/252 250/250/252
s off
f 252/252/252 250/250/252 246/246/252
