# polygonal cohort: fabricated from poly_parts.py; no lathed geometry
# generated by tools/asset-production/lathe.py
mtllib polygonal_cohort.mtl
o moth_cloak
v -0.050000 1.300000 0.037500
v -0.280000 1.620000 0.037500
v -1.000000 1.420000 0.037500
v -0.760000 0.880000 0.037500
v -0.050000 1.300000 -0.037500
v -0.280000 1.620000 -0.037500
v -1.000000 1.420000 -0.037500
v -0.760000 0.880000 -0.037500
v -0.080000 1.120000 0.035000
v -0.760000 0.880000 0.035000
v -0.880000 0.240000 0.035000
v -0.220000 0.560000 0.035000
v -0.080000 1.120000 -0.035000
v -0.760000 0.880000 -0.035000
v -0.880000 0.240000 -0.035000
v -0.220000 0.560000 -0.035000
v 0.760000 0.880000 0.037500
v 1.000000 1.420000 0.037500
v 0.280000 1.620000 0.037500
v 0.050000 1.300000 0.037500
v 0.760000 0.880000 -0.037500
v 1.000000 1.420000 -0.037500
v 0.280000 1.620000 -0.037500
v 0.050000 1.300000 -0.037500
v 0.220000 0.560000 0.035000
v 0.880000 0.240000 0.035000
v 0.760000 0.880000 0.035000
v 0.080000 1.120000 0.035000
v 0.220000 0.560000 -0.035000
v 0.880000 0.240000 -0.035000
v 0.760000 0.880000 -0.035000
v 0.080000 1.120000 -0.035000
v -0.160000 1.140000 0.060000
v 0.160000 1.140000 0.060000
v 0.240000 1.480000 0.060000
v -0.240000 1.480000 0.060000
v -0.160000 1.140000 -0.060000
v 0.160000 1.140000 -0.060000
v 0.240000 1.480000 -0.060000
v -0.240000 1.480000 -0.060000
v -0.063493 1.227773 0.022500
v -0.056507 1.272227 0.022500
v -0.756507 1.382227 0.022500
v -0.763493 1.337773 0.022500
v -0.063493 1.227773 -0.022500
v -0.056507 1.272227 -0.022500
v -0.756507 1.382227 -0.022500
v -0.763493 1.337773 -0.022500
v -0.068350 1.063744 0.022500
v -0.091650 1.096256 0.022500
v -0.691650 0.666256 0.022500
v -0.668350 0.633744 0.022500
v -0.068350 1.063744 -0.022500
v -0.091650 1.096256 -0.022500
v -0.691650 0.666256 -0.022500
v -0.668350 0.633744 -0.022500
v 0.056507 1.272227 0.022500
v 0.063493 1.227773 0.022500
v 0.763493 1.337773 0.022500
v 0.756507 1.382227 0.022500
v 0.056507 1.272227 -0.022500
v 0.063493 1.227773 -0.022500
v 0.763493 1.337773 -0.022500
v 0.756507 1.382227 -0.022500
v 0.091650 1.096256 0.022500
v 0.068350 1.063744 0.022500
v 0.668350 0.633744 0.022500
v 0.691650 0.666256 0.022500
v 0.091650 1.096256 -0.022500
v 0.068350 1.063744 -0.022500
v 0.668350 0.633744 -0.022500
v 0.691650 0.666256 -0.022500
v -0.470000 1.160000 0.067500
v -0.513934 1.266066 0.067500
v -0.620000 1.310000 0.067500
v -0.726066 1.266066 0.067500
v -0.770000 1.160000 0.067500
v -0.726066 1.053934 0.067500
v -0.620000 1.010000 0.067500
v -0.513934 1.053934 0.067500
v -0.470000 1.160000 0.042500
v -0.513934 1.266066 0.042500
v -0.620000 1.310000 0.042500
v -0.726066 1.266066 0.042500
v -0.770000 1.160000 0.042500
v -0.726066 1.053934 0.042500
v -0.620000 1.010000 0.042500
v -0.513934 1.053934 0.042500
v 0.770000 1.160000 0.067500
v 0.726066 1.266066 0.067500
v 0.620000 1.310000 0.067500
v 0.513934 1.266066 0.067500
v 0.470000 1.160000 0.067500
v 0.513934 1.053934 0.067500
v 0.620000 1.010000 0.067500
v 0.726066 1.053934 0.067500
v 0.770000 1.160000 0.042500
v 0.726066 1.266066 0.042500
v 0.620000 1.310000 0.042500
v 0.513934 1.266066 0.042500
v 0.470000 1.160000 0.042500
v 0.513934 1.053934 0.042500
v 0.620000 1.010000 0.042500
v 0.726066 1.053934 0.042500
vt 1.000000 0.567568
vt 0.757895 1.000000
vt 0.000000 0.729730
vt 0.252632 0.000000
vt 1.000000 0.567568
vt 0.757895 1.000000
vt 0.000000 0.729730
vt 0.252632 0.000000
vt 1.000000 1.000000
vt 0.150000 0.727273
vt 0.000000 0.000000
vt 0.825000 0.363636
vt 1.000000 1.000000
vt 0.150000 0.727273
vt 0.000000 0.000000
vt 0.825000 0.363636
vt 0.747368 0.000000
vt 1.000000 0.729730
vt 0.242105 1.000000
vt 0.000000 0.567568
vt 0.747368 0.000000
vt 1.000000 0.729730
vt 0.242105 1.000000
vt 0.000000 0.567568
vt 0.175000 0.363636
vt 1.000000 0.000000
vt 0.850000 0.727273
vt 0.000000 1.000000
vt 0.175000 0.363636
vt 1.000000 0.000000
vt 0.850000 0.727273
vt 0.000000 1.000000
vt 0.166667 0.000000
vt 0.833333 0.000000
vt 1.000000 1.000000
vt 0.000000 1.000000
vt 0.166667 0.000000
vt 0.833333 0.000000
vt 1.000000 1.000000
vt 0.000000 1.000000
vt 0.990119 0.000000
vt 1.000000 0.287816
vt 0.009881 1.000000
vt 0.000000 0.712184
vt 0.990119 0.000000
vt 1.000000 0.287816
vt 0.009881 1.000000
vt 0.000000 0.712184
vt 1.000000 0.929704
vt 0.962617 1.000000
vt 0.000000 0.070296
vt 0.037383 0.000000
vt 1.000000 0.929704
vt 0.962617 1.000000
vt 0.000000 0.070296
vt 0.037383 0.000000
vt 0.000000 0.287816
vt 0.009881 0.000000
vt 1.000000 0.712184
vt 0.990119 1.000000
vt 0.000000 0.287816
vt 0.009881 0.000000
vt 1.000000 0.712184
vt 0.990119 1.000000
vt 0.037383 1.000000
vt 0.000000 0.929704
vt 0.962617 0.000000
vt 1.000000 0.070296
vt 0.037383 1.000000
vt 0.000000 0.929704
vt 0.962617 0.000000
vt 1.000000 0.070296
vt 1.000000 0.500000
vt 0.853553 0.853553
vt 0.500000 1.000000
vt 0.146447 0.853553
vt 0.000000 0.500000
vt 0.146447 0.146447
vt 0.500000 0.000000
vt 0.853553 0.146447
vt 1.000000 0.500000
vt 0.853553 0.853553
vt 0.500000 1.000000
vt 0.146447 0.853553
vt 0.000000 0.500000
vt 0.146447 0.146447
vt 0.500000 0.000000
vt 0.853553 0.146447
vt 1.000000 0.500000
vt 0.853553 0.853553
vt 0.500000 1.000000
vt 0.146447 0.853553
vt 0.000000 0.500000
vt 0.146447 0.146447
vt 0.500000 0.000000
vt 0.853553 0.146447
vt 1.000000 0.500000
vt 0.853553 0.853553
vt 0.500000 1.000000
vt 0.146447 0.853553
vt 0.000000 0.500000
vt 0.146447 0.146447
vt 0.500000 0.000000
vt 0.853553 0.146447
vn 0.000000 0.000000 1.000000
vn 0.000000 0.000000 -1.000000
vn 0.812015 0.583636 0.000000
vn -0.267644 0.963518 0.000000
vn -0.913812 -0.406138 -0.000000
vn 0.509138 -0.860685 0.000000
vn -0.332820 0.942990 0.000000
vn -0.982872 0.184289 0.000000
vn 0.436274 -0.899814 0.000000
vn 0.970143 -0.242536 0.000000
vn 0.913812 -0.406138 0.000000
vn 0.267644 0.963518 0.000000
vn -0.812015 0.583636 0.000000
vn -0.509138 -0.860685 -0.000000
vn -0.436274 -0.899814 -0.000000
vn 0.982872 0.184289 0.000000
vn 0.332820 0.942990 0.000000
vn -0.970143 -0.242536 -0.000000
vn 0.000000 -1.000000 0.000000
vn 0.973417 -0.229039 0.000000
vn 0.000000 1.000000 0.000000
vn -0.973417 -0.229039 -0.000000
vn 0.987877 -0.155238 0.000000
vn 0.155238 0.987877 0.000000
vn -0.987877 0.155238 0.000000
vn -0.155238 -0.987877 -0.000000
vn 0.812817 0.582519 0.000000
vn -0.582519 0.812817 0.000000
vn -0.812817 -0.582519 -0.000000
vn 0.582519 -0.812817 0.000000
vn -0.987877 -0.155238 -0.000000
vn 0.155238 -0.987877 0.000000
vn 0.987877 0.155238 0.000000
vn -0.155238 0.987877 0.000000
vn -0.812817 0.582519 0.000000
vn -0.582519 -0.812817 -0.000000
vn 0.812817 -0.582519 0.000000
vn 0.582519 0.812817 0.000000
vn 0.923880 0.382683 0.000000
vn 0.382683 0.923880 0.000000
vn -0.382683 0.923880 0.000000
vn -0.923880 0.382683 0.000000
vn -0.923880 -0.382683 -0.000000
vn -0.382683 -0.923880 -0.000000
vn 0.382683 -0.923880 0.000000
vn 0.923880 -0.382683 0.000000
usemtl aged_cloth
s off
f 1/1/1 2/2/1 3/3/1
s off
f 5/5/2 7/7/2 6/6/2
s off
f 1/1/1 3/3/1 4/4/1
s off
f 5/5/2 8/8/2 7/7/2
s off
f 1/1/3 5/5/3 6/6/3 2/2/3
s off
f 2/2/4 6/6/4 7/7/4 3/3/4
s off
f 3/3/5 7/7/5 8/8/5 4/4/5
s off
f 4/4/6 8/8/6 5/5/6 1/1/6
s off
f 9/9/1 10/10/1 11/11/1
s off
f 13/13/2 15/15/2 14/14/2
s off
f 9/9/1 11/11/1 12/12/1
s off
f 13/13/2 16/16/2 15/15/2
s off
f 9/9/7 13/13/7 14/14/7 10/10/7
s off
f 10/10/8 14/14/8 15/15/8 11/11/8
s off
f 11/11/9 15/15/9 16/16/9 12/12/9
s off
f 12/12/10 16/16/10 13/13/10 9/9/10
s off
f 17/17/1 18/18/1 19/19/1
s off
f 21/21/2 23/23/2 22/22/2
s off
f 17/17/1 19/19/1 20/20/1
s off
f 21/21/2 24/24/2 23/23/2
s off
f 17/17/11 21/21/11 22/22/11 18/18/11
s off
f 18/18/12 22/22/12 23/23/12 19/19/12
s off
f 19/19/13 23/23/13 24/24/13 20/20/13
s off
f 20/20/14 24/24/14 21/21/14 17/17/14
s off
f 25/25/1 26/26/1 27/27/1
s off
f 29/29/2 31/31/2 30/30/2
s off
f 25/25/1 27/27/1 28/28/1
s off
f 29/29/2 32/32/2 31/31/2
s off
f 25/25/15 29/29/15 30/30/15 26/26/15
s off
f 26/26/16 30/30/16 31/31/16 27/27/16
s off
f 27/27/17 31/31/17 32/32/17 28/28/17
s off
f 28/28/18 32/32/18 29/29/18 25/25/18
usemtl wrought_iron
s off
f 33/33/1 34/34/1 35/35/1
s off
f 37/37/2 39/39/2 38/38/2
s off
f 33/33/1 35/35/1 36/36/1
s off
f 37/37/2 40/40/2 39/39/2
s off
f 33/33/19 37/37/19 38/38/19 34/34/19
s off
f 34/34/20 38/38/20 39/39/20 35/35/20
s off
f 35/35/21 39/39/21 40/40/21 36/36/21
s off
f 36/36/22 40/40/22 37/37/22 33/33/22
usemtl bone
s off
f 41/41/1 42/42/1 43/43/1
s off
f 45/45/2 47/47/2 46/46/2
s off
f 41/41/1 43/43/1 44/44/1
s off
f 45/45/2 48/48/2 47/47/2
s off
f 41/41/23 45/45/23 46/46/23 42/42/23
s off
f 42/42/24 46/46/24 47/47/24 43/43/24
s off
f 43/43/25 47/47/25 48/48/25 44/44/25
s off
f 44/44/26 48/48/26 45/45/26 41/41/26
s off
f 49/49/1 50/50/1 51/51/1
s off
f 53/53/2 55/55/2 54/54/2
s off
f 49/49/1 51/51/1 52/52/1
s off
f 53/53/2 56/56/2 55/55/2
s off
f 49/49/27 53/53/27 54/54/27 50/50/27
s off
f 50/50/28 54/54/28 55/55/28 51/51/28
s off
f 51/51/29 55/55/29 56/56/29 52/52/29
s off
f 52/52/30 56/56/30 53/53/30 49/49/30
s off
f 57/57/1 58/58/1 59/59/1
s off
f 61/61/2 63/63/2 62/62/2
s off
f 57/57/1 59/59/1 60/60/1
s off
f 61/61/2 64/64/2 63/63/2
s off
f 57/57/31 61/61/31 62/62/31 58/58/31
s off
f 58/58/32 62/62/32 63/63/32 59/59/32
s off
f 59/59/33 63/63/33 64/64/33 60/60/33
s off
f 60/60/34 64/64/34 61/61/34 57/57/34
s off
f 65/65/1 66/66/1 67/67/1
s off
f 69/69/2 71/71/2 70/70/2
s off
f 65/65/1 67/67/1 68/68/1
s off
f 69/69/2 72/72/2 71/71/2
s off
f 65/65/35 69/69/35 70/70/35 66/66/35
s off
f 66/66/36 70/70/36 71/71/36 67/67/36
s off
f 67/67/37 71/71/37 72/72/37 68/68/37
s off
f 68/68/38 72/72/38 69/69/38 65/65/38
usemtl wet_residue
s off
f 73/73/1 74/74/1 75/75/1
s off
f 81/81/2 83/83/2 82/82/2
s off
f 73/73/1 75/75/1 76/76/1
s off
f 81/81/2 84/84/2 83/83/2
s off
f 73/73/1 76/76/1 77/77/1
s off
f 81/81/2 85/85/2 84/84/2
s off
f 73/73/1 77/77/1 78/78/1
s off
f 81/81/2 86/86/2 85/85/2
s off
f 73/73/1 78/78/1 79/79/1
s off
f 81/81/2 87/87/2 86/86/2
s off
f 73/73/1 79/79/1 80/80/1
s off
f 81/81/2 88/88/2 87/87/2
s off
f 73/73/39 81/81/39 82/82/39 74/74/39
s off
f 74/74/40 82/82/40 83/83/40 75/75/40
s off
f 75/75/41 83/83/41 84/84/41 76/76/41
s off
f 76/76/42 84/84/42 85/85/42 77/77/42
s off
f 77/77/43 85/85/43 86/86/43 78/78/43
s off
f 78/78/44 86/86/44 87/87/44 79/79/44
s off
f 79/79/45 87/87/45 88/88/45 80/80/45
s off
f 80/80/46 88/88/46 81/81/46 73/73/46
s off
f 89/89/1 90/90/1 91/91/1
s off
f 97/97/2 99/99/2 98/98/2
s off
f 89/89/1 91/91/1 92/92/1
s off
f 97/97/2 100/100/2 99/99/2
s off
f 89/89/1 92/92/1 93/93/1
s off
f 97/97/2 101/101/2 100/100/2
s off
f 89/89/1 93/93/1 94/94/1
s off
f 97/97/2 102/102/2 101/101/2
s off
f 89/89/1 94/94/1 95/95/1
s off
f 97/97/2 103/103/2 102/102/2
s off
f 89/89/1 95/95/1 96/96/1
s off
f 97/97/2 104/104/2 103/103/2
s off
f 89/89/39 97/97/39 98/98/39 90/90/39
s off
f 90/90/40 98/98/40 99/99/40 91/91/40
s off
f 91/91/41 99/99/41 100/100/41 92/92/41
s off
f 92/92/42 100/100/42 101/101/42 93/93/42
s off
f 93/93/43 101/101/43 102/102/43 94/94/43
s off
f 94/94/44 102/102/44 103/103/44 95/95/44
s off
f 95/95/45 103/103/45 104/104/45 96/96/45
s off
f 96/96/46 104/104/46 97/97/46 89/89/46
