# St. Maria relic showcase: composed from parts.py + lathe.py
# generated by tools/asset-production/lathe.py
mtllib relic_showcase.mtl
o mourning_ribbon
v 0.136946 0.969936 0.000000
v 0.149389 0.923642 0.000000
v 0.134095 0.862056 0.000000
v 0.092212 0.789804 0.000000
v 0.026886 0.712310 0.000000
v -0.056979 0.635394 0.000000
v -0.153085 0.564830 0.000000
v -0.254216 0.505918 0.000000
v -0.352778 0.463082 0.000000
v -0.441369 0.439537 0.000000
v -0.513338 0.437052 0.000000
v -0.563280 0.455814 0.000000
v -0.587446 0.494413 -0.000000
v -0.584020 0.549951 -0.000000
v -0.553260 0.618259 -0.000000
v -0.497476 0.694206 -0.000000
v -0.420856 0.772089 -0.000000
v 0.128303 0.963884 0.030000
v 0.140445 0.918711 0.030000
v 0.125522 0.858617 0.030000
v 0.084653 0.788114 0.030000
v 0.020908 0.712496 0.030000
v -0.060926 0.637442 0.030000
v -0.154706 0.568587 0.030000
v -0.253388 0.511102 0.030000
v -0.349563 0.469302 0.030000
v -0.436009 0.446328 0.030000
v -0.506236 0.443903 0.030000
v -0.554969 0.462210 0.030000
v -0.578549 0.499875 0.030000
v -0.575206 0.554069 0.030000
v -0.545191 0.620722 0.030000
v -0.490757 0.694830 0.030000
v -0.415993 0.770828 0.030000
v 0.104691 0.947351 0.051962
v 0.116010 0.905241 0.051962
v 0.102099 0.849220 0.051962
v 0.064000 0.783496 0.051962
v 0.004577 0.713005 0.051962
v -0.071710 0.643039 0.051962
v -0.159132 0.578852 0.051962
v -0.251124 0.525263 0.051962
v -0.340780 0.486297 0.051962
v -0.421366 0.464880 0.051962
v -0.486832 0.462620 0.051962
v -0.532261 0.479686 0.051962
v -0.554243 0.514797 0.051962
v -0.551126 0.565317 0.051962
v -0.523146 0.627452 0.051962
v -0.472402 0.696536 0.051962
v -0.402706 0.767383 0.051962
v 0.072437 0.924767 0.060000
v 0.082632 0.886839 0.060000
v 0.070102 0.836384 0.060000
v 0.035788 0.777189 0.060000
v -0.017732 0.713700 0.060000
v -0.086441 0.650684 0.060000
v -0.165178 0.592873 0.060000
v -0.248033 0.544608 0.060000
v -0.328782 0.509513 0.060000
v -0.401363 0.490223 0.060000
v -0.460325 0.488187 0.060000
v -0.501242 0.503558 0.060000
v -0.521040 0.535182 0.060000
v -0.518233 0.580683 0.060000
v -0.493032 0.636646 0.060000
v -0.447329 0.698867 0.060000
v -0.384557 0.762676 0.060000
v 0.040183 0.902182 0.051962
v 0.049253 0.868438 0.051962
v 0.038105 0.823547 0.051962
v 0.007577 0.770881 0.051962
v -0.040041 0.714395 0.051962
v -0.101172 0.658329 0.051962
v -0.171225 0.606894 0.051962
v -0.244941 0.563953 0.051962
v -0.316784 0.532728 0.051962
v -0.381359 0.515566 0.051962
v -0.433819 0.513755 0.051962
v -0.470222 0.527431 0.051962
v -0.487837 0.555566 0.051962
v -0.485340 0.596049 0.051962
v -0.462918 0.645839 0.051962
v -0.422256 0.701198 0.051962
v -0.366407 0.757969 0.051962
v 0.016572 0.885649 0.030000
v 0.024819 0.854967 0.030000
v 0.014682 0.814150 0.030000
v -0.013076 0.766264 0.030000
v -0.056372 0.714903 0.030000
v -0.111955 0.663926 0.030000
v -0.175651 0.617159 0.030000
v -0.242677 0.578114 0.030000
v -0.308001 0.549723 0.030000
v -0.366716 0.534119 0.030000
v -0.414415 0.532472 0.030000
v -0.447515 0.544906 0.030000
v -0.463531 0.570489 0.030000
v -0.461260 0.607298 0.030000
v -0.440873 0.652569 0.030000
v -0.403902 0.702904 0.030000
v -0.353121 0.754523 0.030000
v 0.007929 0.879598 0.000000
v 0.015875 0.850036 0.000000
v 0.006109 0.810711 0.000000
v -0.020635 0.764574 0.000000
v -0.062350 0.715090 0.000000
v -0.115902 0.665974 0.000000
v -0.177271 0.620916 0.000000
v -0.241849 0.583297 0.000000
v -0.304786 0.555944 0.000000
v -0.361356 0.540909 0.000000
v -0.407312 0.539323 0.000000
v -0.439203 0.551303 0.000000
v -0.454634 0.575950 0.000000
v -0.452446 0.611415 0.000000
v -0.432804 0.655033 0.000000
v -0.397183 0.703529 0.000000
v -0.348257 0.753262 0.000000
v 0.016572 0.885649 -0.030000
v 0.024819 0.854967 -0.030000
v 0.014682 0.814150 -0.030000
v -0.013076 0.766264 -0.030000
v -0.056372 0.714903 -0.030000
v -0.111955 0.663926 -0.030000
v -0.175651 0.617159 -0.030000
v -0.242677 0.578114 -0.030000
v -0.308001 0.549723 -0.030000
v -0.366716 0.534119 -0.030000
v -0.414415 0.532472 -0.030000
v -0.447515 0.544906 -0.030000
v -0.463531 0.570489 -0.030000
v -0.461260 0.607298 -0.030000
v -0.440873 0.652569 -0.030000
v -0.403902 0.702904 -0.030000
v -0.353121 0.754523 -0.030000
v 0.040183 0.902182 -0.051962
v 0.049253 0.868438 -0.051962
v 0.038105 0.823547 -0.051962
v 0.007577 0.770881 -0.051962
v -0.040041 0.714395 -0.051962
v -0.101172 0.658329 -0.051962
v -0.171225 0.606894 -0.051962
v -0.244941 0.563953 -0.051962
v -0.316784 0.532728 -0.051962
v -0.381359 0.515566 -0.051962
v -0.433819 0.513755 -0.051962
v -0.470222 0.527431 -0.051962
v -0.487837 0.555566 -0.051962
v -0.485340 0.596049 -0.051962
v -0.462918 0.645839 -0.051962
v -0.422256 0.701198 -0.051962
v -0.366407 0.757969 -0.051962
v 0.072437 0.924767 -0.060000
v 0.082632 0.886839 -0.060000
v 0.070102 0.836384 -0.060000
v 0.035788 0.777189 -0.060000
v -0.017732 0.713700 -0.060000
v -0.086441 0.650684 -0.060000
v -0.165178 0.592873 -0.060000
v -0.248033 0.544608 -0.060000
v -0.328782 0.509513 -0.060000
v -0.401363 0.490223 -0.060000
v -0.460325 0.488187 -0.060000
v -0.501242 0.503558 -0.060000
v -0.521040 0.535182 -0.060000
v -0.518233 0.580683 -0.060000
v -0.493032 0.636646 -0.060000
v -0.447329 0.698867 -0.060000
v -0.384557 0.762676 -0.060000
v 0.104691 0.947351 -0.051962
v 0.116010 0.905241 -0.051962
v 0.102099 0.849220 -0.051962
v 0.064000 0.783496 -0.051962
v 0.004577 0.713005 -0.051962
v -0.071710 0.643039 -0.051962
v -0.159132 0.578852 -0.051962
v -0.251124 0.525263 -0.051962
v -0.340780 0.486297 -0.051962
v -0.421366 0.464880 -0.051962
v -0.486832 0.462620 -0.051962
v -0.532261 0.479686 -0.051962
v -0.554243 0.514797 -0.051962
v -0.551126 0.565317 -0.051962
v -0.523146 0.627452 -0.051962
v -0.472402 0.696536 -0.051962
v -0.402706 0.767383 -0.051962
v 0.128303 0.963884 -0.030000
v 0.140445 0.918711 -0.030000
v 0.125522 0.858617 -0.030000
v 0.084653 0.788114 -0.030000
v 0.020908 0.712496 -0.030000
v -0.060926 0.637442 -0.030000
v -0.154706 0.568587 -0.030000
v -0.253388 0.511102 -0.030000
v -0.349563 0.469302 -0.030000
v -0.436009 0.446328 -0.030000
v -0.506236 0.443903 -0.030000
v -0.554969 0.462210 -0.030000
v -0.578549 0.499875 -0.030000
v -0.575206 0.554069 -0.030000
v -0.545191 0.620722 -0.030000
v -0.490757 0.694830 -0.030000
v -0.415993 0.770828 -0.030000
v 0.136946 0.969936 0.000000
v 0.149389 0.923642 0.000000
v 0.134095 0.862056 0.000000
v 0.092212 0.789804 0.000000
v 0.026886 0.712310 0.000000
v -0.056979 0.635394 0.000000
v -0.153085 0.564830 0.000000
v -0.254216 0.505918 0.000000
v -0.352778 0.463082 0.000000
v -0.441369 0.439537 0.000000
v -0.513338 0.437052 0.000000
v -0.563280 0.455814 0.000000
v -0.587446 0.494413 -0.000000
v -0.584020 0.549951 -0.000000
v -0.553260 0.618259 -0.000000
v -0.497476 0.694206 -0.000000
v -0.420856 0.772089 -0.000000
v 0.576946 0.470064 0.000000
v 0.537699 0.442538 0.000000
v 0.474597 0.435846 0.000000
v 0.392377 0.450491 0.000000
v 0.297214 0.485373 0.000000
v 0.196252 0.537873 0.000000
v 0.097074 0.604050 0.000000
v 0.007126 0.678933 0.000000
v -0.066837 0.756899 0.000000
v -0.119262 0.832095 0.000000
v -0.146211 0.898874 0.000000
v -0.145662 0.952221 0.000000
v -0.117656 0.988131 -0.000000
v -0.064295 1.003907 -0.000000
v 0.010413 0.998364 -0.000000
v 0.100859 0.971920 -0.000000
v 0.200251 0.926558 -0.000000
v 0.568303 0.476116 0.030000
v 0.530007 0.449256 0.030000
v 0.468433 0.442726 0.030000
v 0.388204 0.457016 0.030000
v 0.295344 0.491054 0.030000
v 0.196827 0.542283 0.030000
v 0.100051 0.606857 0.030000
v 0.012281 0.679927 0.030000
v -0.059892 0.756006 0.030000
v -0.111047 0.829381 0.030000
v -0.137345 0.894543 0.030000
v -0.136809 0.946598 0.030000
v -0.109481 0.981639 0.030000
v -0.057412 0.997033 0.030000
v 0.015487 0.991624 0.030000
v 0.103744 0.965820 0.030000
v 0.200730 0.921557 0.030000
v 0.544691 0.492649 0.051962
v 0.508991 0.467609 0.051962
v 0.451591 0.461522 0.051962
v 0.376801 0.474844 0.051962
v 0.290237 0.506574 0.051962
v 0.198398 0.554331 0.051962
v 0.108182 0.614527 0.051962
v 0.026362 0.682643 0.051962
v -0.040918 0.753565 0.051962
v -0.088605 0.821966 0.051962
v -0.113120 0.882710 0.051962
v -0.112621 0.931237 0.051962
v -0.087145 0.963902 0.051962
v -0.038606 0.978252 0.051962
v 0.029351 0.973211 0.051962
v 0.111625 0.949156 0.051962
v 0.202036 0.907893 0.051962
v 0.512437 0.515233 0.060000
v 0.480284 0.492681 0.060000
v 0.428586 0.487199 0.060000
v 0.361225 0.499197 0.060000
v 0.283260 0.527776 0.060000
v 0.200544 0.570788 0.060000
v 0.119290 0.625005 0.060000
v 0.045598 0.686354 0.060000
v -0.014999 0.750231 0.060000
v -0.057949 0.811837 0.060000
v -0.080029 0.866547 0.060000
v -0.079579 0.910253 0.060000
v -0.056634 0.939673 0.060000
v -0.012917 0.952598 0.060000
v 0.048290 0.948057 0.060000
v 0.122390 0.926392 0.060000
v 0.203820 0.889229 0.060000
v 0.480183 0.537818 0.051962
v 0.451576 0.517753 0.051962
v 0.405580 0.512875 0.051962
v 0.345649 0.523550 0.051962
v 0.276282 0.548977 0.051962
v 0.202690 0.587245 0.051962
v 0.130397 0.635482 0.051962
v 0.064833 0.690065 0.051962
v 0.010920 0.746896 0.051962
v -0.027293 0.801708 0.051962
v -0.046937 0.850384 0.051962
v -0.046537 0.889269 0.051962
v -0.026123 0.915445 0.051962
v 0.012773 0.926944 0.051962
v 0.067229 0.922904 0.051962
v 0.133156 0.903628 0.051962
v 0.205605 0.870564 0.051962
v 0.456572 0.554351 0.030000
v 0.430560 0.536107 0.030000
v 0.388738 0.531672 0.030000
v 0.334246 0.541378 0.030000
v 0.271175 0.564497 0.030000
v 0.204261 0.599293 0.030000
v 0.138529 0.643152 0.030000
v 0.078915 0.692782 0.030000
v 0.029894 0.744456 0.030000
v -0.004851 0.794293 0.030000
v -0.022713 0.838551 0.030000
v -0.022349 0.873908 0.030000
v -0.003787 0.897708 0.030000
v 0.031578 0.908164 0.030000
v 0.081093 0.904490 0.030000
v 0.141037 0.886964 0.030000
v 0.206911 0.856900 0.030000
v 0.447929 0.560402 0.000000
v 0.422868 0.542825 0.000000
v 0.382574 0.538552 0.000000
v 0.330072 0.547904 0.000000
v 0.269305 0.570178 0.000000
v 0.204836 0.603702 0.000000
v 0.141505 0.645959 0.000000
v 0.084069 0.693776 0.000000
v 0.036839 0.743562 0.000000
v 0.003363 0.791579 0.000000
v -0.013846 0.834221 0.000000
v -0.013495 0.868286 0.000000
v 0.004388 0.891216 0.000000
v 0.038462 0.901290 0.000000
v 0.086167 0.897751 0.000000
v 0.143922 0.880864 0.000000
v 0.207389 0.851899 0.000000
v 0.456572 0.554351 -0.030000
v 0.430560 0.536107 -0.030000
v 0.388738 0.531672 -0.030000
v 0.334246 0.541378 -0.030000
v 0.271175 0.564497 -0.030000
v 0.204261 0.599293 -0.030000
v 0.138529 0.643152 -0.030000
v 0.078915 0.692782 -0.030000
v 0.029894 0.744456 -0.030000
v -0.004851 0.794293 -0.030000
v -0.022713 0.838551 -0.030000
v -0.022349 0.873908 -0.030000
v -0.003787 0.897708 -0.030000
v 0.031578 0.908164 -0.030000
v 0.081093 0.904490 -0.030000
v 0.141037 0.886964 -0.030000
v 0.206911 0.856900 -0.030000
v 0.480183 0.537818 -0.051962
v 0.451576 0.517753 -0.051962
v 0.405580 0.512875 -0.051962
v 0.345649 0.523550 -0.051962
v 0.276282 0.548977 -0.051962
v 0.202690 0.587245 -0.051962
v 0.130397 0.635482 -0.051962
v 0.064833 0.690065 -0.051962
v 0.010920 0.746896 -0.051962
v -0.027293 0.801708 -0.051962
v -0.046937 0.850384 -0.051962
v -0.046537 0.889269 -0.051962
v -0.026123 0.915445 -0.051962
v 0.012773 0.926944 -0.051962
v 0.067229 0.922904 -0.051962
v 0.133156 0.903628 -0.051962
v 0.205605 0.870564 -0.051962
v 0.512437 0.515233 -0.060000
v 0.480284 0.492681 -0.060000
v 0.428586 0.487199 -0.060000
v 0.361225 0.499197 -0.060000
v 0.283260 0.527776 -0.060000
v 0.200544 0.570788 -0.060000
v 0.119290 0.625005 -0.060000
v 0.045598 0.686354 -0.060000
v -0.014999 0.750231 -0.060000
v -0.057949 0.811837 -0.060000
v -0.080029 0.866547 -0.060000
v -0.079579 0.910253 -0.060000
v -0.056634 0.939673 -0.060000
v -0.012917 0.952598 -0.060000
v 0.048290 0.948057 -0.060000
v 0.122390 0.926392 -0.060000
v 0.203820 0.889229 -0.060000
v 0.544691 0.492649 -0.051962
v 0.508991 0.467609 -0.051962
v 0.451591 0.461522 -0.051962
v 0.376801 0.474844 -0.051962
v 0.290237 0.506574 -0.051962
v 0.198398 0.554331 -0.051962
v 0.108182 0.614527 -0.051962
v 0.026362 0.682643 -0.051962
v -0.040918 0.753565 -0.051962
v -0.088605 0.821966 -0.051962
v -0.113120 0.882710 -0.051962
v -0.112621 0.931237 -0.051962
v -0.087145 0.963902 -0.051962
v -0.038606 0.978252 -0.051962
v 0.029351 0.973211 -0.051962
v 0.111625 0.949156 -0.051962
v 0.202036 0.907893 -0.051962
v 0.568303 0.476116 -0.030000
v 0.530007 0.449256 -0.030000
v 0.468433 0.442726 -0.030000
v 0.388204 0.457016 -0.030000
v 0.295344 0.491054 -0.030000
v 0.196827 0.542283 -0.030000
v 0.100051 0.606857 -0.030000
v 0.012281 0.679927 -0.030000
v -0.059892 0.756006 -0.030000
v -0.111047 0.829381 -0.030000
v -0.137345 0.894543 -0.030000
v -0.136809 0.946598 -0.030000
v -0.109481 0.981639 -0.030000
v -0.057412 0.997033 -0.030000
v 0.015487 0.991624 -0.030000
v 0.103744 0.965820 -0.030000
v 0.200730 0.921557 -0.030000
v 0.576946 0.470064 0.000000
v 0.537699 0.442538 0.000000
v 0.474597 0.435846 0.000000
v 0.392377 0.450491 0.000000
v 0.297214 0.485373 0.000000
v 0.196252 0.537873 0.000000
v 0.097074 0.604050 0.000000
v 0.007126 0.678933 0.000000
v -0.066837 0.756899 0.000000
v -0.119262 0.832095 0.000000
v -0.146211 0.898874 0.000000
v -0.145662 0.952221 0.000000
v -0.117656 0.988131 -0.000000
v -0.064295 1.003907 -0.000000
v 0.010413 0.998364 -0.000000
v 0.100859 0.971920 -0.000000
v 0.200251 0.926558 -0.000000
v 0.210000 0.620000 0.050000
v 0.169894 0.620000 0.117889
v 0.064894 0.620000 0.159847
v -0.064894 0.620000 0.159847
v -0.169894 0.620000 0.117889
v -0.210000 0.620000 0.050000
v -0.169894 0.620000 -0.017889
v -0.064894 0.620000 -0.059847
v 0.064894 0.620000 -0.059847
v 0.169894 0.620000 -0.017889
v 0.206749 0.657270 0.050000
v 0.167264 0.657270 0.116838
v 0.063889 0.657270 0.158147
v -0.063889 0.657270 0.158147
v -0.167264 0.657270 0.116838
v -0.206749 0.657270 0.050000
v -0.167264 0.657270 -0.016838
v -0.063889 0.657270 -0.058147
v 0.063889 0.657270 -0.058147
v 0.167264 0.657270 -0.016838
v 0.196838 0.692000 0.050000
v 0.159245 0.692000 0.113634
v 0.060826 0.692000 0.152962
v -0.060826 0.692000 0.152962
v -0.159245 0.692000 0.113634
v -0.196838 0.692000 0.050000
v -0.159245 0.692000 -0.013634
v -0.060826 0.692000 -0.052962
v 0.060826 0.692000 -0.052962
v 0.159245 0.692000 -0.013634
v 0.179675 0.721823 0.050000
v 0.145360 0.721823 0.108086
v 0.055523 0.721823 0.143985
v -0.055523 0.721823 0.143985
v -0.145360 0.721823 0.108086
v -0.179675 0.721823 0.050000
v -0.145360 0.721823 -0.008086
v -0.055523 0.721823 -0.043985
v 0.055523 0.721823 -0.043985
v 0.145360 0.721823 -0.008086
v 0.153729 0.744708 0.050000
v 0.124369 0.744708 0.099698
v 0.047505 0.744708 0.130413
v -0.047505 0.744708 0.130413
v -0.124369 0.744708 0.099698
v -0.153729 0.744708 0.050000
v -0.124369 0.744708 0.000302
v -0.047505 0.744708 -0.030413
v 0.047505 0.744708 -0.030413
v 0.124369 0.744708 0.000302
v 0.114306 0.759093 0.050000
v 0.092475 0.759093 0.086953
v 0.035322 0.759093 0.109791
v -0.035322 0.759093 0.109791
v -0.092475 0.759093 0.086953
v -0.114306 0.759093 0.050000
v -0.092475 0.759093 0.013047
v -0.035322 0.759093 -0.009791
v 0.035322 0.759093 -0.009791
v 0.092475 0.759093 0.013047
v 0.000000 0.764000 0.050000
v 0.000000 0.620000 0.050000
v 0.060350 0.109357 0.000000
v -0.002080 0.089072 0.028912
v -0.103095 0.056250 0.017869
v -0.103095 0.056250 -0.017869
v -0.002080 0.089072 -0.028912
v -0.118879 0.660969 0.000000
v -0.181310 0.640684 0.028912
v -0.282325 0.607863 0.017869
v -0.282325 0.607863 -0.017869
v -0.181310 0.640684 -0.028912
v -0.030000 0.080000 0.000000
v -0.209230 0.631613 0.000000
v 0.129271 0.047508 0.020000
v 0.067586 0.069959 0.048912
v -0.032222 0.106287 0.037869
v -0.032222 0.106287 0.002131
v 0.067586 0.069959 -0.008912
v 0.317382 0.564339 0.020000
v 0.255697 0.586790 0.048912
v 0.155889 0.623117 0.037869
v 0.155889 0.623117 0.002131
v 0.255697 0.586790 -0.008912
v 0.040000 0.080000 0.020000
v 0.228111 0.596831 0.020000
v 0.120000 0.610000 0.135000
v 0.097082 0.539466 0.135000
v 0.037082 0.495873 0.135000
v -0.037082 0.495873 0.135000
v -0.097082 0.539466 0.135000
v -0.120000 0.610000 0.135000
v -0.097082 0.680534 0.135000
v -0.037082 0.724127 0.135000
v 0.037082 0.724127 0.135000
v 0.097082 0.680534 0.135000
v 0.140000 0.610000 0.155000
v 0.113262 0.527710 0.155000
v 0.043262 0.476852 0.155000
v -0.043262 0.476852 0.155000
v -0.113262 0.527710 0.155000
v -0.140000 0.610000 0.155000
v -0.113262 0.692290 0.155000
v -0.043262 0.743148 0.155000
v 0.043262 0.743148 0.155000
v 0.113262 0.692290 0.155000
v 0.140000 0.610000 0.165000
v 0.113262 0.527710 0.165000
v 0.043262 0.476852 0.165000
v -0.043262 0.476852 0.165000
v -0.113262 0.527710 0.165000
v -0.140000 0.610000 0.165000
v -0.113262 0.692290 0.165000
v -0.043262 0.743148 0.165000
v 0.043262 0.743148 0.165000
v 0.113262 0.692290 0.165000
v 0.120000 0.610000 0.185000
v 0.097082 0.539466 0.185000
v 0.037082 0.495873 0.185000
v -0.037082 0.495873 0.185000
v -0.097082 0.539466 0.185000
v -0.120000 0.610000 0.185000
v -0.097082 0.680534 0.185000
v -0.037082 0.724127 0.185000
v 0.037082 0.724127 0.185000
v 0.097082 0.680534 0.185000
v 0.000000 0.610000 0.135000
v 0.000000 0.610000 0.185000
vt 0.000000 0.000000
vt 0.043750 0.000000
vt 0.087500 0.000000
vt 0.131250 0.000000
vt 0.175000 0.000000
vt 0.218750 0.000000
vt 0.262500 0.000000
vt 0.306250 0.000000
vt 0.350000 0.000000
vt 0.393750 0.000000
vt 0.437500 0.000000
vt 0.481250 0.000000
vt 0.525000 0.000000
vt 0.568750 0.000000
vt 0.612500 0.000000
vt 0.656250 0.000000
vt 0.700000 0.000000
vt 0.000000 0.083333
vt 0.043750 0.083333
vt 0.087500 0.083333
vt 0.131250 0.083333
vt 0.175000 0.083333
vt 0.218750 0.083333
vt 0.262500 0.083333
vt 0.306250 0.083333
vt 0.350000 0.083333
vt 0.393750 0.083333
vt 0.437500 0.083333
vt 0.481250 0.083333
vt 0.525000 0.083333
vt 0.568750 0.083333
vt 0.612500 0.083333
vt 0.656250 0.083333
vt 0.700000 0.083333
vt 0.000000 0.166667
vt 0.043750 0.166667
vt 0.087500 0.166667
vt 0.131250 0.166667
vt 0.175000 0.166667
vt 0.218750 0.166667
vt 0.262500 0.166667
vt 0.306250 0.166667
vt 0.350000 0.166667
vt 0.393750 0.166667
vt 0.437500 0.166667
vt 0.481250 0.166667
vt 0.525000 0.166667
vt 0.568750 0.166667
vt 0.612500 0.166667
vt 0.656250 0.166667
vt 0.700000 0.166667
vt 0.000000 0.250000
vt 0.043750 0.250000
vt 0.087500 0.250000
vt 0.131250 0.250000
vt 0.175000 0.250000
vt 0.218750 0.250000
vt 0.262500 0.250000
vt 0.306250 0.250000
vt 0.350000 0.250000
vt 0.393750 0.250000
vt 0.437500 0.250000
vt 0.481250 0.250000
vt 0.525000 0.250000
vt 0.568750 0.250000
vt 0.612500 0.250000
vt 0.656250 0.250000
vt 0.700000 0.250000
vt 0.000000 0.333333
vt 0.043750 0.333333
vt 0.087500 0.333333
vt 0.131250 0.333333
vt 0.175000 0.333333
vt 0.218750 0.333333
vt 0.262500 0.333333
vt 0.306250 0.333333
vt 0.350000 0.333333
vt 0.393750 0.333333
vt 0.437500 0.333333
vt 0.481250 0.333333
vt 0.525000 0.333333
vt 0.568750 0.333333
vt 0.612500 0.333333
vt 0.656250 0.333333
vt 0.700000 0.333333
vt 0.000000 0.416667
vt 0.043750 0.416667
vt 0.087500 0.416667
vt 0.131250 0.416667
vt 0.175000 0.416667
vt 0.218750 0.416667
vt 0.262500 0.416667
vt 0.306250 0.416667
vt 0.350000 0.416667
vt 0.393750 0.416667
vt 0.437500 0.416667
vt 0.481250 0.416667
vt 0.525000 0.416667
vt 0.568750 0.416667
vt 0.612500 0.416667
vt 0.656250 0.416667
vt 0.700000 0.416667
vt 0.000000 0.500000
vt 0.043750 0.500000
vt 0.087500 0.500000
vt 0.131250 0.500000
vt 0.175000 0.500000
vt 0.218750 0.500000
vt 0.262500 0.500000
vt 0.306250 0.500000
vt 0.350000 0.500000
vt 0.393750 0.500000
vt 0.437500 0.500000
vt 0.481250 0.500000
vt 0.525000 0.500000
vt 0.568750 0.500000
vt 0.612500 0.500000
vt 0.656250 0.500000
vt 0.700000 0.500000
vt 0.000000 0.583333
vt 0.043750 0.583333
vt 0.087500 0.583333
vt 0.131250 0.583333
vt 0.175000 0.583333
vt 0.218750 0.583333
vt 0.262500 0.583333
vt 0.306250 0.583333
vt 0.350000 0.583333
vt 0.393750 0.583333
vt 0.437500 0.583333
vt 0.481250 0.583333
vt 0.525000 0.583333
vt 0.568750 0.583333
vt 0.612500 0.583333
vt 0.656250 0.583333
vt 0.700000 0.583333
vt 0.000000 0.666667
vt 0.043750 0.666667
vt 0.087500 0.666667
vt 0.131250 0.666667
vt 0.175000 0.666667
vt 0.218750 0.666667
vt 0.262500 0.666667
vt 0.306250 0.666667
vt 0.350000 0.666667
vt 0.393750 0.666667
vt 0.437500 0.666667
vt 0.481250 0.666667
vt 0.525000 0.666667
vt 0.568750 0.666667
vt 0.612500 0.666667
vt 0.656250 0.666667
vt 0.700000 0.666667
vt 0.000000 0.750000
vt 0.043750 0.750000
vt 0.087500 0.750000
vt 0.131250 0.750000
vt 0.175000 0.750000
vt 0.218750 0.750000
vt 0.262500 0.750000
vt 0.306250 0.750000
vt 0.350000 0.750000
vt 0.393750 0.750000
vt 0.437500 0.750000
vt 0.481250 0.750000
vt 0.525000 0.750000
vt 0.568750 0.750000
vt 0.612500 0.750000
vt 0.656250 0.750000
vt 0.700000 0.750000
vt 0.000000 0.833333
vt 0.043750 0.833333
vt 0.087500 0.833333
vt 0.131250 0.833333
vt 0.175000 0.833333
vt 0.218750 0.833333
vt 0.262500 0.833333
vt 0.306250 0.833333
vt 0.350000 0.833333
vt 0.393750 0.833333
vt 0.437500 0.833333
vt 0.481250 0.833333
vt 0.525000 0.833333
vt 0.568750 0.833333
vt 0.612500 0.833333
vt 0.656250 0.833333
vt 0.700000 0.833333
vt 0.000000 0.916667
vt 0.043750 0.916667
vt 0.087500 0.916667
vt 0.131250 0.916667
vt 0.175000 0.916667
vt 0.218750 0.916667
vt 0.262500 0.916667
vt 0.306250 0.916667
vt 0.350000 0.916667
vt 0.393750 0.916667
vt 0.437500 0.916667
vt 0.481250 0.916667
vt 0.525000 0.916667
vt 0.568750 0.916667
vt 0.612500 0.916667
vt 0.656250 0.916667
vt 0.700000 0.916667
vt 0.000000 1.000000
vt 0.043750 1.000000
vt 0.087500 1.000000
vt 0.131250 1.000000
vt 0.175000 1.000000
vt 0.218750 1.000000
vt 0.262500 1.000000
vt 0.306250 1.000000
vt 0.350000 1.000000
vt 0.393750 1.000000
vt 0.437500 1.000000
vt 0.481250 1.000000
vt 0.525000 1.000000
vt 0.568750 1.000000
vt 0.612500 1.000000
vt 0.656250 1.000000
vt 0.700000 1.000000
vt 0.000000 0.000000
vt 0.043750 0.000000
vt 0.087500 0.000000
vt 0.131250 0.000000
vt 0.175000 0.000000
vt 0.218750 0.000000
vt 0.262500 0.000000
vt 0.306250 0.000000
vt 0.350000 0.000000
vt 0.393750 0.000000
vt 0.437500 0.000000
vt 0.481250 0.000000
vt 0.525000 0.000000
vt 0.568750 0.000000
vt 0.612500 0.000000
vt 0.656250 0.000000
vt 0.700000 0.000000
vt 0.000000 0.083333
vt 0.043750 0.083333
vt 0.087500 0.083333
vt 0.131250 0.083333
vt 0.175000 0.083333
vt 0.218750 0.083333
vt 0.262500 0.083333
vt 0.306250 0.083333
vt 0.350000 0.083333
vt 0.393750 0.083333
vt 0.437500 0.083333
vt 0.481250 0.083333
vt 0.525000 0.083333
vt 0.568750 0.083333
vt 0.612500 0.083333
vt 0.656250 0.083333
vt 0.700000 0.083333
vt 0.000000 0.166667
vt 0.043750 0.166667
vt 0.087500 0.166667
vt 0.131250 0.166667
vt 0.175000 0.166667
vt 0.218750 0.166667
vt 0.262500 0.166667
vt 0.306250 0.166667
vt 0.350000 0.166667
vt 0.393750 0.166667
vt 0.437500 0.166667
vt 0.481250 0.166667
vt 0.525000 0.166667
vt 0.568750 0.166667
vt 0.612500 0.166667
vt 0.656250 0.166667
vt 0.700000 0.166667
vt 0.000000 0.250000
vt 0.043750 0.250000
vt 0.087500 0.250000
vt 0.131250 0.250000
vt 0.175000 0.250000
vt 0.218750 0.250000
vt 0.262500 0.250000
vt 0.306250 0.250000
vt 0.350000 0.250000
vt 0.393750 0.250000
vt 0.437500 0.250000
vt 0.481250 0.250000
vt 0.525000 0.250000
vt 0.568750 0.250000
vt 0.612500 0.250000
vt 0.656250 0.250000
vt 0.700000 0.250000
vt 0.000000 0.333333
vt 0.043750 0.333333
vt 0.087500 0.333333
vt 0.131250 0.333333
vt 0.175000 0.333333
vt 0.218750 0.333333
vt 0.262500 0.333333
vt 0.306250 0.333333
vt 0.350000 0.333333
vt 0.393750 0.333333
vt 0.437500 0.333333
vt 0.481250 0.333333
vt 0.525000 0.333333
vt 0.568750 0.333333
vt 0.612500 0.333333
vt 0.656250 0.333333
vt 0.700000 0.333333
vt 0.000000 0.416667
vt 0.043750 0.416667
vt 0.087500 0.416667
vt 0.131250 0.416667
vt 0.175000 0.416667
vt 0.218750 0.416667
vt 0.262500 0.416667
vt 0.306250 0.416667
vt 0.350000 0.416667
vt 0.393750 0.416667
vt 0.437500 0.416667
vt 0.481250 0.416667
vt 0.525000 0.416667
vt 0.568750 0.416667
vt 0.612500 0.416667
vt 0.656250 0.416667
vt 0.700000 0.416667
vt 0.000000 0.500000
vt 0.043750 0.500000
vt 0.087500 0.500000
vt 0.131250 0.500000
vt 0.175000 0.500000
vt 0.218750 0.500000
vt 0.262500 0.500000
vt 0.306250 0.500000
vt 0.350000 0.500000
vt 0.393750 0.500000
vt 0.437500 0.500000
vt 0.481250 0.500000
vt 0.525000 0.500000
vt 0.568750 0.500000
vt 0.612500 0.500000
vt 0.656250 0.500000
vt 0.700000 0.500000
vt 0.000000 0.583333
vt 0.043750 0.583333
vt 0.087500 0.583333
vt 0.131250 0.583333
vt 0.175000 0.583333
vt 0.218750 0.583333
vt 0.262500 0.583333
vt 0.306250 0.583333
vt 0.350000 0.583333
vt 0.393750 0.583333
vt 0.437500 0.583333
vt 0.481250 0.583333
vt 0.525000 0.583333
vt 0.568750 0.583333
vt 0.612500 0.583333
vt 0.656250 0.583333
vt 0.700000 0.583333
vt 0.000000 0.666667
vt 0.043750 0.666667
vt 0.087500 0.666667
vt 0.131250 0.666667
vt 0.175000 0.666667
vt 0.218750 0.666667
vt 0.262500 0.666667
vt 0.306250 0.666667
vt 0.350000 0.666667
vt 0.393750 0.666667
vt 0.437500 0.666667
vt 0.481250 0.666667
vt 0.525000 0.666667
vt 0.568750 0.666667
vt 0.612500 0.666667
vt 0.656250 0.666667
vt 0.700000 0.666667
vt 0.000000 0.750000
vt 0.043750 0.750000
vt 0.087500 0.750000
vt 0.131250 0.750000
vt 0.175000 0.750000
vt 0.218750 0.750000
vt 0.262500 0.750000
vt 0.306250 0.750000
vt 0.350000 0.750000
vt 0.393750 0.750000
vt 0.437500 0.750000
vt 0.481250 0.750000
vt 0.525000 0.750000
vt 0.568750 0.750000
vt 0.612500 0.750000
vt 0.656250 0.750000
vt 0.700000 0.750000
vt 0.000000 0.833333
vt 0.043750 0.833333
vt 0.087500 0.833333
vt 0.131250 0.833333
vt 0.175000 0.833333
vt 0.218750 0.833333
vt 0.262500 0.833333
vt 0.306250 0.833333
vt 0.350000 0.833333
vt 0.393750 0.833333
vt 0.437500 0.833333
vt 0.481250 0.833333
vt 0.525000 0.833333
vt 0.568750 0.833333
vt 0.612500 0.833333
vt 0.656250 0.833333
vt 0.700000 0.833333
vt 0.000000 0.916667
vt 0.043750 0.916667
vt 0.087500 0.916667
vt 0.131250 0.916667
vt 0.175000 0.916667
vt 0.218750 0.916667
vt 0.262500 0.916667
vt 0.306250 0.916667
vt 0.350000 0.916667
vt 0.393750 0.916667
vt 0.437500 0.916667
vt 0.481250 0.916667
vt 0.525000 0.916667
vt 0.568750 0.916667
vt 0.612500 0.916667
vt 0.656250 0.916667
vt 0.700000 0.916667
vt 0.000000 1.000000
vt 0.043750 1.000000
vt 0.087500 1.000000
vt 0.131250 1.000000
vt 0.175000 1.000000
vt 0.218750 1.000000
vt 0.262500 1.000000
vt 0.306250 1.000000
vt 0.350000 1.000000
vt 0.393750 1.000000
vt 0.437500 1.000000
vt 0.481250 1.000000
vt 0.525000 1.000000
vt 0.568750 1.000000
vt 0.612500 1.000000
vt 0.656250 1.000000
vt 0.700000 1.000000
vt 0.000000 0.000000
vt 0.100000 0.000000
vt 0.200000 0.000000
vt 0.300000 0.000000
vt 0.400000 0.000000
vt 0.500000 0.000000
vt 0.600000 0.000000
vt 0.700000 0.000000
vt 0.800000 0.000000
vt 0.900000 0.000000
vt 0.000000 0.133135
vt 0.100000 0.133135
vt 0.200000 0.133135
vt 0.300000 0.133135
vt 0.400000 0.133135
vt 0.500000 0.133135
vt 0.600000 0.133135
vt 0.700000 0.133135
vt 0.800000 0.133135
vt 0.900000 0.133135
vt 0.000000 0.260832
vt 0.100000 0.260832
vt 0.200000 0.260832
vt 0.300000 0.260832
vt 0.400000 0.260832
vt 0.500000 0.260832
vt 0.600000 0.260832
vt 0.700000 0.260832
vt 0.800000 0.260832
vt 0.900000 0.260832
vt 0.000000 0.380439
vt 0.100000 0.380439
vt 0.200000 0.380439
vt 0.300000 0.380439
vt 0.400000 0.380439
vt 0.500000 0.380439
vt 0.600000 0.380439
vt 0.700000 0.380439
vt 0.800000 0.380439
vt 0.900000 0.380439
vt 0.000000 0.496875
vt 0.100000 0.496875
vt 0.200000 0.496875
vt 0.300000 0.496875
vt 0.400000 0.496875
vt 0.500000 0.496875
vt 0.600000 0.496875
vt 0.700000 0.496875
vt 0.800000 0.496875
vt 0.900000 0.496875
vt 0.000000 0.633222
vt 0.100000 0.633222
vt 0.200000 0.633222
vt 0.300000 0.633222
vt 0.400000 0.633222
vt 0.500000 0.633222
vt 0.600000 0.633222
vt 0.700000 0.633222
vt 0.800000 0.633222
vt 0.900000 0.633222
vt 0.000000 1.000000
vt 0.111111 1.000000
vt 0.222222 1.000000
vt 0.333333 1.000000
vt 0.444444 1.000000
vt 0.555556 1.000000
vt 0.666667 1.000000
vt 0.777778 1.000000
vt 0.888889 1.000000
vt 1.000000 1.000000
vt 0.500000 0.000000
vt 0.000000 0.000000
vt 0.200000 0.000000
vt 0.400000 0.000000
vt 0.600000 0.000000
vt 0.800000 0.000000
vt 0.000000 1.000000
vt 0.200000 1.000000
vt 0.400000 1.000000
vt 0.600000 1.000000
vt 0.800000 1.000000
vt 0.500000 0.000000
vt 0.500000 1.000000
vt 0.000000 0.000000
vt 0.200000 0.000000
vt 0.400000 0.000000
vt 0.600000 0.000000
vt 0.800000 0.000000
vt 0.000000 1.000000
vt 0.200000 1.000000
vt 0.400000 1.000000
vt 0.600000 1.000000
vt 0.800000 1.000000
vt 0.500000 0.000000
vt 0.500000 1.000000
vt 0.000000 0.000000
vt 0.100000 0.000000
vt 0.200000 0.000000
vt 0.300000 0.000000
vt 0.400000 0.000000
vt 0.500000 0.000000
vt 0.600000 0.000000
vt 0.700000 0.000000
vt 0.800000 0.000000
vt 0.900000 0.000000
vt 0.000000 0.424889
vt 0.100000 0.424889
vt 0.200000 0.424889
vt 0.300000 0.424889
vt 0.400000 0.424889
vt 0.500000 0.424889
vt 0.600000 0.424889
vt 0.700000 0.424889
vt 0.800000 0.424889
vt 0.900000 0.424889
vt 0.000000 0.575111
vt 0.100000 0.575111
vt 0.200000 0.575111
vt 0.300000 0.575111
vt 0.400000 0.575111
vt 0.500000 0.575111
vt 0.600000 0.575111
vt 0.700000 0.575111
vt 0.800000 0.575111
vt 0.900000 0.575111
vt 0.000000 1.000000
vt 0.100000 1.000000
vt 0.200000 1.000000
vt 0.300000 1.000000
vt 0.400000 1.000000
vt 0.500000 1.000000
vt 0.600000 1.000000
vt 0.700000 1.000000
vt 0.800000 1.000000
vt 0.900000 1.000000
vt 0.500000 0.000000
vt 0.500000 1.000000
vn -0.916922 -0.246460 -0.313864
vn -0.958006 -0.006509 -0.286675
vn -0.844467 0.000062 -0.535608
vn -0.794610 -0.213584 -0.568311
vn -0.904722 0.366893 -0.216488
vn -0.832061 0.340370 -0.437976
vn -0.805796 0.566936 -0.171104
vn -0.761078 0.536649 -0.364372
vn -0.713888 0.684765 -0.146496
vn -0.683461 0.656063 -0.320098
vn -0.628982 0.765603 -0.135033
vn -0.605799 0.737554 -0.298365
vn -0.543485 0.828793 -0.133144
vn -0.524045 0.799074 -0.294715
vn -0.447333 0.883300 -0.140264
vn -0.429980 0.848543 -0.308369
vn -0.324633 0.932455 -0.158559
vn -0.309528 0.887180 -0.342204
vn -0.144316 0.970356 -0.193861
vn -0.136391 0.905196 -0.402515
vn 0.154605 0.954609 -0.254597
vn 0.134555 0.859593 -0.492945
vn 0.597399 0.734415 -0.322102
vn 0.510568 0.634551 -0.580229
vn 0.920508 0.231092 -0.315057
vn 0.797160 0.194752 -0.571496
vn 0.940991 -0.234194 -0.244314
vn 0.851025 -0.216025 -0.478633
vn 0.848142 -0.495503 -0.187434
vn 0.793578 -0.465366 -0.392005
vn 0.752080 -0.640565 -0.155088
vn 0.716703 -0.611140 -0.335925
vn 0.705486 -0.694036 -0.143541
vn 0.676659 -0.665677 -0.314653
vn -0.466423 0.006344 -0.884539
vn -0.417891 -0.112325 -0.901527
vn -0.520714 0.217054 -0.825678
vn -0.522628 0.370629 -0.767785
vn -0.496006 0.477200 -0.725437
vn -0.451799 0.550483 -0.702030
vn -0.392847 0.598831 -0.697905
vn -0.317383 0.625171 -0.713043
vn -0.220021 0.626880 -0.747404
vn -0.092165 0.593561 -0.799494
vn 0.073266 0.503369 -0.860960
vn 0.261648 0.332189 -0.906196
vn 0.420281 0.097180 -0.902175
vn 0.505651 -0.133546 -0.852340
vn 0.526373 -0.311473 -0.791149
vn 0.509961 -0.436298 -0.741339
vn 0.494791 -0.486760 -0.719894
vn 0.000000 -0.000000 -1.000000
vn 0.466423 -0.006344 -0.884539
vn 0.417891 0.112325 -0.901527
vn 0.520714 -0.217054 -0.825678
vn 0.522628 -0.370629 -0.767785
vn 0.496006 -0.477200 -0.725437
vn 0.451799 -0.550483 -0.702030
vn 0.392847 -0.598831 -0.697905
vn 0.317383 -0.625171 -0.713043
vn 0.220021 -0.626880 -0.747404
vn 0.092165 -0.593561 -0.799494
vn -0.073266 -0.503369 -0.860960
vn -0.261648 -0.332189 -0.906196
vn -0.420281 -0.097180 -0.902175
vn -0.505651 0.133546 -0.852340
vn -0.526373 0.311473 -0.791149
vn -0.509961 0.436298 -0.741339
vn -0.494791 0.486760 -0.719894
vn 0.844467 -0.000062 -0.535608
vn 0.794610 0.213584 -0.568311
vn 0.832061 -0.340370 -0.437976
vn 0.761078 -0.536649 -0.364372
vn 0.683461 -0.656063 -0.320098
vn 0.605799 -0.737554 -0.298365
vn 0.524045 -0.799074 -0.294715
vn 0.429980 -0.848543 -0.308369
vn 0.309528 -0.887180 -0.342204
vn 0.136391 -0.905196 -0.402515
vn -0.134555 -0.859593 -0.492945
vn -0.510568 -0.634551 -0.580229
vn -0.797160 -0.194752 -0.571496
vn -0.851025 0.216025 -0.478633
vn -0.793578 0.465366 -0.392005
vn -0.716703 0.611140 -0.335925
vn -0.676659 0.665677 -0.314653
vn 0.999977 0.006794 0.000000
vn 0.965722 0.259577 0.000000
vn 0.926699 -0.375806 0.000000
vn 0.817857 -0.575422 0.000000
vn 0.721674 -0.692233 0.000000
vn 0.634796 -0.772680 0.000000
vn 0.548367 -0.836238 -0.000000
vn 0.451799 -0.892120 -0.000000
vn 0.328792 -0.944402 0.000000
vn 0.147106 -0.989121 0.000000
vn -0.159873 -0.987138 0.000000
vn -0.631029 -0.775759 0.000000
vn -0.969903 -0.243492 0.000000
vn -0.970398 0.241513 0.000000
vn -0.863445 0.504443 0.000000
vn -0.761291 0.648410 0.000000
vn -0.712868 0.701298 0.000000
vn 0.844467 -0.000062 0.535608
vn 0.794610 0.213584 0.568311
vn 0.832061 -0.340370 0.437976
vn 0.761078 -0.536649 0.364372
vn 0.683461 -0.656063 0.320098
vn 0.605799 -0.737554 0.298365
vn 0.524045 -0.799074 0.294715
vn 0.429980 -0.848543 0.308369
vn 0.309528 -0.887180 0.342204
vn 0.136391 -0.905196 0.402515
vn -0.134555 -0.859593 0.492945
vn -0.510568 -0.634551 0.580229
vn -0.797160 -0.194752 0.571496
vn -0.851025 0.216025 0.478633
vn -0.793578 0.465366 0.392005
vn -0.716703 0.611140 0.335925
vn -0.676659 0.665677 0.314653
vn 0.466423 -0.006344 0.884539
vn 0.417891 0.112325 0.901527
vn 0.520714 -0.217054 0.825678
vn 0.522628 -0.370629 0.767785
vn 0.496006 -0.477200 0.725437
vn 0.451799 -0.550483 0.702030
vn 0.392847 -0.598831 0.697905
vn 0.317383 -0.625171 0.713043
vn 0.220021 -0.626880 0.747404
vn 0.092165 -0.593561 0.799494
vn -0.073266 -0.503369 0.860960
vn -0.261648 -0.332189 0.906196
vn -0.420281 -0.097180 0.902175
vn -0.505651 0.133546 0.852340
vn -0.526373 0.311473 0.791149
vn -0.509961 0.436298 0.741339
vn -0.494791 0.486760 0.719894
vn 0.000000 0.000000 1.000000
vn -0.466423 0.006344 0.884539
vn -0.417891 -0.112325 0.901527
vn -0.520714 0.217054 0.825678
vn -0.522628 0.370629 0.767785
vn -0.496006 0.477200 0.725437
vn -0.451799 0.550483 0.702030
vn -0.392847 0.598831 0.697905
vn -0.317383 0.625171 0.713043
vn -0.220021 0.626880 0.747404
vn -0.092165 0.593561 0.799494
vn 0.073266 0.503369 0.860960
vn 0.261648 0.332189 0.906196
vn 0.420281 0.097180 0.902175
vn 0.505651 -0.133546 0.852340
vn 0.526373 -0.311473 0.791149
vn 0.509961 -0.436298 0.741339
vn 0.494791 -0.486760 0.719894
vn -0.844467 0.000062 0.535608
vn -0.794610 -0.213584 0.568311
vn -0.832061 0.340370 0.437976
vn -0.761078 0.536649 0.364372
vn -0.683461 0.656063 0.320098
vn -0.605799 0.737554 0.298365
vn -0.524045 0.799074 0.294715
vn -0.429980 0.848543 0.308369
vn -0.309528 0.887180 0.342204
vn -0.136391 0.905196 0.402515
vn 0.134555 0.859593 0.492945
vn 0.510568 0.634551 0.580229
vn 0.797160 0.194752 0.571496
vn 0.851025 -0.216025 0.478633
vn 0.793578 -0.465366 0.392005
vn 0.716703 -0.611140 0.335925
vn 0.676659 -0.665677 0.314653
vn -0.958006 -0.006509 0.286675
vn -0.916922 -0.246460 0.313864
vn -0.904722 0.366893 0.216488
vn -0.805796 0.566936 0.171104
vn -0.713888 0.684765 0.146496
vn -0.628982 0.765603 0.135033
vn -0.543485 0.828793 0.133144
vn -0.447333 0.883300 0.140264
vn -0.324633 0.932455 0.158559
vn -0.144316 0.970356 0.193861
vn 0.154605 0.954609 0.254597
vn 0.597399 0.734415 0.322102
vn 0.920508 0.231092 0.315057
vn 0.940991 -0.234194 0.244314
vn 0.848142 -0.495503 0.187434
vn 0.752080 -0.640565 0.155088
vn 0.705486 -0.694036 0.143541
vn -0.545203 0.777331 -0.313864
vn -0.333773 0.898005 -0.286675
vn -0.288766 0.793560 -0.535608
vn -0.472476 0.673639 -0.568311
vn 0.035334 0.975646 -0.216488
vn 0.035261 0.898295 -0.437976
vn 0.257148 0.951104 -0.171104
vn 0.243981 0.898725 -0.364372
vn 0.399304 0.905039 -0.146496
vn 0.382740 0.866630 -0.320098
vn 0.504307 0.852901 -0.135033
vn 0.485878 0.821523 -0.298365
vn 0.592928 0.794172 -0.133144
vn 0.571650 0.765741 -0.294715
vn 0.677034 0.722462 -0.140264
vn 0.650308 0.694268 -0.308369
vn 0.765190 0.623974 -0.158559
vn 0.727812 0.594295 -0.342204
vn 0.862478 0.467494 -0.193861
vn 0.803958 0.437760 -0.402515
vn 0.949917 0.181215 -0.254597
vn 0.853774 0.167557 -0.492945
vn 0.894447 -0.310187 -0.322102
vn 0.770907 -0.262748 -0.580229
vn 0.531988 -0.785957 -0.315057
vn 0.455651 -0.682476 -0.571496
vn 0.101767 -0.964341 -0.244314
vn 0.088070 -0.873587 -0.478633
vn -0.175539 -0.966465 -0.187434
vn -0.165881 -0.904884 -0.392005
vn -0.344707 -0.925810 -0.155088
vn -0.329157 -0.882503 -0.335925
vn -0.410890 -0.900314 -0.143541
vn -0.394100 -0.863527 -0.314653
vn -0.153565 0.440464 -0.884539
vn -0.248478 0.354272 -0.901527
vn 0.025870 0.563548 -0.825678
vn 0.169528 0.617873 -0.767785
vn 0.278777 0.629305 -0.725437
vn 0.362760 0.612828 -0.702030
vn 0.428356 0.573968 -0.697905
vn 0.478917 0.512063 -0.713043
vn 0.513823 0.421157 -0.747404
vn 0.526242 0.289617 -0.799494
vn 0.498071 0.103315 -0.860960
vn 0.401644 -0.132253 -0.906196
vn 0.235064 -0.361697 -0.902175
vn 0.047451 -0.520832 -0.852340
vn -0.112659 -0.601159 -0.791149
vn -0.235569 -0.628429 -0.741339
vn -0.288176 -0.631433 -0.719894
vn 0.153565 -0.440464 -0.884539
vn 0.248478 -0.354272 -0.901527
vn -0.025870 -0.563548 -0.825678
vn -0.169528 -0.617873 -0.767785
vn -0.278777 -0.629305 -0.725437
vn -0.362760 -0.612828 -0.702030
vn -0.428356 -0.573968 -0.697905
vn -0.478917 -0.512063 -0.713043
vn -0.513823 -0.421157 -0.747404
vn -0.526242 -0.289617 -0.799494
vn -0.498071 -0.103315 -0.860960
vn -0.401644 0.132253 -0.906196
vn -0.235064 0.361697 -0.902175
vn -0.047451 0.520832 -0.852340
vn 0.112659 0.601159 -0.791149
vn 0.235569 0.628429 -0.741339
vn 0.288176 0.631433 -0.719894
vn 0.288766 -0.793560 -0.535608
vn 0.472476 -0.673639 -0.568311
vn -0.035261 -0.898295 -0.437976
vn -0.243981 -0.898725 -0.364372
vn -0.382740 -0.866630 -0.320098
vn -0.485878 -0.821523 -0.298365
vn -0.571650 -0.765741 -0.294715
vn -0.650308 -0.694268 -0.308369
vn -0.727812 -0.594295 -0.342204
vn -0.803958 -0.437760 -0.402515
vn -0.853774 -0.167557 -0.492945
vn -0.770907 0.262748 -0.580229
vn -0.455651 0.682476 -0.571496
vn -0.088070 0.873587 -0.478633
vn 0.165881 0.904884 -0.392005
vn 0.329157 0.882503 -0.335925
vn 0.394100 0.863527 -0.314653
vn 0.348396 -0.937347 0.000000
vn 0.574219 -0.818702 -0.000000
vn -0.036192 -0.999345 0.000000
vn -0.260996 -0.965340 0.000000
vn -0.403659 -0.914909 0.000000
vn -0.508969 -0.860785 0.000000
vn -0.598254 -0.801307 0.000000
vn -0.683794 -0.729675 0.000000
vn -0.774994 -0.631968 0.000000
vn -0.879156 -0.476534 0.000000
vn -0.982286 -0.187390 0.000000
vn -0.944800 0.327649 0.000000
vn -0.560534 0.828131 0.000000
vn -0.104947 0.994478 0.000000
vn 0.178706 0.983903 -0.000000
vn 0.348929 0.937149 0.000000
vn 0.415189 0.909735 0.000000
vn 0.288766 -0.793560 0.535608
vn 0.472476 -0.673639 0.568311
vn -0.035261 -0.898295 0.437976
vn -0.243981 -0.898725 0.364372
vn -0.382740 -0.866630 0.320098
vn -0.485878 -0.821523 0.298365
vn -0.571650 -0.765741 0.294715
vn -0.650308 -0.694268 0.308369
vn -0.727812 -0.594295 0.342204
vn -0.803958 -0.437760 0.402515
vn -0.853774 -0.167557 0.492945
vn -0.770907 0.262748 0.580229
vn -0.455651 0.682476 0.571496
vn -0.088070 0.873587 0.478633
vn 0.165881 0.904884 0.392005
vn 0.329157 0.882503 0.335925
vn 0.394100 0.863527 0.314653
vn 0.153565 -0.440464 0.884539
vn 0.248478 -0.354272 0.901527
vn -0.025870 -0.563548 0.825678
vn -0.169528 -0.617873 0.767785
vn -0.278777 -0.629305 0.725437
vn -0.362760 -0.612828 0.702030
vn -0.428356 -0.573968 0.697905
vn -0.478917 -0.512063 0.713043
vn -0.513823 -0.421157 0.747404
vn -0.526242 -0.289617 0.799494
vn -0.498071 -0.103315 0.860960
vn -0.401644 0.132253 0.906196
vn -0.235064 0.361697 0.902175
vn -0.047451 0.520832 0.852340
vn 0.112659 0.601159 0.791149
vn 0.235569 0.628429 0.741339
vn 0.288176 0.631433 0.719894
vn -0.153565 0.440464 0.884539
vn -0.248478 0.354272 0.901527
vn 0.025870 0.563548 0.825678
vn 0.169528 0.617873 0.767785
vn 0.278777 0.629305 0.725437
vn 0.362760 0.612828 0.702030
vn 0.428356 0.573968 0.697905
vn 0.478917 0.512063 0.713043
vn 0.513823 0.421157 0.747404
vn 0.526242 0.289617 0.799494
vn 0.498071 0.103315 0.860960
vn 0.401644 -0.132253 0.906196
vn 0.235064 -0.361697 0.902175
vn 0.047451 -0.520832 0.852340
vn -0.112659 -0.601159 0.791149
vn -0.235569 -0.628429 0.741339
vn -0.288176 -0.631433 0.719894
vn -0.288766 0.793560 0.535608
vn -0.472476 0.673639 0.568311
vn 0.035261 0.898295 0.437976
vn 0.243981 0.898725 0.364372
vn 0.382740 0.866630 0.320098
vn 0.485878 0.821523 0.298365
vn 0.571650 0.765741 0.294715
vn 0.650308 0.694268 0.308369
vn 0.727812 0.594295 0.342204
vn 0.803958 0.437760 0.402515
vn 0.853774 0.167557 0.492945
vn 0.770907 -0.262748 0.580229
vn 0.455651 -0.682476 0.571496
vn 0.088070 -0.873587 0.478633
vn -0.165881 -0.904884 0.392005
vn -0.329157 -0.882503 0.335925
vn -0.394100 -0.863527 0.314653
vn -0.333773 0.898005 0.286675
vn -0.545203 0.777331 0.313864
vn 0.035334 0.975646 0.216488
vn 0.257148 0.951104 0.171104
vn 0.399304 0.905039 0.146496
vn 0.504307 0.852901 0.135033
vn 0.592928 0.794172 0.133144
vn 0.677034 0.722462 0.140264
vn 0.765190 0.623974 0.158559
vn 0.862478 0.467494 0.193861
vn 0.949917 0.181215 0.254597
vn 0.894447 -0.310187 0.322102
vn 0.531988 -0.785957 0.315057
vn 0.101767 -0.964341 0.244314
vn -0.175539 -0.966465 0.187434
vn -0.344707 -0.925810 0.155088
vn -0.410890 -0.900314 0.143541
vn -0.996218 -0.086891 0.000000
vn -0.649175 -0.067172 -0.757668
vn -0.643249 -0.141481 -0.752472
vn -0.983316 -0.181907 0.000000
vn -0.188672 -0.049832 -0.980775
vn -0.187704 -0.105644 -0.976528
vn 0.188672 -0.049832 -0.980775
vn 0.187704 -0.105644 -0.976528
vn 0.649175 -0.067172 -0.757668
vn 0.643249 -0.141481 -0.752472
vn 0.996218 -0.086891 -0.000000
vn 0.983316 -0.181907 -0.000000
vn 0.649175 -0.067172 0.757668
vn 0.643249 -0.141481 0.752472
vn 0.188672 -0.049832 0.980775
vn 0.187704 -0.105644 0.976528
vn -0.188672 -0.049832 0.980775
vn -0.187704 -0.105644 0.976528
vn -0.649175 -0.067172 0.757668
vn -0.643249 -0.141481 0.752472
vn -0.614338 -0.311405 -0.724994
vn -0.920463 -0.390831 0.000000
vn -0.182779 -0.237601 -0.954011
vn 0.182779 -0.237601 -0.954011
vn 0.614338 -0.311405 -0.724994
vn 0.920463 -0.390831 -0.000000
vn 0.614338 -0.311405 0.724994
vn 0.182779 -0.237601 0.954011
vn -0.182779 -0.237601 0.954011
vn -0.614338 -0.311405 0.724994
vn -0.539163 -0.535669 -0.649894
vn -0.771989 -0.635636 0.000000
vn -0.168235 -0.431840 -0.886122
vn 0.168235 -0.431840 -0.886122
vn 0.539163 -0.535669 -0.649894
vn 0.771989 -0.635636 -0.000000
vn 0.539163 -0.535669 0.649894
vn 0.168235 -0.431840 0.886122
vn -0.168235 -0.431840 0.886122
vn -0.539163 -0.535669 0.649894
vn -0.379727 -0.794366 -0.474120
vn -0.506852 -0.862033 0.000000
vn -0.128993 -0.709589 -0.692708
vn 0.128993 -0.709589 -0.692708
vn 0.379727 -0.794366 -0.474120
vn 0.506852 -0.862033 -0.000000
vn 0.379727 -0.794366 0.474120
vn 0.128993 -0.709589 0.692708
vn -0.128993 -0.709589 0.692708
vn -0.379727 -0.794366 0.474120
vn -0.153501 -0.968060 -0.198237
vn -0.193633 -0.981074 -0.000000
vn -0.056679 -0.948737 -0.310944
vn 0.056679 -0.948737 -0.310944
vn 0.153501 -0.968060 -0.198237
vn 0.193633 -0.981074 -0.000000
vn 0.153501 -0.968060 0.198237
vn 0.056679 -0.948737 0.310944
vn -0.056679 -0.948737 0.310944
vn -0.153501 -0.968060 0.198237
vn 0.000000 -1.000000 0.000000
vn -0.951057 -0.309017 0.000000
vn -0.147423 -0.047901 -0.987913
vn 0.706417 0.229529 -0.669546
vn 0.706417 0.229529 0.669546
vn -0.147423 -0.047901 0.987913
vn 0.309017 -0.951057 0.000000
vn -0.309017 0.951057 -0.000000
vn -0.939693 0.342020 0.000000
vn -0.145662 0.053017 -0.987913
vn 0.697976 -0.254043 -0.669546
vn 0.697976 -0.254043 0.669546
vn -0.145662 0.053017 0.987913
vn -0.342020 -0.939693 -0.000000
vn 0.342020 0.939693 0.000000
vn -0.707107 -0.000000 0.707107
vn -0.572061 0.415627 0.707107
vn -0.745856 0.541896 0.387359
vn -0.921929 0.000000 0.387359
vn -0.218508 0.672499 0.707107
vn -0.284892 0.876807 0.387359
vn 0.218508 0.672499 0.707107
vn 0.284892 0.876807 0.387359
vn 0.572061 0.415627 0.707107
vn 0.745856 0.541896 0.387359
vn 0.707107 0.000000 0.707107
vn 0.921929 0.000000 0.387359
vn 0.572061 -0.415627 0.707107
vn 0.745856 -0.541896 0.387359
vn 0.218508 -0.672499 0.707107
vn 0.284892 -0.876807 0.387359
vn -0.218508 -0.672499 0.707107
vn -0.284892 -0.876807 0.387359
vn -0.572061 -0.415627 0.707107
vn -0.745856 -0.541896 0.387359
vn -0.745856 0.541896 -0.387359
vn -0.921929 0.000000 -0.387359
vn -0.284892 0.876807 -0.387359
vn 0.284892 0.876807 -0.387359
vn 0.745856 0.541896 -0.387359
vn 0.921929 -0.000000 -0.387359
vn 0.745856 -0.541896 -0.387359
vn 0.284892 -0.876807 -0.387359
vn -0.284892 -0.876807 -0.387359
vn -0.745856 -0.541896 -0.387359
vn -0.572061 0.415627 -0.707107
vn -0.707107 0.000000 -0.707107
vn -0.218508 0.672499 -0.707107
vn 0.218508 0.672499 -0.707107
vn 0.572061 0.415627 -0.707107
vn 0.707107 -0.000000 -0.707107
vn 0.572061 -0.415627 -0.707107
vn 0.218508 -0.672499 -0.707107
vn -0.218508 -0.672499 -0.707107
vn -0.572061 -0.415627 -0.707107
usemtl aged_cloth
s 1
f 1/1/1 2/2/2 19/19/3 18/18/4
s 1
f 2/2/2 3/3/5 20/20/6 19/19/3
s 1
f 3/3/5 4/4/7 21/21/8 20/20/6
s 1
f 4/4/7 5/5/9 22/22/10 21/21/8
s 1
f 5/5/9 6/6/11 23/23/12 22/22/10
s 1
f 6/6/11 7/7/13 24/24/14 23/23/12
s 1
f 7/7/13 8/8/15 25/25/16 24/24/14
s 1
f 8/8/15 9/9/17 26/26/18 25/25/16
s 1
f 9/9/17 10/10/19 27/27/20 26/26/18
s 1
f 10/10/19 11/11/21 28/28/22 27/27/20
s 1
f 11/11/21 12/12/23 29/29/24 28/28/22
s 1
f 12/12/23 13/13/25 30/30/26 29/29/24
s 1
f 13/13/25 14/14/27 31/31/28 30/30/26
s 1
f 14/14/27 15/15/29 32/32/30 31/31/28
s 1
f 15/15/29 16/16/31 33/33/32 32/32/30
s 1
f 16/16/31 17/17/33 34/34/34 33/33/32
s 1
f 18/18/4 19/19/3 36/36/35 35/35/36
s 1
f 19/19/3 20/20/6 37/37/37 36/36/35
s 1
f 20/20/6 21/21/8 38/38/38 37/37/37
s 1
f 21/21/8 22/22/10 39/39/39 38/38/38
s 1
f 22/22/10 23/23/12 40/40/40 39/39/39
s 1
f 23/23/12 24/24/14 41/41/41 40/40/40
s 1
f 24/24/14 25/25/16 42/42/42 41/41/41
s 1
f 25/25/16 26/26/18 43/43/43 42/42/42
s 1
f 26/26/18 27/27/20 44/44/44 43/43/43
s 1
f 27/27/20 28/28/22 45/45/45 44/44/44
s 1
f 28/28/22 29/29/24 46/46/46 45/45/45
s 1
f 29/29/24 30/30/26 47/47/47 46/46/46
s 1
f 30/30/26 31/31/28 48/48/48 47/47/47
s 1
f 31/31/28 32/32/30 49/49/49 48/48/48
s 1
f 32/32/30 33/33/32 50/50/50 49/49/49
s 1
f 33/33/32 34/34/34 51/51/51 50/50/50
s 1
f 35/35/36 36/36/35 53/53/52 52/52/52
s 1
f 36/36/35 37/37/37 54/54/52 53/53/52
s 1
f 37/37/37 38/38/38 55/55/52 54/54/52
s 1
f 38/38/38 39/39/39 56/56/52 55/55/52
s 1
f 39/39/39 40/40/40 57/57/52 56/56/52
s 1
f 40/40/40 41/41/41 58/58/52 57/57/52
s 1
f 41/41/41 42/42/42 59/59/52 58/58/52
s 1
f 42/42/42 43/43/43 60/60/52 59/59/52
s 1
f 43/43/43 44/44/44 61/61/52 60/60/52
s 1
f 44/44/44 45/45/45 62/62/52 61/61/52
s 1
f 45/45/45 46/46/46 63/63/52 62/62/52
s 1
f 46/46/46 47/47/47 64/64/52 63/63/52
s 1
f 47/47/47 48/48/48 65/65/52 64/64/52
s 1
f 48/48/48 49/49/49 66/66/52 65/65/52
s 1
f 49/49/49 50/50/50 67/67/52 66/66/52
s 1
f 50/50/50 51/51/51 68/68/52 67/67/52
s 1
f 52/52/52 53/53/52 70/70/53 69/69/54
s 1
f 53/53/52 54/54/52 71/71/55 70/70/53
s 1
f 54/54/52 55/55/52 72/72/56 71/71/55
s 1
f 55/55/52 56/56/52 73/73/57 72/72/56
s 1
f 56/56/52 57/57/52 74/74/58 73/73/57
s 1
f 57/57/52 58/58/52 75/75/59 74/74/58
s 1
f 58/58/52 59/59/52 76/76/60 75/75/59
s 1
f 59/59/52 60/60/52 77/77/61 76/76/60
s 1
f 60/60/52 61/61/52 78/78/62 77/77/61
s 1
f 61/61/52 62/62/52 79/79/63 78/78/62
s 1
f 62/62/52 63/63/52 80/80/64 79/79/63
s 1
f 63/63/52 64/64/52 81/81/65 80/80/64
s 1
f 64/64/52 65/65/52 82/82/66 81/81/65
s 1
f 65/65/52 66/66/52 83/83/67 82/82/66
s 1
f 66/66/52 67/67/52 84/84/68 83/83/67
s 1
f 67/67/52 68/68/52 85/85/69 84/84/68
s 1
f 69/69/54 70/70/53 87/87/70 86/86/71
s 1
f 70/70/53 71/71/55 88/88/72 87/87/70
s 1
f 71/71/55 72/72/56 89/89/73 88/88/72
s 1
f 72/72/56 73/73/57 90/90/74 89/89/73
s 1
f 73/73/57 74/74/58 91/91/75 90/90/74
s 1
f 74/74/58 75/75/59 92/92/76 91/91/75
s 1
f 75/75/59 76/76/60 93/93/77 92/92/76
s 1
f 76/76/60 77/77/61 94/94/78 93/93/77
s 1
f 77/77/61 78/78/62 95/95/79 94/94/78
s 1
f 78/78/62 79/79/63 96/96/80 95/95/79
s 1
f 79/79/63 80/80/64 97/97/81 96/96/80
s 1
f 80/80/64 81/81/65 98/98/82 97/97/81
s 1
f 81/81/65 82/82/66 99/99/83 98/98/82
s 1
f 82/82/66 83/83/67 100/100/84 99/99/83
s 1
f 83/83/67 84/84/68 101/101/85 100/100/84
s 1
f 84/84/68 85/85/69 102/102/86 101/101/85
s 1
f 86/86/71 87/87/70 104/104/87 103/103/88
s 1
f 87/87/70 88/88/72 105/105/89 104/104/87
s 1
f 88/88/72 89/89/73 106/106/90 105/105/89
s 1
f 89/89/73 90/90/74 107/107/91 106/106/90
s 1
f 90/90/74 91/91/75 108/108/92 107/107/91
s 1
f 91/91/75 92/92/76 109/109/93 108/108/92
s 1
f 92/92/76 93/93/77 110/110/94 109/109/93
s 1
f 93/93/77 94/94/78 111/111/95 110/110/94
s 1
f 94/94/78 95/95/79 112/112/96 111/111/95
s 1
f 95/95/79 96/96/80 113/113/97 112/112/96
s 1
f 96/96/80 97/97/81 114/114/98 113/113/97
s 1
f 97/97/81 98/98/82 115/115/99 114/114/98
s 1
f 98/98/82 99/99/83 116/116/100 115/115/99
s 1
f 99/99/83 100/100/84 117/117/101 116/116/100
s 1
f 100/100/84 101/101/85 118/118/102 117/117/101
s 1
f 101/101/85 102/102/86 119/119/103 118/118/102
s 1
f 103/103/88 104/104/87 121/121/104 120/120/105
s 1
f 104/104/87 105/105/89 122/122/106 121/121/104
s 1
f 105/105/89 106/106/90 123/123/107 122/122/106
s 1
f 106/106/90 107/107/91 124/124/108 123/123/107
s 1
f 107/107/91 108/108/92 125/125/109 124/124/108
s 1
f 108/108/92 109/109/93 126/126/110 125/125/109
s 1
f 109/109/93 110/110/94 127/127/111 126/126/110
s 1
f 110/110/94 111/111/95 128/128/112 127/127/111
s 1
f 111/111/95 112/112/96 129/129/113 128/128/112
s 1
f 112/112/96 113/113/97 130/130/114 129/129/113
s 1
f 113/113/97 114/114/98 131/131/115 130/130/114
s 1
f 114/114/98 115/115/99 132/132/116 131/131/115
s 1
f 115/115/99 116/116/100 133/133/117 132/132/116
s 1
f 116/116/100 117/117/101 134/134/118 133/133/117
s 1
f 117/117/101 118/118/102 135/135/119 134/134/118
s 1
f 118/118/102 119/119/103 136/136/120 135/135/119
s 1
f 120/120/105 121/121/104 138/138/121 137/137/122
s 1
f 121/121/104 122/122/106 139/139/123 138/138/121
s 1
f 122/122/106 123/123/107 140/140/124 139/139/123
s 1
f 123/123/107 124/124/108 141/141/125 140/140/124
s 1
f 124/124/108 125/125/109 142/142/126 141/141/125
s 1
f 125/125/109 126/126/110 143/143/127 142/142/126
s 1
f 126/126/110 127/127/111 144/144/128 143/143/127
s 1
f 127/127/111 128/128/112 145/145/129 144/144/128
s 1
f 128/128/112 129/129/113 146/146/130 145/145/129
s 1
f 129/129/113 130/130/114 147/147/131 146/146/130
s 1
f 130/130/114 131/131/115 148/148/132 147/147/131
s 1
f 131/131/115 132/132/116 149/149/133 148/148/132
s 1
f 132/132/116 133/133/117 150/150/134 149/149/133
s 1
f 133/133/117 134/134/118 151/151/135 150/150/134
s 1
f 134/134/118 135/135/119 152/152/136 151/151/135
s 1
f 135/135/119 136/136/120 153/153/137 152/152/136
s 1
f 137/137/122 138/138/121 155/155/138 154/154/138
s 1
f 138/138/121 139/139/123 156/156/138 155/155/138
s 1
f 139/139/123 140/140/124 157/157/138 156/156/138
s 1
f 140/140/124 141/141/125 158/158/138 157/157/138
s 1
f 141/141/125 142/142/126 159/159/138 158/158/138
s 1
f 142/142/126 143/143/127 160/160/138 159/159/138
s 1
f 143/143/127 144/144/128 161/161/138 160/160/138
s 1
f 144/144/128 145/145/129 162/162/138 161/161/138
s 1
f 145/145/129 146/146/130 163/163/138 162/162/138
s 1
f 146/146/130 147/147/131 164/164/138 163/163/138
s 1
f 147/147/131 148/148/132 165/165/138 164/164/138
s 1
f 148/148/132 149/149/133 166/166/138 165/165/138
s 1
f 149/149/133 150/150/134 167/167/138 166/166/138
s 1
f 150/150/134 151/151/135 168/168/138 167/167/138
s 1
f 151/151/135 152/152/136 169/169/138 168/168/138
s 1
f 152/152/136 153/153/137 170/170/138 169/169/138
s 1
f 154/154/138 155/155/138 172/172/139 171/171/140
s 1
f 155/155/138 156/156/138 173/173/141 172/172/139
s 1
f 156/156/138 157/157/138 174/174/142 173/173/141
s 1
f 157/157/138 158/158/138 175/175/143 174/174/142
s 1
f 158/158/138 159/159/138 176/176/144 175/175/143
s 1
f 159/159/138 160/160/138 177/177/145 176/176/144
s 1
f 160/160/138 161/161/138 178/178/146 177/177/145
s 1
f 161/161/138 162/162/138 179/179/147 178/178/146
s 1
f 162/162/138 163/163/138 180/180/148 179/179/147
s 1
f 163/163/138 164/164/138 181/181/149 180/180/148
s 1
f 164/164/138 165/165/138 182/182/150 181/181/149
s 1
f 165/165/138 166/166/138 183/183/151 182/182/150
s 1
f 166/166/138 167/167/138 184/184/152 183/183/151
s 1
f 167/167/138 168/168/138 185/185/153 184/184/152
s 1
f 168/168/138 169/169/138 186/186/154 185/185/153
s 1
f 169/169/138 170/170/138 187/187/155 186/186/154
s 1
f 171/171/140 172/172/139 189/189/156 188/188/157
s 1
f 172/172/139 173/173/141 190/190/158 189/189/156
s 1
f 173/173/141 174/174/142 191/191/159 190/190/158
s 1
f 174/174/142 175/175/143 192/192/160 191/191/159
s 1
f 175/175/143 176/176/144 193/193/161 192/192/160
s 1
f 176/176/144 177/177/145 194/194/162 193/193/161
s 1
f 177/177/145 178/178/146 195/195/163 194/194/162
s 1
f 178/178/146 179/179/147 196/196/164 195/195/163
s 1
f 179/179/147 180/180/148 197/197/165 196/196/164
s 1
f 180/180/148 181/181/149 198/198/166 197/197/165
s 1
f 181/181/149 182/182/150 199/199/167 198/198/166
s 1
f 182/182/150 183/183/151 200/200/168 199/199/167
s 1
f 183/183/151 184/184/152 201/201/169 200/200/168
s 1
f 184/184/152 185/185/153 202/202/170 201/201/169
s 1
f 185/185/153 186/186/154 203/203/171 202/202/170
s 1
f 186/186/154 187/187/155 204/204/172 203/203/171
s 1
f 188/188/157 189/189/156 206/206/173 205/205/174
s 1
f 189/189/156 190/190/158 207/207/175 206/206/173
s 1
f 190/190/158 191/191/159 208/208/176 207/207/175
s 1
f 191/191/159 192/192/160 209/209/177 208/208/176
s 1
f 192/192/160 193/193/161 210/210/178 209/209/177
s 1
f 193/193/161 194/194/162 211/211/179 210/210/178
s 1
f 194/194/162 195/195/163 212/212/180 211/211/179
s 1
f 195/195/163 196/196/164 213/213/181 212/212/180
s 1
f 196/196/164 197/197/165 214/214/182 213/213/181
s 1
f 197/197/165 198/198/166 215/215/183 214/214/182
s 1
f 198/198/166 199/199/167 216/216/184 215/215/183
s 1
f 199/199/167 200/200/168 217/217/185 216/216/184
s 1
f 200/200/168 201/201/169 218/218/186 217/217/185
s 1
f 201/201/169 202/202/170 219/219/187 218/218/186
s 1
f 202/202/170 203/203/171 220/220/188 219/219/187
s 1
f 203/203/171 204/204/172 221/221/189 220/220/188
s 2
f 222/222/190 223/223/191 240/240/192 239/239/193
s 2
f 223/223/191 224/224/194 241/241/195 240/240/192
s 2
f 224/224/194 225/225/196 242/242/197 241/241/195
s 2
f 225/225/196 226/226/198 243/243/199 242/242/197
s 2
f 226/226/198 227/227/200 244/244/201 243/243/199
s 2
f 227/227/200 228/228/202 245/245/203 244/244/201
s 2
f 228/228/202 229/229/204 246/246/205 245/245/203
s 2
f 229/229/204 230/230/206 247/247/207 246/246/205
s 2
f 230/230/206 231/231/208 248/248/209 247/247/207
s 2
f 231/231/208 232/232/210 249/249/211 248/248/209
s 2
f 232/232/210 233/233/212 250/250/213 249/249/211
s 2
f 233/233/212 234/234/214 251/251/215 250/250/213
s 2
f 234/234/214 235/235/216 252/252/217 251/251/215
s 2
f 235/235/216 236/236/218 253/253/219 252/252/217
s 2
f 236/236/218 237/237/220 254/254/221 253/253/219
s 2
f 237/237/220 238/238/222 255/255/223 254/254/221
s 2
f 239/239/193 240/240/192 257/257/224 256/256/225
s 2
f 240/240/192 241/241/195 258/258/226 257/257/224
s 2
f 241/241/195 242/242/197 259/259/227 258/258/226
s 2
f 242/242/197 243/243/199 260/260/228 259/259/227
s 2
f 243/243/199 244/244/201 261/261/229 260/260/228
s 2
f 244/244/201 245/245/203 262/262/230 261/261/229
s 2
f 245/245/203 246/246/205 263/263/231 262/262/230
s 2
f 246/246/205 247/247/207 264/264/232 263/263/231
s 2
f 247/247/207 248/248/209 265/265/233 264/264/232
s 2
f 248/248/209 249/249/211 266/266/234 265/265/233
s 2
f 249/249/211 250/250/213 267/267/235 266/266/234
s 2
f 250/250/213 251/251/215 268/268/236 267/267/235
s 2
f 251/251/215 252/252/217 269/269/237 268/268/236
s 2
f 252/252/217 253/253/219 270/270/238 269/269/237
s 2
f 253/253/219 254/254/221 271/271/239 270/270/238
s 2
f 254/254/221 255/255/223 272/272/240 271/271/239
s 2
f 256/256/225 257/257/224 274/274/52 273/273/52
s 2
f 257/257/224 258/258/226 275/275/52 274/274/52
s 2
f 258/258/226 259/259/227 276/276/52 275/275/52
s 2
f 259/259/227 260/260/228 277/277/52 276/276/52
s 2
f 260/260/228 261/261/229 278/278/52 277/277/52
s 2
f 261/261/229 262/262/230 279/279/52 278/278/52
s 2
f 262/262/230 263/263/231 280/280/52 279/279/52
s 2
f 263/263/231 264/264/232 281/281/52 280/280/52
s 2
f 264/264/232 265/265/233 282/282/52 281/281/52
s 2
f 265/265/233 266/266/234 283/283/52 282/282/52
s 2
f 266/266/234 267/267/235 284/284/52 283/283/52
s 2
f 267/267/235 268/268/236 285/285/52 284/284/52
s 2
f 268/268/236 269/269/237 286/286/52 285/285/52
s 2
f 269/269/237 270/270/238 287/287/52 286/286/52
s 2
f 270/270/238 271/271/239 288/288/52 287/287/52
s 2
f 271/271/239 272/272/240 289/289/52 288/288/52
s 2
f 273/273/52 274/274/52 291/291/241 290/290/242
s 2
f 274/274/52 275/275/52 292/292/243 291/291/241
s 2
f 275/275/52 276/276/52 293/293/244 292/292/243
s 2
f 276/276/52 277/277/52 294/294/245 293/293/244
s 2
f 277/277/52 278/278/52 295/295/246 294/294/245
s 2
f 278/278/52 279/279/52 296/296/247 295/295/246
s 2
f 279/279/52 280/280/52 297/297/248 296/296/247
s 2
f 280/280/52 281/281/52 298/298/249 297/297/248
s 2
f 281/281/52 282/282/52 299/299/250 298/298/249
s 2
f 282/282/52 283/283/52 300/300/251 299/299/250
s 2
f 283/283/52 284/284/52 301/301/252 300/300/251
s 2
f 284/284/52 285/285/52 302/302/253 301/301/252
s 2
f 285/285/52 286/286/52 303/303/254 302/302/253
s 2
f 286/286/52 287/287/52 304/304/255 303/303/254
s 2
f 287/287/52 288/288/52 305/305/256 304/304/255
s 2
f 288/288/52 289/289/52 306/306/257 305/305/256
s 2
f 290/290/242 291/291/241 308/308/258 307/307/259
s 2
f 291/291/241 292/292/243 309/309/260 308/308/258
s 2
f 292/292/243 293/293/244 310/310/261 309/309/260
s 2
f 293/293/244 294/294/245 311/311/262 310/310/261
s 2
f 294/294/245 295/295/246 312/312/263 311/311/262
s 2
f 295/295/246 296/296/247 313/313/264 312/312/263
s 2
f 296/296/247 297/297/248 314/314/265 313/313/264
s 2
f 297/297/248 298/298/249 315/315/266 314/314/265
s 2
f 298/298/249 299/299/250 316/316/267 315/315/266
s 2
f 299/299/250 300/300/251 317/317/268 316/316/267
s 2
f 300/300/251 301/301/252 318/318/269 317/317/268
s 2
f 301/301/252 302/302/253 319/319/270 318/318/269
s 2
f 302/302/253 303/303/254 320/320/271 319/319/270
s 2
f 303/303/254 304/304/255 321/321/272 320/320/271
s 2
f 304/304/255 305/305/256 322/322/273 321/321/272
s 2
f 305/305/256 306/306/257 323/323/274 322/322/273
s 2
f 307/307/259 308/308/258 325/325/275 324/324/276
s 2
f 308/308/258 309/309/260 326/326/277 325/325/275
s 2
f 309/309/260 310/310/261 327/327/278 326/326/277
s 2
f 310/310/261 311/311/262 328/328/279 327/327/278
s 2
f 311/311/262 312/312/263 329/329/280 328/328/279
s 2
f 312/312/263 313/313/264 330/330/281 329/329/280
s 2
f 313/313/264 314/314/265 331/331/282 330/330/281
s 2
f 314/314/265 315/315/266 332/332/283 331/331/282
s 2
f 315/315/266 316/316/267 333/333/284 332/332/283
s 2
f 316/316/267 317/317/268 334/334/285 333/333/284
s 2
f 317/317/268 318/318/269 335/335/286 334/334/285
s 2
f 318/318/269 319/319/270 336/336/287 335/335/286
s 2
f 319/319/270 320/320/271 337/337/288 336/336/287
s 2
f 320/320/271 321/321/272 338/338/289 337/337/288
s 2
f 321/321/272 322/322/273 339/339/290 338/338/289
s 2
f 322/322/273 323/323/274 340/340/291 339/339/290
s 2
f 324/324/276 325/325/275 342/342/292 341/341/293
s 2
f 325/325/275 326/326/277 343/343/294 342/342/292
s 2
f 326/326/277 327/327/278 344/344/295 343/343/294
s 2
f 327/327/278 328/328/279 345/345/296 344/344/295
s 2
f 328/328/279 329/329/280 346/346/297 345/345/296
s 2
f 329/329/280 330/330/281 347/347/298 346/346/297
s 2
f 330/330/281 331/331/282 348/348/299 347/347/298
s 2
f 331/331/282 332/332/283 349/349/300 348/348/299
s 2
f 332/332/283 333/333/284 350/350/301 349/349/300
s 2
f 333/333/284 334/334/285 351/351/302 350/350/301
s 2
f 334/334/285 335/335/286 352/352/303 351/351/302
s 2
f 335/335/286 336/336/287 353/353/304 352/352/303
s 2
f 336/336/287 337/337/288 354/354/305 353/353/304
s 2
f 337/337/288 338/338/289 355/355/306 354/354/305
s 2
f 338/338/289 339/339/290 356/356/307 355/355/306
s 2
f 339/339/290 340/340/291 357/357/308 356/356/307
s 2
f 341/341/293 342/342/292 359/359/309 358/358/310
s 2
f 342/342/292 343/343/294 360/360/311 359/359/309
s 2
f 343/343/294 344/344/295 361/361/312 360/360/311
s 2
f 344/344/295 345/345/296 362/362/313 361/361/312
s 2
f 345/345/296 346/346/297 363/363/314 362/362/313
s 2
f 346/346/297 347/347/298 364/364/315 363/363/314
s 2
f 347/347/298 348/348/299 365/365/316 364/364/315
s 2
f 348/348/299 349/349/300 366/366/317 365/365/316
s 2
f 349/349/300 350/350/301 367/367/318 366/366/317
s 2
f 350/350/301 351/351/302 368/368/319 367/367/318
s 2
f 351/351/302 352/352/303 369/369/320 368/368/319
s 2
f 352/352/303 353/353/304 370/370/321 369/369/320
s 2
f 353/353/304 354/354/305 371/371/322 370/370/321
s 2
f 354/354/305 355/355/306 372/372/323 371/371/322
s 2
f 355/355/306 356/356/307 373/373/324 372/372/323
s 2
f 356/356/307 357/357/308 374/374/325 373/373/324
s 2
f 358/358/310 359/359/309 376/376/138 375/375/138
s 2
f 359/359/309 360/360/311 377/377/138 376/376/138
s 2
f 360/360/311 361/361/312 378/378/138 377/377/138
s 2
f 361/361/312 362/362/313 379/379/138 378/378/138
s 2
f 362/362/313 363/363/314 380/380/138 379/379/138
s 2
f 363/363/314 364/364/315 381/381/138 380/380/138
s 2
f 364/364/315 365/365/316 382/382/138 381/381/138
s 2
f 365/365/316 366/366/317 383/383/138 382/382/138
s 2
f 366/366/317 367/367/318 384/384/138 383/383/138
s 2
f 367/367/318 368/368/319 385/385/138 384/384/138
s 2
f 368/368/319 369/369/320 386/386/138 385/385/138
s 2
f 369/369/320 370/370/321 387/387/138 386/386/138
s 2
f 370/370/321 371/371/322 388/388/138 387/387/138
s 2
f 371/371/322 372/372/323 389/389/138 388/388/138
s 2
f 372/372/323 373/373/324 390/390/138 389/389/138
s 2
f 373/373/324 374/374/325 391/391/138 390/390/138
s 2
f 375/375/138 376/376/138 393/393/326 392/392/327
s 2
f 376/376/138 377/377/138 394/394/328 393/393/326
s 2
f 377/377/138 378/378/138 395/395/329 394/394/328
s 2
f 378/378/138 379/379/138 396/396/330 395/395/329
s 2
f 379/379/138 380/380/138 397/397/331 396/396/330
s 2
f 380/380/138 381/381/138 398/398/332 397/397/331
s 2
f 381/381/138 382/382/138 399/399/333 398/398/332
s 2
f 382/382/138 383/383/138 400/400/334 399/399/333
s 2
f 383/383/138 384/384/138 401/401/335 400/400/334
s 2
f 384/384/138 385/385/138 402/402/336 401/401/335
s 2
f 385/385/138 386/386/138 403/403/337 402/402/336
s 2
f 386/386/138 387/387/138 404/404/338 403/403/337
s 2
f 387/387/138 388/388/138 405/405/339 404/404/338
s 2
f 388/388/138 389/389/138 406/406/340 405/405/339
s 2
f 389/389/138 390/390/138 407/407/341 406/406/340
s 2
f 390/390/138 391/391/138 408/408/342 407/407/341
s 2
f 392/392/327 393/393/326 410/410/343 409/409/344
s 2
f 393/393/326 394/394/328 411/411/345 410/410/343
s 2
f 394/394/328 395/395/329 412/412/346 411/411/345
s 2
f 395/395/329 396/396/330 413/413/347 412/412/346
s 2
f 396/396/330 397/397/331 414/414/348 413/413/347
s 2
f 397/397/331 398/398/332 415/415/349 414/414/348
s 2
f 398/398/332 399/399/333 416/416/350 415/415/349
s 2
f 399/399/333 400/400/334 417/417/351 416/416/350
s 2
f 400/400/334 401/401/335 418/418/352 417/417/351
s 2
f 401/401/335 402/402/336 419/419/353 418/418/352
s 2
f 402/402/336 403/403/337 420/420/354 419/419/353
s 2
f 403/403/337 404/404/338 421/421/355 420/420/354
s 2
f 404/404/338 405/405/339 422/422/356 421/421/355
s 2
f 405/405/339 406/406/340 423/423/357 422/422/356
s 2
f 406/406/340 407/407/341 424/424/358 423/423/357
s 2
f 407/407/341 408/408/342 425/425/359 424/424/358
s 2
f 409/409/344 410/410/343 427/427/360 426/426/361
s 2
f 410/410/343 411/411/345 428/428/362 427/427/360
s 2
f 411/411/345 412/412/346 429/429/363 428/428/362
s 2
f 412/412/346 413/413/347 430/430/364 429/429/363
s 2
f 413/413/347 414/414/348 431/431/365 430/430/364
s 2
f 414/414/348 415/415/349 432/432/366 431/431/365
s 2
f 415/415/349 416/416/350 433/433/367 432/432/366
s 2
f 416/416/350 417/417/351 434/434/368 433/433/367
s 2
f 417/417/351 418/418/352 435/435/369 434/434/368
s 2
f 418/418/352 419/419/353 436/436/370 435/435/369
s 2
f 419/419/353 420/420/354 437/437/371 436/436/370
s 2
f 420/420/354 421/421/355 438/438/372 437/437/371
s 2
f 421/421/355 422/422/356 439/439/373 438/438/372
s 2
f 422/422/356 423/423/357 440/440/374 439/439/373
s 2
f 423/423/357 424/424/358 441/441/375 440/440/374
s 2
f 424/424/358 425/425/359 442/442/376 441/441/375
s 3
f 443/443/377 444/444/378 454/454/379 453/453/380
s 3
f 444/444/378 445/445/381 455/455/382 454/454/379
s 3
f 445/445/381 446/446/383 456/456/384 455/455/382
s 3
f 446/446/383 447/447/385 457/457/386 456/456/384
s 3
f 447/447/385 448/448/387 458/458/388 457/457/386
s 3
f 448/448/387 449/449/389 459/459/390 458/458/388
s 3
f 449/449/389 450/450/391 460/460/392 459/459/390
s 3
f 450/450/391 451/451/393 461/461/394 460/460/392
s 3
f 451/451/393 452/452/395 462/462/396 461/461/394
s 3
f 452/452/395 443/443/377 453/453/380 462/462/396
s 3
f 453/453/380 454/454/379 464/464/397 463/463/398
s 3
f 454/454/379 455/455/382 465/465/399 464/464/397
s 3
f 455/455/382 456/456/384 466/466/400 465/465/399
s 3
f 456/456/384 457/457/386 467/467/401 466/466/400
s 3
f 457/457/386 458/458/388 468/468/402 467/467/401
s 3
f 458/458/388 459/459/390 469/469/403 468/468/402
s 3
f 459/459/390 460/460/392 470/470/404 469/469/403
s 3
f 460/460/392 461/461/394 471/471/405 470/470/404
s 3
f 461/461/394 462/462/396 472/472/406 471/471/405
s 3
f 462/462/396 453/453/380 463/463/398 472/472/406
s 3
f 463/463/398 464/464/397 474/474/407 473/473/408
s 3
f 464/464/397 465/465/399 475/475/409 474/474/407
s 3
f 465/465/399 466/466/400 476/476/410 475/475/409
s 3
f 466/466/400 467/467/401 477/477/411 476/476/410
s 3
f 467/467/401 468/468/402 478/478/412 477/477/411
s 3
f 468/468/402 469/469/403 479/479/413 478/478/412
s 3
f 469/469/403 470/470/404 480/480/414 479/479/413
s 3
f 470/470/404 471/471/405 481/481/415 480/480/414
s 3
f 471/471/405 472/472/406 482/482/416 481/481/415
s 3
f 472/472/406 463/463/398 473/473/408 482/482/416
s 3
f 473/473/408 474/474/407 484/484/417 483/483/418
s 3
f 474/474/407 475/475/409 485/485/419 484/484/417
s 3
f 475/475/409 476/476/410 486/486/420 485/485/419
s 3
f 476/476/410 477/477/411 487/487/421 486/486/420
s 3
f 477/477/411 478/478/412 488/488/422 487/487/421
s 3
f 478/478/412 479/479/413 489/489/423 488/488/422
s 3
f 479/479/413 480/480/414 490/490/424 489/489/423
s 3
f 480/480/414 481/481/415 491/491/425 490/490/424
s 3
f 481/481/415 482/482/416 492/492/426 491/491/425
s 3
f 482/482/416 473/473/408 483/483/418 492/492/426
s 3
f 483/483/418 484/484/417 494/494/427 493/493/428
s 3
f 484/484/417 485/485/419 495/495/429 494/494/427
s 3
f 485/485/419 486/486/420 496/496/430 495/495/429
s 3
f 486/486/420 487/487/421 497/497/431 496/496/430
s 3
f 487/487/421 488/488/422 498/498/432 497/497/431
s 3
f 488/488/422 489/489/423 499/499/433 498/498/432
s 3
f 489/489/423 490/490/424 500/500/434 499/499/433
s 3
f 490/490/424 491/491/425 501/501/435 500/500/434
s 3
f 491/491/425 492/492/426 502/502/436 501/501/435
s 3
f 492/492/426 483/483/418 493/493/428 502/502/436
s 3
f 493/493/428 494/494/427 503/503/437
s 3
f 494/494/427 495/495/429 503/504/437
s 3
f 495/495/429 496/496/430 503/505/437
s 3
f 496/496/430 497/497/431 503/506/437
s 3
f 497/497/431 498/498/432 503/507/437
s 3
f 498/498/432 499/499/433 503/508/437
s 3
f 499/499/433 500/500/434 503/509/437
s 3
f 500/500/434 501/501/435 503/510/437
s 3
f 501/501/435 502/502/436 503/511/437
s 3
f 502/502/436 493/493/428 503/512/437
s off
f 504/513/437 443/443/437 444/444/437
s off
f 504/513/437 444/444/437 445/445/437
s off
f 504/513/437 445/445/437 446/446/437
s off
f 504/513/437 446/446/437 447/447/437
s off
f 504/513/437 447/447/437 448/448/437
s off
f 504/513/437 448/448/437 449/449/437
s off
f 504/513/437 449/449/437 450/450/437
s off
f 504/513/437 450/450/437 451/451/437
s off
f 504/513/437 451/451/437 452/452/437
s off
f 504/513/437 452/452/437 443/443/437
s 4
f 505/514/438 506/515/439 511/520/439 510/519/438
s 4
f 506/515/439 507/516/440 512/521/440 511/520/439
s 4
f 507/516/440 508/517/441 513/522/441 512/521/440
s 4
f 508/517/441 509/518/442 514/523/442 513/522/441
s 4
f 509/518/442 505/514/438 510/519/438 514/523/442
s off
f 515/524/443 505/514/443 506/515/443
s off
f 515/524/443 506/515/443 507/516/443
s off
f 515/524/443 507/516/443 508/517/443
s off
f 515/524/443 508/517/443 509/518/443
s off
f 515/524/443 509/518/443 505/514/443
s off
f 516/525/444 511/520/444 510/519/444
s off
f 516/525/444 512/521/444 511/520/444
s off
f 516/525/444 513/522/444 512/521/444
s off
f 516/525/444 514/523/444 513/522/444
s off
f 516/525/444 510/519/444 514/523/444
s 5
f 517/526/445 518/527/446 523/532/446 522/531/445
s 5
f 518/527/446 519/528/447 524/533/447 523/532/446
s 5
f 519/528/447 520/529/448 525/534/448 524/533/447
s 5
f 520/529/448 521/530/449 526/535/449 525/534/448
s 5
f 521/530/449 517/526/445 522/531/445 526/535/449
s off
f 527/536/450 517/526/450 518/527/450
s off
f 527/536/450 518/527/450 519/528/450
s off
f 527/536/450 519/528/450 520/529/450
s off
f 527/536/450 520/529/450 521/530/450
s off
f 527/536/450 521/530/450 517/526/450
s off
f 528/537/451 523/532/451 522/531/451
s off
f 528/537/451 524/533/451 523/532/451
s off
f 528/537/451 525/534/451 524/533/451
s off
f 528/537/451 526/535/451 525/534/451
s off
f 528/537/451 522/531/451 526/535/451
usemtl ritual_gold
s 6
f 529/538/452 530/539/453 540/549/454 539/548/455
s 6
f 530/539/453 531/540/456 541/550/457 540/549/454
s 6
f 531/540/456 532/541/458 542/551/459 541/550/457
s 6
f 532/541/458 533/542/460 543/552/461 542/551/459
s 6
f 533/542/460 534/543/462 544/553/463 543/552/461
s 6
f 534/543/462 535/544/464 545/554/465 544/553/463
s 6
f 535/544/464 536/545/466 546/555/467 545/554/465
s 6
f 536/545/466 537/546/468 547/556/469 546/555/467
s 6
f 537/546/468 538/547/470 548/557/471 547/556/469
s 6
f 538/547/470 529/538/452 539/548/455 548/557/471
s 6
f 539/548/455 540/549/454 550/559/472 549/558/473
s 6
f 540/549/454 541/550/457 551/560/474 550/559/472
s 6
f 541/550/457 542/551/459 552/561/475 551/560/474
s 6
f 542/551/459 543/552/461 553/562/476 552/561/475
s 6
f 543/552/461 544/553/463 554/563/477 553/562/476
s 6
f 544/553/463 545/554/465 555/564/478 554/563/477
s 6
f 545/554/465 546/555/467 556/565/479 555/564/478
s 6
f 546/555/467 547/556/469 557/566/480 556/565/479
s 6
f 547/556/469 548/557/471 558/567/481 557/566/480
s 6
f 548/557/471 539/548/455 549/558/473 558/567/481
s 6
f 549/558/473 550/559/472 560/569/482 559/568/483
s 6
f 550/559/472 551/560/474 561/570/484 560/569/482
s 6
f 551/560/474 552/561/475 562/571/485 561/570/484
s 6
f 552/561/475 553/562/476 563/572/486 562/571/485
s 6
f 553/562/476 554/563/477 564/573/487 563/572/486
s 6
f 554/563/477 555/564/478 565/574/488 564/573/487
s 6
f 555/564/478 556/565/479 566/575/489 565/574/488
s 6
f 556/565/479 557/566/480 567/576/490 566/575/489
s 6
f 557/566/480 558/567/481 568/577/491 567/576/490
s 6
f 558/567/481 549/558/473 559/568/483 568/577/491
s off
f 569/578/52 529/538/52 530/539/52
s off
f 569/578/52 530/539/52 531/540/52
s off
f 569/578/52 531/540/52 532/541/52
s off
f 569/578/52 532/541/52 533/542/52
s off
f 569/578/52 533/542/52 534/543/52
s off
f 569/578/52 534/543/52 535/544/52
s off
f 569/578/52 535/544/52 536/545/52
s off
f 569/578/52 536/545/52 537/546/52
s off
f 569/578/52 537/546/52 538/547/52
s off
f 569/578/52 538/547/52 529/538/52
s off
f 570/579/138 560/569/138 559/568/138
s off
f 570/579/138 561/570/138 560/569/138
s off
f 570/579/138 562/571/138 561/570/138
s off
f 570/579/138 563/572/138 562/571/138
s off
f 570/579/138 564/573/138 563/572/138
s off
f 570/579/138 565/574/138 564/573/138
s off
f 570/579/138 566/575/138 565/574/138
s off
f 570/579/138 567/576/138 566/575/138
s off
f 570/579/138 568/577/138 567/576/138
s off
f 570/579/138 559/568/138 568/577/138
