# food cohort: composed from tools/asset-production/parts.py
# generated by tools/asset-production/lathe.py
mtllib food_cohort.mtl
o ramen
s off
v 0.322000 0.000000 0.000000
v 0.306240 0.000000 0.099503
v 0.260503 0.000000 0.189267
v 0.189267 0.000000 0.260503
v 0.099503 0.000000 0.306240
v 0.000000 0.000000 0.322000
v -0.099503 0.000000 0.306240
v -0.189267 0.000000 0.260503
v -0.260503 0.000000 0.189267
v -0.306240 0.000000 0.099503
v -0.322000 0.000000 0.000000
v -0.306240 0.000000 -0.099503
v -0.260503 0.000000 -0.189267
v -0.189267 0.000000 -0.260503
v -0.099503 0.000000 -0.306240
v -0.000000 0.000000 -0.322000
v 0.099503 0.000000 -0.306240
v 0.189267 0.000000 -0.260503
v 0.260503 0.000000 -0.189267
v 0.306240 0.000000 -0.099503
v 0.506000 0.000000 0.000000
v 0.481235 0.000000 0.156363
v 0.409363 0.000000 0.297419
v 0.297419 0.000000 0.409363
v 0.156363 0.000000 0.481235
v 0.000000 0.000000 0.506000
v -0.156363 0.000000 0.481235
v -0.297419 0.000000 0.409363
v -0.409363 0.000000 0.297419
v -0.481235 0.000000 0.156363
v -0.506000 0.000000 0.000000
v -0.481235 0.000000 -0.156363
v -0.409363 0.000000 -0.297419
v -0.297419 0.000000 -0.409363
v -0.156363 0.000000 -0.481235
v -0.000000 0.000000 -0.506000
v 0.156363 0.000000 -0.481235
v 0.297419 0.000000 -0.409363
v 0.409363 0.000000 -0.297419
v 0.481235 0.000000 -0.156363
v 0.920000 0.528000 0.000000
v 0.874972 0.528000 0.284296
v 0.744296 0.528000 0.540762
v 0.540762 0.528000 0.744296
v 0.284296 0.528000 0.874972
v 0.000000 0.528000 0.920000
v -0.284296 0.528000 0.874972
v -0.540762 0.528000 0.744296
v -0.744296 0.528000 0.540762
v -0.874972 0.528000 0.284296
v -0.920000 0.528000 0.000000
v -0.874972 0.528000 -0.284296
v -0.744296 0.528000 -0.540762
v -0.540762 0.528000 -0.744296
v -0.284296 0.528000 -0.874972
v -0.000000 0.528000 -0.920000
v 0.284296 0.528000 -0.874972
v 0.540762 0.528000 -0.744296
v 0.744296 0.528000 -0.540762
v 0.874972 0.528000 -0.284296
v 0.920000 0.960000 0.000000
v 0.874972 0.960000 0.284296
v 0.744296 0.960000 0.540762
v 0.540762 0.960000 0.744296
v 0.284296 0.960000 0.874972
v 0.000000 0.960000 0.920000
v -0.284296 0.960000 0.874972
v -0.540762 0.960000 0.744296
v -0.744296 0.960000 0.540762
v -0.874972 0.960000 0.284296
v -0.920000 0.960000 0.000000
v -0.874972 0.960000 -0.284296
v -0.744296 0.960000 -0.540762
v -0.540762 0.960000 -0.744296
v -0.284296 0.960000 -0.874972
v -0.000000 0.960000 -0.920000
v 0.284296 0.960000 -0.874972
v 0.540762 0.960000 -0.744296
v 0.744296 0.960000 -0.540762
v 0.874972 0.960000 -0.284296
v 0.820000 0.960000 0.000000
v 0.779866 0.960000 0.253394
v 0.663394 0.960000 0.481984
v 0.481984 0.960000 0.663394
v 0.253394 0.960000 0.779866
v 0.000000 0.960000 0.820000
v -0.253394 0.960000 0.779866
v -0.481984 0.960000 0.663394
v -0.663394 0.960000 0.481984
v -0.779866 0.960000 0.253394
v -0.820000 0.960000 0.000000
v -0.779866 0.960000 -0.253394
v -0.663394 0.960000 -0.481984
v -0.481984 0.960000 -0.663394
v -0.253394 0.960000 -0.779866
v -0.000000 0.960000 -0.820000
v 0.253394 0.960000 -0.779866
v 0.481984 0.960000 -0.663394
v 0.663394 0.960000 -0.481984
v 0.779866 0.960000 -0.253394
v 0.615000 0.480000 0.000000
v 0.584900 0.480000 0.190045
v 0.497545 0.480000 0.361488
v 0.361488 0.480000 0.497545
v 0.190045 0.480000 0.584900
v 0.000000 0.480000 0.615000
v -0.190045 0.480000 0.584900
v -0.361488 0.480000 0.497545
v -0.497545 0.480000 0.361488
v -0.584900 0.480000 0.190045
v -0.615000 0.480000 0.000000
v -0.584900 0.480000 -0.190045
v -0.497545 0.480000 -0.361488
v -0.361488 0.480000 -0.497545
v -0.190045 0.480000 -0.584900
v -0.000000 0.480000 -0.615000
v 0.190045 0.480000 -0.584900
v 0.361488 0.480000 -0.497545
v 0.497545 0.480000 -0.361488
v 0.584900 0.480000 -0.190045
v 0.246000 0.080000 0.000000
v 0.233960 0.080000 0.076018
v 0.199018 0.080000 0.144595
v 0.144595 0.080000 0.199018
v 0.076018 0.080000 0.233960
v 0.000000 0.080000 0.246000
v -0.076018 0.080000 0.233960
v -0.144595 0.080000 0.199018
v -0.199018 0.080000 0.144595
v -0.233960 0.080000 0.076018
v -0.246000 0.080000 0.000000
v -0.233960 0.080000 -0.076018
v -0.199018 0.080000 -0.144595
v -0.144595 0.080000 -0.199018
v -0.076018 0.080000 -0.233960
v -0.000000 0.080000 -0.246000
v 0.076018 0.080000 -0.233960
v 0.144595 0.080000 -0.199018
v 0.199018 0.080000 -0.144595
v 0.233960 0.080000 -0.076018
v 0.305900 0.050000 0.000000
v 0.290928 0.050000 0.094528
v 0.247478 0.050000 0.179804
v 0.179804 0.050000 0.247478
v 0.094528 0.050000 0.290928
v 0.000000 0.050000 0.305900
v -0.094528 0.050000 0.290928
v -0.179804 0.050000 0.247478
v -0.247478 0.050000 0.179804
v -0.290928 0.050000 0.094528
v -0.305900 0.050000 0.000000
v -0.290928 0.050000 -0.094528
v -0.247478 0.050000 -0.179804
v -0.179804 0.050000 -0.247478
v -0.094528 0.050000 -0.290928
v -0.000000 0.050000 -0.305900
v 0.094528 0.050000 -0.290928
v 0.179804 0.050000 -0.247478
v 0.247478 0.050000 -0.179804
v 0.290928 0.050000 -0.094528
v 0.322000 0.000000 0.000000
v 0.306240 0.000000 0.099503
v 0.260503 0.000000 0.189267
v 0.189267 0.000000 0.260503
v 0.099503 0.000000 0.306240
v 0.000000 0.000000 0.322000
v -0.099503 0.000000 0.306240
v -0.189267 0.000000 0.260503
v -0.260503 0.000000 0.189267
v -0.306240 0.000000 0.099503
v -0.322000 0.000000 0.000000
v -0.306240 0.000000 -0.099503
v -0.260503 0.000000 -0.189267
v -0.189267 0.000000 -0.260503
v -0.099503 0.000000 -0.306240
v -0.000000 0.000000 -0.322000
v 0.099503 0.000000 -0.306240
v 0.189267 0.000000 -0.260503
v 0.260503 0.000000 -0.189267
v 0.306240 0.000000 -0.099503
v 0.860000 0.780000 0.000000
v 0.817909 0.780000 0.265755
v 0.695755 0.780000 0.505495
v 0.505495 0.780000 0.695755
v 0.265755 0.780000 0.817909
v 0.000000 0.780000 0.860000
v -0.265755 0.780000 0.817909
v -0.505495 0.780000 0.695755
v -0.695755 0.780000 0.505495
v -0.817909 0.780000 0.265755
v -0.860000 0.780000 0.000000
v -0.817909 0.780000 -0.265755
v -0.695755 0.780000 -0.505495
v -0.505495 0.780000 -0.695755
v -0.265755 0.780000 -0.817909
v -0.000000 0.780000 -0.860000
v 0.265755 0.780000 -0.817909
v 0.505495 0.780000 -0.695755
v 0.695755 0.780000 -0.505495
v 0.817909 0.780000 -0.265755
v 0.860000 0.820000 0.000000
v 0.817909 0.820000 0.265755
v 0.695755 0.820000 0.505495
v 0.505495 0.820000 0.695755
v 0.265755 0.820000 0.817909
v 0.000000 0.820000 0.860000
v -0.265755 0.820000 0.817909
v -0.505495 0.820000 0.695755
v -0.695755 0.820000 0.505495
v -0.817909 0.820000 0.265755
v -0.860000 0.820000 0.000000
v -0.817909 0.820000 -0.265755
v -0.695755 0.820000 -0.505495
v -0.505495 0.820000 -0.695755
v -0.265755 0.820000 -0.817909
v -0.000000 0.820000 -0.860000
v 0.265755 0.820000 -0.817909
v 0.505495 0.820000 -0.695755
v 0.695755 0.820000 -0.505495
v 0.817909 0.820000 -0.265755
v 0.000000 0.780000 0.000000
v 0.000000 0.820000 0.000000
v 0.600000 0.840000 0.000000
v 0.541421 0.840000 0.141421
v 0.400000 0.840000 0.200000
v 0.258579 0.840000 0.141421
v 0.200000 0.840000 0.000000
v 0.258579 0.840000 -0.141421
v 0.400000 0.840000 -0.200000
v 0.541421 0.840000 -0.141421
v 0.596563 0.865882 0.000000
v 0.538991 0.865882 0.138991
v 0.400000 0.865882 0.196563
v 0.261009 0.865882 0.138991
v 0.203437 0.865882 0.000000
v 0.261009 0.865882 -0.138991
v 0.400000 0.865882 -0.196563
v 0.538991 0.865882 -0.138991
v 0.586121 0.890000 0.000000
v 0.531607 0.890000 0.131607
v 0.400000 0.890000 0.186121
v 0.268393 0.890000 0.131607
v 0.213879 0.890000 0.000000
v 0.268393 0.890000 -0.131607
v 0.400000 0.890000 -0.186121
v 0.531607 0.890000 -0.131607
v 0.568179 0.910711 0.000000
v 0.518921 0.910711 0.118921
v 0.400000 0.910711 0.168179
v 0.281079 0.910711 0.118921
v 0.231821 0.910711 0.000000
v 0.281079 0.910711 -0.118921
v 0.400000 0.910711 -0.168179
v 0.518921 0.910711 -0.118921
v 0.541421 0.926603 0.000000
v 0.500000 0.926603 0.100000
v 0.400000 0.926603 0.141421
v 0.300000 0.926603 0.100000
v 0.258579 0.926603 0.000000
v 0.300000 0.926603 -0.100000
v 0.400000 0.926603 -0.141421
v 0.500000 0.926603 -0.100000
v 0.501749 0.936593 0.000000
v 0.471947 0.936593 0.071947
v 0.400000 0.936593 0.101749
v 0.328053 0.936593 0.071947
v 0.298251 0.936593 0.000000
v 0.328053 0.936593 -0.071947
v 0.400000 0.936593 -0.101749
v 0.471947 0.936593 -0.071947
v 0.400000 0.940000 0.000000
v 0.400000 0.840000 0.000000
v 0.473831 0.856887 0.339139
v 0.414264 0.856887 0.482948
v 0.270454 0.856887 0.542516
v 0.126644 0.856887 0.482948
v 0.067077 0.856887 0.339139
v 0.126644 0.856887 0.195329
v 0.270454 0.856887 0.135761
v 0.414264 0.856887 0.195329
v 0.470336 0.883206 0.339139
v 0.411792 0.883206 0.480477
v 0.270454 0.883206 0.539021
v 0.129116 0.883206 0.480477
v 0.070572 0.883206 0.339139
v 0.129116 0.883206 0.197800
v 0.270454 0.883206 0.139256
v 0.411792 0.883206 0.197800
v 0.459718 0.907732 0.339139
v 0.404284 0.907732 0.472968
v 0.270454 0.907732 0.528403
v 0.136624 0.907732 0.472968
v 0.081190 0.907732 0.339139
v 0.136624 0.907732 0.205309
v 0.270454 0.907732 0.149875
v 0.404284 0.907732 0.205309
v 0.441473 0.928792 0.339139
v 0.391383 0.928792 0.460068
v 0.270454 0.928792 0.510158
v 0.149525 0.928792 0.460068
v 0.099435 0.928792 0.339139
v 0.149525 0.928792 0.218210
v 0.270454 0.928792 0.168119
v 0.391383 0.928792 0.218210
v 0.414264 0.944952 0.339139
v 0.372143 0.944952 0.440827
v 0.270454 0.944952 0.482948
v 0.168765 0.944952 0.440827
v 0.126644 0.944952 0.339139
v 0.168765 0.944952 0.237450
v 0.270454 0.944952 0.195329
v 0.372143 0.944952 0.237450
v 0.373921 0.955111 0.339139
v 0.343616 0.955111 0.412301
v 0.270454 0.955111 0.442605
v 0.197292 0.955111 0.412301
v 0.166987 0.955111 0.339139
v 0.197292 0.955111 0.265977
v 0.270454 0.955111 0.235672
v 0.343616 0.955111 0.265977
v 0.270454 0.958576 0.339139
v 0.270454 0.856887 0.339139
v 0.117094 0.815096 0.341411
v 0.059974 0.815096 0.479311
v -0.077925 0.815096 0.536431
v -0.215824 0.815096 0.479311
v -0.272944 0.815096 0.341411
v -0.215824 0.815096 0.203512
v -0.077925 0.815096 0.146392
v 0.059974 0.815096 0.203512
v 0.113743 0.840333 0.341411
v 0.057605 0.840333 0.476941
v -0.077925 0.840333 0.533079
v -0.213455 0.840333 0.476941
v -0.269593 0.840333 0.341411
v -0.213455 0.840333 0.205882
v -0.077925 0.840333 0.149744
v 0.057605 0.840333 0.205882
v 0.103561 0.863851 0.341411
v 0.050405 0.863851 0.469741
v -0.077925 0.863851 0.522897
v -0.206255 0.863851 0.469741
v -0.259411 0.863851 0.341411
v -0.206255 0.863851 0.213082
v -0.077925 0.863851 0.159926
v 0.050405 0.863851 0.213082
v 0.086066 0.884045 0.341411
v 0.038034 0.884045 0.457370
v -0.077925 0.884045 0.505402
v -0.193884 0.884045 0.457370
v -0.241916 0.884045 0.341411
v -0.193884 0.884045 0.225452
v -0.077925 0.884045 0.177421
v 0.038034 0.884045 0.225452
v 0.059974 0.899541 0.341411
v 0.019585 0.899541 0.438921
v -0.077925 0.899541 0.479311
v -0.175434 0.899541 0.438921
v -0.215824 0.899541 0.341411
v -0.175434 0.899541 0.243902
v -0.077925 0.899541 0.203512
v 0.019585 0.899541 0.243902
v 0.021290 0.909283 0.341411
v -0.007770 0.909283 0.411567
v -0.077925 0.909283 0.440626
v -0.148080 0.909283 0.411567
v -0.177139 0.909283 0.341411
v -0.148080 0.909283 0.271256
v -0.077925 0.909283 0.242197
v -0.007770 0.909283 0.271256
v -0.077925 0.912605 0.341411
v -0.077925 0.815096 0.341411
v -0.192170 0.859840 0.190770
v -0.251911 0.859840 0.334997
v -0.396138 0.859840 0.394738
v -0.540365 0.859840 0.334997
v -0.600106 0.859840 0.190770
v -0.540365 0.859840 0.046543
v -0.396138 0.859840 -0.013198
v -0.251911 0.859840 0.046543
v -0.195675 0.886235 0.190770
v -0.254389 0.886235 0.332519
v -0.396138 0.886235 0.391233
v -0.537887 0.886235 0.332519
v -0.596601 0.886235 0.190770
v -0.537887 0.886235 0.049021
v -0.396138 0.886235 -0.009693
v -0.254389 0.886235 0.049021
v -0.206324 0.910832 0.190770
v -0.261920 0.910832 0.324989
v -0.396138 0.910832 0.380584
v -0.530357 0.910832 0.324989
v -0.585952 0.910832 0.190770
v -0.530357 0.910832 0.056552
v -0.396138 0.910832 0.000956
v -0.261920 0.910832 0.056552
v -0.224622 0.931954 0.190770
v -0.274858 0.931954 0.312050
v -0.396138 0.931954 0.362286
v -0.517418 0.931954 0.312050
v -0.567654 0.931954 0.190770
v -0.517418 0.931954 0.069490
v -0.396138 0.931954 0.019254
v -0.274858 0.931954 0.069490
v -0.251911 0.948161 0.190770
v -0.294154 0.948161 0.292754
v -0.396138 0.948161 0.334997
v -0.498122 0.948161 0.292754
v -0.540365 0.948161 0.190770
v -0.498122 0.948161 0.088786
v -0.396138 0.948161 0.046543
v -0.294154 0.948161 0.088786
v -0.292371 0.958349 0.190770
v -0.322764 0.958349 0.264145
v -0.396138 0.958349 0.294537
v -0.469513 0.958349 0.264145
v -0.499905 0.958349 0.190770
v -0.469513 0.958349 0.117396
v -0.396138 0.958349 0.087003
v -0.322764 0.958349 0.117396
v -0.396138 0.961824 0.190770
v -0.396138 0.859840 0.190770
v -0.153412 0.835645 -0.169775
v -0.211735 0.835645 -0.028969
v -0.352541 0.835645 0.029354
v -0.493346 0.835645 -0.028969
v -0.551670 0.835645 -0.169775
v -0.493346 0.835645 -0.310580
v -0.352541 0.835645 -0.368904
v -0.211735 0.835645 -0.310580
v -0.156834 0.861415 -0.169775
v -0.214155 0.861415 -0.031389
v -0.352541 0.861415 0.025932
v -0.490927 0.861415 -0.031389
v -0.548248 0.861415 -0.169775
v -0.490927 0.861415 -0.308161
v -0.352541 0.861415 -0.365482
v -0.214155 0.861415 -0.308161
v -0.167230 0.885428 -0.169775
v -0.221507 0.885428 -0.038740
v -0.352541 0.885428 0.015536
v -0.483575 0.885428 -0.038740
v -0.537851 0.885428 -0.169775
v -0.483575 0.885428 -0.300809
v -0.352541 0.885428 -0.355085
v -0.221507 0.885428 -0.300809
v -0.185094 0.906048 -0.169775
v -0.234138 0.906048 -0.051372
v -0.352541 0.906048 -0.002328
v -0.470944 0.906048 -0.051372
v -0.519988 0.906048 -0.169775
v -0.470944 0.906048 -0.288178
v -0.352541 0.906048 -0.337222
v -0.234138 0.906048 -0.288178
v -0.211735 0.921871 -0.169775
v -0.252976 0.921871 -0.070210
v -0.352541 0.921871 -0.028969
v -0.452106 0.921871 -0.070210
v -0.493346 0.921871 -0.169775
v -0.452106 0.921871 -0.269339
v -0.352541 0.921871 -0.310580
v -0.252976 0.921871 -0.269339
v -0.251236 0.931817 -0.169775
v -0.280907 0.931817 -0.098141
v -0.352541 0.931817 -0.068469
v -0.424175 0.931817 -0.098141
v -0.453846 0.931817 -0.169775
v -0.424175 0.931817 -0.241409
v -0.352541 0.931817 -0.271080
v -0.280907 0.931817 -0.241409
v -0.352541 0.935210 -0.169775
v -0.352541 0.835645 -0.169775
v 0.114280 0.826582 -0.363808
v 0.056487 0.826582 -0.224284
v -0.083037 0.826582 -0.166491
v -0.222560 0.826582 -0.224284
v -0.280353 0.826582 -0.363808
v -0.222560 0.826582 -0.503331
v -0.083037 0.826582 -0.561124
v 0.056487 0.826582 -0.503331
v 0.110889 0.852116 -0.363808
v 0.054089 0.852116 -0.226682
v -0.083037 0.852116 -0.169882
v -0.220163 0.852116 -0.226682
v -0.276962 0.852116 -0.363808
v -0.220163 0.852116 -0.500934
v -0.083037 0.852116 -0.557733
v 0.054089 0.852116 -0.500934
v 0.100587 0.875911 -0.363808
v 0.046805 0.875911 -0.233966
v -0.083037 0.875911 -0.180184
v -0.212878 0.875911 -0.233966
v -0.266660 0.875911 -0.363808
v -0.212878 0.875911 -0.493649
v -0.083037 0.875911 -0.547431
v 0.046805 0.875911 -0.493649
v 0.082886 0.896344 -0.363808
v 0.034288 0.896344 -0.246483
v -0.083037 0.896344 -0.197885
v -0.200362 0.896344 -0.246483
v -0.248959 0.896344 -0.363808
v -0.200362 0.896344 -0.481133
v -0.083037 0.896344 -0.529730
v 0.034288 0.896344 -0.481133
v 0.056487 0.912022 -0.363808
v 0.015621 0.912022 -0.265149
v -0.083037 0.912022 -0.224284
v -0.181695 0.912022 -0.265149
v -0.222560 0.912022 -0.363808
v -0.181695 0.912022 -0.462466
v -0.083037 0.912022 -0.503331
v 0.015621 0.912022 -0.462466
v 0.017347 0.921878 -0.363808
v -0.012055 0.921878 -0.292826
v -0.083037 0.921878 -0.263424
v -0.154018 0.921878 -0.292826
v -0.183420 0.921878 -0.363808
v -0.154018 0.921878 -0.434789
v -0.083037 0.921878 -0.464191
v -0.012055 0.921878 -0.434789
v -0.083037 0.925240 -0.363808
v -0.083037 0.826582 -0.363808
v 0.484330 0.864143 -0.350484
v 0.424337 0.864143 -0.205648
v 0.279502 0.864143 -0.145655
v 0.134666 0.864143 -0.205648
v 0.074673 0.864143 -0.350484
v 0.134666 0.864143 -0.495320
v 0.279502 0.864143 -0.555313
v 0.424337 0.864143 -0.495320
v 0.480810 0.890650 -0.350484
v 0.421848 0.890650 -0.208137
v 0.279502 0.890650 -0.149175
v 0.137155 0.890650 -0.208137
v 0.078193 0.890650 -0.350484
v 0.137155 0.890650 -0.492831
v 0.279502 0.890650 -0.551793
v 0.421848 0.890650 -0.492831
v 0.470116 0.915350 -0.350484
v 0.414286 0.915350 -0.215699
v 0.279502 0.915350 -0.159869
v 0.144717 0.915350 -0.215699
v 0.088887 0.915350 -0.350484
v 0.144717 0.915350 -0.485269
v 0.279502 0.915350 -0.541098
v 0.414286 0.915350 -0.485269
v 0.451741 0.936561 -0.350484
v 0.401293 0.936561 -0.228692
v 0.279502 0.936561 -0.178244
v 0.157710 0.936561 -0.228692
v 0.107262 0.936561 -0.350484
v 0.157710 0.936561 -0.472276
v 0.279502 0.936561 -0.522724
v 0.401293 0.936561 -0.472276
v 0.424337 0.952836 -0.350484
v 0.381916 0.952836 -0.248070
v 0.279502 0.952836 -0.205648
v 0.177087 0.952836 -0.248070
v 0.134666 0.952836 -0.350484
v 0.177087 0.952836 -0.452898
v 0.279502 0.952836 -0.495320
v 0.381916 0.952836 -0.452898
v 0.383707 0.963067 -0.350484
v 0.353186 0.963067 -0.276800
v 0.279502 0.963067 -0.246279
v 0.205818 0.963067 -0.276800
v 0.175297 0.963067 -0.350484
v 0.205818 0.963067 -0.424168
v 0.279502 0.963067 -0.454689
v 0.353186 0.963067 -0.424168
v 0.279502 0.966557 -0.350484
v 0.279502 0.864143 -0.350484
v 0.640000 0.875000 0.000000
v 0.593137 0.875000 0.113137
v 0.480000 0.875000 0.160000
v 0.366863 0.875000 0.113137
v 0.320000 0.875000 0.000000
v 0.366863 0.875000 -0.113137
v 0.480000 0.875000 -0.160000
v 0.593137 0.875000 -0.113137
v 0.640000 0.925000 0.000000
v 0.593137 0.925000 0.113137
v 0.480000 0.925000 0.160000
v 0.366863 0.925000 0.113137
v 0.320000 0.925000 0.000000
v 0.366863 0.925000 -0.113137
v 0.480000 0.925000 -0.160000
v 0.593137 0.925000 -0.113137
v 0.480000 0.875000 0.000000
v 0.480000 0.925000 0.000000
v -0.080000 0.875000 0.415692
v -0.126863 0.875000 0.528829
v -0.240000 0.875000 0.575692
v -0.353137 0.875000 0.528829
v -0.400000 0.875000 0.415692
v -0.353137 0.875000 0.302555
v -0.240000 0.875000 0.255692
v -0.126863 0.875000 0.302555
v -0.080000 0.925000 0.415692
v -0.126863 0.925000 0.528829
v -0.240000 0.925000 0.575692
v -0.353137 0.925000 0.528829
v -0.400000 0.925000 0.415692
v -0.353137 0.925000 0.302555
v -0.240000 0.925000 0.255692
v -0.126863 0.925000 0.302555
v -0.240000 0.875000 0.415692
v -0.240000 0.925000 0.415692
v -0.080000 0.875000 -0.415692
v -0.126863 0.875000 -0.302555
v -0.240000 0.875000 -0.255692
v -0.353137 0.875000 -0.302555
v -0.400000 0.875000 -0.415692
v -0.353137 0.875000 -0.528829
v -0.240000 0.875000 -0.575692
v -0.126863 0.875000 -0.528829
v -0.080000 0.925000 -0.415692
v -0.126863 0.925000 -0.302555
v -0.240000 0.925000 -0.255692
v -0.353137 0.925000 -0.302555
v -0.400000 0.925000 -0.415692
v -0.353137 0.925000 -0.528829
v -0.240000 0.925000 -0.575692
v -0.126863 0.925000 -0.528829
v -0.240000 0.875000 -0.415692
v -0.240000 0.925000 -0.415692
v -0.603658 1.234808 0.100000
v -0.601131 1.210756 0.133287
v -0.597040 1.171840 0.120572
v -0.597040 1.171840 0.079428
v -0.601131 1.210756 0.066713
v -2.095441 1.078016 0.100000
v -2.092913 1.053964 0.133287
v -2.088823 1.015047 0.120572
v -2.088823 1.015047 0.079428
v -2.092913 1.053964 0.066713
v -0.600000 1.200000 0.100000
v -2.091783 1.043207 0.100000
v -0.603658 1.234808 -0.100000
v -0.601131 1.210756 -0.066713
v -0.597040 1.171840 -0.079428
v -0.597040 1.171840 -0.120572
v -0.601131 1.210756 -0.133287
v -2.095441 1.078016 -0.100000
v -2.092913 1.053964 -0.066713
v -2.088823 1.015047 -0.079428
v -2.088823 1.015047 -0.120572
v -2.092913 1.053964 -0.133287
v -0.600000 1.200000 -0.100000
v -2.091783 1.043207 -0.100000
vt 0.000000 0.000000
vt 0.050000 0.000000
vt 0.100000 0.000000
vt 0.150000 0.000000
vt 0.200000 0.000000
vt 0.250000 0.000000
vt 0.300000 0.000000
vt 0.350000 0.000000
vt 0.400000 0.000000
vt 0.450000 0.000000
vt 0.500000 0.000000
vt 0.550000 0.000000
vt 0.600000 0.000000
vt 0.650000 0.000000
vt 0.700000 0.000000
vt 0.750000 0.000000
vt 0.800000 0.000000
vt 0.850000 0.000000
vt 0.900000 0.000000
vt 0.950000 0.000000
vt 0.000000 0.071522
vt 0.050000 0.071522
vt 0.100000 0.071522
vt 0.150000 0.071522
vt 0.200000 0.071522
vt 0.250000 0.071522
vt 0.300000 0.071522
vt 0.350000 0.071522
vt 0.400000 0.071522
vt 0.450000 0.071522
vt 0.500000 0.071522
vt 0.550000 0.071522
vt 0.600000 0.071522
vt 0.650000 0.071522
vt 0.700000 0.071522
vt 0.750000 0.071522
vt 0.800000 0.071522
vt 0.850000 0.071522
vt 0.900000 0.071522
vt 0.950000 0.071522
vt 0.000000 0.332328
vt 0.050000 0.332328
vt 0.100000 0.332328
vt 0.150000 0.332328
vt 0.200000 0.332328
vt 0.250000 0.332328
vt 0.300000 0.332328
vt 0.350000 0.332328
vt 0.400000 0.332328
vt 0.450000 0.332328
vt 0.500000 0.332328
vt 0.550000 0.332328
vt 0.600000 0.332328
vt 0.650000 0.332328
vt 0.700000 0.332328
vt 0.750000 0.332328
vt 0.800000 0.332328
vt 0.850000 0.332328
vt 0.900000 0.332328
vt 0.950000 0.332328
vt 0.000000 0.500249
vt 0.050000 0.500249
vt 0.100000 0.500249
vt 0.150000 0.500249
vt 0.200000 0.500249
vt 0.250000 0.500249
vt 0.300000 0.500249
vt 0.350000 0.500249
vt 0.400000 0.500249
vt 0.450000 0.500249
vt 0.500000 0.500249
vt 0.550000 0.500249
vt 0.600000 0.500249
vt 0.650000 0.500249
vt 0.700000 0.500249
vt 0.750000 0.500249
vt 0.800000 0.500249
vt 0.850000 0.500249
vt 0.900000 0.500249
vt 0.950000 0.500249
vt 0.000000 0.539120
vt 0.050000 0.539120
vt 0.100000 0.539120
vt 0.150000 0.539120
vt 0.200000 0.539120
vt 0.250000 0.539120
vt 0.300000 0.539120
vt 0.350000 0.539120
vt 0.400000 0.539120
vt 0.450000 0.539120
vt 0.500000 0.539120
vt 0.550000 0.539120
vt 0.600000 0.539120
vt 0.650000 0.539120
vt 0.700000 0.539120
vt 0.750000 0.539120
vt 0.800000 0.539120
vt 0.850000 0.539120
vt 0.900000 0.539120
vt 0.950000 0.539120
vt 0.000000 0.742004
vt 0.050000 0.742004
vt 0.100000 0.742004
vt 0.150000 0.742004
vt 0.200000 0.742004
vt 0.250000 0.742004
vt 0.300000 0.742004
vt 0.350000 0.742004
vt 0.400000 0.742004
vt 0.450000 0.742004
vt 0.500000 0.742004
vt 0.550000 0.742004
vt 0.600000 0.742004
vt 0.650000 0.742004
vt 0.700000 0.742004
vt 0.750000 0.742004
vt 0.800000 0.742004
vt 0.850000 0.742004
vt 0.900000 0.742004
vt 0.950000 0.742004
vt 0.000000 0.953541
vt 0.050000 0.953541
vt 0.100000 0.953541
vt 0.150000 0.953541
vt 0.200000 0.953541
vt 0.250000 0.953541
vt 0.300000 0.953541
vt 0.350000 0.953541
vt 0.400000 0.953541
vt 0.450000 0.953541
vt 0.500000 0.953541
vt 0.550000 0.953541
vt 0.600000 0.953541
vt 0.650000 0.953541
vt 0.700000 0.953541
vt 0.750000 0.953541
vt 0.800000 0.953541
vt 0.850000 0.953541
vt 0.900000 0.953541
vt 0.950000 0.953541
vt 0.000000 0.979582
vt 0.050000 0.979582
vt 0.100000 0.979582
vt 0.150000 0.979582
vt 0.200000 0.979582
vt 0.250000 0.979582
vt 0.300000 0.979582
vt 0.350000 0.979582
vt 0.400000 0.979582
vt 0.450000 0.979582
vt 0.500000 0.979582
vt 0.550000 0.979582
vt 0.600000 0.979582
vt 0.650000 0.979582
vt 0.700000 0.979582
vt 0.750000 0.979582
vt 0.800000 0.979582
vt 0.850000 0.979582
vt 0.900000 0.979582
vt 0.950000 0.979582
vt 0.000000 1.000000
vt 0.050000 1.000000
vt 0.100000 1.000000
vt 0.150000 1.000000
vt 0.200000 1.000000
vt 0.250000 1.000000
vt 0.300000 1.000000
vt 0.350000 1.000000
vt 0.400000 1.000000
vt 0.450000 1.000000
vt 0.500000 1.000000
vt 0.550000 1.000000
vt 0.600000 1.000000
vt 0.650000 1.000000
vt 0.700000 1.000000
vt 0.750000 1.000000
vt 0.800000 1.000000
vt 0.850000 1.000000
vt 0.900000 1.000000
vt 0.950000 1.000000
vt 0.000000 0.000000
vt 0.050000 0.000000
vt 0.100000 0.000000
vt 0.150000 0.000000
vt 0.200000 0.000000
vt 0.250000 0.000000
vt 0.300000 0.000000
vt 0.350000 0.000000
vt 0.400000 0.000000
vt 0.450000 0.000000
vt 0.500000 0.000000
vt 0.550000 0.000000
vt 0.600000 0.000000
vt 0.650000 0.000000
vt 0.700000 0.000000
vt 0.750000 0.000000
vt 0.800000 0.000000
vt 0.850000 0.000000
vt 0.900000 0.000000
vt 0.950000 0.000000
vt 0.000000 1.000000
vt 0.050000 1.000000
vt 0.100000 1.000000
vt 0.150000 1.000000
vt 0.200000 1.000000
vt 0.250000 1.000000
vt 0.300000 1.000000
vt 0.350000 1.000000
vt 0.400000 1.000000
vt 0.450000 1.000000
vt 0.500000 1.000000
vt 0.550000 1.000000
vt 0.600000 1.000000
vt 0.650000 1.000000
vt 0.700000 1.000000
vt 0.750000 1.000000
vt 0.800000 1.000000
vt 0.850000 1.000000
vt 0.900000 1.000000
vt 0.950000 1.000000
vt 0.500000 0.000000
vt 0.500000 1.000000
vt 0.000000 0.000000
vt 0.125000 0.000000
vt 0.250000 0.000000
vt 0.375000 0.000000
vt 0.500000 0.000000
vt 0.625000 0.000000
vt 0.750000 0.000000
vt 0.875000 0.000000
vt 0.000000 0.102942
vt 0.125000 0.102942
vt 0.250000 0.102942
vt 0.375000 0.102942
vt 0.500000 0.102942
vt 0.625000 0.102942
vt 0.750000 0.102942
vt 0.875000 0.102942
vt 0.000000 0.206563
vt 0.125000 0.206563
vt 0.250000 0.206563
vt 0.375000 0.206563
vt 0.500000 0.206563
vt 0.625000 0.206563
vt 0.750000 0.206563
vt 0.875000 0.206563
vt 0.000000 0.314600
vt 0.125000 0.314600
vt 0.250000 0.314600
vt 0.375000 0.314600
vt 0.500000 0.314600
vt 0.625000 0.314600
vt 0.750000 0.314600
vt 0.875000 0.314600
vt 0.000000 0.437303
vt 0.125000 0.437303
vt 0.250000 0.437303
vt 0.375000 0.437303
vt 0.500000 0.437303
vt 0.625000 0.437303
vt 0.750000 0.437303
vt 0.875000 0.437303
vt 0.000000 0.598606
vt 0.125000 0.598606
vt 0.250000 0.598606
vt 0.375000 0.598606
vt 0.500000 0.598606
vt 0.625000 0.598606
vt 0.750000 0.598606
vt 0.875000 0.598606
vt 0.000000 1.000000
vt 0.142857 1.000000
vt 0.285714 1.000000
vt 0.428571 1.000000
vt 0.571429 1.000000
vt 0.714286 1.000000
vt 0.857143 1.000000
vt 1.000000 1.000000
vt 0.500000 0.000000
vt 0.000000 0.000000
vt 0.125000 0.000000
vt 0.250000 0.000000
vt 0.375000 0.000000
vt 0.500000 0.000000
vt 0.625000 0.000000
vt 0.750000 0.000000
vt 0.875000 0.000000
vt 0.000000 0.102942
vt 0.125000 0.102942
vt 0.250000 0.102942
vt 0.375000 0.102942
vt 0.500000 0.102942
vt 0.625000 0.102942
vt 0.750000 0.102942
vt 0.875000 0.102942
vt 0.000000 0.206563
vt 0.125000 0.206563
vt 0.250000 0.206563
vt 0.375000 0.206563
vt 0.500000 0.206563
vt 0.625000 0.206563
vt 0.750000 0.206563
vt 0.875000 0.206563
vt 0.000000 0.314600
vt 0.125000 0.314600
vt 0.250000 0.314600
vt 0.375000 0.314600
vt 0.500000 0.314600
vt 0.625000 0.314600
vt 0.750000 0.314600
vt 0.875000 0.314600
vt 0.000000 0.437303
vt 0.125000 0.437303
vt 0.250000 0.437303
vt 0.375000 0.437303
vt 0.500000 0.437303
vt 0.625000 0.437303
vt 0.750000 0.437303
vt 0.875000 0.437303
vt 0.000000 0.598606
vt 0.125000 0.598606
vt 0.250000 0.598606
vt 0.375000 0.598606
vt 0.500000 0.598606
vt 0.625000 0.598606
vt 0.750000 0.598606
vt 0.875000 0.598606
vt 0.000000 1.000000
vt 0.142857 1.000000
vt 0.285714 1.000000
vt 0.428571 1.000000
vt 0.571429 1.000000
vt 0.714286 1.000000
vt 0.857143 1.000000
vt 1.000000 1.000000
vt 0.500000 0.000000
vt 0.000000 0.000000
vt 0.125000 0.000000
vt 0.250000 0.000000
vt 0.375000 0.000000
vt 0.500000 0.000000
vt 0.625000 0.000000
vt 0.750000 0.000000
vt 0.875000 0.000000
vt 0.000000 0.102942
vt 0.125000 0.102942
vt 0.250000 0.102942
vt 0.375000 0.102942
vt 0.500000 0.102942
vt 0.625000 0.102942
vt 0.750000 0.102942
vt 0.875000 0.102942
vt 0.000000 0.206563
vt 0.125000 0.206563
vt 0.250000 0.206563
vt 0.375000 0.206563
vt 0.500000 0.206563
vt 0.625000 0.206563
vt 0.750000 0.206563
vt 0.875000 0.206563
vt 0.000000 0.314600
vt 0.125000 0.314600
vt 0.250000 0.314600
vt 0.375000 0.314600
vt 0.500000 0.314600
vt 0.625000 0.314600
vt 0.750000 0.314600
vt 0.875000 0.314600
vt 0.000000 0.437303
vt 0.125000 0.437303
vt 0.250000 0.437303
vt 0.375000 0.437303
vt 0.500000 0.437303
vt 0.625000 0.437303
vt 0.750000 0.437303
vt 0.875000 0.437303
vt 0.000000 0.598606
vt 0.125000 0.598606
vt 0.250000 0.598606
vt 0.375000 0.598606
vt 0.500000 0.598606
vt 0.625000 0.598606
vt 0.750000 0.598606
vt 0.875000 0.598606
vt 0.000000 1.000000
vt 0.142857 1.000000
vt 0.285714 1.000000
vt 0.428571 1.000000
vt 0.571429 1.000000
vt 0.714286 1.000000
vt 0.857143 1.000000
vt 1.000000 1.000000
vt 0.500000 0.000000
vt 0.000000 0.000000
vt 0.125000 0.000000
vt 0.250000 0.000000
vt 0.375000 0.000000
vt 0.500000 0.000000
vt 0.625000 0.000000
vt 0.750000 0.000000
vt 0.875000 0.000000
vt 0.000000 0.102942
vt 0.125000 0.102942
vt 0.250000 0.102942
vt 0.375000 0.102942
vt 0.500000 0.102942
vt 0.625000 0.102942
vt 0.750000 0.102942
vt 0.875000 0.102942
vt 0.000000 0.206563
vt 0.125000 0.206563
vt 0.250000 0.206563
vt 0.375000 0.206563
vt 0.500000 0.206563
vt 0.625000 0.206563
vt 0.750000 0.206563
vt 0.875000 0.206563
vt 0.000000 0.314600
vt 0.125000 0.314600
vt 0.250000 0.314600
vt 0.375000 0.314600
vt 0.500000 0.314600
vt 0.625000 0.314600
vt 0.750000 0.314600
vt 0.875000 0.314600
vt 0.000000 0.437303
vt 0.125000 0.437303
vt 0.250000 0.437303
vt 0.375000 0.437303
vt 0.500000 0.437303
vt 0.625000 0.437303
vt 0.750000 0.437303
vt 0.875000 0.437303
vt 0.000000 0.598606
vt 0.125000 0.598606
vt 0.250000 0.598606
vt 0.375000 0.598606
vt 0.500000 0.598606
vt 0.625000 0.598606
vt 0.750000 0.598606
vt 0.875000 0.598606
vt 0.000000 1.000000
vt 0.142857 1.000000
vt 0.285714 1.000000
vt 0.428571 1.000000
vt 0.571429 1.000000
vt 0.714286 1.000000
vt 0.857143 1.000000
vt 1.000000 1.000000
vt 0.500000 0.000000
vt 0.000000 0.000000
vt 0.125000 0.000000
vt 0.250000 0.000000
vt 0.375000 0.000000
vt 0.500000 0.000000
vt 0.625000 0.000000
vt 0.750000 0.000000
vt 0.875000 0.000000
vt 0.000000 0.102942
vt 0.125000 0.102942
vt 0.250000 0.102942
vt 0.375000 0.102942
vt 0.500000 0.102942
vt 0.625000 0.102942
vt 0.750000 0.102942
vt 0.875000 0.102942
vt 0.000000 0.206563
vt 0.125000 0.206563
vt 0.250000 0.206563
vt 0.375000 0.206563
vt 0.500000 0.206563
vt 0.625000 0.206563
vt 0.750000 0.206563
vt 0.875000 0.206563
vt 0.000000 0.314600
vt 0.125000 0.314600
vt 0.250000 0.314600
vt 0.375000 0.314600
vt 0.500000 0.314600
vt 0.625000 0.314600
vt 0.750000 0.314600
vt 0.875000 0.314600
vt 0.000000 0.437303
vt 0.125000 0.437303
vt 0.250000 0.437303
vt 0.375000 0.437303
vt 0.500000 0.437303
vt 0.625000 0.437303
vt 0.750000 0.437303
vt 0.875000 0.437303
vt 0.000000 0.598606
vt 0.125000 0.598606
vt 0.250000 0.598606
vt 0.375000 0.598606
vt 0.500000 0.598606
vt 0.625000 0.598606
vt 0.750000 0.598606
vt 0.875000 0.598606
vt 0.000000 1.000000
vt 0.142857 1.000000
vt 0.285714 1.000000
vt 0.428571 1.000000
vt 0.571429 1.000000
vt 0.714286 1.000000
vt 0.857143 1.000000
vt 1.000000 1.000000
vt 0.500000 0.000000
vt 0.000000 0.000000
vt 0.125000 0.000000
vt 0.250000 0.000000
vt 0.375000 0.000000
vt 0.500000 0.000000
vt 0.625000 0.000000
vt 0.750000 0.000000
vt 0.875000 0.000000
vt 0.000000 0.102942
vt 0.125000 0.102942
vt 0.250000 0.102942
vt 0.375000 0.102942
vt 0.500000 0.102942
vt 0.625000 0.102942
vt 0.750000 0.102942
vt 0.875000 0.102942
vt 0.000000 0.206563
vt 0.125000 0.206563
vt 0.250000 0.206563
vt 0.375000 0.206563
vt 0.500000 0.206563
vt 0.625000 0.206563
vt 0.750000 0.206563
vt 0.875000 0.206563
vt 0.000000 0.314600
vt 0.125000 0.314600
vt 0.250000 0.314600
vt 0.375000 0.314600
vt 0.500000 0.314600
vt 0.625000 0.314600
vt 0.750000 0.314600
vt 0.875000 0.314600
vt 0.000000 0.437303
vt 0.125000 0.437303
vt 0.250000 0.437303
vt 0.375000 0.437303
vt 0.500000 0.437303
vt 0.625000 0.437303
vt 0.750000 0.437303
vt 0.875000 0.437303
vt 0.000000 0.598606
vt 0.125000 0.598606
vt 0.250000 0.598606
vt 0.375000 0.598606
vt 0.500000 0.598606
vt 0.625000 0.598606
vt 0.750000 0.598606
vt 0.875000 0.598606
vt 0.000000 1.000000
vt 0.142857 1.000000
vt 0.285714 1.000000
vt 0.428571 1.000000
vt 0.571429 1.000000
vt 0.714286 1.000000
vt 0.857143 1.000000
vt 1.000000 1.000000
vt 0.500000 0.000000
vt 0.000000 0.000000
vt 0.125000 0.000000
vt 0.250000 0.000000
vt 0.375000 0.000000
vt 0.500000 0.000000
vt 0.625000 0.000000
vt 0.750000 0.000000
vt 0.875000 0.000000
vt 0.000000 0.102942
vt 0.125000 0.102942
vt 0.250000 0.102942
vt 0.375000 0.102942
vt 0.500000 0.102942
vt 0.625000 0.102942
vt 0.750000 0.102942
vt 0.875000 0.102942
vt 0.000000 0.206563
vt 0.125000 0.206563
vt 0.250000 0.206563
vt 0.375000 0.206563
vt 0.500000 0.206563
vt 0.625000 0.206563
vt 0.750000 0.206563
vt 0.875000 0.206563
vt 0.000000 0.314600
vt 0.125000 0.314600
vt 0.250000 0.314600
vt 0.375000 0.314600
vt 0.500000 0.314600
vt 0.625000 0.314600
vt 0.750000 0.314600
vt 0.875000 0.314600
vt 0.000000 0.437303
vt 0.125000 0.437303
vt 0.250000 0.437303
vt 0.375000 0.437303
vt 0.500000 0.437303
vt 0.625000 0.437303
vt 0.750000 0.437303
vt 0.875000 0.437303
vt 0.000000 0.598606
vt 0.125000 0.598606
vt 0.250000 0.598606
vt 0.375000 0.598606
vt 0.500000 0.598606
vt 0.625000 0.598606
vt 0.750000 0.598606
vt 0.875000 0.598606
vt 0.000000 1.000000
vt 0.142857 1.000000
vt 0.285714 1.000000
vt 0.428571 1.000000
vt 0.571429 1.000000
vt 0.714286 1.000000
vt 0.857143 1.000000
vt 1.000000 1.000000
vt 0.500000 0.000000
vt 0.000000 0.000000
vt 0.125000 0.000000
vt 0.250000 0.000000
vt 0.375000 0.000000
vt 0.500000 0.000000
vt 0.625000 0.000000
vt 0.750000 0.000000
vt 0.875000 0.000000
vt 0.000000 1.000000
vt 0.125000 1.000000
vt 0.250000 1.000000
vt 0.375000 1.000000
vt 0.500000 1.000000
vt 0.625000 1.000000
vt 0.750000 1.000000
vt 0.875000 1.000000
vt 0.500000 0.000000
vt 0.500000 1.000000
vt 0.000000 0.000000
vt 0.125000 0.000000
vt 0.250000 0.000000
vt 0.375000 0.000000
vt 0.500000 0.000000
vt 0.625000 0.000000
vt 0.750000 0.000000
vt 0.875000 0.000000
vt 0.000000 1.000000
vt 0.125000 1.000000
vt 0.250000 1.000000
vt 0.375000 1.000000
vt 0.500000 1.000000
vt 0.625000 1.000000
vt 0.750000 1.000000
vt 0.875000 1.000000
vt 0.500000 0.000000
vt 0.500000 1.000000
vt 0.000000 0.000000
vt 0.125000 0.000000
vt 0.250000 0.000000
vt 0.375000 0.000000
vt 0.500000 0.000000
vt 0.625000 0.000000
vt 0.750000 0.000000
vt 0.875000 0.000000
vt 0.000000 1.000000
vt 0.125000 1.000000
vt 0.250000 1.000000
vt 0.375000 1.000000
vt 0.500000 1.000000
vt 0.625000 1.000000
vt 0.750000 1.000000
vt 0.875000 1.000000
vt 0.500000 0.000000
vt 0.500000 1.000000
vt 0.000000 0.000000
vt 0.200000 0.000000
vt 0.400000 0.000000
vt 0.600000 0.000000
vt 0.800000 0.000000
vt 0.000000 1.000000
vt 0.200000 1.000000
vt 0.400000 1.000000
vt 0.600000 1.000000
vt 0.800000 1.000000
vt 0.500000 0.000000
vt 0.500000 1.000000
vt 0.000000 0.000000
vt 0.200000 0.000000
vt 0.400000 0.000000
vt 0.600000 0.000000
vt 0.800000 0.000000
vt 0.000000 1.000000
vt 0.200000 1.000000
vt 0.400000 1.000000
vt 0.600000 1.000000
vt 0.800000 1.000000
vt 0.500000 0.000000
vt 0.500000 1.000000
usemtl old_limestone
f 1/1 2/2 22/22 21/21
f 2/2 3/3 23/23 22/22
f 3/3 4/4 24/24 23/23
f 4/4 5/5 25/25 24/24
f 5/5 6/6 26/26 25/25
f 6/6 7/7 27/27 26/26
f 7/7 8/8 28/28 27/27
f 8/8 9/9 29/29 28/28
f 9/9 10/10 30/30 29/29
f 10/10 11/11 31/31 30/30
f 11/11 12/12 32/32 31/31
f 12/12 13/13 33/33 32/32
f 13/13 14/14 34/34 33/33
f 14/14 15/15 35/35 34/34
f 15/15 16/16 36/36 35/35
f 16/16 17/17 37/37 36/36
f 17/17 18/18 38/38 37/37
f 18/18 19/19 39/39 38/38
f 19/19 20/20 40/40 39/39
f 20/20 1/1 21/21 40/40
f 21/21 22/22 42/42 41/41
f 22/22 23/23 43/43 42/42
f 23/23 24/24 44/44 43/43
f 24/24 25/25 45/45 44/44
f 25/25 26/26 46/46 45/45
f 26/26 27/27 47/47 46/46
f 27/27 28/28 48/48 47/47
f 28/28 29/29 49/49 48/48
f 29/29 30/30 50/50 49/49
f 30/30 31/31 51/51 50/50
f 31/31 32/32 52/52 51/51
f 32/32 33/33 53/53 52/52
f 33/33 34/34 54/54 53/53
f 34/34 35/35 55/55 54/54
f 35/35 36/36 56/56 55/55
f 36/36 37/37 57/57 56/56
f 37/37 38/38 58/58 57/57
f 38/38 39/39 59/59 58/58
f 39/39 40/40 60/60 59/59
f 40/40 21/21 41/41 60/60
f 41/41 42/42 62/62 61/61
f 42/42 43/43 63/63 62/62
f 43/43 44/44 64/64 63/63
f 44/44 45/45 65/65 64/64
f 45/45 46/46 66/66 65/65
f 46/46 47/47 67/67 66/66
f 47/47 48/48 68/68 67/67
f 48/48 49/49 69/69 68/68
f 49/49 50/50 70/70 69/69
f 50/50 51/51 71/71 70/70
f 51/51 52/52 72/72 71/71
f 52/52 53/53 73/73 72/72
f 53/53 54/54 74/74 73/73
f 54/54 55/55 75/75 74/74
f 55/55 56/56 76/76 75/75
f 56/56 57/57 77/77 76/76
f 57/57 58/58 78/78 77/77
f 58/58 59/59 79/79 78/78
f 59/59 60/60 80/80 79/79
f 60/60 41/41 61/61 80/80
f 61/61 62/62 82/82 81/81
f 62/62 63/63 83/83 82/82
f 63/63 64/64 84/84 83/83
f 64/64 65/65 85/85 84/84
f 65/65 66/66 86/86 85/85
f 66/66 67/67 87/87 86/86
f 67/67 68/68 88/88 87/87
f 68/68 69/69 89/89 88/88
f 69/69 70/70 90/90 89/89
f 70/70 71/71 91/91 90/90
f 71/71 72/72 92/92 91/91
f 72/72 73/73 93/93 92/92
f 73/73 74/74 94/94 93/93
f 74/74 75/75 95/95 94/94
f 75/75 76/76 96/96 95/95
f 76/76 77/77 97/97 96/96
f 77/77 78/78 98/98 97/97
f 78/78 79/79 99/99 98/98
f 79/79 80/80 100/100 99/99
f 80/80 61/61 81/81 100/100
f 81/81 82/82 102/102 101/101
f 82/82 83/83 103/103 102/102
f 83/83 84/84 104/104 103/103
f 84/84 85/85 105/105 104/104
f 85/85 86/86 106/106 105/105
f 86/86 87/87 107/107 106/106
f 87/87 88/88 108/108 107/107
f 88/88 89/89 109/109 108/108
f 89/89 90/90 110/110 109/109
f 90/90 91/91 111/111 110/110
f 91/91 92/92 112/112 111/111
f 92/92 93/93 113/113 112/112
f 93/93 94/94 114/114 113/113
f 94/94 95/95 115/115 114/114
f 95/95 96/96 116/116 115/115
f 96/96 97/97 117/117 116/116
f 97/97 98/98 118/118 117/117
f 98/98 99/99 119/119 118/118
f 99/99 100/100 120/120 119/119
f 100/100 81/81 101/101 120/120
f 101/101 102/102 122/122 121/121
f 102/102 103/103 123/123 122/122
f 103/103 104/104 124/124 123/123
f 104/104 105/105 125/125 124/124
f 105/105 106/106 126/126 125/125
f 106/106 107/107 127/127 126/126
f 107/107 108/108 128/128 127/127
f 108/108 109/109 129/129 128/128
f 109/109 110/110 130/130 129/129
f 110/110 111/111 131/131 130/130
f 111/111 112/112 132/132 131/131
f 112/112 113/113 133/133 132/132
f 113/113 114/114 134/134 133/133
f 114/114 115/115 135/135 134/134
f 115/115 116/116 136/136 135/135
f 116/116 117/117 137/137 136/136
f 117/117 118/118 138/138 137/137
f 118/118 119/119 139/139 138/138
f 119/119 120/120 140/140 139/139
f 120/120 101/101 121/121 140/140
f 121/121 122/122 142/142 141/141
f 122/122 123/123 143/143 142/142
f 123/123 124/124 144/144 143/143
f 124/124 125/125 145/145 144/144
f 125/125 126/126 146/146 145/145
f 126/126 127/127 147/147 146/146
f 127/127 128/128 148/148 147/147
f 128/128 129/129 149/149 148/148
f 129/129 130/130 150/150 149/149
f 130/130 131/131 151/151 150/150
f 131/131 132/132 152/152 151/151
f 132/132 133/133 153/153 152/152
f 133/133 134/134 154/154 153/153
f 134/134 135/135 155/155 154/154
f 135/135 136/136 156/156 155/155
f 136/136 137/137 157/157 156/156
f 137/137 138/138 158/158 157/157
f 138/138 139/139 159/159 158/158
f 139/139 140/140 160/160 159/159
f 140/140 121/121 141/141 160/160
f 141/141 142/142 162/162 161/161
f 142/142 143/143 163/163 162/162
f 143/143 144/144 164/164 163/163
f 144/144 145/145 165/165 164/164
f 145/145 146/146 166/166 165/165
f 146/146 147/147 167/167 166/166
f 147/147 148/148 168/168 167/167
f 148/148 149/149 169/169 168/168
f 149/149 150/150 170/170 169/169
f 150/150 151/151 171/171 170/170
f 151/151 152/152 172/172 171/171
f 152/152 153/153 173/173 172/172
f 153/153 154/154 174/174 173/173
f 154/154 155/155 175/175 174/174
f 155/155 156/156 176/176 175/175
f 156/156 157/157 177/177 176/176
f 157/157 158/158 178/178 177/177
f 158/158 159/159 179/179 178/178
f 159/159 160/160 180/180 179/179
f 160/160 141/141 161/161 180/180
usemtl wet_residue
f 181/181 182/182 202/202 201/201
f 182/182 183/183 203/203 202/202
f 183/183 184/184 204/204 203/203
f 184/184 185/185 205/205 204/204
f 185/185 186/186 206/206 205/205
f 186/186 187/187 207/207 206/206
f 187/187 188/188 208/208 207/207
f 188/188 189/189 209/209 208/208
f 189/189 190/190 210/210 209/209
f 190/190 191/191 211/211 210/210
f 191/191 192/192 212/212 211/211
f 192/192 193/193 213/213 212/212
f 193/193 194/194 214/214 213/213
f 194/194 195/195 215/215 214/214
f 195/195 196/196 216/216 215/215
f 196/196 197/197 217/217 216/216
f 197/197 198/198 218/218 217/217
f 198/198 199/199 219/219 218/218
f 199/199 200/200 220/220 219/219
f 200/200 181/181 201/201 220/220
f 221/221 181/181 182/182
f 221/221 182/182 183/183
f 221/221 183/183 184/184
f 221/221 184/184 185/185
f 221/221 185/185 186/186
f 221/221 186/186 187/187
f 221/221 187/187 188/188
f 221/221 188/188 189/189
f 221/221 189/189 190/190
f 221/221 190/190 191/191
f 221/221 191/191 192/192
f 221/221 192/192 193/193
f 221/221 193/193 194/194
f 221/221 194/194 195/195
f 221/221 195/195 196/196
f 221/221 196/196 197/197
f 221/221 197/197 198/198
f 221/221 198/198 199/199
f 221/221 199/199 200/200
f 221/221 200/200 181/181
f 222/222 202/202 201/201
f 222/222 203/203 202/202
f 222/222 204/204 203/203
f 222/222 205/205 204/204
f 222/222 206/206 205/205
f 222/222 207/207 206/206
f 222/222 208/208 207/207
f 222/222 209/209 208/208
f 222/222 210/210 209/209
f 222/222 211/211 210/210
f 222/222 212/212 211/211
f 222/222 213/213 212/212
f 222/222 214/214 213/213
f 222/222 215/215 214/214
f 222/222 216/216 215/215
f 222/222 217/217 216/216
f 222/222 218/218 217/217
f 222/222 219/219 218/218
f 222/222 220/220 219/219
f 222/222 201/201 220/220
usemtl old_limestone
f 223/223 224/224 232/232 231/231
f 224/224 225/225 233/233 232/232
f 225/225 226/226 234/234 233/233
f 226/226 227/227 235/235 234/234
f 227/227 228/228 236/236 235/235
f 228/228 229/229 237/237 236/236
f 229/229 230/230 238/238 237/237
f 230/230 223/223 231/231 238/238
f 231/231 232/232 240/240 239/239
f 232/232 233/233 241/241 240/240
f 233/233 234/234 242/242 241/241
f 234/234 235/235 243/243 242/242
f 235/235 236/236 244/244 243/243
f 236/236 237/237 245/245 244/244
f 237/237 238/238 246/246 245/245
f 238/238 231/231 239/239 246/246
f 239/239 240/240 248/248 247/247
f 240/240 241/241 249/249 248/248
f 241/241 242/242 250/250 249/249
f 242/242 243/243 251/251 250/250
f 243/243 244/244 252/252 251/251
f 244/244 245/245 253/253 252/252
f 245/245 246/246 254/254 253/253
f 246/246 239/239 247/247 254/254
f 247/247 248/248 256/256 255/255
f 248/248 249/249 257/257 256/256
f 249/249 250/250 258/258 257/257
f 250/250 251/251 259/259 258/258
f 251/251 252/252 260/260 259/259
f 252/252 253/253 261/261 260/260
f 253/253 254/254 262/262 261/261
f 254/254 247/247 255/255 262/262
f 255/255 256/256 264/264 263/263
f 256/256 257/257 265/265 264/264
f 257/257 258/258 266/266 265/265
f 258/258 259/259 267/267 266/266
f 259/259 260/260 268/268 267/267
f 260/260 261/261 269/269 268/268
f 261/261 262/262 270/270 269/269
f 262/262 255/255 263/263 270/270
f 263/263 264/264 271/271
f 264/264 265/265 271/272
f 265/265 266/266 271/273
f 266/266 267/267 271/274
f 267/267 268/268 271/275
f 268/268 269/269 271/276
f 269/269 270/270 271/277
f 270/270 263/263 271/278
f 272/279 223/223 224/224
f 272/279 224/224 225/225
f 272/279 225/225 226/226
f 272/279 226/226 227/227
f 272/279 227/227 228/228
f 272/279 228/228 229/229
f 272/279 229/229 230/230
f 272/279 230/230 223/223
f 273/280 274/281 282/289 281/288
f 274/281 275/282 283/290 282/289
f 275/282 276/283 284/291 283/290
f 276/283 277/284 285/292 284/291
f 277/284 278/285 286/293 285/292
f 278/285 279/286 287/294 286/293
f 279/286 280/287 288/295 287/294
f 280/287 273/280 281/288 288/295
f 281/288 282/289 290/297 289/296
f 282/289 283/290 291/298 290/297
f 283/290 284/291 292/299 291/298
f 284/291 285/292 293/300 292/299
f 285/292 286/293 294/301 293/300
f 286/293 287/294 295/302 294/301
f 287/294 288/295 296/303 295/302
f 288/295 281/288 289/296 296/303
f 289/296 290/297 298/305 297/304
f 290/297 291/298 299/306 298/305
f 291/298 292/299 300/307 299/306
f 292/299 293/300 301/308 300/307
f 293/300 294/301 302/309 301/308
f 294/301 295/302 303/310 302/309
f 295/302 296/303 304/311 303/310
f 296/303 289/296 297/304 304/311
f 297/304 298/305 306/313 305/312
f 298/305 299/306 307/314 306/313
f 299/306 300/307 308/315 307/314
f 300/307 301/308 309/316 308/315
f 301/308 302/309 310/317 309/316
f 302/309 303/310 311/318 310/317
f 303/310 304/311 312/319 311/318
f 304/311 297/304 305/312 312/319
f 305/312 306/313 314/321 313/320
f 306/313 307/314 315/322 314/321
f 307/314 308/315 316/323 315/322
f 308/315 309/316 317/324 316/323
f 309/316 310/317 318/325 317/324
f 310/317 311/318 319/326 318/325
f 311/318 312/319 320/327 319/326
f 312/319 305/312 313/320 320/327
f 313/320 314/321 321/328
f 314/321 315/322 321/329
f 315/322 316/323 321/330
f 316/323 317/324 321/331
f 317/324 318/325 321/332
f 318/325 319/326 321/333
f 319/326 320/327 321/334
f 320/327 313/320 321/335
f 322/336 273/280 274/281
f 322/336 274/281 275/282
f 322/336 275/282 276/283
f 322/336 276/283 277/284
f 322/336 277/284 278/285
f 322/336 278/285 279/286
f 322/336 279/286 280/287
f 322/336 280/287 273/280
f 323/337 324/338 332/346 331/345
f 324/338 325/339 333/347 332/346
f 325/339 326/340 334/348 333/347
f 326/340 327/341 335/349 334/348
f 327/341 328/342 336/350 335/349
f 328/342 329/343 337/351 336/350
f 329/343 330/344 338/352 337/351
f 330/344 323/337 331/345 338/352
f 331/345 332/346 340/354 339/353
f 332/346 333/347 341/355 340/354
f 333/347 334/348 342/356 341/355
f 334/348 335/349 343/357 342/356
f 335/349 336/350 344/358 343/357
f 336/350 337/351 345/359 344/358
f 337/351 338/352 346/360 345/359
f 338/352 331/345 339/353 346/360
f 339/353 340/354 348/362 347/361
f 340/354 341/355 349/363 348/362
f 341/355 342/356 350/364 349/363
f 342/356 343/357 351/365 350/364
f 343/357 344/358 352/366 351/365
f 344/358 345/359 353/367 352/366
f 345/359 346/360 354/368 353/367
f 346/360 339/353 347/361 354/368
f 347/361 348/362 356/370 355/369
f 348/362 349/363 357/371 356/370
f 349/363 350/364 358/372 357/371
f 350/364 351/365 359/373 358/372
f 351/365 352/366 360/374 359/373
f 352/366 353/367 361/375 360/374
f 353/367 354/368 362/376 361/375
f 354/368 347/361 355/369 362/376
f 355/369 356/370 364/378 363/377
f 356/370 357/371 365/379 364/378
f 357/371 358/372 366/380 365/379
f 358/372 359/373 367/381 366/380
f 359/373 360/374 368/382 367/381
f 360/374 361/375 369/383 368/382
f 361/375 362/376 370/384 369/383
f 362/376 355/369 363/377 370/384
f 363/377 364/378 371/385
f 364/378 365/379 371/386
f 365/379 366/380 371/387
f 366/380 367/381 371/388
f 367/381 368/382 371/389
f 368/382 369/383 371/390
f 369/383 370/384 371/391
f 370/384 363/377 371/392
f 372/393 323/337 324/338
f 372/393 324/338 325/339
f 372/393 325/339 326/340
f 372/393 326/340 327/341
f 372/393 327/341 328/342
f 372/393 328/342 329/343
f 372/393 329/343 330/344
f 372/393 330/344 323/337
f 373/394 374/395 382/403 381/402
f 374/395 375/396 383/404 382/403
f 375/396 376/397 384/405 383/404
f 376/397 377/398 385/406 384/405
f 377/398 378/399 386/407 385/406
f 378/399 379/400 387/408 386/407
f 379/400 380/401 388/409 387/408
f 380/401 373/394 381/402 388/409
f 381/402 382/403 390/411 389/410
f 382/403 383/404 391/412 390/411
f 383/404 384/405 392/413 391/412
f 384/405 385/406 393/414 392/413
f 385/406 386/407 394/415 393/414
f 386/407 387/408 395/416 394/415
f 387/408 388/409 396/417 395/416
f 388/409 381/402 389/410 396/417
f 389/410 390/411 398/419 397/418
f 390/411 391/412 399/420 398/419
f 391/412 392/413 400/421 399/420
f 392/413 393/414 401/422 400/421
f 393/414 394/415 402/423 401/422
f 394/415 395/416 403/424 402/423
f 395/416 396/417 404/425 403/424
f 396/417 389/410 397/418 404/425
f 397/418 398/419 406/427 405/426
f 398/419 399/420 407/428 406/427
f 399/420 400/421 408/429 407/428
f 400/421 401/422 409/430 408/429
f 401/422 402/423 410/431 409/430
f 402/423 403/424 411/432 410/431
f 403/424 404/425 412/433 411/432
f 404/425 397/418 405/426 412/433
f 405/426 406/427 414/435 413/434
f 406/427 407/428 415/436 414/435
f 407/428 408/429 416/437 415/436
f 408/429 409/430 417/438 416/437
f 409/430 410/431 418/439 417/438
f 410/431 411/432 419/440 418/439
f 411/432 412/433 420/441 419/440
f 412/433 405/426 413/434 420/441
f 413/434 414/435 421/442
f 414/435 415/436 421/443
f 415/436 416/437 421/444
f 416/437 417/438 421/445
f 417/438 418/439 421/446
f 418/439 419/440 421/447
f 419/440 420/441 421/448
f 420/441 413/434 421/449
f 422/450 373/394 374/395
f 422/450 374/395 375/396
f 422/450 375/396 376/397
f 422/450 376/397 377/398
f 422/450 377/398 378/399
f 422/450 378/399 379/400
f 422/450 379/400 380/401
f 422/450 380/401 373/394
f 423/451 424/452 432/460 431/459
f 424/452 425/453 433/461 432/460
f 425/453 426/454 434/462 433/461
f 426/454 427/455 435/463 434/462
f 427/455 428/456 436/464 435/463
f 428/456 429/457 437/465 436/464
f 429/457 430/458 438/466 437/465
f 430/458 423/451 431/459 438/466
f 431/459 432/460 440/468 439/467
f 432/460 433/461 441/469 440/468
f 433/461 434/462 442/470 441/469
f 434/462 435/463 443/471 442/470
f 435/463 436/464 444/472 443/471
f 436/464 437/465 445/473 444/472
f 437/465 438/466 446/474 445/473
f 438/466 431/459 439/467 446/474
f 439/467 440/468 448/476 447/475
f 440/468 441/469 449/477 448/476
f 441/469 442/470 450/478 449/477
f 442/470 443/471 451/479 450/478
f 443/471 444/472 452/480 451/479
f 444/472 445/473 453/481 452/480
f 445/473 446/474 454/482 453/481
f 446/474 439/467 447/475 454/482
f 447/475 448/476 456/484 455/483
f 448/476 449/477 457/485 456/484
f 449/477 450/478 458/486 457/485
f 450/478 451/479 459/487 458/486
f 451/479 452/480 460/488 459/487
f 452/480 453/481 461/489 460/488
f 453/481 454/482 462/490 461/489
f 454/482 447/475 455/483 462/490
f 455/483 456/484 464/492 463/491
f 456/484 457/485 465/493 464/492
f 457/485 458/486 466/494 465/493
f 458/486 459/487 467/495 466/494
f 459/487 460/488 468/496 467/495
f 460/488 461/489 469/497 468/496
f 461/489 462/490 470/498 469/497
f 462/490 455/483 463/491 470/498
f 463/491 464/492 471/499
f 464/492 465/493 471/500
f 465/493 466/494 471/501
f 466/494 467/495 471/502
f 467/495 468/496 471/503
f 468/496 469/497 471/504
f 469/497 470/498 471/505
f 470/498 463/491 471/506
f 472/507 423/451 424/452
f 472/507 424/452 425/453
f 472/507 425/453 426/454
f 472/507 426/454 427/455
f 472/507 427/455 428/456
f 472/507 428/456 429/457
f 472/507 429/457 430/458
f 472/507 430/458 423/451
f 473/508 474/509 482/517 481/516
f 474/509 475/510 483/518 482/517
f 475/510 476/511 484/519 483/518
f 476/511 477/512 485/520 484/519
f 477/512 478/513 486/521 485/520
f 478/513 479/514 487/522 486/521
f 479/514 480/515 488/523 487/522
f 480/515 473/508 481/516 488/523
f 481/516 482/517 490/525 489/524
f 482/517 483/518 491/526 490/525
f 483/518 484/519 492/527 491/526
f 484/519 485/520 493/528 492/527
f 485/520 486/521 494/529 493/528
f 486/521 487/522 495/530 494/529
f 487/522 488/523 496/531 495/530
f 488/523 481/516 489/524 496/531
f 489/524 490/525 498/533 497/532
f 490/525 491/526 499/534 498/533
f 491/526 492/527 500/535 499/534
f 492/527 493/528 501/536 500/535
f 493/528 494/529 502/537 501/536
f 494/529 495/530 503/538 502/537
f 495/530 496/531 504/539 503/538
f 496/531 489/524 497/532 504/539
f 497/532 498/533 506/541 505/540
f 498/533 499/534 507/542 506/541
f 499/534 500/535 508/543 507/542
f 500/535 501/536 509/544 508/543
f 501/536 502/537 510/545 509/544
f 502/537 503/538 511/546 510/545
f 503/538 504/539 512/547 511/546
f 504/539 497/532 505/540 512/547
f 505/540 506/541 514/549 513/548
f 506/541 507/542 515/550 514/549
f 507/542 508/543 516/551 515/550
f 508/543 509/544 517/552 516/551
f 509/544 510/545 518/553 517/552
f 510/545 511/546 519/554 518/553
f 511/546 512/547 520/555 519/554
f 512/547 505/540 513/548 520/555
f 513/548 514/549 521/556
f 514/549 515/550 521/557
f 515/550 516/551 521/558
f 516/551 517/552 521/559
f 517/552 518/553 521/560
f 518/553 519/554 521/561
f 519/554 520/555 521/562
f 520/555 513/548 521/563
f 522/564 473/508 474/509
f 522/564 474/509 475/510
f 522/564 475/510 476/511
f 522/564 476/511 477/512
f 522/564 477/512 478/513
f 522/564 478/513 479/514
f 522/564 479/514 480/515
f 522/564 480/515 473/508
f 523/565 524/566 532/574 531/573
f 524/566 525/567 533/575 532/574
f 525/567 526/568 534/576 533/575
f 526/568 527/569 535/577 534/576
f 527/569 528/570 536/578 535/577
f 528/570 529/571 537/579 536/578
f 529/571 530/572 538/580 537/579
f 530/572 523/565 531/573 538/580
f 531/573 532/574 540/582 539/581
f 532/574 533/575 541/583 540/582
f 533/575 534/576 542/584 541/583
f 534/576 535/577 543/585 542/584
f 535/577 536/578 544/586 543/585
f 536/578 537/579 545/587 544/586
f 537/579 538/580 546/588 545/587
f 538/580 531/573 539/581 546/588
f 539/581 540/582 548/590 547/589
f 540/582 541/583 549/591 548/590
f 541/583 542/584 550/592 549/591
f 542/584 543/585 551/593 550/592
f 543/585 544/586 552/594 551/593
f 544/586 545/587 553/595 552/594
f 545/587 546/588 554/596 553/595
f 546/588 539/581 547/589 554/596
f 547/589 548/590 556/598 555/597
f 548/590 549/591 557/599 556/598
f 549/591 550/592 558/600 557/599
f 550/592 551/593 559/601 558/600
f 551/593 552/594 560/602 559/601
f 552/594 553/595 561/603 560/602
f 553/595 554/596 562/604 561/603
f 554/596 547/589 555/597 562/604
f 555/597 556/598 564/606 563/605
f 556/598 557/599 565/607 564/606
f 557/599 558/600 566/608 565/607
f 558/600 559/601 567/609 566/608
f 559/601 560/602 568/610 567/609
f 560/602 561/603 569/611 568/610
f 561/603 562/604 570/612 569/611
f 562/604 555/597 563/605 570/612
f 563/605 564/606 571/613
f 564/606 565/607 571/614
f 565/607 566/608 571/615
f 566/608 567/609 571/616
f 567/609 568/610 571/617
f 568/610 569/611 571/618
f 569/611 570/612 571/619
f 570/612 563/605 571/620
f 572/621 523/565 524/566
f 572/621 524/566 525/567
f 572/621 525/567 526/568
f 572/621 526/568 527/569
f 572/621 527/569 528/570
f 572/621 528/570 529/571
f 572/621 529/571 530/572
f 572/621 530/572 523/565
usemtl dark_wood
f 573/622 574/623 582/631 581/630
f 574/623 575/624 583/632 582/631
f 575/624 576/625 584/633 583/632
f 576/625 577/626 585/634 584/633
f 577/626 578/627 586/635 585/634
f 578/627 579/628 587/636 586/635
f 579/628 580/629 588/637 587/636
f 580/629 573/622 581/630 588/637
f 589/638 573/622 574/623
f 589/638 574/623 575/624
f 589/638 575/624 576/625
f 589/638 576/625 577/626
f 589/638 577/626 578/627
f 589/638 578/627 579/628
f 589/638 579/628 580/629
f 589/638 580/629 573/622
f 590/639 582/631 581/630
f 590/639 583/632 582/631
f 590/639 584/633 583/632
f 590/639 585/634 584/633
f 590/639 586/635 585/634
f 590/639 587/636 586/635
f 590/639 588/637 587/636
f 590/639 581/630 588/637
f 591/640 592/641 600/649 599/648
f 592/641 593/642 601/650 600/649
f 593/642 594/643 602/651 601/650
f 594/643 595/644 603/652 602/651
f 595/644 596/645 604/653 603/652
f 596/645 597/646 605/654 604/653
f 597/646 598/647 606/655 605/654
f 598/647 591/640 599/648 606/655
f 607/656 591/640 592/641
f 607/656 592/641 593/642
f 607/656 593/642 594/643
f 607/656 594/643 595/644
f 607/656 595/644 596/645
f 607/656 596/645 597/646
f 607/656 597/646 598/647
f 607/656 598/647 591/640
f 608/657 600/649 599/648
f 608/657 601/650 600/649
f 608/657 602/651 601/650
f 608/657 603/652 602/651
f 608/657 604/653 603/652
f 608/657 605/654 604/653
f 608/657 606/655 605/654
f 608/657 599/648 606/655
f 609/658 610/659 618/667 617/666
f 610/659 611/660 619/668 618/667
f 611/660 612/661 620/669 619/668
f 612/661 613/662 621/670 620/669
f 613/662 614/663 622/671 621/670
f 614/663 615/664 623/672 622/671
f 615/664 616/665 624/673 623/672
f 616/665 609/658 617/666 624/673
f 625/674 609/658 610/659
f 625/674 610/659 611/660
f 625/674 611/660 612/661
f 625/674 612/661 613/662
f 625/674 613/662 614/663
f 625/674 614/663 615/664
f 625/674 615/664 616/665
f 625/674 616/665 609/658
f 626/675 618/667 617/666
f 626/675 619/668 618/667
f 626/675 620/669 619/668
f 626/675 621/670 620/669
f 626/675 622/671 621/670
f 626/675 623/672 622/671
f 626/675 624/673 623/672
f 626/675 617/666 624/673
f 627/676 628/677 633/682 632/681
f 628/677 629/678 634/683 633/682
f 629/678 630/679 635/684 634/683
f 630/679 631/680 636/685 635/684
f 631/680 627/676 632/681 636/685
f 637/686 627/676 628/677
f 637/686 628/677 629/678
f 637/686 629/678 630/679
f 637/686 630/679 631/680
f 637/686 631/680 627/676
f 638/687 633/682 632/681
f 638/687 634/683 633/682
f 638/687 635/684 634/683
f 638/687 636/685 635/684
f 638/687 632/681 636/685
f 639/688 640/689 645/694 644/693
f 640/689 641/690 646/695 645/694
f 641/690 642/691 647/696 646/695
f 642/691 643/692 648/697 647/696
f 643/692 639/688 644/693 648/697
f 649/698 639/688 640/689
f 649/698 640/689 641/690
f 649/698 641/690 642/691
f 649/698 642/691 643/692
f 649/698 643/692 639/688
f 650/699 645/694 644/693
f 650/699 646/695 645/694
f 650/699 647/696 646/695
f 650/699 648/697 647/696
f 650/699 644/693 648/697
