# polygonal cohort: fabricated from poly_parts.py; no lathed geometry
# generated by tools/asset-production/lathe.py
mtllib polygonal_cohort.mtl
o silver_glasses
v -0.161314 0.887151 -0.007500
v -0.312849 1.038686 -0.007500
v -0.527151 1.038686 -0.007500
v -0.678686 0.887151 -0.007500
v -0.678686 0.672849 -0.007500
v -0.527151 0.521314 -0.007500
v -0.312849 0.521314 -0.007500
v -0.161314 0.672849 -0.007500
v -0.161314 0.887151 -0.032500
v -0.312849 1.038686 -0.032500
v -0.527151 1.038686 -0.032500
v -0.678686 0.887151 -0.032500
v -0.678686 0.672849 -0.032500
v -0.527151 0.521314 -0.032500
v -0.312849 0.521314 -0.032500
v -0.161314 0.672849 -0.032500
v 0.678686 0.887151 -0.007500
v 0.527151 1.038686 -0.007500
v 0.312849 1.038686 -0.007500
v 0.161314 0.887151 -0.007500
v 0.161314 0.672849 -0.007500
v 0.312849 0.521314 -0.007500
v 0.527151 0.521314 -0.007500
v 0.678686 0.672849 -0.007500
v 0.678686 0.887151 -0.032500
v 0.527151 1.038686 -0.032500
v 0.312849 1.038686 -0.032500
v 0.161314 0.887151 -0.032500
v 0.161314 0.672849 -0.032500
v 0.312849 0.521314 -0.032500
v 0.527151 0.521314 -0.032500
v 0.678686 0.672849 -0.032500
v -0.143804 0.883013 0.037500
v -0.104913 0.921904 0.037500
v -0.278096 1.095087 0.037500
v -0.316987 1.056196 0.037500
v -0.143804 0.883013 -0.037500
v -0.104913 0.921904 -0.037500
v -0.278096 1.095087 -0.037500
v -0.316987 1.056196 -0.037500
v -0.297541 1.048141 0.037500
v -0.297541 1.103141 0.037500
v -0.542459 1.103141 0.037500
v -0.542459 1.048141 0.037500
v -0.297541 1.048141 -0.037500
v -0.297541 1.103141 -0.037500
v -0.542459 1.103141 -0.037500
v -0.542459 1.048141 -0.037500
v -0.523013 1.056196 0.037500
v -0.561904 1.095087 0.037500
v -0.735087 0.921904 0.037500
v -0.696196 0.883013 0.037500
v -0.523013 1.056196 -0.037500
v -0.561904 1.095087 -0.037500
v -0.735087 0.921904 -0.037500
v -0.696196 0.883013 -0.037500
v -0.688141 0.902459 0.037500
v -0.743141 0.902459 0.037500
v -0.743141 0.657541 0.037500
v -0.688141 0.657541 0.037500
v -0.688141 0.902459 -0.037500
v -0.743141 0.902459 -0.037500
v -0.743141 0.657541 -0.037500
v -0.688141 0.657541 -0.037500
v -0.696196 0.676987 0.037500
v -0.735087 0.638096 0.037500
v -0.561904 0.464913 0.037500
v -0.523013 0.503804 0.037500
v -0.696196 0.676987 -0.037500
v -0.735087 0.638096 -0.037500
v -0.561904 0.464913 -0.037500
v -0.523013 0.503804 -0.037500
v -0.542459 0.511859 0.037500
v -0.542459 0.456859 0.037500
v -0.297541 0.456859 0.037500
v -0.297541 0.511859 0.037500
v -0.542459 0.511859 -0.037500
v -0.542459 0.456859 -0.037500
v -0.297541 0.456859 -0.037500
v -0.297541 0.511859 -0.037500
v -0.316987 0.503804 0.037500
v -0.278096 0.464913 0.037500
v -0.104913 0.638096 0.037500
v -0.143804 0.676987 0.037500
v -0.316987 0.503804 -0.037500
v -0.278096 0.464913 -0.037500
v -0.104913 0.638096 -0.037500
v -0.143804 0.676987 -0.037500
v -0.151859 0.657541 0.037500
v -0.096859 0.657541 0.037500
v -0.096859 0.902459 0.037500
v -0.151859 0.902459 0.037500
v -0.151859 0.657541 -0.037500
v -0.096859 0.657541 -0.037500
v -0.096859 0.902459 -0.037500
v -0.151859 0.902459 -0.037500
v 0.696196 0.883013 0.037500
v 0.735087 0.921904 0.037500
v 0.561904 1.095087 0.037500
v 0.523013 1.056196 0.037500
v 0.696196 0.883013 -0.037500
v 0.735087 0.921904 -0.037500
v 0.561904 1.095087 -0.037500
v 0.523013 1.056196 -0.037500
v 0.542459 1.048141 0.037500
v 0.542459 1.103141 0.037500
v 0.297541 1.103141 0.037500
v 0.297541 1.048141 0.037500
v 0.542459 1.048141 -0.037500
v 0.542459 1.103141 -0.037500
v 0.297541 1.103141 -0.037500
v 0.297541 1.048141 -0.037500
v 0.316987 1.056196 0.037500
v 0.278096 1.095087 0.037500
v 0.104913 0.921904 0.037500
v 0.143804 0.883013 0.037500
v 0.316987 1.056196 -0.037500
v 0.278096 1.095087 -0.037500
v 0.104913 0.921904 -0.037500
v 0.143804 0.883013 -0.037500
v 0.151859 0.902459 0.037500
v 0.096859 0.902459 0.037500
v 0.096859 0.657541 0.037500
v 0.151859 0.657541 0.037500
v 0.151859 0.902459 -0.037500
v 0.096859 0.902459 -0.037500
v 0.096859 0.657541 -0.037500
v 0.151859 0.657541 -0.037500
v 0.143804 0.676987 0.037500
v 0.104913 0.638096 0.037500
v 0.278096 0.464913 0.037500
v 0.316987 0.503804 0.037500
v 0.143804 0.676987 -0.037500
v 0.104913 0.638096 -0.037500
v 0.278096 0.464913 -0.037500
v 0.316987 0.503804 -0.037500
v 0.297541 0.511859 0.037500
v 0.297541 0.456859 0.037500
v 0.542459 0.456859 0.037500
v 0.542459 0.511859 0.037500
v 0.297541 0.511859 -0.037500
v 0.297541 0.456859 -0.037500
v 0.542459 0.456859 -0.037500
v 0.542459 0.511859 -0.037500
v 0.523013 0.503804 0.037500
v 0.561904 0.464913 0.037500
v 0.735087 0.638096 0.037500
v 0.696196 0.676987 0.037500
v 0.523013 0.503804 -0.037500
v 0.561904 0.464913 -0.037500
v 0.735087 0.638096 -0.037500
v 0.696196 0.676987 -0.037500
v 0.688141 0.657541 0.037500
v 0.743141 0.657541 0.037500
v 0.743141 0.902459 0.037500
v 0.688141 0.902459 0.037500
v 0.688141 0.657541 -0.037500
v 0.743141 0.657541 -0.037500
v 0.743141 0.902459 -0.037500
v 0.688141 0.902459 -0.037500
v -0.110000 0.827500 0.040000
v -0.110000 0.772500 0.040000
v 0.110000 0.772500 0.040000
v 0.110000 0.827500 0.040000
v -0.110000 0.827500 -0.040000
v -0.110000 0.772500 -0.040000
v 0.110000 0.772500 -0.040000
v 0.110000 0.827500 -0.040000
v -0.693927 0.813179 -0.015000
v -0.706073 0.866821 -0.015000
v -1.236073 0.746821 -0.015000
v -1.223927 0.693179 -0.015000
v -0.693927 0.813179 -0.085000
v -0.706073 0.866821 -0.085000
v -1.236073 0.746821 -0.085000
v -1.223927 0.693179 -0.085000
v 0.706073 0.866821 -0.015000
v 0.693927 0.813179 -0.015000
v 1.223927 0.693179 -0.015000
v 1.236073 0.746821 -0.015000
v 0.706073 0.866821 -0.085000
v 0.693927 0.813179 -0.085000
v 1.223927 0.693179 -0.085000
v 1.236073 0.746821 -0.085000
vt 1.000000 0.707107
vt 0.707107 1.000000
vt 0.292893 1.000000
vt 0.000000 0.707107
vt 0.000000 0.292893
vt 0.292893 0.000000
vt 0.707107 0.000000
vt 1.000000 0.292893
vt 1.000000 0.707107
vt 0.707107 1.000000
vt 0.292893 1.000000
vt 0.000000 0.707107
vt 0.000000 0.292893
vt 0.292893 0.000000
vt 0.707107 0.000000
vt 1.000000 0.292893
vt 1.000000 0.707107
vt 0.707107 1.000000
vt 0.292893 1.000000
vt 0.000000 0.707107
vt 0.000000 0.292893
vt 0.292893 0.000000
vt 0.707107 0.000000
vt 1.000000 0.292893
vt 1.000000 0.707107
vt 0.707107 1.000000
vt 0.292893 1.000000
vt 0.000000 0.707107
vt 0.000000 0.292893
vt 0.292893 0.000000
vt 0.707107 0.000000
vt 1.000000 0.292893
vt 0.816616 0.000000
vt 1.000000 0.183384
vt 0.183384 1.000000
vt 0.000000 0.816616
vt 0.816616 0.000000
vt 1.000000 0.183384
vt 0.183384 1.000000
vt 0.000000 0.816616
vt 1.000000 0.000000
vt 1.000000 1.000000
vt 0.000000 1.000000
vt 0.000000 0.000000
vt 1.000000 0.000000
vt 1.000000 1.000000
vt 0.000000 1.000000
vt 0.000000 0.000000
vt 1.000000 0.816616
vt 0.816616 1.000000
vt 0.000000 0.183384
vt 0.183384 0.000000
vt 1.000000 0.816616
vt 0.816616 1.000000
vt 0.000000 0.183384
vt 0.183384 0.000000
vt 1.000000 1.000000
vt 0.000000 1.000000
vt 0.000000 0.000000
vt 1.000000 0.000000
vt 1.000000 1.000000
vt 0.000000 1.000000
vt 0.000000 0.000000
vt 1.000000 0.000000
vt 0.183384 1.000000
vt 0.000000 0.816616
vt 0.816616 0.000000
vt 1.000000 0.183384
vt 0.183384 1.000000
vt 0.000000 0.816616
vt 0.816616 0.000000
vt 1.000000 0.183384
vt 0.000000 1.000000
vt 0.000000 0.000000
vt 1.000000 0.000000
vt 1.000000 1.000000
vt 0.000000 1.000000
vt 0.000000 0.000000
vt 1.000000 0.000000
vt 1.000000 1.000000
vt 0.000000 0.183384
vt 0.183384 0.000000
vt 1.000000 0.816616
vt 0.816616 1.000000
vt 0.000000 0.183384
vt 0.183384 0.000000
vt 1.000000 0.816616
vt 0.816616 1.000000
vt 0.000000 0.000000
vt 1.000000 0.000000
vt 1.000000 1.000000
vt 0.000000 1.000000
vt 0.000000 0.000000
vt 1.000000 0.000000
vt 1.000000 1.000000
vt 0.000000 1.000000
vt 0.816616 0.000000
vt 1.000000 0.183384
vt 0.183384 1.000000
vt 0.000000 0.816616
vt 0.816616 0.000000
vt 1.000000 0.183384
vt 0.183384 1.000000
vt 0.000000 0.816616
vt 1.000000 0.000000
vt 1.000000 1.000000
vt 0.000000 1.000000
vt 0.000000 0.000000
vt 1.000000 0.000000
vt 1.000000 1.000000
vt 0.000000 1.000000
vt 0.000000 0.000000
vt 1.000000 0.816616
vt 0.816616 1.000000
vt 0.000000 0.183384
vt 0.183384 0.000000
vt 1.000000 0.816616
vt 0.816616 1.000000
vt 0.000000 0.183384
vt 0.183384 0.000000
vt 1.000000 1.000000
vt 0.000000 1.000000
vt 0.000000 0.000000
vt 1.000000 0.000000
vt 1.000000 1.000000
vt 0.000000 1.000000
vt 0.000000 0.000000
vt 1.000000 0.000000
vt 0.183384 1.000000
vt 0.000000 0.816616
vt 0.816616 0.000000
vt 1.000000 0.183384
vt 0.183384 1.000000
vt 0.000000 0.816616
vt 0.816616 0.000000
vt 1.000000 0.183384
vt 0.000000 1.000000
vt 0.000000 0.000000
vt 1.000000 0.000000
vt 1.000000 1.000000
vt 0.000000 1.000000
vt 0.000000 0.000000
vt 1.000000 0.000000
vt 1.000000 1.000000
vt 0.000000 0.183384
vt 0.183384 0.000000
vt 1.000000 0.816616
vt 0.816616 1.000000
vt 0.000000 0.183384
vt 0.183384 0.000000
vt 1.000000 0.816616
vt 0.816616 1.000000
vt 0.000000 0.000000
vt 1.000000 0.000000
vt 1.000000 1.000000
vt 0.000000 1.000000
vt 0.000000 0.000000
vt 1.000000 0.000000
vt 1.000000 1.000000
vt 0.000000 1.000000
vt 0.000000 1.000000
vt 0.000000 0.000000
vt 1.000000 0.000000
vt 1.000000 1.000000
vt 0.000000 1.000000
vt 0.000000 0.000000
vt 1.000000 0.000000
vt 1.000000 1.000000
vt 1.000000 0.691076
vt 0.977598 1.000000
vt 0.000000 0.308924
vt 0.022402 0.000000
vt 1.000000 0.691076
vt 0.977598 1.000000
vt 0.000000 0.308924
vt 0.022402 0.000000
vt 0.022402 1.000000
vt 0.000000 0.691076
vt 0.977598 0.000000
vt 1.000000 0.308924
vt 0.022402 1.000000
vt 0.000000 0.691076
vt 0.977598 0.000000
vt 1.000000 0.308924
vn 0.000000 0.000000 1.000000
vn 0.000000 0.000000 -1.000000
vn 0.707107 0.707107 0.000000
vn 0.000000 1.000000 0.000000
vn -0.707107 0.707107 0.000000
vn -1.000000 0.000000 -0.000000
vn -0.707107 -0.707107 -0.000000
vn -0.000000 -1.000000 -0.000000
vn 0.707107 -0.707107 0.000000
vn 1.000000 -0.000000 0.000000
vn 0.975313 0.220826 0.000000
vn -0.220826 0.975313 0.000000
vn -0.975313 -0.220826 -0.000000
vn 0.220826 -0.975313 0.000000
vn -0.975313 0.220826 0.000000
vn -0.220826 -0.975313 -0.000000
vn 0.975313 -0.220826 0.000000
vn 0.220826 0.975313 0.000000
usemtl smoked_glass
s off
f 1/1/1 2/2/1 3/3/1
s off
f 9/9/2 11/11/2 10/10/2
s off
f 1/1/1 3/3/1 4/4/1
s off
f 9/9/2 12/12/2 11/11/2
s off
f 1/1/1 4/4/1 5/5/1
s off
f 9/9/2 13/13/2 12/12/2
s off
f 1/1/1 5/5/1 6/6/1
s off
f 9/9/2 14/14/2 13/13/2
s off
f 1/1/1 6/6/1 7/7/1
s off
f 9/9/2 15/15/2 14/14/2
s off
f 1/1/1 7/7/1 8/8/1
s off
f 9/9/2 16/16/2 15/15/2
s off
f 1/1/3 9/9/3 10/10/3 2/2/3
s off
f 2/2/4 10/10/4 11/11/4 3/3/4
s off
f 3/3/5 11/11/5 12/12/5 4/4/5
s off
f 4/4/6 12/12/6 13/13/6 5/5/6
s off
f 5/5/7 13/13/7 14/14/7 6/6/7
s off
f 6/6/8 14/14/8 15/15/8 7/7/8
s off
f 7/7/9 15/15/9 16/16/9 8/8/9
s off
f 8/8/10 16/16/10 9/9/10 1/1/10
s off
f 17/17/1 18/18/1 19/19/1
s off
f 25/25/2 27/27/2 26/26/2
s off
f 17/17/1 19/19/1 20/20/1
s off
f 25/25/2 28/28/2 27/27/2
s off
f 17/17/1 20/20/1 21/21/1
s off
f 25/25/2 29/29/2 28/28/2
s off
f 17/17/1 21/21/1 22/22/1
s off
f 25/25/2 30/30/2 29/29/2
s off
f 17/17/1 22/22/1 23/23/1
s off
f 25/25/2 31/31/2 30/30/2
s off
f 17/17/1 23/23/1 24/24/1
s off
f 25/25/2 32/32/2 31/31/2
s off
f 17/17/3 25/25/3 26/26/3 18/18/3
s off
f 18/18/4 26/26/4 27/27/4 19/19/4
s off
f 19/19/5 27/27/5 28/28/5 20/20/5
s off
f 20/20/6 28/28/6 29/29/6 21/21/6
s off
f 21/21/7 29/29/7 30/30/7 22/22/7
s off
f 22/22/8 30/30/8 31/31/8 23/23/8
s off
f 23/23/9 31/31/9 32/32/9 24/24/9
s off
f 24/24/10 32/32/10 25/25/10 17/17/10
usemtl wrought_iron
s off
f 33/33/1 34/34/1 35/35/1
s off
f 37/37/2 39/39/2 38/38/2
s off
f 33/33/1 35/35/1 36/36/1
s off
f 37/37/2 40/40/2 39/39/2
s off
f 33/33/9 37/37/9 38/38/9 34/34/9
s off
f 34/34/3 38/38/3 39/39/3 35/35/3
s off
f 35/35/5 39/39/5 40/40/5 36/36/5
s off
f 36/36/7 40/40/7 37/37/7 33/33/7
s off
f 41/41/1 42/42/1 43/43/1
s off
f 45/45/2 47/47/2 46/46/2
s off
f 41/41/1 43/43/1 44/44/1
s off
f 45/45/2 48/48/2 47/47/2
s off
f 41/41/10 45/45/10 46/46/10 42/42/10
s off
f 42/42/4 46/46/4 47/47/4 43/43/4
s off
f 43/43/6 47/47/6 48/48/6 44/44/6
s off
f 44/44/8 48/48/8 45/45/8 41/41/8
s off
f 49/49/1 50/50/1 51/51/1
s off
f 53/53/2 55/55/2 54/54/2
s off
f 49/49/1 51/51/1 52/52/1
s off
f 53/53/2 56/56/2 55/55/2
s off
f 49/49/3 53/53/3 54/54/3 50/50/3
s off
f 50/50/5 54/54/5 55/55/5 51/51/5
s off
f 51/51/7 55/55/7 56/56/7 52/52/7
s off
f 52/52/9 56/56/9 53/53/9 49/49/9
s off
f 57/57/1 58/58/1 59/59/1
s off
f 61/61/2 63/63/2 62/62/2
s off
f 57/57/1 59/59/1 60/60/1
s off
f 61/61/2 64/64/2 63/63/2
s off
f 57/57/4 61/61/4 62/62/4 58/58/4
s off
f 58/58/6 62/62/6 63/63/6 59/59/6
s off
f 59/59/8 63/63/8 64/64/8 60/60/8
s off
f 60/60/10 64/64/10 61/61/10 57/57/10
s off
f 65/65/1 66/66/1 67/67/1
s off
f 69/69/2 71/71/2 70/70/2
s off
f 65/65/1 67/67/1 68/68/1
s off
f 69/69/2 72/72/2 71/71/2
s off
f 65/65/5 69/69/5 70/70/5 66/66/5
s off
f 66/66/7 70/70/7 71/71/7 67/67/7
s off
f 67/67/9 71/71/9 72/72/9 68/68/9
s off
f 68/68/3 72/72/3 69/69/3 65/65/3
s off
f 73/73/1 74/74/1 75/75/1
s off
f 77/77/2 79/79/2 78/78/2
s off
f 73/73/1 75/75/1 76/76/1
s off
f 77/77/2 80/80/2 79/79/2
s off
f 73/73/6 77/77/6 78/78/6 74/74/6
s off
f 74/74/8 78/78/8 79/79/8 75/75/8
s off
f 75/75/10 79/79/10 80/80/10 76/76/10
s off
f 76/76/4 80/80/4 77/77/4 73/73/4
s off
f 81/81/1 82/82/1 83/83/1
s off
f 85/85/2 87/87/2 86/86/2
s off
f 81/81/1 83/83/1 84/84/1
s off
f 85/85/2 88/88/2 87/87/2
s off
f 81/81/7 85/85/7 86/86/7 82/82/7
s off
f 82/82/9 86/86/9 87/87/9 83/83/9
s off
f 83/83/3 87/87/3 88/88/3 84/84/3
s off
f 84/84/5 88/88/5 85/85/5 81/81/5
s off
f 89/89/1 90/90/1 91/91/1
s off
f 93/93/2 95/95/2 94/94/2
s off
f 89/89/1 91/91/1 92/92/1
s off
f 93/93/2 96/96/2 95/95/2
s off
f 89/89/8 93/93/8 94/94/8 90/90/8
s off
f 90/90/10 94/94/10 95/95/10 91/91/10
s off
f 91/91/4 95/95/4 96/96/4 92/92/4
s off
f 92/92/6 96/96/6 93/93/6 89/89/6
s off
f 97/97/1 98/98/1 99/99/1
s off
f 101/101/2 103/103/2 102/102/2
s off
f 97/97/1 99/99/1 100/100/1
s off
f 101/101/2 104/104/2 103/103/2
s off
f 97/97/9 101/101/9 102/102/9 98/98/9
s off
f 98/98/3 102/102/3 103/103/3 99/99/3
s off
f 99/99/5 103/103/5 104/104/5 100/100/5
s off
f 100/100/7 104/104/7 101/101/7 97/97/7
s off
f 105/105/1 106/106/1 107/107/1
s off
f 109/109/2 111/111/2 110/110/2
s off
f 105/105/1 107/107/1 108/108/1
s off
f 109/109/2 112/112/2 111/111/2
s off
f 105/105/10 109/109/10 110/110/10 106/106/10
s off
f 106/106/4 110/110/4 111/111/4 107/107/4
s off
f 107/107/6 111/111/6 112/112/6 108/108/6
s off
f 108/108/8 112/112/8 109/109/8 105/105/8
s off
f 113/113/1 114/114/1 115/115/1
s off
f 117/117/2 119/119/2 118/118/2
s off
f 113/113/1 115/115/1 116/116/1
s off
f 117/117/2 120/120/2 119/119/2
s off
f 113/113/3 117/117/3 118/118/3 114/114/3
s off
f 114/114/5 118/118/5 119/119/5 115/115/5
s off
f 115/115/7 119/119/7 120/120/7 116/116/7
s off
f 116/116/9 120/120/9 117/117/9 113/113/9
s off
f 121/121/1 122/122/1 123/123/1
s off
f 125/125/2 127/127/2 126/126/2
s off
f 121/121/1 123/123/1 124/124/1
s off
f 125/125/2 128/128/2 127/127/2
s off
f 121/121/4 125/125/4 126/126/4 122/122/4
s off
f 122/122/6 126/126/6 127/127/6 123/123/6
s off
f 123/123/8 127/127/8 128/128/8 124/124/8
s off
f 124/124/10 128/128/10 125/125/10 121/121/10
s off
f 129/129/1 130/130/1 131/131/1
s off
f 133/133/2 135/135/2 134/134/2
s off
f 129/129/1 131/131/1 132/132/1
s off
f 133/133/2 136/136/2 135/135/2
s off
f 129/129/5 133/133/5 134/134/5 130/130/5
s off
f 130/130/7 134/134/7 135/135/7 131/131/7
s off
f 131/131/9 135/135/9 136/136/9 132/132/9
s off
f 132/132/3 136/136/3 133/133/3 129/129/3
s off
f 137/137/1 138/138/1 139/139/1
s off
f 141/141/2 143/143/2 142/142/2
s off
f 137/137/1 139/139/1 140/140/1
s off
f 141/141/2 144/144/2 143/143/2
s off
f 137/137/6 141/141/6 142/142/6 138/138/6
s off
f 138/138/8 142/142/8 143/143/8 139/139/8
s off
f 139/139/10 143/143/10 144/144/10 140/140/10
s off
f 140/140/4 144/144/4 141/141/4 137/137/4
s off
f 145/145/1 146/146/1 147/147/1
s off
f 149/149/2 151/151/2 150/150/2
s off
f 145/145/1 147/147/1 148/148/1
s off
f 149/149/2 152/152/2 151/151/2
s off
f 145/145/7 149/149/7 150/150/7 146/146/7
s off
f 146/146/9 150/150/9 151/151/9 147/147/9
s off
f 147/147/3 151/151/3 152/152/3 148/148/3
s off
f 148/148/5 152/152/5 149/149/5 145/145/5
s off
f 153/153/1 154/154/1 155/155/1
s off
f 157/157/2 159/159/2 158/158/2
s off
f 153/153/1 155/155/1 156/156/1
s off
f 157/157/2 160/160/2 159/159/2
s off
f 153/153/8 157/157/8 158/158/8 154/154/8
s off
f 154/154/10 158/158/10 159/159/10 155/155/10
s off
f 155/155/4 159/159/4 160/160/4 156/156/4
s off
f 156/156/6 160/160/6 157/157/6 153/153/6
s off
f 161/161/1 162/162/1 163/163/1
s off
f 165/165/2 167/167/2 166/166/2
s off
f 161/161/1 163/163/1 164/164/1
s off
f 165/165/2 168/168/2 167/167/2
s off
f 161/161/6 165/165/6 166/166/6 162/162/6
s off
f 162/162/8 166/166/8 167/167/8 163/163/8
s off
f 163/163/10 167/167/10 168/168/10 164/164/10
s off
f 164/164/4 168/168/4 165/165/4 161/161/4
s off
f 169/169/1 170/170/1 171/171/1
s off
f 173/173/2 175/175/2 174/174/2
s off
f 169/169/1 171/171/1 172/172/1
s off
f 173/173/2 176/176/2 175/175/2
s off
f 169/169/11 173/173/11 174/174/11 170/170/11
s off
f 170/170/12 174/174/12 175/175/12 171/171/12
s off
f 171/171/13 175/175/13 176/176/13 172/172/13
s off
f 172/172/14 176/176/14 173/173/14 169/169/14
s off
f 177/177/1 178/178/1 179/179/1
s off
f 181/181/2 183/183/2 182/182/2
s off
f 177/177/1 179/179/1 180/180/1
s off
f 181/181/2 184/184/2 183/183/2
s off
f 177/177/15 181/181/15 182/182/15 178/178/15
s off
f 178/178/16 182/182/16 183/183/16 179/179/16
s off
f 179/179/17 183/183/17 184/184/17 180/180/17
s off
f 180/180/18 184/184/18 181/181/18 177/177/18
