# St. Maria relic showcase: composed from parts.py + lathe.py
# generated by tools/asset-production/lathe.py
mtllib relic_showcase.mtl
o smoke_bell
v 0.680000 0.000000 0.000000
v 0.628238 0.000000 0.260225
v 0.480833 0.000000 0.480833
v 0.260225 0.000000 0.628238
v 0.000000 0.000000 0.680000
v -0.260225 0.000000 0.628238
v -0.480833 0.000000 0.480833
v -0.628238 0.000000 0.260225
v -0.680000 0.000000 0.000000
v -0.628238 0.000000 -0.260225
v -0.480833 0.000000 -0.480833
v -0.260225 0.000000 -0.628238
v -0.000000 0.000000 -0.680000
v 0.260225 0.000000 -0.628238
v 0.480833 0.000000 -0.480833
v 0.628238 0.000000 -0.260225
v 0.760000 0.140000 0.000000
v 0.702148 0.140000 0.290839
v 0.537401 0.140000 0.537401
v 0.290839 0.140000 0.702148
v 0.000000 0.140000 0.760000
v -0.290839 0.140000 0.702148
v -0.537401 0.140000 0.537401
v -0.702148 0.140000 0.290839
v -0.760000 0.140000 0.000000
v -0.702148 0.140000 -0.290839
v -0.537401 0.140000 -0.537401
v -0.290839 0.140000 -0.702148
v -0.000000 0.140000 -0.760000
v 0.290839 0.140000 -0.702148
v 0.537401 0.140000 -0.537401
v 0.702148 0.140000 -0.290839
v 0.600000 0.550000 0.000000
v 0.554328 0.550000 0.229610
v 0.424264 0.550000 0.424264
v 0.229610 0.550000 0.554328
v 0.000000 0.550000 0.600000
v -0.229610 0.550000 0.554328
v -0.424264 0.550000 0.424264
v -0.554328 0.550000 0.229610
v -0.600000 0.550000 0.000000
v -0.554328 0.550000 -0.229610
v -0.424264 0.550000 -0.424264
v -0.229610 0.550000 -0.554328
v -0.000000 0.550000 -0.600000
v 0.229610 0.550000 -0.554328
v 0.424264 0.550000 -0.424264
v 0.554328 0.550000 -0.229610
v 0.400000 0.950000 0.000000
v 0.369552 0.950000 0.153073
v 0.282843 0.950000 0.282843
v 0.153073 0.950000 0.369552
v 0.000000 0.950000 0.400000
v -0.153073 0.950000 0.369552
v -0.282843 0.950000 0.282843
v -0.369552 0.950000 0.153073
v -0.400000 0.950000 0.000000
v -0.369552 0.950000 -0.153073
v -0.282843 0.950000 -0.282843
v -0.153073 0.950000 -0.369552
v -0.000000 0.950000 -0.400000
v 0.153073 0.950000 -0.369552
v 0.282843 0.950000 -0.282843
v 0.369552 0.950000 -0.153073
v 0.240000 1.100000 0.000000
v 0.221731 1.100000 0.091844
v 0.169706 1.100000 0.169706
v 0.091844 1.100000 0.221731
v 0.000000 1.100000 0.240000
v -0.091844 1.100000 0.221731
v -0.169706 1.100000 0.169706
v -0.221731 1.100000 0.091844
v -0.240000 1.100000 0.000000
v -0.221731 1.100000 -0.091844
v -0.169706 1.100000 -0.169706
v -0.091844 1.100000 -0.221731
v -0.000000 1.100000 -0.240000
v 0.091844 1.100000 -0.221731
v 0.169706 1.100000 -0.169706
v 0.221731 1.100000 -0.091844
v 0.150000 1.100000 0.000000
v 0.138582 1.100000 0.057403
v 0.106066 1.100000 0.106066
v 0.057403 1.100000 0.138582
v 0.000000 1.100000 0.150000
v -0.057403 1.100000 0.138582
v -0.106066 1.100000 0.106066
v -0.138582 1.100000 0.057403
v -0.150000 1.100000 0.000000
v -0.138582 1.100000 -0.057403
v -0.106066 1.100000 -0.106066
v -0.057403 1.100000 -0.138582
v -0.000000 1.100000 -0.150000
v 0.057403 1.100000 -0.138582
v 0.106066 1.100000 -0.106066
v 0.138582 1.100000 -0.057403
v 0.300000 0.930000 0.000000
v 0.277164 0.930000 0.114805
v 0.212132 0.930000 0.212132
v 0.114805 0.930000 0.277164
v 0.000000 0.930000 0.300000
v -0.114805 0.930000 0.277164
v -0.212132 0.930000 0.212132
v -0.277164 0.930000 0.114805
v -0.300000 0.930000 0.000000
v -0.277164 0.930000 -0.114805
v -0.212132 0.930000 -0.212132
v -0.114805 0.930000 -0.277164
v -0.000000 0.930000 -0.300000
v 0.114805 0.930000 -0.277164
v 0.212132 0.930000 -0.212132
v 0.277164 0.930000 -0.114805
v 0.490000 0.520000 0.000000
v 0.452701 0.520000 0.187515
v 0.346482 0.520000 0.346482
v 0.187515 0.520000 0.452701
v 0.000000 0.520000 0.490000
v -0.187515 0.520000 0.452701
v -0.346482 0.520000 0.346482
v -0.452701 0.520000 0.187515
v -0.490000 0.520000 0.000000
v -0.452701 0.520000 -0.187515
v -0.346482 0.520000 -0.346482
v -0.187515 0.520000 -0.452701
v -0.000000 0.520000 -0.490000
v 0.187515 0.520000 -0.452701
v 0.346482 0.520000 -0.346482
v 0.452701 0.520000 -0.187515
v 0.620000 0.160000 0.000000
v 0.572805 0.160000 0.237264
v 0.438406 0.160000 0.438406
v 0.237264 0.160000 0.572805
v 0.000000 0.160000 0.620000
v -0.237264 0.160000 0.572805
v -0.438406 0.160000 0.438406
v -0.572805 0.160000 0.237264
v -0.620000 0.160000 0.000000
v -0.572805 0.160000 -0.237264
v -0.438406 0.160000 -0.438406
v -0.237264 0.160000 -0.572805
v -0.000000 0.160000 -0.620000
v 0.237264 0.160000 -0.572805
v 0.438406 0.160000 -0.438406
v 0.572805 0.160000 -0.237264
v 0.600000 0.000000 0.000000
v 0.554328 0.000000 0.229610
v 0.424264 0.000000 0.424264
v 0.229610 0.000000 0.554328
v 0.000000 0.000000 0.600000
v -0.229610 0.000000 0.554328
v -0.424264 0.000000 0.424264
v -0.554328 0.000000 0.229610
v -0.600000 0.000000 0.000000
v -0.554328 0.000000 -0.229610
v -0.424264 0.000000 -0.424264
v -0.229610 0.000000 -0.554328
v -0.000000 0.000000 -0.600000
v 0.229610 0.000000 -0.554328
v 0.424264 0.000000 -0.424264
v 0.554328 0.000000 -0.229610
v 0.680000 0.000000 0.000000
v 0.628238 0.000000 0.260225
v 0.480833 0.000000 0.480833
v 0.260225 0.000000 0.628238
v 0.000000 0.000000 0.680000
v -0.260225 0.000000 0.628238
v -0.480833 0.000000 0.480833
v -0.628238 0.000000 0.260225
v -0.680000 0.000000 0.000000
v -0.628238 0.000000 -0.260225
v -0.480833 0.000000 -0.480833
v -0.260225 0.000000 -0.628238
v -0.000000 0.000000 -0.680000
v 0.260225 0.000000 -0.628238
v 0.480833 0.000000 -0.480833
v 0.628238 0.000000 -0.260225
v 0.750000 0.000000 0.000000
v 0.692910 0.000000 0.287013
v 0.530330 0.000000 0.530330
v 0.287013 0.000000 0.692910
v 0.000000 0.000000 0.750000
v -0.287013 0.000000 0.692910
v -0.530330 0.000000 0.530330
v -0.692910 0.000000 0.287013
v -0.750000 0.000000 0.000000
v -0.692910 0.000000 -0.287013
v -0.530330 0.000000 -0.530330
v -0.287013 0.000000 -0.692910
v -0.000000 0.000000 -0.750000
v 0.287013 0.000000 -0.692910
v 0.530330 0.000000 -0.530330
v 0.692910 0.000000 -0.287013
v 0.740622 0.035000 0.000000
v 0.684245 0.035000 0.283424
v 0.523699 0.035000 0.523699
v 0.283424 0.035000 0.684245
v 0.000000 0.035000 0.740622
v -0.283424 0.035000 0.684245
v -0.523699 0.035000 0.523699
v -0.684245 0.035000 0.283424
v -0.740622 0.035000 0.000000
v -0.684245 0.035000 -0.283424
v -0.523699 0.035000 -0.523699
v -0.283424 0.035000 -0.684245
v -0.000000 0.035000 -0.740622
v 0.283424 0.035000 -0.684245
v 0.523699 0.035000 -0.523699
v 0.684245 0.035000 -0.283424
v 0.715000 0.060622 0.000000
v 0.660574 0.060622 0.273619
v 0.505581 0.060622 0.505581
v 0.273619 0.060622 0.660574
v 0.000000 0.060622 0.715000
v -0.273619 0.060622 0.660574
v -0.505581 0.060622 0.505581
v -0.660574 0.060622 0.273619
v -0.715000 0.060622 0.000000
v -0.660574 0.060622 -0.273619
v -0.505581 0.060622 -0.505581
v -0.273619 0.060622 -0.660574
v -0.000000 0.060622 -0.715000
v 0.273619 0.060622 -0.660574
v 0.505581 0.060622 -0.505581
v 0.660574 0.060622 -0.273619
v 0.680000 0.070000 0.000000
v 0.628238 0.070000 0.260225
v 0.480833 0.070000 0.480833
v 0.260225 0.070000 0.628238
v 0.000000 0.070000 0.680000
v -0.260225 0.070000 0.628238
v -0.480833 0.070000 0.480833
v -0.628238 0.070000 0.260225
v -0.680000 0.070000 0.000000
v -0.628238 0.070000 -0.260225
v -0.480833 0.070000 -0.480833
v -0.260225 0.070000 -0.628238
v -0.000000 0.070000 -0.680000
v 0.260225 0.070000 -0.628238
v 0.480833 0.070000 -0.480833
v 0.628238 0.070000 -0.260225
v 0.645000 0.060622 0.000000
v 0.595902 0.060622 0.246831
v 0.456084 0.060622 0.456084
v 0.246831 0.060622 0.595902
v 0.000000 0.060622 0.645000
v -0.246831 0.060622 0.595902
v -0.456084 0.060622 0.456084
v -0.595902 0.060622 0.246831
v -0.645000 0.060622 0.000000
v -0.595902 0.060622 -0.246831
v -0.456084 0.060622 -0.456084
v -0.246831 0.060622 -0.595902
v -0.000000 0.060622 -0.645000
v 0.246831 0.060622 -0.595902
v 0.456084 0.060622 -0.456084
v 0.595902 0.060622 -0.246831
v 0.619378 0.035000 0.000000
v 0.572231 0.035000 0.237026
v 0.437967 0.035000 0.437967
v 0.237026 0.035000 0.572231
v 0.000000 0.035000 0.619378
v -0.237026 0.035000 0.572231
v -0.437967 0.035000 0.437967
v -0.572231 0.035000 0.237026
v -0.619378 0.035000 0.000000
v -0.572231 0.035000 -0.237026
v -0.437967 0.035000 -0.437967
v -0.237026 0.035000 -0.572231
v -0.000000 0.035000 -0.619378
v 0.237026 0.035000 -0.572231
v 0.437967 0.035000 -0.437967
v 0.572231 0.035000 -0.237026
v 0.610000 0.000000 0.000000
v 0.563567 0.000000 0.233437
v 0.431335 0.000000 0.431335
v 0.233437 0.000000 0.563567
v 0.000000 0.000000 0.610000
v -0.233437 0.000000 0.563567
v -0.431335 0.000000 0.431335
v -0.563567 0.000000 0.233437
v -0.610000 0.000000 0.000000
v -0.563567 0.000000 -0.233437
v -0.431335 0.000000 -0.431335
v -0.233437 0.000000 -0.563567
v -0.000000 0.000000 -0.610000
v 0.233437 0.000000 -0.563567
v 0.431335 0.000000 -0.431335
v 0.563567 0.000000 -0.233437
v 0.619378 -0.035000 0.000000
v 0.572231 -0.035000 0.237026
v 0.437967 -0.035000 0.437967
v 0.237026 -0.035000 0.572231
v 0.000000 -0.035000 0.619378
v -0.237026 -0.035000 0.572231
v -0.437967 -0.035000 0.437967
v -0.572231 -0.035000 0.237026
v -0.619378 -0.035000 0.000000
v -0.572231 -0.035000 -0.237026
v -0.437967 -0.035000 -0.437967
v -0.237026 -0.035000 -0.572231
v -0.000000 -0.035000 -0.619378
v 0.237026 -0.035000 -0.572231
v 0.437967 -0.035000 -0.437967
v 0.572231 -0.035000 -0.237026
v 0.645000 -0.060622 0.000000
v 0.595902 -0.060622 0.246831
v 0.456084 -0.060622 0.456084
v 0.246831 -0.060622 0.595902
v 0.000000 -0.060622 0.645000
v -0.246831 -0.060622 0.595902
v -0.456084 -0.060622 0.456084
v -0.595902 -0.060622 0.246831
v -0.645000 -0.060622 0.000000
v -0.595902 -0.060622 -0.246831
v -0.456084 -0.060622 -0.456084
v -0.246831 -0.060622 -0.595902
v -0.000000 -0.060622 -0.645000
v 0.246831 -0.060622 -0.595902
v 0.456084 -0.060622 -0.456084
v 0.595902 -0.060622 -0.246831
v 0.680000 -0.070000 0.000000
v 0.628238 -0.070000 0.260225
v 0.480833 -0.070000 0.480833
v 0.260225 -0.070000 0.628238
v 0.000000 -0.070000 0.680000
v -0.260225 -0.070000 0.628238
v -0.480833 -0.070000 0.480833
v -0.628238 -0.070000 0.260225
v -0.680000 -0.070000 0.000000
v -0.628238 -0.070000 -0.260225
v -0.480833 -0.070000 -0.480833
v -0.260225 -0.070000 -0.628238
v -0.000000 -0.070000 -0.680000
v 0.260225 -0.070000 -0.628238
v 0.480833 -0.070000 -0.480833
v 0.628238 -0.070000 -0.260225
v 0.715000 -0.060622 0.000000
v 0.660574 -0.060622 0.273619
v 0.505581 -0.060622 0.505581
v 0.273619 -0.060622 0.660574
v 0.000000 -0.060622 0.715000
v -0.273619 -0.060622 0.660574
v -0.505581 -0.060622 0.505581
v -0.660574 -0.060622 0.273619
v -0.715000 -0.060622 0.000000
v -0.660574 -0.060622 -0.273619
v -0.505581 -0.060622 -0.505581
v -0.273619 -0.060622 -0.660574
v -0.000000 -0.060622 -0.715000
v 0.273619 -0.060622 -0.660574
v 0.505581 -0.060622 -0.505581
v 0.660574 -0.060622 -0.273619
v 0.740622 -0.035000 0.000000
v 0.684245 -0.035000 0.283424
v 0.523699 -0.035000 0.523699
v 0.283424 -0.035000 0.684245
v 0.000000 -0.035000 0.740622
v -0.283424 -0.035000 0.684245
v -0.523699 -0.035000 0.523699
v -0.684245 -0.035000 0.283424
v -0.740622 -0.035000 0.000000
v -0.684245 -0.035000 -0.283424
v -0.523699 -0.035000 -0.523699
v -0.283424 -0.035000 -0.684245
v -0.000000 -0.035000 -0.740622
v 0.283424 -0.035000 -0.684245
v 0.523699 -0.035000 -0.523699
v 0.684245 -0.035000 -0.283424
v 0.750000 0.000000 0.000000
v 0.692910 0.000000 0.287013
v 0.530330 0.000000 0.530330
v 0.287013 0.000000 0.692910
v 0.000000 0.000000 0.750000
v -0.287013 0.000000 0.692910
v -0.530330 0.000000 0.530330
v -0.692910 0.000000 0.287013
v -0.750000 0.000000 0.000000
v -0.692910 0.000000 -0.287013
v -0.530330 0.000000 -0.530330
v -0.287013 0.000000 -0.692910
v -0.000000 0.000000 -0.750000
v 0.287013 0.000000 -0.692910
v 0.530330 0.000000 -0.530330
v 0.692910 0.000000 -0.287013
v 0.315000 1.190000 0.000000
v 0.272798 1.032500 0.000000
v 0.157500 0.917202 0.000000
v 0.000000 0.875000 0.000000
v -0.157500 0.917202 0.000000
v -0.272798 1.032500 0.000000
v -0.315000 1.190000 0.000000
v -0.272798 1.347500 -0.000000
v -0.157500 1.462798 -0.000000
v -0.000000 1.505000 -0.000000
v 0.157500 1.462798 -0.000000
v 0.272798 1.347500 -0.000000
v 0.307631 1.190000 0.027500
v 0.266417 1.036184 0.027500
v 0.153816 0.923583 0.027500
v 0.000000 0.882369 0.027500
v -0.153816 0.923583 0.027500
v -0.266417 1.036184 0.027500
v -0.307631 1.190000 0.027500
v -0.266417 1.343816 0.027500
v -0.153816 1.456417 0.027500
v -0.000000 1.497631 0.027500
v 0.153816 1.456417 0.027500
v 0.266417 1.343816 0.027500
v 0.287500 1.190000 0.047631
v 0.248982 1.046250 0.047631
v 0.143750 0.941018 0.047631
v 0.000000 0.902500 0.047631
v -0.143750 0.941018 0.047631
v -0.248982 1.046250 0.047631
v -0.287500 1.190000 0.047631
v -0.248982 1.333750 0.047631
v -0.143750 1.438982 0.047631
v -0.000000 1.477500 0.047631
v 0.143750 1.438982 0.047631
v 0.248982 1.333750 0.047631
v 0.260000 1.190000 0.055000
v 0.225167 1.060000 0.055000
v 0.130000 0.964833 0.055000
v 0.000000 0.930000 0.055000
v -0.130000 0.964833 0.055000
v -0.225167 1.060000 0.055000
v -0.260000 1.190000 0.055000
v -0.225167 1.320000 0.055000
v -0.130000 1.415167 0.055000
v -0.000000 1.450000 0.055000
v 0.130000 1.415167 0.055000
v 0.225167 1.320000 0.055000
v 0.232500 1.190000 0.047631
v 0.201351 1.073750 0.047631
v 0.116250 0.988649 0.047631
v 0.000000 0.957500 0.047631
v -0.116250 0.988649 0.047631
v -0.201351 1.073750 0.047631
v -0.232500 1.190000 0.047631
v -0.201351 1.306250 0.047631
v -0.116250 1.391351 0.047631
v -0.000000 1.422500 0.047631
v 0.116250 1.391351 0.047631
v 0.201351 1.306250 0.047631
v 0.212369 1.190000 0.027500
v 0.183917 1.083816 0.027500
v 0.106184 1.006083 0.027500
v 0.000000 0.977631 0.027500
v -0.106184 1.006083 0.027500
v -0.183917 1.083816 0.027500
v -0.212369 1.190000 0.027500
v -0.183917 1.296184 0.027500
v -0.106184 1.373917 0.027500
v -0.000000 1.402369 0.027500
v 0.106184 1.373917 0.027500
v 0.183917 1.296184 0.027500
v 0.205000 1.190000 0.000000
v 0.177535 1.087500 0.000000
v 0.102500 1.012465 0.000000
v 0.000000 0.985000 0.000000
v -0.102500 1.012465 0.000000
v -0.177535 1.087500 0.000000
v -0.205000 1.190000 0.000000
v -0.177535 1.292500 0.000000
v -0.102500 1.367535 -0.000000
v -0.000000 1.395000 -0.000000
v 0.102500 1.367535 -0.000000
v 0.177535 1.292500 0.000000
v 0.212369 1.190000 -0.027500
v 0.183917 1.083816 -0.027500
v 0.106184 1.006083 -0.027500
v 0.000000 0.977631 -0.027500
v -0.106184 1.006083 -0.027500
v -0.183917 1.083816 -0.027500
v -0.212369 1.190000 -0.027500
v -0.183917 1.296184 -0.027500
v -0.106184 1.373917 -0.027500
v -0.000000 1.402369 -0.027500
v 0.106184 1.373917 -0.027500
v 0.183917 1.296184 -0.027500
v 0.232500 1.190000 -0.047631
v 0.201351 1.073750 -0.047631
v 0.116250 0.988649 -0.047631
v 0.000000 0.957500 -0.047631
v -0.116250 0.988649 -0.047631
v -0.201351 1.073750 -0.047631
v -0.232500 1.190000 -0.047631
v -0.201351 1.306250 -0.047631
v -0.116250 1.391351 -0.047631
v -0.000000 1.422500 -0.047631
v 0.116250 1.391351 -0.047631
v 0.201351 1.306250 -0.047631
v 0.260000 1.190000 -0.055000
v 0.225167 1.060000 -0.055000
v 0.130000 0.964833 -0.055000
v 0.000000 0.930000 -0.055000
v -0.130000 0.964833 -0.055000
v -0.225167 1.060000 -0.055000
v -0.260000 1.190000 -0.055000
v -0.225167 1.320000 -0.055000
v -0.130000 1.415167 -0.055000
v -0.000000 1.450000 -0.055000
v 0.130000 1.415167 -0.055000
v 0.225167 1.320000 -0.055000
v 0.287500 1.190000 -0.047631
v 0.248982 1.046250 -0.047631
v 0.143750 0.941018 -0.047631
v 0.000000 0.902500 -0.047631
v -0.143750 0.941018 -0.047631
v -0.248982 1.046250 -0.047631
v -0.287500 1.190000 -0.047631
v -0.248982 1.333750 -0.047631
v -0.143750 1.438982 -0.047631
v -0.000000 1.477500 -0.047631
v 0.143750 1.438982 -0.047631
v 0.248982 1.333750 -0.047631
v 0.307631 1.190000 -0.027500
v 0.266417 1.036184 -0.027500
v 0.153816 0.923583 -0.027500
v 0.000000 0.882369 -0.027500
v -0.153816 0.923583 -0.027500
v -0.266417 1.036184 -0.027500
v -0.307631 1.190000 -0.027500
v -0.266417 1.343816 -0.027500
v -0.153816 1.456417 -0.027500
v -0.000000 1.497631 -0.027500
v 0.153816 1.456417 -0.027500
v 0.266417 1.343816 -0.027500
v 0.315000 1.190000 0.000000
v 0.272798 1.032500 0.000000
v 0.157500 0.917202 0.000000
v 0.000000 0.875000 0.000000
v -0.157500 0.917202 0.000000
v -0.272798 1.032500 0.000000
v -0.315000 1.190000 0.000000
v -0.272798 1.347500 -0.000000
v -0.157500 1.462798 -0.000000
v -0.000000 1.505000 -0.000000
v 0.157500 1.462798 -0.000000
v 0.272798 1.347500 -0.000000
v 0.045000 0.180000 0.000000
v 0.013906 0.180000 0.042798
v -0.036406 0.180000 0.026450
v -0.036406 0.180000 -0.026450
v 0.013906 0.180000 -0.042798
v 0.045000 1.000000 0.000000
v 0.013906 1.000000 0.042798
v -0.036406 1.000000 0.026450
v -0.036406 1.000000 -0.026450
v 0.013906 1.000000 -0.042798
v 0.000000 0.180000 0.000000
v 0.000000 1.000000 0.000000
v 0.000000 -0.050000 0.000000
v 0.108000 -0.018800 0.000000
v 0.067337 -0.018800 0.084438
v -0.024032 -0.018800 0.105292
v -0.097305 -0.018800 0.046859
v -0.097305 -0.018800 -0.046859
v -0.024032 -0.018800 -0.105292
v 0.067337 -0.018800 -0.084438
v 0.150000 0.038400 0.000000
v 0.093523 0.038400 0.117275
v -0.033378 0.038400 0.146239
v -0.135145 0.038400 0.065083
v -0.135145 0.038400 -0.065083
v -0.033378 0.038400 -0.146239
v 0.093523 0.038400 -0.117275
v 0.120000 0.111200 0.000000
v 0.074819 0.111200 0.093820
v -0.026703 0.111200 0.116991
v -0.108116 0.111200 0.052066
v -0.108116 0.111200 -0.052066
v -0.026703 0.111200 -0.116991
v 0.074819 0.111200 -0.093820
v 0.063000 0.171000 0.000000
v 0.039280 0.171000 0.049255
v -0.014019 0.171000 0.061420
v -0.056761 0.171000 0.027335
v -0.056761 0.171000 -0.027335
v -0.014019 0.171000 -0.061420
v 0.039280 0.171000 -0.049255
v 0.000000 0.210000 0.000000
v 0.615000 0.280000 0.000000
v 0.583170 0.280000 0.195288
v 0.490976 0.280000 0.370361
v 0.347961 0.280000 0.507098
v 0.168927 0.280000 0.591345
v -0.027592 0.280000 0.614381
v -0.221255 0.280000 0.573822
v -0.392016 0.280000 0.473866
v -0.522199 0.280000 0.324859
v -0.598328 0.280000 0.142227
v -0.612524 0.280000 -0.055128
v -0.563317 0.280000 -0.246777
v -0.455801 0.280000 -0.412881
v -0.301104 0.280000 -0.536248
v -0.115240 0.280000 -0.604107
v 0.610311 0.297500 0.000000
v 0.578724 0.297500 0.193799
v 0.487233 0.297500 0.367537
v 0.345308 0.297500 0.503232
v 0.167639 0.297500 0.586836
v -0.027381 0.297500 0.609696
v -0.219568 0.297500 0.569446
v -0.389027 0.297500 0.470253
v -0.518217 0.297500 0.322382
v -0.593766 0.297500 0.141142
v -0.607854 0.297500 -0.054708
v -0.559022 0.297500 -0.244895
v -0.452325 0.297500 -0.409733
v -0.298808 0.297500 -0.532159
v -0.114361 0.297500 -0.599501
v 0.597500 0.310311 0.000000
v 0.566576 0.310311 0.189731
v 0.477005 0.310311 0.359822
v 0.338059 0.310311 0.492668
v 0.164120 0.310311 0.574518
v -0.026807 0.310311 0.596898
v -0.214959 0.310311 0.557493
v -0.380861 0.310311 0.460382
v -0.507339 0.310311 0.315615
v -0.581303 0.310311 0.138180
v -0.595095 0.310311 -0.053559
v -0.547288 0.310311 -0.239754
v -0.442831 0.310311 -0.401132
v -0.292536 0.310311 -0.520988
v -0.111960 0.310311 -0.586917
v 0.580000 0.315000 0.000000
v 0.549982 0.315000 0.184174
v 0.463034 0.315000 0.349284
v 0.328158 0.315000 0.478239
v 0.159314 0.315000 0.557691
v -0.026022 0.315000 0.579416
v -0.208663 0.315000 0.541165
v -0.369706 0.315000 0.446898
v -0.492480 0.315000 0.306371
v -0.564277 0.315000 0.134132
v -0.577665 0.315000 -0.051991
v -0.531259 0.315000 -0.232732
v -0.429861 0.315000 -0.389384
v -0.283968 0.315000 -0.505729
v -0.108681 0.315000 -0.569727
v 0.562500 0.310311 0.000000
v 0.533388 0.310311 0.178617
v 0.449064 0.310311 0.338745
v 0.318257 0.310311 0.463809
v 0.154507 0.310311 0.540864
v -0.025236 0.310311 0.561934
v -0.202367 0.310311 0.524837
v -0.358551 0.310311 0.433414
v -0.477621 0.310311 0.297127
v -0.547251 0.310311 0.130085
v -0.560236 0.310311 -0.050422
v -0.515229 0.310311 -0.225710
v -0.416891 0.310311 -0.377635
v -0.275400 0.310311 -0.490470
v -0.105402 0.310311 -0.552537
v 0.549689 0.297500 0.000000
v 0.521240 0.297500 0.174549
v 0.438836 0.297500 0.331030
v 0.311008 0.297500 0.453246
v 0.150988 0.297500 0.528546
v -0.024662 0.297500 0.549136
v -0.197758 0.297500 0.512884
v -0.350385 0.297500 0.423543
v -0.466743 0.297500 0.290360
v -0.534788 0.297500 0.127123
v -0.547476 0.297500 -0.049274
v -0.503495 0.297500 -0.220570
v -0.407396 0.297500 -0.369034
v -0.269128 0.297500 -0.479300
v -0.103001 0.297500 -0.539953
v 0.545000 0.280000 0.000000
v 0.516793 0.280000 0.173060
v 0.435093 0.280000 0.328206
v 0.308355 0.280000 0.449380
v 0.149700 0.280000 0.524037
v -0.024451 0.280000 0.544451
v -0.196071 0.280000 0.508509
v -0.347396 0.280000 0.419930
v -0.462761 0.280000 0.287884
v -0.530226 0.280000 0.126038
v -0.542806 0.280000 -0.048853
v -0.499200 0.280000 -0.218688
v -0.403921 0.280000 -0.365886
v -0.266832 0.280000 -0.475211
v -0.102123 0.280000 -0.535347
v 0.549689 0.262500 0.000000
v 0.521240 0.262500 0.174549
v 0.438836 0.262500 0.331030
v 0.311008 0.262500 0.453246
v 0.150988 0.262500 0.528546
v -0.024662 0.262500 0.549136
v -0.197758 0.262500 0.512884
v -0.350385 0.262500 0.423543
v -0.466743 0.262500 0.290360
v -0.534788 0.262500 0.127123
v -0.547476 0.262500 -0.049274
v -0.503495 0.262500 -0.220570
v -0.407396 0.262500 -0.369034
v -0.269128 0.262500 -0.479300
v -0.103001 0.262500 -0.539953
v 0.562500 0.249689 0.000000
v 0.533388 0.249689 0.178617
v 0.449064 0.249689 0.338745
v 0.318257 0.249689 0.463809
v 0.154507 0.249689 0.540864
v -0.025236 0.249689 0.561934
v -0.202367 0.249689 0.524837
v -0.358551 0.249689 0.433414
v -0.477621 0.249689 0.297127
v -0.547251 0.249689 0.130085
v -0.560236 0.249689 -0.050422
v -0.515229 0.249689 -0.225710
v -0.416891 0.249689 -0.377635
v -0.275400 0.249689 -0.490470
v -0.105402 0.249689 -0.552537
v 0.580000 0.245000 0.000000
v 0.549982 0.245000 0.184174
v 0.463034 0.245000 0.349284
v 0.328158 0.245000 0.478239
v 0.159314 0.245000 0.557691
v -0.026022 0.245000 0.579416
v -0.208663 0.245000 0.541165
v -0.369706 0.245000 0.446898
v -0.492480 0.245000 0.306371
v -0.564277 0.245000 0.134132
v -0.577665 0.245000 -0.051991
v -0.531259 0.245000 -0.232732
v -0.429861 0.245000 -0.389384
v -0.283968 0.245000 -0.505729
v -0.108681 0.245000 -0.569727
v 0.597500 0.249689 0.000000
v 0.566576 0.249689 0.189731
v 0.477005 0.249689 0.359822
v 0.338059 0.249689 0.492668
v 0.164120 0.249689 0.574518
v -0.026807 0.249689 0.596898
v -0.214959 0.249689 0.557493
v -0.380861 0.249689 0.460382
v -0.507339 0.249689 0.315615
v -0.581303 0.249689 0.138180
v -0.595095 0.249689 -0.053559
v -0.547288 0.249689 -0.239754
v -0.442831 0.249689 -0.401132
v -0.292536 0.249689 -0.520988
v -0.111960 0.249689 -0.586917
v 0.610311 0.262500 0.000000
v 0.578724 0.262500 0.193799
v 0.487233 0.262500 0.367537
v 0.345308 0.262500 0.503232
v 0.167639 0.262500 0.586836
v -0.027381 0.262500 0.609696
v -0.219568 0.262500 0.569446
v -0.389027 0.262500 0.470253
v -0.518217 0.262500 0.322382
v -0.593766 0.262500 0.141142
v -0.607854 0.262500 -0.054708
v -0.559022 0.262500 -0.244895
v -0.452325 0.262500 -0.409733
v -0.298808 0.262500 -0.532159
v -0.114361 0.262500 -0.599501
v 0.615000 0.280000 0.000000
v 0.583170 0.280000 0.195288
v 0.490976 0.280000 0.370361
v 0.347961 0.280000 0.507098
v 0.168927 0.280000 0.591345
v -0.027592 0.280000 0.614381
v -0.221255 0.280000 0.573822
v -0.392016 0.280000 0.473866
v -0.522199 0.280000 0.324859
v -0.598328 0.280000 0.142227
v -0.612524 0.280000 -0.055128
v -0.563317 0.280000 -0.246777
v -0.455801 0.280000 -0.412881
v -0.301104 0.280000 -0.536248
v -0.115240 0.280000 -0.604107
vt 0.000000 0.000000
vt 0.062500 0.000000
vt 0.125000 0.000000
vt 0.187500 0.000000
vt 0.250000 0.000000
vt 0.312500 0.000000
vt 0.375000 0.000000
vt 0.437500 0.000000
vt 0.500000 0.000000
vt 0.562500 0.000000
vt 0.625000 0.000000
vt 0.687500 0.000000
vt 0.750000 0.000000
vt 0.812500 0.000000
vt 0.875000 0.000000
vt 0.937500 0.000000
vt 0.000000 0.060607
vt 0.062500 0.060607
vt 0.125000 0.060607
vt 0.187500 0.060607
vt 0.250000 0.060607
vt 0.312500 0.060607
vt 0.375000 0.060607
vt 0.437500 0.060607
vt 0.500000 0.060607
vt 0.562500 0.060607
vt 0.625000 0.060607
vt 0.687500 0.060607
vt 0.750000 0.060607
vt 0.812500 0.060607
vt 0.875000 0.060607
vt 0.937500 0.060607
vt 0.000000 0.226033
vt 0.062500 0.226033
vt 0.125000 0.226033
vt 0.187500 0.226033
vt 0.250000 0.226033
vt 0.312500 0.226033
vt 0.375000 0.226033
vt 0.437500 0.226033
vt 0.500000 0.226033
vt 0.562500 0.226033
vt 0.625000 0.226033
vt 0.687500 0.226033
vt 0.750000 0.226033
vt 0.812500 0.226033
vt 0.875000 0.226033
vt 0.937500 0.226033
vt 0.000000 0.394128
vt 0.062500 0.394128
vt 0.125000 0.394128
vt 0.187500 0.394128
vt 0.250000 0.394128
vt 0.312500 0.394128
vt 0.375000 0.394128
vt 0.437500 0.394128
vt 0.500000 0.394128
vt 0.562500 0.394128
vt 0.625000 0.394128
vt 0.687500 0.394128
vt 0.750000 0.394128
vt 0.812500 0.394128
vt 0.875000 0.394128
vt 0.937500 0.394128
vt 0.000000 0.476563
vt 0.062500 0.476563
vt 0.125000 0.476563
vt 0.187500 0.476563
vt 0.250000 0.476563
vt 0.312500 0.476563
vt 0.375000 0.476563
vt 0.437500 0.476563
vt 0.500000 0.476563
vt 0.562500 0.476563
vt 0.625000 0.476563
vt 0.687500 0.476563
vt 0.750000 0.476563
vt 0.812500 0.476563
vt 0.875000 0.476563
vt 0.937500 0.476563
vt 0.000000 0.510391
vt 0.062500 0.510391
vt 0.125000 0.510391
vt 0.187500 0.510391
vt 0.250000 0.510391
vt 0.312500 0.510391
vt 0.375000 0.510391
vt 0.437500 0.510391
vt 0.500000 0.510391
vt 0.562500 0.510391
vt 0.625000 0.510391
vt 0.687500 0.510391
vt 0.750000 0.510391
vt 0.812500 0.510391
vt 0.875000 0.510391
vt 0.937500 0.510391
vt 0.000000 0.595607
vt 0.062500 0.595607
vt 0.125000 0.595607
vt 0.187500 0.595607
vt 0.250000 0.595607
vt 0.312500 0.595607
vt 0.375000 0.595607
vt 0.437500 0.595607
vt 0.500000 0.595607
vt 0.562500 0.595607
vt 0.625000 0.595607
vt 0.687500 0.595607
vt 0.750000 0.595607
vt 0.812500 0.595607
vt 0.875000 0.595607
vt 0.937500 0.595607
vt 0.000000 0.765457
vt 0.062500 0.765457
vt 0.125000 0.765457
vt 0.187500 0.765457
vt 0.250000 0.765457
vt 0.312500 0.765457
vt 0.375000 0.765457
vt 0.437500 0.765457
vt 0.500000 0.765457
vt 0.562500 0.765457
vt 0.625000 0.765457
vt 0.687500 0.765457
vt 0.750000 0.765457
vt 0.812500 0.765457
vt 0.875000 0.765457
vt 0.937500 0.765457
vt 0.000000 0.909323
vt 0.062500 0.909323
vt 0.125000 0.909323
vt 0.187500 0.909323
vt 0.250000 0.909323
vt 0.312500 0.909323
vt 0.375000 0.909323
vt 0.437500 0.909323
vt 0.500000 0.909323
vt 0.562500 0.909323
vt 0.625000 0.909323
vt 0.687500 0.909323
vt 0.750000 0.909323
vt 0.812500 0.909323
vt 0.875000 0.909323
vt 0.937500 0.909323
vt 0.000000 0.969930
vt 0.062500 0.969930
vt 0.125000 0.969930
vt 0.187500 0.969930
vt 0.250000 0.969930
vt 0.312500 0.969930
vt 0.375000 0.969930
vt 0.437500 0.969930
vt 0.500000 0.969930
vt 0.562500 0.969930
vt 0.625000 0.969930
vt 0.687500 0.969930
vt 0.750000 0.969930
vt 0.812500 0.969930
vt 0.875000 0.969930
vt 0.937500 0.969930
vt 0.000000 1.000000
vt 0.062500 1.000000
vt 0.125000 1.000000
vt 0.187500 1.000000
vt 0.250000 1.000000
vt 0.312500 1.000000
vt 0.375000 1.000000
vt 0.437500 1.000000
vt 0.500000 1.000000
vt 0.562500 1.000000
vt 0.625000 1.000000
vt 0.687500 1.000000
vt 0.750000 1.000000
vt 0.812500 1.000000
vt 0.875000 1.000000
vt 0.937500 1.000000
vt 0.000000 0.000000
vt 0.062500 0.000000
vt 0.125000 0.000000
vt 0.187500 0.000000
vt 0.250000 0.000000
vt 0.312500 0.000000
vt 0.375000 0.000000
vt 0.437500 0.000000
vt 0.500000 0.000000
vt 0.562500 0.000000
vt 0.625000 0.000000
vt 0.687500 0.000000
vt 0.750000 0.000000
vt 0.812500 0.000000
vt 0.875000 0.000000
vt 0.937500 0.000000
vt 0.000000 0.083333
vt 0.062500 0.083333
vt 0.125000 0.083333
vt 0.187500 0.083333
vt 0.250000 0.083333
vt 0.312500 0.083333
vt 0.375000 0.083333
vt 0.437500 0.083333
vt 0.500000 0.083333
vt 0.562500 0.083333
vt 0.625000 0.083333
vt 0.687500 0.083333
vt 0.750000 0.083333
vt 0.812500 0.083333
vt 0.875000 0.083333
vt 0.937500 0.083333
vt 0.000000 0.166667
vt 0.062500 0.166667
vt 0.125000 0.166667
vt 0.187500 0.166667
vt 0.250000 0.166667
vt 0.312500 0.166667
vt 0.375000 0.166667
vt 0.437500 0.166667
vt 0.500000 0.166667
vt 0.562500 0.166667
vt 0.625000 0.166667
vt 0.687500 0.166667
vt 0.750000 0.166667
vt 0.812500 0.166667
vt 0.875000 0.166667
vt 0.937500 0.166667
vt 0.000000 0.250000
vt 0.062500 0.250000
vt 0.125000 0.250000
vt 0.187500 0.250000
vt 0.250000 0.250000
vt 0.312500 0.250000
vt 0.375000 0.250000
vt 0.437500 0.250000
vt 0.500000 0.250000
vt 0.562500 0.250000
vt 0.625000 0.250000
vt 0.687500 0.250000
vt 0.750000 0.250000
vt 0.812500 0.250000
vt 0.875000 0.250000
vt 0.937500 0.250000
vt 0.000000 0.333333
vt 0.062500 0.333333
vt 0.125000 0.333333
vt 0.187500 0.333333
vt 0.250000 0.333333
vt 0.312500 0.333333
vt 0.375000 0.333333
vt 0.437500 0.333333
vt 0.500000 0.333333
vt 0.562500 0.333333
vt 0.625000 0.333333
vt 0.687500 0.333333
vt 0.750000 0.333333
vt 0.812500 0.333333
vt 0.875000 0.333333
vt 0.937500 0.333333
vt 0.000000 0.416667
vt 0.062500 0.416667
vt 0.125000 0.416667
vt 0.187500 0.416667
vt 0.250000 0.416667
vt 0.312500 0.416667
vt 0.375000 0.416667
vt 0.437500 0.416667
vt 0.500000 0.416667
vt 0.562500 0.416667
vt 0.625000 0.416667
vt 0.687500 0.416667
vt 0.750000 0.416667
vt 0.812500 0.416667
vt 0.875000 0.416667
vt 0.937500 0.416667
vt 0.000000 0.500000
vt 0.062500 0.500000
vt 0.125000 0.500000
vt 0.187500 0.500000
vt 0.250000 0.500000
vt 0.312500 0.500000
vt 0.375000 0.500000
vt 0.437500 0.500000
vt 0.500000 0.500000
vt 0.562500 0.500000
vt 0.625000 0.500000
vt 0.687500 0.500000
vt 0.750000 0.500000
vt 0.812500 0.500000
vt 0.875000 0.500000
vt 0.937500 0.500000
vt 0.000000 0.583333
vt 0.062500 0.583333
vt 0.125000 0.583333
vt 0.187500 0.583333
vt 0.250000 0.583333
vt 0.312500 0.583333
vt 0.375000 0.583333
vt 0.437500 0.583333
vt 0.500000 0.583333
vt 0.562500 0.583333
vt 0.625000 0.583333
vt 0.687500 0.583333
vt 0.750000 0.583333
vt 0.812500 0.583333
vt 0.875000 0.583333
vt 0.937500 0.583333
vt 0.000000 0.666667
vt 0.062500 0.666667
vt 0.125000 0.666667
vt 0.187500 0.666667
vt 0.250000 0.666667
vt 0.312500 0.666667
vt 0.375000 0.666667
vt 0.437500 0.666667
vt 0.500000 0.666667
vt 0.562500 0.666667
vt 0.625000 0.666667
vt 0.687500 0.666667
vt 0.750000 0.666667
vt 0.812500 0.666667
vt 0.875000 0.666667
vt 0.937500 0.666667
vt 0.000000 0.750000
vt 0.062500 0.750000
vt 0.125000 0.750000
vt 0.187500 0.750000
vt 0.250000 0.750000
vt 0.312500 0.750000
vt 0.375000 0.750000
vt 0.437500 0.750000
vt 0.500000 0.750000
vt 0.562500 0.750000
vt 0.625000 0.750000
vt 0.687500 0.750000
vt 0.750000 0.750000
vt 0.812500 0.750000
vt 0.875000 0.750000
vt 0.937500 0.750000
vt 0.000000 0.833333
vt 0.062500 0.833333
vt 0.125000 0.833333
vt 0.187500 0.833333
vt 0.250000 0.833333
vt 0.312500 0.833333
vt 0.375000 0.833333
vt 0.437500 0.833333
vt 0.500000 0.833333
vt 0.562500 0.833333
vt 0.625000 0.833333
vt 0.687500 0.833333
vt 0.750000 0.833333
vt 0.812500 0.833333
vt 0.875000 0.833333
vt 0.937500 0.833333
vt 0.000000 0.916667
vt 0.062500 0.916667
vt 0.125000 0.916667
vt 0.187500 0.916667
vt 0.250000 0.916667
vt 0.312500 0.916667
vt 0.375000 0.916667
vt 0.437500 0.916667
vt 0.500000 0.916667
vt 0.562500 0.916667
vt 0.625000 0.916667
vt 0.687500 0.916667
vt 0.750000 0.916667
vt 0.812500 0.916667
vt 0.875000 0.916667
vt 0.937500 0.916667
vt 0.000000 1.000000
vt 0.062500 1.000000
vt 0.125000 1.000000
vt 0.187500 1.000000
vt 0.250000 1.000000
vt 0.312500 1.000000
vt 0.375000 1.000000
vt 0.437500 1.000000
vt 0.500000 1.000000
vt 0.562500 1.000000
vt 0.625000 1.000000
vt 0.687500 1.000000
vt 0.750000 1.000000
vt 0.812500 1.000000
vt 0.875000 1.000000
vt 0.937500 1.000000
vt 0.000000 0.000000
vt 0.083333 0.000000
vt 0.166667 0.000000
vt 0.250000 0.000000
vt 0.333333 0.000000
vt 0.416667 0.000000
vt 0.500000 0.000000
vt 0.583333 0.000000
vt 0.666667 0.000000
vt 0.750000 0.000000
vt 0.833333 0.000000
vt 0.916667 0.000000
vt 0.000000 0.083333
vt 0.083333 0.083333
vt 0.166667 0.083333
vt 0.250000 0.083333
vt 0.333333 0.083333
vt 0.416667 0.083333
vt 0.500000 0.083333
vt 0.583333 0.083333
vt 0.666667 0.083333
vt 0.750000 0.083333
vt 0.833333 0.083333
vt 0.916667 0.083333
vt 0.000000 0.166667
vt 0.083333 0.166667
vt 0.166667 0.166667
vt 0.250000 0.166667
vt 0.333333 0.166667
vt 0.416667 0.166667
vt 0.500000 0.166667
vt 0.583333 0.166667
vt 0.666667 0.166667
vt 0.750000 0.166667
vt 0.833333 0.166667
vt 0.916667 0.166667
vt 0.000000 0.250000
vt 0.083333 0.250000
vt 0.166667 0.250000
vt 0.250000 0.250000
vt 0.333333 0.250000
vt 0.416667 0.250000
vt 0.500000 0.250000
vt 0.583333 0.250000
vt 0.666667 0.250000
vt 0.750000 0.250000
vt 0.833333 0.250000
vt 0.916667 0.250000
vt 0.000000 0.333333
vt 0.083333 0.333333
vt 0.166667 0.333333
vt 0.250000 0.333333
vt 0.333333 0.333333
vt 0.416667 0.333333
vt 0.500000 0.333333
vt 0.583333 0.333333
vt 0.666667 0.333333
vt 0.750000 0.333333
vt 0.833333 0.333333
vt 0.916667 0.333333
vt 0.000000 0.416667
vt 0.083333 0.416667
vt 0.166667 0.416667
vt 0.250000 0.416667
vt 0.333333 0.416667
vt 0.416667 0.416667
vt 0.500000 0.416667
vt 0.583333 0.416667
vt 0.666667 0.416667
vt 0.750000 0.416667
vt 0.833333 0.416667
vt 0.916667 0.416667
vt 0.000000 0.500000
vt 0.083333 0.500000
vt 0.166667 0.500000
vt 0.250000 0.500000
vt 0.333333 0.500000
vt 0.416667 0.500000
vt 0.500000 0.500000
vt 0.583333 0.500000
vt 0.666667 0.500000
vt 0.750000 0.500000
vt 0.833333 0.500000
vt 0.916667 0.500000
vt 0.000000 0.583333
vt 0.083333 0.583333
vt 0.166667 0.583333
vt 0.250000 0.583333
vt 0.333333 0.583333
vt 0.416667 0.583333
vt 0.500000 0.583333
vt 0.583333 0.583333
vt 0.666667 0.583333
vt 0.750000 0.583333
vt 0.833333 0.583333
vt 0.916667 0.583333
vt 0.000000 0.666667
vt 0.083333 0.666667
vt 0.166667 0.666667
vt 0.250000 0.666667
vt 0.333333 0.666667
vt 0.416667 0.666667
vt 0.500000 0.666667
vt 0.583333 0.666667
vt 0.666667 0.666667
vt 0.750000 0.666667
vt 0.833333 0.666667
vt 0.916667 0.666667
vt 0.000000 0.750000
vt 0.083333 0.750000
vt 0.166667 0.750000
vt 0.250000 0.750000
vt 0.333333 0.750000
vt 0.416667 0.750000
vt 0.500000 0.750000
vt 0.583333 0.750000
vt 0.666667 0.750000
vt 0.750000 0.750000
vt 0.833333 0.750000
vt 0.916667 0.750000
vt 0.000000 0.833333
vt 0.083333 0.833333
vt 0.166667 0.833333
vt 0.250000 0.833333
vt 0.333333 0.833333
vt 0.416667 0.833333
vt 0.500000 0.833333
vt 0.583333 0.833333
vt 0.666667 0.833333
vt 0.750000 0.833333
vt 0.833333 0.833333
vt 0.916667 0.833333
vt 0.000000 0.916667
vt 0.083333 0.916667
vt 0.166667 0.916667
vt 0.250000 0.916667
vt 0.333333 0.916667
vt 0.416667 0.916667
vt 0.500000 0.916667
vt 0.583333 0.916667
vt 0.666667 0.916667
vt 0.750000 0.916667
vt 0.833333 0.916667
vt 0.916667 0.916667
vt 0.000000 1.000000
vt 0.083333 1.000000
vt 0.166667 1.000000
vt 0.250000 1.000000
vt 0.333333 1.000000
vt 0.416667 1.000000
vt 0.500000 1.000000
vt 0.583333 1.000000
vt 0.666667 1.000000
vt 0.750000 1.000000
vt 0.833333 1.000000
vt 0.916667 1.000000
vt 0.000000 0.000000
vt 0.200000 0.000000
vt 0.400000 0.000000
vt 0.600000 0.000000
vt 0.800000 0.000000
vt 0.000000 1.000000
vt 0.200000 1.000000
vt 0.400000 1.000000
vt 0.600000 1.000000
vt 0.800000 1.000000
vt 0.500000 0.000000
vt 0.500000 1.000000
vt 0.000000 0.000000
vt 0.166667 0.000000
vt 0.333333 0.000000
vt 0.500000 0.000000
vt 0.666667 0.000000
vt 0.833333 0.000000
vt 1.000000 0.000000
vt 0.000000 0.268407
vt 0.142857 0.268407
vt 0.285714 0.268407
vt 0.428571 0.268407
vt 0.571429 0.268407
vt 0.714286 0.268407
vt 0.857143 0.268407
vt 0.000000 0.437841
vt 0.142857 0.437841
vt 0.285714 0.437841
vt 0.428571 0.437841
vt 0.571429 0.437841
vt 0.714286 0.437841
vt 0.857143 0.437841
vt 0.000000 0.625840
vt 0.142857 0.625840
vt 0.285714 0.625840
vt 0.428571 0.625840
vt 0.571429 0.625840
vt 0.714286 0.625840
vt 0.857143 0.625840
vt 0.000000 0.823091
vt 0.142857 0.823091
vt 0.285714 0.823091
vt 0.428571 0.823091
vt 0.571429 0.823091
vt 0.714286 0.823091
vt 0.857143 0.823091
vt 0.000000 1.000000
vt 0.166667 1.000000
vt 0.333333 1.000000
vt 0.500000 1.000000
vt 0.666667 1.000000
vt 0.833333 1.000000
vt 1.000000 1.000000
vt 0.000000 0.000000
vt 0.051429 0.000000
vt 0.102857 0.000000
vt 0.154286 0.000000
vt 0.205714 0.000000
vt 0.257143 0.000000
vt 0.308571 0.000000
vt 0.360000 0.000000
vt 0.411429 0.000000
vt 0.462857 0.000000
vt 0.514286 0.000000
vt 0.565714 0.000000
vt 0.617143 0.000000
vt 0.668571 0.000000
vt 0.720000 0.000000
vt 0.000000 0.083333
vt 0.051429 0.083333
vt 0.102857 0.083333
vt 0.154286 0.083333
vt 0.205714 0.083333
vt 0.257143 0.083333
vt 0.308571 0.083333
vt 0.360000 0.083333
vt 0.411429 0.083333
vt 0.462857 0.083333
vt 0.514286 0.083333
vt 0.565714 0.083333
vt 0.617143 0.083333
vt 0.668571 0.083333
vt 0.720000 0.083333
vt 0.000000 0.166667
vt 0.051429 0.166667
vt 0.102857 0.166667
vt 0.154286 0.166667
vt 0.205714 0.166667
vt 0.257143 0.166667
vt 0.308571 0.166667
vt 0.360000 0.166667
vt 0.411429 0.166667
vt 0.462857 0.166667
vt 0.514286 0.166667
vt 0.565714 0.166667
vt 0.617143 0.166667
vt 0.668571 0.166667
vt 0.720000 0.166667
vt 0.000000 0.250000
vt 0.051429 0.250000
vt 0.102857 0.250000
vt 0.154286 0.250000
vt 0.205714 0.250000
vt 0.257143 0.250000
vt 0.308571 0.250000
vt 0.360000 0.250000
vt 0.411429 0.250000
vt 0.462857 0.250000
vt 0.514286 0.250000
vt 0.565714 0.250000
vt 0.617143 0.250000
vt 0.668571 0.250000
vt 0.720000 0.250000
vt 0.000000 0.333333
vt 0.051429 0.333333
vt 0.102857 0.333333
vt 0.154286 0.333333
vt 0.205714 0.333333
vt 0.257143 0.333333
vt 0.308571 0.333333
vt 0.360000 0.333333
vt 0.411429 0.333333
vt 0.462857 0.333333
vt 0.514286 0.333333
vt 0.565714 0.333333
vt 0.617143 0.333333
vt 0.668571 0.333333
vt 0.720000 0.333333
vt 0.000000 0.416667
vt 0.051429 0.416667
vt 0.102857 0.416667
vt 0.154286 0.416667
vt 0.205714 0.416667
vt 0.257143 0.416667
vt 0.308571 0.416667
vt 0.360000 0.416667
vt 0.411429 0.416667
vt 0.462857 0.416667
vt 0.514286 0.416667
vt 0.565714 0.416667
vt 0.617143 0.416667
vt 0.668571 0.416667
vt 0.720000 0.416667
vt 0.000000 0.500000
vt 0.051429 0.500000
vt 0.102857 0.500000
vt 0.154286 0.500000
vt 0.205714 0.500000
vt 0.257143 0.500000
vt 0.308571 0.500000
vt 0.360000 0.500000
vt 0.411429 0.500000
vt 0.462857 0.500000
vt 0.514286 0.500000
vt 0.565714 0.500000
vt 0.617143 0.500000
vt 0.668571 0.500000
vt 0.720000 0.500000
vt 0.000000 0.583333
vt 0.051429 0.583333
vt 0.102857 0.583333
vt 0.154286 0.583333
vt 0.205714 0.583333
vt 0.257143 0.583333
vt 0.308571 0.583333
vt 0.360000 0.583333
vt 0.411429 0.583333
vt 0.462857 0.583333
vt 0.514286 0.583333
vt 0.565714 0.583333
vt 0.617143 0.583333
vt 0.668571 0.583333
vt 0.720000 0.583333
vt 0.000000 0.666667
vt 0.051429 0.666667
vt 0.102857 0.666667
vt 0.154286 0.666667
vt 0.205714 0.666667
vt 0.257143 0.666667
vt 0.308571 0.666667
vt 0.360000 0.666667
vt 0.411429 0.666667
vt 0.462857 0.666667
vt 0.514286 0.666667
vt 0.565714 0.666667
vt 0.617143 0.666667
vt 0.668571 0.666667
vt 0.720000 0.666667
vt 0.000000 0.750000
vt 0.051429 0.750000
vt 0.102857 0.750000
vt 0.154286 0.750000
vt 0.205714 0.750000
vt 0.257143 0.750000
vt 0.308571 0.750000
vt 0.360000 0.750000
vt 0.411429 0.750000
vt 0.462857 0.750000
vt 0.514286 0.750000
vt 0.565714 0.750000
vt 0.617143 0.750000
vt 0.668571 0.750000
vt 0.720000 0.750000
vt 0.000000 0.833333
vt 0.051429 0.833333
vt 0.102857 0.833333
vt 0.154286 0.833333
vt 0.205714 0.833333
vt 0.257143 0.833333
vt 0.308571 0.833333
vt 0.360000 0.833333
vt 0.411429 0.833333
vt 0.462857 0.833333
vt 0.514286 0.833333
vt 0.565714 0.833333
vt 0.617143 0.833333
vt 0.668571 0.833333
vt 0.720000 0.833333
vt 0.000000 0.916667
vt 0.051429 0.916667
vt 0.102857 0.916667
vt 0.154286 0.916667
vt 0.205714 0.916667
vt 0.257143 0.916667
vt 0.308571 0.916667
vt 0.360000 0.916667
vt 0.411429 0.916667
vt 0.462857 0.916667
vt 0.514286 0.916667
vt 0.565714 0.916667
vt 0.617143 0.916667
vt 0.668571 0.916667
vt 0.720000 0.916667
vt 0.000000 1.000000
vt 0.051429 1.000000
vt 0.102857 1.000000
vt 0.154286 1.000000
vt 0.205714 1.000000
vt 0.257143 1.000000
vt 0.308571 1.000000
vt 0.360000 1.000000
vt 0.411429 1.000000
vt 0.462857 1.000000
vt 0.514286 1.000000
vt 0.565714 1.000000
vt 0.617143 1.000000
vt 0.668571 1.000000
vt 0.720000 1.000000
vn -0.868243 0.496139 0.000000
vn -0.802152 0.496139 -0.332262
vn -0.921347 0.073993 -0.381634
vn -0.997259 0.073993 0.000000
vn -0.613941 0.496139 -0.613941
vn -0.705168 0.073993 -0.705168
vn -0.332262 0.496139 -0.802152
vn -0.381634 0.073993 -0.921347
vn 0.000000 0.496139 -0.868243
vn 0.000000 0.073993 -0.997259
vn 0.332262 0.496139 -0.802152
vn 0.381634 0.073993 -0.921347
vn 0.613941 0.496139 -0.613941
vn 0.705168 0.073993 -0.705168
vn 0.802152 0.496139 -0.332262
vn 0.921347 0.073993 -0.381634
vn 0.868243 0.496139 -0.000000
vn 0.997259 0.073993 -0.000000
vn 0.802152 0.496139 0.332262
vn 0.921347 0.073993 0.381634
vn 0.613941 0.496139 0.613941
vn 0.705168 0.073993 0.705168
vn 0.332262 0.496139 0.802152
vn 0.381634 0.073993 0.921347
vn 0.000000 0.496139 0.868243
vn 0.000000 0.073993 0.997259
vn -0.332262 0.496139 0.802152
vn -0.381634 0.073993 0.921347
vn -0.613941 0.496139 0.613941
vn -0.705168 0.073993 0.705168
vn -0.802152 0.496139 0.332262
vn -0.921347 0.073993 0.381634
vn -0.844378 -0.405831 -0.349753
vn -0.913948 -0.405831 0.000000
vn -0.646259 -0.405831 -0.646259
vn -0.349753 -0.405831 -0.844378
vn 0.000000 -0.405831 -0.913948
vn 0.349753 -0.405831 -0.844378
vn 0.646259 -0.405831 -0.646259
vn 0.844378 -0.405831 -0.349753
vn 0.913948 -0.405831 -0.000000
vn 0.844378 -0.405831 0.349753
vn 0.646259 -0.405831 0.646259
vn 0.349753 -0.405831 0.844378
vn 0.000000 -0.405831 0.913948
vn -0.349753 -0.405831 0.844378
vn -0.646259 -0.405831 0.646259
vn -0.844378 -0.405831 0.349753
vn -0.740366 -0.598173 -0.306670
vn -0.801367 -0.598173 0.000000
vn -0.566652 -0.598173 -0.566652
vn -0.306670 -0.598173 -0.740366
vn 0.000000 -0.598173 -0.801367
vn 0.306670 -0.598173 -0.740366
vn 0.566652 -0.598173 -0.566652
vn 0.740366 -0.598173 -0.306670
vn 0.801367 -0.598173 -0.000000
vn 0.740366 -0.598173 0.306670
vn 0.566652 -0.598173 0.566652
vn 0.306670 -0.598173 0.740366
vn 0.000000 -0.598173 0.801367
vn -0.306670 -0.598173 0.740366
vn -0.566652 -0.598173 0.566652
vn -0.740366 -0.598173 0.306670
vn -0.338188 -0.930595 -0.140082
vn -0.366052 -0.930595 0.000000
vn -0.258838 -0.930595 -0.258838
vn -0.140082 -0.930595 -0.338188
vn 0.000000 -0.930595 -0.366052
vn 0.140082 -0.930595 -0.338188
vn 0.258838 -0.930595 -0.258838
vn 0.338188 -0.930595 -0.140082
vn 0.366052 -0.930595 -0.000000
vn 0.338188 -0.930595 0.140082
vn 0.258838 -0.930595 0.258838
vn 0.140082 -0.930595 0.338188
vn 0.000000 -0.930595 0.366052
vn -0.140082 -0.930595 0.338188
vn -0.258838 -0.930595 0.258838
vn -0.338188 -0.930595 0.140082
vn 0.837411 -0.422405 0.346867
vn 0.906407 -0.422405 -0.000000
vn 0.640927 -0.422405 0.640927
vn 0.346867 -0.422405 0.837411
vn 0.000000 -0.422405 0.906407
vn -0.346867 -0.422405 0.837411
vn -0.640927 -0.422405 0.640927
vn -0.837411 -0.422405 0.346867
vn -0.906407 -0.422405 0.000000
vn -0.837411 -0.422405 -0.346867
vn -0.640927 -0.422405 -0.640927
vn -0.346867 -0.422405 -0.837411
vn -0.000000 -0.422405 -0.906407
vn 0.346867 -0.422405 -0.837411
vn 0.640927 -0.422405 -0.640927
vn 0.837411 -0.422405 -0.346867
vn 0.773382 0.547047 0.320345
vn 0.837102 0.547047 -0.000000
vn 0.591921 0.547047 0.591921
vn 0.320345 0.547047 0.773382
vn 0.000000 0.547047 0.837102
vn -0.320345 0.547047 0.773382
vn -0.591921 0.547047 0.591921
vn -0.773382 0.547047 0.320345
vn -0.837102 0.547047 0.000000
vn -0.773382 0.547047 -0.320345
vn -0.591921 0.547047 -0.591921
vn -0.320345 0.547047 -0.773382
vn -0.000000 0.547047 -0.837102
vn 0.320345 0.547047 -0.773382
vn 0.591921 0.547047 -0.591921
vn 0.773382 0.547047 -0.320345
vn 0.854409 0.380440 0.353908
vn 0.924806 0.380440 -0.000000
vn 0.653936 0.380440 0.653936
vn 0.353908 0.380440 0.854409
vn 0.000000 0.380440 0.924806
vn -0.353908 0.380440 0.854409
vn -0.653936 0.380440 0.653936
vn -0.854409 0.380440 0.353908
vn -0.924806 0.380440 0.000000
vn -0.854409 0.380440 -0.353908
vn -0.653936 0.380440 -0.653936
vn -0.353908 0.380440 -0.854409
vn -0.000000 0.380440 -0.924806
vn 0.353908 0.380440 -0.854409
vn 0.653936 0.380440 -0.653936
vn 0.854409 0.380440 -0.353908
vn 0.918161 0.111091 0.380315
vn 0.993810 0.111091 -0.000000
vn 0.702730 0.111091 0.702730
vn 0.380315 0.111091 0.918161
vn -0.000000 0.111091 0.993810
vn -0.380315 0.111091 0.918161
vn -0.702730 0.111091 0.702730
vn -0.918161 0.111091 0.380315
vn -0.993810 0.111091 0.000000
vn -0.918161 0.111091 -0.380315
vn -0.702730 0.111091 -0.702730
vn -0.380315 0.111091 -0.918161
vn -0.000000 0.111091 -0.993810
vn 0.380315 0.111091 -0.918161
vn 0.702730 0.111091 -0.702730
vn 0.918161 0.111091 -0.380315
vn 0.685955 0.669877 0.284132
vn 0.742472 0.669877 -0.000000
vn 0.525007 0.669877 0.525007
vn 0.284132 0.669877 0.685955
vn -0.000000 0.669877 0.742472
vn -0.284132 0.669877 0.685955
vn -0.525007 0.669877 0.525007
vn -0.685955 0.669877 0.284132
vn -0.742472 0.669877 0.000000
vn -0.685955 0.669877 -0.284132
vn -0.525007 0.669877 -0.525007
vn -0.284132 0.669877 -0.685955
vn -0.000000 0.669877 -0.742472
vn 0.284132 0.669877 -0.685955
vn 0.525007 0.669877 -0.525007
vn 0.685955 0.669877 -0.284132
vn 0.000000 1.000000 0.000000
vn -0.965926 -0.258819 -0.000000
vn -0.892399 -0.258819 -0.369644
vn -0.799587 -0.500966 -0.331200
vn -0.865467 -0.500966 0.000000
vn -0.683013 -0.258819 -0.683013
vn -0.611977 -0.500966 -0.611977
vn -0.369644 -0.258819 -0.892399
vn -0.331200 -0.500966 -0.799587
vn 0.000000 -0.258819 -0.965926
vn -0.000000 -0.500966 -0.865467
vn 0.369644 -0.258819 -0.892399
vn 0.331200 -0.500966 -0.799587
vn 0.683013 -0.258819 -0.683013
vn 0.611977 -0.500966 -0.611977
vn 0.892399 -0.258819 -0.369644
vn 0.799587 -0.500966 -0.331200
vn 0.965926 -0.258819 -0.000000
vn 0.865467 -0.500966 -0.000000
vn 0.892399 -0.258819 0.369644
vn 0.799587 -0.500966 0.331200
vn 0.683013 -0.258819 0.683013
vn 0.611977 -0.500966 0.611977
vn 0.369644 -0.258819 0.892399
vn 0.331200 -0.500966 0.799587
vn 0.000000 -0.258819 0.965926
vn 0.000000 -0.500966 0.865467
vn -0.369644 -0.258819 0.892399
vn -0.331200 -0.500966 0.799587
vn -0.683013 -0.258819 0.683013
vn -0.611977 -0.500966 0.611977
vn -0.892399 -0.258819 0.369644
vn -0.799587 -0.500966 0.331200
vn -0.461031 -0.866592 -0.190965
vn -0.499017 -0.866592 0.000000
vn -0.352858 -0.866592 -0.352858
vn -0.190965 -0.866592 -0.461031
vn -0.000000 -0.866592 -0.499017
vn 0.190965 -0.866592 -0.461031
vn 0.352858 -0.866592 -0.352858
vn 0.461031 -0.866592 -0.190965
vn 0.499017 -0.866592 -0.000000
vn 0.461031 -0.866592 0.190965
vn 0.352858 -0.866592 0.352858
vn 0.190965 -0.866592 0.461031
vn 0.000000 -0.866592 0.499017
vn -0.190965 -0.866592 0.461031
vn -0.352858 -0.866592 0.352858
vn -0.461031 -0.866592 0.190965
vn -0.000000 -1.000000 -0.000000
vn 0.923880 -0.000000 0.382683
vn 1.000000 -0.000000 -0.000000
vn 0.707107 -0.000000 0.707107
vn 0.382683 -0.000000 0.923880
vn 0.000000 -0.000000 1.000000
vn -0.382683 -0.000000 0.923880
vn -0.707107 -0.000000 0.707107
vn -0.923880 -0.000000 0.382683
vn -1.000000 -0.000000 0.000000
vn -0.923880 -0.000000 -0.382683
vn -0.707107 -0.000000 -0.707107
vn -0.382683 -0.000000 -0.923880
vn -0.000000 -0.000000 -1.000000
vn 0.382683 -0.000000 -0.923880
vn 0.707107 -0.000000 -0.707107
vn 0.923880 -0.000000 -0.382683
vn 0.799587 0.500966 0.331200
vn 0.865467 0.500966 -0.000000
vn 0.611977 0.500966 0.611977
vn 0.331200 0.500966 0.799587
vn -0.000000 0.500966 0.865467
vn -0.331200 0.500966 0.799587
vn -0.611977 0.500966 0.611977
vn -0.799587 0.500966 0.331200
vn -0.865467 0.500966 0.000000
vn -0.799587 0.500966 -0.331200
vn -0.611977 0.500966 -0.611977
vn -0.331200 0.500966 -0.799587
vn -0.000000 0.500966 -0.865467
vn 0.331200 0.500966 -0.799587
vn 0.611977 0.500966 -0.611977
vn 0.799587 0.500966 -0.331200
vn 0.461031 0.866592 0.190965
vn 0.499017 0.866592 -0.000000
vn 0.352858 0.866592 0.352858
vn 0.190965 0.866592 0.461031
vn -0.000000 0.866592 0.499017
vn -0.190965 0.866592 0.461031
vn -0.352858 0.866592 0.352858
vn -0.461031 0.866592 0.190965
vn -0.499017 0.866592 0.000000
vn -0.461031 0.866592 -0.190965
vn -0.352858 0.866592 -0.352858
vn -0.190965 0.866592 -0.461031
vn -0.000000 0.866592 -0.499017
vn 0.190965 0.866592 -0.461031
vn 0.352858 0.866592 -0.352858
vn 0.461031 0.866592 -0.190965
vn -0.892399 0.258819 -0.369644
vn -0.965926 0.258819 0.000000
vn -0.683013 0.258819 -0.683013
vn -0.369644 0.258819 -0.892399
vn 0.000000 0.258819 -0.965926
vn 0.369644 0.258819 -0.892399
vn 0.683013 0.258819 -0.683013
vn 0.892399 0.258819 -0.369644
vn 0.965926 0.258819 -0.000000
vn 0.892399 0.258819 0.369644
vn 0.683013 0.258819 0.683013
vn 0.369644 0.258819 0.892399
vn 0.000000 0.258819 0.965926
vn -0.369644 0.258819 0.892399
vn -0.683013 0.258819 0.683013
vn -0.892399 0.258819 0.369644
vn -0.965926 -0.000000 -0.258819
vn -0.836516 0.482963 -0.258819
vn -0.749141 0.432517 -0.501714
vn -0.865033 -0.000000 -0.501714
vn -0.482963 0.836516 -0.258819
vn -0.432517 0.749141 -0.501714
vn 0.000000 0.965926 -0.258819
vn -0.000000 0.865033 -0.501714
vn 0.482963 0.836516 -0.258819
vn 0.432517 0.749141 -0.501714
vn 0.836516 0.482963 -0.258819
vn 0.749141 0.432517 -0.501714
vn 0.965926 -0.000000 -0.258819
vn 0.865033 -0.000000 -0.501714
vn 0.836516 -0.482963 -0.258819
vn 0.749141 -0.432517 -0.501714
vn 0.482963 -0.836516 -0.258819
vn 0.432517 -0.749141 -0.501714
vn 0.000000 -0.965926 -0.258819
vn 0.000000 -0.865033 -0.501714
vn -0.482963 -0.836516 -0.258819
vn -0.432517 -0.749141 -0.501714
vn -0.836516 -0.482963 -0.258819
vn -0.749141 -0.432517 -0.501714
vn -0.431481 0.249116 -0.867044
vn -0.498231 -0.000000 -0.867044
vn -0.249116 0.431481 -0.867044
vn -0.000000 0.498231 -0.867044
vn 0.249116 0.431481 -0.867044
vn 0.431481 0.249116 -0.867044
vn 0.498231 -0.000000 -0.867044
vn 0.431481 -0.249116 -0.867044
vn 0.249116 -0.431481 -0.867044
vn 0.000000 -0.498231 -0.867044
vn -0.249116 -0.431481 -0.867044
vn -0.431481 -0.249116 -0.867044
vn 0.866025 -0.500000 -0.000000
vn 0.500000 -0.866025 -0.000000
vn -0.500000 -0.866025 -0.000000
vn -0.866025 -0.500000 -0.000000
vn -0.866025 0.500000 -0.000000
vn -0.500000 0.866025 -0.000000
vn 0.500000 0.866025 -0.000000
vn 0.866025 0.500000 -0.000000
vn 0.749141 -0.432517 0.501714
vn 0.865033 0.000000 0.501714
vn 0.432517 -0.749141 0.501714
vn 0.000000 -0.865033 0.501714
vn -0.432517 -0.749141 0.501714
vn -0.749141 -0.432517 0.501714
vn -0.865033 0.000000 0.501714
vn -0.749141 0.432517 0.501714
vn -0.432517 0.749141 0.501714
vn -0.000000 0.865033 0.501714
vn 0.432517 0.749141 0.501714
vn 0.749141 0.432517 0.501714
vn 0.431481 -0.249116 0.867044
vn 0.498231 0.000000 0.867044
vn 0.249116 -0.431481 0.867044
vn 0.000000 -0.498231 0.867044
vn -0.249116 -0.431481 0.867044
vn -0.431481 -0.249116 0.867044
vn -0.498231 0.000000 0.867044
vn -0.431481 0.249116 0.867044
vn -0.249116 0.431481 0.867044
vn -0.000000 0.498231 0.867044
vn 0.249116 0.431481 0.867044
vn 0.431481 0.249116 0.867044
vn -0.836516 0.482963 0.258819
vn -0.965926 -0.000000 0.258819
vn -0.482963 0.836516 0.258819
vn -0.000000 0.965926 0.258819
vn 0.482963 0.836516 0.258819
vn 0.836516 0.482963 0.258819
vn 0.965926 -0.000000 0.258819
vn 0.836516 -0.482963 0.258819
vn 0.482963 -0.836516 0.258819
vn 0.000000 -0.965926 0.258819
vn -0.482963 -0.836516 0.258819
vn -0.836516 -0.482963 0.258819
vn -0.309017 0.000000 -0.951057
vn 0.809017 0.000000 -0.587785
vn 0.809017 0.000000 0.587785
vn -0.309017 0.000000 0.951057
vn -0.351484 0.825954 -0.440747
vn -0.563737 0.825954 0.000000
vn 0.125443 0.825954 -0.549603
vn 0.507909 0.825954 -0.244596
vn 0.507909 0.825954 0.244596
vn 0.125443 0.825954 0.549603
vn -0.351484 0.825954 0.440747
vn -0.618474 0.126588 -0.775542
vn -0.991955 0.126588 0.000000
vn 0.220731 0.126588 -0.967085
vn 0.893721 0.126588 -0.430393
vn 0.893721 0.126588 0.430393
vn 0.220731 0.126588 0.967085
vn -0.618474 0.126588 0.775542
vn -0.521780 -0.547403 -0.654291
vn -0.836869 -0.547403 0.000000
vn 0.186221 -0.547403 -0.815887
vn 0.753993 -0.547403 -0.363104
vn 0.753993 -0.547403 0.363104
vn 0.186221 -0.547403 0.815887
vn -0.521780 -0.547403 0.654291
vn -0.392122 -0.777474 -0.491706
vn -0.628915 -0.777474 0.000000
vn 0.139947 -0.777474 -0.613147
vn 0.566633 -0.777474 -0.272876
vn 0.566633 -0.777474 0.272876
vn 0.139947 -0.777474 0.613147
vn -0.392122 -0.777474 0.491706
vn -0.954173 -0.255670 -0.155519
vn -0.915934 -0.258819 -0.306721
vn -0.820845 -0.500655 -0.274879
vn -0.857158 -0.495745 -0.139707
vn -0.771133 -0.258819 -0.581693
vn -0.691077 -0.500655 -0.521304
vn -0.546511 -0.258819 -0.796454
vn -0.489774 -0.500655 -0.713769
vn -0.265319 -0.258819 -0.928773
vn -0.237775 -0.500655 -0.832351
vn 0.043336 -0.258819 -0.964953
vn 0.038837 -0.500655 -0.864775
vn 0.347506 -0.258819 -0.901251
vn 0.311429 -0.500655 -0.807686
vn 0.615704 -0.258819 -0.744259
vn 0.551784 -0.500655 -0.666993
vn 0.820171 -0.258819 -0.510228
vn 0.735024 -0.500655 -0.457258
vn 0.939741 -0.258819 -0.223383
vn 0.842181 -0.500655 -0.200192
vn 0.962037 -0.258819 0.086585
vn 0.862162 -0.500655 0.077596
vn 0.884752 -0.258819 0.387590
vn 0.792901 -0.500655 0.347352
vn 0.715886 -0.258819 0.648475
vn 0.641565 -0.500655 0.581153
vn 0.472917 -0.258819 0.842236
vn 0.423821 -0.500655 0.754799
vn 0.331559 -0.255670 0.908131
vn 0.297847 -0.495745 0.815797
vn -0.473494 -0.866408 -0.158560
vn -0.497692 -0.863552 -0.081118
vn -0.398639 -0.866408 -0.300708
vn -0.282520 -0.866408 -0.411729
vn -0.137157 -0.866408 -0.480131
vn 0.022403 -0.866408 -0.498835
vn 0.179644 -0.866408 -0.465904
vn 0.318290 -0.866408 -0.384746
vn 0.423989 -0.866408 -0.263763
vn 0.485801 -0.866408 -0.115478
vn 0.497327 -0.866408 0.044760
vn 0.457375 -0.866408 0.200366
vn 0.370079 -0.866408 0.335231
vn 0.244476 -0.866408 0.435396
vn 0.172939 -0.863552 0.473676
vn 0.473494 -0.866408 0.158560
vn 0.497692 -0.863552 0.081118
vn 0.398639 -0.866408 0.300708
vn 0.282520 -0.866408 0.411729
vn 0.137157 -0.866408 0.480131
vn -0.022403 -0.866408 0.498835
vn -0.179644 -0.866408 0.465904
vn -0.318290 -0.866408 0.384746
vn -0.423989 -0.866408 0.263763
vn -0.485801 -0.866408 0.115478
vn -0.497327 -0.866408 -0.044760
vn -0.457375 -0.866408 -0.200366
vn -0.370079 -0.866408 -0.335231
vn -0.244476 -0.866408 -0.435396
vn -0.172939 -0.863552 -0.473676
vn 0.820845 -0.500655 0.274879
vn 0.857158 -0.495745 0.139707
vn 0.691077 -0.500655 0.521304
vn 0.489774 -0.500655 0.713769
vn 0.237775 -0.500655 0.832351
vn -0.038837 -0.500655 0.864775
vn -0.311429 -0.500655 0.807686
vn -0.551784 -0.500655 0.666993
vn -0.735024 -0.500655 0.457258
vn -0.842181 -0.500655 0.200192
vn -0.862162 -0.500655 -0.077596
vn -0.792901 -0.500655 -0.347352
vn -0.641565 -0.500655 -0.581153
vn -0.423821 -0.500655 -0.754799
vn -0.297847 -0.495745 -0.815797
vn 0.948245 -0.000000 0.317541
vn 0.986976 0.000000 0.160866
vn 0.798335 0.000000 0.602213
vn 0.565790 0.000000 0.824550
vn 0.274679 -0.000000 0.961536
vn -0.044865 -0.000000 0.998993
vn -0.359764 -0.000000 0.933043
vn -0.637424 -0.000000 0.770513
vn -0.849103 -0.000000 0.528227
vn -0.972891 -0.000000 0.231263
vn -0.995974 0.000000 -0.089639
vn -0.915963 -0.000000 -0.401263
vn -0.741139 0.000000 -0.671351
vn -0.489600 0.000000 -0.871947
vn -0.342957 0.000000 -0.939351
vn 0.820845 0.500655 0.274879
vn 0.857158 0.495745 0.139707
vn 0.691077 0.500655 0.521304
vn 0.489774 0.500655 0.713769
vn 0.237775 0.500655 0.832351
vn -0.038837 0.500655 0.864775
vn -0.311429 0.500655 0.807686
vn -0.551784 0.500655 0.666993
vn -0.735024 0.500655 0.457258
vn -0.842181 0.500655 0.200192
vn -0.862162 0.500655 -0.077596
vn -0.792901 0.500655 -0.347352
vn -0.641565 0.500655 -0.581153
vn -0.423821 0.500655 -0.754799
vn -0.297847 0.495745 -0.815797
vn 0.473494 0.866408 0.158560
vn 0.497692 0.863552 0.081118
vn 0.398639 0.866408 0.300708
vn 0.282520 0.866408 0.411729
vn 0.137157 0.866408 0.480131
vn -0.022403 0.866408 0.498835
vn -0.179644 0.866408 0.465904
vn -0.318290 0.866408 0.384746
vn -0.423989 0.866408 0.263763
vn -0.485801 0.866408 0.115478
vn -0.497327 0.866408 -0.044760
vn -0.457375 0.866408 -0.200366
vn -0.370079 0.866408 -0.335231
vn -0.244476 0.866408 -0.435396
vn -0.172939 0.863552 -0.473676
vn -0.473494 0.866408 -0.158560
vn -0.497692 0.863552 -0.081118
vn -0.398639 0.866408 -0.300708
vn -0.282520 0.866408 -0.411729
vn -0.137157 0.866408 -0.480131
vn 0.022403 0.866408 -0.498835
vn 0.179644 0.866408 -0.465904
vn 0.318290 0.866408 -0.384746
vn 0.423989 0.866408 -0.263763
vn 0.485801 0.866408 -0.115478
vn 0.497327 0.866408 0.044760
vn 0.457375 0.866408 0.200366
vn 0.370079 0.866408 0.335231
vn 0.244476 0.866408 0.435396
vn 0.172939 0.863552 0.473676
vn -0.820845 0.500655 -0.274879
vn -0.857158 0.495745 -0.139707
vn -0.691077 0.500655 -0.521304
vn -0.489774 0.500655 -0.713769
vn -0.237775 0.500655 -0.832351
vn 0.038837 0.500655 -0.864775
vn 0.311429 0.500655 -0.807686
vn 0.551784 0.500655 -0.666993
vn 0.735024 0.500655 -0.457258
vn 0.842181 0.500655 -0.200192
vn 0.862162 0.500655 0.077596
vn 0.792901 0.500655 0.347352
vn 0.641565 0.500655 0.581153
vn 0.423821 0.500655 0.754799
vn 0.297847 0.495745 0.815797
vn -0.915934 0.258819 -0.306721
vn -0.954173 0.255670 -0.155519
vn -0.771133 0.258819 -0.581693
vn -0.546511 0.258819 -0.796454
vn -0.265319 0.258819 -0.928773
vn 0.043336 0.258819 -0.964953
vn 0.347506 0.258819 -0.901251
vn 0.615704 0.258819 -0.744259
vn 0.820171 0.258819 -0.510228
vn 0.939741 0.258819 -0.223383
vn 0.962037 0.258819 0.086585
vn 0.884752 0.258819 0.387590
vn 0.715886 0.258819 0.648475
vn 0.472917 0.258819 0.842236
vn 0.331559 0.255670 0.908131
usemtl oxidized_bronze
s 1
f 1/1/1 2/2/2 18/18/3 17/17/4
s 1
f 2/2/2 3/3/5 19/19/6 18/18/3
s 1
f 3/3/5 4/4/7 20/20/8 19/19/6
s 1
f 4/4/7 5/5/9 21/21/10 20/20/8
s 1
f 5/5/9 6/6/11 22/22/12 21/21/10
s 1
f 6/6/11 7/7/13 23/23/14 22/22/12
s 1
f 7/7/13 8/8/15 24/24/16 23/23/14
s 1
f 8/8/15 9/9/17 25/25/18 24/24/16
s 1
f 9/9/17 10/10/19 26/26/20 25/25/18
s 1
f 10/10/19 11/11/21 27/27/22 26/26/20
s 1
f 11/11/21 12/12/23 28/28/24 27/27/22
s 1
f 12/12/23 13/13/25 29/29/26 28/28/24
s 1
f 13/13/25 14/14/27 30/30/28 29/29/26
s 1
f 14/14/27 15/15/29 31/31/30 30/30/28
s 1
f 15/15/29 16/16/31 32/32/32 31/31/30
s 1
f 16/16/31 1/1/1 17/17/4 32/32/32
s 1
f 17/17/4 18/18/3 34/34/33 33/33/34
s 1
f 18/18/3 19/19/6 35/35/35 34/34/33
s 1
f 19/19/6 20/20/8 36/36/36 35/35/35
s 1
f 20/20/8 21/21/10 37/37/37 36/36/36
s 1
f 21/21/10 22/22/12 38/38/38 37/37/37
s 1
f 22/22/12 23/23/14 39/39/39 38/38/38
s 1
f 23/23/14 24/24/16 40/40/40 39/39/39
s 1
f 24/24/16 25/25/18 41/41/41 40/40/40
s 1
f 25/25/18 26/26/20 42/42/42 41/41/41
s 1
f 26/26/20 27/27/22 43/43/43 42/42/42
s 1
f 27/27/22 28/28/24 44/44/44 43/43/43
s 1
f 28/28/24 29/29/26 45/45/45 44/44/44
s 1
f 29/29/26 30/30/28 46/46/46 45/45/45
s 1
f 30/30/28 31/31/30 47/47/47 46/46/46
s 1
f 31/31/30 32/32/32 48/48/48 47/47/47
s 1
f 32/32/32 17/17/4 33/33/34 48/48/48
s 1
f 33/33/34 34/34/33 50/50/49 49/49/50
s 1
f 34/34/33 35/35/35 51/51/51 50/50/49
s 1
f 35/35/35 36/36/36 52/52/52 51/51/51
s 1
f 36/36/36 37/37/37 53/53/53 52/52/52
s 1
f 37/37/37 38/38/38 54/54/54 53/53/53
s 1
f 38/38/38 39/39/39 55/55/55 54/54/54
s 1
f 39/39/39 40/40/40 56/56/56 55/55/55
s 1
f 40/40/40 41/41/41 57/57/57 56/56/56
s 1
f 41/41/41 42/42/42 58/58/58 57/57/57
s 1
f 42/42/42 43/43/43 59/59/59 58/58/58
s 1
f 43/43/43 44/44/44 60/60/60 59/59/59
s 1
f 44/44/44 45/45/45 61/61/61 60/60/60
s 1
f 45/45/45 46/46/46 62/62/62 61/61/61
s 1
f 46/46/46 47/47/47 63/63/63 62/62/62
s 1
f 47/47/47 48/48/48 64/64/64 63/63/63
s 1
f 48/48/48 33/33/34 49/49/50 64/64/64
s 1
f 49/49/50 50/50/49 66/66/65 65/65/66
s 1
f 50/50/49 51/51/51 67/67/67 66/66/65
s 1
f 51/51/51 52/52/52 68/68/68 67/67/67
s 1
f 52/52/52 53/53/53 69/69/69 68/68/68
s 1
f 53/53/53 54/54/54 70/70/70 69/69/69
s 1
f 54/54/54 55/55/55 71/71/71 70/70/70
s 1
f 55/55/55 56/56/56 72/72/72 71/71/71
s 1
f 56/56/56 57/57/57 73/73/73 72/72/72
s 1
f 57/57/57 58/58/58 74/74/74 73/73/73
s 1
f 58/58/58 59/59/59 75/75/75 74/74/74
s 1
f 59/59/59 60/60/60 76/76/76 75/75/75
s 1
f 60/60/60 61/61/61 77/77/77 76/76/76
s 1
f 61/61/61 62/62/62 78/78/78 77/77/77
s 1
f 62/62/62 63/63/63 79/79/79 78/78/78
s 1
f 63/63/63 64/64/64 80/80/80 79/79/79
s 1
f 64/64/64 49/49/50 65/65/66 80/80/80
s 1
f 65/65/66 66/66/65 82/82/81 81/81/82
s 1
f 66/66/65 67/67/67 83/83/83 82/82/81
s 1
f 67/67/67 68/68/68 84/84/84 83/83/83
s 1
f 68/68/68 69/69/69 85/85/85 84/84/84
s 1
f 69/69/69 70/70/70 86/86/86 85/85/85
s 1
f 70/70/70 71/71/71 87/87/87 86/86/86
s 1
f 71/71/71 72/72/72 88/88/88 87/87/87
s 1
f 72/72/72 73/73/73 89/89/89 88/88/88
s 1
f 73/73/73 74/74/74 90/90/90 89/89/89
s 1
f 74/74/74 75/75/75 91/91/91 90/90/90
s 1
f 75/75/75 76/76/76 92/92/92 91/91/91
s 1
f 76/76/76 77/77/77 93/93/93 92/92/92
s 1
f 77/77/77 78/78/78 94/94/94 93/93/93
s 1
f 78/78/78 79/79/79 95/95/95 94/94/94
s 1
f 79/79/79 80/80/80 96/96/96 95/95/95
s 1
f 80/80/80 65/65/66 81/81/82 96/96/96
s 1
f 81/81/82 82/82/81 98/98/97 97/97/98
s 1
f 82/82/81 83/83/83 99/99/99 98/98/97
s 1
f 83/83/83 84/84/84 100/100/100 99/99/99
s 1
f 84/84/84 85/85/85 101/101/101 100/100/100
s 1
f 85/85/85 86/86/86 102/102/102 101/101/101
s 1
f 86/86/86 87/87/87 103/103/103 102/102/102
s 1
f 87/87/87 88/88/88 104/104/104 103/103/103
s 1
f 88/88/88 89/89/89 105/105/105 104/104/104
s 1
f 89/89/89 90/90/90 106/106/106 105/105/105
s 1
f 90/90/90 91/91/91 107/107/107 106/106/106
s 1
f 91/91/91 92/92/92 108/108/108 107/107/107
s 1
f 92/92/92 93/93/93 109/109/109 108/108/108
s 1
f 93/93/93 94/94/94 110/110/110 109/109/109
s 1
f 94/94/94 95/95/95 111/111/111 110/110/110
s 1
f 95/95/95 96/96/96 112/112/112 111/111/111
s 1
f 96/96/96 81/81/82 97/97/98 112/112/112
s 1
f 97/97/98 98/98/97 114/114/113 113/113/114
s 1
f 98/98/97 99/99/99 115/115/115 114/114/113
s 1
f 99/99/99 100/100/100 116/116/116 115/115/115
s 1
f 100/100/100 101/101/101 117/117/117 116/116/116
s 1
f 101/101/101 102/102/102 118/118/118 117/117/117
s 1
f 102/102/102 103/103/103 119/119/119 118/118/118
s 1
f 103/103/103 104/104/104 120/120/120 119/119/119
s 1
f 104/104/104 105/105/105 121/121/121 120/120/120
s 1
f 105/105/105 106/106/106 122/122/122 121/121/121
s 1
f 106/106/106 107/107/107 123/123/123 122/122/122
s 1
f 107/107/107 108/108/108 124/124/124 123/123/123
s 1
f 108/108/108 109/109/109 125/125/125 124/124/124
s 1
f 109/109/109 110/110/110 126/126/126 125/125/125
s 1
f 110/110/110 111/111/111 127/127/127 126/126/126
s 1
f 111/111/111 112/112/112 128/128/128 127/127/127
s 1
f 112/112/112 97/97/98 113/113/114 128/128/128
s 1
f 113/113/114 114/114/113 130/130/129 129/129/130
s 1
f 114/114/113 115/115/115 131/131/131 130/130/129
s 1
f 115/115/115 116/116/116 132/132/132 131/131/131
s 1
f 116/116/116 117/117/117 133/133/133 132/132/132
s 1
f 117/117/117 118/118/118 134/134/134 133/133/133
s 1
f 118/118/118 119/119/119 135/135/135 134/134/134
s 1
f 119/119/119 120/120/120 136/136/136 135/135/135
s 1
f 120/120/120 121/121/121 137/137/137 136/136/136
s 1
f 121/121/121 122/122/122 138/138/138 137/137/137
s 1
f 122/122/122 123/123/123 139/139/139 138/138/138
s 1
f 123/123/123 124/124/124 140/140/140 139/139/139
s 1
f 124/124/124 125/125/125 141/141/141 140/140/140
s 1
f 125/125/125 126/126/126 142/142/142 141/141/141
s 1
f 126/126/126 127/127/127 143/143/143 142/142/142
s 1
f 127/127/127 128/128/128 144/144/144 143/143/143
s 1
f 128/128/128 113/113/114 129/129/130 144/144/144
s 1
f 129/129/130 130/130/129 146/146/145 145/145/146
s 1
f 130/130/129 131/131/131 147/147/147 146/146/145
s 1
f 131/131/131 132/132/132 148/148/148 147/147/147
s 1
f 132/132/132 133/133/133 149/149/149 148/148/148
s 1
f 133/133/133 134/134/134 150/150/150 149/149/149
s 1
f 134/134/134 135/135/135 151/151/151 150/150/150
s 1
f 135/135/135 136/136/136 152/152/152 151/151/151
s 1
f 136/136/136 137/137/137 153/153/153 152/152/152
s 1
f 137/137/137 138/138/138 154/154/154 153/153/153
s 1
f 138/138/138 139/139/139 155/155/155 154/154/154
s 1
f 139/139/139 140/140/140 156/156/156 155/155/155
s 1
f 140/140/140 141/141/141 157/157/157 156/156/156
s 1
f 141/141/141 142/142/142 158/158/158 157/157/157
s 1
f 142/142/142 143/143/143 159/159/159 158/158/158
s 1
f 143/143/143 144/144/144 160/160/160 159/159/159
s 1
f 144/144/144 129/129/130 145/145/146 160/160/160
s 1
f 145/145/146 146/146/145 162/162/161 161/161/161
s 1
f 146/146/145 147/147/147 163/163/161 162/162/161
s 1
f 147/147/147 148/148/148 164/164/161 163/163/161
s 1
f 148/148/148 149/149/149 165/165/161 164/164/161
s 1
f 149/149/149 150/150/150 166/166/161 165/165/161
s 1
f 150/150/150 151/151/151 167/167/161 166/166/161
s 1
f 151/151/151 152/152/152 168/168/161 167/167/161
s 1
f 152/152/152 153/153/153 169/169/161 168/168/161
s 1
f 153/153/153 154/154/154 170/170/161 169/169/161
s 1
f 154/154/154 155/155/155 171/171/161 170/170/161
s 1
f 155/155/155 156/156/156 172/172/161 171/171/161
s 1
f 156/156/156 157/157/157 173/173/161 172/172/161
s 1
f 157/157/157 158/158/158 174/174/161 173/173/161
s 1
f 158/158/158 159/159/159 175/175/161 174/174/161
s 1
f 159/159/159 160/160/160 176/176/161 175/175/161
s 1
f 160/160/160 145/145/146 161/161/161 176/176/161
usemtl wrought_iron
s 2
f 177/177/162 178/178/163 194/194/164 193/193/165
s 2
f 178/178/163 179/179/166 195/195/167 194/194/164
s 2
f 179/179/166 180/180/168 196/196/169 195/195/167
s 2
f 180/180/168 181/181/170 197/197/171 196/196/169
s 2
f 181/181/170 182/182/172 198/198/173 197/197/171
s 2
f 182/182/172 183/183/174 199/199/175 198/198/173
s 2
f 183/183/174 184/184/176 200/200/177 199/199/175
s 2
f 184/184/176 185/185/178 201/201/179 200/200/177
s 2
f 185/185/178 186/186/180 202/202/181 201/201/179
s 2
f 186/186/180 187/187/182 203/203/183 202/202/181
s 2
f 187/187/182 188/188/184 204/204/185 203/203/183
s 2
f 188/188/184 189/189/186 205/205/187 204/204/185
s 2
f 189/189/186 190/190/188 206/206/189 205/205/187
s 2
f 190/190/188 191/191/190 207/207/191 206/206/189
s 2
f 191/191/190 192/192/192 208/208/193 207/207/191
s 2
f 192/192/192 177/177/162 193/193/165 208/208/193
s 2
f 193/193/165 194/194/164 210/210/194 209/209/195
s 2
f 194/194/164 195/195/167 211/211/196 210/210/194
s 2
f 195/195/167 196/196/169 212/212/197 211/211/196
s 2
f 196/196/169 197/197/171 213/213/198 212/212/197
s 2
f 197/197/171 198/198/173 214/214/199 213/213/198
s 2
f 198/198/173 199/199/175 215/215/200 214/214/199
s 2
f 199/199/175 200/200/177 216/216/201 215/215/200
s 2
f 200/200/177 201/201/179 217/217/202 216/216/201
s 2
f 201/201/179 202/202/181 218/218/203 217/217/202
s 2
f 202/202/181 203/203/183 219/219/204 218/218/203
s 2
f 203/203/183 204/204/185 220/220/205 219/219/204
s 2
f 204/204/185 205/205/187 221/221/206 220/220/205
s 2
f 205/205/187 206/206/189 222/222/207 221/221/206
s 2
f 206/206/189 207/207/191 223/223/208 222/222/207
s 2
f 207/207/191 208/208/193 224/224/209 223/223/208
s 2
f 208/208/193 193/193/165 209/209/195 224/224/209
s 2
f 209/209/195 210/210/194 226/226/210 225/225/210
s 2
f 210/210/194 211/211/196 227/227/210 226/226/210
s 2
f 211/211/196 212/212/197 228/228/210 227/227/210
s 2
f 212/212/197 213/213/198 229/229/210 228/228/210
s 2
f 213/213/198 214/214/199 230/230/210 229/229/210
s 2
f 214/214/199 215/215/200 231/231/210 230/230/210
s 2
f 215/215/200 216/216/201 232/232/210 231/231/210
s 2
f 216/216/201 217/217/202 233/233/210 232/232/210
s 2
f 217/217/202 218/218/203 234/234/210 233/233/210
s 2
f 218/218/203 219/219/204 235/235/210 234/234/210
s 2
f 219/219/204 220/220/205 236/236/210 235/235/210
s 2
f 220/220/205 221/221/206 237/237/210 236/236/210
s 2
f 221/221/206 222/222/207 238/238/210 237/237/210
s 2
f 222/222/207 223/223/208 239/239/210 238/238/210
s 2
f 223/223/208 224/224/209 240/240/210 239/239/210
s 2
f 224/224/209 209/209/195 225/225/210 240/240/210
s 2
f 225/225/210 226/226/210 242/242/203 241/241/202
s 2
f 226/226/210 227/227/210 243/243/204 242/242/203
s 2
f 227/227/210 228/228/210 244/244/205 243/243/204
s 2
f 228/228/210 229/229/210 245/245/206 244/244/205
s 2
f 229/229/210 230/230/210 246/246/207 245/245/206
s 2
f 230/230/210 231/231/210 247/247/208 246/246/207
s 2
f 231/231/210 232/232/210 248/248/209 247/247/208
s 2
f 232/232/210 233/233/210 249/249/195 248/248/209
s 2
f 233/233/210 234/234/210 250/250/194 249/249/195
s 2
f 234/234/210 235/235/210 251/251/196 250/250/194
s 2
f 235/235/210 236/236/210 252/252/197 251/251/196
s 2
f 236/236/210 237/237/210 253/253/198 252/252/197
s 2
f 237/237/210 238/238/210 254/254/199 253/253/198
s 2
f 238/238/210 239/239/210 255/255/200 254/254/199
s 2
f 239/239/210 240/240/210 256/256/201 255/255/200
s 2
f 240/240/210 225/225/210 241/241/202 256/256/201
s 2
f 241/241/202 242/242/203 258/258/181 257/257/179
s 2
f 242/242/203 243/243/204 259/259/183 258/258/181
s 2
f 243/243/204 244/244/205 260/260/185 259/259/183
s 2
f 244/244/205 245/245/206 261/261/187 260/260/185
s 2
f 245/245/206 246/246/207 262/262/189 261/261/187
s 2
f 246/246/207 247/247/208 263/263/191 262/262/189
s 2
f 247/247/208 248/248/209 264/264/193 263/263/191
s 2
f 248/248/209 249/249/195 265/265/165 264/264/193
s 2
f 249/249/195 250/250/194 266/266/164 265/265/165
s 2
f 250/250/194 251/251/196 267/267/167 266/266/164
s 2
f 251/251/196 252/252/197 268/268/169 267/267/167
s 2
f 252/252/197 253/253/198 269/269/171 268/268/169
s 2
f 253/253/198 254/254/199 270/270/173 269/269/171
s 2
f 254/254/199 255/255/200 271/271/175 270/270/173
s 2
f 255/255/200 256/256/201 272/272/177 271/271/175
s 2
f 256/256/201 241/241/202 257/257/179 272/272/177
s 2
f 257/257/179 258/258/181 274/274/211 273/273/212
s 2
f 258/258/181 259/259/183 275/275/213 274/274/211
s 2
f 259/259/183 260/260/185 276/276/214 275/275/213
s 2
f 260/260/185 261/261/187 277/277/215 276/276/214
s 2
f 261/261/187 262/262/189 278/278/216 277/277/215
s 2
f 262/262/189 263/263/191 279/279/217 278/278/216
s 2
f 263/263/191 264/264/193 280/280/218 279/279/217
s 2
f 264/264/193 265/265/165 281/281/219 280/280/218
s 2
f 265/265/165 266/266/164 282/282/220 281/281/219
s 2
f 266/266/164 267/267/167 283/283/221 282/282/220
s 2
f 267/267/167 268/268/169 284/284/222 283/283/221
s 2
f 268/268/169 269/269/171 285/285/223 284/284/222
s 2
f 269/269/171 270/270/173 286/286/224 285/285/223
s 2
f 270/270/173 271/271/175 287/287/225 286/286/224
s 2
f 271/271/175 272/272/177 288/288/226 287/287/225
s 2
f 272/272/177 257/257/179 273/273/212 288/288/226
s 2
f 273/273/212 274/274/211 290/290/227 289/289/228
s 2
f 274/274/211 275/275/213 291/291/229 290/290/227
s 2
f 275/275/213 276/276/214 292/292/230 291/291/229
s 2
f 276/276/214 277/277/215 293/293/231 292/292/230
s 2
f 277/277/215 278/278/216 294/294/232 293/293/231
s 2
f 278/278/216 279/279/217 295/295/233 294/294/232
s 2
f 279/279/217 280/280/218 296/296/234 295/295/233
s 2
f 280/280/218 281/281/219 297/297/235 296/296/234
s 2
f 281/281/219 282/282/220 298/298/236 297/297/235
s 2
f 282/282/220 283/283/221 299/299/237 298/298/236
s 2
f 283/283/221 284/284/222 300/300/238 299/299/237
s 2
f 284/284/222 285/285/223 301/301/239 300/300/238
s 2
f 285/285/223 286/286/224 302/302/240 301/301/239
s 2
f 286/286/224 287/287/225 303/303/241 302/302/240
s 2
f 287/287/225 288/288/226 304/304/242 303/303/241
s 2
f 288/288/226 273/273/212 289/289/228 304/304/242
s 2
f 289/289/228 290/290/227 306/306/243 305/305/244
s 2
f 290/290/227 291/291/229 307/307/245 306/306/243
s 2
f 291/291/229 292/292/230 308/308/246 307/307/245
s 2
f 292/292/230 293/293/231 309/309/247 308/308/246
s 2
f 293/293/231 294/294/232 310/310/248 309/309/247
s 2
f 294/294/232 295/295/233 311/311/249 310/310/248
s 2
f 295/295/233 296/296/234 312/312/250 311/311/249
s 2
f 296/296/234 297/297/235 313/313/251 312/312/250
s 2
f 297/297/235 298/298/236 314/314/252 313/313/251
s 2
f 298/298/236 299/299/237 315/315/253 314/314/252
s 2
f 299/299/237 300/300/238 316/316/254 315/315/253
s 2
f 300/300/238 301/301/239 317/317/255 316/316/254
s 2
f 301/301/239 302/302/240 318/318/256 317/317/255
s 2
f 302/302/240 303/303/241 319/319/257 318/318/256
s 2
f 303/303/241 304/304/242 320/320/258 319/319/257
s 2
f 304/304/242 289/289/228 305/305/244 320/320/258
s 2
f 305/305/244 306/306/243 322/322/161 321/321/161
s 2
f 306/306/243 307/307/245 323/323/161 322/322/161
s 2
f 307/307/245 308/308/246 324/324/161 323/323/161
s 2
f 308/308/246 309/309/247 325/325/161 324/324/161
s 2
f 309/309/247 310/310/248 326/326/161 325/325/161
s 2
f 310/310/248 311/311/249 327/327/161 326/326/161
s 2
f 311/311/249 312/312/250 328/328/161 327/327/161
s 2
f 312/312/250 313/313/251 329/329/161 328/328/161
s 2
f 313/313/251 314/314/252 330/330/161 329/329/161
s 2
f 314/314/252 315/315/253 331/331/161 330/330/161
s 2
f 315/315/253 316/316/254 332/332/161 331/331/161
s 2
f 316/316/254 317/317/255 333/333/161 332/332/161
s 2
f 317/317/255 318/318/256 334/334/161 333/333/161
s 2
f 318/318/256 319/319/257 335/335/161 334/334/161
s 2
f 319/319/257 320/320/258 336/336/161 335/335/161
s 2
f 320/320/258 305/305/244 321/321/161 336/336/161
s 2
f 321/321/161 322/322/161 338/338/252 337/337/251
s 2
f 322/322/161 323/323/161 339/339/253 338/338/252
s 2
f 323/323/161 324/324/161 340/340/254 339/339/253
s 2
f 324/324/161 325/325/161 341/341/255 340/340/254
s 2
f 325/325/161 326/326/161 342/342/256 341/341/255
s 2
f 326/326/161 327/327/161 343/343/257 342/342/256
s 2
f 327/327/161 328/328/161 344/344/258 343/343/257
s 2
f 328/328/161 329/329/161 345/345/244 344/344/258
s 2
f 329/329/161 330/330/161 346/346/243 345/345/244
s 2
f 330/330/161 331/331/161 347/347/245 346/346/243
s 2
f 331/331/161 332/332/161 348/348/246 347/347/245
s 2
f 332/332/161 333/333/161 349/349/247 348/348/246
s 2
f 333/333/161 334/334/161 350/350/248 349/349/247
s 2
f 334/334/161 335/335/161 351/351/249 350/350/248
s 2
f 335/335/161 336/336/161 352/352/250 351/351/249
s 2
f 336/336/161 321/321/161 337/337/251 352/352/250
s 2
f 337/337/251 338/338/252 354/354/236 353/353/235
s 2
f 338/338/252 339/339/253 355/355/237 354/354/236
s 2
f 339/339/253 340/340/254 356/356/238 355/355/237
s 2
f 340/340/254 341/341/255 357/357/239 356/356/238
s 2
f 341/341/255 342/342/256 358/358/240 357/357/239
s 2
f 342/342/256 343/343/257 359/359/241 358/358/240
s 2
f 343/343/257 344/344/258 360/360/242 359/359/241
s 2
f 344/344/258 345/345/244 361/361/228 360/360/242
s 2
f 345/345/244 346/346/243 362/362/227 361/361/228
s 2
f 346/346/243 347/347/245 363/363/229 362/362/227
s 2
f 347/347/245 348/348/246 364/364/230 363/363/229
s 2
f 348/348/246 349/349/247 365/365/231 364/364/230
s 2
f 349/349/247 350/350/248 366/366/232 365/365/231
s 2
f 350/350/248 351/351/249 367/367/233 366/366/232
s 2
f 351/351/249 352/352/250 368/368/234 367/367/233
s 2
f 352/352/250 337/337/251 353/353/235 368/368/234
s 2
f 353/353/235 354/354/236 370/370/259 369/369/260
s 2
f 354/354/236 355/355/237 371/371/261 370/370/259
s 2
f 355/355/237 356/356/238 372/372/262 371/371/261
s 2
f 356/356/238 357/357/239 373/373/263 372/372/262
s 2
f 357/357/239 358/358/240 374/374/264 373/373/263
s 2
f 358/358/240 359/359/241 375/375/265 374/374/264
s 2
f 359/359/241 360/360/242 376/376/266 375/375/265
s 2
f 360/360/242 361/361/228 377/377/267 376/376/266
s 2
f 361/361/228 362/362/227 378/378/268 377/377/267
s 2
f 362/362/227 363/363/229 379/379/269 378/378/268
s 2
f 363/363/229 364/364/230 380/380/270 379/379/269
s 2
f 364/364/230 365/365/231 381/381/271 380/380/270
s 2
f 365/365/231 366/366/232 382/382/272 381/381/271
s 2
f 366/366/232 367/367/233 383/383/273 382/382/272
s 2
f 367/367/233 368/368/234 384/384/274 383/383/273
s 2
f 368/368/234 353/353/235 369/369/260 384/384/274
s 3
f 385/385/275 386/386/276 398/398/277 397/397/278
s 3
f 386/386/276 387/387/279 399/399/280 398/398/277
s 3
f 387/387/279 388/388/281 400/400/282 399/399/280
s 3
f 388/388/281 389/389/283 401/401/284 400/400/282
s 3
f 389/389/283 390/390/285 402/402/286 401/401/284
s 3
f 390/390/285 391/391/287 403/403/288 402/402/286
s 3
f 391/391/287 392/392/289 404/404/290 403/403/288
s 3
f 392/392/289 393/393/291 405/405/292 404/404/290
s 3
f 393/393/291 394/394/293 406/406/294 405/405/292
s 3
f 394/394/293 395/395/295 407/407/296 406/406/294
s 3
f 395/395/295 396/396/297 408/408/298 407/407/296
s 3
f 396/396/297 385/385/275 397/397/278 408/408/298
s 3
f 397/397/278 398/398/277 410/410/299 409/409/300
s 3
f 398/398/277 399/399/280 411/411/301 410/410/299
s 3
f 399/399/280 400/400/282 412/412/302 411/411/301
s 3
f 400/400/282 401/401/284 413/413/303 412/412/302
s 3
f 401/401/284 402/402/286 414/414/304 413/413/303
s 3
f 402/402/286 403/403/288 415/415/305 414/414/304
s 3
f 403/403/288 404/404/290 416/416/306 415/415/305
s 3
f 404/404/290 405/405/292 417/417/307 416/416/306
s 3
f 405/405/292 406/406/294 418/418/308 417/417/307
s 3
f 406/406/294 407/407/296 419/419/309 418/418/308
s 3
f 407/407/296 408/408/298 420/420/310 419/419/309
s 3
f 408/408/298 397/397/278 409/409/300 420/420/310
s 3
f 409/409/300 410/410/299 422/422/223 421/421/223
s 3
f 410/410/299 411/411/301 423/423/223 422/422/223
s 3
f 411/411/301 412/412/302 424/424/223 423/423/223
s 3
f 412/412/302 413/413/303 425/425/223 424/424/223
s 3
f 413/413/303 414/414/304 426/426/223 425/425/223
s 3
f 414/414/304 415/415/305 427/427/223 426/426/223
s 3
f 415/415/305 416/416/306 428/428/223 427/427/223
s 3
f 416/416/306 417/417/307 429/429/223 428/428/223
s 3
f 417/417/307 418/418/308 430/430/223 429/429/223
s 3
f 418/418/308 419/419/309 431/431/223 430/430/223
s 3
f 419/419/309 420/420/310 432/432/223 431/431/223
s 3
f 420/420/310 409/409/300 421/421/223 432/432/223
s 3
f 421/421/223 422/422/223 434/434/306 433/433/305
s 3
f 422/422/223 423/423/223 435/435/307 434/434/306
s 3
f 423/423/223 424/424/223 436/436/308 435/435/307
s 3
f 424/424/223 425/425/223 437/437/309 436/436/308
s 3
f 425/425/223 426/426/223 438/438/310 437/437/309
s 3
f 426/426/223 427/427/223 439/439/300 438/438/310
s 3
f 427/427/223 428/428/223 440/440/299 439/439/300
s 3
f 428/428/223 429/429/223 441/441/301 440/440/299
s 3
f 429/429/223 430/430/223 442/442/302 441/441/301
s 3
f 430/430/223 431/431/223 443/443/303 442/442/302
s 3
f 431/431/223 432/432/223 444/444/304 443/443/303
s 3
f 432/432/223 421/421/223 433/433/305 444/444/304
s 3
f 433/433/305 434/434/306 446/446/290 445/445/288
s 3
f 434/434/306 435/435/307 447/447/292 446/446/290
s 3
f 435/435/307 436/436/308 448/448/294 447/447/292
s 3
f 436/436/308 437/437/309 449/449/296 448/448/294
s 3
f 437/437/309 438/438/310 450/450/298 449/449/296
s 3
f 438/438/310 439/439/300 451/451/278 450/450/298
s 3
f 439/439/300 440/440/299 452/452/277 451/451/278
s 3
f 440/440/299 441/441/301 453/453/280 452/452/277
s 3
f 441/441/301 442/442/302 454/454/282 453/453/280
s 3
f 442/442/302 443/443/303 455/455/284 454/454/282
s 3
f 443/443/303 444/444/304 456/456/286 455/455/284
s 3
f 444/444/304 433/433/305 445/445/288 456/456/286
s 3
f 445/445/288 446/446/290 458/458/311 457/457/212
s 3
f 446/446/290 447/447/292 459/459/312 458/458/311
s 3
f 447/447/292 448/448/294 460/460/210 459/459/312
s 3
f 448/448/294 449/449/296 461/461/313 460/460/210
s 3
f 449/449/296 450/450/298 462/462/314 461/461/313
s 3
f 450/450/298 451/451/278 463/463/219 462/462/314
s 3
f 451/451/278 452/452/277 464/464/315 463/463/219
s 3
f 452/452/277 453/453/280 465/465/316 464/464/315
s 3
f 453/453/280 454/454/282 466/466/161 465/465/316
s 3
f 454/454/282 455/455/284 467/467/317 466/466/161
s 3
f 455/455/284 456/456/286 468/468/318 467/467/317
s 3
f 456/456/286 445/445/288 457/457/212 468/468/318
s 3
f 457/457/212 458/458/311 470/470/319 469/469/320
s 3
f 458/458/311 459/459/312 471/471/321 470/470/319
s 3
f 459/459/312 460/460/210 472/472/322 471/471/321
s 3
f 460/460/210 461/461/313 473/473/323 472/472/322
s 3
f 461/461/313 462/462/314 474/474/324 473/473/323
s 3
f 462/462/314 463/463/219 475/475/325 474/474/324
s 3
f 463/463/219 464/464/315 476/476/326 475/475/325
s 3
f 464/464/315 465/465/316 477/477/327 476/476/326
s 3
f 465/465/316 466/466/161 478/478/328 477/477/327
s 3
f 466/466/161 467/467/317 479/479/329 478/478/328
s 3
f 467/467/317 468/468/318 480/480/330 479/479/329
s 3
f 468/468/318 457/457/212 469/469/320 480/480/330
s 3
f 469/469/320 470/470/319 482/482/331 481/481/332
s 3
f 470/470/319 471/471/321 483/483/333 482/482/331
s 3
f 471/471/321 472/472/322 484/484/334 483/483/333
s 3
f 472/472/322 473/473/323 485/485/335 484/484/334
s 3
f 473/473/323 474/474/324 486/486/336 485/485/335
s 3
f 474/474/324 475/475/325 487/487/337 486/486/336
s 3
f 475/475/325 476/476/326 488/488/338 487/487/337
s 3
f 476/476/326 477/477/327 489/489/339 488/488/338
s 3
f 477/477/327 478/478/328 490/490/340 489/489/339
s 3
f 478/478/328 479/479/329 491/491/341 490/490/340
s 3
f 479/479/329 480/480/330 492/492/342 491/491/341
s 3
f 480/480/330 469/469/320 481/481/332 492/492/342
s 3
f 481/481/332 482/482/331 494/494/215 493/493/215
s 3
f 482/482/331 483/483/333 495/495/215 494/494/215
s 3
f 483/483/333 484/484/334 496/496/215 495/495/215
s 3
f 484/484/334 485/485/335 497/497/215 496/496/215
s 3
f 485/485/335 486/486/336 498/498/215 497/497/215
s 3
f 486/486/336 487/487/337 499/499/215 498/498/215
s 3
f 487/487/337 488/488/338 500/500/215 499/499/215
s 3
f 488/488/338 489/489/339 501/501/215 500/500/215
s 3
f 489/489/339 490/490/340 502/502/215 501/501/215
s 3
f 490/490/340 491/491/341 503/503/215 502/502/215
s 3
f 491/491/341 492/492/342 504/504/215 503/503/215
s 3
f 492/492/342 481/481/332 493/493/215 504/504/215
s 3
f 493/493/215 494/494/215 506/506/338 505/505/337
s 3
f 494/494/215 495/495/215 507/507/339 506/506/338
s 3
f 495/495/215 496/496/215 508/508/340 507/507/339
s 3
f 496/496/215 497/497/215 509/509/341 508/508/340
s 3
f 497/497/215 498/498/215 510/510/342 509/509/341
s 3
f 498/498/215 499/499/215 511/511/332 510/510/342
s 3
f 499/499/215 500/500/215 512/512/331 511/511/332
s 3
f 500/500/215 501/501/215 513/513/333 512/512/331
s 3
f 501/501/215 502/502/215 514/514/334 513/513/333
s 3
f 502/502/215 503/503/215 515/515/335 514/514/334
s 3
f 503/503/215 504/504/215 516/516/336 515/515/335
s 3
f 504/504/215 493/493/215 505/505/337 516/516/336
s 3
f 505/505/337 506/506/338 518/518/326 517/517/325
s 3
f 506/506/338 507/507/339 519/519/327 518/518/326
s 3
f 507/507/339 508/508/340 520/520/328 519/519/327
s 3
f 508/508/340 509/509/341 521/521/329 520/520/328
s 3
f 509/509/341 510/510/342 522/522/330 521/521/329
s 3
f 510/510/342 511/511/332 523/523/320 522/522/330
s 3
f 511/511/332 512/512/331 524/524/319 523/523/320
s 3
f 512/512/331 513/513/333 525/525/321 524/524/319
s 3
f 513/513/333 514/514/334 526/526/322 525/525/321
s 3
f 514/514/334 515/515/335 527/527/323 526/526/322
s 3
f 515/515/335 516/516/336 528/528/324 527/527/323
s 3
f 516/516/336 505/505/337 517/517/325 528/528/324
s 3
f 517/517/325 518/518/326 530/530/343 529/529/344
s 3
f 518/518/326 519/519/327 531/531/345 530/530/343
s 3
f 519/519/327 520/520/328 532/532/346 531/531/345
s 3
f 520/520/328 521/521/329 533/533/347 532/532/346
s 3
f 521/521/329 522/522/330 534/534/348 533/533/347
s 3
f 522/522/330 523/523/320 535/535/349 534/534/348
s 3
f 523/523/320 524/524/319 536/536/350 535/535/349
s 3
f 524/524/319 525/525/321 537/537/351 536/536/350
s 3
f 525/525/321 526/526/322 538/538/352 537/537/351
s 3
f 526/526/322 527/527/323 539/539/353 538/538/352
s 3
f 527/527/323 528/528/324 540/540/354 539/539/353
s 3
f 528/528/324 517/517/325 529/529/344 540/540/354
s 4
f 541/541/219 542/542/355 547/547/355 546/546/219
s 4
f 542/542/355 543/543/356 548/548/356 547/547/355
s 4
f 543/543/356 544/544/357 549/549/357 548/548/356
s 4
f 544/544/357 545/545/358 550/550/358 549/549/357
s 4
f 545/545/358 541/541/219 546/546/219 550/550/358
s off
f 551/551/210 541/541/210 542/542/210
s off
f 551/551/210 542/542/210 543/543/210
s off
f 551/551/210 543/543/210 544/544/210
s off
f 551/551/210 544/544/210 545/545/210
s off
f 551/551/210 545/545/210 541/541/210
s off
f 552/552/161 547/547/161 546/546/161
s off
f 552/552/161 548/548/161 547/547/161
s off
f 552/552/161 549/549/161 548/548/161
s off
f 552/552/161 550/550/161 549/549/161
s off
f 552/552/161 546/546/161 550/550/161
s 5
f 553/553/161 555/561/359 554/560/360
s 5
f 553/554/161 556/562/361 555/561/359
s 5
f 553/555/161 557/563/362 556/562/361
s 5
f 553/556/161 558/564/363 557/563/362
s 5
f 553/557/161 559/565/364 558/564/363
s 5
f 553/558/161 560/566/365 559/565/364
s 5
f 553/559/161 554/560/360 560/566/365
s 5
f 554/560/360 555/561/359 562/568/366 561/567/367
s 5
f 555/561/359 556/562/361 563/569/368 562/568/366
s 5
f 556/562/361 557/563/362 564/570/369 563/569/368
s 5
f 557/563/362 558/564/363 565/571/370 564/570/369
s 5
f 558/564/363 559/565/364 566/572/371 565/571/370
s 5
f 559/565/364 560/566/365 567/573/372 566/572/371
s 5
f 560/566/365 554/560/360 561/567/367 567/573/372
s 5
f 561/567/367 562/568/366 569/575/373 568/574/374
s 5
f 562/568/366 563/569/368 570/576/375 569/575/373
s 5
f 563/569/368 564/570/369 571/577/376 570/576/375
s 5
f 564/570/369 565/571/370 572/578/377 571/577/376
s 5
f 565/571/370 566/572/371 573/579/378 572/578/377
s 5
f 566/572/371 567/573/372 574/580/379 573/579/378
s 5
f 567/573/372 561/567/367 568/574/374 574/580/379
s 5
f 568/574/374 569/575/373 576/582/380 575/581/381
s 5
f 569/575/373 570/576/375 577/583/382 576/582/380
s 5
f 570/576/375 571/577/376 578/584/383 577/583/382
s 5
f 571/577/376 572/578/377 579/585/384 578/584/383
s 5
f 572/578/377 573/579/378 580/586/385 579/585/384
s 5
f 573/579/378 574/580/379 581/587/386 580/586/385
s 5
f 574/580/379 568/574/374 575/581/381 581/587/386
s 5
f 575/581/381 576/582/380 582/588/210
s 5
f 576/582/380 577/583/382 582/589/210
s 5
f 577/583/382 578/584/383 582/590/210
s 5
f 578/584/383 579/585/384 582/591/210
s 5
f 579/585/384 580/586/385 582/592/210
s 5
f 580/586/385 581/587/386 582/593/210
s 5
f 581/587/386 575/581/381 582/594/210
usemtl wet_residue
s 6
f 583/595/387 584/596/388 599/611/389 598/610/390
s 6
f 584/596/388 585/597/391 600/612/392 599/611/389
s 6
f 585/597/391 586/598/393 601/613/394 600/612/392
s 6
f 586/598/393 587/599/395 602/614/396 601/613/394
s 6
f 587/599/395 588/600/397 603/615/398 602/614/396
s 6
f 588/600/397 589/601/399 604/616/400 603/615/398
s 6
f 589/601/399 590/602/401 605/617/402 604/616/400
s 6
f 590/602/401 591/603/403 606/618/404 605/617/402
s 6
f 591/603/403 592/604/405 607/619/406 606/618/404
s 6
f 592/604/405 593/605/407 608/620/408 607/619/406
s 6
f 593/605/407 594/606/409 609/621/410 608/620/408
s 6
f 594/606/409 595/607/411 610/622/412 609/621/410
s 6
f 595/607/411 596/608/413 611/623/414 610/622/412
s 6
f 596/608/413 597/609/415 612/624/416 611/623/414
s 6
f 598/610/390 599/611/389 614/626/417 613/625/418
s 6
f 599/611/389 600/612/392 615/627/419 614/626/417
s 6
f 600/612/392 601/613/394 616/628/420 615/627/419
s 6
f 601/613/394 602/614/396 617/629/421 616/628/420
s 6
f 602/614/396 603/615/398 618/630/422 617/629/421
s 6
f 603/615/398 604/616/400 619/631/423 618/630/422
s 6
f 604/616/400 605/617/402 620/632/424 619/631/423
s 6
f 605/617/402 606/618/404 621/633/425 620/632/424
s 6
f 606/618/404 607/619/406 622/634/426 621/633/425
s 6
f 607/619/406 608/620/408 623/635/427 622/634/426
s 6
f 608/620/408 609/621/410 624/636/428 623/635/427
s 6
f 609/621/410 610/622/412 625/637/429 624/636/428
s 6
f 610/622/412 611/623/414 626/638/430 625/637/429
s 6
f 611/623/414 612/624/416 627/639/431 626/638/430
s 6
f 613/625/418 614/626/417 629/641/210 628/640/210
s 6
f 614/626/417 615/627/419 630/642/210 629/641/210
s 6
f 615/627/419 616/628/420 631/643/210 630/642/210
s 6
f 616/628/420 617/629/421 632/644/210 631/643/210
s 6
f 617/629/421 618/630/422 633/645/210 632/644/210
s 6
f 618/630/422 619/631/423 634/646/210 633/645/210
s 6
f 619/631/423 620/632/424 635/647/210 634/646/210
s 6
f 620/632/424 621/633/425 636/648/210 635/647/210
s 6
f 621/633/425 622/634/426 637/649/210 636/648/210
s 6
f 622/634/426 623/635/427 638/650/210 637/649/210
s 6
f 623/635/427 624/636/428 639/651/210 638/650/210
s 6
f 624/636/428 625/637/429 640/652/210 639/651/210
s 6
f 625/637/429 626/638/430 641/653/210 640/652/210
s 6
f 626/638/430 627/639/431 642/654/210 641/653/210
s 6
f 628/640/210 629/641/210 644/656/432 643/655/433
s 6
f 629/641/210 630/642/210 645/657/434 644/656/432
s 6
f 630/642/210 631/643/210 646/658/435 645/657/434
s 6
f 631/643/210 632/644/210 647/659/436 646/658/435
s 6
f 632/644/210 633/645/210 648/660/437 647/659/436
s 6
f 633/645/210 634/646/210 649/661/438 648/660/437
s 6
f 634/646/210 635/647/210 650/662/439 649/661/438
s 6
f 635/647/210 636/648/210 651/663/440 650/662/439
s 6
f 636/648/210 637/649/210 652/664/441 651/663/440
s 6
f 637/649/210 638/650/210 653/665/442 652/664/441
s 6
f 638/650/210 639/651/210 654/666/443 653/665/442
s 6
f 639/651/210 640/652/210 655/667/444 654/666/443
s 6
f 640/652/210 641/653/210 656/668/445 655/667/444
s 6
f 641/653/210 642/654/210 657/669/446 656/668/445
s 6
f 643/655/433 644/656/432 659/671/447 658/670/448
s 6
f 644/656/432 645/657/434 660/672/449 659/671/447
s 6
f 645/657/434 646/658/435 661/673/450 660/672/449
s 6
f 646/658/435 647/659/436 662/674/451 661/673/450
s 6
f 647/659/436 648/660/437 663/675/452 662/674/451
s 6
f 648/660/437 649/661/438 664/676/453 663/675/452
s 6
f 649/661/438 650/662/439 665/677/454 664/676/453
s 6
f 650/662/439 651/663/440 666/678/455 665/677/454
s 6
f 651/663/440 652/664/441 667/679/456 666/678/455
s 6
f 652/664/441 653/665/442 668/680/457 667/679/456
s 6
f 653/665/442 654/666/443 669/681/458 668/680/457
s 6
f 654/666/443 655/667/444 670/682/459 669/681/458
s 6
f 655/667/444 656/668/445 671/683/460 670/682/459
s 6
f 656/668/445 657/669/446 672/684/461 671/683/460
s 6
f 658/670/448 659/671/447 674/686/462 673/685/463
s 6
f 659/671/447 660/672/449 675/687/464 674/686/462
s 6
f 660/672/449 661/673/450 676/688/465 675/687/464
s 6
f 661/673/450 662/674/451 677/689/466 676/688/465
s 6
f 662/674/451 663/675/452 678/690/467 677/689/466
s 6
f 663/675/452 664/676/453 679/691/468 678/690/467
s 6
f 664/676/453 665/677/454 680/692/469 679/691/468
s 6
f 665/677/454 666/678/455 681/693/470 680/692/469
s 6
f 666/678/455 667/679/456 682/694/471 681/693/470
s 6
f 667/679/456 668/680/457 683/695/472 682/694/471
s 6
f 668/680/457 669/681/458 684/696/473 683/695/472
s 6
f 669/681/458 670/682/459 685/697/474 684/696/473
s 6
f 670/682/459 671/683/460 686/698/475 685/697/474
s 6
f 671/683/460 672/684/461 687/699/476 686/698/475
s 6
f 673/685/463 674/686/462 689/701/477 688/700/478
s 6
f 674/686/462 675/687/464 690/702/479 689/701/477
s 6
f 675/687/464 676/688/465 691/703/480 690/702/479
s 6
f 676/688/465 677/689/466 692/704/481 691/703/480
s 6
f 677/689/466 678/690/467 693/705/482 692/704/481
s 6
f 678/690/467 679/691/468 694/706/483 693/705/482
s 6
f 679/691/468 680/692/469 695/707/484 694/706/483
s 6
f 680/692/469 681/693/470 696/708/485 695/707/484
s 6
f 681/693/470 682/694/471 697/709/486 696/708/485
s 6
f 682/694/471 683/695/472 698/710/487 697/709/486
s 6
f 683/695/472 684/696/473 699/711/488 698/710/487
s 6
f 684/696/473 685/697/474 700/712/489 699/711/488
s 6
f 685/697/474 686/698/475 701/713/490 700/712/489
s 6
f 686/698/475 687/699/476 702/714/491 701/713/490
s 6
f 688/700/478 689/701/477 704/716/492 703/715/493
s 6
f 689/701/477 690/702/479 705/717/494 704/716/492
s 6
f 690/702/479 691/703/480 706/718/495 705/717/494
s 6
f 691/703/480 692/704/481 707/719/496 706/718/495
s 6
f 692/704/481 693/705/482 708/720/497 707/719/496
s 6
f 693/705/482 694/706/483 709/721/498 708/720/497
s 6
f 694/706/483 695/707/484 710/722/499 709/721/498
s 6
f 695/707/484 696/708/485 711/723/500 710/722/499
s 6
f 696/708/485 697/709/486 712/724/501 711/723/500
s 6
f 697/709/486 698/710/487 713/725/502 712/724/501
s 6
f 698/710/487 699/711/488 714/726/503 713/725/502
s 6
f 699/711/488 700/712/489 715/727/504 714/726/503
s 6
f 700/712/489 701/713/490 716/728/505 715/727/504
s 6
f 701/713/490 702/714/491 717/729/506 716/728/505
s 6
f 703/715/493 704/716/492 719/731/161 718/730/161
s 6
f 704/716/492 705/717/494 720/732/161 719/731/161
s 6
f 705/717/494 706/718/495 721/733/161 720/732/161
s 6
f 706/718/495 707/719/496 722/734/161 721/733/161
s 6
f 707/719/496 708/720/497 723/735/161 722/734/161
s 6
f 708/720/497 709/721/498 724/736/161 723/735/161
s 6
f 709/721/498 710/722/499 725/737/161 724/736/161
s 6
f 710/722/499 711/723/500 726/738/161 725/737/161
s 6
f 711/723/500 712/724/501 727/739/161 726/738/161
s 6
f 712/724/501 713/725/502 728/740/161 727/739/161
s 6
f 713/725/502 714/726/503 729/741/161 728/740/161
s 6
f 714/726/503 715/727/504 730/742/161 729/741/161
s 6
f 715/727/504 716/728/505 731/743/161 730/742/161
s 6
f 716/728/505 717/729/506 732/744/161 731/743/161
s 6
f 718/730/161 719/731/161 734/746/507 733/745/508
s 6
f 719/731/161 720/732/161 735/747/509 734/746/507
s 6
f 720/732/161 721/733/161 736/748/510 735/747/509
s 6
f 721/733/161 722/734/161 737/749/511 736/748/510
s 6
f 722/734/161 723/735/161 738/750/512 737/749/511
s 6
f 723/735/161 724/736/161 739/751/513 738/750/512
s 6
f 724/736/161 725/737/161 740/752/514 739/751/513
s 6
f 725/737/161 726/738/161 741/753/515 740/752/514
s 6
f 726/738/161 727/739/161 742/754/516 741/753/515
s 6
f 727/739/161 728/740/161 743/755/517 742/754/516
s 6
f 728/740/161 729/741/161 744/756/518 743/755/517
s 6
f 729/741/161 730/742/161 745/757/519 744/756/518
s 6
f 730/742/161 731/743/161 746/758/520 745/757/519
s 6
f 731/743/161 732/744/161 747/759/521 746/758/520
s 6
f 733/745/508 734/746/507 749/761/522 748/760/523
s 6
f 734/746/507 735/747/509 750/762/524 749/761/522
s 6
f 735/747/509 736/748/510 751/763/525 750/762/524
s 6
f 736/748/510 737/749/511 752/764/526 751/763/525
s 6
f 737/749/511 738/750/512 753/765/527 752/764/526
s 6
f 738/750/512 739/751/513 754/766/528 753/765/527
s 6
f 739/751/513 740/752/514 755/767/529 754/766/528
s 6
f 740/752/514 741/753/515 756/768/530 755/767/529
s 6
f 741/753/515 742/754/516 757/769/531 756/768/530
s 6
f 742/754/516 743/755/517 758/770/532 757/769/531
s 6
f 743/755/517 744/756/518 759/771/533 758/770/532
s 6
f 744/756/518 745/757/519 760/772/534 759/771/533
s 6
f 745/757/519 746/758/520 761/773/535 760/772/534
s 6
f 746/758/520 747/759/521 762/774/536 761/773/535
s 6
f 748/760/523 749/761/522 764/776/537 763/775/538
s 6
f 749/761/522 750/762/524 765/777/539 764/776/537
s 6
f 750/762/524 751/763/525 766/778/540 765/777/539
s 6
f 751/763/525 752/764/526 767/779/541 766/778/540
s 6
f 752/764/526 753/765/527 768/780/542 767/779/541
s 6
f 753/765/527 754/766/528 769/781/543 768/780/542
s 6
f 754/766/528 755/767/529 770/782/544 769/781/543
s 6
f 755/767/529 756/768/530 771/783/545 770/782/544
s 6
f 756/768/530 757/769/531 772/784/546 771/783/545
s 6
f 757/769/531 758/770/532 773/785/547 772/784/546
s 6
f 758/770/532 759/771/533 774/786/548 773/785/547
s 6
f 759/771/533 760/772/534 775/787/549 774/786/548
s 6
f 760/772/534 761/773/535 776/788/550 775/787/549
s 6
f 761/773/535 762/774/536 777/789/551 776/788/550
