# Blender 4.1.1
# www.blender.org
mtllib stew.mtl
g Carrot_0.001_Mesh
v 0.000000 -0.010000 -0.040000
v 0.000000 0.010000 -0.036000
v 0.031273 -0.010000 -0.024940
v 0.028146 0.010000 -0.022446
v 0.038997 -0.010000 0.008901
v 0.035097 0.010000 0.008011
v 0.017355 -0.010000 0.036039
v 0.015620 0.010000 0.032435
v -0.017355 -0.010000 0.036039
v -0.015620 0.010000 0.032435
v -0.038997 -0.010000 0.008901
v -0.035097 0.010000 0.008011
v -0.031273 -0.010000 -0.024940
v -0.028146 0.010000 -0.022446
vn 0.4270 0.1773 -0.8867
vn 0.9595 0.1773 -0.2190
vn 0.7694 0.1773 0.6136
vn -0.0000 0.1773 0.9842
vn -0.7694 0.1773 0.6136
vn -0.0000 1.0000 -0.0000
vn -0.9595 0.1773 -0.2190
vn -0.4270 0.1773 -0.8867
vn -0.0000 -1.0000 -0.0000
vn -0.0000 0.1773 0.9841
s 0
g Carrot_0.001_wax
usemtl wax
f 2//1 3//1 1//1
f 3//2 6//2 5//2
f 6//3 7//3 5//3
f 7//4 10//4 9//4
f 10//5 11//5 9//5
f 2//6 12//6 8//6
f 12//7 13//7 11//7
f 14//8 1//8 13//8
f 3//9 7//9 11//9
f 2//1 4//1 3//1
f 3//2 4//2 6//2
f 6//3 8//3 7//3
f 7//10 8//10 10//10
f 10//5 12//5 11//5
f 6//6 4//6 2//6
f 2//6 14//6 12//6
f 12//6 10//6 8//6
f 8//6 6//6 2//6
f 12//7 14//7 13//7
f 14//8 2//8 1//8
f 13//9 1//9 3//9
f 3//9 5//9 7//9
f 7//9 9//9 11//9
f 11//9 13//9 3//9
g Carrot_1.001_Mesh
v 0.000000 -0.009000 -0.035000
v 0.000000 0.009000 -0.031500
v 0.027364 -0.009000 -0.021822
v 0.024628 0.009000 -0.019640
v 0.034122 -0.009000 0.007788
v 0.030710 0.009000 0.007009
v 0.015186 -0.009000 0.031534
v 0.013667 0.009000 0.028381
v -0.015186 -0.009000 0.031534
v -0.013667 0.009000 0.028381
v -0.034122 -0.009000 0.007788
v -0.030710 0.009000 0.007009
v -0.027364 -0.009000 -0.021822
v -0.024628 0.009000 -0.019640
vn 0.4274 0.1726 -0.8875
vn 0.9603 0.1726 -0.2192
vn 0.7701 0.1726 0.6141
vn -0.0000 0.1726 0.9850
vn -0.7701 0.1726 0.6141
vn -0.0000 1.0000 -0.0000
vn -0.9603 0.1726 -0.2192
vn -0.4274 0.1726 -0.8875
vn -0.0000 -1.0000 -0.0000
s 0
g Carrot_1.001_wax
usemtl wax
f 16//11 17//11 15//11
f 18//12 19//12 17//12
f 20//13 21//13 19//13
f 22//14 23//14 21//14
f 23//15 26//15 25//15
f 16//16 26//16 22//16
f 26//17 27//17 25//17
f 28//18 15//18 27//18
f 17//19 21//19 25//19
f 16//11 18//11 17//11
f 18//12 20//12 19//12
f 20//13 22//13 21//13
f 22//14 24//14 23//14
f 23//15 24//15 26//15
f 20//16 18//16 16//16
f 16//16 28//16 26//16
f 26//16 24//16 22//16
f 22//16 20//16 16//16
f 26//17 28//17 27//17
f 28//18 16//18 15//18
f 27//19 15//19 17//19
f 17//19 19//19 21//19
f 21//19 23//19 25//19
f 25//19 27//19 17//19
g CauldronBody.001_CauldronBody.001
v 0.080000 -0.220000 0.000000
v 0.230000 -0.160000 0.000000
v 0.310000 -0.020000 0.000000
v 0.270000 0.120000 0.000000
v 0.310000 0.180000 0.000000
v 0.240000 0.100000 0.000000
v 0.073910 -0.220000 -0.030615
v 0.212492 -0.160000 -0.088017
v 0.286403 -0.020000 -0.118632
v 0.249447 0.120000 -0.103325
v 0.286403 0.180000 -0.118632
v 0.249447 0.180000 -0.103325
v 0.221731 0.100000 -0.091844
v 0.203253 0.020000 -0.084190
v 0.056569 -0.220000 -0.056569
v 0.162635 -0.160000 -0.162635
v 0.219203 -0.020000 -0.219203
v 0.190919 0.120000 -0.190919
v 0.219203 0.180000 -0.219203
v 0.190919 0.180000 -0.190919
v 0.169706 0.100000 -0.169706
v 0.155563 0.020000 -0.155564
v 0.000000 0.020000 0.000000
v 0.030615 -0.220000 -0.073910
v 0.088017 -0.160000 -0.212492
v 0.118632 -0.020000 -0.286403
v 0.103325 0.120000 -0.249447
v 0.118632 0.180000 -0.286403
v 0.103325 0.180000 -0.249447
v 0.091844 0.100000 -0.221731
v 0.084190 0.020000 -0.203254
v -0.000000 -0.220000 -0.080000
v -0.000000 -0.160000 -0.230000
v -0.000000 -0.020000 -0.310000
v -0.000000 0.120000 -0.270000
v -0.000000 0.180000 -0.310000
v -0.000000 0.180000 -0.270000
v -0.000000 0.100000 -0.240000
v -0.000000 0.020000 -0.220000
v -0.030615 -0.220000 -0.073910
v -0.088017 -0.160000 -0.212492
v -0.118632 -0.020000 -0.286403
v -0.103325 0.120000 -0.249447
v -0.118632 0.180000 -0.286403
v -0.103325 0.180000 -0.249447
v -0.091844 0.100000 -0.221731
v -0.084190 0.020000 -0.203253
v -0.056569 -0.220000 -0.056569
v -0.162635 -0.160000 -0.162635
v -0.219203 -0.020000 -0.219203
v -0.190919 0.120000 -0.190919
v -0.219203 0.180000 -0.219203
v -0.190919 0.180000 -0.190919
v -0.169706 0.100000 -0.169706
v -0.155564 0.020000 -0.155563
v -0.073910 -0.220000 -0.030615
v -0.212492 -0.160000 -0.088017
v -0.286403 -0.020000 -0.118632
v -0.249448 0.120000 -0.103324
v -0.286403 0.180000 -0.118632
v -0.249448 0.180000 -0.103324
v -0.221731 0.100000 -0.091844
v -0.203254 0.020000 -0.084190
v -0.080000 -0.220000 0.000000
v -0.230000 -0.160000 0.000000
v -0.310000 -0.020000 0.000000
v -0.270000 0.120000 0.000000
v -0.310000 0.180000 0.000000
v -0.270000 0.180000 0.000000
v -0.240000 0.100000 0.000000
v -0.220000 0.020000 0.000000
v -0.073910 -0.220000 0.030615
v -0.212492 -0.160000 0.088017
v -0.286403 -0.020000 0.118632
v -0.249447 0.120000 0.103325
v -0.286403 0.180000 0.118632
v -0.249447 0.180000 0.103325
v -0.221731 0.100000 0.091844
v -0.203253 0.020000 0.084190
v -0.056569 -0.220000 0.056569
v -0.162634 -0.160000 0.162635
v -0.219203 -0.020000 0.219203
v -0.190919 0.120000 0.190919
v -0.219203 0.180000 0.219203
v -0.190919 0.180000 0.190919
v -0.169706 0.100000 0.169706
v -0.155563 0.020000 0.155564
v -0.030615 -0.220000 0.073910
v -0.088017 -0.160000 0.212492
v -0.118632 -0.020000 0.286403
v -0.103324 0.120000 0.249448
v -0.118632 0.180000 0.286403
v -0.103324 0.180000 0.249448
v -0.091844 0.100000 0.221731
v -0.084190 0.020000 0.203253
v 0.000000 -0.220000 0.080000
v 0.000000 -0.160000 0.230000
v 0.000000 -0.020000 0.310000
v 0.000000 0.120000 0.270000
v 0.000000 0.180000 0.310000
v 0.000000 0.180000 0.270000
v 0.000000 0.100000 0.240000
v 0.000000 0.020000 0.220000
v 0.030615 -0.220000 0.073910
v 0.088017 -0.160000 0.212492
v 0.118632 -0.020000 0.286402
v 0.103325 0.120000 0.249447
v 0.118632 0.180000 0.286402
v 0.103325 0.180000 0.249447
v 0.091844 0.100000 0.221731
v 0.084190 0.020000 0.203253
v 0.056569 -0.220000 0.056569
v 0.162635 -0.160000 0.162634
v 0.219203 -0.020000 0.219203
v 0.190919 0.120000 0.190919
v 0.219203 0.180000 0.219203
v 0.190919 0.180000 0.190919
v 0.169706 0.100000 0.169706
v 0.155564 0.020000 0.155563
v 0.073910 -0.220000 0.030615
v 0.212492 -0.160000 0.088017
v 0.286403 -0.020000 0.118632
v 0.249448 0.120000 0.103324
v 0.286403 0.180000 0.118632
v 0.249448 0.180000 0.103324
v 0.221731 0.100000 0.091844
v 0.203253 0.020000 0.084190
v 0.270000 0.180000 -0.000000
v 0.220000 0.020000 -0.000000
l 31 37
l 32 38
l 33 39
l 29 35
l 30 36
l 34 41
l 42 50
l 38 46
l 39 47
l 35 43
l 40 48
l 41 49
l 36 44
l 37 45
l 46 55
l 47 56
l 43 52
l 48 57
l 44 53
l 49 58
l 45 54
l 50 59
l 56 64
l 52 60
l 57 65
l 58 66
l 53 61
l 54 62
l 59 67
l 55 63
l 60 68
l 65 73
l 61 69
l 66 74
l 67 75
l 62 70
l 63 71
l 64 72
l 73 81
l 69 77
l 74 82
l 70 78
l 75 83
l 71 79
l 72 80
l 68 76
l 77 85
l 82 90
l 83 91
l 78 86
l 79 87
l 80 88
l 81 89
l 76 84
l 86 94
l 91 99
l 87 95
l 88 96
l 84 92
l 89 97
l 85 93
l 90 98
l 95 103
l 96 104
l 97 105
l 92 100
l 93 101
l 98 106
l 94 102
l 99 107
l 103 111
l 104 112
l 100 108
l 105 113
l 106 114
l 101 109
l 102 110
l 107 115
l 112 120
l 108 116
l 113 121
l 109 117
l 114 122
l 110 118
l 115 123
l 111 119
l 116 124
l 121 129
l 122 130
l 117 125
l 118 126
l 123 131
l 119 127
l 120 128
l 125 133
l 130 138
l 131 139
l 126 134
l 127 135
l 128 136
l 124 132
l 129 137
l 133 141
l 138 146
l 134 142
l 139 147
l 135 143
l 136 144
l 132 140
l 137 145
l 142 150
l 147 155
l 143 151
l 144 152
l 145 153
l 140 148
l 141 149
l 146 154
l 153 156
l 155 157
l 157 42
l 156 40
l 151 32
l 152 33
l 148 29
l 149 30
l 154 34
l 150 31
g CurvedLadle.001_Mesh
v 0.050000 -0.030000 0.000000
v 0.000000 -0.040000 0.000000
v 0.000000 -0.065000 -0.016000
v 0.000000 0.065000 -0.014000
v 0.013856 -0.065000 -0.008000
v 0.012124 0.065000 -0.007000
v 0.013856 -0.065000 0.008000
v 0.012124 0.065000 0.007000
v 0.000000 -0.065000 0.016000
v 0.000000 0.065000 0.014000
v -0.013856 -0.065000 0.008000
v -0.012124 0.065000 0.007000
v -0.013856 -0.065000 -0.008000
v -0.012124 0.065000 -0.007000
v 0.000000 -0.083217 -0.014000
v 0.000000 0.083217 -0.012000
v 0.012124 -0.083217 -0.007000
v 0.010392 0.083217 -0.006000
v 0.012124 -0.083217 0.007000
v 0.010392 0.083217 0.006000
v 0.000000 -0.083217 0.014000
v 0.000000 0.083217 0.012000
v -0.012124 -0.083217 0.007000
v -0.010392 0.083217 0.006000
v -0.012124 -0.083217 -0.007000
v -0.010392 0.083217 -0.006000
v 0.000000 -0.067268 -0.012000
v 0.000000 0.067268 -0.010000
v 0.010392 -0.067268 -0.006000
v 0.008660 0.067268 -0.005000
v 0.010392 -0.067268 0.006000
v 0.008660 0.067268 0.005000
v 0.000000 -0.067268 0.012000
v 0.000000 0.067268 0.010000
v -0.010392 -0.067268 0.006000
v -0.008660 0.067268 0.005000
v -0.010392 -0.067268 -0.006000
v -0.008660 0.067268 -0.005000
v 0.000000 -0.039051 -0.010000
v 0.000000 0.039051 -0.008000
v 0.008660 -0.039051 -0.005000
v 0.006928 0.039051 -0.004000
v 0.008660 -0.039051 0.005000
v 0.006928 0.039051 0.004000
v 0.000000 -0.039051 0.010000
v 0.000000 0.039051 0.008000
v -0.008660 -0.039051 0.005000
v -0.006928 0.039051 0.004000
v -0.008660 -0.039051 -0.005000
v -0.006928 0.039051 -0.004000
v 0.060000 0.020000 0.000000
v 0.050000 0.020000 0.000000
v 0.040000 -0.020000 0.000000
v 0.000000 -0.020000 0.000000
v 0.040451 -0.030000 -0.029389
v 0.000000 -0.040000 0.000000
v 0.048541 0.020000 -0.035267
v 0.040451 0.020000 -0.029389
v 0.032361 -0.020000 -0.023511
v 0.000000 -0.020000 0.000000
v 0.015451 -0.030000 -0.047553
v 0.000000 -0.040000 0.000000
v 0.018541 0.020000 -0.057063
v 0.015451 0.020000 -0.047553
v 0.012361 -0.020000 -0.038042
v 0.000000 -0.020000 0.000000
v -0.015451 -0.030000 -0.047553
v 0.000000 -0.040000 0.000000
v -0.018541 0.020000 -0.057063
v -0.015451 0.020000 -0.047553
v -0.012361 -0.020000 -0.038042
v 0.000000 -0.020000 0.000000
v -0.040451 -0.030000 -0.029389
v 0.000000 -0.040000 0.000000
v -0.048541 0.020000 -0.035267
v -0.040451 0.020000 -0.029389
v -0.032361 -0.020000 -0.023511
v 0.000000 -0.020000 0.000000
v -0.050000 -0.030000 -0.000000
v 0.000000 -0.040000 0.000000
v -0.060000 0.020000 -0.000000
v -0.050000 0.020000 -0.000000
v -0.040000 -0.020000 0.000000
v 0.000000 -0.020000 0.000000
v -0.040451 -0.030000 0.029389
v 0.000000 -0.040000 0.000000
v -0.048541 0.020000 0.035267
v -0.040451 0.020000 0.029389
v -0.032361 -0.020000 0.023511
v 0.000000 -0.020000 0.000000
v -0.015451 -0.030000 0.047553
v 0.000000 -0.040000 0.000000
v -0.018541 0.020000 0.057063
v -0.015451 0.020000 0.047553
v -0.012361 -0.020000 0.038042
v 0.000000 -0.020000 0.000000
v 0.015451 -0.030000 0.047553
v 0.000000 -0.040000 0.000000
v 0.018541 0.020000 0.057063
v 0.015451 0.020000 0.047553
v 0.012361 -0.020000 0.038042
v 0.000000 -0.020000 0.000000
v 0.040451 -0.030000 0.029389
v 0.000000 -0.040000 0.000000
v 0.048541 0.020000 0.035267
v 0.040451 0.020000 0.029389
v 0.032361 -0.020000 0.023511
v 0.000000 -0.020000 0.000000
v 0.050000 -0.030000 0.000000
v 0.000000 -0.040000 0.000000
v 0.060000 0.020000 0.000000
v 0.050000 0.020000 0.000000
v 0.040000 -0.020000 0.000000
v 0.000000 -0.020000 0.000000
vn 0.5000 0.0133 -0.8659
vn 0.9999 0.0133 -0.0000
vn 0.5000 0.0129 -0.8660
vn 0.5000 0.0104 -0.8660
vn 0.5000 0.0133 0.8659
vn 0.4999 0.0222 -0.8658
vn -0.5000 0.0133 0.8659
vn -0.0000 1.0000 -0.0000
vn -0.9999 0.0133 -0.0000
vn 0.5000 0.0104 0.8660
vn 0.9999 0.0104 -0.0000
vn -0.5000 0.0133 -0.8659
vn -0.0000 -1.0000 -0.0000
vn -0.5000 0.0104 0.8660
vn -0.9999 0.0104 -0.0000
vn 0.5000 0.0129 0.8660
vn 0.9999 0.0129 -0.0000
vn -0.5000 0.0104 -0.8660
vn -0.5000 0.0129 0.8660
vn -0.9999 0.0129 -0.0000
vn 0.4999 0.0222 0.8658
vn 0.9998 0.0222 -0.0000
vn -0.5000 0.0129 -0.8660
vn -0.4999 0.0222 0.8658
vn -0.9998 0.0222 -0.0000
vn -0.4999 0.0222 -0.8658
s 0
g CurvedLadle.001_dark_wood
usemtl dark_wood
f 161//20 162//20 160//20
f 163//21 164//21 162//21
f 185//22 186//22 184//22
f 173//23 174//23 172//23
f 165//24 166//24 164//24
f 197//25 198//25 196//25
f 167//26 168//26 166//26
f 161//27 169//27 165//27
f 169//28 170//28 168//28
f 177//29 178//29 176//29
f 175//30 176//30 174//30
f 171//31 160//31 170//31
f 162//32 166//32 170//32
f 179//33 180//33 178//33
f 175//27 183//27 179//27
f 181//34 182//34 180//34
f 189//35 190//35 188//35
f 187//36 188//36 186//36
f 183//37 172//37 182//37
f 180//32 172//32 176//32
f 191//38 192//38 190//38
f 185//27 193//27 189//27
f 193//39 194//39 192//39
f 201//40 202//40 200//40
f 199//41 200//41 198//41
f 195//42 184//42 194//42
f 190//32 194//32 186//32
f 203//43 204//43 202//43
f 200//32 204//32 196//32
f 205//44 206//44 204//44
f 207//45 196//45 206//45
f 201//27 197//27 205//27
f 161//20 163//20 162//20
f 163//21 165//21 164//21
f 185//22 187//22 186//22
f 173//23 175//23 174//23
f 165//24 167//24 166//24
f 197//25 199//25 198//25
f 167//26 169//26 168//26
f 165//27 163//27 161//27
f 161//27 171//27 169//27
f 169//27 167//27 165//27
f 169//28 171//28 170//28
f 177//29 179//29 178//29
f 175//30 177//30 176//30
f 171//31 161//31 160//31
f 170//32 160//32 162//32
f 162//32 164//32 166//32
f 166//32 168//32 170//32
f 179//33 181//33 180//33
f 179//27 177//27 175//27
f 175//27 173//27 183//27
f 183//27 181//27 179//27
f 181//34 183//34 182//34
f 189//35 191//35 190//35
f 187//36 189//36 188//36
f 183//37 173//37 172//37
f 176//32 178//32 180//32
f 180//32 182//32 172//32
f 172//32 174//32 176//32
f 191//38 193//38 192//38
f 189//27 187//27 185//27
f 185//27 195//27 193//27
f 193//27 191//27 189//27
f 193//39 195//39 194//39
f 201//40 203//40 202//40
f 199//41 201//41 200//41
f 195//42 185//42 184//42
f 186//32 188//32 190//32
f 190//32 192//32 194//32
f 194//32 184//32 186//32
f 203//43 205//43 204//43
f 196//32 198//32 200//32
f 200//32 202//32 204//32
f 204//32 206//32 196//32
f 205//44 207//44 206//44
f 207//45 197//45 196//45
f 205//27 203//27 201//27
f 201//27 199//27 197//27
f 197//27 207//27 205//27
l 215 221
l 212 218
l 214 220
l 208 214
l 158 212
l 209 215
l 211 217
l 217 223
l 210 216
l 213 219
l 159 213
l 216 222
l 222 228
l 219 225
l 223 229
l 220 226
l 221 227
l 218 224
l 228 234
l 225 231
l 229 235
l 226 232
l 227 233
l 224 230
l 235 241
l 232 238
l 233 239
l 230 236
l 234 240
l 231 237
l 241 247
l 238 244
l 239 245
l 236 242
l 240 246
l 237 243
l 247 253
l 244 250
l 245 251
l 242 248
l 246 252
l 243 249
l 250 256
l 251 257
l 248 254
l 252 258
l 249 255
l 253 259
l 257 263
l 254 260
l 258 264
l 255 261
l 259 265
l 256 262
l 263 269
l 260 266
l 264 270
l 261 267
l 265 271
l 262 268
g CurvedLeg_0.001_CurvedLeg_0.001
v 0.020000 0.080000 0.000000
v 0.055000 0.020000 0.000000
v 0.065000 -0.060000 0.000000
v 0.040000 -0.100000 0.000000
v 0.000000 -0.100000 0.000000
v 0.014142 0.080000 -0.014142
v 0.038891 0.020000 -0.038891
v 0.045962 -0.060000 -0.045962
v 0.028284 -0.100000 -0.028284
v 0.000000 -0.100000 0.000000
v 0.000000 0.080000 -0.020000
v 0.000000 0.020000 -0.055000
v 0.000000 -0.060000 -0.065000
v 0.000000 -0.100000 -0.040000
v 0.000000 -0.100000 0.000000
v -0.014142 0.080000 -0.014142
v -0.038891 0.020000 -0.038891
v -0.045962 -0.060000 -0.045962
v -0.028284 -0.100000 -0.028284
v 0.000000 -0.100000 0.000000
v -0.020000 0.080000 0.000000
v -0.055000 0.020000 0.000000
v -0.065000 -0.060000 0.000000
v -0.040000 -0.100000 0.000000
v 0.000000 -0.100000 0.000000
v -0.014142 0.080000 0.014142
v -0.038891 0.020000 0.038891
v -0.045962 -0.060000 0.045962
v -0.028284 -0.100000 0.028284
v 0.000000 -0.100000 0.000000
v 0.000000 0.080000 0.020000
v 0.000000 0.020000 0.055000
v 0.000000 -0.060000 0.065000
v 0.000000 -0.100000 0.040000
v 0.000000 -0.100000 0.000000
v 0.014142 0.080000 0.014142
v 0.038891 0.020000 0.038891
v 0.045962 -0.060000 0.045962
v 0.028284 -0.100000 0.028284
v 0.000000 -0.100000 0.000000
v 0.020000 0.080000 0.000000
v 0.055000 0.020000 0.000000
v 0.065000 -0.060000 0.000000
v 0.040000 -0.100000 0.000000
v 0.000000 -0.100000 0.000000
l 275 280
l 272 277
l 276 281
l 273 278
l 274 279
l 281 286
l 278 283
l 279 284
l 280 285
l 277 282
l 284 289
l 285 290
l 282 287
l 286 291
l 283 288
l 291 296
l 288 293
l 289 294
l 290 295
l 287 292
l 294 299
l 295 300
l 292 297
l 296 301
l 293 298
l 300 305
l 297 302
l 301 306
l 298 303
l 299 304
l 306 311
l 303 308
l 304 309
l 305 310
l 302 307
l 310 315
l 307 312
l 311 316
l 308 313
l 309 314
g CurvedLeg_1.001_CurvedLeg_1.001
v 0.020000 0.080000 0.000000
v 0.055000 0.020000 0.000000
v 0.065000 -0.060000 0.000000
v 0.040000 -0.100000 0.000000
v 0.000000 -0.100000 0.000000
v 0.014142 0.080000 -0.014142
v 0.038891 0.020000 -0.038891
v 0.045962 -0.060000 -0.045962
v 0.028284 -0.100000 -0.028284
v 0.000000 -0.100000 0.000000
v 0.000000 0.080000 -0.020000
v 0.000000 0.020000 -0.055000
v 0.000000 -0.060000 -0.065000
v 0.000000 -0.100000 -0.040000
v 0.000000 -0.100000 0.000000
v -0.014142 0.080000 -0.014142
v -0.038891 0.020000 -0.038891
v -0.045962 -0.060000 -0.045962
v -0.028284 -0.100000 -0.028284
v 0.000000 -0.100000 0.000000
v -0.020000 0.080000 0.000000
v -0.055000 0.020000 0.000000
v -0.065000 -0.060000 0.000000
v -0.040000 -0.100000 0.000000
v 0.000000 -0.100000 0.000000
v -0.014142 0.080000 0.014142
v -0.038891 0.020000 0.038891
v -0.045962 -0.060000 0.045962
v -0.028284 -0.100000 0.028284
v 0.000000 -0.100000 0.000000
v 0.000000 0.080000 0.020000
v 0.000000 0.020000 0.055000
v 0.000000 -0.060000 0.065000
v 0.000000 -0.100000 0.040000
v 0.000000 -0.100000 0.000000
v 0.014142 0.080000 0.014142
v 0.038891 0.020000 0.038891
v 0.045962 -0.060000 0.045962
v 0.028284 -0.100000 0.028284
v 0.000000 -0.100000 0.000000
v 0.020000 0.080000 0.000000
v 0.055000 0.020000 0.000000
v 0.065000 -0.060000 0.000000
v 0.040000 -0.100000 0.000000
v 0.000000 -0.100000 0.000000
l 321 326
l 318 323
l 319 324
l 320 325
l 317 322
l 324 329
l 325 330
l 322 327
l 326 331
l 323 328
l 327 332
l 331 336
l 328 333
l 329 334
l 330 335
l 334 339
l 335 340
l 332 337
l 336 341
l 333 338
l 340 345
l 337 342
l 341 346
l 338 343
l 339 344
l 346 351
l 343 348
l 344 349
l 345 350
l 342 347
l 349 354
l 350 355
l 347 352
l 351 356
l 348 353
l 356 361
l 353 358
l 354 359
l 355 360
l 352 357
g CurvedLeg_2.001_CurvedLeg_2.001
v 0.020000 0.080000 0.000000
v 0.055000 0.020000 0.000000
v 0.065000 -0.060000 0.000000
v 0.040000 -0.100000 0.000000
v 0.000000 -0.100000 0.000000
v 0.014142 0.080000 -0.014142
v 0.038891 0.020000 -0.038891
v 0.045962 -0.060000 -0.045962
v 0.028284 -0.100000 -0.028284
v 0.000000 -0.100000 0.000000
v 0.000000 0.080000 -0.020000
v 0.000000 0.020000 -0.055000
v 0.000000 -0.060000 -0.065000
v 0.000000 -0.100000 -0.040000
v 0.000000 -0.100000 0.000000
v -0.014142 0.080000 -0.014142
v -0.038891 0.020000 -0.038891
v -0.045962 -0.060000 -0.045962
v -0.028284 -0.100000 -0.028284
v 0.000000 -0.100000 0.000000
v -0.020000 0.080000 0.000000
v -0.055000 0.020000 0.000000
v -0.065000 -0.060000 0.000000
v -0.040000 -0.100000 0.000000
v 0.000000 -0.100000 0.000000
v -0.014142 0.080000 0.014142
v -0.038891 0.020000 0.038891
v -0.045962 -0.060000 0.045962
v -0.028284 -0.100000 0.028284
v 0.000000 -0.100000 0.000000
v 0.000000 0.080000 0.020000
v 0.000000 0.020000 0.055000
v 0.000000 -0.060000 0.065000
v 0.000000 -0.100000 0.040000
v 0.000000 -0.100000 0.000000
v 0.014142 0.080000 0.014142
v 0.038891 0.020000 0.038891
v 0.045962 -0.060000 0.045962
v 0.028284 -0.100000 0.028284
v 0.000000 -0.100000 0.000000
v 0.020000 0.080000 0.000000
v 0.055000 0.020000 0.000000
v 0.065000 -0.060000 0.000000
v 0.040000 -0.100000 0.000000
v 0.000000 -0.100000 0.000000
l 365 370
l 362 367
l 366 371
l 363 368
l 364 369
l 371 376
l 368 373
l 369 374
l 370 375
l 367 372
l 374 379
l 375 380
l 372 377
l 376 381
l 373 378
l 381 386
l 378 383
l 379 384
l 380 385
l 377 382
l 384 389
l 385 390
l 382 387
l 386 391
l 383 388
l 390 395
l 387 392
l 391 396
l 388 393
l 389 394
l 396 401
l 393 398
l 394 399
l 395 400
l 392 397
l 400 405
l 397 402
l 401 406
l 398 403
l 399 404
g Flange_0.001_Mesh
v -0.015000 -0.030000 0.040000
v -0.015000 0.030000 0.040000
v -0.015000 -0.030000 -0.040000
v -0.015000 0.030000 -0.040000
v 0.015000 -0.030000 0.040000
v 0.015000 0.030000 0.040000
v 0.015000 -0.030000 -0.040000
v 0.015000 0.030000 -0.040000
vn -1.0000 -0.0000 -0.0000
vn -0.0000 -0.0000 -1.0000
vn 1.0000 -0.0000 -0.0000
vn -0.0000 -0.0000 1.0000
vn -0.0000 -1.0000 -0.0000
vn -0.0000 1.0000 -0.0000
s 0
g Flange_0.001_wrought_iron
usemtl wrought_iron
f 408//46 409//46 407//46
f 410//47 413//47 409//47
f 414//48 411//48 413//48
f 412//49 407//49 411//49
f 413//50 407//50 409//50
f 410//51 412//51 414//51
f 408//46 410//46 409//46
f 410//47 414//47 413//47
f 414//48 412//48 411//48
f 412//49 408//49 407//49
f 413//50 411//50 407//50
f 410//51 408//51 412//51
g Flange_1.001_Mesh
v -0.015000 -0.030000 0.040000
v -0.015000 0.030000 0.040000
v -0.015000 -0.030000 -0.040000
v -0.015000 0.030000 -0.040000
v 0.015000 -0.030000 0.040000
v 0.015000 0.030000 0.040000
v 0.015000 -0.030000 -0.040000
v 0.015000 0.030000 -0.040000
vn -1.0000 -0.0000 -0.0000
vn -0.0000 -0.0000 -1.0000
vn 1.0000 -0.0000 -0.0000
vn -0.0000 -0.0000 1.0000
vn -0.0000 -1.0000 -0.0000
vn -0.0000 1.0000 -0.0000
s 0
g Flange_1.001_wrought_iron
usemtl wrought_iron
f 416//52 417//52 415//52
f 418//53 421//53 417//53
f 422//54 419//54 421//54
f 420//55 415//55 419//55
f 421//56 415//56 417//56
f 418//57 420//57 422//57
f 416//52 418//52 417//52
f 418//53 422//53 421//53
f 422//54 420//54 419//54
f 420//55 416//55 415//55
f 421//56 419//56 415//56
f 418//57 416//57 420//57
g Handle_0.001_Handle_0.001
v 0.065000 0.000000 -0.016000
v 0.051144 0.000000 -0.008000
v 0.051144 0.000000 0.008000
v 0.065000 0.000000 0.016000
v 0.078856 0.000000 0.008000
v 0.078856 0.000000 -0.008000
v 0.043182 0.000000 -0.051150
v 0.036674 0.000000 -0.036534
v 0.046078 0.000000 -0.023589
v 0.061991 0.000000 -0.025262
v 0.068498 0.000000 -0.039878
v 0.059094 0.000000 -0.052823
v 0.004869 0.000000 -0.066763
v 0.008196 0.000000 -0.051113
v 0.023413 0.000000 -0.046168
v 0.035303 0.000000 -0.056874
v 0.031976 0.000000 -0.072525
v 0.016760 0.000000 -0.077469
v -0.035303 0.000000 -0.056874
v -0.023413 0.000000 -0.046168
v -0.008196 0.000000 -0.051113
v -0.004869 0.000000 -0.066763
v -0.016760 0.000000 -0.077469
v -0.031976 0.000000 -0.072525
v -0.061991 0.000000 -0.025262
v -0.046078 0.000000 -0.023589
v -0.036674 0.000000 -0.036534
v -0.043182 0.000000 -0.051150
v -0.059094 0.000000 -0.052823
v -0.068498 0.000000 -0.039879
v -0.065000 0.000000 0.016000
v -0.051144 0.000000 0.008000
v -0.051144 0.000000 -0.008000
v -0.065000 0.000000 -0.016000
v -0.078856 0.000000 -0.008000
v -0.078856 0.000000 0.008000
v -0.043182 0.000000 0.051150
v -0.036674 0.000000 0.036534
v -0.046078 0.000000 0.023589
v -0.061991 0.000000 0.025262
v -0.068498 0.000000 0.039878
v -0.059094 0.000000 0.052823
v -0.004869 0.000000 0.066763
v -0.008196 0.000000 0.051113
v -0.023413 0.000000 0.046168
v -0.035303 0.000000 0.056874
v -0.031976 0.000000 0.072525
v -0.016760 0.000000 0.077469
v 0.035303 0.000000 0.056874
v 0.023413 0.000000 0.046168
v 0.008196 0.000000 0.051113
v 0.004869 0.000000 0.066763
v 0.016760 0.000000 0.077469
v 0.031976 0.000000 0.072525
v 0.061991 0.000000 0.025262
v 0.046078 0.000000 0.023589
v 0.036674 0.000000 0.036534
v 0.043182 0.000000 0.051150
v 0.059094 0.000000 0.052823
v 0.068498 0.000000 0.039879
v 0.065000 0.000000 -0.016000
v 0.051144 0.000000 -0.008000
v 0.051144 0.000000 0.008000
v 0.065000 0.000000 0.016000
v 0.078856 0.000000 0.008000
v 0.078856 0.000000 -0.008000
l 424 423
l 425 424
l 426 425
l 427 426
l 428 427
l 423 428
l 426 432
l 423 429
l 427 433
l 424 430
l 428 434
l 425 431
l 432 438
l 429 435
l 433 439
l 430 436
l 434 440
l 431 437
l 435 441
l 439 445
l 436 442
l 440 446
l 437 443
l 438 444
l 445 451
l 442 448
l 446 452
l 443 449
l 444 450
l 441 447
l 451 457
l 448 454
l 452 458
l 449 455
l 450 456
l 447 453
l 457 463
l 454 460
l 458 464
l 455 461
l 456 462
l 453 459
l 464 470
l 461 467
l 462 468
l 459 465
l 463 469
l 460 466
l 470 476
l 467 473
l 468 474
l 465 471
l 469 475
l 466 472
l 476 482
l 473 479
l 474 480
l 471 477
l 475 481
l 472 478
l 479 485
l 480 486
l 477 483
l 481 487
l 478 484
l 482 488
g Handle_1.001_Handle_1.001
v 0.065000 0.000000 -0.016000
v 0.051144 0.000000 -0.008000
v 0.051144 0.000000 0.008000
v 0.065000 0.000000 0.016000
v 0.078856 0.000000 0.008000
v 0.078856 0.000000 -0.008000
v 0.043182 0.000000 -0.051150
v 0.036674 0.000000 -0.036534
v 0.046078 0.000000 -0.023589
v 0.061991 0.000000 -0.025262
v 0.068498 0.000000 -0.039878
v 0.059094 0.000000 -0.052823
v 0.004869 0.000000 -0.066763
v 0.008196 0.000000 -0.051113
v 0.023413 0.000000 -0.046168
v 0.035303 0.000000 -0.056874
v 0.031976 0.000000 -0.072525
v 0.016760 0.000000 -0.077469
v -0.035303 0.000000 -0.056874
v -0.023413 0.000000 -0.046168
v -0.008196 0.000000 -0.051113
v -0.004869 0.000000 -0.066763
v -0.016760 0.000000 -0.077469
v -0.031976 0.000000 -0.072525
v -0.061991 0.000000 -0.025262
v -0.046078 0.000000 -0.023589
v -0.036674 0.000000 -0.036534
v -0.043182 0.000000 -0.051150
v -0.059094 0.000000 -0.052823
v -0.068498 0.000000 -0.039879
v -0.065000 0.000000 0.016000
v -0.051144 0.000000 0.008000
v -0.051144 0.000000 -0.008000
v -0.065000 0.000000 -0.016000
v -0.078856 0.000000 -0.008000
v -0.078856 0.000000 0.008000
v -0.043182 0.000000 0.051150
v -0.036674 0.000000 0.036534
v -0.046078 0.000000 0.023589
v -0.061991 0.000000 0.025262
v -0.068498 0.000000 0.039878
v -0.059094 0.000000 0.052823
v -0.004869 0.000000 0.066763
v -0.008196 0.000000 0.051113
v -0.023413 0.000000 0.046168
v -0.035303 0.000000 0.056874
v -0.031976 0.000000 0.072525
v -0.016760 0.000000 0.077469
v 0.035303 0.000000 0.056874
v 0.023413 0.000000 0.046168
v 0.008196 0.000000 0.051113
v 0.004869 0.000000 0.066763
v 0.016760 0.000000 0.077469
v 0.031976 0.000000 0.072525
v 0.061991 0.000000 0.025262
v 0.046078 0.000000 0.023589
v 0.036674 0.000000 0.036534
v 0.043182 0.000000 0.051150
v 0.059094 0.000000 0.052823
v 0.068498 0.000000 0.039879
v 0.065000 0.000000 -0.016000
v 0.051144 0.000000 -0.008000
v 0.051144 0.000000 0.008000
v 0.065000 0.000000 0.016000
v 0.078856 0.000000 0.008000
v 0.078856 0.000000 -0.008000
l 490 489
l 491 490
l 492 491
l 493 492
l 494 493
l 489 494
l 492 498
l 489 495
l 493 499
l 490 496
l 494 500
l 491 497
l 498 504
l 495 501
l 499 505
l 496 502
l 500 506
l 497 503
l 501 507
l 505 511
l 502 508
l 506 512
l 503 509
l 504 510
l 511 517
l 508 514
l 512 518
l 509 515
l 510 516
l 507 513
l 517 523
l 514 520
l 518 524
l 515 521
l 516 522
l 513 519
l 523 529
l 520 526
l 524 530
l 521 527
l 522 528
l 519 525
l 530 536
l 527 533
l 528 534
l 525 531
l 529 535
l 526 532
l 536 542
l 533 539
l 534 540
l 531 537
l 535 541
l 532 538
l 542 548
l 539 545
l 540 546
l 537 543
l 541 547
l 538 544
l 545 551
l 546 552
l 543 549
l 547 553
l 544 550
l 548 554
g HearthBase.001_Mesh
v 0.000000 -0.020000 -0.340000
v 0.000000 0.020000 -0.360000
v 0.170000 -0.020000 -0.294449
v 0.180000 0.020000 -0.311769
v 0.294449 -0.020000 -0.170000
v 0.311769 0.020000 -0.180000
v 0.340000 -0.020000 0.000000
v 0.360000 0.020000 0.000000
v 0.294449 -0.020000 0.170000
v 0.311769 0.020000 0.180000
v 0.170000 -0.020000 0.294449
v 0.180000 0.020000 0.311769
v 0.000000 -0.020000 0.340000
v 0.000000 0.020000 0.360000
v -0.170000 -0.020000 0.294449
v -0.180000 0.020000 0.311769
v -0.294449 -0.020000 0.170000
v -0.311769 0.020000 0.180000
v -0.340000 -0.020000 0.000000
v -0.360000 0.020000 0.000000
v -0.294449 -0.020000 -0.170000
v -0.311769 0.020000 -0.180000
v -0.170000 -0.020000 -0.294449
v -0.180000 0.020000 -0.311769
vn 0.2331 -0.4349 -0.8698
vn 0.6367 -0.4349 -0.6367
vn 0.8698 -0.4349 -0.2331
vn 0.8698 -0.4349 0.2331
vn 0.6367 -0.4349 0.6367
vn 0.2331 -0.4349 0.8698
vn -0.2331 -0.4349 0.8698
vn -0.6367 -0.4349 0.6367
vn -0.8698 -0.4349 0.2331
vn -0.8698 -0.4349 -0.2331
vn -0.0000 1.0000 -0.0000
vn -0.6367 -0.4349 -0.6367
vn -0.2331 -0.4349 -0.8698
vn -0.0000 -1.0000 -0.0000
s 0
g HearthBase.001_old_limestone
usemtl old_limestone
f 556//58 557//58 555//58
f 558//59 559//59 557//59
f 560//60 561//60 559//60
f 562//61 563//61 561//61
f 564//62 565//62 563//62
f 566//63 567//63 565//63
f 568//64 569//64 567//64
f 570//65 571//65 569//65
f 572//66 573//66 571//66
f 574//67 575//67 573//67
f 576//68 568//68 560//68
f 576//69 577//69 575//69
f 578//70 555//70 577//70
f 561//71 569//71 577//71
f 556//58 558//58 557//58
f 558//59 560//59 559//59
f 560//60 562//60 561//60
f 562//61 564//61 563//61
f 564//62 566//62 565//62
f 566//63 568//63 567//63
f 568//64 570//64 569//64
f 570//65 572//65 571//65
f 572//66 574//66 573//66
f 574//67 576//67 575//67
f 560//68 558//68 556//68
f 556//68 578//68 576//68
f 576//68 574//68 572//68
f 572//68 570//68 568//68
f 568//68 566//68 564//68
f 564//68 562//68 560//68
f 560//68 556//68 576//68
f 576//68 572//68 568//68
f 568//68 564//68 560//68
f 576//69 578//69 577//69
f 578//70 556//70 555//70
f 577//71 555//71 557//71
f 557//71 559//71 561//71
f 561//71 563//71 565//71
f 565//71 567//71 569//71
f 569//71 571//71 573//71
f 573//71 575//71 577//71
f 577//71 557//71 561//71
f 561//71 565//71 569//71
f 569//71 573//71 577//71
g HerbLeaf.001_Mesh
v 0.000000 -0.004000 -0.045000
v 0.000000 0.004000 -0.005000
v 0.042798 -0.004000 -0.013906
v 0.004755 0.004000 -0.001545
v 0.026450 -0.004000 0.036406
v 0.002939 0.004000 0.004045
v -0.026450 -0.004000 0.036406
v -0.002939 0.004000 0.004045
v -0.042798 -0.004000 -0.013906
v -0.004755 0.004000 -0.001545
vn 0.1411 0.9708 -0.1942
vn 0.2282 0.9708 0.0742
vn -0.0000 0.9708 0.2400
vn -0.0000 1.0000 -0.0000
vn -0.2282 0.9708 0.0742
vn -0.1411 0.9708 -0.1942
vn -0.0000 -1.0000 -0.0000
s 0
g HerbLeaf.001_wet_residue
usemtl wet_residue
f 579//72 582//72 581//72
f 582//73 583//73 581//73
f 584//74 585//74 583//74
f 580//75 586//75 584//75
f 586//76 587//76 585//76
f 588//77 579//77 587//77
f 581//78 585//78 587//78
f 579//72 580//72 582//72
f 582//73 584//73 583//73
f 584//74 586//74 585//74
f 584//75 582//75 580//75
f 580//75 588//75 586//75
f 586//76 588//76 587//76
f 588//77 580//77 579//77
f 587//78 579//78 581//78
f 581//78 583//78 585//78
g LadleFill.001_Mesh
v 0.000000 -0.038000 0.000000
v 0.027497 -0.016994 0.019977
v -0.010503 -0.016994 0.032324
v -0.033988 -0.016994 0.000000
v -0.010503 -0.016994 -0.032324
v 0.027497 -0.016994 -0.019977
v 0.010503 0.016994 0.032324
v -0.027497 0.016994 0.019977
v -0.027497 0.016994 -0.019977
v 0.010503 0.016994 -0.032324
v 0.033988 0.016994 0.000000
v 0.000000 0.038000 0.000000
vn 0.1876 -0.7947 0.5774
vn 0.6071 -0.7947 -0.0000
vn -0.4911 -0.7947 0.3568
vn -0.4911 -0.7947 -0.3568
vn 0.1876 -0.7947 -0.5774
vn 0.9822 -0.1876 -0.0000
vn 0.3035 -0.1876 0.9342
vn -0.7946 -0.1876 0.5774
vn -0.7946 -0.1876 -0.5774
vn 0.3035 -0.1876 -0.9342
vn 0.7946 0.1876 0.5774
vn -0.3035 0.1876 0.9342
vn -0.9822 0.1876 -0.0000
vn -0.3035 0.1876 -0.9342
vn 0.7946 0.1876 -0.5774
vn 0.4911 0.7947 0.3568
vn -0.1876 0.7947 0.5774
vn -0.6071 0.7947 -0.0000
vn -0.1876 0.7947 -0.5774
vn 0.4911 0.7947 -0.3568
s 0
g LadleFill.001_wet_residue
usemtl wet_residue
f 589//79 590//79 591//79
f 590//80 589//80 594//80
f 589//81 591//81 592//81
f 589//82 592//82 593//82
f 589//83 593//83 594//83
f 590//84 594//84 599//84
f 591//85 590//85 595//85
f 592//86 591//86 596//86
f 593//87 592//87 597//87
f 594//88 593//88 598//88
f 590//89 599//89 595//89
f 591//90 595//90 596//90
f 592//91 596//91 597//91
f 593//92 597//92 598//92
f 594//93 598//93 599//93
f 595//94 599//94 600//94
f 596//95 595//95 600//95
f 597//96 596//96 600//96
f 598//97 597//97 600//97
f 599//98 598//98 600//98
g Meat_0.001_Mesh
v -0.500000 -0.500000 0.500000
v -0.500000 0.500000 0.500000
v -0.500000 -0.500000 -0.500000
v -0.500000 0.500000 -0.500000
v 0.500000 -0.500000 0.500000
v 0.500000 0.500000 0.500000
v 0.500000 -0.500000 -0.500000
v 0.500000 0.500000 -0.500000
vn -1.0000 -0.0000 -0.0000
vn -0.0000 -0.0000 -1.0000
vn 1.0000 -0.0000 -0.0000
vn -0.0000 -0.0000 1.0000
vn -0.0000 -1.0000 -0.0000
vn -0.0000 1.0000 -0.0000
s 0
g Meat_0.001_bone
usemtl bone
f 602//99 603//99 601//99
f 604//100 607//100 603//100
f 608//101 605//101 607//101
f 606//102 601//102 605//102
f 607//103 601//103 603//103
f 604//104 606//104 608//104
f 602//99 604//99 603//99
f 604//100 608//100 607//100
f 608//101 606//101 605//101
f 606//102 602//102 601//102
f 607//103 605//103 601//103
f 604//104 602//104 606//104
g Meat_1.001_Mesh
v -0.500000 -0.500000 0.500000
v -0.500000 0.500000 0.500000
v -0.500000 -0.500000 -0.500000
v -0.500000 0.500000 -0.500000
v 0.500000 -0.500000 0.500000
v 0.500000 0.500000 0.500000
v 0.500000 -0.500000 -0.500000
v 0.500000 0.500000 -0.500000
vn -1.0000 -0.0000 -0.0000
vn -0.0000 -0.0000 -1.0000
vn 1.0000 -0.0000 -0.0000
vn -0.0000 -0.0000 1.0000
vn -0.0000 -1.0000 -0.0000
vn -0.0000 1.0000 -0.0000
s 0
g Meat_1.001_bone
usemtl bone
f 610//105 611//105 609//105
f 612//106 615//106 611//106
f 616//107 613//107 615//107
f 614//108 609//108 613//108
f 615//109 609//109 611//109
f 612//110 614//110 616//110
f 610//105 612//105 611//105
f 612//106 616//106 615//106
f 616//107 614//107 613//107
f 614//108 610//108 609//108
f 615//109 613//109 609//109
f 612//110 610//110 614//110
g ReinforcementBelt.001_Mesh
v 0.000000 -0.020000 -0.295000
v 0.000000 0.020000 -0.295000
v 0.112892 -0.020000 -0.272544
v 0.112892 0.020000 -0.272544
v 0.208596 -0.020000 -0.208596
v 0.208596 0.020000 -0.208596
v 0.272544 -0.020000 -0.112892
v 0.272544 0.020000 -0.112892
v 0.295000 -0.020000 0.000000
v 0.295000 0.020000 0.000000
v 0.272544 -0.020000 0.112892
v 0.272544 0.020000 0.112892
v 0.208596 -0.020000 0.208596
v 0.208596 0.020000 0.208596
v 0.112892 -0.020000 0.272544
v 0.112892 0.020000 0.272544
v 0.000000 -0.020000 0.295000
v 0.000000 0.020000 0.295000
v -0.112892 -0.020000 0.272544
v -0.112892 0.020000 0.272544
v -0.208596 -0.020000 0.208596
v -0.208596 0.020000 0.208596
v -0.272544 -0.020000 0.112892
v -0.272544 0.020000 0.112892
v -0.295000 -0.020000 0.000000
v -0.295000 0.020000 0.000000
v -0.272544 -0.020000 -0.112892
v -0.272544 0.020000 -0.112892
v -0.208596 -0.020000 -0.208596
v -0.208596 0.020000 -0.208596
v -0.112892 -0.020000 -0.272544
v -0.112892 0.020000 -0.272544
vn 0.1951 -0.0000 -0.9808
vn 0.5556 -0.0000 -0.8315
vn 0.8315 -0.0000 -0.5556
vn 0.9808 -0.0000 -0.1951
vn 0.9808 -0.0000 0.1951
vn 0.8315 -0.0000 0.5556
vn 0.5556 -0.0000 0.8315
vn 0.1951 -0.0000 0.9808
vn -0.1951 -0.0000 0.9808
vn -0.5556 -0.0000 0.8315
vn -0.8315 -0.0000 0.5556
vn -0.9808 -0.0000 0.1951
vn -0.9808 -0.0000 -0.1951
vn -0.8315 -0.0000 -0.5556
vn -0.5556 -0.0000 -0.8315
vn -0.1951 -0.0000 -0.9808
s 0
g ReinforcementBelt.001_wrought_iron
usemtl wrought_iron
f 618//111 619//111 617//111
f 620//112 621//112 619//112
f 622//113 623//113 621//113
f 624//114 625//114 623//114
f 626//115 627//115 625//115
f 628//116 629//116 627//116
f 630//117 631//117 629//117
f 632//118 633//118 631//118
f 634//119 635//119 633//119
f 636//120 637//120 635//120
f 638//121 639//121 637//121
f 640//122 641//122 639//122
f 642//123 643//123 641//123
f 644//124 645//124 643//124
f 646//125 647//125 645//125
f 648//126 617//126 647//126
f 618//111 620//111 619//111
f 620//112 622//112 621//112
f 622//113 624//113 623//113
f 624//114 626//114 625//114
f 626//115 628//115 627//115
f 628//116 630//116 629//116
f 630//117 632//117 631//117
f 632//118 634//118 633//118
f 634//119 636//119 635//119
f 636//120 638//120 637//120
f 638//121 640//121 639//121
f 640//122 642//122 641//122
f 642//123 644//123 643//123
f 644//124 646//124 645//124
f 646//125 648//125 647//125
f 648//126 618//126 617//126
g Rivet_0.001_Mesh
v 0.000000 -0.015000 0.000000
v 0.010854 -0.006708 0.007886
v -0.004146 -0.006708 0.012760
v -0.013416 -0.006708 0.000000
v -0.004146 -0.006708 -0.012760
v 0.010854 -0.006708 -0.007886
v 0.004146 0.006708 0.012760
v -0.010854 0.006708 0.007886
v -0.010854 0.006708 -0.007886
v 0.004146 0.006708 -0.012760
v 0.013416 0.006708 0.000000
v 0.000000 0.015000 0.000000
vn 0.1876 -0.7947 0.5774
vn 0.6071 -0.7947 -0.0000
vn -0.4911 -0.7947 0.3568
vn -0.4911 -0.7947 -0.3568
vn 0.1876 -0.7947 -0.5774
vn 0.9822 -0.1876 -0.0000
vn 0.3035 -0.1876 0.9342
vn -0.7946 -0.1876 0.5774
vn -0.7946 -0.1876 -0.5774
vn 0.3035 -0.1876 -0.9342
vn 0.7946 0.1876 0.5774
vn -0.3035 0.1876 0.9342
vn -0.9822 0.1876 -0.0000
vn -0.3035 0.1876 -0.9342
vn 0.7946 0.1876 -0.5774
vn 0.4911 0.7947 0.3568
vn -0.1876 0.7947 0.5774
vn -0.6071 0.7947 -0.0000
vn -0.1876 0.7947 -0.5774
vn 0.4911 0.7947 -0.3568
s 0
g Rivet_0.001_wrought_iron
usemtl wrought_iron
f 649//127 650//127 651//127
f 650//128 649//128 654//128
f 649//129 651//129 652//129
f 649//130 652//130 653//130
f 649//131 653//131 654//131
f 650//132 654//132 659//132
f 651//133 650//133 655//133
f 652//134 651//134 656//134
f 653//135 652//135 657//135
f 654//136 653//136 658//136
f 650//137 659//137 655//137
f 651//138 655//138 656//138
f 652//139 656//139 657//139
f 653//140 657//140 658//140
f 654//141 658//141 659//141
f 655//142 659//142 660//142
f 656//143 655//143 660//143
f 657//144 656//144 660//144
f 658//145 657//145 660//145
f 659//146 658//146 660//146
g Rivet_1.001_Mesh
v 0.000000 -0.015000 0.000000
v 0.010854 -0.006708 0.007886
v -0.004146 -0.006708 0.012760
v -0.013416 -0.006708 0.000000
v -0.004146 -0.006708 -0.012760
v 0.010854 -0.006708 -0.007886
v 0.004146 0.006708 0.012760
v -0.010854 0.006708 0.007886
v -0.010854 0.006708 -0.007886
v 0.004146 0.006708 -0.012760
v 0.013416 0.006708 0.000000
v 0.000000 0.015000 0.000000
vn 0.1876 -0.7947 0.5774
vn 0.6071 -0.7947 -0.0000
vn -0.4911 -0.7947 0.3568
vn -0.4911 -0.7947 -0.3568
vn 0.1876 -0.7947 -0.5774
vn 0.9822 -0.1876 -0.0000
vn 0.3035 -0.1876 0.9342
vn -0.7946 -0.1876 0.5774
vn -0.7946 -0.1876 -0.5774
vn 0.3035 -0.1876 -0.9342
vn 0.7946 0.1876 0.5774
vn -0.3035 0.1876 0.9342
vn -0.9822 0.1876 -0.0000
vn -0.3035 0.1876 -0.9342
vn 0.7946 0.1876 -0.5774
vn 0.4911 0.7947 0.3568
vn -0.1876 0.7947 0.5774
vn -0.6071 0.7947 -0.0000
vn -0.1876 0.7947 -0.5774
vn 0.4911 0.7947 -0.3568
s 0
g Rivet_1.001_wrought_iron
usemtl wrought_iron
f 661//147 662//147 663//147
f 662//148 661//148 666//148
f 661//149 663//149 664//149
f 661//150 664//150 665//150
f 661//151 665//151 666//151
f 662//152 666//152 671//152
f 663//153 662//153 667//153
f 664//154 663//154 668//154
f 665//155 664//155 669//155
f 666//156 665//156 670//156
f 662//157 671//157 667//157
f 663//158 667//158 668//158
f 664//159 668//159 669//159
f 665//160 669//160 670//160
f 666//161 670//161 671//161
f 667//162 671//162 672//162
f 668//163 667//163 672//163
f 669//164 668//164 672//164
f 670//165 669//165 672//165
f 671//166 670//166 672//166
g Rivet_2.001_Mesh
v 0.000000 -0.015000 0.000000
v 0.010854 -0.006708 0.007886
v -0.004146 -0.006708 0.012760
v -0.013416 -0.006708 0.000000
v -0.004146 -0.006708 -0.012760
v 0.010854 -0.006708 -0.007886
v 0.004146 0.006708 0.012760
v -0.010854 0.006708 0.007886
v -0.010854 0.006708 -0.007886
v 0.004146 0.006708 -0.012760
v 0.013416 0.006708 0.000000
v 0.000000 0.015000 0.000000
vn 0.1876 -0.7947 0.5774
vn 0.6071 -0.7947 -0.0000
vn -0.4911 -0.7947 0.3568
vn -0.4911 -0.7947 -0.3568
vn 0.1876 -0.7947 -0.5774
vn 0.9822 -0.1876 -0.0000
vn 0.3035 -0.1876 0.9342
vn -0.7946 -0.1876 0.5774
vn -0.7946 -0.1876 -0.5774
vn 0.3035 -0.1876 -0.9342
vn 0.7946 0.1876 0.5774
vn -0.3035 0.1876 0.9342
vn -0.9822 0.1876 -0.0000
vn -0.3035 0.1876 -0.9342
vn 0.7946 0.1876 -0.5774
vn 0.4911 0.7947 0.3568
vn -0.1876 0.7947 0.5774
vn -0.6071 0.7947 -0.0000
vn -0.1876 0.7947 -0.5774
vn 0.4911 0.7947 -0.3568
s 0
g Rivet_2.001_wrought_iron
usemtl wrought_iron
f 673//167 674//167 675//167
f 674//168 673//168 678//168
f 673//169 675//169 676//169
f 673//170 676//170 677//170
f 673//171 677//171 678//171
f 674//172 678//172 683//172
f 675//173 674//173 679//173
f 676//174 675//174 680//174
f 677//175 676//175 681//175
f 678//176 677//176 682//176
f 674//177 683//177 679//177
f 675//178 679//178 680//178
f 676//179 680//179 681//179
f 677//180 681//180 682//180
f 678//181 682//181 683//181
f 679//182 683//182 684//182
f 680//183 679//183 684//183
f 681//184 680//184 684//184
f 682//185 681//185 684//185
f 683//186 682//186 684//186
g Rivet_3.001_Mesh
v 0.000000 -0.015000 0.000000
v 0.010854 -0.006708 0.007886
v -0.004146 -0.006708 0.012760
v -0.013416 -0.006708 0.000000
v -0.004146 -0.006708 -0.012760
v 0.010854 -0.006708 -0.007886
v 0.004146 0.006708 0.012760
v -0.010854 0.006708 0.007886
v -0.010854 0.006708 -0.007886
v 0.004146 0.006708 -0.012760
v 0.013416 0.006708 0.000000
v 0.000000 0.015000 0.000000
vn 0.1876 -0.7947 0.5774
vn 0.6071 -0.7947 -0.0000
vn -0.4911 -0.7947 0.3568
vn -0.4911 -0.7947 -0.3568
vn 0.1876 -0.7947 -0.5774
vn 0.9822 -0.1876 -0.0000
vn 0.3035 -0.1876 0.9342
vn -0.7946 -0.1876 0.5774
vn -0.7946 -0.1876 -0.5774
vn 0.3035 -0.1876 -0.9342
vn 0.7946 0.1876 0.5774
vn -0.3035 0.1876 0.9342
vn -0.9822 0.1876 -0.0000
vn -0.3035 0.1876 -0.9342
vn 0.7946 0.1876 -0.5774
vn 0.4911 0.7947 0.3568
vn -0.1876 0.7947 0.5774
vn -0.6071 0.7947 -0.0000
vn -0.1876 0.7947 -0.5774
vn 0.4911 0.7947 -0.3568
s 0
g Rivet_3.001_wrought_iron
usemtl wrought_iron
f 685//187 686//187 687//187
f 686//188 685//188 690//188
f 685//189 687//189 688//189
f 685//190 688//190 689//190
f 685//191 689//191 690//191
f 686//192 690//192 695//192
f 687//193 686//193 691//193
f 688//194 687//194 692//194
f 689//195 688//195 693//195
f 690//196 689//196 694//196
f 686//197 695//197 691//197
f 687//198 691//198 692//198
f 688//199 692//199 693//199
f 689//200 693//200 694//200
f 690//201 694//201 695//201
f 691//202 695//202 696//202
f 692//203 691//203 696//203
f 693//204 692//204 696//204
f 694//205 693//205 696//205
f 695//206 694//206 696//206
g Rivet_4.001_Mesh
v 0.000000 -0.015000 0.000000
v 0.010854 -0.006708 0.007886
v -0.004146 -0.006708 0.012760
v -0.013416 -0.006708 0.000000
v -0.004146 -0.006708 -0.012760
v 0.010854 -0.006708 -0.007886
v 0.004146 0.006708 0.012760
v -0.010854 0.006708 0.007886
v -0.010854 0.006708 -0.007886
v 0.004146 0.006708 -0.012760
v 0.013416 0.006708 0.000000
v 0.000000 0.015000 0.000000
vn 0.1876 -0.7947 0.5774
vn 0.6071 -0.7947 -0.0000
vn -0.4911 -0.7947 0.3568
vn -0.4911 -0.7947 -0.3568
vn 0.1876 -0.7947 -0.5774
vn 0.9822 -0.1876 -0.0000
vn 0.3035 -0.1876 0.9342
vn -0.7946 -0.1876 0.5774
vn -0.7946 -0.1876 -0.5774
vn 0.3035 -0.1876 -0.9342
vn 0.7946 0.1876 0.5774
vn -0.3035 0.1876 0.9342
vn -0.9822 0.1876 -0.0000
vn -0.3035 0.1876 -0.9342
vn 0.7946 0.1876 -0.5774
vn 0.4911 0.7947 0.3568
vn -0.1876 0.7947 0.5774
vn -0.6071 0.7947 -0.0000
vn -0.1876 0.7947 -0.5774
vn 0.4911 0.7947 -0.3568
s 0
g Rivet_4.001_wrought_iron
usemtl wrought_iron
f 697//207 698//207 699//207
f 698//208 697//208 702//208
f 697//209 699//209 700//209
f 697//210 700//210 701//210
f 697//211 701//211 702//211
f 698//212 702//212 707//212
f 699//213 698//213 703//213
f 700//214 699//214 704//214
f 701//215 700//215 705//215
f 702//216 701//216 706//216
f 698//217 707//217 703//217
f 699//218 703//218 704//218
f 700//219 704//219 705//219
f 701//220 705//220 706//220
f 702//221 706//221 707//221
f 703//222 707//222 708//222
f 704//223 703//223 708//223
f 705//224 704//224 708//224
f 706//225 705//225 708//225
f 707//226 706//226 708//226
g Rivet_5.001_Mesh
v 0.000000 -0.015000 0.000000
v 0.010854 -0.006708 0.007886
v -0.004146 -0.006708 0.012760
v -0.013416 -0.006708 0.000000
v -0.004146 -0.006708 -0.012760
v 0.010854 -0.006708 -0.007886
v 0.004146 0.006708 0.012760
v -0.010854 0.006708 0.007886
v -0.010854 0.006708 -0.007886
v 0.004146 0.006708 -0.012760
v 0.013416 0.006708 0.000000
v 0.000000 0.015000 0.000000
vn 0.1876 -0.7947 0.5774
vn 0.6071 -0.7947 -0.0000
vn -0.4911 -0.7947 0.3568
vn -0.4911 -0.7947 -0.3568
vn 0.1876 -0.7947 -0.5774
vn 0.9822 -0.1876 -0.0000
vn 0.3035 -0.1876 0.9342
vn -0.7946 -0.1876 0.5774
vn -0.7946 -0.1876 -0.5774
vn 0.3035 -0.1876 -0.9342
vn 0.7946 0.1876 0.5774
vn -0.3035 0.1876 0.9342
vn -0.9822 0.1876 -0.0000
vn -0.3035 0.1876 -0.9342
vn 0.7946 0.1876 -0.5774
vn 0.4911 0.7947 0.3568
vn -0.1876 0.7947 0.5774
vn -0.6071 0.7947 -0.0000
vn -0.1876 0.7947 -0.5774
vn 0.4911 0.7947 -0.3568
s 0
g Rivet_5.001_wrought_iron
usemtl wrought_iron
f 709//227 710//227 711//227
f 710//228 709//228 714//228
f 709//229 711//229 712//229
f 709//230 712//230 713//230
f 709//231 713//231 714//231
f 710//232 714//232 719//232
f 711//233 710//233 715//233
f 712//234 711//234 716//234
f 713//235 712//235 717//235
f 714//236 713//236 718//236
f 710//237 719//237 715//237
f 711//238 715//238 716//238
f 712//239 716//239 717//239
f 713//240 717//240 718//240
f 714//241 718//241 719//241
f 715//242 719//242 720//242
f 716//243 715//243 720//243
f 717//244 716//244 720//244
f 718//245 717//245 720//245
f 719//246 718//246 720//246
g Rivet_6.001_Mesh
v 0.000000 -0.015000 0.000000
v 0.010854 -0.006708 0.007886
v -0.004146 -0.006708 0.012760
v -0.013416 -0.006708 0.000000
v -0.004146 -0.006708 -0.012760
v 0.010854 -0.006708 -0.007886
v 0.004146 0.006708 0.012760
v -0.010854 0.006708 0.007886
v -0.010854 0.006708 -0.007886
v 0.004146 0.006708 -0.012760
v 0.013416 0.006708 0.000000
v 0.000000 0.015000 0.000000
vn 0.1876 -0.7947 0.5774
vn 0.6071 -0.7947 -0.0000
vn -0.4911 -0.7947 0.3568
vn -0.4911 -0.7947 -0.3568
vn 0.1876 -0.7947 -0.5774
vn 0.9822 -0.1876 -0.0000
vn 0.3035 -0.1876 0.9342
vn -0.7946 -0.1876 0.5774
vn -0.7946 -0.1876 -0.5774
vn 0.3035 -0.1876 -0.9342
vn 0.7946 0.1876 0.5774
vn -0.3035 0.1876 0.9342
vn -0.9822 0.1876 -0.0000
vn -0.3035 0.1876 -0.9342
vn 0.7946 0.1876 -0.5774
vn 0.4911 0.7947 0.3568
vn -0.1876 0.7947 0.5774
vn -0.6071 0.7947 -0.0000
vn -0.1876 0.7947 -0.5774
vn 0.4911 0.7947 -0.3568
s 0
g Rivet_6.001_wrought_iron
usemtl wrought_iron
f 721//247 722//247 723//247
f 722//248 721//248 726//248
f 721//249 723//249 724//249
f 721//250 724//250 725//250
f 721//251 725//251 726//251
f 722//252 726//252 731//252
f 723//253 722//253 727//253
f 724//254 723//254 728//254
f 725//255 724//255 729//255
f 726//256 725//256 730//256
f 722//257 731//257 727//257
f 723//258 727//258 728//258
f 724//259 728//259 729//259
f 725//260 729//260 730//260
f 726//261 730//261 731//261
f 727//262 731//262 732//262
f 728//263 727//263 732//263
f 729//264 728//264 732//264
f 730//265 729//265 732//265
f 731//266 730//266 732//266
g Rivet_7.001_Mesh
v 0.000000 -0.015000 0.000000
v 0.010854 -0.006708 0.007886
v -0.004146 -0.006708 0.012760
v -0.013416 -0.006708 0.000000
v -0.004146 -0.006708 -0.012760
v 0.010854 -0.006708 -0.007886
v 0.004146 0.006708 0.012760
v -0.010854 0.006708 0.007886
v -0.010854 0.006708 -0.007886
v 0.004146 0.006708 -0.012760
v 0.013416 0.006708 0.000000
v 0.000000 0.015000 0.000000
vn 0.1876 -0.7947 0.5774
vn 0.6071 -0.7947 -0.0000
vn -0.4911 -0.7947 0.3568
vn -0.4911 -0.7947 -0.3568
vn 0.1876 -0.7947 -0.5774
vn 0.9822 -0.1876 -0.0000
vn 0.3035 -0.1876 0.9342
vn -0.7946 -0.1876 0.5774
vn -0.7946 -0.1876 -0.5774
vn 0.3035 -0.1876 -0.9342
vn 0.7946 0.1876 0.5774
vn -0.3035 0.1876 0.9342
vn -0.9822 0.1876 -0.0000
vn -0.3035 0.1876 -0.9342
vn 0.7946 0.1876 -0.5774
vn 0.4911 0.7947 0.3568
vn -0.1876 0.7947 0.5774
vn -0.6071 0.7947 -0.0000
vn -0.1876 0.7947 -0.5774
vn 0.4911 0.7947 -0.3568
s 0
g Rivet_7.001_wrought_iron
usemtl wrought_iron
f 733//267 734//267 735//267
f 734//268 733//268 738//268
f 733//269 735//269 736//269
f 733//270 736//270 737//270
f 733//271 737//271 738//271
f 734//272 738//272 743//272
f 735//273 734//273 739//273
f 736//274 735//274 740//274
f 737//275 736//275 741//275
f 738//276 737//276 742//276
f 734//277 743//277 739//277
f 735//278 739//278 740//278
f 736//279 740//279 741//279
f 737//280 741//280 742//280
f 738//281 742//281 743//281
f 739//282 743//282 744//282
f 740//283 739//283 744//283
f 741//284 740//284 744//284
f 742//285 741//285 744//285
f 743//286 742//286 744//286
g Steam_0.001_Mesh
v 0.000000 -0.060000 -0.025000
v 0.000000 0.060000 -0.005000
v 0.021651 -0.060000 -0.012500
v 0.004330 0.060000 -0.002500
v 0.021651 -0.060000 0.012500
v 0.004330 0.060000 0.002500
v 0.000000 -0.060000 0.025000
v 0.000000 0.060000 0.005000
v -0.021651 -0.060000 0.012500
v -0.004330 0.060000 0.002500
v -0.021651 -0.060000 -0.012500
v -0.004330 0.060000 -0.002500
vn 0.4949 0.1429 -0.8571
vn 0.9897 0.1429 -0.0000
vn 0.4949 0.1429 0.8571
vn -0.4949 0.1429 0.8571
vn -0.9897 0.1429 -0.0000
vn -0.4949 0.1429 -0.8571
s 0
g Steam_0.001_wax
usemtl wax
f 745//287 748//287 747//287
f 748//288 749//288 747//288
f 750//289 751//289 749//289
f 751//290 754//290 753//290
f 754//291 755//291 753//291
f 756//292 745//292 755//292
f 745//287 746//287 748//287
f 748//288 750//288 749//288
f 750//289 752//289 751//289
f 751//290 752//290 754//290
f 754//291 756//291 755//291
f 756//292 746//292 745//292
g Steam_1.001_Mesh
v 0.000000 -0.070000 -0.020000
v 0.000000 0.070000 -0.005000
v 0.017321 -0.070000 -0.010000
v 0.004330 0.070000 -0.002500
v 0.017321 -0.070000 0.010000
v 0.004330 0.070000 0.002500
v 0.000000 -0.070000 0.020000
v 0.000000 0.070000 0.005000
v -0.017321 -0.070000 0.010000
v -0.004330 0.070000 0.002500
v -0.017321 -0.070000 -0.010000
v -0.004330 0.070000 -0.002500
vn 0.4979 0.0924 -0.8623
vn 0.9957 0.0924 -0.0000
vn 0.4979 0.0924 0.8623
vn -0.4979 0.0924 0.8623
vn -0.9957 0.0924 -0.0000
vn -0.4979 0.0924 -0.8623
s 0
g Steam_1.001_wax
usemtl wax
f 758//293 759//293 757//293
f 760//294 761//294 759//294
f 762//295 763//295 761//295
f 764//296 765//296 763//296
f 766//297 767//297 765//297
f 768//298 757//298 767//298
f 758//293 760//293 759//293
f 760//294 762//294 761//294
f 762//295 764//295 763//295
f 764//296 766//296 765//296
f 766//297 768//297 767//297
f 768//298 758//298 757//298
g StewSurface.001_Mesh
v 0.000000 -0.010000 -0.240000
v 0.000000 0.010000 -0.240000
v 0.091844 -0.010000 -0.221731
v 0.091844 0.010000 -0.221731
v 0.169706 -0.010000 -0.169706
v 0.169706 0.010000 -0.169706
v 0.221731 -0.010000 -0.091844
v 0.221731 0.010000 -0.091844
v 0.240000 -0.010000 0.000000
v 0.240000 0.010000 0.000000
v 0.221731 -0.010000 0.091844
v 0.221731 0.010000 0.091844
v 0.169706 -0.010000 0.169706
v 0.169706 0.010000 0.169706
v 0.091844 -0.010000 0.221731
v 0.091844 0.010000 0.221731
v 0.000000 -0.010000 0.240000
v 0.000000 0.010000 0.240000
v -0.091844 -0.010000 0.221731
v -0.091844 0.010000 0.221731
v -0.169706 -0.010000 0.169706
v -0.169706 0.010000 0.169706
v -0.221731 -0.010000 0.091844
v -0.221731 0.010000 0.091844
v -0.240000 -0.010000 0.000000
v -0.240000 0.010000 0.000000
v -0.221731 -0.010000 -0.091844
v -0.221731 0.010000 -0.091844
v -0.169706 -0.010000 -0.169706
v -0.169706 0.010000 -0.169706
v -0.091844 -0.010000 -0.221731
v -0.091844 0.010000 -0.221731
vn 0.1951 -0.0000 -0.9808
vn 0.5556 -0.0000 -0.8315
vn 0.8315 -0.0000 -0.5556
vn 0.9808 -0.0000 -0.1951
vn 0.9808 -0.0000 0.1951
vn 0.8315 -0.0000 0.5556
vn 0.5556 -0.0000 0.8315
vn 0.1951 -0.0000 0.9808
vn -0.1951 -0.0000 0.9808
vn -0.5556 -0.0000 0.8315
vn -0.8315 -0.0000 0.5556
vn -0.9808 -0.0000 0.1951
vn -0.9808 -0.0000 -0.1951
vn -0.8315 -0.0000 -0.5556
vn -0.0000 1.0000 -0.0000
vn -0.5556 -0.0000 -0.8315
vn -0.1951 -0.0000 -0.9808
vn -0.0000 -1.0000 -0.0000
s 0
g StewSurface.001_wet_residue
usemtl wet_residue
f 770//299 771//299 769//299
f 772//300 773//300 771//300
f 774//301 775//301 773//301
f 776//302 777//302 775//302
f 778//303 779//303 777//303
f 780//304 781//304 779//304
f 782//305 783//305 781//305
f 784//306 785//306 783//306
f 786//307 787//307 785//307
f 788//308 789//308 787//308
f 790//309 791//309 789//309
f 792//310 793//310 791//310
f 794//311 795//311 793//311
f 796//312 797//312 795//312
f 790//313 782//313 774//313
f 798//314 799//314 797//314
f 800//315 769//315 799//315
f 783//316 791//316 799//316
f 770//299 772//299 771//299
f 772//300 774//300 773//300
f 774//301 776//301 775//301
f 776//302 778//302 777//302
f 778//303 780//303 779//303
f 780//304 782//304 781//304
f 782//305 784//305 783//305
f 784//306 786//306 785//306
f 786//307 788//307 787//307
f 788//308 790//308 789//308
f 790//309 792//309 791//309
f 792//310 794//310 793//310
f 794//311 796//311 795//311
f 796//312 798//312 797//312
f 774//313 772//313 770//313
f 770//313 800//313 798//313
f 798//313 796//313 794//313
f 794//313 792//313 790//313
f 790//313 788//313 786//313
f 786//313 784//313 782//313
f 782//313 780//313 778//313
f 778//313 776//313 774//313
f 774//313 770//313 798//313
f 798//313 794//313 790//313
f 790//313 786//313 782//313
f 782//313 778//313 774//313
f 774//313 798//313 790//313
f 798//314 800//314 799//314
f 800//315 770//315 769//315
f 799//316 769//316 771//316
f 771//316 773//316 775//316
f 775//316 777//316 779//316
f 779//316 781//316 783//316
f 783//316 785//316 787//316
f 787//316 789//316 791//316
f 791//316 793//316 795//316
f 795//316 797//316 799//316
f 799//316 771//316 775//316
f 775//316 779//316 783//316
f 783//316 787//316 791//316
f 791//316 795//316 799//316
f 799//316 775//316 783//316
