# Batch C: authored as spatial sweep gestures
# generated by tools/asset-production/lathe.py
mtllib swept_cohort.mtl
o water_scepter
v -0.017087 -1.052097 0.067360
v 0.022888 -1.044042 0.016636
v 0.007977 -1.040473 -0.046614
v -0.050592 -1.044078 -0.074763
v -0.108716 -1.052142 -0.046614
v -0.122625 -1.058593 0.016636
v -0.081846 -1.058573 0.067360
v -0.065316 -0.547365 0.109815
v -0.023788 -0.551570 0.056531
v -0.039649 -0.554592 -0.009201
v -0.100956 -0.554156 -0.037883
v -0.161543 -0.550591 -0.007918
v -0.175787 -0.546581 0.058130
v -0.132962 -0.545145 0.110526
v 0.009321 -0.128433 0.013001
v 0.046668 -0.134665 -0.034498
v 0.033813 -0.129854 -0.093670
v -0.019565 -0.117623 -0.119958
v -0.073270 -0.107182 -0.093566
v -0.086862 -0.106393 -0.034368
v -0.050105 -0.115850 0.013059
v 0.106422 0.295101 0.125874
v 0.140231 0.295580 0.084025
v 0.128685 0.299387 0.031615
v 0.080478 0.303656 0.008110
v 0.031911 0.305171 0.031209
v 0.019556 0.302793 0.083519
v 0.052717 0.298312 0.125649
v 0.051993 0.730824 0.049236
v 0.082805 0.728431 0.012866
v 0.073854 0.719689 -0.033192
v 0.031880 0.711181 -0.054256
v -0.011510 0.709314 -0.034464
v -0.023642 0.715494 0.011280
v 0.004619 0.725067 0.048530
v -0.050000 -1.050000 -0.000000
v 0.030000 0.720000 -0.000000
v 0.044033 0.657269 0.046360
v 0.049648 0.686325 0.000000
v 0.025615 0.669056 -0.046360
v -0.004033 0.622731 -0.046360
v -0.009648 0.593675 -0.000000
v 0.014385 0.610944 0.046360
v -0.200568 0.827778 0.116969
v -0.187766 0.843907 0.058488
v -0.217199 0.816128 0.011519
v -0.259432 0.772222 0.023031
v -0.272234 0.756093 0.081512
v -0.242801 0.783872 0.128481
v -0.327589 1.052985 0.060308
v -0.314247 1.028702 -0.003975
v -0.366658 1.005717 -0.044283
v -0.432411 1.007015 -0.020308
v -0.445753 1.031298 0.043975
v -0.393342 1.054283 0.084283
v -0.247629 1.252325 -0.081370
v -0.252898 1.225167 -0.134611
v -0.295269 1.242842 -0.173242
v -0.332371 1.287675 -0.158630
v -0.327102 1.314833 -0.105389
v -0.284731 1.297158 -0.066758
v -0.064927 1.327126 -0.149668
v -0.063690 1.317248 -0.193553
v -0.058763 1.350122 -0.223885
v -0.055073 1.392874 -0.210332
v -0.056310 1.402752 -0.166447
v -0.061237 1.369878 -0.136115
v 0.084955 1.214999 -0.094287
v 0.094269 1.214206 -0.114202
v 0.109313 1.229207 -0.119916
v 0.115045 1.245001 -0.105713
v 0.105731 1.245794 -0.085798
v 0.090687 1.230793 -0.080084
v 0.020000 0.640000 0.000000
v 0.100000 1.230000 -0.100000
v 0.033226 0.674411 0.061443
v 0.034603 0.646472 0.020000
v 0.011377 0.662061 -0.021443
v -0.013226 0.705589 -0.021443
v -0.014603 0.733528 0.020000
v 0.008623 0.717939 0.061443
v 0.254777 0.801886 -0.004741
v 0.277639 0.773862 -0.052615
v 0.262862 0.791975 -0.107874
v 0.225223 0.838114 -0.115259
v 0.202361 0.866138 -0.067385
v 0.217138 0.848025 -0.012126
v 0.395437 0.966089 0.078690
v 0.449478 0.972318 0.037889
v 0.444041 1.006228 -0.020801
v 0.384563 1.033911 -0.038690
v 0.330522 1.027682 0.002111
v 0.335959 0.993772 0.060801
v 0.356505 1.188966 0.205273
v 0.400109 1.221597 0.197600
v 0.403604 1.252631 0.152327
v 0.363495 1.251034 0.114727
v 0.319891 1.218403 0.122400
v 0.316396 1.187369 0.167673
v 0.179236 1.299601 0.255986
v 0.178844 1.337315 0.269308
v 0.179608 1.367714 0.243322
v 0.180764 1.360399 0.204014
v 0.181156 1.322685 0.190692
v 0.180392 1.292286 0.216678
v 0.025910 1.203910 0.160304
v 0.012972 1.216804 0.168450
v 0.007062 1.232894 0.158146
v 0.014090 1.236090 0.139696
v 0.027028 1.223196 0.131550
v 0.032938 1.207106 0.141854
v 0.010000 0.690000 0.020000
v 0.020000 1.220000 0.150000
v 0.041575 0.892226 0.005533
v 0.017221 0.895373 -0.014927
v -0.017221 0.895373 -0.014927
v -0.041575 0.892226 0.005533
v -0.041575 0.887774 0.034467
v -0.017221 0.884627 0.054927
v 0.017221 0.884627 0.054927
v 0.041575 0.887774 0.034467
v 0.133869 1.025717 -0.007086
v 0.055450 1.043579 -0.071419
v -0.055450 1.047629 -0.070485
v -0.133869 1.035494 -0.004830
v -0.133869 1.014283 0.087086
v -0.055450 0.996421 0.151419
v 0.055450 0.992371 0.150485
v 0.133869 1.004506 0.084830
v 0.125138 1.150000 0.038368
v 0.057007 1.150000 -0.018562
v -0.038661 1.150000 -0.017756
v -0.105823 1.150000 0.040314
v -0.105138 1.150000 0.121632
v -0.037007 1.150000 0.178562
v 0.058661 1.150000 0.177756
v 0.125823 1.150000 0.119686
v 0.022959 1.269092 0.031536
v 0.009380 1.264471 0.021068
v -0.009694 1.263089 0.021691
v -0.023089 1.265755 0.033038
v -0.022959 1.270908 0.048464
v -0.009380 1.275529 0.058932
v 0.009694 1.276911 0.058309
v 0.023089 1.274245 0.046962
v -0.000000 0.890000 0.020000
v -0.000000 1.270000 0.040000
v -0.041253 0.744188 -0.008499
v -0.067161 0.740050 -0.021742
v -0.083173 0.722023 -0.004938
v -0.067161 0.715020 0.018690
v -0.041253 0.728719 0.016490
v -0.137089 0.948711 0.116464
v -0.168187 0.952795 0.106479
v -0.187971 0.939197 0.128999
v -0.169100 0.926708 0.152903
v -0.137653 0.932588 0.145156
v -0.062541 1.129310 0.208071
v -0.085808 1.155642 0.205068
v -0.101049 1.160358 0.236521
v -0.087200 1.136940 0.258962
v -0.063401 1.117751 0.241379
v 0.089873 1.157648 0.215221
v 0.089133 1.181091 0.197512
v 0.103411 1.203026 0.210880
v 0.112975 1.193140 0.236852
v 0.104608 1.165095 0.239535
v 0.168853 1.040409 0.102959
v 0.169034 1.052429 0.090058
v 0.184369 1.061092 0.090896
v 0.193667 1.054427 0.104316
v 0.184077 1.041644 0.111771
v -0.060000 0.730000 -0.000000
v 0.180000 1.050000 0.100000
vt 0.000000 0.000000
vt 0.142857 0.000000
vt 0.285714 0.000000
vt 0.428571 0.000000
vt 0.571429 0.000000
vt 0.714286 0.000000
vt 0.857143 0.000000
vt 0.000000 0.275839
vt 0.142857 0.275839
vt 0.285714 0.275839
vt 0.428571 0.275839
vt 0.571429 0.275839
vt 0.714286 0.275839
vt 0.857143 0.275839
vt 0.000000 0.520192
vt 0.142857 0.520192
vt 0.285714 0.520192
vt 0.428571 0.520192
vt 0.571429 0.520192
vt 0.714286 0.520192
vt 0.857143 0.520192
vt 0.000000 0.765401
vt 0.142857 0.765401
vt 0.285714 0.765401
vt 0.428571 0.765401
vt 0.571429 0.765401
vt 0.714286 0.765401
vt 0.857143 0.765401
vt 0.000000 1.000000
vt 0.142857 1.000000
vt 0.285714 1.000000
vt 0.428571 1.000000
vt 0.571429 1.000000
vt 0.714286 1.000000
vt 0.857143 1.000000
vt 0.500000 0.500000
vt 0.500000 0.500000
vt 0.000000 0.000000
vt 0.166667 0.000000
vt 0.333333 0.000000
vt 0.500000 0.000000
vt 0.666667 0.000000
vt 0.833333 0.000000
vt 0.000000 0.225657
vt 0.166667 0.225657
vt 0.333333 0.225657
vt 0.500000 0.225657
vt 0.666667 0.225657
vt 0.833333 0.225657
vt 0.000000 0.432184
vt 0.166667 0.432184
vt 0.333333 0.432184
vt 0.500000 0.432184
vt 0.666667 0.432184
vt 0.833333 0.432184
vt 0.000000 0.648298
vt 0.166667 0.648298
vt 0.333333 0.648298
vt 0.500000 0.648298
vt 0.666667 0.648298
vt 0.833333 0.648298
vt 0.000000 0.836370
vt 0.166667 0.836370
vt 0.333333 0.836370
vt 0.500000 0.836370
vt 0.666667 0.836370
vt 0.833333 0.836370
vt 0.000000 1.000000
vt 0.166667 1.000000
vt 0.333333 1.000000
vt 0.500000 1.000000
vt 0.666667 1.000000
vt 0.833333 1.000000
vt 0.500000 0.500000
vt 0.500000 0.500000
vt 0.000000 0.000000
vt 0.166667 0.000000
vt 0.333333 0.000000
vt 0.500000 0.000000
vt 0.666667 0.000000
vt 0.833333 0.000000
vt 0.000000 0.226566
vt 0.166667 0.226566
vt 0.333333 0.226566
vt 0.500000 0.226566
vt 0.666667 0.226566
vt 0.833333 0.226566
vt 0.000000 0.429777
vt 0.166667 0.429777
vt 0.333333 0.429777
vt 0.500000 0.429777
vt 0.666667 0.429777
vt 0.833333 0.429777
vt 0.000000 0.645217
vt 0.166667 0.645217
vt 0.333333 0.645217
vt 0.500000 0.645217
vt 0.666667 0.645217
vt 0.833333 0.645217
vt 0.000000 0.827640
vt 0.166667 0.827640
vt 0.333333 0.827640
vt 0.500000 0.827640
vt 0.666667 0.827640
vt 0.833333 0.827640
vt 0.000000 1.000000
vt 0.166667 1.000000
vt 0.333333 1.000000
vt 0.500000 1.000000
vt 0.666667 1.000000
vt 0.833333 1.000000
vt 0.500000 0.500000
vt 0.500000 0.500000
vt 0.000000 0.000000
vt 0.125000 0.000000
vt 0.250000 0.000000
vt 0.375000 0.000000
vt 0.500000 0.000000
vt 0.625000 0.000000
vt 0.750000 0.000000
vt 0.875000 0.000000
vt 0.000000 0.333157
vt 0.125000 0.333157
vt 0.250000 0.333157
vt 0.375000 0.333157
vt 0.500000 0.333157
vt 0.625000 0.333157
vt 0.750000 0.333157
vt 0.875000 0.333157
vt 0.000000 0.678605
vt 0.125000 0.678605
vt 0.250000 0.678605
vt 0.375000 0.678605
vt 0.500000 0.678605
vt 0.625000 0.678605
vt 0.750000 0.678605
vt 0.875000 0.678605
vt 0.000000 1.000000
vt 0.125000 1.000000
vt 0.250000 1.000000
vt 0.375000 1.000000
vt 0.500000 1.000000
vt 0.625000 1.000000
vt 0.750000 1.000000
vt 0.875000 1.000000
vt 0.500000 0.500000
vt 0.500000 0.500000
vt 0.000000 0.000000
vt 0.200000 0.000000
vt 0.400000 0.000000
vt 0.600000 0.000000
vt 0.800000 0.000000
vt 0.000000 0.301843
vt 0.200000 0.301843
vt 0.400000 0.301843
vt 0.600000 0.301843
vt 0.800000 0.301843
vt 0.000000 0.570867
vt 0.200000 0.570867
vt 0.400000 0.570867
vt 0.600000 0.570867
vt 0.800000 0.570867
vt 0.000000 0.780051
vt 0.200000 0.780051
vt 0.400000 0.780051
vt 0.600000 0.780051
vt 0.800000 0.780051
vt 0.000000 1.000000
vt 0.200000 1.000000
vt 0.400000 1.000000
vt 0.600000 1.000000
vt 0.800000 1.000000
vt 0.500000 0.500000
vt 0.500000 0.500000
vn 0.439322 -0.032799 0.897731
vn 0.972238 0.075454 0.221497
vn 0.974968 -0.020023 0.221440
vn 0.445488 0.045712 0.894120
vn 0.773333 0.123947 -0.621767
vn 0.777149 -0.064022 -0.626051
vn -0.007460 0.074619 -0.997184
vn -0.013818 -0.053382 -0.998479
vn -0.782409 -0.033142 -0.621882
vn -0.784548 0.001701 -0.620066
vn -0.968018 -0.117679 0.221571
vn -0.973323 0.061454 0.221058
vn -0.424270 -0.117766 0.897845
vn -0.422058 0.082201 0.902835
vn 0.957060 -0.190239 0.218737
vn 0.420557 -0.099170 0.901830
vn 0.780232 -0.124148 -0.613046
vn 0.020579 0.051857 -0.998442
vn -0.759690 0.203653 -0.617573
vn -0.952654 0.211880 0.218078
vn -0.442874 0.080507 0.892962
vn 0.972603 -0.050131 0.227003
vn 0.411377 -0.055823 0.909754
vn 0.789865 0.004210 -0.613267
vn 0.031775 0.065646 -0.997337
vn -0.768671 0.093584 -0.632761
vn -0.973467 0.060155 0.220777
vn -0.452233 -0.005743 0.891881
vn 0.959997 0.164583 0.226535
vn 0.422514 0.207313 0.882328
vn 0.785522 0.004943 -0.618813
vn 0.002168 -0.152825 -0.988251
vn -0.765793 -0.182623 -0.616611
vn -0.974286 -0.065816 0.215487
vn -0.433657 0.110133 0.894322
vn 0.099190 -0.991900 -0.079352
vn -0.116627 0.979663 -0.163277
vn 0.437277 0.313775 0.842813
vn 0.536117 0.844143 0.000826
vn 0.691860 0.716176 -0.091766
vn 0.434295 0.407547 0.803302
vn 0.099885 0.529700 -0.842283
vn 0.242856 0.315512 -0.917319
vn -0.436619 -0.314197 -0.842997
vn -0.461270 -0.377061 -0.803153
vn -0.541704 -0.840569 0.000739
vn -0.725935 -0.681567 0.092112
vn -0.104039 -0.527042 0.843447
vn -0.268405 -0.289546 0.918761
vn 0.973971 0.103591 -0.201615
vn 0.602478 0.356476 0.714105
vn 0.293635 -0.208270 -0.932953
vn -0.625280 -0.248869 -0.739654
vn -0.986069 -0.001024 0.166333
vn -0.319254 0.308770 0.895957
vn 0.716572 -0.676283 -0.170780
vn 0.659821 -0.147176 0.736869
vn 0.094620 -0.436137 -0.894892
vn -0.567576 0.272979 -0.776749
vn -0.626494 0.772833 0.101166
vn -0.026393 0.563754 0.825521
vn 0.029853 -0.964958 -0.260702
vn -0.077036 -0.618848 0.781724
vn 0.178416 -0.342563 -0.922398
vn 0.252942 0.611455 -0.749762
vn 0.174793 0.957903 0.227747
vn 0.017890 0.377727 0.925744
vn -0.369158 -0.864718 -0.340566
vn -0.601741 -0.566900 0.562611
vn 0.354956 -0.291224 -0.888366
vn 0.736472 0.471481 -0.485093
vn 0.583337 0.739513 0.335916
vn -0.110448 0.242570 0.963826
vn 0.819782 -0.524661 -0.229539
vn 0.723545 -0.587880 0.361773
vn 0.423203 -0.334410 0.842063
vn 0.454744 -0.890532 0.012677
vn 0.594649 -0.800600 0.073704
vn 0.240392 -0.411393 0.879186
vn -0.005947 -0.577286 -0.816520
vn 0.333771 -0.429360 -0.839195
vn -0.504226 0.288560 -0.813935
vn -0.306768 0.370334 -0.876782
vn -0.531827 0.846735 0.014150
vn -0.648640 0.758591 -0.061694
vn -0.065060 0.537021 0.841056
vn -0.391339 0.381007 0.837668
vn 0.860381 -0.416412 0.293845
vn 0.063310 -0.485516 0.871932
vn 0.780553 0.093604 -0.618042
vn -0.080774 0.497783 -0.863532
vn -0.862268 0.424847 -0.275679
vn -0.783973 -0.088641 0.614434
vn 0.730488 0.113415 0.673442
vn 0.002255 -0.525763 0.850628
vn 0.709517 0.681689 -0.178565
vn -0.029184 0.593982 -0.803949
vn -0.771550 -0.035833 -0.635158
vn -0.751602 -0.620205 0.224587
vn -0.058131 0.243591 0.968134
vn -0.000269 -0.651579 0.758581
vn -0.115068 0.977988 0.174065
vn -0.116840 0.670049 -0.733064
vn -0.066465 -0.203142 -0.976891
vn 0.008854 -0.987720 -0.155982
vn -0.554212 0.100101 0.826335
vn 0.078846 -0.743579 0.663983
vn -0.661346 0.718931 0.213913
vn -0.244895 0.700576 -0.670239
vn 0.437745 -0.113439 -0.891914
vn 0.580302 -0.780336 -0.233079
vn -0.833202 -0.470940 0.289809
vn -0.761905 -0.523810 -0.380952
vn 0.730504 -0.528561 -0.432421
vn 0.289384 -0.398393 -0.870367
vn 0.348151 0.008630 -0.937399
vn 0.883047 -0.173675 -0.435964
vn -0.290902 -0.394483 -0.871642
vn -0.340713 0.034559 -0.939532
vn -0.735938 -0.520291 -0.433235
vn -0.895970 -0.109251 -0.430467
vn -0.724079 -0.646175 0.241180
vn -0.873753 -0.315201 0.370410
vn -0.280303 -0.685295 0.672161
vn -0.326281 -0.427677 0.842991
vn 0.279051 -0.687688 0.670235
vn 0.326538 -0.449509 0.831453
vn 0.718976 -0.652864 0.238415
vn 0.859775 -0.374354 0.347343
vn 0.320502 0.421695 -0.848205
vn 0.824079 0.422166 -0.377716
vn -0.324124 0.421268 -0.847040
vn -0.829502 0.427904 -0.358922
vn -0.832561 0.386590 0.396724
vn -0.324515 0.324280 0.888556
vn 0.332375 0.317945 0.887940
vn 0.845069 0.374789 0.381301
vn 0.294907 0.423382 -0.856608
vn 0.710342 0.600889 -0.366533
vn -0.322819 0.379529 -0.867033
vn -0.771905 0.514652 -0.373225
vn -0.694518 0.648945 0.310668
vn -0.246753 0.695195 0.675142
vn 0.243864 0.716409 0.653673
vn 0.644595 0.711278 0.280323
vn 0.000000 -0.988372 -0.152057
vn -0.078811 0.945732 -0.315244
vn 0.753184 0.560537 -0.344256
vn -0.282960 0.394676 -0.874165
vn -0.285486 0.450268 -0.846024
vn 0.803215 0.291153 -0.519688
vn -0.924077 -0.324974 -0.201180
vn -0.999457 -0.012186 -0.030626
vn -0.282681 -0.607023 0.742708
vn -0.299410 -0.479315 0.824991
vn 0.752953 -0.057707 0.655539
vn 0.784308 -0.298523 0.543824
vn -0.228909 0.521995 -0.821658
vn 0.483349 -0.361504 -0.797301
vn -0.651093 0.716602 0.250121
vn -0.141202 -0.140975 0.979892
vn 0.522843 -0.764702 0.376650
vn -0.445916 0.379944 -0.810433
vn -0.436710 -0.789144 -0.431899
vn 0.121247 0.982831 -0.139077
vn 0.603285 0.185542 0.775642
vn 0.228694 -0.806325 0.545471
vn -0.669233 0.193623 -0.717382
vn -0.784061 -0.613634 0.093281
vn 0.418680 0.719337 -0.554311
vn 0.920078 0.231272 0.316179
vn 0.221325 -0.619806 0.752899
vn 0.375293 -0.788116 -0.487881
vn 0.412021 -0.669534 -0.618031
usemtl oxidized_bronze
s 1
f 1/1/1 2/2/2 9/9/3 8/8/4
s 1
f 2/2/2 3/3/5 10/10/6 9/9/3
s 1
f 3/3/5 4/4/7 11/11/8 10/10/6
s 1
f 4/4/7 5/5/9 12/12/10 11/11/8
s 1
f 5/5/9 6/6/11 13/13/12 12/12/10
s 1
f 6/6/11 7/7/13 14/14/14 13/13/12
s 1
f 7/7/13 1/1/1 8/8/4 14/14/14
s 1
f 8/8/4 9/9/3 16/16/15 15/15/16
s 1
f 9/9/3 10/10/6 17/17/17 16/16/15
s 1
f 10/10/6 11/11/8 18/18/18 17/17/17
s 1
f 11/11/8 12/12/10 19/19/19 18/18/18
s 1
f 12/12/10 13/13/12 20/20/20 19/19/19
s 1
f 13/13/12 14/14/14 21/21/21 20/20/20
s 1
f 14/14/14 8/8/4 15/15/16 21/21/21
s 1
f 15/15/16 16/16/15 23/23/22 22/22/23
s 1
f 16/16/15 17/17/17 24/24/24 23/23/22
s 1
f 17/17/17 18/18/18 25/25/25 24/24/24
s 1
f 18/18/18 19/19/19 26/26/26 25/25/25
s 1
f 19/19/19 20/20/20 27/27/27 26/26/26
s 1
f 20/20/20 21/21/21 28/28/28 27/27/27
s 1
f 21/21/21 15/15/16 22/22/23 28/28/28
s 1
f 22/22/23 23/23/22 30/30/29 29/29/30
s 1
f 23/23/22 24/24/24 31/31/31 30/30/29
s 1
f 24/24/24 25/25/25 32/32/32 31/31/31
s 1
f 25/25/25 26/26/26 33/33/33 32/32/32
s 1
f 26/26/26 27/27/27 34/34/34 33/33/33
s 1
f 27/27/27 28/28/28 35/35/35 34/34/34
s 1
f 28/28/28 22/22/23 29/29/30 35/35/35
s off
f 36/36/36 2/2/36 1/1/36
s off
f 36/36/36 3/3/36 2/2/36
s off
f 36/36/36 4/4/36 3/3/36
s off
f 36/36/36 5/5/36 4/4/36
s off
f 36/36/36 6/6/36 5/5/36
s off
f 36/36/36 7/7/36 6/6/36
s off
f 36/36/36 1/1/36 7/7/36
s off
f 37/37/37 29/29/37 30/30/37
s off
f 37/37/37 30/30/37 31/31/37
s off
f 37/37/37 31/31/37 32/32/37
s off
f 37/37/37 32/32/37 33/33/37
s off
f 37/37/37 33/33/37 34/34/37
s off
f 37/37/37 34/34/37 35/35/37
s off
f 37/37/37 35/35/37 29/29/37
usemtl crystal
s 2
f 38/38/38 39/39/39 45/45/40 44/44/41
s 2
f 39/39/39 40/40/42 46/46/43 45/45/40
s 2
f 40/40/42 41/41/44 47/47/45 46/46/43
s 2
f 41/41/44 42/42/46 48/48/47 47/47/45
s 2
f 42/42/46 43/43/48 49/49/49 48/48/47
s 2
f 43/43/48 38/38/38 44/44/41 49/49/49
s 2
f 44/44/41 45/45/40 51/51/50 50/50/51
s 2
f 45/45/40 46/46/43 52/52/52 51/51/50
s 2
f 46/46/43 47/47/45 53/53/53 52/52/52
s 2
f 47/47/45 48/48/47 54/54/54 53/53/53
s 2
f 48/48/47 49/49/49 55/55/55 54/54/54
s 2
f 49/49/49 44/44/41 50/50/51 55/55/55
s 2
f 50/50/51 51/51/50 57/57/56 56/56/57
s 2
f 51/51/50 52/52/52 58/58/58 57/57/56
s 2
f 52/52/52 53/53/53 59/59/59 58/58/58
s 2
f 53/53/53 54/54/54 60/60/60 59/59/59
s 2
f 54/54/54 55/55/55 61/61/61 60/60/60
s 2
f 55/55/55 50/50/51 56/56/57 61/61/61
s 2
f 56/56/57 57/57/56 63/63/62 62/62/63
s 2
f 57/57/56 58/58/58 64/64/64 63/63/62
s 2
f 58/58/58 59/59/59 65/65/65 64/64/64
s 2
f 59/59/59 60/60/60 66/66/66 65/65/65
s 2
f 60/60/60 61/61/61 67/67/67 66/66/66
s 2
f 61/61/61 56/56/57 62/62/63 67/67/67
s 2
f 62/62/63 63/63/62 69/69/68 68/68/69
s 2
f 63/63/62 64/64/64 70/70/70 69/69/68
s 2
f 64/64/64 65/65/65 71/71/71 70/70/70
s 2
f 65/65/65 66/66/66 72/72/72 71/71/71
s 2
f 66/66/66 67/67/67 73/73/73 72/72/72
s 2
f 67/67/67 62/62/63 68/68/69 73/73/73
s off
f 74/74/74 39/39/74 38/38/74
s off
f 74/74/74 40/40/74 39/39/74
s off
f 74/74/74 41/41/74 40/40/74
s off
f 74/74/74 42/42/74 41/41/74
s off
f 74/74/74 43/43/74 42/42/74
s off
f 74/74/74 38/38/74 43/43/74
s off
f 75/75/75 68/68/75 69/69/75
s off
f 75/75/75 69/69/75 70/70/75
s off
f 75/75/75 70/70/75 71/71/75
s off
f 75/75/75 71/71/75 72/72/75
s off
f 75/75/75 72/72/75 73/73/75
s off
f 75/75/75 73/73/75 68/68/75
s 3
f 76/76/76 77/77/77 83/83/78 82/82/79
s 3
f 77/77/77 78/78/80 84/84/81 83/83/78
s 3
f 78/78/80 79/79/82 85/85/83 84/84/81
s 3
f 79/79/82 80/80/84 86/86/85 85/85/83
s 3
f 80/80/84 81/81/86 87/87/87 86/86/85
s 3
f 81/81/86 76/76/76 82/82/79 87/87/87
s 3
f 82/82/79 83/83/78 89/89/88 88/88/89
s 3
f 83/83/78 84/84/81 90/90/90 89/89/88
s 3
f 84/84/81 85/85/83 91/91/91 90/90/90
s 3
f 85/85/83 86/86/85 92/92/92 91/91/91
s 3
f 86/86/85 87/87/87 93/93/93 92/92/92
s 3
f 87/87/87 82/82/79 88/88/89 93/93/93
s 3
f 88/88/89 89/89/88 95/95/94 94/94/95
s 3
f 89/89/88 90/90/90 96/96/96 95/95/94
s 3
f 90/90/90 91/91/91 97/97/97 96/96/96
s 3
f 91/91/91 92/92/92 98/98/98 97/97/97
s 3
f 92/92/92 93/93/93 99/99/99 98/98/98
s 3
f 93/93/93 88/88/89 94/94/95 99/99/99
s 3
f 94/94/95 95/95/94 101/101/100 100/100/101
s 3
f 95/95/94 96/96/96 102/102/102 101/101/100
s 3
f 96/96/96 97/97/97 103/103/103 102/102/102
s 3
f 97/97/97 98/98/98 104/104/104 103/103/103
s 3
f 98/98/98 99/99/99 105/105/105 104/104/104
s 3
f 99/99/99 94/94/95 100/100/101 105/105/105
s 3
f 100/100/101 101/101/100 107/107/106 106/106/107
s 3
f 101/101/100 102/102/102 108/108/108 107/107/106
s 3
f 102/102/102 103/103/103 109/109/109 108/108/108
s 3
f 103/103/103 104/104/104 110/110/110 109/109/109
s 3
f 104/104/104 105/105/105 111/111/111 110/110/110
s 3
f 105/105/105 100/100/101 106/106/107 111/111/111
s off
f 112/112/112 77/77/112 76/76/112
s off
f 112/112/112 78/78/112 77/77/112
s off
f 112/112/112 79/79/112 78/78/112
s off
f 112/112/112 80/80/112 79/79/112
s off
f 112/112/112 81/81/112 80/80/112
s off
f 112/112/112 76/76/112 81/81/112
s off
f 113/113/113 106/106/113 107/107/113
s off
f 113/113/113 107/107/113 108/108/113
s off
f 113/113/113 108/108/113 109/109/113
s off
f 113/113/113 109/109/113 110/110/113
s off
f 113/113/113 110/110/113 111/111/113
s off
f 113/113/113 111/111/113 106/106/113
usemtl smoked_glass
s 4
f 114/114/114 115/115/115 123/123/116 122/122/117
s 4
f 115/115/115 116/116/118 124/124/119 123/123/116
s 4
f 116/116/118 117/117/120 125/125/121 124/124/119
s 4
f 117/117/120 118/118/122 126/126/123 125/125/121
s 4
f 118/118/122 119/119/124 127/127/125 126/126/123
s 4
f 119/119/124 120/120/126 128/128/127 127/127/125
s 4
f 120/120/126 121/121/128 129/129/129 128/128/127
s 4
f 121/121/128 114/114/114 122/122/117 129/129/129
s 4
f 122/122/117 123/123/116 131/131/130 130/130/131
s 4
f 123/123/116 124/124/119 132/132/132 131/131/130
s 4
f 124/124/119 125/125/121 133/133/133 132/132/132
s 4
f 125/125/121 126/126/123 134/134/134 133/133/133
s 4
f 126/126/123 127/127/125 135/135/135 134/134/134
s 4
f 127/127/125 128/128/127 136/136/136 135/135/135
s 4
f 128/128/127 129/129/129 137/137/137 136/136/136
s 4
f 129/129/129 122/122/117 130/130/131 137/137/137
s 4
f 130/130/131 131/131/130 139/139/138 138/138/139
s 4
f 131/131/130 132/132/132 140/140/140 139/139/138
s 4
f 132/132/132 133/133/133 141/141/141 140/140/140
s 4
f 133/133/133 134/134/134 142/142/142 141/141/141
s 4
f 134/134/134 135/135/135 143/143/143 142/142/142
s 4
f 135/135/135 136/136/136 144/144/144 143/143/143
s 4
f 136/136/136 137/137/137 145/145/145 144/144/144
s 4
f 137/137/137 130/130/131 138/138/139 145/145/145
s off
f 146/146/146 115/115/146 114/114/146
s off
f 146/146/146 116/116/146 115/115/146
s off
f 146/146/146 117/117/146 116/116/146
s off
f 146/146/146 118/118/146 117/117/146
s off
f 146/146/146 119/119/146 118/118/146
s off
f 146/146/146 120/120/146 119/119/146
s off
f 146/146/146 121/121/146 120/120/146
s off
f 146/146/146 114/114/146 121/121/146
s off
f 147/147/147 138/138/147 139/139/147
s off
f 147/147/147 139/139/147 140/140/147
s off
f 147/147/147 140/140/147 141/141/147
s off
f 147/147/147 141/141/147 142/142/147
s off
f 147/147/147 142/142/147 143/143/147
s off
f 147/147/147 143/143/147 144/144/147
s off
f 147/147/147 144/144/147 145/145/147
s off
f 147/147/147 145/145/147 138/138/147
usemtl ritual_gold
s 5
f 148/148/148 149/149/149 154/154/150 153/153/151
s 5
f 149/149/149 150/150/152 155/155/153 154/154/150
s 5
f 150/150/152 151/151/154 156/156/155 155/155/153
s 5
f 151/151/154 152/152/156 157/157/157 156/156/155
s 5
f 152/152/156 148/148/148 153/153/151 157/157/157
s 5
f 153/153/151 154/154/150 159/159/158 158/158/159
s 5
f 154/154/150 155/155/153 160/160/160 159/159/158
s 5
f 155/155/153 156/156/155 161/161/161 160/160/160
s 5
f 156/156/155 157/157/157 162/162/162 161/161/161
s 5
f 157/157/157 153/153/151 158/158/159 162/162/162
s 5
f 158/158/159 159/159/158 164/164/163 163/163/164
s 5
f 159/159/158 160/160/160 165/165/165 164/164/163
s 5
f 160/160/160 161/161/161 166/166/166 165/165/165
s 5
f 161/161/161 162/162/162 167/167/167 166/166/166
s 5
f 162/162/162 158/158/159 163/163/164 167/167/167
s 5
f 163/163/164 164/164/163 169/169/168 168/168/169
s 5
f 164/164/163 165/165/165 170/170/170 169/169/168
s 5
f 165/165/165 166/166/166 171/171/171 170/170/170
s 5
f 166/166/166 167/167/167 172/172/172 171/171/171
s 5
f 167/167/167 163/163/164 168/168/169 172/172/172
s off
f 173/173/173 149/149/173 148/148/173
s off
f 173/173/173 150/150/173 149/149/173
s off
f 173/173/173 151/151/173 150/150/173
s off
f 173/173/173 152/152/173 151/151/173
s off
f 173/173/173 148/148/173 152/152/173
s off
f 174/174/174 168/168/174 169/169/174
s off
f 174/174/174 169/169/174 170/170/174
s off
f 174/174/174 170/170/174 171/171/174
s off
f 174/174/174 171/171/174 172/172/174
s off
f 174/174/174 172/172/174 168/168/174
