# Blender 5.1.2
# www.blender.org
mtllib environment.mtl
g RND_WalkBand_Mesh
v -9.000000 -0.440000 0.630000
v -9.000000 0.000000 0.630000
v -9.000000 -0.440000 -1.970000
v -9.000000 0.000000 -1.970000
v 9.000000 -0.440000 0.630000
v 9.000000 0.000000 0.630000
v 9.000000 -0.440000 -1.970000
v 9.000000 0.000000 -1.970000
v -15.500000 0.000000 -6.470000
v -11.625000 0.000000 -6.470000
v -7.750000 0.000000 -6.470000
v -3.875000 0.000000 -6.470000
v 0.000000 0.000000 -6.470000
v 3.875000 0.000000 -6.470000
v 7.750000 0.000000 -6.470000
v 11.625000 0.000000 -6.470000
v 15.500000 0.000000 -6.470000
v -15.500000 1.700000 -6.470000
v -11.625000 1.700000 -6.470000
v -7.750000 1.700000 -6.470000
v -3.875000 1.700000 -6.470000
v 0.000000 1.700000 -6.470000
v 3.875000 1.700000 -6.470000
v 7.750000 1.700000 -6.470000
v 11.625000 1.700000 -6.470000
v 15.500000 1.700000 -6.470000
v -15.500000 3.400000 -6.470000
v -11.625000 3.400000 -6.470000
v -7.750000 3.400000 -6.470000
v -3.875000 3.400000 -6.470000
v 0.000000 3.400000 -6.470000
v 3.875000 3.400000 -6.470000
v 7.750000 3.400000 -6.470000
v 11.625000 3.400000 -6.470000
v 15.500000 3.400000 -6.470000
v -15.500000 5.100000 -6.470000
v -11.625000 5.100000 -6.470000
v -7.750000 5.100000 -6.470000
v -3.875000 5.100000 -6.470000
v 0.000000 5.100000 -6.470000
v 3.875000 5.100000 -6.470000
v 7.750000 5.100000 -6.470000
v 11.625000 5.100000 -6.470000
v 15.500000 5.100000 -6.470000
v -12.550000 0.000000 -4.095000
v -12.550000 6.500000 -4.095000
v -9.850000 6.500000 -4.095000
v -9.850000 0.000000 -4.095000
v -12.550000 0.000000 -5.145000
v -12.550000 6.500000 -5.145000
v -9.850000 6.500000 -5.145000
v -9.850000 0.000000 -5.145000
v -12.830000 6.500000 -3.950000
v -11.200000 7.700000 -3.950000
v -9.570000 6.500000 -3.950000
v -12.830000 6.500000 -5.250000
v -11.200000 7.700000 -5.250000
v -9.570000 6.500000 -5.250000
v -9.900000 0.000000 -3.495000
v -9.900000 4.800000 -3.495000
v -6.100000 4.800000 -3.495000
v -6.100000 0.000000 -3.495000
v -9.900000 0.000000 -4.545000
v -9.900000 4.800000 -4.545000
v -6.100000 4.800000 -4.545000
v -6.100000 0.000000 -4.545000
v -10.180000 4.800000 -3.350000
v -8.000000 6.350000 -3.350000
v -5.820000 4.800000 -3.350000
v -10.180000 4.800000 -4.650000
v -8.000000 6.350000 -4.650000
v -5.820000 4.800000 -4.650000
v -5.850000 0.000000 -3.995000
v -5.850000 4.200000 -3.995000
v -0.350000 4.200000 -3.995000
v -0.350000 0.000000 -3.995000
v -5.850000 0.000000 -5.045000
v -5.850000 4.200000 -5.045000
v -0.350000 4.200000 -5.045000
v -0.350000 0.000000 -5.045000
v -6.130000 4.200000 -3.850000
v -3.100000 5.200000 -3.850000
v -0.070000 4.200000 -3.850000
v -6.130000 4.200000 -5.150000
v -3.100000 5.200000 -5.150000
v -0.070000 4.200000 -5.150000
v 1.100000 0.000000 -3.395000
v 1.100000 5.000000 -3.395000
v 5.300000 5.000000 -3.395000
v 5.300000 0.000000 -3.395000
v 1.100000 0.000000 -4.445000
v 1.100000 5.000000 -4.445000
v 5.300000 5.000000 -4.445000
v 5.300000 0.000000 -4.445000
v 0.820000 5.000000 -3.250000
v 3.200000 6.300000 -3.250000
v 5.580000 5.000000 -3.250000
v 0.820000 5.000000 -4.550000
v 3.200000 6.300000 -4.550000
v 5.580000 5.000000 -4.550000
v 7.200000 0.000000 -4.295000
v 7.200000 6.800000 -4.295000
v 10.200000 6.800000 -4.295000
v 10.200000 0.000000 -4.295000
v 7.200000 0.000000 -5.345000
v 7.200000 6.800000 -5.345000
v 10.200000 6.800000 -5.345000
v 10.200000 0.000000 -5.345000
v 6.920000 6.800000 -4.150000
v 8.700000 8.050000 -4.150000
v 10.480000 6.800000 -4.150000
v 6.920000 6.800000 -5.450000
v 8.700000 8.050000 -5.450000
v 10.480000 6.800000 -5.450000
v -4.200000 4.740000 -2.860000
v -4.200000 4.960000 -2.860000
v -4.200000 4.740000 -3.180000
v -4.200000 4.960000 -3.180000
v 4.600000 4.740000 -2.860000
v 4.600000 4.960000 -2.860000
v 4.600000 4.740000 -3.180000
v 4.600000 4.960000 -3.180000
v -6.280000 1.475000 -2.895000
v -6.280000 3.725000 -2.895000
v -6.280000 1.475000 -3.145000
v -6.280000 3.725000 -3.145000
v -6.120000 1.475000 -2.895000
v -6.120000 3.725000 -2.895000
v -6.120000 1.475000 -3.145000
v -6.120000 3.725000 -3.145000
v -4.280000 1.475000 -2.895000
v -4.280000 3.725000 -2.895000
v -4.280000 1.475000 -3.145000
v -4.280000 3.725000 -3.145000
v -4.120000 1.475000 -2.895000
v -4.120000 3.725000 -2.895000
v -4.120000 1.475000 -3.145000
v -4.120000 3.725000 -3.145000
v -2.280000 1.475000 -2.895000
v -2.280000 3.725000 -2.895000
v -2.280000 1.475000 -3.145000
v -2.280000 3.725000 -3.145000
v -2.120000 1.475000 -2.895000
v -2.120000 3.725000 -2.895000
v -2.120000 1.475000 -3.145000
v -2.120000 3.725000 -3.145000
v -0.280000 1.475000 -2.895000
v -0.280000 3.725000 -2.895000
v -0.280000 1.475000 -3.145000
v -0.280000 3.725000 -3.145000
v -0.120000 1.475000 -2.895000
v -0.120000 3.725000 -2.895000
v -0.120000 1.475000 -3.145000
v -0.120000 3.725000 -3.145000
v 1.720000 1.475000 -2.895000
v 1.720000 3.725000 -2.895000
v 1.720000 1.475000 -3.145000
v 1.720000 3.725000 -3.145000
v 1.880000 1.475000 -2.895000
v 1.880000 3.725000 -2.895000
v 1.880000 1.475000 -3.145000
v 1.880000 3.725000 -3.145000
v 3.720000 1.475000 -2.895000
v 3.720000 3.725000 -2.895000
v 3.720000 1.475000 -3.145000
v 3.720000 3.725000 -3.145000
v 3.880000 1.475000 -2.895000
v 3.880000 3.725000 -2.895000
v 3.880000 1.475000 -3.145000
v 3.880000 3.725000 -3.145000
v 5.720000 1.475000 -2.895000
v 5.720000 3.725000 -2.895000
v 5.720000 1.475000 -3.145000
v 5.720000 3.725000 -3.145000
v 5.880000 1.475000 -2.895000
v 5.880000 3.725000 -2.895000
v 5.880000 1.475000 -3.145000
v 5.880000 3.725000 -3.145000
v -7.210000 0.000000 1.690000
v -7.210000 6.400000 1.690000
v -7.210000 0.000000 0.970000
v -7.210000 6.400000 0.970000
v -6.590000 0.000000 1.690000
v -6.590000 6.400000 1.690000
v -6.590000 0.000000 0.970000
v -6.590000 6.400000 0.970000
v -6.675000 6.070000 1.690000
v -6.675000 6.630000 1.690000
v -6.675000 6.070000 0.970000
v -6.675000 6.630000 0.970000
v -3.325000 6.070000 1.690000
v -3.325000 6.630000 1.690000
v -3.325000 6.070000 0.970000
v -3.325000 6.630000 0.970000
v 6.380000 0.000000 1.290000
v 6.380000 4.700000 1.290000
v 6.380000 0.000000 0.670000
v 6.380000 4.700000 0.670000
v 6.820000 0.000000 1.290000
v 6.820000 4.700000 1.290000
v 6.820000 0.000000 0.670000
v 6.820000 4.700000 0.670000
v -0.600000 4.970000 0.820000
v -0.600000 5.130000 0.820000
v -0.600000 4.970000 0.640000
v -0.600000 5.130000 0.640000
v 4.200000 4.970000 0.820000
v 4.200000 5.130000 0.820000
v 4.200000 4.970000 0.640000
v 4.200000 5.130000 0.640000
v -1.617500 4.175000 0.890000
v -1.617500 4.725000 0.890000
v -1.617500 4.175000 0.830000
v -1.617500 4.725000 0.830000
v -1.582500 4.175000 0.890000
v -1.582500 4.725000 0.890000
v -1.582500 4.175000 0.830000
v -1.582500 4.725000 0.830000
v 0.582500 4.175000 0.890000
v 0.582500 4.725000 0.890000
v 0.582500 4.175000 0.830000
v 0.582500 4.725000 0.830000
v 0.617500 4.175000 0.890000
v 0.617500 4.725000 0.890000
v 0.617500 4.175000 0.830000
v 0.617500 4.725000 0.830000
v 2.782500 4.175000 0.890000
v 2.782500 4.725000 0.890000
v 2.782500 4.175000 0.830000
v 2.782500 4.725000 0.830000
v 2.817500 4.175000 0.890000
v 2.817500 4.725000 0.890000
v 2.817500 4.175000 0.830000
v 2.817500 4.725000 0.830000
v 4.982500 4.175000 0.890000
v 4.982500 4.725000 0.890000
v 4.982500 4.175000 0.830000
v 4.982500 4.725000 0.830000
v 5.017500 4.175000 0.890000
v 5.017500 4.725000 0.890000
v 5.017500 4.175000 0.830000
v 5.017500 4.725000 0.830000
v -8.540000 0.750000 -1.980000
v -8.540000 2.250000 -1.980000
v -8.540000 0.750000 -2.060000
v -8.540000 2.250000 -2.060000
v -8.460000 0.750000 -1.980000
v -8.460000 2.250000 -1.980000
v -8.460000 0.750000 -2.060000
v -8.460000 2.250000 -2.060000
v -8.610000 2.700000 -1.850000
v -8.610000 2.940000 -1.850000
v -8.610000 2.700000 -2.030000
v -8.610000 2.940000 -2.030000
v -8.390000 2.700000 -1.850000
v -8.390000 2.940000 -1.850000
v -8.390000 2.700000 -2.030000
v -8.390000 2.940000 -2.030000
v 3.560000 0.750000 -1.880000
v 3.560000 2.250000 -1.880000
v 3.560000 0.750000 -1.960000
v 3.560000 2.250000 -1.960000
v 3.640000 0.750000 -1.880000
v 3.640000 2.250000 -1.880000
v 3.640000 0.750000 -1.960000
v 3.640000 2.250000 -1.960000
v 3.490000 2.700000 -1.750000
v 3.490000 2.940000 -1.750000
v 3.490000 2.700000 -1.930000
v 3.490000 2.940000 -1.930000
v 3.710000 2.700000 -1.750000
v 3.710000 2.940000 -1.750000
v 3.710000 2.700000 -1.930000
v 3.710000 2.940000 -1.930000
v 11.760000 0.750000 -2.080000
v 11.760000 2.250000 -2.080000
v 11.760000 0.750000 -2.160000
v 11.760000 2.250000 -2.160000
v 11.840000 0.750000 -2.080000
v 11.840000 2.250000 -2.080000
v 11.840000 0.750000 -2.160000
v 11.840000 2.250000 -2.160000
v 11.690001 2.960000 -1.950000
v 11.690001 3.200000 -1.950000
v 11.690001 2.960000 -2.130000
v 11.690001 3.200000 -2.130000
v 11.910000 2.960000 -1.950000
v 11.910000 3.200000 -1.950000
v 11.910000 2.960000 -2.130000
v 11.910000 3.200000 -2.130000
vn -1.0000 -0.0000 -0.0000
vn -0.0000 -0.0000 -1.0000
vn 1.0000 -0.0000 -0.0000
vn -0.0000 -0.0000 1.0000
vn -0.0000 -1.0000 -0.0000
vn -0.0000 1.0000 -0.0000
vn -0.5929 0.8053 -0.0000
vn 0.5929 0.8053 -0.0000
vn -0.5795 0.8150 -0.0000
vn 0.5795 0.8150 -0.0000
vn -0.3134 0.9496 -0.0000
vn 0.3134 0.9496 -0.0000
vn -0.4794 0.8776 -0.0000
vn 0.4794 0.8776 -0.0000
vn -0.5747 0.8184 -0.0000
vn 0.5747 0.8184 -0.0000
vt 0.719246 0.385389
vt 0.711351 0.338739
vt 0.711351 0.385389
vt 0.030293 0.996094
vt 0.019717 0.784560
vt 0.019717 0.996094
vt 0.731047 0.385389
vt 0.723152 0.338739
vt 0.723152 0.385389
vt 0.015811 0.996094
vt 0.003906 0.758008
vt 0.003906 0.996094
vt 0.686818 0.385389
vt 0.348321 0.336495
vt 0.348321 0.385389
vt 0.003906 0.336204
vt 0.344415 0.385389
vt 0.344415 0.336204
vt 0.039972 0.530374
vt 0.072131 0.457070
vt 0.039972 0.457070
vt 0.076037 0.530374
vt 0.108196 0.457070
vt 0.076037 0.457070
vt 0.112102 0.530374
vt 0.144261 0.457070
vt 0.112102 0.457070
vt 0.148168 0.530374
vt 0.180327 0.457070
vt 0.148168 0.457070
vt 0.184233 0.530374
vt 0.216392 0.457070
vt 0.184233 0.457070
vt 0.220298 0.530374
vt 0.252458 0.457070
vt 0.220298 0.457070
vt 0.256364 0.530374
vt 0.288523 0.457070
vt 0.256364 0.457070
vt 0.292429 0.530374
vt 0.324588 0.457070
vt 0.292429 0.457070
vt 0.328495 0.530374
vt 0.360654 0.457070
vt 0.328495 0.457070
vt 0.364560 0.530374
vt 0.396719 0.457070
vt 0.364560 0.457070
vt 0.400625 0.530374
vt 0.432784 0.457070
vt 0.400625 0.457070
vt 0.436691 0.530374
vt 0.468850 0.457070
vt 0.436691 0.457070
vt 0.472756 0.530374
vt 0.504915 0.457070
vt 0.472756 0.457070
vt 0.508821 0.530374
vt 0.540980 0.457070
vt 0.508821 0.457070
vt 0.544887 0.530374
vt 0.577046 0.457070
vt 0.544887 0.457070
vt 0.580952 0.530374
vt 0.613111 0.457070
vt 0.580952 0.457070
vt 0.733934 0.626721
vt 0.766093 0.553417
vt 0.733934 0.553417
vt 0.770000 0.626721
vt 0.802159 0.553417
vt 0.770000 0.553417
vt 0.806065 0.626721
vt 0.838224 0.553417
vt 0.806065 0.553417
vt 0.842130 0.626721
vt 0.874289 0.553417
vt 0.842130 0.553417
vt 0.878196 0.626721
vt 0.910355 0.553417
vt 0.878196 0.553417
vt 0.914261 0.626721
vt 0.946420 0.553417
vt 0.914261 0.553417
vt 0.950326 0.626721
vt 0.982486 0.553417
vt 0.950326 0.553417
vt 0.003906 0.530374
vt 0.036065 0.457070
vt 0.003906 0.457070
vt 0.746654 0.453164
vt 0.623693 0.402087
vt 0.623693 0.453164
vt 0.844202 0.385389
vt 0.734953 0.340009
vt 0.734953 0.385389
vt 0.335810 0.210262
vt 0.220719 0.191670
vt 0.220719 0.210262
vt 0.218446 0.234536
vt 0.166712 0.214417
vt 0.166712 0.234536
vt 0.668469 0.214673
vt 0.791430 0.234536
vt 0.791430 0.214673
vt 0.283562 0.214509
vt 0.335059 0.234536
vt 0.335059 0.214509
vt 0.848108 0.385389
vt 0.864160 0.363585
vt 0.848108 0.341782
vt 0.886828 0.385389
vt 0.901090 0.366017
vt 0.886828 0.346645
vt 0.137559 0.262481
vt 0.100909 0.238942
vt 0.100909 0.262481
vt 0.078404 0.540301
vt 0.212958 0.626721
vt 0.212958 0.540301
vt 0.603375 0.268844
vt 0.664747 0.293318
vt 0.664747 0.268844
vt 0.723611 0.530374
vt 0.632808 0.458489
vt 0.632808 0.530374
vt 0.084582 0.453164
vt 0.003906 0.389295
vt 0.003906 0.453164
vt 0.216812 0.210262
vt 0.130347 0.191348
vt 0.130347 0.210262
vt 0.077618 0.234536
vt 0.003906 0.214168
vt 0.003906 0.234536
vt 0.003906 0.630627
vt 0.568362 0.754102
vt 0.568362 0.630627
vt 0.400038 0.214552
vt 0.472362 0.234536
vt 0.472362 0.214552
vt 0.411508 0.453164
vt 0.432242 0.424003
vt 0.411508 0.394842
vt 0.601366 0.453164
vt 0.619787 0.427255
vt 0.601366 0.401346
vt 0.053368 0.262481
vt 0.003906 0.238442
vt 0.003906 0.262481
vt 0.758869 0.657652
vt 0.957323 0.754102
vt 0.957323 0.657652
vt 0.761515 0.269066
vt 0.842853 0.293318
vt 0.842853 0.269066
vt 0.670648 0.754102
vt 0.591196 0.650058
vt 0.591196 0.754102
vt 0.074498 0.626721
vt 0.003906 0.534280
vt 0.003906 0.626721
vt 0.971070 0.234536
vt 0.892771 0.214961
vt 0.892771 0.234536
vt 0.908338 0.262481
vt 0.801142 0.242016
vt 0.801142 0.262481
vt 0.003906 0.297224
vt 0.144203 0.332298
vt 0.144203 0.297224
vt 0.476268 0.214570
vt 0.580854 0.234536
vt 0.580854 0.214570
vt 0.610546 0.626721
vt 0.623923 0.586191
vt 0.610546 0.545660
vt 0.617017 0.530374
vt 0.628902 0.494363
vt 0.617017 0.458353
vt 0.473140 0.293318
vt 0.411933 0.268380
vt 0.411933 0.293318
vt 0.351379 0.293318
vt 0.289164 0.267970
vt 0.289164 0.293318
vt 0.846759 0.269154
vt 0.959401 0.293318
vt 0.959401 0.269154
vt 0.722415 0.626721
vt 0.627829 0.547269
vt 0.627829 0.626721
vt 0.811554 0.530374
vt 0.727517 0.459782
vt 0.727517 0.530374
vt 0.407602 0.453164
vt 0.124284 0.393667
vt 0.124284 0.453164
vt 0.162805 0.234536
vt 0.081524 0.214216
vt 0.081524 0.234536
vt 0.795336 0.214895
vt 0.888864 0.234536
vt 0.888864 0.214895
vt 0.584760 0.214585
vt 0.664563 0.234536
vt 0.664563 0.214585
vt 0.088488 0.453164
vt 0.105878 0.421328
vt 0.088488 0.389492
vt 0.568691 0.453164
vt 0.584141 0.424878
vt 0.568691 0.396593
vt 0.408026 0.293318
vt 0.355285 0.268035
vt 0.355285 0.293318
vt 0.477046 0.268705
vt 0.528390 0.293318
vt 0.528390 0.268705
vt 0.668653 0.269023
vt 0.757609 0.293318
vt 0.757609 0.269023
vt 0.564785 0.453164
vt 0.436148 0.396412
vt 0.436148 0.453164
vt 0.864851 0.453164
vt 0.750561 0.402741
vt 0.750561 0.453164
vt 0.857226 0.996094
vt 0.034200 0.869009
vt 0.034200 0.996094
vt 0.279656 0.234536
vt 0.222353 0.214480
vt 0.222353 0.234536
vt 0.003906 0.191341
vt 0.126441 0.210262
vt 0.126441 0.191341
vt 0.338965 0.214528
vt 0.396131 0.234536
vt 0.396131 0.214528
vt 0.690725 0.385389
vt 0.707445 0.361579
vt 0.690725 0.337769
vt 0.868066 0.385389
vt 0.882922 0.364234
vt 0.868066 0.343079
vt 0.932377 0.530374
vt 0.815460 0.460495
vt 0.815460 0.530374
vt 0.057275 0.238736
vt 0.097003 0.262481
vt 0.097003 0.238736
vt 0.532296 0.268788
vt 0.599468 0.293318
vt 0.599468 0.268788
vt 0.905051 0.169908
vt 0.900902 0.163874
vt 0.900902 0.169908
vt 0.587290 0.754102
vt 0.582060 0.649517
vt 0.582060 0.754102
vt 0.913091 0.169908
vt 0.908957 0.163896
vt 0.908957 0.169908
vt 0.578154 0.754102
vt 0.572268 0.636389
vt 0.572268 0.754102
vt 0.608901 0.262481
vt 0.141466 0.239109
vt 0.141466 0.262481
vt 0.692226 0.162649
vt 0.837415 0.169908
vt 0.837415 0.162649
vt 0.424367 0.156019
vt 0.382730 0.151392
vt 0.382730 0.156019
vt 0.171639 0.147221
vt 0.133822 0.144532
vt 0.133822 0.147221
vt 0.431781 0.332298
vt 0.148109 0.300779
vt 0.148109 0.332298
vt 0.821160 0.156019
vt 0.778596 0.152992
vt 0.778596 0.156019
vt 0.151379 0.156019
vt 0.148300 0.151208
vt 0.148300 0.156019
vt 0.003906 0.151127
vt 0.007037 0.156019
vt 0.007037 0.151127
vt 0.333131 0.156019
vt 0.290735 0.151308
vt 0.290735 0.156019
vt 0.213362 0.147221
vt 0.175545 0.144532
vt 0.175545 0.147221
vt 0.968795 0.332298
vt 0.713986 0.303986
vt 0.713986 0.332298
vt 0.867629 0.156019
vt 0.825066 0.152992
vt 0.825066 0.156019
vt 0.165348 0.156019
vt 0.162270 0.151210
vt 0.162270 0.156019
vt 0.017980 0.151127
vt 0.021111 0.156019
vt 0.021111 0.151127
vt 0.240371 0.156019
vt 0.197187 0.151221
vt 0.197187 0.156019
vt 0.255085 0.147221
vt 0.217268 0.144532
vt 0.217268 0.147221
vt 0.797236 0.262481
vt 0.612807 0.241989
vt 0.612807 0.262481
vt 0.914099 0.156019
vt 0.871536 0.152992
vt 0.871536 0.156019
vt 0.179315 0.156019
vt 0.176238 0.151211
vt 0.176238 0.156019
vt 0.032054 0.151127
vt 0.035184 0.156019
vt 0.035184 0.151127
vt 0.097145 0.156019
vt 0.053164 0.151132
vt 0.053164 0.156019
vt 0.129916 0.147221
vt 0.092099 0.144532
vt 0.092099 0.147221
vt 0.896996 0.169908
vt 0.841322 0.163722
vt 0.841322 0.169908
vt 0.774690 0.156019
vt 0.732126 0.152992
vt 0.732126 0.156019
vt 0.193281 0.156019
vt 0.190204 0.151212
vt 0.190204 0.156019
vt 0.046127 0.151127
vt 0.049258 0.156019
vt 0.049258 0.151127
vt 0.882162 0.210262
vt 0.715337 0.191726
vt 0.715337 0.210262
vt 0.088193 0.147221
vt 0.050376 0.144532
vt 0.050376 0.147221
vt 0.144394 0.156019
vt 0.101051 0.151203
vt 0.101051 0.156019
vt 0.728220 0.156019
vt 0.685657 0.152992
vt 0.685657 0.156019
vt 0.186298 0.156019
vt 0.183221 0.151211
vt 0.183221 0.156019
vt 0.039090 0.151127
vt 0.042221 0.156019
vt 0.042221 0.151127
vt 0.246280 0.293318
vt 0.003906 0.266387
vt 0.003906 0.293318
vt 0.296808 0.147221
vt 0.258991 0.144532
vt 0.258991 0.147221
vt 0.286829 0.156019
vt 0.244277 0.151291
vt 0.244277 0.156019
vt 0.960569 0.156019
vt 0.918005 0.152992
vt 0.918005 0.156019
vt 0.172332 0.156019
vt 0.169254 0.151210
vt 0.169254 0.156019
vt 0.025017 0.151127
vt 0.028147 0.156019
vt 0.028147 0.151127
vt 0.710080 0.332298
vt 0.435687 0.301810
vt 0.435687 0.332298
vt 0.338531 0.147221
vt 0.300715 0.144532
vt 0.300715 0.147221
vt 0.378824 0.156019
vt 0.337038 0.151376
vt 0.337038 0.156019
vt 0.046470 0.147221
vt 0.003906 0.144194
vt 0.003906 0.147221
vt 0.158364 0.156019
vt 0.155285 0.151208
vt 0.155285 0.156019
vt 0.010943 0.151127
vt 0.014074 0.156019
vt 0.014074 0.151127
vt 0.274189 0.187435
vt 0.158575 0.174428
vt 0.158575 0.187435
vt 0.939842 0.187435
vt 0.832274 0.177014
vt 0.832274 0.187435
vt 0.124976 0.187435
vt 0.003906 0.173815
vt 0.003906 0.187435
vt 0.411590 0.187435
vt 0.290521 0.175706
vt 0.290521 0.187435
vt 0.140580 0.187435
vt 0.128882 0.173851
vt 0.128882 0.187435
vt 0.886068 0.196576
vt 0.897854 0.210262
vt 0.897854 0.196576
vt 0.154669 0.187435
vt 0.144486 0.174343
vt 0.144486 0.187435
vt 0.597459 0.453164
vt 0.588047 0.396859
vt 0.588047 0.453164
vt 0.754963 0.754102
vt 0.674554 0.650720
vt 0.674554 0.754102
vt 0.120378 0.453164
vt 0.109784 0.389791
vt 0.109784 0.453164
vt 0.606640 0.626721
vt 0.216864 0.542948
vt 0.216864 0.626721
vt 0.901760 0.196626
vt 0.965206 0.210262
vt 0.965206 0.196626
vt 0.504407 0.187435
vt 0.415497 0.175706
vt 0.415497 0.187435
vt 0.688319 0.169908
vt 0.609324 0.162513
vt 0.609324 0.169908
vt 0.828368 0.187435
vt 0.742979 0.176171
vt 0.742979 0.187435
vt 0.532126 0.169908
vt 0.443216 0.161585
vt 0.443216 0.169908
vt 0.516618 0.187435
vt 0.508313 0.175732
vt 0.508313 0.187435
vt 0.278095 0.175431
vt 0.286615 0.187435
vt 0.286615 0.175431
vt 0.617226 0.156019
vt 0.614111 0.152515
vt 0.614111 0.156019
vt 0.939576 0.530374
vt 0.936283 0.464502
vt 0.936283 0.530374
vt 0.657382 0.156019
vt 0.654390 0.152652
vt 0.654390 0.156019
vt 0.730028 0.626721
vt 0.726321 0.552581
vt 0.726321 0.626721
vt 0.711430 0.210262
vt 0.339716 0.191676
vt 0.339716 0.210262
vt 0.461571 0.152016
vt 0.541622 0.156019
vt 0.541622 0.152016
vt 0.719023 0.147221
vt 0.708438 0.146066
vt 0.708438 0.147221
vt 0.784716 0.147221
vt 0.770905 0.146244
vt 0.770905 0.147221
vt 0.969628 0.169908
vt 0.916997 0.164167
vt 0.916997 0.169908
vt 0.802434 0.147221
vt 0.788622 0.146244
vt 0.788622 0.147221
vt 0.728788 0.147221
vt 0.727812 0.146070
vt 0.727812 0.147221
vt 0.698672 0.146060
vt 0.699649 0.147221
vt 0.699649 0.146060
vt 0.602008 0.156019
vt 0.569349 0.152456
vt 0.569349 0.156019
vt 0.820151 0.147221
vt 0.806340 0.146244
vt 0.806340 0.147221
vt 0.685000 0.147221
vt 0.674296 0.146053
vt 0.674296 0.147221
vt 0.837869 0.147221
vt 0.824058 0.146244
vt 0.824058 0.147221
vt 0.723905 0.147221
vt 0.722929 0.146070
vt 0.722929 0.147221
vt 0.703555 0.146060
vt 0.704531 0.147221
vt 0.704531 0.146060
vt 0.605418 0.169908
vt 0.536033 0.162339
vt 0.536033 0.169908
vt 0.855587 0.147221
vt 0.841775 0.146244
vt 0.841775 0.147221
vt 0.752903 0.147221
vt 0.742460 0.146082
vt 0.742460 0.147221
vt 0.873304 0.147221
vt 0.859493 0.146244
vt 0.859493 0.147221
vt 0.733671 0.147221
vt 0.732695 0.146070
vt 0.732695 0.147221
vt 0.693789 0.146060
vt 0.694766 0.147221
vt 0.694766 0.146060
vt 0.249445 0.169908
vt 0.164696 0.160663
vt 0.164696 0.169908
vt 0.891022 0.147221
vt 0.877211 0.146244
vt 0.877211 0.147221
vt 0.766998 0.147221
vt 0.756809 0.146109
vt 0.756809 0.147221
vt 0.160790 0.169908
vt 0.003906 0.159925
vt 0.003906 0.169908
vt 0.738554 0.147221
vt 0.737577 0.146070
vt 0.737577 0.147221
vt 0.688906 0.146060
vt 0.689883 0.147221
vt 0.689883 0.146060
vt 0.552695 0.147221
vt 0.525561 0.145774
vt 0.525561 0.147221
vt 0.612155 0.147221
vt 0.586943 0.145876
vt 0.586943 0.147221
vt 0.419409 0.147221
vt 0.391033 0.145707
vt 0.391033 0.147221
vt 0.451690 0.147221
vt 0.423315 0.145707
vt 0.423315 0.147221
vt 0.349405 0.147221
vt 0.347876 0.145691
vt 0.347876 0.147221
vt 0.520161 0.145727
vt 0.521654 0.147221
vt 0.521654 0.145727
vt 0.673620 0.156019
vt 0.669284 0.152767
vt 0.669284 0.156019
vt 0.557502 0.156019
vt 0.553469 0.152321
vt 0.553469 0.156019
vt 0.642041 0.156019
vt 0.637500 0.152614
vt 0.637500 0.156019
vt 0.441260 0.156019
vt 0.436720 0.151857
vt 0.436720 0.156019
vt 0.625411 0.156019
vt 0.621132 0.152518
vt 0.621132 0.156019
vt 0.661288 0.152673
vt 0.665377 0.156019
vt 0.665377 0.152673
vt 0.424490 0.169908
vt 0.253351 0.160781
vt 0.253351 0.169908
vt 0.641272 0.147221
vt 0.616061 0.145876
vt 0.616061 0.147221
vt 0.387127 0.147221
vt 0.358744 0.145707
vt 0.358744 0.147221
vt 0.483972 0.147221
vt 0.455597 0.145707
vt 0.455597 0.147221
vt 0.354838 0.147221
vt 0.353311 0.145694
vt 0.353311 0.147221
vt 0.973534 0.164303
vt 0.979140 0.169908
vt 0.979140 0.164303
vt 0.939522 0.262481
vt 0.912244 0.242023
vt 0.912244 0.262481
vt 0.549562 0.156019
vt 0.545528 0.152321
vt 0.545528 0.156019
vt 0.650483 0.156019
vt 0.645947 0.152616
vt 0.645947 0.156019
vt 0.432814 0.156019
vt 0.428273 0.151857
vt 0.428273 0.156019
vt 0.633594 0.156019
vt 0.629317 0.152520
vt 0.629317 0.156019
vt 0.428396 0.160979
vt 0.439310 0.169908
vt 0.439310 0.160979
vt 0.739073 0.187435
vt 0.520525 0.175779
vt 0.520525 0.187435
vt 0.670390 0.147221
vt 0.645178 0.145876
vt 0.645178 0.147221
vt 0.583037 0.147221
vt 0.556602 0.145811
vt 0.556602 0.147221
vt 0.516254 0.147221
vt 0.487879 0.145707
vt 0.487879 0.147221
vt 0.343970 0.147221
vt 0.342438 0.145689
vt 0.342438 0.147221
vt 0.453613 0.151967
vt 0.457664 0.156019
vt 0.457664 0.151967
vt 0.285258 0.293318
vt 0.250186 0.267014
vt 0.250186 0.293318
vt 0.565442 0.156019
vt 0.561409 0.152321
vt 0.561409 0.156019
vt 0.681750 0.156019
vt 0.677526 0.152851
vt 0.677526 0.156019
vt 0.449706 0.156019
vt 0.445166 0.151857
vt 0.445166 0.156019
vt 0.610205 0.156019
vt 0.605914 0.152508
vt 0.605914 0.156019
vt 0.983046 0.164575
vt 0.989564 0.169908
vt 0.989564 0.164575
vt 0.719246 0.338739
vt 0.030293 0.784560
vt 0.731047 0.338739
vt 0.015811 0.758008
vt 0.686818 0.336495
vt 0.003906 0.385389
vt 0.072131 0.530374
vt 0.108196 0.530374
vt 0.144261 0.530374
vt 0.180327 0.530374
vt 0.216392 0.530374
vt 0.252458 0.530374
vt 0.288523 0.530374
vt 0.324588 0.530374
vt 0.360654 0.530374
vt 0.396719 0.530374
vt 0.432784 0.530374
vt 0.468850 0.530374
vt 0.504915 0.530374
vt 0.540980 0.530374
vt 0.577046 0.530374
vt 0.613111 0.530374
vt 0.766093 0.626721
vt 0.802159 0.626721
vt 0.838224 0.626721
vt 0.874289 0.626721
vt 0.910355 0.626721
vt 0.946420 0.626721
vt 0.982486 0.626721
vt 0.036065 0.530374
vt 0.746654 0.402087
vt 0.844202 0.340009
vt 0.335810 0.191670
vt 0.218446 0.214417
vt 0.668469 0.234536
vt 0.283562 0.234536
vt 0.137559 0.238942
vt 0.078404 0.626721
vt 0.603375 0.293318
vt 0.723611 0.458489
vt 0.084582 0.389295
vt 0.216812 0.191348
vt 0.077618 0.214168
vt 0.003906 0.754102
vt 0.400038 0.234536
vt 0.053368 0.238442
vt 0.758869 0.754102
vt 0.761515 0.293318
vt 0.670648 0.650058
vt 0.074498 0.534280
vt 0.971070 0.214961
vt 0.908338 0.242016
vt 0.003906 0.332298
vt 0.476268 0.234536
vt 0.473140 0.268380
vt 0.351379 0.267970
vt 0.846759 0.293318
vt 0.722415 0.547269
vt 0.811554 0.459782
vt 0.407602 0.393667
vt 0.162805 0.214216
vt 0.795336 0.234536
vt 0.584760 0.234536
vt 0.408026 0.268035
vt 0.477046 0.293318
vt 0.668653 0.293318
vt 0.564785 0.396412
vt 0.864851 0.402741
vt 0.857226 0.869009
vt 0.279656 0.214480
vt 0.003906 0.210262
vt 0.338965 0.234536
vt 0.932377 0.460495
vt 0.057275 0.262481
vt 0.532296 0.293318
vt 0.905051 0.163874
vt 0.587290 0.649517
vt 0.913091 0.163896
vt 0.578154 0.636389
vt 0.608901 0.239109
vt 0.692226 0.169908
vt 0.424367 0.151392
vt 0.171639 0.144532
vt 0.431781 0.300779
vt 0.821160 0.152992
vt 0.151379 0.151208
vt 0.003906 0.156019
vt 0.333131 0.151308
vt 0.213362 0.144532
vt 0.968795 0.303986
vt 0.867629 0.152992
vt 0.165348 0.151210
vt 0.017980 0.156019
vt 0.240371 0.151221
vt 0.255085 0.144532
vt 0.797236 0.241989
vt 0.914099 0.152992
vt 0.179315 0.151211
vt 0.032054 0.156019
vt 0.097145 0.151132
vt 0.129916 0.144532
vt 0.896996 0.163722
vt 0.774690 0.152992
vt 0.193281 0.151212
vt 0.046127 0.156019
vt 0.882162 0.191726
vt 0.088193 0.144532
vt 0.144394 0.151203
vt 0.728220 0.152992
vt 0.186298 0.151211
vt 0.039090 0.156019
vt 0.246280 0.266387
vt 0.296808 0.144532
vt 0.286829 0.151291
vt 0.960569 0.152992
vt 0.172332 0.151210
vt 0.025017 0.156019
vt 0.710080 0.301810
vt 0.338531 0.144532
vt 0.378824 0.151376
vt 0.046470 0.144194
vt 0.158364 0.151208
vt 0.010943 0.156019
vt 0.274189 0.174428
vt 0.939842 0.177014
vt 0.124976 0.173815
vt 0.411590 0.175706
vt 0.140580 0.173851
vt 0.886068 0.210262
vt 0.154669 0.174343
vt 0.597459 0.396859
vt 0.754963 0.650720
vt 0.120378 0.389791
vt 0.606640 0.542948
vt 0.901760 0.210262
vt 0.504407 0.175706
vt 0.688319 0.162513
vt 0.828368 0.176171
vt 0.532126 0.161585
vt 0.516618 0.175732
vt 0.278095 0.187435
vt 0.617226 0.152515
vt 0.939576 0.464502
vt 0.657382 0.152652
vt 0.730028 0.552581
vt 0.711430 0.191676
vt 0.461571 0.156019
vt 0.719023 0.146066
vt 0.784716 0.146244
vt 0.969628 0.164167
vt 0.802434 0.146244
vt 0.728788 0.146070
vt 0.698672 0.147221
vt 0.602008 0.152456
vt 0.820151 0.146244
vt 0.685000 0.146053
vt 0.837869 0.146244
vt 0.723905 0.146070
vt 0.703555 0.147221
vt 0.605418 0.162339
vt 0.855587 0.146244
vt 0.752903 0.146082
vt 0.873304 0.146244
vt 0.733671 0.146070
vt 0.693789 0.147221
vt 0.249445 0.160663
vt 0.891022 0.146244
vt 0.766998 0.146109
vt 0.160790 0.159925
vt 0.738554 0.146070
vt 0.688906 0.147221
vt 0.552695 0.145774
vt 0.612155 0.145876
vt 0.419409 0.145707
vt 0.451690 0.145707
vt 0.349405 0.145691
vt 0.520161 0.147221
vt 0.673620 0.152767
vt 0.557502 0.152321
vt 0.642041 0.152614
vt 0.441260 0.151857
vt 0.625411 0.152518
vt 0.661288 0.156019
vt 0.424490 0.160781
vt 0.641272 0.145876
vt 0.387127 0.145707
vt 0.483972 0.145707
vt 0.354838 0.145694
vt 0.973534 0.169908
vt 0.939522 0.242023
vt 0.549562 0.152321
vt 0.650483 0.152616
vt 0.432814 0.151857
vt 0.633594 0.152520
vt 0.428396 0.169908
vt 0.739073 0.175779
vt 0.670390 0.145876
vt 0.583037 0.145811
vt 0.516254 0.145707
vt 0.343970 0.145689
vt 0.453613 0.156019
vt 0.285258 0.267014
vt 0.565442 0.152321
vt 0.681750 0.152851
vt 0.449706 0.151857
vt 0.610205 0.152508
vt 0.983046 0.169908
s 0
g RND_WalkBand_EnvironmentBakedAtlas
usemtl EnvironmentBakedAtlas
f 2/1/1 3/2/1 1/3/1
f 4/4/2 7/5/2 3/6/2
f 8/7/3 5/8/3 7/9/3
f 6/10/4 1/11/4 5/12/4
f 7/13/5 1/14/5 3/15/5
f 4/16/6 6/17/6 8/18/6
f 10/19/4 18/20/4 9/21/4
f 11/22/4 19/23/4 10/24/4
f 12/25/4 20/26/4 11/27/4
f 13/28/4 21/29/4 12/30/4
f 14/31/4 22/32/4 13/33/4
f 15/34/4 23/35/4 14/36/4
f 16/37/4 24/38/4 15/39/4
f 17/40/4 25/41/4 16/42/4
f 19/43/4 27/44/4 18/45/4
f 20/46/4 28/47/4 19/48/4
f 21/49/4 29/50/4 20/51/4
f 22/52/4 30/53/4 21/54/4
f 23/55/4 31/56/4 22/57/4
f 24/58/4 32/59/4 23/60/4
f 25/61/4 33/62/4 24/63/4
f 26/64/4 34/65/4 25/66/4
f 28/67/4 36/68/4 27/69/4
f 29/70/4 37/71/4 28/72/4
f 30/73/4 38/74/4 29/75/4
f 31/76/4 39/77/4 30/78/4
f 32/79/4 40/80/4 31/81/4
f 33/82/4 41/83/4 32/84/4
f 34/85/4 42/86/4 33/87/4
f 35/88/4 43/89/4 34/90/4
f 47/91/4 45/92/4 48/93/4
f 50/94/2 52/95/2 49/96/2
f 46/97/1 49/98/1 45/99/1
f 47/100/6 50/101/6 46/102/6
f 48/103/3 51/104/3 47/105/3
f 45/106/5 52/107/5 48/108/5
f 55/109/4 54/110/4 53/111/4
f 56/112/2 57/113/2 58/114/2
f 54/115/7 56/116/7 53/117/7
f 55/118/8 57/119/8 54/120/8
f 53/121/5 58/122/5 55/123/5
f 61/124/4 59/125/4 62/126/4
f 64/127/2 66/128/2 63/129/2
f 60/130/1 63/131/1 59/132/1
f 61/133/6 64/134/6 60/135/6
f 62/136/3 65/137/3 61/138/3
f 59/139/5 66/140/5 62/141/5
f 69/142/4 68/143/4 67/144/4
f 70/145/2 71/146/2 72/147/2
f 68/148/9 70/149/9 67/150/9
f 69/151/10 71/152/10 68/153/10
f 67/154/5 72/155/5 69/156/5
f 75/157/4 73/158/4 76/159/4
f 78/160/2 80/161/2 77/162/2
f 74/163/1 77/164/1 73/165/1
f 75/166/6 78/167/6 74/168/6
f 76/169/3 79/170/3 75/171/3
f 73/172/5 80/173/5 76/174/5
f 83/175/4 82/176/4 81/177/4
f 84/178/2 85/179/2 86/180/2
f 82/181/11 84/182/11 81/183/11
f 83/184/12 85/185/12 82/186/12
f 81/187/5 86/188/5 83/189/5
f 89/190/4 87/191/4 90/192/4
f 92/193/2 94/194/2 91/195/2
f 88/196/1 91/197/1 87/198/1
f 89/199/6 92/200/6 88/201/6
f 90/202/3 93/203/3 89/204/3
f 87/205/5 94/206/5 90/207/5
f 97/208/4 96/209/4 95/210/4
f 98/211/2 99/212/2 100/213/2
f 96/214/13 98/215/13 95/216/13
f 97/217/14 99/218/14 96/219/14
f 95/220/5 100/221/5 97/222/5
f 103/223/4 101/224/4 104/225/4
f 106/226/2 108/227/2 105/228/2
f 102/229/1 105/230/1 101/231/1
f 103/232/6 106/233/6 102/234/6
f 104/235/3 107/236/3 103/237/3
f 101/238/5 108/239/5 104/240/5
f 111/241/4 110/242/4 109/243/4
f 112/244/2 113/245/2 114/246/2
f 110/247/15 112/248/15 109/249/15
f 111/250/16 113/251/16 110/252/16
f 109/253/5 114/254/5 111/255/5
f 116/256/1 117/257/1 115/258/1
f 118/259/2 121/260/2 117/261/2
f 122/262/3 119/263/3 121/264/3
f 120/265/4 115/266/4 119/267/4
f 121/268/5 115/269/5 117/270/5
f 118/271/6 120/272/6 122/273/6
f 124/274/1 125/275/1 123/276/1
f 126/277/2 129/278/2 125/279/2
f 130/280/3 127/281/3 129/282/3
f 128/283/4 123/284/4 127/285/4
f 129/286/5 123/287/5 125/288/5
f 126/289/6 128/290/6 130/291/6
f 132/292/1 133/293/1 131/294/1
f 134/295/2 137/296/2 133/297/2
f 138/298/3 135/299/3 137/300/3
f 136/301/4 131/302/4 135/303/4
f 137/304/5 131/305/5 133/306/5
f 134/307/6 136/308/6 138/309/6
f 140/310/1 141/311/1 139/312/1
f 142/313/2 145/314/2 141/315/2
f 146/316/3 143/317/3 145/318/3
f 144/319/4 139/320/4 143/321/4
f 145/322/5 139/323/5 141/324/5
f 142/325/6 144/326/6 146/327/6
f 148/328/1 149/329/1 147/330/1
f 150/331/2 153/332/2 149/333/2
f 154/334/3 151/335/3 153/336/3
f 152/337/4 147/338/4 151/339/4
f 153/340/5 147/341/5 149/342/5
f 150/343/6 152/344/6 154/345/6
f 156/346/1 157/347/1 155/348/1
f 158/349/2 161/350/2 157/351/2
f 162/352/3 159/353/3 161/354/3
f 160/355/4 155/356/4 159/357/4
f 161/358/5 155/359/5 157/360/5
f 158/361/6 160/362/6 162/363/6
f 164/364/1 165/365/1 163/366/1
f 166/367/2 169/368/2 165/369/2
f 170/370/3 167/371/3 169/372/3
f 168/373/4 163/374/4 167/375/4
f 169/376/5 163/377/5 165/378/5
f 166/379/6 168/380/6 170/381/6
f 172/382/1 173/383/1 171/384/1
f 174/385/2 177/386/2 173/387/2
f 178/388/3 175/389/3 177/390/3
f 176/391/4 171/392/4 175/393/4
f 177/394/5 171/395/5 173/396/5
f 174/397/6 176/398/6 178/399/6
f 180/400/1 181/401/1 179/402/1
f 182/403/2 185/404/2 181/405/2
f 186/406/3 183/407/3 185/408/3
f 184/409/4 179/410/4 183/411/4
f 185/412/5 179/413/5 181/414/5
f 182/415/6 184/416/6 186/417/6
f 188/418/1 189/419/1 187/420/1
f 190/421/2 193/422/2 189/423/2
f 194/424/3 191/425/3 193/426/3
f 192/427/4 187/428/4 191/429/4
f 193/430/5 187/431/5 189/432/5
f 190/433/6 192/434/6 194/435/6
f 196/436/1 197/437/1 195/438/1
f 198/439/2 201/440/2 197/441/2
f 202/442/3 199/443/3 201/444/3
f 200/445/4 195/446/4 199/447/4
f 201/448/5 195/449/5 197/450/5
f 198/451/6 200/452/6 202/453/6
f 204/454/1 205/455/1 203/456/1
f 206/457/2 209/458/2 205/459/2
f 210/460/3 207/461/3 209/462/3
f 208/463/4 203/464/4 207/465/4
f 209/466/5 203/467/5 205/468/5
f 206/469/6 208/470/6 210/471/6
f 212/472/1 213/473/1 211/474/1
f 214/475/2 217/476/2 213/477/2
f 218/478/3 215/479/3 217/480/3
f 216/481/4 211/482/4 215/483/4
f 217/484/5 211/485/5 213/486/5
f 214/487/6 216/488/6 218/489/6
f 220/490/1 221/491/1 219/492/1
f 222/493/2 225/494/2 221/495/2
f 226/496/3 223/497/3 225/498/3
f 224/499/4 219/500/4 223/501/4
f 225/502/5 219/503/5 221/504/5
f 222/505/6 224/506/6 226/507/6
f 228/508/1 229/509/1 227/510/1
f 230/511/2 233/512/2 229/513/2
f 234/514/3 231/515/3 233/516/3
f 232/517/4 227/518/4 231/519/4
f 233/520/5 227/521/5 229/522/5
f 230/523/6 232/524/6 234/525/6
f 236/526/1 237/527/1 235/528/1
f 238/529/2 241/530/2 237/531/2
f 242/532/3 239/533/3 241/534/3
f 240/535/4 235/536/4 239/537/4
f 241/538/5 235/539/5 237/540/5
f 238/541/6 240/542/6 242/543/6
f 244/544/1 245/545/1 243/546/1
f 246/547/2 249/548/2 245/549/2
f 250/550/3 247/551/3 249/552/3
f 248/553/4 243/554/4 247/555/4
f 249/556/5 243/557/5 245/558/5
f 246/559/6 248/560/6 250/561/6
f 252/562/1 253/563/1 251/564/1
f 254/565/2 257/566/2 253/567/2
f 258/568/3 255/569/3 257/570/3
f 256/571/4 251/572/4 255/573/4
f 257/574/5 251/575/5 253/576/5
f 254/577/6 256/578/6 258/579/6
f 260/580/1 261/581/1 259/582/1
f 262/583/2 265/584/2 261/585/2
f 266/586/3 263/587/3 265/588/3
f 264/589/4 259/590/4 263/591/4
f 265/592/5 259/593/5 261/594/5
f 262/595/6 264/596/6 266/597/6
f 268/598/1 269/599/1 267/600/1
f 270/601/2 273/602/2 269/603/2
f 274/604/3 271/605/3 273/606/3
f 272/607/4 267/608/4 271/609/4
f 273/610/5 267/611/5 269/612/5
f 270/613/6 272/614/6 274/615/6
f 276/616/1 277/617/1 275/618/1
f 278/619/2 281/620/2 277/621/2
f 282/622/3 279/623/3 281/624/3
f 280/625/4 275/626/4 279/627/4
f 281/628/5 275/629/5 277/630/5
f 278/631/6 280/632/6 282/633/6
f 284/634/1 285/635/1 283/636/1
f 286/637/2 289/638/2 285/639/2
f 290/640/3 287/641/3 289/642/3
f 288/643/4 283/644/4 287/645/4
f 289/646/5 283/647/5 285/648/5
f 286/649/6 288/650/6 290/651/6
f 2/1/1 4/652/1 3/2/1
f 4/4/2 8/653/2 7/5/2
f 8/7/3 6/654/3 5/8/3
f 6/10/4 2/655/4 1/11/4
f 7/13/5 5/656/5 1/14/5
f 4/16/6 2/657/6 6/17/6
f 10/19/4 19/658/4 18/20/4
f 11/22/4 20/659/4 19/23/4
f 12/25/4 21/660/4 20/26/4
f 13/28/4 22/661/4 21/29/4
f 14/31/4 23/662/4 22/32/4
f 15/34/4 24/663/4 23/35/4
f 16/37/4 25/664/4 24/38/4
f 17/40/4 26/665/4 25/41/4
f 19/43/4 28/666/4 27/44/4
f 20/46/4 29/667/4 28/47/4
f 21/49/4 30/668/4 29/50/4
f 22/52/4 31/669/4 30/53/4
f 23/55/4 32/670/4 31/56/4
f 24/58/4 33/671/4 32/59/4
f 25/61/4 34/672/4 33/62/4
f 26/64/4 35/673/4 34/65/4
f 28/67/4 37/674/4 36/68/4
f 29/70/4 38/675/4 37/71/4
f 30/73/4 39/676/4 38/74/4
f 31/76/4 40/677/4 39/77/4
f 32/79/4 41/678/4 40/80/4
f 33/82/4 42/679/4 41/83/4
f 34/85/4 43/680/4 42/86/4
f 35/88/4 44/681/4 43/89/4
f 47/91/4 46/682/4 45/92/4
f 50/94/2 51/683/2 52/95/2
f 46/97/1 50/684/1 49/98/1
f 47/100/6 51/685/6 50/101/6
f 48/103/3 52/686/3 51/104/3
f 45/106/5 49/687/5 52/107/5
f 54/115/7 57/688/7 56/116/7
f 55/118/8 58/689/8 57/119/8
f 53/121/5 56/690/5 58/122/5
f 61/124/4 60/691/4 59/125/4
f 64/127/2 65/692/2 66/128/2
f 60/130/1 64/693/1 63/131/1
f 61/133/6 65/694/6 64/134/6
f 62/136/3 66/695/3 65/137/3
f 59/139/5 63/696/5 66/140/5
f 68/148/9 71/697/9 70/149/9
f 69/151/10 72/698/10 71/152/10
f 67/154/5 70/699/5 72/155/5
f 75/157/4 74/700/4 73/158/4
f 78/160/2 79/701/2 80/161/2
f 74/163/1 78/702/1 77/164/1
f 75/166/6 79/703/6 78/167/6
f 76/169/3 80/704/3 79/170/3
f 73/172/5 77/705/5 80/173/5
f 82/181/11 85/706/11 84/182/11
f 83/184/12 86/707/12 85/185/12
f 81/187/5 84/708/5 86/188/5
f 89/190/4 88/709/4 87/191/4
f 92/193/2 93/710/2 94/194/2
f 88/196/1 92/711/1 91/197/1
f 89/199/6 93/712/6 92/200/6
f 90/202/3 94/713/3 93/203/3
f 87/205/5 91/714/5 94/206/5
f 96/214/13 99/715/13 98/215/13
f 97/217/14 100/716/14 99/218/14
f 95/220/5 98/717/5 100/221/5
f 103/223/4 102/718/4 101/224/4
f 106/226/2 107/719/2 108/227/2
f 102/229/1 106/720/1 105/230/1
f 103/232/6 107/721/6 106/233/6
f 104/235/3 108/722/3 107/236/3
f 101/238/5 105/723/5 108/239/5
f 110/247/15 113/724/15 112/248/15
f 111/250/16 114/725/16 113/251/16
f 109/253/5 112/726/5 114/254/5
f 116/256/1 118/727/1 117/257/1
f 118/259/2 122/728/2 121/260/2
f 122/262/3 120/729/3 119/263/3
f 120/265/4 116/730/4 115/266/4
f 121/268/5 119/731/5 115/269/5
f 118/271/6 116/732/6 120/272/6
f 124/274/1 126/733/1 125/275/1
f 126/277/2 130/734/2 129/278/2
f 130/280/3 128/735/3 127/281/3
f 128/283/4 124/736/4 123/284/4
f 129/286/5 127/737/5 123/287/5
f 126/289/6 124/738/6 128/290/6
f 132/292/1 134/739/1 133/293/1
f 134/295/2 138/740/2 137/296/2
f 138/298/3 136/741/3 135/299/3
f 136/301/4 132/742/4 131/302/4
f 137/304/5 135/743/5 131/305/5
f 134/307/6 132/744/6 136/308/6
f 140/310/1 142/745/1 141/311/1
f 142/313/2 146/746/2 145/314/2
f 146/316/3 144/747/3 143/317/3
f 144/319/4 140/748/4 139/320/4
f 145/322/5 143/749/5 139/323/5
f 142/325/6 140/750/6 144/326/6
f 148/328/1 150/751/1 149/329/1
f 150/331/2 154/752/2 153/332/2
f 154/334/3 152/753/3 151/335/3
f 152/337/4 148/754/4 147/338/4
f 153/340/5 151/755/5 147/341/5
f 150/343/6 148/756/6 152/344/6
f 156/346/1 158/757/1 157/347/1
f 158/349/2 162/758/2 161/350/2
f 162/352/3 160/759/3 159/353/3
f 160/355/4 156/760/4 155/356/4
f 161/358/5 159/761/5 155/359/5
f 158/361/6 156/762/6 160/362/6
f 164/364/1 166/763/1 165/365/1
f 166/367/2 170/764/2 169/368/2
f 170/370/3 168/765/3 167/371/3
f 168/373/4 164/766/4 163/374/4
f 169/376/5 167/767/5 163/377/5
f 166/379/6 164/768/6 168/380/6
f 172/382/1 174/769/1 173/383/1
f 174/385/2 178/770/2 177/386/2
f 178/388/3 176/771/3 175/389/3
f 176/391/4 172/772/4 171/392/4
f 177/394/5 175/773/5 171/395/5
f 174/397/6 172/774/6 176/398/6
f 180/400/1 182/775/1 181/401/1
f 182/403/2 186/776/2 185/404/2
f 186/406/3 184/777/3 183/407/3
f 184/409/4 180/778/4 179/410/4
f 185/412/5 183/779/5 179/413/5
f 182/415/6 180/780/6 184/416/6
f 188/418/1 190/781/1 189/419/1
f 190/421/2 194/782/2 193/422/2
f 194/424/3 192/783/3 191/425/3
f 192/427/4 188/784/4 187/428/4
f 193/430/5 191/785/5 187/431/5
f 190/433/6 188/786/6 192/434/6
f 196/436/1 198/787/1 197/437/1
f 198/439/2 202/788/2 201/440/2
f 202/442/3 200/789/3 199/443/3
f 200/445/4 196/790/4 195/446/4
f 201/448/5 199/791/5 195/449/5
f 198/451/6 196/792/6 200/452/6
f 204/454/1 206/793/1 205/455/1
f 206/457/2 210/794/2 209/458/2
f 210/460/3 208/795/3 207/461/3
f 208/463/4 204/796/4 203/464/4
f 209/466/5 207/797/5 203/467/5
f 206/469/6 204/798/6 208/470/6
f 212/472/1 214/799/1 213/473/1
f 214/475/2 218/800/2 217/476/2
f 218/478/3 216/801/3 215/479/3
f 216/481/4 212/802/4 211/482/4
f 217/484/5 215/803/5 211/485/5
f 214/487/6 212/804/6 216/488/6
f 220/490/1 222/805/1 221/491/1
f 222/493/2 226/806/2 225/494/2
f 226/496/3 224/807/3 223/497/3
f 224/499/4 220/808/4 219/500/4
f 225/502/5 223/809/5 219/503/5
f 222/505/6 220/810/6 224/506/6
f 228/508/1 230/811/1 229/509/1
f 230/511/2 234/812/2 233/512/2
f 234/514/3 232/813/3 231/515/3
f 232/517/4 228/814/4 227/518/4
f 233/520/5 231/815/5 227/521/5
f 230/523/6 228/816/6 232/524/6
f 236/526/1 238/817/1 237/527/1
f 238/529/2 242/818/2 241/530/2
f 242/532/3 240/819/3 239/533/3
f 240/535/4 236/820/4 235/536/4
f 241/538/5 239/821/5 235/539/5
f 238/541/6 236/822/6 240/542/6
f 244/544/1 246/823/1 245/545/1
f 246/547/2 250/824/2 249/548/2
f 250/550/3 248/825/3 247/551/3
f 248/553/4 244/826/4 243/554/4
f 249/556/5 247/827/5 243/557/5
f 246/559/6 244/828/6 248/560/6
f 252/562/1 254/829/1 253/563/1
f 254/565/2 258/830/2 257/566/2
f 258/568/3 256/831/3 255/569/3
f 256/571/4 252/832/4 251/572/4
f 257/574/5 255/833/5 251/575/5
f 254/577/6 252/834/6 256/578/6
f 260/580/1 262/835/1 261/581/1
f 262/583/2 266/836/2 265/584/2
f 266/586/3 264/837/3 263/587/3
f 264/589/4 260/838/4 259/590/4
f 265/592/5 263/839/5 259/593/5
f 262/595/6 260/840/6 264/596/6
f 268/598/1 270/841/1 269/599/1
f 270/601/2 274/842/2 273/602/2
f 274/604/3 272/843/3 271/605/3
f 272/607/4 268/844/4 267/608/4
f 273/610/5 271/845/5 267/611/5
f 270/613/6 268/846/6 272/614/6
f 276/616/1 278/847/1 277/617/1
f 278/619/2 282/848/2 281/620/2
f 282/622/3 280/849/3 279/623/3
f 280/625/4 276/850/4 275/626/4
f 281/628/5 279/851/5 275/629/5
f 278/631/6 276/852/6 280/632/6
f 284/634/1 286/853/1 285/635/1
f 286/637/2 290/854/2 289/638/2
f 290/640/3 288/855/3 287/641/3
f 288/643/4 284/856/4 283/644/4
f 289/646/5 287/857/5 283/647/5
f 286/649/6 284/858/6 288/650/6
