# Blender 5.1.2
# www.blender.org
mtllib town_barrel_stack.mtl
o town_barrel_stack
v 0.437731 -0.000000 -0.454061
v 0.488205 0.000000 -0.381975
v 0.488205 0.192000 -0.381975
v 0.437731 0.192000 -0.454061
v 0.511949 -0.000000 -0.406778
v 0.511949 0.192000 -0.406778
v 0.524393 -0.000000 -0.438780
v 0.524393 0.192000 -0.438780
v 0.523645 -0.000000 -0.473107
v 0.523645 0.192000 -0.473107
v 0.509816 -0.000000 -0.504535
v 0.509816 0.192000 -0.504535
v 0.485013 -0.000000 -0.528279
v 0.485013 0.192000 -0.528279
v 0.453012 0.000000 -0.540724
v 0.453012 0.192000 -0.540724
v 0.418684 0.000000 -0.539974
v 0.418684 0.192000 -0.539974
v 0.387256 0.000000 -0.526146
v 0.387256 0.192000 -0.526146
v 0.363512 0.000000 -0.501343
v 0.363512 0.192000 -0.501343
v 0.351068 0.000000 -0.469342
v 0.351068 0.192000 -0.469342
v 0.351817 -0.000000 -0.435014
v 0.351817 0.192000 -0.435014
v 0.365645 -0.000000 -0.403586
v 0.365645 0.192000 -0.403586
v 0.390448 0.000000 -0.379842
v 0.390448 0.192000 -0.379842
v 0.422450 0.000000 -0.367398
v 0.422450 0.192000 -0.367398
v 0.456777 0.000000 -0.368147
v 0.456777 0.192000 -0.368147
v 0.562269 0.000000 -0.345939
v 0.612744 -0.000000 -0.273854
v 0.612744 0.192000 -0.273854
v 0.562269 0.192000 -0.345939
v 0.636487 -0.000000 -0.298657
v 0.636487 0.192000 -0.298657
v 0.648932 -0.000000 -0.330658
v 0.648932 0.192000 -0.330658
v 0.648183 0.000000 -0.364986
v 0.648183 0.192000 -0.364986
v 0.634354 -0.000000 -0.396414
v 0.634354 0.192000 -0.396414
v 0.609551 -0.000000 -0.420158
v 0.609551 0.192000 -0.420158
v 0.577550 -0.000000 -0.432602
v 0.577550 0.192000 -0.432602
v 0.543222 -0.000000 -0.431853
v 0.543222 0.192000 -0.431853
v 0.511794 -0.000000 -0.418025
v 0.511794 0.192000 -0.418025
v 0.488051 0.000000 -0.393222
v 0.488051 0.192000 -0.393222
v 0.475606 0.000000 -0.361220
v 0.475606 0.192000 -0.361220
v 0.476355 0.000000 -0.326893
v 0.476355 0.192000 -0.326893
v 0.490184 0.000000 -0.295465
v 0.490184 0.192000 -0.295465
v 0.514987 0.000000 -0.271721
v 0.514987 0.192000 -0.271721
v 0.546988 -0.000000 -0.259277
v 0.546988 0.192000 -0.259277
v 0.581316 -0.000000 -0.260026
v 0.581316 0.192000 -0.260026
v 0.500000 0.192000 -0.400000
v 0.550475 0.192000 -0.327915
v 0.550475 0.384000 -0.327915
v 0.500000 0.384000 -0.400000
v 0.574218 0.192000 -0.352718
v 0.574218 0.384000 -0.352718
v 0.586663 0.192000 -0.384719
v 0.586663 0.384000 -0.384719
v 0.585914 0.192000 -0.419047
v 0.585914 0.384000 -0.419047
v 0.572085 0.192000 -0.450475
v 0.572085 0.384000 -0.450475
v 0.547282 0.192000 -0.474218
v 0.547282 0.384000 -0.474218
v 0.515281 0.192000 -0.486663
v 0.515281 0.384000 -0.486663
v 0.480953 0.192000 -0.485914
v 0.480953 0.384000 -0.485914
v 0.449525 0.192000 -0.472085
v 0.449525 0.384000 -0.472085
v 0.425782 0.192000 -0.447282
v 0.425782 0.384000 -0.447282
v 0.413337 0.192000 -0.415281
v 0.413337 0.384000 -0.415281
v 0.414086 0.192000 -0.380953
v 0.414086 0.384000 -0.380953
v 0.427914 0.192000 -0.349525
v 0.427914 0.384000 -0.349525
v 0.452718 0.192000 -0.325782
v 0.452718 0.384000 -0.325782
v 0.484719 0.192000 -0.313337
v 0.484719 0.384000 -0.313337
v 0.519047 0.192000 -0.314086
v 0.519047 0.384000 -0.314086
v 0.437731 0.024000 -0.454061
v 0.490500 0.024000 -0.378699
v 0.490500 0.040000 -0.378699
v 0.437731 0.040000 -0.454061
v 0.515323 0.024000 -0.404629
v 0.515323 0.040000 -0.404629
v 0.528333 0.024000 -0.438085
v 0.528333 0.040000 -0.438085
v 0.527550 0.024000 -0.473973
v 0.527550 0.040000 -0.473973
v 0.513093 0.024000 -0.506830
v 0.513093 0.040000 -0.506830
v 0.487162 0.024000 -0.531653
v 0.487162 0.040000 -0.531653
v 0.453706 0.024000 -0.544663
v 0.453706 0.040000 -0.544663
v 0.417818 0.024000 -0.543880
v 0.417818 0.040000 -0.543880
v 0.384962 0.024000 -0.529423
v 0.384962 0.040000 -0.529423
v 0.360139 0.024000 -0.503492
v 0.360139 0.040000 -0.503492
v 0.347128 0.024000 -0.470036
v 0.347128 0.040000 -0.470036
v 0.347912 0.024000 -0.434148
v 0.347912 0.040000 -0.434148
v 0.362369 0.024000 -0.401292
v 0.362369 0.040000 -0.401292
v 0.388299 0.024000 -0.376469
v 0.388299 0.040000 -0.376469
v 0.421755 0.024000 -0.363458
v 0.421755 0.040000 -0.363458
v 0.457643 0.024000 -0.364242
v 0.457643 0.040000 -0.364242
v 0.437731 0.152000 -0.454061
v 0.490500 0.152000 -0.378699
v 0.490500 0.168000 -0.378699
v 0.437731 0.168000 -0.454061
v 0.515323 0.152000 -0.404629
v 0.515323 0.168000 -0.404629
v 0.528333 0.152000 -0.438085
v 0.528333 0.168000 -0.438085
v 0.527550 0.152000 -0.473973
v 0.527550 0.168000 -0.473973
v 0.513093 0.152000 -0.506830
v 0.513093 0.168000 -0.506830
v 0.487162 0.152000 -0.531653
v 0.487162 0.168000 -0.531653
v 0.453706 0.152000 -0.544663
v 0.453706 0.168000 -0.544663
v 0.417818 0.152000 -0.543880
v 0.417818 0.168000 -0.543880
v 0.384962 0.152000 -0.529423
v 0.384962 0.168000 -0.529423
v 0.360139 0.152000 -0.503492
v 0.360139 0.168000 -0.503492
v 0.347128 0.152000 -0.470036
v 0.347128 0.168000 -0.470036
v 0.347912 0.152000 -0.434148
v 0.347912 0.168000 -0.434148
v 0.362369 0.152000 -0.401292
v 0.362369 0.168000 -0.401292
v 0.388299 0.152000 -0.376469
v 0.388299 0.168000 -0.376469
v 0.421755 0.152000 -0.363458
v 0.421755 0.168000 -0.363458
v 0.457643 0.152000 -0.364242
v 0.457643 0.168000 -0.364242
v 0.562269 0.024000 -0.345939
v 0.615038 0.024000 -0.270577
v 0.615038 0.040000 -0.270577
v 0.562269 0.040000 -0.345939
v 0.639861 0.024000 -0.296508
v 0.639861 0.040000 -0.296508
v 0.652872 0.024000 -0.329964
v 0.652872 0.040000 -0.329964
v 0.652088 0.024000 -0.365852
v 0.652088 0.040000 -0.365852
v 0.637631 0.024000 -0.398708
v 0.637631 0.040000 -0.398708
v 0.611700 0.024000 -0.423531
v 0.611700 0.040000 -0.423531
v 0.578245 0.024000 -0.436542
v 0.578245 0.040000 -0.436542
v 0.542357 0.024000 -0.435759
v 0.542357 0.040000 -0.435759
v 0.509500 0.024000 -0.421301
v 0.509500 0.040000 -0.421301
v 0.484677 0.024000 -0.395371
v 0.484677 0.040000 -0.395371
v 0.471666 0.024000 -0.361915
v 0.471666 0.040000 -0.361915
v 0.472450 0.024000 -0.326027
v 0.472450 0.040000 -0.326027
v 0.486907 0.024000 -0.293170
v 0.486907 0.040000 -0.293170
v 0.512837 0.024000 -0.268348
v 0.512837 0.040000 -0.268348
v 0.546293 0.024000 -0.255337
v 0.546293 0.040000 -0.255337
v 0.582181 0.024000 -0.256120
v 0.582181 0.040000 -0.256120
v 0.562269 0.152000 -0.345939
v 0.615038 0.152000 -0.270577
v 0.615038 0.168000 -0.270577
v 0.562269 0.168000 -0.345939
v 0.639861 0.152000 -0.296508
v 0.639861 0.168000 -0.296508
v 0.652872 0.152000 -0.329964
v 0.652872 0.168000 -0.329964
v 0.652088 0.152000 -0.365852
v 0.652088 0.168000 -0.365852
v 0.637631 0.152000 -0.398708
v 0.637631 0.168000 -0.398708
v 0.611700 0.152000 -0.423531
v 0.611700 0.168000 -0.423531
v 0.578245 0.152000 -0.436542
v 0.578245 0.168000 -0.436542
v 0.542357 0.152000 -0.435759
v 0.542357 0.168000 -0.435759
v 0.509500 0.152000 -0.421301
v 0.509500 0.168000 -0.421301
v 0.484677 0.152000 -0.395371
v 0.484677 0.168000 -0.395371
v 0.471666 0.152000 -0.361915
v 0.471666 0.168000 -0.361915
v 0.472450 0.152000 -0.326027
v 0.472450 0.168000 -0.326027
v 0.486907 0.152000 -0.293170
v 0.486907 0.168000 -0.293170
v 0.512837 0.152000 -0.268348
v 0.512837 0.168000 -0.268348
v 0.546293 0.152000 -0.255337
v 0.546293 0.168000 -0.255337
v 0.582181 0.152000 -0.256120
v 0.582181 0.168000 -0.256120
v 0.500000 0.216000 -0.400000
v 0.552769 0.216000 -0.324638
v 0.552769 0.232000 -0.324638
v 0.500000 0.232000 -0.400000
v 0.577592 0.216000 -0.350569
v 0.577592 0.232000 -0.350569
v 0.590602 0.216000 -0.384024
v 0.590602 0.232000 -0.384024
v 0.589819 0.216000 -0.419913
v 0.589819 0.232000 -0.419913
v 0.575362 0.216000 -0.452769
v 0.575362 0.232000 -0.452769
v 0.549431 0.216000 -0.477592
v 0.549431 0.232000 -0.477592
v 0.515976 0.216000 -0.490603
v 0.515976 0.232000 -0.490603
v 0.480087 0.216000 -0.489819
v 0.480087 0.232000 -0.489819
v 0.447231 0.216000 -0.475362
v 0.447231 0.232000 -0.475362
v 0.422408 0.216000 -0.449432
v 0.422408 0.232000 -0.449432
v 0.409397 0.216000 -0.415976
v 0.409397 0.232000 -0.415976
v 0.410181 0.216000 -0.380088
v 0.410181 0.232000 -0.380088
v 0.424638 0.216000 -0.347231
v 0.424638 0.232000 -0.347231
v 0.450568 0.216000 -0.322408
v 0.450568 0.232000 -0.322408
v 0.484024 0.216000 -0.309398
v 0.484024 0.232000 -0.309398
v 0.519912 0.216000 -0.310181
v 0.519912 0.232000 -0.310181
v 0.500000 0.344000 -0.400000
v 0.552769 0.344000 -0.324638
v 0.552769 0.360000 -0.324638
v 0.500000 0.360000 -0.400000
v 0.577592 0.344000 -0.350569
v 0.577592 0.360000 -0.350569
v 0.590602 0.344000 -0.384024
v 0.590602 0.360000 -0.384024
v 0.589819 0.344000 -0.419913
v 0.589819 0.360000 -0.419913
v 0.575362 0.344000 -0.452769
v 0.575362 0.360000 -0.452769
v 0.549431 0.344000 -0.477592
v 0.549431 0.360000 -0.477592
v 0.515976 0.344000 -0.490603
v 0.515976 0.360000 -0.490603
v 0.480087 0.344000 -0.489819
v 0.480087 0.360000 -0.489819
v 0.447231 0.344000 -0.475362
v 0.447231 0.360000 -0.475362
v 0.422408 0.344000 -0.449432
v 0.422408 0.360000 -0.449432
v 0.409397 0.344000 -0.415976
v 0.409397 0.360000 -0.415976
v 0.410181 0.344000 -0.380088
v 0.410181 0.360000 -0.380088
v 0.424638 0.344000 -0.347231
v 0.424638 0.360000 -0.347231
v 0.450568 0.344000 -0.322408
v 0.450568 0.360000 -0.322408
v 0.484024 0.344000 -0.309398
v 0.484024 0.360000 -0.309398
v 0.519912 0.344000 -0.310181
v 0.519912 0.360000 -0.310181
vn 0.4280 -0.6657 0.6113
vn -0.0000 -1.0000 -0.0000
vn 0.6293 -0.6657 0.4009
vn 0.4280 0.6657 0.6113
vn 0.6293 0.6657 0.4009
vn -0.0000 1.0000 -0.0000
vn 0.7349 -0.6657 0.1296
vn 0.7349 0.6657 0.1296
vn 0.7285 -0.6657 -0.1615
vn 0.7285 0.6657 -0.1615
vn 0.6113 -0.6657 -0.4280
vn 0.6113 0.6657 -0.4280
vn 0.4009 -0.6657 -0.6293
vn 0.4009 0.6657 -0.6293
vn 0.1296 -0.6657 -0.7349
vn 0.1296 0.6657 -0.7349
vn -0.1615 -0.6657 -0.7285
vn -0.1615 0.6657 -0.7285
vn -0.4280 -0.6657 -0.6113
vn -0.4280 0.6657 -0.6113
vn -0.6293 -0.6657 -0.4009
vn -0.6293 0.6657 -0.4009
vn -0.7349 -0.6657 -0.1296
vn -0.7349 0.6657 -0.1296
vn -0.7285 -0.6657 0.1615
vn -0.7285 0.6657 0.1615
vn -0.6113 -0.6657 0.4280
vn -0.6113 0.6657 0.4280
vn -0.4009 -0.6657 0.6293
vn -0.4009 0.6657 0.6293
vn -0.1296 -0.6657 0.7349
vn -0.1296 0.6657 0.7349
vn 0.1615 -0.6657 0.7285
vn 0.1615 0.6657 0.7285
vn 0.4280 -0.6657 0.6112
vn 0.4280 0.6657 0.6112
vn 0.6112 -0.6657 -0.4280
vn 0.6112 0.6657 -0.4280
vn -0.4280 -0.6657 -0.6112
vn -0.4280 0.6657 -0.6112
vn -0.6112 -0.6657 0.4280
vn -0.6112 0.6657 0.4280
vt 0.000000 0.000000
s 1
usemtl barrel_wood
f 2/1/1 1/1/2 5/1/3
f 2/1/1 5/1/3 3/1/4
f 3/1/4 5/1/3 6/1/5
f 3/1/4 6/1/5 4/1/6
f 5/1/3 1/1/2 7/1/7
f 5/1/3 7/1/7 6/1/5
f 6/1/5 7/1/7 8/1/8
f 6/1/5 8/1/8 4/1/6
f 7/1/7 1/1/2 9/1/9
f 7/1/7 9/1/9 8/1/8
f 8/1/8 9/1/9 10/1/10
f 8/1/8 10/1/10 4/1/6
f 9/1/9 1/1/2 11/1/11
f 9/1/9 11/1/11 10/1/10
f 10/1/10 11/1/11 12/1/12
f 10/1/10 12/1/12 4/1/6
f 11/1/11 1/1/2 13/1/13
f 11/1/11 13/1/13 12/1/12
f 12/1/12 13/1/13 14/1/14
f 12/1/12 14/1/14 4/1/6
f 13/1/13 1/1/2 15/1/15
f 13/1/13 15/1/15 14/1/14
f 14/1/14 15/1/15 16/1/16
f 14/1/14 16/1/16 4/1/6
f 15/1/15 1/1/2 17/1/17
f 15/1/15 17/1/17 16/1/16
f 16/1/16 17/1/17 18/1/18
f 16/1/16 18/1/18 4/1/6
f 17/1/17 1/1/2 19/1/19
f 17/1/17 19/1/19 18/1/18
f 18/1/18 19/1/19 20/1/20
f 18/1/18 20/1/20 4/1/6
f 19/1/19 1/1/2 21/1/21
f 19/1/19 21/1/21 20/1/20
f 20/1/20 21/1/21 22/1/22
f 20/1/20 22/1/22 4/1/6
f 21/1/21 1/1/2 23/1/23
f 21/1/21 23/1/23 22/1/22
f 22/1/22 23/1/23 24/1/24
f 22/1/22 24/1/24 4/1/6
f 23/1/23 1/1/2 25/1/25
f 23/1/23 25/1/25 24/1/24
f 24/1/24 25/1/25 26/1/26
f 24/1/24 26/1/26 4/1/6
f 25/1/25 1/1/2 27/1/27
f 25/1/25 27/1/27 26/1/26
f 26/1/26 27/1/27 28/1/28
f 26/1/26 28/1/28 4/1/6
f 27/1/27 1/1/2 29/1/29
f 27/1/27 29/1/29 28/1/28
f 28/1/28 29/1/29 30/1/30
f 28/1/28 30/1/30 4/1/6
f 29/1/29 1/1/2 31/1/31
f 29/1/29 31/1/31 30/1/30
f 30/1/30 31/1/31 32/1/32
f 30/1/30 32/1/32 4/1/6
f 31/1/31 1/1/2 33/1/33
f 31/1/31 33/1/33 32/1/32
f 32/1/32 33/1/33 34/1/34
f 32/1/32 34/1/34 4/1/6
f 33/1/33 1/1/2 2/1/1
f 33/1/33 2/1/1 34/1/34
f 34/1/34 2/1/1 3/1/4
f 34/1/34 3/1/4 4/1/6
f 36/1/1 35/1/2 39/1/3
f 36/1/1 39/1/3 37/1/4
f 37/1/4 39/1/3 40/1/5
f 37/1/4 40/1/5 38/1/6
f 39/1/3 35/1/2 41/1/7
f 39/1/3 41/1/7 40/1/5
f 40/1/5 41/1/7 42/1/8
f 40/1/5 42/1/8 38/1/6
f 41/1/7 35/1/2 43/1/9
f 41/1/7 43/1/9 42/1/8
f 42/1/8 43/1/9 44/1/10
f 42/1/8 44/1/10 38/1/6
f 43/1/9 35/1/2 45/1/11
f 43/1/9 45/1/11 44/1/10
f 44/1/10 45/1/11 46/1/12
f 44/1/10 46/1/12 38/1/6
f 45/1/11 35/1/2 47/1/13
f 45/1/11 47/1/13 46/1/12
f 46/1/12 47/1/13 48/1/14
f 46/1/12 48/1/14 38/1/6
f 47/1/13 35/1/2 49/1/15
f 47/1/13 49/1/15 48/1/14
f 48/1/14 49/1/15 50/1/16
f 48/1/14 50/1/16 38/1/6
f 49/1/15 35/1/2 51/1/17
f 49/1/15 51/1/17 50/1/16
f 50/1/16 51/1/17 52/1/18
f 50/1/16 52/1/18 38/1/6
f 51/1/17 35/1/2 53/1/19
f 51/1/17 53/1/19 52/1/18
f 52/1/18 53/1/19 54/1/20
f 52/1/18 54/1/20 38/1/6
f 53/1/19 35/1/2 55/1/21
f 53/1/19 55/1/21 54/1/20
f 54/1/20 55/1/21 56/1/22
f 54/1/20 56/1/22 38/1/6
f 55/1/21 35/1/2 57/1/23
f 55/1/21 57/1/23 56/1/22
f 56/1/22 57/1/23 58/1/24
f 56/1/22 58/1/24 38/1/6
f 57/1/23 35/1/2 59/1/25
f 57/1/23 59/1/25 58/1/24
f 58/1/24 59/1/25 60/1/26
f 58/1/24 60/1/26 38/1/6
f 59/1/25 35/1/2 61/1/27
f 59/1/25 61/1/27 60/1/26
f 60/1/26 61/1/27 62/1/28
f 60/1/26 62/1/28 38/1/6
f 61/1/27 35/1/2 63/1/29
f 61/1/27 63/1/29 62/1/28
f 62/1/28 63/1/29 64/1/30
f 62/1/28 64/1/30 38/1/6
f 63/1/29 35/1/2 65/1/31
f 63/1/29 65/1/31 64/1/30
f 64/1/30 65/1/31 66/1/32
f 64/1/30 66/1/32 38/1/6
f 65/1/31 35/1/2 67/1/33
f 65/1/31 67/1/33 66/1/32
f 66/1/32 67/1/33 68/1/34
f 66/1/32 68/1/34 38/1/6
f 67/1/33 35/1/2 36/1/1
f 67/1/33 36/1/1 68/1/34
f 68/1/34 36/1/1 37/1/4
f 68/1/34 37/1/4 38/1/6
f 70/1/1 69/1/2 73/1/3
f 70/1/1 73/1/3 71/1/4
f 71/1/4 73/1/3 74/1/5
f 71/1/4 74/1/5 72/1/6
f 73/1/3 69/1/2 75/1/7
f 73/1/3 75/1/7 74/1/5
f 74/1/5 75/1/7 76/1/8
f 74/1/5 76/1/8 72/1/6
f 75/1/7 69/1/2 77/1/9
f 75/1/7 77/1/9 76/1/8
f 76/1/8 77/1/9 78/1/10
f 76/1/8 78/1/10 72/1/6
f 77/1/9 69/1/2 79/1/11
f 77/1/9 79/1/11 78/1/10
f 78/1/10 79/1/11 80/1/12
f 78/1/10 80/1/12 72/1/6
f 79/1/11 69/1/2 81/1/13
f 79/1/11 81/1/13 80/1/12
f 80/1/12 81/1/13 82/1/14
f 80/1/12 82/1/14 72/1/6
f 81/1/13 69/1/2 83/1/15
f 81/1/13 83/1/15 82/1/14
f 82/1/14 83/1/15 84/1/16
f 82/1/14 84/1/16 72/1/6
f 83/1/15 69/1/2 85/1/17
f 83/1/15 85/1/17 84/1/16
f 84/1/16 85/1/17 86/1/18
f 84/1/16 86/1/18 72/1/6
f 85/1/17 69/1/2 87/1/19
f 85/1/17 87/1/19 86/1/18
f 86/1/18 87/1/19 88/1/20
f 86/1/18 88/1/20 72/1/6
f 87/1/19 69/1/2 89/1/21
f 87/1/19 89/1/21 88/1/20
f 88/1/20 89/1/21 90/1/22
f 88/1/20 90/1/22 72/1/6
f 89/1/21 69/1/2 91/1/23
f 89/1/21 91/1/23 90/1/22
f 90/1/22 91/1/23 92/1/24
f 90/1/22 92/1/24 72/1/6
f 91/1/23 69/1/2 93/1/25
f 91/1/23 93/1/25 92/1/24
f 92/1/24 93/1/25 94/1/26
f 92/1/24 94/1/26 72/1/6
f 93/1/25 69/1/2 95/1/27
f 93/1/25 95/1/27 94/1/26
f 94/1/26 95/1/27 96/1/28
f 94/1/26 96/1/28 72/1/6
f 95/1/27 69/1/2 97/1/29
f 95/1/27 97/1/29 96/1/28
f 96/1/28 97/1/29 98/1/30
f 96/1/28 98/1/30 72/1/6
f 97/1/29 69/1/2 99/1/31
f 97/1/29 99/1/31 98/1/30
f 98/1/30 99/1/31 100/1/32
f 98/1/30 100/1/32 72/1/6
f 99/1/31 69/1/2 101/1/33
f 99/1/31 101/1/33 100/1/32
f 100/1/32 101/1/33 102/1/34
f 100/1/32 102/1/34 72/1/6
f 101/1/33 69/1/2 70/1/1
f 101/1/33 70/1/1 102/1/34
f 102/1/34 70/1/1 71/1/4
f 102/1/34 71/1/4 72/1/6
usemtl iron_ring
f 104/1/35 103/1/2 107/1/3
f 104/1/35 107/1/3 105/1/36
f 105/1/36 107/1/3 108/1/5
f 105/1/36 108/1/5 106/1/6
f 107/1/3 103/1/2 109/1/7
f 107/1/3 109/1/7 108/1/5
f 108/1/5 109/1/7 110/1/8
f 108/1/5 110/1/8 106/1/6
f 109/1/7 103/1/2 111/1/9
f 109/1/7 111/1/9 110/1/8
f 110/1/8 111/1/9 112/1/10
f 110/1/8 112/1/10 106/1/6
f 111/1/9 103/1/2 113/1/37
f 111/1/9 113/1/37 112/1/10
f 112/1/10 113/1/37 114/1/38
f 112/1/10 114/1/38 106/1/6
f 113/1/37 103/1/2 115/1/13
f 113/1/37 115/1/13 114/1/38
f 114/1/38 115/1/13 116/1/14
f 114/1/38 116/1/14 106/1/6
f 115/1/13 103/1/2 117/1/15
f 115/1/13 117/1/15 116/1/14
f 116/1/14 117/1/15 118/1/16
f 116/1/14 118/1/16 106/1/6
f 117/1/15 103/1/2 119/1/17
f 117/1/15 119/1/17 118/1/16
f 118/1/16 119/1/17 120/1/18
f 118/1/16 120/1/18 106/1/6
f 119/1/17 103/1/2 121/1/39
f 119/1/17 121/1/39 120/1/18
f 120/1/18 121/1/39 122/1/40
f 120/1/18 122/1/40 106/1/6
f 121/1/39 103/1/2 123/1/21
f 121/1/39 123/1/21 122/1/40
f 122/1/40 123/1/21 124/1/22
f 122/1/40 124/1/22 106/1/6
f 123/1/21 103/1/2 125/1/23
f 123/1/21 125/1/23 124/1/22
f 124/1/22 125/1/23 126/1/24
f 124/1/22 126/1/24 106/1/6
f 125/1/23 103/1/2 127/1/25
f 125/1/23 127/1/25 126/1/24
f 126/1/24 127/1/25 128/1/26
f 126/1/24 128/1/26 106/1/6
f 127/1/25 103/1/2 129/1/41
f 127/1/25 129/1/41 128/1/26
f 128/1/26 129/1/41 130/1/42
f 128/1/26 130/1/42 106/1/6
f 129/1/41 103/1/2 131/1/29
f 129/1/41 131/1/29 130/1/42
f 130/1/42 131/1/29 132/1/30
f 130/1/42 132/1/30 106/1/6
f 131/1/29 103/1/2 133/1/31
f 131/1/29 133/1/31 132/1/30
f 132/1/30 133/1/31 134/1/32
f 132/1/30 134/1/32 106/1/6
f 133/1/31 103/1/2 135/1/33
f 133/1/31 135/1/33 134/1/32
f 134/1/32 135/1/33 136/1/34
f 134/1/32 136/1/34 106/1/6
f 135/1/33 103/1/2 104/1/35
f 135/1/33 104/1/35 136/1/34
f 136/1/34 104/1/35 105/1/36
f 136/1/34 105/1/36 106/1/6
f 138/1/35 137/1/2 141/1/3
f 138/1/35 141/1/3 139/1/36
f 139/1/36 141/1/3 142/1/5
f 139/1/36 142/1/5 140/1/6
f 141/1/3 137/1/2 143/1/7
f 141/1/3 143/1/7 142/1/5
f 142/1/5 143/1/7 144/1/8
f 142/1/5 144/1/8 140/1/6
f 143/1/7 137/1/2 145/1/9
f 143/1/7 145/1/9 144/1/8
f 144/1/8 145/1/9 146/1/10
f 144/1/8 146/1/10 140/1/6
f 145/1/9 137/1/2 147/1/37
f 145/1/9 147/1/37 146/1/10
f 146/1/10 147/1/37 148/1/38
f 146/1/10 148/1/38 140/1/6
f 147/1/37 137/1/2 149/1/13
f 147/1/37 149/1/13 148/1/38
f 148/1/38 149/1/13 150/1/14
f 148/1/38 150/1/14 140/1/6
f 149/1/13 137/1/2 151/1/15
f 149/1/13 151/1/15 150/1/14
f 150/1/14 151/1/15 152/1/16
f 150/1/14 152/1/16 140/1/6
f 151/1/15 137/1/2 153/1/17
f 151/1/15 153/1/17 152/1/16
f 152/1/16 153/1/17 154/1/18
f 152/1/16 154/1/18 140/1/6
f 153/1/17 137/1/2 155/1/39
f 153/1/17 155/1/39 154/1/18
f 154/1/18 155/1/39 156/1/40
f 154/1/18 156/1/40 140/1/6
f 155/1/39 137/1/2 157/1/21
f 155/1/39 157/1/21 156/1/40
f 156/1/40 157/1/21 158/1/22
f 156/1/40 158/1/22 140/1/6
f 157/1/21 137/1/2 159/1/23
f 157/1/21 159/1/23 158/1/22
f 158/1/22 159/1/23 160/1/24
f 158/1/22 160/1/24 140/1/6
f 159/1/23 137/1/2 161/1/25
f 159/1/23 161/1/25 160/1/24
f 160/1/24 161/1/25 162/1/26
f 160/1/24 162/1/26 140/1/6
f 161/1/25 137/1/2 163/1/41
f 161/1/25 163/1/41 162/1/26
f 162/1/26 163/1/41 164/1/42
f 162/1/26 164/1/42 140/1/6
f 163/1/41 137/1/2 165/1/29
f 163/1/41 165/1/29 164/1/42
f 164/1/42 165/1/29 166/1/30
f 164/1/42 166/1/30 140/1/6
f 165/1/29 137/1/2 167/1/31
f 165/1/29 167/1/31 166/1/30
f 166/1/30 167/1/31 168/1/32
f 166/1/30 168/1/32 140/1/6
f 167/1/31 137/1/2 169/1/33
f 167/1/31 169/1/33 168/1/32
f 168/1/32 169/1/33 170/1/34
f 168/1/32 170/1/34 140/1/6
f 169/1/33 137/1/2 138/1/35
f 169/1/33 138/1/35 170/1/34
f 170/1/34 138/1/35 139/1/36
f 170/1/34 139/1/36 140/1/6
f 172/1/35 171/1/2 175/1/3
f 172/1/35 175/1/3 173/1/36
f 173/1/36 175/1/3 176/1/5
f 173/1/36 176/1/5 174/1/6
f 175/1/3 171/1/2 177/1/7
f 175/1/3 177/1/7 176/1/5
f 176/1/5 177/1/7 178/1/8
f 176/1/5 178/1/8 174/1/6
f 177/1/7 171/1/2 179/1/9
f 177/1/7 179/1/9 178/1/8
f 178/1/8 179/1/9 180/1/10
f 178/1/8 180/1/10 174/1/6
f 179/1/9 171/1/2 181/1/37
f 179/1/9 181/1/37 180/1/10
f 180/1/10 181/1/37 182/1/38
f 180/1/10 182/1/38 174/1/6
f 181/1/37 171/1/2 183/1/13
f 181/1/37 183/1/13 182/1/38
f 182/1/38 183/1/13 184/1/14
f 182/1/38 184/1/14 174/1/6
f 183/1/13 171/1/2 185/1/15
f 183/1/13 185/1/15 184/1/14
f 184/1/14 185/1/15 186/1/16
f 184/1/14 186/1/16 174/1/6
f 185/1/15 171/1/2 187/1/17
f 185/1/15 187/1/17 186/1/16
f 186/1/16 187/1/17 188/1/18
f 186/1/16 188/1/18 174/1/6
f 187/1/17 171/1/2 189/1/39
f 187/1/17 189/1/39 188/1/18
f 188/1/18 189/1/39 190/1/40
f 188/1/18 190/1/40 174/1/6
f 189/1/39 171/1/2 191/1/21
f 189/1/39 191/1/21 190/1/40
f 190/1/40 191/1/21 192/1/22
f 190/1/40 192/1/22 174/1/6
f 191/1/21 171/1/2 193/1/23
f 191/1/21 193/1/23 192/1/22
f 192/1/22 193/1/23 194/1/24
f 192/1/22 194/1/24 174/1/6
f 193/1/23 171/1/2 195/1/25
f 193/1/23 195/1/25 194/1/24
f 194/1/24 195/1/25 196/1/26
f 194/1/24 196/1/26 174/1/6
f 195/1/25 171/1/2 197/1/41
f 195/1/25 197/1/41 196/1/26
f 196/1/26 197/1/41 198/1/42
f 196/1/26 198/1/42 174/1/6
f 197/1/41 171/1/2 199/1/29
f 197/1/41 199/1/29 198/1/42
f 198/1/42 199/1/29 200/1/30
f 198/1/42 200/1/30 174/1/6
f 199/1/29 171/1/2 201/1/31
f 199/1/29 201/1/31 200/1/30
f 200/1/30 201/1/31 202/1/32
f 200/1/30 202/1/32 174/1/6
f 201/1/31 171/1/2 203/1/33
f 201/1/31 203/1/33 202/1/32
f 202/1/32 203/1/33 204/1/34
f 202/1/32 204/1/34 174/1/6
f 203/1/33 171/1/2 172/1/35
f 203/1/33 172/1/35 204/1/34
f 204/1/34 172/1/35 173/1/36
f 204/1/34 173/1/36 174/1/6
f 206/1/35 205/1/2 209/1/3
f 206/1/35 209/1/3 207/1/36
f 207/1/36 209/1/3 210/1/5
f 207/1/36 210/1/5 208/1/6
f 209/1/3 205/1/2 211/1/7
f 209/1/3 211/1/7 210/1/5
f 210/1/5 211/1/7 212/1/8
f 210/1/5 212/1/8 208/1/6
f 211/1/7 205/1/2 213/1/9
f 211/1/7 213/1/9 212/1/8
f 212/1/8 213/1/9 214/1/10
f 212/1/8 214/1/10 208/1/6
f 213/1/9 205/1/2 215/1/37
f 213/1/9 215/1/37 214/1/10
f 214/1/10 215/1/37 216/1/38
f 214/1/10 216/1/38 208/1/6
f 215/1/37 205/1/2 217/1/13
f 215/1/37 217/1/13 216/1/38
f 216/1/38 217/1/13 218/1/14
f 216/1/38 218/1/14 208/1/6
f 217/1/13 205/1/2 219/1/15
f 217/1/13 219/1/15 218/1/14
f 218/1/14 219/1/15 220/1/16
f 218/1/14 220/1/16 208/1/6
f 219/1/15 205/1/2 221/1/17
f 219/1/15 221/1/17 220/1/16
f 220/1/16 221/1/17 222/1/18
f 220/1/16 222/1/18 208/1/6
f 221/1/17 205/1/2 223/1/39
f 221/1/17 223/1/39 222/1/18
f 222/1/18 223/1/39 224/1/40
f 222/1/18 224/1/40 208/1/6
f 223/1/39 205/1/2 225/1/21
f 223/1/39 225/1/21 224/1/40
f 224/1/40 225/1/21 226/1/22
f 224/1/40 226/1/22 208/1/6
f 225/1/21 205/1/2 227/1/23
f 225/1/21 227/1/23 226/1/22
f 226/1/22 227/1/23 228/1/24
f 226/1/22 228/1/24 208/1/6
f 227/1/23 205/1/2 229/1/25
f 227/1/23 229/1/25 228/1/24
f 228/1/24 229/1/25 230/1/26
f 228/1/24 230/1/26 208/1/6
f 229/1/25 205/1/2 231/1/41
f 229/1/25 231/1/41 230/1/26
f 230/1/26 231/1/41 232/1/42
f 230/1/26 232/1/42 208/1/6
f 231/1/41 205/1/2 233/1/29
f 231/1/41 233/1/29 232/1/42
f 232/1/42 233/1/29 234/1/30
f 232/1/42 234/1/30 208/1/6
f 233/1/29 205/1/2 235/1/31
f 233/1/29 235/1/31 234/1/30
f 234/1/30 235/1/31 236/1/32
f 234/1/30 236/1/32 208/1/6
f 235/1/31 205/1/2 237/1/33
f 235/1/31 237/1/33 236/1/32
f 236/1/32 237/1/33 238/1/34
f 236/1/32 238/1/34 208/1/6
f 237/1/33 205/1/2 206/1/35
f 237/1/33 206/1/35 238/1/34
f 238/1/34 206/1/35 207/1/36
f 238/1/34 207/1/36 208/1/6
f 240/1/35 239/1/2 243/1/3
f 240/1/35 243/1/3 241/1/36
f 241/1/36 243/1/3 244/1/5
f 241/1/36 244/1/5 242/1/6
f 243/1/3 239/1/2 245/1/7
f 243/1/3 245/1/7 244/1/5
f 244/1/5 245/1/7 246/1/8
f 244/1/5 246/1/8 242/1/6
f 245/1/7 239/1/2 247/1/9
f 245/1/7 247/1/9 246/1/8
f 246/1/8 247/1/9 248/1/10
f 246/1/8 248/1/10 242/1/6
f 247/1/9 239/1/2 249/1/37
f 247/1/9 249/1/37 248/1/10
f 248/1/10 249/1/37 250/1/38
f 248/1/10 250/1/38 242/1/6
f 249/1/37 239/1/2 251/1/13
f 249/1/37 251/1/13 250/1/38
f 250/1/38 251/1/13 252/1/14
f 250/1/38 252/1/14 242/1/6
f 251/1/13 239/1/2 253/1/15
f 251/1/13 253/1/15 252/1/14
f 252/1/14 253/1/15 254/1/16
f 252/1/14 254/1/16 242/1/6
f 253/1/15 239/1/2 255/1/17
f 253/1/15 255/1/17 254/1/16
f 254/1/16 255/1/17 256/1/18
f 254/1/16 256/1/18 242/1/6
f 255/1/17 239/1/2 257/1/39
f 255/1/17 257/1/39 256/1/18
f 256/1/18 257/1/39 258/1/40
f 256/1/18 258/1/40 242/1/6
f 257/1/39 239/1/2 259/1/21
f 257/1/39 259/1/21 258/1/40
f 258/1/40 259/1/21 260/1/22
f 258/1/40 260/1/22 242/1/6
f 259/1/21 239/1/2 261/1/23
f 259/1/21 261/1/23 260/1/22
f 260/1/22 261/1/23 262/1/24
f 260/1/22 262/1/24 242/1/6
f 261/1/23 239/1/2 263/1/25
f 261/1/23 263/1/25 262/1/24
f 262/1/24 263/1/25 264/1/26
f 262/1/24 264/1/26 242/1/6
f 263/1/25 239/1/2 265/1/41
f 263/1/25 265/1/41 264/1/26
f 264/1/26 265/1/41 266/1/42
f 264/1/26 266/1/42 242/1/6
f 265/1/41 239/1/2 267/1/29
f 265/1/41 267/1/29 266/1/42
f 266/1/42 267/1/29 268/1/30
f 266/1/42 268/1/30 242/1/6
f 267/1/29 239/1/2 269/1/31
f 267/1/29 269/1/31 268/1/30
f 268/1/30 269/1/31 270/1/32
f 268/1/30 270/1/32 242/1/6
f 269/1/31 239/1/2 271/1/33
f 269/1/31 271/1/33 270/1/32
f 270/1/32 271/1/33 272/1/34
f 270/1/32 272/1/34 242/1/6
f 271/1/33 239/1/2 240/1/35
f 271/1/33 240/1/35 272/1/34
f 272/1/34 240/1/35 241/1/36
f 272/1/34 241/1/36 242/1/6
f 274/1/35 273/1/2 277/1/3
f 274/1/35 277/1/3 275/1/36
f 275/1/36 277/1/3 278/1/5
f 275/1/36 278/1/5 276/1/6
f 277/1/3 273/1/2 279/1/7
f 277/1/3 279/1/7 278/1/5
f 278/1/5 279/1/7 280/1/8
f 278/1/5 280/1/8 276/1/6
f 279/1/7 273/1/2 281/1/9
f 279/1/7 281/1/9 280/1/8
f 280/1/8 281/1/9 282/1/10
f 280/1/8 282/1/10 276/1/6
f 281/1/9 273/1/2 283/1/37
f 281/1/9 283/1/37 282/1/10
f 282/1/10 283/1/37 284/1/38
f 282/1/10 284/1/38 276/1/6
f 283/1/37 273/1/2 285/1/13
f 283/1/37 285/1/13 284/1/38
f 284/1/38 285/1/13 286/1/14
f 284/1/38 286/1/14 276/1/6
f 285/1/13 273/1/2 287/1/15
f 285/1/13 287/1/15 286/1/14
f 286/1/14 287/1/15 288/1/16
f 286/1/14 288/1/16 276/1/6
f 287/1/15 273/1/2 289/1/17
f 287/1/15 289/1/17 288/1/16
f 288/1/16 289/1/17 290/1/18
f 288/1/16 290/1/18 276/1/6
f 289/1/17 273/1/2 291/1/39
f 289/1/17 291/1/39 290/1/18
f 290/1/18 291/1/39 292/1/40
f 290/1/18 292/1/40 276/1/6
f 291/1/39 273/1/2 293/1/21
f 291/1/39 293/1/21 292/1/40
f 292/1/40 293/1/21 294/1/22
f 292/1/40 294/1/22 276/1/6
f 293/1/21 273/1/2 295/1/23
f 293/1/21 295/1/23 294/1/22
f 294/1/22 295/1/23 296/1/24
f 294/1/22 296/1/24 276/1/6
f 295/1/23 273/1/2 297/1/25
f 295/1/23 297/1/25 296/1/24
f 296/1/24 297/1/25 298/1/26
f 296/1/24 298/1/26 276/1/6
f 297/1/25 273/1/2 299/1/41
f 297/1/25 299/1/41 298/1/26
f 298/1/26 299/1/41 300/1/42
f 298/1/26 300/1/42 276/1/6
f 299/1/41 273/1/2 301/1/29
f 299/1/41 301/1/29 300/1/42
f 300/1/42 301/1/29 302/1/30
f 300/1/42 302/1/30 276/1/6
f 301/1/29 273/1/2 303/1/31
f 301/1/29 303/1/31 302/1/30
f 302/1/30 303/1/31 304/1/32
f 302/1/30 304/1/32 276/1/6
f 303/1/31 273/1/2 305/1/33
f 303/1/31 305/1/33 304/1/32
f 304/1/32 305/1/33 306/1/34
f 304/1/32 306/1/34 276/1/6
f 305/1/33 273/1/2 274/1/35
f 305/1/33 274/1/35 306/1/34
f 306/1/34 274/1/35 275/1/36
f 306/1/34 275/1/36 276/1/6
