mtllib town_wooden_sign.mtl
o town_wooden_sign

# Group: bracket_iron
v -0.060000 0.530000 0.480000
v -0.060000 0.770000 0.480000
v -0.060000 0.530000 0.440000
v -0.060000 0.770000 0.440000
v 0.060000 0.530000 0.480000
v 0.060000 0.770000 0.480000
v 0.060000 0.530000 0.440000
v 0.060000 0.770000 0.440000
v -0.025000 0.695000 0.460000
v -0.025000 0.745000 0.460000
v -0.025000 0.695000 0.060000
v -0.025000 0.745000 0.060000
v 0.025000 0.695000 0.460000
v 0.025000 0.745000 0.460000
v 0.025000 0.695000 0.060000
v 0.025000 0.745000 0.060000
v -0.140000 0.630000 0.240000
v -0.120000 0.630000 0.240000
v -0.120000 0.710000 0.240000
v -0.140000 0.710000 0.240000
v -0.125858 0.630000 0.225858
v -0.125858 0.710000 0.225858
v -0.140000 0.630000 0.220000
v -0.140000 0.710000 0.220000
v -0.154142 0.630000 0.225858
v -0.154142 0.710000 0.225858
v -0.160000 0.630000 0.240000
v -0.160000 0.710000 0.240000
v -0.154142 0.630000 0.254142
v -0.154142 0.710000 0.254142
v -0.140000 0.630000 0.260000
v -0.140000 0.710000 0.260000
v -0.125858 0.630000 0.254142
v -0.125858 0.710000 0.254142
v 0.140000 0.630000 0.240000
v 0.160000 0.630000 0.240000
v 0.160000 0.710000 0.240000
v 0.140000 0.710000 0.240000
v 0.154142 0.630000 0.225858
v 0.154142 0.710000 0.225858
v 0.140000 0.630000 0.220000
v 0.140000 0.710000 0.220000
v 0.125858 0.630000 0.225858
v 0.125858 0.710000 0.225858
v 0.120000 0.630000 0.240000
v 0.120000 0.710000 0.240000
v 0.125858 0.630000 0.254142
v 0.125858 0.710000 0.254142
v 0.140000 0.630000 0.260000
v 0.140000 0.710000 0.260000
v 0.154142 0.630000 0.254142
v 0.154142 0.710000 0.254142
vt 0.0 0.0
vn -0.577350 -0.577350 0.577350
vn -0.577350 0.577350 0.577350
vn -0.577350 -0.577350 -0.577350
vn -0.577350 0.577350 -0.577350
vn 0.577350 -0.577350 0.577350
vn 0.577350 0.577350 0.577350
vn 0.577350 -0.577350 -0.577350
vn 0.577350 0.577350 -0.577350
vn -0.577350 -0.577350 0.577350
vn -0.577350 0.577350 0.577350
vn -0.577350 -0.577350 -0.577350
vn -0.577350 0.577350 -0.577350
vn 0.577350 -0.577350 0.577350
vn 0.577350 0.577350 0.577350
vn 0.577350 -0.577350 -0.577350
vn 0.577350 0.577350 -0.577350
vn 0.000000 -1.000000 0.000000
vn 0.776382 -0.630262 0.000000
vn 0.776382 0.630262 0.000000
vn 0.000000 1.000000 0.000000
vn 0.548985 -0.630262 -0.548985
vn 0.548985 0.630262 -0.548985
vn 0.000000 -0.630262 -0.776382
vn -0.000000 0.630262 -0.776382
vn -0.548985 -0.630262 -0.548985
vn -0.548985 0.630262 -0.548985
vn -0.776382 -0.630262 0.000000
vn -0.776382 0.630262 0.000000
vn -0.548985 -0.630262 0.548985
vn -0.548985 0.630262 0.548985
vn 0.000000 -0.630262 0.776382
vn 0.000000 0.630262 0.776382
vn 0.548985 -0.630262 0.548985
vn 0.548985 0.630262 0.548985
vn 0.000000 -1.000000 0.000000
vn 0.776382 -0.630262 0.000000
vn 0.776382 0.630262 0.000000
vn 0.000000 1.000000 0.000000
vn 0.548985 -0.630262 -0.548985
vn 0.548985 0.630262 -0.548985
vn 0.000000 -0.630262 -0.776382
vn -0.000000 0.630262 -0.776382
vn -0.548985 -0.630262 -0.548985
vn -0.548985 0.630262 -0.548985
vn -0.776382 -0.630262 0.000000
vn -0.776382 0.630262 0.000000
vn -0.548985 -0.630262 0.548985
vn -0.548985 0.630262 0.548985
vn 0.000000 -0.630262 0.776382
vn 0.000000 0.630262 0.776382
vn 0.548985 -0.630262 0.548985
vn 0.548985 0.630262 0.548985
usemtl bracket_iron
f 2/1/2 4/1/4 1/1/1
f 5/1/5 2/1/2 1/1/1
f 1/1/1 4/1/4 3/1/3
f 3/1/3 5/1/5 1/1/1
f 2/1/2 8/1/8 4/1/4
f 6/1/6 2/1/2 5/1/5
f 6/1/6 8/1/8 2/1/2
f 4/1/4 8/1/8 3/1/3
f 7/1/7 5/1/5 3/1/3
f 3/1/3 8/1/8 7/1/7
f 7/1/7 6/1/6 5/1/5
f 8/1/8 6/1/6 7/1/7
f 10/1/10 12/1/12 9/1/9
f 13/1/13 10/1/10 9/1/9
f 9/1/9 12/1/12 11/1/11
f 11/1/11 13/1/13 9/1/9
f 10/1/10 16/1/16 12/1/12
f 14/1/14 10/1/10 13/1/13
f 14/1/14 16/1/16 10/1/10
f 12/1/12 16/1/16 11/1/11
f 15/1/15 13/1/13 11/1/11
f 11/1/11 16/1/16 15/1/15
f 15/1/15 14/1/14 13/1/13
f 16/1/16 14/1/14 15/1/15
f 18/1/18 17/1/17 21/1/21
f 18/1/18 21/1/21 19/1/19
f 19/1/19 21/1/21 22/1/22
f 19/1/19 22/1/22 20/1/20
f 21/1/21 17/1/17 23/1/23
f 21/1/21 23/1/23 22/1/22
f 22/1/22 23/1/23 24/1/24
f 22/1/22 24/1/24 20/1/20
f 23/1/23 17/1/17 25/1/25
f 23/1/23 25/1/25 24/1/24
f 24/1/24 25/1/25 26/1/26
f 24/1/24 26/1/26 20/1/20
f 25/1/25 17/1/17 27/1/27
f 25/1/25 27/1/27 26/1/26
f 26/1/26 27/1/27 28/1/28
f 26/1/26 28/1/28 20/1/20
f 27/1/27 17/1/17 29/1/29
f 27/1/27 29/1/29 28/1/28
f 28/1/28 29/1/29 30/1/30
f 28/1/28 30/1/30 20/1/20
f 29/1/29 17/1/17 31/1/31
f 29/1/29 31/1/31 30/1/30
f 30/1/30 31/1/31 32/1/32
f 30/1/30 32/1/32 20/1/20
f 31/1/31 17/1/17 33/1/33
f 31/1/31 33/1/33 32/1/32
f 32/1/32 33/1/33 34/1/34
f 32/1/32 34/1/34 20/1/20
f 33/1/33 17/1/17 18/1/18
f 33/1/33 18/1/18 34/1/34
f 34/1/34 18/1/18 19/1/19
f 34/1/34 19/1/19 20/1/20
f 36/1/36 35/1/35 39/1/39
f 36/1/36 39/1/39 37/1/37
f 37/1/37 39/1/39 40/1/40
f 37/1/37 40/1/40 38/1/38
f 39/1/39 35/1/35 41/1/41
f 39/1/39 41/1/41 40/1/40
f 40/1/40 41/1/41 42/1/42
f 40/1/40 42/1/42 38/1/38
f 41/1/41 35/1/35 43/1/43
f 41/1/41 43/1/43 42/1/42
f 42/1/42 43/1/43 44/1/44
f 42/1/42 44/1/44 38/1/38
f 43/1/43 35/1/35 45/1/45
f 43/1/43 45/1/45 44/1/44
f 44/1/44 45/1/45 46/1/46
f 44/1/44 46/1/46 38/1/38
f 45/1/45 35/1/35 47/1/47
f 45/1/45 47/1/47 46/1/46
f 46/1/46 47/1/47 48/1/48
f 46/1/46 48/1/48 38/1/38
f 47/1/47 35/1/35 49/1/49
f 47/1/47 49/1/49 48/1/48
f 48/1/48 49/1/49 50/1/50
f 48/1/48 50/1/50 38/1/38
f 49/1/49 35/1/35 51/1/51
f 49/1/49 51/1/51 50/1/50
f 50/1/50 51/1/51 52/1/52
f 50/1/50 52/1/52 38/1/38
f 51/1/51 35/1/35 36/1/36
f 51/1/51 36/1/36 52/1/52
f 52/1/52 36/1/36 37/1/37
f 52/1/52 37/1/37 38/1/38

# Group: sign_wood
v -0.220000 0.330000 0.265000
v -0.220000 0.630000 0.265000
v -0.220000 0.330000 0.215000
v -0.220000 0.630000 0.215000
v 0.220000 0.330000 0.265000
v 0.220000 0.630000 0.265000
v 0.220000 0.330000 0.215000
v 0.220000 0.630000 0.215000
vt 0.0 0.0
vn -0.577350 -0.577350 0.577350
vn -0.577350 0.577350 0.577350
vn -0.577350 -0.577350 -0.577350
vn -0.577350 0.577350 -0.577350
vn 0.577350 -0.577350 0.577350
vn 0.577350 0.577350 0.577350
vn 0.577350 -0.577350 -0.577350
vn 0.577350 0.577350 -0.577350
usemtl sign_wood
f 54/1/54 56/1/56 53/1/53
f 57/1/57 54/1/54 53/1/53
f 53/1/53 56/1/56 55/1/55
f 55/1/55 57/1/57 53/1/53
f 54/1/54 60/1/60 56/1/56
f 58/1/58 54/1/54 57/1/57
f 58/1/58 60/1/60 54/1/54
f 56/1/56 60/1/60 55/1/55
f 59/1/59 57/1/57 55/1/55
f 55/1/55 60/1/60 59/1/59
f 59/1/59 58/1/58 57/1/57
f 60/1/60 58/1/58 59/1/59

