# Blender 5.1.2
# www.blender.org
mtllib town_street_lamp.mtl
o town_street_lamp
v -0.390000 0.000000 -0.210000
v -0.390000 0.017624 -0.210000
v -0.390000 0.000000 -0.390000
v -0.390000 0.017624 -0.390000
v -0.210000 0.000000 -0.210000
v -0.210000 0.017624 -0.210000
v -0.210000 0.000000 -0.390000
v -0.210000 0.017624 -0.390000
v -0.300000 0.140000 -0.300000
v -0.285000 0.140000 -0.300000
v -0.285000 0.760000 -0.300000
v -0.300000 0.760000 -0.300000
v -0.287010 0.140000 -0.307500
v -0.287010 0.760000 -0.307500
v -0.292500 0.140000 -0.312991
v -0.292500 0.760000 -0.312990
v -0.300000 0.140000 -0.315000
v -0.300000 0.760000 -0.315000
v -0.307500 0.140000 -0.312991
v -0.307500 0.760000 -0.312990
v -0.312991 0.140000 -0.307500
v -0.312991 0.760000 -0.307500
v -0.315000 0.140000 -0.300000
v -0.315000 0.760000 -0.300000
v -0.312991 0.140000 -0.292500
v -0.312991 0.760000 -0.292500
v -0.307500 0.140000 -0.287010
v -0.307500 0.760000 -0.287009
v -0.300000 0.140000 -0.285000
v -0.300000 0.760000 -0.285000
v -0.292500 0.140000 -0.287010
v -0.292500 0.760000 -0.287009
v -0.287010 0.140000 -0.292500
v -0.287010 0.760000 -0.292500
v -0.300000 0.180000 -0.300000
v -0.277500 0.180000 -0.300000
v -0.277500 0.220000 -0.300000
v -0.300000 0.220000 -0.300000
v -0.280515 0.180000 -0.311250
v -0.280515 0.220000 -0.311250
v -0.288750 0.180000 -0.319486
v -0.288750 0.220000 -0.319486
v -0.300000 0.180000 -0.322500
v -0.300000 0.220000 -0.322500
v -0.311250 0.180000 -0.319486
v -0.311250 0.220000 -0.319486
v -0.319486 0.180000 -0.311250
v -0.319486 0.220000 -0.311250
v -0.322500 0.180000 -0.300000
v -0.322500 0.220000 -0.300000
v -0.319486 0.180000 -0.288750
v -0.319486 0.220000 -0.288750
v -0.311250 0.180000 -0.280515
v -0.311250 0.220000 -0.280515
v -0.300000 0.180000 -0.277500
v -0.300000 0.220000 -0.277500
v -0.288750 0.180000 -0.280515
v -0.288750 0.220000 -0.280515
v -0.280515 0.180000 -0.288750
v -0.280515 0.220000 -0.288750
v -0.300000 0.700000 -0.300000
v -0.277500 0.700000 -0.300000
v -0.277500 0.740000 -0.300000
v -0.300000 0.740000 -0.300000
v -0.280515 0.700000 -0.311250
v -0.280515 0.740000 -0.311250
v -0.288750 0.700000 -0.319485
v -0.288750 0.740000 -0.319485
v -0.300000 0.700000 -0.322500
v -0.300000 0.740000 -0.322500
v -0.311250 0.700000 -0.319485
v -0.311250 0.740000 -0.319485
v -0.319486 0.700000 -0.311250
v -0.319486 0.740000 -0.311250
v -0.322500 0.700000 -0.300000
v -0.322500 0.740000 -0.300000
v -0.319486 0.700000 -0.288750
v -0.319486 0.740000 -0.288750
v -0.311250 0.700000 -0.280514
v -0.311250 0.740000 -0.280514
v -0.300000 0.700000 -0.277500
v -0.300000 0.740000 -0.277500
v -0.288750 0.700000 -0.280514
v -0.288750 0.740000 -0.280514
v -0.280515 0.700000 -0.288750
v -0.280515 0.740000 -0.288750
v -0.405000 0.759426 -0.195000
v -0.405000 0.774955 -0.195000
v -0.405000 0.759426 -0.405000
v -0.405000 0.774955 -0.405000
v -0.195000 0.759426 -0.195000
v -0.195000 0.774955 -0.195000
v -0.195000 0.759426 -0.405000
v -0.195000 0.774955 -0.405000
v -0.412500 0.937237 -0.187500
v -0.412500 0.955528 -0.187500
v -0.412500 0.937237 -0.412500
v -0.412500 0.955529 -0.412500
v -0.187500 0.937237 -0.187500
v -0.187500 0.955528 -0.187500
v -0.187500 0.937237 -0.412500
v -0.187500 0.955529 -0.412500
v -0.300000 0.950870 -0.300000
v -0.270000 0.950870 -0.300000
v -0.270000 1.070870 -0.300000
v -0.300000 1.070870 -0.300000
v -0.278787 0.950870 -0.321213
v -0.278787 1.070870 -0.321213
v -0.300000 0.950870 -0.330000
v -0.300000 1.070870 -0.330000
v -0.321213 0.950870 -0.321213
v -0.321213 1.070870 -0.321213
v -0.330000 0.950870 -0.300000
v -0.330000 1.070870 -0.300000
v -0.321213 0.950870 -0.278787
v -0.321213 1.070870 -0.278787
v -0.300000 0.950870 -0.270000
v -0.300000 1.070870 -0.270000
v -0.278787 0.950870 -0.278787
v -0.278787 1.070870 -0.278787
v -0.348411 0.030689 -0.251589
v -0.348411 0.030689 -0.348411
v -0.251589 0.030689 -0.348411
v -0.251589 0.030689 -0.251589
v -0.348411 0.056758 -0.251589
v -0.348411 0.056758 -0.348411
v -0.251589 0.056758 -0.348411
v -0.251589 0.056758 -0.251589
v -0.317396 0.152874 -0.282604
v -0.317396 0.152874 -0.317396
v -0.282604 0.152874 -0.317396
v -0.282604 0.152874 -0.282604
v -0.251057 0.855742 -0.367365
v -0.300000 0.855742 -0.383268
v -0.300000 0.768545 -0.366435
v -0.300000 0.942938 -0.366435
v -0.260950 0.768545 -0.353747
v -0.260950 0.942938 -0.353747
v -0.236816 0.768545 -0.320530
v -0.236816 0.942938 -0.320530
v -0.236816 0.768545 -0.279470
v -0.236816 0.942938 -0.279470
v -0.260950 0.768545 -0.246253
v -0.260950 0.942938 -0.246253
v -0.300000 0.768545 -0.233565
v -0.300000 0.942938 -0.233565
v -0.339050 0.768545 -0.246253
v -0.339050 0.942938 -0.246253
v -0.363184 0.768545 -0.279470
v -0.363184 0.942938 -0.279470
v -0.363184 0.768545 -0.320530
v -0.363184 0.942938 -0.320530
v -0.339050 0.768545 -0.353747
v -0.339050 0.942938 -0.353747
v -0.220808 0.855742 -0.325731
v -0.220808 0.855742 -0.274269
v -0.251057 0.855742 -0.232635
v -0.300000 0.855742 -0.216732
v -0.348943 0.855742 -0.232635
v -0.379192 0.855742 -0.274269
v -0.379192 0.855742 -0.325731
v -0.348943 0.855742 -0.367365
vn -0.6058 0.5157 0.6058
vn -0.6058 0.5157 -0.6058
vn -0.5774 -0.5773 0.5773
vn 0.5773 -0.5774 0.5773
vn -0.5773 -0.5774 -0.5773
vn 0.6058 0.5157 0.6058
vn 0.6058 0.5157 -0.6058
vn 0.4136 0.8111 -0.4136
vn 0.4136 0.8111 0.4136
vn -0.4136 0.8111 0.4136
vn -0.4136 0.8111 -0.4136
vn 0.5774 -0.5773 -0.5773
vn 0.7572 -0.6532 -0.0000
vn -0.0000 -1.0000 -0.0000
vn 0.6557 -0.6532 -0.3786
vn 0.7572 0.6532 -0.0000
vn 0.6557 0.6532 -0.3786
vn -0.0000 1.0000 -0.0000
vn 0.3786 -0.6532 -0.6557
vn 0.3786 0.6532 -0.6557
vn -0.0000 -0.6532 -0.7572
vn -0.0000 0.6532 -0.7572
vn -0.3786 -0.6532 -0.6557
vn -0.3786 0.6532 -0.6557
vn -0.6557 -0.6532 -0.3786
vn -0.6557 0.6532 -0.3786
vn -0.7572 -0.6532 -0.0000
vn -0.7572 0.6532 -0.0000
vn -0.6557 -0.6532 0.3786
vn -0.6557 0.6532 0.3786
vn -0.3786 -0.6532 0.6557
vn -0.3786 0.6532 0.6557
vn -0.0000 -0.6532 0.7572
vn -0.0000 0.6532 0.7572
vn 0.3786 -0.6532 0.6557
vn 0.3786 0.6532 0.6557
vn 0.6557 -0.6532 0.3786
vn 0.6557 0.6532 0.3786
vn -0.5773 0.5774 0.5773
vn -0.5774 0.5773 -0.5773
vn 0.5773 0.5774 -0.5773
vn 0.5774 0.5773 0.5773
vn 0.7764 -0.6303 -0.0000
vn 0.5490 -0.6303 -0.5490
vn 0.7764 0.6303 -0.0000
vn 0.5490 0.6303 -0.5490
vn -0.0000 -0.6303 -0.7764
vn -0.0000 0.6303 -0.7764
vn -0.5490 -0.6303 -0.5490
vn -0.5490 0.6303 -0.5490
vn -0.7764 -0.6303 -0.0000
vn -0.7764 0.6302 -0.0000
vn -0.5490 -0.6303 0.5490
vn -0.5490 0.6303 0.5490
vn -0.0000 -0.6302 0.7764
vn -0.0000 0.6303 0.7764
vn 0.5490 -0.6303 0.5490
vn 0.5490 0.6303 0.5490
vn 0.6935 0.1949 -0.6935
vn 0.6935 0.1949 0.6935
vn -0.6935 0.1949 0.6935
vn -0.6935 0.1949 -0.6935
vn -0.4802 0.7340 -0.4802
vn 0.4802 0.7340 -0.4802
vn 0.4802 0.7340 0.4802
vn -0.4802 0.7340 0.4802
vn 0.4120 -0.7132 -0.5671
vn 0.5878 -0.0000 -0.8090
vn 0.9511 -0.0000 -0.3090
vn 0.6666 -0.7132 -0.2166
vn -0.0000 -0.0000 -1.0000
vn -0.0000 0.7132 -0.7009
vn 0.4120 0.7132 -0.5671
vn 0.9511 -0.0000 0.3090
vn 0.6666 -0.7132 0.2166
vn 0.6666 0.7132 -0.2166
vn 0.5878 -0.0000 0.8090
vn 0.4120 -0.7132 0.5671
vn 0.6666 0.7132 0.2166
vn -0.0000 -0.0000 1.0000
vn -0.0000 -0.7132 0.7009
vn 0.4120 0.7132 0.5671
vn -0.5878 -0.0000 0.8090
vn -0.4120 -0.7132 0.5671
vn -0.0000 0.7132 0.7009
vn -0.9511 -0.0000 0.3090
vn -0.6666 -0.7132 0.2166
vn -0.4120 0.7132 0.5671
vn -0.9511 -0.0000 -0.3090
vn -0.6666 -0.7132 -0.2166
vn -0.6666 0.7132 0.2166
vn -0.5878 -0.0000 -0.8090
vn -0.4120 -0.7132 -0.5671
vn -0.6666 0.7132 -0.2166
vn -0.4120 0.7132 -0.5671
vn -0.0000 -0.7132 -0.7009
vt 0.000000 0.000000
vt 0.900000 0.500000
vt 0.900000 0.750000
vt 0.800000 0.750000
vt 0.800000 0.500000
vt 1.000000 0.750000
vt 1.000000 1.000000
vt 0.900000 1.000000
vt 0.700000 0.750000
vt 0.700000 0.500000
vt 0.800000 1.000000
vt 0.600000 0.750000
vt 0.600000 0.500000
vt 0.700000 1.000000
vt 0.500000 0.750000
vt 0.500000 0.500000
vt 0.600000 1.000000
vt 0.400000 0.750000
vt 0.400000 0.500000
vt 0.500000 1.000000
vt 0.300000 0.750000
vt 0.300000 0.500000
vt 0.400000 1.000000
vt 0.200000 0.750000
vt 0.200000 0.500000
vt 0.300000 1.000000
vt 0.100000 0.750000
vt 0.100000 0.500000
vt 0.200000 1.000000
vt 0.391068 0.444164
vt 0.250000 0.490000
vt 0.108932 0.444164
vt 0.021746 0.324164
vt 0.021746 0.175836
vt 0.108932 0.055836
vt 0.250000 0.010000
vt 0.391068 0.055836
vt 0.478254 0.175836
vt 0.478254 0.324164
vt -0.000000 0.750000
vt -0.000000 0.500000
vt 0.100000 1.000000
vt 1.000000 0.500000
vt -0.000000 1.000000
vt 0.750000 0.490000
vt 0.891068 0.444164
vt 0.978254 0.324164
vt 0.978254 0.175836
vt 0.891068 0.055836
vt 0.750000 0.010000
vt 0.608932 0.055836
vt 0.521746 0.175836
vt 0.521746 0.324164
vt 0.608932 0.444164
s 1
usemtl wrought_iron
f 2/1/1 4/1/2 1/1/3
f 5/1/4 2/1/1 1/1/3
f 1/1/3 4/1/2 3/1/5
f 3/1/5 5/1/4 1/1/3
f 6/1/6 8/1/7 123/1/8 124/1/9
f 6/1/6 2/1/1 5/1/4
f 4/1/2 2/1/1 121/1/10 122/1/11
f 4/1/2 8/1/7 3/1/5
f 7/1/12 5/1/4 3/1/5
f 3/1/5 8/1/7 7/1/12
f 7/1/12 6/1/6 5/1/4
f 8/1/7 6/1/6 7/1/12
f 10/1/13 9/1/14 13/1/15
f 10/1/13 13/1/15 11/1/16
f 11/1/16 13/1/15 14/1/17
f 11/1/16 14/1/17 12/1/18
f 13/1/15 9/1/14 15/1/19
f 13/1/15 15/1/19 14/1/17
f 14/1/17 15/1/19 16/1/20
f 14/1/17 16/1/20 12/1/18
f 15/1/19 9/1/14 17/1/21
f 15/1/19 17/1/21 16/1/20
f 16/1/20 17/1/21 18/1/22
f 16/1/20 18/1/22 12/1/18
f 17/1/21 9/1/14 19/1/23
f 17/1/21 19/1/23 18/1/22
f 18/1/22 19/1/23 20/1/24
f 18/1/22 20/1/24 12/1/18
f 19/1/23 9/1/14 21/1/25
f 19/1/23 21/1/25 20/1/24
f 20/1/24 21/1/25 22/1/26
f 20/1/24 22/1/26 12/1/18
f 21/1/25 9/1/14 23/1/27
f 21/1/25 23/1/27 22/1/26
f 22/1/26 23/1/27 24/1/28
f 22/1/26 24/1/28 12/1/18
f 23/1/27 9/1/14 25/1/29
f 23/1/27 25/1/29 24/1/28
f 24/1/28 25/1/29 26/1/30
f 24/1/28 26/1/30 12/1/18
f 25/1/29 9/1/14 27/1/31
f 25/1/29 27/1/31 26/1/30
f 26/1/30 27/1/31 28/1/32
f 26/1/30 28/1/32 12/1/18
f 27/1/31 9/1/14 29/1/33
f 27/1/31 29/1/33 28/1/32
f 28/1/32 29/1/33 30/1/34
f 28/1/32 30/1/34 12/1/18
f 29/1/33 9/1/14 31/1/35
f 29/1/33 31/1/35 30/1/34
f 30/1/34 31/1/35 32/1/36
f 30/1/34 32/1/36 12/1/18
f 31/1/35 9/1/14 33/1/37
f 31/1/35 33/1/37 32/1/36
f 32/1/36 33/1/37 34/1/38
f 32/1/36 34/1/38 12/1/18
f 33/1/37 9/1/14 10/1/13
f 33/1/37 10/1/13 34/1/38
f 34/1/38 10/1/13 11/1/16
f 34/1/38 11/1/16 12/1/18
f 36/1/13 35/1/14 39/1/15
f 36/1/13 39/1/15 37/1/16
f 37/1/16 39/1/15 40/1/17
f 37/1/16 40/1/17 38/1/18
f 39/1/15 35/1/14 41/1/19
f 39/1/15 41/1/19 40/1/17
f 40/1/17 41/1/19 42/1/20
f 40/1/17 42/1/20 38/1/18
f 41/1/19 35/1/14 43/1/21
f 41/1/19 43/1/21 42/1/20
f 42/1/20 43/1/21 44/1/22
f 42/1/20 44/1/22 38/1/18
f 43/1/21 35/1/14 45/1/23
f 43/1/21 45/1/23 44/1/22
f 44/1/22 45/1/23 46/1/24
f 44/1/22 46/1/24 38/1/18
f 45/1/23 35/1/14 47/1/25
f 45/1/23 47/1/25 46/1/24
f 46/1/24 47/1/25 48/1/26
f 46/1/24 48/1/26 38/1/18
f 47/1/25 35/1/14 49/1/27
f 47/1/25 49/1/27 48/1/26
f 48/1/26 49/1/27 50/1/28
f 48/1/26 50/1/28 38/1/18
f 49/1/27 35/1/14 51/1/29
f 49/1/27 51/1/29 50/1/28
f 50/1/28 51/1/29 52/1/30
f 50/1/28 52/1/30 38/1/18
f 51/1/29 35/1/14 53/1/31
f 51/1/29 53/1/31 52/1/30
f 52/1/30 53/1/31 54/1/32
f 52/1/30 54/1/32 38/1/18
f 53/1/31 35/1/14 55/1/33
f 53/1/31 55/1/33 54/1/32
f 54/1/32 55/1/33 56/1/34
f 54/1/32 56/1/34 38/1/18
f 55/1/33 35/1/14 57/1/35
f 55/1/33 57/1/35 56/1/34
f 56/1/34 57/1/35 58/1/36
f 56/1/34 58/1/36 38/1/18
f 57/1/35 35/1/14 59/1/37
f 57/1/35 59/1/37 58/1/36
f 58/1/36 59/1/37 60/1/38
f 58/1/36 60/1/38 38/1/18
f 59/1/37 35/1/14 36/1/13
f 59/1/37 36/1/13 60/1/38
f 60/1/38 36/1/13 37/1/16
f 60/1/38 37/1/16 38/1/18
f 62/1/13 61/1/14 65/1/15
f 62/1/13 65/1/15 63/1/16
f 63/1/16 65/1/15 66/1/17
f 63/1/16 66/1/17 64/1/18
f 65/1/15 61/1/14 67/1/19
f 65/1/15 67/1/19 66/1/17
f 66/1/17 67/1/19 68/1/20
f 66/1/17 68/1/20 64/1/18
f 67/1/19 61/1/14 69/1/21
f 67/1/19 69/1/21 68/1/20
f 68/1/20 69/1/21 70/1/22
f 68/1/20 70/1/22 64/1/18
f 69/1/21 61/1/14 71/1/23
f 69/1/21 71/1/23 70/1/22
f 70/1/22 71/1/23 72/1/24
f 70/1/22 72/1/24 64/1/18
f 71/1/23 61/1/14 73/1/25
f 71/1/23 73/1/25 72/1/24
f 72/1/24 73/1/25 74/1/26
f 72/1/24 74/1/26 64/1/18
f 73/1/25 61/1/14 75/1/27
f 73/1/25 75/1/27 74/1/26
f 74/1/26 75/1/27 76/1/28
f 74/1/26 76/1/28 64/1/18
f 75/1/27 61/1/14 77/1/29
f 75/1/27 77/1/29 76/1/28
f 76/1/28 77/1/29 78/1/30
f 76/1/28 78/1/30 64/1/18
f 77/1/29 61/1/14 79/1/31
f 77/1/29 79/1/31 78/1/30
f 78/1/30 79/1/31 80/1/32
f 78/1/30 80/1/32 64/1/18
f 79/1/31 61/1/14 81/1/33
f 79/1/31 81/1/33 80/1/32
f 80/1/32 81/1/33 82/1/34
f 80/1/32 82/1/34 64/1/18
f 81/1/33 61/1/14 83/1/35
f 81/1/33 83/1/35 82/1/34
f 82/1/34 83/1/35 84/1/36
f 82/1/34 84/1/36 64/1/18
f 83/1/35 61/1/14 85/1/37
f 83/1/35 85/1/37 84/1/36
f 84/1/36 85/1/37 86/1/38
f 84/1/36 86/1/38 64/1/18
f 85/1/37 61/1/14 62/1/13
f 85/1/37 62/1/13 86/1/38
f 86/1/38 62/1/13 63/1/16
f 86/1/38 63/1/16 64/1/18
f 88/1/39 90/1/40 87/1/3
f 91/1/4 88/1/39 87/1/3
f 87/1/3 90/1/40 89/1/5
f 89/1/5 91/1/4 87/1/3
f 88/1/39 94/1/41 90/1/40
f 92/1/42 88/1/39 91/1/4
f 92/1/42 94/1/41 88/1/39
f 90/1/40 94/1/41 89/1/5
f 93/1/12 91/1/4 89/1/5
f 89/1/5 94/1/41 93/1/12
f 93/1/12 92/1/42 91/1/4
f 94/1/41 92/1/42 93/1/12
f 96/1/39 98/1/40 95/1/3
f 99/1/4 96/1/39 95/1/3
f 95/1/3 98/1/40 97/1/5
f 97/1/5 99/1/4 95/1/3
f 96/1/39 102/1/41 98/1/40
f 100/1/42 96/1/39 99/1/4
f 100/1/42 102/1/41 96/1/39
f 98/1/40 102/1/41 97/1/5
f 101/1/12 99/1/4 97/1/5
f 97/1/5 102/1/41 101/1/12
f 101/1/12 100/1/42 99/1/4
f 102/1/41 100/1/42 101/1/12
f 104/1/43 103/1/14 107/1/44
f 104/1/43 107/1/44 105/1/45
f 105/1/45 107/1/44 108/1/46
f 105/1/45 108/1/46 106/1/18
f 107/1/44 103/1/14 109/1/47
f 107/1/44 109/1/47 108/1/46
f 108/1/46 109/1/47 110/1/48
f 108/1/46 110/1/48 106/1/18
f 109/1/47 103/1/14 111/1/49
f 109/1/47 111/1/49 110/1/48
f 110/1/48 111/1/49 112/1/50
f 110/1/48 112/1/50 106/1/18
f 111/1/49 103/1/14 113/1/51
f 111/1/49 113/1/51 112/1/50
f 112/1/50 113/1/51 114/1/52
f 112/1/50 114/1/52 106/1/18
f 113/1/51 103/1/14 115/1/53
f 113/1/51 115/1/53 114/1/52
f 114/1/52 115/1/53 116/1/54
f 114/1/52 116/1/54 106/1/18
f 115/1/53 103/1/14 117/1/55
f 115/1/53 117/1/55 116/1/54
f 116/1/54 117/1/55 118/1/56
f 116/1/54 118/1/56 106/1/18
f 117/1/55 103/1/14 119/1/57
f 117/1/55 119/1/57 118/1/56
f 118/1/56 119/1/57 120/1/58
f 118/1/56 120/1/58 106/1/18
f 119/1/57 103/1/14 104/1/43
f 119/1/57 104/1/43 120/1/58
f 120/1/58 104/1/43 105/1/45
f 120/1/58 105/1/45 106/1/18
f 124/1/9 123/1/8 127/1/59 128/1/60
f 121/1/10 124/1/9 128/1/60 125/1/61
f 2/1/1 6/1/6 124/1/9 121/1/10
f 8/1/7 4/1/2 122/1/11 123/1/8
f 127/1/59 126/1/62 130/1/63 131/1/64
f 128/1/60 127/1/59 131/1/64 132/1/65
f 123/1/8 122/1/11 126/1/62 127/1/59
f 122/1/11 121/1/10 125/1/61 126/1/62
f 129/1/66 131/1/64 130/1/63
f 132/1/65 131/1/64 129/1/66
f 126/1/62 125/1/61 129/1/66 130/1/63
f 125/1/61 128/1/60 132/1/65 129/1/66
usemtl lamp_glow
f 137/2/67 133/3/68 155/4/69 139/5/70
f 134/6/71 136/7/72 138/8/73 133/3/68
f 139/5/70 155/4/69 156/9/74 141/10/75
f 133/3/68 138/8/73 140/11/76 155/4/69
f 141/10/75 156/9/74 157/12/77 143/13/78
f 155/4/69 140/11/76 142/14/79 156/9/74
f 143/13/78 157/12/77 158/15/80 145/16/81
f 156/9/74 142/14/79 144/17/82 157/12/77
f 145/16/81 158/15/80 159/18/83 147/19/84
f 157/12/77 144/17/82 146/20/85 158/15/80
f 147/19/84 159/18/83 160/21/86 149/22/87
f 158/15/80 146/20/85 148/23/88 159/18/83
f 149/22/87 160/21/86 161/24/89 151/25/90
f 159/18/83 148/23/88 150/26/91 160/21/86
f 151/25/90 161/24/89 162/27/92 153/28/93
f 160/21/86 150/26/91 152/29/94 161/24/89
f 138/30/73 136/31/72 154/32/95 152/33/94 150/34/91 148/35/88 146/36/85 144/37/82 142/38/79 140/39/76
f 153/28/93 162/27/92 134/40/71 135/41/96
f 161/24/89 152/29/94 154/42/95 162/27/92
f 135/43/96 134/6/71 133/3/68 137/2/67
f 162/27/92 154/42/95 136/44/72 134/40/71
f 135/45/96 137/46/67 139/47/70 141/48/75 143/49/78 145/50/81 147/51/84 149/52/87 151/53/90 153/54/93
