# Blender 5.1.2
# www.blender.org
mtllib environment.mtl
o TOWN_RENDER
v 1.000000 -17.500000 -2.200000
v 38.000000 -17.500000 -2.200000
v 38.000000 28.500000 -2.200000
v 1.000000 28.500000 -2.200000
v 1.000000 -17.500000 -1.700000
v 38.000000 -17.500000 -1.700000
v 38.000000 28.500000 -1.700000
v 1.000000 28.500000 -1.700000
v 18.879999 -0.600000 -1.700000
v 20.980000 -0.600000 -1.700000
v 20.980000 1.700000 -1.700000
v 18.879999 1.700000 -1.700000
v 18.879999 -0.600000 4.700000
v 20.980000 -0.600000 4.700000
v 20.980000 1.700000 4.700000
v 18.879999 1.700000 4.700000
v 18.424999 -0.750000 4.700000
v 21.075001 -0.750000 4.700000
v 21.075001 1.850000 4.700000
v 18.424999 1.850000 4.700000
v 18.424999 -0.750000 5.140000
v 21.075001 -0.750000 5.140000
v 21.075001 1.850000 5.140000
v 18.424999 1.850000 5.140000
v 18.410000 0.025000 -1.700000
v 18.910000 0.025000 -1.700000
v 18.910000 1.075000 -1.700000
v 18.410000 1.075000 -1.700000
v 18.410000 0.025000 0.400000
v 18.910000 0.025000 0.400000
v 18.910000 1.075000 0.400000
v 18.410000 1.075000 0.400000
v 18.969999 -0.315000 0.420000
v 19.270000 -0.315000 0.420000
v 19.270000 0.265000 0.420000
v 18.969999 0.265000 0.420000
v 18.969999 -0.315000 1.280000
v 19.270000 -0.315000 1.280000
v 19.270000 0.265000 1.280000
v 18.969999 0.265000 1.280000
v 18.969999 0.835000 0.420000
v 19.270000 0.835000 0.420000
v 19.270000 1.415000 0.420000
v 18.969999 1.415000 0.420000
v 18.969999 0.835000 1.280000
v 19.270000 0.835000 1.280000
v 19.270000 1.415000 1.280000
v 18.969999 1.415000 1.280000
v 18.969999 -0.315000 2.170000
v 19.270000 -0.315000 2.170000
v 19.270000 0.265000 2.170000
v 18.969999 0.265000 2.170000
v 18.969999 -0.315000 3.030000
v 19.270000 -0.315000 3.030000
v 19.270000 0.265000 3.030000
v 18.969999 0.265000 3.030000
v 18.969999 0.835000 2.170000
v 19.270000 0.835000 2.170000
v 19.270000 1.415000 2.170000
v 18.969999 1.415000 2.170000
v 18.969999 0.835000 3.030000
v 19.270000 0.835000 3.030000
v 19.270000 1.415000 3.030000
v 18.969999 1.415000 3.030000
v 19.400000 1.700000 -1.700000
v 22.000000 1.700000 -1.700000
v 22.000000 3.700000 -1.700000
v 19.400000 3.700000 -1.700000
v 19.400000 1.700000 4.300000
v 22.000000 1.700000 4.300000
v 22.000000 3.700000 4.300000
v 19.400000 3.700000 4.300000
v 18.945000 1.550000 4.300000
v 22.094999 1.550000 4.300000
v 22.094999 3.850000 4.300000
v 18.945000 3.850000 4.300000
v 18.945000 1.550000 4.740000
v 22.094999 1.550000 4.740000
v 22.094999 3.850000 4.740000
v 18.945000 3.850000 4.740000
v 19.490000 2.410000 0.420000
v 19.790001 2.410000 0.420000
v 19.790001 2.990000 0.420000
v 19.490000 2.990000 0.420000
v 19.490000 2.410000 1.280000
v 19.790001 2.410000 1.280000
v 19.790001 2.990000 1.280000
v 19.490000 2.990000 1.280000
v 19.490000 2.410000 2.170000
v 19.790001 2.410000 2.170000
v 19.790001 2.990000 2.170000
v 19.490000 2.990000 2.170000
v 19.490000 2.410000 3.030000
v 19.790001 2.410000 3.030000
v 19.790001 2.990000 3.030000
v 19.490000 2.990000 3.030000
v 18.930000 1.780000 2.050000
v 19.270000 1.780000 2.050000
v 19.270000 3.620000 2.050000
v 18.930000 3.620000 2.050000
v 18.930000 1.780000 3.950000
v 19.270000 1.780000 3.950000
v 19.270000 3.620000 3.950000
v 18.930000 3.620000 3.950000
v 19.920000 3.700000 -1.700000
v 23.020000 3.700000 -1.700000
v 23.020000 6.500000 -1.700000
v 19.920000 6.500000 -1.700000
v 19.920000 3.700000 3.900000
v 23.020000 3.700000 3.900000
v 23.020000 6.500000 3.900000
v 19.920000 6.500000 3.900000
v 19.465000 3.550000 3.900000
v 23.115000 3.550000 3.900000
v 23.115000 6.650000 3.900000
v 19.465000 6.650000 3.900000
v 19.465000 3.550000 4.340000
v 23.115000 3.550000 4.340000
v 23.115000 6.650000 4.340000
v 19.465000 6.650000 4.340000
v 19.450001 4.575000 -1.700000
v 19.950001 4.575000 -1.700000
v 19.950001 5.625000 -1.700000
v 19.450001 5.625000 -1.700000
v 19.450001 4.575000 0.400000
v 19.950001 4.575000 0.400000
v 19.950001 5.625000 0.400000
v 19.450001 5.625000 0.400000
v 20.010000 4.110000 0.420000
v 20.309999 4.110000 0.420000
v 20.309999 4.690000 0.420000
v 20.010000 4.690000 0.420000
v 20.010000 4.110000 1.280000
v 20.309999 4.110000 1.280000
v 20.309999 4.690000 1.280000
v 20.010000 4.690000 1.280000
v 20.010000 5.510000 0.420000
v 20.309999 5.510000 0.420000
v 20.309999 6.090000 0.420000
v 20.010000 6.090000 0.420000
v 20.010000 5.510000 1.280000
v 20.309999 5.510000 1.280000
v 20.309999 6.090000 1.280000
v 20.010000 6.090000 1.280000
v 20.010000 4.110000 2.170000
v 20.309999 4.110000 2.170000
v 20.309999 4.690000 2.170000
v 20.010000 4.690000 2.170000
v 20.010000 4.110000 3.030000
v 20.309999 4.110000 3.030000
v 20.309999 4.690000 3.030000
v 20.010000 4.690000 3.030000
v 20.010000 5.510000 2.170000
v 20.309999 5.510000 2.170000
v 20.309999 6.090000 2.170000
v 20.010000 6.090000 2.170000
v 20.010000 5.510000 3.030000
v 20.309999 5.510000 3.030000
v 20.309999 6.090000 3.030000
v 20.010000 6.090000 3.030000
v 19.139999 6.500000 -1.700000
v 21.240000 6.500000 -1.700000
v 21.240000 8.800000 -1.700000
v 19.139999 8.800000 -1.700000
v 19.139999 6.500000 4.700000
v 21.240000 6.500000 4.700000
v 21.240000 8.800000 4.700000
v 19.139999 8.800000 4.700000
v 18.684999 6.350000 4.700000
v 21.334999 6.350000 4.700000
v 21.334999 8.950000 4.700000
v 18.684999 8.950000 4.700000
v 18.684999 6.350000 5.140000
v 21.334999 6.350000 5.140000
v 21.334999 8.950000 5.140000
v 18.684999 8.950000 5.140000
v 19.230000 6.785000 0.420000
v 19.530001 6.785000 0.420000
v 19.530001 7.365000 0.420000
v 19.230000 7.365000 0.420000
v 19.230000 6.785000 1.280000
v 19.530001 6.785000 1.280000
v 19.530001 7.365000 1.280000
v 19.230000 7.365000 1.280000
v 19.230000 7.935000 0.420000
v 19.530001 7.935000 0.420000
v 19.530001 8.515000 0.420000
v 19.230000 8.515000 0.420000
v 19.230000 7.935000 1.280000
v 19.530001 7.935000 1.280000
v 19.530001 8.515000 1.280000
v 19.230000 8.515000 1.280000
v 19.230000 6.785000 2.170000
v 19.530001 6.785000 2.170000
v 19.530001 7.365000 2.170000
v 19.230000 7.365000 2.170000
v 19.230000 6.785000 3.030000
v 19.530001 6.785000 3.030000
v 19.530001 7.365000 3.030000
v 19.230000 7.365000 3.030000
v 19.230000 7.935000 2.170000
v 19.530001 7.935000 2.170000
v 19.530001 8.515000 2.170000
v 19.230000 8.515000 2.170000
v 19.230000 7.935000 3.030000
v 19.530001 7.935000 3.030000
v 19.530001 8.515000 3.030000
v 19.230000 8.515000 3.030000
v 18.670000 6.592000 2.450000
v 19.010000 6.592000 2.450000
v 19.010000 8.708000 2.450000
v 18.670000 8.708000 2.450000
v 18.670000 6.592000 4.350000
v 19.010000 6.592000 4.350000
v 19.010000 8.708000 4.350000
v 18.670000 8.708000 4.350000
v 19.660000 8.800000 -1.700000
v 22.260000 8.800000 -1.700000
v 22.260000 10.800000 -1.700000
v 19.660000 10.800000 -1.700000
v 19.660000 8.800000 4.300000
v 22.260000 8.800000 4.300000
v 22.260000 10.800000 4.300000
v 19.660000 10.800000 4.300000
v 19.205000 8.650000 4.300000
v 22.355000 8.650000 4.300000
v 22.355000 10.950000 4.300000
v 19.205000 10.950000 4.300000
v 19.205000 8.650000 4.740000
v 22.355000 8.650000 4.740000
v 22.355000 10.950000 4.740000
v 19.205000 10.950000 4.740000
v 19.190001 9.275000 -1.700000
v 19.690001 9.275000 -1.700000
v 19.690001 10.325000 -1.700000
v 19.190001 10.325000 -1.700000
v 19.190001 9.275000 0.400000
v 19.690001 9.275000 0.400000
v 19.690001 10.325000 0.400000
v 19.190001 10.325000 0.400000
v 19.750000 9.510000 0.420000
v 20.049999 9.510000 0.420000
v 20.049999 10.090000 0.420000
v 19.750000 10.090000 0.420000
v 19.750000 9.510000 1.280000
v 20.049999 9.510000 1.280000
v 20.049999 10.090000 1.280000
v 19.750000 10.090000 1.280000
v 19.750000 9.510000 2.170000
v 20.049999 9.510000 2.170000
v 20.049999 10.090000 2.170000
v 19.750000 10.090000 2.170000
v 19.750000 9.510000 3.030000
v 20.049999 9.510000 3.030000
v 20.049999 10.090000 3.030000
v 19.750000 10.090000 3.030000
v 18.879999 10.800000 -1.700000
v 21.980000 10.800000 -1.700000
v 21.980000 13.600000 -1.700000
v 18.879999 13.600000 -1.700000
v 18.879999 10.800000 3.900000
v 21.980000 10.800000 3.900000
v 21.980000 13.600000 3.900000
v 18.879999 13.600000 3.900000
v 18.424999 10.650000 3.900000
v 22.075001 10.650000 3.900000
v 22.075001 13.750000 3.900000
v 18.424999 13.750000 3.900000
v 18.424999 10.650000 4.340000
v 22.075001 10.650000 4.340000
v 22.075001 13.750000 4.340000
v 18.424999 13.750000 4.340000
v 18.969999 11.210000 0.420000
v 19.270000 11.210000 0.420000
v 19.270000 11.790000 0.420000
v 18.969999 11.790000 0.420000
v 18.969999 11.210000 1.280000
v 19.270000 11.210000 1.280000
v 19.270000 11.790000 1.280000
v 18.969999 11.790000 1.280000
v 18.969999 12.610000 0.420000
v 19.270000 12.610000 0.420000
v 19.270000 13.190000 0.420000
v 18.969999 13.190000 0.420000
v 18.969999 12.610000 1.280000
v 19.270000 12.610000 1.280000
v 19.270000 13.190000 1.280000
v 18.969999 13.190000 1.280000
v 18.969999 11.210000 2.170000
v 19.270000 11.210000 2.170000
v 19.270000 11.790000 2.170000
v 18.969999 11.790000 2.170000
v 18.969999 11.210000 3.030000
v 19.270000 11.210000 3.030000
v 19.270000 11.790000 3.030000
v 18.969999 11.790000 3.030000
v 18.969999 12.610000 2.170000
v 19.270000 12.610000 2.170000
v 19.270000 13.190000 2.170000
v 18.969999 13.190000 2.170000
v 18.969999 12.610000 3.030000
v 19.270000 12.610000 3.030000
v 19.270000 13.190000 3.030000
v 18.969999 13.190000 3.030000
v 18.410000 10.912000 1.650000
v 18.750000 10.912000 1.650000
v 18.750000 13.488000 1.650000
v 18.410000 13.488000 1.650000
v 18.410000 10.912000 3.550000
v 18.750000 10.912000 3.550000
v 18.750000 13.488000 3.550000
v 18.410000 13.488000 3.550000
v 24.000000 -5.100000 -1.700000
v 28.000000 -5.100000 -1.700000
v 28.000000 1.900000 -1.700000
v 24.000000 1.900000 -1.700000
v 24.000000 -5.100000 5.800000
v 28.000000 -5.100000 5.800000
v 28.000000 1.900000 5.800000
v 24.000000 1.900000 5.800000
v 24.000000 2.900000 -1.700000
v 28.000000 2.900000 -1.700000
v 28.000000 9.900000 -1.700000
v 24.000000 9.900000 -1.700000
v 24.000000 2.900000 7.300000
v 28.000000 2.900000 7.300000
v 28.000000 9.900000 7.300000
v 24.000000 9.900000 7.300000
v 24.000000 10.900000 -1.700000
v 28.000000 10.900000 -1.700000
v 28.000000 17.900000 -1.700000
v 24.000000 17.900000 -1.700000
v 24.000000 10.900000 6.300000
v 28.000000 10.900000 6.300000
v 28.000000 17.900000 6.300000
v 24.000000 17.900000 6.300000
v 9.000000 1.700000 -1.700000
v 10.000000 1.700000 -1.700000
v 10.000000 2.700000 -1.700000
v 9.000000 2.700000 -1.700000
v 9.000000 1.700000 2.700000
v 10.000000 1.700000 2.700000
v 10.000000 2.700000 2.700000
v 9.000000 2.700000 2.700000
v 9.000000 8.300000 -1.700000
v 10.000000 8.300000 -1.700000
v 10.000000 9.300000 -1.700000
v 9.000000 9.300000 -1.700000
v 9.000000 8.300000 2.700000
v 10.000000 8.300000 2.700000
v 10.000000 9.300000 2.700000
v 9.000000 9.300000 2.700000
v 9.000000 1.200000 2.700000
v 10.000000 1.200000 2.700000
v 10.000000 9.800000 2.700000
v 9.000000 9.800000 2.700000
v 9.000000 1.200000 3.900000
v 10.000000 1.200000 3.900000
v 10.000000 9.800000 3.900000
v 9.000000 9.800000 3.900000
vn -0.0000 -0.0000 -1.0000
vn -0.0000 -0.0000 1.0000
vn -0.0000 -1.0000 -0.0000
vn 1.0000 -0.0000 -0.0000
vn -0.0000 1.0000 -0.0000
vn -1.0000 -0.0000 -0.0000
vt 0.479308 0.002758
vt 0.479308 0.595226
vt 0.002758 0.595226
vt 0.002758 0.002758
vt 0.484824 0.002758
vt 0.961374 0.002758
vt 0.961374 0.595226
vt 0.484824 0.595226
vt 0.997242 0.002758
vt 0.997242 0.479308
vt 0.990802 0.479308
vt 0.990802 0.002758
vt 0.973330 0.002758
vt 0.973330 0.595226
vt 0.966890 0.595226
vt 0.966890 0.002758
vt 0.997242 0.484824
vt 0.997242 0.961374
vt 0.990802 0.961374
vt 0.990802 0.484824
vt 0.985286 0.002758
vt 0.985286 0.595226
vt 0.978846 0.595226
vt 0.978846 0.002758
vt 0.908709 0.882612
vt 0.908709 0.912236
vt 0.881661 0.912236
vt 0.881661 0.882612
vt 0.541104 0.886476
vt 0.568151 0.886476
vt 0.568151 0.916099
vt 0.541104 0.916099
vt 0.187107 0.882248
vt 0.160059 0.882248
vt 0.160059 0.799818
vt 0.187107 0.799818
vt 0.873569 0.683172
vt 0.843946 0.683172
vt 0.843946 0.600742
vt 0.873569 0.600742
vt 0.603850 0.882248
vt 0.576803 0.882248
vt 0.576803 0.799818
vt 0.603850 0.799818
vt 0.876145 0.848761
vt 0.846522 0.848761
vt 0.846522 0.766330
vt 0.876145 0.766330
vt 0.454614 0.857497
vt 0.488101 0.857497
vt 0.488101 0.891628
vt 0.454614 0.891628
vt 0.615806 0.891628
vt 0.615806 0.857497
vt 0.649293 0.857497
vt 0.649293 0.891628
vt 0.924120 0.787302
vt 0.924120 0.821433
vt 0.918453 0.821433
vt 0.918453 0.787302
vt 0.460281 0.897144
vt 0.460281 0.930631
vt 0.454614 0.930631
vt 0.454614 0.897144
vt 0.244506 0.892916
vt 0.244506 0.927047
vt 0.238839 0.927047
vt 0.238839 0.892916
vt 0.471464 0.897144
vt 0.471464 0.930631
vt 0.465797 0.930631
vt 0.465797 0.897144
vt 0.009198 0.915820
vt 0.009198 0.929343
vt 0.002758 0.929343
vt 0.002758 0.915820
vt 0.014714 0.915820
vt 0.021154 0.915820
vt 0.021154 0.929343
vt 0.014714 0.929343
vt 0.655795 0.924191
vt 0.649355 0.924191
vt 0.649355 0.897144
vt 0.655795 0.897144
vt 0.361947 0.914812
vt 0.348423 0.914812
vt 0.348423 0.887764
vt 0.361947 0.887764
vt 0.667751 0.924191
vt 0.661311 0.924191
vt 0.661311 0.897144
vt 0.667751 0.897144
vt 0.590327 0.914812
vt 0.576803 0.914812
vt 0.576803 0.887764
vt 0.590327 0.887764
vt 0.894905 0.934344
vt 0.894905 0.941814
vt 0.891041 0.941814
vt 0.891041 0.934344
vt 0.900421 0.934344
vt 0.904285 0.934344
vt 0.904285 0.941814
vt 0.900421 0.941814
vt 0.683509 0.849534
vt 0.679645 0.849534
vt 0.679645 0.838457
vt 0.683509 0.838457
vt 0.062218 0.927540
vt 0.054748 0.927540
vt 0.054748 0.916464
vt 0.062218 0.916464
vt 0.911498 0.928828
vt 0.907634 0.928828
vt 0.907634 0.917752
vt 0.911498 0.917752
vt 0.326678 0.928828
vt 0.319208 0.928828
vt 0.319208 0.917752
vt 0.326678 0.917752
vt 0.006622 0.934859
vt 0.006622 0.942330
vt 0.002758 0.942330
vt 0.002758 0.934859
vt 0.012138 0.934859
vt 0.016002 0.934859
vt 0.016002 0.942330
vt 0.012138 0.942330
vt 0.570940 0.932692
vt 0.567076 0.932692
vt 0.567076 0.921616
vt 0.570940 0.921616
vt 0.339665 0.928828
vt 0.332195 0.928828
vt 0.332195 0.917752
vt 0.339665 0.917752
vt 0.940712 0.611818
vt 0.936849 0.611818
vt 0.936849 0.600742
vt 0.940712 0.600742
vt 0.889132 0.928828
vt 0.881661 0.928828
vt 0.881661 0.917752
vt 0.889132 0.917752
vt 0.762546 0.934859
vt 0.762546 0.942330
vt 0.758682 0.942330
vt 0.758682 0.934859
vt 0.768062 0.934859
vt 0.771926 0.934859
vt 0.771926 0.942330
vt 0.768062 0.942330
vt 0.940713 0.628411
vt 0.936849 0.628411
vt 0.936849 0.617334
vt 0.940713 0.617334
vt 0.902118 0.928828
vt 0.894648 0.928828
vt 0.894648 0.917752
vt 0.902118 0.917752
vt 0.940712 0.645003
vt 0.936849 0.645003
vt 0.936849 0.633927
vt 0.940712 0.633927
vt 0.355893 0.931404
vt 0.348423 0.931404
vt 0.348423 0.920328
vt 0.355893 0.920328
vt 0.740180 0.935503
vt 0.740180 0.942974
vt 0.736316 0.942974
vt 0.736316 0.935503
vt 0.745696 0.935503
vt 0.749560 0.935503
vt 0.749560 0.942974
vt 0.745696 0.942974
vt 0.940713 0.661596
vt 0.936849 0.661596
vt 0.936849 0.650519
vt 0.940713 0.650519
vt 0.584273 0.931404
vt 0.576803 0.931404
vt 0.576803 0.920328
vt 0.584273 0.920328
vt 0.940712 0.678189
vt 0.936849 0.678189
vt 0.936849 0.667112
vt 0.940712 0.667112
vt 0.266703 0.931610
vt 0.259233 0.931610
vt 0.259233 0.920534
vt 0.266703 0.920534
vt 0.036245 0.799454
vt 0.036245 0.825213
vt 0.002758 0.825213
vt 0.002758 0.799454
vt 0.499524 0.909660
vt 0.499524 0.876172
vt 0.525284 0.876172
vt 0.525284 0.909660
vt 0.002758 0.722175
vt 0.036245 0.722175
vt 0.284993 0.882248
vt 0.259233 0.882248
vt 0.259233 0.804970
vt 0.284993 0.804970
vt 0.655733 0.799454
vt 0.622246 0.799454
vt 0.622246 0.722175
vt 0.655733 0.722175
vt 0.316268 0.882248
vt 0.290509 0.882248
vt 0.290509 0.804970
vt 0.316268 0.804970
vt 0.002758 0.830729
vt 0.032381 0.830729
vt 0.032381 0.871300
vt 0.002758 0.871300
vt 0.846522 0.894848
vt 0.846522 0.854277
vt 0.876145 0.854277
vt 0.876145 0.894848
vt 0.821793 0.889416
vt 0.821793 0.929987
vt 0.816126 0.929987
vt 0.816126 0.889416
vt 0.493830 0.897144
vt 0.493830 0.926768
vt 0.488163 0.926768
vt 0.488163 0.897144
vt 0.832976 0.889416
vt 0.832976 0.929987
vt 0.827309 0.929987
vt 0.827309 0.889416
vt 0.621473 0.897144
vt 0.621473 0.926767
vt 0.615806 0.926767
vt 0.615806 0.897144
vt 0.808807 0.935503
vt 0.808807 0.942974
vt 0.804943 0.942974
vt 0.804943 0.935503
vt 0.814323 0.935503
vt 0.818187 0.935503
vt 0.818187 0.942974
vt 0.814323 0.942974
vt 0.940712 0.694781
vt 0.936849 0.694781
vt 0.936849 0.683705
vt 0.940712 0.683705
vt 0.279690 0.931610
vt 0.272219 0.931610
vt 0.272219 0.920534
vt 0.279690 0.920534
vt 0.940712 0.711374
vt 0.936849 0.711374
vt 0.936849 0.700297
vt 0.940712 0.700297
vt 0.292676 0.931610
vt 0.285206 0.931610
vt 0.285206 0.920534
vt 0.292676 0.920534
vt 0.827567 0.935503
vt 0.827567 0.942974
vt 0.823703 0.942974
vt 0.823703 0.935503
vt 0.833083 0.935503
vt 0.836946 0.935503
vt 0.836946 0.942974
vt 0.833083 0.942974
vt 0.940712 0.727966
vt 0.936849 0.727966
vt 0.936849 0.716890
vt 0.940712 0.716890
vt 0.305662 0.931610
vt 0.298192 0.931610
vt 0.298192 0.920534
vt 0.305662 0.920534
vt 0.940712 0.744559
vt 0.936849 0.744559
vt 0.936849 0.733482
vt 0.940712 0.733482
vt 0.853992 0.932412
vt 0.846522 0.932412
vt 0.846522 0.921336
vt 0.853992 0.921336
vt 0.107403 0.910024
vt 0.107403 0.933722
vt 0.103024 0.933722
vt 0.103024 0.910024
vt 0.112919 0.910024
vt 0.117299 0.910024
vt 0.117299 0.933722
vt 0.112919 0.933722
vt 0.398609 0.928055
vt 0.394230 0.928055
vt 0.394230 0.903584
vt 0.398609 0.903584
vt 0.867645 0.713159
vt 0.843946 0.713159
vt 0.843946 0.688688
vt 0.867645 0.688688
vt 0.408505 0.928055
vt 0.404125 0.928055
vt 0.404125 0.903584
vt 0.408505 0.903584
vt 0.342907 0.912236
vt 0.319208 0.912236
vt 0.319208 0.887764
vt 0.342907 0.887764
vt 0.736316 0.850413
vt 0.772379 0.850413
vt 0.772379 0.890340
vt 0.736316 0.890340
vt 0.804943 0.883900
vt 0.804943 0.843973
vt 0.841006 0.843973
vt 0.841006 0.883900
vt 0.081689 0.794302
vt 0.041761 0.794302
vt 0.041761 0.722175
vt 0.081689 0.722175
vt 0.077825 0.871944
vt 0.041761 0.871944
vt 0.041761 0.799818
vt 0.077825 0.799818
vt 0.127132 0.794302
vt 0.087205 0.794302
vt 0.087205 0.722175
vt 0.127132 0.722175
vt 0.119404 0.871944
vt 0.083341 0.871944
vt 0.083341 0.799818
vt 0.119404 0.799818
vt 0.690873 0.804970
vt 0.730800 0.804970
vt 0.730800 0.851981
vt 0.690873 0.851981
vt 0.615806 0.851981
vt 0.615806 0.804970
vt 0.655733 0.804970
vt 0.655733 0.851981
vt 0.924764 0.828517
vt 0.924764 0.875528
vt 0.919097 0.875528
vt 0.919097 0.828517
vt 0.210956 0.892916
vt 0.210956 0.932843
vt 0.205289 0.932843
vt 0.205289 0.892916
vt 0.373130 0.887764
vt 0.373130 0.934775
vt 0.367463 0.934775
vt 0.367463 0.887764
vt 0.222140 0.892916
vt 0.222140 0.932843
vt 0.216472 0.932843
vt 0.216472 0.892916
vt 0.184531 0.774702
vt 0.184531 0.788226
vt 0.178091 0.788226
vt 0.178091 0.774702
vt 0.499524 0.915176
vt 0.505964 0.915176
vt 0.505964 0.928699
vt 0.499524 0.928699
vt 0.679707 0.924191
vt 0.673267 0.924191
vt 0.673267 0.897144
vt 0.679707 0.897144
vt 0.378735 0.798530
vt 0.365211 0.798530
vt 0.365211 0.771482
vt 0.378735 0.771482
vt 0.691663 0.924191
vt 0.685223 0.924191
vt 0.685223 0.897144
vt 0.691663 0.897144
vt 0.488745 0.832017
vt 0.475222 0.832017
vt 0.475222 0.804970
vt 0.488745 0.804970
vt 0.291237 0.937126
vt 0.291237 0.944596
vt 0.287373 0.944596
vt 0.287373 0.937126
vt 0.296753 0.937126
vt 0.300617 0.937126
vt 0.300617 0.944596
vt 0.296753 0.944596
vt 0.407989 0.944648
vt 0.404125 0.944648
vt 0.404125 0.933571
vt 0.407989 0.933571
vt 0.548574 0.932692
vt 0.541104 0.932692
vt 0.541104 0.921616
vt 0.548574 0.921616
vt 0.417885 0.944648
vt 0.414021 0.944648
vt 0.414021 0.933571
vt 0.417885 0.933571
vt 0.561560 0.932692
vt 0.554090 0.932692
vt 0.554090 0.921616
vt 0.561560 0.921616
vt 0.309997 0.937126
vt 0.309997 0.944596
vt 0.306133 0.944596
vt 0.306133 0.937126
vt 0.846522 0.937928
vt 0.850386 0.937928
vt 0.850386 0.945398
vt 0.846522 0.945398
vt 0.427264 0.944648
vt 0.423401 0.944648
vt 0.423401 0.933571
vt 0.427264 0.933571
vt 0.132390 0.933980
vt 0.124920 0.933980
vt 0.124920 0.922903
vt 0.132390 0.922903
vt 0.436644 0.944648
vt 0.432781 0.944648
vt 0.432781 0.933571
vt 0.436644 0.933571
vt 0.145376 0.933980
vt 0.137906 0.933980
vt 0.137906 0.922903
vt 0.145376 0.922903
vt 0.544968 0.938208
vt 0.544968 0.945678
vt 0.541104 0.945678
vt 0.541104 0.938208
vt 0.550484 0.938208
vt 0.554348 0.938208
vt 0.554348 0.945678
vt 0.550484 0.945678
vt 0.446024 0.944648
vt 0.442160 0.944648
vt 0.442160 0.933571
vt 0.446024 0.933571
vt 0.158363 0.933980
vt 0.150892 0.933980
vt 0.150892 0.922903
vt 0.158363 0.922903
vt 0.922961 0.944648
vt 0.919097 0.944648
vt 0.919097 0.933571
vt 0.922961 0.933571
vt 0.171349 0.933980
vt 0.163879 0.933980
vt 0.163879 0.922903
vt 0.171349 0.922903
vt 0.563728 0.938208
vt 0.563728 0.945678
vt 0.559864 0.945678
vt 0.559864 0.938208
vt 0.194106 0.938359
vt 0.197970 0.938359
vt 0.197970 0.945829
vt 0.194106 0.945829
vt 0.599707 0.944928
vt 0.595843 0.944928
vt 0.595843 0.933851
vt 0.599707 0.933851
vt 0.184335 0.933980
vt 0.176865 0.933980
vt 0.176865 0.922903
vt 0.184335 0.922903
vt 0.609086 0.944928
vt 0.605223 0.944928
vt 0.605223 0.933851
vt 0.609086 0.933851
vt 0.937106 0.798379
vt 0.929636 0.798379
vt 0.929636 0.787302
vt 0.937106 0.787302
vt 0.151967 0.887764
vt 0.151967 0.917387
vt 0.124920 0.917387
vt 0.124920 0.887764
vt 0.157483 0.887764
vt 0.184531 0.887764
vt 0.184531 0.917387
vt 0.157483 0.917387
vt 0.221154 0.887400
vt 0.194106 0.887400
vt 0.194106 0.804970
vt 0.221154 0.804970
vt 0.570727 0.880960
vt 0.541104 0.880960
vt 0.541104 0.798530
vt 0.570727 0.798530
vt 0.253717 0.887400
vt 0.226670 0.887400
vt 0.226670 0.804970
vt 0.253717 0.804970
vt 0.154543 0.882248
vt 0.124920 0.882248
vt 0.124920 0.799818
vt 0.154543 0.799818
vt 0.654810 0.857497
vt 0.688297 0.857497
vt 0.688297 0.891628
vt 0.654810 0.891628
vt 0.693813 0.891628
vt 0.693813 0.857497
vt 0.727300 0.857497
vt 0.727300 0.891628
vt 0.741983 0.895856
vt 0.741983 0.929987
vt 0.736316 0.929987
vt 0.736316 0.895856
vt 0.764349 0.895856
vt 0.764349 0.929343
vt 0.758682 0.929343
vt 0.758682 0.895856
vt 0.753166 0.895856
vt 0.753166 0.929987
vt 0.747499 0.929987
vt 0.747499 0.895856
vt 0.482647 0.897144
vt 0.482647 0.930631
vt 0.476980 0.930631
vt 0.476980 0.897144
vt 0.724955 0.935838
vt 0.724955 0.943309
vt 0.721091 0.943309
vt 0.721091 0.935838
vt 0.454614 0.936147
vt 0.458478 0.936147
vt 0.458478 0.943618
vt 0.454614 0.943618
vt 0.940712 0.761152
vt 0.936849 0.761152
vt 0.936849 0.750075
vt 0.940712 0.750075
vt 0.937106 0.814971
vt 0.929636 0.814971
vt 0.929636 0.803895
vt 0.937106 0.803895
vt 0.940712 0.777744
vt 0.936849 0.777744
vt 0.936849 0.766668
vt 0.940712 0.766668
vt 0.937750 0.839594
vt 0.930280 0.839594
vt 0.930280 0.828517
vt 0.937750 0.828517
vt 0.323072 0.934344
vt 0.323072 0.941814
vt 0.319208 0.941814
vt 0.319208 0.934344
vt 0.328588 0.934344
vt 0.332452 0.934344
vt 0.332452 0.941814
vt 0.328588 0.941814
vt 0.492027 0.943360
vt 0.488163 0.943360
vt 0.488163 0.932283
vt 0.492027 0.932283
vt 0.034140 0.926896
vt 0.026670 0.926896
vt 0.026670 0.915820
vt 0.034140 0.915820
vt 0.632656 0.943360
vt 0.628792 0.943360
vt 0.628792 0.932283
vt 0.632656 0.932283
vt 0.080507 0.927231
vt 0.073037 0.927231
vt 0.073037 0.916155
vt 0.080507 0.916155
vt 0.467858 0.936147
vt 0.467858 0.943618
vt 0.463994 0.943618
vt 0.463994 0.936147
vt 0.473374 0.936147
vt 0.477238 0.936147
vt 0.477238 0.943618
vt 0.473374 0.943618
vt 0.642036 0.943360
vt 0.638172 0.943360
vt 0.638172 0.932283
vt 0.642036 0.932283
vt 0.937750 0.856186
vt 0.930280 0.856186
vt 0.930280 0.845110
vt 0.937750 0.845110
vt 0.030534 0.943489
vt 0.026670 0.943489
vt 0.026670 0.932412
vt 0.030534 0.932412
vt 0.937750 0.872779
vt 0.930280 0.872779
vt 0.930280 0.861702
vt 0.937750 0.861702
vt 0.341832 0.934344
vt 0.341832 0.941814
vt 0.337968 0.941814
vt 0.337968 0.934344
vt 0.881661 0.934344
vt 0.885525 0.934344
vt 0.885525 0.941814
vt 0.881661 0.941814
vt 0.242703 0.943640
vt 0.238839 0.943640
vt 0.238839 0.932563
vt 0.242703 0.932563
vt 0.093493 0.927231
vt 0.086023 0.927231
vt 0.086023 0.916155
vt 0.093493 0.916155
vt 0.252083 0.943640
vt 0.248219 0.943640
vt 0.248219 0.932563
vt 0.252083 0.932563
vt 0.049232 0.927540
vt 0.041761 0.927540
vt 0.041761 0.916464
vt 0.049232 0.916464
vt 0.869297 0.900364
vt 0.869297 0.927617
vt 0.864918 0.927617
vt 0.864918 0.900364
vt 0.384335 0.903584
vt 0.388714 0.903584
vt 0.388714 0.930837
vt 0.384335 0.930837
vt 0.418400 0.928055
vt 0.414021 0.928055
vt 0.414021 0.903584
vt 0.418400 0.903584
vt 0.283705 0.887764
vt 0.283705 0.915018
vt 0.259233 0.915018
vt 0.259233 0.887764
vt 0.428295 0.928055
vt 0.423916 0.928055
vt 0.423916 0.903584
vt 0.428295 0.903584
vt 0.313692 0.887764
vt 0.313692 0.915018
vt 0.289221 0.915018
vt 0.289221 0.887764
vt 0.002758 0.876816
vt 0.028517 0.876816
vt 0.028517 0.910304
vt 0.002758 0.910304
vt 0.041761 0.910948
vt 0.041761 0.877460
vt 0.067521 0.877460
vt 0.067521 0.910948
vt 0.838430 0.678020
vt 0.804943 0.678020
vt 0.804943 0.600742
vt 0.838430 0.600742
vt 0.347544 0.882248
vt 0.321784 0.882248
vt 0.321784 0.804970
vt 0.347544 0.804970
vt 0.838430 0.760814
vt 0.804943 0.760814
vt 0.804943 0.683536
vt 0.838430 0.683536
vt 0.378819 0.882248
vt 0.353060 0.882248
vt 0.353060 0.804970
vt 0.378819 0.804970
vt 0.384335 0.857497
vt 0.413959 0.857497
vt 0.413959 0.898068
vt 0.384335 0.898068
vt 0.419475 0.898068
vt 0.419475 0.857497
vt 0.449098 0.857497
vt 0.449098 0.898068
vt 0.601510 0.887764
vt 0.601510 0.928335
vt 0.595843 0.928335
vt 0.595843 0.887764
vt 0.632656 0.897144
vt 0.632656 0.926767
vt 0.626989 0.926767
vt 0.626989 0.897144
vt 0.810610 0.889416
vt 0.810610 0.929987
vt 0.804943 0.929987
vt 0.804943 0.889416
vt 0.643839 0.897144
vt 0.643839 0.926767
vt 0.638172 0.926767
vt 0.638172 0.897144
vt 0.517920 0.915176
vt 0.517920 0.928699
vt 0.511480 0.928699
vt 0.511480 0.915176
vt 0.523436 0.915176
vt 0.529876 0.915176
vt 0.529876 0.928699
vt 0.523436 0.928699
vt 0.703619 0.924191
vt 0.697179 0.924191
vt 0.697179 0.897144
vt 0.703619 0.897144
vt 0.116548 0.904508
vt 0.103024 0.904508
vt 0.103024 0.877460
vt 0.116548 0.877460
vt 0.715575 0.924191
vt 0.709135 0.924191
vt 0.709135 0.897144
vt 0.715575 0.897144
vt 0.913581 0.855565
vt 0.900057 0.855565
vt 0.900057 0.828517
vt 0.913581 0.828517
vt 0.207350 0.938359
vt 0.207350 0.945830
vt 0.203486 0.945830
vt 0.203486 0.938359
vt 0.212866 0.938359
vt 0.216730 0.938359
vt 0.216730 0.945830
vt 0.212866 0.945830
vt 0.503388 0.945292
vt 0.499524 0.945292
vt 0.499524 0.934215
vt 0.503388 0.934215
vt 0.937750 0.889372
vt 0.930280 0.889372
vt 0.930280 0.878295
vt 0.937750 0.878295
vt 0.512768 0.945292
vt 0.508904 0.945292
vt 0.508904 0.934215
vt 0.512768 0.934215
vt 0.937750 0.905964
vt 0.930280 0.905964
vt 0.930280 0.894888
vt 0.937750 0.894888
vt 0.226110 0.938359
vt 0.226110 0.945830
vt 0.222246 0.945830
vt 0.222246 0.938359
vt 0.942622 0.787302
vt 0.946486 0.787302
vt 0.946486 0.794772
vt 0.942622 0.794772
vt 0.522148 0.945292
vt 0.518284 0.945292
vt 0.518284 0.934215
vt 0.522148 0.934215
vt 0.937750 0.922557
vt 0.930280 0.922557
vt 0.930280 0.911480
vt 0.937750 0.911480
vt 0.531528 0.945292
vt 0.527664 0.945292
vt 0.527664 0.934215
vt 0.531528 0.934215
vt 0.937750 0.939149
vt 0.930280 0.939149
vt 0.930280 0.928073
vt 0.937750 0.928073
vt 0.736316 0.804970
vt 0.772379 0.804970
vt 0.772379 0.844897
vt 0.736316 0.844897
vt 0.843946 0.760814
vt 0.843946 0.720887
vt 0.880009 0.720887
vt 0.880009 0.760814
vt 0.172575 0.794302
vt 0.132648 0.794302
vt 0.132648 0.722175
vt 0.172575 0.722175
vt 0.841006 0.838457
vt 0.804943 0.838457
vt 0.804943 0.766330
vt 0.841006 0.766330
vt 0.616730 0.794302
vt 0.576803 0.794302
vt 0.576803 0.722175
vt 0.616730 0.722175
vt 0.535588 0.870656
vt 0.499524 0.870656
vt 0.499524 0.798530
vt 0.535588 0.798530
vt 0.384335 0.804970
vt 0.424262 0.804970
vt 0.424262 0.851981
vt 0.384335 0.851981
vt 0.429778 0.851981
vt 0.429778 0.804970
vt 0.469706 0.804970
vt 0.469706 0.851981
vt 0.924764 0.881044
vt 0.924764 0.928055
vt 0.919097 0.928055
vt 0.919097 0.881044
vt 0.199773 0.892916
vt 0.199773 0.932843
vt 0.194106 0.932843
vt 0.194106 0.892916
vt 0.183758 0.722175
vt 0.183758 0.769186
vt 0.178091 0.769186
vt 0.178091 0.722175
vt 0.233323 0.892916
vt 0.233323 0.932843
vt 0.227656 0.932843
vt 0.227656 0.892916
vt 0.388199 0.936354
vt 0.388199 0.943824
vt 0.384335 0.943824
vt 0.384335 0.936354
vt 0.348423 0.936920
vt 0.352287 0.936920
vt 0.352287 0.944390
vt 0.348423 0.944390
vt 0.076901 0.943824
vt 0.073037 0.943824
vt 0.073037 0.932747
vt 0.076901 0.932747
vt 0.785365 0.940420
vt 0.777895 0.940420
vt 0.777895 0.929343
vt 0.785365 0.929343
vt 0.086281 0.943824
vt 0.082417 0.943824
vt 0.082417 0.932747
vt 0.086281 0.932747
vt 0.798352 0.940420
vt 0.790881 0.940420
vt 0.790881 0.929343
vt 0.798352 0.929343
vt 0.361667 0.936920
vt 0.361667 0.944390
vt 0.357803 0.944390
vt 0.357803 0.936920
vt 0.576803 0.936920
vt 0.580667 0.936920
vt 0.580667 0.944390
vt 0.576803 0.944390
vt 0.095661 0.943824
vt 0.091797 0.943824
vt 0.091797 0.932747
vt 0.095661 0.932747
vt 0.656826 0.940784
vt 0.649355 0.940784
vt 0.649355 0.929708
vt 0.656826 0.929708
vt 0.045625 0.944133
vt 0.041761 0.944133
vt 0.041761 0.933056
vt 0.045625 0.933056
vt 0.669812 0.940784
vt 0.662342 0.940784
vt 0.662342 0.929708
vt 0.669812 0.929708
vt 0.590047 0.936920
vt 0.590047 0.944390
vt 0.586183 0.944390
vt 0.586183 0.936920
vt 0.259233 0.937126
vt 0.263097 0.937126
vt 0.263097 0.944596
vt 0.259233 0.944596
vt 0.055005 0.944133
vt 0.051141 0.944133
vt 0.051141 0.933056
vt 0.055005 0.933056
vt 0.682798 0.940784
vt 0.675328 0.940784
vt 0.675328 0.929708
vt 0.682798 0.929708
vt 0.064385 0.944133
vt 0.060521 0.944133
vt 0.060521 0.933056
vt 0.064385 0.933056
vt 0.695784 0.940784
vt 0.688314 0.940784
vt 0.688314 0.929708
vt 0.695784 0.929708
vt 0.272477 0.937126
vt 0.272477 0.944596
vt 0.268613 0.944596
vt 0.268613 0.937126
vt 0.277993 0.937126
vt 0.281857 0.937126
vt 0.281857 0.944596
vt 0.277993 0.944596
vt 0.868782 0.944210
vt 0.864918 0.944210
vt 0.864918 0.933134
vt 0.868782 0.933134
vt 0.708771 0.940784
vt 0.701301 0.940784
vt 0.701301 0.929708
vt 0.708771 0.929708
vt 0.398094 0.944648
vt 0.394230 0.944648
vt 0.394230 0.933571
vt 0.398094 0.933571
vt 0.623276 0.943360
vt 0.615806 0.943360
vt 0.615806 0.932283
vt 0.623276 0.932283
vt 0.535179 0.876172
vt 0.535179 0.909351
vt 0.530800 0.909351
vt 0.530800 0.876172
vt 0.721091 0.897144
vt 0.725470 0.897144
vt 0.725470 0.930322
vt 0.721091 0.930322
vt 0.438190 0.928055
vt 0.433811 0.928055
vt 0.433811 0.903584
vt 0.438190 0.903584
vt 0.097508 0.877460
vt 0.097508 0.910639
vt 0.073037 0.910639
vt 0.073037 0.877460
vt 0.448085 0.928055
vt 0.443706 0.928055
vt 0.443706 0.903584
vt 0.448085 0.903584
vt 0.909997 0.720887
vt 0.909997 0.754065
vt 0.885525 0.754065
vt 0.885525 0.720887
vt 0.551043 0.702856
vt 0.551043 0.793014
vt 0.499525 0.793014
vt 0.499525 0.702856
vt 0.194106 0.709296
vt 0.245625 0.709296
vt 0.245625 0.799454
vt 0.194106 0.799454
vt 0.436974 0.799454
vt 0.385455 0.799454
vt 0.385455 0.702856
vt 0.436974 0.702856
vt 0.475613 0.697340
vt 0.385455 0.697340
vt 0.385455 0.600742
vt 0.475613 0.600742
vt 0.494008 0.799454
vt 0.442490 0.799454
vt 0.442490 0.702856
vt 0.494008 0.702856
vt 0.571287 0.697340
vt 0.481129 0.697340
vt 0.481129 0.600742
vt 0.571287 0.600742
vt 0.742392 0.709296
vt 0.742392 0.799454
vt 0.690873 0.799454
vt 0.690873 0.709296
vt 0.747908 0.709296
vt 0.799427 0.709296
vt 0.799427 0.799454
vt 0.747908 0.799454
vt 0.628322 0.716659
vt 0.576803 0.716659
vt 0.576803 0.600742
vt 0.628322 0.600742
vt 0.092916 0.716659
vt 0.002758 0.716659
vt 0.002758 0.600742
vt 0.092916 0.600742
vt 0.685357 0.716659
vt 0.633838 0.716659
vt 0.633838 0.600742
vt 0.685357 0.600742
vt 0.188590 0.716659
vt 0.098432 0.716659
vt 0.098432 0.600742
vt 0.188590 0.600742
vt 0.302660 0.709296
vt 0.302660 0.799454
vt 0.251141 0.799454
vt 0.251141 0.709296
vt 0.308176 0.709296
vt 0.359695 0.709296
vt 0.359695 0.799454
vt 0.308176 0.799454
vt 0.742392 0.703780
vt 0.690873 0.703780
vt 0.690873 0.600742
vt 0.742392 0.600742
vt 0.284264 0.703780
vt 0.194106 0.703780
vt 0.194106 0.600742
vt 0.284264 0.600742
vt 0.799427 0.703780
vt 0.747908 0.703780
vt 0.747908 0.600742
vt 0.799427 0.600742
vt 0.379939 0.703780
vt 0.289780 0.703780
vt 0.289780 0.600742
vt 0.379939 0.600742
vt 0.569439 0.759526
vt 0.569439 0.772406
vt 0.556559 0.772406
vt 0.556559 0.759526
vt 0.556559 0.777922
vt 0.569439 0.777922
vt 0.569439 0.790802
vt 0.556559 0.790802
vt 0.556559 0.702856
vt 0.569439 0.702856
vt 0.378091 0.765966
vt 0.365211 0.765966
vt 0.365211 0.709296
vt 0.378091 0.709296
vt 0.790775 0.861641
vt 0.777895 0.861641
vt 0.777895 0.804970
vt 0.790775 0.804970
vt 0.912937 0.823001
vt 0.900057 0.823001
vt 0.900057 0.766330
vt 0.912937 0.766330
vt 0.475222 0.837533
vt 0.488101 0.837533
vt 0.488101 0.850413
vt 0.475222 0.850413
vt 0.661249 0.851337
vt 0.661249 0.838457
vt 0.674129 0.838457
vt 0.674129 0.851337
vt 0.790775 0.923827
vt 0.777895 0.923827
vt 0.777895 0.867157
vt 0.790775 0.867157
vt 0.931333 0.657412
vt 0.918453 0.657412
vt 0.918453 0.600742
vt 0.931333 0.600742
vt 0.931333 0.719599
vt 0.918453 0.719599
vt 0.918453 0.662928
vt 0.931333 0.662928
vt 0.931333 0.781786
vt 0.918453 0.781786
vt 0.918453 0.725115
vt 0.931333 0.725115
vt 0.894541 0.766331
vt 0.894541 0.877096
vt 0.881661 0.877096
vt 0.881661 0.766331
vt 0.900057 0.600742
vt 0.912937 0.600742
vt 0.912937 0.711507
vt 0.900057 0.711507
vt 0.912937 0.876537
vt 0.900057 0.876537
vt 0.900057 0.861081
vt 0.912937 0.861081
vt 0.676705 0.722175
vt 0.676705 0.832941
vt 0.661249 0.832941
vt 0.661249 0.722175
vt 0.859402 0.915820
vt 0.846522 0.915820
vt 0.846522 0.900364
vt 0.859402 0.900364
vt 0.894541 0.600742
vt 0.894541 0.711507
vt 0.879085 0.711507
vt 0.879085 0.600742
s 0
usemtl TOWN_BAKED
f 1/1/1 4/2/1 3/3/1 2/4/1
f 5/5/2 6/6/2 7/7/2 8/8/2
f 1/9/3 2/10/3 6/11/3 5/12/3
f 2/13/4 3/14/4 7/15/4 6/16/4
f 3/17/5 4/18/5 8/19/5 7/20/5
f 4/21/6 1/22/6 5/23/6 8/24/6
f 9/25/1 12/26/1 11/27/1 10/28/1
f 13/29/2 14/30/2 15/31/2 16/32/2
f 9/33/3 10/34/3 14/35/3 13/36/3
f 10/37/4 11/38/4 15/39/4 14/40/4
f 11/41/5 12/42/5 16/43/5 15/44/5
f 12/45/6 9/46/6 13/47/6 16/48/6
f 17/49/1 20/50/1 19/51/1 18/52/1
f 21/53/2 22/54/2 23/55/2 24/56/2
f 17/57/3 18/58/3 22/59/3 21/60/3
f 18/61/4 19/62/4 23/63/4 22/64/4
f 19/65/5 20/66/5 24/67/5 23/68/5
f 20/69/6 17/70/6 21/71/6 24/72/6
f 25/73/1 28/74/1 27/75/1 26/76/1
f 29/77/2 30/78/2 31/79/2 32/80/2
f 25/81/3 26/82/3 30/83/3 29/84/3
f 26/85/4 27/86/4 31/87/4 30/88/4
f 27/89/5 28/90/5 32/91/5 31/92/5
f 28/93/6 25/94/6 29/95/6 32/96/6
f 33/97/1 36/98/1 35/99/1 34/100/1
f 37/101/2 38/102/2 39/103/2 40/104/2
f 33/105/3 34/106/3 38/107/3 37/108/3
f 34/109/4 35/110/4 39/111/4 38/112/4
f 35/113/5 36/114/5 40/115/5 39/116/5
f 36/117/6 33/118/6 37/119/6 40/120/6
f 41/121/1 44/122/1 43/123/1 42/124/1
f 45/125/2 46/126/2 47/127/2 48/128/2
f 41/129/3 42/130/3 46/131/3 45/132/3
f 42/133/4 43/134/4 47/135/4 46/136/4
f 43/137/5 44/138/5 48/139/5 47/140/5
f 44/141/6 41/142/6 45/143/6 48/144/6
f 49/145/1 52/146/1 51/147/1 50/148/1
f 53/149/2 54/150/2 55/151/2 56/152/2
f 49/153/3 50/154/3 54/155/3 53/156/3
f 50/157/4 51/158/4 55/159/4 54/160/4
f 51/161/5 52/162/5 56/163/5 55/164/5
f 52/165/6 49/166/6 53/167/6 56/168/6
f 57/169/1 60/170/1 59/171/1 58/172/1
f 61/173/2 62/174/2 63/175/2 64/176/2
f 57/177/3 58/178/3 62/179/3 61/180/3
f 58/181/4 59/182/4 63/183/4 62/184/4
f 59/185/5 60/186/5 64/187/5 63/188/5
f 60/189/6 57/190/6 61/191/6 64/192/6
f 65/193/1 68/194/1 67/195/1 66/196/1
f 69/197/2 70/198/2 71/199/2 72/200/2
f 65/193/3 66/196/3 70/201/3 69/202/3
f 66/203/4 67/204/4 71/205/4 70/206/4
f 67/207/5 68/208/5 72/209/5 71/210/5
f 68/211/6 65/212/6 69/213/6 72/214/6
f 73/215/1 76/216/1 75/217/1 74/218/1
f 77/219/2 78/220/2 79/221/2 80/222/2
f 73/223/3 74/224/3 78/225/3 77/226/3
f 74/227/4 75/228/4 79/229/4 78/230/4
f 75/231/5 76/232/5 80/233/5 79/234/5
f 76/235/6 73/236/6 77/237/6 80/238/6
f 81/239/1 84/240/1 83/241/1 82/242/1
f 85/243/2 86/244/2 87/245/2 88/246/2
f 81/247/3 82/248/3 86/249/3 85/250/3
f 82/251/4 83/252/4 87/253/4 86/254/4
f 83/255/5 84/256/5 88/257/5 87/258/5
f 84/259/6 81/260/6 85/261/6 88/262/6
f 89/263/1 92/264/1 91/265/1 90/266/1
f 93/267/2 94/268/2 95/269/2 96/270/2
f 89/271/3 90/272/3 94/273/3 93/274/3
f 90/275/4 91/276/4 95/277/4 94/278/4
f 91/279/5 92/280/5 96/281/5 95/282/5
f 92/283/6 89/284/6 93/285/6 96/286/6
f 97/287/1 100/288/1 99/289/1 98/290/1
f 101/291/2 102/292/2 103/293/2 104/294/2
f 97/295/3 98/296/3 102/297/3 101/298/3
f 98/299/4 99/300/4 103/301/4 102/302/4
f 99/303/5 100/304/5 104/305/5 103/306/5
f 100/307/6 97/308/6 101/309/6 104/310/6
f 105/311/1 108/312/1 107/313/1 106/314/1
f 109/315/2 110/316/2 111/317/2 112/318/2
f 105/319/3 106/320/3 110/321/3 109/322/3
f 106/323/4 107/324/4 111/325/4 110/326/4
f 107/327/5 108/328/5 112/329/5 111/330/5
f 108/331/6 105/332/6 109/333/6 112/334/6
f 113/335/1 116/336/1 115/337/1 114/338/1
f 117/339/2 118/340/2 119/341/2 120/342/2
f 113/343/3 114/344/3 118/345/3 117/346/3
f 114/347/4 115/348/4 119/349/4 118/350/4
f 115/351/5 116/352/5 120/353/5 119/354/5
f 116/355/6 113/356/6 117/357/6 120/358/6
f 121/359/1 124/360/1 123/361/1 122/362/1
f 125/363/2 126/364/2 127/365/2 128/366/2
f 121/367/3 122/368/3 126/369/3 125/370/3
f 122/371/4 123/372/4 127/373/4 126/374/4
f 123/375/5 124/376/5 128/377/5 127/378/5
f 124/379/6 121/380/6 125/381/6 128/382/6
f 129/383/1 132/384/1 131/385/1 130/386/1
f 133/387/2 134/388/2 135/389/2 136/390/2
f 129/391/3 130/392/3 134/393/3 133/394/3
f 130/395/4 131/396/4 135/397/4 134/398/4
f 131/399/5 132/400/5 136/401/5 135/402/5
f 132/403/6 129/404/6 133/405/6 136/406/6
f 137/407/1 140/408/1 139/409/1 138/410/1
f 141/411/2 142/412/2 143/413/2 144/414/2
f 137/415/3 138/416/3 142/417/3 141/418/3
f 138/419/4 139/420/4 143/421/4 142/422/4
f 139/423/5 140/424/5 144/425/5 143/426/5
f 140/427/6 137/428/6 141/429/6 144/430/6
f 145/431/1 148/432/1 147/433/1 146/434/1
f 149/435/2 150/436/2 151/437/2 152/438/2
f 145/439/3 146/440/3 150/441/3 149/442/3
f 146/443/4 147/444/4 151/445/4 150/446/4
f 147/447/5 148/448/5 152/449/5 151/450/5
f 148/451/6 145/452/6 149/453/6 152/454/6
f 153/455/1 156/456/1 155/457/1 154/458/1
f 157/459/2 158/460/2 159/461/2 160/462/2
f 153/463/3 154/464/3 158/465/3 157/466/3
f 154/467/4 155/468/4 159/469/4 158/470/4
f 155/471/5 156/472/5 160/473/5 159/474/5
f 156/475/6 153/476/6 157/477/6 160/478/6
f 161/479/1 164/480/1 163/481/1 162/482/1
f 165/483/2 166/484/2 167/485/2 168/486/2
f 161/487/3 162/488/3 166/489/3 165/490/3
f 162/491/4 163/492/4 167/493/4 166/494/4
f 163/495/5 164/496/5 168/497/5 167/498/5
f 164/499/6 161/500/6 165/501/6 168/502/6
f 169/503/1 172/504/1 171/505/1 170/506/1
f 173/507/2 174/508/2 175/509/2 176/510/2
f 169/511/3 170/512/3 174/513/3 173/514/3
f 170/515/4 171/516/4 175/517/4 174/518/4
f 171/519/5 172/520/5 176/521/5 175/522/5
f 172/523/6 169/524/6 173/525/6 176/526/6
f 177/527/1 180/528/1 179/529/1 178/530/1
f 181/531/2 182/532/2 183/533/2 184/534/2
f 177/535/3 178/536/3 182/537/3 181/538/3
f 178/539/4 179/540/4 183/541/4 182/542/4
f 179/543/5 180/544/5 184/545/5 183/546/5
f 180/547/6 177/548/6 181/549/6 184/550/6
f 185/551/1 188/552/1 187/553/1 186/554/1
f 189/555/2 190/556/2 191/557/2 192/558/2
f 185/559/3 186/560/3 190/561/3 189/562/3
f 186/563/4 187/564/4 191/565/4 190/566/4
f 187/567/5 188/568/5 192/569/5 191/570/5
f 188/571/6 185/572/6 189/573/6 192/574/6
f 193/575/1 196/576/1 195/577/1 194/578/1
f 197/579/2 198/580/2 199/581/2 200/582/2
f 193/583/3 194/584/3 198/585/3 197/586/3
f 194/587/4 195/588/4 199/589/4 198/590/4
f 195/591/5 196/592/5 200/593/5 199/594/5
f 196/595/6 193/596/6 197/597/6 200/598/6
f 201/599/1 204/600/1 203/601/1 202/602/1
f 205/603/2 206/604/2 207/605/2 208/606/2
f 201/607/3 202/608/3 206/609/3 205/610/3
f 202/611/4 203/612/4 207/613/4 206/614/4
f 203/615/5 204/616/5 208/617/5 207/618/5
f 204/619/6 201/620/6 205/621/6 208/622/6
f 209/623/1 212/624/1 211/625/1 210/626/1
f 213/627/2 214/628/2 215/629/2 216/630/2
f 209/631/3 210/632/3 214/633/3 213/634/3
f 210/635/4 211/636/4 215/637/4 214/638/4
f 211/639/5 212/640/5 216/641/5 215/642/5
f 212/643/6 209/644/6 213/645/6 216/646/6
f 217/647/1 220/648/1 219/649/1 218/650/1
f 221/651/2 222/652/2 223/653/2 224/654/2
f 217/655/3 218/656/3 222/657/3 221/658/3
f 218/659/4 219/660/4 223/661/4 222/662/4
f 219/663/5 220/664/5 224/665/5 223/666/5
f 220/667/6 217/668/6 221/669/6 224/670/6
f 225/671/1 228/672/1 227/673/1 226/674/1
f 229/675/2 230/676/2 231/677/2 232/678/2
f 225/679/3 226/680/3 230/681/3 229/682/3
f 226/683/4 227/684/4 231/685/4 230/686/4
f 227/687/5 228/688/5 232/689/5 231/690/5
f 228/691/6 225/692/6 229/693/6 232/694/6
f 233/695/1 236/696/1 235/697/1 234/698/1
f 237/699/2 238/700/2 239/701/2 240/702/2
f 233/703/3 234/704/3 238/705/3 237/706/3
f 234/707/4 235/708/4 239/709/4 238/710/4
f 235/711/5 236/712/5 240/713/5 239/714/5
f 236/715/6 233/716/6 237/717/6 240/718/6
f 241/719/1 244/720/1 243/721/1 242/722/1
f 245/723/2 246/724/2 247/725/2 248/726/2
f 241/727/3 242/728/3 246/729/3 245/730/3
f 242/731/4 243/732/4 247/733/4 246/734/4
f 243/735/5 244/736/5 248/737/5 247/738/5
f 244/739/6 241/740/6 245/741/6 248/742/6
f 249/743/1 252/744/1 251/745/1 250/746/1
f 253/747/2 254/748/2 255/749/2 256/750/2
f 249/751/3 250/752/3 254/753/3 253/754/3
f 250/755/4 251/756/4 255/757/4 254/758/4
f 251/759/5 252/760/5 256/761/5 255/762/5
f 252/763/6 249/764/6 253/765/6 256/766/6
f 257/767/1 260/768/1 259/769/1 258/770/1
f 261/771/2 262/772/2 263/773/2 264/774/2
f 257/775/3 258/776/3 262/777/3 261/778/3
f 258/779/4 259/780/4 263/781/4 262/782/4
f 259/783/5 260/784/5 264/785/5 263/786/5
f 260/787/6 257/788/6 261/789/6 264/790/6
f 265/791/1 268/792/1 267/793/1 266/794/1
f 269/795/2 270/796/2 271/797/2 272/798/2
f 265/799/3 266/800/3 270/801/3 269/802/3
f 266/803/4 267/804/4 271/805/4 270/806/4
f 267/807/5 268/808/5 272/809/5 271/810/5
f 268/811/6 265/812/6 269/813/6 272/814/6
f 273/815/1 276/816/1 275/817/1 274/818/1
f 277/819/2 278/820/2 279/821/2 280/822/2
f 273/823/3 274/824/3 278/825/3 277/826/3
f 274/827/4 275/828/4 279/829/4 278/830/4
f 275/831/5 276/832/5 280/833/5 279/834/5
f 276/835/6 273/836/6 277/837/6 280/838/6
f 281/839/1 284/840/1 283/841/1 282/842/1
f 285/843/2 286/844/2 287/845/2 288/846/2
f 281/847/3 282/848/3 286/849/3 285/850/3
f 282/851/4 283/852/4 287/853/4 286/854/4
f 283/855/5 284/856/5 288/857/5 287/858/5
f 284/859/6 281/860/6 285/861/6 288/862/6
f 289/863/1 292/864/1 291/865/1 290/866/1
f 293/867/2 294/868/2 295/869/2 296/870/2
f 289/871/3 290/872/3 294/873/3 293/874/3
f 290/875/4 291/876/4 295/877/4 294/878/4
f 291/879/5 292/880/5 296/881/5 295/882/5
f 292/883/6 289/884/6 293/885/6 296/886/6
f 297/887/1 300/888/1 299/889/1 298/890/1
f 301/891/2 302/892/2 303/893/2 304/894/2
f 297/895/3 298/896/3 302/897/3 301/898/3
f 298/899/4 299/900/4 303/901/4 302/902/4
f 299/903/5 300/904/5 304/905/5 303/906/5
f 300/907/6 297/908/6 301/909/6 304/910/6
f 305/911/1 308/912/1 307/913/1 306/914/1
f 309/915/2 310/916/2 311/917/2 312/918/2
f 305/919/3 306/920/3 310/921/3 309/922/3
f 306/923/4 307/924/4 311/925/4 310/926/4
f 307/927/5 308/928/5 312/929/5 311/930/5
f 308/931/6 305/932/6 309/933/6 312/934/6
f 313/935/1 316/936/1 315/937/1 314/938/1
f 317/939/2 318/940/2 319/941/2 320/942/2
f 313/943/3 314/944/3 318/945/3 317/946/3
f 314/947/4 315/948/4 319/949/4 318/950/4
f 315/951/5 316/952/5 320/953/5 319/954/5
f 316/955/6 313/956/6 317/957/6 320/958/6
f 321/959/1 324/960/1 323/961/1 322/962/1
f 325/963/2 326/964/2 327/965/2 328/966/2
f 321/967/3 322/968/3 326/969/3 325/970/3
f 322/971/4 323/972/4 327/973/4 326/974/4
f 323/975/5 324/976/5 328/977/5 327/978/5
f 324/979/6 321/980/6 325/981/6 328/982/6
f 329/983/1 332/984/1 331/985/1 330/986/1
f 333/987/2 334/988/2 335/989/2 336/990/2
f 329/991/3 330/992/3 334/993/3 333/994/3
f 330/995/4 331/996/4 335/997/4 334/998/4
f 331/999/5 332/1000/5 336/1001/5 335/1002/5
f 332/1003/6 329/1004/6 333/1005/6 336/1006/6
f 337/1007/1 340/1008/1 339/1009/1 338/1010/1
f 341/1011/2 342/1012/2 343/1013/2 344/1014/2
f 337/1007/3 338/1010/3 342/1015/3 341/1016/3
f 338/1017/4 339/1018/4 343/1019/4 342/1020/4
f 339/1021/5 340/1022/5 344/1023/5 343/1024/5
f 340/1025/6 337/1026/6 341/1027/6 344/1028/6
f 345/1029/1 348/1030/1 347/1031/1 346/1032/1
f 349/1033/2 350/1034/2 351/1035/2 352/1036/2
f 345/1037/3 346/1038/3 350/1039/3 349/1040/3
f 346/1041/4 347/1042/4 351/1043/4 350/1044/4
f 347/1045/5 348/1046/5 352/1047/5 351/1048/5
f 348/1049/6 345/1050/6 349/1051/6 352/1052/6
f 353/1053/1 356/1054/1 355/1055/1 354/1056/1
f 357/1057/2 358/1058/2 359/1059/2 360/1060/2
f 353/1061/3 354/1062/3 358/1063/3 357/1064/3
f 354/1065/4 355/1066/4 359/1067/4 358/1068/4
f 355/1069/5 356/1070/5 360/1071/5 359/1072/5
f 356/1073/6 353/1074/6 357/1075/6 360/1076/6
