mtllib walk.mtl
usemtl stone
v -0.6 0.0 0.0
v 0.6 0.0 0.0
v -0.6 0.19913875757582286 0.0
v 0.6 0.19913875757582286 0.0
v -0.6 0.3982775151516457 0.0
v 0.6 0.3982775151516457 0.0
v -0.6 0.5974162727274686 0.0
v 0.6 0.5974162727274686 0.0
v -0.6 0.7965550303032914 0.0
v 0.6 0.7965550303032914 0.0
v -0.6 0.9956937878791143 0.0
v 0.6 0.9956937878791143 0.0
v -0.6 1.1948325454549371 0.0
v 0.6 1.1948325454549371 0.0
v -0.6 1.3939713030307601 0.0
v 0.6 1.3939713030307601 0.0
v -0.6 1.593110060606583 0.0
v 0.6 1.593110060606583 0.0
v -0.6 1.792248818182406 0.0
v 0.6 1.792248818182406 0.0
v -0.6 1.9913875757582287 0.0
v 0.6 1.9913875757582287 0.0
v -0.6 2.1905263333340512 0.0
v 0.6 2.1905263333340512 0.0
v -0.6 2.3896650909098742 0.0
v 0.6 2.3896650909098742 0.0
v -0.6 2.5888038484856972 0.0
v 0.6 2.5888038484856972 0.0
v -0.6 2.7879426060615202 0.0
v 0.6 2.7879426060615202 0.0
v -0.6 2.987081363637343 0.0
v 0.6 2.987081363637343 0.0
v -0.6 3.186220121213166 0.0
v 0.6 3.186220121213166 0.0
v -0.6 3.385358878788989 0.0
v 0.6 3.385358878788989 0.0
v -0.6 3.584497636364812 0.0
v 0.6 3.584497636364812 0.0
v -0.6 3.7836363939406343 0.0
v 0.6 3.7836363939406343 0.0
v -0.6 3.9827751515164573 0.0
v 0.6 3.9827751515164573 0.0
v -0.6 4.18191390909228 0.0
v 0.6 4.18191390909228 0.0
v -0.6 4.3810526666681024 0.0
v 0.6 4.3810526666681024 0.0
v -0.6 4.5801914242439254 0.0
v 0.6 4.5801914242439254 0.0
v -0.6 4.7793301818197484 0.0
v 0.6 4.7793301818197484 0.0
v -0.6 4.9784689393955714 0.0
v 0.6 4.9784689393955714 0.0
v -0.6 5.1776076969713944 0.0
v 0.6 5.1776076969713944 0.0
v -0.6 5.3767464545472174 0.0
v 0.6 5.3767464545472174 0.0
v -0.6 5.5758852121230404 0.0
v 0.6 5.5758852121230404 0.0
v -0.6 5.7750239696988634 0.0
v 0.6 5.7750239696988634 0.0
v -0.6 5.974162727274686 0.0
v 0.6 5.974162727274686 0.0
v -0.6 6.173301484850509 0.0
v 0.6 6.173301484850509 0.0
v -0.6 6.372440242426332 0.0
v 0.6 6.372440242426332 0.0
v -0.6 6.571579000002155 0.0
v 0.6 6.571579000002155 0.0
v -0.6 6.770717757577978 0.0
v 0.6 6.770717757577978 0.0
v -0.6 6.969856515153801 0.0
v 0.6 6.969856515153801 0.0
v -0.6 7.168995272729624 0.0
v 0.6 7.168995272729624 0.0
v -0.6 7.368134030305446 0.0
v 0.6 7.368134030305446 0.0
v -0.6 7.567272787881269 0.0
v 0.6 7.567272787881269 0.0
v -0.6 7.766411545457092 0.0
v 0.6 7.766411545457092 0.0
v -0.6 7.965550303032915 0.0
v 0.6 7.965550303032915 0.0
v -0.6 8.164689060608737 0.0
v 0.6 8.164689060608737 0.0
v -0.6 8.36382781818456 0.0
v 0.6 8.36382781818456 0.0
v -0.6 8.562966575760383 0.0
v 0.6 8.562966575760383 0.0
v -0.6 8.762105333336205 0.0
v 0.6 8.762105333336205 0.0
v -0.6 8.961244090912029 0.0
v 0.6 8.961244090912029 0.0
v -0.6 9.160382848487851 0.0
v 0.6 9.160382848487851 0.0
v -0.6 9.359521606063675 0.0
v 0.6 9.359521606063675 0.0
v -0.6 9.558660363639497 0.0
v 0.6 9.558660363639497 0.0
v -0.6 9.75779912121532 0.0
v 0.6 9.75779912121532 0.0
v -0.6 9.956937878791143 0.0
v 0.6 9.956937878791143 0.0
v -0.6 10.156076636366967 0.0
v 0.6 10.156076636366967 0.0
v -0.6 10.355215393942789 0.0
v 0.6 10.355215393942789 0.0
v -0.6 10.554354151518611 0.0
v 0.6 10.554354151518611 0.0
v -0.6 10.753492909094435 0.0
v 0.6 10.753492909094435 0.0
v -0.6 10.952631666670257 0.0
v 0.6 10.952631666670257 0.0
v -0.6 11.151770424246081 0.0
v 0.6 11.151770424246081 0.0
v -0.6 11.350909181821903 0.0
v 0.6 11.350909181821903 0.0
v -0.6 11.550047939397727 0.0
v 0.6 11.550047939397727 0.0
v -0.6 11.749186696973549 0.0
v 0.6 11.749186696973549 0.0
v -0.6 11.948325454549371 0.0
v 0.6 11.948325454549371 0.0
v -0.6 12.147464212125193 0.0
v 0.6 12.147464212125193 0.0
v -0.6 12.346602969701017 0.0
v 0.6 12.346602969701017 0.0
v -0.6 12.545741727276841 0.0
v 0.6 12.545741727276841 0.0
v -0.6 12.744880484852663 0.0
v 0.6 12.744880484852663 0.0
v -0.6 12.944019242428485 0.0
v 0.6 12.944019242428485 0.0
v -0.6 13.14315800000431 0.0
v 0.6 13.14315800000431 0.0
v -0.6 13.342296757580131 0.0
v 0.6 13.342296757580131 0.0
v -0.6 13.541435515155955 0.0
v 0.6 13.541435515155955 0.0
v -0.6 13.740574272731777 0.0
v 0.6 13.740574272731777 0.0
v -0.6 13.939713030307601 0.0
v 0.6 13.939713030307601 0.0
v -0.6 14.138851787883423 0.0
v 0.6 14.138851787883423 0.0
v -0.6 14.337990545459247 0.0
v 0.6 14.337990545459247 0.0
v -0.6 14.53712930303507 0.0
v 0.6 14.53712930303507 0.0
v -0.6 14.736268060610891 0.0
v 0.6 14.736268060610891 0.0
v -0.6 14.935406818186715 0.0
v 0.6 14.935406818186715 0.0
v -0.6 15.134545575762537 0.0
v 0.6 15.134545575762537 0.0
v -0.6 15.333684333338361 0.0
v 0.6 15.333684333338361 0.0
v -0.6 15.532823090914183 0.0
v 0.6 15.532823090914183 0.0
v -0.6 15.731961848490007 0.0
v 0.6 15.731961848490007 0.0
v -0.6 15.93110060606583 0.0
v 0.6 15.93110060606583 0.0
v -0.6 16.13023936364165 0.0
v 0.6 16.13023936364165 0.0
v -0.6 16.329378121217474 0.0
v 0.6 16.329378121217474 0.0
v -0.6 16.528516878793297 0.0
v 0.6 16.528516878793297 0.0
v -0.6 16.72765563636912 0.0
v 0.6 16.72765563636912 0.0
v -0.6 16.92679439394494 0.0
v 0.6 16.92679439394494 0.0
v -0.6 17.125933151520766 0.0
v 0.6 17.125933151520766 0.0
v -0.6 17.32507190909659 0.0
v 0.6 17.32507190909659 0.0
v -0.6 17.52421066667241 0.0
v 0.6 17.52421066667241 0.0
v -0.6 17.723349424248234 0.0
v 0.6 17.723349424248234 0.0
v -0.6 17.922488181824058 0.0
v 0.6 17.922488181824058 0.0
v -0.6 18.12162693939988 0.0
v 0.6 18.12162693939988 0.0
v -0.6 18.320765696975702 0.0
v 0.6 18.320765696975702 0.0
v -0.6 18.519904454551526 0.0
v 0.6 18.519904454551526 0.0
v -0.6 18.71904321212735 0.0
v 0.6 18.71904321212735 0.0
v -0.6 18.918181969703173 0.0
v 0.6 18.918181969703173 0.0
v -0.6 19.117320727278994 0.0
v 0.6 19.117320727278994 0.0
v -0.6 19.316459484854818 0.0
v 0.6 19.316459484854818 0.0
v -0.6 19.51559824243064 0.0
v 0.6 19.51559824243064 0.0
v -0.6 19.714737000006462 0.0
v 0.6 19.714737000006462 0.0
v -0.6 19.913875757582286 0.0
v 0.6 19.913875757582286 0.0
v -0.6 20.11301451515811 0.0
v 0.6 20.11301451515811 0.0
v -0.6 20.312153272733934 0.0
v 0.6 20.312153272733934 0.0
v -0.6 20.511292030309754 0.0
v 0.6 20.511292030309754 0.0
v -0.6 20.710430787885578 0.0
v 0.6 20.710430787885578 0.0
v -0.6 20.9095695454614 0.0
v 0.6 20.9095695454614 0.0
v -0.6 21.108708303037222 0.0
v 0.6 21.108708303037222 0.0
v -0.6 21.307847060613046 0.0
v 0.6 21.307847060613046 0.0
v -0.6 21.50698581818887 0.0
v 0.6 21.50698581818887 0.0
v -0.6 21.706124575764694 0.0
v 0.6 21.706124575764694 0.0
v -0.6 21.905263333340514 0.0
v 0.6 21.905263333340514 0.0
v -0.6 22.104402090916338 0.0
v 0.6 22.104402090916338 0.0
v -0.6 22.303540848492162 0.0
v 0.6 22.303540848492162 0.0
v -0.6 22.502679606067982 0.0
v 0.6 22.502679606067982 0.0
v -0.6 22.701818363643806 0.0
v 0.6 22.701818363643806 0.0
v -0.6 22.90095712121963 0.0
v 0.6 22.90095712121963 0.0
v -0.6 23.100095878795454 0.0
v 0.6 23.100095878795454 0.0
v -0.6 23.299234636371274 0.0
v 0.6 23.299234636371274 0.0
v -0.6 23.498373393947098 0.0
v 0.6 23.498373393947098 0.0
v -0.6 23.697512151522922 0.0
v 0.6 23.697512151522922 0.0
v -0.6 23.896650909098742 0.0
v 0.6 23.896650909098742 0.0
v -0.6 24.095789666674566 0.0
v 0.6 24.095789666674566 0.0
v -0.6 24.294928424250386 0.0
v 0.6 24.294928424250386 0.0
v -0.6 24.494067181826214 0.0
v 0.6 24.494067181826214 0.0
v -0.6 24.693205939402034 0.0
v 0.6 24.693205939402034 0.0
v -0.6 24.892344696977855 0.0
v 0.6 24.892344696977855 0.0
v -0.6 25.091483454553682 0.0
v 0.6 25.091483454553682 0.0
v -0.6 25.290622212129506 0.0
v 0.6 25.290622212129506 0.0
v -0.6 25.489760969705326 0.0
v 0.6 25.489760969705326 0.0
v -0.6 25.688899727281147 0.0
v 0.6 25.688899727281147 0.0
v -0.6 25.88803848485697 0.0
v 0.6 25.88803848485697 0.0
v -0.6 26.087177242432798 0.0
v 0.6 26.087177242432798 0.0
v -0.6 26.28631600000862 0.0
v 0.6 26.28631600000862 0.0
v -0.6 26.48545475758444 0.0
v 0.6 26.48545475758444 0.0
v -0.6 26.684593515160262 0.0
v 0.6 26.684593515160262 0.0
v -0.6 26.88373227273609 0.0
v 0.6 26.88373227273609 0.0
v -0.6 27.08287103031191 0.0
v 0.6 27.08287103031191 0.0
v -0.6 27.28200978788773 0.0
v 0.6 27.28200978788773 0.0
v -0.6 27.481148545463554 0.0
v 0.6 27.481148545463554 0.0
v -0.6 27.680287303039375 0.0
v 0.6 27.680287303039375 0.0
v -0.6 27.879426060615202 0.0
v 0.6 27.879426060615202 0.0
v -0.6 28.078564818191023 0.0
v 0.6 28.078564818191023 0.0
v -0.6 28.277703575766846 0.0
v 0.6 28.277703575766846 0.0
v -0.6 28.476842333342667 0.0
v 0.6 28.476842333342667 0.0
v -0.6 28.675981090918494 0.0
v 0.6 28.675981090918494 0.0
v -0.6 28.875119848494318 0.0
v 0.6 28.875119848494318 0.0
v -0.6 29.07425860607014 0.0
v 0.6 29.07425860607014 0.0
v -0.6 29.27339736364596 0.0
v 0.6 29.27339736364596 0.0
v -0.6 29.472536121221783 0.0
v 0.6 29.472536121221783 0.0
v -0.6 29.67167487879761 0.0
v 0.6 29.67167487879761 0.0
v -0.6 29.87081363637343 0.0
v 0.6 29.87081363637343 0.0
v -0.6 30.06995239394925 0.0
v 0.6 30.06995239394925 0.0
v -0.6 30.269091151525075 0.0
v 0.6 30.269091151525075 0.0
v -0.6 30.468229909100895 0.0
v 0.6 30.468229909100895 0.0
v -0.6 30.667368666676722 0.0
v 0.6 30.667368666676722 0.0
v -0.6 30.866507424252543 0.0
v 0.6 30.866507424252543 0.0
v -0.6 31.065646181828367 0.0
v 0.6 31.065646181828367 0.0
v -0.6 31.264784939404187 0.0
v 0.6 31.264784939404187 0.0
v -0.6 31.463923696980014 0.0
v 0.6 31.463923696980014 0.0
v -0.6 31.663062454555835 0.0
v 0.6 31.663062454555835 0.0
v -0.6 31.86220121213166 0.0
v 0.6 31.86220121213166 0.0
v -0.6 32.06133996970748 0.0
v 0.6 32.06133996970748 0.0
v -0.6 32.2604787272833 0.0
v 0.6 32.2604787272833 0.0
v -0.6 32.45961748485913 0.0
v 0.6 32.45961748485913 0.0
v -0.6 32.65875624243495 0.0
v 0.6 32.65875624243495 0.0
v -0.6 32.85789500001077 0.0
v 0.6 32.85789500001077 0.0
v -0.6 33.057033757586595 0.0
v 0.6 33.057033757586595 0.0
f 1 2 4 3
f 3 4 6 5
f 5 6 8 7
f 7 8 10 9
f 9 10 12 11
f 11 12 14 13
f 13 14 16 15
f 15 16 18 17
f 17 18 20 19
f 19 20 22 21
f 21 22 24 23
f 23 24 26 25
f 25 26 28 27
f 27 28 30 29
f 29 30 32 31
f 31 32 34 33
f 33 34 36 35
f 35 36 38 37
f 37 38 40 39
f 39 40 42 41
f 41 42 44 43
f 43 44 46 45
f 45 46 48 47
f 47 48 50 49
f 49 50 52 51
f 51 52 54 53
f 53 54 56 55
f 55 56 58 57
f 57 58 60 59
f 59 60 62 61
f 61 62 64 63
f 63 64 66 65
f 65 66 68 67
f 67 68 70 69
f 69 70 72 71
f 71 72 74 73
f 73 74 76 75
f 75 76 78 77
f 77 78 80 79
f 79 80 82 81
f 81 82 84 83
f 83 84 86 85
f 85 86 88 87
f 87 88 90 89
f 89 90 92 91
f 91 92 94 93
f 93 94 96 95
f 95 96 98 97
f 97 98 100 99
f 99 100 102 101
f 101 102 104 103
f 103 104 106 105
f 105 106 108 107
f 107 108 110 109
f 109 110 112 111
f 111 112 114 113
f 113 114 116 115
f 115 116 118 117
f 117 118 120 119
f 119 120 122 121
f 121 122 124 123
f 123 124 126 125
f 125 126 128 127
f 127 128 130 129
f 129 130 132 131
f 131 132 134 133
f 133 134 136 135
f 135 136 138 137
f 137 138 140 139
f 139 140 142 141
f 141 142 144 143
f 143 144 146 145
f 145 146 148 147
f 147 148 150 149
f 149 150 152 151
f 151 152 154 153
f 153 154 156 155
f 155 156 158 157
f 157 158 160 159
f 159 160 162 161
f 161 162 164 163
f 163 164 166 165
f 165 166 168 167
f 167 168 170 169
f 169 170 172 171
f 171 172 174 173
f 173 174 176 175
f 175 176 178 177
f 177 178 180 179
f 179 180 182 181
f 181 182 184 183
f 183 184 186 185
f 185 186 188 187
f 187 188 190 189
f 189 190 192 191
f 191 192 194 193
f 193 194 196 195
f 195 196 198 197
f 197 198 200 199
f 199 200 202 201
f 201 202 204 203
f 203 204 206 205
f 205 206 208 207
f 207 208 210 209
f 209 210 212 211
f 211 212 214 213
f 213 214 216 215
f 215 216 218 217
f 217 218 220 219
f 219 220 222 221
f 221 222 224 223
f 223 224 226 225
f 225 226 228 227
f 227 228 230 229
f 229 230 232 231
f 231 232 234 233
f 233 234 236 235
f 235 236 238 237
f 237 238 240 239
f 239 240 242 241
f 241 242 244 243
f 243 244 246 245
f 245 246 248 247
f 247 248 250 249
f 249 250 252 251
f 251 252 254 253
f 253 254 256 255
f 255 256 258 257
f 257 258 260 259
f 259 260 262 261
f 261 262 264 263
f 263 264 266 265
f 265 266 268 267
f 267 268 270 269
f 269 270 272 271
f 271 272 274 273
f 273 274 276 275
f 275 276 278 277
f 277 278 280 279
f 279 280 282 281
f 281 282 284 283
f 283 284 286 285
f 285 286 288 287
f 287 288 290 289
f 289 290 292 291
f 291 292 294 293
f 293 294 296 295
f 295 296 298 297
f 297 298 300 299
f 299 300 302 301
f 301 302 304 303
f 303 304 306 305
f 305 306 308 307
f 307 308 310 309
f 309 310 312 311
f 311 312 314 313
f 313 314 316 315
f 315 316 318 317
f 317 318 320 319
f 319 320 322 321
f 321 322 324 323
f 323 324 326 325
f 325 326 328 327
f 327 328 330 329
f 329 330 332 331
f 331 332 334 333
