# Blender 5.2.2 LTS
# www.blender.org
mtllib environment.mtl
g pe_sewer_stairs_render_Cube.042
v -4.300000 -0.100000 3.300000
v -4.300000 0.000000 3.300000
v -4.300000 -0.100000 -5.300000
v -4.300000 0.000000 -5.300000
v 4.300000 -0.100000 3.300000
v 4.300000 0.000000 3.300000
v 4.300000 -0.100000 -5.300000
v 4.300000 0.000000 -5.300000
v -4.300000 0.000000 -5.000000
v -4.300000 3.400000 -5.000000
v -4.300000 0.000000 -5.300000
v -4.300000 3.400000 -5.300000
v 4.300000 0.000000 -5.000000
v 4.300000 3.400000 -5.000000
v 4.300000 0.000000 -5.300000
v 4.300000 3.400000 -5.300000
v -4.300000 0.000000 3.300000
v -4.300000 3.400000 3.300000
v -4.300000 0.000000 -5.300000
v -4.300000 3.400000 -5.300000
v -4.000000 0.000000 3.300000
v -4.000000 3.400000 3.300000
v -4.000000 0.000000 -5.300000
v -4.000000 3.400000 -5.300000
v 4.000000 0.000000 3.300000
v 4.000000 3.400000 3.300000
v 4.000000 0.000000 -5.300000
v 4.000000 3.400000 -5.300000
v 4.300000 0.000000 3.300000
v 4.300000 3.400000 3.300000
v 4.300000 0.000000 -5.300000
v 4.300000 3.400000 -5.300000
v -4.000000 0.000000 -4.950000
v -4.000000 0.180000 -4.950000
v -4.000000 0.000000 -5.010000
v -4.000000 0.180000 -5.010000
v 4.000000 0.000000 -4.950000
v 4.000000 0.180000 -4.950000
v 4.000000 0.000000 -5.010000
v 4.000000 0.180000 -5.010000
v -4.010000 0.000000 0.000000
v -4.010000 0.180000 0.000000
v -4.010000 0.000000 -5.000000
v -4.010000 0.180000 -5.000000
v -3.950000 0.000000 0.000000
v -3.950000 0.180000 0.000000
v -3.950000 0.000000 -5.000000
v -3.950000 0.180000 -5.000000
v 3.950000 0.000000 0.000000
v 3.950000 0.180000 0.000000
v 3.950000 0.000000 -5.000000
v 3.950000 0.180000 -5.000000
v 4.010000 0.000000 0.000000
v 4.010000 0.180000 0.000000
v 4.010000 0.000000 -5.000000
v 4.010000 0.180000 -5.000000
v -4.010000 0.000000 -1.500000
v -4.010000 2.200000 -1.500000
v -4.010000 0.000000 -2.500000
v -4.010000 2.200000 -2.500000
v -3.950000 0.000000 -1.500000
v -3.950000 2.200000 -1.500000
v -3.950000 0.000000 -2.500000
v -3.950000 2.200000 -2.500000
v -4.025000 0.000000 -1.350000
v -4.025000 2.400000 -1.350000
v -4.025000 0.000000 -2.650000
v -4.025000 2.400000 -2.650000
v -3.975000 0.000000 -1.350000
v -3.975000 2.400000 -1.350000
v -3.975000 0.000000 -2.650000
v -3.975000 2.400000 -2.650000
v -3.950000 0.800000 -1.675000
v -3.950000 1.300000 -1.675000
v -3.950000 0.800000 -1.725000
v -3.950000 1.300000 -1.725000
v -3.910000 0.800000 -1.675000
v -3.910000 1.300000 -1.675000
v -3.910000 0.800000 -1.725000
v -3.910000 1.300000 -1.725000
v 3.950000 0.000000 -2.000000
v 3.950000 2.200000 -2.000000
v 3.950000 0.000000 -3.000000
v 3.950000 2.200000 -3.000000
v 4.010000 0.000000 -2.000000
v 4.010000 2.200000 -2.000000
v 4.010000 0.000000 -3.000000
v 4.010000 2.200000 -3.000000
v 3.975000 0.000000 -1.850000
v 3.975000 2.400000 -1.850000
v 3.975000 0.000000 -3.150000
v 3.975000 2.400000 -3.150000
v 4.025000 0.000000 -1.850000
v 4.025000 2.400000 -1.850000
v 4.025000 0.000000 -3.150000
v 4.025000 2.400000 -3.150000
v 3.910000 0.800000 -2.175000
v 3.910000 1.300000 -2.175000
v 3.910000 0.800000 -2.225000
v 3.910000 1.300000 -2.225000
v 3.950000 0.800000 -2.175000
v 3.950000 1.300000 -2.175000
v 3.950000 0.800000 -2.225000
v 3.950000 1.300000 -2.225000
v -3.175000 1.760000 -4.650000
v -3.175000 1.980000 -4.650000
v -3.175000 1.760000 -5.350000
v -3.175000 1.980000 -5.350000
v -2.825000 1.760000 -4.650000
v -2.825000 1.980000 -4.650000
v -2.825000 1.760000 -5.350000
v -2.825000 1.980000 -5.350000
v -3.175000 2.025939 -4.605000
v -3.175000 2.245939 -4.605000
v -3.175000 2.025939 -5.305000
v -3.175000 2.245939 -5.305000
v -2.825000 2.025939 -4.605000
v -2.825000 2.245939 -4.605000
v -2.825000 2.025939 -5.305000
v -2.825000 2.245939 -5.305000
v -3.175000 2.285329 -4.470000
v -3.175000 2.505329 -4.470000
v -3.175000 2.285329 -5.170000
v -3.175000 2.505329 -5.170000
v -2.825000 2.285329 -4.470000
v -2.825000 2.505329 -4.470000
v -2.825000 2.285329 -5.170000
v -2.825000 2.505329 -5.170000
v -3.175000 2.531784 -4.245000
v -3.175000 2.751784 -4.245000
v -3.175000 2.531784 -4.945000
v -3.175000 2.751784 -4.945000
v -2.825000 2.531784 -4.245000
v -2.825000 2.751784 -4.245000
v -2.825000 2.531784 -4.945000
v -2.825000 2.751784 -4.945000
v -3.175000 2.759235 -3.930000
v -3.175000 2.979235 -3.930000
v -3.175000 2.759235 -4.630000
v -3.175000 2.979235 -4.630000
v -2.825000 2.759235 -3.930000
v -2.825000 2.979235 -3.930000
v -2.825000 2.759235 -4.630000
v -2.825000 2.979235 -4.630000
v -3.175000 2.962082 -3.525000
v -3.175000 3.182081 -3.525000
v -3.175000 2.962082 -4.225000
v -3.175000 3.182081 -4.225000
v -2.825000 2.962082 -3.525000
v -2.825000 3.182081 -3.525000
v -2.825000 2.962082 -4.225000
v -2.825000 3.182081 -4.225000
v -1.175000 1.760000 -4.650000
v -1.175000 1.980000 -4.650000
v -1.175000 1.760000 -5.350000
v -1.175000 1.980000 -5.350000
v -0.825000 1.760000 -4.650000
v -0.825000 1.980000 -4.650000
v -0.825000 1.760000 -5.350000
v -0.825000 1.980000 -5.350000
v -1.175000 2.025939 -4.605000
v -1.175000 2.245939 -4.605000
v -1.175000 2.025939 -5.305000
v -1.175000 2.245939 -5.305000
v -0.825000 2.025939 -4.605000
v -0.825000 2.245939 -4.605000
v -0.825000 2.025939 -5.305000
v -0.825000 2.245939 -5.305000
v -1.175000 2.285329 -4.470000
v -1.175000 2.505329 -4.470000
v -1.175000 2.285329 -5.170000
v -1.175000 2.505329 -5.170000
v -0.825000 2.285329 -4.470000
v -0.825000 2.505329 -4.470000
v -0.825000 2.285329 -5.170000
v -0.825000 2.505329 -5.170000
v -1.175000 2.531784 -4.245000
v -1.175000 2.751784 -4.245000
v -1.175000 2.531784 -4.945000
v -1.175000 2.751784 -4.945000
v -0.825000 2.531784 -4.245000
v -0.825000 2.751784 -4.245000
v -0.825000 2.531784 -4.945000
v -0.825000 2.751784 -4.945000
v -1.175000 2.759235 -3.930000
v -1.175000 2.979235 -3.930000
v -1.175000 2.759235 -4.630000
v -1.175000 2.979235 -4.630000
v -0.825000 2.759235 -3.930000
v -0.825000 2.979235 -3.930000
v -0.825000 2.759235 -4.630000
v -0.825000 2.979235 -4.630000
v -1.175000 2.962082 -3.525000
v -1.175000 3.182081 -3.525000
v -1.175000 2.962082 -4.225000
v -1.175000 3.182081 -4.225000
v -0.825000 2.962082 -3.525000
v -0.825000 3.182081 -3.525000
v -0.825000 2.962082 -4.225000
v -0.825000 3.182081 -4.225000
v 0.825000 1.760000 -4.650000
v 0.825000 1.980000 -4.650000
v 0.825000 1.760000 -5.350000
v 0.825000 1.980000 -5.350000
v 1.175000 1.760000 -4.650000
v 1.175000 1.980000 -4.650000
v 1.175000 1.760000 -5.350000
v 1.175000 1.980000 -5.350000
v 0.825000 2.025939 -4.605000
v 0.825000 2.245939 -4.605000
v 0.825000 2.025939 -5.305000
v 0.825000 2.245939 -5.305000
v 1.175000 2.025939 -4.605000
v 1.175000 2.245939 -4.605000
v 1.175000 2.025939 -5.305000
v 1.175000 2.245939 -5.305000
v 0.825000 2.285329 -4.470000
v 0.825000 2.505329 -4.470000
v 0.825000 2.285329 -5.170000
v 0.825000 2.505329 -5.170000
v 1.175000 2.285329 -4.470000
v 1.175000 2.505329 -4.470000
v 1.175000 2.285329 -5.170000
v 1.175000 2.505329 -5.170000
v 0.825000 2.531784 -4.245000
v 0.825000 2.751784 -4.245000
v 0.825000 2.531784 -4.945000
v 0.825000 2.751784 -4.945000
v 1.175000 2.531784 -4.245000
v 1.175000 2.751784 -4.245000
v 1.175000 2.531784 -4.945000
v 1.175000 2.751784 -4.945000
v 0.825000 2.759235 -3.930000
v 0.825000 2.979235 -3.930000
v 0.825000 2.759235 -4.630000
v 0.825000 2.979235 -4.630000
v 1.175000 2.759235 -3.930000
v 1.175000 2.979235 -3.930000
v 1.175000 2.759235 -4.630000
v 1.175000 2.979235 -4.630000
v 0.825000 2.962082 -3.525000
v 0.825000 3.182081 -3.525000
v 0.825000 2.962082 -4.225000
v 0.825000 3.182081 -4.225000
v 1.175000 2.962082 -3.525000
v 1.175000 3.182081 -3.525000
v 1.175000 2.962082 -4.225000
v 1.175000 3.182081 -4.225000
v 2.825000 1.760000 -4.650000
v 2.825000 1.980000 -4.650000
v 2.825000 1.760000 -5.350000
v 2.825000 1.980000 -5.350000
v 3.175000 1.760000 -4.650000
v 3.175000 1.980000 -4.650000
v 3.175000 1.760000 -5.350000
v 3.175000 1.980000 -5.350000
v 2.825000 2.025939 -4.605000
v 2.825000 2.245939 -4.605000
v 2.825000 2.025939 -5.305000
v 2.825000 2.245939 -5.305000
v 3.175000 2.025939 -4.605000
v 3.175000 2.245939 -4.605000
v 3.175000 2.025939 -5.305000
v 3.175000 2.245939 -5.305000
v 2.825000 2.285329 -4.470000
v 2.825000 2.505329 -4.470000
v 2.825000 2.285329 -5.170000
v 2.825000 2.505329 -5.170000
v 3.175000 2.285329 -4.470000
v 3.175000 2.505329 -4.470000
v 3.175000 2.285329 -5.170000
v 3.175000 2.505329 -5.170000
v 2.825000 2.531784 -4.245000
v 2.825000 2.751784 -4.245000
v 2.825000 2.531784 -4.945000
v 2.825000 2.751784 -4.945000
v 3.175000 2.531784 -4.245000
v 3.175000 2.751784 -4.245000
v 3.175000 2.531784 -4.945000
v 3.175000 2.751784 -4.945000
v 2.825000 2.759235 -3.930000
v 2.825000 2.979235 -3.930000
v 2.825000 2.759235 -4.630000
v 2.825000 2.979235 -4.630000
v 3.175000 2.759235 -3.930000
v 3.175000 2.979235 -3.930000
v 3.175000 2.759235 -4.630000
v 3.175000 2.979235 -4.630000
v 2.825000 2.962082 -3.525000
v 2.825000 3.182081 -3.525000
v 2.825000 2.962082 -4.225000
v 2.825000 3.182081 -4.225000
v 3.175000 2.962082 -3.525000
v 3.175000 3.182081 -3.525000
v 3.175000 2.962082 -4.225000
v 3.175000 3.182081 -4.225000
v -4.300000 -0.005000 -2.750000
v -4.300000 0.015000 -2.750000
v -4.300000 -0.005000 -4.250000
v -4.300000 0.015000 -4.250000
v 4.300000 -0.005000 -2.750000
v 4.300000 0.015000 -2.750000
v 4.300000 -0.005000 -4.250000
v 4.300000 0.015000 -4.250000
v -4.300000 0.000000 -2.630000
v -4.300000 0.080000 -2.630000
v -4.300000 0.000000 -2.750000
v -4.300000 0.080000 -2.750000
v 4.300000 0.000000 -2.630000
v 4.300000 0.080000 -2.630000
v 4.300000 0.000000 -2.750000
v 4.300000 0.080000 -2.750000
v -4.300000 0.000000 -4.250000
v -4.300000 0.080000 -4.250000
v -4.300000 0.000000 -4.370000
v -4.300000 0.080000 -4.370000
v 4.300000 0.000000 -4.250000
v 4.300000 0.080000 -4.250000
v 4.300000 0.000000 -4.370000
v 4.300000 0.080000 -4.370000
v -4.000000 2.300000 -5.020000
v 4.000000 2.300000 -5.020000
v -4.000000 2.229466 -4.997082
v 4.000000 2.229465 -4.997082
v -4.000000 2.185873 -4.937082
v 4.000000 2.185873 -4.937082
v -4.000000 2.185873 -4.862918
v 4.000000 2.185873 -4.862918
v -4.000000 2.229466 -4.802918
v 4.000000 2.229465 -4.802918
v -4.000000 2.300000 -4.780000
v 4.000000 2.300000 -4.780000
v -4.000000 2.370534 -4.802918
v 4.000000 2.370534 -4.802918
v -4.000000 2.414127 -4.862918
v 4.000000 2.414127 -4.862918
v -4.000000 2.414127 -4.937082
v 4.000000 2.414127 -4.937082
v -4.000000 2.370534 -4.997082
v 4.000000 2.370534 -4.997082
v -4.000000 1.900000 -4.950000
v 4.000000 1.900000 -4.950000
v -4.000000 1.850503 -4.929498
v 4.000000 1.850502 -4.929498
v -4.000000 1.830000 -4.880000
v 4.000000 1.830000 -4.880000
v -4.000000 1.850503 -4.830503
v 4.000000 1.850502 -4.830503
v -4.000000 1.900000 -4.810000
v 4.000000 1.900000 -4.810000
v -4.000000 1.949498 -4.830503
v 4.000000 1.949497 -4.830503
v -4.000000 1.970000 -4.880000
v 4.000000 1.970000 -4.880000
v -4.000000 1.949498 -4.929498
v 4.000000 1.949497 -4.929498
v -2.525000 2.610000 -4.820000
v -2.525000 2.790000 -4.820000
v -2.525000 2.610000 -4.940000
v -2.525000 2.790000 -4.940000
v -2.275000 2.610000 -4.820000
v -2.275000 2.790000 -4.820000
v -2.275000 2.610000 -4.940000
v -2.275000 2.790000 -4.940000
v 2.115000 2.610000 -4.820000
v 2.115000 2.790000 -4.820000
v 2.115000 2.610000 -4.940000
v 2.115000 2.790000 -4.940000
v 2.365000 2.610000 -4.820000
v 2.365000 2.790000 -4.820000
v 2.365000 2.610000 -4.940000
v 2.365000 2.790000 -4.940000
vn -1.0000 -0.0000 -0.0000
vn -0.0000 -0.0000 -1.0000
vn 1.0000 -0.0000 -0.0000
vn -0.0000 -0.0000 1.0000
vn -0.0000 -1.0000 -0.0000
vn -0.0000 1.0000 -0.0000
vn -0.0000 -0.3090 -0.9511
vn -0.0000 -0.8090 -0.5878
vn -0.0000 -0.8090 0.5878
vn -0.0000 -0.3090 0.9511
vn -0.0000 0.3090 0.9511
vn -0.0000 0.8090 0.5878
vn -0.0000 0.8090 -0.5878
vn -0.0000 0.3090 -0.9511
vn -0.0000 -0.3827 -0.9239
vn -0.0000 -0.9239 -0.3827
vn -0.0000 -0.9239 0.3827
vn -0.0000 -0.3827 0.9239
vn -0.0000 0.3827 0.9239
vn -0.0000 0.9239 0.3827
vn -0.0000 0.9239 -0.3827
vn -0.0000 0.3827 -0.9239
vt 0.935547 0.338867
vt 0.938477 0.002930
vt 0.938477 0.338867
vt 0.935547 0.680664
vt 0.938477 0.345703
vt 0.938477 0.680664
vt 0.945312 0.338867
vt 0.948242 0.002930
vt 0.948242 0.338867
vt 0.945312 0.680664
vt 0.948242 0.345703
vt 0.948242 0.680664
vt 0.338867 0.338867
vt 0.002930 0.002930
vt 0.338867 0.002930
vt 0.338867 0.680664
vt 0.002930 0.345703
vt 0.338867 0.345703
vt 0.459961 0.687500
vt 0.470703 0.819336
vt 0.459961 0.819336
vt 0.623047 0.338867
vt 0.754883 0.002930
vt 0.754883 0.338867
vt 0.476562 0.687500
vt 0.487305 0.819336
vt 0.476562 0.819336
vt 0.623047 0.680664
vt 0.754883 0.345703
vt 0.754883 0.680664
vt 0.836914 0.338867
vt 0.826172 0.002930
vt 0.836914 0.002930
vt 0.836914 0.680664
vt 0.826172 0.345703
vt 0.836914 0.345703
vt 0.345703 0.338867
vt 0.477539 0.002930
vt 0.477539 0.338867
vt 0.494141 0.687500
vt 0.504883 0.819336
vt 0.494141 0.819336
vt 0.484375 0.338867
vt 0.616211 0.002930
vt 0.616211 0.338867
vt 0.511719 0.687500
vt 0.522461 0.819336
vt 0.511719 0.819336
vt 0.842773 0.338867
vt 0.853516 0.002930
vt 0.853516 0.338867
vt 0.842773 0.680664
vt 0.853516 0.345703
vt 0.853516 0.680664
vt 0.345703 0.680664
vt 0.477539 0.345703
vt 0.477539 0.680664
vt 0.529297 0.687500
vt 0.540039 0.819336
vt 0.529297 0.819336
vt 0.484375 0.680664
vt 0.616211 0.345703
vt 0.616211 0.680664
vt 0.546875 0.687500
vt 0.557617 0.819336
vt 0.546875 0.819336
vt 0.860352 0.338867
vt 0.871094 0.002930
vt 0.871094 0.338867
vt 0.860352 0.680664
vt 0.871094 0.345703
vt 0.871094 0.680664
vt 0.776367 0.852539
vt 0.777344 0.858398
vt 0.776367 0.858398
vt 0.891602 0.315430
vt 0.897461 0.002930
vt 0.897461 0.315430
vt 0.784180 0.852539
vt 0.786133 0.858398
vt 0.784180 0.858398
vt 0.891602 0.633789
vt 0.897461 0.322266
vt 0.897461 0.633789
vt 0.908203 0.952148
vt 0.906250 0.640625
vt 0.908203 0.640625
vt 0.965820 0.315430
vt 0.964844 0.002930
vt 0.965820 0.002930
vt 0.408203 0.881836
vt 0.415039 0.687500
vt 0.415039 0.881836
vt 0.791992 0.852539
vt 0.793945 0.858398
vt 0.791992 0.858398
vt 0.420898 0.881836
vt 0.427734 0.687500
vt 0.427734 0.881836
vt 0.564453 0.687500
vt 0.565430 0.694336
vt 0.564453 0.694336
vt 0.564453 0.888672
vt 0.565430 0.888672
vt 0.580078 0.881836
vt 0.581055 0.687500
vt 0.581055 0.881836
vt 0.434570 0.881836
vt 0.440430 0.687500
vt 0.440430 0.881836
vt 0.800781 0.852539
vt 0.801758 0.858398
vt 0.800781 0.858398
vt 0.447266 0.881836
vt 0.453125 0.687500
vt 0.453125 0.881836
vt 0.572266 0.687500
vt 0.573242 0.694336
vt 0.572266 0.694336
vt 0.572266 0.888672
vt 0.573242 0.888672
vt 0.587891 0.881836
vt 0.589844 0.687500
vt 0.589844 0.881836
vt 0.229492 0.687500
vt 0.267578 0.772461
vt 0.229492 0.772461
vt 0.626953 0.687500
vt 0.627930 0.772461
vt 0.626953 0.772461
vt 0.274414 0.687500
vt 0.312500 0.772461
vt 0.274414 0.772461
vt 0.634766 0.687500
vt 0.635742 0.772461
vt 0.634766 0.772461
vt 0.849609 0.846680
vt 0.851562 0.808594
vt 0.851562 0.846680
vt 0.061523 0.858398
vt 0.062500 0.820312
vt 0.062500 0.858398
vt 0.002930 0.687500
vt 0.052734 0.780273
vt 0.002930 0.780273
vt 0.595703 0.687500
vt 0.596680 0.780273
vt 0.595703 0.780273
vt 0.059570 0.687500
vt 0.109375 0.780273
vt 0.059570 0.780273
vt 0.603516 0.687500
vt 0.604492 0.780273
vt 0.603516 0.780273
vt 0.219727 0.836914
vt 0.220703 0.787109
vt 0.220703 0.836914
vt 0.842773 0.737305
vt 0.843750 0.687500
vt 0.843750 0.737305
vt 0.857422 0.687500
vt 0.858398 0.706055
vt 0.857422 0.706055
vt 0.857520 0.807875
vt 0.859085 0.827433
vt 0.857520 0.827433
vt 0.857422 0.712891
vt 0.858398 0.731445
vt 0.857422 0.731445
vt 0.857520 0.833114
vt 0.859085 0.852672
vt 0.857520 0.852672
vt 0.002930 0.854492
vt 0.003906 0.853516
vt 0.003906 0.854492
vt 0.010086 0.854628
vt 0.011651 0.852672
vt 0.011651 0.854628
vt 0.319336 0.687500
vt 0.357422 0.772461
vt 0.319336 0.772461
vt 0.642578 0.687500
vt 0.644531 0.772461
vt 0.642578 0.772461
vt 0.364258 0.687500
vt 0.402344 0.772461
vt 0.364258 0.772461
vt 0.650391 0.687500
vt 0.652344 0.772461
vt 0.650391 0.772461
vt 0.069336 0.858398
vt 0.071289 0.820312
vt 0.071289 0.858398
vt 0.077148 0.858398
vt 0.079102 0.820312
vt 0.079102 0.858398
vt 0.116211 0.687500
vt 0.166016 0.780273
vt 0.116211 0.780273
vt 0.611328 0.687500
vt 0.612305 0.780273
vt 0.611328 0.780273
vt 0.172852 0.687500
vt 0.222656 0.780273
vt 0.172852 0.780273
vt 0.619141 0.687500
vt 0.620117 0.780273
vt 0.619141 0.780273
vt 0.842773 0.793945
vt 0.843750 0.744141
vt 0.843750 0.793945
vt 0.849609 0.737305
vt 0.850586 0.687500
vt 0.850586 0.737305
vt 0.401367 0.812500
vt 0.402344 0.831055
vt 0.401367 0.831055
vt 0.862419 0.743521
vt 0.863983 0.763079
vt 0.862419 0.763079
vt 0.401367 0.837891
vt 0.402344 0.856445
vt 0.401367 0.856445
vt 0.862419 0.768760
vt 0.863984 0.788318
vt 0.862419 0.788318
vt 0.841855 0.802008
vt 0.843419 0.800052
vt 0.843419 0.802008
vt 0.841855 0.809645
vt 0.843419 0.807689
vt 0.843419 0.809645
vt 0.119141 0.813477
vt 0.126953 0.787109
vt 0.126953 0.813477
vt 0.142578 0.833008
vt 0.150391 0.820312
vt 0.150391 0.833008
vt 0.133789 0.813477
vt 0.141602 0.787109
vt 0.141602 0.813477
vt 0.157227 0.833008
vt 0.165039 0.820312
vt 0.165039 0.833008
vt 0.287109 0.805664
vt 0.299805 0.779297
vt 0.299805 0.805664
vt 0.306641 0.805664
vt 0.319336 0.779297
vt 0.319336 0.805664
vt 0.148438 0.813477
vt 0.155273 0.787109
vt 0.155273 0.813477
vt 0.171875 0.852539
vt 0.179688 0.839844
vt 0.179688 0.852539
vt 0.162109 0.813477
vt 0.169922 0.787109
vt 0.169922 0.813477
vt 0.185547 0.852539
vt 0.193359 0.839844
vt 0.193359 0.852539
vt 0.326172 0.805664
vt 0.338867 0.779297
vt 0.338867 0.805664
vt 0.345703 0.805664
vt 0.358398 0.779297
vt 0.358398 0.805664
vt 0.176758 0.813477
vt 0.184570 0.787109
vt 0.184570 0.813477
vt 0.200195 0.852539
vt 0.208008 0.839844
vt 0.208008 0.852539
vt 0.191406 0.813477
vt 0.198242 0.787109
vt 0.198242 0.813477
vt 0.595703 0.852539
vt 0.603516 0.839844
vt 0.603516 0.852539
vt 0.365234 0.805664
vt 0.377930 0.779297
vt 0.377930 0.805664
vt 0.384766 0.805664
vt 0.397461 0.779297
vt 0.397461 0.805664
vt 0.205078 0.813477
vt 0.212891 0.787109
vt 0.212891 0.813477
vt 0.610352 0.852539
vt 0.618164 0.839844
vt 0.618164 0.852539
vt 0.595703 0.813477
vt 0.603516 0.787109
vt 0.603516 0.813477
vt 0.229492 0.858398
vt 0.237305 0.845703
vt 0.237305 0.858398
vt 0.626953 0.805664
vt 0.639648 0.779297
vt 0.639648 0.805664
vt 0.793945 0.713867
vt 0.806641 0.687500
vt 0.806641 0.713867
vt 0.002930 0.846680
vt 0.010742 0.820312
vt 0.010742 0.846680
vt 0.214844 0.858398
vt 0.222656 0.845703
vt 0.222656 0.858398
vt 0.672852 0.845703
vt 0.680664 0.819336
vt 0.680664 0.845703
vt 0.244141 0.858398
vt 0.250977 0.845703
vt 0.250977 0.858398
vt 0.793945 0.747070
vt 0.806641 0.720703
vt 0.806641 0.747070
vt 0.793945 0.780273
vt 0.806641 0.753906
vt 0.806641 0.780273
vt 0.687500 0.845703
vt 0.695312 0.819336
vt 0.695312 0.845703
vt 0.257812 0.858398
vt 0.265625 0.845703
vt 0.265625 0.858398
vt 0.701172 0.845703
vt 0.708984 0.819336
vt 0.708984 0.845703
vt 0.272461 0.858398
vt 0.280273 0.845703
vt 0.280273 0.858398
vt 0.659180 0.813477
vt 0.671875 0.787109
vt 0.671875 0.813477
vt 0.677734 0.813477
vt 0.690430 0.787109
vt 0.690430 0.813477
vt 0.611328 0.813477
vt 0.619141 0.787109
vt 0.619141 0.813477
vt 0.085938 0.833008
vt 0.092773 0.820312
vt 0.092773 0.833008
vt 0.813477 0.713867
vt 0.821289 0.687500
vt 0.821289 0.713867
vt 0.114258 0.833008
vt 0.122070 0.820312
vt 0.122070 0.833008
vt 0.659180 0.713867
vt 0.671875 0.687500
vt 0.671875 0.713867
vt 0.677734 0.713867
vt 0.690430 0.687500
vt 0.690430 0.713867
vt 0.813477 0.747070
vt 0.821289 0.720703
vt 0.821289 0.747070
vt 0.200195 0.833008
vt 0.208008 0.820312
vt 0.208008 0.833008
vt 0.813477 0.780273
vt 0.821289 0.753906
vt 0.821289 0.780273
vt 0.286133 0.858398
vt 0.293945 0.845703
vt 0.293945 0.858398
vt 0.697266 0.713867
vt 0.709961 0.687500
vt 0.709961 0.713867
vt 0.716797 0.713867
vt 0.729492 0.687500
vt 0.729492 0.713867
vt 0.813477 0.813477
vt 0.821289 0.787109
vt 0.821289 0.813477
vt 0.595703 0.833008
vt 0.603516 0.820312
vt 0.603516 0.833008
vt 0.828125 0.713867
vt 0.835938 0.687500
vt 0.835938 0.713867
vt 0.610352 0.833008
vt 0.618164 0.820312
vt 0.618164 0.833008
vt 0.659180 0.747070
vt 0.671875 0.720703
vt 0.671875 0.747070
vt 0.677734 0.747070
vt 0.690430 0.720703
vt 0.690430 0.747070
vt 0.828125 0.747070
vt 0.835938 0.720703
vt 0.835938 0.747070
vt 0.300781 0.858398
vt 0.308594 0.845703
vt 0.308594 0.858398
vt 0.828125 0.780273
vt 0.835938 0.753906
vt 0.835938 0.780273
vt 0.459961 0.838867
vt 0.466797 0.826172
vt 0.466797 0.838867
vt 0.697266 0.747070
vt 0.709961 0.720703
vt 0.709961 0.747070
vt 0.716797 0.747070
vt 0.729492 0.720703
vt 0.729492 0.747070
vt 0.017578 0.846680
vt 0.025391 0.820312
vt 0.025391 0.846680
vt 0.085938 0.852539
vt 0.092773 0.839844
vt 0.092773 0.852539
vt 0.715820 0.845703
vt 0.723633 0.819336
vt 0.723633 0.845703
vt 0.473633 0.838867
vt 0.481445 0.826172
vt 0.481445 0.838867
vt 0.736328 0.713867
vt 0.749023 0.687500
vt 0.749023 0.713867
vt 0.736328 0.747070
vt 0.749023 0.720703
vt 0.749023 0.747070
vt 0.730469 0.845703
vt 0.738281 0.819336
vt 0.738281 0.845703
vt 0.100586 0.852539
vt 0.107422 0.839844
vt 0.107422 0.852539
vt 0.744141 0.845703
vt 0.751953 0.819336
vt 0.751953 0.845703
vt 0.114258 0.852539
vt 0.122070 0.839844
vt 0.122070 0.852539
vt 0.755859 0.713867
vt 0.768555 0.687500
vt 0.768555 0.713867
vt 0.755859 0.747070
vt 0.768555 0.720703
vt 0.768555 0.747070
vt 0.828125 0.813477
vt 0.835938 0.787109
vt 0.835938 0.813477
vt 0.128906 0.833008
vt 0.136719 0.820312
vt 0.136719 0.833008
vt 0.229492 0.838867
vt 0.237305 0.812500
vt 0.237305 0.838867
vt 0.100586 0.833008
vt 0.107422 0.820312
vt 0.107422 0.833008
vt 0.659180 0.780273
vt 0.671875 0.753906
vt 0.671875 0.780273
vt 0.677734 0.780273
vt 0.690430 0.753906
vt 0.690430 0.780273
vt 0.244141 0.838867
vt 0.250977 0.812500
vt 0.250977 0.838867
vt 0.315430 0.858398
vt 0.323242 0.845703
vt 0.323242 0.858398
vt 0.257812 0.838867
vt 0.265625 0.812500
vt 0.265625 0.838867
vt 0.488281 0.838867
vt 0.496094 0.826172
vt 0.496094 0.838867
vt 0.697266 0.780273
vt 0.709961 0.753906
vt 0.709961 0.780273
vt 0.716797 0.780273
vt 0.729492 0.753906
vt 0.729492 0.780273
vt 0.272461 0.838867
vt 0.280273 0.812500
vt 0.280273 0.838867
vt 0.501953 0.838867
vt 0.509766 0.826172
vt 0.509766 0.838867
vt 0.286133 0.838867
vt 0.293945 0.812500
vt 0.293945 0.838867
vt 0.516602 0.838867
vt 0.524414 0.826172
vt 0.524414 0.838867
vt 0.736328 0.780273
vt 0.749023 0.753906
vt 0.749023 0.780273
vt 0.755859 0.780273
vt 0.768555 0.753906
vt 0.768555 0.780273
vt 0.300781 0.838867
vt 0.308594 0.812500
vt 0.308594 0.838867
vt 0.531250 0.838867
vt 0.539062 0.826172
vt 0.539062 0.838867
vt 0.315430 0.838867
vt 0.323242 0.812500
vt 0.323242 0.838867
vt 0.329102 0.858398
vt 0.336914 0.845703
vt 0.336914 0.858398
vt 0.775391 0.713867
vt 0.788086 0.687500
vt 0.788086 0.713867
vt 0.775391 0.747070
vt 0.788086 0.720703
vt 0.788086 0.747070
vt 0.032227 0.846680
vt 0.039062 0.820312
vt 0.039062 0.846680
vt 0.546875 0.838867
vt 0.554688 0.826172
vt 0.554688 0.838867
vt 0.758789 0.845703
vt 0.766602 0.819336
vt 0.766602 0.845703
vt 0.128906 0.852539
vt 0.136719 0.839844
vt 0.136719 0.852539
vt 0.775391 0.780273
vt 0.788086 0.753906
vt 0.788086 0.780273
vt 0.229492 0.805664
vt 0.242188 0.779297
vt 0.242188 0.805664
vt 0.773438 0.845703
vt 0.780273 0.819336
vt 0.780273 0.845703
vt 0.142578 0.852539
vt 0.150391 0.839844
vt 0.150391 0.852539
vt 0.787109 0.845703
vt 0.794922 0.819336
vt 0.794922 0.845703
vt 0.157227 0.852539
vt 0.165039 0.839844
vt 0.165039 0.852539
vt 0.249023 0.805664
vt 0.261719 0.779297
vt 0.261719 0.805664
vt 0.268555 0.805664
vt 0.281250 0.779297
vt 0.281250 0.805664
vt 0.329102 0.838867
vt 0.336914 0.812500
vt 0.336914 0.838867
vt 0.171875 0.833008
vt 0.179688 0.820312
vt 0.179688 0.833008
vt 0.343750 0.838867
vt 0.351562 0.812500
vt 0.351562 0.838867
vt 0.185547 0.833008
vt 0.193359 0.820312
vt 0.193359 0.833008
vt 0.697266 0.813477
vt 0.709961 0.787109
vt 0.709961 0.813477
vt 0.716797 0.813477
vt 0.729492 0.787109
vt 0.729492 0.813477
vt 0.358398 0.838867
vt 0.365234 0.812500
vt 0.365234 0.838867
vt 0.343750 0.858398
vt 0.351562 0.845703
vt 0.351562 0.858398
vt 0.372070 0.838867
vt 0.379883 0.812500
vt 0.379883 0.838867
vt 0.358398 0.858398
vt 0.365234 0.845703
vt 0.365234 0.858398
vt 0.736328 0.813477
vt 0.749023 0.787109
vt 0.749023 0.813477
vt 0.755859 0.813477
vt 0.768555 0.787109
vt 0.768555 0.813477
vt 0.386719 0.838867
vt 0.394531 0.812500
vt 0.394531 0.838867
vt 0.372070 0.858398
vt 0.379883 0.845703
vt 0.379883 0.858398
vt 0.626953 0.838867
vt 0.634766 0.812500
vt 0.634766 0.838867
vt 0.386719 0.858398
vt 0.394531 0.845703
vt 0.394531 0.858398
vt 0.775391 0.813477
vt 0.788086 0.787109
vt 0.788086 0.813477
vt 0.793945 0.813477
vt 0.806641 0.787109
vt 0.806641 0.813477
vt 0.640625 0.838867
vt 0.648438 0.812500
vt 0.648438 0.838867
vt 0.626953 0.858398
vt 0.634766 0.845703
vt 0.634766 0.858398
vt 0.659180 0.845703
vt 0.666016 0.819336
vt 0.666016 0.845703
vt 0.640625 0.858398
vt 0.648438 0.845703
vt 0.648438 0.858398
vt 0.002930 0.813477
vt 0.015625 0.787109
vt 0.015625 0.813477
vt 0.022461 0.813477
vt 0.035156 0.787109
vt 0.035156 0.813477
vt 0.045898 0.846680
vt 0.053711 0.820312
vt 0.053711 0.846680
vt 0.459961 0.858398
vt 0.466797 0.845703
vt 0.466797 0.858398
vt 0.801758 0.845703
vt 0.809570 0.819336
vt 0.809570 0.845703
vt 0.473633 0.858398
vt 0.481445 0.845703
vt 0.481445 0.858398
vt 0.041992 0.813477
vt 0.054688 0.787109
vt 0.054688 0.813477
vt 0.061523 0.813477
vt 0.074219 0.787109
vt 0.074219 0.813477
vt 0.816406 0.845703
vt 0.823242 0.819336
vt 0.823242 0.845703
vt 0.488281 0.858398
vt 0.496094 0.845703
vt 0.496094 0.858398
vt 0.830078 0.845703
vt 0.837891 0.819336
vt 0.837891 0.845703
vt 0.501953 0.858398
vt 0.509766 0.845703
vt 0.509766 0.858398
vt 0.081055 0.813477
vt 0.093750 0.787109
vt 0.093750 0.813477
vt 0.100586 0.813477
vt 0.113281 0.787109
vt 0.113281 0.813477
vt 0.849492 0.802194
vt 0.850274 0.743521
vt 0.850274 0.802194
vt 0.989914 0.657839
vt 0.990696 0.321446
vt 0.990696 0.657839
vt 0.855955 0.802194
vt 0.856738 0.743521
vt 0.856738 0.802194
vt 0.996377 0.657839
vt 0.997159 0.321446
vt 0.997159 0.657839
vt 0.819336 0.338867
vt 0.761719 0.002930
vt 0.819336 0.002930
vt 0.819336 0.680664
vt 0.761719 0.345703
vt 0.819336 0.345703
vt 0.808594 0.856445
vt 0.810547 0.852539
vt 0.810547 0.856445
vt 0.955078 0.657227
vt 0.957031 0.322266
vt 0.957031 0.657227
vt 0.817383 0.856445
vt 0.819336 0.852539
vt 0.819336 0.856445
vt 0.963867 0.657227
vt 0.965820 0.322266
vt 0.965820 0.657227
vt 0.929688 0.338867
vt 0.925781 0.002930
vt 0.929688 0.002930
vt 0.929688 0.680664
vt 0.925781 0.345703
vt 0.929688 0.345703
vt 0.826172 0.856445
vt 0.828125 0.852539
vt 0.828125 0.856445
vt 0.972656 0.657227
vt 0.974609 0.322266
vt 0.974609 0.657227
vt 0.834961 0.856445
vt 0.836914 0.852539
vt 0.836914 0.856445
vt 0.981445 0.657227
vt 0.983398 0.322266
vt 0.983398 0.657227
vt 0.918945 0.338867
vt 0.915039 0.002930
vt 0.918945 0.002930
vt 0.918945 0.680664
vt 0.915039 0.345703
vt 0.918945 0.345703
vt 0.907227 0.315430
vt 0.904297 0.002930
vt 0.907227 0.002930
vt 0.884766 0.315430
vt 0.881836 0.002930
vt 0.884766 0.002930
vt 0.881836 0.315430
vt 0.880859 0.002930
vt 0.880859 0.315430
vt 0.877930 0.002930
vt 0.904297 0.322266
vt 0.907227 0.633789
vt 0.904297 0.633789
vt 0.907227 0.322266
vt 0.908203 0.633789
vt 0.877930 0.322266
vt 0.880859 0.633789
vt 0.877930 0.633789
vt 0.880859 0.322266
vt 0.881836 0.633789
vt 0.516602 0.850586
vt 0.522461 0.846680
vt 0.524414 0.850586
vt 0.881836 0.322266
vt 0.884766 0.633789
vt 0.908203 0.315430
vt 0.908203 0.002930
vt 0.539062 0.850586
vt 0.531250 0.850586
vt 0.533203 0.846680
vt 0.899414 0.952148
vt 0.897461 0.640625
vt 0.899414 0.640625
vt 0.880859 0.952148
vt 0.879883 0.640625
vt 0.880859 0.640625
vt 0.879883 0.952148
vt 0.877930 0.640625
vt 0.955078 0.002930
vt 0.956055 0.315430
vt 0.955078 0.315430
vt 0.956055 0.002930
vt 0.958008 0.315430
vt 0.887695 0.640625
vt 0.889648 0.952148
vt 0.887695 0.952148
vt 0.758789 0.854492
vt 0.757812 0.856445
vt 0.754883 0.855469
vt 0.889648 0.640625
vt 0.890625 0.952148
vt 0.900391 0.952148
vt 0.900391 0.640625
vt 0.767578 0.856445
vt 0.765625 0.854492
vt 0.768555 0.852539
vt 0.712891 0.852539
vt 0.716797 0.858398
vt 0.712891 0.858398
vt 0.646484 0.788086
vt 0.652344 0.779297
vt 0.652344 0.788086
vt 0.723633 0.852539
vt 0.727539 0.858398
vt 0.723633 0.858398
vt 0.646484 0.803711
vt 0.652344 0.794922
vt 0.652344 0.803711
vt 0.674805 0.861328
vt 0.671875 0.852539
vt 0.674805 0.852539
vt 0.685547 0.861328
vt 0.681641 0.852539
vt 0.685547 0.852539
vt 0.733398 0.852539
vt 0.737305 0.858398
vt 0.733398 0.858398
vt 0.546875 0.854492
vt 0.552734 0.845703
vt 0.552734 0.854492
vt 0.744141 0.852539
vt 0.748047 0.858398
vt 0.744141 0.858398
vt 0.659180 0.861328
vt 0.665039 0.852539
vt 0.665039 0.861328
vt 0.696289 0.861328
vt 0.692383 0.852539
vt 0.696289 0.852539
vt 0.706055 0.861328
vt 0.703125 0.852539
vt 0.706055 0.852539
vt 0.935547 0.002930
vt 0.935547 0.345703
vt 0.945312 0.002930
vt 0.945312 0.345703
vt 0.002930 0.338867
vt 0.002930 0.680664
vt 0.470703 0.687500
vt 0.623047 0.002930
vt 0.487305 0.687500
vt 0.623047 0.345703
vt 0.826172 0.338867
vt 0.826172 0.680664
vt 0.345703 0.002930
vt 0.504883 0.687500
vt 0.484375 0.002930
vt 0.522461 0.687500
vt 0.842773 0.002930
vt 0.842773 0.345703
vt 0.345703 0.345703
vt 0.540039 0.687500
vt 0.484375 0.345703
vt 0.557617 0.687500
vt 0.860352 0.002930
vt 0.860352 0.345703
vt 0.777344 0.852539
vt 0.891602 0.002930
vt 0.786133 0.852539
vt 0.891602 0.322266
vt 0.906250 0.952148
vt 0.964844 0.315430
vt 0.408203 0.687500
vt 0.793945 0.852539
vt 0.420898 0.687500
vt 0.565430 0.687500
vt 0.580078 0.687500
vt 0.434570 0.687500
vt 0.801758 0.852539
vt 0.447266 0.687500
vt 0.573242 0.687500
vt 0.587891 0.687500
vt 0.267578 0.687500
vt 0.627930 0.687500
vt 0.312500 0.687500
vt 0.635742 0.687500
vt 0.849609 0.808594
vt 0.061523 0.820312
vt 0.052734 0.687500
vt 0.596680 0.687500
vt 0.109375 0.687500
vt 0.604492 0.687500
vt 0.219727 0.787109
vt 0.842773 0.687500
vt 0.858398 0.687500
vt 0.859085 0.807875
vt 0.858398 0.712891
vt 0.859085 0.833114
vt 0.002930 0.853516
vt 0.010086 0.852672
vt 0.357422 0.687500
vt 0.644531 0.687500
vt 0.402344 0.687500
vt 0.652344 0.687500
vt 0.069336 0.820312
vt 0.077148 0.820312
vt 0.166016 0.687500
vt 0.612305 0.687500
vt 0.222656 0.687500
vt 0.620117 0.687500
vt 0.842773 0.744141
vt 0.849609 0.687500
vt 0.402344 0.812500
vt 0.863983 0.743521
vt 0.402344 0.837891
vt 0.863984 0.768760
vt 0.841855 0.800052
vt 0.841855 0.807689
vt 0.119141 0.787109
vt 0.142578 0.820312
vt 0.133789 0.787109
vt 0.157227 0.820312
vt 0.287109 0.779297
vt 0.306641 0.779297
vt 0.148438 0.787109
vt 0.171875 0.839844
vt 0.162109 0.787109
vt 0.185547 0.839844
vt 0.326172 0.779297
vt 0.345703 0.779297
vt 0.176758 0.787109
vt 0.200195 0.839844
vt 0.191406 0.787109
vt 0.595703 0.839844
vt 0.365234 0.779297
vt 0.384766 0.779297
vt 0.205078 0.787109
vt 0.610352 0.839844
vt 0.595703 0.787109
vt 0.229492 0.845703
vt 0.626953 0.779297
vt 0.793945 0.687500
vt 0.002930 0.820312
vt 0.214844 0.845703
vt 0.672852 0.819336
vt 0.244141 0.845703
vt 0.793945 0.720703
vt 0.793945 0.753906
vt 0.687500 0.819336
vt 0.257812 0.845703
vt 0.701172 0.819336
vt 0.272461 0.845703
vt 0.659180 0.787109
vt 0.677734 0.787109
vt 0.611328 0.787109
vt 0.085938 0.820312
vt 0.813477 0.687500
vt 0.114258 0.820312
vt 0.659180 0.687500
vt 0.677734 0.687500
vt 0.813477 0.720703
vt 0.200195 0.820312
vt 0.813477 0.753906
vt 0.286133 0.845703
vt 0.697266 0.687500
vt 0.716797 0.687500
vt 0.813477 0.787109
vt 0.595703 0.820312
vt 0.828125 0.687500
vt 0.610352 0.820312
vt 0.659180 0.720703
vt 0.677734 0.720703
vt 0.828125 0.720703
vt 0.300781 0.845703
vt 0.828125 0.753906
vt 0.459961 0.826172
vt 0.697266 0.720703
vt 0.716797 0.720703
vt 0.017578 0.820312
vt 0.085938 0.839844
vt 0.715820 0.819336
vt 0.473633 0.826172
vt 0.736328 0.687500
vt 0.736328 0.720703
vt 0.730469 0.819336
vt 0.100586 0.839844
vt 0.744141 0.819336
vt 0.114258 0.839844
vt 0.755859 0.687500
vt 0.755859 0.720703
vt 0.828125 0.787109
vt 0.128906 0.820312
vt 0.229492 0.812500
vt 0.100586 0.820312
vt 0.659180 0.753906
vt 0.677734 0.753906
vt 0.244141 0.812500
vt 0.315430 0.845703
vt 0.257812 0.812500
vt 0.488281 0.826172
vt 0.697266 0.753906
vt 0.716797 0.753906
vt 0.272461 0.812500
vt 0.501953 0.826172
vt 0.286133 0.812500
vt 0.516602 0.826172
vt 0.736328 0.753906
vt 0.755859 0.753906
vt 0.300781 0.812500
vt 0.531250 0.826172
vt 0.315430 0.812500
vt 0.329102 0.845703
vt 0.775391 0.687500
vt 0.775391 0.720703
vt 0.032227 0.820312
vt 0.546875 0.826172
vt 0.758789 0.819336
vt 0.128906 0.839844
vt 0.775391 0.753906
vt 0.229492 0.779297
vt 0.773438 0.819336
vt 0.142578 0.839844
vt 0.787109 0.819336
vt 0.157227 0.839844
vt 0.249023 0.779297
vt 0.268555 0.779297
vt 0.329102 0.812500
vt 0.171875 0.820312
vt 0.343750 0.812500
vt 0.185547 0.820312
vt 0.697266 0.787109
vt 0.716797 0.787109
vt 0.358398 0.812500
vt 0.343750 0.845703
vt 0.372070 0.812500
vt 0.358398 0.845703
vt 0.736328 0.787109
vt 0.755859 0.787109
vt 0.386719 0.812500
vt 0.372070 0.845703
vt 0.626953 0.812500
vt 0.386719 0.845703
vt 0.775391 0.787109
vt 0.793945 0.787109
vt 0.640625 0.812500
vt 0.626953 0.845703
vt 0.659180 0.819336
vt 0.640625 0.845703
vt 0.002930 0.787109
vt 0.022461 0.787109
vt 0.045898 0.820312
vt 0.459961 0.845703
vt 0.801758 0.819336
vt 0.473633 0.845703
vt 0.041992 0.787109
vt 0.061523 0.787109
vt 0.816406 0.819336
vt 0.488281 0.845703
vt 0.830078 0.819336
vt 0.501953 0.845703
vt 0.081055 0.787109
vt 0.100586 0.787109
vt 0.849492 0.743521
vt 0.989914 0.321446
vt 0.855955 0.743521
vt 0.996377 0.321446
vt 0.761719 0.338867
vt 0.761719 0.680664
vt 0.808594 0.852539
vt 0.955078 0.322266
vt 0.817383 0.852539
vt 0.963867 0.322266
vt 0.925781 0.338867
vt 0.925781 0.680664
vt 0.826172 0.852539
vt 0.972656 0.322266
vt 0.834961 0.852539
vt 0.981445 0.322266
vt 0.915039 0.338867
vt 0.915039 0.680664
vt 0.904297 0.315430
vt 0.877930 0.315430
vt 0.908203 0.322266
vt 0.522461 0.853516
vt 0.521484 0.853516
vt 0.518555 0.853516
vt 0.516602 0.848633
vt 0.518555 0.846680
vt 0.521484 0.845703
vt 0.524414 0.848633
vt 0.884766 0.322266
vt 0.535156 0.845703
vt 0.537109 0.846680
vt 0.539062 0.848633
vt 0.537109 0.853516
vt 0.535156 0.853516
vt 0.533203 0.853516
vt 0.531250 0.848633
vt 0.897461 0.952148
vt 0.877930 0.952148
vt 0.958008 0.002930
vt 0.754883 0.854492
vt 0.756836 0.852539
vt 0.757812 0.852539
vt 0.758789 0.855469
vt 0.756836 0.856445
vt 0.890625 0.640625
vt 0.769531 0.854492
vt 0.769531 0.855469
vt 0.768555 0.856445
vt 0.765625 0.855469
vt 0.767578 0.852539
vt 0.716797 0.852539
vt 0.646484 0.779297
vt 0.727539 0.852539
vt 0.646484 0.794922
vt 0.671875 0.861328
vt 0.681641 0.861328
vt 0.737305 0.852539
vt 0.546875 0.845703
vt 0.748047 0.852539
vt 0.659180 0.852539
vt 0.692383 0.861328
vt 0.703125 0.861328
s 0
g pe_sewer_stairs_render_EnvironmentBakedAtlas
usemtl EnvironmentBakedAtlas
f 2/1/1 3/2/1 1/3/1
f 4/4/2 7/5/2 3/6/2
f 8/7/3 5/8/3 7/9/3
f 6/10/4 1/11/4 5/12/4
f 7/13/5 1/14/5 3/15/5
f 4/16/6 6/17/6 8/18/6
f 10/19/1 11/20/1 9/21/1
f 12/22/2 15/23/2 11/24/2
f 16/25/3 13/26/3 15/27/3
f 14/28/4 9/29/4 13/30/4
f 15/31/5 9/32/5 11/33/5
f 12/34/6 14/35/6 16/36/6
f 18/37/1 19/38/1 17/39/1
f 20/40/2 23/41/2 19/42/2
f 24/43/3 21/44/3 23/45/3
f 22/46/4 17/47/4 21/48/4
f 23/49/5 17/50/5 19/51/5
f 20/52/6 22/53/6 24/54/6
f 26/55/1 27/56/1 25/57/1
f 28/58/2 31/59/2 27/60/2
f 32/61/3 29/62/3 31/63/3
f 30/64/4 25/65/4 29/66/4
f 31/67/5 25/68/5 27/69/5
f 28/70/6 30/71/6 32/72/6
f 34/73/1 35/74/1 33/75/1
f 36/76/2 39/77/2 35/78/2
f 40/79/3 37/80/3 39/81/3
f 38/82/4 33/83/4 37/84/4
f 39/85/5 33/86/5 35/87/5
f 36/88/6 38/89/6 40/90/6
f 42/91/1 43/92/1 41/93/1
f 44/94/2 47/95/2 43/96/2
f 48/97/3 45/98/3 47/99/3
f 46/100/4 41/101/4 45/102/4
f 47/103/5 41/101/5 43/104/5
f 44/105/6 46/106/6 48/107/6
f 50/108/1 51/109/1 49/110/1
f 52/111/2 55/112/2 51/113/2
f 56/114/3 53/115/3 55/116/3
f 54/117/4 49/118/4 53/119/4
f 55/120/5 49/118/5 51/121/5
f 52/122/6 54/123/6 56/124/6
f 58/125/1 59/126/1 57/127/1
f 60/128/2 63/129/2 59/130/2
f 64/131/3 61/132/3 63/133/3
f 62/134/4 57/135/4 61/136/4
f 63/137/5 57/138/5 59/139/5
f 60/140/6 62/141/6 64/142/6
f 66/143/1 67/144/1 65/145/1
f 68/146/2 71/147/2 67/148/2
f 72/149/3 69/150/3 71/151/3
f 70/152/4 65/153/4 69/154/4
f 71/155/5 65/156/5 67/157/5
f 68/158/6 70/159/6 72/160/6
f 74/161/1 75/162/1 73/163/1
f 76/164/2 79/165/2 75/166/2
f 80/167/3 77/168/3 79/169/3
f 78/170/4 73/171/4 77/172/4
f 79/173/5 73/174/5 75/175/5
f 76/176/6 78/177/6 80/178/6
f 82/179/1 83/180/1 81/181/1
f 84/182/2 87/183/2 83/184/2
f 88/185/3 85/186/3 87/187/3
f 86/188/4 81/189/4 85/190/4
f 87/191/5 81/192/5 83/193/5
f 84/194/6 86/195/6 88/196/6
f 90/197/1 91/198/1 89/199/1
f 92/200/2 95/201/2 91/202/2
f 96/203/3 93/204/3 95/205/3
f 94/206/4 89/207/4 93/208/4
f 95/209/5 89/210/5 91/211/5
f 92/212/6 94/213/6 96/214/6
f 98/215/1 99/216/1 97/217/1
f 100/218/2 103/219/2 99/220/2
f 104/221/3 101/222/3 103/223/3
f 102/224/4 97/225/4 101/226/4
f 103/227/5 97/228/5 99/229/5
f 100/230/6 102/231/6 104/232/6
f 106/233/1 107/234/1 105/235/1
f 108/236/2 111/237/2 107/238/2
f 112/239/3 109/240/3 111/241/3
f 110/242/4 105/243/4 109/244/4
f 111/245/5 105/246/5 107/247/5
f 108/248/6 110/249/6 112/250/6
f 114/251/1 115/252/1 113/253/1
f 116/254/2 119/255/2 115/256/2
f 120/257/3 117/258/3 119/259/3
f 118/260/4 113/261/4 117/262/4
f 119/263/5 113/264/5 115/265/5
f 116/266/6 118/267/6 120/268/6
f 122/269/1 123/270/1 121/271/1
f 124/272/2 127/273/2 123/274/2
f 128/275/3 125/276/3 127/277/3
f 126/278/4 121/279/4 125/280/4
f 127/281/5 121/282/5 123/283/5
f 124/284/6 126/285/6 128/286/6
f 130/287/1 131/288/1 129/289/1
f 132/290/2 135/291/2 131/292/2
f 136/293/3 133/294/3 135/295/3
f 134/296/4 129/297/4 133/298/4
f 135/299/5 129/300/5 131/301/5
f 132/302/6 134/303/6 136/304/6
f 138/305/1 139/306/1 137/307/1
f 140/308/2 143/309/2 139/310/2
f 144/311/3 141/312/3 143/313/3
f 142/314/4 137/315/4 141/316/4
f 143/317/5 137/318/5 139/319/5
f 140/320/6 142/321/6 144/322/6
f 146/323/1 147/324/1 145/325/1
f 148/326/2 151/327/2 147/328/2
f 152/329/3 149/330/3 151/331/3
f 150/332/4 145/333/4 149/334/4
f 151/335/5 145/336/5 147/337/5
f 148/338/6 150/339/6 152/340/6
f 154/341/1 155/342/1 153/343/1
f 156/344/2 159/345/2 155/346/2
f 160/347/3 157/348/3 159/349/3
f 158/350/4 153/351/4 157/352/4
f 159/353/5 153/354/5 155/355/5
f 156/356/6 158/357/6 160/358/6
f 162/359/1 163/360/1 161/361/1
f 164/362/2 167/363/2 163/364/2
f 168/365/3 165/366/3 167/367/3
f 166/368/4 161/369/4 165/370/4
f 167/371/5 161/372/5 163/373/5
f 164/374/6 166/375/6 168/376/6
f 170/377/1 171/378/1 169/379/1
f 172/380/2 175/381/2 171/382/2
f 176/383/3 173/384/3 175/385/3
f 174/386/4 169/387/4 173/388/4
f 175/389/5 169/390/5 171/391/5
f 172/392/6 174/393/6 176/394/6
f 178/395/1 179/396/1 177/397/1
f 180/398/2 183/399/2 179/400/2
f 184/401/3 181/402/3 183/403/3
f 182/404/4 177/405/4 181/406/4
f 183/407/5 177/408/5 179/409/5
f 180/410/6 182/411/6 184/412/6
f 186/413/1 187/414/1 185/415/1
f 188/416/2 191/417/2 187/418/2
f 192/419/3 189/420/3 191/421/3
f 190/422/4 185/423/4 189/424/4
f 191/425/5 185/426/5 187/427/5
f 188/428/6 190/429/6 192/430/6
f 194/431/1 195/432/1 193/433/1
f 196/434/2 199/435/2 195/436/2
f 200/437/3 197/438/3 199/439/3
f 198/440/4 193/441/4 197/442/4
f 199/443/5 193/444/5 195/445/5
f 196/446/6 198/447/6 200/448/6
f 202/449/1 203/450/1 201/451/1
f 204/452/2 207/453/2 203/454/2
f 208/455/3 205/456/3 207/457/3
f 206/458/4 201/459/4 205/460/4
f 207/461/5 201/462/5 203/463/5
f 204/464/6 206/465/6 208/466/6
f 210/467/1 211/468/1 209/469/1
f 212/470/2 215/471/2 211/472/2
f 216/473/3 213/474/3 215/475/3
f 214/476/4 209/477/4 213/478/4
f 215/479/5 209/480/5 211/481/5
f 212/482/6 214/483/6 216/484/6
f 218/485/1 219/486/1 217/487/1
f 220/488/2 223/489/2 219/490/2
f 224/491/3 221/492/3 223/493/3
f 222/494/4 217/495/4 221/496/4
f 223/497/5 217/498/5 219/499/5
f 220/500/6 222/501/6 224/502/6
f 226/503/1 227/504/1 225/505/1
f 228/506/2 231/507/2 227/508/2
f 232/509/3 229/510/3 231/511/3
f 230/512/4 225/513/4 229/514/4
f 231/515/5 225/516/5 227/517/5
f 228/518/6 230/519/6 232/520/6
f 234/521/1 235/522/1 233/523/1
f 236/524/2 239/525/2 235/526/2
f 240/527/3 237/528/3 239/529/3
f 238/530/4 233/531/4 237/532/4
f 239/533/5 233/534/5 235/535/5
f 236/536/6 238/537/6 240/538/6
f 242/539/1 243/540/1 241/541/1
f 244/542/2 247/543/2 243/544/2
f 248/545/3 245/546/3 247/547/3
f 246/548/4 241/549/4 245/550/4
f 247/551/5 241/552/5 243/553/5
f 244/554/6 246/555/6 248/556/6
f 250/557/1 251/558/1 249/559/1
f 252/560/2 255/561/2 251/562/2
f 256/563/3 253/564/3 255/565/3
f 254/566/4 249/567/4 253/568/4
f 255/569/5 249/570/5 251/571/5
f 252/572/6 254/573/6 256/574/6
f 258/575/1 259/576/1 257/577/1
f 260/578/2 263/579/2 259/580/2
f 264/581/3 261/582/3 263/583/3
f 262/584/4 257/585/4 261/586/4
f 263/587/5 257/588/5 259/589/5
f 260/590/6 262/591/6 264/592/6
f 266/593/1 267/594/1 265/595/1
f 268/596/2 271/597/2 267/598/2
f 272/599/3 269/600/3 271/601/3
f 270/602/4 265/603/4 269/604/4
f 271/605/5 265/606/5 267/607/5
f 268/608/6 270/609/6 272/610/6
f 274/611/1 275/612/1 273/613/1
f 276/614/2 279/615/2 275/616/2
f 280/617/3 277/618/3 279/619/3
f 278/620/4 273/621/4 277/622/4
f 279/623/5 273/624/5 275/625/5
f 276/626/6 278/627/6 280/628/6
f 282/629/1 283/630/1 281/631/1
f 284/632/2 287/633/2 283/634/2
f 288/635/3 285/636/3 287/637/3
f 286/638/4 281/639/4 285/640/4
f 287/641/5 281/642/5 283/643/5
f 284/644/6 286/645/6 288/646/6
f 290/647/1 291/648/1 289/649/1
f 292/650/2 295/651/2 291/652/2
f 296/653/3 293/654/3 295/655/3
f 294/656/4 289/657/4 293/658/4
f 295/659/5 289/660/5 291/661/5
f 292/662/6 294/663/6 296/664/6
f 298/665/1 299/666/1 297/667/1
f 300/668/2 303/669/2 299/670/2
f 304/671/3 301/672/3 303/673/3
f 302/674/4 297/675/4 301/676/4
f 303/677/5 297/678/5 299/679/5
f 300/680/6 302/681/6 304/682/6
f 306/683/1 307/684/1 305/685/1
f 308/686/2 311/687/2 307/688/2
f 312/689/3 309/690/3 311/691/3
f 310/692/4 305/693/4 309/694/4
f 311/695/5 305/696/5 307/697/5
f 308/698/6 310/699/6 312/700/6
f 314/701/1 315/702/1 313/703/1
f 316/704/2 319/705/2 315/706/2
f 320/707/3 317/708/3 319/709/3
f 318/710/4 313/711/4 317/712/4
f 319/713/5 313/714/5 315/715/5
f 316/716/6 318/717/6 320/718/6
f 322/719/7 323/720/7 321/721/7
f 324/722/8 325/723/8 323/724/8
f 326/725/5 327/726/5 325/723/5
f 328/727/9 329/728/9 327/726/9
f 330/729/10 331/730/10 329/731/10
f 332/732/11 333/733/11 331/730/11
f 334/734/12 335/735/12 333/736/12
f 336/737/6 337/738/6 335/735/6
f 338/739/3 330/740/3 326/741/3
f 338/742/13 339/743/13 337/738/13
f 340/744/14 321/721/14 339/745/14
f 327/746/1 335/747/1 339/748/1
f 342/749/15 343/750/15 341/751/15
f 344/752/16 345/753/16 343/754/16
f 346/755/17 347/756/17 345/753/17
f 348/757/18 349/758/18 347/759/18
f 350/760/19 351/761/19 349/758/19
f 352/762/20 353/763/20 351/764/20
f 354/765/3 350/766/3 346/767/3
f 354/768/21 355/769/21 353/763/21
f 356/770/22 341/751/22 355/771/22
f 347/772/1 351/773/1 355/774/1
f 358/775/1 359/776/1 357/777/1
f 360/778/2 363/779/2 359/780/2
f 364/781/3 361/782/3 363/783/3
f 362/784/4 357/785/4 361/786/4
f 363/787/5 357/788/5 359/789/5
f 360/790/6 362/791/6 364/792/6
f 366/793/1 367/794/1 365/795/1
f 368/796/2 371/797/2 367/798/2
f 372/799/3 369/800/3 371/801/3
f 370/802/4 365/803/4 369/804/4
f 371/805/5 365/806/5 367/807/5
f 368/808/6 370/809/6 372/810/6
f 2/1/1 4/811/1 3/2/1
f 4/4/2 8/812/2 7/5/2
f 8/7/3 6/813/3 5/8/3
f 6/10/4 2/814/4 1/11/4
f 7/13/5 5/815/5 1/14/5
f 4/16/6 2/816/6 6/17/6
f 10/19/1 12/817/1 11/20/1
f 12/22/2 16/818/2 15/23/2
f 16/25/3 14/819/3 13/26/3
f 14/28/4 10/820/4 9/29/4
f 15/31/5 13/821/5 9/32/5
f 12/34/6 10/822/6 14/35/6
f 18/37/1 20/823/1 19/38/1
f 20/40/2 24/824/2 23/41/2
f 24/43/3 22/825/3 21/44/3
f 22/46/4 18/826/4 17/47/4
f 23/49/5 21/827/5 17/50/5
f 20/52/6 18/828/6 22/53/6
f 26/55/1 28/829/1 27/56/1
f 28/58/2 32/830/2 31/59/2
f 32/61/3 30/831/3 29/62/3
f 30/64/4 26/832/4 25/65/4
f 31/67/5 29/833/5 25/68/5
f 28/70/6 26/834/6 30/71/6
f 34/73/1 36/835/1 35/74/1
f 36/76/2 40/836/2 39/77/2
f 40/79/3 38/837/3 37/80/3
f 38/82/4 34/838/4 33/83/4
f 39/85/5 37/839/5 33/86/5
f 36/88/6 34/840/6 38/89/6
f 42/91/1 44/841/1 43/92/1
f 44/94/2 48/842/2 47/95/2
f 48/97/3 46/843/3 45/98/3
f 46/100/4 42/844/4 41/101/4
f 47/103/5 45/102/5 41/101/5
f 44/105/6 42/845/6 46/106/6
f 50/108/1 52/846/1 51/109/1
f 52/111/2 56/847/2 55/112/2
f 56/114/3 54/848/3 53/115/3
f 54/117/4 50/849/4 49/118/4
f 55/120/5 53/119/5 49/118/5
f 52/122/6 50/850/6 54/123/6
f 58/125/1 60/851/1 59/126/1
f 60/128/2 64/852/2 63/129/2
f 64/131/3 62/853/3 61/132/3
f 62/134/4 58/854/4 57/135/4
f 63/137/5 61/855/5 57/138/5
f 60/140/6 58/856/6 62/141/6
f 66/143/1 68/857/1 67/144/1
f 68/146/2 72/858/2 71/147/2
f 72/149/3 70/859/3 69/150/3
f 70/152/4 66/860/4 65/153/4
f 71/155/5 69/861/5 65/156/5
f 68/158/6 66/862/6 70/159/6
f 74/161/1 76/863/1 75/162/1
f 76/164/2 80/864/2 79/165/2
f 80/167/3 78/865/3 77/168/3
f 78/170/4 74/866/4 73/171/4
f 79/173/5 77/867/5 73/174/5
f 76/176/6 74/868/6 78/177/6
f 82/179/1 84/869/1 83/180/1
f 84/182/2 88/870/2 87/183/2
f 88/185/3 86/871/3 85/186/3
f 86/188/4 82/872/4 81/189/4
f 87/191/5 85/873/5 81/192/5
f 84/194/6 82/874/6 86/195/6
f 90/197/1 92/875/1 91/198/1
f 92/200/2 96/876/2 95/201/2
f 96/203/3 94/877/3 93/204/3
f 94/206/4 90/878/4 89/207/4
f 95/209/5 93/879/5 89/210/5
f 92/212/6 90/880/6 94/213/6
f 98/215/1 100/881/1 99/216/1
f 100/218/2 104/882/2 103/219/2
f 104/221/3 102/883/3 101/222/3
f 102/224/4 98/884/4 97/225/4
f 103/227/5 101/885/5 97/228/5
f 100/230/6 98/886/6 102/231/6
f 106/233/1 108/887/1 107/234/1
f 108/236/2 112/888/2 111/237/2
f 112/239/3 110/889/3 109/240/3
f 110/242/4 106/890/4 105/243/4
f 111/245/5 109/891/5 105/246/5
f 108/248/6 106/892/6 110/249/6
f 114/251/1 116/893/1 115/252/1
f 116/254/2 120/894/2 119/255/2
f 120/257/3 118/895/3 117/258/3
f 118/260/4 114/896/4 113/261/4
f 119/263/5 117/897/5 113/264/5
f 116/266/6 114/898/6 118/267/6
f 122/269/1 124/899/1 123/270/1
f 124/272/2 128/900/2 127/273/2
f 128/275/3 126/901/3 125/276/3
f 126/278/4 122/902/4 121/279/4
f 127/281/5 125/903/5 121/282/5
f 124/284/6 122/904/6 126/285/6
f 130/287/1 132/905/1 131/288/1
f 132/290/2 136/906/2 135/291/2
f 136/293/3 134/907/3 133/294/3
f 134/296/4 130/908/4 129/297/4
f 135/299/5 133/909/5 129/300/5
f 132/302/6 130/910/6 134/303/6
f 138/305/1 140/911/1 139/306/1
f 140/308/2 144/912/2 143/309/2
f 144/311/3 142/913/3 141/312/3
f 142/314/4 138/914/4 137/315/4
f 143/317/5 141/915/5 137/318/5
f 140/320/6 138/916/6 142/321/6
f 146/323/1 148/917/1 147/324/1
f 148/326/2 152/918/2 151/327/2
f 152/329/3 150/919/3 149/330/3
f 150/332/4 146/920/4 145/333/4
f 151/335/5 149/921/5 145/336/5
f 148/338/6 146/922/6 150/339/6
f 154/341/1 156/923/1 155/342/1
f 156/344/2 160/924/2 159/345/2
f 160/347/3 158/925/3 157/348/3
f 158/350/4 154/926/4 153/351/4
f 159/353/5 157/927/5 153/354/5
f 156/356/6 154/928/6 158/357/6
f 162/359/1 164/929/1 163/360/1
f 164/362/2 168/930/2 167/363/2
f 168/365/3 166/931/3 165/366/3
f 166/368/4 162/932/4 161/369/4
f 167/371/5 165/933/5 161/372/5
f 164/374/6 162/934/6 166/375/6
f 170/377/1 172/935/1 171/378/1
f 172/380/2 176/936/2 175/381/2
f 176/383/3 174/937/3 173/384/3
f 174/386/4 170/938/4 169/387/4
f 175/389/5 173/939/5 169/390/5
f 172/392/6 170/940/6 174/393/6
f 178/395/1 180/941/1 179/396/1
f 180/398/2 184/942/2 183/399/2
f 184/401/3 182/943/3 181/402/3
f 182/404/4 178/944/4 177/405/4
f 183/407/5 181/945/5 177/408/5
f 180/410/6 178/946/6 182/411/6
f 186/413/1 188/947/1 187/414/1
f 188/416/2 192/948/2 191/417/2
f 192/419/3 190/949/3 189/420/3
f 190/422/4 186/950/4 185/423/4
f 191/425/5 189/951/5 185/426/5
f 188/428/6 186/952/6 190/429/6
f 194/431/1 196/953/1 195/432/1
f 196/434/2 200/954/2 199/435/2
f 200/437/3 198/955/3 197/438/3
f 198/440/4 194/956/4 193/441/4
f 199/443/5 197/957/5 193/444/5
f 196/446/6 194/958/6 198/447/6
f 202/449/1 204/959/1 203/450/1
f 204/452/2 208/960/2 207/453/2
f 208/455/3 206/961/3 205/456/3
f 206/458/4 202/962/4 201/459/4
f 207/461/5 205/963/5 201/462/5
f 204/464/6 202/964/6 206/465/6
f 210/467/1 212/965/1 211/468/1
f 212/470/2 216/966/2 215/471/2
f 216/473/3 214/967/3 213/474/3
f 214/476/4 210/968/4 209/477/4
f 215/479/5 213/969/5 209/480/5
f 212/482/6 210/970/6 214/483/6
f 218/485/1 220/971/1 219/486/1
f 220/488/2 224/972/2 223/489/2
f 224/491/3 222/973/3 221/492/3
f 222/494/4 218/974/4 217/495/4
f 223/497/5 221/975/5 217/498/5
f 220/500/6 218/976/6 222/501/6
f 226/503/1 228/977/1 227/504/1
f 228/506/2 232/978/2 231/507/2
f 232/509/3 230/979/3 229/510/3
f 230/512/4 226/980/4 225/513/4
f 231/515/5 229/981/5 225/516/5
f 228/518/6 226/982/6 230/519/6
f 234/521/1 236/983/1 235/522/1
f 236/524/2 240/984/2 239/525/2
f 240/527/3 238/985/3 237/528/3
f 238/530/4 234/986/4 233/531/4
f 239/533/5 237/987/5 233/534/5
f 236/536/6 234/988/6 238/537/6
f 242/539/1 244/989/1 243/540/1
f 244/542/2 248/990/2 247/543/2
f 248/545/3 246/991/3 245/546/3
f 246/548/4 242/992/4 241/549/4
f 247/551/5 245/993/5 241/552/5
f 244/554/6 242/994/6 246/555/6
f 250/557/1 252/995/1 251/558/1
f 252/560/2 256/996/2 255/561/2
f 256/563/3 254/997/3 253/564/3
f 254/566/4 250/998/4 249/567/4
f 255/569/5 253/999/5 249/570/5
f 252/572/6 250/1000/6 254/573/6
f 258/575/1 260/1001/1 259/576/1
f 260/578/2 264/1002/2 263/579/2
f 264/581/3 262/1003/3 261/582/3
f 262/584/4 258/1004/4 257/585/4
f 263/587/5 261/1005/5 257/588/5
f 260/590/6 258/1006/6 262/591/6
f 266/593/1 268/1007/1 267/594/1
f 268/596/2 272/1008/2 271/597/2
f 272/599/3 270/1009/3 269/600/3
f 270/602/4 266/1010/4 265/603/4
f 271/605/5 269/1011/5 265/606/5
f 268/608/6 266/1012/6 270/609/6
f 274/611/1 276/1013/1 275/612/1
f 276/614/2 280/1014/2 279/615/2
f 280/617/3 278/1015/3 277/618/3
f 278/620/4 274/1016/4 273/621/4
f 279/623/5 277/1017/5 273/624/5
f 276/626/6 274/1018/6 278/627/6
f 282/629/1 284/1019/1 283/630/1
f 284/632/2 288/1020/2 287/633/2
f 288/635/3 286/1021/3 285/636/3
f 286/638/4 282/1022/4 281/639/4
f 287/641/5 285/1023/5 281/642/5
f 284/644/6 282/1024/6 286/645/6
f 290/647/1 292/1025/1 291/648/1
f 292/650/2 296/1026/2 295/651/2
f 296/653/3 294/1027/3 293/654/3
f 294/656/4 290/1028/4 289/657/4
f 295/659/5 293/1029/5 289/660/5
f 292/662/6 290/1030/6 294/663/6
f 298/665/1 300/1031/1 299/666/1
f 300/668/2 304/1032/2 303/669/2
f 304/671/3 302/1033/3 301/672/3
f 302/674/4 298/1034/4 297/675/4
f 303/677/5 301/1035/5 297/678/5
f 300/680/6 298/1036/6 302/681/6
f 306/683/1 308/1037/1 307/684/1
f 308/686/2 312/1038/2 311/687/2
f 312/689/3 310/1039/3 309/690/3
f 310/692/4 306/1040/4 305/693/4
f 311/695/5 309/1041/5 305/696/5
f 308/698/6 306/1042/6 310/699/6
f 314/701/1 316/1043/1 315/702/1
f 316/704/2 320/1044/2 319/705/2
f 320/707/3 318/1045/3 317/708/3
f 318/710/4 314/1046/4 313/711/4
f 319/713/5 317/1047/5 313/714/5
f 316/716/6 314/1048/6 318/717/6
f 322/719/7 324/1049/7 323/720/7
f 324/722/8 326/725/8 325/723/8
f 326/725/5 328/727/5 327/726/5
f 328/727/9 330/1050/9 329/728/9
f 330/729/10 332/732/10 331/730/10
f 332/732/11 334/1051/11 333/733/11
f 334/734/12 336/737/12 335/735/12
f 336/737/6 338/742/6 337/738/6
f 326/741/3 324/1052/3 322/1053/3
f 322/1053/3 340/1054/3 338/739/3
f 338/739/3 336/1055/3 334/1056/3
f 334/1056/3 332/1057/3 330/740/3
f 330/740/3 328/1058/3 326/741/3
f 326/741/3 322/1053/3 338/739/3
f 338/739/3 334/1056/3 330/740/3
f 338/742/13 340/1059/13 339/743/13
f 340/744/14 322/719/14 321/721/14
f 339/748/1 321/1060/1 323/1061/1
f 323/1061/1 325/1062/1 327/746/1
f 327/746/1 329/1063/1 331/1064/1
f 331/1064/1 333/1065/1 335/747/1
f 335/747/1 337/1066/1 339/748/1
f 339/748/1 323/1061/1 327/746/1
f 327/746/1 331/1064/1 335/747/1
f 342/749/15 344/1067/15 343/750/15
f 344/752/16 346/755/16 345/753/16
f 346/755/17 348/1068/17 347/756/17
f 348/757/18 350/760/18 349/758/18
f 350/760/19 352/1069/19 351/761/19
f 352/762/20 354/768/20 353/763/20
f 346/767/3 344/1070/3 342/1071/3
f 342/1071/3 356/1072/3 354/765/3
f 354/765/3 352/1073/3 350/766/3
f 350/766/3 348/1074/3 346/767/3
f 346/767/3 342/1071/3 354/765/3
f 354/768/21 356/1075/21 355/769/21
f 356/770/22 342/749/22 341/751/22
f 355/774/1 341/1076/1 343/1077/1
f 343/1077/1 345/1078/1 347/772/1
f 347/772/1 349/1079/1 351/773/1
f 351/773/1 353/1080/1 355/774/1
f 355/774/1 343/1077/1 347/772/1
f 358/775/1 360/1081/1 359/776/1
f 360/778/2 364/1082/2 363/779/2
f 364/781/3 362/1083/3 361/782/3
f 362/784/4 358/1084/4 357/785/4
f 363/787/5 361/1085/5 357/788/5
f 360/790/6 358/1086/6 362/791/6
f 366/793/1 368/1087/1 367/794/1
f 368/796/2 372/1088/2 371/797/2
f 372/799/3 370/1089/3 369/800/3
f 370/802/4 366/1090/4 365/803/4
f 371/805/5 369/1091/5 365/806/5
f 368/808/6 366/1092/6 370/809/6
