# Blender 5.1.2
# www.blender.org
mtllib environment.mtl
g TH_RENDER_Environment_Mesh
v -7.000000 -0.800000 0.800000
v -7.000000 0.000000 0.800000
v -7.000000 -0.800000 -2.000000
v -7.000000 0.000000 -2.000000
v 7.000000 -0.800000 0.800000
v 7.000000 0.000000 0.800000
v 7.000000 -0.800000 -2.000000
v 7.000000 0.000000 -2.000000
v -7.000000 -1.500000 1.200000
v -7.000000 0.000000 1.200000
v -7.000000 -1.500000 0.800000
v -7.000000 0.000000 0.800000
v 7.000000 -1.500000 1.200000
v 7.000000 0.000000 1.200000
v 7.000000 -1.500000 0.800000
v 7.000000 0.000000 0.800000
v -3.825000 -0.100000 1.325000
v -3.825000 0.800000 1.325000
v -3.825000 -0.100000 0.875000
v -3.825000 0.800000 0.875000
v -3.375000 -0.100000 1.325000
v -3.375000 0.800000 1.325000
v -3.375000 -0.100000 0.875000
v -3.375000 0.800000 0.875000
v 2.975000 -0.100000 1.325000
v 2.975000 0.800000 1.325000
v 2.975000 -0.100000 0.875000
v 2.975000 0.800000 0.875000
v 3.425000 -0.100000 1.325000
v 3.425000 0.800000 1.325000
v 3.425000 -0.100000 0.875000
v 3.425000 0.800000 0.875000
v -2.400000 -0.000000 -1.200000
v -2.400000 2.800000 -1.200000
v -2.400000 -0.000000 -3.600000
v -2.400000 2.800000 -3.600000
v 2.800000 -0.000000 -1.200000
v 2.800000 2.800000 -1.200000
v 2.800000 -0.000000 -3.600000
v 2.800000 2.800000 -3.600000
v -2.300000 2.800000 -0.600000
v -2.300000 5.600000 -0.600000
v -2.300000 2.800000 -3.800000
v -2.300000 5.600000 -3.800000
v 2.700000 2.800000 -0.600000
v 2.700000 5.600000 -0.600000
v 2.700000 2.800000 -3.800000
v 2.700000 5.600000 -3.800000
v -0.700000 3.200000 -0.100000
v -0.700000 4.800000 -0.100000
v -0.700000 3.200000 -0.700000
v -0.700000 4.800000 -0.700000
v 1.100000 3.200000 -0.100000
v 1.100000 4.800000 -0.100000
v 1.100000 3.200000 -0.700000
v 1.100000 4.800000 -0.700000
v -2.200000 5.600000 -0.300000
v -2.200000 8.200001 -0.300000
v -2.200000 5.600000 -3.800000
v -2.200000 8.200001 -3.800000
v 2.600000 5.600000 -0.300000
v 2.600000 8.200001 -0.300000
v 2.600000 5.600000 -3.800000
v 2.600000 8.200001 -3.800000
v -2.400000 8.200000 -0.300000
v -2.400000 10.599999 -0.300000
v -2.400000 8.200000 -4.100000
v -2.400000 10.599999 -4.100000
v 2.800000 8.200000 -0.300000
v 2.800000 10.599999 -0.300000
v 2.800000 8.200000 -4.100000
v 2.800000 10.599999 -4.100000
v 1.800000 8.000000 -2.000000
v 1.800000 11.200001 -2.000000
v 1.800000 8.000000 -2.800000
v 1.800000 11.200001 -2.800000
v 2.600000 8.000000 -2.000000
v 2.600000 11.200001 -2.000000
v 2.600000 8.000000 -2.800000
v 2.600000 11.200001 -2.800000
v -5.600000 1.050000 -1.000000
v -5.600000 8.550001 -1.000000
v -5.600000 1.050000 -3.800000
v -5.600000 8.550001 -3.800000
v -2.400000 1.050000 -1.000000
v -2.400000 8.550001 -1.000000
v -2.400000 1.050000 -3.800000
v -2.400000 8.550001 -3.800000
v 2.900000 0.000000 -1.300000
v 2.900000 4.400000 -1.300000
v 2.900000 0.000000 -3.900000
v 2.900000 4.400000 -3.900000
v 6.100000 0.000000 -1.300000
v 6.100000 4.400000 -1.300000
v 6.100000 0.000000 -3.900000
v 6.100000 4.400000 -3.900000
v -8.000000 0.000000 -10.000000
v -8.000000 12.000000 -10.000000
v -8.000000 0.000000 -14.000000
v -8.000000 12.000000 -14.000000
v 8.000000 0.000000 -10.000000
v 8.000000 12.000000 -10.000000
v 8.000000 0.000000 -14.000000
v 8.000000 12.000000 -14.000000
vn -1.0000 -0.0000 -0.0000
vn -0.0000 -0.0000 -1.0000
vn 1.0000 -0.0000 -0.0000
vn -0.0000 -0.0000 1.0000
vn -0.0000 -1.0000 -0.0000
vn -0.0000 1.0000 -0.0000
vt 0.751325 0.197810
vt 0.740299 0.159218
vt 0.740299 0.197810
vt 0.764568 0.556050
vt 0.754401 0.378123
vt 0.754401 0.556050
vt 0.766258 0.197810
vt 0.755231 0.159218
vt 0.755231 0.197810
vt 0.727525 0.556050
vt 0.716082 0.355790
vt 0.716082 0.556050
vt 0.467686 0.197810
vt 0.267828 0.157839
vt 0.267828 0.197810
vt 0.063732 0.157772
vt 0.263922 0.197810
vt 0.263922 0.157772
vt 0.494403 0.112981
vt 0.473853 0.107500
vt 0.473853 0.112981
vt 0.750495 0.556050
vt 0.731431 0.378123
vt 0.731431 0.556050
vt 0.518860 0.112981
vt 0.498309 0.107500
vt 0.498309 0.112981
vt 0.712175 0.556050
vt 0.690719 0.355790
vt 0.690719 0.556050
vt 0.297410 0.112981
vt 0.148092 0.105515
vt 0.148092 0.112981
vt 0.368955 0.132417
vt 0.785310 0.153235
vt 0.785310 0.132417
vt 0.439258 0.112981
vt 0.426502 0.106603
vt 0.426502 0.112981
vt 0.454602 0.112981
vt 0.443164 0.107262
vt 0.443164 0.112981
vt 0.334916 0.112981
vt 0.322042 0.106544
vt 0.322042 0.112981
vt 0.368476 0.112981
vt 0.355603 0.106544
vt 0.355603 0.112981
vt 0.307774 0.112981
vt 0.301317 0.106523
vt 0.301317 0.112981
vt 0.416193 0.106578
vt 0.422596 0.112981
vt 0.422596 0.106578
vt 0.351696 0.112981
vt 0.338822 0.106544
vt 0.338822 0.112981
vt 0.469946 0.112981
vt 0.458508 0.107262
vt 0.458508 0.112981
vt 0.401978 0.112981
vt 0.389163 0.106573
vt 0.389163 0.112981
vt 0.385256 0.112981
vt 0.372383 0.106544
vt 0.372383 0.112981
vt 0.318136 0.112981
vt 0.311680 0.106524
vt 0.311680 0.112981
vt 0.405884 0.106578
vt 0.412287 0.112981
vt 0.412287 0.106578
vt 0.190752 0.153235
vt 0.150211 0.118486
vt 0.150211 0.153235
vt 0.039492 0.327507
vt 0.003906 0.261420
vt 0.003906 0.327507
vt 0.314015 0.153235
vt 0.273632 0.118621
vt 0.273632 0.153235
vt 0.238750 0.996094
vt 0.003906 0.559956
vt 0.003906 0.996094
vt 0.269725 0.153235
vt 0.194658 0.118589
vt 0.194658 0.153235
vt 0.069325 0.117706
vt 0.146305 0.153235
vt 0.146305 0.117706
vt 0.651082 0.257514
vt 0.610510 0.211146
vt 0.610510 0.257514
vt 0.078983 0.327507
vt 0.043398 0.263962
vt 0.043398 0.327507
vt 0.695401 0.257514
vt 0.654988 0.211328
vt 0.654988 0.257514
vt 0.939914 0.556050
vt 0.899863 0.484529
vt 0.899863 0.556050
vt 0.845264 0.257514
vt 0.775232 0.212693
vt 0.775232 0.257514
vt 0.699307 0.211422
vt 0.771326 0.257514
vt 0.771326 0.211422
vt 0.086863 0.112981
vt 0.063330 0.104156
vt 0.063330 0.112981
vt 0.365049 0.153235
vt 0.344715 0.130359
vt 0.344715 0.153235
vt 0.114202 0.112981
vt 0.090770 0.104193
vt 0.090770 0.112981
vt 0.340808 0.153235
vt 0.317922 0.127488
vt 0.317922 0.153235
vt 0.990900 0.153235
vt 0.957033 0.141946
vt 0.957033 0.153235
vt 0.118108 0.104288
vt 0.144186 0.112981
vt 0.144186 0.104288
vt 0.421299 0.257514
vt 0.383578 0.206736
vt 0.383578 0.257514
vt 0.115933 0.327507
vt 0.082889 0.266504
vt 0.082889 0.327507
vt 0.462780 0.257514
vt 0.425205 0.206933
vt 0.425205 0.257514
vt 0.856588 0.556050
vt 0.768475 0.393378
vt 0.768475 0.556050
vt 0.535315 0.257514
vt 0.466686 0.207472
vt 0.466686 0.257514
vt 0.539221 0.208381
vt 0.606603 0.257514
vt 0.606603 0.208381
vt 0.265785 0.257514
vt 0.231002 0.202441
vt 0.231002 0.257514
vt 0.974322 0.556050
vt 0.943821 0.489963
vt 0.943821 0.556050
vt 0.304345 0.257514
vt 0.269692 0.202645
vt 0.269692 0.257514
vt 0.895956 0.556050
vt 0.860495 0.479216
vt 0.860495 0.556050
vt 0.779016 0.327507
vt 0.702182 0.271359
vt 0.702182 0.327507
vt 0.308252 0.205322
vt 0.379672 0.257514
vt 0.379672 0.205322
vt 0.902916 0.153235
vt 0.856132 0.141539
vt 0.856132 0.153235
vt 0.059424 0.112981
vt 0.018755 0.102813
vt 0.018755 0.112981
vt 0.953127 0.153235
vt 0.906822 0.141659
vt 0.906822 0.153235
vt 0.852226 0.153235
vt 0.804943 0.141415
vt 0.804943 0.153235
vt 0.801037 0.153235
vt 0.789216 0.141415
vt 0.789216 0.153235
vt 0.003906 0.102038
vt 0.014849 0.112981
vt 0.014849 0.102038
vt 0.687622 0.197810
vt 0.582308 0.158493
vt 0.582308 0.197810
vt 0.995079 0.257514
vt 0.899762 0.216845
vt 0.899762 0.257514
vt 0.578402 0.197810
vt 0.471593 0.157935
vt 0.471593 0.197810
vt 0.530398 0.556050
vt 0.003906 0.331413
vt 0.003906 0.556050
vt 0.895855 0.257514
vt 0.849171 0.216665
vt 0.849171 0.257514
vt 0.691529 0.158555
vt 0.736392 0.197810
vt 0.736392 0.158555
vt 0.933760 0.197810
vt 0.870886 0.160658
vt 0.870886 0.197810
vt 0.059826 0.197810
vt 0.003906 0.157141
vt 0.003906 0.197810
vt 0.065419 0.153235
vt 0.003906 0.116887
vt 0.003906 0.153235
vt 0.610937 0.996094
vt 0.242656 0.728253
vt 0.242656 0.996094
vt 0.866980 0.197810
vt 0.820743 0.160243
vt 0.820743 0.197810
vt 0.770164 0.159888
vt 0.816837 0.197810
vt 0.816837 0.159888
vt 0.525538 0.327507
vt 0.356706 0.271230
vt 0.356706 0.327507
vt 0.686813 0.556050
vt 0.534304 0.352705
vt 0.534304 0.556050
vt 0.698276 0.327507
vt 0.529444 0.271230
vt 0.529444 0.327507
vt 0.786494 0.996094
vt 0.614843 0.767226
vt 0.614843 0.996094
vt 0.352800 0.327507
vt 0.119839 0.269267
vt 0.119839 0.327507
vt 0.003906 0.201717
vt 0.227096 0.257514
vt 0.227096 0.201717
vt 0.751325 0.159218
vt 0.764568 0.378123
vt 0.766258 0.159218
vt 0.727525 0.355790
vt 0.467686 0.157839
vt 0.063732 0.197810
vt 0.494403 0.107500
vt 0.750495 0.378123
vt 0.518860 0.107500
vt 0.712175 0.355790
vt 0.297410 0.105515
vt 0.368955 0.153235
vt 0.439258 0.106603
vt 0.454602 0.107262
vt 0.334916 0.106544
vt 0.368476 0.106544
vt 0.307774 0.106523
vt 0.416193 0.112981
vt 0.351696 0.106544
vt 0.469946 0.107262
vt 0.401978 0.106573
vt 0.385256 0.106544
vt 0.318136 0.106524
vt 0.405884 0.112981
vt 0.190752 0.118486
vt 0.039492 0.261420
vt 0.314015 0.118621
vt 0.238750 0.559956
vt 0.269725 0.118589
vt 0.069325 0.153235
vt 0.651082 0.211146
vt 0.078983 0.263962
vt 0.695401 0.211328
vt 0.939914 0.484529
vt 0.845264 0.212693
vt 0.699307 0.257514
vt 0.086863 0.104156
vt 0.365049 0.130359
vt 0.114202 0.104193
vt 0.340808 0.127488
vt 0.990900 0.141946
vt 0.118108 0.112981
vt 0.421299 0.206736
vt 0.115933 0.266504
vt 0.462780 0.206933
vt 0.856588 0.393378
vt 0.535315 0.207472
vt 0.539221 0.257514
vt 0.265785 0.202441
vt 0.974322 0.489963
vt 0.304345 0.202645
vt 0.895956 0.479216
vt 0.779016 0.271359
vt 0.308252 0.257514
vt 0.902916 0.141539
vt 0.059424 0.102813
vt 0.953127 0.141659
vt 0.852226 0.141415
vt 0.801037 0.141415
vt 0.003906 0.112981
vt 0.687622 0.158493
vt 0.995079 0.216845
vt 0.578402 0.157935
vt 0.530398 0.331413
vt 0.895855 0.216665
vt 0.691529 0.197810
vt 0.933760 0.160658
vt 0.059826 0.157141
vt 0.065419 0.116887
vt 0.610937 0.728253
vt 0.866980 0.160243
vt 0.770164 0.197810
vt 0.525538 0.271230
vt 0.686813 0.352705
vt 0.698276 0.271230
vt 0.786494 0.767226
vt 0.352800 0.269267
vt 0.003906 0.257514
s 0
g TH_RENDER_Environment_EnvironmentBakedAtlas
usemtl EnvironmentBakedAtlas
f 2/1/1 3/2/1 1/3/1
f 4/4/2 7/5/2 3/6/2
f 8/7/3 5/8/3 7/9/3
f 6/10/4 1/11/4 5/12/4
f 7/13/5 1/14/5 3/15/5
f 4/16/6 6/17/6 8/18/6
f 10/19/1 11/20/1 9/21/1
f 12/22/2 15/23/2 11/24/2
f 16/25/3 13/26/3 15/27/3
f 14/28/4 9/29/4 13/30/4
f 15/31/5 9/32/5 11/33/5
f 12/34/6 14/35/6 16/36/6
f 18/37/1 19/38/1 17/39/1
f 20/40/2 23/41/2 19/42/2
f 24/43/3 21/44/3 23/45/3
f 22/46/4 17/47/4 21/48/4
f 23/49/5 17/50/5 19/51/5
f 20/52/6 22/53/6 24/54/6
f 26/55/1 27/56/1 25/57/1
f 28/58/2 31/59/2 27/60/2
f 32/61/3 29/62/3 31/63/3
f 30/64/4 25/65/4 29/66/4
f 31/67/5 25/68/5 27/69/5
f 28/70/6 30/71/6 32/72/6
f 34/73/1 35/74/1 33/75/1
f 36/76/2 39/77/2 35/78/2
f 40/79/3 37/80/3 39/81/3
f 38/82/4 33/83/4 37/84/4
f 39/85/5 33/86/5 35/87/5
f 36/88/6 38/89/6 40/90/6
f 42/91/1 43/92/1 41/93/1
f 44/94/2 47/95/2 43/96/2
f 48/97/3 45/98/3 47/99/3
f 46/100/4 41/101/4 45/102/4
f 47/103/5 41/104/5 43/105/5
f 44/106/6 46/107/6 48/108/6
f 50/109/1 51/110/1 49/111/1
f 52/112/2 55/113/2 51/114/2
f 56/115/3 53/116/3 55/117/3
f 54/118/4 49/119/4 53/120/4
f 55/121/5 49/122/5 51/123/5
f 52/124/6 54/125/6 56/126/6
f 58/127/1 59/128/1 57/129/1
f 60/130/2 63/131/2 59/132/2
f 64/133/3 61/134/3 63/135/3
f 62/136/4 57/137/4 61/138/4
f 63/139/5 57/140/5 59/141/5
f 60/142/6 62/143/6 64/144/6
f 66/145/1 67/146/1 65/147/1
f 68/148/2 71/149/2 67/150/2
f 72/151/3 69/152/3 71/153/3
f 70/154/4 65/155/4 69/156/4
f 71/157/5 65/158/5 67/159/5
f 68/160/6 70/161/6 72/162/6
f 74/163/1 75/164/1 73/165/1
f 76/166/2 79/167/2 75/168/2
f 80/169/3 77/170/3 79/171/3
f 78/172/4 73/173/4 77/174/4
f 79/175/5 73/176/5 75/177/5
f 76/178/6 78/179/6 80/180/6
f 82/181/1 83/182/1 81/183/1
f 84/184/2 87/185/2 83/186/2
f 88/187/3 85/188/3 87/189/3
f 86/190/4 81/191/4 85/192/4
f 87/193/5 81/194/5 83/195/5
f 84/196/6 86/197/6 88/198/6
f 90/199/1 91/200/1 89/201/1
f 92/202/2 95/203/2 91/204/2
f 96/205/3 93/206/3 95/207/3
f 94/208/4 89/209/4 93/210/4
f 95/211/5 89/212/5 91/213/5
f 92/214/6 94/215/6 96/216/6
f 98/217/1 99/218/1 97/219/1
f 100/220/2 103/221/2 99/222/2
f 104/223/3 101/224/3 103/225/3
f 102/226/4 97/227/4 101/228/4
f 103/229/5 97/230/5 99/231/5
f 100/232/6 102/233/6 104/234/6
f 2/1/1 4/235/1 3/2/1
f 4/4/2 8/236/2 7/5/2
f 8/7/3 6/237/3 5/8/3
f 6/10/4 2/238/4 1/11/4
f 7/13/5 5/239/5 1/14/5
f 4/16/6 2/240/6 6/17/6
f 10/19/1 12/241/1 11/20/1
f 12/22/2 16/242/2 15/23/2
f 16/25/3 14/243/3 13/26/3
f 14/28/4 10/244/4 9/29/4
f 15/31/5 13/245/5 9/32/5
f 12/34/6 10/246/6 14/35/6
f 18/37/1 20/247/1 19/38/1
f 20/40/2 24/248/2 23/41/2
f 24/43/3 22/249/3 21/44/3
f 22/46/4 18/250/4 17/47/4
f 23/49/5 21/251/5 17/50/5
f 20/52/6 18/252/6 22/53/6
f 26/55/1 28/253/1 27/56/1
f 28/58/2 32/254/2 31/59/2
f 32/61/3 30/255/3 29/62/3
f 30/64/4 26/256/4 25/65/4
f 31/67/5 29/257/5 25/68/5
f 28/70/6 26/258/6 30/71/6
f 34/73/1 36/259/1 35/74/1
f 36/76/2 40/260/2 39/77/2
f 40/79/3 38/261/3 37/80/3
f 38/82/4 34/262/4 33/83/4
f 39/85/5 37/263/5 33/86/5
f 36/88/6 34/264/6 38/89/6
f 42/91/1 44/265/1 43/92/1
f 44/94/2 48/266/2 47/95/2
f 48/97/3 46/267/3 45/98/3
f 46/100/4 42/268/4 41/101/4
f 47/103/5 45/269/5 41/104/5
f 44/106/6 42/270/6 46/107/6
f 50/109/1 52/271/1 51/110/1
f 52/112/2 56/272/2 55/113/2
f 56/115/3 54/273/3 53/116/3
f 54/118/4 50/274/4 49/119/4
f 55/121/5 53/275/5 49/122/5
f 52/124/6 50/276/6 54/125/6
f 58/127/1 60/277/1 59/128/1
f 60/130/2 64/278/2 63/131/2
f 64/133/3 62/279/3 61/134/3
f 62/136/4 58/280/4 57/137/4
f 63/139/5 61/281/5 57/140/5
f 60/142/6 58/282/6 62/143/6
f 66/145/1 68/283/1 67/146/1
f 68/148/2 72/284/2 71/149/2
f 72/151/3 70/285/3 69/152/3
f 70/154/4 66/286/4 65/155/4
f 71/157/5 69/287/5 65/158/5
f 68/160/6 66/288/6 70/161/6
f 74/163/1 76/289/1 75/164/1
f 76/166/2 80/290/2 79/167/2
f 80/169/3 78/291/3 77/170/3
f 78/172/4 74/292/4 73/173/4
f 79/175/5 77/293/5 73/176/5
f 76/178/6 74/294/6 78/179/6
f 82/181/1 84/295/1 83/182/1
f 84/184/2 88/296/2 87/185/2
f 88/187/3 86/297/3 85/188/3
f 86/190/4 82/298/4 81/191/4
f 87/193/5 85/299/5 81/194/5
f 84/196/6 82/300/6 86/197/6
f 90/199/1 92/301/1 91/200/1
f 92/202/2 96/302/2 95/203/2
f 96/205/3 94/303/3 93/206/3
f 94/208/4 90/304/4 89/209/4
f 95/211/5 93/305/5 89/212/5
f 92/214/6 90/306/6 94/215/6
f 98/217/1 100/307/1 99/218/1
f 100/220/2 104/308/2 103/221/2
f 104/223/3 102/309/3 101/224/3
f 102/226/4 98/310/4 97/227/4
f 103/229/5 101/311/5 97/230/5
f 100/232/6 98/312/6 102/233/6
