mtllib transition_arrow.mtl
o st_maria_transition_arrow_cylindrical
# Eight-sided cylindrical shaft and conical arrowhead, standard Y-up OBJ.
v 0.070000 0.000000 0.000000
v 0.049497 0.000000 0.049497
v 0.000000 0.000000 0.070000
v -0.049497 0.000000 0.049497
v -0.070000 0.000000 0.000000
v -0.049497 0.000000 -0.049497
v 0.000000 0.000000 -0.070000
v 0.049497 0.000000 -0.049497
v 0.070000 0.620000 0.000000
v 0.049497 0.620000 0.049497
v 0.000000 0.620000 0.070000
v -0.049497 0.620000 0.049497
v -0.070000 0.620000 0.000000
v -0.049497 0.620000 -0.049497
v 0.000000 0.620000 -0.070000
v 0.049497 0.620000 -0.049497
v 0.220000 0.620000 0.000000
v 0.155563 0.620000 0.155563
v 0.000000 0.620000 0.220000
v -0.155563 0.620000 0.155563
v -0.220000 0.620000 0.000000
v -0.155563 0.620000 -0.155563
v 0.000000 0.620000 -0.220000
v 0.155563 0.620000 -0.155563
v 0.000000 1.040000 0.000000
usemtl transition_arrow
f 1 2 10 9
f 2 3 11 10
f 3 4 12 11
f 4 5 13 12
f 5 6 14 13
f 6 7 15 14
f 7 8 16 15
f 8 1 9 16
f 17 18 25
f 18 19 25
f 19 20 25
f 20 21 25
f 21 22 25
f 22 23 25
f 23 24 25
f 24 17 25
