mtllib walk.mtl
usemtl stone
v -0.6 0.0 0.0
v 0.6 0.0 0.0
v -0.6 0.19736842105304006 0.0
v 0.6 0.19736842105304006 0.0
v -0.6 0.3947368421060801 0.0
v 0.6 0.3947368421060801 0.0
v -0.6 0.5921052631591202 2e-06
v 0.6 0.5921052631591202 2e-06
v -0.6 0.7894736842121602 2e-06
v 0.6 0.7894736842121602 2e-06
v -0.6 0.9868421052652001 2e-06
v 0.6 0.9868421052652001 2e-06
v -0.6 1.1842105263182403 4e-06
v 0.6 1.1842105263182403 4e-06
v -0.6 1.3815789473712805 4e-06
v 0.6 1.3815789473712805 4e-06
v -0.6 1.5789473684243205 4e-06
v 0.6 1.5789473684243205 4e-06
v -0.6 1.7763157894773602 4e-06
v 0.6 1.7763157894773602 4e-06
v -0.6 1.9736842105304002 4e-06
v 0.6 1.9736842105304002 4e-06
v -0.6 2.1710526315834406 4e-06
v 0.6 2.1710526315834406 4e-06
v -0.6 2.3684210526364806 4e-06
v 0.6 2.3684210526364806 4e-06
v -0.6 2.5657894736895206 4e-06
v 0.6 2.5657894736895206 4e-06
v -0.6 2.763157894742561 6e-06
v 0.6 2.763157894742561 6e-06
v -0.6 2.960526315795601 6e-06
v 0.6 2.960526315795601 6e-06
v -0.6 3.157894736848641 6e-06
v 0.6 3.157894736848641 6e-06
v -0.6 3.3552631579016805 8e-06
v 0.6 3.3552631579016805 8e-06
v -0.6 3.5526315789547205 8e-06
v 0.6 3.5526315789547205 8e-06
v -0.6 3.7500000000077605 8e-06
v 0.6 3.7500000000077605 8e-06
v -0.6 3.9473684210608004 8e-06
v 0.6 3.9473684210608004 8e-06
v -0.6 4.144736842113841 8e-06
v 0.6 4.144736842113841 8e-06
v -0.6 4.342105263166881 1e-05
v 0.6 4.342105263166881 1e-05
v -0.6 4.539473684219921 1e-05
v 0.6 4.539473684219921 1e-05
v -0.6 4.736842105272961 1e-05
v 0.6 4.736842105272961 1e-05
v -0.6 4.934210526326001 1.1e-05
v 0.6 4.934210526326001 1.1e-05
v -0.6 5.131578947379041 1.1e-05
v 0.6 5.131578947379041 1.1e-05
v -0.6 5.328947368432081 1.1e-05
v 0.6 5.328947368432081 1.1e-05
v -0.6 5.526315789485122 1.1e-05
v 0.6 5.526315789485122 1.1e-05
v -0.6 5.723684210538162 1.1e-05
v 0.6 5.723684210538162 1.1e-05
v -0.6 5.921052631591202 1.1e-05
v 0.6 5.921052631591202 1.1e-05
v -0.6 6.1184210526442415 1.1e-05
v 0.6 6.1184210526442415 1.1e-05
v -0.6 6.315789473697282 1.3e-05
v 0.6 6.315789473697282 1.3e-05
v -0.6 6.5131578947503215 1.3e-05
v 0.6 6.5131578947503215 1.3e-05
v -0.6 6.710526315803361 1.3e-05
v 0.6 6.710526315803361 1.3e-05
v -0.6 6.907894736856401 1.5e-05
v 0.6 6.907894736856401 1.5e-05
v -0.6 7.105263157909441 1.5e-05
v 0.6 7.105263157909441 1.5e-05
v -0.6 7.302631578962481 1.5e-05
v 0.6 7.302631578962481 1.5e-05
v -0.6 7.500000000015521 1.5e-05
v 0.6 7.500000000015521 1.5e-05
v -0.6 7.697368421068561 1.5e-05
v 0.6 7.697368421068561 1.5e-05
v -0.6 7.894736842121601 1.5e-05
v 0.6 7.894736842121601 1.5e-05
v -0.6 8.092105263174643 1.5e-05
v 0.6 8.092105263174643 1.5e-05
v -0.6 8.289473684227682 1.5e-05
v 0.6 8.289473684227682 1.5e-05
v -0.6 8.486842105280722 1.7e-05
v 0.6 8.486842105280722 1.7e-05
v -0.6 8.684210526333763 1.7e-05
v 0.6 8.684210526333763 1.7e-05
v -0.6 8.881578947386803 1.9e-05
v 0.6 8.881578947386803 1.9e-05
v -0.6 9.078947368439842 1.9e-05
v 0.6 9.078947368439842 1.9e-05
v -0.6 9.276315789492882 1.9e-05
v 0.6 9.276315789492882 1.9e-05
v -0.6 9.473684210545922 1.9e-05
v 0.6 9.473684210545922 1.9e-05
v -0.6 9.671052631598963 1.9e-05
v 0.6 9.671052631598963 1.9e-05
v -0.6 9.868421052652002 1.9e-05
v 0.6 9.868421052652002 1.9e-05
v -0.6 10.065789473705042 1.9e-05
v 0.6 10.065789473705042 1.9e-05
v -0.6 10.263157894758082 2.1e-05
v 0.6 10.263157894758082 2.1e-05
v -0.6 10.460526315811123 2.1e-05
v 0.6 10.460526315811123 2.1e-05
v -0.6 10.657894736864161 2.1e-05
v 0.6 10.657894736864161 2.1e-05
v -0.6 10.855263157917202 2.3e-05
v 0.6 10.855263157917202 2.3e-05
v -0.6 11.052631578970244 2.3e-05
v 0.6 11.052631578970244 2.3e-05
v -0.6 11.250000000023283 2.3e-05
v 0.6 11.250000000023283 2.3e-05
v -0.6 11.447368421076323 2.3e-05
v 0.6 11.447368421076323 2.3e-05
v -0.6 11.644736842129364 2.3e-05
v 0.6 11.644736842129364 2.3e-05
v -0.6 11.842105263182404 2.5e-05
v 0.6 11.842105263182404 2.5e-05
v -0.6 12.039473684235443 2.5e-05
v 0.6 12.039473684235443 2.5e-05
v -0.6 12.236842105288483 2.5e-05
v 0.6 12.236842105288483 2.5e-05
v -0.6 12.434210526341523 2.7e-05
v 0.6 12.434210526341523 2.7e-05
v -0.6 12.631578947394564 2.7e-05
v 0.6 12.631578947394564 2.7e-05
v -0.6 12.828947368447603 2.7e-05
v 0.6 12.828947368447603 2.7e-05
v -0.6 13.026315789500643 2.7e-05
v 0.6 13.026315789500643 2.7e-05
v -0.6 13.223684210553683 2.7e-05
v 0.6 13.223684210553683 2.7e-05
v -0.6 13.421052631606722 2.7e-05
v 0.6 13.421052631606722 2.7e-05
v -0.6 13.618421052659764 2.7e-05
v 0.6 13.618421052659764 2.7e-05
v -0.6 13.815789473712803 2.7e-05
v 0.6 13.815789473712803 2.7e-05
v -0.6 14.013157894765845 2.9e-05
v 0.6 14.013157894765845 2.9e-05
v -0.6 14.210526315818882 2.9e-05
v 0.6 14.210526315818882 2.9e-05
v -0.6 14.407894736871924 2.9e-05
v 0.6 14.407894736871924 2.9e-05
v -0.6 14.605263157924963 3.1e-05
v 0.6 14.605263157924963 3.1e-05
v -0.6 14.802631578978003 3.1e-05
v 0.6 14.802631578978003 3.1e-05
v -0.6 15.000000000031042 3.1e-05
v 0.6 15.000000000031042 3.1e-05
f 1 2 4 3
f 3 4 6 5
f 5 6 8 7
f 7 8 10 9
f 9 10 12 11
f 11 12 14 13
f 13 14 16 15
f 15 16 18 17
f 17 18 20 19
f 19 20 22 21
f 21 22 24 23
f 23 24 26 25
f 25 26 28 27
f 27 28 30 29
f 29 30 32 31
f 31 32 34 33
f 33 34 36 35
f 35 36 38 37
f 37 38 40 39
f 39 40 42 41
f 41 42 44 43
f 43 44 46 45
f 45 46 48 47
f 47 48 50 49
f 49 50 52 51
f 51 52 54 53
f 53 54 56 55
f 55 56 58 57
f 57 58 60 59
f 59 60 62 61
f 61 62 64 63
f 63 64 66 65
f 65 66 68 67
f 67 68 70 69
f 69 70 72 71
f 71 72 74 73
f 73 74 76 75
f 75 76 78 77
f 77 78 80 79
f 79 80 82 81
f 81 82 84 83
f 83 84 86 85
f 85 86 88 87
f 87 88 90 89
f 89 90 92 91
f 91 92 94 93
f 93 94 96 95
f 95 96 98 97
f 97 98 100 99
f 99 100 102 101
f 101 102 104 103
f 103 104 106 105
f 105 106 108 107
f 107 108 110 109
f 109 110 112 111
f 111 112 114 113
f 113 114 116 115
f 115 116 118 117
f 117 118 120 119
f 119 120 122 121
f 121 122 124 123
f 123 124 126 125
f 125 126 128 127
f 127 128 130 129
f 129 130 132 131
f 131 132 134 133
f 133 134 136 135
f 135 136 138 137
f 137 138 140 139
f 139 140 142 141
f 141 142 144 143
f 143 144 146 145
f 145 146 148 147
f 147 148 150 149
f 149 150 152 151
f 151 152 154 153
