# Blender 5.2.2 LTS
# www.blender.org
mtllib environment.mtl
g pe_sewer_deep_render_Cube.078
v -6.300000 -0.100000 3.300000
v -6.300000 0.000000 3.300000
v -6.300000 -0.100000 -6.300000
v -6.300000 0.000000 -6.300000
v 6.300000 -0.100000 3.300000
v 6.300000 0.000000 3.300000
v 6.300000 -0.100000 -6.300000
v 6.300000 0.000000 -6.300000
v -6.300000 0.000000 -6.000000
v -6.300000 3.400000 -6.000000
v -6.300000 0.000000 -6.300000
v -6.300000 3.400000 -6.300000
v 6.300000 0.000000 -6.000000
v 6.300000 3.400000 -6.000000
v 6.300000 0.000000 -6.300000
v 6.300000 3.400000 -6.300000
v -6.300000 0.000000 3.300000
v -6.300000 3.400000 3.300000
v -6.300000 0.000000 -6.300000
v -6.300000 3.400000 -6.300000
v -6.000000 0.000000 3.300000
v -6.000000 3.400000 3.300000
v -6.000000 0.000000 -6.300000
v -6.000000 3.400000 -6.300000
v 6.000000 0.000000 3.300000
v 6.000000 3.400000 3.300000
v 6.000000 0.000000 -6.300000
v 6.000000 3.400000 -6.300000
v 6.300000 0.000000 3.300000
v 6.300000 3.400000 3.300000
v 6.300000 0.000000 -6.300000
v 6.300000 3.400000 -6.300000
v -6.000000 0.000000 -5.950000
v -6.000000 0.180000 -5.950000
v -6.000000 0.000000 -6.010000
v -6.000000 0.180000 -6.010000
v 6.000000 0.000000 -5.950000
v 6.000000 0.180000 -5.950000
v 6.000000 0.000000 -6.010000
v 6.000000 0.180000 -6.010000
v -6.010000 0.000000 0.000000
v -6.010000 0.180000 0.000000
v -6.010000 0.000000 -6.000000
v -6.010000 0.180000 -6.000000
v -5.950000 0.000000 0.000000
v -5.950000 0.180000 0.000000
v -5.950000 0.000000 -6.000000
v -5.950000 0.180000 -6.000000
v 5.950000 0.000000 0.000000
v 5.950000 0.180000 0.000000
v 5.950000 0.000000 -6.000000
v 5.950000 0.180000 -6.000000
v 6.010000 0.000000 0.000000
v 6.010000 0.180000 0.000000
v 6.010000 0.000000 -6.000000
v 6.010000 0.180000 -6.000000
v -6.010000 0.000000 -2.000000
v -6.010000 2.200000 -2.000000
v -6.010000 0.000000 -3.000000
v -6.010000 2.200000 -3.000000
v -5.950000 0.000000 -2.000000
v -5.950000 2.200000 -2.000000
v -5.950000 0.000000 -3.000000
v -5.950000 2.200000 -3.000000
v -6.025000 0.000000 -1.850000
v -6.025000 2.400000 -1.850000
v -6.025000 0.000000 -3.150000
v -6.025000 2.400000 -3.150000
v -5.975000 0.000000 -1.850000
v -5.975000 2.400000 -1.850000
v -5.975000 0.000000 -3.150000
v -5.975000 2.400000 -3.150000
v -5.950000 0.800000 -2.175000
v -5.950000 1.300000 -2.175000
v -5.950000 0.800000 -2.225000
v -5.950000 1.300000 -2.225000
v -5.910000 0.800000 -2.175000
v -5.910000 1.300000 -2.175000
v -5.910000 0.800000 -2.225000
v -5.910000 1.300000 -2.225000
v 5.950000 0.000000 -2.500000
v 5.950000 2.200000 -2.500000
v 5.950000 0.000000 -3.500000
v 5.950000 2.200000 -3.500000
v 6.010000 0.000000 -2.500000
v 6.010000 2.200000 -2.500000
v 6.010000 0.000000 -3.500000
v 6.010000 2.200000 -3.500000
v 5.975000 0.000000 -2.350000
v 5.975000 2.400000 -2.350000
v 5.975000 0.000000 -3.650000
v 5.975000 2.400000 -3.650000
v 6.025000 0.000000 -2.350000
v 6.025000 2.400000 -2.350000
v 6.025000 0.000000 -3.650000
v 6.025000 2.400000 -3.650000
v 5.910000 0.800000 -2.675000
v 5.910000 1.300000 -2.675000
v 5.910000 0.800000 -2.725000
v 5.910000 1.300000 -2.725000
v 5.950000 0.800000 -2.675000
v 5.950000 1.300000 -2.675000
v 5.950000 0.800000 -2.725000
v 5.950000 1.300000 -2.725000
v -4.675000 1.760000 -5.580000
v -4.675000 1.980000 -5.580000
v -4.675000 1.760000 -6.420000
v -4.675000 1.980000 -6.420000
v -4.325000 1.760000 -5.580000
v -4.325000 1.980000 -5.580000
v -4.325000 1.760000 -6.420000
v -4.325000 1.980000 -6.420000
v -4.675000 2.025939 -5.526000
v -4.675000 2.245939 -5.526000
v -4.675000 2.025939 -6.366000
v -4.675000 2.245939 -6.366000
v -4.325000 2.025939 -5.526000
v -4.325000 2.245939 -5.526000
v -4.325000 2.025939 -6.366000
v -4.325000 2.245939 -6.366000
v -4.675000 2.285329 -5.364000
v -4.675000 2.505329 -5.364000
v -4.675000 2.285329 -6.204000
v -4.675000 2.505329 -6.204000
v -4.325000 2.285329 -5.364000
v -4.325000 2.505329 -5.364000
v -4.325000 2.285329 -6.204000
v -4.325000 2.505329 -6.204000
v -4.675000 2.531784 -5.094000
v -4.675000 2.751784 -5.094000
v -4.675000 2.531784 -5.934000
v -4.675000 2.751784 -5.934000
v -4.325000 2.531784 -5.094000
v -4.325000 2.751784 -5.094000
v -4.325000 2.531784 -5.934000
v -4.325000 2.751784 -5.934000
v -4.675000 2.759235 -4.716000
v -4.675000 2.979235 -4.716000
v -4.675000 2.759235 -5.556000
v -4.675000 2.979235 -5.556000
v -4.325000 2.759235 -4.716000
v -4.325000 2.979235 -4.716000
v -4.325000 2.759235 -5.556000
v -4.325000 2.979235 -5.556000
v -4.675000 2.962082 -4.230000
v -4.675000 3.182081 -4.230000
v -4.675000 2.962082 -5.070000
v -4.675000 3.182081 -5.070000
v -4.325000 2.962082 -4.230000
v -4.325000 3.182081 -4.230000
v -4.325000 2.962082 -5.070000
v -4.325000 3.182081 -5.070000
v -1.675000 1.760000 -5.580000
v -1.675000 1.980000 -5.580000
v -1.675000 1.760000 -6.420000
v -1.675000 1.980000 -6.420000
v -1.325000 1.760000 -5.580000
v -1.325000 1.980000 -5.580000
v -1.325000 1.760000 -6.420000
v -1.325000 1.980000 -6.420000
v -1.675000 2.025939 -5.526000
v -1.675000 2.245939 -5.526000
v -1.675000 2.025939 -6.366000
v -1.675000 2.245939 -6.366000
v -1.325000 2.025939 -5.526000
v -1.325000 2.245939 -5.526000
v -1.325000 2.025939 -6.366000
v -1.325000 2.245939 -6.366000
v -1.675000 2.285329 -5.364000
v -1.675000 2.505329 -5.364000
v -1.675000 2.285329 -6.204000
v -1.675000 2.505329 -6.204000
v -1.325000 2.285329 -5.364000
v -1.325000 2.505329 -5.364000
v -1.325000 2.285329 -6.204000
v -1.325000 2.505329 -6.204000
v -1.675000 2.531784 -5.094000
v -1.675000 2.751784 -5.094000
v -1.675000 2.531784 -5.934000
v -1.675000 2.751784 -5.934000
v -1.325000 2.531784 -5.094000
v -1.325000 2.751784 -5.094000
v -1.325000 2.531784 -5.934000
v -1.325000 2.751784 -5.934000
v -1.675000 2.759235 -4.716000
v -1.675000 2.979235 -4.716000
v -1.675000 2.759235 -5.556000
v -1.675000 2.979235 -5.556000
v -1.325000 2.759235 -4.716000
v -1.325000 2.979235 -4.716000
v -1.325000 2.759235 -5.556000
v -1.325000 2.979235 -5.556000
v -1.675000 2.962082 -4.230000
v -1.675000 3.182081 -4.230000
v -1.675000 2.962082 -5.070000
v -1.675000 3.182081 -5.070000
v -1.325000 2.962082 -4.230000
v -1.325000 3.182081 -4.230000
v -1.325000 2.962082 -5.070000
v -1.325000 3.182081 -5.070000
v 1.325000 1.760000 -5.580000
v 1.325000 1.980000 -5.580000
v 1.325000 1.760000 -6.420000
v 1.325000 1.980000 -6.420000
v 1.675000 1.760000 -5.580000
v 1.675000 1.980000 -5.580000
v 1.675000 1.760000 -6.420000
v 1.675000 1.980000 -6.420000
v 1.325000 2.025939 -5.526000
v 1.325000 2.245939 -5.526000
v 1.325000 2.025939 -6.366000
v 1.325000 2.245939 -6.366000
v 1.675000 2.025939 -5.526000
v 1.675000 2.245939 -5.526000
v 1.675000 2.025939 -6.366000
v 1.675000 2.245939 -6.366000
v 1.325000 2.285329 -5.364000
v 1.325000 2.505329 -5.364000
v 1.325000 2.285329 -6.204000
v 1.325000 2.505329 -6.204000
v 1.675000 2.285329 -5.364000
v 1.675000 2.505329 -5.364000
v 1.675000 2.285329 -6.204000
v 1.675000 2.505329 -6.204000
v 1.325000 2.531784 -5.094000
v 1.325000 2.751784 -5.094000
v 1.325000 2.531784 -5.934000
v 1.325000 2.751784 -5.934000
v 1.675000 2.531784 -5.094000
v 1.675000 2.751784 -5.094000
v 1.675000 2.531784 -5.934000
v 1.675000 2.751784 -5.934000
v 1.325000 2.759235 -4.716000
v 1.325000 2.979235 -4.716000
v 1.325000 2.759235 -5.556000
v 1.325000 2.979235 -5.556000
v 1.675000 2.759235 -4.716000
v 1.675000 2.979235 -4.716000
v 1.675000 2.759235 -5.556000
v 1.675000 2.979235 -5.556000
v 1.325000 2.962082 -4.230000
v 1.325000 3.182081 -4.230000
v 1.325000 2.962082 -5.070000
v 1.325000 3.182081 -5.070000
v 1.675000 2.962082 -4.230000
v 1.675000 3.182081 -4.230000
v 1.675000 2.962082 -5.070000
v 1.675000 3.182081 -5.070000
v 4.325000 1.760000 -5.580000
v 4.325000 1.980000 -5.580000
v 4.325000 1.760000 -6.420000
v 4.325000 1.980000 -6.420000
v 4.675000 1.760000 -5.580000
v 4.675000 1.980000 -5.580000
v 4.675000 1.760000 -6.420000
v 4.675000 1.980000 -6.420000
v 4.325000 2.025939 -5.526000
v 4.325000 2.245939 -5.526000
v 4.325000 2.025939 -6.366000
v 4.325000 2.245939 -6.366000
v 4.675000 2.025939 -5.526000
v 4.675000 2.245939 -5.526000
v 4.675000 2.025939 -6.366000
v 4.675000 2.245939 -6.366000
v 4.325000 2.285329 -5.364000
v 4.325000 2.505329 -5.364000
v 4.325000 2.285329 -6.204000
v 4.325000 2.505329 -6.204000
v 4.675000 2.285329 -5.364000
v 4.675000 2.505329 -5.364000
v 4.675000 2.285329 -6.204000
v 4.675000 2.505329 -6.204000
v 4.325000 2.531784 -5.094000
v 4.325000 2.751784 -5.094000
v 4.325000 2.531784 -5.934000
v 4.325000 2.751784 -5.934000
v 4.675000 2.531784 -5.094000
v 4.675000 2.751784 -5.094000
v 4.675000 2.531784 -5.934000
v 4.675000 2.751784 -5.934000
v 4.325000 2.759235 -4.716000
v 4.325000 2.979235 -4.716000
v 4.325000 2.759235 -5.556000
v 4.325000 2.979235 -5.556000
v 4.675000 2.759235 -4.716000
v 4.675000 2.979235 -4.716000
v 4.675000 2.759235 -5.556000
v 4.675000 2.979235 -5.556000
v 4.325000 2.962082 -4.230000
v 4.325000 3.182081 -4.230000
v 4.325000 2.962082 -5.070000
v 4.325000 3.182081 -5.070000
v 4.675000 2.962082 -4.230000
v 4.675000 3.182081 -4.230000
v 4.675000 2.962082 -5.070000
v 4.675000 3.182081 -5.070000
v -6.300000 -0.005000 -1.200000
v -6.300000 0.015000 -1.200000
v -6.300000 -0.005000 -2.700000
v -6.300000 0.015000 -2.700000
v 6.300000 -0.005000 -1.200000
v 6.300000 0.015000 -1.200000
v 6.300000 -0.005000 -2.700000
v 6.300000 0.015000 -2.700000
v -6.300000 0.000000 -1.080000
v -6.300000 0.080000 -1.080000
v -6.300000 0.000000 -1.200000
v -6.300000 0.080000 -1.200000
v 6.300000 0.000000 -1.080000
v 6.300000 0.080000 -1.080000
v 6.300000 0.000000 -1.200000
v 6.300000 0.080000 -1.200000
v -6.300000 0.000000 -2.700000
v -6.300000 0.080000 -2.700000
v -6.300000 0.000000 -2.820000
v -6.300000 0.080000 -2.820000
v 6.300000 0.000000 -2.700000
v 6.300000 0.080000 -2.700000
v 6.300000 0.000000 -2.820000
v 6.300000 0.080000 -2.820000
v 0.000000 3.000000 -6.005000
v 0.000000 3.000000 -5.955000
v 0.362347 2.952296 -6.005000
v 0.362347 2.952296 -5.955000
v 0.700000 2.812436 -6.005000
v 0.700000 2.812436 -5.955000
v 0.989949 2.589950 -6.005000
v 0.989949 2.589950 -5.955000
v 1.212435 2.300000 -6.005000
v 1.212435 2.300000 -5.955000
v 1.352296 1.962347 -6.005000
v 1.352296 1.962347 -5.955000
v 1.400000 1.600000 -6.005000
v 1.400000 1.600000 -5.955000
v 1.352296 1.237653 -6.005000
v 1.352296 1.237653 -5.955000
v 1.212435 0.900000 -6.005000
v 1.212435 0.900000 -5.955000
v 0.989949 0.610051 -6.005000
v 0.989949 0.610051 -5.955000
v 0.700000 0.387565 -6.005000
v 0.700000 0.387565 -5.955000
v 0.362347 0.247704 -6.005000
v 0.362347 0.247704 -5.955000
v 0.000000 0.200000 -6.005000
v 0.000000 0.200000 -5.955000
v -0.362347 0.247704 -6.005000
v -0.362347 0.247704 -5.955000
v -0.700000 0.387565 -6.005000
v -0.700000 0.387565 -5.955000
v -0.989949 0.610051 -6.005000
v -0.989949 0.610051 -5.955000
v -1.212435 0.900000 -6.005000
v -1.212435 0.900000 -5.955000
v -1.352296 1.237653 -6.005000
v -1.352296 1.237653 -5.955000
v -1.400000 1.600000 -6.005000
v -1.400000 1.600000 -5.955000
v -1.352296 1.962347 -6.005000
v -1.352296 1.962347 -5.955000
v -1.212435 2.300000 -6.005000
v -1.212435 2.300000 -5.955000
v -0.989949 2.589950 -6.005000
v -0.989949 2.589950 -5.955000
v -0.700000 2.812436 -6.005000
v -0.700000 2.812436 -5.955000
v -0.362347 2.952296 -6.005000
v -0.362347 2.952296 -5.955000
v 1.340000 1.460000 -5.830000
v 1.340000 1.740000 -5.830000
v 1.340000 1.460000 -6.010000
v 1.340000 1.740000 -6.010000
v 1.760000 1.460000 -5.830000
v 1.760000 1.740000 -5.830000
v 1.760000 1.460000 -6.010000
v 1.760000 1.740000 -6.010000
v 0.603090 2.234716 -5.830000
v 0.516565 2.501012 -5.830000
v 0.603090 2.234716 -6.010000
v 0.516565 2.501012 -6.010000
v 1.002533 2.364503 -5.830000
v 0.916009 2.630799 -5.830000
v 1.002533 2.364503 -6.010000
v 0.916009 2.630799 -6.010000
v -0.549084 2.531868 -5.830000
v -0.713664 2.758392 -5.830000
v -0.549084 2.531868 -6.010000
v -0.713664 2.758392 -6.010000
v -0.209296 2.778737 -5.830000
v -0.373876 3.005262 -5.830000
v -0.209296 2.778737 -6.010000
v -0.373876 3.005262 -6.010000
v -1.783576 2.162410 -5.830000
v -2.010101 2.326990 -5.830000
v -1.783576 2.162410 -6.010000
v -2.010101 2.326990 -6.010000
v -1.536706 2.502198 -5.830000
v -1.763231 2.666778 -5.830000
v -1.536706 2.502198 -6.010000
v -1.763231 2.666778 -6.010000
v -2.707412 1.162510 -5.830000
v -2.973709 1.249035 -5.830000
v -2.707412 1.162510 -6.010000
v -2.973709 1.249035 -6.010000
v -2.577625 1.561954 -5.830000
v -2.843921 1.648479 -5.830000
v -2.577625 1.561954 -6.010000
v -2.843921 1.648479 -6.010000
v -3.010000 -0.210000 -5.830000
v -3.290000 -0.210000 -5.830000
v -3.010000 -0.210000 -6.010000
v -3.290000 -0.210000 -6.010000
v -3.010000 0.210000 -5.830000
v -3.290000 0.210000 -5.830000
v -3.010000 0.210000 -6.010000
v -3.290000 0.210000 -6.010000
v -2.577625 -1.561954 -5.830000
v -2.843921 -1.648479 -5.830000
v -2.577625 -1.561954 -6.010000
v -2.843921 -1.648479 -6.010000
v -2.707412 -1.162510 -5.830000
v -2.973708 -1.249035 -5.830000
v -2.707412 -1.162510 -6.010000
v -2.973708 -1.249035 -6.010000
v -1.536706 -2.502197 -5.830000
v -1.763231 -2.666777 -5.830000
v -1.536706 -2.502197 -6.010000
v -1.763231 -2.666777 -6.010000
v -1.783576 -2.162410 -5.830000
v -2.010101 -2.326990 -5.830000
v -1.783576 -2.162410 -6.010000
v -2.010101 -2.326990 -6.010000
v -0.209296 -2.778737 -5.830000
v -0.373876 -3.005262 -5.830000
v -0.209296 -2.778737 -6.010000
v -0.373876 -3.005262 -6.010000
v -0.549083 -2.531868 -5.830000
v -0.713663 -2.758393 -5.830000
v -0.549083 -2.531868 -6.010000
v -0.713663 -2.758393 -6.010000
v 1.002533 -2.364503 -5.830000
v 0.916008 -2.630799 -5.830000
v 1.002533 -2.364503 -6.010000
v 0.916008 -2.630799 -6.010000
v 0.603089 -2.234716 -5.830000
v 0.516565 -2.501012 -5.830000
v 0.603089 -2.234716 -6.010000
v 0.516565 -2.501012 -6.010000
v 1.760000 -1.460000 -5.830000
v 1.760000 -1.740000 -5.830000
v 1.760000 -1.460000 -6.010000
v 1.760000 -1.740000 -6.010000
v 1.340000 -1.460000 -5.830000
v 1.340000 -1.740000 -5.830000
v 1.340000 -1.460000 -6.010000
v 1.340000 -1.740000 -6.010000
v 1.904863 -0.412582 -5.830000
v 1.991388 -0.678878 -5.830000
v 1.904863 -0.412582 -6.010000
v 1.991388 -0.678878 -6.010000
v 1.505419 -0.542369 -5.830000
v 1.591944 -0.808665 -5.830000
v 1.505419 -0.542369 -6.010000
v 1.591944 -0.808665 -6.010000
v 1.507036 0.416408 -5.830000
v 1.671616 0.189883 -5.830000
v 1.507036 0.416408 -6.010000
v 1.671616 0.189883 -6.010000
v 1.167249 0.169538 -5.830000
v 1.331829 -0.056987 -5.830000
v 1.167249 0.169538 -6.010000
v 1.331829 -0.056987 -6.010000
v 0.825623 0.785865 -5.830000
v 1.052148 0.621285 -5.830000
v 0.825623 0.785865 -6.010000
v 1.052148 0.621285 -6.010000
v 0.578753 0.446078 -5.830000
v 0.805278 0.281498 -5.830000
v 0.578753 0.446078 -6.010000
v 0.805278 0.281498 -6.010000
v 0.199460 0.659624 -5.830000
v 0.465756 0.573099 -5.830000
v 0.199460 0.659624 -6.010000
v 0.465756 0.573099 -6.010000
v 0.069673 0.260180 -5.830000
v 0.335968 0.173656 -5.830000
v 0.069673 0.260180 -6.010000
v 0.335968 0.173656 -6.010000
v -0.090000 0.210000 -5.830000
v 0.190000 0.210000 -5.830000
v -0.090000 0.210000 -6.010000
v 0.190000 0.210000 -6.010000
v -0.090000 -0.210000 -5.830000
v 0.190000 -0.210000 -5.830000
v -0.090000 -0.210000 -6.010000
v 0.190000 -0.210000 -6.010000
v 0.069673 -0.260180 -5.830000
v 0.335968 -0.173656 -5.830000
v 0.069673 -0.260180 -6.010000
v 0.335968 -0.173656 -6.010000
v 0.199460 -0.659624 -5.830000
v 0.465756 -0.573099 -5.830000
v 0.199460 -0.659624 -6.010000
v 0.465756 -0.573099 -6.010000
v 0.578753 -0.446078 -5.830000
v 0.805278 -0.281498 -5.830000
v 0.578753 -0.446078 -6.010000
v 0.805278 -0.281498 -6.010000
v 0.825623 -0.785865 -5.830000
v 1.052148 -0.621285 -5.830000
v 0.825623 -0.785865 -6.010000
v 1.052148 -0.621285 -6.010000
v 1.167249 -0.169538 -5.830000
v 1.331829 0.056987 -5.830000
v 1.167249 -0.169538 -6.010000
v 1.331829 0.056987 -6.010000
v 1.507036 -0.416408 -5.830000
v 1.671616 -0.189883 -5.830000
v 1.507036 -0.416408 -6.010000
v 1.671616 -0.189883 -6.010000
v 1.505419 0.542369 -5.830000
v 1.591944 0.808665 -5.830000
v 1.505419 0.542369 -6.010000
v 1.591944 0.808665 -6.010000
v 1.904863 0.412582 -5.830000
v 1.991388 0.678878 -5.830000
v 1.904863 0.412582 -6.010000
v 1.991388 0.678878 -6.010000
v -1.075000 0.400000 -5.875000
v -1.075000 2.800000 -5.875000
v -1.075000 0.400000 -5.925000
v -1.075000 2.800000 -5.925000
v -1.025000 0.400000 -5.875000
v -1.025000 2.800000 -5.875000
v -1.025000 0.400000 -5.925000
v -1.025000 2.800000 -5.925000
v -0.725000 0.400000 -5.875000
v -0.725000 2.800000 -5.875000
v -0.725000 0.400000 -5.925000
v -0.725000 2.800000 -5.925000
v -0.675000 0.400000 -5.875000
v -0.675000 2.800000 -5.875000
v -0.675000 0.400000 -5.925000
v -0.675000 2.800000 -5.925000
v -0.375000 0.400000 -5.875000
v -0.375000 2.800000 -5.875000
v -0.375000 0.400000 -5.925000
v -0.375000 2.800000 -5.925000
v -0.325000 0.400000 -5.875000
v -0.325000 2.800000 -5.875000
v -0.325000 0.400000 -5.925000
v -0.325000 2.800000 -5.925000
v -0.025000 0.400000 -5.875000
v -0.025000 2.800000 -5.875000
v -0.025000 0.400000 -5.925000
v -0.025000 2.800000 -5.925000
v 0.025000 0.400000 -5.875000
v 0.025000 2.800000 -5.875000
v 0.025000 0.400000 -5.925000
v 0.025000 2.800000 -5.925000
v 0.325000 0.400000 -5.875000
v 0.325000 2.800000 -5.875000
v 0.325000 0.400000 -5.925000
v 0.325000 2.800000 -5.925000
v 0.375000 0.400000 -5.875000
v 0.375000 2.800000 -5.875000
v 0.375000 0.400000 -5.925000
v 0.375000 2.800000 -5.925000
v 0.675000 0.400000 -5.875000
v 0.675000 2.800000 -5.875000
v 0.675000 0.400000 -5.925000
v 0.675000 2.800000 -5.925000
v 0.725000 0.400000 -5.875000
v 0.725000 2.800000 -5.875000
v 0.725000 0.400000 -5.925000
v 0.725000 2.800000 -5.925000
v 1.025000 0.400000 -5.875000
v 1.025000 2.800000 -5.875000
v 1.025000 0.400000 -5.925000
v 1.025000 2.800000 -5.925000
v 1.075000 0.400000 -5.875000
v 1.075000 2.800000 -5.875000
v 1.075000 0.400000 -5.925000
v 1.075000 2.800000 -5.925000
v 5.895000 0.000000 -2.725000
v 5.895000 3.200000 -2.725000
v 5.895000 0.000000 -2.775000
v 5.895000 3.200000 -2.775000
v 5.945000 0.000000 -2.725000
v 5.945000 3.200000 -2.725000
v 5.945000 0.000000 -2.775000
v 5.945000 3.200000 -2.775000
v 5.895000 0.000000 -3.225000
v 5.895000 3.200000 -3.225000
v 5.895000 0.000000 -3.275000
v 5.895000 3.200000 -3.275000
v 5.945000 0.000000 -3.225000
v 5.945000 3.200000 -3.225000
v 5.945000 0.000000 -3.275000
v 5.945000 3.200000 -3.275000
v 5.900000 0.280000 -2.750000
v 5.900000 0.320000 -2.750000
v 5.900000 0.280000 -3.250000
v 5.900000 0.320000 -3.250000
v 5.940000 0.280000 -2.750000
v 5.940000 0.320000 -2.750000
v 5.940000 0.280000 -3.250000
v 5.940000 0.320000 -3.250000
v 5.900000 0.610000 -2.750000
v 5.900000 0.650000 -2.750000
v 5.900000 0.610000 -3.250000
v 5.900000 0.650000 -3.250000
v 5.940000 0.610000 -2.750000
v 5.940000 0.650000 -2.750000
v 5.940000 0.610000 -3.250000
v 5.940000 0.650000 -3.250000
v 5.900000 0.940000 -2.750000
v 5.900000 0.980000 -2.750000
v 5.900000 0.940000 -3.250000
v 5.900000 0.980000 -3.250000
v 5.940000 0.940000 -2.750000
v 5.940000 0.980000 -2.750000
v 5.940000 0.940000 -3.250000
v 5.940000 0.980000 -3.250000
v 5.900000 1.270000 -2.750000
v 5.900000 1.310000 -2.750000
v 5.900000 1.270000 -3.250000
v 5.900000 1.310000 -3.250000
v 5.940000 1.270000 -2.750000
v 5.940000 1.310000 -2.750000
v 5.940000 1.270000 -3.250000
v 5.940000 1.310000 -3.250000
v 5.900000 1.600000 -2.750000
v 5.900000 1.640000 -2.750000
v 5.900000 1.600000 -3.250000
v 5.900000 1.640000 -3.250000
v 5.940000 1.600000 -2.750000
v 5.940000 1.640000 -2.750000
v 5.940000 1.600000 -3.250000
v 5.940000 1.640000 -3.250000
v 5.900000 1.930000 -2.750000
v 5.900000 1.970000 -2.750000
v 5.900000 1.930000 -3.250000
v 5.900000 1.970000 -3.250000
v 5.940000 1.930000 -2.750000
v 5.940000 1.970000 -2.750000
v 5.940000 1.930000 -3.250000
v 5.940000 1.970000 -3.250000
v 5.900000 2.260000 -2.750000
v 5.900000 2.300000 -2.750000
v 5.900000 2.260000 -3.250000
v 5.900000 2.300000 -3.250000
v 5.940000 2.260000 -2.750000
v 5.940000 2.300000 -2.750000
v 5.940000 2.260000 -3.250000
v 5.940000 2.300000 -3.250000
v 5.900000 2.590000 -2.750000
v 5.900000 2.630000 -2.750000
v 5.900000 2.590000 -3.250000
v 5.900000 2.630000 -3.250000
v 5.940000 2.590000 -2.750000
v 5.940000 2.630000 -2.750000
v 5.940000 2.590000 -3.250000
v 5.940000 2.630000 -3.250000
v 5.900000 2.920000 -2.750000
v 5.900000 2.960000 -2.750000
v 5.900000 2.920000 -3.250000
v 5.900000 2.960000 -3.250000
v 5.940000 2.920000 -2.750000
v 5.940000 2.960000 -2.750000
v 5.940000 2.920000 -3.250000
v 5.940000 2.960000 -3.250000
vn -1.0000 -0.0000 -0.0000
vn -0.0000 -0.0000 -1.0000
vn 1.0000 -0.0000 -0.0000
vn -0.0000 -0.0000 1.0000
vn -0.0000 -1.0000 -0.0000
vn -0.0000 1.0000 -0.0000
vn 0.1305 0.9914 -0.0000
vn 0.3827 0.9239 -0.0000
vn 0.6088 0.7934 -0.0000
vn 0.7934 0.6088 -0.0000
vn 0.9239 0.3827 -0.0000
vn 0.9914 0.1305 -0.0000
vn 0.9914 -0.1305 -0.0000
vn 0.9239 -0.3827 -0.0000
vn 0.7934 -0.6088 -0.0000
vn 0.6088 -0.7934 -0.0000
vn 0.3827 -0.9239 -0.0000
vn 0.1305 -0.9914 -0.0000
vn -0.1305 -0.9914 -0.0000
vn -0.3827 -0.9239 -0.0000
vn -0.6088 -0.7934 -0.0000
vn -0.7934 -0.6088 -0.0000
vn -0.9239 -0.3827 -0.0000
vn -0.9914 -0.1305 -0.0000
vn -0.9914 0.1305 -0.0000
vn -0.9239 0.3827 -0.0000
vn -0.7934 0.6088 -0.0000
vn -0.6088 0.7934 -0.0000
vn -0.3827 0.9239 -0.0000
vn -0.1305 0.9914 -0.0000
vn -0.9511 -0.3090 -0.0000
vn 0.9511 0.3090 -0.0000
vn 0.3090 -0.9511 -0.0000
vn -0.3090 0.9511 -0.0000
vn -0.8090 -0.5878 -0.0000
vn 0.8090 0.5878 -0.0000
vn 0.5878 -0.8090 -0.0000
vn -0.5878 0.8090 -0.0000
vn -0.5878 -0.8090 -0.0000
vn 0.5878 0.8090 -0.0000
vn 0.8090 -0.5878 -0.0000
vn -0.8090 0.5878 -0.0000
vn -0.3090 -0.9511 -0.0000
vn 0.3090 0.9511 -0.0000
vn 0.9511 -0.3090 -0.0000
vn -0.9511 0.3090 -0.0000
vt 0.942383 0.773438
vt 0.945312 0.444336
vt 0.945312 0.773438
vt 0.904297 0.876953
vt 0.906250 0.444336
vt 0.906250 0.876953
vt 0.950195 0.333008
vt 0.953125 0.003906
vt 0.953125 0.333008
vt 0.912109 0.436523
vt 0.915039 0.003906
vt 0.915039 0.436523
vt 0.333008 0.436523
vt 0.003906 0.003906
vt 0.333008 0.003906
vt 0.669922 0.436523
vt 0.340820 0.003906
vt 0.669922 0.003906
vt 0.313477 0.781250
vt 0.322266 0.897461
vt 0.313477 0.897461
vt 0.677734 0.436523
vt 0.793945 0.003906
vt 0.793945 0.436523
vt 0.330078 0.781250
vt 0.339844 0.897461
vt 0.330078 0.897461
vt 0.003906 0.876953
vt 0.120117 0.444336
vt 0.120117 0.876953
vt 0.869141 0.436523
vt 0.860352 0.003906
vt 0.869141 0.003906
vt 0.792969 0.876953
vt 0.783203 0.444336
vt 0.792969 0.444336
vt 0.127930 0.773438
vt 0.243164 0.444336
vt 0.243164 0.773438
vt 0.347656 0.781250
vt 0.356445 0.897461
vt 0.347656 0.897461
vt 0.250977 0.773438
vt 0.367188 0.444336
vt 0.367188 0.773438
vt 0.364258 0.781250
vt 0.374023 0.897461
vt 0.364258 0.897461
vt 0.800781 0.773438
vt 0.809570 0.444336
vt 0.809570 0.773438
vt 0.817383 0.773438
vt 0.827148 0.444336
vt 0.827148 0.773438
vt 0.375000 0.773438
vt 0.491211 0.444336
vt 0.491211 0.773438
vt 0.381836 0.781250
vt 0.391602 0.897461
vt 0.381836 0.897461
vt 0.499023 0.773438
vt 0.615234 0.444336
vt 0.615234 0.773438
vt 0.399414 0.781250
vt 0.408203 0.897461
vt 0.399414 0.897461
vt 0.834961 0.773438
vt 0.844727 0.444336
vt 0.844727 0.773438
vt 0.851562 0.773438
vt 0.861328 0.444336
vt 0.861328 0.773438
vt 0.941406 0.423828
vt 0.942383 0.428711
vt 0.941406 0.428711
vt 0.869141 0.855469
vt 0.874023 0.444336
vt 0.874023 0.855469
vt 0.395508 0.940430
vt 0.396484 0.945312
vt 0.395508 0.945312
vt 0.876953 0.416016
vt 0.882812 0.003906
vt 0.882812 0.416016
vt 0.934570 0.855469
vt 0.933594 0.444336
vt 0.934570 0.444336
vt 0.942383 0.416016
vt 0.941406 0.003906
vt 0.942383 0.003906
vt 0.960938 0.208984
vt 0.965820 0.003906
vt 0.965820 0.208984
vt 0.671875 0.956055
vt 0.672852 0.960938
vt 0.671875 0.960938
vt 0.960938 0.422852
vt 0.965820 0.216797
vt 0.965820 0.422852
vt 0.773438 0.648438
vt 0.775391 0.655273
vt 0.773438 0.655273
vt 0.773438 0.860352
vt 0.775391 0.860352
vt 0.973633 0.428711
vt 0.974609 0.223633
vt 0.974609 0.428711
vt 0.967773 0.649414
vt 0.972656 0.444336
vt 0.972656 0.649414
vt 0.959961 0.430664
vt 0.960938 0.436523
vt 0.959961 0.436523
vt 0.967773 0.862305
vt 0.972656 0.657227
vt 0.972656 0.862305
vt 0.973633 0.003906
vt 0.974609 0.009766
vt 0.973633 0.009766
vt 0.973633 0.215820
vt 0.974609 0.215820
vt 0.980469 0.649414
vt 0.981445 0.444336
vt 0.981445 0.649414
vt 0.732422 0.648438
vt 0.765625 0.723633
vt 0.732422 0.723633
vt 0.715820 0.827148
vt 0.716797 0.902344
vt 0.715820 0.902344
vt 0.732422 0.731445
vt 0.765625 0.805664
vt 0.732422 0.805664
vt 0.230469 0.863281
vt 0.231445 0.938477
vt 0.230469 0.938477
vt 0.873047 0.939453
vt 0.874023 0.906250
vt 0.874023 0.939453
vt 0.950195 0.432617
vt 0.951172 0.399414
vt 0.951172 0.432617
vt 0.127930 0.781250
vt 0.171875 0.862305
vt 0.127930 0.862305
vt 0.484375 0.781250
vt 0.485352 0.862305
vt 0.484375 0.862305
vt 0.179688 0.781250
vt 0.222656 0.862305
vt 0.179688 0.862305
vt 0.493164 0.781250
vt 0.494141 0.862305
vt 0.493164 0.862305
vt 0.475586 0.941406
vt 0.476562 0.898438
vt 0.476562 0.941406
vt 0.407227 0.948242
vt 0.408203 0.905273
vt 0.408203 0.948242
vt 0.614258 0.906250
vt 0.615234 0.922852
vt 0.614258 0.922852
vt 0.989258 0.444336
vt 0.990234 0.459961
vt 0.989258 0.459961
vt 0.119141 0.935547
vt 0.120117 0.952148
vt 0.119141 0.952148
vt 0.989258 0.467773
vt 0.990234 0.484375
vt 0.989258 0.484375
vt 0.205299 0.983276
vt 0.206674 0.981557
vt 0.206674 0.983276
vt 0.834312 0.983276
vt 0.835688 0.981557
vt 0.835688 0.983276
vt 0.230469 0.781250
vt 0.264648 0.855469
vt 0.230469 0.855469
vt 0.239258 0.863281
vt 0.241211 0.938477
vt 0.239258 0.938477
vt 0.271484 0.781250
vt 0.305664 0.855469
vt 0.271484 0.855469
vt 0.248047 0.863281
vt 0.250000 0.938477
vt 0.248047 0.938477
vt 0.286133 0.968750
vt 0.287109 0.934570
vt 0.287109 0.968750
vt 0.967773 0.904297
vt 0.968750 0.870117
vt 0.968750 0.904297
vt 0.681641 0.648438
vt 0.724609 0.730469
vt 0.681641 0.730469
vt 0.501072 0.780605
vt 0.502791 0.863149
vt 0.501072 0.863149
vt 0.681641 0.738281
vt 0.724609 0.819336
vt 0.681641 0.819336
vt 0.509766 0.781250
vt 0.510742 0.862305
vt 0.509766 0.862305
vt 0.119141 0.927734
vt 0.120117 0.883789
vt 0.120117 0.927734
vt 0.773438 0.927734
vt 0.774414 0.883789
vt 0.774414 0.927734
vt 0.248047 0.946289
vt 0.249023 0.961914
vt 0.248047 0.961914
vt 0.989258 0.492188
vt 0.990234 0.508789
vt 0.989258 0.508789
vt 0.475586 0.949219
vt 0.476562 0.965820
vt 0.475586 0.965820
vt 0.989258 0.516602
vt 0.990234 0.532227
vt 0.989258 0.532227
vt 0.843304 0.983276
vt 0.844680 0.981557
vt 0.844680 0.983276
vt 0.213867 0.986328
vt 0.214844 0.985352
vt 0.214844 0.986328
vt 0.599609 0.934570
vt 0.606445 0.906250
vt 0.606445 0.934570
vt 0.356445 0.972656
vt 0.363281 0.961914
vt 0.363281 0.972656
vt 0.800781 0.934570
vt 0.807617 0.906250
vt 0.807617 0.934570
vt 0.371094 0.972656
vt 0.376953 0.961914
vt 0.376953 0.972656
vt 0.257812 0.891602
vt 0.268555 0.863281
vt 0.268555 0.891602
vt 0.276367 0.891602
vt 0.287109 0.863281
vt 0.287109 0.891602
vt 0.089844 0.948242
vt 0.096680 0.919922
vt 0.096680 0.948242
vt 0.141602 0.974609
vt 0.148438 0.962891
vt 0.148438 0.974609
vt 0.104492 0.948242
vt 0.111328 0.919922
vt 0.111328 0.948242
vt 0.156250 0.974609
vt 0.163086 0.962891
vt 0.163086 0.974609
vt 0.127930 0.898438
vt 0.138672 0.870117
vt 0.138672 0.898438
vt 0.146484 0.898438
vt 0.157227 0.870117
vt 0.157227 0.898438
vt 0.623047 0.948242
vt 0.628906 0.919922
vt 0.628906 0.948242
vt 0.170898 0.974609
vt 0.177734 0.962891
vt 0.177734 0.974609
vt 0.636719 0.948242
vt 0.643555 0.919922
vt 0.643555 0.948242
vt 0.185547 0.974609
vt 0.191406 0.962891
vt 0.191406 0.974609
vt 0.165039 0.898438
vt 0.176758 0.870117
vt 0.176758 0.898438
vt 0.184570 0.898438
vt 0.195312 0.870117
vt 0.195312 0.898438
vt 0.651367 0.948242
vt 0.658203 0.919922
vt 0.658203 0.948242
vt 0.199219 0.974609
vt 0.206055 0.962891
vt 0.206055 0.974609
vt 0.666016 0.948242
vt 0.672852 0.919922
vt 0.672852 0.948242
vt 0.484375 0.974609
vt 0.491211 0.962891
vt 0.491211 0.974609
vt 0.203125 0.898438
vt 0.213867 0.870117
vt 0.213867 0.898438
vt 0.484375 0.898438
vt 0.495117 0.870117
vt 0.495117 0.898438
vt 0.815430 0.934570
vt 0.821289 0.906250
vt 0.821289 0.934570
vt 0.499023 0.974609
vt 0.505859 0.962891
vt 0.505859 0.974609
vt 0.829102 0.934570
vt 0.835938 0.906250
vt 0.835938 0.934570
vt 0.513672 0.974609
vt 0.519531 0.962891
vt 0.519531 0.974609
vt 0.502930 0.898438
vt 0.514648 0.870117
vt 0.514648 0.898438
vt 0.522461 0.898438
vt 0.533203 0.870117
vt 0.533203 0.898438
vt 0.484375 0.934570
vt 0.491211 0.906250
vt 0.491211 0.934570
vt 0.933594 0.875000
vt 0.940430 0.863281
vt 0.940430 0.875000
vt 0.499023 0.934570
vt 0.505859 0.906250
vt 0.505859 0.934570
vt 0.313477 0.972656
vt 0.319336 0.961914
vt 0.319336 0.972656
vt 0.541016 0.898438
vt 0.551758 0.870117
vt 0.551758 0.898438
vt 0.561523 0.898438
vt 0.572266 0.870117
vt 0.572266 0.898438
vt 0.843750 0.934570
vt 0.850586 0.906250
vt 0.850586 0.934570
vt 0.230469 0.978516
vt 0.237305 0.967773
vt 0.237305 0.978516
vt 0.858398 0.934570
vt 0.865234 0.906250
vt 0.865234 0.934570
vt 0.867188 0.979492
vt 0.874023 0.968750
vt 0.874023 0.979492
vt 0.623047 0.912109
vt 0.633789 0.883789
vt 0.633789 0.912109
vt 0.641602 0.912109
vt 0.652344 0.883789
vt 0.652344 0.912109
vt 0.782227 0.948242
vt 0.788086 0.919922
vt 0.788086 0.948242
vt 0.416016 0.980469
vt 0.422852 0.969727
vt 0.422852 0.980469
vt 0.881836 0.948242
vt 0.888672 0.919922
vt 0.888672 0.948242
vt 0.430664 0.980469
vt 0.437500 0.969727
vt 0.437500 0.980469
vt 0.660156 0.912109
vt 0.671875 0.883789
vt 0.671875 0.912109
vt 0.782227 0.912109
vt 0.792969 0.883789
vt 0.792969 0.912109
vt 0.896484 0.948242
vt 0.903320 0.919922
vt 0.903320 0.948242
vt 0.829102 0.974609
vt 0.835938 0.962891
vt 0.835938 0.974609
vt 0.911133 0.948242
vt 0.917969 0.919922
vt 0.917969 0.948242
vt 0.843750 0.974609
vt 0.850586 0.962891
vt 0.850586 0.974609
vt 0.881836 0.912109
vt 0.893555 0.883789
vt 0.893555 0.912109
vt 0.901367 0.912109
vt 0.912109 0.883789
vt 0.912109 0.912109
vt 0.925781 0.948242
vt 0.931641 0.919922
vt 0.931641 0.948242
vt 0.445312 0.980469
vt 0.451172 0.969727
vt 0.451172 0.980469
vt 0.939453 0.948242
vt 0.946289 0.919922
vt 0.946289 0.948242
vt 0.458984 0.980469
vt 0.465820 0.969727
vt 0.465820 0.980469
vt 0.416016 0.925781
vt 0.426758 0.898438
vt 0.426758 0.925781
vt 0.434570 0.925781
vt 0.446289 0.898438
vt 0.446289 0.925781
vt 0.715820 0.937500
vt 0.721680 0.910156
vt 0.721680 0.937500
vt 0.257812 0.981445
vt 0.263672 0.970703
vt 0.263672 0.981445
vt 0.681641 0.944336
vt 0.687500 0.916992
vt 0.687500 0.944336
vt 0.976562 0.881836
vt 0.983398 0.870117
vt 0.983398 0.881836
vt 0.454102 0.925781
vt 0.464844 0.898438
vt 0.464844 0.925781
vt 0.257812 0.926758
vt 0.268555 0.899414
vt 0.268555 0.926758
vt 0.513672 0.934570
vt 0.519531 0.906250
vt 0.519531 0.934570
vt 0.976562 0.900391
vt 0.983398 0.889648
vt 0.983398 0.900391
vt 0.527344 0.934570
vt 0.534180 0.906250
vt 0.534180 0.934570
vt 0.681641 0.985352
vt 0.687500 0.973633
vt 0.687500 0.985352
vt 0.276367 0.926758
vt 0.287109 0.899414
vt 0.287109 0.926758
vt 0.732422 0.930664
vt 0.744141 0.903320
vt 0.744141 0.930664
vt 0.695312 0.944336
vt 0.702148 0.916992
vt 0.702148 0.944336
vt 0.695312 0.985352
vt 0.702148 0.973633
vt 0.702148 0.985352
vt 0.938477 0.912109
vt 0.945312 0.883789
vt 0.945312 0.912109
vt 0.294922 0.985352
vt 0.301758 0.974609
vt 0.301758 0.985352
vt 0.751953 0.930664
vt 0.762695 0.903320
vt 0.762695 0.930664
vt 0.919922 0.912109
vt 0.930664 0.883789
vt 0.930664 0.912109
vt 0.953125 0.912109
vt 0.959961 0.883789
vt 0.959961 0.912109
vt 0.732422 0.985352
vt 0.739258 0.974609
vt 0.739258 0.985352
vt 0.954102 0.948242
vt 0.960938 0.919922
vt 0.960938 0.948242
vt 0.747070 0.985352
vt 0.753906 0.974609
vt 0.753906 0.985352
vt 0.313477 0.932617
vt 0.324219 0.905273
vt 0.324219 0.932617
vt 0.332031 0.932617
vt 0.342773 0.905273
vt 0.342773 0.932617
vt 0.416016 0.961914
vt 0.422852 0.933594
vt 0.422852 0.961914
vt 0.213867 0.977539
vt 0.220703 0.966797
vt 0.220703 0.977539
vt 0.430664 0.961914
vt 0.437500 0.933594
vt 0.437500 0.961914
vt 0.715820 0.977539
vt 0.721680 0.966797
vt 0.721680 0.977539
vt 0.350586 0.932617
vt 0.362305 0.905273
vt 0.362305 0.932617
vt 0.370117 0.932617
vt 0.380859 0.905273
vt 0.380859 0.932617
vt 0.445312 0.961914
vt 0.451172 0.933594
vt 0.451172 0.961914
vt 0.761719 0.985352
vt 0.768555 0.974609
vt 0.768555 0.985352
vt 0.458984 0.961914
vt 0.465820 0.933594
vt 0.465820 0.961914
vt 0.980469 0.966797
vt 0.987305 0.956055
vt 0.987305 0.966797
vt 0.388672 0.932617
vt 0.399414 0.905273
vt 0.399414 0.932617
vt 0.127930 0.934570
vt 0.138672 0.906250
vt 0.138672 0.934570
vt 0.003906 0.948242
vt 0.010742 0.919922
vt 0.010742 0.948242
vt 0.980469 0.985352
vt 0.987305 0.974609
vt 0.987305 0.985352
vt 0.018555 0.948242
vt 0.024414 0.919922
vt 0.024414 0.948242
vt 0.280273 0.987305
vt 0.287109 0.976562
vt 0.287109 0.987305
vt 0.146484 0.934570
vt 0.157227 0.906250
vt 0.157227 0.934570
vt 0.165039 0.934570
vt 0.176758 0.906250
vt 0.176758 0.934570
vt 0.541992 0.934570
vt 0.548828 0.906250
vt 0.548828 0.934570
vt 0.980469 0.667969
vt 0.987305 0.657227
vt 0.987305 0.667969
vt 0.556641 0.934570
vt 0.563477 0.906250
vt 0.563477 0.934570
vt 0.980469 0.687500
vt 0.987305 0.675781
vt 0.987305 0.687500
vt 0.184570 0.934570
vt 0.195312 0.906250
vt 0.195312 0.934570
vt 0.203125 0.934570
vt 0.213867 0.906250
vt 0.213867 0.934570
vt 0.032227 0.948242
vt 0.039062 0.919922
vt 0.039062 0.948242
vt 0.384766 0.972656
vt 0.391602 0.961914
vt 0.391602 0.972656
vt 0.046875 0.948242
vt 0.053711 0.919922
vt 0.053711 0.948242
vt 0.127930 0.974609
vt 0.133789 0.962891
vt 0.133789 0.974609
vt 0.580078 0.898438
vt 0.591797 0.870117
vt 0.591797 0.898438
vt 0.599609 0.898438
vt 0.610352 0.870117
vt 0.610352 0.898438
vt 0.257812 0.962891
vt 0.263672 0.934570
vt 0.263672 0.962891
vt 0.527344 0.974609
vt 0.534180 0.962891
vt 0.534180 0.974609
vt 0.271484 0.962891
vt 0.278320 0.934570
vt 0.278320 0.962891
vt 0.541992 0.974609
vt 0.548828 0.962891
vt 0.548828 0.974609
vt 0.800781 0.898438
vt 0.811523 0.870117
vt 0.811523 0.898438
vt 0.819336 0.898438
vt 0.830078 0.870117
vt 0.830078 0.898438
vt 0.294922 0.966797
vt 0.301758 0.938477
vt 0.301758 0.966797
vt 0.556641 0.974609
vt 0.563477 0.962891
vt 0.563477 0.974609
vt 0.732422 0.966797
vt 0.739258 0.938477
vt 0.739258 0.966797
vt 0.571289 0.974609
vt 0.577148 0.962891
vt 0.577148 0.974609
vt 0.837891 0.898438
vt 0.849609 0.870117
vt 0.849609 0.898438
vt 0.857422 0.898438
vt 0.868164 0.870117
vt 0.868164 0.898438
vt 0.747070 0.966797
vt 0.753906 0.938477
vt 0.753906 0.966797
vt 0.584961 0.974609
vt 0.591797 0.962891
vt 0.591797 0.974609
vt 0.761719 0.966797
vt 0.768555 0.938477
vt 0.768555 0.966797
vt 0.599609 0.974609
vt 0.606445 0.962891
vt 0.606445 0.974609
vt 0.003906 0.912109
vt 0.014648 0.883789
vt 0.014648 0.912109
vt 0.022461 0.912109
vt 0.034180 0.883789
vt 0.034180 0.912109
vt 0.061523 0.948242
vt 0.068359 0.919922
vt 0.068359 0.948242
vt 0.800781 0.974609
vt 0.807617 0.962891
vt 0.807617 0.974609
vt 0.076172 0.948242
vt 0.082031 0.919922
vt 0.082031 0.948242
vt 0.815430 0.974609
vt 0.821289 0.962891
vt 0.821289 0.974609
vt 0.041992 0.912109
vt 0.052734 0.883789
vt 0.052734 0.912109
vt 0.060547 0.912109
vt 0.071289 0.883789
vt 0.071289 0.912109
vt 0.571289 0.934570
vt 0.577148 0.906250
vt 0.577148 0.934570
vt 0.327148 0.972656
vt 0.333984 0.961914
vt 0.333984 0.972656
vt 0.584961 0.934570
vt 0.591797 0.906250
vt 0.591797 0.934570
vt 0.341797 0.972656
vt 0.348633 0.961914
vt 0.348633 0.972656
vt 0.079102 0.912109
vt 0.090820 0.883789
vt 0.090820 0.912109
vt 0.098633 0.912109
vt 0.109375 0.883789
vt 0.109375 0.912109
vt 0.723751 0.878548
vt 0.724439 0.826958
vt 0.724439 0.878548
vt 0.952227 0.876956
vt 0.952914 0.443600
vt 0.952914 0.876956
vt 0.950010 0.392010
vt 0.950698 0.340420
vt 0.950698 0.392010
vt 0.959743 0.876956
vt 0.960431 0.443600
vt 0.960431 0.876956
vt 0.852539 0.436523
vt 0.801758 0.003906
vt 0.852539 0.003906
vt 0.673828 0.876953
vt 0.623047 0.444336
vt 0.673828 0.444336
vt 0.968750 0.944336
vt 0.970703 0.941406
vt 0.970703 0.944336
vt 0.914062 0.876953
vt 0.916016 0.444336
vt 0.916016 0.876953
vt 0.976562 0.911133
vt 0.978516 0.908203
vt 0.978516 0.911133
vt 0.922852 0.436523
vt 0.923828 0.003906
vt 0.923828 0.436523
vt 0.885742 0.876953
vt 0.881836 0.444336
vt 0.885742 0.444336
vt 0.893555 0.436523
vt 0.890625 0.003906
vt 0.893555 0.003906
vt 0.510742 0.985352
vt 0.512695 0.982422
vt 0.512695 0.985352
vt 0.923828 0.876953
vt 0.925781 0.444336
vt 0.925781 0.876953
vt 0.520508 0.985352
vt 0.521484 0.982422
vt 0.521484 0.985352
vt 0.931641 0.436523
vt 0.933594 0.003906
vt 0.933594 0.436523
vt 0.896484 0.876953
vt 0.893555 0.444336
vt 0.896484 0.444336
vt 0.904297 0.436523
vt 0.901367 0.003906
vt 0.904297 0.003906
vt 0.221680 0.903320
vt 0.222656 0.891602
vt 0.222656 0.903320
vt 0.221680 0.891602
vt 0.222656 0.880859
vt 0.221680 0.880859
vt 0.222656 0.870117
vt 0.295898 0.863281
vt 0.294922 0.874023
vt 0.294922 0.863281
vt 0.295898 0.874023
vt 0.294922 0.884766
vt 0.295898 0.884766
vt 0.294922 0.897461
vt 0.295898 0.897461
vt 0.294922 0.909180
vt 0.295898 0.909180
vt 0.294922 0.920898
vt 0.295898 0.920898
vt 0.294922 0.930664
vt 0.942383 0.848633
vt 0.943359 0.837891
vt 0.943359 0.848633
vt 0.942383 0.837891
vt 0.943359 0.826172
vt 0.942383 0.826172
vt 0.943359 0.815430
vt 0.942383 0.815430
vt 0.943359 0.802734
vt 0.942383 0.802734
vt 0.943359 0.791016
vt 0.942383 0.791016
vt 0.943359 0.781250
vt 0.303711 0.930664
vt 0.304688 0.920898
vt 0.304688 0.930664
vt 0.303711 0.920898
vt 0.304688 0.909180
vt 0.303711 0.909180
vt 0.304688 0.897461
vt 0.303711 0.897461
vt 0.304688 0.884766
vt 0.303711 0.884766
vt 0.304688 0.874023
vt 0.303711 0.874023
vt 0.304688 0.863281
vt 0.221680 0.937500
vt 0.222656 0.927734
vt 0.222656 0.937500
vt 0.772461 0.508789
vt 0.690430 0.520508
vt 0.722656 0.444336
vt 0.221680 0.927734
vt 0.222656 0.916016
vt 0.221680 0.916016
vt 0.766602 0.622070
vt 0.684570 0.611328
vt 0.734375 0.546875
vt 0.959961 0.976562
vt 0.965820 0.985352
vt 0.959961 0.985352
vt 0.003906 0.968750
vt 0.012695 0.956055
vt 0.012695 0.968750
vt 0.403320 0.977539
vt 0.408203 0.986328
vt 0.403320 0.986328
vt 0.020508 0.968750
vt 0.029297 0.956055
vt 0.029297 0.968750
vt 0.874023 0.960938
vt 0.868164 0.947266
vt 0.874023 0.947266
vt 0.919922 0.968750
vt 0.915039 0.956055
vt 0.919922 0.956055
vt 0.982422 0.192383
vt 0.988281 0.200195
vt 0.982422 0.200195
vt 0.542969 0.955078
vt 0.534180 0.942383
vt 0.542969 0.942383
vt 0.982422 0.208008
vt 0.988281 0.216797
vt 0.982422 0.216797
vt 0.387695 0.940430
vt 0.378906 0.954102
vt 0.378906 0.940430
vt 0.882812 0.436523
vt 0.876953 0.423828
vt 0.882812 0.423828
vt 0.986328 0.708008
vt 0.980469 0.695312
vt 0.986328 0.695312
vt 0.368164 0.980469
vt 0.373047 0.987305
vt 0.368164 0.987305
vt 0.168945 0.955078
vt 0.160156 0.942383
vt 0.168945 0.942383
vt 0.380859 0.980469
vt 0.386719 0.987305
vt 0.380859 0.987305
vt 0.185547 0.942383
vt 0.176758 0.955078
vt 0.176758 0.942383
vt 0.008789 0.987305
vt 0.003906 0.976562
vt 0.008789 0.976562
vt 0.022461 0.987305
vt 0.016602 0.976562
vt 0.022461 0.976562
vt 0.982422 0.423828
vt 0.988281 0.430664
vt 0.982422 0.430664
vt 0.193359 0.955078
vt 0.202148 0.942383
vt 0.202148 0.955078
vt 0.132812 0.989258
vt 0.127930 0.982422
vt 0.132812 0.982422
vt 0.484375 0.942383
vt 0.493164 0.955078
vt 0.484375 0.955078
vt 0.030273 0.976562
vt 0.035156 0.987305
vt 0.030273 0.987305
vt 0.047852 0.987305
vt 0.042969 0.976562
vt 0.047852 0.976562
vt 0.769531 0.868164
vt 0.775391 0.875977
vt 0.769531 0.875977
vt 0.337891 0.954102
vt 0.330078 0.940430
vt 0.337891 0.940430
vt 0.988281 0.167969
vt 0.982422 0.160156
vt 0.988281 0.160156
vt 0.354492 0.940430
vt 0.345703 0.954102
vt 0.345703 0.940430
vt 0.980469 0.715820
vt 0.986328 0.728516
vt 0.980469 0.728516
vt 0.988281 0.119141
vt 0.982422 0.106445
vt 0.988281 0.106445
vt 0.908203 0.976562
vt 0.913086 0.985352
vt 0.908203 0.985352
vt 0.550781 0.955078
vt 0.558594 0.942383
vt 0.558594 0.955078
vt 0.926758 0.985352
vt 0.920898 0.976562
vt 0.926758 0.976562
vt 0.575195 0.942383
vt 0.566406 0.955078
vt 0.566406 0.942383
vt 0.954102 0.956055
vt 0.958984 0.968750
vt 0.954102 0.968750
vt 0.408203 0.969727
vt 0.403320 0.956055
vt 0.408203 0.956055
vt 0.982422 0.224609
vt 0.988281 0.232422
vt 0.982422 0.232422
vt 0.037109 0.968750
vt 0.045898 0.956055
vt 0.045898 0.968750
vt 0.988281 0.248047
vt 0.982422 0.240234
vt 0.988281 0.240234
vt 0.061523 0.956055
vt 0.053711 0.968750
vt 0.053711 0.956055
vt 0.982422 0.024414
vt 0.988281 0.037109
vt 0.982422 0.037109
vt 0.988281 0.057617
vt 0.982422 0.044922
vt 0.988281 0.044922
vt 0.140625 0.982422
vt 0.145508 0.989258
vt 0.140625 0.989258
vt 0.509766 0.955078
vt 0.500977 0.942383
vt 0.509766 0.942383
vt 0.159180 0.989258
vt 0.153320 0.982422
vt 0.159180 0.982422
vt 0.526367 0.942383
vt 0.517578 0.955078
vt 0.517578 0.942383
vt 0.895508 0.976562
vt 0.900391 0.987305
vt 0.895508 0.987305
vt 0.061523 0.987305
vt 0.055664 0.976562
vt 0.061523 0.976562
vt 0.987305 0.947266
vt 0.981445 0.940430
vt 0.987305 0.940430
vt 0.322266 0.954102
vt 0.313477 0.940430
vt 0.322266 0.940430
vt 0.318359 0.987305
vt 0.313477 0.980469
vt 0.318359 0.980469
vt 0.371094 0.940430
vt 0.362305 0.954102
vt 0.362305 0.940430
vt 0.075195 0.987305
vt 0.069336 0.976562
vt 0.075195 0.976562
vt 0.087891 0.987305
vt 0.083008 0.976562
vt 0.087891 0.976562
vt 0.988281 0.264648
vt 0.982422 0.255859
vt 0.988281 0.255859
vt 0.136719 0.955078
vt 0.127930 0.942383
vt 0.136719 0.942383
vt 0.988281 0.184570
vt 0.982422 0.175781
vt 0.988281 0.175781
vt 0.152344 0.942383
vt 0.144531 0.955078
vt 0.144531 0.942383
vt 0.988281 0.078125
vt 0.982422 0.065430
vt 0.988281 0.065430
vt 0.986328 0.831055
vt 0.980469 0.818359
vt 0.986328 0.818359
vt 0.988281 0.135742
vt 0.982422 0.126953
vt 0.988281 0.126953
vt 0.078125 0.956055
vt 0.069336 0.968750
vt 0.069336 0.956055
vt 0.988281 0.152344
vt 0.982422 0.143555
vt 0.988281 0.143555
vt 0.094727 0.956055
vt 0.085938 0.968750
vt 0.085938 0.956055
vt 0.933594 0.968750
vt 0.927734 0.956055
vt 0.933594 0.956055
vt 0.946289 0.968750
vt 0.941406 0.956055
vt 0.946289 0.956055
vt 0.988281 0.295898
vt 0.982422 0.288086
vt 0.988281 0.288086
vt 0.809570 0.942383
vt 0.800781 0.955078
vt 0.800781 0.942383
vt 0.988281 0.280273
vt 0.982422 0.272461
vt 0.988281 0.272461
vt 0.817383 0.955078
vt 0.826172 0.942383
vt 0.826172 0.955078
vt 0.986328 0.749023
vt 0.980469 0.736328
vt 0.986328 0.736328
vt 0.986328 0.769531
vt 0.980469 0.756836
vt 0.986328 0.756836
vt 0.184570 0.989258
vt 0.179688 0.982422
vt 0.184570 0.982422
vt 0.841797 0.942383
vt 0.833984 0.955078
vt 0.833984 0.942383
vt 0.198242 0.989258
vt 0.192383 0.982422
vt 0.198242 0.982422
vt 0.898438 0.968750
vt 0.907227 0.956055
vt 0.907227 0.968750
vt 0.100586 0.987305
vt 0.095703 0.976562
vt 0.100586 0.976562
vt 0.114258 0.987305
vt 0.108398 0.976562
vt 0.114258 0.976562
vt 0.166992 0.982422
vt 0.171875 0.989258
vt 0.166992 0.989258
vt 0.111328 0.956055
vt 0.102539 0.968750
vt 0.102539 0.956055
vt 0.333008 0.987305
vt 0.327148 0.980469
vt 0.333008 0.980469
vt 0.631836 0.968750
vt 0.623047 0.956055
vt 0.631836 0.956055
vt 0.787109 0.987305
vt 0.782227 0.976562
vt 0.787109 0.976562
vt 0.623047 0.976562
vt 0.627930 0.987305
vt 0.623047 0.987305
vt 0.982422 0.303711
vt 0.988281 0.312500
vt 0.982422 0.312500
vt 0.849609 0.942383
vt 0.858398 0.955078
vt 0.849609 0.955078
vt 0.988281 0.328125
vt 0.982422 0.320312
vt 0.988281 0.320312
vt 0.213867 0.958984
vt 0.222656 0.945312
vt 0.222656 0.958984
vt 0.986328 0.851562
vt 0.980469 0.838867
vt 0.986328 0.838867
vt 0.981445 0.919922
vt 0.987305 0.932617
vt 0.981445 0.932617
vt 0.934570 0.976562
vt 0.939453 0.985352
vt 0.934570 0.985352
vt 0.647461 0.956055
vt 0.639648 0.968750
vt 0.639648 0.956055
vt 0.952148 0.985352
vt 0.947266 0.976562
vt 0.952148 0.976562
vt 0.655273 0.968750
vt 0.664062 0.956055
vt 0.664062 0.968750
vt 0.972656 0.968750
vt 0.966797 0.956055
vt 0.972656 0.956055
vt 0.968750 0.919922
vt 0.973633 0.933594
vt 0.968750 0.933594
vt 0.982422 0.335938
vt 0.988281 0.344727
vt 0.982422 0.344727
vt 0.723633 0.945312
vt 0.715820 0.958984
vt 0.715820 0.945312
vt 0.988281 0.392578
vt 0.982422 0.383789
vt 0.988281 0.383789
vt 0.230469 0.959961
vt 0.239258 0.946289
vt 0.239258 0.959961
vt 0.988281 0.016602
vt 0.982422 0.003906
vt 0.988281 0.003906
vt 0.982422 0.085938
vt 0.988281 0.098633
vt 0.982422 0.098633
vt 0.341797 0.980469
vt 0.347656 0.987305
vt 0.341797 0.987305
vt 0.782227 0.956055
vt 0.790039 0.968750
vt 0.782227 0.968750
vt 0.360352 0.987305
vt 0.355469 0.980469
vt 0.360352 0.980469
vt 0.881836 0.968750
vt 0.890625 0.956055
vt 0.890625 0.968750
vt 0.887695 0.987305
vt 0.881836 0.976562
vt 0.887695 0.976562
vt 0.635742 0.976562
vt 0.640625 0.987305
vt 0.635742 0.987305
vt 0.484375 0.982422
vt 0.489258 0.989258
vt 0.484375 0.989258
vt 0.591797 0.942383
vt 0.583008 0.955078
vt 0.583008 0.942383
vt 0.497070 0.982422
vt 0.502930 0.989258
vt 0.497070 0.989258
vt 0.599609 0.955078
vt 0.608398 0.942383
vt 0.608398 0.955078
vt 0.654297 0.987305
vt 0.648438 0.976562
vt 0.654297 0.976562
vt 0.666992 0.987305
vt 0.662109 0.976562
vt 0.666992 0.976562
vt 0.982422 0.352539
vt 0.988281 0.360352
vt 0.982422 0.360352
vt 0.689453 0.952148
vt 0.681641 0.965820
vt 0.681641 0.952148
vt 0.982422 0.368164
vt 0.988281 0.375977
vt 0.982422 0.375977
vt 0.697266 0.965820
vt 0.706055 0.952148
vt 0.706055 0.965820
vt 0.986328 0.790039
vt 0.980469 0.777344
vt 0.986328 0.777344
vt 0.986328 0.810547
vt 0.980469 0.797852
vt 0.986328 0.797852
vt 0.518555 0.781250
vt 0.519531 0.862305
vt 0.518555 0.862305
vt 0.732422 0.813477
vt 0.733398 0.895508
vt 0.732422 0.895508
vt 0.527344 0.781250
vt 0.528320 0.862305
vt 0.527344 0.862305
vt 0.741211 0.813477
vt 0.742188 0.895508
vt 0.741211 0.895508
vt 0.571917 0.983276
vt 0.573637 0.981557
vt 0.573637 0.983276
vt 0.580466 0.983276
vt 0.582185 0.981557
vt 0.582185 0.983276
vt 0.535266 0.780605
vt 0.536986 0.863149
vt 0.535266 0.863149
vt 0.750000 0.813477
vt 0.750977 0.895508
vt 0.750000 0.895508
vt 0.543945 0.781250
vt 0.544922 0.862305
vt 0.543945 0.862305
vt 0.757850 0.813201
vt 0.759570 0.895745
vt 0.757850 0.895745
vt 0.589014 0.983276
vt 0.590734 0.981557
vt 0.590734 0.983276
vt 0.599188 0.983276
vt 0.600907 0.981557
vt 0.600907 0.983276
vt 0.552734 0.781250
vt 0.553711 0.862305
vt 0.552734 0.862305
vt 0.817383 0.781250
vt 0.818359 0.862305
vt 0.817383 0.862305
vt 0.561523 0.781250
vt 0.562500 0.862305
vt 0.561523 0.862305
vt 0.826172 0.781250
vt 0.827148 0.862305
vt 0.826172 0.862305
vt 0.980469 0.860352
vt 0.981445 0.859375
vt 0.981445 0.860352
vt 0.529175 0.983276
vt 0.530894 0.981557
vt 0.530894 0.983276
vt 0.569460 0.780605
vt 0.571180 0.863149
vt 0.569460 0.863149
vt 0.834961 0.781250
vt 0.835938 0.862305
vt 0.834961 0.862305
vt 0.578125 0.781250
vt 0.579102 0.862305
vt 0.578125 0.862305
vt 0.842860 0.780605
vt 0.844580 0.863149
vt 0.842860 0.863149
vt 0.554820 0.983276
vt 0.556540 0.981557
vt 0.556540 0.983276
vt 0.563369 0.983276
vt 0.565088 0.981557
vt 0.565088 0.983276
vt 0.586914 0.781250
vt 0.587891 0.862305
vt 0.586914 0.862305
vt 0.851562 0.781250
vt 0.852539 0.862305
vt 0.851562 0.862305
vt 0.595703 0.781250
vt 0.596680 0.862305
vt 0.595703 0.862305
vt 0.860352 0.781250
vt 0.861328 0.862305
vt 0.860352 0.862305
vt 0.537723 0.983276
vt 0.539443 0.981557
vt 0.539443 0.983276
vt 0.546272 0.983276
vt 0.547991 0.981557
vt 0.547991 0.983276
vt 0.603654 0.780605
vt 0.605374 0.863149
vt 0.603654 0.863149
vt 0.680665 0.826958
vt 0.682384 0.909502
vt 0.680665 0.909502
vt 0.612305 0.781250
vt 0.613281 0.862305
vt 0.612305 0.862305
vt 0.689453 0.827148
vt 0.690430 0.909180
vt 0.689453 0.909180
vt 0.800118 0.983276
vt 0.801838 0.981557
vt 0.801838 0.983276
vt 0.808666 0.983276
vt 0.810386 0.981557
vt 0.810386 0.983276
vt 0.800781 0.781250
vt 0.801758 0.862305
vt 0.800781 0.862305
vt 0.698242 0.827148
vt 0.699219 0.909180
vt 0.698242 0.909180
vt 0.808666 0.780605
vt 0.810386 0.863149
vt 0.808666 0.863149
vt 0.707031 0.827148
vt 0.708008 0.909180
vt 0.707031 0.909180
vt 0.817215 0.983276
vt 0.818935 0.981557
vt 0.818935 0.983276
vt 0.825763 0.983276
vt 0.827483 0.981557
vt 0.827483 0.983276
vt 0.416016 0.781250
vt 0.416992 0.890625
vt 0.416016 0.890625
vt 0.424805 0.781250
vt 0.425781 0.890625
vt 0.424805 0.890625
vt 0.432684 0.780605
vt 0.434403 0.890664
vt 0.432684 0.890664
vt 0.441406 0.781250
vt 0.442383 0.890625
vt 0.441406 0.890625
vt 0.615253 0.931442
vt 0.613533 0.929722
vt 0.615253 0.929722
vt 0.120117 0.960938
vt 0.119141 0.959961
vt 0.120117 0.959961
vt 0.450195 0.781250
vt 0.451172 0.890625
vt 0.450195 0.890625
vt 0.458984 0.781250
vt 0.459961 0.890625
vt 0.458984 0.890625
vt 0.466878 0.780605
vt 0.468597 0.890664
vt 0.466878 0.890664
vt 0.475586 0.781250
vt 0.476562 0.890625
vt 0.475586 0.890625
vt 0.120352 0.969619
vt 0.118632 0.967899
vt 0.120352 0.967899
vt 0.395295 0.981951
vt 0.393575 0.980231
vt 0.395295 0.980231
vt 0.723751 0.902574
vt 0.725127 0.885377
vt 0.725127 0.902574
vt 0.967115 0.911300
vt 0.968491 0.912675
vt 0.967115 0.912675
vt 0.613583 0.979887
vt 0.614959 0.962690
vt 0.614959 0.979887
vt 0.671623 0.968243
vt 0.672998 0.969619
vt 0.671623 0.969619
vt 0.989258 0.556641
vt 0.990234 0.540039
vt 0.990234 0.556641
vt 0.989258 0.580078
vt 0.990234 0.564453
vt 0.990234 0.580078
vt 0.857699 0.979887
vt 0.859075 0.962690
vt 0.859075 0.979887
vt 0.221807 0.986418
vt 0.223183 0.985043
vt 0.223183 0.986418
vt 0.982422 0.416016
vt 0.983398 0.400391
vt 0.983398 0.416016
vt 0.714859 0.986688
vt 0.716234 0.985312
vt 0.716234 0.986688
vt 0.989258 0.604492
vt 0.990234 0.587891
vt 0.990234 0.604492
vt 0.989258 0.628906
vt 0.990234 0.612305
vt 0.990234 0.628906
vt 0.248047 0.986328
vt 0.249023 0.969727
vt 0.249023 0.986328
vt 0.723063 0.986688
vt 0.724439 0.985312
vt 0.724439 0.986688
vt 0.475586 0.990234
vt 0.476562 0.973633
vt 0.476562 0.990234
vt 0.230261 0.987110
vt 0.231637 0.985734
vt 0.231637 0.987110
vt 0.990395 0.416746
vt 0.991770 0.399549
vt 0.991770 0.416746
vt 0.990548 0.887174
vt 0.991924 0.869978
vt 0.991924 0.887174
vt 0.990548 0.911200
vt 0.991924 0.894003
vt 0.991924 0.911200
vt 0.238466 0.987110
vt 0.239841 0.985734
vt 0.239841 0.987110
vt 0.272022 0.992956
vt 0.273397 0.975760
vt 0.273397 0.992956
vt 0.613583 0.988092
vt 0.614959 0.986716
vt 0.614959 0.988092
vt 0.993299 0.711718
vt 0.994675 0.694522
vt 0.994675 0.711718
vt 0.993299 0.735744
vt 0.994675 0.718547
vt 0.994675 0.735744
vt 0.993299 0.759769
vt 0.994675 0.742573
vt 0.994675 0.759769
vt 0.857699 0.988091
vt 0.859075 0.986716
vt 0.859075 0.988091
vt 0.993299 0.783795
vt 0.994675 0.766598
vt 0.994675 0.783795
vt 0.866592 0.988436
vt 0.867968 0.987060
vt 0.867968 0.988436
vt 0.993299 0.807820
vt 0.994675 0.790624
vt 0.994675 0.807820
vt 0.993299 0.831846
vt 0.994675 0.814649
vt 0.994675 0.831846
vt 0.993299 0.855872
vt 0.994675 0.838675
vt 0.994675 0.855872
vt 0.415587 0.989173
vt 0.416962 0.987797
vt 0.416962 0.989173
vt 0.994141 0.936523
vt 0.995117 0.919922
vt 0.995117 0.936523
vt 0.423791 0.989173
vt 0.425167 0.987797
vt 0.425167 0.989173
vt 0.994141 0.971680
vt 0.995117 0.956055
vt 0.995117 0.971680
vt 0.994675 0.673985
vt 0.996051 0.656789
vt 0.996051 0.673985
vt 0.994141 0.996094
vt 0.995117 0.979492
vt 0.995117 0.996094
vt 0.431996 0.989173
vt 0.433372 0.987797
vt 0.433372 0.989173
vt 0.995210 0.020611
vt 0.996586 0.003414
vt 0.996586 0.020611
vt 0.440200 0.989173
vt 0.441576 0.987797
vt 0.441576 0.989173
vt 0.995210 0.044637
vt 0.996586 0.027440
vt 0.996586 0.044637
vt 0.995210 0.068662
vt 0.996586 0.051465
vt 0.996586 0.068662
vt 0.995210 0.092688
vt 0.996586 0.075491
vt 0.996586 0.092688
vt 0.448405 0.989173
vt 0.449781 0.987797
vt 0.449781 0.989173
vt 0.995210 0.116713
vt 0.996586 0.099516
vt 0.996586 0.116713
vt 0.456610 0.989173
vt 0.457985 0.987797
vt 0.457985 0.989173
vt 0.995210 0.140739
vt 0.996586 0.123542
vt 0.996586 0.140739
vt 0.995210 0.164764
vt 0.996586 0.147567
vt 0.996586 0.164764
vt 0.995210 0.188790
vt 0.996586 0.171593
vt 0.996586 0.188790
vt 0.464814 0.989173
vt 0.466190 0.987797
vt 0.466190 0.989173
vt 0.995210 0.212815
vt 0.996586 0.195618
vt 0.996586 0.212815
vt 0.393575 0.990155
vt 0.394951 0.988779
vt 0.394951 0.990155
vt 0.995210 0.236841
vt 0.996586 0.219644
vt 0.996586 0.236841
vt 0.995210 0.260866
vt 0.996586 0.243670
vt 0.996586 0.260866
vt 0.942383 0.444336
vt 0.904297 0.444336
vt 0.950195 0.003906
vt 0.912109 0.003906
vt 0.003906 0.436523
vt 0.340820 0.436523
vt 0.322266 0.781250
vt 0.677734 0.003906
vt 0.339844 0.781250
vt 0.003906 0.444336
vt 0.860352 0.436523
vt 0.783203 0.876953
vt 0.127930 0.444336
vt 0.356445 0.781250
vt 0.250977 0.444336
vt 0.374023 0.781250
vt 0.800781 0.444336
vt 0.817383 0.444336
vt 0.375000 0.444336
vt 0.391602 0.781250
vt 0.499023 0.444336
vt 0.408203 0.781250
vt 0.834961 0.444336
vt 0.851562 0.444336
vt 0.942383 0.423828
vt 0.869141 0.444336
vt 0.396484 0.940430
vt 0.876953 0.003906
vt 0.933594 0.855469
vt 0.941406 0.416016
vt 0.960938 0.003906
vt 0.672852 0.956055
vt 0.960938 0.216797
vt 0.775391 0.648438
vt 0.973633 0.223633
vt 0.967773 0.444336
vt 0.960938 0.430664
vt 0.967773 0.657227
vt 0.974609 0.003906
vt 0.980469 0.444336
vt 0.765625 0.648438
vt 0.716797 0.827148
vt 0.765625 0.731445
vt 0.231445 0.863281
vt 0.873047 0.906250
vt 0.950195 0.399414
vt 0.171875 0.781250
vt 0.485352 0.781250
vt 0.222656 0.781250
vt 0.494141 0.781250
vt 0.475586 0.898438
vt 0.407227 0.905273
vt 0.615234 0.906250
vt 0.990234 0.444336
vt 0.120117 0.935547
vt 0.990234 0.467773
vt 0.205299 0.981557
vt 0.834312 0.981557
vt 0.264648 0.781250
vt 0.241211 0.863281
vt 0.305664 0.781250
vt 0.250000 0.863281
vt 0.286133 0.934570
vt 0.967773 0.870117
vt 0.724609 0.648438
vt 0.502791 0.780605
vt 0.724609 0.738281
vt 0.510742 0.781250
vt 0.119141 0.883789
vt 0.773438 0.883789
vt 0.249023 0.946289
vt 0.990234 0.492188
vt 0.476562 0.949219
vt 0.990234 0.516602
vt 0.843304 0.981557
vt 0.213867 0.985352
vt 0.599609 0.906250
vt 0.356445 0.961914
vt 0.800781 0.906250
vt 0.371094 0.961914
vt 0.257812 0.863281
vt 0.276367 0.863281
vt 0.089844 0.919922
vt 0.141602 0.962891
vt 0.104492 0.919922
vt 0.156250 0.962891
vt 0.127930 0.870117
vt 0.146484 0.870117
vt 0.623047 0.919922
vt 0.170898 0.962891
vt 0.636719 0.919922
vt 0.185547 0.962891
vt 0.165039 0.870117
vt 0.184570 0.870117
vt 0.651367 0.919922
vt 0.199219 0.962891
vt 0.666016 0.919922
vt 0.484375 0.962891
vt 0.203125 0.870117
vt 0.484375 0.870117
vt 0.815430 0.906250
vt 0.499023 0.962891
vt 0.829102 0.906250
vt 0.513672 0.962891
vt 0.502930 0.870117
vt 0.522461 0.870117
vt 0.484375 0.906250
vt 0.933594 0.863281
vt 0.499023 0.906250
vt 0.313477 0.961914
vt 0.541016 0.870117
vt 0.561523 0.870117
vt 0.843750 0.906250
vt 0.230469 0.967773
vt 0.858398 0.906250
vt 0.867188 0.968750
vt 0.623047 0.883789
vt 0.641602 0.883789
vt 0.782227 0.919922
vt 0.416016 0.969727
vt 0.881836 0.919922
vt 0.430664 0.969727
vt 0.660156 0.883789
vt 0.782227 0.883789
vt 0.896484 0.919922
vt 0.829102 0.962891
vt 0.911133 0.919922
vt 0.843750 0.962891
vt 0.881836 0.883789
vt 0.901367 0.883789
vt 0.925781 0.919922
vt 0.445312 0.969727
vt 0.939453 0.919922
vt 0.458984 0.969727
vt 0.416016 0.898438
vt 0.434570 0.898438
vt 0.715820 0.910156
vt 0.257812 0.970703
vt 0.681641 0.916992
vt 0.976562 0.870117
vt 0.454102 0.898438
vt 0.257812 0.899414
vt 0.513672 0.906250
vt 0.976562 0.889648
vt 0.527344 0.906250
vt 0.681641 0.973633
vt 0.276367 0.899414
vt 0.732422 0.903320
vt 0.695312 0.916992
vt 0.695312 0.973633
vt 0.938477 0.883789
vt 0.294922 0.974609
vt 0.751953 0.903320
vt 0.919922 0.883789
vt 0.953125 0.883789
vt 0.732422 0.974609
vt 0.954102 0.919922
vt 0.747070 0.974609
vt 0.313477 0.905273
vt 0.332031 0.905273
vt 0.416016 0.933594
vt 0.213867 0.966797
vt 0.430664 0.933594
vt 0.715820 0.966797
vt 0.350586 0.905273
vt 0.370117 0.905273
vt 0.445312 0.933594
vt 0.761719 0.974609
vt 0.458984 0.933594
vt 0.980469 0.956055
vt 0.388672 0.905273
vt 0.127930 0.906250
vt 0.003906 0.919922
vt 0.980469 0.974609
vt 0.018555 0.919922
vt 0.280273 0.976562
vt 0.146484 0.906250
vt 0.165039 0.906250
vt 0.541992 0.906250
vt 0.980469 0.657227
vt 0.556641 0.906250
vt 0.980469 0.675781
vt 0.184570 0.906250
vt 0.203125 0.906250
vt 0.032227 0.919922
vt 0.384766 0.961914
vt 0.046875 0.919922
vt 0.127930 0.962891
vt 0.580078 0.870117
vt 0.599609 0.870117
vt 0.257812 0.934570
vt 0.527344 0.962891
vt 0.271484 0.934570
vt 0.541992 0.962891
vt 0.800781 0.870117
vt 0.819336 0.870117
vt 0.294922 0.938477
vt 0.556641 0.962891
vt 0.732422 0.938477
vt 0.571289 0.962891
vt 0.837891 0.870117
vt 0.857422 0.870117
vt 0.747070 0.938477
vt 0.584961 0.962891
vt 0.761719 0.938477
vt 0.599609 0.962891
vt 0.003906 0.883789
vt 0.022461 0.883789
vt 0.061523 0.919922
vt 0.800781 0.962891
vt 0.076172 0.919922
vt 0.815430 0.962891
vt 0.041992 0.883789
vt 0.060547 0.883789
vt 0.571289 0.906250
vt 0.327148 0.961914
vt 0.584961 0.906250
vt 0.341797 0.961914
vt 0.079102 0.883789
vt 0.098633 0.883789
vt 0.723751 0.826958
vt 0.952227 0.443600
vt 0.950010 0.340420
vt 0.959743 0.443600
vt 0.801758 0.436523
vt 0.623047 0.876953
vt 0.968750 0.941406
vt 0.914062 0.444336
vt 0.976562 0.908203
vt 0.922852 0.003906
vt 0.881836 0.876953
vt 0.890625 0.436523
vt 0.510742 0.982422
vt 0.923828 0.444336
vt 0.520508 0.982422
vt 0.931641 0.003906
vt 0.893555 0.876953
vt 0.901367 0.436523
vt 0.221680 0.870117
vt 0.295898 0.930664
vt 0.942383 0.781250
vt 0.303711 0.863281
vt 0.734375 0.444336
vt 0.746094 0.447266
vt 0.756836 0.454102
vt 0.766602 0.462891
vt 0.772461 0.473633
vt 0.775391 0.485352
vt 0.775391 0.497070
vt 0.766602 0.520508
vt 0.756836 0.529297
vt 0.746094 0.535156
vt 0.734375 0.539062
vt 0.722656 0.539062
vt 0.710938 0.535156
vt 0.699219 0.529297
vt 0.684570 0.508789
vt 0.681641 0.497070
vt 0.681641 0.485352
vt 0.684570 0.473633
vt 0.690430 0.462891
vt 0.699219 0.454102
vt 0.710938 0.447266
vt 0.746094 0.549805
vt 0.756836 0.555664
vt 0.766602 0.564453
vt 0.772461 0.576172
vt 0.775391 0.587891
vt 0.775391 0.599609
vt 0.772461 0.611328
vt 0.756836 0.631836
vt 0.746094 0.637695
vt 0.734375 0.640625
vt 0.722656 0.640625
vt 0.710938 0.637695
vt 0.699219 0.631836
vt 0.690430 0.622070
vt 0.681641 0.599609
vt 0.681641 0.587891
vt 0.684570 0.576172
vt 0.690430 0.564453
vt 0.699219 0.555664
vt 0.710938 0.549805
vt 0.722656 0.546875
vt 0.965820 0.976562
vt 0.003906 0.956055
vt 0.408203 0.977539
vt 0.020508 0.956055
vt 0.868164 0.960938
vt 0.915039 0.968750
vt 0.988281 0.192383
vt 0.534180 0.955078
vt 0.988281 0.208008
vt 0.387695 0.954102
vt 0.876953 0.436523
vt 0.980469 0.708008
vt 0.373047 0.980469
vt 0.160156 0.955078
vt 0.386719 0.980469
vt 0.185547 0.955078
vt 0.003906 0.987305
vt 0.016602 0.987305
vt 0.988281 0.423828
vt 0.193359 0.942383
vt 0.127930 0.989258
vt 0.493164 0.942383
vt 0.035156 0.976562
vt 0.042969 0.987305
vt 0.775391 0.868164
vt 0.330078 0.954102
vt 0.982422 0.167969
vt 0.354492 0.954102
vt 0.986328 0.715820
vt 0.982422 0.119141
vt 0.913086 0.976562
vt 0.550781 0.942383
vt 0.920898 0.985352
vt 0.575195 0.955078
vt 0.958984 0.956055
vt 0.403320 0.969727
vt 0.988281 0.224609
vt 0.037109 0.956055
vt 0.982422 0.248047
vt 0.061523 0.968750
vt 0.988281 0.024414
vt 0.982422 0.057617
vt 0.145508 0.982422
vt 0.500977 0.955078
vt 0.153320 0.989258
vt 0.526367 0.955078
vt 0.900391 0.976562
vt 0.055664 0.987305
vt 0.981445 0.947266
vt 0.313477 0.954102
vt 0.313477 0.987305
vt 0.371094 0.954102
vt 0.069336 0.987305
vt 0.083008 0.987305
vt 0.982422 0.264648
vt 0.127930 0.955078
vt 0.982422 0.184570
vt 0.152344 0.955078
vt 0.982422 0.078125
vt 0.980469 0.831055
vt 0.982422 0.135742
vt 0.078125 0.968750
vt 0.982422 0.152344
vt 0.094727 0.968750
vt 0.927734 0.968750
vt 0.941406 0.968750
vt 0.982422 0.295898
vt 0.809570 0.955078
vt 0.982422 0.280273
vt 0.817383 0.942383
vt 0.980469 0.749023
vt 0.980469 0.769531
vt 0.179688 0.989258
vt 0.841797 0.955078
vt 0.192383 0.989258
vt 0.898438 0.956055
vt 0.095703 0.987305
vt 0.108398 0.987305
vt 0.171875 0.982422
vt 0.111328 0.968750
vt 0.327148 0.987305
vt 0.623047 0.968750
vt 0.782227 0.987305
vt 0.627930 0.976562
vt 0.988281 0.303711
vt 0.858398 0.942383
vt 0.982422 0.328125
vt 0.213867 0.945312
vt 0.980469 0.851562
vt 0.987305 0.919922
vt 0.939453 0.976562
vt 0.647461 0.968750
vt 0.947266 0.985352
vt 0.655273 0.956055
vt 0.966797 0.968750
vt 0.973633 0.919922
vt 0.988281 0.335938
vt 0.723633 0.958984
vt 0.982422 0.392578
vt 0.230469 0.946289
vt 0.982422 0.016602
vt 0.988281 0.085938
vt 0.347656 0.980469
vt 0.790039 0.956055
vt 0.355469 0.987305
vt 0.881836 0.956055
vt 0.881836 0.987305
vt 0.640625 0.976562
vt 0.489258 0.982422
vt 0.591797 0.955078
vt 0.502930 0.982422
vt 0.599609 0.942383
vt 0.648438 0.987305
vt 0.662109 0.987305
vt 0.988281 0.352539
vt 0.689453 0.965820
vt 0.988281 0.368164
vt 0.697266 0.952148
vt 0.980469 0.790039
vt 0.980469 0.810547
vt 0.519531 0.781250
vt 0.733398 0.813477
vt 0.528320 0.781250
vt 0.742188 0.813477
vt 0.571917 0.981557
vt 0.580466 0.981557
vt 0.536986 0.780605
vt 0.750977 0.813477
vt 0.544922 0.781250
vt 0.759570 0.813201
vt 0.589014 0.981557
vt 0.599188 0.981557
vt 0.553711 0.781250
vt 0.818359 0.781250
vt 0.562500 0.781250
vt 0.827148 0.781250
vt 0.980469 0.859375
vt 0.529175 0.981557
vt 0.571180 0.780605
vt 0.835938 0.781250
vt 0.579102 0.781250
vt 0.844580 0.780605
vt 0.554820 0.981557
vt 0.563369 0.981557
vt 0.587891 0.781250
vt 0.852539 0.781250
vt 0.596680 0.781250
vt 0.861328 0.781250
vt 0.537723 0.981557
vt 0.546272 0.981557
vt 0.605374 0.780605
vt 0.682384 0.826958
vt 0.613281 0.781250
vt 0.690430 0.827148
vt 0.800118 0.981557
vt 0.808666 0.981557
vt 0.801758 0.781250
vt 0.699219 0.827148
vt 0.810386 0.780605
vt 0.708008 0.827148
vt 0.817215 0.981557
vt 0.825763 0.981557
vt 0.416992 0.781250
vt 0.425781 0.781250
vt 0.434403 0.780605
vt 0.442383 0.781250
vt 0.613533 0.931442
vt 0.119141 0.960938
vt 0.451172 0.781250
vt 0.459961 0.781250
vt 0.468597 0.780605
vt 0.476562 0.781250
vt 0.118632 0.969619
vt 0.393575 0.981951
vt 0.723751 0.885377
vt 0.968491 0.911300
vt 0.613583 0.962690
vt 0.672998 0.968243
vt 0.989258 0.540039
vt 0.989258 0.564453
vt 0.857699 0.962690
vt 0.221807 0.985043
vt 0.982422 0.400391
vt 0.714859 0.985312
vt 0.989258 0.587891
vt 0.989258 0.612305
vt 0.248047 0.969727
vt 0.723063 0.985312
vt 0.475586 0.973633
vt 0.230261 0.985734
vt 0.990395 0.399549
vt 0.990548 0.869978
vt 0.990548 0.894003
vt 0.238466 0.985734
vt 0.272022 0.975760
vt 0.613583 0.986716
vt 0.993299 0.694522
vt 0.993299 0.718547
vt 0.993299 0.742573
vt 0.857699 0.986716
vt 0.993299 0.766598
vt 0.866592 0.987060
vt 0.993299 0.790624
vt 0.993299 0.814649
vt 0.993299 0.838675
vt 0.415587 0.987797
vt 0.994141 0.919922
vt 0.423791 0.987797
vt 0.994141 0.956055
vt 0.994675 0.656789
vt 0.994141 0.979492
vt 0.431996 0.987797
vt 0.995210 0.003414
vt 0.440200 0.987797
vt 0.995210 0.027440
vt 0.995210 0.051465
vt 0.995210 0.075491
vt 0.448405 0.987797
vt 0.995210 0.099516
vt 0.456610 0.987797
vt 0.995210 0.123542
vt 0.995210 0.147567
vt 0.995210 0.171593
vt 0.464814 0.987797
vt 0.995210 0.195618
vt 0.393575 0.988779
vt 0.995210 0.219644
vt 0.995210 0.243670
s 0
g pe_sewer_deep_render_EnvironmentBakedAtlas
usemtl EnvironmentBakedAtlas
f 2/1/1 3/2/1 1/3/1
f 4/4/2 7/5/2 3/6/2
f 8/7/3 5/8/3 7/9/3
f 6/10/4 1/11/4 5/12/4
f 7/13/5 1/14/5 3/15/5
f 4/16/6 6/17/6 8/18/6
f 10/19/1 11/20/1 9/21/1
f 12/22/2 15/23/2 11/24/2
f 16/25/3 13/26/3 15/27/3
f 14/28/4 9/29/4 13/30/4
f 15/31/5 9/32/5 11/33/5
f 12/34/6 14/35/6 16/36/6
f 18/37/1 19/38/1 17/39/1
f 20/40/2 23/41/2 19/42/2
f 24/43/3 21/44/3 23/45/3
f 22/46/4 17/47/4 21/48/4
f 23/49/5 17/50/5 19/51/5
f 20/52/6 22/53/6 24/54/6
f 26/55/1 27/56/1 25/57/1
f 28/58/2 31/59/2 27/60/2
f 32/61/3 29/62/3 31/63/3
f 30/64/4 25/65/4 29/66/4
f 31/67/5 25/68/5 27/69/5
f 28/70/6 30/71/6 32/72/6
f 34/73/1 35/74/1 33/75/1
f 36/76/2 39/77/2 35/78/2
f 40/79/3 37/80/3 39/81/3
f 38/82/4 33/83/4 37/84/4
f 39/85/5 33/86/5 35/87/5
f 36/88/6 38/89/6 40/90/6
f 42/91/1 43/92/1 41/93/1
f 44/94/2 47/95/2 43/96/2
f 48/97/3 45/98/3 47/99/3
f 46/100/4 41/101/4 45/102/4
f 47/103/5 41/101/5 43/104/5
f 44/105/6 46/106/6 48/107/6
f 50/108/1 51/109/1 49/110/1
f 52/111/2 55/112/2 51/113/2
f 56/114/3 53/115/3 55/116/3
f 54/117/4 49/118/4 53/119/4
f 55/120/5 49/118/5 51/121/5
f 52/122/6 54/123/6 56/124/6
f 58/125/1 59/126/1 57/127/1
f 60/128/2 63/129/2 59/130/2
f 64/131/3 61/132/3 63/133/3
f 62/134/4 57/135/4 61/136/4
f 63/137/5 57/138/5 59/139/5
f 60/140/6 62/141/6 64/142/6
f 66/143/1 67/144/1 65/145/1
f 68/146/2 71/147/2 67/148/2
f 72/149/3 69/150/3 71/151/3
f 70/152/4 65/153/4 69/154/4
f 71/155/5 65/156/5 67/157/5
f 68/158/6 70/159/6 72/160/6
f 74/161/1 75/162/1 73/163/1
f 76/164/2 79/165/2 75/166/2
f 80/167/3 77/168/3 79/169/3
f 78/170/4 73/171/4 77/172/4
f 79/173/5 73/174/5 75/175/5
f 76/176/6 78/177/6 80/178/6
f 82/179/1 83/180/1 81/181/1
f 84/182/2 87/183/2 83/184/2
f 88/185/3 85/186/3 87/187/3
f 86/188/4 81/189/4 85/190/4
f 87/191/5 81/192/5 83/193/5
f 84/194/6 86/195/6 88/196/6
f 90/197/1 91/198/1 89/199/1
f 92/200/2 95/201/2 91/202/2
f 96/203/3 93/204/3 95/205/3
f 94/206/4 89/207/4 93/208/4
f 95/209/5 89/210/5 91/211/5
f 92/212/6 94/213/6 96/214/6
f 98/215/1 99/216/1 97/217/1
f 100/218/2 103/219/2 99/220/2
f 104/221/3 101/222/3 103/223/3
f 102/224/4 97/225/4 101/226/4
f 103/227/5 97/228/5 99/229/5
f 100/230/6 102/231/6 104/232/6
f 106/233/1 107/234/1 105/235/1
f 108/236/2 111/237/2 107/238/2
f 112/239/3 109/240/3 111/241/3
f 110/242/4 105/243/4 109/244/4
f 111/245/5 105/246/5 107/247/5
f 108/248/6 110/249/6 112/250/6
f 114/251/1 115/252/1 113/253/1
f 116/254/2 119/255/2 115/256/2
f 120/257/3 117/258/3 119/259/3
f 118/260/4 113/261/4 117/262/4
f 119/263/5 113/264/5 115/265/5
f 116/266/6 118/267/6 120/268/6
f 122/269/1 123/270/1 121/271/1
f 124/272/2 127/273/2 123/274/2
f 128/275/3 125/276/3 127/277/3
f 126/278/4 121/279/4 125/280/4
f 127/281/5 121/282/5 123/283/5
f 124/284/6 126/285/6 128/286/6
f 130/287/1 131/288/1 129/289/1
f 132/290/2 135/291/2 131/292/2
f 136/293/3 133/294/3 135/295/3
f 134/296/4 129/297/4 133/298/4
f 135/299/5 129/300/5 131/301/5
f 132/302/6 134/303/6 136/304/6
f 138/305/1 139/306/1 137/307/1
f 140/308/2 143/309/2 139/310/2
f 144/311/3 141/312/3 143/313/3
f 142/314/4 137/315/4 141/316/4
f 143/317/5 137/318/5 139/319/5
f 140/320/6 142/321/6 144/322/6
f 146/323/1 147/324/1 145/325/1
f 148/326/2 151/327/2 147/328/2
f 152/329/3 149/330/3 151/331/3
f 150/332/4 145/333/4 149/334/4
f 151/335/5 145/336/5 147/337/5
f 148/338/6 150/339/6 152/340/6
f 154/341/1 155/342/1 153/343/1
f 156/344/2 159/345/2 155/346/2
f 160/347/3 157/348/3 159/349/3
f 158/350/4 153/351/4 157/352/4
f 159/353/5 153/354/5 155/355/5
f 156/356/6 158/357/6 160/358/6
f 162/359/1 163/360/1 161/361/1
f 164/362/2 167/363/2 163/364/2
f 168/365/3 165/366/3 167/367/3
f 166/368/4 161/369/4 165/370/4
f 167/371/5 161/372/5 163/373/5
f 164/374/6 166/375/6 168/376/6
f 170/377/1 171/378/1 169/379/1
f 172/380/2 175/381/2 171/382/2
f 176/383/3 173/384/3 175/385/3
f 174/386/4 169/387/4 173/388/4
f 175/389/5 169/390/5 171/391/5
f 172/392/6 174/393/6 176/394/6
f 178/395/1 179/396/1 177/397/1
f 180/398/2 183/399/2 179/400/2
f 184/401/3 181/402/3 183/403/3
f 182/404/4 177/405/4 181/406/4
f 183/407/5 177/408/5 179/409/5
f 180/410/6 182/411/6 184/412/6
f 186/413/1 187/414/1 185/415/1
f 188/416/2 191/417/2 187/418/2
f 192/419/3 189/420/3 191/421/3
f 190/422/4 185/423/4 189/424/4
f 191/425/5 185/426/5 187/427/5
f 188/428/6 190/429/6 192/430/6
f 194/431/1 195/432/1 193/433/1
f 196/434/2 199/435/2 195/436/2
f 200/437/3 197/438/3 199/439/3
f 198/440/4 193/441/4 197/442/4
f 199/443/5 193/444/5 195/445/5
f 196/446/6 198/447/6 200/448/6
f 202/449/1 203/450/1 201/451/1
f 204/452/2 207/453/2 203/454/2
f 208/455/3 205/456/3 207/457/3
f 206/458/4 201/459/4 205/460/4
f 207/461/5 201/462/5 203/463/5
f 204/464/6 206/465/6 208/466/6
f 210/467/1 211/468/1 209/469/1
f 212/470/2 215/471/2 211/472/2
f 216/473/3 213/474/3 215/475/3
f 214/476/4 209/477/4 213/478/4
f 215/479/5 209/480/5 211/481/5
f 212/482/6 214/483/6 216/484/6
f 218/485/1 219/486/1 217/487/1
f 220/488/2 223/489/2 219/490/2
f 224/491/3 221/492/3 223/493/3
f 222/494/4 217/495/4 221/496/4
f 223/497/5 217/498/5 219/499/5
f 220/500/6 222/501/6 224/502/6
f 226/503/1 227/504/1 225/505/1
f 228/506/2 231/507/2 227/508/2
f 232/509/3 229/510/3 231/511/3
f 230/512/4 225/513/4 229/514/4
f 231/515/5 225/516/5 227/517/5
f 228/518/6 230/519/6 232/520/6
f 234/521/1 235/522/1 233/523/1
f 236/524/2 239/525/2 235/526/2
f 240/527/3 237/528/3 239/529/3
f 238/530/4 233/531/4 237/532/4
f 239/533/5 233/534/5 235/535/5
f 236/536/6 238/537/6 240/538/6
f 242/539/1 243/540/1 241/541/1
f 244/542/2 247/543/2 243/544/2
f 248/545/3 245/546/3 247/547/3
f 246/548/4 241/549/4 245/550/4
f 247/551/5 241/552/5 243/553/5
f 244/554/6 246/555/6 248/556/6
f 250/557/1 251/558/1 249/559/1
f 252/560/2 255/561/2 251/562/2
f 256/563/3 253/564/3 255/565/3
f 254/566/4 249/567/4 253/568/4
f 255/569/5 249/570/5 251/571/5
f 252/572/6 254/573/6 256/574/6
f 258/575/1 259/576/1 257/577/1
f 260/578/2 263/579/2 259/580/2
f 264/581/3 261/582/3 263/583/3
f 262/584/4 257/585/4 261/586/4
f 263/587/5 257/588/5 259/589/5
f 260/590/6 262/591/6 264/592/6
f 266/593/1 267/594/1 265/595/1
f 268/596/2 271/597/2 267/598/2
f 272/599/3 269/600/3 271/601/3
f 270/602/4 265/603/4 269/604/4
f 271/605/5 265/606/5 267/607/5
f 268/608/6 270/609/6 272/610/6
f 274/611/1 275/612/1 273/613/1
f 276/614/2 279/615/2 275/616/2
f 280/617/3 277/618/3 279/619/3
f 278/620/4 273/621/4 277/622/4
f 279/623/5 273/624/5 275/625/5
f 276/626/6 278/627/6 280/628/6
f 282/629/1 283/630/1 281/631/1
f 284/632/2 287/633/2 283/634/2
f 288/635/3 285/636/3 287/637/3
f 286/638/4 281/639/4 285/640/4
f 287/641/5 281/642/5 283/643/5
f 284/644/6 286/645/6 288/646/6
f 290/647/1 291/648/1 289/649/1
f 292/650/2 295/651/2 291/652/2
f 296/653/3 293/654/3 295/655/3
f 294/656/4 289/657/4 293/658/4
f 295/659/5 289/660/5 291/661/5
f 292/662/6 294/663/6 296/664/6
f 298/665/1 299/666/1 297/667/1
f 300/668/2 303/669/2 299/670/2
f 304/671/3 301/672/3 303/673/3
f 302/674/4 297/675/4 301/676/4
f 303/677/5 297/678/5 299/679/5
f 300/680/6 302/681/6 304/682/6
f 306/683/1 307/684/1 305/685/1
f 308/686/2 311/687/2 307/688/2
f 312/689/3 309/690/3 311/691/3
f 310/692/4 305/693/4 309/694/4
f 311/695/5 305/696/5 307/697/5
f 308/698/6 310/699/6 312/700/6
f 314/701/1 315/702/1 313/703/1
f 316/704/2 319/705/2 315/706/2
f 320/707/3 317/708/3 319/709/3
f 318/710/4 313/711/4 317/712/4
f 319/713/5 313/714/5 315/715/5
f 316/716/6 318/717/6 320/718/6
f 322/719/7 323/720/7 321/721/7
f 324/722/8 325/723/8 323/720/8
f 326/724/9 327/725/9 325/723/9
f 328/726/10 329/727/10 327/728/10
f 330/729/11 331/730/11 329/727/11
f 332/731/12 333/732/12 331/730/12
f 334/733/13 335/734/13 333/732/13
f 336/735/14 337/736/14 335/734/14
f 338/737/15 339/738/15 337/736/15
f 340/739/16 341/740/16 339/741/16
f 342/742/17 343/743/17 341/740/17
f 344/744/18 345/745/18 343/743/18
f 346/746/19 347/747/19 345/745/19
f 348/748/20 349/749/20 347/747/20
f 350/750/21 351/751/21 349/749/21
f 352/752/22 353/753/22 351/754/22
f 354/755/23 355/756/23 353/753/23
f 356/757/24 357/758/24 355/756/24
f 358/759/25 359/760/25 357/758/25
f 360/761/26 361/762/26 359/760/26
f 362/763/27 363/764/27 361/762/27
f 364/765/28 365/766/28 363/767/28
f 358/768/4 342/769/4 326/770/4
f 366/771/29 367/772/29 365/766/29
f 368/773/30 321/721/30 367/772/30
f 335/774/2 351/775/2 367/776/2
f 370/777/1 371/778/1 369/779/1
f 372/780/2 375/781/2 371/782/2
f 376/783/3 373/784/3 375/785/3
f 374/786/4 369/787/4 373/788/4
f 375/789/5 369/790/5 371/791/5
f 372/792/6 374/793/6 376/794/6
f 378/795/31 379/796/31 377/797/31
f 379/798/2 384/799/2 383/800/2
f 384/801/32 381/802/32 383/803/32
f 382/804/4 377/805/4 381/806/4
f 383/807/33 377/808/33 379/809/33
f 380/810/34 382/811/34 384/812/34
f 386/813/35 387/814/35 385/815/35
f 387/816/2 392/817/2 391/818/2
f 392/819/36 389/820/36 391/821/36
f 390/822/4 385/823/4 389/824/4
f 391/825/37 385/826/37 387/827/37
f 388/828/38 390/829/38 392/830/38
f 394/831/39 395/832/39 393/833/39
f 396/834/2 399/835/2 395/836/2
f 400/837/40 397/838/40 399/839/40
f 397/840/4 394/841/4 393/842/4
f 399/843/41 393/844/41 395/845/41
f 396/846/42 398/847/42 400/848/42
f 402/849/43 403/850/43 401/851/43
f 403/852/2 408/853/2 407/854/2
f 408/855/44 405/856/44 407/857/44
f 406/858/4 401/859/4 405/860/4
f 407/861/45 401/862/45 403/863/45
f 404/864/46 406/865/46 408/866/46
f 410/867/5 411/868/5 409/869/5
f 412/870/2 415/871/2 411/872/2
f 416/873/6 413/874/6 415/875/6
f 414/876/4 409/877/4 413/878/4
f 415/879/3 409/880/3 411/881/3
f 412/882/1 414/883/1 416/884/1
f 418/885/33 419/886/33 417/887/33
f 420/888/2 423/889/2 419/890/2
f 424/891/34 421/892/34 423/893/34
f 422/894/4 417/895/4 421/896/4
f 423/897/32 417/898/32 419/899/32
f 420/900/31 422/901/31 424/902/31
f 426/903/37 427/904/37 425/905/37
f 427/906/2 432/907/2 431/908/2
f 432/909/38 429/910/38 431/911/38
f 430/912/4 425/913/4 429/914/4
f 431/915/36 425/916/36 427/917/36
f 428/918/35 430/919/35 432/920/35
f 434/921/41 435/922/41 433/923/41
f 435/924/2 440/925/2 439/926/2
f 440/927/42 437/928/42 439/929/42
f 438/930/4 433/931/4 437/932/4
f 439/933/40 433/934/40 435/935/40
f 436/936/39 438/937/39 440/938/39
f 442/939/45 443/940/45 441/941/45
f 443/942/2 448/943/2 447/944/2
f 448/945/46 445/946/46 447/947/46
f 446/948/4 441/949/4 445/950/4
f 447/951/44 441/952/44 443/953/44
f 444/954/43 446/955/43 448/956/43
f 450/957/3 451/958/3 449/959/3
f 452/960/2 455/961/2 451/962/2
f 456/963/1 453/964/1 455/965/1
f 454/966/4 449/967/4 453/968/4
f 455/969/6 449/970/6 451/971/6
f 452/972/5 454/973/5 456/974/5
f 458/975/32 459/976/32 457/977/32
f 460/978/2 463/979/2 459/980/2
f 464/981/31 461/982/31 463/983/31
f 462/984/4 457/985/4 461/986/4
f 463/987/34 457/988/34 459/989/34
f 460/990/33 462/991/33 464/992/33
f 466/993/36 467/994/36 465/995/36
f 468/996/2 471/997/2 467/998/2
f 472/999/35 469/1000/35 471/1001/35
f 470/1002/4 465/1003/4 469/1004/4
f 471/1005/38 465/1006/38 467/1007/38
f 468/1008/37 470/1009/37 472/1010/37
f 474/1011/40 475/1012/40 473/1013/40
f 476/1014/2 479/1015/2 475/1016/2
f 480/1017/39 477/1018/39 479/1019/39
f 477/1020/4 474/1021/4 473/1022/4
f 479/1023/42 473/1024/42 475/1025/42
f 476/1026/41 478/1027/41 480/1028/41
f 482/1029/44 483/1030/44 481/1031/44
f 483/1032/2 488/1033/2 487/1034/2
f 488/1035/43 485/1036/43 487/1037/43
f 486/1038/4 481/1039/4 485/1040/4
f 487/1041/46 481/1042/46 483/1043/46
f 484/1044/45 486/1045/45 488/1046/45
f 490/1047/6 491/1048/6 489/1049/6
f 492/1050/2 495/1051/2 491/1052/2
f 496/1053/5 493/1054/5 495/1055/5
f 494/1056/4 489/1057/4 493/1058/4
f 495/1059/1 489/1060/1 491/1061/1
f 492/1062/3 494/1063/3 496/1064/3
f 498/1065/34 499/1066/34 497/1067/34
f 500/1068/2 503/1069/2 499/1070/2
f 504/1071/33 501/1072/33 503/1073/33
f 502/1074/4 497/1075/4 501/1076/4
f 503/1077/31 497/1078/31 499/1079/31
f 500/1080/32 502/1081/32 504/1082/32
f 506/1083/38 507/1084/38 505/1085/38
f 507/1086/2 512/1087/2 511/1088/2
f 512/1089/37 509/1090/37 511/1091/37
f 510/1092/4 505/1093/4 509/1094/4
f 511/1095/35 505/1096/35 507/1097/35
f 508/1098/36 510/1099/36 512/1100/36
f 514/1101/42 515/1102/42 513/1103/42
f 516/1104/2 519/1105/2 515/1106/2
f 520/1107/41 517/1108/41 519/1109/41
f 518/1110/4 513/1111/4 517/1112/4
f 519/1113/39 513/1114/39 515/1115/39
f 516/1116/40 518/1117/40 520/1118/40
f 522/1119/46 523/1120/46 521/1121/46
f 524/1122/2 527/1123/2 523/1124/2
f 528/1125/45 525/1126/45 527/1127/45
f 526/1128/4 521/1129/4 525/1130/4
f 527/1131/43 521/1132/43 523/1133/43
f 524/1134/44 526/1135/44 528/1136/44
f 530/1137/1 531/1138/1 529/1139/1
f 532/1140/2 535/1141/2 531/1142/2
f 536/1143/3 533/1144/3 535/1145/3
f 534/1146/4 529/1147/4 533/1148/4
f 535/1149/5 529/1150/5 531/1151/5
f 532/1152/6 534/1153/6 536/1154/6
f 538/1155/1 539/1156/1 537/1157/1
f 540/1158/2 543/1159/2 539/1160/2
f 544/1161/3 541/1162/3 543/1163/3
f 542/1164/4 537/1165/4 541/1166/4
f 543/1167/5 537/1168/5 539/1169/5
f 540/1170/6 542/1171/6 544/1172/6
f 546/1173/1 547/1174/1 545/1175/1
f 548/1176/2 551/1177/2 547/1178/2
f 552/1179/3 549/1180/3 551/1181/3
f 550/1182/4 545/1183/4 549/1184/4
f 551/1185/5 545/1186/5 547/1187/5
f 548/1188/6 550/1189/6 552/1190/6
f 554/1191/1 555/1192/1 553/1193/1
f 556/1194/2 559/1195/2 555/1196/2
f 560/1197/3 557/1198/3 559/1199/3
f 558/1200/4 553/1201/4 557/1202/4
f 559/1203/5 553/1204/5 555/1205/5
f 556/1206/6 558/1207/6 560/1208/6
f 562/1209/1 563/1210/1 561/1211/1
f 564/1212/2 567/1213/2 563/1214/2
f 568/1215/3 565/1216/3 567/1217/3
f 566/1218/4 561/1219/4 565/1220/4
f 567/1221/5 561/1222/5 563/1223/5
f 564/1224/6 566/1225/6 568/1226/6
f 570/1227/1 571/1228/1 569/1229/1
f 572/1230/2 575/1231/2 571/1232/2
f 576/1233/3 573/1234/3 575/1235/3
f 574/1236/4 569/1237/4 573/1238/4
f 575/1239/5 569/1240/5 571/1241/5
f 572/1242/6 574/1243/6 576/1244/6
f 578/1245/1 579/1246/1 577/1247/1
f 580/1248/2 583/1249/2 579/1250/2
f 584/1251/3 581/1252/3 583/1253/3
f 582/1254/4 577/1255/4 581/1256/4
f 583/1257/5 577/1258/5 579/1259/5
f 580/1260/6 582/1261/6 584/1262/6
f 586/1263/1 587/1264/1 585/1265/1
f 588/1266/2 591/1267/2 587/1268/2
f 592/1269/3 589/1270/3 591/1271/3
f 590/1272/4 585/1273/4 589/1274/4
f 591/1275/5 585/1276/5 587/1277/5
f 588/1278/6 590/1279/6 592/1280/6
f 594/1281/1 595/1282/1 593/1283/1
f 596/1284/2 599/1285/2 595/1286/2
f 600/1287/3 597/1288/3 599/1289/3
f 598/1290/4 593/1291/4 597/1292/4
f 599/1293/5 593/1294/5 595/1295/5
f 596/1296/6 598/1297/6 600/1298/6
f 602/1299/1 603/1300/1 601/1301/1
f 604/1302/2 607/1303/2 603/1304/2
f 608/1305/3 605/1306/3 607/1307/3
f 606/1308/4 601/1309/4 605/1310/4
f 607/1311/5 601/1312/5 603/1313/5
f 604/1314/6 606/1315/6 608/1316/6
f 610/1317/1 611/1318/1 609/1319/1
f 612/1320/2 615/1321/2 611/1322/2
f 616/1323/3 613/1324/3 615/1325/3
f 614/1326/4 609/1327/4 613/1328/4
f 615/1329/5 609/1330/5 611/1331/5
f 612/1332/6 614/1333/6 616/1334/6
f 618/1335/1 619/1336/1 617/1337/1
f 620/1338/2 623/1339/2 619/1340/2
f 624/1341/3 621/1342/3 623/1343/3
f 622/1344/4 617/1345/4 621/1346/4
f 623/1347/5 617/1348/5 619/1349/5
f 620/1350/6 622/1351/6 624/1352/6
f 626/1353/1 627/1354/1 625/1355/1
f 628/1356/2 631/1357/2 627/1358/2
f 632/1359/3 629/1360/3 631/1361/3
f 630/1362/4 625/1363/4 629/1364/4
f 631/1365/5 625/1366/5 627/1367/5
f 628/1368/6 630/1369/6 632/1370/6
f 634/1371/1 635/1372/1 633/1373/1
f 636/1374/2 639/1375/2 635/1376/2
f 640/1377/3 637/1378/3 639/1379/3
f 638/1380/4 633/1381/4 637/1382/4
f 639/1383/5 633/1384/5 635/1385/5
f 636/1386/6 638/1387/6 640/1388/6
f 642/1389/1 643/1390/1 641/1391/1
f 644/1392/2 647/1393/2 643/1394/2
f 648/1395/3 645/1396/3 647/1397/3
f 646/1398/4 641/1399/4 645/1400/4
f 647/1401/5 641/1402/5 643/1403/5
f 644/1404/6 646/1405/6 648/1406/6
f 650/1407/1 651/1408/1 649/1409/1
f 652/1410/2 655/1411/2 651/1412/2
f 656/1413/3 653/1414/3 655/1415/3
f 654/1416/4 649/1417/4 653/1418/4
f 655/1419/5 649/1420/5 651/1421/5
f 652/1422/6 654/1423/6 656/1424/6
f 658/1425/1 659/1426/1 657/1427/1
f 660/1428/2 663/1429/2 659/1430/2
f 664/1431/3 661/1432/3 663/1433/3
f 662/1434/4 657/1435/4 661/1436/4
f 663/1437/5 657/1438/5 659/1439/5
f 660/1440/6 662/1441/6 664/1442/6
f 666/1443/1 667/1444/1 665/1445/1
f 668/1446/2 671/1447/2 667/1448/2
f 672/1449/3 669/1450/3 671/1451/3
f 670/1452/4 665/1453/4 669/1454/4
f 671/1455/5 665/1456/5 667/1457/5
f 668/1458/6 670/1459/6 672/1460/6
f 2/1/1 4/1461/1 3/2/1
f 4/4/2 8/1462/2 7/5/2
f 8/7/3 6/1463/3 5/8/3
f 6/10/4 2/1464/4 1/11/4
f 7/13/5 5/1465/5 1/14/5
f 4/16/6 2/1466/6 6/17/6
f 10/19/1 12/1467/1 11/20/1
f 12/22/2 16/1468/2 15/23/2
f 16/25/3 14/1469/3 13/26/3
f 14/28/4 10/1470/4 9/29/4
f 15/31/5 13/1471/5 9/32/5
f 12/34/6 10/1472/6 14/35/6
f 18/37/1 20/1473/1 19/38/1
f 20/40/2 24/1474/2 23/41/2
f 24/43/3 22/1475/3 21/44/3
f 22/46/4 18/1476/4 17/47/4
f 23/49/5 21/1477/5 17/50/5
f 20/52/6 18/1478/6 22/53/6
f 26/55/1 28/1479/1 27/56/1
f 28/58/2 32/1480/2 31/59/2
f 32/61/3 30/1481/3 29/62/3
f 30/64/4 26/1482/4 25/65/4
f 31/67/5 29/1483/5 25/68/5
f 28/70/6 26/1484/6 30/71/6
f 34/73/1 36/1485/1 35/74/1
f 36/76/2 40/1486/2 39/77/2
f 40/79/3 38/1487/3 37/80/3
f 38/82/4 34/1488/4 33/83/4
f 39/85/5 37/1489/5 33/86/5
f 36/88/6 34/1490/6 38/89/6
f 42/91/1 44/1491/1 43/92/1
f 44/94/2 48/1492/2 47/95/2
f 48/97/3 46/1493/3 45/98/3
f 46/100/4 42/1494/4 41/101/4
f 47/103/5 45/102/5 41/101/5
f 44/105/6 42/1495/6 46/106/6
f 50/108/1 52/1496/1 51/109/1
f 52/111/2 56/1497/2 55/112/2
f 56/114/3 54/1498/3 53/115/3
f 54/117/4 50/1499/4 49/118/4
f 55/120/5 53/119/5 49/118/5
f 52/122/6 50/1500/6 54/123/6
f 58/125/1 60/1501/1 59/126/1
f 60/128/2 64/1502/2 63/129/2
f 64/131/3 62/1503/3 61/132/3
f 62/134/4 58/1504/4 57/135/4
f 63/137/5 61/1505/5 57/138/5
f 60/140/6 58/1506/6 62/141/6
f 66/143/1 68/1507/1 67/144/1
f 68/146/2 72/1508/2 71/147/2
f 72/149/3 70/1509/3 69/150/3
f 70/152/4 66/1510/4 65/153/4
f 71/155/5 69/1511/5 65/156/5
f 68/158/6 66/1512/6 70/159/6
f 74/161/1 76/1513/1 75/162/1
f 76/164/2 80/1514/2 79/165/2
f 80/167/3 78/1515/3 77/168/3
f 78/170/4 74/1516/4 73/171/4
f 79/173/5 77/1517/5 73/174/5
f 76/176/6 74/1518/6 78/177/6
f 82/179/1 84/1519/1 83/180/1
f 84/182/2 88/1520/2 87/183/2
f 88/185/3 86/1521/3 85/186/3
f 86/188/4 82/1522/4 81/189/4
f 87/191/5 85/1523/5 81/192/5
f 84/194/6 82/1524/6 86/195/6
f 90/197/1 92/1525/1 91/198/1
f 92/200/2 96/1526/2 95/201/2
f 96/203/3 94/1527/3 93/204/3
f 94/206/4 90/1528/4 89/207/4
f 95/209/5 93/1529/5 89/210/5
f 92/212/6 90/1530/6 94/213/6
f 98/215/1 100/1531/1 99/216/1
f 100/218/2 104/1532/2 103/219/2
f 104/221/3 102/1533/3 101/222/3
f 102/224/4 98/1534/4 97/225/4
f 103/227/5 101/1535/5 97/228/5
f 100/230/6 98/1536/6 102/231/6
f 106/233/1 108/1537/1 107/234/1
f 108/236/2 112/1538/2 111/237/2
f 112/239/3 110/1539/3 109/240/3
f 110/242/4 106/1540/4 105/243/4
f 111/245/5 109/1541/5 105/246/5
f 108/248/6 106/1542/6 110/249/6
f 114/251/1 116/1543/1 115/252/1
f 116/254/2 120/1544/2 119/255/2
f 120/257/3 118/1545/3 117/258/3
f 118/260/4 114/1546/4 113/261/4
f 119/263/5 117/1547/5 113/264/5
f 116/266/6 114/1548/6 118/267/6
f 122/269/1 124/1549/1 123/270/1
f 124/272/2 128/1550/2 127/273/2
f 128/275/3 126/1551/3 125/276/3
f 126/278/4 122/1552/4 121/279/4
f 127/281/5 125/1553/5 121/282/5
f 124/284/6 122/1554/6 126/285/6
f 130/287/1 132/1555/1 131/288/1
f 132/290/2 136/1556/2 135/291/2
f 136/293/3 134/1557/3 133/294/3
f 134/296/4 130/1558/4 129/297/4
f 135/299/5 133/1559/5 129/300/5
f 132/302/6 130/1560/6 134/303/6
f 138/305/1 140/1561/1 139/306/1
f 140/308/2 144/1562/2 143/309/2
f 144/311/3 142/1563/3 141/312/3
f 142/314/4 138/1564/4 137/315/4
f 143/317/5 141/1565/5 137/318/5
f 140/320/6 138/1566/6 142/321/6
f 146/323/1 148/1567/1 147/324/1
f 148/326/2 152/1568/2 151/327/2
f 152/329/3 150/1569/3 149/330/3
f 150/332/4 146/1570/4 145/333/4
f 151/335/5 149/1571/5 145/336/5
f 148/338/6 146/1572/6 150/339/6
f 154/341/1 156/1573/1 155/342/1
f 156/344/2 160/1574/2 159/345/2
f 160/347/3 158/1575/3 157/348/3
f 158/350/4 154/1576/4 153/351/4
f 159/353/5 157/1577/5 153/354/5
f 156/356/6 154/1578/6 158/357/6
f 162/359/1 164/1579/1 163/360/1
f 164/362/2 168/1580/2 167/363/2
f 168/365/3 166/1581/3 165/366/3
f 166/368/4 162/1582/4 161/369/4
f 167/371/5 165/1583/5 161/372/5
f 164/374/6 162/1584/6 166/375/6
f 170/377/1 172/1585/1 171/378/1
f 172/380/2 176/1586/2 175/381/2
f 176/383/3 174/1587/3 173/384/3
f 174/386/4 170/1588/4 169/387/4
f 175/389/5 173/1589/5 169/390/5
f 172/392/6 170/1590/6 174/393/6
f 178/395/1 180/1591/1 179/396/1
f 180/398/2 184/1592/2 183/399/2
f 184/401/3 182/1593/3 181/402/3
f 182/404/4 178/1594/4 177/405/4
f 183/407/5 181/1595/5 177/408/5
f 180/410/6 178/1596/6 182/411/6
f 186/413/1 188/1597/1 187/414/1
f 188/416/2 192/1598/2 191/417/2
f 192/419/3 190/1599/3 189/420/3
f 190/422/4 186/1600/4 185/423/4
f 191/425/5 189/1601/5 185/426/5
f 188/428/6 186/1602/6 190/429/6
f 194/431/1 196/1603/1 195/432/1
f 196/434/2 200/1604/2 199/435/2
f 200/437/3 198/1605/3 197/438/3
f 198/440/4 194/1606/4 193/441/4
f 199/443/5 197/1607/5 193/444/5
f 196/446/6 194/1608/6 198/447/6
f 202/449/1 204/1609/1 203/450/1
f 204/452/2 208/1610/2 207/453/2
f 208/455/3 206/1611/3 205/456/3
f 206/458/4 202/1612/4 201/459/4
f 207/461/5 205/1613/5 201/462/5
f 204/464/6 202/1614/6 206/465/6
f 210/467/1 212/1615/1 211/468/1
f 212/470/2 216/1616/2 215/471/2
f 216/473/3 214/1617/3 213/474/3
f 214/476/4 210/1618/4 209/477/4
f 215/479/5 213/1619/5 209/480/5
f 212/482/6 210/1620/6 214/483/6
f 218/485/1 220/1621/1 219/486/1
f 220/488/2 224/1622/2 223/489/2
f 224/491/3 222/1623/3 221/492/3
f 222/494/4 218/1624/4 217/495/4
f 223/497/5 221/1625/5 217/498/5
f 220/500/6 218/1626/6 222/501/6
f 226/503/1 228/1627/1 227/504/1
f 228/506/2 232/1628/2 231/507/2
f 232/509/3 230/1629/3 229/510/3
f 230/512/4 226/1630/4 225/513/4
f 231/515/5 229/1631/5 225/516/5
f 228/518/6 226/1632/6 230/519/6
f 234/521/1 236/1633/1 235/522/1
f 236/524/2 240/1634/2 239/525/2
f 240/527/3 238/1635/3 237/528/3
f 238/530/4 234/1636/4 233/531/4
f 239/533/5 237/1637/5 233/534/5
f 236/536/6 234/1638/6 238/537/6
f 242/539/1 244/1639/1 243/540/1
f 244/542/2 248/1640/2 247/543/2
f 248/545/3 246/1641/3 245/546/3
f 246/548/4 242/1642/4 241/549/4
f 247/551/5 245/1643/5 241/552/5
f 244/554/6 242/1644/6 246/555/6
f 250/557/1 252/1645/1 251/558/1
f 252/560/2 256/1646/2 255/561/2
f 256/563/3 254/1647/3 253/564/3
f 254/566/4 250/1648/4 249/567/4
f 255/569/5 253/1649/5 249/570/5
f 252/572/6 250/1650/6 254/573/6
f 258/575/1 260/1651/1 259/576/1
f 260/578/2 264/1652/2 263/579/2
f 264/581/3 262/1653/3 261/582/3
f 262/584/4 258/1654/4 257/585/4
f 263/587/5 261/1655/5 257/588/5
f 260/590/6 258/1656/6 262/591/6
f 266/593/1 268/1657/1 267/594/1
f 268/596/2 272/1658/2 271/597/2
f 272/599/3 270/1659/3 269/600/3
f 270/602/4 266/1660/4 265/603/4
f 271/605/5 269/1661/5 265/606/5
f 268/608/6 266/1662/6 270/609/6
f 274/611/1 276/1663/1 275/612/1
f 276/614/2 280/1664/2 279/615/2
f 280/617/3 278/1665/3 277/618/3
f 278/620/4 274/1666/4 273/621/4
f 279/623/5 277/1667/5 273/624/5
f 276/626/6 274/1668/6 278/627/6
f 282/629/1 284/1669/1 283/630/1
f 284/632/2 288/1670/2 287/633/2
f 288/635/3 286/1671/3 285/636/3
f 286/638/4 282/1672/4 281/639/4
f 287/641/5 285/1673/5 281/642/5
f 284/644/6 282/1674/6 286/645/6
f 290/647/1 292/1675/1 291/648/1
f 292/650/2 296/1676/2 295/651/2
f 296/653/3 294/1677/3 293/654/3
f 294/656/4 290/1678/4 289/657/4
f 295/659/5 293/1679/5 289/660/5
f 292/662/6 290/1680/6 294/663/6
f 298/665/1 300/1681/1 299/666/1
f 300/668/2 304/1682/2 303/669/2
f 304/671/3 302/1683/3 301/672/3
f 302/674/4 298/1684/4 297/675/4
f 303/677/5 301/1685/5 297/678/5
f 300/680/6 298/1686/6 302/681/6
f 306/683/1 308/1687/1 307/684/1
f 308/686/2 312/1688/2 311/687/2
f 312/689/3 310/1689/3 309/690/3
f 310/692/4 306/1690/4 305/693/4
f 311/695/5 309/1691/5 305/696/5
f 308/698/6 306/1692/6 310/699/6
f 314/701/1 316/1693/1 315/702/1
f 316/704/2 320/1694/2 319/705/2
f 320/707/3 318/1695/3 317/708/3
f 318/710/4 314/1696/4 313/711/4
f 319/713/5 317/1697/5 313/714/5
f 316/716/6 314/1698/6 318/717/6
f 322/719/7 324/722/7 323/720/7
f 324/722/8 326/724/8 325/723/8
f 326/724/9 328/1699/9 327/725/9
f 328/726/10 330/729/10 329/727/10
f 330/729/11 332/731/11 331/730/11
f 332/731/12 334/733/12 333/732/12
f 334/733/13 336/735/13 335/734/13
f 336/735/14 338/737/14 337/736/14
f 338/737/15 340/1700/15 339/738/15
f 340/739/16 342/742/16 341/740/16
f 342/742/17 344/744/17 343/743/17
f 344/744/18 346/746/18 345/745/18
f 346/746/19 348/748/19 347/747/19
f 348/748/20 350/750/20 349/749/20
f 350/750/21 352/1701/21 351/751/21
f 352/752/22 354/755/22 353/753/22
f 354/755/23 356/757/23 355/756/23
f 356/757/24 358/759/24 357/758/24
f 358/759/25 360/761/25 359/760/25
f 360/761/26 362/763/26 361/762/26
f 362/763/27 364/1702/27 363/764/27
f 364/765/28 366/771/28 365/766/28
f 326/770/4 324/1703/4 322/1704/4
f 322/1704/4 368/1705/4 366/1706/4
f 366/1706/4 364/1707/4 362/1708/4
f 362/1708/4 360/1709/4 358/768/4
f 358/768/4 356/1710/4 354/1711/4
f 354/1711/4 352/1712/4 350/1713/4
f 350/1713/4 348/1714/4 346/1715/4
f 346/1715/4 344/1716/4 342/769/4
f 342/769/4 340/1717/4 338/1718/4
f 338/1718/4 336/1719/4 334/1720/4
f 334/1720/4 332/1721/4 330/1722/4
f 330/1722/4 328/1723/4 326/770/4
f 326/770/4 322/1704/4 366/1706/4
f 366/1706/4 362/1708/4 358/768/4
f 358/768/4 354/1711/4 350/1713/4
f 350/1713/4 346/1715/4 342/769/4
f 342/769/4 338/1718/4 334/1720/4
f 334/1720/4 330/1722/4 326/770/4
f 326/770/4 366/1706/4 358/768/4
f 358/768/4 350/1713/4 342/769/4
f 342/769/4 334/1720/4 326/770/4
f 366/771/29 368/773/29 367/772/29
f 368/773/30 322/719/30 321/721/30
f 367/776/2 321/1724/2 323/1725/2
f 323/1725/2 325/1726/2 327/1727/2
f 327/1727/2 329/1728/2 331/1729/2
f 331/1729/2 333/1730/2 335/774/2
f 335/774/2 337/1731/2 339/1732/2
f 339/1732/2 341/1733/2 343/1734/2
f 343/1734/2 345/1735/2 347/1736/2
f 347/1736/2 349/1737/2 351/775/2
f 351/775/2 353/1738/2 355/1739/2
f 355/1739/2 357/1740/2 359/1741/2
f 359/1741/2 361/1742/2 363/1743/2
f 363/1743/2 365/1744/2 367/776/2
f 367/776/2 323/1725/2 327/1727/2
f 327/1727/2 331/1729/2 335/774/2
f 335/774/2 339/1732/2 343/1734/2
f 343/1734/2 347/1736/2 351/775/2
f 351/775/2 355/1739/2 359/1741/2
f 359/1741/2 363/1743/2 367/776/2
f 367/776/2 327/1727/2 335/774/2
f 335/774/2 343/1734/2 351/775/2
f 351/775/2 359/1741/2 367/776/2
f 370/777/1 372/1745/1 371/778/1
f 372/780/2 376/1746/2 375/781/2
f 376/783/3 374/1747/3 373/784/3
f 374/786/4 370/1748/4 369/787/4
f 375/789/5 373/1749/5 369/790/5
f 372/792/6 370/1750/6 374/793/6
f 378/795/31 380/1751/31 379/796/31
f 379/798/2 380/1752/2 384/799/2
f 384/801/32 382/1753/32 381/802/32
f 382/804/4 378/1754/4 377/805/4
f 383/807/33 381/1755/33 377/808/33
f 380/810/34 378/1756/34 382/811/34
f 386/813/35 388/1757/35 387/814/35
f 387/816/2 388/1758/2 392/817/2
f 392/819/36 390/1759/36 389/820/36
f 390/822/4 386/1760/4 385/823/4
f 391/825/37 389/1761/37 385/826/37
f 388/828/38 386/1762/38 390/829/38
f 394/831/39 396/1763/39 395/832/39
f 396/834/2 400/1764/2 399/835/2
f 400/837/40 398/1765/40 397/838/40
f 397/840/4 398/1766/4 394/841/4
f 399/843/41 397/1767/41 393/844/41
f 396/846/42 394/1768/42 398/847/42
f 402/849/43 404/1769/43 403/850/43
f 403/852/2 404/1770/2 408/853/2
f 408/855/44 406/1771/44 405/856/44
f 406/858/4 402/1772/4 401/859/4
f 407/861/45 405/1773/45 401/862/45
f 404/864/46 402/1774/46 406/865/46
f 410/867/5 412/1775/5 411/868/5
f 412/870/2 416/1776/2 415/871/2
f 416/873/6 414/1777/6 413/874/6
f 414/876/4 410/1778/4 409/877/4
f 415/879/3 413/1779/3 409/880/3
f 412/882/1 410/1780/1 414/883/1
f 418/885/33 420/1781/33 419/886/33
f 420/888/2 424/1782/2 423/889/2
f 424/891/34 422/1783/34 421/892/34
f 422/894/4 418/1784/4 417/895/4
f 423/897/32 421/1785/32 417/898/32
f 420/900/31 418/1786/31 422/901/31
f 426/903/37 428/1787/37 427/904/37
f 427/906/2 428/1788/2 432/907/2
f 432/909/38 430/1789/38 429/910/38
f 430/912/4 426/1790/4 425/913/4
f 431/915/36 429/1791/36 425/916/36
f 428/918/35 426/1792/35 430/919/35
f 434/921/41 436/1793/41 435/922/41
f 435/924/2 436/1794/2 440/925/2
f 440/927/42 438/1795/42 437/928/42
f 438/930/4 434/1796/4 433/931/4
f 439/933/40 437/1797/40 433/934/40
f 436/936/39 434/1798/39 438/937/39
f 442/939/45 444/1799/45 443/940/45
f 443/942/2 444/1800/2 448/943/2
f 448/945/46 446/1801/46 445/946/46
f 446/948/4 442/1802/4 441/949/4
f 447/951/44 445/1803/44 441/952/44
f 444/954/43 442/1804/43 446/955/43
f 450/957/3 452/1805/3 451/958/3
f 452/960/2 456/1806/2 455/961/2
f 456/963/1 454/1807/1 453/964/1
f 454/966/4 450/1808/4 449/967/4
f 455/969/6 453/1809/6 449/970/6
f 452/972/5 450/1810/5 454/973/5
f 458/975/32 460/1811/32 459/976/32
f 460/978/2 464/1812/2 463/979/2
f 464/981/31 462/1813/31 461/982/31
f 462/984/4 458/1814/4 457/985/4
f 463/987/34 461/1815/34 457/988/34
f 460/990/33 458/1816/33 462/991/33
f 466/993/36 468/1817/36 467/994/36
f 468/996/2 472/1818/2 471/997/2
f 472/999/35 470/1819/35 469/1000/35
f 470/1002/4 466/1820/4 465/1003/4
f 471/1005/38 469/1821/38 465/1006/38
f 468/1008/37 466/1822/37 470/1009/37
f 474/1011/40 476/1823/40 475/1012/40
f 476/1014/2 480/1824/2 479/1015/2
f 480/1017/39 478/1825/39 477/1018/39
f 477/1020/4 478/1826/4 474/1021/4
f 479/1023/42 477/1827/42 473/1024/42
f 476/1026/41 474/1828/41 478/1027/41
f 482/1029/44 484/1829/44 483/1030/44
f 483/1032/2 484/1830/2 488/1033/2
f 488/1035/43 486/1831/43 485/1036/43
f 486/1038/4 482/1832/4 481/1039/4
f 487/1041/46 485/1833/46 481/1042/46
f 484/1044/45 482/1834/45 486/1045/45
f 490/1047/6 492/1835/6 491/1048/6
f 492/1050/2 496/1836/2 495/1051/2
f 496/1053/5 494/1837/5 493/1054/5
f 494/1056/4 490/1838/4 489/1057/4
f 495/1059/1 493/1839/1 489/1060/1
f 492/1062/3 490/1840/3 494/1063/3
f 498/1065/34 500/1841/34 499/1066/34
f 500/1068/2 504/1842/2 503/1069/2
f 504/1071/33 502/1843/33 501/1072/33
f 502/1074/4 498/1844/4 497/1075/4
f 503/1077/31 501/1845/31 497/1078/31
f 500/1080/32 498/1846/32 502/1081/32
f 506/1083/38 508/1847/38 507/1084/38
f 507/1086/2 508/1848/2 512/1087/2
f 512/1089/37 510/1849/37 509/1090/37
f 510/1092/4 506/1850/4 505/1093/4
f 511/1095/35 509/1851/35 505/1096/35
f 508/1098/36 506/1852/36 510/1099/36
f 514/1101/42 516/1853/42 515/1102/42
f 516/1104/2 520/1854/2 519/1105/2
f 520/1107/41 518/1855/41 517/1108/41
f 518/1110/4 514/1856/4 513/1111/4
f 519/1113/39 517/1857/39 513/1114/39
f 516/1116/40 514/1858/40 518/1117/40
f 522/1119/46 524/1859/46 523/1120/46
f 524/1122/2 528/1860/2 527/1123/2
f 528/1125/45 526/1861/45 525/1126/45
f 526/1128/4 522/1862/4 521/1129/4
f 527/1131/43 525/1863/43 521/1132/43
f 524/1134/44 522/1864/44 526/1135/44
f 530/1137/1 532/1865/1 531/1138/1
f 532/1140/2 536/1866/2 535/1141/2
f 536/1143/3 534/1867/3 533/1144/3
f 534/1146/4 530/1868/4 529/1147/4
f 535/1149/5 533/1869/5 529/1150/5
f 532/1152/6 530/1870/6 534/1153/6
f 538/1155/1 540/1871/1 539/1156/1
f 540/1158/2 544/1872/2 543/1159/2
f 544/1161/3 542/1873/3 541/1162/3
f 542/1164/4 538/1874/4 537/1165/4
f 543/1167/5 541/1875/5 537/1168/5
f 540/1170/6 538/1876/6 542/1171/6
f 546/1173/1 548/1877/1 547/1174/1
f 548/1176/2 552/1878/2 551/1177/2
f 552/1179/3 550/1879/3 549/1180/3
f 550/1182/4 546/1880/4 545/1183/4
f 551/1185/5 549/1881/5 545/1186/5
f 548/1188/6 546/1882/6 550/1189/6
f 554/1191/1 556/1883/1 555/1192/1
f 556/1194/2 560/1884/2 559/1195/2
f 560/1197/3 558/1885/3 557/1198/3
f 558/1200/4 554/1886/4 553/1201/4
f 559/1203/5 557/1887/5 553/1204/5
f 556/1206/6 554/1888/6 558/1207/6
f 562/1209/1 564/1889/1 563/1210/1
f 564/1212/2 568/1890/2 567/1213/2
f 568/1215/3 566/1891/3 565/1216/3
f 566/1218/4 562/1892/4 561/1219/4
f 567/1221/5 565/1893/5 561/1222/5
f 564/1224/6 562/1894/6 566/1225/6
f 570/1227/1 572/1895/1 571/1228/1
f 572/1230/2 576/1896/2 575/1231/2
f 576/1233/3 574/1897/3 573/1234/3
f 574/1236/4 570/1898/4 569/1237/4
f 575/1239/5 573/1899/5 569/1240/5
f 572/1242/6 570/1900/6 574/1243/6
f 578/1245/1 580/1901/1 579/1246/1
f 580/1248/2 584/1902/2 583/1249/2
f 584/1251/3 582/1903/3 581/1252/3
f 582/1254/4 578/1904/4 577/1255/4
f 583/1257/5 581/1905/5 577/1258/5
f 580/1260/6 578/1906/6 582/1261/6
f 586/1263/1 588/1907/1 587/1264/1
f 588/1266/2 592/1908/2 591/1267/2
f 592/1269/3 590/1909/3 589/1270/3
f 590/1272/4 586/1910/4 585/1273/4
f 591/1275/5 589/1911/5 585/1276/5
f 588/1278/6 586/1912/6 590/1279/6
f 594/1281/1 596/1913/1 595/1282/1
f 596/1284/2 600/1914/2 599/1285/2
f 600/1287/3 598/1915/3 597/1288/3
f 598/1290/4 594/1916/4 593/1291/4
f 599/1293/5 597/1917/5 593/1294/5
f 596/1296/6 594/1918/6 598/1297/6
f 602/1299/1 604/1919/1 603/1300/1
f 604/1302/2 608/1920/2 607/1303/2
f 608/1305/3 606/1921/3 605/1306/3
f 606/1308/4 602/1922/4 601/1309/4
f 607/1311/5 605/1923/5 601/1312/5
f 604/1314/6 602/1924/6 606/1315/6
f 610/1317/1 612/1925/1 611/1318/1
f 612/1320/2 616/1926/2 615/1321/2
f 616/1323/3 614/1927/3 613/1324/3
f 614/1326/4 610/1928/4 609/1327/4
f 615/1329/5 613/1929/5 609/1330/5
f 612/1332/6 610/1930/6 614/1333/6
f 618/1335/1 620/1931/1 619/1336/1
f 620/1338/2 624/1932/2 623/1339/2
f 624/1341/3 622/1933/3 621/1342/3
f 622/1344/4 618/1934/4 617/1345/4
f 623/1347/5 621/1935/5 617/1348/5
f 620/1350/6 618/1936/6 622/1351/6
f 626/1353/1 628/1937/1 627/1354/1
f 628/1356/2 632/1938/2 631/1357/2
f 632/1359/3 630/1939/3 629/1360/3
f 630/1362/4 626/1940/4 625/1363/4
f 631/1365/5 629/1941/5 625/1366/5
f 628/1368/6 626/1942/6 630/1369/6
f 634/1371/1 636/1943/1 635/1372/1
f 636/1374/2 640/1944/2 639/1375/2
f 640/1377/3 638/1945/3 637/1378/3
f 638/1380/4 634/1946/4 633/1381/4
f 639/1383/5 637/1947/5 633/1384/5
f 636/1386/6 634/1948/6 638/1387/6
f 642/1389/1 644/1949/1 643/1390/1
f 644/1392/2 648/1950/2 647/1393/2
f 648/1395/3 646/1951/3 645/1396/3
f 646/1398/4 642/1952/4 641/1399/4
f 647/1401/5 645/1953/5 641/1402/5
f 644/1404/6 642/1954/6 646/1405/6
f 650/1407/1 652/1955/1 651/1408/1
f 652/1410/2 656/1956/2 655/1411/2
f 656/1413/3 654/1957/3 653/1414/3
f 654/1416/4 650/1958/4 649/1417/4
f 655/1419/5 653/1959/5 649/1420/5
f 652/1422/6 650/1960/6 654/1423/6
f 658/1425/1 660/1961/1 659/1426/1
f 660/1428/2 664/1962/2 663/1429/2
f 664/1431/3 662/1963/3 661/1432/3
f 662/1434/4 658/1964/4 657/1435/4
f 663/1437/5 661/1965/5 657/1438/5
f 660/1440/6 658/1966/6 662/1441/6
f 666/1443/1 668/1967/1 667/1444/1
f 668/1446/2 672/1968/2 671/1447/2
f 672/1449/3 670/1969/3 669/1450/3
f 670/1452/4 666/1970/4 665/1453/4
f 671/1455/5 669/1971/5 665/1456/5
f 668/1458/6 666/1972/6 670/1459/6
