# Blender 5.2.2 LTS
# www.blender.org
mtllib environment.mtl
g pe_props_render_Cube.039
v -4.300000 -0.100000 3.300000
v -4.300000 0.000000 3.300000
v -4.300000 -0.100000 -6.300000
v -4.300000 0.000000 -6.300000
v 4.300000 -0.100000 3.300000
v 4.300000 0.000000 3.300000
v 4.300000 -0.100000 -6.300000
v 4.300000 0.000000 -6.300000
v -4.300000 0.000000 -6.000000
v -4.300000 3.400000 -6.000000
v -4.300000 0.000000 -6.300000
v -4.300000 3.400000 -6.300000
v 4.300000 0.000000 -6.000000
v 4.300000 3.400000 -6.000000
v 4.300000 0.000000 -6.300000
v 4.300000 3.400000 -6.300000
v -4.300000 0.000000 3.300000
v -4.300000 3.400000 3.300000
v -4.300000 0.000000 -6.300000
v -4.300000 3.400000 -6.300000
v -4.000000 0.000000 3.300000
v -4.000000 3.400000 3.300000
v -4.000000 0.000000 -6.300000
v -4.000000 3.400000 -6.300000
v 4.000000 0.000000 3.300000
v 4.000000 3.400000 3.300000
v 4.000000 0.000000 -6.300000
v 4.000000 3.400000 -6.300000
v 4.300000 0.000000 3.300000
v 4.300000 3.400000 3.300000
v 4.300000 0.000000 -6.300000
v 4.300000 3.400000 -6.300000
v -4.000000 0.000000 -5.950000
v -4.000000 0.180000 -5.950000
v -4.000000 0.000000 -6.010000
v -4.000000 0.180000 -6.010000
v 4.000000 0.000000 -5.950000
v 4.000000 0.180000 -5.950000
v 4.000000 0.000000 -6.010000
v 4.000000 0.180000 -6.010000
v -4.010000 0.000000 0.000000
v -4.010000 0.180000 0.000000
v -4.010000 0.000000 -6.000000
v -4.010000 0.180000 -6.000000
v -3.950000 0.000000 0.000000
v -3.950000 0.180000 0.000000
v -3.950000 0.000000 -6.000000
v -3.950000 0.180000 -6.000000
v 3.950000 0.000000 0.000000
v 3.950000 0.180000 0.000000
v 3.950000 0.000000 -6.000000
v 3.950000 0.180000 -6.000000
v 4.010000 0.000000 0.000000
v 4.010000 0.180000 0.000000
v 4.010000 0.000000 -6.000000
v 4.010000 0.180000 -6.000000
v 3.950000 0.000000 -2.000000
v 3.950000 2.200000 -2.000000
v 3.950000 0.000000 -3.000000
v 3.950000 2.200000 -3.000000
v 4.010000 0.000000 -2.000000
v 4.010000 2.200000 -2.000000
v 4.010000 0.000000 -3.000000
v 4.010000 2.200000 -3.000000
v 3.975000 0.000000 -1.850000
v 3.975000 2.400000 -1.850000
v 3.975000 0.000000 -3.150000
v 3.975000 2.400000 -3.150000
v 4.025000 0.000000 -1.850000
v 4.025000 2.400000 -1.850000
v 4.025000 0.000000 -3.150000
v 4.025000 2.400000 -3.150000
v 3.910000 0.800000 -2.175000
v 3.910000 1.300000 -2.175000
v 3.910000 0.800000 -2.225000
v 3.910000 1.300000 -2.225000
v 3.950000 0.800000 -2.175000
v 3.950000 1.300000 -2.175000
v 3.950000 0.800000 -2.225000
v 3.950000 1.300000 -2.225000
v -3.500000 1.680000 -5.380000
v -3.500000 1.720000 -5.380000
v -3.500000 1.680000 -5.420000
v -3.500000 1.720000 -5.420000
v -0.500000 1.680000 -5.380000
v -0.500000 1.720000 -5.380000
v -0.500000 1.680000 -5.420000
v -0.500000 1.720000 -5.420000
v -3.340000 0.550000 -5.200000
v -3.340000 1.650000 -5.200000
v -3.340000 0.550000 -5.600000
v -3.340000 1.650000 -5.600000
v -3.260000 0.550000 -5.200000
v -3.260000 1.650000 -5.200000
v -3.260000 0.550000 -5.600000
v -3.260000 1.650000 -5.600000
v -3.020000 0.550000 -5.200000
v -3.020000 1.650000 -5.200000
v -3.020000 0.550000 -5.600000
v -3.020000 1.650000 -5.600000
v -2.940000 0.550000 -5.200000
v -2.940000 1.650000 -5.200000
v -2.940000 0.550000 -5.600000
v -2.940000 1.650000 -5.600000
v -2.700000 0.550000 -5.200000
v -2.700000 1.650000 -5.200000
v -2.700000 0.550000 -5.600000
v -2.700000 1.650000 -5.600000
v -2.620000 0.550000 -5.200000
v -2.620000 1.650000 -5.200000
v -2.620000 0.550000 -5.600000
v -2.620000 1.650000 -5.600000
v -2.380000 0.550000 -5.200000
v -2.380000 1.650000 -5.200000
v -2.380000 0.550000 -5.600000
v -2.380000 1.650000 -5.600000
v -2.300000 0.550000 -5.200000
v -2.300000 1.650000 -5.200000
v -2.300000 0.550000 -5.600000
v -2.300000 1.650000 -5.600000
v -2.060000 0.550000 -5.200000
v -2.060000 1.650000 -5.200000
v -2.060000 0.550000 -5.600000
v -2.060000 1.650000 -5.600000
v -1.980000 0.550000 -5.200000
v -1.980000 1.650000 -5.200000
v -1.980000 0.550000 -5.600000
v -1.980000 1.650000 -5.600000
v -1.740000 0.550000 -5.200000
v -1.740000 1.650000 -5.200000
v -1.740000 0.550000 -5.600000
v -1.740000 1.650000 -5.600000
v -1.660000 0.550000 -5.200000
v -1.660000 1.650000 -5.200000
v -1.660000 0.550000 -5.600000
v -1.660000 1.650000 -5.600000
v -1.420000 0.550000 -5.200000
v -1.420000 1.650000 -5.200000
v -1.420000 0.550000 -5.600000
v -1.420000 1.650000 -5.600000
v -1.340000 0.550000 -5.200000
v -1.340000 1.650000 -5.200000
v -1.340000 0.550000 -5.600000
v -1.340000 1.650000 -5.600000
v -1.100000 0.550000 -5.200000
v -1.100000 1.650000 -5.200000
v -1.100000 0.550000 -5.600000
v -1.100000 1.650000 -5.600000
v -1.020000 0.550000 -5.200000
v -1.020000 1.650000 -5.200000
v -1.020000 0.550000 -5.600000
v -1.020000 1.650000 -5.600000
v -0.780000 0.550000 -5.200000
v -0.780000 1.650000 -5.200000
v -0.780000 0.550000 -5.600000
v -0.780000 1.650000 -5.600000
v -0.700000 0.550000 -5.200000
v -0.700000 1.650000 -5.200000
v -0.700000 0.550000 -5.600000
v -0.700000 1.650000 -5.600000
v -3.500000 1.680000 -4.380000
v -3.500000 1.720000 -4.380000
v -3.500000 1.680000 -4.420000
v -3.500000 1.720000 -4.420000
v -0.500000 1.680000 -4.380000
v -0.500000 1.720000 -4.380000
v -0.500000 1.680000 -4.420000
v -0.500000 1.720000 -4.420000
v -3.340000 0.550000 -4.200000
v -3.340000 1.650000 -4.200000
v -3.340000 0.550000 -4.600000
v -3.340000 1.650000 -4.600000
v -3.260000 0.550000 -4.200000
v -3.260000 1.650000 -4.200000
v -3.260000 0.550000 -4.600000
v -3.260000 1.650000 -4.600000
v -3.020000 0.550000 -4.200000
v -3.020000 1.650000 -4.200000
v -3.020000 0.550000 -4.600000
v -3.020000 1.650000 -4.600000
v -2.940000 0.550000 -4.200000
v -2.940000 1.650000 -4.200000
v -2.940000 0.550000 -4.600000
v -2.940000 1.650000 -4.600000
v -2.700000 0.550000 -4.200000
v -2.700000 1.650000 -4.200000
v -2.700000 0.550000 -4.600000
v -2.700000 1.650000 -4.600000
v -2.620000 0.550000 -4.200000
v -2.620000 1.650000 -4.200000
v -2.620000 0.550000 -4.600000
v -2.620000 1.650000 -4.600000
v -2.380000 0.550000 -4.200000
v -2.380000 1.650000 -4.200000
v -2.380000 0.550000 -4.600000
v -2.380000 1.650000 -4.600000
v -2.300000 0.550000 -4.200000
v -2.300000 1.650000 -4.200000
v -2.300000 0.550000 -4.600000
v -2.300000 1.650000 -4.600000
v -2.060000 0.550000 -4.200000
v -2.060000 1.650000 -4.200000
v -2.060000 0.550000 -4.600000
v -2.060000 1.650000 -4.600000
v -1.980000 0.550000 -4.200000
v -1.980000 1.650000 -4.200000
v -1.980000 0.550000 -4.600000
v -1.980000 1.650000 -4.600000
v -1.740000 0.550000 -4.200000
v -1.740000 1.650000 -4.200000
v -1.740000 0.550000 -4.600000
v -1.740000 1.650000 -4.600000
v -1.660000 0.550000 -4.200000
v -1.660000 1.650000 -4.200000
v -1.660000 0.550000 -4.600000
v -1.660000 1.650000 -4.600000
v -1.420000 0.550000 -4.200000
v -1.420000 1.650000 -4.200000
v -1.420000 0.550000 -4.600000
v -1.420000 1.650000 -4.600000
v -1.340000 0.550000 -4.200000
v -1.340000 1.650000 -4.200000
v -1.340000 0.550000 -4.600000
v -1.340000 1.650000 -4.600000
v -1.100000 0.550000 -4.200000
v -1.100000 1.650000 -4.200000
v -1.100000 0.550000 -4.600000
v -1.100000 1.650000 -4.600000
v -1.020000 0.550000 -4.200000
v -1.020000 1.650000 -4.200000
v -1.020000 0.550000 -4.600000
v -1.020000 1.650000 -4.600000
v -0.780000 0.550000 -4.200000
v -0.780000 1.650000 -4.200000
v -0.780000 0.550000 -4.600000
v -0.780000 1.650000 -4.600000
v -0.700000 0.550000 -4.200000
v -0.700000 1.650000 -4.200000
v -0.700000 0.550000 -4.600000
v -0.700000 1.650000 -4.600000
v 2.550000 0.000000 -5.100000
v 2.550000 0.600000 -5.100000
v 2.550000 0.000000 -5.700000
v 2.550000 0.600000 -5.700000
v 3.450000 0.000000 -5.100000
v 3.450000 0.600000 -5.100000
v 3.450000 0.000000 -5.700000
v 3.450000 0.600000 -5.700000
v 2.540000 0.425000 -5.090000
v 2.540000 0.475000 -5.090000
v 2.540000 0.425000 -5.710000
v 2.540000 0.475000 -5.710000
v 3.460000 0.425000 -5.090000
v 3.460000 0.475000 -5.090000
v 3.460000 0.425000 -5.710000
v 3.460000 0.475000 -5.710000
v 2.550000 0.000000 -4.300000
v 2.550000 0.600000 -4.300000
v 2.550000 0.000000 -4.900000
v 2.550000 0.600000 -4.900000
v 3.450000 0.000000 -4.300000
v 3.450000 0.600000 -4.300000
v 3.450000 0.000000 -4.900000
v 3.450000 0.600000 -4.900000
v 2.540000 0.425000 -4.290000
v 2.540000 0.475000 -4.290000
v 2.540000 0.425000 -4.910000
v 2.540000 0.475000 -4.910000
v 3.460000 0.425000 -4.290000
v 3.460000 0.475000 -4.290000
v 3.460000 0.425000 -4.910000
v 3.460000 0.475000 -4.910000
v 1.450000 0.000000 -5.100000
v 1.450000 0.600000 -5.100000
v 1.450000 0.000000 -5.700000
v 1.450000 0.600000 -5.700000
v 2.350000 0.000000 -5.100000
v 2.350000 0.600000 -5.100000
v 2.350000 0.000000 -5.700000
v 2.350000 0.600000 -5.700000
v 1.440000 0.425000 -5.090000
v 1.440000 0.475000 -5.090000
v 1.440000 0.425000 -5.710000
v 1.440000 0.475000 -5.710000
v 2.360000 0.425000 -5.090000
v 2.360000 0.475000 -5.090000
v 2.360000 0.425000 -5.710000
v 2.360000 0.475000 -5.710000
v 3.725000 0.000000 -0.600000
v 3.725000 2.800000 -0.600000
v 3.725000 0.000000 -1.800000
v 3.725000 2.800000 -1.800000
v 3.775000 0.000000 -0.600000
v 3.775000 2.800000 -0.600000
v 3.775000 0.000000 -1.800000
v 3.775000 2.800000 -1.800000
v 3.645000 0.000000 -1.200000
v 3.645000 2.800000 -1.200000
v 3.645000 0.000000 -2.400000
v 3.645000 2.800000 -2.400000
v 3.695000 0.000000 -1.200000
v 3.695000 2.800000 -1.200000
v 3.695000 0.000000 -2.400000
v 3.695000 2.800000 -2.400000
v 3.565000 0.000000 -1.800000
v 3.565000 2.800000 -1.800000
v 3.565000 0.000000 -3.000000
v 3.565000 2.800000 -3.000000
v 3.615000 0.000000 -1.800000
v 3.615000 2.800000 -1.800000
v 3.615000 0.000000 -3.000000
v 3.615000 2.800000 -3.000000
v 0.000000 2.980000 -3.000000
v 0.000000 2.924721 -3.076085
v 0.000000 2.875279 -3.076085
v 0.000000 2.820000 -3.000000
v 0.027639 2.964721 -3.038042
v 0.044721 2.924721 -3.061554
v 0.044721 2.875279 -3.061554
v 0.027639 2.835279 -3.038042
v 0.044721 2.964721 -3.014531
v 0.072361 2.924721 -3.023511
v 0.072361 2.875279 -3.023511
v 0.044721 2.835279 -3.014531
v 0.044721 2.964721 -2.985469
v 0.072361 2.924721 -2.976489
v 0.072361 2.875279 -2.976489
v 0.044721 2.835279 -2.985469
v 0.027639 2.964721 -2.961958
v 0.044721 2.924721 -2.938446
v 0.044721 2.875279 -2.938446
v 0.027639 2.835279 -2.961958
v 0.000000 2.964721 -2.952977
v 0.000000 2.924721 -2.923915
v 0.000000 2.875279 -2.923915
v 0.000000 2.835279 -2.952977
v -0.027639 2.964721 -2.961958
v -0.044721 2.924721 -2.938446
v -0.044721 2.875279 -2.938446
v -0.027639 2.835279 -2.961958
v -0.044721 2.964721 -2.985469
v -0.072361 2.924721 -2.976489
v -0.072361 2.875279 -2.976489
v -0.044721 2.835279 -2.985469
v -0.044721 2.964721 -3.014531
v -0.072361 2.924721 -3.023511
v -0.072361 2.875279 -3.023511
v -0.044721 2.835279 -3.014531
v -0.027639 2.964721 -3.038042
v -0.044721 2.924721 -3.061554
v -0.044721 2.875279 -3.061554
v -0.027639 2.835279 -3.038042
v -0.000000 2.964721 -3.047023
v -0.000000 2.835279 -3.047023
vn -1.0000 -0.0000 -0.0000
vn -0.0000 -0.0000 -1.0000
vn 1.0000 -0.0000 -0.0000
vn -0.0000 -0.0000 1.0000
vn -0.0000 -1.0000 -0.0000
vn -0.0000 1.0000 -0.0000
vn 0.2542 -0.5685 -0.7824
vn 0.2542 0.5685 -0.7824
vn 0.0999 -0.9463 -0.3075
vn 0.3090 -0.0000 -0.9511
vn 0.0999 0.9463 -0.3075
vn 0.6656 -0.5685 -0.4836
vn 0.6656 0.5685 -0.4836
vn 0.2616 -0.9463 -0.1900
vn 0.8090 -0.0000 -0.5878
vn 0.2616 0.9463 -0.1900
vn 0.8227 -0.5685 -0.0000
vn 0.8227 0.5685 -0.0000
vn 0.3233 -0.9463 -0.0000
vn 0.3233 0.9463 -0.0000
vn 0.6656 -0.5685 0.4836
vn 0.6656 0.5685 0.4836
vn 0.2616 -0.9463 0.1900
vn 0.8090 -0.0000 0.5878
vn 0.2616 0.9463 0.1900
vn 0.2542 -0.5685 0.7824
vn 0.2542 0.5685 0.7824
vn 0.0999 -0.9463 0.3075
vn 0.3090 -0.0000 0.9511
vn 0.0999 0.9463 0.3075
vn -0.2542 -0.5685 0.7824
vn -0.2542 0.5685 0.7824
vn -0.0999 -0.9463 0.3075
vn -0.3090 -0.0000 0.9511
vn -0.0999 0.9463 0.3075
vn -0.6656 -0.5685 0.4836
vn -0.6656 0.5685 0.4836
vn -0.2616 -0.9463 0.1900
vn -0.8090 -0.0000 0.5878
vn -0.2616 0.9463 0.1900
vn -0.8227 -0.5685 -0.0000
vn -0.8227 0.5685 -0.0000
vn -0.3233 -0.9463 -0.0000
vn -0.3233 0.9463 -0.0000
vn -0.6656 -0.5685 -0.4836
vn -0.6656 0.5685 -0.4836
vn -0.2616 -0.9463 -0.1900
vn -0.8090 -0.0000 -0.5878
vn -0.2616 0.9463 -0.1900
vn -0.2542 -0.5685 -0.7824
vn -0.2542 0.5685 -0.7824
vn -0.0999 -0.9463 -0.3075
vn -0.3090 -0.0000 -0.9511
vn -0.0999 0.9463 -0.3075
vt 0.933594 0.790039
vt 0.936523 0.441406
vt 0.936523 0.790039
vt 0.948242 0.580078
vt 0.951172 0.352539
vt 0.951172 0.580078
vt 0.948242 0.352539
vt 0.951172 0.002930
vt 0.922852 0.828125
vt 0.926758 0.441406
vt 0.926758 0.828125
vt 0.002930 0.434570
vt 0.389648 0.002930
vt 0.389648 0.434570
vt 0.396484 0.434570
vt 0.783203 0.002930
vt 0.783203 0.434570
vt 0.927734 0.247070
vt 0.937500 0.399414
vt 0.927734 0.399414
vt 0.789062 0.241211
vt 0.941406 0.013672
vt 0.941406 0.241211
vt 0.789062 0.013672
vt 0.941406 0.002930
vt 0.002930 0.828125
vt 0.155273 0.441406
vt 0.155273 0.828125
vt 0.884766 0.828125
vt 0.872070 0.441406
vt 0.884766 0.441406
vt 0.903320 0.828125
vt 0.890625 0.441406
vt 0.903320 0.441406
vt 0.479492 0.790039
vt 0.631836 0.441406
vt 0.631836 0.790039
vt 0.320312 0.798828
vt 0.472656 0.790039
vt 0.472656 0.798828
vt 0.320312 0.790039
vt 0.472656 0.441406
vt 0.909180 0.247070
vt 0.921875 0.399414
vt 0.909180 0.399414
vt 0.795898 0.873047
vt 0.808594 0.441406
vt 0.808594 0.873047
vt 0.815430 0.873047
vt 0.828125 0.441406
vt 0.828125 0.873047
vt 0.637695 0.790039
vt 0.790039 0.441406
vt 0.790039 0.790039
vt 0.162109 0.798828
vt 0.314453 0.790039
vt 0.314453 0.798828
vt 0.162109 0.790039
vt 0.314453 0.441406
vt 0.890625 0.247070
vt 0.902344 0.399414
vt 0.890625 0.399414
vt 0.833984 0.873047
vt 0.846680 0.441406
vt 0.846680 0.873047
vt 0.853516 0.873047
vt 0.865234 0.441406
vt 0.865234 0.873047
vt 0.881836 0.424805
vt 0.882812 0.431641
vt 0.881836 0.431641
vt 0.971680 0.216797
vt 0.978516 0.004883
vt 0.978516 0.216797
vt 0.971680 0.004883
vt 0.978516 0.002930
vt 0.910156 0.800781
vt 0.916992 0.441406
vt 0.916992 0.800781
vt 0.976562 0.946289
vt 0.974609 0.586914
vt 0.976562 0.586914
vt 0.984375 0.946289
vt 0.983398 0.586914
vt 0.984375 0.586914
vt 0.958008 0.447266
vt 0.964844 0.228516
vt 0.964844 0.447266
vt 0.948242 0.805664
vt 0.955078 0.804688
vt 0.955078 0.805664
vt 0.948242 0.804688
vt 0.955078 0.586914
vt 0.865234 0.424805
vt 0.867188 0.431641
vt 0.865234 0.431641
vt 0.971680 0.492188
vt 0.972656 0.222656
vt 0.972656 0.492188
vt 0.979492 0.492188
vt 0.981445 0.222656
vt 0.981445 0.492188
vt 0.960938 0.804688
vt 0.968750 0.586914
vt 0.968750 0.804688
vt 0.958008 0.222656
vt 0.964844 0.220703
vt 0.964844 0.222656
vt 0.958008 0.220703
vt 0.964844 0.002930
vt 0.873047 0.424805
vt 0.875000 0.431641
vt 0.873047 0.431641
vt 0.987305 0.492188
vt 0.989258 0.222656
vt 0.989258 0.492188
vt 0.991211 0.856445
vt 0.993164 0.586914
vt 0.993164 0.856445
vt 0.205078 0.804688
vt 0.241211 0.903320
vt 0.205078 0.903320
vt 0.162109 0.804688
vt 0.163086 0.903320
vt 0.162109 0.903320
vt 0.163086 0.804688
vt 0.199219 0.903320
vt 0.125000 0.879883
vt 0.126953 0.978516
vt 0.125000 0.978516
vt 0.625000 0.972656
vt 0.625977 0.928711
vt 0.625977 0.972656
vt 0.632812 0.972656
vt 0.634766 0.928711
vt 0.634766 0.972656
vt 0.731445 0.796875
vt 0.777344 0.904297
vt 0.731445 0.904297
vt 0.676758 0.796875
vt 0.678711 0.904297
vt 0.676758 0.904297
vt 0.678711 0.796875
vt 0.724609 0.904297
vt 0.862305 0.879883
vt 0.864258 0.986328
vt 0.862305 0.986328
vt 0.974609 0.578125
vt 0.975586 0.520508
vt 0.975586 0.578125
vt 0.982422 0.578125
vt 0.983398 0.520508
vt 0.983398 0.578125
vt 0.117188 0.935547
vt 0.118164 0.957031
vt 0.117188 0.957031
vt 0.916964 0.405512
vt 0.918024 0.428050
vt 0.916964 0.428050
vt 0.918024 0.405512
vt 0.919847 0.428050
vt 0.964932 0.501362
vt 0.966735 0.523900
vt 0.964932 0.523900
vt 0.832031 0.431641
vt 0.833008 0.429688
vt 0.833008 0.431641
vt 0.839844 0.431641
vt 0.840820 0.429688
vt 0.840820 0.431641
vt 0.846680 0.429688
vt 0.847656 0.430664
vt 0.846680 0.430664
vt 0.954102 0.969727
vt 0.955078 0.890625
vt 0.955078 0.969727
vt 0.954102 0.890625
vt 0.955078 0.889648
vt 0.992188 0.137695
vt 0.993164 0.002930
vt 0.993164 0.137695
vt 0.785156 0.930664
vt 0.784180 0.796875
vt 0.785156 0.796875
vt 0.961914 0.945312
vt 0.960938 0.810547
vt 0.961914 0.810547
vt 0.933594 0.889648
vt 0.947266 0.937500
vt 0.933594 0.937500
vt 0.133789 0.833984
vt 0.135742 0.882812
vt 0.133789 0.882812
vt 0.135742 0.833984
vt 0.149414 0.882812
vt 0.760742 0.910156
vt 0.762695 0.958984
vt 0.760742 0.958984
vt 0.840820 0.951172
vt 0.842773 0.934570
vt 0.842773 0.951172
vt 0.849609 0.951172
vt 0.852539 0.934570
vt 0.852539 0.951172
vt 0.938477 0.833984
vt 0.952148 0.882812
vt 0.938477 0.882812
vt 0.872070 0.833984
vt 0.874023 0.882812
vt 0.872070 0.882812
vt 0.874023 0.833984
vt 0.887695 0.882812
vt 0.769531 0.910156
vt 0.772461 0.958984
vt 0.769531 0.958984
vt 0.036133 0.952148
vt 0.039062 0.935547
vt 0.039062 0.952148
vt 0.045898 0.952148
vt 0.047852 0.935547
vt 0.047852 0.952148
vt 0.379883 0.906250
vt 0.393555 0.955078
vt 0.379883 0.955078
vt 0.081055 0.879883
vt 0.083008 0.928711
vt 0.081055 0.928711
vt 0.083008 0.879883
vt 0.096680 0.928711
vt 0.247070 0.911133
vt 0.250000 0.958984
vt 0.247070 0.958984
vt 0.054688 0.952148
vt 0.056641 0.935547
vt 0.056641 0.952148
vt 0.063477 0.952148
vt 0.066406 0.935547
vt 0.066406 0.952148
vt 0.399414 0.906250
vt 0.413086 0.955078
vt 0.399414 0.955078
vt 0.102539 0.879883
vt 0.104492 0.928711
vt 0.102539 0.928711
vt 0.104492 0.879883
vt 0.118164 0.928711
vt 0.255859 0.911133
vt 0.258789 0.958984
vt 0.255859 0.958984
vt 0.072266 0.952148
vt 0.075195 0.935547
vt 0.075195 0.952148
vt 0.081055 0.952148
vt 0.083984 0.935547
vt 0.083984 0.952148
vt 0.419922 0.906250
vt 0.432617 0.955078
vt 0.419922 0.955078
vt 0.379883 0.851562
vt 0.381836 0.900391
vt 0.379883 0.900391
vt 0.381836 0.851562
vt 0.395508 0.900391
vt 0.965820 0.529297
vt 0.967773 0.578125
vt 0.965820 0.578125
vt 0.090820 0.952148
vt 0.092773 0.935547
vt 0.092773 0.952148
vt 0.099609 0.952148
vt 0.102539 0.935547
vt 0.102539 0.952148
vt 0.162109 0.909180
vt 0.175781 0.958008
vt 0.162109 0.958008
vt 0.401367 0.851562
vt 0.403320 0.900391
vt 0.401367 0.900391
vt 0.403320 0.851562
vt 0.416992 0.900391
vt 0.479492 0.928711
vt 0.481445 0.976562
vt 0.479492 0.976562
vt 0.108398 0.952148
vt 0.111328 0.935547
vt 0.111328 0.952148
vt 0.002930 0.953125
vt 0.005859 0.936523
vt 0.005859 0.953125
vt 0.181641 0.909180
vt 0.195312 0.958008
vt 0.181641 0.958008
vt 0.002930 0.880859
vt 0.004883 0.929688
vt 0.002930 0.929688
vt 0.004883 0.880859
vt 0.018555 0.929688
vt 0.488281 0.928711
vt 0.490234 0.976562
vt 0.488281 0.976562
vt 0.011719 0.953125
vt 0.014648 0.936523
vt 0.014648 0.953125
vt 0.784180 0.954102
vt 0.786133 0.937500
vt 0.786133 0.954102
vt 0.202148 0.909180
vt 0.215820 0.958008
vt 0.202148 0.958008
vt 0.423828 0.851562
vt 0.425781 0.900391
vt 0.423828 0.900391
vt 0.425781 0.851562
vt 0.439453 0.900391
vt 0.497070 0.928711
vt 0.500000 0.976562
vt 0.497070 0.976562
vt 0.697266 0.959961
vt 0.699219 0.942383
vt 0.699219 0.959961
vt 0.706055 0.959961
vt 0.708984 0.942383
vt 0.708984 0.959961
vt 0.221680 0.909180
vt 0.235352 0.958008
vt 0.221680 0.958008
vt 0.247070 0.855469
vt 0.249023 0.904297
vt 0.247070 0.904297
vt 0.249023 0.855469
vt 0.262695 0.904297
vt 0.465820 0.896484
vt 0.468750 0.945312
vt 0.465820 0.945312
vt 0.910156 0.824219
vt 0.912109 0.807617
vt 0.912109 0.824219
vt 0.811523 0.951172
vt 0.814453 0.934570
vt 0.814453 0.951172
vt 0.916992 0.433594
vt 0.917969 0.434570
vt 0.916992 0.434570
vt 0.025391 0.960938
vt 0.026367 0.882812
vt 0.026367 0.960938
vt 0.025391 0.882812
vt 0.026367 0.880859
vt 0.995117 0.357422
vt 0.996094 0.222656
vt 0.996094 0.357422
vt 0.985352 0.137695
vt 0.984375 0.002930
vt 0.985352 0.002930
vt 0.270508 0.990234
vt 0.269531 0.855469
vt 0.270508 0.855469
vt 0.279297 0.897461
vt 0.292969 0.946289
vt 0.279297 0.946289
vt 0.894531 0.833984
vt 0.896484 0.882812
vt 0.894531 0.882812
vt 0.896484 0.833984
vt 0.910156 0.882812
vt 0.505859 0.928711
vt 0.508789 0.976562
vt 0.505859 0.976562
vt 0.714844 0.959961
vt 0.717773 0.942383
vt 0.717773 0.959961
vt 0.723633 0.959961
vt 0.726562 0.942383
vt 0.726562 0.959961
vt 0.299805 0.897461
vt 0.313477 0.946289
vt 0.299805 0.946289
vt 0.795898 0.879883
vt 0.798828 0.927734
vt 0.795898 0.927734
vt 0.798828 0.879883
vt 0.812500 0.927734
vt 0.514648 0.928711
vt 0.517578 0.976562
vt 0.514648 0.976562
vt 0.733398 0.959961
vt 0.735352 0.942383
vt 0.735352 0.959961
vt 0.742188 0.959961
vt 0.744141 0.942383
vt 0.744141 0.959961
vt 0.914062 0.889648
vt 0.927734 0.937500
vt 0.914062 0.937500
vt 0.916016 0.833984
vt 0.917969 0.882812
vt 0.916016 0.882812
vt 0.917969 0.833984
vt 0.931641 0.882812
vt 0.524414 0.928711
vt 0.526367 0.976562
vt 0.524414 0.976562
vt 0.133789 0.960938
vt 0.136719 0.944336
vt 0.136719 0.960938
vt 0.142578 0.960938
vt 0.145508 0.944336
vt 0.145508 0.960938
vt 0.446289 0.896484
vt 0.459961 0.945312
vt 0.446289 0.945312
vt 0.133789 0.889648
vt 0.135742 0.937500
vt 0.133789 0.937500
vt 0.135742 0.889648
vt 0.149414 0.937500
vt 0.533203 0.928711
vt 0.536133 0.976562
vt 0.533203 0.976562
vt 0.151367 0.960938
vt 0.154297 0.944336
vt 0.154297 0.960938
vt 0.872070 0.960938
vt 0.875000 0.944336
vt 0.875000 0.960938
vt 0.676758 0.910156
vt 0.690430 0.958984
vt 0.676758 0.958984
vt 0.818359 0.879883
vt 0.820312 0.927734
vt 0.818359 0.927734
vt 0.820312 0.879883
vt 0.833984 0.927734
vt 0.541992 0.928711
vt 0.544922 0.976562
vt 0.541992 0.976562
vt 0.880859 0.960938
vt 0.883789 0.944336
vt 0.883789 0.960938
vt 0.889648 0.960938
vt 0.892578 0.944336
vt 0.892578 0.960938
vt 0.319336 0.897461
vt 0.333008 0.946289
vt 0.319336 0.946289
vt 0.840820 0.879883
vt 0.842773 0.927734
vt 0.840820 0.927734
vt 0.842773 0.879883
vt 0.856445 0.927734
vt 0.550781 0.928711
vt 0.553711 0.976562
vt 0.550781 0.976562
vt 0.899414 0.960938
vt 0.901367 0.944336
vt 0.901367 0.960938
vt 0.908203 0.960938
vt 0.910156 0.944336
vt 0.910156 0.960938
vt 0.894531 0.889648
vt 0.907227 0.937500
vt 0.894531 0.937500
vt 0.872070 0.889648
vt 0.874023 0.937500
vt 0.872070 0.937500
vt 0.874023 0.889648
vt 0.887695 0.937500
vt 0.559570 0.928711
vt 0.562500 0.976562
vt 0.559570 0.976562
vt 0.916992 0.960938
vt 0.919922 0.944336
vt 0.919922 0.960938
vt 0.925781 0.960938
vt 0.928711 0.944336
vt 0.928711 0.960938
vt 0.339844 0.897461
vt 0.353516 0.946289
vt 0.339844 0.946289
vt 0.036133 0.879883
vt 0.039062 0.928711
vt 0.036133 0.928711
vt 0.039062 0.879883
vt 0.051758 0.928711
vt 0.569336 0.928711
vt 0.571289 0.976562
vt 0.569336 0.976562
vt 0.934570 0.960938
vt 0.937500 0.944336
vt 0.937500 0.960938
vt 0.944336 0.960938
vt 0.946289 0.944336
vt 0.946289 0.960938
vt 0.359375 0.897461
vt 0.373047 0.946289
vt 0.359375 0.946289
vt 0.058594 0.879883
vt 0.060547 0.928711
vt 0.058594 0.928711
vt 0.060547 0.879883
vt 0.074219 0.928711
vt 0.751953 0.910156
vt 0.753906 0.958984
vt 0.751953 0.958984
vt 0.820312 0.951172
vt 0.823242 0.934570
vt 0.823242 0.951172
vt 0.830078 0.951172
vt 0.832031 0.934570
vt 0.832031 0.951172
vt 0.890625 0.406250
vt 0.911133 0.431641
vt 0.890625 0.431641
vt 0.789062 0.423828
vt 0.815430 0.400391
vt 0.815430 0.423828
vt 0.789062 0.400391
vt 0.815430 0.378906
vt 0.279297 0.891602
vt 0.305664 0.851562
vt 0.305664 0.891602
vt 0.094727 0.874023
vt 0.069336 0.833984
vt 0.094727 0.833984
vt 0.126953 0.874023
vt 0.101562 0.833984
vt 0.126953 0.833984
vt 0.925781 0.427734
vt 0.926758 0.406250
vt 0.926758 0.427734
vt 0.640625 0.974609
vt 0.641602 0.951172
vt 0.641602 0.974609
vt 0.640625 0.951172
vt 0.641602 0.928711
vt 0.664062 0.968750
vt 0.665039 0.928711
vt 0.665039 0.968750
vt 0.373047 0.844727
vt 0.346680 0.804688
vt 0.373047 0.804688
vt 0.406250 0.844727
vt 0.379883 0.804688
vt 0.406250 0.804688
vt 0.697266 0.910156
vt 0.717773 0.936523
vt 0.697266 0.936523
vt 0.821289 0.423828
vt 0.847656 0.400391
vt 0.847656 0.423828
vt 0.821289 0.400391
vt 0.847656 0.378906
vt 0.311523 0.891602
vt 0.337891 0.851562
vt 0.337891 0.891602
vt 0.472656 0.844727
vt 0.446289 0.804688
vt 0.472656 0.804688
vt 0.062500 0.874023
vt 0.036133 0.833984
vt 0.062500 0.833984
vt 0.933594 0.818359
vt 0.934570 0.796875
vt 0.934570 0.818359
vt 0.656250 0.974609
vt 0.657227 0.951172
vt 0.657227 0.974609
vt 0.656250 0.951172
vt 0.657227 0.928711
vt 0.795898 0.974609
vt 0.797852 0.934570
vt 0.797852 0.974609
vt 0.306641 0.844727
vt 0.279297 0.804688
vt 0.306641 0.804688
vt 0.339844 0.844727
vt 0.312500 0.804688
vt 0.339844 0.804688
vt 0.724609 0.910156
vt 0.745117 0.936523
vt 0.724609 0.936523
vt 0.247070 0.849609
vt 0.273438 0.826172
vt 0.273438 0.849609
vt 0.247070 0.826172
vt 0.273438 0.804688
vt 0.344727 0.891602
vt 0.370117 0.851562
vt 0.370117 0.891602
vt 0.879883 0.418945
vt 0.854492 0.378906
vt 0.879883 0.378906
vt 0.472656 0.890625
vt 0.446289 0.850586
vt 0.472656 0.850586
vt 0.933594 0.427734
vt 0.934570 0.406250
vt 0.934570 0.427734
vt 0.648438 0.974609
vt 0.649414 0.951172
vt 0.649414 0.974609
vt 0.648438 0.951172
vt 0.649414 0.928711
vt 0.803711 0.974609
vt 0.805664 0.934570
vt 0.805664 0.974609
vt 0.439453 0.844727
vt 0.413086 0.804688
vt 0.439453 0.804688
vt 0.030273 0.875000
vt 0.002930 0.833984
vt 0.030273 0.833984
vt 0.529297 0.796875
vt 0.572266 0.921875
vt 0.529297 0.921875
vt 0.839844 0.247070
vt 0.840820 0.373047
vt 0.839844 0.373047
vt 0.840820 0.247070
vt 0.883789 0.373047
vt 0.958008 0.453125
vt 0.958984 0.578125
vt 0.958008 0.578125
vt 0.593750 0.981445
vt 0.595703 0.928711
vt 0.595703 0.981445
vt 0.601562 0.981445
vt 0.602539 0.928711
vt 0.602539 0.981445
vt 0.579102 0.796875
vt 0.621094 0.921875
vt 0.579102 0.921875
vt 0.789062 0.247070
vt 0.791016 0.373047
vt 0.789062 0.373047
vt 0.791016 0.247070
vt 0.833008 0.373047
vt 0.991211 0.862305
vt 0.992188 0.987305
vt 0.991211 0.987305
vt 0.579102 0.981445
vt 0.580078 0.928711
vt 0.580078 0.981445
vt 0.585938 0.981445
vt 0.587891 0.928711
vt 0.587891 0.981445
vt 0.627930 0.796875
vt 0.670898 0.921875
vt 0.627930 0.921875
vt 0.479492 0.796875
vt 0.480469 0.921875
vt 0.479492 0.921875
vt 0.480469 0.796875
vt 0.523438 0.921875
vt 0.995117 0.363281
vt 0.997070 0.488281
vt 0.995117 0.488281
vt 0.609375 0.981445
vt 0.610352 0.928711
vt 0.610352 0.981445
vt 0.617188 0.981445
vt 0.618164 0.928711
vt 0.618164 0.981445
vt 0.789062 0.433594
vt 0.791016 0.434570
vt 0.790039 0.434570
vt 0.789062 0.431641
vt 0.791016 0.429688
vt 0.791016 0.431641
vt 0.813890 0.433005
vt 0.815136 0.434720
vt 0.813890 0.435125
vt 0.791016 0.433594
vt 0.822059 0.434720
vt 0.823304 0.433005
vt 0.823304 0.435125
vt 0.791992 0.434570
vt 0.791992 0.429688
vt 0.791992 0.431641
vt 0.812644 0.434720
vt 0.791992 0.433594
vt 0.824550 0.434720
vt 0.792969 0.434570
vt 0.793945 0.431641
vt 0.811874 0.433660
vt 0.793945 0.433594
vt 0.825320 0.433660
vt 0.810628 0.434065
vt 0.811874 0.432350
vt 0.826566 0.434065
vt 0.825320 0.432350
vt 0.826566 0.431945
vt 0.855424 0.430941
vt 0.857652 0.429709
vt 0.857652 0.430941
vt 0.859455 0.428931
vt 0.857652 0.427698
vt 0.859455 0.427688
vt 0.853621 0.428931
vt 0.855424 0.427698
vt 0.855424 0.429709
vt 0.812644 0.431290
vt 0.824550 0.431290
vt 0.859455 0.426439
vt 0.853621 0.426439
vt 0.855424 0.425677
vt 0.813890 0.430886
vt 0.857652 0.425677
vt 0.823304 0.430886
vt 0.815906 0.430231
vt 0.815136 0.431290
vt 0.821289 0.430231
vt 0.823304 0.429576
vt 0.857652 0.424418
vt 0.822059 0.431290
vt 0.799696 0.433607
vt 0.801815 0.435410
vt 0.800756 0.435410
vt 0.800756 0.429576
vt 0.801411 0.431379
vt 0.799696 0.431379
vt 0.815906 0.432350
vt 0.801411 0.433607
vt 0.821289 0.432350
vt 0.803125 0.435410
vt 0.803125 0.429576
vt 0.803530 0.431379
vt 0.815906 0.433660
vt 0.803530 0.433607
vt 0.821289 0.433660
vt 0.805245 0.433607
vt 0.804185 0.435410
vt 0.805245 0.431379
vt 0.933594 0.441406
vt 0.948242 0.002930
vt 0.922852 0.441406
vt 0.002930 0.002930
vt 0.396484 0.002930
vt 0.937500 0.247070
vt 0.789062 0.002930
vt 0.002930 0.441406
vt 0.872070 0.828125
vt 0.890625 0.828125
vt 0.479492 0.441406
vt 0.320312 0.441406
vt 0.921875 0.247070
vt 0.795898 0.441406
vt 0.815430 0.441406
vt 0.637695 0.441406
vt 0.162109 0.441406
vt 0.902344 0.247070
vt 0.833984 0.441406
vt 0.853516 0.441406
vt 0.882812 0.424805
vt 0.971680 0.002930
vt 0.910156 0.441406
vt 0.974609 0.946289
vt 0.983398 0.946289
vt 0.958008 0.228516
vt 0.948242 0.586914
vt 0.867188 0.424805
vt 0.971680 0.222656
vt 0.979492 0.222656
vt 0.960938 0.586914
vt 0.958008 0.002930
vt 0.875000 0.424805
vt 0.987305 0.222656
vt 0.991211 0.586914
vt 0.241211 0.804688
vt 0.199219 0.804688
vt 0.126953 0.879883
vt 0.625000 0.928711
vt 0.632812 0.928711
vt 0.777344 0.796875
vt 0.724609 0.796875
vt 0.864258 0.879883
vt 0.974609 0.520508
vt 0.982422 0.520508
vt 0.118164 0.935547
vt 0.919847 0.405512
vt 0.966735 0.501362
vt 0.832031 0.429688
vt 0.839844 0.429688
vt 0.847656 0.429688
vt 0.954102 0.889648
vt 0.992188 0.002930
vt 0.784180 0.930664
vt 0.960938 0.945312
vt 0.947266 0.889648
vt 0.149414 0.833984
vt 0.762695 0.910156
vt 0.840820 0.934570
vt 0.849609 0.934570
vt 0.952148 0.833984
vt 0.887695 0.833984
vt 0.772461 0.910156
vt 0.036133 0.935547
vt 0.045898 0.935547
vt 0.393555 0.906250
vt 0.096680 0.879883
vt 0.250000 0.911133
vt 0.054688 0.935547
vt 0.063477 0.935547
vt 0.413086 0.906250
vt 0.118164 0.879883
vt 0.258789 0.911133
vt 0.072266 0.935547
vt 0.081055 0.935547
vt 0.432617 0.906250
vt 0.395508 0.851562
vt 0.967773 0.529297
vt 0.090820 0.935547
vt 0.099609 0.935547
vt 0.175781 0.909180
vt 0.416992 0.851562
vt 0.481445 0.928711
vt 0.108398 0.935547
vt 0.002930 0.936523
vt 0.195312 0.909180
vt 0.018555 0.880859
vt 0.490234 0.928711
vt 0.011719 0.936523
vt 0.784180 0.937500
vt 0.215820 0.909180
vt 0.439453 0.851562
vt 0.500000 0.928711
vt 0.697266 0.942383
vt 0.706055 0.942383
vt 0.235352 0.909180
vt 0.262695 0.855469
vt 0.468750 0.896484
vt 0.910156 0.807617
vt 0.811523 0.934570
vt 0.917969 0.433594
vt 0.025391 0.880859
vt 0.995117 0.222656
vt 0.984375 0.137695
vt 0.269531 0.990234
vt 0.292969 0.897461
vt 0.910156 0.833984
vt 0.508789 0.928711
vt 0.714844 0.942383
vt 0.723633 0.942383
vt 0.313477 0.897461
vt 0.812500 0.879883
vt 0.517578 0.928711
vt 0.733398 0.942383
vt 0.742188 0.942383
vt 0.927734 0.889648
vt 0.931641 0.833984
vt 0.526367 0.928711
vt 0.133789 0.944336
vt 0.142578 0.944336
vt 0.459961 0.896484
vt 0.149414 0.889648
vt 0.536133 0.928711
vt 0.151367 0.944336
vt 0.872070 0.944336
vt 0.690430 0.910156
vt 0.833984 0.879883
vt 0.544922 0.928711
vt 0.880859 0.944336
vt 0.889648 0.944336
vt 0.333008 0.897461
vt 0.856445 0.879883
vt 0.553711 0.928711
vt 0.899414 0.944336
vt 0.908203 0.944336
vt 0.907227 0.889648
vt 0.887695 0.889648
vt 0.562500 0.928711
vt 0.916992 0.944336
vt 0.925781 0.944336
vt 0.353516 0.897461
vt 0.051758 0.879883
vt 0.571289 0.928711
vt 0.934570 0.944336
vt 0.944336 0.944336
vt 0.373047 0.897461
vt 0.074219 0.879883
vt 0.753906 0.910156
vt 0.820312 0.934570
vt 0.830078 0.934570
vt 0.911133 0.406250
vt 0.789062 0.378906
vt 0.279297 0.851562
vt 0.069336 0.874023
vt 0.101562 0.874023
vt 0.925781 0.406250
vt 0.640625 0.928711
vt 0.664062 0.928711
vt 0.346680 0.844727
vt 0.379883 0.844727
vt 0.717773 0.910156
vt 0.821289 0.378906
vt 0.311523 0.851562
vt 0.446289 0.844727
vt 0.036133 0.874023
vt 0.933594 0.796875
vt 0.656250 0.928711
vt 0.795898 0.934570
vt 0.279297 0.844727
vt 0.312500 0.844727
vt 0.745117 0.910156
vt 0.247070 0.804688
vt 0.344727 0.851562
vt 0.854492 0.418945
vt 0.446289 0.890625
vt 0.933594 0.406250
vt 0.648438 0.928711
vt 0.803711 0.934570
vt 0.413086 0.844727
vt 0.002930 0.875000
vt 0.572266 0.796875
vt 0.883789 0.247070
vt 0.958984 0.453125
vt 0.593750 0.928711
vt 0.601562 0.928711
vt 0.621094 0.796875
vt 0.833008 0.247070
vt 0.992188 0.862305
vt 0.579102 0.928711
vt 0.585938 0.928711
vt 0.670898 0.796875
vt 0.523438 0.796875
vt 0.997070 0.363281
vt 0.609375 0.928711
vt 0.617188 0.928711
vt 0.790039 0.429688
vt 0.792969 0.429688
vt 0.810628 0.431945
vt 0.853621 0.427688
vt 0.813890 0.429576
vt 0.855424 0.424418
vt 0.801815 0.429576
vt 0.804185 0.429576
s 0
g pe_props_render_EnvironmentBakedAtlas
usemtl EnvironmentBakedAtlas
f 2/1/1 3/2/1 1/3/1
f 4/4/2 7/5/2 3/6/2
f 8/7/3 5/8/3 7/5/3
f 6/9/4 1/10/4 5/11/4
f 7/12/5 1/13/5 3/14/5
f 4/15/6 6/16/6 8/17/6
f 10/18/1 11/19/1 9/20/1
f 12/21/2 15/22/2 11/23/2
f 16/24/3 13/25/3 15/22/3
f 14/26/4 9/27/4 13/28/4
f 15/29/5 9/30/5 11/31/5
f 12/32/6 14/33/6 16/34/6
f 18/35/1 19/36/1 17/37/1
f 20/38/2 23/39/2 19/40/2
f 24/41/3 21/42/3 23/39/3
f 22/43/4 17/44/4 21/45/4
f 23/46/5 17/47/5 19/48/5
f 20/49/6 22/50/6 24/51/6
f 26/52/1 27/53/1 25/54/1
f 28/55/2 31/56/2 27/57/2
f 32/58/3 29/59/3 31/56/3
f 30/60/4 25/61/4 29/62/4
f 31/63/5 25/64/5 27/65/5
f 28/66/6 30/67/6 32/68/6
f 34/69/1 35/70/1 33/71/1
f 36/72/2 39/73/2 35/74/2
f 40/75/3 37/76/3 39/73/3
f 38/77/4 33/78/4 37/79/4
f 39/80/5 33/81/5 35/82/5
f 36/83/6 38/84/6 40/85/6
f 42/86/1 43/87/1 41/88/1
f 44/89/2 47/90/2 43/91/2
f 48/92/3 45/93/3 47/90/3
f 46/94/4 41/95/4 45/96/4
f 47/97/5 41/98/5 43/99/5
f 44/100/6 46/101/6 48/102/6
f 50/103/1 51/104/1 49/105/1
f 52/106/2 55/107/2 51/108/2
f 56/109/3 53/110/3 55/107/3
f 54/111/4 49/112/4 53/113/4
f 55/114/5 49/115/5 51/116/5
f 52/117/6 54/118/6 56/119/6
f 58/120/1 59/121/1 57/122/1
f 60/123/2 63/124/2 59/125/2
f 64/126/3 61/127/3 63/124/3
f 62/128/4 57/129/4 61/130/4
f 63/131/5 57/132/5 59/133/5
f 60/134/6 62/135/6 64/136/6
f 66/137/1 67/138/1 65/139/1
f 68/140/2 71/141/2 67/142/2
f 72/143/3 69/144/3 71/141/3
f 70/145/4 65/146/4 69/147/4
f 71/148/5 65/149/5 67/150/5
f 68/151/6 70/152/6 72/153/6
f 74/154/1 75/155/1 73/156/1
f 76/157/2 79/158/2 75/159/2
f 80/160/3 77/161/3 79/158/3
f 78/162/4 73/163/4 77/164/4
f 79/165/5 73/166/5 75/167/5
f 76/168/6 78/169/6 80/170/6
f 82/171/1 83/172/1 81/173/1
f 84/174/2 87/175/2 83/176/2
f 88/177/3 85/178/3 87/175/3
f 86/179/4 81/180/4 85/181/4
f 87/182/5 81/183/5 83/184/5
f 84/185/6 86/186/6 88/187/6
f 90/188/1 91/189/1 89/190/1
f 92/191/2 95/192/2 91/193/2
f 96/194/3 93/195/3 95/192/3
f 94/196/4 89/197/4 93/198/4
f 95/199/5 89/200/5 91/201/5
f 92/202/6 94/203/6 96/204/6
f 98/205/1 99/206/1 97/207/1
f 100/208/2 103/209/2 99/210/2
f 104/211/3 101/212/3 103/209/3
f 102/213/4 97/214/4 101/215/4
f 103/216/5 97/217/5 99/218/5
f 100/219/6 102/220/6 104/221/6
f 106/222/1 107/223/1 105/224/1
f 108/225/2 111/226/2 107/227/2
f 112/228/3 109/229/3 111/226/3
f 110/230/4 105/231/4 109/232/4
f 111/233/5 105/234/5 107/235/5
f 108/236/6 110/237/6 112/238/6
f 114/239/1 115/240/1 113/241/1
f 116/242/2 119/243/2 115/244/2
f 120/245/3 117/246/3 119/243/3
f 118/247/4 113/248/4 117/249/4
f 119/250/5 113/251/5 115/252/5
f 116/253/6 118/254/6 120/255/6
f 122/256/1 123/257/1 121/258/1
f 124/259/2 127/260/2 123/261/2
f 128/262/3 125/263/3 127/260/3
f 126/264/4 121/265/4 125/266/4
f 127/267/5 121/268/5 123/269/5
f 124/270/6 126/271/6 128/272/6
f 130/273/1 131/274/1 129/275/1
f 132/276/2 135/277/2 131/278/2
f 136/279/3 133/280/3 135/277/3
f 134/281/4 129/282/4 133/283/4
f 135/284/5 129/285/5 131/286/5
f 132/287/6 134/288/6 136/289/6
f 138/290/1 139/291/1 137/292/1
f 140/293/2 143/294/2 139/295/2
f 144/296/3 141/297/3 143/294/3
f 142/298/4 137/299/4 141/300/4
f 143/301/5 137/302/5 139/303/5
f 140/304/6 142/305/6 144/306/6
f 146/307/1 147/308/1 145/309/1
f 148/310/2 151/311/2 147/312/2
f 152/313/3 149/314/3 151/311/3
f 150/315/4 145/316/4 149/317/4
f 151/318/5 145/319/5 147/320/5
f 148/321/6 150/322/6 152/323/6
f 154/324/1 155/325/1 153/326/1
f 156/327/2 159/328/2 155/329/2
f 160/330/3 157/331/3 159/328/3
f 158/332/4 153/333/4 157/334/4
f 159/335/5 153/336/5 155/337/5
f 156/338/6 158/339/6 160/340/6
f 162/341/1 163/342/1 161/343/1
f 164/344/2 167/345/2 163/346/2
f 168/347/3 165/348/3 167/345/3
f 166/349/4 161/350/4 165/351/4
f 167/352/5 161/353/5 163/354/5
f 164/355/6 166/356/6 168/357/6
f 170/358/1 171/359/1 169/360/1
f 172/361/2 175/362/2 171/363/2
f 176/364/3 173/365/3 175/362/3
f 174/366/4 169/367/4 173/368/4
f 175/369/5 169/370/5 171/371/5
f 172/372/6 174/373/6 176/374/6
f 178/375/1 179/376/1 177/377/1
f 180/378/2 183/379/2 179/380/2
f 184/381/3 181/382/3 183/379/3
f 182/383/4 177/384/4 181/385/4
f 183/386/5 177/387/5 179/388/5
f 180/389/6 182/390/6 184/391/6
f 186/392/1 187/393/1 185/394/1
f 188/395/2 191/396/2 187/397/2
f 192/398/3 189/399/3 191/396/3
f 190/400/4 185/401/4 189/402/4
f 191/403/5 185/404/5 187/405/5
f 188/406/6 190/407/6 192/408/6
f 194/409/1 195/410/1 193/411/1
f 196/412/2 199/413/2 195/414/2
f 200/415/3 197/416/3 199/413/3
f 198/417/4 193/418/4 197/419/4
f 199/420/5 193/421/5 195/422/5
f 196/423/6 198/424/6 200/425/6
f 202/426/1 203/427/1 201/428/1
f 204/429/2 207/430/2 203/431/2
f 208/432/3 205/433/3 207/430/3
f 206/434/4 201/435/4 205/436/4
f 207/437/5 201/438/5 203/439/5
f 204/440/6 206/441/6 208/442/6
f 210/443/1 211/444/1 209/445/1
f 212/446/2 215/447/2 211/448/2
f 216/449/3 213/450/3 215/447/3
f 214/451/4 209/452/4 213/453/4
f 215/454/5 209/455/5 211/456/5
f 212/457/6 214/458/6 216/459/6
f 218/460/1 219/461/1 217/462/1
f 220/463/2 223/464/2 219/465/2
f 224/466/3 221/467/3 223/464/3
f 222/468/4 217/469/4 221/470/4
f 223/471/5 217/472/5 219/473/5
f 220/474/6 222/475/6 224/476/6
f 226/477/1 227/478/1 225/479/1
f 228/480/2 231/481/2 227/482/2
f 232/483/3 229/484/3 231/481/3
f 230/485/4 225/486/4 229/487/4
f 231/488/5 225/489/5 227/490/5
f 228/491/6 230/492/6 232/493/6
f 234/494/1 235/495/1 233/496/1
f 236/497/2 239/498/2 235/499/2
f 240/500/3 237/501/3 239/498/3
f 238/502/4 233/503/4 237/504/4
f 239/505/5 233/506/5 235/507/5
f 236/508/6 238/509/6 240/510/6
f 242/511/1 243/512/1 241/513/1
f 244/514/2 247/515/2 243/516/2
f 248/517/3 245/518/3 247/515/3
f 246/519/4 241/520/4 245/521/4
f 247/522/5 241/523/5 243/524/5
f 244/525/6 246/526/6 248/527/6
f 250/528/1 251/529/1 249/530/1
f 252/531/2 255/532/2 251/533/2
f 256/534/3 253/535/3 255/532/3
f 254/536/4 249/537/4 253/538/4
f 255/539/5 249/540/5 251/541/5
f 252/542/6 254/543/6 256/544/6
f 258/545/1 259/546/1 257/547/1
f 260/548/2 263/549/2 259/550/2
f 264/551/3 261/552/3 263/549/3
f 262/553/4 257/554/4 261/555/4
f 263/556/5 257/557/5 259/558/5
f 260/559/6 262/560/6 264/561/6
f 266/562/1 267/563/1 265/564/1
f 268/565/2 271/566/2 267/567/2
f 272/568/3 269/569/3 271/566/3
f 270/570/4 265/571/4 269/572/4
f 271/573/5 265/574/5 267/575/5
f 268/576/6 270/577/6 272/578/6
f 274/579/1 275/580/1 273/581/1
f 276/582/2 279/583/2 275/584/2
f 280/585/3 277/586/3 279/583/3
f 278/587/4 273/588/4 277/589/4
f 279/590/5 273/591/5 275/592/5
f 276/593/6 278/594/6 280/595/6
f 282/596/1 283/597/1 281/598/1
f 284/599/2 287/600/2 283/601/2
f 288/602/3 285/603/3 287/600/3
f 286/604/4 281/605/4 285/606/4
f 287/607/5 281/608/5 283/609/5
f 284/610/6 286/611/6 288/612/6
f 290/613/1 291/614/1 289/615/1
f 292/616/2 295/617/2 291/618/2
f 296/619/3 293/620/3 295/617/3
f 294/621/4 289/622/4 293/623/4
f 295/624/5 289/625/5 291/626/5
f 292/627/6 294/628/6 296/629/6
f 298/630/1 299/631/1 297/632/1
f 300/633/2 303/634/2 299/635/2
f 304/636/3 301/637/3 303/634/3
f 302/638/4 297/639/4 301/640/4
f 303/641/5 297/642/5 299/643/5
f 300/644/6 302/645/6 304/646/6
f 306/647/1 307/648/1 305/649/1
f 308/650/2 311/651/2 307/652/2
f 312/653/3 309/654/3 311/651/3
f 310/655/4 305/656/4 309/657/4
f 311/658/5 305/659/5 307/660/5
f 308/661/6 310/662/6 312/663/6
f 315/664/7 320/665/7 354/666/7
f 314/667/8 317/668/8 318/669/8
f 316/670/9 354/671/9 320/672/9
f 314/667/10 319/673/10 315/664/10
f 353/674/11 313/675/11 317/676/11
f 319/673/12 324/677/12 320/665/12
f 318/669/13 321/678/13 322/679/13
f 316/670/14 320/672/14 324/680/14
f 318/669/15 323/681/15 319/673/15
f 317/676/16 313/675/16 321/682/16
f 323/681/17 328/683/17 324/677/17
f 321/678/18 326/684/18 322/679/18
f 316/670/19 324/680/19 328/685/19
f 322/679/3 327/686/3 323/681/3
f 321/682/20 313/675/20 325/687/20
f 327/688/21 332/689/21 328/685/21
f 326/690/22 329/691/22 330/692/22
f 316/670/23 328/685/23 332/689/23
f 326/693/24 331/694/24 327/695/24
f 325/687/25 313/675/25 329/691/25
f 332/696/26 335/697/26 336/698/26
f 329/699/27 334/700/27 330/701/27
f 316/670/28 332/689/28 336/702/28
f 330/701/29 335/697/29 331/694/29
f 329/691/30 313/675/30 333/703/30
f 335/697/31 340/704/31 336/698/31
f 334/700/32 337/705/32 338/706/32
f 316/670/33 336/702/33 340/707/33
f 334/700/34 339/708/34 335/697/34
f 333/703/35 313/675/35 337/709/35
f 340/707/36 343/710/36 344/711/36
f 337/709/37 342/712/37 338/713/37
f 316/670/38 340/707/38 344/711/38
f 338/706/39 343/714/39 339/708/39
f 337/709/40 313/675/40 341/715/40
f 343/716/41 348/717/41 344/718/41
f 341/719/42 346/720/42 342/721/42
f 316/670/43 344/711/43 348/722/43
f 342/721/1 347/723/1 343/716/1
f 341/715/44 313/675/44 345/724/44
f 347/723/45 352/725/45 348/717/45
f 346/720/46 349/726/46 350/727/46
f 316/670/47 348/722/47 352/728/47
f 346/720/48 351/729/48 347/723/48
f 345/724/49 313/675/49 349/730/49
f 352/725/50 315/731/50 354/732/50
f 349/726/51 314/733/51 350/727/51
f 316/670/52 352/728/52 354/671/52
f 350/727/53 315/731/53 351/729/53
f 349/730/54 313/675/54 353/674/54
f 2/1/1 4/734/1 3/2/1
f 4/4/2 8/7/2 7/5/2
f 8/7/3 6/735/3 5/8/3
f 6/9/4 2/736/4 1/10/4
f 7/12/5 5/737/5 1/13/5
f 4/15/6 2/738/6 6/16/6
f 10/18/1 12/739/1 11/19/1
f 12/21/2 16/24/2 15/22/2
f 16/24/3 14/740/3 13/25/3
f 14/26/4 10/741/4 9/27/4
f 15/29/5 13/742/5 9/30/5
f 12/32/6 10/743/6 14/33/6
f 18/35/1 20/744/1 19/36/1
f 20/38/2 24/41/2 23/39/2
f 24/41/3 22/745/3 21/42/3
f 22/43/4 18/746/4 17/44/4
f 23/46/5 21/747/5 17/47/5
f 20/49/6 18/748/6 22/50/6
f 26/52/1 28/749/1 27/53/1
f 28/55/2 32/58/2 31/56/2
f 32/58/3 30/750/3 29/59/3
f 30/60/4 26/751/4 25/61/4
f 31/63/5 29/752/5 25/64/5
f 28/66/6 26/753/6 30/67/6
f 34/69/1 36/754/1 35/70/1
f 36/72/2 40/75/2 39/73/2
f 40/75/3 38/755/3 37/76/3
f 38/77/4 34/756/4 33/78/4
f 39/80/5 37/757/5 33/81/5
f 36/83/6 34/758/6 38/84/6
f 42/86/1 44/759/1 43/87/1
f 44/89/2 48/92/2 47/90/2
f 48/92/3 46/760/3 45/93/3
f 46/94/4 42/761/4 41/95/4
f 47/97/5 45/762/5 41/98/5
f 44/100/6 42/763/6 46/101/6
f 50/103/1 52/764/1 51/104/1
f 52/106/2 56/109/2 55/107/2
f 56/109/3 54/765/3 53/110/3
f 54/111/4 50/766/4 49/112/4
f 55/114/5 53/767/5 49/115/5
f 52/117/6 50/768/6 54/118/6
f 58/120/1 60/769/1 59/121/1
f 60/123/2 64/126/2 63/124/2
f 64/126/3 62/770/3 61/127/3
f 62/128/4 58/771/4 57/129/4
f 63/131/5 61/772/5 57/132/5
f 60/134/6 58/773/6 62/135/6
f 66/137/1 68/774/1 67/138/1
f 68/140/2 72/143/2 71/141/2
f 72/143/3 70/775/3 69/144/3
f 70/145/4 66/776/4 65/146/4
f 71/148/5 69/777/5 65/149/5
f 68/151/6 66/778/6 70/152/6
f 74/154/1 76/779/1 75/155/1
f 76/157/2 80/160/2 79/158/2
f 80/160/3 78/780/3 77/161/3
f 78/162/4 74/781/4 73/163/4
f 79/165/5 77/782/5 73/166/5
f 76/168/6 74/783/6 78/169/6
f 82/171/1 84/784/1 83/172/1
f 84/174/2 88/177/2 87/175/2
f 88/177/3 86/785/3 85/178/3
f 86/179/4 82/786/4 81/180/4
f 87/182/5 85/787/5 81/183/5
f 84/185/6 82/788/6 86/186/6
f 90/188/1 92/789/1 91/189/1
f 92/191/2 96/194/2 95/192/2
f 96/194/3 94/790/3 93/195/3
f 94/196/4 90/791/4 89/197/4
f 95/199/5 93/792/5 89/200/5
f 92/202/6 90/793/6 94/203/6
f 98/205/1 100/794/1 99/206/1
f 100/208/2 104/211/2 103/209/2
f 104/211/3 102/795/3 101/212/3
f 102/213/4 98/796/4 97/214/4
f 103/216/5 101/797/5 97/217/5
f 100/219/6 98/798/6 102/220/6
f 106/222/1 108/799/1 107/223/1
f 108/225/2 112/228/2 111/226/2
f 112/228/3 110/800/3 109/229/3
f 110/230/4 106/801/4 105/231/4
f 111/233/5 109/802/5 105/234/5
f 108/236/6 106/803/6 110/237/6
f 114/239/1 116/804/1 115/240/1
f 116/242/2 120/245/2 119/243/2
f 120/245/3 118/805/3 117/246/3
f 118/247/4 114/806/4 113/248/4
f 119/250/5 117/807/5 113/251/5
f 116/253/6 114/808/6 118/254/6
f 122/256/1 124/809/1 123/257/1
f 124/259/2 128/262/2 127/260/2
f 128/262/3 126/810/3 125/263/3
f 126/264/4 122/811/4 121/265/4
f 127/267/5 125/812/5 121/268/5
f 124/270/6 122/813/6 126/271/6
f 130/273/1 132/814/1 131/274/1
f 132/276/2 136/279/2 135/277/2
f 136/279/3 134/815/3 133/280/3
f 134/281/4 130/816/4 129/282/4
f 135/284/5 133/817/5 129/285/5
f 132/287/6 130/818/6 134/288/6
f 138/290/1 140/819/1 139/291/1
f 140/293/2 144/296/2 143/294/2
f 144/296/3 142/820/3 141/297/3
f 142/298/4 138/821/4 137/299/4
f 143/301/5 141/822/5 137/302/5
f 140/304/6 138/823/6 142/305/6
f 146/307/1 148/824/1 147/308/1
f 148/310/2 152/313/2 151/311/2
f 152/313/3 150/825/3 149/314/3
f 150/315/4 146/826/4 145/316/4
f 151/318/5 149/827/5 145/319/5
f 148/321/6 146/828/6 150/322/6
f 154/324/1 156/829/1 155/325/1
f 156/327/2 160/330/2 159/328/2
f 160/330/3 158/830/3 157/331/3
f 158/332/4 154/831/4 153/333/4
f 159/335/5 157/832/5 153/336/5
f 156/338/6 154/833/6 158/339/6
f 162/341/1 164/834/1 163/342/1
f 164/344/2 168/347/2 167/345/2
f 168/347/3 166/835/3 165/348/3
f 166/349/4 162/836/4 161/350/4
f 167/352/5 165/837/5 161/353/5
f 164/355/6 162/838/6 166/356/6
f 170/358/1 172/839/1 171/359/1
f 172/361/2 176/364/2 175/362/2
f 176/364/3 174/840/3 173/365/3
f 174/366/4 170/841/4 169/367/4
f 175/369/5 173/842/5 169/370/5
f 172/372/6 170/843/6 174/373/6
f 178/375/1 180/844/1 179/376/1
f 180/378/2 184/381/2 183/379/2
f 184/381/3 182/845/3 181/382/3
f 182/383/4 178/846/4 177/384/4
f 183/386/5 181/847/5 177/387/5
f 180/389/6 178/848/6 182/390/6
f 186/392/1 188/849/1 187/393/1
f 188/395/2 192/398/2 191/396/2
f 192/398/3 190/850/3 189/399/3
f 190/400/4 186/851/4 185/401/4
f 191/403/5 189/852/5 185/404/5
f 188/406/6 186/853/6 190/407/6
f 194/409/1 196/854/1 195/410/1
f 196/412/2 200/415/2 199/413/2
f 200/415/3 198/855/3 197/416/3
f 198/417/4 194/856/4 193/418/4
f 199/420/5 197/857/5 193/421/5
f 196/423/6 194/858/6 198/424/6
f 202/426/1 204/859/1 203/427/1
f 204/429/2 208/432/2 207/430/2
f 208/432/3 206/860/3 205/433/3
f 206/434/4 202/861/4 201/435/4
f 207/437/5 205/862/5 201/438/5
f 204/440/6 202/863/6 206/441/6
f 210/443/1 212/864/1 211/444/1
f 212/446/2 216/449/2 215/447/2
f 216/449/3 214/865/3 213/450/3
f 214/451/4 210/866/4 209/452/4
f 215/454/5 213/867/5 209/455/5
f 212/457/6 210/868/6 214/458/6
f 218/460/1 220/869/1 219/461/1
f 220/463/2 224/466/2 223/464/2
f 224/466/3 222/870/3 221/467/3
f 222/468/4 218/871/4 217/469/4
f 223/471/5 221/872/5 217/472/5
f 220/474/6 218/873/6 222/475/6
f 226/477/1 228/874/1 227/478/1
f 228/480/2 232/483/2 231/481/2
f 232/483/3 230/875/3 229/484/3
f 230/485/4 226/876/4 225/486/4
f 231/488/5 229/877/5 225/489/5
f 228/491/6 226/878/6 230/492/6
f 234/494/1 236/879/1 235/495/1
f 236/497/2 240/500/2 239/498/2
f 240/500/3 238/880/3 237/501/3
f 238/502/4 234/881/4 233/503/4
f 239/505/5 237/882/5 233/506/5
f 236/508/6 234/883/6 238/509/6
f 242/511/1 244/884/1 243/512/1
f 244/514/2 248/517/2 247/515/2
f 248/517/3 246/885/3 245/518/3
f 246/519/4 242/886/4 241/520/4
f 247/522/5 245/887/5 241/523/5
f 244/525/6 242/888/6 246/526/6
f 250/528/1 252/889/1 251/529/1
f 252/531/2 256/534/2 255/532/2
f 256/534/3 254/890/3 253/535/3
f 254/536/4 250/891/4 249/537/4
f 255/539/5 253/892/5 249/540/5
f 252/542/6 250/893/6 254/543/6
f 258/545/1 260/894/1 259/546/1
f 260/548/2 264/551/2 263/549/2
f 264/551/3 262/895/3 261/552/3
f 262/553/4 258/896/4 257/554/4
f 263/556/5 261/897/5 257/557/5
f 260/559/6 258/898/6 262/560/6
f 266/562/1 268/899/1 267/563/1
f 268/565/2 272/568/2 271/566/2
f 272/568/3 270/900/3 269/569/3
f 270/570/4 266/901/4 265/571/4
f 271/573/5 269/902/5 265/574/5
f 268/576/6 266/903/6 270/577/6
f 274/579/1 276/904/1 275/580/1
f 276/582/2 280/585/2 279/583/2
f 280/585/3 278/905/3 277/586/3
f 278/587/4 274/906/4 273/588/4
f 279/590/5 277/907/5 273/591/5
f 276/593/6 274/908/6 278/594/6
f 282/596/1 284/909/1 283/597/1
f 284/599/2 288/602/2 287/600/2
f 288/602/3 286/910/3 285/603/3
f 286/604/4 282/911/4 281/605/4
f 287/607/5 285/912/5 281/608/5
f 284/610/6 282/913/6 286/611/6
f 290/613/1 292/914/1 291/614/1
f 292/616/2 296/619/2 295/617/2
f 296/619/3 294/915/3 293/620/3
f 294/621/4 290/916/4 289/622/4
f 295/624/5 293/917/5 289/625/5
f 292/627/6 290/918/6 294/628/6
f 298/630/1 300/919/1 299/631/1
f 300/633/2 304/636/2 303/634/2
f 304/636/3 302/920/3 301/637/3
f 302/638/4 298/921/4 297/639/4
f 303/641/5 301/922/5 297/642/5
f 300/644/6 298/923/6 302/645/6
f 306/647/1 308/924/1 307/648/1
f 308/650/2 312/653/2 311/651/2
f 312/653/3 310/925/3 309/654/3
f 310/655/4 306/926/4 305/656/4
f 311/658/5 309/927/5 305/659/5
f 308/661/6 306/928/6 310/662/6
f 315/664/7 319/673/7 320/665/7
f 314/667/8 353/929/8 317/668/8
f 314/667/10 318/669/10 319/673/10
f 319/673/12 323/681/12 324/677/12
f 318/669/13 317/668/13 321/678/13
f 318/669/15 322/679/15 323/681/15
f 323/681/17 327/686/17 328/683/17
f 321/678/18 325/930/18 326/684/18
f 322/679/3 326/684/3 327/686/3
f 327/688/21 331/931/21 332/689/21
f 326/690/22 325/687/22 329/691/22
f 326/693/24 330/701/24 331/694/24
f 332/696/26 331/694/26 335/697/26
f 329/699/27 333/932/27 334/700/27
f 330/701/29 334/700/29 335/697/29
f 335/697/31 339/708/31 340/704/31
f 334/700/32 333/932/32 337/705/32
f 334/700/34 338/706/34 339/708/34
f 340/707/36 339/933/36 343/710/36
f 337/709/37 341/715/37 342/712/37
f 338/706/39 342/934/39 343/714/39
f 343/716/41 347/723/41 348/717/41
f 341/719/42 345/935/42 346/720/42
f 342/721/1 346/720/1 347/723/1
f 347/723/45 351/729/45 352/725/45
f 346/720/46 345/935/46 349/726/46
f 346/720/48 350/727/48 351/729/48
f 352/725/50 351/729/50 315/731/50
f 349/726/51 353/936/51 314/733/51
f 350/727/53 314/733/53 315/731/53
