# Blender 5.1.2
# www.blender.org
mtllib environment.mtl
g RND_Environment_Mesh_Mesh
v -3.000000 0.000000 0.500000
v 3.000000 0.000000 0.500000
v -3.000000 0.000000 -5.500000
v 3.000000 0.000000 -5.500000
v -3.000000 0.000000 -4.700000
v -3.000000 3.000000 -4.700000
v -3.000000 0.000000 -5.300000
v -3.000000 3.000000 -5.300000
v 3.000000 0.000000 -4.700000
v 3.000000 3.000000 -4.700000
v 3.000000 0.000000 -5.300000
v 3.000000 3.000000 -5.300000
v 0.000000 0.000000 -4.400000
v 0.000000 1.200000 -4.400000
v 0.636396 0.000000 -4.136396
v 0.636396 1.200000 -4.136396
v 0.900000 0.000000 -3.500000
v 0.900000 1.200000 -3.500000
v 0.636396 0.000000 -2.863604
v 0.636396 1.200000 -2.863604
v 0.000000 0.000000 -2.600000
v 0.000000 1.200000 -2.600000
v -0.636396 0.000000 -2.863604
v -0.636396 1.200000 -2.863604
v -0.900000 0.000000 -3.500000
v -0.900000 1.200000 -3.500000
v -0.636396 0.000000 -4.136396
v -0.636396 1.200000 -4.136396
v -2.100000 0.000000 -0.700000
v -2.100000 3.000000 -0.700000
v -2.100000 0.000000 -1.300000
v -2.100000 3.000000 -1.300000
v -1.500000 0.000000 -0.700000
v -1.500000 3.000000 -0.700000
v -1.500000 0.000000 -1.300000
v -1.500000 3.000000 -1.300000
vn -0.0000 1.0000 -0.0000
vn -1.0000 -0.0000 -0.0000
vn -0.0000 -0.0000 -1.0000
vn 1.0000 -0.0000 -0.0000
vn -0.0000 -0.0000 1.0000
vn -0.0000 -1.0000 -0.0000
vn 0.3827 -0.0000 -0.9239
vn 0.9239 -0.0000 -0.3827
vn 0.9239 -0.0000 0.3827
vn 0.3827 -0.0000 0.9239
vn -0.3827 -0.0000 0.9239
vn -0.9239 -0.0000 0.3827
vn -0.9239 -0.0000 -0.3827
vn -0.3827 -0.0000 -0.9239
vt 0.006437 0.006437
vt 0.769261 0.769261
vt 0.006437 0.769261
vt 0.782136 0.006437
vt 0.858418 0.006437
vt 0.947575 0.769261
vt 0.947575 0.006437
vt 0.871292 0.006437
vt 0.871292 0.769261
vt 0.858418 0.769261
vt 0.006437 0.931637
vt 0.068363 0.993563
vt 0.155939 0.993563
vt 0.217864 0.931637
vt 0.217864 0.844061
vt 0.068363 0.782136
vt 0.155939 0.782136
vt 0.230739 0.782136
vt 0.307021 0.782136
vt 0.396178 0.858418
vt 0.396178 0.782135
vt 0.319895 0.782135
vt 0.319895 0.858418
vt 0.307021 0.858418
vt 0.769261 0.006437
vt 0.782136 0.769261
vt 0.006437 0.844061
vt 0.230739 0.858418
s 0
g RND_Environment_Mesh_EnvironmentBakedAtlas
usemtl EnvironmentBakedAtlas
f 2/1/1 3/2/1 1/3/1
f 6/4/2 7/5/2 5/4/2
f 8/6/3 11/7/3 7/6/3
f 12/7/4 9/8/4 11/7/4
f 10/8/5 5/9/5 9/8/5
f 11/10/6 5/4/6 7/5/6
f 8/6/1 10/8/1 12/7/1
f 14/11/7 15/12/7 13/11/7
f 16/12/8 17/13/8 15/12/8
f 18/13/9 19/14/9 17/13/9
f 20/14/10 21/15/10 19/14/10
f 22/15/11 23/14/11 21/15/11
f 24/14/12 25/13/12 23/14/12
f 26/16/1 22/15/1 18/13/1
f 26/13/13 27/12/13 25/13/13
f 28/12/14 13/11/14 27/12/14
f 19/17/6 23/14/6 27/12/6
f 30/18/2 31/19/2 29/18/2
f 32/20/3 35/21/3 31/20/3
f 36/21/4 33/22/4 35/21/4
f 34/22/5 29/23/5 33/22/5
f 35/24/6 29/18/6 31/19/6
f 32/20/1 34/22/1 36/21/1
f 2/1/1 4/25/1 3/2/1
f 6/4/2 8/5/2 7/5/2
f 8/6/3 12/7/3 11/7/3
f 12/7/4 10/8/4 9/8/4
f 10/8/5 6/9/5 5/9/5
f 11/10/6 9/26/6 5/4/6
f 8/6/1 6/9/1 10/8/1
f 14/11/7 16/12/7 15/12/7
f 16/12/8 18/13/8 17/13/8
f 18/13/9 20/14/9 19/14/9
f 20/14/10 22/15/10 21/15/10
f 22/15/11 24/14/11 23/14/11
f 24/14/12 26/13/12 25/13/12
f 18/13/1 16/12/1 14/11/1
f 14/11/1 28/27/1 26/16/1
f 26/16/1 24/17/1 22/15/1
f 22/15/1 20/14/1 18/13/1
f 18/13/1 14/11/1 26/16/1
f 26/13/13 28/12/13 27/12/13
f 28/12/14 14/11/14 13/11/14
f 27/12/6 13/11/6 15/27/6
f 15/27/6 17/16/6 19/17/6
f 19/17/6 21/15/6 23/14/6
f 23/14/6 25/13/6 27/12/6
f 27/12/6 15/27/6 19/17/6
f 30/18/2 32/19/2 31/19/2
f 32/20/3 36/21/3 35/21/3
f 36/21/4 34/22/4 33/22/4
f 34/22/5 30/23/5 29/23/5
f 35/24/6 33/28/6 29/18/6
f 32/20/1 30/23/1 34/22/1
