# Blender 5.1.2
# www.blender.org
mtllib environment.mtl
g RND_ContinuousGround_Mesh
v 7.450000 -2.541800 -1.900000
v 7.450000 -2.466200 -1.900000
v 7.450000 -2.541800 -9.100000
v 7.450000 -2.466200 -9.100000
v 14.950000 -2.541800 -1.900000
v 14.950000 -2.466200 -1.900000
v 14.950000 -2.541800 -9.100000
v 14.950000 -2.466200 -9.100000
v 12.349998 -1.865600 0.300000
v 12.349998 -0.689600 0.300000
v 12.349998 -1.865600 -0.700000
v 12.349998 -0.689600 -0.700000
v 14.449999 -1.865600 0.300000
v 14.449999 -0.689600 0.300000
v 14.449999 -1.865600 -0.700000
v 14.449999 -0.689600 -0.700000
v 13.149999 -1.865600 -1.500000
v 13.149999 -0.353600 -1.500000
v 13.149999 -1.865600 -2.500000
v 13.149999 -0.353600 -2.500000
v 15.249998 -1.865600 -1.500000
v 15.249998 -0.353600 -1.500000
v 15.249998 -1.865600 -2.500000
v 15.249998 -0.353600 -2.500000
v 12.349998 -1.529600 -8.399999
v 12.349998 -0.353600 -8.399999
v 12.349998 -1.529600 -9.399999
v 12.349998 -0.353600 -9.399999
v 14.449999 -1.529600 -8.399999
v 14.449999 -0.353600 -8.399999
v 14.449999 -1.529600 -9.399999
v 14.449999 -0.353600 -9.399999
v 13.149999 -2.033600 -10.299999
v 13.149999 -0.521600 -10.299999
v 13.149999 -2.033600 -11.299999
v 13.149999 -0.521600 -11.299999
v 15.249998 -2.033600 -10.299999
v 15.249998 -0.521600 -10.299999
v 15.249998 -2.033600 -11.299999
v 15.249998 -0.521600 -11.299999
v 9.509998 -1.792100 -1.840000
v 9.509998 -0.469100 -1.840000
v 9.509998 -1.792100 -3.520000
v 9.509998 -0.469100 -3.520000
v 10.789999 -1.792100 -1.840000
v 10.789999 -0.469100 -1.840000
v 10.789999 -1.792100 -3.520000
v 10.789999 -0.469100 -3.520000
v 9.509998 -1.792100 -6.417500
v 9.509998 -0.469100 -6.417500
v 9.509998 -1.792100 -8.772499
v 9.509998 -0.469100 -8.772499
v 10.789999 -1.792100 -6.417500
v 10.789999 -0.469100 -6.417500
v 10.789999 -1.792100 -8.772499
v 10.789999 -0.469100 -8.772499
v 9.509998 -0.063800 -4.559999
v 9.509998 0.238600 -4.559999
v 9.509998 -0.063800 -5.039999
v 9.509998 0.238600 -5.039999
v 10.789999 -0.063800 -4.559999
v 10.789999 0.238600 -4.559999
v 10.789999 -0.063800 -5.039999
v 10.789999 0.238600 -5.039999
v 9.459999 -2.193200 -4.490000
v 9.459999 -1.638800 -4.490000
v 9.459999 -2.193200 -5.110000
v 9.459999 -1.638800 -5.110000
v 10.639999 -2.193200 -4.490000
v 10.639999 -1.638800 -4.490000
v 10.639999 -2.193200 -5.110000
v 10.639999 -1.638800 -5.110000
v 9.400000 -2.407400 -4.490000
v 9.400000 -2.365400 -4.490000
v 9.400000 -2.407400 -5.110000
v 9.400000 -2.365400 -5.110000
v 10.599999 -2.407400 -4.490000
v 10.599999 -2.365400 -4.490000
v 10.599999 -2.407400 -5.110000
v 10.599999 -2.365400 -5.110000
v 7.325000 -2.012600 -0.680000
v 7.325000 -1.088600 -0.680000
v 7.325000 -2.012600 -1.020000
v 7.325000 -1.088600 -1.020000
v 7.775000 -2.012600 -0.680000
v 7.775000 -1.088600 -0.680000
v 7.775000 -2.012600 -1.020000
v 7.775000 -1.088600 -1.020000
v 7.325000 -2.012600 -9.979999
v 7.325000 -1.088600 -9.979999
v 7.325000 -2.012600 -10.319999
v 7.325000 -1.088600 -10.319999
v 7.775000 -2.012600 -9.979999
v 7.775000 -1.088600 -9.979999
v 7.775000 -2.012600 -10.319999
v 7.775000 -1.088600 -10.319999
v 7.325000 -0.706400 -0.575000
v 7.325000 -0.605600 -0.575000
v 7.325000 -0.706400 -2.125000
v 7.325000 -0.605600 -2.125000
v 7.775000 -0.706400 -0.575000
v 7.775000 -0.605600 -0.575000
v 7.775000 -0.706400 -2.125000
v 7.775000 -0.605600 -2.125000
v 7.325000 -0.786200 -9.224999
v 7.325000 -0.693800 -9.224999
v 7.325000 -0.786200 -10.275000
v 7.325000 -0.693800 -10.275000
v 7.775000 -0.786200 -9.224999
v 7.775000 -0.693800 -9.224999
v 7.775000 -0.786200 -10.275000
v 7.775000 -0.693800 -10.275000
v 9.339999 -1.298600 -4.325000
v 9.339999 -1.223000 -4.325000
v 9.339999 -1.298600 -5.275000
v 9.339999 -1.223000 -5.275000
v 9.759999 -1.298600 -4.325000
v 9.759999 -1.223000 -4.325000
v 9.759999 -1.298600 -5.275000
v 9.759999 -1.223000 -5.275000
vn -1.0000 -0.0000 -0.0000
vn -0.0000 -0.0000 -1.0000
vn 1.0000 -0.0000 -0.0000
vn -0.0000 -0.0000 1.0000
vn -0.0000 -1.0000 -0.0000
vn -0.0000 1.0000 -0.0000
vt 0.040359 0.992188
vt 0.007812 0.341265
vt 0.007812 0.992188
vt 0.363696 0.333453
vt 0.360006 0.259650
vt 0.360006 0.333453
vt 0.374935 0.333453
vt 0.371509 0.264923
vt 0.371509 0.333453
vt 0.352194 0.333453
vt 0.348503 0.259650
vt 0.348503 0.333453
vt 0.503352 0.992188
vt 0.338703 0.834124
vt 0.338703 0.992188
vt 0.155562 0.823873
vt 0.330890 0.992188
vt 0.330890 0.823873
vt 0.035304 0.158092
vt 0.007812 0.134714
vt 0.007812 0.158092
vt 0.552946 0.333453
vt 0.525454 0.284361
vt 0.525454 0.333453
vt 0.508106 0.158092
vt 0.483680 0.137321
vt 0.483680 0.158092
vt 0.204563 0.211283
vt 0.179393 0.166337
vt 0.179393 0.211283
vt 0.346143 0.158092
vt 0.297666 0.135007
vt 0.297666 0.158092
vt 0.078420 0.134714
vt 0.127512 0.158092
vt 0.127512 0.134714
vt 0.170671 0.158092
vt 0.135325 0.134714
vt 0.135325 0.158092
vt 0.631408 0.333453
vt 0.596062 0.284361
vt 0.596062 0.333453
vt 0.579561 0.158092
vt 0.548156 0.137321
vt 0.548156 0.158092
vt 0.751331 0.333453
vt 0.717671 0.286702
vt 0.717671 0.333453
vt 0.458688 0.158092
vt 0.410244 0.135023
vt 0.410244 0.158092
vt 0.777517 0.182088
vt 0.838826 0.211283
vt 0.838826 0.182088
vt 0.070608 0.158092
vt 0.043116 0.134714
vt 0.043116 0.158092
vt 0.785180 0.333453
vt 0.759144 0.286960
vt 0.759144 0.333453
vt 0.540344 0.158092
vt 0.515918 0.137321
vt 0.515918 0.158092
vt 0.588250 0.333453
vt 0.560758 0.284361
vt 0.560758 0.333453
vt 0.289853 0.158092
vt 0.241259 0.134951
vt 0.241259 0.158092
vt 0.409933 0.175388
vt 0.485312 0.211283
vt 0.485312 0.175388
vt 0.213830 0.158092
vt 0.178483 0.134714
vt 0.178483 0.158092
vt 0.171580 0.211283
vt 0.138948 0.165960
vt 0.138948 0.211283
vt 0.618777 0.158092
vt 0.587373 0.137321
vt 0.587373 0.158092
vt 0.674567 0.333453
vt 0.639221 0.284361
vt 0.639221 0.333453
vt 0.402431 0.158092
vt 0.353955 0.135008
vt 0.353955 0.158092
vt 0.591146 0.177288
vt 0.662535 0.211283
vt 0.662535 0.177288
vt 0.365680 0.211283
vt 0.334752 0.172009
vt 0.334752 0.211283
vt 0.701275 0.211283
vt 0.670348 0.181360
vt 0.670348 0.211283
vt 0.573301 0.211283
vt 0.545822 0.176389
vt 0.545822 0.211283
vt 0.932021 0.211283
vt 0.903761 0.183941
vt 0.903761 0.211283
vt 0.402121 0.211283
vt 0.373492 0.173708
vt 0.373492 0.211283
vt 0.511301 0.176227
vt 0.538010 0.211283
vt 0.538010 0.176227
vt 0.413676 0.333453
vt 0.382748 0.278400
vt 0.382748 0.333453
vt 0.875193 0.211283
vt 0.846639 0.183657
vt 0.846639 0.211283
vt 0.709858 0.333453
vt 0.682379 0.284539
vt 0.682379 0.333453
vt 0.740016 0.211283
vt 0.709088 0.181360
vt 0.709088 0.211283
vt 0.483121 0.333453
vt 0.454629 0.281033
vt 0.454629 0.333453
vt 0.490933 0.284313
vt 0.517642 0.333453
vt 0.517642 0.284313
vt 0.855944 0.158092
vt 0.848875 0.146871
vt 0.848875 0.158092
vt 0.769704 0.211283
vt 0.762688 0.181582
vt 0.762688 0.211283
vt 0.904523 0.158092
vt 0.898243 0.148122
vt 0.898243 0.158092
vt 0.754875 0.211283
vt 0.747828 0.181455
vt 0.747828 0.211283
vt 0.841062 0.158092
vt 0.810772 0.146732
vt 0.810772 0.158092
vt 0.863757 0.148089
vt 0.890430 0.158092
vt 0.890430 0.148089
vt 0.340691 0.333453
vt 0.250440 0.232523
vt 0.250440 0.333453
vt 0.446817 0.333453
vt 0.421488 0.279543
vt 0.421488 0.333453
vt 0.793193 0.158092
vt 0.781678 0.145214
vt 0.781678 0.158092
vt 0.895949 0.211283
vt 0.883005 0.183733
vt 0.883005 0.211283
vt 0.707686 0.158092
vt 0.681986 0.144588
vt 0.681986 0.158092
vt 0.749244 0.145155
vt 0.773866 0.158092
vt 0.773866 0.145155
vt 0.638309 0.158092
vt 0.636356 0.143598
vt 0.636356 0.158092
vt 0.223595 0.158092
vt 0.221642 0.134880
vt 0.221642 0.158092
vt 0.802959 0.158092
vt 0.801006 0.145214
vt 0.801006 0.158092
vt 0.959940 0.211283
vt 0.957987 0.187809
vt 0.957987 0.211283
vt 0.741431 0.158092
vt 0.715499 0.144693
vt 0.715499 0.158092
vt 0.646121 0.143598
vt 0.674174 0.158092
vt 0.674174 0.143598
vt 0.131135 0.211283
vt 0.007812 0.165904
vt 0.007812 0.211283
vt 0.242627 0.333453
vt 0.007812 0.219095
vt 0.007812 0.333453
vt 0.055435 0.126902
vt 0.034817 0.119315
vt 0.034817 0.126902
vt 0.970730 0.158092
vt 0.951539 0.148745
vt 0.951539 0.158092
vt 0.101621 0.126902
vt 0.091679 0.119391
vt 0.091679 0.126902
vt 0.273564 0.170954
vt 0.326939 0.211283
vt 0.326939 0.170954
vt 0.916315 0.333453
vt 0.792992 0.288074
vt 0.792992 0.333453
vt 0.027004 0.126902
vt 0.007812 0.117555
vt 0.007812 0.126902
vt 0.083867 0.126902
vt 0.063248 0.119315
vt 0.063248 0.126902
vt 0.959225 0.992188
vt 0.724410 0.877830
vt 0.724410 0.992188
vt 0.119375 0.126902
vt 0.109433 0.119391
vt 0.109433 0.126902
vt 0.212375 0.170954
vt 0.265751 0.211283
vt 0.265751 0.170954
vt 0.062556 0.992188
vt 0.048171 0.770993
vt 0.048171 0.992188
vt 0.575873 0.992188
vt 0.546454 0.860851
vt 0.546454 0.992188
vt 0.583333 0.211283
vt 0.581114 0.177155
vt 0.581114 0.211283
vt 0.943726 0.158092
vt 0.941633 0.148745
vt 0.941633 0.158092
vt 0.503489 0.211283
vt 0.493124 0.175583
vt 0.493124 0.211283
vt 0.070368 0.800643
vt 0.125978 0.992188
vt 0.125978 0.800643
vt 0.658141 0.992188
vt 0.647247 0.868382
vt 0.647247 0.992188
vt 0.933820 0.158092
vt 0.931867 0.148745
vt 0.931867 0.158092
vt 0.233447 0.158092
vt 0.231408 0.134921
vt 0.231408 0.158092
vt 0.538641 0.992188
vt 0.511165 0.858373
vt 0.511165 0.992188
vt 0.950175 0.211283
vt 0.939834 0.187154
vt 0.939834 0.211283
vt 0.583686 0.862108
vt 0.639434 0.992188
vt 0.639434 0.862108
vt 0.147750 0.992188
vt 0.133791 0.816775
vt 0.133791 0.992188
vt 0.924055 0.158092
vt 0.922102 0.148412
vt 0.922102 0.158092
vt 0.628543 0.158092
vt 0.626590 0.138360
vt 0.626590 0.158092
vt 0.914289 0.158092
vt 0.912336 0.148412
vt 0.912336 0.158092
vt 0.475868 0.158092
vt 0.466500 0.136903
vt 0.466500 0.158092
vt 0.665954 0.877636
vt 0.716598 0.992188
vt 0.716598 0.877636
vt 0.040359 0.341265
vt 0.363696 0.259650
vt 0.374935 0.264923
vt 0.352194 0.259650
vt 0.503352 0.834124
vt 0.155562 0.992188
vt 0.035304 0.134714
vt 0.552946 0.284361
vt 0.508106 0.137321
vt 0.204563 0.166337
vt 0.346143 0.135007
vt 0.078420 0.158092
vt 0.170671 0.134714
vt 0.631408 0.284361
vt 0.579561 0.137321
vt 0.751331 0.286702
vt 0.458688 0.135023
vt 0.777517 0.211283
vt 0.070608 0.134714
vt 0.785180 0.286960
vt 0.540344 0.137321
vt 0.588250 0.284361
vt 0.289853 0.134951
vt 0.409933 0.211283
vt 0.213830 0.134714
vt 0.171580 0.165960
vt 0.618777 0.137321
vt 0.674567 0.284361
vt 0.402431 0.135008
vt 0.591146 0.211283
vt 0.365680 0.172009
vt 0.701275 0.181360
vt 0.573301 0.176389
vt 0.932021 0.183941
vt 0.402121 0.173708
vt 0.511301 0.211283
vt 0.413676 0.278400
vt 0.875193 0.183657
vt 0.709858 0.284539
vt 0.740016 0.181360
vt 0.483121 0.281033
vt 0.490933 0.333453
vt 0.855944 0.146871
vt 0.769704 0.181582
vt 0.904523 0.148122
vt 0.754875 0.181455
vt 0.841062 0.146732
vt 0.863757 0.158092
vt 0.340691 0.232523
vt 0.446817 0.279543
vt 0.793193 0.145214
vt 0.895949 0.183733
vt 0.707686 0.144588
vt 0.749244 0.158092
vt 0.638309 0.143598
vt 0.223595 0.134880
vt 0.802959 0.145214
vt 0.959940 0.187809
vt 0.741431 0.144693
vt 0.646121 0.158092
vt 0.131135 0.165904
vt 0.242627 0.219095
vt 0.055435 0.119315
vt 0.970730 0.148745
vt 0.101621 0.119391
vt 0.273564 0.211283
vt 0.916315 0.288074
vt 0.027004 0.117555
vt 0.083867 0.119315
vt 0.959225 0.877830
vt 0.119375 0.119391
vt 0.212375 0.211283
vt 0.062556 0.770993
vt 0.575873 0.860851
vt 0.583333 0.177155
vt 0.943726 0.148745
vt 0.503489 0.175583
vt 0.070368 0.992188
vt 0.658141 0.868382
vt 0.933820 0.148745
vt 0.233447 0.134921
vt 0.538641 0.858373
vt 0.950175 0.187154
vt 0.583686 0.992188
vt 0.147750 0.816775
vt 0.924055 0.148412
vt 0.628543 0.138360
vt 0.914289 0.148412
vt 0.475868 0.136903
vt 0.665954 0.992188
s 0
g RND_ContinuousGround_EnvironmentBakedAtlas
usemtl EnvironmentBakedAtlas
f 2/1/1 3/2/1 1/3/1
f 4/4/2 7/5/2 3/6/2
f 8/7/3 5/8/3 7/9/3
f 6/10/4 1/11/4 5/12/4
f 7/13/5 1/14/5 3/15/5
f 4/16/6 6/17/6 8/18/6
f 10/19/1 11/20/1 9/21/1
f 12/22/2 15/23/2 11/24/2
f 16/25/3 13/26/3 15/27/3
f 14/28/4 9/29/4 13/30/4
f 15/31/5 9/32/5 11/33/5
f 12/34/6 14/35/6 16/36/6
f 18/37/1 19/38/1 17/39/1
f 20/40/2 23/41/2 19/42/2
f 24/43/3 21/44/3 23/45/3
f 22/46/4 17/47/4 21/48/4
f 23/49/5 17/50/5 19/51/5
f 20/52/6 22/53/6 24/54/6
f 26/55/1 27/56/1 25/57/1
f 28/58/2 31/59/2 27/60/2
f 32/61/3 29/62/3 31/63/3
f 30/64/4 25/65/4 29/66/4
f 31/67/5 25/68/5 27/69/5
f 28/70/6 30/71/6 32/72/6
f 34/73/1 35/74/1 33/75/1
f 36/76/2 39/77/2 35/78/2
f 40/79/3 37/80/3 39/81/3
f 38/82/4 33/83/4 37/84/4
f 39/85/5 33/86/5 35/87/5
f 36/88/6 38/89/6 40/90/6
f 42/91/1 43/92/1 41/93/1
f 44/94/2 47/95/2 43/96/2
f 48/97/3 45/98/3 47/99/3
f 46/100/4 41/101/4 45/102/4
f 47/103/5 41/104/5 43/105/5
f 44/106/6 46/107/6 48/108/6
f 50/109/1 51/110/1 49/111/1
f 52/112/2 55/113/2 51/114/2
f 56/115/3 53/116/3 55/117/3
f 54/118/4 49/119/4 53/120/4
f 55/121/5 49/122/5 51/123/5
f 52/124/6 54/125/6 56/126/6
f 58/127/1 59/128/1 57/129/1
f 60/130/2 63/131/2 59/132/2
f 64/133/3 61/134/3 63/135/3
f 62/136/4 57/137/4 61/138/4
f 63/139/5 57/140/5 59/141/5
f 60/142/6 62/143/6 64/144/6
f 66/145/1 67/146/1 65/147/1
f 68/148/2 71/149/2 67/150/2
f 72/151/3 69/152/3 71/153/3
f 70/154/4 65/155/4 69/156/4
f 71/157/5 65/158/5 67/159/5
f 68/160/6 70/161/6 72/162/6
f 74/163/1 75/164/1 73/165/1
f 76/166/2 79/167/2 75/168/2
f 80/169/3 77/170/3 79/171/3
f 78/172/4 73/173/4 77/174/4
f 79/175/5 73/176/5 75/177/5
f 76/178/6 78/179/6 80/180/6
f 82/181/1 83/182/1 81/183/1
f 84/184/2 87/185/2 83/186/2
f 88/187/3 85/188/3 87/189/3
f 86/190/4 81/191/4 85/192/4
f 87/193/5 81/194/5 83/195/5
f 84/196/6 86/197/6 88/198/6
f 90/199/1 91/200/1 89/201/1
f 92/202/2 95/203/2 91/204/2
f 96/205/3 93/206/3 95/207/3
f 94/208/4 89/209/4 93/210/4
f 95/211/5 89/212/5 91/213/5
f 92/214/6 94/215/6 96/216/6
f 98/217/1 99/218/1 97/219/1
f 100/220/2 103/221/2 99/222/2
f 104/223/3 101/224/3 103/225/3
f 102/226/4 97/227/4 101/228/4
f 103/229/5 97/230/5 99/231/5
f 100/232/6 102/233/6 104/234/6
f 106/235/1 107/236/1 105/237/1
f 108/238/2 111/239/2 107/240/2
f 112/241/3 109/242/3 111/243/3
f 110/244/4 105/245/4 109/246/4
f 111/247/5 105/248/5 107/249/5
f 108/250/6 110/251/6 112/252/6
f 114/253/1 115/254/1 113/255/1
f 116/256/2 119/257/2 115/258/2
f 120/259/3 117/260/3 119/261/3
f 118/262/4 113/263/4 117/264/4
f 119/265/5 113/266/5 115/267/5
f 116/268/6 118/269/6 120/270/6
f 2/1/1 4/271/1 3/2/1
f 4/4/2 8/272/2 7/5/2
f 8/7/3 6/273/3 5/8/3
f 6/10/4 2/274/4 1/11/4
f 7/13/5 5/275/5 1/14/5
f 4/16/6 2/276/6 6/17/6
f 10/19/1 12/277/1 11/20/1
f 12/22/2 16/278/2 15/23/2
f 16/25/3 14/279/3 13/26/3
f 14/28/4 10/280/4 9/29/4
f 15/31/5 13/281/5 9/32/5
f 12/34/6 10/282/6 14/35/6
f 18/37/1 20/283/1 19/38/1
f 20/40/2 24/284/2 23/41/2
f 24/43/3 22/285/3 21/44/3
f 22/46/4 18/286/4 17/47/4
f 23/49/5 21/287/5 17/50/5
f 20/52/6 18/288/6 22/53/6
f 26/55/1 28/289/1 27/56/1
f 28/58/2 32/290/2 31/59/2
f 32/61/3 30/291/3 29/62/3
f 30/64/4 26/292/4 25/65/4
f 31/67/5 29/293/5 25/68/5
f 28/70/6 26/294/6 30/71/6
f 34/73/1 36/295/1 35/74/1
f 36/76/2 40/296/2 39/77/2
f 40/79/3 38/297/3 37/80/3
f 38/82/4 34/298/4 33/83/4
f 39/85/5 37/299/5 33/86/5
f 36/88/6 34/300/6 38/89/6
f 42/91/1 44/301/1 43/92/1
f 44/94/2 48/302/2 47/95/2
f 48/97/3 46/303/3 45/98/3
f 46/100/4 42/304/4 41/101/4
f 47/103/5 45/305/5 41/104/5
f 44/106/6 42/306/6 46/107/6
f 50/109/1 52/307/1 51/110/1
f 52/112/2 56/308/2 55/113/2
f 56/115/3 54/309/3 53/116/3
f 54/118/4 50/310/4 49/119/4
f 55/121/5 53/311/5 49/122/5
f 52/124/6 50/312/6 54/125/6
f 58/127/1 60/313/1 59/128/1
f 60/130/2 64/314/2 63/131/2
f 64/133/3 62/315/3 61/134/3
f 62/136/4 58/316/4 57/137/4
f 63/139/5 61/317/5 57/140/5
f 60/142/6 58/318/6 62/143/6
f 66/145/1 68/319/1 67/146/1
f 68/148/2 72/320/2 71/149/2
f 72/151/3 70/321/3 69/152/3
f 70/154/4 66/322/4 65/155/4
f 71/157/5 69/323/5 65/158/5
f 68/160/6 66/324/6 70/161/6
f 74/163/1 76/325/1 75/164/1
f 76/166/2 80/326/2 79/167/2
f 80/169/3 78/327/3 77/170/3
f 78/172/4 74/328/4 73/173/4
f 79/175/5 77/329/5 73/176/5
f 76/178/6 74/330/6 78/179/6
f 82/181/1 84/331/1 83/182/1
f 84/184/2 88/332/2 87/185/2
f 88/187/3 86/333/3 85/188/3
f 86/190/4 82/334/4 81/191/4
f 87/193/5 85/335/5 81/194/5
f 84/196/6 82/336/6 86/197/6
f 90/199/1 92/337/1 91/200/1
f 92/202/2 96/338/2 95/203/2
f 96/205/3 94/339/3 93/206/3
f 94/208/4 90/340/4 89/209/4
f 95/211/5 93/341/5 89/212/5
f 92/214/6 90/342/6 94/215/6
f 98/217/1 100/343/1 99/218/1
f 100/220/2 104/344/2 103/221/2
f 104/223/3 102/345/3 101/224/3
f 102/226/4 98/346/4 97/227/4
f 103/229/5 101/347/5 97/230/5
f 100/232/6 98/348/6 102/233/6
f 106/235/1 108/349/1 107/236/1
f 108/238/2 112/350/2 111/239/2
f 112/241/3 110/351/3 109/242/3
f 110/244/4 106/352/4 105/245/4
f 111/247/5 109/353/5 105/248/5
f 108/250/6 106/354/6 110/251/6
f 114/253/1 116/355/1 115/254/1
f 116/256/2 120/356/2 119/257/2
f 120/259/3 118/357/3 117/260/3
f 118/262/4 114/358/4 113/263/4
f 119/265/5 117/359/5 113/266/5
f 116/268/6 114/360/6 118/269/6
