# Blender 5.1.2
# www.blender.org
mtllib environment.mtl
g RENDER_Ground_Mesh
v 5.700000 -2.050000 1.500000
v 5.700000 -1.650000 1.500000
v 5.700000 -2.050000 -12.500000
v 5.700000 -1.650000 -12.500000
v 9.900000 -2.050000 1.500000
v 9.900000 -1.650000 1.500000
v 9.900000 -2.050000 -12.500000
v 9.900000 -1.650000 -12.500000
v 8.599999 -1.650000 -1.900000
v 8.599999 4.350000 -1.900000
v 8.599999 -1.650000 -7.100000
v 8.599999 4.350000 -7.100000
v 12.200000 -1.650000 -1.900000
v 12.200000 4.350000 -1.900000
v 12.200000 -1.650000 -7.100000
v 12.200000 4.350000 -7.100000
v 8.400000 -1.650000 -7.600000
v 8.400000 3.550000 -7.600000
v 8.400000 -1.650000 -12.000000
v 8.400000 3.550000 -12.000000
v 11.600000 -1.650000 -7.600000
v 11.600000 3.550000 -7.600000
v 11.600000 -1.650000 -12.000000
v 11.600000 3.550000 -12.000000
v 5.400000 -1.650000 0.600000
v 5.400000 3.350000 0.600000
v 5.400000 -1.650000 -3.400000
v 5.400000 3.350000 -3.400000
v 6.600000 -1.650000 0.600000
v 6.600000 3.350000 0.600000
v 6.600000 -1.650000 -3.400000
v 6.600000 3.350000 -3.400000
vn -1.0000 -0.0000 -0.0000
vn -0.0000 -0.0000 -1.0000
vn 1.0000 -0.0000 -0.0000
vn -0.0000 -0.0000 1.0000
vn -0.0000 -1.0000 -0.0000
vn -0.0000 1.0000 -0.0000
vt 0.277855 0.004667
vt 0.277855 0.915294
vt 0.004667 0.915294
vt 0.004667 0.004667
vt 0.287189 0.915294
vt 0.560378 0.004667
vt 0.560378 0.915294
vt 0.803873 0.004667
vt 0.803873 0.342900
vt 0.569712 0.342900
vt 0.569712 0.004667
vt 0.569712 0.690467
vt 0.803873 0.352234
vt 0.803873 0.690467
vt 0.777855 0.699802
vt 0.777855 0.985999
vt 0.569712 0.985999
vt 0.569712 0.699802
vt 0.787189 0.985999
vt 0.995333 0.699802
vt 0.995333 0.985999
vt 0.891261 0.004667
vt 0.891261 0.264846
vt 0.813207 0.264846
vt 0.813207 0.004667
vt 0.813207 0.534360
vt 0.891261 0.274181
vt 0.891261 0.534360
vt 0.287189 0.004667
vt 0.569712 0.352234
vt 0.787189 0.699802
vt 0.813207 0.274181
s 0
g RENDER_Ground_EnvironmentBakedAtlas
usemtl EnvironmentBakedAtlas
f 2/1/1 3/2/1 1/1/1
f 4/2/2 7/3/2 3/2/2
f 8/3/3 5/4/3 7/3/3
f 6/4/4 1/1/4 5/4/4
f 7/3/5 1/1/5 3/2/5
f 4/5/6 6/6/6 8/7/6
f 10/8/1 11/9/1 9/8/1
f 12/9/2 15/10/2 11/9/2
f 16/10/3 13/11/3 15/10/3
f 14/11/4 9/8/4 13/11/4
f 15/10/5 9/8/5 11/9/5
f 12/12/6 14/13/6 16/14/6
f 18/15/1 19/16/1 17/15/1
f 20/16/2 23/17/2 19/16/2
f 24/17/3 21/18/3 23/17/3
f 22/18/4 17/15/4 21/18/4
f 23/17/5 17/15/5 19/16/5
f 20/19/6 22/20/6 24/21/6
f 26/22/1 27/23/1 25/22/1
f 28/23/2 31/24/2 27/23/2
f 32/24/3 29/25/3 31/24/3
f 30/25/4 25/22/4 29/25/4
f 31/24/5 25/22/5 27/23/5
f 28/26/6 30/27/6 32/28/6
f 2/1/1 4/2/1 3/2/1
f 4/2/2 8/3/2 7/3/2
f 8/3/3 6/4/3 5/4/3
f 6/4/4 2/1/4 1/1/4
f 7/3/5 5/4/5 1/1/5
f 4/5/6 2/29/6 6/6/6
f 10/8/1 12/9/1 11/9/1
f 12/9/2 16/10/2 15/10/2
f 16/10/3 14/11/3 13/11/3
f 14/11/4 10/8/4 9/8/4
f 15/10/5 13/11/5 9/8/5
f 12/12/6 10/30/6 14/13/6
f 18/15/1 20/16/1 19/16/1
f 20/16/2 24/17/2 23/17/2
f 24/17/3 22/18/3 21/18/3
f 22/18/4 18/15/4 17/15/4
f 23/17/5 21/18/5 17/15/5
f 20/19/6 18/31/6 22/20/6
f 26/22/1 28/23/1 27/23/1
f 28/23/2 32/24/2 31/24/2
f 32/24/3 30/25/3 29/25/3
f 30/25/4 26/22/4 25/22/4
f 31/24/5 29/25/5 25/22/5
f 28/26/6 26/32/6 30/27/6
