mtllib walk.mtl
usemtl stone
v -0.6 0.0 0.0
v 0.6 0.0 0.0
v -0.6 0.2 0.0
v 0.6 0.2 0.0
v -0.6 0.4 0.0
v 0.6 0.4 0.0
v -0.6 0.6 0.0
v 0.6 0.6 0.0
v -0.6 0.8 0.0
v 0.6 0.8 0.0
v -0.6 1.0 0.0
v 0.6 1.0 0.0
v -0.6 1.2 0.0
v 0.6 1.2 0.0
v -0.6 1.4 0.0
v 0.6 1.4 0.0
v -0.6 1.6 0.0
v 0.6 1.6 0.0
v -0.6 1.8 0.0
v 0.6 1.8 0.0
v -0.6 2.0 0.0
v 0.6 2.0 0.0
v -0.6 2.2 0.0
v 0.6 2.2 0.0
v -0.6 2.4 0.0
v 0.6 2.4 0.0
v -0.6 2.6 0.0
v 0.6 2.6 0.0
v -0.6 2.8 0.0
v 0.6 2.8 0.0
v -0.6 3.0 0.0
v 0.6 3.0 0.0
v -0.6 3.2 0.0
v 0.6 3.2 0.0
v -0.6 3.4 0.0
v 0.6 3.4 0.0
v -0.6 3.6 0.0
v 0.6 3.6 0.0
v -0.6 3.8 0.0
v 0.6 3.8 0.0
v -0.6 4.0 0.0
v 0.6 4.0 0.0
v -0.6 4.2 0.0
v 0.6 4.2 0.0
v -0.6 4.4 0.0
v 0.6 4.4 0.0
v -0.6 4.6 0.0
v 0.6 4.6 0.0
v -0.6 4.8 0.0
v 0.6 4.8 0.0
v -0.6 5.0 0.0
v 0.6 5.0 0.0
v -0.6 5.2 0.0
v 0.6 5.2 0.0
v -0.6 5.4 0.0
v 0.6 5.4 0.0
v -0.6 5.6 0.0
v 0.6 5.6 0.0
v -0.6 5.8 0.0
v 0.6 5.8 0.0
v -0.6 6.0 0.0
v 0.6 6.0 0.0
v -0.6 6.2 0.0
v 0.6 6.2 0.0
v -0.6 6.4 0.0
v 0.6 6.4 0.0
v -0.6 6.6 0.0
v 0.6 6.6 0.0
v -0.6 6.8 0.0
v 0.6 6.8 0.0
v -0.6 7.0 0.0
v 0.6 7.0 0.0
v -0.6 7.2 0.0
v 0.6 7.2 0.0
v -0.6 7.4 0.0
v 0.6 7.4 0.0
v -0.6 7.6 0.0
v 0.6 7.6 0.0
v -0.6 7.8 0.0
v 0.6 7.8 0.0
v -0.6 8.0 0.0
v 0.6 8.0 0.0
v -0.6 8.2 0.0
v 0.6 8.2 0.0
v -0.6 8.4 0.0
v 0.6 8.4 0.0
v -0.6 8.6 0.0
v 0.6 8.6 0.0
v -0.6 8.8 0.0
v 0.6 8.8 0.0
v -0.6 9.0 0.0
v 0.6 9.0 0.0
v -0.6 9.2 0.0
v 0.6 9.2 0.0
v -0.6 9.4 0.0
v 0.6 9.4 0.0
v -0.6 9.6 0.0
v 0.6 9.6 0.0
v -0.6 9.8 0.0
v 0.6 9.8 0.0
v -0.6 10.0 0.0
v 0.6 10.0 0.0
v -0.6 10.2 0.0
v 0.6 10.2 0.0
v -0.6 10.4 0.0
v 0.6 10.4 0.0
v -0.6 10.6 0.0
v 0.6 10.6 0.0
v -0.6 10.8 0.0
v 0.6 10.8 0.0
v -0.6 11.0 0.0
v 0.6 11.0 0.0
v -0.6 11.2 0.0
v 0.6 11.2 0.0
v -0.6 11.4 0.0
v 0.6 11.4 0.0
v -0.6 11.6 0.0
v 0.6 11.6 0.0
v -0.6 11.8 0.0
v 0.6 11.8 0.0
v -0.6 12.0 0.0
v 0.6 12.0 0.0
v -0.6 12.2 0.0
v 0.6 12.2 0.0
v -0.6 12.4 0.0
v 0.6 12.4 0.0
v -0.6 12.6 0.0
v 0.6 12.6 0.0
v -0.6 12.8 0.0
v 0.6 12.8 0.0
v -0.6 13.0 0.0
v 0.6 13.0 0.0
v -0.6 13.2 0.0
v 0.6 13.2 0.0
v -0.6 13.4 0.0
v 0.6 13.4 0.0
v -0.6 13.6 0.0
v 0.6 13.6 0.0
v -0.6 13.8 0.0
v 0.6 13.8 0.0
v -0.6 14.0 0.0
v 0.6 14.0 0.0
v -0.6 14.2 0.0
v 0.6 14.2 0.0
v -0.6 14.4 0.0
v 0.6 14.4 0.0
v -0.6 14.6 0.0
v 0.6 14.6 0.0
v -0.6 14.8 0.0
v 0.6 14.8 0.0
v -0.6 15.0 0.0
v 0.6 15.0 0.0
v -0.6 15.2 0.0
v 0.6 15.2 0.0
v -0.6 15.4 0.0
v 0.6 15.4 0.0
v -0.6 15.6 0.0
v 0.6 15.6 0.0
v -0.6 15.8 0.0
v 0.6 15.8 0.0
v -0.6 16.0 0.0
v 0.6 16.0 0.0
v -0.6 16.2 0.0
v 0.6 16.2 0.0
v -0.6 16.4 0.0
v 0.6 16.4 0.0
v -0.6 16.6 0.0
v 0.6 16.6 0.0
v -0.6 16.8 0.0
v 0.6 16.8 0.0
v -0.6 17.0 0.0
v 0.6 17.0 0.0
v -0.6 17.2 0.0
v 0.6 17.2 0.0
v -0.6 17.4 0.0
v 0.6 17.4 0.0
v -0.6 17.6 0.0
v 0.6 17.6 0.0
v -0.6 17.8 0.0
v 0.6 17.8 0.0
v -0.6 18.0 0.0
v 0.6 18.0 0.0
v -0.6 18.2 0.0
v 0.6 18.2 0.0
v -0.6 18.4 0.0
v 0.6 18.4 0.0
v -0.6 18.6 0.0
v 0.6 18.6 0.0
v -0.6 18.8 0.0
v 0.6 18.8 0.0
v -0.6 19.0 0.0
v 0.6 19.0 0.0
v -0.6 19.2 0.0
v 0.6 19.2 0.0
v -0.6 19.4 0.0
v 0.6 19.4 0.0
v -0.6 19.6 0.0
v 0.6 19.6 0.0
v -0.6 19.8 0.0
v 0.6 19.8 0.0
v -0.6 20.0 0.0
v 0.6 20.0 0.0
v -0.6 20.2 0.0
v 0.6 20.2 0.0
v -0.6 20.4 0.0
v 0.6 20.4 0.0
v -0.6 20.6 0.0
v 0.6 20.6 0.0
v -0.6 20.8 0.0
v 0.6 20.8 0.0
v -0.6 21.0 0.0
v 0.6 21.0 0.0
v -0.6 21.2 0.0
v 0.6 21.2 0.0
v -0.6 21.4 0.0
v 0.6 21.4 0.0
v -0.6 21.6 0.0
v 0.6 21.6 0.0
v -0.6 21.8 0.0
v 0.6 21.8 0.0
v -0.6 22.0 0.0
v 0.6 22.0 0.0
v -0.6 22.2 0.0
v 0.6 22.2 0.0
v -0.6 22.4 0.0
v 0.6 22.4 0.0
v -0.6 22.6 0.0
v 0.6 22.6 0.0
v -0.6 22.8 0.0
v 0.6 22.8 0.0
v -0.6 23.0 0.0
v 0.6 23.0 0.0
v -0.6 23.2 0.0
v 0.6 23.2 0.0
v -0.6 23.4 0.0
v 0.6 23.4 0.0
v -0.6 23.6 0.0
v 0.6 23.6 0.0
v -0.6 23.8 0.0
v 0.6 23.8 0.0
v -0.6 24.0 0.0
v 0.6 24.0 0.0
v -0.6 24.2 0.0
v 0.6 24.2 0.0
v -0.6 24.4 0.0
v 0.6 24.4 0.0
v -0.6 24.6 0.0
v 0.6 24.6 0.0
v -0.6 24.8 0.0
v 0.6 24.8 0.0
v -0.6 25.0 0.0
v 0.6 25.0 0.0
v -0.6 25.2 0.0
v 0.6 25.2 0.0
v -0.6 25.4 0.0
v 0.6 25.4 0.0
v -0.6 25.6 0.0
v 0.6 25.6 0.0
v -0.6 25.8 0.0
v 0.6 25.8 0.0
v -0.6 26.0 0.0
v 0.6 26.0 0.0
f 1 2 4 3
f 3 4 6 5
f 5 6 8 7
f 7 8 10 9
f 9 10 12 11
f 11 12 14 13
f 13 14 16 15
f 15 16 18 17
f 17 18 20 19
f 19 20 22 21
f 21 22 24 23
f 23 24 26 25
f 25 26 28 27
f 27 28 30 29
f 29 30 32 31
f 31 32 34 33
f 33 34 36 35
f 35 36 38 37
f 37 38 40 39
f 39 40 42 41
f 41 42 44 43
f 43 44 46 45
f 45 46 48 47
f 47 48 50 49
f 49 50 52 51
f 51 52 54 53
f 53 54 56 55
f 55 56 58 57
f 57 58 60 59
f 59 60 62 61
f 61 62 64 63
f 63 64 66 65
f 65 66 68 67
f 67 68 70 69
f 69 70 72 71
f 71 72 74 73
f 73 74 76 75
f 75 76 78 77
f 77 78 80 79
f 79 80 82 81
f 81 82 84 83
f 83 84 86 85
f 85 86 88 87
f 87 88 90 89
f 89 90 92 91
f 91 92 94 93
f 93 94 96 95
f 95 96 98 97
f 97 98 100 99
f 99 100 102 101
f 101 102 104 103
f 103 104 106 105
f 105 106 108 107
f 107 108 110 109
f 109 110 112 111
f 111 112 114 113
f 113 114 116 115
f 115 116 118 117
f 117 118 120 119
f 119 120 122 121
f 121 122 124 123
f 123 124 126 125
f 125 126 128 127
f 127 128 130 129
f 129 130 132 131
f 131 132 134 133
f 133 134 136 135
f 135 136 138 137
f 137 138 140 139
f 139 140 142 141
f 141 142 144 143
f 143 144 146 145
f 145 146 148 147
f 147 148 150 149
f 149 150 152 151
f 151 152 154 153
f 153 154 156 155
f 155 156 158 157
f 157 158 160 159
f 159 160 162 161
f 161 162 164 163
f 163 164 166 165
f 165 166 168 167
f 167 168 170 169
f 169 170 172 171
f 171 172 174 173
f 173 174 176 175
f 175 176 178 177
f 177 178 180 179
f 179 180 182 181
f 181 182 184 183
f 183 184 186 185
f 185 186 188 187
f 187 188 190 189
f 189 190 192 191
f 191 192 194 193
f 193 194 196 195
f 195 196 198 197
f 197 198 200 199
f 199 200 202 201
f 201 202 204 203
f 203 204 206 205
f 205 206 208 207
f 207 208 210 209
f 209 210 212 211
f 211 212 214 213
f 213 214 216 215
f 215 216 218 217
f 217 218 220 219
f 219 220 222 221
f 221 222 224 223
f 223 224 226 225
f 225 226 228 227
f 227 228 230 229
f 229 230 232 231
f 231 232 234 233
f 233 234 236 235
f 235 236 238 237
f 237 238 240 239
f 239 240 242 241
f 241 242 244 243
f 243 244 246 245
f 245 246 248 247
f 247 248 250 249
f 249 250 252 251
f 251 252 254 253
f 253 254 256 255
f 255 256 258 257
f 257 258 260 259
f 259 260 262 261
