# Blender 5.2.2 LTS
# www.blender.org
mtllib environment.mtl
g pe_street_render_Cube.023
v -4.300000 -0.100000 3.300000
v -4.300000 0.000000 3.300000
v -4.300000 -0.100000 -5.300000
v -4.300000 0.000000 -5.300000
v 4.300000 -0.100000 3.300000
v 4.300000 0.000000 3.300000
v 4.300000 -0.100000 -5.300000
v 4.300000 0.000000 -5.300000
v -4.300000 0.000000 -5.000000
v -4.300000 3.400000 -5.000000
v -4.300000 0.000000 -5.300000
v -4.300000 3.400000 -5.300000
v 4.300000 0.000000 -5.000000
v 4.300000 3.400000 -5.000000
v 4.300000 0.000000 -5.300000
v 4.300000 3.400000 -5.300000
v -4.300000 0.000000 3.300000
v -4.300000 3.400000 3.300000
v -4.300000 0.000000 -5.300000
v -4.300000 3.400000 -5.300000
v -4.000000 0.000000 3.300000
v -4.000000 3.400000 3.300000
v -4.000000 0.000000 -5.300000
v -4.000000 3.400000 -5.300000
v 4.000000 0.000000 3.300000
v 4.000000 3.400000 3.300000
v 4.000000 0.000000 -5.300000
v 4.000000 3.400000 -5.300000
v 4.300000 0.000000 3.300000
v 4.300000 3.400000 3.300000
v 4.300000 0.000000 -5.300000
v 4.300000 3.400000 -5.300000
v -4.000000 0.000000 -4.950000
v -4.000000 0.180000 -4.950000
v -4.000000 0.000000 -5.010000
v -4.000000 0.180000 -5.010000
v 4.000000 0.000000 -4.950000
v 4.000000 0.180000 -4.950000
v 4.000000 0.000000 -5.010000
v 4.000000 0.180000 -5.010000
v -4.010000 0.000000 0.000000
v -4.010000 0.180000 0.000000
v -4.010000 0.000000 -5.000000
v -4.010000 0.180000 -5.000000
v -3.950000 0.000000 0.000000
v -3.950000 0.180000 0.000000
v -3.950000 0.000000 -5.000000
v -3.950000 0.180000 -5.000000
v 3.950000 0.000000 0.000000
v 3.950000 0.180000 0.000000
v 3.950000 0.000000 -5.000000
v 3.950000 0.180000 -5.000000
v 4.010000 0.000000 0.000000
v 4.010000 0.180000 0.000000
v 4.010000 0.000000 -5.000000
v 4.010000 0.180000 -5.000000
v -3.400000 1.650000 -4.970000
v -3.400000 2.750000 -4.970000
v -3.400000 1.650000 -5.010000
v -3.400000 2.750000 -5.010000
v -2.600000 1.650000 -4.970000
v -2.600000 2.750000 -4.970000
v -2.600000 1.650000 -5.010000
v -2.600000 2.750000 -5.010000
v -1.400000 1.650000 -4.970000
v -1.400000 2.750000 -4.970000
v -1.400000 1.650000 -5.010000
v -1.400000 2.750000 -5.010000
v -0.600000 1.650000 -4.970000
v -0.600000 2.750000 -4.970000
v -0.600000 1.650000 -5.010000
v -0.600000 2.750000 -5.010000
v 0.600000 1.650000 -4.970000
v 0.600000 2.750000 -4.970000
v 0.600000 1.650000 -5.010000
v 0.600000 2.750000 -5.010000
v 1.400000 1.650000 -4.970000
v 1.400000 2.750000 -4.970000
v 1.400000 1.650000 -5.010000
v 1.400000 2.750000 -5.010000
v 2.600000 1.650000 -4.970000
v 2.600000 2.750000 -4.970000
v 2.600000 1.650000 -5.010000
v 2.600000 2.750000 -5.010000
v 3.400000 1.650000 -4.970000
v 3.400000 2.750000 -4.970000
v 3.400000 1.650000 -5.010000
v 3.400000 2.750000 -5.010000
v -2.400000 2.850000 -4.600000
v -2.400000 3.150000 -4.600000
v -2.400000 2.850000 -5.000000
v -2.400000 3.150000 -5.000000
v 2.400000 2.850000 -4.600000
v 2.400000 3.150000 -4.600000
v 2.400000 2.850000 -5.000000
v 2.400000 3.150000 -5.000000
v -2.400000 2.850000 -4.560000
v -2.400000 2.910000 -4.560000
v -2.400000 2.850000 -4.600000
v -2.400000 2.910000 -4.600000
v 2.400000 2.850000 -4.560000
v 2.400000 2.910000 -4.560000
v 2.400000 2.850000 -4.600000
v 2.400000 2.910000 -4.600000
v -3.400000 0.000000 -0.660000
v -3.400000 3.000000 -0.660000
v -3.357574 0.000000 -0.642426
v -3.357574 3.000000 -0.642426
v -3.340000 0.000000 -0.600000
v -3.340000 3.000000 -0.600000
v -3.357574 0.000000 -0.557574
v -3.357574 3.000000 -0.557574
v -3.400000 0.000000 -0.540000
v -3.400000 3.000000 -0.540000
v -3.442426 0.000000 -0.557574
v -3.442426 3.000000 -0.557574
v -3.460000 0.000000 -0.600000
v -3.460000 3.000000 -0.600000
v -3.442426 0.000000 -0.642426
v -3.442426 3.000000 -0.642426
v -3.400000 3.280000 -0.600000
v -3.400000 2.920000 -0.600000
v -3.337812 3.245623 -0.685595
v -3.299377 3.155623 -0.738496
v -3.299377 3.044377 -0.738496
v -3.337812 2.954377 -0.685595
v -3.299377 3.245623 -0.632694
v -3.237189 3.155623 -0.652901
v -3.237189 3.044377 -0.652901
v -3.299377 2.954377 -0.632694
v -3.299377 3.245623 -0.567306
v -3.237189 3.155623 -0.547099
v -3.237189 3.044377 -0.547099
v -3.299377 2.954377 -0.567306
v -3.337812 3.245623 -0.514405
v -3.299377 3.155623 -0.461504
v -3.299377 3.044377 -0.461504
v -3.337812 2.954377 -0.514405
v -3.400000 3.245623 -0.494199
v -3.400000 3.155623 -0.428810
v -3.400000 3.044377 -0.428810
v -3.400000 2.954377 -0.494199
v -3.462188 3.245623 -0.514405
v -3.500623 3.155623 -0.461504
v -3.500623 3.044377 -0.461504
v -3.462188 2.954377 -0.514405
v -3.500623 3.245623 -0.567306
v -3.562812 3.155623 -0.547099
v -3.562812 3.044377 -0.547099
v -3.500623 2.954377 -0.567306
v -3.500623 3.245623 -0.632694
v -3.562812 3.155623 -0.652901
v -3.562812 3.044377 -0.652901
v -3.500623 2.954377 -0.632694
v -3.462188 3.245623 -0.685595
v -3.500623 3.155623 -0.738496
v -3.500623 3.044377 -0.738496
v -3.462188 2.954377 -0.685595
v -3.400000 3.245623 -0.705801
v -3.400000 3.155623 -0.771190
v -3.400000 3.044377 -0.771190
v -3.400000 2.954377 -0.705801
v 3.400000 0.000000 -0.660000
v 3.400000 3.000000 -0.660000
v 3.442426 0.000000 -0.642426
v 3.442426 3.000000 -0.642426
v 3.460000 0.000000 -0.600000
v 3.460000 3.000000 -0.600000
v 3.442426 0.000000 -0.557574
v 3.442426 3.000000 -0.557574
v 3.400000 0.000000 -0.540000
v 3.400000 3.000000 -0.540000
v 3.357574 0.000000 -0.557574
v 3.357574 3.000000 -0.557574
v 3.340000 0.000000 -0.600000
v 3.340000 3.000000 -0.600000
v 3.357574 0.000000 -0.642426
v 3.357574 3.000000 -0.642426
v 3.400000 3.280000 -0.600000
v 3.400000 2.920000 -0.600000
v 3.462188 3.245623 -0.685595
v 3.500623 3.155623 -0.738496
v 3.500623 3.044377 -0.738496
v 3.462188 2.954377 -0.685595
v 3.500623 3.245623 -0.632694
v 3.562812 3.155623 -0.652901
v 3.562812 3.044377 -0.652901
v 3.500623 2.954377 -0.632694
v 3.500623 3.245623 -0.567306
v 3.562812 3.155623 -0.547099
v 3.562812 3.044377 -0.547099
v 3.500623 2.954377 -0.567306
v 3.462188 3.245623 -0.514405
v 3.500623 3.155623 -0.461504
v 3.500623 3.044377 -0.461504
v 3.462188 2.954377 -0.514405
v 3.400000 3.245623 -0.494199
v 3.400000 3.155623 -0.428810
v 3.400000 3.044377 -0.428810
v 3.400000 2.954377 -0.494199
v 3.337812 3.245623 -0.514405
v 3.299377 3.155623 -0.461504
v 3.299377 3.044377 -0.461504
v 3.337812 2.954377 -0.514405
v 3.299377 3.245623 -0.567306
v 3.237189 3.155623 -0.547099
v 3.237189 3.044377 -0.547099
v 3.299377 2.954377 -0.567306
v 3.299377 3.245623 -0.632694
v 3.237189 3.155623 -0.652901
v 3.237189 3.044377 -0.652901
v 3.299377 2.954377 -0.632694
v 3.337812 3.245623 -0.685595
v 3.299377 3.155623 -0.738496
v 3.299377 3.044377 -0.738496
v 3.337812 2.954377 -0.685595
v 3.400000 3.245623 -0.705801
v 3.400000 3.155623 -0.771190
v 3.400000 3.044377 -0.771190
v 3.400000 2.954377 -0.705801
v -3.950000 0.000000 -4.450000
v -3.950000 0.160000 -4.450000
v -3.950000 0.000000 -4.850000
v -3.950000 0.160000 -4.850000
v -3.250000 0.000000 -4.450000
v -3.250000 0.160000 -4.450000
v -3.250000 0.000000 -4.850000
v -3.250000 0.160000 -4.850000
v -3.120000 -0.040000 -4.370000
v -3.120000 0.200000 -4.370000
v -3.120000 -0.040000 -4.770000
v -3.120000 0.200000 -4.770000
v -2.420000 -0.040000 -4.370000
v -2.420000 0.200000 -4.370000
v -2.420000 -0.040000 -4.770000
v -2.420000 0.200000 -4.770000
v -2.290000 0.000000 -4.290000
v -2.290000 0.160000 -4.290000
v -2.290000 0.000000 -4.690000
v -2.290000 0.160000 -4.690000
v -1.590000 0.000000 -4.290000
v -1.590000 0.160000 -4.290000
v -1.590000 0.000000 -4.690000
v -1.590000 0.160000 -4.690000
v -1.460000 -0.040000 -4.450000
v -1.460000 0.200000 -4.450000
v -1.460000 -0.040000 -4.850000
v -1.460000 0.200000 -4.850000
v -0.760000 -0.040000 -4.450000
v -0.760000 0.200000 -4.450000
v -0.760000 -0.040000 -4.850000
v -0.760000 0.200000 -4.850000
v -0.630000 0.000000 -4.370000
v -0.630000 0.160000 -4.370000
v -0.630000 0.000000 -4.770000
v -0.630000 0.160000 -4.770000
v 0.070000 0.000000 -4.370000
v 0.070000 0.160000 -4.370000
v 0.070000 0.000000 -4.770000
v 0.070000 0.160000 -4.770000
v 0.200000 -0.040000 -4.290000
v 0.200000 0.200000 -4.290000
v 0.200000 -0.040000 -4.690000
v 0.200000 0.200000 -4.690000
v 0.900000 -0.040000 -4.290000
v 0.900000 0.200000 -4.290000
v 0.900000 -0.040000 -4.690000
v 0.900000 0.200000 -4.690000
v 1.030000 0.000000 -4.450000
v 1.030000 0.160000 -4.450000
v 1.030000 0.000000 -4.850000
v 1.030000 0.160000 -4.850000
v 1.730000 0.000000 -4.450000
v 1.730000 0.160000 -4.450000
v 1.730000 0.000000 -4.850000
v 1.730000 0.160000 -4.850000
v 1.860000 -0.040000 -4.370000
v 1.860000 0.200000 -4.370000
v 1.860000 -0.040000 -4.770000
v 1.860000 0.200000 -4.770000
v 2.560000 -0.040000 -4.370000
v 2.560000 0.200000 -4.370000
v 2.560000 -0.040000 -4.770000
v 2.560000 0.200000 -4.770000
v 2.690000 0.000000 -4.290000
v 2.690000 0.160000 -4.290000
v 2.690000 0.000000 -4.690000
v 2.690000 0.160000 -4.690000
v 3.390000 0.000000 -4.290000
v 3.390000 0.160000 -4.290000
v 3.390000 0.000000 -4.690000
v 3.390000 0.160000 -4.690000
v -3.680000 -0.040000 -4.450000
v -3.680000 0.200000 -4.450000
v -3.680000 -0.040000 -4.850000
v -3.680000 0.200000 -4.850000
v -2.980000 -0.040000 -4.450000
v -2.980000 0.200000 -4.450000
v -2.980000 -0.040000 -4.850000
v -2.980000 0.200000 -4.850000
vn -1.0000 -0.0000 -0.0000
vn -0.0000 -0.0000 -1.0000
vn 1.0000 -0.0000 -0.0000
vn -0.0000 -0.0000 1.0000
vn -0.0000 -1.0000 -0.0000
vn -0.0000 1.0000 -0.0000
vn 0.3827 -0.0000 -0.9239
vn 0.9239 -0.0000 -0.3827
vn 0.9239 -0.0000 0.3827
vn 0.3827 -0.0000 0.9239
vn -0.3827 -0.0000 0.9239
vn -0.9239 -0.0000 0.3827
vn -0.9239 -0.0000 -0.3827
vn -0.3827 -0.0000 -0.9239
vn 0.0999 0.9463 -0.3075
vn 0.2542 -0.5685 -0.7824
vn 0.2542 0.5685 -0.7824
vn 0.0999 -0.9463 -0.3075
vn 0.3090 -0.0000 -0.9511
vn 0.2616 -0.9463 -0.1900
vn 0.8090 -0.0000 -0.5878
vn 0.2615 0.9463 -0.1900
vn 0.6656 -0.5685 -0.4836
vn 0.6656 0.5685 -0.4836
vn 0.3233 -0.9463 -0.0000
vn 0.3233 0.9463 -0.0000
vn 0.8227 -0.5685 -0.0000
vn 0.8227 0.5685 -0.0000
vn 0.2616 -0.9463 0.1900
vn 0.8090 -0.0000 0.5878
vn 0.2615 0.9463 0.1900
vn 0.6656 -0.5685 0.4836
vn 0.6656 0.5685 0.4836
vn 0.0999 -0.9463 0.3075
vn 0.3090 -0.0000 0.9511
vn 0.0999 0.9463 0.3075
vn 0.2542 -0.5685 0.7824
vn 0.2542 0.5685 0.7824
vn -0.0999 -0.9463 0.3075
vn -0.3090 -0.0000 0.9511
vn -0.0999 0.9463 0.3075
vn -0.2542 -0.5685 0.7824
vn -0.2542 0.5685 0.7824
vn -0.2616 -0.9463 0.1900
vn -0.8090 -0.0000 0.5878
vn -0.2615 0.9463 0.1900
vn -0.6656 -0.5685 0.4836
vn -0.6656 0.5685 0.4836
vn -0.3233 -0.9463 -0.0000
vn -0.3233 0.9463 -0.0000
vn -0.8227 -0.5685 -0.0000
vn -0.8227 0.5685 -0.0000
vn -0.2616 -0.9463 -0.1900
vn -0.8090 -0.0000 -0.5878
vn -0.2615 0.9463 -0.1900
vn -0.6656 -0.5685 -0.4836
vn -0.6656 0.5685 -0.4836
vn -0.0999 -0.9463 -0.3075
vn -0.3090 -0.0000 -0.9511
vn -0.0999 0.9463 -0.3075
vn -0.2542 -0.5685 -0.7824
vn -0.2542 0.5685 -0.7824
vt 0.954102 0.385742
vt 0.957031 0.002930
vt 0.957031 0.385742
vt 0.938477 0.822266
vt 0.942383 0.440430
vt 0.942383 0.822266
vt 0.957031 0.822266
vt 0.959961 0.440430
vt 0.959961 0.822266
vt 0.948242 0.822266
vt 0.951172 0.440430
vt 0.951172 0.822266
vt 0.385742 0.385742
vt 0.002930 0.002930
vt 0.385742 0.002930
vt 0.385742 0.773438
vt 0.002930 0.390625
vt 0.385742 0.390625
vt 0.002930 0.779297
vt 0.015625 0.929688
vt 0.002930 0.929688
vt 0.703125 0.385742
vt 0.854492 0.002930
vt 0.854492 0.385742
vt 0.020508 0.779297
vt 0.033203 0.929688
vt 0.020508 0.929688
vt 0.703125 0.773438
vt 0.854492 0.390625
vt 0.854492 0.773438
vt 0.872070 0.385742
vt 0.859375 0.002930
vt 0.872070 0.002930
vt 0.872070 0.773438
vt 0.859375 0.390625
vt 0.872070 0.390625
vt 0.390625 0.385742
vt 0.541992 0.002930
vt 0.541992 0.385742
vt 0.039062 0.779297
vt 0.050781 0.929688
vt 0.039062 0.929688
vt 0.546875 0.385742
vt 0.698242 0.002930
vt 0.698242 0.385742
vt 0.056641 0.779297
vt 0.069336 0.929688
vt 0.056641 0.929688
vt 0.877930 0.385742
vt 0.889648 0.002930
vt 0.889648 0.385742
vt 0.877930 0.773438
vt 0.889648 0.390625
vt 0.889648 0.773438
vt 0.390625 0.773438
vt 0.541992 0.390625
vt 0.541992 0.773438
vt 0.074219 0.779297
vt 0.086914 0.929688
vt 0.074219 0.929688
vt 0.546875 0.773438
vt 0.698242 0.390625
vt 0.698242 0.773438
vt 0.092773 0.779297
vt 0.105469 0.929688
vt 0.092773 0.929688
vt 0.895508 0.385742
vt 0.908203 0.002930
vt 0.908203 0.385742
vt 0.895508 0.773438
vt 0.908203 0.390625
vt 0.908203 0.773438
vt 0.767578 0.850586
vt 0.768555 0.857422
vt 0.767578 0.857422
vt 0.913086 0.795898
vt 0.920898 0.440430
vt 0.920898 0.795898
vt 0.774414 0.850586
vt 0.776367 0.857422
vt 0.774414 0.857422
vt 0.925781 0.795898
vt 0.933594 0.440430
vt 0.933594 0.795898
vt 0.980469 0.795898
vt 0.978516 0.440430
vt 0.980469 0.440430
vt 0.987305 0.795898
vt 0.986328 0.440430
vt 0.987305 0.440430
vt 0.962891 0.224609
vt 0.969727 0.002930
vt 0.969727 0.224609
vt 0.781250 0.850586
vt 0.783203 0.857422
vt 0.781250 0.857422
vt 0.965820 0.662109
vt 0.972656 0.440430
vt 0.972656 0.662109
vt 0.988281 0.002930
vt 0.990234 0.010742
vt 0.988281 0.010742
vt 0.988281 0.232422
vt 0.990234 0.232422
vt 0.993164 0.897461
vt 0.995117 0.675781
vt 0.995117 0.897461
vt 0.965820 0.889648
vt 0.972656 0.667969
vt 0.972656 0.889648
vt 0.789062 0.850586
vt 0.791016 0.857422
vt 0.789062 0.857422
vt 0.975586 0.224609
vt 0.982422 0.002930
vt 0.982422 0.224609
vt 0.993164 0.440430
vt 0.995117 0.448242
vt 0.993164 0.448242
vt 0.993164 0.669922
vt 0.995117 0.669922
vt 0.995117 0.224609
vt 0.997070 0.002930
vt 0.997070 0.224609
vt 0.861328 0.814453
vt 0.862305 0.863281
vt 0.861328 0.863281
vt 0.110352 0.779297
vt 0.145508 0.827148
vt 0.110352 0.827148
vt 0.868164 0.814453
vt 0.869141 0.863281
vt 0.868164 0.863281
vt 0.151367 0.779297
vt 0.185547 0.827148
vt 0.151367 0.827148
vt 0.881836 0.849609
vt 0.880859 0.814453
vt 0.881836 0.814453
vt 0.610352 0.885742
vt 0.609375 0.850586
vt 0.610352 0.850586
vt 0.874023 0.814453
vt 0.875000 0.863281
vt 0.874023 0.863281
vt 0.312500 0.779297
vt 0.346680 0.827148
vt 0.312500 0.827148
vt 0.346680 0.833008
vt 0.347656 0.880859
vt 0.346680 0.880859
vt 0.271484 0.779297
vt 0.306641 0.827148
vt 0.271484 0.827148
vt 0.630859 0.885742
vt 0.629883 0.850586
vt 0.630859 0.850586
vt 0.640625 0.885742
vt 0.639648 0.850586
vt 0.640625 0.850586
vt 0.352539 0.833008
vt 0.353516 0.880859
vt 0.352539 0.880859
vt 0.352539 0.779297
vt 0.386719 0.827148
vt 0.352539 0.827148
vt 0.359375 0.833008
vt 0.360352 0.880859
vt 0.359375 0.880859
vt 0.392578 0.779297
vt 0.427734 0.827148
vt 0.392578 0.827148
vt 0.646484 0.885742
vt 0.645508 0.850586
vt 0.646484 0.850586
vt 0.653320 0.885742
vt 0.652344 0.850586
vt 0.653320 0.850586
vt 0.365234 0.833008
vt 0.366211 0.880859
vt 0.365234 0.880859
vt 0.191406 0.779297
vt 0.225586 0.827148
vt 0.191406 0.827148
vt 0.372070 0.833008
vt 0.373047 0.880859
vt 0.372070 0.880859
vt 0.231445 0.779297
vt 0.266602 0.827148
vt 0.231445 0.827148
vt 0.618164 0.885742
vt 0.617188 0.850586
vt 0.618164 0.850586
vt 0.624023 0.885742
vt 0.623047 0.850586
vt 0.624023 0.850586
vt 0.157227 0.849609
vt 0.169922 0.833008
vt 0.169922 0.849609
vt 0.935547 0.215820
vt 0.948242 0.002930
vt 0.948242 0.215820
vt 0.175781 0.849609
vt 0.187500 0.833008
vt 0.187500 0.849609
vt 0.935547 0.434570
vt 0.948242 0.221680
vt 0.948242 0.434570
vt 0.930664 0.215820
vt 0.913086 0.002930
vt 0.930664 0.002930
vt 0.930664 0.434570
vt 0.913086 0.221680
vt 0.930664 0.221680
vt 0.835938 0.850586
vt 0.836914 0.852539
vt 0.835938 0.852539
vt 0.432617 0.992188
vt 0.434570 0.779297
vt 0.434570 0.992188
vt 0.842773 0.850586
vt 0.843750 0.852539
vt 0.842773 0.852539
vt 0.440430 0.992188
vt 0.441406 0.779297
vt 0.441406 0.992188
vt 0.448242 0.992188
vt 0.447266 0.779297
vt 0.448242 0.779297
vt 0.455061 0.992623
vt 0.453277 0.778558
vt 0.455061 0.778558
vt 0.495117 0.779297
vt 0.496094 0.912109
vt 0.495117 0.912109
vt 0.459961 0.779297
vt 0.461914 0.912109
vt 0.459961 0.912109
vt 0.461914 0.779297
vt 0.462891 0.912109
vt 0.501953 0.779297
vt 0.503906 0.912109
vt 0.501953 0.912109
vt 0.503906 0.779297
vt 0.504883 0.912109
vt 0.468750 0.779297
vt 0.470703 0.912109
vt 0.468750 0.912109
vt 0.816406 0.850586
vt 0.819336 0.852539
vt 0.818359 0.854492
vt 0.470703 0.779297
vt 0.471680 0.912109
vt 0.494141 0.779297
vt 0.494141 0.912109
vt 0.797852 0.850586
vt 0.799805 0.852539
vt 0.798828 0.854492
vt 0.718750 0.858398
vt 0.717773 0.855469
vt 0.720703 0.855469
vt 0.663086 0.862305
vt 0.666992 0.858398
vt 0.665039 0.862305
vt 0.663086 0.850586
vt 0.666992 0.854492
vt 0.663086 0.854492
vt 0.730469 0.855469
vt 0.728516 0.858398
vt 0.726562 0.855469
vt 0.663086 0.858398
vt 0.726562 0.853516
vt 0.412109 0.836914
vt 0.416016 0.840820
vt 0.412109 0.840820
vt 0.720703 0.853516
vt 0.416992 0.844727
vt 0.415039 0.844727
vt 0.415039 0.833008
vt 0.416016 0.836914
vt 0.728516 0.851562
vt 0.419922 0.840820
vt 0.718750 0.851562
vt 0.418945 0.844727
vt 0.416992 0.833008
vt 0.419922 0.836914
vt 0.730469 0.850586
vt 0.423828 0.840820
vt 0.717773 0.850586
vt 0.420898 0.844727
vt 0.418945 0.833008
vt 0.423828 0.836914
vt 0.732422 0.851562
vt 0.671875 0.854492
vt 0.676758 0.858398
vt 0.671875 0.858398
vt 0.714844 0.851562
vt 0.673828 0.862305
vt 0.676758 0.862305
vt 0.673828 0.850586
vt 0.676758 0.854492
vt 0.734375 0.853516
vt 0.679688 0.858398
vt 0.712891 0.853516
vt 0.678711 0.862305
vt 0.676758 0.850586
vt 0.679688 0.854492
vt 0.734375 0.855469
vt 0.378906 0.836914
vt 0.381836 0.840820
vt 0.378906 0.840820
vt 0.712891 0.855469
vt 0.382812 0.844727
vt 0.380859 0.844727
vt 0.382812 0.833008
vt 0.381836 0.836914
vt 0.732422 0.858398
vt 0.385742 0.840820
vt 0.714844 0.858398
vt 0.384766 0.844727
vt 0.385742 0.836914
vt 0.730469 0.859375
vt 0.389648 0.840820
vt 0.717773 0.859375
vt 0.387695 0.844727
vt 0.384766 0.833008
vt 0.389648 0.836914
vt 0.658203 0.854492
vt 0.658203 0.858398
vt 0.660156 0.862305
vt 0.660156 0.850586
vt 0.512695 0.779297
vt 0.513672 0.912109
vt 0.512695 0.912109
vt 0.476562 0.779297
vt 0.478516 0.912109
vt 0.476562 0.912109
vt 0.478516 0.779297
vt 0.479492 0.912109
vt 0.518555 0.779297
vt 0.520508 0.912109
vt 0.518555 0.912109
vt 0.520508 0.779297
vt 0.521484 0.912109
vt 0.485352 0.779297
vt 0.487305 0.912109
vt 0.485352 0.912109
vt 0.805664 0.852539
vt 0.808594 0.850586
vt 0.809570 0.853516
vt 0.487305 0.779297
vt 0.488281 0.912109
vt 0.510742 0.779297
vt 0.510742 0.912109
vt 0.829102 0.850586
vt 0.830078 0.853516
vt 0.828125 0.854492
vt 0.743164 0.855469
vt 0.746094 0.858398
vt 0.743164 0.859375
vt 0.690430 0.854492
vt 0.693359 0.858398
vt 0.690430 0.858398
vt 0.754883 0.858398
vt 0.757812 0.854492
vt 0.757812 0.859375
vt 0.692383 0.862305
vt 0.690430 0.862305
vt 0.692383 0.850586
vt 0.693359 0.854492
vt 0.741211 0.858398
vt 0.378906 0.854492
vt 0.381836 0.858398
vt 0.378906 0.858398
vt 0.759766 0.858398
vt 0.382812 0.862305
vt 0.380859 0.862305
vt 0.382812 0.850586
vt 0.381836 0.854492
vt 0.740234 0.855469
vt 0.385742 0.858398
vt 0.761719 0.855469
vt 0.384766 0.862305
vt 0.385742 0.854492
vt 0.740234 0.853516
vt 0.389648 0.858398
vt 0.761719 0.853516
vt 0.387695 0.862305
vt 0.384766 0.850586
vt 0.389648 0.854492
vt 0.741211 0.851562
vt 0.699219 0.854492
vt 0.704102 0.858398
vt 0.699219 0.858398
vt 0.759766 0.851562
vt 0.701172 0.862305
vt 0.704102 0.862305
vt 0.701172 0.850586
vt 0.704102 0.854492
vt 0.744141 0.850586
vt 0.707031 0.858398
vt 0.757812 0.850586
vt 0.705078 0.862305
vt 0.704102 0.850586
vt 0.707031 0.854492
vt 0.746094 0.851562
vt 0.395508 0.836914
vt 0.399414 0.840820
vt 0.395508 0.840820
vt 0.754883 0.851562
vt 0.400391 0.844727
vt 0.397461 0.844727
vt 0.400391 0.833008
vt 0.399414 0.836914
vt 0.748047 0.853516
vt 0.403320 0.840820
vt 0.753906 0.853516
vt 0.402344 0.844727
vt 0.403320 0.836914
vt 0.748047 0.855469
vt 0.407227 0.840820
vt 0.753906 0.855469
vt 0.404297 0.844727
vt 0.402344 0.833008
vt 0.407227 0.836914
vt 0.685547 0.854492
vt 0.685547 0.858398
vt 0.687500 0.862305
vt 0.690430 0.850586
vt 0.395508 0.867188
vt 0.401367 0.850586
vt 0.401367 0.867188
vt 0.853516 0.809570
vt 0.859375 0.779297
vt 0.859375 0.809570
vt 0.407227 0.867188
vt 0.413086 0.850586
vt 0.413086 0.867188
vt 0.110352 0.863281
vt 0.117188 0.833008
vt 0.117188 0.863281
vt 0.633789 0.809570
vt 0.617188 0.779297
vt 0.633789 0.779297
vt 0.656250 0.809570
vt 0.639648 0.779297
vt 0.656250 0.779297
vt 0.193359 0.849609
vt 0.203125 0.833008
vt 0.203125 0.849609
vt 0.753906 0.844727
vt 0.763672 0.814453
vt 0.763672 0.844727
vt 0.208984 0.849609
vt 0.218750 0.833008
vt 0.218750 0.849609
vt 0.768555 0.844727
vt 0.778320 0.814453
vt 0.778320 0.844727
vt 0.678711 0.809570
vt 0.662109 0.779297
vt 0.678711 0.779297
vt 0.701172 0.809570
vt 0.684570 0.779297
vt 0.701172 0.779297
vt 0.418945 0.867188
vt 0.424805 0.850586
vt 0.424805 0.867188
vt 0.849609 0.844727
vt 0.856445 0.814453
vt 0.856445 0.844727
vt 0.527344 0.867188
vt 0.533203 0.850586
vt 0.533203 0.867188
vt 0.122070 0.863281
vt 0.128906 0.833008
vt 0.128906 0.863281
vt 0.723633 0.809570
vt 0.707031 0.779297
vt 0.723633 0.779297
vt 0.656250 0.844727
vt 0.639648 0.814453
vt 0.656250 0.814453
vt 0.224609 0.849609
vt 0.233398 0.833008
vt 0.233398 0.849609
vt 0.662109 0.844727
vt 0.671875 0.814453
vt 0.671875 0.844727
vt 0.239258 0.849609
vt 0.249023 0.833008
vt 0.249023 0.849609
vt 0.676758 0.844727
vt 0.686523 0.814453
vt 0.686523 0.844727
vt 0.746094 0.809570
vt 0.729492 0.779297
vt 0.746094 0.779297
vt 0.768555 0.809570
vt 0.751953 0.779297
vt 0.768555 0.779297
vt 0.539062 0.867188
vt 0.544922 0.850586
vt 0.544922 0.867188
vt 0.837891 0.844727
vt 0.844727 0.814453
vt 0.844727 0.844727
vt 0.550781 0.867188
vt 0.556641 0.850586
vt 0.556641 0.867188
vt 0.840820 0.809570
vt 0.847656 0.779297
vt 0.847656 0.809570
vt 0.611328 0.844727
vt 0.594727 0.814453
vt 0.611328 0.814453
vt 0.791016 0.809570
vt 0.774414 0.779297
vt 0.791016 0.779297
vt 0.254883 0.849609
vt 0.264648 0.833008
vt 0.264648 0.849609
vt 0.708008 0.844727
vt 0.717773 0.814453
vt 0.717773 0.844727
vt 0.270508 0.849609
vt 0.279297 0.833008
vt 0.279297 0.849609
vt 0.722656 0.844727
vt 0.732422 0.814453
vt 0.732422 0.844727
vt 0.633789 0.844727
vt 0.617188 0.814453
vt 0.633789 0.814453
vt 0.813477 0.809570
vt 0.796875 0.779297
vt 0.813477 0.779297
vt 0.562500 0.867188
vt 0.568359 0.850586
vt 0.568359 0.867188
vt 0.814453 0.844727
vt 0.821289 0.814453
vt 0.821289 0.844727
vt 0.574219 0.867188
vt 0.580078 0.850586
vt 0.580078 0.867188
vt 0.826172 0.844727
vt 0.833008 0.814453
vt 0.833008 0.844727
vt 0.835938 0.809570
vt 0.819336 0.779297
vt 0.835938 0.779297
vt 0.543945 0.844727
vt 0.527344 0.814453
vt 0.543945 0.814453
vt 0.285156 0.849609
vt 0.294922 0.833008
vt 0.294922 0.849609
vt 0.738281 0.844727
vt 0.748047 0.814453
vt 0.748047 0.844727
vt 0.300781 0.849609
vt 0.310547 0.833008
vt 0.310547 0.849609
vt 0.692383 0.844727
vt 0.702148 0.814453
vt 0.702148 0.844727
vt 0.566406 0.844727
vt 0.549805 0.814453
vt 0.566406 0.814453
vt 0.588867 0.844727
vt 0.572266 0.814453
vt 0.588867 0.814453
vt 0.585938 0.867188
vt 0.591797 0.850586
vt 0.591797 0.867188
vt 0.133789 0.863281
vt 0.140625 0.833008
vt 0.140625 0.863281
vt 0.597656 0.867188
vt 0.603516 0.850586
vt 0.603516 0.867188
vt 0.145508 0.863281
vt 0.152344 0.833008
vt 0.152344 0.863281
vt 0.588867 0.809570
vt 0.572266 0.779297
vt 0.588867 0.779297
vt 0.611328 0.809570
vt 0.594727 0.779297
vt 0.611328 0.779297
vt 0.316406 0.849609
vt 0.325195 0.833008
vt 0.325195 0.849609
vt 0.784180 0.844727
vt 0.793945 0.814453
vt 0.793945 0.844727
vt 0.331055 0.849609
vt 0.340820 0.833008
vt 0.340820 0.849609
vt 0.799805 0.844727
vt 0.809570 0.814453
vt 0.809570 0.844727
vt 0.543945 0.809570
vt 0.527344 0.779297
vt 0.543945 0.779297
vt 0.566406 0.809570
vt 0.549805 0.779297
vt 0.566406 0.779297
vt 0.954102 0.002930
vt 0.938477 0.440430
vt 0.957031 0.440430
vt 0.948242 0.440430
vt 0.002930 0.385742
vt 0.002930 0.773438
vt 0.015625 0.779297
vt 0.703125 0.002930
vt 0.033203 0.779297
vt 0.703125 0.390625
vt 0.859375 0.385742
vt 0.859375 0.773438
vt 0.390625 0.002930
vt 0.050781 0.779297
vt 0.546875 0.002930
vt 0.069336 0.779297
vt 0.877930 0.002930
vt 0.877930 0.390625
vt 0.390625 0.390625
vt 0.086914 0.779297
vt 0.546875 0.390625
vt 0.105469 0.779297
vt 0.895508 0.002930
vt 0.895508 0.390625
vt 0.768555 0.850586
vt 0.913086 0.440430
vt 0.776367 0.850586
vt 0.925781 0.440430
vt 0.978516 0.795898
vt 0.986328 0.795898
vt 0.962891 0.002930
vt 0.783203 0.850586
vt 0.965820 0.440430
vt 0.990234 0.002930
vt 0.993164 0.675781
vt 0.965820 0.667969
vt 0.791016 0.850586
vt 0.975586 0.002930
vt 0.995117 0.440430
vt 0.995117 0.002930
vt 0.862305 0.814453
vt 0.145508 0.779297
vt 0.869141 0.814453
vt 0.185547 0.779297
vt 0.880859 0.849609
vt 0.609375 0.885742
vt 0.875000 0.814453
vt 0.346680 0.779297
vt 0.347656 0.833008
vt 0.306641 0.779297
vt 0.629883 0.885742
vt 0.639648 0.885742
vt 0.353516 0.833008
vt 0.386719 0.779297
vt 0.360352 0.833008
vt 0.427734 0.779297
vt 0.645508 0.885742
vt 0.652344 0.885742
vt 0.366211 0.833008
vt 0.225586 0.779297
vt 0.373047 0.833008
vt 0.266602 0.779297
vt 0.617188 0.885742
vt 0.623047 0.885742
vt 0.157227 0.833008
vt 0.935547 0.002930
vt 0.175781 0.833008
vt 0.935547 0.221680
vt 0.913086 0.215820
vt 0.913086 0.434570
vt 0.836914 0.850586
vt 0.432617 0.779297
vt 0.843750 0.850586
vt 0.440430 0.779297
vt 0.447266 0.992188
vt 0.453277 0.992623
vt 0.496094 0.779297
vt 0.462891 0.779297
vt 0.504883 0.779297
vt 0.816406 0.854492
vt 0.815430 0.853516
vt 0.815430 0.852539
vt 0.818359 0.850586
vt 0.819336 0.853516
vt 0.471680 0.779297
vt 0.797852 0.854492
vt 0.795898 0.853516
vt 0.795898 0.852539
vt 0.798828 0.850586
vt 0.799805 0.853516
vt 0.665039 0.850586
vt 0.420898 0.833008
vt 0.678711 0.850586
vt 0.380859 0.833008
vt 0.387695 0.833008
vt 0.513672 0.779297
vt 0.479492 0.779297
vt 0.521484 0.779297
vt 0.808594 0.854492
vt 0.807617 0.854492
vt 0.805664 0.853516
vt 0.807617 0.850586
vt 0.809570 0.852539
vt 0.488281 0.779297
vt 0.826172 0.853516
vt 0.826172 0.852539
vt 0.828125 0.850586
vt 0.830078 0.852539
vt 0.829102 0.854492
vt 0.380859 0.850586
vt 0.387695 0.850586
vt 0.705078 0.850586
vt 0.397461 0.833008
vt 0.404297 0.833008
vt 0.687500 0.850586
vt 0.395508 0.850586
vt 0.853516 0.779297
vt 0.407227 0.850586
vt 0.110352 0.833008
vt 0.617188 0.809570
vt 0.639648 0.809570
vt 0.193359 0.833008
vt 0.753906 0.814453
vt 0.208984 0.833008
vt 0.768555 0.814453
vt 0.662109 0.809570
vt 0.684570 0.809570
vt 0.418945 0.850586
vt 0.849609 0.814453
vt 0.527344 0.850586
vt 0.122070 0.833008
vt 0.707031 0.809570
vt 0.639648 0.844727
vt 0.224609 0.833008
vt 0.662109 0.814453
vt 0.239258 0.833008
vt 0.676758 0.814453
vt 0.729492 0.809570
vt 0.751953 0.809570
vt 0.539062 0.850586
vt 0.837891 0.814453
vt 0.550781 0.850586
vt 0.840820 0.779297
vt 0.594727 0.844727
vt 0.774414 0.809570
vt 0.254883 0.833008
vt 0.708008 0.814453
vt 0.270508 0.833008
vt 0.722656 0.814453
vt 0.617188 0.844727
vt 0.796875 0.809570
vt 0.562500 0.850586
vt 0.814453 0.814453
vt 0.574219 0.850586
vt 0.826172 0.814453
vt 0.819336 0.809570
vt 0.527344 0.844727
vt 0.285156 0.833008
vt 0.738281 0.814453
vt 0.300781 0.833008
vt 0.692383 0.814453
vt 0.549805 0.844727
vt 0.572266 0.844727
vt 0.585938 0.850586
vt 0.133789 0.833008
vt 0.597656 0.850586
vt 0.145508 0.833008
vt 0.572266 0.809570
vt 0.594727 0.809570
vt 0.316406 0.833008
vt 0.784180 0.814453
vt 0.331055 0.833008
vt 0.799805 0.814453
vt 0.527344 0.809570
vt 0.549805 0.809570
s 0
g pe_street_render_EnvironmentBakedAtlas
usemtl EnvironmentBakedAtlas
f 2/1/1 3/2/1 1/3/1
f 4/4/2 7/5/2 3/6/2
f 8/7/3 5/8/3 7/9/3
f 6/10/4 1/11/4 5/12/4
f 7/13/5 1/14/5 3/15/5
f 4/16/6 6/17/6 8/18/6
f 10/19/1 11/20/1 9/21/1
f 12/22/2 15/23/2 11/24/2
f 16/25/3 13/26/3 15/27/3
f 14/28/4 9/29/4 13/30/4
f 15/31/5 9/32/5 11/33/5
f 12/34/6 14/35/6 16/36/6
f 18/37/1 19/38/1 17/39/1
f 20/40/2 23/41/2 19/42/2
f 24/43/3 21/44/3 23/45/3
f 22/46/4 17/47/4 21/48/4
f 23/49/5 17/50/5 19/51/5
f 20/52/6 22/53/6 24/54/6
f 26/55/1 27/56/1 25/57/1
f 28/58/2 31/59/2 27/60/2
f 32/61/3 29/62/3 31/63/3
f 30/64/4 25/65/4 29/66/4
f 31/67/5 25/68/5 27/69/5
f 28/70/6 30/71/6 32/72/6
f 34/73/1 35/74/1 33/75/1
f 36/76/2 39/77/2 35/78/2
f 40/79/3 37/80/3 39/81/3
f 38/82/4 33/83/4 37/84/4
f 39/85/5 33/86/5 35/87/5
f 36/88/6 38/89/6 40/90/6
f 42/91/1 43/92/1 41/93/1
f 44/94/2 47/95/2 43/96/2
f 48/97/3 45/98/3 47/99/3
f 46/100/4 41/101/4 45/102/4
f 47/103/5 41/101/5 43/104/5
f 44/105/6 46/106/6 48/107/6
f 50/108/1 51/109/1 49/110/1
f 52/111/2 55/112/2 51/113/2
f 56/114/3 53/115/3 55/116/3
f 54/117/4 49/118/4 53/119/4
f 55/120/5 49/118/5 51/121/5
f 52/122/6 54/123/6 56/124/6
f 58/125/1 59/126/1 57/127/1
f 60/128/2 63/129/2 59/130/2
f 64/131/3 61/132/3 63/133/3
f 62/134/4 57/135/4 61/136/4
f 63/137/5 57/138/5 59/139/5
f 60/140/6 62/141/6 64/142/6
f 66/143/1 67/144/1 65/145/1
f 68/146/2 71/147/2 67/148/2
f 72/149/3 69/150/3 71/151/3
f 70/152/4 65/153/4 69/154/4
f 71/155/5 65/156/5 67/157/5
f 68/158/6 70/159/6 72/160/6
f 74/161/1 75/162/1 73/163/1
f 76/164/2 79/165/2 75/166/2
f 80/167/3 77/168/3 79/169/3
f 78/170/4 73/171/4 77/172/4
f 79/173/5 73/174/5 75/175/5
f 76/176/6 78/177/6 80/178/6
f 82/179/1 83/180/1 81/181/1
f 84/182/2 87/183/2 83/184/2
f 88/185/3 85/186/3 87/187/3
f 86/188/4 81/189/4 85/190/4
f 87/191/5 81/192/5 83/193/5
f 84/194/6 86/195/6 88/196/6
f 90/197/1 91/198/1 89/199/1
f 92/200/2 95/201/2 91/202/2
f 96/203/3 93/204/3 95/205/3
f 94/206/4 89/207/4 93/208/4
f 95/209/5 89/210/5 91/211/5
f 92/212/6 94/213/6 96/214/6
f 98/215/1 99/216/1 97/217/1
f 100/218/2 103/219/2 99/220/2
f 104/221/3 101/222/3 103/223/3
f 102/224/4 97/225/4 101/226/4
f 103/227/5 97/228/5 99/229/5
f 100/230/6 102/231/6 104/232/6
f 106/233/7 107/234/7 105/235/7
f 108/236/8 109/237/8 107/238/8
f 110/239/9 111/240/9 109/237/9
f 112/241/10 113/242/10 111/243/10
f 114/244/11 115/245/11 113/242/11
f 116/246/12 117/247/12 115/248/12
f 118/249/6 114/250/6 110/251/6
f 118/252/13 119/253/13 117/247/13
f 120/254/14 105/235/14 119/255/14
f 111/256/5 115/257/5 119/258/5
f 159/259/15 121/260/15 123/261/15
f 162/262/16 125/263/16 126/264/16
f 159/265/17 124/266/17 160/267/17
f 122/268/18 162/269/18 126/270/18
f 160/267/19 125/263/19 161/271/19
f 122/268/20 126/270/20 130/272/20
f 124/273/21 129/274/21 125/275/21
f 123/261/22 121/260/22 127/276/22
f 125/275/23 130/277/23 126/278/23
f 123/279/24 128/280/24 124/273/24
f 122/268/25 130/272/25 134/281/25
f 128/280/3 133/282/3 129/274/3
f 127/276/26 121/260/26 131/283/26
f 129/274/27 134/284/27 130/277/27
f 127/285/28 132/286/28 128/280/28
f 122/268/29 134/281/29 138/287/29
f 132/286/30 137/288/30 133/282/30
f 131/283/31 121/260/31 135/289/31
f 134/284/32 137/288/32 138/290/32
f 131/291/33 136/292/33 132/286/33
f 122/268/34 138/287/34 142/293/34
f 136/294/35 141/295/35 137/296/35
f 135/289/36 121/260/36 139/297/36
f 138/298/37 141/295/37 142/299/37
f 135/300/38 140/301/38 136/294/38
f 122/268/39 142/293/39 146/302/39
f 140/301/40 145/303/40 141/295/40
f 139/297/41 121/260/41 143/304/41
f 141/295/42 146/305/42 142/299/42
f 139/306/43 144/307/43 140/301/43
f 122/268/44 146/302/44 150/308/44
f 144/309/45 149/310/45 145/311/45
f 143/304/46 121/260/46 147/312/46
f 145/311/47 150/313/47 146/314/47
f 144/309/48 147/315/48 148/316/48
f 122/268/49 150/308/49 154/317/49
f 148/316/1 153/318/1 149/310/1
f 147/312/50 121/260/50 151/319/50
f 149/310/51 154/320/51 150/313/51
f 147/315/52 152/321/52 148/316/52
f 122/268/53 154/317/53 158/322/53
f 152/321/54 157/323/54 153/318/54
f 151/319/55 121/260/55 155/324/55
f 154/320/56 157/323/56 158/325/56
f 151/326/57 156/327/57 152/321/57
f 122/268/58 158/322/58 162/269/58
f 156/328/59 161/271/59 157/329/59
f 155/324/60 121/260/60 159/259/60
f 157/329/61 162/262/61 158/330/61
f 155/331/62 160/267/62 156/328/62
f 164/332/7 165/333/7 163/334/7
f 166/335/8 167/336/8 165/337/8
f 168/338/9 169/339/9 167/336/9
f 170/340/10 171/341/10 169/342/10
f 172/343/11 173/344/11 171/341/11
f 174/345/12 175/346/12 173/347/12
f 176/348/6 172/349/6 168/350/6
f 176/351/13 177/352/13 175/346/13
f 178/353/14 163/334/14 177/354/14
f 169/355/5 173/356/5 177/357/5
f 180/358/18 220/359/18 184/360/18
f 218/361/19 183/362/19 219/363/19
f 217/364/15 179/365/15 181/366/15
f 219/363/16 184/367/16 220/368/16
f 218/361/17 181/369/17 182/370/17
f 180/358/20 184/360/20 188/371/20
f 182/372/21 187/373/21 183/374/21
f 181/366/22 179/365/22 185/375/22
f 183/374/23 188/376/23 184/377/23
f 182/372/24 185/378/24 186/379/24
f 180/358/25 188/371/25 192/380/25
f 186/379/3 191/381/3 187/373/3
f 185/375/26 179/365/26 189/382/26
f 187/373/27 192/383/27 188/376/27
f 185/378/28 190/384/28 186/379/28
f 180/358/29 192/380/29 196/385/29
f 190/384/30 195/386/30 191/381/30
f 189/382/31 179/365/31 193/387/31
f 191/381/32 196/388/32 192/383/32
f 189/389/33 194/390/33 190/384/33
f 180/358/34 196/385/34 200/391/34
f 194/392/35 199/393/35 195/394/35
f 193/387/36 179/365/36 197/395/36
f 196/396/37 199/393/37 200/397/37
f 193/398/38 198/399/38 194/392/38
f 180/358/39 200/391/39 204/400/39
f 198/399/40 203/401/40 199/393/40
f 197/395/41 179/365/41 201/402/41
f 200/397/42 203/401/42 204/403/42
f 197/404/43 202/405/43 198/399/43
f 180/358/44 204/400/44 208/406/44
f 202/407/45 207/408/45 203/409/45
f 201/402/46 179/365/46 205/410/46
f 203/409/47 208/411/47 204/412/47
f 202/407/48 205/413/48 206/414/48
f 180/358/49 208/406/49 212/415/49
f 206/414/1 211/416/1 207/408/1
f 205/410/50 179/365/50 209/417/50
f 207/408/51 212/418/51 208/411/51
f 205/413/52 210/419/52 206/414/52
f 180/358/53 212/415/53 216/420/53
f 210/419/54 215/421/54 211/416/54
f 209/417/55 179/365/55 213/422/55
f 212/418/56 215/421/56 216/423/56
f 209/424/57 214/425/57 210/419/57
f 180/358/58 216/420/58 220/359/58
f 214/426/59 219/363/59 215/427/59
f 213/422/60 179/365/60 217/364/60
f 215/427/61 220/368/61 216/428/61
f 214/426/62 217/429/62 218/361/62
f 222/430/1 223/431/1 221/432/1
f 224/433/2 227/434/2 223/435/2
f 228/436/3 225/437/3 227/438/3
f 226/439/4 221/440/4 225/441/4
f 227/442/5 221/443/5 223/444/5
f 224/445/6 226/446/6 228/447/6
f 230/448/1 231/449/1 229/450/1
f 232/451/2 235/452/2 231/453/2
f 236/454/3 233/455/3 235/456/3
f 234/457/4 229/458/4 233/459/4
f 235/460/5 229/461/5 231/462/5
f 232/463/6 234/464/6 236/465/6
f 238/466/1 239/467/1 237/468/1
f 240/469/2 243/470/2 239/471/2
f 244/472/3 241/473/3 243/474/3
f 242/475/4 237/476/4 241/477/4
f 243/478/5 237/479/5 239/480/5
f 240/481/6 242/482/6 244/483/6
f 246/484/1 247/485/1 245/486/1
f 248/487/2 251/488/2 247/489/2
f 252/490/3 249/491/3 251/492/3
f 250/493/4 245/494/4 249/495/4
f 251/496/5 245/497/5 247/498/5
f 248/499/6 250/500/6 252/501/6
f 254/502/1 255/503/1 253/504/1
f 256/505/2 259/506/2 255/507/2
f 260/508/3 257/509/3 259/510/3
f 258/511/4 253/512/4 257/513/4
f 259/514/5 253/515/5 255/516/5
f 256/517/6 258/518/6 260/519/6
f 262/520/1 263/521/1 261/522/1
f 264/523/2 267/524/2 263/525/2
f 268/526/3 265/527/3 267/528/3
f 266/529/4 261/530/4 265/531/4
f 267/532/5 261/533/5 263/534/5
f 264/535/6 266/536/6 268/537/6
f 270/538/1 271/539/1 269/540/1
f 272/541/2 275/542/2 271/543/2
f 276/544/3 273/545/3 275/546/3
f 274/547/4 269/548/4 273/549/4
f 275/550/5 269/551/5 271/552/5
f 272/553/6 274/554/6 276/555/6
f 278/556/1 279/557/1 277/558/1
f 280/559/2 283/560/2 279/561/2
f 284/562/3 281/563/3 283/564/3
f 282/565/4 277/566/4 281/567/4
f 283/568/5 277/569/5 279/570/5
f 280/571/6 282/572/6 284/573/6
f 286/574/1 287/575/1 285/576/1
f 288/577/2 291/578/2 287/579/2
f 292/580/3 289/581/3 291/582/3
f 290/583/4 285/584/4 289/585/4
f 291/586/5 285/587/5 287/588/5
f 288/589/6 290/590/6 292/591/6
f 294/592/1 295/593/1 293/594/1
f 296/595/2 299/596/2 295/597/2
f 300/598/3 297/599/3 299/600/3
f 298/601/4 293/602/4 297/603/4
f 299/604/5 293/605/5 295/606/5
f 296/607/6 298/608/6 300/609/6
f 2/1/1 4/610/1 3/2/1
f 4/4/2 8/611/2 7/5/2
f 8/7/3 6/612/3 5/8/3
f 6/10/4 2/613/4 1/11/4
f 7/13/5 5/614/5 1/14/5
f 4/16/6 2/615/6 6/17/6
f 10/19/1 12/616/1 11/20/1
f 12/22/2 16/617/2 15/23/2
f 16/25/3 14/618/3 13/26/3
f 14/28/4 10/619/4 9/29/4
f 15/31/5 13/620/5 9/32/5
f 12/34/6 10/621/6 14/35/6
f 18/37/1 20/622/1 19/38/1
f 20/40/2 24/623/2 23/41/2
f 24/43/3 22/624/3 21/44/3
f 22/46/4 18/625/4 17/47/4
f 23/49/5 21/626/5 17/50/5
f 20/52/6 18/627/6 22/53/6
f 26/55/1 28/628/1 27/56/1
f 28/58/2 32/629/2 31/59/2
f 32/61/3 30/630/3 29/62/3
f 30/64/4 26/631/4 25/65/4
f 31/67/5 29/632/5 25/68/5
f 28/70/6 26/633/6 30/71/6
f 34/73/1 36/634/1 35/74/1
f 36/76/2 40/635/2 39/77/2
f 40/79/3 38/636/3 37/80/3
f 38/82/4 34/637/4 33/83/4
f 39/85/5 37/638/5 33/86/5
f 36/88/6 34/639/6 38/89/6
f 42/91/1 44/640/1 43/92/1
f 44/94/2 48/641/2 47/95/2
f 48/97/3 46/642/3 45/98/3
f 46/100/4 42/643/4 41/101/4
f 47/103/5 45/102/5 41/101/5
f 44/105/6 42/644/6 46/106/6
f 50/108/1 52/645/1 51/109/1
f 52/111/2 56/646/2 55/112/2
f 56/114/3 54/647/3 53/115/3
f 54/117/4 50/648/4 49/118/4
f 55/120/5 53/119/5 49/118/5
f 52/122/6 50/649/6 54/123/6
f 58/125/1 60/650/1 59/126/1
f 60/128/2 64/651/2 63/129/2
f 64/131/3 62/652/3 61/132/3
f 62/134/4 58/653/4 57/135/4
f 63/137/5 61/654/5 57/138/5
f 60/140/6 58/655/6 62/141/6
f 66/143/1 68/656/1 67/144/1
f 68/146/2 72/657/2 71/147/2
f 72/149/3 70/658/3 69/150/3
f 70/152/4 66/659/4 65/153/4
f 71/155/5 69/660/5 65/156/5
f 68/158/6 66/661/6 70/159/6
f 74/161/1 76/662/1 75/162/1
f 76/164/2 80/663/2 79/165/2
f 80/167/3 78/664/3 77/168/3
f 78/170/4 74/665/4 73/171/4
f 79/173/5 77/666/5 73/174/5
f 76/176/6 74/667/6 78/177/6
f 82/179/1 84/668/1 83/180/1
f 84/182/2 88/669/2 87/183/2
f 88/185/3 86/670/3 85/186/3
f 86/188/4 82/671/4 81/189/4
f 87/191/5 85/672/5 81/192/5
f 84/194/6 82/673/6 86/195/6
f 90/197/1 92/674/1 91/198/1
f 92/200/2 96/675/2 95/201/2
f 96/203/3 94/676/3 93/204/3
f 94/206/4 90/677/4 89/207/4
f 95/209/5 93/678/5 89/210/5
f 92/212/6 90/679/6 94/213/6
f 98/215/1 100/680/1 99/216/1
f 100/218/2 104/681/2 103/219/2
f 104/221/3 102/682/3 101/222/3
f 102/224/4 98/683/4 97/225/4
f 103/227/5 101/684/5 97/228/5
f 100/230/6 98/685/6 102/231/6
f 106/233/7 108/686/7 107/234/7
f 108/236/8 110/239/8 109/237/8
f 110/239/9 112/687/9 111/240/9
f 112/241/10 114/244/10 113/242/10
f 114/244/11 116/688/11 115/245/11
f 116/246/12 118/252/12 117/247/12
f 110/251/6 108/689/6 106/690/6
f 106/690/6 120/691/6 118/249/6
f 118/249/6 116/692/6 114/250/6
f 114/250/6 112/693/6 110/251/6
f 110/251/6 106/690/6 118/249/6
f 118/252/13 120/694/13 119/253/13
f 120/254/14 106/233/14 105/235/14
f 119/258/5 105/695/5 107/696/5
f 107/696/5 109/697/5 111/256/5
f 111/256/5 113/698/5 115/257/5
f 115/257/5 117/699/5 119/258/5
f 119/258/5 107/696/5 111/256/5
f 162/262/16 161/271/16 125/263/16
f 159/265/17 123/700/17 124/266/17
f 160/267/19 124/266/19 125/263/19
f 124/273/21 128/280/21 129/274/21
f 125/275/23 129/274/23 130/277/23
f 123/279/24 127/285/24 128/280/24
f 128/280/3 132/286/3 133/282/3
f 129/274/27 133/282/27 134/284/27
f 127/285/28 131/291/28 132/286/28
f 132/286/30 136/292/30 137/288/30
f 134/284/32 133/282/32 137/288/32
f 131/291/33 135/701/33 136/292/33
f 136/294/35 140/301/35 141/295/35
f 138/298/37 137/296/37 141/295/37
f 135/300/38 139/306/38 140/301/38
f 140/301/40 144/307/40 145/303/40
f 141/295/42 145/303/42 146/305/42
f 139/306/43 143/702/43 144/307/43
f 144/309/45 148/316/45 149/310/45
f 145/311/47 149/310/47 150/313/47
f 144/309/48 143/703/48 147/315/48
f 148/316/1 152/321/1 153/318/1
f 149/310/51 153/318/51 154/320/51
f 147/315/52 151/326/52 152/321/52
f 152/321/54 156/327/54 157/323/54
f 154/320/56 153/318/56 157/323/56
f 151/326/57 155/704/57 156/327/57
f 156/328/59 160/267/59 161/271/59
f 157/329/61 161/271/61 162/262/61
f 155/331/62 159/265/62 160/267/62
f 164/332/7 166/705/7 165/333/7
f 166/335/8 168/338/8 167/336/8
f 168/338/9 170/706/9 169/339/9
f 170/340/10 172/343/10 171/341/10
f 172/343/11 174/707/11 173/344/11
f 174/345/12 176/351/12 175/346/12
f 168/350/6 166/708/6 164/709/6
f 164/709/6 178/710/6 176/348/6
f 176/348/6 174/711/6 172/349/6
f 172/349/6 170/712/6 168/350/6
f 168/350/6 164/709/6 176/348/6
f 176/351/13 178/713/13 177/352/13
f 178/353/14 164/332/14 163/334/14
f 177/357/5 163/714/5 165/715/5
f 165/715/5 167/716/5 169/355/5
f 169/355/5 171/717/5 173/356/5
f 173/356/5 175/718/5 177/357/5
f 177/357/5 165/715/5 169/355/5
f 218/361/19 182/370/19 183/362/19
f 219/363/16 183/362/16 184/367/16
f 218/361/17 217/429/17 181/369/17
f 182/372/21 186/379/21 187/373/21
f 183/374/23 187/373/23 188/376/23
f 182/372/24 181/719/24 185/378/24
f 186/379/3 190/384/3 191/381/3
f 187/373/27 191/381/27 192/383/27
f 185/378/28 189/389/28 190/384/28
f 190/384/30 194/390/30 195/386/30
f 191/381/32 195/386/32 196/388/32
f 189/389/33 193/720/33 194/390/33
f 194/392/35 198/399/35 199/393/35
f 196/396/37 195/394/37 199/393/37
f 193/398/38 197/404/38 198/399/38
f 198/399/40 202/405/40 203/401/40
f 200/397/42 199/393/42 203/401/42
f 197/404/43 201/721/43 202/405/43
f 202/407/45 206/414/45 207/408/45
f 203/409/47 207/408/47 208/411/47
f 202/407/48 201/722/48 205/413/48
f 206/414/1 210/419/1 211/416/1
f 207/408/51 211/416/51 212/418/51
f 205/413/52 209/424/52 210/419/52
f 210/419/54 214/425/54 215/421/54
f 212/418/56 211/416/56 215/421/56
f 209/424/57 213/723/57 214/425/57
f 214/426/59 218/361/59 219/363/59
f 215/427/61 219/363/61 220/368/61
f 214/426/62 213/724/62 217/429/62
f 222/430/1 224/725/1 223/431/1
f 224/433/2 228/726/2 227/434/2
f 228/436/3 226/727/3 225/437/3
f 226/439/4 222/728/4 221/440/4
f 227/442/5 225/729/5 221/443/5
f 224/445/6 222/730/6 226/446/6
f 230/448/1 232/731/1 231/449/1
f 232/451/2 236/732/2 235/452/2
f 236/454/3 234/733/3 233/455/3
f 234/457/4 230/734/4 229/458/4
f 235/460/5 233/735/5 229/461/5
f 232/463/6 230/736/6 234/464/6
f 238/466/1 240/737/1 239/467/1
f 240/469/2 244/738/2 243/470/2
f 244/472/3 242/739/3 241/473/3
f 242/475/4 238/740/4 237/476/4
f 243/478/5 241/741/5 237/479/5
f 240/481/6 238/742/6 242/482/6
f 246/484/1 248/743/1 247/485/1
f 248/487/2 252/744/2 251/488/2
f 252/490/3 250/745/3 249/491/3
f 250/493/4 246/746/4 245/494/4
f 251/496/5 249/747/5 245/497/5
f 248/499/6 246/748/6 250/500/6
f 254/502/1 256/749/1 255/503/1
f 256/505/2 260/750/2 259/506/2
f 260/508/3 258/751/3 257/509/3
f 258/511/4 254/752/4 253/512/4
f 259/514/5 257/753/5 253/515/5
f 256/517/6 254/754/6 258/518/6
f 262/520/1 264/755/1 263/521/1
f 264/523/2 268/756/2 267/524/2
f 268/526/3 266/757/3 265/527/3
f 266/529/4 262/758/4 261/530/4
f 267/532/5 265/759/5 261/533/5
f 264/535/6 262/760/6 266/536/6
f 270/538/1 272/761/1 271/539/1
f 272/541/2 276/762/2 275/542/2
f 276/544/3 274/763/3 273/545/3
f 274/547/4 270/764/4 269/548/4
f 275/550/5 273/765/5 269/551/5
f 272/553/6 270/766/6 274/554/6
f 278/556/1 280/767/1 279/557/1
f 280/559/2 284/768/2 283/560/2
f 284/562/3 282/769/3 281/563/3
f 282/565/4 278/770/4 277/566/4
f 283/568/5 281/771/5 277/569/5
f 280/571/6 278/772/6 282/572/6
f 286/574/1 288/773/1 287/575/1
f 288/577/2 292/774/2 291/578/2
f 292/580/3 290/775/3 289/581/3
f 290/583/4 286/776/4 285/584/4
f 291/586/5 289/777/5 285/587/5
f 288/589/6 286/778/6 290/590/6
f 294/592/1 296/779/1 295/593/1
f 296/595/2 300/780/2 299/596/2
f 300/598/3 298/781/3 297/599/3
f 298/601/4 294/782/4 293/602/4
f 299/604/5 297/783/5 293/605/5
f 296/607/6 294/784/6 298/608/6
