# generated by build_chapter.py from rooms.json
mtllib blockout.mtl
usemtl enemy_alligator
v -0.4500 0.0000 1.3000
v -0.4500 0.7000 1.3000
v -0.4500 0.0000 -1.3000
v -0.4500 0.7000 -1.3000
v 0.4500 0.0000 1.3000
v 0.4500 0.7000 1.3000
v 0.4500 0.0000 -1.3000
v 0.4500 0.7000 -1.3000
f 1 2 4 3
f 5 7 8 6
f 1 5 6 2
f 3 4 8 7
f 1 3 7 5
f 2 6 8 4
usemtl enemy_alligator
v -0.3000 0.0750 2.0500
v -0.3000 0.5250 2.0500
v -0.3000 0.0750 1.1500
v -0.3000 0.5250 1.1500
v 0.3000 0.0750 2.0500
v 0.3000 0.5250 2.0500
v 0.3000 0.0750 1.1500
v 0.3000 0.5250 1.1500
f 9 10 12 11
f 13 15 16 14
f 9 13 14 10
f 11 12 16 15
f 9 11 15 13
f 10 14 16 12
usemtl enemy_alligator
v -0.1500 0.0500 -1.2000
v -0.1500 0.3500 -1.2000
v -0.1500 0.0500 -2.4000
v -0.1500 0.3500 -2.4000
v 0.1500 0.0500 -1.2000
v 0.1500 0.3500 -1.2000
v 0.1500 0.0500 -2.4000
v 0.1500 0.3500 -2.4000
f 17 18 20 19
f 21 23 24 22
f 17 21 22 18
f 19 20 24 23
f 17 19 23 21
f 18 22 24 20
