# generated by build_chapter.py from rooms.json
mtllib blockout.mtl
usemtl backstage_floor
v -6.0000 -0.1000 -0.0000
v -6.0000 0.0000 -0.0000
v -6.0000 -0.1000 -4.0000
v -6.0000 0.0000 -4.0000
v 6.0000 -0.1000 -0.0000
v 6.0000 0.0000 -0.0000
v 6.0000 -0.1000 -4.0000
v 6.0000 0.0000 -4.0000
f 1 2 4 3
f 5 7 8 6
f 1 5 6 2
f 3 4 8 7
f 1 3 7 5
f 2 6 8 4
usemtl backstage_wall
v -6.2000 0.0000 -4.0000
v -6.2000 3.0000 -4.0000
v -6.2000 0.0000 -4.2000
v -6.2000 3.0000 -4.2000
v 6.2000 0.0000 -4.0000
v 6.2000 3.0000 -4.0000
v 6.2000 0.0000 -4.2000
v 6.2000 3.0000 -4.2000
f 9 10 12 11
f 13 15 16 14
f 9 13 14 10
f 11 12 16 15
f 9 11 15 13
f 10 14 16 12
usemtl backstage_wall
v -6.2000 0.0000 -0.0000
v -6.2000 3.0000 -0.0000
v -6.2000 0.0000 -4.0000
v -6.2000 3.0000 -4.0000
v -6.0000 0.0000 -0.0000
v -6.0000 3.0000 -0.0000
v -6.0000 0.0000 -4.0000
v -6.0000 3.0000 -4.0000
f 17 18 20 19
f 21 23 24 22
f 17 21 22 18
f 19 20 24 23
f 17 19 23 21
f 18 22 24 20
usemtl backstage_wall
v 6.0000 0.0000 -0.0000
v 6.0000 3.0000 -0.0000
v 6.0000 0.0000 -4.0000
v 6.0000 3.0000 -4.0000
v 6.2000 0.0000 -0.0000
v 6.2000 3.0000 -0.0000
v 6.2000 0.0000 -4.0000
v 6.2000 3.0000 -4.0000
f 25 26 28 27
f 29 31 32 30
f 25 29 30 26
f 27 28 32 31
f 25 27 31 29
f 26 30 32 28
usemtl backstage_trim
v -6.2000 0.0000 0.1000
v -6.2000 0.2000 0.1000
v -6.2000 0.0000 -0.0000
v -6.2000 0.2000 -0.0000
v 6.2000 0.0000 0.1000
v 6.2000 0.2000 0.1000
v 6.2000 0.0000 -0.0000
v 6.2000 0.2000 -0.0000
f 33 34 36 35
f 37 39 40 38
f 33 37 38 34
f 35 36 40 39
f 33 35 39 37
f 34 38 40 36
usemtl door_red
v -4.6000 0.0000 0.3000
v -4.6000 0.0600 0.3000
v -4.6000 0.0000 -0.3000
v -4.6000 0.0600 -0.3000
v -3.4000 0.0000 0.3000
v -3.4000 0.0600 0.3000
v -3.4000 0.0000 -0.3000
v -3.4000 0.0600 -0.3000
f 41 42 44 43
f 45 47 48 46
f 41 45 46 42
f 43 44 48 47
f 41 43 47 45
f 42 46 48 44
usemtl door_red
v -2.6000 0.0000 -3.9500
v -2.6000 2.2000 -3.9500
v -2.6000 0.0000 -4.0500
v -2.6000 2.2000 -4.0500
v -1.4000 0.0000 -3.9500
v -1.4000 2.2000 -3.9500
v -1.4000 0.0000 -4.0500
v -1.4000 2.2000 -4.0500
f 49 50 52 51
f 53 55 56 54
f 49 53 54 50
f 51 52 56 55
f 49 51 55 53
f 50 54 56 52
usemtl door_red
v 1.9000 0.0000 -3.9500
v 1.9000 2.2000 -3.9500
v 1.9000 0.0000 -4.0500
v 1.9000 2.2000 -4.0500
v 3.1000 0.0000 -3.9500
v 3.1000 2.2000 -3.9500
v 3.1000 0.0000 -4.0500
v 3.1000 2.2000 -4.0500
f 57 58 60 59
f 61 63 64 62
f 57 61 62 58
f 59 60 64 63
f 57 59 63 61
f 58 62 64 60
usemtl door_red
v -6.0500 0.0000 -1.4000
v -6.0500 2.2000 -1.4000
v -6.0500 0.0000 -2.6000
v -6.0500 2.2000 -2.6000
v -5.9500 0.0000 -1.4000
v -5.9500 2.2000 -1.4000
v -5.9500 0.0000 -2.6000
v -5.9500 2.2000 -2.6000
f 65 66 68 67
f 69 71 72 70
f 65 69 70 66
f 67 68 72 71
f 65 67 71 69
f 66 70 72 68
usemtl door_locked
v 5.9500 0.0000 -1.4000
v 5.9500 2.2000 -1.4000
v 5.9500 0.0000 -2.6000
v 5.9500 2.2000 -2.6000
v 6.0500 0.0000 -1.4000
v 6.0500 2.2000 -1.4000
v 6.0500 0.0000 -2.6000
v 6.0500 2.2000 -2.6000
f 73 74 76 75
f 77 79 80 78
f 73 77 78 74
f 75 76 80 79
f 73 75 79 77
f 74 78 80 76
