# generated by build_chapter.py from rooms.json
mtllib blockout.mtl
usemtl enemy_melissa
v -0.2750 0.0000 0.2250
v -0.2750 1.9000 0.2250
v -0.2750 0.0000 -0.2250
v -0.2750 1.9000 -0.2250
v 0.2750 0.0000 0.2250
v 0.2750 1.9000 0.2250
v 0.2750 0.0000 -0.2250
v 0.2750 1.9000 -0.2250
f 1 2 4 3
f 5 7 8 6
f 1 5 6 2
f 3 4 8 7
f 1 3 7 5
f 2 6 8 4
usemtl enemy_melissa
v -0.1500 1.9000 0.1500
v -0.1500 2.2000 0.1500
v -0.1500 1.9000 -0.1500
v -0.1500 2.2000 -0.1500
v 0.1500 1.9000 0.1500
v 0.1500 2.2000 0.1500
v 0.1500 1.9000 -0.1500
v 0.1500 2.2000 -0.1500
f 9 10 12 11
f 13 15 16 14
f 9 13 14 10
f 11 12 16 15
f 9 11 15 13
f 10 14 16 12
