mtllib walk.mtl
usemtl stone
v -0.6 0.0 0.449993
v 0.6 0.0 0.449993
v -0.6 0.2 0.437143
v 0.6 0.2 0.437143
v -0.6 0.4 0.424286
v 0.6 0.4 0.424286
v -0.6 0.6 0.411429
v 0.6 0.6 0.411429
v -0.6 0.8 0.398571
v 0.6 0.8 0.398571
v -0.6 1.0 0.385714
v 0.6 1.0 0.385714
v -0.6 1.2 0.372857
v 0.6 1.2 0.372857
v -0.6 1.4 0.36
v 0.6 1.4 0.36
v -0.6 1.6 0.347143
v 0.6 1.6 0.347143
v -0.6 1.8 0.334286
v 0.6 1.8 0.334286
v -0.6 2.0 0.321428
v 0.6 2.0 0.321428
v -0.6 2.2 0.308572
v 0.6 2.2 0.308572
v -0.6 2.4 0.295715
v 0.6 2.4 0.295715
v -0.6 2.6 0.282857
v 0.6 2.6 0.282857
v -0.6 2.8 0.27
v 0.6 2.8 0.27
v -0.6 3.0 0.257143
v 0.6 3.0 0.257143
v -0.6 3.2 0.244286
v 0.6 3.2 0.244286
v -0.6 3.4 0.231428
v 0.6 3.4 0.231428
v -0.6 3.6 0.218571
v 0.6 3.6 0.218571
v -0.6 3.8 0.205714
v 0.6 3.8 0.205714
v -0.6 4.0 0.192857
v 0.6 4.0 0.192857
v -0.6 4.2 0.179999
v 0.6 4.2 0.179999
v -0.6 4.4 0.167143
v 0.6 4.4 0.167143
v -0.6 4.6 0.154287
v 0.6 4.6 0.154287
v -0.6 4.8 0.141429
v 0.6 4.8 0.141429
v -0.6 5.0 0.128572
v 0.6 5.0 0.128572
v -0.6 5.2 0.115714
v 0.6 5.2 0.115714
v -0.6 5.4 0.102857
v 0.6 5.4 0.102857
v -0.6 5.6 0.09
v 0.6 5.6 0.09
v -0.6 5.8 0.077143
v 0.6 5.8 0.077143
v -0.6 6.0 0.064286
v 0.6 6.0 0.064286
v -0.6 6.2 0.051428
v 0.6 6.2 0.051428
v -0.6 6.4 0.038571
v 0.6 6.4 0.038571
v -0.6 6.6 0.025715
v 0.6 6.6 0.025715
v -0.6 6.8 0.012857
v 0.6 6.8 0.012857
v -0.6 7.0 0.0
v 0.6 7.0 0.0
v -0.6 7.2 -0.012857
v 0.6 7.2 -0.012857
v -0.6 7.4 -0.025714
v 0.6 7.4 -0.025714
v -0.6 7.6 -0.038571
v 0.6 7.6 -0.038571
v -0.6 7.8 -0.051429
v 0.6 7.8 -0.051429
v -0.6 8.0 -0.064286
v 0.6 8.0 -0.064286
v -0.6 8.2 -0.077143
v 0.6 8.2 -0.077143
v -0.6 8.4 -0.09
v 0.6 8.4 -0.09
v -0.6 8.6 -0.102857
v 0.6 8.6 -0.102857
v -0.6 8.8 -0.115714
v 0.6 8.8 -0.115714
v -0.6 9.0 -0.128571
v 0.6 9.0 -0.128571
v -0.6 9.2 -0.141429
v 0.6 9.2 -0.141429
v -0.6 9.4 -0.154286
v 0.6 9.4 -0.154286
v -0.6 9.6 -0.167143
v 0.6 9.6 -0.167143
v -0.6 9.8 -0.18
v 0.6 9.8 -0.18
v -0.6 10.0 -0.192857
v 0.6 10.0 -0.192857
v -0.6 10.2 -0.205715
v 0.6 10.2 -0.205715
v -0.6 10.4 -0.218572
v 0.6 10.4 -0.218572
v -0.6 10.6 -0.231428
v 0.6 10.6 -0.231428
v -0.6 10.8 -0.244286
v 0.6 10.8 -0.244286
v -0.6 11.0 -0.257143
v 0.6 11.0 -0.257143
v -0.6 11.2 -0.27
v 0.6 11.2 -0.27
v -0.6 11.4 -0.282857
v 0.6 11.4 -0.282857
v -0.6 11.6 -0.295714
v 0.6 11.6 -0.295714
v -0.6 11.8 -0.308572
v 0.6 11.8 -0.308572
v -0.6 12.0 -0.321429
v 0.6 12.0 -0.321429
v -0.6 12.2 -0.334286
v 0.6 12.2 -0.334286
v -0.6 12.4 -0.347143
v 0.6 12.4 -0.347143
v -0.6 12.6 -0.36
v 0.6 12.6 -0.36
v -0.6 12.8 -0.372857
v 0.6 12.8 -0.372857
v -0.6 13.0 -0.385714
v 0.6 13.0 -0.385714
v -0.6 13.2 -0.398572
v 0.6 13.2 -0.398572
v -0.6 13.4 -0.411429
v 0.6 13.4 -0.411429
v -0.6 13.6 -0.424285
v 0.6 13.6 -0.424285
v -0.6 13.8 -0.437143
v 0.6 13.8 -0.437143
v -0.6 14.0 -0.449994
v 0.6 14.0 -0.449994
f 1 2 4 3
f 3 4 6 5
f 5 6 8 7
f 7 8 10 9
f 9 10 12 11
f 11 12 14 13
f 13 14 16 15
f 15 16 18 17
f 17 18 20 19
f 19 20 22 21
f 21 22 24 23
f 23 24 26 25
f 25 26 28 27
f 27 28 30 29
f 29 30 32 31
f 31 32 34 33
f 33 34 36 35
f 35 36 38 37
f 37 38 40 39
f 39 40 42 41
f 41 42 44 43
f 43 44 46 45
f 45 46 48 47
f 47 48 50 49
f 49 50 52 51
f 51 52 54 53
f 53 54 56 55
f 55 56 58 57
f 57 58 60 59
f 59 60 62 61
f 61 62 64 63
f 63 64 66 65
f 65 66 68 67
f 67 68 70 69
f 69 70 72 71
f 71 72 74 73
f 73 74 76 75
f 75 76 78 77
f 77 78 80 79
f 79 80 82 81
f 81 82 84 83
f 83 84 86 85
f 85 86 88 87
f 87 88 90 89
f 89 90 92 91
f 91 92 94 93
f 93 94 96 95
f 95 96 98 97
f 97 98 100 99
f 99 100 102 101
f 101 102 104 103
f 103 104 106 105
f 105 106 108 107
f 107 108 110 109
f 109 110 112 111
f 111 112 114 113
f 113 114 116 115
f 115 116 118 117
f 117 118 120 119
f 119 120 122 121
f 121 122 124 123
f 123 124 126 125
f 125 126 128 127
f 127 128 130 129
f 129 130 132 131
f 131 132 134 133
f 133 134 136 135
f 135 136 138 137
f 137 138 140 139
f 139 140 142 141
