mtllib voxel_column.mtl
o voxel_column

# Group: voxel_stone_base
v -0.300000 0.000000 0.300000
v -0.300000 0.200000 0.300000
v -0.300000 0.000000 -0.300000
v -0.300000 0.200000 -0.300000
v 0.300000 0.000000 0.300000
v 0.300000 0.200000 0.300000
v 0.300000 0.000000 -0.300000
v 0.300000 0.200000 -0.300000
v -0.300000 0.900000 0.300000
v -0.300000 1.050000 0.300000
v -0.300000 0.900000 -0.300000
v -0.300000 1.050000 -0.300000
v 0.300000 0.900000 0.300000
v 0.300000 1.050000 0.300000
v 0.300000 0.900000 -0.300000
v 0.300000 1.050000 -0.300000
vt 0.0 0.0
vn -0.577350 -0.577350 0.577350
vn -0.577350 0.577350 0.577350
vn -0.577350 -0.577350 -0.577350
vn -0.577350 0.577350 -0.577350
vn 0.577350 -0.577350 0.577350
vn 0.577350 0.577350 0.577350
vn 0.577350 -0.577350 -0.577350
vn 0.577350 0.577350 -0.577350
vn -0.577350 -0.577350 0.577350
vn -0.577350 0.577350 0.577350
vn -0.577350 -0.577350 -0.577350
vn -0.577350 0.577350 -0.577350
vn 0.577350 -0.577350 0.577350
vn 0.577350 0.577350 0.577350
vn 0.577350 -0.577350 -0.577350
vn 0.577350 0.577350 -0.577350
usemtl voxel_stone_base
f 2/1/2 4/1/4 1/1/1
f 5/1/5 2/1/2 1/1/1
f 1/1/1 4/1/4 3/1/3
f 3/1/3 5/1/5 1/1/1
f 2/1/2 8/1/8 4/1/4
f 6/1/6 2/1/2 5/1/5
f 6/1/6 8/1/8 2/1/2
f 4/1/4 8/1/8 3/1/3
f 7/1/7 5/1/5 3/1/3
f 3/1/3 8/1/8 7/1/7
f 7/1/7 6/1/6 5/1/5
f 8/1/8 6/1/6 7/1/7
f 10/1/10 12/1/12 9/1/9
f 13/1/13 10/1/10 9/1/9
f 9/1/9 12/1/12 11/1/11
f 11/1/11 13/1/13 9/1/9
f 10/1/10 16/1/16 12/1/12
f 14/1/14 10/1/10 13/1/13
f 14/1/14 16/1/16 10/1/10
f 12/1/12 16/1/16 11/1/11
f 15/1/15 13/1/13 11/1/11
f 11/1/11 16/1/16 15/1/15
f 15/1/15 14/1/14 13/1/13
f 16/1/16 14/1/14 15/1/15

# Group: voxel_stone_shaft
v -0.250000 0.200000 0.250000
v -0.250000 0.300000 0.250000
v -0.250000 0.200000 -0.250000
v -0.250000 0.300000 -0.250000
v 0.250000 0.200000 0.250000
v 0.250000 0.300000 0.250000
v 0.250000 0.200000 -0.250000
v 0.250000 0.300000 -0.250000
v -0.200000 0.300000 0.200000
v -0.200000 0.800000 0.200000
v -0.200000 0.300000 -0.200000
v -0.200000 0.800000 -0.200000
v 0.200000 0.300000 0.200000
v 0.200000 0.800000 0.200000
v 0.200000 0.300000 -0.200000
v 0.200000 0.800000 -0.200000
v -0.250000 0.800000 0.250000
v -0.250000 0.900000 0.250000
v -0.250000 0.800000 -0.250000
v -0.250000 0.900000 -0.250000
v 0.250000 0.800000 0.250000
v 0.250000 0.900000 0.250000
v 0.250000 0.800000 -0.250000
v 0.250000 0.900000 -0.250000
vt 0.0 0.0
vn -0.577350 -0.577350 0.577350
vn -0.577350 0.577350 0.577350
vn -0.577350 -0.577350 -0.577350
vn -0.577350 0.577350 -0.577350
vn 0.577350 -0.577350 0.577350
vn 0.577350 0.577350 0.577350
vn 0.577350 -0.577350 -0.577350
vn 0.577350 0.577350 -0.577350
vn -0.577350 -0.577350 0.577350
vn -0.577350 0.577350 0.577350
vn -0.577350 -0.577350 -0.577350
vn -0.577350 0.577350 -0.577350
vn 0.577350 -0.577350 0.577350
vn 0.577350 0.577350 0.577350
vn 0.577350 -0.577350 -0.577350
vn 0.577350 0.577350 -0.577350
vn -0.577350 -0.577350 0.577350
vn -0.577350 0.577350 0.577350
vn -0.577350 -0.577350 -0.577350
vn -0.577350 0.577350 -0.577350
vn 0.577350 -0.577350 0.577350
vn 0.577350 0.577350 0.577350
vn 0.577350 -0.577350 -0.577350
vn 0.577350 0.577350 -0.577350
usemtl voxel_stone_shaft
f 18/1/18 20/1/20 17/1/17
f 21/1/21 18/1/18 17/1/17
f 17/1/17 20/1/20 19/1/19
f 19/1/19 21/1/21 17/1/17
f 18/1/18 24/1/24 20/1/20
f 22/1/22 18/1/18 21/1/21
f 22/1/22 24/1/24 18/1/18
f 20/1/20 24/1/24 19/1/19
f 23/1/23 21/1/21 19/1/19
f 19/1/19 24/1/24 23/1/23
f 23/1/23 22/1/22 21/1/21
f 24/1/24 22/1/22 23/1/23
f 26/1/26 28/1/28 25/1/25
f 29/1/29 26/1/26 25/1/25
f 25/1/25 28/1/28 27/1/27
f 27/1/27 29/1/29 25/1/25
f 26/1/26 32/1/32 28/1/28
f 30/1/30 26/1/26 29/1/29
f 30/1/30 32/1/32 26/1/26
f 28/1/28 32/1/32 27/1/27
f 31/1/31 29/1/29 27/1/27
f 27/1/27 32/1/32 31/1/31
f 31/1/31 30/1/30 29/1/29
f 32/1/32 30/1/30 31/1/31
f 34/1/34 36/1/36 33/1/33
f 37/1/37 34/1/34 33/1/33
f 33/1/33 36/1/36 35/1/35
f 35/1/35 37/1/37 33/1/33
f 34/1/34 40/1/40 36/1/36
f 38/1/38 34/1/34 37/1/37
f 38/1/38 40/1/40 34/1/34
f 36/1/36 40/1/40 35/1/35
f 39/1/39 37/1/37 35/1/35
f 35/1/35 40/1/40 39/1/39
f 39/1/39 38/1/38 37/1/37
f 40/1/40 38/1/38 39/1/39

