# Blender 5.2.2 LTS
# www.blender.org
o service_annex_collision
v -4.000000 -0.000000 3.000000
v 4.000000 -0.000000 3.000000
v 4.000000 2.200000 3.000000
v -4.000000 2.200000 3.000000
v -4.000000 0.000000 -3.000000
v 4.000000 0.000000 -3.000000
v 4.000000 2.200000 -3.000000
v -4.000000 2.200000 -3.000000
v -4.000000 -0.000000 3.000000
v -4.000000 0.000000 -3.000000
v -4.000000 2.200000 -3.000000
v -4.000000 2.200000 3.000000
v 4.000000 -0.000000 3.000000
v 4.000000 0.000000 -3.000000
v 4.000000 2.200000 -3.000000
v 4.000000 2.200000 3.000000
v -0.350000 -0.000000 1.250000
v 0.850000 -0.000000 1.250000
v 0.850000 0.000000 -0.250000
v -0.350000 0.000000 -0.250000
v -0.350000 1.100000 1.250000
v 0.850000 1.100000 1.250000
v 0.850000 1.100000 -0.250000
v -0.350000 1.100000 -0.250000
v 1.450000 -0.000000 0.250000
v 2.250000 -0.000000 0.250000
v 2.250000 0.000000 -0.550000
v 1.450000 0.000000 -0.550000
v 1.450000 0.850000 0.250000
v 2.250000 0.850000 0.250000
v 2.250000 0.850000 -0.550000
v 1.450000 0.850000 -0.550000
vn -0.0000 -0.0000 -1.0000
vn -0.0000 -0.0000 1.0000
vn -1.0000 -0.0000 -0.0000
vn 1.0000 -0.0000 -0.0000
vn -0.0000 -1.0000 -0.0000
s 0
f 4//1 2//1 1//1
f 6//2 8//2 5//2
f 12//3 10//3 9//3
f 14//4 16//4 13//4
f 21//1 18//1 17//1
f 22//3 19//3 18//3
f 23//2 20//2 19//2
f 24//4 17//4 20//4
f 24//5 22//5 21//5
f 29//1 26//1 25//1
f 30//3 27//3 26//3
f 31//2 28//2 27//2
f 32//4 25//4 28//4
f 32//5 30//5 29//5
f 4//1 3//1 2//1
f 6//2 7//2 8//2
f 12//3 11//3 10//3
f 14//4 15//4 16//4
f 21//1 22//1 18//1
f 22//3 23//3 19//3
f 23//2 24//2 20//2
f 24//4 21//4 17//4
f 24//5 23//5 22//5
f 29//1 30//1 26//1
f 30//3 31//3 27//3
f 31//2 32//2 28//2
f 32//4 29//4 25//4
f 32//5 31//5 30//5
