# Blender 5.0.1
# www.blender.org
mtllib study_phoenix_pinion.mtl
g A_PinionClaspProfile.001_Mesh
v -0.019327 1.120000 -0.263720
v 0.019327 1.120000 -0.263720
v -0.019327 1.036648 -0.322067
v -0.019061 1.000403 -0.329607
v 0.019061 1.000403 -0.329607
v 0.019327 1.036648 -0.322067
v -0.019061 0.899597 -0.308006
v -0.019441 0.864806 -0.290009
v 0.019441 0.864806 -0.290009
v 0.019061 0.899597 -0.308006
v -0.019441 0.795194 -0.227358
v -0.019492 0.794492 -0.199174
v 0.019492 0.794492 -0.199174
v 0.019441 0.795194 -0.227358
v -0.019492 0.825508 -0.168159
v -0.019189 0.859568 -0.158114
v 0.019189 0.859568 -0.158114
v 0.019492 0.825508 -0.168159
v -0.019194 1.020000 -0.193764
v 0.019194 1.020000 -0.193764
v 0.019199 1.120000 -0.263762
v -0.019199 1.120000 -0.263762
v 0.139375 1.120000 -0.224714
v 0.170647 1.120000 -0.201994
v 0.178317 1.000403 -0.277862
v 0.209159 1.000403 -0.255454
v 0.204942 1.036648 -0.249197
v 0.173670 1.036648 -0.271917
v 0.154735 0.864806 -0.246049
v 0.186191 0.864806 -0.223195
v 0.196462 0.899597 -0.237978
v 0.165621 0.899597 -0.260386
v 0.101302 0.794492 -0.172593
v 0.132841 0.794492 -0.149678
v 0.149366 0.795194 -0.172509
v 0.117909 0.795194 -0.195364
v 0.077413 0.859568 -0.139195
v 0.108461 0.859568 -0.116638
v 0.114611 0.825508 -0.124586
v 0.083072 0.825508 -0.147501
v 0.098363 1.020000 -0.168040
v 0.129419 1.020000 -0.145476
v 0.170567 1.120000 -0.202103
v 0.139503 1.120000 -0.224673
v 0.244840 1.120000 -0.099875
v 0.256785 1.120000 -0.063113
v 0.307585 1.000403 -0.119982
v 0.319365 1.000403 -0.083726
v 0.312276 1.036648 -0.081143
v 0.300331 1.036648 -0.117905
v 0.269807 0.864806 -0.108107
v 0.281822 0.864806 -0.071128
v 0.298821 0.899597 -0.077051
v 0.287041 0.899597 -0.113307
v 0.183403 0.794492 -0.080086
v 0.195449 0.794492 -0.043010
v 0.222238 0.795194 -0.051768
v 0.210223 0.795194 -0.088747
v 0.144445 0.859568 -0.067109
v 0.156305 0.859568 -0.030610
v 0.165952 0.825508 -0.033426
v 0.153905 0.825508 -0.070502
v 0.178349 1.020000 -0.078131
v 0.190211 1.020000 -0.041622
v 0.256785 1.120000 -0.063248
v 0.244920 1.120000 -0.099766
v 0.256785 1.120000 0.063113
v 0.244840 1.120000 0.099875
v 0.319365 1.000403 0.083726
v 0.307585 1.000403 0.119982
v 0.300331 1.036648 0.117905
v 0.312276 1.036648 0.081143
v 0.281822 0.864806 0.071128
v 0.269807 0.864806 0.108107
v 0.287041 0.899597 0.113307
v 0.298821 0.899597 0.077051
v 0.195449 0.794492 0.043010
v 0.183403 0.794492 0.080086
v 0.210223 0.795194 0.088747
v 0.222238 0.795194 0.051768
v 0.156305 0.859568 0.030610
v 0.144445 0.859568 0.067109
v 0.153905 0.825508 0.070502
v 0.165952 0.825508 0.033426
v 0.190211 1.020000 0.041622
v 0.178349 1.020000 0.078131
v 0.244920 1.120000 0.099766
v 0.256785 1.120000 0.063248
v 0.170647 1.120000 0.201994
v 0.139375 1.120000 0.224714
v 0.209159 1.000403 0.255454
v 0.178317 1.000403 0.277862
v 0.173670 1.036648 0.271917
v 0.204942 1.036648 0.249197
v 0.186191 0.864806 0.223195
v 0.154735 0.864806 0.246049
v 0.165621 0.899597 0.260386
v 0.196462 0.899597 0.237978
v 0.132841 0.794492 0.149678
v 0.101302 0.794492 0.172593
v 0.117909 0.795194 0.195364
v 0.149366 0.795194 0.172509
v 0.108461 0.859568 0.116638
v 0.077413 0.859568 0.139195
v 0.083072 0.825508 0.147501
v 0.114611 0.825508 0.124586
v 0.129419 1.020000 0.145476
v 0.098363 1.020000 0.168040
v 0.139503 1.120000 0.224673
v 0.170567 1.120000 0.202103
v 0.019327 1.120000 0.263720
v -0.019327 1.120000 0.263720
v 0.019061 1.000403 0.329607
v -0.019061 1.000403 0.329607
v -0.019327 1.036648 0.322067
v 0.019327 1.036648 0.322067
v 0.019441 0.864806 0.290009
v -0.019441 0.864806 0.290009
v -0.019061 0.899597 0.308006
v 0.019061 0.899597 0.308006
v 0.019492 0.794492 0.199174
v -0.019492 0.794492 0.199174
v -0.019441 0.795194 0.227358
v 0.019441 0.795194 0.227358
v 0.019189 0.859568 0.158114
v -0.019189 0.859568 0.158114
v -0.019492 0.825508 0.168159
v 0.019492 0.825508 0.168159
v 0.019194 1.020000 0.193764
v -0.019194 1.020000 0.193764
v -0.019199 1.120000 0.263762
v 0.019199 1.120000 0.263762
v -0.139375 1.120000 0.224714
v -0.170647 1.120000 0.201994
v -0.178318 1.000403 0.277862
v -0.209159 1.000403 0.255454
v -0.204942 1.036648 0.249197
v -0.173670 1.036648 0.271917
v -0.154735 0.864806 0.246049
v -0.186191 0.864806 0.223195
v -0.196462 0.899597 0.237978
v -0.165621 0.899597 0.260386
v -0.101302 0.794492 0.172593
v -0.132841 0.794492 0.149678
v -0.149366 0.795194 0.172509
v -0.117910 0.795194 0.195364
v -0.077413 0.859568 0.139195
v -0.108461 0.859568 0.116638
v -0.114611 0.825508 0.124586
v -0.083072 0.825508 0.147501
v -0.098363 1.020000 0.168040
v -0.129420 1.020000 0.145476
v -0.170568 1.120000 0.202103
v -0.139503 1.120000 0.224673
v -0.244841 1.120000 0.099875
v -0.256785 1.120000 0.063113
v -0.307585 1.000403 0.119982
v -0.319365 1.000403 0.083726
v -0.312276 1.036648 0.081143
v -0.300331 1.036648 0.117905
v -0.269807 0.864806 0.108107
v -0.281822 0.864806 0.071128
v -0.298821 0.899597 0.077051
v -0.287041 0.899597 0.113307
v -0.183403 0.794492 0.080086
v -0.195449 0.794492 0.043010
v -0.222238 0.795194 0.051768
v -0.210223 0.795194 0.088747
v -0.144445 0.859568 0.067109
v -0.156305 0.859568 0.030610
v -0.165952 0.825508 0.033426
v -0.153905 0.825508 0.070502
v -0.178349 1.020000 0.078131
v -0.190211 1.020000 0.041622
v -0.256785 1.120000 0.063248
v -0.244920 1.120000 0.099766
v -0.256785 1.120000 -0.063113
v -0.244841 1.120000 -0.099875
v -0.319365 1.000403 -0.083726
v -0.307585 1.000403 -0.119982
v -0.300331 1.036648 -0.117905
v -0.312276 1.036648 -0.081143
v -0.281822 0.864806 -0.071128
v -0.269807 0.864806 -0.108107
v -0.287041 0.899597 -0.113307
v -0.298821 0.899597 -0.077051
v -0.195449 0.794492 -0.043010
v -0.183403 0.794492 -0.080086
v -0.210223 0.795194 -0.088747
v -0.222238 0.795194 -0.051768
v -0.156305 0.859568 -0.030610
v -0.144445 0.859568 -0.067109
v -0.153905 0.825508 -0.070502
v -0.165952 0.825508 -0.033426
v -0.190211 1.020000 -0.041622
v -0.178349 1.020000 -0.078131
v -0.244920 1.120000 -0.099766
v -0.256785 1.120000 -0.063248
v -0.170647 1.120000 -0.201994
v -0.139375 1.120000 -0.224714
v -0.209159 1.000403 -0.255454
v -0.178317 1.000403 -0.277862
v -0.173670 1.036648 -0.271918
v -0.204942 1.036648 -0.249197
v -0.186191 0.864806 -0.223195
v -0.154735 0.864806 -0.246049
v -0.165621 0.899597 -0.260386
v -0.196462 0.899597 -0.237978
v -0.132841 0.794492 -0.149678
v -0.101302 0.794492 -0.172593
v -0.117909 0.795194 -0.195364
v -0.149366 0.795194 -0.172509
v -0.108461 0.859568 -0.116638
v -0.077413 0.859568 -0.139195
v -0.083072 0.825508 -0.147501
v -0.114611 0.825508 -0.124586
v -0.129419 1.020000 -0.145476
v -0.098363 1.020000 -0.168040
v -0.139503 1.120000 -0.224673
v -0.170568 1.120000 -0.202103
vn 0.1367 -0.5681 0.8115
vn -0.1367 -0.5681 0.8115
vn 0.1431 -0.3856 0.9115
vn 0.1530 0.0034 0.9882
vn -0.1530 0.0034 0.9882
vn -0.1431 -0.3856 0.9115
vn 0.1461 0.3295 0.9328
vn 0.1306 0.5578 0.8196
vn -0.1306 0.5578 0.8196
vn -0.1461 0.3295 0.9328
vn 0.0758 0.8914 0.4468
vn -0.0492 0.9410 -0.3348
vn 0.0492 0.9410 -0.3348
vn -0.0758 0.8914 0.4468
vn -0.1369 0.5178 -0.8445
vn -0.1599 0.0352 -0.9865
vn 0.1599 0.0352 -0.9865
vn 0.1369 0.5178 -0.8445
vn -0.1456 -0.4060 -0.9022
vn 0.1456 -0.4060 -0.9022
vn 0.1219 -0.5692 -0.8131
vn -0.1219 -0.5692 -0.8131
vn -0.3664 -0.5681 0.7369
vn -0.5876 -0.5681 0.5762
vn -0.4571 0.0034 0.8894
vn -0.7046 0.0034 0.7095
vn -0.6515 -0.3856 0.6533
vn -0.4200 -0.3856 0.8215
vn -0.3761 0.5578 0.7398
vn -0.5874 0.5578 0.5863
vn -0.6665 0.3295 0.6688
vn -0.4301 0.3295 0.8405
vn 0.1570 0.9410 -0.2998
vn 0.2366 0.9410 -0.2420
vn -0.3239 0.8914 0.3169
vn -0.2013 0.8914 0.4060
vn 0.4505 0.0352 -0.8921
vn 0.7092 0.0352 -0.7041
vn 0.6071 0.5178 -0.6027
vn 0.3856 0.5178 -0.7637
vn 0.4125 -0.4060 -0.8155
vn 0.6481 -0.4060 -0.6443
vn 0.5766 -0.5692 -0.5862
vn 0.3793 -0.5692 -0.7295
vn -0.7296 -0.5681 0.3808
vn -0.8141 -0.5681 0.1208
vn -0.8926 0.0034 0.4509
vn -0.9871 0.0034 0.1599
vn -0.9111 -0.3856 0.1456
vn -0.8227 -0.3856 0.4178
vn -0.7392 0.5578 0.3774
vn -0.8198 0.5579 0.1291
vn -0.9323 0.3295 0.1493
vn -0.8420 0.3295 0.4272
vn 0.3032 0.9410 -0.1502
vn 0.3336 0.9410 -0.0567
vn -0.4483 0.8914 0.0660
vn -0.4015 0.8914 0.2101
vn 0.8888 0.0352 -0.4569
vn 0.9876 0.0352 -0.1528
vn 0.8455 0.5178 -0.1307
vn 0.7608 0.5178 -0.3912
vn 0.8131 -0.4060 -0.4173
vn 0.9031 -0.4060 -0.1403
vn 0.8110 -0.5692 -0.1353
vn 0.7357 -0.5692 -0.3672
vn -0.8141 -0.5681 -0.1208
vn -0.7296 -0.5681 -0.3808
vn -0.9871 0.0034 -0.1599
vn -0.8926 0.0034 -0.4509
vn -0.8227 -0.3856 -0.4178
vn -0.9111 -0.3856 -0.1456
vn -0.8198 0.5578 -0.1291
vn -0.7392 0.5578 -0.3774
vn -0.8420 0.3295 -0.4272
vn -0.9323 0.3295 -0.1493
vn 0.3336 0.9410 0.0567
vn 0.3032 0.9410 0.1502
vn -0.4015 0.8914 -0.2101
vn -0.4483 0.8914 -0.0660
vn 0.9876 0.0352 0.1528
vn 0.8888 0.0352 0.4569
vn 0.7608 0.5178 0.3912
vn 0.8455 0.5178 0.1307
vn 0.9031 -0.4060 0.1403
vn 0.8131 -0.4060 0.4173
vn 0.7357 -0.5692 0.3672
vn 0.8110 -0.5692 0.1353
vn -0.5876 -0.5681 -0.5762
vn -0.3664 -0.5681 -0.7369
vn -0.7046 0.0034 -0.7096
vn -0.4571 0.0034 -0.8894
vn -0.4200 -0.3856 -0.8215
vn -0.6515 -0.3856 -0.6533
vn -0.5874 0.5579 -0.5863
vn -0.3761 0.5578 -0.7398
vn -0.4301 0.3295 -0.8405
vn -0.6665 0.3295 -0.6688
vn 0.2366 0.9410 0.2420
vn 0.1570 0.9410 0.2998
vn -0.2013 0.8914 -0.4060
vn -0.3239 0.8914 -0.3169
vn 0.7092 0.0352 0.7041
vn 0.4505 0.0352 0.8921
vn 0.3856 0.5178 0.7637
vn 0.6071 0.5178 0.6027
vn 0.6481 -0.4060 0.6443
vn 0.4125 -0.4060 0.8155
vn 0.3793 -0.5692 0.7295
vn 0.5766 -0.5692 0.5862
vn -0.1367 -0.5681 -0.8115
vn 0.1367 -0.5681 -0.8115
vn -0.1530 0.0034 -0.9882
vn 0.1530 0.0034 -0.9882
vn 0.1431 -0.3856 -0.9115
vn -0.1431 -0.3856 -0.9115
vn -0.1306 0.5579 -0.8196
vn 0.1306 0.5578 -0.8196
vn 0.1461 0.3295 -0.9328
vn -0.1461 0.3295 -0.9328
vn 0.0492 0.9410 0.3348
vn -0.0492 0.9410 0.3348
vn 0.0758 0.8914 -0.4468
vn -0.0758 0.8914 -0.4468
vn 0.1599 0.0352 0.9865
vn -0.1599 0.0352 0.9865
vn -0.1369 0.5178 0.8445
vn 0.1369 0.5178 0.8445
vn 0.1456 -0.4060 0.9022
vn -0.1456 -0.4060 0.9022
vn -0.1219 -0.5692 0.8131
vn 0.1219 -0.5692 0.8131
vn 0.3664 -0.5681 -0.7369
vn 0.5876 -0.5681 -0.5762
vn 0.4571 0.0034 -0.8894
vn 0.7046 0.0034 -0.7096
vn 0.6515 -0.3856 -0.6533
vn 0.4200 -0.3856 -0.8215
vn 0.3761 0.5578 -0.7398
vn 0.5874 0.5578 -0.5863
vn 0.6665 0.3295 -0.6688
vn 0.4301 0.3295 -0.8405
vn -0.1570 0.9410 0.2998
vn -0.2366 0.9410 0.2420
vn 0.3239 0.8914 -0.3170
vn 0.2013 0.8914 -0.4060
vn -0.4505 0.0352 0.8921
vn -0.7092 0.0352 0.7041
vn -0.6071 0.5178 0.6027
vn -0.3856 0.5178 0.7637
vn -0.4125 -0.4060 0.8155
vn -0.6481 -0.4060 0.6443
vn -0.5766 -0.5692 0.5862
vn -0.3793 -0.5692 0.7295
vn 0.7296 -0.5681 -0.3808
vn 0.8141 -0.5681 -0.1208
vn 0.8926 0.0034 -0.4509
vn 0.9871 0.0034 -0.1599
vn 0.9111 -0.3856 -0.1456
vn 0.8227 -0.3856 -0.4178
vn 0.7392 0.5578 -0.3774
vn 0.8198 0.5578 -0.1291
vn 0.9323 0.3295 -0.1493
vn 0.8420 0.3295 -0.4272
vn -0.3032 0.9410 0.1502
vn -0.3336 0.9410 0.0567
vn 0.4483 0.8914 -0.0660
vn 0.4015 0.8914 -0.2101
vn -0.8888 0.0352 0.4569
vn -0.9876 0.0352 0.1528
vn -0.8455 0.5178 0.1307
vn -0.7608 0.5178 0.3912
vn -0.8131 -0.4060 0.4173
vn -0.9031 -0.4060 0.1403
vn -0.8110 -0.5692 0.1353
vn -0.7357 -0.5692 0.3672
vn 0.8141 -0.5681 0.1208
vn 0.7296 -0.5681 0.3808
vn 0.9871 0.0034 0.1599
vn 0.8926 0.0034 0.4509
vn 0.8227 -0.3856 0.4178
vn 0.9111 -0.3856 0.1456
vn 0.8198 0.5578 0.1291
vn 0.7391 0.5578 0.3774
vn 0.8420 0.3295 0.4272
vn 0.9323 0.3295 0.1493
vn -0.3336 0.9410 -0.0567
vn -0.3032 0.9410 -0.1502
vn 0.4015 0.8914 0.2101
vn 0.4483 0.8914 0.0660
vn -0.9876 0.0352 -0.1528
vn -0.8888 0.0352 -0.4569
vn -0.7608 0.5178 -0.3912
vn -0.8455 0.5178 -0.1307
vn -0.9031 -0.4060 -0.1403
vn -0.8131 -0.4060 -0.4173
vn -0.7357 -0.5692 -0.3672
vn -0.8110 -0.5692 -0.1353
vn 0.5876 -0.5681 0.5762
vn 0.3664 -0.5681 0.7369
vn 0.7046 0.0034 0.7096
vn 0.4571 0.0034 0.8894
vn 0.4200 -0.3856 0.8215
vn 0.6515 -0.3856 0.6533
vn 0.5874 0.5578 0.5863
vn 0.3761 0.5578 0.7398
vn 0.4301 0.3295 0.8405
vn 0.6665 0.3295 0.6688
vn -0.2366 0.9410 -0.2420
vn -0.1570 0.9410 -0.2998
vn 0.2013 0.8914 0.4060
vn 0.3239 0.8914 0.3169
vn -0.7092 0.0352 -0.7041
vn -0.4505 0.0352 -0.8921
vn -0.3856 0.5178 -0.7637
vn -0.6071 0.5178 -0.6027
vn -0.6481 -0.4060 -0.6443
vn -0.4125 -0.4060 -0.8155
vn -0.3793 -0.5692 -0.7295
vn -0.5766 -0.5692 -0.5862
s 1
g A_PinionClaspProfile.001_oxidized_bronze
usemtl oxidized_bronze
f 3//3 5//5 6//6
f 8//8 10//10 7//7
f 12//12 14//14 11//11
f 15//15 17//17 18//18
f 25//25 27//27 28//28
f 30//30 32//32 29//29
f 34//34 36//36 33//33
f 37//37 39//39 40//40
f 47//47 49//49 50//50
f 51//51 53//53 54//54
f 55//55 57//57 58//58
f 59//59 61//61 62//62
f 70//70 72//72 69//69
f 73//73 75//75 76//76
f 78//78 80//80 77//77
f 81//81 83//83 84//84
f 92//92 94//94 91//91
f 96//96 98//98 95//95
f 100//100 102//102 99//99
f 104//104 106//106 103//103
f 114//114 116//116 113//113
f 118//118 120//120 117//117
f 122//122 124//124 121//121
f 125//125 127//127 128//128
f 136//136 138//138 135//135
f 140//140 142//142 139//139
f 144//144 146//146 143//143
f 147//147 149//149 150//150
f 157//157 159//159 160//160
f 162//162 164//164 161//161
f 166//166 168//168 165//165
f 170//170 172//172 169//169
f 179//179 181//181 182//182
f 183//183 185//185 186//186
f 188//188 190//190 187//187
f 191//191 193//193 194//194
f 202//202 204//204 201//201
f 206//206 208//208 205//205
f 209//209 211//211 212//212
f 213//213 215//215 216//216
f 3//3 2//2 1//1
f 4//4 10//10 5//5
f 8//8 14//14 9//9
f 15//15 13//13 12//12
f 16//16 20//20 17//17
f 22//22 20//20 19//19
f 6//6 25//25 28//28
f 32//32 9//9 29//29
f 14//14 33//33 36//36
f 18//18 37//37 40//40
f 27//27 47//47 50//50
f 31//31 51//51 54//54
f 58//58 34//34 55//55
f 62//62 38//38 59//59
f 72//72 48//48 69//69
f 53//53 73//73 76//76
f 57//57 77//77 80//80
f 61//61 81//81 84//84
f 71//71 91//91 94//94
f 75//75 95//95 98//98
f 79//79 99//99 102//102
f 106//106 82//82 103//103
f 116//116 92//92 113//113
f 120//120 96//96 117//117
f 124//124 100//100 121//121
f 105//105 125//125 128//128
f 115//115 135//135 138//138
f 119//119 139//139 142//142
f 146//146 122//122 143//143
f 127//127 147//147 150//150
f 160//160 136//136 157//157
f 141//141 161//161 164//164
f 145//145 165//165 168//168
f 172//172 148//148 169//169
f 182//182 158//158 179//179
f 163//163 183//183 186//186
f 190//190 166//166 187//187
f 171//171 191//191 194//194
f 181//181 201//201 204//204
f 208//208 184//184 205//205
f 212//212 188//188 209//209
f 193//193 213//213 216//216
f 203//203 4//4 3//3
f 207//207 8//8 7//7
f 11//11 210//210 12//12
f 15//15 214//214 16//16
f 28//28 24//24 23//23
f 45//45 49//49 46//46
f 67//67 71//71 68//68
f 94//94 90//90 89//89
f 116//116 112//112 111//111
f 138//138 134//134 133//133
f 155//155 159//159 156//156
f 182//182 178//178 177//177
f 204//204 200//200 199//199
f 32//32 26//26 25//25
f 54//54 48//48 47//47
f 76//76 70//70 69//69
f 91//91 97//97 92//92
f 120//120 114//114 113//113
f 142//142 136//136 135//135
f 164//164 158//158 157//157
f 186//186 180//180 179//179
f 208//208 202//202 201//201
f 29//29 35//35 30//30
f 51//51 57//57 52//52
f 73//73 79//79 74//74
f 102//102 96//96 95//95
f 124//124 118//118 117//117
f 146//146 140//140 139//139
f 161//161 167//167 162//162
f 190//190 184//184 183//183
f 212//212 206//206 205//205
f 40//40 34//34 33//33
f 62//62 56//56 55//55
f 84//84 78//78 77//77
f 106//106 100//100 99//99
f 128//128 122//122 121//121
f 150//150 144//144 143//143
f 165//165 171//171 166//166
f 194//194 188//188 187//187
f 209//209 215//215 210//210
f 37//37 42//42 38//38
f 59//59 64//64 60//60
f 85//85 82//82 81//81
f 107//107 104//104 103//103
f 129//129 126//126 125//125
f 151//151 148//148 147//147
f 169//169 174//174 170//170
f 195//195 192//192 191//191
f 217//217 214//214 213//213
f 44//44 42//42 41//41
f 66//66 64//64 63//63
f 85//85 87//87 86//86
f 107//107 109//109 108//108
f 132//132 130//130 129//129
f 151//151 153//153 152//152
f 176//176 174//174 173//173
f 195//195 197//197 196//196
f 220//220 218//218 217//217
f 203//203 1//1 200//200
f 6//6 23//23 2//2
f 10//10 25//25 5//5
f 207//207 4//4 202//202
f 14//14 29//29 9//9
f 211//211 8//8 206//206
f 18//18 33//33 13//13
f 215//215 12//12 210//210
f 17//17 41//41 37//37
f 214//214 19//19 16//16
f 21//21 41//41 20//20
f 219//219 19//19 218//218
f 27//27 45//45 24//24
f 26//26 54//54 47//47
f 35//35 51//51 30//30
f 39//39 55//55 34//34
f 38//38 63//63 59//59
f 42//42 66//66 63//63
f 49//49 67//67 46//46
f 53//53 69//69 48//48
f 52//52 80//80 73//73
f 61//61 77//77 56//56
f 64//64 81//81 60//60
f 65//65 85//85 64//64
f 71//71 89//89 68//68
f 75//75 91//91 70//70
f 79//79 95//95 74//74
f 83//83 99//99 78//78
f 86//86 103//103 82//82
f 86//86 110//110 107//107
f 90//90 116//116 111//111
f 97//97 113//113 92//92
f 101//101 117//117 96//96
f 105//105 121//121 100//100
f 104//104 129//129 125//125
f 109//109 129//129 108//108
f 115//115 133//133 112//112
f 119//119 135//135 114//114
f 123//123 139//139 118//118
f 127//127 143//143 122//122
f 130//130 147//147 126//126
f 130//130 154//154 151//151
f 137//137 155//155 134//134
f 141//141 157//157 136//136
f 140//140 168//168 161//161
f 144//144 172//172 165//165
f 148//148 173//173 169//169
f 153//153 173//173 152//152
f 159//159 177//177 156//156
f 163//163 179//179 158//158
f 167//167 183//183 162//162
f 171//171 187//187 166//166
f 174//174 191//191 170//170
f 175//175 195//195 174//174
f 178//178 204//204 199//199
f 185//185 201//201 180//180
f 184//184 212//212 205//205
f 188//188 216//216 209//209
f 196//196 213//213 192//192
f 197//197 217//217 196//196
f 3//3 4//4 5//5
f 8//8 9//9 10//10
f 12//12 13//13 14//14
f 15//15 16//16 17//17
f 25//25 26//26 27//27
f 30//30 31//31 32//32
f 34//34 35//35 36//36
f 37//37 38//38 39//39
f 47//47 48//48 49//49
f 51//51 52//52 53//53
f 55//55 56//56 57//57
f 59//59 60//60 61//61
f 70//70 71//71 72//72
f 73//73 74//74 75//75
f 78//78 79//79 80//80
f 81//81 82//82 83//83
f 92//92 93//93 94//94
f 96//96 97//97 98//98
f 100//100 101//101 102//102
f 104//104 105//105 106//106
f 114//114 115//115 116//116
f 118//118 119//119 120//120
f 122//122 123//123 124//124
f 125//125 126//126 127//127
f 136//136 137//137 138//138
f 140//140 141//141 142//142
f 144//144 145//145 146//146
f 147//147 148//148 149//149
f 157//157 158//158 159//159
f 162//162 163//163 164//164
f 166//166 167//167 168//168
f 170//170 171//171 172//172
f 179//179 180//180 181//181
f 183//183 184//184 185//185
f 188//188 189//189 190//190
f 191//191 192//192 193//193
f 202//202 203//203 204//204
f 206//206 207//207 208//208
f 209//209 210//210 211//211
f 213//213 214//214 215//215
f 3//3 6//6 2//2
f 4//4 7//7 10//10
f 8//8 11//11 14//14
f 15//15 18//18 13//13
f 16//16 19//19 20//20
f 22//22 21//21 20//20
f 6//6 5//5 25//25
f 32//32 10//10 9//9
f 14//14 13//13 33//33
f 18//18 17//17 37//37
f 27//27 26//26 47//47
f 31//31 30//30 51//51
f 58//58 35//35 34//34
f 62//62 39//39 38//38
f 72//72 49//49 48//48
f 53//53 52//52 73//73
f 57//57 56//56 77//77
f 61//61 60//60 81//81
f 71//71 70//70 91//91
f 75//75 74//74 95//95
f 79//79 78//78 99//99
f 106//106 83//83 82//82
f 116//116 93//93 92//92
f 120//120 97//97 96//96
f 124//124 101//101 100//100
f 105//105 104//104 125//125
f 115//115 114//114 135//135
f 119//119 118//118 139//139
f 146//146 123//123 122//122
f 127//127 126//126 147//147
f 160//160 137//137 136//136
f 141//141 140//140 161//161
f 145//145 144//144 165//165
f 172//172 149//149 148//148
f 182//182 159//159 158//158
f 163//163 162//162 183//183
f 190//190 167//167 166//166
f 171//171 170//170 191//191
f 181//181 180//180 201//201
f 208//208 185//185 184//184
f 212//212 189//189 188//188
f 193//193 192//192 213//213
f 203//203 202//202 4//4
f 207//207 206//206 8//8
f 11//11 211//211 210//210
f 15//15 215//215 214//214
f 28//28 27//27 24//24
f 45//45 50//50 49//49
f 67//67 72//72 71//71
f 94//94 93//93 90//90
f 116//116 115//115 112//112
f 138//138 137//137 134//134
f 155//155 160//160 159//159
f 182//182 181//181 178//178
f 204//204 203//203 200//200
f 32//32 31//31 26//26
f 54//54 53//53 48//48
f 76//76 75//75 70//70
f 91//91 98//98 97//97
f 120//120 119//119 114//114
f 142//142 141//141 136//136
f 164//164 163//163 158//158
f 186//186 185//185 180//180
f 208//208 207//207 202//202
f 29//29 36//36 35//35
f 51//51 58//58 57//57
f 73//73 80//80 79//79
f 102//102 101//101 96//96
f 124//124 123//123 118//118
f 146//146 145//145 140//140
f 161//161 168//168 167//167
f 190//190 189//189 184//184
f 212//212 211//211 206//206
f 40//40 39//39 34//34
f 62//62 61//61 56//56
f 84//84 83//83 78//78
f 106//106 105//105 100//100
f 128//128 127//127 122//122
f 150//150 149//149 144//144
f 165//165 172//172 171//171
f 194//194 193//193 188//188
f 209//209 216//216 215//215
f 37//37 41//41 42//42
f 59//59 63//63 64//64
f 85//85 86//86 82//82
f 107//107 108//108 104//104
f 129//129 130//130 126//126
f 151//151 152//152 148//148
f 169//169 173//173 174//174
f 195//195 196//196 192//192
f 217//217 218//218 214//214
f 44//44 43//43 42//42
f 66//66 65//65 64//64
f 85//85 88//88 87//87
f 107//107 110//110 109//109
f 132//132 131//131 130//130
f 151//151 154//154 153//153
f 176//176 175//175 174//174
f 195//195 198//198 197//197
f 220//220 219//219 218//218
f 203//203 3//3 1//1
f 6//6 28//28 23//23
f 10//10 32//32 25//25
f 207//207 7//7 4//4
f 14//14 36//36 29//29
f 211//211 11//11 8//8
f 18//18 40//40 33//33
f 215//215 15//15 12//12
f 17//17 20//20 41//41
f 214//214 218//218 19//19
f 21//21 44//44 41//41
f 219//219 22//22 19//19
f 27//27 50//50 45//45
f 26//26 31//31 54//54
f 35//35 58//58 51//51
f 39//39 62//62 55//55
f 38//38 42//42 63//63
f 42//42 43//43 66//66
f 49//49 72//72 67//67
f 53//53 76//76 69//69
f 52//52 57//57 80//80
f 61//61 84//84 77//77
f 64//64 85//85 81//81
f 65//65 88//88 85//85
f 71//71 94//94 89//89
f 75//75 98//98 91//91
f 79//79 102//102 95//95
f 83//83 106//106 99//99
f 86//86 107//107 103//103
f 86//86 87//87 110//110
f 90//90 93//93 116//116
f 97//97 120//120 113//113
f 101//101 124//124 117//117
f 105//105 128//128 121//121
f 104//104 108//108 129//129
f 109//109 132//132 129//129
f 115//115 138//138 133//133
f 119//119 142//142 135//135
f 123//123 146//146 139//139
f 127//127 150//150 143//143
f 130//130 151//151 147//147
f 130//130 131//131 154//154
f 137//137 160//160 155//155
f 141//141 164//164 157//157
f 140//140 145//145 168//168
f 144//144 149//149 172//172
f 148//148 152//152 173//173
f 153//153 176//176 173//173
f 159//159 182//182 177//177
f 163//163 186//186 179//179
f 167//167 190//190 183//183
f 171//171 194//194 187//187
f 174//174 195//195 191//191
f 175//175 198//198 195//195
f 178//178 181//181 204//204
f 185//185 208//208 201//201
f 184//184 189//189 212//212
f 188//188 193//193 216//216
f 196//196 217//217 213//213
f 197//197 220//220 217//217
g B_EmberTip.001_Mesh
v 1.035858 0.370000 0.085858
v 1.069307 0.370000 0.094782
v 1.055957 0.390000 0.077672
v 1.400693 0.370000 0.005218
v 1.400693 0.370000 -0.005218
v 1.343345 0.390000 0.000000
v 1.069307 0.370000 -0.094782
v 1.035858 0.370000 -0.085858
v 1.055957 0.390000 -0.077672
v 0.964142 0.370000 0.014142
v 0.978284 0.390000 0.000000
v 0.964142 0.370000 -0.014142
v 1.035858 0.310000 0.085858
v 1.055957 0.290000 0.077672
v 1.069307 0.310000 0.094782
v 1.400693 0.310000 0.005218
v 1.343345 0.290000 -0.000000
v 1.400693 0.310000 -0.005218
v 1.069307 0.310000 -0.094782
v 1.055957 0.290000 -0.077672
v 1.035858 0.310000 -0.085858
v 0.964142 0.310000 0.014142
v 0.964142 0.310000 -0.014142
v 0.978284 0.290000 0.000000
vn -0.2157 0.5476 0.8084
vn 0.3293 0.9442 -0.0000
vn -0.2157 0.5476 -0.8084
vn -0.8165 0.5774 -0.0000
vn -0.2157 -0.5476 0.8084
vn 0.3293 -0.9442 -0.0000
vn -0.2157 -0.5476 -0.8084
vn -0.8165 -0.5774 -0.0000
vn -0.5000 0.7071 0.5000
vn 0.1845 0.7071 0.6826
vn 0.1845 0.7071 -0.6826
vn -0.5000 0.7071 -0.5000
vn -0.5000 -0.7071 0.5000
vn 0.1845 -0.7071 0.6826
vn 0.1845 -0.7071 -0.6826
vn -0.5000 -0.7071 -0.5000
vn -0.2578 -0.0000 0.9662
vn 1.0000 -0.0000 -0.0000
vn -0.2578 -0.0000 -0.9662
vn -1.0000 -0.0000 -0.0000
vn -0.7071 -0.0000 0.7071
vn -0.0000 1.0000 -0.0000
vn 0.2609 -0.0000 0.9654
vn 0.2609 -0.0000 -0.9654
vn -0.7071 -0.0000 -0.7071
vn -0.0000 -1.0000 -0.0000
s 0
g B_EmberTip.001_crystal
usemtl crystal
f 221//221 222//221 223//221
f 224//222 225//222 226//222
f 227//223 228//223 229//223
f 230//224 231//224 232//224
f 233//225 234//225 235//225
f 236//226 237//226 238//226
f 239//227 240//227 241//227
f 242//228 243//228 244//228
f 231//229 221//229 223//229
f 222//230 226//230 223//230
f 227//231 226//231 225//231
f 228//232 231//232 229//232
f 233//233 244//233 234//233
f 237//234 235//234 234//234
f 237//235 239//235 238//235
f 244//236 241//236 240//236
f 233//237 222//237 221//237
f 236//238 225//238 224//238
f 239//239 228//239 227//239
f 243//240 230//240 232//240
f 221//241 242//241 233//241
f 223//242 229//242 231//242
f 222//243 236//243 224//243
f 225//244 239//244 227//244
f 232//245 241//245 243//245
f 234//246 240//246 237//246
f 231//229 230//229 221//229
f 222//230 224//230 226//230
f 227//231 229//231 226//231
f 228//232 232//232 231//232
f 233//233 242//233 244//233
f 237//234 236//234 235//234
f 237//235 240//235 239//235
f 244//236 243//236 241//236
f 233//237 235//237 222//237
f 236//238 238//238 225//238
f 239//239 241//239 228//239
f 243//240 242//240 230//240
f 221//241 230//241 242//241
f 223//242 226//242 229//242
f 222//243 235//243 236//243
f 225//244 238//244 239//244
f 232//245 228//245 241//245
f 234//246 244//246 240//246
g B_LeftVaneSource.001_Mesh
v -2.064809 -0.516755 0.020902
v -2.076989 -0.520389 0.011493
v -2.057129 -0.532579 -0.002461
v -2.077371 -0.496812 -0.721381
v -2.070144 -0.493455 -0.752915
v -2.057370 -0.508826 -0.732064
v -1.988097 -0.461926 -0.907335
v -1.977818 -0.458737 -0.903167
v -1.981793 -0.479472 -0.874921
v -1.856684 -0.444808 -0.122517
v -1.855268 -0.462121 -0.140852
v -1.847455 -0.441006 -0.147796
v -2.070364 -0.499491 0.021457
v -2.073782 -0.480827 -0.000796
v -2.082555 -0.503093 0.012050
v -2.082868 -0.479729 -0.720832
v -2.073817 -0.457714 -0.730420
v -2.075631 -0.476402 -0.752366
v -1.993492 -0.445160 -0.906796
v -1.997985 -0.429153 -0.873302
v -1.983204 -0.442000 -0.902629
v -1.862029 -0.428197 -0.121983
v -1.852789 -0.424430 -0.147262
v -1.871309 -0.412270 -0.139247
v -1.842121 -0.444116 0.001710
v -1.854262 -0.447751 -0.007303
v -1.834568 -0.459282 -0.020774
v -1.851839 -0.424173 -0.712131
v -1.844489 -0.420816 -0.742429
v -1.832009 -0.435528 -0.722376
v -1.761816 -0.389288 -0.890599
v -1.751551 -0.386098 -0.886566
v -1.755855 -0.406174 -0.859465
v -1.633502 -0.372170 -0.136772
v -1.632227 -0.388823 -0.154373
v -1.624176 -0.368367 -0.161074
v -1.847465 -0.427512 0.002244
v -1.850584 -0.409507 -0.019173
v -1.859615 -0.431113 -0.006768
v -1.857124 -0.407749 -0.711602
v -1.847819 -0.386394 -0.720795
v -1.849764 -0.404423 -0.741902
v -1.766999 -0.373181 -0.890080
v -1.771410 -0.357833 -0.857910
v -1.756725 -0.370020 -0.886049
v -1.638635 -0.356218 -0.136258
v -1.629298 -0.352450 -0.160562
v -1.647632 -0.340949 -0.152833
v -1.619434 -0.371478 -0.017482
v -1.631535 -0.375112 -0.026100
v -1.612006 -0.385984 -0.039088
v -1.626307 -0.351534 -0.702881
v -1.618833 -0.348177 -0.731943
v -1.606647 -0.362230 -0.712688
v -1.535536 -0.316649 -0.873862
v -1.525284 -0.313460 -0.869965
v -1.529917 -0.332877 -0.844010
v -1.410321 -0.299531 -0.151026
v -1.409187 -0.315525 -0.167895
v -1.400897 -0.295729 -0.174353
v -1.624565 -0.355532 -0.016969
v -1.627386 -0.338187 -0.037550
v -1.636676 -0.359134 -0.025586
v -1.631380 -0.335770 -0.702374
v -1.621821 -0.315074 -0.711170
v -1.623896 -0.332444 -0.731437
v -1.540507 -0.301201 -0.873365
v -1.544836 -0.286512 -0.842518
v -1.530246 -0.298041 -0.869469
v -1.415242 -0.284239 -0.150534
v -1.405807 -0.280471 -0.173862
v -1.423955 -0.269629 -0.166418
v -1.396746 -0.298839 -0.036674
v -1.408807 -0.302474 -0.044896
v -1.389445 -0.312686 -0.057401
v -1.400775 -0.278896 -0.693631
v -1.393178 -0.275539 -0.721458
v -1.381286 -0.288932 -0.702999
v -1.309255 -0.244011 -0.857126
v -1.299017 -0.240821 -0.853364
v -1.303979 -0.259579 -0.828554
v -1.187140 -0.226892 -0.165280
v -1.186146 -0.242227 -0.181416
v -1.177618 -0.223090 -0.187632
v -1.401665 -0.283553 -0.036182
v -1.404189 -0.266867 -0.055927
v -1.413737 -0.287155 -0.044404
v -1.405636 -0.263791 -0.693145
v -1.395823 -0.243754 -0.701546
v -1.398028 -0.260464 -0.720973
v -1.314014 -0.229222 -0.856650
v -1.318261 -0.215192 -0.827126
v -1.303767 -0.226062 -0.852889
v -1.191848 -0.212259 -0.164809
v -1.182315 -0.208492 -0.187162
v -1.200278 -0.198309 -0.180003
v -1.174058 -0.226200 -0.055865
v -1.186080 -0.229835 -0.063693
v -1.166884 -0.239388 -0.075714
v -1.175243 -0.206257 -0.684380
v -1.167522 -0.202900 -0.710972
v -1.155924 -0.215634 -0.693311
v -1.072611 -0.168006 -0.841354
v -1.060356 -0.164157 -0.837899
v -1.068508 -0.183184 -0.813989
v -0.959575 -0.152831 -0.179910
v -0.958428 -0.167411 -0.195339
v -0.948864 -0.148674 -0.201370
v -1.178765 -0.211574 -0.055395
v -1.180991 -0.195546 -0.074304
v -1.190797 -0.215175 -0.063221
v -1.179892 -0.191811 -0.683916
v -1.169826 -0.172434 -0.691921
v -1.172161 -0.188485 -0.710508
v -1.077158 -0.153877 -0.840899
v -1.082157 -0.140777 -0.812624
v -1.064895 -0.150057 -0.837445
v -0.964074 -0.138858 -0.179460
v -0.953352 -0.134736 -0.200921
v -0.971931 -0.125473 -0.193989
v -0.949663 -0.153007 -0.075203
v -0.961629 -0.156637 -0.082639
v -0.942041 -0.165350 -0.094221
v -0.921937 -0.124609 -0.677257
v -0.911257 -0.120333 -0.702785
v -0.899872 -0.132382 -0.685905
v -0.801161 -0.080740 -0.827059
v -0.789265 -0.077007 -0.823591
v -0.798861 -0.095732 -0.800927
v -0.727347 -0.077267 -0.194512
v -0.725522 -0.090922 -0.209247
v -0.715486 -0.072771 -0.215002
v -0.954160 -0.139041 -0.074753
v -0.955519 -0.123488 -0.092873
v -0.966136 -0.142637 -0.082189
v -0.926377 -0.110823 -0.676813
v -0.913150 -0.091163 -0.684578
v -0.915687 -0.106578 -0.702342
v -0.805502 -0.067272 -0.826625
v -0.811889 -0.055307 -0.799625
v -0.793597 -0.063568 -0.823158
v -0.731639 -0.063954 -0.194083
v -0.719766 -0.059493 -0.214574
v -0.738402 -0.050966 -0.207960
v -0.723525 -0.079253 -0.094525
v -0.734985 -0.082731 -0.101597
v -0.715063 -0.090624 -0.112696
v -0.661738 -0.040775 -0.668684
v -0.649745 -0.036118 -0.692887
v -0.640020 -0.047961 -0.676332
v -0.558330 -0.003306 -0.789108
v -0.549170 -0.000508 -0.783512
v -0.556315 -0.017607 -0.764806
v -0.503829 -0.005370 -0.175587
v -0.501995 -0.018306 -0.190072
v -0.492534 -0.001156 -0.192445
v -0.727815 -0.065947 -0.094097
v -0.727920 -0.050745 -0.111411
v -0.739285 -0.069392 -0.101168
v -0.665970 -0.027650 -0.668261
v -0.652674 -0.008724 -0.675068
v -0.653968 -0.023024 -0.692465
v -0.562443 0.009507 -0.788695
v -0.568663 0.020855 -0.763567
v -0.553272 0.012277 -0.783100
v -0.507883 0.007291 -0.175179
v -0.496575 0.011472 -0.192038
v -0.514163 0.019697 -0.188848
v -0.500866 -0.007487 -0.080075
v -0.511990 -0.010805 -0.089285
v -0.492637 -0.018258 -0.096369
v -0.447867 0.026896 -0.611783
v -0.438444 0.030627 -0.632423
v -0.429395 0.019302 -0.615920
v -0.349350 0.062489 -0.721509
v -0.340082 0.065328 -0.716038
v -0.347164 0.049013 -0.698499
v -0.284338 0.064787 -0.139159
v -0.282990 0.052400 -0.152906
v -0.273346 0.068874 -0.155030
v -0.504917 0.005168 -0.079667
v -0.504775 0.019669 -0.095148
v -0.516054 0.001883 -0.088876
v -0.451849 0.039374 -0.611381
v -0.441289 0.056601 -0.614719
v -0.442414 0.043075 -0.632023
v -0.353212 0.074656 -0.721118
v -0.358757 0.085534 -0.697324
v -0.343933 0.077467 -0.715648
v -0.288141 0.076801 -0.138773
v -0.277136 0.080854 -0.154645
v -0.294407 0.088462 -0.151747
v -0.279753 0.063346 -0.048623
v -0.291013 0.059972 -0.057435
v -0.272052 0.053106 -0.064031
v -0.235761 0.093948 -0.551608
v -0.226675 0.097534 -0.570991
v -0.217589 0.086974 -0.555288
v -0.136356 0.129148 -0.674993
v -0.126633 0.132072 -0.672728
v -0.134281 0.116419 -0.652530
v -0.064287 0.134335 -0.140394
v -0.063403 0.122519 -0.152729
v -0.053394 0.138282 -0.158935
v -0.283553 0.075354 -0.048237
v -0.283439 0.089092 -0.062874
v -0.294826 0.072013 -0.057048
v -0.239494 0.105779 -0.551228
v -0.228736 0.122330 -0.554153
v -0.230396 0.109334 -0.570612
v -0.139914 0.140684 -0.674626
v -0.144968 0.151048 -0.651427
v -0.130172 0.143583 -0.672362
v -0.067745 0.145731 -0.140033
v -0.056830 0.149647 -0.158576
v -0.073787 0.156726 -0.151646
vn -0.1507 -0.8408 0.5200
vn -0.5853 -0.7812 -0.2173
vn 0.4338 -0.7544 -0.4927
vn 0.9225 -0.2426 0.3003
vn -0.6026 0.5635 0.5651
vn -0.9348 0.3049 -0.1824
vn -0.0962 0.8930 -0.4397
vn 0.6138 0.7166 0.3312
vn 0.5919 -0.5635 0.5763
vn -0.5366 -0.8434 -0.0269
vn -0.3907 -0.8389 -0.3791
vn 0.9138 -0.3779 -0.1488
vn 0.1634 0.7681 0.6191
vn -0.9279 0.3727 0.0123
vn -0.8133 0.4745 -0.3368
vn 0.5195 0.8474 -0.1094
vn -0.5590 -0.2057 0.8032
vn -0.9256 -0.2900 -0.2430
vn 0.3351 0.1378 -0.9320
vn 0.8893 0.2744 0.3659
vn 0.5276 0.1428 0.8374
vn 0.3104 -0.9501 -0.0310
vn -0.9520 -0.3060 -0.0093
vn -0.8323 -0.2520 -0.4937
vn 0.9367 0.3068 -0.1689
vn -0.3020 0.9528 0.0302
vn -0.1357 -0.8419 0.5223
vn -0.5693 -0.7906 -0.2257
vn 0.4288 -0.7571 -0.4928
vn 0.9148 -0.2583 0.3106
vn -0.5910 0.5730 0.5678
vn -0.9274 0.3223 -0.1899
vn -0.1019 0.8923 -0.4397
vn 0.5986 0.7242 0.3423
vn 0.5817 -0.5702 0.5801
vn -0.5204 -0.8534 -0.0303
vn -0.3721 -0.8435 -0.3873
vn 0.9061 -0.3959 -0.1494
vn 0.1513 0.7674 0.6231
vn -0.9206 0.3904 0.0097
vn -0.8010 0.4896 -0.3444
vn 0.5027 0.8575 -0.1091
vn -0.5443 -0.2014 0.8144
vn -0.9226 -0.2887 -0.2558
vn 0.3257 0.1349 -0.9358
vn 0.8834 0.2720 0.3816
vn 0.5142 0.1382 0.8465
vn -0.9520 -0.3059 -0.0135
vn -0.8225 -0.2482 -0.5117
vn 0.9361 0.3068 -0.1719
vn -0.1204 -0.8429 0.5245
vn -0.5522 -0.8001 -0.2344
vn 0.4238 -0.7599 -0.4929
vn 0.9062 -0.2747 0.3214
vn -0.5790 0.5826 0.5704
vn -0.9192 0.3405 -0.1977
vn -0.1077 0.8917 -0.4397
vn 0.5823 0.7319 0.3538
vn 0.5713 -0.5769 0.5838
vn -0.5033 -0.8635 -0.0340
vn -0.3527 -0.8480 -0.3956
vn 0.8976 -0.4146 -0.1499
vn 0.1390 0.7665 0.6270
vn -0.9126 0.4087 0.0070
vn -0.7881 0.5050 -0.3521
vn 0.4849 0.8678 -0.1087
vn -0.5289 -0.1967 0.8256
vn -0.9192 -0.2871 -0.2696
vn 0.3161 0.1320 -0.9395
vn 0.8769 0.2694 0.3982
vn 0.5004 0.1335 0.8555
vn -0.9519 -0.3057 -0.0180
vn -0.8117 -0.2441 -0.5306
vn 0.9356 0.3067 -0.1751
vn -0.1048 -0.8436 0.5266
vn -0.5340 -0.8097 -0.2435
vn 0.4187 -0.7627 -0.4929
vn 0.8969 -0.2917 0.3324
vn -0.5668 0.5921 0.5728
vn -0.9102 0.3594 -0.2058
vn -0.1134 0.8910 -0.4397
vn 0.5650 0.7397 0.3656
vn 0.5607 -0.5836 0.5874
vn -0.4852 -0.8736 -0.0378
vn -0.3326 -0.8521 -0.4040
vn 0.8883 -0.4339 -0.1504
vn 0.1266 0.7656 0.6308
vn -0.9039 0.4277 0.0041
vn -0.7743 0.5205 -0.3598
vn 0.4661 0.8781 -0.1082
vn -0.5127 -0.1919 0.8368
vn -0.9153 -0.2854 -0.2843
vn 0.3064 0.1289 -0.9431
vn 0.8696 0.2664 0.4158
vn 0.4862 0.1286 0.8643
vn -0.9519 -0.3056 -0.0229
vn -0.7998 -0.2396 -0.5504
vn 0.9349 0.3066 -0.1787
vn -0.0890 -0.8441 0.5287
vn -0.5146 -0.8193 -0.2529
vn 0.3840 -0.7818 -0.4912
vn 0.8699 -0.3246 0.3713
vn -0.5542 0.6016 0.5752
vn -0.9002 0.3791 -0.2143
vn -0.1527 0.8861 -0.4375
vn 0.5246 0.7484 0.4058
vn 0.5453 -0.5938 0.5916
vn -0.4660 -0.8838 -0.0417
vn -0.2804 -0.8565 -0.4334
vn 0.8387 -0.5278 -0.1341
vn 0.1082 0.7646 0.6354
vn -0.8943 0.4474 0.0011
vn -0.7350 0.5562 -0.3879
vn 0.3714 0.9244 -0.0873
vn -0.4957 -0.1868 0.8481
vn -0.9108 -0.2834 -0.3002
vn 0.2383 0.1078 -0.9652
vn 0.8440 0.2566 0.4710
vn 0.4654 0.1216 0.8767
vn 0.3103 -0.9501 -0.0310
vn -0.9518 -0.3054 -0.0282
vn -0.7583 -0.2244 -0.6121
vn 0.9362 0.3070 -0.1714
vn -0.3021 0.9528 0.0302
vn -0.0680 -0.8491 0.5238
vn -0.4238 -0.8476 -0.3193
vn 0.3874 -0.7845 -0.4842
vn 0.8453 -0.3356 0.4157
vn -0.5402 0.6181 0.5711
vn -0.8443 0.4585 -0.2773
vn -0.1516 0.8899 -0.4302
vn 0.4987 0.7407 0.4502
vn 0.5272 -0.6006 0.6011
vn -0.4432 -0.8931 -0.0777
vn -0.2184 -0.8579 -0.4651
vn 0.8331 -0.5446 -0.0972
vn 0.0896 0.7591 0.6448
vn -0.8820 0.4701 -0.0338
vn -0.6861 0.5951 -0.4184
vn 0.3574 0.9326 -0.0496
vn -0.4787 -0.1818 0.8590
vn -0.8721 -0.2677 -0.4097
vn 0.2461 0.1103 -0.9629
vn 0.8146 0.2457 0.5255
vn 0.4397 0.1129 0.8910
vn 0.3102 -0.9502 -0.0308
vn -0.9496 -0.3033 -0.0797
vn -0.6998 -0.2035 -0.6848
vn 0.9442 0.3082 -0.1166
vn -0.3021 0.9528 0.0304
vn -0.0551 -0.8578 0.5111
vn -0.4053 -0.8393 -0.3623
vn 0.5070 -0.7239 -0.4680
vn 0.8085 -0.3844 0.4456
vn -0.5350 0.6333 0.5593
vn -0.8255 0.4646 -0.3205
vn -0.0210 0.9092 -0.4158
vn 0.4412 0.7560 0.4834
vn 0.4457 -0.6507 0.6148
vn -0.4232 -0.8979 -0.1211
vn -0.2061 -0.8491 -0.4863
vn 0.8828 -0.4620 -0.0851
vn -0.0070 0.7514 0.6598
vn -0.8695 0.4879 -0.0765
vn -0.6726 0.5955 -0.4394
vn 0.4456 0.8942 -0.0415
vn -0.4761 -0.1812 0.8605
vn -0.8452 -0.2575 -0.4683
vn 0.4723 0.1794 -0.8630
vn 0.7805 0.2312 0.5808
vn 0.3233 0.0738 0.9434
vn 0.3113 -0.9498 -0.0304
vn -0.9432 -0.2995 -0.1440
vn -0.6771 -0.1945 -0.7097
vn 0.9477 0.3061 -0.0905
vn -0.3028 0.9526 0.0306
vn -0.1507 -0.8580 0.4911
vn -0.4219 -0.8387 -0.3442
vn 0.5010 -0.7252 -0.4723
vn 0.7962 -0.4086 0.4462
vn -0.6143 0.5787 0.5365
vn -0.8378 0.4552 -0.3013
vn -0.0266 0.9068 -0.4208
vn 0.4193 0.7665 0.4864
vn 0.3948 -0.6621 0.6370
vn -0.3931 -0.9124 -0.1141
vn -0.1806 -0.8544 -0.4873
vn 0.8688 -0.4849 -0.1003
vn -0.0548 0.7290 0.6824
vn -0.8532 0.5171 -0.0677
vn -0.6548 0.6156 -0.4386
vn 0.4231 0.9043 -0.0558
vn -0.5848 -0.2125 0.7829
vn -0.8597 -0.2602 -0.4395
vn 0.4605 0.1741 -0.8704
vn 0.7728 0.2255 0.5933
vn 0.2479 0.0482 0.9676
vn 0.3118 -0.9497 -0.0307
vn -0.9449 -0.2971 -0.1374
vn -0.6605 -0.1863 -0.7273
vn 0.9461 0.3030 -0.1145
vn -0.3032 0.9524 0.0307
vn -0.1355 -0.8550 0.5005
vn -0.3963 -0.8515 -0.3433
vn 0.3536 -0.7994 -0.4857
vn 0.8340 -0.3674 0.4117
vn -0.5998 0.5858 0.5451
vn -0.8236 0.4826 -0.2980
vn -0.1635 0.8870 -0.4319
vn 0.4941 0.7449 0.4482
vn 0.4722 -0.6068 0.6393
vn -0.3707 -0.9228 -0.1049
vn -0.2225 -0.8638 -0.4521
vn 0.8285 -0.5487 -0.1115
vn 0.0534 0.7279 0.6836
vn -0.8396 0.5402 -0.0571
vn -0.6827 0.6054 -0.4092
vn 0.3753 0.9247 -0.0645
vn -0.5646 -0.2045 0.7996
vn -0.8563 -0.2558 -0.4487
vn 0.1995 0.0924 -0.9755
vn 0.8166 0.2310 0.5289
vn 0.3662 0.0861 0.9265
vn 0.3032 -0.9524 -0.0320
vn -0.9472 -0.2948 -0.1262
vn -0.7097 -0.1973 -0.6763
vn 0.9468 0.2906 -0.1386
vn -0.2946 0.9551 0.0318
vn 0.5920 -0.5627 0.5770
vn -0.5255 -0.8504 -0.0275
vn -0.3899 -0.8394 -0.3786
vn 0.9107 -0.3856 -0.1479
vn 0.1640 0.7674 0.6198
vn -0.9229 0.3848 0.0122
vn -0.8130 0.4754 -0.3363
vn 0.5126 0.8518 -0.1080
vn -0.5591 -0.2057 0.8032
vn -0.8323 -0.2519 -0.4937
vn 0.5818 -0.5694 0.5808
vn -0.5087 -0.8604 -0.0310
vn -0.3713 -0.8441 -0.3868
vn 0.9027 -0.4039 -0.1483
vn 0.1519 0.7667 0.6238
vn -0.9152 0.4029 0.0097
vn -0.8007 0.4905 -0.3438
vn 0.4954 0.8620 -0.1076
vn 0.5714 -0.5760 0.5846
vn -0.4909 -0.8705 -0.0346
vn -0.3519 -0.8486 -0.3951
vn 0.8939 -0.4229 -0.1488
vn 0.1396 0.7658 0.6278
vn -0.9067 0.4217 0.0070
vn -0.7877 0.5059 -0.3515
vn 0.4771 0.8723 -0.1071
vn -0.9192 -0.2871 -0.2695
vn 0.5608 -0.5827 0.5883
vn -0.4720 -0.8808 -0.0384
vn -0.3317 -0.8528 -0.4034
vn 0.8843 -0.4425 -0.1491
vn 0.1272 0.7648 0.6316
vn -0.8974 0.4412 0.0042
vn -0.7740 0.5215 -0.3592
vn 0.4579 0.8826 -0.1065
vn 0.5456 -0.5885 0.5966
vn -0.4520 -0.8910 -0.0423
vn -0.2801 -0.8567 -0.4332
vn 0.8626 -0.4858 -0.1411
vn 0.1116 0.7602 0.6400
vn -0.8872 0.4614 0.0012
vn -0.7349 0.5564 -0.3877
vn 0.4151 0.9047 -0.0963
vn -0.4958 -0.1868 0.8481
vn 0.8440 0.2566 0.4709
vn 0.3100 -0.9502 -0.0309
vn -0.7583 -0.2243 -0.6121
vn 0.9362 0.3069 -0.1714
vn -0.3023 0.9527 0.0303
vn 0.5276 -0.5895 0.6117
vn -0.3581 -0.9305 -0.0774
vn -0.2236 -0.8538 -0.4701
vn 0.8565 -0.5059 -0.1021
vn 0.0966 0.7497 0.6546
vn -0.8347 0.5499 -0.0297
vn -0.6881 0.5890 -0.4238
vn 0.3988 0.9153 -0.0562
vn 0.8146 0.2457 0.5254
vn 0.4397 0.1130 0.8910
vn 0.3099 -0.9503 -0.0307
vn -0.9496 -0.3032 -0.0797
vn -0.6998 -0.2034 -0.6848
vn 0.9442 0.3081 -0.1166
vn -0.3026 0.9526 0.0306
vn 0.4448 -0.6393 0.6273
vn -0.3488 -0.9299 -0.1168
vn -0.2039 -0.8511 -0.4839
vn 0.8677 -0.4901 -0.0826
vn -0.0005 0.7404 0.6722
vn -0.8278 0.5567 -0.0690
vn -0.6717 0.5985 -0.4365
vn 0.4177 0.9078 -0.0378
vn 0.4723 0.1793 -0.8630
vn 0.7805 0.2310 0.5808
vn 0.3234 0.0732 0.9434
vn 0.3120 -0.9496 -0.0306
vn -0.9432 -0.2994 -0.1440
vn -0.6769 -0.1954 -0.7097
vn 0.9474 0.3069 -0.0904
vn -0.3031 0.9525 0.0307
vn 0.3950 -0.6629 0.6360
vn -0.3996 -0.9095 -0.1144
vn -0.1783 -0.8564 -0.4846
vn 0.8534 -0.5122 -0.0972
vn -0.0550 0.7293 0.6820
vn -0.8564 0.5118 -0.0683
vn -0.6539 0.6189 -0.4353
vn 0.3953 0.9171 -0.0515
vn -0.5847 -0.2124 0.7829
vn -0.8597 -0.2601 -0.4396
vn 0.4604 0.1741 -0.8705
vn 0.7727 0.2254 0.5933
vn 0.2481 0.0474 0.9676
vn 0.3121 -0.9495 -0.0308
vn -0.9446 -0.2981 -0.1374
vn -0.6603 -0.1872 -0.7273
vn 0.9459 0.3037 -0.1144
vn 0.4726 -0.6193 0.6270
vn -0.3748 -0.9211 -0.1051
vn -0.2338 -0.8550 -0.4629
vn 0.8191 -0.5631 -0.1093
vn 0.0473 0.7375 0.6737
vn -0.8417 0.5369 -0.0574
vn -0.6855 0.5974 -0.4162
vn 0.3627 0.9298 -0.0622
vn -0.5645 -0.2044 0.7997
vn -0.8563 -0.2556 -0.4488
vn 0.1992 0.0925 -0.9756
vn 0.8166 0.2301 0.5293
vn 0.3673 0.0821 0.9265
vn 0.3007 -0.9532 -0.0310
vn -0.9469 -0.2958 -0.1262
vn -0.7081 -0.2016 -0.6767
vn 0.9454 0.2951 -0.1383
vn -0.2920 0.9559 0.0307
s 0
g B_LeftVaneSource.001_aged_cloth
usemtl aged_cloth
f 245//247 246//247 247//247
f 248//248 249//248 250//248
f 251//249 252//249 253//249
f 254//250 255//250 256//250
f 257//251 258//251 259//251
f 260//252 261//252 262//252
f 263//253 264//253 265//253
f 266//254 267//254 268//254
f 247//255 254//255 245//255
f 248//256 247//256 246//256
f 249//257 253//257 250//257
f 256//258 253//258 252//258
f 266//259 258//259 257//259
f 258//260 260//260 259//260
f 264//261 262//261 261//261
f 264//262 267//262 265//262
f 245//263 259//263 246//263
f 248//264 262//264 249//264
f 263//265 252//265 251//265
f 267//266 254//266 256//266
f 254//267 257//267 245//267
f 250//268 255//268 247//268
f 248//269 259//269 260//269
f 249//270 263//270 251//270
f 252//271 267//271 256//271
f 268//272 261//272 258//272
f 269//273 270//273 271//273
f 272//274 273//274 274//274
f 275//275 276//275 277//275
f 278//276 279//276 280//276
f 281//277 282//277 283//277
f 284//278 285//278 286//278
f 287//279 288//279 289//279
f 290//280 291//280 292//280
f 271//281 278//281 269//281
f 272//282 271//282 270//282
f 273//283 277//283 274//283
f 280//284 277//284 276//284
f 290//285 282//285 281//285
f 282//286 284//286 283//286
f 288//287 286//287 285//287
f 288//288 291//288 289//288
f 281//289 270//289 269//289
f 272//290 286//290 273//290
f 275//291 289//291 276//291
f 280//292 290//292 278//292
f 278//293 281//293 269//293
f 274//268 279//268 271//268
f 270//294 284//294 272//294
f 273//295 287//295 275//295
f 276//296 291//296 280//296
f 292//272 285//272 282//272
f 293//297 294//297 295//297
f 296//298 297//298 298//298
f 299//299 300//299 301//299
f 302//300 303//300 304//300
f 305//301 306//301 307//301
f 308//302 309//302 310//302
f 311//303 312//303 313//303
f 314//304 315//304 316//304
f 295//305 302//305 293//305
f 296//306 295//306 294//306
f 297//307 301//307 298//307
f 304//308 301//308 300//308
f 314//309 306//309 305//309
f 306//310 308//310 307//310
f 312//311 310//311 309//311
f 312//312 315//312 313//312
f 305//313 294//313 293//313
f 296//314 310//314 297//314
f 299//315 313//315 300//315
f 315//316 302//316 304//316
f 302//317 305//317 293//317
f 298//268 303//268 295//268
f 294//318 308//318 296//318
f 299//319 310//319 311//319
f 300//320 315//320 304//320
f 316//272 309//272 306//272
f 317//321 318//321 319//321
f 320//322 321//322 322//322
f 323//323 324//323 325//323
f 326//324 327//324 328//324
f 329//325 330//325 331//325
f 332//326 333//326 334//326
f 335//327 336//327 337//327
f 338//328 339//328 340//328
f 319//329 326//329 317//329
f 320//330 319//330 318//330
f 321//331 325//331 322//331
f 328//332 325//332 324//332
f 338//333 330//333 329//333
f 330//334 332//334 331//334
f 336//335 334//335 333//335
f 336//336 339//336 337//336
f 317//337 331//337 318//337
f 332//338 321//338 320//338
f 335//339 324//339 323//339
f 339//340 326//340 328//340
f 317//341 338//341 329//341
f 322//268 327//268 319//268
f 318//342 332//342 320//342
f 323//343 334//343 335//343
f 328//344 337//344 339//344
f 340//272 333//272 330//272
f 341//345 342//345 343//345
f 344//346 345//346 346//346
f 347//347 348//347 349//347
f 350//348 351//348 352//348
f 353//349 354//349 355//349
f 356//350 357//350 358//350
f 359//351 360//351 361//351
f 362//352 363//352 364//352
f 343//353 350//353 341//353
f 344//354 343//354 342//354
f 345//355 349//355 346//355
f 352//356 349//356 348//356
f 362//357 354//357 353//357
f 354//358 356//358 355//358
f 360//359 358//359 357//359
f 360//360 363//360 361//360
f 353//361 342//361 341//361
f 344//362 358//362 345//362
f 347//363 361//363 348//363
f 363//364 350//364 352//364
f 341//365 362//365 353//365
f 346//366 351//366 343//366
f 344//367 355//367 356//367
f 345//368 359//368 347//368
f 348//369 363//369 352//369
f 364//370 357//370 354//370
f 365//371 366//371 367//371
f 368//372 369//372 370//372
f 371//373 372//373 373//373
f 374//374 375//374 376//374
f 377//375 378//375 379//375
f 380//376 381//376 382//376
f 383//377 384//377 385//377
f 386//378 387//378 388//378
f 367//379 374//379 365//379
f 368//380 367//380 366//380
f 369//381 373//381 370//381
f 376//382 373//382 372//382
f 386//383 378//383 377//383
f 378//384 380//384 379//384
f 384//385 382//385 381//385
f 384//386 387//386 385//386
f 377//387 366//387 365//387
f 368//388 382//388 369//388
f 371//389 385//389 372//389
f 387//390 374//390 376//390
f 365//391 386//391 377//391
f 370//392 375//392 367//392
f 366//393 380//393 368//393
f 369//394 383//394 371//394
f 372//395 387//395 376//395
f 388//396 381//396 378//396
f 389//397 390//397 391//397
f 392//398 393//398 394//398
f 395//399 396//399 397//399
f 398//400 399//400 400//400
f 401//401 402//401 403//401
f 404//402 405//402 406//402
f 407//403 408//403 409//403
f 410//404 411//404 412//404
f 391//405 398//405 389//405
f 392//406 391//406 390//406
f 393//407 397//407 394//407
f 400//408 397//408 396//408
f 410//409 402//409 401//409
f 402//410 404//410 403//410
f 408//411 406//411 405//411
f 408//412 411//412 409//412
f 401//413 390//413 389//413
f 392//414 406//414 393//414
f 407//415 396//415 395//415
f 400//416 410//416 398//416
f 398//417 401//417 389//417
f 394//418 399//418 391//418
f 390//419 404//419 392//419
f 395//420 406//420 407//420
f 400//421 409//421 411//421
f 412//422 405//422 402//422
f 413//423 414//423 415//423
f 416//424 417//424 418//424
f 419//425 420//425 421//425
f 422//426 423//426 424//426
f 425//427 426//427 427//427
f 428//428 429//428 430//428
f 431//429 432//429 433//429
f 434//430 435//430 436//430
f 415//431 422//431 413//431
f 416//432 415//432 414//432
f 417//433 421//433 418//433
f 424//434 421//434 420//434
f 434//435 426//435 425//435
f 426//436 428//436 427//436
f 432//437 430//437 429//437
f 432//438 435//438 433//438
f 413//439 427//439 414//439
f 428//440 417//440 416//440
f 431//441 420//441 419//441
f 424//442 434//442 422//442
f 422//443 425//443 413//443
f 418//444 423//444 415//444
f 416//445 427//445 428//445
f 419//446 430//446 431//446
f 424//447 433//447 435//447
f 436//448 429//448 426//448
f 437//449 438//449 439//449
f 440//450 441//450 442//450
f 443//451 444//451 445//451
f 446//452 447//452 448//452
f 449//453 450//453 451//453
f 452//454 453//454 454//454
f 455//455 456//455 457//455
f 458//456 459//456 460//456
f 439//457 446//457 437//457
f 440//458 439//458 438//458
f 441//459 445//459 442//459
f 448//460 445//460 444//460
f 458//461 450//461 449//461
f 450//462 452//462 451//462
f 456//463 454//463 453//463
f 456//464 459//464 457//464
f 437//465 451//465 438//465
f 452//466 441//466 440//466
f 443//467 457//467 444//467
f 448//468 458//468 446//468
f 446//469 449//469 437//469
f 442//470 447//470 439//470
f 440//471 451//471 452//471
f 441//472 455//472 443//472
f 448//473 457//473 459//473
f 460//474 453//474 450//474
f 247//475 255//475 254//475
f 248//476 250//476 247//476
f 249//477 251//477 253//477
f 256//478 255//478 253//478
f 266//479 268//479 258//479
f 258//480 261//480 260//480
f 264//481 263//481 262//481
f 264//482 268//482 267//482
f 245//483 257//483 259//483
f 248//264 260//264 262//264
f 263//265 265//265 252//265
f 267//266 266//266 254//266
f 254//267 266//267 257//267
f 250//268 253//268 255//268
f 248//269 246//269 259//269
f 249//484 262//484 263//484
f 252//271 265//271 267//271
f 268//272 264//272 261//272
f 271//485 279//485 278//485
f 272//486 274//486 271//486
f 273//487 275//487 277//487
f 280//488 279//488 277//488
f 290//489 292//489 282//489
f 282//490 285//490 284//490
f 288//491 287//491 286//491
f 288//492 292//492 291//492
f 281//289 283//289 270//289
f 272//290 284//290 286//290
f 275//291 287//291 289//291
f 280//292 291//292 290//292
f 278//293 290//293 281//293
f 274//268 277//268 279//268
f 270//294 283//294 284//294
f 273//295 286//295 287//295
f 276//296 289//296 291//296
f 292//272 288//272 285//272
f 295//493 303//493 302//493
f 296//494 298//494 295//494
f 297//495 299//495 301//495
f 304//496 303//496 301//496
f 314//497 316//497 306//497
f 306//498 309//498 308//498
f 312//499 311//499 310//499
f 312//500 316//500 315//500
f 305//313 307//313 294//313
f 296//501 308//501 310//501
f 299//315 311//315 313//315
f 315//316 314//316 302//316
f 302//317 314//317 305//317
f 298//268 301//268 303//268
f 294//318 307//318 308//318
f 299//319 297//319 310//319
f 300//320 313//320 315//320
f 316//272 312//272 309//272
f 319//502 327//502 326//502
f 320//503 322//503 319//503
f 321//504 323//504 325//504
f 328//505 327//505 325//505
f 338//506 340//506 330//506
f 330//507 333//507 332//507
f 336//508 335//508 334//508
f 336//509 340//509 339//509
f 317//337 329//337 331//337
f 332//338 334//338 321//338
f 335//339 337//339 324//339
f 339//340 338//340 326//340
f 317//341 326//341 338//341
f 322//268 325//268 327//268
f 318//342 331//342 332//342
f 323//343 321//343 334//343
f 328//344 324//344 337//344
f 340//272 336//272 333//272
f 343//510 351//510 350//510
f 344//511 346//511 343//511
f 345//512 347//512 349//512
f 352//513 351//513 349//513
f 362//514 364//514 354//514
f 354//515 357//515 356//515
f 360//516 359//516 358//516
f 360//517 364//517 363//517
f 353//518 355//518 342//518
f 344//362 356//362 358//362
f 347//363 359//363 361//363
f 363//519 362//519 350//519
f 341//365 350//365 362//365
f 346//520 349//520 351//520
f 344//367 342//367 355//367
f 345//521 358//521 359//521
f 348//522 361//522 363//522
f 364//523 360//523 357//523
f 367//524 375//524 374//524
f 368//525 370//525 367//525
f 369//526 371//526 373//526
f 376//527 375//527 373//527
f 386//528 388//528 378//528
f 378//529 381//529 380//529
f 384//530 383//530 382//530
f 384//531 388//531 387//531
f 377//387 379//387 366//387
f 368//388 380//388 382//388
f 371//389 383//389 385//389
f 387//532 386//532 374//532
f 365//533 374//533 386//533
f 370//534 373//534 375//534
f 366//535 379//535 380//535
f 369//536 382//536 383//536
f 372//537 385//537 387//537
f 388//538 384//538 381//538
f 391//539 399//539 398//539
f 392//540 394//540 391//540
f 393//541 395//541 397//541
f 400//542 399//542 397//542
f 410//543 412//543 402//543
f 402//544 405//544 404//544
f 408//545 407//545 406//545
f 408//546 412//546 411//546
f 401//413 403//413 390//413
f 392//414 404//414 406//414
f 407//547 409//547 396//547
f 400//548 411//548 410//548
f 398//549 410//549 401//549
f 394//550 397//550 399//550
f 390//551 403//551 404//551
f 395//552 393//552 406//552
f 400//553 396//553 409//553
f 412//554 408//554 405//554
f 415//555 423//555 422//555
f 416//556 418//556 415//556
f 417//557 419//557 421//557
f 424//558 423//558 421//558
f 434//559 436//559 426//559
f 426//560 429//560 428//560
f 432//561 431//561 430//561
f 432//562 436//562 435//562
f 413//563 425//563 427//563
f 428//564 430//564 417//564
f 431//565 433//565 420//565
f 424//566 435//566 434//566
f 422//567 434//567 425//567
f 418//568 421//568 423//568
f 416//569 414//569 427//569
f 419//570 417//570 430//570
f 424//571 420//571 433//571
f 436//448 432//448 429//448
f 439//572 447//572 446//572
f 440//573 442//573 439//573
f 441//574 443//574 445//574
f 448//575 447//575 445//575
f 458//576 460//576 450//576
f 450//577 453//577 452//577
f 456//578 455//578 454//578
f 456//579 460//579 459//579
f 437//580 449//580 451//580
f 452//581 454//581 441//581
f 443//582 455//582 457//582
f 448//583 459//583 458//583
f 446//584 458//584 449//584
f 442//585 445//585 447//585
f 440//586 438//586 451//586
f 441//587 454//587 455//587
f 448//588 444//588 457//588
f 460//589 456//589 453//589
g B_RightVaneSource.001_Mesh
v -2.054408 -0.499491 0.181020
v -2.064494 -0.503093 0.192655
v -2.053351 -0.480827 0.203509
v -1.919676 -0.479729 0.911086
v -1.906338 -0.476402 0.940563
v -1.908906 -0.457714 0.918692
v -1.795246 -0.445160 1.075669
v -1.785987 -0.442000 1.069548
v -1.806283 -0.429153 1.043728
v -1.821794 -0.428197 0.280365
v -1.827472 -0.412270 0.299126
v -1.807731 -0.424430 0.303314
v -2.048853 -0.516755 0.180465
v -2.036698 -0.532579 0.201844
v -2.058928 -0.520389 0.192099
v -1.914179 -0.496812 0.910536
v -1.892460 -0.508826 0.917047
v -1.900851 -0.493455 0.940015
v -1.789851 -0.461926 1.075130
v -1.790091 -0.479472 1.042109
v -1.780601 -0.458737 1.069009
v -1.816449 -0.444808 0.279831
v -1.802397 -0.441006 0.302781
v -1.811430 -0.462121 0.297521
v -1.832118 -0.427512 0.155714
v -1.842243 -0.431113 0.166954
v -1.830935 -0.409507 0.177325
v -1.700230 -0.407750 0.857338
v -1.687016 -0.404423 0.885580
v -1.689289 -0.386394 0.864506
v -1.576548 -0.373181 1.014435
v -1.567275 -0.370020 1.008449
v -1.587242 -0.357832 0.983775
v -1.599998 -0.356218 0.250122
v -1.605534 -0.340949 0.268149
v -1.586032 -0.352450 0.272095
v -1.826775 -0.444116 0.155180
v -1.814918 -0.459282 0.175723
v -1.836890 -0.447751 0.166418
v -1.694945 -0.424173 0.856809
v -1.673479 -0.435528 0.862925
v -1.681741 -0.420816 0.885052
v -1.571365 -0.389288 1.013917
v -1.571687 -0.406174 0.982220
v -1.562102 -0.386098 1.007931
v -1.594865 -0.372170 0.249608
v -1.580910 -0.368367 0.271583
v -1.590129 -0.388823 0.266609
v -1.609827 -0.355532 0.130408
v -1.619992 -0.359134 0.141253
v -1.608518 -0.338187 0.151140
v -1.480784 -0.335770 0.803590
v -1.467693 -0.332444 0.830596
v -1.469673 -0.315074 0.810320
v -1.357851 -0.301201 0.953201
v -1.348564 -0.298041 0.947350
v -1.368203 -0.286512 0.923822
v -1.378201 -0.284239 0.219878
v -1.383596 -0.269629 0.237173
v -1.364333 -0.280471 0.240876
v -1.604696 -0.371478 0.129895
v -1.593137 -0.385984 0.149602
v -1.614851 -0.375112 0.140738
v -1.475711 -0.351534 0.803083
v -1.454499 -0.362230 0.808802
v -1.462630 -0.348177 0.830090
v -1.352880 -0.316649 0.952704
v -1.353283 -0.332877 0.922330
v -1.343603 -0.313460 0.946853
v -1.373280 -0.299531 0.219386
v -1.359423 -0.295729 0.240385
v -1.368828 -0.315525 0.235696
v -1.387537 -0.283553 0.105102
v -1.397741 -0.287155 0.115551
v -1.386101 -0.266867 0.124956
v -1.261338 -0.263791 0.749842
v -1.248370 -0.260464 0.775612
v -1.250056 -0.243754 0.756133
v -1.139153 -0.229222 0.891966
v -1.129853 -0.226062 0.886251
v -1.149163 -0.215192 0.863868
v -1.156404 -0.212259 0.189634
v -1.161659 -0.198309 0.206197
v -1.142634 -0.208492 0.209657
v -1.382618 -0.298839 0.104610
v -1.371357 -0.312686 0.123481
v -1.392812 -0.302474 0.115058
v -1.256477 -0.278896 0.749356
v -1.235518 -0.288932 0.754680
v -1.243520 -0.275539 0.775127
v -1.134394 -0.244011 0.891491
v -1.134880 -0.259579 0.862440
v -1.125104 -0.240821 0.885776
v -1.151695 -0.226892 0.189164
v -1.137936 -0.223090 0.209187
v -1.147526 -0.242227 0.204783
v -1.165246 -0.211574 0.079796
v -1.175490 -0.215175 0.089850
v -1.163684 -0.195546 0.098771
v -1.041891 -0.191811 0.696094
v -1.029047 -0.188485 0.720629
v -1.030439 -0.172434 0.701947
v -0.930820 -0.160609 0.831697
v -0.923536 -0.158108 0.826288
v -0.939655 -0.146969 0.804806
v -0.938991 -0.141703 0.159766
v -0.944398 -0.128508 0.175622
v -0.926410 -0.138289 0.178897
v -1.160539 -0.226200 0.079325
v -1.149576 -0.239388 0.097360
v -1.170773 -0.229835 0.089378
v -1.037243 -0.206257 0.695629
v -1.016538 -0.215634 0.700557
v -1.024409 -0.202900 0.720165
v -0.926272 -0.174738 0.831242
v -0.926005 -0.189376 0.803441
v -0.918997 -0.172207 0.825834
v -0.934492 -0.155676 0.159316
v -0.921922 -0.152228 0.178448
v -0.930896 -0.170446 0.174272
v -0.944664 -0.140149 0.054635
v -0.954964 -0.143756 0.064299
v -0.943549 -0.124967 0.072780
v -0.850219 -0.128842 0.644473
v -0.840335 -0.126434 0.667944
v -0.841513 -0.111068 0.650044
v -0.757291 -0.103256 0.772904
v -0.749649 -0.100640 0.767483
v -0.764324 -0.089803 0.747246
v -0.726240 -0.072649 0.129871
v -0.732327 -0.060379 0.145032
v -0.714809 -0.069575 0.148032
v -0.940167 -0.154116 0.054186
v -0.930070 -0.166828 0.071432
v -0.950456 -0.157756 0.063848
v -0.845779 -0.142627 0.644029
v -0.828236 -0.152287 0.648716
v -0.835904 -0.140189 0.667501
v -0.752950 -0.116724 0.772470
v -0.751296 -0.130228 0.745943
v -0.745317 -0.114079 0.767050
v -0.721949 -0.085962 0.129442
v -0.710529 -0.082853 0.147604
v -0.719446 -0.100334 0.143745
v -0.725823 -0.069285 0.029460
v -0.736629 -0.073043 0.038759
v -0.725548 -0.055075 0.046757
v -0.665440 -0.068058 0.591401
v -0.656869 -0.066031 0.613549
v -0.656391 -0.050894 0.596790
v -0.555355 -0.037232 0.732893
v -0.544999 -0.033801 0.729789
v -0.562097 -0.024440 0.707987
v -0.505110 -0.001738 0.132744
v -0.511200 0.009839 0.146686
v -0.493139 0.001473 0.152571
v -0.721534 -0.082591 0.029031
v -0.712691 -0.094954 0.045472
v -0.732329 -0.086382 0.038329
v -0.661207 -0.081182 0.590979
v -0.643737 -0.090131 0.595526
v -0.652646 -0.079125 0.613127
v -0.551242 -0.050045 0.732480
v -0.549749 -0.062901 0.706748
v -0.540897 -0.046587 0.729377
v -0.501056 -0.014400 0.132336
v -0.489098 -0.011155 0.152165
v -0.499032 -0.028164 0.145462
v -0.503839 0.001731 0.037772
v -0.514955 -0.002050 0.044143
v -0.503341 0.015287 0.055180
v -0.434805 0.006294 0.585059
v -0.423687 0.009118 0.608322
v -0.422541 0.023697 0.593120
v -0.319860 0.038827 0.722036
v -0.309612 0.042216 0.719056
v -0.326774 0.050795 0.698421
v -0.280126 0.069959 0.153057
v -0.285730 0.080987 0.166261
v -0.267852 0.073297 0.171898
v -0.499788 -0.010925 0.037364
v -0.491202 -0.022641 0.053959
v -0.510891 -0.014737 0.043734
v -0.430823 -0.006184 0.584657
v -0.410647 -0.013602 0.591919
v -0.419716 -0.003329 0.607921
v -0.315998 0.026660 0.721644
v -0.315181 0.014273 0.697247
v -0.305761 0.030078 0.718665
v -0.276323 0.057944 0.152671
v -0.264062 0.061317 0.171513
v -0.274313 0.044926 0.165102
v -0.280477 0.072751 0.063061
v -0.291458 0.069027 0.069035
v -0.279450 0.085776 0.079584
v -0.202436 0.081095 0.581625
v -0.190981 0.084065 0.603631
v -0.189872 0.097879 0.589229
v -0.089257 0.112848 0.689796
v -0.079591 0.115983 0.683895
v -0.096028 0.124109 0.668214
v -0.057260 0.140182 0.135684
v -0.062373 0.150676 0.148812
v -0.045038 0.143458 0.149891
v -0.276676 0.060743 0.062675
v -0.268063 0.049790 0.078427
v -0.287644 0.056986 0.068648
v -0.198703 0.069265 0.581245
v -0.178725 0.062522 0.588094
v -0.187260 0.072265 0.603252
v -0.085699 0.101312 0.689428
v -0.085341 0.089480 0.667110
v -0.076052 0.104473 0.683528
v -0.053802 0.128785 0.135323
v -0.041602 0.132093 0.149532
v -0.051988 0.116469 0.147729
vn -0.7026 0.5635 -0.4346
vn -0.8801 0.3049 0.3638
vn -0.0073 0.8930 0.4500
vn 0.5361 0.7166 -0.4462
vn -0.2507 -0.8408 -0.4798
vn -0.5307 -0.7812 0.3289
vn 0.5228 -0.7543 0.3970
vn 0.8447 -0.2426 -0.4770
vn 0.0376 0.7681 -0.6392
vn -0.9119 0.3727 0.1717
vn -0.7305 0.4745 0.4912
vn 0.5309 0.8474 0.0044
vn 0.4661 -0.5635 -0.6821
vn -0.5206 -0.8434 0.1326
vn -0.3079 -0.8389 0.4489
vn 0.9252 -0.3779 -0.0351
vn -0.7070 -0.2057 -0.6766
vn -0.8592 -0.2900 0.4215
vn 0.5130 0.1378 0.8472
vn 0.7992 0.2744 -0.5348
vn 0.3514 0.1428 -0.9253
vn -0.3020 0.9528 0.0302
vn -0.9313 -0.3060 0.1977
vn -0.7181 -0.2519 0.6487
vn 0.9516 0.3068 -0.0200
vn 0.3104 -0.9501 -0.0310
vn -0.6917 0.5730 -0.4395
vn -0.8714 0.3223 0.3698
vn -0.0129 0.8923 0.4512
vn 0.5190 0.7242 -0.4540
vn -0.2364 -0.8419 -0.4851
vn -0.5133 -0.7906 0.3340
vn 0.5179 -0.7571 0.3981
vn 0.8351 -0.2583 -0.4856
vn 0.0249 0.7674 -0.6407
vn -0.9043 0.3904 0.1728
vn -0.7170 0.4896 0.4962
vn 0.5144 0.8575 0.0074
vn 0.4553 -0.5702 -0.6838
vn -0.5041 -0.8534 0.1328
vn -0.2880 -0.8435 0.4533
vn 0.9177 -0.3959 -0.0330
vn -0.6948 -0.2014 -0.6905
vn -0.8537 -0.2887 0.4334
vn 0.5046 0.1349 0.8528
vn 0.7904 0.2720 -0.5490
vn 0.3364 0.1382 -0.9315
vn -0.9304 -0.3059 0.2017
vn -0.7049 -0.2482 0.6645
vn 0.9516 0.3068 -0.0169
vn -0.6805 0.5826 -0.4444
vn -0.8619 0.3405 0.3758
vn -0.0185 0.8917 0.4523
vn 0.5008 0.7319 -0.4621
vn -0.2219 -0.8429 -0.4903
vn -0.4948 -0.8001 0.3391
vn 0.5130 -0.7599 0.3992
vn 0.8247 -0.2747 -0.4945
vn 0.0121 0.7665 -0.6421
vn -0.8959 0.4087 0.1739
vn -0.7027 0.5050 0.5012
vn 0.4969 0.8678 0.0105
vn 0.4444 -0.5769 -0.6853
vn -0.4866 -0.8635 0.1330
vn -0.2674 -0.8480 0.4576
vn 0.9095 -0.4146 -0.0308
vn -0.6819 -0.1967 -0.7045
vn -0.8476 -0.2871 0.4462
vn 0.4959 0.1319 0.8583
vn 0.7807 0.2694 -0.5639
vn 0.3211 0.1335 -0.9376
vn -0.9295 -0.3057 0.2062
vn -0.6905 -0.2441 0.6809
vn 0.9517 0.3067 -0.0136
vn -0.6690 0.5921 -0.4493
vn -0.8514 0.3594 0.3820
vn -0.0241 0.8910 0.4534
vn 0.4814 0.7397 -0.4703
vn -0.2070 -0.8436 -0.4955
vn -0.4752 -0.8097 0.3444
vn 0.5080 -0.7627 0.4002
vn 0.8133 -0.2917 -0.5035
vn -0.0008 0.7656 -0.6434
vn -0.8868 0.4277 0.1750
vn -0.6877 0.5205 0.5061
vn 0.4783 0.8781 0.0138
vn 0.4333 -0.5836 -0.6868
vn -0.4681 -0.8736 0.1331
vn -0.2460 -0.8521 0.4619
vn 0.9005 -0.4339 -0.0285
vn -0.6683 -0.1919 -0.7187
vn -0.8408 -0.2854 0.4599
vn 0.4871 0.1289 0.8638
vn 0.7700 0.2664 -0.5797
vn 0.3054 0.1286 -0.9435
vn -0.9285 -0.3056 0.2109
vn -0.6749 -0.2396 0.6979
vn 0.9518 0.3066 -0.0100
vn -0.6572 0.6016 -0.4541
vn -0.8399 0.3791 0.3883
vn 0.0239 0.8947 0.4460
vn 0.4880 0.7455 -0.4540
vn -0.1919 -0.8441 -0.5006
vn -0.4543 -0.8193 0.3497
vn 0.5491 -0.7374 0.3935
vn 0.8224 -0.2933 -0.4875
vn -0.0081 0.7643 -0.6449
vn -0.8768 0.4474 0.1760
vn -0.7026 0.5130 0.4931
vn 0.5473 0.8366 0.0232
vn 0.4266 -0.5867 -0.6883
vn -0.4485 -0.8838 0.1332
vn -0.2627 -0.8540 0.4491
vn 0.9326 -0.3607 -0.0153
vn -0.6539 -0.1868 -0.7332
vn -0.8333 -0.2834 0.4746
vn 0.5550 0.1523 0.8178
vn 0.7817 0.2698 -0.5622
vn 0.2959 0.1257 -0.9469
vn -0.3019 0.9529 0.0302
vn -0.9274 -0.3054 0.2161
vn -0.6948 -0.2454 0.6761
vn 0.9519 0.3063 0.0052
vn 0.3104 -0.9501 -0.0311
vn -0.6477 0.6035 -0.4651
vn -0.8827 0.3263 0.3382
vn 0.0220 0.8879 0.4595
vn 0.4763 0.7671 -0.4297
vn -0.1833 -0.8395 -0.5115
vn -0.5205 -0.7987 0.3019
vn 0.5437 -0.7338 0.4074
vn 0.8260 -0.3187 -0.4648
vn -0.0163 0.7673 -0.6410
vn -0.8733 0.4648 0.1457
vn -0.7304 0.4938 0.4720
vn 0.5262 0.8473 0.0721
vn 0.4218 -0.5942 -0.6849
vn -0.4359 -0.8942 0.1020
vn -0.2968 -0.8534 0.4285
vn 0.9227 -0.3840 0.0325
vn -0.6383 -0.1814 -0.7481
vn -0.8700 -0.2930 0.3965
vn 0.5384 0.1468 0.8298
vn 0.7926 0.2731 -0.5451
vn 0.2888 0.1236 -0.9494
vn -0.3018 0.9529 0.0304
vn -0.9352 -0.3069 0.1767
vn -0.7299 -0.2557 0.6340
vn 0.9502 0.3041 0.0687
vn 0.3105 -0.9501 -0.0308
vn -0.6297 0.6052 -0.4871
vn -0.8784 0.3669 0.3064
vn -0.1417 0.8644 0.4823
vn 0.4905 0.7636 -0.4198
vn -0.1680 -0.8292 -0.5332
vn -0.4935 -0.8275 0.2676
vn 0.3995 -0.8106 0.4282
vn 0.8358 -0.3095 -0.4534
vn 0.0609 0.7708 -0.6342
vn -0.8669 0.4869 0.1073
vn -0.7014 0.5388 0.4666
vn 0.3867 0.9177 0.0908
vn 0.4877 -0.5514 -0.6769
vn -0.4182 -0.9062 0.0623
vn -0.2458 -0.8729 0.4214
vn 0.8511 -0.5232 0.0443
vn -0.6078 -0.1710 -0.7755
vn -0.8813 -0.2961 0.3682
vn 0.2697 0.0556 0.9613
vn 0.8030 0.2740 -0.5292
vn 0.3804 0.1520 -0.9122
vn -0.3028 0.9525 0.0308
vn -0.9432 -0.3082 0.1243
vn -0.7074 -0.2484 0.6617
vn 0.9483 0.3001 0.1035
vn 0.3113 -0.9498 -0.0307
vn -0.5251 0.6787 -0.5135
vn -0.8348 0.4275 0.3470
vn -0.1461 0.8645 0.4809
vn 0.4684 0.7657 -0.4408
vn -0.0392 -0.8257 -0.5627
vn -0.4238 -0.8522 0.3069
vn 0.3957 -0.8135 0.4263
vn 0.8180 -0.3262 -0.4739
vn 0.0768 0.7856 -0.6140
vn -0.8583 0.4990 0.1195
vn -0.6825 0.5526 0.4785
vn 0.3664 0.9270 0.0806
vn 0.5100 -0.5559 -0.6564
vn -0.4045 -0.9115 0.0743
vn -0.2236 -0.8729 0.4336
vn 0.8384 -0.5441 0.0328
vn -0.4627 -0.1198 -0.8784
vn -0.8507 -0.2856 0.4413
vn 0.2628 0.0524 0.9634
vn 0.7853 0.2664 -0.5588
vn 0.4129 0.1611 -0.8964
vn -0.3032 0.9524 0.0307
vn -0.9414 -0.3051 0.1442
vn -0.6850 -0.2395 0.6880
vn 0.9504 0.2978 0.0895
vn 0.3116 -0.9497 -0.0307
vn -0.5123 0.6896 -0.5118
vn -0.8171 0.4462 0.3651
vn -0.0043 0.8860 0.4636
vn 0.3604 0.7920 -0.4927
vn -0.0230 -0.8267 -0.5622
vn -0.4006 -0.8567 0.3251
vn 0.5011 -0.7612 0.4116
vn 0.7330 -0.4261 -0.5302
vn -0.0366 0.7859 -0.6173
vn -0.8435 0.5201 0.1342
vn -0.6081 0.5958 0.5246
vn 0.3857 0.9198 0.0723
vn 0.4078 -0.6299 -0.6610
vn -0.3822 -0.9199 0.0883
vn -0.1500 -0.8680 0.4734
vn 0.8369 -0.5467 0.0257
vn -0.4452 -0.1124 -0.8884
vn -0.8359 -0.2788 0.4728
vn 0.4878 0.1229 0.8643
vn 0.7093 0.2354 -0.6645
vn 0.2751 0.1177 -0.9542
vn -0.2948 0.9551 0.0291
vn -0.9382 -0.3015 0.1700
vn -0.5973 -0.2089 0.7743
vn 0.9551 0.2863 0.0765
vn 0.3033 -0.9524 -0.0294
vn 0.0380 0.7674 -0.6400
vn -0.9071 0.3848 0.1708
vn -0.7303 0.4754 0.4906
vn 0.5238 0.8518 0.0044
vn 0.4660 -0.5627 -0.6828
vn -0.5096 -0.8504 0.1310
vn -0.3072 -0.8394 0.4483
vn 0.9220 -0.3856 -0.0354
vn 0.5131 0.1378 0.8472
vn 0.0253 0.7667 -0.6416
vn -0.8990 0.4029 0.1718
vn -0.7168 0.4905 0.4956
vn 0.5069 0.8620 0.0074
vn 0.4552 -0.5694 -0.6845
vn -0.4925 -0.8604 0.1311
vn -0.2873 -0.8441 0.4526
vn 0.9142 -0.4039 -0.0334
vn -0.6948 -0.2014 -0.6904
vn -0.8537 -0.2887 0.4335
vn 0.0125 0.7658 -0.6430
vn -0.8901 0.4217 0.1727
vn -0.7025 0.5059 0.5005
vn 0.4889 0.8723 0.0105
vn 0.4443 -0.5760 -0.6862
vn -0.4743 -0.8705 0.1311
vn -0.2667 -0.8486 0.4569
vn 0.9057 -0.4229 -0.0312
vn -0.0004 0.7648 -0.6443
vn -0.8804 0.4412 0.1736
vn -0.6875 0.5215 0.5053
vn 0.4699 0.8826 0.0137
vn 0.4332 -0.5827 -0.6877
vn -0.4551 -0.8808 0.1311
vn -0.2453 -0.8528 0.4611
vn 0.8963 -0.4425 -0.0289
vn -0.6683 -0.1919 -0.7188
vn -0.0096 0.7670 -0.6416
vn -0.8699 0.4614 0.1745
vn -0.7022 0.5148 0.4918
vn 0.4745 0.8800 0.0222
vn 0.4270 -0.5899 -0.6853
vn -0.4347 -0.8910 0.1310
vn -0.2614 -0.8551 0.4477
vn 0.8987 -0.4381 -0.0202
vn -0.3016 0.9530 0.0302
vn -0.6948 -0.2453 0.6761
vn 0.9519 0.3063 0.0051
vn 0.3108 -0.9500 -0.0310
vn -0.0197 0.7733 -0.6338
vn -0.9056 0.3964 0.1505
vn -0.7277 0.5050 0.4642
vn 0.4547 0.8881 0.0676
vn 0.4226 -0.6012 -0.6781
vn -0.5018 -0.8579 0.1101
vn -0.2882 -0.8605 0.4201
vn 0.8884 -0.4585 0.0242
vn 0.2888 0.1237 -0.9494
vn -0.3011 0.9531 0.0306
vn -0.9352 -0.3068 0.1767
vn -0.7299 -0.2555 0.6340
vn 0.9502 0.3040 0.0687
vn 0.3111 -0.9499 -0.0307
vn 0.0546 0.7798 -0.6237
vn -0.8930 0.4366 0.1090
vn 0.3938 0.9146 0.0916
vn 0.4881 -0.5637 -0.6664
vn -0.4685 -0.8809 0.0665
vn -0.2461 -0.8727 0.4217
vn 0.8548 -0.5170 0.0452
vn 0.2698 0.0556 0.9613
vn 0.8030 0.2741 -0.5291
vn 0.3806 0.1512 -0.9123
vn -0.3033 0.9524 0.0307
vn -0.9432 -0.3081 0.1243
vn -0.7072 -0.2494 0.6616
vn 0.9480 0.3008 0.1035
vn 0.3114 -0.9498 -0.0306
vn 0.0799 0.7815 -0.6188
vn -0.8366 0.5352 0.1173
vn -0.6828 0.5514 0.4794
vn 0.3721 0.9246 0.0812
vn 0.5101 -0.5515 -0.6601
vn -0.3665 -0.9278 0.0705
vn -0.2250 -0.8718 0.4351
vn 0.8414 -0.5393 0.0336
vn -0.4627 -0.1199 -0.8784
vn -0.8507 -0.2857 0.4412
vn 0.2629 0.0525 0.9634
vn 0.7853 0.2666 -0.5587
vn 0.4133 0.1596 -0.8965
vn -0.9410 -0.3061 0.1441
vn -0.6847 -0.2406 0.6879
vn 0.9502 0.2986 0.0895
vn 0.3113 -0.9498 -0.0308
vn -0.0304 0.7750 -0.6313
vn -0.8212 0.5553 0.1312
vn -0.6046 0.6124 0.5092
vn 0.3796 0.9224 0.0718
vn 0.4065 -0.6179 -0.6730
vn -0.3443 -0.9351 0.0837
vn -0.1415 -0.8756 0.4619
vn 0.8312 -0.5554 0.0245
vn -0.4452 -0.1124 -0.8883
vn -0.8359 -0.2789 0.4727
vn 0.4882 0.1226 0.8641
vn 0.7094 0.2362 -0.6641
vn 0.2761 0.1140 -0.9544
vn -0.2924 0.9558 0.0299
vn -0.9379 -0.3025 0.1700
vn -0.5958 -0.2128 0.7744
vn 0.9537 0.2908 0.0766
vn 0.3007 -0.9532 -0.0302
s 0
g B_RightVaneSource.001_aged_cloth
usemtl aged_cloth
f 461//590 462//590 463//590
f 464//591 465//591 466//591
f 467//592 468//592 469//592
f 470//593 471//593 472//593
f 473//594 474//594 475//594
f 476//595 477//595 478//595
f 479//596 480//596 481//596
f 482//597 483//597 484//597
f 463//598 470//598 461//598
f 464//599 463//599 462//599
f 465//600 469//600 466//600
f 472//601 469//601 468//601
f 482//602 474//602 473//602
f 474//603 476//603 475//603
f 480//604 478//604 477//604
f 480//605 483//605 481//605
f 461//606 475//606 462//606
f 464//607 478//607 465//607
f 479//608 468//608 467//608
f 472//609 482//609 470//609
f 461//610 482//610 473//610
f 466//611 471//611 463//611
f 462//612 476//612 464//612
f 465//613 479//613 467//613
f 472//614 481//614 483//614
f 484//615 477//615 474//615
f 485//616 486//616 487//616
f 488//617 489//617 490//617
f 491//618 492//618 493//618
f 494//619 495//619 496//619
f 497//620 498//620 499//620
f 500//621 501//621 502//621
f 503//622 504//622 505//622
f 506//623 507//623 508//623
f 487//624 494//624 485//624
f 488//625 487//625 486//625
f 489//626 493//626 490//626
f 496//627 493//627 492//627
f 506//628 498//628 497//628
f 498//629 500//629 499//629
f 504//630 502//630 501//630
f 504//631 507//631 505//631
f 485//632 499//632 486//632
f 500//633 489//633 488//633
f 491//634 505//634 492//634
f 496//635 506//635 494//635
f 485//636 506//636 497//636
f 490//611 495//611 487//611
f 486//637 500//637 488//637
f 489//638 503//638 491//638
f 496//639 505//639 507//639
f 508//615 501//615 498//615
f 509//640 510//640 511//640
f 512//641 513//641 514//641
f 515//642 516//642 517//642
f 518//643 519//643 520//643
f 521//644 522//644 523//644
f 524//645 525//645 526//645
f 527//646 528//646 529//646
f 530//647 531//647 532//647
f 511//648 518//648 509//648
f 512//649 511//649 510//649
f 513//650 517//650 514//650
f 520//651 517//651 516//651
f 530//652 522//652 521//652
f 522//653 524//653 523//653
f 528//654 526//654 525//654
f 528//655 531//655 529//655
f 509//656 523//656 510//656
f 524//657 513//657 512//657
f 515//658 529//658 516//658
f 520//659 530//659 518//659
f 518//660 521//660 509//660
f 514//611 519//611 511//611
f 510//661 524//661 512//661
f 515//662 526//662 527//662
f 516//663 531//663 520//663
f 532//615 525//615 522//615
f 533//664 534//664 535//664
f 536//665 537//665 538//665
f 539//666 540//666 541//666
f 542//667 543//667 544//667
f 545//668 546//668 547//668
f 548//669 549//669 550//669
f 551//670 552//670 553//670
f 554//671 555//671 556//671
f 535//672 542//672 533//672
f 536//673 535//673 534//673
f 537//674 541//674 538//674
f 544//675 541//675 540//675
f 554//676 546//676 545//676
f 546//677 548//677 547//677
f 552//678 550//678 549//678
f 552//679 555//679 553//679
f 545//680 534//680 533//680
f 548//681 537//681 536//681
f 551//682 540//682 539//682
f 544//683 554//683 542//683
f 542//684 545//684 533//684
f 538//611 543//611 535//611
f 534//685 548//685 536//685
f 539//686 550//686 551//686
f 544//687 553//687 555//687
f 556//615 549//615 546//615
f 557//688 558//688 559//688
f 560//689 561//689 562//689
f 563//690 564//690 565//690
f 566//691 567//691 568//691
f 569//692 570//692 571//692
f 572//693 573//693 574//693
f 575//694 576//694 577//694
f 578//695 579//695 580//695
f 559//696 566//696 557//696
f 560//697 559//697 558//697
f 561//698 565//698 562//698
f 568//699 565//699 564//699
f 578//700 570//700 569//700
f 570//701 572//701 571//701
f 576//702 574//702 573//702
f 576//703 579//703 577//703
f 569//704 558//704 557//704
f 560//705 574//705 561//705
f 575//706 564//706 563//706
f 568//707 578//707 566//707
f 566//708 569//708 557//708
f 562//709 567//709 559//709
f 558//710 572//710 560//710
f 563//711 574//711 575//711
f 568//712 577//712 579//712
f 580//713 573//713 570//713
f 581//714 582//714 583//714
f 584//715 585//715 586//715
f 587//716 588//716 589//716
f 590//717 591//717 592//717
f 593//718 594//718 595//718
f 596//719 597//719 598//719
f 599//720 600//720 601//720
f 602//721 603//721 604//721
f 583//722 590//722 581//722
f 584//723 583//723 582//723
f 585//724 589//724 586//724
f 592//725 589//725 588//725
f 602//726 594//726 593//726
f 594//727 596//727 595//727
f 600//728 598//728 597//728
f 600//729 603//729 601//729
f 581//730 595//730 582//730
f 596//731 585//731 584//731
f 599//732 588//732 587//732
f 592//733 602//733 590//733
f 590//734 593//734 581//734
f 586//735 591//735 583//735
f 584//736 595//736 596//736
f 587//737 598//737 599//737
f 592//738 601//738 603//738
f 604//739 597//739 594//739
f 605//740 606//740 607//740
f 608//741 609//741 610//741
f 611//742 612//742 613//742
f 614//743 615//743 616//743
f 617//744 618//744 619//744
f 620//745 621//745 622//745
f 623//746 624//746 625//746
f 626//747 627//747 628//747
f 607//748 614//748 605//748
f 608//749 607//749 606//749
f 609//750 613//750 610//750
f 616//751 613//751 612//751
f 626//752 618//752 617//752
f 618//753 620//753 619//753
f 624//754 622//754 621//754
f 624//755 627//755 625//755
f 605//756 619//756 606//756
f 620//757 609//757 608//757
f 611//758 625//758 612//758
f 627//759 614//759 616//759
f 605//760 626//760 617//760
f 610//761 615//761 607//761
f 608//762 619//762 620//762
f 609//763 623//763 611//763
f 612//764 627//764 616//764
f 628//765 621//765 618//765
f 629//766 630//766 631//766
f 632//767 633//767 634//767
f 635//768 636//768 637//768
f 638//769 639//769 640//769
f 641//770 642//770 643//770
f 644//771 645//771 646//771
f 647//772 648//772 649//772
f 650//773 651//773 652//773
f 631//774 638//774 629//774
f 632//775 631//775 630//775
f 633//776 637//776 634//776
f 640//777 637//777 636//777
f 650//778 642//778 641//778
f 642//779 644//779 643//779
f 648//780 646//780 645//780
f 648//781 651//781 649//781
f 641//782 630//782 629//782
f 632//783 646//783 633//783
f 635//784 649//784 636//784
f 651//785 638//785 640//785
f 629//786 650//786 641//786
f 634//787 639//787 631//787
f 630//788 644//788 632//788
f 633//789 647//789 635//789
f 636//790 651//790 640//790
f 652//791 645//791 642//791
f 653//792 654//792 655//792
f 656//793 657//793 658//793
f 659//794 660//794 661//794
f 662//795 663//795 664//795
f 665//796 666//796 667//796
f 668//797 669//797 670//797
f 671//798 672//798 673//798
f 674//799 675//799 676//799
f 655//800 662//800 653//800
f 656//801 655//801 654//801
f 657//802 661//802 658//802
f 664//803 661//803 660//803
f 674//804 666//804 665//804
f 666//805 668//805 667//805
f 672//806 670//806 669//806
f 672//807 675//807 673//807
f 665//808 654//808 653//808
f 656//809 670//809 657//809
f 671//810 660//810 659//810
f 675//811 662//811 664//811
f 653//812 674//812 665//812
f 658//813 663//813 655//813
f 654//814 668//814 656//814
f 659//815 670//815 671//815
f 660//816 675//816 664//816
f 676//817 669//817 666//817
f 463//818 471//818 470//818
f 464//819 466//819 463//819
f 465//820 467//820 469//820
f 472//821 471//821 469//821
f 482//822 484//822 474//822
f 474//823 477//823 476//823
f 480//824 479//824 478//824
f 480//825 484//825 483//825
f 461//606 473//606 475//606
f 464//607 476//607 478//607
f 479//826 481//826 468//826
f 472//609 483//609 482//609
f 461//610 470//610 482//610
f 466//611 469//611 471//611
f 462//612 475//612 476//612
f 465//613 478//613 479//613
f 472//614 468//614 481//614
f 484//615 480//615 477//615
f 487//827 495//827 494//827
f 488//828 490//828 487//828
f 489//829 491//829 493//829
f 496//830 495//830 493//830
f 506//831 508//831 498//831
f 498//832 501//832 500//832
f 504//833 503//833 502//833
f 504//834 508//834 507//834
f 485//835 497//835 499//835
f 500//836 502//836 489//836
f 491//634 503//634 505//634
f 496//635 507//635 506//635
f 485//636 494//636 506//636
f 490//611 493//611 495//611
f 486//637 499//637 500//637
f 489//638 502//638 503//638
f 496//639 492//639 505//639
f 508//615 504//615 501//615
f 511//837 519//837 518//837
f 512//838 514//838 511//838
f 513//839 515//839 517//839
f 520//840 519//840 517//840
f 530//841 532//841 522//841
f 522//842 525//842 524//842
f 528//843 527//843 526//843
f 528//844 532//844 531//844
f 509//656 521//656 523//656
f 524//657 526//657 513//657
f 515//658 527//658 529//658
f 520//659 531//659 530//659
f 518//660 530//660 521//660
f 514//611 517//611 519//611
f 510//661 523//661 524//661
f 515//662 513//662 526//662
f 516//663 529//663 531//663
f 532//615 528//615 525//615
f 535//845 543//845 542//845
f 536//846 538//846 535//846
f 537//847 539//847 541//847
f 544//848 543//848 541//848
f 554//849 556//849 546//849
f 546//850 549//850 548//850
f 552//851 551//851 550//851
f 552//852 556//852 555//852
f 545//853 547//853 534//853
f 548//681 550//681 537//681
f 551//682 553//682 540//682
f 544//683 555//683 554//683
f 542//684 554//684 545//684
f 538//611 541//611 543//611
f 534//685 547//685 548//685
f 539//686 537//686 550//686
f 544//687 540//687 553//687
f 556//615 552//615 549//615
f 559//854 567//854 566//854
f 560//855 562//855 559//855
f 561//856 563//856 565//856
f 568//857 567//857 565//857
f 578//858 580//858 570//858
f 570//859 573//859 572//859
f 576//860 575//860 574//860
f 576//861 580//861 579//861
f 569//704 571//704 558//704
f 560//705 572//705 574//705
f 575//706 577//706 564//706
f 568//707 579//707 578//707
f 566//708 578//708 569//708
f 562//862 565//862 567//862
f 558//710 571//710 572//710
f 563//863 561//863 574//863
f 568//864 564//864 577//864
f 580//865 576//865 573//865
f 583//866 591//866 590//866
f 584//867 586//867 583//867
f 585//868 587//868 589//868
f 592//869 591//869 589//869
f 602//870 604//870 594//870
f 594//871 597//871 596//871
f 600//872 599//872 598//872
f 600//873 604//873 603//873
f 581//730 593//730 595//730
f 596//731 598//731 585//731
f 599//732 601//732 588//732
f 592//733 603//733 602//733
f 590//874 602//874 593//874
f 586//875 589//875 591//875
f 584//876 582//876 595//876
f 587//877 585//877 598//877
f 592//878 588//878 601//878
f 604//879 600//879 597//879
f 607//880 615//880 614//880
f 608//881 610//881 607//881
f 609//750 611//750 613//750
f 616//882 615//882 613//882
f 626//883 628//883 618//883
f 618//884 621//884 620//884
f 624//885 623//885 622//885
f 624//886 628//886 627//886
f 605//756 617//756 619//756
f 620//757 622//757 609//757
f 611//887 623//887 625//887
f 627//888 626//888 614//888
f 605//889 614//889 626//889
f 610//890 613//890 615//890
f 608//891 606//891 619//891
f 609//892 622//892 623//892
f 612//893 625//893 627//893
f 628//894 624//894 621//894
f 631//895 639//895 638//895
f 632//896 634//896 631//896
f 633//897 635//897 637//897
f 640//898 639//898 637//898
f 650//899 652//899 642//899
f 642//900 645//900 644//900
f 648//901 647//901 646//901
f 648//902 652//902 651//902
f 641//903 643//903 630//903
f 632//904 644//904 646//904
f 635//905 647//905 649//905
f 651//906 650//906 638//906
f 629//907 638//907 650//907
f 634//787 637//787 639//787
f 630//908 643//908 644//908
f 633//909 646//909 647//909
f 636//910 649//910 651//910
f 652//911 648//911 645//911
f 655//912 663//912 662//912
f 656//913 658//913 655//913
f 657//914 659//914 661//914
f 664//915 663//915 661//915
f 674//916 676//916 666//916
f 666//917 669//917 668//917
f 672//918 671//918 670//918
f 672//919 676//919 675//919
f 665//920 667//920 654//920
f 656//921 668//921 670//921
f 671//922 673//922 660//922
f 675//923 674//923 662//923
f 653//924 662//924 674//924
f 658//925 661//925 663//925
f 654//926 667//926 668//926
f 659//927 657//927 670//927
f 660//928 673//928 675//928
f 676//929 672//929 669//929
g C_Rachis.001_C_RachisCurve.001
v -1.068523 -0.122435 0.001852
v -1.043980 -0.180000 0.060200
v -1.031477 -0.237565 -0.001852
v -1.056020 -0.180000 -0.060200
v -0.666874 0.002320 -0.038315
v -0.650169 -0.051825 0.014969
v -0.633126 -0.102320 -0.041685
v -0.649831 -0.048175 -0.094969
v -0.194861 0.147192 0.021514
v -0.178221 0.098973 0.069457
v -0.165140 0.052808 0.018486
v -0.181779 0.101027 -0.029457
v 0.289718 0.288224 -0.068844
v 0.301753 0.249275 -0.030445
v 0.310282 0.211776 -0.071156
v 0.298247 0.250725 -0.109555
v 0.777832 0.386290 -0.018960
v 0.776132 0.358649 0.006080
v 0.782168 0.333710 -0.021040
v 0.783868 0.361351 -0.046080
v 1.180747 0.342052 0.060783
v 1.177585 0.329380 0.071840
v 1.179253 0.317949 0.059217
v 1.182415 0.330620 0.048160
vn -0.2934 0.9555 0.0297
vn 0.1122 0.0041 0.9937
vn 0.3189 -0.9473 -0.0315
vn -0.0869 0.0041 -0.9962
vn -0.2945 0.9555 -0.0180
vn 0.0092 -0.0295 0.9995
vn 0.3183 -0.9447 -0.0791
vn 0.0145 0.0365 -0.9992
vn -0.2826 0.9544 0.0968
vn 0.0489 -0.0143 0.9987
vn 0.3165 -0.9480 0.0351
vn -0.0218 0.0299 -0.9993
vn -0.2401 0.9701 -0.0348
vn 0.0630 0.0067 0.9980
vn 0.2786 -0.9561 -0.0909
vn -0.0269 0.0346 -0.9990
vn -0.0509 0.9984 0.0239
vn -0.1202 0.0162 0.9926
vn 0.1182 -0.9909 -0.0644
vn 0.1693 0.1184 -0.9784
vn 0.0953 0.9929 0.0706
vn -0.1654 -0.0521 0.9849
vn -0.0277 -0.9979 -0.0584
vn 0.2334 0.0505 -0.9711
vt 0.000000 1.000000
vt 0.200000 1.000000
vt 0.200000 0.750000
vt 0.000000 0.750000
vt 0.000000 0.250000
vt 0.200000 0.250000
vt 0.200000 0.000000
vt 0.000000 0.000000
vt 0.000000 0.500000
vt 0.200000 0.500000
vt 0.400000 1.000000
vt 0.400000 0.750000
vt 0.400000 0.250000
vt 0.400000 0.000000
vt 0.400000 0.500000
vt 0.600000 1.000000
vt 0.600000 0.750000
vt 0.600000 0.250000
vt 0.600000 0.000000
vt 0.600000 0.500000
vt 0.800000 1.000000
vt 0.800000 0.750000
vt 0.800000 0.250000
vt 0.800000 0.000000
vt 0.800000 0.500000
vt 1.000000 1.000000
vt 1.000000 0.750000
vt 1.000000 0.250000
vt 1.000000 0.000000
vt 1.000000 0.500000
s 1
g C_Rachis.001_ritual_gold
usemtl ritual_gold
f 677/1/930 681/2/934 684/3/937 680/4/933
f 678/5/931 682/6/935 681/7/934 677/8/930
f 679/9/932 683/10/936 682/6/935 678/5/931
f 680/4/933 684/3/937 683/10/936 679/9/932
f 681/2/934 685/11/938 688/12/941 684/3/937
f 682/6/935 686/13/939 685/14/938 681/7/934
f 683/10/936 687/15/940 686/13/939 682/6/935
f 684/3/937 688/12/941 687/15/940 683/10/936
f 685/11/938 689/16/942 692/17/945 688/12/941
f 686/13/939 690/18/943 689/19/942 685/14/938
f 687/15/940 691/20/944 690/18/943 686/13/939
f 688/12/941 692/17/945 691/20/944 687/15/940
f 689/16/942 693/21/946 696/22/949 692/17/945
f 690/18/943 694/23/947 693/24/946 689/19/942
f 691/20/944 695/25/948 694/23/947 690/18/943
f 692/17/945 696/22/949 695/25/948 691/20/944
f 693/21/946 697/26/950 700/27/953 696/22/949
f 694/23/947 698/28/951 697/29/950 693/24/946
f 695/25/948 699/30/952 698/28/951 694/23/947
f 696/22/949 700/27/953 699/30/952 695/25/948
g C_Rachis.001_Mesh
v -1.068523 -0.122435 0.001852
v -1.043980 -0.180000 0.060200
v -1.031477 -0.237565 -0.001852
v -1.056020 -0.180000 -0.060200
v -0.666874 0.002320 -0.038315
v -0.650169 -0.051825 0.014969
v -0.633126 -0.102320 -0.041685
v -0.649831 -0.048175 -0.094969
v -0.194861 0.147192 0.021514
v -0.178221 0.098973 0.069457
v -0.165140 0.052808 0.018486
v -0.181779 0.101027 -0.029457
v 0.289718 0.288224 -0.068844
v 0.301753 0.249275 -0.030445
v 0.310282 0.211776 -0.071156
v 0.298247 0.250725 -0.109555
v 0.777832 0.386290 -0.018960
v 0.776132 0.358649 0.006080
v 0.782168 0.333710 -0.021040
v 0.783868 0.361351 -0.046080
v 1.180747 0.342052 0.060783
v 1.177585 0.329380 0.071840
v 1.179253 0.317949 0.059217
v 1.182415 0.330620 0.048160
vn -0.2934 0.9555 0.0295
vn 0.1127 0.0043 0.9936
vn 0.3189 -0.9473 -0.0317
vn -0.0871 0.0040 -0.9962
vn -0.2945 0.9555 -0.0177
vn 0.0091 -0.0296 0.9995
vn 0.3183 -0.9447 -0.0789
vn 0.0146 0.0366 -0.9992
vn -0.2826 0.9544 0.0961
vn 0.0486 -0.0135 0.9987
vn 0.3165 -0.9479 0.0359
vn -0.0216 0.0293 -0.9993
vn -0.2404 0.9701 -0.0330
vn 0.0632 0.0044 0.9980
vn 0.2792 -0.9556 -0.0943
vn -0.0271 0.0374 -0.9989
vn -0.0507 0.9985 0.0218
vn -0.1204 0.0187 0.9925
vn 0.1179 -0.9911 -0.0612
vn 0.1699 0.1158 -0.9786
vn 0.0958 0.9928 0.0713
vn -0.1654 -0.0540 0.9847
vn -0.0279 -0.9979 -0.0578
vn 0.2333 0.0487 -0.9712
vt 0.200000 1.000000
vt 0.000000 0.750000
vt 0.000000 1.000000
vt 0.200000 0.250000
vt 0.000000 0.000000
vt 0.000000 0.250000
vt 0.000000 0.500000
vt 0.200000 0.500000
vt 0.400000 0.750000
vt 0.200000 0.750000
vt 0.400000 0.000000
vt 0.200000 0.000000
vt 0.400000 0.500000
vt 0.600000 1.000000
vt 0.400000 1.000000
vt 0.600000 0.250000
vt 0.400000 0.250000
vt 0.600000 0.500000
vt 0.800000 0.750000
vt 0.600000 0.750000
vt 0.800000 0.250000
vt 0.600000 0.000000
vt 0.800000 0.500000
vt 1.000000 1.000000
vt 0.800000 1.000000
vt 1.000000 0.000000
vt 0.800000 0.000000
vt 1.000000 0.250000
vt 1.000000 0.750000
vt 1.000000 0.500000
s 1
g C_Rachis.001_ritual_gold
usemtl ritual_gold
f 705/31/958 704/32/957 701/33/954
f 706/34/959 701/35/954 702/36/955
f 703/37/956 706/34/959 702/36/955
f 704/32/957 707/38/960 703/37/956
f 705/31/958 712/39/965 708/40/961
f 706/34/959 709/41/962 705/42/958
f 711/43/964 706/34/959 707/38/960
f 712/39/965 707/38/960 708/40/961
f 713/44/966 712/39/965 709/45/962
f 714/46/967 709/41/962 710/47/963
f 711/43/964 714/46/967 710/47/963
f 712/39/965 715/48/968 711/43/964
f 713/44/966 720/49/973 716/50/969
f 718/51/971 713/52/966 714/46/967
f 719/53/972 714/46/967 715/48/968
f 716/50/969 719/53/972 715/48/968
f 721/54/974 720/49/973 717/55/970
f 718/51/971 721/56/974 717/57/970
f 719/53/972 722/58/975 718/51/971
f 724/59/977 719/53/972 720/49/973
f 705/31/958 708/40/961 704/32/957
f 706/34/959 705/42/958 701/35/954
f 703/37/956 707/38/960 706/34/959
f 704/32/957 708/40/961 707/38/960
f 705/31/958 709/45/962 712/39/965
f 706/34/959 710/47/963 709/41/962
f 711/43/964 710/47/963 706/34/959
f 712/39/965 711/43/964 707/38/960
f 713/44/966 716/50/969 712/39/965
f 714/46/967 713/52/966 709/41/962
f 711/43/964 715/48/968 714/46/967
f 712/39/965 716/50/969 715/48/968
f 713/44/966 717/55/970 720/49/973
f 718/51/971 717/57/970 713/52/966
f 719/53/972 718/51/971 714/46/967
f 716/50/969 720/49/973 719/53/972
f 721/54/974 724/59/977 720/49/973
f 718/51/971 722/58/975 721/56/974
f 719/53/972 723/60/976 722/58/975
f 724/59/977 723/60/976 719/53/972
