# Blender 5.0.1
# www.blender.org
mtllib study_fabricated_mask.mtl
g B_BrowPlate.001_Mesh
v -0.552322 0.085000 -0.417678
v -0.545000 0.085000 -0.400000
v -0.509645 0.110000 -0.425000
v 0.545000 0.085000 -0.400000
v 0.552322 0.085000 -0.417678
v 0.509645 0.110000 -0.425000
v 0.447678 0.085000 -0.522322
v 0.405000 0.085000 -0.540000
v 0.419645 0.110000 -0.515000
v -0.447678 0.085000 -0.522322
v -0.419645 0.110000 -0.515000
v -0.405000 0.085000 -0.540000
v -0.552322 -0.025000 -0.417678
v -0.509645 -0.050000 -0.425000
v -0.545000 -0.025000 -0.400000
v 0.545000 -0.025000 -0.400000
v 0.509645 -0.050000 -0.425000
v 0.552322 -0.025000 -0.417678
v 0.447678 -0.025000 -0.522322
v 0.419645 -0.050000 -0.515000
v 0.405000 -0.025000 -0.540000
v -0.447678 -0.025000 -0.522322
v -0.405000 -0.025000 -0.540000
v -0.419645 -0.050000 -0.515000
vn -0.4706 0.8605 0.1949
vn 0.4706 0.8605 0.1949
vn 0.3135 0.5733 -0.7570
vn -0.3135 0.5733 -0.7570
vn -0.4706 -0.8605 0.1949
vn 0.4706 -0.8605 0.1949
vn 0.3135 -0.5733 -0.7570
vn -0.3135 -0.5733 -0.7570
vn -0.5000 0.7071 -0.5000
vn -0.0000 0.7071 0.7071
vn 0.5000 0.7071 -0.5000
vn -0.0000 0.7071 -0.7071
vn -0.5000 -0.7071 -0.5000
vn -0.0000 -0.7071 0.7071
vn 0.5000 -0.7071 -0.5000
vn -0.0000 -0.7071 -0.7071
vn -0.9239 -0.0000 0.3827
vn 0.9239 -0.0000 0.3827
vn 0.3827 -0.0000 -0.9239
vn -0.3827 -0.0000 -0.9239
vn -0.7071 -0.0000 -0.7071
vn -0.0000 1.0000 -0.0000
vn -0.0000 -0.0000 1.0000
vn 0.7071 -0.0000 -0.7071
vn -0.0000 -0.0000 -1.0000
vn -0.0000 -1.0000 -0.0000
s 0
g B_BrowPlate.001_ritual_gold
usemtl ritual_gold
f 1//1 2//1 3//1
f 4//2 5//2 6//2
f 7//3 8//3 9//3
f 10//4 11//4 12//4
f 13//5 14//5 15//5
f 16//6 17//6 18//6
f 19//7 20//7 21//7
f 22//8 23//8 24//8
f 3//9 10//9 1//9
f 4//10 3//10 2//10
f 7//11 6//11 5//11
f 12//12 9//12 8//12
f 22//13 14//13 13//13
f 17//14 15//14 14//14
f 17//15 19//15 18//15
f 24//16 21//16 20//16
f 13//17 2//17 1//17
f 16//18 5//18 4//18
f 19//19 8//19 7//19
f 23//20 10//20 12//20
f 10//21 13//21 1//21
f 6//22 11//22 3//22
f 2//23 16//23 4//23
f 5//24 19//24 7//24
f 8//25 23//25 12//25
f 14//26 20//26 17//26
f 3//9 11//9 10//9
f 4//10 6//10 3//10
f 7//11 9//11 6//11
f 12//12 11//12 9//12
f 22//13 24//13 14//13
f 17//14 16//14 15//14
f 17//15 20//15 19//15
f 24//16 23//16 21//16
f 13//17 15//17 2//17
f 16//18 18//18 5//18
f 19//19 21//19 8//19
f 23//20 22//20 10//20
f 10//21 22//21 13//21
f 6//22 9//22 11//22
f 2//23 15//23 16//23
f 5//24 18//24 19//24
f 8//25 21//25 23//25
f 14//26 24//26 20//26
g B_MaskShell.001_Mesh
v -0.795508 -0.030000 0.205003
v -0.811120 -0.030000 0.146145
v -0.781110 -0.065000 0.169684
v -0.668880 -0.030000 -0.396145
v -0.629815 -0.030000 -0.447717
v -0.629814 -0.065000 -0.407134
v -0.230185 -0.030000 -0.682283
v -0.165000 -0.030000 -0.700000
v -0.190487 -0.065000 -0.665000
v 0.165000 -0.030000 -0.700000
v 0.230185 -0.030000 -0.682283
v 0.190487 -0.065000 -0.665000
v 0.629815 -0.030000 -0.447717
v 0.668880 -0.030000 -0.396145
v 0.629814 -0.065000 -0.407134
v 0.811120 -0.030000 0.146145
v 0.795508 -0.030000 0.205003
v 0.781110 -0.065000 0.169684
v 0.364492 -0.030000 0.644997
v 0.305000 -0.030000 0.670000
v 0.325291 -0.065000 0.635000
v -0.364492 -0.030000 0.644997
v -0.325291 -0.065000 0.635000
v -0.305000 -0.030000 0.670000
v -0.795508 0.030000 0.205003
v -0.781110 0.065000 0.169684
v -0.811120 0.030000 0.146145
v -0.668880 0.030000 -0.396145
v -0.629814 0.065000 -0.407134
v -0.629815 0.030000 -0.447717
v -0.230185 0.030000 -0.682283
v -0.190487 0.065000 -0.665000
v -0.165000 0.030000 -0.700000
v 0.165000 0.030000 -0.700000
v 0.190487 0.065000 -0.665000
v 0.230185 0.030000 -0.682283
v 0.629815 0.030000 -0.447717
v 0.629814 0.065000 -0.407134
v 0.668880 0.030000 -0.396145
v 0.811120 0.030000 0.146145
v 0.781110 0.065000 0.169684
v 0.795508 0.030000 0.205003
v 0.364492 0.030000 0.644997
v 0.325291 0.065000 0.635000
v 0.305000 0.030000 0.670000
v -0.364492 0.030000 0.644997
v -0.305000 0.030000 0.670000
v -0.325291 0.065000 0.635000
v -0.630000 -0.065000 -0.150000
v -0.495000 -0.065000 0.083827
v -0.593827 -0.065000 -0.015000
v -0.553590 -0.065000 -0.325237
v -0.593827 -0.065000 -0.285000
v -0.495000 -0.065000 -0.383827
v -0.360000 -0.065000 0.120000
v -0.360000 -0.065000 -0.420000
v -0.225000 -0.065000 0.083827
v -0.225000 -0.065000 -0.383827
v -0.090000 -0.065000 -0.150000
v -0.126173 -0.065000 -0.015000
v -0.126173 -0.065000 -0.285000
v -0.630000 0.065000 -0.150000
v -0.495000 0.065000 0.083827
v -0.593827 0.065000 -0.015000
v -0.535237 0.065000 -0.343590
v -0.593827 0.065000 -0.285000
v -0.225000 0.065000 0.083827
v -0.090000 0.065000 -0.150000
v -0.126173 0.065000 -0.015000
v -0.360000 0.065000 0.120000
v -0.495000 0.065000 -0.383827
v -0.360000 0.065000 -0.420000
v -0.126173 0.065000 -0.285000
v -0.225000 0.065000 -0.383827
v 0.535237 -0.065000 -0.343590
v 0.495000 -0.065000 -0.383827
v 0.630000 -0.065000 -0.150000
v 0.593827 -0.065000 -0.285000
v 0.126173 -0.065000 -0.015000
v 0.090000 -0.065000 -0.150000
v 0.225000 -0.065000 -0.383827
v 0.126173 -0.065000 -0.285000
v 0.225000 -0.065000 0.083827
v 0.360000 -0.065000 -0.420000
v 0.495000 -0.065000 0.083827
v 0.593827 -0.065000 -0.015000
v 0.360000 -0.065000 0.120000
v 0.495000 0.065000 0.083827
v 0.630000 0.065000 -0.150000
v 0.593827 0.065000 -0.015000
v 0.126173 0.065000 -0.015000
v 0.090000 0.065000 -0.150000
v 0.225000 0.065000 0.083827
v 0.126173 0.065000 -0.285000
v 0.225000 0.065000 -0.383827
v 0.360000 0.065000 0.120000
v 0.360000 0.065000 -0.420000
v 0.593827 0.065000 -0.285000
v 0.553590 0.065000 -0.325237
v 0.495000 0.065000 -0.383827
vn -0.8081 -0.5487 0.2143
vn -0.6530 -0.5735 -0.4946
vn -0.2074 -0.6121 -0.7631
vn 0.2074 -0.6121 -0.7631
vn 0.6530 -0.5735 -0.4946
vn 0.8081 -0.5487 0.2143
vn 0.3178 -0.5720 0.7562
vn -0.3178 -0.5720 0.7562
vn -0.8081 0.5487 0.2143
vn -0.6530 0.5735 -0.4946
vn -0.2074 0.6121 -0.7631
vn 0.2074 0.6121 -0.7631
vn 0.6530 0.5735 -0.4946
vn 0.8081 0.5487 0.2143
vn 0.3178 0.5720 0.7562
vn -0.3178 0.5720 0.7562
vn -0.5051 -0.7071 0.4948
vn -0.6840 -0.7071 -0.1794
vn -0.3579 -0.7071 -0.6098
vn -0.0000 -0.7071 -0.7071
vn 0.3579 -0.7071 -0.6098
vn 0.6840 -0.7071 -0.1794
vn 0.5051 -0.7071 0.4948
vn -0.0000 -0.7071 0.7071
vn -0.5051 0.7071 0.4948
vn -0.6840 0.7071 -0.1794
vn -0.3579 0.7071 -0.6098
vn -0.0000 0.7071 -0.7071
vn 0.3579 0.7071 -0.6098
vn 0.6840 0.7071 -0.1794
vn 0.5051 0.7071 0.4948
vn -0.0000 0.7071 0.7071
vn -0.9666 -0.0000 0.2564
vn -0.7971 -0.0000 -0.6038
vn -0.2623 -0.0000 -0.9650
vn 0.2623 -0.0000 -0.9650
vn 0.7971 -0.0000 -0.6038
vn 0.9666 -0.0000 0.2564
vn 0.3874 -0.0000 0.9219
vn -0.3874 -0.0000 0.9219
vn -0.7144 -0.0000 0.6998
vn -0.0000 -1.0000 -0.0000
vn -0.9673 -0.0000 -0.2537
vn -0.5062 -0.0000 -0.8624
vn -0.0000 -0.0000 -1.0000
vn 0.5062 -0.0000 -0.8624
vn 0.9673 -0.0000 -0.2537
vn 0.7144 -0.0000 0.6998
vn -0.0000 -0.0000 1.0000
vn -0.0000 1.0000 -0.0000
vn -0.2588 -0.0000 0.9659
vn -0.7071 -0.0000 0.7071
vn -0.9659 -0.0000 0.2588
vn -0.9659 -0.0000 -0.2588
vn -0.7071 -0.0000 -0.7071
vn -0.2588 -0.0000 -0.9659
vn 0.2588 -0.0000 -0.9659
vn 0.7071 -0.0000 -0.7071
vn 0.9659 -0.0000 -0.2588
vn 0.9659 -0.0000 0.2588
vn 0.7071 -0.0000 0.7071
vn 0.2588 -0.0000 0.9659
vt 0.000000 0.000000
vt 1.000000 0.703571
vt 0.916667 0.796429
vt 1.000000 0.796429
vt 0.916667 0.703571
vt 0.833333 0.796429
vt 0.750000 0.703571
vt 0.833333 0.703571
vt 0.666667 0.703571
vt 0.750000 0.796429
vt 0.583333 0.703571
vt 0.666667 0.796429
vt 0.500000 0.703571
vt 0.583333 0.796429
vt 0.416667 0.703571
vt 0.500000 0.796429
vt 0.333333 0.703571
vt 0.416667 0.796429
vt 0.250000 0.796429
vt 0.333333 0.796429
vt 0.250000 0.703571
vt 0.166667 0.796429
vt 0.117262 0.796429
vt 0.132738 0.703571
vt 0.083333 0.796429
vt 0.083333 0.703571
vt 0.000000 0.796429
vt 0.882738 0.703571
vt 0.867262 0.796429
vt 0.166667 0.703571
vt 0.000000 0.703571
s 0
g B_MaskShell.001_wrought_iron
usemtl wrought_iron
f 25/1/27 26/1/27 27/1/27
f 28/1/28 29/1/28 30/1/28
f 31/1/29 32/1/29 33/1/29
f 34/1/30 35/1/30 36/1/30
f 37/1/31 38/1/31 39/1/31
f 40/1/32 41/1/32 42/1/32
f 43/1/33 44/1/33 45/1/33
f 46/1/34 47/1/34 48/1/34
f 49/1/35 50/1/35 51/1/35
f 52/1/36 53/1/36 54/1/36
f 55/1/37 56/1/37 57/1/37
f 58/1/38 59/1/38 60/1/38
f 61/1/39 62/1/39 63/1/39
f 64/1/40 65/1/40 66/1/40
f 67/1/41 68/1/41 69/1/41
f 70/1/42 71/1/42 72/1/42
f 27/1/43 46/1/43 25/1/43
f 28/1/44 27/1/44 26/1/44
f 31/1/45 30/1/45 29/1/45
f 34/1/46 33/1/46 32/1/46
f 35/1/47 39/1/47 36/1/47
f 38/1/48 42/1/48 39/1/48
f 43/1/49 42/1/49 41/1/49
f 48/1/50 45/1/50 44/1/50
f 70/1/51 50/1/51 49/1/51
f 50/1/52 52/1/52 51/1/52
f 53/1/53 55/1/53 54/1/53
f 59/1/54 57/1/54 56/1/54
f 62/1/55 60/1/55 59/1/55
f 65/1/56 63/1/56 62/1/56
f 65/1/57 67/1/57 66/1/57
f 72/1/58 69/1/58 68/1/58
f 49/1/59 26/1/59 25/1/59
f 52/1/60 29/1/60 28/1/60
f 55/1/61 32/1/61 31/1/61
f 58/1/62 35/1/62 34/1/62
f 61/1/63 38/1/63 37/1/63
f 64/1/64 41/1/64 40/1/64
f 67/1/65 44/1/65 43/1/65
f 71/1/66 46/1/66 48/1/66
f 46/1/67 49/1/67 25/1/67
f 27/1/68 30/1/68 77/1/68
f 111/1/68 47/1/68 79/1/68
f 39/1/68 42/1/68 101/1/68
f 26/1/69 52/1/69 28/1/69
f 29/1/70 55/1/70 31/1/70
f 32/1/71 58/1/71 34/1/71
f 35/1/72 61/1/72 37/1/72
f 38/1/73 64/1/73 40/1/73
f 41/1/74 67/1/74 43/1/74
f 44/1/75 71/1/75 48/1/75
f 65/1/76 62/1/76 113/1/76
f 94/1/76 68/1/76 120/1/76
f 53/1/76 50/1/76 86/1/76
f 80/2/77 98/3/77 96/4/77
f 82/5/78 97/6/78 98/3/78
f 83/7/79 97/6/79 85/8/79
f 84/9/80 92/10/80 83/7/80
f 81/11/81 93/12/81 84/9/81
f 79/13/82 91/14/82 81/11/82
f 74/15/83 94/16/83 79/13/83
f 75/17/84 87/18/84 74/15/84
f 75/17/85 86/19/85 88/20/85
f 73/21/86 90/22/86 86/19/86
f 89/23/87 76/24/87 95/25/87
f 78/26/88 96/27/88 95/25/88
f 108/2/77 124/3/77 121/4/77
f 99/28/78 122/6/78 123/29/78
f 101/7/79 122/6/79 102/8/79
f 110/9/80 113/10/80 101/7/80
f 109/11/81 114/12/81 110/9/81
f 111/13/82 112/14/82 109/11/82
f 107/15/83 120/16/83 111/13/83
f 103/17/84 117/18/84 107/15/84
f 103/17/85 116/19/85 115/20/85
f 104/21/86 118/22/86 116/19/86
f 106/30/87 119/25/87 118/22/87
f 105/26/88 121/27/88 119/25/88
f 27/1/43 47/1/43 46/1/43
f 28/1/44 30/1/44 27/1/44
f 31/1/45 33/1/45 30/1/45
f 34/1/46 36/1/46 33/1/46
f 35/1/47 37/1/47 39/1/47
f 38/1/48 40/1/48 42/1/48
f 43/1/49 45/1/49 42/1/49
f 48/1/50 47/1/50 45/1/50
f 70/1/51 72/1/51 50/1/51
f 50/1/52 53/1/52 52/1/52
f 53/1/53 56/1/53 55/1/53
f 59/1/54 58/1/54 57/1/54
f 62/1/55 61/1/55 60/1/55
f 65/1/56 64/1/56 63/1/56
f 65/1/57 68/1/57 67/1/57
f 72/1/58 71/1/58 69/1/58
f 49/1/59 51/1/59 26/1/59
f 52/1/60 54/1/60 29/1/60
f 55/1/61 57/1/61 32/1/61
f 58/1/62 60/1/62 35/1/62
f 61/1/63 63/1/63 38/1/63
f 64/1/64 66/1/64 41/1/64
f 67/1/65 69/1/65 44/1/65
f 71/1/66 70/1/66 46/1/66
f 46/1/67 70/1/67 49/1/67
f 73/1/68 75/1/68 27/1/68
f 30/1/68 76/1/68 77/1/68
f 77/1/68 73/1/68 27/1/68
f 78/1/68 76/1/68 30/1/68
f 30/1/68 33/1/68 36/1/68
f 39/1/68 99/1/68 100/1/68
f 39/1/68 100/1/68 108/1/68
f 78/1/68 30/1/68 36/1/68
f 80/1/68 78/1/68 36/1/68
f 36/1/68 39/1/68 108/1/68
f 36/1/68 108/1/68 105/1/68
f 82/1/68 80/1/68 36/1/68
f 85/1/68 82/1/68 36/1/68
f 36/1/68 105/1/68 106/1/68
f 36/1/68 106/1/68 104/1/68
f 83/1/68 85/1/68 36/1/68
f 84/1/68 83/1/68 36/1/68
f 84/1/68 36/1/68 104/1/68
f 81/1/68 84/1/68 104/1/68
f 81/1/68 104/1/68 103/1/68
f 81/1/68 103/1/68 107/1/68
f 81/1/68 107/1/68 111/1/68
f 79/1/68 81/1/68 111/1/68
f 109/1/68 110/1/68 42/1/68
f 111/1/68 109/1/68 42/1/68
f 42/1/68 45/1/68 47/1/68
f 47/1/68 27/1/68 75/1/68
f 47/1/68 75/1/68 74/1/68
f 111/1/68 42/1/68 47/1/68
f 47/1/68 74/1/68 79/1/68
f 102/1/68 99/1/68 39/1/68
f 42/1/68 110/1/68 101/1/68
f 101/1/68 102/1/68 39/1/68
f 26/1/69 51/1/69 52/1/69
f 29/1/70 54/1/70 55/1/70
f 32/1/71 57/1/71 58/1/71
f 35/1/72 60/1/72 61/1/72
f 38/1/73 63/1/73 64/1/73
f 41/1/74 66/1/74 67/1/74
f 44/1/75 69/1/75 71/1/75
f 62/1/76 123/1/76 122/1/76
f 113/1/76 114/1/76 65/1/76
f 62/1/76 122/1/76 113/1/76
f 124/1/76 123/1/76 62/1/76
f 62/1/76 59/1/76 56/1/76
f 53/1/76 89/1/76 95/1/76
f 53/1/76 95/1/76 96/1/76
f 124/1/76 62/1/76 56/1/76
f 121/1/76 124/1/76 56/1/76
f 56/1/76 53/1/76 96/1/76
f 56/1/76 96/1/76 98/1/76
f 119/1/76 121/1/76 56/1/76
f 118/1/76 119/1/76 56/1/76
f 56/1/76 98/1/76 97/1/76
f 56/1/76 97/1/76 92/1/76
f 116/1/76 118/1/76 56/1/76
f 115/1/76 116/1/76 56/1/76
f 115/1/76 56/1/76 92/1/76
f 117/1/76 115/1/76 92/1/76
f 117/1/76 92/1/76 93/1/76
f 117/1/76 93/1/76 91/1/76
f 117/1/76 91/1/76 94/1/76
f 120/1/76 117/1/76 94/1/76
f 87/1/76 88/1/76 50/1/76
f 94/1/76 87/1/76 50/1/76
f 50/1/76 72/1/76 68/1/76
f 68/1/76 65/1/76 114/1/76
f 68/1/76 114/1/76 112/1/76
f 94/1/76 50/1/76 68/1/76
f 68/1/76 112/1/76 120/1/76
f 90/1/76 89/1/76 53/1/76
f 50/1/76 88/1/76 86/1/76
f 86/1/76 90/1/76 53/1/76
f 80/2/77 82/5/77 98/3/77
f 82/5/78 85/8/78 97/6/78
f 83/7/79 92/10/79 97/6/79
f 84/9/80 93/12/80 92/10/80
f 81/11/81 91/14/81 93/12/81
f 79/13/82 94/16/82 91/14/82
f 74/15/83 87/18/83 94/16/83
f 75/17/84 88/20/84 87/18/84
f 75/17/85 73/21/85 86/19/85
f 73/21/86 77/30/86 90/22/86
f 89/23/87 90/22/87 77/30/87
f 76/24/87 78/26/87 95/25/87
f 89/23/87 77/30/87 76/24/87
f 78/26/88 80/31/88 96/27/88
f 108/2/77 100/5/77 124/3/77
f 123/29/78 124/3/78 100/5/78
f 99/28/78 102/8/78 122/6/78
f 123/29/78 100/5/78 99/28/78
f 101/7/79 113/10/79 122/6/79
f 110/9/80 114/12/80 113/10/80
f 109/11/81 112/14/81 114/12/81
f 111/13/82 120/16/82 112/14/82
f 107/15/83 117/18/83 120/16/83
f 103/17/84 115/20/84 117/18/84
f 103/17/85 104/21/85 116/19/85
f 104/21/86 106/30/86 118/22/86
f 106/30/87 105/26/87 119/25/87
f 105/26/88 108/31/88 121/27/88
