# Blender 5.0.1
# www.blender.org
mtllib study_curve_fang.mtl
g C_FangPath.001_C_FangPathCurve.001
v -0.418589 -0.804575 0.074928
v -0.172834 -0.850000 0.173624
v -0.081411 -0.895425 -0.074928
v -0.327166 -0.850000 -0.173624
v -0.315359 -0.389601 0.029253
v -0.087692 -0.453592 0.125345
v -0.004641 -0.510399 -0.109253
v -0.232308 -0.446408 -0.205345
v -0.105290 0.022014 -0.041776
v 0.072532 -0.075401 0.044460
v 0.145290 -0.122014 -0.158224
v -0.032532 -0.024599 -0.244460
v 0.179983 0.374880 -0.016881
v 0.308753 0.290938 0.047351
v 0.380017 0.285120 -0.103119
v 0.251247 0.369063 -0.167351
v 0.350202 0.664567 0.067650
v 0.438467 0.649333 0.116668
v 0.489798 0.675433 0.032350
v 0.401533 0.690667 -0.016668
v 0.294592 0.932998 0.132447
v 0.314038 0.936813 0.146308
v 0.325408 0.947002 0.127553
v 0.305962 0.943187 0.113692
vn -0.8819 0.2620 0.3919
vn 0.4120 0.0235 0.9109
vn 0.8926 -0.2150 -0.3963
vn -0.4004 0.0233 -0.9160
vn -0.8512 0.3696 0.3727
vn 0.3755 0.0331 0.9262
vn 0.8694 -0.2935 -0.3974
vn -0.4256 0.0712 -0.9021
vn -0.7881 0.5273 0.3175
vn 0.3553 -0.0870 0.9307
vn 0.8139 -0.3886 -0.4319
vn -0.3204 0.2257 -0.9200
vn -0.8001 0.4831 0.3556
vn 0.3420 -0.2601 0.9030
vn 0.8824 -0.2913 -0.3695
vn -0.1541 0.3929 -0.9066
vn -0.9345 0.0778 0.3472
vn 0.3886 -0.1415 0.9105
vn 0.9700 0.1734 -0.1706
vn -0.0798 0.4335 -0.8976
vn -0.9502 -0.2440 0.1938
vn 0.1949 -0.0184 0.9806
vn 0.8352 0.5427 -0.0894
vn -0.2759 0.3528 -0.8941
vt 0.000000 1.000000
vt 0.200000 1.000000
vt 0.200000 0.750000
vt 0.000000 0.750000
vt 0.000000 0.250000
vt 0.200000 0.250000
vt 0.200000 0.000000
vt 0.000000 0.000000
vt 0.000000 0.500000
vt 0.200000 0.500000
vt 0.400000 1.000000
vt 0.400000 0.750000
vt 0.400000 0.250000
vt 0.400000 0.000000
vt 0.400000 0.500000
vt 0.600000 1.000000
vt 0.600000 0.750000
vt 0.600000 0.250000
vt 0.600000 0.000000
vt 0.600000 0.500000
vt 0.800000 1.000000
vt 0.800000 0.750000
vt 0.800000 0.250000
vt 0.800000 0.000000
vt 0.800000 0.500000
vt 1.000000 1.000000
vt 1.000000 0.750000
vt 1.000000 0.250000
vt 1.000000 0.000000
vt 1.000000 0.500000
s 1
g C_FangPath.001_bone
usemtl bone
f 1/1/1 5/2/5 8/3/8 4/4/4
f 2/5/2 6/6/6 5/7/5 1/8/1
f 3/9/3 7/10/7 6/6/6 2/5/2
f 4/4/4 8/3/8 7/10/7 3/9/3
f 5/2/5 9/11/9 12/12/12 8/3/8
f 6/6/6 10/13/10 9/14/9 5/7/5
f 7/10/7 11/15/11 10/13/10 6/6/6
f 8/3/8 12/12/12 11/15/11 7/10/7
f 9/11/9 13/16/13 16/17/16 12/12/12
f 10/13/10 14/18/14 13/19/13 9/14/9
f 11/15/11 15/20/15 14/18/14 10/13/10
f 12/12/12 16/17/16 15/20/15 11/15/11
f 13/16/13 17/21/17 20/22/20 16/17/16
f 14/18/14 18/23/18 17/24/17 13/19/13
f 15/20/15 19/25/19 18/23/18 14/18/14
f 16/17/16 20/22/20 19/25/19 15/20/15
f 17/21/17 21/26/21 24/27/24 20/22/20
f 18/23/18 22/28/22 21/29/21 17/24/17
f 19/25/19 23/30/23 22/28/22 18/23/18
f 20/22/20 24/27/24 23/30/23 19/25/19
g C_FangPath.001_Mesh
v -0.418589 -0.804575 0.074928
v -0.172834 -0.850000 0.173624
v -0.081411 -0.895425 -0.074928
v -0.327166 -0.850000 -0.173624
v -0.315359 -0.389601 0.029253
v -0.087692 -0.453592 0.125345
v -0.004641 -0.510399 -0.109253
v -0.232308 -0.446408 -0.205345
v -0.105290 0.022014 -0.041776
v 0.072532 -0.075401 0.044460
v 0.145290 -0.122014 -0.158224
v -0.032532 -0.024599 -0.244460
v 0.179983 0.374880 -0.016881
v 0.308753 0.290938 0.047351
v 0.380017 0.285120 -0.103119
v 0.251247 0.369063 -0.167351
v 0.350202 0.664567 0.067650
v 0.438467 0.649333 0.116668
v 0.489798 0.675433 0.032350
v 0.401533 0.690667 -0.016668
v 0.294592 0.932998 0.132447
v 0.314038 0.936813 0.146308
v 0.325408 0.947002 0.127553
v 0.305962 0.943187 0.113692
vn -0.8820 0.2618 0.3919
vn 0.4120 0.0234 0.9109
vn 0.8929 -0.2134 -0.3966
vn -0.4004 0.0232 -0.9161
vn -0.8512 0.3705 0.3718
vn 0.3744 0.0359 0.9266
vn 0.8695 -0.2942 -0.3968
vn -0.4253 0.0706 -0.9023
vn -0.7880 0.5281 0.3165
vn 0.3547 -0.0883 0.9308
vn 0.8138 -0.3887 -0.4319
vn -0.3191 0.2263 -0.9203
vn -0.7960 0.4892 0.3564
vn 0.3437 -0.2603 0.9023
vn 0.8829 -0.2914 -0.3681
vn -0.1520 0.3944 -0.9063
vn -0.9347 0.0739 0.3478
vn 0.3882 -0.1401 0.9109
vn 0.9687 0.1754 -0.1758
vn -0.0892 0.4332 -0.8969
vn -0.9523 -0.2422 0.1859
vn 0.1716 -0.0245 0.9849
vn 0.8254 0.5572 -0.0909
vn -0.3009 0.3437 -0.8895
vt 0.000000 1.000000
vt 0.200000 0.750000
vt 0.000000 0.750000
vt 0.200000 0.250000
vt 0.000000 0.000000
vt 0.000000 0.250000
vt 0.200000 0.500000
vt 0.000000 0.500000
vt 0.400000 1.000000
vt 0.200000 1.000000
vt 0.400000 0.250000
vt 0.200000 0.000000
vt 0.400000 0.500000
vt 0.600000 1.000000
vt 0.400000 0.750000
vt 0.600000 0.000000
vt 0.400000 0.000000
vt 0.600000 0.250000
vt 0.600000 0.750000
vt 0.800000 1.000000
vt 0.800000 0.000000
vt 0.600000 0.500000
vt 0.800000 0.250000
vt 0.800000 0.750000
vt 1.000000 0.750000
vt 1.000000 0.250000
vt 1.000000 0.500000
vt 0.800000 0.500000
vt 1.000000 1.000000
vt 1.000000 0.000000
s 1
g C_FangPath.001_bone
usemtl bone
f 25/31/25 32/32/32 28/33/28
f 30/34/30 25/35/25 26/36/26
f 31/37/31 26/36/26 27/38/27
f 28/33/28 31/37/31 27/38/27
f 33/39/33 32/32/32 29/40/29
f 34/41/34 29/42/29 30/34/30
f 31/37/31 34/41/34 30/34/30
f 32/32/32 35/43/35 31/37/31
f 37/44/37 36/45/36 33/39/33
f 34/41/34 37/46/37 33/47/33
f 35/43/35 38/48/38 34/41/34
f 40/49/40 35/43/35 36/45/36
f 41/50/41 40/49/40 37/44/37
f 38/48/38 41/51/41 37/46/37
f 39/52/39 42/53/42 38/48/38
f 44/54/44 39/52/39 40/49/40
f 41/50/41 48/55/48 44/54/44
f 46/56/46 41/51/41 42/53/42
f 47/57/47 42/53/42 43/58/43
f 44/54/44 47/57/47 43/58/43
f 25/31/25 29/40/29 32/32/32
f 30/34/30 29/42/29 25/35/25
f 31/37/31 30/34/30 26/36/26
f 28/33/28 32/32/32 31/37/31
f 33/39/33 36/45/36 32/32/32
f 34/41/34 33/47/33 29/42/29
f 31/37/31 35/43/35 34/41/34
f 32/32/32 36/45/36 35/43/35
f 37/44/37 40/49/40 36/45/36
f 34/41/34 38/48/38 37/46/37
f 35/43/35 39/52/39 38/48/38
f 40/49/40 39/52/39 35/43/35
f 41/50/41 44/54/44 40/49/40
f 38/48/38 42/53/42 41/51/41
f 39/52/39 43/58/43 42/53/42
f 44/54/44 43/58/43 39/52/39
f 41/50/41 45/59/45 48/55/48
f 46/56/46 45/60/45 41/51/41
f 47/57/47 46/56/46 42/53/42
f 44/54/44 48/55/48 47/57/47
g C_GoldScar.001_C_GoldScarCurve.001
v 0.032004 0.197042 0.156728
v 0.045528 0.180000 0.184597
v 0.067996 0.162958 0.163272
v 0.054472 0.180000 0.135403
v 0.143068 0.314505 0.176969
v 0.157210 0.301400 0.202282
v 0.176932 0.285495 0.183031
v 0.162790 0.298600 0.157718
v 0.257263 0.449852 0.167820
v 0.268841 0.442059 0.186077
v 0.282737 0.430148 0.172180
v 0.271159 0.437941 0.153923
vn -0.7092 0.6930 -0.1294
vn -0.1685 0.0114 0.9856
vn 0.7302 -0.6702 0.1326
vn 0.1891 0.0117 -0.9819
vn -0.7399 0.6659 -0.0957
vn -0.0928 0.0670 0.9934
vn 0.7631 -0.6233 0.1708
vn 0.1584 -0.0574 -0.9857
vn -0.7619 0.6334 -0.1353
vn -0.0495 0.1533 0.9869
vn 0.8047 -0.5786 0.1331
vn 0.0931 -0.0995 -0.9907
vt 0.000000 1.000000
vt 0.500000 1.000000
vt 0.500000 0.750000
vt 0.000000 0.750000
vt 0.000000 0.250000
vt 0.500000 0.250000
vt 0.500000 0.000000
vt 0.000000 0.000000
vt 0.000000 0.500000
vt 0.500000 0.500000
vt 1.000000 1.000000
vt 1.000000 0.750000
vt 1.000000 0.250000
vt 1.000000 0.000000
vt 1.000000 0.500000
s 1
g C_GoldScar.001_ritual_gold
usemtl ritual_gold
f 49/61/49 53/62/53 56/63/56 52/64/52
f 50/65/50 54/66/54 53/67/53 49/68/49
f 51/69/51 55/70/55 54/66/54 50/65/50
f 52/64/52 56/63/56 55/70/55 51/69/51
f 53/62/53 57/71/57 60/72/60 56/63/56
f 54/66/54 58/73/58 57/74/57 53/67/53
f 55/70/55 59/75/59 58/73/58 54/66/54
f 56/63/56 60/72/60 59/75/59 55/70/55
g C_GoldScar.001_Mesh
v 0.032004 0.197042 0.156728
v 0.045528 0.180000 0.184597
v 0.067996 0.162958 0.163272
v 0.054472 0.180000 0.135403
v 0.143068 0.314505 0.176969
v 0.157210 0.301400 0.202282
v 0.176932 0.285495 0.183031
v 0.162790 0.298600 0.157718
v 0.257263 0.449852 0.167820
v 0.268841 0.442059 0.186077
v 0.282737 0.430148 0.172180
v 0.271159 0.437941 0.153923
vn -0.7092 0.6931 -0.1291
vn -0.1685 0.0112 0.9856
vn 0.7302 -0.6702 0.1328
vn 0.1894 0.0117 -0.9818
vn -0.7399 0.6659 -0.0956
vn -0.0928 0.0670 0.9934
vn 0.7631 -0.6233 0.1709
vn 0.1585 -0.0575 -0.9857
vn -0.7617 0.6334 -0.1362
vn -0.0496 0.1538 0.9869
vn 0.8048 -0.5786 0.1323
vn 0.0927 -0.0991 -0.9907
vt 0.000000 1.000000
vt 0.500000 0.750000
vt 0.000000 0.750000
vt 0.000000 0.250000
vt 0.500000 0.000000
vt 0.000000 0.000000
vt 0.500000 0.500000
vt 0.000000 0.500000
vt 1.000000 1.000000
vt 0.500000 1.000000
vt 1.000000 0.250000
vt 0.500000 0.250000
vt 1.000000 0.500000
vt 1.000000 0.750000
vt 1.000000 0.000000
s 1
g C_GoldScar.001_ritual_gold
usemtl ritual_gold
f 61/76/61 68/77/68 64/78/64
f 62/79/62 65/80/65 61/81/61
f 67/82/67 62/79/62 63/83/63
f 68/77/68 63/83/63 64/78/64
f 69/84/69 68/77/68 65/85/65
f 70/86/70 65/80/65 66/87/66
f 67/82/67 70/86/70 66/87/66
f 68/77/68 71/88/71 67/82/67
f 61/76/61 65/85/65 68/77/68
f 62/79/62 66/87/66 65/80/65
f 67/82/67 66/87/66 62/79/62
f 68/77/68 67/82/67 63/83/63
f 69/84/69 72/89/72 68/77/68
f 70/86/70 69/90/69 65/80/65
f 67/82/67 71/88/71 70/86/70
f 68/77/68 72/89/72 71/88/71
