# Blender 5.0.1
# www.blender.org
mtllib study_screw_reliquary.mtl
g A_BodyProfile.001_Mesh
v 0.580000 -0.780000 0.000000
v 0.520000 0.480000 0.000000
v 0.400000 0.380000 0.000000
v 0.580000 -0.780000 0.000000
v 0.522562 -0.780000 -0.251653
v 0.468504 0.480000 -0.225620
v 0.360388 0.380000 -0.173554
v 0.522562 -0.780000 -0.251653
v 0.361624 -0.780000 -0.453462
v 0.324215 0.480000 -0.406552
v 0.249396 0.380000 -0.312733
v 0.361624 -0.780000 -0.453462
v 0.129062 -0.780000 -0.565458
v 0.115711 0.480000 -0.506962
v 0.089008 0.380000 -0.389971
v 0.129062 -0.780000 -0.565458
v -0.129062 -0.780000 -0.565458
v -0.115711 0.480000 -0.506962
v -0.089008 0.380000 -0.389971
v -0.129062 -0.780000 -0.565458
v -0.361624 -0.780000 -0.453462
v -0.324215 0.480000 -0.406552
v -0.249396 0.380000 -0.312733
v -0.361624 -0.780000 -0.453462
v -0.522562 -0.780000 -0.251652
v -0.468504 0.480000 -0.225619
v -0.360388 0.380000 -0.173553
v -0.522562 -0.780000 -0.251652
v -0.580000 -0.780000 0.000000
v -0.520000 0.480000 0.000000
v -0.400000 0.380000 0.000000
v -0.580000 -0.780000 0.000000
v -0.522562 -0.780000 0.251653
v -0.468504 0.480000 0.225620
v -0.360388 0.380000 0.173554
v -0.522562 -0.780000 0.251653
v -0.361624 -0.780000 0.453462
v -0.324215 0.480000 0.406552
v -0.249396 0.380000 0.312733
v -0.361624 -0.780000 0.453462
v -0.129062 -0.780000 0.565458
v -0.115711 0.480000 0.506962
v -0.089008 0.380000 0.389971
v -0.129062 -0.780000 0.565458
v 0.129062 -0.780000 0.565458
v 0.115711 0.480000 0.506962
v 0.089008 0.380000 0.389971
v 0.129062 -0.780000 0.565458
v 0.361624 -0.780000 0.453462
v 0.324215 0.480000 0.406552
v 0.249396 0.380000 0.312733
v 0.361624 -0.780000 0.453462
v 0.522562 -0.780000 0.251653
v 0.468504 0.480000 0.225620
v 0.360388 0.380000 0.173554
v 0.522562 -0.780000 0.251653
v 0.728044 -0.692915 0.000000
v 0.758281 -0.656340 0.000000
v 0.810512 -0.455294 0.024388
v 0.810512 -0.455294 -0.024388
v 0.811719 -0.503660 0.000000
v 0.714434 0.150000 -0.024388
v 0.714434 0.150000 0.024388
v 0.707042 0.171380 0.000000
v 0.328796 0.652994 0.000000
v 0.297787 0.648017 0.000000
v 0.272213 0.601983 0.000000
v 0.274455 0.559350 0.000000
v 0.534435 0.100000 0.024383
v 0.534435 0.100000 -0.024383
v 0.528820 0.122361 0.000000
v 0.601220 -0.415197 0.024383
v 0.596875 -0.461477 0.000000
v 0.601220 -0.415197 -0.024383
v 0.513125 -0.598523 0.000000
v 0.511236 -0.642472 0.000000
v 0.683188 -0.656340 -0.329006
v 0.655945 -0.692915 -0.315886
v 0.740828 -0.455294 -0.329695
v 0.719665 -0.455294 -0.373641
v 0.731333 -0.503660 -0.352192
v 0.633101 0.150000 -0.331954
v 0.654264 0.150000 -0.288008
v 0.637023 0.171380 -0.306774
v 0.268297 0.648017 -0.129205
v 0.296235 0.652994 -0.142659
v 0.247275 0.559350 -0.119081
v 0.245255 0.601983 -0.118109
v 0.492088 0.100000 -0.209914
v 0.470930 0.100000 -0.253851
v 0.476450 0.122361 -0.229446
v 0.537766 -0.461477 -0.258974
v 0.531101 -0.415197 -0.282828
v 0.552260 -0.415197 -0.238891
v 0.460608 -0.642472 -0.221817
v 0.462310 -0.598523 -0.222637
v 0.472781 -0.656340 -0.592848
v 0.453928 -0.692915 -0.569208
v 0.524413 -0.455294 -0.618478
v 0.486279 -0.455294 -0.648889
v 0.506098 -0.503660 -0.634627
v 0.426375 0.150000 -0.573772
v 0.464509 0.150000 -0.543361
v 0.440834 0.171380 -0.552788
v 0.185667 0.648017 -0.232820
v 0.205001 0.652994 -0.257063
v 0.171120 0.559350 -0.214577
v 0.169722 0.601983 -0.212824
v 0.352278 0.100000 -0.402635
v 0.314151 0.100000 -0.433041
v 0.329714 0.122361 -0.413448
v 0.372146 -0.461477 -0.466656
v 0.355791 -0.415197 -0.485255
v 0.393918 -0.415197 -0.454850
v 0.318751 -0.642472 -0.399700
v 0.319928 -0.598523 -0.401177
v 0.168733 -0.656340 -0.739269
v 0.162005 -0.692915 -0.709790
v 0.204132 -0.455294 -0.784764
v 0.156579 -0.455294 -0.795618
v 0.180624 -0.503660 -0.791367
v 0.135200 0.150000 -0.701948
v 0.182753 0.150000 -0.691094
v 0.157332 0.171380 -0.689315
v 0.066264 0.648017 -0.290321
v 0.073164 0.652994 -0.320552
v 0.061072 0.559350 -0.267574
v 0.060573 0.601983 -0.265388
v 0.142695 0.100000 -0.515610
v 0.095151 0.100000 -0.526461
v 0.117673 0.122361 -0.515561
v 0.132817 -0.461477 -0.581910
v 0.110012 -0.415197 -0.591572
v 0.157556 -0.415197 -0.580720
v 0.113761 -0.642472 -0.498418
v 0.114181 -0.598523 -0.500260
v -0.168733 -0.656340 -0.739269
v -0.162005 -0.692915 -0.709790
v -0.156579 -0.455294 -0.795618
v -0.204132 -0.455294 -0.784764
v -0.180624 -0.503660 -0.791367
v -0.182753 0.150000 -0.691094
v -0.135200 0.150000 -0.701948
v -0.157332 0.171380 -0.689315
v -0.066264 0.648017 -0.290321
v -0.073164 0.652994 -0.320552
v -0.061072 0.559350 -0.267574
v -0.060573 0.601983 -0.265388
v -0.095151 0.100000 -0.526461
v -0.142695 0.100000 -0.515610
v -0.117673 0.122361 -0.515561
v -0.132817 -0.461477 -0.581910
v -0.157556 -0.415197 -0.580720
v -0.110012 -0.415197 -0.591572
v -0.113761 -0.642472 -0.498418
v -0.114181 -0.598523 -0.500260
v -0.472781 -0.656340 -0.592848
v -0.453928 -0.692915 -0.569208
v -0.486279 -0.455294 -0.648890
v -0.524413 -0.455294 -0.618478
v -0.506098 -0.503660 -0.634627
v -0.464509 0.150000 -0.543361
v -0.426375 0.150000 -0.573772
v -0.440834 0.171380 -0.552788
v -0.185667 0.648017 -0.232820
v -0.205001 0.652994 -0.257063
v -0.171120 0.559350 -0.214577
v -0.169722 0.601983 -0.212824
v -0.314151 0.100000 -0.433041
v -0.352278 0.100000 -0.402635
v -0.329714 0.122361 -0.413448
v -0.372146 -0.461477 -0.466656
v -0.393918 -0.415197 -0.454850
v -0.355791 -0.415197 -0.485255
v -0.318751 -0.642472 -0.399700
v -0.319928 -0.598523 -0.401177
v -0.683188 -0.656340 -0.329006
v -0.655945 -0.692915 -0.315886
v -0.719665 -0.455294 -0.373641
v -0.740828 -0.455294 -0.329695
v -0.731333 -0.503660 -0.352192
v -0.654264 0.150000 -0.288008
v -0.633101 0.150000 -0.331954
v -0.637023 0.171380 -0.306774
v -0.268297 0.648017 -0.129205
v -0.296235 0.652994 -0.142659
v -0.247275 0.559350 -0.119081
v -0.245255 0.601983 -0.118109
v -0.470930 0.100000 -0.253851
v -0.492089 0.100000 -0.209914
v -0.476450 0.122361 -0.229446
v -0.537766 -0.461477 -0.258974
v -0.552260 -0.415197 -0.238891
v -0.531101 -0.415197 -0.282828
v -0.460608 -0.642472 -0.221817
v -0.462310 -0.598523 -0.222636
v -0.758281 -0.656340 0.000000
v -0.728044 -0.692915 0.000000
v -0.810512 -0.455294 -0.024388
v -0.810512 -0.455294 0.024388
v -0.811719 -0.503660 0.000000
v -0.714434 0.150000 0.024388
v -0.714434 0.150000 -0.024388
v -0.707042 0.171380 0.000000
v -0.297787 0.648017 0.000000
v -0.328796 0.652994 0.000000
v -0.274455 0.559350 0.000000
v -0.272213 0.601983 0.000000
v -0.534435 0.100000 -0.024383
v -0.534435 0.100000 0.024383
v -0.528820 0.122361 0.000000
v -0.596875 -0.461477 0.000000
v -0.601220 -0.415197 0.024383
v -0.601220 -0.415197 -0.024383
v -0.511236 -0.642472 0.000000
v -0.513125 -0.598523 0.000000
v -0.683188 -0.656340 0.329006
v -0.655945 -0.692915 0.315886
v -0.740828 -0.455294 0.329695
v -0.719665 -0.455294 0.373641
v -0.731333 -0.503660 0.352192
v -0.633101 0.150000 0.331954
v -0.654264 0.150000 0.288008
v -0.637023 0.171380 0.306774
v -0.268297 0.648017 0.129205
v -0.296235 0.652994 0.142659
v -0.247275 0.559350 0.119081
v -0.245255 0.601983 0.118109
v -0.492088 0.100000 0.209914
v -0.470930 0.100000 0.253851
v -0.476450 0.122361 0.229446
v -0.537766 -0.461477 0.258974
v -0.531101 -0.415197 0.282828
v -0.552260 -0.415197 0.238891
v -0.460608 -0.642472 0.221817
v -0.462310 -0.598523 0.222637
v -0.472780 -0.656340 0.592848
v -0.453928 -0.692915 0.569208
v -0.524413 -0.455294 0.618478
v -0.486278 -0.455294 0.648890
v -0.506098 -0.503660 0.634627
v -0.426375 0.150000 0.573772
v -0.464509 0.150000 0.543361
v -0.440834 0.171380 0.552788
v -0.185667 0.648017 0.232820
v -0.205001 0.652994 0.257063
v -0.171120 0.559350 0.214577
v -0.169722 0.601983 0.212824
v -0.352278 0.100000 0.402635
v -0.314151 0.100000 0.433041
v -0.329714 0.122361 0.413448
v -0.372145 -0.461477 0.466656
v -0.355791 -0.415197 0.485255
v -0.393918 -0.415197 0.454850
v -0.318750 -0.642472 0.399701
v -0.319928 -0.598523 0.401177
v -0.168733 -0.656340 0.739269
v -0.162005 -0.692915 0.709790
v -0.204133 -0.455294 0.784764
v -0.156579 -0.455294 0.795618
v -0.180624 -0.503660 0.791367
v -0.135200 0.150000 0.701948
v -0.182753 0.150000 0.691094
v -0.157332 0.171380 0.689315
v -0.066264 0.648017 0.290321
v -0.073164 0.652994 0.320552
v -0.061072 0.559350 0.267574
v -0.060573 0.601983 0.265388
v -0.142695 0.100000 0.515610
v -0.095151 0.100000 0.526461
v -0.117673 0.122361 0.515561
v -0.132817 -0.461477 0.581910
v -0.110012 -0.415197 0.591572
v -0.157556 -0.415197 0.580720
v -0.113761 -0.642472 0.498418
v -0.114181 -0.598523 0.500260
v 0.168734 -0.656340 0.739269
v 0.162005 -0.692915 0.709790
v 0.156579 -0.455294 0.795618
v 0.204133 -0.455294 0.784764
v 0.180625 -0.503660 0.791367
v 0.182753 0.150000 0.691094
v 0.135200 0.150000 0.701948
v 0.157332 0.171380 0.689315
v 0.066264 0.648017 0.290321
v 0.073164 0.652994 0.320552
v 0.061072 0.559350 0.267574
v 0.060573 0.601983 0.265388
v 0.095151 0.100000 0.526461
v 0.142695 0.100000 0.515610
v 0.117674 0.122361 0.515561
v 0.132817 -0.461477 0.581910
v 0.157556 -0.415197 0.580720
v 0.110012 -0.415197 0.591571
v 0.113761 -0.642472 0.498418
v 0.114181 -0.598523 0.500260
v 0.472781 -0.656340 0.592848
v 0.453928 -0.692915 0.569208
v 0.486279 -0.455294 0.648889
v 0.524414 -0.455294 0.618478
v 0.506099 -0.503660 0.634627
v 0.464510 0.150000 0.543361
v 0.426375 0.150000 0.573772
v 0.440834 0.171380 0.552788
v 0.185667 0.648017 0.232820
v 0.205001 0.652994 0.257063
v 0.171120 0.559350 0.214577
v 0.169722 0.601983 0.212824
v 0.314151 0.100000 0.433040
v 0.352278 0.100000 0.402635
v 0.329714 0.122361 0.413448
v 0.372146 -0.461477 0.466656
v 0.393918 -0.415197 0.454850
v 0.355791 -0.415197 0.485255
v 0.318751 -0.642472 0.399700
v 0.319928 -0.598523 0.401177
v 0.683188 -0.656340 0.329006
v 0.655945 -0.692915 0.315886
v 0.719665 -0.455294 0.373641
v 0.740828 -0.455294 0.329695
v 0.731333 -0.503660 0.352192
v 0.654264 0.150000 0.288008
v 0.633101 0.150000 0.331954
v 0.637023 0.171380 0.306774
v 0.268297 0.648017 0.129205
v 0.296235 0.652994 0.142659
v 0.247275 0.559350 0.119081
v 0.245255 0.601983 0.118109
v 0.470930 0.100000 0.253851
v 0.492089 0.100000 0.209914
v 0.476450 0.122361 0.229446
v 0.537766 -0.461477 0.258974
v 0.552260 -0.415197 0.238891
v 0.531101 -0.415197 0.282828
v 0.460608 -0.642472 0.221817
v 0.462310 -0.598523 0.222637
vn -0.5070 0.8619 -0.0000
vn -0.7793 -0.6267 -0.0000
vn 0.8618 0.5072 -0.0000
vn 0.8944 0.4472 -0.0000
vn -0.4568 0.8619 0.2200
vn -0.7021 -0.6267 0.3381
vn 0.7765 0.5072 -0.3739
vn 0.8059 0.4472 -0.3881
vn -0.3161 0.8619 0.3964
vn -0.4859 -0.6267 0.6092
vn 0.5373 0.5072 -0.6738
vn 0.5577 0.4472 -0.6993
vn -0.1128 0.8619 0.4943
vn -0.1734 -0.6267 0.7597
vn 0.1918 0.5072 -0.8402
vn 0.1990 0.4472 -0.8720
vn 0.1128 0.8619 0.4943
vn 0.1734 -0.6267 0.7597
vn -0.1918 0.5072 -0.8402
vn -0.1990 0.4472 -0.8720
vn 0.3161 0.8619 0.3964
vn 0.4859 -0.6267 0.6093
vn -0.5373 0.5072 -0.6738
vn -0.5577 0.4472 -0.6993
vn 0.4568 0.8619 0.2200
vn 0.7021 -0.6267 0.3381
vn -0.7765 0.5072 -0.3739
vn -0.8059 0.4472 -0.3881
vn 0.5070 0.8619 -0.0000
vn 0.7793 -0.6267 -0.0000
vn -0.8618 0.5072 -0.0000
vn -0.8944 0.4472 -0.0000
vn 0.4568 0.8619 -0.2200
vn 0.7021 -0.6267 -0.3381
vn -0.7765 0.5072 0.3739
vn -0.8059 0.4472 0.3881
vn 0.3161 0.8619 -0.3964
vn 0.4859 -0.6267 -0.6092
vn -0.5373 0.5072 0.6738
vn -0.5577 0.4472 0.6993
vn 0.1128 0.8619 -0.4943
vn 0.1734 -0.6267 -0.7597
vn -0.1918 0.5072 0.8402
vn -0.1990 0.4472 0.8720
vn -0.1128 0.8619 -0.4943
vn -0.1734 -0.6267 -0.7597
vn 0.1918 0.5072 0.8402
vn 0.1990 0.4472 0.8720
vn -0.3161 0.8619 -0.3964
vn -0.4859 -0.6267 -0.6093
vn 0.5373 0.5072 0.6738
vn 0.5577 0.4472 0.6993
vn -0.4568 0.8619 -0.2200
vn -0.7021 -0.6267 -0.3381
vn 0.7765 0.5072 0.3739
vn 0.8059 0.4472 0.3881
vn -0.6625 0.7490 -0.0000
vn -0.8767 0.4810 -0.0000
vn -0.9904 -0.0537 -0.1278
vn -0.9904 -0.0537 0.1278
vn -0.9816 0.1909 -0.0000
vn -0.9409 -0.3126 0.1302
vn -0.9409 -0.3126 -0.1302
vn -0.8831 -0.4692 -0.0000
vn -0.3389 -0.9408 -0.0000
vn 0.5292 -0.8485 -0.0000
vn 0.9721 -0.2344 -0.0000
vn 0.9410 0.3383 -0.0000
vn 0.9562 0.2607 0.1329
vn 0.9562 0.2607 -0.1329
vn 0.9186 0.3951 -0.0000
vn 0.9916 -0.0195 0.1277
vn 0.9385 -0.3453 -0.0000
vn 0.9916 -0.0195 -0.1277
vn 0.9534 -0.3018 -0.0000
vn 0.9763 0.2164 -0.0000
vn -0.7899 0.4810 0.3804
vn -0.5969 0.7490 0.2875
vn -0.9477 -0.0537 0.3146
vn -0.8368 -0.0537 0.5448
vn -0.8844 0.1909 0.4259
vn -0.7912 -0.3126 0.5255
vn -0.9042 -0.3126 0.2909
vn -0.7957 -0.4692 0.3832
vn 0.4768 -0.8485 -0.2296
vn -0.3053 -0.9408 0.1470
vn 0.8479 0.3383 -0.4083
vn 0.8759 -0.2344 -0.4218
vn 0.9192 0.2607 -0.2952
vn 0.8039 0.2607 -0.5346
vn 0.8277 0.3951 -0.3986
vn 0.8456 -0.3453 -0.4072
vn 0.8380 -0.0195 -0.5453
vn 0.9488 -0.0195 -0.3152
vn 0.8796 0.2164 -0.4236
vn 0.8589 -0.3018 -0.4136
vn -0.5466 0.4810 0.6854
vn -0.4131 0.7490 0.5180
vn -0.7174 -0.0537 0.6946
vn -0.5176 -0.0537 0.8540
vn -0.6120 0.1909 0.7675
vn -0.4849 -0.3126 0.8168
vn -0.6884 -0.3126 0.6545
vn -0.5506 -0.4692 0.6905
vn 0.3300 -0.8485 -0.4138
vn -0.2113 -0.9408 0.2649
vn 0.5867 0.3383 -0.7357
vn 0.6061 -0.2344 -0.7600
vn 0.7001 0.2607 -0.6648
vn 0.4923 0.2607 -0.8305
vn 0.5728 0.3951 -0.7182
vn 0.5852 -0.3453 -0.7338
vn 0.5184 -0.0195 -0.8549
vn 0.7181 -0.0195 -0.6957
vn 0.6087 0.2164 -0.7633
vn 0.5944 -0.3018 -0.7454
vn -0.1951 0.4810 0.8547
vn -0.1474 0.7490 0.6459
vn -0.3449 -0.0537 0.9371
vn -0.0958 -0.0537 0.9940
vn -0.2184 0.1909 0.9570
vn -0.0824 -0.3126 0.9463
vn -0.3363 -0.3126 0.8883
vn -0.1965 -0.4692 0.8610
vn 0.1178 -0.8485 -0.5160
vn -0.0754 -0.9408 0.3304
vn 0.2094 0.3383 -0.9175
vn 0.2163 -0.2344 -0.9478
vn 0.3423 0.2607 -0.9027
vn 0.0832 0.2607 -0.9618
vn 0.2044 0.3951 -0.8956
vn 0.2088 -0.3453 -0.9150
vn 0.0961 -0.0195 -0.9952
vn 0.3452 -0.0195 -0.9383
vn 0.2172 0.2164 -0.9518
vn 0.2121 -0.3018 -0.9295
vn 0.1951 0.4810 0.8547
vn 0.1474 0.7490 0.6459
vn 0.0958 -0.0537 0.9940
vn 0.3449 -0.0537 0.9371
vn 0.2184 0.1909 0.9570
vn 0.3363 -0.3126 0.8883
vn 0.0824 -0.3126 0.9463
vn 0.1965 -0.4692 0.8610
vn -0.1178 -0.8485 -0.5160
vn 0.0754 -0.9408 0.3304
vn -0.2094 0.3383 -0.9175
vn -0.2163 -0.2344 -0.9478
vn -0.0832 0.2607 -0.9618
vn -0.3423 0.2607 -0.9027
vn -0.2044 0.3951 -0.8956
vn -0.2088 -0.3453 -0.9150
vn -0.3452 -0.0195 -0.9383
vn -0.0961 -0.0195 -0.9952
vn -0.2172 0.2164 -0.9518
vn -0.2121 -0.3018 -0.9295
vn 0.5466 0.4810 0.6854
vn 0.4131 0.7490 0.5180
vn 0.5176 -0.0537 0.8540
vn 0.7174 -0.0537 0.6946
vn 0.6120 0.1909 0.7675
vn 0.6884 -0.3126 0.6545
vn 0.4849 -0.3126 0.8168
vn 0.5506 -0.4692 0.6904
vn -0.3300 -0.8485 -0.4138
vn 0.2113 -0.9408 0.2649
vn -0.5867 0.3383 -0.7357
vn -0.6061 -0.2344 -0.7600
vn -0.4923 0.2607 -0.8305
vn -0.7001 0.2607 -0.6648
vn -0.5728 0.3951 -0.7182
vn -0.5852 -0.3453 -0.7338
vn -0.7181 -0.0195 -0.6957
vn -0.5184 -0.0195 -0.8549
vn -0.6087 0.2164 -0.7633
vn -0.5944 -0.3018 -0.7454
vn 0.7899 0.4810 0.3804
vn 0.5969 0.7490 0.2875
vn 0.8368 -0.0537 0.5448
vn 0.9477 -0.0537 0.3146
vn 0.8844 0.1909 0.4259
vn 0.9042 -0.3126 0.2909
vn 0.7912 -0.3126 0.5255
vn 0.7957 -0.4692 0.3832
vn -0.4768 -0.8485 -0.2296
vn 0.3053 -0.9408 0.1470
vn -0.8479 0.3383 -0.4083
vn -0.8759 -0.2344 -0.4218
vn -0.8039 0.2607 -0.5346
vn -0.9192 0.2607 -0.2952
vn -0.8277 0.3951 -0.3986
vn -0.8456 -0.3453 -0.4072
vn -0.9488 -0.0195 -0.3152
vn -0.8380 -0.0195 -0.5453
vn -0.8796 0.2164 -0.4236
vn -0.8589 -0.3018 -0.4136
vn 0.8767 0.4810 -0.0000
vn 0.6625 0.7490 -0.0000
vn 0.9904 -0.0537 0.1278
vn 0.9904 -0.0537 -0.1278
vn 0.9816 0.1909 -0.0000
vn 0.9409 -0.3126 -0.1302
vn 0.9409 -0.3126 0.1302
vn 0.8831 -0.4692 -0.0000
vn -0.5293 -0.8485 -0.0000
vn 0.3389 -0.9408 -0.0000
vn -0.9410 0.3383 -0.0000
vn -0.9721 -0.2344 -0.0000
vn -0.9562 0.2607 -0.1329
vn -0.9562 0.2607 0.1329
vn -0.9186 0.3951 -0.0000
vn -0.9385 -0.3453 -0.0000
vn -0.9916 -0.0195 0.1277
vn -0.9916 -0.0195 -0.1277
vn -0.9763 0.2164 -0.0000
vn -0.9534 -0.3018 -0.0000
vn 0.7899 0.4810 -0.3804
vn 0.5969 0.7490 -0.2875
vn 0.9477 -0.0537 -0.3146
vn 0.8368 -0.0537 -0.5448
vn 0.8844 0.1909 -0.4259
vn 0.7912 -0.3126 -0.5255
vn 0.9042 -0.3126 -0.2909
vn 0.7957 -0.4692 -0.3832
vn -0.4768 -0.8485 0.2296
vn 0.3053 -0.9408 -0.1470
vn -0.8479 0.3383 0.4083
vn -0.8759 -0.2344 0.4218
vn -0.9192 0.2607 0.2952
vn -0.8039 0.2607 0.5346
vn -0.8277 0.3951 0.3986
vn -0.8456 -0.3453 0.4072
vn -0.8380 -0.0195 0.5453
vn -0.9488 -0.0195 0.3152
vn -0.8796 0.2164 0.4236
vn -0.8589 -0.3018 0.4136
vn 0.5466 0.4810 -0.6854
vn 0.4131 0.7490 -0.5180
vn 0.7174 -0.0537 -0.6946
vn 0.5176 -0.0537 -0.8540
vn 0.6120 0.1909 -0.7675
vn 0.4849 -0.3126 -0.8168
vn 0.6884 -0.3126 -0.6545
vn 0.5506 -0.4692 -0.6905
vn -0.3300 -0.8485 0.4138
vn 0.2113 -0.9408 -0.2649
vn -0.5867 0.3383 0.7357
vn -0.6061 -0.2344 0.7600
vn -0.7001 0.2607 0.6648
vn -0.4923 0.2607 0.8305
vn -0.5728 0.3951 0.7182
vn -0.5852 -0.3453 0.7338
vn -0.5184 -0.0195 0.8549
vn -0.7181 -0.0195 0.6957
vn -0.6087 0.2164 0.7633
vn -0.5944 -0.3018 0.7454
vn 0.1951 0.4810 -0.8547
vn 0.1474 0.7490 -0.6459
vn 0.3449 -0.0537 -0.9371
vn 0.0958 -0.0537 -0.9940
vn 0.2184 0.1909 -0.9570
vn 0.0824 -0.3126 -0.9463
vn 0.3363 -0.3126 -0.8883
vn 0.1965 -0.4692 -0.8610
vn -0.1178 -0.8485 0.5160
vn 0.0754 -0.9408 -0.3304
vn -0.2094 0.3383 0.9175
vn -0.2163 -0.2344 0.9478
vn -0.3423 0.2607 0.9027
vn -0.0832 0.2607 0.9618
vn -0.2044 0.3951 0.8956
vn -0.2088 -0.3453 0.9150
vn -0.0961 -0.0195 0.9952
vn -0.3452 -0.0195 0.9383
vn -0.2172 0.2164 0.9518
vn -0.2121 -0.3018 0.9295
vn -0.1951 0.4810 -0.8547
vn -0.1474 0.7490 -0.6459
vn -0.0958 -0.0537 -0.9940
vn -0.3449 -0.0537 -0.9371
vn -0.2184 0.1909 -0.9570
vn -0.3363 -0.3126 -0.8883
vn -0.0824 -0.3126 -0.9463
vn -0.1965 -0.4692 -0.8610
vn 0.1178 -0.8485 0.5160
vn -0.0754 -0.9408 -0.3304
vn 0.2094 0.3383 0.9175
vn 0.2163 -0.2344 0.9478
vn 0.0832 0.2607 0.9618
vn 0.3423 0.2607 0.9027
vn 0.2044 0.3951 0.8956
vn 0.2088 -0.3453 0.9150
vn 0.3452 -0.0195 0.9383
vn 0.0961 -0.0195 0.9952
vn 0.2172 0.2164 0.9518
vn 0.2121 -0.3018 0.9295
vn -0.5466 0.4810 -0.6854
vn -0.4131 0.7490 -0.5180
vn -0.5176 -0.0537 -0.8540
vn -0.7174 -0.0537 -0.6946
vn -0.6120 0.1909 -0.7675
vn -0.6884 -0.3126 -0.6545
vn -0.4849 -0.3126 -0.8168
vn -0.5506 -0.4692 -0.6904
vn 0.3300 -0.8485 0.4138
vn -0.2113 -0.9408 -0.2649
vn 0.5867 0.3383 0.7357
vn 0.6061 -0.2344 0.7600
vn 0.4923 0.2607 0.8305
vn 0.7001 0.2607 0.6648
vn 0.5728 0.3951 0.7182
vn 0.5852 -0.3453 0.7338
vn 0.7181 -0.0195 0.6957
vn 0.5184 -0.0195 0.8549
vn 0.6087 0.2164 0.7633
vn 0.5944 -0.3018 0.7454
vn -0.7899 0.4810 -0.3804
vn -0.5969 0.7490 -0.2875
vn -0.8368 -0.0537 -0.5448
vn -0.9477 -0.0537 -0.3146
vn -0.8844 0.1909 -0.4259
vn -0.9042 -0.3126 -0.2909
vn -0.7912 -0.3126 -0.5255
vn -0.7957 -0.4692 -0.3832
vn 0.4768 -0.8485 0.2296
vn -0.3053 -0.9408 -0.1470
vn 0.8479 0.3383 0.4083
vn 0.8759 -0.2344 0.4218
vn 0.8039 0.2607 0.5346
vn 0.9192 0.2607 0.2952
vn 0.8277 0.3951 0.3986
vn 0.8456 -0.3453 0.4072
vn 0.9488 -0.0195 0.3152
vn 0.8380 -0.0195 0.5453
vn 0.8796 0.2164 0.4236
vn 0.8589 -0.3018 0.4136
s 1
g A_BodyProfile.001_oxidized_bronze
usemtl oxidized_bronze
f 59//59 60//60 61//61
f 62//62 63//63 64//64
f 69//69 70//70 71//71
f 72//72 73//73 74//74
f 79//79 80//80 81//81
f 82//82 83//83 84//84
f 89//89 90//90 91//91
f 92//92 93//93 94//94
f 99//99 100//100 101//101
f 102//102 103//103 104//104
f 109//109 110//110 111//111
f 112//112 113//113 114//114
f 119//119 120//120 121//121
f 122//122 123//123 124//124
f 129//129 130//130 131//131
f 132//132 133//133 134//134
f 139//139 140//140 141//141
f 142//142 143//143 144//144
f 149//149 150//150 151//151
f 152//152 153//153 154//154
f 159//159 160//160 161//161
f 162//162 163//163 164//164
f 169//169 170//170 171//171
f 172//172 173//173 174//174
f 179//179 180//180 181//181
f 182//182 183//183 184//184
f 189//189 190//190 191//191
f 192//192 193//193 194//194
f 199//199 200//200 201//201
f 202//202 203//203 204//204
f 209//209 210//210 211//211
f 212//212 213//213 214//214
f 219//219 220//220 221//221
f 222//222 223//223 224//224
f 229//229 230//230 231//231
f 232//232 233//233 234//234
f 239//239 240//240 241//241
f 242//242 243//243 244//244
f 249//249 250//250 251//251
f 252//252 253//253 254//254
f 259//259 260//260 261//261
f 262//262 263//263 264//264
f 269//269 270//270 271//271
f 272//272 273//273 274//274
f 279//279 280//280 281//281
f 282//282 283//283 284//284
f 289//289 290//290 291//291
f 292//292 293//293 294//294
f 299//299 300//300 301//301
f 302//302 303//303 304//304
f 309//309 310//310 311//311
f 312//312 313//313 314//314
f 319//319 320//320 321//321
f 322//322 323//323 324//324
f 329//329 330//330 331//331
f 332//332 333//333 334//334
f 59//59 62//62 60//60
f 72//72 70//70 69//69
f 78//78 58//58 77//77
f 61//61 79//79 81//81
f 86//86 66//66 85//85
f 67//67 87//87 88//88
f 74//74 92//92 94//94
f 75//75 95//95 96//96
f 98//98 77//77 97//97
f 81//81 99//99 101//101
f 86//86 105//105 106//106
f 108//108 87//87 107//107
f 93//93 112//112 114//114
f 96//96 115//115 116//116
f 98//98 117//117 118//118
f 101//101 119//119 121//121
f 106//106 125//125 126//126
f 108//108 127//127 128//128
f 113//113 132//132 134//134
f 116//116 135//135 136//136
f 118//118 137//137 138//138
f 121//121 139//139 141//141
f 126//126 145//145 146//146
f 128//128 147//147 148//148
f 133//133 152//152 154//154
f 136//136 155//155 156//156
f 158//158 137//137 157//157
f 141//141 159//159 161//161
f 146//146 165//165 166//166
f 148//148 167//167 168//168
f 174//174 152//152 172//172
f 156//156 175//175 176//176
f 158//158 177//177 178//178
f 161//161 179//179 181//181
f 186//186 165//165 185//185
f 168//168 187//187 188//188
f 173//173 192//192 194//194
f 176//176 195//195 196//196
f 178//178 197//197 198//198
f 201//201 180//180 199//199
f 186//186 205//205 206//206
f 188//188 207//207 208//208
f 193//193 212//212 214//214
f 196//196 215//215 216//216
f 198//198 217//217 218//218
f 201//201 219//219 221//221
f 206//206 225//225 226//226
f 208//208 227//227 228//228
f 213//213 232//232 234//234
f 216//216 235//235 236//236
f 218//218 237//237 238//238
f 221//221 239//239 241//241
f 226//226 245//245 246//246
f 248//248 227//227 247//247
f 233//233 252//252 254//254
f 236//236 255//255 256//256
f 238//238 257//257 258//258
f 241//241 259//259 261//261
f 246//246 265//265 266//266
f 268//268 247//247 267//267
f 253//253 272//272 274//274
f 256//256 275//275 276//276
f 258//258 277//277 278//278
f 261//261 279//279 281//281
f 266//266 285//285 286//286
f 268//268 287//287 288//288
f 273//273 292//292 294//294
f 276//276 295//295 296//296
f 278//278 297//297 298//298
f 281//281 299//299 301//301
f 286//286 305//305 306//306
f 288//288 307//307 308//308
f 293//293 312//312 314//314
f 296//296 315//315 316//316
f 298//298 317//317 318//318
f 301//301 319//319 321//321
f 306//306 325//325 326//326
f 308//308 327//327 328//328
f 313//313 332//332 334//334
f 336//336 315//315 335//335
f 318//318 58//58 57//57
f 321//321 59//59 61//61
f 326//326 66//66 65//65
f 328//328 68//68 67//67
f 72//72 332//332 73//73
f 75//75 335//335 76//76
f 83//83 80//80 79//79
f 103//103 100//100 99//99
f 119//119 122//122 120//120
f 139//139 142//142 140//140
f 163//163 160//160 159//159
f 183//183 180//180 179//179
f 203//203 200//200 199//199
f 223//223 220//220 219//219
f 243//243 240//240 239//239
f 263//263 260//260 259//259
f 279//279 282//282 280//280
f 303//303 300//300 299//299
f 323//323 320//320 319//319
f 94//94 90//90 89//89
f 114//114 110//110 109//109
f 134//134 130//130 129//129
f 154//154 150//150 149//149
f 174//174 170//170 169//169
f 194//194 190//190 189//189
f 209//209 213//213 210//210
f 234//234 230//230 229//229
f 254//254 250//250 249//249
f 274//274 270//270 269//269
f 294//294 290//290 289//289
f 314//314 310//310 309//309
f 334//334 330//330 329//329
f 318//318 1//1 53//53
f 61//61 77//77 58//58
f 57//57 5//5 1//1
f 321//321 58//58 317//317
f 60//60 83//83 79//79
f 322//322 59//59 320//320
f 64//64 6//6 83//83
f 324//324 2//2 63//63
f 54//54 65//65 2//2
f 67//67 85//85 66//66
f 65//65 6//6 2//2
f 328//328 66//66 325//325
f 3//3 87//87 68//68
f 55//55 68//68 327//327
f 331//331 69//69 3//3
f 74//74 89//89 70//70
f 71//71 89//89 7//7
f 333//333 69//69 330//330
f 75//75 92//92 73//73
f 336//336 73//73 332//332
f 76//76 8//8 95//95
f 56//56 76//76 335//335
f 78//78 9//9 5//5
f 81//81 97//97 77//77
f 82//82 99//99 80//80
f 84//84 10//10 103//103
f 86//86 10//10 6//6
f 88//88 105//105 85//85
f 7//7 107//107 87//87
f 91//91 109//109 11//11
f 93//93 109//109 90//90
f 96//96 112//112 92//92
f 8//8 115//115 95//95
f 98//98 13//13 9//9
f 101//101 117//117 97//97
f 102//102 119//119 100//100
f 104//104 14//14 123//123
f 106//106 14//14 10//10
f 108//108 125//125 105//105
f 107//107 15//15 127//127
f 111//111 129//129 15//15
f 113//113 129//129 110//110
f 116//116 132//132 112//112
f 115//115 16//16 135//135
f 118//118 17//17 13//13
f 121//121 137//137 117//117
f 122//122 139//139 120//120
f 124//124 18//18 143//143
f 14//14 146//146 18//18
f 128//128 145//145 125//125
f 127//127 19//19 147//147
f 131//131 149//149 19//19
f 133//133 149//149 130//130
f 136//136 152//152 132//132
f 16//16 155//155 135//135
f 138//138 21//21 17//17
f 141//141 157//157 137//137
f 142//142 159//159 140//140
f 144//144 22//22 163//163
f 146//146 22//22 18//18
f 148//148 165//165 145//145
f 147//147 23//23 167//167
f 151//151 169//169 23//23
f 153//153 169//169 150//150
f 156//156 172//172 152//152
f 20//20 175//175 155//155
f 158//158 25//25 21//21
f 161//161 177//177 157//157
f 160//160 183//183 179//179
f 164//164 26//26 183//183
f 166//166 26//26 22//22
f 168//168 185//185 165//165
f 23//23 187//187 167//167
f 171//171 189//189 27//27
f 173//173 189//189 170//170
f 176//176 192//192 172//172
f 24//24 195//195 175//175
f 178//178 29//29 25//25
f 177//177 201//201 197//197
f 182//182 199//199 180//180
f 184//184 30//30 203//203
f 26//26 206//206 30//30
f 185//185 208//208 205//205
f 27//27 207//207 187//187
f 191//191 209//209 31//31
f 190//190 214//214 209//209
f 196//196 212//212 192//192
f 195//195 32//32 215//215
f 198//198 33//33 29//29
f 201//201 217//217 197//197
f 200//200 223//223 219//219
f 204//204 34//34 223//223
f 206//206 34//34 30//30
f 208//208 225//225 205//205
f 31//31 227//227 207//207
f 211//211 229//229 35//35
f 213//213 229//229 210//210
f 216//216 232//232 212//212
f 32//32 235//235 215//215
f 218//218 37//37 33//33
f 221//221 237//237 217//217
f 222//222 239//239 220//220
f 224//224 38//38 243//243
f 226//226 38//38 34//34
f 228//228 245//245 225//225
f 35//35 247//247 227//227
f 231//231 249//249 39//39
f 230//230 254//254 249//249
f 232//232 256//256 252//252
f 36//36 255//255 235//235
f 238//238 41//41 37//37
f 241//241 257//257 237//237
f 242//242 259//259 240//240
f 244//244 42//42 263//263
f 246//246 42//42 38//38
f 248//248 265//265 245//245
f 39//39 267//267 247//247
f 251//251 269//269 43//43
f 253//253 269//269 250//250
f 252//252 276//276 272//272
f 40//40 275//275 255//255
f 258//258 45//45 41//41
f 261//261 277//277 257//257
f 262//262 279//279 260//260
f 264//264 46//46 283//283
f 266//266 46//46 42//42
f 268//268 285//285 265//265
f 43//43 287//287 267//267
f 271//271 289//289 47//47
f 273//273 289//289 270//270
f 276//276 292//292 272//272
f 275//275 48//48 295//295
f 278//278 49//49 45//45
f 281//281 297//297 277//277
f 282//282 299//299 280//280
f 284//284 50//50 303//303
f 286//286 50//50 46//46
f 285//285 308//308 305//305
f 47//47 307//307 287//287
f 291//291 309//309 51//51
f 293//293 309//309 290//290
f 296//296 312//312 292//292
f 295//295 52//52 315//315
f 298//298 53//53 49//49
f 301//301 317//317 297//297
f 302//302 319//319 300//300
f 304//304 54//54 323//323
f 50//50 326//326 54//54
f 308//308 325//325 305//305
f 51//51 327//327 307//307
f 311//311 329//329 55//55
f 310//310 334//334 329//329
f 316//316 332//332 312//312
f 52//52 335//335 315//315
f 59//59 63//63 62//62
f 72//72 74//74 70//70
f 78//78 57//57 58//58
f 61//61 60//60 79//79
f 86//86 65//65 66//66
f 67//67 68//68 87//87
f 74//74 73//73 92//92
f 75//75 76//76 95//95
f 98//98 78//78 77//77
f 81//81 80//80 99//99
f 86//86 85//85 105//105
f 108//108 88//88 87//87
f 93//93 92//92 112//112
f 96//96 95//95 115//115
f 98//98 97//97 117//117
f 101//101 100//100 119//119
f 106//106 105//105 125//125
f 108//108 107//107 127//127
f 113//113 112//112 132//132
f 116//116 115//115 135//135
f 118//118 117//117 137//137
f 121//121 120//120 139//139
f 126//126 125//125 145//145
f 128//128 127//127 147//147
f 133//133 132//132 152//152
f 136//136 135//135 155//155
f 158//158 138//138 137//137
f 141//141 140//140 159//159
f 146//146 145//145 165//165
f 148//148 147//147 167//167
f 174//174 153//153 152//152
f 156//156 155//155 175//175
f 158//158 157//157 177//177
f 161//161 160//160 179//179
f 186//186 166//166 165//165
f 168//168 167//167 187//187
f 173//173 172//172 192//192
f 176//176 175//175 195//195
f 178//178 177//177 197//197
f 201//201 181//181 180//180
f 186//186 185//185 205//205
f 188//188 187//187 207//207
f 193//193 192//192 212//212
f 196//196 195//195 215//215
f 198//198 197//197 217//217
f 201//201 200//200 219//219
f 206//206 205//205 225//225
f 208//208 207//207 227//227
f 213//213 212//212 232//232
f 216//216 215//215 235//235
f 218//218 217//217 237//237
f 221//221 220//220 239//239
f 226//226 225//225 245//245
f 248//248 228//228 227//227
f 233//233 232//232 252//252
f 236//236 235//235 255//255
f 238//238 237//237 257//257
f 241//241 240//240 259//259
f 246//246 245//245 265//265
f 268//268 248//248 247//247
f 253//253 252//252 272//272
f 256//256 255//255 275//275
f 258//258 257//257 277//277
f 261//261 260//260 279//279
f 266//266 265//265 285//285
f 268//268 267//267 287//287
f 273//273 272//272 292//292
f 276//276 275//275 295//295
f 278//278 277//277 297//297
f 281//281 280//280 299//299
f 286//286 285//285 305//305
f 288//288 287//287 307//307
f 293//293 292//292 312//312
f 296//296 295//295 315//315
f 298//298 297//297 317//317
f 301//301 300//300 319//319
f 306//306 305//305 325//325
f 308//308 307//307 327//327
f 313//313 312//312 332//332
f 336//336 316//316 315//315
f 318//318 317//317 58//58
f 321//321 320//320 59//59
f 326//326 325//325 66//66
f 328//328 327//327 68//68
f 72//72 333//333 332//332
f 75//75 336//336 335//335
f 83//83 82//82 80//80
f 103//103 102//102 100//100
f 119//119 123//123 122//122
f 139//139 143//143 142//142
f 163//163 162//162 160//160
f 183//183 182//182 180//180
f 203//203 202//202 200//200
f 223//223 222//222 220//220
f 243//243 242//242 240//240
f 263//263 262//262 260//260
f 279//279 283//283 282//282
f 303//303 302//302 300//300
f 323//323 322//322 320//320
f 94//94 93//93 90//90
f 114//114 113//113 110//110
f 134//134 133//133 130//130
f 154//154 153//153 150//150
f 174//174 173//173 170//170
f 194//194 193//193 190//190
f 209//209 214//214 213//213
f 234//234 233//233 230//230
f 254//254 253//253 250//250
f 274//274 273//273 270//270
f 294//294 293//293 290//290
f 314//314 313//313 310//310
f 334//334 333//333 330//330
f 318//318 57//57 1//1
f 61//61 81//81 77//77
f 57//57 78//78 5//5
f 321//321 61//61 58//58
f 60//60 62//62 83//83
f 322//322 63//63 59//59
f 83//83 62//62 64//64
f 64//64 2//2 6//6
f 6//6 84//84 83//83
f 63//63 322//322 324//324
f 324//324 54//54 2//2
f 2//2 64//64 63//63
f 54//54 326//326 65//65
f 67//67 88//88 85//85
f 65//65 86//86 6//6
f 328//328 67//67 66//66
f 3//3 7//7 87//87
f 55//55 3//3 68//68
f 3//3 55//55 331//331
f 331//331 330//330 69//69
f 69//69 71//71 3//3
f 74//74 94//94 89//89
f 7//7 3//3 71//71
f 71//71 70//70 89//89
f 89//89 91//91 7//7
f 333//333 72//72 69//69
f 75//75 96//96 92//92
f 336//336 75//75 73//73
f 76//76 4//4 8//8
f 56//56 4//4 76//76
f 78//78 98//98 9//9
f 81//81 101//101 97//97
f 82//82 103//103 99//99
f 103//103 82//82 84//84
f 84//84 6//6 10//10
f 10//10 104//104 103//103
f 86//86 106//106 10//10
f 88//88 108//108 105//105
f 7//7 11//11 107//107
f 11//11 7//7 91//91
f 91//91 90//90 109//109
f 109//109 111//111 11//11
f 93//93 114//114 109//109
f 96//96 116//116 112//112
f 8//8 12//12 115//115
f 98//98 118//118 13//13
f 101//101 121//121 117//117
f 102//102 123//123 119//119
f 123//123 102//102 104//104
f 104//104 10//10 14//14
f 14//14 124//124 123//123
f 106//106 126//126 14//14
f 108//108 128//128 125//125
f 107//107 11//11 15//15
f 15//15 11//11 111//111
f 111//111 110//110 129//129
f 129//129 131//131 15//15
f 113//113 134//134 129//129
f 116//116 136//136 132//132
f 115//115 12//12 16//16
f 118//118 138//138 17//17
f 121//121 141//141 137//137
f 122//122 143//143 139//139
f 143//143 122//122 124//124
f 124//124 14//14 18//18
f 18//18 144//144 143//143
f 14//14 126//126 146//146
f 128//128 148//148 145//145
f 127//127 15//15 19//19
f 19//19 15//15 131//131
f 131//131 130//130 149//149
f 149//149 151//151 19//19
f 133//133 154//154 149//149
f 136//136 156//156 152//152
f 16//16 20//20 155//155
f 138//138 158//158 21//21
f 141//141 161//161 157//157
f 142//142 163//163 159//159
f 163//163 142//142 144//144
f 144//144 18//18 22//22
f 22//22 164//164 163//163
f 146//146 166//166 22//22
f 148//148 168//168 165//165
f 147//147 19//19 23//23
f 23//23 19//19 151//151
f 151//151 150//150 169//169
f 169//169 171//171 23//23
f 153//153 174//174 169//169
f 156//156 176//176 172//172
f 20//20 24//24 175//175
f 158//158 178//178 25//25
f 161//161 181//181 177//177
f 160//160 162//162 183//183
f 183//183 162//162 164//164
f 164//164 22//22 26//26
f 26//26 184//184 183//183
f 166//166 186//186 26//26
f 168//168 188//188 185//185
f 23//23 27//27 187//187
f 27//27 23//23 171//171
f 171//171 170//170 189//189
f 189//189 191//191 27//27
f 173//173 194//194 189//189
f 176//176 196//196 192//192
f 24//24 28//28 195//195
f 178//178 198//198 29//29
f 177//177 181//181 201//201
f 182//182 203//203 199//199
f 203//203 182//182 184//184
f 184//184 26//26 30//30
f 30//30 204//204 203//203
f 26//26 186//186 206//206
f 185//185 188//188 208//208
f 27//27 31//31 207//207
f 31//31 27//27 191//191
f 191//191 190//190 209//209
f 209//209 211//211 31//31
f 190//190 193//193 214//214
f 196//196 216//216 212//212
f 195//195 28//28 32//32
f 198//198 218//218 33//33
f 201//201 221//221 217//217
f 200//200 202//202 223//223
f 223//223 202//202 204//204
f 204//204 30//30 34//34
f 34//34 224//224 223//223
f 206//206 226//226 34//34
f 208//208 228//228 225//225
f 31//31 35//35 227//227
f 35//35 31//31 211//211
f 211//211 210//210 229//229
f 229//229 231//231 35//35
f 213//213 234//234 229//229
f 216//216 236//236 232//232
f 32//32 36//36 235//235
f 218//218 238//238 37//37
f 221//221 241//241 237//237
f 222//222 243//243 239//239
f 243//243 222//222 224//224
f 224//224 34//34 38//38
f 38//38 244//244 243//243
f 226//226 246//246 38//38
f 228//228 248//248 245//245
f 35//35 39//39 247//247
f 39//39 35//35 231//231
f 231//231 230//230 249//249
f 249//249 251//251 39//39
f 230//230 233//233 254//254
f 232//232 236//236 256//256
f 36//36 40//40 255//255
f 238//238 258//258 41//41
f 241//241 261//261 257//257
f 242//242 263//263 259//259
f 263//263 242//242 244//244
f 244//244 38//38 42//42
f 42//42 264//264 263//263
f 246//246 266//266 42//42
f 248//248 268//268 265//265
f 39//39 43//43 267//267
f 43//43 39//39 251//251
f 251//251 250//250 269//269
f 269//269 271//271 43//43
f 253//253 274//274 269//269
f 252//252 256//256 276//276
f 40//40 44//44 275//275
f 258//258 278//278 45//45
f 261//261 281//281 277//277
f 262//262 283//283 279//279
f 283//283 262//262 264//264
f 264//264 42//42 46//46
f 46//46 284//284 283//283
f 266//266 286//286 46//46
f 268//268 288//288 285//285
f 43//43 47//47 287//287
f 47//47 43//43 271//271
f 271//271 270//270 289//289
f 289//289 291//291 47//47
f 273//273 294//294 289//289
f 276//276 296//296 292//292
f 275//275 44//44 48//48
f 278//278 298//298 49//49
f 281//281 301//301 297//297
f 282//282 303//303 299//299
f 303//303 282//282 284//284
f 284//284 46//46 50//50
f 50//50 304//304 303//303
f 286//286 306//306 50//50
f 285//285 288//288 308//308
f 47//47 51//51 307//307
f 51//51 47//47 291//291
f 291//291 290//290 309//309
f 309//309 311//311 51//51
f 293//293 314//314 309//309
f 296//296 316//316 312//312
f 295//295 48//48 52//52
f 298//298 318//318 53//53
f 301//301 321//321 317//317
f 302//302 323//323 319//319
f 323//323 302//302 304//304
f 304//304 50//50 54//54
f 54//54 324//324 323//323
f 50//50 306//306 326//326
f 308//308 328//328 325//325
f 51//51 55//55 327//327
f 55//55 51//51 311//311
f 311//311 310//310 329//329
f 329//329 331//331 55//55
f 310//310 313//313 334//334
f 316//316 336//336 332//332
f 52//52 56//56 335//335
g A_CrownProfile.001_Mesh
v 0.090000 0.550000 0.000000
v 0.072812 0.550000 -0.052901
v 0.027812 0.550000 -0.085595
v -0.027812 0.550000 -0.085595
v -0.072812 0.550000 -0.052901
v -0.090000 0.550000 0.000000
v -0.072812 0.550000 0.052901
v -0.027812 0.550000 0.085595
v 0.027812 0.550000 0.085595
v 0.072812 0.550000 0.052901
v 0.236145 0.696340 0.017497
v 0.236145 0.696340 -0.017497
v 0.235536 0.668248 0.000000
v 0.174313 0.820000 0.017502
v 0.174313 0.820000 -0.017502
v 0.054312 0.940000 -0.017507
v 0.054312 0.940000 0.017507
v 0.201330 0.696340 -0.124647
v 0.180761 0.696340 -0.152958
v 0.190552 0.668248 -0.138444
v 0.151310 0.820000 -0.088299
v 0.130735 0.820000 -0.116618
v 0.033649 0.940000 -0.046087
v 0.054229 0.940000 -0.017760
v 0.089613 0.696340 -0.219180
v 0.056332 0.696340 -0.229994
v 0.072785 0.668248 -0.224008
v 0.070511 0.820000 -0.160373
v 0.037220 0.820000 -0.171190
v 0.000133 0.940000 -0.057063
v 0.033433 0.940000 -0.046243
v -0.056332 0.696340 -0.229994
v -0.089613 0.696340 -0.219180
v -0.072785 0.668248 -0.224008
v -0.037220 0.820000 -0.171190
v -0.070511 0.820000 -0.160373
v -0.033433 0.940000 -0.046243
v -0.000133 0.940000 -0.057063
v -0.180761 0.696340 -0.152958
v -0.201330 0.696340 -0.124647
v -0.190552 0.668248 -0.138444
v -0.130735 0.820000 -0.116618
v -0.151310 0.820000 -0.088299
v -0.054229 0.940000 -0.017760
v -0.033649 0.940000 -0.046087
v -0.236145 0.696340 -0.017497
v -0.236145 0.696340 0.017497
v -0.235536 0.668248 0.000000
v -0.174313 0.820000 -0.017502
v -0.174313 0.820000 0.017502
v -0.054312 0.940000 0.017507
v -0.054312 0.940000 -0.017507
v -0.201330 0.696340 0.124647
v -0.180761 0.696340 0.152958
v -0.190552 0.668248 0.138444
v -0.151310 0.820000 0.088299
v -0.130735 0.820000 0.116618
v -0.033649 0.940000 0.046087
v -0.054229 0.940000 0.017760
v -0.089614 0.696340 0.219180
v -0.056332 0.696340 0.229994
v -0.072785 0.668248 0.224008
v -0.070511 0.820000 0.160373
v -0.037220 0.820000 0.171190
v -0.000133 0.940000 0.057063
v -0.033433 0.940000 0.046243
v 0.056332 0.696340 0.229994
v 0.089614 0.696340 0.219180
v 0.072785 0.668248 0.224008
v 0.037220 0.820000 0.171190
v 0.070511 0.820000 0.160373
v 0.033433 0.940000 0.046243
v 0.000133 0.940000 0.057063
v 0.180761 0.696340 0.152958
v 0.201330 0.696340 0.124647
v 0.190552 0.668248 0.138444
v 0.130735 0.820000 0.116618
v 0.151310 0.820000 0.088299
v 0.054229 0.940000 0.017760
v 0.033649 0.940000 0.046087
vn -0.6306 0.7761 -0.0000
vn -0.5102 0.7761 0.3707
vn -0.1949 0.7761 0.5997
vn 0.1949 0.7761 0.5997
vn 0.5102 0.7761 0.3707
vn 0.6306 0.7761 -0.0000
vn 0.5102 0.7761 -0.3707
vn 0.1949 0.7761 -0.5997
vn -0.1949 0.7761 -0.5997
vn -0.5102 0.7761 -0.3707
vn -0.9724 -0.1495 -0.1793
vn -0.9724 -0.1495 0.1793
vn -0.8846 0.4663 -0.0000
vn -0.8095 -0.5729 -0.1284
vn -0.8095 -0.5729 0.1284
vn -0.7020 -0.7020 0.1201
vn -0.7020 -0.7019 -0.1201
vn -0.8921 -0.1494 0.4265
vn -0.6813 -0.1495 0.7166
vn -0.7157 0.4663 0.5200
vn -0.7304 -0.5729 0.3720
vn -0.5794 -0.5729 0.5797
vn -0.4974 -0.7020 0.5097
vn -0.6385 -0.7020 0.3155
vn -0.4710 -0.1495 0.8694
vn -0.1299 -0.1495 0.9802
vn -0.2734 0.4663 0.8413
vn -0.3723 -0.5729 0.7302
vn -0.1280 -0.5729 0.8096
vn -0.1026 -0.7020 0.7047
vn -0.3311 -0.7020 0.6305
vn 0.1299 -0.1495 0.9802
vn 0.4710 -0.1494 0.8694
vn 0.2734 0.4663 0.8413
vn 0.1280 -0.5729 0.8096
vn 0.3723 -0.5729 0.7302
vn 0.3311 -0.7020 0.6306
vn 0.1028 -0.7020 0.7047
vn 0.6813 -0.1495 0.7166
vn 0.8921 -0.1495 0.4265
vn 0.7157 0.4663 0.5200
vn 0.5794 -0.5729 0.5797
vn 0.7304 -0.5729 0.3719
vn 0.6385 -0.7020 0.3155
vn 0.4973 -0.7020 0.5098
vn 0.9724 -0.1494 0.1793
vn 0.9724 -0.1495 -0.1793
vn 0.8846 0.4663 -0.0000
vn 0.8095 -0.5729 0.1284
vn 0.8095 -0.5729 -0.1284
vn 0.7020 -0.7020 -0.1200
vn 0.7020 -0.7020 0.1201
vn 0.8921 -0.1494 -0.4265
vn 0.6813 -0.1495 -0.7166
vn 0.7157 0.4663 -0.5200
vn 0.7304 -0.5729 -0.3720
vn 0.5794 -0.5729 -0.5797
vn 0.4974 -0.7020 -0.5097
vn 0.6385 -0.7020 -0.3155
vn 0.4710 -0.1495 -0.8694
vn 0.1299 -0.1494 -0.9802
vn 0.2734 0.4663 -0.8413
vn 0.3723 -0.5729 -0.7302
vn 0.1280 -0.5729 -0.8096
vn 0.1029 -0.7020 -0.7047
vn 0.3311 -0.7020 -0.6305
vn -0.1299 -0.1495 -0.9802
vn -0.4710 -0.1495 -0.8694
vn -0.2734 0.4663 -0.8413
vn -0.1280 -0.5729 -0.8096
vn -0.3723 -0.5729 -0.7302
vn -0.3312 -0.7020 -0.6305
vn -0.1026 -0.7020 -0.7048
vn -0.6813 -0.1495 -0.7166
vn -0.8921 -0.1494 -0.4265
vn -0.7157 0.4663 -0.5200
vn -0.5794 -0.5729 -0.5797
vn -0.7304 -0.5729 -0.3720
vn -0.6386 -0.7019 -0.3155
vn -0.4974 -0.7020 -0.5097
s 1
g A_CrownProfile.001_ritual_gold
usemtl ritual_gold
f 347//347 348//348 349//349
f 354//354 355//355 356//356
f 361//361 362//362 363//363
f 368//368 369//369 370//370
f 375//375 376//376 377//377
f 382//382 383//383 384//384
f 389//389 390//390 391//391
f 396//396 397//397 398//398
f 403//403 404//404 405//405
f 410//410 411//411 412//412
f 347//347 351//351 348//348
f 353//353 351//351 350//350
f 349//349 354//354 356//356
f 356//356 361//361 363//363
f 370//370 362//362 368//368
f 370//370 375//375 377//377
f 384//384 376//376 382//382
f 384//384 389//389 391//391
f 391//391 396//396 398//398
f 398//398 403//403 405//405
f 405//405 410//410 412//412
f 412//412 347//347 349//349
f 354//354 358//358 355//355
f 364//364 362//362 361//361
f 371//371 369//369 368//368
f 378//378 376//376 375//375
f 382//382 386//386 383//383
f 389//389 393//393 390//390
f 399//399 397//397 396//396
f 406//406 404//404 403//403
f 413//413 411//411 410//410
f 360//360 358//358 357//357
f 367//367 365//365 364//364
f 374//374 372//372 371//371
f 381//381 379//379 378//378
f 388//388 386//386 385//385
f 395//395 393//393 392//392
f 402//402 400//400 399//399
f 409//409 407//407 406//406
f 416//416 414//414 413//413
f 412//412 337//337 346//346
f 351//351 354//354 348//348
f 349//349 338//338 337//337
f 411//411 350//350 347//347
f 352//352 357//357 351//351
f 414//414 353//353 350//350
f 356//356 339//339 338//338
f 358//358 361//361 355//355
f 359//359 364//364 358//358
f 363//363 340//340 339//339
f 365//365 368//368 362//362
f 365//365 374//374 371//371
f 370//370 341//341 340//340
f 372//372 375//375 369//369
f 373//373 378//378 372//372
f 377//377 342//342 341//341
f 379//379 382//382 376//376
f 380//380 385//385 379//379
f 342//342 391//391 343//343
f 386//386 389//389 383//383
f 387//387 392//392 386//386
f 391//391 344//344 343//343
f 393//393 396//396 390//390
f 393//393 402//402 399//399
f 398//398 345//345 344//344
f 400//400 403//403 397//397
f 401//401 406//406 400//400
f 405//405 346//346 345//345
f 407//407 410//410 404//404
f 407//407 416//416 413//413
f 347//347 350//350 351//351
f 353//353 352//352 351//351
f 349//349 348//348 354//354
f 356//356 355//355 361//361
f 370//370 363//363 362//362
f 370//370 369//369 375//375
f 384//384 377//377 376//376
f 384//384 383//383 389//389
f 391//391 390//390 396//396
f 398//398 397//397 403//403
f 405//405 404//404 410//410
f 412//412 411//411 347//347
f 354//354 357//357 358//358
f 364//364 365//365 362//362
f 371//371 372//372 369//369
f 378//378 379//379 376//376
f 382//382 385//385 386//386
f 389//389 392//392 393//393
f 399//399 400//400 397//397
f 406//406 407//407 404//404
f 413//413 414//414 411//411
f 360//360 359//359 358//358
f 367//367 366//366 365//365
f 374//374 373//373 372//372
f 381//381 380//380 379//379
f 388//388 387//387 386//386
f 395//395 394//394 393//393
f 402//402 401//401 400//400
f 409//409 408//408 407//407
f 416//416 415//415 414//414
f 412//412 349//349 337//337
f 351//351 357//357 354//354
f 349//349 356//356 338//338
f 411//411 414//414 350//350
f 352//352 360//360 357//357
f 414//414 415//415 353//353
f 356//356 363//363 339//339
f 358//358 364//364 361//361
f 359//359 367//367 364//364
f 363//363 370//370 340//340
f 365//365 371//371 368//368
f 365//365 366//366 374//374
f 370//370 377//377 341//341
f 372//372 378//378 375//375
f 373//373 381//381 378//378
f 377//377 384//384 342//342
f 379//379 385//385 382//382
f 380//380 388//388 385//385
f 342//342 384//384 391//391
f 386//386 392//392 389//389
f 387//387 395//395 392//392
f 391//391 398//398 344//344
f 393//393 399//399 396//396
f 393//393 394//394 402//402
f 398//398 405//405 345//345
f 400//400 406//406 403//403
f 401//401 409//409 406//406
f 405//405 412//412 346//346
f 407//407 413//413 410//410
f 407//407 408//408 416//416
