# Metro Steel Rails (North-South)
mtllib metro_rails.mtl
o metro_rails_ns
v -0.480000 0.000000 -0.500000
v 0.480000 0.000000 -0.500000
v 0.480000 0.020000 -0.500000
v -0.480000 0.020000 -0.500000
v -0.480000 0.000000 0.500000
v 0.480000 0.000000 0.500000
v 0.480000 0.020000 0.500000
v -0.480000 0.020000 0.500000
v -0.420000 0.020000 -0.435000
v 0.420000 0.020000 -0.435000
v 0.420000 0.050000 -0.435000
v -0.420000 0.050000 -0.435000
v -0.420000 0.020000 -0.315000
v 0.420000 0.020000 -0.315000
v 0.420000 0.050000 -0.315000
v -0.420000 0.050000 -0.315000
v -0.420000 0.020000 -0.185000
v 0.420000 0.020000 -0.185000
v 0.420000 0.050000 -0.185000
v -0.420000 0.050000 -0.185000
v -0.420000 0.020000 -0.065000
v 0.420000 0.020000 -0.065000
v 0.420000 0.050000 -0.065000
v -0.420000 0.050000 -0.065000
v -0.420000 0.020000 0.065000
v 0.420000 0.020000 0.065000
v 0.420000 0.050000 0.065000
v -0.420000 0.050000 0.065000
v -0.420000 0.020000 0.185000
v 0.420000 0.020000 0.185000
v 0.420000 0.050000 0.185000
v -0.420000 0.050000 0.185000
v -0.420000 0.020000 0.315000
v 0.420000 0.020000 0.315000
v 0.420000 0.050000 0.315000
v -0.420000 0.050000 0.315000
v -0.420000 0.020000 0.435000
v 0.420000 0.020000 0.435000
v 0.420000 0.050000 0.435000
v -0.420000 0.050000 0.435000
v -0.290000 0.050000 -0.500000
v -0.230000 0.050000 -0.500000
v -0.230000 0.060000 -0.500000
v -0.290000 0.060000 -0.500000
v -0.290000 0.050000 0.500000
v -0.230000 0.050000 0.500000
v -0.230000 0.060000 0.500000
v -0.290000 0.060000 0.500000
v -0.270000 0.060000 -0.500000
v -0.250000 0.060000 -0.500000
v -0.250000 0.090000 -0.500000
v -0.270000 0.090000 -0.500000
v -0.270000 0.060000 0.500000
v -0.250000 0.060000 0.500000
v -0.250000 0.090000 0.500000
v -0.270000 0.090000 0.500000
v -0.285000 0.090000 -0.500000
v -0.235000 0.090000 -0.500000
v -0.235000 0.120000 -0.500000
v -0.285000 0.120000 -0.500000
v -0.285000 0.090000 0.500000
v -0.235000 0.090000 0.500000
v -0.235000 0.120000 0.500000
v -0.285000 0.120000 0.500000
v 0.230000 0.050000 -0.500000
v 0.290000 0.050000 -0.500000
v 0.290000 0.060000 -0.500000
v 0.230000 0.060000 -0.500000
v 0.230000 0.050000 0.500000
v 0.290000 0.050000 0.500000
v 0.290000 0.060000 0.500000
v 0.230000 0.060000 0.500000
v 0.250000 0.060000 -0.500000
v 0.270000 0.060000 -0.500000
v 0.270000 0.090000 -0.500000
v 0.250000 0.090000 -0.500000
v 0.250000 0.060000 0.500000
v 0.270000 0.060000 0.500000
v 0.270000 0.090000 0.500000
v 0.250000 0.090000 0.500000
v 0.235000 0.090000 -0.500000
v 0.285000 0.090000 -0.500000
v 0.285000 0.120000 -0.500000
v 0.235000 0.120000 -0.500000
v 0.235000 0.090000 0.500000
v 0.285000 0.090000 0.500000
v 0.285000 0.120000 0.500000
v 0.235000 0.120000 0.500000
vn 0.000000 0.000000 -1.000000
vn 0.000000 0.000000 1.000000
vn -1.000000 0.000000 0.000000
vn 1.000000 0.000000 0.000000
vn 0.000000 -1.000000 0.000000
vn 0.000000 1.000000 0.000000
vn 0.000000 0.000000 -1.000000
vn 0.000000 0.000000 1.000000
vn -1.000000 0.000000 0.000000
vn 1.000000 0.000000 0.000000
vn 0.000000 -1.000000 0.000000
vn 0.000000 1.000000 0.000000
vn 0.000000 0.000000 -1.000000
vn 0.000000 0.000000 1.000000
vn -1.000000 0.000000 0.000000
vn 1.000000 0.000000 0.000000
vn 0.000000 -1.000000 0.000000
vn 0.000000 1.000000 0.000000
vn 0.000000 0.000000 -1.000000
vn 0.000000 0.000000 1.000000
vn -1.000000 0.000000 0.000000
vn 1.000000 0.000000 0.000000
vn 0.000000 -1.000000 0.000000
vn 0.000000 1.000000 0.000000
vn 0.000000 0.000000 -1.000000
vn 0.000000 0.000000 1.000000
vn -1.000000 0.000000 0.000000
vn 1.000000 0.000000 0.000000
vn 0.000000 -1.000000 0.000000
vn 0.000000 1.000000 0.000000
vn 0.000000 0.000000 -1.000000
vn 0.000000 0.000000 1.000000
vn -1.000000 0.000000 0.000000
vn 1.000000 0.000000 0.000000
vn 0.000000 -1.000000 0.000000
vn 0.000000 1.000000 0.000000
vn 0.000000 0.000000 -1.000000
vn 0.000000 0.000000 1.000000
vn -1.000000 0.000000 0.000000
vn 1.000000 0.000000 0.000000
vn 0.000000 -1.000000 0.000000
vn 0.000000 1.000000 0.000000
vn 0.000000 0.000000 -1.000000
vn 0.000000 0.000000 1.000000
vn -1.000000 0.000000 0.000000
vn 1.000000 0.000000 0.000000
vn 0.000000 -1.000000 0.000000
vn 0.000000 1.000000 0.000000
vn 0.000000 0.000000 -1.000000
vn 0.000000 0.000000 1.000000
vn -1.000000 0.000000 0.000000
vn 1.000000 0.000000 0.000000
vn 0.000000 -1.000000 0.000000
vn 0.000000 1.000000 0.000000
vn 0.000000 0.000000 -1.000000
vn 0.000000 0.000000 1.000000
vn -1.000000 0.000000 0.000000
vn 1.000000 0.000000 0.000000
vn 0.000000 -1.000000 0.000000
vn 0.000000 1.000000 0.000000
vn 0.000000 0.000000 -1.000000
vn 0.000000 0.000000 1.000000
vn -1.000000 0.000000 0.000000
vn 1.000000 0.000000 0.000000
vn 0.000000 -1.000000 0.000000
vn 0.000000 1.000000 0.000000
usemtl rail_ballast
f 1//1 4//1 3//1
f 1//1 3//1 2//1
f 5//2 6//2 7//2
f 5//2 7//2 8//2
f 1//3 5//3 8//3
f 1//3 8//3 4//3
f 2//4 3//4 7//4
f 2//4 7//4 6//4
f 1//5 2//5 6//5
f 1//5 6//5 5//5
f 4//6 8//6 7//6
f 4//6 7//6 3//6
usemtl rail_tie
f 9//7 12//7 11//7
f 9//7 11//7 10//7
f 13//8 14//8 15//8
f 13//8 15//8 16//8
f 9//9 13//9 16//9
f 9//9 16//9 12//9
f 10//10 11//10 15//10
f 10//10 15//10 14//10
f 9//11 10//11 14//11
f 9//11 14//11 13//11
f 12//12 16//12 15//12
f 12//12 15//12 11//12
f 17//13 20//13 19//13
f 17//13 19//13 18//13
f 21//14 22//14 23//14
f 21//14 23//14 24//14
f 17//15 21//15 24//15
f 17//15 24//15 20//15
f 18//16 19//16 23//16
f 18//16 23//16 22//16
f 17//17 18//17 22//17
f 17//17 22//17 21//17
f 20//18 24//18 23//18
f 20//18 23//18 19//18
f 25//19 28//19 27//19
f 25//19 27//19 26//19
f 29//20 30//20 31//20
f 29//20 31//20 32//20
f 25//21 29//21 32//21
f 25//21 32//21 28//21
f 26//22 27//22 31//22
f 26//22 31//22 30//22
f 25//23 26//23 30//23
f 25//23 30//23 29//23
f 28//24 32//24 31//24
f 28//24 31//24 27//24
f 33//25 36//25 35//25
f 33//25 35//25 34//25
f 37//26 38//26 39//26
f 37//26 39//26 40//26
f 33//27 37//27 40//27
f 33//27 40//27 36//27
f 34//28 35//28 39//28
f 34//28 39//28 38//28
f 33//29 34//29 38//29
f 33//29 38//29 37//29
f 36//30 40//30 39//30
f 36//30 39//30 35//30
usemtl rail_steel
f 41//31 44//31 43//31
f 41//31 43//31 42//31
f 45//32 46//32 47//32
f 45//32 47//32 48//32
f 41//33 45//33 48//33
f 41//33 48//33 44//33
f 42//34 43//34 47//34
f 42//34 47//34 46//34
f 41//35 42//35 46//35
f 41//35 46//35 45//35
f 44//36 48//36 47//36
f 44//36 47//36 43//36
f 49//37 52//37 51//37
f 49//37 51//37 50//37
f 53//38 54//38 55//38
f 53//38 55//38 56//38
f 49//39 53//39 56//39
f 49//39 56//39 52//39
f 50//40 51//40 55//40
f 50//40 55//40 54//40
f 49//41 50//41 54//41
f 49//41 54//41 53//41
f 52//42 56//42 55//42
f 52//42 55//42 51//42
f 57//43 60//43 59//43
f 57//43 59//43 58//43
f 61//44 62//44 63//44
f 61//44 63//44 64//44
f 57//45 61//45 64//45
f 57//45 64//45 60//45
f 58//46 59//46 63//46
f 58//46 63//46 62//46
f 57//47 58//47 62//47
f 57//47 62//47 61//47
f 60//48 64//48 63//48
f 60//48 63//48 59//48
f 65//49 68//49 67//49
f 65//49 67//49 66//49
f 69//50 70//50 71//50
f 69//50 71//50 72//50
f 65//51 69//51 72//51
f 65//51 72//51 68//51
f 66//52 67//52 71//52
f 66//52 71//52 70//52
f 65//53 66//53 70//53
f 65//53 70//53 69//53
f 68//54 72//54 71//54
f 68//54 71//54 67//54
f 73//55 76//55 75//55
f 73//55 75//55 74//55
f 77//56 78//56 79//56
f 77//56 79//56 80//56
f 73//57 77//57 80//57
f 73//57 80//57 76//57
f 74//58 75//58 79//58
f 74//58 79//58 78//58
f 73//59 74//59 78//59
f 73//59 78//59 77//59
f 76//60 80//60 79//60
f 76//60 79//60 75//60
f 81//61 84//61 83//61
f 81//61 83//61 82//61
f 85//62 86//62 87//62
f 85//62 87//62 88//62
f 81//63 85//63 88//63
f 81//63 88//63 84//63
f 82//64 83//64 87//64
f 82//64 87//64 86//64
f 81//65 82//65 86//65
f 81//65 86//65 85//65
f 84//66 88//66 87//66
f 84//66 87//66 83//66
