# Generated Model
mtllib metro_column.mtl
v -0.350000 0.000000 0.350000
v 0.350000 0.000000 0.350000
v 0.350000 0.000000 -0.350000
v -0.350000 0.000000 -0.350000
v -0.350000 0.150000 0.350000
v 0.350000 0.150000 0.350000
v 0.350000 0.150000 -0.350000
v -0.350000 0.150000 -0.350000
v -0.300000 0.150000 0.300000
v 0.300000 0.150000 0.300000
v 0.300000 0.150000 -0.300000
v -0.300000 0.150000 -0.300000
v -0.300000 0.900000 0.300000
v 0.300000 0.900000 0.300000
v 0.300000 0.900000 -0.300000
v -0.300000 0.900000 -0.300000
v -0.380000 0.900000 0.380000
v 0.380000 0.900000 0.380000
v 0.380000 0.900000 -0.380000
v -0.380000 0.900000 -0.380000
v -0.380000 1.000000 0.380000
v 0.380000 1.000000 0.380000
v 0.380000 1.000000 -0.380000
v -0.380000 1.000000 -0.380000
vn 0.000000 -1.000000 0.000000
vn 0.000000 1.000000 0.000000
vn 0.000000 0.000000 -1.000000
vn 0.000000 0.000000 1.000000
vn -1.000000 0.000000 0.000000
vn 1.000000 0.000000 0.000000
vn 0.000000 -1.000000 0.000000
vn 0.000000 1.000000 0.000000
vn 0.000000 0.000000 -1.000000
vn 0.000000 0.000000 1.000000
vn -1.000000 0.000000 0.000000
vn 1.000000 0.000000 0.000000
vn 0.000000 -1.000000 0.000000
vn 0.000000 1.000000 0.000000
vn 0.000000 0.000000 -1.000000
vn 0.000000 0.000000 1.000000
vn -1.000000 0.000000 0.000000
vn 1.000000 0.000000 0.000000
usemtl pillar_base
f 1//1 4//1 3//1
f 1//1 3//1 2//1
f 5//2 6//2 7//2
f 5//2 7//2 8//2
f 3//3 4//3 8//3
f 3//3 8//3 7//3
f 1//4 2//4 6//4
f 1//4 6//4 5//4
f 1//5 5//5 8//5
f 1//5 8//5 4//5
f 2//6 3//6 7//6
f 2//6 7//6 6//6
usemtl concrete_pillar
f 9//7 12//7 11//7
f 9//7 11//7 10//7
f 13//8 14//8 15//8
f 13//8 15//8 16//8
f 11//9 12//9 16//9
f 11//9 16//9 15//9
f 9//10 10//10 14//10
f 9//10 14//10 13//10
f 9//11 13//11 16//11
f 9//11 16//11 12//11
f 10//12 11//12 15//12
f 10//12 15//12 14//12
usemtl pillar_base
f 17//13 20//13 19//13
f 17//13 19//13 18//13
f 21//14 22//14 23//14
f 21//14 23//14 24//14
f 19//15 20//15 24//15
f 19//15 24//15 23//15
f 17//16 18//16 22//16
f 17//16 22//16 21//16
f 17//17 21//17 24//17
f 17//17 24//17 20//17
f 18//18 19//18 23//18
f 18//18 23//18 22//18
