# Generated Model
mtllib metro_rails.mtl
v -0.500000 -0.500000 0.500000
v 0.500000 -0.500000 0.500000
v 0.500000 -0.500000 -0.500000
v -0.500000 -0.500000 -0.500000
v -0.500000 -0.500000 0.500000
v -0.500000 0.000000 0.500000
v 0.500000 0.000000 0.500000
v 0.500000 -0.500000 0.500000
v 0.500000 -0.500000 -0.500000
v 0.500000 0.000000 -0.500000
v -0.500000 0.000000 -0.500000
v -0.500000 -0.500000 -0.500000
v -0.410000 -0.500000 0.380000
v -0.250000 -0.500000 0.380000
v -0.250000 -0.500000 -0.380000
v -0.410000 -0.500000 -0.380000
v -0.410000 -0.440000 0.380000
v -0.250000 -0.440000 0.380000
v -0.250000 -0.440000 -0.380000
v -0.410000 -0.440000 -0.380000
v -0.080000 -0.500000 0.380000
v 0.080000 -0.500000 0.380000
v 0.080000 -0.500000 -0.380000
v -0.080000 -0.500000 -0.380000
v -0.080000 -0.440000 0.380000
v 0.080000 -0.440000 0.380000
v 0.080000 -0.440000 -0.380000
v -0.080000 -0.440000 -0.380000
v 0.250000 -0.500000 0.380000
v 0.410000 -0.500000 0.380000
v 0.410000 -0.500000 -0.380000
v 0.250000 -0.500000 -0.380000
v 0.250000 -0.440000 0.380000
v 0.410000 -0.440000 0.380000
v 0.410000 -0.440000 -0.380000
v 0.250000 -0.440000 -0.380000
v -0.500000 -0.440000 0.260000
v 0.500000 -0.440000 0.260000
v 0.500000 -0.440000 0.180000
v -0.500000 -0.440000 0.180000
v -0.500000 -0.420000 0.260000
v 0.500000 -0.420000 0.260000
v 0.500000 -0.420000 0.180000
v -0.500000 -0.420000 0.180000
v -0.500000 -0.420000 0.230000
v 0.500000 -0.420000 0.230000
v 0.500000 -0.420000 0.210000
v -0.500000 -0.420000 0.210000
v -0.500000 -0.380000 0.230000
v 0.500000 -0.380000 0.230000
v 0.500000 -0.380000 0.210000
v -0.500000 -0.380000 0.210000
v -0.500000 -0.380000 0.245000
v 0.500000 -0.380000 0.245000
v 0.500000 -0.380000 0.195000
v -0.500000 -0.380000 0.195000
v -0.500000 -0.350000 0.245000
v 0.500000 -0.350000 0.245000
v 0.500000 -0.350000 0.195000
v -0.500000 -0.350000 0.195000
v -0.500000 -0.440000 -0.180000
v 0.500000 -0.440000 -0.180000
v 0.500000 -0.440000 -0.260000
v -0.500000 -0.440000 -0.260000
v -0.500000 -0.420000 -0.180000
v 0.500000 -0.420000 -0.180000
v 0.500000 -0.420000 -0.260000
v -0.500000 -0.420000 -0.260000
v -0.500000 -0.420000 -0.210000
v 0.500000 -0.420000 -0.210000
v 0.500000 -0.420000 -0.230000
v -0.500000 -0.420000 -0.230000
v -0.500000 -0.380000 -0.210000
v 0.500000 -0.380000 -0.210000
v 0.500000 -0.380000 -0.230000
v -0.500000 -0.380000 -0.230000
v -0.500000 -0.380000 -0.195000
v 0.500000 -0.380000 -0.195000
v 0.500000 -0.380000 -0.245000
v -0.500000 -0.380000 -0.245000
v -0.500000 -0.350000 -0.195000
v 0.500000 -0.350000 -0.195000
v 0.500000 -0.350000 -0.245000
v -0.500000 -0.350000 -0.245000
vn 0.000000 1.000000 0.000000
vn 0.000000 0.000000 -1.000000
vn 0.000000 0.000000 1.000000
vn 0.000000 -1.000000 0.000000
vn 0.000000 1.000000 0.000000
vn 0.000000 0.000000 -1.000000
vn 0.000000 0.000000 1.000000
vn -1.000000 0.000000 0.000000
vn 1.000000 0.000000 0.000000
vn 0.000000 -1.000000 0.000000
vn 0.000000 1.000000 0.000000
vn 0.000000 0.000000 -1.000000
vn 0.000000 0.000000 1.000000
vn -1.000000 0.000000 0.000000
vn 1.000000 0.000000 0.000000
vn 0.000000 -1.000000 0.000000
vn 0.000000 1.000000 0.000000
vn 0.000000 0.000000 -1.000000
vn 0.000000 0.000000 1.000000
vn -1.000000 0.000000 0.000000
vn 1.000000 0.000000 0.000000
vn 0.000000 -1.000000 0.000000
vn 0.000000 1.000000 0.000000
vn 0.000000 0.000000 -1.000000
vn 0.000000 0.000000 1.000000
vn -1.000000 0.000000 0.000000
vn 1.000000 0.000000 0.000000
vn 0.000000 -1.000000 0.000000
vn 0.000000 1.000000 0.000000
vn 0.000000 0.000000 -1.000000
vn 0.000000 0.000000 1.000000
vn -1.000000 0.000000 0.000000
vn 1.000000 0.000000 0.000000
vn 0.000000 -1.000000 0.000000
vn 0.000000 1.000000 0.000000
vn 0.000000 0.000000 -1.000000
vn 0.000000 0.000000 1.000000
vn -1.000000 0.000000 0.000000
vn 1.000000 0.000000 0.000000
vn 0.000000 -1.000000 0.000000
vn 0.000000 1.000000 0.000000
vn 0.000000 0.000000 -1.000000
vn 0.000000 0.000000 1.000000
vn -1.000000 0.000000 0.000000
vn 1.000000 0.000000 0.000000
vn 0.000000 -1.000000 0.000000
vn 0.000000 1.000000 0.000000
vn 0.000000 0.000000 -1.000000
vn 0.000000 0.000000 1.000000
vn -1.000000 0.000000 0.000000
vn 1.000000 0.000000 0.000000
vn 0.000000 -1.000000 0.000000
vn 0.000000 1.000000 0.000000
vn 0.000000 0.000000 -1.000000
vn 0.000000 0.000000 1.000000
vn -1.000000 0.000000 0.000000
vn 1.000000 0.000000 0.000000
usemtl rail_ballast
f 1//1 2//1 3//1
f 1//1 3//1 4//1
usemtl platform_curb
f 5//2 6//2 7//2
f 5//2 7//2 8//2
f 9//3 10//3 11//3
f 9//3 11//3 12//3
usemtl rail_tie
f 13//4 16//4 15//4
f 13//4 15//4 14//4
f 17//5 18//5 19//5
f 17//5 19//5 20//5
f 15//6 16//6 20//6
f 15//6 20//6 19//6
f 13//7 14//7 18//7
f 13//7 18//7 17//7
f 13//8 17//8 20//8
f 13//8 20//8 16//8
f 14//9 15//9 19//9
f 14//9 19//9 18//9
f 21//10 24//10 23//10
f 21//10 23//10 22//10
f 25//11 26//11 27//11
f 25//11 27//11 28//11
f 23//12 24//12 28//12
f 23//12 28//12 27//12
f 21//13 22//13 26//13
f 21//13 26//13 25//13
f 21//14 25//14 28//14
f 21//14 28//14 24//14
f 22//15 23//15 27//15
f 22//15 27//15 26//15
f 29//16 32//16 31//16
f 29//16 31//16 30//16
f 33//17 34//17 35//17
f 33//17 35//17 36//17
f 31//18 32//18 36//18
f 31//18 36//18 35//18
f 29//19 30//19 34//19
f 29//19 34//19 33//19
f 29//20 33//20 36//20
f 29//20 36//20 32//20
f 30//21 31//21 35//21
f 30//21 35//21 34//21
usemtl rail_steel
f 37//22 40//22 39//22
f 37//22 39//22 38//22
f 41//23 42//23 43//23
f 41//23 43//23 44//23
f 39//24 40//24 44//24
f 39//24 44//24 43//24
f 37//25 38//25 42//25
f 37//25 42//25 41//25
f 37//26 41//26 44//26
f 37//26 44//26 40//26
f 38//27 39//27 43//27
f 38//27 43//27 42//27
f 45//28 48//28 47//28
f 45//28 47//28 46//28
f 49//29 50//29 51//29
f 49//29 51//29 52//29
f 47//30 48//30 52//30
f 47//30 52//30 51//30
f 45//31 46//31 50//31
f 45//31 50//31 49//31
f 45//32 49//32 52//32
f 45//32 52//32 48//32
f 46//33 47//33 51//33
f 46//33 51//33 50//33
f 53//34 56//34 55//34
f 53//34 55//34 54//34
f 57//35 58//35 59//35
f 57//35 59//35 60//35
f 55//36 56//36 60//36
f 55//36 60//36 59//36
f 53//37 54//37 58//37
f 53//37 58//37 57//37
f 53//38 57//38 60//38
f 53//38 60//38 56//38
f 54//39 55//39 59//39
f 54//39 59//39 58//39
f 61//40 64//40 63//40
f 61//40 63//40 62//40
f 65//41 66//41 67//41
f 65//41 67//41 68//41
f 63//42 64//42 68//42
f 63//42 68//42 67//42
f 61//43 62//43 66//43
f 61//43 66//43 65//43
f 61//44 65//44 68//44
f 61//44 68//44 64//44
f 62//45 63//45 67//45
f 62//45 67//45 66//45
f 69//46 72//46 71//46
f 69//46 71//46 70//46
f 73//47 74//47 75//47
f 73//47 75//47 76//47
f 71//48 72//48 76//48
f 71//48 76//48 75//48
f 69//49 70//49 74//49
f 69//49 74//49 73//49
f 69//50 73//50 76//50
f 69//50 76//50 72//50
f 70//51 71//51 75//51
f 70//51 75//51 74//51
f 77//52 80//52 79//52
f 77//52 79//52 78//52
f 81//53 82//53 83//53
f 81//53 83//53 84//53
f 79//54 80//54 84//54
f 79//54 84//54 83//54
f 77//55 78//55 82//55
f 77//55 82//55 81//55
f 77//56 81//56 84//56
f 77//56 84//56 80//56
f 78//57 79//57 83//57
f 78//57 83//57 82//57
