# Generated Model
mtllib metro_wagon_l4.mtl
v -1.280000 -0.320000 0.320000
v -0.720000 -0.320000 0.320000
v -0.720000 -0.320000 -0.320000
v -1.280000 -0.320000 -0.320000
v -1.280000 -0.200000 0.320000
v -0.720000 -0.200000 0.320000
v -0.720000 -0.200000 -0.320000
v -1.280000 -0.200000 -0.320000
v -1.200000 -0.350000 0.250000
v -1.050000 -0.350000 0.250000
v -1.050000 -0.350000 0.190000
v -1.200000 -0.350000 0.190000
v -1.200000 -0.150000 0.250000
v -1.050000 -0.150000 0.250000
v -1.050000 -0.150000 0.190000
v -1.200000 -0.150000 0.190000
v -0.950000 -0.350000 0.250000
v -0.800000 -0.350000 0.250000
v -0.800000 -0.350000 0.190000
v -0.950000 -0.350000 0.190000
v -0.950000 -0.150000 0.250000
v -0.800000 -0.150000 0.250000
v -0.800000 -0.150000 0.190000
v -0.950000 -0.150000 0.190000
v -1.200000 -0.350000 -0.190000
v -1.050000 -0.350000 -0.190000
v -1.050000 -0.350000 -0.250000
v -1.200000 -0.350000 -0.250000
v -1.200000 -0.150000 -0.190000
v -1.050000 -0.150000 -0.190000
v -1.050000 -0.150000 -0.250000
v -1.200000 -0.150000 -0.250000
v -0.950000 -0.350000 -0.190000
v -0.800000 -0.350000 -0.190000
v -0.800000 -0.350000 -0.250000
v -0.950000 -0.350000 -0.250000
v -0.950000 -0.150000 -0.190000
v -0.800000 -0.150000 -0.190000
v -0.800000 -0.150000 -0.250000
v -0.950000 -0.150000 -0.250000
v 0.720000 -0.320000 0.320000
v 1.280000 -0.320000 0.320000
v 1.280000 -0.320000 -0.320000
v 0.720000 -0.320000 -0.320000
v 0.720000 -0.200000 0.320000
v 1.280000 -0.200000 0.320000
v 1.280000 -0.200000 -0.320000
v 0.720000 -0.200000 -0.320000
v 0.800000 -0.350000 0.250000
v 0.950000 -0.350000 0.250000
v 0.950000 -0.350000 0.190000
v 0.800000 -0.350000 0.190000
v 0.800000 -0.150000 0.250000
v 0.950000 -0.150000 0.250000
v 0.950000 -0.150000 0.190000
v 0.800000 -0.150000 0.190000
v 1.050000 -0.350000 0.250000
v 1.200000 -0.350000 0.250000
v 1.200000 -0.350000 0.190000
v 1.050000 -0.350000 0.190000
v 1.050000 -0.150000 0.250000
v 1.200000 -0.150000 0.250000
v 1.200000 -0.150000 0.190000
v 1.050000 -0.150000 0.190000
v 0.800000 -0.350000 -0.190000
v 0.950000 -0.350000 -0.190000
v 0.950000 -0.350000 -0.250000
v 0.800000 -0.350000 -0.250000
v 0.800000 -0.150000 -0.190000
v 0.950000 -0.150000 -0.190000
v 0.950000 -0.150000 -0.250000
v 0.800000 -0.150000 -0.250000
v 1.050000 -0.350000 -0.190000
v 1.200000 -0.350000 -0.190000
v 1.200000 -0.350000 -0.250000
v 1.050000 -0.350000 -0.250000
v 1.050000 -0.150000 -0.190000
v 1.200000 -0.150000 -0.190000
v 1.200000 -0.150000 -0.250000
v 1.050000 -0.150000 -0.250000
v -1.480000 -0.100000 0.420000
v 1.480000 -0.100000 0.420000
v 1.480000 -0.100000 -0.420000
v -1.480000 -0.100000 -0.420000
v -1.480000 0.000000 0.420000
v 1.480000 0.000000 0.420000
v 1.480000 0.000000 -0.420000
v -1.480000 0.000000 -0.420000
v -1.480000 0.000000 0.420000
v 1.480000 0.000000 0.420000
v 1.480000 0.000000 -0.420000
v -1.480000 0.000000 -0.420000
v -1.480000 0.030000 0.420000
v 1.480000 0.030000 0.420000
v 1.480000 0.030000 -0.420000
v -1.480000 0.030000 -0.420000
v -1.480000 0.030000 -0.400000
v 1.480000 0.030000 -0.400000
v 1.480000 0.030000 -0.440000
v -1.480000 0.030000 -0.440000
v -1.480000 0.120000 -0.400000
v 1.480000 0.120000 -0.400000
v 1.480000 0.120000 -0.440000
v -1.480000 0.120000 -0.440000
v -1.480000 0.030000 0.440000
v -0.450000 0.030000 0.440000
v -0.450000 0.030000 0.400000
v -1.480000 0.030000 0.400000
v -1.480000 0.120000 0.440000
v -0.450000 0.120000 0.440000
v -0.450000 0.120000 0.400000
v -1.480000 0.120000 0.400000
v 0.450000 0.030000 0.440000
v 1.480000 0.030000 0.440000
v 1.480000 0.030000 0.400000
v 0.450000 0.030000 0.400000
v 0.450000 0.120000 0.440000
v 1.480000 0.120000 0.440000
v 1.480000 0.120000 0.400000
v 0.450000 0.120000 0.400000
v -1.480000 0.120000 -0.400000
v 1.480000 0.120000 -0.400000
v 1.480000 0.120000 -0.440000
v -1.480000 0.120000 -0.440000
v -1.480000 0.380000 -0.400000
v 1.480000 0.380000 -0.400000
v 1.480000 0.380000 -0.440000
v -1.480000 0.380000 -0.440000
v -1.480000 0.120000 0.440000
v -0.450000 0.120000 0.440000
v -0.450000 0.120000 0.400000
v -1.480000 0.120000 0.400000
v -1.480000 0.380000 0.440000
v -0.450000 0.380000 0.440000
v -0.450000 0.380000 0.400000
v -1.480000 0.380000 0.400000
v 0.450000 0.120000 0.440000
v 1.480000 0.120000 0.440000
v 1.480000 0.120000 0.400000
v 0.450000 0.120000 0.400000
v 0.450000 0.380000 0.440000
v 1.480000 0.380000 0.440000
v 1.480000 0.380000 0.400000
v 0.450000 0.380000 0.400000
v -1.480000 0.380000 -0.390000
v 1.480000 0.380000 -0.390000
v 1.480000 0.380000 -0.430000
v -1.480000 0.380000 -0.430000
v -1.480000 0.400000 -0.390000
v 1.480000 0.400000 -0.390000
v 1.480000 0.400000 -0.430000
v -1.480000 0.400000 -0.430000
v -1.480000 0.380000 0.430000
v -0.450000 0.380000 0.430000
v -0.450000 0.380000 0.390000
v -1.480000 0.380000 0.390000
v -1.480000 0.400000 0.430000
v -0.450000 0.400000 0.430000
v -0.450000 0.400000 0.390000
v -1.480000 0.400000 0.390000
v 0.450000 0.380000 0.430000
v 1.480000 0.380000 0.430000
v 1.480000 0.380000 0.390000
v 0.450000 0.380000 0.390000
v 0.450000 0.400000 0.430000
v 1.480000 0.400000 0.430000
v 1.480000 0.400000 0.390000
v 0.450000 0.400000 0.390000
v -1.480000 0.400000 0.440000
v -1.440000 0.400000 0.440000
v -1.440000 0.400000 0.400000
v -1.480000 0.400000 0.400000
v -1.480000 0.700000 0.440000
v -1.440000 0.700000 0.440000
v -1.440000 0.700000 0.400000
v -1.480000 0.700000 0.400000
v -1.020000 0.400000 0.440000
v -0.980000 0.400000 0.440000
v -0.980000 0.400000 0.400000
v -1.020000 0.400000 0.400000
v -1.020000 0.700000 0.440000
v -0.980000 0.700000 0.440000
v -0.980000 0.700000 0.400000
v -1.020000 0.700000 0.400000
v -0.980000 0.400000 0.440000
v -0.940000 0.400000 0.440000
v -0.940000 0.400000 0.400000
v -0.980000 0.400000 0.400000
v -0.980000 0.700000 0.440000
v -0.940000 0.700000 0.440000
v -0.940000 0.700000 0.400000
v -0.980000 0.700000 0.400000
v -0.480000 0.400000 0.440000
v -0.440000 0.400000 0.440000
v -0.440000 0.400000 0.400000
v -0.480000 0.400000 0.400000
v -0.480000 0.700000 0.440000
v -0.440000 0.700000 0.440000
v -0.440000 0.700000 0.400000
v -0.480000 0.700000 0.400000
v 0.450000 0.400000 0.440000
v 0.490000 0.400000 0.440000
v 0.490000 0.400000 0.400000
v 0.450000 0.400000 0.400000
v 0.450000 0.700000 0.440000
v 0.490000 0.700000 0.440000
v 0.490000 0.700000 0.400000
v 0.450000 0.700000 0.400000
v 0.980000 0.400000 0.440000
v 1.020000 0.400000 0.440000
v 1.020000 0.400000 0.400000
v 0.980000 0.400000 0.400000
v 0.980000 0.700000 0.440000
v 1.020000 0.700000 0.440000
v 1.020000 0.700000 0.400000
v 0.980000 0.700000 0.400000
v 1.020000 0.400000 0.440000
v 1.060000 0.400000 0.440000
v 1.060000 0.400000 0.400000
v 1.020000 0.400000 0.400000
v 1.020000 0.700000 0.440000
v 1.060000 0.700000 0.440000
v 1.060000 0.700000 0.400000
v 1.020000 0.700000 0.400000
v 1.440000 0.400000 0.440000
v 1.480000 0.400000 0.440000
v 1.480000 0.400000 0.400000
v 1.440000 0.400000 0.400000
v 1.440000 0.700000 0.440000
v 1.480000 0.700000 0.440000
v 1.480000 0.700000 0.400000
v 1.440000 0.700000 0.400000
v -1.480000 0.400000 -0.400000
v -1.440000 0.400000 -0.400000
v -1.440000 0.400000 -0.440000
v -1.480000 0.400000 -0.440000
v -1.480000 0.700000 -0.400000
v -1.440000 0.700000 -0.400000
v -1.440000 0.700000 -0.440000
v -1.480000 0.700000 -0.440000
v -1.020000 0.400000 -0.400000
v -0.980000 0.400000 -0.400000
v -0.980000 0.400000 -0.440000
v -1.020000 0.400000 -0.440000
v -1.020000 0.700000 -0.400000
v -0.980000 0.700000 -0.400000
v -0.980000 0.700000 -0.440000
v -1.020000 0.700000 -0.440000
v -0.980000 0.400000 -0.400000
v -0.940000 0.400000 -0.400000
v -0.940000 0.400000 -0.440000
v -0.980000 0.400000 -0.440000
v -0.980000 0.700000 -0.400000
v -0.940000 0.700000 -0.400000
v -0.940000 0.700000 -0.440000
v -0.980000 0.700000 -0.440000
v -0.480000 0.400000 -0.400000
v -0.440000 0.400000 -0.400000
v -0.440000 0.400000 -0.440000
v -0.480000 0.400000 -0.440000
v -0.480000 0.700000 -0.400000
v -0.440000 0.700000 -0.400000
v -0.440000 0.700000 -0.440000
v -0.480000 0.700000 -0.440000
v -0.450000 0.400000 -0.400000
v -0.410000 0.400000 -0.400000
v -0.410000 0.400000 -0.440000
v -0.450000 0.400000 -0.440000
v -0.450000 0.700000 -0.400000
v -0.410000 0.700000 -0.400000
v -0.410000 0.700000 -0.440000
v -0.450000 0.700000 -0.440000
v -0.020000 0.400000 -0.400000
v 0.020000 0.400000 -0.400000
v 0.020000 0.400000 -0.440000
v -0.020000 0.400000 -0.440000
v -0.020000 0.700000 -0.400000
v 0.020000 0.700000 -0.400000
v 0.020000 0.700000 -0.440000
v -0.020000 0.700000 -0.440000
v 0.020000 0.400000 -0.400000
v 0.060000 0.400000 -0.400000
v 0.060000 0.400000 -0.440000
v 0.020000 0.400000 -0.440000
v 0.020000 0.700000 -0.400000
v 0.060000 0.700000 -0.400000
v 0.060000 0.700000 -0.440000
v 0.020000 0.700000 -0.440000
v 0.450000 0.400000 -0.400000
v 0.490000 0.400000 -0.400000
v 0.490000 0.400000 -0.440000
v 0.450000 0.400000 -0.440000
v 0.450000 0.700000 -0.400000
v 0.490000 0.700000 -0.400000
v 0.490000 0.700000 -0.440000
v 0.450000 0.700000 -0.440000
v 0.480000 0.400000 -0.400000
v 0.520000 0.400000 -0.400000
v 0.520000 0.400000 -0.440000
v 0.480000 0.400000 -0.440000
v 0.480000 0.700000 -0.400000
v 0.520000 0.700000 -0.400000
v 0.520000 0.700000 -0.440000
v 0.480000 0.700000 -0.440000
v 0.980000 0.400000 -0.400000
v 1.020000 0.400000 -0.400000
v 1.020000 0.400000 -0.440000
v 0.980000 0.400000 -0.440000
v 0.980000 0.700000 -0.400000
v 1.020000 0.700000 -0.400000
v 1.020000 0.700000 -0.440000
v 0.980000 0.700000 -0.440000
v 1.020000 0.400000 -0.400000
v 1.060000 0.400000 -0.400000
v 1.060000 0.400000 -0.440000
v 1.020000 0.400000 -0.440000
v 1.020000 0.700000 -0.400000
v 1.060000 0.700000 -0.400000
v 1.060000 0.700000 -0.440000
v 1.020000 0.700000 -0.440000
v 1.440000 0.400000 -0.400000
v 1.480000 0.400000 -0.400000
v 1.480000 0.400000 -0.440000
v 1.440000 0.400000 -0.440000
v 1.440000 0.700000 -0.400000
v 1.480000 0.700000 -0.400000
v 1.480000 0.700000 -0.440000
v 1.440000 0.700000 -0.440000
v -1.480000 0.700000 -0.390000
v 1.480000 0.700000 -0.390000
v 1.480000 0.700000 -0.430000
v -1.480000 0.700000 -0.430000
v -1.480000 0.720000 -0.390000
v 1.480000 0.720000 -0.390000
v 1.480000 0.720000 -0.430000
v -1.480000 0.720000 -0.430000
v -1.480000 0.700000 0.430000
v -0.450000 0.700000 0.430000
v -0.450000 0.700000 0.390000
v -1.480000 0.700000 0.390000
v -1.480000 0.720000 0.430000
v -0.450000 0.720000 0.430000
v -0.450000 0.720000 0.390000
v -1.480000 0.720000 0.390000
v 0.450000 0.700000 0.430000
v 1.480000 0.700000 0.430000
v 1.480000 0.700000 0.390000
v 0.450000 0.700000 0.390000
v 0.450000 0.720000 0.430000
v 1.480000 0.720000 0.430000
v 1.480000 0.720000 0.390000
v 0.450000 0.720000 0.390000
v -1.480000 0.720000 -0.400000
v 1.480000 0.720000 -0.400000
v 1.480000 0.720000 -0.440000
v -1.480000 0.720000 -0.440000
v -1.480000 0.820000 -0.400000
v 1.480000 0.820000 -0.400000
v 1.480000 0.820000 -0.440000
v -1.480000 0.820000 -0.440000
v -1.480000 0.720000 0.440000
v 1.480000 0.720000 0.440000
v 1.480000 0.720000 0.400000
v -1.480000 0.720000 0.400000
v -1.480000 0.820000 0.440000
v 1.480000 0.820000 0.440000
v 1.480000 0.820000 0.400000
v -1.480000 0.820000 0.400000
v -1.480000 0.820000 0.420000
v 1.480000 0.820000 0.420000
v 1.480000 0.820000 -0.420000
v -1.480000 0.820000 -0.420000
v -1.480000 0.850000 0.420000
v 1.480000 0.850000 0.420000
v 1.480000 0.850000 -0.420000
v -1.480000 0.850000 -0.420000
v -1.100000 0.850000 0.280000
v -0.400000 0.850000 0.280000
v -0.400000 0.850000 -0.280000
v -1.100000 0.850000 -0.280000
v -1.100000 0.910000 0.280000
v -0.400000 0.910000 0.280000
v -0.400000 0.910000 -0.280000
v -1.100000 0.910000 -0.280000
v 0.400000 0.850000 0.280000
v 1.100000 0.850000 0.280000
v 1.100000 0.850000 -0.280000
v 0.400000 0.850000 -0.280000
v 0.400000 0.910000 0.280000
v 1.100000 0.910000 0.280000
v 1.100000 0.910000 -0.280000
v 0.400000 0.910000 -0.280000
v -1.300000 0.800000 0.060000
v 1.300000 0.800000 0.060000
v 1.300000 0.800000 -0.060000
v -1.300000 0.800000 -0.060000
v -1.300000 0.820000 0.060000
v 1.300000 0.820000 0.060000
v 1.300000 0.820000 -0.060000
v -1.300000 0.820000 -0.060000
v -1.400000 0.030000 -0.160000
v -0.600000 0.030000 -0.160000
v -0.600000 0.030000 -0.380000
v -1.400000 0.030000 -0.380000
v -1.400000 0.220000 -0.160000
v -0.600000 0.220000 -0.160000
v -0.600000 0.220000 -0.380000
v -1.400000 0.220000 -0.380000
v -1.400000 0.220000 -0.340000
v -0.600000 0.220000 -0.340000
v -0.600000 0.220000 -0.380000
v -1.400000 0.220000 -0.380000
v -1.400000 0.420000 -0.340000
v -0.600000 0.420000 -0.340000
v -0.600000 0.420000 -0.380000
v -1.400000 0.420000 -0.380000
v -0.350000 0.030000 -0.160000
v 0.350000 0.030000 -0.160000
v 0.350000 0.030000 -0.380000
v -0.350000 0.030000 -0.380000
v -0.350000 0.220000 -0.160000
v 0.350000 0.220000 -0.160000
v 0.350000 0.220000 -0.380000
v -0.350000 0.220000 -0.380000
v -0.350000 0.220000 -0.340000
v 0.350000 0.220000 -0.340000
v 0.350000 0.220000 -0.380000
v -0.350000 0.220000 -0.380000
v -0.350000 0.420000 -0.340000
v 0.350000 0.420000 -0.340000
v 0.350000 0.420000 -0.380000
v -0.350000 0.420000 -0.380000
v 0.600000 0.030000 -0.160000
v 1.400000 0.030000 -0.160000
v 1.400000 0.030000 -0.380000
v 0.600000 0.030000 -0.380000
v 0.600000 0.220000 -0.160000
v 1.400000 0.220000 -0.160000
v 1.400000 0.220000 -0.380000
v 0.600000 0.220000 -0.380000
v 0.600000 0.220000 -0.340000
v 1.400000 0.220000 -0.340000
v 1.400000 0.220000 -0.380000
v 0.600000 0.220000 -0.380000
v 0.600000 0.420000 -0.340000
v 1.400000 0.420000 -0.340000
v 1.400000 0.420000 -0.380000
v 0.600000 0.420000 -0.380000
v -0.920000 0.030000 0.020000
v -0.880000 0.030000 0.020000
v -0.880000 0.030000 -0.020000
v -0.920000 0.030000 -0.020000
v -0.920000 0.800000 0.020000
v -0.880000 0.800000 0.020000
v -0.880000 0.800000 -0.020000
v -0.920000 0.800000 -0.020000
v -0.020000 0.030000 0.020000
v 0.020000 0.030000 0.020000
v 0.020000 0.030000 -0.020000
v -0.020000 0.030000 -0.020000
v -0.020000 0.800000 0.020000
v 0.020000 0.800000 0.020000
v 0.020000 0.800000 -0.020000
v -0.020000 0.800000 -0.020000
v 0.880000 0.030000 0.020000
v 0.920000 0.030000 0.020000
v 0.920000 0.030000 -0.020000
v 0.880000 0.030000 -0.020000
v 0.880000 0.800000 0.020000
v 0.920000 0.800000 0.020000
v 0.920000 0.800000 -0.020000
v 0.880000 0.800000 -0.020000
v -1.400000 0.720000 0.150000
v 1.400000 0.720000 0.150000
v 1.400000 0.720000 0.120000
v -1.400000 0.720000 0.120000
v -1.400000 0.740000 0.150000
v 1.400000 0.740000 0.150000
v 1.400000 0.740000 0.120000
v -1.400000 0.740000 0.120000
v -1.400000 0.720000 -0.120000
v 1.400000 0.720000 -0.120000
v 1.400000 0.720000 -0.150000
v -1.400000 0.720000 -0.150000
v -1.400000 0.740000 -0.120000
v 1.400000 0.740000 -0.120000
v 1.400000 0.740000 -0.150000
v -1.400000 0.740000 -0.150000
v -1.500000 0.030000 0.420000
v -1.480000 0.030000 0.420000
v -1.480000 0.030000 0.260000
v -1.500000 0.030000 0.260000
v -1.500000 0.820000 0.420000
v -1.480000 0.820000 0.420000
v -1.480000 0.820000 0.260000
v -1.500000 0.820000 0.260000
v -1.500000 0.030000 -0.260000
v -1.480000 0.030000 -0.260000
v -1.480000 0.030000 -0.420000
v -1.500000 0.030000 -0.420000
v -1.500000 0.820000 -0.260000
v -1.480000 0.820000 -0.260000
v -1.480000 0.820000 -0.420000
v -1.500000 0.820000 -0.420000
v -1.500000 0.740000 0.420000
v -1.480000 0.740000 0.420000
v -1.480000 0.740000 -0.420000
v -1.500000 0.740000 -0.420000
v -1.500000 0.820000 0.420000
v -1.480000 0.820000 0.420000
v -1.480000 0.820000 -0.420000
v -1.500000 0.820000 -0.420000
v 1.480000 0.030000 0.420000
v 1.500000 0.030000 0.420000
v 1.500000 0.030000 0.260000
v 1.480000 0.030000 0.260000
v 1.480000 0.820000 0.420000
v 1.500000 0.820000 0.420000
v 1.500000 0.820000 0.260000
v 1.480000 0.820000 0.260000
v 1.480000 0.030000 -0.260000
v 1.500000 0.030000 -0.260000
v 1.500000 0.030000 -0.420000
v 1.480000 0.030000 -0.420000
v 1.480000 0.820000 -0.260000
v 1.500000 0.820000 -0.260000
v 1.500000 0.820000 -0.420000
v 1.480000 0.820000 -0.420000
v 1.480000 0.740000 0.420000
v 1.500000 0.740000 0.420000
v 1.500000 0.740000 -0.420000
v 1.480000 0.740000 -0.420000
v 1.480000 0.820000 0.420000
v 1.500000 0.820000 0.420000
v 1.500000 0.820000 -0.420000
v 1.480000 0.820000 -0.420000
v -0.450000 0.020000 0.440000
v 0.450000 0.020000 0.440000
v 0.450000 0.020000 0.380000
v -0.450000 0.020000 0.380000
v -0.450000 0.030000 0.440000
v 0.450000 0.030000 0.440000
v 0.450000 0.030000 0.380000
v -0.450000 0.030000 0.380000
v -0.620000 0.030000 0.430000
v -0.450000 0.030000 0.430000
v -0.450000 0.030000 0.410000
v -0.620000 0.030000 0.410000
v -0.620000 0.720000 0.430000
v -0.450000 0.720000 0.430000
v -0.450000 0.720000 0.410000
v -0.620000 0.720000 0.410000
v 0.450000 0.030000 0.430000
v 0.620000 0.030000 0.430000
v 0.620000 0.030000 0.410000
v 0.450000 0.030000 0.410000
v 0.450000 0.720000 0.430000
v 0.620000 0.720000 0.430000
v 0.620000 0.720000 0.410000
v 0.450000 0.720000 0.410000
vn 0.000000 -1.000000 0.000000
vn 0.000000 1.000000 0.000000
vn 0.000000 0.000000 -1.000000
vn 0.000000 0.000000 1.000000
vn -1.000000 0.000000 0.000000
vn 1.000000 0.000000 0.000000
vn 0.000000 -1.000000 0.000000
vn 0.000000 1.000000 0.000000
vn 0.000000 0.000000 -1.000000
vn 0.000000 0.000000 1.000000
vn -1.000000 0.000000 0.000000
vn 1.000000 0.000000 0.000000
vn 0.000000 -1.000000 0.000000
vn 0.000000 1.000000 0.000000
vn 0.000000 0.000000 -1.000000
vn 0.000000 0.000000 1.000000
vn -1.000000 0.000000 0.000000
vn 1.000000 0.000000 0.000000
vn 0.000000 -1.000000 0.000000
vn 0.000000 1.000000 0.000000
vn 0.000000 0.000000 -1.000000
vn 0.000000 0.000000 1.000000
vn -1.000000 0.000000 0.000000
vn 1.000000 0.000000 0.000000
vn 0.000000 -1.000000 0.000000
vn 0.000000 1.000000 0.000000
vn 0.000000 0.000000 -1.000000
vn 0.000000 0.000000 1.000000
vn -1.000000 0.000000 0.000000
vn 1.000000 0.000000 0.000000
vn 0.000000 -1.000000 0.000000
vn 0.000000 1.000000 0.000000
vn 0.000000 0.000000 -1.000000
vn 0.000000 0.000000 1.000000
vn -1.000000 0.000000 0.000000
vn 1.000000 0.000000 0.000000
vn 0.000000 -1.000000 0.000000
vn 0.000000 1.000000 0.000000
vn 0.000000 0.000000 -1.000000
vn 0.000000 0.000000 1.000000
vn -1.000000 0.000000 0.000000
vn 1.000000 0.000000 0.000000
vn 0.000000 -1.000000 0.000000
vn 0.000000 1.000000 0.000000
vn 0.000000 0.000000 -1.000000
vn 0.000000 0.000000 1.000000
vn -1.000000 0.000000 0.000000
vn 1.000000 0.000000 0.000000
vn 0.000000 -1.000000 0.000000
vn 0.000000 1.000000 0.000000
vn 0.000000 0.000000 -1.000000
vn 0.000000 0.000000 1.000000
vn -1.000000 0.000000 0.000000
vn 1.000000 0.000000 0.000000
vn 0.000000 -1.000000 0.000000
vn 0.000000 1.000000 0.000000
vn 0.000000 0.000000 -1.000000
vn 0.000000 0.000000 1.000000
vn -1.000000 0.000000 0.000000
vn 1.000000 0.000000 0.000000
vn 0.000000 -1.000000 0.000000
vn 0.000000 1.000000 0.000000
vn 0.000000 0.000000 -1.000000
vn 0.000000 0.000000 1.000000
vn -1.000000 0.000000 0.000000
vn 1.000000 0.000000 0.000000
vn 0.000000 -1.000000 0.000000
vn 0.000000 1.000000 0.000000
vn 0.000000 0.000000 -1.000000
vn 0.000000 0.000000 1.000000
vn -1.000000 0.000000 0.000000
vn 1.000000 0.000000 0.000000
vn 0.000000 -1.000000 0.000000
vn 0.000000 1.000000 0.000000
vn 0.000000 0.000000 -1.000000
vn 0.000000 0.000000 1.000000
vn -1.000000 0.000000 0.000000
vn 1.000000 0.000000 0.000000
vn 0.000000 -1.000000 0.000000
vn 0.000000 1.000000 0.000000
vn 0.000000 0.000000 -1.000000
vn 0.000000 0.000000 1.000000
vn -1.000000 0.000000 0.000000
vn 1.000000 0.000000 0.000000
vn 0.000000 -1.000000 0.000000
vn 0.000000 1.000000 0.000000
vn 0.000000 0.000000 -1.000000
vn 0.000000 0.000000 1.000000
vn -1.000000 0.000000 0.000000
vn 1.000000 0.000000 0.000000
vn 0.000000 -1.000000 0.000000
vn 0.000000 1.000000 0.000000
vn 0.000000 0.000000 -1.000000
vn 0.000000 0.000000 1.000000
vn -1.000000 0.000000 0.000000
vn 1.000000 0.000000 0.000000
vn 0.000000 -1.000000 0.000000
vn 0.000000 1.000000 0.000000
vn 0.000000 0.000000 -1.000000
vn 0.000000 0.000000 1.000000
vn -1.000000 0.000000 0.000000
vn 1.000000 0.000000 0.000000
vn 0.000000 -1.000000 0.000000
vn 0.000000 1.000000 0.000000
vn 0.000000 0.000000 -1.000000
vn 0.000000 0.000000 1.000000
vn -1.000000 0.000000 0.000000
vn 1.000000 0.000000 0.000000
vn 0.000000 -1.000000 0.000000
vn 0.000000 1.000000 0.000000
vn 0.000000 0.000000 -1.000000
vn 0.000000 0.000000 1.000000
vn -1.000000 0.000000 0.000000
vn 1.000000 0.000000 0.000000
vn 0.000000 -1.000000 0.000000
vn 0.000000 1.000000 0.000000
vn 0.000000 0.000000 -1.000000
vn 0.000000 0.000000 1.000000
vn -1.000000 0.000000 0.000000
vn 1.000000 0.000000 0.000000
vn 0.000000 -1.000000 0.000000
vn 0.000000 1.000000 0.000000
vn 0.000000 0.000000 -1.000000
vn 0.000000 0.000000 1.000000
vn -1.000000 0.000000 0.000000
vn 1.000000 0.000000 0.000000
vn 0.000000 -1.000000 0.000000
vn 0.000000 1.000000 0.000000
vn 0.000000 0.000000 -1.000000
vn 0.000000 0.000000 1.000000
vn -1.000000 0.000000 0.000000
vn 1.000000 0.000000 0.000000
vn 0.000000 -1.000000 0.000000
vn 0.000000 1.000000 0.000000
vn 0.000000 0.000000 -1.000000
vn 0.000000 0.000000 1.000000
vn -1.000000 0.000000 0.000000
vn 1.000000 0.000000 0.000000
vn 0.000000 -1.000000 0.000000
vn 0.000000 1.000000 0.000000
vn 0.000000 0.000000 -1.000000
vn 0.000000 0.000000 1.000000
vn -1.000000 0.000000 0.000000
vn 1.000000 0.000000 0.000000
vn 0.000000 -1.000000 0.000000
vn 0.000000 1.000000 0.000000
vn 0.000000 0.000000 -1.000000
vn 0.000000 0.000000 1.000000
vn -1.000000 0.000000 0.000000
vn 1.000000 0.000000 0.000000
vn 0.000000 -1.000000 0.000000
vn 0.000000 1.000000 0.000000
vn 0.000000 0.000000 -1.000000
vn 0.000000 0.000000 1.000000
vn -1.000000 0.000000 0.000000
vn 1.000000 0.000000 0.000000
vn 0.000000 -1.000000 0.000000
vn 0.000000 1.000000 0.000000
vn 0.000000 0.000000 -1.000000
vn 0.000000 0.000000 1.000000
vn -1.000000 0.000000 0.000000
vn 1.000000 0.000000 0.000000
vn 0.000000 -1.000000 0.000000
vn 0.000000 1.000000 0.000000
vn 0.000000 0.000000 -1.000000
vn 0.000000 0.000000 1.000000
vn -1.000000 0.000000 0.000000
vn 1.000000 0.000000 0.000000
vn 0.000000 -1.000000 0.000000
vn 0.000000 1.000000 0.000000
vn 0.000000 0.000000 -1.000000
vn 0.000000 0.000000 1.000000
vn -1.000000 0.000000 0.000000
vn 1.000000 0.000000 0.000000
vn 0.000000 -1.000000 0.000000
vn 0.000000 1.000000 0.000000
vn 0.000000 0.000000 -1.000000
vn 0.000000 0.000000 1.000000
vn -1.000000 0.000000 0.000000
vn 1.000000 0.000000 0.000000
vn 0.000000 -1.000000 0.000000
vn 0.000000 1.000000 0.000000
vn 0.000000 0.000000 -1.000000
vn 0.000000 0.000000 1.000000
vn -1.000000 0.000000 0.000000
vn 1.000000 0.000000 0.000000
vn 0.000000 -1.000000 0.000000
vn 0.000000 1.000000 0.000000
vn 0.000000 0.000000 -1.000000
vn 0.000000 0.000000 1.000000
vn -1.000000 0.000000 0.000000
vn 1.000000 0.000000 0.000000
vn 0.000000 -1.000000 0.000000
vn 0.000000 1.000000 0.000000
vn 0.000000 0.000000 -1.000000
vn 0.000000 0.000000 1.000000
vn -1.000000 0.000000 0.000000
vn 1.000000 0.000000 0.000000
vn 0.000000 -1.000000 0.000000
vn 0.000000 1.000000 0.000000
vn 0.000000 0.000000 -1.000000
vn 0.000000 0.000000 1.000000
vn -1.000000 0.000000 0.000000
vn 1.000000 0.000000 0.000000
vn 0.000000 -1.000000 0.000000
vn 0.000000 1.000000 0.000000
vn 0.000000 0.000000 -1.000000
vn 0.000000 0.000000 1.000000
vn -1.000000 0.000000 0.000000
vn 1.000000 0.000000 0.000000
vn 0.000000 -1.000000 0.000000
vn 0.000000 1.000000 0.000000
vn 0.000000 0.000000 -1.000000
vn 0.000000 0.000000 1.000000
vn -1.000000 0.000000 0.000000
vn 1.000000 0.000000 0.000000
vn 0.000000 -1.000000 0.000000
vn 0.000000 1.000000 0.000000
vn 0.000000 0.000000 -1.000000
vn 0.000000 0.000000 1.000000
vn -1.000000 0.000000 0.000000
vn 1.000000 0.000000 0.000000
vn 0.000000 -1.000000 0.000000
vn 0.000000 1.000000 0.000000
vn 0.000000 0.000000 -1.000000
vn 0.000000 0.000000 1.000000
vn -1.000000 0.000000 0.000000
vn 1.000000 0.000000 0.000000
vn 0.000000 -1.000000 0.000000
vn 0.000000 1.000000 0.000000
vn 0.000000 0.000000 -1.000000
vn 0.000000 0.000000 1.000000
vn -1.000000 0.000000 0.000000
vn 1.000000 0.000000 0.000000
vn 0.000000 -1.000000 0.000000
vn 0.000000 1.000000 0.000000
vn 0.000000 0.000000 -1.000000
vn 0.000000 0.000000 1.000000
vn -1.000000 0.000000 0.000000
vn 1.000000 0.000000 0.000000
vn 0.000000 -1.000000 0.000000
vn 0.000000 1.000000 0.000000
vn 0.000000 0.000000 -1.000000
vn 0.000000 0.000000 1.000000
vn -1.000000 0.000000 0.000000
vn 1.000000 0.000000 0.000000
vn 0.000000 -1.000000 0.000000
vn 0.000000 1.000000 0.000000
vn 0.000000 0.000000 -1.000000
vn 0.000000 0.000000 1.000000
vn -1.000000 0.000000 0.000000
vn 1.000000 0.000000 0.000000
vn 0.000000 -1.000000 0.000000
vn 0.000000 1.000000 0.000000
vn 0.000000 0.000000 -1.000000
vn 0.000000 0.000000 1.000000
vn -1.000000 0.000000 0.000000
vn 1.000000 0.000000 0.000000
vn 0.000000 -1.000000 0.000000
vn 0.000000 1.000000 0.000000
vn 0.000000 0.000000 -1.000000
vn 0.000000 0.000000 1.000000
vn -1.000000 0.000000 0.000000
vn 1.000000 0.000000 0.000000
vn 0.000000 -1.000000 0.000000
vn 0.000000 1.000000 0.000000
vn 0.000000 0.000000 -1.000000
vn 0.000000 0.000000 1.000000
vn -1.000000 0.000000 0.000000
vn 1.000000 0.000000 0.000000
vn 0.000000 -1.000000 0.000000
vn 0.000000 1.000000 0.000000
vn 0.000000 0.000000 -1.000000
vn 0.000000 0.000000 1.000000
vn -1.000000 0.000000 0.000000
vn 1.000000 0.000000 0.000000
vn 0.000000 -1.000000 0.000000
vn 0.000000 1.000000 0.000000
vn 0.000000 0.000000 -1.000000
vn 0.000000 0.000000 1.000000
vn -1.000000 0.000000 0.000000
vn 1.000000 0.000000 0.000000
vn 0.000000 -1.000000 0.000000
vn 0.000000 1.000000 0.000000
vn 0.000000 0.000000 -1.000000
vn 0.000000 0.000000 1.000000
vn -1.000000 0.000000 0.000000
vn 1.000000 0.000000 0.000000
vn 0.000000 -1.000000 0.000000
vn 0.000000 1.000000 0.000000
vn 0.000000 0.000000 -1.000000
vn 0.000000 0.000000 1.000000
vn -1.000000 0.000000 0.000000
vn 1.000000 0.000000 0.000000
vn 0.000000 -1.000000 0.000000
vn 0.000000 1.000000 0.000000
vn 0.000000 0.000000 -1.000000
vn 0.000000 0.000000 1.000000
vn -1.000000 0.000000 0.000000
vn 1.000000 0.000000 0.000000
vn 0.000000 -1.000000 0.000000
vn 0.000000 1.000000 0.000000
vn 0.000000 0.000000 -1.000000
vn 0.000000 0.000000 1.000000
vn -1.000000 0.000000 0.000000
vn 1.000000 0.000000 0.000000
vn 0.000000 -1.000000 0.000000
vn 0.000000 1.000000 0.000000
vn 0.000000 0.000000 -1.000000
vn 0.000000 0.000000 1.000000
vn -1.000000 0.000000 0.000000
vn 1.000000 0.000000 0.000000
vn 0.000000 -1.000000 0.000000
vn 0.000000 1.000000 0.000000
vn 0.000000 0.000000 -1.000000
vn 0.000000 0.000000 1.000000
vn -1.000000 0.000000 0.000000
vn 1.000000 0.000000 0.000000
vn 0.000000 -1.000000 0.000000
vn 0.000000 1.000000 0.000000
vn 0.000000 0.000000 -1.000000
vn 0.000000 0.000000 1.000000
vn -1.000000 0.000000 0.000000
vn 1.000000 0.000000 0.000000
vn 0.000000 -1.000000 0.000000
vn 0.000000 1.000000 0.000000
vn 0.000000 0.000000 -1.000000
vn 0.000000 0.000000 1.000000
vn -1.000000 0.000000 0.000000
vn 1.000000 0.000000 0.000000
vn 0.000000 -1.000000 0.000000
vn 0.000000 1.000000 0.000000
vn 0.000000 0.000000 -1.000000
vn 0.000000 0.000000 1.000000
vn -1.000000 0.000000 0.000000
vn 1.000000 0.000000 0.000000
vn 0.000000 -1.000000 0.000000
vn 0.000000 1.000000 0.000000
vn 0.000000 0.000000 -1.000000
vn 0.000000 0.000000 1.000000
vn -1.000000 0.000000 0.000000
vn 1.000000 0.000000 0.000000
vn 0.000000 -1.000000 0.000000
vn 0.000000 1.000000 0.000000
vn 0.000000 0.000000 -1.000000
vn 0.000000 0.000000 1.000000
vn -1.000000 0.000000 0.000000
vn 1.000000 0.000000 0.000000
vn 0.000000 -1.000000 0.000000
vn 0.000000 1.000000 0.000000
vn 0.000000 0.000000 -1.000000
vn 0.000000 0.000000 1.000000
vn -1.000000 0.000000 0.000000
vn 1.000000 0.000000 0.000000
vn 0.000000 -1.000000 0.000000
vn 0.000000 1.000000 0.000000
vn 0.000000 0.000000 -1.000000
vn 0.000000 0.000000 1.000000
vn -1.000000 0.000000 0.000000
vn 1.000000 0.000000 0.000000
vn 0.000000 -1.000000 0.000000
vn 0.000000 1.000000 0.000000
vn 0.000000 0.000000 -1.000000
vn 0.000000 0.000000 1.000000
vn -1.000000 0.000000 0.000000
vn 1.000000 0.000000 0.000000
vn 0.000000 -1.000000 0.000000
vn 0.000000 1.000000 0.000000
vn 0.000000 0.000000 -1.000000
vn 0.000000 0.000000 1.000000
vn -1.000000 0.000000 0.000000
vn 1.000000 0.000000 0.000000
vn 0.000000 -1.000000 0.000000
vn 0.000000 1.000000 0.000000
vn 0.000000 0.000000 -1.000000
vn 0.000000 0.000000 1.000000
vn -1.000000 0.000000 0.000000
vn 1.000000 0.000000 0.000000
vn 0.000000 -1.000000 0.000000
vn 0.000000 1.000000 0.000000
vn 0.000000 0.000000 -1.000000
vn 0.000000 0.000000 1.000000
vn -1.000000 0.000000 0.000000
vn 1.000000 0.000000 0.000000
vn 0.000000 -1.000000 0.000000
vn 0.000000 1.000000 0.000000
vn 0.000000 0.000000 -1.000000
vn 0.000000 0.000000 1.000000
vn -1.000000 0.000000 0.000000
vn 1.000000 0.000000 0.000000
vn 0.000000 -1.000000 0.000000
vn 0.000000 1.000000 0.000000
vn 0.000000 0.000000 -1.000000
vn 0.000000 0.000000 1.000000
vn -1.000000 0.000000 0.000000
vn 1.000000 0.000000 0.000000
vn 0.000000 -1.000000 0.000000
vn 0.000000 1.000000 0.000000
vn 0.000000 0.000000 -1.000000
vn 0.000000 0.000000 1.000000
vn -1.000000 0.000000 0.000000
vn 1.000000 0.000000 0.000000
vn 0.000000 -1.000000 0.000000
vn 0.000000 1.000000 0.000000
vn 0.000000 0.000000 -1.000000
vn 0.000000 0.000000 1.000000
vn -1.000000 0.000000 0.000000
vn 1.000000 0.000000 0.000000
vn 0.000000 -1.000000 0.000000
vn 0.000000 1.000000 0.000000
vn 0.000000 0.000000 -1.000000
vn 0.000000 0.000000 1.000000
vn -1.000000 0.000000 0.000000
vn 1.000000 0.000000 0.000000
vn 0.000000 -1.000000 0.000000
vn 0.000000 1.000000 0.000000
vn 0.000000 0.000000 -1.000000
vn 0.000000 0.000000 1.000000
vn -1.000000 0.000000 0.000000
vn 1.000000 0.000000 0.000000
usemtl bogie_dark
f 1//1 4//1 3//1
f 1//1 3//1 2//1
f 5//2 6//2 7//2
f 5//2 7//2 8//2
f 3//3 4//3 8//3
f 3//3 8//3 7//3
f 1//4 2//4 6//4
f 1//4 6//4 5//4
f 1//5 5//5 8//5
f 1//5 8//5 4//5
f 2//6 3//6 7//6
f 2//6 7//6 6//6
usemtl wheel_steel
f 9//7 12//7 11//7
f 9//7 11//7 10//7
f 13//8 14//8 15//8
f 13//8 15//8 16//8
f 11//9 12//9 16//9
f 11//9 16//9 15//9
f 9//10 10//10 14//10
f 9//10 14//10 13//10
f 9//11 13//11 16//11
f 9//11 16//11 12//11
f 10//12 11//12 15//12
f 10//12 15//12 14//12
f 17//13 20//13 19//13
f 17//13 19//13 18//13
f 21//14 22//14 23//14
f 21//14 23//14 24//14
f 19//15 20//15 24//15
f 19//15 24//15 23//15
f 17//16 18//16 22//16
f 17//16 22//16 21//16
f 17//17 21//17 24//17
f 17//17 24//17 20//17
f 18//18 19//18 23//18
f 18//18 23//18 22//18
f 25//19 28//19 27//19
f 25//19 27//19 26//19
f 29//20 30//20 31//20
f 29//20 31//20 32//20
f 27//21 28//21 32//21
f 27//21 32//21 31//21
f 25//22 26//22 30//22
f 25//22 30//22 29//22
f 25//23 29//23 32//23
f 25//23 32//23 28//23
f 26//24 27//24 31//24
f 26//24 31//24 30//24
f 33//25 36//25 35//25
f 33//25 35//25 34//25
f 37//26 38//26 39//26
f 37//26 39//26 40//26
f 35//27 36//27 40//27
f 35//27 40//27 39//27
f 33//28 34//28 38//28
f 33//28 38//28 37//28
f 33//29 37//29 40//29
f 33//29 40//29 36//29
f 34//30 35//30 39//30
f 34//30 39//30 38//30
usemtl bogie_dark
f 41//31 44//31 43//31
f 41//31 43//31 42//31
f 45//32 46//32 47//32
f 45//32 47//32 48//32
f 43//33 44//33 48//33
f 43//33 48//33 47//33
f 41//34 42//34 46//34
f 41//34 46//34 45//34
f 41//35 45//35 48//35
f 41//35 48//35 44//35
f 42//36 43//36 47//36
f 42//36 47//36 46//36
usemtl wheel_steel
f 49//37 52//37 51//37
f 49//37 51//37 50//37
f 53//38 54//38 55//38
f 53//38 55//38 56//38
f 51//39 52//39 56//39
f 51//39 56//39 55//39
f 49//40 50//40 54//40
f 49//40 54//40 53//40
f 49//41 53//41 56//41
f 49//41 56//41 52//41
f 50//42 51//42 55//42
f 50//42 55//42 54//42
f 57//43 60//43 59//43
f 57//43 59//43 58//43
f 61//44 62//44 63//44
f 61//44 63//44 64//44
f 59//45 60//45 64//45
f 59//45 64//45 63//45
f 57//46 58//46 62//46
f 57//46 62//46 61//46
f 57//47 61//47 64//47
f 57//47 64//47 60//47
f 58//48 59//48 63//48
f 58//48 63//48 62//48
f 65//49 68//49 67//49
f 65//49 67//49 66//49
f 69//50 70//50 71//50
f 69//50 71//50 72//50
f 67//51 68//51 72//51
f 67//51 72//51 71//51
f 65//52 66//52 70//52
f 65//52 70//52 69//52
f 65//53 69//53 72//53
f 65//53 72//53 68//53
f 66//54 67//54 71//54
f 66//54 71//54 70//54
f 73//55 76//55 75//55
f 73//55 75//55 74//55
f 77//56 78//56 79//56
f 77//56 79//56 80//56
f 75//57 76//57 80//57
f 75//57 80//57 79//57
f 73//58 74//58 78//58
f 73//58 78//58 77//58
f 73//59 77//59 80//59
f 73//59 80//59 76//59
f 74//60 75//60 79//60
f 74//60 79//60 78//60
usemtl bogie_dark
f 81//61 84//61 83//61
f 81//61 83//61 82//61
f 85//62 86//62 87//62
f 85//62 87//62 88//62
f 83//63 84//63 88//63
f 83//63 88//63 87//63
f 81//64 82//64 86//64
f 81//64 86//64 85//64
f 81//65 85//65 88//65
f 81//65 88//65 84//65
f 82//66 83//66 87//66
f 82//66 87//66 86//66
usemtl floor_mat
f 89//67 92//67 91//67
f 89//67 91//67 90//67
f 93//68 94//68 95//68
f 93//68 95//68 96//68
f 91//69 92//69 96//69
f 91//69 96//69 95//69
f 89//70 90//70 94//70
f 89//70 94//70 93//70
f 89//71 93//71 96//71
f 89//71 96//71 92//71
f 90//72 91//72 95//72
f 90//72 95//72 94//72
usemtl stripe_accent
f 97//73 100//73 99//73
f 97//73 99//73 98//73
f 101//74 102//74 103//74
f 101//74 103//74 104//74
f 99//75 100//75 104//75
f 99//75 104//75 103//75
f 97//76 98//76 102//76
f 97//76 102//76 101//76
f 97//77 101//77 104//77
f 97//77 104//77 100//77
f 98//78 99//78 103//78
f 98//78 103//78 102//78
f 105//79 108//79 107//79
f 105//79 107//79 106//79
f 109//80 110//80 111//80
f 109//80 111//80 112//80
f 107//81 108//81 112//81
f 107//81 112//81 111//81
f 105//82 106//82 110//82
f 105//82 110//82 109//82
f 105//83 109//83 112//83
f 105//83 112//83 108//83
f 106//84 107//84 111//84
f 106//84 111//84 110//84
f 113//85 116//85 115//85
f 113//85 115//85 114//85
f 117//86 118//86 119//86
f 117//86 119//86 120//86
f 115//87 116//87 120//87
f 115//87 120//87 119//87
f 113//88 114//88 118//88
f 113//88 118//88 117//88
f 113//89 117//89 120//89
f 113//89 120//89 116//89
f 114//90 115//90 119//90
f 114//90 119//90 118//90
usemtl car_exterior
f 121//91 124//91 123//91
f 121//91 123//91 122//91
f 125//92 126//92 127//92
f 125//92 127//92 128//92
f 123//93 124//93 128//93
f 123//93 128//93 127//93
f 121//94 122//94 126//94
f 121//94 126//94 125//94
f 121//95 125//95 128//95
f 121//95 128//95 124//95
f 122//96 123//96 127//96
f 122//96 127//96 126//96
f 129//97 132//97 131//97
f 129//97 131//97 130//97
f 133//98 134//98 135//98
f 133//98 135//98 136//98
f 131//99 132//99 136//99
f 131//99 136//99 135//99
f 129//100 130//100 134//100
f 129//100 134//100 133//100
f 129//101 133//101 136//101
f 129//101 136//101 132//101
f 130//102 131//102 135//102
f 130//102 135//102 134//102
f 137//103 140//103 139//103
f 137//103 139//103 138//103
f 141//104 142//104 143//104
f 141//104 143//104 144//104
f 139//105 140//105 144//105
f 139//105 144//105 143//105
f 137//106 138//106 142//106
f 137//106 142//106 141//106
f 137//107 141//107 144//107
f 137//107 144//107 140//107
f 138//108 139//108 143//108
f 138//108 143//108 142//108
f 145//109 148//109 147//109
f 145//109 147//109 146//109
f 149//110 150//110 151//110
f 149//110 151//110 152//110
f 147//111 148//111 152//111
f 147//111 152//111 151//111
f 145//112 146//112 150//112
f 145//112 150//112 149//112
f 145//113 149//113 152//113
f 145//113 152//113 148//113
f 146//114 147//114 151//114
f 146//114 151//114 150//114
f 153//115 156//115 155//115
f 153//115 155//115 154//115
f 157//116 158//116 159//116
f 157//116 159//116 160//116
f 155//117 156//117 160//117
f 155//117 160//117 159//117
f 153//118 154//118 158//118
f 153//118 158//118 157//118
f 153//119 157//119 160//119
f 153//119 160//119 156//119
f 154//120 155//120 159//120
f 154//120 159//120 158//120
f 161//121 164//121 163//121
f 161//121 163//121 162//121
f 165//122 166//122 167//122
f 165//122 167//122 168//122
f 163//123 164//123 168//123
f 163//123 168//123 167//123
f 161//124 162//124 166//124
f 161//124 166//124 165//124
f 161//125 165//125 168//125
f 161//125 168//125 164//125
f 162//126 163//126 167//126
f 162//126 167//126 166//126
f 169//127 172//127 171//127
f 169//127 171//127 170//127
f 173//128 174//128 175//128
f 173//128 175//128 176//128
f 171//129 172//129 176//129
f 171//129 176//129 175//129
f 169//130 170//130 174//130
f 169//130 174//130 173//130
f 169//131 173//131 176//131
f 169//131 176//131 172//131
f 170//132 171//132 175//132
f 170//132 175//132 174//132
f 177//133 180//133 179//133
f 177//133 179//133 178//133
f 181//134 182//134 183//134
f 181//134 183//134 184//134
f 179//135 180//135 184//135
f 179//135 184//135 183//135
f 177//136 178//136 182//136
f 177//136 182//136 181//136
f 177//137 181//137 184//137
f 177//137 184//137 180//137
f 178//138 179//138 183//138
f 178//138 183//138 182//138
f 185//139 188//139 187//139
f 185//139 187//139 186//139
f 189//140 190//140 191//140
f 189//140 191//140 192//140
f 187//141 188//141 192//141
f 187//141 192//141 191//141
f 185//142 186//142 190//142
f 185//142 190//142 189//142
f 185//143 189//143 192//143
f 185//143 192//143 188//143
f 186//144 187//144 191//144
f 186//144 191//144 190//144
f 193//145 196//145 195//145
f 193//145 195//145 194//145
f 197//146 198//146 199//146
f 197//146 199//146 200//146
f 195//147 196//147 200//147
f 195//147 200//147 199//147
f 193//148 194//148 198//148
f 193//148 198//148 197//148
f 193//149 197//149 200//149
f 193//149 200//149 196//149
f 194//150 195//150 199//150
f 194//150 199//150 198//150
f 201//151 204//151 203//151
f 201//151 203//151 202//151
f 205//152 206//152 207//152
f 205//152 207//152 208//152
f 203//153 204//153 208//153
f 203//153 208//153 207//153
f 201//154 202//154 206//154
f 201//154 206//154 205//154
f 201//155 205//155 208//155
f 201//155 208//155 204//155
f 202//156 203//156 207//156
f 202//156 207//156 206//156
f 209//157 212//157 211//157
f 209//157 211//157 210//157
f 213//158 214//158 215//158
f 213//158 215//158 216//158
f 211//159 212//159 216//159
f 211//159 216//159 215//159
f 209//160 210//160 214//160
f 209//160 214//160 213//160
f 209//161 213//161 216//161
f 209//161 216//161 212//161
f 210//162 211//162 215//162
f 210//162 215//162 214//162
f 217//163 220//163 219//163
f 217//163 219//163 218//163
f 221//164 222//164 223//164
f 221//164 223//164 224//164
f 219//165 220//165 224//165
f 219//165 224//165 223//165
f 217//166 218//166 222//166
f 217//166 222//166 221//166
f 217//167 221//167 224//167
f 217//167 224//167 220//167
f 218//168 219//168 223//168
f 218//168 223//168 222//168
f 225//169 228//169 227//169
f 225//169 227//169 226//169
f 229//170 230//170 231//170
f 229//170 231//170 232//170
f 227//171 228//171 232//171
f 227//171 232//171 231//171
f 225//172 226//172 230//172
f 225//172 230//172 229//172
f 225//173 229//173 232//173
f 225//173 232//173 228//173
f 226//174 227//174 231//174
f 226//174 231//174 230//174
f 233//175 236//175 235//175
f 233//175 235//175 234//175
f 237//176 238//176 239//176
f 237//176 239//176 240//176
f 235//177 236//177 240//177
f 235//177 240//177 239//177
f 233//178 234//178 238//178
f 233//178 238//178 237//178
f 233//179 237//179 240//179
f 233//179 240//179 236//179
f 234//180 235//180 239//180
f 234//180 239//180 238//180
f 241//181 244//181 243//181
f 241//181 243//181 242//181
f 245//182 246//182 247//182
f 245//182 247//182 248//182
f 243//183 244//183 248//183
f 243//183 248//183 247//183
f 241//184 242//184 246//184
f 241//184 246//184 245//184
f 241//185 245//185 248//185
f 241//185 248//185 244//185
f 242//186 243//186 247//186
f 242//186 247//186 246//186
f 249//187 252//187 251//187
f 249//187 251//187 250//187
f 253//188 254//188 255//188
f 253//188 255//188 256//188
f 251//189 252//189 256//189
f 251//189 256//189 255//189
f 249//190 250//190 254//190
f 249//190 254//190 253//190
f 249//191 253//191 256//191
f 249//191 256//191 252//191
f 250//192 251//192 255//192
f 250//192 255//192 254//192
f 257//193 260//193 259//193
f 257//193 259//193 258//193
f 261//194 262//194 263//194
f 261//194 263//194 264//194
f 259//195 260//195 264//195
f 259//195 264//195 263//195
f 257//196 258//196 262//196
f 257//196 262//196 261//196
f 257//197 261//197 264//197
f 257//197 264//197 260//197
f 258//198 259//198 263//198
f 258//198 263//198 262//198
f 265//199 268//199 267//199
f 265//199 267//199 266//199
f 269//200 270//200 271//200
f 269//200 271//200 272//200
f 267//201 268//201 272//201
f 267//201 272//201 271//201
f 265//202 266//202 270//202
f 265//202 270//202 269//202
f 265//203 269//203 272//203
f 265//203 272//203 268//203
f 266//204 267//204 271//204
f 266//204 271//204 270//204
f 273//205 276//205 275//205
f 273//205 275//205 274//205
f 277//206 278//206 279//206
f 277//206 279//206 280//206
f 275//207 276//207 280//207
f 275//207 280//207 279//207
f 273//208 274//208 278//208
f 273//208 278//208 277//208
f 273//209 277//209 280//209
f 273//209 280//209 276//209
f 274//210 275//210 279//210
f 274//210 279//210 278//210
f 281//211 284//211 283//211
f 281//211 283//211 282//211
f 285//212 286//212 287//212
f 285//212 287//212 288//212
f 283//213 284//213 288//213
f 283//213 288//213 287//213
f 281//214 282//214 286//214
f 281//214 286//214 285//214
f 281//215 285//215 288//215
f 281//215 288//215 284//215
f 282//216 283//216 287//216
f 282//216 287//216 286//216
f 289//217 292//217 291//217
f 289//217 291//217 290//217
f 293//218 294//218 295//218
f 293//218 295//218 296//218
f 291//219 292//219 296//219
f 291//219 296//219 295//219
f 289//220 290//220 294//220
f 289//220 294//220 293//220
f 289//221 293//221 296//221
f 289//221 296//221 292//221
f 290//222 291//222 295//222
f 290//222 295//222 294//222
f 297//223 300//223 299//223
f 297//223 299//223 298//223
f 301//224 302//224 303//224
f 301//224 303//224 304//224
f 299//225 300//225 304//225
f 299//225 304//225 303//225
f 297//226 298//226 302//226
f 297//226 302//226 301//226
f 297//227 301//227 304//227
f 297//227 304//227 300//227
f 298//228 299//228 303//228
f 298//228 303//228 302//228
f 305//229 308//229 307//229
f 305//229 307//229 306//229
f 309//230 310//230 311//230
f 309//230 311//230 312//230
f 307//231 308//231 312//231
f 307//231 312//231 311//231
f 305//232 306//232 310//232
f 305//232 310//232 309//232
f 305//233 309//233 312//233
f 305//233 312//233 308//233
f 306//234 307//234 311//234
f 306//234 311//234 310//234
f 313//235 316//235 315//235
f 313//235 315//235 314//235
f 317//236 318//236 319//236
f 317//236 319//236 320//236
f 315//237 316//237 320//237
f 315//237 320//237 319//237
f 313//238 314//238 318//238
f 313//238 318//238 317//238
f 313//239 317//239 320//239
f 313//239 320//239 316//239
f 314//240 315//240 319//240
f 314//240 319//240 318//240
f 321//241 324//241 323//241
f 321//241 323//241 322//241
f 325//242 326//242 327//242
f 325//242 327//242 328//242
f 323//243 324//243 328//243
f 323//243 328//243 327//243
f 321//244 322//244 326//244
f 321//244 326//244 325//244
f 321//245 325//245 328//245
f 321//245 328//245 324//245
f 322//246 323//246 327//246
f 322//246 327//246 326//246
f 329//247 332//247 331//247
f 329//247 331//247 330//247
f 333//248 334//248 335//248
f 333//248 335//248 336//248
f 331//249 332//249 336//249
f 331//249 336//249 335//249
f 329//250 330//250 334//250
f 329//250 334//250 333//250
f 329//251 333//251 336//251
f 329//251 336//251 332//251
f 330//252 331//252 335//252
f 330//252 335//252 334//252
f 337//253 340//253 339//253
f 337//253 339//253 338//253
f 341//254 342//254 343//254
f 341//254 343//254 344//254
f 339//255 340//255 344//255
f 339//255 344//255 343//255
f 337//256 338//256 342//256
f 337//256 342//256 341//256
f 337//257 341//257 344//257
f 337//257 344//257 340//257
f 338//258 339//258 343//258
f 338//258 343//258 342//258
f 345//259 348//259 347//259
f 345//259 347//259 346//259
f 349//260 350//260 351//260
f 349//260 351//260 352//260
f 347//261 348//261 352//261
f 347//261 352//261 351//261
f 345//262 346//262 350//262
f 345//262 350//262 349//262
f 345//263 349//263 352//263
f 345//263 352//263 348//263
f 346//264 347//264 351//264
f 346//264 351//264 350//264
f 353//265 356//265 355//265
f 353//265 355//265 354//265
f 357//266 358//266 359//266
f 357//266 359//266 360//266
f 355//267 356//267 360//267
f 355//267 360//267 359//267
f 353//268 354//268 358//268
f 353//268 358//268 357//268
f 353//269 357//269 360//269
f 353//269 360//269 356//269
f 354//270 355//270 359//270
f 354//270 359//270 358//270
f 361//271 364//271 363//271
f 361//271 363//271 362//271
f 365//272 366//272 367//272
f 365//272 367//272 368//272
f 363//273 364//273 368//273
f 363//273 368//273 367//273
f 361//274 362//274 366//274
f 361//274 366//274 365//274
f 361//275 365//275 368//275
f 361//275 368//275 364//275
f 362//276 363//276 367//276
f 362//276 367//276 366//276
f 369//277 372//277 371//277
f 369//277 371//277 370//277
f 373//278 374//278 375//278
f 373//278 375//278 376//278
f 371//279 372//279 376//279
f 371//279 376//279 375//279
f 369//280 370//280 374//280
f 369//280 374//280 373//280
f 369//281 373//281 376//281
f 369//281 376//281 372//281
f 370//282 371//282 375//282
f 370//282 375//282 374//282
usemtl ac_unit
f 377//283 380//283 379//283
f 377//283 379//283 378//283
f 381//284 382//284 383//284
f 381//284 383//284 384//284
f 379//285 380//285 384//285
f 379//285 384//285 383//285
f 377//286 378//286 382//286
f 377//286 382//286 381//286
f 377//287 381//287 384//287
f 377//287 384//287 380//287
f 378//288 379//288 383//288
f 378//288 383//288 382//288
f 385//289 388//289 387//289
f 385//289 387//289 386//289
f 389//290 390//290 391//290
f 389//290 391//290 392//290
f 387//291 388//291 392//291
f 387//291 392//291 391//291
f 385//292 386//292 390//292
f 385//292 390//292 389//292
f 385//293 389//293 392//293
f 385//293 392//293 388//293
f 386//294 387//294 391//294
f 386//294 391//294 390//294
usemtl ceiling_light
f 393//295 396//295 395//295
f 393//295 395//295 394//295
f 397//296 398//296 399//296
f 397//296 399//296 400//296
f 395//297 396//297 400//297
f 395//297 400//297 399//297
f 393//298 394//298 398//298
f 393//298 398//298 397//298
f 393//299 397//299 400//299
f 393//299 400//299 396//299
f 394//300 395//300 399//300
f 394//300 399//300 398//300
usemtl seat_accent
f 401//301 404//301 403//301
f 401//301 403//301 402//301
f 405//302 406//302 407//302
f 405//302 407//302 408//302
f 403//303 404//303 408//303
f 403//303 408//303 407//303
f 401//304 402//304 406//304
f 401//304 406//304 405//304
f 401//305 405//305 408//305
f 401//305 408//305 404//305
f 402//306 403//306 407//306
f 402//306 407//306 406//306
f 409//307 412//307 411//307
f 409//307 411//307 410//307
f 413//308 414//308 415//308
f 413//308 415//308 416//308
f 411//309 412//309 416//309
f 411//309 416//309 415//309
f 409//310 410//310 414//310
f 409//310 414//310 413//310
f 409//311 413//311 416//311
f 409//311 416//311 412//311
f 410//312 411//312 415//312
f 410//312 415//312 414//312
f 417//313 420//313 419//313
f 417//313 419//313 418//313
f 421//314 422//314 423//314
f 421//314 423//314 424//314
f 419//315 420//315 424//315
f 419//315 424//315 423//315
f 417//316 418//316 422//316
f 417//316 422//316 421//316
f 417//317 421//317 424//317
f 417//317 424//317 420//317
f 418//318 419//318 423//318
f 418//318 423//318 422//318
f 425//319 428//319 427//319
f 425//319 427//319 426//319
f 429//320 430//320 431//320
f 429//320 431//320 432//320
f 427//321 428//321 432//321
f 427//321 432//321 431//321
f 425//322 426//322 430//322
f 425//322 430//322 429//322
f 425//323 429//323 432//323
f 425//323 432//323 428//323
f 426//324 427//324 431//324
f 426//324 431//324 430//324
f 433//325 436//325 435//325
f 433//325 435//325 434//325
f 437//326 438//326 439//326
f 437//326 439//326 440//326
f 435//327 436//327 440//327
f 435//327 440//327 439//327
f 433//328 434//328 438//328
f 433//328 438//328 437//328
f 433//329 437//329 440//329
f 433//329 440//329 436//329
f 434//330 435//330 439//330
f 434//330 439//330 438//330
f 441//331 444//331 443//331
f 441//331 443//331 442//331
f 445//332 446//332 447//332
f 445//332 447//332 448//332
f 443//333 444//333 448//333
f 443//333 448//333 447//333
f 441//334 442//334 446//334
f 441//334 446//334 445//334
f 441//335 445//335 448//335
f 441//335 448//335 444//335
f 442//336 443//336 447//336
f 442//336 447//336 446//336
usemtl pole_steel
f 449//337 452//337 451//337
f 449//337 451//337 450//337
f 453//338 454//338 455//338
f 453//338 455//338 456//338
f 451//339 452//339 456//339
f 451//339 456//339 455//339
f 449//340 450//340 454//340
f 449//340 454//340 453//340
f 449//341 453//341 456//341
f 449//341 456//341 452//341
f 450//342 451//342 455//342
f 450//342 455//342 454//342
f 457//343 460//343 459//343
f 457//343 459//343 458//343
f 461//344 462//344 463//344
f 461//344 463//344 464//344
f 459//345 460//345 464//345
f 459//345 464//345 463//345
f 457//346 458//346 462//346
f 457//346 462//346 461//346
f 457//347 461//347 464//347
f 457//347 464//347 460//347
f 458//348 459//348 463//348
f 458//348 463//348 462//348
f 465//349 468//349 467//349
f 465//349 467//349 466//349
f 469//350 470//350 471//350
f 469//350 471//350 472//350
f 467//351 468//351 472//351
f 467//351 472//351 471//351
f 465//352 466//352 470//352
f 465//352 470//352 469//352
f 465//353 469//353 472//353
f 465//353 472//353 468//353
f 466//354 467//354 471//354
f 466//354 471//354 470//354
f 473//355 476//355 475//355
f 473//355 475//355 474//355
f 477//356 478//356 479//356
f 477//356 479//356 480//356
f 475//357 476//357 480//357
f 475//357 480//357 479//357
f 473//358 474//358 478//358
f 473//358 478//358 477//358
f 473//359 477//359 480//359
f 473//359 480//359 476//359
f 474//360 475//360 479//360
f 474//360 479//360 478//360
f 481//361 484//361 483//361
f 481//361 483//361 482//361
f 485//362 486//362 487//362
f 485//362 487//362 488//362
f 483//363 484//363 488//363
f 483//363 488//363 487//363
f 481//364 482//364 486//364
f 481//364 486//364 485//364
f 481//365 485//365 488//365
f 481//365 488//365 484//365
f 482//366 483//366 487//366
f 482//366 487//366 486//366
usemtl bellows_dark
f 489//367 492//367 491//367
f 489//367 491//367 490//367
f 493//368 494//368 495//368
f 493//368 495//368 496//368
f 491//369 492//369 496//369
f 491//369 496//369 495//369
f 489//370 490//370 494//370
f 489//370 494//370 493//370
f 489//371 493//371 496//371
f 489//371 496//371 492//371
f 490//372 491//372 495//372
f 490//372 495//372 494//372
f 497//373 500//373 499//373
f 497//373 499//373 498//373
f 501//374 502//374 503//374
f 501//374 503//374 504//374
f 499//375 500//375 504//375
f 499//375 504//375 503//375
f 497//376 498//376 502//376
f 497//376 502//376 501//376
f 497//377 501//377 504//377
f 497//377 504//377 500//377
f 498//378 499//378 503//378
f 498//378 503//378 502//378
f 505//379 508//379 507//379
f 505//379 507//379 506//379
f 509//380 510//380 511//380
f 509//380 511//380 512//380
f 507//381 508//381 512//381
f 507//381 512//381 511//381
f 505//382 506//382 510//382
f 505//382 510//382 509//382
f 505//383 509//383 512//383
f 505//383 512//383 508//383
f 506//384 507//384 511//384
f 506//384 511//384 510//384
f 513//385 516//385 515//385
f 513//385 515//385 514//385
f 517//386 518//386 519//386
f 517//386 519//386 520//386
f 515//387 516//387 520//387
f 515//387 520//387 519//387
f 513//388 514//388 518//388
f 513//388 518//388 517//388
f 513//389 517//389 520//389
f 513//389 520//389 516//389
f 514//390 515//390 519//390
f 514//390 519//390 518//390
f 521//391 524//391 523//391
f 521//391 523//391 522//391
f 525//392 526//392 527//392
f 525//392 527//392 528//392
f 523//393 524//393 528//393
f 523//393 528//393 527//393
f 521//394 522//394 526//394
f 521//394 526//394 525//394
f 521//395 525//395 528//395
f 521//395 528//395 524//395
f 522//396 523//396 527//396
f 522//396 527//396 526//396
f 529//397 532//397 531//397
f 529//397 531//397 530//397
f 533//398 534//398 535//398
f 533//398 535//398 536//398
f 531//399 532//399 536//399
f 531//399 536//399 535//399
f 529//400 530//400 534//400
f 529//400 534//400 533//400
f 529//401 533//401 536//401
f 529//401 536//401 532//401
f 530//402 531//402 535//402
f 530//402 535//402 534//402
usemtl door_metal
f 537//403 540//403 539//403
f 537//403 539//403 538//403
f 541//404 542//404 543//404
f 541//404 543//404 544//404
f 539//405 540//405 544//405
f 539//405 544//405 543//405
f 537//406 538//406 542//406
f 537//406 542//406 541//406
f 537//407 541//407 544//407
f 537//407 544//407 540//407
f 538//408 539//408 543//408
f 538//408 543//408 542//408
f 545//409 548//409 547//409
f 545//409 547//409 546//409
f 549//410 550//410 551//410
f 549//410 551//410 552//410
f 547//411 548//411 552//411
f 547//411 552//411 551//411
f 545//412 546//412 550//412
f 545//412 550//412 549//412
f 545//413 549//413 552//413
f 545//413 552//413 548//413
f 546//414 547//414 551//414
f 546//414 551//414 550//414
f 553//415 556//415 555//415
f 553//415 555//415 554//415
f 557//416 558//416 559//416
f 557//416 559//416 560//416
f 555//417 556//417 560//417
f 555//417 560//417 559//417
f 553//418 554//418 558//418
f 553//418 558//418 557//418
f 553//419 557//419 560//419
f 553//419 560//419 556//419
f 554//420 555//420 559//420
f 554//420 559//420 558//420
