# Blender 5.2.2 LTS
# www.blender.org
mtllib environment.mtl
g pe_backstage_render_Cube.021
v -4.300000 -0.100000 3.300000
v -4.300000 0.000000 3.300000
v -4.300000 -0.100000 -5.300000
v -4.300000 0.000000 -5.300000
v 4.300000 -0.100000 3.300000
v 4.300000 0.000000 3.300000
v 4.300000 -0.100000 -5.300000
v 4.300000 0.000000 -5.300000
v -4.300000 0.000000 -5.000000
v -4.300000 3.400000 -5.000000
v -4.300000 0.000000 -5.300000
v -4.300000 3.400000 -5.300000
v 4.300000 0.000000 -5.000000
v 4.300000 3.400000 -5.000000
v 4.300000 0.000000 -5.300000
v 4.300000 3.400000 -5.300000
v -4.300000 0.000000 3.300000
v -4.300000 3.400000 3.300000
v -4.300000 0.000000 -5.300000
v -4.300000 3.400000 -5.300000
v -4.000000 0.000000 3.300000
v -4.000000 3.400000 3.300000
v -4.000000 0.000000 -5.300000
v -4.000000 3.400000 -5.300000
v 4.000000 0.000000 3.300000
v 4.000000 3.400000 3.300000
v 4.000000 0.000000 -5.300000
v 4.000000 3.400000 -5.300000
v 4.300000 0.000000 3.300000
v 4.300000 3.400000 3.300000
v 4.300000 0.000000 -5.300000
v 4.300000 3.400000 -5.300000
v -4.000000 0.000000 -4.950000
v -4.000000 0.180000 -4.950000
v -4.000000 0.000000 -5.010000
v -4.000000 0.180000 -5.010000
v 4.000000 0.000000 -4.950000
v 4.000000 0.180000 -4.950000
v 4.000000 0.000000 -5.010000
v 4.000000 0.180000 -5.010000
v -4.010000 0.000000 0.000000
v -4.010000 0.180000 0.000000
v -4.010000 0.000000 -5.000000
v -4.010000 0.180000 -5.000000
v -3.950000 0.000000 0.000000
v -3.950000 0.180000 0.000000
v -3.950000 0.000000 -5.000000
v -3.950000 0.180000 -5.000000
v 3.950000 0.000000 0.000000
v 3.950000 0.180000 0.000000
v 3.950000 0.000000 -5.000000
v 3.950000 0.180000 -5.000000
v 4.010000 0.000000 0.000000
v 4.010000 0.180000 0.000000
v 4.010000 0.000000 -5.000000
v 4.010000 0.180000 -5.000000
v -4.010000 0.000000 -2.000000
v -4.010000 2.200000 -2.000000
v -4.010000 0.000000 -3.000000
v -4.010000 2.200000 -3.000000
v -3.950000 0.000000 -2.000000
v -3.950000 2.200000 -2.000000
v -3.950000 0.000000 -3.000000
v -3.950000 2.200000 -3.000000
v -4.025000 0.000000 -1.850000
v -4.025000 2.400000 -1.850000
v -4.025000 0.000000 -3.150000
v -4.025000 2.400000 -3.150000
v -3.975000 0.000000 -1.850000
v -3.975000 2.400000 -1.850000
v -3.975000 0.000000 -3.150000
v -3.975000 2.400000 -3.150000
v -3.950000 0.800000 -2.175000
v -3.950000 1.300000 -2.175000
v -3.950000 0.800000 -2.225000
v -3.950000 1.300000 -2.225000
v -3.910000 0.800000 -2.175000
v -3.910000 1.300000 -2.175000
v -3.910000 0.800000 -2.225000
v -3.910000 1.300000 -2.225000
v -2.750000 0.000000 -4.950000
v -2.750000 2.200000 -4.950000
v -2.750000 0.000000 -5.010000
v -2.750000 2.200000 -5.010000
v -1.250000 0.000000 -4.950000
v -1.250000 2.200000 -4.950000
v -1.250000 0.000000 -5.010000
v -1.250000 2.200000 -5.010000
v -2.900000 0.000000 -4.975000
v -2.900000 2.400000 -4.975000
v -2.900000 0.000000 -5.025000
v -2.900000 2.400000 -5.025000
v -1.100000 0.000000 -4.975000
v -1.100000 2.400000 -4.975000
v -1.100000 0.000000 -5.025000
v -1.100000 2.400000 -5.025000
v -1.575000 0.800000 -4.910000
v -1.575000 1.300000 -4.910000
v -1.575000 0.800000 -4.950000
v -1.575000 1.300000 -4.950000
v -1.525000 0.800000 -4.910000
v -1.525000 1.300000 -4.910000
v -1.525000 0.800000 -4.950000
v -1.525000 1.300000 -4.950000
v 3.950000 0.000000 -2.000000
v 3.950000 2.200000 -2.000000
v 3.950000 0.000000 -3.000000
v 3.950000 2.200000 -3.000000
v 4.010000 0.000000 -2.000000
v 4.010000 2.200000 -2.000000
v 4.010000 0.000000 -3.000000
v 4.010000 2.200000 -3.000000
v 3.975000 0.000000 -1.850000
v 3.975000 2.400000 -1.850000
v 3.975000 0.000000 -3.150000
v 3.975000 2.400000 -3.150000
v 4.025000 0.000000 -1.850000
v 4.025000 2.400000 -1.850000
v 4.025000 0.000000 -3.150000
v 4.025000 2.400000 -3.150000
v 3.910000 0.800000 -2.175000
v 3.910000 1.300000 -2.175000
v 3.910000 0.800000 -2.225000
v 3.910000 1.300000 -2.225000
v 3.950000 0.800000 -2.175000
v 3.950000 1.300000 -2.175000
v 3.950000 0.800000 -2.225000
v 3.950000 1.300000 -2.225000
v -0.250000 3.320000 -1.125000
v -0.250000 3.380000 -1.125000
v -0.250000 3.320000 -1.375000
v -0.250000 3.380000 -1.375000
v 0.250000 3.320000 -1.125000
v 0.250000 3.380000 -1.125000
v 0.250000 3.320000 -1.375000
v 0.250000 3.380000 -1.375000
v -0.250000 3.320000 -3.375000
v -0.250000 3.380000 -3.375000
v -0.250000 3.320000 -3.625000
v -0.250000 3.380000 -3.625000
v 0.250000 3.320000 -3.375000
v 0.250000 3.380000 -3.375000
v 0.250000 3.320000 -3.625000
v 0.250000 3.380000 -3.625000
v 3.050000 0.000000 -0.550000
v 3.050000 0.700000 -0.550000
v 3.050000 0.000000 -1.250000
v 3.050000 0.700000 -1.250000
v 3.750000 0.000000 -0.550000
v 3.750000 0.700000 -0.550000
v 3.750000 0.000000 -1.250000
v 3.750000 0.700000 -1.250000
v 3.150000 0.000000 -1.350000
v 3.150000 0.600000 -1.350000
v 3.150000 0.000000 -1.950000
v 3.150000 0.600000 -1.950000
v 3.750000 0.000000 -1.350000
v 3.750000 0.600000 -1.350000
v 3.750000 0.000000 -1.950000
v 3.750000 0.600000 -1.950000
v 3.150000 0.700000 -0.950000
v 3.150000 1.200000 -0.950000
v 3.150000 0.700000 -1.450000
v 3.150000 1.200000 -1.450000
v 3.650000 0.700000 -0.950000
v 3.650000 1.200000 -0.950000
v 3.650000 0.700000 -1.450000
v 3.650000 1.200000 -1.450000
v -4.000000 2.900000 -5.010000
v 4.000000 2.900000 -5.010000
v -4.000000 2.857574 -4.992426
v 4.000000 2.857574 -4.992426
v -4.000000 2.840000 -4.950000
v 4.000000 2.840000 -4.950000
v -4.000000 2.857574 -4.907573
v 4.000000 2.857574 -4.907573
v -4.000000 2.900000 -4.890000
v 4.000000 2.900000 -4.890000
v -4.000000 2.942427 -4.907573
v 4.000000 2.942426 -4.907573
v -4.000000 2.960000 -4.950000
v 4.000000 2.960000 -4.950000
v -4.000000 2.942427 -4.992426
v 4.000000 2.942426 -4.992426
v -4.000000 2.700000 -4.990000
v 4.000000 2.700000 -4.990000
v -4.000000 2.671716 -4.978284
v 4.000000 2.671715 -4.978284
v -4.000000 2.660000 -4.950000
v 4.000000 2.660000 -4.950000
v -4.000000 2.671716 -4.921716
v 4.000000 2.671715 -4.921716
v -4.000000 2.700000 -4.910000
v 4.000000 2.700000 -4.910000
v -4.000000 2.728285 -4.921716
v 4.000000 2.728284 -4.921716
v -4.000000 2.740000 -4.950000
v 4.000000 2.740000 -4.950000
v -4.000000 2.728285 -4.978284
v 4.000000 2.728284 -4.978284
vn -1.0000 -0.0000 -0.0000
vn -0.0000 -0.0000 -1.0000
vn 1.0000 -0.0000 -0.0000
vn -0.0000 -0.0000 1.0000
vn -0.0000 -1.0000 -0.0000
vn -0.0000 1.0000 -0.0000
vn -0.0000 -0.3827 -0.9239
vn -0.0000 -0.9239 -0.3827
vn -0.0000 -0.9239 0.3827
vn -0.0000 -0.3827 0.9239
vn -0.0000 0.3827 0.9239
vn -0.0000 0.9239 0.3827
vn -0.0000 0.9239 -0.3827
vn -0.0000 0.3827 -0.9239
vt 0.931641 0.387695
vt 0.934570 0.002930
vt 0.934570 0.387695
vt 0.931641 0.777344
vt 0.934570 0.393555
vt 0.934570 0.777344
vt 0.940430 0.387695
vt 0.944336 0.002930
vt 0.944336 0.387695
vt 0.940430 0.777344
vt 0.944336 0.393555
vt 0.944336 0.777344
vt 0.387695 0.387695
vt 0.002930 0.002930
vt 0.387695 0.002930
vt 0.387695 0.777344
vt 0.002930 0.393555
vt 0.387695 0.393555
vt 0.766602 0.783203
vt 0.779297 0.934570
vt 0.766602 0.934570
vt 0.707031 0.387695
vt 0.858398 0.002930
vt 0.858398 0.387695
vt 0.785156 0.783203
vt 0.797852 0.934570
vt 0.785156 0.934570
vt 0.707031 0.777344
vt 0.858398 0.393555
vt 0.858398 0.777344
vt 0.876953 0.387695
vt 0.864258 0.002930
vt 0.876953 0.002930
vt 0.876953 0.777344
vt 0.864258 0.393555
vt 0.876953 0.393555
vt 0.393555 0.387695
vt 0.544922 0.002930
vt 0.544922 0.387695
vt 0.802734 0.783203
vt 0.815430 0.934570
vt 0.802734 0.934570
vt 0.549805 0.387695
vt 0.701172 0.002930
vt 0.701172 0.387695
vt 0.821289 0.783203
vt 0.833984 0.934570
vt 0.821289 0.934570
vt 0.882812 0.387695
vt 0.894531 0.002930
vt 0.894531 0.387695
vt 0.882812 0.777344
vt 0.894531 0.393555
vt 0.894531 0.777344
vt 0.393555 0.777344
vt 0.544922 0.393555
vt 0.544922 0.777344
vt 0.838867 0.783203
vt 0.851562 0.934570
vt 0.838867 0.934570
vt 0.549805 0.777344
vt 0.701172 0.393555
vt 0.701172 0.777344
vt 0.864258 0.783203
vt 0.876953 0.934570
vt 0.864258 0.934570
vt 0.900391 0.387695
vt 0.913086 0.002930
vt 0.913086 0.387695
vt 0.900391 0.777344
vt 0.913086 0.393555
vt 0.913086 0.777344
vt 0.553711 0.911133
vt 0.555664 0.918945
vt 0.553711 0.918945
vt 0.918945 0.360352
vt 0.925781 0.002930
vt 0.925781 0.360352
vt 0.561523 0.911133
vt 0.563477 0.918945
vt 0.561523 0.918945
vt 0.918945 0.723633
vt 0.925781 0.366211
vt 0.925781 0.723633
vt 0.967773 0.589844
vt 0.966797 0.231445
vt 0.967773 0.231445
vt 0.975586 0.589844
vt 0.973633 0.231445
vt 0.975586 0.231445
vt 0.918945 0.953125
vt 0.925781 0.729492
vt 0.925781 0.953125
vt 0.281250 0.917969
vt 0.283203 0.924805
vt 0.281250 0.924805
vt 0.949219 0.953125
vt 0.957031 0.729492
vt 0.957031 0.953125
vt 0.995117 0.231445
vt 0.997070 0.239258
vt 0.995117 0.239258
vt 0.995117 0.462891
vt 0.997070 0.462891
vt 0.979492 0.225586
vt 0.980469 0.002930
vt 0.980469 0.225586
vt 0.961914 0.953125
vt 0.969727 0.729492
vt 0.969727 0.953125
vt 0.289062 0.917969
vt 0.291016 0.924805
vt 0.289062 0.924805
vt 0.966797 0.225586
vt 0.973633 0.002930
vt 0.973633 0.225586
vt 0.995117 0.468750
vt 0.997070 0.476562
vt 0.995117 0.476562
vt 0.995117 0.700195
vt 0.997070 0.700195
vt 0.986328 0.225586
vt 0.988281 0.002930
vt 0.988281 0.225586
vt 0.569336 0.783203
vt 0.613281 0.880859
vt 0.569336 0.880859
vt 0.748047 0.886719
vt 0.750000 0.984375
vt 0.748047 0.984375
vt 0.618164 0.783203
vt 0.662109 0.880859
vt 0.618164 0.880859
vt 0.755859 0.886719
vt 0.757812 0.984375
vt 0.755859 0.984375
vt 0.408203 0.939453
vt 0.410156 0.895508
vt 0.410156 0.939453
vt 0.416016 0.939453
vt 0.416992 0.895508
vt 0.416992 0.939453
vt 0.317383 0.783203
vt 0.375000 0.889648
vt 0.317383 0.889648
vt 0.938477 0.783203
vt 0.939453 0.889648
vt 0.938477 0.889648
vt 0.379883 0.783203
vt 0.437500 0.889648
vt 0.379883 0.889648
vt 0.966797 0.594727
vt 0.967773 0.701172
vt 0.966797 0.701172
vt 0.317383 0.953125
vt 0.318359 0.895508
vt 0.318359 0.953125
vt 0.324219 0.953125
vt 0.325195 0.895508
vt 0.325195 0.953125
vt 0.466797 0.895508
vt 0.467773 0.916992
vt 0.466797 0.916992
vt 0.520525 0.895096
vt 0.522318 0.917516
vt 0.520525 0.917516
vt 0.473633 0.895508
vt 0.474609 0.916992
vt 0.473633 0.916992
vt 0.527344 0.895508
vt 0.528320 0.916992
vt 0.527344 0.916992
vt 0.857422 0.896484
vt 0.858398 0.895508
vt 0.858398 0.896484
vt 0.857422 0.903320
vt 0.858398 0.902344
vt 0.858398 0.903320
vt 0.733398 0.886719
vt 0.735352 0.984375
vt 0.733398 0.984375
vt 0.173828 0.783203
vt 0.240234 0.880859
vt 0.173828 0.880859
vt 0.741211 0.886719
vt 0.742188 0.984375
vt 0.741211 0.984375
vt 0.245117 0.783203
vt 0.311523 0.880859
vt 0.245117 0.880859
vt 0.166992 0.961914
vt 0.165039 0.895508
vt 0.166992 0.895508
vt 0.912109 0.958008
vt 0.911133 0.891602
vt 0.912109 0.891602
vt 0.857422 0.783203
vt 0.858398 0.889648
vt 0.857422 0.889648
vt 0.002930 0.783203
vt 0.083008 0.889648
vt 0.002930 0.889648
vt 0.931641 0.783203
vt 0.932617 0.889648
vt 0.931641 0.889648
vt 0.087891 0.783203
vt 0.167969 0.889648
vt 0.087891 0.889648
vt 0.905273 0.970703
vt 0.904297 0.891602
vt 0.905273 0.891602
vt 0.898438 0.970703
vt 0.897461 0.891602
vt 0.898438 0.891602
vt 0.507812 0.895508
vt 0.508789 0.916992
vt 0.507812 0.916992
vt 0.494141 0.895508
vt 0.496094 0.916992
vt 0.494141 0.916992
vt 0.514648 0.895508
vt 0.515625 0.916992
vt 0.514648 0.916992
vt 0.500977 0.895508
vt 0.502930 0.916992
vt 0.500977 0.916992
vt 0.585938 0.918945
vt 0.584961 0.917969
vt 0.585938 0.917969
vt 0.592673 0.919913
vt 0.590880 0.917671
vt 0.592673 0.917671
vt 0.667969 0.783203
vt 0.711914 0.880859
vt 0.667969 0.880859
vt 0.882812 0.891602
vt 0.883789 0.989258
vt 0.882812 0.989258
vt 0.717773 0.783203
vt 0.761719 0.880859
vt 0.717773 0.880859
vt 0.889648 0.891602
vt 0.891602 0.989258
vt 0.889648 0.989258
vt 0.422852 0.939453
vt 0.424805 0.895508
vt 0.424805 0.939453
vt 0.430664 0.939453
vt 0.431641 0.895508
vt 0.431641 0.939453
vt 0.443359 0.783203
vt 0.500000 0.889648
vt 0.443359 0.889648
vt 0.973633 0.594727
vt 0.974609 0.701172
vt 0.973633 0.701172
vt 0.505859 0.783203
vt 0.563477 0.889648
vt 0.505859 0.889648
vt 0.726562 0.886719
vt 0.727539 0.993164
vt 0.726562 0.993164
vt 0.331055 0.953125
vt 0.332031 0.895508
vt 0.332031 0.953125
vt 0.337891 0.953125
vt 0.338867 0.895508
vt 0.338867 0.953125
vt 0.480469 0.895508
vt 0.481445 0.916992
vt 0.480469 0.916992
vt 0.534180 0.895508
vt 0.535156 0.916992
vt 0.534180 0.916992
vt 0.487305 0.895508
vt 0.489258 0.916992
vt 0.487305 0.916992
vt 0.540039 0.895508
vt 0.541016 0.916992
vt 0.540039 0.916992
vt 0.857422 0.910156
vt 0.858398 0.909180
vt 0.858398 0.910156
vt 0.857422 0.917969
vt 0.858398 0.916016
vt 0.858398 0.917969
vt 0.546875 0.906250
vt 0.548828 0.895508
vt 0.548828 0.906250
vt 0.437500 0.916992
vt 0.439453 0.895508
vt 0.439453 0.916992
vt 0.553711 0.906250
vt 0.555664 0.895508
vt 0.555664 0.906250
vt 0.445312 0.916992
vt 0.446289 0.895508
vt 0.446289 0.916992
vt 0.355469 0.916992
vt 0.344727 0.895508
vt 0.355469 0.895508
vt 0.371094 0.916992
vt 0.360352 0.895508
vt 0.371094 0.895508
vt 0.561523 0.906250
vt 0.563477 0.895508
vt 0.563477 0.906250
vt 0.452148 0.916992
vt 0.454102 0.895508
vt 0.454102 0.916992
vt 0.546875 0.921875
vt 0.548828 0.911133
vt 0.548828 0.921875
vt 0.459961 0.916992
vt 0.460938 0.895508
vt 0.460938 0.916992
vt 0.386719 0.916992
vt 0.376953 0.895508
vt 0.386719 0.895508
vt 0.402344 0.916992
vt 0.392578 0.895508
vt 0.402344 0.895508
vt 0.882812 0.849609
vt 0.913086 0.819336
vt 0.913086 0.849609
vt 0.209961 0.886719
vt 0.240234 0.916992
vt 0.209961 0.916992
vt 0.882812 0.813477
vt 0.913086 0.783203
vt 0.913086 0.813477
vt 0.245117 0.886719
vt 0.276367 0.916992
vt 0.245117 0.916992
vt 0.882812 0.885742
vt 0.913086 0.855469
vt 0.913086 0.885742
vt 0.173828 0.916992
vt 0.204102 0.886719
vt 0.204102 0.916992
vt 0.281250 0.912109
vt 0.307617 0.886719
vt 0.307617 0.912109
vt 0.664062 0.886719
vt 0.689453 0.912109
vt 0.664062 0.912109
vt 0.569336 0.912109
vt 0.594727 0.886719
vt 0.594727 0.912109
vt 0.695312 0.886719
vt 0.720703 0.912109
vt 0.695312 0.912109
vt 0.600586 0.912109
vt 0.626953 0.886719
vt 0.626953 0.912109
vt 0.631836 0.912109
vt 0.658203 0.886719
vt 0.658203 0.912109
vt 0.002930 0.895508
vt 0.024414 0.916992
vt 0.002930 0.916992
vt 0.056641 0.895508
vt 0.078125 0.916992
vt 0.056641 0.916992
vt 0.030273 0.895508
vt 0.051758 0.916992
vt 0.030273 0.916992
vt 0.083984 0.916992
vt 0.105469 0.895508
vt 0.105469 0.916992
vt 0.111328 0.916992
vt 0.132812 0.895508
vt 0.132812 0.916992
vt 0.159180 0.916992
vt 0.137695 0.895508
vt 0.159180 0.895508
vt 0.959961 0.360352
vt 0.958008 0.002930
vt 0.959961 0.002930
vt 0.952148 0.360352
vt 0.951172 0.002930
vt 0.952148 0.002930
vt 0.951172 0.360352
vt 0.949219 0.002930
vt 0.958008 0.366211
vt 0.958984 0.723633
vt 0.958008 0.723633
vt 0.958984 0.366211
vt 0.960938 0.723633
vt 0.949219 0.366211
vt 0.951172 0.723633
vt 0.949219 0.723633
vt 0.299805 0.919922
vt 0.298828 0.921875
vt 0.295898 0.920898
vt 0.950195 0.366211
vt 0.952148 0.723633
vt 0.960938 0.360352
vt 0.960938 0.002930
vt 0.305664 0.919922
vt 0.308594 0.917969
vt 0.309570 0.920898
vt 0.989258 0.589844
vt 0.988281 0.231445
vt 0.989258 0.231445
vt 0.983175 0.589875
vt 0.981907 0.231157
vt 0.983175 0.231157
vt 0.981907 0.589875
vt 0.980639 0.231157
vt 0.988281 0.594727
vt 0.989258 0.953125
vt 0.988281 0.953125
vt 0.989258 0.594727
vt 0.990234 0.953125
vt 0.980639 0.594514
vt 0.981907 0.953232
vt 0.980639 0.953232
vt 0.568541 0.918641
vt 0.570884 0.917671
vt 0.571855 0.920014
vt 0.981907 0.594514
vt 0.983175 0.953232
vt 0.990234 0.589844
vt 0.990234 0.231445
vt 0.576494 0.918642
vt 0.578837 0.917671
vt 0.579808 0.920014
vt 0.931641 0.002930
vt 0.931641 0.393555
vt 0.940430 0.002930
vt 0.940430 0.393555
vt 0.002930 0.387695
vt 0.002930 0.777344
vt 0.779297 0.783203
vt 0.707031 0.002930
vt 0.797852 0.783203
vt 0.707031 0.393555
vt 0.864258 0.387695
vt 0.864258 0.777344
vt 0.393555 0.002930
vt 0.815430 0.783203
vt 0.549805 0.002930
vt 0.833984 0.783203
vt 0.882812 0.002930
vt 0.882812 0.393555
vt 0.393555 0.393555
vt 0.851562 0.783203
vt 0.549805 0.393555
vt 0.876953 0.783203
vt 0.900391 0.002930
vt 0.900391 0.393555
vt 0.555664 0.911133
vt 0.918945 0.002930
vt 0.563477 0.911133
vt 0.918945 0.366211
vt 0.966797 0.589844
vt 0.973633 0.589844
vt 0.918945 0.729492
vt 0.283203 0.917969
vt 0.949219 0.729492
vt 0.997070 0.231445
vt 0.979492 0.002930
vt 0.961914 0.729492
vt 0.291016 0.917969
vt 0.966797 0.002930
vt 0.997070 0.468750
vt 0.986328 0.002930
vt 0.613281 0.783203
vt 0.750000 0.886719
vt 0.662109 0.783203
vt 0.757812 0.886719
vt 0.408203 0.895508
vt 0.416016 0.895508
vt 0.375000 0.783203
vt 0.939453 0.783203
vt 0.437500 0.783203
vt 0.967773 0.594727
vt 0.317383 0.895508
vt 0.324219 0.895508
vt 0.467773 0.895508
vt 0.522318 0.895096
vt 0.474609 0.895508
vt 0.528320 0.895508
vt 0.857422 0.895508
vt 0.857422 0.902344
vt 0.735352 0.886719
vt 0.240234 0.783203
vt 0.742188 0.886719
vt 0.311523 0.783203
vt 0.165039 0.961914
vt 0.911133 0.958008
vt 0.858398 0.783203
vt 0.083008 0.783203
vt 0.932617 0.783203
vt 0.167969 0.783203
vt 0.904297 0.970703
vt 0.897461 0.970703
vt 0.508789 0.895508
vt 0.496094 0.895508
vt 0.515625 0.895508
vt 0.502930 0.895508
vt 0.584961 0.918945
vt 0.590880 0.919913
vt 0.711914 0.783203
vt 0.883789 0.891602
vt 0.761719 0.783203
vt 0.891602 0.891602
vt 0.422852 0.895508
vt 0.430664 0.895508
vt 0.500000 0.783203
vt 0.974609 0.594727
vt 0.563477 0.783203
vt 0.727539 0.886719
vt 0.331055 0.895508
vt 0.337891 0.895508
vt 0.481445 0.895508
vt 0.535156 0.895508
vt 0.489258 0.895508
vt 0.541016 0.895508
vt 0.857422 0.909180
vt 0.857422 0.916016
vt 0.546875 0.895508
vt 0.437500 0.895508
vt 0.553711 0.895508
vt 0.445312 0.895508
vt 0.344727 0.916992
vt 0.360352 0.916992
vt 0.561523 0.895508
vt 0.452148 0.895508
vt 0.546875 0.911133
vt 0.459961 0.895508
vt 0.376953 0.916992
vt 0.392578 0.916992
vt 0.882812 0.819336
vt 0.240234 0.886719
vt 0.882812 0.783203
vt 0.276367 0.886719
vt 0.882812 0.855469
vt 0.173828 0.886719
vt 0.281250 0.886719
vt 0.689453 0.886719
vt 0.569336 0.886719
vt 0.720703 0.886719
vt 0.600586 0.886719
vt 0.631836 0.886719
vt 0.024414 0.895508
vt 0.078125 0.895508
vt 0.051758 0.895508
vt 0.083984 0.895508
vt 0.111328 0.895508
vt 0.137695 0.916992
vt 0.958008 0.360352
vt 0.949219 0.360352
vt 0.960938 0.366211
vt 0.295898 0.919922
vt 0.297852 0.917969
vt 0.298828 0.917969
vt 0.299805 0.920898
vt 0.297852 0.921875
vt 0.952148 0.366211
vt 0.308594 0.921875
vt 0.307617 0.921875
vt 0.305664 0.920898
vt 0.307617 0.917969
vt 0.309570 0.919922
vt 0.988281 0.589844
vt 0.980639 0.589875
vt 0.990234 0.594727
vt 0.570884 0.920985
vt 0.569511 0.920985
vt 0.568541 0.920014
vt 0.569511 0.917671
vt 0.571855 0.918641
vt 0.983175 0.594514
vt 0.578837 0.920985
vt 0.577465 0.920985
vt 0.576494 0.920014
vt 0.577465 0.917671
vt 0.579808 0.918642
s 0
g pe_backstage_render_EnvironmentBakedAtlas
usemtl EnvironmentBakedAtlas
f 2/1/1 3/2/1 1/3/1
f 4/4/2 7/5/2 3/6/2
f 8/7/3 5/8/3 7/9/3
f 6/10/4 1/11/4 5/12/4
f 7/13/5 1/14/5 3/15/5
f 4/16/6 6/17/6 8/18/6
f 10/19/1 11/20/1 9/21/1
f 12/22/2 15/23/2 11/24/2
f 16/25/3 13/26/3 15/27/3
f 14/28/4 9/29/4 13/30/4
f 15/31/5 9/32/5 11/33/5
f 12/34/6 14/35/6 16/36/6
f 18/37/1 19/38/1 17/39/1
f 20/40/2 23/41/2 19/42/2
f 24/43/3 21/44/3 23/45/3
f 22/46/4 17/47/4 21/48/4
f 23/49/5 17/50/5 19/51/5
f 20/52/6 22/53/6 24/54/6
f 26/55/1 27/56/1 25/57/1
f 28/58/2 31/59/2 27/60/2
f 32/61/3 29/62/3 31/63/3
f 30/64/4 25/65/4 29/66/4
f 31/67/5 25/68/5 27/69/5
f 28/70/6 30/71/6 32/72/6
f 34/73/1 35/74/1 33/75/1
f 36/76/2 39/77/2 35/78/2
f 40/79/3 37/80/3 39/81/3
f 38/82/4 33/83/4 37/84/4
f 39/85/5 33/86/5 35/87/5
f 36/88/6 38/89/6 40/90/6
f 42/91/1 43/92/1 41/93/1
f 44/94/2 47/95/2 43/96/2
f 48/97/3 45/98/3 47/99/3
f 46/100/4 41/101/4 45/102/4
f 47/103/5 41/101/5 43/104/5
f 44/105/6 46/106/6 48/107/6
f 50/108/1 51/109/1 49/110/1
f 52/111/2 55/112/2 51/113/2
f 56/114/3 53/115/3 55/116/3
f 54/117/4 49/118/4 53/119/4
f 55/120/5 49/118/5 51/121/5
f 52/122/6 54/123/6 56/124/6
f 58/125/1 59/126/1 57/127/1
f 60/128/2 63/129/2 59/130/2
f 64/131/3 61/132/3 63/133/3
f 62/134/4 57/135/4 61/136/4
f 63/137/5 57/138/5 59/139/5
f 60/140/6 62/141/6 64/142/6
f 66/143/1 67/144/1 65/145/1
f 68/146/2 71/147/2 67/148/2
f 72/149/3 69/150/3 71/151/3
f 70/152/4 65/153/4 69/154/4
f 71/155/5 65/156/5 67/157/5
f 68/158/6 70/159/6 72/160/6
f 74/161/1 75/162/1 73/163/1
f 76/164/2 79/165/2 75/166/2
f 80/167/3 77/168/3 79/169/3
f 78/170/4 73/171/4 77/172/4
f 79/173/5 73/174/5 75/175/5
f 76/176/6 78/177/6 80/178/6
f 82/179/1 83/180/1 81/181/1
f 84/182/2 87/183/2 83/184/2
f 88/185/3 85/186/3 87/187/3
f 86/188/4 81/189/4 85/190/4
f 87/191/5 81/192/5 83/193/5
f 84/194/6 86/195/6 88/196/6
f 90/197/1 91/198/1 89/199/1
f 92/200/2 95/201/2 91/202/2
f 96/203/3 93/204/3 95/205/3
f 94/206/4 89/207/4 93/208/4
f 95/209/5 89/210/5 91/211/5
f 92/212/6 94/213/6 96/214/6
f 98/215/1 99/216/1 97/217/1
f 100/218/2 103/219/2 99/220/2
f 104/221/3 101/222/3 103/223/3
f 102/224/4 97/225/4 101/226/4
f 103/227/5 97/228/5 99/229/5
f 100/230/6 102/231/6 104/232/6
f 106/233/1 107/234/1 105/235/1
f 108/236/2 111/237/2 107/238/2
f 112/239/3 109/240/3 111/241/3
f 110/242/4 105/243/4 109/244/4
f 111/245/5 105/246/5 107/247/5
f 108/248/6 110/249/6 112/250/6
f 114/251/1 115/252/1 113/253/1
f 116/254/2 119/255/2 115/256/2
f 120/257/3 117/258/3 119/259/3
f 118/260/4 113/261/4 117/262/4
f 119/263/5 113/264/5 115/265/5
f 116/266/6 118/267/6 120/268/6
f 122/269/1 123/270/1 121/271/1
f 124/272/2 127/273/2 123/274/2
f 128/275/3 125/276/3 127/277/3
f 126/278/4 121/279/4 125/280/4
f 127/281/5 121/282/5 123/283/5
f 124/284/6 126/285/6 128/286/6
f 130/287/1 131/288/1 129/289/1
f 132/290/2 135/291/2 131/292/2
f 136/293/3 133/294/3 135/295/3
f 134/296/4 129/297/4 133/298/4
f 135/299/5 129/300/5 131/301/5
f 132/302/6 134/303/6 136/304/6
f 138/305/1 139/306/1 137/307/1
f 140/308/2 143/309/2 139/310/2
f 144/311/3 141/312/3 143/313/3
f 142/314/4 137/315/4 141/316/4
f 143/317/5 137/318/5 139/319/5
f 140/320/6 142/321/6 144/322/6
f 146/323/1 147/324/1 145/325/1
f 148/326/2 151/327/2 147/328/2
f 152/329/3 149/330/3 151/331/3
f 150/332/4 145/333/4 149/334/4
f 151/335/5 145/336/5 147/337/5
f 148/338/6 150/339/6 152/340/6
f 154/341/1 155/342/1 153/343/1
f 156/344/2 159/345/2 155/346/2
f 160/347/3 157/348/3 159/349/3
f 158/350/4 153/351/4 157/352/4
f 159/353/5 153/354/5 155/355/5
f 156/356/6 158/357/6 160/358/6
f 162/359/1 163/360/1 161/361/1
f 164/362/2 167/363/2 163/364/2
f 168/365/3 165/366/3 167/367/3
f 166/368/4 161/369/4 165/370/4
f 167/371/5 161/372/5 163/373/5
f 164/374/6 166/375/6 168/376/6
f 170/377/7 171/378/7 169/379/7
f 172/380/8 173/381/8 171/382/8
f 174/383/9 175/384/9 173/381/9
f 176/385/10 177/386/10 175/387/10
f 178/388/11 179/389/11 177/386/11
f 180/390/12 181/391/12 179/392/12
f 182/393/3 178/394/3 174/395/3
f 182/396/13 183/397/13 181/391/13
f 184/398/14 169/379/14 183/399/14
f 175/400/1 179/401/1 183/402/1
f 186/403/7 187/404/7 185/405/7
f 188/406/8 189/407/8 187/408/8
f 190/409/9 191/410/9 189/407/9
f 192/411/10 193/412/10 191/413/10
f 194/414/11 195/415/11 193/412/11
f 196/416/12 197/417/12 195/418/12
f 198/419/3 194/420/3 190/421/3
f 198/422/13 199/423/13 197/417/13
f 200/424/14 185/405/14 199/425/14
f 191/426/1 195/427/1 199/428/1
f 2/1/1 4/429/1 3/2/1
f 4/4/2 8/430/2 7/5/2
f 8/7/3 6/431/3 5/8/3
f 6/10/4 2/432/4 1/11/4
f 7/13/5 5/433/5 1/14/5
f 4/16/6 2/434/6 6/17/6
f 10/19/1 12/435/1 11/20/1
f 12/22/2 16/436/2 15/23/2
f 16/25/3 14/437/3 13/26/3
f 14/28/4 10/438/4 9/29/4
f 15/31/5 13/439/5 9/32/5
f 12/34/6 10/440/6 14/35/6
f 18/37/1 20/441/1 19/38/1
f 20/40/2 24/442/2 23/41/2
f 24/43/3 22/443/3 21/44/3
f 22/46/4 18/444/4 17/47/4
f 23/49/5 21/445/5 17/50/5
f 20/52/6 18/446/6 22/53/6
f 26/55/1 28/447/1 27/56/1
f 28/58/2 32/448/2 31/59/2
f 32/61/3 30/449/3 29/62/3
f 30/64/4 26/450/4 25/65/4
f 31/67/5 29/451/5 25/68/5
f 28/70/6 26/452/6 30/71/6
f 34/73/1 36/453/1 35/74/1
f 36/76/2 40/454/2 39/77/2
f 40/79/3 38/455/3 37/80/3
f 38/82/4 34/456/4 33/83/4
f 39/85/5 37/457/5 33/86/5
f 36/88/6 34/458/6 38/89/6
f 42/91/1 44/459/1 43/92/1
f 44/94/2 48/460/2 47/95/2
f 48/97/3 46/461/3 45/98/3
f 46/100/4 42/462/4 41/101/4
f 47/103/5 45/102/5 41/101/5
f 44/105/6 42/463/6 46/106/6
f 50/108/1 52/464/1 51/109/1
f 52/111/2 56/465/2 55/112/2
f 56/114/3 54/466/3 53/115/3
f 54/117/4 50/467/4 49/118/4
f 55/120/5 53/119/5 49/118/5
f 52/122/6 50/468/6 54/123/6
f 58/125/1 60/469/1 59/126/1
f 60/128/2 64/470/2 63/129/2
f 64/131/3 62/471/3 61/132/3
f 62/134/4 58/472/4 57/135/4
f 63/137/5 61/473/5 57/138/5
f 60/140/6 58/474/6 62/141/6
f 66/143/1 68/475/1 67/144/1
f 68/146/2 72/476/2 71/147/2
f 72/149/3 70/477/3 69/150/3
f 70/152/4 66/478/4 65/153/4
f 71/155/5 69/479/5 65/156/5
f 68/158/6 66/480/6 70/159/6
f 74/161/1 76/481/1 75/162/1
f 76/164/2 80/482/2 79/165/2
f 80/167/3 78/483/3 77/168/3
f 78/170/4 74/484/4 73/171/4
f 79/173/5 77/485/5 73/174/5
f 76/176/6 74/486/6 78/177/6
f 82/179/1 84/487/1 83/180/1
f 84/182/2 88/488/2 87/183/2
f 88/185/3 86/489/3 85/186/3
f 86/188/4 82/490/4 81/189/4
f 87/191/5 85/491/5 81/192/5
f 84/194/6 82/492/6 86/195/6
f 90/197/1 92/493/1 91/198/1
f 92/200/2 96/494/2 95/201/2
f 96/203/3 94/495/3 93/204/3
f 94/206/4 90/496/4 89/207/4
f 95/209/5 93/497/5 89/210/5
f 92/212/6 90/498/6 94/213/6
f 98/215/1 100/499/1 99/216/1
f 100/218/2 104/500/2 103/219/2
f 104/221/3 102/501/3 101/222/3
f 102/224/4 98/502/4 97/225/4
f 103/227/5 101/503/5 97/228/5
f 100/230/6 98/504/6 102/231/6
f 106/233/1 108/505/1 107/234/1
f 108/236/2 112/506/2 111/237/2
f 112/239/3 110/507/3 109/240/3
f 110/242/4 106/508/4 105/243/4
f 111/245/5 109/509/5 105/246/5
f 108/248/6 106/510/6 110/249/6
f 114/251/1 116/511/1 115/252/1
f 116/254/2 120/512/2 119/255/2
f 120/257/3 118/513/3 117/258/3
f 118/260/4 114/514/4 113/261/4
f 119/263/5 117/515/5 113/264/5
f 116/266/6 114/516/6 118/267/6
f 122/269/1 124/517/1 123/270/1
f 124/272/2 128/518/2 127/273/2
f 128/275/3 126/519/3 125/276/3
f 126/278/4 122/520/4 121/279/4
f 127/281/5 125/521/5 121/282/5
f 124/284/6 122/522/6 126/285/6
f 130/287/1 132/523/1 131/288/1
f 132/290/2 136/524/2 135/291/2
f 136/293/3 134/525/3 133/294/3
f 134/296/4 130/526/4 129/297/4
f 135/299/5 133/527/5 129/300/5
f 132/302/6 130/528/6 134/303/6
f 138/305/1 140/529/1 139/306/1
f 140/308/2 144/530/2 143/309/2
f 144/311/3 142/531/3 141/312/3
f 142/314/4 138/532/4 137/315/4
f 143/317/5 141/533/5 137/318/5
f 140/320/6 138/534/6 142/321/6
f 146/323/1 148/535/1 147/324/1
f 148/326/2 152/536/2 151/327/2
f 152/329/3 150/537/3 149/330/3
f 150/332/4 146/538/4 145/333/4
f 151/335/5 149/539/5 145/336/5
f 148/338/6 146/540/6 150/339/6
f 154/341/1 156/541/1 155/342/1
f 156/344/2 160/542/2 159/345/2
f 160/347/3 158/543/3 157/348/3
f 158/350/4 154/544/4 153/351/4
f 159/353/5 157/545/5 153/354/5
f 156/356/6 154/546/6 158/357/6
f 162/359/1 164/547/1 163/360/1
f 164/362/2 168/548/2 167/363/2
f 168/365/3 166/549/3 165/366/3
f 166/368/4 162/550/4 161/369/4
f 167/371/5 165/551/5 161/372/5
f 164/374/6 162/552/6 166/375/6
f 170/377/7 172/553/7 171/378/7
f 172/380/8 174/383/8 173/381/8
f 174/383/9 176/554/9 175/384/9
f 176/385/10 178/388/10 177/386/10
f 178/388/11 180/555/11 179/389/11
f 180/390/12 182/396/12 181/391/12
f 174/395/3 172/556/3 170/557/3
f 170/557/3 184/558/3 182/393/3
f 182/393/3 180/559/3 178/394/3
f 178/394/3 176/560/3 174/395/3
f 174/395/3 170/557/3 182/393/3
f 182/396/13 184/561/13 183/397/13
f 184/398/14 170/377/14 169/379/14
f 183/402/1 169/562/1 171/563/1
f 171/563/1 173/564/1 175/400/1
f 175/400/1 177/565/1 179/401/1
f 179/401/1 181/566/1 183/402/1
f 183/402/1 171/563/1 175/400/1
f 186/403/7 188/567/7 187/404/7
f 188/406/8 190/409/8 189/407/8
f 190/409/9 192/568/9 191/410/9
f 192/411/10 194/414/10 193/412/10
f 194/414/11 196/569/11 195/415/11
f 196/416/12 198/422/12 197/417/12
f 190/421/3 188/570/3 186/571/3
f 186/571/3 200/572/3 198/419/3
f 198/419/3 196/573/3 194/420/3
f 194/420/3 192/574/3 190/421/3
f 190/421/3 186/571/3 198/419/3
f 198/422/13 200/575/13 199/423/13
f 200/424/14 186/403/14 185/405/14
f 199/428/1 185/576/1 187/577/1
f 187/577/1 189/578/1 191/426/1
f 191/426/1 193/579/1 195/427/1
f 195/427/1 197/580/1 199/428/1
f 199/428/1 187/577/1 191/426/1
