# Blender 5.1.2
# www.blender.org
o COL_BACK
v 24.900000 -4.050000 18.000000
v 25.700001 -4.050000 18.000000
v 25.700001 -4.050000 -28.000000
v 24.900000 -4.050000 -28.000000
v 24.900000 -1.050000 18.000000
v 25.700001 -1.050000 18.000000
v 25.700001 -1.050000 -28.000000
v 24.900000 -1.050000 -28.000000
vn -0.0000 -1.0000 -0.0000
vn -0.0000 1.0000 -0.0000
vn -0.0000 -0.0000 1.0000
vn -0.0000 -0.0000 -1.0000
vn 1.0000 -0.0000 -0.0000
vn -1.0000 -0.0000 -0.0000
s 0
f 4//1 2//1 1//1
f 6//2 8//2 5//2
f 2//3 5//3 1//3
f 4//4 7//4 3//4
f 3//5 6//5 2//5
f 5//6 4//6 1//6
f 4//1 3//1 2//1
f 6//2 7//2 8//2
f 2//3 6//3 5//3
f 4//4 8//4 7//4
f 3//5 7//5 6//5
f 5//6 8//6 4//6
o COL_NEAR
v 17.100000 -4.050000 18.000000
v 17.450001 -4.050000 18.000000
v 17.450001 -4.050000 -28.000000
v 17.100000 -4.050000 -28.000000
v 17.100000 -1.850000 18.000000
v 17.450001 -1.850000 18.000000
v 17.450001 -1.850000 -28.000000
v 17.100000 -1.850000 -28.000000
vn -0.0000 -1.0000 -0.0000
vn -0.0000 1.0000 -0.0000
vn -0.0000 -0.0000 1.0000
vn -0.0000 -0.0000 -1.0000
vn 1.0000 -0.0000 -0.0000
vn -1.0000 -0.0000 -0.0000
s 0
f 12//7 10//7 9//7
f 14//8 16//8 13//8
f 10//9 13//9 9//9
f 12//10 15//10 11//10
f 11//11 14//11 10//11
f 13//12 12//12 9//12
f 12//7 11//7 10//7
f 14//8 15//8 16//8
f 10//9 14//9 13//9
f 12//10 16//10 15//10
f 11//11 15//11 14//11
f 13//12 16//12 12//12
o COL_TROUGH
v 14.600000 -4.050000 -2.400000
v 16.040001 -4.050000 -2.400000
v 16.040001 -4.050000 -7.300000
v 14.600000 -4.050000 -7.300000
v 14.600000 -3.050000 -2.400000
v 16.040001 -3.050000 -2.400000
v 16.040001 -3.050000 -7.300000
v 14.600000 -3.050000 -7.300000
vn -0.0000 -1.0000 -0.0000
vn -0.0000 1.0000 -0.0000
vn -0.0000 -0.0000 1.0000
vn -0.0000 -0.0000 -1.0000
vn 1.0000 -0.0000 -0.0000
vn -1.0000 -0.0000 -0.0000
s 0
f 20//13 18//13 17//13
f 22//14 24//14 21//14
f 18//15 21//15 17//15
f 20//16 23//16 19//16
f 19//17 22//17 18//17
f 21//18 20//18 17//18
f 20//13 19//13 18//13
f 22//14 23//14 24//14
f 18//15 22//15 21//15
f 20//16 24//16 23//16
f 19//17 23//17 22//17
f 21//18 24//18 20//18
o COL_FLOOR
v 17.100000 -4.250000 18.000000
v 25.299999 -4.250000 18.000000
v 25.299999 -4.250000 -28.000000
v 17.100000 -4.250000 -28.000000
v 17.100000 -4.050000 18.000000
v 25.299999 -4.050000 18.000000
v 25.299999 -4.050000 -28.000000
v 17.100000 -4.050000 -28.000000
vn -0.0000 -1.0000 -0.0000
vn -0.0000 1.0000 -0.0000
vn -0.0000 -0.0000 1.0000
vn -0.0000 -0.0000 -1.0000
vn 1.0000 -0.0000 -0.0000
vn -1.0000 -0.0000 -0.0000
s 0
f 28//19 26//19 25//19
f 30//20 32//20 29//20
f 26//21 29//21 25//21
f 28//22 31//22 27//22
f 27//23 30//23 26//23
f 29//24 28//24 25//24
f 28//19 27//19 26//19
f 30//20 31//20 32//20
f 26//21 30//21 29//21
f 28//22 32//22 31//22
f 27//23 31//23 30//23
f 29//24 32//24 28//24
