# Blender 5.1.2
# www.blender.org
mtllib environment.mtl
g RUN_FLOOR_Mesh
v 11.000000 -4.110000 18.000000
v 11.000000 -4.110000 -28.000000
v 25.299999 -4.110000 18.000000
v 25.299999 -4.110000 -28.000000
v 25.049999 -4.050000 18.000000
v 26.700001 -4.050000 18.000000
v 26.700001 -4.050000 -28.000000
v 25.049999 -4.050000 -28.000000
v 25.049999 3.350000 18.000000
v 26.700001 3.350000 18.000000
v 26.700001 3.350000 -28.000000
v 25.049999 3.350000 -28.000000
v 16.959999 -4.050000 18.000000
v 17.570000 -4.050000 18.000000
v 17.570000 -4.050000 -28.000000
v 16.959999 -4.050000 -28.000000
v 16.959999 -1.830000 18.000000
v 17.570000 -1.830000 18.000000
v 17.570000 -1.830000 -28.000000
v 16.959999 -1.830000 -28.000000
v 14.510000 -4.050000 -2.310000
v 16.040001 -4.050000 -2.310000
v 16.040001 -4.050000 -7.390000
v 14.510000 -4.050000 -7.390000
v 14.510000 -3.060000 -2.310000
v 16.040001 -3.060000 -2.310000
v 16.040001 -3.060000 -7.390000
v 14.510000 -3.060000 -7.390000
v 19.200001 -1.424908 6.160000
v 19.350000 -1.424908 6.160000
v 19.350000 -1.424908 4.340000
v 19.200001 -1.424908 4.340000
v 19.200001 0.225092 6.160000
v 19.350000 0.225092 6.160000
v 19.350000 0.225092 4.340000
v 19.200001 0.225092 4.340000
v 19.200001 -0.997895 3.660000
v 19.350000 -0.997895 3.660000
v 19.350000 -0.997895 2.240000
v 19.200001 -0.997895 2.240000
v 19.200001 0.152105 3.660000
v 19.350000 0.152105 3.660000
v 19.350000 0.152105 2.240000
v 19.200001 0.152105 2.240000
v 19.200001 -1.955426 1.660000
v 19.350000 -1.955426 1.660000
v 19.350000 -1.955426 -0.410000
v 19.200001 -1.955426 -0.410000
v 19.200001 0.094574 1.660000
v 19.350000 0.094574 1.660000
v 19.350000 0.094574 -0.410000
v 19.200001 0.094574 -0.410000
v 19.750000 -2.154756 -2.140000
v 19.900000 -2.154756 -2.140000
v 19.900000 -2.154756 -3.660000
v 19.750000 -2.154756 -3.660000
v 19.750000 -0.704756 -2.140000
v 19.900000 -0.704756 -2.140000
v 19.900000 -0.704756 -3.660000
v 19.750000 -0.704756 -3.660000
v 19.750000 -1.667561 -4.040000
v 19.900000 -1.667561 -4.040000
v 19.900000 -1.667561 -5.960000
v 19.750000 -1.667561 -5.960000
v 19.750000 -0.717561 -4.040000
v 19.900000 -0.717561 -4.040000
v 19.900000 -0.717561 -5.960000
v 19.750000 -0.717561 -5.960000
v 20.299999 -1.785131 -8.840000
v 20.450001 -1.785131 -8.840000
v 20.450001 -1.785131 -11.260000
v 20.299999 -1.785131 -11.260000
v 20.299999 0.464869 -8.840000
v 20.450001 0.464869 -8.840000
v 20.450001 0.464869 -11.260000
v 20.299999 0.464869 -11.260000
v 20.299999 -0.839398 -11.940000
v 20.450001 -0.839398 -11.940000
v 20.450001 -0.839398 -13.160000
v 20.299999 -0.839398 -13.160000
v 20.299999 0.510602 -11.940000
v 20.450001 0.510602 -11.940000
v 20.450001 0.510602 -13.160000
v 20.299999 0.510602 -13.160000
v 20.850000 -2.133733 -15.140000
v 21.000000 -2.133733 -15.140000
v 21.000000 -2.133733 -16.660000
v 20.850000 -2.133733 -16.660000
v 20.850000 -0.983733 -15.140000
v 21.000000 -0.983733 -15.140000
v 21.000000 -0.983733 -16.660000
v 20.850000 -0.983733 -16.660000
v 20.850000 -2.677677 -17.240000
v 21.000000 -2.677677 -17.240000
v 21.000000 -2.677677 -19.459999
v 20.850000 -2.677677 -19.459999
v 20.850000 -0.927677 -17.240000
v 21.000000 -0.927677 -17.240000
v 21.000000 -0.927677 -19.459999
v 20.850000 -0.927677 -19.459999
v 21.400000 -0.091950 -0.540000
v 21.549999 -0.091950 -0.540000
v 21.549999 -0.091950 -2.960000
v 21.400000 -0.091950 -2.960000
v 21.400000 1.108050 -0.540000
v 21.549999 1.108050 -0.540000
v 21.549999 1.108050 -2.960000
v 21.400000 1.108050 -2.960000
v 21.400000 -0.273728 -13.840000
v 21.549999 -0.273728 -13.840000
v 21.549999 -0.273728 -16.260000
v 21.400000 -0.273728 -16.260000
v 21.400000 1.226272 -13.840000
v 21.549999 1.226272 -13.840000
v 21.549999 1.226272 -16.260000
v 21.400000 1.226272 -16.260000
v 24.950001 -4.050000 -6.750000
v 25.400000 -4.050000 -6.750000
v 25.400000 -4.050000 -8.950000
v 24.950001 -4.050000 -8.950000
v 24.950001 -1.210000 -6.750000
v 25.400000 -1.210000 -6.750000
v 25.400000 -1.210000 -8.950000
v 24.950001 -1.210000 -8.950000
vn -0.0000 -1.0000 -0.0000
vn -0.0000 1.0000 -0.0000
vn -0.0000 -0.0000 1.0000
vn -0.0000 -0.0000 -1.0000
vn 1.0000 -0.0000 -0.0000
vn -1.0000 -0.0000 -0.0000
vt 0.299978 0.953947
vt 0.004970 0.004970
vt 0.299978 0.004970
vt 0.780634 0.953947
vt 0.746594 0.004970
vt 0.780634 0.004970
vt 0.824612 0.004970
vt 0.790573 0.953947
vt 0.790573 0.004970
vt 0.879598 0.157631
vt 0.913638 0.004970
vt 0.913638 0.157631
vt 0.879598 0.320232
vt 0.913638 0.167570
vt 0.913638 0.320232
vt 0.462579 0.953947
vt 0.309917 0.004970
vt 0.462579 0.004970
vt 0.472518 0.953947
vt 0.625180 0.004970
vt 0.625180 0.953947
vt 0.847136 0.953947
vt 0.834552 0.004970
vt 0.847136 0.004970
vt 0.869659 0.004970
vt 0.857075 0.953947
vt 0.857075 0.004970
vt 0.964461 0.050768
vt 0.977046 0.004970
vt 0.977046 0.050768
vt 0.964461 0.599259
vt 0.977046 0.553461
vt 0.977046 0.599259
vt 0.680917 0.953947
vt 0.635119 0.004970
vt 0.680917 0.004970
vt 0.690857 0.953947
vt 0.736655 0.004970
vt 0.736655 0.953947
vt 0.911162 0.434971
vt 0.879599 0.330171
vt 0.911162 0.330171
vt 0.911162 0.444911
vt 0.879598 0.549711
vt 0.879598 0.444911
vt 0.900022 0.957749
vt 0.879599 0.926185
vt 0.900022 0.926185
vt 0.982409 0.473210
vt 0.961986 0.441646
vt 0.982409 0.441646
vt 0.900022 0.801507
vt 0.879599 0.696706
vt 0.900022 0.696706
vt 0.879599 0.916246
vt 0.900022 0.811446
vt 0.900022 0.916246
vt 0.983271 0.427581
vt 0.980177 0.390035
vt 0.983271 0.390035
vt 0.991317 0.273343
vt 0.988223 0.310889
vt 0.988223 0.273343
vt 0.981415 0.910337
vt 0.984509 0.876297
vt 0.984509 0.910337
vt 0.949814 0.993549
vt 0.952909 0.959510
vt 0.952909 0.993549
vt 0.955141 0.539057
vt 0.921102 0.501510
vt 0.955141 0.501510
vt 0.923577 0.102380
vt 0.957617 0.064833
vt 0.957617 0.102380
vt 0.060199 0.993181
vt 0.057104 0.963887
vt 0.060199 0.963887
vt 0.073232 0.963887
vt 0.070138 0.993181
vt 0.070138 0.963887
vt 0.148340 0.987611
vt 0.151434 0.963887
vt 0.151434 0.987611
vt 0.161374 0.987611
vt 0.164468 0.963887
vt 0.164468 0.987611
vt 0.981997 0.141613
vt 0.958272 0.112319
vt 0.981997 0.112319
vt 0.958272 0.180847
vt 0.981997 0.151553
vt 0.981997 0.180847
vt 0.988635 0.739410
vt 0.985541 0.696706
vt 0.988635 0.696706
vt 0.990079 0.004970
vt 0.986985 0.047674
vt 0.986985 0.004970
vt 0.986985 0.099904
vt 0.990079 0.057613
vt 0.990079 0.099904
vt 0.986985 0.595752
vt 0.990079 0.553461
vt 0.990079 0.595752
vt 0.952253 0.859138
vt 0.909961 0.816434
vt 0.952253 0.816434
vt 0.909961 0.911781
vt 0.952253 0.869077
vt 0.952253 0.911781
vt 0.965942 0.990867
vt 0.962848 0.959510
vt 0.965942 0.959510
vt 0.913056 0.963017
vt 0.909961 0.994374
vt 0.909961 0.963017
vt 0.031037 0.993800
vt 0.034131 0.963887
vt 0.034131 0.993800
vt 0.044071 0.993800
vt 0.047165 0.963887
vt 0.047165 0.993800
vt 0.939875 0.953078
vt 0.909961 0.921720
vt 0.939875 0.921720
vt 0.923577 0.263404
vt 0.953491 0.232046
vt 0.953491 0.263404
vt 0.970238 0.429644
vt 0.967143 0.390035
vt 0.970238 0.390035
vt 0.970650 0.062770
vt 0.967556 0.102380
vt 0.967556 0.062770
vt 0.200475 0.983485
vt 0.203569 0.963887
vt 0.203569 0.983485
vt 0.213508 0.983485
vt 0.216603 0.963887
vt 0.216603 0.983485
vt 0.954522 0.599259
vt 0.934924 0.559650
vt 0.954522 0.559650
vt 0.923577 0.312952
vt 0.943176 0.273343
vt 0.943176 0.312952
vt 0.969413 0.801956
vt 0.966318 0.752032
vt 0.969413 0.752032
vt 0.970238 0.330171
vt 0.967143 0.380096
vt 0.967143 0.330171
vt 0.981621 0.655616
vt 0.984715 0.609199
vt 0.984715 0.655616
vt 0.982652 0.251232
vt 0.985747 0.204815
vt 0.985747 0.251232
vt 0.956379 0.746631
vt 0.909961 0.696706
vt 0.956379 0.696706
vt 0.909961 0.806495
vt 0.956379 0.756570
vt 0.956379 0.806495
vt 0.965286 0.910131
vt 0.962192 0.884962
vt 0.965286 0.884962
vt 0.112333 0.963887
vt 0.109239 0.989055
vt 0.109239 0.963887
vt 0.083172 0.991737
vt 0.086266 0.963887
vt 0.086266 0.991737
vt 0.096205 0.991737
vt 0.099300 0.963887
vt 0.099300 0.991737
vt 0.949814 0.949571
vt 0.974983 0.921720
vt 0.974983 0.949571
vt 0.953115 0.273343
vt 0.978283 0.301193
vt 0.953115 0.301193
vt 0.926090 0.994374
vt 0.922995 0.963017
vt 0.926090 0.963017
vt 0.939123 0.963017
vt 0.936029 0.994374
vt 0.936029 0.963017
vt 0.174407 0.987611
vt 0.177502 0.963886
vt 0.177502 0.987611
vt 0.187441 0.987611
vt 0.190535 0.963886
vt 0.190535 0.987611
vt 0.958648 0.640556
vt 0.934924 0.609199
vt 0.958648 0.609199
vt 0.934924 0.681853
vt 0.958648 0.650495
vt 0.958648 0.681853
vt 0.987397 0.539469
vt 0.984303 0.493671
vt 0.987397 0.493671
vt 0.988016 0.921720
vt 0.984922 0.967519
vt 0.984922 0.921720
vt 0.991936 0.148421
vt 0.995030 0.112319
vt 0.995030 0.148421
vt 0.991936 0.194463
vt 0.995030 0.158361
vt 0.995030 0.194463
vt 0.957204 0.375970
vt 0.921101 0.330171
vt 0.957204 0.330171
vt 0.921102 0.431707
vt 0.957204 0.385909
vt 0.957204 0.431707
vt 0.971682 0.659123
vt 0.968587 0.609199
vt 0.971682 0.609199
vt 0.982446 0.752031
vt 0.979352 0.801956
vt 0.979352 0.752031
vt 0.122273 0.988643
vt 0.125367 0.963887
vt 0.125367 0.988643
vt 0.135306 0.988643
vt 0.138401 0.963887
vt 0.138401 0.988643
vt 0.948333 0.162243
vt 0.923577 0.112319
vt 0.948333 0.112319
vt 0.923577 0.222107
vt 0.948333 0.172183
vt 0.948333 0.222107
vt 0.983271 0.380096
vt 0.980177 0.330171
vt 0.983271 0.330171
vt 0.984509 0.816434
vt 0.981415 0.866358
vt 0.981415 0.816434
vt 0.004970 0.994831
vt 0.008064 0.963887
vt 0.008064 0.994831
vt 0.018003 0.994831
vt 0.021098 0.963887
vt 0.021098 0.994831
vt 0.952046 0.491571
vt 0.921101 0.441647
vt 0.952046 0.441647
vt 0.923577 0.054894
vt 0.954522 0.004970
vt 0.954522 0.054894
vt 0.974363 0.539057
vt 0.965080 0.493671
vt 0.974363 0.493671
vt 0.975601 0.696706
vt 0.966318 0.742092
vt 0.966318 0.696706
vt 0.962192 0.875023
vt 0.971475 0.816434
vt 0.971475 0.875023
vt 0.963430 0.263404
vt 0.972713 0.204815
vt 0.972713 0.263404
vt 0.879598 0.618239
vt 0.924984 0.559650
vt 0.924984 0.618239
vt 0.879599 0.628178
vt 0.924984 0.686767
vt 0.879599 0.686767
vt 0.004970 0.953947
vt 0.746594 0.953947
vt 0.824612 0.953947
vt 0.879598 0.004970
vt 0.879598 0.167570
vt 0.309917 0.953947
vt 0.472518 0.004970
vt 0.834552 0.953947
vt 0.869659 0.953947
vt 0.964461 0.004970
vt 0.964461 0.553461
vt 0.635119 0.953947
vt 0.690857 0.004970
vt 0.879599 0.434971
vt 0.911162 0.549711
vt 0.879599 0.957749
vt 0.961986 0.473210
vt 0.879599 0.801507
vt 0.879599 0.811446
vt 0.980177 0.427581
vt 0.991317 0.310889
vt 0.981415 0.876297
vt 0.949814 0.959510
vt 0.921102 0.539057
vt 0.923577 0.064833
vt 0.057104 0.993181
vt 0.073232 0.993181
vt 0.148340 0.963887
vt 0.161374 0.963887
vt 0.958272 0.141613
vt 0.958272 0.151553
vt 0.985541 0.739410
vt 0.990079 0.047674
vt 0.986985 0.057613
vt 0.986985 0.553461
vt 0.909961 0.859138
vt 0.909961 0.869077
vt 0.962848 0.990867
vt 0.913056 0.994374
vt 0.031037 0.963887
vt 0.044071 0.963887
vt 0.909961 0.953078
vt 0.923577 0.232046
vt 0.967143 0.429644
vt 0.970650 0.102380
vt 0.200475 0.963887
vt 0.213508 0.963887
vt 0.934924 0.599259
vt 0.923577 0.273343
vt 0.966318 0.801956
vt 0.970238 0.380096
vt 0.981621 0.609199
vt 0.982652 0.204815
vt 0.909961 0.746631
vt 0.909961 0.756570
vt 0.962192 0.910131
vt 0.112333 0.989055
vt 0.083172 0.963887
vt 0.096205 0.963887
vt 0.949814 0.921720
vt 0.978283 0.273343
vt 0.922995 0.994374
vt 0.939123 0.994374
vt 0.174407 0.963886
vt 0.187441 0.963886
vt 0.934924 0.640556
vt 0.934924 0.650495
vt 0.984303 0.539469
vt 0.988016 0.967519
vt 0.991936 0.112319
vt 0.991936 0.158361
vt 0.921101 0.375970
vt 0.921102 0.385909
vt 0.968587 0.659123
vt 0.982446 0.801956
vt 0.122273 0.963887
vt 0.135306 0.963887
vt 0.923577 0.162243
vt 0.923577 0.172183
vt 0.980177 0.380096
vt 0.984509 0.866358
vt 0.004970 0.963887
vt 0.018003 0.963887
vt 0.921101 0.491571
vt 0.923577 0.004970
vt 0.965080 0.539057
vt 0.975601 0.742092
vt 0.962192 0.816434
vt 0.963430 0.204815
vt 0.879598 0.559650
vt 0.924984 0.628178
s 0
g RUN_FLOOR_EnvironmentBakedAtlas
usemtl EnvironmentBakedAtlas
f 2/1/1 3/2/1 1/3/1
f 8/4/1 6/5/1 5/6/1
f 10/7/2 12/8/2 9/9/2
f 6/10/3 9/11/3 5/12/3
f 8/13/4 11/14/4 7/15/4
f 7/16/5 10/17/5 6/18/5
f 9/19/6 8/20/6 5/21/6
f 16/22/1 14/23/1 13/24/1
f 18/25/2 20/26/2 17/27/2
f 14/28/3 17/29/3 13/30/3
f 16/31/4 19/32/4 15/33/4
f 15/34/5 18/35/5 14/36/5
f 17/37/6 16/38/6 13/39/6
f 24/40/1 22/41/1 21/42/1
f 26/43/2 28/44/2 25/45/2
f 22/46/3 25/47/3 21/48/3
f 24/49/4 27/50/4 23/51/4
f 23/52/5 26/53/5 22/54/5
f 25/55/6 24/56/6 21/57/6
f 32/58/1 30/59/1 29/60/1
f 34/61/2 36/62/2 33/63/2
f 30/64/3 33/65/3 29/66/3
f 32/67/4 35/68/4 31/69/4
f 31/70/5 34/71/5 30/72/5
f 33/73/6 32/74/6 29/75/6
f 40/76/1 38/77/1 37/78/1
f 42/79/2 44/80/2 41/81/2
f 38/82/3 41/83/3 37/84/3
f 40/85/4 43/86/4 39/87/4
f 39/88/5 42/89/5 38/90/5
f 41/91/6 40/92/6 37/93/6
f 48/94/1 46/95/1 45/96/1
f 50/97/2 52/98/2 49/99/2
f 46/100/3 49/101/3 45/102/3
f 48/103/4 51/104/4 47/105/4
f 47/106/5 50/107/5 46/108/5
f 49/109/6 48/110/6 45/111/6
f 56/112/1 54/113/1 53/114/1
f 58/115/2 60/116/2 57/117/2
f 54/118/3 57/119/3 53/120/3
f 56/121/4 59/122/4 55/123/4
f 55/124/5 58/125/5 54/126/5
f 57/127/6 56/128/6 53/129/6
f 64/130/1 62/131/1 61/132/1
f 66/133/2 68/134/2 65/135/2
f 62/136/3 65/137/3 61/138/3
f 64/139/4 67/140/4 63/141/4
f 63/142/5 66/143/5 62/144/5
f 65/145/6 64/146/6 61/147/6
f 72/148/1 70/149/1 69/150/1
f 74/151/2 76/152/2 73/153/2
f 70/154/3 73/155/3 69/156/3
f 72/157/4 75/158/4 71/159/4
f 71/160/5 74/161/5 70/162/5
f 73/163/6 72/164/6 69/165/6
f 80/166/1 78/167/1 77/168/1
f 82/169/2 84/170/2 81/171/2
f 78/172/3 81/173/3 77/174/3
f 80/175/4 83/176/4 79/177/4
f 79/178/5 82/179/5 78/180/5
f 81/181/6 80/182/6 77/183/6
f 88/184/1 86/185/1 85/186/1
f 90/187/2 92/188/2 89/189/2
f 86/190/3 89/191/3 85/192/3
f 88/193/4 91/194/4 87/195/4
f 87/196/5 90/197/5 86/198/5
f 89/199/6 88/200/6 85/201/6
f 96/202/1 94/203/1 93/204/1
f 98/205/2 100/206/2 97/207/2
f 94/208/3 97/209/3 93/210/3
f 96/211/4 99/212/4 95/213/4
f 95/214/5 98/215/5 94/216/5
f 97/217/6 96/218/6 93/219/6
f 104/220/1 102/221/1 101/222/1
f 106/223/2 108/224/2 105/225/2
f 102/226/3 105/227/3 101/228/3
f 104/229/4 107/230/4 103/231/4
f 103/232/5 106/233/5 102/234/5
f 105/235/6 104/236/6 101/237/6
f 112/238/1 110/239/1 109/240/1
f 114/241/2 116/242/2 113/243/2
f 110/244/3 113/245/3 109/246/3
f 112/247/4 115/248/4 111/249/4
f 111/250/5 114/251/5 110/252/5
f 113/253/6 112/254/6 109/255/6
f 120/256/1 118/257/1 117/258/1
f 122/259/2 124/260/2 121/261/2
f 118/262/3 121/263/3 117/264/3
f 120/265/4 123/266/4 119/267/4
f 119/268/5 122/269/5 118/270/5
f 121/271/6 120/272/6 117/273/6
f 2/1/1 4/274/1 3/2/1
f 8/4/1 7/275/1 6/5/1
f 10/7/2 11/276/2 12/8/2
f 6/10/3 10/277/3 9/11/3
f 8/13/4 12/278/4 11/14/4
f 7/16/5 11/279/5 10/17/5
f 9/19/6 12/280/6 8/20/6
f 16/22/1 15/281/1 14/23/1
f 18/25/2 19/282/2 20/26/2
f 14/28/3 18/283/3 17/29/3
f 16/31/4 20/284/4 19/32/4
f 15/34/5 19/285/5 18/35/5
f 17/37/6 20/286/6 16/38/6
f 24/40/1 23/287/1 22/41/1
f 26/43/2 27/288/2 28/44/2
f 22/46/3 26/289/3 25/47/3
f 24/49/4 28/290/4 27/50/4
f 23/52/5 27/291/5 26/53/5
f 25/55/6 28/292/6 24/56/6
f 32/58/1 31/293/1 30/59/1
f 34/61/2 35/294/2 36/62/2
f 30/64/3 34/295/3 33/65/3
f 32/67/4 36/296/4 35/68/4
f 31/70/5 35/297/5 34/71/5
f 33/73/6 36/298/6 32/74/6
f 40/76/1 39/299/1 38/77/1
f 42/79/2 43/300/2 44/80/2
f 38/82/3 42/301/3 41/83/3
f 40/85/4 44/302/4 43/86/4
f 39/88/5 43/303/5 42/89/5
f 41/91/6 44/304/6 40/92/6
f 48/94/1 47/305/1 46/95/1
f 50/97/2 51/306/2 52/98/2
f 46/100/3 50/307/3 49/101/3
f 48/103/4 52/308/4 51/104/4
f 47/106/5 51/309/5 50/107/5
f 49/109/6 52/310/6 48/110/6
f 56/112/1 55/311/1 54/113/1
f 58/115/2 59/312/2 60/116/2
f 54/118/3 58/313/3 57/119/3
f 56/121/4 60/314/4 59/122/4
f 55/124/5 59/315/5 58/125/5
f 57/127/6 60/316/6 56/128/6
f 64/130/1 63/317/1 62/131/1
f 66/133/2 67/318/2 68/134/2
f 62/136/3 66/319/3 65/137/3
f 64/139/4 68/320/4 67/140/4
f 63/142/5 67/321/5 66/143/5
f 65/145/6 68/322/6 64/146/6
f 72/148/1 71/323/1 70/149/1
f 74/151/2 75/324/2 76/152/2
f 70/154/3 74/325/3 73/155/3
f 72/157/4 76/326/4 75/158/4
f 71/160/5 75/327/5 74/161/5
f 73/163/6 76/328/6 72/164/6
f 80/166/1 79/329/1 78/167/1
f 82/169/2 83/330/2 84/170/2
f 78/172/3 82/331/3 81/173/3
f 80/175/4 84/332/4 83/176/4
f 79/178/5 83/333/5 82/179/5
f 81/181/6 84/334/6 80/182/6
f 88/184/1 87/335/1 86/185/1
f 90/187/2 91/336/2 92/188/2
f 86/190/3 90/337/3 89/191/3
f 88/193/4 92/338/4 91/194/4
f 87/196/5 91/339/5 90/197/5
f 89/199/6 92/340/6 88/200/6
f 96/202/1 95/341/1 94/203/1
f 98/205/2 99/342/2 100/206/2
f 94/208/3 98/343/3 97/209/3
f 96/211/4 100/344/4 99/212/4
f 95/214/5 99/345/5 98/215/5
f 97/217/6 100/346/6 96/218/6
f 104/220/1 103/347/1 102/221/1
f 106/223/2 107/348/2 108/224/2
f 102/226/3 106/349/3 105/227/3
f 104/229/4 108/350/4 107/230/4
f 103/232/5 107/351/5 106/233/5
f 105/235/6 108/352/6 104/236/6
f 112/238/1 111/353/1 110/239/1
f 114/241/2 115/354/2 116/242/2
f 110/244/3 114/355/3 113/245/3
f 112/247/4 116/356/4 115/248/4
f 111/250/5 115/357/5 114/251/5
f 113/253/6 116/358/6 112/254/6
f 120/256/1 119/359/1 118/257/1
f 122/259/2 123/360/2 124/260/2
f 118/262/3 122/361/3 121/263/3
f 120/265/4 124/362/4 123/266/4
f 119/268/5 123/363/5 122/269/5
f 121/271/6 124/364/6 120/272/6
