mtllib walk.mtl
usemtl stone
v -0.6 0.0 0.0
v 0.6 0.0 0.0
v -0.6 0.1 0.0
v 0.6 0.1 0.0
v -0.6 0.2 0.0
v 0.6 0.2 0.0
v -0.6 0.3 0.0
v 0.6 0.3 0.0
v -0.6 0.4 0.0
v 0.6 0.4 0.0
v -0.6 0.5 0.0
v 0.6 0.5 0.0
v -0.6 0.6 -1e-06
v 0.6 0.6 -1e-06
v -0.6 0.7 0.0
v 0.6 0.7 0.0
v -0.6 0.8 1e-06
v 0.6 0.8 1e-06
v -0.6 0.9 0.0
v 0.6 0.9 0.0
v -0.6 1.0 1e-06
v 0.6 1.0 1e-06
v -0.6 1.1 0.0
v 0.6 1.1 0.0
v -0.6 1.2 0.0
v 0.6 1.2 0.0
v -0.6 1.3 -1e-06
v 0.6 1.3 -1e-06
v -0.6 1.4 0.0
v 0.6 1.4 0.0
v -0.6 1.5 0.0
v 0.6 1.5 0.0
v -0.6 1.6 0.0
v 0.6 1.6 0.0
v -0.6 1.7 -1e-06
v 0.6 1.7 -1e-06
v -0.6 1.8 0.0
v 0.6 1.8 0.0
v -0.6 1.9 0.0
v 0.6 1.9 0.0
v -0.6 2.0 1e-06
v 0.6 2.0 1e-06
v -0.6 2.1 0.0
v 0.6 2.1 0.0
v -0.6 2.2 1e-06
v 0.6 2.2 1e-06
v -0.6 2.3 0.0
v 0.6 2.3 0.0
v -0.6 2.4 -1e-06
v 0.6 2.4 -1e-06
v -0.6 2.5 0.0
v 0.6 2.5 0.0
v -0.6 2.6 0.0
v 0.6 2.6 0.0
v -0.6 2.7 0.0
v 0.6 2.7 0.0
v -0.6 2.8 0.0
v 0.6 2.8 0.0
v -0.6 2.9 0.0
v 0.6 2.9 0.0
v -0.6 3.0 0.0
v 0.6 3.0 0.0
f 1 2 4 3
f 3 4 6 5
f 5 6 8 7
f 7 8 10 9
f 9 10 12 11
f 11 12 14 13
f 13 14 16 15
f 15 16 18 17
f 17 18 20 19
f 19 20 22 21
f 21 22 24 23
f 23 24 26 25
f 25 26 28 27
f 27 28 30 29
f 29 30 32 31
f 31 32 34 33
f 33 34 36 35
f 35 36 38 37
f 37 38 40 39
f 39 40 42 41
f 41 42 44 43
f 43 44 46 45
f 45 46 48 47
f 47 48 50 49
f 49 50 52 51
f 51 52 54 53
f 53 54 56 55
f 55 56 58 57
f 57 58 60 59
f 59 60 62 61
