# Generated by tools/asset-gen/kitgen.py -- do not hand-edit.
# Cell-centred, +Y up, -Z forward, 1 unit = 1 cell = 64 atlas px.
mtllib kit_pillar.mtl
o kit_pillar
v -0.26 0 -0.26
v 0.26 0 -0.26
v 0.26 0.12 -0.26
v -0.26 0.12 -0.26
v 0.26 0 0.26
v -0.26 0 0.26
v -0.26 0.12 0.26
v 0.26 0.12 0.26
v 0.26 0 -0.26
v 0.26 0 0.26
v 0.26 0.12 0.26
v 0.26 0.12 -0.26
v -0.26 0 0.26
v -0.26 0 -0.26
v -0.26 0.12 -0.26
v -0.26 0.12 0.26
v -0.26 0.12 0.26
v 0.26 0.12 0.26
v 0.26 0.12 -0.26
v -0.26 0.12 -0.26
v -0.26 0 -0.26
v 0.26 0 -0.26
v 0.26 0 0.26
v -0.26 0 0.26
v -0.17 0.12 -0.17
v 0.17 0.12 -0.17
v 0.17 0.86 -0.17
v -0.17 0.86 -0.17
v 0.17 0.12 0.17
v -0.17 0.12 0.17
v -0.17 0.86 0.17
v 0.17 0.86 0.17
v 0.17 0.12 -0.17
v 0.17 0.12 0.17
v 0.17 0.86 0.17
v 0.17 0.86 -0.17
v -0.17 0.12 0.17
v -0.17 0.12 -0.17
v -0.17 0.86 -0.17
v -0.17 0.86 0.17
v -0.26 0.86 -0.26
v 0.26 0.86 -0.26
v 0.26 1 -0.26
v -0.26 1 -0.26
v 0.26 0.86 0.26
v -0.26 0.86 0.26
v -0.26 1 0.26
v 0.26 1 0.26
v 0.26 0.86 -0.26
v 0.26 0.86 0.26
v 0.26 1 0.26
v 0.26 1 -0.26
v -0.26 0.86 0.26
v -0.26 0.86 -0.26
v -0.26 1 -0.26
v -0.26 1 0.26
v -0.26 1 0.26
v 0.26 1 0.26
v 0.26 1 -0.26
v -0.26 1 -0.26
v -0.26 0.86 -0.26
v 0.26 0.86 -0.26
v 0.26 0.86 0.26
v -0.26 0.86 0.26
vt 0 0.78
vt 0.13 0.78
vt 0.13 0.75
vt 0 0.75
vt 0 0.78
vt 0.13 0.78
vt 0.13 0.75
vt 0 0.75
vt 0 0.78
vt 0.13 0.78
vt 0.13 0.75
vt 0 0.75
vt 0 0.78
vt 0.13 0.78
vt 0.13 0.75
vt 0 0.75
vt 0 0.88
vt 0.13 0.88
vt 0.13 0.75
vt 0 0.75
vt 0 0.88
vt 0.13 0.88
vt 0.13 0.75
vt 0 0.75
vt 0.25 0.435
vt 0.335 0.435
vt 0.335 0.25
vt 0.25 0.25
vt 0.25 0.435
vt 0.335 0.435
vt 0.335 0.25
vt 0.25 0.25
vt 0.25 0.435
vt 0.335 0.435
vt 0.335 0.25
vt 0.25 0.25
vt 0.25 0.435
vt 0.335 0.435
vt 0.335 0.25
vt 0.25 0.25
vt 0.25 0.285
vt 0.38 0.285
vt 0.38 0.25
vt 0.25 0.25
vt 0.25 0.285
vt 0.38 0.285
vt 0.38 0.25
vt 0.25 0.25
vt 0.25 0.285
vt 0.38 0.285
vt 0.38 0.25
vt 0.25 0.25
vt 0.25 0.285
vt 0.38 0.285
vt 0.38 0.25
vt 0.25 0.25
vt 0.25 0.38
vt 0.38 0.38
vt 0.38 0.25
vt 0.25 0.25
vt 0.25 0.38
vt 0.38 0.38
vt 0.38 0.25
vt 0.25 0.25
vn 0 0 1
vn 0 0 -1
vn -1 0 0
vn 1 0 0
vn 0 1 0
vn 0 -1 0
vn 0 0 1
vn 0 0 -1
vn -1 0 0
vn 1 0 0
vn 0 0 1
vn 0 0 -1
vn -1 0 0
vn 1 0 0
vn 0 1 0
vn 0 -1 0
usemtl kit_floor
f 1/1/1 2/2/1 3/3/1 4/4/1
f 5/5/2 6/6/2 7/7/2 8/8/2
f 9/9/3 10/10/3 11/11/3 12/12/3
f 13/13/4 14/14/4 15/15/4 16/16/4
f 17/17/5 18/18/5 19/19/5 20/20/5
f 21/21/6 22/22/6 23/23/6 24/24/6
usemtl kit_stone
f 25/25/7 26/26/7 27/27/7 28/28/7
f 29/29/8 30/30/8 31/31/8 32/32/8
f 33/33/9 34/34/9 35/35/9 36/36/9
f 37/37/10 38/38/10 39/39/10 40/40/10
f 41/41/11 42/42/11 43/43/11 44/44/11
f 45/45/12 46/46/12 47/47/12 48/48/12
f 49/49/13 50/50/13 51/51/13 52/52/13
f 53/53/14 54/54/14 55/55/14 56/56/14
f 57/57/15 58/58/15 59/59/15 60/60/15
f 61/61/16 62/62/16 63/63/16 64/64/16
