# Blender 5.2.2 LTS
# www.blender.org
mtllib environment.mtl
g pe_stage_render_Cube.021
v -5.300000 -0.100000 3.300000
v -5.300000 0.000000 3.300000
v -5.300000 -0.100000 -6.300000
v -5.300000 0.000000 -6.300000
v 5.300000 -0.100000 3.300000
v 5.300000 0.000000 3.300000
v 5.300000 -0.100000 -6.300000
v 5.300000 0.000000 -6.300000
v -5.300000 0.000000 -6.000000
v -5.300000 3.400000 -6.000000
v -5.300000 0.000000 -6.300000
v -5.300000 3.400000 -6.300000
v 5.300000 0.000000 -6.000000
v 5.300000 3.400000 -6.000000
v 5.300000 0.000000 -6.300000
v 5.300000 3.400000 -6.300000
v -5.300000 0.000000 3.300000
v -5.300000 3.400000 3.300000
v -5.300000 0.000000 -6.300000
v -5.300000 3.400000 -6.300000
v -5.000000 0.000000 3.300000
v -5.000000 3.400000 3.300000
v -5.000000 0.000000 -6.300000
v -5.000000 3.400000 -6.300000
v 5.000000 0.000000 3.300000
v 5.000000 3.400000 3.300000
v 5.000000 0.000000 -6.300000
v 5.000000 3.400000 -6.300000
v 5.300000 0.000000 3.300000
v 5.300000 3.400000 3.300000
v 5.300000 0.000000 -6.300000
v 5.300000 3.400000 -6.300000
v -5.000000 0.000000 -5.950000
v -5.000000 0.180000 -5.950000
v -5.000000 0.000000 -6.010000
v -5.000000 0.180000 -6.010000
v 5.000000 0.000000 -5.950000
v 5.000000 0.180000 -5.950000
v 5.000000 0.000000 -6.010000
v 5.000000 0.180000 -6.010000
v -5.010000 0.000000 0.000000
v -5.010000 0.180000 0.000000
v -5.010000 0.000000 -6.000000
v -5.010000 0.180000 -6.000000
v -4.950000 0.000000 0.000000
v -4.950000 0.180000 0.000000
v -4.950000 0.000000 -6.000000
v -4.950000 0.180000 -6.000000
v 4.950000 0.000000 0.000000
v 4.950000 0.180000 0.000000
v 4.950000 0.000000 -6.000000
v 4.950000 0.180000 -6.000000
v 5.010000 0.000000 0.000000
v 5.010000 0.180000 0.000000
v 5.010000 0.000000 -6.000000
v 5.010000 0.180000 -6.000000
v 4.950000 0.000000 -2.500000
v 4.950000 2.200000 -2.500000
v 4.950000 0.000000 -3.500000
v 4.950000 2.200000 -3.500000
v 5.010000 0.000000 -2.500000
v 5.010000 2.200000 -2.500000
v 5.010000 0.000000 -3.500000
v 5.010000 2.200000 -3.500000
v 4.975000 0.000000 -2.350000
v 4.975000 2.400000 -2.350000
v 4.975000 0.000000 -3.650000
v 4.975000 2.400000 -3.650000
v 5.025000 0.000000 -2.350000
v 5.025000 2.400000 -2.350000
v 5.025000 0.000000 -3.650000
v 5.025000 2.400000 -3.650000
v 4.910000 0.800000 -2.675000
v 4.910000 1.300000 -2.675000
v 4.910000 0.800000 -2.725000
v 4.910000 1.300000 -2.725000
v 4.950000 0.800000 -2.675000
v 4.950000 1.300000 -2.675000
v 4.950000 0.800000 -2.725000
v 4.950000 1.300000 -2.725000
v 2.300000 0.000000 -4.300000
v 2.300000 0.220000 -4.300000
v 2.300000 0.000000 -5.900000
v 2.300000 0.220000 -5.900000
v 4.500000 0.000000 -4.300000
v 4.500000 0.220000 -4.300000
v 4.500000 0.000000 -5.900000
v 4.500000 0.220000 -5.900000
v 2.300000 0.220000 -4.360000
v 2.300000 0.440000 -4.360000
v 2.300000 0.220000 -5.840000
v 2.300000 0.440000 -5.840000
v 4.500000 0.220000 -4.360000
v 4.500000 0.440000 -4.360000
v 4.500000 0.220000 -5.840000
v 4.500000 0.440000 -5.840000
v 2.300000 0.440000 -4.420000
v 2.300000 0.660000 -4.420000
v 2.300000 0.440000 -5.780000
v 2.300000 0.660000 -5.780000
v 4.500000 0.440000 -4.420000
v 4.500000 0.660000 -4.420000
v 4.500000 0.440000 -5.780000
v 4.500000 0.660000 -5.780000
v 2.300000 0.660000 -4.480000
v 2.300000 0.880000 -4.480000
v 2.300000 0.660000 -5.720000
v 2.300000 0.880000 -5.720000
v 4.500000 0.660000 -4.480000
v 4.500000 0.880000 -4.480000
v 4.500000 0.660000 -5.720000
v 4.500000 0.880000 -5.720000
v 2.300000 0.880000 -4.540000
v 2.300000 1.100000 -4.540000
v 2.300000 0.880000 -5.660000
v 2.300000 1.100000 -5.660000
v 4.500000 0.880000 -4.540000
v 4.500000 1.100000 -4.540000
v 4.500000 0.880000 -5.660000
v 4.500000 1.100000 -5.660000
v 2.300000 1.100000 -4.600000
v 2.300000 1.320000 -4.600000
v 2.300000 1.100000 -5.600000
v 2.300000 1.320000 -5.600000
v 4.500000 1.100000 -4.600000
v 4.500000 1.320000 -4.600000
v 4.500000 1.100000 -5.600000
v 4.500000 1.320000 -5.600000
v 2.300000 1.320000 -4.660000
v 2.300000 1.540000 -4.660000
v 2.300000 1.320000 -5.540000
v 2.300000 1.540000 -5.540000
v 4.500000 1.320000 -4.660000
v 4.500000 1.540000 -4.660000
v 4.500000 1.320000 -5.540000
v 4.500000 1.540000 -5.540000
v 2.300000 1.540000 -4.720000
v 2.300000 1.760000 -4.720000
v 2.300000 1.540000 -5.480000
v 2.300000 1.760000 -5.480000
v 4.500000 1.540000 -4.720000
v 4.500000 1.760000 -4.720000
v 4.500000 1.540000 -5.480000
v 4.500000 1.760000 -5.480000
v 2.300000 1.760000 -4.780000
v 2.300000 1.980000 -4.780000
v 2.300000 1.760000 -5.420000
v 2.300000 1.980000 -5.420000
v 4.500000 1.760000 -4.780000
v 4.500000 1.980000 -4.780000
v 4.500000 1.760000 -5.420000
v 4.500000 1.980000 -5.420000
v 2.250000 0.250000 -4.430000
v 2.250000 0.950000 -4.430000
v 2.275981 0.250000 -4.415000
v 2.275981 0.950000 -4.415000
v 2.275981 0.250000 -4.385000
v 2.275981 0.950000 -4.385000
v 2.250000 0.250000 -4.370000
v 2.250000 0.950000 -4.370000
v 2.224019 0.250000 -4.385000
v 2.224019 0.950000 -4.385000
v 2.224019 0.250000 -4.415000
v 2.224019 0.950000 -4.415000
v 2.250000 0.470000 -4.550000
v 2.250000 1.170000 -4.550000
v 2.275981 0.470000 -4.535000
v 2.275981 1.170000 -4.535000
v 2.275981 0.470000 -4.505000
v 2.275981 1.170000 -4.505000
v 2.250000 0.470000 -4.490000
v 2.250000 1.170000 -4.490000
v 2.224019 0.470000 -4.505000
v 2.224019 1.170000 -4.505000
v 2.224019 0.470000 -4.535000
v 2.224019 1.170000 -4.535000
v 2.250000 0.690000 -4.670000
v 2.250000 1.390000 -4.670000
v 2.275981 0.690000 -4.655000
v 2.275981 1.390000 -4.655000
v 2.275981 0.690000 -4.625000
v 2.275981 1.390000 -4.625000
v 2.250000 0.690000 -4.610000
v 2.250000 1.390000 -4.610000
v 2.224019 0.690000 -4.625000
v 2.224019 1.390000 -4.625000
v 2.224019 0.690000 -4.655000
v 2.224019 1.390000 -4.655000
v 2.250000 0.910000 -4.790000
v 2.250000 1.610000 -4.790000
v 2.275981 0.910000 -4.775000
v 2.275981 1.610000 -4.775000
v 2.275981 0.910000 -4.745000
v 2.275981 1.610000 -4.745000
v 2.250000 0.910000 -4.730000
v 2.250000 1.610000 -4.730000
v 2.224019 0.910000 -4.745000
v 2.224019 1.610000 -4.745000
v 2.224019 0.910000 -4.775000
v 2.224019 1.610000 -4.775000
v 2.250000 1.130000 -4.910000
v 2.250000 1.830000 -4.910000
v 2.275981 1.130000 -4.895000
v 2.275981 1.830000 -4.895000
v 2.275981 1.130000 -4.865000
v 2.275981 1.830000 -4.865000
v 2.250000 1.130000 -4.850000
v 2.250000 1.830000 -4.850000
v 2.224019 1.130000 -4.865000
v 2.224019 1.830000 -4.865000
v 2.224019 1.130000 -4.895000
v 2.224019 1.830000 -4.895000
v 2.250000 1.350000 -5.030000
v 2.250000 2.050000 -5.030000
v 2.275981 1.350000 -5.015000
v 2.275981 2.050000 -5.015000
v 2.275981 1.350000 -4.985000
v 2.275981 2.050000 -4.985000
v 2.250000 1.350000 -4.970000
v 2.250000 2.050000 -4.970000
v 2.224019 1.350000 -4.985000
v 2.224019 2.050000 -4.985000
v 2.224019 1.350000 -5.015000
v 2.224019 2.050000 -5.015000
v 2.250000 1.570000 -5.150000
v 2.250000 2.270000 -5.150000
v 2.275981 1.570000 -5.135000
v 2.275981 2.270000 -5.135000
v 2.275981 1.570000 -5.105000
v 2.275981 2.270000 -5.105000
v 2.250000 1.570000 -5.090000
v 2.250000 2.270000 -5.090000
v 2.224019 1.570000 -5.105000
v 2.224019 2.270000 -5.105000
v 2.224019 1.570000 -5.135000
v 2.224019 2.270000 -5.135000
v 2.250000 1.790000 -5.270000
v 2.250000 2.490000 -5.270000
v 2.275981 1.790000 -5.255000
v 2.275981 2.490000 -5.255000
v 2.275981 1.790000 -5.225000
v 2.275981 2.490000 -5.225000
v 2.250000 1.790000 -5.210000
v 2.250000 2.490000 -5.210000
v 2.224019 1.790000 -5.225000
v 2.224019 2.490000 -5.225000
v 2.224019 1.790000 -5.255000
v 2.224019 2.490000 -5.255000
v 2.250000 2.010000 -5.390000
v 2.250000 2.710000 -5.390000
v 2.275981 2.010000 -5.375000
v 2.275981 2.710000 -5.375000
v 2.275981 2.010000 -5.345000
v 2.275981 2.710000 -5.345000
v 2.250000 2.010000 -5.330000
v 2.250000 2.710000 -5.330000
v 2.224019 2.010000 -5.345000
v 2.224019 2.710000 -5.345000
v 2.224019 2.010000 -5.375000
v 2.224019 2.710000 -5.375000
v 2.220000 1.270000 -4.250000
v 2.220000 1.330000 -4.250000
v 2.220000 1.270000 -5.550000
v 2.220000 1.330000 -5.550000
v 2.280000 1.270000 -4.250000
v 2.280000 1.330000 -4.250000
v 2.280000 1.270000 -5.550000
v 2.280000 1.330000 -5.550000
v -4.500000 0.000000 -5.900000
v -4.500000 3.400000 -5.900000
v -4.500000 0.000000 -6.000000
v -4.500000 3.400000 -6.000000
v 1.500000 0.000000 -5.900000
v 1.500000 3.400000 -5.900000
v 1.500000 0.000000 -6.000000
v 1.500000 3.400000 -6.000000
v -2.500000 0.050000 -1.500000
v -2.500000 0.041213 -1.521213
v -2.500000 0.020000 -1.530000
v -2.500000 -0.001213 -1.521213
v -2.500000 -0.010000 -1.500000
v -2.481629 0.041213 -1.510607
v -2.474019 0.020000 -1.515000
v -2.481629 -0.001213 -1.510607
v -2.481629 0.041213 -1.489393
v -2.474019 0.020000 -1.485000
v -2.481629 -0.001213 -1.489393
v -2.500000 0.041213 -1.478787
v -2.500000 0.020000 -1.470000
v -2.500000 -0.001213 -1.478787
v -2.518371 0.041213 -1.489393
v -2.525981 0.020000 -1.485000
v -2.518371 -0.001213 -1.489393
v -2.518371 0.041213 -1.510607
v -2.525981 0.020000 -1.515000
v -2.518371 -0.001213 -1.510607
v -1.700000 0.050000 -2.100000
v -1.700000 0.041213 -2.121213
v -1.700000 0.020000 -2.130000
v -1.700000 -0.001213 -2.121213
v -1.700000 -0.010000 -2.100000
v -1.681629 0.041213 -2.110606
v -1.674019 0.020000 -2.115000
v -1.681629 -0.001213 -2.110606
v -1.681629 0.041213 -2.089393
v -1.674019 0.020000 -2.085000
v -1.681629 -0.001213 -2.089393
v -1.700000 0.041213 -2.078787
v -1.700000 0.020000 -2.070000
v -1.700000 -0.001213 -2.078787
v -1.718371 0.041213 -2.089393
v -1.725981 0.020000 -2.085000
v -1.718371 -0.001213 -2.089393
v -1.718371 0.041213 -2.110606
v -1.725981 0.020000 -2.115000
v -1.718371 -0.001213 -2.110606
v -0.900000 0.050000 -2.700000
v -0.900000 0.041213 -2.721213
v -0.900000 0.020000 -2.730000
v -0.900000 -0.001213 -2.721213
v -0.900000 -0.010000 -2.700000
v -0.881629 0.041213 -2.710607
v -0.874019 0.020000 -2.715000
v -0.881629 -0.001213 -2.710607
v -0.881629 0.041213 -2.689394
v -0.874019 0.020000 -2.685000
v -0.881629 -0.001213 -2.689394
v -0.900000 0.041213 -2.678787
v -0.900000 0.020000 -2.670000
v -0.900000 -0.001213 -2.678787
v -0.918371 0.041213 -2.689394
v -0.925981 0.020000 -2.685000
v -0.918371 -0.001213 -2.689394
v -0.918371 0.041213 -2.710607
v -0.925981 0.020000 -2.715000
v -0.918371 -0.001213 -2.710607
v -0.100000 0.050000 -1.500000
v -0.100000 0.041213 -1.521213
v -0.100000 0.020000 -1.530000
v -0.100000 -0.001213 -1.521213
v -0.100000 -0.010000 -1.500000
v -0.081629 0.041213 -1.510607
v -0.074019 0.020000 -1.515000
v -0.081629 -0.001213 -1.510607
v -0.081629 0.041213 -1.489393
v -0.074019 0.020000 -1.485000
v -0.081629 -0.001213 -1.489393
v -0.100000 0.041213 -1.478787
v -0.100000 0.020000 -1.470000
v -0.100000 -0.001213 -1.478787
v -0.118371 0.041213 -1.489393
v -0.125981 0.020000 -1.485000
v -0.118371 -0.001213 -1.489393
v -0.118371 0.041213 -1.510607
v -0.125981 0.020000 -1.515000
v -0.118371 -0.001213 -1.510607
v 0.700000 0.050000 -2.100000
v 0.700000 0.041213 -2.121213
v 0.700000 0.020000 -2.130000
v 0.700000 -0.001213 -2.121213
v 0.700000 -0.010000 -2.100000
v 0.718371 0.041213 -2.110606
v 0.725981 0.020000 -2.115000
v 0.718371 -0.001213 -2.110606
v 0.718371 0.041213 -2.089393
v 0.725981 0.020000 -2.085000
v 0.718371 -0.001213 -2.089393
v 0.700000 0.041213 -2.078787
v 0.700000 0.020000 -2.070000
v 0.700000 -0.001213 -2.078787
v 0.681629 0.041213 -2.089393
v 0.674019 0.020000 -2.085000
v 0.681629 -0.001213 -2.089393
v 0.681629 0.041213 -2.110606
v 0.674019 0.020000 -2.115000
v 0.681629 -0.001213 -2.110606
v 1.500000 0.050000 -2.700000
v 1.500000 0.041213 -2.721213
v 1.500000 0.020000 -2.730000
v 1.500000 -0.001213 -2.721213
v 1.500000 -0.010000 -2.700000
v 1.518371 0.041213 -2.710607
v 1.525981 0.020000 -2.715000
v 1.518371 -0.001213 -2.710607
v 1.518371 0.041213 -2.689394
v 1.525981 0.020000 -2.685000
v 1.518371 -0.001213 -2.689394
v 1.500000 0.041213 -2.678787
v 1.500000 0.020000 -2.670000
v 1.500000 -0.001213 -2.678787
v 1.481629 0.041213 -2.689394
v 1.474019 0.020000 -2.685000
v 1.481629 -0.001213 -2.689394
v 1.481629 0.041213 -2.710607
v 1.474019 0.020000 -2.715000
v 1.481629 -0.001213 -2.710607
v 2.300000 0.050000 -1.500000
v 2.300000 0.041213 -1.521213
v 2.300000 0.020000 -1.530000
v 2.300000 -0.001213 -1.521213
v 2.300000 -0.010000 -1.500000
v 2.318371 0.041213 -1.510607
v 2.325981 0.020000 -1.515000
v 2.318371 -0.001213 -1.510607
v 2.318371 0.041213 -1.489393
v 2.325981 0.020000 -1.485000
v 2.318371 -0.001213 -1.489393
v 2.300000 0.041213 -1.478787
v 2.300000 0.020000 -1.470000
v 2.300000 -0.001213 -1.478787
v 2.281629 0.041213 -1.489393
v 2.274019 0.020000 -1.485000
v 2.281629 -0.001213 -1.489393
v 2.281629 0.041213 -1.510607
v 2.274019 0.020000 -1.515000
v 2.281629 -0.001213 -1.510607
vn -1.0000 -0.0000 -0.0000
vn -0.0000 -0.0000 -1.0000
vn 1.0000 -0.0000 -0.0000
vn -0.0000 -0.0000 1.0000
vn -0.0000 -1.0000 -0.0000
vn -0.0000 1.0000 -0.0000
vn 0.5000 -0.0000 -0.8660
vn 0.5000 -0.0000 0.8660
vn -0.5000 -0.0000 0.8660
vn -0.5000 -0.0000 -0.8660
vn 0.2157 -0.9021 -0.3737
vn 0.4706 0.3377 -0.8152
vn 0.4706 -0.3376 -0.8152
vn 0.2157 0.9021 -0.3737
vn 0.4315 -0.9021 -0.0000
vn 0.9413 0.3377 -0.0000
vn 0.9413 -0.3377 -0.0000
vn 0.4315 0.9021 -0.0000
vn 0.2157 -0.9021 0.3737
vn 0.4706 0.3377 0.8152
vn 0.4706 -0.3376 0.8152
vn 0.2157 0.9021 0.3737
vn -0.2157 -0.9021 0.3737
vn -0.4706 0.3377 0.8152
vn -0.4706 -0.3376 0.8152
vn -0.2157 0.9021 0.3737
vn -0.4315 0.9021 -0.0000
vn -0.4315 -0.9021 -0.0000
vn -0.9413 0.3377 -0.0000
vn -0.9413 -0.3377 -0.0000
vn -0.4706 -0.3376 -0.8152
vn -0.2157 0.9021 -0.3737
vn -0.2157 -0.9021 -0.3737
vn -0.4706 0.3377 -0.8152
vn 0.9413 -0.3376 -0.0000
vn 0.9413 0.3376 -0.0000
vn 0.4706 -0.3377 0.8152
vn -0.4706 -0.3377 0.8152
vn -0.9413 0.3376 -0.0000
vn -0.9413 -0.3376 -0.0000
vn -0.4706 -0.3377 -0.8152
vn 0.4706 -0.3377 -0.8152
vn 0.4706 0.3376 0.8152
vn -0.4706 0.3376 -0.8152
vn 0.4706 0.3376 -0.8152
vn -0.4706 0.3376 0.8152
vt 0.977539 0.365234
vt 0.979492 0.002930
vt 0.979492 0.365234
vt 0.968750 0.403320
vt 0.970703 0.002930
vt 0.970703 0.403320
vt 0.977539 0.734375
vt 0.979492 0.372070
vt 0.979492 0.734375
vt 0.968750 0.810547
vt 0.970703 0.409180
vt 0.970703 0.810547
vt 0.365234 0.403320
vt 0.002930 0.002930
vt 0.365234 0.002930
vt 0.734375 0.403320
vt 0.372070 0.002930
vt 0.734375 0.002930
vt 0.822266 0.826172
vt 0.833008 0.954102
vt 0.822266 0.954102
vt 0.002930 0.810547
vt 0.130859 0.409180
vt 0.130859 0.810547
vt 0.838867 0.826172
vt 0.849609 0.954102
vt 0.838867 0.954102
vt 0.136719 0.810547
vt 0.264648 0.409180
vt 0.264648 0.810547
vt 0.884766 0.403320
vt 0.874023 0.002930
vt 0.884766 0.002930
vt 0.901367 0.403320
vt 0.890625 0.002930
vt 0.901367 0.002930
vt 0.270508 0.772461
vt 0.398438 0.409180
vt 0.398438 0.772461
vt 0.210938 0.816406
vt 0.220703 0.944336
vt 0.210938 0.944336
vt 0.404297 0.772461
vt 0.532227 0.409180
vt 0.532227 0.772461
vt 0.227539 0.816406
vt 0.237305 0.944336
vt 0.227539 0.944336
vt 0.907227 0.365234
vt 0.917969 0.002930
vt 0.917969 0.365234
vt 0.923828 0.365234
vt 0.933594 0.002930
vt 0.933594 0.365234
vt 0.538086 0.772461
vt 0.666016 0.409180
vt 0.666016 0.772461
vt 0.243164 0.816406
vt 0.253906 0.944336
vt 0.243164 0.944336
vt 0.671875 0.772461
vt 0.799805 0.409180
vt 0.799805 0.772461
vt 0.805664 0.826172
vt 0.816406 0.954102
vt 0.805664 0.954102
vt 0.940430 0.365234
vt 0.950195 0.002930
vt 0.950195 0.365234
vt 0.940430 0.734375
vt 0.950195 0.372070
vt 0.950195 0.734375
vt 0.754883 0.389648
vt 0.756836 0.395508
vt 0.754883 0.395508
vt 0.956055 0.380859
vt 0.961914 0.002930
vt 0.961914 0.380859
vt 0.793945 0.384766
vt 0.795898 0.390625
vt 0.793945 0.390625
vt 0.956055 0.764648
vt 0.961914 0.386719
vt 0.961914 0.764648
vt 0.987305 0.380859
vt 0.986328 0.002930
vt 0.987305 0.002930
vt 0.987305 0.764648
vt 0.986328 0.386719
vt 0.987305 0.386719
vt 0.903320 0.868164
vt 0.909180 0.641602
vt 0.909180 0.868164
vt 0.740234 0.389648
vt 0.741211 0.395508
vt 0.740234 0.395508
vt 0.915039 0.868164
vt 0.920898 0.641602
vt 0.920898 0.868164
vt 0.993164 0.235352
vt 0.995117 0.242188
vt 0.993164 0.242188
vt 0.993164 0.468750
vt 0.995117 0.468750
vt 0.993164 0.939453
vt 0.995117 0.713867
vt 0.995117 0.939453
vt 0.926758 0.868164
vt 0.932617 0.641602
vt 0.932617 0.868164
vt 0.748047 0.389648
vt 0.749023 0.395508
vt 0.748047 0.395508
vt 0.940430 0.966797
vt 0.946289 0.740234
vt 0.946289 0.966797
vt 0.993164 0.474609
vt 0.995117 0.481445
vt 0.993164 0.481445
vt 0.993164 0.708008
vt 0.995117 0.708008
vt 0.956055 0.997070
vt 0.958008 0.770508
vt 0.958008 0.997070
vt 0.860352 0.641602
vt 0.897461 0.724609
vt 0.860352 0.724609
vt 0.479492 0.866211
vt 0.480469 0.949219
vt 0.479492 0.949219
vt 0.002930 0.816406
vt 0.040039 0.898438
vt 0.002930 0.898438
vt 0.486328 0.866211
vt 0.487305 0.949219
vt 0.486328 0.949219
vt 0.650391 0.903320
vt 0.651367 0.866211
vt 0.651367 0.903320
vt 0.657227 0.903320
vt 0.659180 0.866211
vt 0.659180 0.903320
vt 0.805664 0.235352
vt 0.854492 0.325195
vt 0.805664 0.325195
vt 0.895508 0.826172
vt 0.896484 0.916016
vt 0.895508 0.916016
vt 0.805664 0.641602
vt 0.854492 0.731445
vt 0.805664 0.731445
vt 0.471680 0.866211
vt 0.472656 0.957031
vt 0.471680 0.957031
vt 0.636719 0.915039
vt 0.637695 0.866211
vt 0.637695 0.915039
vt 0.643555 0.915039
vt 0.644531 0.866211
vt 0.644531 0.915039
vt 0.767578 0.384766
vt 0.768555 0.403320
vt 0.767578 0.403320
vt 0.780646 0.384394
vt 0.782161 0.403332
vt 0.780646 0.403332
vt 0.774414 0.384766
vt 0.775391 0.403320
vt 0.774414 0.403320
vt 0.787232 0.384394
vt 0.788748 0.403332
vt 0.787232 0.403332
vt 0.750000 0.899414
vt 0.750977 0.898438
vt 0.750977 0.899414
vt 0.756836 0.899414
vt 0.757812 0.898438
vt 0.757812 0.899414
vt 0.740234 0.383789
vt 0.748047 0.324219
vt 0.748047 0.383789
vt 0.404297 0.949219
vt 0.412109 0.866211
vt 0.412109 0.949219
vt 0.753906 0.383789
vt 0.760742 0.324219
vt 0.760742 0.383789
vt 0.417969 0.949219
vt 0.425781 0.866211
vt 0.425781 0.949219
vt 0.799805 0.317383
vt 0.740234 0.235352
vt 0.799805 0.235352
vt 0.330078 0.860352
vt 0.270508 0.778320
vt 0.330078 0.778320
vt 0.767578 0.378906
vt 0.774414 0.324219
vt 0.774414 0.378906
vt 0.431641 0.949219
vt 0.438477 0.866211
vt 0.438477 0.949219
vt 0.780273 0.378906
vt 0.788086 0.324219
vt 0.788086 0.378906
vt 0.458984 0.949219
vt 0.465820 0.866211
vt 0.465820 0.949219
vt 0.391602 0.860352
vt 0.335938 0.778320
vt 0.391602 0.778320
vt 0.452148 0.860352
vt 0.397461 0.778320
vt 0.452148 0.778320
vt 0.805664 0.381836
vt 0.813477 0.331055
vt 0.813477 0.381836
vt 0.445312 0.949219
vt 0.452148 0.866211
vt 0.452148 0.949219
vt 0.819336 0.381836
vt 0.827148 0.331055
vt 0.827148 0.381836
vt 0.351562 0.949219
vt 0.358398 0.866211
vt 0.358398 0.949219
vt 0.856445 0.820312
vt 0.805664 0.738281
vt 0.856445 0.738281
vt 0.508789 0.860352
vt 0.458984 0.778320
vt 0.508789 0.778320
vt 0.833008 0.376953
vt 0.839844 0.331055
vt 0.839844 0.376953
vt 0.364258 0.949219
vt 0.372070 0.866211
vt 0.372070 0.949219
vt 0.846680 0.376953
vt 0.853516 0.331055
vt 0.853516 0.376953
vt 0.377930 0.949219
vt 0.385742 0.866211
vt 0.385742 0.949219
vt 0.561523 0.860352
vt 0.515625 0.778320
vt 0.561523 0.778320
vt 0.613281 0.860352
vt 0.567383 0.778320
vt 0.613281 0.778320
vt 0.506836 0.908203
vt 0.514648 0.866211
vt 0.514648 0.908203
vt 0.881836 0.908203
vt 0.889648 0.826172
vt 0.889648 0.908203
vt 0.494141 0.908203
vt 0.500977 0.866211
vt 0.500977 0.908203
vt 0.391602 0.949219
vt 0.398438 0.866211
vt 0.398438 0.949219
vt 0.661133 0.860352
vt 0.619141 0.778320
vt 0.661133 0.778320
vt 0.708008 0.860352
vt 0.666992 0.778320
vt 0.708008 0.778320
vt 0.520508 0.903320
vt 0.528320 0.866211
vt 0.528320 0.903320
vt 0.270508 0.949219
vt 0.278320 0.866211
vt 0.278320 0.949219
vt 0.534180 0.903320
vt 0.541016 0.866211
vt 0.541016 0.903320
vt 0.284180 0.949219
vt 0.291016 0.866211
vt 0.291016 0.949219
vt 0.750977 0.860352
vt 0.713867 0.778320
vt 0.750977 0.778320
vt 0.793945 0.860352
vt 0.756836 0.778320
vt 0.793945 0.778320
vt 0.860352 0.401367
vt 0.868164 0.369141
vt 0.868164 0.401367
vt 0.297852 0.949219
vt 0.304688 0.866211
vt 0.304688 0.949219
vt 0.546875 0.899414
vt 0.554688 0.866211
vt 0.554688 0.899414
vt 0.310547 0.949219
vt 0.318359 0.866211
vt 0.318359 0.949219
vt 0.895508 0.820312
vt 0.862305 0.738281
vt 0.895508 0.738281
vt 0.078125 0.898438
vt 0.045898 0.816406
vt 0.078125 0.816406
vt 0.560547 0.894531
vt 0.568359 0.866211
vt 0.568359 0.894531
vt 0.324219 0.949219
vt 0.332031 0.866211
vt 0.332031 0.949219
vt 0.574219 0.894531
vt 0.581055 0.866211
vt 0.581055 0.894531
vt 0.855469 0.908203
vt 0.862305 0.826172
vt 0.862305 0.908203
vt 0.112305 0.898438
vt 0.083984 0.816406
vt 0.112305 0.816406
vt 0.146484 0.898438
vt 0.118164 0.816406
vt 0.146484 0.816406
vt 0.609375 0.889648
vt 0.617188 0.866211
vt 0.617188 0.889648
vt 0.337891 0.949219
vt 0.344727 0.866211
vt 0.344727 0.949219
vt 0.623047 0.889648
vt 0.629883 0.866211
vt 0.629883 0.889648
vt 0.869141 0.908203
vt 0.875977 0.826172
vt 0.875977 0.908203
vt 0.175781 0.898438
vt 0.152344 0.816406
vt 0.175781 0.816406
vt 0.205078 0.898438
vt 0.181641 0.816406
vt 0.205078 0.816406
vt 0.665507 0.866181
vt 0.666491 0.892695
vt 0.665507 0.892695
vt 0.902903 0.873756
vt 0.904039 0.900270
vt 0.902903 0.900270
vt 0.671563 0.866181
vt 0.672547 0.892695
vt 0.671563 0.892695
vt 0.672547 0.866181
vt 0.673531 0.892695
vt 0.816907 0.397988
vt 0.814939 0.397988
vt 0.815923 0.396284
vt 0.906626 0.371220
vt 0.907762 0.397734
vt 0.906626 0.397734
vt 0.664523 0.866181
vt 0.664523 0.892695
vt 0.815244 0.389508
vt 0.817212 0.389507
vt 0.816228 0.391212
vt 0.735921 0.866181
vt 0.736905 0.892695
vt 0.735921 0.892695
vt 0.609094 0.895494
vt 0.610231 0.922007
vt 0.609094 0.922007
vt 0.741977 0.866181
vt 0.742961 0.892695
vt 0.741977 0.892695
vt 0.742961 0.866181
vt 0.743945 0.892695
vt 0.821979 0.397988
vt 0.822963 0.396284
vt 0.823947 0.397988
vt 0.615302 0.895494
vt 0.616439 0.922007
vt 0.615302 0.922007
vt 0.734937 0.866181
vt 0.734937 0.892695
vt 0.823267 0.391212
vt 0.822283 0.389507
vt 0.824251 0.389507
vt 0.679587 0.866181
vt 0.680571 0.892695
vt 0.679587 0.892695
vt 0.909180 0.874023
vt 0.910156 0.899414
vt 0.909180 0.899414
vt 0.685643 0.866181
vt 0.686627 0.892695
vt 0.685643 0.892695
vt 0.686627 0.866181
vt 0.687611 0.892695
vt 0.836059 0.397988
vt 0.837043 0.396284
vt 0.838027 0.397988
vt 0.912834 0.371220
vt 0.913970 0.397734
vt 0.912834 0.397734
vt 0.678603 0.866181
vt 0.678603 0.892695
vt 0.837347 0.391212
vt 0.836363 0.389507
vt 0.838331 0.389507
vt 0.693667 0.866181
vt 0.694651 0.892695
vt 0.693667 0.892695
vt 0.915319 0.873756
vt 0.916456 0.900270
vt 0.915319 0.900270
vt 0.699723 0.866181
vt 0.700707 0.892695
vt 0.699723 0.892695
vt 0.700707 0.866181
vt 0.701691 0.892695
vt 0.843099 0.397988
vt 0.844083 0.396284
vt 0.845067 0.397988
vt 0.919042 0.371220
vt 0.920178 0.397734
vt 0.919042 0.397734
vt 0.692683 0.866181
vt 0.692683 0.892695
vt 0.844387 0.391212
vt 0.843403 0.389507
vt 0.845371 0.389507
vt 0.707747 0.866181
vt 0.708731 0.892695
vt 0.707747 0.892695
vt 0.791992 0.866211
vt 0.792969 0.892578
vt 0.791992 0.892578
vt 0.713817 0.866181
vt 0.714801 0.892695
vt 0.713817 0.892695
vt 0.714801 0.866181
vt 0.715785 0.892695
vt 0.756562 0.402533
vt 0.754594 0.402533
vt 0.755578 0.400829
vt 0.798173 0.866181
vt 0.799309 0.892695
vt 0.798173 0.892695
vt 0.706763 0.866181
vt 0.706763 0.892695
vt 0.793819 0.396852
vt 0.795788 0.396852
vt 0.794804 0.398556
vt 0.750001 0.866181
vt 0.750985 0.892695
vt 0.750001 0.892695
vt 0.921527 0.873756
vt 0.922664 0.900270
vt 0.921527 0.900270
vt 0.756765 0.866181
vt 0.757749 0.892695
vt 0.756765 0.892695
vt 0.757749 0.866181
vt 0.758733 0.892695
vt 0.808883 0.398556
vt 0.807899 0.396852
vt 0.809867 0.396852
vt 0.664523 0.897766
vt 0.665660 0.924280
vt 0.664523 0.924280
vt 0.749017 0.866181
vt 0.749017 0.892695
vt 0.808204 0.390644
vt 0.809188 0.388939
vt 0.810172 0.390644
vt 0.721841 0.866181
vt 0.722825 0.892695
vt 0.721841 0.892695
vt 0.622499 0.895494
vt 0.623635 0.922007
vt 0.622499 0.922007
vt 0.727897 0.866181
vt 0.728881 0.892695
vt 0.727897 0.892695
vt 0.728881 0.866181
vt 0.729865 0.892695
vt 0.850139 0.397988
vt 0.851123 0.396284
vt 0.852107 0.397988
vt 0.628707 0.895494
vt 0.629843 0.922007
vt 0.628707 0.922007
vt 0.720857 0.866181
vt 0.720857 0.892695
vt 0.851427 0.391212
vt 0.850443 0.389507
vt 0.852411 0.389507
vt 0.764789 0.866181
vt 0.765773 0.892695
vt 0.764789 0.892695
vt 0.671563 0.897766
vt 0.672700 0.924280
vt 0.671563 0.924280
vt 0.770845 0.866181
vt 0.771829 0.892695
vt 0.770845 0.892695
vt 0.771829 0.866181
vt 0.772813 0.892695
vt 0.802827 0.397988
vt 0.800859 0.397988
vt 0.801843 0.396284
vt 0.677771 0.897766
vt 0.678908 0.924280
vt 0.677771 0.924280
vt 0.763805 0.866181
vt 0.763805 0.892695
vt 0.801164 0.389507
vt 0.803132 0.389507
vt 0.802148 0.391212
vt 0.778869 0.866181
vt 0.779853 0.892695
vt 0.778869 0.892695
vt 0.683979 0.897766
vt 0.685116 0.924280
vt 0.683979 0.924280
vt 0.784925 0.866181
vt 0.785909 0.892695
vt 0.784925 0.892695
vt 0.785909 0.866181
vt 0.786893 0.892695
vt 0.830987 0.397988
vt 0.829019 0.397988
vt 0.830003 0.396284
vt 0.690188 0.897766
vt 0.691324 0.924280
vt 0.690188 0.924280
vt 0.777885 0.866181
vt 0.777885 0.892695
vt 0.829323 0.389507
vt 0.831291 0.389507
vt 0.830307 0.391212
vt 0.793945 0.372070
vt 0.794922 0.324219
vt 0.794922 0.372070
vt 0.740234 0.402344
vt 0.741211 0.401367
vt 0.741211 0.402344
vt 0.587891 0.915039
vt 0.588867 0.866211
vt 0.588867 0.915039
vt 0.748047 0.402344
vt 0.749023 0.401367
vt 0.749023 0.402344
vt 0.594727 0.915039
vt 0.595703 0.866211
vt 0.595703 0.915039
vt 0.602539 0.915039
vt 0.603516 0.866211
vt 0.603516 0.915039
vt 0.860352 0.235352
vt 0.863281 0.363281
vt 0.860352 0.363281
vt 0.805664 0.635742
vt 0.933594 0.409180
vt 0.933594 0.635742
vt 0.259766 0.816406
vt 0.262695 0.944336
vt 0.259766 0.944336
vt 0.740234 0.229492
vt 0.868164 0.002930
vt 0.868164 0.229492
vt 0.979492 0.966797
vt 0.977539 0.740234
vt 0.979492 0.740234
vt 0.996094 0.229492
vt 0.993164 0.002930
vt 0.996094 0.002930
vt 0.580338 0.900842
vt 0.580338 0.901646
vt 0.579642 0.901244
vt 0.697199 0.898750
vt 0.696396 0.898055
vt 0.697199 0.897766
vt 0.698003 0.898055
vt 0.698003 0.898750
vt 0.003232 0.905664
vt 0.003232 0.904861
vt 0.003928 0.905263
vt 0.579642 0.900441
vt 0.071757 0.904058
vt 0.072727 0.904861
vt 0.071591 0.904861
vt 0.072561 0.905664
vt 0.071757 0.905664
vt 0.003928 0.904459
vt 0.580338 0.900039
vt 0.703074 0.899446
vt 0.703878 0.898750
vt 0.703878 0.899734
vt 0.704681 0.899446
vt 0.704681 0.898750
vt 0.003232 0.904058
vt 0.581034 0.900441
vt 0.703074 0.898750
vt 0.703878 0.897766
vt 0.704681 0.898055
vt 0.002536 0.904459
vt 0.002536 0.905263
vt 0.581034 0.901244
vt 0.077965 0.904058
vt 0.078935 0.904861
vt 0.077799 0.904861
vt 0.078769 0.905664
vt 0.077965 0.905664
vt 0.698003 0.899446
vt 0.696396 0.899446
vt 0.697199 0.899734
vt 0.709753 0.898750
vt 0.710557 0.897766
vt 0.710557 0.898750
vt 0.711360 0.898750
vt 0.711360 0.898055
vt 0.793523 0.378782
vt 0.794219 0.378380
vt 0.794219 0.379183
vt 0.764048 0.898570
vt 0.764744 0.898972
vt 0.764048 0.899373
vt 0.021926 0.904861
vt 0.022896 0.905664
vt 0.022093 0.905664
vt 0.794915 0.378782
vt 0.763352 0.898972
vt 0.022093 0.904058
vt 0.023063 0.904861
vt 0.717235 0.899734
vt 0.718039 0.898750
vt 0.718039 0.899446
vt 0.794915 0.377978
vt 0.763352 0.898168
vt 0.716432 0.898750
vt 0.717235 0.898750
vt 0.717235 0.897766
vt 0.718039 0.898055
vt 0.794219 0.377576
vt 0.764048 0.897766
vt 0.764744 0.898168
vt 0.028301 0.904058
vt 0.029271 0.904861
vt 0.028134 0.904861
vt 0.029104 0.905664
vt 0.028301 0.905664
vt 0.793523 0.377978
vt 0.710557 0.899734
vt 0.711360 0.899446
vt 0.771541 0.899373
vt 0.771541 0.898570
vt 0.772237 0.898972
vt 0.778005 0.898570
vt 0.778005 0.899373
vt 0.777309 0.898972
vt 0.860759 0.730810
vt 0.859955 0.730115
vt 0.860759 0.729826
vt 0.861562 0.730810
vt 0.861562 0.730115
vt 0.777309 0.898168
vt 0.034509 0.904058
vt 0.035479 0.904861
vt 0.034342 0.904861
vt 0.035312 0.905664
vt 0.034509 0.905664
vt 0.772237 0.898168
vt 0.778005 0.897766
vt 0.867437 0.731794
vt 0.866634 0.730810
vt 0.867437 0.730810
vt 0.868241 0.730810
vt 0.868241 0.731506
vt 0.771541 0.897766
vt 0.770845 0.898168
vt 0.778700 0.898168
vt 0.867437 0.729826
vt 0.868241 0.730115
vt 0.040550 0.904861
vt 0.041520 0.905664
vt 0.040717 0.905664
vt 0.770845 0.898972
vt 0.778700 0.898972
vt 0.040717 0.904058
vt 0.041687 0.904861
vt 0.861562 0.731506
vt 0.860759 0.731794
vt 0.859955 0.730810
vt 0.567411 0.900842
vt 0.567411 0.901646
vt 0.566715 0.901244
vt 0.874116 0.730810
vt 0.873313 0.730115
vt 0.874116 0.729826
vt 0.874920 0.730115
vt 0.874920 0.730810
vt 0.573875 0.901646
vt 0.573875 0.900842
vt 0.574571 0.901244
vt 0.084007 0.904861
vt 0.084977 0.905664
vt 0.084173 0.905664
vt 0.574571 0.900441
vt 0.566715 0.900441
vt 0.084173 0.904058
vt 0.085143 0.904861
vt 0.879991 0.731506
vt 0.880795 0.730810
vt 0.880795 0.731794
vt 0.881598 0.731506
vt 0.881598 0.730810
vt 0.573875 0.900039
vt 0.567411 0.900039
vt 0.568107 0.900441
vt 0.879991 0.730810
vt 0.880795 0.729826
vt 0.881598 0.730115
vt 0.573179 0.900441
vt 0.568107 0.901244
vt 0.090381 0.904058
vt 0.091351 0.904861
vt 0.090215 0.904861
vt 0.091185 0.905664
vt 0.090381 0.905664
vt 0.573179 0.901244
vt 0.873313 0.731506
vt 0.874116 0.731794
vt 0.874920 0.731506
vt 0.888277 0.730810
vt 0.887474 0.729826
vt 0.888277 0.730115
vt 0.784925 0.898972
vt 0.785621 0.898570
vt 0.785621 0.899373
vt 0.792084 0.898570
vt 0.792780 0.898972
vt 0.792084 0.899373
vt 0.886670 0.730810
vt 0.887474 0.730810
vt 0.046759 0.904861
vt 0.047728 0.905664
vt 0.046925 0.905664
vt 0.786317 0.898972
vt 0.791388 0.898972
vt 0.046925 0.904058
vt 0.047895 0.904861
vt 0.894956 0.731506
vt 0.894152 0.730810
vt 0.894956 0.730810
vt 0.786317 0.898168
vt 0.791388 0.898168
vt 0.894152 0.731794
vt 0.893349 0.730810
vt 0.894152 0.729826
vt 0.894956 0.730115
vt 0.785621 0.897766
vt 0.792084 0.897766
vt 0.893349 0.730115
vt 0.052967 0.904861
vt 0.053936 0.905664
vt 0.053133 0.905664
vt 0.784925 0.898168
vt 0.792780 0.898168
vt 0.053133 0.904058
vt 0.054103 0.904861
vt 0.887474 0.731795
vt 0.888277 0.731506
vt 0.798869 0.898570
vt 0.799565 0.898972
vt 0.798869 0.899373
vt 0.723111 0.898750
vt 0.723914 0.897766
vt 0.723914 0.898750
vt 0.724718 0.898750
vt 0.724718 0.898055
vt 0.560252 0.901244
vt 0.560948 0.900842
vt 0.560948 0.901646
vt 0.059341 0.904058
vt 0.060311 0.904861
vt 0.059175 0.904861
vt 0.060145 0.905664
vt 0.059341 0.905664
vt 0.561644 0.901244
vt 0.798173 0.898972
vt 0.798173 0.898168
vt 0.730593 0.899734
vt 0.729789 0.898750
vt 0.730593 0.898750
vt 0.731396 0.898750
vt 0.731396 0.899446
vt 0.561644 0.900441
vt 0.798869 0.897766
vt 0.730593 0.897766
vt 0.731396 0.898055
vt 0.560948 0.900039
vt 0.799565 0.898168
vt 0.065549 0.904058
vt 0.066519 0.904861
vt 0.065383 0.904861
vt 0.066353 0.905664
vt 0.065549 0.905664
vt 0.560252 0.900441
vt 0.723914 0.899734
vt 0.724718 0.899446
vt 0.737272 0.898750
vt 0.738075 0.898055
vt 0.738075 0.898750
vt 0.009695 0.905664
vt 0.009695 0.904861
vt 0.010391 0.905263
vt 0.016159 0.904861
vt 0.016159 0.905664
vt 0.015463 0.905263
vt 0.736468 0.898055
vt 0.737272 0.897766
vt 0.096423 0.904861
vt 0.097393 0.905664
vt 0.096590 0.905664
vt 0.010391 0.904459
vt 0.015463 0.904459
vt 0.096590 0.904058
vt 0.097559 0.904861
vt 0.743950 0.899734
vt 0.744754 0.898750
vt 0.744754 0.899446
vt 0.009695 0.904058
vt 0.016159 0.904058
vt 0.743147 0.899446
vt 0.743950 0.898750
vt 0.744754 0.898055
vt 0.008999 0.904459
vt 0.016854 0.904459
vt 0.743147 0.898055
vt 0.743950 0.897766
vt 0.102631 0.904861
vt 0.103601 0.905664
vt 0.102798 0.905664
vt 0.008999 0.905263
vt 0.016854 0.905263
vt 0.102798 0.904058
vt 0.103767 0.904861
vt 0.736468 0.899446
vt 0.737272 0.899734
vt 0.738075 0.899446
vt 0.977539 0.002930
vt 0.968750 0.002930
vt 0.977539 0.372070
vt 0.968750 0.409180
vt 0.002930 0.403320
vt 0.372070 0.403320
vt 0.833008 0.826172
vt 0.002930 0.409180
vt 0.849609 0.826172
vt 0.136719 0.409180
vt 0.874023 0.403320
vt 0.890625 0.403320
vt 0.270508 0.409180
vt 0.220703 0.816406
vt 0.404297 0.409180
vt 0.237305 0.816406
vt 0.907227 0.002930
vt 0.923828 0.002930
vt 0.538086 0.409180
vt 0.253906 0.816406
vt 0.671875 0.409180
vt 0.816406 0.826172
vt 0.940430 0.002930
vt 0.940430 0.372070
vt 0.756836 0.389648
vt 0.956055 0.002930
vt 0.795898 0.384766
vt 0.956055 0.386719
vt 0.986328 0.380859
vt 0.986328 0.764648
vt 0.903320 0.641602
vt 0.741211 0.389648
vt 0.915039 0.641602
vt 0.995117 0.235352
vt 0.993164 0.713867
vt 0.926758 0.641602
vt 0.749023 0.389648
vt 0.940430 0.740234
vt 0.995117 0.474609
vt 0.956055 0.770508
vt 0.897461 0.641602
vt 0.480469 0.866211
vt 0.040039 0.816406
vt 0.487305 0.866211
vt 0.650391 0.866211
vt 0.657227 0.866211
vt 0.854492 0.235352
vt 0.896484 0.826172
vt 0.854492 0.641602
vt 0.472656 0.866211
vt 0.636719 0.866211
vt 0.643555 0.866211
vt 0.768555 0.384766
vt 0.782161 0.384394
vt 0.775391 0.384766
vt 0.788748 0.384394
vt 0.750000 0.898438
vt 0.756836 0.898438
vt 0.740234 0.324219
vt 0.404297 0.866211
vt 0.753906 0.324219
vt 0.417969 0.866211
vt 0.740234 0.317383
vt 0.270508 0.860352
vt 0.767578 0.324219
vt 0.431641 0.866211
vt 0.780273 0.324219
vt 0.458984 0.866211
vt 0.335938 0.860352
vt 0.397461 0.860352
vt 0.805664 0.331055
vt 0.445312 0.866211
vt 0.819336 0.331055
vt 0.351562 0.866211
vt 0.805664 0.820312
vt 0.458984 0.860352
vt 0.833008 0.331055
vt 0.364258 0.866211
vt 0.846680 0.331055
vt 0.377930 0.866211
vt 0.515625 0.860352
vt 0.567383 0.860352
vt 0.506836 0.866211
vt 0.881836 0.826172
vt 0.494141 0.866211
vt 0.391602 0.866211
vt 0.619141 0.860352
vt 0.666992 0.860352
vt 0.520508 0.866211
vt 0.270508 0.866211
vt 0.534180 0.866211
vt 0.284180 0.866211
vt 0.713867 0.860352
vt 0.756836 0.860352
vt 0.860352 0.369141
vt 0.297852 0.866211
vt 0.546875 0.866211
vt 0.310547 0.866211
vt 0.862305 0.820312
vt 0.045898 0.898438
vt 0.560547 0.866211
vt 0.324219 0.866211
vt 0.574219 0.866211
vt 0.855469 0.826172
vt 0.083984 0.898438
vt 0.118164 0.898438
vt 0.609375 0.866211
vt 0.337891 0.866211
vt 0.623047 0.866211
vt 0.869141 0.826172
vt 0.152344 0.898438
vt 0.181641 0.898438
vt 0.666491 0.866181
vt 0.904039 0.873756
vt 0.673531 0.866181
vt 0.816907 0.396852
vt 0.815923 0.398556
vt 0.814939 0.396852
vt 0.907762 0.371220
vt 0.815244 0.390644
vt 0.816228 0.388939
vt 0.817212 0.390644
vt 0.736905 0.866181
vt 0.610231 0.895494
vt 0.743945 0.866181
vt 0.822963 0.398556
vt 0.821979 0.396852
vt 0.823947 0.396852
vt 0.616439 0.895494
vt 0.824251 0.390644
vt 0.822283 0.390644
vt 0.823267 0.388939
vt 0.680571 0.866181
vt 0.910156 0.874023
vt 0.687611 0.866181
vt 0.837043 0.398556
vt 0.836059 0.396852
vt 0.838027 0.396852
vt 0.913970 0.371220
vt 0.838331 0.390644
vt 0.836363 0.390644
vt 0.837347 0.388939
vt 0.694651 0.866181
vt 0.916456 0.873756
vt 0.701691 0.866181
vt 0.844083 0.398556
vt 0.843099 0.396852
vt 0.845067 0.396852
vt 0.920178 0.371220
vt 0.845371 0.390644
vt 0.843403 0.390644
vt 0.844387 0.388939
vt 0.708731 0.866181
vt 0.792969 0.866211
vt 0.715785 0.866181
vt 0.756562 0.401397
vt 0.755578 0.403101
vt 0.754594 0.401397
vt 0.799309 0.866181
vt 0.793819 0.397988
vt 0.794803 0.396284
vt 0.795788 0.397988
vt 0.750985 0.866181
vt 0.922664 0.873756
vt 0.758733 0.866181
vt 0.809867 0.397988
vt 0.807899 0.397988
vt 0.808883 0.396284
vt 0.665660 0.897766
vt 0.809188 0.391212
vt 0.808204 0.389508
vt 0.810172 0.389508
vt 0.722825 0.866181
vt 0.623635 0.895494
vt 0.729865 0.866181
vt 0.851123 0.398556
vt 0.850139 0.396852
vt 0.852107 0.396852
vt 0.629843 0.895494
vt 0.852411 0.390644
vt 0.850443 0.390644
vt 0.851427 0.388939
vt 0.765773 0.866181
vt 0.672700 0.897766
vt 0.772813 0.866181
vt 0.802827 0.396852
vt 0.801843 0.398556
vt 0.800859 0.396852
vt 0.678908 0.897766
vt 0.801164 0.390644
vt 0.802148 0.388939
vt 0.803132 0.390644
vt 0.779853 0.866181
vt 0.685116 0.897766
vt 0.786893 0.866181
vt 0.830987 0.396852
vt 0.830003 0.398556
vt 0.829019 0.396852
vt 0.691324 0.897766
vt 0.829323 0.390644
vt 0.830307 0.388939
vt 0.831291 0.390644
vt 0.793945 0.324219
vt 0.740234 0.401367
vt 0.587891 0.866211
vt 0.748047 0.401367
vt 0.594727 0.866211
vt 0.602539 0.866211
vt 0.863281 0.235352
vt 0.805664 0.409180
vt 0.262695 0.816406
vt 0.740234 0.002930
vt 0.977539 0.966797
vt 0.993164 0.229492
vt 0.696396 0.898750
vt 0.072561 0.904058
vt 0.703074 0.898055
vt 0.078769 0.904058
vt 0.709753 0.898055
vt 0.022896 0.904058
vt 0.716432 0.899446
vt 0.716432 0.898055
vt 0.029104 0.904058
vt 0.709753 0.899446
vt 0.035312 0.904058
vt 0.866634 0.731506
vt 0.866634 0.730115
vt 0.041520 0.904058
vt 0.859955 0.731506
vt 0.873313 0.730810
vt 0.084977 0.904058
vt 0.879991 0.730115
vt 0.091185 0.904058
vt 0.886670 0.730115
vt 0.047728 0.904058
vt 0.893349 0.731506
vt 0.053936 0.904058
vt 0.886670 0.731506
vt 0.723111 0.898055
vt 0.060145 0.904058
vt 0.729789 0.899446
vt 0.729789 0.898055
vt 0.066353 0.904058
vt 0.723111 0.899446
vt 0.736468 0.898750
vt 0.097393 0.904058
vt 0.743147 0.898750
vt 0.103601 0.904058
s 0
g pe_stage_render_EnvironmentBakedAtlas
usemtl EnvironmentBakedAtlas
f 2/1/1 3/2/1 1/3/1
f 4/4/2 7/5/2 3/6/2
f 8/7/3 5/8/3 7/9/3
f 6/10/4 1/11/4 5/12/4
f 7/13/5 1/14/5 3/15/5
f 4/16/6 6/17/6 8/18/6
f 10/19/1 11/20/1 9/21/1
f 12/22/2 15/23/2 11/24/2
f 16/25/3 13/26/3 15/27/3
f 14/28/4 9/29/4 13/30/4
f 15/31/5 9/32/5 11/33/5
f 12/34/6 14/35/6 16/36/6
f 18/37/1 19/38/1 17/39/1
f 20/40/2 23/41/2 19/42/2
f 24/43/3 21/44/3 23/45/3
f 22/46/4 17/47/4 21/48/4
f 23/49/5 17/50/5 19/51/5
f 20/52/6 22/53/6 24/54/6
f 26/55/1 27/56/1 25/57/1
f 28/58/2 31/59/2 27/60/2
f 32/61/3 29/62/3 31/63/3
f 30/64/4 25/65/4 29/66/4
f 31/67/5 25/68/5 27/69/5
f 28/70/6 30/71/6 32/72/6
f 34/73/1 35/74/1 33/75/1
f 36/76/2 39/77/2 35/78/2
f 40/79/3 37/80/3 39/81/3
f 38/82/4 33/83/4 37/84/4
f 39/85/5 33/86/5 35/87/5
f 36/88/6 38/89/6 40/90/6
f 42/91/1 43/92/1 41/93/1
f 44/94/2 47/95/2 43/96/2
f 48/97/3 45/98/3 47/99/3
f 46/100/4 41/101/4 45/102/4
f 47/103/5 41/101/5 43/104/5
f 44/105/6 46/106/6 48/107/6
f 50/108/1 51/109/1 49/110/1
f 52/111/2 55/112/2 51/113/2
f 56/114/3 53/115/3 55/116/3
f 54/117/4 49/118/4 53/119/4
f 55/120/5 49/118/5 51/121/5
f 52/122/6 54/123/6 56/124/6
f 58/125/1 59/126/1 57/127/1
f 60/128/2 63/129/2 59/130/2
f 64/131/3 61/132/3 63/133/3
f 62/134/4 57/135/4 61/136/4
f 63/137/5 57/138/5 59/139/5
f 60/140/6 62/141/6 64/142/6
f 66/143/1 67/144/1 65/145/1
f 68/146/2 71/147/2 67/148/2
f 72/149/3 69/150/3 71/151/3
f 70/152/4 65/153/4 69/154/4
f 71/155/5 65/156/5 67/157/5
f 68/158/6 70/159/6 72/160/6
f 74/161/1 75/162/1 73/163/1
f 76/164/2 79/165/2 75/166/2
f 80/167/3 77/168/3 79/169/3
f 78/170/4 73/171/4 77/172/4
f 79/173/5 73/174/5 75/175/5
f 76/176/6 78/177/6 80/178/6
f 82/179/1 83/180/1 81/181/1
f 84/182/2 87/183/2 83/184/2
f 88/185/3 85/186/3 87/187/3
f 86/188/4 81/189/4 85/190/4
f 87/191/5 81/192/5 83/193/5
f 84/194/6 86/195/6 88/196/6
f 90/197/1 91/198/1 89/199/1
f 92/200/2 95/201/2 91/202/2
f 96/203/3 93/204/3 95/205/3
f 94/206/4 89/207/4 93/208/4
f 95/209/5 89/210/5 91/211/5
f 92/212/6 94/213/6 96/214/6
f 98/215/1 99/216/1 97/217/1
f 100/218/2 103/219/2 99/220/2
f 104/221/3 101/222/3 103/223/3
f 102/224/4 97/225/4 101/226/4
f 103/227/5 97/228/5 99/229/5
f 100/230/6 102/231/6 104/232/6
f 106/233/1 107/234/1 105/235/1
f 108/236/2 111/237/2 107/238/2
f 112/239/3 109/240/3 111/241/3
f 110/242/4 105/243/4 109/244/4
f 111/245/5 105/246/5 107/247/5
f 108/248/6 110/249/6 112/250/6
f 114/251/1 115/252/1 113/253/1
f 116/254/2 119/255/2 115/256/2
f 120/257/3 117/258/3 119/259/3
f 118/260/4 113/261/4 117/262/4
f 119/263/5 113/264/5 115/265/5
f 116/266/6 118/267/6 120/268/6
f 122/269/1 123/270/1 121/271/1
f 124/272/2 127/273/2 123/274/2
f 128/275/3 125/276/3 127/277/3
f 126/278/4 121/279/4 125/280/4
f 127/281/5 121/282/5 123/283/5
f 124/284/6 126/285/6 128/286/6
f 130/287/1 131/288/1 129/289/1
f 132/290/2 135/291/2 131/292/2
f 136/293/3 133/294/3 135/295/3
f 134/296/4 129/297/4 133/298/4
f 135/299/5 129/300/5 131/301/5
f 132/302/6 134/303/6 136/304/6
f 138/305/1 139/306/1 137/307/1
f 140/308/2 143/309/2 139/310/2
f 144/311/3 141/312/3 143/313/3
f 142/314/4 137/315/4 141/316/4
f 143/317/5 137/318/5 139/319/5
f 140/320/6 142/321/6 144/322/6
f 146/323/1 147/324/1 145/325/1
f 148/326/2 151/327/2 147/328/2
f 152/329/3 149/330/3 151/331/3
f 150/332/4 145/333/4 149/334/4
f 151/335/5 145/336/5 147/337/5
f 148/338/6 150/339/6 152/340/6
f 154/341/7 155/342/7 153/343/7
f 156/344/3 157/345/3 155/346/3
f 158/347/8 159/348/8 157/349/8
f 160/350/9 161/351/9 159/348/9
f 154/352/6 162/353/6 158/354/6
f 162/355/1 163/356/1 161/357/1
f 164/358/10 153/343/10 163/359/10
f 155/360/5 159/361/5 163/362/5
f 166/363/7 167/364/7 165/365/7
f 168/366/3 169/367/3 167/368/3
f 170/369/8 171/370/8 169/371/8
f 172/372/9 173/373/9 171/370/9
f 166/374/6 174/375/6 170/376/6
f 174/377/1 175/378/1 173/379/1
f 176/380/10 165/365/10 175/381/10
f 167/382/5 171/383/5 175/384/5
f 178/385/7 179/386/7 177/387/7
f 180/388/3 181/389/3 179/390/3
f 182/391/8 183/392/8 181/393/8
f 184/394/9 185/395/9 183/392/9
f 178/396/6 186/397/6 182/398/6
f 186/399/1 187/400/1 185/401/1
f 188/402/10 177/387/10 187/403/10
f 179/404/5 183/405/5 187/406/5
f 190/407/7 191/408/7 189/409/7
f 192/410/3 193/411/3 191/412/3
f 194/413/8 195/414/8 193/415/8
f 196/416/9 197/417/9 195/414/9
f 190/418/6 198/419/6 194/420/6
f 198/421/1 199/422/1 197/423/1
f 200/424/10 189/409/10 199/425/10
f 191/426/5 195/427/5 199/428/5
f 202/429/7 203/430/7 201/431/7
f 204/432/3 205/433/3 203/434/3
f 206/435/8 207/436/8 205/437/8
f 208/438/9 209/439/9 207/436/9
f 202/440/6 210/441/6 206/442/6
f 210/443/1 211/444/1 209/445/1
f 212/446/10 201/431/10 211/447/10
f 203/448/5 207/449/5 211/450/5
f 214/451/7 215/452/7 213/453/7
f 216/454/3 217/455/3 215/456/3
f 218/457/8 219/458/8 217/459/8
f 220/460/9 221/461/9 219/458/9
f 214/462/6 222/463/6 218/464/6
f 222/465/1 223/466/1 221/467/1
f 224/468/10 213/453/10 223/469/10
f 215/470/5 219/471/5 223/472/5
f 226/473/7 227/474/7 225/475/7
f 228/476/3 229/477/3 227/478/3
f 230/479/8 231/480/8 229/481/8
f 232/482/9 233/483/9 231/480/9
f 226/484/6 234/485/6 230/486/6
f 234/487/1 235/488/1 233/489/1
f 236/490/10 225/475/10 235/491/10
f 227/492/5 231/493/5 235/494/5
f 238/495/7 239/496/7 237/497/7
f 240/498/3 241/499/3 239/500/3
f 242/501/8 243/502/8 241/503/8
f 244/504/9 245/505/9 243/502/9
f 238/506/6 246/507/6 242/508/6
f 246/509/1 247/510/1 245/511/1
f 248/512/10 237/497/10 247/513/10
f 239/514/5 243/515/5 247/516/5
f 250/517/7 251/518/7 249/519/7
f 252/520/3 253/521/3 251/522/3
f 254/523/8 255/524/8 253/525/8
f 256/526/9 257/527/9 255/524/9
f 250/528/6 258/529/6 254/530/6
f 258/531/1 259/532/1 257/533/1
f 260/534/10 249/519/10 259/535/10
f 251/536/5 255/537/5 259/538/5
f 262/539/1 263/540/1 261/541/1
f 264/542/2 267/543/2 263/544/2
f 268/545/3 265/546/3 267/547/3
f 266/548/4 261/549/4 265/550/4
f 267/551/5 261/552/5 263/553/5
f 264/554/6 266/555/6 268/556/6
f 270/557/1 271/558/1 269/559/1
f 272/560/2 275/561/2 271/562/2
f 276/563/3 273/564/3 275/565/3
f 274/566/4 269/567/4 273/568/4
f 275/569/5 269/570/5 271/571/5
f 272/572/6 274/573/6 276/574/6
f 281/575/11 280/576/11 284/577/11
f 279/578/12 282/579/12 283/580/12
f 279/578/13 284/581/13 280/582/13
f 278/583/14 277/584/14 282/585/14
f 281/575/15 284/577/15 287/586/15
f 282/587/16 286/588/16 283/589/16
f 283/589/17 287/590/17 284/591/17
f 282/585/18 277/584/18 285/592/18
f 281/575/19 287/586/19 290/593/19
f 285/594/20 289/595/20 286/596/20
f 287/597/21 289/595/21 290/598/21
f 285/592/22 277/584/22 288/599/22
f 281/575/23 290/593/23 293/600/23
f 288/601/24 292/602/24 289/595/24
f 289/595/25 293/603/25 290/598/25
f 288/599/26 277/584/26 291/604/26
f 291/604/27 277/584/27 294/605/27
f 281/575/28 293/600/28 296/606/28
f 291/607/29 295/608/29 292/609/29
f 292/609/30 296/610/30 293/611/30
f 296/612/31 279/578/31 280/582/31
f 294/605/32 277/584/32 278/583/32
f 281/575/33 296/606/33 280/576/33
f 294/613/34 279/578/34 295/614/34
f 298/615/12 303/616/12 299/617/12
f 300/618/13 303/616/13 304/619/13
f 298/620/14 297/621/14 302/622/14
f 301/623/11 300/624/11 304/625/11
f 303/626/35 307/627/35 304/628/35
f 302/622/18 297/621/18 305/629/18
f 301/623/15 304/625/15 307/630/15
f 302/631/36 306/632/36 303/626/36
f 306/633/37 310/634/37 307/635/37
f 305/629/22 297/621/22 308/636/22
f 301/623/19 307/630/19 310/637/19
f 306/633/20 308/638/20 309/639/20
f 308/638/24 312/640/24 309/639/24
f 310/634/38 312/640/38 313/641/38
f 308/636/26 297/621/26 311/642/26
f 301/623/23 310/637/23 313/643/23
f 301/623/28 313/643/28 316/644/28
f 311/645/39 315/646/39 312/647/39
f 312/647/40 316/648/40 313/649/40
f 311/642/27 297/621/27 314/650/27
f 301/623/33 316/644/33 300/624/33
f 315/651/34 298/615/34 299/617/34
f 315/651/41 300/618/41 316/652/41
f 314/650/32 297/621/32 298/620/32
f 318/653/14 317/654/14 322/655/14
f 321/656/11 320/657/11 324/658/11
f 319/659/12 322/660/12 323/661/12
f 320/662/42 323/661/42 324/663/42
f 321/656/15 324/658/15 327/664/15
f 322/665/16 326/666/16 323/667/16
f 323/667/17 327/668/17 324/669/17
f 322/655/18 317/654/18 325/670/18
f 321/656/19 327/664/19 330/671/19
f 326/672/20 328/673/20 329/674/20
f 326/672/21 330/675/21 327/676/21
f 325/670/22 317/654/22 328/677/22
f 328/677/26 317/654/26 331/678/26
f 321/656/23 330/671/23 333/679/23
f 328/673/24 332/680/24 329/674/24
f 329/674/25 333/681/25 330/675/25
f 332/682/30 336/683/30 333/684/30
f 331/678/27 317/654/27 334/685/27
f 321/656/28 333/679/28 336/686/28
f 331/687/29 335/688/29 332/682/29
f 336/689/41 319/659/41 320/662/41
f 334/685/32 317/654/32 318/653/32
f 321/656/33 336/686/33 320/657/33
f 335/690/34 318/691/34 319/659/34
f 341/692/11 340/693/11 344/694/11
f 339/695/12 342/696/12 343/697/12
f 339/695/13 344/698/13 340/699/13
f 338/700/14 337/701/14 342/702/14
f 343/703/17 347/704/17 344/705/17
f 342/702/18 337/701/18 345/706/18
f 341/692/15 344/694/15 347/707/15
f 342/708/16 346/709/16 343/703/16
f 345/710/20 349/711/20 346/712/20
f 347/713/21 349/711/21 350/714/21
f 345/706/22 337/701/22 348/715/22
f 341/692/19 347/707/19 350/716/19
f 341/692/23 350/716/23 353/717/23
f 348/718/24 352/719/24 349/711/24
f 349/711/25 353/720/25 350/714/25
f 348/715/26 337/701/26 351/721/26
f 341/692/28 353/717/28 356/722/28
f 351/723/29 355/724/29 352/725/29
f 352/725/30 356/726/30 353/727/30
f 351/721/27 337/701/27 354/728/27
f 341/692/33 356/722/33 340/693/33
f 354/729/34 339/695/34 355/730/34
f 356/731/31 339/695/31 340/699/31
f 354/728/32 337/701/32 338/700/32
f 360/732/42 363/733/42 364/734/42
f 358/735/14 357/736/14 362/737/14
f 361/738/11 360/739/11 364/740/11
f 358/741/12 363/733/12 359/742/12
f 363/743/17 367/744/17 364/745/17
f 362/737/18 357/736/18 365/746/18
f 361/738/15 364/740/15 367/747/15
f 362/748/16 366/749/16 363/743/16
f 367/750/21 369/751/21 370/752/21
f 365/746/22 357/736/22 368/753/22
f 361/738/19 367/747/19 370/754/19
f 366/755/43 368/756/43 369/751/43
f 370/752/38 372/757/38 373/758/38
f 368/753/26 357/736/26 371/759/26
f 361/738/23 370/754/23 373/760/23
f 369/751/24 371/761/24 372/757/24
f 372/762/30 376/763/30 373/764/30
f 371/759/27 357/736/27 374/765/27
f 361/738/28 373/760/28 376/766/28
f 371/767/29 375/768/29 372/762/29
f 375/769/41 360/732/41 376/770/41
f 374/765/32 357/736/32 358/735/32
f 361/738/33 376/766/33 360/739/33
f 375/769/44 358/741/44 359/742/44
f 381/771/11 380/772/11 384/773/11
f 378/774/12 383/775/12 379/776/12
f 380/777/42 383/775/42 384/778/42
f 378/779/14 377/780/14 382/781/14
f 382/782/36 386/783/36 383/784/36
f 383/784/35 387/785/35 384/786/35
f 382/781/18 377/780/18 385/787/18
f 381/771/15 384/773/15 387/788/15
f 381/771/19 387/788/19 390/789/19
f 386/790/20 388/791/20 389/792/20
f 386/790/21 390/793/21 387/794/21
f 385/787/22 377/780/22 388/795/22
f 381/771/23 390/789/23 393/796/23
f 388/791/24 392/797/24 389/792/24
f 390/793/38 392/797/38 393/798/38
f 388/795/26 377/780/26 391/799/26
f 381/771/28 393/796/28 396/800/28
f 391/801/39 395/802/39 392/803/39
f 392/803/40 396/804/40 393/805/40
f 391/799/27 377/780/27 394/806/27
f 381/771/33 396/800/33 380/772/33
f 395/807/34 378/774/34 379/776/34
f 395/807/41 380/777/41 396/808/41
f 394/806/32 377/780/32 378/779/32
f 399/809/13 404/810/13 400/811/13
f 398/812/14 397/813/14 402/814/14
f 401/815/11 400/816/11 404/817/11
f 399/809/12 402/818/12 403/819/12
f 403/820/17 407/821/17 404/822/17
f 402/814/18 397/813/18 405/823/18
f 401/815/15 404/817/15 407/824/15
f 402/825/16 406/826/16 403/820/16
f 406/827/37 410/828/37 407/829/37
f 405/823/22 397/813/22 408/830/22
f 401/815/19 407/824/19 410/831/19
f 405/832/20 409/833/20 406/827/20
f 409/833/25 413/834/25 410/828/25
f 408/830/26 397/813/26 411/835/26
f 401/815/23 410/831/23 413/836/23
f 409/833/24 411/837/24 412/838/24
f 412/839/30 416/840/30 413/841/30
f 411/835/27 397/813/27 414/842/27
f 401/815/28 413/836/28 416/843/28
f 411/844/29 415/845/29 412/839/29
f 414/846/34 399/809/34 415/847/34
f 416/848/31 399/809/31 400/811/31
f 414/842/32 397/813/32 398/812/32
f 401/815/33 416/843/33 400/816/33
f 2/1/1 4/849/1 3/2/1
f 4/4/2 8/850/2 7/5/2
f 8/7/3 6/851/3 5/8/3
f 6/10/4 2/852/4 1/11/4
f 7/13/5 5/853/5 1/14/5
f 4/16/6 2/854/6 6/17/6
f 10/19/1 12/855/1 11/20/1
f 12/22/2 16/856/2 15/23/2
f 16/25/3 14/857/3 13/26/3
f 14/28/4 10/858/4 9/29/4
f 15/31/5 13/859/5 9/32/5
f 12/34/6 10/860/6 14/35/6
f 18/37/1 20/861/1 19/38/1
f 20/40/2 24/862/2 23/41/2
f 24/43/3 22/863/3 21/44/3
f 22/46/4 18/864/4 17/47/4
f 23/49/5 21/865/5 17/50/5
f 20/52/6 18/866/6 22/53/6
f 26/55/1 28/867/1 27/56/1
f 28/58/2 32/868/2 31/59/2
f 32/61/3 30/869/3 29/62/3
f 30/64/4 26/870/4 25/65/4
f 31/67/5 29/871/5 25/68/5
f 28/70/6 26/872/6 30/71/6
f 34/73/1 36/873/1 35/74/1
f 36/76/2 40/874/2 39/77/2
f 40/79/3 38/875/3 37/80/3
f 38/82/4 34/876/4 33/83/4
f 39/85/5 37/877/5 33/86/5
f 36/88/6 34/878/6 38/89/6
f 42/91/1 44/879/1 43/92/1
f 44/94/2 48/880/2 47/95/2
f 48/97/3 46/881/3 45/98/3
f 46/100/4 42/882/4 41/101/4
f 47/103/5 45/102/5 41/101/5
f 44/105/6 42/883/6 46/106/6
f 50/108/1 52/884/1 51/109/1
f 52/111/2 56/885/2 55/112/2
f 56/114/3 54/886/3 53/115/3
f 54/117/4 50/887/4 49/118/4
f 55/120/5 53/119/5 49/118/5
f 52/122/6 50/888/6 54/123/6
f 58/125/1 60/889/1 59/126/1
f 60/128/2 64/890/2 63/129/2
f 64/131/3 62/891/3 61/132/3
f 62/134/4 58/892/4 57/135/4
f 63/137/5 61/893/5 57/138/5
f 60/140/6 58/894/6 62/141/6
f 66/143/1 68/895/1 67/144/1
f 68/146/2 72/896/2 71/147/2
f 72/149/3 70/897/3 69/150/3
f 70/152/4 66/898/4 65/153/4
f 71/155/5 69/899/5 65/156/5
f 68/158/6 66/900/6 70/159/6
f 74/161/1 76/901/1 75/162/1
f 76/164/2 80/902/2 79/165/2
f 80/167/3 78/903/3 77/168/3
f 78/170/4 74/904/4 73/171/4
f 79/173/5 77/905/5 73/174/5
f 76/176/6 74/906/6 78/177/6
f 82/179/1 84/907/1 83/180/1
f 84/182/2 88/908/2 87/183/2
f 88/185/3 86/909/3 85/186/3
f 86/188/4 82/910/4 81/189/4
f 87/191/5 85/911/5 81/192/5
f 84/194/6 82/912/6 86/195/6
f 90/197/1 92/913/1 91/198/1
f 92/200/2 96/914/2 95/201/2
f 96/203/3 94/915/3 93/204/3
f 94/206/4 90/916/4 89/207/4
f 95/209/5 93/917/5 89/210/5
f 92/212/6 90/918/6 94/213/6
f 98/215/1 100/919/1 99/216/1
f 100/218/2 104/920/2 103/219/2
f 104/221/3 102/921/3 101/222/3
f 102/224/4 98/922/4 97/225/4
f 103/227/5 101/923/5 97/228/5
f 100/230/6 98/924/6 102/231/6
f 106/233/1 108/925/1 107/234/1
f 108/236/2 112/926/2 111/237/2
f 112/239/3 110/927/3 109/240/3
f 110/242/4 106/928/4 105/243/4
f 111/245/5 109/929/5 105/246/5
f 108/248/6 106/930/6 110/249/6
f 114/251/1 116/931/1 115/252/1
f 116/254/2 120/932/2 119/255/2
f 120/257/3 118/933/3 117/258/3
f 118/260/4 114/934/4 113/261/4
f 119/263/5 117/935/5 113/264/5
f 116/266/6 114/936/6 118/267/6
f 122/269/1 124/937/1 123/270/1
f 124/272/2 128/938/2 127/273/2
f 128/275/3 126/939/3 125/276/3
f 126/278/4 122/940/4 121/279/4
f 127/281/5 125/941/5 121/282/5
f 124/284/6 122/942/6 126/285/6
f 130/287/1 132/943/1 131/288/1
f 132/290/2 136/944/2 135/291/2
f 136/293/3 134/945/3 133/294/3
f 134/296/4 130/946/4 129/297/4
f 135/299/5 133/947/5 129/300/5
f 132/302/6 130/948/6 134/303/6
f 138/305/1 140/949/1 139/306/1
f 140/308/2 144/950/2 143/309/2
f 144/311/3 142/951/3 141/312/3
f 142/314/4 138/952/4 137/315/4
f 143/317/5 141/953/5 137/318/5
f 140/320/6 138/954/6 142/321/6
f 146/323/1 148/955/1 147/324/1
f 148/326/2 152/956/2 151/327/2
f 152/329/3 150/957/3 149/330/3
f 150/332/4 146/958/4 145/333/4
f 151/335/5 149/959/5 145/336/5
f 148/338/6 146/960/6 150/339/6
f 154/341/7 156/961/7 155/342/7
f 156/344/3 158/962/3 157/345/3
f 158/347/8 160/350/8 159/348/8
f 160/350/9 162/963/9 161/351/9
f 158/354/6 156/964/6 154/352/6
f 154/352/6 164/965/6 162/353/6
f 162/353/6 160/966/6 158/354/6
f 162/355/1 164/967/1 163/356/1
f 164/358/10 154/341/10 153/343/10
f 163/362/5 153/968/5 155/360/5
f 155/360/5 157/969/5 159/361/5
f 159/361/5 161/970/5 163/362/5
f 166/363/7 168/971/7 167/364/7
f 168/366/3 170/972/3 169/367/3
f 170/369/8 172/372/8 171/370/8
f 172/372/9 174/973/9 173/373/9
f 170/376/6 168/974/6 166/374/6
f 166/374/6 176/975/6 174/375/6
f 174/375/6 172/976/6 170/376/6
f 174/377/1 176/977/1 175/378/1
f 176/380/10 166/363/10 165/365/10
f 175/384/5 165/978/5 167/382/5
f 167/382/5 169/979/5 171/383/5
f 171/383/5 173/980/5 175/384/5
f 178/385/7 180/981/7 179/386/7
f 180/388/3 182/982/3 181/389/3
f 182/391/8 184/394/8 183/392/8
f 184/394/9 186/983/9 185/395/9
f 182/398/6 180/984/6 178/396/6
f 178/396/6 188/985/6 186/397/6
f 186/397/6 184/986/6 182/398/6
f 186/399/1 188/987/1 187/400/1
f 188/402/10 178/385/10 177/387/10
f 187/406/5 177/988/5 179/404/5
f 179/404/5 181/989/5 183/405/5
f 183/405/5 185/990/5 187/406/5
f 190/407/7 192/991/7 191/408/7
f 192/410/3 194/992/3 193/411/3
f 194/413/8 196/416/8 195/414/8
f 196/416/9 198/993/9 197/417/9
f 194/420/6 192/994/6 190/418/6
f 190/418/6 200/995/6 198/419/6
f 198/419/6 196/996/6 194/420/6
f 198/421/1 200/997/1 199/422/1
f 200/424/10 190/407/10 189/409/10
f 199/428/5 189/998/5 191/426/5
f 191/426/5 193/999/5 195/427/5
f 195/427/5 197/1000/5 199/428/5
f 202/429/7 204/1001/7 203/430/7
f 204/432/3 206/1002/3 205/433/3
f 206/435/8 208/438/8 207/436/8
f 208/438/9 210/1003/9 209/439/9
f 206/442/6 204/1004/6 202/440/6
f 202/440/6 212/1005/6 210/441/6
f 210/441/6 208/1006/6 206/442/6
f 210/443/1 212/1007/1 211/444/1
f 212/446/10 202/429/10 201/431/10
f 211/450/5 201/1008/5 203/448/5
f 203/448/5 205/1009/5 207/449/5
f 207/449/5 209/1010/5 211/450/5
f 214/451/7 216/1011/7 215/452/7
f 216/454/3 218/1012/3 217/455/3
f 218/457/8 220/460/8 219/458/8
f 220/460/9 222/1013/9 221/461/9
f 218/464/6 216/1014/6 214/462/6
f 214/462/6 224/1015/6 222/463/6
f 222/463/6 220/1016/6 218/464/6
f 222/465/1 224/1017/1 223/466/1
f 224/468/10 214/451/10 213/453/10
f 223/472/5 213/1018/5 215/470/5
f 215/470/5 217/1019/5 219/471/5
f 219/471/5 221/1020/5 223/472/5
f 226/473/7 228/1021/7 227/474/7
f 228/476/3 230/1022/3 229/477/3
f 230/479/8 232/482/8 231/480/8
f 232/482/9 234/1023/9 233/483/9
f 230/486/6 228/1024/6 226/484/6
f 226/484/6 236/1025/6 234/485/6
f 234/485/6 232/1026/6 230/486/6
f 234/487/1 236/1027/1 235/488/1
f 236/490/10 226/473/10 225/475/10
f 235/494/5 225/1028/5 227/492/5
f 227/492/5 229/1029/5 231/493/5
f 231/493/5 233/1030/5 235/494/5
f 238/495/7 240/1031/7 239/496/7
f 240/498/3 242/1032/3 241/499/3
f 242/501/8 244/504/8 243/502/8
f 244/504/9 246/1033/9 245/505/9
f 242/508/6 240/1034/6 238/506/6
f 238/506/6 248/1035/6 246/507/6
f 246/507/6 244/1036/6 242/508/6
f 246/509/1 248/1037/1 247/510/1
f 248/512/10 238/495/10 237/497/10
f 247/516/5 237/1038/5 239/514/5
f 239/514/5 241/1039/5 243/515/5
f 243/515/5 245/1040/5 247/516/5
f 250/517/7 252/1041/7 251/518/7
f 252/520/3 254/1042/3 253/521/3
f 254/523/8 256/526/8 255/524/8
f 256/526/9 258/1043/9 257/527/9
f 254/530/6 252/1044/6 250/528/6
f 250/528/6 260/1045/6 258/529/6
f 258/529/6 256/1046/6 254/530/6
f 258/531/1 260/1047/1 259/532/1
f 260/534/10 250/517/10 249/519/10
f 259/538/5 249/1048/5 251/536/5
f 251/536/5 253/1049/5 255/537/5
f 255/537/5 257/1050/5 259/538/5
f 262/539/1 264/1051/1 263/540/1
f 264/542/2 268/1052/2 267/543/2
f 268/545/3 266/1053/3 265/546/3
f 266/548/4 262/1054/4 261/549/4
f 267/551/5 265/1055/5 261/552/5
f 264/554/6 262/1056/6 266/555/6
f 270/557/1 272/1057/1 271/558/1
f 272/560/2 276/1058/2 275/561/2
f 276/563/3 274/1059/3 273/564/3
f 274/566/4 270/1060/4 269/567/4
f 275/569/5 273/1061/5 269/570/5
f 272/572/6 270/1062/6 274/573/6
f 279/578/45 278/1063/45 282/579/45
f 279/578/42 283/580/42 284/581/42
f 282/587/16 285/1064/16 286/588/16
f 283/589/17 286/588/17 287/590/17
f 285/594/43 288/601/43 289/595/43
f 287/597/37 286/596/37 289/595/37
f 288/601/24 291/1065/24 292/602/24
f 289/595/38 292/602/38 293/603/38
f 291/607/29 294/1066/29 295/608/29
f 292/609/30 295/608/30 296/610/30
f 296/612/41 295/614/41 279/578/41
f 294/613/34 278/1063/34 279/578/34
f 298/615/45 302/1067/45 303/616/45
f 300/618/42 299/617/42 303/616/42
f 303/626/35 306/632/35 307/627/35
f 302/631/36 305/1068/36 306/632/36
f 306/633/37 309/639/37 310/634/37
f 306/633/20 305/1069/20 308/638/20
f 308/638/24 311/1070/24 312/640/24
f 310/634/38 309/639/38 312/640/38
f 311/645/39 314/1071/39 315/646/39
f 312/647/40 315/646/40 316/648/40
f 315/651/34 314/1072/34 298/615/34
f 315/651/41 299/617/41 300/618/41
f 319/659/12 318/691/12 322/660/12
f 320/662/42 319/659/42 323/661/42
f 322/665/16 325/1073/16 326/666/16
f 323/667/17 326/666/17 327/668/17
f 326/672/43 325/1074/43 328/673/43
f 326/672/37 329/674/37 330/675/37
f 328/673/46 331/1075/46 332/680/46
f 329/674/38 332/680/38 333/681/38
f 332/682/30 335/688/30 336/683/30
f 331/687/29 334/1076/29 335/688/29
f 336/689/41 335/690/41 319/659/41
f 335/690/34 334/1077/34 318/691/34
f 339/695/45 338/1078/45 342/696/45
f 339/695/42 343/697/42 344/698/42
f 343/703/17 346/709/17 347/704/17
f 342/708/16 345/1079/16 346/709/16
f 345/710/43 348/718/43 349/711/43
f 347/713/37 346/712/37 349/711/37
f 348/718/46 351/1080/46 352/719/46
f 349/711/38 352/719/38 353/720/38
f 351/723/29 354/1081/29 355/724/29
f 352/725/30 355/724/30 356/726/30
f 354/729/44 338/1078/44 339/695/44
f 356/731/41 355/730/41 339/695/41
f 360/732/42 359/742/42 363/733/42
f 358/741/12 362/1082/12 363/733/12
f 363/743/17 366/749/17 367/744/17
f 362/748/16 365/1083/16 366/749/16
f 367/750/37 366/755/37 369/751/37
f 366/755/20 365/1084/20 368/756/20
f 370/752/38 369/751/38 372/757/38
f 369/751/46 368/756/46 371/761/46
f 372/762/30 375/768/30 376/763/30
f 371/767/29 374/1085/29 375/768/29
f 375/769/41 359/742/41 360/732/41
f 375/769/34 374/1086/34 358/741/34
f 378/774/12 382/1087/12 383/775/12
f 380/777/42 379/776/42 383/775/42
f 382/782/36 385/1088/36 386/783/36
f 383/784/35 386/783/35 387/785/35
f 386/790/43 385/1089/43 388/791/43
f 386/790/37 389/792/37 390/793/37
f 388/791/24 391/1090/24 392/797/24
f 390/793/38 389/792/38 392/797/38
f 391/801/39 394/1091/39 395/802/39
f 392/803/40 395/802/40 396/804/40
f 395/807/34 394/1092/34 378/774/34
f 395/807/41 379/776/41 380/777/41
f 399/809/42 403/819/42 404/810/42
f 399/809/45 398/1093/45 402/818/45
f 403/820/17 406/826/17 407/821/17
f 402/825/16 405/1094/16 406/826/16
f 406/827/37 409/833/37 410/828/37
f 405/832/43 408/1095/43 409/833/43
f 409/833/38 412/838/38 413/834/38
f 409/833/46 408/1095/46 411/837/46
f 412/839/30 415/845/30 416/840/30
f 411/844/29 414/1096/29 415/845/29
f 414/846/44 398/1093/44 399/809/44
f 416/848/41 415/847/41 399/809/41
