mtllib dungeon_column.mtl
o dungeon_column

# Group: stone_base
v -0.350000 0.000000 0.350000
v -0.350000 0.160000 0.350000
v -0.350000 0.000000 -0.350000
v -0.350000 0.160000 -0.350000
v 0.350000 0.000000 0.350000
v 0.350000 0.160000 0.350000
v 0.350000 0.000000 -0.350000
v 0.350000 0.160000 -0.350000
v -0.300000 0.160000 0.300000
v -0.300000 0.240000 0.300000
v -0.300000 0.160000 -0.300000
v -0.300000 0.240000 -0.300000
v 0.300000 0.160000 0.300000
v 0.300000 0.240000 0.300000
v 0.300000 0.160000 -0.300000
v 0.300000 0.240000 -0.300000
vt 0.0 0.0
vn -0.577350 -0.577350 0.577350
vn -0.577350 0.577350 0.577350
vn -0.577350 -0.577350 -0.577350
vn -0.577350 0.577350 -0.577350
vn 0.577350 -0.577350 0.577350
vn 0.577350 0.577350 0.577350
vn 0.577350 -0.577350 -0.577350
vn 0.577350 0.577350 -0.577350
vn -0.577350 -0.577350 0.577350
vn -0.577350 0.577350 0.577350
vn -0.577350 -0.577350 -0.577350
vn -0.577350 0.577350 -0.577350
vn 0.577350 -0.577350 0.577350
vn 0.577350 0.577350 0.577350
vn 0.577350 -0.577350 -0.577350
vn 0.577350 0.577350 -0.577350
usemtl stone_base
f 2/1/2 4/1/4 1/1/1
f 5/1/5 2/1/2 1/1/1
f 1/1/1 4/1/4 3/1/3
f 3/1/3 5/1/5 1/1/1
f 2/1/2 8/1/8 4/1/4
f 6/1/6 2/1/2 5/1/5
f 6/1/6 8/1/8 2/1/2
f 4/1/4 8/1/8 3/1/3
f 7/1/7 5/1/5 3/1/3
f 3/1/3 8/1/8 7/1/7
f 7/1/7 6/1/6 5/1/5
f 8/1/8 6/1/6 7/1/7
f 10/1/10 12/1/12 9/1/9
f 13/1/13 10/1/10 9/1/9
f 9/1/9 12/1/12 11/1/11
f 11/1/11 13/1/13 9/1/9
f 10/1/10 16/1/16 12/1/12
f 14/1/14 10/1/10 13/1/13
f 14/1/14 16/1/16 10/1/10
f 12/1/12 16/1/16 11/1/11
f 15/1/15 13/1/13 11/1/11
f 11/1/11 16/1/16 15/1/15
f 15/1/15 14/1/14 13/1/13
f 16/1/16 14/1/14 15/1/15

# Group: stone_shaft
v 0.000000 0.240000 0.000000
v 0.240000 0.240000 0.000000
v 0.240000 0.840000 0.000000
v 0.000000 0.840000 0.000000
v 0.221731 0.240000 -0.091844
v 0.221731 0.840000 -0.091844
v 0.169706 0.240000 -0.169706
v 0.169706 0.840000 -0.169706
v 0.091844 0.240000 -0.221731
v 0.091844 0.840000 -0.221731
v 0.000000 0.240000 -0.240000
v 0.000000 0.840000 -0.240000
v -0.091844 0.240000 -0.221731
v -0.091844 0.840000 -0.221731
v -0.169706 0.240000 -0.169706
v -0.169706 0.840000 -0.169706
v -0.221731 0.240000 -0.091844
v -0.221731 0.840000 -0.091844
v -0.240000 0.240000 0.000000
v -0.240000 0.840000 0.000000
v -0.221731 0.240000 0.091844
v -0.221731 0.840000 0.091844
v -0.169706 0.240000 0.169706
v -0.169706 0.840000 0.169706
v -0.091844 0.240000 0.221731
v -0.091844 0.840000 0.221731
v -0.000000 0.240000 0.240000
v -0.000000 0.840000 0.240000
v 0.091844 0.240000 0.221731
v 0.091844 0.840000 0.221731
v 0.169706 0.240000 0.169706
v 0.169706 0.840000 0.169706
v 0.221731 0.240000 0.091844
v 0.221731 0.840000 0.091844
vt 0.0 0.0
vn 0.000000 -1.000000 0.000000
vn 0.746203 -0.665719 0.000000
vn 0.746203 0.665719 0.000000
vn 0.000000 1.000000 0.000000
vn 0.689401 -0.665719 -0.285559
vn 0.689401 0.665719 -0.285559
vn 0.527645 -0.665719 -0.527645
vn 0.527645 0.665719 -0.527645
vn 0.285559 -0.665719 -0.689401
vn 0.285559 0.665719 -0.689401
vn -0.000000 -0.665719 -0.746203
vn 0.000000 0.665719 -0.746203
vn -0.285559 -0.665719 -0.689401
vn -0.285559 0.665719 -0.689401
vn -0.527645 -0.665719 -0.527645
vn -0.527645 0.665719 -0.527645
vn -0.689401 -0.665719 -0.285559
vn -0.689401 0.665719 -0.285559
vn -0.746203 -0.665719 0.000000
vn -0.746203 0.665719 0.000000
vn -0.689401 -0.665719 0.285559
vn -0.689401 0.665719 0.285559
vn -0.527645 -0.665719 0.527645
vn -0.527645 0.665719 0.527645
vn -0.285559 -0.665719 0.689401
vn -0.285559 0.665719 0.689401
vn -0.000000 -0.665719 0.746203
vn -0.000000 0.665719 0.746203
vn 0.285559 -0.665719 0.689401
vn 0.285559 0.665719 0.689401
vn 0.527645 -0.665719 0.527645
vn 0.527645 0.665719 0.527645
vn 0.689401 -0.665719 0.285559
vn 0.689401 0.665719 0.285559
usemtl stone_shaft
f 18/1/18 17/1/17 21/1/21
f 18/1/18 21/1/21 19/1/19
f 19/1/19 21/1/21 22/1/22
f 19/1/19 22/1/22 20/1/20
f 21/1/21 17/1/17 23/1/23
f 21/1/21 23/1/23 22/1/22
f 22/1/22 23/1/23 24/1/24
f 22/1/22 24/1/24 20/1/20
f 23/1/23 17/1/17 25/1/25
f 23/1/23 25/1/25 24/1/24
f 24/1/24 25/1/25 26/1/26
f 24/1/24 26/1/26 20/1/20
f 25/1/25 17/1/17 27/1/27
f 25/1/25 27/1/27 26/1/26
f 26/1/26 27/1/27 28/1/28
f 26/1/26 28/1/28 20/1/20
f 27/1/27 17/1/17 29/1/29
f 27/1/27 29/1/29 28/1/28
f 28/1/28 29/1/29 30/1/30
f 28/1/28 30/1/30 20/1/20
f 29/1/29 17/1/17 31/1/31
f 29/1/29 31/1/31 30/1/30
f 30/1/30 31/1/31 32/1/32
f 30/1/30 32/1/32 20/1/20
f 31/1/31 17/1/17 33/1/33
f 31/1/31 33/1/33 32/1/32
f 32/1/32 33/1/33 34/1/34
f 32/1/32 34/1/34 20/1/20
f 33/1/33 17/1/17 35/1/35
f 33/1/33 35/1/35 34/1/34
f 34/1/34 35/1/35 36/1/36
f 34/1/34 36/1/36 20/1/20
f 35/1/35 17/1/17 37/1/37
f 35/1/35 37/1/37 36/1/36
f 36/1/36 37/1/37 38/1/38
f 36/1/36 38/1/38 20/1/20
f 37/1/37 17/1/17 39/1/39
f 37/1/37 39/1/39 38/1/38
f 38/1/38 39/1/39 40/1/40
f 38/1/38 40/1/40 20/1/20
f 39/1/39 17/1/17 41/1/41
f 39/1/39 41/1/41 40/1/40
f 40/1/40 41/1/41 42/1/42
f 40/1/40 42/1/42 20/1/20
f 41/1/41 17/1/17 43/1/43
f 41/1/41 43/1/43 42/1/42
f 42/1/42 43/1/43 44/1/44
f 42/1/42 44/1/44 20/1/20
f 43/1/43 17/1/17 45/1/45
f 43/1/43 45/1/45 44/1/44
f 44/1/44 45/1/45 46/1/46
f 44/1/44 46/1/46 20/1/20
f 45/1/45 17/1/17 47/1/47
f 45/1/45 47/1/47 46/1/46
f 46/1/46 47/1/47 48/1/48
f 46/1/46 48/1/48 20/1/20
f 47/1/47 17/1/17 49/1/49
f 47/1/47 49/1/49 48/1/48
f 48/1/48 49/1/49 50/1/50
f 48/1/48 50/1/50 20/1/20
f 49/1/49 17/1/17 18/1/18
f 49/1/49 18/1/18 50/1/50
f 50/1/50 18/1/18 19/1/19
f 50/1/50 19/1/19 20/1/20

# Group: stone_top
v 0.000000 0.840000 0.000000
v 0.280000 0.840000 0.000000
v 0.280000 0.900000 0.000000
v 0.000000 0.900000 0.000000
v 0.258686 0.840000 -0.107151
v 0.258686 0.900000 -0.107151
v 0.197990 0.840000 -0.197990
v 0.197990 0.900000 -0.197990
v 0.107151 0.840000 -0.258686
v 0.107151 0.900000 -0.258686
v 0.000000 0.840000 -0.280000
v 0.000000 0.900000 -0.280000
v -0.107151 0.840000 -0.258686
v -0.107151 0.900000 -0.258686
v -0.197990 0.840000 -0.197990
v -0.197990 0.900000 -0.197990
v -0.258686 0.840000 -0.107151
v -0.258686 0.900000 -0.107151
v -0.280000 0.840000 0.000000
v -0.280000 0.900000 0.000000
v -0.258686 0.840000 0.107151
v -0.258686 0.900000 0.107151
v -0.197990 0.840000 0.197990
v -0.197990 0.900000 0.197990
v -0.107151 0.840000 0.258686
v -0.107151 0.900000 0.258686
v -0.000000 0.840000 0.280000
v -0.000000 0.900000 0.280000
v 0.107151 0.840000 0.258686
v 0.107151 0.900000 0.258686
v 0.197990 0.840000 0.197990
v 0.197990 0.900000 0.197990
v 0.258686 0.840000 0.107151
v 0.258686 0.900000 0.107151
v -0.350000 0.880000 0.350000
v -0.350000 1.000000 0.350000
v -0.350000 0.880000 -0.350000
v -0.350000 1.000000 -0.350000
v 0.350000 0.880000 0.350000
v 0.350000 1.000000 0.350000
v 0.350000 0.880000 -0.350000
v 0.350000 1.000000 -0.350000
vt 0.0 0.0
vn 0.000000 -1.000000 0.000000
vn 0.746203 -0.665719 0.000000
vn 0.746203 0.665719 0.000000
vn 0.000000 1.000000 0.000000
vn 0.689401 -0.665719 -0.285559
vn 0.689401 0.665719 -0.285559
vn 0.527645 -0.665719 -0.527645
vn 0.527645 0.665719 -0.527645
vn 0.285559 -0.665719 -0.689401
vn 0.285559 0.665719 -0.689401
vn -0.000000 -0.665719 -0.746203
vn 0.000000 0.665719 -0.746203
vn -0.285559 -0.665719 -0.689401
vn -0.285559 0.665719 -0.689401
vn -0.527645 -0.665719 -0.527645
vn -0.527645 0.665719 -0.527645
vn -0.689401 -0.665719 -0.285559
vn -0.689401 0.665719 -0.285559
vn -0.746203 -0.665719 0.000000
vn -0.746203 0.665719 0.000000
vn -0.689401 -0.665719 0.285559
vn -0.689401 0.665719 0.285559
vn -0.527645 -0.665719 0.527645
vn -0.527645 0.665719 0.527645
vn -0.285559 -0.665719 0.689401
vn -0.285559 0.665719 0.689401
vn -0.000000 -0.665719 0.746203
vn -0.000000 0.665719 0.746203
vn 0.285559 -0.665719 0.689401
vn 0.285559 0.665719 0.689401
vn 0.527645 -0.665719 0.527645
vn 0.527645 0.665719 0.527645
vn 0.689401 -0.665719 0.285559
vn 0.689401 0.665719 0.285559
vn -0.577350 -0.577350 0.577350
vn -0.577350 0.577350 0.577350
vn -0.577350 -0.577350 -0.577350
vn -0.577350 0.577350 -0.577350
vn 0.577350 -0.577350 0.577350
vn 0.577350 0.577350 0.577350
vn 0.577350 -0.577350 -0.577350
vn 0.577350 0.577350 -0.577350
usemtl stone_top
f 52/1/52 51/1/51 55/1/55
f 52/1/52 55/1/55 53/1/53
f 53/1/53 55/1/55 56/1/56
f 53/1/53 56/1/56 54/1/54
f 55/1/55 51/1/51 57/1/57
f 55/1/55 57/1/57 56/1/56
f 56/1/56 57/1/57 58/1/58
f 56/1/56 58/1/58 54/1/54
f 57/1/57 51/1/51 59/1/59
f 57/1/57 59/1/59 58/1/58
f 58/1/58 59/1/59 60/1/60
f 58/1/58 60/1/60 54/1/54
f 59/1/59 51/1/51 61/1/61
f 59/1/59 61/1/61 60/1/60
f 60/1/60 61/1/61 62/1/62
f 60/1/60 62/1/62 54/1/54
f 61/1/61 51/1/51 63/1/63
f 61/1/61 63/1/63 62/1/62
f 62/1/62 63/1/63 64/1/64
f 62/1/62 64/1/64 54/1/54
f 63/1/63 51/1/51 65/1/65
f 63/1/63 65/1/65 64/1/64
f 64/1/64 65/1/65 66/1/66
f 64/1/64 66/1/66 54/1/54
f 65/1/65 51/1/51 67/1/67
f 65/1/65 67/1/67 66/1/66
f 66/1/66 67/1/67 68/1/68
f 66/1/66 68/1/68 54/1/54
f 67/1/67 51/1/51 69/1/69
f 67/1/67 69/1/69 68/1/68
f 68/1/68 69/1/69 70/1/70
f 68/1/68 70/1/70 54/1/54
f 69/1/69 51/1/51 71/1/71
f 69/1/69 71/1/71 70/1/70
f 70/1/70 71/1/71 72/1/72
f 70/1/70 72/1/72 54/1/54
f 71/1/71 51/1/51 73/1/73
f 71/1/71 73/1/73 72/1/72
f 72/1/72 73/1/73 74/1/74
f 72/1/72 74/1/74 54/1/54
f 73/1/73 51/1/51 75/1/75
f 73/1/73 75/1/75 74/1/74
f 74/1/74 75/1/75 76/1/76
f 74/1/74 76/1/76 54/1/54
f 75/1/75 51/1/51 77/1/77
f 75/1/75 77/1/77 76/1/76
f 76/1/76 77/1/77 78/1/78
f 76/1/76 78/1/78 54/1/54
f 77/1/77 51/1/51 79/1/79
f 77/1/77 79/1/79 78/1/78
f 78/1/78 79/1/79 80/1/80
f 78/1/78 80/1/80 54/1/54
f 79/1/79 51/1/51 81/1/81
f 79/1/79 81/1/81 80/1/80
f 80/1/80 81/1/81 82/1/82
f 80/1/80 82/1/82 54/1/54
f 81/1/81 51/1/51 83/1/83
f 81/1/81 83/1/83 82/1/82
f 82/1/82 83/1/83 84/1/84
f 82/1/82 84/1/84 54/1/54
f 83/1/83 51/1/51 52/1/52
f 83/1/83 52/1/52 84/1/84
f 84/1/84 52/1/52 53/1/53
f 84/1/84 53/1/53 54/1/54
f 86/1/86 88/1/88 85/1/85
f 89/1/89 86/1/86 85/1/85
f 85/1/85 88/1/88 87/1/87
f 87/1/87 89/1/89 85/1/85
f 86/1/86 92/1/92 88/1/88
f 90/1/90 86/1/86 89/1/89
f 90/1/90 92/1/92 86/1/86
f 88/1/88 92/1/92 87/1/87
f 91/1/91 89/1/89 87/1/87
f 87/1/87 92/1/92 91/1/91
f 91/1/91 90/1/90 89/1/89
f 92/1/92 90/1/90 91/1/91

