# Blender 5.1.2
# www.blender.org
mtllib dungeon_brazier.mtl
o dungeon_brazier
v 0.000000 0.000000 -0.240000
v 0.000000 0.100000 -0.240000
v 0.120000 0.000000 -0.207846
v 0.120000 0.100000 -0.207846
v 0.207846 0.000000 -0.120000
v 0.207846 0.100000 -0.120000
v 0.240000 0.000000 0.000000
v 0.240000 0.100000 0.000000
v 0.207846 0.000000 0.120000
v 0.207846 0.100000 0.120000
v 0.120000 0.000000 0.207846
v 0.120000 0.100000 0.207846
v 0.000000 0.000000 0.240000
v 0.000000 0.100000 0.240000
v -0.120000 0.000000 0.207846
v -0.120000 0.100000 0.207846
v -0.207846 0.000000 0.120000
v -0.207846 0.100000 0.120000
v -0.240000 0.000000 0.000000
v -0.240000 0.100000 0.000000
v -0.207846 0.000000 -0.120000
v -0.207846 0.100000 -0.120000
v -0.120000 0.000000 -0.207846
v -0.120000 0.100000 -0.207846
v 0.000000 0.095000 -0.150000
v 0.000000 0.545000 -0.150000
v 0.075000 0.095000 -0.129904
v 0.075000 0.545000 -0.129904
v 0.129904 0.095000 -0.075000
v 0.129904 0.545000 -0.075000
v 0.150000 0.095000 0.000000
v 0.150000 0.545000 0.000000
v 0.129904 0.095000 0.075000
v 0.129904 0.545000 0.075000
v 0.075000 0.095000 0.129904
v 0.075000 0.545000 0.129904
v 0.000000 0.095000 0.150000
v 0.000000 0.545000 0.150000
v -0.075000 0.095000 0.129904
v -0.075000 0.545000 0.129904
v -0.129904 0.095000 0.075000
v -0.129904 0.545000 0.075000
v -0.150000 0.095000 0.000000
v -0.150000 0.545000 0.000000
v -0.129904 0.095000 -0.075000
v -0.129904 0.545000 -0.075000
v -0.075000 0.095000 -0.129904
v -0.075000 0.545000 -0.129904
v 0.000000 0.540000 -0.250000
v 0.000000 0.680000 -0.250000
v 0.095671 0.540000 -0.230970
v 0.095671 0.680000 -0.230970
v 0.176777 0.540000 -0.176777
v 0.176777 0.680000 -0.176777
v 0.230970 0.540000 -0.095671
v 0.230970 0.680000 -0.095671
v 0.250000 0.540000 0.000000
v 0.250000 0.680000 0.000000
v 0.230970 0.540000 0.095671
v 0.230970 0.680000 0.095671
v 0.176777 0.540000 0.176777
v 0.176777 0.680000 0.176777
v 0.095671 0.540000 0.230970
v 0.095671 0.680000 0.230970
v 0.000000 0.540000 0.250000
v 0.000000 0.680000 0.250000
v -0.095671 0.540000 0.230970
v -0.095671 0.680000 0.230970
v -0.176777 0.540000 0.176777
v -0.176777 0.680000 0.176777
v -0.230970 0.540000 0.095671
v -0.230970 0.680000 0.095671
v -0.250000 0.540000 0.000000
v -0.250000 0.680000 0.000000
v -0.230970 0.540000 -0.095671
v -0.230970 0.680000 -0.095671
v -0.176777 0.540000 -0.176777
v -0.176777 0.680000 -0.176777
v -0.095671 0.540000 -0.230970
v -0.095671 0.680000 -0.230970
vn 0.2588 -0.0000 -0.9659
vn 0.7071 -0.0000 -0.7071
vn 0.9659 -0.0000 -0.2588
vn 0.9659 -0.0000 0.2588
vn 0.7071 -0.0000 0.7071
vn 0.2588 -0.0000 0.9659
vn -0.2588 -0.0000 0.9659
vn -0.7071 -0.0000 0.7071
vn -0.9659 -0.0000 0.2588
vn -0.9659 -0.0000 -0.2588
vn -0.0000 1.0000 -0.0000
vn -0.7071 -0.0000 -0.7071
vn -0.2588 -0.0000 -0.9659
vn -0.0000 -1.0000 -0.0000
vn 0.1951 -0.0000 -0.9808
vn 0.5556 -0.0000 -0.8315
vn 0.8315 -0.0000 -0.5556
vn 0.9808 -0.0000 -0.1951
vn 0.9808 -0.0000 0.1951
vn 0.8315 -0.0000 0.5556
vn 0.5556 -0.0000 0.8315
vn 0.1951 -0.0000 0.9808
vn -0.1951 -0.0000 0.9808
vn -0.5556 -0.0000 0.8315
vn -0.8315 -0.0000 0.5556
vn -0.9808 -0.0000 0.1951
vn -0.9808 -0.0000 -0.1951
vn -0.8315 -0.0000 -0.5556
vn -0.5556 -0.0000 -0.8315
vn -0.1951 -0.0000 -0.9808
vt 1.000000 1.000000
vt 0.916667 0.500000
vt 1.000000 0.500000
vt 0.916667 1.000000
vt 0.833333 0.500000
vt 0.833333 1.000000
vt 0.750000 0.500000
vt 0.750000 1.000000
vt 0.666667 0.500000
vt 0.666667 1.000000
vt 0.583333 0.500000
vt 0.583333 1.000000
vt 0.500000 0.500000
vt 0.500000 1.000000
vt 0.416667 0.500000
vt 0.416667 1.000000
vt 0.333333 0.500000
vt 0.333333 1.000000
vt 0.250000 0.500000
vt 0.250000 1.000000
vt 0.166667 0.500000
vt 0.042154 0.370000
vt 0.250000 0.010000
vt 0.457846 0.370000
vt 0.166667 1.000000
vt 0.083333 0.500000
vt 0.083333 1.000000
vt 0.000000 0.500000
vt 0.990000 0.250000
vt 0.630000 0.042154
vt 0.630000 0.457846
vt 0.042154 0.370000
vt 0.457846 0.370000
vt 0.630000 0.042154
vt 0.630000 0.457846
vt 0.937500 0.500000
vt 0.937500 1.000000
vt 0.875000 0.500000
vt 0.875000 1.000000
vt 0.812500 0.500000
vt 0.812500 1.000000
vt 0.750000 0.500000
vt 0.750000 1.000000
vt 0.687500 0.500000
vt 0.687500 1.000000
vt 0.625000 0.500000
vt 0.625000 1.000000
vt 0.562500 0.500000
vt 0.562500 1.000000
vt 0.500000 0.500000
vt 0.500000 1.000000
vt 0.437500 0.500000
vt 0.437500 1.000000
vt 0.375000 0.500000
vt 0.375000 1.000000
vt 0.312500 0.500000
vt 0.312500 1.000000
vt 0.250000 0.500000
vt 0.250000 1.000000
vt 0.187500 0.500000
vt 0.187500 1.000000
vt 0.125000 0.500000
vt 0.080294 0.080294
vt 0.419706 0.080294
vt 0.419706 0.419706
vt 0.125000 1.000000
vt 0.062500 0.500000
vt 0.062500 1.000000
vt 0.000000 0.500000
vt 0.841844 0.028269
vt 0.528269 0.158156
vt 0.658156 0.471731
vt 0.370000 0.457846
vt 0.250000 0.490000
vt 0.130000 0.457846
vt 0.010000 0.250000
vt 0.042154 0.130000
vt 0.130000 0.042154
vt 0.370000 0.042154
vt 0.457846 0.130000
vt 0.490000 0.250000
vt 0.000000 1.000000
vt 0.750000 0.490000
vt 0.870000 0.457846
vt 0.957846 0.370000
vt 0.957846 0.130000
vt 0.870000 0.042154
vt 0.750000 0.010000
vt 0.542154 0.130000
vt 0.510000 0.250000
vt 0.542154 0.370000
vt 0.370000 0.457846
vt 0.130000 0.457846
vt 0.042154 0.130000
vt 0.130000 0.042154
vt 0.370000 0.042154
vt 0.457846 0.130000
vt 0.870000 0.457846
vt 0.957846 0.370000
vt 0.957846 0.130000
vt 0.870000 0.042154
vt 0.542154 0.130000
vt 0.542154 0.370000
vt 0.341844 0.471731
vt 0.158156 0.471731
vt 0.080294 0.419706
vt 0.028269 0.341844
vt 0.028269 0.158156
vt 0.158156 0.028269
vt 0.341844 0.028269
vt 0.471731 0.158156
vt 0.471731 0.341844
vt 0.000000 1.000000
vt 0.841844 0.471731
vt 0.919706 0.419706
vt 0.971731 0.341844
vt 0.971731 0.158156
vt 0.919706 0.080294
vt 0.658156 0.028269
vt 0.580294 0.080294
vt 0.528269 0.341844
vt 0.580294 0.419706
s 0
usemtl stone_dark
f 2/1/1 3/2/1 1/3/1
f 4/4/2 5/5/2 3/2/2
f 6/6/3 7/7/3 5/5/3
f 8/8/4 9/9/4 7/7/4
f 10/10/5 11/11/5 9/9/5
f 12/12/6 13/13/6 11/11/6
f 14/14/7 15/15/7 13/13/7
f 16/16/8 17/17/8 15/15/8
f 18/18/9 19/19/9 17/17/9
f 20/20/10 21/21/10 19/19/10
f 22/22/11 14/23/11 6/24/11
f 22/25/12 23/26/12 21/21/12
f 24/27/13 1/28/13 23/26/13
f 7/29/14 15/30/14 23/31/14
f 2/1/1 4/4/1 3/2/1
f 4/4/2 6/6/2 5/5/2
f 6/6/3 8/8/3 7/7/3
f 8/8/4 10/10/4 9/9/4
f 10/10/5 12/12/5 11/11/5
f 12/12/6 14/14/6 13/13/6
f 14/14/7 16/16/7 15/15/7
f 16/16/8 18/18/8 17/17/8
f 18/18/9 20/20/9 19/19/9
f 20/20/10 22/25/10 21/21/10
f 6/24/11 4/73/11 2/74/11
f 2/74/11 24/75/11 22/22/11
f 22/22/11 20/76/11 18/77/11
f 18/77/11 16/78/11 14/23/11
f 14/23/11 12/79/11 10/80/11
f 10/80/11 8/81/11 6/24/11
f 6/24/11 2/74/11 22/22/11
f 22/22/11 18/77/11 14/23/11
f 14/23/11 10/80/11 6/24/11
f 22/25/12 24/27/12 23/26/12
f 24/27/13 2/82/13 1/28/13
f 23/31/14 1/83/14 3/84/14
f 3/84/14 5/85/14 7/29/14
f 7/29/14 9/86/14 11/87/14
f 11/87/14 13/88/14 15/30/14
f 15/30/14 17/89/14 19/90/14
f 19/90/14 21/91/14 23/31/14
f 23/31/14 3/84/14 7/29/14
f 7/29/14 11/87/14 15/30/14
f 15/30/14 19/90/14 23/31/14
usemtl stone_light
f 26/1/1 27/2/1 25/3/1
f 28/4/2 29/5/2 27/2/2
f 30/6/3 31/7/3 29/5/3
f 32/8/4 33/9/4 31/7/4
f 34/10/5 35/11/5 33/9/5
f 36/12/6 37/13/6 35/11/6
f 38/14/7 39/15/7 37/13/7
f 40/16/8 41/17/8 39/15/8
f 42/18/9 43/19/9 41/17/9
f 44/20/10 45/21/10 43/19/10
f 46/32/11 38/23/11 30/33/11
f 46/25/12 47/26/12 45/21/12
f 48/27/13 25/28/13 47/26/13
f 31/29/14 39/34/14 47/35/14
f 26/1/1 28/4/1 27/2/1
f 28/4/2 30/6/2 29/5/2
f 30/6/3 32/8/3 31/7/3
f 32/8/4 34/10/4 33/9/4
f 34/10/5 36/12/5 35/11/5
f 36/12/6 38/14/6 37/13/6
f 38/14/7 40/16/7 39/15/7
f 40/16/8 42/18/8 41/17/8
f 42/18/9 44/20/9 43/19/9
f 44/20/10 46/25/10 45/21/10
f 30/33/11 28/92/11 26/74/11
f 26/74/11 48/93/11 46/32/11
f 46/32/11 44/76/11 42/94/11
f 42/94/11 40/95/11 38/23/11
f 38/23/11 36/96/11 34/97/11
f 34/97/11 32/81/11 30/33/11
f 30/33/11 26/74/11 46/32/11
f 46/32/11 42/94/11 38/23/11
f 38/23/11 34/97/11 30/33/11
f 46/25/12 48/27/12 47/26/12
f 48/27/13 26/82/13 25/28/13
f 47/35/14 25/83/14 27/98/14
f 27/98/14 29/99/14 31/29/14
f 31/29/14 33/100/14 35/101/14
f 35/101/14 37/88/14 39/34/14
f 39/34/14 41/102/14 43/90/14
f 43/90/14 45/103/14 47/35/14
f 47/35/14 27/98/14 31/29/14
f 31/29/14 35/101/14 39/34/14
f 39/34/14 43/90/14 47/35/14
usemtl bronze_gold
f 50/1/15 51/36/15 49/3/15
f 52/37/16 53/38/16 51/36/16
f 54/39/17 55/40/17 53/38/17
f 56/41/18 57/42/18 55/40/18
f 58/43/19 59/44/19 57/42/19
f 60/45/20 61/46/20 59/44/20
f 62/47/21 63/48/21 61/46/21
f 64/49/22 65/50/22 63/48/22
f 66/51/23 67/52/23 65/50/23
f 68/53/24 69/54/24 67/52/24
f 70/55/25 71/56/25 69/54/25
f 72/57/26 73/58/26 71/56/26
f 74/59/27 75/60/27 73/58/27
f 76/61/28 77/62/28 75/60/28
f 70/63/11 62/64/11 54/65/11
f 78/66/29 79/67/29 77/62/29
f 80/68/30 49/69/30 79/67/30
f 63/70/14 71/71/14 79/72/14
f 50/1/15 52/37/15 51/36/15
f 52/37/16 54/39/16 53/38/16
f 54/39/17 56/41/17 55/40/17
f 56/41/18 58/43/18 57/42/18
f 58/43/19 60/45/19 59/44/19
f 60/45/20 62/47/20 61/46/20
f 62/47/21 64/49/21 63/48/21
f 64/49/22 66/51/22 65/50/22
f 66/51/23 68/53/23 67/52/23
f 68/53/24 70/55/24 69/54/24
f 70/55/25 72/57/25 71/56/25
f 72/57/26 74/59/26 73/58/26
f 74/59/27 76/61/27 75/60/27
f 76/61/28 78/66/28 77/62/28
f 54/65/11 52/104/11 50/74/11
f 50/74/11 80/105/11 78/106/11
f 78/106/11 76/107/11 74/76/11
f 74/76/11 72/108/11 70/63/11
f 70/63/11 68/109/11 66/23/11
f 66/23/11 64/110/11 62/64/11
f 62/64/11 60/111/11 58/81/11
f 58/81/11 56/112/11 54/65/11
f 54/65/11 50/74/11 78/106/11
f 78/106/11 74/76/11 70/63/11
f 70/63/11 66/23/11 62/64/11
f 62/64/11 58/81/11 54/65/11
f 54/65/11 78/106/11 70/63/11
f 78/66/29 80/68/29 79/67/29
f 80/68/30 50/113/30 49/69/30
f 79/72/14 49/83/14 51/114/14
f 51/114/14 53/115/14 55/116/14
f 55/116/14 57/29/14 59/117/14
f 59/117/14 61/118/14 63/70/14
f 63/70/14 65/88/14 67/119/14
f 67/119/14 69/120/14 71/71/14
f 71/71/14 73/90/14 75/121/14
f 75/121/14 77/122/14 79/72/14
f 79/72/14 51/114/14 55/116/14
f 55/116/14 59/117/14 63/70/14
f 63/70/14 67/119/14 71/71/14
f 71/71/14 75/121/14 79/72/14
f 79/72/14 55/116/14 63/70/14
