# Generated by tools/asset-gen/build_first_stratum_props.py
mtllib shrine_table.mtl
o shrine_table

v -0.300000 0.000000 -0.200000
v 0.300000 0.000000 -0.200000
v 0.300000 0.080000 -0.200000
v -0.300000 0.080000 -0.200000
v 0.300000 0.000000 0.200000
v -0.300000 0.000000 0.200000
v -0.300000 0.080000 0.200000
v 0.300000 0.080000 0.200000
v 0.300000 0.000000 -0.200000
v 0.300000 0.000000 0.200000
v 0.300000 0.080000 0.200000
v 0.300000 0.080000 -0.200000
v -0.300000 0.000000 0.200000
v -0.300000 0.000000 -0.200000
v -0.300000 0.080000 -0.200000
v -0.300000 0.080000 0.200000
v -0.300000 0.080000 0.200000
v 0.300000 0.080000 0.200000
v 0.300000 0.080000 -0.200000
v -0.300000 0.080000 -0.200000
v -0.300000 0.000000 -0.200000
v 0.300000 0.000000 -0.200000
v 0.300000 0.000000 0.200000
v -0.300000 0.000000 0.200000
v -0.160000 0.080000 0.120000
v -0.190000 0.080000 0.068038
v -0.190000 0.460000 0.068038
v -0.160000 0.460000 0.120000
v -0.190000 0.080000 0.068038
v -0.250000 0.080000 0.068038
v -0.250000 0.460000 0.068038
v -0.190000 0.460000 0.068038
v -0.250000 0.080000 0.068038
v -0.280000 0.080000 0.120000
v -0.280000 0.460000 0.120000
v -0.250000 0.460000 0.068038
v -0.280000 0.080000 0.120000
v -0.250000 0.080000 0.171962
v -0.250000 0.460000 0.171962
v -0.280000 0.460000 0.120000
v -0.250000 0.080000 0.171962
v -0.190000 0.080000 0.171962
v -0.190000 0.460000 0.171962
v -0.250000 0.460000 0.171962
v -0.190000 0.080000 0.171962
v -0.160000 0.080000 0.120000
v -0.160000 0.460000 0.120000
v -0.190000 0.460000 0.171962
v -0.190000 0.460000 0.171962
v -0.250000 0.460000 0.171962
v -0.280000 0.460000 0.120000
v -0.250000 0.460000 0.068038
v -0.190000 0.460000 0.068038
v -0.160000 0.460000 0.120000
v -0.160000 0.080000 0.120000
v -0.190000 0.080000 0.068038
v -0.250000 0.080000 0.068038
v -0.280000 0.080000 0.120000
v -0.250000 0.080000 0.171962
v -0.190000 0.080000 0.171962
v 0.280000 0.080000 0.120000
v 0.250000 0.080000 0.068038
v 0.250000 0.460000 0.068038
v 0.280000 0.460000 0.120000
v 0.250000 0.080000 0.068038
v 0.190000 0.080000 0.068038
v 0.190000 0.460000 0.068038
v 0.250000 0.460000 0.068038
v 0.190000 0.080000 0.068038
v 0.160000 0.080000 0.120000
v 0.160000 0.460000 0.120000
v 0.190000 0.460000 0.068038
v 0.160000 0.080000 0.120000
v 0.190000 0.080000 0.171962
v 0.190000 0.460000 0.171962
v 0.160000 0.460000 0.120000
v 0.190000 0.080000 0.171962
v 0.250000 0.080000 0.171962
v 0.250000 0.460000 0.171962
v 0.190000 0.460000 0.171962
v 0.250000 0.080000 0.171962
v 0.280000 0.080000 0.120000
v 0.280000 0.460000 0.120000
v 0.250000 0.460000 0.171962
v 0.250000 0.460000 0.171962
v 0.190000 0.460000 0.171962
v 0.160000 0.460000 0.120000
v 0.190000 0.460000 0.068038
v 0.250000 0.460000 0.068038
v 0.280000 0.460000 0.120000
v 0.280000 0.080000 0.120000
v 0.250000 0.080000 0.068038
v 0.190000 0.080000 0.068038
v 0.160000 0.080000 0.120000
v 0.190000 0.080000 0.171962
v 0.250000 0.080000 0.171962
v -0.160000 0.080000 -0.120000
v -0.190000 0.080000 -0.171962
v -0.190000 0.460000 -0.171962
v -0.160000 0.460000 -0.120000
v -0.190000 0.080000 -0.171962
v -0.250000 0.080000 -0.171962
v -0.250000 0.460000 -0.171962
v -0.190000 0.460000 -0.171962
v -0.250000 0.080000 -0.171962
v -0.280000 0.080000 -0.120000
v -0.280000 0.460000 -0.120000
v -0.250000 0.460000 -0.171962
v -0.280000 0.080000 -0.120000
v -0.250000 0.080000 -0.068038
v -0.250000 0.460000 -0.068038
v -0.280000 0.460000 -0.120000
v -0.250000 0.080000 -0.068038
v -0.190000 0.080000 -0.068038
v -0.190000 0.460000 -0.068038
v -0.250000 0.460000 -0.068038
v -0.190000 0.080000 -0.068038
v -0.160000 0.080000 -0.120000
v -0.160000 0.460000 -0.120000
v -0.190000 0.460000 -0.068038
v -0.190000 0.460000 -0.068038
v -0.250000 0.460000 -0.068038
v -0.280000 0.460000 -0.120000
v -0.250000 0.460000 -0.171962
v -0.190000 0.460000 -0.171962
v -0.160000 0.460000 -0.120000
v -0.160000 0.080000 -0.120000
v -0.190000 0.080000 -0.171962
v -0.250000 0.080000 -0.171962
v -0.280000 0.080000 -0.120000
v -0.250000 0.080000 -0.068038
v -0.190000 0.080000 -0.068038
v 0.280000 0.080000 -0.120000
v 0.250000 0.080000 -0.171962
v 0.250000 0.460000 -0.171962
v 0.280000 0.460000 -0.120000
v 0.250000 0.080000 -0.171962
v 0.190000 0.080000 -0.171962
v 0.190000 0.460000 -0.171962
v 0.250000 0.460000 -0.171962
v 0.190000 0.080000 -0.171962
v 0.160000 0.080000 -0.120000
v 0.160000 0.460000 -0.120000
v 0.190000 0.460000 -0.171962
v 0.160000 0.080000 -0.120000
v 0.190000 0.080000 -0.068038
v 0.190000 0.460000 -0.068038
v 0.160000 0.460000 -0.120000
v 0.190000 0.080000 -0.068038
v 0.250000 0.080000 -0.068038
v 0.250000 0.460000 -0.068038
v 0.190000 0.460000 -0.068038
v 0.250000 0.080000 -0.068038
v 0.280000 0.080000 -0.120000
v 0.280000 0.460000 -0.120000
v 0.250000 0.460000 -0.068038
v 0.250000 0.460000 -0.068038
v 0.190000 0.460000 -0.068038
v 0.160000 0.460000 -0.120000
v 0.190000 0.460000 -0.171962
v 0.250000 0.460000 -0.171962
v 0.280000 0.460000 -0.120000
v 0.280000 0.080000 -0.120000
v 0.250000 0.080000 -0.171962
v 0.190000 0.080000 -0.171962
v 0.160000 0.080000 -0.120000
v 0.190000 0.080000 -0.068038
v 0.250000 0.080000 -0.068038
v -0.320000 0.460000 -0.220000
v 0.320000 0.460000 -0.220000
v 0.320000 0.540000 -0.220000
v -0.320000 0.540000 -0.220000
v 0.320000 0.460000 0.220000
v -0.320000 0.460000 0.220000
v -0.320000 0.540000 0.220000
v 0.320000 0.540000 0.220000
v 0.320000 0.460000 -0.220000
v 0.320000 0.460000 0.220000
v 0.320000 0.540000 0.220000
v 0.320000 0.540000 -0.220000
v -0.320000 0.460000 0.220000
v -0.320000 0.460000 -0.220000
v -0.320000 0.540000 -0.220000
v -0.320000 0.540000 0.220000
v -0.320000 0.540000 0.220000
v 0.320000 0.540000 0.220000
v 0.320000 0.540000 -0.220000
v -0.320000 0.540000 -0.220000
v -0.320000 0.460000 -0.220000
v 0.320000 0.460000 -0.220000
v 0.320000 0.460000 0.220000
v -0.320000 0.460000 0.220000
vt 0.000000 1.000000
vt 1.000000 1.000000
vt 1.000000 0.000000
vt 0.000000 0.000000
vt 0.000000 1.000000
vt 1.000000 1.000000
vt 1.000000 0.000000
vt 0.000000 0.000000
vt 0.000000 1.000000
vt 1.000000 1.000000
vt 1.000000 0.000000
vt 0.000000 0.000000
vt 0.000000 1.000000
vt 1.000000 1.000000
vt 1.000000 0.000000
vt 0.000000 0.000000
vt 0.000000 1.000000
vt 1.000000 1.000000
vt 1.000000 0.000000
vt 0.000000 0.000000
vt 0.000000 1.000000
vt 1.000000 1.000000
vt 1.000000 0.000000
vt 0.000000 0.000000
vt 0.000000 1.000000
vt 1.000000 1.000000
vt 1.000000 0.000000
vt 0.000000 0.000000
vt 0.000000 1.000000
vt 1.000000 1.000000
vt 1.000000 0.000000
vt 0.000000 0.000000
vt 0.000000 1.000000
vt 1.000000 1.000000
vt 1.000000 0.000000
vt 0.000000 0.000000
vt 0.000000 1.000000
vt 1.000000 1.000000
vt 1.000000 0.000000
vt 0.000000 0.000000
vt 0.000000 1.000000
vt 1.000000 1.000000
vt 1.000000 0.000000
vt 0.000000 0.000000
vt 0.000000 1.000000
vt 1.000000 1.000000
vt 1.000000 0.000000
vt 0.000000 0.000000
vt 0.500000 0.500000
vt 0.500000 0.500000
vt 0.500000 0.500000
vt 0.500000 0.500000
vt 0.500000 0.500000
vt 0.500000 0.500000
vt 0.500000 0.500000
vt 0.500000 0.500000
vt 0.500000 0.500000
vt 0.500000 0.500000
vt 0.500000 0.500000
vt 0.500000 0.500000
vt 0.000000 1.000000
vt 1.000000 1.000000
vt 1.000000 0.000000
vt 0.000000 0.000000
vt 0.000000 1.000000
vt 1.000000 1.000000
vt 1.000000 0.000000
vt 0.000000 0.000000
vt 0.000000 1.000000
vt 1.000000 1.000000
vt 1.000000 0.000000
vt 0.000000 0.000000
vt 0.000000 1.000000
vt 1.000000 1.000000
vt 1.000000 0.000000
vt 0.000000 0.000000
vt 0.000000 1.000000
vt 1.000000 1.000000
vt 1.000000 0.000000
vt 0.000000 0.000000
vt 0.000000 1.000000
vt 1.000000 1.000000
vt 1.000000 0.000000
vt 0.000000 0.000000
vt 0.500000 0.500000
vt 0.500000 0.500000
vt 0.500000 0.500000
vt 0.500000 0.500000
vt 0.500000 0.500000
vt 0.500000 0.500000
vt 0.500000 0.500000
vt 0.500000 0.500000
vt 0.500000 0.500000
vt 0.500000 0.500000
vt 0.500000 0.500000
vt 0.500000 0.500000
vt 0.000000 1.000000
vt 1.000000 1.000000
vt 1.000000 0.000000
vt 0.000000 0.000000
vt 0.000000 1.000000
vt 1.000000 1.000000
vt 1.000000 0.000000
vt 0.000000 0.000000
vt 0.000000 1.000000
vt 1.000000 1.000000
vt 1.000000 0.000000
vt 0.000000 0.000000
vt 0.000000 1.000000
vt 1.000000 1.000000
vt 1.000000 0.000000
vt 0.000000 0.000000
vt 0.000000 1.000000
vt 1.000000 1.000000
vt 1.000000 0.000000
vt 0.000000 0.000000
vt 0.000000 1.000000
vt 1.000000 1.000000
vt 1.000000 0.000000
vt 0.000000 0.000000
vt 0.500000 0.500000
vt 0.500000 0.500000
vt 0.500000 0.500000
vt 0.500000 0.500000
vt 0.500000 0.500000
vt 0.500000 0.500000
vt 0.500000 0.500000
vt 0.500000 0.500000
vt 0.500000 0.500000
vt 0.500000 0.500000
vt 0.500000 0.500000
vt 0.500000 0.500000
vt 0.000000 1.000000
vt 1.000000 1.000000
vt 1.000000 0.000000
vt 0.000000 0.000000
vt 0.000000 1.000000
vt 1.000000 1.000000
vt 1.000000 0.000000
vt 0.000000 0.000000
vt 0.000000 1.000000
vt 1.000000 1.000000
vt 1.000000 0.000000
vt 0.000000 0.000000
vt 0.000000 1.000000
vt 1.000000 1.000000
vt 1.000000 0.000000
vt 0.000000 0.000000
vt 0.000000 1.000000
vt 1.000000 1.000000
vt 1.000000 0.000000
vt 0.000000 0.000000
vt 0.000000 1.000000
vt 1.000000 1.000000
vt 1.000000 0.000000
vt 0.000000 0.000000
vt 0.500000 0.500000
vt 0.500000 0.500000
vt 0.500000 0.500000
vt 0.500000 0.500000
vt 0.500000 0.500000
vt 0.500000 0.500000
vt 0.500000 0.500000
vt 0.500000 0.500000
vt 0.500000 0.500000
vt 0.500000 0.500000
vt 0.500000 0.500000
vt 0.500000 0.500000
vt 0.000000 1.000000
vt 1.000000 1.000000
vt 1.000000 0.000000
vt 0.000000 0.000000
vt 0.000000 1.000000
vt 1.000000 1.000000
vt 1.000000 0.000000
vt 0.000000 0.000000
vt 0.000000 1.000000
vt 1.000000 1.000000
vt 1.000000 0.000000
vt 0.000000 0.000000
vt 0.000000 1.000000
vt 1.000000 1.000000
vt 1.000000 0.000000
vt 0.000000 0.000000
vt 0.000000 1.000000
vt 1.000000 1.000000
vt 1.000000 0.000000
vt 0.000000 0.000000
vt 0.000000 1.000000
vt 1.000000 1.000000
vt 1.000000 0.000000
vt 0.000000 0.000000
vn 0.000000 0.000000 1.000000
vn 0.000000 0.000000 -1.000000
vn -1.000000 0.000000 -0.000000
vn 1.000000 0.000000 -0.000000
vn 0.000000 1.000000 -0.000000
vn 0.000000 -1.000000 -0.000000
vn 0.866025 0.000000 -0.500000
vn 0.000000 0.000000 -1.000000
vn -0.866025 0.000000 -0.500000
vn -0.866025 0.000000 0.500000
vn -0.000000 0.000000 1.000000
vn 0.866025 0.000000 0.500000
vn 0.000000 -1.000000 -0.000000
vn 0.000000 1.000000 -0.000000
vn 0.866025 0.000000 -0.500000
vn 0.000000 0.000000 -1.000000
vn -0.866025 0.000000 -0.500000
vn -0.866025 0.000000 0.500000
vn -0.000000 0.000000 1.000000
vn 0.866025 0.000000 0.500000
vn 0.000000 -1.000000 -0.000000
vn 0.000000 1.000000 -0.000000
vn 0.866025 0.000000 -0.500000
vn 0.000000 0.000000 -1.000000
vn -0.866025 0.000000 -0.500000
vn -0.866025 0.000000 0.500000
vn -0.000000 0.000000 1.000000
vn 0.866025 0.000000 0.500000
vn 0.000000 -1.000000 -0.000000
vn 0.000000 1.000000 -0.000000
vn 0.866025 0.000000 -0.500000
vn 0.000000 0.000000 -1.000000
vn -0.866025 0.000000 -0.500000
vn -0.866025 0.000000 0.500000
vn -0.000000 0.000000 1.000000
vn 0.866025 0.000000 0.500000
vn 0.000000 -1.000000 -0.000000
vn 0.000000 1.000000 -0.000000
vn 0.000000 0.000000 1.000000
vn 0.000000 0.000000 -1.000000
vn -1.000000 0.000000 -0.000000
vn 1.000000 0.000000 -0.000000
vn 0.000000 1.000000 -0.000000
vn 0.000000 -1.000000 -0.000000

usemtl carved_stone
f 1/1/1 2/2/1 3/3/1 4/4/1
f 5/5/2 6/6/2 7/7/2 8/8/2
f 9/9/3 10/10/3 11/11/3 12/12/3
f 13/13/4 14/14/4 15/15/4 16/16/4
f 17/17/5 18/18/5 19/19/5 20/20/5
f 21/21/6 22/22/6 23/23/6 24/24/6
f 25/25/7 26/26/7 27/27/7 28/28/7
f 29/29/8 30/30/8 31/31/8 32/32/8
f 33/33/9 34/34/9 35/35/9 36/36/9
f 37/37/10 38/38/10 39/39/10 40/40/10
f 41/41/11 42/42/11 43/43/11 44/44/11
f 45/45/12 46/46/12 47/47/12 48/48/12
f 49/49/13 50/50/13 51/51/13
f 49/49/13 51/51/13 52/52/13
f 49/49/13 52/52/13 53/53/13
f 49/49/13 53/53/13 54/54/13
f 55/55/14 56/56/14 57/57/14
f 55/55/14 57/57/14 58/58/14
f 55/55/14 58/58/14 59/59/14
f 55/55/14 59/59/14 60/60/14
f 61/61/15 62/62/15 63/63/15 64/64/15
f 65/65/16 66/66/16 67/67/16 68/68/16
f 69/69/17 70/70/17 71/71/17 72/72/17
f 73/73/18 74/74/18 75/75/18 76/76/18
f 77/77/19 78/78/19 79/79/19 80/80/19
f 81/81/20 82/82/20 83/83/20 84/84/20
f 85/85/21 86/86/21 87/87/21
f 85/85/21 87/87/21 88/88/21
f 85/85/21 88/88/21 89/89/21
f 85/85/21 89/89/21 90/90/21
f 91/91/22 92/92/22 93/93/22
f 91/91/22 93/93/22 94/94/22
f 91/91/22 94/94/22 95/95/22
f 91/91/22 95/95/22 96/96/22
f 97/97/23 98/98/23 99/99/23 100/100/23
f 101/101/24 102/102/24 103/103/24 104/104/24
f 105/105/25 106/106/25 107/107/25 108/108/25
f 109/109/26 110/110/26 111/111/26 112/112/26
f 113/113/27 114/114/27 115/115/27 116/116/27
f 117/117/28 118/118/28 119/119/28 120/120/28
f 121/121/29 122/122/29 123/123/29
f 121/121/29 123/123/29 124/124/29
f 121/121/29 124/124/29 125/125/29
f 121/121/29 125/125/29 126/126/29
f 127/127/30 128/128/30 129/129/30
f 127/127/30 129/129/30 130/130/30
f 127/127/30 130/130/30 131/131/30
f 127/127/30 131/131/30 132/132/30
f 133/133/31 134/134/31 135/135/31 136/136/31
f 137/137/32 138/138/32 139/139/32 140/140/32
f 141/141/33 142/142/33 143/143/33 144/144/33
f 145/145/34 146/146/34 147/147/34 148/148/34
f 149/149/35 150/150/35 151/151/35 152/152/35
f 153/153/36 154/154/36 155/155/36 156/156/36
f 157/157/37 158/158/37 159/159/37
f 157/157/37 159/159/37 160/160/37
f 157/157/37 160/160/37 161/161/37
f 157/157/37 161/161/37 162/162/37
f 163/163/38 164/164/38 165/165/38
f 163/163/38 165/165/38 166/166/38
f 163/163/38 166/166/38 167/167/38
f 163/163/38 167/167/38 168/168/38
f 169/169/39 170/170/39 171/171/39 172/172/39
f 173/173/40 174/174/40 175/175/40 176/176/40
f 177/177/41 178/178/41 179/179/41 180/180/41
f 181/181/42 182/182/42 183/183/42 184/184/42
f 185/185/43 186/186/43 187/187/43 188/188/43
f 189/189/44 190/190/44 191/191/44 192/192/44
